<?xml version="1.0" standalone="no"?>
<!DOCTYPE svg PUBLIC "-//W3C//DTD SVG 20010904//EN"
 "http://www.w3.org/TR/2001/REC-SVG-20010904/DTD/svg10.dtd">
<svg version="1.0" xmlns="http://www.w3.org/2000/svg"
 width="512.000000pt" height="512.000000pt" viewBox="0 0 512.000000 512.000000"
 preserveAspectRatio="xMidYMid meet">
<metadata>
Created by potrace 1.11, written by Peter Selinger 2001-2013
</metadata>
<g transform="translate(0.000000,512.000000) scale(0.100000,-0.100000)"
fill="#000000" stroke="none">
<path d="M2379 5116 c-2 -2 -35 -6 -74 -10 -222 -19 -495 -86 -705 -173 -101
-41 -312 -146 -351 -173 -15 -11 -30 -20 -33 -20 -10 0 -217 -149 -276 -199
-161 -135 -304 -283 -421 -436 -281 -368 -455 -810 -506 -1285 -15 -136 -8
-503 11 -615 3 -16 8 -43 10 -60 16 -117 90 -399 126 -480 5 -11 21 -49 36
-85 167 -413 463 -793 832 -1069 50 -38 89 -71 87 -73 -3 -3 1 -5 7 -5 7 0 51
-24 97 -53 77 -47 310 -170 325 -170 3 0 25 -9 49 -19 108 -49 292 -106 437
-135 111 -22 129 -25 195 -32 33 -4 64 -9 69 -12 5 -3 104 -6 220 -8 308 -3
514 25 791 108 731 219 1337 773 1628 1488 63 155 133 403 151 530 3 25 8 54
10 66 30 151 28 545 -3 749 -26 169 -90 415 -136 520 -7 17 -26 61 -41 99 -15
38 -49 110 -76 160 -27 50 -56 107 -66 126 -9 19 -20 37 -23 40 -4 3 -21 30
-40 60 -18 30 -36 57 -39 60 -3 3 -17 21 -30 40 -107 159 -312 375 -487 513
-66 52 -289 207 -298 207 -2 0 -45 22 -95 49 -207 113 -521 224 -720 255 -19
3 -44 8 -56 10 -12 2 -45 7 -74 11 -29 4 -62 9 -74 12 -24 5 -452 14 -457 9z
m411 -814 c25 -6 59 -13 75 -16 79 -14 252 -85 325 -133 71 -47 86 -59 148
-118 159 -149 232 -339 235 -608 1 -111 -7 -254 -17 -317 -17 -97 -17 -100 5
-100 36 0 76 -28 95 -67 18 -39 25 -164 12 -228 -17 -82 -63 -175 -115 -231
-20 -21 -67 -100 -105 -174 -206 -401 -424 -614 -702 -685 -118 -30 -282 -28
-396 5 -270 77 -516 333 -700 725 -21 44 -56 99 -77 122 -140 149 -177 459
-62 518 15 8 37 15 49 15 16 0 19 5 16 23 -25 121 -38 384 -25 502 13 107 40
223 59 250 4 6 11 21 15 35 23 76 146 221 250 295 143 101 331 174 495 192 30
3 57 7 59 9 9 8 320 -4 361 -14z m-878 -2957 c-6 -197 20 -286 152 -528 49
-90 180 -266 257 -347 57 -59 147 -137 195 -170 l46 -31 72 54 c119 90 263
247 351 382 21 33 41 62 44 65 19 17 119 223 147 305 26 74 28 92 29 238 0
109 3 156 11 153 28 -11 246 -80 399 -126 285 -87 446 -153 572 -236 63 -41
153 -126 153 -143 0 -13 -125 -142 -205 -211 -97 -84 -312 -240 -331 -240 -4
0 -15 -6 -23 -14 -27 -24 -267 -141 -371 -181 -58 -22 -261 -85 -269 -83 -3 1
-24 -4 -46 -10 -201 -56 -591 -76 -840 -41 -208 29 -367 68 -536 133 -137 52
-349 154 -349 168 0 5 -3 7 -8 4 -10 -6 -232 141 -232 154 0 6 -4 9 -8 6 -5
-3 -19 5 -33 17 -13 12 -62 54 -109 94 -102 87 -200 187 -200 206 0 17 77 88
151 138 118 81 331 168 624 255 50 14 149 46 220 69 72 24 132 44 135 44 3 1
3 -55 2 -124z m814 100 c19 -14 45 -41 60 -61 35 -45 29 -58 -70 -162 l-76
-79 89 -220 88 -221 -32 -43 c-36 -51 -184 -189 -202 -189 -6 0 -13 -5 -15
-12 -9 -26 -160 101 -227 190 l-38 52 88 222 89 222 -55 49 c-59 52 -115 126
-115 151 0 9 25 40 56 71 l56 55 136 0 c129 0 137 -1 168 -25z"/>
<path d="M2043 3668 c-119 -40 -232 -146 -298 -278 -27 -54 -28 -57 -21 -185
3 -71 10 -148 15 -170 5 -22 12 -57 15 -77 3 -20 15 -77 25 -125 11 -48 19
-89 17 -90 -1 -2 -13 23 -26 55 -30 73 -75 139 -100 147 -26 8 -65 -19 -80
-56 -11 -26 -9 -111 3 -169 9 -42 63 -134 98 -167 21 -20 42 -46 45 -58 8 -23
119 -249 154 -310 100 -179 231 -319 350 -377 105 -50 192 -70 319 -70 281 0
471 116 634 385 18 31 36 54 39 51 3 -3 6 1 5 8 -1 7 34 85 78 173 53 109 94
177 126 213 80 88 123 256 85 330 -46 89 -116 51 -176 -96 -21 -52 -25 -40 -9
28 14 59 16 71 23 116 7 44 17 99 23 129 2 11 6 50 8 88 l5 67 -47 1 c-27 0
-64 2 -83 4 -19 1 -67 6 -105 9 -92 7 -152 16 -285 42 -266 52 -482 162 -696
355 -29 25 -59 46 -68 46 -9 0 -42 -9 -73 -19z"/>
</g>
</svg>
