<?xml version="1.0" encoding="iso-8859-1"?>
<!-- Generator: Adobe Illustrator 16.0.0, SVG Export Plug-In . SVG Version: 6.00 Build 0)  -->
<!DOCTYPE svg PUBLIC "-//W3C//DTD SVG 1.1//EN" "http://www.w3.org/Graphics/SVG/1.1/DTD/svg11.dtd">
<svg xmlns="http://www.w3.org/2000/svg" xmlns:xlink="http://www.w3.org/1999/xlink" version="1.1" id="Capa_1" x="0px" y="0px" width="32px" height="32px" viewBox="0 0 420.777 420.777" style="enable-background:new 0 0 420.777 420.777;" xml:space="preserve">
<g>
	<g id="Layer_8_58_">
		<path d="M210.389,0.001C94.381,0.001,0,94.382,0,210.389c0,116.006,94.381,210.387,210.389,210.387    s210.388-94.381,210.388-210.387C420.777,94.382,326.396,0.001,210.389,0.001z M210.389,386.5    c-97.102,0-176.109-79.012-176.109-176.111c0-97.101,79.007-176.109,176.109-176.109c97.101,0,176.109,79.008,176.109,176.109    C386.498,307.489,307.49,386.5,210.389,386.5z M319.061,156.275c3.516,5.094,2.24,12.072-2.854,15.59l-101.554,70.163    c-1.906,1.312-4.136,1.98-6.372,1.98c-1.781,0-3.57-0.427-5.207-1.28c-3.684-1.947-6-5.762-6-9.926V82.639    c0-6.186,5.021-11.207,11.207-11.207c6.188,0,11.206,5.021,11.206,11.207v128.8l83.979-58.02    C308.568,149.917,315.559,151.195,319.061,156.275z" fill="#FFF59D"/>
	</g>
</g>
<g>
</g>
<g>
</g>
<g>
</g>
<g>
</g>
<g>
</g>
<g>
</g>
<g>
</g>
<g>
</g>
<g>
</g>
<g>
</g>
<g>
</g>
<g>
</g>
<g>
</g>
<g>
</g>
<g>
</g>
</svg>
