<?xml version="1.0" encoding="iso-8859-1"?>
<!-- Generator: Adobe Illustrator 19.0.0, SVG Export Plug-In . SVG Version: 6.00 Build 0)  -->
<svg xmlns="http://www.w3.org/2000/svg" xmlns:xlink="http://www.w3.org/1999/xlink" version="1.1" id="Capa_1" x="0px" y="0px" viewBox="0 0 496.941 496.941" style="enable-background:new 0 0 496.941 496.941;" xml:space="preserve" width="24px" height="24px">
<g>
	<g>
		<g>
			<path d="M102.4,387.765c34.635,0,62.494-27.859,62.494-62.494c0-34.635-27.859-62.494-62.494-62.494     c-34.635,0-62.494,27.859-62.494,62.494C39.906,359.906,67.765,387.765,102.4,387.765z M102.4,277.835     c26.353,0,47.435,21.082,47.435,47.435c0,26.353-21.082,47.435-47.435,47.435c-26.353,0-47.435-21.082-47.435-47.435     C54.965,298.918,76.047,277.835,102.4,277.835z" fill="#FFFFFF"/>
			<path d="M134.024,390.023h-64C31.624,390.023,0,421.647,0,460.047v29.365c0,4.518,3.012,7.529,7.529,7.529h188.988     c4.518,0,7.529-3.012,7.529-7.529v-29.365C204.047,420.894,173.176,390.023,134.024,390.023z M188.988,481.882H15.059v-21.835     c0-30.118,24.847-54.965,54.965-54.965h64c30.118,0,54.965,24.847,54.965,54.965V481.882z" fill="#FFFFFF"/>
			<path d="M332.047,325.271c0,34.635,27.859,62.494,62.494,62.494c34.635,0,62.494-27.859,62.494-62.494     c0-34.635-27.859-62.494-62.494-62.494C360.659,262.776,332.047,290.635,332.047,325.271z M394.541,277.835     c26.353,0,47.435,21.082,47.435,47.435c0,26.353-21.082,47.435-47.435,47.435c-26.353,0-47.435-21.082-47.435-47.435     C347.106,298.918,368.941,277.835,394.541,277.835z" fill="#FFFFFF"/>
			<path d="M426.918,390.023h-64c-38.4,0-70.024,31.624-70.024,70.024v29.365c0,4.518,3.012,7.529,7.529,7.529h188.988     c4.518,0,7.529-3.012,7.529-7.529v-29.365C496.941,421.647,465.318,390.023,426.918,390.023z M481.882,481.882H307.953v-21.835     c0-30.118,24.847-54.965,54.965-54.965h64c30.118,0,54.965,24.847,54.965,54.965V481.882z" fill="#FFFFFF"/>
			<path d="M361.412,247.718l1.506,0.753c3.012,1.506,6.776,0,8.282-2.259c2.259-2.259,2.259-6.024,0.753-9.035     c-13.553-21.082-21.835-36.894-25.6-50.447c58.729-46.682,42.165-129.506-33.129-156.612C292.894,11.294,263.529,0,231.153,0     c-62.494,0-112.941,42.918-112.941,94.871c0,26.353,12.8,51.2,35.388,69.271c-3.765,13.553-12.047,29.365-25.6,50.447     c-1.506,3.012-1.506,6.023,0.753,9.035c2.259,2.259,5.271,3.765,8.282,2.259c26.353-10.541,46.682-21.082,62.494-33.129     c25.6,16.565,59.482,24.094,94.118,17.318C307.953,226.635,335.059,237.176,361.412,247.718z M198.024,173.176     c-11.294,9.788-26.353,19.576-45.929,28.612c9.035-14.306,14.306-27.106,17.318-39.153c0.753-3.012-0.753-6.024-3.012-7.529     c-21.082-15.059-33.129-36.894-33.129-60.235c0-44.424,43.671-79.812,97.882-79.812c54.212,0,97.882,36.141,97.882,79.812     s-43.671,79.812-97.882,79.812c-8.282,0-17.318-0.753-26.353-3.012C202.541,170.918,200.282,171.671,198.024,173.176z      M227.388,190.494c1.506,0,2.259,0,3.765,0c80.565,0,134.776-69.271,104.659-131.012c42.165,32.376,40.659,87.341-2.259,118.212     c-2.259,1.506-3.765,4.518-3.012,7.529c2.259,11.294,8.282,24.847,16.565,40.659c-18.823-8.282-36.894-17.318-45.176-27.859     c-1.506-2.259-4.518-3.765-7.529-3.012C271.059,200.282,247.718,198.024,227.388,190.494z" fill="#FFFFFF"/>
			<path d="M185.976,68.518h89.6c4.518,0,7.529-3.012,7.529-7.529s-3.012-7.529-7.529-7.529h-89.6c-4.518,0-7.529,3.012-7.529,7.529     S182.212,68.518,185.976,68.518z" fill="#FFFFFF"/>
			<path d="M185.976,104.659h89.6c4.518,0,7.529-3.012,7.529-7.529s-3.012-7.529-7.529-7.529h-89.6     c-4.518,0-7.529,3.012-7.529,7.529S182.212,104.659,185.976,104.659z" fill="#FFFFFF"/>
			<path d="M283.859,133.271c0-4.518-3.012-7.529-7.529-7.529h-90.353c-4.518,0-7.529,3.012-7.529,7.529s3.012,7.529,7.529,7.529     h89.6C280.094,140.8,283.859,137.788,283.859,133.271z" fill="#FFFFFF"/>
		</g>
	</g>
</g>
<g>
</g>
<g>
</g>
<g>
</g>
<g>
</g>
<g>
</g>
<g>
</g>
<g>
</g>
<g>
</g>
<g>
</g>
<g>
</g>
<g>
</g>
<g>
</g>
<g>
</g>
<g>
</g>
<g>
</g>
</svg>
