<svg id="Layer_1" data-name="Layer 1" xmlns="http://www.w3.org/2000/svg" viewBox="0 0 100 100"><defs><style>.cls-1{fill:#fafbfc;stroke-width:3px;}.cls-1,.cls-2{stroke:#1976d2;stroke-miterlimit:10;}.cls-2{fill:#1976d2;}</style></defs><title>Artboard 1</title><path class="cls-1" d="M89,54.52A26.83,26.83,0,1,0,78.27,64.2,13.38,13.38,0,0,0,96,63.12c.27-.27.51-.55.75-.83Z"/><path class="cls-1" d="M33.4,31.92A26.74,26.74,0,0,0,10.76,73L3,80.72a9.74,9.74,0,0,0,.74.83,13.39,13.39,0,0,0,17.71,1.08,26.77,26.77,0,1,0,12-50.71Z"/><path class="cls-2" d="M24.63,59.74a3.11,3.11,0,1,1-3.11-3.11A3.11,3.11,0,0,1,24.63,59.74Z"/><circle class="cls-2" cx="33.4" cy="59.74" r="3.11"/><path class="cls-2" d="M48.38,59.74a3.11,3.11,0,1,1-3.11-3.11A3.11,3.11,0,0,1,48.38,59.74Z"/><path class="cls-2" d="M58.55,40.27a2.47,2.47,0,1,1-2.46-2.47A2.46,2.46,0,0,1,58.55,40.27Z"/><path class="cls-2" d="M68,40.27A2.47,2.47,0,1,1,65.5,37.8,2.46,2.46,0,0,1,68,40.27Z"/><path class="cls-2" d="M77.37,40.27a2.47,2.47,0,1,1-2.46-2.47A2.46,2.46,0,0,1,77.37,40.27Z"/></svg>
