<?xml version="1.0" encoding="iso-8859-1"?>
<!-- Generator: Adobe Illustrator 19.0.0, SVG Export Plug-In . SVG Version: 6.00 Build 0)  -->
<svg xmlns="http://www.w3.org/2000/svg" xmlns:xlink="http://www.w3.org/1999/xlink" version="1.1" id="Capa_1" x="0px" y="0px" viewBox="0 0 285 285" style="enable-background:new 0 0 285 285;" xml:space="preserve" width="32px" height="32px">
<g>
	<path d="M88.4,87.996c2.525-2.146,2.832-5.933,0.687-8.458C82.801,72.144,79.34,62.719,79.34,53c0-22.607,18.393-41,41-41   c22.607,0,41,18.393,41,41c0,9.729-3.467,19.161-9.761,26.557c-2.148,2.523-1.843,6.311,0.681,8.458   c1.129,0.961,2.511,1.431,3.886,1.431c1.698,0,3.386-0.717,4.572-2.111C168.858,77.77,173.34,65.576,173.34,53   c0-29.225-23.775-53-53-53c-29.225,0-53,23.775-53,53c0,12.563,4.476,24.748,12.602,34.31C82.089,89.835,85.873,90.141,88.4,87.996   z" fill="#FFF59D"/>
	<path d="M120.186,41.201c13.228,0,23.812,8.105,27.313,19.879c0.761-2.562,1.176-5.271,1.176-8.08   c0-15.649-12.685-28.335-28.335-28.335c-15.648,0-28.334,12.686-28.334,28.335c0,2.623,0.364,5.16,1.031,7.571   C96.691,49.076,107.152,41.201,120.186,41.201z" fill="#FFF59D"/>
	<path d="M234.21,169.856c-3.769-22.452-19.597-26.04-27.034-26.462c-2.342-0.133-4.516-1.32-5.801-3.282   c-5.388-8.225-12.609-10.4-18.742-10.4c-4.405,0-8.249,1.122-10.449,1.932c-0.275,0.102-0.559,0.15-0.837,0.15   c-0.87,0-1.701-0.47-2.163-1.262c-5.472-9.387-13.252-11.809-19.822-11.809c-3.824,0-7.237,0.82-9.548,1.564   c-0.241,0.077-0.764,0.114-1.001,0.114c-1.256,0-2.637-1.03-2.637-2.376V69.753c0-11.035-8.224-16.552-16.5-16.552   c-8.276,0-16.5,5.517-16.5,16.552v84.912c0,4.989-3.811,8.074-7.918,8.074c-2.495,0-4.899-1.138-6.552-3.678l-7.937-12.281   c-3.508-5.788-8.576-8.188-13.625-8.189c-11.412-0.001-22.574,12.258-14.644,25.344l62.491,119.692   c0.408,0.782,1.225,1.373,2.108,1.373h87.757c1.253,0,2.289-1.075,2.365-2.325l2.196-35.816c0.025-0.413,0.162-0.84,0.39-1.186   C231.591,212.679,237.828,191.414,234.21,169.856z" fill="#FFF59D"/>
</g>
<g>
</g>
<g>
</g>
<g>
</g>
<g>
</g>
<g>
</g>
<g>
</g>
<g>
</g>
<g>
</g>
<g>
</g>
<g>
</g>
<g>
</g>
<g>
</g>
<g>
</g>
<g>
</g>
<g>
</g>
</svg>
