<?xml version="1.0" encoding="utf-8"?>
<!-- Generator: Adobe Illustrator 22.1.0, SVG Export Plug-In . SVG Version: 6.00 Build 0)  -->
<svg version="1.1" id="Capa_1" xmlns="http://www.w3.org/2000/svg" xmlns:xlink="http://www.w3.org/1999/xlink" x="0px" y="0px"
	 viewBox="0 0 512 512" style="enable-background:new 0 0 512 512;" xml:space="preserve">
<style type="text/css">
	.st0{fill:#F57C00;}
</style>
<g>
	<path class="st0" d="M292.9,261.6l-15.3,18.6c60.9,10,106.4,48,106.4,93.2c0,50.5-56.5,91.7-128,95.6V306.2L234.7,332v136.5
		c-31.9-0.3-63-10.3-89-28.8l-13.6,16.4c0.1,0,0.1,0.2,0.3,0.3c29.8,21.5,65.6,33.2,102.3,33.5v11.4c0,5.9,4.8,10.7,10.7,10.7
		s10.7-4.8,10.7-10.7v-11.1c83.2-4.1,149.3-54.9,149.3-116.9C405.3,320.8,357.9,276.4,292.9,261.6z"/>
	<path class="st0" d="M200.9,272.5l15.5-18.8c-62.6-9.2-109.7-47.7-109.7-93.7c0-50.5,56.5-91.7,128-95.6v167.2l21.3-25.8V64.7
		c32.1,0.3,63.3,10.4,89.4,29c0.7,0.5,1.5,0.8,2.3,1.1l12.8-15.6c-0.6-0.9-1.3-1.8-2.1-2.5C328.5,55.3,292.7,43.6,256,43.4V32
		c0-5.9-4.8-10.7-10.7-10.7s-10.7,4.8-10.7,10.7v11.1C151.5,47.1,85.3,97.9,85.3,160C85.3,213.3,134.3,258.3,200.9,272.5z"/>
</g>
<path class="st0" d="M53.3,512c-5.9,0-10.7-4.8-10.7-10.7c0-2.5,0.9-4.9,2.4-6.8L450.4,3.9c3.8-4.5,10.5-5.2,15-1.4s5.2,10.5,1.4,15
	l0,0L61.5,508.1C59.5,510.6,56.5,512,53.3,512z"/>
<path class="st0" d="M53.3,512c-5.9,0-10.7-4.8-10.7-10.7c0-2.5,0.9-4.9,2.4-6.8L450.4,3.9c3.8-4.5,10.5-5.2,15-1.4s5.2,10.5,1.4,15
	l0,0L61.5,508.1C59.5,510.6,56.5,512,53.3,512z"/>
<path class="st0" d="M245.3,277.3c-88.2,0-160-52.6-160-117.3c0-62.1,66.1-113.1,149.3-117.1V32c0-5.9,4.8-10.7,10.7-10.7
	S256,26.1,256,32v10.9c36.8,0.3,72.6,12.2,102.4,33.9c4.8,3.4,5.9,10.1,2.5,14.9s-10.1,5.9-14.9,2.5c-0.2-0.1-0.4-0.3-0.6-0.4
	c-26-18.9-57.3-29.2-89.5-29.5v202.4C256,272.5,251.2,277.3,245.3,277.3z M234.7,64.3c-71.5,3.8-128,45.3-128,95.7
	s56.5,91.9,128,95.7V64.3z"/>
<path class="st0" d="M245.3,512c-5.9,0-10.7-4.8-10.7-10.7v-10.9c-36.8-0.3-72.6-12.2-102.4-33.9c-4.8-3.4-5.9-10.1-2.5-14.9
	c3.4-4.8,10.1-5.9,14.9-2.5c0.2,0.1,0.4,0.3,0.6,0.4c26,18.9,57.3,29.2,89.5,29.5V266.7c0-5.9,4.8-10.7,10.7-10.7
	c88.2,0,160,52.6,160,117.3c0,62.1-66.1,113.1-149.3,117.1v10.9C256,507.2,251.2,512,245.3,512z M256,277.6V469
	c71.5-3.8,128-45.3,128-95.7S327.5,281.4,256,277.6z"/>
</svg>
