<svg width="141" height="141" viewBox="0 0 141 141" xmlns="http://www.w3.org/2000/svg"><title>Group 16</title><g fill="none" fill-rule="evenodd"><circle cx="67.5" cy="67.5" r="67.5" stroke-width="5" stroke="#E64A19" transform="translate(3 3)"/><path d="M86.78 62.1v44.4h17.02V62.1H86.78zm0-5.92h20.94a2 2 0 0 1 2 2v54.24H90.48l-3.7-56.24z" fill="#E64A19" fill-rule="nonzero"/><path d="M40.9 47.3v59.2h16.28V47.3H40.9zm-4.42-5.92h20.7v65.12h44.306l-2.176 5.92H34.98V42.88a1.5 1.5 0 0 1 1.5-1.5z" fill="#E64A19" fill-rule="nonzero"/><path d="M57.92 106.5h28.86V40.361L57.92 29.852V106.5zm-.956-83.295l33.3 12.11a3.7 3.7 0 0 1 2.436 3.477v70.36H52v-82.47a3.7 3.7 0 0 1 4.964-3.477z" fill="#E64A19" fill-rule="nonzero"/><path fill="#FFCCBC" d="M60.81 34.584l22.655 8.56v57.32H60.81z"/><path fill="#E64A19" d="M37.2 106.5h70.3v5.899H37.2zM64.035 48.04H79.48v3.7H64.035zM64.035 71.72H79.48v3.7H64.035zM64.035 60.62H79.48v3.7H64.035zM64.035 84.3H79.48V88H64.035z"/><path d="M64.535 99.1H78.98a.5.5 0 0 1 .5.5v10.6H64.035V99.6a.5.5 0 0 1 .5-.5zM96.4 69.5h3.7v7.4h-3.7zM96.4 80.6h3.7V88h-3.7zM96.4 91.7h3.7v7.4h-3.7zM44.6 91.7h3.7v7.4h-3.7zM44.6 73.2h3.7v7.4h-3.7zM44.6 58.4h3.7v7.4h-3.7z" fill="#E64A19"/></g></svg>