<?xml version="1.0" encoding="iso-8859-1"?>
<!-- Generator: Adobe Illustrator 18.1.1, SVG Export Plug-In . SVG Version: 6.00 Build 0)  -->
<svg xmlns="http://www.w3.org/2000/svg" xmlns:xlink="http://www.w3.org/1999/xlink" version="1.1" id="Capa_1" x="0px" y="0px" viewBox="0 0 96 96" style="enable-background:new 0 0 96 96;" xml:space="preserve" width="32px" height="32px">
<g>
	<path d="M48,0C21.49,0,0,21.49,0,48s21.49,48,48,48s48-21.49,48-48S74.51,0,48,0z M10.974,35.129   l24.352,10.9l7.628,3.344l5.657,2.569l4.631,1.973c0.857,0.744,1.285,1.713,1.285,2.914c0,1.716-0.588,2.944-1.758,3.685   c-1.172,0.744-2.586,1.116-4.243,1.116c-4.001,0-7.572-1.457-10.715-4.371l-6.599,6.685c4.398,3.771,9.257,5.688,14.569,5.742   v7.374h5.573v-7.374c3.312-0.283,6.186-1.385,8.615-3.3c2.426-1.914,3.956-4.384,4.584-7.414l17.793,7.926   C75.674,78.999,62.797,87.2,47.999,87.2C26.35,87.2,8.8,69.649,8.8,48C8.8,43.489,9.571,39.161,10.974,35.129z M61.556,47.315   l-7.716-3.429L49.64,42l-6.086-2.743c-0.286-0.399-0.429-0.799-0.429-1.198c0-1.371,0.586-2.344,1.758-2.914   c1.17-0.573,2.499-0.859,3.984-0.859c2.802,0,5.544,0.945,8.229,2.828l6.258-6.428c-3.6-2.744-7.6-4.228-12-4.457v-7.37h-5.573   v7.37c-2.972,0.171-5.572,1.018-7.8,2.528c-2.228,1.516-3.743,3.528-4.542,6.043l-18.278-8.197   C22.158,15.888,34.247,8.8,47.999,8.8c21.65,0,39.2,17.551,39.2,39.2c0,3.514-0.469,6.916-1.336,10.156L61.556,47.315z" fill="#FFF59D"/>
</g>
<g>
</g>
<g>
</g>
<g>
</g>
<g>
</g>
<g>
</g>
<g>
</g>
<g>
</g>
<g>
</g>
<g>
</g>
<g>
</g>
<g>
</g>
<g>
</g>
<g>
</g>
<g>
</g>
<g>
</g>
</svg>
