<?xml version="1.0" encoding="iso-8859-1"?>
<!-- Generator: Adobe Illustrator 19.0.0, SVG Export Plug-In . SVG Version: 6.00 Build 0)  -->
<svg version="1.1" id="Layer_1" xmlns="http://www.w3.org/2000/svg" xmlns:xlink="http://www.w3.org/1999/xlink" x="0px" y="0px"
	 viewBox="0 0 488.318 488.318" style="enable-background:new 0 0 488.318 488.318;" xml:space="preserve">
<g>
	<g>
		<path fill="#F57C00" d="M329.136,147.265l-123.5-42.6c-11.7-4-24.8-3.2-36,2.2l-6.2,3c-8.4,4.1-18.3,4.7-27.1,1.5l-10.6-3.8
			c-0.5-0.3-1-0.6-1.5-0.8l-63.2-21.5c-1.5-0.5-3.2-0.4-4.6,0.3c-1.4,0.7-2.5,1.9-3,3.4l-53.1,154.9c-1.1,3.1,0.6,6.5,3.7,7.6
			l63.3,21.7c0.7,0.3,1.3,0.4,2,0.4c0.9,0,1.8-0.2,2.6-0.6c1.4-0.7,2.5-1.9,3-3.4l51.1-149l6.4,2.3c11.8,4.2,25.1,3.4,36.4-2.1
			l6.2-3c8.3-4.1,18.1-4.7,26.8-1.7l118.9,41c-0.9,5.2-3.4,13.8-9.9,18.3c-5.8,4-14.2,4.2-24.8,0.5l-51.9-17.7
			c-1.6-0.5-3.3-0.4-4.8,0.4s-2.5,2.2-3,3.8c-0.1,0.3-7.8,28.7-31.8,41.5c-15.2,8.2-34,8.5-55.9,1c-3.1-1.1-6.5,0.6-7.6,3.7
			c-1.1,3.1,0.6,6.5,3.7,7.6c11.7,4,22.8,6,33.1,6c11.8,0,22.6-2.6,32.4-7.9c21.4-11.5,31.7-32.5,35.6-42.9l46.1,15.8
			c14.5,5,26.4,4.3,35.6-2c14.8-10.2,15.5-31.2,15.6-32.1C333.236,150.465,331.536,148.065,329.136,147.265z M65.636,259.865
			l-52-17.8l49.2-143.5l50.6,17.3c0.4,0.2,0.8,0.4,1.2,0.6l0.2,0.1L65.636,259.865z"/>
	</g>
</g>
<g>
	<g>
		<path fill="#F57C00" d="M487.736,235.965l-72.2-146.7c-0.7-1.4-1.9-2.5-3.4-3s-3.2-0.4-4.6,0.3l-60.1,29.4c-3,1.5-4.2,5-2.8,8l70,143l-23.5,21.5
			c-19.9,18.3-42.4,33.6-66.7,45.5l-115.1,56.3c-3.2,1.6-6.8,1.8-10.2,0.6c-3.4-1.2-6.1-3.6-7.7-6.8c-1.6-3.2-1.8-6.8-0.6-10.2
			c1.2-3.4,3.6-6.1,6.8-7.7l64.3-31.5c3-1.5,4.2-5,2.8-8c-1.5-3-5.1-4.2-8-2.8l-62.9,30.8l-31.7,15.5c-6.6,3.2-14.7,0.5-17.9-6.1
			c-3.2-6.6-0.5-14.6,6.1-17.9l92.4-45.2c3-1.5,4.2-5,2.8-8c-1.5-3-5.1-4.2-8-2.8l-68.4,33.5l-24,11.7l-11.3,5.5
			c-6.6,3.2-14.7,0.5-17.9-6.1c-3.2-6.6-0.5-14.7,6.1-17.9l11.4-5.6l82.7-40.5c3-1.5,4.2-5,2.8-8c-1.5-3-5.1-4.2-8-2.8l-53.1,26
			l-29.6,14.5c-3.2,1.6-6.8,1.8-10.2,0.6c-3.4-1.2-6.1-3.6-7.7-6.8c-1.6-3.2-1.8-6.8-0.6-10.2s3.6-6.1,6.8-7.7l43.9-21.5
			c3-1.5,4.2-5,2.8-8c-1.5-3-5.1-4.2-8-2.8l-43.9,21.5c-6.1,3-10.7,8.2-12.9,14.6c-2.2,6.4-1.8,13.3,1.2,19.4
			c2.3,4.8,6.1,8.6,10.7,11.1c-7.6,7.5-9.9,19.2-5,29.2c4.4,9,13.4,14.2,22.8,14.2c1.1,0,2.2-0.1,3.3-0.2c-0.8,5-0.2,10.3,2.2,15.3
			c4.4,9,13.4,14.2,22.8,14.2c3.7,0,7.5-0.8,11.1-2.6l10.9-5.4c-0.5,4.7,0.3,9.4,2.5,13.7c3,6.1,8.2,10.7,14.6,12.9
			c2.7,0.9,5.5,1.4,8.3,1.4c3.8,0,7.6-0.9,11.1-2.6l115.1-56.3c25.4-12.4,48.7-28.4,69.5-47.5l26.1-24l59.3-29
			C487.936,242.465,489.136,238.965,487.736,235.965z M424.736,260.365l-66.7-136.3l49.4-24.1l66.6,136.3L424.736,260.365z"/>
	</g>
</g>
<g>
</g>
<g>
</g>
<g>
</g>
<g>
</g>
<g>
</g>
<g>
</g>
<g>
</g>
<g>
</g>
<g>
</g>
<g>
</g>
<g>
</g>
<g>
</g>
<g>
</g>
<g>
</g>
<g>
</g>
</svg>
