<svg id="Layer_1" data-name="Layer 1" xmlns="http://www.w3.org/2000/svg" viewBox="0 0 400 400"><defs><style>.cls-1{fill:#212121;}.cls-2{fill:#ff5722;}.cls-3{fill:#ffc400;}.cls-4{fill:#ffab00;}.cls-5{fill:#e0f7fa;}.cls-6{fill:#ffab40;}.cls-7{fill:#29b6f6;}.cls-8{fill:#607d8b;}.cls-9{fill:#ffe57f;}.cls-10{fill:#ffd180;}.cls-11{fill:#fff;}.cls-12{fill:#3f51b5;}.cls-13{fill:#90a4ae;}.cls-14{fill:#e1f5fe;}.cls-15{font-size:42.19px;fill:#039be5;stroke:#212121;stroke-linecap:round;stroke-linejoin:bevel;stroke-width:2px;font-family:Gidolinya-Regular, Gidolinya;}</style></defs><title>Artboard 1</title><path class="cls-1" d="M213.67,167.49c2.48,0,4.11-3.85.84-3.85-2.48,0-4.1,3.85-.84,3.85Z"/><path class="cls-2" d="M219.8,166.83s-126.41-1-121.91-15.41c1.59-5.11-9.94-77.17,68.24-91.94C200.33,53,249,47.36,287.74,90.68c21.08,25.62,16.05,76.73,12.81,83.94-4.65,10.35-29.36,2.8-41.87-2.68-1.45-.63-2.62-1.21-3.39-1.61"/><path class="cls-1" d="M218.89,164.57c-24.76-.19-49.58-1.09-74.25-3.15-13.49-1.12-28.32-1.78-41.15-6.52a12.92,12.92,0,0,1-4.18-2.19c-.38-.36.21.85.21.44s.17-1,.22-1.38c.39-3,0-6.17.08-9.18.21-12.76,2.13-25.65,7.27-37.41,7.27-16.67,20.6-29.26,37.19-36.56,10.7-4.72,22.16-7,33.66-8.78A184.2,184.2,0,0,1,210,57.35c27.11.53,52.48,10.24,71.94,29.36,17.35,17,20.59,42.92,19.73,66.21-.23,6,0,14.17-2.67,19.82-4.27,9.06-21.26,3.71-28.14,1.64a95.5,95.5,0,0,1-15.64-6.07c-2.58-1.3-1.46,3.24.12,4,10,5,21.61,9.05,32.85,9.63,8.09.41,13.65-2.18,15.25-10.25a124.67,124.67,0,0,0-4.12-62.2c-8.62-25.26-32.85-43.35-57.61-51.36-23.43-7.59-48.34-6-72.24-1.73-21.78,3.89-42.93,12.13-56.79,30.17-9.5,12.36-14.26,27.64-15.75,43-.5,5.18-.62,10.37-.61,15.57,0,2.52-.67,5-.09,7.27,1,4,5.44,5.89,9,7.1,6.33,2.18,13.12,3.16,19.73,4.07,30.93,4.28,62.51,5.06,93.71,5.43l2.07,0c1.95,0,0-4.51-1.82-4.53Z"/><path class="cls-2" d="M217.59,179.44S193,193,182.88,199.15s-47.26,22.69-47.26,22.69,31.29,7.15,72-13.25,52.1-38.26,52.1-38.26Z"/><path class="cls-1" d="M216.54,177.52c-13.74,7.57-27.1,16-41,23.18-13.39,6.92-27.18,13.1-40.94,19.23-1.83.81-1.81,3.66.24,4.12,15.28,3.42,32.7.76,47.51-3.32,15.74-4.35,30.5-11.68,44.41-20.14A156.69,156.69,0,0,0,253.16,181a54.85,54.85,0,0,0,8.63-9.63c1.18-1.84-.48-3.64-2.45-3.21l-42.18,9.1a2.21,2.21,0,1,0,.86,4.33l42.18-9.1-2.44-3.22c-6.59,10.27-18.56,18.18-28.54,24.61-23.09,14.89-49.1,26.33-76.94,26.89a67.48,67.48,0,0,1-15.86-1.14l.25,4.12c13.76-6.13,27.55-12.31,40.94-19.23,13.93-7.19,27.29-15.61,41-23.18A2.19,2.19,0,1,0,216.54,177.52Z"/><circle class="cls-3" cx="233.82" cy="156.08" r="26.66"/><path class="cls-1" d="M204.72,155.89c.64,25.57,33.72,38.2,51.08,19.1a28,28,0,0,0,2.41-34.05,30.35,30.35,0,0,0-30-12.7c-13.68,2.37-23.14,13.95-23.48,27.65-.05,1.91,4.81,2.74,4.87.38.33-13.06,10.38-24.61,23.76-25.22,13.78-.64,24.78,11.41,24.7,24.84-.08,13-10.57,24.64-23.76,25.23-14.11.62-24.36-11.42-24.7-24.85C209.54,154.33,204.66,153.55,204.72,155.89Z"/><circle class="cls-4" cx="233.73" cy="155.4" r="13.93"/><path class="cls-1" d="M217.3,155.42c1,20.14,32.78,20.28,32.85,0s-31.89-20.06-32.85,0c-.1,2.19,4.89,2.21,5,0,.3-6.23,4.69-12.28,11.44-12.26,6.56,0,11.35,6.07,11.41,12.3s-5,12.28-11.44,12.27c-6.74,0-11.11-6.09-11.41-12.31C222.19,153.15,217.2,153.22,217.3,155.42Z"/><ellipse class="cls-5" cx="132.83" cy="134.43" rx="18.54" ry="10.34" transform="translate(-26.67 235.79) rotate(-77.78)"/><path class="cls-1" d="M120.33,131.51c-1.4,7.36-1.6,20.8,8,23.09s15.45-9.88,17-17.25,1.47-20.77-7.94-23.09c-9.62-2.36-15.28,10-17,17.25-.66,2.73,4.12,4.18,4.78,1.46,1.06-4.34,4.52-15.18,10.74-14.62,6.63.6,5.59,13.34,4.69,17.54s-4.6,15.24-10.74,14.62c-6.69-.68-5.47-13.41-4.69-17.54C125.64,130.22,120.85,128.78,120.33,131.51Z"/><path class="cls-4" d="M124.86,113.64l-11.4-1s7.29-31.72,29.71-33.08c26.81-3.11,19.46,35.56,19.46,35.56l-13.8,3.07s3.19-20.87-8.67-23.44-14.66,19.74-14.66,19.74Z"/><path class="cls-1" d="M123.73,112.88l-11.4-1,3.58,1.29c3.07-13.17,11.66-29.45,26-32.43,5.38-1.12,10.44-.75,14.09,3.69a22.6,22.6,0,0,1,4.3,10,55.77,55.77,0,0,1,.21,18c-.35,2.6,0,1.87-2.84,2.51l-10.89,2.41,4.49,1.27c1.46-9.86,0-22.59-11.64-24.65-11.31-2-15.4,10.89-16.57,19.9l4.83.88-.64-.84c-.81-1.06-4.93-.91-4.78-.72l.64.85c.4.53,4.71,1.79,4.83.88.78-6,3.26-17.68,10.2-19.35,9.22-2.22,9,16.66,8.25,22-.15,1,3.89,1.4,4.49,1.27l13.8-3.06a.47.47,0,0,0,.4-.22c1.87-10,2.29-24.64-5.85-32.14-5.32-4.9-13.52-5.52-20.34-4.45-9,1.41-15.81,7.9-20.44,15.38A59.69,59.69,0,0,0,111,112.11c-.19.81,3.15,1.25,3.57,1.29l11.39,1C129.1,114.67,124.81,113,123.73,112.88Z"/><path class="cls-6" d="M157.51,103.72a32.53,32.53,0,0,0,.1-11.59c-1.09-6.48-7.22-12.57-7.22-12.57"/><path class="cls-1" d="M159.61,104.8a28.54,28.54,0,0,0-7.75-26.42c-2.14-2.18-5.15.13-2.94,2.37a23.42,23.42,0,0,1,6.49,21.89c-.5,2.31,3.58,5,4.2,2.16Z"/><line class="cls-7" x1="156.84" y1="115.56" x2="157.51" y2="110.99"/><path class="cls-1" d="M159.19,114.73l.68-4.58c0-.26-2.32.42-2.49.48-.46.16-2.14.58-2.23,1.19l-.67,4.57c0,.26,2.32-.41,2.48-.47.46-.16,2.14-.58,2.23-1.19Z"/><path class="cls-8" d="M230.86,196.69s13.31,5.45,30.21-.34,22.3-23.4,22.3-23.4l-24.18-1.79Z"/><path class="cls-1" d="M231.14,198.67c20.69,8.22,47.09-2.25,53.92-24,.41-1.3-.89-3.79-2.4-3.9l-17.33-1.28c-4.18-.31-6.56-1.33-9.63,1.43l-26.29,23.7c-1.39,1.25,1.62,5.23,2.9,4.07L258,175.6c.56-.5,3.36-2.63,2.07-2.29,1.83-.48,4.87.36,6.73.5l17.32,1.28-2.4-3.9c-6.41,20.4-31.36,31.37-51.1,23.53C227.93,193.67,229.57,198.05,231.14,198.67Z"/><path class="cls-8" d="M246.22,184.37s4.11,6.62,13.55,1.9,6.93-13.19,6.93-13.19l-8.49-2.19Z"/><path class="cls-1" d="M244.12,185.72c5.41,8.34,18.95,1.58,23-4.67,1.2-1.83,3.36-7.05,1.67-9.21-.58-.74-2.48-.83-3.36-1.06l-5.36-1.38c-1.31-.34-2.94,1-3.72,1.93l-12,13.48c-.76.86-.06,1,.66,1,1,0,2.36-1.22,3-1.91l12-13.48-3.73,1.93c2.34.6,4.69,1.16,7,1.81,1.84.51,1.69,1.26,1.5,3.52-.65,7.6-11.92,12.32-16.49,5.3C247.64,182,243.43,184.68,244.12,185.72Z"/><path class="cls-1" d="M220.05,57.69c11.78-10.83,24.55-21.63,38.6-29.37s32.4-8.56,48.25-7.48c3,.2,1.88-4.56-.71-4.74-15.77-1.07-33.94-.26-48.25,7C243,30.62,229.53,42.26,217.25,53.55c-2,1.82.84,5.94,2.8,4.14Z"/><circle class="cls-9" cx="319.12" cy="25.74" r="14.74"/><path class="cls-1" d="M301.88,25.71c.9,20,34.4,20.33,34.47.05s-33.57-20.14-34.47-.05c0,.58,5,.74,5,.05.28-6.13,4.07-12.59,10.48-14,7.86-1.73,14,7.18,14,14,0,5.76-4.21,13.13-10.47,14-8.19,1.14-13.68-6.77-14-13.95C306.85,25.05,301.86,25.15,301.88,25.71Z"/><circle class="cls-10" cx="321.97" cy="25.85" r="4.83"/><path class="cls-1" d="M314.79,25.16A7.9,7.9,0,0,0,322,32.45c3.6.37,7.15-2.1,7.19-5.91.09-8.18-13.88-10.32-14.36-1.38-.11,2,4.57,3.72,4.7,1.38a3.78,3.78,0,0,1,2.53-3.6c1.55-.44,2.4.74,2.44,2.22.06,3.08-4.75,5.59-5,1.38C319.38,24.49,314.67,22.9,314.79,25.16Z"/><path class="cls-11" d="M212.93,205.67l-6.13,22.59s-13,7.69-8.35,13.37,17-7.68,17-7.68.74-1.37,7.92-16.92,7.45-20.34,7.45-20.34Z"/><path class="cls-1" d="M210.43,205.49c-1.86,6.87-3.9,13.72-5.59,20.64-.23.94-.71,2-.43,1.67-.93,1-2.66,1.8-3.77,2.7-2.64,2.14-6.71,5.81-5.44,9.68,2.85,8.68,15.06,1.08,18.85-2.17,4.06-3.48,5.2-6.46,7.48-11.37,3.38-7.23,6.92-14.43,9.63-21.95.88-2.45,2-5.18,2.19-7.82.11-1.49-3.89-1.17-4.61-.81l-17.93,9c-1.48.73,3.07,1.84,4.24,1.26l17.93-9-4.61-.8a28,28,0,0,1-1.85,6.83c-2.74,7.9-6.48,15.42-10,23-2.78,6-4.34,9-9.91,13-2,1.45-6,4.53-6.64.21-.38-2.57,2-5,3.66-6.6,1.92-1.85,4.77-2.92,5.89-5.24,1.75-3.65,2.3-8.49,3.36-12.4l2.55-9.42C215.71,204.76,210.83,204,210.43,205.49Z"/><line class="cls-7" x1="210.24" y1="216.9" x2="219.8" y2="215.79"/><path class="cls-1" d="M211.8,218.5l9.55-1.12c1.12-.13.47-1.25,0-1.75a4.23,4.23,0,0,0-3.12-1.44l-9.56,1.11c-1.12.14-.47,1.26,0,1.76a4.29,4.29,0,0,0,3.13,1.44Z"/><path class="cls-2" d="M204.14,227.28s-17.31,7.73-30.41,23.3c-15.1,18-26.2,44.79-24.9,56.64.67,6.11,20.54,17.83,43.18,20s48-5.12,52.16-8.47,6.67-39.83,0-61.61C237.64,235.85,222,229.13,222,229.13s-14.4,13.6-22.18,13.54,4.2-15.13,4.2-15.13"/><path class="cls-1" d="M203.26,226.66C184,235.38,169,251.22,158.77,269.5c-5.67,10.14-11.13,21.74-12.27,33.44-.31,3.19-.38,5.81,1.7,8.36,2.86,3.51,7.17,6,11.14,8C183,331.5,211.78,331.07,236.7,323c6-1.93,10.44-3.34,12-9.77,2.35-9.87,2.3-20.64,1.85-30.7-.9-19.65-6-45.42-26.3-54.32-1.34-.59-3.41.15-4.44,1.11-1.93,1.81-4,3.52-6.07,5.16-2.67,2.08-9.1,7.94-12.68,6.91-4.66-1.35,3.49-11.93,5.17-14.06,1-1.28-3.61-.59-4.39.39-2.6,3.29-12.43,16.47-2.61,16,9.37-.44,18.49-8.72,25-14.8l-4.43,1.11c14.57,6.39,21.88,23.26,24.36,37.94a145.93,145.93,0,0,1,1.6,31.46,96.48,96.48,0,0,1-1.36,12.7c-.4,2.08-.73,5.3-2.39,6.81-2.77,2.53-8.83,3.37-12.32,4.21a120.21,120.21,0,0,1-19.51,3.07A88.67,88.67,0,0,1,170,320.31c-6-2.42-17.89-7.07-18.83-14.59-1.09-8.74,3.76-19.32,7.23-27C168,257.56,183.62,237.56,205,227.9c3.11-1.4.14-2.1-1.76-1.24Z"/><path class="cls-1" d="M155.66,290.07c1.27,0-1.17-4-2.73-4-1.27,0,1.16,4,2.73,4Z"/><path class="cls-2" d="M175.63,248.91s21.23,5,21.82,8.61-6.4,40.44-11,41.94c-8.55,2.77-32.13-11.4-32.13-11.4"/><path class="cls-1" d="M174.88,250.93c3.11.73,6.19,1.57,9.23,2.49,2.44.73,10.18,2.66,10.88,4.51.88,2.38-.86,7.47-1.27,9.8-.89,5-1.95,10.06-3.2,15a70.32,70.32,0,0,1-3.89,12.38c-1.76,3.84-4.77,2.64-8.58,1.55-7.87-2.24-15.43-6.22-22.43-10.41-2.46-1.47-5.44,1.92-2.66,3.58a119.19,119.19,0,0,0,19.57,9.54c5.76,2.15,14.61,5.24,18.21-1.55,4-7.5,5.43-16.81,7.06-25,.84-4.23,4.42-14,.83-17.73-2.77-2.88-7.91-4.09-11.57-5.25s-7.1-2.09-10.69-2.93c-2.92-.69-4.66,3.31-1.49,4.05Z"/><ellipse class="cls-12" cx="174.37" cy="261.94" rx="3.97" ry="2.69" transform="translate(-139.66 281.98) rotate(-60)"/><path class="cls-1" d="M170,259.73c-1.28,2.43-1.94,6.32,1.17,7.72,2.85,1.28,6-.9,7.49-3.3s1.85-6.22-1-7.65-6.12.83-7.62,3.23c-1.73,2.76,2.51,4.09,4,1.73a7.43,7.43,0,0,1,.69-.88c.44-.54.27.13.08-.19a2.07,2.07,0,0,1-.11,2,5.28,5.28,0,0,1-.69.87c-.46.56-.31-.15-.06.2a2,2,0,0,1,.09-2C175.54,258.59,171.34,257.25,170,259.73Z"/><path class="cls-1" d="M203.07,228.86c-1.52,5.92,5.7,8,10.18,8a2.94,2.94,0,0,0,3-1.78,1.85,1.85,0,0,0-1.74-2.33,14.73,14.73,0,0,1-4.18-.55,3.4,3.4,0,0,1-2.35-1.69,2.78,2.78,0,0,1-.18-1c0-.63-.09.23,0-.12.74-2.9-4.11-3-4.75-.55Z"/><circle class="cls-13" cx="223.29" cy="259.81" r="11.64"/><path class="cls-1" d="M232.44,259.79c-.28,5.12-3.52,10.49-9.14,10.52-5.4,0-9.15-5.37-9.15-10.49,0-4.35,2.84-9.24,7.23-10.51,6.43-1.86,10.77,5.15,11.06,10.48.06,1.17,5.05,1.08,5,0-.88-16.3-28.22-16.57-28.29,0s27.41,16.35,28.29,0C237.49,258.77,232.5,258.61,232.44,259.79Z"/><path class="cls-11" d="M317,277.47s.11-6.29-8.17-12.73-23.43-9.93-23.43-9.93-11.64-4.49-31-.5-29.89,9.9-29.89,9.9a6,6,0,0,1-4.65,0,4.92,4.92,0,0,1-3.32-3s-2.15-1.11,6.15-8.81c5.1-4.73,22.55-13.8,39.67-18.45a89.81,89.81,0,0,1,28.79-2.57c19.07,1.25,43.19,38.12,43.19,38.12Z"/><path class="cls-1" d="M319,276.05c-.08-8.4-9.56-14.38-16.25-17.44a105,105,0,0,0-16.13-5.49c-18.05-4.93-38.27.1-55.11,7.19-3.48,1.46-11.3,6.11-13-.55-.36-1.36.32-2.26,1.19-3.46,4.35-6.05,11.43-9.42,18-12.5,12.35-5.8,25.49-10.23,39.19-11,9.94-.59,18,.18,26.26,6,11.62,8.26,21.26,20.24,29.05,32.11l3.74-2.79-17.29,8a16.76,16.76,0,0,0-3.37,2.72l17.29-8c.43-.2,4.07-2.29,3.74-2.79-7.62-11.6-17-23.18-28.17-31.47-19.33-14.31-47.46-4.67-67.07,4.5-7.68,3.59-15.59,7.68-21.68,13.69-3.37,3.32-9.21,10.06-.1,11.25a7.63,7.63,0,0,0,4.62-1c3.39-1.55,6.77-3,10.29-4.26,12.64-4.43,26.43-7.63,39.89-6.32a79.3,79.3,0,0,1,18.42,4.6c8.39,3,22.3,9.18,22.4,19.91C314.93,278.41,319.05,277.31,319,276.05Z"/><path class="cls-7" d="M235,245.14a19.66,19.66,0,0,0,1,5.85c1,2.67,4.62,6.14,4.62,6.14"/><path class="cls-1" d="M232.94,244.17c0,5.75,2.6,10.1,6.64,14,2.18,2.11,4.19,0,2-2.08a13.05,13.05,0,0,1-4.52-10c0-1.8-4.13-4.42-4.12-1.94Z"/><path class="cls-1" d="M262.18,233.54a12.65,12.65,0,0,0-.42,12.74c.66,1.26,5.17.19,5-.14a12.33,12.33,0,0,1,.25-12.36c.41-.66-4.16-1.29-4.83-.24Z"/><line class="cls-7" x1="302.82" y1="236.3" x2="291.09" y2="255.33"/><path class="cls-1" d="M300.72,236.94,289,256c-.73,1.18,3.58-.3,4.19-1.29l11.72-19c.73-1.18-3.58.29-4.19,1.28Z"/><line class="cls-7" x1="323.23" y1="254.81" x2="309.85" y2="265.58"/><path class="cls-1" d="M321.08,254l-13.39,10.77c-.95.77.15,1.81.88,2.13a3.48,3.48,0,0,0,3.43-.53l13.38-10.77c1-.78-.14-1.81-.88-2.13a3.46,3.46,0,0,0-3.42.53Z"/><path class="cls-6" d="M317,277.47a58.25,58.25,0,0,0-8.17,2.79,8.13,8.13,0,0,0-4.2,4.83s-2.59,4.39-.3,12.45,5.93,11.4,5.93,11.4a8.22,8.22,0,0,0,4.84-.59,23.65,23.65,0,0,0,4.45-2.61s-6.08-7.61-4-13.82,5.48-3.27,5.48-3.27"/><path class="cls-1" d="M315.1,276.34c-4.92,1.3-10.42,2.55-12.71,7.53-2.13,4.65-1.46,10,.11,14.68,1.13,3.42,3.06,8.49,6.33,10.6,4.11,2.64,9.48.18,12.9-2.36.27-.21.16-.44,0-.67A20.86,20.86,0,0,1,318,298.9a10.92,10.92,0,0,1-.1-6.1c.34-1.07,1.6-2.2,1.83-3.06.3-1.12.6-.28-.54-1.18.84.66,5.58,1.65,3.71.17-4.5-3.55-9.39-1.74-10.05,4.22-.42,3.77,1.32,7.61,3.34,10.7.5.76.83,1.76,1,1.21-.45,1.8-7,3.15-7.83,3l3.11,1.46c-5-4.76-7.91-14.44-6.28-21,1.54-6.26,6.88-8.14,12.73-9.68,1.48-.4-2.61-2.58-3.77-2.27Z"/><path class="cls-6" d="M340.78,281.79a10.13,10.13,0,0,1,6.6,4c3,3.77,3.56,10.12,4.55,12.14s3,0,7.27-4.09,4.3-2.56,4.3-6.61-8.45-20.43-15-19.85-12.08,5.09-12.08,5.09"/><path class="cls-1" d="M339.63,283.52c5.74.68,7.74,7.21,9,11.91.66,2.51,1,5.25,4.1,5,4-.27,7.83-5.53,10.48-7.89,2.23-2,3-3.55,2.6-6.69-.87-6.4-6-14.71-11.27-18.43-5.85-4.14-14.37.05-19.34,4-2.58,2.05.38,3.81,2.46,2.17a21.61,21.61,0,0,1,7.7-4c3.82-1,6.05.88,8.42,3.69,3,3.55,7.7,10.18,7.38,15.15-.19,2.9-3.48,4.62-5.58,6.54-.48.44-2.33,1.68-1.7,1.87s.07-.69,0-1c-.45-1.43-.74-2.91-1.15-4.35-1.49-5.26-4.74-10.76-10.73-11.46-1.95-.23-5.25,3.12-2.3,3.46Z"/><path class="cls-6" d="M321,288.65l-3.39-11.48,16.64-7.69a26.07,26.07,0,0,1,5,5.44c1.46,2.55,4,7.69,4,7.69s-6.61,4.21-10.85,5.61S321,288.65,321,288.65Z"/><path class="cls-1" d="M323.53,288.66,321.28,281c-.83-2.84-1.8-3.2.46-4.56,4.6-2.79,10.05-4.65,14.95-6.92l-4.83,0a23.77,23.77,0,0,1,6.05,7.37c.52,1,3.19,4.79,2.84,5.7-.43,1.1-5,2.93-6,3.44a19.36,19.36,0,0,1-11.93,2.4c-.7-.09-5.45.15-3.54.39a47.47,47.47,0,0,0,12.6.11c5-.74,9.61-3.58,13.84-6.25l.09-.08c-2.45-5-4.75-9.59-9.1-13.21-.74-.61-4-.41-4.82,0l-16.64,7.69-.09.08,3.39,11.47C318.77,289.45,323.52,288.63,323.53,288.66Z"/><path class="cls-11" d="M177.59,247.8a195.91,195.91,0,0,1-34.05,15.41c-12.22,4-25.86,4.81-32.53,4.81-16.37,0-26.55-20.19-26.55-20.19l-19.38,9.3S71.86,268.29,77,274.2s8.21,7.63,23.13,11.92c6.45,1.86,25.22-2,38.46-7.07a135.08,135.08,0,0,0,29-15.13Z"/><path class="cls-1" d="M175.34,246.92c-16,9.38-33.67,16.94-52.11,19.2a88.06,88.06,0,0,1-13.77.87c-5.47-.19-10-3.2-13.82-6.91a45.56,45.56,0,0,1-8.81-11.77c-.59-1.16-3.51-1.89-4.63-1.35l-19.37,9.3a.27.27,0,0,0-.12.39c4.52,7.42,9.37,15.89,16.19,21.45a35.77,35.77,0,0,0,10.87,5.61c4.72,1.68,9.75,3.63,14.8,3.87,11.83.58,24.62-3.33,35.56-7.41a141.61,141.61,0,0,0,20.64-9.69c2.82-1.61,6.53-3.27,8.88-5.58,1.78-1.76,3-4.57,4.29-6.69L180,248.5c.41-.65-4.05-2.59-4.8-1.4l-5.28,8.47c-1.41,2.26-3.16,6-4.78,7.58-2.78,2.73-7.2,4.67-10.56,6.53a133.53,133.53,0,0,1-22.82,10.09A125.28,125.28,0,0,1,110,285c-7.49,1-13.69-.35-20.7-3.16C84.52,279.93,81.16,277,78,273c-2.34-2.9-4.44-6-6.49-9.09-.74-1.12-4-4.64-3.83-6,.07-.66-.32.62.14-.14.21-.35,1.41-.68,1.79-.86l6.57-3.15,10.57-5.07-4.63-1.35c6.93,13.55,19.39,22.23,34.74,21.58,22.49-.95,43.73-8.93,63-20.27C180.49,248.3,176.54,246.21,175.34,246.92Z"/><line class="cls-7" x1="93.33" y1="259.73" x2="75.17" y2="271.84"/><path class="cls-1" d="M91.57,258.21,73.4,270.33c-2.62,1.74,1.27,4.53,3.53,3L95.1,261.24c2.62-1.74-1.27-4.53-3.53-3Z"/><line class="cls-7" x1="111.01" y1="268.02" x2="100.09" y2="284.5"/><path class="cls-1" d="M108.59,267.36,97.68,283.84c-.13.2,4.2,2.26,4.82,1.31l10.92-16.48c.13-.19-4.2-2.25-4.83-1.31Z"/><line class="cls-7" x1="135.37" y1="265.39" x2="134.83" y2="278.98"/><path class="cls-1" d="M133,264.72l-.54,13.59c0,1,4.81,1.7,4.82,1.34l.54-13.59c0-1-4.81-1.7-4.82-1.34Z"/><line class="cls-7" x1="153.09" y1="260.19" x2="156.84" y2="269.48"/><path class="cls-1" d="M151.31,260.21l3.75,9.28c.79,2,4.78,3,3.56,0l-3.75-9.28c-.79-2-4.78-3-3.56,0Z"/><path class="cls-6" d="M98,218.07c2.75,2,6.77,17.61,2.84,22.65S84,248.91,84,248.91L81,234.76s9.09-.38,9.91-2.15S88.77,222,89.8,220.54,95.25,216.11,98,218.07Z"/><path class="cls-1" d="M96.44,219.73c3.64,3.25,5,15.32,2.57,19.35-2.76,4.61-11.07,6.52-16,7.73l3.39,1.93L83.49,234.6,81.31,237c3.22-.15,10.11,0,11.9-3.37.94-1.79.1-4.44-.24-6.28-.25-1.32-.93-3.12-.81-4.49A3.42,3.42,0,0,1,97,220.06c2.75,1.35,4.94-2.54,2-4-4.78-2.35-12.27.9-11.86,6.66.11,1.67,2.21,7.91,1.38,8.85s-6.14.87-7.82,1c-1.15.06-2.45,1.11-2.19,2.38l2.94,14.14A2.65,2.65,0,0,0,84.87,251c6.54-1.62,16.84-4.46,19.34-11.52,2.21-6.24.55-18.45-4.63-23.07C97.37,214.44,94,217.58,96.44,219.73Z"/><path class="cls-6" d="M61.4,236.76s-6.33,1.35-7.89,0-.26-8.19-.66-12.3-7.14-5-9.92-3.38-4.21,7.37-4.76,13.18,2.53,12.29,4.2,14c1,1.07,8.46.94,14,.69,3.43-.15,6.13-.35,6.13-.35Z"/><path class="cls-1" d="M62.09,235.22a17.26,17.26,0,0,1-4.15.55c-3.18-.15-2.91-2.13-2.85-4.81.07-3.22,1.21-7.82-1.51-10.28-4.49-4.07-12.34-1.7-15,3.14-3.56,6.41-4.69,20.05,1.51,25.47,2.23,2,6.47,1.44,9.2,1.42,4.18,0,8.37-.24,12.53-.55.85-.06,3.15-1,3-2.21l-1.09-11.86c-.19-2-4.84-.33-4.68,1.34l1.09,11.87,3-2.21c-3.31.24-6.64.42-10,.48-2.3.05-6.76.75-8.8-.58-2.82-1.85-3.93-9-4-11.8-.06-3.64.36-10.68,3.77-12.62a4.38,4.38,0,0,1,5.25.71c1.49,1.51,1.13,3.72,1.08,5.66-.06,2.28-.88,5.83.21,8,1.64,3.24,7.06,2,9.94,1.37C62.5,237.93,65.26,234.57,62.09,235.22Z"/><path class="cls-7" d="M260.16,138.2s10,.15,13.25,2.08"/><path class="cls-1" d="M258.67,139.85c4.13.07,9.19,0,12.91,2,1.28.68,5-2.46,3.67-3.17-3.9-2.07-9.28-2.06-13.6-2.13-1.35,0-4.84,3.26-3,3.29Z"/><line class="cls-7" x1="263.38" y1="128.29" x2="268.26" y2="129.42"/><path class="cls-1" d="M264.92,129.84,269.8,131c1,.24,0-1-.2-1.21a6.63,6.63,0,0,0-2.87-1.88l-4.89-1.13c-1-.24,0,1,.21,1.22a6.72,6.72,0,0,0,2.87,1.88Z"/><path class="cls-6" d="M60.22,237.35c-2,2.83-.75,7.94,1.08,12.25A32.65,32.65,0,0,0,65.43,257c1,.88,17.7-6.53,19-8.68.67-1.08-1.39-4.26-2.07-7.35s0-6.1-.91-6.85C79.69,232.61,64.08,232,60.22,237.35Z"/><path class="cls-1" d="M58.12,237.31c-2.65,4.81-.4,10.59,1.76,15.17,1.31,2.78,2.48,6.65,6,6.34,3.22-.27,6.81-2.29,9.68-3.6,3.16-1.45,7-2.93,9.62-5.3,3.52-3.16,0-6.95-.63-10.79-.69-4.28.47-6.81-4.27-7.61-6.94-1.17-17-.44-21.84,5.32-2.11,2.49,2.15,2.74,3.59,1,3-3.56,11.21-3.34,15.42-2.71,1.77.27,1.59.09,2.28,1.67s.23,4.59.84,6.55c.16.52,2.13,4.25,2.06,4.45-.17.46-1.45.94-1.85,1.18-4.1,2.43-8.58,3.8-12.86,5.78-.81.38-1.77,0-.64.53-.94-.47-1.94-3.12-2.39-4-2-3.81-4.88-9.72-2.55-13.94C63.75,234.79,59.09,235.54,58.12,237.31Z"/><path class="cls-11" d="M187.87,327.26s-27.46,13.86-37.2,19S118.75,370.64,115,370.78s-15.61-9-15.61-12.61,62.26-36.85,67.82-37.28S187.87,327.26,187.87,327.26Z"/><path class="cls-1" d="M186.38,325.62c-12,6.05-24,12.05-35.87,18.31-6.77,3.57-12.85,8.33-18.94,12.93-3.25,2.45-6.47,4.92-9.76,7.31-1.65,1.2-5.22,4.71-7.46,4.75-2.79,0-7.73-4.85-9.5-6.58-1.53-1.49-3.38-2.82-2.49-4.14s3.14-2.37,4.38-3.19c2.58-1.7,5.24-3.29,7.9-4.86,12.52-7.41,25.39-14.31,38.42-20.79,4.32-2.15,9.43-5.54,14.23-6.46,3.37-.64,7.71,1.34,10.81,2.46s5.9,2.26,8.78,3.54c2.6,1.17,5-2,2-3.29-6.3-2.83-13.82-6.47-20.85-6.61-4.15-.09-8.37,2.49-12,4.21-14.85,7-29.41,14.9-43.58,23.23-4.58,2.69-9.88,5.34-13.82,9-4.28,4,2.06,8.88,5.21,11.44,2.8,2.28,6.58,5.21,10.31,5.71,2.52.35,4.54-1,6.59-2.28,7.83-5,15-11.11,22.51-16.55,14.07-10.16,30.69-17.06,46.14-24.86C192.14,327.48,188.54,324.54,186.38,325.62Z"/><line class="cls-7" x1="114.07" y1="348.29" x2="126.66" y2="362.97"/><path class="cls-1" d="M112.89,348.66l12.59,14.68c1.45,1.7,4.56,1.83,2.36-.74l-12.59-14.69c-1.46-1.7-4.57-1.83-2.36.75Z"/><line class="cls-7" x1="134.35" y1="336.66" x2="146.05" y2="348.76"/><path class="cls-1" d="M133.48,337.58l11.7,12.1c.51.53,2,1.52,2.69.78s-.48-2.13-1-2.63l-11.7-12.1c-.51-.53-2-1.52-2.69-.78s.48,2.14,1,2.63Z"/><line class="cls-7" x1="154.31" y1="326.37" x2="163.78" y2="339.49"/><path class="cls-1" d="M152.26,326.76l9.46,13.11c1.17,1.62,5.86,1.66,4.11-.76L156.36,326c-1.16-1.62-5.85-1.66-4.1.77Z"/><path class="cls-11" d="M198.51,328.38a92.74,92.74,0,0,0,9.27,16.91A76.82,76.82,0,0,0,225.08,363a27.46,27.46,0,0,0,16.25,4.74c6.32-.31,12.32-3.5,14.39-5.43,4.12-3.84,11.1-11.65,10.74-15.23s-13.34-11.16-15.08-11.64-2.42,2.66-3.07,4.71-.89,3.65-4,6.14-6.57,1.45-12.5,0-11.76-7-14.94-11.32a23.43,23.43,0,0,1-4-8.47Z"/><path class="cls-1" d="M196.12,329.13c8.88,21.55,31.4,50.09,57.45,36.11,4.79-2.57,8.64-7,11.83-11.32,2.26-3.06,4.87-6.64,2.06-10.05-3-3.59-7.68-6.26-11.71-8.45-2.59-1.41-5.63-2.08-7.88.49-2,2.29-1.62,5.84-3.52,8.22-3.51,4.38-11.67,1.2-15.7-1.22-6.07-3.65-11.85-10.14-13.36-17.19-.16-.75-1.61-.55-2.08-.49l-14.4,1.91c-2.26.3-4,2.92-.61,2.48l14.4-1.91-2.08-.48c2.29,10.67,12.49,18.77,22.68,21,4,.89,8,1.36,11.66-.79a13.07,13.07,0,0,0,4.6-4.54c1.21-2.1,1.12-5.68,3-7.23l-2.83,1.08c2-.11,5.45,2.89,7.09,4,2.07,1.4,6.49,3.89,7.19,6.54,1,3.66-4.51,8.86-6.7,11.24-4.06,4.42-8.78,7.53-15,7.85-11.48.6-20.77-8.17-27.69-16.3a84.15,84.15,0,0,1-13.66-22.47C200.27,326.11,195.54,327.73,196.12,329.13Z"/><line class="cls-7" x1="206.73" y1="343.79" x2="216.87" y2="334.94"/><path class="cls-1" d="M208.8,345.2l10.14-8.86s-3.5-3.35-4.14-2.8l-10.14,8.85s3.51,3.36,4.14,2.81Z"/><line class="cls-7" x1="231.81" y1="346.26" x2="223.7" y2="361.92"/><path class="cls-1" d="M229.42,345.53l-8.11,15.66c-.24.47,4.3,2.38,4.78,1.46L234.2,347c.25-.47-4.3-2.39-4.78-1.47Z"/><line class="cls-7" x1="244.31" y1="346.26" x2="255.72" y2="362.28"/><path class="cls-1" d="M241.89,346.89l11.41,16c.69,1,5-1.06,4.84-1.24l-11.41-16c-.7-1-5,1.07-4.84,1.25Z"/><path class="cls-6" d="M251.38,335.41s7.12-16.48,9.7-19,32.9,13.95,30.2,17.44c-1.21,1.56-8.1.22-12.59,3.44-5.5,3.94-5.06,9.82-8.64,12.38-1.46,1-4.74-3.17-8.2-6.1C256.77,339.3,251.38,335.41,251.38,335.41Z"/><path class="cls-1" d="M253.56,336.63q2-4.56,4.12-9.05c1.05-2.2,3.14-8.88,5.6-9.93,2.28-1,7.06,2.07,9,3a89.92,89.92,0,0,1,11.88,6.78c1.57,1.07,6.67,3.86,4.05,5.66-1.74,1.19-5.85.61-7.86,1.19a12.37,12.37,0,0,0-6.43,4.26c-1.65,2-2.41,4.49-3.62,6.77-2.07,3.92-2.83,2.17-5.54-.3a137,137,0,0,0-12.49-9.9c-1.56-1.13-4.63-1.46-1.83.57,5.29,3.83,10,8.22,14.91,12.43,2.07,1.76,5.13,4.26,7.62,2.14,1.73-1.47,2.35-4.14,3.34-6.09,1.76-3.45,4.24-6.1,8.06-7.2,2.06-.59,8.94.11,9.25-2.69.21-1.82-3.32-4.22-4.47-5.12A80.19,80.19,0,0,0,279,322.53a101.43,101.43,0,0,0-11.45-5.66c-1.94-.79-5.35-2.57-7.56-2-2.83.68-4.53,6-5.67,8.34-1.79,3.63-3.47,7.31-5.08,11C248.73,335.25,253.19,337.49,253.56,336.63Z"/><path class="cls-7" d="M220.39,285.38s11.21.33,17.36-2.29"/><path class="cls-1" d="M220.73,287.15c6.15.16,12.77-.26,18.53-2.53,2.83-1.11-1-3.86-3-3.06-5,2-10.85,2.2-16.19,2.06-3.3-.09-2,3.46.68,3.53Z"/><path class="cls-6" d="M100.37,356.91s-6.83,6.25-11.66,7-8.94-1.47-11,.59,8.5,14.44,8.5,14.44,8.51,9.75,12.3,9.75S115,370.78,115,370.78s-6.7-1.79-10.77-6.21S100.37,356.91,100.37,356.91Z"/><path class="cls-1" d="M98.92,354.94c-4.07,3.67-8.72,6.91-14.38,6.68-3.25-.13-9.14-1.58-8.84,3.47.34,5.58,6.56,11.83,10.11,15.82s10.61,13,16.43,8.6,10.11-11,14.22-16.76c1-1.35-.18-3.83-1.71-4.26-4.57-1.28-12.68-5.63-12.59-10.5,0-2-3.53-5.1-3.58-2.16-.15,8.64,9.27,15.16,16.68,17.24l-1.71-4.26A132.82,132.82,0,0,1,103,382.05c-2,2.18-4,5.07-7,3.5s-6-5-8.4-7.59c-.87-1-9.29-10.64-8.1-11.88s6.67.33,8.15.27a14.11,14.11,0,0,0,6-1.65,37.83,37.83,0,0,0,8.13-5.82C103.3,357.55,100.69,353.34,98.92,354.94Z"/><rect class="cls-11" x="36.81" y="162.74" width="50.29" height="71.75" rx="4" ry="4"/><path class="cls-1" d="M83.64,233.39H48.34c-1.84,0-5.2.67-7,0-2.64-1-2.09-4.63-2.09-6.85V185.7c0-6.12-.84-12.91,0-19,.51-3.63,2-2.86,4.88-2.86H72.75c2.79,0,6.46-.65,9.2,0,4.38,1,2.66,11.4,2.66,14.67v47c0,1.34.77,7.55-1.64,7.94-2.88.47-2.72,2.61.25,2.13,8.29-1.35,6.36-9.25,6.36-15.69V186.63c0-6.49.91-13.71,0-20.15-1-7.41-15.18-4.84-20.26-4.84-9.13,0-18.37-.42-27.49,0-8.12.37-7.5,6-7.5,12.21v32c0,8-.53,16.24,0,24.24s13.83,5.54,19.32,5.54h28.9C84.75,235.6,87.05,233.39,83.64,233.39Z"/><rect class="cls-14" x="43.15" y="169.03" width="37.24" height="48.4" rx="4" ry="4"/><path class="cls-1" d="M75.31,216.44H52.22c-1,0-5,.64-6,0-1.79-1.24-.65-10.08-.65-11.81v-20c0-3.5-.62-7.62,0-11.07C46.6,168,55.7,170,59.88,170h9.71c1.9,0,5.44-.74,7.2,0,2,.85,1.16,8.12,1.16,10.15v21.67c0,3.43,1.77,13.82-3.16,14.62-2.43.4,2.07,2.11,3.2,1.93,6.23-1,4.85-7.32,4.85-12.11V182.87c0-3.58,1.3-10.4-1.89-13-3.66-3-11-1.79-15.36-1.79-6.4,0-13-.42-19.34,0-5.82.39-5.54,4.7-5.54,9.19V200c0,4.24-1.07,10,.2,14.16C42.7,220,52.49,218.41,57,218.41H77.47C80.67,218.41,76.69,216.44,75.31,216.44Z"/><circle class="cls-11" cx="61.49" cy="226.1" r="2.32"/><path class="cls-1" d="M61.52,226.91a3,3,0,0,1-.3,1.08c.63-1.68,2.72-.43,1.41-1a2,2,0,0,1-1.16-1.82c0-.38.23-.64.29-1a19,19,0,0,0-1.84.86,2.43,2.43,0,0,0,.43.12,2.15,2.15,0,0,1,1.19,2c0,.7,4.62-.57,4.54-2.09-.27-4.9-9.24-1.94-9.18,2,.08,5,9,2.12,9.19-1.73C66.15,224.12,61.59,225.63,61.52,226.91Z"/><text class="cls-15" transform="translate(49.96 207.72)">E</text></svg>
