<?xml version="1.0" encoding="utf-8"?>
<!-- Generator: Adobe Illustrator 22.0.0, SVG Export Plug-In . SVG Version: 6.00 Build 0)  -->
<svg version="1.1"
	 id="svg8" inkscape:export-filename="C:\Users\Felipe\Pictures\Development\Empreguei\logo-preto.png" inkscape:export-xdpi="7.6114478" inkscape:export-ydpi="7.6114478" inkscape:version="0.92.0 r15299" sodipodi:docname="logo-vector-svg.svg" xmlns:cc="http://creativecommons.org/ns#" xmlns:dc="http://purl.org/dc/elements/1.1/" xmlns:inkscape="http://www.inkscape.org/namespaces/inkscape" xmlns:rdf="http://www.w3.org/1999/02/22-rdf-syntax-ns#" xmlns:sodipodi="http://sodipodi.sourceforge.net/DTD/sodipodi-0.dtd" xmlns:svg="http://www.w3.org/2000/svg"
	 xmlns="http://www.w3.org/2000/svg" xmlns:xlink="http://www.w3.org/1999/xlink" x="0px" y="0px" viewBox="0 0 2834.6 841.9"
	 style="enable-background:new 0 0 2834.6 841.9;" xml:space="preserve">
<style type="text/css">
	.st0{filter:url(#filter4020);}
	.st1{fill:#FFFFFF;}
	.st2{fill:url(#path4524_1_);}
	.st3{fill:url(#path4524-0_1_);}
	.st4{fill:url(#path4500_1_);}
	.st5{fill:url(#path4560_1_);}
	.st6{fill:none;}
</style>
<filter  id="filter4020" inkscape:label="Drop Shadow" style="color-interpolation-filters:sRGB;">
	<feFlood  flood-color="rgb(0,0,0)" flood-opacity="0.498039" id="feFlood4010" result="flood"></feFlood>
	<feComposite  id="feComposite4012" in="flood" in2="SourceGraphic" operator="in" result="composite1"></feComposite>
	<feGaussianBlur  id="feGaussianBlur4014" in="composite1" result="blur" stdDeviation="2"></feGaussianBlur>
	<feOffset  dx="4.57967e-015" dy="4" id="feOffset4016" result="offset"></feOffset>
	<feComposite  id="feComposite4018" in="SourceGraphic" in2="offset" operator="over" result="composite2"></feComposite>
</filter>
<g id="path23" inkscape:connector-curvature="0" class="st0">
	<path class="st1" d="M564.6,193.7V633c-2.9,27.1-18.6,42.9-47.1,47.1H76.1c-25.1-5.9-41.5-20.7-46.6-46.6V187.2
		c4.8-24.1,17.7-41.1,45.3-45.3h447.1c21.9,5.8,38.7,17.8,43.5,43.5L564.6,193.7z"/>
</g>
<linearGradient id="path4524_1_" gradientUnits="userSpaceOnUse" x1="803.3887" y1="746.6441" x2="878.6157" y2="746.6441" gradientTransform="matrix(2.8346 0 0 -2.8346 -2038.2911 2340.9053)">
	<stop  offset="0" style="stop-color:#217D99"/>
	<stop  offset="1" style="stop-color:#00B7CE"/>
</linearGradient>
<path id="path4524" inkscape:connector-curvature="0" class="st2" d="M240.7,175.5h179c47.2,9.2,32,70.4,16.7,99
	c-31.3-15.2-39.5-12.4-53.8-14.4H239.4v-85.6L240.7,175.5z"/>
<linearGradient id="path4524-0_1_" gradientUnits="userSpaceOnUse" x1="720.6866" y1="748.219" x2="795.9135" y2="748.219" gradientTransform="matrix(2.3407 0 0 -2.4052 -1446.5009 2209.2524)">
	<stop  offset="0" style="stop-color:#217D99"/>
	<stop  offset="1" style="stop-color:#00B7CE"/>
</linearGradient>
<path id="path4524-0" inkscape:connector-curvature="0" class="st3" d="M241.8,368.1h147.8c37.4,6.2,26.4,59.7,13.8,84
	c-25.8-12.9-32.6-10.6-44.4-12.2H240.7v-72.6L241.8,368.1z"/>
<linearGradient id="path4500_1_" gradientUnits="userSpaceOnUse" x1="753.3616" y1="767.6152" x2="753.3616" y2="609.1245" gradientTransform="matrix(2.8346 0 0 -2.8346 -1940.5741 2359.0881)">
	<stop  offset="0" style="stop-color:#00B7CE"/>
	<stop  offset="1" style="stop-color:#00B7CE"/>
</linearGradient>
<path id="path4500" inkscape:connector-curvature="0" class="st4" d="M240.7,175.5v463.9h-75c-12.3-1.7-15.6-8.5-16.6-16.6V190.5
	c2-6.7,5.7-12.3,14.7-14.7L240.7,175.5z"/>
<linearGradient id="path4560_1_" gradientUnits="userSpaceOnUse" x1="803.9219" y1="614.5795" x2="878.2228" y2="614.5795" gradientTransform="matrix(2.8346 0 0 -2.8346 -2038.2911 2340.9053)">
	<stop  offset="0" style="stop-color:#227C98"/>
	<stop  offset="1" style="stop-color:#00B7CE"/>
</linearGradient>
<path id="path4560" inkscape:connector-curvature="0" class="st5" d="M241.1,557.1h210v67.8c-1.9,9.7-7.8,14-15.7,15.7H240.5V557
	L241.1,557.1z"/>
<path fill="#000000" id="path4558" inkscape:connector-curvature="0" class="st6" d="M240.5,556.6h210.6v66.3l-17.6,17.6h-193V556.6z"/>
<path fill="#000000" id="path4594" inkscape:connector-curvature="0" d="M890.2,534.3v30.1c-0.1,6-3.3,8.8-9,9H710.1c-5.7-0.9-8.1-4.3-8.8-8.8
	V247.2c1.2-4.2,2.7-8.1,9.5-9.5h166.5c28.6,5.1,19.2,30.9,10.4,44.3c-14.2-7.1-25.5-6.8-37-7H736.3v106.1h124.8
	c31.4,2,21.1,27.1,12.3,42.1c-9.3-6.5-21.7-7.6-34.6-7.8H736.6v118.9L890.2,534.3z"/>
<path fill="#000000" id="path4596" inkscape:connector-curvature="0" d="M935.7,570.3c13,1.6,26.5,1.4,40.2,0.1v-146c10.6-18,108.3-65.2,115.2,0
	v145.5h38.6V423.7c13.9-15.1,105.8-66,117.4,0V557c5.3,25.2,29.6,12.7,45.4,9.6c-7.5-9.4-8.6-17.5-9-25.5v-122
	c-9.3-76.3-111.5-57.8-161.4-21.2c-33.5-52.5-110.5-32.4-147.7-3.8v-12.9c-0.5-6.9-3.6-12.1-13.3-13.3h-18.6c-4,0.5-5.8,2.9-6.3,6.3
	L935.7,570.3z"/>
<g id="g4604" fill="#000000" transform="translate(0,-2.2888184e-5)">
	<path id="path4598" inkscape:connector-curvature="0" d="M1338.7,372.6v278.6c7.5,7.2,38.1,6.8,38-8.6V381.2
		c0.2-11.4-6.7-13.5-14.5-14.5h-17.7C1340.9,367.2,1338.9,369.1,1338.7,372.6z"/>
	<path id="path4600" inkscape:connector-curvature="0" d="M1375.3,390.7v33.8c9.4-11.9,19.2-22.3,36.8-29.3
		c46.1-18.2,105.3-13.4,103.5,72.4c-1.6,90.6-76.4,89.7-140.4,58.7v28c28.4,15.2,93,23.3,120.5,9c47.3-24.5,61-62.6,60.6-99.6
		c-0.5-41.6-20.8-92.6-84.9-100.7C1445,359.6,1398.6,370.1,1375.3,390.7L1375.3,390.7z"/>
</g>
<path fill="#000000" id="path4606" inkscape:connector-curvature="0" d="M1596.3,571.4c12.5,1.9,25,2.1,37.5,0V435.8c18.7-32.1,50-44.1,90.9-40.9
	c6.8-7.9,8.6-16.5,8.3-25.4c-44.3-4.4-80.4,3.6-101.5,34.5c-6-16.1-15.8-29.9-37.9-36c-8.5,3.8-15,8.7-17.4,15.5
	c12.2,9.2,20.7,20.3,20.8,35.6L1596.3,571.4z"/>
<path fill="#000000" id="path4608" inkscape:connector-curvature="0" d="M1936.6,549.9c-0.2-8.6-6.8-15.1-15.5-20.9c-33,10.4-59.3,19.3-80.9,19.1
	c-56.7-0.6-77-38.3-78-76.9c-1.2-44,24-88.1,73.7-86.9c26.7,0.6,73.9,14.2,68.6,69.8h-145.2v22.5H1942c2.9-9.5,1.8-22.6,1.4-31.6
	c-2.7-52-53.4-81.7-100.5-82.7c-26.5-0.5-57,4.2-73.9,16c-34.7,24.1-45.8,52.3-47.1,88c-1.5,39.7,15.5,80.3,62.9,99.6
	c25.5,10.4,71.8,6.7,107.7,0.1C1914.2,562,1923.9,555.7,1936.6,549.9z"/>
<path fill="#000000" id="path4608-6" inkscape:connector-curvature="0" d="M2691.3,551.9c-0.2-8.6-6.8-15.1-15.5-20.9c-33,10.4-59.3,19.3-80.9,19.1
	c-56.7-0.6-77-38.3-78-76.9c-1.2-44,24-88.1,73.7-86.9c26.7,0.6,73.9,14.2,68.6,69.8H2514v22.5h182.7c2.9-9.5,1.8-22.6,1.4-31.6
	c-2.7-52-53.4-81.7-100.5-82.7c-26.5-0.5-57,4.2-73.9,16c-34.7,24.1-45.8,52.3-47.1,88c-1.5,39.7,15.5,80.3,62.9,99.6
	c25.5,10.4,71.8,6.7,107.7,0.1C2668.9,563.9,2678.6,557.6,2691.3,551.9L2691.3,551.9z"/>
<path fill="#000000" id="path4640" inkscape:connector-curvature="0" d="M2192.5,378.2c-2.9-5.9-8.2-10.8-18.2-13.6c-14.5,3.8-20.9,12.4-28,20.5
	l-4.5,23.5v163.6c-5,81.1-90.1,66.4-156.1,48.5c-7.7,6.8-11.2,14.2-12.9,22c120.9,36.4,209.3,12.5,205.3-87.1V413.1
	C2179.6,402.4,2177.7,392.7,2192.5,378.2z"/>
<path fill="#000000" id="path4642" inkscape:connector-curvature="0" d="M2152.5,387l-3.9,25c-196.8-125-200.4,246.2-1.5,97.7l4.2,29.2
	C1894.5,689.7,1898.8,257.1,2152.5,387L2152.5,387z"/>
<path fill="#000000" id="path4644" inkscape:connector-curvature="0" d="M2402.7,368.9c12.7-4,25.4-3.1,38,0v150.5c0.6,12.1,2.8,24.5,16.1,38
	c-2.9,8.4-9.1,13.4-17.7,16.1c-18-3.6-30.2-13.7-35.4-31.6c-41.6,29.9-165,64.1-173.6-30.5V393.5c0.1-9.7-1.7-16.9-5.9-20.9
	c9.3-4.3,41.1-15.9,44.5,10.7v130.2c13.4,67.2,119.8,16.8,133.9,0V368.9z"/>
<path fill="#000000" id="path4646" inkscape:connector-curvature="0" d="M2713.9,391.8c-3.1-7.1-2.5-14.2,0-21.3h42.9c12.6,3,21.8,9.9,24.4,24.4
	v176c-12.9,1.5-25.9,1.3-38.8,0v-165c-2.2-10.6-9.2-11.6-15.5-14L2713.9,391.8z"/>
<path fill="#000000" id="path4650" inkscape:connector-curvature="0" d="M2729.7,301.5c-4.4,4.4-4.5,24.6,0,29.2c4.5,4.5,42.2,4.8,47,0
	c4.5-4.5,4.8-24.5,0-29.4C2772.9,297.5,2733.7,297.5,2729.7,301.5L2729.7,301.5z"/>
<path fill="#000000" id="path4654" inkscape:connector-curvature="0" d="M2192.5,378.2c-3.2-7.4-9.4-11.8-18.2-13.6c-12.8,3.4-21.3,11-28,20.5
	l-4.5,23.5v159.1c-10,89.3-93.7,66.3-156.1,53c-6.9,5.7-10.7,13.4-12.9,22c93.4,23.7,205.5,38.9,204.6-81.8V414.6
	C2178.5,400.8,2181.9,388,2192.5,378.2L2192.5,378.2z"/>
</svg>
