<?xml version="1.0" encoding="iso-8859-1"?>
<!-- Generator: Adobe Illustrator 18.1.1, SVG Export Plug-In . SVG Version: 6.00 Build 0)  -->
<svg version="1.1" id="Capa_1" xmlns="http://www.w3.org/2000/svg" xmlns:xlink="http://www.w3.org/1999/xlink" x="0px" y="0px"
	 viewBox="0 0 21.415 21.415" style="enable-background:new 0 0 21.415 21.415;" xml:space="preserve" width="16px" height="16px">
<g>
	<path style="fill:#4CAF50;" d="M8.804,21.415h3.713v-2.68c2.715-0.657,4.389-2.542,4.389-5.045l0,0
		c0-2.562-1.361-4.131-4.551-5.247l0,0C11.184,8.017,9.83,7.459,9.83,6.959l0,0c0-0.657,0.923-0.758,1.472-0.758l0,0
		c1.605,0,2.632,0.494,3.247,0.789l0,0l0.706,0.338l0.224-0.744l0.88-3.309L15.87,3.044c-0.651-0.306-1.692-0.689-3.229-0.82l0,0V0
		H8.928v2.488C6.35,3.158,4.761,4.983,4.761,7.379l0,0c0,3.089,2.607,4.361,4.879,5.127l0,0c1.93,0.651,2.197,1.121,2.197,1.53l0,0
		c0,0.608-0.876,0.88-1.744,0.88l0,0c-1.691,0-3.097-0.63-3.782-1.006l0,0l-0.732-0.4l-1.07,4.179v0.001l0.439,0.242
		c0.99,0.548,2.45,0.934,3.856,1.061l0,0V21.415z"/>
</g>
<g>
</g>
<g>
</g>
<g>
</g>
<g>
</g>
<g>
</g>
<g>
</g>
<g>
</g>
<g>
</g>
<g>
</g>
<g>
</g>
<g>
</g>
<g>
</g>
<g>
</g>
<g>
</g>
<g>
</g>
</svg>
