<?xml version="1.0" encoding="iso-8859-1"?>
<!-- Generator: Adobe Illustrator 18.0.0, SVG Export Plug-In . SVG Version: 6.00 Build 0)  -->
<!DOCTYPE svg PUBLIC "-//W3C//DTD SVG 1.1//EN" "http://www.w3.org/Graphics/SVG/1.1/DTD/svg11.dtd">
<svg version="1.1" id="Capa_1" xmlns="http://www.w3.org/2000/svg" xmlns:xlink="http://www.w3.org/1999/xlink" x="0px" y="0px"
	 viewBox="0 0 303.015 303.015" style="enable-background:new 0 0 303.015 303.015;" xml:space="preserve" width="16px" height="16px">
<g>
	<path fill="#9C27B0" d="M95.011,97.611c-2.41-2.41-5.857-3.458-9.205-2.804c-3.344,0.658-6.14,2.938-7.457,6.08L0.796,285.827
		c-1.606,3.83-0.737,8.25,2.199,11.186c1.957,1.957,4.572,2.995,7.233,2.995c1.332,0,2.675-0.26,3.952-0.796l184.938-77.555
		c3.143-1.317,5.422-4.114,6.079-7.457c0.657-3.344-0.393-6.796-2.803-9.205L95.011,97.611z M29.325,270.682L91.32,122.844
		l85.842,85.842L29.325,270.682z"/>
	<path fill="#9C27B0" d="M117.612,192.627c2.689,0,5.328-1.094,7.231-2.996c1.901-1.912,2.996-4.541,2.996-7.23c0-2.699-1.095-5.327-2.996-7.24
		c-1.902-1.902-4.541-2.985-7.231-2.985c-2.699,0-5.338,1.083-7.229,2.985c-1.913,1.913-2.996,4.541-2.996,7.24
		c0,2.689,1.083,5.328,2.996,7.23C112.274,191.534,114.913,192.627,117.612,192.627z"/>
	<path fill="#9C27B0" d="M81.82,184.109c-2.699,0-5.338,1.084-7.24,2.986c-1.902,1.902-2.986,4.541-2.986,7.24c0,2.689,1.084,5.318,2.986,7.22
		c1.912,1.912,4.551,2.997,7.24,2.997c2.69,0,5.317-1.085,7.231-2.997c1.901-1.901,2.996-4.53,2.996-7.22
		c0-2.699-1.095-5.338-2.996-7.24C87.148,185.193,84.509,184.109,81.82,184.109z"/>
	<path fill="#9C27B0" d="M141.47,216.486c2.689,0,5.328-1.094,7.23-2.997c1.913-1.901,2.997-4.539,2.997-7.229c0-2.689-1.084-5.328-2.997-7.23
		c-1.901-1.903-4.54-2.996-7.23-2.996c-2.689,0-5.327,1.093-7.23,2.996c-1.902,1.902-2.995,4.541-2.995,7.23
		c0,2.689,1.093,5.327,2.995,7.229C136.143,215.392,138.781,216.486,141.47,216.486z"/>
	<path d="M83.517,158.533c0,2.689,1.094,5.328,2.996,7.229c1.902,1.913,4.541,2.997,7.23,2.997c2.689,0,5.328-1.084,7.229-2.997
		c1.913-1.901,2.997-4.54,2.997-7.229c0-2.689-1.084-5.327-2.997-7.23c-1.901-1.902-4.54-2.996-7.229-2.996
		c-2.689,0-5.328,1.094-7.23,2.996C84.611,153.205,83.517,155.843,83.517,158.533z"/>
	<path fill="#9C27B0" d="M95.452,218.194c0,2.689,1.094,5.328,2.996,7.23c1.902,1.901,4.541,2.996,7.23,2.996s5.328-1.095,7.229-2.996
		c1.902-1.912,2.997-4.541,2.997-7.23c0-2.689-1.095-5.328-2.997-7.23c-1.901-1.912-4.54-2.996-7.229-2.996s-5.328,1.084-7.23,2.996
		C96.545,212.866,95.452,215.495,95.452,218.194z"/>
	<path fill="#9C27B0" d="M69.885,219.902c-2.689,0-5.328,1.083-7.23,2.996c-1.912,1.893-2.996,4.53-2.996,7.23c0,2.689,1.084,5.327,2.996,7.23
		c1.902,1.901,4.541,2.996,7.23,2.996c2.689,0,5.318-1.095,7.229-2.996c1.902-1.903,2.997-4.541,2.997-7.23
		c0-2.7-1.095-5.338-2.997-7.23C75.213,220.985,72.575,219.902,69.885,219.902z"/>
	<polygon fill="#9C27B0" points="126.839,43.76 136.757,38.546 146.674,43.76 144.781,32.717 152.804,24.895 141.716,23.284 136.757,13.236
		131.797,23.284 120.709,24.895 128.733,32.717 	"/>
	<polygon fill="#9C27B0" points="303.015,78.739 291.927,77.126 286.968,67.08 282.008,77.126 270.92,78.739 278.943,86.56 277.05,97.604
		286.968,92.39 296.885,97.604 294.992,86.56 	"/>
	<polygon fill="#9C27B0" points="190.685,107.652 185.726,97.604 180.766,107.652 169.678,109.263 177.702,117.084 175.808,128.128
		185.726,122.914 195.644,128.128 193.75,117.084 201.774,109.263 	"/>
	<path fill="#9C27B0" d="M130.258,122.986c1.744,1.163,3.714,1.719,5.664,1.719c3.304,0,6.547-1.599,8.518-4.555l67.494-101.242
		c3.133-4.698,1.863-11.048-2.836-14.181c-4.7-3.133-11.049-1.865-14.182,2.836l-67.494,101.242
		C124.289,113.503,125.559,119.853,130.258,122.986z"/>
	<path fill="#9C27B0" d="M265.659,105.708l-84.368,50.62c-4.844,2.906-6.413,9.188-3.508,14.031c1.917,3.196,5.305,4.967,8.779,4.967
		c1.79,0,3.605-0.472,5.251-1.459l84.368-50.621c4.844-2.906,6.413-9.188,3.508-14.03
		C276.784,104.372,270.501,102.803,265.659,105.708z"/>
	<path fill="#9C27B0" d="M213.068,87.961c1.997,1.996,4.613,2.995,7.232,2.995c2.617,0,5.233-0.999,7.231-2.995l67.494-67.494
		c3.994-3.994,3.994-10.47,0-14.463c-3.994-3.993-10.468-3.993-14.463,0l-67.494,67.494
		C209.074,77.493,209.074,83.968,213.068,87.961z"/>
	<path fill="#9C27B0" d="M229.5,40.335c2.7,0,5.328-1.095,7.23-2.997c1.913-1.901,2.997-4.54,2.997-7.23c0-2.689-1.084-5.327-2.997-7.23
		c-1.901-1.902-4.54-2.995-7.23-2.995c-2.689,0-5.317,1.093-7.23,2.995c-1.902,1.903-2.996,4.541-2.996,7.23
		c0,2.689,1.094,5.328,2.996,7.23C224.172,39.241,226.81,40.335,229.5,40.335z"/>
	<path fill="#9C27B0" d="M237.169,171.746c-2.689,0-5.328,1.094-7.23,2.996c-1.902,1.902-2.996,4.541-2.996,7.23c0,2.689,1.094,5.328,2.996,7.23
		c1.902,1.902,4.541,2.997,7.23,2.997c2.699,0,5.328-1.095,7.229-2.997c1.902-1.901,2.997-4.54,2.997-7.23
		c0-2.689-1.095-5.328-2.997-7.23C242.498,172.839,239.869,171.746,237.169,171.746z"/>
	<path fill="#9C27B0" d="M119.054,87.889c2.689,0,5.328-1.095,7.229-2.997c1.902-1.902,2.997-4.54,2.997-7.229c0-2.689-1.095-5.328-2.997-7.23
		c-1.901-1.902-4.54-2.996-7.229-2.996c-2.689,0-5.328,1.094-7.23,2.996c-1.902,1.902-2.996,4.541-2.996,7.23
		c0,2.689,1.094,5.327,2.996,7.229C113.726,86.794,116.365,87.889,119.054,87.889z"/>
</g>
<g>
</g>
<g>
</g>
<g>
</g>
<g>
</g>
<g>
</g>
<g>
</g>
<g>
</g>
<g>
</g>
<g>
</g>
<g>
</g>
<g>
</g>
<g>
</g>
<g>
</g>
<g>
</g>
<g>
</g>
</svg>
