<?xml version="1.0" encoding="iso-8859-1"?>
<!-- Generator: Adobe Illustrator 19.0.0, SVG Export Plug-In . SVG Version: 6.00 Build 0)  -->
<svg version="1.1" id="Capa_1" xmlns="http://www.w3.org/2000/svg" xmlns:xlink="http://www.w3.org/1999/xlink" x="0px" y="0px"
	 viewBox="0 0 512 512" style="enable-background:new 0 0 512 512;" xml:space="preserve">
<path style="fill:#88B337;" d="M449.953,238.592c1.874-10.301-0.035-20.931-5.38-29.939c-2.638-4.001-1.536-9.381,2.465-12.019
	c1.501-0.989,3.28-1.493,5.085-1.432h50.419V56.355c0-28.759-23.309-52.068-52.068-52.068H312.407v50.506
	c0.035,4.79,3.949,8.652,8.739,8.617c1.432-0.009,2.846-0.373,4.105-1.067c9.147-5.563,20.046-7.48,30.546-5.38
	c23.578,4.261,39.242,26.832,34.981,50.419c-4.261,23.578-26.832,39.242-50.419,34.981c-4.92-0.894-9.65-2.621-13.98-5.129
	c-4.148-2.404-9.459-0.989-11.854,3.159c-0.833,1.432-1.232,3.081-1.163,4.738l-0.955,50.072h49.291
	c4.782-0.26,8.878,3.402,9.138,8.192c0.095,1.684-0.312,3.367-1.154,4.825c-3.836,6.587-5.849,14.076-5.814,21.695
	c0,23.96,19.43,43.39,43.398,43.381c20.975,0,38.947-15.013,42.687-35.658L449.953,238.592L449.953,238.592z"/>
<path style="fill:#FDB62F;" d="M234.305,73.711L234.305,73.711c-2.951-17.807-16.905-31.761-34.712-34.712l0,0
	c17.807-2.951,31.761-16.905,34.712-34.712l0,0c2.951,17.807,16.905,31.761,34.712,34.712l0,0
	C251.21,41.949,237.256,55.903,234.305,73.711z"/>
<g>
	<path style="fill:#D9D9D9;" d="M407.864,368.762v-17.356c23.96,0,43.39-19.43,43.39-43.39h17.356
		C468.61,341.565,441.413,368.762,407.864,368.762z"/>
	<path style="fill:#D9D9D9;" d="M407.864,412.151v-17.356c47.928,0,86.78-38.851,86.78-86.78H512
		C512,365.533,465.373,412.151,407.864,412.151z"/>
</g>
<g>
	<path style="fill:#FFA83D;" d="M52.849,507.609h138.066l0,0H46.774C48.796,507.748,50.827,507.748,52.849,507.609z"/>
	<path style="fill:#FFA83D;" d="M190.915,368.762c0.174-1.067,0.174-2.143,0-3.211v1.041
		C191.002,367.312,191.002,368.041,190.915,368.762z"/>
</g>
<path style="fill:#4398D1;" d="M268.409,211.864c-0.625-2.742-1.519-5.424-2.69-7.984c-5.693-13.069-17.434-22.502-31.414-25.253
	c-10.301-1.944-20.957-0.026-29.939,5.38c-4.001,2.638-9.381,1.536-12.019-2.465c-0.989-1.501-1.493-3.28-1.432-5.085v-50.679
	H52.068C23.309,125.778,0,149.087,0,177.846v26.034l0,0v112.814h52.068h1.822c1.189-0.417,2.282-1.059,3.211-1.909l0.521-0.521l0,0
	c2.083-3.254,2.083-7.42,0-10.674c-1.736-2.907-3.072-6.031-3.992-9.285c-5.172-13.425-2.43-28.62,7.116-39.398
	c6.118-8.287,15.022-14.076,25.079-16.315c1.883-0.417,3.801-0.677,5.727-0.781c24.255-2.109,45.629,15.846,47.737,40.101
	c0.121,1.354,0.174,2.716,0.165,4.07c0.035,7.619-1.979,15.108-5.814,21.695c-2.404,4.148-0.989,9.459,3.159,11.863
	c1.467,0.85,3.141,1.25,4.825,1.154h25.426h23.864v-52.068c0-6.682,7.723-9.112,13.538-5.727c6.587,3.836,14.076,5.849,21.695,5.814
	c23.96-0.043,43.355-19.508,43.303-43.477C269.451,218.086,269.095,214.945,268.409,211.864z"/>
<path style="fill:#DE4C3C;" d="M331.672,316.694c-4.79,0.035-8.652,3.949-8.617,8.739c0.009,1.432,0.373,2.846,1.067,4.105
	c12.279,20.584,5.545,47.217-15.039,59.487c-3.948,2.352-8.244,4.07-12.731,5.077c-6.153,1.302-12.505,1.302-18.658,0
	c-23.422-5.077-38.287-28.177-33.211-51.599c0.937-4.339,2.543-8.504,4.747-12.357c2.664-3.983,1.597-9.372-2.386-12.036
	c-1.154-0.772-2.482-1.258-3.862-1.415h-52.068l0,0l0,0v48.597c0.208,1.145,0.208,2.326,0,3.471
	c-1.423,5.224-6.821,8.305-12.045,6.873c-0.512-0.139-1.015-0.321-1.493-0.538c-6.569-3.879-14.067-5.892-21.695-5.814
	c-23.726,0.139-42.843,19.482-42.704,43.208c0.139,23.726,19.482,42.843,43.208,42.704c7.784-0.043,15.403-2.204,22.059-6.248
	c4.209-2.3,9.476-0.755,11.776,3.445c0.703,1.284,1.067,2.725,1.067,4.191l-0.174,51.026h138.847
	c28.759,0,52.068-23.309,52.068-52.068l0,0V316.694H331.672z"/>
<polygon style="fill:#FFA83D;" points="190.915,316.867 190.915,316.867 190.915,316.954 "/>
<path style="fill:#FDB62F;" d="M178.245,448.946c-20.046,13.138-46.939,7.532-60.078-12.505
	c-13.138-20.037-7.532-46.939,12.505-60.078c7.411-4.86,16.141-7.333,25.001-7.081c7.628-0.078,15.126,1.935,21.695,5.814
	c4.929,2.256,10.743,0.087,13-4.842c0.217-0.486,0.399-0.981,0.538-1.493c0.087-0.72,0.087-1.449,0-2.169v-49.898l0,0l0,0h-23.864
	h-25.426c-4.782,0.26-8.878-3.402-9.138-8.192c-0.095-1.684,0.312-3.367,1.154-4.825c3.836-6.587,5.849-14.076,5.814-21.695
	c-0.009-24.35-19.742-44.084-44.093-44.075c-1.276,0-2.543,0.052-3.81,0.165c-1.927,0.104-3.844,0.364-5.727,0.781
	c-9.806,2.169-18.536,7.732-24.645,15.707c-9.546,10.769-12.288,25.964-7.116,39.398c0.92,3.254,2.256,6.378,3.992,9.285
	c2.083,3.254,2.083,7.42,0,10.674l0,0l-0.521,0.521c-0.929,0.85-2.022,1.493-3.211,1.909l-2.248,0.347H0v138.847
	c0.33,26.624,20.332,48.892,46.774,52.068h144.141v-51.026c-0.035-4.79-3.957-8.643-8.747-8.609
	C180.805,447.983,179.46,448.321,178.245,448.946z"/>
<path style="fill:#C94536;" d="M190.915,460.748v46.861h138.847c28.759,0,52.068-23.309,52.068-52.068l0,0v-98.668
	C331.759,407.205,261.727,439.747,190.915,460.748z"/>
<path style="fill:#FFA83D;" d="M17.356,493.637c8.088,7.645,18.38,12.54,29.418,13.972h144.141v-46.861
	C134.213,477.089,76.106,488.101,17.356,493.637z"/>
<path style="fill:#78A82F;" d="M312.407,186.524v8.678h49.291c4.782-0.26,8.878,3.402,9.138,8.192
	c0.095,1.684-0.312,3.367-1.154,4.825c-3.836,6.587-5.849,14.076-5.814,21.695c0.043,23.96,19.499,43.355,43.468,43.312
	c23.96-0.043,43.355-19.499,43.312-43.468c-0.017-7.767-2.109-15.386-6.075-22.068c-2.109-4.304-0.33-9.502,3.966-11.611
	c1.119-0.547,2.334-0.85,3.584-0.885h50.419V83.083C460.453,146.606,380.789,174.549,312.407,186.524z"/>
<g>
</g>
<g>
</g>
<g>
</g>
<g>
</g>
<g>
</g>
<g>
</g>
<g>
</g>
<g>
</g>
<g>
</g>
<g>
</g>
<g>
</g>
<g>
</g>
<g>
</g>
<g>
</g>
<g>
</g>
</svg>
