<?xml version="1.0" encoding="iso-8859-1"?>
<!-- Generator: Adobe Illustrator 19.0.0, SVG Export Plug-In . SVG Version: 6.00 Build 0)  -->
<svg version="1.1" id="Layer_1" xmlns="http://www.w3.org/2000/svg" xmlns:xlink="http://www.w3.org/1999/xlink" x="0px" y="0px"
	 viewBox="0 0 511.992 511.992" style="enable-background:new 0 0 511.992 511.992;" xml:space="preserve" width="16px" height="16px">
<g>
	<g>
		<path fill="#607D8B" d="M375.207,40.594l-8.533-34.133c-0.648-2.603-2.483-4.745-4.958-5.794c-2.483-1.033-5.291-0.862-7.62,0.486l-98.099,57.225
			L157.897,1.153c-2.33-1.348-5.146-1.519-7.62-0.486c-2.475,1.05-4.309,3.191-4.958,5.794l-8.533,34.133
			c-0.58,2.338-0.154,4.804,1.178,6.801l66.594,99.891L179.23,425.891c-0.213,2.347,0.555,4.676,2.125,6.434l68.267,76.8
			c1.562,1.766,3.772,2.799,6.127,2.867h0.247c2.261,0,4.437-0.896,6.033-2.5l76.8-76.8c1.86-1.843,2.748-4.454,2.441-7.057
			l-33.749-278.468l66.509-99.772C375.361,45.398,375.787,42.932,375.207,40.594z M227.828,136.526l28.169-50.688l28.169,50.688
			H227.828z"/>
	</g>
</g>
<g>
</g>
<g>
</g>
<g>
</g>
<g>
</g>
<g>
</g>
<g>
</g>
<g>
</g>
<g>
</g>
<g>
</g>
<g>
</g>
<g>
</g>
<g>
</g>
<g>
</g>
<g>
</g>
<g>
</g>
</svg>
