<?xml version="1.0" standalone="no"?>
<!DOCTYPE svg PUBLIC "-//W3C//DTD SVG 1.1//EN" "http://www.w3.org/Graphics/SVG/1.1/DTD/svg11.dtd">
<svg width="136.0002mm" height="36.0002000000002mm"
 viewBox="0 0 136.0002 36.0002000000002"
 xmlns="http://www.w3.org/2000/svg" version="1.1"
 xmlns:xlink="http://www.w3.org/1999/xlink">
<desc>Output from Flights of Ideas SVG Sketchup Plugin</desc>

  <g id="face0" fill="none" stroke="rgb(0,0,255)" stroke-width="1" stroke-miterlimit="4" stroke-dasharray="none" stroke-linejoin="round" stroke-linecap="round">
    <line x1="83.0001" y1="3.00010000000008" x2="62.1826204881645" y2="3.00010000000008"/>
    <line x1="62.1826204881645" y1="3.00010000000008" x2="62.1826204881645" y2="17.2001000000001"/>
    <line x1="62.1826204881645" y1="17.2001000000001" x2="52.1826204881645" y2="17.2001000000001"/>
    <line x1="52.1826204881645" y1="17.2001000000001" x2="52.1826204881645" y2="3.00010000000008"/>
    <line x1="52.1826204881645" y1="3.00010000000008" x2="47.8826204881645" y2="3.00010000000008"/>
    <line x1="47.8826204881645" y1="3.00010000000008" x2="47.8826204881645" y2="0.0001"/>
    <line x1="47.8826204881645" y1="0.0001" x2="37.8826204881643" y2="0.000100000000051514"/>
    <line x1="37.8826204881643" y1="0.000100000000051514" x2="37.8826204881643" y2="3.00010000000008"/>
    <line x1="37.8826204881643" y1="3.00010000000008" x2="33.5826204881643" y2="3.00010000000008"/>
    <line x1="33.5826204881643" y1="3.00010000000008" x2="33.5826204881643" y2="16.7001"/>
    <line x1="33.5826204881643" y1="16.7001" x2="20.5826204881643" y2="16.7001000000001"/>
    <line x1="20.5826204881643" y1="16.7001000000001" x2="20.5826204881643" y2="3.00010000000009"/>
    <line x1="20.5826204881643" y1="3.00010000000009" x2="3.0001" y2="3.00010000000009"/>
    <line x1="3.0001" y1="3.00010000000009" x2="3.0001" y2="13.0001000000001"/>
    <line x1="3.0001" y1="13.0001000000001" x2="0.0001" y2="13.0001000000002"/>
    <line x1="0.0001" y1="13.0001000000002" x2="0.0001" y2="23.0001"/>
    <line x1="0.0001" y1="23.0001" x2="3.0001" y2="23.0001000000001"/>
    <line x1="3.0001" y1="23.0001000000001" x2="3.0001" y2="33.0001000000002"/>
    <line x1="3.0001" y1="33.0001000000002" x2="43.0001" y2="33.0001000000001"/>
    <line x1="43.0001" y1="33.0001000000001" x2="43.0001" y2="36.0001000000001"/>
    <line x1="43.0001" y1="36.0001000000001" x2="63.0001000000001" y2="36.0001000000002"/>
    <line x1="63.0001000000001" y1="36.0001000000002" x2="63.0001000000001" y2="33.0001000000001"/>
    <line x1="63.0001000000001" y1="33.0001000000001" x2="83.0001" y2="33.0001000000001"/>
    <line x1="83.0001" y1="33.0001000000001" x2="83.0001" y2="36.0001000000002"/>
    <line x1="83.0001" y1="36.0001000000002" x2="103.0001" y2="36.0001000000002"/>
    <line x1="103.0001" y1="36.0001000000002" x2="103.0001" y2="33.0001000000001"/>
    <line x1="103.0001" y1="33.0001000000001" x2="120.0001" y2="33.0001000000001"/>
    <line x1="120.0001" y1="33.0001000000001" x2="120.0001" y2="31.0001"/>
    <line x1="120.0001" y1="31.0001" x2="118.7001" y2="31.0001"/>
    <line x1="118.7001" y1="31.0001" x2="118.7001" y2="28.8001000000002"/>
    <line x1="118.7001" y1="28.8001000000002" x2="120.0001" y2="28.8001000000002"/>
    <line x1="120.0001" y1="28.8001000000002" x2="120.0001" y2="25.8001000000001"/>
    <line x1="120.0001" y1="25.8001000000001" x2="123.0001" y2="25.8001000000001"/>
    <line x1="123.0001" y1="25.8001000000001" x2="123.0001" y2="28.8001000000002"/>
    <line x1="123.0001" y1="28.8001000000002" x2="124.3001" y2="28.8001000000002"/>
    <line x1="124.3001" y1="28.8001000000002" x2="124.3001" y2="31.0001"/>
    <line x1="124.3001" y1="31.0001" x2="123.0001" y2="31.0001"/>
    <line x1="123.0001" y1="31.0001" x2="123.0001" y2="33.0001000000001"/>
    <line x1="123.0001" y1="33.0001000000001" x2="133.0001" y2="33.0001000000001"/>
    <line x1="133.0001" y1="33.0001000000001" x2="133.0001" y2="23.0001"/>
    <line x1="133.0001" y1="23.0001" x2="136.0001" y2="23.0001"/>
    <line x1="136.0001" y1="23.0001" x2="136.0001" y2="13.0001000000001"/>
    <line x1="136.0001" y1="13.0001000000001" x2="133.0001" y2="13.0001000000001"/>
    <line x1="133.0001" y1="13.0001000000001" x2="133.0001" y2="3.00010000000008"/>
    <line x1="133.0001" y1="3.00010000000008" x2="123.0001" y2="3.00010000000008"/>
    <line x1="123.0001" y1="3.00010000000008" x2="123.0001" y2="5.00010000000019"/>
    <line x1="123.0001" y1="5.00010000000019" x2="124.3001" y2="5.00010000000007"/>
    <line x1="124.3001" y1="5.00010000000007" x2="124.3001" y2="7.20010000000004"/>
    <line x1="124.3001" y1="7.20010000000004" x2="123.0001" y2="7.20010000000002"/>
    <line x1="123.0001" y1="7.20010000000002" x2="123.0001" y2="10.2001000000001"/>
    <line x1="123.0001" y1="10.2001000000001" x2="120.0001" y2="10.2001000000001"/>
    <line x1="120.0001" y1="10.2001000000001" x2="120.0001" y2="7.20010000000001"/>
    <line x1="120.0001" y1="7.20010000000001" x2="118.7001" y2="7.20010000000002"/>
    <line x1="118.7001" y1="7.20010000000002" x2="118.7001" y2="5.00010000000012"/>
    <line x1="118.7001" y1="5.00010000000012" x2="120.0001" y2="5.00010000000016"/>
    <line x1="120.0001" y1="5.00010000000016" x2="120.0001" y2="3.00010000000008"/>
    <line x1="120.0001" y1="3.00010000000008" x2="103.0001" y2="3.00010000000008"/>
    <line x1="103.0001" y1="3.00010000000008" x2="103.0001" y2="0.000100000000030198"/>
    <line x1="103.0001" y1="0.000100000000030198" x2="83.0001" y2="0.00010000000003908"/>
    <line x1="83.0001" y1="0.00010000000003908" x2="83.0001" y2="3.00010000000008"/>
  </g>
</svg>
