<?xml version="1.0" standalone="no"?>
<!DOCTYPE svg PUBLIC "-//W3C//DTD SVG 1.1//EN" "http://www.w3.org/Graphics/SVG/1.1/DTD/svg11.dtd">
<svg width="142.0002mm" height="196.0002mm"
 viewBox="0 0 142.0002 196.0002"
 xmlns="http://www.w3.org/2000/svg" version="1.1"
 xmlns:xlink="http://www.w3.org/1999/xlink">
<desc>Output from Flights of Ideas SVG Sketchup Plugin</desc>

  <g id="face0" fill="none" stroke="rgb(0,0,255)" stroke-width="1" stroke-miterlimit="4" stroke-dasharray="none" stroke-linejoin="round" stroke-linecap="round">
    <line x1="0.0001" y1="196.0001" x2="142.0001" y2="196.0001"/>
    <line x1="142.0001" y1="196.0001" x2="142.0001" y2="0.0001"/>
    <line x1="142.0001" y1="0.0001" x2="0.0001" y2="0.0001"/>
    <line x1="0.0001" y1="0.0001" x2="0.0001" y2="196.0001"/>
    <line x1="64.6276204881645" y1="172.992401640286" x2="64.9918037300597" y2="172.841552002304"/>
    <line x1="64.9918037300597" y1="172.841552002304" x2="65.3826204881645" y2="172.790100000001"/>
    <line x1="65.3826204881645" y1="172.790100000001" x2="65.7734372462693" y2="172.841552002304"/>
    <line x1="65.7734372462693" y1="172.841552002304" x2="66.1376204881646" y2="172.992401640286"/>
    <line x1="66.1376204881646" y1="172.992401640286" x2="66.4503517277562" y2="173.232368760409"/>
    <line x1="66.4503517277562" y1="173.232368760409" x2="66.690318847879" y2="173.545100000001"/>
    <line x1="66.690318847879" y1="173.545100000001" x2="66.841168485861" y2="173.909283241896"/>
    <line x1="66.841168485861" y1="173.909283241896" x2="66.8926204881646" y2="174.300100000001"/>
    <line x1="66.8926204881646" y1="174.300100000001" x2="66.841168485861" y2="174.690916758106"/>
    <line x1="66.841168485861" y1="174.690916758106" x2="66.690318847879" y2="175.055100000001"/>
    <line x1="66.690318847879" y1="175.055100000001" x2="66.4503517277562" y2="175.367831239593"/>
    <line x1="66.4503517277562" y1="175.367831239593" x2="66.1376204881646" y2="175.607798359715"/>
    <line x1="66.1376204881646" y1="175.607798359715" x2="65.7734372462693" y2="175.758647997697"/>
    <line x1="65.7734372462693" y1="175.758647997697" x2="65.3826204881646" y2="175.810100000001"/>
    <line x1="65.3826204881646" y1="175.810100000001" x2="64.9918037300597" y2="175.758647997697"/>
    <line x1="64.9918037300597" y1="175.758647997697" x2="64.6276204881647" y2="175.607798359715"/>
    <line x1="64.6276204881647" y1="175.607798359715" x2="64.3148892485729" y2="175.367831239593"/>
    <line x1="64.3148892485729" y1="175.367831239593" x2="64.07492212845" y2="175.055100000001"/>
    <line x1="64.07492212845" y1="175.055100000001" x2="63.924072490468" y2="174.690916758106"/>
    <line x1="63.924072490468" y1="174.690916758106" x2="63.8726204881645" y2="174.300100000001"/>
    <line x1="63.8726204881645" y1="174.300100000001" x2="63.924072490468" y2="173.909283241896"/>
    <line x1="63.924072490468" y1="173.909283241896" x2="64.07492212845" y2="173.545100000001"/>
    <line x1="64.07492212845" y1="173.545100000001" x2="64.3148892485728" y2="173.232368760409"/>
    <line x1="64.3148892485728" y1="173.232368760409" x2="64.6276204881645" y2="172.992401640286"/>
    <line x1="60.1376204881653" y1="125.507798359715" x2="59.77343724627" y2="125.658647997697"/>
    <line x1="59.77343724627" y1="125.658647997697" x2="59.3826204881653" y2="125.710100000001"/>
    <line x1="59.3826204881653" y1="125.710100000001" x2="58.9918037300604" y2="125.658647997697"/>
    <line x1="58.9918037300604" y1="125.658647997697" x2="58.6276204881653" y2="125.507798359715"/>
    <line x1="58.6276204881653" y1="125.507798359715" x2="58.3148892485736" y2="125.267831239592"/>
    <line x1="58.3148892485736" y1="125.267831239592" x2="58.0749221284507" y2="124.955100000001"/>
    <line x1="58.0749221284507" y1="124.955100000001" x2="57.9240724904687" y2="124.590916758106"/>
    <line x1="57.9240724904687" y1="124.590916758106" x2="57.8726204881652" y2="124.200100000001"/>
    <line x1="57.8726204881652" y1="124.200100000001" x2="57.9240724904687" y2="123.809283241896"/>
    <line x1="57.9240724904687" y1="123.809283241896" x2="58.0749221284507" y2="123.445100000001"/>
    <line x1="58.0749221284507" y1="123.445100000001" x2="58.3148892485736" y2="123.132368760409"/>
    <line x1="58.3148892485736" y1="123.132368760409" x2="58.6276204881651" y2="122.892401640286"/>
    <line x1="58.6276204881651" y1="122.892401640286" x2="58.9918037300604" y2="122.741552002304"/>
    <line x1="58.9918037300604" y1="122.741552002304" x2="59.3826204881651" y2="122.690100000001"/>
    <line x1="59.3826204881651" y1="122.690100000001" x2="59.77343724627" y2="122.741552002304"/>
    <line x1="59.77343724627" y1="122.741552002304" x2="60.1376204881653" y2="122.892401640286"/>
    <line x1="60.1376204881653" y1="122.892401640286" x2="60.4503517277568" y2="123.132368760409"/>
    <line x1="60.4503517277568" y1="123.132368760409" x2="60.6903188478796" y2="123.445100000001"/>
    <line x1="60.6903188478796" y1="123.445100000001" x2="60.8411684858617" y2="123.809283241896"/>
    <line x1="60.8411684858617" y1="123.809283241896" x2="60.8926204881652" y2="124.200100000001"/>
    <line x1="60.8926204881652" y1="124.200100000001" x2="60.8411684858617" y2="124.590916758105"/>
    <line x1="60.8411684858617" y1="124.590916758105" x2="60.6903188478798" y2="124.955100000001"/>
    <line x1="60.6903188478798" y1="124.955100000001" x2="60.4503517277568" y2="125.267831239592"/>
    <line x1="60.4503517277568" y1="125.267831239592" x2="60.1376204881653" y2="125.507798359715"/>
    <line x1="31.5251217970491" y1="122.390121847263" x2="31.9156561263763" y2="122.443675414591"/>
    <line x1="31.9156561263763" y1="122.443675414591" x2="32.2790226379682" y2="122.59648191056"/>
    <line x1="32.2790226379682" y1="122.59648191056" x2="32.5904585045511" y2="122.838127824993"/>
    <line x1="32.5904585045511" y1="122.838127824993" x2="32.8287398864898" y2="123.152145388161"/>
    <line x1="32.8287398864898" y1="123.152145388161" x2="32.9776283013834" y2="123.517134822073"/>
    <line x1="32.9776283013834" y1="123.517134822073" x2="33.0269772498072" y2="123.90822269998"/>
    <line x1="33.0269772498072" y1="123.90822269998" x2="32.9734236824786" y2="124.298757029307"/>
    <line x1="32.9734236824786" y1="124.298757029307" x2="32.82061718651" y2="124.662123540899"/>
    <line x1="32.82061718651" y1="124.662123540899" x2="32.5789712720766" y2="124.973559407482"/>
    <line x1="32.5789712720766" y1="124.973559407482" x2="32.2649537089085" y2="125.211840789421"/>
    <line x1="32.2649537089085" y1="125.211840789421" x2="31.899964274997" y2="125.360729204314"/>
    <line x1="31.899964274997" y1="125.360729204314" x2="31.5088763970897" y2="125.410078152738"/>
    <line x1="31.5088763970897" y1="125.410078152738" x2="31.1183420677626" y2="125.35652458541"/>
    <line x1="31.1183420677626" y1="125.35652458541" x2="30.7549755561709" y2="125.203718089441"/>
    <line x1="30.7549755561709" y1="125.203718089441" x2="30.4435396895879" y2="124.962072175007"/>
    <line x1="30.4435396895879" y1="124.962072175007" x2="30.2052583076493" y2="124.648054611839"/>
    <line x1="30.2052583076493" y1="124.648054611839" x2="30.0563698927554" y2="124.283065177928"/>
    <line x1="30.0563698927554" y1="124.283065177928" x2="30.0070209443317" y2="123.891977300021"/>
    <line x1="30.0070209443317" y1="123.891977300021" x2="30.0605745116602" y2="123.501442970693"/>
    <line x1="30.0605745116602" y1="123.501442970693" x2="30.2133810076289" y2="123.138076459102"/>
    <line x1="30.2133810076289" y1="123.138076459102" x2="30.4550269220623" y2="122.826640592519"/>
    <line x1="30.4550269220623" y1="122.826640592519" x2="30.7690444852303" y2="122.58835921058"/>
    <line x1="30.7690444852303" y1="122.58835921058" x2="31.1340339191419" y2="122.439470795686"/>
    <line x1="31.1340339191419" y1="122.439470795686" x2="31.5251217970491" y2="122.390121847263"/>
    <line x1="18.5903188478793" y1="172.9451" x2="18.7411684858612" y2="173.309283241895"/>
    <line x1="18.7411684858612" y1="173.309283241895" x2="18.7926204881647" y2="173.7001"/>
    <line x1="18.7926204881647" y1="173.7001" x2="18.7411684858612" y2="174.090916758105"/>
    <line x1="18.7411684858612" y1="174.090916758105" x2="18.5903188478793" y2="174.4551"/>
    <line x1="18.5903188478793" y1="174.4551" x2="18.3503517277565" y2="174.767831239592"/>
    <line x1="18.3503517277565" y1="174.767831239592" x2="18.0376204881647" y2="175.007798359715"/>
    <line x1="18.0376204881647" y1="175.007798359715" x2="17.6734372462694" y2="175.158647997697"/>
    <line x1="17.6734372462694" y1="175.158647997697" x2="17.2826204881648" y2="175.2101"/>
    <line x1="17.2826204881648" y1="175.2101" x2="16.8918037300598" y2="175.158647997697"/>
    <line x1="16.8918037300598" y1="175.158647997697" x2="16.5276204881646" y2="175.007798359715"/>
    <line x1="16.5276204881646" y1="175.007798359715" x2="16.214889248573" y2="174.767831239592"/>
    <line x1="16.214889248573" y1="174.767831239592" x2="15.97492212845" y2="174.4551"/>
    <line x1="15.97492212845" y1="174.4551" x2="15.8240724904681" y2="174.090916758105"/>
    <line x1="15.8240724904681" y1="174.090916758105" x2="15.7726204881646" y2="173.7001"/>
    <line x1="15.7726204881646" y1="173.7001" x2="15.8240724904681" y2="173.309283241895"/>
    <line x1="15.8240724904681" y1="173.309283241895" x2="15.97492212845" y2="172.9451"/>
    <line x1="15.97492212845" y1="172.9451" x2="16.2148892485729" y2="172.632368760408"/>
    <line x1="16.2148892485729" y1="172.632368760408" x2="16.5276204881646" y2="172.392401640286"/>
    <line x1="16.5276204881646" y1="172.392401640286" x2="16.8918037300598" y2="172.241552002304"/>
    <line x1="16.8918037300598" y1="172.241552002304" x2="17.2826204881646" y2="172.1901"/>
    <line x1="17.2826204881646" y1="172.1901" x2="17.6734372462694" y2="172.241552002304"/>
    <line x1="17.6734372462694" y1="172.241552002304" x2="18.0376204881647" y2="172.392401640286"/>
    <line x1="18.0376204881647" y1="172.392401640286" x2="18.3503517277565" y2="172.632368760408"/>
    <line x1="18.3503517277565" y1="172.632368760408" x2="18.5903188478793" y2="172.9451"/>
    <line x1="139.0001" y1="50.0001" x2="136.0001" y2="50.0001"/>
    <line x1="136.0001" y1="50.0001" x2="136.0001" y2="30.0001"/>
    <line x1="136.0001" y1="30.0001" x2="139.0001" y2="30.0001"/>
    <line x1="139.0001" y1="30.0001" x2="139.0001" y2="50.0001"/>
    <line x1="136.0001" y1="186.0001" x2="136.0001" y2="156.0001"/>
    <line x1="136.0001" y1="156.0001" x2="139.0001" y2="156.0001"/>
    <line x1="139.0001" y1="156.0001" x2="139.0001" y2="186.0001"/>
    <line x1="139.0001" y1="186.0001" x2="136.0001" y2="186.0001"/>
    <line x1="106.0001" y1="190.0001" x2="106.0001" y2="193.0001"/>
    <line x1="106.0001" y1="193.0001" x2="86.0001" y2="193.0001"/>
    <line x1="86.0001" y1="193.0001" x2="86.0001" y2="190.0001"/>
    <line x1="86.0001" y1="190.0001" x2="106.0001" y2="190.0001"/>
    <line x1="40.8826204881642" y1="190.0001" x2="50.8826204881645" y2="190.0001"/>
    <line x1="50.8826204881645" y1="190.0001" x2="50.8826204881645" y2="193.0001"/>
    <line x1="50.8826204881645" y1="193.0001" x2="40.8826204881642" y2="193.0001"/>
    <line x1="40.8826204881642" y1="193.0001" x2="40.8826204881642" y2="190.0001"/>
    <line x1="111.100099938366" y1="155.200099876731" x2="100.900100061635" y2="155.200099876731"/>
    <line x1="100.900100061635" y1="155.200099876731" x2="100.900100061635" y2="152.200099876732"/>
    <line x1="100.900100061635" y1="152.200099876732" x2="111.100099938366" y2="152.200099876732"/>
    <line x1="111.100099938366" y1="152.200099876732" x2="111.100099938366" y2="155.200099876731"/>
    <line x1="116.0001" y1="90.0001000000001" x2="126.0001" y2="90.0001000000001"/>
    <line x1="126.0001" y1="90.0001000000001" x2="126.0001" y2="93.0001"/>
    <line x1="126.0001" y1="93.0001" x2="116.0001" y2="93.0001"/>
    <line x1="116.0001" y1="93.0001" x2="116.0001" y2="90.0001000000001"/>
    <line x1="6.00010000000011" y1="146.0001" x2="6.00010000000011" y2="166.0001"/>
    <line x1="6.00010000000011" y1="166.0001" x2="3.00010000000011" y2="166.0001"/>
    <line x1="3.00010000000011" y1="166.0001" x2="3.00010000000011" y2="146.0001"/>
    <line x1="3.00010000000011" y1="146.0001" x2="6.00010000000011" y2="146.0001"/>
    <line x1="26.0001000000001" y1="90.0001000000001" x2="26.0001000000001" y2="93.0001"/>
    <line x1="26.0001000000001" y1="93.0001" x2="16.0001" y2="93.0001"/>
    <line x1="16.0001" y1="93.0001" x2="16.0001" y2="90.0001000000001"/>
    <line x1="16.0001" y1="90.0001000000001" x2="26.0001000000001" y2="90.0001000000001"/>
    <line x1="76.0001000000001" y1="90.0001000000001" x2="76.0001000000001" y2="93.0001"/>
    <line x1="76.0001000000001" y1="93.0001" x2="66.0001" y2="93.0001"/>
    <line x1="66.0001" y1="93.0001" x2="66.0001" y2="90.0001000000001"/>
    <line x1="66.0001" y1="90.0001000000001" x2="76.0001000000001" y2="90.0001000000001"/>
    <line x1="126.0001" y1="6.00010000000011" x2="106.0001" y2="6.00010000000006"/>
    <line x1="106.0001" y1="6.00010000000006" x2="106.0001" y2="3.0001"/>
    <line x1="106.0001" y1="3.0001" x2="126.0001" y2="3.0001"/>
    <line x1="126.0001" y1="3.0001" x2="126.0001" y2="6.00010000000011"/>
    <line x1="36.0001" y1="6.00010000000006" x2="16.0001" y2="6.00010000000006"/>
    <line x1="16.0001" y1="6.00010000000006" x2="16.0001" y2="3.0001"/>
    <line x1="16.0001" y1="3.0001" x2="36.0001" y2="3.0001"/>
    <line x1="36.0001" y1="3.0001" x2="36.0001" y2="6.00010000000006"/>
    <line x1="3.00010000000011" y1="50.0001" x2="3.00010000000011" y2="30.0001"/>
    <line x1="3.00010000000011" y1="30.0001" x2="6.00010000000011" y2="30.0001"/>
    <line x1="6.00010000000011" y1="30.0001" x2="6.00010000000011" y2="50.0001"/>
    <line x1="6.00010000000011" y1="50.0001" x2="3.00010000000011" y2="50.0001"/>
    <line x1="47.112992089256" y1="50.1008449701257" x2="40.0419242773912" y2="57.1719127819922"/>
    <line x1="40.0419242773912" y1="57.1719127819922" x2="37.9206039338314" y2="55.0505924384329"/>
    <line x1="37.9206039338314" y1="55.0505924384329" x2="44.991671745696" y2="47.9795246265665"/>
    <line x1="44.991671745696" y1="47.9795246265665" x2="47.112992089256" y2="50.1008449701257"/>
    <line x1="75.3972633367144" y1="21.8165737226603" x2="68.3261955248499" y2="28.8876415345266"/>
    <line x1="68.3261955248499" y1="28.8876415345266" x2="66.2048751812896" y2="26.7663211909672"/>
    <line x1="66.2048751812896" y1="26.7663211909672" x2="73.2759429931544" y2="19.695253379101"/>
    <line x1="73.2759429931544" y1="19.695253379101" x2="75.3972633367144" y2="21.8165737226603"/>
    <line x1="4.88832856765375" y1="19.9489887394336" x2="4.50010000000011" y2="20.0001000000001"/>
    <line x1="4.50010000000011" y1="20.0001000000001" x2="4.11187143234624" y2="19.9489887394336"/>
    <line x1="4.11187143234624" y1="19.9489887394336" x2="3.75010000000011" y2="19.7991381056767"/>
    <line x1="3.75010000000011" y1="19.7991381056767" x2="3.43943982822011" y2="19.5607601717799"/>
    <line x1="3.43943982822011" y1="19.5607601717799" x2="3.20106189432331" y2="19.2501000000001"/>
    <line x1="3.20106189432331" y1="19.2501000000001" x2="3.05121126056636" y2="18.8883285676538"/>
    <line x1="3.05121126056636" y1="18.8883285676538" x2="3.00010000000011" y2="18.5001"/>
    <line x1="3.00010000000011" y1="18.5001" x2="3.05121126056636" y2="18.1118714323462"/>
    <line x1="3.05121126056636" y1="18.1118714323462" x2="3.20106189432331" y2="17.7501"/>
    <line x1="3.20106189432331" y1="17.7501" x2="3.43943982822034" y2="17.4394398282201"/>
    <line x1="3.43943982822034" y1="17.4394398282201" x2="3.75010000000011" y2="17.2010618943234"/>
    <line x1="3.75010000000011" y1="17.2010618943234" x2="4.11187143234624" y2="17.0512112605664"/>
    <line x1="4.11187143234624" y1="17.0512112605664" x2="4.50010000000011" y2="17.0001"/>
    <line x1="4.50010000000011" y1="17.0001" x2="4.88832856765375" y2="17.0512112605664"/>
    <line x1="4.88832856765375" y1="17.0512112605664" x2="5.25010000000011" y2="17.2010618943234"/>
    <line x1="5.25010000000011" y1="17.2010618943234" x2="5.56076017177989" y2="17.4394398282201"/>
    <line x1="5.56076017177989" y1="17.4394398282201" x2="5.79913810567669" y2="17.7501"/>
    <line x1="5.79913810567669" y1="17.7501" x2="5.94898873943364" y2="18.1118714323462"/>
    <line x1="5.94898873943364" y1="18.1118714323462" x2="6.00010000000011" y2="18.5001"/>
    <line x1="6.00010000000011" y1="18.5001" x2="5.94898873943364" y2="18.8883285676538"/>
    <line x1="5.94898873943364" y1="18.8883285676538" x2="5.79913810567669" y2="19.2501000000001"/>
    <line x1="5.79913810567669" y1="19.2501000000001" x2="5.56076017177989" y2="19.5607601717799"/>
    <line x1="5.56076017177989" y1="19.5607601717799" x2="5.25010000000011" y2="19.7991381056767"/>
    <line x1="5.25010000000011" y1="19.7991381056767" x2="4.88832856765375" y2="19.9489887394336"/>
    <line x1="69.5512112605665" y1="4.88832856765387" x2="69.5001000000001" y2="4.50010000000006"/>
    <line x1="69.5001000000001" y1="4.50010000000006" x2="69.5512112605665" y2="4.11187143234624"/>
    <line x1="69.5512112605665" y1="4.11187143234624" x2="69.7010618943233" y2="3.75010000000006"/>
    <line x1="69.7010618943233" y1="3.75010000000006" x2="69.9394398282201" y2="3.43943982822023"/>
    <line x1="69.9394398282201" y1="3.43943982822023" x2="70.2501000000001" y2="3.20106189432337"/>
    <line x1="70.2501000000001" y1="3.20106189432337" x2="70.6118714323462" y2="3.05121126056642"/>
    <line x1="70.6118714323462" y1="3.05121126056642" x2="71.0000999999999" y2="3.0001"/>
    <line x1="71.0000999999999" y1="3.0001" x2="71.3883285676539" y2="3.05121126056642"/>
    <line x1="71.3883285676539" y1="3.05121126056642" x2="71.7501" y2="3.20106189432337"/>
    <line x1="71.7501" y1="3.20106189432337" x2="72.0607601717799" y2="3.43943982822023"/>
    <line x1="72.0607601717799" y1="3.43943982822023" x2="72.2991381056767" y2="3.75010000000006"/>
    <line x1="72.2991381056767" y1="3.75010000000006" x2="72.4489887394336" y2="4.11187143234624"/>
    <line x1="72.4489887394336" y1="4.11187143234624" x2="72.5001" y2="4.50010000000006"/>
    <line x1="72.5001" y1="4.50010000000006" x2="72.4489887394336" y2="4.88832856765387"/>
    <line x1="72.4489887394336" y1="4.88832856765387" x2="72.2991381056767" y2="5.25010000000006"/>
    <line x1="72.2991381056767" y1="5.25010000000006" x2="72.0607601717798" y2="5.56076017177983"/>
    <line x1="72.0607601717798" y1="5.56076017177983" x2="71.7501" y2="5.79913810567674"/>
    <line x1="71.7501" y1="5.79913810567674" x2="71.3883285676539" y2="5.94898873943364"/>
    <line x1="71.3883285676539" y1="5.94898873943364" x2="71.0000999999999" y2="6.00010000000006"/>
    <line x1="71.0000999999999" y1="6.00010000000006" x2="70.6118714323462" y2="5.94898873943364"/>
    <line x1="70.6118714323462" y1="5.94898873943364" x2="70.2501000000001" y2="5.79913810567674"/>
    <line x1="70.2501000000001" y1="5.79913810567674" x2="69.9394398282201" y2="5.56076017177983"/>
    <line x1="69.9394398282201" y1="5.56076017177983" x2="69.7010618943233" y2="5.25010000000006"/>
    <line x1="69.7010618943233" y1="5.25010000000006" x2="69.5512112605665" y2="4.88832856765387"/>
    <line x1="137.888328567654" y1="19.9489887394336" x2="137.5001" y2="20.0001000000001"/>
    <line x1="137.5001" y1="20.0001000000001" x2="137.111871432346" y2="19.9489887394336"/>
    <line x1="137.111871432346" y1="19.9489887394336" x2="136.7501" y2="19.7991381056767"/>
    <line x1="136.7501" y1="19.7991381056767" x2="136.43943982822" y2="19.5607601717799"/>
    <line x1="136.43943982822" y1="19.5607601717799" x2="136.201061894323" y2="19.2501000000001"/>
    <line x1="136.201061894323" y1="19.2501000000001" x2="136.051211260566" y2="18.8883285676538"/>
    <line x1="136.051211260566" y1="18.8883285676538" x2="136.0001" y2="18.5001"/>
    <line x1="136.0001" y1="18.5001" x2="136.051211260566" y2="18.1118714323462"/>
    <line x1="136.051211260566" y1="18.1118714323462" x2="136.201061894323" y2="17.7501"/>
    <line x1="136.201061894323" y1="17.7501" x2="136.43943982822" y2="17.4394398282201"/>
    <line x1="136.43943982822" y1="17.4394398282201" x2="136.7501" y2="17.2010618943234"/>
    <line x1="136.7501" y1="17.2010618943234" x2="137.111871432346" y2="17.0512112605664"/>
    <line x1="137.111871432346" y1="17.0512112605664" x2="137.5001" y2="17.0001"/>
    <line x1="137.5001" y1="17.0001" x2="137.888328567654" y2="17.0512112605664"/>
    <line x1="137.888328567654" y1="17.0512112605664" x2="138.2501" y2="17.2010618943234"/>
    <line x1="138.2501" y1="17.2010618943234" x2="138.56076017178" y2="17.4394398282201"/>
    <line x1="138.56076017178" y1="17.4394398282201" x2="138.799138105677" y2="17.7501"/>
    <line x1="138.799138105677" y1="17.7501" x2="138.948988739434" y2="18.1118714323462"/>
    <line x1="138.948988739434" y1="18.1118714323462" x2="139.0001" y2="18.5001000000001"/>
    <line x1="139.0001" y1="18.5001000000001" x2="138.948988739434" y2="18.8883285676538"/>
    <line x1="138.948988739434" y1="18.8883285676538" x2="138.799138105677" y2="19.2501000000001"/>
    <line x1="138.799138105677" y1="19.2501000000001" x2="138.56076017178" y2="19.5607601717799"/>
    <line x1="138.56076017178" y1="19.5607601717799" x2="138.2501" y2="19.7991381056767"/>
    <line x1="138.2501" y1="19.7991381056767" x2="137.888328567654" y2="19.9489887394336"/>
    <line x1="137.888328567654" y1="145.948988739434" x2="137.5001" y2="146.0001"/>
    <line x1="137.5001" y1="146.0001" x2="137.111871432346" y2="145.948988739434"/>
    <line x1="137.111871432346" y1="145.948988739434" x2="136.7501" y2="145.799138105677"/>
    <line x1="136.7501" y1="145.799138105677" x2="136.43943982822" y2="145.56076017178"/>
    <line x1="136.43943982822" y1="145.56076017178" x2="136.201061894323" y2="145.2501"/>
    <line x1="136.201061894323" y1="145.2501" x2="136.051211260566" y2="144.888328567654"/>
    <line x1="136.051211260566" y1="144.888328567654" x2="136.0001" y2="144.5001"/>
    <line x1="136.0001" y1="144.5001" x2="136.051211260566" y2="144.111871432346"/>
    <line x1="136.051211260566" y1="144.111871432346" x2="136.201061894323" y2="143.7501"/>
    <line x1="136.201061894323" y1="143.7501" x2="136.43943982822" y2="143.43943982822"/>
    <line x1="136.43943982822" y1="143.43943982822" x2="136.7501" y2="143.201061894323"/>
    <line x1="136.7501" y1="143.201061894323" x2="137.111871432346" y2="143.051211260567"/>
    <line x1="137.111871432346" y1="143.051211260567" x2="137.5001" y2="143.0001"/>
    <line x1="137.5001" y1="143.0001" x2="137.888328567654" y2="143.051211260566"/>
    <line x1="137.888328567654" y1="143.051211260566" x2="138.2501" y2="143.201061894323"/>
    <line x1="138.2501" y1="143.201061894323" x2="138.56076017178" y2="143.43943982822"/>
    <line x1="138.56076017178" y1="143.43943982822" x2="138.799138105677" y2="143.7501"/>
    <line x1="138.799138105677" y1="143.7501" x2="138.948988739434" y2="144.111871432346"/>
    <line x1="138.948988739434" y1="144.111871432346" x2="139.0001" y2="144.5001"/>
    <line x1="139.0001" y1="144.5001" x2="138.948988739434" y2="144.888328567654"/>
    <line x1="138.948988739434" y1="144.888328567654" x2="138.799138105677" y2="145.2501"/>
    <line x1="138.799138105677" y1="145.2501" x2="138.56076017178" y2="145.56076017178"/>
    <line x1="138.56076017178" y1="145.56076017178" x2="138.2501" y2="145.799138105677"/>
    <line x1="138.2501" y1="145.799138105677" x2="137.888328567654" y2="145.948988739434"/>
    <line x1="123.051211260566" y1="191.888328567654" x2="123.0001" y2="191.5001"/>
    <line x1="123.0001" y1="191.5001" x2="123.051211260566" y2="191.111871432346"/>
    <line x1="123.051211260566" y1="191.111871432346" x2="123.201061894323" y2="190.7501"/>
    <line x1="123.201061894323" y1="190.7501" x2="123.43943982822" y2="190.43943982822"/>
    <line x1="123.43943982822" y1="190.43943982822" x2="123.7501" y2="190.201061894323"/>
    <line x1="123.7501" y1="190.201061894323" x2="124.111871432346" y2="190.051211260567"/>
    <line x1="124.111871432346" y1="190.051211260567" x2="124.5001" y2="190.0001"/>
    <line x1="124.5001" y1="190.0001" x2="124.888328567654" y2="190.051211260566"/>
    <line x1="124.888328567654" y1="190.051211260566" x2="125.2501" y2="190.201061894324"/>
    <line x1="125.2501" y1="190.201061894324" x2="125.56076017178" y2="190.43943982822"/>
    <line x1="125.56076017178" y1="190.43943982822" x2="125.799138105677" y2="190.7501"/>
    <line x1="125.799138105677" y1="190.7501" x2="125.948988739434" y2="191.111871432346"/>
    <line x1="125.948988739434" y1="191.111871432346" x2="126.0001" y2="191.5001"/>
    <line x1="126.0001" y1="191.5001" x2="125.948988739434" y2="191.888328567653"/>
    <line x1="125.948988739434" y1="191.888328567653" x2="125.799138105677" y2="192.2501"/>
    <line x1="125.799138105677" y1="192.2501" x2="125.56076017178" y2="192.560760171779"/>
    <line x1="125.56076017178" y1="192.560760171779" x2="125.2501" y2="192.799138105677"/>
    <line x1="125.2501" y1="192.799138105677" x2="124.888328567654" y2="192.948988739434"/>
    <line x1="124.888328567654" y1="192.948988739434" x2="124.5001" y2="193.0001"/>
    <line x1="124.5001" y1="193.0001" x2="124.111871432346" y2="192.948988739433"/>
    <line x1="124.111871432346" y1="192.948988739433" x2="123.7501" y2="192.799138105676"/>
    <line x1="123.7501" y1="192.799138105676" x2="123.43943982822" y2="192.560760171779"/>
    <line x1="123.43943982822" y1="192.560760171779" x2="123.201061894323" y2="192.250100000001"/>
    <line x1="123.201061894323" y1="192.250100000001" x2="123.051211260566" y2="191.888328567654"/>
    <line x1="4.11187143234624" y1="176.051211260566" x2="4.50010000000011" y2="176.0001"/>
    <line x1="4.50010000000011" y1="176.0001" x2="4.88832856765375" y2="176.051211260566"/>
    <line x1="4.88832856765375" y1="176.051211260566" x2="5.25010000000011" y2="176.201061894323"/>
    <line x1="5.25010000000011" y1="176.201061894323" x2="5.56076017177989" y2="176.43943982822"/>
    <line x1="5.56076017177989" y1="176.43943982822" x2="5.79913810567669" y2="176.7501"/>
    <line x1="5.79913810567669" y1="176.7501" x2="5.94898873943364" y2="177.111871432346"/>
    <line x1="5.94898873943364" y1="177.111871432346" x2="6.00010000000011" y2="177.5001"/>
    <line x1="6.00010000000011" y1="177.5001" x2="5.94898873943364" y2="177.888328567654"/>
    <line x1="5.94898873943364" y1="177.888328567654" x2="5.79913810567669" y2="178.2501"/>
    <line x1="5.79913810567669" y1="178.2501" x2="5.56076017177989" y2="178.56076017178"/>
    <line x1="5.56076017177989" y1="178.56076017178" x2="5.25010000000011" y2="178.799138105677"/>
    <line x1="5.25010000000011" y1="178.799138105677" x2="4.88832856765375" y2="178.948988739434"/>
    <line x1="4.88832856765375" y1="178.948988739434" x2="4.50010000000011" y2="179.0001"/>
    <line x1="4.50010000000011" y1="179.0001" x2="4.11187143234624" y2="178.948988739434"/>
    <line x1="4.11187143234624" y1="178.948988739434" x2="3.75010000000011" y2="178.799138105677"/>
    <line x1="3.75010000000011" y1="178.799138105677" x2="3.43943982822011" y2="178.56076017178"/>
    <line x1="3.43943982822011" y1="178.56076017178" x2="3.20106189432331" y2="178.2501"/>
    <line x1="3.20106189432331" y1="178.2501" x2="3.05121126056636" y2="177.888328567654"/>
    <line x1="3.05121126056636" y1="177.888328567654" x2="3.00010000000011" y2="177.5001"/>
    <line x1="3.00010000000011" y1="177.5001" x2="3.05121126056636" y2="177.111871432346"/>
    <line x1="3.05121126056636" y1="177.111871432346" x2="3.20106189432331" y2="176.7501"/>
    <line x1="3.20106189432331" y1="176.7501" x2="3.43943982822034" y2="176.43943982822"/>
    <line x1="3.43943982822034" y1="176.43943982822" x2="3.75010000000011" y2="176.201061894323"/>
    <line x1="3.75010000000011" y1="176.201061894323" x2="4.11187143234624" y2="176.051211260566"/>
    <line x1="4.88832856765375" y1="105.948988739434" x2="4.50010000000011" y2="106.0001"/>
    <line x1="4.50010000000011" y1="106.0001" x2="4.11187143234624" y2="105.948988739434"/>
    <line x1="4.11187143234624" y1="105.948988739434" x2="3.75010000000011" y2="105.799138105677"/>
    <line x1="3.75010000000011" y1="105.799138105677" x2="3.43943982822011" y2="105.56076017178"/>
    <line x1="3.43943982822011" y1="105.56076017178" x2="3.20106189432331" y2="105.2501"/>
    <line x1="3.20106189432331" y1="105.2501" x2="3.05121126056636" y2="104.888328567654"/>
    <line x1="3.05121126056636" y1="104.888328567654" x2="3.00010000000011" y2="104.5001"/>
    <line x1="3.00010000000011" y1="104.5001" x2="3.05121126056636" y2="104.111871432346"/>
    <line x1="3.05121126056636" y1="104.111871432346" x2="3.20106189432331" y2="103.7501"/>
    <line x1="3.20106189432331" y1="103.7501" x2="3.43943982822011" y2="103.43943982822"/>
    <line x1="3.43943982822011" y1="103.43943982822" x2="3.75010000000011" y2="103.201061894323"/>
    <line x1="3.75010000000011" y1="103.201061894323" x2="4.11187143234624" y2="103.051211260566"/>
    <line x1="4.11187143234624" y1="103.051211260566" x2="4.50010000000011" y2="103.0001"/>
    <line x1="4.50010000000011" y1="103.0001" x2="4.88832856765375" y2="103.051211260566"/>
    <line x1="4.88832856765375" y1="103.051211260566" x2="5.25010000000011" y2="103.201061894323"/>
    <line x1="5.25010000000011" y1="103.201061894323" x2="5.56076017177989" y2="103.43943982822"/>
    <line x1="5.56076017177989" y1="103.43943982822" x2="5.79913810567669" y2="103.7501"/>
    <line x1="5.79913810567669" y1="103.7501" x2="5.94898873943364" y2="104.111871432346"/>
    <line x1="5.94898873943364" y1="104.111871432346" x2="6.00010000000011" y2="104.5001"/>
    <line x1="6.00010000000011" y1="104.5001" x2="5.94898873943364" y2="104.888328567654"/>
    <line x1="5.94898873943364" y1="104.888328567654" x2="5.79913810567669" y2="105.2501"/>
    <line x1="5.79913810567669" y1="105.2501" x2="5.56076017177989" y2="105.56076017178"/>
    <line x1="5.56076017177989" y1="105.56076017178" x2="5.25010000000011" y2="105.799138105677"/>
    <line x1="5.25010000000011" y1="105.799138105677" x2="4.88832856765375" y2="105.948988739434"/>
  </g>
</svg>
