<?xml version="1.0" standalone="no"?>
<!DOCTYPE svg PUBLIC "-//W3C//DTD SVG 1.1//EN" "http://www.w3.org/Graphics/SVG/1.1/DTD/svg11.dtd">
<svg width="30.0002000000001mm" height="70.0002000000001mm"
 viewBox="0 0 30.0002000000001 70.0002000000001"
 xmlns="http://www.w3.org/2000/svg" version="1.1"
 xmlns:xlink="http://www.w3.org/1999/xlink">
<desc>Output from Flights of Ideas SVG Sketchup Plugin</desc>

  <g id="face0" fill="none" stroke="rgb(0,0,255)" stroke-width="1" stroke-miterlimit="4" stroke-dasharray="none" stroke-linejoin="round" stroke-linecap="round">
    <line x1="0.0001" y1="0.0001" x2="0.0001" y2="70.0001000000001"/>
    <line x1="0.0001" y1="70.0001000000001" x2="30.0001000000001" y2="70.0001000000001"/>
    <line x1="30.0001000000001" y1="70.0001000000001" x2="30.0001000000001" y2="0.0001"/>
    <line x1="30.0001000000001" y1="0.0001" x2="0.0001" y2="0.0001"/>
    <line x1="8.65010000000009" y1="4.10009999999999" x2="21.3501" y2="4.10009999999999"/>
    <line x1="21.3501" y1="4.10009999999999" x2="21.3501" y2="65.9001000000001"/>
    <line x1="21.3501" y1="65.9001000000001" x2="8.65010000000009" y2="65.9001000000001"/>
    <line x1="8.65010000000009" y1="65.9001000000001" x2="8.65010000000009" y2="4.10009999999999"/>
    <line x1="3.55121126056647" y1="67.388328567654" x2="3.50010000000011" y2="67.0001000000003"/>
    <line x1="3.50010000000011" y1="67.0001000000003" x2="3.55121126056647" y2="66.6118714323465"/>
    <line x1="3.55121126056647" y1="66.6118714323465" x2="3.70106189432343" y2="66.2501000000003"/>
    <line x1="3.70106189432343" y1="66.2501000000003" x2="3.93943982822023" y2="65.9394398282205"/>
    <line x1="3.93943982822023" y1="65.9394398282205" x2="4.25010000000011" y2="65.7010618943237"/>
    <line x1="4.25010000000011" y1="65.7010618943237" x2="4.61187143234624" y2="65.5512112605667"/>
    <line x1="4.61187143234624" y1="65.5512112605667" x2="5.00010000000011" y2="65.5001000000003"/>
    <line x1="5.00010000000011" y1="65.5001000000003" x2="5.38832856765387" y2="65.5512112605668"/>
    <line x1="5.38832856765387" y1="65.5512112605668" x2="5.75010000000011" y2="65.7010618943237"/>
    <line x1="5.75010000000011" y1="65.7010618943237" x2="6.06076017177989" y2="65.9394398282205"/>
    <line x1="6.06076017177989" y1="65.9394398282205" x2="6.2991381056768" y2="66.2501000000003"/>
    <line x1="6.2991381056768" y1="66.2501000000003" x2="6.44898873943364" y2="66.6118714323466"/>
    <line x1="6.44898873943364" y1="66.6118714323466" x2="6.50010000000011" y2="67.0001000000003"/>
    <line x1="6.50010000000011" y1="67.0001000000003" x2="6.44898873943364" y2="67.3883285676541"/>
    <line x1="6.44898873943364" y1="67.3883285676541" x2="6.29913810567669" y2="67.7501000000004"/>
    <line x1="6.29913810567669" y1="67.7501000000004" x2="6.06076017177989" y2="68.0607601717802"/>
    <line x1="6.06076017177989" y1="68.0607601717802" x2="5.7501" y2="68.2991381056771"/>
    <line x1="5.7501" y1="68.2991381056771" x2="5.38832856765375" y2="68.448988739434"/>
    <line x1="5.38832856765375" y1="68.448988739434" x2="5.0001" y2="68.5001000000003"/>
    <line x1="5.0001" y1="68.5001000000003" x2="4.61187143234624" y2="68.448988739434"/>
    <line x1="4.61187143234624" y1="68.448988739434" x2="4.25010000000011" y2="68.2991381056771"/>
    <line x1="4.25010000000011" y1="68.2991381056771" x2="3.93943982822023" y2="68.0607601717802"/>
    <line x1="3.93943982822023" y1="68.0607601717802" x2="3.70106189432343" y2="67.7501000000003"/>
    <line x1="3.70106189432343" y1="67.7501000000003" x2="3.55121126056647" y2="67.388328567654"/>
    <line x1="26.5001000000001" y1="3.00010000000026" x2="26.4489887394336" y2="3.38832856765404"/>
    <line x1="26.4489887394336" y1="3.38832856765404" x2="26.2991381056767" y2="3.75010000000026"/>
    <line x1="26.2991381056767" y1="3.75010000000026" x2="26.0607601717799" y2="4.06076017178003"/>
    <line x1="26.0607601717799" y1="4.06076017178003" x2="25.7501" y2="4.299138105677"/>
    <line x1="25.7501" y1="4.299138105677" x2="25.3883285676539" y2="4.44898873943384"/>
    <line x1="25.3883285676539" y1="4.44898873943384" x2="25.0001000000001" y2="4.50010000000023"/>
    <line x1="25.0001000000001" y1="4.50010000000023" x2="24.6118714323462" y2="4.44898873943393"/>
    <line x1="24.6118714323462" y1="4.44898873943393" x2="24.2501" y2="4.299138105677"/>
    <line x1="24.2501" y1="4.299138105677" x2="23.9394398282202" y2="4.06076017178011"/>
    <line x1="23.9394398282202" y1="4.06076017178011" x2="23.7010618943233" y2="3.75010000000026"/>
    <line x1="23.7010618943233" y1="3.75010000000026" x2="23.5512112605665" y2="3.38832856765412"/>
    <line x1="23.5512112605665" y1="3.38832856765412" x2="23.5001" y2="3.00010000000023"/>
    <line x1="23.5001" y1="3.00010000000023" x2="23.5512112605665" y2="2.61187143234653"/>
    <line x1="23.5512112605665" y1="2.61187143234653" x2="23.7010618943233" y2="2.25010000000028"/>
    <line x1="23.7010618943233" y1="2.25010000000028" x2="23.9394398282201" y2="1.93943982822045"/>
    <line x1="23.9394398282201" y1="1.93943982822045" x2="24.2501" y2="1.70106189432368"/>
    <line x1="24.2501" y1="1.70106189432368" x2="24.6118714323462" y2="1.55121126056676"/>
    <line x1="24.6118714323462" y1="1.55121126056676" x2="25.0001" y2="1.50010000000028"/>
    <line x1="25.0001" y1="1.50010000000028" x2="25.3883285676539" y2="1.55121126056661"/>
    <line x1="25.3883285676539" y1="1.55121126056661" x2="25.7501" y2="1.70106189432363"/>
    <line x1="25.7501" y1="1.70106189432363" x2="26.0607601717799" y2="1.93943982822045"/>
    <line x1="26.0607601717799" y1="1.93943982822045" x2="26.2991381056767" y2="2.2501000000002"/>
    <line x1="26.2991381056767" y1="2.2501000000002" x2="26.4489887394336" y2="2.61187143234653"/>
    <line x1="26.4489887394336" y1="2.61187143234653" x2="26.5001000000001" y2="3.00010000000026"/>
  </g>
</svg>
