<?xml version="1.0" standalone="no"?>
<!DOCTYPE svg PUBLIC "-//W3C//DTD SVG 1.1//EN" "http://www.w3.org/Graphics/SVG/1.1/DTD/svg11.dtd">
<svg width="32.0mm" height="72.0000000000001mm"
 viewBox="0 0 32.0 72.0000000000001"
 xmlns="http://www.w3.org/2000/svg" version="1.1"
 xmlns:xlink="http://www.w3.org/1999/xlink">
<desc>Output from Flights of Ideas SVG Sketchup Plugin</desc>

  <g id="face0" fill="none" stroke="rgb(0,0,255)" stroke-width="1" stroke-miterlimit="4" stroke-dasharray="none" stroke-linejoin="round" stroke-linecap="round">
    <line x1="1.0" y1="1.0" x2="1.0" y2="71.0000000000001"/>
    <line x1="1.0" y1="71.0000000000001" x2="31.0" y2="71.0000000000001"/>
    <line x1="31.0" y1="71.0000000000001" x2="31.0" y2="1.0"/>
    <line x1="31.0" y1="1.0" x2="1.0" y2="1.0"/>
    <line x1="9.64999999999998" y1="5.09999999999999" x2="22.35" y2="5.09999999999999"/>
    <line x1="22.35" y1="5.09999999999999" x2="22.35" y2="15.1000000000001"/>
    <line x1="22.35" y1="15.1000000000001" x2="25.3499999999999" y2="15.1000000000001"/>
    <line x1="25.3499999999999" y1="15.1000000000001" x2="25.3499999999999" y2="56.9000000000002"/>
    <line x1="25.3499999999999" y1="56.9000000000002" x2="22.35" y2="56.9000000000002"/>
    <line x1="22.35" y1="56.9000000000002" x2="22.35" y2="66.9000000000002"/>
    <line x1="22.35" y1="66.9000000000002" x2="9.64999999999998" y2="66.9000000000002"/>
    <line x1="9.64999999999998" y1="66.9000000000002" x2="9.64999999999998" y2="5.09999999999999"/>
    <line x1="4.55111126056636" y1="68.388228567654" x2="4.5" y2="68.0000000000003"/>
    <line x1="4.5" y1="68.0000000000003" x2="4.55111126056636" y2="67.6117714323465"/>
    <line x1="4.55111126056636" y1="67.6117714323465" x2="4.70096189432331" y2="67.2500000000003"/>
    <line x1="4.70096189432331" y1="67.2500000000003" x2="4.93933982822023" y2="66.9393398282205"/>
    <line x1="4.93933982822023" y1="66.9393398282205" x2="5.25" y2="66.7009618943237"/>
    <line x1="5.25" y1="66.7009618943237" x2="5.61177143234625" y2="66.5511112605667"/>
    <line x1="5.61177143234625" y1="66.5511112605667" x2="6.0" y2="66.5000000000003"/>
    <line x1="6.0" y1="66.5000000000003" x2="6.38822856765375" y2="66.5511112605668"/>
    <line x1="6.38822856765375" y1="66.5511112605668" x2="6.75" y2="66.7009618943237"/>
    <line x1="6.75" y1="66.7009618943237" x2="7.06066017177977" y2="66.9393398282205"/>
    <line x1="7.06066017177977" y1="66.9393398282205" x2="7.29903810567669" y2="67.2500000000003"/>
    <line x1="7.29903810567669" y1="67.2500000000003" x2="7.44888873943364" y2="67.6117714323466"/>
    <line x1="7.44888873943364" y1="67.6117714323466" x2="7.5" y2="68.0000000000003"/>
    <line x1="7.5" y1="68.0000000000003" x2="7.44888873943364" y2="68.3882285676541"/>
    <line x1="7.44888873943364" y1="68.3882285676541" x2="7.29903810567657" y2="68.7500000000004"/>
    <line x1="7.29903810567657" y1="68.7500000000004" x2="7.06066017177977" y2="69.0606601717802"/>
    <line x1="7.06066017177977" y1="69.0606601717802" x2="6.74999999999989" y2="69.2990381056771"/>
    <line x1="6.74999999999989" y1="69.2990381056771" x2="6.38822856765375" y2="69.448888739434"/>
    <line x1="6.38822856765375" y1="69.448888739434" x2="5.99999999999989" y2="69.5000000000003"/>
    <line x1="5.99999999999989" y1="69.5000000000003" x2="5.61177143234625" y2="69.448888739434"/>
    <line x1="5.61177143234625" y1="69.448888739434" x2="5.25" y2="69.2990381056771"/>
    <line x1="5.25" y1="69.2990381056771" x2="4.93933982822011" y2="69.0606601717802"/>
    <line x1="4.93933982822011" y1="69.0606601717802" x2="4.70096189432331" y2="68.7500000000003"/>
    <line x1="4.70096189432331" y1="68.7500000000003" x2="4.55111126056636" y2="68.388228567654"/>
    <line x1="27.5" y1="4.00000000000026" x2="27.4488887394335" y2="4.38822856765412"/>
    <line x1="27.4488887394335" y1="4.38822856765412" x2="27.2990381056767" y2="4.75000000000026"/>
    <line x1="27.2990381056767" y1="4.75000000000026" x2="27.0606601717799" y2="5.06066017178003"/>
    <line x1="27.0606601717799" y1="5.06066017178003" x2="26.75" y2="5.299038105677"/>
    <line x1="26.75" y1="5.299038105677" x2="26.3882285676538" y2="5.44888873943384"/>
    <line x1="26.3882285676538" y1="5.44888873943384" x2="26.0000000000001" y2="5.50000000000023"/>
    <line x1="26.0000000000001" y1="5.50000000000023" x2="25.6117714323461" y2="5.44888873943393"/>
    <line x1="25.6117714323461" y1="5.44888873943393" x2="25.25" y2="5.299038105677"/>
    <line x1="25.25" y1="5.299038105677" x2="24.9393398282202" y2="5.06066017178011"/>
    <line x1="24.9393398282202" y1="5.06066017178011" x2="24.7009618943233" y2="4.75000000000026"/>
    <line x1="24.7009618943233" y1="4.75000000000026" x2="24.5511112605664" y2="4.38822856765412"/>
    <line x1="24.5511112605664" y1="4.38822856765412" x2="24.5" y2="4.00000000000023"/>
    <line x1="24.5" y1="4.00000000000023" x2="24.5511112605664" y2="3.61177143234653"/>
    <line x1="24.5511112605664" y1="3.61177143234653" x2="24.7009618943233" y2="3.2500000000004"/>
    <line x1="24.7009618943233" y1="3.2500000000004" x2="24.9393398282201" y2="2.93933982822045"/>
    <line x1="24.9393398282201" y1="2.93933982822045" x2="25.25" y2="2.70096189432368"/>
    <line x1="25.25" y1="2.70096189432368" x2="25.6117714323461" y2="2.55111126056676"/>
    <line x1="25.6117714323461" y1="2.55111126056676" x2="25.9999999999999" y2="2.50000000000037"/>
    <line x1="25.9999999999999" y1="2.50000000000037" x2="26.3882285676538" y2="2.55111126056661"/>
    <line x1="26.3882285676538" y1="2.55111126056661" x2="26.7499999999999" y2="2.70096189432363"/>
    <line x1="26.7499999999999" y1="2.70096189432363" x2="27.0606601717798" y2="2.93933982822045"/>
    <line x1="27.0606601717798" y1="2.93933982822045" x2="27.2990381056767" y2="3.2500000000002"/>
    <line x1="27.2990381056767" y1="3.2500000000002" x2="27.4488887394335" y2="3.61177143234653"/>
    <line x1="27.4488887394335" y1="3.61177143234653" x2="27.5" y2="4.00000000000026"/>
  </g>
</svg>
