<?xml version="1.0" standalone="no"?>
<!DOCTYPE svg PUBLIC "-//W3C//DTD SVG 1.1//EN" "http://www.w3.org/Graphics/SVG/1.1/DTD/svg11.dtd">
<svg width="38.0mm" height="72.0mm"
 viewBox="0 0 38.0 72.0"
 xmlns="http://www.w3.org/2000/svg" version="1.1"
 xmlns:xlink="http://www.w3.org/1999/xlink">
<desc>Output from Flights of Ideas SVG Sketchup Plugin</desc>

  <g id="face0" fill="none" stroke="rgb(0,0,255)" stroke-width="1" stroke-miterlimit="4" stroke-dasharray="none" stroke-linejoin="round" stroke-linecap="round">
    <line x1="34.0" y1="1.0" x2="3.99999999999994" y2="1.0"/>
    <line x1="3.99999999999994" y1="1.0" x2="3.99999999999994" y2="11.0000000000001"/>
    <line x1="3.99999999999994" y1="11.0000000000001" x2="1.0" y2="11.0000000000003"/>
    <line x1="1.0" y1="11.0000000000003" x2="1.0" y2="21.0000000000003"/>
    <line x1="1.0" y1="21.0000000000003" x2="3.99999999999994" y2="21.0000000000002"/>
    <line x1="3.99999999999994" y1="21.0000000000002" x2="3.99999999999994" y2="51.0000000000003"/>
    <line x1="3.99999999999994" y1="51.0000000000003" x2="1.0" y2="51.0000000000003"/>
    <line x1="1.0" y1="51.0000000000003" x2="1.0" y2="61.0000000000003"/>
    <line x1="1.0" y1="61.0000000000003" x2="3.99999999999994" y2="61.0000000000003"/>
    <line x1="3.99999999999994" y1="61.0000000000003" x2="4.00000000000006" y2="71.0"/>
    <line x1="4.00000000000006" y1="71.0" x2="34.0" y2="71.0"/>
    <line x1="34.0" y1="71.0" x2="34.0" y2="61.0000000000003"/>
    <line x1="34.0" y1="61.0000000000003" x2="37.0" y2="61.0000000000001"/>
    <line x1="37.0" y1="61.0000000000001" x2="37.0" y2="51.0000000000003"/>
    <line x1="37.0" y1="51.0000000000003" x2="34.0" y2="51.0000000000003"/>
    <line x1="34.0" y1="51.0000000000003" x2="34.0" y2="21.0000000000002"/>
    <line x1="34.0" y1="21.0000000000002" x2="37.0" y2="21.0000000000001"/>
    <line x1="37.0" y1="21.0000000000001" x2="37.0" y2="11.0000000000001"/>
    <line x1="37.0" y1="11.0000000000001" x2="34.0" y2="11.0000000000003"/>
    <line x1="34.0" y1="11.0000000000003" x2="34.0" y2="1.0"/>
    <line x1="30.4488887394335" y1="3.61177143234642" x2="30.5" y2="4.0000000000002"/>
    <line x1="30.5" y1="4.0000000000002" x2="30.4488887394335" y2="4.38822856765401"/>
    <line x1="30.4488887394335" y1="4.38822856765401" x2="30.2990381056766" y2="4.75000000000023"/>
    <line x1="30.2990381056766" y1="4.75000000000023" x2="30.0606601717798" y2="5.06066017178"/>
    <line x1="30.0606601717798" y1="5.06066017178" x2="29.7499999999999" y2="5.29903810567689"/>
    <line x1="29.7499999999999" y1="5.29903810567689" x2="29.3882285676538" y2="5.44888873943381"/>
    <line x1="29.3882285676538" y1="5.44888873943381" x2="29.0" y2="5.50000000000023"/>
    <line x1="29.0" y1="5.50000000000023" x2="28.6117714323461" y2="5.4488887394339"/>
    <line x1="28.6117714323461" y1="5.4488887394339" x2="28.25" y2="5.29903810567689"/>
    <line x1="28.25" y1="5.29903810567689" x2="27.9393398282201" y2="5.06066017178"/>
    <line x1="27.9393398282201" y1="5.06066017178" x2="27.7009618943233" y2="4.75000000000023"/>
    <line x1="27.7009618943233" y1="4.75000000000023" x2="27.5511112605664" y2="4.3882285676541"/>
    <line x1="27.5511112605664" y1="4.3882285676541" x2="27.5" y2="4.00000000000003"/>
    <line x1="27.5" y1="4.00000000000003" x2="27.5511112605664" y2="3.6117714323465"/>
    <line x1="27.5511112605664" y1="3.6117714323465" x2="27.7009618943233" y2="3.2500000000002"/>
    <line x1="27.7009618943233" y1="3.2500000000002" x2="27.9393398282201" y2="2.9393398282204"/>
    <line x1="27.9393398282201" y1="2.9393398282204" x2="28.25" y2="2.70096189432363"/>
    <line x1="28.25" y1="2.70096189432363" x2="28.6117714323461" y2="2.5511112605667"/>
    <line x1="28.6117714323461" y1="2.5511112605667" x2="28.9999999999999" y2="2.50000000000037"/>
    <line x1="28.9999999999999" y1="2.50000000000037" x2="29.3882285676536" y2="2.55111126056661"/>
    <line x1="29.3882285676536" y1="2.55111126056661" x2="29.7499999999999" y2="2.70096189432346"/>
    <line x1="29.7499999999999" y1="2.70096189432346" x2="30.0606601717797" y2="2.93933982822023"/>
    <line x1="30.0606601717797" y1="2.93933982822023" x2="30.2990381056766" y2="3.2500000000002"/>
    <line x1="30.2990381056766" y1="3.2500000000002" x2="30.4488887394335" y2="3.61177143234642"/>
    <line x1="7.55111126056647" y1="68.3882285676541" x2="7.50000000000006" y2="68.0000000000003"/>
    <line x1="7.50000000000006" y1="68.0000000000003" x2="7.55111126056647" y2="67.6117714323465"/>
    <line x1="7.55111126056647" y1="67.6117714323465" x2="7.70096189432343" y2="67.2500000000005"/>
    <line x1="7.70096189432343" y1="67.2500000000005" x2="7.93933982822028" y2="66.9393398282205"/>
    <line x1="7.93933982822028" y1="66.9393398282205" x2="8.25000000000011" y2="66.7009618943237"/>
    <line x1="8.25000000000011" y1="66.7009618943237" x2="8.61177143234636" y2="66.5511112605667"/>
    <line x1="8.61177143234636" y1="66.5511112605667" x2="9.00000000000011" y2="66.5000000000003"/>
    <line x1="9.00000000000011" y1="66.5000000000003" x2="9.38822856765387" y2="66.551111260567"/>
    <line x1="9.38822856765387" y1="66.551111260567" x2="9.75000000000011" y2="66.7009618943237"/>
    <line x1="9.75000000000011" y1="66.7009618943237" x2="10.06066017178" y2="66.9393398282205"/>
    <line x1="10.06066017178" y1="66.9393398282205" x2="10.2990381056768" y2="67.2500000000003"/>
    <line x1="10.2990381056768" y1="67.2500000000003" x2="10.4488887394336" y2="67.6117714323466"/>
    <line x1="10.4488887394336" y1="67.6117714323466" x2="10.5000000000001" y2="68.0000000000004"/>
    <line x1="10.5000000000001" y1="68.0000000000004" x2="10.4488887394336" y2="68.3882285676541"/>
    <line x1="10.4488887394336" y1="68.3882285676541" x2="10.2990381056767" y2="68.7500000000004"/>
    <line x1="10.2990381056767" y1="68.7500000000004" x2="10.0606601717799" y2="69.0606601717803"/>
    <line x1="10.0606601717799" y1="69.0606601717803" x2="9.75000000000011" y2="69.299038105677"/>
    <line x1="9.75000000000011" y1="69.299038105677" x2="9.38822856765375" y2="69.448888739434"/>
    <line x1="9.38822856765375" y1="69.448888739434" x2="9.00000000000011" y2="69.5000000000003"/>
    <line x1="9.00000000000011" y1="69.5000000000003" x2="8.61177143234625" y2="69.4488887394339"/>
    <line x1="8.61177143234625" y1="69.4488887394339" x2="8.25000000000011" y2="69.2990381056772"/>
    <line x1="8.25000000000011" y1="69.2990381056772" x2="7.93933982822028" y2="69.0606601717801"/>
    <line x1="7.93933982822028" y1="69.0606601717801" x2="7.70096189432343" y2="68.7500000000003"/>
    <line x1="7.70096189432343" y1="68.7500000000003" x2="7.55111126056647" y2="68.3882285676541"/>
    <line x1="21.35" y1="56.9000000000003" x2="21.35" y2="15.1"/>
    <line x1="21.35" y1="15.1" x2="28.35" y2="15.1"/>
    <line x1="28.35" y1="15.1" x2="28.35" y2="56.9000000000003"/>
    <line x1="28.35" y1="56.9000000000003" x2="21.35" y2="56.9000000000003"/>
  </g>
</svg>
