<?xml version="1.0" standalone="no"?>
<!DOCTYPE svg PUBLIC "-//W3C//DTD SVG 1.1//EN" "http://www.w3.org/Graphics/SVG/1.1/DTD/svg11.dtd">
<svg width="36.0002000000001mm" height="70.0002mm"
 viewBox="0 0 36.0002000000001 70.0002"
 xmlns="http://www.w3.org/2000/svg" version="1.1"
 xmlns:xlink="http://www.w3.org/1999/xlink">
<desc>Output from Flights of Ideas SVG Sketchup Plugin</desc>

  <g id="face0" fill="none" stroke="rgb(0,0,255)" stroke-width="1" stroke-miterlimit="4" stroke-dasharray="none" stroke-linejoin="round" stroke-linecap="round">
    <line x1="33.0001000000001" y1="0.0001" x2="3.0001" y2="0.0001"/>
    <line x1="3.0001" y1="0.0001" x2="3.0001" y2="10.0001000000001"/>
    <line x1="3.0001" y1="10.0001000000001" x2="0.0001" y2="10.0001000000003"/>
    <line x1="0.0001" y1="10.0001000000003" x2="0.0001" y2="20.0001000000003"/>
    <line x1="0.0001" y1="20.0001000000003" x2="3.0001" y2="20.0001000000002"/>
    <line x1="3.0001" y1="20.0001000000002" x2="3.0001" y2="50.0001000000003"/>
    <line x1="3.0001" y1="50.0001000000003" x2="0.0001" y2="50.0001000000003"/>
    <line x1="0.0001" y1="50.0001000000003" x2="0.0001" y2="60.0001000000003"/>
    <line x1="0.0001" y1="60.0001000000003" x2="3.0001" y2="60.0001000000003"/>
    <line x1="3.0001" y1="60.0001000000003" x2="3.00010000000006" y2="70.0001"/>
    <line x1="3.00010000000006" y1="70.0001" x2="33.0001000000001" y2="70.0001"/>
    <line x1="33.0001000000001" y1="70.0001" x2="33.0001000000001" y2="60.0001000000003"/>
    <line x1="33.0001000000001" y1="60.0001000000003" x2="36.0001000000001" y2="60.0001000000001"/>
    <line x1="36.0001000000001" y1="60.0001000000001" x2="36.0001000000001" y2="50.0001000000003"/>
    <line x1="36.0001000000001" y1="50.0001000000003" x2="33.0001000000001" y2="50.0001000000003"/>
    <line x1="33.0001000000001" y1="50.0001000000003" x2="33.0001000000001" y2="20.0001000000002"/>
    <line x1="33.0001000000001" y1="20.0001000000002" x2="36.0001000000001" y2="20.0001000000002"/>
    <line x1="36.0001000000001" y1="20.0001000000002" x2="36.0001000000001" y2="10.0001000000001"/>
    <line x1="36.0001000000001" y1="10.0001000000001" x2="33.0001000000001" y2="10.0001000000003"/>
    <line x1="33.0001000000001" y1="10.0001000000003" x2="33.0001000000001" y2="0.0001"/>
    <line x1="29.4489887394336" y1="2.61187143234642" x2="29.5000999999999" y2="3.0001000000002"/>
    <line x1="29.5000999999999" y1="3.0001000000002" x2="29.4489887394336" y2="3.38832856765401"/>
    <line x1="29.4489887394336" y1="3.38832856765401" x2="29.2991381056765" y2="3.75010000000023"/>
    <line x1="29.2991381056765" y1="3.75010000000023" x2="29.0607601717798" y2="4.06076017178"/>
    <line x1="29.0607601717798" y1="4.06076017178" x2="28.7500999999999" y2="4.29913810567689"/>
    <line x1="28.7500999999999" y1="4.29913810567689" x2="28.3883285676538" y2="4.44898873943381"/>
    <line x1="28.3883285676538" y1="4.44898873943381" x2="28.0000999999999" y2="4.50010000000023"/>
    <line x1="28.0000999999999" y1="4.50010000000023" x2="27.6118714323462" y2="4.4489887394339"/>
    <line x1="27.6118714323462" y1="4.4489887394339" x2="27.2500999999999" y2="4.29913810567689"/>
    <line x1="27.2500999999999" y1="4.29913810567689" x2="26.9394398282202" y2="4.06076017178"/>
    <line x1="26.9394398282202" y1="4.06076017178" x2="26.7010618943233" y2="3.75010000000023"/>
    <line x1="26.7010618943233" y1="3.75010000000023" x2="26.5512112605664" y2="3.3883285676541"/>
    <line x1="26.5512112605664" y1="3.3883285676541" x2="26.5000999999999" y2="3.0001000000002"/>
    <line x1="26.5000999999999" y1="3.0001000000002" x2="26.5512112605664" y2="2.6118714323465"/>
    <line x1="26.5512112605664" y1="2.6118714323465" x2="26.7010618943233" y2="2.2501000000002"/>
    <line x1="26.7010618943233" y1="2.2501000000002" x2="26.9394398282201" y2="1.9394398282204"/>
    <line x1="26.9394398282201" y1="1.9394398282204" x2="27.2500999999999" y2="1.70106189432363"/>
    <line x1="27.2500999999999" y1="1.70106189432363" x2="27.6118714323462" y2="1.5512112605667"/>
    <line x1="27.6118714323462" y1="1.5512112605667" x2="28.0000999999998" y2="1.50010000000037"/>
    <line x1="28.0000999999998" y1="1.50010000000037" x2="28.3883285676537" y2="1.55121126056661"/>
    <line x1="28.3883285676537" y1="1.55121126056661" x2="28.7500999999999" y2="1.70106189432346"/>
    <line x1="28.7500999999999" y1="1.70106189432346" x2="29.0607601717798" y2="1.93943982822031"/>
    <line x1="29.0607601717798" y1="1.93943982822031" x2="29.2991381056765" y2="2.2501000000002"/>
    <line x1="29.2991381056765" y1="2.2501000000002" x2="29.4489887394336" y2="2.61187143234642"/>
    <line x1="6.55121126056647" y1="67.3883285676541" x2="6.50010000000006" y2="67.0001000000003"/>
    <line x1="6.50010000000006" y1="67.0001000000003" x2="6.55121126056647" y2="66.6118714323465"/>
    <line x1="6.55121126056647" y1="66.6118714323465" x2="6.70106189432343" y2="66.2501000000003"/>
    <line x1="6.70106189432343" y1="66.2501000000003" x2="6.93943982822028" y2="65.9394398282205"/>
    <line x1="6.93943982822028" y1="65.9394398282205" x2="7.25010000000006" y2="65.7010618943237"/>
    <line x1="7.25010000000006" y1="65.7010618943237" x2="7.61187143234642" y2="65.5512112605667"/>
    <line x1="7.61187143234642" y1="65.5512112605667" x2="8.00010000000006" y2="65.5001000000003"/>
    <line x1="8.00010000000006" y1="65.5001000000003" x2="8.38832856765393" y2="65.5512112605668"/>
    <line x1="8.38832856765393" y1="65.5512112605668" x2="8.75010000000006" y2="65.7010618943237"/>
    <line x1="8.75010000000006" y1="65.7010618943237" x2="9.06076017177994" y2="65.9394398282205"/>
    <line x1="9.06076017177994" y1="65.9394398282205" x2="9.29913810567674" y2="66.2501000000003"/>
    <line x1="9.29913810567674" y1="66.2501000000003" x2="9.4489887394337" y2="66.6118714323466"/>
    <line x1="9.4489887394337" y1="66.6118714323466" x2="9.50010000000017" y2="67.0001000000004"/>
    <line x1="9.50010000000017" y1="67.0001000000004" x2="9.4489887394337" y2="67.3883285676541"/>
    <line x1="9.4489887394337" y1="67.3883285676541" x2="9.29913810567663" y2="67.7501000000004"/>
    <line x1="9.29913810567663" y1="67.7501000000004" x2="9.06076017177994" y2="68.0607601717803"/>
    <line x1="9.06076017177994" y1="68.0607601717803" x2="8.75010000000006" y2="68.299138105677"/>
    <line x1="8.75010000000006" y1="68.299138105677" x2="8.38832856765381" y2="68.448988739434"/>
    <line x1="8.38832856765381" y1="68.448988739434" x2="8.00010000000006" y2="68.5001000000003"/>
    <line x1="8.00010000000006" y1="68.5001000000003" x2="7.6118714323463" y2="68.4489887394339"/>
    <line x1="7.6118714323463" y1="68.4489887394339" x2="7.25010000000006" y2="68.299138105677"/>
    <line x1="7.25010000000006" y1="68.299138105677" x2="6.93943982822028" y2="68.0607601717801"/>
    <line x1="6.93943982822028" y1="68.0607601717801" x2="6.70106189432343" y2="67.7501000000003"/>
    <line x1="6.70106189432343" y1="67.7501000000003" x2="6.55121126056647" y2="67.3883285676541"/>
  </g>
</svg>
