<?xml version="1.0" standalone="no"?>
<!DOCTYPE svg PUBLIC "-//W3C//DTD SVG 1.1//EN" "http://www.w3.org/Graphics/SVG/1.1/DTD/svg11.dtd">
<svg width="33.0002mm" height="65.2002000000005mm"
 viewBox="0 0 33.0002 65.2002000000005"
 xmlns="http://www.w3.org/2000/svg" version="1.1"
 xmlns:xlink="http://www.w3.org/1999/xlink">
<desc>Output from Flights of Ideas SVG Sketchup Plugin</desc>

  <g id="face0" fill="none" stroke="rgb(0,0,255)" stroke-width="1" stroke-miterlimit="4" stroke-dasharray="none" stroke-linejoin="round" stroke-linecap="round">
    <line x1="0.000100000000113687" y1="41.2000999215474" x2="0.0001" y2="62.2001000000005"/>
    <line x1="0.0001" y1="62.2001000000005" x2="10.0500998181178" y2="62.2001000000005"/>
    <line x1="10.0500998181178" y1="62.2001000000005" x2="10.0500998181178" y2="65.2001000000005"/>
    <line x1="10.0500998181178" y1="65.2001000000005" x2="20.1000996362357" y2="65.2001000000005"/>
    <line x1="20.1000996362357" y1="65.2001000000005" x2="20.1000996362357" y2="62.2001000000005"/>
    <line x1="20.1000996362357" y1="62.2001000000005" x2="30.1000996362357" y2="62.2001000000005"/>
    <line x1="30.1000996362357" y1="62.2001000000005" x2="30.1000996362357" y2="52.2001000000005"/>
    <line x1="30.1000996362357" y1="52.2001000000005" x2="33.0001" y2="52.2001000000005"/>
    <line x1="33.0001" y1="52.2001000000005" x2="33.0001" y2="42.2001000000004"/>
    <line x1="33.0001" y1="42.2001000000004" x2="30.1000996362357" y2="42.2001000000006"/>
    <line x1="30.1000996362357" y1="42.2001000000006" x2="30.1000996362357" y2="3.00010000000004"/>
    <line x1="30.1000996362357" y1="3.00010000000004" x2="20.1000996362357" y2="3.00010000000004"/>
    <line x1="20.1000996362357" y1="3.00010000000004" x2="20.1000996362357" y2="0.0001"/>
    <line x1="20.1000996362357" y1="0.0001" x2="10.0500998181178" y2="0.0001"/>
    <line x1="10.0500998181178" y1="0.0001" x2="10.0500998181178" y2="3.00010000000004"/>
    <line x1="10.0500998181178" y1="3.00010000000004" x2="0.000100000000113687" y2="3.00010000000004"/>
    <line x1="0.000100000000113687" y1="3.00010000000004" x2="0.000100000000113687" y2="25.0000995676854"/>
    <line x1="0.000100000000113687" y1="25.0000995676854" x2="3.00010011555608" y2="25.0000995676854"/>
    <line x1="3.00010011555608" y1="25.0000995676854" x2="3.00010000000011" y2="41.2000999215474"/>
    <line x1="3.00010000000011" y1="41.2000999215474" x2="0.000100000000113687" y2="41.2000999215474"/>
  </g>
</svg>
