<?xml version="1.0" standalone="no"?>
<!DOCTYPE svg PUBLIC "-//W3C//DTD SVG 1.1//EN" "http://www.w3.org/Graphics/SVG/1.1/DTD/svg11.dtd">
<svg width="35.0000000000001mm" height="67.2000000000005mm"
 viewBox="0 0 35.0000000000001 67.2000000000005"
 xmlns="http://www.w3.org/2000/svg" version="1.1"
 xmlns:xlink="http://www.w3.org/1999/xlink">
<desc>Output from Flights of Ideas SVG Sketchup Plugin</desc>

  <g id="face0" fill="none" stroke="rgb(0,0,255)" stroke-width="1" stroke-miterlimit="4" stroke-dasharray="none" stroke-linejoin="round" stroke-linecap="round">
    <line x1="1.00000000000011" y1="42.1999999215474" x2="1.0" y2="63.2000000000005"/>
    <line x1="1.0" y1="63.2000000000005" x2="11.049999818118" y2="63.2000000000005"/>
    <line x1="11.049999818118" y1="63.2000000000005" x2="11.049999818118" y2="66.2000000000005"/>
    <line x1="11.049999818118" y1="66.2000000000005" x2="21.0999996362358" y2="66.2000000000005"/>
    <line x1="21.0999996362358" y1="66.2000000000005" x2="21.0999996362358" y2="63.2000000000005"/>
    <line x1="21.0999996362358" y1="63.2000000000005" x2="31.0999996362358" y2="63.2000000000005"/>
    <line x1="31.0999996362358" y1="63.2000000000005" x2="31.0999996362358" y2="53.2000000000005"/>
    <line x1="31.0999996362358" y1="53.2000000000005" x2="34.0000000000001" y2="53.2000000000005"/>
    <line x1="34.0000000000001" y1="53.2000000000005" x2="34.0000000000001" y2="43.2000000000004"/>
    <line x1="34.0000000000001" y1="43.2000000000004" x2="31.0999996362358" y2="43.2000000000006"/>
    <line x1="31.0999996362358" y1="43.2000000000006" x2="31.0999996362358" y2="4.00000000000004"/>
    <line x1="31.0999996362358" y1="4.00000000000004" x2="21.0999996362358" y2="4.00000000000004"/>
    <line x1="21.0999996362358" y1="4.00000000000004" x2="21.0999996362358" y2="1.0"/>
    <line x1="21.0999996362358" y1="1.0" x2="11.049999818118" y2="1.0"/>
    <line x1="11.049999818118" y1="1.0" x2="11.049999818118" y2="4.00000000000004"/>
    <line x1="11.049999818118" y1="4.00000000000004" x2="1.00000000000011" y2="4.00000000000004"/>
    <line x1="1.00000000000011" y1="4.00000000000004" x2="1.00000000000011" y2="25.9999995676854"/>
    <line x1="1.00000000000011" y1="25.9999995676854" x2="4.00000011555619" y2="25.9999995676854"/>
    <line x1="4.00000011555619" y1="25.9999995676854" x2="4.00000000000023" y2="42.1999999215474"/>
    <line x1="4.00000000000023" y1="42.1999999215474" x2="1.00000000000011" y2="42.1999999215474"/>
    <line x1="11.0999996362356" y1="48.2000000000004" x2="11.0999996362356" y2="45.1999999999999"/>
    <line x1="11.0999996362356" y1="45.1999999999999" x2="21.0999996362356" y2="45.1999999999999"/>
    <line x1="21.0999996362356" y1="45.1999999999999" x2="21.0999996362356" y2="48.2000000000004"/>
    <line x1="21.0999996362356" y1="48.2000000000004" x2="11.0999996362356" y2="48.2000000000004"/>
  </g>
</svg>
