<?xml version="1.0" standalone="no"?>
<!DOCTYPE svg PUBLIC "-//W3C//DTD SVG 1.1//EN" "http://www.w3.org/Graphics/SVG/1.1/DTD/svg11.dtd">
<svg width="36.2002007876218mm" height="22.2002005757006mm"
 viewBox="0 0 36.2002007876218 22.2002005757006"
 xmlns="http://www.w3.org/2000/svg" version="1.1"
 xmlns:xlink="http://www.w3.org/1999/xlink">
<desc>Output from Flights of Ideas SVG Sketchup Plugin</desc>

  <g id="face0" fill="none" stroke="rgb(0,0,255)" stroke-width="1" stroke-miterlimit="4" stroke-dasharray="none" stroke-linejoin="round" stroke-linecap="round">
    <line x1="10.0001007272471" y1="0.0001" x2="0.000102460251039338" y2="0.0001"/>
    <line x1="0.000102460251039338" y1="0.0001" x2="0.0001" y2="22.2000997020823"/>
    <line x1="0.0001" y1="22.2000997020823" x2="10.0001" y2="22.2001003538618"/>
    <line x1="10.0001" y1="22.2001003538618" x2="10.0001001955339" y2="19.2001003538619"/>
    <line x1="10.0001001955339" y1="19.2001003538619" x2="13.0001001955337" y2="19.2001003538619"/>
    <line x1="13.0001001955337" y1="19.2001003538619" x2="13.0001001749811" y2="22.2001005757006"/>
    <line x1="13.0001001749811" y1="22.2001005757006" x2="23.2001000517121" y2="22.2001004524317"/>
    <line x1="23.2001000517121" y1="22.2001004524317" x2="23.2001000722649" y2="19.200100230593"/>
    <line x1="23.2001000722649" y1="19.200100230593" x2="26.2001000722649" y2="19.200100230593"/>
    <line x1="26.2001000722649" y1="19.200100230593" x2="26.2001000117483" y2="22.200100230593"/>
    <line x1="26.2001000117483" y1="22.200100230593" x2="36.2001001350174" y2="22.2001004323147"/>
    <line x1="36.2001001350174" y1="22.2001004323147" x2="36.2001007876218" y2="0.0001"/>
    <line x1="36.2001007876218" y1="0.0001" x2="26.2001002575653" y2="0.0001"/>
    <line x1="26.2001002575653" y1="0.0001" x2="26.2001000722649" y2="3.00009987673104"/>
    <line x1="26.2001000722649" y1="3.00009987673104" x2="23.2001000722649" y2="3.00009987673104"/>
    <line x1="23.2001000722649" y1="3.00009987673104" x2="23.2001000360092" y2="0.0001"/>
    <line x1="23.2001000360092" y1="0.0001" x2="13.0001001592783" y2="0.0001"/>
    <line x1="13.0001001592783" y1="0.0001" x2="13.0001001955339" y2="3.00009999999994"/>
    <line x1="13.0001001955339" y1="3.00009999999994" x2="10.0001001955339" y2="3.00009999999994"/>
    <line x1="10.0001001955339" y1="3.00009999999994" x2="10.0001007272471" y2="0.0001"/>
    <line x1="32.648989033327" y1="9.21187178619439" x2="32.7001002819214" y2="9.60010035542433"/>
    <line x1="32.7001002819214" y1="9.60010035542433" x2="32.6489890093827" y2="9.9883289215019"/>
    <line x1="32.6489890093827" y1="9.9883289215019" x2="32.4991383644696" y2="10.3501003492271"/>
    <line x1="32.4991383644696" y1="10.3501003492271" x2="32.2607604209926" y2="10.6607605136558"/>
    <line x1="32.2607604209926" y1="10.6607605136558" x2="31.9501002418617" y2="10.8991384379726"/>
    <line x1="31.9501002418617" y1="10.8991384379726" x2="31.5883288048944" y2="11.0489890605733"/>
    <line x1="31.5883288048944" y1="11.0489890605733" x2="31.2001002356644" y2="11.1001003091675"/>
    <line x1="31.2001002356644" y1="11.1001003091675" x2="30.8118716695868" y2="11.0489890366289"/>
    <line x1="30.8118716695868" y1="11.0489890366289" x2="30.4501002418617" y2="10.8991383917157"/>
    <line x1="30.4501002418617" y1="10.8991383917157" x2="30.139440077433" y2="10.6607604482387"/>
    <line x1="30.139440077433" y1="10.6607604482387" x2="29.9010621531162" y2="10.3501002691079"/>
    <line x1="29.9010621531162" y1="10.3501002691079" x2="29.7512115305156" y2="9.98832883214055"/>
    <line x1="29.7512115305156" y1="9.98832883214055" x2="29.7001002819213" y2="9.60010026291064"/>
    <line x1="29.7001002819213" y1="9.60010026291064" x2="29.75121155446" y2="9.21187169683304"/>
    <line x1="29.75121155446" y1="9.21187169683304" x2="29.9010621993731" y2="8.85010026910788"/>
    <line x1="29.9010621993731" y1="8.85010026910788" x2="30.13944014285" y2="8.53944010467913"/>
    <line x1="30.13944014285" y1="8.53944010467913" x2="30.450100321981" y2="8.3010621803624"/>
    <line x1="30.450100321981" y1="8.3010621803624" x2="30.8118717589481" y2="8.15121155776171"/>
    <line x1="30.8118717589481" y1="8.15121155776171" x2="31.2001003281781" y2="8.10010030916746"/>
    <line x1="31.2001003281781" y1="8.10010030916746" x2="31.5883288942557" y2="8.15121158170606"/>
    <line x1="31.5883288942557" y1="8.15121158170606" x2="31.950100321981" y2="8.30106222661922"/>
    <line x1="31.950100321981" y1="8.30106222661922" x2="32.2607604864096" y2="8.53944017009621"/>
    <line x1="32.2607604864096" y1="8.53944017009621" x2="32.4991384107264" y2="8.85010034922706"/>
    <line x1="32.4991384107264" y1="8.85010034922706" x2="32.648989033327" y2="9.21187178619439"/>
    <line x1="3.55121258845898" y1="9.9883275479151" x2="3.50010132789251" y2="9.60009898026129"/>
    <line x1="3.50010132789251" y1="9.60009898026129" x2="3.55121258845898" y2="9.21187041260751"/>
    <line x1="3.55121258845898" y1="9.21187041260751" x2="3.70106322221593" y2="8.85009898026129"/>
    <line x1="3.70106322221593" y1="8.85009898026129" x2="3.93944115611262" y2="8.53943880848149"/>
    <line x1="3.93944115611262" y1="8.53943880848149" x2="4.25010132789251" y2="8.30106087458463"/>
    <line x1="4.25010132789251" y1="8.30106087458463" x2="4.61187276023875" y2="8.15121024082771"/>
    <line x1="4.61187276023875" y1="8.15121024082771" x2="5.00010132789251" y2="8.10009898026129"/>
    <line x1="5.00010132789251" y1="8.10009898026129" x2="5.38832989554626" y2="8.15121024082771"/>
    <line x1="5.38832989554626" y1="8.15121024082771" x2="5.75010132789251" y2="8.30106087458463"/>
    <line x1="5.75010132789251" y1="8.30106087458463" x2="6.06076149967239" y2="8.53943880848149"/>
    <line x1="6.06076149967239" y1="8.53943880848149" x2="6.29913943356919" y2="8.85009898026129"/>
    <line x1="6.29913943356919" y1="8.85009898026129" x2="6.44899006732615" y2="9.21187041260751"/>
    <line x1="6.44899006732615" y1="9.21187041260751" x2="6.50010132789251" y2="9.60009898026129"/>
    <line x1="6.50010132789251" y1="9.60009898026129" x2="6.44899006732603" y2="9.9883275479151"/>
    <line x1="6.44899006732603" y1="9.9883275479151" x2="6.29913943356919" y2="10.3500989802613"/>
    <line x1="6.29913943356919" y1="10.3500989802613" x2="6.06076149967239" y2="10.6607591520411"/>
    <line x1="6.06076149967239" y1="10.6607591520411" x2="5.75010132789251" y2="10.899137085938"/>
    <line x1="5.75010132789251" y1="10.899137085938" x2="5.38832989554626" y2="11.0489877196949"/>
    <line x1="5.38832989554626" y1="11.0489877196949" x2="5.00010132789251" y2="11.1000989802613"/>
    <line x1="5.00010132789251" y1="11.1000989802613" x2="4.61187276023875" y2="11.0489877196949"/>
    <line x1="4.61187276023875" y1="11.0489877196949" x2="4.25010132789251" y2="10.899137085938"/>
    <line x1="4.25010132789251" y1="10.899137085938" x2="3.93944115611262" y2="10.6607591520411"/>
    <line x1="3.93944115611262" y1="10.6607591520411" x2="3.70106322221593" y2="10.3500989802613"/>
    <line x1="3.70106322221593" y1="10.3500989802613" x2="3.55121258845898" y2="9.9883275479151"/>
    <line x1="23.1001000734734" y1="16.1001003102542" x2="13.0001001955342" y2="16.1001003102542"/>
    <line x1="13.0001001955342" y1="16.1001003102542" x2="13.0001001955342" y2="6.00010043231404"/>
    <line x1="13.0001001955342" y1="6.00010043231404" x2="23.1001000734734" y2="6.00010043231404"/>
    <line x1="23.1001000734734" y1="6.00010043231404" x2="23.1001000734734" y2="16.1001003102542"/>
  </g>
</svg>
