<?xml version="1.0" standalone="no"?>
<!DOCTYPE svg PUBLIC "-//W3C//DTD SVG 1.1//EN" "http://www.w3.org/Graphics/SVG/1.1/DTD/svg11.dtd">
<svg width="38.2000007876218mm" height="24.2000008334919mm"
 viewBox="0 0 38.2000007876218 24.2000008334919"
 xmlns="http://www.w3.org/2000/svg" version="1.1"
 xmlns:xlink="http://www.w3.org/1999/xlink">
<desc>Output from Flights of Ideas SVG Sketchup Plugin</desc>

  <g id="face0" fill="none" stroke="rgb(0,0,255)" stroke-width="1" stroke-miterlimit="4" stroke-dasharray="none" stroke-linejoin="round" stroke-linecap="round">
    <line x1="10.0000007272471" y1="1.0" x2="1.00000246025104" y2="1.0"/>
    <line x1="1.00000246025104" y1="1.0" x2="1.0" y2="23.19999987932"/>
    <line x1="1.0" y1="23.19999987932" x2="10.0" y2="23.2000004659216"/>
    <line x1="10.0" y1="23.2000004659216" x2="10.0000001955339" y2="20.2000004659217"/>
    <line x1="10.0000001955339" y1="20.2000004659217" x2="13.0000001955339" y2="20.2000005148051"/>
    <line x1="13.0000001955339" y1="20.2000005148051" x2="13.0000007277395" y2="23.2000008334919"/>
    <line x1="13.0000007277395" y1="23.2000008334919" x2="25.2000000517121" y2="23.2000006365204"/>
    <line x1="25.2000000517121" y1="23.2000006365204" x2="25.2000000722649" y2="20.2000004146817"/>
    <line x1="25.2000000722649" y1="20.2000004146817" x2="28.2000000722649" y2="20.2000004280029"/>
    <line x1="28.2000000722649" y1="20.2000004280029" x2="28.2000000117484" y2="23.200000428003"/>
    <line x1="28.2000000117484" y1="23.200000428003" x2="37.2000001350174" y2="23.2000006095524"/>
    <line x1="37.2000001350174" y1="23.2000006095524" x2="37.2000007876218" y2="1.0"/>
    <line x1="37.2000007876218" y1="1.0" x2="28.2000002575654" y2="1.0"/>
    <line x1="28.2000002575654" y1="1.0" x2="28.2000000722649" y2="4.00000011573562"/>
    <line x1="28.2000000722649" y1="4.00000011573562" x2="25.2000000722649" y2="4.00000004188362"/>
    <line x1="25.2000000722649" y1="4.00000004188362" x2="25.2000000360093" y2="1.0"/>
    <line x1="25.2000000360093" y1="1.0" x2="13.0000001592783" y2="1.0"/>
    <line x1="13.0000001592783" y1="1.0" x2="13.000000195534" y2="4.00000018932283"/>
    <line x1="13.000000195534" y1="4.00000018932283" x2="10.0000001955339" y2="3.99999999999994"/>
    <line x1="10.0000001955339" y1="3.99999999999994" x2="10.0000007272471" y2="1.0"/>
    <line x1="33.6488890333271" y1="10.2117719634321" x2="33.7000002819213" y2="10.6000005326621"/>
    <line x1="33.7000002819213" y1="10.6000005326621" x2="33.6488890093829" y2="10.9882290987397"/>
    <line x1="33.6488890093829" y1="10.9882290987397" x2="33.4990383644696" y2="11.3500005264648"/>
    <line x1="33.4990383644696" y1="11.3500005264648" x2="33.2606604209926" y2="11.6606606908936"/>
    <line x1="33.2606604209926" y1="11.6606606908936" x2="32.9500002418617" y2="11.8990386152103"/>
    <line x1="32.9500002418617" y1="11.8990386152103" x2="32.5882288048945" y2="12.048889237811"/>
    <line x1="32.5882288048945" y1="12.048889237811" x2="32.2000002356644" y2="12.1000004864052"/>
    <line x1="32.2000002356644" y1="12.1000004864052" x2="31.8117716695868" y2="12.0488892138666"/>
    <line x1="31.8117716695868" y1="12.0488892138666" x2="31.4500002418617" y2="11.8990385689535"/>
    <line x1="31.4500002418617" y1="11.8990385689535" x2="31.139340077433" y2="11.6606606254765"/>
    <line x1="31.139340077433" y1="11.6606606254765" x2="30.9009621531162" y2="11.3500004463456"/>
    <line x1="30.9009621531162" y1="11.3500004463456" x2="30.7511115305157" y2="10.9882290093783"/>
    <line x1="30.7511115305157" y1="10.9882290093783" x2="30.7000002819213" y2="10.6000004401484"/>
    <line x1="30.7000002819213" y1="10.6000004401484" x2="30.75111155446" y2="10.2117718740708"/>
    <line x1="30.75111155446" y1="10.2117718740708" x2="30.9009621993731" y2="9.8500004463456"/>
    <line x1="30.9009621993731" y1="9.8500004463456" x2="31.1393401428501" y2="9.53934028191688"/>
    <line x1="31.1393401428501" y1="9.53934028191688" x2="31.450000321981" y2="9.30096235760013"/>
    <line x1="31.450000321981" y1="9.30096235760013" x2="31.8117717589482" y2="9.15111173499943"/>
    <line x1="31.8117717589482" y1="9.15111173499943" x2="32.2000003281781" y2="9.10000048640518"/>
    <line x1="32.2000003281781" y1="9.10000048640518" x2="32.5882288942557" y2="9.15111175894376"/>
    <line x1="32.5882288942557" y1="9.15111175894376" x2="32.950000321981" y2="9.30096240385697"/>
    <line x1="32.950000321981" y1="9.30096240385697" x2="33.2606604864096" y2="9.53934034733396"/>
    <line x1="33.2606604864096" y1="9.53934034733396" x2="33.4990384107264" y2="9.85000052646478"/>
    <line x1="33.4990384107264" y1="9.85000052646478" x2="33.6488890333271" y2="10.2117719634321"/>
    <line x1="4.55111258845898" y1="10.9882277251528" x2="4.50000132789251" y2="10.599999157499"/>
    <line x1="4.50000132789251" y1="10.599999157499" x2="4.55111258845898" y2="10.2117705898452"/>
    <line x1="4.55111258845898" y1="10.2117705898452" x2="4.70096322221593" y2="9.84999915749901"/>
    <line x1="4.70096322221593" y1="9.84999915749901" x2="4.93934115611262" y2="9.53933898571924"/>
    <line x1="4.93934115611262" y1="9.53933898571924" x2="5.25000132789251" y2="9.30096105182236"/>
    <line x1="5.25000132789251" y1="9.30096105182236" x2="5.61177276023875" y2="9.15111041806543"/>
    <line x1="5.61177276023875" y1="9.15111041806543" x2="6.00000132789251" y2="9.09999915749901"/>
    <line x1="6.00000132789251" y1="9.09999915749901" x2="6.38822989554626" y2="9.15111041806543"/>
    <line x1="6.38822989554626" y1="9.15111041806543" x2="6.75000132789262" y2="9.30096105182236"/>
    <line x1="6.75000132789262" y1="9.30096105182236" x2="7.06066149967239" y2="9.53933898571924"/>
    <line x1="7.06066149967239" y1="9.53933898571924" x2="7.29903943356919" y2="9.84999915749901"/>
    <line x1="7.29903943356919" y1="9.84999915749901" x2="7.44889006732615" y2="10.2117705898452"/>
    <line x1="7.44889006732615" y1="10.2117705898452" x2="7.50000132789251" y2="10.599999157499"/>
    <line x1="7.50000132789251" y1="10.599999157499" x2="7.44889006732615" y2="10.9882277251528"/>
    <line x1="7.44889006732615" y1="10.9882277251528" x2="7.29903943356919" y2="11.349999157499"/>
    <line x1="7.29903943356919" y1="11.349999157499" x2="7.06066149967239" y2="11.6606593292788"/>
    <line x1="7.06066149967239" y1="11.6606593292788" x2="6.75000132789262" y2="11.8990372631757"/>
    <line x1="6.75000132789262" y1="11.8990372631757" x2="6.38822989554626" y2="12.0488878969326"/>
    <line x1="6.38822989554626" y1="12.0488878969326" x2="6.00000132789251" y2="12.099999157499"/>
    <line x1="6.00000132789251" y1="12.099999157499" x2="5.61177276023875" y2="12.0488878969326"/>
    <line x1="5.61177276023875" y1="12.0488878969326" x2="5.25000132789251" y2="11.8990372631757"/>
    <line x1="5.25000132789251" y1="11.8990372631757" x2="4.93934115611262" y2="11.6606593292788"/>
    <line x1="4.93934115611262" y1="11.6606593292788" x2="4.70096322221593" y2="11.349999157499"/>
    <line x1="4.70096322221593" y1="11.349999157499" x2="4.55111258845898" y2="10.9882277251528"/>
    <line x1="25.1000000734733" y1="18.100000487492" x2="13.0000001955342" y2="18.100000487492"/>
    <line x1="13.0000001955342" y1="18.100000487492" x2="13.0000001955342" y2="6.00000060955171"/>
    <line x1="13.0000001955342" y1="6.00000060955171" x2="25.1000000734733" y2="6.00000060955171"/>
    <line x1="25.1000000734733" y1="6.00000060955171" x2="25.1000000734733" y2="18.100000487492"/>
  </g>
</svg>
