<?xml version="1.0" standalone="no"?>
<!DOCTYPE svg PUBLIC "-//W3C//DTD SVG 1.1//EN" "http://www.w3.org/Graphics/SVG/1.1/DTD/svg11.dtd">
<svg width="136.0002mm" height="36.0002000000001mm"
 viewBox="0 0 136.0002 36.0002000000001"
 xmlns="http://www.w3.org/2000/svg" version="1.1"
 xmlns:xlink="http://www.w3.org/1999/xlink">
<desc>Output from Flights of Ideas SVG Sketchup Plugin</desc>

  <g id="face0" fill="none" stroke="rgb(0,0,255)" stroke-width="1" stroke-miterlimit="4" stroke-dasharray="none" stroke-linejoin="round" stroke-linecap="round">
    <line x1="3.0001" y1="33.0001" x2="13.0001" y2="33.0001"/>
    <line x1="13.0001" y1="33.0001" x2="13.0001" y2="36.0001"/>
    <line x1="13.0001" y1="36.0001" x2="33.0001" y2="36.0001"/>
    <line x1="33.0001" y1="36.0001" x2="33.0001" y2="33.0001"/>
    <line x1="33.0001" y1="33.0001" x2="66.5001" y2="33.0001"/>
    <line x1="66.5001" y1="33.0001" x2="66.5001" y2="31.0001"/>
    <line x1="66.5001" y1="31.0001" x2="65.2001" y2="31.0000999999999"/>
    <line x1="65.2001" y1="31.0000999999999" x2="65.2001" y2="28.8001"/>
    <line x1="65.2001" y1="28.8001" x2="66.5001" y2="28.8001000000002"/>
    <line x1="66.5001" y1="28.8001000000002" x2="66.5001" y2="25.8001"/>
    <line x1="66.5001" y1="25.8001" x2="69.5001000000001" y2="25.8001000000001"/>
    <line x1="69.5001000000001" y1="25.8001000000001" x2="69.5001000000001" y2="28.8001000000001"/>
    <line x1="69.5001000000001" y1="28.8001000000001" x2="70.8001000000001" y2="28.8001000000001"/>
    <line x1="70.8001000000001" y1="28.8001000000001" x2="70.8001000000001" y2="31.0000999999998"/>
    <line x1="70.8001000000001" y1="31.0000999999998" x2="69.5001000000001" y2="31.0001000000001"/>
    <line x1="69.5001000000001" y1="31.0001000000001" x2="69.5001000000001" y2="33.0001"/>
    <line x1="69.5001000000001" y1="33.0001" x2="103.0001" y2="33.0001"/>
    <line x1="103.0001" y1="33.0001" x2="103.0001" y2="36.0001000000001"/>
    <line x1="103.0001" y1="36.0001000000001" x2="123.0001" y2="36.0000999999998"/>
    <line x1="123.0001" y1="36.0000999999998" x2="123.0001" y2="33.0001"/>
    <line x1="123.0001" y1="33.0001" x2="133.0001" y2="33.0001"/>
    <line x1="133.0001" y1="33.0001" x2="133.0001" y2="23.0001000000002"/>
    <line x1="133.0001" y1="23.0001000000002" x2="136.0001" y2="23.0001000000001"/>
    <line x1="136.0001" y1="23.0001000000001" x2="136.0001" y2="13.0001000000001"/>
    <line x1="136.0001" y1="13.0001000000001" x2="133.0001" y2="13.0001000000001"/>
    <line x1="133.0001" y1="13.0001000000001" x2="133.0001" y2="3.00009999999991"/>
    <line x1="133.0001" y1="3.00009999999991" x2="123.0001" y2="3.00009999999993"/>
    <line x1="123.0001" y1="3.00009999999993" x2="123.0001" y2="0.000100000000042633"/>
    <line x1="123.0001" y1="0.000100000000042633" x2="103.0001" y2="0.0001"/>
    <line x1="103.0001" y1="0.0001" x2="103.0001" y2="3.00009999999993"/>
    <line x1="103.0001" y1="3.00009999999993" x2="69.5001000000001" y2="3.00009999999996"/>
    <line x1="69.5001000000001" y1="3.00009999999996" x2="69.5001000000001" y2="5.00009999999994"/>
    <line x1="69.5001000000001" y1="5.00009999999994" x2="70.8001000000001" y2="5.00009999999994"/>
    <line x1="70.8001000000001" y1="5.00009999999994" x2="70.8001000000001" y2="7.20009999999999"/>
    <line x1="70.8001000000001" y1="7.20009999999999" x2="69.5001000000001" y2="7.20009999999999"/>
    <line x1="69.5001000000001" y1="7.20009999999999" x2="69.5001000000001" y2="10.2000999999999"/>
    <line x1="69.5001000000001" y1="10.2000999999999" x2="66.5001" y2="10.2001"/>
    <line x1="66.5001" y1="10.2001" x2="66.5001" y2="7.20009999999999"/>
    <line x1="66.5001" y1="7.20009999999999" x2="65.2001" y2="7.20009999999997"/>
    <line x1="65.2001" y1="7.20009999999997" x2="65.2001" y2="5.00009999999994"/>
    <line x1="65.2001" y1="5.00009999999994" x2="66.5001" y2="5.00009999999994"/>
    <line x1="66.5001" y1="5.00009999999994" x2="66.5001" y2="3.00009999999996"/>
    <line x1="66.5001" y1="3.00009999999996" x2="33.0001000000001" y2="3.00009999999996"/>
    <line x1="33.0001000000001" y1="3.00009999999996" x2="33.0001000000001" y2="0.0001"/>
    <line x1="33.0001000000001" y1="0.0001" x2="13.0001" y2="0.0001"/>
    <line x1="13.0001" y1="0.0001" x2="13.0001" y2="3.00009999999996"/>
    <line x1="13.0001" y1="3.00009999999996" x2="3.0001" y2="3.00009999999996"/>
    <line x1="3.0001" y1="3.00009999999996" x2="3.0001" y2="13.0000999999999"/>
    <line x1="3.0001" y1="13.0000999999999" x2="0.0001" y2="13.0000999999999"/>
    <line x1="0.0001" y1="13.0000999999999" x2="0.000100000000113687" y2="23.0001"/>
    <line x1="0.000100000000113687" y1="23.0001" x2="3.0001" y2="23.0001"/>
    <line x1="3.0001" y1="23.0001" x2="3.0001" y2="33.0001"/>
  </g>
</svg>
