<?xml version="1.0" standalone="no"?>
<!DOCTYPE svg PUBLIC "-//W3C//DTD SVG 1.1//EN" "http://www.w3.org/Graphics/SVG/1.1/DTD/svg11.dtd">
<svg width="132.0mm" height="32.0000000000001mm"
 viewBox="0 0 132.0 32.0000000000001"
 xmlns="http://www.w3.org/2000/svg" version="1.1"
 xmlns:xlink="http://www.w3.org/1999/xlink">
<desc>Output from Flights of Ideas SVG Sketchup Plugin</desc>

  <g id="face0" fill="none" stroke="rgb(0,0,255)" stroke-width="1" stroke-miterlimit="4" stroke-dasharray="none" stroke-linejoin="round" stroke-linecap="round">
    <line x1="131.0" y1="1.0" x2="6.00000000000011" y2="1.00000000000001"/>
    <line x1="6.00000000000011" y1="1.00000000000001" x2="6.00000000000011" y2="5.99999999999977"/>
    <line x1="6.00000000000011" y1="5.99999999999977" x2="1.0" y2="5.99999999999964"/>
    <line x1="1.0" y1="5.99999999999964" x2="1.0" y2="31.0000000000001"/>
    <line x1="1.0" y1="31.0000000000001" x2="131.0" y2="31.0"/>
    <line x1="131.0" y1="31.0" x2="131.0" y2="1.0"/>
    <line x1="91.0000000000001" y1="25.0" x2="91.0000000000001" y2="5.99999999999994"/>
    <line x1="91.0000000000001" y1="5.99999999999994" x2="106.0" y2="5.99999999999996"/>
    <line x1="106.0" y1="5.99999999999996" x2="106.0" y2="25.0"/>
    <line x1="106.0" y1="25.0" x2="91.0000000000001" y2="25.0"/>
    <line x1="122.448888739434" y1="15.6117714323463" x2="122.5" y2="16.0"/>
    <line x1="122.5" y1="16.0" x2="122.448888739434" y2="16.3882285676537"/>
    <line x1="122.448888739434" y1="16.3882285676537" x2="122.299038105677" y2="16.75"/>
    <line x1="122.299038105677" y1="16.75" x2="122.06066017178" y2="17.0606601717798"/>
    <line x1="122.06066017178" y1="17.0606601717798" x2="121.75" y2="17.2990381056766"/>
    <line x1="121.75" y1="17.2990381056766" x2="121.388228567654" y2="17.4488887394335"/>
    <line x1="121.388228567654" y1="17.4488887394335" x2="121.0" y2="17.5"/>
    <line x1="121.0" y1="17.5" x2="120.611771432346" y2="17.4488887394335"/>
    <line x1="120.611771432346" y1="17.4488887394335" x2="120.25" y2="17.2990381056766"/>
    <line x1="120.25" y1="17.2990381056766" x2="119.93933982822" y2="17.0606601717798"/>
    <line x1="119.93933982822" y1="17.0606601717798" x2="119.700961894323" y2="16.75"/>
    <line x1="119.700961894323" y1="16.75" x2="119.551111260566" y2="16.3882285676537"/>
    <line x1="119.551111260566" y1="16.3882285676537" x2="119.5" y2="16.0"/>
    <line x1="119.5" y1="16.0" x2="119.551111260566" y2="15.6117714323463"/>
    <line x1="119.551111260566" y1="15.6117714323463" x2="119.700961894323" y2="15.25"/>
    <line x1="119.700961894323" y1="15.25" x2="119.93933982822" y2="14.9393398282202"/>
    <line x1="119.93933982822" y1="14.9393398282202" x2="120.25" y2="14.7009618943234"/>
    <line x1="120.25" y1="14.7009618943234" x2="120.611771432346" y2="14.5511112605663"/>
    <line x1="120.611771432346" y1="14.5511112605663" x2="121.0" y2="14.5"/>
    <line x1="121.0" y1="14.5" x2="121.388228567654" y2="14.5511112605663"/>
    <line x1="121.388228567654" y1="14.5511112605663" x2="121.75" y2="14.7009618943234"/>
    <line x1="121.75" y1="14.7009618943234" x2="122.06066017178" y2="14.9393398282202"/>
    <line x1="122.06066017178" y1="14.9393398282202" x2="122.299038105677" y2="15.25"/>
    <line x1="122.299038105677" y1="15.25" x2="122.448888739434" y2="15.6117714323463"/>
    <line x1="82.4488887394335" y1="15.1117714323462" x2="82.5000000000001" y2="15.5"/>
    <line x1="82.5000000000001" y1="15.5" x2="82.4488887394338" y2="15.8882285676538"/>
    <line x1="82.4488887394338" y1="15.8882285676538" x2="82.2990381056766" y2="16.25"/>
    <line x1="82.2990381056766" y1="16.25" x2="82.0606601717799" y2="16.5606601717797"/>
    <line x1="82.0606601717799" y1="16.5606601717797" x2="81.75" y2="16.7990381056767"/>
    <line x1="81.75" y1="16.7990381056767" x2="81.3882285676538" y2="16.9488887394337"/>
    <line x1="81.3882285676538" y1="16.9488887394337" x2="81.0" y2="17.0"/>
    <line x1="81.0" y1="17.0" x2="80.6117714323464" y2="16.9488887394336"/>
    <line x1="80.6117714323464" y1="16.9488887394336" x2="80.25" y2="16.7990381056767"/>
    <line x1="80.25" y1="16.7990381056767" x2="79.9393398282202" y2="16.5606601717797"/>
    <line x1="79.9393398282202" y1="16.5606601717797" x2="79.7009618943234" y2="16.25"/>
    <line x1="79.7009618943234" y1="16.25" x2="79.5511112605664" y2="15.8882285676539"/>
    <line x1="79.5511112605664" y1="15.8882285676539" x2="79.5" y2="15.5"/>
    <line x1="79.5" y1="15.5" x2="79.5511112605664" y2="15.1117714323462"/>
    <line x1="79.5511112605664" y1="15.1117714323462" x2="79.7009618943234" y2="14.75"/>
    <line x1="79.7009618943234" y1="14.75" x2="79.9393398282202" y2="14.4393398282202"/>
    <line x1="79.9393398282202" y1="14.4393398282202" x2="80.25" y2="14.2009618943233"/>
    <line x1="80.25" y1="14.2009618943233" x2="80.6117714323464" y2="14.0511112605664"/>
    <line x1="80.6117714323464" y1="14.0511112605664" x2="81.0" y2="13.9999999999999"/>
    <line x1="81.0" y1="13.9999999999999" x2="81.3882285676538" y2="14.0511112605664"/>
    <line x1="81.3882285676538" y1="14.0511112605664" x2="81.75" y2="14.2009618943234"/>
    <line x1="81.75" y1="14.2009618943234" x2="82.0606601717799" y2="14.4393398282201"/>
    <line x1="82.0606601717799" y1="14.4393398282201" x2="82.2990381056766" y2="14.7499999999999"/>
    <line x1="82.2990381056766" y1="14.7499999999999" x2="82.4488887394335" y2="15.1117714323462"/>
    <line x1="11.7764571353076" y1="18.8977774788673" x2="11.0000000000001" y2="19.0"/>
    <line x1="11.0000000000001" y1="19.0" x2="10.2235428646925" y2="18.8977774788673"/>
    <line x1="10.2235428646925" y1="18.8977774788673" x2="9.5" y2="18.5980762113533"/>
    <line x1="9.5" y1="18.5980762113533" x2="8.87867965644045" y2="18.1213203435596"/>
    <line x1="8.87867965644045" y1="18.1213203435596" x2="8.40192378864674" y2="17.5000000000001"/>
    <line x1="8.40192378864674" y1="17.5000000000001" x2="8.10222252113283" y2="16.7764571353077"/>
    <line x1="8.10222252113283" y1="16.7764571353077" x2="8.0" y2="15.9999999999999"/>
    <line x1="8.0" y1="15.9999999999999" x2="8.10222252113283" y2="15.2235428646925"/>
    <line x1="8.10222252113283" y1="15.2235428646925" x2="8.40192378864674" y2="14.4999999999999"/>
    <line x1="8.40192378864674" y1="14.4999999999999" x2="8.87867965644045" y2="13.8786796564405"/>
    <line x1="8.87867965644045" y1="13.8786796564405" x2="9.5" y2="13.4019237886468"/>
    <line x1="9.5" y1="13.4019237886468" x2="10.2235428646925" y2="13.1022225211328"/>
    <line x1="10.2235428646925" y1="13.1022225211328" x2="11.0000000000001" y2="13.0"/>
    <line x1="11.0000000000001" y1="13.0" x2="11.7764571353075" y2="13.1022225211327"/>
    <line x1="11.7764571353075" y1="13.1022225211327" x2="12.5000000000001" y2="13.4019237886467"/>
    <line x1="12.5000000000001" y1="13.4019237886467" x2="13.1213203435597" y2="13.8786796564404"/>
    <line x1="13.1213203435597" y1="13.8786796564404" x2="13.5980762113534" y2="14.4999999999999"/>
    <line x1="13.5980762113534" y1="14.4999999999999" x2="13.8977774788673" y2="15.2235428646925"/>
    <line x1="13.8977774788673" y1="15.2235428646925" x2="14.0000000000001" y2="16.0000000000001"/>
    <line x1="14.0000000000001" y1="16.0000000000001" x2="13.8977774788673" y2="16.7764571353077"/>
    <line x1="13.8977774788673" y1="16.7764571353077" x2="13.5980762113534" y2="17.5000000000001"/>
    <line x1="13.5980762113534" y1="17.5000000000001" x2="13.1213203435597" y2="18.1213203435597"/>
    <line x1="13.1213203435597" y1="18.1213203435597" x2="12.5000000000001" y2="18.5980762113534"/>
    <line x1="12.5000000000001" y1="18.5980762113534" x2="11.7764571353076" y2="18.8977774788673"/>
  </g>
</svg>
