<?xml version="1.0" standalone="no"?>
<!DOCTYPE svg PUBLIC "-//W3C//DTD SVG 1.1//EN" "http://www.w3.org/Graphics/SVG/1.1/DTD/svg11.dtd">
<svg width="130.0002mm" height="30.0002000000001mm"
 viewBox="0 0 130.0002 30.0002000000001"
 xmlns="http://www.w3.org/2000/svg" version="1.1"
 xmlns:xlink="http://www.w3.org/1999/xlink">
<desc>Output from Flights of Ideas SVG Sketchup Plugin</desc>

  <g id="face0" fill="none" stroke="rgb(0,0,255)" stroke-width="1" stroke-miterlimit="4" stroke-dasharray="none" stroke-linejoin="round" stroke-linecap="round">
    <line x1="130.0001" y1="0.0001" x2="5.00010000000011" y2="0.000100000000014211"/>
    <line x1="5.00010000000011" y1="0.000100000000014211" x2="5.00010000000011" y2="5.00009999999977"/>
    <line x1="5.00010000000011" y1="5.00009999999977" x2="0.0001" y2="5.00009999999964"/>
    <line x1="0.0001" y1="5.00009999999964" x2="0.0001" y2="30.0001000000001"/>
    <line x1="0.0001" y1="30.0001000000001" x2="130.0001" y2="30.0001"/>
    <line x1="130.0001" y1="30.0001" x2="130.0001" y2="0.0001"/>
    <line x1="90.0001000000001" y1="24.0001" x2="90.0001000000001" y2="5.00009999999994"/>
    <line x1="90.0001000000001" y1="5.00009999999994" x2="105.0001" y2="5.00009999999996"/>
    <line x1="105.0001" y1="5.00009999999996" x2="105.0001" y2="24.0001"/>
    <line x1="105.0001" y1="24.0001" x2="90.0001000000001" y2="24.0001"/>
    <line x1="121.448988739434" y1="14.6118714323463" x2="121.5001" y2="15.0001"/>
    <line x1="121.5001" y1="15.0001" x2="121.448988739434" y2="15.3883285676537"/>
    <line x1="121.448988739434" y1="15.3883285676537" x2="121.299138105677" y2="15.7501"/>
    <line x1="121.299138105677" y1="15.7501" x2="121.06076017178" y2="16.0607601717798"/>
    <line x1="121.06076017178" y1="16.0607601717798" x2="120.7501" y2="16.2991381056766"/>
    <line x1="120.7501" y1="16.2991381056766" x2="120.388328567654" y2="16.4489887394335"/>
    <line x1="120.388328567654" y1="16.4489887394335" x2="120.0001" y2="16.5001"/>
    <line x1="120.0001" y1="16.5001" x2="119.611871432346" y2="16.4489887394335"/>
    <line x1="119.611871432346" y1="16.4489887394335" x2="119.2501" y2="16.2991381056766"/>
    <line x1="119.2501" y1="16.2991381056766" x2="118.93943982822" y2="16.0607601717798"/>
    <line x1="118.93943982822" y1="16.0607601717798" x2="118.701061894323" y2="15.7501"/>
    <line x1="118.701061894323" y1="15.7501" x2="118.551211260566" y2="15.3883285676537"/>
    <line x1="118.551211260566" y1="15.3883285676537" x2="118.5001" y2="15.0001"/>
    <line x1="118.5001" y1="15.0001" x2="118.551211260566" y2="14.6118714323463"/>
    <line x1="118.551211260566" y1="14.6118714323463" x2="118.701061894323" y2="14.2501"/>
    <line x1="118.701061894323" y1="14.2501" x2="118.93943982822" y2="13.9394398282202"/>
    <line x1="118.93943982822" y1="13.9394398282202" x2="119.2501" y2="13.7010618943234"/>
    <line x1="119.2501" y1="13.7010618943234" x2="119.611871432346" y2="13.5512112605663"/>
    <line x1="119.611871432346" y1="13.5512112605663" x2="120.0001" y2="13.5001"/>
    <line x1="120.0001" y1="13.5001" x2="120.388328567654" y2="13.5512112605663"/>
    <line x1="120.388328567654" y1="13.5512112605663" x2="120.7501" y2="13.7010618943234"/>
    <line x1="120.7501" y1="13.7010618943234" x2="121.06076017178" y2="13.9394398282202"/>
    <line x1="121.06076017178" y1="13.9394398282202" x2="121.299138105677" y2="14.2501"/>
    <line x1="121.299138105677" y1="14.2501" x2="121.448988739434" y2="14.6118714323463"/>
    <line x1="81.4489887394335" y1="14.1118714323462" x2="81.5001000000001" y2="14.5001"/>
    <line x1="81.5001000000001" y1="14.5001" x2="81.4489887394338" y2="14.8883285676538"/>
    <line x1="81.4489887394338" y1="14.8883285676538" x2="81.2991381056766" y2="15.2501"/>
    <line x1="81.2991381056766" y1="15.2501" x2="81.0607601717799" y2="15.5607601717797"/>
    <line x1="81.0607601717799" y1="15.5607601717797" x2="80.7501" y2="15.7991381056767"/>
    <line x1="80.7501" y1="15.7991381056767" x2="80.3883285676538" y2="15.9489887394337"/>
    <line x1="80.3883285676538" y1="15.9489887394337" x2="80.0001" y2="16.0001"/>
    <line x1="80.0001" y1="16.0001" x2="79.6118714323464" y2="15.9489887394336"/>
    <line x1="79.6118714323464" y1="15.9489887394336" x2="79.2501" y2="15.7991381056767"/>
    <line x1="79.2501" y1="15.7991381056767" x2="78.9394398282202" y2="15.5607601717797"/>
    <line x1="78.9394398282202" y1="15.5607601717797" x2="78.7010618943234" y2="15.2501"/>
    <line x1="78.7010618943234" y1="15.2501" x2="78.5512112605664" y2="14.8883285676539"/>
    <line x1="78.5512112605664" y1="14.8883285676539" x2="78.5001" y2="14.5001"/>
    <line x1="78.5001" y1="14.5001" x2="78.5512112605664" y2="14.1118714323462"/>
    <line x1="78.5512112605664" y1="14.1118714323462" x2="78.7010618943234" y2="13.7501"/>
    <line x1="78.7010618943234" y1="13.7501" x2="78.9394398282202" y2="13.4394398282202"/>
    <line x1="78.9394398282202" y1="13.4394398282202" x2="79.2501" y2="13.2010618943233"/>
    <line x1="79.2501" y1="13.2010618943233" x2="79.6118714323464" y2="13.0512112605664"/>
    <line x1="79.6118714323464" y1="13.0512112605664" x2="80.0001" y2="13.0000999999999"/>
    <line x1="80.0001" y1="13.0000999999999" x2="80.3883285676538" y2="13.0512112605664"/>
    <line x1="80.3883285676538" y1="13.0512112605664" x2="80.7501" y2="13.2010618943234"/>
    <line x1="80.7501" y1="13.2010618943234" x2="81.0607601717799" y2="13.4394398282201"/>
    <line x1="81.0607601717799" y1="13.4394398282201" x2="81.2991381056766" y2="13.7500999999999"/>
    <line x1="81.2991381056766" y1="13.7500999999999" x2="81.4489887394335" y2="14.1118714323462"/>
    <line x1="8.55121126056636" y1="15.3883285676538" x2="8.5001" y2="15.0000999999999"/>
    <line x1="8.5001" y1="15.0000999999999" x2="8.55121126056636" y2="14.6118714323464"/>
    <line x1="8.55121126056636" y1="14.6118714323464" x2="8.70106189432331" y2="14.2501000000001"/>
    <line x1="8.70106189432331" y1="14.2501000000001" x2="8.93943982822023" y2="13.9394398282203"/>
    <line x1="8.93943982822023" y1="13.9394398282203" x2="9.25010000000011" y2="13.7010618943236"/>
    <line x1="9.25010000000011" y1="13.7010618943236" x2="9.61187143234613" y2="13.5512112605663"/>
    <line x1="9.61187143234613" y1="13.5512112605663" x2="10.0001000000001" y2="13.5001"/>
    <line x1="10.0001000000001" y1="13.5001" x2="10.3883285676538" y2="13.5512112605665"/>
    <line x1="10.3883285676538" y1="13.5512112605665" x2="10.7501000000001" y2="13.7010618943235"/>
    <line x1="10.7501000000001" y1="13.7010618943235" x2="11.0607601717799" y2="13.9394398282201"/>
    <line x1="11.0607601717799" y1="13.9394398282201" x2="11.2991381056767" y2="14.2501"/>
    <line x1="11.2991381056767" y1="14.2501" x2="11.4489887394336" y2="14.6118714323463"/>
    <line x1="11.4489887394336" y1="14.6118714323463" x2="11.5001000000001" y2="15.0000999999999"/>
    <line x1="11.5001000000001" y1="15.0000999999999" x2="11.4489887394336" y2="15.3883285676537"/>
    <line x1="11.4489887394336" y1="15.3883285676537" x2="11.2991381056767" y2="15.7501"/>
    <line x1="11.2991381056767" y1="15.7501" x2="11.0607601717799" y2="16.0607601717797"/>
    <line x1="11.0607601717799" y1="16.0607601717797" x2="10.7501000000001" y2="16.2991381056766"/>
    <line x1="10.7501000000001" y1="16.2991381056766" x2="10.3883285676538" y2="16.4489887394335"/>
    <line x1="10.3883285676538" y1="16.4489887394335" x2="10.0001000000001" y2="16.5001"/>
    <line x1="10.0001000000001" y1="16.5001" x2="9.61187143234613" y2="16.4489887394336"/>
    <line x1="9.61187143234613" y1="16.4489887394336" x2="9.25010000000011" y2="16.2991381056765"/>
    <line x1="9.25010000000011" y1="16.2991381056765" x2="8.93943982822023" y2="16.0607601717799"/>
    <line x1="8.93943982822023" y1="16.0607601717799" x2="8.70106189432331" y2="15.7501000000001"/>
    <line x1="8.70106189432331" y1="15.7501000000001" x2="8.55121126056636" y2="15.3883285676538"/>
  </g>
</svg>
