<?xml version="1.0" standalone="no"?>
<!DOCTYPE svg PUBLIC "-//W3C//DTD SVG 1.1//EN" "http://www.w3.org/Graphics/SVG/1.1/DTD/svg11.dtd">
<svg width="20.199999876731mm" height="38.0999996362356mm"
 viewBox="0 0 20.199999876731 38.0999996362356"
 xmlns="http://www.w3.org/2000/svg" version="1.1"
 xmlns:xlink="http://www.w3.org/1999/xlink">
<desc>Output from Flights of Ideas SVG Sketchup Plugin</desc>

  <g id="face0" fill="none" stroke="rgb(0,0,255)" stroke-width="1" stroke-miterlimit="4" stroke-dasharray="none" stroke-linejoin="round" stroke-linecap="round">
    <line x1="5.0" y1="4.00000000000006" x2="1.0" y2="4.00000000000006"/>
    <line x1="1.0" y1="4.00000000000006" x2="1.0" y2="14.0499998181179"/>
    <line x1="1.0" y1="14.0499998181179" x2="4.0" y2="14.0499998181179"/>
    <line x1="4.0" y1="14.0499998181179" x2="4.0" y2="24.0999996362357"/>
    <line x1="4.0" y1="24.0999996362357" x2="1.0" y2="24.0999996362357"/>
    <line x1="1.0" y1="24.0999996362357" x2="1.0" y2="34.0999996362358"/>
    <line x1="1.0" y1="34.0999996362358" x2="3.949999876731" y2="34.0999996362357"/>
    <line x1="3.949999876731" y1="34.0999996362357" x2="3.94999987673089" y2="37.0999996362356"/>
    <line x1="3.94999987673089" y1="37.0999996362356" x2="15.949999876731" y2="37.0999996362356"/>
    <line x1="15.949999876731" y1="37.0999996362356" x2="15.949999876731" y2="34.0999996362357"/>
    <line x1="15.949999876731" y1="34.0999996362357" x2="19.199999876731" y2="34.0999996362358"/>
    <line x1="19.199999876731" y1="34.0999996362358" x2="19.199999876731" y2="24.0999996362357"/>
    <line x1="19.199999876731" y1="24.0999996362357" x2="16.199999876731" y2="24.0999996362357"/>
    <line x1="16.199999876731" y1="24.0999996362357" x2="16.199999876731" y2="14.0499998181179"/>
    <line x1="16.199999876731" y1="14.0499998181179" x2="19.199999876731" y2="14.0499998181179"/>
    <line x1="19.199999876731" y1="14.0499998181179" x2="19.199999876731" y2="4.00000000000006"/>
    <line x1="19.199999876731" y1="4.00000000000006" x2="15.199999876731" y2="4.00000000000006"/>
    <line x1="15.199999876731" y1="4.00000000000006" x2="15.199999876731" y2="1.0"/>
    <line x1="15.199999876731" y1="1.0" x2="5.0" y2="1.0"/>
    <line x1="5.0" y1="1.0" x2="5.0" y2="4.00000000000006"/>
    <line x1="12.3648144424536" y1="18.4029522053615" x2="12.449999876731" y2="19.0499998181178"/>
    <line x1="12.449999876731" y1="19.0499998181178" x2="12.3648144424536" y2="19.6970474308741"/>
    <line x1="12.3648144424536" y1="19.6970474308741" x2="12.1150633861921" y2="20.2999998181178"/>
    <line x1="12.1150633861921" y1="20.2999998181178" x2="11.7177668296973" y2="20.8177667710842"/>
    <line x1="11.7177668296973" y1="20.8177667710842" x2="11.199999876731" y2="21.2150633275789"/>
    <line x1="11.199999876731" y1="21.2150633275789" x2="10.5970474894873" y2="21.4648143838405"/>
    <line x1="10.5970474894873" y1="21.4648143838405" x2="9.94999987673089" y2="21.5499998181178"/>
    <line x1="9.94999987673089" y1="21.5499998181178" x2="9.3029522639747" y2="21.4648143838405"/>
    <line x1="9.3029522639747" y1="21.4648143838405" x2="8.699999876731" y2="21.2150633275789"/>
    <line x1="8.699999876731" y1="21.2150633275789" x2="8.18223292376467" y2="20.8177667710842"/>
    <line x1="8.18223292376467" y1="20.8177667710842" x2="7.78493636726989" y2="20.2999998181178"/>
    <line x1="7.78493636726989" y1="20.2999998181178" x2="7.53518531100826" y2="19.6970474308741"/>
    <line x1="7.53518531100826" y1="19.6970474308741" x2="7.449999876731" y2="19.0499998181178"/>
    <line x1="7.449999876731" y1="19.0499998181178" x2="7.53518531100826" y2="18.4029522053615"/>
    <line x1="7.53518531100826" y1="18.4029522053615" x2="7.78493636726989" y2="17.7999998181178"/>
    <line x1="7.78493636726989" y1="17.7999998181178" x2="8.18223292376467" y2="17.2822328651514"/>
    <line x1="8.18223292376467" y1="17.2822328651514" x2="8.699999876731" y2="16.8849363086568"/>
    <line x1="8.699999876731" y1="16.8849363086568" x2="9.3029522639747" y2="16.6351852523952"/>
    <line x1="9.3029522639747" y1="16.6351852523952" x2="9.94999987673089" y2="16.5499998181178"/>
    <line x1="9.94999987673089" y1="16.5499998181178" x2="10.5970474894873" y2="16.6351852523952"/>
    <line x1="10.5970474894873" y1="16.6351852523952" x2="11.199999876731" y2="16.8849363086568"/>
    <line x1="11.199999876731" y1="16.8849363086568" x2="11.7177668296973" y2="17.2822328651514"/>
    <line x1="11.7177668296973" y1="17.2822328651514" x2="12.1150633861921" y2="17.7999998181178"/>
    <line x1="12.1150633861921" y1="17.7999998181178" x2="12.3648144424536" y2="18.4029522053615"/>
  </g>
</svg>
