<?xml version="1.0" standalone="no"?>
<!DOCTYPE svg PUBLIC "-//W3C//DTD SVG 1.1//EN" "http://www.w3.org/Graphics/SVG/1.1/DTD/svg11.dtd">
<svg width="16.2001998767311mm" height="36.1001996362356mm"
 viewBox="0 0 16.2001998767311 36.1001996362356"
 xmlns="http://www.w3.org/2000/svg" version="1.1"
 xmlns:xlink="http://www.w3.org/1999/xlink">
<desc>Output from Flights of Ideas SVG Sketchup Plugin</desc>

  <g id="face0" fill="none" stroke="rgb(0,0,255)" stroke-width="1" stroke-miterlimit="4" stroke-dasharray="none" stroke-linejoin="round" stroke-linecap="round">
    <line x1="3.00010000000011" y1="3.00010000000006" x2="0.0001" y2="3.00010000000006"/>
    <line x1="0.0001" y1="3.00010000000006" x2="0.0001" y2="13.0500998181179"/>
    <line x1="0.0001" y1="13.0500998181179" x2="3.00010000000011" y2="13.0500998181179"/>
    <line x1="3.00010000000011" y1="13.0500998181179" x2="3.00010000000011" y2="23.1000996362357"/>
    <line x1="3.00010000000011" y1="23.1000996362357" x2="0.0001" y2="23.1000996362357"/>
    <line x1="0.0001" y1="23.1000996362357" x2="0.0001" y2="33.1000996362358"/>
    <line x1="0.0001" y1="33.1000996362358" x2="2.95009987673111" y2="33.1000996362357"/>
    <line x1="2.95009987673111" y1="33.1000996362357" x2="2.95009987673111" y2="36.1000996362356"/>
    <line x1="2.95009987673111" y1="36.1000996362356" x2="12.9500998767311" y2="36.1000996362356"/>
    <line x1="12.9500998767311" y1="36.1000996362356" x2="12.9500998767311" y2="33.1000996362357"/>
    <line x1="12.9500998767311" y1="33.1000996362357" x2="16.2000998767311" y2="33.1000996362358"/>
    <line x1="16.2000998767311" y1="33.1000996362358" x2="16.2000998767311" y2="23.1000996362357"/>
    <line x1="16.2000998767311" y1="23.1000996362357" x2="13.2000998767311" y2="23.1000996362357"/>
    <line x1="13.2000998767311" y1="23.1000996362357" x2="13.2000998767311" y2="13.0500998181179"/>
    <line x1="13.2000998767311" y1="13.0500998181179" x2="16.2000998767311" y2="13.0500998181179"/>
    <line x1="16.2000998767311" y1="13.0500998181179" x2="16.2000998767311" y2="3.00010000000006"/>
    <line x1="16.2000998767311" y1="3.00010000000006" x2="13.2000998767311" y2="3.00010000000006"/>
    <line x1="13.2000998767311" y1="3.00010000000006" x2="13.2000998767311" y2="0.0001"/>
    <line x1="13.2000998767311" y1="0.0001" x2="3.00010000000011" y2="0.0001"/>
    <line x1="3.00010000000011" y1="0.0001" x2="3.00010000000011" y2="3.00010000000006"/>
    <line x1="10.3649144424537" y1="17.4030522053615" x2="10.4500998767311" y2="18.0500998181178"/>
    <line x1="10.4500998767311" y1="18.0500998181178" x2="10.3649144424537" y2="18.6971474308741"/>
    <line x1="10.3649144424537" y1="18.6971474308741" x2="10.1151633861922" y2="19.3000998181178"/>
    <line x1="10.1151633861922" y1="19.3000998181178" x2="9.71786682969744" y2="19.8178667710842"/>
    <line x1="9.71786682969744" y1="19.8178667710842" x2="9.20009987673111" y2="20.2151633275789"/>
    <line x1="9.20009987673111" y1="20.2151633275789" x2="8.59714748948741" y2="20.4649143838405"/>
    <line x1="8.59714748948741" y1="20.4649143838405" x2="7.950099876731" y2="20.5500998181178"/>
    <line x1="7.950099876731" y1="20.5500998181178" x2="7.30305226397482" y2="20.4649143838405"/>
    <line x1="7.30305226397482" y1="20.4649143838405" x2="6.70009987673111" y2="20.2151633275789"/>
    <line x1="6.70009987673111" y1="20.2151633275789" x2="6.18233292376479" y2="19.8178667710842"/>
    <line x1="6.18233292376479" y1="19.8178667710842" x2="5.78503636727001" y2="19.3000998181178"/>
    <line x1="5.78503636727001" y1="19.3000998181178" x2="5.53528531100838" y2="18.6971474308741"/>
    <line x1="5.53528531100838" y1="18.6971474308741" x2="5.45009987673111" y2="18.0500998181178"/>
    <line x1="5.45009987673111" y1="18.0500998181178" x2="5.53528531100838" y2="17.4030522053615"/>
    <line x1="5.53528531100838" y1="17.4030522053615" x2="5.78503636727001" y2="16.8000998181178"/>
    <line x1="5.78503636727001" y1="16.8000998181178" x2="6.18233292376479" y2="16.2823328651514"/>
    <line x1="6.18233292376479" y1="16.2823328651514" x2="6.70009987673111" y2="15.8850363086568"/>
    <line x1="6.70009987673111" y1="15.8850363086568" x2="7.30305226397482" y2="15.6352852523952"/>
    <line x1="7.30305226397482" y1="15.6352852523952" x2="7.950099876731" y2="15.5500998181178"/>
    <line x1="7.950099876731" y1="15.5500998181178" x2="8.59714748948741" y2="15.6352852523952"/>
    <line x1="8.59714748948741" y1="15.6352852523952" x2="9.20009987673111" y2="15.8850363086568"/>
    <line x1="9.20009987673111" y1="15.8850363086568" x2="9.71786682969744" y2="16.2823328651514"/>
    <line x1="9.71786682969744" y1="16.2823328651514" x2="10.1151633861922" y2="16.8000998181178"/>
    <line x1="10.1151633861922" y1="16.8000998181178" x2="10.3649144424537" y2="17.4030522053615"/>
  </g>
</svg>
