<?xml version="1.0" standalone="no"?>
<!DOCTYPE svg PUBLIC "-//W3C//DTD SVG 1.1//EN" "http://www.w3.org/Graphics/SVG/1.1/DTD/svg11.dtd">
<svg width="36.0002000000001mm" height="196.0002mm"
 viewBox="0 0 36.0002000000001 196.0002"
 xmlns="http://www.w3.org/2000/svg" version="1.1"
 xmlns:xlink="http://www.w3.org/1999/xlink">
<desc>Output from Flights of Ideas SVG Sketchup Plugin</desc>

  <g id="face0" fill="none" stroke="rgb(0,0,255)" stroke-width="1" stroke-miterlimit="4" stroke-dasharray="none" stroke-linejoin="round" stroke-linecap="round">
    <line x1="3.0001" y1="0.0001" x2="3.0001" y2="17.0000999999999"/>
    <line x1="3.0001" y1="17.0000999999999" x2="5.20010000000005" y2="17.0000999999999"/>
    <line x1="5.20010000000005" y1="17.0000999999999" x2="5.20010000000005" y2="15.7000999999999"/>
    <line x1="5.20010000000005" y1="15.7000999999999" x2="7.40009999999998" y2="15.7000999999999"/>
    <line x1="7.40009999999998" y1="15.7000999999999" x2="7.40009999999998" y2="17.0000999999999"/>
    <line x1="7.40009999999998" y1="17.0000999999999" x2="10.4001000000001" y2="17.0000999999999"/>
    <line x1="10.4001000000001" y1="17.0000999999999" x2="10.4001000000001" y2="20.0001"/>
    <line x1="10.4001000000001" y1="20.0001" x2="7.40009999999998" y2="20.0001"/>
    <line x1="7.40009999999998" y1="20.0001" x2="7.40009999999998" y2="21.3001"/>
    <line x1="7.40009999999998" y1="21.3001" x2="5.0001" y2="21.3001"/>
    <line x1="5.0001" y1="21.3001" x2="5.0001" y2="20.0001"/>
    <line x1="5.0001" y1="20.0001" x2="3.0001" y2="20.0001"/>
    <line x1="3.0001" y1="20.0001" x2="3.0001" y2="30.0000999999999"/>
    <line x1="3.0001" y1="30.0000999999999" x2="0.0001" y2="30.0000999999999"/>
    <line x1="0.0001" y1="30.0000999999999" x2="0.0001" y2="50.0001"/>
    <line x1="0.0001" y1="50.0001" x2="3.0001" y2="50.0001"/>
    <line x1="3.0001" y1="50.0001" x2="3.0001" y2="143.0001"/>
    <line x1="3.0001" y1="143.0001" x2="5.0001" y2="143.0001"/>
    <line x1="5.0001" y1="143.0001" x2="5.0001" y2="141.7001"/>
    <line x1="5.0001" y1="141.7001" x2="7.20010000000005" y2="141.7001"/>
    <line x1="7.20010000000005" y1="141.7001" x2="7.20010000000005" y2="143.0001"/>
    <line x1="7.20010000000005" y1="143.0001" x2="10.2001" y2="143.0001"/>
    <line x1="10.2001" y1="143.0001" x2="10.2001" y2="146.0001"/>
    <line x1="10.2001" y1="146.0001" x2="7.20010000000005" y2="146.0001"/>
    <line x1="7.20010000000005" y1="146.0001" x2="7.20010000000005" y2="147.3001"/>
    <line x1="7.20010000000005" y1="147.3001" x2="5.0001" y2="147.3001"/>
    <line x1="5.0001" y1="147.3001" x2="5.0001" y2="146.0001"/>
    <line x1="5.0001" y1="146.0001" x2="3.0001" y2="146.0001"/>
    <line x1="3.0001" y1="146.0001" x2="3.0001" y2="156.0001"/>
    <line x1="3.0001" y1="156.0001" x2="0.000100000000113687" y2="156.0001"/>
    <line x1="0.000100000000113687" y1="156.0001" x2="0.000100000000113687" y2="186.0001"/>
    <line x1="0.000100000000113687" y1="186.0001" x2="3.0001" y2="186.0001"/>
    <line x1="3.0001" y1="186.0001" x2="3.0001" y2="196.0001"/>
    <line x1="3.0001" y1="196.0001" x2="33.0001000000001" y2="196.0001"/>
    <line x1="33.0001000000001" y1="196.0001" x2="33.0001000000001" y2="186.0001"/>
    <line x1="33.0001000000001" y1="186.0001" x2="36.0001" y2="186.0001"/>
    <line x1="36.0001" y1="186.0001" x2="36.0001000000001" y2="156.0001"/>
    <line x1="36.0001000000001" y1="156.0001" x2="33.0001000000001" y2="156.0001"/>
    <line x1="33.0001000000001" y1="156.0001" x2="33.0001000000001" y2="146.0001"/>
    <line x1="33.0001000000001" y1="146.0001" x2="31.0001000000001" y2="146.0001"/>
    <line x1="31.0001000000001" y1="146.0001" x2="31.0001000000001" y2="147.3001"/>
    <line x1="31.0001000000001" y1="147.3001" x2="28.8001000000001" y2="147.3001"/>
    <line x1="28.8001000000001" y1="147.3001" x2="28.8001000000001" y2="146.0001"/>
    <line x1="28.8001000000001" y1="146.0001" x2="25.8001000000001" y2="146.0001"/>
    <line x1="25.8001000000001" y1="146.0001" x2="25.8001000000001" y2="143.0001"/>
    <line x1="25.8001000000001" y1="143.0001" x2="28.8001000000001" y2="143.0001"/>
    <line x1="28.8001000000001" y1="143.0001" x2="28.8001000000001" y2="141.7001"/>
    <line x1="28.8001000000001" y1="141.7001" x2="31.0001000000001" y2="141.7001"/>
    <line x1="31.0001000000001" y1="141.7001" x2="31.0001000000001" y2="143.0001"/>
    <line x1="31.0001000000001" y1="143.0001" x2="33.0001000000001" y2="143.0001"/>
    <line x1="33.0001000000001" y1="143.0001" x2="33.0001000000001" y2="50.0001"/>
    <line x1="33.0001000000001" y1="50.0001" x2="36.0001000000001" y2="50.0001"/>
    <line x1="36.0001000000001" y1="50.0001" x2="36.0001000000001" y2="30.0000999999999"/>
    <line x1="36.0001000000001" y1="30.0000999999999" x2="33.0001000000001" y2="30.0000999999999"/>
    <line x1="33.0001000000001" y1="30.0000999999999" x2="33.0001000000001" y2="20.0001"/>
    <line x1="33.0001000000001" y1="20.0001" x2="31.0001000000001" y2="20.0001"/>
    <line x1="31.0001000000001" y1="20.0001" x2="31.0001000000001" y2="21.3001"/>
    <line x1="31.0001000000001" y1="21.3001" x2="28.8001000000001" y2="21.3001"/>
    <line x1="28.8001000000001" y1="21.3001" x2="28.8001000000001" y2="20.0001"/>
    <line x1="28.8001000000001" y1="20.0001" x2="25.8001000000001" y2="20.0001"/>
    <line x1="25.8001000000001" y1="20.0001" x2="25.8001000000001" y2="17.0000999999999"/>
    <line x1="25.8001000000001" y1="17.0000999999999" x2="28.8001000000001" y2="17.0000999999999"/>
    <line x1="28.8001000000001" y1="17.0000999999999" x2="28.8001000000001" y2="15.7000999999999"/>
    <line x1="28.8001000000001" y1="15.7000999999999" x2="31.0001000000001" y2="15.7000999999999"/>
    <line x1="31.0001000000001" y1="15.7000999999999" x2="31.0001000000001" y2="17.0000999999999"/>
    <line x1="31.0001000000001" y1="17.0000999999999" x2="33.0001000000001" y2="17.0000999999999"/>
    <line x1="33.0001000000001" y1="17.0000999999999" x2="33.0001000000001" y2="0.0001"/>
    <line x1="33.0001000000001" y1="0.0001" x2="3.0001" y2="0.0001"/>
    <line x1="24.5001" y1="181.9001" x2="11.5001" y2="181.9001"/>
    <line x1="11.5001" y1="181.9001" x2="11.5001" y2="163.9001"/>
    <line x1="11.5001" y1="163.9001" x2="24.5001" y2="163.9001"/>
    <line x1="24.5001" y1="163.9001" x2="24.5001" y2="181.9001"/>
    <line x1="23.0001" y1="3.00009999999996" x2="23.0001" y2="6.0000999999999"/>
    <line x1="23.0001" y1="6.0000999999999" x2="13.0001" y2="6.0000999999999"/>
    <line x1="13.0001" y1="6.0000999999999" x2="13.0001" y2="3.00009999999994"/>
    <line x1="13.0001" y1="3.00009999999994" x2="23.0001" y2="3.00009999999996"/>
    <line x1="23.0001" y1="93.0001" x2="13.0001" y2="93.0000999999999"/>
    <line x1="13.0001" y1="93.0000999999999" x2="13.0001" y2="90.0000999999999"/>
    <line x1="13.0001" y1="90.0000999999999" x2="23.0001" y2="90.0000999999999"/>
    <line x1="23.0001" y1="90.0000999999999" x2="23.0001" y2="93.0001"/>
    <line x1="13.0001" y1="190.0001" x2="23.0001000000001" y2="190.0001"/>
    <line x1="23.0001000000001" y1="190.0001" x2="23.0001000000001" y2="193.0001"/>
    <line x1="23.0001000000001" y1="193.0001" x2="13.0001" y2="193.0001"/>
    <line x1="13.0001" y1="193.0001" x2="13.0001" y2="190.0001"/>
  </g>
</svg>
