<?xml version="1.0" standalone="no"?>
<!DOCTYPE svg PUBLIC "-//W3C//DTD SVG 1.1//EN" "http://www.w3.org/Graphics/SVG/1.1/DTD/svg11.dtd">
<svg width="63.0002mm" height="50.0002000000001mm"
 viewBox="0 0 63.0002 50.0002000000001"
 xmlns="http://www.w3.org/2000/svg" version="1.1"
 xmlns:xlink="http://www.w3.org/1999/xlink">
<desc>Output from Flights of Ideas SVG Sketchup Plugin</desc>

  <g id="face0" fill="none" stroke="rgb(0,0,255)" stroke-width="1" stroke-miterlimit="4" stroke-dasharray="none" stroke-linejoin="round" stroke-linecap="round">
    <line x1="0.0001" y1="50.0001000000001" x2="63.0001" y2="50.0001000000001"/>
    <line x1="63.0001" y1="50.0001000000001" x2="63.0001" y2="0.0001"/>
    <line x1="63.0001" y1="0.0001" x2="0.0001" y2="0.0001"/>
    <line x1="0.0001" y1="0.0001" x2="0.0001" y2="50.0001000000001"/>
    <line x1="53.0001000000001" y1="45.0001000000001" x2="41.5001000000001" y2="45.0001000000002"/>
    <line x1="41.5001000000001" y1="45.0001000000002" x2="39.9817851006356" y2="45.8985755870279"/>
    <line x1="39.9817851006356" y1="45.8985755870279" x2="38.3834782329643" y2="46.6455385518875"/>
    <line x1="38.3834782329643" y1="46.6455385518875" x2="36.7202532544553" y2="47.2339441815179"/>
    <line x1="36.7202532544553" y1="47.2339441815179" x2="35.0077962744357" y2="47.6582431394462"/>
    <line x1="35.0077962744357" y1="47.6582431394462" x2="33.2622577161819" y2="47.914433802364"/>
    <line x1="33.2622577161819" y1="47.914433802364" x2="31.5001" y2="48.0001000000003"/>
    <line x1="31.5001" y1="48.0001000000003" x2="29.7379422838181" y2="47.914433802364"/>
    <line x1="29.7379422838181" y1="47.914433802364" x2="27.9924037255644" y2="47.6582431394462"/>
    <line x1="27.9924037255644" y1="47.6582431394462" x2="26.2799467455448" y2="47.2339441815179"/>
    <line x1="26.2799467455448" y1="47.2339441815179" x2="24.6167217670358" y2="46.6455385518875"/>
    <line x1="24.6167217670358" y1="46.6455385518875" x2="23.0184148993646" y2="45.8985755870279"/>
    <line x1="23.0184148993646" y1="45.8985755870279" x2="21.5001" y2="45.0001000000002"/>
    <line x1="21.5001" y1="45.0001000000002" x2="10.0001" y2="45.0001000000002"/>
    <line x1="10.0001" y1="45.0001000000002" x2="10.0001" y2="5.00010000000006"/>
    <line x1="10.0001" y1="5.00010000000006" x2="53.0001000000001" y2="5.00010000000006"/>
    <line x1="53.0001000000001" y1="5.00010000000006" x2="53.0001000000001" y2="45.0001000000001"/>
    <line x1="56.5512112605665" y1="25.3883285676539" x2="56.5001" y2="25.0001000000002"/>
    <line x1="56.5001" y1="25.0001000000002" x2="56.5512112605665" y2="24.6118714323463"/>
    <line x1="56.5512112605665" y1="24.6118714323463" x2="56.7010618943233" y2="24.2501000000002"/>
    <line x1="56.7010618943233" y1="24.2501000000002" x2="56.9394398282202" y2="23.9394398282204"/>
    <line x1="56.9394398282202" y1="23.9394398282204" x2="57.2501" y2="23.7010618943234"/>
    <line x1="57.2501" y1="23.7010618943234" x2="57.6118714323462" y2="23.5512112605665"/>
    <line x1="57.6118714323462" y1="23.5512112605665" x2="58.0001" y2="23.5001000000002"/>
    <line x1="58.0001" y1="23.5001000000002" x2="58.3883285676539" y2="23.5512112605665"/>
    <line x1="58.3883285676539" y1="23.5512112605665" x2="58.7501" y2="23.7010618943234"/>
    <line x1="58.7501" y1="23.7010618943234" x2="59.0607601717799" y2="23.9394398282204"/>
    <line x1="59.0607601717799" y1="23.9394398282204" x2="59.2991381056767" y2="24.2501000000002"/>
    <line x1="59.2991381056767" y1="24.2501000000002" x2="59.4489887394336" y2="24.6118714323463"/>
    <line x1="59.4489887394336" y1="24.6118714323463" x2="59.5001" y2="25.0001000000002"/>
    <line x1="59.5001" y1="25.0001000000002" x2="59.4489887394336" y2="25.3883285676539"/>
    <line x1="59.4489887394336" y1="25.3883285676539" x2="59.2991381056767" y2="25.7501000000002"/>
    <line x1="59.2991381056767" y1="25.7501000000002" x2="59.0607601717799" y2="26.06076017178"/>
    <line x1="59.0607601717799" y1="26.06076017178" x2="58.7501" y2="26.2991381056768"/>
    <line x1="58.7501" y1="26.2991381056768" x2="58.3883285676539" y2="26.4489887394337"/>
    <line x1="58.3883285676539" y1="26.4489887394337" x2="58.0001" y2="26.5001000000002"/>
    <line x1="58.0001" y1="26.5001000000002" x2="57.6118714323462" y2="26.4489887394337"/>
    <line x1="57.6118714323462" y1="26.4489887394337" x2="57.2501" y2="26.2991381056768"/>
    <line x1="57.2501" y1="26.2991381056768" x2="56.9394398282202" y2="26.06076017178"/>
    <line x1="56.9394398282202" y1="26.06076017178" x2="56.7010618943233" y2="25.7501000000002"/>
    <line x1="56.7010618943233" y1="25.7501000000002" x2="56.5512112605665" y2="25.3883285676539"/>
    <line x1="6.44898873943364" y1="24.6118714323463" x2="6.5001" y2="25.0001000000002"/>
    <line x1="6.5001" y1="25.0001000000002" x2="6.44898873943364" y2="25.3883285676539"/>
    <line x1="6.44898873943364" y1="25.3883285676539" x2="6.29913810567669" y2="25.7501000000002"/>
    <line x1="6.29913810567669" y1="25.7501000000002" x2="6.06076017177989" y2="26.06076017178"/>
    <line x1="6.06076017177989" y1="26.06076017178" x2="5.7501" y2="26.2991381056768"/>
    <line x1="5.7501" y1="26.2991381056768" x2="5.38832856765375" y2="26.4489887394337"/>
    <line x1="5.38832856765375" y1="26.4489887394337" x2="5.00010000000011" y2="26.5001000000002"/>
    <line x1="5.00010000000011" y1="26.5001000000002" x2="4.61187143234624" y2="26.4489887394337"/>
    <line x1="4.61187143234624" y1="26.4489887394337" x2="4.25010000000011" y2="26.2991381056768"/>
    <line x1="4.25010000000011" y1="26.2991381056768" x2="3.93943982822023" y2="26.06076017178"/>
    <line x1="3.93943982822023" y1="26.06076017178" x2="3.70106189432343" y2="25.7501000000002"/>
    <line x1="3.70106189432343" y1="25.7501000000002" x2="3.55121126056647" y2="25.3883285676539"/>
    <line x1="3.55121126056647" y1="25.3883285676539" x2="3.50010000000011" y2="25.0001000000002"/>
    <line x1="3.50010000000011" y1="25.0001000000002" x2="3.55121126056647" y2="24.6118714323463"/>
    <line x1="3.55121126056647" y1="24.6118714323463" x2="3.70106189432343" y2="24.2501000000002"/>
    <line x1="3.70106189432343" y1="24.2501000000002" x2="3.93943982822023" y2="23.9394398282204"/>
    <line x1="3.93943982822023" y1="23.9394398282204" x2="4.25010000000011" y2="23.7010618943234"/>
    <line x1="4.25010000000011" y1="23.7010618943234" x2="4.61187143234624" y2="23.5512112605665"/>
    <line x1="4.61187143234624" y1="23.5512112605665" x2="5.00010000000011" y2="23.5001000000002"/>
    <line x1="5.00010000000011" y1="23.5001000000002" x2="5.38832856765375" y2="23.5512112605665"/>
    <line x1="5.38832856765375" y1="23.5512112605665" x2="5.7501" y2="23.7010618943234"/>
    <line x1="5.7501" y1="23.7010618943234" x2="6.06076017177989" y2="23.9394398282204"/>
    <line x1="6.06076017177989" y1="23.9394398282204" x2="6.29913810567669" y2="24.2501000000002"/>
    <line x1="6.29913810567669" y1="24.2501000000002" x2="6.44898873943364" y2="24.6118714323463"/>
  </g>
</svg>
