<?xml version="1.0" standalone="no"?>
<!DOCTYPE svg PUBLIC "-//W3C//DTD SVG 1.1//EN" "http://www.w3.org/Graphics/SVG/1.1/DTD/svg11.dtd">
<svg width="63.0002mm" height="50.0002000000002mm"
 viewBox="0 0 63.0002 50.0002000000002"
 xmlns="http://www.w3.org/2000/svg" version="1.1"
 xmlns:xlink="http://www.w3.org/1999/xlink">
<desc>Output from Flights of Ideas SVG Sketchup Plugin</desc>

  <g id="face0" fill="none" stroke="rgb(0,0,255)" stroke-width="1" stroke-miterlimit="4" stroke-dasharray="none" stroke-linejoin="round" stroke-linecap="round">
    <line x1="0.0001" y1="50.0001000000002" x2="57.9010890817941" y2="50.0001000000002"/>
    <line x1="57.9010890817941" y1="50.0001000000002" x2="58.0000999999999" y2="40.0001000000001"/>
    <line x1="58.0000999999999" y1="40.0001000000001" x2="63.0001" y2="40.0001000000001"/>
    <line x1="63.0001" y1="40.0001000000001" x2="63.0001" y2="0.000100000000113687"/>
    <line x1="63.0001" y1="0.000100000000113687" x2="0.0001" y2="0.0001"/>
    <line x1="0.0001" y1="0.0001" x2="0.0001" y2="50.0001000000002"/>
    <line x1="4.61187143234613" y1="23.5512112605666" x2="5.0001" y2="23.5001000000001"/>
    <line x1="5.0001" y1="23.5001000000001" x2="5.38832856765364" y2="23.5512112605666"/>
    <line x1="5.38832856765364" y1="23.5512112605666" x2="5.7501" y2="23.7010618943234"/>
    <line x1="5.7501" y1="23.7010618943234" x2="6.06076017177977" y2="23.9394398282203"/>
    <line x1="6.06076017177977" y1="23.9394398282203" x2="6.29913810567669" y2="24.2501000000001"/>
    <line x1="6.29913810567669" y1="24.2501000000001" x2="6.44898873943364" y2="24.6118714323464"/>
    <line x1="6.44898873943364" y1="24.6118714323464" x2="6.5001" y2="25.0001000000001"/>
    <line x1="6.5001" y1="25.0001000000001" x2="6.44898873943364" y2="25.388328567654"/>
    <line x1="6.44898873943364" y1="25.388328567654" x2="6.29913810567669" y2="25.7501000000001"/>
    <line x1="6.29913810567669" y1="25.7501000000001" x2="6.06076017177977" y2="26.0607601717799"/>
    <line x1="6.06076017177977" y1="26.0607601717799" x2="5.7501" y2="26.2991381056768"/>
    <line x1="5.7501" y1="26.2991381056768" x2="5.38832856765364" y2="26.4489887394338"/>
    <line x1="5.38832856765364" y1="26.4489887394338" x2="5.0001" y2="26.5001000000001"/>
    <line x1="5.0001" y1="26.5001000000001" x2="4.61187143234613" y2="26.4489887394338"/>
    <line x1="4.61187143234613" y1="26.4489887394338" x2="4.2501" y2="26.2991381056768"/>
    <line x1="4.2501" y1="26.2991381056768" x2="3.93943982822011" y2="26.0607601717799"/>
    <line x1="3.93943982822011" y1="26.0607601717799" x2="3.70106189432331" y2="25.7501000000001"/>
    <line x1="3.70106189432331" y1="25.7501000000001" x2="3.55121126056624" y2="25.388328567654"/>
    <line x1="3.55121126056624" y1="25.388328567654" x2="3.5001" y2="25.0001000000001"/>
    <line x1="3.5001" y1="25.0001000000001" x2="3.55121126056624" y2="24.6118714323464"/>
    <line x1="3.55121126056624" y1="24.6118714323464" x2="3.70106189432331" y2="24.2501000000001"/>
    <line x1="3.70106189432331" y1="24.2501000000001" x2="3.93943982822011" y2="23.9394398282203"/>
    <line x1="3.93943982822011" y1="23.9394398282203" x2="4.2501" y2="23.7010618943234"/>
    <line x1="4.2501" y1="23.7010618943234" x2="4.61187143234613" y2="23.5512112605666"/>
    <line x1="57.6118714323461" y1="23.5512112605666" x2="58.0000999999999" y2="23.5001000000001"/>
    <line x1="58.0000999999999" y1="23.5001000000001" x2="58.3883285676538" y2="23.5512112605666"/>
    <line x1="58.3883285676538" y1="23.5512112605666" x2="58.7500999999999" y2="23.7010618943234"/>
    <line x1="58.7500999999999" y1="23.7010618943234" x2="59.0607601717798" y2="23.9394398282203"/>
    <line x1="59.0607601717798" y1="23.9394398282203" x2="59.2991381056766" y2="24.2501000000001"/>
    <line x1="59.2991381056766" y1="24.2501000000001" x2="59.4489887394335" y2="24.6118714323464"/>
    <line x1="59.4489887394335" y1="24.6118714323464" x2="59.5001" y2="25.0001000000001"/>
    <line x1="59.5001" y1="25.0001000000001" x2="59.4489887394335" y2="25.388328567654"/>
    <line x1="59.4489887394335" y1="25.388328567654" x2="59.2991381056766" y2="25.7501000000001"/>
    <line x1="59.2991381056766" y1="25.7501000000001" x2="59.0607601717798" y2="26.0607601717799"/>
    <line x1="59.0607601717798" y1="26.0607601717799" x2="58.7500999999999" y2="26.2991381056768"/>
    <line x1="58.7500999999999" y1="26.2991381056768" x2="58.3883285676538" y2="26.4489887394338"/>
    <line x1="58.3883285676538" y1="26.4489887394338" x2="58.0000999999999" y2="26.5001000000001"/>
    <line x1="58.0000999999999" y1="26.5001000000001" x2="57.6118714323461" y2="26.4489887394338"/>
    <line x1="57.6118714323461" y1="26.4489887394338" x2="57.2500999999999" y2="26.2991381056768"/>
    <line x1="57.2500999999999" y1="26.2991381056768" x2="56.9394398282201" y2="26.0607601717799"/>
    <line x1="56.9394398282201" y1="26.0607601717799" x2="56.7010618943233" y2="25.7501000000001"/>
    <line x1="56.7010618943233" y1="25.7501000000001" x2="56.5512112605664" y2="25.388328567654"/>
    <line x1="56.5512112605664" y1="25.388328567654" x2="56.5000999999999" y2="25.0001000000001"/>
    <line x1="56.5000999999999" y1="25.0001000000001" x2="56.5512112605664" y2="24.6118714323464"/>
    <line x1="56.5512112605664" y1="24.6118714323464" x2="56.7010618943233" y2="24.2501000000001"/>
    <line x1="56.7010618943233" y1="24.2501000000001" x2="56.9394398282201" y2="23.9394398282203"/>
    <line x1="56.9394398282201" y1="23.9394398282203" x2="57.2500999999999" y2="23.7010618943234"/>
    <line x1="57.2500999999999" y1="23.7010618943234" x2="57.6118714323461" y2="23.5512112605666"/>
    <line x1="50.0001" y1="8.00010000000011" x2="50.0001" y2="42.0001000000001"/>
    <line x1="50.0001" y1="42.0001000000001" x2="13.0001" y2="42.0001000000001"/>
    <line x1="13.0001" y1="42.0001000000001" x2="13.0001" y2="8.00010000000011"/>
    <line x1="13.0001" y1="8.00010000000011" x2="50.0001" y2="8.00010000000011"/>
  </g>
</svg>
