<?xml version="1.0" standalone="no"?>
<!DOCTYPE svg PUBLIC "-//W3C//DTD SVG 1.1//EN" "http://www.w3.org/Graphics/SVG/1.1/DTD/svg11.dtd">
<svg width="43.0002mm" height="40.0002000000001mm"
 viewBox="0 0 43.0002 40.0002000000001"
 xmlns="http://www.w3.org/2000/svg" version="1.1"
 xmlns:xlink="http://www.w3.org/1999/xlink">
<desc>Output from Flights of Ideas SVG Sketchup Plugin</desc>

  <g id="face0" fill="none" stroke="rgb(0,0,255)" stroke-width="1" stroke-miterlimit="4" stroke-dasharray="none" stroke-linejoin="round" stroke-linecap="round">
    <line x1="0.0001" y1="40.0001000000001" x2="11.5001" y2="40.0001000000001"/>
    <line x1="11.5001" y1="40.0001000000001" x2="13.0184148993646" y2="39.1016244129724"/>
    <line x1="13.0184148993646" y1="39.1016244129724" x2="14.6167217670357" y2="38.3546614481128"/>
    <line x1="14.6167217670357" y1="38.3546614481128" x2="16.2799467455447" y2="37.7662558184824"/>
    <line x1="16.2799467455447" y1="37.7662558184824" x2="17.9924037255643" y2="37.3419568605542"/>
    <line x1="17.9924037255643" y1="37.3419568605542" x2="19.7379422838181" y2="37.0857661976363"/>
    <line x1="19.7379422838181" y1="37.0857661976363" x2="21.5001" y2="37.0001000000001"/>
    <line x1="21.5001" y1="37.0001000000001" x2="23.2622577161818" y2="37.0857661976363"/>
    <line x1="23.2622577161818" y1="37.0857661976363" x2="25.0077962744356" y2="37.3419568605542"/>
    <line x1="25.0077962744356" y1="37.3419568605542" x2="26.7202532544552" y2="37.7662558184824"/>
    <line x1="26.7202532544552" y1="37.7662558184824" x2="28.3834782329643" y2="38.3546614481128"/>
    <line x1="28.3834782329643" y1="38.3546614481128" x2="29.9817851006356" y2="39.1016244129722"/>
    <line x1="29.9817851006356" y1="39.1016244129722" x2="31.5000999999999" y2="40.0001000000001"/>
    <line x1="31.5000999999999" y1="40.0001000000001" x2="43.0001" y2="40.0001000000001"/>
    <line x1="43.0001" y1="40.0001000000001" x2="43.0001" y2="0.0001"/>
    <line x1="43.0001" y1="0.0001" x2="0.0001" y2="0.0001"/>
    <line x1="0.0001" y1="0.0001" x2="0.0001" y2="40.0001000000001"/>
  </g>
</svg>
