<?xml version="1.0" standalone="no"?>
<!DOCTYPE svg PUBLIC "-//W3C//DTD SVG 1.1//EN" "http://www.w3.org/Graphics/SVG/1.1/DTD/svg11.dtd">
<svg width="36.0002mm" height="196.0002mm"
 viewBox="0 0 36.0002 196.0002"
 xmlns="http://www.w3.org/2000/svg" version="1.1"
 xmlns:xlink="http://www.w3.org/1999/xlink">
<desc>Output from Flights of Ideas SVG Sketchup Plugin</desc>

  <g id="face0" fill="none" stroke="rgb(0,0,255)" stroke-width="1" stroke-miterlimit="4" stroke-dasharray="none" stroke-linejoin="round" stroke-linecap="round">
    <line x1="33.0001" y1="17.0001" x2="33.0001" y2="0.0001"/>
    <line x1="33.0001" y1="0.0001" x2="3.00009999999989" y2="0.0001"/>
    <line x1="3.00009999999989" y1="0.0001" x2="3.00009999999989" y2="16.4131096437017"/>
    <line x1="3.00009999999989" y1="16.4131096437017" x2="5.00009999999989" y2="16.4131096437017"/>
    <line x1="5.00009999999989" y1="16.4131096437017" x2="5.00009999999989" y2="15.1131096437016"/>
    <line x1="5.00009999999989" y1="15.1131096437016" x2="7.20009999999993" y2="15.1131096437016"/>
    <line x1="7.20009999999993" y1="15.1131096437016" x2="7.20009999999993" y2="16.4131096437017"/>
    <line x1="7.20009999999993" y1="16.4131096437017" x2="10.2001" y2="16.4131096437018"/>
    <line x1="10.2001" y1="16.4131096437018" x2="10.2001" y2="19.4131096437018"/>
    <line x1="10.2001" y1="19.4131096437018" x2="7.20009999999993" y2="19.4131096437018"/>
    <line x1="7.20009999999993" y1="19.4131096437018" x2="7.20009999999993" y2="20.7131096437017"/>
    <line x1="7.20009999999993" y1="20.7131096437017" x2="5.00009999999989" y2="20.7131096437016"/>
    <line x1="5.00009999999989" y1="20.7131096437016" x2="5.00009999999989" y2="19.4131096437018"/>
    <line x1="5.00009999999989" y1="19.4131096437018" x2="3.00009999999989" y2="19.4131096437017"/>
    <line x1="3.00009999999989" y1="19.4131096437017" x2="3.00009999999989" y2="30.0001"/>
    <line x1="3.00009999999989" y1="30.0001" x2="0.0001" y2="30.0001"/>
    <line x1="0.0001" y1="30.0001" x2="0.0001" y2="50.0001"/>
    <line x1="0.0001" y1="50.0001" x2="3.00009999999989" y2="50.0001"/>
    <line x1="3.00009999999989" y1="50.0001" x2="3.00009999999989" y2="103.0001"/>
    <line x1="3.00009999999989" y1="103.0001" x2="5.00009999999989" y2="103.0001"/>
    <line x1="5.00009999999989" y1="103.0001" x2="5.00009999999989" y2="101.7001"/>
    <line x1="5.00009999999989" y1="101.7001" x2="7.20009999999993" y2="101.7001"/>
    <line x1="7.20009999999993" y1="101.7001" x2="7.20009999999993" y2="103.0001"/>
    <line x1="7.20009999999993" y1="103.0001" x2="10.2001" y2="103.0001"/>
    <line x1="10.2001" y1="103.0001" x2="10.2001" y2="106.0001"/>
    <line x1="10.2001" y1="106.0001" x2="7.20009999999993" y2="106.0001"/>
    <line x1="7.20009999999993" y1="106.0001" x2="7.20009999999993" y2="107.3001"/>
    <line x1="7.20009999999993" y1="107.3001" x2="5.00009999999989" y2="107.3001"/>
    <line x1="5.00009999999989" y1="107.3001" x2="5.00009999999989" y2="106.0001"/>
    <line x1="5.00009999999989" y1="106.0001" x2="3.00009999999989" y2="106.0001"/>
    <line x1="3.00009999999989" y1="106.0001" x2="3.00009999999989" y2="146.0001"/>
    <line x1="3.00009999999989" y1="146.0001" x2="0.0001" y2="146.0001"/>
    <line x1="0.0001" y1="146.0001" x2="0.0001" y2="166.0001"/>
    <line x1="0.0001" y1="166.0001" x2="3.0001" y2="166.0001"/>
    <line x1="3.0001" y1="166.0001" x2="3.00009999999989" y2="176.0001"/>
    <line x1="3.00009999999989" y1="176.0001" x2="5.00009999999989" y2="176.0001"/>
    <line x1="5.00009999999989" y1="176.0001" x2="5.00009999999989" y2="174.7001"/>
    <line x1="5.00009999999989" y1="174.7001" x2="7.20009999999993" y2="174.7001"/>
    <line x1="7.20009999999993" y1="174.7001" x2="7.20009999999993" y2="176.0001"/>
    <line x1="7.20009999999993" y1="176.0001" x2="10.2000999999999" y2="176.0001"/>
    <line x1="10.2000999999999" y1="176.0001" x2="10.2001" y2="179.0001"/>
    <line x1="10.2001" y1="179.0001" x2="7.20009999999993" y2="179.0001"/>
    <line x1="7.20009999999993" y1="179.0001" x2="7.20009999999993" y2="180.3001"/>
    <line x1="7.20009999999993" y1="180.3001" x2="5.00009999999989" y2="180.3001"/>
    <line x1="5.00009999999989" y1="180.3001" x2="5.00009999999989" y2="179.0001"/>
    <line x1="5.00009999999989" y1="179.0001" x2="3.0001" y2="179.0001"/>
    <line x1="3.0001" y1="179.0001" x2="3.0001" y2="196.0001"/>
    <line x1="3.0001" y1="196.0001" x2="33.0001" y2="196.0001"/>
    <line x1="33.0001" y1="196.0001" x2="33.0001" y2="179.0001"/>
    <line x1="33.0001" y1="179.0001" x2="31.0001" y2="179.0001"/>
    <line x1="31.0001" y1="179.0001" x2="31.0001" y2="180.3001"/>
    <line x1="31.0001" y1="180.3001" x2="28.8001000000001" y2="180.3001"/>
    <line x1="28.8001000000001" y1="180.3001" x2="28.8001000000001" y2="179.0001"/>
    <line x1="28.8001000000001" y1="179.0001" x2="25.8001" y2="179.0001"/>
    <line x1="25.8001" y1="179.0001" x2="25.8001" y2="176.0001"/>
    <line x1="25.8001" y1="176.0001" x2="28.8001000000001" y2="176.0001"/>
    <line x1="28.8001000000001" y1="176.0001" x2="28.8001" y2="174.7001"/>
    <line x1="28.8001" y1="174.7001" x2="31.0001" y2="174.7001"/>
    <line x1="31.0001" y1="174.7001" x2="31.0001" y2="176.0001"/>
    <line x1="31.0001" y1="176.0001" x2="33.0001" y2="176.0001"/>
    <line x1="33.0001" y1="176.0001" x2="33.0001" y2="166.0001"/>
    <line x1="33.0001" y1="166.0001" x2="36.0001" y2="166.0001"/>
    <line x1="36.0001" y1="166.0001" x2="36.0001" y2="146.0001"/>
    <line x1="36.0001" y1="146.0001" x2="33.0001" y2="146.0001"/>
    <line x1="33.0001" y1="146.0001" x2="33.0001" y2="106.0001"/>
    <line x1="33.0001" y1="106.0001" x2="31.0001" y2="106.0001"/>
    <line x1="31.0001" y1="106.0001" x2="31.0001" y2="107.3001"/>
    <line x1="31.0001" y1="107.3001" x2="28.8001" y2="107.3001"/>
    <line x1="28.8001" y1="107.3001" x2="28.8001000000001" y2="106.0001"/>
    <line x1="28.8001000000001" y1="106.0001" x2="25.8001" y2="106.0001"/>
    <line x1="25.8001" y1="106.0001" x2="25.8001" y2="103.0001"/>
    <line x1="25.8001" y1="103.0001" x2="28.8001000000001" y2="103.0001"/>
    <line x1="28.8001000000001" y1="103.0001" x2="28.8001000000001" y2="101.7001"/>
    <line x1="28.8001000000001" y1="101.7001" x2="31.0001" y2="101.7001"/>
    <line x1="31.0001" y1="101.7001" x2="31.0001" y2="103.0001"/>
    <line x1="31.0001" y1="103.0001" x2="33.0001" y2="103.0001"/>
    <line x1="33.0001" y1="103.0001" x2="33.0001" y2="50.0001"/>
    <line x1="33.0001" y1="50.0001" x2="36.0001" y2="50.0001"/>
    <line x1="36.0001" y1="50.0001" x2="36.0001" y2="30.0001"/>
    <line x1="36.0001" y1="30.0001" x2="33.0001" y2="30.0001"/>
    <line x1="33.0001" y1="30.0001" x2="33.0001" y2="20.0001000000001"/>
    <line x1="33.0001" y1="20.0001000000001" x2="31.0001" y2="20.0001000000001"/>
    <line x1="31.0001" y1="20.0001000000001" x2="31.0001" y2="21.3001"/>
    <line x1="31.0001" y1="21.3001" x2="28.8001" y2="21.3001"/>
    <line x1="28.8001" y1="21.3001" x2="28.8001000000001" y2="20.0001000000001"/>
    <line x1="28.8001000000001" y1="20.0001000000001" x2="25.8001" y2="20.0001000000001"/>
    <line x1="25.8001" y1="20.0001000000001" x2="25.8001" y2="17.0001"/>
    <line x1="25.8001" y1="17.0001" x2="28.8001" y2="17.0001"/>
    <line x1="28.8001" y1="17.0001" x2="28.8001" y2="15.7001"/>
    <line x1="28.8001" y1="15.7001" x2="31.0001" y2="15.7001"/>
    <line x1="31.0001" y1="15.7001" x2="31.0001" y2="17.0001"/>
    <line x1="31.0001" y1="17.0001" x2="33.0001" y2="17.0001"/>
    <line x1="13.0001" y1="193.0001" x2="13.0001" y2="190.0001"/>
    <line x1="13.0001" y1="190.0001" x2="23.0001" y2="190.0001"/>
    <line x1="23.0001" y1="190.0001" x2="23.0001" y2="193.0001"/>
    <line x1="23.0001" y1="193.0001" x2="13.0001" y2="193.0001"/>
    <line x1="23.0001" y1="90.0001000000001" x2="23.0001" y2="93.0001000000001"/>
    <line x1="23.0001" y1="93.0001000000001" x2="13.0000999999999" y2="93.0001"/>
    <line x1="13.0000999999999" y1="93.0001" x2="13.0000999999999" y2="90.0001000000001"/>
    <line x1="13.0000999999999" y1="90.0001000000001" x2="23.0001" y2="90.0001000000001"/>
    <line x1="13.0000999999999" y1="6.00010000000009" x2="13.0000999999999" y2="3.00010000000003"/>
    <line x1="13.0000999999999" y1="3.00010000000003" x2="23.0001" y2="3.00010000000003"/>
    <line x1="23.0001" y1="3.00010000000003" x2="23.0001" y2="6.00010000000009"/>
    <line x1="23.0001" y1="6.00010000000009" x2="13.0000999999999" y2="6.00010000000009"/>
  </g>
</svg>
