<?xml version="1.0" standalone="no"?>
<!DOCTYPE svg PUBLIC "-//W3C//DTD SVG 1.1//EN" "http://www.w3.org/Graphics/SVG/1.1/DTD/svg11.dtd">
<svg width="138.0mm" height="38.0000000000003mm"
 viewBox="0 0 138.0 38.0000000000003"
 xmlns="http://www.w3.org/2000/svg" version="1.1"
 xmlns:xlink="http://www.w3.org/1999/xlink">
<desc>Output from Flights of Ideas SVG Sketchup Plugin</desc>

  <g id="face0" fill="none" stroke="rgb(0,0,255)" stroke-width="1" stroke-miterlimit="4" stroke-dasharray="none" stroke-linejoin="round" stroke-linecap="round">
    <line x1="134.0" y1="4.00000000000023" x2="124.0" y2="4.00000000000023"/>
    <line x1="124.0" y1="4.00000000000023" x2="124.0" y2="1.00000000000018"/>
    <line x1="124.0" y1="1.00000000000018" x2="114.0" y2="1.00000000000019"/>
    <line x1="114.0" y1="1.00000000000019" x2="114.0" y2="4.00000000000023"/>
    <line x1="114.0" y1="4.00000000000023" x2="73.9999999999999" y2="4.00000000000024"/>
    <line x1="73.9999999999999" y1="4.00000000000024" x2="73.9999999999999" y2="1.00000000000019"/>
    <line x1="73.9999999999999" y1="1.00000000000019" x2="64.0" y2="1.00000000000012"/>
    <line x1="64.0" y1="1.00000000000012" x2="64.0" y2="4.00000000000025"/>
    <line x1="64.0" y1="4.00000000000025" x2="24.0" y2="4.00000000000025"/>
    <line x1="24.0" y1="4.00000000000025" x2="24.0" y2="1.0"/>
    <line x1="24.0" y1="1.0" x2="14.0" y2="1.00000000000047"/>
    <line x1="14.0" y1="1.00000000000047" x2="14.0" y2="4.00000000000025"/>
    <line x1="14.0" y1="4.00000000000025" x2="9.0" y2="4.00000000000025"/>
    <line x1="9.0" y1="4.00000000000025" x2="9.0" y2="9.00000000000001"/>
    <line x1="9.0" y1="9.00000000000001" x2="4.0" y2="9.00000000000023"/>
    <line x1="4.0" y1="9.00000000000023" x2="4.00000000000011" y2="14.0000000000006"/>
    <line x1="4.00000000000011" y1="14.0000000000006" x2="1.0" y2="14.0000000000004"/>
    <line x1="1.0" y1="14.0000000000004" x2="1.0" y2="24.0000000000002"/>
    <line x1="1.0" y1="24.0000000000002" x2="4.0" y2="24.0000000000002"/>
    <line x1="4.0" y1="24.0000000000002" x2="4.0" y2="34.0000000000003"/>
    <line x1="4.0" y1="34.0000000000003" x2="14.0" y2="34.0000000000003"/>
    <line x1="14.0" y1="34.0000000000003" x2="14.0" y2="37.0000000000003"/>
    <line x1="14.0" y1="37.0000000000003" x2="24.0" y2="37.0000000000003"/>
    <line x1="24.0" y1="37.0000000000003" x2="24.0" y2="34.0000000000003"/>
    <line x1="24.0" y1="34.0000000000003" x2="64.0" y2="34.0000000000003"/>
    <line x1="64.0" y1="34.0000000000003" x2="64.0" y2="37.0000000000003"/>
    <line x1="64.0" y1="37.0000000000003" x2="74.0000000000001" y2="37.0000000000003"/>
    <line x1="74.0000000000001" y1="37.0000000000003" x2="74.0000000000001" y2="34.0000000000003"/>
    <line x1="74.0000000000001" y1="34.0000000000003" x2="114.0" y2="34.0000000000003"/>
    <line x1="114.0" y1="34.0000000000003" x2="114.0" y2="37.0000000000003"/>
    <line x1="114.0" y1="37.0000000000003" x2="124.0" y2="37.0000000000003"/>
    <line x1="124.0" y1="37.0000000000003" x2="124.0" y2="34.0000000000003"/>
    <line x1="124.0" y1="34.0000000000003" x2="134.0" y2="34.0000000000003"/>
    <line x1="134.0" y1="34.0000000000003" x2="134.0" y2="24.0000000000002"/>
    <line x1="134.0" y1="24.0000000000002" x2="137.0" y2="24.0000000000002"/>
    <line x1="137.0" y1="24.0000000000002" x2="137.0" y2="14.0000000000003"/>
    <line x1="137.0" y1="14.0000000000003" x2="134.0" y2="14.0000000000003"/>
    <line x1="134.0" y1="14.0000000000003" x2="134.0" y2="4.00000000000023"/>
    <line x1="103.5" y1="12.0000000000002" x2="104.5" y2="12.0000000000002"/>
    <line x1="104.5" y1="12.0000000000002" x2="104.5" y2="26.0000000000003"/>
    <line x1="104.5" y1="26.0000000000003" x2="103.5" y2="26.0000000000003"/>
    <line x1="103.5" y1="26.0000000000003" x2="103.5" y2="12.0000000000002"/>
    <line x1="109.099999938365" y1="14.0499998181182" x2="112.099999938365" y2="14.0499998181181"/>
    <line x1="112.099999938365" y1="14.0499998181181" x2="112.099999938365" y2="24.0999996362359"/>
    <line x1="112.099999938365" y1="24.0999996362359" x2="109.099999938365" y2="24.0999996362359"/>
    <line x1="109.099999938365" y1="24.0999996362359" x2="109.099999938365" y2="14.0499998181182"/>
    <line x1="95.9000000616345" y1="24.0999996362359" x2="95.9000000616345" y2="14.0499998181181"/>
    <line x1="95.9000000616345" y1="14.0499998181181" x2="98.9000000616345" y2="14.0499998181181"/>
    <line x1="98.9000000616345" y1="14.0499998181181" x2="98.9000000616345" y2="24.0999996362359"/>
    <line x1="98.9000000616345" y1="24.0999996362359" x2="95.9000000616345" y2="24.0999996362359"/>
    <line x1="125.448888739433" y1="19.388228567654" x2="125.299038105677" y2="19.7500000000003"/>
    <line x1="125.299038105677" y1="19.7500000000003" x2="125.06066017178" y2="20.0606601717801"/>
    <line x1="125.06066017178" y1="20.0606601717801" x2="124.75" y2="20.2990381056768"/>
    <line x1="124.75" y1="20.2990381056768" x2="124.388228567654" y2="20.4488887394338"/>
    <line x1="124.388228567654" y1="20.4488887394338" x2="124.0" y2="20.5000000000001"/>
    <line x1="124.0" y1="20.5000000000001" x2="123.611771432346" y2="20.4488887394338"/>
    <line x1="123.611771432346" y1="20.4488887394338" x2="123.25" y2="20.2990381056768"/>
    <line x1="123.25" y1="20.2990381056768" x2="122.93933982822" y2="20.0606601717801"/>
    <line x1="122.93933982822" y1="20.0606601717801" x2="122.700961894323" y2="19.7500000000003"/>
    <line x1="122.700961894323" y1="19.7500000000003" x2="122.551111260566" y2="19.388228567654"/>
    <line x1="122.551111260566" y1="19.388228567654" x2="122.5" y2="19.0000000000003"/>
    <line x1="122.5" y1="19.0000000000003" x2="122.551111260566" y2="18.6117714323465"/>
    <line x1="122.551111260566" y1="18.6117714323465" x2="122.700961894324" y2="18.2500000000002"/>
    <line x1="122.700961894324" y1="18.2500000000002" x2="122.93933982822" y2="17.9393398282205"/>
    <line x1="122.93933982822" y1="17.9393398282205" x2="123.25" y2="17.7009618943237"/>
    <line x1="123.25" y1="17.7009618943237" x2="123.611771432346" y2="17.5511112605667"/>
    <line x1="123.611771432346" y1="17.5511112605667" x2="124.0" y2="17.5000000000004"/>
    <line x1="124.0" y1="17.5000000000004" x2="124.388228567654" y2="17.5511112605667"/>
    <line x1="124.388228567654" y1="17.5511112605667" x2="124.75" y2="17.7009618943237"/>
    <line x1="124.75" y1="17.7009618943237" x2="125.06066017178" y2="17.9393398282205"/>
    <line x1="125.06066017178" y1="17.9393398282205" x2="125.299038105677" y2="18.2500000000002"/>
    <line x1="125.299038105677" y1="18.2500000000002" x2="125.448888739434" y2="18.6117714323465"/>
    <line x1="125.448888739434" y1="18.6117714323465" x2="125.5" y2="19.0000000000003"/>
    <line x1="125.5" y1="19.0000000000003" x2="125.448888739433" y2="19.388228567654"/>
    <line x1="82.5511112605664" y1="18.8882285676539" x2="82.5" y2="18.5000000000002"/>
    <line x1="82.5" y1="18.5000000000002" x2="82.5511112605664" y2="18.1117714323465"/>
    <line x1="82.5511112605664" y1="18.1117714323465" x2="82.7009618943234" y2="17.7500000000002"/>
    <line x1="82.7009618943234" y1="17.7500000000002" x2="82.9393398282202" y2="17.4393398282204"/>
    <line x1="82.9393398282202" y1="17.4393398282204" x2="83.25" y2="17.2009618943234"/>
    <line x1="83.25" y1="17.2009618943234" x2="83.6117714323462" y2="17.0511112605665"/>
    <line x1="83.6117714323462" y1="17.0511112605665" x2="84.0" y2="17.0000000000002"/>
    <line x1="84.0" y1="17.0000000000002" x2="84.3882285676538" y2="17.0511112605665"/>
    <line x1="84.3882285676538" y1="17.0511112605665" x2="84.75" y2="17.2009618943234"/>
    <line x1="84.75" y1="17.2009618943234" x2="85.0606601717798" y2="17.4393398282204"/>
    <line x1="85.0606601717798" y1="17.4393398282204" x2="85.2990381056766" y2="17.7500000000002"/>
    <line x1="85.2990381056766" y1="17.7500000000002" x2="85.4488887394338" y2="18.1117714323465"/>
    <line x1="85.4488887394338" y1="18.1117714323465" x2="85.5" y2="18.5000000000002"/>
    <line x1="85.5" y1="18.5000000000002" x2="85.4488887394338" y2="18.8882285676539"/>
    <line x1="85.4488887394338" y1="18.8882285676539" x2="85.2990381056768" y2="19.2500000000002"/>
    <line x1="85.2990381056768" y1="19.2500000000002" x2="85.0606601717798" y2="19.56066017178"/>
    <line x1="85.0606601717798" y1="19.56066017178" x2="84.75" y2="19.799038105677"/>
    <line x1="84.75" y1="19.799038105677" x2="84.3882285676538" y2="19.9488887394339"/>
    <line x1="84.3882285676538" y1="19.9488887394339" x2="84.0" y2="20.0000000000002"/>
    <line x1="84.0" y1="20.0000000000002" x2="83.6117714323462" y2="19.9488887394339"/>
    <line x1="83.6117714323462" y1="19.9488887394339" x2="83.25" y2="19.799038105677"/>
    <line x1="83.25" y1="19.799038105677" x2="82.9393398282202" y2="19.56066017178"/>
    <line x1="82.9393398282202" y1="19.56066017178" x2="82.7009618943234" y2="19.2500000000002"/>
    <line x1="82.7009618943234" y1="19.2500000000002" x2="82.5511112605664" y2="18.8882285676539"/>
    <line x1="14.7500000000001" y1="17.7009618943235" x2="15.0606601717799" y2="17.9393398282206"/>
    <line x1="15.0606601717799" y1="17.9393398282206" x2="15.2990381056767" y2="18.2500000000003"/>
    <line x1="15.2990381056767" y1="18.2500000000003" x2="15.4488887394336" y2="18.6117714323466"/>
    <line x1="15.4488887394336" y1="18.6117714323466" x2="15.5000000000001" y2="19.0000000000003"/>
    <line x1="15.5000000000001" y1="19.0000000000003" x2="15.4488887394336" y2="19.3882285676539"/>
    <line x1="15.4488887394336" y1="19.3882285676539" x2="15.2990381056767" y2="19.7500000000001"/>
    <line x1="15.2990381056767" y1="19.7500000000001" x2="15.0606601717799" y2="20.0606601717801"/>
    <line x1="15.0606601717799" y1="20.0606601717801" x2="14.7500000000001" y2="20.299038105677"/>
    <line x1="14.7500000000001" y1="20.299038105677" x2="14.3882285676538" y2="20.4488887394339"/>
    <line x1="14.3882285676538" y1="20.4488887394339" x2="14.0" y2="20.5000000000002"/>
    <line x1="14.0" y1="20.5000000000002" x2="13.6117714323462" y2="20.4488887394339"/>
    <line x1="13.6117714323462" y1="20.4488887394339" x2="13.25" y2="20.2990381056772"/>
    <line x1="13.25" y1="20.2990381056772" x2="12.9393398282201" y2="20.0606601717802"/>
    <line x1="12.9393398282201" y1="20.0606601717802" x2="12.7009618943233" y2="19.7500000000002"/>
    <line x1="12.7009618943233" y1="19.7500000000002" x2="12.5511112605664" y2="19.388228567654"/>
    <line x1="12.5511112605664" y1="19.388228567654" x2="12.5" y2="19.0000000000003"/>
    <line x1="12.5" y1="19.0000000000003" x2="12.5511112605664" y2="18.6117714323467"/>
    <line x1="12.5511112605664" y1="18.6117714323467" x2="12.7009618943233" y2="18.2500000000002"/>
    <line x1="12.7009618943233" y1="18.2500000000002" x2="12.9393398282201" y2="17.9393398282205"/>
    <line x1="12.9393398282201" y1="17.9393398282205" x2="13.25" y2="17.7009618943236"/>
    <line x1="13.25" y1="17.7009618943236" x2="13.6117714323462" y2="17.5511112605665"/>
    <line x1="13.6117714323462" y1="17.5511112605665" x2="14.0" y2="17.5000000000002"/>
    <line x1="14.0" y1="17.5000000000002" x2="14.3882285676538" y2="17.5511112605666"/>
    <line x1="14.3882285676538" y1="17.5511112605666" x2="14.7500000000001" y2="17.7009618943235"/>
  </g>
</svg>
