<?xml version="1.0" standalone="no"?>
<!DOCTYPE svg PUBLIC "-//W3C//DTD SVG 1.1//EN" "http://www.w3.org/Graphics/SVG/1.1/DTD/svg11.dtd">
<svg width="136.0002mm" height="36.0002000000003mm"
 viewBox="0 0 136.0002 36.0002000000003"
 xmlns="http://www.w3.org/2000/svg" version="1.1"
 xmlns:xlink="http://www.w3.org/1999/xlink">
<desc>Output from Flights of Ideas SVG Sketchup Plugin</desc>

  <g id="face0" fill="none" stroke="rgb(0,0,255)" stroke-width="1" stroke-miterlimit="4" stroke-dasharray="none" stroke-linejoin="round" stroke-linecap="round">
    <line x1="133.0001" y1="3.00010000000023" x2="123.0001" y2="3.00010000000023"/>
    <line x1="123.0001" y1="3.00010000000023" x2="123.0001" y2="0.000100000000184741"/>
    <line x1="123.0001" y1="0.000100000000184741" x2="113.0001" y2="0.000100000000191847"/>
    <line x1="113.0001" y1="0.000100000000191847" x2="113.0001" y2="3.00010000000023"/>
    <line x1="113.0001" y1="3.00010000000023" x2="73.0000999999999" y2="3.00010000000024"/>
    <line x1="73.0000999999999" y1="3.00010000000024" x2="73.0000999999999" y2="0.000100000000191847"/>
    <line x1="73.0000999999999" y1="0.000100000000191847" x2="63.0001" y2="0.000100000000120792"/>
    <line x1="63.0001" y1="0.000100000000120792" x2="63.0001" y2="3.00010000000025"/>
    <line x1="63.0001" y1="3.00010000000025" x2="23.0001" y2="3.00010000000025"/>
    <line x1="23.0001" y1="3.00010000000025" x2="23.0001" y2="0.0001"/>
    <line x1="23.0001" y1="0.0001" x2="13.0001" y2="0.000100000000468958"/>
    <line x1="13.0001" y1="0.000100000000468958" x2="13.0001" y2="3.00010000000025"/>
    <line x1="13.0001" y1="3.00010000000025" x2="8.0001" y2="3.00010000000025"/>
    <line x1="8.0001" y1="3.00010000000025" x2="8.0001" y2="8.00010000000001"/>
    <line x1="8.0001" y1="8.00010000000001" x2="3.0001" y2="8.00010000000023"/>
    <line x1="3.0001" y1="8.00010000000023" x2="3.00010000000011" y2="13.0001000000006"/>
    <line x1="3.00010000000011" y1="13.0001000000006" x2="0.0001" y2="13.0001000000004"/>
    <line x1="0.0001" y1="13.0001000000004" x2="0.0001" y2="23.0001000000002"/>
    <line x1="0.0001" y1="23.0001000000002" x2="3.0001" y2="23.0001000000002"/>
    <line x1="3.0001" y1="23.0001000000002" x2="3.0001" y2="33.0001000000003"/>
    <line x1="3.0001" y1="33.0001000000003" x2="13.0001" y2="33.0001000000003"/>
    <line x1="13.0001" y1="33.0001000000003" x2="13.0001" y2="36.0001000000003"/>
    <line x1="13.0001" y1="36.0001000000003" x2="23.0001" y2="36.0001000000003"/>
    <line x1="23.0001" y1="36.0001000000003" x2="23.0001" y2="33.0001000000003"/>
    <line x1="23.0001" y1="33.0001000000003" x2="63.0001" y2="33.0001000000003"/>
    <line x1="63.0001" y1="33.0001000000003" x2="63.0001" y2="36.0001000000003"/>
    <line x1="63.0001" y1="36.0001000000003" x2="73.0001000000001" y2="36.0001000000003"/>
    <line x1="73.0001000000001" y1="36.0001000000003" x2="73.0001000000001" y2="33.0001000000003"/>
    <line x1="73.0001000000001" y1="33.0001000000003" x2="113.0001" y2="33.0001000000003"/>
    <line x1="113.0001" y1="33.0001000000003" x2="113.0001" y2="36.0001000000003"/>
    <line x1="113.0001" y1="36.0001000000003" x2="123.0001" y2="36.0001000000003"/>
    <line x1="123.0001" y1="36.0001000000003" x2="123.0001" y2="33.0001000000003"/>
    <line x1="123.0001" y1="33.0001000000003" x2="133.0001" y2="33.0001000000003"/>
    <line x1="133.0001" y1="33.0001000000003" x2="133.0001" y2="23.0001000000002"/>
    <line x1="133.0001" y1="23.0001000000002" x2="136.0001" y2="23.0001000000002"/>
    <line x1="136.0001" y1="23.0001000000002" x2="136.0001" y2="13.0001000000003"/>
    <line x1="136.0001" y1="13.0001000000003" x2="133.0001" y2="13.0001000000003"/>
    <line x1="133.0001" y1="13.0001000000003" x2="133.0001" y2="3.00010000000023"/>
    <line x1="102.5001" y1="11.0001000000002" x2="103.5001" y2="11.0001000000002"/>
    <line x1="103.5001" y1="11.0001000000002" x2="103.5001" y2="25.0001000000003"/>
    <line x1="103.5001" y1="25.0001000000003" x2="102.5001" y2="25.0001000000003"/>
    <line x1="102.5001" y1="25.0001000000003" x2="102.5001" y2="11.0001000000002"/>
    <line x1="108.100099938366" y1="13.0500998181182" x2="111.100099938366" y2="13.0500998181181"/>
    <line x1="111.100099938366" y1="13.0500998181181" x2="111.100099938366" y2="23.1000996362359"/>
    <line x1="111.100099938366" y1="23.1000996362359" x2="108.100099938366" y2="23.1000996362359"/>
    <line x1="108.100099938366" y1="23.1000996362359" x2="108.100099938366" y2="13.0500998181182"/>
    <line x1="94.9001000616345" y1="23.1000996362359" x2="94.9001000616345" y2="13.0500998181181"/>
    <line x1="94.9001000616345" y1="13.0500998181181" x2="97.9001000616345" y2="13.0500998181181"/>
    <line x1="97.9001000616345" y1="13.0500998181181" x2="97.9001000616345" y2="23.1000996362359"/>
    <line x1="97.9001000616345" y1="23.1000996362359" x2="94.9001000616345" y2="23.1000996362359"/>
  </g>
</svg>
