<?xml version="1.0" standalone="no"?>
<!DOCTYPE svg PUBLIC "-//W3C//DTD SVG 1.1//EN" "http://www.w3.org/Graphics/SVG/1.1/DTD/svg11.dtd">
<svg width="142.0002mm" height="199.0002mm"
 viewBox="0 0 142.0002 199.0002"
 xmlns="http://www.w3.org/2000/svg" version="1.1"
 xmlns:xlink="http://www.w3.org/1999/xlink">
<desc>Output from Flights of Ideas SVG Sketchup Plugin</desc>

  <g id="face0" fill="none" stroke="rgb(0,0,255)" stroke-width="1" stroke-miterlimit="4" stroke-dasharray="none" stroke-linejoin="round" stroke-linecap="round">
    <line x1="142.0001" y1="0.0001" x2="0.0001" y2="0.0001"/>
    <line x1="0.0001" y1="0.0001" x2="0.0001" y2="199.0001"/>
    <line x1="0.0001" y1="199.0001" x2="142.0001" y2="199.0001"/>
    <line x1="142.0001" y1="199.0001" x2="142.0001" y2="0.0001"/>
    <line x1="126.0001" y1="9.00010000000003" x2="106.0001" y2="9.00010000000003"/>
    <line x1="106.0001" y1="9.00010000000003" x2="106.0001" y2="6.0001"/>
    <line x1="106.0001" y1="6.0001" x2="126.0001" y2="6.0001"/>
    <line x1="126.0001" y1="6.0001" x2="126.0001" y2="9.00010000000003"/>
    <line x1="136.0001" y1="33.0001" x2="139.0001" y2="33.0001"/>
    <line x1="139.0001" y1="33.0001" x2="139.0001" y2="53.0001"/>
    <line x1="139.0001" y1="53.0001" x2="136.0001" y2="53.0001"/>
    <line x1="136.0001" y1="53.0001" x2="136.0001" y2="33.0001"/>
    <line x1="16.0000999999999" y1="6.00010000000017" x2="36.0001000000001" y2="6.00009999999977"/>
    <line x1="36.0001000000001" y1="6.00009999999977" x2="36.0001000000001" y2="9.00010000000003"/>
    <line x1="36.0001000000001" y1="9.00010000000003" x2="16.0000999999999" y2="9.00010000000003"/>
    <line x1="16.0000999999999" y1="9.00010000000003" x2="16.0000999999999" y2="6.00010000000017"/>
    <line x1="3.00009999999994" y1="53.0001" x2="3.00009999999994" y2="33.0001"/>
    <line x1="3.00009999999994" y1="33.0001" x2="6.0001" y2="33.0001"/>
    <line x1="6.0001" y1="33.0001" x2="6.0001" y2="53.0001"/>
    <line x1="6.0001" y1="53.0001" x2="3.00009999999994" y2="53.0001"/>
    <line x1="3.00009999999994" y1="169.0001" x2="3.00009999999994" y2="149.0001"/>
    <line x1="3.00009999999994" y1="149.0001" x2="6.0001" y2="149.0001"/>
    <line x1="6.0001" y1="149.0001" x2="6.0001" y2="169.0001"/>
    <line x1="6.0001" y1="169.0001" x2="3.00009999999994" y2="169.0001"/>
    <line x1="46.0000999999999" y1="196.0001" x2="46.0000999999999" y2="193.0001"/>
    <line x1="46.0000999999999" y1="193.0001" x2="66.0000999999999" y2="193.0001"/>
    <line x1="66.0000999999999" y1="193.0001" x2="66.0000999999999" y2="196.0001"/>
    <line x1="66.0000999999999" y1="196.0001" x2="46.0000999999999" y2="196.0001"/>
    <line x1="106.0001" y1="193.0001" x2="106.0001" y2="196.0001"/>
    <line x1="106.0001" y1="196.0001" x2="86.0001000000001" y2="196.0001"/>
    <line x1="86.0001000000001" y1="196.0001" x2="86.0001000000001" y2="193.0001"/>
    <line x1="86.0001000000001" y1="193.0001" x2="106.0001" y2="193.0001"/>
    <line x1="136.0001" y1="189.0001" x2="136.0001" y2="159.0001"/>
    <line x1="136.0001" y1="159.0001" x2="139.0001" y2="159.0001"/>
    <line x1="139.0001" y1="159.0001" x2="139.0001" y2="189.0001"/>
    <line x1="139.0001" y1="189.0001" x2="136.0001" y2="189.0001"/>
    <line x1="116.0001" y1="96.0001" x2="116.0001" y2="93.0001000000001"/>
    <line x1="116.0001" y1="93.0001000000001" x2="126.0001" y2="93.0001000000001"/>
    <line x1="126.0001" y1="93.0001000000001" x2="126.0001" y2="96.0001"/>
    <line x1="126.0001" y1="96.0001" x2="116.0001" y2="96.0001"/>
    <line x1="66.0001000000001" y1="96.0001" x2="66.0001000000001" y2="93.0001000000001"/>
    <line x1="66.0001000000001" y1="93.0001000000001" x2="76.0001000000001" y2="93.0001000000001"/>
    <line x1="76.0001000000001" y1="93.0001000000001" x2="76.0001000000001" y2="96.0001"/>
    <line x1="76.0001000000001" y1="96.0001" x2="66.0001000000001" y2="96.0001"/>
    <line x1="26.0000999999999" y1="93.0001" x2="26.0000999999999" y2="96.0001"/>
    <line x1="26.0000999999999" y1="96.0001" x2="16.0000999999999" y2="96.0001"/>
    <line x1="16.0000999999999" y1="96.0001" x2="16.0001000000001" y2="93.0001000000001"/>
    <line x1="16.0001000000001" y1="93.0001000000001" x2="26.0000999999999" y2="93.0001"/>
    <line x1="73.2759429931468" y1="22.6952533791008" x2="75.3972633367068" y2="24.8165737226602"/>
    <line x1="75.3972633367068" y1="24.8165737226602" x2="68.3261955248423" y2="31.8876415345266"/>
    <line x1="68.3261955248423" y1="31.8876415345266" x2="66.2048751812823" y2="29.7663211909672"/>
    <line x1="66.2048751812823" y1="29.7663211909672" x2="73.2759429931468" y2="22.6952533791008"/>
    <line x1="44.9916717456885" y1="50.9795246265664" x2="47.1129920892484" y2="53.1008449701257"/>
    <line x1="47.1129920892484" y1="53.1008449701257" x2="40.0419242773838" y2="60.1719127819921"/>
    <line x1="40.0419242773838" y1="60.1719127819921" x2="37.9206039338239" y2="58.0505924384327"/>
    <line x1="37.9206039338239" y1="58.0505924384327" x2="44.9916717456885" y2="50.9795246265664"/>
    <line x1="100.900100061635" y1="121.000099999999" x2="111.100099938365" y2="121.000099999999"/>
    <line x1="111.100099938365" y1="121.000099999999" x2="111.100099938365" y2="131.200099876731"/>
    <line x1="111.100099938365" y1="131.200099876731" x2="100.900100061635" y2="131.200099876731"/>
    <line x1="100.900100061635" y1="131.200099876731" x2="100.900100061635" y2="121.000099999999"/>
    <line x1="110.850099938366" y1="155.2001" x2="110.850099938366" y2="158.200099876732"/>
    <line x1="110.850099938366" y1="158.200099876732" x2="100.850099938366" y2="158.200099876732"/>
    <line x1="100.850099938366" y1="158.200099876732" x2="100.850099938365" y2="155.2001"/>
    <line x1="100.850099938365" y1="155.2001" x2="110.850099938366" y2="155.2001"/>
    <line x1="111.100099938366" y1="135.200099876732" x2="114.100099938365" y2="135.200099876732"/>
    <line x1="114.100099938365" y1="135.200099876732" x2="114.100099938365" y2="145.200099876732"/>
    <line x1="114.100099938365" y1="145.200099876732" x2="111.100099938366" y2="145.200099876732"/>
    <line x1="111.100099938366" y1="145.200099876732" x2="111.100099938366" y2="135.200099876732"/>
    <line x1="100.900100061635" y1="145.2001" x2="97.9001000616344" y2="145.2001"/>
    <line x1="97.9001000616344" y1="145.2001" x2="97.9001000616344" y2="135.200100000001"/>
    <line x1="97.9001000616344" y1="135.200100000001" x2="100.900100061634" y2="135.200100000001"/>
    <line x1="100.900100061634" y1="135.200100000001" x2="100.900100061635" y2="145.2001"/>
    <line x1="69.5512112605664" y1="7.88832856765393" x2="69.5000999999999" y2="7.50009999999994"/>
    <line x1="69.5000999999999" y1="7.50009999999994" x2="69.5512112605664" y2="7.1118714323463"/>
    <line x1="69.5512112605664" y1="7.1118714323463" x2="69.7010618943234" y2="6.7501"/>
    <line x1="69.7010618943234" y1="6.7501" x2="69.9394398282202" y2="6.43943982822023"/>
    <line x1="69.9394398282202" y1="6.43943982822023" x2="70.2500999999999" y2="6.20106189432331"/>
    <line x1="70.2500999999999" y1="6.20106189432331" x2="70.6118714323462" y2="6.0512112605665"/>
    <line x1="70.6118714323462" y1="6.0512112605665" x2="71.0000999999999" y2="6.0001"/>
    <line x1="71.0000999999999" y1="6.0001" x2="71.3883285676537" y2="6.05121126056627"/>
    <line x1="71.3883285676537" y1="6.05121126056627" x2="71.7501000000001" y2="6.20106189432326"/>
    <line x1="71.7501000000001" y1="6.20106189432326" x2="72.0607601717798" y2="6.43943982822023"/>
    <line x1="72.0607601717798" y1="6.43943982822023" x2="72.2991381056766" y2="6.75009999999997"/>
    <line x1="72.2991381056766" y1="6.75009999999997" x2="72.4489887394336" y2="7.11187143234627"/>
    <line x1="72.4489887394336" y1="7.11187143234627" x2="72.5001000000001" y2="7.50010000000003"/>
    <line x1="72.5001000000001" y1="7.50010000000003" x2="72.4489887394336" y2="7.88832856765381"/>
    <line x1="72.4489887394336" y1="7.88832856765381" x2="72.2991381056766" y2="8.25010000000009"/>
    <line x1="72.2991381056766" y1="8.25010000000009" x2="72.0607601717798" y2="8.56076017177983"/>
    <line x1="72.0607601717798" y1="8.56076017177983" x2="71.7501000000001" y2="8.79913810567666"/>
    <line x1="71.7501000000001" y1="8.79913810567666" x2="71.3883285676537" y2="8.94898873943361"/>
    <line x1="71.3883285676537" y1="8.94898873943361" x2="71.0000999999999" y2="9.00010000000003"/>
    <line x1="71.0000999999999" y1="9.00010000000003" x2="70.6118714323462" y2="8.94898873943367"/>
    <line x1="70.6118714323462" y1="8.94898873943367" x2="70.2500999999999" y2="8.7991381056766"/>
    <line x1="70.2500999999999" y1="8.7991381056766" x2="69.9394398282202" y2="8.56076017177986"/>
    <line x1="69.9394398282202" y1="8.56076017177986" x2="69.7010618943234" y2="8.25010000000009"/>
    <line x1="69.7010618943234" y1="8.25010000000009" x2="69.5512112605664" y2="7.88832856765393"/>
    <line x1="137.888328567654" y1="22.9489887394336" x2="137.5001" y2="23.0001"/>
    <line x1="137.5001" y1="23.0001" x2="137.111871432346" y2="22.9489887394336"/>
    <line x1="137.111871432346" y1="22.9489887394336" x2="136.7501" y2="22.7991381056767"/>
    <line x1="136.7501" y1="22.7991381056767" x2="136.43943982822" y2="22.5607601717799"/>
    <line x1="136.43943982822" y1="22.5607601717799" x2="136.201061894323" y2="22.2501"/>
    <line x1="136.201061894323" y1="22.2501" x2="136.051211260566" y2="21.8883285676538"/>
    <line x1="136.051211260566" y1="21.8883285676538" x2="136.0001" y2="21.5001"/>
    <line x1="136.0001" y1="21.5001" x2="136.051211260566" y2="21.1118714323462"/>
    <line x1="136.051211260566" y1="21.1118714323462" x2="136.201061894323" y2="20.7501"/>
    <line x1="136.201061894323" y1="20.7501" x2="136.43943982822" y2="20.4394398282201"/>
    <line x1="136.43943982822" y1="20.4394398282201" x2="136.7501" y2="20.2010618943233"/>
    <line x1="136.7501" y1="20.2010618943233" x2="137.111871432346" y2="20.0512112605664"/>
    <line x1="137.111871432346" y1="20.0512112605664" x2="137.5001" y2="20.0001"/>
    <line x1="137.5001" y1="20.0001" x2="137.888328567654" y2="20.0512112605664"/>
    <line x1="137.888328567654" y1="20.0512112605664" x2="138.2501" y2="20.2010618943233"/>
    <line x1="138.2501" y1="20.2010618943233" x2="138.56076017178" y2="20.4394398282201"/>
    <line x1="138.56076017178" y1="20.4394398282201" x2="138.799138105677" y2="20.7501"/>
    <line x1="138.799138105677" y1="20.7501" x2="138.948988739434" y2="21.1118714323462"/>
    <line x1="138.948988739434" y1="21.1118714323462" x2="139.0001" y2="21.5001"/>
    <line x1="139.0001" y1="21.5001" x2="138.948988739434" y2="21.8883285676538"/>
    <line x1="138.948988739434" y1="21.8883285676538" x2="138.799138105677" y2="22.2501"/>
    <line x1="138.799138105677" y1="22.2501" x2="138.56076017178" y2="22.5607601717799"/>
    <line x1="138.56076017178" y1="22.5607601717799" x2="138.2501" y2="22.7991381056767"/>
    <line x1="138.2501" y1="22.7991381056767" x2="137.888328567654" y2="22.9489887394336"/>
    <line x1="137.888328567654" y1="148.948988739434" x2="137.5001" y2="149.0001"/>
    <line x1="137.5001" y1="149.0001" x2="137.111871432346" y2="148.948988739434"/>
    <line x1="137.111871432346" y1="148.948988739434" x2="136.7501" y2="148.799138105677"/>
    <line x1="136.7501" y1="148.799138105677" x2="136.43943982822" y2="148.56076017178"/>
    <line x1="136.43943982822" y1="148.56076017178" x2="136.201061894323" y2="148.2501"/>
    <line x1="136.201061894323" y1="148.2501" x2="136.051211260566" y2="147.888328567654"/>
    <line x1="136.051211260566" y1="147.888328567654" x2="136.0001" y2="147.5001"/>
    <line x1="136.0001" y1="147.5001" x2="136.051211260566" y2="147.111871432346"/>
    <line x1="136.051211260566" y1="147.111871432346" x2="136.201061894323" y2="146.7501"/>
    <line x1="136.201061894323" y1="146.7501" x2="136.43943982822" y2="146.43943982822"/>
    <line x1="136.43943982822" y1="146.43943982822" x2="136.7501" y2="146.201061894323"/>
    <line x1="136.7501" y1="146.201061894323" x2="137.111871432346" y2="146.051211260566"/>
    <line x1="137.111871432346" y1="146.051211260566" x2="137.5001" y2="146.0001"/>
    <line x1="137.5001" y1="146.0001" x2="137.888328567654" y2="146.051211260566"/>
    <line x1="137.888328567654" y1="146.051211260566" x2="138.2501" y2="146.201061894323"/>
    <line x1="138.2501" y1="146.201061894323" x2="138.56076017178" y2="146.43943982822"/>
    <line x1="138.56076017178" y1="146.43943982822" x2="138.799138105677" y2="146.7501"/>
    <line x1="138.799138105677" y1="146.7501" x2="138.948988739434" y2="147.111871432346"/>
    <line x1="138.948988739434" y1="147.111871432346" x2="139.0001" y2="147.5001"/>
    <line x1="139.0001" y1="147.5001" x2="138.948988739434" y2="147.888328567654"/>
    <line x1="138.948988739434" y1="147.888328567654" x2="138.799138105677" y2="148.2501"/>
    <line x1="138.799138105677" y1="148.2501" x2="138.56076017178" y2="148.56076017178"/>
    <line x1="138.56076017178" y1="148.56076017178" x2="138.2501" y2="148.799138105677"/>
    <line x1="138.2501" y1="148.799138105677" x2="137.888328567654" y2="148.948988739434"/>
    <line x1="123.051211260566" y1="194.888328567654" x2="123.0001" y2="194.5001"/>
    <line x1="123.0001" y1="194.5001" x2="123.051211260566" y2="194.111871432346"/>
    <line x1="123.051211260566" y1="194.111871432346" x2="123.201061894323" y2="193.7501"/>
    <line x1="123.201061894323" y1="193.7501" x2="123.43943982822" y2="193.43943982822"/>
    <line x1="123.43943982822" y1="193.43943982822" x2="123.7501" y2="193.201061894323"/>
    <line x1="123.7501" y1="193.201061894323" x2="124.111871432346" y2="193.051211260566"/>
    <line x1="124.111871432346" y1="193.051211260566" x2="124.5001" y2="193.0001"/>
    <line x1="124.5001" y1="193.0001" x2="124.888328567654" y2="193.051211260566"/>
    <line x1="124.888328567654" y1="193.051211260566" x2="125.2501" y2="193.201061894323"/>
    <line x1="125.2501" y1="193.201061894323" x2="125.56076017178" y2="193.43943982822"/>
    <line x1="125.56076017178" y1="193.43943982822" x2="125.799138105677" y2="193.7501"/>
    <line x1="125.799138105677" y1="193.7501" x2="125.948988739434" y2="194.111871432346"/>
    <line x1="125.948988739434" y1="194.111871432346" x2="126.0001" y2="194.5001"/>
    <line x1="126.0001" y1="194.5001" x2="125.948988739434" y2="194.888328567654"/>
    <line x1="125.948988739434" y1="194.888328567654" x2="125.799138105677" y2="195.2501"/>
    <line x1="125.799138105677" y1="195.2501" x2="125.56076017178" y2="195.56076017178"/>
    <line x1="125.56076017178" y1="195.56076017178" x2="125.2501" y2="195.799138105677"/>
    <line x1="125.2501" y1="195.799138105677" x2="124.888328567654" y2="195.948988739434"/>
    <line x1="124.888328567654" y1="195.948988739434" x2="124.5001" y2="196.0001"/>
    <line x1="124.5001" y1="196.0001" x2="124.111871432346" y2="195.948988739434"/>
    <line x1="124.111871432346" y1="195.948988739434" x2="123.7501" y2="195.799138105677"/>
    <line x1="123.7501" y1="195.799138105677" x2="123.43943982822" y2="195.56076017178"/>
    <line x1="123.43943982822" y1="195.56076017178" x2="123.201061894323" y2="195.2501"/>
    <line x1="123.201061894323" y1="195.2501" x2="123.051211260566" y2="194.888328567654"/>
    <line x1="4.11187143234613" y1="179.051211260566" x2="4.50009999999994" y2="179.0001"/>
    <line x1="4.50009999999994" y1="179.0001" x2="4.88832856765375" y2="179.051211260566"/>
    <line x1="4.88832856765375" y1="179.051211260566" x2="5.25009999999994" y2="179.201061894323"/>
    <line x1="5.25009999999994" y1="179.201061894323" x2="5.56076017177977" y2="179.43943982822"/>
    <line x1="5.56076017177977" y1="179.43943982822" x2="5.79913810567652" y2="179.7501"/>
    <line x1="5.79913810567652" y1="179.7501" x2="5.94898873943364" y2="180.111871432346"/>
    <line x1="5.94898873943364" y1="180.111871432346" x2="6.0001" y2="180.5001"/>
    <line x1="6.0001" y1="180.5001" x2="5.94898873943358" y2="180.888328567654"/>
    <line x1="5.94898873943358" y1="180.888328567654" x2="5.79913810567663" y2="181.2501"/>
    <line x1="5.79913810567663" y1="181.2501" x2="5.56076017177983" y2="181.56076017178"/>
    <line x1="5.56076017177983" y1="181.56076017178" x2="5.25009999999994" y2="181.799138105677"/>
    <line x1="5.25009999999994" y1="181.799138105677" x2="4.88832856765375" y2="181.948988739434"/>
    <line x1="4.88832856765375" y1="181.948988739434" x2="4.50009999999994" y2="182.0001"/>
    <line x1="4.50009999999994" y1="182.0001" x2="4.11187143234624" y2="181.948988739434"/>
    <line x1="4.11187143234624" y1="181.948988739434" x2="3.75009999999994" y2="181.799138105677"/>
    <line x1="3.75009999999994" y1="181.799138105677" x2="3.43943982822017" y2="181.56076017178"/>
    <line x1="3.43943982822017" y1="181.56076017178" x2="3.20106189432331" y2="181.2501"/>
    <line x1="3.20106189432331" y1="181.2501" x2="3.05121126056647" y2="180.888328567654"/>
    <line x1="3.05121126056647" y1="180.888328567654" x2="3.00009999999994" y2="180.5001"/>
    <line x1="3.00009999999994" y1="180.5001" x2="3.05121126056636" y2="180.111871432346"/>
    <line x1="3.05121126056636" y1="180.111871432346" x2="3.20106189432331" y2="179.7501"/>
    <line x1="3.20106189432331" y1="179.7501" x2="3.43943982822017" y2="179.43943982822"/>
    <line x1="3.43943982822017" y1="179.43943982822" x2="3.75009999999994" y2="179.201061894323"/>
    <line x1="3.75009999999994" y1="179.201061894323" x2="4.11187143234613" y2="179.051211260566"/>
    <line x1="4.88832856765375" y1="108.948988739434" x2="4.50009999999994" y2="109.0001"/>
    <line x1="4.50009999999994" y1="109.0001" x2="4.11187143234624" y2="108.948988739434"/>
    <line x1="4.11187143234624" y1="108.948988739434" x2="3.75009999999994" y2="108.799138105677"/>
    <line x1="3.75009999999994" y1="108.799138105677" x2="3.43943982822017" y2="108.56076017178"/>
    <line x1="3.43943982822017" y1="108.56076017178" x2="3.20106189432331" y2="108.2501"/>
    <line x1="3.20106189432331" y1="108.2501" x2="3.05121126056636" y2="107.888328567654"/>
    <line x1="3.05121126056636" y1="107.888328567654" x2="3.00009999999994" y2="107.5001"/>
    <line x1="3.00009999999994" y1="107.5001" x2="3.05121126056636" y2="107.111871432346"/>
    <line x1="3.05121126056636" y1="107.111871432346" x2="3.20106189432331" y2="106.7501"/>
    <line x1="3.20106189432331" y1="106.7501" x2="3.43943982822017" y2="106.43943982822"/>
    <line x1="3.43943982822017" y1="106.43943982822" x2="3.75009999999994" y2="106.201061894323"/>
    <line x1="3.75009999999994" y1="106.201061894323" x2="4.11187143234624" y2="106.051211260566"/>
    <line x1="4.11187143234624" y1="106.051211260566" x2="4.50009999999994" y2="106.0001"/>
    <line x1="4.50009999999994" y1="106.0001" x2="4.88832856765375" y2="106.051211260566"/>
    <line x1="4.88832856765375" y1="106.051211260566" x2="5.25009999999994" y2="106.201061894323"/>
    <line x1="5.25009999999994" y1="106.201061894323" x2="5.56076017177977" y2="106.43943982822"/>
    <line x1="5.56076017177977" y1="106.43943982822" x2="5.79913810567663" y2="106.7501"/>
    <line x1="5.79913810567663" y1="106.7501" x2="5.94898873943364" y2="107.111871432346"/>
    <line x1="5.94898873943364" y1="107.111871432346" x2="6.0001" y2="107.5001"/>
    <line x1="6.0001" y1="107.5001" x2="5.94898873943364" y2="107.888328567654"/>
    <line x1="5.94898873943364" y1="107.888328567654" x2="5.79913810567652" y2="108.2501"/>
    <line x1="5.79913810567652" y1="108.2501" x2="5.56076017177983" y2="108.56076017178"/>
    <line x1="5.56076017177983" y1="108.56076017178" x2="5.25009999999994" y2="108.799138105677"/>
    <line x1="5.25009999999994" y1="108.799138105677" x2="4.88832856765375" y2="108.948988739434"/>
    <line x1="4.88832856765375" y1="22.9489887394335" x2="4.50009999999994" y2="23.0000999999999"/>
    <line x1="4.50009999999994" y1="23.0000999999999" x2="4.11187143234613" y2="22.9489887394335"/>
    <line x1="4.11187143234613" y1="22.9489887394335" x2="3.75009999999994" y2="22.7991381056768"/>
    <line x1="3.75009999999994" y1="22.7991381056768" x2="3.43943982822017" y2="22.5607601717798"/>
    <line x1="3.43943982822017" y1="22.5607601717798" x2="3.20106189432331" y2="22.2501"/>
    <line x1="3.20106189432331" y1="22.2501" x2="3.05121126056636" y2="21.8883285676538"/>
    <line x1="3.05121126056636" y1="21.8883285676538" x2="3.00009999999994" y2="21.5001"/>
    <line x1="3.00009999999994" y1="21.5001" x2="3.05121126056636" y2="21.1118714323462"/>
    <line x1="3.05121126056636" y1="21.1118714323462" x2="3.20106189432331" y2="20.7501"/>
    <line x1="3.20106189432331" y1="20.7501" x2="3.43943982822017" y2="20.4394398282201"/>
    <line x1="3.43943982822017" y1="20.4394398282201" x2="3.75009999999994" y2="20.2010618943234"/>
    <line x1="3.75009999999994" y1="20.2010618943234" x2="4.11187143234624" y2="20.0512112605664"/>
    <line x1="4.11187143234624" y1="20.0512112605664" x2="4.50009999999994" y2="20.0001"/>
    <line x1="4.50009999999994" y1="20.0001" x2="4.88832856765375" y2="20.0512112605664"/>
    <line x1="4.88832856765375" y1="20.0512112605664" x2="5.25009999999994" y2="20.2010618943234"/>
    <line x1="5.25009999999994" y1="20.2010618943234" x2="5.56076017177977" y2="20.4394398282201"/>
    <line x1="5.56076017177977" y1="20.4394398282201" x2="5.79913810567663" y2="20.7501000000001"/>
    <line x1="5.79913810567663" y1="20.7501000000001" x2="5.94898873943364" y2="21.1118714323462"/>
    <line x1="5.94898873943364" y1="21.1118714323462" x2="6.0001" y2="21.5001"/>
    <line x1="6.0001" y1="21.5001" x2="5.94898873943364" y2="21.8883285676538"/>
    <line x1="5.94898873943364" y1="21.8883285676538" x2="5.79913810567663" y2="22.2501"/>
    <line x1="5.79913810567663" y1="22.2501" x2="5.56076017177983" y2="22.5607601717799"/>
    <line x1="5.56076017177983" y1="22.5607601717799" x2="5.25009999999994" y2="22.7991381056768"/>
    <line x1="5.25009999999994" y1="22.7991381056768" x2="4.88832856765375" y2="22.9489887394335"/>
  </g>
</svg>
