<?xml version="1.0" encoding="utf-8"?>
<!-- Generator: Adobe Illustrator 18.1.1, SVG Export Plug-In . SVG Version: 6.00 Build 0)  -->
<svg version="1.1" id="Capa_1" xmlns="http://www.w3.org/2000/svg" xmlns:xlink="http://www.w3.org/1999/xlink" x="0px" y="0px"
	 viewBox="-49 290 512 177" enable-background="new -49 290 512 177" xml:space="preserve">
<path fill="none" d="M562.9,228.4c0.1-0.5,0.3-0.8,0.5-1s0.3-0.4,0.5-0.6c-0.5,0.7-1,1.3-1.7,1.8l0,0
	C562.4,228.4,562.6,228.4,562.9,228.4z"/>
<g>
	<path fill="#E6ECED" d="M103.4,354.9"/>
	<path fill="#E6ECED" d="M87.3,381c0,17.8-14.1,32.3-31.9,32.3c-19,0-32.3-13.8-32.3-32.3c0-17.8,14.5-31.1,32.3-31.1
		C73.2,349.8,87.3,363.1,87.3,381z M54.1,360.4c-11.4,0-18.3,7.7-18.3,19.7c0,12,9.6,22.6,19.6,22.6c12,0,19.2-6.8,19.2-19.6
		C74.7,371,66.2,360.4,54.1,360.4z"/>
	<path fill="#E6ECED" d="M276.8,381c0,17.8-14.1,32.3-31.9,32.3c-19,0-32.3-13.8-32.3-32.3c0-17.8,14.5-31.1,32.3-31.1
		C262.8,349.8,276.8,363.1,276.8,381z M243.7,360.4c-11.4,0-18.3,7.7-18.3,19.7c0,12,9.6,22.6,19.6,22.6c12,0,19.2-6.8,19.2-19.6
		C264.2,371,255.7,360.4,243.7,360.4z"/>
	<path fill="#E6ECED" d="M449.5,381c0,17.8-14.1,32.3-31.9,32.3c-19,0-32.3-13.8-32.3-32.3c0-17.8,14.5-31.1,32.3-31.1
		C435.4,349.8,449.5,363.1,449.5,381z M416.2,360.4c-11.4,0-18.3,7.7-18.3,19.7c0,12,9.6,22.6,19.6,22.6c12,0,19.2-6.8,19.2-19.6
		C436.8,371,428.2,360.4,416.2,360.4z"/>
	<path fill="#E6ECED" d="M138.4,353.2L138.4,353.2h-10.5c0.1,0.6,0.3,1,1.1,1.6c0.8,0.6,5.2,2,5.2,9.6l0,0V383c0,2-1.8-0.4-1.8-0.4
		l0,0L112.9,361c-1.4-2-0.3-4.5,0.4-5.5l0,0l0,0c0,0,0.1-0.2,0.3-0.5c0.1-0.1,0.2-0.2,0.2-0.4c0,0,0.3-0.4,0.5-0.7
		c0,0,0-0.1,0.1-0.1l0,0l0,0l0,0l0,0c0.1-0.2,0.1-0.4,0.2-0.6h-11.9H89.7c0.1,0.6,0.3,1,1.1,1.6c0.8,0.6,5.2,2,5.2,9.6v0.3v37.2l0,0
		c0,7.6-4.3,9-5.2,9.6c-0.8,0.6-1.1,0.9-1.1,1.6h13l0,0h9.8c-0.1-0.6-0.3-1-1.1-1.6c-0.8-0.6-5.2-2-5.2-9.6v-27.1
		c0-2,1.8,0.4,1.8,0.4l33.7,37.5c0,0,1.3,1.5,2.3,1.5c1,0,1-1.9,1-1.9v-47.7l0,0c0-7.6,4.3-9,5.2-9.6c0.8-0.6,1.1-0.9,1.1-1.6h-12.9
		V353.2z"/>
	<path fill="#E6ECED" d="M329.9,394.5c-0.3-0.1-0.7-0.1-0.9,0.2c-0.8,0.8-6.5,9.3-16.1,9.3l-11.7-0.1c0,0-2.3,0.2-2.3-2.5v-37.1
		c0-7.6,4.3-9,5.2-9.6c0.8-0.6,1.1-0.9,1.1-1.6h-13h-0.8h-13c0.1,0.6,0.3,1,1.1,1.6c0.8,0.6,5.2,2,5.2,9.6v37.4c0,7.6-4.3,9-5.2,9.6
		c-0.8,0.6-1.1,0.9-1.1,1.6h13h21.4c0,0,2.8,0,6.1,0.1l0,0c0,0,2.7,0.1,5.4,0.4c0.4,0,0.8,0.1,1.1,0.1l0,0c0,0,1.3,0.2,1.6-0.2
		c0.2-0.1,0.3-0.3,0.5-0.5c0.2-0.4,0.3-0.9,0.3-1.1v-0.1c0-0.2,0-0.3,0.1-0.5c0-0.4,0.1-0.8,0.1-1c0.3-2.4,0.7-5,0.8-5.4v-0.1l0,0
		c0.7-3.8,1.4-7.8,1.7-9.3C330.2,395.4,330.5,394.8,329.9,394.5z"/>
	<path fill="#E6ECED" d="M383.8,394.5c-0.3-0.1-0.7-0.1-0.9,0.2c-0.8,0.8-6.5,9.3-16.1,9.3l-11.7-0.1c0,0-2.3,0.2-2.3-2.5v-37.1
		c0-7.6,4.3-9,5.2-9.6c0.8-0.6,1.1-0.9,1.1-1.6h-13h-0.8h-13c0.1,0.6,0.3,1,1.1,1.6c0.8,0.6,5.2,2,5.2,9.6v37.4c0,7.6-4.3,9-5.2,9.6
		c-0.8,0.6-1.1,0.9-1.1,1.6h13h21.4c0,0,2.8,0,6.1,0.1l0,0c0,0,2.7,0.1,5.4,0.4c0.4,0,0.8,0.1,1.1,0.1l0,0c0,0,1.3,0.2,1.6-0.2
		c0.2-0.1,0.3-0.3,0.5-0.5c0.2-0.4,0.3-0.9,0.3-1.1v-0.1c0-0.2,0-0.3,0.1-0.5c0-0.4,0.1-0.8,0.1-1c0.3-2.4,0.7-5,0.8-5.4v-0.1l0,0
		c0.7-3.8,1.4-7.8,1.7-9.3C384.3,395.4,384.5,394.8,383.8,394.5z"/>
	<path fill="#E6ECED" d="M178.4,354.9h5C180.6,354.8,178.4,354.9,178.4,354.9z"/>
	<path fill="#E6ECED" d="M216.7,411.1c-0.1-0.8-1.1-0.6-1.1-0.6h-0.1c0,0-2.9,1-5.8-1.4l-0.5-0.5l-0.6-0.7l-0.6-0.8
		c-0.8-1.3-2.1-4-2.6-7.6l-0.1-0.8l-0.1-1.4v-0.8c0-0.8-0.1-2.6-0.7-4.5c-1.3-5.4-6-6.1-6.4-6.1c-2.5-0.7-5.8-0.8-7.6-0.9
		c0.1,0,0.1-0.1,0.2-0.1c0.4-0.1,16.4-3.2,16.4-15.2c0,0,0.4-3.6-1.7-7.2c-0.2-0.3-0.3-0.6-0.6-0.8c0,0,0,0,0-0.1
		c-0.4-0.6-0.8-1.1-1.3-1.7l0,0l0,0c-0.2-0.3-0.5-0.5-0.8-0.8c-1.6-1.5-5.4-4.5-13.2-5.5l0,0c-2.5-0.4-5.3-0.6-7.5-0.7h-5h-9.5h-0.8
		h-1.6h-11.3c0.1,0.6,0.3,1,1.1,1.6c0.8,0.6,5.2,2,5.2,9.6l0,0v2.2v35.1c0,7.6-4.3,9-5.2,9.6c-0.8,0.6-1.1,0.9-1.1,1.6h13h12.9
		c-0.1-0.6-0.3-1-1.1-1.6c-0.8-0.6-5.2-2-5.2-9.6l0.1-15.2v-10.2c0-1.2,0-11.1,0-12.6s-0.2-1.8,2.6-1.8c1.8,0,4.7,0,6.2,0
		c0.8,0,3.4,0.1,5.4,1.1l0,0c2.3,1.2,4.8,3.7,4.8,8.6c0,4.2-1.8,6.6-3.5,8c-1.5,1-3,1.5-4.1,1.8c-1.5,0.2-4.3,0.6-6.3,0.4
		c0,0-0.8-0.1-1.1,0.5c-0.2,0.5,0.1,0.8,0.1,0.8s0.4,0.5,1.1,0.8c0,0,2.1,0.9,4.1,3.1c2.6,2.6,6.6,7,10.3,15.3
		c0,0,5.4,12.7,15.3,12.7c0,0,5,0.2,7.5-2.3C216,412.5,216.8,411.9,216.7,411.1z"/>
	<path fill="#E6ECED" d="M7.3,381c0,0-0.9-0.3-1.7-0.5c-0.2,0-0.2-0.1-0.2-0.3s0.2-0.3,0.2-0.3c0.6-0.1,1.2-0.4,1.2-0.4
		s8.6-3,8.6-12.2c0-9.2-9.9-14.5-20.1-14.5H-22h-0.5h-13c0.1,0.6,0.3,1,1.1,1.6c0.8,0.6,5.2,2,5.2,9.6v2.3v34.2v1
		c0,7.6-4.3,9-5.2,9.6c-0.8,0.6-1.1,0.9-1.1,1.6h13h0.5c8.9,0,19.3,0,20,0c1.2,0,20.3-0.4,20.3-17.9C18.2,394.8,19.1,385.2,7.3,381z
		 M-13.2,361.7c2.5,0,7.1,0,7.1,0s7.9,0.2,7.9,7.3c0,8.4-7.8,7.9-7.8,7.9h-8.7c0,0-1.1,0.4-1.1-0.8s0-11.1,0-12.6
		S-16,361.7-13.2,361.7z M-5,404.3c0,0-4.2,0-7.5,0c-3.2,0-3.3-2-3.3-2v-16c0-1.1,1-1.1,1-1.1h9.6c0,0,9.5,0,9.5,9.4
		C4.2,404.1-5,404.3-5,404.3z"/>
</g>
</svg>
