<?xml version="1.0" encoding="utf-8"?>
<!-- Generator: Adobe Illustrator 16.0.0, SVG Export Plug-In . SVG Version: 6.00 Build 0)  -->
<!DOCTYPE svg PUBLIC "-//W3C//DTD SVG 1.1//EN" "http://www.w3.org/Graphics/SVG/1.1/DTD/svg11.dtd">
<svg version="1.1" id="Layer_1" xmlns="http://www.w3.org/2000/svg" xmlns:xlink="http://www.w3.org/1999/xlink" x="0px" y="0px"
	 width="700px" height="150px" viewBox="0 0 700 150" enable-background="new 0 0 700 150" xml:space="preserve">
<g>
	<path fill-rule="evenodd" clip-rule="evenodd" d="M195.981,65.887c0.538-3.286,0.538-3.286,3.356-4.493
		c1.729,1.809,3.522,3.686,5.393,5.644c0.136-0.255,0.332-0.498,0.4-0.773c0.555-2.238,0.854-4.571,1.678-6.704
		c1.229-3.182,2.24-6.493,4.52-9.203c1.298-1.543,2.698-2.662,4.77-2.862c1.268-0.122,2.514-0.482,3.781-0.619
		c2.861-0.308,3.473,0.126,4.219,2.947c0.223,0.844,0.46,1.739,0.405,2.592c-0.243,3.798,0.669,7.464,1.153,11.178
		c0.516,3.962,1.592,7.781,3.281,11.558c0.21-1.468,0.604-2.937,0.595-4.403c-0.033-5.156,1.13-10.159,1.756-15.23
		c0.234-1.899,0.366-3.811,0.544-5.716c0.129-1.392,0.963-2.173,2.262-2.431c2.095-0.415,4.203-0.762,6.309-1.122
		c2.518-0.43,3.635,0.088,4.887,2.272c0.266,0.461,0.455,0.965,0.763,1.63c0.856-0.615,1.534-1.152,2.259-1.614
		c2.93-1.867,5.007-0.93,6.318,1.306c2.546,4.34,5.293,8.572,6.736,13.464c0.244,0.823,0.603,1.612,0.98,2.605
		c1.102-0.689,1.108-1.727,1.326-2.564c1.122-4.318,1.969-8.72,3.314-12.965c0.916-2.894,2.351-4.049,5.183-2.92
		c0.944,0.376,2.175,0.035,3.275,0.023c1.176-0.013,2.386-0.211,3.521-0.001c2.808,0.521,3.426,1.455,3.141,4.342
		c-0.07,0.71-0.242,1.419-0.449,2.104c-1.846,6.109-3.635,12.238-5.601,18.309c-1.007,3.109-2.591,6.041-3.476,9.177
		c-1.936,6.858-4.387,13.513-7.061,20.105c-0.867,2.139-1.478,4.391-2.097,6.621c-2.526,9.104-5.768,17.95-9.462,26.637
		c-1.053,2.478-2.069,3.031-4.701,2.356c-2.316-0.595-4.588-1.37-6.863-2.115c-0.518-0.17-1.01-0.491-1.444-0.831
		c-1.3-1.017-1.448-1.834-0.638-3.321c1.948-3.577,3.934-7.134,5.85-10.729c0.674-1.264,1.182-2.616,1.775-3.924
		c1.316-2.899,2.822-5.729,3.924-8.708c2.217-5.997,3.75-12.134,3.944-18.616c0.126-4.234-5.009-8.742-9.062-8.436
		c-2.013,0.152-3.892,1.307-3.843,3.859c0.084,4.389-0.021,8.787-0.215,13.174c-0.12,2.7-0.428,5.407-0.873,8.075
		c-0.547,3.268-1.954,4.45-5.219,4.359c-2.549-0.071-5.097-0.394-7.629-0.729c-1.249-0.166-2.09-0.939-2.57-2.22
		c-1.123-2.982-2.441-5.892-3.562-8.875c-0.67-1.783-1.021-3.685-1.684-5.472c-0.82-2.214-1.814-4.363-2.895-6.493
		c-0.586,2.579,0.168,5.042,0.387,7.531c0.355,4.057,0.814,8.104,1.197,12.158c0.109,1.149-0.027,2.237-1.16,2.94
		c-0.934,0.579-1.834,0.869-2.914,0.319c-1.602-0.813-3.123-1.274-4.939-0.118c-0.677,0.432-2.188-0.073-3.135-0.531
		c-1.251-0.605-1.248-2.156-0.22-3.548c0.817-1.106,2.53-1.502,3.974-1.219c1.049,0.206,2.17,0.04,3.585,0.04
		c0-0.873,0.065-1.635-0.011-2.382c-0.531-5.239-1.105-10.474-1.631-15.714c-0.103-1.03-0.088-2.078-0.061-3.115
		c0.045-1.643,0.568-3.131,1.574-4.446c1.376-1.801,2.557-1.912,4.094-0.192c0.843,0.943,1.696,1.991,2.152,3.146
		c1.867,4.738,4.22,9.282,5.422,14.296c0.513,2.139,1.971,4.041,2.568,6.171c0.767,2.739,2.088,4.344,5.123,4.058
		c0.451-0.042,0.925,0.252,1.398,0.304c1.395,0.152,1.996-0.243,2.09-1.622c0.268-3.9,0.438-7.809,0.66-11.712
		c0.271-4.783,0.514-9.568,0.848-14.348c0.451-6.454,0.965-12.904,1.48-19.354c0.152-1.911,0.463-3.81,0.59-5.722
		c0.159-2.395-0.588-2.945-2.787-2.191c-0.377,0.129-0.736,0.377-1.118,0.415c-1.438,0.141-1.729,1.042-1.853,2.309
		c-0.689,7.076-1.437,14.146-2.201,21.215c-0.18,1.664-0.465,3.321-0.78,4.966c-0.117,0.61-0.382,1.229-0.72,1.752
		c-0.807,1.249-1.906,2.421-3.439,2.246c-1.459-0.165-1.969-1.644-2.54-2.896c-2.604-5.721-3.851-11.764-4.62-17.969
		c-0.4-3.238-1.156-6.429-1.085-9.724c0.012-0.536-0.197-1.076-0.297-1.577c-3.688-0.627-5.682,0.218-7.072,3.358
		c-1.29,2.91-2.353,5.928-3.37,8.947c-0.318,0.948-0.231,2.057-0.216,3.09c0.024,1.635-0.464,2.962-1.908,3.854
		c-0.26,0.161-0.462,0.415-0.731,0.663c0.499,2.21,0.952,4.394,1.488,6.556c1.342,5.415,1.781,10.896,0.889,16.405
		c-0.537,3.313-1.531,6.473-3.753,9.198c-1.897,2.326-4.208,3.849-6.989,4.769c-1.362,0.45-2.758,0.799-4.123,1.241
		c-3.466,1.122-6.793,0.47-10.025-0.851c-2.588-1.058-5.122-2.238-6.993-4.473c-0.36-0.431-1.039-0.596-1.719-0.963
		c-0.867,1.767-1.813,3.258-2.354,4.885c-1.337,4.028-3.574,7.437-6.446,10.521c-3.177,3.41-6.651,6.443-10.616,8.888
		c-0.868,0.535-1.867,0.936-2.86,1.177c-1.776,0.432-3.584,0.758-5.396,1.015c-4.343,0.617-8.965-3.229-8.844-7.303
		c0.077-2.582,2.605-5.477,5.107-5.847c1.887-0.279,3.292,0.501,3.907,2.321c0.399,1.181,0.617,2.423,0.926,3.678
		c3.389-1.746,7.666-7.874,8.839-12.691c-0.909-0.199-1.806-0.451-2.72-0.578c-0.788-0.109-1.599-0.032-2.392-0.113
		c-1.989-0.203-2.597-0.667-2.713-2.638c-0.197-3.35-0.228-6.711-0.278-10.067c-0.04-2.638,0.075-5.28-0.035-7.914
		c-0.058-1.38-0.452-2.745-0.97-4.038c-0.551,2.06-0.941,4.181-1.707,6.156c-0.532,1.373-1.439,2.674-2.433,3.777
		c-1.38,1.534-2.896,1.44-4.37,0.017c-1.558-1.505-3.003-3.053-3.563-5.273c-0.224-0.887-0.902-1.657-1.674-3.007
		c-0.389,1.234-0.791,1.984-0.836,2.756c-0.122,2.069-0.069,4.149-0.125,6.225c-0.094,3.43,0.043,6.893-0.404,10.277
		c-0.483,3.657-1.646,4.224-4.948,4.012c-1.747-0.112-3.502-0.104-5.245-0.249c-2.274-0.189-3.186-1.108-3.656-3.357
		c-0.827-3.954-0.761-7.94-0.54-11.94c0.141-2.551,0.236-5.104,0.049-7.756c-0.236,0.503-0.501,0.995-0.705,1.511
		c-1.605,4.081-3.334,8.12-4.759,12.264c-1.685,4.899-3.098,9.892-4.64,14.84c-1.447,4.644-2.898,9.285-4.373,13.92
		c-0.216,0.681-0.551,1.326-0.859,1.975c-0.402,0.845-1.161,1.179-1.992,0.949c-2.219-0.613-4.417-1.309-6.604-2.027
		c-0.749-0.246-1.436-0.677-2.164-0.993c-1.617-0.703-2.016-1.467-1.534-3.201c0.256-0.92,0.64-1.804,0.941-2.712
		c1.629-4.919,3.213-9.854,4.885-14.758c1.449-4.251,2.273-8.635,2.991-13.049c0.038-0.233,0.045-0.483,0.009-0.717
		c-0.146-0.949-0.219-2.041-1.351-2.311c-1.083-0.259-1.522,0.732-1.966,1.454c-2.018,3.281-4.228,6.437-7.204,8.896
		c-4.208,3.476-8.716,6.623-14.187,7.657c-5.458,1.032-10.809,0.204-15.821-2.271c-1.982-0.979-4.01-1.845-5.533-3.658
		c-2.707-3.221-3.412-6.87-2.406-10.758c1.019-3.938,2.454-7.775,4.744-11.207c0.66-0.988,1.426-1.905,2.306-3.07
		c-0.439-0.622-0.896-1.342-1.425-2.006c-4.188-5.261-5.533-11.255-4.379-17.787c0.81-4.587,3.059-8.397,7.14-10.851
		c3.309-1.99,7.009-2.73,10.824-2.484c2.453,0.158,4.918,0.576,7.306,1.165c2.571,0.634,4.777,2.131,6.931,3.648
		c0.71,0.5,1.424,0.996,2.187,1.529c1.272-2.092,2.423-4.088,3.685-6.012c0.607-0.926,1.355-1.787,2.161-2.549
		c1.591-1.506,3.039-1.567,4.604,0.025c1.154,1.174,2.265,2.533,2.933,4.017c2.092,4.658,3.928,9.429,5.946,14.121
		c0.554,1.288,1.396,2.452,2.363,4.116c0.888-1.268,1.628-2.075,2.083-3.02c1.804-3.738,3.436-7.561,5.295-11.271
		c1.139-2.273,2.484-4.458,3.905-6.569c1.072-1.593,1.472-1.513,3.248-1.041c1.444,0.384,2.948,0.591,4.44,0.732
		c2.721,0.258,3.492,1.01,2.908,3.7c-0.59,2.719-1.436,5.395-2.346,8.028c-0.99,2.867-2.188,5.662-3.28,8.494
		c-0.199,0.516-0.548,1.114-0.44,1.584c0.468,2.05-0.389,3.927-0.557,5.882c-0.389,4.524-0.494,9.073-0.714,13.612
		c-0.14,2.872-0.253,5.745-0.425,8.614c-0.168,2.807-0.108,5.583,0.512,8.346c0.25,1.117,0.774,1.7,1.934,1.684
		c1.028-0.015,2.058-0.003,3.287-0.003c0.13-0.762,0.336-1.442,0.348-2.126c0.051-3.036,0.105-6.074,0.049-9.109
		c-0.086-4.591,0.724-8.885,3.595-12.638c1.352-1.769,2.135-1.861,3.828-0.298c1.697,1.567,2.637,3.585,3.514,5.649
		c0.911,2.143,0.905,2.146,2.086,3.132c0.829-0.812,1.341-1.826,1.312-2.948c-0.049-1.876,0.838-3.397,1.636-4.945
		c0.599-1.161,1.562-2.021,2.882-2.371c2.337-0.62,3.687,0.029,4.419,2.367c1.359,4.339,1.462,8.82,1.108,13.301
		c-0.247,3.127-0.095,6.195,0.588,9.465c1.703,0,3.424,0,5.321,0c0.733-1.979,1.564-4.045,2.253-6.158
		c0.317-0.971,0.495-2.032,0.499-3.054c0.046-10.302,0.109-20.604,0.014-30.906c-0.028-3.003,0.126-6.11-1.323-8.927
		c-0.382-0.743-0.896-1.417-1.41-2.221c-2.715,1.798-4.041,4.314-5.535,6.758c-2.741,4.483-5.458,9.008-8.575,13.227
		c-2.38,3.221-6.513,2.916-9.076-1.591c-0.813-1.431-1.23-3.105-1.71-4.704c-0.907-3.018-1.062-6.314-3.469-8.754
		c-0.426-0.432-0.601-1.113-0.959-1.812c0.468-0.865,0.894-1.812,1.462-2.664c0.818-1.225,1.896-1.351,2.678-0.175
		c1.222,1.836,2.576,3.595,2.988,5.913c0.459,2.587,1.128,5.154,1.935,7.656c0.423,1.312,0.908,3.005,2.508,3.266
		c1.484,0.241,2.097-1.344,2.752-2.341c2.189-3.332,4.263-6.743,6.295-10.174c1.712-2.891,3.299-5.83,6.095-7.907
		c2.636-1.959,5.541-1.52,7.017,1.442c1.241,2.49,2.31,5.065,2.345,7.979c0.047,3.912,0.295,7.822,0.477,11.731
		c0.036,0.78,0.16,1.556,0.255,2.444c1.129-0.079,1.672-0.334,2.017-1.415c0.942-2.951,2.169-5.81,3.155-8.748
		c0.786-2.342,1.499-4.722,2.03-7.132c0.625-2.833,1.462-5.565,3.064-7.989c1.728-2.614,3.825-5.028,6.536-6.534
		c3.505-1.946,7.381-2.268,11.028-0.247c2.312,1.28,3.923,3.526,4.429,6.024c0.645,3.185,0.762,6.519-1.11,9.531
		c-0.96,1.546-2.12,2.753-3.917,3.326c-2.259,0.719-4.295,0.075-5.572-1.929c-0.548-0.86-0.867-1.943-2.209-2.033
		c-1.781,0.928-2.23,2.76-2.691,4.492c-0.818,3.077-1.608,6.173-2.17,9.305c-0.732,4.079-1.185,8.207-1.845,12.3
		c-0.405,2.513-0.611,5.146-1.544,7.468c-2.102,5.228,1.346,12.653,6.086,14.611c0.804,0.332,1.553,0.796,2.349,1.152
		c3.882,1.738,7.49,0.416,11.091-1.008c3.938-1.556,5.842-4.625,6.745-8.616c0.921-4.07,0.614-8.127,0.015-12.141
		c-0.53-3.543-1.489-7.027-2.363-10.512c-0.58-2.316-2.109-4.105-3.765-5.733C197.883,66.83,196.958,66.477,195.981,65.887z
		 M61.395,81.388c-0.441,1.069-0.62,2.174-1.243,2.894c-2.652,3.065-3.964,6.648-4.588,10.58c-0.495,3.113,0.665,5.368,3.211,7.111
		c2.349,1.607,4.914,2.707,7.671,3.217c3.203,0.593,6.52,1.342,9.686,0.14c2.811-1.067,5.534-2.443,8.132-3.963
		c1.834-1.073,3.671-2.384,5.016-3.997c2.187-2.623,3.953-5.594,5.934-8.391c1.266-1.787,1.597-3.772,1.546-5.906
		c-0.082-3.448-2.457-5.978-5.877-5.776c-4.396,0.26-8.582-0.514-12.678-1.975c-2.031-0.725-4.152-1.383-5.361-3.368
		c-0.428-0.703-0.746-1.589-0.753-2.396c-0.005-0.6,0.441-1.51,0.927-1.718c0.448-0.191,1.27,0.282,1.834,0.618
		c1.285,0.765,2.426,1.836,3.786,2.394c1.906,0.783,3.932,1.336,5.954,1.764c3.729,0.789,7.127-2.131,6.715-5.735
		c-0.134-1.171-0.412-2.414-0.972-3.433c-1.963-3.576-4.32-6.777-7.765-9.217c-4.831-3.423-10.02-4.83-15.82-3.848
		c-7.894,1.337-11.243,6.504-10.575,13.971c0.593,6.62,4.001,11.688,10.498,14.212c0.371,0.144,0.731,0.328,1.075,0.529
		c2.377,1.39,4.856,2.318,7.806,1.582c0.454,0.932,1.041,1.739,1.24,2.633c0.363,1.627-1.143,3.323-2.507,2.926
		c-1.831-0.533-3.653-1.116-5.434-1.797C66.34,83.478,63.871,82.406,61.395,81.388z M100.191,85.991
		c1.216,0.798,2.083,1.175,2.693,1.803c1.952,2.009,2.132,4.647,1.786,7.147c-1.054,7.622-3.606,14.863-6.072,22.114
		c-0.744,2.188-1.543,4.357-2.307,6.539c-0.42,1.202-0.015,2.032,1.189,2.438c1.027,0.348,2.067,0.66,3.165,1.009
		c0.262-0.59,0.449-0.935,0.574-1.3c1.311-3.851,2.641-7.694,3.907-11.561c0.816-2.492,1.521-5.021,2.296-7.525
		c1.203-3.885,2.218-7.844,3.688-11.624c1.877-4.827,3.759-9.631,5.318-14.582c2.778-8.823,5.855-17.552,8.789-26.328
		c0.471-1.408,0.841-2.849,1.251-4.25c-4.076-1.478-4.483-1.312-6.104,2.266c-0.099,0.218-0.199,0.436-0.299,0.654
		c-1.822,3.992-3.577,8.017-5.497,11.96c-0.796,1.637-1.794,3.229-2.967,4.618c-2.519,2.985-4.19,2.761-6.215-0.593
		c-1.398-2.317-2.516-4.73-3.446-7.299c-1.379-3.81-3.183-7.474-4.939-11.135c-0.444-0.925-0.941-2.091-2.613-2.263
		c-1.354,2.438-2.757,4.968-4.306,7.756c4.566,4.723,4.834,10.587,3.713,16.801C100.213,75.269,101.375,80.282,100.191,85.991z
		 M245.096,131.519c1.371,0.462,2.412,0.832,3.467,1.161c0.785,0.245,1.426,0.02,1.811-0.739c0.323-0.639,0.662-1.276,0.914-1.945
		c1.154-3.062,2.303-6.128,3.412-9.207c1.271-3.527,2.516-7.064,3.74-10.608c1.563-4.522,3.096-9.056,4.642-13.584
		c1.702-4.984,3.39-9.973,5.115-14.949c0.679-1.957,1.421-3.893,2.171-5.824c0.577-1.488,1.33-2.917,1.797-4.437
		c1.477-4.805,2.864-9.637,4.267-14.465c0.481-1.659,0.905-3.334,1.438-5.307c-2.566-0.482-4.687,0.563-7.043,0.24
		c-0.877,3.202-1.734,6.256-2.544,9.322c-0.509,1.926-0.913,3.879-1.423,5.805c-0.406,1.529-1.383,2.682-2.656,3.585
		c-2.023,1.435-4.301,0.824-5.321-1.411c-0.529-1.159-1.352-2.263-1.562-3.475c-0.804-4.641-3.621-8.287-5.787-12.253
		c-0.812-1.489-1.552-1.557-2.793-0.306c-0.782,0.789-1.279,1.974-2.184,2.502c-1.413,0.825-1.689,1.979-1.756,3.379
		c-0.146,3.032-0.287,6.064-0.477,9.093c-0.11,1.751-0.393,3.494-0.453,5.245c-0.088,2.497,0.226,2.722,2.666,2.896
		c1.427,0.101,2.909,0.177,4.248,0.621c6.572,2.184,9.715,5.954,9.436,12.649c-0.02,0.479-0.043,0.959-0.053,1.438
		c-0.109,5.426-1.572,10.621-3.398,15.615c-1.988,5.439-4.686,10.623-7.152,15.882c-1.048,2.235-2.31,4.37-3.444,6.566
		C245.814,129.703,245.551,130.447,245.096,131.519z"/>
	<path fill-rule="evenodd" clip-rule="evenodd" d="M505.144,93.568c-0.962-0.409-1.757-0.746-2.733-1.16
		c-0.724,0.993-1.37,1.975-2.11,2.88c-2.424,2.961-5.434,4.725-9.39,4.135c-3.419-0.511-5.999-2.126-6.804-5.784
		c-0.171-0.778-0.306-1.601-0.661-2.298c-1.867-3.661-2.189-7.659-2.591-11.631c-0.298-2.941-0.515-5.896-0.618-8.85
		c-0.136-3.879,0.287-7.654,2.522-11.026c1.962-2.96,4.726-3.533,7.545-1.372c2.681,2.054,4.456,4.776,5.415,7.999
		c0.569,1.912,0.983,3.87,1.496,5.799c0.118,0.444,0.354,0.856,0.582,1.394c1.621-0.404,3.141-0.784,4.748-1.185
		c0.042-0.545,0.179-1.021,0.096-1.455c-0.465-2.43-0.778-4.916-1.521-7.263c-2.93-9.262-8.374-14.132-17.568-14.772
		c-3.832-0.267-6.692,1.828-8.657,5.038c-0.83,1.354-1.417,2.856-2.136,4.28c-0.208,0.412-0.414,0.892-0.762,1.153
		c-0.685,0.514-1.438,1.183-2.38,0.633c-0.967-0.565-0.786-1.503-0.495-2.354c2.339-6.833,7.41-12.3,15.238-12.556
		c2.544-0.083,5.291,0.654,7.662,1.674c7.517,3.232,11.886,9.123,13.371,17.143c0.552,2.98,1.064,5.972,1.448,8.978
		c0.246,1.937-0.475,2.778-2.382,3.21c-2.795,0.633-5.594,1.251-8.397,1.845c-1.49,0.315-2.018,0.026-2.427-1.511
		c-0.368-1.386-0.552-2.82-0.835-4.23c-0.567-2.831-1.268-5.618-2.845-8.093c-0.817-1.283-1.717-2.485-3.375-3.015
		c-1.359,1.215-1.901,2.812-1.939,4.488c-0.079,3.506-0.011,7.017,0.068,10.524c0.127,5.66,1.522,11.045,3.577,16.295
		c0.707,1.807,1.839,3.033,3.773,3.236c2.052,0.216,3.796-0.397,4.796-2.408c0.35-0.703,0.759-1.377,1.293-2.338
		c-0.763-0.348-1.345-0.696-1.975-0.883c-1.18-0.348-2.408-0.538-3.578-0.913c-1.033-0.33-1.725-1.807-1.397-2.717
		c0.468-1.303,1.952-2.225,3.169-1.83c2.049,0.663,4.078,1.395,6.091,2.16c3.277,1.246,6.528,2.557,9.802,3.812
		c1.489,0.571,3.009,1.065,4.507,1.617c1.469,0.54,2.216,1.407,2.031,2.303c-0.228,1.102-1.918,1.947-3.336,1.627
		c-0.621-0.142-1.217-0.393-1.829-0.577c-0.534-0.161-1.077-0.298-1.74-0.479c-0.27,0.45-0.595,0.891-0.813,1.379
		c-1.141,2.545-2.259,5.1-3.373,7.656c-0.408,0.937-1.048,1.929,0.447,2.638c1.178-1.138,2.527-1.217,4.107-0.928
		c2.493,0.455,5.038,0.626,7.56,0.931c1.278,0.154,1.61-0.827,2.015-1.679c0.989-2.086,1.941-4.19,2.912-6.285
		c0.135-0.29,0.291-0.569,0.439-0.853c0.593-1.127,1.48-2.099,2.769-1.931c1.428,0.188,1.964,1.449,2.22,2.792
		c1.358,7.114,4.562,13.6,6.966,20.356c0.048,0.136,0.207,0.232,0.54,0.588c1.878-1.096,3.82-2.229,5.547-3.237
		c-2.315-5.408-4.693-10.549-6.72-15.826c-1.683-4.381-2.828-8.966-4.441-13.377c-1.253-3.425-2.401-6.938-5.028-9.703
		c-1.172-1.233-1.02-2.332,0.251-3.541c1.79-1.706,3.698-3.29,5.466-5.018c2.856-2.793,4.685-6.322,6.045-9.96
		c1.11-2.971,0.077-4.193-2.127-5.345c-4.101-2.143-8.39-3.483-13.064-3.348c-2.213,0.064-4.425,0.144-6.829,0.223
		c0.106,2.322,0.202,4.373,0.293,6.424c0.131,2.952,0.349,5.904,0.351,8.856c0.001,1.739-0.358,3.476-0.527,5.217
		c-0.371,3.815-0.728,7.633-1.082,11.449c-0.169,1.817-0.624,2.311-2.241,2.523c-0.868,0.114-1.426-0.195-1.587-1.041
		c-0.134-0.696-0.259-1.422-0.205-2.121c0.237-3.104,0.374-6.23,0.856-9.3c0.827-5.266,0.658-10.511,0.077-15.763
		c-0.234-2.125-0.642-4.236-1.051-6.337c-0.363-1.863,0.649-3.361,2.586-3.474c3.666-0.212,7.338-0.492,11.006-0.47
		c5.225,0.031,10.072,1.601,14.457,4.423c3.799,2.445,4.635,4.615,2.94,9.004c-1.628,4.215-3.809,8.275-7.35,11.348
		c-1.386,1.203-2.766,2.411-4.026,3.51c1.198,2.677,2.203,4.826,3.125,7.011c0.648,1.538,1.191,3.122,1.77,4.689
		c0.717,1.944,1.437,3.888,2.126,5.842c0.45,1.276,0.927,2.552,1.256,3.861c1.218,4.845,3.606,9.203,5.626,13.715
		c0.916,2.048,2.016,3.905,4.063,5.18c1.809,1.124,1.456,2.518-0.557,3.415c-3.054,1.361-6.13,2.643-9.001,4.425
		c-4.142,2.57-5.059,2.204-6.788-2.344c-1.726-4.538-3.308-9.131-4.96-13.697c-0.264-0.728-0.566-1.439-1.085-2.747
		c-0.682,1.616-1.22,2.653-1.562,3.751c-0.854,2.738-2.402,3.688-5.146,3.141c-1.95-0.39-3.921-0.675-5.883-1.004
		c-0.157-0.026-0.318-0.027-0.478-0.044c-3.334-0.362-5.017-0.933-7.65-2.688c-0.741,0.93-1.526,1.881-2.276,2.859
		c-3.104,4.054-6.921,6.855-12.268,6.845c-3.262-0.007-6.352-0.896-9.075-2.637c-2.001-1.277-3.754-2.944-5.606-4.451
		c-0.599-0.487-1.163-1.017-2.066-1.811c-0.093,1.057-0.219,1.728-0.192,2.392c0.03,0.795,0.188,1.585,0.295,2.376
		c0.574,4.188-0.027,5.09-4.27,5.714c-3.942,0.58-7.909,0.996-11.87,1.433c-1.877,0.206-2.395-0.269-2.572-2.222
		c-0.289-3.181-0.46-6.373-0.834-9.542c-0.42-3.561-1-7.102-1.539-10.647c-0.093-0.613-0.326-1.205-0.876-1.828
		c-0.111,0.566-0.298,1.13-0.318,1.7c-0.086,2.396-0.104,4.796-0.189,7.192c-0.028,0.795-0.128,1.597-0.29,2.375
		c-0.437,2.1-1.158,2.729-3.234,2.799c-2.705,0.092-5.412,0.153-8.119,0.195c-1.826,0.028-2.367-0.387-2.948-2.15
		c-0.215-0.652-0.398-1.314-0.945-1.944c-0.106,0.495-0.188,0.997-0.324,1.484c-0.467,1.662-1.401,2.477-3.11,2.407
		c-3.031-0.123-6.056-0.386-9.084-0.573c-1.026-0.063-2.062-0.156-3.083-0.095c-2.384,0.142-3.372-0.36-4.081-2.717
		c-0.805-2.675-1.466-5.401-2.024-8.138c-1.995-9.783-3.922-19.58-5.873-29.372c-1.139-5.711-2.241-11.429-3.449-17.125
		c-0.167-0.789-0.755-1.553-1.313-2.181c-1.438-1.616-1.63-2.792-0.518-4.204c0.956-1.214,2.451-1.435,4.059-0.697
		c0.63,0.289,1.348,0.552,2.023,0.545c2.464-0.024,4.928-0.169,7.392-0.267c0.399-0.016,0.799-0.047,1.198-0.036
		c2.846,0.082,3.396,0.777,3.577,3.582c0.226,3.492,0.675,6.97,1.052,10.452c0.447,4.129,0.915,8.256,1.387,12.382
		c0.098,0.848,0.256,1.688,0.818,2.553c0.431-1.732,0.958-3.446,1.272-5.198c0.917-5.111,1.744-10.238,2.615-15.357
		c0.335-1.963,0.677-3.926,1.046-5.883c0.464-2.458,1.789-3.235,4.278-2.771c3.136,0.584,6.297,1.029,9.444,1.547
		c0.47,0.077,0.938,0.195,1.39,0.349c1.594,0.543,1.885,0.928,1.8,2.621c-0.074,1.493-0.241,2.981-0.417,5.062
		c2.06-1.573,3.647-2.833,5.285-4.021c1.221-0.886,2.438-1.819,3.776-2.489c3.524-1.764,8.253-0.486,10.21,2.994
		c1.11,1.976,1.892,4.256,2.286,6.494c1.193,6.763,2.278,13.552,3.111,20.368c0.745,6.101,1.188,12.242,1.584,18.378
		c0.164,2.537,1.146,4.679,2.719,6.436c2.439,2.727,5.062,5.32,7.833,7.708c2.713,2.338,6.075,3.011,9.632,2.738
		c2.816-0.215,4.778-1.98,6.287-3.995c3.221-4.3,5.803-8.995,7.22-14.242C505.038,94.465,505.056,94.148,505.144,93.568z
		 M445.602,105.866c0.158-0.931,0.367-1.761,0.43-2.601c0.27-3.657,0.36-7.334,0.809-10.967c0.164-1.326,0.914-2.741,1.792-3.784
		c1.602-1.901,3.459-1.559,4.854,0.562c1.489,2.264,2.148,4.816,2.527,7.423c0.859,5.918,1.6,11.854,2.371,17.784
		c0.198,1.522,0.558,1.927,2.216,1.717c2.294-0.29,4.57-0.733,6.845-1.162c0.429-0.081,0.813-0.402,1.138-0.571
		c-0.56-7.637-1.15-15.117-1.648-22.604c-0.698-10.521-2.079-20.954-4.065-31.304c-0.418-2.18-0.958-4.395-1.856-6.41
		c-1.382-3.101-4.85-3.88-7.557-1.852c-2.225,1.667-4.609,3.243-6.425,5.299c-1.853,2.098-4.003,4.144-4.727,7.054
		c-0.23,0.928-0.381,1.876-0.631,2.798c-1.271,4.692-2.482,9.387-2.994,14.247c-0.292,2.771-0.83,5.521-1.336,8.266
		c-0.431,2.334-0.973,4.646-1.491,7.091c2.162,0.23,2.831,1.369,2.923,3.232c0.073,1.491,0.603,2.959,0.913,4.44
		c0.194,0.926,0.746,1.354,1.688,1.345C442.71,105.855,444.046,105.866,445.602,105.866z M408.07,49.318
		c0,0.794-0.083,1.354,0.013,1.879c0.705,3.845,1.436,7.685,2.178,11.523c1.272,6.586,2.531,13.176,3.851,19.753
		c0.958,4.774,1.993,9.532,3.014,14.294c0.469,2.187,0.935,4.377,1.491,6.543c0.472,1.839,0.771,1.995,2.633,2.097
		c1.91,0.104,3.817,0.317,5.728,0.353c1.064,0.021,2.134-0.225,3.145-0.344c0.378-2.313,0.635-4.287,1.03-6.234
		c1.098-5.396,2.649-10.733,3.292-16.181c0.98-8.302,3.497-16.212,5.344-24.292c0.619-2.709,1.651-5.353,1.152-8.191
		c-2.143-1.116-6.06-1.537-8.418-0.899c-0.132,0.587-0.291,1.202-0.405,1.825c-1.133,6.2-2.219,12.409-3.4,18.599
		c-0.629,3.294-1.38,6.567-2.152,9.831c-0.409,1.729-1.045,3.382-2.764,4.299c-1.201,0.642-1.838,0.488-2.556-0.719
		c-1.541-2.595-2.131-5.51-2.486-8.434c-0.856-7.054-1.555-14.126-2.341-21.189c-0.165-1.479-0.435-2.947-0.67-4.513
		C413.209,49.318,410.77,49.318,408.07,49.318z"/>
	<path fill-rule="evenodd" clip-rule="evenodd" d="M336.595,64.109c2.689-3.261,5.099-6.451,7.796-9.373
		c2.368-2.565,4.914-4.99,8.383-6.175c4.986-1.704,9.371-0.443,13.126,2.854c1.206,1.059,1.997,2.982,2.283,4.631
		c1.271,7.324,1.158,14.673-1.272,21.751c-1.628,4.74-3.627,9.365-6.943,13.305c-2.202,2.615-3.882,5.698-6.231,8.156
		c-3.12,3.263-6.634,6.156-10.052,9.125c-0.76,0.66-1.818,0.98-2.75,1.438c-1.359,0.666-2.637,1.311-3.479,2.757
		c-0.789,1.355-3.233,1.342-4.381,0.14c-3.733-3.914-7.627-7.696-11.101-11.83c-4.709-5.606-9.163-11.454-11.955-18.325
		c-3.161-7.778-4.375-15.83-2.846-24.16c0.902-4.919,5.286-10.057,10.052-10.248c1.232-0.049,2.554,0.082,3.709,0.486
		c2.973,1.041,5.555,2.665,7.464,5.313c2.051,2.845,4.282,5.561,6.459,8.313C335.334,62.87,335.914,63.393,336.595,64.109z"/>
	<path fill-rule="evenodd" clip-rule="evenodd" d="M581.231,92.563c-0.212,3.012-0.424,6.024-0.644,9.144
		c-0.442,0.242-0.909,0.522-1.396,0.76c-1.238,0.603-2.578-0.091-2.794-1.462c-0.062-0.39-0.025-0.801,0.01-1.197
		c0.288-3.343,0.505-6.694,0.916-10.022c0.217-1.761,0.95-3.377,2.476-4.497c1.891-1.387,3.201-1.093,4.146,1.073
		c1.755,4.021,3.414,8.083,5.17,12.103c1.18,2.699,2.483,5.345,3.679,8.037c0.401,0.903,0.991,1.237,1.966,1.44
		c3.695,0.769,7.308,0.098,11.123-0.326c0.09-1.779,0.304-3.514,0.238-5.237c-0.205-5.43-0.602-10.853-0.754-16.282
		c-0.103-3.669,0.011-7.349,0.155-11.019c0.227-5.745,0.592-11.484,0.838-17.229c0.103-2.372,0.208-4.761-0.306-7.282
		c-2.196,0.097-4.235,0.188-6.38,0.282c-0.142,0.639-0.356,1.164-0.36,1.689c-0.021,3.027,0.081,6.056-0.002,9.081
		c-0.068,2.472-0.257,4.948-0.535,7.406c-0.492,4.357-1.119,8.699-1.64,13.052c-0.294,2.455-0.433,4.93-0.752,7.381
		c-0.152,1.173-0.299,2.479-0.907,3.432c-1.452,2.273-4.604,1.698-5.637-1.048c-0.781-2.077-1.303-4.262-1.82-6.427
		c-0.743-3.104-1.229-6.275-2.088-9.344c-2.079-7.431-3.193-14.989-3.44-22.689c-0.027-0.867-0.135-1.731-0.222-2.797
		c-1.572-0.099-3.05-0.192-4.779-0.302c-0.253,0.826-0.652,1.619-0.721,2.438c-0.473,5.656-1.377,11.248-2.338,16.835
		c-0.14,0.816-0.441,1.36-1.182,1.615c-0.807,0.278-1.641,0.475-2.667,0.765c0,0.976-0.082,2.081,0.014,3.169
		c0.515,5.887,0.88,11.779,1.954,17.617c0.822,4.472,1.186,9.028,1.728,13.551c0.185,1.545-0.296,2.472-1.755,2.995
		c-1.111,0.398-2.314,0.685-3.489,0.731c-3.654,0.147-7.315,0.141-10.973,0.226c-2.521,0.059-3.018-0.396-3.221-3
		c-0.188-2.433-0.11-4.905-1.358-7.299c-0.172,1.434-0.38,2.864-0.502,4.303c-0.068,0.792,0.002,1.597,0.021,2.396
		c0.027,1.111-0.458,1.799-1.568,2.072c-0.694,0.171-1.426,0.341-2.03,0.697c-1.682,0.993-3.181,0.661-4.634-0.323
		c-0.075-1.479-0.075-1.479,1.963-4.64c0.464,0.203,0.932,0.408,1.537,0.675c0.251-2.212,0.452-4.254,0.72-6.288
		c0.337-2.564,1.552-4.493,4.077-5.451c2.228-0.845,3.812-0.271,4.511,2.039c0.688,2.277,1.057,4.655,1.502,7.002
		c0.221,1.165,0.297,2.358,0.445,3.588c3.486,1.183,6.86-0.537,10.394,0.318c-0.068-0.94-0.087-1.556-0.162-2.163
		c-1.088-8.798-2.231-17.589-3.256-26.394c-0.425-3.647-0.533-7.331-0.909-10.986c-0.351-3.416-0.794-6.826-1.336-10.216
		c-0.277-1.732-0.91-3.366-2.261-4.655c-1.93-1.839-4.376-2.025-6.482-0.43c-2.669,2.021-4.155,4.858-5.222,7.887
		c-1.882,5.343-3.368,10.833-5.421,16.105c-1.506,3.869-2.185,7.81-2.556,11.873c-0.055,0.597-0.231,1.446-0.642,1.689
		c-0.767,0.454-1.812,0.876-2.621,0.713c-1.029-0.207-0.803-1.394-0.791-2.254c0.06-4.116,1.011-8.061,2.332-11.93
		c2.037-5.968,4.028-11.953,6.153-17.889c1.29-3.606,3.404-6.751,6.57-8.954c5.849-4.068,12.322-2.006,14.593,4.362
		c1.469,4.117,1.661,8.451,2.105,12.74c0.049,0.47,0.076,0.942,0.423,1.474c0.186-0.912,0.372-1.823,0.556-2.735
		c0.202-1.011,0.462-2.016,0.592-3.037c0.423-3.329,0.794-6.665,1.195-9.996c0.058-0.475,0.124-0.958,0.271-1.41
		c1.35-4.142,2.811-4.123,5.805-3.646c1.492,0.238,3.015,0.398,4.522,0.397c2.377-0.001,2.882,0.424,3.008,2.891
		c0.151,2.954,0.259,5.912,0.509,8.857c0.516,6.07,1.753,12.003,3.508,17.838c0.527,1.755,0.839,3.574,1.272,5.359
		c0.145,0.597,0.359,1.177,0.955,1.772c0.22-1.448,0.452-2.894,0.654-4.344c0.44-3.164,1.027-6.319,1.258-9.499
		c0.339-4.695,0.42-9.408,0.61-14.114c0.077-1.916,0.091-3.836,0.243-5.747c0.172-2.159,1.107-2.849,3.289-2.868
		c2.871-0.025,5.75-0.056,8.609-0.287c2.878-0.233,2.938-0.306,4.345,2.352c0.858-0.528,1.724-1.076,2.729-0.133
		c0.325,0.305,1.066,0.236,1.613,0.222c3.513-0.092,7.026-0.165,10.535-0.343c4.148-0.211,8.288-0.595,12.438-0.752
		c1.736-0.066,3.513,0.128,5.227,0.442c1.562,0.287,1.945,0.916,1.992,2.532c0.021,0.711-0.13,1.425-0.165,2.14
		c-0.201,4.144-0.39,8.288-0.588,12.433c-0.023,0.479-0.068,0.958-0.128,1.434c-0.342,2.708-2.24,3.961-4.947,3.261
		c-2.005-0.518-3.994-1.101-6.013-1.552c-1.839-0.411-2.301-0.183-2.799,1.631c-0.354,1.289-0.506,2.67-0.51,4.011
		c-0.018,5.694,0.833,11.312,1.769,16.905c0.906,5.425,1.998,10.82,3.005,16.229c0.317,1.706-0.12,2.491-1.882,2.58
		c-1.652,0.082-3.352-0.103-4.982-0.418c-2.66-0.516-5.242-0.207-7.844,0.298c-2.922,0.566-4.109-0.438-4.012-3.304
		c0.26-7.588,1.072-15.124,2.118-22.639c0.11-0.789,0.183-1.595,0.159-2.389c-0.135-4.49,0.303-8.93,1.03-13.354
		c0.233-1.42,0.354-2.894-1.113-3.982c-2.799,1.259-5.75,2.238-7.972,4.585c-1.042,1.102-1.644,2.277-1.713,3.816
		c-0.369,8.236-0.268,16.45,0.473,24.672c0.313,3.477,0.115,7.015-0.057,10.515c-0.114,2.329-1.311,3.622-3.583,3.59
		c-3.742-0.054-7.492,0.751-11.234-0.103c-0.921-0.21-1.911-0.172-2.869-0.153c-1.576,0.031-2.546-0.742-3.117-2.143
		c-0.422-1.036-0.854-2.067-1.29-3.098c-1.648-3.892-3.287-7.787-4.963-11.667c-0.299-0.691-0.755-1.315-1.138-1.97
		C581.615,92.436,581.424,92.499,581.231,92.563z M610.224,64.905c0.95-0.534,1.479-0.87,2.039-1.138
		c2.007-0.96,3.964-2.073,6.054-2.802c3.04-1.06,4.615-0.189,5.808,2.814c0.64,1.61,0.597,3.257,0.381,4.948
		c-0.396,3.087-0.75,6.182-1.014,9.283c-0.176,2.063-0.051,4.154-0.26,6.212c-0.517,5.082-1.193,10.147-1.709,15.229
		c-0.169,1.659-0.076,3.35-0.025,5.023c0.015,0.499,0.294,0.99,0.429,1.411c3.112,0,6.012,0,9.057,0
		c-0.06-0.744-0.058-1.289-0.151-1.816c-1.452-8.094-2.774-16.208-3.432-24.41c-0.278-3.482-0.754-6.99,0.404-10.451
		c0.569-1.703,1.548-2.912,3.141-3.713c1.443-0.726,2.87-0.711,4.407-0.331c1.824,0.452,3.646,1.133,5.546,0.781
		c0.614-1.909,1.079-12.362,0.556-14.097c-10.107,0.303-20.297,0.609-30.817,1.642C610.507,57.057,610.373,60.76,610.224,64.905z"/>
	<path fill-rule="evenodd" clip-rule="evenodd" d="M30.047,41.192c-2.573-1.719-2.912-4.412-3.433-6.956
		c-0.692-3.384-0.129-6.651,1.241-9.806c0.507-1.168,0.864-2.401,1.352-3.579c1.001-2.413,2.534-4.403,4.724-5.877
		c1.543-1.04,2.444-1.107,3.887,0.043c1.3,1.037,2.566,2.131,3.746,3.302c1.247,1.238,1.174,2.055-0.121,3.216
		c-0.474,0.425-0.979,0.825-1.512,1.172c-2.878,1.879-4.25,4.879-5.79,7.751c-0.409,0.764-0.802,1.558-1.043,2.385
		c-0.237,0.816-0.463,1.715-0.361,2.536C33.152,38.733,33.167,38.801,30.047,41.192z"/>
	<path fill-rule="evenodd" clip-rule="evenodd" d="M661.941,46.347c-0.073-2.83-0.479-5.586-2.781-7.584
		c-1.436-1.246-2.93-2.427-4.436-3.588c-2.413-1.863-2.285-3.671,0.118-4.999c1.301-0.718,2.823-1.04,4.254-1.513
		c0.681-0.225,1.39-0.362,2.072-0.581c3.131-1.003,3.195-0.987,4.844,1.949c1.568,2.793,1.99,5.767,1.642,8.946
		c-0.249,2.276-0.226,4.586-0.239,6.882c-0.01,1.758-0.798,3.067-2.211,3.947c-1.667,1.038-2.978,0.372-3.248-1.565
		C661.869,47.621,661.941,46.979,661.941,46.347z"/>
	<path fill-rule="evenodd" clip-rule="evenodd" d="M678.981,28.154c-0.343,3.246-0.549,6.516-1.099,9.726
		c-0.213,1.243-1.018,2.524-1.889,3.481c-1.092,1.2-2.375,0.71-2.749-0.897c-0.522-2.246-0.854-4.543-1.478-6.758
		c-0.96-3.403-1.512-7.051-4.752-9.32c-0.375-0.263-0.633-0.717-0.896-1.115c-0.88-1.333-0.654-2.409,0.7-3.201
		c2.425-1.418,5.106-1.77,7.84-1.645c0.594,0.027,1.456,0.546,1.688,1.064C677.576,22.247,679.018,24.97,678.981,28.154z"/>
	<path fill-rule="evenodd" clip-rule="evenodd" d="M46.344,27.456c0.674,0.278,1.388,0.341,1.634,0.713
		c1.104,1.673,2.924,2.415,4.376,3.624c0.533,0.443,0.995,1.043,1.308,1.663c0.549,1.088,0.329,1.951-0.807,2.35
		c-4.826,1.695-7.708,5.524-10.534,9.413c-0.683,0.94-1.369,1.728-2.531,2.047c-1.49,0.41-2.272,0.068-2.208-1.487
		c0.089-2.129,0.426-4.279,0.93-6.354c0.996-4.098,2.925-7.75,5.897-10.783C44.924,28.119,45.693,27.845,46.344,27.456z"/>
</g>
</svg>
