<?xml version="1.0" encoding="iso-8859-1"?>
<!-- Generator: Adobe Illustrator 19.0.0, SVG Export Plug-In . SVG Version: 6.00 Build 0)  -->
<svg version="1.1" id="Capa_1" xmlns="http://www.w3.org/2000/svg" xmlns:xlink="http://www.w3.org/1999/xlink" x="0px" y="0px"
	 viewBox="0 0 512 512" style="enable-background:new 0 0 512 512;" xml:space="preserve">
<path style="fill:#FFD5B3;" d="M288.273,221.708h-54.62c0.495,0.535,0.805,1.245,0.805,2.032v35.841h13.19l-32.746,32.745
	c3.03,6.737,3.097,13.474,3.097,13.474v23.285l82.362-73.866c4.182-3.474,6.848-8.712,6.848-14.574
	C307.209,230.186,298.732,221.708,288.273,221.708z"/>
<path style="fill:#08375E;" d="M232.854,220.74H208.55l-25.861,25.861c-0.391,0.391-0.391,1.023,0,1.414l25.44,25.44h24.725
	c1.657,0,3-1.343,3-3V223.74C235.854,222.083,234.511,220.74,232.854,220.74z"/>
<path style="fill:#9EA7AF;" d="M88.356,313.346C43.7,313.346,7.5,349.547,7.5,394.203s36.2,80.857,80.856,80.857
	c44.657,0,80.857-36.201,80.857-80.857C169.214,349.547,133.014,313.346,88.356,313.346z M88.356,453.498
	c-32.695,0-59.295-26.6-59.295-59.295s26.6-59.295,59.295-59.295c32.696,0,59.296,26.6,59.296,59.295
	C147.652,426.898,121.053,453.498,88.356,453.498z"/>
<path style="fill:#C5CCD3;" d="M88.356,460.998c-36.831,0-66.795-29.964-66.795-66.795s29.964-66.795,66.795-66.795
	s66.796,29.964,66.796,66.795C155.152,431.034,125.188,460.998,88.356,460.998z M88.356,342.408
	c-28.559,0-51.795,23.235-51.795,51.795s23.235,51.795,51.795,51.795c28.561,0,51.796-23.235,51.796-51.795
	C140.152,365.643,116.917,342.408,88.356,342.408z"/>
<path style="fill:#9EA7AF;" d="M411.784,313.346c-44.656,0-80.857,36.201-80.857,80.857s36.2,80.857,80.857,80.857
	c44.656,0,80.856-36.201,80.856-80.857C492.641,349.547,456.44,313.346,411.784,313.346z M411.784,453.498
	c-32.695,0-59.295-26.6-59.295-59.295s26.6-59.295,59.295-59.295s59.295,26.6,59.295,59.295
	C471.079,426.898,444.479,453.498,411.784,453.498z"/>
<path style="fill:#C5CCD3;" d="M411.784,460.998c-36.831,0-66.795-29.964-66.795-66.795s29.964-66.795,66.795-66.795
	s66.795,29.964,66.795,66.795C478.579,431.034,448.615,460.998,411.784,460.998z M411.784,342.408
	c-28.56,0-51.795,23.235-51.795,51.795s23.235,51.795,51.795,51.795s51.795-23.235,51.795-51.795
	C463.579,365.643,440.344,342.408,411.784,342.408z"/>
<g>
	<path style="fill:#368C0E;" d="M186.385,401.359c0-1.638,1.043-3.136,2.595-3.727c0.417-0.159,0.678-0.573,0.641-1.018
		l-0.823-9.912H105.97l70.454-73.299c-0.121-0.078-0.235-0.165-0.34-0.27l-10.303-10.303L85.03,386.841
		c-2.649,2.755-3.446,6.458-2.082,9.663c1.365,3.206,4.588,5.197,8.409,5.197h95.028L186.385,401.359L186.385,401.359z"/>
	<path style="fill:#368C0E;" d="M438.15,265.371c0-15.728-12.795-28.522-28.522-28.522H382.89c1.177,2.139,1.849,4.593,1.849,7.202
		c0,2.858-0.817,5.522-2.211,7.798h27.101c7.456,0,13.522,6.066,13.522,13.522c0,7.457-6.066,13.523-13.522,13.523H212.511
		c-0.047,0.455-0.237,0.879-0.565,1.208l-2.962,2.962c-0.198,0.198-0.304,0.47-0.292,0.749c0.012,0.28,0.141,0.542,0.354,0.722
		c3.102,2.618,5.131,6.033,6.464,9.359h121.25l-76.739,79.838c4.578,2.25,8.499,5.634,11.403,9.782l86.141-89.62h4.725
		l42.561,103.169c1.194,2.894,3.989,4.642,6.937,4.642c0.953,0,1.922-0.183,2.857-0.569c2.895-1.194,4.643-3.991,4.642-6.939
		c0-0.952-0.183-1.92-0.568-2.855l-40.202-97.449h31.112C425.355,293.894,438.15,281.098,438.15,265.371z"/>
</g>
<path style="fill:#9EA7AF;" d="M246.836,369.671c-13.06,0-24.225,8.08-28.791,19.51v7.178c0,0.552,0.447,1,1,1h20.635
	c2.206,0,4,1.794,4,4v12.64c0,2.206-1.794,4-4,4h-18.553c5.571,8.248,15.007,13.672,25.709,13.672c17.121,0,31-13.879,31-31
	C277.836,383.551,263.957,369.671,246.836,369.671z"/>
<path style="fill:#FFB98A;" d="M219.044,305.799c0,0-0.152-15.057-10.138-22.659l-27.438,27.437l7.24,87.145
	c0.527-0.19,1.086-0.311,1.676-0.311h28.66V305.799z"/>
<path style="fill:#FFD5B3;" d="M228.829,101.646c0,23.045,18.684,41.729,41.73,41.729s41.728-18.684,41.728-41.729V79.622h-83.458
	L228.829,101.646L228.829,101.646z"/>
<path style="fill:#775436;" d="M228.939,79.622c-0.072,1.009-0.11,2.028-0.11,3.056v18.968c0,16.554,9.641,30.857,23.614,37.601
	V79.622H228.939z"/>
<path style="fill:#EF5050;" d="M270.56,29.44c-23.047,0-41.73,11.479-41.73,34.525v1.201h-35.08c-4.422,0-8.006,3.585-8.006,8.006
	c0,4.422,3.584,8.006,8.006,8.006h118.537V65.167v-0.05C312.287,42.071,293.605,29.44,270.56,29.44z"/>
<path style="opacity:0.1;enable-background:new    ;" d="M270.56,29.44c-2.045,0-4.054,0.095-6.021,0.276
	c20.336,1.936,36.004,14.298,36.004,35.401v0.05v16.012h11.744V65.167v-0.05C312.287,42.071,293.605,29.44,270.56,29.44z"/>
<path style="fill:#F7931E;" d="M244.68,413.999c0,2.75-2.25,5-5,5h-49.295c-2.75,0-5-2.25-5-5v-12.64c0-2.75,2.25-5,5-5h49.295
	c2.75,0,5,2.25,5,5V413.999z"/>
<g style="opacity:0.1;">
	<path d="M206,413.999v-12.64c0-2.75,2.25-5,5-5h-20.615c-2.75,0-5,2.25-5,5v12.64c0,2.75,2.25,5,5,5H211
		C208.25,418.999,206,416.749,206,413.999z"/>
</g>
<path style="fill:#FCDB67;" d="M182.63,248.074l61.97-61.97c-0.889,0.585-1.924,0.89-2.969,0.89c-0.842,0-1.691-0.198-2.476-0.604
	c-17.593-9.11-28.521-27.086-28.521-46.914c0-3.99,0.451-7.98,1.342-11.861c0.19-0.832,0.577-1.601,1.12-2.249
	c-0.655,0.517-1.294,1.065-1.898,1.669l-74.805,74.805L182.63,248.074z"/>
<path style="opacity:0.1;enable-background:new    ;" d="M146.46,211.905l63.225-63.225c-0.38-2.566-0.581-5.181-0.581-7.83
	c0-3.99,0.451-7.98,1.342-11.861c0.22-0.961,0.711-1.83,1.394-2.534c-0.212,0.196-0.435,0.373-0.641,0.579l-74.805,74.805
	L146.46,211.905z"/>
<path style="fill:#FFB98A;" d="M381.699,214.162h-30.706l-48.611-26.438l-60.689-60.69c-4.057-4.056-9.472-6.29-15.247-6.29
	c-5.309,0-10.396,1.926-14.329,5.423c-0.837,0.745-1.421,1.731-1.671,2.822c-0.891,3.881-1.342,7.871-1.342,11.861
	c0,19.828,10.928,37.804,28.52,46.914c0.784,0.406,1.634,0.604,2.476,0.604c1.398,0,2.779-0.544,3.814-1.579l5.473-5.474
	l38.977,31.349c0.345,0.277,0.722,0.511,1.124,0.696l63.286,29.132c0.629,0.289,1.289,0.44,1.947,0.477
	c0.022,0.02,0.047,0.037,0.069,0.056c0.529-7.794,7.022-13.977,14.948-13.977c8.271,0,15,6.729,15,14.999
	c0,0.305-0.027,0.604-0.046,0.904c3.931-1.264,6.776-4.947,6.776-9.299v-11.724C391.469,218.535,387.096,214.162,381.699,214.162z"
	/>
<circle style="fill:#046699;" cx="369.74" cy="244.05" r="16"/>
<path style="fill:#775436;" d="M292.232,109.95c-4.422,0-8.006-3.585-8.006-8.006V94.5c0-4.422,3.584-8.006,8.006-8.006
	s8.006,3.584,8.006,8.006v7.444C300.238,106.366,296.654,109.95,292.232,109.95z"/>
<path style="fill:#C5CCD3;" d="M504.5,482.56H7.5c-4.143,0-7.5-3.358-7.5-7.5s3.357-7.5,7.5-7.5h497c4.143,0,7.5,3.358,7.5,7.5
	S508.643,482.56,504.5,482.56z"/>
<path style="fill:#046699;" d="M212.652,276.566l-75.395-75.394c-0.033-0.033-0.063-0.068-0.097-0.101l-22.031,22.032
	c-8.386,8.386-8.386,22.107,0,30.493l60.246,60.246c0.586,0.586,1.354,0.879,2.121,0.879c0.768,0,1.535-0.293,2.121-0.878
	l33.034-33.033c0.563-0.563,0.879-1.326,0.879-2.122C213.531,277.892,213.215,277.128,212.652,276.566z"/>
<g>
</g>
<g>
</g>
<g>
</g>
<g>
</g>
<g>
</g>
<g>
</g>
<g>
</g>
<g>
</g>
<g>
</g>
<g>
</g>
<g>
</g>
<g>
</g>
<g>
</g>
<g>
</g>
<g>
</g>
</svg>
