<?xml version="1.0" encoding="iso-8859-1"?>
<!-- Generator: Adobe Illustrator 19.0.0, SVG Export Plug-In . SVG Version: 6.00 Build 0)  -->
<svg version="1.1" id="Layer_1" xmlns="http://www.w3.org/2000/svg" xmlns:xlink="http://www.w3.org/1999/xlink" x="0px" y="0px"
	 viewBox="0 0 480 480" style="enable-background:new 0 0 480 480;" xml:space="preserve">
<g>
	<g>
		<path d="M104,192H40c-4.424,0-8,3.584-8,8v32c0,4.416,3.576,8,8,8h64c4.424,0,8-3.584,8-8v-32C112,195.584,108.424,192,104,192z
			 M64,224H48v-16h16V224z M96,224H80v-16h16V224z"/>
	</g>
</g>
<g>
	<g>
		<path d="M104,256H40c-4.424,0-8,3.584-8,8v32c0,4.416,3.576,8,8,8h64c4.424,0,8-3.584,8-8v-32C112,259.584,108.424,256,104,256z
			 M64,288H48v-16h16V288z M96,288H80v-16h16V288z"/>
	</g>
</g>
<g>
	<g>
		<path d="M104,320H40c-4.424,0-8,3.584-8,8v32c0,4.416,3.576,8,8,8h64c4.424,0,8-3.584,8-8v-32C112,323.584,108.424,320,104,320z
			 M64,352H48v-16h16V352z M96,352H80v-16h16V352z"/>
	</g>
</g>
<g>
	<g>
		<path d="M392,192h-64c-4.424,0-8,3.584-8,8v32c0,4.416,3.576,8,8,8h64c4.424,0,8-3.584,8-8v-32C400,195.584,396.424,192,392,192z
			 M352,224h-16v-16h16V224z M384,224h-16v-16h16V224z"/>
	</g>
</g>
<g>
	<g>
		<path d="M392,128h-64c-4.424,0-8,3.584-8,8v32c0,4.416,3.576,8,8,8h64c4.424,0,8-3.584,8-8v-32C400,131.584,396.424,128,392,128z
			 M352,160h-16v-16h16V160z M384,160h-16v-16h16V160z"/>
	</g>
</g>
<g>
	<g>
		<path d="M200,224h-32c-4.424,0-8,3.584-8,8v32c0,4.416,3.576,8,8,8h32c4.424,0,8-3.584,8-8v-32C208,227.584,204.424,224,200,224z
			 M192,256h-16v-16h16V256z"/>
	</g>
</g>
<g>
	<g>
		<path d="M264,224h-32c-4.424,0-8,3.584-8,8v32c0,4.416,3.576,8,8,8h32c4.424,0,8-3.584,8-8v-32C272,227.584,268.424,224,264,224z
			 M256,256h-16v-16h16V256z"/>
	</g>
</g>
<g>
	<g>
		<path d="M200,160h-32c-4.424,0-8,3.584-8,8v32c0,4.416,3.576,8,8,8h32c4.424,0,8-3.584,8-8v-32C208,163.584,204.424,160,200,160z
			 M192,192h-16v-16h16V192z"/>
	</g>
</g>
<g>
	<g>
		<path d="M264,160h-32c-4.424,0-8,3.584-8,8v32c0,4.416,3.576,8,8,8h32c4.424,0,8-3.584,8-8v-32C272,163.584,268.424,160,264,160z
			 M256,192h-16v-16h16V192z"/>
	</g>
</g>
<g>
	<g>
		<path d="M200,96h-32c-4.424,0-8,3.584-8,8v32c0,4.416,3.576,8,8,8h32c4.424,0,8-3.584,8-8v-32C208,99.584,204.424,96,200,96z
			 M192,128h-16v-16h16V128z"/>
	</g>
</g>
<g>
	<g>
		<path d="M264,96h-32c-4.424,0-8,3.584-8,8v32c0,4.416,3.576,8,8,8h32c4.424,0,8-3.584,8-8v-32C272,99.584,268.424,96,264,96z
			 M256,128h-16v-16h16V128z"/>
	</g>
</g>
<g>
	<g>
		<path d="M200,320h-32c-4.424,0-8,3.584-8,8v32c0,4.416,3.576,8,8,8h32c4.424,0,8-3.584,8-8v-32C208,323.584,204.424,320,200,320z
			 M192,352h-16v-16h16V352z"/>
	</g>
</g>
<g>
	<g>
		<rect x="32" y="384" width="16" height="16"/>
	</g>
</g>
<g>
	<g>
		<rect x="64" y="384" width="16" height="16"/>
	</g>
</g>
<g>
	<g>
		<rect x="96" y="384" width="16" height="16"/>
	</g>
</g>
<g>
	<g>
		<path d="M472,288h-40V104c0-4.416-3.576-8-8-8h-56V83.312l8.408-8.408c7,5.2,15.248,7.952,23.592,7.952
			c10.16,0,20.32-3.864,28.064-11.6l1.6-1.608c3.12-3.128,3.12-8.184-0.008-11.304L411.312,40l18.344-18.344l-11.312-11.312
			L400,28.688L373.656,2.344C372.16,0.84,370.128,0,368,0c-3.208,0-5.136,1.752-6.424,2.928
			c-7.904,7.248-12.384,17.192-12.608,27.984c-0.232,10.808,4.016,21.392,11.664,29.032L364.688,64l-10.344,10.344
			C352.84,75.84,352,77.88,352,80v16h-48V72c0-4.416-3.576-8-8-8h-28L222.4,3.2c-3.016-4.032-9.784-4.032-12.8,0L164,64h-28
			c-4.424,0-8,3.584-8,8v88H80V96H64v64H8c-4.424,0-8,3.584-8,8v304c0,4.416,3.576,8,8,8h128h56h64h8h48h128
			c22.056,0,40-17.944,40-40V296C480,291.584,476.424,288,472,288z M128,464H16V176h112V464z M368.36,19.672l43.832,43.832
			c-9.088,5.464-21.096,4.272-28.928-3.552l-11.312-11.32c-4.64-4.648-7.128-10.816-6.984-17.376
			C365.056,27.104,366.192,23.168,368.36,19.672z M216,21.336L248,64h-64L216,21.336z M184,400v64h-40V168V80h144v24v144h16V112h112
			v176h-16v-8c0-13.232-10.768-24-24-24h-48c-13.232,0-24,10.768-24,24v8h-72c-4.424,0-8,3.584-8,8v88h-64v16H184z M384,280v8h-64
			v-8c0-4.408,3.584-8,8-8h48C380.416,272,384,275.592,384,280z M200,464v-64h24v40c0,9.04,3.128,17.296,8.208,24H200z M464,440
			c0,13.232-10.768,24-24,24H312h-48c-13.232,0-24-10.768-24-24v-80.208c6.704,5.08,14.96,8.208,24,8.208h8v24c0,4.416,3.576,8,8,8
			h32c4.424,0,8-3.584,8-8v-24h8h48h8v24c0,4.416,3.576,8,8,8h32c4.424,0,8-3.584,8-8v-24h8c9.04,0,17.296-3.128,24-8.208V440z
			 M288,384v-16h16v16H288z M336,352v-16h32v16H336z M400,384v-16h16v16H400z M464,328c0,13.232-10.768,24-24,24h-16h-32h-8v-24
			c0-4.416-3.576-8-8-8h-48c-4.424,0-8,3.584-8,8v24h-8h-32h-16c-13.232,0-24-10.768-24-24v-24h224V328z"/>
	</g>
</g>
<g>
	<g>
		<rect x="432" y="432" width="16" height="16"/>
	</g>
</g>
<g>
	<g>
		<rect x="400" y="432" width="16" height="16"/>
	</g>
</g>
<g>
	<g>
		<rect x="368" y="432" width="16" height="16"/>
	</g>
</g>
<g>
</g>
<g>
</g>
<g>
</g>
<g>
</g>
<g>
</g>
<g>
</g>
<g>
</g>
<g>
</g>
<g>
</g>
<g>
</g>
<g>
</g>
<g>
</g>
<g>
</g>
<g>
</g>
<g>
</g>
</svg>
