<?xml version="1.0" encoding="iso-8859-1"?>
<!-- Generator: Adobe Illustrator 19.0.0, SVG Export Plug-In . SVG Version: 6.00 Build 0)  -->
<svg xmlns="http://www.w3.org/2000/svg" xmlns:xlink="http://www.w3.org/1999/xlink" version="1.1" id="Capa_1" x="0px" y="0px" viewBox="0 0 480.008 480.008" style="enable-background:new 0 0 480.008 480.008;" xml:space="preserve" width="512px" height="512px">
<g>
	<g>
		<path d="M455.674,37.72c-0.699-2.342-2.43-4.237-4.7-5.143l-80-32c-4.101-1.644-8.758,0.349-10.402,4.45    c-0.38,0.948-0.575,1.961-0.574,2.982v104h-48c-4.418,0-8,3.582-8,8v96h-96c-4.418,0-8,3.582-8,8v96h-104c-4.418,0-8,3.582-8,8    v144c0,4.418,3.582,8,8,8s8-3.582,8-8v-136h104c4.418,0,8-3.582,8-8v-96h96c4.418,0,8-3.582,8-8v-96h112v344c0,4.418,3.582,8,8,8    s8-3.582,8-8v-352c0-4.418-3.582-8-8-8h-64V69.96l74.296-22.288C454.528,46.41,456.937,41.954,455.674,37.72z M375.998,53.256    V19.824l47.76,19.104L375.998,53.256z" fill="#d84315"/>
	</g>
</g>
<g>
	<g>
		<path d="M31.998,440.008c-4.418,0-8,3.582-8,8v24c0,4.418,3.582,8,8,8s8-3.582,8-8v-24    C39.998,443.59,36.417,440.008,31.998,440.008z" fill="#d84315"/>
	</g>
</g>
<g>
	<g>
		<path d="M293.654,82.352l-24-24c-0.072-0.072-0.168-0.096-0.24-0.16c-0.682-0.67-1.479-1.211-2.352-1.6    c-0.064,0-0.136,0-0.208-0.048c-0.814-0.306-1.674-0.474-2.544-0.496c-0.256,0-0.504,0-0.8,0.04    c-0.692,0.038-1.375,0.17-2.032,0.392c-0.256,0.088-0.504,0.16-0.752,0.272c-0.891,0.383-1.704,0.925-2.4,1.6l-24,24    c-3.069,3.178-2.981,8.243,0.197,11.312c3.1,2.994,8.015,2.994,11.115,0l10.36-10.344v68.688h-112c-4.418,0-8,3.582-8,8v104h-104    c-4.418,0-8,3.582-8,8v144c0,4.418,3.582,8,8,8s8-3.582,8-8v-136h104c4.418,0,8-3.582,8-8v-104h112c4.418,0,8-3.582,8-8V83.32    l10.344,10.344c3.178,3.07,8.242,2.982,11.312-0.196C296.649,90.368,296.649,85.452,293.654,82.352z" fill="#d84315"/>
	</g>
</g>
<g>
	<g>
		<path d="M191.998,352.008h-64c-4.418,0-8,3.582-8,8s3.582,8,8,8h64c4.418,0,8-3.582,8-8S196.417,352.008,191.998,352.008z" fill="#d84315"/>
	</g>
</g>
<g>
	<g>
		<path d="M303.998,248.008h-64c-4.418,0-8,3.582-8,8s3.582,8,8,8h64c4.418,0,8-3.582,8-8S308.417,248.008,303.998,248.008z" fill="#d84315"/>
	</g>
</g>
<g>
	<g>
		<path d="M407.998,144.008h-64c-4.418,0-8,3.582-8,8s3.582,8,8,8h64c4.418,0,8-3.582,8-8S412.417,144.008,407.998,144.008z" fill="#d84315"/>
	</g>
</g>
<g>
</g>
<g>
</g>
<g>
</g>
<g>
</g>
<g>
</g>
<g>
</g>
<g>
</g>
<g>
</g>
<g>
</g>
<g>
</g>
<g>
</g>
<g>
</g>
<g>
</g>
<g>
</g>
<g>
</g>
</svg>
