<?xml version="1.0" encoding="iso-8859-1"?>
<!-- Generator: Adobe Illustrator 19.0.0, SVG Export Plug-In . SVG Version: 6.00 Build 0)  -->
<svg xmlns="http://www.w3.org/2000/svg" xmlns:xlink="http://www.w3.org/1999/xlink" version="1.1" id="Layer_1" x="0px" y="0px" viewBox="0 0 512 512" style="enable-background:new 0 0 512 512;" xml:space="preserve" width="512px" height="512px">
<g>
	<g>
		<g>
			<path d="M501.333,469.333h-10.667V160c0-5.896-4.771-10.667-10.667-10.667h-64c-5.896,0-10.667,4.771-10.667,10.667v309.333     h-42.667v-224c0-5.896-4.771-10.667-10.667-10.667h-64c-5.896,0-10.667,4.771-10.667,10.667v224h-42.667V224     c0-5.896-4.771-10.667-10.667-10.667h-64c-5.896,0-10.667,4.771-10.667,10.667v245.333h-42.667v-96     c0-5.896-4.771-10.667-10.667-10.667H32c-5.896,0-10.667,4.771-10.667,10.667v96H10.667C4.771,469.333,0,474.104,0,480     c0,5.896,4.771,10.667,10.667,10.667h490.667c5.896,0,10.667-4.771,10.667-10.667C512,474.104,507.229,469.333,501.333,469.333z      M85.333,469.333H42.667V384h42.667V469.333z M213.333,469.333h-42.667V234.667h42.667V469.333z M341.333,469.333h-42.667V256     h42.667V469.333z M469.333,469.333h-42.667V170.667h42.667V469.333z" fill="#0288D1"/>
			<path d="M32,298.667c2.604,0,5.229-0.948,7.271-2.865l155.771-145.385l122.375,30.594c3.646,0.927,7.479-0.167,10.125-2.802     L448,57.75V96c0,5.896,4.771,10.667,10.667,10.667s10.667-4.771,10.667-10.667V32c0-5.896-4.771-10.667-10.667-10.667h-64     C388.771,21.333,384,26.104,384,32s4.771,10.667,10.667,10.667h38.25L316.729,158.854l-122.146-30.531     c-3.521-0.885-7.208,0.073-9.854,2.542l-160,149.333c-4.313,4.021-4.542,10.771-0.521,15.083     C26.313,297.531,29.146,298.667,32,298.667z" fill="#FFFFFF"/>
		</g>
	</g>
</g>
<g>
</g>
<g>
</g>
<g>
</g>
<g>
</g>
<g>
</g>
<g>
</g>
<g>
</g>
<g>
</g>
<g>
</g>
<g>
</g>
<g>
</g>
<g>
</g>
<g>
</g>
<g>
</g>
<g>
</g>
</svg>
