<?xml version="1.0" encoding="iso-8859-1"?>
<!-- Generator: Adobe Illustrator 19.0.0, SVG Export Plug-In . SVG Version: 6.00 Build 0)  -->
<svg xmlns="http://www.w3.org/2000/svg" xmlns:xlink="http://www.w3.org/1999/xlink" version="1.1" id="Capa_1" x="0px" y="0px" viewBox="0 0 426.88 426.88" style="enable-background:new 0 0 426.88 426.88;" xml:space="preserve" width="512px" height="512px">
<g>
	<g>
		<path d="M382.48,181.432H277.44c0.792-3.924,1.194-7.917,1.2-11.92v-93.44c0-36.16-25.2-49.04-49.2-49.04H48.96    c-24,0-48.96,12.88-48.96,48.96v93.44c0,32.88,20.88,46.48,42.48,48.64v42.56c-0.009,4.418,3.566,8.007,7.984,8.016    c2.388,0.005,4.652-1.057,6.176-2.896l40-47.36h81.44c-0.303,2.415-0.464,4.846-0.48,7.28v82.96c0,32.72,22.96,44.4,44.4,44.4    h15.44l36.8,43.92c2.819,3.402,7.862,3.875,11.264,1.056c1.838-1.523,2.9-3.788,2.896-6.176v-38.8h94.08    c32.72,0,44.4-22.96,44.4-44.4v-82.96C426.96,192.952,404,181.432,382.48,181.432z M182.8,202.392l-0.32,0.16H92.56    c-2.379-0.004-4.637,1.052-6.16,2.88l-27.92,33.36v-28.4c0-4.418-3.582-8-8-8h-1.52c-12.32,0-32.96-4.32-32.96-32.96v-93.36    c0-28.72,20.64-32.96,32.96-32.96h180.48c12.32,0,32.96,4.32,32.96,33.04v93.28c0.098,4.048-0.387,8.09-1.44,12h-38.88    C206.081,180.448,190.89,188.554,182.8,202.392z M388.143,337.032c-1.856,0.202-3.728,0.202-5.583,0H280.24c-4.418,0-8,3.582-8,8    v24.8l-25.04-29.92c-1.523-1.828-3.781-2.884-6.16-2.88h-18.96c-14.143,1.542-26.858-8.674-28.4-22.817    c-0.202-1.856-0.202-3.728,0-5.583v-82.96c-1.452-14.153,8.843-26.803,22.996-28.255c1.797-0.184,3.608-0.179,5.404,0.015h160.4    c14.143-1.542,26.858,8.674,28.4,22.817c0.202,1.856,0.202,3.728,0,5.583l0.08,82.8    C412.502,322.775,402.286,335.49,388.143,337.032z" fill="#0288D1"/>
	</g>
</g>
<g>
	<g>
		<path d="M166.08,86.552c-2.575-3.988-6.24-7.153-10.56-9.12c-4.786-2.207-10.01-3.302-15.28-3.2c-5.57-0.069-11.069,1.251-16,3.84    c-4.329,2.245-7.997,5.582-10.64,9.68c-2.543,3.47-3.991,7.621-4.16,11.92c0.048,1.951,0.885,3.798,2.32,5.12    c1.497,1.527,3.542,2.391,5.68,2.4c3.787,0,6.453-2.267,8-6.8c1.053-3.589,2.852-6.915,5.28-9.76    c2.613-2.428,6.125-3.647,9.68-3.36c3.376-0.14,6.674,1.036,9.2,3.28c2.303,2.018,3.617,4.937,3.6,8    c0.007,1.599-0.407,3.171-1.2,4.56c-0.772,1.411-1.742,2.704-2.88,3.84c-1.12,1.12-2.96,2.8-5.52,5.04    c-2.432,2.093-4.755,4.309-6.96,6.64c-3.834,4.113-5.877,9.581-5.68,15.2c-0.165,2.24,0.618,4.446,2.16,6.08    c1.4,1.33,3.27,2.049,5.2,2c3.657,0.271,6.842-2.474,7.113-6.131c0.003-0.036,0.005-0.073,0.007-0.109    c0.4-1.92,0.8-3.36,0.96-4.08c0.241-0.804,0.563-1.581,0.96-2.32c0.509-0.924,1.127-1.783,1.84-2.56    c1.032-1.153,2.127-2.248,3.28-3.28c4.907-4.373,8.32-7.493,10.24-9.36c1.954-1.953,3.6-4.192,4.88-6.64    c1.428-2.739,2.143-5.792,2.08-8.88C169.706,94.282,168.452,90.102,166.08,86.552z" fill="#0288D1"/>
	</g>
</g>
<g>
	<g>
		<path d="M147.68,156.312c0.044-4.86-3.859-8.836-8.719-8.88c-0.054,0-0.107,0-0.161,0l-0.08-0.08    c-2.419-0.065-4.759,0.86-6.48,2.56c-1.721,1.647-2.678,3.938-2.64,6.32c-0.193,2.519,0.816,4.98,2.72,6.64    c1.759,1.571,4.042,2.428,6.4,2.4c2.309,0.019,4.539-0.839,6.24-2.4C146.841,161.23,147.847,158.803,147.68,156.312z" fill="#0288D1"/>
	</g>
</g>
<g>
	<g>
		<path d="M317.44,231.912c0.191-3.966-0.492-7.926-2-11.6c-1.517-2.641-4.401-4.191-7.44-4c-2.998-0.205-5.932,0.939-8,3.12    c-2.077,2.415-3.138,5.54-2.96,8.72c0,2.72,0.213,7.227,0.64,13.52l2.16,32c0.171,3.206,0.846,6.364,2,9.36    c0.871,1.974,2.887,3.19,5.04,3.04c2.208,0.111,4.252-1.167,5.12-3.2c1.21-2.895,1.887-5.984,2-9.12l3.44-32.8    C317.594,237.941,317.594,234.924,317.44,231.912z" fill="#0288D1"/>
	</g>
</g>
<g>
	<g>
		<path d="M314.72,301.112c-1.934-1.91-4.563-2.949-7.28-2.88c-5.523-0.044-10.036,4.397-10.08,9.919c0,0.054,0,0.107,0,0.161    c-0.157,2.811,0.959,5.543,3.04,7.44c1.984,1.751,4.554,2.693,7.2,2.64c2.606,0.015,5.121-0.957,7.04-2.72    c2.071-1.903,3.186-4.631,3.04-7.44C317.732,305.549,316.658,302.967,314.72,301.112z" fill="#0288D1"/>
	</g>
</g>
<g>
</g>
<g>
</g>
<g>
</g>
<g>
</g>
<g>
</g>
<g>
</g>
<g>
</g>
<g>
</g>
<g>
</g>
<g>
</g>
<g>
</g>
<g>
</g>
<g>
</g>
<g>
</g>
<g>
</g>
</svg>
