<?xml version="1.0" encoding="iso-8859-1"?>
<!-- Generator: Adobe Illustrator 16.0.0, SVG Export Plug-In . SVG Version: 6.00 Build 0)  -->
<!DOCTYPE svg PUBLIC "-//W3C//DTD SVG 1.1//EN" "http://www.w3.org/Graphics/SVG/1.1/DTD/svg11.dtd">
<svg version="1.1" id="Capa_1" xmlns="http://www.w3.org/2000/svg" xmlns:xlink="http://www.w3.org/1999/xlink" x="0px" y="0px"
	 width="25px" height="25px" viewBox="0 0 611.994 611.994" style="enable-background:new 0 0 611.994 611.994;"
	 xml:space="preserve">
<g>
	<g>
		<g>
			<path d="M306.032,611.994v-14.703l-0.023,14.703C137.29,611.994,0.012,474.722,0,305.997C0,137.272,137.272,0,305.997,0
				c168.729,0,305.997,137.272,305.997,305.997C612,474.722,474.745,611.994,306.032,611.994z M305.997,29.406
				c-152.51,0-276.591,124.081-276.591,276.591c0.012,152.511,124.099,276.591,276.603,276.591h0.023
				c152.499,0,276.556-124.08,276.556-276.591C582.594,153.487,458.514,29.406,305.997,29.406z"/>
			<g>
				<path d="M306.009,481.303c-55.595,0-100.833-42.621-100.833-95.004c0-8.122,6.581-14.703,14.703-14.703
					s14.703,6.581,14.703,14.703c0,36.169,32.041,65.6,71.427,65.6s71.415-29.431,71.415-65.6c0-36.17-32.035-65.599-71.415-65.599
					c-55.595,0-100.833-42.621-100.833-95.004c0-52.384,45.238-95.004,100.833-95.004c29.854,0,57.988,12.351,77.196,33.887
					c5.404,6.063,4.869,15.355-1.188,20.76c-6.058,5.411-15.354,4.87-20.76-1.188c-13.627-15.285-33.764-24.054-55.248-24.054
					c-39.38,0-71.427,29.423-71.427,65.599c0,36.169,32.041,65.598,71.427,65.598c55.596,0,100.821,42.621,100.821,95.005
					C406.836,438.682,361.604,481.303,306.009,481.303z"/>
				<path d="M303.315,525.235c-8.122,0-14.703-6.581-14.703-14.703v-409.07c0-8.122,6.581-14.703,14.703-14.703
					c8.123,0,14.703,6.581,14.703,14.703v409.07C318.019,518.654,311.438,525.235,303.315,525.235z"/>
			</g>
		</g>
	</g>
</g>
<g>
</g>
<g>
</g>
<g>
</g>
<g>
</g>
<g>
</g>
<g>
</g>
<g>
</g>
<g>
</g>
<g>
</g>
<g>
</g>
<g>
</g>
<g>
</g>
<g>
</g>
<g>
</g>
<g>
</g>
</svg>
