<?xml version="1.0" encoding="iso-8859-1"?>
<!-- Generator: Adobe Illustrator 19.1.0, SVG Export Plug-In . SVG Version: 6.00 Build 0)  -->
<svg xmlns="http://www.w3.org/2000/svg" xmlns:xlink="http://www.w3.org/1999/xlink" version="1.1" id="Capa_1" x="0px" y="0px" viewBox="0 0 486.025 486.025" style="enable-background:new 0 0 486.025 486.025;" xml:space="preserve" width="512px" height="512px">
<g>
	<g>
		<path d="M420.725,85.413c-42.1-42.1-98.1-65.3-157.6-65.3c-60.6,0-117.3,23.9-159.6,67.3c-4.6,4.7-4.5,12.3,0.2,17    c4.7,4.6,12.3,4.5,17-0.2c37.8-38.7,88.3-60,142.4-60c109.7-0.1,198.9,89.1,198.9,198.8s-89.2,198.9-198.9,198.9    s-198.9-89.2-198.9-198.9v-2.5l19.8,19.8c2.3,2.3,5.4,3.5,8.5,3.5s6.1-1.2,8.5-3.5c4.7-4.7,4.7-12.3,0-17l-40.2-40.3    c-4.7-4.7-12.3-4.7-17,0l-40.3,40.3c-4.7,4.7-4.7,12.3,0,17s12.3,4.7,17,0l19.8-19.8v2.5c0,59.5,23.2,115.5,65.3,157.6    s98.1,65.3,157.6,65.3s115.5-23.2,157.6-65.3s65.2-98.1,65.2-157.6S462.825,127.513,420.725,85.413z" fill="#0288D1"/>
		<path d="M326.925,161.913l-147.4,147.3c-4.7,4.7-4.7,12.3,0,17c2.3,2.3,5.4,3.5,8.5,3.5s6.1-1.2,8.5-3.5l147.4-147.4    c4.7-4.7,4.7-12.3,0-17C339.225,157.213,331.625,157.213,326.925,161.913z" fill="#0288D1"/>
		<path d="M288.325,261.113c-16.7,16.7-16.7,44,0,60.7c8.1,8.1,18.9,12.6,30.4,12.6s22.3-4.5,30.4-12.6c16.7-16.7,16.7-44,0-60.7    c-8.1-8.1-18.9-12.6-30.4-12.6C307.225,248.513,296.525,253.013,288.325,261.113z M332.125,304.913c-3.6,3.6-8.3,5.5-13.4,5.5    s-9.8-2-13.4-5.5c-7.4-7.4-7.4-19.4,0-26.8c3.6-3.6,8.3-5.5,13.4-5.5s9.8,2,13.4,5.5    C339.525,285.513,339.525,297.513,332.125,304.913z" fill="#0288D1"/>
		<path d="M207.925,151.213c-11.5,0-22.3,4.5-30.4,12.6s-12.6,18.9-12.6,30.4s4.5,22.3,12.6,30.4s18.9,12.6,30.4,12.6    s22.3-4.5,30.4-12.6c8.1-8.1,12.6-18.9,12.6-30.4s-4.5-22.3-12.6-30.4C230.125,155.713,219.425,151.213,207.925,151.213z     M221.325,207.613c-3.6,3.6-8.3,5.5-13.4,5.5s-9.8-2-13.4-5.5c-3.6-3.6-5.5-8.3-5.5-13.4c0-5.1,2-9.8,5.5-13.4    c3.6-3.6,8.3-5.5,13.4-5.5s9.8,2,13.4,5.5c3.6,3.6,5.5,8.3,5.5,13.4C226.825,199.213,224.925,204.013,221.325,207.613z" fill="#0288D1"/>
	</g>
</g>
<g>
</g>
<g>
</g>
<g>
</g>
<g>
</g>
<g>
</g>
<g>
</g>
<g>
</g>
<g>
</g>
<g>
</g>
<g>
</g>
<g>
</g>
<g>
</g>
<g>
</g>
<g>
</g>
<g>
</g>
</svg>
