<?xml version="1.0"?>
<svg xmlns="http://www.w3.org/2000/svg" height="512px" viewBox="1 1 511.99998 511.99998" width="512px"><path d="m8.535156 68.265625c4.710938 0 8.53125-3.820313 8.53125-8.53125v-42.667969h42.667969c4.710937 0 8.53125-3.820312 8.53125-8.53125 0-4.714844-3.820313-8.535156-8.53125-8.535156h-51.199219c-4.714844 0-8.535156 3.820312-8.535156 8.535156v51.199219c0 4.710937 3.820312 8.53125 8.535156 8.53125zm0 0" fill="#f57c00"/><path d="m503.464844 443.734375c-4.710938 0-8.53125 3.820313-8.53125 8.53125v42.667969h-42.667969c-4.710937 0-8.53125 3.820312-8.53125 8.53125 0 4.714844 3.820313 8.535156 8.53125 8.535156h51.199219c4.714844 0 8.535156-3.820312 8.535156-8.535156v-51.199219c0-4.710937-3.820312-8.53125-8.535156-8.53125zm0 0" fill="#f57c00"/><path d="m59.734375 494.933594h-42.667969v-42.667969c0-4.710937-3.820312-8.53125-8.53125-8.53125-4.714844 0-8.535156 3.820313-8.535156 8.53125v51.199219c0 4.714844 3.820312 8.535156 8.535156 8.535156h51.199219c4.710937 0 8.53125-3.820312 8.53125-8.535156 0-4.710938-3.820313-8.53125-8.53125-8.53125zm0 0" fill="#f57c00"/><path d="m503.464844 0h-51.199219c-4.710937 0-8.53125 3.820312-8.53125 8.535156 0 4.710938 3.820313 8.53125 8.53125 8.53125h42.667969v42.667969c0 4.710937 3.820312 8.53125 8.53125 8.53125 4.714844 0 8.535156-3.820313 8.535156-8.53125v-51.199219c0-4.714844-3.820312-8.535156-8.535156-8.535156zm0 0" fill="#f57c00"/><path d="m153.601562 332.800781c.023438 11.636719 2.042969 23.179688 5.972657 34.132813h-5.972657c-56.53125.0625-102.339843 45.871094-102.402343 102.398437 0 4.714844 3.820312 8.535157 8.535156 8.535157h392.53125c4.714844 0 8.535156-3.820313 8.535156-8.535157-.0625-56.527343-45.871093-102.335937-102.402343-102.398437h-5.972657c2.949219-8.257813 4.808594-16.863282 5.539063-25.601563h77.234375v-17.066406h-76.800781v-60.585937c23.058593-4.691407 37.953124-27.183594 33.261718-50.242188-2.195312-10.785156-8.472656-20.300781-17.523437-26.558594l29.140625-16.210937h31.921875v-17.066407h-34.132813c-1.449218-.003906-2.875.367188-4.136718 1.074219l-38.53125 21.402344v-17.503906c-.046876-.398438-.128907-.789063-.238282-1.175781l55.332032-39.527344c3.832031-2.742188 4.71875-8.070313 1.976562-11.90625-.503906-.707032-1.117188-1.335938-1.816406-1.859375l-71.953125-53.964844c-21.261719-15.882813-47.078125-24.488281-73.617188-24.539063-31.179687-.089843-61.207031 11.78125-83.898437 33.167969-17.460938-3.636719-35.449219 3.164063-46.140625 17.441407l-2.363281 3.15625c-21.488282 28.867187-21.488282 68.414062 0 97.28125l10.65625 14.214843c-21.796876 8.601563-32.496094 33.242188-23.898438 55.039063 2.933594 7.4375 7.914062 13.898437 14.359375 18.632812h-59.996094v17.066406h76.800781zm102.398438 85.332031c-47.105469-.050781-85.28125-38.226562-85.332031-85.332031v-47.667969l28.097656 28.101563c2.289063 2.28125 5.667969 3.078125 8.730469 2.054687l48.503906-16.160156 48.503906 16.160156c.867188.292969 1.777344.445313 2.695313.445313 2.265625 0 4.433593-.902344 6.035156-2.5l28.097656-28.101563v47.667969c-.050781 47.105469-38.226562 85.28125-85.332031 85.332031zm85.332031-232.574218-21.203125 11.78125 8.277344 14.917968 12.925781-7.175781v55.917969l-36.445312 36.429688-40.789063-13.585938c.863282-2.929688.070313-6.09375-2.066406-8.277344l-12.117188-12.117187 13.1875-19.78125c2.613282-3.917969 1.554688-9.21875-2.367187-11.832031-3.917969-2.617188-9.21875-1.558594-11.835937 2.363281l-17.066407 25.597656c-2.253906 3.386719-1.808593 7.894531 1.066407 10.769531l13.714843 13.703125-39.492187 13.160157-15.847656-15.828126h22.058593v-17.066406h-39.132812l-3.53125-3.535156v-59.734375c21.195312-9.972656 38.835937-26.191406 50.550781-46.480469l5.488281 5.265625c.25.238281.515625.464844.792969.675781 33.046875 24.929688 77.699219 27.984376 113.832031 7.78125zm17.066407 198.441406c43.804687.050781 80.476562 33.21875 84.90625 76.800781h-374.609376c4.429688-43.582031 41.101563-76.75 84.90625-76.800781h13.847657c28.15625 48.90625 90.628906 65.726562 139.53125 37.566406 15.617187-8.988281 28.578125-21.949218 37.570312-37.566406zm0-137.992188v-48.28125c13.335937 4.703126 20.328124 19.328126 15.621093 32.660157-2.574219 7.300781-8.316406 13.042969-15.621093 15.621093zm-209.066407-156.40625 2.355469-3.148437c7.230469-9.695313 19.75-13.832031 31.335938-10.359375 2.3125 1.09375 5 1.09375 7.3125 0h.101562c1.148438-.566406 2.15625-1.386719 2.9375-2.398438 19.753906-19.910156 46.660156-31.082031 74.707031-31.027343 22.847657.042969 45.070313 7.453125 63.371094 21.128906l62.625 46.933594-52.566406 37.546875c-30.980469 22.246094-72.796875 21.875-103.382813-.914063l-13.363281-12.800781c-3.394531-3.269531-8.796875-3.167969-12.0625.230469-.679687.703125-1.230469 1.515625-1.632813 2.40625-9.488281 21.273437-26.226562 38.480469-47.230468 48.546875l-14.507813-19.34375c-16.957031-22.792969-16.957031-54.011719 0-76.800782zm4.269531 116.65625v48.28125c-13.335937-4.703124-20.328124-19.324218-15.621093-32.660156 2.574219-7.300781 8.316406-13.042968 15.621093-15.621094zm0 0" fill="#f57c00"/><path d="m315.734375 221.867188c0 9.425781-7.640625 17.066406-17.066406 17.066406s-17.066407-7.640625-17.066407-17.066406c0-9.425782 7.640626-17.066407 17.066407-17.066407s17.066406 7.640625 17.066406 17.066407zm0 0" fill="#f57c00"/><path d="m221.867188 221.867188c0 9.425781-7.640626 17.066406-17.066407 17.066406s-17.066406-7.640625-17.066406-17.066406c0-9.425782 7.640625-17.066407 17.066406-17.066407s17.066407 7.640625 17.066407 17.066407zm0 0" fill="#f57c00"/><path d="m278.914062 316.167969-4.019531 1.339843c-12.273437 4.0625-25.523437 4.0625-37.796875 0l-4.007812-1.332031c-4.480469-1.484375-9.3125.941407-10.796875 5.417969-1.484375 4.480469.941406 9.3125 5.417969 10.796875l3.996093 1.324219c15.769531 5.226562 32.808594 5.226562 48.578125 0l4.003906-1.332032c4.476563-1.484374 6.902344-6.316406 5.417969-10.796874-1.484375-4.476563-6.316406-6.902344-10.792969-5.417969zm0 0" fill="#f57c00"/><path d="m503.464844 102.398438h-42.664063c-4.714843 0-8.535156 3.820312-8.535156 8.535156v51.199218c0 4.714844 3.820313 8.535157 8.535156 8.535157h42.664063c4.714844 0 8.535156-3.820313 8.535156-8.535157v-51.199218c0-4.714844-3.820312-8.535156-8.535156-8.535156zm-8.53125 51.203124h-25.601563v-34.132812h25.601563zm0 0" fill="#f57c00"/><path d="m452.265625 187.734375h59.734375v17.066406h-59.734375zm0 0" fill="#f57c00"/><path d="m452.265625 221.867188h59.734375v17.066406h-59.734375zm0 0" fill="#f57c00"/><path d="m452.265625 290.132812h59.734375v17.066407h-59.734375zm0 0" fill="#f57c00"/><path d="m452.265625 324.265625h59.734375v17.066406h-59.734375zm0 0" fill="#f57c00"/><path d="m8.535156 264.535156v17.066406c0 4.710938 3.820313 8.53125 8.53125 8.53125 4.714844 0 8.535156-3.820312 8.535156-8.53125v-13.535156l8.53125-8.535156 8.535157 8.535156v13.535156c0 4.710938 3.820312 8.53125 8.53125 8.53125 4.714843 0 8.535156-3.820312 8.535156-8.53125v-17.066406c0-2.265625-.902344-4.433594-2.5-6.035156l-11.035156-11.035156 11.035156-11.03125c1.597656-1.601563 2.5-3.769532 2.5-6.035156v-17.066407c0-4.710937-3.820313-8.53125-8.535156-8.53125-4.710938 0-8.53125 3.820313-8.53125 8.53125v13.535157l-8.535157 8.535156-8.53125-8.535156v-13.535157c0-4.710937-3.820312-8.53125-8.535156-8.53125-4.710937 0-8.53125 3.820313-8.53125 8.53125v17.066407c0 2.265624.898438 4.433593 2.5 6.035156l11.03125 11.03125-11.03125 11.035156c-1.601562 1.601562-2.5 3.769531-2.5 6.035156zm0 0" fill="#f57c00"/><path d="m8.535156 307.199219h51.199219v17.066406h-51.199219zm0 0" fill="#f57c00"/><path d="m8.535156 341.332031h51.199219v17.066407h-51.199219zm0 0" fill="#f57c00"/><path d="m452.265625 358.398438h17.066406v17.066406h-17.066406zm0 0" fill="#f57c00"/><path d="m486.398438 358.398438h17.066406v17.066406h-17.066406zm0 0" fill="#f57c00"/></svg>
