<svg xmlns="http://www.w3.org/2000/svg" xmlns:xlink="http://www.w3.org/1999/xlink" viewBox="0 0 1200 1200"><defs><style>.cls-1{fill:none;}.cls-2{clip-path:url(#clip-path);}.cls-3{fill:#e0e0e0;}.cls-4{fill:#c6c6c6;}.cls-5{fill:#efefef;}.cls-6{fill:#5d4037;}.cls-7{fill:#294c72;}.cls-8{fill:#235d8c;}.cls-9{fill:#ffc08d;}.cls-10{fill:#ffb680;}.cls-11{fill:#3f3f3f;}.cls-12{fill:#333;}.cls-13{fill:#f9f9f9;}.cls-14{fill:#e2e2e2;}.cls-15{fill:#636e75;}.cls-16{fill:#535f66;}.cls-17{fill:#326799;}.cls-18{fill:#ffcb99;}.cls-19{fill:#f49267;}.cls-20{fill:#ea805c;}.cls-21{fill:#282828;}.cls-22{fill:#72401f;}.cls-23{fill:#643614;}.cls-24{fill:#d65037;}.cls-25{fill:#699635;}.cls-26{fill:#83bf4f;}.cls-27{fill:#ffdd7d;}.cls-28{fill:#dbb471;}.cls-29{fill:#8d9998;}.cls-30{fill:#e8e8e8;}.cls-31{fill:#d1d1d1;}</style><clipPath id="clip-path"><rect class="cls-1" y="89.93" width="1200" height="1110.07"/></clipPath></defs><title>Artboard 54</title><g id="Character"><g class="cls-2"><rect class="cls-3" x="-3.62" y="781.38" width="214.24" height="157.31" transform="translate(-743.27 677.39) rotate(-70.97)"/><path class="cls-4" d="M189.71,800.15a3.65,3.65,0,0,0-2.25-4.62l-110.28-38a3.62,3.62,0,0,0-4.62,2.25l-1.43,4.13a3.64,3.64,0,0,0,2.25,4.62l110.28,38a3.63,3.63,0,0,0,4.62-2.25Z"/><path class="cls-4" d="M181.5,812.81l-110.28-38A3.64,3.64,0,0,0,66.6,777l-1.43,4.14a3.63,3.63,0,0,0,2.25,4.61l110.28,38a3.64,3.64,0,0,0,4.62-2.25l1.42-4.13A3.63,3.63,0,0,0,181.5,812.81Z"/><path class="cls-4" d="M177.78,834.71a3.62,3.62,0,0,0-2.25-4.62L65.26,792a3.63,3.63,0,0,0-4.62,2.25l-1.43,4.13A3.63,3.63,0,0,0,61.46,803l110.28,38.05a3.64,3.64,0,0,0,4.62-2.25Z"/><path class="cls-4" d="M168.74,860.9a3.62,3.62,0,0,0-2.24-4.61l-110.28-38a3.63,3.63,0,0,0-4.62,2.25l-1.43,4.13a3.64,3.64,0,0,0,2.25,4.62l110.28,38a3.64,3.64,0,0,0,4.62-2.25Z"/><path class="cls-4" d="M162.78,878.18a3.63,3.63,0,0,0-2.24-4.62l-110.28-38a3.62,3.62,0,0,0-4.62,2.25l-1.43,4.13a3.64,3.64,0,0,0,2.25,4.62l110.28,38a3.63,3.63,0,0,0,4.62-2.25Z"/><path class="cls-4" d="M156.82,895.46a3.63,3.63,0,0,0-2.25-4.62L44.3,852.79A3.64,3.64,0,0,0,39.68,855l-1.43,4.14a3.63,3.63,0,0,0,2.25,4.61l110.28,38.05a3.64,3.64,0,0,0,4.62-2.25Z"/><path class="cls-4" d="M147.78,921.66a3.63,3.63,0,0,0-2.24-4.62L96.15,900a3.64,3.64,0,0,0-4.62,2.25l-1.42,4.13A3.63,3.63,0,0,0,92.35,911l49.39,17a3.64,3.64,0,0,0,4.62-2.25Z"/><path class="cls-4" d="M139.58,934.32l-49.39-17a3.63,3.63,0,0,0-4.62,2.25l-1.43,4.13a3.64,3.64,0,0,0,2.25,4.62l49.39,17a3.64,3.64,0,0,0,4.62-2.25l1.42-4.14A3.62,3.62,0,0,0,139.58,934.32Z"/><path class="cls-4" d="M133.62,951.6l-49.39-17a3.63,3.63,0,0,0-4.62,2.25l-1.43,4.13a3.65,3.65,0,0,0,2.25,4.62l49.39,17a3.63,3.63,0,0,0,4.62-2.24l1.42-4.14A3.62,3.62,0,0,0,133.62,951.6Z"/><path class="cls-4" d="M77.52,897.42a3.63,3.63,0,0,0-2.25-4.62l-40-13.8a3.63,3.63,0,0,0-4.62,2.24l-.71,2.07-1.9,5.5L17.29,919.93a3.64,3.64,0,0,0,2.25,4.62l40,13.8a3.62,3.62,0,0,0,4.61-2.24L74.91,905l1.9-5.5Z"/><rect class="cls-3" x="842.89" y="771.47" width="275.02" height="201.94" transform="translate(-286.68 1214.28) rotate(-56.76)"/><rect class="cls-3" x="132.66" y="715.77" width="222.8" height="303.43" transform="translate(-396.01 233.13) rotate(-29.54)"/><rect class="cls-3" x="256.49" y="757.49" width="247.65" height="181.84" transform="translate(-281.48 195.37) rotate(-21.24)"/><path class="cls-4" d="M260.69,822.56l48.84,125.69a4.19,4.19,0,0,0,5.43,2.39l4.71-1.83a4.19,4.19,0,0,0,2.4-5.43L273.22,817.69a4.19,4.19,0,0,0-5.43-2.39l-4.71,1.83A4.19,4.19,0,0,0,260.69,822.56Z"/><path class="cls-4" d="M280.38,814.91,329.22,940.6a4.19,4.19,0,0,0,5.43,2.39l4.72-1.83a4.19,4.19,0,0,0,2.39-5.43L292.91,810a4.2,4.2,0,0,0-5.43-2.4l-4.71,1.83A4.21,4.21,0,0,0,280.38,814.91Z"/><path class="cls-4" d="M302.46,801.82a4.2,4.2,0,0,0-2.39,5.44L348.91,933a4.21,4.21,0,0,0,5.44,2.39l4.71-1.83a4.2,4.2,0,0,0,2.39-5.44L312.61,802.38a4.2,4.2,0,0,0-5.44-2.39Z"/><path class="cls-4" d="M332.32,790.22a4.19,4.19,0,0,0-2.39,5.43l48.84,125.69a4.21,4.21,0,0,0,5.44,2.39l4.71-1.83a4.19,4.19,0,0,0,2.39-5.43L342.47,790.78a4.21,4.21,0,0,0-5.44-2.39Z"/><path class="cls-4" d="M352,782.57a4.19,4.19,0,0,0-2.4,5.43l48.85,125.69a4.19,4.19,0,0,0,5.43,2.39l4.71-1.83a4.19,4.19,0,0,0,2.39-5.43L362.16,783.13a4.19,4.19,0,0,0-5.43-2.39Z"/><path class="cls-4" d="M371.71,774.91a4.2,4.2,0,0,0-2.4,5.44L418.16,906a4.19,4.19,0,0,0,5.43,2.39l4.71-1.83a4.19,4.19,0,0,0,2.39-5.43L381.85,775.48a4.19,4.19,0,0,0-5.43-2.4Z"/><path class="cls-4" d="M401.57,763.31a4.2,4.2,0,0,0-2.4,5.43L421.05,825a4.19,4.19,0,0,0,5.43,2.39l4.71-1.83a4.21,4.21,0,0,0,2.4-5.43l-21.88-56.29a4.19,4.19,0,0,0-5.43-2.39Z"/><path class="cls-4" d="M421.26,755.66a4.19,4.19,0,0,0-2.39,5.43l21.87,56.29a4.19,4.19,0,0,0,5.43,2.39l4.71-1.83a4.2,4.2,0,0,0,2.4-5.43L431.4,756.22a4.19,4.19,0,0,0-5.43-2.39Z"/><path class="cls-4" d="M441,748a4.19,4.19,0,0,0-2.39,5.43l21.87,56.29a4.19,4.19,0,0,0,5.43,2.39l4.72-1.83a4.19,4.19,0,0,0,2.39-5.43l-21.88-56.29a4.2,4.2,0,0,0-5.43-2.4Z"/><path class="cls-4" d="M432.69,843.39a4.21,4.21,0,0,0-2.4,5.44L448,894.43a4.21,4.21,0,0,0,5.43,2.4l2.36-.92,6.27-2.44,35.46-13.78a4.19,4.19,0,0,0,2.4-5.43l-17.73-45.61a4.19,4.19,0,0,0-5.43-2.39L441.31,840,435,842.48Z"/><rect class="cls-3" x="707.96" y="738.44" width="282.78" height="207.64" transform="translate(-340.11 715.91) rotate(-38.7)"/><path class="cls-4" d="M987.76,836.17a4.79,4.79,0,0,0,.74-6.74L892.24,709.26a4.79,4.79,0,0,0-6.73-.75L881,712.12a4.79,4.79,0,0,0-.74,6.74L976.52,839a4.8,4.8,0,0,0,6.74.74Z"/><path class="cls-4" d="M968.93,851.25a4.8,4.8,0,0,0,.75-6.74L873.42,724.34a4.8,4.8,0,0,0-6.74-.75l-4.51,3.61a4.8,4.8,0,0,0-.74,6.74l96.26,120.17a4.79,4.79,0,0,0,6.74.74Z"/><path class="cls-4" d="M950.11,866.33a4.8,4.8,0,0,0,.74-6.74L854.59,739.42a4.8,4.8,0,0,0-6.74-.75l-4.5,3.61a4.8,4.8,0,0,0-.75,6.74l96.27,120.17a4.79,4.79,0,0,0,6.73.75Z"/><path class="cls-4" d="M921.56,889.2a4.8,4.8,0,0,0,.74-6.74L826,762.29a4.8,4.8,0,0,0-6.74-.75l-4.5,3.61a4.8,4.8,0,0,0-.75,6.74l96.27,120.17a4.78,4.78,0,0,0,6.73.74Z"/><path class="cls-4" d="M902.73,904.28a4.8,4.8,0,0,0,.75-6.74L807.21,777.37a4.8,4.8,0,0,0-6.74-.75l-4.5,3.61a4.79,4.79,0,0,0-.74,6.74l96.26,120.17a4.8,4.8,0,0,0,6.74.75Z"/><path class="cls-4" d="M883.9,919.36a4.8,4.8,0,0,0,.75-6.74L788.38,792.45a4.78,4.78,0,0,0-6.73-.74l-4.51,3.6a4.8,4.8,0,0,0-.74,6.74l96.26,120.17a4.8,4.8,0,0,0,6.74.75Z"/><path class="cls-4" d="M855.35,942.23a4.8,4.8,0,0,0,.75-6.74L813,881.67a4.8,4.8,0,0,0-6.74-.74l-4.5,3.61a4.79,4.79,0,0,0-.75,6.73l43.11,53.82a4.8,4.8,0,0,0,6.74.75Z"/><path class="cls-4" d="M837.27,950.57l-43.11-53.82a4.8,4.8,0,0,0-6.74-.74l-4.5,3.61a4.79,4.79,0,0,0-.74,6.74l43.11,53.81a4.79,4.79,0,0,0,6.73.75l4.51-3.61A4.8,4.8,0,0,0,837.27,950.57Z"/><path class="cls-4" d="M818.45,965.65l-43.12-53.81a4.79,4.79,0,0,0-6.73-.75l-4.51,3.61a4.8,4.8,0,0,0-.74,6.74l43.11,53.82a4.8,4.8,0,0,0,6.74.74l4.5-3.61A4.8,4.8,0,0,0,818.45,965.65Z"/><path class="cls-4" d="M794,865.66a4.79,4.79,0,0,0,.75-6.73l-34.94-43.61a4.79,4.79,0,0,0-6.73-.75l-2.25,1.81-6,4.8-33.91,27.16a4.79,4.79,0,0,0-.74,6.74l34.92,43.61a4.8,4.8,0,0,0,6.74.74l33.92-27.16,6-4.8Z"/><rect class="cls-5" x="131.15" y="1117.86" width="237.34" height="323.22" transform="translate(-607.78 297.64) rotate(-30.09)"/><path class="cls-4" d="M259.12,1120l-152.28,88.23a5.48,5.48,0,0,0-2,7.49l3.3,5.7a5.48,5.48,0,0,0,7.49,2l152.28-88.24a5.47,5.47,0,0,0,2-7.48l-3.31-5.71A5.48,5.48,0,0,0,259.12,1120Z"/><path class="cls-4" d="M273,1143.86,120.66,1232.1a5.47,5.47,0,0,0-2,7.48l3.31,5.71a5.48,5.48,0,0,0,7.48,2l152.29-88.24a5.47,5.47,0,0,0,2-7.48l-3.31-5.71A5.47,5.47,0,0,0,273,1143.86Z"/><path class="cls-4" d="M294.26,1169.71a5.49,5.49,0,0,0-7.49-2L134.49,1256a5.47,5.47,0,0,0-2,7.48l3.31,5.71a5.48,5.48,0,0,0,7.49,2l152.28-88.23a5.48,5.48,0,0,0,2-7.49Z"/><path class="cls-6" d="M714.49,320.75s36.89,48.24,26,94.47S697.61,497,665.25,518.64c20.11-21.68,32.93-30,49.24-53.12s39-68.92,3.22-121.28C709,319.24,714.49,320.75,714.49,320.75Z"/><path class="cls-6" d="M600.09,168.12s-19.66-8.83-57.7,6c-37.77,14.77-80.41,55.94-68.85,136.7,10.26,71.74,30.88,203-78.2,176.79-.19-.05,89.75,83.23,267.81,14.93,69-26.49-37.09-262.46-37.09-262.46Z"/><path class="cls-6" d="M719.12,317.88c-13.18-71-8.8-85.14-45.4-112.4-36.93-27.51-73.61-22.29-73.61-22.29l0,279.09s32,80.61,32.14,80.49C690.39,500.29,746.28,464.13,719.12,317.88Z"/><path class="cls-6" d="M721.64,328.88s9.26,94.8,34.23,105.36c-12.25-2.64-28.26-26.41-32.51-52.67S721.64,328.88,721.64,328.88Z"/><path class="cls-6" d="M725.25,387.49s17.26,50.4-21.36,104.41c29.17-64.33,9.77-61.43,13.19-75.68S725.25,387.49,725.25,387.49Z"/><path class="cls-6" d="M474.56,317.88s19.69,85.46-29.76,111.84c20.73-5.18,44.76-33.43,39.1-85.48S474.56,317.88,474.56,317.88Z"/><path class="cls-6" d="M483.32,391.89s2.94,89-82.17,88.23c8.59,3,67.37,8.33,84.43-57.47A61.56,61.56,0,0,0,483.32,391.89Z"/><path class="cls-5" d="M284.5,500.08,438.4,640.44c17.25,18.18,45.8,25.36,73.14,16.06,36.31-12.33,56.68-49,45.51-82-8.78-25.82-27.16-35.77-54.1-27.41s-62.67-5.56-71.23-12.59L332,449.16a35.27,35.27,0,0,0-49.83,2.42A34.34,34.34,0,0,0,284.5,500.08Z"/><path class="cls-5" d="M508.27,591.06a17.94,17.94,0,1,0-11.22,22.76A17.94,17.94,0,0,0,508.27,591.06Z"/><path class="cls-5" d="M330.64,466.13a15.86,15.86,0,1,0-19.21,11.54A15.82,15.82,0,0,0,330.64,466.13Z"/><path class="cls-5" d="M915.5,500.08l-154,140.36c-17.26,18.18-45.82,25.36-73.17,16.06-36.32-12.33-56.69-49-45.52-82,8.78-25.82,27.17-35.77,54.12-27.41s62.69-5.56,71.25-12.59L868,449.16a35.29,35.29,0,0,1,49.85,2.42A34.34,34.34,0,0,1,915.5,500.08Z"/><path class="cls-5" d="M691.66,591.06a17.94,17.94,0,1,1,11.22,22.76A17.94,17.94,0,0,1,691.66,591.06Z"/><polygon class="cls-7" points="600.21 1224.93 627.62 1224.93 627.62 1059.44 600.21 1059.44 585.16 1085.77 582.5 1200.34 600.21 1224.93"/><rect class="cls-8" x="572.81" y="1059.44" width="27.4" height="165.49"/><path class="cls-9" d="M558.94,455.34v44.77a9,9,0,0,1-7.27,8.85c-9.6,1.92-43,8.64-46.53,17.78A28.42,28.42,0,0,0,509,554c15.36,20.33,64.89,32.28,90.36,32.28L619,517.84h0l-19.55-62.5Z"/><path class="cls-10" d="M689.78,554a28.37,28.37,0,0,0,3.9-27.23c-3.48-9.14-36.93-15.86-46.51-17.78a9,9,0,0,1-7.25-8.81V455.34H599.43V586.25C624.91,586.25,674.43,574.3,689.78,554Z"/><path class="cls-11" d="M509.23,1361.57a240.13,240.13,0,0,0-4.83-53.8s-19.24-116.88-24.49-156c-10.48-78-19.91-124.82-7-186l9.88-46.63H616.58v118.15l-17.07,32.09c-11.66,0-13.58,10.31-13.58,23l-7.53,187.08a69.65,69.65,0,0,0,1.21,12.81,156,156,0,0,1,1.13,51.73,155,155,0,0,0-1.36,32l2.58,42.38a561,561,0,0,1-1.22,84.41l-10.08,112H529.39L511,1503.78a289.25,289.25,0,0,1-3.79-53.73Z"/><path class="cls-12" d="M689.67,1361.57a240.72,240.72,0,0,1,4.84-53.8s17.46-117.16,24.5-156c11.14-61.53,10.4-130.55,14.46-186l-17.39-46.63H599.41V1069.4c11.65,0,13.57,10.31,13.57,23l7.53,187.08a68,68,0,0,1-1.22,12.81,155.69,155.69,0,0,0-1.11,51.73,155.65,155.65,0,0,1,1.35,32L617,1418.44a562.29,562.29,0,0,0,1.22,84.41l10.09,112h41.26l18.39-111.09a289.25,289.25,0,0,0,3.79-53.73Z"/><path class="cls-10" d="M702.82,1151.45a.46.46,0,0,0,.3-.43.46.46,0,0,0-.3-.43l-2.62-1a.45.45,0,0,1-.29-.41.47.47,0,0,1,.26-.43l2.33-1.07a.45.45,0,0,0,.26-.51.46.46,0,0,0-.45-.36H646.09a.47.47,0,0,0-.42.29.48.48,0,0,0,.11.5l.76.7a.45.45,0,0,1,.13.47.43.43,0,0,1-.37.31l-4.32.66a.46.46,0,0,0,0,.91l1.92.25a.44.44,0,0,1,.38.32.48.48,0,0,1-.14.48l-1.35,1.14a.46.46,0,0,0-.13.5.46.46,0,0,0,.43.29h57.73a.39.39,0,0,0,.39-.33.38.38,0,0,0-.29-.42.38.38,0,0,1,0-.73Z"/><path class="cls-9" d="M564.73,1188.11a.44.44,0,0,0,.29-.42.48.48,0,0,0-.29-.43l-2.62-1a.45.45,0,0,1-.3-.41.45.45,0,0,1,.27-.42l2.33-1.07a.45.45,0,0,0-.2-.87H508a.45.45,0,0,0-.31.78l.76.7a.47.47,0,0,1,.13.47.46.46,0,0,1-.37.32l-4.32.65a.47.47,0,0,0-.39.46.45.45,0,0,0,.4.45l1.92.25a.44.44,0,0,1,.38.32.45.45,0,0,1-.14.47l-1.35,1.15a.47.47,0,0,0-.13.5.44.44,0,0,0,.42.29h57.74a.38.38,0,0,0,.1-.75.38.38,0,0,1,0-.73Z"/><path class="cls-13" d="M599.49,519.12,558.3,507.3,502,522v512.83l80.24,14.36a2.18,2.18,0,0,0,2.56-1.85l14.88-97.22,17-2,8.09-316.76Z"/><path class="cls-5" d="M640.77,507.31l-41.19,11.81v431l14.72,97.29a2.19,2.19,0,0,0,.88,1.46,2.26,2.26,0,0,0,1.66.38l85.72-14.36V523.43Z"/><path class="cls-5" d="M535.49,701.24s20.89,9,37,11.36,6.7,15.68-28.45,24S535.49,701.24,535.49,701.24Z"/><path class="cls-14" d="M665.49,701.24s-20.89,9-37,11.36-6.71,15.68,28.44,24S665.49,701.24,665.49,701.24Z"/><path class="cls-14" d="M664.83,669s.51-5.37-9.14-13,8.27-10.3,19.45-7.18S664.83,669,664.83,669Z"/><path class="cls-5" d="M534.37,669s-.51-5.37,9.14-13-8.27-10.3-19.45-7.18S534.37,669,534.37,669Z"/><path class="cls-1" d="M569.5,544.1l-4.31,11.4a63.92,63.92,0,0,0,11.26,6.27l2.85-14.22A71.78,71.78,0,0,1,569.5,544.1Z"/><path class="cls-1" d="M578.23,562.43a59.23,59.23,0,0,0,13.22,3.46l.46-16.17a76.48,76.48,0,0,1-10.78-1.79Z"/><path class="cls-1" d="M559.08,538.27l-4.6,8a66.28,66.28,0,0,0,9.13,8.11l4.2-11.14A65.1,65.1,0,0,1,559.08,538.27Z"/><path class="cls-1" d="M550.93,531.67l-3.88,4.93a63.26,63.26,0,0,0,6.11,8.18l4.38-7.61A57.21,57.21,0,0,1,550.93,531.67Z"/><path class="cls-1" d="M606.2,566.11l-.45-16.3c-2,.16-4.07.41-6.17.41v16.29A58,58,0,0,0,606.2,566.11Z"/><path class="cls-1" d="M593.78,549.85l-.45,16.33a57.93,57.93,0,0,0,6.22.33h0V550.22h0C597.57,550.23,595.7,550,593.78,549.85Z"/><path class="cls-1" d="M539.18,514.81a43.23,43.23,0,0,0,1,5.78l1.31-1.13A42.94,42.94,0,0,1,539.18,514.81Z"/><path class="cls-1" d="M542.38,521.2l-1.66,1.43A54.41,54.41,0,0,0,546,534.86l3.53-4.5A51.58,51.58,0,0,1,542.38,521.2Z"/><path class="cls-1" d="M649.78,530.14l3.48,4.42a55.42,55.42,0,0,0,5.25-12.19L657,521A51.56,51.56,0,0,1,649.78,530.14Z"/><path class="cls-1" d="M641.88,537l4.33,7.53a64.14,64.14,0,0,0,6-8.18l-3.82-4.85A58.39,58.39,0,0,1,641.88,537Z"/><path class="cls-1" d="M660.65,528v-.78c-.13.35-.28.7-.41,1A1.82,1.82,0,0,1,660.65,528Z"/><path class="cls-1" d="M659,520.3a47.1,47.1,0,0,0,.93-5.41c-.62,1.5-1.32,3-2.09,4.39Z"/><path class="cls-1" d="M620.21,547.46l2.84,14.13a62.57,62.57,0,0,0,11.21-6.33L630,544A74.32,74.32,0,0,1,620.21,547.46Z"/><path class="cls-15" d="M599.55,566.51a57.93,57.93,0,0,1-6.22-.33l.45-16.33c1.92.14,3.79.38,5.77.38h0l7.53-1.62-7.53-1.12h0c-27.94,0-51.36-15-58.7-35.28-.57.63-1.17,1.23-1.8,1.82a27.75,27.75,0,0,1-3.36,2.59,50.26,50.26,0,0,0,2.06,8.65V528a1.68,1.68,0,0,0-1.23,1.56,1.71,1.71,0,0,0,1.23,1.57v5.36a3,3,0,0,0-2.5,2.94,3.06,3.06,0,0,0,6.12,0,3,3,0,0,0-2.49-2.94v-5.36a2.29,2.29,0,0,0,.88-.61,62,62,0,0,0,4.1,7.75V541a1.61,1.61,0,0,0,0,3.13v5.37a3,3,0,0,0-2.49,2.94,3.06,3.06,0,0,0,6.11,0,3,3,0,0,0-2.49-2.94v-5.37a1.61,1.61,0,0,0,0-3.13v-.81a69.46,69.46,0,0,0,7.16,9V552a1.61,1.61,0,0,0,0,3.13v5.37a3,3,0,0,0-2.5,2.93,3.06,3.06,0,1,0,6.11,0,3,3,0,0,0-2.48-2.93v-5.37a1.61,1.61,0,0,0,0-3.13v-1.66a69.05,69.05,0,0,0,9.77,8.28v4.53a1.61,1.61,0,0,0,0,3.14v5.36a3,3,0,0,0-2.5,2.94,3.06,3.06,0,1,0,6.12,0,3,3,0,0,0-2.49-2.94v-5.36a1.61,1.61,0,0,0,0-3.14v-3.75a66.1,66.1,0,0,0,12.33,6.56v3.65a1.61,1.61,0,0,0,0,3.14v5.36A3,3,0,0,0,574,581a3.06,3.06,0,1,0,6.11,0,3,3,0,0,0-2.49-2.94v-5.36a1.62,1.62,0,0,0,0-3.14v-3.23a62.67,62.67,0,0,0,14.15,3.53v3.19a1.62,1.62,0,0,0,0,3.14v5.35a3,3,0,0,0-2.49,2.94,3.06,3.06,0,1,0,6.11,0,3,3,0,0,0-2.49-2.94v-5.35a1.62,1.62,0,0,0,0-3.14v-3a60.1,60.1,0,0,0,6.63.38h0l7.53-2.79-7.53-1.15Zm-60.37-51.7a42.94,42.94,0,0,0,2.33,4.65l-1.31,1.13A43.23,43.23,0,0,1,539.18,514.81Zm1.54,7.82,1.66-1.43a51.58,51.58,0,0,0,7.19,9.16l-3.53,4.5A54.41,54.41,0,0,1,540.72,522.63Zm12.44,22.15a63.26,63.26,0,0,1-6.11-8.18l3.88-4.93a57.21,57.21,0,0,0,6.61,5.5Zm10.45,9.59a66.28,66.28,0,0,1-9.13-8.11l4.6-8a65.1,65.1,0,0,0,8.73,5Zm12.84,7.4a63.92,63.92,0,0,1-11.26-6.27l4.31-11.4a71.78,71.78,0,0,0,9.8,3.45Zm15,4.12a59.23,59.23,0,0,1-13.22-3.46l2.9-14.5a76.48,76.48,0,0,0,10.78,1.79Z"/><path class="cls-16" d="M661.78,536.53v-5.36A1.73,1.73,0,0,0,663,529.6a1.71,1.71,0,0,0-1.24-1.56V523.8a47.78,47.78,0,0,0,1.7-7.91,30.09,30.09,0,0,1-3.34-3.15c-.48-.47-1-.93-1.44-1.45-6.94,20.78-30.75,36.18-59.12,36.19v2.74c2.1,0,4.12-.25,6.17-.41l.45,16.3a58,58,0,0,1-6.62.4v3.94a60.3,60.3,0,0,0,7-.44v3.07a1.61,1.61,0,0,0,0,3.14v5.35a3,3,0,0,0-2.49,2.94,3.06,3.06,0,1,0,6.11,0,3,3,0,0,0-2.49-2.94v-5.35a1.62,1.62,0,0,0,0-3.14v-3.24a63.39,63.39,0,0,0,14.15-3.65v3.4a1.61,1.61,0,0,0,0,3.14v5.36A3,3,0,0,0,619.4,581a3.06,3.06,0,1,0,6.11,0,3,3,0,0,0-2.49-2.94v-5.36a1.62,1.62,0,0,0,0-3.14v-3.81a66.32,66.32,0,0,0,12.33-6.69v4a1.62,1.62,0,0,0,0,3.14v5.36a3,3,0,0,0-2.49,2.94,3.06,3.06,0,1,0,6.11,0,3,3,0,0,0-2.48-2.94v-5.36a1.62,1.62,0,0,0,0-3.14v-4.54c0-.09-.14-.09-.18-.17a71.58,71.58,0,0,0,10-8.53V552a1.61,1.61,0,0,0,0,3.13v5.37a3,3,0,0,0-2.5,2.93,3.06,3.06,0,1,0,6.11,0,3,3,0,0,0-2.49-2.93v-5.37a1.61,1.61,0,0,0,0-3.13v-3.26a68.16,68.16,0,0,0,7.16-9.25V541a1.61,1.61,0,0,0,0,3.13v5.37a3,3,0,0,0-2.5,2.94,3.06,3.06,0,0,0,6.11,0,3,3,0,0,0-2.48-2.94v-5.37a1.61,1.61,0,0,0,0-3.13V537.6a61.78,61.78,0,0,0,3.9-7.58,1.79,1.79,0,0,0,1.08,1.15v5.36a3,3,0,0,0-2.5,2.94,3.06,3.06,0,0,0,6.12,0A3,3,0,0,0,661.78,536.53Zm-53.71,29.28-.45-16.12a76.34,76.34,0,0,0,10.75-1.86l2.89,14.45A58.94,58.94,0,0,1,608.07,565.81Zm15-4.22-2.84-14.13A74.32,74.32,0,0,0,630,544l4.28,11.31A62.57,62.57,0,0,1,623.05,561.59Zm12.78-7.47-4.18-11a64.72,64.72,0,0,0,8.69-5l4.55,7.89A66.54,66.54,0,0,1,635.83,554.12Zm10.38-9.61L641.88,537a58.39,58.39,0,0,0,6.56-5.5l3.82,4.85A64.14,64.14,0,0,1,646.21,544.51Zm7-10-3.48-4.42A51.56,51.56,0,0,0,657,521l1.55,1.34A55.42,55.42,0,0,1,653.26,534.56ZM659,520.3l-1.16-1c.77-1.44,1.47-2.89,2.09-4.39A47.1,47.1,0,0,1,659,520.3Zm1.67,7.74a1.82,1.82,0,0,0-.41.27c.13-.35.28-.7.41-1Z"/><path class="cls-1" d="M607.62,549.69l.45,16.12a58.94,58.94,0,0,0,13.19-3.53l-2.89-14.45A76.34,76.34,0,0,1,607.62,549.69Z"/><path class="cls-1" d="M631.65,543.07l4.18,11a66.54,66.54,0,0,0,9.06-8.14l-4.55-7.89A64.72,64.72,0,0,1,631.65,543.07Z"/><path class="cls-5" d="M558.94,507.31a33.08,33.08,0,0,0-9.33,2.21,79.37,79.37,0,0,0-8.57,4.59,1,1,0,0,0-.5.73,1,1,0,0,0,.27.85l33.72,36.88a1,1,0,0,0,1.61-.1l23.44-33.35Z"/><path class="cls-14" d="M658,514.11a79.37,79.37,0,0,0-8.57-4.59,33.16,33.16,0,0,0-9.33-2.21l-40.65,11.81,23.45,33.35a1,1,0,0,0,.78.44,1,1,0,0,0,.83-.34l33.72-36.88a1,1,0,0,0-.23-1.58Z"/><path class="cls-17" d="M485.58,573h-17l6,148.8a1521.68,1521.68,0,0,1-9.73,244l-32.47,269.11A4.56,4.56,0,0,0,437,1240h105.8a4.56,4.56,0,0,0,4.55-4.56v-506Z"/><path class="cls-8" d="M448.72,518a2.15,2.15,0,0,0-.74,2.13,2.12,2.12,0,0,0,1.56,1.61c8.61,2.18,21.24,7.09,30,10.7A8.32,8.32,0,0,1,483,545.17l-30.72,39.74a1.86,1.86,0,0,0,.19,2.5c8,7.62,53,51.37,72.74,90.27,21.17,41.68,22.14,68.85,22.14,68.85V724.22c0-23.48-17.28-107.31-28.5-159.31a47.33,47.33,0,0,1,32.56-55.33l7.58-2.27v-44.8S518.27,461.89,448.72,518Z"/><path class="cls-8" d="M508.94,972.74H472.05a10.76,10.76,0,0,0-8,3.54c-12.55,13.83-14.87,30.34-15.29,36.25a2.11,2.11,0,0,0,.55,1.57,2.07,2.07,0,0,0,1.53.66h58.09a2.08,2.08,0,0,0,2.09-2.09V974.83A2.08,2.08,0,0,0,508.94,972.74Z"/><path class="cls-18" d="M600.06,195.48l13,148.8,9.86,63.9L600.06,479h-6.27a39.71,39.71,0,0,1-29.58-13.7l-34.92-39.06c-11.62-14.71-17.44-31.6-18.78-51.51-2.28-33.64-6.09-133.2-6.09-133.2Z"/><path class="cls-9" d="M598.84,195.48l.59,283.5h6.29c10.51,0,21.15-4.93,29-13.7l34.93-39.06c12.47-17.58,19.57-36,19.57-67.39,0-29.46,5.3-117.32,5.3-117.32Z"/><path class="cls-9" d="M582.49,401.44a2.57,2.57,0,0,0,2,4.17h17.06v-11l-1.4.08C589.51,395.4,584.68,398.66,582.49,401.44Z"/><path class="cls-19" d="M575.24,439.16c5.32,7.51,14.36,6.09,24.53,6.15s19.74,1.27,25.2-6.14c.63-.87-12.08-6.37-24.85-6.46S574.67,438.36,575.24,439.16Z"/><path class="cls-20" d="M609,425.4c-2.59-.55-5.32-.13-7,1.86a2.41,2.41,0,0,1-1.91.89,2.48,2.48,0,0,1-1.94-.89c-1.64-2-4.35-2.4-7-1.86C585.58,427,575,438.62,575,438.62s16.28-5.68,24.36-5.58c8.59.1,25.46,5.58,25.46,5.58S614.61,427,609,425.4Z"/><path class="cls-13" d="M522.12,333.64s8.81,29.83,49.9,9.36C572,343,554.93,318,522.12,333.64Z"/><path class="cls-21" d="M521,334.41a.09.09,0,0,0,0,.13.1.1,0,0,0,.13,0c5.07-2.47,26.58-10.92,51.27,8.73a.1.1,0,0,0,.14-.13C569.91,339.19,551,312.89,521,334.41Z"/><path class="cls-21" d="M535.4,339.16a11,11,0,1,0,10-11.88A11,11,0,0,0,535.4,339.16Z"/><path class="cls-13" d="M540,336.39a3.29,3.29,0,1,0,3-3.56A3.29,3.29,0,0,0,540,336.39Z"/><path class="cls-13" d="M673.72,333.64s-8.79,29.82-49.89,9.35C623.83,343,640.91,318,673.72,333.64Z"/><path class="cls-21" d="M674.8,334.41c-29.95-21.52-48.87,4.77-51.5,8.76a.1.1,0,0,0,.15.12c24.69-19.65,46.18-11.2,51.27-8.72a.08.08,0,0,0,.11,0A.08.08,0,0,0,674.8,334.41Z"/><path class="cls-21" d="M638.6,337.25a11,11,0,1,0,11.88-10A11,11,0,0,0,638.6,337.25Z"/><path class="cls-13" d="M643.64,335.33a3.29,3.29,0,1,0,3.56-3A3.29,3.29,0,0,0,643.64,335.33Z"/><path class="cls-22" d="M570.46,301c-3.86-2.54-14.93-3.5-24.81-1.12C524.1,305,518.72,319,515.79,324.09a.33.33,0,0,0,.12.44.36.36,0,0,0,.46-.07c13.76-21.78,41.31-21.09,52.69-19.7a2.09,2.09,0,0,0,1.4-3.81Z"/><path class="cls-23" d="M626.14,301c3.85-2.56,14.91-3.55,24.8-1.2,21.57,5.13,27,19.06,29.94,24.17a.33.33,0,0,1-.12.44.34.34,0,0,1-.45-.06c-13.83-21.75-41.39-21-52.75-19.55a2.09,2.09,0,0,1-1.42-3.8Z"/><path class="cls-6" d="M645.49,210.2s-16.25,37.33-46.65,64.7c-19-23.55-7.08-71.29-7.08-71.29Z"/><path class="cls-6" d="M625.4,222.17S688,240.77,689.09,336c3.75,85.59,19.2,1.62,18.86-12.79s-13.9-85.38-13.9-85.38l-43.84-31.12Z"/><path class="cls-22" d="M489.72,263.28s.2-29.68,14.7-33.92,31.95,1.26,30.29,8.8-3.17,17.58-13.72,25.12-19.72,15-26.76,16.29S489.72,263.28,489.72,263.28Z"/><path class="cls-6" d="M599.11,151.65l-22.62,5.25,5.86,43.94a183.09,183.09,0,0,1,33.82,2.23,26.73,26.73,0,0,1,14.46,7.72c35.09,8,66,25.94,82.44,58.71a46.12,46.12,0,0,0,1.18-6.86C719.11,204.47,647.73,151.83,599.11,151.65Z"/><path class="cls-6" d="M599.11,201.15v-49.5h-.27c-38.82,0-76.23,28.79-89.76,63.92C535.84,203.43,571.39,199.46,599.11,201.15Z"/><path class="cls-6" d="M719.12,248.83c-7.15-22.78-54.27-74.74-120.28-87.51L576.23,171l2.5,32.6,20.11,9.37c.93,0,1.8-.07,2.74-.07,98.06,0,117.54,105,117.54,105S731.37,287.9,719.12,248.83Z"/><path class="cls-6" d="M571.54,158.39c-80.1-1.25-95.06,49.22-100.47,70.25-5.09,19.73-6.06,89.08,4.35,93.68,18.81-33.93,28.85-107.95,123.42-109.38V161.32A155.66,155.66,0,0,0,571.54,158.39Z"/><path class="cls-6" d="M597.84,212.9c-32.45,0-71.66,14.34-103.49,35.92A77.8,77.8,0,0,0,466,283.73c-6.76,16.41-16.48,30.66-29.67,27.14,37.22,34.94,133.64-7.09,162.52-36v-62Z"/><path class="cls-6" d="M565.35,305.43c2-1.06,5.7-2.57,8.2-3.93a197,197,0,0,0,25.51-16.71l3.9-5.16-3.9.89A159.68,159.68,0,0,1,565.35,305.43Z"/><path class="cls-6" d="M647.32,224.38c-.07-.22-.1-.43-.17-.65a30.77,30.77,0,0,1-8.63-3.43c-7.65,22.51-22,43.46-39.46,60.22v4.27C619.73,268.88,637.73,248.37,647.32,224.38Z"/><path class="cls-6" d="M511.52,289.28s-4.12,78.79.28,116.47-18.22-65.32-18.22-65.32V300.62Z"/><path class="cls-23" d="M712.79,297.86s21.41,63.63,49.67,74c-17-5.61-39.88-20.69-53.39-59.78C706.63,302.8,712.79,297.86,712.79,297.86Z"/><path class="cls-24" d="M576.89,440.81c5.47,9.84,11.57,10.93,21.75,11s18.78-.73,22.22-11a41.88,41.88,0,0,1,3-6.65s-5.07-13.58-10-15c-2.3-.48-11.82,2.95-14.8,3.13s-12.49-3.61-14.8-3.13c-5,1.38-10.23,15.17-10.23,15.17A67.67,67.67,0,0,0,576.89,440.81Z"/><path class="cls-20" d="M613.78,417.82c-5.15-1.36-11.82,1.91-14.8,1.75s-8.87-3.11-14.8-1.75c-5,1.38-7.64,5.86-8.44,7.38a15.71,15.71,0,0,0-1.61,10.3s4-9,9.16-11.22c5.58-2.4,12.08,0,14.92,0,3.22,0,9.11-1.48,14.52-.67s10.89,11.47,10.89,11.47c1.31-4.94.06-7.48-1.4-9.88S618.75,419.19,613.78,417.82Z"/><path class="cls-19" d="M577.22,446.7c5.32,7.52,11.32,5.43,21.5,5.48s16.3,2.71,21.76-4.72c.21-.27,7.23-8.82,3.34-13.3,0,0-3,7.95-10.44,10.23-3.67,1.12-8.44-1.85-14.47-1.85-7.23,0-12.66,2.63-16.57,1.21-5.94-2.16-8.39-9.38-8.39-9.38C569.85,439.36,577,446.42,577.22,446.7Z"/><path class="cls-8" d="M734,965.77a1525.08,1525.08,0,0,1-9.72-244l6-148.81h-17L651.56,729.39v506a4.56,4.56,0,0,0,4.55,4.56H761.89a4.56,4.56,0,0,0,4.53-5.1Z"/><path class="cls-7" d="M749.32,521.69a2.13,2.13,0,0,0,1.56-1.61,2.16,2.16,0,0,0-.75-2.13c-69.55-56.06-110.21-55.44-110.21-55.44v44.8l7.57,2.27a47.34,47.34,0,0,1,32.57,55.33c-11.22,52-28.5,135.83-28.5,159.31v22.31s1-27.17,22.14-68.85c19.75-38.9,64.73-82.65,72.74-90.27a1.87,1.87,0,0,0,.19-2.5L715.9,545.17a8.32,8.32,0,0,1,3.41-12.78C728.08,528.78,740.71,523.87,749.32,521.69Z"/><path class="cls-7" d="M734.8,976.28a10.76,10.76,0,0,0-8-3.54h-36.9a2.07,2.07,0,0,0-2.08,2.09v37.84a2.07,2.07,0,0,0,2.08,2.09H748a2,2,0,0,0,1.52-.66,2,2,0,0,0,.56-1.57C749.66,1006.62,747.35,990.11,734.8,976.28Z"/><path class="cls-9" d="M754.12,361a21.77,21.77,0,0,1-6.86-6.09L735,338.2c-11.15-14.83-9.26-29.29-9.94-36.5l-.08-9.41a8,8,0,0,0-.26-1.89,7.56,7.56,0,0,0-.37-1l-24.56-55.69a7.39,7.39,0,0,0-9.75-3.78c-3.74,1.65-4.42,5.33-2.78,9.08l5.12,12.27c1.48,3.88,7,20.47,8,29.59.52,4.85-1.08,11.11-2.7,15.93,0,0-15.62,41-4.72,60.07,2.63,4.59,16.66,17.75,22.24,22.9a33.4,33.4,0,0,0,4.09,3.21c2.3,1.52,6.31,4.09,12,7.39,3.49,2,53.68,39.25,53.68,39.25s21.77-30,26.33-36.65C809.15,391.51,767.65,368.63,754.12,361Z"/><path class="cls-5" d="M834.1,395.62l77.34,49.5A33.95,33.95,0,0,1,921.67,492l-.21.32a34.3,34.3,0,0,1-22,15.06c-9.09,1.84-19.44.17-27.09-5.05l-116-80,34.81-54.23Z"/><path class="cls-5" d="M884.56,488a15.86,15.86,0,1,1,21.91-4.75A15.83,15.83,0,0,1,884.56,488Z"/><path class="cls-14" d="M774.05,435.72,829,387a1.21,1.21,0,0,0-.13-1.94l-32.37-21.4a5,5,0,0,0-6.85,1.4l-36.53,55.25a5,5,0,0,0-.72,3.71,5,5,0,0,0,2.12,3.13L768,436.13A5,5,0,0,0,774.05,435.72Z"/><path class="cls-9" d="M445.82,361a21.81,21.81,0,0,0,6.87-6.09l12.23-16.7c11.15-14.83,9.26-29.29,9.94-36.5l.08-9.41a7.36,7.36,0,0,1,.63-2.93l24.55-55.69a7.38,7.38,0,0,1,9.75-3.78c3.74,1.65,4.42,5.33,2.78,9.08l-5.12,12.27c-1.49,3.88-7,20.47-8,29.59-.52,4.84,1.08,11.1,2.7,15.92,0,0,15.62,41.05,4.71,60.08-2.62,4.59-16.64,17.74-22.23,22.9a33.4,33.4,0,0,1-4.09,3.21c-2.29,1.53-6.3,4.09-12,7.38-3.49,2-53.66,39.26-53.66,39.26s-21.76-30-26.33-36.65C390.82,391.51,432.3,368.63,445.82,361Z"/><path class="cls-5" d="M365.87,395.62l-77.31,49.5A33.95,33.95,0,0,0,278.33,492l.21.32a34.28,34.28,0,0,0,22,15.06c9.08,1.84,19.42.17,27.07-5.05l115.92-80-34.8-54.23Z"/><path class="cls-5" d="M315.42,488a15.85,15.85,0,1,0-21.9-4.75A15.82,15.82,0,0,0,315.42,488Z"/><path class="cls-14" d="M425.91,435.72,371,387a1.26,1.26,0,0,1-.41-1,1.24,1.24,0,0,1,.55-.93l32.36-21.4a5,5,0,0,1,6.85,1.4l36.51,55.25a4.93,4.93,0,0,1-1.4,6.84l-13.54,8.95A5,5,0,0,1,425.91,435.72Z"/><rect class="cls-5" x="981.67" y="794.94" width="237.34" height="323.23" transform="translate(109.3 2025.94) rotate(-88.18)"/><path class="cls-4" d="M975.54,859.06a5.48,5.48,0,0,0-5.65,5.3l-5.59,175.91a5.48,5.48,0,0,0,5.3,5.65l6.59.21a5.47,5.47,0,0,0,5.65-5.3l5.6-175.91a5.48,5.48,0,0,0-5.3-5.65Z"/><path class="cls-4" d="M1003.1,859.94a5.48,5.48,0,0,0-5.65,5.3l-5.59,175.91a5.48,5.48,0,0,0,5.3,5.65l6.59.21a5.48,5.48,0,0,0,5.65-5.3L1015,865.8a5.48,5.48,0,0,0-5.3-5.65Z"/><path class="cls-4" d="M1030.66,860.81a5.49,5.49,0,0,0-5.65,5.3L1019.42,1042a5.47,5.47,0,0,0,5.3,5.65l6.59.21a5.46,5.46,0,0,0,5.65-5.3l5.6-175.91a5.49,5.49,0,0,0-5.31-5.65Z"/><path class="cls-4" d="M1072.45,862.14a5.49,5.49,0,0,0-5.65,5.3l-5.59,175.91a5.47,5.47,0,0,0,5.3,5.65l6.6.21a5.46,5.46,0,0,0,5.64-5.3l5.6-175.91a5.49,5.49,0,0,0-5.3-5.65Z"/><path class="cls-4" d="M1100,863a5.48,5.48,0,0,0-5.65,5.3l-5.59,175.91a5.48,5.48,0,0,0,5.3,5.65l6.59.21a5.47,5.47,0,0,0,5.65-5.3l5.6-175.91a5.48,5.48,0,0,0-5.3-5.65Z"/><path class="cls-4" d="M1127.57,863.9a5.47,5.47,0,0,0-5.65,5.3l-5.59,175.91a5.48,5.48,0,0,0,5.3,5.65l6.59.21a5.48,5.48,0,0,0,5.65-5.31l5.6-175.9a5.49,5.49,0,0,0-5.3-5.66Z"/><path class="cls-4" d="M1169.36,865.22a5.49,5.49,0,0,0-5.65,5.31l-2.5,78.78a5.47,5.47,0,0,0,5.3,5.64l6.59.21a5.46,5.46,0,0,0,5.65-5.3l2.51-78.78a5.48,5.48,0,0,0-5.3-5.65Z"/><path class="cls-4" d="M1196.92,866.1a5.49,5.49,0,0,0-5.65,5.3l-2.5,78.78a5.47,5.47,0,0,0,5.3,5.65l6.59.21a5.47,5.47,0,0,0,5.65-5.3l2.51-78.78a5.49,5.49,0,0,0-5.3-5.65Z"/><path class="cls-4" d="M1165.8,977.3a5.47,5.47,0,0,0-5.65,5.3l-2,63.84a5.47,5.47,0,0,0,5.3,5.64l3.3.11,8.77.28,49.64,1.58a5.48,5.48,0,0,0,5.65-5.3l2-63.83a5.49,5.49,0,0,0-5.3-5.66l-49.64-1.58-8.78-.27Z"/><rect class="cls-5" x="-28.76" y="853.97" width="237.33" height="323.22" transform="translate(-411.06 127.59) rotate(-24.37)"/><rect class="cls-5" x="930.55" y="848.81" width="237.34" height="323.22" transform="translate(-398.43 848.74) rotate(-37.55)"/><rect class="cls-5" x="436.6" y="872.77" width="237.33" height="323.23"/><rect class="cls-4" x="461.79" y="901.07" width="186.96" height="17.55" rx="5.48" ry="5.48"/><rect class="cls-4" x="461.79" y="928.64" width="186.96" height="17.55" rx="5.48" ry="5.48"/><rect class="cls-4" x="461.79" y="956.21" width="186.96" height="17.55" rx="5.48" ry="5.48"/><rect class="cls-4" x="461.79" y="998.03" width="186.96" height="17.55" rx="5.48" ry="5.48"/><rect class="cls-4" x="461.79" y="1025.6" width="186.96" height="17.56" rx="5.48" ry="5.48"/><rect class="cls-4" x="461.79" y="1053.17" width="186.96" height="17.56" rx="5.48" ry="5.48"/><rect class="cls-4" x="558.97" y="1094.99" width="89.78" height="17.55" rx="5.48" ry="5.48"/><rect class="cls-4" x="558.97" y="1122.56" width="89.78" height="17.56" rx="5.48" ry="5.48"/><rect class="cls-4" x="558.97" y="1150.13" width="89.78" height="17.55" rx="5.48" ry="5.48"/><path class="cls-4" d="M536.61,1100.47a5.48,5.48,0,0,0-5.48-5.48H467.27a5.48,5.48,0,0,0-5.48,5.48v61.74a5.48,5.48,0,0,0,5.48,5.48h63.86a5.48,5.48,0,0,0,5.48-5.48v-61.74Z"/><rect class="cls-5" x="719.66" y="858.97" width="237.33" height="323.23" transform="translate(-474.1 872.52) rotate(-44.16)"/><path class="cls-4" d="M808.58,863.65,682.32,986.26a5.48,5.48,0,0,0-.11,7.75l4.59,4.73a5.48,5.48,0,0,0,7.75.12L820.8,876.24a5.48,5.48,0,0,0,.12-7.75l-4.6-4.73A5.47,5.47,0,0,0,808.58,863.65Z"/><path class="cls-4" d="M827.78,883.43,701.53,1006a5.48,5.48,0,0,0-.11,7.75l4.59,4.73a5.49,5.49,0,0,0,7.75.12L840,896a5.48,5.48,0,0,0,.12-7.75l-4.6-4.73A5.48,5.48,0,0,0,827.78,883.43Z"/><path class="cls-4" d="M854.74,903.32a5.47,5.47,0,0,0-7.74-.11L720.74,1025.82a5.48,5.48,0,0,0-.11,7.75l4.59,4.73a5.49,5.49,0,0,0,7.75.12L859.23,915.8a5.49,5.49,0,0,0,.11-7.75Z"/><path class="cls-4" d="M883.87,933.31a5.48,5.48,0,0,0-7.75-.11L749.87,1055.82a5.48,5.48,0,0,0-.11,7.75l4.6,4.73a5.47,5.47,0,0,0,7.74.11L888.36,945.8a5.48,5.48,0,0,0,.11-7.75Z"/><path class="cls-4" d="M903.08,953.09a5.48,5.48,0,0,0-7.75-.11L769.08,1075.6a5.48,5.48,0,0,0-.11,7.75l4.59,4.73a5.48,5.48,0,0,0,7.75.11L907.57,965.57a5.47,5.47,0,0,0,.11-7.74Z"/><path class="cls-4" d="M922.29,972.87a5.48,5.48,0,0,0-7.75-.11L788.29,1095.38a5.48,5.48,0,0,0-.11,7.75l4.6,4.73a5.47,5.47,0,0,0,7.74.11L926.78,985.35a5.47,5.47,0,0,0,.11-7.74Z"/><path class="cls-4" d="M951.42,1002.87a5.47,5.47,0,0,0-7.74-.11l-56.54,54.91a5.47,5.47,0,0,0-.12,7.75l4.6,4.73a5.48,5.48,0,0,0,7.75.11l56.54-54.91a5.48,5.48,0,0,0,.11-7.75Z"/><path class="cls-4" d="M970.63,1022.65a5.48,5.48,0,0,0-7.74-.12l-56.55,54.92a5.47,5.47,0,0,0-.11,7.74l4.6,4.74a5.48,5.48,0,0,0,7.75.11l56.54-54.91a5.48,5.48,0,0,0,.11-7.75Z"/><path class="cls-4" d="M989.84,1042.43a5.47,5.47,0,0,0-7.74-.11l-56.55,54.91a5.48,5.48,0,0,0-.11,7.75l4.6,4.73a5.48,5.48,0,0,0,7.75.11l56.54-54.91a5.48,5.48,0,0,0,.11-7.75Z"/><path class="cls-4" d="M871,1081a5.48,5.48,0,0,0-7.75-.11l-45.81,44.49a5.48,5.48,0,0,0-.11,7.75l2.3,2.37,6.11,6.29,34.6,35.63a5.49,5.49,0,0,0,7.75.12l45.81-44.5a5.47,5.47,0,0,0,.12-7.75l-34.6-35.63-6.12-6.29Z"/><rect class="cls-5" x="109.77" y="912.56" width="380.03" height="279.05" transform="translate(-717.03 648.54) rotate(-52.45)"/><path class="cls-4" d="M477.34,990.88,313.28,864.76a6.44,6.44,0,0,0-9,1.19l-4.73,6.14a6.45,6.45,0,0,0,1.18,9l164.06,126.11a6.44,6.44,0,0,0,9-1.18l4.73-6.15A6.44,6.44,0,0,0,477.34,990.88Z"/><path class="cls-4" d="M457.58,1016.58,293.52,890.47a6.44,6.44,0,0,0-9,1.18l-4.73,6.15a6.45,6.45,0,0,0,1.18,9L445,1033a6.44,6.44,0,0,0,9-1.18l4.73-6.15A6.45,6.45,0,0,0,457.58,1016.58Z"/><path class="cls-4" d="M439,1051.32a6.45,6.45,0,0,0-1.18-9l-164-126.11a6.45,6.45,0,0,0-9,1.18L260,923.5a6.44,6.44,0,0,0,1.18,9l164.05,126.12a6.44,6.44,0,0,0,9-1.18Z"/><path class="cls-4" d="M409,1090.29a6.44,6.44,0,0,0-1.18-9L243.8,955.14a6.44,6.44,0,0,0-9,1.18L230,962.47a6.46,6.46,0,0,0,1.18,9l164.06,126.11a6.44,6.44,0,0,0,9-1.18Z"/><path class="cls-4" d="M389.28,1116a6.44,6.44,0,0,0-1.18-9L224,980.85a6.44,6.44,0,0,0-9,1.18l-4.72,6.15a6.43,6.43,0,0,0,1.18,9l164,126.12a6.45,6.45,0,0,0,9-1.19Z"/><path class="cls-4" d="M369.52,1141.7a6.45,6.45,0,0,0-1.18-9l-164-126.11a6.45,6.45,0,0,0-9,1.18l-4.72,6.15a6.43,6.43,0,0,0,1.18,9l164,126.12a6.44,6.44,0,0,0,9-1.18Z"/><path class="cls-4" d="M339.56,1180.67a6.44,6.44,0,0,0-1.18-9l-73.47-56.48a6.44,6.44,0,0,0-9,1.18l-4.73,6.15a6.44,6.44,0,0,0,1.18,9L325.8,1188a6.44,6.44,0,0,0,9-1.18Z"/><path class="cls-4" d="M318.62,1197.34l-73.47-56.48a6.44,6.44,0,0,0-9,1.18l-4.73,6.15a6.45,6.45,0,0,0,1.18,9L306,1213.71a6.46,6.46,0,0,0,9-1.19l4.72-6.15A6.44,6.44,0,0,0,318.62,1197.34Z"/><path class="cls-4" d="M298.86,1223l-73.47-56.48a6.44,6.44,0,0,0-9,1.19l-4.73,6.14a6.45,6.45,0,0,0,1.18,9l73.48,56.48a6.44,6.44,0,0,0,9-1.18l4.72-6.15A6.45,6.45,0,0,0,298.86,1223Z"/><path class="cls-4" d="M235,1100.32a6.44,6.44,0,0,0-1.18-9l-59.53-45.77a6.45,6.45,0,0,0-9,1.18l-2.36,3.08-6.29,8.18-35.59,46.3a6.44,6.44,0,0,0,1.18,9l59.53,45.76a6.44,6.44,0,0,0,9-1.18l35.59-46.29,6.29-8.19Z"/><rect class="cls-13" x="530.36" y="1052.69" width="323.22" height="237.34" transform="translate(-651.81 1383.86) rotate(-68.41)"/><rect class="cls-13" x="308.54" y="1104.19" width="237.34" height="323.22"/><rect class="cls-4" x="333.73" y="1132.5" width="186.96" height="17.56" rx="5.48" ry="5.48"/><rect class="cls-4" x="333.73" y="1160.07" width="186.96" height="17.55" rx="5.48" ry="5.48"/><rect class="cls-4" x="333.73" y="1187.64" width="186.96" height="17.55" rx="5.48" ry="5.48"/><rect class="cls-13" x="761.85" y="1074.77" width="237.34" height="323.22" transform="translate(-619.88 1466.04) rotate(-63.24)"/><path class="cls-4" d="M801.09,1097.79l-79.23,157.15a5.49,5.49,0,0,0,2.43,7.36l5.89,3a5.48,5.48,0,0,0,7.36-2.43l79.23-157.15a5.49,5.49,0,0,0-2.43-7.36l-5.89-3A5.48,5.48,0,0,0,801.09,1097.79Z"/><path class="cls-4" d="M825.71,1110.2l-79.23,157.16a5.47,5.47,0,0,0,2.43,7.35l5.89,3a5.47,5.47,0,0,0,7.36-2.42l79.23-157.16a5.47,5.47,0,0,0-2.43-7.35l-5.89-3A5.48,5.48,0,0,0,825.71,1110.2Z"/><path class="cls-4" d="M857.69,1120.19a5.47,5.47,0,0,0-7.35,2.42l-79.23,157.16a5.48,5.48,0,0,0,2.42,7.36l5.89,3a5.49,5.49,0,0,0,7.36-2.43L866,1130.52a5.47,5.47,0,0,0-2.43-7.36Z"/><path class="cls-4" d="M895,1139a5.48,5.48,0,0,0-7.36,2.43l-79.23,157.15a5.48,5.48,0,0,0,2.43,7.36l5.89,3a5.48,5.48,0,0,0,7.36-2.43l79.23-157.15a5.49,5.49,0,0,0-2.43-7.36Z"/><path class="cls-4" d="M919.65,1151.42a5.49,5.49,0,0,0-7.36,2.43L833.06,1311a5.48,5.48,0,0,0,2.43,7.36l5.89,3a5.48,5.48,0,0,0,7.36-2.42L928,1161.75a5.49,5.49,0,0,0-2.43-7.36Z"/><path class="cls-4" d="M944.27,1163.84a5.48,5.48,0,0,0-7.36,2.42l-79.23,157.16a5.49,5.49,0,0,0,2.43,7.36l5.89,3a5.47,5.47,0,0,0,7.36-2.42l79.23-157.16a5.47,5.47,0,0,0-2.43-7.35Z"/><path class="cls-4" d="M981.61,1182.66a5.48,5.48,0,0,0-7.36,2.43l-35.48,70.37a5.47,5.47,0,0,0,2.42,7.36l5.89,3a5.48,5.48,0,0,0,7.36-2.42L989.92,1193a5.47,5.47,0,0,0-2.42-7.36Z"/><path class="cls-4" d="M998.87,1197.5l-35.48,70.38a5.48,5.48,0,0,0,2.42,7.36l5.89,3a5.48,5.48,0,0,0,7.36-2.43l35.49-70.38a5.49,5.49,0,0,0-2.43-7.36l-5.89-3A5.49,5.49,0,0,0,998.87,1197.5Z"/><rect class="cls-13" x="-83.89" y="1054.13" width="323.22" height="237.34" transform="translate(-905.43 528.67) rotate(-52.98)"/><path class="cls-4" d="M228.25,1119.35l-140.52-106a5.47,5.47,0,0,0-7.67,1.08l-4,5.26a5.49,5.49,0,0,0,1.07,7.68l140.52,106a5.47,5.47,0,0,0,7.67-1.08l4-5.26A5.49,5.49,0,0,0,228.25,1119.35Z"/><path class="cls-4" d="M211.65,1141.37l-140.52-106a5.48,5.48,0,0,0-7.67,1.08l-4,5.27a5.46,5.46,0,0,0,1.07,7.67l140.52,106a5.47,5.47,0,0,0,7.67-1.07l4-5.27A5.48,5.48,0,0,0,211.65,1141.37Z"/><path class="cls-4" d="M196.12,1171.06a5.48,5.48,0,0,0-1.08-7.68l-140.51-106a5.48,5.48,0,0,0-7.67,1.07l-4,5.27a5.47,5.47,0,0,0,1.08,7.67l140.51,106a5.49,5.49,0,0,0,7.68-1.08Z"/><path class="cls-4" d="M170.94,1204.44a5.47,5.47,0,0,0-1.07-7.67l-140.52-106a5.47,5.47,0,0,0-7.67,1.08l-4,5.26a5.48,5.48,0,0,0,1.07,7.68l140.52,106a5.48,5.48,0,0,0,7.67-1.07Z"/><path class="cls-4" d="M154.34,1226.45a5.47,5.47,0,0,0-1.08-7.67l-140.51-106a5.48,5.48,0,0,0-7.67,1.08l-4,5.27a5.47,5.47,0,0,0,1.08,7.67l140.51,106a5.49,5.49,0,0,0,7.68-1.08Z"/><path class="cls-4" d="M137.74,1248.47a5.48,5.48,0,0,0-1.08-7.68l-140.51-106a5.49,5.49,0,0,0-7.68,1.07l-4,5.27a5.47,5.47,0,0,0,1.08,7.67l140.51,106a5.49,5.49,0,0,0,7.68-1.08Z"/><path class="cls-4" d="M23,1214.33a5.47,5.47,0,0,0-1.07-7.67l-51-38.46a5.47,5.47,0,0,0-7.67,1.08l-2,2.63-5.28,7-29.91,39.65a5.49,5.49,0,0,0,1.07,7.68l51,38.45a5.49,5.49,0,0,0,7.68-1.08L15.76,1224l5.29-7Z"/><rect class="cls-13" x="981.85" y="997.15" width="237.34" height="323.22" transform="translate(-418.6 662.62) rotate(-28.39)"/><path class="cls-4" d="M1066,1291.41a5.47,5.47,0,0,0,7.42,2.21l154.84-83.68a5.47,5.47,0,0,0,2.21-7.42l-3.14-5.8a5.47,5.47,0,0,0-7.42-2.22L1065,1278.18a5.49,5.49,0,0,0-2.22,7.43Z"/><path class="cls-4" d="M1052.84,1267.15a5.48,5.48,0,0,0,7.42,2.22l154.83-83.68a5.48,5.48,0,0,0,2.22-7.43l-3.14-5.8a5.48,5.48,0,0,0-7.42-2.22l-154.83,83.69a5.47,5.47,0,0,0-2.22,7.42Z"/><path class="cls-4" d="M1033,1230.37a5.49,5.49,0,0,0,7.42,2.22l154.83-83.69a5.47,5.47,0,0,0,2.22-7.42l-3.14-5.81a5.47,5.47,0,0,0-7.42-2.21L1032,1217.14a5.47,5.47,0,0,0-2.22,7.42Z"/><path class="cls-4" d="M1019.85,1206.11a5.48,5.48,0,0,0,7.42,2.22l154.83-83.68a5.48,5.48,0,0,0,2.22-7.43l-3.14-5.8a5.48,5.48,0,0,0-7.42-2.22l-154.83,83.68a5.48,5.48,0,0,0-2.22,7.43Z"/><path class="cls-4" d="M1006.74,1181.86a5.47,5.47,0,0,0,7.42,2.21L1169,1100.39a5.47,5.47,0,0,0,2.22-7.42l-3.14-5.81a5.47,5.47,0,0,0-7.42-2.21l-154.83,83.68a5.48,5.48,0,0,0-2.22,7.42Z"/><path class="cls-4" d="M986.86,1145.07a5.48,5.48,0,0,0,7.42,2.22l69.34-37.48a5.48,5.48,0,0,0,2.22-7.42l-3.14-5.81a5.47,5.47,0,0,0-7.42-2.21l-69.34,37.47a5.49,5.49,0,0,0-2.22,7.43Z"/><path class="cls-4" d="M981.17,1123l69.34-37.48a5.47,5.47,0,0,0,2.22-7.42l-3.14-5.8a5.48,5.48,0,0,0-7.42-2.22l-69.34,37.48a5.47,5.47,0,0,0-2.22,7.42l3.14,5.8A5.47,5.47,0,0,0,981.17,1123Z"/><path class="cls-4" d="M960.64,1096.56a5.47,5.47,0,0,0,7.42,2.21l69.34-37.47a5.5,5.5,0,0,0,2.22-7.43l-3.14-5.8a5.49,5.49,0,0,0-7.42-2.22l-69.34,37.48a5.48,5.48,0,0,0-2.22,7.42Z"/><path class="cls-4" d="M1085.51,1091.76a5.47,5.47,0,0,0,7.42,2.21l56.18-30.36a5.48,5.48,0,0,0,2.22-7.43l-1.57-2.9-4.17-7.72-23.62-43.7a5.47,5.47,0,0,0-7.42-2.21L1058.36,1030a5.48,5.48,0,0,0-2.21,7.43l23.62,43.69,4.17,7.72Z"/><rect class="cls-13" x="269.34" y="1049.02" width="323.22" height="237.34" transform="translate(-84.87 34.93) rotate(-4.23)"/><path class="cls-4" d="M291.52,1089.75l13,175.52a5.48,5.48,0,0,0,5.87,5.06l6.58-.49A5.47,5.47,0,0,0,322,1264l-13-175.52a5.47,5.47,0,0,0-5.87-5.06l-6.57.48A5.49,5.49,0,0,0,291.52,1089.75Z"/><path class="cls-4" d="M319,1087.72l13,175.52a5.48,5.48,0,0,0,5.87,5.06l6.58-.49a5.48,5.48,0,0,0,5.06-5.87l-13-175.51a5.47,5.47,0,0,0-5.87-5.06l-6.58.48A5.48,5.48,0,0,0,319,1087.72Z"/><path class="cls-4" d="M351.58,1079.82a5.48,5.48,0,0,0-5.06,5.87l13,175.52a5.48,5.48,0,0,0,5.87,5.06l6.58-.49a5.48,5.48,0,0,0,5.06-5.87l-13-175.52a5.49,5.49,0,0,0-5.87-5.06Z"/><path class="cls-4" d="M393.28,1076.74a5.48,5.48,0,0,0-5.06,5.87l13,175.51a5.49,5.49,0,0,0,5.87,5.07l6.57-.49a5.49,5.49,0,0,0,5.07-5.87l-13-175.52a5.48,5.48,0,0,0-5.87-5.06Z"/><path class="cls-4" d="M420.78,1074.71a5.47,5.47,0,0,0-5.06,5.86l13,175.52a5.47,5.47,0,0,0,5.86,5.06l6.58-.48a5.48,5.48,0,0,0,5.06-5.87l-13-175.52a5.47,5.47,0,0,0-5.86-5.06Z"/><path class="cls-4" d="M448.27,1072.68a5.46,5.46,0,0,0-5,5.86l13,175.52a5.48,5.48,0,0,0,5.87,5.06l6.58-.49a5.47,5.47,0,0,0,5.06-5.86l-13-175.52a5.48,5.48,0,0,0-5.87-5.06Z"/><path class="cls-4" d="M490,1069.59a5.49,5.49,0,0,0-5.06,5.87l5.81,78.6a5.47,5.47,0,0,0,5.87,5.06l6.58-.48a5.48,5.48,0,0,0,5.06-5.87l-5.81-78.6a5.47,5.47,0,0,0-5.87-5.06Z"/><path class="cls-4" d="M512.41,1073.43l5.81,78.6a5.47,5.47,0,0,0,5.87,5.06l6.58-.48a5.49,5.49,0,0,0,5.06-5.87l-5.81-78.6a5.47,5.47,0,0,0-5.87-5.06l-6.58.48A5.48,5.48,0,0,0,512.41,1073.43Z"/><path class="cls-4" d="M539.91,1071.4l5.81,78.6a5.48,5.48,0,0,0,5.87,5.06l6.57-.49a5.47,5.47,0,0,0,5.06-5.86l-5.8-78.61a5.49,5.49,0,0,0-5.87-5.06l-6.58.49A5.48,5.48,0,0,0,539.91,1071.4Z"/><path class="cls-4" d="M498.24,1181.42a5.48,5.48,0,0,0-5.06,5.87l4.7,63.69a5.48,5.48,0,0,0,5.87,5.06l3.29-.24,8.75-.65,49.54-3.66a5.47,5.47,0,0,0,5-5.87l-4.7-63.69a5.48,5.48,0,0,0-5.87-5.06l-49.53,3.66-8.75.65Z"/></g><path class="cls-25" d="M37.53,310.82c-1.06,9.16-2.47,18-3.52,26.76,34.15,47.18,90.48,88.72,143.64,117.94,22.53-20.42,45.06-41.19,67.6-61.61-1.76-6.34-3.17-12.67-4.58-19.36C189.27,343.21,135.05,299.91,103,251.33,81.18,271,59.36,291.11,37.53,310.82"/><path class="cls-26" d="M173.42,429.47C118.15,398.14,71.68,355.54,37.53,305.19c22.18-20.42,44.36-40.49,66.54-60.91,34.15,50.35,80.62,93,135.89,124.28-22.18,20.07-44.36,40.49-66.54,60.91"/><path class="cls-25" d="M179.06,416.09c-1.06-.7-1.76-1-2.82-1.76a9,9,0,0,0-9.86.71l-2.11,2.11A409.78,409.78,0,0,1,50.55,314l2.12-2.11a7,7,0,0,0,.7-9.15c-.7-.71-1.06-1.76-1.76-2.47C66.4,286.88,81.18,273.15,96,259.78c.7.7,1.06,1.76,1.76,2.46a5.66,5.66,0,0,0,8.1.7l2.11-2.11c30.28,40.84,69,76.05,113.72,103.51l-2.12,2.11c-2.46,2.46-1.76,5.63,1.06,7.39,1.06.71,1.76,1.06,2.82,1.76-14.79,13.38-29.58,27.11-44.36,40.49M213.91,376a8.12,8.12,0,0,1-1.41-10.57c-40.84-26.05-76.39-58.44-104.91-96.46A10.06,10.06,0,0,1,96,267.87C83.65,279.14,71.68,290.05,59.71,301a14.2,14.2,0,0,1-1.06,13c28.52,37.67,64.08,70.06,104.92,96.12a19.4,19.4,0,0,1,14.08-1.06C190,397.78,201.94,386.87,213.91,376"/><path class="cls-25" d="M181.87,368.56c.36-.7,1.06-1.05.71-1.41,1.76,1.06,3.52,2.47,5.28,3.53-.71.7-1.06,1.4-1.76,1.76,2.11,2.81,2.11,6-.35,8.45a12,12,0,0,1-5.28,2.11,12.24,12.24,0,0,1-8.45-2.11,2.61,2.61,0,0,0-3.17,0,1.5,1.5,0,0,0,.35,2.46,3.2,3.2,0,0,0,3.52,0c2.11,1.41,3.87,2.46,6,3.87-2.47,2.47-6.69,2.82-10.57,1.76a9.6,9.6,0,0,0-2.11,1.76c-1.76-1.05-3.52-2.46-5.28-3.52.7-.7,1.41-1.05,2.11-1.76a6.17,6.17,0,0,1,.35-8.8c3.17-3.17,9.16-2.82,13.38,0a3.2,3.2,0,0,0,3.52,0c1.06-.7.71-1.76-.35-2.46a2.63,2.63,0,0,0-3.17,0c-1.76-1.41-3.87-2.82-5.63-4.23,2.82-2.46,7-2.82,10.91-1.41"/><path class="cls-25" d="M100.2,293.22c.7-.7,1.4-1.05,1.4-1.76a26.78,26.78,0,0,0,3.88,4.93c-.71.7-1.06,1.41-1.76,1.76a8.56,8.56,0,0,1-1.76,9.51A8.46,8.46,0,0,1,97,309.42a9.77,9.77,0,0,1-7-3.52,1.87,1.87,0,0,0-2.82-.36,2.61,2.61,0,0,0,0,3.17,1.86,1.86,0,0,0,2.82.35c1.4,1.76,3.16,3.52,4.57,5.29-2.46,2.46-6,2.46-9.15.7a9.17,9.17,0,0,0-2.11,1.76c-1.41-1.76-2.47-3.17-3.88-4.93.71-.7,1.41-1.06,2.12-1.76a9.1,9.1,0,0,1,1.76-9.86c3.16-2.81,8.45-2.11,11.61,1.76a1.86,1.86,0,0,0,2.82.35,2.63,2.63,0,0,0,0-3.16,1.87,1.87,0,0,0-2.82-.36l-4.22-5.28c2.46-2.46,6.34-2.46,9.51-.35"/><path class="cls-25" d="M110.76,362.23a24.82,24.82,0,0,1,.35-37.32c10.91-10.21,28.52-9.16,39.78,1s12,26.06,1.06,36.27c-10.92,9.85-29.93,10.21-41.19,0"/><path class="cls-27" d="M175.54,323.5q-11.62-10-22.18-20.07L87.17,364.34A294.53,294.53,0,0,0,109,384.41l66.54-60.91"/><path class="cls-28" d="M108.64,411.16V384.05c-7.39-6.33-14.78-13-21.82-20.06v29.57c7,6,14.43,12,21.82,17.6"/><path id="_0" data-name="0" class="cls-29" d="M209.69,324.2a23.53,23.53,0,0,1-11.62-3.52c-3.52-2.11-6.69-4.93-9.86-7.39s-6-5.28-9.15-7.39A24.18,24.18,0,0,0,168.5,301a18.1,18.1,0,0,1,12,2.46c3.52,1.76,6.68,4.58,9.85,7,3.17,2.82,6,5.28,9.16,7.75a37.13,37.13,0,0,0,10.21,6"/><path class="cls-30" d="M112.17,353.78c7.74,4.22,10.21,12,10.56,12a52.84,52.84,0,0,0,.35,28.51c10.21,18-12.32,14.09-12.32,14.09,13.73,23.58-18,16.19-18,16.19,22.53,18.31,22.18,28.52,14.08,28.52-73.22,0-92.24-115.48-52.1-104.92s57.39,5.64,57.39,5.64"/><path class="cls-31" d="M35.77,359.41c-8.8,27.46,15.49,93.65,71.11,94,4.93,0,7.05-4.22,2.47-11.62h-.71c-48.93,0-73.58-51.4-72.87-82.38"/><path class="cls-31" d="M61.12,376.31c2.11,27.46,31,53.16,46.47,52.81,4.58,0,8.1-3.52,6.34-11.62,0,0-42.25-3.17-52.81-41.19"/><path class="cls-31" d="M90.69,376.31c-.35,6,12.67,24.29,20.77,33.09,2.82,3.17,19.36,3.17,13-10.91,0,0-8.8,13-33.8-22.18"/><path class="cls-29" d="M109.7,442.85a54.21,54.21,0,0,0-13-16.55c-4.92-5.28-10.21-9.86-15.13-14.79a113.26,113.26,0,0,1-13.38-15.84,41.41,41.41,0,0,1-7-19.36,36,36,0,0,0,4.57,20.77c3.52,6.34,8.45,12,13.38,16.9,5.28,4.93,10.56,9.5,15.84,14.08s10.57,9.16,14.79,14.79"/><path class="cls-29" d="M113.93,417.5a23.47,23.47,0,0,0-3.53-11.62A101.72,101.72,0,0,0,103,396c-2.46-3.16-5.28-6-7.39-9.15a24.18,24.18,0,0,1-4.93-10.56,18.16,18.16,0,0,0,2.46,12c1.76,3.52,4.58,6.69,7,9.86,2.81,3.16,5.28,6,7.74,9.15a37.31,37.31,0,0,1,6,10.21"/><path class="cls-30" d="M146,322.44c4.23,7.75,12,10.21,12,10.56a52.94,52.94,0,0,1,28.52.36c18,10.21,14.08-12.33,14.08-12.33,23.59,13.73,16.2-17.95,16.2-17.95,18.31,22.53,28.52,22.18,28.52,14.08,0-73.23-115.48-92.24-104.92-52.1S146,322.44,146,322.44"/><path class="cls-31" d="M151.6,246c27.46-8.8,93.65,15.5,93.65,71.12,0,4.93-3.88,6.69-11.27,2.47v-.71c0-48.94-51.4-73.58-82.38-72.88"/><path class="cls-31" d="M168.5,271.39c27.46,2.12,53.16,31,52.81,46.48,0,4.57-3.53,8.09-11.62,6.33,0,0-3.17-42.24-41.19-52.81"/><path class="cls-31" d="M168.5,301c6-.36,24.29,12.67,33.09,20.77,3.17,2.81,3.17,19.36-10.91,13,0,0,13-8.8-22.18-33.79"/><path class="cls-29" d="M235,320c-6.34-3.17-11.62-7.75-16.55-13-5.28-4.93-9.86-10.21-14.79-15.14a114.53,114.53,0,0,0-15.84-13.38,41.63,41.63,0,0,0-19.36-7A36.1,36.1,0,0,1,189.27,276c6.33,3.52,12,8.45,16.9,13.38,4.93,5.28,9.5,10.56,14.08,15.84S229.4,315.75,235,320"/><path id="_0-2" data-name="0" class="cls-29" d="M209.69,324.2a23.53,23.53,0,0,1-11.62-3.52c-3.52-2.11-6.69-4.93-9.86-7.39s-6-5.28-9.15-7.39A24.18,24.18,0,0,0,168.5,301a18.1,18.1,0,0,1,12,2.46c3.52,1.76,6.68,4.58,9.85,7,3.17,2.82,6,5.28,9.16,7.75a37.13,37.13,0,0,0,10.21,6"/><path class="cls-25" d="M1162.72,310.82c1.06,9.16,2.47,18,3.53,26.76-34.15,47.18-90.48,88.72-143.65,117.94-22.53-20.42-45.06-41.19-67.59-61.61,1.76-6.34,3.17-12.67,4.57-19.36,51.41-31.34,105.62-74.64,137.66-123.22,21.83,19.71,43.66,39.78,65.48,59.49"/><path class="cls-26" d="M1026.83,429.47c55.27-31.33,101.74-73.93,135.89-124.28-22.18-20.42-44.36-40.49-66.54-60.91-34.15,50.35-80.62,93-135.89,124.28,22.18,20.07,44.36,40.49,66.54,60.91"/><path class="cls-25" d="M1021.2,416.09c-14.79-13.38-29.58-27.11-44.36-40.49,1-.7,1.76-1.05,2.81-1.76,2.82-1.76,3.52-4.93,1.06-7.39-.71-.7-1.41-1.41-2.11-2.11,44.71-27.46,83.43-62.67,113.71-103.51l2.11,2.11a5.66,5.66,0,0,0,8.1-.7c.71-.7,1.06-1.76,1.76-2.46,14.79,13.37,29.58,27.1,44.36,40.48-.7.71-1.05,1.76-1.76,2.47a7,7,0,0,0,.71,9.15l2.11,2.11A409.78,409.78,0,0,1,1036,417.15l-2.11-2.11a9,9,0,0,0-9.86-.71c-1,.71-1.76,1.06-2.81,1.76M986.34,376c12,10.91,23.94,21.82,36.26,33.09a19.43,19.43,0,0,1,14.09,1.06c40.84-26.06,76.39-58.45,104.91-96.12a14.23,14.23,0,0,1-1.06-13c-12-10.92-23.94-21.83-36.26-33.1a10.05,10.05,0,0,1-11.62,1.06c-28.51,38-64.07,70.41-104.91,96.46A8.12,8.12,0,0,1,986.34,376"/><path class="cls-25" d="M1018.38,368.56c-.35-.7-1.06-1.05-.71-1.41-1.76,1.06-3.52,2.47-5.28,3.53.71.7,1.06,1.4,1.76,1.76-2.11,2.81-2.11,6,.36,8.45a11.89,11.89,0,0,0,5.28,2.11,12.27,12.27,0,0,0,8.45-2.11,2.6,2.6,0,0,1,3.16,0,1.5,1.5,0,0,1-.35,2.46,3.2,3.2,0,0,1-3.52,0c-2.11,1.41-3.87,2.46-6,3.87,2.46,2.47,6.69,2.82,10.56,1.76a9.38,9.38,0,0,1,2.11,1.76c1.76-1.05,3.52-2.46,5.28-3.52-.7-.7-1.41-1.05-2.11-1.76a6.17,6.17,0,0,0-.35-8.8c-3.17-3.17-9.16-2.82-13.38,0a3.2,3.2,0,0,1-3.52,0c-1.06-.7-.71-1.76.35-2.46a2.63,2.63,0,0,1,3.17,0c1.76-1.41,3.87-2.82,5.63-4.23-2.81-2.46-7-2.82-10.91-1.41"/><path class="cls-25" d="M1100.06,293.22c-.71-.7-1.41-1.05-1.41-1.76a27.17,27.17,0,0,1-3.87,4.93c.7.7,1,1.41,1.76,1.76a7.58,7.58,0,0,0,6.69,11.27,9.79,9.79,0,0,0,7-3.52,1.86,1.86,0,0,1,2.81-.36,2.61,2.61,0,0,1,0,3.17,1.85,1.85,0,0,1-2.81.35c-1.41,1.76-3.17,3.52-4.58,5.29,2.46,2.46,6,2.46,9.15.7a9.41,9.41,0,0,1,2.12,1.76c1.4-1.76,2.46-3.17,3.87-4.93-.7-.7-1.41-1.06-2.11-1.76a9.12,9.12,0,0,0-1.76-9.86c-3.17-2.81-8.45-2.11-11.62,1.76a1.86,1.86,0,0,1-2.82.35,2.63,2.63,0,0,1,0-3.16,1.87,1.87,0,0,1,2.82-.36l4.22-5.28c-2.46-2.46-6.33-2.46-9.5-.35"/><path class="cls-25" d="M1089.5,362.23a24.83,24.83,0,0,0-.36-37.32c-10.91-10.21-28.51-9.16-39.78,1s-12,26.06-1.06,36.27c10.92,9.85,29.93,10.21,41.2,0"/><path class="cls-27" d="M1024.72,323.5q11.61-10,22.18-20.07l66.18,60.91a296.39,296.39,0,0,1-21.82,20.07l-66.54-60.91"/><path class="cls-28" d="M1091.61,411.16V384.05c7.39-6.33,14.78-13,21.83-20.06v29.57c-7,6-14.44,12-21.83,17.6"/><path id="_0-3" data-name="0" class="cls-29" d="M990.57,324.2a23.52,23.52,0,0,0,11.61-3.52c3.52-2.11,6.69-4.93,9.86-7.39s6-5.28,9.16-7.39a24.08,24.08,0,0,1,10.56-4.93,18.09,18.09,0,0,0-12,2.46c-3.52,1.76-6.69,4.58-9.86,7-3.17,2.82-6,5.28-9.15,7.75a37.28,37.28,0,0,1-10.21,6"/><path class="cls-30" d="M1088.09,353.78c-7.75,4.22-10.21,12-10.56,12a52.89,52.89,0,0,1-.36,28.51c-10.21,18,12.33,14.09,12.33,14.09-13.73,23.58,18,16.19,18,16.19-22.53,18.31-22.18,28.52-14.08,28.52,73.23,0,92.24-115.48,52.1-104.92s-57.38,5.64-57.38,5.64"/><path class="cls-31" d="M1164.49,359.41c8.8,27.46-15.5,93.65-71.12,94-4.93,0-7-4.22-2.47-11.62h.71c48.93,0,73.58-51.4,72.88-82.38"/><path class="cls-31" d="M1139.14,376.31c-2.12,27.46-31,53.16-46.48,52.81-4.57,0-8.09-3.52-6.33-11.62,0,0,42.24-3.17,52.81-41.19"/><path class="cls-31" d="M1109.56,376.31c.36,6-12.67,24.29-20.77,33.09-2.82,3.17-19.36,3.17-13-10.91,0,0,8.8,13,33.79-22.18"/><path class="cls-29" d="M1090.55,442.85a54.36,54.36,0,0,1,13-16.55c4.93-5.28,10.21-9.86,15.14-14.79a114,114,0,0,0,13.38-15.84,41.63,41.63,0,0,0,7-19.36,36.1,36.1,0,0,1-4.58,20.77c-3.52,6.34-8.45,12-13.38,16.9-5.28,4.93-10.56,9.5-15.84,14.08s-10.56,9.16-14.79,14.79"/><path class="cls-29" d="M1086.33,417.5a23.56,23.56,0,0,1,3.52-11.62c2.11-3.52,4.93-6.69,7.39-9.86s5.28-6,7.39-9.15a24.18,24.18,0,0,0,4.93-10.56,18.1,18.1,0,0,1-2.46,12c-1.76,3.52-4.58,6.69-7,9.86-2.82,3.16-5.28,6-7.75,9.15a37.28,37.28,0,0,0-6,10.21"/><path class="cls-30" d="M1054.29,322.44c-4.23,7.75-12,10.21-12,10.56a52.94,52.94,0,0,0-28.52.36C995.85,343.57,999.72,321,999.72,321c-23.59,13.73-16.2-17.95-16.2-17.95C965.22,325.61,955,325.26,955,317.16c0-73.23,115.47-92.24,104.91-52.1s-5.63,57.38-5.63,57.38"/><path class="cls-31" d="M1048.66,246c-27.46-8.8-93.65,15.5-93.65,71.12,0,4.93,3.87,6.69,11.26,2.47v-.71c0-48.94,51.4-73.58,82.39-72.88"/><path class="cls-31" d="M1031.76,271.39c-27.46,2.12-53.16,31-52.81,46.48,0,4.57,3.52,8.09,11.62,6.33,0,0,3.16-42.24,41.19-52.81"/><path class="cls-31" d="M1031.76,301c-6-.36-24.3,12.67-33.1,20.77-3.17,2.81-3.17,19.36,10.92,13,0,0-13-8.8,22.18-33.79"/><path class="cls-29" d="M965.22,320c6.33-3.17,11.62-7.75,16.54-13,5.28-4.93,9.86-10.21,14.79-15.14a114.53,114.53,0,0,1,15.84-13.38,41.71,41.71,0,0,1,19.37-7A36.08,36.08,0,0,0,1011,276c-6.34,3.52-12,8.45-16.9,13.38-4.93,5.28-9.51,10.56-14.09,15.84s-9.15,10.56-14.78,14.79"/><path id="_0-4" data-name="0" class="cls-29" d="M990.57,324.2a23.52,23.52,0,0,0,11.61-3.52c3.52-2.11,6.69-4.93,9.86-7.39s6-5.28,9.16-7.39a24.08,24.08,0,0,1,10.56-4.93,18.09,18.09,0,0,0-12,2.46c-3.52,1.76-6.69,4.58-9.86,7-3.17,2.82-6,5.28-9.15,7.75a37.28,37.28,0,0,1-10.21,6"/></g></svg>
