<svg xmlns="http://www.w3.org/2000/svg" xmlns:xlink="http://www.w3.org/1999/xlink" viewBox="0 0 1200 1200"><defs><style>.cls-1{fill:none;}.cls-2{clip-path:url(#clip-path);}.cls-3{fill:#e0e0e0;}.cls-4{fill:#c6c6c6;}.cls-5{fill:#efefef;}.cls-6{fill:#5d4037;}.cls-7{fill:#294c72;}.cls-8{fill:#235d8c;}.cls-9{fill:#ffc08d;}.cls-10{fill:#ffb680;}.cls-11{fill:#3f3f3f;}.cls-12{fill:#333;}.cls-13{fill:#f9f9f9;}.cls-14{fill:#e2e2e2;}.cls-15{fill:#636e75;}.cls-16{fill:#535f66;}.cls-17{fill:#326799;}.cls-18{fill:#ffcb99;}.cls-19{fill:#f49267;}.cls-20{fill:#ea805c;}.cls-21{fill:#282828;}.cls-22{fill:#72401f;}.cls-23{fill:#643614;}.cls-24{fill:#d65037;}.cls-25{fill:#699635;}.cls-26{fill:#83bf4f;}.cls-27{fill:#ffdd7d;}.cls-28{fill:#dbb471;}.cls-29{fill:#8d9998;}.cls-30{fill:#e8e8e8;}.cls-31{fill:#d1d1d1;}</style><clipPath id="clip-path"><rect class="cls-1" y="89.93" width="1200" height="1110.07"/></clipPath></defs><title>Artboard 54</title><g id="Character"><g class="cls-2"><rect class="cls-3" x="-3.62" y="781.38" width="214.24" height="157.31" transform="translate(-743.27 677.39) rotate(-70.97)"/><path class="cls-4" d="M189.71,800.15a3.65,3.65,0,0,0-2.25-4.62l-110.28-38a3.62,3.62,0,0,0-4.62,2.25l-1.43,4.13a3.64,3.64,0,0,0,2.25,4.62l110.28,38a3.63,3.63,0,0,0,4.62-2.25Z"/><path class="cls-4" d="M181.5,812.81l-110.28-38A3.64,3.64,0,0,0,66.6,777l-1.43,4.14a3.63,3.63,0,0,0,2.25,4.61l110.28,38a3.64,3.64,0,0,0,4.62-2.25l1.42-4.13A3.63,3.63,0,0,0,181.5,812.81Z"/><path class="cls-4" d="M177.78,834.71a3.62,3.62,0,0,0-2.25-4.62L65.26,792a3.63,3.63,0,0,0-4.62,2.25l-1.43,4.13A3.63,3.63,0,0,0,61.46,803l110.28,38.05a3.64,3.64,0,0,0,4.62-2.25Z"/><path class="cls-4" d="M168.74,860.9a3.62,3.62,0,0,0-2.24-4.61l-110.28-38a3.63,3.63,0,0,0-4.62,2.25l-1.43,4.13a3.64,3.64,0,0,0,2.25,4.62l110.28,38a3.64,3.64,0,0,0,4.62-2.25Z"/><path class="cls-4" d="M162.78,878.18a3.63,3.63,0,0,0-2.24-4.62l-110.28-38a3.62,3.62,0,0,0-4.62,2.25l-1.43,4.13a3.64,3.64,0,0,0,2.25,4.62l110.28,38a3.63,3.63,0,0,0,4.62-2.25Z"/><path class="cls-4" d="M156.82,895.46a3.63,3.63,0,0,0-2.25-4.62L44.3,852.79A3.64,3.64,0,0,0,39.68,855l-1.43,4.14a3.63,3.63,0,0,0,2.25,4.61l110.28,38.05a3.64,3.64,0,0,0,4.62-2.25Z"/><path class="cls-4" d="M147.78,921.66a3.63,3.63,0,0,0-2.24-4.62L96.15,900a3.64,3.64,0,0,0-4.62,2.25l-1.42,4.13A3.63,3.63,0,0,0,92.35,911l49.39,17a3.64,3.64,0,0,0,4.62-2.25Z"/><path class="cls-4" d="M139.58,934.32l-49.39-17a3.63,3.63,0,0,0-4.62,2.25l-1.43,4.13a3.64,3.64,0,0,0,2.25,4.62l49.39,17a3.64,3.64,0,0,0,4.62-2.25l1.42-4.14A3.62,3.62,0,0,0,139.58,934.32Z"/><path class="cls-4" d="M133.62,951.6l-49.39-17a3.63,3.63,0,0,0-4.62,2.25l-1.43,4.13a3.65,3.65,0,0,0,2.25,4.62l49.39,17a3.63,3.63,0,0,0,4.62-2.24l1.42-4.14A3.62,3.62,0,0,0,133.62,951.6Z"/><path class="cls-4" d="M77.52,897.42a3.63,3.63,0,0,0-2.25-4.62l-40-13.8a3.63,3.63,0,0,0-4.62,2.24l-.71,2.07-1.9,5.5L17.29,919.93a3.64,3.64,0,0,0,2.25,4.62l40,13.8a3.62,3.62,0,0,0,4.61-2.24L74.91,905l1.9-5.5Z"/><rect class="cls-3" x="842.89" y="771.47" width="275.02" height="201.94" transform="translate(-286.68 1214.28) rotate(-56.76)"/><rect class="cls-3" x="132.66" y="715.77" width="222.8" height="303.43" transform="translate(-396.01 233.13) rotate(-29.54)"/><rect class="cls-3" x="256.49" y="757.49" width="247.65" height="181.84" transform="translate(-281.48 195.37) rotate(-21.24)"/><path class="cls-4" d="M260.69,822.56l48.84,125.69a4.19,4.19,0,0,0,5.43,2.39l4.71-1.83a4.19,4.19,0,0,0,2.4-5.43L273.22,817.69a4.19,4.19,0,0,0-5.43-2.39l-4.71,1.83A4.19,4.19,0,0,0,260.69,822.56Z"/><path class="cls-4" d="M280.38,814.91,329.22,940.6a4.19,4.19,0,0,0,5.43,2.39l4.72-1.83a4.19,4.19,0,0,0,2.39-5.43L292.91,810a4.2,4.2,0,0,0-5.43-2.4l-4.71,1.83A4.21,4.21,0,0,0,280.38,814.91Z"/><path class="cls-4" d="M302.46,801.82a4.2,4.2,0,0,0-2.39,5.44L348.91,933a4.21,4.21,0,0,0,5.44,2.39l4.71-1.83a4.2,4.2,0,0,0,2.39-5.44L312.61,802.38a4.2,4.2,0,0,0-5.44-2.39Z"/><path class="cls-4" d="M332.32,790.22a4.19,4.19,0,0,0-2.39,5.43l48.84,125.69a4.21,4.21,0,0,0,5.44,2.39l4.71-1.83a4.19,4.19,0,0,0,2.39-5.43L342.47,790.78a4.21,4.21,0,0,0-5.44-2.39Z"/><path class="cls-4" d="M352,782.57a4.19,4.19,0,0,0-2.4,5.43l48.85,125.69a4.19,4.19,0,0,0,5.43,2.39l4.71-1.83a4.19,4.19,0,0,0,2.39-5.43L362.16,783.13a4.19,4.19,0,0,0-5.43-2.39Z"/><path class="cls-4" d="M371.71,774.91a4.2,4.2,0,0,0-2.4,5.44L418.16,906a4.19,4.19,0,0,0,5.43,2.39l4.71-1.83a4.19,4.19,0,0,0,2.39-5.43L381.85,775.48a4.19,4.19,0,0,0-5.43-2.4Z"/><path class="cls-4" d="M401.57,763.31a4.2,4.2,0,0,0-2.4,5.43L421.05,825a4.19,4.19,0,0,0,5.43,2.39l4.71-1.83a4.21,4.21,0,0,0,2.4-5.43l-21.88-56.29a4.19,4.19,0,0,0-5.43-2.39Z"/><path class="cls-4" d="M421.26,755.66a4.19,4.19,0,0,0-2.39,5.43l21.87,56.29a4.19,4.19,0,0,0,5.43,2.39l4.71-1.83a4.2,4.2,0,0,0,2.4-5.43L431.4,756.22a4.19,4.19,0,0,0-5.43-2.39Z"/><path class="cls-4" d="M441,748a4.19,4.19,0,0,0-2.39,5.43l21.87,56.29a4.19,4.19,0,0,0,5.43,2.39l4.72-1.83a4.19,4.19,0,0,0,2.39-5.43l-21.88-56.29a4.2,4.2,0,0,0-5.43-2.4Z"/><path class="cls-4" d="M432.69,843.39a4.21,4.21,0,0,0-2.4,5.44L448,894.43a4.21,4.21,0,0,0,5.43,2.4l2.36-.92,6.27-2.44,35.46-13.78a4.19,4.19,0,0,0,2.4-5.43l-17.73-45.61a4.19,4.19,0,0,0-5.43-2.39L441.31,840,435,842.48Z"/><rect class="cls-3" x="707.96" y="738.44" width="282.78" height="207.64" transform="translate(-340.11 715.91) rotate(-38.7)"/><path class="cls-4" d="M987.76,836.17a4.79,4.79,0,0,0,.74-6.74L892.24,709.26a4.79,4.79,0,0,0-6.73-.75L881,712.12a4.79,4.79,0,0,0-.74,6.74L976.52,839a4.8,4.8,0,0,0,6.74.74Z"/><path class="cls-4" d="M968.93,851.25a4.8,4.8,0,0,0,.75-6.74L873.42,724.34a4.8,4.8,0,0,0-6.74-.75l-4.51,3.61a4.8,4.8,0,0,0-.74,6.74l96.26,120.17a4.79,4.79,0,0,0,6.74.74Z"/><path class="cls-4" d="M950.11,866.33a4.8,4.8,0,0,0,.74-6.74L854.59,739.42a4.8,4.8,0,0,0-6.74-.75l-4.5,3.61a4.8,4.8,0,0,0-.75,6.74l96.27,120.17a4.79,4.79,0,0,0,6.73.75Z"/><path class="cls-4" d="M921.56,889.2a4.8,4.8,0,0,0,.74-6.74L826,762.29a4.8,4.8,0,0,0-6.74-.75l-4.5,3.61a4.8,4.8,0,0,0-.75,6.74l96.27,120.17a4.78,4.78,0,0,0,6.73.74Z"/><path class="cls-4" d="M902.73,904.28a4.8,4.8,0,0,0,.75-6.74L807.21,777.37a4.8,4.8,0,0,0-6.74-.75l-4.5,3.61a4.79,4.79,0,0,0-.74,6.74l96.26,120.17a4.8,4.8,0,0,0,6.74.75Z"/><path class="cls-4" d="M883.9,919.36a4.8,4.8,0,0,0,.75-6.74L788.38,792.45a4.78,4.78,0,0,0-6.73-.74l-4.51,3.6a4.8,4.8,0,0,0-.74,6.74l96.26,120.17a4.8,4.8,0,0,0,6.74.75Z"/><path class="cls-4" d="M855.35,942.23a4.8,4.8,0,0,0,.75-6.74L813,881.67a4.8,4.8,0,0,0-6.74-.74l-4.5,3.61a4.79,4.79,0,0,0-.75,6.73l43.11,53.82a4.8,4.8,0,0,0,6.74.75Z"/><path class="cls-4" d="M837.27,950.57l-43.11-53.82a4.8,4.8,0,0,0-6.74-.74l-4.5,3.61a4.79,4.79,0,0,0-.74,6.74l43.11,53.81a4.79,4.79,0,0,0,6.73.75l4.51-3.61A4.8,4.8,0,0,0,837.27,950.57Z"/><path class="cls-4" d="M818.45,965.65l-43.12-53.81a4.79,4.79,0,0,0-6.73-.75l-4.51,3.61a4.8,4.8,0,0,0-.74,6.74l43.11,53.82a4.8,4.8,0,0,0,6.74.74l4.5-3.61A4.8,4.8,0,0,0,818.45,965.65Z"/><path class="cls-4" d="M794,865.66a4.79,4.79,0,0,0,.75-6.73l-34.94-43.61a4.79,4.79,0,0,0-6.73-.75l-2.25,1.81-6,4.8-33.91,27.16a4.79,4.79,0,0,0-.74,6.74l34.92,43.61a4.8,4.8,0,0,0,6.74.74l33.92-27.16,6-4.8Z"/><rect class="cls-5" x="131.15" y="1117.86" width="237.34" height="323.22" transform="translate(-607.78 297.64) rotate(-30.09)"/><path class="cls-4" d="M259.12,1120l-152.28,88.23a5.48,5.48,0,0,0-2,7.49l3.3,5.7a5.48,5.48,0,0,0,7.49,2l152.28-88.24a5.47,5.47,0,0,0,2-7.48l-3.31-5.71A5.48,5.48,0,0,0,259.12,1120Z"/><path class="cls-4" d="M273,1143.86,120.66,1232.1a5.47,5.47,0,0,0-2,7.48l3.31,5.71a5.48,5.48,0,0,0,7.48,2l152.29-88.24a5.47,5.47,0,0,0,2-7.48l-3.31-5.71A5.47,5.47,0,0,0,273,1143.86Z"/><path class="cls-4" d="M294.26,1169.71a5.49,5.49,0,0,0-7.49-2L134.49,1256a5.47,5.47,0,0,0-2,7.48l3.31,5.71a5.48,5.48,0,0,0,7.49,2l152.28-88.23a5.48,5.48,0,0,0,2-7.49Z"/><path class="cls-6" d="M729,289.34s41.55,54.34,29.31,106.4-48.33,92.07-84.76,116.48c22.64-24.41,37.08-33.76,55.45-59.83s43.93-77.62,3.62-136.6C722.74,287.64,729,289.34,729,289.34Z"/><path class="cls-6" d="M600.1,117.43s-22.14-9.94-65,6.82c-42.54,16.63-90.57,63-77.55,154,11.56,80.8,34.78,228.65-88.07,199.11-.22-.05,101.08,93.74,301.62,16.81,77.73-29.83-41.77-295.6-41.77-295.6Z"/><path class="cls-6" d="M734.17,286.11c-14.86-79.94-9.92-95.9-51.14-126.6-41.6-31-82.91-25.1-82.91-25.1l0,314.33s36,90.8,36.19,90.66C701.8,491.55,764.76,450.83,734.17,286.11Z"/><path class="cls-6" d="M737,298.5s10.43,106.77,38.55,118.66c-13.79-3-31.83-29.75-36.61-59.32S737,298.5,737,298.5Z"/><path class="cls-6" d="M741.07,364.5S760.51,421.27,717,482.1c32.87-72.45,11-69.18,14.86-85.24S741.07,364.5,741.07,364.5Z"/><path class="cls-6" d="M458.72,286.11s22.18,96.25-33.52,126c23.35-5.83,50.41-37.65,44-96.28S458.72,286.11,458.72,286.11Z"/><path class="cls-6" d="M468.59,369.47S471.9,469.72,376,468.84c9.67,3.36,75.88,9.38,95.09-64.73A69.28,69.28,0,0,0,468.59,369.47Z"/><path class="cls-5" d="M244.66,491.32,418,649.4c19.43,20.48,51.59,28.56,82.38,18.09,40.9-13.89,63.84-55.24,51.25-92.36-9.88-29.08-30.58-40.29-60.93-30.87s-70.58-6.26-80.22-14.18L298.15,434A39.71,39.71,0,0,0,242,436.69,38.68,38.68,0,0,0,244.66,491.32Z"/><path class="cls-5" d="M496.69,593.79A20.2,20.2,0,1,0,484,619.42,20.21,20.21,0,0,0,496.69,593.79Z"/><path class="cls-5" d="M296.62,453.08a17.86,17.86,0,1,0-21.64,13A17.82,17.82,0,0,0,296.62,453.08Z"/><path class="cls-5" d="M955.34,491.32,782,649.4c-19.44,20.48-51.6,28.56-82.41,18.09-40.91-13.89-63.85-55.24-51.27-92.36,9.89-29.08,30.6-40.29,61-30.87s70.6-6.26,80.24-14.18L901.83,434A39.74,39.74,0,0,1,958,436.69,38.68,38.68,0,0,1,955.34,491.32Z"/><path class="cls-5" d="M703.23,593.79a20.21,20.21,0,1,1,12.64,25.63A20.21,20.21,0,0,1,703.23,593.79Z"/><polygon class="cls-7" points="600.23 1307.7 631.11 1307.7 631.11 1121.31 600.23 1121.31 583.29 1150.97 580.29 1280 600.23 1307.7"/><rect class="cls-8" x="569.38" y="1121.31" width="30.86" height="186.39"/><path class="cls-9" d="M553.75,440.92v50.43a10.15,10.15,0,0,1-8.19,10c-10.8,2.17-48.47,9.73-52.39,20A32,32,0,0,0,497.56,552c17.29,22.9,73.07,36.36,101.76,36.36l22-77.05h0l-22-70.4Z"/><path class="cls-10" d="M701.12,552a32,32,0,0,0,4.39-30.67c-3.92-10.29-41.59-17.85-52.39-20A10.14,10.14,0,0,1,645,491.4V440.92h-45.6V588.37C628.06,588.37,683.83,574.91,701.12,552Z"/><path class="cls-11" d="M497.77,1461.6a270.49,270.49,0,0,0-5.44-60.6s-21.68-131.64-27.59-175.71c-11.79-87.85-22.42-140.58-7.83-209.46L468,963.31H618.67v133.08l-19.23,36.14c-13.12,0-15.29,11.62-15.29,26l-8.48,210.7a78.37,78.37,0,0,0,1.36,14.43,175.63,175.63,0,0,1,1.28,58.27,173.67,173.67,0,0,0-1.53,36l2.9,47.74a631.23,631.23,0,0,1-1.37,95.07L567,1746.88H520.48l-20.72-125.12a325.84,325.84,0,0,1-4.27-60.51Z"/><path class="cls-12" d="M701,1461.6a271.68,271.68,0,0,1,5.45-60.6s19.67-132,27.6-175.71c12.54-69.3,11.71-147,16.28-209.46l-19.59-52.52H599.34v169.22c13.12,0,15.28,11.62,15.28,26l8.48,210.7a76.68,76.68,0,0,1-1.37,14.43,175.37,175.37,0,0,0-1.26,58.27,175.06,175.06,0,0,1,1.52,36l-2.9,47.74a633.87,633.87,0,0,0,1.38,95.07l11.35,126.16h46.47L699,1621.76a325.84,325.84,0,0,0,4.27-60.51Z"/><path class="cls-13" d="M599.42,512.76,553,499.45,489.58,516v577.6L580,1109.78a2.47,2.47,0,0,0,2.89-2.09L599.59,998.2l19.16-2.31,9.11-356.76Z"/><path class="cls-5" d="M645.92,499.45l-46.39,13.31V998.17l16.58,109.57a2.45,2.45,0,0,0,2.85,2.07l96.56-16.17v-576Z"/><path class="cls-5" d="M527.35,717.88S550.87,728,569,730.67s7.54,17.66-32,27S527.35,717.88,527.35,717.88Z"/><path class="cls-14" d="M673.76,717.88S650.23,728,632.11,730.67s-7.56,17.66,32,27S673.76,717.88,673.76,717.88Z"/><path class="cls-14" d="M673,681.55s.58-6-10.29-14.61,9.32-11.6,21.91-8.09S673,681.55,673,681.55Z"/><path class="cls-5" d="M526.08,681.55s-.57-6,10.29-14.61-9.31-11.6-21.9-8.09S526.08,681.55,526.08,681.55Z"/><path class="cls-1" d="M565.65,540.89l-4.86,12.84a71.59,71.59,0,0,0,12.69,7.07l3.21-16A80.83,80.83,0,0,1,565.65,540.89Z"/><path class="cls-1" d="M575.48,561.54a66.82,66.82,0,0,0,14.89,3.9l.51-18.21a86.47,86.47,0,0,1-12.13-2Z"/><path class="cls-1" d="M553.92,534.33l-5.19,9A73.12,73.12,0,0,0,559,552.46l4.74-12.54A72.34,72.34,0,0,1,553.92,534.33Z"/><path class="cls-1" d="M544.73,526.89l-4.37,5.56a72.3,72.3,0,0,0,6.88,9.21l4.94-8.57A65.14,65.14,0,0,1,544.73,526.89Z"/><path class="cls-1" d="M607,565.69l-.51-18.36c-2.32.18-4.59.46-7,.46v18.35A65.82,65.82,0,0,0,607,565.69Z"/><path class="cls-1" d="M593,547.37l-.51,18.4a67.05,67.05,0,0,0,7,.37h0V547.79h0C597.27,547.8,595.16,547.53,593,547.37Z"/><path class="cls-1" d="M531.5,507.91a46.54,46.54,0,0,0,1.15,6.51l1.47-1.28A49.09,49.09,0,0,1,531.5,507.91Z"/><path class="cls-1" d="M535.11,515.1l-1.88,1.61a61.65,61.65,0,0,0,6,13.78l4-5.07A57.79,57.79,0,0,1,535.11,515.1Z"/><path class="cls-1" d="M656.06,525.17l3.92,5a61.67,61.67,0,0,0,5.92-13.73l-1.74-1.51A57,57,0,0,1,656.06,525.17Z"/><path class="cls-1" d="M647.16,532.88l4.88,8.47a71.46,71.46,0,0,0,6.82-9.2l-4.3-5.47A65.63,65.63,0,0,1,647.16,532.88Z"/><path class="cls-1" d="M668.31,522.8v-.87c-.15.4-.31.78-.46,1.18A2.06,2.06,0,0,1,668.31,522.8Z"/><path class="cls-1" d="M666.43,514.09a52.19,52.19,0,0,0,1-6.1,54.55,54.55,0,0,1-2.35,5Z"/><path class="cls-1" d="M622.76,544.68,626,560.6a71.41,71.41,0,0,0,12.63-7.13l-4.83-12.74A83.73,83.73,0,0,1,622.76,544.68Z"/><path class="cls-15" d="M599.49,566.14a67.05,67.05,0,0,1-7-.37l.51-18.4c2.16.16,4.27.43,6.49.43h0L608,546l-8.47-1.27h0c-31.47,0-57.85-16.88-66.11-39.74-.64.71-1.32,1.38-2,2a32,32,0,0,1-3.79,2.91,56.74,56.74,0,0,0,2.32,9.75v3.12a1.82,1.82,0,0,0,0,3.53v6a3.39,3.39,0,0,0-2.81,3.31,3.44,3.44,0,0,0,6.88,0,3.38,3.38,0,0,0-2.8-3.31v-6a2.41,2.41,0,0,0,1-.68,69.62,69.62,0,0,0,4.62,8.72v3a1.81,1.81,0,0,0,0,3.52v6a3.41,3.41,0,0,0-2.81,3.31,3.44,3.44,0,1,0,6.88,0,3.39,3.39,0,0,0-2.79-3.31v-6a1.81,1.81,0,0,0,0-3.52v-.92a77.53,77.53,0,0,0,8.06,10.19v3.14a1.82,1.82,0,0,0,0,3.53v6a3.4,3.4,0,0,0-2.82,3.31,3.45,3.45,0,0,0,6.89,0,3.4,3.4,0,0,0-2.8-3.31v-6a1.82,1.82,0,0,0,0-3.53v-1.86a78.5,78.5,0,0,0,11,9.32v5.1a1.82,1.82,0,0,0,0,3.53v6a3.44,3.44,0,1,0,1.28,0v-6a1.82,1.82,0,0,0,0-3.53V558.1a73.46,73.46,0,0,0,13.88,7.39v4.12a1.92,1.92,0,0,0-1.39,1.76,1.94,1.94,0,0,0,1.39,1.77v6a3.4,3.4,0,0,0-2.81,3.31,3.45,3.45,0,0,0,6.89,0,3.4,3.4,0,0,0-2.8-3.31v-6a2,2,0,0,0,1.38-1.77,1.92,1.92,0,0,0-1.38-1.76V566a70.78,70.78,0,0,0,15.94,4v3.59a1.91,1.91,0,0,0-1.4,1.75,1.94,1.94,0,0,0,1.4,1.78v6a3.39,3.39,0,0,0-2.81,3.31,3.44,3.44,0,1,0,6.88,0A3.39,3.39,0,0,0,592,583.1v-6a1.94,1.94,0,0,0,1.4-1.78,1.91,1.91,0,0,0-1.4-1.75v-3.39a70.54,70.54,0,0,0,7.47.43h0l8.47-3.14-8.47-1.29Zm-68-58.23a49.09,49.09,0,0,0,2.62,5.23l-1.47,1.28A46.54,46.54,0,0,1,531.5,507.91Zm1.73,8.8,1.88-1.61a57.79,57.79,0,0,0,8.09,10.32l-4,5.07A61.65,61.65,0,0,1,533.23,516.71Zm14,24.95a72.3,72.3,0,0,1-6.88-9.21l4.37-5.56a65.14,65.14,0,0,0,7.45,6.2ZM559,552.46a73.12,73.12,0,0,1-10.28-9.14l5.19-9a72.34,72.34,0,0,0,9.83,5.59Zm14.47,8.34a71.59,71.59,0,0,1-12.69-7.07l4.86-12.84a80.83,80.83,0,0,0,11,3.89Zm16.89,4.64a66.82,66.82,0,0,1-14.89-3.9l3.27-16.33a86.47,86.47,0,0,0,12.13,2Z"/><path class="cls-16" d="M669.58,532.37v-6a1.82,1.82,0,0,0,0-3.53V518a53.76,53.76,0,0,0,1.92-8.91,32.28,32.28,0,0,1-3.76-3.54,22.93,22.93,0,0,1-1.63-1.64c-7.82,23.4-34.63,40.75-66.58,40.76v3.09c2.36,0,4.63-.28,7-.46l.51,18.36a65.82,65.82,0,0,1-7.46.45v4.43a68.7,68.7,0,0,0,7.91-.49v3.46a1.91,1.91,0,0,0-1.39,1.75,1.94,1.94,0,0,0,1.39,1.78v6a3.4,3.4,0,0,0-2.81,3.31,3.45,3.45,0,1,0,6.89,0,3.39,3.39,0,0,0-2.8-3.31v-6a1.93,1.93,0,0,0,1.38-1.78,1.9,1.9,0,0,0-1.38-1.75v-3.66a71,71,0,0,0,15.93-4.1v3.83a1.92,1.92,0,0,0-1.39,1.76,1.94,1.94,0,0,0,1.39,1.77v6a3.39,3.39,0,0,0-2.8,3.31,3.44,3.44,0,1,0,6.88,0,3.39,3.39,0,0,0-2.81-3.31v-6a2,2,0,0,0,1.4-1.77,1.93,1.93,0,0,0-1.4-1.76v-4.3a73.54,73.54,0,0,0,13.89-7.54v4.56a1.82,1.82,0,0,0,0,3.53v6a3.4,3.4,0,0,0,.63,6.75,3.44,3.44,0,0,0,3.45-3.44,3.4,3.4,0,0,0-2.8-3.31v-6a1.82,1.82,0,0,0,0-3.53v-5.12c0-.1-.15-.1-.2-.19a79.09,79.09,0,0,0,11.21-9.61v2.36a1.82,1.82,0,0,0,0,3.53v6a3.4,3.4,0,0,0-2.82,3.31,3.44,3.44,0,1,0,6.88,0,3.39,3.39,0,0,0-2.79-3.31v-6a1.82,1.82,0,0,0,0-3.53V546.1a77.24,77.24,0,0,0,8.06-10.42v1.68a1.81,1.81,0,0,0,0,3.52v6a3.4,3.4,0,0,0-2.82,3.31,3.44,3.44,0,1,0,6.88,0,3.39,3.39,0,0,0-2.79-3.31v-6a1.81,1.81,0,0,0,0-3.52v-3.78a70.4,70.4,0,0,0,4.39-8.54,2,2,0,0,0,1.22,1.29v6a3.4,3.4,0,0,0-2.82,3.31,3.45,3.45,0,0,0,6.89,0A3.39,3.39,0,0,0,669.58,532.37Zm-60.49,33-.51-18.16a84.81,84.81,0,0,0,12.11-2.1L624,561.37A66.55,66.55,0,0,1,609.09,565.35ZM626,560.6l-3.2-15.92a83.73,83.73,0,0,0,11-3.95l4.83,12.74A71.41,71.41,0,0,1,626,560.6Zm14.39-8.42-4.7-12.45a72.12,72.12,0,0,0,9.79-5.61l5.11,8.89A74,74,0,0,1,640.35,552.18ZM652,541.35l-4.88-8.47a65.63,65.63,0,0,0,7.4-6.2l4.3,5.47A71.46,71.46,0,0,1,652,541.35Zm7.94-11.2-3.92-5a57,57,0,0,0,8.1-10.26l1.74,1.51A61.67,61.67,0,0,1,660,530.15Zm6.45-16.06-1.31-1.15a54.55,54.55,0,0,0,2.35-5A52.19,52.19,0,0,1,666.43,514.09Zm1.88,8.71a2.06,2.06,0,0,0-.46.31c.15-.4.31-.78.46-1.18Z"/><path class="cls-1" d="M608.58,547.19l.51,18.16a66.55,66.55,0,0,0,14.86-4l-3.26-16.28A84.81,84.81,0,0,1,608.58,547.19Z"/><path class="cls-1" d="M635.65,539.73l4.7,12.45a74,74,0,0,0,10.2-9.17l-5.11-8.89A72.12,72.12,0,0,1,635.65,539.73Z"/><path class="cls-5" d="M553.75,499.45a37.86,37.86,0,0,0-10.5,2.5,85.48,85.48,0,0,0-9.65,5.17,1.1,1.1,0,0,0-.56.82,1.16,1.16,0,0,0,.29,1l38,41.54a1.16,1.16,0,0,0,1.81-.11l26.41-37.57Z"/><path class="cls-14" d="M665.3,507.12a87.24,87.24,0,0,0-9.65-5.17,37.94,37.94,0,0,0-10.5-2.5l-45.79,13.31,26.41,37.57a1.14,1.14,0,0,0,.88.49,1.18,1.18,0,0,0,.94-.38l38-41.54a1.17,1.17,0,0,0,.3-1A1.18,1.18,0,0,0,665.3,507.12Z"/><path class="cls-17" d="M471.13,573.44H452L458.79,741a1715.22,1715.22,0,0,1-11,274.79l-36.57,303.09a5.07,5.07,0,0,0,1.26,4,5.13,5.13,0,0,0,3.84,1.72H535.52a5.13,5.13,0,0,0,5.12-5.13V749.59Z"/><path class="cls-8" d="M429.62,511.45a2.41,2.41,0,0,0,.92,4.21c9.7,2.45,23.92,8,33.79,12.05a9.37,9.37,0,0,1,3.84,14.39c-10.71,13.85-29.72,38.45-34.61,44.76a2.09,2.09,0,0,0,.22,2.81c9,8.59,59.68,57.86,81.93,101.67,23.84,46.95,24.93,77.54,24.93,77.54V743.77c0-26.46-19.46-120.87-32.1-179.43A53.32,53.32,0,0,1,545.22,502l8.53-2.57V449S508,448.31,429.62,511.45Z"/><path class="cls-8" d="M497.44,1023.67H455.89a12.13,12.13,0,0,0-9,4c-14.13,15.57-16.75,34.17-17.22,40.83A2.33,2.33,0,0,0,432,1071h65.43a2.33,2.33,0,0,0,2.35-2.35V1026A2.33,2.33,0,0,0,497.44,1023.67Z"/><path class="cls-18" d="M600.07,148.25l14.59,167.59,11.09,72-25.68,79.74H593c-12.5,0-24.5-5.55-33.32-15.42l-39.33-44c-13.09-16.57-19.64-35.59-21.15-58-2.57-37.89-6.86-150-6.86-150Z"/><path class="cls-9" d="M598.69,148.25l.67,319.3h7.08c11.84,0,23.82-5.55,32.64-15.42l39.34-44c14.05-19.8,22-40.49,22-75.9,0-33.18,6-132.14,6-132.14Z"/><path class="cls-9" d="M580.28,380.22a2.89,2.89,0,0,0,2.29,4.69h19.21V372.54c-.53,0-1,.06-1.58.09C588.19,373.41,582.75,377.09,580.28,380.22Z"/><path class="cls-19" d="M572.12,422.7c6,8.47,16.16,6.87,27.62,6.92s22.23,1.44,28.38-6.91c.72-1-13.6-7.17-28-7.27S571.47,421.8,572.12,422.7Z"/><path class="cls-20" d="M610.13,407.21c-2.92-.62-6-.16-7.85,2.1a2.75,2.75,0,0,1-2.16,1,2.82,2.82,0,0,1-2.18-1c-1.85-2.24-4.9-2.71-7.84-2.1-6.34,1.76-18.28,14.89-18.28,14.89s18.34-6.4,27.44-6.29c9.67.11,28.67,6.29,28.67,6.29S616.46,409,610.13,407.21Z"/><path class="cls-13" d="M512.29,303.86s9.92,33.6,56.19,10.54C568.48,314.4,549.23,286.24,512.29,303.86Z"/><path class="cls-21" d="M511.06,304.72a.12.12,0,0,0,0,.15.1.1,0,0,0,.15,0c5.71-2.77,29.93-12.29,57.75,9.83a.07.07,0,0,0,.12,0,.1.1,0,0,0,0-.14C566.11,310.11,544.79,280.49,511.06,304.72Z"/><path class="cls-21" d="M527.24,310.08a12.34,12.34,0,1,0,11.23-13.39A12.36,12.36,0,0,0,527.24,310.08Z"/><path class="cls-13" d="M532.46,307a3.7,3.7,0,1,0,3.36-4A3.69,3.69,0,0,0,532.46,307Z"/><path class="cls-13" d="M683,303.86s-9.91,33.59-56.19,10.53C626.84,314.39,646.08,286.24,683,303.86Z"/><path class="cls-21" d="M684.25,304.72c-33.74-24.24-55,5.38-58,9.87a.1.1,0,0,0,0,.13.11.11,0,0,0,.14,0c27.81-22.13,52-12.61,57.74-9.83a.11.11,0,0,0,.14,0A.11.11,0,0,0,684.25,304.72Z"/><path class="cls-21" d="M643.48,307.92a12.35,12.35,0,1,0,13.38-11.23A12.34,12.34,0,0,0,643.48,307.92Z"/><path class="cls-13" d="M649.15,305.77a3.7,3.7,0,1,0,4-3.39A3.7,3.7,0,0,0,649.15,305.77Z"/><path class="cls-22" d="M566.73,267.05c-4.35-2.87-16.81-3.95-27.94-1.27-24.27,5.84-30.34,21.55-33.63,27.32a.37.37,0,0,0,.13.5.4.4,0,0,0,.51-.08c15.5-24.54,46.54-23.75,59.35-22.19a2.35,2.35,0,0,0,1.58-4.28Z"/><path class="cls-23" d="M629.44,267.14c4.34-2.88,16.8-4,27.93-1.35,24.3,5.77,30.4,21.47,33.72,27.23a.37.37,0,0,1-.13.49.38.38,0,0,1-.51-.07c-15.58-24.49-46.61-23.62-59.41-22a2.35,2.35,0,0,1-1.6-4.28Z"/><path class="cls-6" d="M651.24,164.83s-18.31,42-52.55,72.87c-21.39-26.53-8-80.29-8-80.29Z"/><path class="cls-6" d="M628.61,178.31s70.46,20.95,71.73,128.18c4.23,96.39,21.62,1.81,21.24-14.41s-15.65-96.16-15.65-96.16l-49.38-35Z"/><path class="cls-22" d="M475.79,224.62s.23-33.43,16.56-38.21,36,1.42,34.11,9.91-3.57,19.81-15.44,28.3S488.8,241.49,480.88,243,475.79,224.62,475.79,224.62Z"/><path class="cls-6" d="M599,98.88l-25.48,5.92,6.6,49.49a205.45,205.45,0,0,1,38.09,2.51,30.12,30.12,0,0,1,16.29,8.7c39.52,9,74.38,29.21,92.85,66.12a52.19,52.19,0,0,0,1.33-7.73C734.15,158.37,653.76,99.09,599,98.88Z"/><path class="cls-6" d="M599,154.64V98.88h-.31c-43.72,0-85.85,32.43-101.09,72C527.73,157.21,567.78,152.73,599,154.64Z"/><path class="cls-6" d="M734.17,208.34c-8.06-25.66-61.13-84.17-135.48-98.56l-25.46,10.87L576,157.37l22.65,10.55c1,0,2-.09,3.09-.09,110.44,0,132.39,118.28,132.39,118.28S748,252.34,734.17,208.34Z"/><path class="cls-6" d="M567.94,106.47c-90.21-1.4-107.06,55.44-113.15,79.13-5.74,22.22-6.82,100.32,4.9,105.5,21.19-38.2,32.49-121.57,139-123.18V109.78A174.94,174.94,0,0,0,567.94,106.47Z"/><path class="cls-6" d="M597.57,167.87C561,167.87,516.86,184,481,208.33a87.53,87.53,0,0,0-31.94,39.32c-7.61,18.48-18.57,34.53-33.42,30.57,41.92,39.34,150.52-8,183-40.52V167.83C598.33,167.83,597.93,167.87,597.57,167.87Z"/><path class="cls-6" d="M561,272.09c2.21-1.2,6.41-2.9,9.23-4.43a221.68,221.68,0,0,0,28.73-18.82l4.4-5.81-4.4,1A180,180,0,0,1,561,272.09Z"/><path class="cls-6" d="M653.29,180.8c-.07-.25-.11-.48-.18-.73a34.78,34.78,0,0,1-9.73-3.86c-8.61,25.35-24.78,48.94-44.44,67.82v4.81C622.22,230.92,642.5,207.82,653.29,180.8Z"/><path class="cls-6" d="M500.34,253.9s-4.63,88.74.32,131.18-20.51-73.57-20.51-73.57V266.67Z"/><path class="cls-23" d="M727,263.56S751.15,335.22,783,347c-19.1-6.32-44.92-23.3-60.14-67.33C720.09,269.13,727,263.56,727,263.56Z"/><path class="cls-24" d="M574,424.56c6.16,11.08,13,12.31,24.5,12.38s21.15-.82,25-12.38a46.45,46.45,0,0,1,3.34-7.48s-5.71-15.31-11.31-16.85c-2.6-.55-13.31,3.32-16.67,3.52s-14.06-4.07-16.67-3.52c-5.6,1.55-11.52,17.07-11.52,17.07A75.08,75.08,0,0,0,574,424.56Z"/><path class="cls-20" d="M615.52,398.67c-5.8-1.53-13.31,2.15-16.67,2s-10-3.49-16.67-2c-5.6,1.55-8.6,6.6-9.5,8.31s-3,6.46-1.81,11.6c0,0,4.5-10.14,10.31-12.63,6.29-2.7,13.6-.05,16.81,0,3.63.05,10.25-1.66,16.35-.75s12.27,12.92,12.27,12.92c1.47-5.56.06-8.42-1.59-11.13S621.12,400.22,615.52,398.67Z"/><path class="cls-19" d="M574.34,431.19c6,8.47,12.76,6.12,24.22,6.18s18.36,3.05,24.51-5.32c.23-.3,8.14-9.94,3.76-15,0,0-3.37,8.94-11.76,11.51-4.14,1.27-9.51-2.08-16.3-2.08-8.14,0-14.25,3-18.66,1.37-6.69-2.44-9.45-10.58-9.45-10.58C566,422.93,574.12,430.88,574.34,431.19Z"/><path class="cls-8" d="M750.86,1015.81a1718.38,1718.38,0,0,1-11-274.76l6.79-167.61H727.58L658.07,749.59v569.93a5.13,5.13,0,0,0,5.13,5.13H782.34a5.13,5.13,0,0,0,5.1-5.74Z"/><path class="cls-7" d="M768.17,515.66a2.42,2.42,0,0,0,1.76-1.82,2.38,2.38,0,0,0-.84-2.39C690.76,448.31,645,449,645,449v50.45l8.52,2.57a53.32,53.32,0,0,1,36.69,62.32c-12.64,58.56-32.1,153-32.1,179.43v25.11s1.09-30.59,24.93-77.54c22.25-43.81,72.91-93.08,81.94-101.67a2.11,2.11,0,0,0,.21-2.81L730.54,542.1a9.35,9.35,0,0,1,3.84-14.39C744.25,523.64,758.48,518.11,768.17,515.66Z"/><path class="cls-7" d="M751.83,1027.65a12.15,12.15,0,0,0-9-4H701.27a2.34,2.34,0,0,0-2.35,2.35v42.62a2.34,2.34,0,0,0,2.35,2.35h65.42a2.35,2.35,0,0,0,2.34-2.51C768.56,1061.82,766,1043.22,751.83,1027.65Z"/><path class="cls-9" d="M773.58,334.66a24.64,24.64,0,0,1-7.73-6.85L752.07,309c-12.56-16.71-10.43-33-11.19-41.11l-.1-10.6a8.54,8.54,0,0,0-.29-2.13,9,9,0,0,0-.41-1.17l-27.66-62.72a8.34,8.34,0,0,0-11-4.27c-4.21,1.87-5,6-3.13,10.24l5.77,13.81c1.67,4.38,7.88,23.06,9,33.33.59,5.46-1.21,12.51-3,17.94,0,0-17.59,46.22-5.32,67.66,3,5.16,18.76,20,25,25.79a36.46,36.46,0,0,0,4.61,3.61c2.58,1.72,7.11,4.61,13.52,8.32,3.93,2.28,60.46,44.21,60.46,44.21s24.52-33.79,29.66-41.27C835.56,369,788.82,343.27,773.58,334.66Z"/><path class="cls-5" d="M863.67,373.67l87.1,55.75a38.21,38.21,0,0,1,11.52,52.83l-.24.36a38.58,38.58,0,0,1-24.82,17c-10.24,2.08-21.89.19-30.51-5.69L776.13,403.83l39.2-61.08Z"/><path class="cls-5" d="M920.5,477.69a17.86,17.86,0,1,1,24.67-5.35A17.83,17.83,0,0,1,920.5,477.69Z"/><path class="cls-14" d="M796,418.83,857.89,364a1.4,1.4,0,0,0,.47-1.13,1.45,1.45,0,0,0-.62-1.06l-36.46-24.1a5.56,5.56,0,0,0-7.71,1.58l-41.15,62.23a5.68,5.68,0,0,0-.81,4.18,5.58,5.58,0,0,0,2.39,3.52l15.26,10.09A5.59,5.59,0,0,0,796,418.83Z"/><path class="cls-9" d="M426.36,334.66a24.66,24.66,0,0,0,7.73-6.86L447.87,309c12.55-16.7,10.42-33,11.18-41.11l.1-10.59a8.54,8.54,0,0,1,.29-2.13,9,9,0,0,1,.41-1.17l27.66-62.73a8.33,8.33,0,0,1,11-4.26c4.21,1.87,5,6,3.13,10.24l-5.77,13.81c-1.67,4.38-7.88,23.06-9,33.33-.59,5.45,1.21,12.51,3,17.93,0,0,17.59,46.23,5.31,67.67-3,5.16-18.75,20-25,25.79a37.37,37.37,0,0,1-4.6,3.62C463,361.1,458.44,364,452,367.7c-3.93,2.27-60.44,44.21-60.44,44.21s-24.51-33.79-29.65-41.27C364.4,369,411.12,343.27,426.36,334.66Z"/><path class="cls-5" d="M336.3,373.67l-87.07,55.75a38.21,38.21,0,0,0-11.52,52.83l.24.36a38.55,38.55,0,0,0,24.82,17c10.23,2.08,21.88.19,30.49-5.69l130.56-90.05-39.2-61.08Z"/><path class="cls-5" d="M279.48,477.69a17.85,17.85,0,1,0-24.66-5.35A17.83,17.83,0,0,0,279.48,477.69Z"/><path class="cls-14" d="M403.92,418.83,342.08,364a1.37,1.37,0,0,1-.47-1.13,1.39,1.39,0,0,1,.62-1.06l36.45-24.1a5.55,5.55,0,0,1,7.7,1.58l41.14,62.23a5.63,5.63,0,0,1,.8,4.18,5.57,5.57,0,0,1-2.38,3.52L410.68,419.3A5.59,5.59,0,0,1,403.92,418.83Z"/><rect class="cls-5" x="981.67" y="794.94" width="237.34" height="323.23" transform="translate(109.3 2025.94) rotate(-88.18)"/><path class="cls-4" d="M975.54,859.06a5.48,5.48,0,0,0-5.65,5.3l-5.59,175.91a5.48,5.48,0,0,0,5.3,5.65l6.59.21a5.47,5.47,0,0,0,5.65-5.3l5.6-175.91a5.48,5.48,0,0,0-5.3-5.65Z"/><path class="cls-4" d="M1003.1,859.94a5.48,5.48,0,0,0-5.65,5.3l-5.59,175.91a5.48,5.48,0,0,0,5.3,5.65l6.59.21a5.48,5.48,0,0,0,5.65-5.3L1015,865.8a5.48,5.48,0,0,0-5.3-5.65Z"/><path class="cls-4" d="M1030.66,860.81a5.49,5.49,0,0,0-5.65,5.3L1019.42,1042a5.47,5.47,0,0,0,5.3,5.65l6.59.21a5.46,5.46,0,0,0,5.65-5.3l5.6-175.91a5.49,5.49,0,0,0-5.31-5.65Z"/><path class="cls-4" d="M1072.45,862.14a5.49,5.49,0,0,0-5.65,5.3l-5.59,175.91a5.47,5.47,0,0,0,5.3,5.65l6.6.21a5.46,5.46,0,0,0,5.64-5.3l5.6-175.91a5.49,5.49,0,0,0-5.3-5.65Z"/><path class="cls-4" d="M1100,863a5.48,5.48,0,0,0-5.65,5.3l-5.59,175.91a5.48,5.48,0,0,0,5.3,5.65l6.59.21a5.47,5.47,0,0,0,5.65-5.3l5.6-175.91a5.48,5.48,0,0,0-5.3-5.65Z"/><path class="cls-4" d="M1127.57,863.9a5.47,5.47,0,0,0-5.65,5.3l-5.59,175.91a5.48,5.48,0,0,0,5.3,5.65l6.59.21a5.48,5.48,0,0,0,5.65-5.31l5.6-175.9a5.49,5.49,0,0,0-5.3-5.66Z"/><path class="cls-4" d="M1169.36,865.22a5.49,5.49,0,0,0-5.65,5.31l-2.5,78.78a5.47,5.47,0,0,0,5.3,5.64l6.59.21a5.46,5.46,0,0,0,5.65-5.3l2.51-78.78a5.48,5.48,0,0,0-5.3-5.65Z"/><path class="cls-4" d="M1196.92,866.1a5.49,5.49,0,0,0-5.65,5.3l-2.5,78.78a5.47,5.47,0,0,0,5.3,5.65l6.59.21a5.47,5.47,0,0,0,5.65-5.3l2.51-78.78a5.49,5.49,0,0,0-5.3-5.65Z"/><path class="cls-4" d="M1165.8,977.3a5.47,5.47,0,0,0-5.65,5.3l-2,63.84a5.47,5.47,0,0,0,5.3,5.64l3.3.11,8.77.28,49.64,1.58a5.48,5.48,0,0,0,5.65-5.3l2-63.83a5.49,5.49,0,0,0-5.3-5.66l-49.64-1.58-8.78-.27Z"/><rect class="cls-5" x="-28.76" y="853.97" width="237.33" height="323.22" transform="translate(-411.06 127.59) rotate(-24.37)"/><rect class="cls-5" x="930.55" y="848.81" width="237.34" height="323.22" transform="translate(-398.43 848.74) rotate(-37.55)"/><rect class="cls-5" x="436.6" y="872.77" width="237.33" height="323.23"/><rect class="cls-4" x="461.79" y="901.07" width="186.96" height="17.55" rx="5.48" ry="5.48"/><rect class="cls-4" x="461.79" y="928.64" width="186.96" height="17.55" rx="5.48" ry="5.48"/><rect class="cls-4" x="461.79" y="956.21" width="186.96" height="17.55" rx="5.48" ry="5.48"/><rect class="cls-4" x="461.79" y="998.03" width="186.96" height="17.55" rx="5.48" ry="5.48"/><rect class="cls-4" x="461.79" y="1025.6" width="186.96" height="17.56" rx="5.48" ry="5.48"/><rect class="cls-4" x="461.79" y="1053.17" width="186.96" height="17.56" rx="5.48" ry="5.48"/><rect class="cls-4" x="558.97" y="1094.99" width="89.78" height="17.55" rx="5.48" ry="5.48"/><rect class="cls-4" x="558.97" y="1122.56" width="89.78" height="17.56" rx="5.48" ry="5.48"/><rect class="cls-4" x="558.97" y="1150.13" width="89.78" height="17.55" rx="5.48" ry="5.48"/><path class="cls-4" d="M536.61,1100.47a5.48,5.48,0,0,0-5.48-5.48H467.27a5.48,5.48,0,0,0-5.48,5.48v61.74a5.48,5.48,0,0,0,5.48,5.48h63.86a5.48,5.48,0,0,0,5.48-5.48v-61.74Z"/><rect class="cls-5" x="719.66" y="858.97" width="237.33" height="323.23" transform="translate(-474.1 872.52) rotate(-44.16)"/><path class="cls-4" d="M808.58,863.65,682.32,986.26a5.48,5.48,0,0,0-.11,7.75l4.59,4.73a5.48,5.48,0,0,0,7.75.12L820.8,876.24a5.48,5.48,0,0,0,.12-7.75l-4.6-4.73A5.47,5.47,0,0,0,808.58,863.65Z"/><path class="cls-4" d="M827.78,883.43,701.53,1006a5.48,5.48,0,0,0-.11,7.75l4.59,4.73a5.49,5.49,0,0,0,7.75.12L840,896a5.48,5.48,0,0,0,.12-7.75l-4.6-4.73A5.48,5.48,0,0,0,827.78,883.43Z"/><path class="cls-4" d="M854.74,903.32a5.47,5.47,0,0,0-7.74-.11L720.74,1025.82a5.48,5.48,0,0,0-.11,7.75l4.59,4.73a5.49,5.49,0,0,0,7.75.12L859.23,915.8a5.49,5.49,0,0,0,.11-7.75Z"/><path class="cls-4" d="M883.87,933.31a5.48,5.48,0,0,0-7.75-.11L749.87,1055.82a5.48,5.48,0,0,0-.11,7.75l4.6,4.73a5.47,5.47,0,0,0,7.74.11L888.36,945.8a5.48,5.48,0,0,0,.11-7.75Z"/><path class="cls-4" d="M903.08,953.09a5.48,5.48,0,0,0-7.75-.11L769.08,1075.6a5.48,5.48,0,0,0-.11,7.75l4.59,4.73a5.48,5.48,0,0,0,7.75.11L907.57,965.57a5.47,5.47,0,0,0,.11-7.74Z"/><path class="cls-4" d="M922.29,972.87a5.48,5.48,0,0,0-7.75-.11L788.29,1095.38a5.48,5.48,0,0,0-.11,7.75l4.6,4.73a5.47,5.47,0,0,0,7.74.11L926.78,985.35a5.47,5.47,0,0,0,.11-7.74Z"/><path class="cls-4" d="M951.42,1002.87a5.47,5.47,0,0,0-7.74-.11l-56.54,54.91a5.47,5.47,0,0,0-.12,7.75l4.6,4.73a5.48,5.48,0,0,0,7.75.11l56.54-54.91a5.48,5.48,0,0,0,.11-7.75Z"/><path class="cls-4" d="M970.63,1022.65a5.48,5.48,0,0,0-7.74-.12l-56.55,54.92a5.47,5.47,0,0,0-.11,7.74l4.6,4.74a5.48,5.48,0,0,0,7.75.11l56.54-54.91a5.48,5.48,0,0,0,.11-7.75Z"/><path class="cls-4" d="M989.84,1042.43a5.47,5.47,0,0,0-7.74-.11l-56.55,54.91a5.48,5.48,0,0,0-.11,7.75l4.6,4.73a5.48,5.48,0,0,0,7.75.11l56.54-54.91a5.48,5.48,0,0,0,.11-7.75Z"/><path class="cls-4" d="M871,1081a5.48,5.48,0,0,0-7.75-.11l-45.81,44.49a5.48,5.48,0,0,0-.11,7.75l2.3,2.37,6.11,6.29,34.6,35.63a5.49,5.49,0,0,0,7.75.12l45.81-44.5a5.47,5.47,0,0,0,.12-7.75l-34.6-35.63-6.12-6.29Z"/><rect class="cls-5" x="109.77" y="912.56" width="380.03" height="279.05" transform="translate(-717.03 648.54) rotate(-52.45)"/><path class="cls-4" d="M477.34,990.88,313.28,864.76a6.44,6.44,0,0,0-9,1.19l-4.73,6.14a6.45,6.45,0,0,0,1.18,9l164.06,126.11a6.44,6.44,0,0,0,9-1.18l4.73-6.15A6.44,6.44,0,0,0,477.34,990.88Z"/><path class="cls-4" d="M457.58,1016.58,293.52,890.47a6.44,6.44,0,0,0-9,1.18l-4.73,6.15a6.45,6.45,0,0,0,1.18,9L445,1033a6.44,6.44,0,0,0,9-1.18l4.73-6.15A6.45,6.45,0,0,0,457.58,1016.58Z"/><path class="cls-4" d="M439,1051.32a6.45,6.45,0,0,0-1.18-9l-164-126.11a6.45,6.45,0,0,0-9,1.18L260,923.5a6.44,6.44,0,0,0,1.18,9l164.05,126.12a6.44,6.44,0,0,0,9-1.18Z"/><path class="cls-4" d="M409,1090.29a6.44,6.44,0,0,0-1.18-9L243.8,955.14a6.44,6.44,0,0,0-9,1.18L230,962.47a6.46,6.46,0,0,0,1.18,9l164.06,126.11a6.44,6.44,0,0,0,9-1.18Z"/><path class="cls-4" d="M389.28,1116a6.44,6.44,0,0,0-1.18-9L224,980.85a6.44,6.44,0,0,0-9,1.18l-4.72,6.15a6.43,6.43,0,0,0,1.18,9l164,126.12a6.45,6.45,0,0,0,9-1.19Z"/><path class="cls-4" d="M369.52,1141.7a6.45,6.45,0,0,0-1.18-9l-164-126.11a6.45,6.45,0,0,0-9,1.18l-4.72,6.15a6.43,6.43,0,0,0,1.18,9l164,126.12a6.44,6.44,0,0,0,9-1.18Z"/><path class="cls-4" d="M339.56,1180.67a6.44,6.44,0,0,0-1.18-9l-73.47-56.48a6.44,6.44,0,0,0-9,1.18l-4.73,6.15a6.44,6.44,0,0,0,1.18,9L325.8,1188a6.44,6.44,0,0,0,9-1.18Z"/><path class="cls-4" d="M318.62,1197.34l-73.47-56.48a6.44,6.44,0,0,0-9,1.18l-4.73,6.15a6.45,6.45,0,0,0,1.18,9L306,1213.71a6.46,6.46,0,0,0,9-1.19l4.72-6.15A6.44,6.44,0,0,0,318.62,1197.34Z"/><path class="cls-4" d="M298.86,1223l-73.47-56.48a6.44,6.44,0,0,0-9,1.19l-4.73,6.14a6.45,6.45,0,0,0,1.18,9l73.48,56.48a6.44,6.44,0,0,0,9-1.18l4.72-6.15A6.45,6.45,0,0,0,298.86,1223Z"/><path class="cls-4" d="M235,1100.32a6.44,6.44,0,0,0-1.18-9l-59.53-45.77a6.45,6.45,0,0,0-9,1.18l-2.36,3.08-6.29,8.18-35.59,46.3a6.44,6.44,0,0,0,1.18,9l59.53,45.76a6.44,6.44,0,0,0,9-1.18l35.59-46.29,6.29-8.19Z"/><rect class="cls-13" x="530.36" y="1052.69" width="323.22" height="237.34" transform="translate(-651.81 1383.86) rotate(-68.41)"/><rect class="cls-13" x="308.54" y="1104.19" width="237.34" height="323.22"/><rect class="cls-4" x="333.73" y="1132.5" width="186.96" height="17.56" rx="5.48" ry="5.48"/><rect class="cls-4" x="333.73" y="1160.07" width="186.96" height="17.55" rx="5.48" ry="5.48"/><rect class="cls-4" x="333.73" y="1187.64" width="186.96" height="17.55" rx="5.48" ry="5.48"/><rect class="cls-13" x="761.85" y="1074.77" width="237.34" height="323.22" transform="translate(-619.88 1466.04) rotate(-63.24)"/><path class="cls-4" d="M801.09,1097.79l-79.23,157.15a5.49,5.49,0,0,0,2.43,7.36l5.89,3a5.48,5.48,0,0,0,7.36-2.43l79.23-157.15a5.49,5.49,0,0,0-2.43-7.36l-5.89-3A5.48,5.48,0,0,0,801.09,1097.79Z"/><path class="cls-4" d="M825.71,1110.2l-79.23,157.16a5.47,5.47,0,0,0,2.43,7.35l5.89,3a5.47,5.47,0,0,0,7.36-2.42l79.23-157.16a5.47,5.47,0,0,0-2.43-7.35l-5.89-3A5.48,5.48,0,0,0,825.71,1110.2Z"/><path class="cls-4" d="M857.69,1120.19a5.47,5.47,0,0,0-7.35,2.42l-79.23,157.16a5.48,5.48,0,0,0,2.42,7.36l5.89,3a5.49,5.49,0,0,0,7.36-2.43L866,1130.52a5.47,5.47,0,0,0-2.43-7.36Z"/><path class="cls-4" d="M895,1139a5.48,5.48,0,0,0-7.36,2.43l-79.23,157.15a5.48,5.48,0,0,0,2.43,7.36l5.89,3a5.48,5.48,0,0,0,7.36-2.43l79.23-157.15a5.49,5.49,0,0,0-2.43-7.36Z"/><path class="cls-4" d="M919.65,1151.42a5.49,5.49,0,0,0-7.36,2.43L833.06,1311a5.48,5.48,0,0,0,2.43,7.36l5.89,3a5.48,5.48,0,0,0,7.36-2.42L928,1161.75a5.49,5.49,0,0,0-2.43-7.36Z"/><path class="cls-4" d="M944.27,1163.84a5.48,5.48,0,0,0-7.36,2.42l-79.23,157.16a5.49,5.49,0,0,0,2.43,7.36l5.89,3a5.47,5.47,0,0,0,7.36-2.42l79.23-157.16a5.47,5.47,0,0,0-2.43-7.35Z"/><path class="cls-4" d="M981.61,1182.66a5.48,5.48,0,0,0-7.36,2.43l-35.48,70.37a5.47,5.47,0,0,0,2.42,7.36l5.89,3a5.48,5.48,0,0,0,7.36-2.42L989.92,1193a5.47,5.47,0,0,0-2.42-7.36Z"/><path class="cls-4" d="M998.87,1197.5l-35.48,70.38a5.48,5.48,0,0,0,2.42,7.36l5.89,3a5.48,5.48,0,0,0,7.36-2.43l35.49-70.38a5.49,5.49,0,0,0-2.43-7.36l-5.89-3A5.49,5.49,0,0,0,998.87,1197.5Z"/><rect class="cls-13" x="-83.89" y="1054.13" width="323.22" height="237.34" transform="translate(-905.43 528.67) rotate(-52.98)"/><path class="cls-4" d="M228.25,1119.35l-140.52-106a5.47,5.47,0,0,0-7.67,1.08l-4,5.26a5.49,5.49,0,0,0,1.07,7.68l140.52,106a5.47,5.47,0,0,0,7.67-1.08l4-5.26A5.49,5.49,0,0,0,228.25,1119.35Z"/><path class="cls-4" d="M211.65,1141.37l-140.52-106a5.48,5.48,0,0,0-7.67,1.08l-4,5.27a5.46,5.46,0,0,0,1.07,7.67l140.52,106a5.47,5.47,0,0,0,7.67-1.07l4-5.27A5.48,5.48,0,0,0,211.65,1141.37Z"/><path class="cls-4" d="M196.12,1171.06a5.48,5.48,0,0,0-1.08-7.68l-140.51-106a5.48,5.48,0,0,0-7.67,1.07l-4,5.27a5.47,5.47,0,0,0,1.08,7.67l140.51,106a5.49,5.49,0,0,0,7.68-1.08Z"/><path class="cls-4" d="M170.94,1204.44a5.47,5.47,0,0,0-1.07-7.67l-140.52-106a5.47,5.47,0,0,0-7.67,1.08l-4,5.26a5.48,5.48,0,0,0,1.07,7.68l140.52,106a5.48,5.48,0,0,0,7.67-1.07Z"/><path class="cls-4" d="M154.34,1226.45a5.47,5.47,0,0,0-1.08-7.67l-140.51-106a5.48,5.48,0,0,0-7.67,1.08l-4,5.27a5.47,5.47,0,0,0,1.08,7.67l140.51,106a5.49,5.49,0,0,0,7.68-1.08Z"/><path class="cls-4" d="M137.74,1248.47a5.48,5.48,0,0,0-1.08-7.68l-140.51-106a5.49,5.49,0,0,0-7.68,1.07l-4,5.27a5.47,5.47,0,0,0,1.08,7.67l140.51,106a5.49,5.49,0,0,0,7.68-1.08Z"/><path class="cls-4" d="M23,1214.33a5.47,5.47,0,0,0-1.07-7.67l-51-38.46a5.47,5.47,0,0,0-7.67,1.08l-2,2.63-5.28,7-29.91,39.65a5.49,5.49,0,0,0,1.07,7.68l51,38.45a5.49,5.49,0,0,0,7.68-1.08L15.76,1224l5.29-7Z"/><rect class="cls-13" x="981.85" y="997.15" width="237.34" height="323.22" transform="translate(-418.6 662.62) rotate(-28.39)"/><path class="cls-4" d="M1066,1291.41a5.47,5.47,0,0,0,7.42,2.21l154.84-83.68a5.47,5.47,0,0,0,2.21-7.42l-3.14-5.8a5.47,5.47,0,0,0-7.42-2.22L1065,1278.18a5.49,5.49,0,0,0-2.22,7.43Z"/><path class="cls-4" d="M1052.84,1267.15a5.48,5.48,0,0,0,7.42,2.22l154.83-83.68a5.48,5.48,0,0,0,2.22-7.43l-3.14-5.8a5.48,5.48,0,0,0-7.42-2.22l-154.83,83.69a5.47,5.47,0,0,0-2.22,7.42Z"/><path class="cls-4" d="M1033,1230.37a5.49,5.49,0,0,0,7.42,2.22l154.83-83.69a5.47,5.47,0,0,0,2.22-7.42l-3.14-5.81a5.47,5.47,0,0,0-7.42-2.21L1032,1217.14a5.47,5.47,0,0,0-2.22,7.42Z"/><path class="cls-4" d="M1019.85,1206.11a5.48,5.48,0,0,0,7.42,2.22l154.83-83.68a5.48,5.48,0,0,0,2.22-7.43l-3.14-5.8a5.48,5.48,0,0,0-7.42-2.22l-154.83,83.68a5.48,5.48,0,0,0-2.22,7.43Z"/><path class="cls-4" d="M1006.74,1181.86a5.47,5.47,0,0,0,7.42,2.21L1169,1100.39a5.47,5.47,0,0,0,2.22-7.42l-3.14-5.81a5.47,5.47,0,0,0-7.42-2.21l-154.83,83.68a5.48,5.48,0,0,0-2.22,7.42Z"/><path class="cls-4" d="M986.86,1145.07a5.48,5.48,0,0,0,7.42,2.22l69.34-37.48a5.48,5.48,0,0,0,2.22-7.42l-3.14-5.81a5.47,5.47,0,0,0-7.42-2.21l-69.34,37.47a5.49,5.49,0,0,0-2.22,7.43Z"/><path class="cls-4" d="M981.17,1123l69.34-37.48a5.47,5.47,0,0,0,2.22-7.42l-3.14-5.8a5.48,5.48,0,0,0-7.42-2.22l-69.34,37.48a5.47,5.47,0,0,0-2.22,7.42l3.14,5.8A5.47,5.47,0,0,0,981.17,1123Z"/><path class="cls-4" d="M960.64,1096.56a5.47,5.47,0,0,0,7.42,2.21l69.34-37.47a5.5,5.5,0,0,0,2.22-7.43l-3.14-5.8a5.49,5.49,0,0,0-7.42-2.22l-69.34,37.48a5.48,5.48,0,0,0-2.22,7.42Z"/><path class="cls-4" d="M1085.51,1091.76a5.47,5.47,0,0,0,7.42,2.21l56.18-30.36a5.48,5.48,0,0,0,2.22-7.43l-1.57-2.9-4.17-7.72-23.62-43.7a5.47,5.47,0,0,0-7.42-2.21L1058.36,1030a5.48,5.48,0,0,0-2.21,7.43l23.62,43.69,4.17,7.72Z"/><rect class="cls-13" x="269.34" y="1049.02" width="323.22" height="237.34" transform="translate(-84.87 34.93) rotate(-4.23)"/><path class="cls-4" d="M291.52,1089.75l13,175.52a5.48,5.48,0,0,0,5.87,5.06l6.58-.49A5.47,5.47,0,0,0,322,1264l-13-175.52a5.47,5.47,0,0,0-5.87-5.06l-6.57.48A5.49,5.49,0,0,0,291.52,1089.75Z"/><path class="cls-4" d="M319,1087.72l13,175.52a5.48,5.48,0,0,0,5.87,5.06l6.58-.49a5.48,5.48,0,0,0,5.06-5.87l-13-175.51a5.47,5.47,0,0,0-5.87-5.06l-6.58.48A5.48,5.48,0,0,0,319,1087.72Z"/><path class="cls-4" d="M351.58,1079.82a5.48,5.48,0,0,0-5.06,5.87l13,175.52a5.48,5.48,0,0,0,5.87,5.06l6.58-.49a5.48,5.48,0,0,0,5.06-5.87l-13-175.52a5.49,5.49,0,0,0-5.87-5.06Z"/><path class="cls-4" d="M393.28,1076.74a5.48,5.48,0,0,0-5.06,5.87l13,175.51a5.49,5.49,0,0,0,5.87,5.07l6.57-.49a5.49,5.49,0,0,0,5.07-5.87l-13-175.52a5.48,5.48,0,0,0-5.87-5.06Z"/><path class="cls-4" d="M420.78,1074.71a5.47,5.47,0,0,0-5.06,5.86l13,175.52a5.47,5.47,0,0,0,5.86,5.06l6.58-.48a5.48,5.48,0,0,0,5.06-5.87l-13-175.52a5.47,5.47,0,0,0-5.86-5.06Z"/><path class="cls-4" d="M448.27,1072.68a5.46,5.46,0,0,0-5,5.86l13,175.52a5.48,5.48,0,0,0,5.87,5.06l6.58-.49a5.47,5.47,0,0,0,5.06-5.86l-13-175.52a5.48,5.48,0,0,0-5.87-5.06Z"/><path class="cls-4" d="M490,1069.59a5.49,5.49,0,0,0-5.06,5.87l5.81,78.6a5.47,5.47,0,0,0,5.87,5.06l6.58-.48a5.48,5.48,0,0,0,5.06-5.87l-5.81-78.6a5.47,5.47,0,0,0-5.87-5.06Z"/><path class="cls-4" d="M512.41,1073.43l5.81,78.6a5.47,5.47,0,0,0,5.87,5.06l6.58-.48a5.49,5.49,0,0,0,5.06-5.87l-5.81-78.6a5.47,5.47,0,0,0-5.87-5.06l-6.58.48A5.48,5.48,0,0,0,512.41,1073.43Z"/><path class="cls-4" d="M539.91,1071.4l5.81,78.6a5.48,5.48,0,0,0,5.87,5.06l6.57-.49a5.47,5.47,0,0,0,5.06-5.86l-5.8-78.61a5.49,5.49,0,0,0-5.87-5.06l-6.58.49A5.48,5.48,0,0,0,539.91,1071.4Z"/><path class="cls-4" d="M498.24,1181.42a5.48,5.48,0,0,0-5.06,5.87l4.7,63.69a5.48,5.48,0,0,0,5.87,5.06l3.29-.24,8.75-.65,49.54-3.66a5.47,5.47,0,0,0,5-5.87l-4.7-63.69a5.48,5.48,0,0,0-5.87-5.06l-49.53,3.66-8.75.65Z"/></g><path class="cls-25" d="M1110.84,205.21c-21.83-19.72-43.66-39.79-65.48-59.5-32,48.58-86.26,91.89-137.66,123.22-1.41,6.69-2.82,13-4.58,19.36,22.53,20.42,45.07,41.19,67.6,61.61,53.16-29.22,109.49-70.76,143.64-117.94-1.06-8.8-2.46-17.6-3.52-26.75"/><path class="cls-26" d="M974.94,323.85c-22.18-20.42-44.36-40.84-66.54-60.91,55.28-31.33,101.75-73.93,135.9-124.27,22.18,20.41,44.36,40.48,66.54,60.9-34.15,50.35-80.62,92.95-135.9,124.28"/><path class="cls-25" d="M969.31,310.47C954.52,297.09,939.74,283.36,925,270c1.06-.7,1.76-1.05,2.82-1.76,2.81-1.76,3.52-4.92,1.05-7.39l-2.11-2.11c44.71-27.46,83.44-62.67,113.72-103.51l2.11,2.11a5.66,5.66,0,0,0,8.1-.7c.7-.7,1-1.76,1.76-2.46,14.78,13.37,29.57,27.1,44.36,40.48-.71.71-1.06,1.76-1.76,2.47a7,7,0,0,0,.7,9.15l2.11,2.11A409.6,409.6,0,0,1,984.1,311.53L982,309.42a9,9,0,0,0-9.85-.71c-1.06.71-1.76,1.06-2.82,1.76m-34.85-40.13c12,10.91,23.94,21.83,36.26,33.09a19.4,19.4,0,0,1,14.08,1.06c40.84-26.06,76.4-58.45,104.92-96.12a14.2,14.2,0,0,1-1.06-13c-12-10.92-23.94-21.83-36.26-33.1a10.06,10.06,0,0,1-11.62,1.06c-28.52,38-64.08,70.41-104.92,96.47a8.1,8.1,0,0,1-1.4,10.56"/><path class="cls-25" d="M966.49,262.94c3.88-1.4,8.1-1.05,10.92,1.41-1.76,1.41-3.88,2.82-5.64,4.23a2.61,2.61,0,0,0-3.16,0c-1.06.7-1.41,1.76-.36,2.46a3.16,3.16,0,0,0,3.52,0c4.23-2.82,10.21-3.17,13.38,0a6.15,6.15,0,0,1,.35,8.8c.71.71,1.41,1.06,2.12,1.76-1.76,1.06-3.52,2.47-5.28,3.52a9.69,9.69,0,0,0-2.12-1.76c-3.87,1.06-8.09.71-10.56-1.76,2.11-1.41,3.87-2.46,6-3.87a3.2,3.2,0,0,0,3.52,0,1.51,1.51,0,0,0,.35-2.46,2.61,2.61,0,0,0-3.17,0,12.24,12.24,0,0,1-8.45,2.11,12,12,0,0,1-5.28-2.11c-2.46-2.47-2.46-5.64-.35-8.45-.71-.36-1.06-1.06-1.76-1.76,1.76-1.06,3.52-2.47,5.28-3.52-.35.35.35.7.7,1.4"/><path class="cls-25" d="M1048.17,187.6c3.17-2.11,7-2.11,9.51.35l-4.23,5.29a1.85,1.85,0,0,0-2.81.35,2.61,2.61,0,0,0,0,3.17,1.86,1.86,0,0,0,2.81-.36c3.17-3.87,8.45-4.57,11.62-1.76a9.1,9.1,0,0,1,1.76,9.86c.71.71,1.41,1.06,2.11,1.76-1.4,1.76-2.46,3.17-3.87,4.93a9.38,9.38,0,0,0-2.11-1.76c-3.17,1.76-6.69,1.76-9.15-.7,1.4-1.76,3.16-3.52,4.57-5.29a1.86,1.86,0,0,0,2.82-.35,2.64,2.64,0,0,0,0-3.17,1.87,1.87,0,0,0-2.82.36,9.77,9.77,0,0,1-7,3.52,7.58,7.58,0,0,1-6.69-11.27c-.7-.35-1.05-1.06-1.76-1.76a26.32,26.32,0,0,0,3.87-4.93c0,.71.71,1.06,1.41,1.76"/><path class="cls-25" d="M1037.61,256.61c-11.27,10.21-30.28,9.85-41.19,0-10.92-10.21-10.21-26.06,1.06-36.27s28.86-11.26,39.78-1.05a24.83,24.83,0,0,1,.35,37.32"/><path class="cls-27" d="M972.83,217.88l66.54,60.91a294.53,294.53,0,0,0,21.83-20.07L995,197.81q-10.56,10-22.18,20.07"/><path class="cls-28" d="M1039.72,305.54c7.4-5.63,14.79-11.61,21.83-17.6V258.37c-7,7-14.43,13.73-21.83,20.06v27.11"/><path id="_0" data-name="0" class="cls-29" d="M938.68,218.58a37,37,0,0,0,10.21-6c3.17-2.47,6-4.93,9.15-7.75,3.17-2.46,6.34-5.28,9.86-7a18.1,18.1,0,0,1,12-2.46,24.18,24.18,0,0,0-10.56,4.93c-3.17,2.11-6,4.93-9.15,7.39s-6.34,5.28-9.86,7.39a23.46,23.46,0,0,1-11.62,3.52"/><path class="cls-30" d="M1036.2,248.16s17.25,4.93,57.39-5.64,21.12,104.92-52.11,104.92c-8.09,0-8.45-10.21,14.09-28.52,0,0-31.69,7.4-18-16.19,0,0-22.53,3.87-12.32-14.09a53,53,0,0,0,.35-28.51c.35,0,2.82-7.75,10.56-12"/><path class="cls-31" d="M1112.6,253.79c.7,31-23.94,82.38-72.88,82.38h-.7c-4.58,7.4-2.47,11.62,2.46,11.62,55.63-.35,79.92-66.54,71.12-94"/><path class="cls-31" d="M1087.25,270.69c-10.56,38-52.81,41.19-52.81,41.19-1.76,8.1,1.76,11.62,6.34,11.62,15.49.35,44.36-25.35,46.47-52.81"/><path class="cls-31" d="M1057.68,270.69c-25,35.21-33.8,22.18-33.8,22.18-6.34,14.08,10.21,14.08,13,10.91,8.09-8.8,21.12-27.11,20.77-33.09"/><path class="cls-29" d="M1038.67,337.23c4.22-5.63,9.5-10.21,14.78-14.79s10.57-9.15,15.85-14.08c4.92-4.93,9.85-10.56,13.37-16.9a35.94,35.94,0,0,0,4.58-20.77,41.52,41.52,0,0,1-7,19.36,113.34,113.34,0,0,1-13.38,15.85c-4.93,4.92-10.21,9.5-15.14,14.78a54.33,54.33,0,0,0-13,16.55"/><path class="cls-29" d="M1034.44,311.88a37.06,37.06,0,0,1,6-10.21c2.46-3.17,4.93-6,7.74-9.15,2.47-3.17,5.28-6.34,7-9.86a18.11,18.11,0,0,0,2.47-12,24.41,24.41,0,0,1-4.93,10.56c-2.11,3.17-4.93,6-7.39,9.15s-5.29,6.34-7.4,9.86a23.56,23.56,0,0,0-3.52,11.62"/><path class="cls-30" d="M1002.4,216.82s-4.92-17.25,5.64-57.38-104.92-21.13-104.92,52.1c0,8.1,10.21,8.45,28.52-14.08,0,0-7.39,31.69,16.19,18,0,0-3.87,22.53,14.09,12.32a52.85,52.85,0,0,1,28.51-.35c0-.36,7.75-2.82,12-10.57"/><path class="cls-31" d="M996.77,140.43c-31-.71-82.38,23.94-82.38,72.87V214c-7.4,4.22-11.27,2.46-11.27-2.47,0-55.62,66.19-79.92,93.65-71.11"/><path class="cls-31" d="M979.87,165.77c-38,10.57-41.19,52.81-41.19,52.81-8.1,1.76-11.62-1.76-11.62-6.33-.35-15.49,25.35-44.36,52.81-46.48"/><path class="cls-31" d="M979.87,195.35c-35.2,25-22.18,33.8-22.18,33.8-14.08,6.33-14.08-10.21-10.91-13,8.8-8.1,27.11-21.12,33.09-20.77"/><path class="cls-29" d="M913.33,214.36c5.63-4.23,10.21-9.51,14.79-14.79s9.15-10.56,14.08-15.84c4.93-4.93,10.56-9.86,16.9-13.38a36.1,36.1,0,0,1,20.77-4.58,41.53,41.53,0,0,0-19.36,7,113.19,113.19,0,0,0-15.84,13.37c-4.93,4.93-9.51,10.21-14.79,15.14-4.93,5.28-10.21,9.86-16.55,13"/><path id="_0-2" data-name="0" class="cls-29" d="M938.68,218.58a37,37,0,0,0,10.21-6c3.17-2.47,6-4.93,9.15-7.75,3.17-2.46,6.34-5.28,9.86-7a18.1,18.1,0,0,1,12-2.46,24.18,24.18,0,0,0-10.56,4.93c-3.17,2.11-6,4.93-9.15,7.39s-6.34,5.28-9.86,7.39a23.46,23.46,0,0,1-11.62,3.52"/><path class="cls-25" d="M37.53,310.82c-1.06,9.16-2.47,18-3.52,26.76,34.15,47.18,90.48,88.72,143.64,117.94,22.53-20.42,45.06-41.19,67.6-61.61-1.76-6.34-3.17-12.67-4.58-19.36C189.27,343.21,135.05,299.91,103,251.33,81.18,271,59.36,291.11,37.53,310.82"/><path class="cls-26" d="M173.42,429.47C118.15,398.14,71.68,355.54,37.53,305.19c22.18-20.42,44.36-40.49,66.54-60.91,34.15,50.35,80.62,93,135.89,124.28-22.18,20.07-44.36,40.49-66.54,60.91"/><path class="cls-25" d="M179.06,416.09c-1.06-.7-1.76-1-2.82-1.76a9,9,0,0,0-9.86.71l-2.11,2.11A409.78,409.78,0,0,1,50.55,314l2.12-2.11a7,7,0,0,0,.7-9.15c-.7-.71-1.06-1.76-1.76-2.47C66.4,286.88,81.18,273.15,96,259.78c.7.7,1.06,1.76,1.76,2.46a5.66,5.66,0,0,0,8.1.7l2.11-2.11c30.28,40.84,69,76.05,113.72,103.51l-2.12,2.11c-2.46,2.46-1.76,5.63,1.06,7.39,1.06.71,1.76,1.06,2.82,1.76-14.79,13.38-29.58,27.11-44.36,40.49M213.91,376a8.12,8.12,0,0,1-1.41-10.57c-40.84-26.05-76.39-58.44-104.91-96.46A10.06,10.06,0,0,1,96,267.87C83.65,279.14,71.68,290.05,59.71,301a14.2,14.2,0,0,1-1.06,13c28.52,37.67,64.08,70.06,104.92,96.12a19.4,19.4,0,0,1,14.08-1.06C190,397.78,201.94,386.87,213.91,376"/><path class="cls-25" d="M181.87,368.56c.36-.7,1.06-1.05.71-1.41,1.76,1.06,3.52,2.47,5.28,3.53-.71.7-1.06,1.4-1.76,1.76,2.11,2.81,2.11,6-.35,8.45a12,12,0,0,1-5.28,2.11,12.24,12.24,0,0,1-8.45-2.11,2.61,2.61,0,0,0-3.17,0,1.5,1.5,0,0,0,.35,2.46,3.2,3.2,0,0,0,3.52,0c2.11,1.41,3.87,2.46,6,3.87-2.47,2.47-6.69,2.82-10.57,1.76a9.6,9.6,0,0,0-2.11,1.76c-1.76-1.05-3.52-2.46-5.28-3.52.7-.7,1.41-1.05,2.11-1.76a6.17,6.17,0,0,1,.35-8.8c3.17-3.17,9.16-2.82,13.38,0a3.2,3.2,0,0,0,3.52,0c1.06-.7.71-1.76-.35-2.46a2.63,2.63,0,0,0-3.17,0c-1.76-1.41-3.87-2.82-5.63-4.23,2.82-2.46,7-2.82,10.91-1.41"/><path class="cls-25" d="M100.2,293.22c.7-.7,1.4-1.05,1.4-1.76a26.78,26.78,0,0,0,3.88,4.93c-.71.7-1.06,1.41-1.76,1.76a8.56,8.56,0,0,1-1.76,9.51A8.46,8.46,0,0,1,97,309.42a9.77,9.77,0,0,1-7-3.52,1.87,1.87,0,0,0-2.82-.36,2.61,2.61,0,0,0,0,3.17,1.86,1.86,0,0,0,2.82.35c1.4,1.76,3.16,3.52,4.57,5.29-2.46,2.46-6,2.46-9.15.7a9.17,9.17,0,0,0-2.11,1.76c-1.41-1.76-2.47-3.17-3.88-4.93.71-.7,1.41-1.06,2.12-1.76a9.1,9.1,0,0,1,1.76-9.86c3.16-2.81,8.45-2.11,11.61,1.76a1.86,1.86,0,0,0,2.82.35,2.63,2.63,0,0,0,0-3.16,1.87,1.87,0,0,0-2.82-.36l-4.22-5.28c2.46-2.46,6.34-2.46,9.51-.35"/><path class="cls-25" d="M110.76,362.23a24.82,24.82,0,0,1,.35-37.32c10.91-10.21,28.52-9.16,39.78,1s12,26.06,1.06,36.27c-10.92,9.85-29.93,10.21-41.19,0"/><path class="cls-27" d="M175.54,323.5q-11.62-10-22.18-20.07L87.17,364.34A294.53,294.53,0,0,0,109,384.41l66.54-60.91"/><path class="cls-28" d="M108.64,411.16V384.05c-7.39-6.33-14.78-13-21.82-20.06v29.57c7,6,14.43,12,21.82,17.6"/><path id="_0-3" data-name="0" class="cls-29" d="M209.69,324.2a23.53,23.53,0,0,1-11.62-3.52c-3.52-2.11-6.69-4.93-9.86-7.39s-6-5.28-9.15-7.39A24.18,24.18,0,0,0,168.5,301a18.1,18.1,0,0,1,12,2.46c3.52,1.76,6.68,4.58,9.85,7,3.17,2.82,6,5.28,9.16,7.75a37.13,37.13,0,0,0,10.21,6"/><path class="cls-30" d="M112.17,353.78c7.74,4.22,10.21,12,10.56,12a52.84,52.84,0,0,0,.35,28.51c10.21,18-12.32,14.09-12.32,14.09,13.73,23.58-18,16.19-18,16.19,22.53,18.31,22.18,28.52,14.08,28.52-73.22,0-92.24-115.48-52.1-104.92s57.39,5.64,57.39,5.64"/><path class="cls-31" d="M35.77,359.41c-8.8,27.46,15.49,93.65,71.11,94,4.93,0,7.05-4.22,2.47-11.62h-.71c-48.93,0-73.58-51.4-72.87-82.38"/><path class="cls-31" d="M61.12,376.31c2.11,27.46,31,53.16,46.47,52.81,4.58,0,8.1-3.52,6.34-11.62,0,0-42.25-3.17-52.81-41.19"/><path class="cls-31" d="M90.69,376.31c-.35,6,12.67,24.29,20.77,33.09,2.82,3.17,19.36,3.17,13-10.91,0,0-8.8,13-33.8-22.18"/><path class="cls-29" d="M109.7,442.85a54.21,54.21,0,0,0-13-16.55c-4.92-5.28-10.21-9.86-15.13-14.79a113.26,113.26,0,0,1-13.38-15.84,41.41,41.41,0,0,1-7-19.36,36,36,0,0,0,4.57,20.77c3.52,6.34,8.45,12,13.38,16.9,5.28,4.93,10.56,9.5,15.84,14.08s10.57,9.16,14.79,14.79"/><path class="cls-29" d="M113.93,417.5a23.47,23.47,0,0,0-3.53-11.62A101.72,101.72,0,0,0,103,396c-2.46-3.16-5.28-6-7.39-9.15a24.18,24.18,0,0,1-4.93-10.56,18.16,18.16,0,0,0,2.46,12c1.76,3.52,4.58,6.69,7,9.86,2.81,3.16,5.28,6,7.74,9.15a37.31,37.31,0,0,1,6,10.21"/><path class="cls-30" d="M146,322.44c4.23,7.75,12,10.21,12,10.56a52.94,52.94,0,0,1,28.52.36c18,10.21,14.08-12.33,14.08-12.33,23.59,13.73,16.2-17.95,16.2-17.95,18.31,22.53,28.52,22.18,28.52,14.08,0-73.23-115.48-92.24-104.92-52.1S146,322.44,146,322.44"/><path class="cls-31" d="M151.6,246c27.46-8.8,93.65,15.5,93.65,71.12,0,4.93-3.88,6.69-11.27,2.47v-.71c0-48.94-51.4-73.58-82.38-72.88"/><path class="cls-31" d="M168.5,271.39c27.46,2.12,53.16,31,52.81,46.48,0,4.57-3.53,8.09-11.62,6.33,0,0-3.17-42.24-41.19-52.81"/><path class="cls-31" d="M168.5,301c6-.36,24.29,12.67,33.09,20.77,3.17,2.81,3.17,19.36-10.91,13,0,0,13-8.8-22.18-33.79"/><path class="cls-29" d="M235,320c-6.34-3.17-11.62-7.75-16.55-13-5.28-4.93-9.86-10.21-14.79-15.14a114.53,114.53,0,0,0-15.84-13.38,41.63,41.63,0,0,0-19.36-7A36.1,36.1,0,0,1,189.27,276c6.33,3.52,12,8.45,16.9,13.38,4.93,5.28,9.5,10.56,14.08,15.84S229.4,315.75,235,320"/><path id="_0-4" data-name="0" class="cls-29" d="M209.69,324.2a23.53,23.53,0,0,1-11.62-3.52c-3.52-2.11-6.69-4.93-9.86-7.39s-6-5.28-9.15-7.39A24.18,24.18,0,0,0,168.5,301a18.1,18.1,0,0,1,12,2.46c3.52,1.76,6.68,4.58,9.85,7,3.17,2.82,6,5.28,9.16,7.75a37.13,37.13,0,0,0,10.21,6"/></g></svg>
