<?xml version="1.0" encoding="iso-8859-1"?>
<!-- Generator: Adobe Illustrator 19.0.0, SVG Export Plug-In . SVG Version: 6.00 Build 0)  -->
<svg version="1.1" id="Capa_1" xmlns="http://www.w3.org/2000/svg" xmlns:xlink="http://www.w3.org/1999/xlink" x="0px" y="0px"
	 width="16px" height="16px" viewBox="0 0 480.004 480.004" style="enable-background:new 0 0 480.004 480.004;" xml:space="preserve">
<g>
	<g>
		<path d="M477.658,235.002l-112-112c-3.128-3.128-8.184-3.128-11.312,0l-37.656,37.68h-60.688c-2.128,0-4.16,0.84-5.656,2.344
			l-18.344,18.344l-18.344-18.344c-1.496-1.504-3.528-2.344-5.656-2.344h-44.688l-37.656-37.656c-3.128-3.128-8.184-3.128-11.312,0
			l-112,112c-3.128,3.128-3.128,8.184,0,11.312l40,40l51.184,51.184c-6.688,11.696-5.16,26.84,4.816,36.816
			c5.968,5.976,13.816,8.96,21.656,8.96c0.512,0,1.016-0.12,1.528-0.144c-0.416,8.344,2.448,16.824,8.816,23.192
			c5.968,5.976,13.816,8.96,21.656,8.96c0.512,0,1.016-0.12,1.528-0.144c-0.416,8.344,2.448,16.824,8.816,23.192
			c5.968,5.976,13.816,8.96,21.656,8.96c0.512,0,1.016-0.12,1.528-0.144c-0.416,8.344,2.448,16.824,8.816,23.192
			c5.968,5.976,13.816,8.96,21.656,8.96s15.688-2.984,21.656-8.96l2.344-2.368l2.344,2.344c5.968,5.976,13.816,8.96,21.656,8.96
			c7.84,0,15.688-2.984,21.656-8.96c6.36-6.36,9.232-14.84,8.816-23.192c0.512,0.024,1.016,0.144,1.528,0.144
			c7.84,0,15.688-2.984,21.656-8.96c6.36-6.36,9.232-14.84,8.816-23.192c0.512,0.024,1.016,0.144,1.528,0.144
			c7.84,0,15.688-2.984,21.656-8.96c6.36-6.36,9.232-14.84,8.816-23.192c0.512,0.024,1.016,0.144,1.528,0.144
			c7.84,0,15.688-2.984,21.656-8.96c9.976-9.976,11.496-25.12,4.816-36.816l51.184-51.184l40-40
			C480.786,243.186,480.786,238.13,477.658,235.002z M19.314,240.682l100.688-100.688l28.688,28.688L48.002,269.37L19.314,240.682z
			 M109.658,363.026c-5.704-5.704-5.704-14.984,0-20.688l32-32c2.848-2.848,6.6-4.28,10.344-4.28c3.744,0,7.496,1.424,10.344,4.28
			c5.704,5.704,5.704,14.984,0,20.688l-32,32C124.642,368.73,115.362,368.73,109.658,363.026z M141.658,395.026
			c-5.704-5.704-5.704-14.984,0-20.688l32-32c2.848-2.848,6.6-4.28,10.344-4.28c3.744,0,7.496,1.424,10.344,4.28
			c5.704,5.704,5.704,14.984,0,20.688l-32,32C156.642,400.73,147.362,400.73,141.658,395.026z M194.338,427.026
			c-5.696,5.704-14.976,5.704-20.68,0c-5.704-5.704-5.704-14.984,0-20.688l32-32c2.848-2.848,6.6-4.28,10.344-4.28
			c3.744,0,7.496,1.424,10.344,4.28c0.84,0.84,1.528,1.784,2.12,2.768c0.16,0.264,0.288,0.536,0.424,0.808
			c0.424,0.816,0.784,1.656,1.04,2.536c0.064,0.208,0.136,0.416,0.184,0.632c0.576,2.344,0.584,4.848-0.072,7.336
			c-0.016,0.056-0.008,0.112-0.024,0.168c-0.648,2.352-1.832,4.592-3.68,6.44L194.338,427.026z M234.346,451.026l-8,8
			c-5.704,5.704-14.984,5.704-20.688,0c-5.704-5.704-5.704-14.984,0-20.688l32-32c1.848-1.848,4.088-3.032,6.44-3.68
			c0.056-0.016,0.112-0.008,0.168-0.024c2.472-0.656,4.976-0.648,7.32-0.072c0.224,0.056,0.44,0.128,0.656,0.192
			c0.872,0.256,1.704,0.608,2.52,1.032c0.272,0.144,0.552,0.272,0.824,0.432c0.984,0.592,1.928,1.28,2.768,2.12
			c0.84,0.84,1.528,1.784,2.12,2.768c0.16,0.264,0.288,0.536,0.424,0.808c0.424,0.816,0.784,1.656,1.04,2.536
			c0.064,0.208,0.136,0.416,0.184,0.632c0.576,2.344,0.584,4.848-0.072,7.336c0,0,0,0,0,0.008c-0.328,1.248-0.8,2.392-1.384,3.448
			c-0.048,0.088-0.088,0.176-0.136,0.256c-0.608,1.064-1.328,2.04-2.184,2.896L234.346,451.026z M274.346,459.026
			c-5.704,5.704-14.984,5.704-20.688,0l-2.344-2.344l18.344-18.344c0.784-0.784,1.52-1.608,2.208-2.48l2.48,2.48
			C280.05,444.042,280.05,453.322,274.346,459.026z M370.346,363.026c-5.704,5.704-14.984,5.704-20.688,0l-56-56l-11.312,11.312
			l56,56c5.704,5.704,5.704,14.984,0,20.688c-5.704,5.704-14.984,5.704-20.688,0l-56-56l-11.312,11.312l56,56
			c5.704,5.704,5.704,14.984,0,20.688c-5.704,5.704-14.984,5.704-20.688,0l-7.272-7.28c0.024-0.192-0.024-0.384-0.008-0.584
			c0.152-1.832,0.128-3.648-0.048-5.48c-0.04-0.392-0.056-0.784-0.112-1.176c-0.248-1.784-0.664-3.536-1.224-5.264
			c-0.12-0.368-0.2-0.744-0.328-1.112c-0.624-1.704-1.432-3.336-2.36-4.92c-0.192-0.328-0.32-0.68-0.528-1
			c-1.168-1.832-2.52-3.584-4.12-5.184c-4.72-4.728-10.632-7.504-16.768-8.488c-0.024,0-0.056,0-0.08-0.008
			c-2.032-0.32-4.072-0.424-6.12-0.336c-0.064,0-0.128-0.016-0.184-0.008c0-0.064-0.016-0.128-0.008-0.192
			c0.08-1.976-0.016-3.952-0.312-5.912c-0.016-0.112-0.016-0.224-0.032-0.328c-0.336-2.048-0.848-4.056-1.592-6.008
			c-0.008-0.016-0.008-0.04-0.016-0.056c-0.736-1.912-1.648-3.752-2.776-5.512c-0.032-0.048-0.048-0.104-0.08-0.16
			c-1.144-1.76-2.472-3.44-4.016-4.984c-6.36-6.36-14.84-9.232-23.184-8.816c0.416-8.344-2.448-16.824-8.816-23.184
			c-6.36-6.36-14.84-9.232-23.184-8.816c0.416-8.344-2.448-16.824-8.816-23.184c-11.936-11.944-31.376-11.944-43.312,0
			l-26.36,26.336l-44.688-44.688l104-104h41.376l16,16l-26.344,26.344c-11.944,11.944-11.944,31.368,0,43.312
			c5.968,5.976,13.816,8.96,21.656,8.96c7.84,0,15.688-2.984,21.656-8.96l26.344-26.344l106.344,106.344
			C376.05,348.042,376.05,357.322,370.346,363.026z M376.002,325.37L275.314,224.682l10.344-10.344l-11.312-11.312l-48,48
			c-5.704,5.704-14.984,5.704-20.688,0c-5.704-5.704-5.704-14.984,0-20.688l53.656-53.656h57.376l104,104L376.002,325.37z
			 M432.002,269.37L331.314,168.682l28.688-28.688L460.69,240.682L432.002,269.37z"/>
	</g>
</g>
<g>
	<g>
		<path d="M240.002,48.682c-4.416,0-8-3.592-8-8s3.584-8,8-8s8,3.592,8,8c0,4.416,3.576,8,8,8s8-3.584,8-8
			c0-10.416-6.712-19.216-16-22.528V0.682h-16v17.472c-9.288,3.312-16,12.112-16,22.528c0,13.232,10.768,24,24,24
			c4.416,0,8,3.592,8,8s-3.584,8-8,8c-4.416,0-8-3.592-8-8h-16c0,10.416,6.712,19.216,16,22.528v17.472h16V95.21
			c9.288-3.312,16-12.112,16-22.528C264.002,59.45,253.234,48.682,240.002,48.682z"/>
	</g>
</g>
<g>
	<g>
		<rect x="40.002" y="144.682" width="16" height="16"/>
	</g>
</g>
<g>
	<g>
		<rect x="40.002" y="112.682" width="16" height="16"/>
	</g>
</g>
<g>
	<g>
		<rect x="40.002" y="80.682" width="16" height="16"/>
	</g>
</g>
<g>
	<g>
		<rect x="40.002" y="48.682" width="16" height="16"/>
	</g>
</g>
<g>
	<g>
		<rect x="72.002" y="48.682" width="16" height="16"/>
	</g>
</g>
<g>
	<g>
		<rect x="104.002" y="48.682" width="16" height="16"/>
	</g>
</g>
<g>
	<g>
		<rect x="136.002" y="48.682" width="16" height="16"/>
	</g>
</g>
<g>
	<g>
		<rect x="168.002" y="48.682" width="16" height="16"/>
	</g>
</g>
<g>
	<g>
		<rect x="424.002" y="144.682" width="16" height="16"/>
	</g>
</g>
<g>
	<g>
		<rect x="424.002" y="112.682" width="16" height="16"/>
	</g>
</g>
<g>
	<g>
		<rect x="424.002" y="80.682" width="16" height="16"/>
	</g>
</g>
<g>
	<g>
		<rect x="424.002" y="48.682" width="16" height="16"/>
	</g>
</g>
<g>
	<g>
		<rect x="392.002" y="48.682" width="16" height="16"/>
	</g>
</g>
<g>
	<g>
		<rect x="360.002" y="48.682" width="16" height="16"/>
	</g>
</g>
<g>
	<g>
		<rect x="328.002" y="48.682" width="16" height="16"/>
	</g>
</g>
<g>
	<g>
		<rect x="296.002" y="48.682" width="16" height="16"/>
	</g>
</g>
<g>
</g>
<g>
</g>
<g>
</g>
<g>
</g>
<g>
</g>
<g>
</g>
<g>
</g>
<g>
</g>
<g>
</g>
<g>
</g>
<g>
</g>
<g>
</g>
<g>
</g>
<g>
</g>
<g>
</g>
</svg>
