<?xml version="1.0" encoding="iso-8859-1"?>
<!-- Generator: Adobe Illustrator 19.0.0, SVG Export Plug-In . SVG Version: 6.00 Build 0)  -->
<svg version="1.1" id="Capa_1" xmlns="http://www.w3.org/2000/svg" xmlns:xlink="http://www.w3.org/1999/xlink" x="0px" y="0px"
	 viewBox="0 0 478.041 478.041" style="enable-background:new 0 0 478.041 478.041;" xml:space="preserve">
<path style="fill:#2BA037;" d="M462.89,144.98c-0.522-15.673-13.584-28.735-29.257-28.212h-36.049v121.208l3.657,11.494v68.441
	h6.269c18.808,0,37.094,2.612,54.857,8.359h0.522V145.502C462.89,145.502,462.89,144.98,462.89,144.98z"/>
<path style="fill:#F4B844;" d="M336.457,329.404l2.612,1.045v2.612c0,1.045,0,2.09,0.522,2.612h-0.522v30.824h-3.657l-24.033-1.045
	h-1.567c2.09-6.792,3.657-14.629,3.657-21.943c0-5.224-0.522-10.449-1.567-15.673h2.09L336.457,329.404z"/>
<path style="fill:#E5A739;" d="M291.004,291.265c14.629,3.657,29.257,5.224,44.408,5.224c37.094,0,68.963-9.926,71.053-21.42v37.616
	c-35.527,0.522-64.784,8.882-68.441,19.331l-2.612-1.045l-20.375-1.045h-2.09c-3.135-14.629-10.971-28.212-22.465-38.139
	L291.004,291.265z"/>
<path style="fill:#2BA037;" d="M60.082,286.041h138.971l1.567,7.314c-14.629,12.539-22.988,31.347-22.988,50.678
	c0,3.657,0.522,6.792,1.045,10.449H88.816c-15.673,0-28.735-13.061-28.735-28.735C60.082,325.747,60.082,286.041,60.082,286.041z"/>
<path style="fill:#3BB54A;" d="M374.073,53.029H29.257C13.061,53.029,0.522,65.567,0,81.763v180.245v0.522
	c0.522,15.673,13.584,28.735,29.257,28.212h169.274l1.567,2.09c12.539-11.494,28.735-17.763,45.453-17.763
	c6.792,0,13.584,1.045,20.375,3.135l136.882-40.229V116.767V81.763C402.808,66.09,389.747,53.029,374.073,53.029z"/>
<g>
	<path style="fill:#2BA037;" d="M201.665,96.914c41.796,0,75.233,33.437,75.233,75.233s-33.437,75.233-75.233,75.233
		s-75.233-33.437-75.233-75.233C126.433,130.351,159.869,96.914,201.665,96.914L201.665,96.914z"/>
	<circle style="fill:#2BA037;" cx="52.767" cy="103.706" r="20.898"/>
</g>
<path style="fill:#E5A739;" d="M478.041,369.11v34.482c0,12.016-31.347,21.42-70.008,21.42s-69.486-9.404-69.486-21.42v-31.347
	c5.747,10.449,34.482,18.286,68.963,18.286C441.992,390.531,478.041,380.604,478.041,369.11z"/>
<path style="fill:#F4B844;" d="M478.041,335.673v33.437l0,0c0,11.494-32.392,21.42-70.531,21.42s-63.216-7.837-68.963-18.286
	v-35.004l0,0c4.18,10.449,33.437,18.808,68.963,18.808S475.429,347.167,478.041,335.673z"/>
<path style="fill:#FEDB41;" d="M478.041,335.673c-2.612,11.494-33.437,20.375-70.531,20.375s-64.784-8.359-68.963-18.808
	c-0.522-1.045-0.522-1.567-0.522-2.612v-2.612c3.657-10.449,32.914-18.808,68.441-19.331h1.045c18.808,0,37.094,2.612,54.857,8.359
	c9.926,3.657,15.673,8.359,15.673,13.584V335.673z"/>
<path style="fill:#E5A739;" d="M338.547,372.245v27.69h-3.657c-14.106,0-28.212-1.567-42.318-4.702h-1.045
	c9.404-8.359,16.196-18.808,19.331-30.824h1.567l22.465,1.045h3.657V372.245z"/>
<path style="fill:#F4B844;" d="M406.465,244.245v30.824c-2.09,11.494-33.959,21.42-71.053,21.42c-15.151,0-29.78-1.567-44.408-5.224
	h-0.522c-6.792-5.747-15.151-10.449-24.033-13.061l0,0v-36.571c2.09,10.971,32.392,19.853,69.486,19.853
	C373.029,261.486,400.196,254.171,406.465,244.245z"/>
<g>
	<path style="fill:#FEDB41;" d="M406.465,244.767c-6.269,9.926-37.094,17.241-71.053,17.241s-67.396-8.882-69.486-19.853
		c-0.522-0.522-0.522-1.045-0.522-1.567c0-11.494,31.347-21.42,70.008-21.42c29.78,0,56.947,5.747,67.396,14.106
		c2.612,1.567,4.702,4.18,4.702,7.314C407.51,242.155,407.51,243.722,406.465,244.767z"/>
	<path style="fill:#FEDB41;" d="M315.559,329.926c0.522,4.702,1.045,9.404,1.045,14.106c0,6.792-1.045,13.584-2.612,20.375
		c-3.657,12.016-10.449,22.988-20.375,31.869c-28.735,26.122-73.665,24.033-99.788-4.702c-9.404-10.449-15.673-22.988-17.763-36.571
		c-0.522-3.657-1.045-7.314-1.045-10.449c0-19.853,8.359-39.184,23.51-52.767c18.808-16.718,44.408-22.465,68.441-14.629
		c9.404,2.612,17.763,7.314,25.078,13.584C304.065,300.669,312.424,314.253,315.559,329.926z"/>
</g>
<path style="fill:#F4B844;" d="M246.074,309.029c19.331,0,35.004,15.673,35.004,35.004c0,19.331-15.673,35.004-35.004,35.004
	s-35.004-15.673-35.004-35.004l0,0C211.069,324.702,226.743,309.029,246.074,309.029z"/>
<g>
</g>
<g>
</g>
<g>
</g>
<g>
</g>
<g>
</g>
<g>
</g>
<g>
</g>
<g>
</g>
<g>
</g>
<g>
</g>
<g>
</g>
<g>
</g>
<g>
</g>
<g>
</g>
<g>
</g>
</svg>
