<?xml version="1.0" encoding="iso-8859-1"?>
<!-- Generator: Adobe Illustrator 22.1.0, SVG Export Plug-In . SVG Version: 6.00 Build 0)  -->
<svg version="1.1" id="Capa_1" xmlns="http://www.w3.org/2000/svg" xmlns:xlink="http://www.w3.org/1999/xlink" x="0px" y="0px"
	 viewBox="-49 141 512 512" style="enable-background:new -49 141 512 512;" xml:space="preserve">
<path d="M307.652,529.537H106.348c-2.849,0-5.162-2.312-5.162-5.162V255.971c0-2.849,2.312-5.162,5.162-5.162h201.303
	c2.849,0,5.162,2.312,5.162,5.162v268.405C312.813,527.225,310.501,529.537,307.652,529.537z M111.51,519.214h190.98V261.133H111.51
	V519.214z"/>
<path d="M281.844,333.395h-82.586c-2.849,0-5.162-2.312-5.162-5.162s2.312-5.162,5.162-5.162h82.586
	c2.849,0,5.162,2.312,5.162,5.162S284.693,333.395,281.844,333.395z"/>
<path d="M281.844,364.365H157.965c-2.849,0-5.162-2.312-5.162-5.162s2.312-5.162,5.162-5.162h123.879
	c2.849,0,5.162,2.312,5.162,5.162S284.693,364.365,281.844,364.365z"/>
<path d="M281.844,395.335H157.965c-2.849,0-5.162-2.312-5.162-5.162s2.312-5.162,5.162-5.162h123.879
	c2.849,0,5.162,2.312,5.162,5.162S284.693,395.335,281.844,395.335z"/>
<path d="M281.844,426.305H157.965c-2.849,0-5.162-2.312-5.162-5.162s2.312-5.162,5.162-5.162h123.879
	c2.849,0,5.162,2.312,5.162,5.162S284.693,426.305,281.844,426.305z"/>
<path d="M281.844,457.274H157.965c-2.849,0-5.162-2.312-5.162-5.162s2.312-5.162,5.162-5.162h123.879
	c2.849,0,5.162,2.312,5.162,5.162S284.693,457.274,281.844,457.274z"/>
<path d="M199.258,488.244h-41.293c-2.849,0-5.162-2.312-5.162-5.162s2.312-5.162,5.162-5.162h41.293
	c2.849,0,5.162,2.312,5.162,5.162S202.107,488.244,199.258,488.244z"/>
<circle style="fill:none;stroke:#060606;stroke-width:5;stroke-miterlimit:10;" cx="207" cy="390.173" r="240.75"/>
<polygon points="404.303,250.809 415.63,267.744 2.936,514.851 -6.792,498.001 "/>
</svg>
