<?xml version="1.0" encoding="iso-8859-1"?>
<!-- Generator: Adobe Illustrator 19.0.0, SVG Export Plug-In . SVG Version: 6.00 Build 0)  -->
<svg version="1.1" id="Capa_1" xmlns="http://www.w3.org/2000/svg" xmlns:xlink="http://www.w3.org/1999/xlink" x="0px" y="0px"
	 width="24px" height="24px" viewBox="0 0 498.88 498.88" style="enable-background:new 0 0 498.88 498.88;" xml:space="preserve">
<g>
	<g>
		<g>
			<path d="M386.88,273.44c-46.496,0-86.448,28.496-103.36,68.928l-24.64-3.792v-8.288c26.92-15.624,46.784-42.072,53.488-73.4
				c19.44-2.712,34.512-19.272,34.512-39.448v-72c0-79.4-64.6-144-144-144h-13.704c-29.32,0-56.64,13.136-74.968,36.032
				l-4.496,5.632c-31.4,16.424-50.832,48.448-50.832,84v90.336c0,20.176,15.072,36.736,34.512,39.448
				c6.704,31.328,26.568,57.776,53.488,73.4v8.288l-41.312,6.352c-36.952,5.688-68.04,32.424-79.192,68.112L0,497.44h386.88
				c61.76,0,112-50.24,112-112S448.64,273.44,386.88,273.44z M314.544,240.072c0.128-2.208,0.336-4.392,0.336-6.632v-38.528
				c9.288,3.312,16,12.112,16,22.528C330.88,227.976,324.008,236.856,314.544,240.072z M74.88,217.44
				c0-10.416,6.712-19.216,16-22.528v38.528c0,2.24,0.208,4.424,0.336,6.632C81.752,236.856,74.88,227.976,74.88,217.44z
				 M95.936,177.736c-7.88,0.584-15.096,3.4-21.056,7.904v-58.544c0-30.048,16.696-57.072,43.576-70.504l1.568-0.784l6.68-8.344
				c15.272-19.08,38.032-30.024,62.472-30.024h13.704c70.576,0,128,57.424,128,128v40.208c-4.672-3.536-10.056-6.184-16-7.392
				V145.44h-8c-12.344,0-23.808-6.136-30.656-16.408l-5.064-7.592h-8.984c-56.144,0-110.128,17.016-156.128,49.216L95.936,177.736z
				 M106.88,233.44v-43.832l8.344-5.84c43.296-30.312,94.112-46.328,146.952-46.328l0.736,0.472
				c8.328,12.488,21.4,20.704,35.968,22.928v72.6c0,52.936-43.064,96-96,96C149.944,329.44,106.88,286.376,106.88,233.44z
				 M242.88,337.928v6.224l-0.448,1.336c-2.344,6.032-11.64,23.952-39.552,23.952c-27.904,0-37.184-17.84-39.544-23.928l-0.456-1.36
				v-6.224c12.44,4.784,25.896,7.512,40,7.512S230.44,342.712,242.88,337.928z M99.944,481.44l6.872-55.008l-15.872-1.984
				l-7.128,56.992H21.76l19.88-63.624c9.352-29.904,35.4-52.312,66.368-57.072l8.664-1.336l-11.96,29.896l31.432,15.712
				l-15.352,30.712l58.768,45.712H99.944z M140.968,431.144l16.648-33.288l-32.568-16.28l10-24.992l14.384-2.216l37.512,112.528
				L140.968,431.144z M174.608,379.32c7.6,3.704,16.928,6.12,28.272,6.12s20.672-2.416,28.272-6.12l-28.272,84.832L174.608,379.32z
				 M226.21,481.432l16.078-12.504l-9.832-12.632l-13.632,10.608l37.512-112.528l22.144,3.408c-2.184,8.56-3.472,17.48-3.552,26.688
				l-26.784,13.392l16.648,33.288l-21.256,16.528l9.832,12.632l31.6-24.584l-15.352-30.712l6.584-3.296
				c4.968,33.864,25.08,62.792,53.288,79.712H226.21z M386.88,481.44c-52.936,0-96-43.064-96-96c0-52.936,43.064-96,96-96
				c52.936,0,96,43.064,96,96C482.88,438.376,439.816,481.44,386.88,481.44z"/>
			<polygon points="377.232,431.936 347.232,388.696 334.088,397.816 371.136,451.216 386.376,451.216 440.448,325.04 
				425.744,318.736 			"/>
			<path d="M170.88,205.44c0-11.024-8.968-20-20-20s-20,8.976-20,20s8.968,20,20,20S170.88,216.464,170.88,205.44z M146.88,205.44
				c0-2.208,1.8-4,4-4s4,1.792,4,4s-1.8,4-4,4S146.88,207.648,146.88,205.44z"/>
			<path d="M254.88,225.44c11.032,0,20-8.976,20-20s-8.968-20-20-20c-11.032,0-20,8.976-20,20S243.848,225.44,254.88,225.44z
				 M254.88,201.44c2.2,0,4,1.792,4,4s-1.8,4-4,4s-4-1.792-4-4S252.68,201.44,254.88,201.44z"/>
			<path d="M258.88,257.44h-16c0,22.056-17.944,40-40,40c-22.056,0-40-17.944-40-40h-16c0,30.88,25.128,56,56,56
				S258.88,288.32,258.88,257.44z"/>
		</g>
	</g>
</g>
<g>
</g>
<g>
</g>
<g>
</g>
<g>
</g>
<g>
</g>
<g>
</g>
<g>
</g>
<g>
</g>
<g>
</g>
<g>
</g>
<g>
</g>
<g>
</g>
<g>
</g>
<g>
</g>
<g>
</g>
</svg>
