<?xml version="1.0" encoding="iso-8859-1"?>
<!-- Generator: Adobe Illustrator 17.1.0, SVG Export Plug-In . SVG Version: 6.00 Build 0)  -->
<!DOCTYPE svg PUBLIC "-//W3C//DTD SVG 1.1//EN" "http://www.w3.org/Graphics/SVG/1.1/DTD/svg11.dtd">
<svg version="1.1" id="Capa_1" xmlns="http://www.w3.org/2000/svg" xmlns:xlink="http://www.w3.org/1999/xlink" x="0px" y="0px"
	 viewBox="0 0 465 465" style="enable-background:new 0 0 465 465;" xml:space="preserve">
<g>
	<path fill="#F57C00" d="M338.552,179.693c-3.524,2.175-4.618,6.796-2.442,10.321c1.418,2.297,3.874,3.562,6.389,3.562
		c1.344,0,2.705-0.361,3.933-1.119c18.181-11.222,29.035-30.662,29.035-52.003c0-33.675-27.396-61.071-61.072-61.071
		c-21.453,0-41.59,11.473-52.551,29.94c-2.114,3.563-0.94,8.163,2.621,10.277c3.563,2.115,8.163,0.941,10.277-2.621
		c8.273-13.938,23.467-22.597,39.652-22.597c25.404,0,46.072,20.668,46.072,46.071C360.466,156.555,352.274,171.224,338.552,179.693
		z"/>
	<path fill="#F57C00" d="M406.44,0H222.349c-26.693,0-48.409,21.716-48.409,48.409v151.609c0,4.143,3.357,7.5,7.5,7.5s7.5-3.357,7.5-7.5V56.541
		h250.909v351.918h-140.48c-4.143,0-7.5,3.357-7.5,7.5s3.357,7.5,7.5,7.5h139.767C435.959,438.597,422.508,450,406.44,450H222.349
		c-4.143,0-7.5,3.357-7.5,7.5s3.357,7.5,7.5,7.5H406.44c26.693,0,48.409-21.716,48.409-48.409V48.409
		C454.849,21.716,433.133,0,406.44,0z M222.349,15H406.44c16.068,0,29.52,11.403,32.696,26.541H189.653
		C192.829,26.403,206.281,15,222.349,15z"/>
	<path fill="#F57C00" d="M335.42,348.089c5.573-5.574,8.644-12.985,8.644-20.867c0-7.883-3.07-15.294-8.644-20.868
		c-6.179-6.179-14.449-9.042-22.545-8.582c0.458-8.105-2.403-16.365-8.582-22.545c-5.574-5.573-12.985-8.644-20.867-8.644
		c-0.562,0-1.121,0.016-1.677,0.047c0.452-8.101-2.408-16.354-8.583-22.53c-3.728-3.727-8.212-6.246-12.962-7.559l73.851-73.851
		c11.506-11.507,11.506-30.228,0-41.734c-11.506-11.506-30.229-11.506-41.734,0L143.482,269.794
		c-21.233,21.233-31.267,49.882-27.853,79.123L12.348,452.196c-2.929,2.93-2.929,7.678,0,10.607
		c1.465,1.464,3.384,2.196,5.304,2.196c1.919,0,3.839-0.732,5.304-2.196l105.911-105.91c1.694-1.695,2.478-4.098,2.105-6.466
		c-4.042-25.77,4.384-51.294,23.116-70.026l148.84-148.838c5.656-5.658,14.863-5.658,20.52,0c5.658,5.657,5.658,14.862,0,20.52
		L231.431,244.1c-1.464,1.465-2.196,3.385-2.196,5.304s0.732,3.839,2.196,5.304c2.93,2.928,7.678,2.926,10.607,0
		c5.656-5.657,14.864-5.659,20.521,0c5.658,5.657,5.658,14.862,0,20.52c-1.464,1.465-2.196,3.385-2.196,5.304
		s0.732,3.839,2.196,5.304c2.93,2.928,7.678,2.928,10.607,0c5.656-5.658,14.863-5.658,20.52,0c5.658,5.657,5.658,14.862,0,20.52
		c-1.464,1.465-2.196,3.385-2.196,5.304s0.732,3.839,2.196,5.304c2.93,2.928,7.678,2.928,10.607,0c5.656-5.658,14.863-5.658,20.52,0
		c5.658,5.657,5.658,14.863,0,20.521l-56.822,56.822c-18.732,18.733-44.258,27.154-70.025,23.117
		c-2.369-0.375-4.771,0.411-6.466,2.105l-32.67,32.67c-2.929,2.93-2.929,7.678,0,10.607c2.93,2.928,7.678,2.927,10.607,0
		l30.039-30.04c29.235,3.42,57.888-6.619,79.122-27.853L335.42,348.089z"/>
</g>
<g>
</g>
<g>
</g>
<g>
</g>
<g>
</g>
<g>
</g>
<g>
</g>
<g>
</g>
<g>
</g>
<g>
</g>
<g>
</g>
<g>
</g>
<g>
</g>
<g>
</g>
<g>
</g>
<g>
</g>
</svg>
