<?xml version="1.0" encoding="iso-8859-1"?>
<!-- Generator: Adobe Illustrator 19.1.0, SVG Export Plug-In . SVG Version: 6.00 Build 0)  -->
<svg xmlns="http://www.w3.org/2000/svg" xmlns:xlink="http://www.w3.org/1999/xlink" version="1.1" id="Capa_1" x="0px" y="0px" viewBox="0 0 476.3 476.3" style="enable-background:new 0 0 476.3 476.3;" xml:space="preserve" width="512px" height="512px">
<g>
	<g>
		<path d="M411.75,250.2h-185.6V64.6c0-7.5-6-13.5-13.5-13.5c-117.2,0-212.6,95.4-212.6,212.6s95.4,212.6,212.6,212.6    s212.6-95.4,212.6-212.6C425.25,256.3,419.15,250.2,411.75,250.2z M212.65,449.3c-102.3,0-185.6-83.3-185.6-185.6    c0-97.8,76-178.2,172.1-185.1v185.1c0,7.5,6,13.5,13.5,13.5h185.1C390.85,373.3,310.45,449.3,212.65,449.3z" fill="#2196f3"/>
		<path d="M476.25,211.9c-0.2-51.6-19.1-101.3-53.2-140C382.65,26.2,324.65,0,263.65,0c-7.5,0-13.5,6-13.5,13.5v199.1    c0,7.5,6,13.5,13.5,13.5h199.1l0,0c7.5,0,13.5-6,13.5-13.5C476.25,212.4,476.25,212.2,476.25,211.9z M277.15,199.2V27.6    c48.2,3.5,93.4,25.8,125.6,62.3c27,30.5,43,68.9,46,109.3H277.15z" fill="#2196f3"/>
	</g>
</g>
<g>
</g>
<g>
</g>
<g>
</g>
<g>
</g>
<g>
</g>
<g>
</g>
<g>
</g>
<g>
</g>
<g>
</g>
<g>
</g>
<g>
</g>
<g>
</g>
<g>
</g>
<g>
</g>
<g>
</g>
</svg>
