<?xml version="1.0" encoding="iso-8859-1"?>
<!-- Generator: Adobe Illustrator 19.0.0, SVG Export Plug-In . SVG Version: 6.00 Build 0)  -->
<svg xmlns="http://www.w3.org/2000/svg" xmlns:xlink="http://www.w3.org/1999/xlink" version="1.1" id="Capa_1" x="0px" y="0px" viewBox="0 0 512 512" style="enable-background:new 0 0 512 512;" xml:space="preserve" width="24px" height="24px">
<g>
	<g>
		<path d="M467,0H45C20.187,0,0,20.187,0,45v422c0,24.813,20.187,45,45,45h422c24.813,0,45-20.187,45-45V45    C512,20.187,491.813,0,467,0z M30,45c0-8.271,6.729-15,15-15h196v46c-33.084,0-60,26.916-60,60s26.916,60,60,60v45h-62.561    c-10.347,0-17.588,10.252-14.143,19.999C171.186,280.497,156.641,301,136,301c-20.67,0-35.18-20.52-28.297-40.001    C111.152,251.243,103.897,241,93.56,241H30V45z M260.999,404.297C251.246,400.848,241,408.101,241,418.44V482H45    c-8.271,0-15-6.729-15-15V271h46c0,33.084,26.916,60,60,60s60-26.916,60-60h45v62.561c0,10.349,10.252,17.585,19.999,14.143    C280.495,340.813,301,355.358,301,376C301,396.687,280.461,411.175,260.999,404.297z M482,467c0,8.271-6.729,15-15,15H271v-46    c33.084,0,60-26.916,60-60s-26.916-60-60-60v-45h62.561c10.347,0,17.588-10.252,14.143-19.999    C340.814,231.503,355.359,211,376,211c20.67,0,35.18,20.52,28.297,40.001C400.848,260.757,408.103,271,418.44,271H482V467z     M482,241h-46c0-33.084-26.916-60-60-60s-60,26.916-60,60h-45v-62.561c0-10.348-10.252-17.586-19.999-14.143    C231.505,171.187,211,156.642,211,136c0-20.687,20.539-35.175,40.001-28.297C260.756,111.151,271,103.899,271,93.56V30h196    c8.271,0,15,6.729,15,15V241z" fill="#FFFFFF"/>
	</g>
</g>
<g>
</g>
<g>
</g>
<g>
</g>
<g>
</g>
<g>
</g>
<g>
</g>
<g>
</g>
<g>
</g>
<g>
</g>
<g>
</g>
<g>
</g>
<g>
</g>
<g>
</g>
<g>
</g>
<g>
</g>
</svg>
