<?xml version="1.0" encoding="iso-8859-1"?>
<!-- Generator: Adobe Illustrator 19.0.0, SVG Export Plug-In . SVG Version: 6.00 Build 0)  -->
<svg xmlns="http://www.w3.org/2000/svg" xmlns:xlink="http://www.w3.org/1999/xlink" version="1.1" id="Capa_1" x="0px" y="0px" viewBox="0 0 497.009 497.009" style="enable-background:new 0 0 497.009 497.009;" xml:space="preserve" width="512px" height="512px">
<g>
	<g>
		<g>
			<path d="M442.797,133.681H353.95c-30.118,0-54.212,27.859-54.212,62.494v156.612c0,4.518,3.012,7.529,7.529,7.529h30.871v110.682     c0,14.306,11.294,25.6,24.847,25.6h70.024c13.553,0,24.847-11.294,24.847-25.6V360.316h31.624c4.518,0,7.529-3.012,7.529-7.529     V196.175C497.009,162.293,472.915,133.681,442.797,133.681z M483.456,345.257h-1.506h-23.341v-79.059     c0-4.518-3.012-7.529-7.529-7.529s-7.529,3.012-7.529,7.529v204.8c0,6.023-4.518,10.541-9.788,10.541h-27.106V358.057     c0-4.518-3.012-7.529-7.529-7.529s-7.529,3.012-7.529,7.529V481.54h-27.106c-5.271,0-9.788-4.518-9.788-10.541v-204.8     c0-4.518-3.012-7.529-7.529-7.529s-7.529,3.012-7.529,7.529v79.812h-23.341V196.175c0-26.353,17.318-47.435,39.153-47.435h88.847     c21.835,0,39.153,21.082,39.153,47.435V345.257z" fill="#d84315"/>
			<path d="M398.374,123.893c33.129,0,60.235-27.859,60.235-61.741c0-33.882-27.106-61.741-60.235-61.741     c-33.129,0-60.235,27.859-60.235,61.741C338.139,96.034,365.244,123.893,398.374,123.893z M398.374,16.222     c24.847,0,45.176,21.082,45.176,46.682c0,25.6-20.329,46.682-45.176,46.682s-45.177-21.082-45.177-46.682     C353.197,37.305,373.527,16.222,398.374,16.222z" fill="#d84315"/>
			<path d="M241.762,405.493H105.48v-35.388h51.2c4.518,0,7.529-3.012,7.529-7.529s-3.012-7.529-7.529-7.529h-51.2v-32.376h67.765     c4.518,0,7.529-3.012,7.529-7.529s-3.012-7.529-7.529-7.529H105.48v-32.376h82.071c4.518,0,7.529-3.012,7.529-7.529     s-3.012-7.529-7.529-7.529H105.48v-32.376h94.871c4.518,0,7.529-3.012,7.529-7.529c0-4.518-3.012-7.529-7.529-7.529H105.48     v-32.376h106.918c4.518,0,7.529-3.012,7.529-7.529c0-4.518-3.012-7.529-7.529-7.529H105.48v-32.376h123.482     c4.518,0,7.529-3.012,7.529-7.529c0-4.518-3.012-7.529-7.529-7.529H105.48V88.505h44.424c3.012,0,6.024-1.506,6.776-4.518     c1.506-3.012,0.753-6.024-1.506-8.282L83.644,3.422c-3.012-3.012-8.282-3.012-10.541,0L1.574,75.705     c-1.506,0.753-2.259,4.518-0.753,6.776c1.506,3.012,3.765,4.518,6.776,4.518h44.424V404.74H18.891     c-4.518,0-7.529,3.012-7.529,7.529v76.8c0,4.518,3.012,7.529,7.529,7.529h223.624c4.518,0,7.529-3.012,7.529-7.529v-76.047     C249.291,408.505,246.28,405.493,241.762,405.493z M25.668,71.94l53.459-54.212l53.459,54.212H97.95     c-4.518,0-7.529,3.012-7.529,7.529V404.74H67.08V79.469c0-3.765-3.012-7.529-7.529-7.529H25.668z M234.986,481.54h-0.753H26.421     v-60.988c82.824,0,137.035,0,208.565,0V481.54z" fill="#d84315"/>
		</g>
	</g>
</g>
<g>
</g>
<g>
</g>
<g>
</g>
<g>
</g>
<g>
</g>
<g>
</g>
<g>
</g>
<g>
</g>
<g>
</g>
<g>
</g>
<g>
</g>
<g>
</g>
<g>
</g>
<g>
</g>
<g>
</g>
</svg>
