<?xml version="1.0" encoding="UTF-8"?>
<svg width="1024px" height="676px" viewBox="0 0 1024 676" version="1.1" xmlns="http://www.w3.org/2000/svg" xmlns:xlink="http://www.w3.org/1999/xlink">
    <!-- Generator: Sketch 48.2 (47327) - http://www.bohemiancoding.com/sketch -->
    <title>index/headerBG</title>
    <desc>Created with Sketch.</desc>
    <defs></defs>
    <g id="Design12" stroke="none" stroke-width="1" fill="none" fill-rule="evenodd">
        <g id="index/headerBG" fill="#000000">
            <g id="Group-3" opacity="0" transform="translate(315.000000, 32.000000)">
                <g id="github-character-copy-2" transform="translate(58.000000, 1.000000)">
                    <g id="Capa_1">
                        <g id="Group">
                            <path d="M25.9797916,6.59565261 C26.2858958,5.67722084 26.4391266,4.72514144 26.4391266,3.73905707 C26.4391266,2.42411911 26.1497568,1.1885062 25.5717916,0.032337469 C24.3591663,0.032337469 23.2879801,0.253578164 22.3582333,0.695523573 C21.4289628,1.13758809 20.3691514,1.82334491 19.179335,2.75279404 C17.6832357,2.39011414 16.0958412,2.20877419 14.4185806,2.20877419 C12.582134,2.20877419 10.8307891,2.40726551 9.16460546,2.80395037 C7.95186104,1.85169231 6.88067494,1.15194045 5.95116625,0.704099256 C5.02165757,0.256258065 3.94487345,0.0323970223 2.72057568,0.0323970223 C2.14249132,1.18856576 1.85347891,2.42423821 1.85347891,3.73911663 C1.85347891,4.73669479 2.00641191,5.70020844 2.31251613,6.62953846 C0.770739454,8.43198015 0,10.6762481 0,13.3627593 C0,15.7207742 0.351245658,17.5965261 1.05415385,18.9909677 C1.42832754,19.727464 1.91559305,20.3792754 2.5164268,20.9462233 C3.11702233,21.5128139 3.80283871,21.9722084 4.57369727,22.3236923 C5.34467494,22.6748189 6.12095285,22.966928 6.9031861,23.199067 C7.6853598,23.4313251 8.54959801,23.6015285 9.49613896,23.7087841 C10.4426203,23.816933 11.2785707,23.8876824 12.0039901,23.9219256 C12.7294094,23.9555136 13.5340943,23.9727246 14.4185211,23.9727246 C15.4611811,23.9727246 16.4073648,23.9469975 17.2579057,23.8963176 C18.1081489,23.8453995 19.0798809,23.7204566 20.1738759,23.5225608 C21.2676923,23.3240695 22.2312655,23.0546501 23.0645955,22.7147196 C23.8977469,22.3747891 24.697072,21.8872258 25.4621538,21.2526253 C26.2272357,20.6176079 26.8249727,19.8639603 27.2559603,18.9910273 C27.9470174,17.5853896 28.2929032,15.7092208 28.2929032,13.3628189 C28.2924864,10.664933 27.5216873,8.40929032 25.9797916,6.59565261 L25.9797916,6.59565261 Z M23.9401489,18.965062 C23.5773499,19.7077519 23.1181935,20.2910174 22.5628586,20.7165261 C22.0072854,21.1416774 21.3159305,21.4816079 20.4885558,21.7369727 C19.6607643,21.9919206 18.8676923,22.1590273 18.1081489,22.2381141 C17.3483672,22.3175583 16.5041985,22.3571017 15.5744516,22.3571017 L12.7179156,22.3571017 C11.7884665,22.3571017 10.9438213,22.3175583 10.1844566,22.2381141 C9.42503226,22.1590273 8.63160298,21.9919206 7.80404963,21.7369727 C6.97679404,21.4816079 6.28543921,21.1416774 5.729866,20.7165261 C5.1742928,20.2909578 4.71525558,19.7077519 4.35251613,18.965062 C3.98983623,18.2223722 3.80843672,17.3525955 3.80843672,16.355196 C3.80843672,14.9945806 4.19952357,13.8382333 4.98175682,12.8865112 C5.76393052,11.9342531 6.82368238,11.4583027 8.16113151,11.4583027 C8.64875434,11.4583027 9.75394541,11.5772308 11.4768834,11.8153251 C12.2816278,11.9399702 13.1715335,12.0023226 14.1462432,12.0023226 C15.1212506,12.0023226 16.0110372,11.9401489 16.8156625,11.8153251 C18.5615881,11.5771712 19.6664218,11.4583027 20.1314739,11.4583027 C21.4688635,11.4583027 22.5286154,11.9344913 23.3107891,12.8865112 C24.0930223,13.8386501 24.483871,14.9945806 24.483871,16.355196 C24.483871,17.3527742 24.3024715,18.2230273 23.9401489,18.965062 L23.9401489,18.965062 Z" id="Shape"></path>
                            <path d="M9.93796526,13.6686849 C9.59219851,13.2830769 9.18145906,13.0903027 8.70527047,13.0903027 C8.22896278,13.0903027 7.81816377,13.2833151 7.47245658,13.6686849 C7.12692804,14.0538759 6.88305707,14.4847444 6.74143921,14.9603375 C6.59952357,15.4368834 6.52877419,15.9015186 6.52877419,16.355196 C6.52877419,16.808397 6.59970223,17.2730918 6.74143921,17.7495782 C6.88287841,18.225469 7.12663027,18.6560993 7.47245658,19.0412308 C7.81834243,19.4268387 8.22896278,19.6196725 8.70527047,19.6196725 C9.18145906,19.6196725 9.59237717,19.4264814 9.93796526,19.0412308 C10.2836129,18.6560397 10.5273648,18.225469 10.6689826,17.7495782 C10.8107196,17.2730918 10.8816476,16.808397 10.8816476,16.355196 C10.8816476,15.9019355 10.8108983,15.4368834 10.6689826,14.9603375 C10.5273052,14.4849231 10.2837916,14.0542333 9.93796526,13.6686849 L9.93796526,13.6686849 Z" id="Shape"></path>
                            <path d="M20.8199107,13.6686849 C20.474263,13.2830769 20.0634045,13.0903027 19.587335,13.0903027 C19.1114442,13.0903027 18.7003474,13.2833151 18.3545211,13.6686849 C18.0088734,14.0538759 17.7651811,14.4847444 17.6237419,14.9603375 C17.4817072,15.4368834 17.4107792,15.9015186 17.4107792,16.355196 C17.4107792,16.808397 17.4817072,17.2730918 17.6237419,17.7495782 C17.7651811,18.225469 18.008933,18.6560993 18.3545211,19.0412308 C18.7004069,19.4268387 19.1114442,19.6196725 19.587335,19.6196725 C20.0634045,19.6196725 20.4743226,19.4264814 20.8199107,19.0412308 C21.1653797,18.6560397 21.4092506,18.225469 21.5511067,17.7495782 C21.6927841,17.2730918 21.7636526,16.808397 21.7636526,16.355196 C21.7636526,15.9019355 21.6927841,15.4368834 21.5511067,14.9603375 C21.4093102,14.4849231 21.1653797,14.0542333 20.8199107,13.6686849 L20.8199107,13.6686849 Z" id="Shape"></path>
                        </g>
                    </g>
                </g>
                <g id="mail-black-envelope-symbol-copy-3" transform="translate(0.000000, 4.000000)">
                    <g id="Capa_1">
                        <path d="M26.3064296,16.6523836 C26.3064296,17.2352329 26.1442139,17.7755616 25.8843543,18.2509589 L17.5783363,8.85863014 L25.7943007,1.59375342 C26.1139069,2.10635616 26.3064296,2.70849315 26.3064296,3.35917808 L26.3064296,16.6523836 L26.3064296,16.6523836 Z M13.1532419,10.564 L24.5854902,0.454410959 C24.1163551,0.194849315 23.5880698,0.0356712329 23.0182004,0.0356712329 L3.28828336,0.0356712329 C2.71770919,0.0356712329 2.18926122,0.194849315 1.72202365,0.454410959 L13.1532419,10.564 L13.1532419,10.564 Z M16.3404657,9.95238356 L13.6942139,12.2939726 C13.5394258,12.4302466 13.3466863,12.4983014 13.1532419,12.4983014 C12.9596891,12.4983014 12.7669495,12.4302466 12.6121615,12.2939726 L9.96531321,9.95227397 L1.55422366,19.4646575 C2.05838265,19.7843288 2.64923378,19.9758356 3.28822915,19.9758356 L23.0182004,19.9758356 C23.6570873,19.9758356 24.2482095,19.7843288 24.7522059,19.4646575 L16.3404657,9.95238356 L16.3404657,9.95238356 Z M0.512237246,1.59369863 C0.192685348,2.10630137 0,2.70843836 0,3.35917808 L0,16.6524384 C0,17.2352877 0.161456659,17.7756164 0.422292116,18.2510137 L8.72733425,8.8570411 L0.512237246,1.59369863 L0.512237246,1.59369863 Z" id="Shape"></path>
                    </g>
                </g>
                <g id="linked-in-logo-copy-3" transform="translate(118.000000, 0.000000)">
                    <g id="Capa_1">
                        <path d="M25.0900445,14.7140961 L25.0900445,23.9756856 L19.710297,23.9756856 L19.710297,15.3300786 C19.710297,13.1564017 18.9346105,11.6790917 16.988022,11.6790917 C15.4993525,11.6790917 14.6211892,12.6792838 14.2291744,13.6418515 C14.088026,13.9884891 14.0451568,14.4739389 14.0451568,14.9531528 L14.0451568,23.9745852 L8.67070886,23.9745852 C8.67070886,23.9745852 8.7428572,9.33731004 8.67070886,7.82137991 L14.0462587,7.82137991 L14.0462587,10.110917 C14.0389652,10.1297293 14.0232762,10.145345 14.0159302,10.1662533 L14.0462587,10.1662533 L14.0462587,10.110917 C14.7644364,9.01053275 16.0367134,7.44235808 18.8938401,7.44235808 C22.4399179,7.44241048 25.0900445,9.75075983 25.0900445,14.7140961 L25.0900445,14.7140961 Z M3.04319077,0.0329606987 C1.20432634,0.0329606987 0,1.23778166 0,2.82681223 C0,4.37303057 1.16880312,5.61856769 2.97419072,5.61856769 L3.00661812,5.61856769 C4.88625292,5.61856769 6.05085832,4.37303057 6.05085832,2.82681223 C6.01428567,1.23778166 4.88630539,0.0329606987 3.04319077,0.0329606987 L3.04319077,0.0329606987 Z M0.32096829,23.9756332 L5.69756757,23.9756332 L5.69756757,7.82038428 L0.32096829,7.82038428 L0.32096829,23.9756332 L0.32096829,23.9756332 Z" id="LinkedIn_3_"></path>
                    </g>
                </g>
            </g>
            <polygon id="Path-2" points="440 0 1025 676 1025 0"></polygon>
        </g>
    </g>
</svg>