<?xml version="1.0" encoding="UTF-8"?>
<svg width="1188px" height="1681px" viewBox="0 0 1188 1681" version="1.1" xmlns="http://www.w3.org/2000/svg" xmlns:xlink="http://www.w3.org/1999/xlink">
    <!-- Generator: Sketch 55.2 (78181) - https://sketchapp.com -->
    <title>Ethan 5th/Invitation</title>
    <desc>Created with Sketch.</desc>
    <defs>
        <polygon id="path-1" points="0.0481656835 0.202878014 406.580165 0.202878014 406.580165 280.496857 0.0481656835 280.496857"></polygon>
    </defs>
    <g id="Ethan-5th/Invitation" stroke="none" stroke-width="1" fill="none" fill-rule="evenodd">
        <rect id="Rectangle" stroke="#979797" fill="#EE1D2A" x="0.5" y="0.5" width="1187" height="1680"></rect>
        <path d="M1062.51416,1075.55732 C960.906624,955.421293 802.178263,858.137822 586.329079,783.706901 C620.72533,812.887861 643.304147,839.700818 654.065531,864.145774 C618.207371,825.649868 499.216282,790.253105 297.092264,757.955486 C350.595818,787.017522 387.429105,813.222783 407.592124,836.571271 C239.472724,790.44416 115.426768,764.214428 35.4542538,757.882074 C19.6751876,756.632662 132.613454,812.880129 162.038928,848.940704 C129.781482,833.399934 -217.24143,674.106139 -299.575209,688.178591 C-207.500019,820.995249 -147.096001,937.970548 -147.096001,937.970548 C9.5847875,919.358702 319.302252,963.06268 782.056392,1069.08248 C765.848608,1032.54417 731.983182,991.356022 680.460113,945.518039 C720.414191,943.241853 864.006015,1037.768 912.512117,1066.06638 C923.021289,1072.19741 868.487039,998.386795 849.114845,983.251577 C836.200048,973.161432 907.333154,1003.93001 1062.51416,1075.55732 Z" id="Path-2" fill="#FFBB21" transform="translate(381.469477, 881.428357) scale(-1, 1) rotate(-218.000000) translate(-381.469477, -881.428357) "></path>
        <g id="Ethan-Logo" transform="translate(708.000000, 97.000000)">
            <g id="Cars-Copy">
                <g id="Group-3">
                    <mask id="mask-2" fill="white">
                        <use xlink:href="#path-1"></use>
                    </mask>
                    <g id="Clip-2"></g>
                    <path d="M203.809041,202.489198 C200.899057,199.544677 184.51631,183.225618 177.770684,176.40157 C189.67969,178.938741 193.082596,179.660439 194.134212,179.870558 L194.128559,179.905035 C194.310778,179.941107 198.534933,180.932246 201.150307,183.968973 C201.150307,183.970567 203.799398,187.039313 203.799398,187.039313 L206.428471,183.964921 C208.942694,181.056537 212.993475,180.011656 213.445431,179.905035 C213.445431,179.905035 213.440576,179.870558 213.440576,179.868964 C214.486606,179.660439 219.1153,178.711815 230.280933,176.339059 C225.565518,181.114265 204.682495,201.603085 203.809041,202.489198 Z M405.743687,10.8101298 C406.27272,9.90162955 406.580165,8.82313428 406.580165,7.73334586 C406.580165,6.33087021 406.125815,5.01176454 405.233939,3.81376123 L405.17535,3.73357991 L404.293916,2.57085106 C404.255344,2.51631182 402.54069,0.202878014 402.54069,0.202878014 L401.504303,1.24775957 L400.134003,2.62857896 C400.134003,2.62857896 341.666458,62.0542995 340.895818,62.8345229 C255.079004,60.3567407 212.478074,61.0768447 210.703168,61.1064726 C209.28226,61.1353697 207.667959,60.9685634 206.393956,59.5379877 L203.797004,56.5959243 L201.184822,59.5379877 C199.918067,60.9685634 198.300508,61.1353697 196.888445,61.1064726 C195.095916,61.0768447 152.287828,60.3518913 65.7622088,62.8626229 C64.9979798,62.0903712 6.44777912,2.70955745 6.44777912,2.70955745 L4.05795825,0.294286052 L3.17973738,1.47309102 L1.36389158,3.89713121 C0.460784983,5.09998392 0,6.42307541 0,7.8247539 C0,8.97545887 0.329132122,10.1277582 0.92237306,11.0691414 L0.976157578,11.1565636 L1.01950707,11.2391364 L1.17122895,11.4115894 C1.11744377,11.3490121 33.1845455,54.0026199 40.4431178,63.6604504 C36.2398586,63.8104499 9.50388892,64.7566161 9.50388892,64.7566161 L5.57196633,64.9074128 L6.2037394,68.7957087 C6.49995825,70.609587 7.55157908,73.2469348 10.8701919,75.5194475 C15.5149664,78.6989326 17.0803535,79.7726449 18.4835791,85.8757258 L21.4690505,99.1668929 C24.4272223,112.466895 26.9800034,123.952222 29.4733838,131.090552 C30.5884175,135.241115 34.6776835,145.283045 48.259606,148.743132 L48.3960707,148.77442 C48.3960707,148.77442 114.235324,162.83857 115.15533,163.035868 C115.723667,163.795232 203.466283,280.496857 203.466283,280.496857 C203.466283,280.496857 290.873324,164.006945 291.441727,163.249175 C292.354418,163.05108 359.212414,148.769637 359.212414,148.769637 L359.320017,148.743132 C372.903508,145.284639 376.987142,135.249087 378.116633,131.093741 C378.106192,131.120247 378.148754,130.976691 378.148754,130.976691 C380.614828,123.916948 383.161172,112.453277 386.106535,99.1781196 L389.104037,85.8701456 C390.497613,79.7790887 392.061437,78.7077678 396.700572,75.5242969 C400.054532,73.2212927 401.09165,70.5887279 401.375885,68.7812934 C401.37103,68.7860764 401.769983,66.3339362 401.769983,66.3339362 L401.999619,64.9074128 L398.075727,64.7566161 C398.075727,64.7566161 373.960777,63.9042494 366.182821,63.6292281 C368.896953,60.0142927 403.14035,14.375309 403.14035,14.375309 L405.598377,11.095647 C405.598377,11.095647 405.093418,10.8454707 404.604552,10.5976858 C405.126337,10.8045496 405.665811,11.0178572 405.665811,11.0178572 L405.755724,10.8077383 C405.755724,10.8077383 405.73564,10.847065 405.712364,10.8887168 C405.726795,10.851848 405.743687,10.8101298 405.743687,10.8101298 L405.743687,10.8101298 Z" id="Fill-1" fill="#FFE19E" mask="url(#mask-2)"></path>
                </g>
                <g id="Group-23" transform="translate(2.549061, 4.244713)">
                    <path d="M400.730574,1.11122227 L400.064708,0.222111613 C400.064708,0.222111613 202.580638,200.829149 201.199932,202.051825 C199.814435,200.829149 1.98815337,0.309455144 1.98815337,0.309455144 L1.32390272,1.19783517 C-0.169255919,3.18382118 0.972098839,4.97897984 1.01948799,5.06074401 L1.05563255,5.11447855 L201.199932,271.143349 L400.996469,5.03112028 L401.037391,4.97173996 C401.088028,4.89721567 402.220539,3.09641123 400.730574,1.11122227" id="Fill-13" fill="#EE1D2A"></path>
                    <polyline id="Fill-14" fill="#FFE19E" points="201.758137 206.1312 201.755741 232.500578 384.025496 20.9975179 201.758137 206.1312"></polyline>
                    <polygon id="Fill-15" fill="#FFE19E" points="21.1293392 25.953184 200.725236 265.108409 200.725236 234.000695"></polygon>
                    <path d="M199.379862,55.4855266 C197.937341,57.1058653 196.161453,57.2911133 194.610405,57.2558438 L194.607211,57.2558438 C194.006421,57.2438216 133.054408,56.1277506 7.15999509,60.9102573 L3.92146842,61.0337339 L4.42829331,64.2295772 C4.69897156,65.9197244 5.68289922,68.3883913 8.84672538,70.551522 C13.5053138,73.7473654 15.249874,74.9428094 16.7036809,81.2767763 L19.712482,94.6285802 C22.6530197,107.830538 25.1943638,119.232423 27.6545755,126.330496 C27.6577894,126.338533 27.6883113,126.44919 27.6883113,126.44919 C28.7774588,130.502063 32.7509176,140.289255 46.0568175,143.680774 L46.1114336,143.693593 L192.024925,174.842223 C192.17271,174.873507 196.610399,175.92701 199.353379,179.101266 L201.533231,181.624398 L203.70756,179.098012 C206.448079,175.92701 210.878581,174.873507 211.067289,174.82781 C211.067289,174.82781 210.745235,174.863876 210.5709,174.887124 C211.680988,174.701145 222.490485,172.391224 356.880418,143.703224 L356.990409,143.680774 C370.301146,140.289255 374.273786,130.502063 375.361317,126.44753 C375.361317,126.44753 375.393456,126.338533 375.393456,126.330496 C377.864953,119.220401 380.411108,107.79766 383.353242,94.5684693 L386.346014,81.2791675 C387.799781,74.9467946 389.542731,73.7522141 394.206922,70.551522 C397.368372,68.3883913 398.354696,65.9197244 398.622985,64.2295772 L399.129821,61.0337339 L395.89125,60.9102573 C270.199299,56.1349241 210.90187,57.2084857 208.438425,57.2558438 C206.9798,57.2887222 205.126793,57.1162934 203.684271,55.4879177 L201.535693,53.0633543 L199.379862,55.4855266" id="Fill-16" fill="#FFE19E"></path>
                    <path d="M201.530836,177.226735 C204.929236,173.285183 210.162877,172.092197 210.424778,172.029628 C210.429569,172.029628 356.279628,140.897006 356.279628,140.897006 C370.209587,137.349995 372.411996,126.168562 372.645684,125.48064 C375.886651,116.215385 379.401495,98.6422646 383.541218,80.6369435 C385.195004,73.4355191 387.511463,71.6628107 392.578887,68.1863389 C394.941857,66.5699854 395.606924,64.8741924 395.780461,63.7797746 C268.515769,58.9435334 208.496248,60.1269552 208.496248,60.1269552 C206.822367,60.1646159 203.856144,60.017095 201.530836,57.3921396 C199.194349,60.017095 196.230522,60.1646159 194.547791,60.1269552 C194.547791,60.1269552 134.539515,58.9435334 7.27003237,63.7797746 C7.44432736,64.8741924 8.10777155,66.5699854 10.4716067,68.1863389 C15.5494706,71.6628107 17.8554758,73.4355191 19.5076651,80.6369435 C23.6481927,98.6422646 27.1734577,116.215385 30.4023467,125.48064 C30.6376856,126.168562 32.8400746,137.349995 46.7692551,140.897006 L192.625715,172.029628 C192.888349,172.092197 198.12525,173.285183 201.530836,177.226735" id="Fill-17" fill="#FFE19E"></path>
                    <path d="M201.528441,59.1615933 C204.257714,61.4851305 207.408717,61.4210343 208.525991,61.3937353 C209.117133,61.3841043 269.424174,60.281716 393.970039,64.9816615 C393.515371,65.746565 392.822223,66.4801843 391.859189,67.1384157 C386.630339,70.727936 384.038405,72.7860551 382.305037,80.3531268 L379.312332,93.6560449 C376.37898,106.817088 373.851324,118.181312 371.448097,125.061325 C371.443306,125.071753 371.356538,125.373968 371.356538,125.373968 C370.457781,128.718196 367.154201,136.817632 355.963163,139.666293 C356.008943,139.656662 210.16128,170.792539 210.16128,170.792539 C209.231981,171.004156 204.915528,172.167518 201.530836,175.417893 C198.136495,172.169179 193.820907,171.004156 192.91889,170.795727 C192.893206,170.792539 47.0343174,139.656662 47.0343174,139.656662 C35.8970707,136.817632 32.5958992,128.722978 31.6947008,125.377223 L31.6055438,125.071753 C29.2095831,118.19898 26.6843085,106.859597 23.7606387,93.7346208 L20.7462083,80.3531268 C19.0080758,72.7764241 16.4193419,70.7206961 11.1896736,67.1384157 C10.2274313,66.4801843 9.53908786,65.746565 9.08286269,64.9816615 C133.625455,60.2841072 193.927704,61.3841043 194.5253,61.3937353 C195.637717,61.4210343 198.792713,61.4851305 201.528441,59.1615933 Z M200.579047,56.5502542 C198.66662,58.6949863 196.239305,58.8946476 194.579131,58.8569205 C193.975081,58.8473559 133.071243,57.7288937 7.22344768,62.5114004 L5.79052775,62.565932 L6.01381618,63.9770448 C6.23470252,65.3576704 7.05878768,67.3869629 9.7527413,69.2318044 C14.5061093,72.4886222 16.6739574,73.9742593 18.2683235,80.9207601 L21.2787349,94.2846526 C24.2192726,107.488139 26.76061,118.894938 29.2007466,125.896768 C29.1927152,125.877505 29.2368912,126.033063 29.2368912,126.033063 C30.2537495,129.815005 33.9677753,138.948747 46.4535958,142.126126 C46.5025959,142.137351 192.359888,173.269973 192.359888,173.269973 C192.869917,173.390261 197.542958,174.55203 200.565406,178.05414 L201.533231,179.168551 L202.49387,178.05414 C205.512326,174.55203 210.181375,173.390261 210.705045,173.268379 C210.705045,173.268379 210.521128,173.290032 210.461708,173.298069 C210.897013,173.230718 217.494592,171.819605 356.54306,142.137351 C369.085925,138.948747 372.79673,129.81175 373.810335,126.030606 L373.854518,125.87352 C376.301128,118.878067 378.844023,107.445696 381.791015,94.2060766 L384.777332,80.9207601 C386.373295,73.9814992 388.543565,72.4926075 393.295323,69.2318044 C395.989263,67.388557 396.817354,65.3576704 397.037469,63.9770448 L397.262374,62.565932 L395.83183,62.5114004 C269.984042,57.7288937 209.070555,58.8473559 208.470564,58.8569205 C206.807927,58.8946476 204.383008,58.6949863 202.479431,56.5502542 L201.533231,55.4790838 L200.579047,56.5502542 L200.579047,56.5502542 Z" id="Fill-18" fill="#EE1D2A"></path>
                    <path d="M368.467435,72.6385342 C335.38419,68.2945386 271.977581,66.7399565 222.047128,66.7261367 C214.914634,66.7238827 208.057683,66.7527758 201.604762,66.8112926 C195.152573,66.7527758 188.291629,66.7238827 181.15674,66.7261367 C131.231943,66.7399565 67.8035751,68.2945386 34.7139487,72.6385342 C25.0690622,73.9045173 26.5935412,77.4539193 27.8593991,83.7895468 C29.6360849,92.6442547 35.525185,115.909915 36.8448538,121.181545 C38.6552754,126.943827 41.9869754,133.234488 52.2527405,135.726402 C52.292904,135.744867 189.717316,164.50666 200.897109,166.818175 C201.08748,166.860618 201.241719,166.880677 201.362955,166.893497 C201.478669,166.923187 201.561378,166.943246 201.604762,166.962442 C201.655332,166.943246 201.748555,166.918405 201.881036,166.883932 C201.9879,166.874301 202.122044,166.855836 202.28347,166.818175 C213.460867,164.50666 350.885293,135.744867 350.932669,135.726402 C361.192013,133.234488 364.522076,126.943827 366.335758,121.181545 C367.655381,115.909915 373.53965,92.6442547 375.317201,83.7895468 C375.475433,82.9973443 375.638456,82.2493117 375.782249,81.5437885 C376.791063,76.6024693 376.901919,73.7473654 368.467435,72.6385342" id="Fill-19" fill="#EE1D2A"></path>
                </g>
            </g>
            <path d="M135.263508,87.9229152 C135.263508,90.6517305 134.19163,92.9808359 132.04784,94.9103013 C129.904051,96.8397667 127.296965,97.8044849 124.226506,97.8044849 C121.21137,97.8044849 118.631945,96.8397667 116.488156,94.9103013 C114.344367,92.9808359 113.272488,90.6517305 113.272488,87.9229152 C113.272488,86.6549808 113.466118,85.5524457 113.853383,84.6152768 L108.957269,84.6152768 C107.380546,84.6152768 106.045885,85.269907 104.953244,86.5791871 C103.860602,87.8884672 103.31429,89.3424354 103.31429,90.9411352 C103.31429,92.2366334 103.756872,94.0902706 104.64205,96.5021023 C105.527227,98.913934 105.96981,100.767571 105.96981,102.063069 C105.96981,103.606642 104.365449,105.150191 101.156681,106.693763 C96.5371602,108.898866 93.5497307,110.566451 92.1943025,111.696566 C88.957872,114.397818 87.3396811,117.953493 87.3396811,122.3637 C87.3396811,125.671355 89.2206552,127.821298 92.9826599,128.813595 C94.8360004,129.309743 98.0585516,129.557814 102.65041,129.557814 L132.898436,129.557814 C132.538833,131.680226 131.28024,133.361592 129.12262,134.601962 C127.241617,135.649386 125.125521,136.17309 122.774268,136.17309 L88.7089333,136.17309 C83.6191622,136.17309 79.317817,135.304844 75.8047685,133.568325 C71.2682335,131.308094 69,127.917799 69,123.397337 C69,118.490982 71.4618632,114.011933 76.3856634,109.960056 C80.4242861,106.652401 85.1820441,104.240606 90.6590804,102.724597 C89.0823578,99.2791232 88.2940084,96.1506798 88.2940084,93.3391731 C88.2940084,87.9642338 91.1431309,83.9124173 96.8414615,81.183602 C101.239688,79.06119 106.467689,78 112.525623,78 L125.180833,78 C127.974675,78 130.353554,78.9853908 132.317541,80.9562018 C134.281529,82.9270129 135.263508,85.2492275 135.263508,87.9229152 Z M169.868246,129.557814 C168.568141,133.96802 165.110468,136.17309 159.495123,136.17309 L138.333953,136.17309 C134.240006,136.17309 132.193064,134.739795 132.193064,131.87316 C132.193064,131.156502 132.345202,130.384727 132.649481,129.557814 L137.919028,114.673441 L131.114259,114.673441 L133.728286,108.058164 C138.569101,106.817793 142.165081,105.232899 144.516334,103.303434 C147.171867,101.125894 150.007158,97.1843313 153.022294,91.4786265 L161.11333,91.4786265 L155.262889,108.058164 L165.967952,108.058164 C164.25292,112.468371 160.767586,114.673441 155.511844,114.673441 L152.77334,114.673441 L147.586778,129.557814 L169.868246,129.557814 Z M226.629974,129.557814 C225.910767,131.983427 224.37556,133.775047 222.024307,134.932726 C220.336937,135.75964 218.525117,136.17309 216.588791,136.17309 L198.91299,136.17309 C195.787206,136.17309 194.224338,135.042992 194.224338,132.782761 C194.224338,131.90072 194.431799,130.825748 194.846725,129.557814 L197.834185,120.751226 L182.108531,133.651016 C180.172205,135.332407 178.125262,136.17309 175.967642,136.17309 L167.420189,136.17309 L185.178975,86.2277505 L200.116272,86.2277505 L187.627032,121.371409 L200.282242,111.035039 C203.546334,108.361351 207.25296,107.024527 211.402229,107.024527 C214.168409,107.024527 215.551479,108.430259 215.551479,111.241766 C215.551479,112.261626 215.302526,113.43307 214.804614,114.756132 L209.535067,129.557814 L226.629974,129.557814 Z M280.238272,129.557814 C278.910506,133.96802 275.521986,136.17309 270.072612,136.17309 L254.346958,136.17309 C249.865746,136.17309 247.625174,134.739795 247.625174,131.87316 C244.610038,135.291071 240.903413,137 236.505187,137 C233.268756,137 230.640925,136.007718 228.621613,134.023125 C226.602302,132.038532 225.592661,129.447575 225.592661,126.250175 C225.592661,120.489343 227.805572,115.941386 232.23146,112.606167 C236.242421,109.57415 241.207639,108.058164 247.127264,108.058164 L270.819477,108.058164 L263.018888,129.557814 L280.238272,129.557814 Z M253.475615,114.673441 L244.305775,114.673441 L241.401301,124.306938 C241.23533,124.913341 241.152346,125.464609 241.152346,125.960757 C241.152346,128.358807 243.503563,129.557814 248.206069,129.557814 L253.475615,114.673441 Z M337,129.557814 C336.280793,131.983427 334.690264,133.775047 332.228364,134.932726 C330.48567,135.75964 328.618527,136.17309 326.626877,136.17309 L310.071373,136.17309 C306.281707,136.17309 304.386902,134.932738 304.386902,132.451997 C304.386902,131.625083 304.580532,130.660365 304.967797,129.557814 L308.121226,120.668535 L293.847809,132.70007 C290.500732,135.015429 287.748424,136.17309 285.590804,136.17309 L277.956185,136.17309 L287.872891,108.058164 L302.85168,108.058164 L298.163028,121.288718 L310.818238,110.952348 C314.248301,108.168405 317.968757,106.831581 321.979718,106.941836 C324.690575,107.052091 326.045982,108.485387 326.045982,111.241766 C326.045982,112.261626 325.824691,113.405506 325.382102,114.673441 L320.029571,129.557814 L337,129.557814 Z" id="Ethan" fill="#FFE19E" fill-rule="nonzero"></path>
        </g>
        <path d="M23.2778566,434.48953 L46.9634528,395 L67.0524898,402.275311 L43.5914999,441.257813 L66.2411054,451.91313 L91.040626,410.867346 L112,418.29001 L63.8399279,497.944499 C57.8939999,508.111892 50.68895,510.574989 42.2309666,505.306022 L41.8593045,505.256308 L5,482.120999 L16.0045866,463.656626 L48.2738,481.806956 L54.7996776,470.934313 L30.6889867,458.214078 C19.7648622,452.414321 17.2966801,444.496654 23.2778566,434.48953 Z M171.985958,438.016922 C194.589867,445.650249 194.258799,468.23683 170.930656,506.067573 C147.558819,544.205506 126.01168,557.408974 106.329666,545.399848 L93.3644297,537.448393 C73.7007785,525.327791 73.7999015,502.78297 93.6300534,470.020701 C113.428936,437.471262 134.571263,425.185542 157.110381,432.944766 L171.985958,438.016922 Z M152.028204,458.225542 L149.721606,457.316019 C137.674146,452.669504 126.909914,458.109701 117.413644,473.69421 L109.980605,485.91903 C100.617419,501.350853 101.656818,512.247294 113.108122,518.556326 L114.143874,519.12572 C125.601085,525.410338 136.394487,520.233187 146.514216,503.653372 L154.547392,490.523048 C164.809801,473.789293 163.966259,463.042904 152.028204,458.225542 Z M237.190175,462.380809 L196.397059,528.223354 C185.281378,546.293376 184.214582,557.762903 193.206596,562.568983 L194.239672,563.120115 C203.235423,567.91023 213.606332,560.778289 225.34188,541.794295 L268.404581,472.670369 L290.318705,479.794402 L245.648658,551.217626 C222.123025,589.201039 201.641433,603.154106 184.243214,592.795992 L171.229721,585.008815 C153.846668,574.554408 155.495245,552.355359 176.143393,518.630345 L215.430985,455.108625 L237.190175,462.380809 Z M335.945474,529.125692 L265.929253,641.164221 L247.307749,630.306306 L332.675468,493.441889 L382.966966,509.195431 C390.19624,511.260182 393.987116,516.210413 394.295378,524.113316 C394.549986,532.181714 390.874322,542.078877 383.307534,553.768202 C376.191638,564.776859 367.681876,573.336813 357.834374,579.360002 L340.236647,591.379935 C336.974443,593.80722 334.614058,597.171851 333.143537,601.491523 L315.021616,669.441889 L292.21799,656.369836 L307.83249,601.092353 C311.647809,587.816549 317.414492,578.615141 325.233288,573.332865 L358.172951,550.863466 C360.944249,548.984879 363.14603,546.760257 364.77391,544.195884 C366.401573,541.633172 366.169712,539.979893 364.078702,539.234242 L335.945474,529.125692 Z M378.210535,703.918275 L339.890573,682.392245 C329.369411,676.426461 330.720548,662.861095 343.931093,641.791326 L403.68726,547.551221 C415.345684,529.374503 427.260162,522.168775 439.447557,525.852482 L483.896607,539.083356 L461.251321,573.914813 L422.064426,560.361609 L404.143895,588.343697 L435.85504,600.713799 L413.56115,635.533297 L382.833562,621.830669 L365.070511,649.916006 L401.085936,667.758791 L378.210535,703.918275 Z M407.349196,720.652759 L518.738799,548.779833 L540.349196,554.803971 L425.836069,730.779833 L407.349196,720.652759 Z M282.90273,512.684029 L301.389603,484 L323,490.024138 L301.389603,522.811103 L282.90273,512.684029 Z M605.96446,573.096723 L627.767946,579.006857 L514.662608,750.195082 C511.58853,754.945563 508.215802,758.928708 504.550549,762.134774 C500.932511,765.354667 497.675772,767.193857 494.77863,767.652123 C491.926089,768.124487 490.010922,767.098667 489.025544,764.584765 C488.015538,762.190562 488.125205,758.797891 489.351728,754.412768 L518.444,648.313467 L455.373787,745.955602 L436.767946,735.854225 L540.775643,575.404675 C543.506435,571.270548 546.704085,567.672346 550.374787,564.60143 C553.998193,561.606932 557.357517,559.756317 560.451143,559.04967 C563.549831,558.337089 565.79088,558.956188 567.16713,560.915754 C568.548356,562.78459 568.808181,565.639095 567.94359,569.485137 L541.436015,670.380755 L605.96446,573.096723 Z M703.739781,600.134304 L726.249728,605.900139 L563.240213,787.857829 C560.032552,791.384498 556.897011,793.95241 553.83502,795.557721 C550.843454,797.057234 548.498589,797.362671 546.797469,796.476532 C545.056871,795.56913 544.209103,793.615224 544.249728,790.619327 C544.351437,787.533826 545.281235,783.907768 547.041183,779.742115 L637.795861,582.97065 L660.127847,588.912219 L604.430509,709.000116 L703.739781,600.134304 Z M594.76698,820.843959 L737.875538,608.241806 L759.76698,613.637646 L613.290589,830.241806 L594.76698,820.843959 Z M642.036699,842.409837 L760.312919,668.219152 L737.929971,661.636172 L769.620736,616.148593 L838.036699,633.070215 L804.137218,680.868037 L782.796575,674.748115 L661.765384,852.148593 L642.036699,842.409837 Z M743.669601,892.991632 L704.855091,874.556985 C694.198058,869.430253 699.78835,850.599919 721.594113,818.336651 L820.025854,676.277189 C839.190701,649.327676 855.057309,637.457847 867.657784,640.44068 L913.611303,651.139163 L877.279703,701.279796 L836.915645,690.229697 L807.689575,731.64146 L840.244382,741.82579 L804.30611,793.072884 L772.89701,781.644177 L743.864417,823.938463 L780.534816,838.989102 L743.669601,892.991632 Z M817.247303,852.282782 L824.113685,855.003121 C834.784535,859.20917 857.45341,836.580544 892.041535,787.818068 C926.271299,740.333416 937.459315,715.408361 925.687317,712.33487 L910.336584,708.294322 L842.918026,802.633477 L842.787856,802.587932 L771.84372,904.982046 L752.916536,896.186326 L924.53327,652.967925 L966.57715,662.252443 C992.239627,667.926841 974.371336,711.85686 912.693963,796.395778 C851.484639,882.785525 809.916589,922.23451 788.239248,912.528357 L778.739816,908.16436 L817.247303,852.282782 Z M882.657734,855.150981 L1015.27834,673.312079 L1037.65773,677.973781 L902.416678,862.312079 L882.657734,855.150981 Z M830.055599,930.781792 L870.509459,873.080161 L890.055599,880.49014 L848.802838,939.080161 L830.055599,930.781792 Z" id="YOUREINVITED!" fill="#FFE19E" fill-rule="nonzero"></path>
        <g id="Cars-06" transform="translate(705.000000, 1316.000000)" fill="#FFE19E" stroke="#FFE19E" stroke-linecap="round" stroke-linejoin="round" stroke-width="0.7">
            <path d="M156.042951,239.956566 C152.448921,239.566012 147.995449,238.550571 147.995449,238.003795 C147.995449,237.769462 147.526662,237.53513 146.979745,237.53513 C145.573385,237.53513 139.557292,232.926589 137.057097,229.958376 C132.134838,223.94384 129.790906,217.773082 127.91576,205.665898 C126.978187,199.573251 127.134449,199.807584 122.759108,200.510581 C120.493307,200.901136 113.930295,198.948364 105.414007,195.277154 C102.679419,194.105491 100.413617,193.246271 100.179224,193.246271 C100.022962,193.246271 98.6166024,192.621384 97.0539807,191.840276 C95.491359,191.137278 93.8506062,190.512391 93.3818196,190.512391 C92.9130331,190.512391 91.1941492,191.371611 89.6315275,192.387052 C85.2561867,195.199043 82.2872054,195.980151 71.8176398,196.839371 C55.5663739,198.167256 44.0029731,197.151814 38.5337971,193.949269 C27.5173139,187.387957 22.4387933,174.187221 23.4544974,154.815727 C23.8451528,147.082752 23.7670218,146.92653 21.9700068,145.364313 C17.8290592,141.771214 11.4223101,133.022797 7.98454232,126.149041 C3.06228389,116.385184 0.093302608,103.106337 0.0151715217,90.4523776 C-0.0629595646,86.0000585 0.093302608,85.7657259 2.12471085,84.4378412 C5.32808539,82.4850697 5.79687191,79.2044135 3.68733258,73.7366532 C3.68733258,73.7366532 2.04657977,69.4405558 2.04657977,69.4405558 C2.04657977,69.4405558 4.93742996,65.0663476 4.93742996,65.0663476 C4.93742996,65.0663476 7.82828015,60.6921394 7.82828015,60.6921394 C7.82828015,60.6921394 6.65631386,56.7865963 6.65631386,56.7865963 C3.5310704,46.788406 3.37480823,45.694854 3.37480823,33.1190053 C3.37480823,23.8238127 3.68733258,19.6839371 4.46864344,17.6530547 C6.18752734,13.3569573 6.73444494,13.1226247 14.938209,13.1226247 C22.9075798,13.1226247 30.4081641,14.2161768 42.5966135,17.1062787 C42.5966135,17.1062787 50.5659844,18.9809393 50.5659844,18.9809393 C50.5659844,18.9809393 60.5667634,17.3406112 60.5667634,17.3406112 C66.0359394,16.4032809 71.8957709,15.4659506 73.6146548,15.231618 C75.2554076,14.9972854 78.6931754,14.5286202 81.2715013,14.2161768 C83.771696,13.8256225 87.8345125,13.3569573 90.4128384,13.1226247 C92.9130331,12.8882921 97.5227672,12.3415161 100.726142,12.0290727 C103.851385,11.6385184 108.461119,11.1698532 110.961314,10.9355206 C122.368453,9.76385768 127.91576,8.74841648 134.244378,6.79564495 C135.728868,6.32697978 138.072801,5.62398203 139.401029,5.15531686 C140.807389,4.76476255 143.073191,4.0617648 144.557681,3.59309963 C149.089284,2.18710412 156.589868,0.624886892 160.340161,0.312443446 C160.340161,0.312443446 163.934191,0 163.934191,0 C163.934191,0 165.887468,3.0463236 165.887468,3.0463236 C167.684483,6.01453633 169.63776,10.154412 172.841134,17.8092764 C172.841134,17.8092764 174.169363,21.1680435 174.169363,21.1680435 C174.169363,21.1680435 195.264756,21.0118217 195.264756,21.0118217 C210.265925,20.9337109 217.532116,21.1680435 220.501097,21.6367086 C229.408041,23.120815 236.908625,24.6049214 237.611805,25.0735865 C238.00246,25.3079191 238.940033,25.5422517 239.721344,25.5422517 C240.502655,25.5422517 241.674621,25.7765843 242.455932,26.0109169 C243.159112,26.2452495 244.643603,26.7139146 245.659307,27.0263581 C250.112779,28.2761319 258.472805,31.2443446 261.363655,32.6503401 C264.488899,34.1344465 264.56703,34.2125573 267.301618,41.6330892 C268.864239,45.694854 270.583123,50.6158382 271.208172,52.5686098 C271.75509,54.5213813 273.005187,58.2707027 273.94276,60.9264719 C274.802202,63.6603521 276.052299,67.2534517 276.599217,69.0500015 C280.193247,79.9855221 280.115116,79.8293004 283.474753,80.5322982 C285.115505,80.9228525 289.568977,81.4696285 293.397401,81.782072 C312.226992,83.4224 330.900322,85.2970607 336.838285,86.2343911 C362.934067,90.1399341 383.873198,100.60679 396.530434,115.994629 C401.062037,121.46239 403.015315,124.977378 405.281116,131.304358 C406.765607,135.522345 407,137.553227 407,146.457865 C407,152.159958 406.531213,158.096384 406.062427,159.971044 C402.234004,173.640445 401.530824,175.593217 397.077352,184.96652 C393.717715,191.996497 390.983127,196.448817 389.889292,196.448817 C389.654899,196.448817 388.717326,196.917482 387.857884,197.386147 C386.529655,198.245366 385.279558,198.870253 381.13861,200.432471 C380.3573,200.823025 379.185333,201.369801 378.638416,201.682244 C378.091498,202.072799 377.153925,202.541464 376.607007,202.775796 C376.06009,203.010129 373.95055,205.119122 371.997273,207.384337 C367.231277,212.930208 364.184165,214.804869 355.90227,217.070084 C352.151977,218.085525 349.339258,218.632301 342.932509,219.725853 C339.182217,220.35074 334.885007,221.053738 333.400517,221.288071 C331.916026,221.600514 328.868914,222.069179 326.524981,222.381623 C324.25918,222.694066 320.508887,223.162731 318.321217,223.475175 C310.664371,224.568727 306.914078,224.178172 301.913689,221.678625 C299.569756,220.585073 299.569756,220.585073 287.6157,222.459733 C273.161449,224.646838 250.737827,226.209055 232.142629,226.209055 C232.142629,226.209055 218.235296,226.209055 218.235296,226.209055 C218.235296,226.209055 215.266314,230.427041 215.266314,230.427041 C209.250221,238.784904 206.203108,239.566012 177.372737,239.956566 C166.903172,240.112788 157.293048,240.112788 156.042951,239.956566 Z" id="0"></path>
        </g>
        <path d="M868.686965,1411.97183 L866.798991,1426.80282 L881.852798,1426.80282 C887.999799,1426.80282 892.297775,1428.49505 894.745946,1431.87958 C897.192905,1435.2641 897.968318,1440.41687 897.073118,1447.33803 L896.0402,1455.32394 C895.076138,1462.7775 892.928927,1468.2535 889.599441,1471.75211 C886.271207,1475.25072 881.543703,1477 875.415846,1477 C871.664096,1477 867.755026,1476.88592 863.688429,1476.65775 C859.621716,1476.42958 855.919333,1476.16338 852.58116,1475.85915 C848.617511,1475.55493 844.757179,1475.17465 841,1474.71831 L842.941708,1459.3169 L853.905801,1460.22958 C857.069147,1460.45775 860.409319,1460.64789 863.926434,1460.8 C867.443482,1460.95211 870.704124,1461.02817 873.708507,1461.02817 C875.148107,1461.02817 876.356176,1460.51479 877.33283,1459.48803 C878.309592,1458.46126 878.910215,1457.07325 879.134636,1455.32394 L879.866441,1449.61972 C880.451888,1445.05632 878.864765,1442.77465 875.105024,1442.77465 L847.847038,1442.77465 L853.75227,1396 L899,1396 L896.938826,1411.97183 L868.686965,1411.97183 Z M830.626016,1416.47558 C831.276834,1411.96945 829.957204,1409.71642 826.667032,1409.71642 L817.619106,1409.71642 C814.328935,1409.71642 812.351861,1411.96945 811.687881,1416.47558 L806.378654,1452.52442 C805.715321,1457.03055 807.041328,1459.28358 810.356658,1459.28358 L819.473772,1459.28358 C822.789103,1459.28358 824.771808,1457.03055 825.422,1452.52442 L830.626016,1416.47558 Z M840.337179,1452.5 C839.225808,1460.37504 837.109051,1466.09373 833.984577,1469.65625 C830.857287,1473.21877 826.393243,1475 820.594422,1475 L804.854846,1475 C799.056026,1475 795.107842,1473.21877 793.012354,1469.65625 C790.91977,1466.09373 790.459628,1460.37504 791.629904,1452.5 L796.982573,1416.5 C798.154101,1408.62496 800.302119,1402.90627 803.424406,1399.34375 C806.543872,1395.78123 810.965917,1394 816.692791,1394 L832.237085,1394 C837.963958,1394 841.869162,1395.78123 843.954996,1399.34375 C846.04374,1402.90627 846.532857,1408.62496 845.420336,1416.5 L840.337179,1452.5 Z" id="Combined-Shape" fill="#EE1D2A"></path>
        <path d="M86.7880018,1394.99999 L76.5220001,1394.99999 L95.2995013,1351.49999 L107.595503,1351.49999 L107.784005,1394.99999 L97.4600035,1394.99999 L97.8136872,1386.532 L89.8096859,1386.532 L86.7880018,1394.99999 Z M98.458415,1378.876 L99.7673584,1359.38799 L99.6513584,1359.38799 L92.542414,1378.876 L98.458415,1378.876 Z M129.127712,1359.32999 L126.80516,1370.234 C128.731514,1370.176 130.886099,1370.408 132.781887,1369.132 C134.072967,1367.972 134.675587,1366.232 134.996791,1364.724 C135.355057,1363.04199 135.724633,1360.48999 134.157589,1359.67799 C133.245713,1359.32999 131.853712,1359.32999 130.229712,1359.32999 L129.127712,1359.32999 Z M121.530002,1394.99999 L111.322001,1394.99999 L120.5875,1351.49999 L132.709502,1351.49999 C136.653503,1351.49999 142.26338,1351.84799 144.413556,1355.09599 C146.223273,1357.76399 145.995449,1361.01199 145.241855,1364.55 C144.241181,1369.248 142.014967,1374.526 136.917868,1376.672 C133.009247,1378.412 129.002433,1377.89 125.13737,1378.064 L121.530002,1394.99999 Z M160.737712,1359.32999 L158.464576,1370.002 L161.944576,1370.002 C164.902577,1370.002 166.179215,1367.276 166.747499,1364.608 C167.847005,1359.44599 165.750421,1359.21399 160.737712,1359.32999 Z M156.796786,1377.832 L153.140002,1394.99999 L142.932,1394.99999 L152.1975,1351.49999 L167.103502,1351.49999 C175.455504,1351.49999 178.914973,1354.86399 177.074227,1363.50599 C176.085907,1368.146 174.279729,1371.452 169.567692,1373.424 L169.542984,1373.54 C172.24909,1374.178 173.859055,1376.15 173.390647,1379.166 C172.939407,1382.646 171.403741,1390.128 171.390749,1392.912 C171.499209,1393.492 171.678023,1394.014 172.055545,1394.42 L171.932,1394.99999 L160.796003,1394.99999 C160.678959,1394.188 160.619915,1393.376 160.747225,1392.506 C161.388589,1388.678 162.386537,1385.082 162.664821,1382.414 C162.943105,1379.746 162.501725,1378.006 160.160786,1377.832 L156.796786,1377.832 Z M185.910002,1394.99999 L175.702,1394.99999 L184.9675,1351.49999 L195.175502,1351.49999 L185.910002,1394.99999 Z M213.692004,1394.99999 L191.014,1394.99999 L200.2795,1351.49999 L210.487502,1351.49999 L203.075102,1386.3 L215.545104,1386.3 L213.692004,1394.99999 Z M243.691052,1376.15 L235.16505,1376.15 L241.319836,1352.42799 L263.82384,1352.42799 L262.15605,1360.25799 L247.018047,1360.25799 L244.882487,1368.378 C247.295462,1366.58 249.510772,1365.71 252.236773,1365.71 C261.284774,1365.71 261.162046,1373.366 259.593088,1380.732 C257.59174,1390.128 253.199632,1396.044 242.99163,1396.044 C235.509629,1396.044 232.712868,1392.564 232.886056,1385.488 L233.590234,1382.182 L242.754236,1382.182 C242.541492,1384.27 241.188004,1388.446 244.36188,1388.794 C248.103403,1389.2 249.239971,1383.864 249.721777,1381.602 C250.302415,1378.876 251.968523,1372.96 247.792522,1372.96 C245.762522,1372.96 244.297442,1374.12 243.691052,1376.15 Z M265.614,1357 L266.5725,1352.5 L280.252502,1352.5 L279.294002,1357 L275.034002,1357 L271.200002,1375 L265.920001,1375 L269.754001,1357 L265.614,1357 Z M282.630001,1375 L277.35,1375 L282.1425,1352.5 L287.422501,1352.5 L285.582181,1361.14 L289.242182,1361.14 L291.082501,1352.5 L296.362502,1352.5 L291.570003,1375 L286.290002,1375 L288.283682,1365.64 L284.623681,1365.64 L282.630001,1375 Z M320.831568,1367.218 L311.609566,1367.218 L312.091372,1364.956 C313.919764,1356.37199 319.539501,1351.49999 328.297502,1351.49999 C336.127503,1351.49999 340.055786,1355.38599 338.33858,1363.44799 C337.177304,1368.9 334.770188,1372.032 330.230469,1375.918 L325.682167,1379.572 C323.794963,1381.08 319.36266,1384.734 318.321792,1387.17 L333.343794,1387.17 L331.676004,1394.99999 L305.634,1394.99999 L305.94285,1393.55 C307.474746,1386.358 313.262625,1380.152 318.989778,1375.048 L324.386098,1370.408 C326.968259,1368.088 328.059587,1366.232 328.739057,1363.04199 C329.208509,1360.83799 328.716668,1358.51799 325.999252,1358.74999 C322.88819,1358.92399 321.745763,1362.92599 321.276312,1365.13 L320.831568,1367.218 Z M353.473157,1383.342 L357.636455,1363.79599 C357.772349,1363.15799 359.059253,1358.74999 355.579252,1358.74999 C352.447252,1358.74999 351.775322,1361.35999 351.256454,1363.79599 L347.093156,1383.342 C346.54958,1385.894 345.93188,1388.794 349.17988,1388.794 C352.510589,1388.678 353.151953,1384.85 353.473157,1383.342 Z M337.258906,1384.038 L341.570452,1363.79599 C343.423552,1355.09599 348.829501,1351.49999 357.123502,1351.49999 C367.563504,1351.49999 369.040706,1356.54599 366.791234,1366.29 L363.455654,1381.95 C361.429598,1391.462 357.437632,1396.044 347.51963,1396.044 C339.399629,1396.044 335.467576,1392.448 337.258906,1384.038 Z M378.831568,1367.218 L369.609566,1367.218 L370.091372,1364.956 C371.919764,1356.37199 377.539501,1351.49999 386.297502,1351.49999 C394.127503,1351.49999 398.055786,1355.38599 396.33858,1363.44799 C395.177304,1368.9 392.770188,1372.032 388.230469,1375.918 L383.682167,1379.572 C381.794963,1381.08 377.36266,1384.734 376.321792,1387.17 L391.343794,1387.17 L389.676004,1394.99999 L363.634,1394.99999 L363.94285,1393.55 C365.474746,1386.358 371.262625,1380.152 376.989778,1375.048 L382.386098,1370.408 C384.968259,1368.088 386.059587,1366.232 386.739057,1363.04199 C387.208509,1360.83799 386.716668,1358.51799 383.999252,1358.74999 C380.88819,1358.92399 379.745763,1362.92599 379.276312,1365.13 L378.831568,1367.218 Z M411.473157,1383.342 L415.636455,1363.79599 C415.772349,1363.15799 417.059253,1358.74999 413.579252,1358.74999 C410.447252,1358.74999 409.775322,1361.35999 409.256454,1363.79599 L405.093156,1383.342 C404.54958,1385.894 403.93188,1388.794 407.17988,1388.794 C410.510589,1388.678 411.151953,1384.85 411.473157,1383.342 Z M395.258906,1384.038 L399.570452,1363.79599 C401.423552,1355.09599 406.829501,1351.49999 415.123502,1351.49999 C425.563504,1351.49999 427.040706,1356.54599 424.791234,1366.29 L421.455654,1381.95 C419.429598,1391.462 415.437632,1396.044 405.51963,1396.044 C397.399629,1396.044 393.467576,1392.448 395.258906,1384.038 Z M434.858002,1395 L425.056001,1395 L427.168535,1385.082 L436.970536,1385.082 L434.858002,1395 Z M470.645568,1367.218 L461.423566,1367.218 L461.905372,1364.956 C463.733764,1356.37199 469.353501,1351.49999 478.111502,1351.49999 C485.941503,1351.49999 489.869786,1355.38599 488.15258,1363.44799 C486.991304,1368.9 484.584188,1372.032 480.044469,1375.918 L475.496167,1379.572 C473.608963,1381.08 469.17666,1384.734 468.135792,1387.17 L483.157794,1387.17 L481.490004,1394.99999 L455.448,1394.99999 L455.75685,1393.55 C457.288746,1386.358 463.076625,1380.152 468.803778,1375.048 L474.200098,1370.408 C476.782259,1368.088 477.873587,1366.232 478.553057,1363.04199 C479.022509,1360.83799 478.530668,1358.51799 475.813252,1358.74999 C472.70219,1358.92399 471.559763,1362.92599 471.090312,1365.13 L470.645568,1367.218 Z M503.993712,1359.32999 L501.67116,1370.234 C503.597514,1370.176 505.752099,1370.408 507.647887,1369.132 C508.938967,1367.972 509.541587,1366.232 509.862791,1364.724 C510.221057,1363.04199 510.590633,1360.48999 509.023589,1359.67799 C508.111713,1359.32999 506.719712,1359.32999 505.095712,1359.32999 L503.993712,1359.32999 Z M496.396002,1394.99999 L486.188001,1394.99999 L495.4535,1351.49999 L507.575502,1351.49999 C511.519503,1351.49999 517.12938,1351.84799 519.279556,1355.09599 C521.089273,1357.76399 520.861449,1361.01199 520.107855,1364.55 C519.107181,1369.248 516.880967,1374.526 511.783868,1376.672 C507.875247,1378.412 503.868433,1377.89 500.00337,1378.064 L496.396002,1394.99999 Z M527.890002,1394.99999 L518.204,1394.99999 L527.4695,1351.49999 L541.853502,1351.49999 L541.658682,1377.194 L541.774682,1377.194 L552.699504,1351.49999 L566.967507,1351.49999 L557.702007,1394.99999 L547.958005,1394.99999 L556.266157,1360.89599 L556.150157,1360.89599 L541.694004,1394.99999 L534.096003,1394.99999 L534.342154,1360.89599 L534.226154,1360.89599 L527.890002,1394.99999 Z M88.5280021,1456.99999 L78.8420005,1456.99999 L88.1075001,1413.49999 L102.491502,1413.49999 L102.296682,1439.194 L102.412682,1439.194 L113.337504,1413.49999 L127.605507,1413.49999 L118.340007,1456.99999 L108.596005,1456.99999 L116.904157,1422.89599 L116.788157,1422.89599 L102.332004,1456.99999 L94.7340031,1456.99999 L94.9801537,1422.89599 L94.8641536,1422.89599 L88.5280021,1456.99999 Z M147.862004,1456.99999 L123.792,1456.99999 L133.0575,1413.49999 L156.431504,1413.49999 L154.578404,1422.19999 L141.412402,1422.19999 L139.70755,1430.204 L152.467552,1430.204 L150.614452,1438.904 L137.85445,1438.904 L135.853102,1448.3 L149.715104,1448.3 L147.862004,1456.99999 Z M162.652002,1456.99999 L152.966,1456.99999 L162.2315,1413.49999 L176.615502,1413.49999 L176.420682,1439.194 L176.536682,1439.194 L187.461504,1413.49999 L201.729507,1413.49999 L192.464007,1456.99999 L182.720005,1456.99999 L191.028157,1422.89599 L190.912157,1422.89599 L176.456004,1456.99999 L168.858003,1456.99999 L169.104154,1422.89599 L168.988154,1422.89599 L162.652002,1456.99999 Z M217.793299,1444.008 L221.598331,1426.14399 C222.166615,1423.47599 222.614085,1420.28599 219.250084,1420.28599 C216.002084,1420.28599 214.916614,1423.47599 214.34833,1426.14399 L210.543298,1444.008 C210.012076,1446.502 209.62742,1450.214 212.933421,1450.214 C216.239421,1450.214 217.262077,1446.502 217.793299,1444.008 Z M231.954581,1425.44799 L228.186611,1443.138 C226.098785,1452.94 221.589632,1458.044 211.265631,1458.044 C200.941629,1458.044 198.43278,1452.94 200.520606,1443.138 L204.288576,1425.44799 C206.067552,1417.09599 212.043873,1412.45599 220.975874,1412.45599 C229.907876,1412.45599 233.733557,1417.09599 231.954581,1425.44799 Z M247.737712,1421.32999 L245.464576,1432.002 L248.944576,1432.002 C251.902577,1432.002 253.179215,1429.276 253.747499,1426.608 C254.847005,1421.44599 252.750421,1421.21399 247.737712,1421.32999 Z M243.796786,1439.832 L240.140002,1456.99999 L229.932,1456.99999 L239.1975,1413.49999 L254.103502,1413.49999 C262.455504,1413.49999 265.914973,1416.86399 264.074227,1425.50599 C263.085907,1430.146 261.279729,1433.452 256.567692,1435.424 L256.542984,1435.54 C259.24909,1436.178 260.859055,1438.15 260.390647,1441.166 C259.939407,1444.646 258.403741,1452.128 258.390749,1454.912 C258.499209,1455.492 258.678023,1456.014 259.055545,1456.42 L258.932,1456.99999 L247.796003,1456.99999 C247.678959,1456.188 247.619915,1455.376 247.747225,1454.506 C248.388589,1450.678 249.386537,1447.082 249.664821,1444.414 C249.943105,1441.746 249.501725,1440.006 247.160786,1439.832 L243.796786,1439.832 Z M272.910002,1456.99999 L262.702,1456.99999 L271.9675,1413.49999 L282.175502,1413.49999 L272.910002,1456.99999 Z M286.656002,1456.99999 L276.39,1456.99999 L295.167501,1413.49999 L307.463503,1413.49999 L307.652005,1456.99999 L297.328004,1456.99999 L297.681687,1448.532 L289.677686,1448.532 L286.656002,1456.99999 Z M298.326415,1440.876 L299.635358,1421.38799 L299.519358,1421.38799 L292.410414,1440.876 L298.326415,1440.876 Z M332.940004,1456.99999 L310.262,1456.99999 L319.5275,1413.49999 L329.735502,1413.49999 L322.323102,1448.3 L334.793104,1448.3 L332.940004,1456.99999 Z M369.247712,1421.32999 L366.92516,1432.234 C368.851514,1432.176 371.006099,1432.408 372.901887,1431.132 C374.192967,1429.972 374.795587,1428.232 375.116791,1426.724 C375.475057,1425.04199 375.844633,1422.48999 374.277589,1421.67799 C373.365713,1421.32999 371.973712,1421.32999 370.349712,1421.32999 L369.247712,1421.32999 Z M361.650002,1456.99999 L351.442001,1456.99999 L360.7075,1413.49999 L372.829502,1413.49999 C376.773503,1413.49999 382.38338,1413.84799 384.533556,1417.09599 C386.343273,1419.76399 386.115449,1423.01199 385.361855,1426.55 C384.361181,1431.248 382.134967,1436.526 377.037868,1438.672 C373.129247,1440.412 369.122433,1439.89 365.25737,1440.064 L361.650002,1456.99999 Z M389.258002,1456.99999 L378.992,1456.99999 L397.769501,1413.49999 L410.065503,1413.49999 L410.254005,1456.99999 L399.930004,1456.99999 L400.283687,1448.532 L392.279686,1448.532 L389.258002,1456.99999 Z M400.928415,1440.876 L402.237358,1421.38799 L402.121358,1421.38799 L395.012414,1440.876 L400.928415,1440.876 Z M430.959712,1421.32999 L428.686576,1432.002 L432.166576,1432.002 C435.124577,1432.002 436.401215,1429.276 436.969499,1426.608 C438.069005,1421.44599 435.972421,1421.21399 430.959712,1421.32999 Z M427.018786,1439.832 L423.362002,1456.99999 L413.154,1456.99999 L422.4195,1413.49999 L437.325502,1413.49999 C445.677504,1413.49999 449.136973,1416.86399 447.296227,1425.50599 C446.307907,1430.146 444.501729,1433.452 439.789692,1435.424 L439.764984,1435.54 C442.47109,1436.178 444.081055,1438.15 443.612647,1441.166 C443.161407,1444.646 441.625741,1452.128 441.612749,1454.912 C441.721209,1455.492 441.900023,1456.014 442.277545,1456.42 L442.154,1456.99999 L431.018003,1456.99999 C430.900959,1456.188 430.841915,1455.376 430.969225,1454.506 C431.610589,1450.678 432.608537,1447.082 432.886821,1444.414 C433.165105,1441.746 432.723725,1440.006 430.382786,1439.832 L427.018786,1439.832 Z M455.726002,1456.99999 L445.518,1456.99999 L454.7835,1413.49999 L464.991502,1413.49999 L461.285302,1430.9 L461.401302,1430.9 L472.647503,1413.49999 L483.087505,1413.49999 L469.718329,1432.698 L474.402005,1456.99999 L463.614003,1456.99999 L461.212396,1441.862 L458.011492,1446.27 L455.726002,1456.99999 Z M111.898757,1490.696 L101.690755,1490.696 L102.283747,1487.91199 C103.074403,1484.19999 102.148085,1482.28599 100.234084,1482.28599 C97.0564379,1482.22799 95.9318178,1483.96799 95.3264718,1486.80999 L90.6851379,1508.328 C90.16627,1510.764 90.8434201,1512.214 93.5114206,1512.214 C96.9914212,1512.214 98.0473692,1508.618 98.6156531,1505.95 L99.4557251,1502.006 L109.663727,1502.006 L108.527159,1507.342 C106.933493,1514.824 101.529632,1520.044 91.0896305,1520.044 C81.693629,1520.044 79.1020723,1515.056 80.9922343,1506.182 L84.7972661,1488.31799 C86.8109681,1478.86399 92.0998727,1474.45599 101.437874,1474.45599 C110.137876,1474.45599 114.567221,1478.16799 112.677059,1487.04199 L111.898757,1490.696 Z M113.241278,1506.994 L119.9495,1475.49999 L130.157502,1475.49999 L123.165138,1508.328 C122.720394,1510.416 122.97542,1512.214 125.875421,1512.214 C128.543421,1512.214 129.849581,1509.894 130.244909,1508.038 L137.175503,1475.49999 L147.383505,1475.49999 L140.675283,1506.994 C139.106325,1514.36 134.589632,1520.044 124.149631,1520.044 C115.507629,1520.044 111.338762,1515.926 113.241278,1506.994 Z M161.375712,1483.32999 L159.05316,1494.234 C160.979514,1494.176 163.134099,1494.408 165.029887,1493.132 C166.320967,1491.972 166.923587,1490.232 167.244791,1488.724 C167.603057,1487.04199 167.972633,1484.48999 166.405589,1483.67799 C165.493713,1483.32999 164.101712,1483.32999 162.477712,1483.32999 L161.375712,1483.32999 Z M153.778002,1518.99999 L143.570001,1518.99999 L152.8355,1475.49999 L164.957502,1475.49999 C168.901503,1475.49999 174.51138,1475.84799 176.661556,1479.09599 C178.471273,1481.76399 178.243449,1485.01199 177.489855,1488.55 C176.489181,1493.248 174.262967,1498.526 169.165868,1500.672 C165.257247,1502.412 161.250433,1501.89 157.38537,1502.064 L153.778002,1518.99999 Z M199.482004,1518.99999 L175.412,1518.99999 L184.6775,1475.49999 L208.051504,1475.49999 L206.198404,1484.19999 L193.032402,1484.19999 L191.32755,1492.204 L204.087552,1492.204 L202.234452,1500.904 L189.47445,1500.904 L187.473102,1510.3 L201.335104,1510.3 L199.482004,1518.99999 Z M221.985712,1483.32999 L219.712576,1494.002 L223.192576,1494.002 C226.150577,1494.002 227.427215,1491.276 227.995499,1488.608 C229.095005,1483.44599 226.998421,1483.21399 221.985712,1483.32999 Z M218.044786,1501.832 L214.388002,1518.99999 L204.18,1518.99999 L213.4455,1475.49999 L228.351502,1475.49999 C236.703504,1475.49999 240.162973,1478.86399 238.322227,1487.50599 C237.333907,1492.146 235.527729,1495.452 230.815692,1497.424 L230.790984,1497.54 C233.49709,1498.178 235.107055,1500.15 234.638647,1503.166 C234.187407,1506.646 232.651741,1514.128 232.638749,1516.912 C232.747209,1517.492 232.926023,1518.014 233.303545,1518.42 L233.18,1518.99999 L222.044003,1518.99999 C221.926959,1518.188 221.867915,1517.376 221.995225,1516.506 C222.636589,1512.678 223.634537,1509.082 223.912821,1506.414 C224.191105,1503.746 223.749725,1502.006 221.408786,1501.832 L218.044786,1501.832 Z M241.6364,1484.19999 L243.4895,1475.49999 L269.937504,1475.49999 L268.084404,1484.19999 L259.848403,1484.19999 L252.436003,1518.99999 L242.228002,1518.99999 L249.640401,1484.19999 L241.6364,1484.19999 Z M275.114002,1518.99999 L264.906,1518.99999 L274.1715,1475.49999 L284.379502,1475.49999 L275.114002,1518.99999 Z M297.386003,1518.99999 L294.628682,1494.64 L294.487974,1494.756 L290.252002,1518.99999 L280.566,1518.99999 L289.8315,1475.49999 L300.329502,1475.49999 L303.041177,1499.802 L303.215177,1499.802 L307.405503,1475.49999 L317.091505,1475.49999 L307.826005,1518.99999 L297.386003,1518.99999 Z M332.865299,1506.008 L336.670331,1488.14399 C337.238615,1485.47599 337.686085,1482.28599 334.322084,1482.28599 C331.074084,1482.28599 329.988614,1485.47599 329.42033,1488.14399 L325.615298,1506.008 C325.084076,1508.502 324.69942,1512.214 328.005421,1512.214 C331.311421,1512.214 332.334077,1508.502 332.865299,1506.008 Z M347.026581,1487.44799 L343.258611,1505.138 C341.170785,1514.94 336.661632,1520.044 326.337631,1520.044 C316.013629,1520.044 313.50478,1514.94 315.592606,1505.138 L319.360576,1487.44799 C321.139552,1479.09599 327.115873,1474.45599 336.047874,1474.45599 C344.979876,1474.45599 348.805557,1479.09599 347.026581,1487.44799 Z" id="APRIL5TH2020.2PMMEMORIALPARKCUPERTINO" fill="#FFE19E" fill-rule="nonzero"></path>
    </g>
</svg>