<?xml version="1.0" encoding="UTF-8"?>
<svg width="26px" height="25px" viewBox="0 0 26 25" version="1.1" xmlns="http://www.w3.org/2000/svg" xmlns:xlink="http://www.w3.org/1999/xlink">
    <!-- Generator: Sketch 48.2 (47327) - http://www.bohemiancoding.com/sketch -->
    <title>global/linkedInIcon</title>
    <desc>Created with Sketch.</desc>
    <defs></defs>
    <g id="Artboard" stroke="none" stroke-width="1" fill="none" fill-rule="evenodd" transform="translate(-118.000000, 0.000000)">
        <g id="linked-in-logo-copy-2" transform="translate(118.400002, 0.000000)" fill="#FFFFFF">
            <g id="Capa_1">
                <path d="M25.0900445,14.7140961 L25.0900445,23.9756856 L19.710297,23.9756856 L19.710297,15.3300786 C19.710297,13.1564017 18.9346105,11.6790917 16.988022,11.6790917 C15.4993525,11.6790917 14.6211892,12.6792838 14.2291744,13.6418515 C14.088026,13.9884891 14.0451568,14.4739389 14.0451568,14.9531528 L14.0451568,23.9745852 L8.67070886,23.9745852 C8.67070886,23.9745852 8.7428572,9.33731004 8.67070886,7.82137991 L14.0462587,7.82137991 L14.0462587,10.110917 C14.0389652,10.1297293 14.0232762,10.145345 14.0159302,10.1662533 L14.0462587,10.1662533 L14.0462587,10.110917 C14.7644364,9.01053275 16.0367134,7.44235808 18.8938401,7.44235808 C22.4399179,7.44241048 25.0900445,9.75075983 25.0900445,14.7140961 L25.0900445,14.7140961 Z M3.04319077,0.0329606987 C1.20432634,0.0329606987 0,1.23778166 0,2.82681223 C0,4.37303057 1.16880312,5.61856769 2.97419072,5.61856769 L3.00661812,5.61856769 C4.88625292,5.61856769 6.05085832,4.37303057 6.05085832,2.82681223 C6.01428567,1.23778166 4.88630539,0.0329606987 3.04319077,0.0329606987 L3.04319077,0.0329606987 Z M0.32096829,23.9756332 L5.69756757,23.9756332 L5.69756757,7.82038428 L0.32096829,7.82038428 L0.32096829,23.9756332 L0.32096829,23.9756332 Z" id="LinkedIn_3_"></path>
            </g>
        </g>
    </g>
</svg>