<?xml version="1.0" encoding="UTF-8"?>
<svg width="27px" height="25px" viewBox="0 0 27 25" version="1.1" xmlns="http://www.w3.org/2000/svg" xmlns:xlink="http://www.w3.org/1999/xlink">
    <!-- Generator: Sketch 48.2 (47327) - http://www.bohemiancoding.com/sketch -->
    <title>global/mailIcon</title>
    <desc>Created with Sketch.</desc>
    <defs></defs>
    <g id="Artboard" stroke="none" stroke-width="1" fill="none" fill-rule="evenodd">
        <g id="mail-black-envelope-symbol-copy-2" transform="translate(0.300000, 4.000000)" fill="#FFFFFF">
            <g id="Capa_1">
                <path d="M26.3064296,16.6523836 C26.3064296,17.2352329 26.1442139,17.7755616 25.8843543,18.2509589 L17.5783363,8.85863014 L25.7943007,1.59375342 C26.1139069,2.10635616 26.3064296,2.70849315 26.3064296,3.35917808 L26.3064296,16.6523836 L26.3064296,16.6523836 Z M13.1532419,10.564 L24.5854902,0.454410959 C24.1163551,0.194849315 23.5880698,0.0356712329 23.0182004,0.0356712329 L3.28828336,0.0356712329 C2.71770919,0.0356712329 2.18926122,0.194849315 1.72202365,0.454410959 L13.1532419,10.564 L13.1532419,10.564 Z M16.3404657,9.95238356 L13.6942139,12.2939726 C13.5394258,12.4302466 13.3466863,12.4983014 13.1532419,12.4983014 C12.9596891,12.4983014 12.7669495,12.4302466 12.6121615,12.2939726 L9.96531321,9.95227397 L1.55422366,19.4646575 C2.05838265,19.7843288 2.64923378,19.9758356 3.28822915,19.9758356 L23.0182004,19.9758356 C23.6570873,19.9758356 24.2482095,19.7843288 24.7522059,19.4646575 L16.3404657,9.95238356 L16.3404657,9.95238356 Z M0.512237246,1.59369863 C0.192685348,2.10630137 0,2.70843836 0,3.35917808 L0,16.6524384 C0,17.2352877 0.161456659,17.7756164 0.422292116,18.2510137 L8.72733425,8.8570411 L0.512237246,1.59369863 L0.512237246,1.59369863 Z" id="Shape"></path>
            </g>
        </g>
    </g>
</svg>