<?xml version="1.0" standalone="no"?>
<!DOCTYPE svg PUBLIC "-//W3C//DTD SVG 20010904//EN"
 "http://www.w3.org/TR/2001/REC-SVG-20010904/DTD/svg10.dtd">
<svg version="1.0" xmlns="http://www.w3.org/2000/svg"
 width="260.000000pt" height="260.000000pt" viewBox="0 0 260.000000 260.000000"
 preserveAspectRatio="xMidYMid meet">
<metadata>
Created by potrace 1.11, written by Peter Selinger 2001-2013
</metadata>
<g transform="translate(0.000000,260.000000) scale(0.100000,-0.100000)"
fill="#000000" stroke="none">
<path d="M0 1300 l0 -1300 1300 0 1300 0 0 1300 0 1300 -1300 0 -1300 0 0
-1300z m822 476 l3 -584 545 584 544 584 185 0 186 0 -96 -97 c-53 -54 -241
-251 -419 -438 -178 -187 -363 -381 -412 -430 l-88 -91 461 -519 c254 -286
493 -555 531 -597 l70 -78 -198 1 -199 0 -445 500 -445 500 -112 -118 -112
-118 -1 -382 0 -383 -150 0 -150 0 0 1125 0 1125 150 0 150 0 2 -584z"/>
</g>
</svg>
