<?xml version="1.0" encoding="UTF-8"?>
<svg width="40px" height="36px" viewBox="0 0 40 36" version="1.1" xmlns="http://www.w3.org/2000/svg" xmlns:xlink="http://www.w3.org/1999/xlink">
    <!-- Generator: Sketch 55.2 (78181) - https://sketchapp.com -->
    <title>sketch</title>
    <desc>Created with Sketch.</desc>
    <g id="Page-1" stroke="none" stroke-width="1" fill="none" fill-rule="evenodd">
        <g id="icons_portfolio-2" transform="translate(-3.000000, -6.000000)">
            <g id="sketch" transform="translate(0.000000, 0.070501)">
                <rect id="Rectangle" x="0" y="0" width="46.3320463" height="46.3320463"></rect>
                <g id="Group" transform="translate(5.371532, 5.998854)">
                    <path d="M13.7614217,28.8637107 C12.047917,26.9436503 10.1791465,24.2845951 7.51346203,20.8502584 C6.20957944,19.170598 4.92558482,17.4584889 3.70613883,15.7167223 C2.76756668,14.376204 1.82480758,12.9194981 1.94134405,11.2087846 C2.07113916,9.29814478 3.15241615,7.62232244 4.38721424,6.22283808 C6.69596219,3.60739686 9.83302623,1.66221478 13.1731568,0.690496023 C15.0935662,0.131539667 17.3419524,-0.293434641 19.2009533,0.700265547 C19.6583764,0.944852567 20.0913757,1.2592219 20.4430786,1.64232682 C23.669464,5.15830884 18.7634182,8.86619224 18.8122658,12.5796582 C18.8408766,14.7537263 20.153133,16.4278041 21.1482289,18.2491225 C22.9084878,21.4709721 22.2752133,26.0225237 21.3307096,28.3815149 C21.0044773,29.1972702 19.056155,32.2907203 17.7944907,32.3713188 C16.5328264,32.4515685 14.9477211,30.1930638 13.7614217,28.8637107 Z" id="Path" fill="#FF942E"></path>
                    <path d="M32.516815,9.20289191 C31.8650481,7.86865402 31.076508,6.51766837 29.9945331,5.48419226 C26.5019282,2.14789971 19.0052139,-0.776328272 15.6479867,4.23543771 C15.2547633,4.82230699 14.9526059,5.4761673 14.7533774,6.15305577 C13.2139795,11.3766111 16.3245262,15.508422 18.3977589,19.9413437 C19.1985109,21.652755 19.4657772,23.5403667 20.2749032,25.2454976 C20.5397271,25.8030583 20.8565388,26.3424756 21.2368524,26.8295562 C23.3666087,29.5580448 26.2562944,26.7932694 27.9684036,24.9154272 C30.42509,22.2214809 32.5105346,18.9434566 33.5017924,15.4180539 C33.9989914,13.64977 34.2317154,11.8647384 33.5802975,10.1132022 L32.516815,9.20289191 Z" id="Path" fill="#FFC02E"></path>
                    <g transform="translate(17.271123, 9.071701)" id="Path" stroke="#FFD21C" stroke-width="0.5">
                        <path d="M0.405435259,0.104324563 L0.523367375,23.6956323"></path>
                    </g>
                    <g transform="translate(10.292892, 3.489116)" id="Path" stroke="#FFD21C" stroke-width="0.5">
                        <path d="M0.299366138,0.297272669 L7.38366692,5.68690989"></path>
                    </g>
                    <g transform="translate(1.221191, 9.071701)" id="Path" stroke="#FFD21C" stroke-width="0.5">
                        <polyline points="0 1.93262126 16.4553681 0.104324563 33.1466004 2.14685297"></polyline>
                    </g>
                    <g transform="translate(17.620035, 2.442381)" id="Path" stroke="#FFD21C" stroke-width="0.5">
                        <path d="M8.53158603,0.139215722 L0.0565236764,6.73364464"></path>
                    </g>
                    <g id="outline" transform="translate(1.927736, 1.211986)" stroke="#FF0093" stroke-linecap="square" stroke-width="3.02959928">
                        <polygon id="Path" points="8.9495821 1.32586402 16.7390332 0.280088773 24.8599503 1.32586402 33.3123334 9.94398012 16.7390332 31.4892704 0.165733002 9.94398012"></polygon>
                    </g>
                    <g id="outline1" transform="translate(0.183179, 1.211986)" stroke="#00B1FF" stroke-linecap="square" stroke-width="3.08926316">
                        <polygon id="Path" points="8.9495821 1.32586402 16.7390332 0.280088773 24.8599503 1.32586402 33.3123334 9.94398012 16.7390332 31.4892704 0.165733002 9.94398012"></polygon>
                    </g>
                    <g id="outline2" transform="translate(1.055458, 1.278087)" stroke="#000000" stroke-linecap="square" stroke-width="3.08926316">
                        <polygon id="Path" points="8.9495821 1.32586402 16.7390332 0.280088773 24.8599503 1.32586402 33.3123334 9.94398012 16.7390332 31.4892704 0.165733002 9.94398012"></polygon>
                    </g>
                </g>
            </g>
        </g>
    </g>
</svg>