<?xml version="1.0" standalone="no"?>
<!DOCTYPE svg PUBLIC "-//W3C//DTD SVG 20010904//EN"
 "http://www.w3.org/TR/2001/REC-SVG-20010904/DTD/svg10.dtd">
<svg version="1.0" xmlns="http://www.w3.org/2000/svg"
 width="16.000000pt" height="16.000000pt" viewBox="0 0 16.000000 16.000000"
 preserveAspectRatio="xMidYMid meet">
<metadata>
Created by potrace 1.11, written by Peter Selinger 2001-2013
</metadata>
<g transform="translate(0.000000,16.000000) scale(0.001667,-0.001667)"
fill="#000000" stroke="none">
<path d="M2041 9596 c4 -4 151 -91 212 -125 20 -11 53 -30 72 -41 19 -11 52
-30 73 -41 20 -12 49 -30 64 -40 14 -11 29 -19 32 -19 4 0 36 -18 72 -40 36
-22 67 -40 69 -40 2 0 39 -21 82 -46 43 -26 98 -58 123 -72 25 -14 59 -34 75
-44 17 -10 41 -23 55 -30 14 -7 27 -16 30 -19 3 -4 22 -15 42 -25 21 -11 111
-62 200 -114 89 -52 176 -95 193 -97 67 -7 155 -8 155 -2 0 4 17 3 38 0 20 -4
46 -6 57 -4 24 2 50 3 90 3 17 0 39 1 50 3 11 2 33 1 50 -3 16 -4 42 -3 57 1
16 4 30 4 33 -1 2 -4 23 -4 45 0 21 4 42 5 44 2 7 -7 95 -6 102 0 3 3 19 2 37
-1 18 -4 44 -4 59 0 16 4 30 4 33 -1 2 -4 23 -4 45 0 21 4 42 5 45 2 7 -7 174
-4 186 4 5 3 9 2 9 -3 0 -4 21 -7 47 -6 27 1 59 2 73 3 38 1 152 1 175 0 11
-1 27 -1 35 -1 29 1 135 0 213 -2 42 -1 77 1 77 4 0 4 17 3 38 0 20 -4 46 -6
57 -4 24 2 48 3 95 3 19 0 61 1 93 3 31 1 57 0 57 -3 0 -3 21 -4 47 -3 69 3
96 3 113 3 8 -1 39 0 68 0 29 1 56 0 58 -3 3 -3 19 -1 35 3 16 5 31 5 34 1 2
-5 23 -5 45 -1 21 4 42 5 44 2 7 -7 95 -6 102 0 3 3 19 2 37 -1 18 -4 44 -4
59 0 16 4 30 4 33 -1 2 -4 23 -4 45 0 21 4 42 5 45 2 7 -7 162 -5 174 2 5 4
12 2 16 -4 4 -6 11 -8 16 -4 6 3 38 5 72 5 34 -1 97 -3 140 -4 42 -1 77 1 77
5 0 3 8 4 18 2 34 -9 87 -10 107 -4 11 4 29 4 40 0 11 -4 32 -4 46 0 15 4 32
4 39 0 6 -4 27 -4 46 0 19 5 37 4 40 -1 3 -5 10 -7 15 -3 10 6 41 6 192 1 37
-1 67 1 67 4 0 4 15 4 33 0 17 -3 54 -4 80 -1 l48 5 -90 53 c-50 28 -95 52
-101 52 -5 0 -10 5 -10 10 0 6 -4 10 -9 10 -5 0 -39 18 -75 40 -36 22 -70 40
-76 40 -5 0 -10 5 -10 10 0 6 -4 10 -9 10 -7 0 -185 99 -251 140 -29 18 -125
73 -180 103 -30 16 -62 35 -70 41 -8 7 -26 17 -40 24 -14 7 -32 16 -40 22 -44
28 -173 100 -181 100 -5 0 -9 3 -9 8 0 4 -10 12 -23 18 -39 18 -112 59 -117
65 -3 4 -24 16 -47 28 l-42 21 -2072 0 c-1140 0 -2070 -2 -2068 -4z"/>
<path d="M2030 7200 l0 -2000 23 -13 c84 -53 480 -277 487 -277 6 0 10 -4 10
-10 0 -5 4 -10 9 -10 7 0 64 -31 111 -60 29 -19 243 -140 246 -140 2 0 23 -13
47 -30 25 -16 48 -30 51 -30 4 0 23 -11 44 -23 20 -13 57 -35 82 -49 25 -14
61 -34 80 -45 19 -11 51 -29 70 -39 19 -11 37 -21 40 -25 17 -19 93 -47 128
-47 23 0 46 -3 51 -7 5 -3 12 -1 15 4 3 5 21 6 40 1 19 -4 53 -4 75 0 23 4 59
4 81 0 22 -4 43 -4 45 0 3 4 20 4 39 0 19 -4 53 -4 76 0 23 4 56 4 75 0 18 -4
38 -4 45 0 7 4 27 4 45 0 19 -4 52 -4 74 0 23 4 59 4 81 0 22 -4 43 -4 45 0 3
4 20 4 39 0 19 -4 53 -4 76 0 23 4 56 4 75 0 18 -4 38 -4 45 0 7 4 27 4 45 0
19 -4 52 -4 74 0 23 4 59 4 81 0 22 -4 43 -4 45 0 3 4 20 4 39 0 19 -4 53 -4
76 0 23 4 56 4 75 0 18 -4 38 -4 45 0 7 4 27 4 45 0 19 -4 52 -4 74 0 23 4 41
4 41 0 0 -4 18 -4 41 0 22 4 55 4 74 0 18 -4 38 -4 45 0 7 4 28 4 48 -1 20 -4
40 -5 44 -3 5 3 34 5 66 5 56 0 73 7 187 76 11 7 27 15 35 20 8 4 47 26 85 48
39 23 151 88 250 145 99 57 244 141 323 187 79 46 147 83 152 83 6 0 10 3 10
8 0 4 10 12 23 18 44 21 142 77 147 84 3 3 12 9 20 12 8 3 58 31 110 62 83 49
91 56 65 57 -17 1 -34 1 -39 0 -5 -1 -32 -2 -60 -2 -28 0 -78 0 -111 0 -33 0
-69 0 -80 0 -11 0 -63 0 -115 0 -93 0 -107 0 -132 2 -19 1 -187 0 -238 -2 -25
-1 -51 -1 -57 0 -29 2 -42 3 -133 2 -52 0 -104 0 -115 0 -17 0 -92 0 -147 -1
-10 0 -26 0 -35 0 -10 0 -43 -1 -73 -1 -30 0 -62 0 -70 0 -8 -1 -46 0 -85 0
-73 1 -81 1 -155 0 -25 0 -61 0 -80 0 -30 1 -60 0 -160 0 -8 -1 -46 0 -85 0
-73 1 -81 1 -155 0 -25 0 -52 0 -60 0 -8 0 -64 0 -125 0 -105 0 -118 0 -147 2
-19 1 -187 0 -238 -2 -25 -1 -51 -1 -57 0 -30 3 -43 3 -135 1 -53 -1 -102 1
-107 5 -6 3 -11 1 -11 -5 0 -6 -4 -8 -10 -5 -5 3 -43 6 -82 5 -40 0 -84 0 -98
1 -14 0 -32 1 -40 0 -38 -1 -138 0 -165 2 l-30 2 -1 1585 c-1 872 -2 1592 -3
1601 0 9 -19 24 -41 34 -22 10 -40 22 -40 27 0 4 -5 8 -11 8 -6 0 -45 20 -85
45 -41 24 -74 41 -74 37 0 -4 -4 -2 -8 4 -7 10 -140 92 -172 105 -8 4 -73 41
-144 83 -70 42 -132 76 -137 76 -5 0 -9 5 -9 10 0 6 -3 9 -7 8 -5 -1 -19 5
-33 14 -21 13 -206 120 -330 190 -19 11 -75 44 -125 73 -49 29 -107 62 -127
74 l-38 21 0 -2000z"/>
<path d="M2030 2401 l0 -2401 58 32 c31 18 59 35 62 38 3 4 20 13 38 21 17 8
32 17 32 20 0 4 8 9 18 13 9 3 24 10 32 15 8 6 56 33 105 61 50 28 97 55 105
60 66 39 192 110 197 110 4 0 14 6 22 14 15 12 57 37 141 82 19 11 37 22 38
27 2 4 8 7 12 7 5 0 50 24 100 54 49 30 90 51 90 48 0 -4 4 -2 8 3 4 6 72 48
152 94 80 46 152 89 160 97 13 11 15 201 15 1609 l0 1596 -50 27 c-28 15 -52
30 -55 33 -9 9 -135 77 -144 77 -5 0 -12 5 -15 10 -6 9 -73 51 -121 74 -14 7
-60 34 -103 60 -43 27 -80 48 -83 48 -2 0 -33 18 -69 40 -36 22 -70 40 -75 40
-6 0 -10 5 -10 10 0 6 -3 9 -7 8 -5 -1 -19 5 -33 14 -43 27 -151 88 -156 88
-3 0 -18 8 -32 19 -15 10 -44 28 -64 40 -21 11 -54 30 -73 41 -19 11 -52 29
-72 41 -34 19 -95 55 -190 111 l-33 20 0 -2401z"/>
</g>
</svg>
