<svg class="header__logo" viewBox="0 0 258 273" xmlns="http://www.w3.org/2000/svg">
    <path d="M88.8880967,227.959041 L88.3907717,44.2671809 C88.3452367,32.0197662 84.0482919,21.6224959 75.4998085,13.0750582 C66.9513251,4.52762047 56.648476,0.231557038 44.5909522,0.186739013 C34.501302,0.149235608 25.6624836,3.09776556 18.0743166,9.03240305 C6.53507326,17.7922199 0.836169796,29.2526573 0.888819631,43.4137306 L1.38614464,227.105591 C1.43167964,239.353005 5.72862439,249.750276 14.2771078,258.297713 C22.8255912,266.845151 33.1284403,271.141214 45.1859641,271.186032 C55.2756144,271.223536 64.1144327,268.275006 71.7025997,262.340368 C83.2418431,253.580552 88.9407465,242.120114 88.8880967,227.959041 L88.8880967,227.959041 Z M71.0914147,110.133853 L45.0826872,118.685208 L19.0739598,110.133853 L14.7391719,50.2743731 L75.4262026,50.2743731 L71.0914147,110.133853 L71.0914147,110.133853 Z M23.5663764,58.1015776 L24.373238,66.7448819 L53.6892116,66.7448819 L53.6892116,75.3881863 L25.1128612,75.3881863 L25.9197229,84.0314907 L53.6892116,84.0314907 L53.6892116,96.9964472 L45.0826872,99.1572733 L36.4761629,96.9964472 L36.4761629,88.3531429 L26.3231537,88.3531429 L27.8696385,105.639752 L45.0826872,109.961404 L62.2957359,105.639752 L66.5989981,58.1015776 L23.5663764,58.1015776 Z M85.8207183,17.8845233 C116.843883,21.2001384 155.898581,25.0011724 159.430606,25.4771321 C163.549458,25.967608 168.987213,25.2876797 175.744034,23.4373268 C182.500855,21.5869739 188.797189,19.4545923 194.633224,17.040118 C200.469259,14.6256438 206.57805,12.6506293 212.95978,11.1150153 C219.34151,9.57940136 224.429357,9.32038802 228.223475,10.3379675 C232.756481,11.626715 237.367543,15.1414307 242.0568,20.8822202 C247.749062,27.8183447 252.566729,35.9973972 256.509946,45.4196229 L252.909088,48.4411016 L228.801792,35.2508756 L227.97556,35.180312 C227.349717,35.1962171 226.333127,35.5081795 224.925758,36.1162083 C223.518389,36.7242371 222.027035,37.6891888 220.451651,39.0110923 C218.876268,40.3329959 217.764118,41.711778 217.115168,43.14748 C216.466219,44.583182 216.201871,45.7916322 216.322117,46.7728668 C216.442363,47.7541014 216.772246,48.7185484 217.311775,49.6662369 C217.851305,50.6139253 218.265194,51.2214404 218.553454,51.4888003 C218.841715,51.7561601 219.079873,52.001899 219.267937,52.2260244 L244.523657,67.698991 L237.321941,73.7419484 L228.02838,74.0925868 C221.907661,74.2633991 215.42376,74.2297998 208.576483,73.9917879 C201.729206,73.7537761 197.685433,73.2003607 196.445042,72.3315252 C193.789564,70.9950622 190.39139,68.8496353 186.250417,65.8951802 C182.109445,62.9407251 177.762237,60.1594181 173.208664,57.5511758 C168.655091,54.9429335 163.776858,52.861826 158.573817,51.3077909 C155.584675,50.4149993 122.759936,47.1426328 93.3911586,44.4033229 L93.3907534,44.253644 C93.3542352,34.4309609 90.8176863,25.6065447 85.8207183,17.8845233 Z M116.576224,51.3897976 L168.084479,85.1772939 L239.740353,132.009971 C241.27441,133.019017 242.312193,134.54925 242.853733,136.600716 C243.395272,138.652182 243.230721,140.539077 242.360075,142.261458 C241.489429,143.983838 239.778453,145.251329 237.227097,146.063968 C234.675741,146.876607 231.452685,147.218234 227.557833,147.088858 C223.662981,146.959482 219.069569,146.366417 213.777459,145.309646 C208.485349,144.252874 202.792783,142.770219 196.69959,140.861635 C190.606397,138.953051 184.010163,136.557358 176.91069,133.674485 C169.811216,130.791612 162.536072,127.570325 155.085039,124.010526 C147.634005,120.450727 139.814357,116.367296 131.625858,111.760109 C123.43736,107.152923 115.356654,102.189694 107.383499,96.870274 C105.741916,95.8904677 104.657689,94.4025763 104.130786,92.4065552 C103.603882,90.410534 103.795314,88.5163292 104.705087,86.7238839 L107.903913,80.5058014 L93.4666252,72.2778094 L93.4666252,72.2778094 L93.4040646,49.1703128 C101.130515,49.8951307 109.055943,50.6537302 116.576224,51.3897976 L116.576224,51.3897976 Z M93.6717972,148.060476 L97.5922171,154.850843 L111.833464,146.628655 C112.888377,146.019601 113.720348,146.242527 114.329402,147.297439 L116.017891,150.425006 C116.651715,151.387476 116.441174,152.173226 115.386262,152.78228 L101.145014,161.004468 L113.833576,182.981701 L128.074823,174.759513 C129.129736,174.150459 129.961706,174.373385 130.57076,175.428298 L132.25925,178.555865 C132.893074,179.518335 132.682533,180.304085 131.62762,180.913139 L117.386373,189.135327 L130.074935,211.11256 L144.316182,202.890372 C145.371095,202.281318 146.203065,202.504244 146.812119,203.559157 L148.500609,206.686723 C149.134433,207.649193 148.923892,208.434944 147.868979,209.043998 L133.627732,217.266185 L140.022767,228.342711 C140.631821,229.397624 141.537211,230.086074 142.738965,230.408083 C143.940719,230.730092 145.115255,230.598956 146.26261,230.014672 L174.393469,213.773313 C175.473151,213.071817 176.173987,212.120206 176.495995,210.918452 C176.818004,209.716699 176.674484,208.588383 176.06543,207.53347 L120.370058,111.066256 C115.139606,107.930473 109.985463,104.66813 104.962467,101.313879 C102.168752,99.6472754 100.283919,97.0620588 99.4286032,93.8236343 C98.5892421,90.645618 98.9086471,87.4867815 100.392965,84.5640535 L101.413974,82.5803879 L93.4822933,78.0649767 L93.6717972,148.060476 Z" />
</svg>
