<?xml version="1.0" encoding="UTF-8" standalone="no"?>
<!-- Created with Inkscape (http://www.inkscape.org/) -->

<svg
   xmlns:dc="http://purl.org/dc/elements/1.1/"
   xmlns:cc="http://creativecommons.org/ns#"
   xmlns:rdf="http://www.w3.org/1999/02/22-rdf-syntax-ns#"
   xmlns:svg="http://www.w3.org/2000/svg"
   xmlns="http://www.w3.org/2000/svg"
   xmlns:sodipodi="http://sodipodi.sourceforge.net/DTD/sodipodi-0.dtd"
   xmlns:inkscape="http://www.inkscape.org/namespaces/inkscape"
   version="1.1"
   id="svg5307"
   width="461"
   height="267"
   viewBox="0 0 461 267"
   sodipodi:docname="triangle.svg"
   inkscape:version="0.92.2 5c3e80d, 2017-08-06">
  <metadata
     id="metadata5313">
    <rdf:RDF>
      <cc:Work
         rdf:about="">
        <dc:format>image/svg+xml</dc:format>
        <dc:type
           rdf:resource="http://purl.org/dc/dcmitype/StillImage" />
        <dc:title></dc:title>
      </cc:Work>
    </rdf:RDF>
  </metadata>
  <defs
     id="defs5311" />
  <sodipodi:namedview
     pagecolor="#ffffff"
     bordercolor="#666666"
     borderopacity="1"
     objecttolerance="10"
     gridtolerance="10"
     guidetolerance="10"
     inkscape:pageopacity="0"
     inkscape:pageshadow="2"
     inkscape:window-width="1282"
     inkscape:window-height="619"
     id="namedview5309"
     showgrid="false"
     inkscape:zoom="1"
     inkscape:cx="131.12112"
     inkscape:cy="158.34472"
     inkscape:window-x="0"
     inkscape:window-y="0"
     inkscape:window-maximized="0"
     inkscape:current-layer="svg5307" />
  <path
     style="fill:#000000"
     d="m 110.19214,258.55698 c 60.13148,-0.1424 158.23148,-0.14239 218,2e-5 59.76852,0.1424 10.57003,0.25891 -109.32997,0.2589 -119.9,-10e-6 -168.80152,-0.11653 -108.67003,-0.25892 z m 1.42685,-7.00004 c -1.60116,-2.0625 -6.20783,-9.15 -10.23702,-15.75 -4.0292,-6.6 -10.25752,-16.725 -13.84071,-22.5 -15.962691,-25.72689 -19.112687,-30.954 -23.003462,-38.17196 -2.274526,-4.21958 -5.477024,-9.94719 -7.116664,-12.72803 -1.63964,-2.78083 -6.916727,-13.05345 -11.72686,-22.82804 -4.810133,-9.77458 -11.356656,-22.47045 -14.547827,-28.21305 -3.191172,-5.74259 -5.460615,-10.77891 -5.043207,-11.19182 0.417409,-0.41291 6.608925,-1.03502 13.758925,-1.38246 7.15,-0.34744 18.85,-1.27307 26,-2.05696 7.15,-0.78389 16.2625,-1.4258 20.250005,-1.42647 6.82776,-0.001 7.15984,-0.10313 5.70201,-1.75121 -5.19197,-5.869508 -12.516334,-16.677501 -12.247616,-18.072841 0.417546,-2.168146 5.651653,-3.04708 18.576986,-3.119529 8.51509,-0.04773 10.38632,0.215818 10.89218,1.534071 0.35268,0.919091 -1.35086,5.378279 -4.03138,10.552467 -2.55321,4.928422 -4.64196,9.274652 -4.64169,9.658302 2.7e-4,0.38364 10.01277,0.77206 22.25,0.86315 12.23722,0.0911 27.00099,0.20359 32.80837,0.25 6.98677,0.0558 11.16279,0.52597 12.344,1.3897 1.68868,1.23479 1.54078,2.19387 -2.73731,17.75 -2.48735,9.04457 -5.05127,17.79468 -5.69759,19.44468 -2.21906,5.66502 -18.14728,52.0049 -22.17034,64.5 -8.39435,26.0718 -18.13503,54.5479 -19.07015,55.75 -1.63937,2.10743 -3.43122,1.41513 -6.47065,-2.5 z m 11.56405,-27.75 c 3.83265,-12.1 6.85332,-22.12505 6.71258,-22.27789 -0.48987,-0.53197 -43.53345,-1.16987 -43.53345,-0.64516 0,0.29061 2.88695,5.02327 6.41545,10.51703 3.5285,5.49375 6.65151,9.6067 6.94002,9.13988 0.28851,-0.46682 0.83453,-3.18541 1.21338,-6.04131 0.45914,-3.46118 1.15647,-5.19255 2.09137,-5.19255 0.7714,0 1.71358,0.7875 2.09372,1.75 0.54262,1.37389 0.80664,1.10523 1.22843,-1.25 0.38476,-2.14843 1.1022,-3 2.52745,-3 1.68507,0 2.06683,0.8432 2.49018,5.5 0.47312,5.2043 0.54032,5.31855 1.25,2.125 0.4125,-1.85625 0.75,-4.44375 0.75,-5.75 0,-1.70833 0.56139,-2.375 1.99999,-2.375 1.1,0 2,0.45 2,1 0,2.00714 1.87012,0.93504 2.18045,-1.25 0.17575,-1.2375 0.99456,-2.25 1.81955,-2.25 1.20416,0 1.47495,1.39754 1.373,7.08593 -0.12761,7.11965 -1.65508,11.9758 -3.42317,10.88306 -0.52241,-0.32286 -0.94983,-2.36047 -0.94983,-4.52801 0,-2.16754 -0.37064,-3.94098 -0.82363,-3.94098 -0.453,0 -1.2405,1.6875 -1.75,3.75 -0.84188,3.40799 -1.19998,3.72061 -3.92636,3.42777 -1.65,-0.17722 -3.54088,-1.02117 -4.20196,-1.87542 -1.397,-1.80524 -4.29804,-1.05159 -4.29804,1.11658 0,0.81493 -0.76669,1.91075 -1.70376,2.43516 -1.5032,0.84124 -0.83925,2.38435 5.64047,13.10923 4.03932,6.68567 7.69779,11.79146 8.12995,11.34622 0.43215,-0.44525 3.92154,-10.70954 7.75421,-22.80954 z m 14.80806,-45 c 3.44572,-9.9 6.28882,-18.7875 6.318,-19.75 0.0457,-1.50765 -0.95098,-1.75466 -7.19694,-1.78368 -3.9875,-0.0185 -11.975,-0.49533 -17.75,-1.05959 -9.77677,-0.95526 -59.045504,-2.80487 -59.871506,-2.24766 -0.204332,0.13784 1.64473,3.75844 4.109025,8.04577 2.464295,4.28734 6.415797,11.39516 8.781115,15.79516 2.365318,4.4 5.855066,10.34382 7.754995,13.20849 l 3.454416,5.20849 7.135985,0.35409 c 3.92479,0.19474 14.75538,0.32592 24.06798,0.2915 l 16.932,-0.0626 6.26493,-18 z m -42.98535,5.81025 c -0.35397,-0.35397 -0.64358,-1.90275 -0.64358,-3.44173 0,-1.8481 0.73706,-3.19262 2.17083,-3.95995 1.76135,-0.94264 2.39051,-0.86137 3.33539,0.43082 0.97389,1.33188 1.13119,3.156 0.57711,6.6925 -0.12385,0.79049 -4.69377,1.02434 -5.43975,0.27836 z m 9.85621,-3.30927 c 0.54275,-2.47116 0.38072,-2.89236 -0.92055,-2.39301 -1.02352,0.39276 -1.57924,0.0565 -1.57924,-0.95567 0,-0.99695 1.28252,-1.80228 3.54663,-2.22703 4.08181,-0.76575 5.50663,0.0387 3.25031,1.83506 -0.85638,0.68182 -1.84461,2.47717 -2.19605,3.98967 -0.35145,1.5125 -1.11618,2.75 -1.6994,2.75 -0.6579,0 -0.81038,-1.13834 -0.4017,-2.99902 z m 5.56524,0.57738 c -0.9109,-1.09757 -0.88398,-1.89541 0.11811,-3.5 0.71387,-1.1431 2.26221,-2.07836 3.44078,-2.07836 2.84271,0 4.00597,4.00679 1.66934,5.75 -2.18836,1.63259 -3.77405,1.58053 -5.22823,-0.17164 z m 4.43496,-2.57836 c 0.33992,-0.55 0.16803,-1 -0.38197,-1 -0.55,0 -1.2781,0.45 -1.61802,1 -0.33993,0.55 -0.16803,1 0.38197,1 0.55,0 1.2781,-0.45 1.61802,-1 z M 78.160512,166.22753 c 0.248579,-1.69368 1.183142,-3.34835 2.076807,-3.67706 0.893665,-0.32871 1.912034,-1.02562 2.263043,-1.5487 1.056334,-1.57418 2.861803,0.2526 2.861803,2.89557 0,1.48164 -0.70126,2.6894 -1.75,3.01398 -0.9625,0.29789 -2.531394,0.95877 -3.486431,1.46862 -0.955037,0.50985 -1.889601,0.927 -2.076807,0.927 -0.187207,0 -0.136994,-1.38573 0.111585,-3.07941 z m 9.344768,2.18902 c -0.93738,-0.59395 -1.1447,-1.82591 -0.67055,-3.98469 0.54948,-2.50174 1.19399,-3.12492 3.2319,-3.12492 2.31766,0 2.48958,0.27974 1.92054,3.125 -0.34375,1.71875 -0.625,3.51875 -0.625,4 0,1.11202 -2.09077,1.10367 -3.85689,-0.0154 z m 7.59246,0.29262 c -0.32878,-0.32877 -0.35564,-1.22877 -0.0597,-2 0.29595,-0.77122 0.0399,-1.40223 -0.56891,-1.40223 -1.69436,0 -1.3157,-2.70593 0.4748,-3.39301 1.99954,-0.76729 5.41821,-0.78973 5.41821,-0.0356 0,0.31428 -0.67499,1.24643 -1.5,2.07143 -0.82499,0.825 -1.5,2.36785 -1.5,3.42857 0,1.88789 -1.07535,2.51988 -2.26443,1.3308 z m 25.26442,-0.90223 c 0.93906,-1.13149 0.95205,-1.5 0.0529,-1.5 -0.66414,0 -1.05049,-0.99634 -0.87243,-2.25 0.3112,-2.19129 2.74862,-3.24524 2.8908,-1.25 0.0392,0.55 0.75828,1.75914 1.59796,2.68699 1.95095,2.15577 0.92928,3.81301 -2.35067,3.81301 -2.16522,0 -2.37005,-0.23301 -1.31855,-1.5 z m -19.98634,-0.875 c 0.0426,-3.50927 1.30238,-5.375 3.62931,-5.375 1.7566,0 2.31281,0.42289 1.91606,1.45679 -0.30746,0.80123 -0.55902,2.26373 -0.55902,3.25 0,1.24609 -0.76276,1.79321 -2.5,1.79321 -1.375,0 -2.49386,-0.50625 -2.48635,-1.125 z m 6.45303,-0.72999 c -0.76027,-2.39538 1.38389,-5.44443 2.81927,-4.00906 0.6276,0.62761 1.58542,0.58681 2.7099,-0.11544 2.0735,-1.29492 4.81125,-0.43676 5.6596,1.77403 0.92443,2.40901 -1.13075,3.78618 -6.08578,4.07807 -3.71625,0.21892 -4.57777,-0.0728 -5.10299,-1.7276 z m 43.17955,-22.39501 c 4.4635,-11.53294 13.62819,-42.55833 12.81299,-43.37598 -0.96141,-0.96431 -41.74736,-1.89204 -62.95922,-1.43209 -10.45,0.22659 -23.275005,0.86682 -28.500005,1.42274 -5.225,0.55592 -15.125,1.23109 -22,1.50037 -18.936176,0.7417 -17.831943,-0.24169 -11.954893,10.64665 2.742539,5.08107 8.241838,15.4089 12.220664,22.95073 6.341566,12.02038 7.604412,13.80018 10.234229,14.42364 1.65,0.39118 10.2,0.65538 19,0.58713 8.800005,-0.0683 22.750005,0.47517 31.000005,1.20762 8.24999,0.73245 19.87418,1.27265 25.83152,1.20046 l 10.83152,-0.13127 z m -31.88849,2.9244 c -0.37807,-0.37805 -0.20434,-1.58992 0.38603,-2.69304 0.59036,-1.10311 0.823,-3.54862 0.51697,-5.43446 -0.39112,-2.41022 -0.20058,-3.31184 0.64142,-3.03512 1.70266,0.55957 2.04185,7.88955 0.46479,10.04411 -0.72703,0.99323 -1.63117,1.49656 -2.00921,1.11851 z M 87.7517,143.87967 c -0.30123,-0.785 -0.39961,-2.43177 -0.21861,-3.65949 0.35693,-2.42112 3.473,-3.45365 5.456,-1.80789 0.79496,0.65975 1.41197,0.64074 1.84307,-0.0568 0.35642,-0.57671 1.79896,-1.04856 3.20565,-1.04856 2.06487,0 2.45691,0.38513 2.03487,1.999 -0.28752,1.09946 -0.10767,2.25555 0.39967,2.5691 1.6703,1.0323 -0.0908,2.29869 -3.07844,2.21374 -1.64255,-0.0467 -3.1905,-0.75316 -3.51751,-1.60532 -0.4793,-1.24905 -0.85686,-1.13237 -2.10583,0.65078 -1.75818,2.51015 -3.23646,2.78435 -4.01887,0.74543 z m 15.1367,-1.17304 c -2.02846,-3.09581 -1.36079,-5.39969 1.56483,-5.39969 1.80113,0 1.94996,0.24563 0.90894,1.5 -1.04007,1.2532 -0.89568,1.5 0.87755,1.5 2.64564,0 2.79205,2.57127 0.22466,3.94529 -1.54338,0.826 -2.21117,0.53737 -3.57598,-1.5456 z m 7.02665,1.68588 c -0.31082,-0.50293 -0.44988,-2.52703 -0.30902,-4.49799 0.2273,-3.18002 0.56581,-3.5838 3.00614,-3.58558 1.51249,-0.001 2.74999,0.448 2.74999,0.998 0,0.55 -0.5625,1.00689 -1.25,1.01531 -0.96937,0.0119 -0.96068,0.19888 0.0387,0.83297 0.96124,0.60986 1.03106,1.49544 0.27476,3.48469 -0.99597,2.61959 -3.39798,3.55289 -4.51062,1.7526 z m -34.979474,-1.65502 c -1.184682,-1.18468 -1.316147,-2.04273 -0.536245,-3.5 0.568261,-1.0618 2.029869,-1.91624 3.248018,-1.89875 2.0542,0.0295 2.087908,0.12814 0.464816,1.36025 -2.234539,1.69625 -2.224835,2.60795 0.02776,2.60795 0.977768,0 2.57432,-0.93032 3.547895,-2.06737 0.973575,-1.13705 2.311083,-1.88985 2.972241,-1.67288 0.661158,0.21697 1.344739,1.59984 1.519079,3.07305 0.37044,3.13041 -2.026875,4.56781 -4.372091,2.62146 -1.158613,-0.96157 -1.81044,-0.9887 -2.687265,-0.11188 -1.537457,1.53746 -2.311064,1.46132 -4.184207,-0.41183 z m -9.373411,-10.63055 c -2.648473,-2.64847 -0.163915,-11.1318 2.735428,-9.33991 0.892085,0.55134 0.934547,1.06993 0.151704,1.85278 -1.364812,1.36481 -1.434161,6.68713 -0.08713,6.68713 0.55,0 1,0.45 1,1 0,1.37954 -2.343816,1.25618 -3.8,-0.2 z m 4.906218,-2.60153 c -0.744093,-1.39035 -0.664429,-2.42039 0.287921,-3.72281 1.950835,-2.66792 4.822143,-1.20066 4.422832,2.2601 -0.38161,3.30736 -3.247314,4.19717 -4.710753,1.46271 z m 5.893782,-2.09006 c 0,-3.3738 0.35188,-3.97991 2.644645,-4.55536 1.454554,-0.36507 3.098492,-0.20991 3.653195,0.34479 0.59856,0.59856 1.662728,0.65845 2.617782,0.14732 1.800673,-0.96369 9.668233,-0.79464 10.692623,0.22975 1.00252,1.00251 -1.57421,6.49805 -3.36985,7.1871 -2.02511,0.77711 -3.06393,-0.92382 -2.46803,-4.04106 0.37135,-1.94266 0.1331,-2.32113 -1.15103,-1.82837 -0.89063,0.34177 -1.61933,1.69825 -1.61933,3.01441 0,1.31615 -0.45,2.39301 -1,2.39301 -0.550005,0 -1.000005,-0.85186 -1.000005,-1.89301 0,-3.0682 -2.317133,-3.05641 -4.953089,0.0252 -1.349199,1.57729 -2.811699,2.86781 -3.25,2.86781 -0.438301,0 -0.796911,-1.75122 -0.796911,-3.89159 z m 56.284245,1.87051 c -0.35566,-1.36001 -0.89744,-1.71636 -1.65639,-1.08948 -0.62032,0.51237 -2.8116,1.24623 -4.8695,1.6308 -3.32051,0.62051 -3.84799,0.43362 -4.6866,-1.66052 l -0.94499,-2.35972 -0.0634,2.25 c -0.0662,2.34951 -1.47927,3.00415 -2.5934,1.20144 -0.44171,-0.7147 -1.10499,-0.66932 -2.08318,0.1425 -0.78933,0.65508 -1.59593,1.01444 -1.79245,0.79856 -0.19651,-0.21587 -0.13457,-1.855 0.13766,-3.6425 0.28419,-1.86598 1.08542,-3.25 1.88148,-3.25 0.76257,0 1.41502,0.5625 1.44989,1.25 0.0349,0.6875 0.51587,0.125 1.06891,-1.25 0.88409,-2.19804 1.14819,-2.30822 2.18662,-0.91223 0.64959,0.87327 1.71112,1.4091 2.35894,1.19072 0.66422,-0.22392 1.36201,0.82799 1.60016,2.41222 0.40408,2.688 0.42878,2.66898 0.57215,-0.44071 0.17302,-3.75303 1.80212,-4.2754 3.11867,-1 0.86933,2.16277 0.90684,2.14338 0.96777,-0.5 0.0682,-2.95889 1.75389,-3.72011 2.71156,-1.22448 0.45142,1.17639 0.90196,1.2628 1.96861,0.37756 1.1437,-0.94918 1.38322,-0.34753 1.38322,3.47448 0,4.71568 -1.72961,6.37244 -2.71576,2.60136 z m -34.73375,-2.34087 c 0.90378,-4.29572 2.10432,-5.30101 2.9917,-2.50514 l 0.74085,2.33424 0.82626,-2.23357 c 0.97984,-2.64878 2.92074,-2.98156 2.82041,-0.48358 -0.15366,3.82603 -1.55782,5.51621 -4.79423,5.77081 -3.14581,0.24747 -3.22499,0.15915 -2.58499,-2.88276 z M 73.063756,112.57325 c -0.240134,-0.42147 -0.46613,-2.22881 -0.502216,-4.01631 -0.04227,-2.09388 0.41455,-3.25 1.284175,-3.25 0.742381,0 1.576757,0.5625 1.854169,1.25 0.277413,0.6875 0.539913,0.2375 0.583334,-1 0.08233,-2.34647 1.495654,-3.00281 2.604087,-1.20932 0.353746,0.57237 1.392803,0.80515 2.309017,0.5173 3.271374,-1.02781 10.050648,-1.55274 10.486728,-0.81201 0.24417,0.41472 0.74524,2.16028 1.11352,3.87903 0.60952,2.84461 0.44549,3.125 -1.82804,3.125 -1.88716,0 -2.57203,-0.58811 -2.802,-2.40609 -0.37729,-2.98263 -2.13069,-3.19766 -2.804365,-0.34391 -0.532837,2.25713 -2.5,2.84728 -2.5,0.75 0,-0.6875 -0.675,-1.52523 -1.5,-1.86163 -1.051625,-0.42881 -1.653186,0.16903 -2.01247,2 -0.281859,1.4364 -1.181859,2.62352 -2,2.63806 -0.818142,0.0145 -2.018936,0.35938 -2.668432,0.76631 -0.649496,0.40694 -1.377374,0.39504 -1.617507,-0.0264 z m 49.769864,-2.13636 c 0.50597,-2.30365 0.24747,-2.97019 -1.30985,-3.37744 -2.33814,-0.61143 -5.39522,1.10234 -3.40538,1.90903 1.76998,0.71755 0.51174,2.33846 -1.81525,2.33846 -1.97827,0 -2.59858,-2.44241 -1.17567,-4.62897 0.40408,-0.62093 3.09431,-1.45026 5.97828,-1.84296 l 5.24359,-0.71398 -0.58012,3.34295 c -0.86101,4.96151 -1.23138,5.84296 -2.45513,5.84296 -0.70285,0 -0.87932,-1.05412 -0.48047,-2.87005 z m -53.943032,0.91604 c -0.851879,-1.37837 0.518103,-6.13527 1.578251,-5.48006 1.192592,0.73706 1.150395,6.43407 -0.04766,6.43407 -0.517541,0 -1.206308,-0.42931 -1.530594,-0.95401 z m 57.899372,-0.37354 c -0.28018,-0.73015 -0.0522,-2.53015 0.50664,-4 1.24683,-3.27943 3.55857,-3.64168 2.69585,-0.42245 -0.33163,1.2375 -0.60912,3.0375 -0.61664,4 -0.016,2.05056 -1.84634,2.34958 -2.58585,0.42245 z m 4.07129,0.32608 c -0.37806,-0.61171 -0.41144,-2.21162 -0.0742,-3.55537 0.40011,-1.59418 1.32358,-2.44316 2.6575,-2.44316 1.70312,0 1.99201,0.54106 1.73095,3.24181 -0.19889,2.05757 -0.91858,3.35635 -1.97012,3.55537 -0.91122,0.17246 -1.96609,-0.18693 -2.34415,-0.79865 z m 5.89392,-0.58032 c 0.33385,-0.86998 0.60699,-2.66998 0.60699,-4 0,-3.04278 1.77302,-3.14324 2.96884,-0.16821 l 0.90439,2.25 0.0634,-2.25 c 0.0349,-1.2375 0.48683,-2.25 1.00437,-2.25 1.59219,0 2.27843,1.98968 1.60781,4.66161 -0.48052,1.91455 -1.12513,2.42093 -2.59314,2.03704 -1.0745,-0.28099 -2.20566,-0.10314 -2.51367,0.39523 -0.96246,1.55731 -2.68754,0.98844 -2.04896,-0.67567 z m -41.72633,-0.0849 c -1.27572,-1.2757 -0.65642,-5.40003 0.90054,-5.9975 2.28836,-0.87812 3.78295,1.13284 3.04052,4.09095 -0.61345,2.44416 -2.4938,3.35381 -3.94106,1.90655 z m 6.33333,-2.83331 c 0,-3.83333 1.31584,-4.42913 4.13907,-1.87413 1.36648,1.23663 1.55645,2.07453 0.79356,3.5 -0.55164,1.03077 -1.88716,1.87413 -2.96781,1.87413 -1.57885,0 -1.96482,-0.68756 -1.96482,-3.5 z m 7,0.60699 c 0,-1.77804 0.64255,-3.13958 1.66722,-3.53278 2.48025,-0.95177 3.54881,0.72736 2.39469,3.76295 -1.39017,3.65642 -4.06191,3.50502 -4.06191,-0.23017 z m -7.8167,-25.164074 c 2.03376,-3.517371 3.48111,-6.611834 3.21636,-6.876584 -0.71728,-0.717289 -17.790393,-0.01642 -18.578227,0.76265 -0.982054,0.971136 9.099187,13.364141 10.493227,12.899462 0.64401,-0.214669 2.83491,-3.268157 4.86864,-6.785528 z M 255.68175,244.22652 c -0.7739,-0.7739 -0.15605,-2.97979 2.17772,-7.77517 1.79197,-3.68212 4.70346,-10.95843 6.46998,-16.16958 1.76651,-5.21116 5.36987,-13.97483 8.00748,-19.47483 2.6376,-5.5 5.28765,-11.2375 5.889,-12.75 1.00164,-2.51931 1.54051,-2.75 6.42367,-2.75 2.93167,0 6.01866,-0.5625 6.85999,-1.25 3.08763,-2.52311 10.78903,-13.48945 15.62565,-22.25 2.73285,-4.95 6.3616,-11.25 8.0639,-14 1.70229,-2.75 3.82685,-6.29536 4.72123,-7.87858 l 1.62615,-2.87859 -3.66798,0.68812 c -2.26743,0.42537 -4.19138,0.25373 -5.03875,-0.44952 -1.1547,-0.95832 -1.11033,-1.71643 0.28148,-4.80954 1.75159,-3.89266 13.27933,-20.79402 19.0444,-27.92189 l 3.43742,-4.25 h -2.99801 c -1.64891,0 -3.5866,-0.70919 -4.30598,-1.57599 -1.08972,-1.31304 -1.01712,-2.02214 0.43515,-4.25 0.95871,-1.47071 3.57329,-6.38651 5.81018,-10.92401 5.76046,-11.685006 8.17071,-11.085687 12.23262,3.041699 0.91588,3.185434 2.52389,7.203641 3.57335,8.929351 1.04947,1.7257 1.67988,3.50694 1.40093,3.9583 -0.27896,0.45136 -2.31128,0.82065 -4.51627,0.82065 h -4.00908 l 2.28527,3.25 c 1.2569,1.7875 6.70676,8.38406 12.1108,14.65901 5.40404,6.27496 9.69381,12.08512 9.53282,12.91147 -0.16098,0.82636 -1.8677,2.04152 -3.7927,2.70035 -2.5708,0.87986 -3.41755,1.69983 -3.18944,3.08853 0.39438,2.40087 11.55218,24.94369 18.50688,37.39064 3.34742,5.99094 5.82762,9.38066 6.71457,9.17692 0.77356,-0.1777 3.48902,-0.56973 6.03435,-0.87119 l 4.62788,-0.5481 3.58492,5.73124 c 1.9717,3.15219 5.13507,10.74422 7.02971,16.87119 1.89465,6.12697 5.11474,16.53994 7.15576,23.13994 2.04103,6.6 3.96593,12.85249 4.27757,13.89442 0.52972,1.77113 0.11722,1.85356 -6.3378,1.26647 -3.79742,-0.34538 -34.1294,-0.67612 -67.4044,-0.73498 -49.68823,-0.0879 -62.82209,0.17722 -73.49387,1.48354 -7.14663,0.8748 -13.24413,1.59055 -13.55,1.59055 -0.30587,0 -1.04232,-0.48619 -1.63655,-1.08042 z m 21.68042,-4.79997 c 5.09019,-0.56578 33.77268,-0.67899 71.5,-0.2822 34.65,0.36442 63.19996,0.53763 63.44436,0.38489 0.42374,-0.2648 -3.22105,-12.33977 -10.63172,-35.2223 -1.87028,-5.775 -4.48202,-12.14201 -5.80386,-14.1489 l -2.40335,-3.64891 -41.30272,0.41151 c -22.71649,0.22633 -44.8909,0.85583 -49.27648,1.3989 -4.38557,0.54307 -10.53817,0.9874 -13.67244,0.9874 h -5.69869 l -1.2298,3.75 c -0.6764,2.0625 -2.98169,6.53092 -5.12287,9.92982 -2.14119,3.3989 -5.7149,11.49039 -7.94158,17.98111 -2.22668,6.49071 -4.68129,13.02494 -5.45468,14.52052 -0.77339,1.49558 -1.40617,3.43697 -1.40617,4.3142 0,1.23805 0.7273,1.48015 3.25,1.08187 1.7875,-0.28221 7.075,-0.93827 11.75,-1.45791 z m 78.74801,-56.28614 c 11.6864,-0.18341 21.2489,-0.60344 21.25,-0.93341 10e-4,-0.32997 -2.32918,-4.82997 -5.17838,-10 -2.8492,-5.17003 -8.8117,-16.60006 -13.25,-25.40006 l -8.06963,-16 -7,0.0257 c -3.85,0.0142 -8.16136,0.34113 -9.58079,0.72659 -1.80324,0.48968 -4.69231,3.79605 -9.58917,10.97424 -3.85461,5.65038 -9.39141,14.77342 -12.304,20.27342 -2.91258,5.5 -7.23682,12.52004 -9.6094,15.60009 l -4.31379,5.6001 18.19857,-0.26663 c 10.00922,-0.14664 27.76018,-0.41668 39.44659,-0.60009 z m -30.74801,-52.27586 c 0,-2.8704 2.13394,-3.63295 11.5,-4.10946 3.85,-0.19588 8.65318,-0.60167 10.67373,-0.90176 2.9491,-0.43801 4.25966,-0.0526 6.64435,1.95399 2.65859,2.23705 7.18192,3.43879 7.18192,1.90806 0,-0.32535 -4.02697,-5.25604 -8.94883,-10.95708 -4.92185,-5.70104 -9.70376,-11.51771 -10.62646,-12.92593 -1.37777,-2.10274 -1.94195,-2.34104 -3.15633,-1.3332 -0.81328,0.67496 -3.21739,3.72033 -5.34247,6.76748 -2.12508,3.04716 -5.84168,8.24029 -8.25911,11.54029 -2.41742,3.3 -4.70098,6.97864 -5.07456,8.17475 -0.54593,1.7479 -0.22909,2.24865 1.61426,2.55128 3.12765,0.51347 3.7935,0.0451 3.7935,-2.66842 z m 18.41669,-39.296315 c -1.30307,-3.168712 -2.3799,-6.323795 -2.39295,-7.011295 -0.0497,-2.617047 -1.64914,-1.010897 -5.18189,5.203622 -4.08387,7.184018 -4.30664,6.844938 4.80111,7.307678 l 5.14295,0.26129 z M 239.16306,239.5 c -3.32051,-2.1838 -9.40103,-9.57101 -13.64138,-16.57289 -6.92178,-11.42959 -16.83766,-37.4263 -20.26155,-53.12017 -1.07992,-4.95 -2.23336,-13.05344 -2.56319,-18.00764 -0.48679,-7.31165 -0.1988,-10.59296 1.52953,-17.42759 1.17107,-4.63097 2.97179,-10.25253 4.0016,-12.49236 1.0298,-2.23982 2.45567,-5.64741 3.16858,-7.57241 2.39961,-6.47937 10.87788,-21.53762 14.52604,-25.799674 4.7643,-5.566013 20.88677,-16.740443 28.40303,-19.68604 13.86668,-5.434312 29.39445,-6.933037 41.71951,-4.026727 3.40069,0.801898 9.70069,3.271275 14,5.487504 7.17076,3.696414 7.92027,3.889524 9.06694,2.336093 0.6875,-0.931378 1.25,-2.057407 1.25,-2.502286 0,-0.444878 0.80294,-0.80887 1.7843,-0.80887 1.19522,0 2.32319,1.453994 3.41656,4.40407 1.59153,4.294153 1.57699,4.455997 -0.58237,6.484615 -1.21805,1.1443 -3.68268,2.374153 -5.47695,2.733007 l -3.26231,0.652462 0.31039,-3.887077 0.31038,-3.887077 -7.5,-3.713763 c -11.13776,-5.515066 -18.61683,-7.134985 -29.99931,-6.49766 -16.62649,0.930946 -28.51849,5.474384 -41.74761,15.950014 -4.26419,3.376653 -8.32843,6.841828 -9.03164,7.700389 -7.30424,8.91785 -15.41016,25.01178 -19.74058,39.19398 -1.40515,4.60187 -2.98817,9.74899 -3.51783,11.43804 -2.26872,7.23472 -0.5627,20.85781 5.06294,40.429 5.19815,18.08404 9.78459,29.41975 16.36441,40.44578 5.74506,9.62719 12.56766,17.55422 15.10851,17.55422 0.82561,0 1.50111,0.42344 1.50111,0.94098 0,1.82638 -1.65435,1.92569 -4.19911,0.25208 z M 322.61217,79.914894 c 0.9625,-0.730642 1.73569,-1.95383 1.7182,-2.718197 -0.038,-1.661908 -2.91246,-5.683073 -3.09582,-4.330887 -0.0702,0.517622 -0.24598,1.84113 -0.39063,2.94113 -0.14466,1.1 -0.58537,2.7875 -0.97937,3.75 -0.84536,2.065137 0.30181,2.214587 2.74762,0.357954 z M 205.36849,217.55694 c 0.007,-0.84915 5.66834,-4.25 7.07472,-4.25 2.06698,0 0.69852,1.7347 -2.61497,3.31479 -3.97626,1.89614 -4.46872,1.99941 -4.45975,0.93521 z m -2.05654,-5.88208 c -1.09076,-2.86894 -0.42408,-6.36792 1.21332,-6.36792 1.86895,0 6.8369,3.40788 6.8369,4.68993 0,1.08881 -4.83935,4.31007 -6.47509,4.31007 -0.31593,0 -1.02473,-1.18444 -1.57513,-2.63208 z m 4.86206,-2.10644 c -0.18414,-0.95618 -1.11714,-1.88918 -2.07332,-2.07332 -1.2,-0.2311 -1.73852,0.30742 -1.73852,1.73852 0,1.43109 0.64223,2.07332 2.07332,2.07332 1.4311,0 1.96962,-0.53852 1.73852,-1.73852 z m -8.55081,-7.21512 c -0.77517,-1.24123 -0.86031,-2.17599 -0.23349,-2.56338 0.54262,-0.33536 1.25655,0.0938 1.58651,0.95364 0.8466,2.20619 2.30042,1.95232 1.71171,-0.29891 -0.33319,-1.27412 0.15565,-2.03034 1.5478,-2.3944 1.41798,-0.37081 2.516,0.20228 3.62218,1.89054 0.87306,1.33245 1.31712,2.85993 0.9868,3.3944 -0.33031,0.53446 -2.26577,0.97175 -4.30101,0.97175 -2.58816,0 -4.06716,-0.58723 -4.9205,-1.95364 z m 7.73897,-0.42392 c 0,-0.20765 -0.6853,-0.9463 -1.52289,-1.64144 -1.27335,-1.05678 -1.41968,-0.99492 -0.89301,0.37756 0.34643,0.90279 1.03173,1.64144 1.52289,1.64144 0.49115,0 0.89301,-0.1699 0.89301,-0.37756 z m -3.83258,-6.74239 c -1.28292,-0.48218 -3.53292,-0.59492 -5,-0.25051 -2.64287,0.62042 -2.63521,0.59309 0.83258,-2.96993 1.925,-1.97786 3.8375,-3.6104 4.25,-3.62786 0.4125,-0.0175 0.75,1.05575 0.75,2.38492 0,1.32916 0.5175,2.58916 1.15,2.8 0.6325,0.21083 0.97,0.8686 0.75,1.46171 -0.26032,0.70182 -1.21451,0.77224 -2.73258,0.20167 z m -6.66742,-8.88005 c -2.24035,-0.96271 -1.33966,-1.30026 2.75,-1.0306 2.70136,0.17813 3.71636,-1.25412 1.75,-2.4694 -1.164,-0.71939 -1.35794,-3.5 -0.24411,-3.5 1.16801,0 3.47086,5.82409 2.75856,6.97662 -0.75077,1.21478 -4.21505,1.22632 -7.01445,0.0234 z m -1.05887,-9.4682 c -1.85826,-1.40551 -1.82291,-1.46955 0.82792,-1.5 2.50675,-0.0288 2.70766,-0.2923 2.12089,-2.7818 -0.46908,-1.99024 -0.34139,-2.46509 0.4622,-1.71875 0.6107,0.56719 1.40005,2.47969 1.75411,4.25 0.54746,2.73732 0.3545,3.21875 -1.29012,3.21875 -1.06363,0 -2.80738,-0.66069 -3.875,-1.4682 z m 69.86463,-8.03464 c -2.36033,-2.10551 -2.56763,-2.65663 -1.30576,-3.47152 4.32619,-2.79376 4.23333,-2.54125 2.43831,-6.63044 -1.00641,-2.29269 -1.7387,-6.59852 -1.77997,-10.46612 -0.0695,-6.51348 -0.018,-6.64023 5.89404,-14.5 7.5618,-10.05311 13.0402,-13.37138 22.13252,-13.40572 6.65017,-0.0251 11.3151,1.23598 11.3151,3.05888 0,0.71844 -0.63908,0.83719 -1.75,0.32518 -0.9625,-0.44361 -4.68724,-0.97475 -8.2772,-1.18032 -6.04078,-0.3459 -6.89377,-0.12609 -11.44597,2.94958 -2.70533,1.82782 -7.14339,6.20262 -9.86237,9.72177 -3.57001,4.62063 -5.07238,7.54097 -5.40708,10.51044 -0.4599,4.08019 0.86005,10.71863 2.70072,13.58275 0.76345,1.18796 1.2114,1.23886 2.20026,0.25 1.69385,-1.69385 4.84164,-1.56908 4.84164,0.19191 0,2.21712 -6.13811,11.56645 -7.59371,11.56645 -0.71212,0 -2.55736,-1.12628 -4.10053,-2.50284 z m 4.51689,-2.82652 c 0.225,-1.16012 -0.15332,-1.48098 -1.25,-1.06014 -1.84865,0.70939 -2.16131,3.75217 -0.32265,3.13997 0.6875,-0.22891 1.39519,-1.16483 1.57265,-2.07983 z m -77.82265,2.49406 c 0,-0.58593 0.77864,-1.50107 1.73031,-2.03365 1.51333,-0.8469 1.57603,-1.39498 0.5,-4.37069 -1.42987,-3.95423 -1.51021,-4.76036 -0.47442,-4.76036 0.41574,0 1.31604,1.26547 2.00067,2.81216 0.68463,1.54669 2.14448,3.77787 3.24411,4.95819 2.59972,2.79046 2.67016,5.14671 0.0839,2.80618 -1.80334,-1.63201 -2.06668,-1.63435 -4.5,-0.04 -1.43561,0.94066 -2.58457,1.2199 -2.58457,0.62817 z m 0.95818,-27.24284 c -1.18102,-2.20676 -0.66199,-4.92186 0.94088,-4.92186 0.52901,0 1.10564,1.0125 1.28139,2.25 0.17575,1.2375 0.76955,2.025 1.31955,1.75 1.73372,-0.86686 1.11893,-5.42921 -0.96774,-7.18161 -2.387,-2.00461 -1.23539,-3.7386 1.39285,-2.09723 1.62212,1.01303 1.81791,0.82261 1.6937,-1.6472 -0.0772,-1.53596 -0.74843,-3.52521 -1.49151,-4.42057 -0.74308,-0.89536 -1.07772,-2.34021 -0.74365,-3.21079 0.77671,-2.02406 4.5508,-1.51895 6.00693,0.80394 0.80788,1.28879 0.76912,2.26809 -0.14787,3.73644 -0.68349,1.09443 -1.24271,3.09443 -1.24271,4.44443 0,1.35001 -0.37497,2.6863 -0.83327,2.96954 -0.4583,0.28325 -0.63162,1.88893 -0.38516,3.56818 0.24647,1.67925 -0.10866,3.72407 -0.78917,4.54403 -1.76731,2.12947 -4.73482,1.84065 -6.03422,-0.5873 z m 52.36454,-7.60848 c -0.36473,-0.99736 -1.49946,-2.90297 -2.52162,-4.2347 -1.22176,-1.59179 -1.52056,-2.75922 -0.87216,-3.40762 0.6484,-0.6484 1.51471,-0.54775 2.52868,0.29377 0.95377,0.79156 1.54238,0.87423 1.54238,0.21663 0,-0.58488 -0.45,-1.34154 -1,-1.68146 -1.37094,-0.84729 -1.26501,-3.5 0.13976,-3.5 0.62686,0 1.75877,0.7875 2.51534,1.75 1.24436,1.58307 1.31952,1.50139 0.78791,-0.85624 -0.73658,-3.26669 2.03482,-6.57201 4.08426,-4.87113 1.02356,0.84948 1.20649,0.67525 0.82453,-0.78534 -0.27027,-1.03352 0.2402,-2.48372 1.13596,-3.22713 1.40172,-1.16332 1.98686,-0.99009 4.22897,1.25203 2.51439,2.51439 2.54541,2.68878 0.91967,5.16999 -0.92538,1.4123 -2.34713,2.56782 -3.15945,2.56782 -0.81232,0 -1.47695,0.65917 -1.47695,1.46482 0,2.12497 -3.40335,3.73183 -4.8468,2.28838 -0.87093,-0.87093 -1.1532,-0.49232 -1.1532,1.5468 0,1.485 -0.48032,2.7 -1.06739,2.7 -0.59668,0 -0.79924,0.84486 -0.45932,1.91584 0.78272,2.46614 -1.27158,3.80112 -2.15057,1.39754 z m 19.67728,-6.03005 c 0,-1.03583 -0.50079,-2.38412 -1.11287,-2.9962 -1.2829,-1.2829 -0.23319,-3.61904 1.22205,-2.71965 0.59036,0.36486 0.71678,-0.41274 0.32249,-1.98369 -0.90847,-3.61966 1.58446,-3.40583 4.38027,0.37572 2.85944,3.86759 2.81353,5.41429 -0.13872,4.67332 -1.90198,-0.47737 -2.31276,-0.19614 -2.25,1.54039 0.0422,1.1684 -0.48572,2.31991 -1.17322,2.5589 -0.71134,0.24729 -1.25,-0.37703 -1.25,-1.44879 z m 155.5443,-1.21166 c -0.35145,-0.56864 -0.90727,-4.83545 -1.23517,-9.4818 -0.59584,-8.44308 -0.59744,-8.44707 -2.81175,-6.9962 -1.21856,0.79844 -2.88565,1.19457 -3.70463,0.88029 -1.07929,-0.41416 -2.21096,1.09316 -4.11232,5.47732 -2.45437,5.65931 -3.8842,7.14606 -5.05327,5.25446 -0.26999,-0.43684 0.32163,-2.60905 1.3147,-4.82713 0.99306,-2.21809 2.60168,-7.37317 3.5747,-11.45575 0.97302,-4.08257 1.91281,-7.97777 2.08843,-8.656 0.17562,-0.67823 1.01134,-0.96758 1.85716,-0.64301 1.09872,0.42162 1.53785,2.0111 1.53785,5.56647 0,6.38028 1.87448,6.0393 4.15783,-0.75634 1.07712,-3.20568 2.22663,-4.93398 3.28165,-4.93398 1.41877,0 1.6514,1.94674 1.84217,15.41606 0.1553,10.96416 -0.11616,15.52773 -0.94001,15.80278 -0.6371,0.2127 -1.4459,-0.0785 -1.79734,-0.64717 z m -25.45509,-4.46418 c -0.66603,-0.80251 -1.13025,-2.055 -1.0316,-2.7833 0.0986,-0.72831 0.11178,-3.12419 0.0292,-5.32419 l -0.15016,-4 -2.05173,2.75 c -2.35926,3.16221 -4.36056,3.50936 -5.7649,1 -0.86977,-1.55416 -1.09915,-1.44225 -2.04969,1 -0.58868,1.5125 -1.50918,3.875 -2.04557,5.25 -0.53639,1.375 -1.66139,2.5 -2.5,2.5 -0.83862,0 -1.52476,-0.21553 -1.52476,-0.47895 0,-0.26342 1.125,-3.83026 2.5,-7.92631 1.375,-4.09606 2.5,-8.86353 2.5,-10.59438 0,-2.44455 0.38601,-3.07267 1.72934,-2.81397 0.95113,0.18317 2.13754,1.67867 2.63646,3.32333 0.49893,1.64465 1.10629,3.66528 1.34971,4.49028 0.29814,1.01052 1.05573,0.35788 2.32161,-2 1.03348,-1.925 1.89791,-4.2324 1.92096,-5.12756 0.0543,-2.10709 2.29412,-3.95532 3.71472,-3.06524 1.53194,0.95985 2.21664,24.3937 0.72729,24.89166 -0.60496,0.20226 -1.64485,-0.28885 -2.31088,-1.09137 z m -164.70181,-3.16622 -2.71438,-3.55874 2.13571,-2.13571 c 2.32023,-2.32022 4.25298,-1.73102 2.24768,0.68521 -0.67572,0.8142 -0.89074,2.02701 -0.47782,2.69513 0.51352,0.8309 1.02069,0.48513 1.6049,-1.09415 0.82631,-2.23371 0.91868,-2.25052 2.83532,-0.51599 1.91364,1.73183 1.98119,1.72313 1.98119,-0.25504 0,-1.1264 -0.675,-2.30702 -1.5,-2.62361 -0.825,-0.31658 -1.5,-1.03972 -1.5,-1.60699 0,-0.56726 0.675,-1.03138 1.5,-1.03138 0.825,0 1.5,-0.45 1.5,-1 0,-0.55 0.675,-1 1.5,-1 0.825,0 1.5,0.68111 1.5,1.51357 0,0.83246 0.5625,2.43243 1.25,3.55548 1.0603,1.73202 0.97335,2.19898 -0.57292,3.07693 -1.00261,0.56926 -2.98949,2.34429 -4.4153,3.94452 -1.42581,1.60022 -2.94509,2.9095 -3.37619,2.9095 -0.43109,0 -2.00528,-1.60143 -3.49819,-3.55873 z m 42.1126,1.55873 c -0.34913,-1.1 -1.05445,-2 -1.56739,-2 -0.51293,0 -0.93261,-0.675 -0.93261,-1.5 0,-0.825 0.675,-1.5 1.5,-1.5 0.83333,0 1.5,-0.88889 1.5,-2 0,-1.1 0.3375,-1.98782 0.75,-1.97294 0.85348,0.0308 8.25,6.74271 8.25,7.4864 0,0.92584 -3.88439,0.48262 -4.5,-0.51346 -1.13852,-1.84217 -2.5,-1.02528 -2.5,1.5 0,2.99127 -1.60728,3.31273 -2.5,0.5 z m -72.89301,-3.58179 c -0.87802,-2.28807 -0.74808,-3.41821 0.39301,-3.41821 0.55,0 1,0.76101 1,1.69113 0,1.47564 0.18872,1.44378 1.481,-0.25 1.28188,-1.68015 1.61594,-1.73946 2.48468,-0.44113 1.27668,1.90797 1.28471,2.72722 0.0343,3.5 -0.55,0.33992 -1.01368,-0.19602 -1.03041,-1.19098 -0.0287,-1.70721 -0.0878,-1.71053 -1.04969,-0.059 -1.26637,2.17424 -2.51873,2.23782 -3.31291,0.16821 z m 60.4611,-2.32258 c -1.13745,-1.5974 -2.06809,-3.38883 -2.06809,-3.98095 0,-1.38381 4.51244,-2.53405 6.09767,-1.55431 0.78666,0.48618 0.95166,0.32847 0.47064,-0.44984 -0.88437,-1.43094 1.95738,-6.11321 3.70474,-6.10421 0.67482,0.003 2.02746,1.41261 3.00586,3.13141 1.62335,2.85181 1.64319,3.33221 0.22694,5.49368 -0.85357,1.30272 -1.84365,2.36859 -2.20016,2.36859 -0.35652,0 -1.54849,-0.7875 -2.64884,-1.75 -1.10035,-0.9625 -1.69257,-1.22122 -1.31604,-0.57494 0.74847,1.2847 -1.19053,6.32494 -2.43323,6.32494 -0.42427,0 -1.70203,-1.30697 -2.83949,-2.90437 z m 2.93191,-2.09563 c 0,-0.55 -0.47656,-1 -1.05902,-1 -0.58246,0 -0.7809,0.45 -0.44098,1 0.33992,0.55 0.81648,1 1.05902,1 0.24254,0 0.44098,-0.45 0.44098,-1 z m -20.41628,-3.4744 c -1.57097,-2.91712 -1.65875,-3.73026 -0.54726,-5.06953 0.7281,-0.87731 2.14276,-1.38096 3.14368,-1.11921 1.12274,0.2936 1.81986,-0.0628 1.81986,-0.93048 0,-2.11909 1.77588,-1.68789 2.50461,0.60814 0.35166,1.10799 1.02589,1.77565 1.49829,1.48369 1.65443,-1.0225 1.99995,1.35608 0.42567,2.93036 -1.81832,1.81832 -3.42143,1.24224 -3.44388,-1.23759 -0.0132,-1.45905 -0.15013,-1.48524 -0.99823,-0.19098 -0.5406,0.825 -0.72295,2.7375 -0.40523,4.25 0.84204,4.00848 -1.69642,3.54847 -3.99751,-0.7244 z m -38.92873,0.64566 c -1.85134,-2.0457 -2.11337,-4.91459 -0.65499,-7.17126 1.02818,-1.591 1.24967,-1.02553 1.17503,3 -0.0303,1.63689 0.12937,1.89582 0.46263,0.75 0.59513,-2.04616 1.2723,-2.13572 3.47363,-0.45938 1.16194,0.88482 1.38008,1.85203 0.78223,3.4682 -1.00491,2.71651 -3.01047,2.87442 -5.23853,0.41244 z m 69.09501,-4.64079 c -2.17337,-2.98892 -2.23419,-5.13069 -0.16821,-5.92348 2.80263,-1.07547 4.3224,-0.65452 5.48591,1.5195 0.82611,1.54361 0.84163,2.7771 0.0566,4.5 -0.59479,1.30543 -1.65359,2.35937 -2.35288,2.34209 -0.69929,-0.0173 -2.05894,-1.11444 -3.02144,-2.43811 z m 3.25,-2.53047 c 0,-0.55 -0.47656,-1 -1.05902,-1 -0.58246,0 -0.7809,0.45 -0.44098,1 0.33992,0.55 0.81648,1 1.05902,1 0.24254,0 0.44098,-0.45 0.44098,-1 z m -22.61884,0.25 c -0.36131,-1.5125 -1.08363,-3.29279 -1.60514,-3.9562 -0.52151,-0.6634 -0.65287,-1.68405 -0.2919,-2.2681 0.42616,-0.68955 1.65008,-0.35426 3.49046,0.9562 2.99958,2.13589 5.02542,2.59567 5.02542,1.14054 0,-0.48265 -0.675,-1.43775 -1.5,-2.12244 -0.825,-0.68469 -1.5,-1.63979 -1.5,-2.12245 0,-0.48265 0.675,-0.87755 1.5,-0.87755 0.825,0 1.5,-0.708 1.5,-1.573324 0,-2.648258 3.37648,-1.141284 4.47934,1.999194 0.76525,2.17913 0.70786,3.01083 -0.22934,3.32362 -0.6875,0.22945 -1.25351,0.94218 -1.2578,1.58384 -0.009,1.38665 -4.89901,3.8423 -6.13267,3.07986 -0.47274,-0.29217 -0.85953,0.39533 -0.85953,1.52779 0,3.00597 -1.85244,2.5172 -2.61884,-0.69098 z m 32.27383,-7.07874 c -1.95428,-2.15945 -2.11801,-4.308243 -0.45499,-5.97126 1.81104,-1.811044 2.51815,-1.472673 3.23908,1.55 0.36074,1.5125 0.88985,3.5375 1.1758,4.5 0.69385,2.33553 -1.82025,2.28554 -3.95989,-0.0787 z m -20.01264,-2.79507 c -0.95044,-1.99309 -1.49388,-3.857995 -1.20764,-4.14423 0.28623,-0.286236 2.18221,0.112052 4.21328,0.885084 3.86988,1.472886 5.67231,3.882956 2.90396,3.882956 -0.8881,0 -1.87374,0.675 -2.19032,1.5 -0.31659,0.825 -0.89412,1.5 -1.28341,1.5 -0.38929,0 -1.48543,-1.63071 -2.43587,-3.62381 z m 24.45683,-1.62619 c -0.99734,-2.683024 -0.38195,-4.75 1.41419,-4.75 0.80706,0 1.10123,-0.757785 0.77638,-2 -0.41978,-1.605218 -0.0307,-2 1.97117,-2 1.37181,0 3.05439,0.675 3.73908,1.5 0.68469,0.825 2.08979,1.5 3.12244,1.5 2.367,0 2.45413,1.850042 0.12756,2.708443 -0.9625,0.355121 -2.0532,1.099562 -2.42378,1.654313 -0.42985,0.643469 -1.31223,0.488855 -2.43724,-0.427058 -1.55827,-1.268657 -1.69258,-1.246266 -1.15436,0.192447 0.67562,1.805991 -0.90737,3.871855 -2.96684,3.871855 -0.73273,0 -1.7086,-1.0125 -2.1686,-2.25 z m -16.40232,-1.7724 c -0.89026,-1.271028 -2.0259,-1.788566 -3.0567,-1.393011 -2.15273,0.826081 -2.08669,-0.811586 0.14382,-3.566143 0.98119,-1.211717 3.00087,-2.27407 4.48818,-2.360784 1.48732,-0.08671 2.9204,-0.720162 3.18464,-1.407662 0.68582,-1.784395 4.21519,-1.547169 4.93621,0.331787 1.21658,3.17035 0.65168,5.418213 -1.36163,5.418213 -1.33903,0 -1.78453,0.479711 -1.39301,1.5 0.98554,2.568256 -1.01418,1.666665 -3.86147,-1.740985 -1.87091,-2.239114 -2.73152,-2.749675 -2.75,-1.63146 -0.0148,0.895156 0.6481,2.187756 1.4731,2.872445 1.66433,1.381275 2.0288,4 0.5567,4 -0.51881,0 -1.58074,-0.91008 -2.35984,-2.0224 z m -56.30746,-3.562236 c -0.44068,-1.755835 -0.11897,-3.114363 1.00327,-4.236607 1.53596,-1.535962 1.60463,-1.415276 0.97787,1.718564 -0.52855,2.642747 -0.37143,3.270723 0.72767,2.90828 0.77099,-0.254241 1.54559,-1.439509 1.72134,-2.633929 0.17575,-1.19442 0.73825,-2.171672 1.25,-2.171672 1.18923,0 1.17689,1.22162 -0.0448,4.4349 -1.31513,3.459046 -4.76528,3.447086 -5.63535,-0.01954 z m 141.39976,2.040462 c -0.81104,-0.811044 0.87967,-6.545851 2.32563,-7.888375 0.85591,-0.794691 0.99992,-0.264002 0.56358,2.076864 -0.51395,2.757261 -0.34558,3.08142 1.36777,2.633369 1.34345,-0.351321 1.95386,-0.0059 1.95386,1.105685 0,0.889147 -0.6382,1.616631 -1.41821,1.616631 -0.78002,0 -2.04102,0.238995 -2.80224,0.531099 -0.76121,0.292104 -1.65689,0.258232 -1.99039,-0.07527 z m 8.21084,-3.23332 c 0,-3.469884 2.54073,-7.222506 4.89004,-7.222506 3.07265,0 3.26837,1.331312 0.38357,2.60906 -1.88163,0.83342 -2.21082,1.254622 -1.02361,1.309721 0.9625,0.04467 1.75,0.498223 1.75,1.007895 0,0.509672 -0.7875,1.132471 -1.75,1.383998 -1.66667,0.435546 -1.66667,0.462847 0,0.573325 2.18127,0.144588 2.28532,1.696602 0.16821,2.509012 -3.20443,1.229658 -4.41821,0.633375 -4.41821,-2.170505 z m 8.76243,2.206595 c -0.37546,-0.375468 -0.0256,-1.953269 0.77745,-3.506225 0.80307,-1.552956 1.46012,-3.745903 1.46012,-4.873216 0,-1.127313 0.43297,-2.04966 0.96216,-2.04966 1.11412,0 4.94947,8.141043 4.34814,9.229521 -0.22166,0.401237 -1.271,0.187462 -2.33185,-0.475054 -1.59333,-0.995051 -2.15535,-0.894798 -3.23109,0.576363 -0.71624,0.979517 -1.60946,1.473739 -1.98493,1.098271 z m 9.90424,-2.095768 c -1.17153,-1.171528 -0.71379,-7.102798 0.58333,-7.558615 0.6875,-0.241593 2.375,-0.158791 3.75,0.184005 1.53716,0.383224 2.62016,1.451797 2.81199,2.774537 0.22461,1.548848 -0.53157,2.587487 -2.70034,3.709006 -3.43309,1.775316 -3.53942,1.796632 -4.44498,0.891067 z m 5.33333,-4.440322 c 0,-0.491156 -0.675,-0.893011 -1.5,-0.893011 -0.825,0 -1.5,0.660877 -1.5,1.468615 0,0.894593 0.58629,1.243635 1.5,0.893011 0.825,-0.316582 1.5,-0.977459 1.5,-1.468615 z m -107.20574,0.407316 c -0.93815,-1.998999 -1.45598,-4.038659 -1.15072,-4.532578 0.30526,-0.493919 1.41034,-0.123976 2.45574,0.822096 2.03974,1.845945 2.69063,0.600064 0.71739,-1.373178 -0.65084,-0.650834 -0.89524,-1.471426 -0.54313,-1.823539 1.24499,-1.24499 3.67573,0.55655 4.34412,3.219643 0.48481,1.931644 0.20912,3.040719 -0.9702,3.903063 -0.9061,0.662558 -1.64746,1.717542 -1.64746,2.344409 0,2.236083 -1.52729,1.016478 -3.20574,-2.559916 z m -58.8401,-1.385973 c -1.48218,-2.769483 -0.32586,-3.786977 1.52437,-1.341353 1.71118,2.261839 1.90044,3.426999 0.55665,3.426999 -0.53065,0 -1.4671,-0.938541 -2.08102,-2.085646 z m 2.53065,-3.943722 c -0.8616,-1.666152 -1.2966,-3.466152 -0.96666,-4 0.9503,-1.537621 3.77827,-1.073759 6.30813,1.0347 2.42896,2.024369 2.18307,4.319223 -0.35831,3.344005 -0.91533,-0.351245 -1.46797,0.04166 -1.46797,1.043674 0,2.589074 -1.82204,1.851807 -3.51519,-1.422379 z M 116.88935,71.80694 c 0.35815,-2.2 0.87478,-4.225 1.14807,-4.5 0.71598,-0.720447 4.32474,3.961455 4.32474,5.610784 0,1.63806 -1.5998,1.845761 -2.53698,0.329375 -0.41567,-0.67256 -1.19072,-0.398499 -2.12102,0.75 -1.32786,1.639304 -1.40463,1.43293 -0.81481,-2.190159 z m 118.4836,1.012986 c -1.64459,-1.981603 -0.45606,-6.512986 1.70827,-6.512986 1.30741,0 1.41428,0.266667 0.48095,1.2 -1.4273,1.427304 -1.60275,4.8 -0.24969,4.8 0.52267,0 1.38892,-0.783751 1.925,-1.74167 0.53608,-0.957918 1.26462,-1.451738 1.61898,-1.097378 0.86902,0.869022 -1.68443,4.839048 -3.11239,4.839048 -0.62536,0 -1.69236,-0.669156 -2.37112,-1.487014 z M 125.07474,72.686183 c -0.39192,-0.391917 -0.71258,-2.182252 -0.71258,-3.978522 0,-2.439855 0.53134,-3.434587 2.10066,-3.93267 1.15537,-0.366699 2.48927,-0.278125 2.96422,0.19683 0.47496,0.474955 0.99216,2.432157 1.14934,4.349337 0.25231,3.077562 -0.0114,3.520436 -2.25164,3.781692 -1.39559,0.16275 -2.85809,-0.02475 -3.25,-0.416667 z m 9.28742,-1.379243 c 0,-0.55 0.55013,-1 1.22251,-1 0.67237,0 0.24122,-0.687315 -0.95812,-1.527366 -2.69868,-1.890227 -1.92349,-4.472634 1.3426,-4.472634 2.71905,0 3.33171,1.965999 0.64301,2.063386 -1.34081,0.04857 -1.2239,0.274855 0.5,0.967776 2.5299,1.016895 2.80707,2.011767 1.05,3.768838 -1.45618,1.456184 -3.8,1.579543 -3.8,0.2 z m 7.55215,-0.25 c -1.69929,-5.515797 -1.51683,-6.323779 1.73071,-7.664497 1.76943,-0.730492 4.56714,-1.386067 6.21714,-1.456835 2.61736,-0.112257 3.00583,0.217287 3.04574,2.583738 0.0252,1.491823 0.36266,3.029323 0.75,3.416667 1.40691,1.406915 0.65644,2.490526 -1.29574,1.870927 -1.20906,-0.383741 -2,-0.1797 -2,0.515946 0,0.632896 -0.5625,0.962872 -1.25,0.73328 -0.74889,-0.250093 -1.11956,-1.686614 -0.92463,-3.583334 0.17895,-1.74124 -0.10344,-3.165892 -0.62756,-3.165892 -1.37578,0 -3.35018,2.625529 -3.1402,4.175811 0.33382,2.464604 -0.0533,3.824189 -1.08899,3.824189 -0.56727,0 -1.20468,-0.5625 -1.41647,-1.25 z m 14.20374,-6.5 c 0.28062,-2.6125 0.66129,-4.923449 0.84594,-5.135443 0.18465,-0.211994 1.11472,0.971859 2.0668,2.630785 l 1.73108,3.016229 1.92054,-2.441574 c 1.12061,-1.424622 2.53459,-2.205943 3.39479,-1.875854 0.81083,0.311146 3.51385,-0.336499 6.00673,-1.439212 2.49285,-1.102712 4.70026,-2.004931 4.90535,-2.004931 0.20508,0 0.37288,0.459647 0.37288,1.021439 0,0.561791 -1.12784,1.535318 -2.50632,2.163392 -1.37847,0.628075 -2.45015,1.630927 -2.38151,2.228561 0.0686,0.597635 0.0715,2.099108 0.006,3.336608 -0.1764,3.355865 -2.11817,2.721055 -2.11817,-0.692582 0,-2.406145 -0.36529,-2.872235 -2.00376,-2.556694 -2.68681,0.517433 -3.99624,1.395816 -3.99624,2.680738 0,0.670587 0.55411,0.603553 1.5,-0.181462 1.22397,-1.015801 1.5,-0.958723 1.5,0.310168 0,1.848233 -2.44563,2.739815 -6.27432,2.287368 -1.52588,-0.180317 -3.01494,0.06147 -3.30902,0.537308 -1.36554,2.209492 -2.12465,0.433792 -1.66077,-3.884844 z m 85.91079,4.083333 c -1.04686,-1.046857 -0.77896,-5.333333 0.33333,-5.333333 0.55,0 1,0.908573 1,2.019052 0,1.701978 0.43186,1.911491 2.75,1.334126 2.47914,-0.617465 2.61482,-0.520849 1.37756,0.980948 -1.39323,1.691096 -4.24686,2.21324 -5.46089,0.999207 z M 250.607,66.05694 c -1.89806,-2.372441 -2.3425,-5.620745 -1.05182,-7.687452 1.71212,-2.741543 3.09784,-2.629705 2.3226,0.187452 -0.59962,2.178979 -0.57051,2.189175 0.92228,0.323001 2.46168,-3.077406 3.14781,-0.856471 0.74108,2.398805 -2.65694,3.593701 -2.82995,4.927302 -0.34782,2.681 2.38397,-2.157464 3.67351,-0.867928 1.51604,1.516042 -1.95302,2.158069 -2.75038,2.271025 -4.10236,0.581152 z M 61.362059,52.714147 c 7.1e-5,-0.726682 6.160462,-1.31533 18.387941,-1.757035 10.11331,-0.365333 24.33338,-1.141 31.60017,-1.723706 7.26679,-0.582705 13.47475,-0.797039 13.79549,-0.476298 1.86773,1.867733 -4.44828,2.597202 -32.54223,3.758466 C 70.128375,53.44458 61.361983,53.5003 61.362059,52.714147 Z M 311.68234,51.597912 c 0.35586,-0.575796 7.86534,-1.283839 17.4029,-1.64086 9.22731,-0.345407 22.24498,-0.917926 28.92815,-1.272263 11.67336,-0.618914 17.34793,-0.163888 17.34953,1.391203 4.2e-4,0.402021 -5.06208,0.730948 -11.25,0.730948 -6.18791,0 -20.65706,0.405859 -32.15365,0.901909 -14.08336,0.607662 -20.69868,0.571469 -20.27693,-0.110937 z M 73.068085,48.61907 c -1.113147,-1.76974 -0.457855,-7.273116 1.011187,-8.492313 1.771649,-1.470338 4.508952,0.892574 3.76164,3.247146 -0.344092,1.084138 0.08995,2.151917 1.105838,2.720435 1.23128,0.689059 1.351711,1.13394 0.456699,1.687087 -0.668552,0.413188 -1.716339,0.25046 -2.328416,-0.361617 -1.583612,-1.583612 -2.513227,-1.380287 -2.913005,0.637132 -0.239713,1.209676 -0.577475,1.383238 -1.093943,0.56213 z M 62.866336,46.93194 c -1.191244,-3.975224 -1.377342,-6.58535 -0.507841,-7.122732 0.552018,-0.341166 1.00367,0.253772 1.00367,1.322084 0,1.068312 0.7875,2.220159 1.75,2.55966 0.9625,0.339501 2.3125,0.879485 3,1.199965 0.786461,0.36661 1.25,-0.189876 1.25,-1.500644 0,-1.145833 0.45,-2.083333 1,-2.083333 1.434034,0 1.236207,4.56382 -0.25,5.767418 -1.683136,1.363081 -6.824966,1.262018 -7.245829,-0.142418 z m 21.162496,0.708333 c -1.061951,-1.06195 -0.771096,-8.333333 0.333333,-8.333333 0.55,0 1,2.025 1,4.5 0,2.475 -0.15,4.5 -0.333333,4.5 -0.183334,0 -0.633334,-0.3 -1,-0.666667 z M 323.36217,44.378369 c 0,-3.616775 1.92922,-7.071429 3.94898,-7.071429 1.62483,0 2.95181,2.663376 2.39254,4.802036 -0.33861,1.294857 -0.11598,2.197964 0.54185,2.197964 0.61415,0 1.11663,0.498784 1.11663,1.108408 0,0.685532 -0.96217,0.866919 -2.52196,0.475437 -1.7677,-0.443666 -2.69693,-0.177014 -3.10699,0.891592 -1.0905,2.841794 -2.37105,1.543441 -2.37105,-2.404008 z m -10.40851,0.961657 c -1.25802,-4.755097 -1.54654,-7.033086 -0.89077,-7.033086 0.40635,0 1.96083,1.431781 3.45439,3.181735 l 2.71556,3.181735 0.67307,-2.681735 c 0.70715,-2.817499 1.87575,-3.430037 3.01796,-1.581904 0.37385,0.604907 -0.18195,2.253964 -1.23512,3.664571 -2.1867,2.928848 -7.0834,3.731987 -7.73509,1.268684 z M 91.36217,44.30694 c 0,-1.1 -0.45,-2 -1,-2 -1.83455,0 -1.02978,-1.934384 1.49227,-3.586898 1.46062,-0.95703 3.21989,-1.342151 4.25,-0.930365 1.59585,0.637932 1.55052,0.843473 -0.49227,2.231923 -1.27383,0.865801 -2.25,2.560997 -2.25,3.907312 0,1.307915 -0.45,2.378028 -1,2.378028 -0.55001,0 -1,-0.9 -1,-2 z m 8,-1.440983 c 0,-1.892541 0.44999,-3.719098 1,-4.059017 0.60392,-0.37325 1,0.989616 1,3.440983 0,2.232459 -0.45,4.059017 -1,4.059017 -0.55001,0 -1,-1.548442 -1,-3.440983 z m 4.63118,1.190983 c 0.42129,-1.2375 0.72422,-3.2625 0.67318,-4.5 -0.051,-1.2375 0.24084,-2.25 0.6486,-2.25 0.40777,0 1.22971,1.0125 1.82654,2.25 l 1.08514,2.25 0.0677,-2.25 c 0.07,-2.327729 1.48102,-3.008251 2.57321,-1.241051 1.06586,1.72463 -0.54798,4.991051 -2.46595,4.991051 -1.00409,0 -2.08464,0.675 -2.40123,1.5 -0.31658,0.825 -1.07005,1.5 -1.67437,1.5 -0.69976,0 -0.82061,-0.817084 -0.33281,-2.25 z m 11.30111,0.123507 c -1.51457,-2.830004 0.27746,-6.873507 3.04626,-6.873507 1.11179,0 2.02144,0.45 2.02144,1 0,0.55 -0.62686,1 -1.39301,1 -0.76616,0 -1.65417,0.680565 -1.97336,1.512366 -0.45509,1.185938 -0.0465,1.378378 1.89301,0.891592 2.15766,-0.541537 2.47336,-0.287832 2.47336,1.987634 0,2.105706 -0.47503,2.608408 -2.46482,2.608408 -1.49023,0 -2.9148,-0.840811 -3.60288,-2.126493 z M 334.36217,42.80694 c 0,-1.925 0.45,-3.5 1,-3.5 0.55,0 1,1.575 1,3.5 0,1.925 -0.45,3.5 -1,3.5 -0.55,0 -1,-1.575 -1,-3.5 z m 7.2684,0.876301 c 0.37897,-1.982488 0.0409,-2.744169 -1.38343,-3.116632 -1.03673,-0.271112 -1.88497,-0.797481 -1.88497,-1.169709 0,-0.792992 8.2838,-3.139493 8.90175,-2.521544 0.23063,0.230627 -0.26748,1.209581 -1.10691,2.175453 -0.83942,0.965872 -1.82023,2.993631 -2.17958,4.506131 -0.84247,3.545932 -3.023,3.663282 -2.34686,0.126301 z m 7.80189,-0.126301 c 0.092,-3.599006 1.40559,-6.907061 2.21969,-5.589827 0.85644,1.385751 -0.3283,8.339827 -1.42082,8.339827 -0.47804,0 -0.83753,-1.2375 -0.79887,-2.75 z m 15.89382,0.682942 c -0.86054,-1.607934 -0.75218,-2.607449 0.48787,-4.5 1.79188,-2.734759 3.54802,-3.19653 3.54802,-0.932942 0,0.825 -0.45,1.5 -1,1.5 -0.55,0 -0.9478,1.0125 -0.884,2.25 0.0873,1.69317 0.22918,1.81691 0.57333,0.5 0.26747,-1.023508 1.40716,-1.75 2.74532,-1.75 1.90131,0 2.20724,0.422521 1.8101,2.5 -0.37652,1.96965 -1.08213,2.5 -3.32614,2.5 -1.85559,0 -3.23379,-0.720402 -3.9545,-2.067058 z M 353.36217,41.80694 c 0,-1.925 0.30207,-3.5 0.67126,-3.5 0.36919,0 1.54151,0.7875 2.60514,1.75 1.86386,1.686636 1.92102,1.662846 1.57874,-0.657047 -0.19533,-1.323875 0.20736,-2.598875 0.89486,-2.833333 0.85979,-0.293215 1.25,0.79636 1.25,3.49038 0,2.154167 -0.2961,4.212762 -0.65799,4.574657 -0.3619,0.361895 -1.33508,0.0994 -2.16262,-0.583333 -1.19887,-0.989066 -1.59013,-0.987303 -1.92534,0.0087 -0.85455,2.53896 -2.25405,1.141971 -2.25405,-2.250024 z M 45.994297,34.520733 c -0.839526,-1.35838 6.854871,-2.20959 20.257439,-2.241023 6.385736,-0.01498 18.360429,-0.46206 26.610434,-0.993517 8.25,-0.531457 29.71326,-1.636122 47.69613,-2.454812 17.98286,-0.818689 33.25613,-1.609107 33.9406,-1.756484 0.68446,-0.147376 1.42909,0.583897 1.65473,1.625051 0.32723,1.50988 -0.0206,1.780333 -1.71863,1.336291 -1.17089,-0.306195 -9.65378,-0.180919 -18.85087,0.278392 -9.19708,0.45931 -23.24697,1.114935 -31.22197,1.456943 -7.975,0.342009 -19.15444,0.983834 -24.84321,1.426277 -5.68877,0.442443 -18.963777,0.898278 -29.500005,1.012965 -10.536229,0.114687 -20.120187,0.444695 -21.297686,0.73335 -1.177498,0.288655 -2.404631,0.09811 -2.726962,-0.423433 z M 281.47731,31.486998 c 0.45714,-1.341163 26.53074,-2.805568 37.88486,-2.127776 7.90324,0.47179 72.77739,0.04729 89.02236,-0.582517 5.2373,-0.203045 10.17427,0.03373 10.97104,0.526158 0.79678,0.492432 1.23671,1.070493 0.97764,1.28458 -0.25907,0.214086 -3.62104,0.09406 -7.47104,-0.266714 -3.85,-0.36078 -8.48085,-0.260255 -10.29078,0.223389 -2.79248,0.746196 -78.84953,1.306867 -87.70922,0.646567 -1.65,-0.122972 -9.92319,0.147441 -18.38486,0.600917 -11.3086,0.606049 -15.28289,0.525343 -15,-0.304604 z M 45.362165,28.199951 c 0,-2.3208 -0.371455,-2.964448 -1.467975,-2.543674 -2.466099,0.946331 -2.707681,-1.112895 -0.326249,-2.780915 2.519125,-1.764463 5.794224,-2.085756 5.794224,-0.568422 0,0.55 -0.45,1 -1,1 -0.55,0 -1,1.8 -1,4 0,2.2 -0.45,4 -1,4 -0.55,0 -1,-1.398145 -1,-3.106989 z m 7.531284,-1.300412 c 1.046873,-1.59773 1.222789,-2.626556 0.523053,-3.059017 -1.953101,-1.207082 -1.074851,-2.200249 1.945663,-2.200249 1.65,0 3,0.156311 3,0.347358 0,0.191047 -1.0125,1.910476 -2.25,3.820955 -1.2375,1.910478 -2.822874,3.479167 -3.523053,3.485975 -0.945094,0.0092 -0.866692,-0.607806 0.304337,-2.395022 z m 8.080105,0.259114 c -0.427432,-1.456558 -0.627353,-3.706558 -0.444269,-5 0.247584,-1.749116 0.969965,-2.351713 2.819185,-2.351713 3.180941,0 4.123104,3.397122 1.157265,4.172707 -1.252433,0.327518 -2.169205,1.545609 -2.392705,3.179124 l -0.362328,2.648169 z m 3.388611,-5.851713 c 0,-0.55 -0.198442,-1 -0.440983,-1 -0.242541,0 -0.719098,0.45 -1.059017,1 -0.339919,0.55 -0.141476,1 0.440983,1 0.582459,0 1.059017,-0.45 1.059017,-1 z m 4.666667,7.333333 c -1.061951,-1.06195 -0.771096,-8.333333 0.333333,-8.333333 0.55,0 1,2.025 1,4.5 0,2.475 -0.15,4.5 -0.333333,4.5 -0.183334,0 -0.633334,-0.3 -1,-0.666667 z m 3.912052,-2.98879 c -0.38791,-1.010878 0.222354,-2.568343 1.567325,-4 3.013812,-3.208055 4.49114,-2.97005 1.912532,0.308119 -2.289451,2.910565 -2.012399,4.38383 0.441424,2.347338 1.997527,-1.6578 3.173314,-0.51622 1.520056,1.475834 -1.672005,2.014642 -4.645395,1.942899 -5.441337,-0.131291 z m 11.948273,-0.300869 c -0.325073,-0.525979 -1.323964,-0.675078 -2.219757,-0.33133 -1.319133,0.506199 -1.505718,0.165263 -0.981629,-1.793674 0.355896,-1.330268 0.653229,-2.98117 0.660739,-3.66867 0.02612,-2.390689 1.825993,-1.229762 3.100757,2 0.705513,1.7875 1.462033,3.5875 1.681163,4 0.58922,1.109209 -1.549934,0.912284 -2.241273,-0.206326 z m 4.473013,-1.461887 c 0,-3.079472 0.9531,-5.581787 2.12604,-5.581787 0.50164,0 0.61114,1.198991 0.24334,2.664425 -0.55529,2.212437 -0.38888,2.551713 0.98094,2 4.59204,-1.849491 5.01387,-1.714928 2.34392,0.747693 -3.54806,3.272528 -5.69424,3.336477 -5.69424,0.169669 z m 194.4573,-2.831787 c 0.0247,-3.032576 0.56506,-5.58463 1.27945,-6.042275 1.6159,-1.035162 5.26325,0.941374 5.26325,2.85221 0,0.819262 -1.125,1.917291 -2.5,2.440065 -1.75555,0.66746 -2.5,1.702314 -2.5,3.475249 0,1.388613 -0.35671,2.524751 -0.7927,2.524751 -0.43598,0 -0.77348,-2.3625 -0.75,-5.25 z m 4.27187,-3.354167 c -0.33229,-0.332291 -1.1948,-0.367818 -1.91667,-0.07895 -0.79773,0.319226 -0.56078,0.556183 0.60417,0.604167 1.05416,0.04342 1.64479,-0.192928 1.3125,-0.52522 z m 12.15241,6.913184 c -0.0651,-0.444959 -0.0237,-1.259017 0.0921,-1.809017 0.11579,-0.55 0.21408,-2.465221 0.21843,-4.256046 0.006,-2.626552 0.48604,-3.376055 2.48111,-3.876784 1.36026,-0.341406 2.90502,-0.188933 3.43278,0.338828 1.34088,1.340886 0.0838,4.098989 -2.19838,4.823323 -1.04919,0.333 -1.90762,1.448572 -1.90762,2.47905 0,1.838842 -1.88618,3.887267 -2.11842,2.300646 z m 28.31038,-0.809017 c -0.90525,-1.384123 -1.4698,-1.615077 -1.83333,-0.75 -0.28891,0.6875 -1.2528,1.25 -2.14196,1.25 -1.25741,0 -1.35,-0.266667 -0.41667,-1.2 0.66,-0.66 1.2,-2.46 1.2,-4 0,-1.792332 0.52716,-2.8 1.46482,-2.8 1.99572,0 3.72587,3.514985 3.34683,6.799453 -0.29953,2.595544 -0.36251,2.622783 -1.61969,0.700547 z m 5.80804,-2.869551 c 0,-4.375175 0.18604,-4.742861 2.25,-4.446765 1.70643,0.244806 2.18675,0.89777 1.98817,2.702838 -0.144,1.309028 0.25762,3.005947 0.8925,3.770931 1.48046,1.783843 0.34471,2.981965 -1.4303,1.508841 -0.99764,-0.827971 -1.65364,-0.813028 -2.52416,0.0575 -0.90161,0.901608 -1.17621,0.0627 -1.17621,-3.593345 z m 22.4526,3.446242 c 0.36599,-0.59218 1.42638,-1.100294 2.35642,-1.129143 1.36769,-0.04242 1.26081,-0.352522 -0.55902,-1.621972 -1.2375,-0.863236 -2.25,-2.159308 -2.25,-2.88016 0,-1.770831 3.92944,-2.915974 5.30066,-1.544753 0.79912,0.799116 0.49854,1.099337 -1.10066,1.099337 -2.79176,0 -2.86955,1.591645 -0.11303,2.312493 3.12853,0.818128 2.06967,4.110219 -1.45194,4.514198 -1.84289,0.211406 -2.61304,-0.05326 -2.18243,-0.75 z m 8.5474,-1.421703 c 0,-2.442442 3.52553,-6.462793 4.66667,-5.321655 0.35992,0.359923 -0.16508,1.559923 -1.16667,2.666667 -2.10232,2.323039 -1.30666,3.914359 1,2 0.85158,-0.706751 1.82658,-1.006751 2.16667,-0.666667 1.1184,1.118399 -1.86246,3.666667 -4.28911,3.666667 -1.82749,0 -2.37756,-0.542538 -2.37756,-2.345012 z m 27,-2.595971 c 0,-2.782459 0.37777,-5.059017 0.83948,-5.059017 0.46172,0 1.35207,1.125 1.97857,2.5 1.50059,3.293444 3.18195,3.187763 3.18195,-0.2 0,-1.940501 0.30511,-2.394888 1.08466,-1.615335 0.59657,0.596566 0.93361,2.149066 0.74899,3.45 -0.26823,1.890019 -0.88809,2.327503 -3.08467,2.177071 -1.7609,-0.120595 -2.74898,0.307484 -2.74898,1.190983 0,0.758586 -0.45,1.657362 -1,1.997281 -0.61633,0.380914 -1,-1.322949 -1,-4.440983 z m -100.63923,2.438747 c -0.31706,-0.82623 -0.28724,-2.654605 0.0663,-4.063057 0.52071,-2.074685 1.15653,-2.501391 3.3493,-2.247764 3.30657,0.382456 4.09668,3.190909 1.65634,5.887461 -2.08658,2.305643 -4.27936,2.488678 -5.0719,0.42336 z m 4.39624,-4.07409 c -0.98419,-0.984183 -2.75701,0.526687 -2.75701,2.349629 0,1.526473 0.13153,1.523734 1.69048,-0.03521 0.92976,-0.929762 1.4097,-1.971251 1.06653,-2.314421 z m 11.70289,4.511441 c -0.94523,-1.529418 0.42872,-7.935115 1.70199,-7.935115 0.60346,0 0.86257,1.091719 0.59336,2.5 -0.56599,2.960781 0.77659,3.398246 1.5345,0.5 0.28766,-1.1 1.04546,-2 1.68402,-2 1.45764,0 0.39128,3.814891 -1.74704,6.25 -1.76335,2.008099 -2.82935,2.201986 -3.76683,0.685115 z m 68.55541,-1.185115 c 0.008,-1.2375 0.45153,-2.925 0.98469,-3.75 0.72105,-1.115752 0.9733,-0.539381 0.98469,2.25 0.008,2.0625 -0.43469,3.75 -0.98469,3.75 -0.55,0 -0.99311,-1.0125 -0.98469,-2.25 z m 5.98469,0.797053 c 0,-2.940052 2.40883,-6.611559 4.71801,-7.191126 3.369,-0.845565 4.08323,0.388944 0.92068,1.591344 -3.11096,1.182783 -3.55798,2.526392 -0.58159,1.748047 1.28587,-0.336261 1.91417,-0.109142 1.67587,0.605785 -0.20969,0.629052 -1.47289,1.448787 -2.80711,1.821634 -2.36189,0.660026 -2.36653,0.680532 -0.17586,0.777583 3.39652,0.150473 2.70027,2.09968 -0.75,2.09968 -1.95682,0 -3,-0.505228 -3,-1.452947 z m 29.68488,0.804489 c -0.79324,-0.793239 0.22621,-5.388535 1.57545,-7.101542 1.17264,-1.488787 4.73967,-1.676935 4.73967,-0.25 0,0.55 -0.9,1 -2,1 -3.01131,0 -2.40231,1.813565 0.75,2.233469 2.72503,0.362987 2.71821,0.376393 -0.75,1.476234 -2.63433,0.835399 -2.9435,1.132227 -1.25,1.200109 1.2375,0.0496 2.25,0.540188 2.25,1.090188 0,1.101553 -4.28191,1.384758 -5.31512,0.351542 z M 114.74117,20.80694 c 0.38577,-1.65 0.75831,-3.5625 0.82786,-4.25 0.21823,-2.156935 1.52191,-1.374862 3.61131,2.16639 2.09722,3.554541 1.84555,5.379344 -0.47617,3.452489 -0.99891,-0.829019 -1.76672,-0.762885 -3.00321,0.258676 -1.50231,1.241178 -1.59411,1.085511 -0.95979,-1.627555 z m 10.28767,1.833333 c -1.20028,-1.200263 -0.69914,-5.061498 0.82059,-6.322764 0.88812,-0.737081 2.19737,-0.916952 3.25,-0.446504 1.55524,0.695083 1.49788,0.834149 -0.48727,1.181427 -1.42038,0.248478 -2.25,1.105404 -2.25,2.324059 0,2.051582 1.46916,2.598376 2.5,0.930449 0.33992,-0.55 1.05731,-1 1.5942,-1 0.60349,0 0.56753,0.763554 -0.0942,2 -1.04049,1.944164 -3.9861,2.680568 -5.33332,1.333333 z m 7.79636,-1.083333 c 0.37236,-0.9625 0.92676,-2.9875 1.23199,-4.5 0.30523,-1.5125 0.86537,-2.75 1.24476,-2.75 0.94637,0 4.27232,7.121224 3.62724,7.766307 -0.28529,0.285282 -1.19925,-0.04611 -2.03103,-0.73643 -1.23613,-1.025898 -1.62535,-0.960606 -2.13116,0.357499 -0.34035,0.886943 -1.06882,1.612624 -1.61882,1.612624 -0.55,0 -0.69534,-0.7875 -0.32298,-1.75 z m 19.84511,0.5 c -0.5152,-0.6875 -0.86717,-2.825 -0.78216,-4.75 0.13569,-3.072189 0.50849,-3.541457 3.04998,-3.839164 l 2.89539,-0.339165 -1.98568,2.25873 c -1.73258,1.970831 -1.76262,2.177387 -0.23568,1.620549 1.16196,-0.423739 1.75,-0.144696 1.75,0.830435 0,0.807738 -0.7875,1.475506 -1.75,1.483928 -1.38406,0.01211 -1.46182,0.197841 -0.37188,0.888196 0.75796,0.480086 1.0689,1.373196 0.69098,1.984688 -0.90189,1.459293 -2.10192,1.408437 -3.26095,-0.138197 z m 6.26783,-2.5 c 0.83307,-4.686466 2.11834,-6.20927 3.0952,-3.667217 0.67286,1.750969 0.78648,1.706862 1.31036,-0.508644 0.3155,-1.334224 1.099,-2.600987 1.74113,-2.815029 0.81207,-0.270691 1.10811,1.318982 0.97242,5.221719 -0.19436,5.58987 -0.20191,5.602487 -2.01457,3.368437 -1.51176,-1.863192 -1.97427,-1.997792 -2.73469,-0.795858 -0.50336,0.795626 -0.9221,1.784092 -0.93052,2.196592 -0.008,0.4125 -0.4857,0.75 -1.06062,0.75 -0.65976,0 -0.79944,-1.383156 -0.37871,-3.75 z m 8.894,2.701427 c -0.90461,-1.463691 0.38074,-7.951427 1.57533,-7.951427 1.23078,0 1.25243,7.697953 0.0238,8.457295 -0.512,0.316431 -1.2316,0.08879 -1.59912,-0.505868 z m 148.53003,-0.86964 c 0,-2.629447 1.02597,-5.081787 2.12604,-5.081787 0.50164,0 0.61114,1.198991 0.24334,2.664425 -0.55355,2.205484 -0.38458,2.555385 0.98094,2.031385 1.07141,-0.411138 1.64968,-0.11824 1.64968,0.835575 0,0.899856 -0.96819,1.468615 -2.5,1.468615 -1.7978,0 -2.5,-0.538786 -2.5,-1.918213 z m 86.30947,0.28229 c -0.80661,-2.101975 0.8696,-4.760508 3.29771,-5.2303 1.84287,-0.356559 1.84405,-0.31204 0.0449,1.686986 -2.27057,2.522756 -1.37784,4.638039 1.34291,3.181941 2.67422,-1.431198 3.44658,-1.239637 2.00505,0.497296 -1.65951,1.999591 -5.90415,1.913358 -6.69053,-0.135923 z m -258.30948,-1.78229 c 0,-1.330016 -0.28583,-3.163064 -0.63517,-4.073439 -0.52668,-1.372519 -0.057,-1.599985 2.75,-1.331788 2.71693,0.259592 3.45328,0.805887 3.73014,2.767412 0.21206,1.502301 -0.34321,2.94719 -1.44113,3.75 -2.72313,1.991202 -4.40384,1.566741 -4.40384,-1.112185 z m 4,-2.081787 c 0,-0.825 -0.44999,-1.5 -1,-1.5 -0.55,0 -1,0.675 -1,1.5 0,0.825 0.45,1.5 1,1.5 0.55001,0 1,-0.675 1,-1.5 z m 23.39162,3.078141 c -0.77282,-2.013919 1.36361,-5.578141 3.34357,-5.578141 1.29485,0 1.39814,0.266667 0.46481,1.2 -1.91859,1.918595 -1.38742,2.970672 0.88565,1.754163 3.0493,-1.631936 3.80644,-0.09987 1.05357,2.131917 -2.79974,2.269786 -4.99337,2.457585 -5.7476,0.492061 z"
     id="path5867"
     inkscape:connector-curvature="0" />
</svg>
