<?xml version="1.0" encoding="iso-8859-1"?>
<!-- Generator: Adobe Illustrator 16.0.0, SVG Export Plug-In . SVG Version: 6.00 Build 0)  -->
<!DOCTYPE svg PUBLIC "-//W3C//DTD SVG 1.1//EN" "http://www.w3.org/Graphics/SVG/1.1/DTD/svg11.dtd">
<svg version="1.1" id="Capa_1" xmlns="http://www.w3.org/2000/svg" xmlns:xlink="http://www.w3.org/1999/xlink" x="0px" y="0px"
	 width="35px" height="35px" viewBox="0 0 35 35" style="enable-background:new 0 0 35 35;" xml:space="preserve">
<g>
	<g>
		<path d="M0,35h35v-6.717H0V35z M2.121,30.404h30.758v2.475H2.121V30.404z"/>
		<path d="M0,0v6.717h35V0H0z M32.879,4.596H2.121V2.121h30.758V4.596z"/>
		<rect x="4.209" y="7.619" width="5.185" height="5.274"/>
		<rect x="11.341" y="7.619" width="5.187" height="5.274"/>
		<rect x="18.475" y="7.619" width="5.187" height="5.274"/>
		<rect x="25.607" y="7.619" width="5.185" height="5.274"/>
		<rect x="4.209" y="14.862" width="5.185" height="5.275"/>
		<rect x="11.341" y="14.862" width="5.187" height="5.275"/>
		<rect x="18.475" y="14.862" width="5.187" height="5.275"/>
		<rect x="25.607" y="14.862" width="5.185" height="5.275"/>
		<rect x="4.209" y="22.105" width="5.185" height="5.274"/>
		<rect x="11.341" y="22.105" width="5.187" height="5.274"/>
		<rect x="18.475" y="22.105" width="5.187" height="5.274"/>
		<rect x="25.607" y="22.105" width="5.185" height="5.274"/>
	</g>
</g>
<g>
</g>
<g>
</g>
<g>
</g>
<g>
</g>
<g>
</g>
<g>
</g>
<g>
</g>
<g>
</g>
<g>
</g>
<g>
</g>
<g>
</g>
<g>
</g>
<g>
</g>
<g>
</g>
<g>
</g>
</svg>
