<?xml version="1.0" encoding="iso-8859-1"?>
<!-- Generator: Adobe Illustrator 16.0.0, SVG Export Plug-In . SVG Version: 6.00 Build 0)  -->
<!DOCTYPE svg PUBLIC "-//W3C//DTD SVG 1.1//EN" "http://www.w3.org/Graphics/SVG/1.1/DTD/svg11.dtd">
<svg version="1.1" id="Capa_1" xmlns="http://www.w3.org/2000/svg" xmlns:xlink="http://www.w3.org/1999/xlink" x="0px" y="0px"
	 width="560.414px" height="560.415px" viewBox="0 0 560.414 560.415" style="enable-background:new 0 0 560.414 560.415;"
	 xml:space="preserve">
<g>
	<g>
		<path d="M115.65,24.92H33.507C15.031,24.92,0,39.951,0,58.421v82.143c0,18.477,15.031,33.501,33.507,33.501h82.143
			c18.476,0,33.501-15.031,33.501-33.501V58.421C149.145,39.945,134.12,24.92,115.65,24.92z"/>
		<path d="M526.908,24.92H212.205c-18.477,0-33.501,15.031-33.501,33.501v82.143c0,18.477,15.025,33.501,33.501,33.501h314.703
			c18.477,0,33.506-15.031,33.506-33.501V58.421C560.414,39.945,545.377,24.92,526.908,24.92z"/>
		<path d="M115.65,205.632H33.507C15.031,205.632,0,220.663,0,239.133v82.143c0,18.476,15.031,33.5,33.507,33.5h82.143
			c18.476,0,33.501-15.024,33.501-33.5v-82.143C149.145,220.657,134.12,205.632,115.65,205.632z"/>
		<path d="M526.908,205.632H212.205c-18.477,0-33.501,15.031-33.501,33.501v82.143c0,18.476,15.025,33.5,33.501,33.5h314.703
			c18.477,0,33.506-15.024,33.506-33.5v-82.143C560.414,220.657,545.377,205.632,526.908,205.632z"/>
		<path d="M115.65,386.343H33.507C15.031,386.343,0,401.374,0,419.85v82.143c0,18.477,15.031,33.501,33.507,33.501h82.143
			c18.476,0,33.501-15.024,33.501-33.501V419.85C149.145,401.374,134.12,386.343,115.65,386.343z"/>
		<path d="M526.908,386.343H212.205c-18.477,0-33.501,15.03-33.501,33.507v82.143c0,18.477,15.025,33.501,33.501,33.501h314.703
			c18.477,0,33.506-15.024,33.506-33.501V419.85C560.414,401.374,545.377,386.343,526.908,386.343z"/>
	</g>
</g>
<g>
</g>
<g>
</g>
<g>
</g>
<g>
</g>
<g>
</g>
<g>
</g>
<g>
</g>
<g>
</g>
<g>
</g>
<g>
</g>
<g>
</g>
<g>
</g>
<g>
</g>
<g>
</g>
<g>
</g>
</svg>
