<?xml version="1.0" encoding="iso-8859-1"?>
<!-- Generator: Adobe Illustrator 19.0.0, SVG Export Plug-In . SVG Version: 6.00 Build 0)  -->
<svg version="1.1" id="Layer_1" xmlns="http://www.w3.org/2000/svg" xmlns:xlink="http://www.w3.org/1999/xlink" x="0px" y="0px"
	 viewBox="0 0 512 512" style="enable-background:new 0 0 512 512;" xml:space="preserve">
<g>
	<g>
		<path d="M93.925,0H42.607C19.114,0,0,19.177,0,42.748v426.504C0,492.823,19.114,512,42.607,512h51.318
			c23.495,0,42.608-19.177,42.608-42.748V42.748C136.533,19.177,117.42,0,93.925,0z M119.467,469.252
			c0,14.16-11.458,25.681-25.542,25.681H42.607c-14.083,0-25.541-11.521-25.541-25.681v-76.719h102.4V469.252z M119.467,375.467
			h-102.4V264.533h102.4V375.467z M119.467,247.467h-102.4V136.533h102.4V247.467z M119.467,119.467h-102.4V42.748
			c0-14.16,11.457-25.681,25.541-25.681h51.318c14.083,0,25.542,11.521,25.542,25.681V119.467z"/>
	</g>
</g>
<g>
	<g>
		<path d="M281.658,0h-51.318c-23.494,0-42.607,19.177-42.607,42.748v426.504c0,23.571,19.114,42.748,42.607,42.748h51.318
			c23.495,0,42.608-19.177,42.608-42.748V42.748C324.267,19.177,305.153,0,281.658,0z M307.2,469.252
			c0,14.16-11.458,25.681-25.542,25.681h-51.318c-14.083,0-25.541-11.521-25.541-25.681v-76.719h102.4V469.252z M307.2,375.467
			H204.8V264.533h102.4V375.467z M307.2,247.467H204.8V136.533h102.4V247.467z M307.2,119.467H204.8V42.748
			c0-14.16,11.457-25.681,25.541-25.681h51.318c14.083,0,25.542,11.521,25.542,25.681V119.467z"/>
	</g>
</g>
<g>
	<g>
		<path d="M469.392,0h-51.318c-23.493,0-42.607,19.177-42.607,42.748v426.504c0,23.571,19.114,42.748,42.607,42.748h51.318
			C492.886,512,512,492.823,512,469.252V42.748C512,19.177,492.886,0,469.392,0z M494.933,469.252
			c0,14.16-11.458,25.681-25.542,25.681h-51.318c-14.083,0-25.54-11.521-25.54-25.681v-76.719h102.4V469.252z M494.933,375.467
			h-102.4V264.533h102.4V375.467z M494.933,247.467h-102.4V136.533h102.4V247.467z M494.933,119.467h-102.4V42.748
			c0-14.16,11.457-25.681,25.541-25.681h51.318c14.083,0,25.542,11.521,25.542,25.681V119.467z"/>
	</g>
</g>
<g>
</g>
<g>
</g>
<g>
</g>
<g>
</g>
<g>
</g>
<g>
</g>
<g>
</g>
<g>
</g>
<g>
</g>
<g>
</g>
<g>
</g>
<g>
</g>
<g>
</g>
<g>
</g>
<g>
</g>
</svg>
