<?xml version="1.0" encoding="iso-8859-1"?>
<!-- Generator: Adobe Illustrator 18.1.1, SVG Export Plug-In . SVG Version: 6.00 Build 0)  -->
<svg version="1.1" id="Capa_1" xmlns="http://www.w3.org/2000/svg" xmlns:xlink="http://www.w3.org/1999/xlink" x="0px" y="0px"
	 viewBox="0 0 35.999 35.999" style="enable-background:new 0 0 35.999 35.999;" xml:space="preserve">
<g>
	<g>
		<path style="fill:#010002;" d="M6.583,2.833H1.75C0.785,2.833,0,3.618,0,4.583v4.833c0,0.965,0.785,1.75,1.75,1.75h4.833
			c0.965,0,1.75-0.785,1.75-1.75V4.583C8.333,3.618,7.548,2.833,6.583,2.833z M6.833,9.416c0,0.138-0.112,0.25-0.25,0.25H1.75
			c-0.138,0-0.25-0.112-0.25-0.25V4.583c0-0.138,0.112-0.25,0.25-0.25h4.833c0.138,0,0.25,0.112,0.25,0.25V9.416z"/>
		<path style="fill:#010002;" d="M34.25,2.833H12.416c-0.965,0-1.75,0.785-1.75,1.75v4.833c0,0.965,0.785,1.75,1.75,1.75h21.833
			c0.965,0,1.75-0.785,1.75-1.75V4.583C36,3.618,35.215,2.833,34.25,2.833z M34.499,9.416c0,0.138-0.111,0.25-0.25,0.25H12.416
			c-0.138,0-0.25-0.112-0.25-0.25V4.583c0-0.138,0.112-0.25,0.25-0.25h21.833c0.139,0,0.25,0.112,0.25,0.25V9.416z"/>
		<path style="fill:#010002;" d="M34.25,13.833H12.416c-0.965,0-1.75,0.785-1.75,1.75v4.833c0,0.965,0.785,1.75,1.75,1.75h21.833
			c0.965,0,1.75-0.785,1.75-1.75v-4.833C36,14.618,35.215,13.833,34.25,13.833z M34.499,20.416c0,0.139-0.111,0.25-0.25,0.25H12.416
			c-0.138,0-0.25-0.111-0.25-0.25v-4.833c0-0.138,0.112-0.25,0.25-0.25h21.833c0.139,0,0.25,0.112,0.25,0.25V20.416z"/>
		<path style="fill:#010002;" d="M34.25,24.833H12.416c-0.965,0-1.75,0.785-1.75,1.75v4.833c0,0.965,0.785,1.75,1.75,1.75h21.833
			c0.965,0,1.75-0.785,1.75-1.75v-4.833C36,25.618,35.215,24.833,34.25,24.833z M34.499,31.416c0,0.139-0.111,0.25-0.25,0.25H12.416
			c-0.138,0-0.25-0.111-0.25-0.25v-4.833c0-0.138,0.112-0.25,0.25-0.25h21.833c0.139,0,0.25,0.112,0.25,0.25V31.416z"/>
		<path style="fill:#010002;" d="M6.583,13.833H1.75c-0.965,0-1.75,0.785-1.75,1.75v4.833c0,0.965,0.785,1.75,1.75,1.75h4.833
			c0.965,0,1.75-0.785,1.75-1.75v-4.833C8.333,14.618,7.548,13.833,6.583,13.833z M6.833,20.416c0,0.139-0.112,0.25-0.25,0.25H1.75
			c-0.138,0-0.25-0.111-0.25-0.25v-4.833c0-0.138,0.112-0.25,0.25-0.25h4.833c0.138,0,0.25,0.112,0.25,0.25V20.416z"/>
		<path style="fill:#010002;" d="M6.583,24.833H1.75c-0.965,0-1.75,0.785-1.75,1.75v4.833c0,0.965,0.785,1.75,1.75,1.75h4.833
			c0.965,0,1.75-0.785,1.75-1.75v-4.833C8.333,25.618,7.548,24.833,6.583,24.833z M6.833,31.416c0,0.139-0.112,0.25-0.25,0.25H1.75
			c-0.138,0-0.25-0.111-0.25-0.25v-4.833c0-0.138,0.112-0.25,0.25-0.25h4.833c0.138,0,0.25,0.112,0.25,0.25V31.416z"/>
	</g>
</g>
<g>
</g>
<g>
</g>
<g>
</g>
<g>
</g>
<g>
</g>
<g>
</g>
<g>
</g>
<g>
</g>
<g>
</g>
<g>
</g>
<g>
</g>
<g>
</g>
<g>
</g>
<g>
</g>
<g>
</g>
</svg>
