<?xml version="1.0" encoding="iso-8859-1"?>
<!-- Generator: Adobe Illustrator 16.0.0, SVG Export Plug-In . SVG Version: 6.00 Build 0)  -->
<!DOCTYPE svg PUBLIC "-//W3C//DTD SVG 1.1//EN" "http://www.w3.org/Graphics/SVG/1.1/DTD/svg11.dtd">
<svg version="1.1" id="Capa_1" xmlns="http://www.w3.org/2000/svg" xmlns:xlink="http://www.w3.org/1999/xlink" x="0px" y="0px"
	 width="66px" height="66px" viewBox="0 0 66 66" style="enable-background:new 0 0 66 66;" xml:space="preserve">
<g>
	<g>
		<g>
			<g>
				<path d="M57.5,18h-27c-4.687,0-8.5-3.813-8.5-8.5S25.813,1,30.5,1h27C62.188,1,66,4.813,66,9.5S62.188,18,57.5,18z M30.5,5
					C28.019,5,26,7.019,26,9.5s2.019,4.5,4.5,4.5h27c2.48,0,4.5-2.019,4.5-4.5S59.98,5,57.5,5H30.5z"/>
			</g>
			<g>
				<path d="M57.5,65h-27c-4.687,0-8.5-3.812-8.5-8.5s3.813-8.5,8.5-8.5h27c4.688,0,8.5,3.812,8.5,8.5S62.188,65,57.5,65z M30.5,52
					c-2.481,0-4.5,2.02-4.5,4.5s2.019,4.5,4.5,4.5h27c2.48,0,4.5-2.02,4.5-4.5S59.98,52,57.5,52H30.5z"/>
			</g>
			<g>
				<path d="M57.5,42h-27c-4.687,0-8.5-3.812-8.5-8.5c0-4.687,3.813-8.5,8.5-8.5h27c4.688,0,8.5,3.813,8.5,8.5
					C66,38.188,62.188,42,57.5,42z M30.5,29c-2.481,0-4.5,2.019-4.5,4.5c0,2.48,2.019,4.5,4.5,4.5h27c2.48,0,4.5-2.02,4.5-4.5
					c0-2.481-2.02-4.5-4.5-4.5H30.5z"/>
			</g>
		</g>
		<g>
			<g>
				<path d="M9.5,18h-1C3.813,18,0,14.187,0,9.5S3.813,1,8.5,1h1C14.187,1,18,4.813,18,9.5S14.187,18,9.5,18z M8.5,5
					C6.019,5,4,7.019,4,9.5S6.019,14,8.5,14h1c2.481,0,4.5-2.019,4.5-4.5S11.981,5,9.5,5H8.5z"/>
			</g>
			<g>
				<path d="M9.5,65h-1C3.813,65,0,61.188,0,56.5S3.813,48,8.5,48h1c4.687,0,8.5,3.812,8.5,8.5S14.187,65,9.5,65z M8.5,52
					C6.019,52,4,54.02,4,56.5S6.019,61,8.5,61h1c2.481,0,4.5-2.02,4.5-4.5S11.981,52,9.5,52H8.5z"/>
			</g>
			<g>
				<path d="M9.5,42h-1C3.813,42,0,38.188,0,33.5C0,28.813,3.813,25,8.5,25h1c4.687,0,8.5,3.813,8.5,8.5C18,38.188,14.187,42,9.5,42
					z M8.5,29C6.019,29,4,31.019,4,33.5C4,35.98,6.019,38,8.5,38h1c2.481,0,4.5-2.02,4.5-4.5c0-2.481-2.019-4.5-4.5-4.5H8.5z"/>
			</g>
		</g>
	</g>
</g>
<g>
</g>
<g>
</g>
<g>
</g>
<g>
</g>
<g>
</g>
<g>
</g>
<g>
</g>
<g>
</g>
<g>
</g>
<g>
</g>
<g>
</g>
<g>
</g>
<g>
</g>
<g>
</g>
<g>
</g>
</svg>
