<?xml version='1.0' encoding='utf-8'?>
<svg version="1.1" xmlns="http://www.w3.org/2000/svg" viewBox="0 0 129 129" xmlns:xlink="http://www.w3.org/1999/xlink" enable-background="new 0 0 129 129">
  <g>
    <g>
      <path d="m10.5,58.9h44.3c2.3,0 4.1-1.8 4.1-4.1v-44.3c0-2.3-1.8-4.1-4.1-4.1h-44.3c-2.3,0-4.1,1.8-4.1,4.1v44.3c0,2.2 1.9,4.1 4.1,4.1zm4.1-44.3h36.1v36.1h-36.1v-36.1z"/>
      <path d="m122.6,10.5c0-2.3-1.8-4.1-4.1-4.1h-44.3c-2.3,0-4.1,1.8-4.1,4.1v44.3c0,2.3 1.8,4.1 4.1,4.1h44.3c2.3,0 4.1-1.8 4.1-4.1v-44.3zm-8.2,40.2h-36.1v-36.1h36.1v36.1z"/>
      <path d="m10.5,122.6h44.3c2.3,0 4.1-1.8 4.1-4.1v-44.3c0-2.3-1.8-4.1-4.1-4.1h-44.3c-2.3,0-4.1,1.8-4.1,4.1v44.3c0,2.2 1.9,4.1 4.1,4.1zm4.1-44.3h36.1v36.1h-36.1v-36.1z"/>
      <path d="m118.5,70.1h-44.3c-2.3,0-4.1,1.8-4.1,4.1v44.3c0,2.3 1.8,4.1 4.1,4.1h44.3c2.3,0 4.1-1.8 4.1-4.1v-44.3c0-2.2-1.9-4.1-4.1-4.1zm-4.1,44.3h-36.1v-36.1h36.1v36.1z"/>
    </g>
  </g>
</svg>
