<?xml version="1.0" encoding="iso-8859-1"?>
<!-- Generator: Adobe Illustrator 19.0.0, SVG Export Plug-In . SVG Version: 6.00 Build 0)  -->
<svg version="1.1" id="Capa_1" xmlns="http://www.w3.org/2000/svg" xmlns:xlink="http://www.w3.org/1999/xlink" x="0px" y="0px"
	 viewBox="0 0 508.52 508.52" style="enable-background:new 0 0 508.52 508.52;" xml:space="preserve">
<g>
	<g>
		<g>
			<path style="fill:#090509;" d="M507.948,46.021c-1.367-16.368-14.588-30.13-31.21-30.13H31.782
				c-16.622,0-29.844,13.762-31.242,30.13H0v414.825c0,17.544,14.239,31.782,31.782,31.782h444.955
				c17.544,0,31.782-14.239,31.782-31.782V46.021H507.948z M158.912,460.846H31.782v-95.347h127.13V460.846z M158.912,336.354
				H31.782v-97.985h127.13V336.354z M158.912,206.586H31.782v-95.347h127.13V206.586z M317.825,460.846h-127.13v-95.347h127.13
				V460.846z M317.825,336.354h-127.13v-97.985h127.13V336.354z M317.825,206.586h-127.13v-95.347h127.13V206.586z M476.737,460.846
				h-127.13v-95.347h127.13V460.846z M476.737,336.354h-127.13v-97.985h127.13V336.354z M476.737,206.586h-127.13v-95.347h127.13
				V206.586z"/>
		</g>
	</g>
</g>
<g>
</g>
<g>
</g>
<g>
</g>
<g>
</g>
<g>
</g>
<g>
</g>
<g>
</g>
<g>
</g>
<g>
</g>
<g>
</g>
<g>
</g>
<g>
</g>
<g>
</g>
<g>
</g>
<g>
</g>
</svg>
