<?xml version="1.0" encoding="iso-8859-1"?>
<!-- Generator: Adobe Illustrator 19.0.0, SVG Export Plug-In . SVG Version: 6.00 Build 0)  -->
<svg version="1.1" id="Layer_1" xmlns="http://www.w3.org/2000/svg" xmlns:xlink="http://www.w3.org/1999/xlink" x="0px" y="0px"
	 viewBox="0 0 512 512" style="enable-background:new 0 0 512 512;" xml:space="preserve">
<g>
	<g>
		<path d="M491.318,0H334.439c-11.423,0-20.682,9.26-20.682,20.682c0,11.422,9.259,20.682,20.682,20.682h136.197v136.197
			c0,11.422,9.259,20.682,20.682,20.682c11.423,0,20.682-9.26,20.682-20.682V20.682C512,9.26,502.741,0,491.318,0z"/>
	</g>
</g>
<g>
	<g>
		<path d="M177.561,470.636H41.365V334.439c0-11.423-9.26-20.682-20.682-20.682C9.26,313.757,0,323.016,0,334.439v156.879
			C0,502.741,9.26,512,20.682,512h156.879c11.422,0,20.682-9.259,20.682-20.682C198.244,479.895,188.983,470.636,177.561,470.636z"
			/>
	</g>
</g>
<g>
	<g>
		<path d="M505.943,6.058c-8.077-8.077-21.172-8.077-29.249,0L293.669,189.083c-8.076,8.077-8.076,21.172,0,29.249
			c4.038,4.038,9.332,6.058,14.625,6.058c5.292,0,10.586-2.019,14.625-6.058L505.943,35.307
			C514.019,27.23,514.019,14.135,505.943,6.058z"/>
	</g>
</g>
<g>
	<g>
		<path d="M218.332,293.669c-8.076-8.077-21.172-8.077-29.249,0L6.058,476.693c-8.077,8.077-8.077,21.172,0,29.249
			C10.096,509.982,15.39,512,20.682,512c5.293,0,10.586-2.019,14.625-6.058l183.025-183.025
			C226.409,314.841,226.409,301.746,218.332,293.669z"/>
	</g>
</g>
<g>
</g>
<g>
</g>
<g>
</g>
<g>
</g>
<g>
</g>
<g>
</g>
<g>
</g>
<g>
</g>
<g>
</g>
<g>
</g>
<g>
</g>
<g>
</g>
<g>
</g>
<g>
</g>
<g>
</g>
</svg>
