<?xml version='1.0' encoding='utf-8'?>
<svg version="1.1" xmlns="http://www.w3.org/2000/svg" viewBox="0 0 129 129" xmlns:xlink="http://www.w3.org/1999/xlink" enable-background="new 0 0 129 129">
  <g>
    <g>
      <path d="m30.7,75.1h13.5c2.3,0 4.1-1.8 4.1-4.1s-1.8-4-4.1-4h-13.5c-2.3,0-4.1,1.8-4.1,4.1s1.9,4 4.1,4z"/>
      <path d="m118.5,24h-107.9c-2.3,0-4.1,1.8-4.1,4.1v25.5c-0.1,0.3-0.1,0.6-0.1,0.9s0,0.6 0.1,0.9v45.4c0,2.3 1.8,4.1 4.1,4.1h107.9c2.3,0 4.1-1.8 4.1-4.1v-72.7c0-2.2-1.8-4.1-4.1-4.1zm-4.1,72.8h-99.7v-38.2h99.7v38.2zm0-46.3h-99.7v-18.3h99.7v18.3z"/>
    </g>
  </g>
</svg>
