<?xml version="1.0" encoding="iso-8859-1"?>
<!-- Generator: Adobe Illustrator 19.0.0, SVG Export Plug-In . SVG Version: 6.00 Build 0)  -->
<svg version="1.1" id="Layer_1" xmlns="http://www.w3.org/2000/svg" xmlns:xlink="http://www.w3.org/1999/xlink" x="0px" y="0px"
	 viewBox="0 0 512 512" style="enable-background:new 0 0 512 512;" xml:space="preserve">
<g>
	<g>
		<path d="M503.467,0H8.533C3.821,0,0,3.821,0,8.533V128c0,4.713,3.821,8.533,8.533,8.533h494.933c4.713,0,8.533-3.821,8.533-8.533
			V8.533C512,3.821,508.179,0,503.467,0z M494.933,119.467H17.067v-102.4h477.867V119.467z"/>
	</g>
</g>
<g>
	<g>
		<path d="M503.467,187.733H8.533c-4.713,0-8.533,3.821-8.533,8.533v119.467c0,4.713,3.821,8.533,8.533,8.533h494.933
			c4.713,0,8.533-3.821,8.533-8.533V196.267C512,191.554,508.179,187.733,503.467,187.733z M494.933,307.2H17.067V204.8h477.867
			V307.2z"/>
	</g>
</g>
<g>
	<g>
		<path d="M503.467,375.467H8.533C3.821,375.467,0,379.287,0,384v119.467C0,508.179,3.821,512,8.533,512h494.933
			c4.713,0,8.533-3.821,8.533-8.533V384C512,379.287,508.179,375.467,503.467,375.467z M494.933,494.933H17.067v-102.4h477.867
			V494.933z"/>
	</g>
</g>
<g>
</g>
<g>
</g>
<g>
</g>
<g>
</g>
<g>
</g>
<g>
</g>
<g>
</g>
<g>
</g>
<g>
</g>
<g>
</g>
<g>
</g>
<g>
</g>
<g>
</g>
<g>
</g>
<g>
</g>
</svg>
