<?xml version="1.0" encoding="utf-8"?>
<svg xmlns="http://www.w3.org/2000/svg" xmlns:xlink="http://www.w3.org/1999/xlink" width="600" height="400" viewBox="0 0 2400 1600">
<defs>
  <clipPath id="clip5500">
    <rect x="0" y="0" width="2400" height="1600"/>
  </clipPath>
</defs>
<polygon clip-path="url(#clip5500)" points="
0,1600 2400,1600 2400,0 0,0 
  " fill="#ffffff" fill-rule="evenodd" fill-opacity="1"/>
<defs>
  <clipPath id="clip5501">
    <rect x="480" y="0" width="1681" height="1600"/>
  </clipPath>
</defs>
<polygon clip-path="url(#clip5500)" points="
141.865,1487.47 2352.76,1487.47 2352.76,47.2441 141.865,47.2441 
  " fill="#ffffff" fill-rule="evenodd" fill-opacity="1"/>
<defs>
  <clipPath id="clip5502">
    <rect x="141" y="47" width="2212" height="1441"/>
  </clipPath>
</defs>
<polyline clip-path="url(#clip5502)" style="stroke:#000000; stroke-width:2; stroke-opacity:0.1; fill:none" points="
  197.484,1487.47 197.484,47.2441 
  "/>
<polyline clip-path="url(#clip5502)" style="stroke:#000000; stroke-width:2; stroke-opacity:0.1; fill:none" points="
  892.733,1487.47 892.733,47.2441 
  "/>
<polyline clip-path="url(#clip5502)" style="stroke:#000000; stroke-width:2; stroke-opacity:0.1; fill:none" points="
  1587.98,1487.47 1587.98,47.2441 
  "/>
<polyline clip-path="url(#clip5502)" style="stroke:#000000; stroke-width:2; stroke-opacity:0.1; fill:none" points="
  2283.23,1487.47 2283.23,47.2441 
  "/>
<polyline clip-path="url(#clip5502)" style="stroke:#000000; stroke-width:2; stroke-opacity:0.1; fill:none" points="
  141.865,1358.76 2352.76,1358.76 
  "/>
<polyline clip-path="url(#clip5502)" style="stroke:#000000; stroke-width:2; stroke-opacity:0.1; fill:none" points="
  141.865,1158.97 2352.76,1158.97 
  "/>
<polyline clip-path="url(#clip5502)" style="stroke:#000000; stroke-width:2; stroke-opacity:0.1; fill:none" points="
  141.865,959.177 2352.76,959.177 
  "/>
<polyline clip-path="url(#clip5502)" style="stroke:#000000; stroke-width:2; stroke-opacity:0.1; fill:none" points="
  141.865,759.387 2352.76,759.387 
  "/>
<polyline clip-path="url(#clip5502)" style="stroke:#000000; stroke-width:2; stroke-opacity:0.1; fill:none" points="
  141.865,559.598 2352.76,559.598 
  "/>
<polyline clip-path="url(#clip5502)" style="stroke:#000000; stroke-width:2; stroke-opacity:0.1; fill:none" points="
  141.865,359.809 2352.76,359.809 
  "/>
<polyline clip-path="url(#clip5502)" style="stroke:#000000; stroke-width:2; stroke-opacity:0.1; fill:none" points="
  141.865,160.019 2352.76,160.019 
  "/>
<polyline clip-path="url(#clip5500)" style="stroke:#000000; stroke-width:4; stroke-opacity:1; fill:none" points="
  141.865,1487.47 2352.76,1487.47 
  "/>
<polyline clip-path="url(#clip5500)" style="stroke:#000000; stroke-width:4; stroke-opacity:1; fill:none" points="
  141.865,1487.47 141.865,47.2441 
  "/>
<polyline clip-path="url(#clip5500)" style="stroke:#000000; stroke-width:4; stroke-opacity:1; fill:none" points="
  197.484,1487.47 197.484,1465.87 
  "/>
<polyline clip-path="url(#clip5500)" style="stroke:#000000; stroke-width:4; stroke-opacity:1; fill:none" points="
  892.733,1487.47 892.733,1465.87 
  "/>
<polyline clip-path="url(#clip5500)" style="stroke:#000000; stroke-width:4; stroke-opacity:1; fill:none" points="
  1587.98,1487.47 1587.98,1465.87 
  "/>
<polyline clip-path="url(#clip5500)" style="stroke:#000000; stroke-width:4; stroke-opacity:1; fill:none" points="
  2283.23,1487.47 2283.23,1465.87 
  "/>
<polyline clip-path="url(#clip5500)" style="stroke:#000000; stroke-width:4; stroke-opacity:1; fill:none" points="
  141.865,1358.76 175.028,1358.76 
  "/>
<polyline clip-path="url(#clip5500)" style="stroke:#000000; stroke-width:4; stroke-opacity:1; fill:none" points="
  141.865,1158.97 175.028,1158.97 
  "/>
<polyline clip-path="url(#clip5500)" style="stroke:#000000; stroke-width:4; stroke-opacity:1; fill:none" points="
  141.865,959.177 175.028,959.177 
  "/>
<polyline clip-path="url(#clip5500)" style="stroke:#000000; stroke-width:4; stroke-opacity:1; fill:none" points="
  141.865,759.387 175.028,759.387 
  "/>
<polyline clip-path="url(#clip5500)" style="stroke:#000000; stroke-width:4; stroke-opacity:1; fill:none" points="
  141.865,559.598 175.028,559.598 
  "/>
<polyline clip-path="url(#clip5500)" style="stroke:#000000; stroke-width:4; stroke-opacity:1; fill:none" points="
  141.865,359.809 175.028,359.809 
  "/>
<polyline clip-path="url(#clip5500)" style="stroke:#000000; stroke-width:4; stroke-opacity:1; fill:none" points="
  141.865,160.019 175.028,160.019 
  "/>
<g clip-path="url(#clip5500)">
<text style="fill:#000000; fill-opacity:1; font-family:Arial,Helvetica Neue,Helvetica,sans-serif; font-size:48px; text-anchor:middle;" transform="rotate(0, 197.484, 1541.47)" x="197.484" y="1541.47">0</text>
</g>
<g clip-path="url(#clip5500)">
<text style="fill:#000000; fill-opacity:1; font-family:Arial,Helvetica Neue,Helvetica,sans-serif; font-size:48px; text-anchor:middle;" transform="rotate(0, 892.733, 1541.47)" x="892.733" y="1541.47">100</text>
</g>
<g clip-path="url(#clip5500)">
<text style="fill:#000000; fill-opacity:1; font-family:Arial,Helvetica Neue,Helvetica,sans-serif; font-size:48px; text-anchor:middle;" transform="rotate(0, 1587.98, 1541.47)" x="1587.98" y="1541.47">200</text>
</g>
<g clip-path="url(#clip5500)">
<text style="fill:#000000; fill-opacity:1; font-family:Arial,Helvetica Neue,Helvetica,sans-serif; font-size:48px; text-anchor:middle;" transform="rotate(0, 2283.23, 1541.47)" x="2283.23" y="1541.47">300</text>
</g>
<g clip-path="url(#clip5500)">
<text style="fill:#000000; fill-opacity:1; font-family:Arial,Helvetica Neue,Helvetica,sans-serif; font-size:48px; text-anchor:end;" transform="rotate(0, 117.865, 1376.26)" x="117.865" y="1376.26">-4</text>
</g>
<g clip-path="url(#clip5500)">
<text style="fill:#000000; fill-opacity:1; font-family:Arial,Helvetica Neue,Helvetica,sans-serif; font-size:48px; text-anchor:end;" transform="rotate(0, 117.865, 1176.47)" x="117.865" y="1176.47">-2</text>
</g>
<g clip-path="url(#clip5500)">
<text style="fill:#000000; fill-opacity:1; font-family:Arial,Helvetica Neue,Helvetica,sans-serif; font-size:48px; text-anchor:end;" transform="rotate(0, 117.865, 976.677)" x="117.865" y="976.677">0</text>
</g>
<g clip-path="url(#clip5500)">
<text style="fill:#000000; fill-opacity:1; font-family:Arial,Helvetica Neue,Helvetica,sans-serif; font-size:48px; text-anchor:end;" transform="rotate(0, 117.865, 776.887)" x="117.865" y="776.887">2</text>
</g>
<g clip-path="url(#clip5500)">
<text style="fill:#000000; fill-opacity:1; font-family:Arial,Helvetica Neue,Helvetica,sans-serif; font-size:48px; text-anchor:end;" transform="rotate(0, 117.865, 577.098)" x="117.865" y="577.098">4</text>
</g>
<g clip-path="url(#clip5500)">
<text style="fill:#000000; fill-opacity:1; font-family:Arial,Helvetica Neue,Helvetica,sans-serif; font-size:48px; text-anchor:end;" transform="rotate(0, 117.865, 377.309)" x="117.865" y="377.309">6</text>
</g>
<g clip-path="url(#clip5500)">
<text style="fill:#000000; fill-opacity:1; font-family:Arial,Helvetica Neue,Helvetica,sans-serif; font-size:48px; text-anchor:end;" transform="rotate(0, 117.865, 177.519)" x="117.865" y="177.519">8</text>
</g>
<polyline clip-path="url(#clip5502)" style="stroke:#0000ff; stroke-width:4; stroke-opacity:1; fill:none" points="
  204.437,978.303 211.389,945.325 218.342,927.507 225.294,919.568 232.247,879.916 239.199,871.257 246.152,865.628 253.104,847.221 260.057,848.997 267.009,838.295 
  273.962,814.355 280.914,796.028 287.867,783.272 294.819,758.636 301.772,749.221 308.724,735.179 315.677,721.914 322.629,707.714 329.582,703.971 336.534,691.068 
  343.487,678.729 350.439,647.85 357.392,645.077 364.344,641.874 371.297,607.397 378.249,607.981 385.202,602.724 392.154,590.024 399.107,580.615 406.059,573.478 
  413.012,562.474 419.964,540.196 426.917,539.079 433.869,531.925 440.822,517.119 447.774,521.075 454.727,509.481 461.679,483.59 468.632,484.363 475.584,490.448 
  482.536,471.263 489.489,455.596 496.441,456.927 503.394,445.138 510.346,456.179 517.299,440.386 524.251,421.898 531.204,425.108 538.156,421.016 545.109,413.994 
  552.061,397.197 559.014,388.726 565.966,403.387 572.919,387.524 579.871,392.968 586.824,386.195 593.776,372.97 600.729,392.639 607.681,375.818 614.634,369.926 
  621.586,366.265 628.539,354.687 635.491,385.603 642.444,353.97 649.396,357.775 656.349,359.038 663.301,378.191 670.254,382.944 677.206,373.866 684.159,369.114 
  691.111,357.37 698.064,365.82 705.016,369.284 711.969,345.235 718.921,364.483 725.874,365.791 732.826,386.486 739.779,396.996 746.731,393.588 753.684,402.784 
  760.636,390.37 767.589,389.997 774.541,394.916 781.493,369.921 788.446,406.378 795.398,374.753 802.351,416.204 809.303,392.247 816.256,401.93 823.208,413.232 
  830.161,417.932 837.113,423.067 844.066,453.186 851.018,445.319 857.971,428.822 864.923,427.138 871.876,443.506 878.828,450.399 885.781,466.388 892.733,471.789 
  899.686,468.586 906.638,473.083 913.591,487.159 920.543,500.552 927.496,496.441 934.448,503.729 941.401,501.333 948.353,517.378 955.306,530.857 962.258,554.094 
  969.211,532.333 976.163,535.955 983.116,563.596 990.068,570.94 997.021,600.391 1003.97,583.293 1010.93,600.392 1017.88,590.276 1024.83,604.418 1031.78,610.36 
  1038.74,628.902 1045.69,627.258 1052.64,630.95 1059.59,656.185 1066.55,665.48 1073.5,687.094 1080.45,668.947 1087.4,693.37 1094.36,705.605 1101.31,704.251 
  1108.26,718.513 1115.21,723.187 1122.17,749.257 1129.12,742.384 1136.07,750.641 1143.02,765.327 1149.98,769.36 1156.93,779.725 1163.88,784.291 1170.83,797.255 
  1177.79,813.523 1184.74,828.465 1191.69,840.176 1198.64,832.881 1205.6,846.247 1212.55,851.351 1219.5,856.528 1226.45,866.833 1233.41,886.329 1240.36,901.335 
  1247.31,878.181 1254.26,909.76 1261.22,894.351 1268.17,926.539 1275.12,921.505 1282.07,944.142 1289.03,958.506 1295.98,961.565 1302.93,960.823 1309.88,977.262 
  1316.84,976.498 1323.79,1000.78 1330.74,990.608 1337.69,998.018 1344.65,1021.8 1351.6,1021.22 1358.55,1026.75 1365.5,1047.2 1372.46,1056.99 1379.41,1046.59 
  1386.36,1066.25 1393.31,1079.01 1400.26,1076.44 1407.22,1096.38 1414.17,1090.42 1421.12,1120.63 1428.07,1093.32 1435.03,1127.55 1441.98,1107.88 1448.93,1119.17 
  1455.88,1139.63 1462.84,1150.73 1469.79,1156.56 1476.74,1151.96 1483.69,1157.17 1490.65,1172.15 1497.6,1186.76 1504.55,1174.18 1511.5,1173.1 1518.46,1184.45 
  1525.41,1168.14 1532.36,1180.08 1539.31,1208.52 1546.27,1208.38 1553.22,1213.77 1560.17,1206.25 1567.12,1214.25 1574.08,1199.02 1581.03,1219.94 1587.98,1225.17 
  1594.93,1220.28 1601.89,1251.19 1608.84,1234.12 1615.79,1234.41 1622.74,1240.35 1629.7,1251 1636.65,1244.7 1643.6,1265.95 1650.55,1260.49 1657.51,1243.56 
  1664.46,1266.6 1671.41,1264.71 1678.36,1269.42 1685.32,1271.71 1692.27,1267.15 1699.22,1294.72 1706.17,1265.34 1713.13,1243.12 1720.08,1258.11 1727.03,1274.85 
  1733.98,1281.15 1740.94,1280.17 1747.89,1286.96 1754.84,1277.27 1761.79,1274.93 1768.75,1262.24 1775.7,1299.68 1782.65,1279.48 1789.6,1276.7 1796.56,1277.93 
  1803.51,1277.85 1810.46,1288.49 1817.41,1277.24 1824.37,1286.61 1831.32,1284.29 1838.27,1273.49 1845.22,1260.15 1852.18,1274.27 1859.13,1255.89 1866.08,1258.78 
  1873.03,1266.01 1879.99,1252.83 1886.94,1253.52 1893.89,1262.13 1900.84,1245.26 1907.8,1258.65 1914.75,1252.77 1921.7,1242.33 1928.65,1244.38 1935.61,1241.46 
  1942.56,1241.05 1949.51,1230.82 1956.46,1242.05 1963.42,1217.51 1970.37,1215.82 1977.32,1215.72 1984.27,1226.16 1991.23,1209.35 1998.18,1219.65 2005.13,1213.61 
  2012.08,1209.59 2019.04,1199.04 2025.99,1205.73 2032.94,1210.74 2039.89,1198.65 2046.85,1197.09 2053.8,1185.42 2060.75,1166.46 2067.7,1180.32 2074.66,1173.67 
  2081.61,1149.68 2088.56,1176.69 2095.51,1165.39 2102.47,1157.62 2109.42,1139.29 2116.37,1138.29 2123.32,1155.42 2130.28,1136.88 2137.23,1137.37 2144.18,1128.86 
  2151.13,1138.9 2158.09,1133.56 2165.04,1120.13 2171.99,1123.85 2178.94,1087.65 2185.9,1089.79 2192.85,1091.16 2199.8,1084.97 2206.75,1096.45 2213.71,1076.18 
  2220.66,1079.9 2227.61,1065.26 2234.56,1072.57 2241.52,1062.71 2248.47,1047.55 2255.42,1060.61 2262.37,1038.69 2269.33,1043.39 2276.28,1044.3 2283.23,1031.3 
  2290.18,1030.81 
  "/>
<polyline clip-path="url(#clip5502)" style="stroke:#ff0000; stroke-width:4; stroke-opacity:1; fill:none" points="
  204.437,958.324 211.389,918.979 218.342,894.847 225.294,880.65 232.247,834.797 239.199,819.997 246.152,808.289 253.104,783.867 260.057,779.694 267.009,763.11 
  273.962,733.359 280.914,709.292 287.867,690.87 294.819,660.642 301.772,645.713 308.724,626.234 315.677,607.614 322.629,588.14 329.582,579.206 336.534,561.197 
  343.487,543.838 350.439,508.027 357.392,500.411 364.344,492.455 371.297,453.317 378.249,449.331 385.202,439.6 392.154,422.52 399.107,408.826 406.059,397.503 
  413.012,382.41 419.964,356.142 426.917,351.135 433.869,340.191 440.822,321.697 447.774,322.067 454.727,306.989 461.679,277.718 468.632,275.215 475.584,278.128 
  482.536,255.878 489.489,237.249 496.441,235.724 503.394,221.186 510.346,229.585 517.299,211.255 524.251,190.338 531.204,191.225 538.156,184.918 545.109,175.787 
  552.061,156.99 559.014,146.625 565.966,159.5 572.919,141.957 579.871,145.829 586.824,137.589 593.776,123.005 600.729,141.421 607.681,123.452 614.634,116.517 
  621.586,111.919 628.539,99.5089 635.491,129.697 642.444,97.4385 649.396,100.721 656.349,101.565 663.301,120.4 670.254,124.936 677.206,115.741 684.159,110.972 
  691.111,99.3104 698.064,107.94 705.016,111.681 711.969,88.0053 718.921,107.722 725.874,109.593 732.826,130.945 739.779,142.203 746.731,139.635 753.684,149.761 
  760.636,138.367 767.589,139.102 774.541,145.215 781.493,121.5 788.446,159.322 795.398,129.144 802.351,172.124 809.303,149.778 816.256,161.15 823.208,174.22 
  830.161,180.764 837.113,187.819 844.066,219.931 851.018,214.131 857.971,199.77 864.923,200.293 871.876,218.936 878.828,228.17 885.781,246.566 892.733,254.437 
  899.686,253.766 906.638,260.856 913.591,277.583 920.543,293.686 927.496,292.339 934.448,302.447 941.401,302.923 948.353,321.891 955.306,338.343 962.258,364.599 
  969.211,345.905 976.163,352.638 983.116,383.433 990.068,393.972 997.021,426.658 1003.97,412.832 1010.93,433.24 1017.88,426.468 1024.83,443.986 1031.78,453.335 
  1038.74,475.315 1045.69,477.136 1052.64,484.32 1059.59,513.071 1066.55,525.905 1073.5,551.08 1080.45,536.514 1087.4,564.535 1094.36,580.384 1101.31,582.66 
  1108.26,600.565 1115.21,608.894 1122.17,638.628 1129.12,635.427 1136.07,647.363 1143.02,665.734 1149.98,673.456 1156.93,687.511 1163.88,695.768 1170.83,712.422 
  1177.79,732.377 1184.74,751.003 1191.69,766.392 1198.64,762.767 1205.6,779.795 1212.55,788.551 1219.5,797.37 1226.45,811.302 1233.41,834.413 1240.36,853.018 
  1247.31,833.445 1254.26,868.587 1261.22,856.722 1268.17,892.432 1275.12,890.899 1282.07,917.012 1289.03,934.829 1295.98,941.314 1302.93,937.717 1309.88,950.785 
  1316.84,946.68 1323.79,967.646 1330.74,954.201 1337.69,958.365 1344.65,978.937 1351.6,975.181 1358.55,977.566 1365.5,994.917 1372.46,1001.64 1379.41,988.211 
  1386.36,1004.89 1393.31,1014.7 1400.26,1009.23 1407.22,1026.31 1414.17,1017.53 1421.12,1044.97 1428.07,1014.93 1435.03,1046.48 1441.98,1024.17 1448.93,1032.88 
  1455.88,1050.8 1462.84,1059.41 1469.79,1062.8 1476.74,1055.81 1483.69,1058.68 1490.65,1071.36 1497.6,1083.74 1504.55,1068.97 1511.5,1065.76 1518.46,1075.03 
  1525.41,1056.69 1532.36,1066.66 1539.31,1093.18 1546.27,1091.17 1553.22,1094.76 1560.17,1085.49 1567.12,1091.79 1574.08,1074.93 1581.03,1094.26 1587.98,1097.96 
  1594.93,1091.59 1601.89,1121.09 1608.84,1102.66 1615.79,1101.66 1622.74,1106.35 1629.7,1115.82 1636.65,1108.39 1643.6,1128.57 1650.55,1122.09 1657.51,1104.2 
  1664.46,1126.34 1671.41,1123.61 1678.36,1127.53 1685.32,1129.09 1692.27,1123.86 1699.22,1150.81 1706.17,1120.87 1713.13,1098.14 1720.08,1112.68 1727.03,1129.04 
  1733.98,1135 1740.94,1133.73 1747.89,1140.29 1754.84,1130.43 1761.79,1127.98 1768.75,1115.21 1775.7,1152.64 1782.65,1132.48 1789.6,1129.79 1796.56,1131.17 
  1803.51,1131.28 1810.46,1142.17 1817.41,1131.22 1824.37,1140.93 1831.32,1139 1838.27,1128.66 1845.22,1115.8 1852.18,1130.47 1859.13,1112.67 1866.08,1116.19 
  1873.03,1124.1 1879.99,1111.65 1886.94,1113.1 1893.89,1122.53 1900.84,1106.51 1907.8,1120.8 1914.75,1115.86 1921.7,1106.4 1928.65,1109.48 1935.61,1107.61 
  1942.56,1108.31 1949.51,1099.21 1956.46,1111.62 1963.42,1088.29 1970.37,1087.84 1977.32,1089.02 1984.27,1100.78 1991.23,1085.32 1998.18,1097 2005.13,1092.37 
  2012.08,1089.79 2019.04,1080.72 2025.99,1088.91 2032.94,1095.45 2039.89,1084.91 2046.85,1084.94 2053.8,1074.87 2060.75,1057.55 2067.7,1073.07 2074.66,1068.1 
  2081.61,1045.81 2088.56,1074.55 2095.51,1064.99 2102.47,1058.99 2109.42,1042.43 2116.37,1043.24 2123.32,1062.18 2130.28,1045.48 2137.23,1047.81 2144.18,1041.17 
  2151.13,1053.08 2158.09,1049.63 2165.04,1038.1 2171.99,1043.73 2178.94,1009.45 2185.9,1013.51 2192.85,1016.82 2199.8,1012.57 2206.75,1026 2213.71,1007.68 
  2220.66,1013.36 2227.61,1000.68 2234.56,1009.96 2241.52,1002.07 2248.47,988.881 2255.42,1003.91 2262.37,983.955 2269.33,990.627 2276.28,993.503 2283.23,982.459 
  2290.18,983.926 
  "/>
<polyline clip-path="url(#clip5502)" style="stroke:#ff0000; stroke-width:4; stroke-opacity:1; fill:none" points="
  204.437,998.282 211.389,971.672 218.342,960.167 225.294,958.487 232.247,925.035 239.199,922.517 246.152,922.967 253.104,910.575 260.057,918.301 267.009,913.479 
  273.962,895.352 280.914,882.764 287.867,875.675 294.819,856.629 301.772,852.73 308.724,844.123 315.677,836.214 322.629,827.288 329.582,828.737 336.534,820.939 
  343.487,813.62 350.439,787.673 357.392,789.744 364.344,791.293 371.297,761.478 378.249,766.63 385.202,765.848 392.154,757.528 399.107,752.403 406.059,749.453 
  413.012,742.538 419.964,724.25 426.917,727.023 433.869,723.658 440.822,712.541 447.774,720.083 454.727,711.972 461.679,689.462 468.632,693.511 475.584,702.767 
  482.536,686.649 489.489,673.943 496.441,678.129 503.394,669.09 510.346,682.774 517.299,669.517 524.251,653.459 531.204,658.991 538.156,657.114 545.109,652.2 
  552.061,637.404 559.014,630.827 565.966,647.274 572.919,633.091 579.871,640.107 586.824,634.8 593.776,622.935 600.729,643.858 607.681,628.184 614.634,623.334 
  621.586,620.61 628.539,609.866 635.491,641.51 642.444,610.502 649.396,614.829 656.349,616.512 663.301,635.983 670.254,640.952 677.206,631.991 684.159,627.255 
  691.111,615.43 698.064,623.7 705.016,626.887 711.969,602.464 718.921,621.244 725.874,621.989 732.826,642.028 739.779,651.789 746.731,647.541 753.684,655.806 
  760.636,642.373 767.589,640.893 774.541,644.617 781.493,618.342 788.446,653.435 795.398,620.363 802.351,660.283 809.303,634.717 816.256,642.709 823.208,652.244 
  830.161,655.1 837.113,658.315 844.066,686.441 851.018,676.508 857.971,657.874 864.923,653.983 871.876,668.076 878.828,672.628 885.781,686.21 892.733,689.141 
  899.686,683.406 906.638,685.31 913.591,696.734 920.543,707.418 927.496,700.542 934.448,705.011 941.401,699.743 948.353,712.865 955.306,723.372 962.258,743.588 
  969.211,718.76 976.163,719.272 983.116,743.759 990.068,747.908 997.021,774.125 1003.97,753.754 1010.93,767.544 1017.88,754.085 1024.83,764.85 1031.78,767.384 
  1038.74,782.489 1045.69,777.38 1052.64,777.58 1059.59,799.299 1066.55,805.054 1073.5,823.108 1080.45,801.381 1087.4,822.206 1094.36,830.825 1101.31,825.842 
  1108.26,836.461 1115.21,837.481 1122.17,859.887 1129.12,849.341 1136.07,853.918 1143.02,864.919 1149.98,865.265 1156.93,871.939 1163.88,872.814 1170.83,882.088 
  1177.79,894.668 1184.74,905.928 1191.69,913.961 1198.64,902.995 1205.6,912.699 1212.55,914.15 1219.5,915.687 1226.45,922.363 1233.41,938.245 1240.36,949.653 
  1247.31,922.918 1254.26,950.933 1261.22,931.981 1268.17,960.646 1275.12,952.111 1282.07,971.271 1289.03,982.183 1295.98,981.815 1302.93,983.929 1309.88,1003.74 
  1316.84,1006.32 1323.79,1033.9 1330.74,1027.02 1337.69,1037.67 1344.65,1064.67 1351.6,1067.26 1358.55,1075.93 1365.5,1099.49 1372.46,1112.34 1379.41,1104.96 
  1386.36,1127.62 1393.31,1143.32 1400.26,1143.65 1407.22,1166.45 1414.17,1163.31 1421.12,1196.29 1428.07,1171.71 1435.03,1208.62 1441.98,1191.59 1448.93,1205.46 
  1455.88,1228.46 1462.84,1242.06 1469.79,1250.33 1476.74,1248.12 1483.69,1255.67 1490.65,1272.93 1497.6,1289.79 1504.55,1279.39 1511.5,1280.45 1518.46,1293.87 
  1525.41,1279.59 1532.36,1293.51 1539.31,1323.86 1546.27,1325.58 1553.22,1332.78 1560.17,1327.01 1567.12,1336.71 1574.08,1323.12 1581.03,1345.62 1587.98,1352.38 
  1594.93,1348.96 1601.89,1381.29 1608.84,1365.57 1615.79,1367.16 1622.74,1374.35 1629.7,1386.19 1636.65,1381.01 1643.6,1403.34 1650.55,1398.89 1657.51,1382.91 
  1664.46,1406.85 1671.41,1405.82 1678.36,1411.31 1685.32,1414.33 1692.27,1410.44 1699.22,1438.63 1706.17,1409.81 1713.13,1388.09 1720.08,1403.53 1727.03,1420.67 
  1733.98,1427.3 1740.94,1426.6 1747.89,1433.62 1754.84,1424.11 1761.79,1421.89 1768.75,1409.26 1775.7,1446.71 1782.65,1426.48 1789.6,1423.6 1796.56,1424.7 
  1803.51,1424.42 1810.46,1434.81 1817.41,1423.27 1824.37,1432.29 1831.32,1429.57 1838.27,1418.33 1845.22,1404.49 1852.18,1418.08 1859.13,1399.11 1866.08,1401.36 
  1873.03,1407.91 1879.99,1394.01 1886.94,1393.93 1893.89,1401.73 1900.84,1384 1907.8,1396.49 1914.75,1389.68 1921.7,1378.25 1928.65,1379.29 1935.61,1375.3 
  1942.56,1373.8 1949.51,1362.43 1956.46,1372.49 1963.42,1346.74 1970.37,1343.79 1977.32,1342.42 1984.27,1351.54 1991.23,1333.38 1998.18,1342.3 2005.13,1334.85 
  2012.08,1329.38 2019.04,1317.37 2025.99,1322.56 2032.94,1326.03 2039.89,1312.39 2046.85,1309.24 2053.8,1295.96 2060.75,1275.37 2067.7,1287.57 2074.66,1279.24 
  2081.61,1253.55 2088.56,1278.84 2095.51,1265.79 2102.47,1256.26 2109.42,1236.14 2116.37,1233.35 2123.32,1248.66 2130.28,1228.29 2137.23,1226.93 2144.18,1216.56 
  2151.13,1224.72 2158.09,1217.5 2165.04,1202.17 2171.99,1203.98 2178.94,1165.86 2185.9,1166.06 2192.85,1165.5 2199.8,1157.36 2206.75,1166.9 2213.71,1144.67 
  2220.66,1146.44 2227.61,1129.83 2234.56,1135.18 2241.52,1123.35 2248.47,1106.23 2255.42,1117.31 2262.37,1093.42 2269.33,1096.16 2276.28,1095.11 2283.23,1080.14 
  2290.18,1077.69 
  "/>
<polygon clip-path="url(#clip5500)" points="
1770.49,372.684 2280.76,372.684 2280.76,130.764 1770.49,130.764 
  " fill="#ffffff" fill-rule="evenodd" fill-opacity="1"/>
<polyline clip-path="url(#clip5500)" style="stroke:#000000; stroke-width:4; stroke-opacity:1; fill:none" points="
  1770.49,372.684 2280.76,372.684 2280.76,130.764 1770.49,130.764 1770.49,372.684 
  "/>
<polyline clip-path="url(#clip5500)" style="stroke:#0000ff; stroke-width:4; stroke-opacity:1; fill:none" points="
  1794.49,191.244 1938.49,191.244 
  "/>
<g clip-path="url(#clip5500)">
<text style="fill:#000000; fill-opacity:1; font-family:Arial,Helvetica Neue,Helvetica,sans-serif; font-size:48px; text-anchor:start;" transform="rotate(0, 1962.49, 208.744)" x="1962.49" y="208.744">z</text>
</g>
<polyline clip-path="url(#clip5500)" style="stroke:#ff0000; stroke-width:4; stroke-opacity:1; fill:none" points="
  1794.49,251.724 1938.49,251.724 
  "/>
<g clip-path="url(#clip5500)">
<text style="fill:#000000; fill-opacity:1; font-family:Arial,Helvetica Neue,Helvetica,sans-serif; font-size:48px; text-anchor:start;" transform="rotate(0, 1962.49, 269.224)" x="1962.49" y="269.224">upper bound</text>
</g>
<polyline clip-path="url(#clip5500)" style="stroke:#ff0000; stroke-width:4; stroke-opacity:1; fill:none" points="
  1794.49,312.204 1938.49,312.204 
  "/>
<g clip-path="url(#clip5500)">
<text style="fill:#000000; fill-opacity:1; font-family:Arial,Helvetica Neue,Helvetica,sans-serif; font-size:48px; text-anchor:start;" transform="rotate(0, 1962.49, 329.704)" x="1962.49" y="329.704">lower bound</text>
</g>
</svg>
