<?xml version="1.0" encoding="UTF-8" standalone="no"?><svg xmlns="http://www.w3.org/2000/svg" xmlns:xlink="http://www.w3.org/1999/xlink" contentScriptType="application/ecmascript" contentStyleType="text/css" height="758px" preserveAspectRatio="none" style="width:1388px;height:758px;" version="1.1" viewBox="0 0 1388 758" width="1388px" zoomAndPan="magnify"><defs><filter height="300%" id="f3uwk6g7hmp1q" width="300%" x="-1" y="-1"><feGaussianBlur result="blurOut" stdDeviation="2.0"/><feColorMatrix in="blurOut" result="blurOut2" type="matrix" values="0 0 0 0 0 0 0 0 0 0 0 0 0 0 0 0 0 0 .4 0"/><feOffset dx="4.0" dy="4.0" in="blurOut2" result="blurOut3"/><feBlend in="SourceGraphic" in2="blurOut3" mode="normal"/></filter></defs><g><!--cluster NetGame--><polygon fill="#FFFFFF" filter="url(#f3uwk6g7hmp1q)" points="14,31,92,31,99,53.2969,590,53.2969,590,746,14,746,14,31" style="stroke: #000000; stroke-width: 2.0;"/><line style="stroke: #000000; stroke-width: 2.0;" x1="14" x2="99" y1="53.2969" y2="53.2969"/><text fill="#000000" font-family="sans-serif" font-size="14" font-weight="bold" lengthAdjust="spacingAndGlyphs" textLength="72" x="18" y="45.9951">NetGame</text><!--cluster UnityNetGame--><polygon fill="#FFFFFF" filter="url(#f3uwk6g7hmp1q)" points="860,50.5,978,50.5,985,72.7969,1228,72.7969,1228,203.5,860,203.5,860,50.5" style="stroke: #000000; stroke-width: 2.0;"/><line style="stroke: #000000; stroke-width: 2.0;" x1="860" x2="985" y1="72.7969" y2="72.7969"/><text fill="#000000" font-family="sans-serif" font-size="14" font-weight="bold" lengthAdjust="spacingAndGlyphs" textLength="112" x="864" y="65.4951">UnityNetGame</text><!--cluster UnityLogicGame--><polygon fill="#FFFFFF" filter="url(#f3uwk6g7hmp1q)" points="598,403,731,403,738,425.2969,1039,425.2969,1039,727,598,727,598,403" style="stroke: #000000; stroke-width: 2.0;"/><line style="stroke: #000000; stroke-width: 2.0;" x1="598" x2="738" y1="425.2969" y2="425.2969"/><text fill="#000000" font-family="sans-serif" font-size="14" font-weight="bold" lengthAdjust="spacingAndGlyphs" textLength="127" x="602" y="417.9951">UnityLogicGame</text><!--cluster UnityMovement--><polygon fill="#FFFFFF" filter="url(#f3uwk6g7hmp1q)" points="684,254,812,254,819,276.2969,1366,276.2969,1366,356,684,356,684,254" style="stroke: #000000; stroke-width: 2.0;"/><line style="stroke: #000000; stroke-width: 2.0;" x1="684" x2="819" y1="276.2969" y2="276.2969"/><text fill="#000000" font-family="sans-serif" font-size="14" font-weight="bold" lengthAdjust="spacingAndGlyphs" textLength="122" x="688" y="268.9951">UnityMovement</text><!--class Direction--><rect fill="#FEFECE" filter="url(#f3uwk6g7hmp1q)" height="137.6328" id="Direction" style="stroke: #A80036; stroke-width: 1.5;" width="88" x="65" y="77"/><ellipse cx="80" cy="93" fill="#EB937F" rx="11" ry="11" style="stroke: #A80036; stroke-width: 1.0;"/><path d="M84.1094,99 L76.3906,99 L76.3906,86.6094 L84.1094,86.6094 L84.1094,88.7656 L78.8438,88.7656 L78.8438,91.4375 L83.6094,91.4375 L83.6094,93.5938 L78.8438,93.5938 L78.8438,96.8438 L84.1094,96.8438 L84.1094,99 Z "/><text fill="#000000" font-family="sans-serif" font-size="12" lengthAdjust="spacingAndGlyphs" textLength="56" x="94" y="97.1543">Direction</text><line style="stroke: #A80036; stroke-width: 1.5;" x1="66" x2="152" y1="109" y2="109"/><text fill="#000000" font-family="sans-serif" font-size="11" lengthAdjust="spacingAndGlyphs" textLength="15" x="71" y="123.2104">Up</text><text fill="#000000" font-family="sans-serif" font-size="11" lengthAdjust="spacingAndGlyphs" textLength="31" x="71" y="136.0151">Down</text><text fill="#000000" font-family="sans-serif" font-size="11" lengthAdjust="spacingAndGlyphs" textLength="21" x="71" y="148.8198">Left</text><text fill="#000000" font-family="sans-serif" font-size="11" lengthAdjust="spacingAndGlyphs" textLength="28" x="71" y="161.6245">Right</text><line style="stroke: #A80036; stroke-width: 1.5;" x1="66" x2="152" y1="168.2188" y2="168.2188"/><text fill="#000000" font-family="sans-serif" font-size="11" lengthAdjust="spacingAndGlyphs" textLength="43" x="71" y="182.4292">xDelta()</text><text fill="#000000" font-family="sans-serif" font-size="11" lengthAdjust="spacingAndGlyphs" textLength="43" x="71" y="195.2339">yDelta()</text><text fill="#000000" font-family="sans-serif" font-size="11" lengthAdjust="spacingAndGlyphs" textLength="42" x="71" y="208.0386">rotate()</text><!--class Directions--><rect fill="#FEFECE" filter="url(#f3uwk6g7hmp1q)" height="60.8047" id="Directions" style="stroke: #A80036; stroke-width: 1.5;" width="95" x="22.5" y="455.5"/><ellipse cx="37.5" cy="471.5" fill="#ADD1B2" rx="11" ry="11" style="stroke: #A80036; stroke-width: 1.0;"/><path d="M40.4688,477.1406 Q39.8906,477.4375 39.25,477.5859 Q38.6094,477.7344 37.9063,477.7344 Q35.4063,477.7344 34.0859,476.0859 Q32.7656,474.4375 32.7656,471.3125 Q32.7656,468.1875 34.0859,466.5313 Q35.4063,464.875 37.9063,464.875 Q38.6094,464.875 39.2578,465.0313 Q39.9063,465.1875 40.4688,465.4844 L40.4688,468.2031 Q39.8438,467.625 39.25,467.3516 Q38.6563,467.0781 38.0313,467.0781 Q36.6875,467.0781 36,468.1484 Q35.3125,469.2188 35.3125,471.3125 Q35.3125,473.4063 36,474.4766 Q36.6875,475.5469 38.0313,475.5469 Q38.6563,475.5469 39.25,475.2734 Q39.8438,475 40.4688,474.4219 L40.4688,477.1406 Z "/><text fill="#000000" font-family="sans-serif" font-size="12" lengthAdjust="spacingAndGlyphs" textLength="63" x="51.5" y="475.6543">Directions</text><line style="stroke: #A80036; stroke-width: 1.5;" x1="23.5" x2="116.5" y1="487.5" y2="487.5"/><line style="stroke: #A80036; stroke-width: 1.5;" x1="23.5" x2="116.5" y1="495.5" y2="495.5"/><text fill="#000000" font-family="sans-serif" font-size="11" lengthAdjust="spacingAndGlyphs" textLength="42" x="28.5" y="509.7104">rotate()</text><polygon fill="#FBFB77" filter="url(#f3uwk6g7hmp1q)" points="113,682.5,113,707.6328,241,707.6328,241,692.5,231,682.5,113,682.5" style="stroke: #A80036; stroke-width: 1.0;"/><line style="stroke: #A80036; stroke-width: 1.0;" x1="231" x2="231" y1="682.5" y2="692.5"/><line style="stroke: #A80036; stroke-width: 1.0;" x1="241" x2="231" y1="692.5" y2="692.5"/><text fill="#000000" font-family="sans-serif" font-size="13" lengthAdjust="spacingAndGlyphs" textLength="107" x="119" y="699.5669">Immutable Class</text><!--class TilePos--><rect fill="#FEFECE" filter="url(#f3uwk6g7hmp1q)" height="86.4141" id="TilePos" style="stroke: #A80036; stroke-width: 1.5;" width="101" x="276.5" y="652"/><ellipse cx="302.75" cy="668" fill="#ADD1B2" rx="11" ry="11" style="stroke: #A80036; stroke-width: 1.0;"/><path d="M305.7188,673.6406 Q305.1406,673.9375 304.5,674.0859 Q303.8594,674.2344 303.1563,674.2344 Q300.6563,674.2344 299.3359,672.5859 Q298.0156,670.9375 298.0156,667.8125 Q298.0156,664.6875 299.3359,663.0313 Q300.6563,661.375 303.1563,661.375 Q303.8594,661.375 304.5078,661.5313 Q305.1563,661.6875 305.7188,661.9844 L305.7188,664.7031 Q305.0938,664.125 304.5,663.8516 Q303.9063,663.5781 303.2813,663.5781 Q301.9375,663.5781 301.25,664.6484 Q300.5625,665.7188 300.5625,667.8125 Q300.5625,669.9063 301.25,670.9766 Q301.9375,672.0469 303.2813,672.0469 Q303.9063,672.0469 304.5,671.7734 Q305.0938,671.5 305.7188,670.9219 L305.7188,673.6406 Z "/><text fill="#000000" font-family="sans-serif" font-size="12" lengthAdjust="spacingAndGlyphs" textLength="44" x="319.25" y="672.1543">TilePos</text><line style="stroke: #A80036; stroke-width: 1.5;" x1="277.5" x2="376.5" y1="684" y2="684"/><text fill="#000000" font-family="sans-serif" font-size="11" lengthAdjust="spacingAndGlyphs" textLength="6" x="282.5" y="698.2104">x</text><text fill="#000000" font-family="sans-serif" font-size="11" lengthAdjust="spacingAndGlyphs" textLength="6" x="282.5" y="711.0151">y</text><line style="stroke: #A80036; stroke-width: 1.5;" x1="277.5" x2="376.5" y1="717.6094" y2="717.6094"/><text fill="#000000" font-family="sans-serif" font-size="11" lengthAdjust="spacingAndGlyphs" textLength="89" x="282.5" y="731.8198">move(Direction)</text><!--class Tile--><rect fill="#FEFECE" filter="url(#f3uwk6g7hmp1q)" height="60.8047" id="Tile" style="stroke: #A80036; stroke-width: 1.5;" width="75" x="231.5" y="455.5"/><ellipse cx="256.4" cy="471.5" fill="#ADD1B2" rx="11" ry="11" style="stroke: #A80036; stroke-width: 1.0;"/><path d="M259.3688,477.1406 Q258.7906,477.4375 258.15,477.5859 Q257.5094,477.7344 256.8063,477.7344 Q254.3062,477.7344 252.9859,476.0859 Q251.6656,474.4375 251.6656,471.3125 Q251.6656,468.1875 252.9859,466.5313 Q254.3062,464.875 256.8063,464.875 Q257.5094,464.875 258.1578,465.0313 Q258.8063,465.1875 259.3688,465.4844 L259.3688,468.2031 Q258.7438,467.625 258.15,467.3516 Q257.5563,467.0781 256.9313,467.0781 Q255.5875,467.0781 254.9,468.1484 Q254.2125,469.2188 254.2125,471.3125 Q254.2125,473.4063 254.9,474.4766 Q255.5875,475.5469 256.9313,475.5469 Q257.5563,475.5469 258.15,475.2734 Q258.7438,475 259.3688,474.4219 L259.3688,477.1406 Z "/><text fill="#000000" font-family="sans-serif" font-size="12" lengthAdjust="spacingAndGlyphs" textLength="21" x="272.6" y="475.6543">Tile</text><line style="stroke: #A80036; stroke-width: 1.5;" x1="232.5" x2="305.5" y1="487.5" y2="487.5"/><text fill="#000000" font-family="sans-serif" font-size="11" lengthAdjust="spacingAndGlyphs" textLength="63" x="237.5" y="501.7104">int powerId</text><line style="stroke: #A80036; stroke-width: 1.5;" x1="232.5" x2="305.5" y1="508.3047" y2="508.3047"/><!--class TileType--><rect fill="#FEFECE" filter="url(#f3uwk6g7hmp1q)" height="86.4141" id="TileType" style="stroke: #A80036; stroke-width: 1.5;" width="82" x="371" y="443"/><ellipse cx="386" cy="459" fill="#EB937F" rx="11" ry="11" style="stroke: #A80036; stroke-width: 1.0;"/><path d="M390.1094,465 L382.3906,465 L382.3906,452.6094 L390.1094,452.6094 L390.1094,454.7656 L384.8438,454.7656 L384.8438,457.4375 L389.6094,457.4375 L389.6094,459.5938 L384.8438,459.5938 L384.8438,462.8438 L390.1094,462.8438 L390.1094,465 Z "/><text fill="#000000" font-family="sans-serif" font-size="12" lengthAdjust="spacingAndGlyphs" textLength="50" x="400" y="463.1543">TileType</text><line style="stroke: #A80036; stroke-width: 1.5;" x1="372" x2="452" y1="475" y2="475"/><text fill="#000000" font-family="sans-serif" font-size="11" lengthAdjust="spacingAndGlyphs" textLength="24" x="377" y="489.2104">Wire</text><text fill="#000000" font-family="sans-serif" font-size="11" lengthAdjust="spacingAndGlyphs" textLength="50" x="377" y="502.0151">Terminal</text><text fill="#000000" font-family="sans-serif" font-size="11" lengthAdjust="spacingAndGlyphs" textLength="38" x="377" y="514.8198">Server</text><line style="stroke: #A80036; stroke-width: 1.5;" x1="372" x2="452" y1="521.4141" y2="521.4141"/><!--class TileStatus--><rect fill="#FEFECE" filter="url(#f3uwk6g7hmp1q)" height="86.4141" id="TileStatus" style="stroke: #A80036; stroke-width: 1.5;" width="94" x="488" y="443"/><ellipse cx="503" cy="459" fill="#EB937F" rx="11" ry="11" style="stroke: #A80036; stroke-width: 1.0;"/><path d="M507.1094,465 L499.3906,465 L499.3906,452.6094 L507.1094,452.6094 L507.1094,454.7656 L501.8438,454.7656 L501.8438,457.4375 L506.6094,457.4375 L506.6094,459.5938 L501.8438,459.5938 L501.8438,462.8438 L507.1094,462.8438 L507.1094,465 Z "/><text fill="#000000" font-family="sans-serif" font-size="12" lengthAdjust="spacingAndGlyphs" textLength="62" x="517" y="463.1543">TileStatus</text><line style="stroke: #A80036; stroke-width: 1.5;" x1="489" x2="581" y1="475" y2="475"/><text fill="#000000" font-family="sans-serif" font-size="11" lengthAdjust="spacingAndGlyphs" textLength="64" x="494" y="489.2104">Unpowered</text><text fill="#000000" font-family="sans-serif" font-size="11" lengthAdjust="spacingAndGlyphs" textLength="49" x="494" y="502.0151">Powered</text><text fill="#000000" font-family="sans-serif" font-size="11" lengthAdjust="spacingAndGlyphs" textLength="32" x="494" y="514.8198">Cyclic</text><line style="stroke: #A80036; stroke-width: 1.5;" x1="489" x2="581" y1="521.4141" y2="521.4141"/><!--class NetGame--><rect fill="#FEFECE" filter="url(#f3uwk6g7hmp1q)" height="124.8281" id="NetGame" style="stroke: #A80036; stroke-width: 1.5;" width="132" x="231" y="83.5"/><ellipse cx="264.9" cy="99.5" fill="#ADD1B2" rx="11" ry="11" style="stroke: #A80036; stroke-width: 1.0;"/><path d="M267.8688,105.1406 Q267.2906,105.4375 266.65,105.5859 Q266.0094,105.7344 265.3063,105.7344 Q262.8063,105.7344 261.4859,104.0859 Q260.1656,102.4375 260.1656,99.3125 Q260.1656,96.1875 261.4859,94.5313 Q262.8063,92.875 265.3063,92.875 Q266.0094,92.875 266.6578,93.0313 Q267.3063,93.1875 267.8688,93.4844 L267.8688,96.2031 Q267.2438,95.625 266.65,95.3516 Q266.0563,95.0781 265.4313,95.0781 Q264.0875,95.0781 263.4,96.1484 Q262.7125,97.2188 262.7125,99.3125 Q262.7125,101.4063 263.4,102.4766 Q264.0875,103.5469 265.4313,103.5469 Q266.0563,103.5469 266.65,103.2734 Q267.2438,103 267.8688,102.4219 L267.8688,105.1406 Z "/><text fill="#000000" font-family="sans-serif" font-size="12" lengthAdjust="spacingAndGlyphs" textLength="58" x="283.1" y="103.6543">NetGame</text><line style="stroke: #A80036; stroke-width: 1.5;" x1="232" x2="362" y1="115.5" y2="115.5"/><text fill="#000000" font-family="sans-serif" font-size="11" lengthAdjust="spacingAndGlyphs" textLength="48" x="237" y="129.7104">int width</text><text fill="#000000" font-family="sans-serif" font-size="11" lengthAdjust="spacingAndGlyphs" textLength="53" x="237" y="142.5151">int height</text><text fill="#000000" font-family="sans-serif" font-size="11" lengthAdjust="spacingAndGlyphs" textLength="99" x="237" y="155.3198">bool isCompleted</text><line style="stroke: #A80036; stroke-width: 1.5;" x1="232" x2="362" y1="161.9141" y2="161.9141"/><text fill="#000000" font-family="sans-serif" font-size="11" lengthAdjust="spacingAndGlyphs" textLength="98" x="237" y="176.1245">getTileAt(TilePos)</text><text fill="#000000" font-family="sans-serif" font-size="11" lengthAdjust="spacingAndGlyphs" textLength="120" x="237" y="188.9292">randomizeRotations()</text><text fill="#000000" font-family="sans-serif" font-size="11" lengthAdjust="spacingAndGlyphs" textLength="94" x="237" y="201.7339">rotateAt(TilePos)</text><!--class Generator--><rect fill="#FEFECE" filter="url(#f3uwk6g7hmp1q)" height="124.8281" id="Generator" style="stroke: #A80036; stroke-width: 1.5;" width="125" x="456.5" y="83.5"/><ellipse cx="484.55" cy="99.5" fill="#ADD1B2" rx="11" ry="11" style="stroke: #A80036; stroke-width: 1.0;"/><path d="M487.5188,105.1406 Q486.9406,105.4375 486.3,105.5859 Q485.6594,105.7344 484.9563,105.7344 Q482.4563,105.7344 481.1359,104.0859 Q479.8156,102.4375 479.8156,99.3125 Q479.8156,96.1875 481.1359,94.5313 Q482.4563,92.875 484.9563,92.875 Q485.6594,92.875 486.3078,93.0313 Q486.9563,93.1875 487.5188,93.4844 L487.5188,96.2031 Q486.8938,95.625 486.3,95.3516 Q485.7063,95.0781 485.0813,95.0781 Q483.7375,95.0781 483.05,96.1484 Q482.3625,97.2188 482.3625,99.3125 Q482.3625,101.4063 483.05,102.4766 Q483.7375,103.5469 485.0813,103.5469 Q485.7063,103.5469 486.3,103.2734 Q486.8938,103 487.5188,102.4219 L487.5188,105.1406 Z "/><text fill="#000000" font-family="sans-serif" font-size="12" lengthAdjust="spacingAndGlyphs" textLength="64" x="501.45" y="103.6543">Generator</text><line style="stroke: #A80036; stroke-width: 1.5;" x1="457.5" x2="580.5" y1="115.5" y2="115.5"/><text fill="#000000" font-family="sans-serif" font-size="11" lengthAdjust="spacingAndGlyphs" textLength="48" x="462.5" y="129.7104">int width</text><text fill="#000000" font-family="sans-serif" font-size="11" lengthAdjust="spacingAndGlyphs" textLength="53" x="462.5" y="142.5151">int height</text><text fill="#000000" font-family="sans-serif" font-size="11" lengthAdjust="spacingAndGlyphs" textLength="46" x="462.5" y="155.3198">int seed</text><text fill="#000000" font-family="sans-serif" font-size="11" lengthAdjust="spacingAndGlyphs" textLength="88" x="462.5" y="168.1245">int serverCount</text><text fill="#000000" font-family="sans-serif" font-size="11" lengthAdjust="spacingAndGlyphs" textLength="113" x="462.5" y="180.9292">int powerTypeCount</text><line style="stroke: #A80036; stroke-width: 1.5;" x1="457.5" x2="580.5" y1="187.5234" y2="187.5234"/><text fill="#000000" font-family="sans-serif" font-size="11" lengthAdjust="spacingAndGlyphs" textLength="59" x="462.5" y="201.7339">generate()</text><!--class NetGameBehaviour--><rect fill="#FEFECE" filter="url(#f3uwk6g7hmp1q)" height="99.2188" id="NetGameBehaviour" style="stroke: #A80036; stroke-width: 1.5;" width="191" x="1028.5" y="96.5"/><ellipse cx="1061.05" cy="112.5" fill="#ADD1B2" rx="11" ry="11" style="stroke: #A80036; stroke-width: 1.0;"/><path d="M1064.0188,118.1406 Q1063.4406,118.4375 1062.8,118.5859 Q1062.1594,118.7344 1061.4563,118.7344 Q1058.9563,118.7344 1057.6359,117.0859 Q1056.3156,115.4375 1056.3156,112.3125 Q1056.3156,109.1875 1057.6359,107.5313 Q1058.9563,105.875 1061.4563,105.875 Q1062.1594,105.875 1062.8078,106.0313 Q1063.4563,106.1875 1064.0188,106.4844 L1064.0188,109.2031 Q1063.3938,108.625 1062.8,108.3516 Q1062.2063,108.0781 1061.5813,108.0781 Q1060.2375,108.0781 1059.55,109.1484 Q1058.8625,110.2188 1058.8625,112.3125 Q1058.8625,114.4063 1059.55,115.4766 Q1060.2375,116.5469 1061.5813,116.5469 Q1062.2063,116.5469 1062.8,116.2734 Q1063.3938,116 1064.0188,115.4219 L1064.0188,118.1406 Z "/><text fill="#000000" font-family="sans-serif" font-size="12" lengthAdjust="spacingAndGlyphs" textLength="120" x="1078.95" y="116.6543">NetGameBehaviour</text><line style="stroke: #A80036; stroke-width: 1.5;" x1="1029.5" x2="1218.5" y1="128.5" y2="128.5"/><text fill="#000000" font-family="sans-serif" font-size="11" lengthAdjust="spacingAndGlyphs" textLength="179" x="1034.5" y="142.7104">Unity.Tilemaps.Tilemap tilemap</text><line style="stroke: #A80036; stroke-width: 1.5;" x1="1029.5" x2="1218.5" y1="149.3047" y2="149.3047"/><text fill="#000000" font-family="sans-serif" font-size="11" lengthAdjust="spacingAndGlyphs" textLength="119" x="1034.5" y="163.5151">GenerateNewPuzzle()</text><text fill="#000000" font-family="sans-serif" font-size="11" lengthAdjust="spacingAndGlyphs" textLength="74" x="1034.5" y="176.3198">ResetPuzzle()</text><text fill="#000000" font-family="sans-serif" font-size="11" lengthAdjust="spacingAndGlyphs" textLength="104" x="1034.5" y="189.1245">OnClickAt(Vector2)</text><!--class NetGamePanel--><rect fill="#FEFECE" filter="url(#f3uwk6g7hmp1q)" height="60.8047" id="NetGamePanel" style="stroke: #A80036; stroke-width: 1.5;" width="125" x="868.5" y="115.5"/><ellipse cx="883.5" cy="131.5" fill="#ADD1B2" rx="11" ry="11" style="stroke: #A80036; stroke-width: 1.0;"/><path d="M886.4688,137.1406 Q885.8906,137.4375 885.25,137.5859 Q884.6094,137.7344 883.9063,137.7344 Q881.4063,137.7344 880.0859,136.0859 Q878.7656,134.4375 878.7656,131.3125 Q878.7656,128.1875 880.0859,126.5313 Q881.4063,124.875 883.9063,124.875 Q884.6094,124.875 885.2578,125.0313 Q885.9063,125.1875 886.4688,125.4844 L886.4688,128.2031 Q885.8438,127.625 885.25,127.3516 Q884.6563,127.0781 884.0313,127.0781 Q882.6875,127.0781 882,128.1484 Q881.3125,129.2188 881.3125,131.3125 Q881.3125,133.4063 882,134.4766 Q882.6875,135.5469 884.0313,135.5469 Q884.6563,135.5469 885.25,135.2734 Q885.8438,135 886.4688,134.4219 L886.4688,137.1406 Z "/><text fill="#000000" font-family="sans-serif" font-size="12" lengthAdjust="spacingAndGlyphs" textLength="93" x="897.5" y="135.6543">NetGamePanel</text><line style="stroke: #A80036; stroke-width: 1.5;" x1="869.5" x2="992.5" y1="147.5" y2="147.5"/><line style="stroke: #A80036; stroke-width: 1.5;" x1="869.5" x2="992.5" y1="155.5" y2="155.5"/><text fill="#000000" font-family="sans-serif" font-size="11" lengthAdjust="spacingAndGlyphs" textLength="48" x="874.5" y="169.7104">Update()</text><!--class IActivator--><rect fill="#FEFECE" filter="url(#f3uwk6g7hmp1q)" height="48" id="IActivator" style="stroke: #A80036; stroke-width: 1.5;" width="91" x="873.5" y="462"/><ellipse cx="888.5" cy="478" fill="#B4A7E5" rx="11" ry="11" style="stroke: #A80036; stroke-width: 1.0;"/><path d="M884.4219,473.7656 L884.4219,471.6094 L891.8125,471.6094 L891.8125,473.7656 L889.3438,473.7656 L889.3438,481.8438 L891.8125,481.8438 L891.8125,484 L884.4219,484 L884.4219,481.8438 L886.8906,481.8438 L886.8906,473.7656 L884.4219,473.7656 Z "/><text fill="#000000" font-family="sans-serif" font-size="12" font-style="italic" lengthAdjust="spacingAndGlyphs" textLength="59" x="902.5" y="482.1543">IActivator</text><line style="stroke: #A80036; stroke-width: 1.5;" x1="874.5" x2="963.5" y1="494" y2="494"/><line style="stroke: #A80036; stroke-width: 1.5;" x1="874.5" x2="963.5" y1="502" y2="502"/><!--class IActivatable--><rect fill="#FEFECE" filter="url(#f3uwk6g7hmp1q)" height="73.6094" id="IActivatable" style="stroke: #A80036; stroke-width: 1.5;" width="105" x="666.5" y="449"/><ellipse cx="681.5" cy="465" fill="#B4A7E5" rx="11" ry="11" style="stroke: #A80036; stroke-width: 1.0;"/><path d="M677.4219,460.7656 L677.4219,458.6094 L684.8125,458.6094 L684.8125,460.7656 L682.3438,460.7656 L682.3438,468.8438 L684.8125,468.8438 L684.8125,471 L677.4219,471 L677.4219,468.8438 L679.8906,468.8438 L679.8906,460.7656 L677.4219,460.7656 Z "/><text fill="#000000" font-family="sans-serif" font-size="12" font-style="italic" lengthAdjust="spacingAndGlyphs" textLength="73" x="695.5" y="469.1543">IActivatable</text><line style="stroke: #A80036; stroke-width: 1.5;" x1="667.5" x2="770.5" y1="481" y2="481"/><line style="stroke: #A80036; stroke-width: 1.5;" x1="667.5" x2="770.5" y1="489" y2="489"/><text fill="#000000" font-family="sans-serif" font-size="11" lengthAdjust="spacingAndGlyphs" textLength="68" x="672.5" y="503.2104">OnActivate()</text><text fill="#000000" font-family="sans-serif" font-size="11" lengthAdjust="spacingAndGlyphs" textLength="83" x="672.5" y="516.0151">OnDeactivate()</text><!--class Button--><rect fill="#FEFECE" filter="url(#f3uwk6g7hmp1q)" height="48" id="Button" style="stroke: #A80036; stroke-width: 1.5;" width="74" x="957" y="671"/><ellipse cx="972" cy="687" fill="#ADD1B2" rx="11" ry="11" style="stroke: #A80036; stroke-width: 1.0;"/><path d="M974.9688,692.6406 Q974.3906,692.9375 973.75,693.0859 Q973.1094,693.2344 972.4063,693.2344 Q969.9063,693.2344 968.5859,691.5859 Q967.2656,689.9375 967.2656,686.8125 Q967.2656,683.6875 968.5859,682.0313 Q969.9063,680.375 972.4063,680.375 Q973.1094,680.375 973.7578,680.5313 Q974.4063,680.6875 974.9688,680.9844 L974.9688,683.7031 Q974.3438,683.125 973.75,682.8516 Q973.1563,682.5781 972.5313,682.5781 Q971.1875,682.5781 970.5,683.6484 Q969.8125,684.7188 969.8125,686.8125 Q969.8125,688.9063 970.5,689.9766 Q971.1875,691.0469 972.5313,691.0469 Q973.1563,691.0469 973.75,690.7734 Q974.3438,690.5 974.9688,689.9219 L974.9688,692.6406 Z "/><text fill="#000000" font-family="sans-serif" font-size="12" lengthAdjust="spacingAndGlyphs" textLength="42" x="986" y="691.1543">Button</text><line style="stroke: #A80036; stroke-width: 1.5;" x1="958" x2="1030" y1="703" y2="703"/><line style="stroke: #A80036; stroke-width: 1.5;" x1="958" x2="1030" y1="711" y2="711"/><!--class CubeSpawner--><rect fill="#FEFECE" filter="url(#f3uwk6g7hmp1q)" height="48" id="CubeSpawner" style="stroke: #A80036; stroke-width: 1.5;" width="118" x="606" y="671"/><ellipse cx="621" cy="687" fill="#ADD1B2" rx="11" ry="11" style="stroke: #A80036; stroke-width: 1.0;"/><path d="M623.9688,692.6406 Q623.3906,692.9375 622.75,693.0859 Q622.1094,693.2344 621.4063,693.2344 Q618.9063,693.2344 617.5859,691.5859 Q616.2656,689.9375 616.2656,686.8125 Q616.2656,683.6875 617.5859,682.0313 Q618.9063,680.375 621.4063,680.375 Q622.1094,680.375 622.7578,680.5313 Q623.4063,680.6875 623.9688,680.9844 L623.9688,683.7031 Q623.3438,683.125 622.75,682.8516 Q622.1563,682.5781 621.5313,682.5781 Q620.1875,682.5781 619.5,683.6484 Q618.8125,684.7188 618.8125,686.8125 Q618.8125,688.9063 619.5,689.9766 Q620.1875,691.0469 621.5313,691.0469 Q622.1563,691.0469 622.75,690.7734 Q623.3438,690.5 623.9688,689.9219 L623.9688,692.6406 Z "/><text fill="#000000" font-family="sans-serif" font-size="12" lengthAdjust="spacingAndGlyphs" textLength="86" x="635" y="691.1543">CubeSpawner</text><line style="stroke: #A80036; stroke-width: 1.5;" x1="607" x2="723" y1="703" y2="703"/><line style="stroke: #A80036; stroke-width: 1.5;" x1="607" x2="723" y1="711" y2="711"/><!--class Lamp--><rect fill="#FEFECE" filter="url(#f3uwk6g7hmp1q)" height="48" id="Lamp" style="stroke: #A80036; stroke-width: 1.5;" width="65" x="759.5" y="671"/><ellipse cx="774.5" cy="687" fill="#ADD1B2" rx="11" ry="11" style="stroke: #A80036; stroke-width: 1.0;"/><path d="M777.4688,692.6406 Q776.8906,692.9375 776.25,693.0859 Q775.6094,693.2344 774.9063,693.2344 Q772.4063,693.2344 771.0859,691.5859 Q769.7656,689.9375 769.7656,686.8125 Q769.7656,683.6875 771.0859,682.0313 Q772.4063,680.375 774.9063,680.375 Q775.6094,680.375 776.2578,680.5313 Q776.9063,680.6875 777.4688,680.9844 L777.4688,683.7031 Q776.8438,683.125 776.25,682.8516 Q775.6563,682.5781 775.0313,682.5781 Q773.6875,682.5781 773,683.6484 Q772.3125,684.7188 772.3125,686.8125 Q772.3125,688.9063 773,689.9766 Q773.6875,691.0469 775.0313,691.0469 Q775.6563,691.0469 776.25,690.7734 Q776.8438,690.5 777.4688,689.9219 L777.4688,692.6406 Z "/><text fill="#000000" font-family="sans-serif" font-size="12" lengthAdjust="spacingAndGlyphs" textLength="33" x="788.5" y="691.1543">Lamp</text><line style="stroke: #A80036; stroke-width: 1.5;" x1="760.5" x2="823.5" y1="703" y2="703"/><line style="stroke: #A80036; stroke-width: 1.5;" x1="760.5" x2="823.5" y1="711" y2="711"/><!--class Door--><rect fill="#FEFECE" filter="url(#f3uwk6g7hmp1q)" height="48" id="Door" style="stroke: #A80036; stroke-width: 1.5;" width="62" x="860" y="671"/><ellipse cx="875" cy="687" fill="#ADD1B2" rx="11" ry="11" style="stroke: #A80036; stroke-width: 1.0;"/><path d="M877.9688,692.6406 Q877.3906,692.9375 876.75,693.0859 Q876.1094,693.2344 875.4063,693.2344 Q872.9063,693.2344 871.5859,691.5859 Q870.2656,689.9375 870.2656,686.8125 Q870.2656,683.6875 871.5859,682.0313 Q872.9063,680.375 875.4063,680.375 Q876.1094,680.375 876.7578,680.5313 Q877.4063,680.6875 877.9688,680.9844 L877.9688,683.7031 Q877.3438,683.125 876.75,682.8516 Q876.1563,682.5781 875.5313,682.5781 Q874.1875,682.5781 873.5,683.6484 Q872.8125,684.7188 872.8125,686.8125 Q872.8125,688.9063 873.5,689.9766 Q874.1875,691.0469 875.5313,691.0469 Q876.1563,691.0469 876.75,690.7734 Q877.3438,690.5 877.9688,689.9219 L877.9688,692.6406 Z "/><text fill="#000000" font-family="sans-serif" font-size="12" lengthAdjust="spacingAndGlyphs" textLength="30" x="889" y="691.1543">Door</text><line style="stroke: #A80036; stroke-width: 1.5;" x1="861" x2="921" y1="703" y2="703"/><line style="stroke: #A80036; stroke-width: 1.5;" x1="861" x2="921" y1="711" y2="711"/><!--class PlayerAbilities--><rect fill="#FEFECE" filter="url(#f3uwk6g7hmp1q)" height="48" id="PlayerAbilities" style="stroke: #A80036; stroke-width: 1.5;" width="118" x="1240" y="300"/><ellipse cx="1255" cy="316" fill="#ADD1B2" rx="11" ry="11" style="stroke: #A80036; stroke-width: 1.0;"/><path d="M1257.9688,321.6406 Q1257.3906,321.9375 1256.75,322.0859 Q1256.1094,322.2344 1255.4063,322.2344 Q1252.9063,322.2344 1251.5859,320.5859 Q1250.2656,318.9375 1250.2656,315.8125 Q1250.2656,312.6875 1251.5859,311.0313 Q1252.9063,309.375 1255.4063,309.375 Q1256.1094,309.375 1256.7578,309.5313 Q1257.4063,309.6875 1257.9688,309.9844 L1257.9688,312.7031 Q1257.3438,312.125 1256.75,311.8516 Q1256.1563,311.5781 1255.5313,311.5781 Q1254.1875,311.5781 1253.5,312.6484 Q1252.8125,313.7188 1252.8125,315.8125 Q1252.8125,317.9063 1253.5,318.9766 Q1254.1875,320.0469 1255.5313,320.0469 Q1256.1563,320.0469 1256.75,319.7734 Q1257.3438,319.5 1257.9688,318.9219 L1257.9688,321.6406 Z "/><text fill="#000000" font-family="sans-serif" font-size="12" lengthAdjust="spacingAndGlyphs" textLength="86" x="1269" y="320.1543">PlayerAbilities</text><line style="stroke: #A80036; stroke-width: 1.5;" x1="1241" x2="1357" y1="332" y2="332"/><line style="stroke: #A80036; stroke-width: 1.5;" x1="1241" x2="1357" y1="340" y2="340"/><!--class Player--><rect fill="#FEFECE" filter="url(#f3uwk6g7hmp1q)" height="48" id="Player" style="stroke: #A80036; stroke-width: 1.5;" width="70" x="1085" y="300"/><ellipse cx="1100" cy="316" fill="#ADD1B2" rx="11" ry="11" style="stroke: #A80036; stroke-width: 1.0;"/><path d="M1102.9688,321.6406 Q1102.3906,321.9375 1101.75,322.0859 Q1101.1094,322.2344 1100.4063,322.2344 Q1097.9063,322.2344 1096.5859,320.5859 Q1095.2656,318.9375 1095.2656,315.8125 Q1095.2656,312.6875 1096.5859,311.0313 Q1097.9063,309.375 1100.4063,309.375 Q1101.1094,309.375 1101.7578,309.5313 Q1102.4063,309.6875 1102.9688,309.9844 L1102.9688,312.7031 Q1102.3438,312.125 1101.75,311.8516 Q1101.1563,311.5781 1100.5313,311.5781 Q1099.1875,311.5781 1098.5,312.6484 Q1097.8125,313.7188 1097.8125,315.8125 Q1097.8125,317.9063 1098.5,318.9766 Q1099.1875,320.0469 1100.5313,320.0469 Q1101.1563,320.0469 1101.75,319.7734 Q1102.3438,319.5 1102.9688,318.9219 L1102.9688,321.6406 Z "/><text fill="#000000" font-family="sans-serif" font-size="12" lengthAdjust="spacingAndGlyphs" textLength="38" x="1114" y="320.1543">Player</text><line style="stroke: #A80036; stroke-width: 1.5;" x1="1086" x2="1154" y1="332" y2="332"/><line style="stroke: #A80036; stroke-width: 1.5;" x1="1086" x2="1154" y1="340" y2="340"/><!--class UpgradeController--><rect fill="#FEFECE" filter="url(#f3uwk6g7hmp1q)" height="48" id="UpgradeController" style="stroke: #A80036; stroke-width: 1.5;" width="147" x="902.5" y="300"/><ellipse cx="917.5" cy="316" fill="#ADD1B2" rx="11" ry="11" style="stroke: #A80036; stroke-width: 1.0;"/><path d="M920.4688,321.6406 Q919.8906,321.9375 919.25,322.0859 Q918.6094,322.2344 917.9063,322.2344 Q915.4063,322.2344 914.0859,320.5859 Q912.7656,318.9375 912.7656,315.8125 Q912.7656,312.6875 914.0859,311.0313 Q915.4063,309.375 917.9063,309.375 Q918.6094,309.375 919.2578,309.5313 Q919.9063,309.6875 920.4688,309.9844 L920.4688,312.7031 Q919.8438,312.125 919.25,311.8516 Q918.6563,311.5781 918.0313,311.5781 Q916.6875,311.5781 916,312.6484 Q915.3125,313.7188 915.3125,315.8125 Q915.3125,317.9063 916,318.9766 Q916.6875,320.0469 918.0313,320.0469 Q918.6563,320.0469 919.25,319.7734 Q919.8438,319.5 920.4688,318.9219 L920.4688,321.6406 Z "/><text fill="#000000" font-family="sans-serif" font-size="12" lengthAdjust="spacingAndGlyphs" textLength="115" x="931.5" y="320.1543">UpgradeController</text><line style="stroke: #A80036; stroke-width: 1.5;" x1="903.5" x2="1048.5" y1="332" y2="332"/><line style="stroke: #A80036; stroke-width: 1.5;" x1="903.5" x2="1048.5" y1="340" y2="340"/><!--class ManualStandController--><rect fill="#FEFECE" filter="url(#f3uwk6g7hmp1q)" height="48" id="ManualStandController" style="stroke: #A80036; stroke-width: 1.5;" width="175" x="692.5" y="300"/><ellipse cx="707.5" cy="316" fill="#ADD1B2" rx="11" ry="11" style="stroke: #A80036; stroke-width: 1.0;"/><path d="M710.4688,321.6406 Q709.8906,321.9375 709.25,322.0859 Q708.6094,322.2344 707.9063,322.2344 Q705.4063,322.2344 704.0859,320.5859 Q702.7656,318.9375 702.7656,315.8125 Q702.7656,312.6875 704.0859,311.0313 Q705.4063,309.375 707.9063,309.375 Q708.6094,309.375 709.2578,309.5313 Q709.9063,309.6875 710.4688,309.9844 L710.4688,312.7031 Q709.8438,312.125 709.25,311.8516 Q708.6563,311.5781 708.0313,311.5781 Q706.6875,311.5781 706,312.6484 Q705.3125,313.7188 705.3125,315.8125 Q705.3125,317.9063 706,318.9766 Q706.6875,320.0469 708.0313,320.0469 Q708.6563,320.0469 709.25,319.7734 Q709.8438,319.5 710.4688,318.9219 L710.4688,321.6406 Z "/><text fill="#000000" font-family="sans-serif" font-size="12" lengthAdjust="spacingAndGlyphs" textLength="143" x="721.5" y="320.1543">ManualStandController</text><line style="stroke: #A80036; stroke-width: 1.5;" x1="693.5" x2="866.5" y1="332" y2="332"/><line style="stroke: #A80036; stroke-width: 1.5;" x1="693.5" x2="866.5" y1="340" y2="340"/><!--link Direction to Directions--><path d="M127.3739,215.2134 C135.5797,256.471 141.3304,309.6657 131,356 C124.0999,386.9487 108.9991,419.2339 95.5494,443.8883 " fill="none" id="Direction-Directions" style="stroke: #A80036; stroke-width: 1.0;"/><polygon fill="#A80036" points="89.1227,455.339,95.5474,452.0645,94.9958,444.8745,88.5711,448.149,89.1227,455.339" style="stroke: #A80036; stroke-width: 1.0;"/><text fill="#000000" font-family="sans-serif" font-size="13" lengthAdjust="spacingAndGlyphs" textLength="80" x="138" y="328.5669">components</text><!--link Direction to Directions--><path d="M68.1237,219.9533 C63.5395,231.0795 59.5928,242.6384 57,254 C41.4873,321.9773 52.8473,403.9172 61.8648,449.9798 " fill="none" id="Direction-Directions" style="stroke: #A80036; stroke-width: 1.0; stroke-dasharray: 7.0,7.0;"/><polygon fill="#A80036" points="62.8952,455.1428,65.0561,445.5339,61.9165,450.2395,57.2109,447.0999,62.8952,455.1428" style="stroke: #A80036; stroke-width: 1.0;"/><polygon fill="#A80036" points="70.1253,215.2133,62.9391,221.9482,68.1802,219.8194,70.309,225.0604,70.1253,215.2133" style="stroke: #A80036; stroke-width: 1.0;"/><text fill="#000000" font-family="sans-serif" font-size="13" lengthAdjust="spacingAndGlyphs" textLength="64" x="58" y="328.5669">«convert»</text><!--link Directions to NoteIC--><path d="M85.7882,516.8387 C109.6225,563.3936 153.7743,649.634 170.4201,682.1477 " fill="none" id="Directions-NoteIC" style="stroke: #A80036; stroke-width: 1.0; stroke-dasharray: 7.0,7.0;"/><!--link NoteIC to TilePos--><path d="M241.1602,695 C252.8961,695 264.632,695 276.3679,695 " fill="none" id="NoteIC-TilePos" style="stroke: #A80036; stroke-width: 1.0; stroke-dasharray: 7.0,7.0;"/><!--link Tile to NoteIC--><path d="M255.4251,516.8387 C234.932,563.3936 196.9697,649.634 182.6575,682.1477 " fill="none" id="Tile-NoteIC" style="stroke: #A80036; stroke-width: 1.0; stroke-dasharray: 7.0,7.0;"/><!--link Tile to TileType--><path d="M306.5716,486 C324.6494,486 346.4943,486 365.6003,486 " fill="none" id="Tile-TileType" style="stroke: #A80036; stroke-width: 1.0;"/><polygon fill="#A80036" points="370.9112,486,361.9112,482,365.9112,486,361.9112,490,370.9112,486" style="stroke: #A80036; stroke-width: 1.0;"/><text fill="#000000" font-family="sans-serif" font-size="13" lengthAdjust="spacingAndGlyphs" textLength="28" x="324.75" y="479.0669">type</text><!--link Tile to TileStatus--><path d="M290.5601,455.3274 C305.6652,436.5565 327.6379,414.0809 353,403 C371.3452,394.9848 377.9852,401.4446 398,401 C430.0044,400.2891 441.7019,388.0332 470,403 C485.3954,411.1426 498.3264,424.6995 508.4979,438.5207 " fill="none" id="Tile-TileStatus" style="stroke: #A80036; stroke-width: 1.0;"/><polygon fill="#A80036" points="511.5657,442.8128,509.5866,433.1648,508.6583,438.745,503.0781,437.8167,511.5657,442.8128" style="stroke: #A80036; stroke-width: 1.0;"/><text fill="#000000" font-family="sans-serif" font-size="13" lengthAdjust="spacingAndGlyphs" textLength="40" x="399" y="391.0669">status</text><!--link Tile to Directions--><path d="M231.3531,486 C200.7477,486 157.2022,486 123.0608,486 " fill="none" id="Tile-Directions" style="stroke: #A80036; stroke-width: 1.0;"/><polygon fill="#A80036" points="117.6655,486,126.6655,490,122.6655,486,126.6655,482,117.6655,486" style="stroke: #A80036; stroke-width: 1.0;"/><text fill="#000000" font-family="sans-serif" font-size="13" lengthAdjust="spacingAndGlyphs" textLength="77" x="136" y="479.0669">connections</text><!--link NetGame to Tile--><path d="M292.7005,221.6904 C290.2413,261.6622 286.8759,311.5222 283,356 C280.0341,390.0344 275.7169,428.9818 272.6622,455.3028 " fill="none" id="NetGame-Tile" style="stroke: #A80036; stroke-width: 1.0;"/><polygon fill="#FFFFFF" points="293.4992,208.5359,289.1429,214.2825,292.7719,220.5138,297.1282,214.7673,293.4992,208.5359" style="stroke: #A80036; stroke-width: 1.0;"/><text fill="#000000" font-family="sans-serif" font-size="13" lengthAdjust="spacingAndGlyphs" textLength="26" x="292" y="328.5669">tiles</text><!--link NetGame to Generator--><path d="M368.2466,146 C396.5708,146 428.8741,146 456.2935,146 " fill="none" id="NetGame-Generator" style="stroke: #A80036; stroke-width: 1.0; stroke-dasharray: 7.0,7.0;"/><polygon fill="#A80036" points="363.0063,146,372.0063,150,368.0063,146,372.0063,142,363.0063,146" style="stroke: #A80036; stroke-width: 1.0;"/><text fill="#000000" font-family="sans-serif" font-size="13" lengthAdjust="spacingAndGlyphs" textLength="57" x="381.25" y="139.0669">«create»</text><!--link NetGameBehaviour to NetGame--><path d="M1091.2345,96.3655 C1068.0672,66.3112 1033.9906,30.9785 993.5,16 C965.5198,5.6494 484.6063,5.9969 456.5,16 C419.7708,29.0721 385.3707,54.624 357.9888,79.6399 " fill="none" id="NetGameBehaviour-NetGame" style="stroke: #A80036; stroke-width: 1.0;"/><polygon fill="#A80036" points="354.0003,83.3253,363.325,80.1552,357.6726,79.932,357.8958,74.2796,354.0003,83.3253" style="stroke: #A80036; stroke-width: 1.0;"/><!--link NetGamePanel to NetGameBehaviour--><path d="M993.5742,146 C1003.4805,146 1013.3867,146 1023.293,146 " fill="none" id="NetGamePanel-NetGameBehaviour" style="stroke: #A80036; stroke-width: 1.0;"/><polygon fill="#A80036" points="1028.4733,146,1019.4733,142,1023.4733,146,1019.4733,150,1028.4733,146" style="stroke: #A80036; stroke-width: 1.0;"/><!--link IActivator to IActivatable--><path d="M873.2609,486 C844.6235,486 807.4706,486 776.8022,486 " fill="none" id="IActivator-IActivatable" style="stroke: #A80036; stroke-width: 1.0; stroke-dasharray: 7.0,7.0;"/><polygon fill="#A80036" points="771.5476,486,780.5476,490,776.5476,486,780.5476,482,771.5476,486" style="stroke: #A80036; stroke-width: 1.0;"/><text fill="#000000" font-family="sans-serif" font-size="13" lengthAdjust="spacingAndGlyphs" textLength="65" x="790" y="479.0669">«triggers»</text><!--link IActivator to Button--><path d="M934.5077,529.2147 C949.8841,572.0636 972.8894,636.1719 985.3055,670.7713 " fill="none" id="IActivator-Button" style="stroke: #A80036; stroke-width: 1.0;"/><polygon fill="none" points="927.9169,531.573,927.7502,510.384,941.0942,526.8443,927.9169,531.573" style="stroke: #A80036; stroke-width: 1.0;"/><!--link IActivatable to CubeSpawner--><path d="M704.3311,542.7739 C693.4761,584.787 679.2344,639.9077 671.206,670.9804 " fill="none" id="IActivatable-CubeSpawner" style="stroke: #A80036; stroke-width: 1.0;"/><polygon fill="none" points="697.5652,540.978,709.3459,523.365,711.1201,544.4802,697.5652,540.978" style="stroke: #A80036; stroke-width: 1.0;"/><!--link IActivatable to Lamp--><path d="M738.7301,542.4876 C753.417,584.5364 772.7326,639.8371 783.6104,670.9804 " fill="none" id="IActivatable-Lamp" style="stroke: #A80036; stroke-width: 1.0;"/><polygon fill="none" points="732.0375,544.5547,732.0509,523.365,745.2544,539.9382,732.0375,544.5547" style="stroke: #A80036; stroke-width: 1.0;"/><!--link IActivatable to Door--><path d="M762.6874,539.0853 C797.6006,581.5089 844.9054,638.9897 871.2327,670.9804 " fill="none" id="IActivatable-Door" style="stroke: #A80036; stroke-width: 1.0;"/><polygon fill="none" points="757.0541,543.2561,749.7502,523.365,767.8642,534.3598,757.0541,543.2561" style="stroke: #A80036; stroke-width: 1.0;"/><!--link Player to PlayerAbilities--><path d="M1155.3646,324 C1177.9071,324 1207.7889,324 1234.4574,324 " fill="none" id="Player-PlayerAbilities" style="stroke: #A80036; stroke-width: 1.0;"/><polygon fill="#A80036" points="1239.7452,324,1230.7452,320,1234.7452,324,1230.7452,328,1239.7452,324" style="stroke: #A80036; stroke-width: 1.0;"/><text fill="#000000" font-family="sans-serif" font-size="13" lengthAdjust="spacingAndGlyphs" textLength="48" x="1173.5" y="317.0669">abilities</text><!--link ManualStandController to PlayerAbilities--><path d="M803.1536,299.9544 C826.0214,278.086 863.1889,247.3307 902.5,234.5 C955.9474,217.0553 1101.4492,219.0259 1155.5,234.5 C1197.7399,246.5928 1239.6296,275.1286 1267.1459,296.7526 " fill="none" id="ManualStandController-PlayerAbilities" style="stroke: #A80036; stroke-width: 1.0;"/><polygon fill="#A80036" points="1271.0997,299.8901,1266.5362,291.1623,1267.1831,296.782,1261.5633,297.4289,1271.0997,299.8901" style="stroke: #A80036; stroke-width: 1.0;"/><!--link ManualStandController to IActivator--><path d="M800.8097,348.253 C825.9605,377.5655 868.2076,426.8031 894.7922,457.7866 " fill="none" id="ManualStandController-IActivator" style="stroke: #A80036; stroke-width: 1.0;"/><polygon fill="#A80036" points="898.2754,461.8461,895.4507,452.411,895.0196,458.0514,889.3792,457.6203,898.2754,461.8461" style="stroke: #A80036; stroke-width: 1.0;"/><!--link ManualStandController to UpgradeController--><path d="M867.6641,324 C877.5142,324 887.3643,324 897.2144,324 " fill="none" id="ManualStandController-UpgradeController" style="stroke: #A80036; stroke-width: 1.0;"/><polygon fill="#A80036" points="902.3654,324,893.3654,320,897.3654,324,893.3654,328,902.3654,324" style="stroke: #A80036; stroke-width: 1.0;"/><!--link ManualStandController to IActivatable--><!--link NetGamePanel to Player--><!--link ManualStandController to Button--><!--
@startuml Architecture
page 2x1
package NetGame {
    enum Direction {
        Up
        Down
        Left
        Right
        xDelta()
        yDelta()
        rotate()
    }

    class Directions {
        rotate()
    }

    Directions *-up- Direction : components

    note "Immutable Class" as NoteIC
    Directions .. NoteIC
    TilePos .left. NoteIC
    Tile .. NoteIC

    Direction <..> Directions : <<convert>>

    class TilePos {
        x
        y
        move(Direction)
    }

    enum TileType {
        Wire
        Terminal
        Server
    }

    enum TileStatus {
        Unpowered
        Powered
        Cyclic
    }

    class Tile {
        ' TileType type
        ' TileStatus status
        ' Directions connections
        int powerId
    }

    Tile -> TileType : type
    Tile -> TileStatus : status
    Tile -> Directions : connections

    class NetGame {
        int width
        int height
        bool isCompleted
        getTileAt(TilePos)
        randomizeRotations()
        rotateAt(TilePos)
    }

    NetGame o- - Tile : tiles

    class Generator {
        int width
        int height
        int seed
        int serverCount
        int powerTypeCount
        generate()
    }

    Generator .left.> NetGame : <<create>>
}

package UnityNetGame {
    class NetGameBehaviour {
        Unity.Tilemaps.Tilemap tilemap
        GenerateNewPuzzle()
        ResetPuzzle()
        OnClickAt(Vector2)
    }

    NetGameBehaviour -> NetGame

    class NetGamePanel {
        Update()
    }

    NetGamePanel -> NetGameBehaviour
}

package UnityLogicGame {
    interface IActivator {
    }

    interface IActivatable {
        OnActivate()
        OnDeactivate()
    }

    IActivator .right.> IActivatable : <<triggers>>

    class Button {
    }
    Button -up-|> IActivator

    class CubeSpawner {
    }
    CubeSpawner -up-|> IActivatable

    class Lamp {
    }
    Lamp -up-|> IActivatable

    class Door {
    }
    Door -up-|> IActivatable
}

package UnityMovement {

    class PlayerAbilities {
    }

    class Player {
    }

    Player -> PlayerAbilities : abilities

    class UpgradeController {
    }

    class ManualStandController {
    }
    ManualStandController -> PlayerAbilities
    ManualStandController -> IActivator
    ManualStandController -> UpgradeController
    ManualStandController -[hidden]->IActivatable
}


NetGamePanel -[hidden]->Player
ManualStandController -[hidden]->Button

@enduml

PlantUML version 1.2017.15(Mon Jul 03 18:45:34 CEST 2017)
(GPL source distribution)
Java Runtime: OpenJDK Runtime Environment
JVM: OpenJDK 64-Bit Server VM
Java Version: 1.8.0_191-8u191-b12-2ubuntu0.18.04.1-b12
Operating System: Linux
OS Version: 4.15.0-46-generic
Default Encoding: UTF-8
Language: en
Country: US
--></g></svg>