<?xml version="1.0" encoding="UTF-8" standalone="no"?><svg xmlns="http://www.w3.org/2000/svg" xmlns:xlink="http://www.w3.org/1999/xlink" contentScriptType="application/ecmascript" contentStyleType="text/css" height="175px" preserveAspectRatio="none" style="width:385px;height:175px;" version="1.1" viewBox="0 0 385 175" width="385px" zoomAndPan="magnify"><defs><filter height="300%" id="fk9lom7qinuel" width="300%" x="-1" y="-1"><feGaussianBlur result="blurOut" stdDeviation="2.0"/><feColorMatrix in="blurOut" result="blurOut2" type="matrix" values="0 0 0 0 0 0 0 0 0 0 0 0 0 0 0 0 0 0 .4 0"/><feOffset dx="4.0" dy="4.0" in="blurOut2" result="blurOut3"/><feBlend in="SourceGraphic" in2="blurOut3" mode="normal"/></filter></defs><g><!--class GameObject--><rect fill="#FEFECE" filter="url(#fk9lom7qinuel)" height="48" id="GameObject" style="stroke: #A80036; stroke-width: 1.5;" width="108" x="6" y="8"/><ellipse cx="21" cy="24" fill="#ADD1B2" rx="11" ry="11" style="stroke: #A80036; stroke-width: 1.0;"/><path d="M23.9688,29.6406 Q23.3906,29.9375 22.75,30.0859 Q22.1094,30.2344 21.4063,30.2344 Q18.9063,30.2344 17.5859,28.5859 Q16.2656,26.9375 16.2656,23.8125 Q16.2656,20.6875 17.5859,19.0313 Q18.9063,17.375 21.4063,17.375 Q22.1094,17.375 22.7578,17.5313 Q23.4063,17.6875 23.9688,17.9844 L23.9688,20.7031 Q23.3438,20.125 22.75,19.8516 Q22.1563,19.5781 21.5313,19.5781 Q20.1875,19.5781 19.5,20.6484 Q18.8125,21.7188 18.8125,23.8125 Q18.8125,25.9063 19.5,26.9766 Q20.1875,28.0469 21.5313,28.0469 Q22.1563,28.0469 22.75,27.7734 Q23.3438,27.5 23.9688,26.9219 L23.9688,29.6406 Z "/><text fill="#000000" font-family="sans-serif" font-size="12" lengthAdjust="spacingAndGlyphs" textLength="76" x="35" y="28.1543">GameObject</text><line style="stroke: #A80036; stroke-width: 1.5;" x1="7" x2="113" y1="40" y2="40"/><line style="stroke: #A80036; stroke-width: 1.5;" x1="7" x2="113" y1="48" y2="48"/><!--class Component--><rect fill="#FEFECE" filter="url(#fk9lom7qinuel)" height="48" id="Component" style="stroke: #A80036; stroke-width: 1.5;" width="104" x="149" y="8"/><ellipse cx="164" cy="24" fill="#ADD1B2" rx="11" ry="11" style="stroke: #A80036; stroke-width: 1.0;"/><path d="M166.9688,29.6406 Q166.3906,29.9375 165.75,30.0859 Q165.1094,30.2344 164.4063,30.2344 Q161.9063,30.2344 160.5859,28.5859 Q159.2656,26.9375 159.2656,23.8125 Q159.2656,20.6875 160.5859,19.0313 Q161.9063,17.375 164.4063,17.375 Q165.1094,17.375 165.7578,17.5313 Q166.4063,17.6875 166.9688,17.9844 L166.9688,20.7031 Q166.3438,20.125 165.75,19.8516 Q165.1563,19.5781 164.5313,19.5781 Q163.1875,19.5781 162.5,20.6484 Q161.8125,21.7188 161.8125,23.8125 Q161.8125,25.9063 162.5,26.9766 Q163.1875,28.0469 164.5313,28.0469 Q165.1563,28.0469 165.75,27.7734 Q166.3438,27.5 166.9688,26.9219 L166.9688,29.6406 Z "/><text fill="#000000" font-family="sans-serif" font-size="12" lengthAdjust="spacingAndGlyphs" textLength="72" x="178" y="28.1543">Component</text><line style="stroke: #A80036; stroke-width: 1.5;" x1="150" x2="252" y1="40" y2="40"/><line style="stroke: #A80036; stroke-width: 1.5;" x1="150" x2="252" y1="48" y2="48"/><!--class MyScript1--><rect fill="#FEFECE" filter="url(#fk9lom7qinuel)" height="48" id="MyScript1" style="stroke: #A80036; stroke-width: 1.5;" width="92" x="28" y="116"/><ellipse cx="43" cy="132" fill="#ADD1B2" rx="11" ry="11" style="stroke: #A80036; stroke-width: 1.0;"/><path d="M45.9688,137.6406 Q45.3906,137.9375 44.75,138.0859 Q44.1094,138.2344 43.4063,138.2344 Q40.9063,138.2344 39.5859,136.5859 Q38.2656,134.9375 38.2656,131.8125 Q38.2656,128.6875 39.5859,127.0313 Q40.9063,125.375 43.4063,125.375 Q44.1094,125.375 44.7578,125.5313 Q45.4063,125.6875 45.9688,125.9844 L45.9688,128.7031 Q45.3438,128.125 44.75,127.8516 Q44.1563,127.5781 43.5313,127.5781 Q42.1875,127.5781 41.5,128.6484 Q40.8125,129.7188 40.8125,131.8125 Q40.8125,133.9063 41.5,134.9766 Q42.1875,136.0469 43.5313,136.0469 Q44.1563,136.0469 44.75,135.7734 Q45.3438,135.5 45.9688,134.9219 L45.9688,137.6406 Z "/><text fill="#000000" font-family="sans-serif" font-size="12" lengthAdjust="spacingAndGlyphs" textLength="60" x="57" y="136.1543">MyScript1</text><line style="stroke: #A80036; stroke-width: 1.5;" x1="29" x2="119" y1="148" y2="148"/><line style="stroke: #A80036; stroke-width: 1.5;" x1="29" x2="119" y1="156" y2="156"/><!--class MyScript2--><rect fill="#FEFECE" filter="url(#fk9lom7qinuel)" height="48" id="MyScript2" style="stroke: #A80036; stroke-width: 1.5;" width="92" x="155" y="116"/><ellipse cx="170" cy="132" fill="#ADD1B2" rx="11" ry="11" style="stroke: #A80036; stroke-width: 1.0;"/><path d="M172.9688,137.6406 Q172.3906,137.9375 171.75,138.0859 Q171.1094,138.2344 170.4063,138.2344 Q167.9063,138.2344 166.5859,136.5859 Q165.2656,134.9375 165.2656,131.8125 Q165.2656,128.6875 166.5859,127.0313 Q167.9063,125.375 170.4063,125.375 Q171.1094,125.375 171.7578,125.5313 Q172.4063,125.6875 172.9688,125.9844 L172.9688,128.7031 Q172.3438,128.125 171.75,127.8516 Q171.1563,127.5781 170.5313,127.5781 Q169.1875,127.5781 168.5,128.6484 Q167.8125,129.7188 167.8125,131.8125 Q167.8125,133.9063 168.5,134.9766 Q169.1875,136.0469 170.5313,136.0469 Q171.1563,136.0469 171.75,135.7734 Q172.3438,135.5 172.9688,134.9219 L172.9688,137.6406 Z "/><text fill="#000000" font-family="sans-serif" font-size="12" lengthAdjust="spacingAndGlyphs" textLength="60" x="184" y="136.1543">MyScript2</text><line style="stroke: #A80036; stroke-width: 1.5;" x1="156" x2="246" y1="148" y2="148"/><line style="stroke: #A80036; stroke-width: 1.5;" x1="156" x2="246" y1="156" y2="156"/><!--class MyScript3--><rect fill="#FEFECE" filter="url(#fk9lom7qinuel)" height="48" id="MyScript3" style="stroke: #A80036; stroke-width: 1.5;" width="92" x="282" y="116"/><ellipse cx="297" cy="132" fill="#ADD1B2" rx="11" ry="11" style="stroke: #A80036; stroke-width: 1.0;"/><path d="M299.9688,137.6406 Q299.3906,137.9375 298.75,138.0859 Q298.1094,138.2344 297.4063,138.2344 Q294.9063,138.2344 293.5859,136.5859 Q292.2656,134.9375 292.2656,131.8125 Q292.2656,128.6875 293.5859,127.0313 Q294.9063,125.375 297.4063,125.375 Q298.1094,125.375 298.7578,125.5313 Q299.4063,125.6875 299.9688,125.9844 L299.9688,128.7031 Q299.3438,128.125 298.75,127.8516 Q298.1563,127.5781 297.5313,127.5781 Q296.1875,127.5781 295.5,128.6484 Q294.8125,129.7188 294.8125,131.8125 Q294.8125,133.9063 295.5,134.9766 Q296.1875,136.0469 297.5313,136.0469 Q298.1563,136.0469 298.75,135.7734 Q299.3438,135.5 299.9688,134.9219 L299.9688,137.6406 Z "/><text fill="#000000" font-family="sans-serif" font-size="12" lengthAdjust="spacingAndGlyphs" textLength="60" x="311" y="136.1543">MyScript3</text><line style="stroke: #A80036; stroke-width: 1.5;" x1="283" x2="373" y1="148" y2="148"/><line style="stroke: #A80036; stroke-width: 1.5;" x1="283" x2="373" y1="156" y2="156"/><!--link GameObject to Component--><path d="M127.4834,32 C134.5941,32 141.7049,32 148.8156,32 " fill="none" id="GameObject-Component" style="stroke: #A80036; stroke-width: 1.0;"/><polygon fill="#A80036" points="114.252,32,120.252,36,126.252,32,120.252,28,114.252,32" style="stroke: #A80036; stroke-width: 1.0;"/><!--link Component to MyScript1--><path d="M157.044,69.3799 C138.9386,84.7767 118.4844,102.1708 102.4062,115.8436 " fill="none" id="Component-MyScript1" style="stroke: #A80036; stroke-width: 1.0;"/><polygon fill="none" points="152.7281,63.8612,172.4987,56.2373,161.7976,74.5263,152.7281,63.8612" style="stroke: #A80036; stroke-width: 1.0;"/><!--link Component to MyScript2--><path d="M201,76.2911 C201,89.8171 201,104.1835 201,115.8436 " fill="none" id="Component-MyScript2" style="stroke: #A80036; stroke-width: 1.0;"/><polygon fill="none" points="194.0001,76.2373,201,56.2373,208.0001,76.2373,194.0001,76.2373" style="stroke: #A80036; stroke-width: 1.0;"/><!--link Component to MyScript3--><path d="M244.956,69.3799 C263.0614,84.7767 283.5156,102.1708 299.5938,115.8436 " fill="none" id="Component-MyScript3" style="stroke: #A80036; stroke-width: 1.0;"/><polygon fill="none" points="240.2024,74.5263,229.5013,56.2373,249.2719,63.8612,240.2024,74.5263" style="stroke: #A80036; stroke-width: 1.0;"/><!--
@startuml Components

class GameObject {
}


class Component {
}

GameObject *-right- Component

class MyScript1 {
}

class MyScript2 {
}

class MyScript3 {
}

MyScript1 -up-|> Component
MyScript2 -up-|> Component
MyScript3 -up-|> Component

@enduml

PlantUML version 1.2017.15(Mon Jul 03 18:45:34 CEST 2017)
(GPL source distribution)
Java Runtime: OpenJDK Runtime Environment
JVM: OpenJDK 64-Bit Server VM
Java Version: 1.8.0_191-8u191-b12-2ubuntu0.18.04.1-b12
Operating System: Linux
OS Version: 4.15.0-46-generic
Default Encoding: UTF-8
Language: en
Country: US
--></g></svg>