<?xml version="1.0" standalone="no"?>
<!DOCTYPE svg PUBLIC "-//W3C//DTD SVG 1.1//EN" "http://www.w3.org/Graphics/SVG/1.1/DTD/svg11.dtd" >
<svg xmlns="http://www.w3.org/2000/svg">
<metadata>
This is a custom SVG webfont generated by Font Squirrel.
Copyright   : Generated in 2009 by FontLab Studio Copyright info pending
</metadata>
<defs>
<font id="webfontY2elItE2" horiz-adv-x="1261" >
<font-face units-per-em="2048" ascent="1536" descent="-512" />
<missing-glyph horiz-adv-x="532" />
<glyph unicode=" "  horiz-adv-x="532" />
<glyph unicode="&#x09;" horiz-adv-x="532" />
<glyph unicode="&#xa0;" horiz-adv-x="532" />
<glyph unicode="!" horiz-adv-x="575" d="M174 100.5q0 49.5 33 81t82 31.5t80.5 -31.5t31.5 -81t-31.5 -82t-80.5 -32.5t-82 32.5t-33 82zM195 1679h188l-27 -1302h-135z" />
<glyph unicode="&#x22;" horiz-adv-x="774" d="M92 1464q0 49 33 81t82 32q61 0 93 -50t32 -118q-2 -147 -152 -332l-86 29q102 127 121 244q-55 0 -89 32.5t-34 81.5zM442 1464q0 49 33 81t82 32q59 0 92 -50t33 -118q-2 -147 -152 -332l-86 29q102 127 121 244q-55 0 -89 32.5t-34 81.5z" />
<glyph unicode="#" horiz-adv-x="1689" d="M82 489l35 148h338l88 362h-348l34 148h351l106 430h152l-107 -430h361l106 430h152l-107 -430h365l-35 -148h-367l-88 -362h377l-35 -148h-379l-118 -489h-152l119 489h-361l-118 -489h-152l119 489h-336zM606 637h361l88 362h-361z" />
<glyph unicode="$" horiz-adv-x="1341" d="M117 281l125 118q131 -213 387 -252v607q-78 25 -129 44t-111.5 54t-95.5 75t-59.5 100t-24.5 136q0 117 42 204t109.5 133t133 68.5t135.5 28.5v125h131v-127q260 -25 411 -186l-127 -111q-106 109 -284 132v-537q109 -35 176.5 -63.5t145 -82t116.5 -132t39 -183.5 q0 -205 -138 -322.5t-339 -129.5v-119h-131v123q-336 39 -512 297zM381 1163q0 -86 64.5 -138t183.5 -91v498q-98 -14 -173 -76t-75 -193zM760 143q129 12 217 87t88 202q0 113 -79 173.5t-226 107.5v-570z" />
<glyph unicode="%" horiz-adv-x="2066" d="M123 1167.5q0 118.5 35 205.5t93 133t122.5 67.5t136.5 21.5q74 0 138.5 -20.5t123.5 -67.5t93 -135t34 -209q-2 -227 -115.5 -326.5t-271.5 -99.5q-72 0 -136.5 21.5t-123.5 67.5t-94 134.5t-35 207zM276 1167q0 -168 70 -241.5t166 -73.5t163.5 72.5t69.5 238.5 q0 170 -68.5 244t-166.5 74q-96 -2 -165 -75t-69 -239zM350 -96l1188 1763h176l-1188 -1763h-176zM1167 416q2 227 115 327.5t272 102.5q74 0 138.5 -21.5t124 -67.5t93.5 -135.5t34 -209.5q-2 -227 -116 -326.5t-272 -99.5q-72 0 -136 21.5t-123.5 67.5t-94.5 134t-35 207z M1323 412q0 -166 68.5 -239t165 -73t164 73t69.5 239q0 168 -67.5 242.5t-163.5 76.5q-96 0 -166 -74.5t-70 -244.5z" />
<glyph unicode="&#x26;" horiz-adv-x="1802" d="M123 410q0 150 95 254t267 200q-104 115 -157.5 203t-53.5 174q0 92 38 159.5t103.5 104.5t138.5 54.5t155 17.5q178 0 302 -80t124 -256q0 -121 -102.5 -210t-295.5 -187l377 -404q31 47 58 102l69 138l55 113l127 -78q-162 -324 -200 -387q182 -180 211 -174q37 0 53 3 t41.5 29.5t50.5 81.5l111 -65q-35 -78 -66 -124t-66.5 -63.5t-57 -21.5t-66.5 -4q-72 -8 -306 207q-184 -211 -491 -211q-59 0 -140 23.5t-168 70.5t-146.5 134t-59.5 196zM295 410q0 -84 68.5 -144.5t142.5 -84t131 -23.5q227 2 377 151l-432 455q-135 -74 -211 -157.5 t-76 -196.5zM446 1241q0 -90 195 -295q100 51 160.5 88t111 93.5t50.5 113.5q0 113 -74 163t-180 50q-109 0 -186 -51t-77 -162z" />
<glyph unicode="'" horiz-adv-x="423" d="M92 1464q0 49 33 81t82 32q61 0 93 -50t32 -118q-2 -147 -152 -332l-86 29q102 127 121 244q-55 0 -89 32.5t-34 81.5z" />
<glyph unicode="(" horiz-adv-x="692" d="M123 520q0 98 13.5 220t49 269.5t89 267.5t143.5 205t200 95l13 -143q-96 -35 -167 -144.5t-104.5 -255t-49 -273.5t-15.5 -241q0 -111 15.5 -238.5t49 -273t104.5 -256t167 -143.5l-13 -144q-113 12 -202.5 98.5t-142 205t-88 264t-49 266.5t-13.5 221z" />
<glyph unicode=")" horiz-adv-x="692" d="M61 -391q96 33 167 143.5t105 256t49 273.5t15 238q0 113 -15 241t-49 273.5t-104.5 255t-167.5 144.5l13 143q111 -10 201 -95t143 -205t89 -267.5t49 -269.5t13 -220q0 -100 -13 -221t-49 -266.5t-88 -264t-142.5 -204.5t-202.5 -99z" />
<glyph unicode="*" horiz-adv-x="1265" d="M100 1161l52 133l413 -166l-4 449h144l-5 -449l414 166l51 -133l-424 -166l295 -327l-118 -101l-285 353l-283 -353l-123 101l295 327z" />
<glyph unicode="+" horiz-adv-x="1331" d="M102 496v137h484v493h137v-493h506v-137h-506v-496h-137v496h-484z" />
<glyph unicode="," horiz-adv-x="413" d="M82 100.5q0 49.5 32.5 81t82.5 31.5q61 0 93 -50t32 -118q-2 -147 -152 -332l-86 29q102 127 121 244q-55 0 -89 32.5t-34 82z" />
<glyph unicode="-" horiz-adv-x="708" d="M113 492v143h483v-143h-483z" />
<glyph unicode="." horiz-adv-x="411" d="M92 100.5q0 49.5 33 81t82 31.5t80.5 -31.5t31.5 -81t-31.5 -82t-80.5 -32.5t-82 32.5t-33 82z" />
<glyph unicode="/" horiz-adv-x="884" d="M41 -532l633 2109h170l-633 -2109h-170z" />
<glyph unicode="0" horiz-adv-x="1253" d="M123 579.5q0 165.5 44 287.5t118.5 187.5t159.5 96.5t181.5 31t181.5 -31t159.5 -96.5t118.5 -187.5t44 -287.5t-44 -287.5t-118.5 -187.5t-159.5 -96.5t-181.5 -31t-181.5 31t-159.5 96.5t-118.5 187.5t-44 287.5zM295 579.5q0 -237.5 96 -344t235.5 -106.5t235.5 106.5 t96 344t-96 344t-235.5 106.5t-235.5 -106.5t-96 -344z" />
<glyph unicode="1" horiz-adv-x="731" d="M102 936l293 221h166v-1157h-166v983l-182 -154z" />
<glyph unicode="2" horiz-adv-x="1126" d="M102 0v131l71 49q44 31 155.5 120t196.5 169t156 176t71 162q0 109 -56.5 161t-152.5 50q-53 0 -104.5 -19.5t-85.5 -46t-59.5 -54.5t-37.5 -46l-12 -18q-104 98 -105 100q43 78 155 162t251 86q180 0 280.5 -92.5t100.5 -270.5q0 -139 -165 -323.5t-376 -345.5h627 l2 -150h-912z" />
<glyph unicode="3" horiz-adv-x="1142" d="M82 -313l108 106q10 -8 28 -20.5t80 -30.5t130 -16q92 0 184.5 43t164 147t71.5 250q0 98 -74 173t-174 75q-41 0 -86 -6.5t-80 -13.5t-62.5 -15t-43.5 -14l-17 -5v144q166 68 262.5 148.5t96.5 197.5q0 74 -52.5 120t-125.5 46q-53 0 -99.5 -14.5t-76 -36t-51 -43 t-32.5 -35.5l-8 -15l-96 95q4 8 13.5 22.5t41 52t69.5 65.5t102.5 51.5t133.5 23.5q145 0 247 -93.5t102 -238.5q0 -158 -183 -293q152 -18 257.5 -126.5t109.5 -264.5q0 -147 -57.5 -268t-148.5 -192t-191.5 -108.5t-196.5 -37.5q-88 0 -175 31.5t-130 64.5z" />
<glyph unicode="4" horiz-adv-x="1286" d="M82 0v90l803 1067h108v-1007h232v-150h-232v-440h-166v440h-745zM307 141l39 9h481v688l-491 -666l-29 -29v-2z" />
<glyph unicode="5" horiz-adv-x="1208" d="M143 -301l107 104q8 -8 24.5 -21t79 -34.5t135.5 -21.5q150 0 281 115.5t131 328.5q0 115 -84 218.5t-203 103.5q-158 0 -270 -76h-166v741h770v-156h-604v-413q119 53 270 53q180 0 317.5 -143.5t145.5 -327.5q0 -147 -57 -268t-146.5 -192.5t-188.5 -110.5t-196 -39 q-104 0 -190 34.5t-121 69.5z" />
<glyph unicode="6" horiz-adv-x="1269" d="M131 727q0 360 170 620.5t424 260.5q188 0 356 -135l-110 -107q-100 84 -240 84q-115 0 -202 -76t-134 -195.5t-71.5 -240.5t-26.5 -236q176 268 414 269q193 0 314.5 -111.5t121.5 -353.5q0 -80 -25.5 -164t-78 -167t-151.5 -136t-230 -53q-254 0 -392.5 191.5 t-138.5 549.5zM319 481q35 -168 123 -256t220 -88q111 0 185.5 66.5t101 145.5t26.5 157q0 164 -74 238.5t-190 74.5q-230 0 -392 -338z" />
<glyph unicode="7" horiz-adv-x="1058" d="M10 -328q86 53 339 497.5t437 823.5h-696v164h907v-121q-195 -410 -478 -918.5t-394 -557.5z" />
<glyph unicode="8" horiz-adv-x="1216" d="M133 350q2 143 97.5 263t224.5 208q-281 223 -281 439q0 92 38 160.5t103.5 106.5t138 55t154.5 17t155 -17t138.5 -55t103 -106.5t37.5 -160.5q0 -143 -98 -255t-221 -186q86 -63 137 -106t109.5 -104.5t86 -125t27.5 -133.5q0 -78 -24.5 -140.5t-59 -100t-87 -65.5 t-93.5 -40t-93 -19.5t-72 -7.5h-42h-4h-36q-13 0 -68 6.5t-95 18.5t-95.5 40t-91.5 65.5t-62.5 101t-26.5 141.5zM307 350q0 -55 19.5 -98t55.5 -66.5t67.5 -39t74.5 -19.5l55 -5q11 -1 29 -1h2q23 0 45.5 1t72.5 13t86 33.5t65.5 69t29.5 112.5q0 86 -86 174t-254 209 q-248 -160 -262 -383zM348 1260q0 -90 67.5 -174.5t188.5 -178.5q53 29 105.5 68t105.5 119t53 166q0 111 -75.5 159.5t-184 48.5t-184.5 -48.5t-76 -159.5z" />
<glyph unicode="9" horiz-adv-x="1269" d="M123 662q0 80 25.5 163.5t78 166.5t151.5 136.5t230 53.5q254 0 392.5 -191.5t138.5 -550.5q0 -109 -20.5 -224.5t-69 -234t-116 -212t-171 -151.5t-225.5 -58q-117 0 -217.5 37.5t-155.5 76.5l112 109q119 -66 259 -66q115 0 202.5 75t136 194.5t72 239.5t27.5 237 q-180 -266 -414 -266q-193 0 -314.5 111.5t-121.5 353.5zM295 662q0 -164 73.5 -239t190.5 -75q227 0 391 336q-35 170 -123 258t-219 88q-111 0 -185.5 -66.5t-101 -145t-26.5 -156.5z" />
<glyph unicode=":" horiz-adv-x="514" d="M143 100.5q0 49.5 33 81t82 31.5t81 -31.5t32 -81t-32 -82t-81 -32.5t-82 32.5t-33 82zM143 850q0 49 33 81t82 32t81 -32t32 -81t-32 -82t-81 -33t-82 33t-33 82z" />
<glyph unicode=";" horiz-adv-x="526" d="M143 100.5q0 49.5 33 81t82 31.5q61 0 93 -50t32 -118q-2 -147 -152 -332l-86 29q102 127 121 244q-55 0 -89 32.5t-34 82zM143 850q0 49 33 81t82 32t81 -32t32 -81t-32 -82t-81 -33t-82 33t-33 82z" />
<glyph unicode="&#x3c;" horiz-adv-x="1433" d="M154 500v147l1136 514v-147l-975 -441l975 -440v-147z" />
<glyph unicode="=" horiz-adv-x="1394" d="M133 344v137h1129v-137h-1129zM133 672v137h1129v-137h-1129z" />
<glyph unicode="&#x3e;" horiz-adv-x="1433" d="M143 -14v147l973 440l-973 441v147l1137 -514v-147z" />
<glyph unicode="?" horiz-adv-x="1032" d="M84 1393q6 12 19.5 31.5t56.5 68.5t91 87t125 68.5t156 30.5q104 0 184.5 -25.5t125.5 -64.5t72.5 -91t35.5 -96t8 -91q0 -78 -24.5 -147.5t-81.5 -139.5t-93 -104l-114 -107q-164 -150 -164 -213q0 -88 94 -172l-104 -90q-53 47 -78.5 76.5t-47 79t-21.5 108.5 q0 90 52 164t161 170q74 68 118.5 116t86.5 119.5t44 139.5q0 225 -254 225q-59 0 -115.5 -25.5t-95 -61.5t-69.5 -72t-45 -62l-14 -25zM399 100.5q0 49.5 33 81t82 31.5t81 -31.5t32 -81t-32 -82t-81 -32.5t-82 32.5t-33 82z" />
<glyph unicode="@" horiz-adv-x="2195" d="M123 535q0 266 141.5 507.5t378 388t502.5 146.5q215 0 395 -76t294 -199.5t176.5 -276.5t62.5 -312q0 -158 -54.5 -283t-133.5 -195.5t-175 -117.5t-170 -62.5t-129 -15.5q-166 0 -127 182q-209 -184 -412 -182q-276 2 -276 383q0 162 56.5 308.5t141.5 243.5t183 154.5 t184 57.5q190 0 297 -164l29 121l160 -37q-209 -928 -209 -938q6 -6 57 4t123 46t139.5 94.5t112.5 164t39 236.5q0 127 -51.5 249.5t-145.5 224t-242.5 164t-324.5 62.5q-221 0 -421 -125t-318.5 -328.5t-118.5 -424.5q0 -330 255 -552.5t603 -222.5q182 0 321.5 48.5 t341.5 216.5l103 -127q-231 -190 -392 -245.5t-374 -55.5q-270 0 -503.5 119.5t-376 337t-142.5 481.5zM760 422q0 -254 112 -260q78 -2 160 39t147.5 105.5t100.5 105.5t61 77l76 345q-55 135 -117.5 182t-138.5 47q-135 0 -268 -188.5t-133 -452.5z" />
<glyph unicode="A" horiz-adv-x="1474" d="M61 0l582 1577h188l582 -1577h-190l-199 537h-575l-197 -537h-191zM506 692h461l-230 627z" />
<glyph unicode="B" horiz-adv-x="1308" d="M174 0v1577h180v-115q117 76 190.5 106.5t164.5 30.5q166 0 284.5 -111.5t118.5 -344.5q-2 -223 -160 -324q129 -59 180.5 -154.5t51.5 -179.5v-10q0 -43 -1 -70.5t-11.5 -85t-29 -97.5t-57 -90t-94 -82t-142.5 -53.5t-198 -21.5q-137 4 -297 117v-92h-180zM354 236 q147 -92 297 -93q78 0 138.5 16.5t97.5 36t63.5 58.5t37.5 61.5t17.5 67.5t6.5 56v46q0 31 -13.5 65t-46 77t-106.5 72.5t-178 33.5q-59 -4 -314 -4v-493zM354 877h112q32 0 102.5 3t102.5 10l85 19q53 12 78.5 32t54.5 47.5t40 67.5t11 91q-2 145 -69.5 215t-161.5 70 q-160 0 -355 -119v-436z" />
<glyph unicode="C" horiz-adv-x="1357" d="M123 752q0 203 59.5 369.5t154.5 267t208.5 154.5t228.5 54q92 0 174 -22.5t134.5 -53t92 -62.5t58.5 -54l16 -23l-125 -120l-11 17q-7 11 -38 40t-66.5 50.5t-99 38.5t-137.5 17q-186 0 -325.5 -174t-139.5 -499q0 -256 131 -430.5t320 -174.5q45 0 89 6.5t81 16.5 t70.5 23.5t61 28t50.5 28.5t40 27.5l29.5 23.5t18.5 16l6 7l111 -107q-61 -76 -117 -115q-176 -127 -436 -127q-274 0 -456.5 222.5t-182.5 554.5z" />
<glyph unicode="D" horiz-adv-x="1503" d="M174 0v1577h180v-174q205 193 465 194q111 0 207 -45t178 -137t129 -256t47 -381q0 -342 -179 -572.5t-443 -230.5q-190 4 -404 142v-117h-180zM354 281q197 -129 404 -129q188 0 315 177t127 449q0 315 -111.5 477t-263.5 166q-281 0 -471 -194v-946z" />
<glyph unicode="E" horiz-adv-x="1150" d="M174 0v1577h651l215 10v-186h-686v-508h584v-156h-584v-561h500l215 10v-186h-895z" />
<glyph unicode="F" horiz-adv-x="1112" d="M174 0v1577h651l215 10v-186h-686v-508h584v-156h-584v-737h-180z" />
<glyph unicode="G" horiz-adv-x="1525" d="M123 764q0 184 48 330.5t122 237.5t173 152.5t194.5 86t191.5 26.5q90 0 173 -24.5t138.5 -60t98.5 -71.5t61 -61l20 -24l-124 -121q-4 8 -14.5 21.5t-43.5 47t-70.5 59.5t-100 47.5t-130.5 23.5q-90 0 -180 -35t-176 -108.5t-140.5 -210t-54.5 -316.5q0 -100 30 -201.5 t90 -196t171 -153.5t254 -61q98 0 217 54t119 113v306h-211q-109 0 -166 30v164q74 -18 172 -18h365v-490q0 -135 -150.5 -233t-337.5 -103q-160 0 -290 51.5t-211.5 132.5t-137 187.5t-78 210t-22.5 207.5z" />
<glyph unicode="H" horiz-adv-x="1519" d="M174 0v1577h180v-684h811v684h181v-1577h-181v737h-811v-737h-180z" />
<glyph unicode="I" horiz-adv-x="528" d="M174 0v1577h180v-1577h-180z" />
<glyph unicode="J" horiz-adv-x="585" d="M-20 -369q109 31 181 113t72 221v1612h181v-1612q0 -94 -26 -173t-63.5 -131t-90 -93t-96.5 -61.5t-93 -36.5z" />
<glyph unicode="K" horiz-adv-x="1265" d="M174 0v1577h180v-711l541 711h227l-590 -737q45 -6 112 -38t106 -77q45 -45 244.5 -365.5t230.5 -355.5v-4h-219q-35 37 -188.5 295t-190.5 297q-82 90 -185 90q-61 0 -88 -6v-676h-180z" />
<glyph unicode="L" horiz-adv-x="1202" d="M174 0v1577h180v-1401h561l215 10v-186h-956z" />
<glyph unicode="M" horiz-adv-x="1742" d="M174 0v1577h180l514 -1352l2 -14l2 14l517 1352h180v-1577h-180v1106l2 31l-9 -31l-424 -1106h-174l-424 1106l-8 31l2 -31v-1106h-180z" />
<glyph unicode="N" horiz-adv-x="1482" d="M174 0v1577h180v-2l762 -1239l14 -29l-2 29v1241h181v-1577h-181v2l-761 1243l-15 29l2 -29v-1245h-180z" />
<glyph unicode="O" horiz-adv-x="1554" d="M123 790.5q0 225.5 55 389t152.5 252t208 127t241.5 38.5q102 -2 192.5 -25.5t176.5 -80.5t146.5 -146.5t98.5 -229.5t38 -320q0 -227 -55.5 -391t-152 -252.5t-207 -127t-241.5 -38.5t-240.5 38.5t-206 126t-151.5 251t-55 389zM303 795q0 -180 40 -310.5t109.5 -200 t149.5 -100t174 -30.5t174 30.5t149.5 99t110.5 198.5t41 309q0 176 -40 305t-109.5 198.5t-148.5 101t-173 34.5q-94 0 -175 -31t-151.5 -100.5t-110.5 -197.5t-40 -306z" />
<glyph unicode="P" horiz-adv-x="1265" d="M174 0v1577h180v-123q190 143 365 143q160 -6 301 -140t143 -355q0 -287 -138 -458t-349 -171q-170 2 -322 107v-580h-180zM354 760q166 -129 330 -131q133 4 220 131t87 342q-2 145 -88 233t-184 95q-98 0 -176 -29t-189 -98v-543z" />
<glyph unicode="Q" horiz-adv-x="1554" d="M123 780q0 182 38 325.5t99.5 235t148.5 150.5t178 82.5t193 23.5q129 -2 239.5 -44t206 -131t151 -253.5t55.5 -388.5q0 -207 -47.5 -362.5t-131.5 -244.5t-181 -135t-214 -58q70 -82 232 -82q53 0 192 32l49 -161q-88 -39 -241 -39q-96 0 -174 25.5t-124.5 68.5t-73 80 t-42.5 78q-244 29 -398.5 218t-154.5 580zM303 784q0 -180 40 -310t109.5 -199.5t149.5 -100.5t174 -31t174 31t149.5 99.5t110.5 198.5t41 308q0 143 -26.5 256t-71.5 184.5t-106.5 120t-127 67.5t-139.5 22q-94 0 -175 -33t-150.5 -103.5t-110.5 -201t-41 -308.5z" />
<glyph unicode="R" horiz-adv-x="1349" d="M174 0v1577h180v-115q111 70 187.5 102.5t169.5 32.5q168 -4 295 -112.5t127 -335.5q0 -152 -54.5 -258.5t-128 -155.5t-170.5 -69q82 -70 271.5 -338.5t267.5 -323.5v-4h-223q-53 39 -134 146.5t-149 211t-150.5 192.5t-148.5 101q-113 0 -160 2v-653h-180zM354 799h303 q121 2 211 82t93 268q0 139 -76 207.5t-174 73.5q-100 0 -176 -27t-181 -88v-516z" />
<glyph unicode="S" horiz-adv-x="1361" d="M117 281l125 118q78 -125 202.5 -189.5t272.5 -68.5q143 0 245.5 76t102.5 215q0 53 -22.5 97t-50 71t-84 53.5t-95.5 40t-108 33.5l-21 6q-94 29 -144.5 46.5t-124 55t-111.5 77.5t-66.5 104.5t-28.5 146.5q0 106 36 187.5t88 127.5t119.5 74.5t122 37.5t105.5 9 q150 0 280 -51t211 -139l-127 -111q-131 137 -364 138q-43 0 -87 -11.5t-95.5 -38t-84 -84t-32.5 -139.5q0 -45 22.5 -82t48 -59.5t85 -48t90 -35.5t106.5 -33q90 -29 146.5 -49t132 -60t119 -86t75 -118t31.5 -160q0 -217 -153.5 -336t-370.5 -119q-397 13 -596 304z" />
<glyph unicode="T" horiz-adv-x="1150" d="M20 1421v156h1110v-156h-468v-1421h-181v1421h-461z" />
<glyph unicode="U" horiz-adv-x="1460" d="M174 489v1088h180v-1083q0 -94 29 -163t70 -106t96 -59.5t97 -27.5t85 -5t84 5t96.5 27.5t95.5 58.5t69.5 104.5t29.5 160.5v1088h180v-1088q0 -133 -43 -232t-102.5 -151.5t-141 -83t-143 -39t-125.5 -8.5q-66 0 -126 8.5t-143 39t-142.5 83t-102.5 151.5t-43 232z" />
<glyph unicode="V" horiz-adv-x="1433" d="M61 1577h191l459 -1296l6 -27l6 27l459 1296h190l-561 -1577h-188z" />
<glyph unicode="W" horiz-adv-x="2019" d="M61 1577h189l328 -1270l4 -24l4 24l327 1270h191l328 -1270l4 -24l4 24l327 1270h191l-447 -1577h-149l-348 1217l-6 36l-7 -36l-344 -1217h-149z" />
<glyph unicode="X" horiz-adv-x="1345" d="M61 0l500 786l-500 791h220l391 -616l393 616h219l-502 -791l502 -786h-221l-391 612l-389 -612h-222z" />
<glyph unicode="Y" horiz-adv-x="1263" d="M20 1577h218l397 -627l399 627h209l-520 -821v-756h-178v756z" />
<glyph unicode="Z" horiz-adv-x="1257" d="M104 0v168l789 1241h-768v168h987v-164l-788 -1245h594q23 -1 44 -1q154 0 193 40v-174q-18 -16 -78.5 -24.5t-111.5 -8.5h-52h-809z" />
<glyph unicode="[" horiz-adv-x="735" d="M174 -532v2109h418v-123h-246v-1864h246v-122h-418z" />
<glyph unicode="\" horiz-adv-x="905" d="M51 1577h170l633 -2109h-170z" />
<glyph unicode="]" horiz-adv-x="735" d="M143 -410h246v1864h-246v123h418v-2109h-418v122z" />
<glyph unicode="^" horiz-adv-x="1339" d="M82 0l514 1126h147l514 -1126h-147l-440 965l-441 -965h-147z" />
<glyph unicode="_" horiz-adv-x="1353" d="M113 0h1128v-131h-1128v131z" />
<glyph unicode="`" horiz-adv-x="729" d="M113 1432l43 145l460 -229l-43 -97z" />
<glyph unicode="a" horiz-adv-x="1155" d="M123 283q0 72 14.5 124t53 103t120.5 87t207 54q213 29 285 47v129q0 51 -32 117t-95 66q-219 0 -344 -107q-18 -20 -16.5 -39.5t16.5 -34.5l-164 -30q-20 26 -20 64q0 24 8 52q20 74 92 115q218 121 445 121h7q100 0 165 -61.5t84.5 -129t19.5 -133.5v-555 q0 -16 4 -40.5t32.5 -73.5t77.5 -80l-110 -103q-119 47 -158 199q-186 -199 -385 -199q-20 0 -49 4.5t-77 22.5t-86 49t-66.5 91.5t-28.5 140.5zM293 283q0 -49 17.5 -85t42 -51.5t42 -21.5t29.5 -6q104 0 204.5 66.5t174.5 158.5v207q-100 -20 -266 -43 q-152 -20 -198 -74.5t-46 -150.5z" />
<glyph unicode="b" horiz-adv-x="1292" d="M174 0v1679h172v-770q189 242 414 242h4q180 -2 292.5 -170t112.5 -399q0 -287 -125.5 -447t-347.5 -160q-156 0 -350 156v-131h-172zM346 319q76 -76 174 -126t176 -50q137 0 219 117t82 322q0 162 -64.5 280.5t-168.5 120.5h-4q-243 0 -414 -266v-398z" />
<glyph unicode="c" horiz-adv-x="1044" d="M113 543q0 295 149 454q144 154 320 154h14q66 -2 125 -21.5t97 -46t67.5 -52t44.5 -44.5l12 -16l-108 -103q-2 4 -8.5 12.5t-27 28t-46 34.5t-68.5 28.5t-92 15.5h-8q-114 0 -205 -113q-94 -117 -94 -331q0 -172 82 -288t215 -116q51 0 81.5 4t83 32t109.5 81l107 -102 q-82 -82 -156 -124t-116 -48.5t-109 -6.5q-209 0 -339 162t-130 406z" />
<glyph unicode="d" horiz-adv-x="1333" d="M123 545q0 287 126 446.5t347 159.5q156 0 350 -156v684h172v-1409q2 -16 7 -39.5t39 -77t87 -79.5l-141 -99q-143 78 -164 242q-189 -242 -414 -242h-4q-180 2 -292.5 170.5t-112.5 399.5zM295 545q0 -162 64.5 -281t168.5 -121h8q243 0 410 267v397q-80 76 -176 126 t-174 50q-137 0 -219 -116.5t-82 -321.5z" />
<glyph unicode="e" horiz-adv-x="1187" d="M113 551q0 242 138 421t347 179q119 0 209 -46t136 -107.5t73.5 -139.5t35 -127t7.5 -84v-76h-774q0 -193 85 -318.5t236 -125.5q115 0 195 49q80 47 153 146l105 -101q-72 -88 -141.5 -144.5t-135 -74.5t-95.5 -22.5t-81 -4.5q-227 0 -360 167t-133 409zM309 723h570 q-10 47 -27.5 89t-48.5 87t-84 72.5t-121 27.5q-100 0 -177 -76.5t-112 -199.5z" />
<glyph unicode="f" horiz-adv-x="825" d="M61 983v143h146v197q0 367 317 367q207 0 363 -129l-111 -107q-119 92 -252 92q-49 0 -79.5 -15t-45 -51t-18.5 -68t-4 -89v-197h332v-143h-332v-983h-170v983h-146z" />
<glyph unicode="g" d="M123 -221q2 125 45 200.5t127 137.5q-96 41 -105 133q0 96 146 213q-170 96 -170 332q0 92 44 165.5t113.5 113.5t142.5 60.5t140 20.5q63 0 137 -18q133 121 310 120q55 0 123 -20l-29 -143q-37 12 -94 12q-88 0 -166 -33q160 -102 160 -278q0 -115 -44.5 -197 t-115 -122t-140 -56.5t-141.5 -16.5q-70 0 -123 11q-121 -86 -121 -164q6 -6 52.5 -9t120.5 -5l73 -3q119 -6 207 -21t179 -49t140.5 -101.5t49.5 -163.5q0 -199 -144.5 -330t-425.5 -131q-199 0 -345 98.5t-146 243.5zM297 -221q0 -82 94 -135.5t223 -53.5q197 0 301.5 87 t104.5 221q0 53 -36 90t-103.5 55t-128 26.5t-146.5 12.5q-119 0 -147 2q-84 -51 -123 -113.5t-39 -191.5zM338 795q0 -80 26.5 -135.5t70.5 -81t85 -34.5t86 -9t87 11t85 37.5t69.5 81t26.5 130.5q0 113 -86 171t-182 58t-182 -58t-86 -171z" />
<glyph unicode="h" horiz-adv-x="1241" d="M174 0v1679h172v-790q270 262 492 262q260 0 260 -350v-801h-172v801q0 178 -88 178q-233 0 -492 -268v-711h-172z" />
<glyph unicode="i" horiz-adv-x="555" d="M174 1475q0 45 29.5 73.5t75 28.5t74 -28.5t28.5 -73.5t-28.5 -75t-74 -30t-75 30t-29.5 75zM193 0v1126h169v-1126h-169z" />
<glyph unicode="j" horiz-adv-x="452" d="M-72 -401q61 8 111.5 101t50.5 212v1214h170v-1214q0 -178 -87 -308t-193 -167zM72 1475q0 45 29.5 73.5t74.5 28.5t74 -28.5t29 -73.5t-29 -75t-74 -30t-74.5 30t-29.5 75z" />
<glyph unicode="k" horiz-adv-x="1157" d="M174 0v1679h172v-950q383 268 449 397h174q-35 -133 -467 -458q66 -27 114 -80l338 -381q190 -207 213 -207h-231q-25 8 -102.5 91l-192.5 217l-147 169q-61 63 -99 74q-20 6 -49 -2v-549h-172z" />
<glyph unicode="l" horiz-adv-x="573" d="M174 299v1380h170v-1380q0 -111 23 -133q45 -45 135 -45l-6 -146q-180 0 -250 70q-72 72 -72 254z" />
<glyph unicode="m" horiz-adv-x="1882" d="M174 0v1126h172v-223q225 248 426 248q221 0 254 -254q227 254 432 254q260 0 260 -350v-801h-172v801q0 178 -88 178q-74 0 -140.5 -24.5t-123.5 -74t-87 -80t-75 -85.5v-715h-172v801q0 178 -88 178q-74 0 -140.5 -24.5t-123.5 -74t-87 -80t-75 -85.5v-715h-172z" />
<glyph unicode="n" d="M174 0v1126h172v-237q270 262 492 262q260 0 260 -350v-801h-172v801q0 178 -88 178q-227 0 -492 -268v-711h-172z" />
<glyph unicode="o" horiz-adv-x="1224" d="M123 563q0 166 41 285t112.5 182.5t154.5 92t181.5 28.5t181.5 -28.5t154.5 -92t112.5 -182.5t41 -285t-41 -284.5t-112.5 -182t-154.5 -92.5t-181.5 -29t-181.5 29t-154.5 92.5t-112.5 182t-41 284.5zM295 563.5q0 -237.5 91 -341t226.5 -103.5t226.5 103.5t91 341 t-91 341t-226.5 103.5t-226.5 -103.5t-91 -341z" />
<glyph unicode="p" horiz-adv-x="1292" d="M174 -532v1658h172v-217q189 242 414 242h4q180 -2 292.5 -170t112.5 -399q0 -287 -125.5 -447t-347.5 -160q-156 0 -350 156v-663h-172zM346 319q76 -76 174 -126t176 -50q137 0 219 117t82 322q0 162 -64.5 280.5t-168.5 120.5h-4q-243 0 -414 -266v-398z" />
<glyph unicode="q" horiz-adv-x="1292" d="M123 545q0 287 126 446.5t347 159.5q156 0 350 -156v131h172v-1658h-172v747q-193 -240 -414 -240h-4q-180 2 -292.5 170.5t-112.5 399.5zM295 545q0 -162 64.5 -281t168.5 -121h8q243 0 410 267v397q-80 76 -176 126t-174 50q-137 0 -219 -116.5t-82 -321.5z" />
<glyph unicode="r" horiz-adv-x="940" d="M174 0v1126h172v-217q141 242 285 242q78 0 146.5 -28.5t96.5 -57.5l29 -27l-119 -114q-49 63 -145 63q-158 0 -293 -282v-705h-172z" />
<glyph unicode="s" horiz-adv-x="1026" d="M92 205l119 96q45 -82 135 -131t191 -51q92 0 157.5 49t65.5 141q0 55 -43 96t-87 58.5t-124 42t-129 44t-106.5 56.5t-85 92.5t-27.5 130.5q0 78 26.5 138.5t65.5 94.5t90 55.5t91 27.5t79 6q223 0 354 -131l-110 -107q-88 94 -244 95q-39 0 -77 -11.5t-74.5 -54.5 t-36.5 -113q0 -35 17 -60.5t57 -46t70 -31.5t89 -29q74 -23 110.5 -35.5t95 -43t87.5 -62.5t52.5 -87t23.5 -125q0 -162 -115 -248t-277 -86q-131 0 -250.5 59.5t-189.5 170.5z" />
<glyph unicode="t" horiz-adv-x="819" d="M92 983v143h144v308h172v-308h270v-143h-270v-655q0 -41 2 -66.5t11 -64.5t32.5 -58.5t60.5 -19.5q96 0 178 78l96 -93q-135 -129 -319 -129q-233 0 -233 353v655h-144z" />
<glyph unicode="u" d="M164 326v800h172v-800q0 -178 88 -179q233 0 491 269v710h172v-1126h-172v236q-272 -260 -491 -261q-260 1 -260 351z" />
<glyph unicode="v" horiz-adv-x="1144" d="M72 1126h198l293 -870l6 -39l4 19q2 18 2 20q246 813 312 870h186q-35 -43 -140.5 -324.5t-193.5 -541.5l-88 -260h-149z" />
<glyph unicode="w" horiz-adv-x="1632" d="M72 1126h186l223 -839l6 -43l7 43l239 839h148l239 -839l8 -43l7 43q217 817 258 839h168q-25 -25 -114 -306t-165 -550l-78 -270h-145l-252 868l-248 -868h-162z" />
<glyph unicode="x" horiz-adv-x="1216" d="M82 0q29 12 187.5 226t250.5 349l-397 551h217l278 -407q266 395 304 407h213q-49 -23 -420 -548l409 -578h-217l-291 434q-295 -426 -321 -434h-213z" />
<glyph unicode="y" horiz-adv-x="1126" d="M59 -414q137 8 217 88q39 39 74 98.5t90 192.5l56 137l-394 1024h183l305 -790q307 754 352 790h195q-45 -43 -130 -232t-405 -974l-55 -131q-20 -47 -62.5 -113.5t-91.5 -113.5q-119 -115 -291 -125z" />
<glyph unicode="z" horiz-adv-x="1060" d="M102 0v145l635 838h-635v143h842v-143l-635 -838h525q113 0 145 35v-145q-12 -14 -49 -22.5t-68 -10.5l-31 -2h-729z" />
<glyph unicode="{" horiz-adv-x="962" d="M164 526v103q88 0 137 38t55 74l4 37v611q0 47 9.5 94t31 99t68.5 85t113 33q59 0 118.5 -16.5t90.5 -32.5l28 -19l-57 -143q-57 39 -180 39q-49 0 -50 -139v-613q0 -6 -1 -16t-9 -35t-20.5 -48.5t-39 -51t-61.5 -47.5q37 -20 64 -48t39 -50.5t19 -48t8 -36t1 -16.5v-612 q0 -139 50 -140q55 0 100 10.5t63 18.5l17 10l57 -143q-102 -68 -237 -68q-66 0 -113 33t-68.5 85t-31 99t-9.5 95v610q0 6 -1 16t-12 36t-29.5 45.5t-58.5 35.5t-95 16z" />
<glyph unicode="|" horiz-adv-x="503" d="M174 -532v2232h156v-2232h-156z" />
<glyph unicode="}" horiz-adv-x="962" d="M143 -477l58 143q57 -39 180 -39q49 0 49 140v610q0 14 4 37.5t36 77t89 86.5q-57 33 -89 83t-36 74.5t-4 40.5v613q0 139 -49 139q-55 0 -100 -10.5t-64 -18.5l-16 -10l-58 143q102 68 238 68q66 0 113 -33t68.5 -85t30.5 -99t9 -94v-611q0 -6 1 -16t11.5 -36t29 -45 t59 -35.5t96.5 -16.5v-103q-53 0 -93 -14t-58.5 -33.5t-30 -44t-13.5 -36t-2 -19.5v-612q0 -47 -9 -94.5t-30.5 -99.5t-69 -85t-112.5 -33q-59 0 -118.5 16.5t-90.5 32.5z" />
<glyph unicode="~" horiz-adv-x="1349" d="M123 709q10 8 31.5 20t99.5 32.5t168 20.5q82 0 256 -63q176 -61 262 -62q72 0 130 11.5t81 23.5l23 13l53 -103q-106 -68 -287 -67q-94 0 -295 69q-154 55 -223 55q-78 0 -137.5 -12t-79.5 -24l-21 -13z" />
<glyph unicode="&#xaa;" horiz-adv-x="1155" d="M123 283q0 72 14.5 124t53 103t120.5 87t207 54q213 29 285 47v129q0 51 -32 117t-95 66q-219 0 -344 -107q-18 -20 -16.5 -39.5t16.5 -34.5l-164 -30q-20 26 -20 64q0 24 8 52q20 74 92 115q218 121 445 121h7q100 0 165 -61.5t84.5 -129t19.5 -133.5v-555 q0 -16 4 -40.5t32.5 -73.5t77.5 -80l-110 -103q-119 47 -158 199q-186 -199 -385 -199q-20 0 -49 4.5t-77 22.5t-86 49t-66.5 91.5t-28.5 140.5zM293 283q0 -49 17.5 -85t42 -51.5t42 -21.5t29.5 -6q104 0 204.5 66.5t174.5 158.5v207q-100 -20 -266 -43 q-152 -20 -198 -74.5t-46 -150.5z" />
<glyph unicode="&#xad;" horiz-adv-x="708" d="M113 492v143h483v-143h-483z" />
<glyph unicode="&#xb2;" horiz-adv-x="1126" d="M102 0v131l71 49q44 31 155.5 120t196.5 169t156 176t71 162q0 109 -56.5 161t-152.5 50q-53 0 -104.5 -19.5t-85.5 -46t-59.5 -54.5t-37.5 -46l-12 -18q-104 98 -105 100q43 78 155 162t251 86q180 0 280.5 -92.5t100.5 -270.5q0 -139 -165 -323.5t-376 -345.5h627 l2 -150h-912z" />
<glyph unicode="&#xb3;" horiz-adv-x="1142" d="M82 -313l108 106q10 -8 28 -20.5t80 -30.5t130 -16q92 0 184.5 43t164 147t71.5 250q0 98 -74 173t-174 75q-41 0 -86 -6.5t-80 -13.5t-62.5 -15t-43.5 -14l-17 -5v144q166 68 262.5 148.5t96.5 197.5q0 74 -52.5 120t-125.5 46q-53 0 -99.5 -14.5t-76 -36t-51 -43 t-32.5 -35.5l-8 -15l-96 95q4 8 13.5 22.5t41 52t69.5 65.5t102.5 51.5t133.5 23.5q145 0 247 -93.5t102 -238.5q0 -158 -183 -293q152 -18 257.5 -126.5t109.5 -264.5q0 -147 -57.5 -268t-148.5 -192t-191.5 -108.5t-196.5 -37.5q-88 0 -175 31.5t-130 64.5z" />
<glyph unicode="&#xb9;" horiz-adv-x="731" d="M102 936l293 221h166v-1157h-166v983l-182 -154z" />
<glyph unicode="&#xba;" horiz-adv-x="1224" d="M123 563q0 166 41 285t112.5 182.5t154.5 92t181.5 28.5t181.5 -28.5t154.5 -92t112.5 -182.5t41 -285t-41 -284.5t-112.5 -182t-154.5 -92.5t-181.5 -29t-181.5 29t-154.5 92.5t-112.5 182t-41 284.5zM295 563.5q0 -237.5 91 -341t226.5 -103.5t226.5 103.5t91 341 t-91 341t-226.5 103.5t-226.5 -103.5t-91 -341z" />
<glyph unicode="&#xc0;" horiz-adv-x="1474" d="M277 1901l43 145l460 -229l-43 -97zM61 0l582 1577h188l582 -1577h-190l-199 537h-575l-197 -537h-191zM506 692h461l-230 627z" />
<glyph unicode="&#xc2;" horiz-adv-x="1474" d="M150 1720l514 1126h147l514 -1126h-147l-440 965l-441 -965h-147zM61 0l582 1577h188l582 -1577h-190l-199 537h-575l-197 -537h-191zM506 692h461l-230 627z" />
<glyph unicode="&#xc3;" horiz-adv-x="1474" d="M184 1895q10 8 31.5 20t99.5 32.5t168 20.5q82 0 256 -63q176 -61 262 -62q72 0 130 11.5t81 23.5l23 13l53 -103q-106 -68 -287 -67q-94 0 -295 69q-154 55 -223 55q-78 0 -137.5 -12t-79.5 -24l-21 -13zM61 0l582 1577h188l582 -1577h-190l-199 537h-575l-197 -537 h-191zM506 692h461l-230 627z" />
<glyph unicode="&#xc8;" horiz-adv-x="1150" d="M580 1901l43 145l460 -229l-43 -97zM174 0v1577h651l215 10v-186h-686v-508h584v-156h-584v-561h500l215 10v-186h-895z" />
<glyph unicode="&#xca;" horiz-adv-x="1150" d="M453 1720l514 1126h147l514 -1126h-147l-440 965l-441 -965h-147zM174 0v1577h651l215 10v-186h-686v-508h584v-156h-584v-561h500l215 10v-186h-895z" />
<glyph unicode="&#xcc;" horiz-adv-x="528" d="M-196 1901l43 145l460 -229l-43 -97zM174 0v1577h180v-1577h-180z" />
<glyph unicode="&#xce;" horiz-adv-x="528" d="M-324 1720l514 1126h147l514 -1126h-147l-440 965l-441 -965h-147zM174 0v1577h180v-1577h-180z" />
<glyph unicode="&#xd1;" horiz-adv-x="1482" d="M189 1895q10 8 31.5 20t99.5 32.5t168 20.5q82 0 256 -63q176 -61 262 -62q72 0 130 11.5t81 23.5l23 13l53 -103q-106 -68 -287 -67q-94 0 -295 69q-154 55 -223 55q-78 0 -137.5 -12t-79.5 -24l-21 -13zM174 0v1577h180v-2l762 -1239l14 -29l-2 29v1241h181v-1577h-181 v2l-761 1243l-15 29l2 -29v-1245h-180z" />
<glyph unicode="&#xd2;" horiz-adv-x="1554" d="M320 1901l43 145l460 -229l-43 -97zM123 790.5q0 225.5 55 389t152.5 252t208 127t241.5 38.5q102 -2 192.5 -25.5t176.5 -80.5t146.5 -146.5t98.5 -229.5t38 -320q0 -227 -55.5 -391t-152 -252.5t-207 -127t-241.5 -38.5t-240.5 38.5t-206 126t-151.5 251t-55 389z M303 795q0 -180 40 -310.5t109.5 -200t149.5 -100t174 -30.5t174 30.5t149.5 99t110.5 198.5t41 309q0 176 -40 305t-109.5 198.5t-148.5 101t-173 34.5q-94 0 -175 -31t-151.5 -100.5t-110.5 -197.5t-40 -306z" />
<glyph unicode="&#xd4;" horiz-adv-x="1554" d="M193 1720l514 1126h147l514 -1126h-147l-440 965l-441 -965h-147zM123 790.5q0 225.5 55 389t152.5 252t208 127t241.5 38.5q102 -2 192.5 -25.5t176.5 -80.5t146.5 -146.5t98.5 -229.5t38 -320q0 -227 -55.5 -391t-152 -252.5t-207 -127t-241.5 -38.5t-240.5 38.5 t-206 126t-151.5 251t-55 389zM303 795q0 -180 40 -310.5t109.5 -200t149.5 -100t174 -30.5t174 30.5t149.5 99t110.5 198.5t41 309q0 176 -40 305t-109.5 198.5t-148.5 101t-173 34.5q-94 0 -175 -31t-151.5 -100.5t-110.5 -197.5t-40 -306z" />
<glyph unicode="&#xd5;" horiz-adv-x="1554" d="M229 1895q10 8 31.5 20t99.5 32.5t168 20.5q82 0 256 -63q176 -61 262 -62q72 0 130 11.5t81 23.5l23 13l53 -103q-106 -68 -287 -67q-94 0 -295 69q-154 55 -223 55q-78 0 -137.5 -12t-79.5 -24l-21 -13zM123 790.5q0 225.5 55 389t152.5 252t208 127t241.5 38.5 q102 -2 192.5 -25.5t176.5 -80.5t146.5 -146.5t98.5 -229.5t38 -320q0 -227 -55.5 -391t-152 -252.5t-207 -127t-241.5 -38.5t-240.5 38.5t-206 126t-151.5 251t-55 389zM303 795q0 -180 40 -310.5t109.5 -200t149.5 -100t174 -30.5t174 30.5t149.5 99t110.5 198.5t41 309 q0 176 -40 305t-109.5 198.5t-148.5 101t-173 34.5q-94 0 -175 -31t-151.5 -100.5t-110.5 -197.5t-40 -306z" />
<glyph unicode="&#xd9;" horiz-adv-x="1460" d="M269 1901l43 145l460 -229l-43 -97zM174 489v1088h180v-1083q0 -94 29 -163t70 -106t96 -59.5t97 -27.5t85 -5t84 5t96.5 27.5t95.5 58.5t69.5 104.5t29.5 160.5v1088h180v-1088q0 -133 -43 -232t-102.5 -151.5t-141 -83t-143 -39t-125.5 -8.5q-66 0 -126 8.5t-143 39 t-142.5 83t-102.5 151.5t-43 232z" />
<glyph unicode="&#xdb;" horiz-adv-x="1460" d="M143 1720l514 1126h147l514 -1126h-147l-440 965l-441 -965h-147zM174 489v1088h180v-1083q0 -94 29 -163t70 -106t96 -59.5t97 -27.5t85 -5t84 5t96.5 27.5t95.5 58.5t69.5 104.5t29.5 160.5v1088h180v-1088q0 -133 -43 -232t-102.5 -151.5t-141 -83t-143 -39 t-125.5 -8.5q-66 0 -126 8.5t-143 39t-142.5 83t-102.5 151.5t-43 232z" />
<glyph unicode="&#xe0;" horiz-adv-x="1155" d="M236 1455l43 145l460 -229l-43 -97zM123 283q0 72 14.5 124t53 103t120.5 87t207 54q213 29 285 47v129q0 51 -32 117t-95 66q-219 0 -344 -107q-18 -20 -16.5 -39.5t16.5 -34.5l-164 -30q-20 26 -20 64q0 24 8 52q20 74 92 115q218 121 445 121h7q100 0 165 -61.5 t84.5 -129t19.5 -133.5v-555q0 -16 4 -40.5t32.5 -73.5t77.5 -80l-110 -103q-119 47 -158 199q-186 -199 -385 -199q-20 0 -49 4.5t-77 22.5t-86 49t-66.5 91.5t-28.5 140.5zM293 283q0 -49 17.5 -85t42 -51.5t42 -21.5t29.5 -6q104 0 204.5 66.5t174.5 158.5v207 q-100 -20 -266 -43q-152 -20 -198 -74.5t-46 -150.5z" />
<glyph unicode="&#xe2;" horiz-adv-x="1155" d="M109 1274l514 1126h147l514 -1126h-147l-440 965l-441 -965h-147zM123 283q0 72 14.5 124t53 103t120.5 87t207 54q213 29 285 47v129q0 51 -32 117t-95 66q-219 0 -344 -107q-18 -20 -16.5 -39.5t16.5 -34.5l-164 -30q-20 26 -20 64q0 24 8 52q20 74 92 115 q218 121 445 121h7q100 0 165 -61.5t84.5 -129t19.5 -133.5v-555q0 -16 4 -40.5t32.5 -73.5t77.5 -80l-110 -103q-119 47 -158 199q-186 -199 -385 -199q-20 0 -49 4.5t-77 22.5t-86 49t-66.5 91.5t-28.5 140.5zM293 283q0 -49 17.5 -85t42 -51.5t42 -21.5t29.5 -6 q104 0 204.5 66.5t174.5 158.5v207q-100 -20 -266 -43q-152 -20 -198 -74.5t-46 -150.5z" />
<glyph unicode="&#xe3;" horiz-adv-x="1155" d="M146 1448q10 8 31.5 20t99.5 32.5t168 20.5q82 0 256 -63q176 -61 262 -62q72 0 130 11.5t81 23.5l23 13l53 -103q-106 -68 -287 -67q-94 0 -295 69q-154 55 -223 55q-78 0 -137.5 -12t-79.5 -24l-21 -13zM123 283q0 72 14.5 124t53 103t120.5 87t207 54q213 29 285 47 v129q0 51 -32 117t-95 66q-219 0 -344 -107q-18 -20 -16.5 -39.5t16.5 -34.5l-164 -30q-20 26 -20 64q0 24 8 52q20 74 92 115q218 121 445 121h7q100 0 165 -61.5t84.5 -129t19.5 -133.5v-555q0 -16 4 -40.5t32.5 -73.5t77.5 -80l-110 -103q-119 47 -158 199 q-186 -199 -385 -199q-20 0 -49 4.5t-77 22.5t-86 49t-66.5 91.5t-28.5 140.5zM293 283q0 -49 17.5 -85t42 -51.5t42 -21.5t29.5 -6q104 0 204.5 66.5t174.5 158.5v207q-100 -20 -266 -43q-152 -20 -198 -74.5t-46 -150.5z" />
<glyph unicode="&#xe8;" horiz-adv-x="1187" d="M138 1455l43 145l460 -229l-43 -97zM113 551q0 242 138 421t347 179q119 0 209 -46t136 -107.5t73.5 -139.5t35 -127t7.5 -84v-76h-774q0 -193 85 -318.5t236 -125.5q115 0 195 49q80 47 153 146l105 -101q-72 -88 -141.5 -144.5t-135 -74.5t-95.5 -22.5t-81 -4.5 q-227 0 -360 167t-133 409zM309 723h570q-10 47 -27.5 89t-48.5 87t-84 72.5t-121 27.5q-100 0 -177 -76.5t-112 -199.5z" />
<glyph unicode="&#xea;" horiz-adv-x="1187" d="M10 1274l514 1126h147l514 -1126h-147l-440 965l-441 -965h-147zM113 551q0 242 138 421t347 179q119 0 209 -46t136 -107.5t73.5 -139.5t35 -127t7.5 -84v-76h-774q0 -193 85 -318.5t236 -125.5q115 0 195 49q80 47 153 146l105 -101q-72 -88 -141.5 -144.5t-135 -74.5 t-95.5 -22.5t-81 -4.5q-227 0 -360 167t-133 409zM309 723h570q-10 47 -27.5 89t-48.5 87t-84 72.5t-121 27.5q-100 0 -177 -76.5t-112 -199.5z" />
<glyph unicode="&#xec;" horiz-adv-x="555" d="M-182 1881l43 145l460 -229l-43 -97zM174 1475q0 45 29.5 73.5t75 28.5t74 -28.5t28.5 -73.5t-28.5 -75t-74 -30t-75 30t-29.5 75zM193 0v1126h169v-1126h-169z" />
<glyph unicode="&#xee;" horiz-adv-x="555" d="M-309 1700l514 1126h147l514 -1126h-147l-440 965l-441 -965h-147zM174 1475q0 45 29.5 73.5t75 28.5t74 -28.5t28.5 -73.5t-28.5 -75t-74 -30t-75 30t-29.5 75zM193 0v1126h169v-1126h-169z" />
<glyph unicode="&#xf1;" d="M84 1448q10 8 31.5 20t99.5 32.5t168 20.5q82 0 256 -63q176 -61 262 -62q72 0 130 11.5t81 23.5l23 13l53 -103q-106 -68 -287 -67q-94 0 -295 69q-154 55 -223 55q-78 0 -137.5 -12t-79.5 -24l-21 -13zM174 0v1126h172v-237q270 262 492 262q260 0 260 -350v-801h-172 v801q0 178 -88 178q-227 0 -492 -268v-711h-172z" />
<glyph unicode="&#xf2;" horiz-adv-x="1224" d="M152 1455l43 145l460 -229l-43 -97zM123 563q0 166 41 285t112.5 182.5t154.5 92t181.5 28.5t181.5 -28.5t154.5 -92t112.5 -182.5t41 -285t-41 -284.5t-112.5 -182t-154.5 -92.5t-181.5 -29t-181.5 29t-154.5 92.5t-112.5 182t-41 284.5zM295 563.5q0 -237.5 91 -341 t226.5 -103.5t226.5 103.5t91 341t-91 341t-226.5 103.5t-226.5 -103.5t-91 -341z" />
<glyph unicode="&#xf4;" horiz-adv-x="1224" d="M25 1274l514 1126h147l514 -1126h-147l-440 965l-441 -965h-147zM123 563q0 166 41 285t112.5 182.5t154.5 92t181.5 28.5t181.5 -28.5t154.5 -92t112.5 -182.5t41 -285t-41 -284.5t-112.5 -182t-154.5 -92.5t-181.5 -29t-181.5 29t-154.5 92.5t-112.5 182t-41 284.5z M295 563.5q0 -237.5 91 -341t226.5 -103.5t226.5 103.5t91 341t-91 341t-226.5 103.5t-226.5 -103.5t-91 -341z" />
<glyph unicode="&#xf5;" horiz-adv-x="1224" d="M62 1448q10 8 31.5 20t99.5 32.5t168 20.5q82 0 256 -63q176 -61 262 -62q72 0 130 11.5t81 23.5l23 13l53 -103q-106 -68 -287 -67q-94 0 -295 69q-154 55 -223 55q-78 0 -137.5 -12t-79.5 -24l-21 -13zM123 563q0 166 41 285t112.5 182.5t154.5 92t181.5 28.5 t181.5 -28.5t154.5 -92t112.5 -182.5t41 -285t-41 -284.5t-112.5 -182t-154.5 -92.5t-181.5 -29t-181.5 29t-154.5 92.5t-112.5 182t-41 284.5zM295 563.5q0 -237.5 91 -341t226.5 -103.5t226.5 103.5t91 341t-91 341t-226.5 103.5t-226.5 -103.5t-91 -341z" />
<glyph unicode="&#xf9;" d="M166 1455l43 145l460 -229l-43 -97zM164 326v800h172v-800q0 -178 88 -179q233 0 491 269v710h172v-1126h-172v236q-272 -260 -491 -261q-260 1 -260 351z" />
<glyph unicode="&#xfb;" d="M37 1274l514 1126h147l514 -1126h-147l-440 965l-441 -965h-147zM164 326v800h172v-800q0 -178 88 -179q233 0 491 269v710h172v-1126h-172v236q-272 -260 -491 -261q-260 1 -260 351z" />
<glyph unicode="&#x152;" horiz-adv-x="2705" d="M1728 0v1577h651l215 10v-186h-686v-508h584v-156h-584v-561h500l215 10v-186h-895zM123 790.5q0 225.5 55 389t152.5 252t208 127t241.5 38.5q102 -2 192.5 -25.5t176.5 -80.5t146.5 -146.5t98.5 -229.5t38 -320q0 -227 -55.5 -391t-152 -252.5t-207 -127t-241.5 -38.5 t-240.5 38.5t-206 126t-151.5 251t-55 389zM303 795q0 -180 40 -310.5t109.5 -200t149.5 -100t174 -30.5t174 30.5t149.5 99t110.5 198.5t41 309q0 176 -40 305t-109.5 198.5t-148.5 101t-173 34.5q-94 0 -175 -31t-151.5 -100.5t-110.5 -197.5t-40 -306z" />
<glyph unicode="&#x153;" horiz-adv-x="2412" d="M1338 551q0 242 138 421t347 179q119 0 209 -46t136 -107.5t73.5 -139.5t35 -127t7.5 -84v-76h-774q0 -193 85 -318.5t236 -125.5q115 0 195 49q80 47 153 146l105 -101q-72 -88 -141.5 -144.5t-135 -74.5t-95.5 -22.5t-81 -4.5q-227 0 -360 167t-133 409zM1534 723h570 q-10 47 -27.5 89t-48.5 87t-84 72.5t-121 27.5q-100 0 -177 -76.5t-112 -199.5zM123 563q0 166 41 285t112.5 182.5t154.5 92t181.5 28.5t181.5 -28.5t154.5 -92t112.5 -182.5t41 -285t-41 -284.5t-112.5 -182t-154.5 -92.5t-181.5 -29t-181.5 29t-154.5 92.5t-112.5 182 t-41 284.5zM295 563.5q0 -237.5 91 -341t226.5 -103.5t226.5 103.5t91 341t-91 341t-226.5 103.5t-226.5 -103.5t-91 -341z" />
<glyph unicode="&#x2c6;" horiz-adv-x="1339" d="M82 0l514 1126h147l514 -1126h-147l-440 965l-441 -965h-147z" />
<glyph unicode="&#x2dc;" horiz-adv-x="532" d="M-553 297q10 8 31.5 20t99.5 32.5t168 20.5q82 0 256 -63q176 -61 262 -62q72 0 130 11.5t81 23.5l23 13l53 -103q-106 -68 -287 -67q-94 0 -295 69q-154 55 -223 55q-78 0 -137.5 -12t-79.5 -24l-21 -13z" />
<glyph unicode="&#x2000;" horiz-adv-x="1423" />
<glyph unicode="&#x2001;" horiz-adv-x="2846" />
<glyph unicode="&#x2002;" horiz-adv-x="1423" />
<glyph unicode="&#x2003;" horiz-adv-x="2846" />
<glyph unicode="&#x2004;" horiz-adv-x="948" />
<glyph unicode="&#x2005;" horiz-adv-x="710" />
<glyph unicode="&#x2006;" horiz-adv-x="473" />
<glyph unicode="&#x2007;" horiz-adv-x="473" />
<glyph unicode="&#x2008;" horiz-adv-x="354" />
<glyph unicode="&#x2009;" horiz-adv-x="569" />
<glyph unicode="&#x200a;" horiz-adv-x="157" />
<glyph unicode="&#x2010;" horiz-adv-x="708" d="M113 492v143h483v-143h-483z" />
<glyph unicode="&#x2011;" horiz-adv-x="708" d="M113 492v143h483v-143h-483z" />
<glyph unicode="&#x2012;" horiz-adv-x="708" d="M113 492v143h483v-143h-483z" />
<glyph unicode="&#x2013;" horiz-adv-x="1312" d="M61 498v133h1129v-133h-1129z" />
<glyph unicode="&#x2014;" horiz-adv-x="1558" d="M82 498v133h1395v-133h-1395z" />
<glyph unicode="&#x2018;" horiz-adv-x="729" d="M113 1432l43 145l460 -229l-43 -97z" />
<glyph unicode="&#x2019;" horiz-adv-x="423" d="M92 1464q0 49 33 81t82 32q61 0 93 -50t32 -118q-2 -147 -152 -332l-86 29q102 127 121 244q-55 0 -89 32.5t-34 81.5z" />
<glyph unicode="&#x201c;" horiz-adv-x="774" d="M92 1245q2 147 152 332l86 -29q-102 -127 -123 -243q55 0 90 -33t35 -82t-33 -81t-82 -32q-61 0 -93 50t-32 118zM442 1245q2 147 152 332l86 -29q-102 -127 -123 -243q55 0 90 -33t35 -82t-33 -81t-82 -32q-61 0 -93 50t-32 118z" />
<glyph unicode="&#x201d;" horiz-adv-x="774" d="M92 1464q0 49 33 81t82 32q61 0 93 -50t32 -118q-2 -147 -152 -332l-86 29q102 127 121 244q-55 0 -89 32.5t-34 81.5zM442 1464q0 49 33 81t82 32q59 0 92 -50t33 -118q-2 -147 -152 -332l-86 29q102 127 121 244q-55 0 -89 32.5t-34 81.5z" />
<glyph unicode="&#x2026;" horiz-adv-x="1234" d="M915 100.5q0 49.5 33 81t82 31.5t80.5 -31.5t31.5 -81t-31.5 -82t-80.5 -32.5t-82 32.5t-33 82zM504 100.5q0 49.5 33 81t82 31.5t80.5 -31.5t31.5 -81t-31.5 -82t-80.5 -32.5t-82 32.5t-33 82zM92 100.5q0 49.5 33 81t82 31.5t80.5 -31.5t31.5 -81t-31.5 -82 t-80.5 -32.5t-82 32.5t-33 82z" />
<glyph unicode="&#x202f;" horiz-adv-x="569" />
<glyph unicode="&#x2039;" horiz-adv-x="1433" d="M154 500v147l1136 514v-147l-975 -441l975 -440v-147z" />
<glyph unicode="&#x203a;" horiz-adv-x="1433" d="M143 -14v147l973 440l-973 441v147l1137 -514v-147z" />
<glyph unicode="&#x205f;" horiz-adv-x="710" />
<glyph unicode="&#x2122;" horiz-adv-x="2893" d="M1325 0v1577h180l514 -1352l2 -14l2 14l517 1352h180v-1577h-180v1106l2 31l-9 -31l-424 -1106h-174l-424 1106l-8 31l2 -31v-1106h-180zM20 1421v156h1110v-156h-468v-1421h-181v1421h-461z" />
<glyph unicode="&#xe000;" horiz-adv-x="1125" d="M0 1125h1125v-1125h-1125v1125z" />
<glyph unicode="&#xfb01;" horiz-adv-x="1380" d="M999 1475q0 45 29.5 73.5t75 28.5t74 -28.5t28.5 -73.5t-28.5 -75t-74 -30t-75 30t-29.5 75zM1018 0v1126h169v-1126h-169zM61 983v143h146v197q0 367 317 367q207 0 363 -129l-111 -107q-119 92 -252 92q-49 0 -79.5 -15t-45 -51t-18.5 -68t-4 -89v-197h332v-143h-332 v-983h-170v983h-146z" />
<glyph unicode="&#xfb02;" horiz-adv-x="1398" d="M999 299v1380h170v-1380q0 -111 23 -133q45 -45 135 -45l-6 -146q-180 0 -250 70q-72 72 -72 254zM61 983v143h146v197q0 367 317 367q207 0 363 -129l-111 -107q-119 92 -252 92q-49 0 -79.5 -15t-45 -51t-18.5 -68t-4 -89v-197h332v-143h-332v-983h-170v983h-146z" />
<glyph unicode="&#xfb03;" horiz-adv-x="2205" d="M1825 1475q0 45 29.5 73.5t75 28.5t74 -28.5t28.5 -73.5t-28.5 -75t-74 -30t-75 30t-29.5 75zM1844 0v1126h169v-1126h-169zM886 983v143h146v197q0 367 317 367q207 0 363 -129l-111 -107q-119 92 -252 92q-49 0 -79.5 -15t-45 -51t-18.5 -68t-4 -89v-197h332v-143h-332 v-983h-170v983h-146zM61 983v143h146v197q0 367 317 367q207 0 363 -129l-111 -107q-119 92 -252 92q-49 0 -79.5 -15t-45 -51t-18.5 -68t-4 -89v-197h332v-143h-332v-983h-170v983h-146z" />
<glyph unicode="&#xfb04;" horiz-adv-x="2224" d="M1825 299v1380h170v-1380q0 -111 23 -133q45 -45 135 -45l-6 -146q-180 0 -250 70q-72 72 -72 254zM886 983v143h146v197q0 367 317 367q207 0 363 -129l-111 -107q-119 92 -252 92q-49 0 -79.5 -15t-45 -51t-18.5 -68t-4 -89v-197h332v-143h-332v-983h-170v983h-146z M61 983v143h146v197q0 367 317 367q207 0 363 -129l-111 -107q-119 92 -252 92q-49 0 -79.5 -15t-45 -51t-18.5 -68t-4 -89v-197h332v-143h-332v-983h-170v983h-146z" />
</font>
</defs>
</svg>
