<svg height="511pt" viewBox="0 0 511.77638 511" width="511pt" xmlns="http://www.w3.org/2000/svg"><path d="m502.410156 92.652344c-17.9375-13.238282-41.816406 5.714844-55.050781 23.640625l-111.667969 168.34375 32.476563 23.957031 127.902343-156.371094c13.234376-17.929687 24.277344-46.335937 6.339844-59.570312zm0 0"/><path d="m326.847656 296.660156-18.449218 25c-3.402344-.425781-6.847657-.394531-10.242188.085938-14.171875 2.230468-26.101562 11.816406-31.328125 25.179687-4.289063 11.414063-3.132813 24.351563-7.589844 35.695313-2.453125 6.242187-6.65625 11.640625-12.105469 15.546875 4.660157-45.710938-.183593-95.875-.183593-121.917969 0-29.484375 49.257812-34.339844 96.398437-35.132812l34.515625-52.082032c-41.136719 3.882813-107.082031 16.59375-122.085937 16.59375-17.65625 0 0-26.480468 0-79.449218 0-52.964844-26.484375-61.792969-26.484375-61.792969 17.984375-.40625 35.820312-3.378907 52.964843-8.824219 26.484376-8.828125 79.449219 17.652344 52.964844-26.484375-26.480468-44.136719-44.136718-26.484375-79.445312-17.65625-43.742188 8.546875-87.960938 14.441406-132.414063 17.65625-8.828125 0-26.484375 17.65625 0 44.136719 26.480469 26.484375 70.621094 0 70.621094 0 4.992187 20.253906 7.949219 40.953125 8.824219 61.792968 0 10.417969 1.414062 40.253907 2.472656 76.359376.101562 4.167968-2.675781 7.859374-6.707031 8.917968-50.589844 12.796875-102.484375 19.726563-154.660157 20.65625-88.277343 0-17.65625 70.621094-8.828124 70.621094 8.828124 0 35.3125-26.484375 79.449218-26.484375 27.519532-2.085937 54.648438-7.785156 80.683594-16.949219 2.660156-.835937 5.5625-.367187 7.820312 1.265625 2.261719 1.636719 3.617188 4.242188 3.65625 7.03125.8125 32.359375-.484374 64.738281-3.886718 96.929688-4.558594 43.289062-4.378906 86.953125.53125 130.207031.445312 3.925781 3.449218 7.082031 7.351562 7.71875s7.75-1.402344 9.421875-4.984375c4.765625-10.679687 8.207031-32.75 18.007813-62.324219 3.335937-10.394531 5.789062-21.054687 7.328125-31.867187 8.046875 2.933593 16.410156 4.917969 24.917969 5.914062 26.609374 3.757813 52.8125-9.101562 66.121093-32.449219 8.109375-11.617187 9.683594-26.585937 4.164063-39.636718l18.652344-25.289063zm0 0"/><path d="m441.949219 246.324219c20.65625 1.324219 34.515625-.617188 34.515625-14.210938-.1875-6.921875-2.996094-13.515625-7.855469-18.449219zm0 0"/><path d="m306.367188 165.933594c24.125-5.570313 61.09375-22.460938 37.394531-58.015625-20.523438-30.78125-37.542969-23.09375-46.300781-15.078125-3.523438 3.019531-4.226563 8.199218-1.632813 12.050781 9.242187 12.355469 4.472656 35.308594 0 49.9375-.90625 3.027344-.121094 6.308594 2.054687 8.601563 2.175782 2.292968 5.410157 3.246093 8.484376 2.503906zm0 0"/><path d="m159.671875 185.945312c4.613281-6.851562 11.828125-17.929687 8.445313-26.5625-.859376-2.308593-2.433594-4.28125-4.492188-5.632812-5.632812-3.726562-14.167969-3.046875-19.890625-7.230469-5.425781-5.09375-9.667969-11.320312-12.425781-18.238281-3.886719-7.777344-12.476563-22.703125-23.484375-18.113281-7.378907 3.082031-8.914063 11.246093-10.125 18.265625-2.054688 11.820312-6.179688 22.949218-8.578125 34.65625-4.257813 20.761718 4.070312 35.460937 25.777344 39.078125 16.824218 4.035156 34.4375-2.347657 44.773437-16.222657zm0 0"/></svg>