<?xml version="1.0" encoding="iso-8859-1"?>
<!-- Generator: Adobe Illustrator 16.0.0, SVG Export Plug-In . SVG Version: 6.00 Build 0)  -->
<!DOCTYPE svg PUBLIC "-//W3C//DTD SVG 1.1//EN" "http://www.w3.org/Graphics/SVG/1.1/DTD/svg11.dtd">
<svg version="1.1" id="Capa_1" xmlns="http://www.w3.org/2000/svg" xmlns:xlink="http://www.w3.org/1999/xlink" x="0px" y="0px"
	 width="44.238px" height="44.238px" viewBox="0 0 44.238 44.238" style="enable-background:new 0 0 44.238 44.238;"
	 xml:space="preserve">
<g>
	<g>
		<g>
			<path d="M15.533,29.455c-0.192,0-0.384-0.073-0.53-0.22c-0.293-0.293-0.293-0.769,0-1.062l13.171-13.171
				c0.293-0.293,0.768-0.293,1.061,0s0.293,0.768,0,1.061L16.063,29.235C15.917,29.382,15.725,29.455,15.533,29.455z"/>
		</g>
		<g>
			<path d="M28.704,29.455c-0.192,0-0.384-0.073-0.53-0.22L15.002,16.064c-0.293-0.293-0.293-0.768,0-1.061s0.768-0.293,1.061,0
				l13.171,13.171c0.293,0.293,0.293,0.769,0,1.062C29.088,29.382,28.896,29.455,28.704,29.455z"/>
		</g>
		<path d="M22.119,44.237C9.922,44.237,0,34.315,0,22.12C0,9.924,9.922,0.001,22.119,0.001S44.238,9.923,44.238,22.12
			S34.314,44.237,22.119,44.237z M22.119,1.501C10.75,1.501,1.5,10.751,1.5,22.12s9.25,20.619,20.619,20.619
			s20.619-9.25,20.619-20.619S33.488,1.501,22.119,1.501z"/>
	</g>
</g>
<g>
</g>
<g>
</g>
<g>
</g>
<g>
</g>
<g>
</g>
<g>
</g>
<g>
</g>
<g>
</g>
<g>
</g>
<g>
</g>
<g>
</g>
<g>
</g>
<g>
</g>
<g>
</g>
<g>
</g>
</svg>
