<?xml version="1.0" encoding="UTF-8"?>
<svg xmlns="http://www.w3.org/2000/svg" xmlns:xlink="http://www.w3.org/1999/xlink" width="512" height="512" viewBox="0 0 56 56" version="1.1"><!-- Generator: Sketch 51.3 (57544) - http://www.bohemiancoding.com/sketch --><title>022 - RGB Monitor</title><desc>Created with Sketch.</desc><defs/><g id="Page-1" stroke="none" stroke-width="1" fill="none" fill-rule="evenodd"><g id="022---RGB-Monitor" fill="#000000" fill-rule="nonzero"><path d="M29.99,22.8 C28.6767344,23.0666735 27.3232656,23.0666735 26.01,22.8 C26.01,22.867 26,22.932 26,23 C26.0002992,24.9432388 26.7116975,26.8191962 28,28.274 C29.2883025,26.8191962 29.9997008,24.9432388 30,23 C30,22.932 29.992,22.867 29.99,22.8 Z" id="Shape"/><path d="M24.042,22.179 C21.3282682,21.0024183 19.2715837,18.688877 18.421,15.856 C15.7459134,17.1887669 14.0378493,19.9025987 13.9932456,22.8909706 C13.9486419,25.8793425 15.5749512,28.6429424 18.20907,30.0549531 C20.8431887,31.4669639 24.0449952,31.2914598 26.509,29.6 C24.8937065,27.7808445 24.0010924,25.4327965 24,23 C24,22.723 24.019,22.451 24.042,22.179 Z" id="Shape"/><path d="M37.579,15.856 C36.7284163,18.688877 34.6717318,21.0024183 31.958,22.179 C31.981,22.451 32,22.723 32,23 C31.9989076,25.4327965 31.1062935,27.7808445 29.491,29.6 C31.9552818,31.2857476 35.1536616,31.4575105 37.7843093,30.0453764 C40.4149569,28.6332423 42.0392525,25.8726627 41.9960623,22.8872709 C41.9528721,19.901879 40.2493974,17.1894429 37.579,15.854 L37.579,15.856 Z" id="Shape"/><path d="M20.311,15.183 C20.9277448,17.338243 22.4180748,19.1371548 24.421,20.144 C24.8373751,18.7593992 25.5498324,17.4818896 26.509,16.4 C25.1825301,15.4873307 23.6101201,14.9991129 22,15 C21.4321142,15.0011272 20.8659488,15.0624702 20.311,15.183 Z" id="Shape"/><path d="M22,13 C24.1666133,13.000968 26.273555,13.7099539 28,15.019 C29.726445,13.7099539 31.8333867,13.000968 34,13 C34.6683347,13.0003059 35.3349708,13.0673045 35.99,13.2 C35.99,13.133 36,13.068 36,13 C36,8.581722 32.418278,5 28,5 C23.581722,5 20,8.581722 20,13 C20,13.068 20.008,13.133 20.01,13.2 C20.6650292,13.0673045 21.3316653,13.0003059 22,13 Z" id="Shape"/><path d="M29.689,20.817 C29.3634485,19.6736464 28.7863711,18.6175502 28,17.726 C27.2136289,18.6175502 26.6365515,19.6736464 26.311,20.817 C27.4237821,21.0609943 28.5762179,21.0609943 29.689,20.817 Z" id="Shape"/><path d="M35.689,15.183 C35.1340512,15.0624702 34.5678858,15.0011272 34,15 C32.3898799,14.9991129 30.8174699,15.4873307 29.491,16.4 C30.450419,17.4824729 31.16289,18.7606896 31.579,20.146 C33.5823542,19.1387053 35.0727471,17.3389924 35.689,15.183 Z" id="Shape"/><rect id="Rectangle-path" x="22" y="46" width="12" height="4"/><path d="M1,44 L55,44 C55.5522847,44 56,43.5522847 56,43 L56,38 L0,38 L0,43 C0,43.5522847 0.44771525,44 1,44 Z M26,40 L30,40 C30.5522847,40 31,40.4477153 31,41 C31,41.5522847 30.5522847,42 30,42 L26,42 C25.4477153,42 25,41.5522847 25,41 C25,40.4477153 25.4477153,40 26,40 Z" id="Shape"/><path d="M36,52 L20,52 C18.3431458,52 17,53.3431458 17,55 C17,55.5522847 17.4477153,56 18,56 L38,56 C38.5522847,56 39,55.5522847 39,55 C39,53.3431458 37.6568542,52 36,52 Z" id="Shape"/><path d="M56,1 C56,0.44771525 55.5522847,0 55,0 L1,0 C0.44771525,0 0,0.44771525 0,1 L0,36 L56,36 L56,1 Z M5,4 L3,4 C2.44771525,4 2,3.55228475 2,3 C2,2.44771525 2.44771525,2 3,2 L5,2 C5.55228475,2 6,2.44771525 6,3 C6,3.55228475 5.55228475,4 5,4 Z M8,3 C8,2.44771525 8.44771525,2 9,2 L15,2 C15.5522847,2 16,2.44771525 16,3 C16,3.55228475 15.5522847,4 15,4 L9,4 C8.44771525,4 8,3.55228475 8,3 Z M34,33 C31.8333867,32.999032 29.726445,32.2900461 28,30.981 C24.9198036,33.2987549 20.7810027,33.6377522 17.3647086,31.8521061 C13.9484144,30.0664601 11.864135,26.4747514 12.008829,22.6226531 C12.153523,18.7705548 14.5013753,15.3453276 18.042,13.821 C18.019,13.549 18,13.277 18,13 C18,7.4771525 22.4771525,3 28,3 C33.5228475,3 38,7.4771525 38,13 C38,13.277 37.981,13.549 37.958,13.821 C42.3088711,15.701892 44.7415354,20.3789288 43.7835171,25.0211303 C42.8254987,29.6633318 38.7400222,32.9952097 34,33 Z" id="Shape"/><path d="M52,50.1 L52,52 C52,52.5522847 51.5522847,53 51,53 C50.4477153,53 50,52.5522847 50,52 L50,50.1 C47.6735832,50.5784327 46.0029983,52.6248992 46,55 L46,56 L56,56 L56,55 C55.9970017,52.6248992 54.3264168,50.5784327 52,50.1 Z" id="Shape"/></g></g></svg>
