<?xml version="1.0" encoding="UTF-8"?>
<svg xmlns="http://www.w3.org/2000/svg" xmlns:xlink="http://www.w3.org/1999/xlink" width="512" height="512" viewBox="0 0 56 56" version="1.1"><!-- Generator: Sketch 51.3 (57544) - http://www.bohemiancoding.com/sketch --><title>035 - Creative Thinking</title><desc>Created with Sketch.</desc><defs/><g id="Page-1" stroke="none" stroke-width="1" fill="none" fill-rule="evenodd"><g id="035---Creative-Thinking" fill="#000000" fill-rule="nonzero"><path d="M37.771,17.132 L32.747,16.825 C32.595,17.825 32.478,18.78 32.376,19.725 C32.501,19.742 32.624,19.756 32.75,19.774 C34.4043552,20.0543414 36.0863269,20.1355863 37.76,20.016 C37.791,19.031 37.8,18.066 37.771,17.132 Z" id="Shape"/><path d="M32.484,21.753 L32.194,21.715 C32.0639448,23.3943153 32.0218873,25.0792875 32.068,26.763 C33.4917669,26.2606769 34.9902207,26.0027075 36.5,26 C36.748,26 36.99,26.024 37.235,26.037 C37.424,24.648 37.573,23.304 37.664,22.017 C37.227,22.051 36.791,22.084 36.377,22.084 C35.0732882,22.0628746 33.7725642,21.9522813 32.484,21.753 Z" id="Shape"/><path d="M15.612,0.027 C15.476935,0.0596276144 15.3800795,0.178142855 15.375,0.317 L15.212,4.823 C15.7132877,4.9650878 16.2405254,4.99006401 16.753,4.896 C17.254407,4.75246404 17.7162356,4.49589258 18.103,4.146 L15.956,0.181 C15.8887964,0.0583824653 15.7482203,-0.00454985756 15.612,0.027 Z" id="Shape"/><path d="M20.4,20.477 C20.9369763,20.3520876 21.4737523,20.6853361 21.6,21.222 L24.457,33.409 C24.8753476,32.5833297 25.3780255,31.8031736 25.957,31.081 L21.5,12 C21.0308039,12.5728373 20.4338263,13.0276774 19.757,13.328 L20.465,16.349 C20.5536536,16.6994484 20.4462723,17.0704608 20.184144,17.3193831 C19.9220157,17.5683055 19.5459527,17.6563819 19.2005506,17.5497471 C18.8551485,17.4431122 18.5941849,17.1583687 18.518,16.805 L17.811,13.786 C17.747,13.786 17.68,13.798 17.617,13.798 C16.9414297,13.7971851 16.2738416,13.6519387 15.659,13.372 L20.048,32.1 C20.7908667,32.2083043 21.521125,32.3901989 22.228,32.643 L19.657,21.678 C19.5313439,21.1413125 19.8636633,20.6041449 20.4,20.477 Z" id="Shape"/><path d="M40.23,8.643 C39.7891468,5.94055405 38.5294164,3.43854589 36.621,1.475 C36.301,3.59 34.921,5.843 32.27,8.775 C31.4587564,9.57187808 31.0080432,10.6654339 31.0222023,11.8025049 C31.0363614,12.9395758 31.5141651,14.0215695 32.345,14.798 C34.275,14.918 36.2286667,15.038 38.206,15.158 C39.7133718,13.3381922 40.4408296,10.9965975 40.23,8.643 Z M36.685,13.7 C36.3062279,13.7 35.9599648,13.4859976 35.7905728,13.1472136 C35.6211808,12.8084296 35.6577368,12.4030176 35.885,12.1 C36.7612783,10.8991326 37.1196669,9.39714213 36.88,7.93 C36.7784511,7.58170693 36.8735052,7.20573314 37.1283835,6.94755236 C37.3832617,6.68937158 37.7579807,6.58948531 38.1075522,6.68654207 C38.4571236,6.78359883 38.7267094,7.06237307 38.812,7.415 C39.2129189,9.47731883 38.730449,11.6132456 37.482,13.303 C37.2931553,13.552833 36.9981753,13.6997678 36.685,13.7 Z" id="Shape"/><path d="M52.941,13.5 L48.749,16.116 C48.5644701,17.982861 48.1149551,19.8139187 47.414,21.554 C47.8107397,22.6314819 48.6398143,23.4940727 49.7007359,23.9331795 C50.7616576,24.3722864 51.9578325,24.3479299 53,23.866 C53.734886,22.1409448 54.7113253,20.5291466 55.9,19.079 L54.785,14.266 L53.305,17.85 C53.0934749,18.3603111 52.5083111,18.602525 51.998,18.3909999 C51.4876889,18.1794749 51.245475,17.5943111 51.457,17.084 L52.941,13.5 Z" id="Shape"/><path d="M48.8,33.963 L51.991,26.263 C51.7898729,26.2869025 51.587541,26.2992561 51.385,26.3 C50.5431787,26.292038 49.711358,26.1166316 48.938,25.784 C47.9650737,25.4028543 47.1065604,24.7778235 46.445,23.969 L44.506,28.656 C46.3661185,30.0302516 47.8442088,31.8570391 48.8,33.963 Z" id="Shape"/><path d="M50,44 C49.5510461,44.0005462 49.1034596,44.0494957 48.665,44.146 C48.3173755,44.2223776 47.955354,44.1082324 47.7144054,43.8462781 C47.4734568,43.5843237 47.3898991,43.2140443 47.495,42.874 C47.831707,41.7810507 48.0019482,40.6436372 48,39.5 C48,33.9422093 44.0253255,29.1797039 38.5571825,28.185496 C33.0890395,27.1912882 27.6923423,30.2499079 25.736,35.452 C25.6253851,35.7459553 25.383092,35.9708637 25.0817289,36.0593264 C24.7803658,36.1477891 24.4549502,36.0895272 24.203,35.902 C21.3520937,33.7609539 17.5423999,33.3964337 14.3372174,34.9580194 C11.1320348,36.5196051 9.07105652,39.7443547 9,43.309 C8.99427469,43.6221715 8.8421434,43.9145683 8.58897242,44.0989962 C8.33580144,44.2834241 8.01084253,44.338574 7.711,44.248 C7.15596677,44.0816376 6.57942611,43.9980712 6,44 C2.6862916,44.0000001 2.52881091e-07,46.6862916 2.5288109e-07,50 C2.5288109e-07,53.3137084 2.6862916,55.9999999 6,56 L50,56 C53.3137085,56 56,53.3137085 56,50 C56,46.6862915 53.3137085,44 50,44 Z M16.322,38.947 C14.9994793,39.3982114 14.0816303,40.6050128 14,42 C14,42.5522847 13.5522847,43 13,43 C12.4477153,43 12,42.5522847 12,42 C12,38.322 15.533,37.1 15.684,37.051 C16.2086705,36.8748212 16.7768211,37.1573295 16.9529999,37.682 C17.1291788,38.2066705 16.8466705,38.7748211 16.322,38.951 L16.322,38.947 Z M29.03,34.757 C29.7014843,31.9948975 32.1576987,30.0377431 35,30 C35.5522847,29.9986193 36.0011193,30.4452153 36.0025,30.9975 C36.0038807,31.5497847 35.5572847,31.9986193 35.005,32 C33.0827329,32.04782 31.4301708,33.376013 30.97,35.243 C30.8585409,35.6879311 30.4586794,35.9999879 30,36 C29.9177273,36.0003241 29.8357438,35.9902442 29.756,35.97 C29.2206984,35.8353322 28.8957484,35.2924061 29.03,34.757 Z M39.415,48.24 C39.1730396,48.3497894 38.8973336,48.358771 38.6487406,48.2649624 C38.4001477,48.1711537 38.1991084,47.9822682 38.09,47.74 C37.5994,46.6799243 36.5380958,46.0010018 35.37,46 C34.6949437,45.9984982 34.0398065,46.2286433 33.514,46.652 C33.4800508,46.6719739 33.4449944,46.6900029 33.409,46.706 C33.3795134,46.7309726 33.3484491,46.7540203 33.316,46.775 C33.2900268,46.7827468 33.2636553,46.7890893 33.237,46.794 C33.0556777,46.8665264 32.8558335,46.8787976 32.667,46.829 C32.6053553,46.8161013 32.5450822,46.7973496 32.487,46.773 C32.4305407,46.7449508 32.3769534,46.7114588 32.327,46.673 C32.2708719,46.6352827 32.2189132,46.5917044 32.172,46.543 C32.152,46.522 32.126,46.512 32.108,46.49 C32.088489,46.4576773 32.0707949,46.4242922 32.055,46.39 C32.0299993,46.3599435 32.0066323,46.3285649 31.985,46.296 C31.3334499,44.8889107 29.9205956,43.9915625 28.37,44 C26.160861,44 24.37,45.790861 24.37,48 C24.3697585,48.5528385 24.4820372,49.0999423 24.7,49.608 C24.8039737,49.8519982 24.8067566,50.1273072 24.7077364,50.3733573 C24.6087162,50.6194075 24.4160049,50.8160419 24.172,50.92 C24.0481479,50.9730935 23.9147522,51.0003171 23.78,51 C23.3792008,51.0000139 23.0171133,50.7607213 22.86,50.392 C22.536386,49.6360704 22.3696828,48.8222867 22.37,48 C22.3635592,45.3958533 24.0412189,43.0862148 26.5197229,42.2870657 C28.998227,41.4879165 31.7090521,42.3825668 33.225,44.5 C33.8929814,44.173247 34.6263863,44.0022902 35.37,44 C37.3227138,44.0017705 39.0957188,45.1401647 39.91,46.915 C40.0201095,47.1563411 40.0298147,47.4315433 39.9369796,47.6800414 C39.8441444,47.9285395 39.6563769,48.1299689 39.415,48.24 Z" id="Shape"/><path d="M18.351,11.711 C19.6086265,11.3664552 20.5477133,10.3170256 20.751,9.029 L19.064,5.921 C18.5156381,6.35201888 17.8846038,6.66583419 17.21,6.843 C16.8767897,6.91951786 16.5358802,6.95743397 16.194,6.956 C15.8400419,6.9544563 15.4869445,6.92098735 15.139,6.856 L15.012,10.378 C15.7672955,11.4386678 17.0728999,11.9598929 18.351,11.711 Z" id="Shape"/><path d="M5.441,23.379 L9.141,21.847 L8.375,20 L0.052,23.444 L7.3,40.92 C8.12753427,37.4341274 10.5182426,34.5256414 13.778,33.039 L12.969,31.086 L9.269,32.618 C9.14778882,32.6678288 9.01805316,32.6936401 8.887,32.694 C8.40899503,32.6962148 7.9962627,32.3598288 7.90200202,31.8912046 C7.80774135,31.4225805 8.05831353,30.9527751 8.5,30.77 L12.2,29.238 L11.435,27.39 L9.584,28.157 C9.46275946,28.2067315 9.33304303,28.2325389 9.202,28.233 C8.72456364,28.233769 8.31317622,27.8969282 8.21973032,27.4287253 C8.12628442,26.9605225 8.37684761,26.4915668 8.818,26.309 L10.669,25.542 L9.904,23.694 L6.204,25.227 C6.08246267,25.2769069 5.95238473,25.3027188 5.821,25.303 C5.34375219,25.3032902 4.93281021,24.9662981 4.83963529,24.498234 C4.74646037,24.0301699 4.99702285,23.5614958 5.438,23.379 L5.441,23.379 Z" id="Shape"/></g></g></svg>
