<?xml version="1.0" encoding="UTF-8" standalone="no"?>
<!DOCTYPE svg PUBLIC "-//W3C//DTD SVG 1.1//EN" "http://www.w3.org/Graphics/SVG/1.1/DTD/svg11.dtd">
<svg version="1.1" xmlns="http://www.w3.org/2000/svg" xmlns:xlink="http://www.w3.org/1999/xlink" preserveAspectRatio="xMidYMid meet" viewBox="0 0 640 640" width="260" height="260"><defs><path d="M521.3 41.25L521.32 41.25L521.35 41.25L521.37 41.25L521.4 41.25L521.42 41.25L521.45 41.25L521.47 41.25L521.5 41.25L521.52 41.25L521.55 41.25L521.57 41.25L521.6 41.25L521.63 41.26L521.65 41.26L521.68 41.26L521.7 41.26L521.75 41.26L521.78 41.26L521.8 41.26L521.83 41.26L521.88 41.26L521.9 41.27L521.95 41.27L522 41.27L522.05 41.27L522.1 41.27L522.13 41.28L522.18 41.28L522.2 41.28L522.25 41.28L522.28 41.28L522.31 41.29L522.35 41.29L522.38 41.29L522.41 41.29L522.46 41.3L522.5 41.3L522.51 41.3L522.56 41.3L522.6 41.31L522.62 41.31L522.68 41.31L522.71 41.32L522.75 41.32L522.84 41.33L522.87 41.33L522.9 41.33L522.93 41.33L522.96 41.34L522.99 41.34L523.02 41.34L523.05 41.35L523.08 41.35L523.11 41.35L523.14 41.35L523.17 41.36L523.2 41.36L523.24 41.36L523.27 41.37L523.3 41.37L523.33 41.37L523.36 41.38L523.39 41.38L523.42 41.38L523.45 41.39L523.48 41.39L523.51 41.4L523.54 41.4L523.57 41.4L523.6 41.41L523.63 41.41L523.66 41.41L523.69 41.42L523.72 41.42L523.75 41.43L523.78 41.43L523.81 41.43L523.84 41.44L523.87 41.44L523.9 41.45L523.93 41.45L523.96 41.46L523.99 41.46L524.02 41.47L524.05 41.47L524.08 41.47L524.22 41.5L524.26 41.5L524.29 41.51L524.32 41.51L524.36 41.52L524.4 41.52L524.44 41.53L524.46 41.53L524.49 41.54L524.52 41.54L524.54 41.55L524.61 41.56L524.64 41.57L524.68 41.57L524.72 41.58L524.76 41.59L524.8 41.6L524.84 41.6L524.88 41.61L524.91 41.62L524.95 41.63L524.99 41.63L525.03 41.64L525.07 41.65L525.11 41.66L525.15 41.66L525.18 41.67L525.22 41.68L525.26 41.69L525.3 41.7L525.34 41.71L525.38 41.71L525.41 41.72L525.45 41.73L525.49 41.74L525.53 41.75L525.57 41.76L525.6 41.77L525.64 41.78L525.68 41.79L525.72 41.79L525.76 41.8L525.79 41.81L525.83 41.82L525.87 41.83L525.91 41.84L525.95 41.85L525.98 41.86L526.02 41.87L526.06 41.88L526.1 41.89L526.12 41.9L526.14 41.9L526.16 41.91L526.19 41.92L526.2 41.92L526.23 41.93L526.29 41.95L526.31 41.95L526.34 41.96L526.35 41.97L526.38 41.97L526.39 41.98L526.43 41.99L526.47 42L526.5 42.01L526.54 42.02L526.58 42.03L526.61 42.04L526.65 42.05L526.69 42.06L526.72 42.08L526.76 42.09L526.8 42.1L526.83 42.11L526.87 42.12L526.91 42.13L526.95 42.14L526.98 42.16L527.02 42.17L527.06 42.18L527.09 42.19L527.13 42.2L527.16 42.22L527.2 42.23L527.24 42.24L527.27 42.25L527.31 42.26L527.35 42.28L527.38 42.29L527.42 42.3L527.46 42.32L527.49 42.33L527.53 42.34L527.57 42.35L527.6 42.37L527.64 42.38L527.67 42.39L527.71 42.41L527.75 42.42L527.78 42.43L527.82 42.45L527.85 42.46L527.86 42.46L527.87 42.46L527.88 42.47L527.89 42.47L527.91 42.48L527.95 42.49L527.97 42.5L527.98 42.5L527.99 42.5L528 42.51L528 42.51L528.02 42.52L528.03 42.52L528.04 42.52L528.06 42.53L528.07 42.54L528.08 42.54L528.09 42.54L528.12 42.56L528.16 42.57L528.2 42.59L528.24 42.6L528.28 42.62L528.32 42.64L528.35 42.65L528.39 42.67L528.43 42.68L528.47 42.7L528.51 42.72L528.55 42.73L528.58 42.75L528.62 42.76L528.66 42.78L528.7 42.8L528.74 42.81L528.77 42.83L528.81 42.85L528.85 42.86L528.89 42.88L528.92 42.9L528.96 42.91L529 42.93L529.04 42.95L529.07 42.97L529.11 42.98L529.15 43L529.19 43.02L529.22 43.04L529.26 43.05L529.3 43.07L529.34 43.09L529.37 43.11L529.41 43.13L529.45 43.14L529.49 43.16L529.52 43.18L529.56 43.2L529.6 43.22L529.61 43.22L529.62 43.23L529.64 43.24L529.65 43.25L529.66 43.25L529.67 43.26L529.68 43.26L529.69 43.26L529.71 43.27L529.76 43.3L529.8 43.32L529.83 43.34L529.88 43.36L529.93 43.39L529.96 43.4L530 43.43L530.04 43.45L530.07 43.46L530.11 43.48L530.14 43.5L530.17 43.52L530.21 43.54L530.24 43.56L530.28 43.57L530.31 43.59L530.35 43.61L530.38 43.63L530.41 43.65L530.45 43.67L530.48 43.69L530.52 43.71L530.55 43.73L530.58 43.74L530.62 43.76L530.65 43.78L530.69 43.8L530.72 43.82L530.75 43.84L530.79 43.86L530.82 43.88L530.86 43.9L530.89 43.92L530.92 43.94L530.96 43.96L530.99 43.98L531.02 44L531.06 44.02L531.09 44.04L531.12 44.06L531.16 44.08L531.19 44.1L531.22 44.12L531.26 44.14L531.29 44.16L531.32 44.18L531.33 44.19L531.35 44.2L531.37 44.21L531.38 44.22L531.4 44.24L531.43 44.25L531.46 44.28L531.49 44.3L531.53 44.33L531.55 44.34L531.55 44.34L531.56 44.35L531.57 44.35L531.57 44.36L531.58 44.36L531.6 44.37L531.62 44.39L531.65 44.4L531.67 44.42L531.7 44.44L531.73 44.46L531.75 44.48L531.78 44.49L531.8 44.51L531.83 44.53L531.86 44.55L531.88 44.57L531.91 44.58L531.93 44.6L531.96 44.62L531.99 44.64L532.01 44.66L532.04 44.67L532.06 44.69L532.09 44.71L532.12 44.73L532.14 44.75L532.17 44.77L532.19 44.78L532.22 44.8L532.24 44.82L532.27 44.84L532.3 44.86L532.32 44.88L532.35 44.9L532.37 44.92L532.4 44.93L532.42 44.95L532.45 44.97L532.47 44.99L532.5 45.01L532.53 45.03L532.55 45.05L532.58 45.07L532.6 45.09L532.63 45.11L532.65 45.12L532.68 45.15L532.75 45.2L532.78 45.23L532.81 45.24L532.83 45.26L532.85 45.28L532.87 45.29L532.89 45.31L532.92 45.33L532.94 45.34L532.96 45.36L532.98 45.38L533 45.4L533.02 45.41L533.04 45.43L533.06 45.44L533.07 45.45L533.08 45.46L533.12 45.49L533.14 45.51L533.17 45.53L533.2 45.56L533.23 45.58L533.26 45.6L533.28 45.63L533.31 45.65L533.34 45.67L533.37 45.7L533.39 45.72L533.42 45.74L533.45 45.77L533.48 45.79L533.51 45.81L533.53 45.84L533.56 45.86L533.59 45.88L533.61 45.91L533.64 45.93L533.67 45.96L533.7 45.98L533.72 46L533.75 46.03L533.78 46.05L533.81 46.08L533.83 46.1L533.86 46.13L533.89 46.15L533.91 46.17L533.94 46.2L533.97 46.22L533.99 46.25L534.02 46.27L534.05 46.3L534.07 46.32L534.1 46.35L534.13 46.37L534.15 46.4L534.18 46.42L534.2 46.44L534.21 46.46L534.23 46.47L534.25 46.49L534.26 46.5L534.27 46.51L534.28 46.52L534.29 46.53L534.29 46.54L534.31 46.55L534.34 46.58L534.37 46.62L534.43 46.68L534.44 46.69L534.47 46.71L534.49 46.74L534.51 46.76L534.53 46.77L534.55 46.8L534.57 46.82L534.59 46.84L534.61 46.86L534.63 46.88L534.65 46.9L534.67 46.92L534.69 46.94L534.71 46.96L534.73 46.98L534.75 47L534.77 47.02L534.79 47.04L534.81 47.06L534.83 47.08L534.85 47.1L534.87 47.13L534.89 47.15L534.91 47.17L534.93 47.19L534.95 47.21L534.97 47.23L534.99 47.25L535.01 47.27L535.03 47.29L535.04 47.31L535.06 47.34L535.08 47.36L535.1 47.38L535.12 47.4L535.14 47.42L535.16 47.44L535.18 47.46L535.2 47.48L535.22 47.51L535.24 47.53L535.26 47.55L535.28 47.57L535.29 47.59L535.31 47.61L535.33 47.63L535.35 47.65L535.37 47.68L535.4 47.71L535.46 47.78L535.5 47.83L535.53 47.86L535.54 47.87L535.56 47.89L535.58 47.91L535.59 47.93L535.61 47.95L535.62 47.97L535.64 47.99L535.66 48.02L535.69 48.04L535.71 48.07L535.74 48.1L535.76 48.13L535.78 48.16L535.81 48.19L535.83 48.22L535.85 48.25L535.88 48.28L535.9 48.31L535.92 48.34L535.95 48.36L535.97 48.39L535.99 48.42L536.02 48.45L536.04 48.48L536.06 48.51L536.09 48.54L536.11 48.57L536.13 48.6L536.15 48.63L536.18 48.66L536.2 48.69L536.22 48.72L536.25 48.75L536.27 48.78L536.29 48.81L536.31 48.84L536.33 48.87L536.36 48.9L536.38 48.93L536.4 48.96L536.42 48.99L536.45 49.02L536.47 49.05L536.49 49.08L536.51 49.11L536.53 49.15L536.56 49.18L536.57 49.2L536.58 49.21L536.6 49.24L536.61 49.25L536.63 49.28L536.63 49.29L536.65 49.32L536.67 49.35L536.69 49.37L536.73 49.43L536.74 49.46L536.76 49.48L536.78 49.51L536.8 49.55L536.82 49.57L536.84 49.6L536.86 49.63L536.94 49.75L536.96 49.77L536.97 49.79L536.98 49.8L536.99 49.82L537 49.83L537.01 49.86L537.03 49.88L537.05 49.91L537.06 49.92L537.07 49.94L537.08 49.95L537.09 49.96L537.1 49.99L537.11 50.01L537.12 50.02L537.14 50.05L537.15 50.06L637.15 210.06L637.16 210.07L637.17 210.09L637.17 210.1L637.18 210.12L637.19 210.13L637.2 210.14L637.21 210.16L637.22 210.17L637.22 210.18L637.23 210.2L637.25 210.23L637.26 210.25L637.27 210.27L637.28 210.28L637.29 210.31L637.3 210.32L637.32 210.35L637.33 210.38L637.36 210.42L637.38 210.46L637.4 210.5L637.42 210.53L637.43 210.56L637.44 210.57L637.46 210.6L637.47 210.62L637.48 210.65L637.5 210.68L637.52 210.71L637.54 210.74L637.58 210.82L637.6 210.85L637.63 210.9L637.64 210.91L637.67 210.96L637.68 210.99L637.69 211.01L637.7 211.02L637.71 211.04L637.73 211.07L637.74 211.09L637.76 211.12L637.76 211.13L637.77 211.15L637.78 211.17L637.79 211.18L637.8 211.2L637.81 211.21L637.82 211.23L637.83 211.25L637.84 211.27L637.85 211.3L637.86 211.32L637.88 211.35L637.89 211.37L637.9 211.4L637.92 211.42L637.93 211.45L637.94 211.47L637.95 211.5L637.97 211.52L637.98 211.55L637.99 211.57L638 211.6L638.02 211.62L638.03 211.65L638.04 211.68L638.05 211.7L638.06 211.73L638.08 211.75L638.09 211.78L638.1 211.8L638.11 211.83L638.12 211.85L638.14 211.88L638.15 211.9L638.16 211.93L638.18 211.98L638.2 212.01L638.21 212.03L638.22 212.06L638.23 212.08L638.25 212.13L638.27 212.16L638.29 212.21L638.31 212.26L638.33 212.3L638.34 212.32L638.36 212.36L638.37 212.38L638.38 212.42L638.39 212.44L638.41 212.48L638.42 212.5L638.44 212.54L638.44 212.56L638.46 212.59L638.47 212.61L638.49 212.65L638.5 212.69L638.51 212.71L638.53 212.75L638.55 212.79L638.55 212.81L638.56 212.83L638.57 212.85L638.59 212.89L638.6 212.93L638.62 212.97L638.64 213.01L638.64 213.03L638.65 213.05L638.66 213.08L638.68 213.11L638.69 213.14L638.7 213.17L638.71 213.2L638.72 213.23L638.73 213.26L638.75 213.29L638.76 213.32L638.77 213.35L638.78 213.38L638.79 213.4L638.8 213.43L638.81 213.46L638.82 213.49L638.84 213.52L638.85 213.55L638.86 213.58L638.87 213.61L638.88 213.64L638.89 213.67L638.9 213.7L638.91 213.73L638.92 213.76L638.93 213.79L638.94 213.82L638.96 213.85L638.97 213.88L638.98 213.91L638.99 213.94L639 213.97L639.01 214L639.02 214.03L639.03 214.06L639.04 214.09L639.05 214.12L639.06 214.15L639.07 214.18L639.08 214.21L639.09 214.24L639.09 214.26L639.1 214.27L639.1 214.29L639.11 214.3L639.11 214.32L639.12 214.34L639.13 214.37L639.14 214.4L639.15 214.44L639.16 214.47L639.16 214.48L639.17 214.5L639.18 214.53L639.18 214.57L639.2 214.62L639.21 214.65L639.23 214.73L639.25 214.8L639.26 214.83L639.26 214.85L639.27 214.88L639.29 214.95L639.3 214.97L639.31 215.02L639.32 215.04L639.32 215.07L639.33 215.09L639.34 215.12L639.35 215.17L639.36 215.19L639.37 215.24L639.38 215.27L639.39 215.29L639.39 215.32L639.4 215.34L639.4 215.37L639.41 215.39L639.42 215.42L639.42 215.44L639.43 215.47L639.44 215.49L639.44 215.52L639.45 215.54L639.46 215.57L639.46 215.59L639.47 215.62L639.47 215.64L639.48 215.66L639.49 215.69L639.49 215.71L639.5 215.74L639.5 215.76L639.51 215.79L639.52 215.81L639.52 215.84L639.53 215.86L639.54 215.91L639.54 215.94L639.55 215.96L639.55 215.99L639.56 216.01L639.56 216.02L639.57 216.05L639.58 216.09L639.58 216.12L639.59 216.15L639.6 216.19L639.6 216.2L639.61 216.24L639.61 216.25L639.61 216.27L639.62 216.3L639.62 216.32L639.63 216.35L639.64 216.39L639.64 216.42L639.65 216.45L639.66 216.49L639.66 216.52L639.67 216.54L639.67 216.58L639.68 216.61L639.68 216.64L639.69 216.67L639.69 216.7L639.7 216.72L639.7 216.75L639.71 216.78L639.71 216.81L639.72 216.84L639.72 216.87L639.73 216.9L639.73 216.93L639.74 216.95L639.74 216.98L639.75 217.01L639.75 217.04L639.76 217.07L639.76 217.1L639.77 217.13L639.77 217.15L639.77 217.18L639.78 217.21L639.78 217.24L639.79 217.27L639.79 217.3L639.79 217.33L639.8 217.35L639.8 217.38L639.81 217.41L639.81 217.44L639.81 217.47L639.82 217.5L639.82 217.53L639.83 217.56L639.83 217.58L639.83 217.61L639.84 217.64L639.84 217.67L639.85 217.73L639.85 217.75L639.86 217.79L639.86 217.82L639.87 217.88L639.87 217.9L639.88 217.95L639.88 217.99L639.88 218.01L639.89 218.04L639.89 218.07L639.89 218.08L639.9 218.11L639.9 218.12L639.9 218.15L639.9 218.17L639.91 218.2L639.91 218.21L639.91 218.22L639.91 218.27L639.92 218.31L639.92 218.35L639.92 218.4L639.93 218.44L639.93 218.48L639.93 218.52L639.94 218.57L639.94 218.61L639.94 218.65L639.95 218.69L639.95 218.74L639.95 218.78L639.96 218.82L639.96 218.86L639.96 218.91L639.96 218.95L639.97 218.99L639.97 219.04L639.97 219.08L639.97 219.12L639.98 219.16L639.98 219.21L639.98 219.25L639.98 219.29L639.98 219.33L639.98 219.38L639.99 219.42L639.99 219.46L639.99 219.5L639.99 219.55L639.99 219.59L639.99 219.63L639.99 219.67L639.99 219.72L639.99 219.76L640 219.8L640 219.84L640 219.88L640 219.93L640 219.94L640 219.97L640 219.98L640 220.01L640 220.02L640 220.03L640 220.05L640 220.07L640 220.1L639.99 220.13L639.99 220.17L639.99 220.19L639.99 220.21L639.99 220.23L639.99 220.24L639.99 220.25L639.99 220.29L639.99 220.32L639.99 220.36L639.99 220.39L639.98 220.43L639.98 220.46L639.98 220.5L639.98 220.53L639.98 220.57L639.98 220.6L639.98 220.64L639.98 220.67L639.98 220.71L639.97 220.74L639.97 220.78L639.97 220.81L639.97 220.85L639.97 220.88L639.97 220.92L639.97 220.95L639.96 220.98L639.96 221.02L639.96 221.05L639.96 221.09L639.96 221.12L639.95 221.16L639.95 221.19L639.95 221.23L639.95 221.26L639.94 221.3L639.94 221.33L639.94 221.37L639.94 221.4L639.93 221.44L639.93 221.47L639.93 221.51L639.93 221.54L639.92 221.58L639.92 221.61L639.92 221.66L639.91 221.69L639.91 221.72L639.91 221.75L639.91 221.77L639.9 221.8L639.9 221.83L639.9 221.87L639.89 221.9L639.89 221.95L639.88 221.98L639.88 222.01L639.88 222.05L639.87 222.1L639.86 222.14L639.86 222.2L639.85 222.25L639.85 222.28L639.85 222.3L639.84 222.33L639.84 222.36L639.84 222.39L639.83 222.41L639.83 222.44L639.82 222.47L639.82 222.5L639.82 222.52L639.81 222.55L639.81 222.58L639.8 222.61L639.8 222.63L639.8 222.66L639.79 222.69L639.79 222.72L639.78 222.74L639.78 222.77L639.78 222.8L639.77 222.83L639.77 222.85L639.76 222.88L639.76 222.91L639.75 222.94L639.75 222.96L639.75 222.99L639.74 223.02L639.74 223.05L639.73 223.07L639.73 223.1L639.72 223.13L639.72 223.16L639.71 223.18L639.71 223.21L639.7 223.24L639.7 223.27L639.69 223.29L639.69 223.32L639.68 223.35L639.68 223.37L639.68 223.4L639.67 223.44L639.66 223.49L639.64 223.59L639.64 223.6L639.64 223.62L639.63 223.66L639.62 223.7L639.62 223.73L639.61 223.76L639.61 223.77L639.6 223.81L639.6 223.84L639.59 223.85L639.59 223.88L639.58 223.91L639.58 223.93L639.57 223.96L639.57 223.98L639.56 224.01L639.55 224.04L639.55 224.07L639.54 224.11L639.53 224.14L639.52 224.17L639.52 224.2L639.51 224.23L639.5 224.27L639.49 224.3L639.49 224.33L639.48 224.36L639.47 224.39L639.46 224.43L639.45 224.46L639.45 224.49L639.44 224.52L639.43 224.55L639.42 224.58L639.41 224.62L639.41 224.65L639.4 224.68L639.39 224.71L639.38 224.74L639.37 224.78L639.36 224.81L639.35 224.84L639.35 224.87L639.34 224.9L639.33 224.93L639.32 224.97L639.31 225L639.3 225.03L639.29 225.06L639.28 225.09L639.28 225.12L639.27 225.16L639.26 225.19L639.25 225.22L639.24 225.25L639.23 225.29L639.22 225.3L639.21 225.34L639.21 225.35L639.2 225.39L639.19 225.42L639.18 225.46L639.17 225.47L639.16 225.51L639.15 225.54L639.14 225.58L639.13 225.61L639.12 225.64L639.11 225.66L639.1 225.69L639.09 225.73L639.09 225.74L639.08 225.78L639.06 225.83L639.04 225.88L639.03 225.93L639.01 225.99L639 226.02L638.99 226.05L638.98 226.08L638.97 226.11L638.96 226.14L638.95 226.16L638.94 226.19L638.93 226.22L638.92 226.25L638.9 226.28L638.89 226.31L638.88 226.34L638.87 226.37L638.86 226.4L638.85 226.43L638.84 226.46L638.83 226.48L638.82 226.51L638.81 226.54L638.8 226.57L638.79 226.6L638.78 226.63L638.77 226.66L638.76 226.69L638.75 226.72L638.74 226.75L638.72 226.77L638.71 226.8L638.7 226.83L638.69 226.86L638.68 226.89L638.67 226.92L638.66 226.95L638.65 226.98L638.63 227L638.62 227.03L638.61 227.06L638.6 227.09L638.59 227.11L638.58 227.14L638.57 227.15L638.56 227.19L638.55 227.2L638.54 227.23L638.53 227.25L638.52 227.28L638.51 227.31L638.5 227.33L638.49 227.34L638.48 227.37L638.46 227.4L638.46 227.42L638.44 227.45L638.42 227.5L638.41 227.53L638.36 227.62L638.34 227.67L638.33 227.7L638.31 227.74L638.3 227.76L638.29 227.78L638.27 227.83L638.25 227.87L638.23 227.92L638.22 227.94L638.21 227.97L638.19 228.01L638.16 228.06L638.15 228.08L638.14 228.1L638.13 228.12L638.12 228.15L638.11 228.17L638.1 228.19L638.09 228.21L638.08 228.24L638.06 228.28L638.05 228.3L638.03 228.33L638.02 228.35L638.01 228.37L638 228.4L637.99 228.42L637.98 228.44L637.97 228.46L637.96 228.48L637.94 228.51L637.93 228.53L637.92 228.55L637.91 228.57L637.9 228.6L637.89 228.62L637.88 228.63L637.85 228.68L637.83 228.73L637.82 228.74L637.81 228.76L637.81 228.77L637.8 228.79L637.77 228.83L637.76 228.86L637.73 228.91L637.73 228.92L637.72 228.94L637.7 228.97L637.68 229L637.68 229.01L637.67 229.03L637.65 229.06L637.63 229.09L637.62 229.12L637.6 229.15L637.59 229.16L637.58 229.18L637.57 229.21L637.56 229.22L637.55 229.25L637.53 229.27L637.52 229.29L637.51 229.31L637.49 229.34L637.48 229.36L637.47 229.38L637.46 229.4L637.44 229.43L637.43 229.45L637.42 229.47L637.4 229.49L637.39 229.51L637.38 229.54L637.36 229.56L637.35 229.58L637.34 229.6L637.32 229.63L637.31 229.65L637.3 229.67L637.28 229.69L637.27 229.71L637.26 229.74L637.24 229.76L637.23 229.78L637.21 229.8L637.2 229.82L637.19 229.85L637.17 229.87L637.16 229.89L637.15 229.91L637.13 229.93L637.12 229.96L637.1 229.98L637.08 230.02L637.06 230.04L637.05 230.07L637.03 230.09L637.02 230.11L637 230.14L636.99 230.16L636.96 230.2L636.92 230.27L636.88 230.32L636.85 230.38L636.84 230.39L636.83 230.4L636.81 230.44L636.79 230.47L636.77 230.49L636.77 230.51L636.75 230.53L636.73 230.56L636.72 230.57L636.71 230.59L636.7 230.61L636.69 230.62L636.68 230.64L636.66 230.66L636.64 230.69L636.62 230.71L636.61 230.74L636.59 230.76L636.57 230.79L636.55 230.82L636.53 230.84L636.52 230.87L636.5 230.89L636.48 230.92L636.46 230.94L636.44 230.97L636.42 230.99L636.41 231.02L636.39 231.04L636.37 231.07L636.35 231.09L636.33 231.12L636.31 231.14L636.29 231.17L636.28 231.19L636.26 231.22L636.24 231.24L636.22 231.27L636.2 231.29L636.18 231.32L636.16 231.34L636.14 231.37L636.12 231.39L636.1 231.42L636.09 231.44L636.07 231.46L636.05 231.49L636.03 231.51L636.01 231.54L635.99 231.56L635.97 231.59L635.95 231.61L635.93 231.64L635.92 231.65L635.9 231.67L635.89 231.69L635.87 231.71L635.85 231.74L635.84 231.76L635.81 231.79L635.8 231.8L635.8 231.81L635.79 231.82L635.78 231.84L635.77 231.85L635.75 231.88L635.73 231.89L635.72 231.91L635.71 231.93L635.7 231.94L635.69 231.95L635.68 231.96L635.67 231.98L635.66 231.99L635.65 232L635.64 232.02L635.63 232.03L334.61 591.75L334.61 591.75L334.6 591.76L334.6 591.77L334.59 591.77L334.57 591.8L334.57 591.8L334.56 591.81L334.55 591.82L334.55 591.83L334.38 592.02L334.38 592.03L334.36 592.04L334.36 592.05L334.35 592.06L334.33 592.08L334.31 592.1L334.3 592.11L334.29 592.13L334.27 592.15L334.27 592.15L334.26 592.16L334.25 592.17L334.25 592.18L334.24 592.18L334.23 592.19L334.23 592.2L334.22 592.21L334.21 592.22L334.16 592.27L334.15 592.28L334.14 592.29L334.14 592.3L334.13 592.31L334.12 592.31L334.12 592.32L334.11 592.33L334.1 592.34L334.1 592.34L334.09 592.35L334.06 592.38L334.04 592.4L334.02 592.43L334 592.45L333.98 592.47L333.96 592.49L333.94 592.52L333.92 592.54L333.9 592.56L333.88 592.58L333.86 592.61L333.84 592.63L333.82 592.65L333.8 592.67L333.78 592.69L333.76 592.72L333.74 592.74L333.72 592.76L333.7 592.78L333.68 592.8L333.66 592.83L333.64 592.85L333.62 592.87L333.6 592.89L333.58 592.91L333.56 592.93L333.54 592.96L333.51 592.98L333.49 593L333.47 593.02L333.45 593.04L333.43 593.06L333.41 593.09L333.39 593.11L333.37 593.13L333.35 593.15L333.33 593.17L333.31 593.19L333.28 593.21L333.26 593.24L333.26 593.24L333.24 593.26L333.22 593.28L333.19 593.31L333.18 593.32L333.12 593.39L333.09 593.42L333.07 593.44L333.06 593.45L333.05 593.45L333.04 593.46L333.04 593.47L333.03 593.48L333.02 593.48L333 593.51L332.98 593.52L332.97 593.54L332.97 593.54L332.96 593.54L332.95 593.56L332.94 593.56L332.91 593.58L332.9 593.6L332.89 593.6L332.89 593.61L332.88 593.61L332.86 593.64L332.83 593.66L332.81 593.68L332.78 593.7L332.76 593.73L332.73 593.75L332.71 593.77L332.69 593.79L332.66 593.82L332.64 593.84L332.61 593.86L332.59 593.88L332.56 593.9L332.54 593.93L332.51 593.95L332.49 593.97L332.46 593.99L332.44 594.01L332.41 594.04L332.39 594.06L332.37 594.08L332.34 594.1L332.32 594.12L332.29 594.14L332.27 594.17L332.24 594.19L332.22 594.21L332.19 594.23L332.17 594.25L332.14 594.27L332.12 594.29L332.09 594.32L332.06 594.34L332.04 594.36L332.01 594.38L331.99 594.4L331.96 594.42L331.94 594.44L331.91 594.46L331.89 594.48L331.88 594.49L331.87 594.5L331.87 594.5L331.86 594.51L331.85 594.51L331.85 594.52L331.84 594.52L331.83 594.53L331.83 594.54L331.82 594.54L331.81 594.55L331.81 594.55L331.8 594.56L331.79 594.56L331.79 594.57L331.78 594.58L331.75 594.61L331.74 594.61L331.73 594.62L331.72 594.62L331.72 594.63L331.71 594.63L331.7 594.64L331.7 594.65L331.69 594.65L331.68 594.66L331.68 594.66L331.67 594.67L331.66 594.67L331.66 594.68L331.65 594.69L331.64 594.69L331.64 594.7L331.63 594.7L331.62 594.71L331.62 594.71L331.6 594.73L331.59 594.73L331.57 594.75L331.56 594.75L331.52 594.78L331.51 594.79L331.5 594.79L331.49 594.81L331.47 594.82L331.46 594.83L331.44 594.84L331.43 594.85L331.42 594.86L331.41 594.87L331.39 594.88L331.37 594.89L331.34 594.92L331.31 594.94L331.29 594.95L331.27 594.96L331.26 594.98L331.23 594.99L331.19 595.03L331.16 595.04L331.14 595.06L331.1 595.1L331.07 595.11L331.05 595.13L331.03 595.15L331 595.16L330.98 595.18L330.96 595.2L330.93 595.21L330.91 595.23L330.89 595.25L330.86 595.26L330.84 595.28L330.82 595.3L330.79 595.32L330.77 595.33L330.75 595.35L330.72 595.36L330.7 595.38L330.67 595.4L330.65 595.41L330.63 595.43L330.6 595.45L330.58 595.46L330.56 595.48L330.53 595.5L330.51 595.51L330.49 595.53L330.46 595.54L330.44 595.56L330.41 595.58L330.39 595.59L330.37 595.61L330.34 595.62L330.32 595.64L330.31 595.65L330.28 595.67L330.24 595.69L330.21 595.71L330.19 595.72L330.17 595.74L330.15 595.75L330.13 595.76L330.11 595.78L330.07 595.8L330.04 595.82L329.99 595.85L329.89 595.91L329.83 595.94L329.79 595.97L329.74 596L329.71 596.02L329.68 596.04L329.64 596.06L329.63 596.07L329.61 596.08L329.59 596.09L329.58 596.1L329.55 596.12L329.53 596.13L329.51 596.14L329.5 596.15L329.46 596.17L329.42 596.19L329.4 596.2L329.37 596.22L329.35 596.23L329.31 596.26L329.29 596.27L329.25 596.29L329.23 596.3L329.2 596.32L329.18 596.33L329.14 596.35L329.12 596.36L329.1 596.37L329.07 596.39L329.05 596.4L329.01 596.42L328.97 596.44L328.95 596.45L328.91 596.47L328.86 596.5L328.82 596.52L328.79 596.54L328.75 596.56L328.65 596.62L328.62 596.63L328.57 596.66L328.54 596.67L328.51 596.69L328.49 596.7L328.46 596.71L328.42 596.73L328.41 596.74L328.4 596.75L328.39 596.75L328.36 596.76L328.34 596.78L328.31 596.79L328.28 596.8L328.26 596.82L328.23 596.83L328.17 596.86L328.13 596.88L328.09 596.9L328.07 596.91L328.05 596.92L328.04 596.93L328.01 596.94L328 596.94L327.98 596.96L327.96 596.96L327.94 596.97L327.92 596.98L327.89 596.99L327.87 597L327.83 597.02L327.79 597.04L327.77 597.05L327.75 597.05L327.73 597.06L327.66 597.09L327.62 597.11L327.57 597.14L327.55 597.15L327.5 597.17L327.48 597.18L327.43 597.2L327.38 597.22L327.33 597.24L327.31 597.25L327.29 597.26L327.26 597.27L327.24 597.28L327.22 597.29L327.19 597.3L327.17 597.31L327.14 597.32L327.12 597.33L327.1 597.34L327.07 597.35L327.05 597.36L327.03 597.37L327 597.38L326.98 597.39L326.95 597.4L326.93 597.41L326.91 597.42L326.88 597.43L326.86 597.44L326.83 597.45L326.81 597.46L326.79 597.47L326.78 597.47L326.77 597.48L326.76 597.48L326.75 597.49L326.73 597.49L326.68 597.51L326.67 597.51L326.66 597.51L326.65 597.52L326.63 597.52L326.61 597.53L326.58 597.54L326.56 597.55L326.54 597.56L326.51 597.57L326.49 597.58L326.47 597.58L326.41 597.6L326.38 597.61L326.35 597.62L326.32 597.63L326.29 597.64L326.25 597.66L326.18 597.68L326.17 597.68L326.12 597.7L326.08 597.72L326.04 597.73L326.01 597.74L326 597.75L325.95 597.76L325.93 597.77L325.9 597.78L325.89 597.78L325.85 597.8L325.75 597.83L325.71 597.84L325.68 597.85L325.63 597.87L325.57 597.89L325.53 597.9L325.49 597.91L325.46 597.92L325.43 597.93L325.4 597.94L325.37 597.95L325.34 597.96L325.32 597.96L325.3 597.97L325.25 597.98L325.23 597.99L325.2 598L325.19 598L325.16 598.01L325.13 598.02L325.11 598.03L325.08 598.03L325.05 598.04L325.01 598.05L324.97 598.06L324.96 598.06L324.91 598.08L324.8 598.11L324.75 598.12L324.72 598.13L324.69 598.14L324.67 598.14L324.66 598.14L324.61 598.16L324.58 598.17L324.5 598.19L324.45 598.2L324.4 598.21L324.37 598.22L324.35 598.23L324.32 598.23L324.29 598.24L324.27 598.25L324.24 598.25L324.21 598.26L324.18 598.27L324.16 598.27L324.13 598.28L324.12 598.29L324.1 598.29L324.1 598.29L324.09 598.29L324.08 598.29L324.07 598.29L324.06 598.3L324.04 598.3L324.02 598.31L323.99 598.31L323.97 598.32L323.94 598.32L323.92 598.32L323.9 598.33L323.83 598.34L323.8 598.35L323.79 598.35L323.76 598.35L323.75 598.35L323.73 598.36L323.7 598.37L323.64 598.38L323.61 598.38L323.57 598.39L323.52 598.4L323.48 598.41L323.43 598.42L323.39 598.43L323.34 598.44L323.31 598.44L323.27 598.45L323.24 598.45L323.21 598.46L323.18 598.46L323.15 598.47L323.14 598.47L323.1 598.48L323.08 598.48L323.06 598.49L323.03 598.49L323.01 598.49L322.97 598.5L322.95 598.5L322.93 598.51L322.88 598.51L322.86 598.52L322.82 598.52L322.8 598.53L322.75 598.53L322.73 598.54L322.69 598.54L322.64 598.55L322.6 598.55L322.55 598.56L322.53 598.56L322.49 598.57L322.47 598.57L322.42 598.58L322.4 598.58L322.36 598.59L322.31 598.59L322.27 598.6L322.25 598.6L322.23 598.6L322.21 598.6L322.2 598.61L322.17 598.61L322.1 598.62L322.05 598.63L322.03 598.63L322.02 598.63L321.99 598.63L321.96 598.64L321.92 598.64L321.84 598.65L321.79 598.66L321.75 598.66L321.71 598.66L321.68 598.67L321.65 598.67L321.61 598.67L321.58 598.68L321.56 598.68L321.52 598.68L321.48 598.69L321.44 598.69L321.4 598.69L321.37 598.69L321.33 598.7L321.29 598.7L321.25 598.7L321.22 598.7L321.18 598.71L321.14 598.71L321.11 598.71L321.07 598.71L321.03 598.72L320.99 598.72L320.96 598.72L320.92 598.72L320.88 598.73L320.84 598.73L320.8 598.73L320.77 598.73L320.73 598.73L320.69 598.73L320.65 598.74L320.62 598.74L320.58 598.74L320.54 598.74L320.5 598.74L320.47 598.74L320.43 598.74L320.39 598.74L320.35 598.74L320.32 598.74L320.28 598.75L320.24 598.75L320.2 598.75L320.17 598.75L320.13 598.75L320.09 598.75L320.05 598.75L320.05 598.75L320.02 598.75L320.01 598.75L319.99 598.75L319.96 598.75L319.95 598.75L319.91 598.75L319.87 598.75L319.83 598.75L319.8 598.75L319.76 598.75L319.72 598.75L319.68 598.74L319.64 598.74L319.61 598.74L319.57 598.74L319.53 598.74L319.49 598.74L319.46 598.74L319.42 598.74L319.38 598.74L319.34 598.74L319.31 598.73L319.27 598.73L319.23 598.73L319.19 598.73L319.16 598.73L319.12 598.73L319.08 598.72L319.04 598.72L319.01 598.72L318.97 598.72L318.93 598.71L318.89 598.71L318.86 598.71L318.82 598.71L318.78 598.7L318.74 598.7L318.71 598.7L318.67 598.7L318.63 598.69L318.59 598.69L318.56 598.69L318.52 598.69L318.48 598.68L318.44 598.68L318.42 598.68L318.39 598.67L318.36 598.67L318.35 598.67L318.32 598.67L318.28 598.66L318.23 598.66L318.14 598.65L318.1 598.64L318.08 598.64L318.03 598.63L318.01 598.63L317.98 598.63L317.95 598.63L317.92 598.62L317.86 598.61L317.81 598.61L317.79 598.6L317.77 598.6L317.71 598.59L317.66 598.59L317.64 598.59L317.6 598.58L317.55 598.58L317.51 598.57L317.47 598.56L317.42 598.56L317.4 598.56L317.36 598.55L317.31 598.54L317.29 598.54L317.25 598.53L317.2 598.53L317.18 598.52L317.14 598.52L317.11 598.51L317.09 598.51L317.05 598.5L317.03 598.5L317 598.5L316.98 598.49L316.96 598.49L316.94 598.49L316.92 598.48L316.84 598.47L316.83 598.47L316.8 598.46L316.78 598.46L316.76 598.45L316.73 598.45L316.7 598.44L316.65 598.44L316.62 598.43L316.58 598.42L316.54 598.41L316.48 598.4L316.45 598.4L316.39 598.39L316.38 598.38L316.29 598.37L316.28 598.36L316.27 598.36L316.24 598.35L316.21 598.35L316.19 598.35L316.16 598.34L316.1 598.33L316.07 598.32L316.05 598.32L316.03 598.32L316 598.31L315.98 598.31L315.97 598.3L315.94 598.3L315.94 598.3L315.92 598.3L315.91 598.29L315.91 598.29L315.87 598.28L315.85 598.28L315.84 598.28L315.8 598.27L315.79 598.26L315.75 598.26L315.72 598.25L315.69 598.24L315.66 598.23L315.64 598.23L315.61 598.22L315.56 598.21L315.51 598.19L315.41 598.17L315.37 598.15L315.33 598.14L315.32 598.14L315.29 598.13L315.27 598.13L315.2 598.11L315.19 598.11L315.16 598.1L315.07 598.08L315.03 598.07L315 598.06L314.96 598.05L314.94 598.04L314.92 598.04L314.88 598.02L314.85 598.02L314.83 598.01L314.82 598.01L314.79 598L314.78 598L314.75 597.99L314.74 597.99L314.72 597.98L314.71 597.98L314.68 597.97L314.66 597.96L314.63 597.95L314.62 597.95L314.59 597.94L314.56 597.93L314.53 597.92L314.5 597.91L314.47 597.9L314.42 597.89L314.38 597.88L314.34 597.86L314.31 597.85L314.25 597.83L314.23 597.83L314.14 597.8L314.11 597.79L314.09 597.78L314.07 597.77L314.03 597.76L314.02 597.76L313.99 597.75L313.96 597.74L313.94 597.73L313.9 597.72L313.86 597.7L313.83 597.69L313.78 597.67L313.71 597.65L313.7 597.64L313.68 597.64L313.65 597.63L313.64 597.62L313.61 597.61L313.53 597.59L313.49 597.57L313.49 597.57L313.48 597.57L313.45 597.56L313.42 597.55L313.39 597.54L313.37 597.53L313.35 597.52L313.34 597.52L313.33 597.51L313.32 597.51L313.31 597.51L313.28 597.5L313.27 597.5L313.26 597.49L313.24 597.49L313.23 597.48L313.22 597.48L313.19 597.47L313.17 597.46L313.14 597.45L313.12 597.44L313.09 597.43L313.07 597.42L313.05 597.41L313.02 597.4L313 597.39L312.97 597.38L312.95 597.37L312.93 597.36L312.9 597.35L312.88 597.34L312.85 597.33L312.83 597.32L312.8 597.31L312.78 597.3L312.76 597.29L312.73 597.28L312.71 597.27L312.68 597.25L312.66 597.24L312.61 597.22L312.56 597.2L312.52 597.18L312.47 597.16L312.44 597.15L312.42 597.14L312.37 597.12L312.32 597.09L312.25 597.06L312.24 597.06L312.22 597.05L312.19 597.03L312.15 597.02L312.11 597L312.1 597L312.09 596.99L312.07 596.98L312.06 596.98L312.04 596.97L312.03 596.97L312.01 596.96L311.99 596.95L311.96 596.93L311.96 596.93L311.93 596.92L311.91 596.91L311.89 596.9L311.86 596.88L311.83 596.87L311.75 596.82L311.69 596.8L311.67 596.79L311.66 596.78L311.64 596.77L311.63 596.77L311.61 596.76L311.58 596.74L311.55 596.73L311.54 596.72L311.52 596.71L311.49 596.69L311.46 596.68L311.44 596.67L311.39 596.64L311.38 596.64L311.33 596.61L311.28 596.59L311.22 596.55L311.2 596.54L311.15 596.51L311.11 596.49L311.07 596.47L311.05 596.46L311.01 596.44L310.98 596.42L310.96 596.41L310.94 596.4L310.9 596.38L310.88 596.37L310.86 596.36L310.82 596.34L310.8 596.33L310.76 596.3L310.74 596.29L310.71 596.27L310.67 596.25L310.65 596.24L310.63 596.23L310.61 596.22L310.57 596.2L310.53 596.17L310.5 596.15L310.46 596.13L310.42 596.11L310.39 596.09L310.38 596.08L310.37 596.08L310.37 596.07L310.35 596.07L310.3 596.04L310.27 596.02L310.25 596L310.21 595.98L310.17 595.96L310.15 595.94L310.11 595.92L310.08 595.9L310.03 595.87L309.97 595.83L309.93 595.8L309.88 595.78L309.87 595.77L309.86 595.77L309.85 595.76L309.82 595.74L309.79 595.72L309.77 595.71L309.75 595.69L309.72 595.67L309.71 595.66L309.69 595.66L309.66 595.64L309.64 595.62L309.61 595.6L309.59 595.59L309.56 595.57L309.54 595.55L309.51 595.54L309.49 595.52L309.47 595.5L309.44 595.49L309.42 595.47L309.39 595.46L309.37 595.44L309.34 595.42L309.32 595.41L309.3 595.39L309.27 595.37L309.25 595.35L309.23 595.34L309.2 595.32L309.18 595.3L309.15 595.29L309.13 595.27L309.11 595.25L309.08 595.24L309.06 595.22L309.03 595.2L309.01 595.18L308.99 595.17L308.96 595.15L308.94 595.13L308.92 595.11L308.89 595.1L308.87 595.08L308.85 595.06L308.82 595.04L308.8 595.03L308.78 595.01L308.75 594.99L308.71 594.96L308.7 594.96L308.7 594.95L308.68 594.94L308.67 594.93L308.63 594.9L308.61 594.89L308.59 594.87L308.58 594.87L308.57 594.86L308.55 594.85L308.53 594.83L308.52 594.82L308.51 594.81L308.49 594.8L308.45 594.77L308.43 594.76L308.42 594.75L308.4 594.73L308.39 594.73L308.39 594.72L308.37 594.71L308.36 594.7L308.35 594.7L308.35 594.69L308.33 594.68L308.32 594.67L308.3 594.66L308.29 594.65L308.28 594.63L308.26 594.62L308.22 594.59L308.2 594.57L308.18 594.55L308.16 594.53L308.15 594.52L308.14 594.51L308.1 594.49L308.08 594.46L308.05 594.44L308.03 594.42L308 594.4L307.97 594.38L307.95 594.36L307.92 594.34L307.9 594.31L307.87 594.29L307.85 594.27L307.82 594.25L307.79 594.23L307.77 594.2L307.74 594.18L307.72 594.16L307.69 594.14L307.67 594.12L307.64 594.09L307.62 594.07L307.59 594.05L307.57 594.03L307.54 594L307.51 593.98L307.49 593.96L307.46 593.94L307.44 593.91L307.41 593.89L307.39 593.87L307.36 593.85L307.34 593.82L307.31 593.8L307.29 593.78L307.26 593.75L307.24 593.73L307.21 593.71L307.19 593.69L307.17 593.66L307.14 593.64L307.12 593.62L307.11 593.61L307.1 593.6L307.09 593.59L307.07 593.57L307.05 593.56L307.04 593.55L307.03 593.54L307.02 593.53L307.01 593.52L306.99 593.51L306.98 593.49L306.96 593.48L306.95 593.46L306.94 593.45L306.92 593.43L306.91 593.42L306.89 593.4L306.84 593.34L306.81 593.31L306.8 593.31L306.79 593.3L306.78 593.28L306.76 593.26L306.74 593.25L306.72 593.23L306.7 593.2L306.68 593.18L306.66 593.16L306.64 593.14L306.61 593.12L306.59 593.1L306.57 593.07L306.55 593.05L306.53 593.03L306.51 593.01L306.49 592.99L306.47 592.97L306.45 592.94L306.42 592.92L306.4 592.9L306.38 592.88L306.36 592.86L306.34 592.83L306.32 592.81L306.3 592.79L306.28 592.77L306.26 592.74L306.24 592.72L306.22 592.7L306.2 592.68L306.18 592.65L306.15 592.63L306.13 592.61L306.11 592.59L306.09 592.56L306.07 592.54L306.05 592.52L306.03 592.5L306.01 592.47L305.99 592.45L305.97 592.43L305.95 592.4L305.93 592.38L305.91 592.36L305.9 592.34L305.88 592.33L305.87 592.31L305.86 592.3L305.84 592.28L305.82 592.26L305.78 592.21L305.75 592.18L305.73 592.16L305.72 592.14L305.7 592.13L305.69 592.11L305.68 592.1L305.66 592.07L305.65 592.07L305.65 592.06L305.64 592.06L305.64 592.05L305.63 592.04L305.62 592.04L305.62 592.03L305.47 591.85L305.46 591.84L305.45 591.83L305.42 591.79L305.4 591.77L305.39 591.76L305.39 591.76L305.39 591.76L305.39 591.76L305.39 591.75L305.38 591.75L305.38 591.75L4.37 232.03L4.36 232.02L4.36 232.02L4.36 232.01L4.35 232.01L4.34 231.99L4.33 231.98L4.31 231.96L4.3 231.94L4.29 231.93L4.28 231.92L4.27 231.9L4.25 231.88L4.24 231.87L4.22 231.84L4.21 231.83L4.21 231.83L4.17 231.78L4.14 231.73L4.13 231.73L4.13 231.72L4.12 231.71L4.11 231.7L4.1 231.68L4.08 231.66L4.07 231.64L4.05 231.62L4.03 231.59L4.01 231.57L3.99 231.54L3.97 231.52L3.95 231.5L3.93 231.47L3.91 231.45L3.9 231.42L3.88 231.4L3.86 231.37L3.84 231.35L3.82 231.32L3.8 231.3L3.78 231.27L3.76 231.25L3.74 231.22L3.72 231.2L3.71 231.17L3.69 231.15L3.67 231.12L3.65 231.1L3.63 231.07L3.61 231.05L3.59 231.02L3.58 231L3.56 230.97L3.54 230.95L3.52 230.92L3.5 230.9L3.48 230.87L3.47 230.85L3.45 230.82L3.43 230.8L3.41 230.77L3.39 230.75L3.38 230.72L3.36 230.69L3.34 230.67L3.31 230.63L3.3 230.62L3.3 230.6L3.29 230.59L3.27 230.57L3.25 230.54L3.24 230.53L3.23 230.51L3.23 230.5L3.22 230.49L3.2 230.46L3.18 230.43L3.17 230.41L3.14 230.37L3.12 230.34L3.12 230.33L3.11 230.32L3.04 230.21L3.01 230.17L3 230.14L2.98 230.12L2.97 230.1L2.95 230.07L2.94 230.05L2.92 230.03L2.9 229.99L2.88 229.96L2.87 229.94L2.85 229.92L2.84 229.9L2.83 229.88L2.81 229.85L2.8 229.83L2.79 229.81L2.77 229.79L2.76 229.76L2.74 229.74L2.73 229.72L2.72 229.7L2.7 229.68L2.69 229.65L2.68 229.63L2.66 229.61L2.65 229.59L2.64 229.57L2.62 229.54L2.61 229.52L2.6 229.5L2.58 229.48L2.57 229.45L2.56 229.43L2.54 229.41L2.53 229.39L2.52 229.36L2.51 229.34L2.49 229.32L2.48 229.3L2.47 229.27L2.45 229.25L2.44 229.23L2.42 229.18L2.39 229.14L2.37 229.11L2.35 229.06L2.32 229.02L2.32 229L2.3 228.97L2.28 228.94L2.26 228.9L2.25 228.88L2.23 228.84L2.21 228.81L2.19 228.78L2.17 228.73L2.16 228.72L2.15 228.7L2.15 228.69L2.14 228.67L2.13 228.66L2.11 228.63L2.1 228.6L2.09 228.58L2.08 228.56L2.07 228.54L2.06 228.51L2.04 228.49L2.03 228.47L2.02 228.45L2.01 228.42L2 228.4L1.99 228.38L1.98 228.36L1.97 228.33L1.95 228.31L1.94 228.29L1.92 228.24L1.91 228.22L1.9 228.2L1.89 228.18L1.88 228.15L1.87 228.13L1.86 228.11L1.85 228.09L1.84 228.06L1.81 228.02L1.79 227.97L1.78 227.95L1.77 227.93L1.75 227.88L1.73 227.84L1.71 227.79L1.7 227.77L1.69 227.74L1.68 227.72L1.66 227.69L1.64 227.64L1.64 227.63L1.63 227.61L1.58 227.5L1.56 227.47L1.54 227.43L1.53 227.39L1.52 227.38L1.51 227.35L1.49 227.32L1.49 227.3L1.47 227.27L1.47 227.25L1.45 227.22L1.44 227.19L1.43 227.18L1.42 227.14L1.41 227.11L1.4 227.1L1.39 227.07L1.38 227.04L1.37 227.01L1.35 226.98L1.34 226.95L1.33 226.92L1.32 226.9L1.31 226.87L1.3 226.84L1.29 226.81L1.27 226.78L1.26 226.75L1.25 226.72L1.24 226.69L1.23 226.66L1.22 226.64L1.21 226.61L1.2 226.58L1.19 226.55L1.18 226.52L1.17 226.49L1.16 226.46L1.15 226.43L1.14 226.4L1.13 226.37L1.12 226.35L1.1 226.32L1.09 226.29L1.08 226.26L1.07 226.23L1.06 226.2L1.05 226.17L1.04 226.14L1.03 226.11L1.02 226.08L1.01 226.05L1 226.02L0.99 226L0.98 225.97L0.97 225.94L0.96 225.89L0.94 225.84L0.92 225.78L0.91 225.73L0.9 225.7L0.89 225.67L0.88 225.65L0.87 225.62L0.86 225.58L0.85 225.55L0.84 225.51L0.83 225.5L0.82 225.46L0.81 225.43L0.8 225.39L0.8 225.38L0.79 225.34L0.78 225.33L0.77 225.29L0.77 225.27L0.75 225.23L0.74 225.19L0.73 225.16L0.72 225.13L0.72 225.1L0.71 225.07L0.7 225.04L0.69 225L0.68 224.97L0.67 224.94L0.66 224.91L0.65 224.88L0.65 224.84L0.64 224.81L0.63 224.78L0.62 224.75L0.61 224.72L0.6 224.69L0.59 224.65L0.59 224.62L0.58 224.59L0.57 224.56L0.56 224.53L0.55 224.49L0.55 224.46L0.54 224.43L0.53 224.4L0.52 224.37L0.51 224.34L0.51 224.3L0.5 224.27L0.49 224.24L0.48 224.21L0.48 224.18L0.47 224.14L0.46 224.11L0.45 224.08L0.45 224.05L0.44 224.02L0.43 223.98L0.43 223.97L0.42 223.94L0.42 223.91L0.41 223.87L0.41 223.86L0.4 223.83L0.4 223.8L0.39 223.78L0.39 223.75L0.38 223.73L0.38 223.72L0.38 223.69L0.37 223.67L0.36 223.62L0.36 223.58L0.35 223.54L0.33 223.45L0.32 223.39L0.32 223.36L0.31 223.33L0.31 223.3L0.3 223.27L0.3 223.25L0.29 223.22L0.29 223.19L0.28 223.16L0.28 223.14L0.27 223.11L0.27 223.08L0.26 223.05L0.26 223.03L0.25 223L0.25 222.97L0.25 222.94L0.24 222.92L0.24 222.89L0.23 222.86L0.23 222.83L0.22 222.81L0.22 222.78L0.22 222.75L0.21 222.72L0.21 222.7L0.2 222.67L0.2 222.64L0.19 222.61L0.19 222.59L0.19 222.56L0.18 222.53L0.18 222.5L0.18 222.48L0.17 222.45L0.17 222.42L0.16 222.39L0.16 222.37L0.16 222.34L0.15 222.31L0.15 222.28L0.15 222.25L0.14 222.21L0.14 222.16L0.13 222.1L0.12 222.06L0.12 222L0.11 221.95L0.11 221.91L0.1 221.88L0.1 221.83L0.1 221.8L0.1 221.79L0.09 221.76L0.09 221.73L0.09 221.7L0.09 221.68L0.08 221.65L0.08 221.62L0.08 221.58L0.07 221.55L0.07 221.51L0.07 221.48L0.07 221.44L0.06 221.41L0.06 221.37L0.06 221.34L0.06 221.3L0.05 221.27L0.05 221.23L0.05 221.2L0.05 221.17L0.04 221.13L0.04 221.1L0.04 221.06L0.04 221.03L0.04 220.99L0.03 220.96L0.03 220.92L0.03 220.89L0.03 220.85L0.03 220.82L0.03 220.78L0.03 220.75L0.02 220.71L0.02 220.68L0.02 220.64L0.02 220.61L0.02 220.57L0.02 220.54L0.02 220.5L0.02 220.47L0.02 220.43L0.01 220.4L0.01 220.36L0.01 220.33L0.01 220.29L0.01 220.26L0.01 220.25L0.01 220.23L0.01 220.22L0.01 220.21L0.01 220.2L0.01 220.18L0.01 220.17L0.01 220.14L0.01 220.12L0 220.11L0 220.09L0 220.07L0 220.05L0 220.04L0 220.02L0 220.01L0 220L0 219.99L0 219.98L0 219.96L0 219.95L0 219.94L0 219.89L0 219.85L0 219.81L0.01 219.76L0.01 219.72L0.01 219.68L0.01 219.63L0.01 219.59L0.01 219.55L0.01 219.51L0.01 219.46L0.01 219.42L0.01 219.38L0.02 219.33L0.02 219.29L0.02 219.25L0.02 219.21L0.02 219.16L0.03 219.12L0.03 219.08L0.03 219.04L0.03 218.99L0.03 218.95L0.04 218.91L0.04 218.86L0.04 218.82L0.04 218.78L0.05 218.74L0.05 218.69L0.05 218.65L0.06 218.61L0.06 218.57L0.06 218.52L0.07 218.48L0.07 218.44L0.07 218.4L0.08 218.35L0.08 218.31L0.09 218.27L0.09 218.22L0.09 218.2L0.1 218.17L0.1 218.15L0.1 218.13L0.1 218.11L0.1 218.09L0.11 218.07L0.11 218.04L0.11 218.01L0.12 217.99L0.12 217.96L0.13 217.92L0.13 217.86L0.14 217.84L0.14 217.79L0.15 217.75L0.15 217.73L0.16 217.67L0.16 217.64L0.17 217.61L0.17 217.58L0.17 217.56L0.18 217.53L0.18 217.5L0.18 217.47L0.19 217.44L0.19 217.41L0.2 217.38L0.2 217.36L0.2 217.33L0.21 217.3L0.21 217.27L0.22 217.24L0.22 217.21L0.23 217.18L0.23 217.15L0.23 217.13L0.24 217.1L0.24 217.07L0.25 217.04L0.25 217.01L0.26 216.98L0.26 216.95L0.27 216.93L0.27 216.9L0.27 216.87L0.28 216.84L0.28 216.81L0.29 216.78L0.29 216.75L0.3 216.72L0.3 216.7L0.31 216.67L0.31 216.64L0.32 216.61L0.32 216.58L0.33 216.55L0.34 216.52L0.35 216.47L0.35 216.45L0.36 216.4L0.37 216.35L0.38 216.3L0.39 216.25L0.4 216.2L0.41 216.17L0.42 216.12L0.43 216.07L0.43 216.04L0.44 215.99L0.45 215.96L0.46 215.92L0.46 215.91L0.47 215.89L0.47 215.86L0.48 215.84L0.48 215.81L0.49 215.79L0.49 215.76L0.5 215.74L0.51 215.72L0.51 215.69L0.52 215.67L0.52 215.64L0.53 215.62L0.54 215.59L0.54 215.57L0.55 215.54L0.56 215.52L0.56 215.49L0.57 215.44L0.58 215.42L0.59 215.39L0.59 215.37L0.6 215.34L0.61 215.32L0.61 215.29L0.62 215.27L0.63 215.24L0.63 215.22L0.64 215.19L0.65 215.17L0.65 215.14L0.67 215.09L0.67 215.07L0.69 215.02L0.69 214.99L0.7 214.97L0.71 214.95L0.72 214.9L0.73 214.86L0.74 214.83L0.75 214.78L0.78 214.7L0.79 214.65L0.8 214.6L0.81 214.57L0.82 214.55L0.83 214.52L0.83 214.5L0.84 214.47L0.85 214.45L0.86 214.42L0.87 214.39L0.88 214.35L0.89 214.32L0.89 214.3L0.9 214.29L0.9 214.27L0.91 214.26L0.92 214.21L0.93 214.18L0.94 214.15L0.95 214.12L0.96 214.09L0.97 214.06L0.98 214.03L0.99 214L1 213.97L1.01 213.94L1.02 213.91L1.03 213.88L1.04 213.85L1.05 213.82L1.06 213.79L1.07 213.76L1.09 213.73L1.1 213.7L1.11 213.67L1.12 213.64L1.13 213.61L1.14 213.58L1.15 213.55L1.16 213.52L1.17 213.49L1.18 213.46L1.2 213.43L1.21 213.4L1.22 213.37L1.23 213.35L1.24 213.32L1.25 213.29L1.26 213.26L1.28 213.23L1.29 213.2L1.3 213.17L1.31 213.14L1.32 213.11L1.33 213.08L1.35 213.05L1.35 213.03L1.36 213.01L1.37 212.99L1.38 212.97L1.39 212.95L1.4 212.91L1.42 212.87L1.43 212.85L1.44 212.81L1.46 212.77L1.47 212.75L1.49 212.71L1.49 212.69L1.51 212.65L1.52 212.63L1.54 212.59L1.55 212.57L1.56 212.53L1.57 212.51L1.59 212.48L1.6 212.46L1.61 212.44L1.62 212.4L1.63 212.38L1.64 212.36L1.66 212.32L1.67 212.3L1.69 212.26L1.7 212.24L1.72 212.18L1.74 212.13L1.76 212.11L1.77 212.08L1.78 212.06L1.79 212.03L1.8 212.01L1.81 211.98L1.84 211.93L1.85 211.9L1.86 211.88L1.87 211.85L1.89 211.83L1.9 211.8L1.91 211.78L1.92 211.75L1.93 211.73L1.95 211.7L1.96 211.68L1.97 211.65L1.98 211.62L1.99 211.6L2.01 211.57L2.02 211.55L2.03 211.52L2.04 211.5L2.06 211.47L2.07 211.45L2.08 211.42L2.1 211.4L2.11 211.37L2.12 211.35L2.13 211.32L2.15 211.3L2.16 211.27L2.17 211.25L2.18 211.23L2.19 211.21L2.2 211.2L2.21 211.18L2.23 211.15L2.23 211.13L2.25 211.1L2.26 211.09L2.27 211.07L2.29 211.04L2.3 211.02L2.31 211.01L2.32 210.98L2.34 210.94L2.35 210.93L2.36 210.91L2.39 210.87L2.41 210.83L2.42 210.8L2.46 210.74L2.5 210.68L2.52 210.65L2.53 210.62L2.54 210.6L2.55 210.59L2.57 210.56L2.58 210.53L2.6 210.5L2.62 210.46L2.64 210.43L2.66 210.39L2.68 210.35L2.7 210.31L2.71 210.3L2.73 210.27L2.74 210.25L2.75 210.23L2.77 210.2L2.78 210.18L2.78 210.17L2.79 210.16L2.8 210.14L2.81 210.13L2.82 210.12L2.82 210.1L2.83 210.09L2.84 210.07L2.85 210.06L102.85 50.06L102.86 50.05L102.87 50.03L102.88 50.02L102.88 50.01L102.9 49.98L102.91 49.96L102.92 49.95L102.93 49.94L102.94 49.92L102.96 49.9L102.97 49.87L102.99 49.84L103.01 49.81L103.04 49.77L103.08 49.72L103.11 49.67L103.14 49.63L103.16 49.6L103.19 49.56L103.2 49.55L103.2 49.53L103.21 49.52L103.22 49.51L103.23 49.49L103.25 49.47L103.27 49.43L103.3 49.39L103.33 49.35L103.33 49.34L103.34 49.33L103.35 49.32L103.35 49.31L103.36 49.3L103.39 49.26L103.4 49.24L103.41 49.22L103.43 49.2L103.44 49.18L103.47 49.15L103.49 49.11L103.51 49.08L103.53 49.05L103.55 49.02L103.58 48.99L103.6 48.96L103.62 48.93L103.64 48.9L103.66 48.87L103.69 48.84L103.71 48.81L103.73 48.78L103.75 48.75L103.78 48.72L103.8 48.69L103.82 48.66L103.84 48.63L103.87 48.6L103.89 48.57L103.91 48.54L103.94 48.51L103.96 48.48L103.98 48.45L104.01 48.42L104.03 48.39L104.05 48.36L104.08 48.34L104.1 48.31L104.12 48.28L104.15 48.25L104.17 48.22L104.19 48.19L104.22 48.16L104.24 48.13L104.26 48.1L104.29 48.07L104.31 48.04L104.33 48.02L104.36 47.99L104.37 47.97L104.38 47.96L104.39 47.95L104.41 47.93L104.42 47.91L104.45 47.88L104.45 47.87L104.46 47.87L104.48 47.85L104.5 47.82L104.52 47.8L104.54 47.78L104.59 47.73L104.62 47.69L104.64 47.66L104.67 47.63L104.68 47.61L104.7 47.59L104.72 47.57L104.74 47.55L104.76 47.53L104.78 47.51L104.8 47.48L104.82 47.46L104.84 47.44L104.86 47.42L104.88 47.4L104.9 47.38L104.92 47.36L104.93 47.34L104.95 47.31L104.97 47.29L104.99 47.27L105.01 47.25L105.03 47.23L105.05 47.21L105.07 47.19L105.09 47.17L105.11 47.15L105.13 47.13L105.15 47.1L105.17 47.08L105.19 47.06L105.21 47.04L105.23 47.02L105.25 47L105.27 46.98L105.29 46.96L105.31 46.94L105.33 46.92L105.35 46.9L105.37 46.88L105.39 46.86L105.41 46.84L105.43 46.82L105.45 46.8L105.47 46.77L105.48 46.77L105.51 46.73L105.55 46.7L105.62 46.62L105.63 46.62L105.63 46.61L105.64 46.6L105.65 46.59L105.67 46.57L105.7 46.54L105.72 46.52L105.75 46.49L105.77 46.47L105.78 46.46L105.8 46.44L105.82 46.42L105.85 46.4L105.87 46.37L105.9 46.35L105.93 46.32L105.95 46.3L105.98 46.27L106.01 46.25L106.03 46.22L106.06 46.2L106.09 46.17L106.11 46.15L106.14 46.13L106.17 46.1L106.19 46.08L106.22 46.05L106.25 46.03L106.27 46L106.3 45.98L106.33 45.96L106.36 45.93L106.38 45.91L106.41 45.88L106.44 45.86L106.47 45.84L106.49 45.81L106.52 45.79L106.55 45.77L106.58 45.74L106.6 45.72L106.63 45.7L106.66 45.67L106.69 45.65L106.72 45.63L106.74 45.6L106.77 45.58L106.8 45.56L106.83 45.53L106.85 45.51L106.88 45.49L106.91 45.46L106.92 45.46L106.95 45.43L106.98 45.41L107.01 45.39L107.02 45.38L107.03 45.37L107.06 45.34L107.1 45.32L107.12 45.3L107.15 45.28L107.18 45.25L107.22 45.23L107.35 45.12L107.37 45.11L107.4 45.09L107.42 45.07L107.45 45.05L107.47 45.03L107.5 45.01L107.52 44.99L107.55 44.97L107.58 44.95L107.6 44.93L107.63 44.92L107.65 44.9L107.68 44.88L107.7 44.86L107.73 44.84L107.75 44.82L107.78 44.8L107.81 44.78L107.83 44.77L107.86 44.75L107.88 44.73L107.91 44.71L107.93 44.69L107.96 44.67L107.99 44.66L108.01 44.64L108.04 44.62L108.06 44.6L108.09 44.58L108.12 44.57L108.14 44.55L108.17 44.53L108.19 44.51L108.22 44.49L108.25 44.48L108.27 44.46L108.3 44.44L108.33 44.42L108.35 44.4L108.38 44.39L108.4 44.37L108.42 44.36L108.44 44.35L108.47 44.33L108.53 44.29L108.53 44.28L108.54 44.28L108.55 44.27L108.56 44.27L108.56 44.26L108.57 44.25L108.58 44.25L108.59 44.24L108.59 44.24L108.6 44.23L108.62 44.22L108.63 44.21L108.65 44.2L108.67 44.19L108.71 44.16L108.74 44.14L108.78 44.12L108.81 44.1L108.84 44.08L108.88 44.06L108.91 44.04L108.94 44.02L108.98 44L109.01 43.98L109.04 43.96L109.08 43.94L109.11 43.92L109.14 43.9L109.18 43.88L109.21 43.86L109.24 43.84L109.28 43.82L109.31 43.8L109.35 43.78L109.38 43.76L109.41 43.74L109.45 43.73L109.48 43.71L109.52 43.69L109.55 43.67L109.58 43.65L109.62 43.63L109.65 43.61L109.69 43.59L109.72 43.57L109.76 43.56L109.79 43.54L109.82 43.52L109.86 43.5L109.89 43.48L109.93 43.46L109.96 43.45L110 43.43L110.03 43.41L110.06 43.39L110.11 43.37L110.16 43.34L110.2 43.32L110.23 43.31L110.26 43.29L110.31 43.26L110.32 43.26L110.33 43.26L110.34 43.25L110.35 43.25L110.36 43.24L110.36 43.24L110.38 43.23L110.4 43.22L110.44 43.2L110.48 43.18L110.51 43.16L110.55 43.14L110.59 43.13L110.63 43.11L110.66 43.09L110.7 43.07L110.74 43.05L110.77 43.04L110.81 43.02L110.85 43L110.89 42.98L110.92 42.97L110.96 42.95L111 42.93L111.04 42.92L111.07 42.9L111.11 42.88L111.15 42.86L111.19 42.85L111.23 42.83L111.26 42.81L111.3 42.8L111.34 42.78L111.38 42.76L111.42 42.75L111.45 42.73L111.49 42.72L111.53 42.7L111.57 42.68L111.61 42.67L111.64 42.65L111.68 42.64L111.72 42.62L111.76 42.6L111.8 42.59L111.84 42.57L111.88 42.56L111.91 42.54L111.92 42.54L111.92 42.54L111.94 42.53L111.96 42.52L111.96 42.52L111.97 42.52L111.99 42.51L112 42.51L112.01 42.5L112.02 42.5L112.03 42.5L112.05 42.49L112.09 42.48L112.11 42.47L112.12 42.47L112.13 42.47L112.14 42.46L112.14 42.46L112.18 42.45L112.22 42.43L112.25 42.42L112.29 42.41L112.32 42.39L112.36 42.38L112.4 42.37L112.43 42.35L112.47 42.34L112.51 42.33L112.54 42.32L112.58 42.3L112.61 42.29L112.65 42.28L112.69 42.27L112.72 42.25L112.76 42.24L112.8 42.23L112.83 42.22L112.87 42.2L112.9 42.19L112.94 42.18L112.98 42.17L113.01 42.16L113.05 42.15L113.09 42.13L113.12 42.12L113.16 42.11L113.2 42.1L113.23 42.09L113.27 42.08L113.31 42.07L113.34 42.05L113.38 42.04L113.42 42.03L113.45 42.02L113.49 42.01L113.53 42L113.57 41.99L113.61 41.98L113.63 41.97L113.65 41.97L113.69 41.95L113.69 41.95L113.77 41.93L113.78 41.93L113.82 41.91L113.84 41.91L113.86 41.9L113.88 41.9L113.9 41.89L113.94 41.88L113.98 41.87L114.02 41.86L114.05 41.85L114.09 41.84L114.13 41.83L114.17 41.82L114.21 41.81L114.24 41.8L114.28 41.79L114.32 41.78L114.36 41.77L114.39 41.77L114.43 41.76L114.47 41.75L114.51 41.74L114.55 41.73L114.58 41.72L114.62 41.71L114.66 41.71L114.7 41.7L114.74 41.69L114.78 41.68L114.81 41.67L114.85 41.66L114.89 41.66L114.93 41.65L114.97 41.64L115 41.63L115.04 41.63L115.08 41.62L115.12 41.61L115.16 41.6L115.2 41.6L115.23 41.59L115.27 41.58L115.31 41.57L115.35 41.57L115.39 41.56L115.43 41.55L115.45 41.55L115.48 41.54L115.52 41.54L115.54 41.53L115.58 41.53L115.62 41.52L115.66 41.51L115.71 41.5L115.74 41.5L115.79 41.49L115.84 41.48L115.9 41.48L115.93 41.47L115.98 41.46L116.01 41.46L116.04 41.46L116.07 41.45L116.1 41.45L116.13 41.44L116.16 41.44L116.19 41.43L116.22 41.43L116.25 41.43L116.28 41.42L116.31 41.42L116.34 41.41L116.37 41.41L116.4 41.41L116.43 41.4L116.46 41.4L116.49 41.4L116.52 41.39L116.55 41.39L116.58 41.38L116.61 41.38L116.64 41.38L116.67 41.37L116.7 41.37L116.73 41.37L116.76 41.36L116.79 41.36L116.82 41.36L116.85 41.35L116.88 41.35L116.91 41.35L116.94 41.35L116.97 41.34L117 41.34L117.03 41.34L117.06 41.33L117.09 41.33L117.12 41.33L117.2 41.32L117.24 41.32L117.3 41.31L117.35 41.31L117.39 41.31L117.44 41.3L117.47 41.3L117.5 41.3L117.53 41.3L117.56 41.29L117.58 41.29L117.61 41.29L117.63 41.29L117.66 41.29L117.69 41.29L117.72 41.28L117.75 41.28L117.8 41.28L117.85 41.28L117.9 41.27L117.95 41.27L117.97 41.27L118.02 41.27L118.05 41.27L118.07 41.27L118.12 41.26L118.15 41.26L118.17 41.26L118.2 41.26L118.22 41.26L118.25 41.26L118.27 41.26L118.3 41.26L118.32 41.26L118.35 41.26L118.37 41.26L118.4 41.25L118.42 41.25L118.45 41.25L118.47 41.25L118.5 41.25L118.52 41.25L118.55 41.25L118.57 41.25L118.6 41.25L118.62 41.25L118.65 41.25L118.67 41.25L118.7 41.25L118.72 41.25L118.75 41.25L521.25 41.25L521.27 41.25L521.3 41.25ZM320 528.05L431.96 238.75L208.03 238.75L320 528.05ZM261.56 480.94L167.82 238.75L58.89 238.75L261.56 480.94ZM378.44 480.94L581.11 238.75L472.18 238.75L378.44 480.94ZM587.42 201.25L525.21 101.71L486.69 201.25L587.42 201.25ZM153.31 201.25L114.79 101.71L52.58 201.25L153.31 201.25ZM417.07 201.25L320 88.71L222.93 201.25L417.07 201.25ZM452.71 185.15L493.89 78.75L360.93 78.75L452.71 185.15ZM187.29 185.15L279.07 78.75L146.11 78.75L187.29 185.15Z" id="ejiYk0DtE"></path><linearGradient id="gradientbA4Qmc1zy" gradientUnits="userSpaceOnUse" x1="320" y1="41.25" x2="320" y2="598.75"><stop style="stop-color: #d1ebf3;stop-opacity: 1" offset="0%"></stop><stop style="stop-color: #8a5f5f;stop-opacity: 1" offset="100%"></stop></linearGradient></defs><g><g><g><use xlink:href="#ejiYk0DtE" opacity="1" fill="url(#gradientbA4Qmc1zy)"></use><g><use xlink:href="#ejiYk0DtE" opacity="1" fill-opacity="0" stroke="#000000" stroke-width="1" stroke-opacity="0"></use></g></g></g></g></svg>