<?xml version="1.0" encoding="UTF-8" standalone="no"?>
<!DOCTYPE svg PUBLIC "-//W3C//DTD SVG 1.1//EN" "http://www.w3.org/Graphics/SVG/1.1/DTD/svg11.dtd">
<svg version="1.1" xmlns="http://www.w3.org/2000/svg" xmlns:xlink="http://www.w3.org/1999/xlink" preserveAspectRatio="xMidYMid meet" viewBox="0 0 640 640" width="260" height="260"><defs><path d="M515.31 32.54L515.98 32.58L516.64 32.64L517.29 32.72L517.94 32.82L518.59 32.93L519.23 33.06L519.87 33.2L521.13 33.54L521.75 33.74L522.37 33.95L522.98 34.17L523.58 34.42L524.17 34.67L524.76 34.94L525.34 35.23L525.92 35.53L526.48 35.85L527.04 36.18L527.59 36.53L528.12 36.88L528.65 37.26L529.17 37.65L529.68 38.05L530.18 38.46L530.67 38.89L531.15 39.33L531.62 39.78L532.08 40.25L532.52 40.73L532.96 41.22L533.38 41.73L533.79 42.24L534.18 42.77L534.56 43.31L534.93 43.86L535.29 44.43L535.63 45L636.68 220L637.06 220.69L637.41 221.38L637.75 222.08L638.06 222.79L638.35 223.5L638.61 224.22L638.85 224.95L639.07 225.68L639.26 226.42L639.44 227.16L639.58 227.91L639.71 228.66L639.81 229.41L639.89 230.16L639.95 230.92L639.99 231.67L640 232.43L639.99 233.18L639.96 233.94L639.9 234.69L639.82 235.44L639.72 236.19L639.6 236.94L639.46 237.68L639.29 238.42L639.1 239.16L638.89 239.88L638.66 240.61L638.4 241.32L638.12 242.03L637.82 242.73L637.5 243.43L637.16 244.11L636.79 244.79L636.4 245.45L636 246.11L635.56 246.75L635.11 247.39L634.64 248.01L634.14 248.62L339.12 598.63L338.36 599.48L337.57 600.3L336.76 601.07L335.92 601.8L335.05 602.49L334.16 603.13L333.24 603.73L332.31 604.28L331.35 604.79L330.38 605.26L329.4 605.68L328.4 606.06L327.38 606.39L326.36 606.68L325.32 606.93L324.28 607.13L323.23 607.29L322.18 607.4L321.12 607.47L320.06 607.5L319 607.48L317.94 607.42L316.89 607.31L315.83 607.16L314.79 606.96L313.75 606.72L312.72 606.43L311.71 606.1L310.7 605.73L309.71 605.31L308.73 604.84L307.77 604.33L306.83 603.78L305.91 603.18L305.01 602.53L304.13 601.84L303.28 601.1L302.45 600.32L301.65 599.5L300.89 598.63L5.86 248.62L5.37 248.01L4.9 247.39L4.45 246.76L4.02 246.12L3.61 245.47L3.22 244.81L2.86 244.14L2.51 243.45L2.19 242.76L1.89 242.06L1.61 241.36L1.36 240.64L1.12 239.92L0.91 239.19L0.72 238.46L0.55 237.72L0.41 236.98L0.28 236.24L0.18 235.49L0.1 234.74L0.05 233.98L0.01 233.23L0 232.47L0.01 231.71L0.05 230.96L0.1 230.2L0.18 229.45L0.28 228.7L0.41 227.94L0.56 227.2L0.73 226.45L0.93 225.71L1.14 224.98L1.39 224.25L1.65 223.52L1.94 222.8L2.25 222.09L2.59 221.39L2.94 220.69L3.33 220L104.37 45L104.71 44.43L105.07 43.86L105.44 43.31L105.82 42.77L106.22 42.24L106.63 41.73L107.05 41.22L107.48 40.73L107.93 40.25L108.38 39.78L108.85 39.33L109.33 38.89L109.82 38.46L110.32 38.05L110.83 37.65L111.35 37.26L111.88 36.89L112.42 36.53L112.97 36.18L113.52 35.85L114.09 35.53L114.66 35.23L115.24 34.94L115.83 34.67L116.42 34.42L117.03 34.17L117.64 33.95L118.25 33.74L118.87 33.54L120.13 33.2L120.77 33.06L121.41 32.93L122.06 32.82L122.71 32.72L123.37 32.64L124.03 32.58L124.69 32.54L125.36 32.51L126.02 32.5L513.98 32.5L514.65 32.51L515.31 32.54ZM320 492.37L387.81 257.51L252.2 257.51L320 492.37ZM263.39 476.56L200.15 257.51L78.75 257.51L263.39 476.56ZM376.61 476.56L561.25 257.51L439.85 257.51L376.61 476.56ZM435.48 207.5L571.72 207.5L499.54 82.5L363.31 82.5L435.48 207.5ZM68.28 207.5L204.52 207.5L276.7 82.5L140.46 82.5L68.28 207.5ZM377.74 207.5L320 107.5L262.26 207.5L377.74 207.5Z" id="a2x30cqGu0"></path><linearGradient id="gradienta1bSz4V6Vk" gradientUnits="userSpaceOnUse" x1="0" y1="320" x2="640" y2="320"><stop style="stop-color: #80d8ff;stop-opacity: 1" offset="0%"></stop><stop style="stop-color: #88d1ff;stop-opacity: 1" offset="16%"></stop><stop style="stop-color: #9fbefe;stop-opacity: 1" offset="41.3%"></stop><stop style="stop-color: #c4a0fd;stop-opacity: 1" offset="72.5%"></stop><stop style="stop-color: #ea80fc;stop-opacity: 1" offset="100%"></stop></linearGradient><path d="M515.31 32.54L515.98 32.58L516.64 32.64L517.29 32.72L517.94 32.82L518.59 32.93L519.23 33.06L519.87 33.2L521.13 33.54L521.75 33.74L522.37 33.95L522.98 34.17L523.58 34.42L524.17 34.67L524.76 34.94L525.34 35.23L525.92 35.53L526.48 35.85L527.04 36.18L527.59 36.53L528.12 36.88L528.65 37.26L529.17 37.65L529.68 38.05L530.18 38.46L530.67 38.89L531.15 39.33L531.62 39.78L532.08 40.25L532.52 40.73L532.96 41.22L533.38 41.73L533.79 42.24L534.18 42.77L534.56 43.31L534.93 43.86L535.29 44.43L535.63 45L636.68 220L637.06 220.69L637.41 221.38L637.75 222.08L638.06 222.79L638.35 223.5L638.61 224.22L638.85 224.95L639.07 225.68L639.26 226.42L639.44 227.16L639.58 227.91L639.71 228.66L639.81 229.41L639.89 230.16L639.95 230.92L639.99 231.67L640 232.43L639.99 233.18L639.96 233.94L639.9 234.69L639.82 235.44L639.72 236.19L639.6 236.94L639.46 237.68L639.29 238.42L639.1 239.16L638.89 239.88L638.66 240.61L638.4 241.32L638.12 242.03L637.82 242.73L637.5 243.43L637.16 244.11L636.79 244.79L636.4 245.45L636 246.11L635.56 246.75L635.11 247.39L634.64 248.01L634.14 248.62L339.12 598.63L338.36 599.48L337.57 600.3L336.76 601.07L335.92 601.8L335.05 602.49L334.16 603.13L333.24 603.73L332.31 604.28L331.35 604.79L330.38 605.26L329.4 605.68L328.4 606.06L327.38 606.39L326.36 606.68L325.32 606.93L324.28 607.13L323.23 607.29L322.18 607.4L321.12 607.47L320.06 607.5L319 607.48L317.94 607.42L316.89 607.31L315.83 607.16L314.79 606.96L313.75 606.72L312.72 606.43L311.71 606.1L310.7 605.73L309.71 605.31L308.73 604.84L307.77 604.33L306.83 603.78L305.91 603.18L305.01 602.53L304.13 601.84L303.28 601.1L302.45 600.32L301.65 599.5L300.89 598.63L5.86 248.62L5.37 248.01L4.9 247.39L4.45 246.76L4.02 246.12L3.61 245.47L3.22 244.81L2.86 244.14L2.51 243.45L2.19 242.76L1.89 242.06L1.61 241.36L1.36 240.64L1.12 239.92L0.91 239.19L0.72 238.46L0.55 237.72L0.41 236.98L0.28 236.24L0.18 235.49L0.1 234.74L0.05 233.98L0.01 233.23L0 232.47L0.01 231.71L0.05 230.96L0.1 230.2L0.18 229.45L0.28 228.7L0.41 227.94L0.56 227.2L0.73 226.45L0.93 225.71L1.14 224.98L1.39 224.25L1.65 223.52L1.94 222.8L2.25 222.09L2.59 221.39L2.94 220.69L3.33 220L104.37 45L104.71 44.43L105.07 43.86L105.44 43.31L105.82 42.77L106.22 42.24L106.63 41.73L107.05 41.22L107.48 40.73L107.93 40.25L108.38 39.78L108.85 39.33L109.33 38.89L109.82 38.46L110.32 38.05L110.83 37.65L111.35 37.26L111.88 36.89L112.42 36.53L112.97 36.18L113.52 35.85L114.09 35.53L114.66 35.23L115.24 34.94L115.83 34.67L116.42 34.42L117.03 34.17L117.64 33.95L118.25 33.74L118.87 33.54L120.13 33.2L120.77 33.06L121.41 32.93L122.06 32.82L122.71 32.72L123.37 32.64L124.03 32.58L124.69 32.54L125.36 32.51L126.02 32.5L513.98 32.5L514.65 32.51L515.31 32.54ZM320 492.37L387.81 257.51L252.2 257.51L320 492.37ZM263.39 476.56L200.15 257.51L78.75 257.51L263.39 476.56ZM376.61 476.56L561.25 257.51L439.85 257.51L376.61 476.56ZM435.48 207.5L571.72 207.5L499.54 82.5L363.31 82.5L435.48 207.5ZM68.28 207.5L204.52 207.5L276.7 82.5L140.46 82.5L68.28 207.5ZM377.74 207.5L320 107.5L262.26 207.5L377.74 207.5Z" id="ao8EINu9a"></path></defs><g><g><g><use xlink:href="#a2x30cqGu0" opacity="1" fill="url(#gradienta1bSz4V6Vk)"></use><g><use xlink:href="#a2x30cqGu0" opacity="1" fill-opacity="0" stroke="#000000" stroke-width="1" stroke-opacity="0"></use></g></g><g><use xlink:href="#ao8EINu9a" opacity="1" fill="#000000" fill-opacity="0"></use><g><use xlink:href="#ao8EINu9a" opacity="1" fill-opacity="0" stroke="#000000" stroke-width="1" stroke-opacity="0"></use></g></g></g></g></svg>