<?xml version="1.0" encoding="UTF-8" standalone="no"?>
<!DOCTYPE svg PUBLIC "-//W3C//DTD SVG 1.1//EN" "http://www.w3.org/Graphics/SVG/1.1/DTD/svg11.dtd">
<svg version="1.1" xmlns="http://www.w3.org/2000/svg" xmlns:xlink="http://www.w3.org/1999/xlink" preserveAspectRatio="xMidYMid meet" viewBox="0 0 640 640" width="260" height="260"><defs><path d="M320.22 213.77L11.19 213.77L320.22 597.39L320.22 213.77Z" id="e1LNKCJQ1F"></path><path d="M320.22 213.77L629.25 213.77L320.22 597.39L320.22 213.77Z" id="c120ehaOrC"></path><path d="M224.31 213.77L330.87 43.27L522.69 43.27L629.25 213.77L224.31 213.77Z" id="e5Xi4ccRyL"></path><path d="M11.19 213.77L117.75 43.27L309.56 43.27L416.12 213.77L11.19 213.77Z" id="b38rWpfPpc"></path><path d="M53.81 213.77L575.97 213.77L320.22 597.39L53.81 213.77Z" id="bHud5Tpr"></path><path d="M53.81 213.77L160.38 43.27L480.06 43.27L586.62 213.77L53.81 213.77Z" id="b24GQ1SRQ6"></path><path d="M629.88 203.13L630.19 203.15L630.49 203.18L630.8 203.21L631.09 203.26L631.39 203.31L631.68 203.37L631.96 203.44L632.24 203.51L632.52 203.6L632.8 203.69L633.06 203.79L633.33 203.9L633.59 204.01L633.85 204.14L634.1 204.27L634.35 204.41L634.6 204.56L634.84 204.71L635.08 204.88L635.31 205.05L635.54 205.23L635.77 205.42L635.99 205.61L636.21 205.82L636.42 206.03L636.63 206.25L636.84 206.48L637.04 206.71L637.24 206.96L637.43 207.21L637.62 207.47L637.81 207.73L637.99 208.01L638.17 208.29L638.34 208.59L638.51 208.89L638.68 209.19L638.84 209.51L638.99 209.83L639.13 210.15L639.26 210.47L639.38 210.79L639.49 211.11L639.59 211.42L639.67 211.74L639.75 212.06L639.81 212.37L639.87 212.69L639.91 213L639.95 213.32L639.98 213.63L639.99 213.94L640 214.25L640 214.56L639.99 214.86L639.97 215.17L639.94 215.47L639.9 215.77L639.86 216.07L639.81 216.36L639.75 216.66L639.68 216.95L639.61 217.24L639.53 217.53L639.44 217.81L639.34 218.09L639.24 218.37L639.14 218.65L639.02 218.92L638.91 219.19L638.78 219.46L638.65 219.72L638.52 219.98L638.38 220.24L638.23 220.49L638.08 220.74L637.93 220.99L637.77 221.23L328.74 604.85L328.58 605.01L328.42 605.17L328.25 605.31L328.07 605.46L327.9 605.6L327.72 605.74L327.53 605.87L327.34 606L327.15 606.13L326.96 606.25L326.77 606.37L326.57 606.48L326.36 606.59L326.16 606.7L325.95 606.8L325.74 606.9L325.53 606.99L325.32 607.08L325.1 607.17L324.88 607.25L324.66 607.33L324.44 607.4L324.21 607.47L323.99 607.54L323.76 607.6L323.53 607.66L323.3 607.71L323.07 607.76L322.83 607.81L322.6 607.85L322.36 607.89L322.13 607.92L321.89 607.95L321.65 607.98L321.42 608L321.18 608.02L320.94 608.03L320.7 608.04L320.46 608.05L320.22 608.05L319.98 608.05L319.74 608.04L319.5 608.03L319.26 608.02L319.02 608L318.78 607.97L318.55 607.95L318.31 607.91L318.07 607.88L317.84 607.83L317.6 607.79L317.37 607.73L317.14 607.68L316.91 607.61L316.68 607.54L316.45 607.47L316.22 607.39L316 607.31L315.78 607.21L315.56 607.12L315.34 607.02L315.12 606.91L314.91 606.79L314.69 606.67L314.48 606.54L314.28 606.41L314.07 606.27L313.87 606.12L313.67 605.96L313.47 605.8L313.28 605.63L313.09 605.46L312.9 605.28L312.72 605.09L312.54 604.89L312.36 604.68L312.19 604.47L312.02 604.25L311.86 604.02L311.69 603.79L2.66 220.17L2.51 219.92L2.35 219.68L2.2 219.43L2.06 219.18L1.92 218.92L1.78 218.66L1.65 218.4L1.53 218.13L1.41 217.86L1.3 217.59L1.19 217.31L1.09 217.03L1 216.75L0.91 216.46L0.83 216.18L0.75 215.89L0.69 215.59L0.63 215.3L0.58 215L0.53 214.7L0.5 214.4L0.47 214.1L0.45 213.8L0.44 213.49L0.44 213.18L0.44 212.87L0.46 212.56L0.49 212.25L0.52 211.94L0.57 211.62L0.62 211.31L0.69 210.99L0.76 210.68L0.85 210.36L0.94 210.04L1.05 209.72L1.17 209.4L1.3 209.08L1.44 208.76L1.6 208.44L1.76 208.21L1.93 207.97L2.1 207.74L2.27 207.52L2.45 207.3L2.63 207.08L2.82 206.87L3.01 206.66L3.2 206.46L3.4 206.26L3.6 206.07L3.8 205.88L4.01 205.7L4.23 205.52L4.45 205.35L4.67 205.19L4.89 205.03L5.12 204.87L5.36 204.72L5.59 204.58L5.84 204.44L6.08 204.31L6.33 204.19L6.59 204.07L6.84 203.96L7.11 203.85L7.37 203.75L7.64 203.66L7.91 203.58L8.19 203.5L8.47 203.43L8.76 203.36L9.05 203.31L9.34 203.26L9.64 203.21L9.94 203.18L10.25 203.15L10.56 203.13L10.87 203.12L11.19 203.12L629.25 203.12L629.56 203.12L629.88 203.13ZM320.22 580.34L606.87 224.43L33.57 224.43L320.22 580.34Z" id="c1fPihgp9"></path><path d="M523.17 32.63L523.42 32.65L523.67 32.68L523.93 32.71L524.18 32.76L524.44 32.81L524.7 32.86L524.96 32.93L525.22 33L525.48 33.08L525.74 33.16L525.99 33.26L526.25 33.35L526.51 33.46L526.76 33.57L527.01 33.69L527.26 33.81L527.51 33.95L527.75 34.08L527.98 34.22L528.22 34.37L528.45 34.53L528.67 34.69L528.89 34.85L529.1 35.03L529.3 35.2L529.5 35.38L529.69 35.57L529.88 35.76L530.05 35.96L530.22 36.16L530.38 36.37L530.53 36.58L530.67 36.8L530.8 37.02L530.92 37.24L531.03 37.47L531.12 37.71L531.21 37.95L637.77 208.44L637.93 208.69L638.08 208.93L638.22 209.18L638.35 209.43L638.47 209.69L638.59 209.95L638.7 210.21L638.8 210.47L638.89 210.74L638.97 211.01L639.05 211.28L639.12 211.55L639.18 211.82L639.23 212.1L639.27 212.38L639.31 212.65L639.33 212.93L639.35 213.21L639.37 213.49L639.37 213.77L639.37 214.05L639.35 214.33L639.33 214.61L639.31 214.89L639.27 215.17L639.23 215.44L639.18 215.72L639.12 215.99L639.05 216.26L638.97 216.54L638.89 216.8L638.8 217.07L638.7 217.33L638.59 217.6L638.47 217.85L638.35 218.11L638.22 218.36L638.08 218.61L637.93 218.86L637.77 219.1L637.69 219.34L637.6 219.57L637.5 219.8L637.39 220.03L637.27 220.25L637.15 220.46L637.02 220.67L636.89 220.88L636.74 221.08L636.59 221.28L636.43 221.47L636.27 221.66L636.09 221.84L635.92 222.02L635.73 222.19L635.54 222.36L635.34 222.52L635.14 222.67L634.93 222.82L634.71 222.96L634.49 223.1L634.26 223.23L634.02 223.35L633.78 223.47L633.54 223.58L633.29 223.69L633.03 223.79L632.77 223.88L632.5 223.97L632.23 224.04L631.95 224.12L631.67 224.18L631.38 224.24L631.09 224.29L630.79 224.33L630.49 224.36L630.19 224.39L629.88 224.41L629.56 224.42L629.25 224.43L11.19 224.43L10.87 224.42L10.56 224.41L10.25 224.39L9.94 224.36L9.64 224.33L9.34 224.29L9.05 224.24L8.76 224.18L8.47 224.12L8.19 224.04L7.91 223.97L7.64 223.88L7.37 223.79L7.11 223.69L6.84 223.58L6.59 223.47L6.33 223.35L6.08 223.23L5.84 223.1L5.59 222.96L5.36 222.82L5.12 222.67L4.89 222.52L4.67 222.36L4.45 222.19L4.23 222.02L4.01 221.84L3.8 221.66L3.6 221.47L3.4 221.28L3.2 221.08L3.01 220.88L2.82 220.67L2.63 220.46L2.45 220.25L2.27 220.03L2.1 219.8L1.93 219.57L1.76 219.34L1.6 219.1L1.44 218.86L1.29 218.61L1.15 218.36L1.02 218.11L0.9 217.85L0.78 217.6L0.68 217.33L0.58 217.07L0.48 216.8L0.4 216.54L0.32 216.26L0.26 215.99L0.2 215.72L0.14 215.44L0.1 215.17L0.06 214.89L0.04 214.61L0.02 214.33L0 214.05L0 213.77L0 213.49L0.02 213.21L0.04 212.93L0.06 212.65L0.1 212.38L0.14 212.1L0.2 211.82L0.26 211.55L0.32 211.28L0.4 211.01L0.48 210.74L0.58 210.47L0.68 210.21L0.78 209.95L0.9 209.69L1.02 209.43L1.15 209.18L1.29 208.93L1.44 208.69L1.6 208.44L108.16 37.95L108.32 37.71L108.5 37.47L108.67 37.24L108.86 37.02L109.05 36.8L109.25 36.58L109.46 36.37L109.67 36.16L109.89 35.96L110.11 35.76L110.34 35.57L110.57 35.38L110.8 35.2L111.04 35.03L111.29 34.85L111.54 34.69L111.79 34.53L112.04 34.37L112.3 34.22L112.56 34.08L112.82 33.95L113.08 33.81L113.34 33.69L113.61 33.57L113.87 33.46L114.14 33.35L114.41 33.26L114.67 33.16L114.94 33.08L115.2 33L115.47 32.93L115.73 32.86L115.99 32.81L116.25 32.76L116.51 32.71L116.76 32.68L117.01 32.65L117.26 32.63L117.51 32.62L117.75 32.62L522.69 32.62L522.93 32.62L523.17 32.63ZM30.37 203.12L610.07 203.12L516.29 53.93L124.14 53.93L30.37 203.12Z" id="c69dLUKMJG"></path><path d="M310.63 600.59C290.38 545.18 128.41 101.88 108.16 46.47C106.03 41.14 108.16 35.81 114.55 33.68C119.88 31.55 126.28 34.75 128.41 40.08C148.65 95.49 310.63 538.79 330.87 594.2C333.01 599.53 329.81 605.92 324.48 608.05C322.35 608.05 321.28 608.05 320.22 608.05C315.96 608.05 311.69 604.85 310.63 600.59Z" id="a5bQZGDVkg"></path><path d="M317.02 596.33C311.69 594.2 308.5 587.8 310.63 582.48C330.87 528.13 492.85 93.36 513.09 39.01C515.23 33.68 521.62 30.49 526.95 32.62C532.27 34.75 535.47 41.14 533.34 46.47C513.09 100.82 351.12 535.59 330.87 589.94C328.74 595.26 324.48 597.39 320.22 597.39C319.15 597.39 318.09 597.39 317.02 596.33Z" id="a2cjJIwilO"></path><path d="M175.29 222.3C171.03 219.1 169.97 211.64 174.23 207.38C188.08 190.33 298.91 53.93 312.76 36.88C315.96 32.62 323.41 31.55 327.68 35.81C331.94 39.01 333.01 46.47 328.74 50.73C314.89 67.78 204.07 204.18 190.21 221.23C188.08 223.36 184.88 224.43 181.69 224.43C179.56 224.43 177.43 223.36 175.29 222.3Z" id="ba9SKR1w2"></path><path d="M450.22 220.17C436.37 203.12 325.55 66.72 311.69 49.67C308.5 45.4 308.5 37.94 312.76 34.75C317.02 31.55 324.48 31.55 327.68 35.81C341.53 52.86 452.35 189.26 466.21 206.31C469.4 210.57 469.4 218.03 465.14 221.23C463.01 223.36 460.88 224.43 458.75 224.43C455.55 224.43 452.35 223.36 450.22 220.17Z" id="cGtr7gTJk"></path></defs><g><g><g><use xlink:href="#e1LNKCJQ1F" opacity="1" fill="#ffffff" fill-opacity="1"></use><g><use xlink:href="#e1LNKCJQ1F" opacity="1" fill-opacity="0" stroke="#000000" stroke-width="1" stroke-opacity="0"></use></g></g><g><use xlink:href="#c120ehaOrC" opacity="1" fill="#cccccc" fill-opacity="1"></use><g><use xlink:href="#c120ehaOrC" opacity="1" fill-opacity="0" stroke="#000000" stroke-width="1" stroke-opacity="0"></use></g></g><g><use xlink:href="#e5Xi4ccRyL" opacity="1" fill="#cccccc" fill-opacity="1"></use><g><use xlink:href="#e5Xi4ccRyL" opacity="1" fill-opacity="0" stroke="#000000" stroke-width="1" stroke-opacity="0"></use></g></g><g><use xlink:href="#b38rWpfPpc" opacity="1" fill="#ffffff" fill-opacity="1"></use><g><use xlink:href="#b38rWpfPpc" opacity="1" fill-opacity="0" stroke="#000000" stroke-width="1" stroke-opacity="0"></use></g></g><g><use xlink:href="#bHud5Tpr" opacity="1" fill="#e2e3e5" fill-opacity="1"></use><g><use xlink:href="#bHud5Tpr" opacity="1" fill-opacity="0" stroke="#000000" stroke-width="1" stroke-opacity="0"></use></g></g><g><use xlink:href="#b24GQ1SRQ6" opacity="1" fill="#e2e3e5" fill-opacity="1"></use><g><use xlink:href="#b24GQ1SRQ6" opacity="1" fill-opacity="0" stroke="#000000" stroke-width="1" stroke-opacity="0"></use></g></g><g><use xlink:href="#c1fPihgp9" opacity="1" fill="#b6b6b6" fill-opacity="1"></use><g><use xlink:href="#c1fPihgp9" opacity="1" fill-opacity="0" stroke="#000000" stroke-width="1" stroke-opacity="0"></use></g></g><g><use xlink:href="#c69dLUKMJG" opacity="1" fill="#b6b6b6" fill-opacity="1"></use><g><use xlink:href="#c69dLUKMJG" opacity="1" fill-opacity="0" stroke="#000000" stroke-width="1" stroke-opacity="0"></use></g></g><g><use xlink:href="#a5bQZGDVkg" opacity="1" fill="#b6b6b6" fill-opacity="1"></use><g><use xlink:href="#a5bQZGDVkg" opacity="1" fill-opacity="0" stroke="#000000" stroke-width="1" stroke-opacity="0"></use></g></g><g><use xlink:href="#a2cjJIwilO" opacity="1" fill="#b6b6b6" fill-opacity="1"></use><g><use xlink:href="#a2cjJIwilO" opacity="1" fill-opacity="0" stroke="#000000" stroke-width="1" stroke-opacity="0"></use></g></g><g><use xlink:href="#ba9SKR1w2" opacity="1" fill="#b6b6b6" fill-opacity="1"></use><g><use xlink:href="#ba9SKR1w2" opacity="1" fill-opacity="0" stroke="#000000" stroke-width="1" stroke-opacity="0"></use></g></g><g><use xlink:href="#cGtr7gTJk" opacity="1" fill="#b6b6b6" fill-opacity="1"></use><g><use xlink:href="#cGtr7gTJk" opacity="1" fill-opacity="0" stroke="#000000" stroke-width="1" stroke-opacity="0"></use></g></g></g></g></svg>