<?xml version="1.0" encoding="UTF-8" standalone="no"?>
<!DOCTYPE svg PUBLIC "-//W3C//DTD SVG 1.1//EN" "http://www.w3.org/Graphics/SVG/1.1/DTD/svg11.dtd">
<svg version="1.1" xmlns="http://www.w3.org/2000/svg" xmlns:xlink="http://www.w3.org/1999/xlink" preserveAspectRatio="xMidYMid meet" viewBox="0 0 640 640" width="260" height="260"><defs><path d="M156.99 228.18L3.35 228.18L284.53 577.24L156.99 228.18Z" id="a1IDQNCgzm"></path><path d="M156.99 228.18L3.35 228.18L284.53 577.24L156.99 228.18Z" id="aeZtA2pbp"></path><path d="M456.49 228.18L182.05 228.18L317.93 600.08L456.49 228.18Z" id="a3ZtAU9ZyO"></path><path d="M456.49 228.18L182.05 228.18L317.93 600.08L456.49 228.18Z" id="k4XYVWpCZa"></path><path d="M481.6 228.18L348.21 586.25L636.63 228.18L481.6 228.18Z" id="a41nkUucUI"></path><path d="M481.6 228.18L348.21 586.25L636.63 228.18L481.6 228.18Z" id="aruwnwXNK"></path><path d="M469.44 193.41L526.62 39.91L344.73 39.91L469.44 193.41Z" id="aqrFKUvlx"></path><path d="M469.44 193.41L526.62 39.91L344.73 39.91L469.44 193.41Z" id="fMM0ohKx"></path><path d="M191.76 204.65L448.24 204.65L319.99 46.82L191.76 204.65Z" id="aTx9j9sbf"></path><path d="M191.76 204.65L448.24 204.65L319.99 46.82L191.76 204.65Z" id="bbu5eSBwR"></path><path d="M169.72 194.44L295.27 39.91L113.25 39.91L169.72 194.44Z" id="acKTLyMyR"></path><path d="M169.72 194.44L295.27 39.91L113.25 39.91L169.72 194.44Z" id="b8aSxNhpt"></path><path d="M148.39 204.65L93.65 54.81L0 204.65L148.39 204.65Z" id="f3XXfrHRWH"></path><path d="M148.39 204.65L93.65 54.81L0 204.65L148.39 204.65Z" id="aOF7e2Zc"></path><path d="M490.36 204.65L640 204.65L546.26 54.66L490.36 204.65Z" id="e22bt8NL0O"></path><path d="M490.36 204.65L640 204.65L546.26 54.66L490.36 204.65Z" id="b6dzU6JQG"></path></defs><g><g><g><use xlink:href="#a1IDQNCgzm" opacity="1" fill="#000000" fill-opacity="1"></use><g><use xlink:href="#a1IDQNCgzm" opacity="1" fill-opacity="0" stroke="#000000" stroke-width="1" stroke-opacity="0"></use></g></g><g><use xlink:href="#aeZtA2pbp" opacity="1" fill="#000000" fill-opacity="0"></use><g><use xlink:href="#aeZtA2pbp" opacity="1" fill-opacity="0" stroke="#000000" stroke-width="1" stroke-opacity="0"></use></g></g><g><use xlink:href="#a3ZtAU9ZyO" opacity="1" fill="#000000" fill-opacity="1"></use><g><use xlink:href="#a3ZtAU9ZyO" opacity="1" fill-opacity="0" stroke="#000000" stroke-width="1" stroke-opacity="0"></use></g></g><g><use xlink:href="#k4XYVWpCZa" opacity="1" fill="#000000" fill-opacity="0"></use><g><use xlink:href="#k4XYVWpCZa" opacity="1" fill-opacity="0" stroke="#000000" stroke-width="1" stroke-opacity="0"></use></g></g><g><use xlink:href="#a41nkUucUI" opacity="1" fill="#000000" fill-opacity="1"></use><g><use xlink:href="#a41nkUucUI" opacity="1" fill-opacity="0" stroke="#000000" stroke-width="1" stroke-opacity="0"></use></g></g><g><use xlink:href="#aruwnwXNK" opacity="1" fill="#000000" fill-opacity="0"></use><g><use xlink:href="#aruwnwXNK" opacity="1" fill-opacity="0" stroke="#000000" stroke-width="1" stroke-opacity="0"></use></g></g><g><use xlink:href="#aqrFKUvlx" opacity="1" fill="#000000" fill-opacity="1"></use><g><use xlink:href="#aqrFKUvlx" opacity="1" fill-opacity="0" stroke="#000000" stroke-width="1" stroke-opacity="0"></use></g></g><g><use xlink:href="#fMM0ohKx" opacity="1" fill="#000000" fill-opacity="0"></use><g><use xlink:href="#fMM0ohKx" opacity="1" fill-opacity="0" stroke="#000000" stroke-width="1" stroke-opacity="0"></use></g></g><g><use xlink:href="#aTx9j9sbf" opacity="1" fill="#000000" fill-opacity="1"></use><g><use xlink:href="#aTx9j9sbf" opacity="1" fill-opacity="0" stroke="#000000" stroke-width="1" stroke-opacity="0"></use></g></g><g><use xlink:href="#bbu5eSBwR" opacity="1" fill="#000000" fill-opacity="0"></use><g><use xlink:href="#bbu5eSBwR" opacity="1" fill-opacity="0" stroke="#000000" stroke-width="1" stroke-opacity="0"></use></g></g><g><use xlink:href="#acKTLyMyR" opacity="1" fill="#000000" fill-opacity="1"></use><g><use xlink:href="#acKTLyMyR" opacity="1" fill-opacity="0" stroke="#000000" stroke-width="1" stroke-opacity="0"></use></g></g><g><use xlink:href="#b8aSxNhpt" opacity="1" fill="#000000" fill-opacity="0"></use><g><use xlink:href="#b8aSxNhpt" opacity="1" fill-opacity="0" stroke="#000000" stroke-width="1" stroke-opacity="0"></use></g></g><g><use xlink:href="#f3XXfrHRWH" opacity="1" fill="#000000" fill-opacity="1"></use><g><use xlink:href="#f3XXfrHRWH" opacity="1" fill-opacity="0" stroke="#000000" stroke-width="1" stroke-opacity="0"></use></g></g><g><use xlink:href="#aOF7e2Zc" opacity="1" fill="#000000" fill-opacity="0"></use><g><use xlink:href="#aOF7e2Zc" opacity="1" fill-opacity="0" stroke="#000000" stroke-width="1" stroke-opacity="0"></use></g></g><g><use xlink:href="#e22bt8NL0O" opacity="1" fill="#000000" fill-opacity="1"></use><g><use xlink:href="#e22bt8NL0O" opacity="1" fill-opacity="0" stroke="#000000" stroke-width="1" stroke-opacity="0"></use></g></g><g><use xlink:href="#b6dzU6JQG" opacity="1" fill="#000000" fill-opacity="0"></use><g><use xlink:href="#b6dzU6JQG" opacity="1" fill-opacity="0" stroke="#000000" stroke-width="1" stroke-opacity="0"></use></g></g></g></g></svg>