<?xml version="1.0" encoding="iso-8859-1"?>
<!-- Generator: Adobe Illustrator 19.0.0, SVG Export Plug-In . SVG Version: 6.00 Build 0)  -->
<svg version="1.1" id="Capa_1" xmlns="http://www.w3.org/2000/svg" xmlns:xlink="http://www.w3.org/1999/xlink" x="0px" y="0px"
	 viewBox="0 0 33 33" style="enable-background:new 0 0 33 33;" xml:space="preserve">
<g>
	<path d="M16.5,30.5c-0.147,0-0.288-0.065-0.382-0.178l-16-19C-0.032,11.144-0.04,10.886,0.1,10.7l6-8
		c0.094-0.126,0.243-0.2,0.4-0.2h20c0.157,0,0.306,0.074,0.4,0.2l6,8c0.14,0.186,0.132,0.444-0.018,0.622l-16,19
		C16.788,30.435,16.647,30.5,16.5,30.5z M1.139,10.982L16.5,29.224l15.361-18.242L26.25,3.5H6.75L1.139,10.982z"/>
	<path d="M32.5,11.5h-32C0.224,11.5,0,11.277,0,11s0.224-0.5,0.5-0.5h32c0.276,0,0.5,0.224,0.5,0.5S32.776,11.5,32.5,11.5z"/>
	<path d="M16.5,30.5c-0.05,0-0.101-0.007-0.15-0.023c-0.264-0.083-0.41-0.364-0.326-0.627l6-19c0.083-0.263,0.366-0.411,0.627-0.326
		c0.264,0.083,0.41,0.364,0.326,0.627l-6,19C16.91,30.364,16.712,30.5,16.5,30.5z"/>
	<path d="M16.5,30.5c-0.212,0-0.41-0.136-0.477-0.35l-6-19c-0.083-0.263,0.063-0.544,0.326-0.627
		c0.264-0.085,0.544,0.063,0.627,0.326l6,19c0.083,0.263-0.063,0.544-0.326,0.627C16.601,30.493,16.55,30.5,16.5,30.5z"/>
	<path d="M10.5,11.5c-0.184,0-0.36-0.101-0.448-0.276l-4-8C5.929,2.977,6.029,2.677,6.276,2.553C6.524,2.43,6.823,2.53,6.947,2.777
		l4,8c0.124,0.247,0.023,0.547-0.224,0.671C10.652,11.483,10.576,11.5,10.5,11.5z"/>
	<path d="M10.5,11.5c-0.104,0-0.209-0.033-0.299-0.1c-0.221-0.166-0.266-0.479-0.1-0.7l6-8c0.166-0.221,0.479-0.265,0.7-0.1
		c0.221,0.166,0.266,0.479,0.1,0.7l-6,8C10.802,11.431,10.652,11.5,10.5,11.5z"/>
	<path d="M22.5,11.5c-0.152,0-0.302-0.069-0.4-0.2l-6-8c-0.166-0.221-0.121-0.534,0.1-0.7c0.22-0.167,0.534-0.122,0.7,0.1l6,8
		c0.166,0.221,0.121,0.534-0.1,0.7C22.71,11.468,22.605,11.5,22.5,11.5z"/>
	<path d="M22.5,11.5c-0.075,0-0.151-0.017-0.223-0.053c-0.247-0.124-0.347-0.424-0.224-0.671l4-8
		c0.124-0.247,0.423-0.347,0.671-0.224c0.247,0.124,0.347,0.424,0.224,0.671l-4,8C22.859,11.399,22.683,11.5,22.5,11.5z"/>
</g>
<g>
</g>
<g>
</g>
<g>
</g>
<g>
</g>
<g>
</g>
<g>
</g>
<g>
</g>
<g>
</g>
<g>
</g>
<g>
</g>
<g>
</g>
<g>
</g>
<g>
</g>
<g>
</g>
<g>
</g>
</svg>
