<?xml version="1.0" encoding="UTF-8" standalone="no"?>
<!DOCTYPE svg PUBLIC "-//W3C//DTD SVG 1.1//EN" "http://www.w3.org/Graphics/SVG/1.1/DTD/svg11.dtd">
<svg version="1.1" xmlns="http://www.w3.org/2000/svg" xmlns:xlink="http://www.w3.org/1999/xlink" preserveAspectRatio="xMidYMid meet" viewBox="0 0 640 640" width="640" height="640"><defs><path d="M522.91 31.92L523 31.93L523.08 31.93L523.17 31.93L523.26 31.94L523.34 31.94L523.43 31.95L523.51 31.96L523.6 31.97L523.68 31.98L523.77 31.98L523.85 32L523.94 32.01L524.02 32.02L524.11 32.03L524.19 32.05L524.27 32.06L524.36 32.07L524.44 32.09L524.53 32.11L524.61 32.12L524.69 32.14L524.78 32.16L524.86 32.18L524.94 32.2L525.02 32.22L525.11 32.24L525.19 32.26L525.27 32.28L525.35 32.3L525.43 32.33L525.52 32.35L525.6 32.38L525.68 32.4L525.76 32.43L525.84 32.45L525.92 32.48L526 32.5L526.09 32.53L526.09 32.53L526.1 32.53L526.11 32.54L526.12 32.54L526.13 32.54L526.14 32.54L526.15 32.54L526.16 32.54L526.18 32.55L526.18 32.55L526.19 32.55L526.2 32.55L526.22 32.55L526.23 32.55L526.27 32.55L526.29 32.55L526.3 32.56L526.31 32.56L526.33 32.56L526.34 32.56L526.35 32.56L526.36 32.56L526.37 32.56L526.38 32.56L526.39 32.57L526.39 32.57L526.4 32.57L526.41 32.57L526.42 32.58L526.43 32.58L526.44 32.58L526.45 32.58L526.46 32.59L526.47 32.59L526.48 32.6L526.49 32.6L526.51 32.61L526.52 32.62L526.53 32.62L526.54 32.63L526.55 32.64L526.56 32.64L526.57 32.65L526.58 32.66L526.59 32.66L526.6 32.67L526.61 32.68L526.62 32.68L526.63 32.69L526.64 32.7L526.65 32.7L526.66 32.72L526.68 32.73L526.69 32.74L526.71 32.75L526.72 32.76L526.73 32.77L526.74 32.77L526.75 32.78L526.76 32.79L526.77 32.79L526.78 32.8L526.79 32.81L526.8 32.81L526.81 32.82L526.82 32.82L526.83 32.83L526.84 32.83L526.85 32.84L526.94 32.88L527.03 32.91L527.11 32.95L527.2 32.99L527.29 33.03L527.37 33.07L527.46 33.11L527.54 33.15L527.63 33.19L527.71 33.23L527.79 33.28L527.88 33.32L527.96 33.36L528.04 33.41L528.13 33.45L528.21 33.5L528.29 33.54L528.37 33.59L528.45 33.64L528.53 33.69L528.61 33.74L528.69 33.79L528.77 33.84L528.85 33.89L528.92 33.94L529 33.99L529.08 34.04L529.15 34.1L529.23 34.15L529.3 34.21L529.38 34.27L529.45 34.32L529.53 34.38L529.6 34.44L529.67 34.5L529.74 34.56L529.81 34.62L529.88 34.69L529.95 34.75L530.02 34.81L530.03 34.82L530.03 34.82L530.03 34.82L530.04 34.83L530.05 34.83L530.05 34.83L530.05 34.83L530.1 34.88L530.15 34.93L530.2 34.98L530.25 35.02L530.29 35.07L530.34 35.12L530.39 35.17L530.44 35.22L530.48 35.27L530.53 35.31L530.57 35.36L530.62 35.41L530.66 35.46L530.71 35.52L530.75 35.57L530.8 35.62L530.84 35.67L530.89 35.72L530.93 35.77L530.97 35.83L531.02 35.88L531.06 35.93L531.1 35.98L531.14 36.04L531.18 36.09L531.23 36.15L531.27 36.2L531.31 36.26L531.35 36.31L531.39 36.37L531.43 36.42L531.47 36.48L531.51 36.53L531.55 36.59L531.58 36.65L531.62 36.71L531.66 36.76L531.7 36.82L531.74 36.88L531.77 36.94L638.46 207.64L638.47 207.66L638.48 207.67L638.49 207.68L638.49 207.7L638.5 207.71L638.51 207.73L638.51 207.74L638.52 207.75L638.53 207.77L638.53 207.78L638.54 207.79L638.55 207.81L638.55 207.82L638.56 207.84L638.56 207.85L638.57 207.86L638.57 207.88L638.58 207.91L638.59 207.92L638.61 207.96L638.62 207.99L638.63 208.02L638.63 208.03L638.64 208.05L638.65 208.06L638.65 208.07L638.66 208.09L638.66 208.1L638.67 208.12L638.68 208.13L638.68 208.14L638.69 208.16L638.7 208.17L638.7 208.18L638.71 208.2L638.72 208.21L638.72 208.22L638.73 208.24L638.74 208.25L638.75 208.26L638.76 208.28L638.76 208.29L638.77 208.3L638.78 208.31L638.79 208.33L638.8 208.34L638.81 208.35L638.82 208.36L638.82 208.38L638.83 208.39L638.85 208.41L638.89 208.46L638.91 208.48L638.91 208.5L638.92 208.51L638.93 208.52L638.94 208.53L638.95 208.55L638.96 208.56L638.97 208.57L638.97 208.58L638.98 208.59L638.99 208.61L639 208.62L639 208.63L639.01 208.65L639.02 208.66L639.03 208.67L639.03 208.69L639.04 208.7L639.05 208.72L639.06 208.74L639.06 208.75L639.07 208.77L639.08 208.79L639.09 208.81L639.09 208.83L639.1 208.85L639.11 208.87L639.11 208.89L639.12 208.91L639.12 208.93L639.13 208.94L639.14 208.96L639.14 208.98L639.15 209L639.15 209.02L639.16 209.04L639.16 209.06L639.17 209.08L639.17 209.12L639.18 209.16L639.19 209.2L639.2 209.22L639.2 209.24L639.21 209.25L639.21 209.27L639.22 209.29L639.22 209.31L639.23 209.33L639.24 209.35L639.24 209.37L639.25 209.39L639.25 209.41L639.26 209.43L639.27 209.45L639.27 209.47L639.29 209.5L639.3 209.54L639.32 209.58L639.33 209.61L639.34 209.65L639.36 209.69L639.37 209.73L639.39 209.76L639.4 209.8L639.41 209.84L639.43 209.87L639.44 209.91L639.45 209.95L639.46 209.98L639.48 210.02L639.49 210.06L639.5 210.09L639.51 210.13L639.53 210.17L639.54 210.21L639.55 210.24L639.56 210.28L639.57 210.32L639.58 210.36L639.59 210.39L639.61 210.43L639.62 210.47L639.63 210.51L639.64 210.54L639.65 210.58L639.66 210.62L639.67 210.66L639.68 210.69L639.69 210.73L639.7 210.77L639.71 210.81L639.72 210.85L639.73 210.88L639.74 210.92L639.74 210.96L639.75 210.99L639.76 211.03L639.77 211.06L639.77 211.09L639.78 211.12L639.79 211.16L639.8 211.19L639.8 211.22L639.81 211.26L639.82 211.29L639.82 211.32L639.83 211.35L639.84 211.39L639.84 211.42L639.85 211.45L639.85 211.48L639.86 211.52L639.86 211.55L639.87 211.58L639.87 211.61L639.88 211.65L639.88 211.68L639.89 211.71L639.89 211.74L639.9 211.78L639.9 211.81L639.91 211.84L639.91 211.88L639.92 211.91L639.92 211.94L639.93 211.97L639.93 212.01L639.93 212.04L639.94 212.07L639.94 212.11L639.94 212.14L639.95 212.17L639.95 212.21L639.95 212.24L639.96 212.27L639.96 212.31L639.96 212.35L639.97 212.39L639.97 212.43L639.97 212.47L639.97 212.51L639.98 212.55L639.98 212.58L639.98 212.62L639.98 212.66L639.99 212.7L639.99 212.74L639.99 212.78L639.99 212.82L639.99 212.85L639.99 212.89L639.99 212.93L640 212.97L640 213.01L640 213.05L640 213.09L640 213.12L640 213.16L640 213.2L640 213.24L640 213.28L640 213.32L640 213.35L640 213.39L640 213.43L640 213.47L640 213.51L640 213.55L640 213.59L640 213.63L639.99 213.66L639.99 213.7L639.99 213.74L639.99 213.78L639.99 213.82L639.99 213.85L639.99 213.89L639.98 213.92L639.98 213.95L639.98 213.99L639.98 214.02L639.98 214.05L639.97 214.09L639.97 214.12L639.97 214.15L639.97 214.19L639.96 214.22L639.96 214.25L639.96 214.28L639.96 214.32L639.95 214.35L639.95 214.38L639.95 214.42L639.94 214.45L639.94 214.48L639.94 214.51L639.93 214.55L639.93 214.58L639.93 214.61L639.92 214.64L639.92 214.68L639.91 214.71L639.91 214.74L639.91 214.77L639.9 214.81L639.9 214.84L639.89 214.87L639.89 214.9L639.88 214.94L639.88 214.97L639.87 215L639.87 215.03L639.86 215.07L639.86 215.1L639.85 215.13L639.84 215.17L639.84 215.21L639.83 215.25L639.82 215.29L639.82 215.33L639.81 215.37L639.8 215.4L639.79 215.44L639.78 215.48L639.78 215.52L639.77 215.56L639.76 215.6L639.75 215.63L639.74 215.67L639.73 215.71L639.72 215.75L639.71 215.79L639.7 215.82L639.69 215.86L639.68 215.9L639.67 215.94L639.66 215.97L639.65 216.01L639.64 216.05L639.63 216.09L639.62 216.12L639.61 216.16L639.6 216.2L639.59 216.24L639.58 216.27L639.57 216.31L639.56 216.35L639.54 216.39L639.53 216.42L639.52 216.46L639.51 216.5L639.5 216.54L639.47 216.65L639.46 216.68L639.45 216.71L639.44 216.74L639.42 216.77L639.41 216.81L639.4 216.84L639.39 216.87L639.38 216.9L639.37 216.93L639.36 216.96L639.35 216.99L639.34 217.02L639.33 217.06L639.32 217.09L639.3 217.12L639.29 217.15L639.28 217.18L639.27 217.21L639.26 217.24L639.25 217.27L639.23 217.3L639.22 217.33L639.21 217.36L639.2 217.39L639.19 217.42L639.17 217.45L639.16 217.48L639.15 217.51L639.14 217.54L639.12 217.57L639.11 217.6L639.1 217.63L639.08 217.66L639.07 217.69L639.06 217.72L639.04 217.75L639.03 217.78L639.01 217.81L639 217.84L638.99 217.87L638.98 217.89L638.97 217.9L638.97 217.92L638.96 217.93L638.95 217.95L638.95 217.96L638.94 217.98L638.94 217.99L638.93 218.01L638.92 218.02L638.92 218.04L638.91 218.05L638.91 218.07L638.9 218.08L638.9 218.1L638.89 218.11L638.89 218.13L638.87 218.17L638.86 218.2L638.86 218.22L638.85 218.23L638.85 218.25L638.84 218.26L638.84 218.28L638.83 218.29L638.83 218.31L638.82 218.32L638.81 218.34L638.81 218.35L638.8 218.37L638.8 218.38L638.79 218.4L638.78 218.41L638.77 218.43L638.77 218.44L638.76 218.46L638.75 218.47L638.74 218.5L638.73 218.52L638.71 218.54L638.7 218.56L638.68 218.59L638.67 218.61L638.66 218.63L638.64 218.65L638.63 218.67L638.61 218.69L638.6 218.71L638.58 218.73L638.57 218.75L638.55 218.78L638.53 218.8L638.52 218.82L638.5 218.84L638.49 218.86L638.47 218.88L638.45 218.9L638.44 218.92L638.42 218.94L638.41 218.96L638.36 219.02L638.34 219.04L638.32 219.06L638.31 219.08L638.29 219.1L638.27 219.12L638.26 219.14L638.24 219.16L638.23 219.18L638.21 219.2L638.19 219.22L638.18 219.24L638.16 219.26L638.15 219.28L638.13 219.3L638.12 219.32L638.11 219.34L638.1 219.35L638.09 219.37L638.08 219.39L638.07 219.4L638.05 219.42L638.04 219.44L638.03 219.45L638.02 219.47L638.01 219.49L638 219.51L638 219.52L637.99 219.54L637.98 219.56L637.97 219.58L637.95 219.61L637.92 219.66L637.91 219.68L637.9 219.7L637.89 219.72L637.88 219.73L637.87 219.75L637.86 219.77L637.85 219.79L637.84 219.8L637.83 219.82L637.82 219.84L637.81 219.85L637.8 219.87L637.79 219.89L637.78 219.91L637.77 219.92L637.75 219.94L637.74 219.96L637.73 219.97L637.72 219.99L328.31 604.08L328.3 604.09L328.29 604.1L328.28 604.11L328.27 604.13L328.26 604.14L328.24 604.15L328.23 604.16L328.22 604.17L328.21 604.18L328.19 604.19L328.18 604.2L328.17 604.21L328.15 604.22L328.14 604.23L328.13 604.24L328.11 604.25L328.1 604.26L328.09 604.27L328.06 604.28L328.03 604.3L328 604.32L327.99 604.33L327.98 604.34L327.96 604.35L327.95 604.36L327.94 604.37L327.92 604.38L327.91 604.39L327.9 604.4L327.88 604.41L327.87 604.42L327.86 604.43L327.85 604.44L327.83 604.45L327.82 604.46L327.81 604.47L327.8 604.48L327.75 604.53L327.7 604.59L327.66 604.64L327.61 604.69L327.56 604.74L327.51 604.78L327.46 604.83L327.41 604.88L327.36 604.93L327.3 604.97L327.25 605.02L327.2 605.07L327.15 605.11L327.09 605.16L327.04 605.2L326.99 605.25L326.93 605.29L326.88 605.33L326.82 605.38L326.77 605.42L326.71 605.46L326.66 605.5L326.6 605.55L326.54 605.59L326.49 605.63L326.43 605.67L326.37 605.71L326.31 605.75L326.26 605.79L326.2 605.83L326.14 605.87L326.08 605.91L326.02 605.95L325.96 605.99L325.9 606.03L325.84 606.07L325.78 606.11L325.72 606.14L325.66 606.18L325.6 606.22L325.56 606.24L325.53 606.27L325.49 606.29L325.46 606.32L325.42 606.34L325.38 606.36L325.35 606.39L325.31 606.41L325.28 606.44L325.24 606.46L325.21 606.48L325.14 606.53L325.1 606.56L325.07 606.58L325.03 606.61L325 606.63L324.96 606.65L324.93 606.68L324.89 606.7L324.86 606.73L324.82 606.75L324.78 606.77L324.75 606.79L324.71 606.82L324.68 606.84L324.64 606.86L324.6 606.88L324.57 606.91L324.53 606.93L324.49 606.95L324.45 606.97L324.42 606.99L324.38 607.01L324.34 607.03L324.3 607.05L324.26 607.06L324.22 607.08L324.18 607.1L324.14 607.12L324.13 607.12L324.11 607.13L324.1 607.14L324.09 607.14L324.07 607.15L324.06 607.16L324.05 607.16L324.04 607.17L324.03 607.18L324.01 607.19L324 607.19L323.99 607.2L323.98 607.21L323.97 607.22L323.96 607.22L323.94 607.23L323.93 607.24L323.92 607.25L323.9 607.27L323.88 607.28L323.87 607.29L323.85 607.3L323.84 607.31L323.83 607.31L323.82 607.32L323.81 607.33L323.8 607.34L323.79 607.34L323.77 607.35L323.76 607.36L323.75 607.37L323.74 607.37L323.72 607.38L323.71 607.38L323.7 607.39L323.69 607.4L323.67 607.4L323.66 607.41L323.57 607.44L323.48 607.47L323.39 607.5L323.29 607.53L323.2 607.56L323.11 607.59L323.02 607.61L322.93 607.64L322.84 607.67L322.75 607.69L322.65 607.72L322.56 607.74L322.47 607.76L322.38 607.78L322.29 607.8L322.2 607.82L322.1 607.84L322.01 607.86L321.92 607.88L321.83 607.9L321.74 607.91L321.65 607.93L321.55 607.94L321.46 607.95L321.37 607.97L321.28 607.98L321.19 607.99L321.1 608L321.01 608.01L320.91 608.02L320.82 608.02L320.73 608.03L320.64 608.04L320.55 608.04L320.46 608.05L320.37 608.05L320.27 608.05L320.18 608.05L320.09 608.06L320 608.06L319.89 608.06L319.79 608.05L319.68 608.05L319.57 608.05L319.47 608.04L319.36 608.03L319.26 608.02L319.15 608.01L319.04 608L318.94 607.99L318.84 607.97L318.73 607.96L318.63 607.94L318.52 607.92L318.42 607.91L318.32 607.89L318.21 607.87L318.11 607.84L318.01 607.82L317.9 607.8L317.8 607.77L317.7 607.75L317.6 607.72L317.5 607.69L317.4 607.66L317.3 607.63L317.2 607.6L317.1 607.57L317 607.54L316.9 607.5L316.8 607.47L316.7 607.43L316.6 607.4L316.5 607.36L316.4 607.32L316.3 607.29L316.21 607.25L316.11 607.21L316.01 607.17L315.91 607.13L315.89 607.12L315.86 607.11L315.84 607.1L315.82 607.09L315.79 607.08L315.77 607.07L315.74 607.05L315.72 607.04L315.69 607.03L315.67 607.02L315.65 607.01L315.62 607L315.6 606.99L315.58 606.98L315.55 606.97L315.53 606.96L315.51 606.94L315.48 606.93L315.46 606.92L315.43 606.91L315.41 606.9L315.39 606.89L315.36 606.88L315.34 606.86L315.32 606.85L315.29 606.84L315.27 606.83L315.25 606.82L315.22 606.81L315.2 606.79L315.18 606.78L315.15 606.77L315.13 606.76L315.11 606.74L315.08 606.73L315.06 606.72L315.04 606.71L315.01 606.7L314.99 606.68L314.96 606.67L314.88 606.62L314.79 606.57L314.7 606.52L314.61 606.47L314.52 606.42L314.44 606.37L314.35 606.32L314.27 606.27L314.18 606.21L314.1 606.16L314.01 606.1L313.93 606.05L313.84 605.99L313.76 605.93L313.68 605.88L313.6 605.82L313.52 605.76L313.43 605.7L313.35 605.64L313.27 605.58L313.2 605.52L313.12 605.45L313.04 605.39L312.96 605.32L312.88 605.26L312.81 605.19L312.73 605.12L312.66 605.06L312.58 604.99L312.51 604.92L312.44 604.85L312.37 604.78L312.3 604.7L312.22 604.63L312.15 604.56L312.09 604.48L312.02 604.41L311.95 604.33L311.88 604.25L311.82 604.17L311.81 604.17L311.81 604.16L311.8 604.16L311.8 604.15L311.79 604.15L311.79 604.15L311.79 604.14L311.78 604.14L311.77 604.13L311.76 604.13L311.75 604.12L311.74 604.11L311.74 604.11L311.73 604.1L311.72 604.1L311.72 604.1L311.72 604.09L311.71 604.09L311.7 604.08L311.7 604.08L311.65 604L311.64 603.99L311.63 603.98L311.62 603.97L311.61 603.96L311.6 603.95L311.59 603.94L311.59 603.93L311.58 603.93L2.29 219.99L2.28 219.97L2.27 219.96L2.25 219.94L2.24 219.92L2.23 219.91L2.22 219.89L2.21 219.87L2.2 219.86L2.18 219.84L2.17 219.82L2.16 219.81L2.15 219.79L2.14 219.77L2.13 219.75L2.12 219.74L2.11 219.72L2.1 219.7L2.09 219.68L2.08 219.67L2.07 219.65L2.06 219.63L2.05 219.6L2.03 219.56L2.01 219.53L2 219.51L1.99 219.49L1.98 219.48L1.97 219.46L1.96 219.44L1.95 219.42L1.94 219.41L1.93 219.39L1.92 219.37L1.91 219.36L1.9 219.34L1.89 219.32L1.88 219.3L1.86 219.28L1.85 219.26L1.83 219.24L1.82 219.22L1.8 219.2L1.79 219.18L1.77 219.16L1.76 219.14L1.74 219.12L1.72 219.1L1.71 219.08L1.69 219.06L1.68 219.04L1.66 219.02L1.64 219L1.63 218.98L1.58 218.92L1.56 218.9L1.54 218.88L1.53 218.86L1.51 218.84L1.5 218.82L1.48 218.8L1.46 218.78L1.45 218.75L1.43 218.73L1.42 218.71L1.4 218.69L1.39 218.67L1.37 218.65L1.36 218.63L1.34 218.61L1.33 218.59L1.31 218.56L1.3 218.54L1.29 218.52L1.27 218.5L1.26 218.47L1.25 218.46L1.24 218.44L1.24 218.43L1.23 218.41L1.22 218.4L1.22 218.38L1.21 218.37L1.2 218.35L1.2 218.34L1.19 218.32L1.18 218.31L1.18 218.29L1.17 218.28L1.17 218.26L1.16 218.25L1.16 218.23L1.15 218.22L1.15 218.2L1.14 218.17L1.12 218.13L1.12 218.11L1.11 218.1L1.11 218.08L1.1 218.07L1.1 218.05L1.09 218.04L1.09 218.02L1.08 218.01L1.08 217.99L1.07 217.98L1.06 217.96L1.06 217.95L1.05 217.93L1.04 217.92L1.04 217.9L1.03 217.89L1.02 217.87L1.01 217.84L1 217.81L0.98 217.78L0.97 217.75L0.95 217.72L0.94 217.69L0.93 217.66L0.91 217.63L0.9 217.6L0.89 217.57L0.87 217.54L0.86 217.51L0.85 217.48L0.84 217.45L0.82 217.42L0.81 217.39L0.8 217.36L0.79 217.33L0.78 217.3L0.76 217.27L0.75 217.23L0.74 217.2L0.73 217.17L0.72 217.14L0.71 217.11L0.7 217.08L0.68 217.05L0.67 217.02L0.66 216.99L0.65 216.96L0.64 216.93L0.63 216.9L0.62 216.87L0.61 216.83L0.6 216.8L0.59 216.77L0.58 216.74L0.57 216.71L0.55 216.68L0.54 216.65L0.53 216.61L0.52 216.57L0.51 216.54L0.49 216.5L0.48 216.46L0.47 216.42L0.46 216.38L0.45 216.35L0.43 216.31L0.42 216.27L0.41 216.23L0.4 216.2L0.39 216.16L0.38 216.12L0.37 216.08L0.36 216.05L0.35 216.01L0.34 215.97L0.32 215.93L0.31 215.89L0.3 215.86L0.3 215.82L0.29 215.78L0.28 215.74L0.27 215.71L0.26 215.67L0.25 215.63L0.24 215.59L0.23 215.55L0.22 215.52L0.21 215.48L0.21 215.44L0.2 215.4L0.19 215.36L0.18 215.32L0.18 215.29L0.17 215.25L0.16 215.21L0.16 215.17L0.15 215.13L0.14 215.1L0.14 215.07L0.13 215.03L0.13 215L0.12 214.97L0.12 214.94L0.11 214.9L0.11 214.87L0.1 214.84L0.1 214.81L0.09 214.77L0.09 214.74L0.09 214.71L0.08 214.68L0.08 214.64L0.07 214.61L0.07 214.58L0.07 214.55L0.06 214.51L0.06 214.48L0.06 214.45L0.05 214.42L0.05 214.38L0.05 214.35L0.04 214.32L0.04 214.28L0.04 214.25L0.04 214.22L0.03 214.19L0.03 214.15L0.03 214.12L0.03 214.09L0.02 214.05L0.02 214.02L0.02 213.99L0.02 213.95L0.02 213.92L0.01 213.89L0.01 213.85L0.01 213.82L0.01 213.78L0.01 213.74L0.01 213.71L0.01 213.67L0 213.63L0 213.59L0 213.55L0 213.51L0 213.47L0 213.44L0 213.4L0 213.36L0 213.32L0 213.28L0 213.24L0 213.21L0 213.17L0 213.13L0.01 213.09L0.01 213.05L0.01 213.01L0.01 212.97L0.01 212.94L0.01 212.9L0.02 212.86L0.02 212.82L0.02 212.78L0.02 212.74L0.03 212.7L0.03 212.66L0.03 212.62L0.04 212.59L0.04 212.55L0.05 212.51L0.05 212.47L0.05 212.43L0.06 212.39L0.06 212.35L0.07 212.31L0.07 212.27L0.08 212.24L0.08 212.21L0.08 212.17L0.09 212.14L0.09 212.11L0.1 212.07L0.1 212.04L0.1 212.01L0.11 211.97L0.11 211.94L0.12 211.91L0.12 211.87L0.13 211.84L0.13 211.81L0.14 211.77L0.14 211.74L0.15 211.71L0.15 211.67L0.16 211.64L0.16 211.61L0.17 211.58L0.17 211.54L0.18 211.51L0.18 211.48L0.19 211.44L0.2 211.41L0.2 211.38L0.21 211.34L0.21 211.31L0.22 211.28L0.23 211.25L0.23 211.21L0.24 211.18L0.25 211.15L0.25 211.11L0.26 211.08L0.27 211.05L0.27 211.02L0.28 210.98L0.29 210.95L0.3 210.91L0.31 210.87L0.32 210.84L0.32 210.8L0.33 210.76L0.34 210.72L0.35 210.68L0.36 210.65L0.37 210.61L0.38 210.57L0.39 210.53L0.4 210.49L0.42 210.46L0.43 210.42L0.44 210.38L0.45 210.34L0.46 210.31L0.47 210.27L0.48 210.23L0.49 210.2L0.51 210.16L0.52 210.12L0.53 210.08L0.54 210.05L0.56 210.01L0.57 209.97L0.58 209.94L0.59 209.9L0.61 209.86L0.62 209.83L0.63 209.79L0.65 209.75L0.66 209.71L0.67 209.68L0.69 209.64L0.7 209.6L0.71 209.57L0.73 209.53L0.74 209.49L0.76 209.46L0.77 209.44L0.77 209.42L0.78 209.4L0.79 209.38L0.79 209.36L0.8 209.34L0.81 209.32L0.81 209.3L0.82 209.28L0.82 209.26L0.83 209.24L0.84 209.22L0.84 209.2L0.85 209.19L0.85 209.17L0.86 209.13L0.88 209.07L0.89 209.03L0.89 209.01L0.9 208.99L0.9 208.97L0.91 208.95L0.91 208.93L0.92 208.91L0.92 208.9L0.93 208.88L0.94 208.86L0.94 208.84L0.95 208.82L0.96 208.8L0.96 208.78L0.97 208.76L0.98 208.74L0.99 208.73L0.99 208.71L1 208.69L1.01 208.68L1.02 208.66L1.02 208.65L1.03 208.64L1.04 208.62L1.05 208.61L1.05 208.6L1.06 208.58L1.07 208.57L1.08 208.56L1.09 208.55L1.09 208.53L1.1 208.52L1.11 208.51L1.12 208.5L1.13 208.49L1.14 208.47L1.15 208.46L1.16 208.44L1.18 208.41L1.2 208.39L1.22 208.37L1.23 208.35L1.24 208.34L1.24 208.33L1.25 208.32L1.26 208.3L1.27 208.29L1.28 208.28L1.29 208.27L1.3 208.25L1.3 208.24L1.31 208.23L1.32 208.21L1.33 208.2L1.33 208.19L1.34 208.17L1.35 208.16L1.35 208.15L1.36 208.13L1.37 208.12L1.37 208.1L1.38 208.09L1.39 208.08L1.39 208.06L1.4 208.05L1.4 208.03L1.41 208.02L1.41 208.01L1.42 207.99L1.43 207.96L1.45 207.92L1.46 207.89L1.46 207.88L1.47 207.86L1.47 207.85L1.48 207.84L1.49 207.82L1.49 207.81L1.5 207.79L1.5 207.78L1.51 207.77L1.52 207.75L1.52 207.74L1.53 207.72L1.53 207.71L1.54 207.7L1.55 207.68L1.56 207.67L1.56 207.66L1.57 207.65L1.58 207.63L108.27 36.93L108.31 36.87L108.34 36.81L108.38 36.75L108.42 36.69L108.46 36.64L108.5 36.58L108.54 36.52L108.58 36.47L108.62 36.41L108.66 36.35L108.7 36.3L108.74 36.24L108.78 36.19L108.82 36.13L108.86 36.08L108.9 36.02L108.95 35.97L108.99 35.92L109.03 35.86L109.08 35.81L109.12 35.76L109.16 35.7L109.21 35.65L109.25 35.6L109.3 35.55L109.34 35.5L109.39 35.45L109.44 35.4L109.48 35.35L109.53 35.3L109.57 35.25L109.62 35.2L109.67 35.15L109.72 35.1L109.77 35.05L109.81 35L109.86 34.95L109.91 34.91L109.96 34.86L110.01 34.81L110.01 34.81L110.02 34.81L110.02 34.8L110.03 34.8L110.04 34.79L110.05 34.79L110.06 34.78L110.07 34.77L110.1 34.75L110.11 34.75L110.12 34.74L110.13 34.73L110.13 34.73L110.14 34.73L110.15 34.72L110.16 34.71L110.17 34.7L110.17 34.7L110.18 34.7L110.18 34.69L110.19 34.69L110.19 34.69L110.26 34.63L110.33 34.57L110.4 34.51L110.47 34.45L110.54 34.39L110.61 34.33L110.68 34.28L110.75 34.22L110.82 34.17L110.9 34.12L110.97 34.06L111.04 34.01L111.12 33.96L111.19 33.91L111.27 33.86L111.34 33.81L111.42 33.76L111.49 33.71L111.57 33.67L111.65 33.62L111.72 33.57L111.8 33.53L111.88 33.48L111.96 33.44L112.04 33.4L112.11 33.35L112.19 33.31L112.27 33.27L112.35 33.23L112.43 33.19L112.51 33.15L112.6 33.11L112.68 33.07L112.76 33.03L112.84 33L112.92 32.96L113 32.92L113.09 32.89L113.17 32.85L113.25 32.82L113.26 32.81L113.28 32.81L113.29 32.8L113.3 32.8L113.31 32.79L113.32 32.79L113.33 32.78L113.34 32.77L113.35 32.77L113.36 32.76L113.37 32.75L113.38 32.75L113.39 32.74L113.4 32.73L113.4 32.73L113.42 32.71L113.46 32.68L113.48 32.67L113.49 32.66L113.5 32.66L113.51 32.65L113.52 32.64L113.53 32.64L113.54 32.63L113.55 32.62L113.56 32.62L113.57 32.61L113.58 32.61L113.59 32.6L113.6 32.6L113.61 32.59L113.62 32.59L113.63 32.58L113.65 32.58L113.66 32.57L113.67 32.57L113.67 32.57L113.68 32.56L113.69 32.56L113.7 32.56L113.71 32.56L113.72 32.56L113.72 32.55L113.73 32.55L113.74 32.55L113.75 32.55L113.76 32.55L113.77 32.55L113.78 32.55L113.8 32.54L113.81 32.54L113.83 32.54L113.86 32.54L113.88 32.54L113.89 32.54L113.91 32.54L113.92 32.53L113.93 32.53L113.94 32.53L113.95 32.53L113.96 32.53L113.96 32.53L113.97 32.53L113.98 32.52L113.99 32.52L114 32.52L114.08 32.49L114.16 32.47L114.24 32.44L114.32 32.42L114.4 32.39L114.48 32.37L114.56 32.35L114.64 32.32L114.72 32.3L114.8 32.28L114.88 32.26L114.96 32.24L115.04 32.21L115.13 32.2L115.21 32.18L115.29 32.16L115.37 32.14L115.45 32.12L115.54 32.1L115.62 32.09L115.7 32.07L115.78 32.06L115.87 32.04L115.95 32.03L116.03 32.02L116.12 32.01L116.2 32L116.28 31.98L116.37 31.97L116.45 31.97L116.54 31.96L116.62 31.95L116.71 31.94L116.79 31.94L116.88 31.93L116.96 31.93L117.05 31.93L117.13 31.92L117.22 31.92L117.31 31.92L522.74 31.92L522.82 31.92L522.91 31.92ZM318.13 561.19L443.76 223.98L194.91 223.98L318.13 561.19ZM345.57 548.64L607.11 223.98L466.53 223.98L345.57 548.64ZM287.84 540.47L172.2 223.98L32.89 223.98L287.84 540.47ZM610.15 202.65L525.15 66.64L474.48 202.65L610.15 202.65ZM164.4 202.64L114.76 66.78L29.85 202.64L164.4 202.64ZM436.28 202.64L320 59.53L203.73 202.64L436.28 202.64ZM183.74 193.38L297.58 53.27L132.54 53.27L183.74 193.38ZM455.51 192.45L507.36 53.27L342.43 53.27L455.51 192.45Z" id="aoN7AcCo2"></path></defs><g><g><g><use xlink:href="#aoN7AcCo2" opacity="1" fill="#000000" fill-opacity="1"></use><g><use xlink:href="#aoN7AcCo2" opacity="1" fill-opacity="0" stroke="#000000" stroke-width="1" stroke-opacity="0"></use></g></g></g></g></svg>