<?xml version="1.0" encoding="UTF-8" standalone="no"?>
<!DOCTYPE svg PUBLIC "-//W3C//DTD SVG 1.1//EN" "http://www.w3.org/Graphics/SVG/1.1/DTD/svg11.dtd">
<svg version="1.1" xmlns="http://www.w3.org/2000/svg" xmlns:xlink="http://www.w3.org/1999/xlink" preserveAspectRatio="xMidYMid meet" viewBox="0 0 640 640" width="260" height="260"><defs><path d="M640 215.17L450.16 215.17L320 590.35L640 215.17Z" id="c2WyxwpITQ"></path><path d="M640 215.17L450.16 215.17L320 590.35L640 215.17Z" id="aDZx6rria"></path><path d="M189.84 215.17L132.41 49.65L0 215.17L189.84 215.17Z" id="f1uqavdDSa"></path><path d="M189.84 215.17L132.41 49.65L0 215.17L189.84 215.17Z" id="caliS8yIN"></path><path d="M507.59 49.65L450.16 215.17L640 215.17L507.59 49.65Z" id="ahWwciSqg"></path><path d="M507.59 49.65L450.16 215.17L640 215.17L507.59 49.65Z" id="b8gNe41fKs"></path><path d="M189.84 215.17L450.16 215.17L320 49.65L189.84 215.17Z" id="d1J58y5wsy"></path><path d="M189.84 215.17L450.16 215.17L320 49.65L189.84 215.17Z" id="c39ZUzPDO0"></path><path d="M189.84 215.17L320 49.65L132.41 49.65L189.84 215.17Z" id="a4ZfANtgbm"></path><path d="M189.84 215.17L320 49.65L132.41 49.65L189.84 215.17Z" id="c2SB5ih5b"></path><path d="M450.16 215.17L507.59 49.65L320 49.65L450.16 215.17Z" id="a2ItFkKIRm"></path><path d="M450.16 215.17L507.59 49.65L320 49.65L450.16 215.17Z" id="foTpdKhPQ"></path><path d="M450.16 215.17L189.84 215.17L320 590.35L450.16 215.17Z" id="c1tWRMSTBX"></path><path d="M450.16 215.17L189.84 215.17L320 590.35L450.16 215.17Z" id="gpRv9PIO2"></path><path d="M189.84 215.17L0 215.17L320 590.35L189.84 215.17Z" id="c1bmSvd3og"></path><path d="M189.84 215.17L0 215.17L320 590.35L189.84 215.17Z" id="a1b9eaSdH1"></path></defs><g><g><g><use xlink:href="#c2WyxwpITQ" opacity="0.5" fill="#ffe182" fill-opacity="1"></use><g><use xlink:href="#c2WyxwpITQ" opacity="0.5" fill-opacity="0" stroke="#000000" stroke-width="1" stroke-opacity="0"></use></g></g><g><use xlink:href="#aDZx6rria" opacity="0.5" fill="#000000" fill-opacity="0"></use><g><use xlink:href="#aDZx6rria" opacity="0.5" fill-opacity="0" stroke="#000000" stroke-width="1" stroke-opacity="0"></use></g></g><g><use xlink:href="#f1uqavdDSa" opacity="0.5" fill="#ffcd73" fill-opacity="1"></use><g><use xlink:href="#f1uqavdDSa" opacity="0.5" fill-opacity="0" stroke="#000000" stroke-width="1" stroke-opacity="0"></use></g></g><g><use xlink:href="#caliS8yIN" opacity="0.5" fill="#000000" fill-opacity="0"></use><g><use xlink:href="#caliS8yIN" opacity="0.5" fill-opacity="0" stroke="#000000" stroke-width="1" stroke-opacity="0"></use></g></g><g><use xlink:href="#ahWwciSqg" opacity="0.5" fill="#ffcd73" fill-opacity="1"></use><g><use xlink:href="#ahWwciSqg" opacity="0.5" fill-opacity="0" stroke="#000000" stroke-width="1" stroke-opacity="0"></use></g></g><g><use xlink:href="#b8gNe41fKs" opacity="0.5" fill="#000000" fill-opacity="0"></use><g><use xlink:href="#b8gNe41fKs" opacity="0.5" fill-opacity="0" stroke="#000000" stroke-width="1" stroke-opacity="0"></use></g></g><g><use xlink:href="#d1J58y5wsy" opacity="0.5" fill="#ffcd73" fill-opacity="1"></use><g><use xlink:href="#d1J58y5wsy" opacity="0.5" fill-opacity="0" stroke="#000000" stroke-width="1" stroke-opacity="0"></use></g></g><g><use xlink:href="#c39ZUzPDO0" opacity="0.5" fill="#000000" fill-opacity="0"></use><g><use xlink:href="#c39ZUzPDO0" opacity="0.5" fill-opacity="0" stroke="#000000" stroke-width="1" stroke-opacity="0"></use></g></g><g><use xlink:href="#a4ZfANtgbm" opacity="0.5" fill="#ffaa64" fill-opacity="1"></use><g><use xlink:href="#a4ZfANtgbm" opacity="0.5" fill-opacity="0" stroke="#000000" stroke-width="1" stroke-opacity="0"></use></g></g><g><use xlink:href="#c2SB5ih5b" opacity="0.5" fill="#000000" fill-opacity="0"></use><g><use xlink:href="#c2SB5ih5b" opacity="0.5" fill-opacity="0" stroke="#000000" stroke-width="1" stroke-opacity="0"></use></g></g><g><use xlink:href="#a2ItFkKIRm" opacity="0.5" fill="#ffe182" fill-opacity="1"></use><g><use xlink:href="#a2ItFkKIRm" opacity="0.5" fill-opacity="0" stroke="#000000" stroke-width="1" stroke-opacity="0"></use></g></g><g><use xlink:href="#foTpdKhPQ" opacity="0.5" fill="#000000" fill-opacity="0"></use><g><use xlink:href="#foTpdKhPQ" opacity="0.5" fill-opacity="0" stroke="#000000" stroke-width="1" stroke-opacity="0"></use></g></g><g><use xlink:href="#c1tWRMSTBX" opacity="0.5" fill="#ffaa64" fill-opacity="1"></use><g><use xlink:href="#c1tWRMSTBX" opacity="0.5" fill-opacity="0" stroke="#000000" stroke-width="1" stroke-opacity="0"></use></g></g><g><use xlink:href="#gpRv9PIO2" opacity="0.5" fill="#000000" fill-opacity="0"></use><g><use xlink:href="#gpRv9PIO2" opacity="0.5" fill-opacity="0" stroke="#000000" stroke-width="1" stroke-opacity="0"></use></g></g><g><use xlink:href="#c1bmSvd3og" opacity="0.5" fill="#ff8c5a" fill-opacity="1"></use><g><use xlink:href="#c1bmSvd3og" opacity="0.5" fill-opacity="0" stroke="#000000" stroke-width="1" stroke-opacity="0"></use></g></g><g><use xlink:href="#a1b9eaSdH1" opacity="0.5" fill="#000000" fill-opacity="0"></use><g><use xlink:href="#a1b9eaSdH1" opacity="0.5" fill-opacity="0" stroke="#000000" stroke-width="1" stroke-opacity="0"></use></g></g></g></g></svg>