<?xml version="1.0" encoding="iso-8859-1"?>
<!-- Generator: Adobe Illustrator 19.0.0, SVG Export Plug-In . SVG Version: 6.00 Build 0)  -->
<svg version="1.1" id="Layer_1" xmlns="http://www.w3.org/2000/svg" xmlns:xlink="http://www.w3.org/1999/xlink" x="0px" y="0px"
	 viewBox="0 0 512.001 512.001" style="enable-background:new 0 0 512.001 512.001;" xml:space="preserve">
<g>
	<g>
		<path d="M511.998,175.942c-0.002-0.451-0.027-0.907-0.07-1.362c-0.013-0.142-0.035-0.28-0.052-0.42
			c-0.038-0.307-0.083-0.612-0.14-0.917c-0.033-0.178-0.069-0.355-0.109-0.531c-0.06-0.267-0.13-0.531-0.205-0.795
			c-0.05-0.176-0.095-0.352-0.151-0.525c-0.104-0.32-0.223-0.637-0.348-0.952c-0.085-0.213-0.177-0.422-0.272-0.631
			c-0.124-0.272-0.25-0.544-0.39-0.811c-0.091-0.172-0.191-0.337-0.288-0.505c-0.085-0.148-0.162-0.298-0.253-0.444l-80-128
			c-0.093-0.148-0.194-0.29-0.291-0.434c-0.062-0.092-0.12-0.184-0.184-0.274c-0.232-0.328-0.476-0.645-0.732-0.951
			c-0.085-0.102-0.174-0.199-0.261-0.299c-0.203-0.23-0.412-0.454-0.628-0.671c-0.094-0.094-0.184-0.19-0.28-0.282
			c-0.281-0.268-0.573-0.522-0.873-0.766c-0.114-0.093-0.231-0.182-0.349-0.272c-0.269-0.206-0.543-0.403-0.825-0.59
			c-0.081-0.053-0.158-0.11-0.239-0.162c-0.351-0.224-0.715-0.427-1.083-0.621c-0.099-0.052-0.197-0.103-0.297-0.153
			c-0.395-0.197-0.797-0.378-1.209-0.539c-0.019-0.007-0.036-0.017-0.055-0.024c-0.043-0.017-0.087-0.027-0.13-0.043
			c-0.384-0.145-0.774-0.273-1.17-0.386c-0.079-0.022-0.157-0.048-0.236-0.069c-0.402-0.108-0.811-0.197-1.223-0.271
			c-0.137-0.025-0.274-0.045-0.411-0.066c-0.322-0.049-0.646-0.087-0.973-0.115c-0.157-0.013-0.313-0.026-0.469-0.035
			c-0.267-0.014-0.534-0.026-0.803-0.026H95c-0.268,0-0.535,0.011-0.801,0.026c-0.159,0.008-0.317,0.021-0.476,0.035
			c-0.324,0.028-0.646,0.066-0.965,0.114c-0.139,0.021-0.277,0.042-0.416,0.067c-0.411,0.074-0.818,0.162-1.219,0.27
			c-0.081,0.022-0.16,0.048-0.241,0.071c-0.395,0.113-0.783,0.241-1.166,0.385c-0.043,0.016-0.087,0.026-0.13,0.043
			c-0.019,0.007-0.036,0.017-0.055,0.024c-0.411,0.161-0.814,0.343-1.209,0.539c-0.1,0.05-0.198,0.101-0.297,0.153
			c-0.368,0.194-0.732,0.397-1.083,0.621c-0.082,0.052-0.159,0.109-0.239,0.162c-0.282,0.187-0.556,0.384-0.825,0.59
			c-0.117,0.09-0.234,0.179-0.349,0.272c-0.3,0.244-0.592,0.498-0.873,0.766c-0.096,0.092-0.187,0.188-0.28,0.282
			c-0.216,0.217-0.425,0.44-0.628,0.671c-0.087,0.1-0.177,0.198-0.261,0.299c-0.255,0.306-0.5,0.623-0.732,0.951
			c-0.063,0.09-0.122,0.183-0.184,0.274c-0.097,0.144-0.198,0.285-0.291,0.434l-80,128c-0.091,0.146-0.168,0.296-0.253,0.444
			c-0.097,0.167-0.197,0.333-0.288,0.505c-0.141,0.267-0.267,0.538-0.39,0.811c-0.095,0.208-0.187,0.417-0.272,0.631
			c-0.126,0.315-0.245,0.631-0.348,0.952c-0.056,0.173-0.102,0.35-0.151,0.525c-0.075,0.264-0.145,0.529-0.205,0.795
			c-0.039,0.176-0.075,0.353-0.109,0.531c-0.057,0.305-0.102,0.611-0.14,0.917c-0.017,0.14-0.039,0.279-0.052,0.42
			c-0.043,0.455-0.068,0.911-0.069,1.367c0,0.018-0.003,0.034-0.003,0.052c0,0.071,0.01,0.139,0.01,0.209
			c0.005,0.372,0.024,0.743,0.056,1.114c0.014,0.162,0.033,0.322,0.052,0.482c0.036,0.295,0.081,0.588,0.135,0.881
			c0.03,0.168,0.058,0.336,0.094,0.502c0.074,0.342,0.164,0.681,0.262,1.019c0.053,0.183,0.111,0.364,0.171,0.544
			c0.104,0.312,0.215,0.622,0.34,0.928c0.069,0.169,0.147,0.333,0.222,0.499c0.11,0.244,0.225,0.485,0.349,0.724
			c0.085,0.163,0.172,0.323,0.262,0.483c0.136,0.24,0.281,0.476,0.431,0.71c0.091,0.141,0.179,0.284,0.274,0.421
			c0.188,0.273,0.39,0.538,0.598,0.8c0.069,0.087,0.132,0.178,0.203,0.264c0.013,0.016,0.024,0.032,0.037,0.047l240.81,287.773
			c0.021,0.027,0.044,0.052,0.066,0.079l0.124,0.148c0.006,0.008,0.014,0.014,0.021,0.022c0.068,0.082,0.142,0.159,0.212,0.24
			c0.215,0.245,0.437,0.482,0.666,0.711c0.078,0.078,0.151,0.159,0.23,0.235c0.003,0.003,0.007,0.006,0.01,0.009
			c0.019,0.018,0.04,0.033,0.058,0.051c0.263,0.248,0.534,0.485,0.812,0.713c0.067,0.055,0.13,0.115,0.198,0.168
			c0.042,0.033,0.086,0.062,0.128,0.094c0.05,0.039,0.102,0.073,0.152,0.111c0.25,0.188,0.504,0.371,0.765,0.542
			c0.111,0.073,0.225,0.142,0.339,0.212c0.083,0.052,0.166,0.103,0.25,0.153c0.202,0.12,0.407,0.232,0.614,0.342
			c0.128,0.068,0.254,0.137,0.385,0.201c0.09,0.045,0.179,0.092,0.27,0.135c0.065,0.031,0.131,0.056,0.197,0.085
			c0.255,0.116,0.51,0.231,0.771,0.332c0.004,0.001,0.008,0.004,0.011,0.005c0.028,0.011,0.056,0.018,0.084,0.028
			c0.099,0.038,0.2,0.069,0.3,0.104c0.115,0.041,0.229,0.082,0.346,0.12c0.158,0.052,0.316,0.104,0.476,0.15
			c0.137,0.04,0.275,0.074,0.412,0.11c0.173,0.045,0.344,0.096,0.518,0.135c0.012,0.003,0.025,0.004,0.038,0.007
			c0.091,0.02,0.183,0.033,0.274,0.052c0.155,0.031,0.31,0.062,0.465,0.088c0.234,0.04,0.469,0.072,0.705,0.1
			c0.077,0.009,0.154,0.021,0.231,0.029c0.107,0.011,0.214,0.025,0.321,0.034c0.399,0.034,0.8,0.054,1.203,0.055
			c0.012,0,0.025,0.002,0.038,0.002c0.001,0,0.003,0,0.004,0c0.001,0,0.003,0,0.004,0c0.012,0,0.025-0.002,0.038-0.002
			c0.403-0.001,0.803-0.021,1.202-0.055c0.107-0.009,0.214-0.022,0.322-0.034c0.078-0.008,0.155-0.02,0.232-0.029
			c0.235-0.029,0.468-0.06,0.7-0.1c0.158-0.027,0.315-0.058,0.473-0.09c0.088-0.018,0.177-0.031,0.264-0.05
			c0.015-0.003,0.03-0.005,0.045-0.009c0.171-0.039,0.339-0.088,0.509-0.133c0.141-0.037,0.283-0.072,0.424-0.114
			c0.157-0.046,0.313-0.097,0.469-0.148c0.118-0.039,0.235-0.081,0.352-0.123c0.093-0.033,0.188-0.063,0.281-0.098
			c0.033-0.013,0.067-0.021,0.1-0.033c0.005-0.002,0.009-0.004,0.014-0.006c0.257-0.1,0.508-0.213,0.759-0.327
			c0.069-0.031,0.14-0.058,0.209-0.091c0.089-0.042,0.175-0.088,0.262-0.131c0.135-0.067,0.265-0.138,0.397-0.208
			c0.202-0.108,0.403-0.218,0.601-0.335c0.086-0.051,0.17-0.103,0.255-0.156c0.115-0.071,0.231-0.142,0.343-0.216
			c0.256-0.168,0.505-0.348,0.751-0.532c0.054-0.041,0.111-0.078,0.165-0.12c0.04-0.031,0.082-0.058,0.122-0.089
			c0.075-0.059,0.143-0.124,0.217-0.184c0.272-0.222,0.537-0.454,0.794-0.696c0.02-0.019,0.042-0.036,0.062-0.054
			c0.003-0.003,0.007-0.006,0.01-0.009c0.081-0.078,0.156-0.16,0.235-0.24c0.226-0.226,0.445-0.46,0.656-0.701
			c0.072-0.082,0.147-0.161,0.217-0.245c0.006-0.008,0.014-0.014,0.021-0.022l0.132-0.158c0.018-0.022,0.037-0.043,0.055-0.065
			l240.813-287.777c0.013-0.015,0.024-0.032,0.037-0.047c0.071-0.085,0.134-0.177,0.203-0.264c0.208-0.262,0.41-0.527,0.598-0.8
			c0.095-0.138,0.183-0.28,0.274-0.421c0.15-0.234,0.295-0.47,0.431-0.71c0.091-0.159,0.177-0.32,0.262-0.483
			c0.124-0.239,0.239-0.48,0.349-0.724c0.075-0.166,0.152-0.33,0.222-0.499c0.125-0.306,0.235-0.616,0.34-0.928
			c0.06-0.18,0.118-0.361,0.171-0.544c0.098-0.337,0.188-0.676,0.262-1.019c0.036-0.166,0.063-0.334,0.094-0.502
			c0.053-0.293,0.099-0.586,0.135-0.881c0.019-0.16,0.038-0.32,0.052-0.482c0.033-0.371,0.051-0.742,0.056-1.114
			c0.001-0.07,0.01-0.138,0.01-0.209C512.001,175.977,511.999,175.96,511.998,175.942z M395.11,62.999l-32.945,85.124
			l-73.419-85.124H395.11z M333.655,160.999h-155.31L256,70.965L333.655,160.999z M223.254,62.999l-73.42,85.124L116.89,62.999
			H223.254z M91.831,81.371l30.817,79.628H42.064L91.831,81.371z M47.111,190.999h87.148l74.987,193.754L47.111,190.999z
			 M256,422.439l-89.572-231.44h179.144L256,422.439z M302.754,384.753l74.987-193.754h87.148L302.754,384.753z M389.352,160.999
			l30.817-79.628l49.767,79.628H389.352z"/>
	</g>
</g>
<g>
</g>
<g>
</g>
<g>
</g>
<g>
</g>
<g>
</g>
<g>
</g>
<g>
</g>
<g>
</g>
<g>
</g>
<g>
</g>
<g>
</g>
<g>
</g>
<g>
</g>
<g>
</g>
<g>
</g>
</svg>
