<?xml version="1.0" encoding="UTF-8" standalone="no"?>
<!DOCTYPE svg PUBLIC "-//W3C//DTD SVG 1.1//EN" "http://www.w3.org/Graphics/SVG/1.1/DTD/svg11.dtd">
<svg version="1.1" xmlns="http://www.w3.org/2000/svg" xmlns:xlink="http://www.w3.org/1999/xlink" preserveAspectRatio="xMidYMid meet" viewBox="0 0 640 640" width="260" height="260"><defs><path d="M514.39 48.5L514.62 48.51L514.85 48.53L515.07 48.55L515.3 48.58L515.52 48.61L515.74 48.65L515.96 48.7L516.18 48.75L516.4 48.8L516.61 48.86L516.83 48.92L517.04 48.99L517.46 49.15L517.67 49.23L517.87 49.32L518.08 49.41L518.28 49.51L518.47 49.61L518.67 49.72L518.86 49.83L519.06 49.94L519.24 50.06L519.43 50.19L519.61 50.32L519.79 50.45L519.97 50.59L520.14 50.73L520.31 50.87L520.48 51.02L520.65 51.18L520.81 51.33L520.97 51.5L521.12 51.66L521.27 51.83L521.42 52L521.7 52.36L638.06 207.52L638.26 207.79L638.45 208.07L638.62 208.35L638.79 208.64L639.09 209.22L639.35 209.82L639.46 210.13L639.56 210.44L639.65 210.75L639.73 211.06L639.8 211.37L639.86 211.69L639.91 212.01L639.95 212.33L639.98 212.64L640 213.28L640 213.6L639.96 214.24L639.92 214.56L639.82 215.2L639.75 215.51L639.67 215.82L639.58 216.13L639.48 216.44L639.38 216.74L639.26 217.05L639.13 217.34L638.99 217.64L638.67 218.22L638.5 218.5L638.32 218.78L638.13 219.05L637.92 219.32L637.71 219.58L327.41 588.06L327.27 588.23L327.13 588.38L326.98 588.54L326.84 588.69L326.68 588.84L326.53 588.99L326.37 589.13L326.21 589.26L326.05 589.4L325.88 589.53L325.71 589.65L325.54 589.78L325.37 589.89L325.19 590.01L325.01 590.12L324.83 590.22L324.65 590.33L324.47 590.43L323.9 590.7L323.71 590.78L323.51 590.86L323.31 590.93L323.12 591L322.92 591.07L322.72 591.13L322.51 591.18L322.31 591.24L322.1 591.28L321.9 591.33L321.69 591.37L321.06 591.46L320.85 591.48L320.64 591.49L320.43 591.51L320.21 591.51L320 591.52L319.79 591.51L319.57 591.51L319.36 591.49L319.15 591.48L318.94 591.46L318.31 591.37L318.1 591.33L317.9 591.28L317.69 591.24L317.49 591.18L317.28 591.13L317.08 591.07L316.88 591L316.69 590.93L316.49 590.86L316.29 590.78L316.1 590.7L315.53 590.43L315.35 590.33L315.17 590.22L314.99 590.12L314.81 590.01L314.63 589.89L314.46 589.78L314.29 589.65L314.12 589.53L313.95 589.4L313.79 589.26L313.63 589.13L313.47 588.99L313.32 588.84L313.16 588.69L313.02 588.54L312.87 588.38L312.73 588.23L312.59 588.06L2.29 219.58L2.08 219.32L1.87 219.05L1.68 218.78L1.5 218.5L1.33 218.22L1.01 217.64L0.87 217.34L0.74 217.05L0.62 216.74L0.52 216.44L0.42 216.13L0.33 215.82L0.25 215.51L0.18 215.2L0.08 214.56L0.04 214.24L0 213.6L0 213.28L0.02 212.64L0.05 212.33L0.09 212.01L0.14 211.69L0.2 211.37L0.27 211.06L0.35 210.75L0.44 210.44L0.54 210.13L0.65 209.82L0.91 209.22L1.21 208.64L1.38 208.35L1.55 208.07L1.74 207.79L1.94 207.52L118.3 52.36L118.58 52L118.88 51.66L119.03 51.5L119.19 51.33L119.35 51.18L119.52 51.02L119.69 50.87L120.03 50.59L120.21 50.45L120.57 50.19L120.76 50.06L120.94 49.94L121.14 49.83L121.33 49.72L121.53 49.61L121.72 49.51L121.92 49.41L122.13 49.32L122.33 49.23L122.96 48.99L123.17 48.92L123.39 48.86L123.6 48.8L124.26 48.65L124.48 48.61L124.7 48.58L124.93 48.55L125.15 48.53L125.38 48.51L125.61 48.5L125.83 48.49L126.06 48.48L513.94 48.48L514.17 48.49L514.39 48.5ZM22.09 212.98L320 566.77L617.91 212.98L509.09 67.88L130.91 67.88L22.09 212.98Z" id="d2LhUUzDAl"></path><path d="M514.39 48.5L514.62 48.51L514.85 48.53L515.07 48.55L515.3 48.58L515.52 48.61L515.74 48.65L515.96 48.7L516.18 48.75L516.4 48.8L516.61 48.86L516.83 48.92L517.04 48.99L517.46 49.15L517.67 49.23L517.87 49.32L518.08 49.41L518.28 49.51L518.47 49.61L518.67 49.72L518.86 49.83L519.06 49.94L519.24 50.06L519.43 50.19L519.61 50.32L519.79 50.45L519.97 50.59L520.14 50.73L520.31 50.87L520.48 51.02L520.65 51.18L520.81 51.33L520.97 51.5L521.12 51.66L521.27 51.83L521.42 52L521.7 52.36L638.06 207.52L638.26 207.79L638.45 208.07L638.62 208.35L638.79 208.64L639.09 209.22L639.35 209.82L639.46 210.13L639.56 210.44L639.65 210.75L639.73 211.06L639.8 211.37L639.86 211.69L639.91 212.01L639.95 212.33L639.98 212.64L640 213.28L640 213.6L639.96 214.24L639.92 214.56L639.82 215.2L639.75 215.51L639.67 215.82L639.58 216.13L639.48 216.44L639.38 216.74L639.26 217.05L639.13 217.34L638.99 217.64L638.67 218.22L638.5 218.5L638.32 218.78L638.13 219.05L637.92 219.32L637.71 219.58L327.41 588.06L327.27 588.23L327.13 588.38L326.98 588.54L326.84 588.69L326.68 588.84L326.53 588.99L326.37 589.13L326.21 589.26L326.05 589.4L325.88 589.53L325.71 589.65L325.54 589.78L325.37 589.89L325.19 590.01L325.01 590.12L324.83 590.22L324.65 590.33L324.47 590.43L323.9 590.7L323.71 590.78L323.51 590.86L323.31 590.93L323.12 591L322.92 591.07L322.72 591.13L322.51 591.18L322.31 591.24L322.1 591.28L321.9 591.33L321.69 591.37L321.06 591.46L320.85 591.48L320.64 591.49L320.43 591.51L320.21 591.51L320 591.52L319.79 591.51L319.57 591.51L319.36 591.49L319.15 591.48L318.94 591.46L318.31 591.37L318.1 591.33L317.9 591.28L317.69 591.24L317.49 591.18L317.28 591.13L317.08 591.07L316.88 591L316.69 590.93L316.49 590.86L316.29 590.78L316.1 590.7L315.53 590.43L315.35 590.33L315.17 590.22L314.99 590.12L314.81 590.01L314.63 589.89L314.46 589.78L314.29 589.65L314.12 589.53L313.95 589.4L313.79 589.26L313.63 589.13L313.47 588.99L313.32 588.84L313.16 588.69L313.02 588.54L312.87 588.38L312.73 588.23L312.59 588.06L2.29 219.58L2.08 219.32L1.87 219.05L1.68 218.78L1.5 218.5L1.33 218.22L1.01 217.64L0.87 217.34L0.74 217.05L0.62 216.74L0.52 216.44L0.42 216.13L0.33 215.82L0.25 215.51L0.18 215.2L0.08 214.56L0.04 214.24L0 213.6L0 213.28L0.02 212.64L0.05 212.33L0.09 212.01L0.14 211.69L0.2 211.37L0.27 211.06L0.35 210.75L0.44 210.44L0.54 210.13L0.65 209.82L0.91 209.22L1.21 208.64L1.38 208.35L1.55 208.07L1.74 207.79L1.94 207.52L118.3 52.36L118.58 52L118.88 51.66L119.03 51.5L119.19 51.33L119.35 51.18L119.52 51.02L119.69 50.87L120.03 50.59L120.21 50.45L120.57 50.19L120.76 50.06L120.94 49.94L121.14 49.83L121.33 49.72L121.53 49.61L121.72 49.51L121.92 49.41L122.13 49.32L122.33 49.23L122.96 48.99L123.17 48.92L123.39 48.86L123.6 48.8L124.26 48.65L124.48 48.61L124.7 48.58L124.93 48.55L125.15 48.53L125.38 48.51L125.61 48.5L125.83 48.49L126.06 48.48L513.94 48.48L514.17 48.49L514.39 48.5ZM22.09 212.98L320 566.77L617.91 212.98L509.09 67.88L130.91 67.88L22.09 212.98Z" id="a23HLyEglg"></path><path d="M0 213.33C0 207.96 4.34 203.64 9.7 203.64C71.76 203.64 568.24 203.64 630.3 203.64C635.66 203.64 640 207.98 640 213.33C640 218.69 635.66 223.03 630.3 223.03C506.18 223.03 71.76 223.03 9.7 223.03C4.34 223.03 0 218.71 0 213.33Z" id="a2lRpFBQ8I"></path><path d="M0 213.33C0 207.96 4.34 203.64 9.7 203.64C71.76 203.64 568.24 203.64 630.3 203.64C635.66 203.64 640 207.98 640 213.33C640 218.69 635.66 223.03 630.3 223.03C506.18 223.03 71.76 223.03 9.7 223.03C4.34 223.03 0 218.71 0 213.33Z" id="cVFOe7Bht"></path><path d="M310.77 578.91C322.4 542.06 415.5 247.27 427.13 210.42C428.74 205.32 434.23 202.45 439.29 204.1C444.41 205.71 447.24 211.16 445.61 216.26C433.98 253.11 340.89 547.9 329.25 584.75C327.95 588.88 324.11 591.52 320 591.52C319.03 591.52 318.04 591.38 317.09 591.07C311.97 589.46 309.14 584.01 310.77 578.91Z" id="a237F741b3"></path><path d="M310.77 578.91C322.4 542.06 415.5 247.27 427.13 210.42C428.74 205.32 434.23 202.45 439.29 204.1C444.41 205.71 447.24 211.16 445.61 216.26C433.98 253.11 340.89 547.9 329.25 584.75C327.95 588.88 324.11 591.52 320 591.52C319.03 591.52 318.04 591.38 317.09 591.07C311.97 589.46 309.14 584.01 310.77 578.91Z" id="bqjlFttzl"></path><path d="M194.39 216.24C192.78 211.14 195.61 205.69 200.71 204.08C205.83 202.43 211.26 205.3 212.87 210.4C224.5 247.25 317.6 542.04 329.23 578.89C330.84 583.99 328.01 589.44 322.91 591.05C321.96 591.38 320.97 591.52 320 591.52C315.89 591.52 312.05 588.88 310.75 584.73C299.11 547.88 206.02 253.09 194.39 216.24Z" id="cbiFP7jlI"></path><path d="M194.39 216.24C192.78 211.14 195.61 205.69 200.71 204.08C205.83 202.43 211.26 205.3 212.87 210.4C224.5 247.25 317.6 542.04 329.23 578.89C330.84 583.99 328.01 589.44 322.91 591.05C321.96 591.38 320.97 591.52 320 591.52C315.89 591.52 312.05 588.88 310.75 584.73C299.11 547.88 206.02 253.09 194.39 216.24Z" id="gDKnoXv63"></path><path d="M117.37 62.53C114.99 57.74 116.93 51.92 121.72 49.51C126.53 47.13 132.32 49.07 134.73 53.86C142.49 69.37 204.55 193.49 212.31 209.01C214.71 213.8 212.75 219.62 207.96 222.02C206.58 222.7 205.11 223.03 203.64 223.03C200.07 223.03 196.65 221.07 194.95 217.68C187.19 202.16 125.13 78.04 117.37 62.53Z" id="dFiRUTeJF"></path><path d="M117.37 62.53C114.99 57.74 116.93 51.92 121.72 49.51C126.53 47.13 132.32 49.07 134.73 53.86C142.49 69.37 204.55 193.49 212.31 209.01C214.71 213.8 212.75 219.62 207.96 222.02C206.58 222.7 205.11 223.03 203.64 223.03C200.07 223.03 196.65 221.07 194.95 217.68C187.19 202.16 125.13 78.04 117.37 62.53Z" id="b5mPwMz7jn"></path><path d="M195.9 207.52C207.53 192 300.63 67.88 312.26 52.36C315.48 48.08 321.55 47.22 325.84 50.42C330.12 53.64 331 59.71 327.78 64C316.14 79.52 223.05 203.64 211.41 219.15C209.49 221.69 206.58 223.03 203.64 223.03C201.62 223.03 199.58 222.39 197.84 221.09C193.55 217.87 192.68 211.8 195.9 207.52Z" id="aIlTfvaVR"></path><path d="M195.9 207.52C207.53 192 300.63 67.88 312.26 52.36C315.48 48.08 321.55 47.22 325.84 50.42C330.12 53.64 331 59.71 327.78 64C316.14 79.52 223.05 203.64 211.41 219.15C209.49 221.69 206.58 223.03 203.64 223.03C201.62 223.03 199.58 222.39 197.84 221.09C193.55 217.87 192.68 211.8 195.9 207.52Z" id="bq0VPhsyy"></path><path d="M312.24 64C309.02 59.71 309.9 53.64 314.18 50.42C318.45 47.19 324.54 48.06 327.76 52.36C339.39 67.88 432.48 192 444.12 207.52C447.34 211.8 446.47 217.87 442.18 221.09C440.44 222.41 438.4 223.03 436.36 223.03C433.42 223.03 430.51 221.69 428.61 219.15C416.97 203.64 323.88 79.52 312.24 64Z" id="a2055VZ3bR"></path><path d="M312.24 64C309.02 59.71 309.9 53.64 314.18 50.42C318.45 47.19 324.54 48.06 327.76 52.36C339.39 67.88 432.48 192 444.12 207.52C447.34 211.8 446.47 217.87 442.18 221.09C440.44 222.41 438.4 223.03 436.36 223.03C433.42 223.03 430.51 221.69 428.61 219.15C416.97 203.64 323.88 79.52 312.24 64Z" id="b3eOUt8fSJ"></path><path d="M427.69 208.99C435.45 193.47 497.51 69.35 505.27 53.84C507.68 49.05 513.47 47.11 518.28 49.49C523.07 51.9 525.01 57.72 522.63 62.51C514.87 78.02 452.81 202.14 445.05 217.66C443.33 221.07 439.91 223.03 436.36 223.03C434.91 223.03 433.44 222.7 432.04 222C427.25 219.6 425.31 213.78 427.69 208.99Z" id="coDLwLiS9"></path><path d="M427.69 208.99C435.45 193.47 497.51 69.35 505.27 53.84C507.68 49.05 513.47 47.11 518.28 49.49C523.07 51.9 525.01 57.72 522.63 62.51C514.87 78.02 452.81 202.14 445.05 217.66C443.33 221.07 439.91 223.03 436.36 223.03C434.91 223.03 433.44 222.7 432.04 222C427.25 219.6 425.31 213.78 427.69 208.99Z" id="aKaMEaqyv"></path></defs><g><g><g><use xlink:href="#d2LhUUzDAl" opacity="1" fill="#000000" fill-opacity="1"></use><g><use xlink:href="#d2LhUUzDAl" opacity="1" fill-opacity="0" stroke="#000000" stroke-width="1" stroke-opacity="0"></use></g></g><g><use xlink:href="#a23HLyEglg" opacity="1" fill="#000000" fill-opacity="0"></use><g><use xlink:href="#a23HLyEglg" opacity="1" fill-opacity="0" stroke="#000000" stroke-width="1" stroke-opacity="0"></use></g></g><g><use xlink:href="#a2lRpFBQ8I" opacity="1" fill="#000000" fill-opacity="1"></use><g><use xlink:href="#a2lRpFBQ8I" opacity="1" fill-opacity="0" stroke="#000000" stroke-width="1" stroke-opacity="0"></use></g></g><g><use xlink:href="#cVFOe7Bht" opacity="1" fill="#000000" fill-opacity="0"></use><g><use xlink:href="#cVFOe7Bht" opacity="1" fill-opacity="0" stroke="#000000" stroke-width="1" stroke-opacity="0"></use></g></g><g><use xlink:href="#a237F741b3" opacity="1" fill="#000000" fill-opacity="1"></use><g><use xlink:href="#a237F741b3" opacity="1" fill-opacity="0" stroke="#000000" stroke-width="1" stroke-opacity="0"></use></g></g><g><use xlink:href="#bqjlFttzl" opacity="1" fill="#000000" fill-opacity="0"></use><g><use xlink:href="#bqjlFttzl" opacity="1" fill-opacity="0" stroke="#000000" stroke-width="1" stroke-opacity="0"></use></g></g><g><use xlink:href="#cbiFP7jlI" opacity="1" fill="#000000" fill-opacity="1"></use><g><use xlink:href="#cbiFP7jlI" opacity="1" fill-opacity="0" stroke="#000000" stroke-width="1" stroke-opacity="0"></use></g></g><g><use xlink:href="#gDKnoXv63" opacity="1" fill="#000000" fill-opacity="0"></use><g><use xlink:href="#gDKnoXv63" opacity="1" fill-opacity="0" stroke="#000000" stroke-width="1" stroke-opacity="0"></use></g></g><g><use xlink:href="#dFiRUTeJF" opacity="1" fill="#000000" fill-opacity="1"></use><g><use xlink:href="#dFiRUTeJF" opacity="1" fill-opacity="0" stroke="#000000" stroke-width="1" stroke-opacity="0"></use></g></g><g><use xlink:href="#b5mPwMz7jn" opacity="1" fill="#000000" fill-opacity="0"></use><g><use xlink:href="#b5mPwMz7jn" opacity="1" fill-opacity="0" stroke="#000000" stroke-width="1" stroke-opacity="0"></use></g></g><g><use xlink:href="#aIlTfvaVR" opacity="1" fill="#000000" fill-opacity="1"></use><g><use xlink:href="#aIlTfvaVR" opacity="1" fill-opacity="0" stroke="#000000" stroke-width="1" stroke-opacity="0"></use></g></g><g><use xlink:href="#bq0VPhsyy" opacity="1" fill="#000000" fill-opacity="0"></use><g><use xlink:href="#bq0VPhsyy" opacity="1" fill-opacity="0" stroke="#000000" stroke-width="1" stroke-opacity="0"></use></g></g><g><use xlink:href="#a2055VZ3bR" opacity="1" fill="#000000" fill-opacity="1"></use><g><use xlink:href="#a2055VZ3bR" opacity="1" fill-opacity="0" stroke="#000000" stroke-width="1" stroke-opacity="0"></use></g></g><g><use xlink:href="#b3eOUt8fSJ" opacity="1" fill="#000000" fill-opacity="0"></use><g><use xlink:href="#b3eOUt8fSJ" opacity="1" fill-opacity="0" stroke="#000000" stroke-width="1" stroke-opacity="0"></use></g></g><g><use xlink:href="#coDLwLiS9" opacity="1" fill="#000000" fill-opacity="1"></use><g><use xlink:href="#coDLwLiS9" opacity="1" fill-opacity="0" stroke="#000000" stroke-width="1" stroke-opacity="0"></use></g></g><g><use xlink:href="#aKaMEaqyv" opacity="1" fill="#000000" fill-opacity="0"></use><g><use xlink:href="#aKaMEaqyv" opacity="1" fill-opacity="0" stroke="#000000" stroke-width="1" stroke-opacity="0"></use></g></g></g></g></svg>