<?xml version="1.0" encoding="iso-8859-1"?>
<!-- Generator: Adobe Illustrator 19.0.0, SVG Export Plug-In . SVG Version: 6.00 Build 0)  -->
<svg version="1.1" id="Capa_1" xmlns="http://www.w3.org/2000/svg" xmlns:xlink="http://www.w3.org/1999/xlink" x="0px" y="0px"
	 viewBox="0 0 512 512" style="enable-background:new 0 0 512 512;" xml:space="preserve">
<circle style="fill:#EA5419;" cx="256" cy="256" r="256"/>
<path style="fill:#F2F2F2;" d="M429.185,237.87c-1.097,11.766-4.796,24.503-12.56,36.237
	c-23.939,36.206-71.523,33.385-82.881,44.743c-11.358,11.358-11.191,29.236-10.783,71.408c0.397,42.162-23.73,93.874-63.979,117.781
	c-2.205,1.306-4.545,2.623-7.011,3.929C112.445,509.815,0.003,396.036,0.003,255.999c0-2.873,0.052-5.736,0.146-8.589
	c24.189-39.581,75.337-63.258,117.102-62.851c42.172,0.397,60.05,0.575,71.408-10.783c11.358-11.368,8.547-58.953,44.743-82.892
	c11.734-7.753,24.472-11.452,36.237-12.549c16.509-1.546,28.996,15.151,23.103,30.563c-6.071,15.903-8.474,31.514-2.142,37.857
	c3.291,3.281,6.907,4.827,10.303,5.413c6.322,1.087,12.769-1.233,17.303-5.778l93.56-93.56
	c16.112,12.361,30.699,26.593,43.447,42.381l-94.093,94.093c-4.545,4.545-6.865,10.982-5.768,17.304
	c0.575,3.396,2.121,7.011,5.413,10.303c6.332,6.343,21.943,3.929,37.846-2.142C414.034,208.874,430.721,221.361,429.185,237.87z"/>
<g>
	<path style="fill:#EA5419;" d="M105.259,232.359c15.104,0.432,43.962-11.889,54.334-15.243c10.371-3.355,17.784,0.508,17.958,6.599
		c0.173,6.091-4.761,12.279-9.954,9.452c-5.193-2.826-4.176-9.857-4.176-9.857s-13.977,4.956-26.282,8.743
		c-12.306,3.787-19.1,13.085-26.575,24.069c-15.104-0.432-43.962,11.889-54.334,15.243s-17.784-0.508-17.958-6.599
		c-0.173-6.091,4.761-12.279,9.954-9.452c5.193,2.827,4.176,9.857,4.176,9.857s13.977-4.956,26.282-8.743
		C90.99,252.642,97.784,243.343,105.259,232.359z"/>
	<path style="fill:#EA5419;" d="M269.075,396.175c-0.432-15.104,11.889-43.962,15.243-54.334
		c3.355-10.372-0.508-17.784-6.599-17.958s-12.279,4.761-9.452,9.954c2.826,5.192,9.857,4.176,9.857,4.176
		s-4.956,13.977-8.743,26.282s-13.085,19.1-24.069,26.575c0.432,15.104-11.889,43.962-15.243,54.334
		c-3.355,10.371,0.508,17.784,6.599,17.958s12.279-4.761,9.452-9.954c-2.826-5.193-9.857-4.176-9.857-4.176
		s4.956-13.977,8.743-26.282C248.792,410.444,258.091,403.65,269.075,396.175z"/>
	<path style="fill:#EA5419;" d="M216.039,354.169l-62.697-62.697c-1.854-1.854-4.86-1.854-6.713,0l-5.314,5.314
		c-1.854,1.854-1.854,4.86,0,6.713l62.697,62.697c1.854,1.854,4.86,1.854,6.713,0l5.314-5.314
		C217.893,359.029,217.893,356.023,216.039,354.169z"/>
	<path style="fill:#EA5419;" d="M328.522,278.218c3.859-8.99,11.576-19.134,18.724-27.403c8.37-9.673,7.929-24.126-1.113-33.166
		l-4.079-4.079l-57.132-57.132l-32.325,32.325l48.111,48.111l-36.835,36.835l-48.111-48.111l-32.325,32.325
		c0,0,79.845,79.082,82.19,83.693c6.766,13.281,15.536,27.563,30.069,20.548C320.333,350.274,320.253,297.513,328.522,278.218z
		 M262.62,188.761l22.301-22.301l52.371,52.371l-22.301,22.301L262.62,188.761z M245.831,310.292l-52.371-52.371l22.301-22.301
		l52.371,52.371L245.831,310.292z"/>
</g>
<g>
</g>
<g>
</g>
<g>
</g>
<g>
</g>
<g>
</g>
<g>
</g>
<g>
</g>
<g>
</g>
<g>
</g>
<g>
</g>
<g>
</g>
<g>
</g>
<g>
</g>
<g>
</g>
<g>
</g>
</svg>
