<?xml version="1.0" encoding="iso-8859-1"?>
<!-- Generator: Adobe Illustrator 19.0.0, SVG Export Plug-In . SVG Version: 6.00 Build 0)  -->
<svg version="1.1" id="Capa_1" xmlns="http://www.w3.org/2000/svg" xmlns:xlink="http://www.w3.org/1999/xlink" x="0px" y="0px"
	 viewBox="0 0 512 512" style="enable-background:new 0 0 512 512;" xml:space="preserve">
<path style="fill:#FF8A33;" d="M363.222,334.071c-26.683-3.816-37.086-28.583-38.303-31.724c-0.08-0.205-0.15-0.417-0.212-0.628
	c-10.897-37.065,11.183-52.516,20.14-57.11c2.263-1.161,3.73-3.44,3.91-5.977c6.791-95.527-69.029-99.877-88.343-99.447
	c-2.942,0.066-5.885,0.066-8.827,0c-19.314-0.43-95.134,3.921-88.343,99.447c0.18,2.537,1.647,4.817,3.91,5.977
	c8.958,4.593,31.037,20.045,20.14,57.11c-0.062,0.211-0.133,0.423-0.212,0.628c-1.217,3.141-11.62,27.908-38.303,31.724
	c-2.509,0.359-4.609,2.075-5.563,4.423c-10.561,25.98-61.087,168.681,104.912,165.337c5.248-0.106,10.497-0.106,15.745,0
	c165.998,3.344,115.473-139.357,104.912-165.337C367.831,336.146,365.731,334.43,363.222,334.071z"/>
<g>
	<path style="fill:#ED7829;" d="M321.99,497.242c40.6-47.227,13.852-130.197,6.484-150.286c-0.947-2.604-3.046-4.508-5.557-4.909
		c-26.686-4.23-37.09-31.718-38.305-35.207c-0.082-0.227-0.154-0.463-0.216-0.7c-10.888-41.135,11.187-58.28,20.14-63.375
		c2.264-1.297,3.736-3.818,3.911-6.638c3.509-54.833-15.067-82.599-36.514-96.565c28.013,2.367,82.64,17.362,76.826,99.066
		c-0.185,2.542-1.647,4.816-3.911,5.979c-8.954,4.6-31.039,20.048-20.14,57.107c0.062,0.216,0.134,0.432,0.216,0.638
		c1.214,3.139,11.619,27.9,38.294,31.718c2.511,0.36,4.611,2.079,5.568,4.425C377.852,360.798,416.394,469.177,321.99,497.242z"/>
	<path style="fill:#ED7829;" d="M321.99,497.242c40.6-47.227,13.852-130.197,6.484-150.286c-0.947-2.604-3.046-4.508-5.557-4.909
		c-26.686-4.23-37.09-31.718-38.305-35.207c-0.082-0.227-0.154-0.463-0.216-0.7c-10.888-41.135,11.187-58.28,20.14-63.375
		c2.264-1.297,3.736-3.818,3.911-6.638c3.509-54.833-15.067-82.599-36.514-96.565c28.013,2.367,82.64,17.362,76.826,99.066
		c-0.185,2.542-1.647,4.816-3.911,5.979c-8.954,4.6-31.039,20.048-20.14,57.107c0.062,0.216,0.134,0.432,0.216,0.638
		c1.214,3.139,11.619,27.9,38.294,31.718c2.511,0.36,4.611,2.079,5.568,4.425C377.852,360.798,416.394,469.177,321.99,497.242z"/>
</g>
<path style="fill:#FFD15C;" d="M263.806,278.894h-15.611c-2.8,0-5.069-2.27-5.069-5.069V56.047h25.749v217.778
	C268.876,276.625,266.606,278.894,263.806,278.894z"/>
<path style="fill:#424A4C;" d="M284.473,456.914h-56.943c-2.564,0-4.642,2.078-4.642,4.642v13.617c0,2.564,2.078,4.642,4.642,4.642
	h14.236v21.044c0,6.128,5.014,11.141,11.141,11.141h6.19c6.128,0,11.141-5.014,11.141-11.141v-21.044h14.236
	c2.564,0,4.642-2.078,4.642-4.642v-13.617C289.115,458.992,287.036,456.914,284.473,456.914z"/>
<g>
	<path style="fill:#FFD15C;" d="M199.385,415.052h-4.239c-4.263,0-7.719-3.456-7.719-7.719s3.456-7.719,7.719-7.719h4.239
		c5.904,0,10.707-4.803,10.707-10.708v-33.525c0-14.416,11.729-26.145,26.145-26.145c4.263,0,7.719,3.456,7.719,7.719
		s-3.456,7.719-7.719,7.719c-5.904,0-10.708,4.803-10.708,10.708v33.525C225.531,403.323,213.803,415.052,199.385,415.052z"/>
	<path style="fill:#FFD15C;" d="M316.854,415.052h-4.239c-14.416,0-26.144-11.729-26.144-26.145v-33.525
		c0-5.904-4.803-10.708-10.708-10.708c-4.263,0-7.719-3.456-7.719-7.719s3.456-7.719,7.719-7.719
		c14.416,0,26.145,11.729,26.145,26.145v33.525c0,5.904,4.803,10.708,10.707,10.708h4.239c4.263,0,7.719,3.456,7.719,7.719
		S321.117,415.052,316.854,415.052z"/>
</g>
<path style="fill:#424A4C;" d="M290.963,32.703h-14.702c-0.613,0-1.206,0.082-1.777,0.221l-0.688-7.148h17.167
	c4.142,0,7.5-3.358,7.5-7.5s-3.358-7.5-7.5-7.5h-18.082c-0.178,0-0.352,0.014-0.526,0.027l-0.592-6.149
	C271.51,2.014,269.293,0,266.642,0h-10.073h-1.136h-10.073c-2.651,0-4.868,2.014-5.122,4.653l-0.592,6.149
	c-0.175-0.012-0.349-0.027-0.526-0.027h-18.082c-4.142,0-7.5,3.358-7.5,7.5s3.358,7.5,7.5,7.5h17.167l-0.688,7.148
	c-0.571-0.139-1.164-0.221-1.777-0.221h-14.702c-4.142,0-7.5,3.358-7.5,7.5s3.358,7.5,7.5,7.5h14.702
	c0.12,0,0.237-0.012,0.356-0.018l-0.275,2.86c-0.291,3.023,2.085,5.639,5.122,5.639h14.489h1.136h14.489
	c3.037,0,5.413-2.616,5.122-5.639l-0.275-2.86c0.119,0.006,0.236,0.018,0.356,0.018h14.702c4.142,0,7.5-3.358,7.5-7.5
	S295.105,32.703,290.963,32.703z"/>
<g>
</g>
<g>
</g>
<g>
</g>
<g>
</g>
<g>
</g>
<g>
</g>
<g>
</g>
<g>
</g>
<g>
</g>
<g>
</g>
<g>
</g>
<g>
</g>
<g>
</g>
<g>
</g>
<g>
</g>
</svg>
