<?xml version="1.0" encoding="iso-8859-1"?>
<!-- Generator: Adobe Illustrator 19.0.0, SVG Export Plug-In . SVG Version: 6.00 Build 0)  -->
<svg version="1.1" id="Layer_1" xmlns="http://www.w3.org/2000/svg" xmlns:xlink="http://www.w3.org/1999/xlink" x="0px" y="0px"
	 viewBox="0 0 512 512" style="enable-background:new 0 0 512 512;" xml:space="preserve">
<path style="fill:#F7B239;" d="M321.03,169.599v18.95l-27.324,57.627c-15.279-5.862-83.096-5.862-98.376,0l-27.324-57.627v-18.95
	H321.03z"/>
<g>
	<polygon style="fill:#4D4D4D;" points="168.212,467.125 165.757,473.881 157.073,497.775 144.857,497.775 156.202,466.574 
		157.429,463.214 	"/>
	<polygon style="fill:#4D4D4D;" points="344.178,497.775 331.961,497.775 323.278,473.881 320.823,467.125 331.606,463.214 
		332.833,466.574 	"/>
	<polygon style="fill:#4D4D4D;" points="79.368,447.543 129.6,497.775 113.38,497.775 79.368,463.765 79.368,497.775 
		67.897,497.775 67.897,463.765 33.886,497.775 17.665,497.775 67.897,447.543 67.897,126.881 46.217,126.881 46.217,115.41 
		67.897,115.41 67.897,86.067 2.868,86.067 2.868,74.596 144.409,74.596 144.409,86.067 79.368,86.067 	"/>
	<polygon style="fill:#4D4D4D;" points="79.373,55.466 144.411,55.466 144.411,43.994 79.373,43.994 79.373,13.387 67.902,13.387 
		67.902,43.994 2.864,43.994 2.864,55.466 67.902,55.466 	"/>
	<polygon style="fill:#4D4D4D;" points="421.138,115.41 442.818,115.41 442.818,126.881 421.138,126.881 421.138,447.543 
		471.369,497.775 455.149,497.775 421.138,463.765 421.138,497.775 409.667,497.775 409.667,463.765 375.655,497.775 
		359.435,497.775 409.667,447.543 409.667,86.067 321.672,86.067 321.672,74.596 409.667,74.596 409.667,49.096 421.138,49.096 
		421.138,74.596 509.132,74.596 509.132,86.067 421.138,86.067 	"/>
</g>
<g>
	<path style="fill:#F95428;" d="M168.005,188.551l-94.373-13.57l-19.122-2.753l-11.253,78.267l30.375,4.37l71.843,10.335
		c4.588-4.756,17.348,5.68,22.579,1.625c10.58-8.202,14.564-29.754,27.275-34.605l5.598-38.933L168.005,188.551z"/>
	<path style="fill:#F95428;" d="M434.536,172.227l-19.134,2.753l-94.373,13.57l-32.922,4.738l5.598,38.933
		c6.502,2.48,2.96,21.266,8.944,24.663c11.51,6.534,30.59,15.294,40.921,8.317l71.832-10.335l30.375-4.37L434.536,172.227z"/>
</g>
<g>
	<path style="fill:#F7B239;" d="M138.674,58.331H8.603C3.852,58.331,0,54.479,0,49.728s3.852-8.603,8.603-8.603h130.071
		c4.751,0,8.603,3.852,8.603,8.603S143.425,58.331,138.674,58.331z"/>
	<path style="fill:#F7B239;" d="M138.674,88.935H8.603C3.852,88.935,0,85.083,0,80.331s3.852-8.603,8.603-8.603h130.071
		c4.751,0,8.603,3.852,8.603,8.603S143.425,88.935,138.674,88.935z"/>
	<path style="fill:#F7B239;" d="M503.397,88.935H327.407c-4.751,0-8.603-3.852-8.603-8.603s3.852-8.603,8.603-8.603h175.989
		c4.751,0,8.603,3.852,8.603,8.603S508.148,88.935,503.397,88.935z"/>
</g>
<path style="fill:#3A88D6;" d="M343.57,265.199c-13.88-14.373-30.857-25.73-49.865-32.979c-15.279-5.862-31.855-9.062-49.188-9.062
	s-33.908,3.2-49.188,9.062c-18.996,7.25-35.985,18.606-49.853,32.979c-23.952,24.778-38.68,58.514-38.68,95.692
	c0,42.454,19.203,80.424,49.406,105.683c3.074,2.581,6.263,5.013,9.555,7.307c18.411,12.859,40.103,21.325,63.561,23.894
	c4.99,0.551,10.06,0.837,15.199,0.837s10.209-0.287,15.199-0.837c23.458-2.569,45.15-11.035,63.561-23.894
	c3.292-2.294,6.481-4.726,9.555-7.307c30.203-25.259,49.417-63.229,49.417-105.683C382.251,323.713,367.522,289.978,343.57,265.199z
	 M244.517,467.641c-58.961,0-106.75-47.8-106.75-106.75c0-58.961,47.789-106.761,106.75-106.761s106.761,47.8,106.761,106.761
	C351.279,419.842,303.479,467.641,244.517,467.641z"/>
<path style="fill:#F2F2F2;" d="M244.517,251.071c60.651,0,109.821,49.17,109.821,109.821c0,60.64-49.17,109.809-109.821,109.809
	s-109.809-49.17-109.809-109.809C134.708,300.241,183.866,251.071,244.517,251.071z"/>
<g>
</g>
<g>
</g>
<g>
</g>
<g>
</g>
<g>
</g>
<g>
</g>
<g>
</g>
<g>
</g>
<g>
</g>
<g>
</g>
<g>
</g>
<g>
</g>
<g>
</g>
<g>
</g>
<g>
</g>
</svg>
