<?xml version="1.0" encoding="iso-8859-1"?>
<!-- Generator: Adobe Illustrator 19.0.0, SVG Export Plug-In . SVG Version: 6.00 Build 0)  -->
<svg version="1.1" id="Layer_1" xmlns="http://www.w3.org/2000/svg" xmlns:xlink="http://www.w3.org/1999/xlink" x="0px" y="0px"
	 viewBox="0 0 511.999 511.999" style="enable-background:new 0 0 511.999 511.999;" xml:space="preserve">
<path style="fill:#D80027;" d="M222.768,413.884c0,0,6.221-32.662,33.569-44.457c20.224-8.722,51.956-26.735,69.85-45.226
	c6.335-6.548,6.173-17.005-0.382-23.327c-5.619-5.438-14.102-6.068-20.401-2.002c0,0-14.742,9.786-40.834-3.142
	c-19.238-9.533-4.229-30.546-4.229-30.546s-29.456-29.918-29.646-29.739c-18.715,17.575-18.13-5.263-18.13-5.263
	c-0.548-25.551,18.934-47.711,18.934-47.711c8.772-8.399,9.077-22.318,0.681-31.093c-8.424-8.81-22.322-9.086-31.099-0.688
	c-2.575,2.463-33.715,32.66-60.574,75.753l0,0c0,0-24.022,38.387-57.579,42.469c-0.046,0.005-23.842,3.992-41.175,16.945
	c-47.577,35.557-56.062,106.445-17.345,160.526s109.253,69.893,157.55,35.319C204.566,465.515,218.533,440.763,222.768,413.884z"/>
<path style="fill:#A5001E;" d="M39.122,458.224C0.406,404.144,8.89,333.256,56.468,297.699c17.333-12.954,41.13-16.94,41.175-16.945
	c33.557-4.081,57.489-42.325,57.576-42.464c0.001-0.001,0.004-0.006,0.004-0.006l0,0c26.859-43.092,57.999-73.29,60.574-75.753
	c5.601-5.358,13.282-7.168,20.299-5.5c-0.978-2.026-2.275-3.94-3.913-5.653c-8.424-8.81-22.322-9.086-31.099-0.688
	c-2.575,2.463-33.715,32.66-60.574,75.753l0,0c0,0-24.022,38.387-57.579,42.469c-0.046,0.005-23.842,3.992-41.175,16.945
	C-5.822,321.414-14.307,392.302,24.41,446.383c9.237,12.903,20.289,23.622,32.415,32.003
	C50.412,472.413,44.463,465.685,39.122,458.224z"/>
<path style="fill:#FFFFFF;" d="M290.663,319.977c-1.759-3.622-6.979-4.034-10.888-3.783c-1.463,0.259-3.007,0.478-4.63,0.631
	c-0.01,0.002-0.024,0.005-0.024,0.005l0.004-0.003c-11.021,1.043-25.353-0.854-38.289-12.803c-0.001-0.001-0.002-0.002-0.003-0.003
	c-9.432-9.432-6.756-19.823-3.09-28.779c-4.617-4.678-9.174-10.072-14.044-14.949c-10.922,6.234-21.237-1.929-24.063-4.753
	c0,0-0.001-0.001-0.002-0.002c-4.018-4.018-5.319-9.694-5.717-13.642c-0.882-4.872-2.829-8.461-2.829-8.461
	s-16.352-28.113-28.482,17.458c0,0-8.48,50.683-48.598,72.668c0.091,0.091-62.747,25.447,15.158,104.086
	c0,0,16.775,19.623,18.32,41.161c0,0-0.371,9.608,6.601,7.262c5.255-2.264,10.313-5.082,15.085-8.499
	c18.411-13.18,30.486-32.761,34.227-56.503c0,0,7.443-37.516,38.001-50.694c14.033-6.052,32.461-16.182,47.383-27.289
	C294.507,325.047,290.655,320.13,290.663,319.977z"/>
<path style="fill:#D8D7DA;" d="M120.648,334.011c40.118-21.986,48.598-72.668,48.598-72.668
	c6.068-22.795,13.192-27.154,18.798-25.816c-0.537-1.312-0.956-2.091-0.956-2.091s-16.352-28.113-28.483,17.458
	c0,0-8.48,50.683-48.598,72.668c0.091,0.091-62.747,25.447,15.158,104.086c0,0,16.775,19.623,18.32,41.161
	c0,0-0.372,9.608,6.601,7.262c1.142-0.492,2.274-1.016,3.396-1.561c-3.54-19.427-17.677-36.414-17.677-36.414
	C57.901,359.459,120.739,334.102,120.648,334.011z"/>
<g>
	<circle style="fill:#57565C;" cx="166.545" cy="419.848" r="13.584"/>
	<circle style="fill:#57565C;" cx="166.545" cy="452.282" r="7.732"/>
	<path style="fill:#57565C;" d="M108.477,430.502l-43.353-43.353c-4.046-4.046-4.046-10.667,0-14.713l3.432-3.432
		c4.046-4.046,10.667-4.046,14.713,0l43.353,43.353c4.046,4.046,4.046,10.667,0,14.713l-3.432,3.432
		C119.145,434.548,112.523,434.548,108.477,430.502z"/>
</g>
<path style="fill:#2D2D30;" d="M75.573,383.445l3.432-3.432c4.047-4.046,10.667-4.046,14.714,0l-10.449-11.009
	c-4.046-4.046-10.667-4.046-14.714,0l-3.432,3.432c-4.046,4.046-4.046,10.667,0,14.714l8.749,8.749
	C71.653,391.935,72.213,386.805,75.573,383.445z"/>
<g>
	<path style="fill:#ACABB1;" d="M146.062,394.403c-2.005,0-4.011-0.765-5.542-2.296l-36.946-36.946
		c-3.062-3.06-3.062-8.022-0.001-11.082c3.062-3.061,8.023-3.061,11.083,0l36.946,36.945c3.062,3.06,3.062,8.022,0.001,11.082
		C150.074,393.638,148.067,394.403,146.062,394.403z"/>
	<path style="fill:#ACABB1;" d="M172.097,366.672c-2.006,0-4.011-0.765-5.542-2.296l-35.282-35.282
		c-3.061-3.06-3.061-8.023,0-11.082c3.063-3.06,8.024-3.06,11.083,0l35.282,35.282c3.061,3.06,3.061,8.023,0,11.082
		C176.108,365.907,174.102,366.672,172.097,366.672z"/>
	<path style="fill:#ACABB1;" d="M196.2,336.066c-2.005,0-4.011-0.765-5.542-2.296l-31.229-31.228c-3.061-3.06-3.061-8.023,0-11.082
		c3.062-3.06,8.023-3.06,11.083,0l31.229,31.228c3.061,3.06,3.061,8.023,0,11.082C200.21,335.301,198.204,336.066,196.2,336.066z"/>
</g>
<path style="fill:#57565C;" d="M391.499,125.906l-21.386-21.386L191.466,272.286c-3.012,3.012-1.375,6.131,0.913,8.419
	l22.691,22.691c2.293,2.293,5.696,3.646,8.439,0.903L391.499,125.906z"/>
<path style="fill:#2D2D30;" d="M201.226,283.049l178.646-167.766l-9.759-10.763L191.466,272.286
	c-3.012,3.012-1.375,6.131,0.913,8.419l7.531,7.531C199.3,286.595,199.47,284.805,201.226,283.049z"/>
<g>
	<path style="fill:#FFDAAA;" d="M206.983,257.949c-0.044-0.044-0.096-0.076-0.142-0.116l-3.721,3.494
		c0.07,0.091,0.135,0.184,0.218,0.267l30.799,30.799c0.099,0.099,0.21,0.182,0.321,0.262l3.489-3.705
		c-0.055-0.067-0.102-0.139-0.165-0.202L206.983,257.949z"/>
	<polygon style="fill:#FFDAAA;" points="219.697,245.759 250.043,276.104 253.579,272.35 223.457,242.228 	"/>
	<polygon style="fill:#FFDAAA;" points="236.302,230.166 265.658,259.522 269.193,255.768 240.06,226.635 	"/>
	<polygon style="fill:#FFDAAA;" points="252.904,214.574 281.272,242.942 284.808,239.188 256.664,211.043 	"/>
	<polygon style="fill:#FFDAAA;" points="269.508,198.982 296.887,226.361 300.422,222.606 273.267,195.451 	"/>
	<polygon style="fill:#FFDAAA;" points="286.112,183.389 312.501,209.779 316.037,206.025 289.872,179.859 	"/>
	<polygon style="fill:#FFDAAA;" points="302.716,167.797 328.116,193.198 331.651,189.443 306.474,164.267 	"/>
	<polygon style="fill:#FFDAAA;" points="319.319,152.205 343.73,176.617 347.266,172.863 323.077,148.674 	"/>
	<polygon style="fill:#FFDAAA;" points="362.88,156.281 339.682,133.082 335.922,136.613 359.345,160.035 	"/>
	<polygon style="fill:#FFDAAA;" points="378.495,139.7 356.284,117.491 352.526,121.021 374.959,143.454 	"/>
</g>
<g>
	<path style="fill:#FFB655;" d="M206.84,257.833l-3.721,3.494c0.07,0.091,0.135,0.184,0.218,0.267l10.041,10.041l3.76-3.531
		l-10.156-10.156C206.938,257.905,206.887,257.874,206.84,257.833z"/>
	<polygon style="fill:#FFB655;" points="219.698,245.759 229.983,256.044 233.742,252.513 223.457,242.228 	"/>
	<polygon style="fill:#FFB655;" points="236.302,230.166 246.587,240.451 250.346,236.921 240.061,226.635 	"/>
	<polygon style="fill:#FFB655;" points="252.905,214.574 263.19,224.859 266.95,221.329 256.664,211.043 	"/>
	<polygon style="fill:#FFB655;" points="269.508,198.982 279.794,209.267 283.553,205.736 273.267,195.451 	"/>
	<polygon style="fill:#FFB655;" points="286.112,183.389 296.397,193.675 300.157,190.144 289.872,179.859 	"/>
	<polygon style="fill:#FFB655;" points="302.716,167.797 313,178.082 316.76,174.552 306.475,164.267 	"/>
	<polygon style="fill:#FFB655;" points="319.319,152.205 329.604,162.49 333.363,158.96 323.077,148.674 	"/>
	<polygon style="fill:#FFB655;" points="335.922,136.613 346.207,146.898 349.967,143.367 339.682,133.082 	"/>
	<polygon style="fill:#FFB655;" points="356.285,117.491 352.526,121.021 362.811,131.306 366.57,127.775 	"/>
</g>
<path style="fill:#FFC477;" d="M509.798,42.317l-0.002-0.006c-0.161-0.416-0.376-0.811-0.643-1.174
	c-0.724-0.99-1.518-1.918-2.361-2.762c-11.776-11.776-29.758-4.648-30.518-4.338l-97.062,39.544
	c-2.045,0.834-3.324,2.886-3.17,5.089l0.923,13.217l-7.1,7.1c-1.996,1.996-1.996,5.232,0,7.228l19.876,19.876
	c0.005,0.005,0.01,0.01,0.015,0.015c1.996,1.996,5.232,1.996,7.228,0c0.121-0.121,0.235-0.247,0.342-0.377l7.657-7.8
	c31.575,11.839,49.654-5.208,50.605-6.015c4.003-3.395,5.744-7.202,6.01-7.722c14.618-28.592,20.978-27.964,23.221-28.317
	c0.798-0.126,1.846-0.231,2.776,0.996c2.895,3.821,5.907,4.905,8.633,2.621C516.289,62.675,512.54,48.063,509.798,42.317z"/>
<path style="fill:#FFA733;" d="M381.369,112.342l7.1-7.1l-0.923-13.217c-0.154-2.203,1.125-4.255,3.17-5.089l97.062-39.544
	c0.624-0.254,12.792-5.072,23.647-0.346c-0.435-1.924-1.052-3.523-1.627-4.729l-0.002-0.006c-0.161-0.416-0.376-0.811-0.643-1.174
	c-0.724-0.99-1.518-1.918-2.361-2.762c-11.776-11.776-29.758-4.648-30.519-4.338l-97.062,39.544
	c-2.045,0.834-3.324,2.886-3.17,5.089l0.923,13.217l-7.1,7.1c-1.996,1.996-1.996,5.232,0,7.228l10.036,10.037
	C379.82,114.847,380.296,113.415,381.369,112.342z"/>
<path style="fill:#57565C;" d="M399.473,92.673L384.16,51.767c-1.517-4.053,0.539-8.569,4.592-10.086
	c4.053-1.518,8.569,0.538,10.087,4.592l15.313,40.906c1.517,4.053-0.539,8.569-4.592,10.086
	C408.656,97.604,401.937,98.808,399.473,92.673z"/>
<circle style="fill:#2D2D30;" cx="391.501" cy="49.019" r="12.539"/>
<path style="fill:#57565C;" d="M430.062,80.267l-15.314-40.906c-1.518-4.053,0.538-8.569,4.591-10.086
	c4.052-1.516,8.569,0.538,10.086,4.592l15.314,40.906c1.518,4.053-0.538,8.569-4.591,10.086
	C439.244,85.198,432.761,86.617,430.062,80.267z"/>
<circle style="fill:#2D2D30;" cx="422.086" cy="36.611" r="12.539"/>
<path style="fill:#57565C;" d="M462.031,68.174l-15.313-40.906c-1.517-4.053,0.539-8.569,4.592-10.086
	c4.053-1.519,8.569,0.539,10.087,4.592l15.313,40.906c1.517,4.053-0.539,8.569-4.592,10.086
	C471.214,73.104,465.153,74.775,462.031,68.174z"/>
<circle style="fill:#2D2D30;" cx="454.06" cy="24.521" r="12.539"/>
<g>
</g>
<g>
</g>
<g>
</g>
<g>
</g>
<g>
</g>
<g>
</g>
<g>
</g>
<g>
</g>
<g>
</g>
<g>
</g>
<g>
</g>
<g>
</g>
<g>
</g>
<g>
</g>
<g>
</g>
</svg>
