<?xml version="1.0" encoding="iso-8859-1"?>
<!-- Generator: Adobe Illustrator 19.0.0, SVG Export Plug-In . SVG Version: 6.00 Build 0)  -->
<svg version="1.1" id="Layer_1" xmlns="http://www.w3.org/2000/svg" xmlns:xlink="http://www.w3.org/1999/xlink" x="0px" y="0px"
	 viewBox="0 0 512 512" style="enable-background:new 0 0 512 512;" xml:space="preserve">
<rect x="247.467" y="407.268" style="fill:#605353;" width="17.067" height="81.192"/>
<path style="fill:#8B7E7F;" d="M256,415.807c-81.702,0-148.169-66.469-148.169-148.171v-55.855h17.067v55.855
	c0,72.291,58.812,131.104,131.103,131.104s131.103-58.813,131.103-131.104v-55.855h17.067v55.855
	C404.169,349.338,337.702,415.807,256,415.807z"/>
<rect x="93.093" y="203.253" style="fill:#605353;" width="325.814" height="17.067"/>
<g>
	<path style="fill:#C2B8B9;" d="M93.091,231.952c-4.713,0-8.533-3.821-8.533-8.533v-23.273c0-4.713,3.821-8.533,8.533-8.533
		c4.713,0,8.533,3.821,8.533,8.533v23.273C101.624,228.131,97.803,231.952,93.091,231.952z"/>
	<path style="fill:#C2B8B9;" d="M418.909,231.952c-4.713,0-8.533-3.821-8.533-8.533v-23.273c0-4.713,3.821-8.533,8.533-8.533
		s8.533,3.821,8.533,8.533v23.273C427.443,228.131,423.622,231.952,418.909,231.952z"/>
</g>
<path style="fill:#8B7E7F;" d="M256,0c-51.413,0-93.091,41.678-93.091,93.091v123.992h186.181V93.091
	C349.091,41.678,307.413,0,256,0z"/>
<g>
	<path style="fill:#463836;" d="M395.636,512H116.364v-11.636c0-12.8,10.473-23.273,23.273-23.273h232.727
		c12.8,0,23.273,10.473,23.273,23.273V512H395.636z"/>
	<path style="fill:#463836;" d="M151.273,194.327v26.376l11.378,8.533l-11.378,8.533v29.867
		c0,57.747,46.981,104.727,104.727,104.727s104.727-46.981,104.727-104.727v-29.867l-11.378-8.533l11.378-8.533v-26.376
		L151.273,194.327L151.273,194.327z"/>
</g>
<rect x="151.279" y="220.706" style="fill:#605353;" width="209.453" height="17.067"/>
<g>
	<circle style="fill:#463836;" cx="209.454" cy="147.786" r="8.533"/>
	<circle style="fill:#463836;" cx="256" cy="147.786" r="8.533"/>
	<circle style="fill:#463836;" cx="302.547" cy="147.786" r="8.533"/>
	<circle style="fill:#463836;" cx="209.454" cy="100.659" r="8.533"/>
	<circle style="fill:#463836;" cx="256" cy="100.659" r="8.533"/>
	<circle style="fill:#463836;" cx="302.547" cy="100.659" r="8.533"/>
	<circle style="fill:#463836;" cx="212.332" cy="54.109" r="8.533"/>
	<circle style="fill:#463836;" cx="256" cy="54.109" r="8.533"/>
	<circle style="fill:#463836;" cx="300.794" cy="54.109" r="8.533"/>
</g>
<g>
</g>
<g>
</g>
<g>
</g>
<g>
</g>
<g>
</g>
<g>
</g>
<g>
</g>
<g>
</g>
<g>
</g>
<g>
</g>
<g>
</g>
<g>
</g>
<g>
</g>
<g>
</g>
<g>
</g>
</svg>
