<?xml version="1.0" encoding="iso-8859-1"?>
<!-- Generator: Adobe Illustrator 19.0.0, SVG Export Plug-In . SVG Version: 6.00 Build 0)  -->
<svg version="1.1" id="Layer_1" xmlns="http://www.w3.org/2000/svg" xmlns:xlink="http://www.w3.org/1999/xlink" x="0px" y="0px"
	 viewBox="0 0 512.002 512.002" style="enable-background:new 0 0 512.002 512.002;" xml:space="preserve">
<g>
	<path style="fill:#D37F21;" d="M297.766,161.624l-19.756-19.756c-7.439-7.439-7.439-19.501,0-26.94
		c7.439-7.439,19.501-7.439,26.94,0l19.756,19.756c7.439,7.439,7.439,19.501,0,26.94S305.205,169.063,297.766,161.624z"/>
	<path style="fill:#D37F21;" d="M258.254,201.135l-19.756-19.756c-7.439-7.439-7.439-19.501,0-26.94s19.501-7.439,26.94,0
		l19.756,19.756c7.439,7.439,7.439,19.501,0,26.94S265.693,208.575,258.254,201.135z"/>
</g>
<g>
	<path style="fill:#F7931E;" d="M258.254,201.135l-19.756-19.756c-7.439-7.439-7.439-19.501,0-26.94s19.501-7.439,26.94,0
		l2.162,2.162c-0.006,0,0.002,49.062,0.009,49.062C267.608,205.662,260.919,203.802,258.254,201.135z"/>
	<path style="fill:#F7931E;" d="M217.843,241.546l-19.756-19.756c-7.439-7.439-7.439-19.501,0-26.94
		c7.439-7.439,19.501-7.439,26.94,0l19.756,19.756c7.439,7.439,7.439,19.501,0,26.94
		C237.344,248.985,225.283,248.985,217.843,241.546z"/>
	<path style="fill:#F7931E;" d="M178.331,281.059l-19.756-19.756c-7.439-7.439-7.439-19.501,0-26.94s19.501-7.439,26.94,0
		l19.756,19.756c7.439,7.439,7.439,19.501,0,26.94S185.77,288.498,178.331,281.059z"/>
</g>
<path style="fill:#D37F21;" d="M315.808,29.779l13.981-13.981c21.056-21.056,55.306-21.065,76.351-0.021s21.035,55.296-0.021,76.351
	l-26.527,26.527c-8.405,8.405-22.093,8.396-30.51-0.022s-8.427-22.105-0.022-30.51l26.527-26.527
	c4.245-4.245,4.274-11.123,0.065-15.331c-4.209-4.209-11.087-4.18-15.331,0.065l-13.98,13.982l-10.888,10.888
	c-6.881,6.881-18.038,6.881-24.92,0L286.063,46.73c-6.387-6.387-6.387-16.741,0-23.127l0.199-0.199
	c6.371-6.371,16.692-6.389,23.086-0.04L315.808,29.779z"/>
<path style="fill:#E3C000;" d="M433.621,431.577l-23.162-136.748c-2.132-12.42-14.277-21.359-26.039-18.577
	c-8.671,1.487-15.541,7.501-29.586,13.283c-29.157,12.004-58.005,19.882-85.607,35.856c-27.577,15.96-53.066,35.498-75.636,57.988
	c-7.802,7.774-20.834,8.156-28.512,0.259c-7.488-7.702-7.465-19.976,0.156-27.597l225.04-241.479
	c8.892-9.745,8.319-24.531-1.01-33.86l-0.204-0.204c-9.638-9.638-24.947-10.236-34.585-0.598L110.15,324.224
	c-42.9,42.9-43.213,113.048-0.313,155.949l-0.102-0.102c42.9,42.9,112.87,42.409,155.771-0.491l1.862-1.862
	c24.528-24.528,56.217-39.225,89.828-43.27c33.978,17.499,45.228,25.807,57.43,23.64l0.051,0.051
	C427.006,456.097,435.752,443.997,433.621,431.577z"/>
<path style="fill:#F7D11E;" d="M267.596,326.354c-26.948,15.783-51.882,34.983-74.005,57.027
	c-7.802,7.774-20.834,8.156-28.512,0.259c-7.488-7.702-7.465-19.976,0.156-27.597l102.361-109.84v-79.425L110.15,324.224
	c-42.883,42.883-43.211,112.992-0.363,155.896c42.905,42.848,112.835,42.342,155.718-0.541l1.862-1.862
	c0.074-0.074,0.153-0.143,0.228-0.217V326.354H267.596z"/>
<path style="fill:#D37F21;" d="M415.099,457.613l0.051,0.051c12.329-2.039,20.838-13.902,18.706-26.322l-23.313-136.663
	c-2.132-12.42-14.427-21.273-26.193-18.488l0.003-0.003C384.355,276.188,415.15,457.664,415.099,457.613z"/>
<g>
</g>
<g>
</g>
<g>
</g>
<g>
</g>
<g>
</g>
<g>
</g>
<g>
</g>
<g>
</g>
<g>
</g>
<g>
</g>
<g>
</g>
<g>
</g>
<g>
</g>
<g>
</g>
<g>
</g>
</svg>
