<?xml version="1.0" encoding="iso-8859-1"?>
<!-- Generator: Adobe Illustrator 19.0.0, SVG Export Plug-In . SVG Version: 6.00 Build 0)  -->
<svg version="1.1" id="Capa_1" xmlns="http://www.w3.org/2000/svg" xmlns:xlink="http://www.w3.org/1999/xlink" x="0px" y="0px"
	 viewBox="0 0 58 58" style="enable-background:new 0 0 58 58;" xml:space="preserve">
<g>
	<path style="fill:#F9C73D;" d="M56.746,40.437c0.242-0.242,0.424-0.531,0.549-0.862C57.17,39.905,56.988,40.195,56.746,40.437
		L56.746,40.437z"/>
	<path style="fill:#F9C73D;" d="M45.539,36.229c-2.26-2.26-3.842-4.732-4.548-6.845c0.008,0.022,0.012,0.043,0.02,0.066
		c0.892,2.6,1.485,5.293,1.485,8.041v7.337c0,2.089-1.527,3.955-3.607,4.153c-2.386,0.227-4.393-1.643-4.393-3.981v-2h-1l-1-1v-2
		l1-1h1v-3h-1l-1-1v-2l1-1h1v-3h-1l-1-1v-2l1-1h1v-3h-1l-1-1v-2l1-1h1v-3h-1l-1-1v-2l1-1h1c0-3.1-1.176-5.926-3.105-8.055
		c-3.296-3.637-8.928-3.918-12.698-0.775C17.272,3.353,15.483,4,13.636,4h-1.141v6h1.473c1.644,0,3.246-0.513,4.584-1.467
		l2.86-2.039c2.704-1.928,6.668-0.387,7.049,2.912c0.022,0.191,0.033,0.384,0.033,0.581V44.57c0,7.152,5.592,13.289,12.743,13.427
		c7.54,0.146,13.652-6.13,13.237-13.728c-0.08-1.465,0.771-2.74,1.971-3.582c0.107-0.075,0.207-0.159,0.3-0.251
		C54.813,42.37,49.795,40.486,45.539,36.229z"/>
</g>
<path style="fill:#C78829;" d="M45.495,46h-4c-1.654,0-3-1.346-3-3s1.346-3,3-3h4c0.553,0,1,0.447,1,1s-0.447,1-1,1h-4
	c-0.552,0-1,0.448-1,1s0.448,1,1,1h4c0.553,0,1,0.447,1,1S46.048,46,45.495,46z"/>
<path style="fill:#C78829;" d="M30.495,33h-4c-0.553,0-1-0.447-1-1s0.447-1,1-1h4c0.553,0,1,0.447,1,1S31.048,33,30.495,33z"/>
<path style="fill:#C78829;" d="M30.495,37h-4c-0.553,0-1-0.447-1-1s0.447-1,1-1h4c0.553,0,1,0.447,1,1S31.048,37,30.495,37z"/>
<path style="fill:#C78829;" d="M30.495,19h-4c-0.553,0-1-0.447-1-1s0.447-1,1-1h4c0.553,0,1,0.447,1,1S31.048,19,30.495,19z"/>
<path style="fill:#C78829;" d="M30.495,23h-4c-0.553,0-1-0.447-1-1s0.447-1,1-1h4c0.553,0,1,0.447,1,1S31.048,23,30.495,23z"/>
<ellipse transform="matrix(0.7071 -0.7071 0.7071 0.7071 -8.7801 44.2618)" style="fill:#DDB245;" cx="49.039" cy="32.729" rx="4.95" ry="10.9"/>
<rect x="9.495" y="3" style="fill:#C78829;" width="3" height="8"/>
<rect x="5.495" y="4" style="fill:#AF8066;" width="4" height="6"/>
<polygon style="fill:#F9C73D;" points="5.495,10 0.495,10 0.495,7 5.495,4 "/>
<polygon style="fill:#DDB245;" points="35.495,15 36.495,14 36.495,12 35.495,11 33.495,11 32.495,12 32.495,14 33.495,15 "/>
<polygon style="fill:#DDB245;" points="35.495,22 36.495,21 36.495,19 35.495,18 33.495,18 32.495,19 32.495,21 33.495,22 "/>
<polygon style="fill:#DDB245;" points="35.495,29 36.495,28 36.495,26 35.495,25 33.495,25 32.495,26 32.495,28 33.495,29 "/>
<polygon style="fill:#DDB245;" points="35.495,36 36.495,35 36.495,33 35.495,32 33.495,32 32.495,33 32.495,35 33.495,36 "/>
<polygon style="fill:#DDB245;" points="35.495,43 36.495,42 36.495,40 35.495,39 33.495,39 32.495,40 32.495,42 33.495,43 "/>
<g>
</g>
<g>
</g>
<g>
</g>
<g>
</g>
<g>
</g>
<g>
</g>
<g>
</g>
<g>
</g>
<g>
</g>
<g>
</g>
<g>
</g>
<g>
</g>
<g>
</g>
<g>
</g>
<g>
</g>
</svg>
