<?xml version="1.0" encoding="iso-8859-1"?>
<!-- Generator: Adobe Illustrator 19.0.0, SVG Export Plug-In . SVG Version: 6.00 Build 0)  -->
<svg version="1.1" id="Layer_1" xmlns="http://www.w3.org/2000/svg" xmlns:xlink="http://www.w3.org/1999/xlink" x="0px" y="0px"
	 viewBox="0 0 496.2 496.2" style="enable-background:new 0 0 496.2 496.2;" xml:space="preserve">
<path style="fill:#334D5C;" d="M496.2,248.1C496.2,111.1,385.1,0,248.1,0S0,111.1,0,248.1s111.1,248.1,248.1,248.1
	S496.2,385.1,496.2,248.1z"/>
<path style="fill:#6297B2;" d="M427.8,245.1c-0.5-0.3-1.1-0.4-1.6-0.2l-77,24.9c-1,0.3-1.5,1.3-1.3,2.3l14.5,72.1
	c-2.7-0.3-5.5-0.1-8.3,0.6c-1.3,0.3-2.7,0.8-4,1.3c-5.7,2.2-10,5.8-12.9,10.5c-2.9,4.9-3.5,9.8-1.5,14.6c1.9,4.7,5.7,7.9,11.2,9.6
	c4.1,1.2,8.4,1.3,12.6,0.3c1.2-0.3,2.5-0.7,3.8-1.2c5-2.1,9-5.1,11.8-9.1c2.8-4.1,4-8.4,3.5-12.8c0-0.1,0-0.2,0-0.2l-0.1-0.6
	c-0.4-2.4-1.7-9-3.9-20.2c-2.2-11.1-4.3-21.8-6.3-31.9l-2.6-13.4l56-19.7l8.9,48.4c-3-0.4-6.1-0.3-9.2,0.5c-1.3,0.3-2.6,0.7-3.8,1.2
	c-5.7,2.2-10,5.8-12.8,10.6c-2.8,5-3.3,9.9-1.5,14.6c1.9,4.7,5.6,7.9,11.1,9.5c4.1,1.2,8.3,1.2,12.6,0.2c1.3-0.3,2.6-0.7,3.9-1.3
	c5.1-2.1,9-5.2,11.9-9.4c2.9-4.3,3.9-8.7,3-13.1c-0.4-2.5-6-30.9-17-86.9C428.7,245.9,428.3,245.4,427.8,245.1z"/>
<path style="fill:#B27832;" d="M248.6,58.2c-18.5,0-33.1,8.5-33.1,31.4c0,9.7-16.1,39.1-8.3,62.8c1.5,1.3,3.1,2.4,4.8,3.6l73.6-0.3
	c1.7-1.1,3.3-2.4,4.9-3.7c9-21.3-8.6-52.9-8.6-62.4C281.7,66.7,267,58.2,248.6,58.2z"/>
<path style="fill:#EA4949;" d="M299.3,294.1c0-13.7-11.9-42.7-11.9-42.7l-0.5-43.5c0,0-18.9-0.2-38-0.4c-0.1,0-0.2,0-0.3,0
	c-0.1,0-0.2,0-0.3,0c-19.1,0.1-38,0.4-38,0.4l-0.5,43.5c0,0-11.9,29-11.9,42.7s-18.8,137-18.8,137l-22.5,47.7
	c28.3,11.2,59.2,17.4,91.5,17.4c32.6,0,63.7-6.3,92.2-17.7l-22.4-47.4C317.9,431.1,299.3,307.9,299.3,294.1z"/>
<g>
	<path style="fill:#CE3A3A;" d="M199.6,291.4c6.2,3.6,12.5,6.9,19,9.8c3.3,1.4,6.5,2.8,9.8,4s6.7,2.4,10.1,3.4
		c3.4,1,6.8,1.9,10.3,2.5c3.5,0.7,7,1.2,10.5,1.5c7,0.7,14.1,0.5,21.2-0.6c-6.8,2.3-14.1,3.2-21.4,3c-3.6-0.1-7.2-0.5-10.8-1.1
		c-3.6-0.6-7.1-1.5-10.6-2.5s-6.9-2.2-10.2-3.6s-6.6-2.9-9.8-4.6C211.2,299.9,205.1,296.1,199.6,291.4z"/>
	<path style="fill:#CE3A3A;" d="M191,372.7c6.2,3.6,12.5,6.9,19,9.8c3.3,1.4,6.5,2.8,9.8,4s6.7,2.4,10.1,3.4c3.4,1,6.8,1.9,10.3,2.5
		c3.5,0.7,7,1.2,10.5,1.5c7,0.7,14.1,0.5,21.2-0.6c-6.8,2.3-14.1,3.2-21.4,3c-3.6-0.1-7.2-0.5-10.8-1.1s-7.1-1.5-10.6-2.5
		s-6.9-2.2-10.2-3.6s-6.6-2.9-9.8-4.6C202.6,381.3,196.4,377.4,191,372.7z"/>
	<path style="fill:#CE3A3A;" d="M207.9,279.2c7.2-0.4,14.3-1.1,21.3-2.2c3.5-0.6,7-1.2,10.4-2c3.5-0.8,6.9-1.6,10.3-2.7
		c3.4-1,6.7-2.2,10-3.5s6.5-2.8,9.6-4.4c6.2-3.3,12.1-7.3,17.4-12.1c-4.4,5.7-10.1,10.4-16.3,14.2c-3.1,1.9-6.3,3.5-9.7,5
		c-3.3,1.4-6.8,2.7-10.2,3.7c-3.5,1-7,1.9-10.5,2.6c-3.6,0.7-7.1,1.2-10.7,1.5C222.3,280,215,280.1,207.9,279.2z"/>
	<path style="fill:#CE3A3A;" d="M201,348.7c8.6,2.2,17.2,3.9,25.9,4.9c4.3,0.5,8.7,0.9,13,1c4.3,0.2,8.7,0.1,13-0.2
		c4.3-0.3,8.6-0.9,12.8-1.8c4.2-0.8,8.4-2.1,12.4-3.6c8.1-3.1,15.6-7.7,22.2-13.7c-5.4,7-12.8,12.6-21,16.4
		c-4.1,1.9-8.4,3.3-12.8,4.4c-4.4,1-8.9,1.7-13.3,2c-4.5,0.3-9,0.3-13.5,0s-8.9-0.8-13.3-1.7C217.7,354.9,209.1,352.5,201,348.7z"/>
	<path style="fill:#CE3A3A;" d="M183.2,432.5c10,1.5,19.9,2.4,29.9,2.8c5,0.1,10,0.2,14.9,0.1c5-0.1,9.9-0.4,14.8-1
		c4.9-0.5,9.8-1.3,14.7-2.3c4.8-1,9.6-2.3,14.3-3.9c9.4-3.2,18.3-7.6,26.6-13.4c-7.1,7.2-16,12.6-25.4,16.5c-4.7,2-9.6,3.4-14.6,4.7
		c-5,1.2-10,2-15.1,2.6c-5.1,0.5-10.2,0.8-15.2,0.8c-5.1,0-10.2-0.2-15.2-0.8c-5-0.5-10.1-1.2-15-2.2
		C192.9,435.3,188,434.2,183.2,432.5z"/>
	<path style="fill:#CE3A3A;" d="M177.7,480.1c12.6-0.6,25.1-2,37.4-3.9c6.2-1,12.3-2.1,18.4-3.5c6.1-1.4,12.1-2.9,18-4.7
		c6-1.8,11.8-3.8,17.6-6.2c5.8-2.3,11.4-4.9,16.9-7.8c11-5.8,21.3-12.9,30.7-21.4c-7.8,10-17.7,18.3-28.6,25
		c-5.4,3.4-11.2,6.2-17,8.8c-5.9,2.5-11.9,4.7-18,6.6c-6.1,1.8-12.3,3.4-18.6,4.6s-12.5,2.1-18.9,2.7c-6.3,0.6-12.7,0.9-19,1
		C190.3,481.2,184,481,177.7,480.1z"/>
</g>
<g>
	<path style="fill:#FBC096;" d="M434.2,195.2c0,0-57.5,7.8-77.9,15.1c0,0-53.4-56.1-74.2-56.1l8.2,33.4c0,0,50,42.3,62.1,42.1
		c0,0,47.2-9.1,82.3-23.6L434.2,195.2z"/>
	<path style="fill:#FBC096;" d="M434.1,195.4c0,0,5.1-7.6,10.9-9.1c0,0,9-6.2,7.9-3.2c-1.1,3.1-5.6,5.8-5.8,7
		c-0.3,1.2,21.5,4.7,21.5,4.7s2.7,1.4,0.8,2.8c-0.5,0.4-1.3,0.8-1.3,0.8c0.7,0.8,0.7,1.5-0.7,2.1c-1.8,0.8-5.2,1-5.2,1
		s2.3,2.4-0.7,3s-26.8,3.1-30,2.3c-1.9-0.5-9-8.4-6-10C426.7,196.1,434.1,195.4,434.1,195.4z"/>
	<path style="fill:#FBC096;" d="M62,195.2c0,0,57.5,7.8,77.9,15.1c0,0,53.4-56.1,74.2-56.1l-8.2,33.4c0,0-50,42.3-62.1,42.1
		c0,0-47.2-9.1-82.3-23.6L62,195.2z"/>
	<path style="fill:#FBC096;" d="M62.1,195.4c0,0-5.1-7.6-10.9-9.1c0,0-9-6.2-7.9-3.2c1.1,3.1,5.6,5.8,5.8,7
		c0.3,1.2-21.5,4.7-21.5,4.7s-2.7,1.4-0.8,2.8c0.5,0.4,1.3,0.8,1.3,0.8c-0.7,0.8-0.7,1.5,0.7,2.1c1.8,0.8,5.2,1,5.2,1
		s-2.3,2.4,0.7,3s26.8,3.1,30,2.3c1.9-0.5,9-8.4,6-10C69.5,196.1,62.1,195.4,62.1,195.4z"/>
	<polygon style="fill:#FBC096;" points="210.3,179.1 241.7,203.9 279.7,199.9 278.2,154.7 220.2,155.4 	"/>
</g>
<rect x="248" y="180.9" style="fill:#D19D79;" width="1" height="16.2"/>
<path style="fill:#EA4949;" d="M292.2,196.6c-1.9-9.1-3.7-38.2-7.3-41.9c-0.9-1-10.2-0.8-10.2-0.8s-0.4,34-23,40.8l-2.9,0.3l0,0
	l-2.3-0.3c-20.7-6.8-24.3-40.8-24.3-40.8s-9.3-0.2-10.2,0.8c-3.5,3.6-5.6,32.8-7.5,41.9c-3.6,17,9.4,24.9,9.4,24.9
	c15.2-0.8,27.8-8.4,27.8-8.4l8.3-0.4l5.3,0.4c0,0,12.4,7.6,27.6,8.4C282.8,221.5,295.8,213.6,292.2,196.6z"/>
<g>
	<path style="fill:#B27832;" d="M228.5,68.9c4,1.8,5,8.3,2.2,14.7c-2.8,6.4-8.3,10.1-12.3,8.3c-4-1.8-5-8.3-2.2-14.7
		C218.9,70.8,224.4,67.1,228.5,68.9z"/>
	
		<ellipse transform="matrix(0.9168 -0.3994 0.3994 0.9168 -8.8445 115.7605)" style="fill:#B27832;" cx="273.36" cy="79.104" rx="7.9" ry="12.6"/>
</g>
<g>
	<polygon style="fill:#FBC096;" points="263,157.9 234.6,157.9 238.7,136.9 258.9,136.9 	"/>
	<path style="fill:#FBC096;" d="M275.4,99.3c0,8.6-2.4,23-6.2,29.1c-3.3,5.4-12.7,14.5-20.3,14.5c-7.6,0-17.2-10-20.2-14.2
		c-4.2-5.9-6.3-20.7-6.3-29.3c0-19.4,11.9-26.6,26.5-26.6C263.5,72.7,275.4,79.9,275.4,99.3z"/>
</g>
<path style="fill:#38281F;" d="M248.8,175.2c0.1,0,0.1,0,0.2,0C248.9,175.2,248.9,175.2,248.8,175.2L248.8,175.2z"/>
<polygon style="fill:#C1AE23;" points="249,167.1 234.7,155.5 235.3,154.8 249,165.8 262.4,154.8 263,155.5 "/>
<rect x="246.517" y="166.69" transform="matrix(-0.7071 -0.7071 0.7071 -0.7071 305.3625 464.6652)" style="fill:#2E88E8;" width="4.8" height="4.8"/>
<path style="fill:#666666;" d="M236.5,97.2c-3.6,0.3-6.3,3.1-6.3,3.9c0,0,3.2,2.9,6.9,2.6c3.6-0.3,6.3-3.9,6.3-3.9
	S240.1,96.8,236.5,97.2z"/>
<path style="fill:#EDAE83;" d="M236.4,96.6c-3.4,0.3-7,3.3-7,4c0,0,4.1,2.5,7.5,2.2s5.9-3.4,5.9-3.4S239.9,96.3,236.4,96.6z"/>
<path style="fill:#666666;" d="M258.7,96.6c-3.6-0.2-6.7,3-6.7,3s2.8,3.4,6.4,3.5c3.6,0.2,6.7-3,6.7-3
	C265.2,99.4,262.3,96.8,258.7,96.6z"/>
<path style="fill:#EDAE83;" d="M258.7,96c-3.4-0.1-6.3,3.1-6.3,3.1s2.7,2.9,6.1,3.1c3.4,0.1,7.3-2.6,7.3-2.6
	C265.8,99,262.1,96.2,258.7,96z"/>
<g>
	<path style="fill:#705D40;" d="M241.9,91.6c0,0-3.8-0.1-5.2-0.2c-1.4,0-3.7,0.1-5.5,0.7c-1.9,0.5-5.6,3.8-5.6,3.8s4.2-2.1,5.9-2.3
		c1.7-0.2,3.5-0.3,5.3-0.1c1.8,0.1,6,1,6,1L241.9,91.6z"/>
	<path style="fill:#705D40;" d="M251.5,91.4c0,0,3.8-0.3,5.2-0.5c1.4-0.1,3.7-0.1,5.6,0.4c1.9,0.4,5.7,3.5,5.7,3.5s-4.3-1.8-6-2
		s-3.5-0.1-5.3,0.1s-5.9,1.3-5.9,1.3L251.5,91.4z"/>
</g>
<path style="fill:#EA4949;" d="M255.9,119.8c0,5.3-3.1,9.6-6.8,9.6s-6.8-4.3-6.8-9.6c0-3.3,0.3-6.8,2.4-8.5c1.3-1,4.4,0,4.4,0
	s3-1.1,4.2-0.2C255.5,112.8,255.9,116.3,255.9,119.8z"/>
<path style="fill:#F2A7A7;" d="M243.7,113.8c0,0,1.6-2.5,3.7-1.8S243.7,113.8,243.7,113.8z"/>
<g>
	<path style="fill:#491F1F;" d="M255.7,119.8c0,2.3-2.9,7.1-6.6,7.1s-6.6-5-6.6-7.1s2.9-6.2,6.6-6.2S255.7,117.5,255.7,119.8z"/>
	<path style="fill:#491F1F;" d="M253.3,115.4h-8.4c-1.5,1.4-2.4,3.2-2.4,4.4c0,2.1,2.9,7.1,6.6,7.1s6.6-4.8,6.6-7.1
		C255.7,118.5,254.8,116.7,253.3,115.4z"/>
</g>
<g>
	<path style="fill:#FFFFFF;" d="M249.1,113.6c-1.6,0-3,0.8-4.2,1.8h8.4C252.2,114.3,250.7,113.6,249.1,113.6z"/>
	<path style="fill:#FFFFFF;" d="M252.6,125.4h-6.9c1,0.9,2.2,1.5,3.4,1.5C250.4,126.9,251.6,126.3,252.6,125.4z"/>
</g>
<g>
</g>
<g>
</g>
<g>
</g>
<g>
</g>
<g>
</g>
<g>
</g>
<g>
</g>
<g>
</g>
<g>
</g>
<g>
</g>
<g>
</g>
<g>
</g>
<g>
</g>
<g>
</g>
<g>
</g>
</svg>
