<?xml version="1.0" encoding="iso-8859-1"?>
<!-- Generator: Adobe Illustrator 19.0.0, SVG Export Plug-In . SVG Version: 6.00 Build 0)  -->
<svg version="1.1" id="Capa_1" xmlns="http://www.w3.org/2000/svg" xmlns:xlink="http://www.w3.org/1999/xlink" x="0px" y="0px"
	 viewBox="0 0 511.999 511.999" style="enable-background:new 0 0 511.999 511.999;" xml:space="preserve">
<g>
	<path style="fill:#585A60;" d="M193.923,127.338h37.826V96.854h-37.826c-8.418,0-15.242,6.823-15.242,15.242
		S185.505,127.338,193.923,127.338z"/>
	<path style="fill:#585A60;" d="M231.749,279.747h-37.826c-8.418,0-15.242,6.824-15.242,15.242c0,8.418,6.823,15.242,15.242,15.242
		h37.826V279.747z"/>
</g>
<g>
	<path style="fill:#414356;" d="M180.737,104.475c-5.88,10.151,1.476,22.863,13.187,22.863h37.826v-15.242h-37.826
		C188.284,112.097,183.374,109.027,180.737,104.475z"/>
	<path style="fill:#414356;" d="M180.737,287.368c-5.88,10.152,1.476,22.862,13.187,22.862h37.826v-15.242h-37.826
		C188.284,294.988,183.374,291.92,180.737,287.368z"/>
</g>
<path style="fill:#EA473B;" d="M165.388,489.112c-21.37-15.282-33.138-35.849-33.138-57.91v-11.65c0-4.194,3.4-7.594,7.594-7.594
	c4.194,0,7.594,3.4,7.594,7.594v11.65c0,36.154,42.482,65.566,94.7,65.566c53.987,0,94.7-26.09,94.7-60.689v-13.398
	c0-4.194,3.4-7.594,7.594-7.594s7.594,3.4,7.594,7.594v13.398C352.027,507.701,230.568,535.731,165.388,489.112z"/>
<g>
	<path style="fill:#636468;" d="M329.19,399.442v19.92c0,8.418,6.824,15.242,15.242,15.242c8.418,0,15.242-6.824,15.242-15.242
		v-19.92H329.19z"/>
	<path style="fill:#636468;" d="M124.602,391.631v21.634c0,8.418,6.823,15.243,15.242,15.243s15.242-6.824,15.242-15.243v-16.652
		L124.602,391.631z"/>
</g>
<g>
	<path style="fill:#414356;" d="M344.433,419.362v-19.92h-15.242v19.92c0,11.711,12.71,19.067,22.863,13.186
		C347.502,429.912,344.433,425.001,344.433,419.362z"/>
	<path style="fill:#414356;" d="M139.844,413.265v-19.143l-15.242-2.491v21.634c0,8.418,6.823,15.243,15.242,15.243
		c2.78,0,5.378-0.756,7.621-2.056C142.913,423.815,139.844,418.904,139.844,413.265z"/>
</g>
<path style="fill:#BABABA;" d="M421.884,2.676c-5.079,0-150.897,0-154.903,0c-22.255,0-40.295,18.04-40.295,40.295v321.238
	c0,22.255,18.04,40.295,40.295,40.295c5.079,0,150.897,0,154.903,0c22.255,0,40.295-18.04,40.295-40.295V42.971
	C462.179,20.716,444.139,2.676,421.884,2.676z"/>
<path style="fill:#989DA0;" d="M247.296,364.209V42.971c0-22.254,18.04-40.295,40.295-40.295h-20.61
	c-22.255,0-40.295,18.04-40.295,40.295v321.238c0,22.255,18.04,40.295,40.295,40.295h20.61
	C265.336,404.505,247.296,386.464,247.296,364.209z"/>
<path style="fill:#585A60;" d="M343.029,115.451c-48.678,0-88.139,39.462-88.139,88.139c0,48.678,39.462,88.139,88.139,88.139
	c48.678,0,88.139-39.462,88.139-88.139C431.169,154.913,391.708,115.451,343.029,115.451z M343.029,227.063
	c-12.963,0-23.472-10.51-23.472-23.473c0-12.963,10.509-23.472,23.472-23.472s23.472,10.51,23.472,23.472
	C366.502,216.553,355.993,227.063,343.029,227.063z"/>
<path style="fill:#414356;" d="M289.358,203.59c0-42.779,30.479-78.435,70.906-86.45c-54.73-10.845-105.373,31.048-105.373,86.45
	c0,48.678,39.462,88.139,88.139,88.139c5.898,0,11.66-0.584,17.234-1.689C319.837,282.026,289.358,246.369,289.358,203.59z"/>
<g>
	<path style="fill:#989DA0;" d="M339.056,154.096c-2.943-2.964-2.962-7.76,0-10.744c2.991-2.991,7.828-2.938,10.744,0
		c2.984,2.984,2.947,7.797,0,10.744C346.803,157.071,342.003,157.022,339.056,154.096z"/>
	<path style="fill:#989DA0;" d="M336.838,258.362c0-4.179,3.393-7.594,7.594-7.594c6.733,0,10.149,8.179,5.367,12.961
		C345.043,268.52,336.838,265.085,336.838,258.362z"/>
	<path style="fill:#989DA0;" d="M311.655,161.437c-2.979-2.977-2.954-7.791,0-10.744c2.939-2.94,7.772-2.963,10.733,0
		c2.954,2.953,2.979,7.766,0,10.744C319.446,164.401,314.599,164.402,311.655,161.437z"/>
	<path style="fill:#989DA0;" d="M364.25,251.021c0-6.767,8.186-10.118,12.961-5.377c2.948,2.948,2.984,7.76,0,10.744
		C372.422,261.177,364.25,257.736,364.25,251.021z"/>
	<path style="fill:#989DA0;" d="M291.585,181.506c-2.947-2.947-2.984-7.76,0-10.744c2.985-2.985,7.797-2.947,10.744,0
		c2.967,2.988,2.939,7.785,0,10.744C299.367,184.448,294.569,184.469,291.585,181.506z"/>
	<path style="fill:#989DA0;" d="M384.309,230.952c0-4.227,3.458-7.594,7.594-7.594c2.005,0,3.959,0.81,5.377,2.227
		c1.407,1.407,2.218,3.371,2.218,5.367c0,2.005-0.81,3.959-2.218,5.367C392.491,241.109,384.309,237.675,384.309,230.952z"/>
	<path style="fill:#989DA0;" d="M282.017,203.541c0-1.995,0.81-3.959,2.227-5.367c1.407-1.417,3.372-2.227,5.367-2.227
		c2.005,0,3.958,0.81,5.367,2.227c1.417,1.407,2.227,3.372,2.227,5.367c0,1.995-0.81,3.958-2.227,5.367
		C290.221,213.697,282.017,210.261,282.017,203.541z"/>
	<path style="fill:#989DA0;" d="M399.255,211.135c-4.188,0-7.594-3.4-7.594-7.594c0-4.19,3.401-7.594,7.594-7.594
		c4.137,0,7.594,3.368,7.594,7.594c0,2.005-0.81,3.958-2.227,5.367C403.214,210.325,401.25,211.135,399.255,211.135z"/>
	<path style="fill:#989DA0;" d="M291.585,236.319c-2.964-2.943-2.965-7.79,0-10.733c2.977-2.979,7.791-2.954,10.744,0
		c2.94,2.939,2.963,7.772,0,10.733C299.376,239.272,294.563,239.296,291.585,236.319z"/>
	<path style="fill:#989DA0;" d="M384.309,176.129c0-4.177,3.413-7.594,7.594-7.594c6.728,0,10.143,8.171,5.377,12.971
		C392.503,186.251,384.309,182.887,384.309,176.129z"/>
	<path style="fill:#989DA0;" d="M311.655,256.389c-4.813-4.811-1.314-12.971,5.367-12.971c6.702,0,10.165,8.175,5.367,12.971
		C319.446,259.352,314.599,259.353,311.655,256.389z"/>
	<path style="fill:#989DA0;" d="M366.467,161.437c-2.965-2.986-2.939-7.784,0-10.744c2.964-2.943,7.76-2.963,10.744,0
		c2.948,2.948,2.984,7.76,0,10.744C374.228,164.42,369.414,164.384,366.467,161.437z"/>
	<path style="fill:#989DA0;" d="M421.043,85.948H265.017c-4.194,0-7.594-3.4-7.594-7.594s3.4-7.594,7.594-7.594h156.026
		c4.194,0,7.594,3.4,7.594,7.594S425.237,85.948,421.043,85.948z"/>
	<path style="fill:#989DA0;" d="M421.043,336.422H265.017c-4.194,0-7.594-3.4-7.594-7.594c0-4.194,3.4-7.594,7.594-7.594h156.026
		c4.194,0,7.594,3.4,7.594,7.594C428.637,333.022,425.237,336.422,421.043,336.422z"/>
</g>
<path style="fill:#BABABA;" d="M186.447,73.122c8.967,0,16.235-7.268,16.235-16.234V16.235C202.684,7.269,195.415,0,186.447,0
	l-82.778,13.53c-8.967,0-16.235,7.269-16.235,16.235V56.47c-50.062,78.91-50.24,215.233,0,294.2v26.368
	c0,8.967,7.269,16.235,16.235,16.235l82.778,13.53c8.967,0,16.235-7.268,16.235-16.234v-40.653c0-8.966-7.269-16.234-16.235-16.234
	h-51.404c-48.75-62.134-48.347-198.878,0.221-260.557h51.183V73.122z"/>
<path style="fill:#989DA0;" d="M109.48,380.896v-26.953c-51.458-80.881-51.06-220.254,0-300.737V25.907
	c0-6.493,3.736-12.098,9.168-14.825l-14.977,2.448c-8.967,0-16.235,7.269-16.235,16.235v26.705c-50.062,78.91-50.24,215.233,0,294.2
	v26.368c0,8.967,7.269,16.235,16.235,16.235l14.977,2.448C113.215,392.994,109.48,387.388,109.48,380.896z"/>
<g>
</g>
<g>
</g>
<g>
</g>
<g>
</g>
<g>
</g>
<g>
</g>
<g>
</g>
<g>
</g>
<g>
</g>
<g>
</g>
<g>
</g>
<g>
</g>
<g>
</g>
<g>
</g>
<g>
</g>
</svg>
