<?xml version="1.0" encoding="iso-8859-1"?>
<!-- Generator: Adobe Illustrator 16.0.0, SVG Export Plug-In . SVG Version: 6.00 Build 0)  -->
<!DOCTYPE svg PUBLIC "-//W3C//DTD SVG 1.1//EN" "http://www.w3.org/Graphics/SVG/1.1/DTD/svg11.dtd">
<svg version="1.1" id="Capa_1" xmlns="http://www.w3.org/2000/svg" xmlns:xlink="http://www.w3.org/1999/xlink" x="0px" y="0px"
	 width="459px" height="459px" viewBox="0 0 459 459" style="enable-background:new 0 0 459 459;" xml:space="preserve">
<g>
	<g id="palette">
		<path d="M229.5,0C102,0,0,102,0,229.5S102,459,229.5,459c20.4,0,38.25-17.85,38.25-38.25c0-10.2-2.55-17.85-10.2-25.5
			c-5.1-7.65-10.2-15.3-10.2-25.5c0-20.4,17.851-38.25,38.25-38.25h45.9c71.4,0,127.5-56.1,127.5-127.5C459,91.8,357,0,229.5,0z
			 M89.25,229.5c-20.4,0-38.25-17.85-38.25-38.25S68.85,153,89.25,153s38.25,17.85,38.25,38.25S109.65,229.5,89.25,229.5z
			 M165.75,127.5c-20.4,0-38.25-17.85-38.25-38.25S145.35,51,165.75,51S204,68.85,204,89.25S186.15,127.5,165.75,127.5z
			 M293.25,127.5c-20.4,0-38.25-17.85-38.25-38.25S272.85,51,293.25,51s38.25,17.85,38.25,38.25S313.65,127.5,293.25,127.5z
			 M369.75,229.5c-20.4,0-38.25-17.85-38.25-38.25S349.35,153,369.75,153S408,170.85,408,191.25S390.15,229.5,369.75,229.5z"/>
	</g>
</g>
<g>
</g>
<g>
</g>
<g>
</g>
<g>
</g>
<g>
</g>
<g>
</g>
<g>
</g>
<g>
</g>
<g>
</g>
<g>
</g>
<g>
</g>
<g>
</g>
<g>
</g>
<g>
</g>
<g>
</g>
</svg>
