<?xml version="1.0" encoding="iso-8859-1"?>
<!-- Generator: Adobe Illustrator 19.0.0, SVG Export Plug-In . SVG Version: 6.00 Build 0)  -->
<svg version="1.1" id="Layer_1" xmlns="http://www.w3.org/2000/svg" xmlns:xlink="http://www.w3.org/1999/xlink" x="0px" y="0px"
	 viewBox="0 0 496.004 496.004" style="enable-background:new 0 0 496.004 496.004;" xml:space="preserve">
<ellipse style="fill:#B32724;" cx="232.927" cy="287.2" rx="25.6" ry="162.4"/>
<path style="fill:#861D1B;" d="M232.927,125.6c13.6,0,25.6,72.8,25.6,162.4s-11.2,162.4-25.6,162.4"/>
<path style="fill:#BAD5DB;" d="M256.127,200c-4-56-12.8-100-23.2-100s-19.2,44-23.2,100H256.127z"/>
<g>
	<path style="fill:#9FBCC1;" d="M232.127,200h24c-4-58.4-13.6-96.8-24-96.8"/>
	<path style="fill:#9FBCC1;" d="M232.927,103.2c-8,0-15.2,23.2-20,59.2c6.4,2.4,11.2,4,19.2,5.6l0,0l0,0l0,0l0,0
		c8-1.6,13.6-3.2,20-5.6C247.327,126.4,240.927,103.2,232.927,103.2z"/>
</g>
<polygon style="fill:#FF9D00;" points="249.727,144 216.127,144 200.127,0 266.527,0 "/>
<polygon style="fill:#D37105;" points="249.727,144 216.127,144 209.727,0 266.527,0 "/>
<path style="fill:#045A89;" d="M379.327,298.4c-21.6,83.2-49.6,148-62.4,144.8c-12.8-3.2-6.4-73.6,15.2-156.8s49.6-148,62.4-144.8
	C407.327,144.8,400.927,215.2,379.327,298.4z"/>
<path style="fill:#074568;" d="M394.527,141.6c12.8,3.2,6.4,73.6-15.2,156.8s-49.6,148-62.4,144.8"/>
<path style="fill:#BAD5DB;" d="M397.727,219.2c10.4-55.2,12-96,2.4-98.4c-9.6-2.4-28,33.6-45.6,87.2L397.727,219.2z"/>
<g>
	<path style="fill:#9FBCC1;" d="M376.127,213.6l21.6,5.6c10.4-55.2,12-96,2.4-98.4"/>
	<path style="fill:#9FBCC1;" d="M400.127,120.8c-7.2-1.6-19.2,17.6-32,50.4c4.8,4,11.2,7.2,16.8,10.4l0,0l0,0l0,0l0,0
		c6.4,0,12.8,0,19.2-0.8C408.127,145.6,407.327,122.4,400.127,120.8z"/>
</g>
<path style="fill:#70C638;" d="M468.127,120.8c-6.4,25.6-44.8,53.6-80,44.8c-35.2-8.8-54.4-52.8-48-77.6s36.8-23.2,72-13.6
	C447.327,83.2,474.527,96,468.127,120.8z"/>
<path style="fill:#4EAF0E;" d="M468.127,120.8c-6.4,25.6-44.8,53.6-80,44.8c-35.2-8.8-54.4-52.8-48-77.6s32-4.8,67.2,4.8
	C442.527,101.6,474.527,96,468.127,120.8z"/>
<ellipse transform="matrix(-0.2472 -0.969 0.969 -0.2472 -157.2474 489.1359)" style="fill:#05B1E0;" cx="111.386" cy="305.652" rx="156.005" ry="24.001"/>
<path style="fill:#2E9BCC;" d="M72.927,154.4c12.8-3.2,40.8,61.6,62.4,144.8s28,153.6,15.2,156.8"/>
<path style="fill:#BAD5DB;" d="M112.927,220.8c-17.6-53.6-36-89.6-45.6-87.2c-9.6,2.4-8,43.2,2.4,98.4L112.927,220.8z"/>
<g>
	<path style="fill:#9FBCC1;" d="M91.327,226.4l21.6-5.6c-17.6-53.6-36-89.6-45.6-87.2"/>
	<path style="fill:#9FBCC1;" d="M67.327,133.6c-7.2,1.6-8,24.8-4,59.2c6.4,0.8,12.8,0.8,19.2,0.8v-0.8V192l0,0v0.8
		c5.6-3.2,11.2-5.6,16.8-9.6C87.327,151.2,75.327,132,67.327,133.6z"/>
</g>
<path style="fill:#045A89;" d="M38.527,17.6c9.6,69.6-19.2,85.6-9.6,124.8c10.4,39.2,31.2,35.2,50.4,36L38.527,17.6z"/>
<path style="fill:#074568;" d="M37.727,17.6c24.8,66.4,57.6,66.4,68,105.6s-10.4,45.6-27.2,55.2L37.727,17.6z"/>
<path style="fill:#FFC200;" d="M48.127,296v178.4c0,22.4,22.4,21.6,44.8,21.6h280c22.4,0,43.2,0.8,43.2-21.6V296H48.127z"/>
<path style="fill:#D37105;" d="M136.127,496h236.8c22.4,0,43.2,0.8,43.2-21.6V296h-128"/>
<path style="fill:#FF9D00;" d="M80.127,296v178.4c0,22.4,17.6,21.6,36,21.6h233.6c18.4,0,34.4,0.8,34.4-21.6V296H80.127z"/>
<path style="fill:#EA8206;" d="M349.727,496c18.4,0,34.4,0.8,34.4-21.6V296h-304"/>
<g>
	<polygon style="fill:#FFC200;" points="116.127,408 112.127,393.6 123.327,385.6 133.727,394.4 129.727,408 	"/>
	<polygon style="fill:#FFC200;" points="160.127,408 156.127,393.6 167.327,385.6 177.727,394.4 173.727,408 	"/>
	<polygon style="fill:#FFC200;" points="204.127,408 200.127,393.6 211.327,385.6 221.727,394.4 217.727,408 	"/>
	<polygon style="fill:#FFC200;" points="248.127,408 244.127,393.6 255.327,385.6 265.727,394.4 261.727,408 	"/>
	<polygon style="fill:#FFC200;" points="292.127,408 288.127,393.6 299.327,385.6 309.727,394.4 305.727,408 	"/>
	<polygon style="fill:#FFC200;" points="336.127,408 332.127,393.6 343.327,385.6 353.727,394.4 349.727,408 	"/>
	<path style="fill:#FFC200;" d="M424.127,288c0,4.8-3.2,8-8,8h-368c-4.8,0-8-3.2-8-8l0,0c0-4.8,3.2-8,8-8h368
		C420.927,280,424.127,283.2,424.127,288L424.127,288z"/>
</g>
<path style="fill:#FF9D00;" d="M423.327,288L423.327,288c0,4.8-4,8-9.6,8h-361.6c-4.8,0-9.6-3.2-9.6-8.8l0,0"/>
<g>
</g>
<g>
</g>
<g>
</g>
<g>
</g>
<g>
</g>
<g>
</g>
<g>
</g>
<g>
</g>
<g>
</g>
<g>
</g>
<g>
</g>
<g>
</g>
<g>
</g>
<g>
</g>
<g>
</g>
</svg>
