<?xml version="1.0" encoding="iso-8859-1"?>
<!-- Generator: Adobe Illustrator 19.0.0, SVG Export Plug-In . SVG Version: 6.00 Build 0)  -->
<svg version="1.1" id="Layer_1" xmlns="http://www.w3.org/2000/svg" xmlns:xlink="http://www.w3.org/1999/xlink" x="0px" y="0px"
	 viewBox="0 0 512 512" style="enable-background:new 0 0 512 512;" xml:space="preserve">
<path style="fill:#FF8CFF;" d="M439.26,323.651c-4.896-1.217-7.874-6.175-6.652-11.066c1.217-4.9,6.175-7.91,11.066-6.652
	l38.618,9.627c3.414,0.852,7.141-0.016,9.586-2.545c27.674-28.642,20.518-70.756,14.96-103.009
	c-2.585-14.979-5.024-29.126-3.73-39.044c0.434-3.324-0.917-6.476-3.623-8.454c-8.074-5.904-16.63-17.421-25.697-29.617
	c-16.964-22.82-37.264-50.14-66.755-58.024c-4.323-1.155-8.928,0.466-11.405,4.193l-26.515,39.894
	c-1.761,2.644-4.659,4.075-7.616,4.075c-1.735,0-3.492-0.495-5.048-1.525c-4.201-2.791-5.342-8.463-2.55-12.663l25.966-39.068
	c2.442-3.673,2.172-8.451-0.447-11.999c-18.73-25.356-52.556-33.498-80.866-40.259c-14.777-3.528-28.733-6.859-37.334-11.956
	c-2.884-1.709-6.316-1.71-9.2-0.001c-8.607,5.098-22.562,8.429-37.341,11.957c-27.797,6.641-60.895,14.623-79.812,38.901
	c-2.758,3.54-3.059,8.43-0.575,12.167l26.757,40.258c2.791,4.201,1.649,9.871-2.55,12.663c-1.556,1.03-3.313,1.525-5.048,1.525
	c-2.956,0-5.855-1.431-7.616-4.075l-26.95-40.548c-2.202-3.314-6.164-5.24-10.062-4.44c-31.649,6.493-52.906,35.066-70.626,58.919
	c-9.062,12.202-17.623,23.724-25.692,29.627c-2.705,1.979-4.056,5.131-3.622,8.456c1.293,9.914-1.145,24.055-3.721,39.029
	c-5.603,32.53-12.827,75.049,15.631,103.697c2.448,2.466,6.132,3.3,9.504,2.46l40.976-10.216c4.887-1.253,9.845,1.752,11.066,6.652
	c1.221,4.891-1.757,9.85-6.652,11.066l-36.378,9.07c-4.415,1.1-7.531,5-7.789,9.543c-1.698,29.991,16.77,57.677,32.33,80.904
	c8.459,12.621,16.444,24.54,19.303,34.126c0.958,3.211,3.476,5.538,6.752,6.241c9.781,2.099,22.301,9.139,35.553,16.593
	c33.05,18.576,77.327,43.379,118.351,10.313c2.363-1.904,3.679-4.885,3.679-7.919v-49.019c0-5.043,4.089-9.132,9.132-9.132
	c5.043,0,9.132,4.089,9.132,9.132v50.115c0,3.034,1.316,6.014,3.678,7.918c14.57,11.744,29.548,16.189,44.29,16.185
	c26.766,0,52.753-14.612,74.066-26.597c13.253-7.45,25.767-14.49,35.549-16.589c3.276-0.703,5.794-3.031,6.752-6.242
	c2.859-9.586,10.844-21.505,19.299-34.126c15.871-23.69,34.721-51.955,32.225-82.56c-0.364-4.46-3.435-8.256-7.776-9.338
	L439.26,323.651z"/>
<path style="fill:#DC64ED;" d="M256.618,424.371c5.043,0,9.132,4.089,9.132,9.132l8.81-30.834
	c5.31-18.584,24.177-29.815,43.044-25.622l48.594,10.798v-31.711c0-21.958,19.236-38.955,41.028-36.248l30.323,3.766l0.143-0.744
	c-3.876-1.811-6.159-6.017-5.084-10.322c1.057-4.255,4.954-6.899,9.159-6.747l-31.124-16.551
	c-17.211-9.152-24.201-30.206-15.885-47.836l17.097-36.238l-30.83-7.707c-22.029-5.508-33.748-29.567-24.503-50.308l12.59-28.245
	c-1.761,2.644-4.659,4.075-7.616,4.075c-1.735,0-3.492-0.495-5.048-1.525c-4.201-2.791-5.342-8.463-2.55-12.663l-32.78,22.435
	c-15.776,10.798-37.21,7.604-49.154-7.325l-15.349-19.187l-22.075,22.075c-13.357,13.357-34.696,14.326-49.208,2.235l-24.287-20.235
	c2.791,4.201,1.649,9.871-2.55,12.663c-1.556,1.03-3.313,1.525-5.048,1.525c-2.956,0-5.855-1.431-7.616-4.075l12.084,28.732
	c8.682,20.642-3.085,44.165-24.811,49.596l-31.727,7.932l17.098,36.232c8.32,17.632,1.328,38.69-15.888,47.842l-31.315,16.646
	c4.887-1.253,9.845,1.752,11.066,6.652c1.221,4.891-1.757,9.85-6.652,11.066l30.323-3.766c21.792-2.706,41.028,14.29,41.028,36.248
	v31.711l48.594-10.798c18.867-4.193,37.734,7.038,43.044,25.622l8.81,30.834C247.486,428.46,251.575,424.371,256.618,424.371z"/>
<path style="fill:#B93CDC;" d="M465.924,180.58c-1.967-4.641-7.34-6.813-11.967-4.851L292.109,244.2
	c-5.629-9.782-15.043-17.051-26.359-19.629v-174.6c0-5.043-4.089-9.132-9.132-9.132s-9.132,4.089-9.132,9.132v174.6
	c-11.316,2.576-20.732,9.847-26.36,19.631L59.28,175.729c-4.646-1.962-10.001,0.21-11.967,4.851
	c-1.967,4.646,0.205,10.001,4.851,11.967l122.256,51.724l41.387,17.51c-0.064,0.937-0.281,1.831-0.281,2.785
	c0,9.923,3.661,18.903,9.516,26.004L112.856,415.216c-3.375,3.75-3.072,9.524,0.678,12.895c1.743,1.574,3.928,2.346,6.105,2.346
	c2.501,0,4.989-1.022,6.791-3.023L239.49,301.816c5.228,2.41,10.993,3.844,17.128,3.844s11.901-1.435,17.129-3.844l113.061,125.62
	c1.801,2.002,4.29,3.023,6.791,3.023c2.176,0,4.36-0.776,6.105-2.346c3.75-3.371,4.053-9.145,0.678-12.895L288.195,290.57
	c5.856-7.101,9.516-16.08,9.516-26.004c0-0.954-0.217-1.849-0.281-2.787l163.643-69.232
	C465.718,190.581,467.891,185.226,465.924,180.58z"/>
<circle style="fill:#9B32B4;" cx="256.612" cy="264.564" r="41.093"/>
<circle style="fill:#B93CDC;" cx="256.612" cy="264.564" r="18.263"/>
<g>
</g>
<g>
</g>
<g>
</g>
<g>
</g>
<g>
</g>
<g>
</g>
<g>
</g>
<g>
</g>
<g>
</g>
<g>
</g>
<g>
</g>
<g>
</g>
<g>
</g>
<g>
</g>
<g>
</g>
</svg>
