<?xml version="1.0" encoding="iso-8859-1"?>
<!-- Generator: Adobe Illustrator 19.0.0, SVG Export Plug-In . SVG Version: 6.00 Build 0)  -->
<svg version="1.1" id="Layer_1" xmlns="http://www.w3.org/2000/svg" xmlns:xlink="http://www.w3.org/1999/xlink" x="0px" y="0px"
	 viewBox="0 0 511.999 511.999" style="enable-background:new 0 0 511.999 511.999;" xml:space="preserve">
<path style="fill:#F4D2F7;" d="M475.567,117.75c-0.233-1.366-0.78-2.664-1.603-3.776c-1.444-1.953-15.163-18.99-59.725-26.782
	l-27.283-25.748c-13.064-36.07-42.523-55.63-43.794-56.462c-0.538-0.349-1.112-0.642-1.716-0.866
	c-1.668-0.633-40.717-14.848-77.81,13.53L96.682,61.732c-39.036,4.685-65.987,32.459-67.12,33.644
	c-0.647,0.676-1.185,1.452-1.586,2.297c-0.746,1.556-17.719,38.066,1.746,79.633l-2.56,101.942
	c-13.218,29.658-18.649,65.405-18.878,66.94c-0.285,1.909,0.07,3.862,0.995,5.556c2.858,5.194,28.407,49.889,62.255,51.82
	l149.839,76.762c29.076,22.326,62.047,31.032,63.448,31.394c0.724,0.185,1.465,0.28,2.211,0.28c0.517,0,1.031-0.043,1.543-0.138
	c10.918-1.935,35.433-19.52,54.014-51.199l26.873-21.762c35.498,1.927,66.207-8.486,67.543-8.943
	c1.198-0.409,2.293-1.074,3.211-1.949c8.84-8.391,20.24-36.321,18.158-72.348l20.434-162.726
	C482.027,156.739,475.829,119.322,475.567,117.75z"/>
<path style="fill:#F0B8E5;" d="M429.203,132.253L331.14,48.577C271.275,1.943,163.058,7.262,158.467,7.499
	c-1.547,0.086-3.048,0.574-4.345,1.422c-3.706,2.417-90.904,60.086-99.204,134.107l-8.185,165.635c0,0.073-0.004,0.142-0.004,0.215
	c-1.875,74.943,66.922,153.606,69.854,156.921c1.078,1.216,2.465,2.112,4.022,2.591c2.483,0.762,38.643,11.624,80.96,11.624
	c28.17,0,59.078-4.818,84.568-20.641l103.385-46.76c68.909-29.524,111.746-124.845,113.539-128.887
	c0.625-1.413,0.866-2.966,0.707-4.504C503.307,274.925,491.902,173.785,429.203,132.253z"/>
<g>
	<path style="fill:#EDA0D3;" d="M404.558,300.823c-1.444,0.065-36.136,1.94-99.799,29.861
		c-63.263,27.752-120.591,74.236-123.001,76.202c-3.104,2.53-4.116,6.828-2.469,10.473c17.227,38.144,89.783,44.277,134.659,44.277
		c17.491,0,30.782-0.936,34.942-1.263c2.202-0.177,4.254-1.168,5.758-2.784c3.694-3.966,90.063-97.701,57.927-152.417
		C410.916,302.349,407.951,300.78,404.558,300.823z"/>
	<path style="fill:#EDA0D3;" d="M143.274,93.402C76.511,88.653,12.072,200.395,9.352,205.153c-1.043,1.827-1.401,3.966-1.008,6.034
		c1.013,5.318,25.524,130.405,88.654,136.848c0.301,0.034,0.599,0.047,0.897,0.047c2.788,0,5.431-1.319,7.107-3.59
		c1.022-1.392,25.249-34.778,37.627-96.674c12.207-61.027,8.995-142.538,8.852-145.978C151.295,97.35,147.761,93.712,143.274,93.402
		z"/>
	<path style="fill:#EDA0D3;" d="M403.205,68.784c-1.056-1.888-2.763-3.319-4.802-4.03c-12.538-4.37-123.241-41.311-152.313,5.84
		c-1.004,1.63-1.452,3.543-1.276,5.448c0.125,1.388,3.719,34.528,54.014,83.676c49.937,48.802,117.466,60.905,120.315,61.397
		c0.504,0.086,1.004,0.129,1.504,0.129c3.125,0,6.069-1.668,7.659-4.448C457.119,166.376,405.416,72.745,403.205,68.784z"/>
</g>
<g>
	<path style="fill:#E985C0;" d="M198.098,54.892c-2.026-0.289-4.151,0.129-5.926,1.212c-9.677,5.953-93.825,59.474-69.44,106.225
		c1.203,2.302,3.353,3.957,5.883,4.529c5.499,1.241,40.346,8.818,71.78,8.818c14.965,0,29.162-1.72,39.036-6.654
		c28.986-14.495,65.077-40.364,66.599-41.458c2.125-1.526,3.466-3.918,3.655-6.53C313.133,73.442,209.882,56.651,198.098,54.892z"/>
	<path style="fill:#E985C0;" d="M181.655,289.859c-61.28-26.873-79.947-19.701-85.141-15.379c-0.561,0.47-1.065,1.008-1.492,1.603
		c-21.878,30.235,11.081,114.867,17.908,131.526c1.133,2.763,3.59,4.767,6.525,5.323c13.955,2.646,43.807,7.586,71.835,7.586
		c28.446,0,55.018-5.09,61.156-22.83c0.366-1.056,0.53-2.168,0.479-3.285C252.789,391.352,248.801,319.309,181.655,289.859z"/>
	<path style="fill:#E985C0;" d="M441.677,249.943c-3.414-9.741-34.778-95.295-83.085-100.472c-3.396-0.366-6.797,1.314-8.556,4.31
		c-1.728,2.948-42.191,72.719-30.447,120.876c11.094,45.489,20.154,66.103,20.537,66.957c1.189,2.677,3.625,4.586,6.508,5.103
		c3.091,0.552,6.107,0.814,9.06,0.814c53.979,0,84.662-87.874,86.007-91.813C442.345,253.844,442.336,251.81,441.677,249.943z"/>
</g>
<g>
	<path style="fill:#E168A9;" d="M223.885,164.346c-6.374-15.477-16.856-24.951-31.157-28.161
		c-44.251-9.969-108.264,46.876-115.415,53.38c-2.112,1.922-3.163,4.746-2.824,7.577c1.332,11.129,14.305,109.277,59.117,128.78
		c5.266,2.293,10.681,3.435,16.232,3.435c10.633,0,21.757-4.203,33.239-12.585c1.63-1.189,2.801-2.905,3.323-4.853l37.851-141.935
		C224.748,168.113,224.622,166.134,223.885,164.346z"/>
	<path style="fill:#E168A9;" d="M367.371,285.049c-3.966-15.266-15.999-25.769-35.756-31.227c-1.858-0.513-3.836-0.405-5.629,0.31
		l-141.93,56.772c-2.323,0.931-4.146,2.81-5.008,5.159c-7.211,19.684-5.75,36.778,4.345,50.811
		c24.887,34.593,96.166,36.791,113.846,36.791c2.138,0,3.491-0.03,3.887-0.043c2.232-0.061,4.362-0.97,5.953-2.539
		C314.449,393.822,378.759,328.83,367.371,285.049z"/>
	<path style="fill:#E168A9;" d="M356.656,136.822c-0.78-2.638-2.736-4.759-5.302-5.741c-8.219-3.155-81.383-30.101-116.777-4.956
		c-12.667,9.004-18.8,23.085-18.219,41.855c0.077,2.552,1.259,4.943,3.233,6.56l104.084,85.158c1.59,1.302,3.568,1.996,5.59,1.996
		c0.552,0,1.103-0.052,1.651-0.156c11.305-2.155,20.115-8.289,26.18-18.231C377.758,209.428,357.527,139.77,356.656,136.822z"/>
</g>
<path style="fill:#D25397;" d="M329.226,252.839c0,45.547-35.661,82.709-80.59,85.092c19.331-10.063,38.751-31.424,40.957-56.14
	c1.677-18.095-5.914-38.044-29.747-56.669c-4.502-3.531-7.856-7.238-10.239-11.034c-12.27-18.801-0.883-39.28,15.271-43.782
	C301.862,179.574,329.226,213.029,329.226,252.839z"/>
<path style="fill:#D75A9D;" d="M249.607,214.088c-15.182,22.421-50.226,2.913-57.817,60.288
	c-14.123-9.798-24.627-24.539-29.747-44.223c9.886-35.926,42.899-62.407,82.091-62.407c7.15,0,14.123,0.883,20.743,2.56
	C248.724,174.808,237.337,195.287,249.607,214.088z"/>
<path style="fill:#DC60A3;" d="M289.593,281.791c-2.207,24.716-21.626,46.077-40.957,56.14c-0.088,0-0.088,0-0.088,0
	c-1.501,0.088-2.913,0.088-4.413,0.088c-47.048,0-85.181-38.133-85.181-85.181c0-7.856,1.059-15.447,3.089-22.685
	c5.12,19.684,15.624,34.425,29.747,44.223C216.505,291.677,252.255,293.884,289.593,281.791z"/>
<path style="fill:#C9478D;" d="M289.593,281.791c-37.338,12.093-73.088,9.886-97.803-7.415
	c7.591-57.375,42.634-37.868,57.817-60.288c2.383,3.796,5.738,7.503,10.239,11.034C283.679,243.747,291.27,263.696,289.593,281.791z
	"/>
<g>
</g>
<g>
</g>
<g>
</g>
<g>
</g>
<g>
</g>
<g>
</g>
<g>
</g>
<g>
</g>
<g>
</g>
<g>
</g>
<g>
</g>
<g>
</g>
<g>
</g>
<g>
</g>
<g>
</g>
</svg>
