<?xml version="1.0" encoding="iso-8859-1"?>
<!-- Generator: Adobe Illustrator 19.0.0, SVG Export Plug-In . SVG Version: 6.00 Build 0)  -->
<svg version="1.1" id="Layer_1" xmlns="http://www.w3.org/2000/svg" xmlns:xlink="http://www.w3.org/1999/xlink" x="0px" y="0px"
	 viewBox="0 0 512.004 512.004" style="enable-background:new 0 0 512.004 512.004;" xml:space="preserve">
<path style="fill:#B469E6;" d="M490.648,341.682c-33.336-24.028-79.66-30.398-120.532-36.02
	c-26.07-3.584-51.271-7.152-65.702-14.669c-0.184-0.096,0.187,0.083,0,0l-18.866-10.272l2.507-22.487
	c2.738-15.926,14.112-37.291,26.204-59.917c19.461-36.416,41.516-77.692,41.516-118.709c0-50.67-87.617-76.395-97.611-79.161
	c-1.534-0.422-3.17-0.422-4.704,0c-9.994,2.766-97.607,28.491-97.607,79.161c0,41.021,22.059,82.297,41.516,118.713
	c12.41,23.223,24.242,45.485,26.581,61.53c0.018,0.118-0.022-0.116,0,0l2.406,21.076l-19.403,10.482
	c-14.488,7.351-38.914,10.717-64.791,14.263c-41,5.617-87.475,11.988-120.807,36.011c-41.193,29.684-10.761,115.556-7.155,125.248
	c0.56,1.503,1.521,2.826,2.779,3.825c6.414,5.109,53.079,41.116,92.661,41.116c10.381,0,20.281-2.477,28.835-8.646
	c33.336-24.028,53.935-65.962,72.11-102.956c11.54-23.489,22.443-45.657,34.062-57.007l10.945-9.572l12.002,10.426
	c11.547,11.396,22.384,33.314,33.842,56.543c18.161,36.809,38.747,78.532,72.092,102.565c8.555,6.169,18.446,8.646,28.831,8.646
	c39.579,0,86.247-36.007,92.661-41.116c1.258-0.999,2.219-2.321,2.779-3.825C501.409,457.238,531.842,371.366,490.648,341.682z"/>
<path style="fill:#964BDC;" d="M433.232,412.202L264.636,290.694V88.429c0-4.872-3.95-8.822-8.822-8.822s-8.822,3.95-8.822,8.822
	v202.535L78.776,412.202c-3.954,2.847-4.85,8.361-1.999,12.311c1.724,2.395,4.424,3.666,7.163,3.666
	c1.783,0,3.588-0.543,5.148-1.667l166.913-120.299l166.918,120.299c1.559,1.128,3.36,1.667,5.148,1.667
	c2.739,0,5.441-1.27,7.163-3.666C438.082,420.563,437.187,415.049,433.232,412.202z"/>
<path style="fill:#C8A5FF;" d="M388.696,352.24c-2.628-11.195-9.934-20.771-20.052-26.276l-83.094-45.244l10.537-94.513
	c1.27-11.389-2.391-22.826-10.041-31.377c-7.676-8.58-18.699-13.504-30.231-13.504c-11.531,0-22.55,4.924-30.226,13.504
	c-7.651,8.551-11.312,19.987-10.041,31.399l10.814,94.697l-83.371,45.037c-10.114,5.501-17.425,15.077-20.052,26.267
	c-2.623,11.179-0.345,22.981,6.25,32.389c6.594,9.399,16.925,15.576,28.34,16.955c1.616,0.194,3.235,0.289,4.847,0.289
	c9.783,0,19.32-3.541,26.742-10.037l66.48-58.135l66.918,58.13c7.422,6.501,16.959,10.041,26.742,10.041
	c1.611,0,3.227-0.095,4.842-0.289c11.419-1.378,21.75-7.556,28.348-16.959C389.041,375.213,391.319,363.414,388.696,352.24z"/>
<path style="fill:#D7B9FF;" d="M285.549,280.72l5.563-49.9c-10.5-5.668-22.514-8.893-35.284-8.893
	c-12.735,0-24.715,3.211-35.195,8.85l5.727,50.15l-44.402,23.986c2.918,25.362,18.585,46.791,40.432,57.817l33.205-29.038
	l33.514,29.113c21.97-11.023,37.729-32.55,40.611-58.034L285.549,280.72z"/>
<path style="fill:#AA5FE6;" d="M264.636,290.694V142.333c-2.876-0.642-5.827-1.006-8.822-1.006c-2.995,0-5.946,0.364-8.822,1.007
	v148.632l-121.267,87.399c0.998,2.156,2.08,4.283,3.463,6.256c2.069,2.949,4.604,5.445,7.327,7.71l119.487-86.118L375.3,392.193
	c2.651-2.232,5.12-4.69,7.145-7.576c1.425-2.032,2.553-4.219,3.568-6.444L264.636,290.694z"/>
<g>
	<path style="fill:#B67BF0;" d="M255.829,221.927c2.984,0,5.916,0.212,8.808,0.554v-80.148c-2.876-0.642-5.827-1.006-8.822-1.006
		c-2.995,0-5.946,0.364-8.822,1.007v80.149C249.892,222.138,252.835,221.927,255.829,221.927z"/>
	<path style="fill:#B67BF0;" d="M190.444,331.72l-64.719,46.645c0.998,2.156,2.08,4.283,3.463,6.256
		c2.069,2.949,4.604,5.445,7.327,7.71l64.123-46.215C196.695,341.757,193.271,336.925,190.444,331.72z"/>
	<path style="fill:#B67BF0;" d="M321.322,331.548c-2.814,5.214-6.246,10.038-10.176,14.409l64.155,46.236
		c2.651-2.232,5.12-4.69,7.145-7.576c1.425-2.032,2.553-4.219,3.568-6.444L321.322,331.548z"/>
</g>
<g>
</g>
<g>
</g>
<g>
</g>
<g>
</g>
<g>
</g>
<g>
</g>
<g>
</g>
<g>
</g>
<g>
</g>
<g>
</g>
<g>
</g>
<g>
</g>
<g>
</g>
<g>
</g>
<g>
</g>
</svg>
