<?xml version="1.0" encoding="iso-8859-1"?>
<!-- Generator: Adobe Illustrator 19.0.0, SVG Export Plug-In . SVG Version: 6.00 Build 0)  -->
<svg version="1.1" id="Layer_1" xmlns="http://www.w3.org/2000/svg" xmlns:xlink="http://www.w3.org/1999/xlink" x="0px" y="0px"
	 viewBox="0 0 512 512" style="enable-background:new 0 0 512 512;" xml:space="preserve">
<g>
	<path style="fill:#C2B8B9;" d="M104.676,466.489c0,25.031,20.48,45.511,45.511,45.511h211.627c25.031,0,45.511-20.48,45.511-45.511
		v-59.164L256,384.569l-151.324,22.756V466.489z"/>
	<path style="fill:#C2B8B9;" d="M407.324,45.511C407.324,20.48,386.844,0,361.813,0H150.187c-25.031,0-45.511,20.48-45.511,45.511
		v59.164L256,127.431l151.324-22.756V45.511z"/>
</g>
<circle style="fill:#FFFFFF;" cx="256" cy="459.662" r="17.067"/>
<path style="fill:#605353;" d="M291.84,60.894h-71.68c-4.713,0-8.533-3.821-8.533-8.533s3.821-8.533,8.533-8.533h71.68
	c4.714,0,8.533,3.821,8.533,8.533S296.554,60.894,291.84,60.894z"/>
<rect x="104.676" y="104.676" style="fill:#463836;" width="302.649" height="302.649"/>
<g>
</g>
<g>
</g>
<g>
</g>
<g>
</g>
<g>
</g>
<g>
</g>
<g>
</g>
<g>
</g>
<g>
</g>
<g>
</g>
<g>
</g>
<g>
</g>
<g>
</g>
<g>
</g>
<g>
</g>
</svg>
