<?xml version="1.0" encoding="iso-8859-1"?>
<!-- Generator: Adobe Illustrator 19.0.0, SVG Export Plug-In . SVG Version: 6.00 Build 0)  -->
<svg version="1.1" id="Layer_1" xmlns="http://www.w3.org/2000/svg" xmlns:xlink="http://www.w3.org/1999/xlink" x="0px" y="0px"
	 viewBox="0 0 503.961 503.961" style="enable-background:new 0 0 503.961 503.961;" xml:space="preserve">
<path style="fill:#3E4E5C;" d="M161.201,351.308l77.194-24.418c8.665,23.631-12.209,31.114-8.271,60.258
	c1.575,11.028,9.846,7.877,14.572,20.086l1.182,29.932l24.812,19.692c3.545,9.452-8.271,20.48-8.271,20.48
	s-25.994,29.538-44.505,26.388C191.921,499.788,161.201,351.308,161.201,351.308z"/>
<path style="fill:#323E4A;" d="M230.124,387.148c-3.545-27.963,14.572-35.84,9.058-56.714l-48.049,11.422l-29.932,9.452
	c0,0,0.788,4.332,2.757,11.815L231.7,391.48C230.912,390.299,230.518,389.117,230.124,387.148z"/>
<path style="fill:#3E4E5C;" d="M57.226,219.763l41.748-14.966c0.394,17.723,7.483,48.049,19.692,81.526
	c12.209,33.083,26.782,60.652,38.597,74.437l-41.748,14.966c-28.357,10.24-64.197-16.542-80.345-59.471
	C19.022,272.933,28.869,230.003,57.226,219.763z"/>
<path style="fill:#5992BD;" d="M338.826,206.373c-33.477-90.191-44.505-171.323-27.569-193.378c-2.363,2.363-5.12,5.514-8.271,10.24
	C275.023,64.589,228.155,153.598,67.466,211.1v0.394c-9.846,3.545-4.332,42.929,12.209,87.434
	c16.542,44.898,37.809,78.375,47.655,74.831c160.689-57.502,255.212-17.723,304.049-3.938c15.36,4.332,24.025-1.182,24.025-1.182
	C429.804,378.483,376.241,306.409,338.826,206.373z"/>
<path style="fill:#63A3D2;" d="M303.773,51.197c3.938-24.025,5.12-28.751,6.695-36.234l0.394-1.182
	c-1.969,2.363-4.726,5.12-7.483,9.452c-28.357,41.354-75.225,130.363-235.914,187.865v0.394c-3.938,1.575-5.514,8.665-4.726,19.298
	l12.997-3.938C223.822,174.471,274.629,94.914,303.773,51.197z"/>
<path style="fill:#487190;" d="M323.859,1.179c-31.114,11.422-26.782,103.188,9.846,204.8
	c36.234,101.612,90.978,174.868,122.092,163.052c31.114-11.422,26.782-103.188-9.846-204.8S354.579-10.243,323.859,1.179z"/>
<path style="fill:#426885;" d="M372.696,245.363c-36.234-101.612-40.566-193.378-9.846-204.8c6.695-2.363,14.178-1.182,22.449,3.545
	c-22.843-31.902-45.292-48.837-61.44-42.929c-31.114,11.422-26.782,103.188,9.846,204.8
	c28.751,80.345,68.923,142.572,99.643,159.508C412.081,336.342,390.419,294.2,372.696,245.363z"/>
<path style="fill:#EBEDEE;" d="M324.647,164.625c-1.575,0.394-2.757,1.182-3.938,1.575c3.545,12.997,7.877,25.994,12.603,39.778
	c7.089,19.692,14.966,38.597,23.237,55.926c1.182-0.394,2.363-0.788,3.151-1.182c26.388-9.846,40.172-38.991,30.72-65.772
	C380.573,168.563,351.429,154.779,324.647,164.625z"/>
<path style="fill:#D9DADB;" d="M372.696,245.363c-10.634-29.145-18.117-57.502-23.237-83.495
	c-7.877-1.182-16.542-0.394-24.812,2.757c-1.575,0.394-2.757,1.182-3.938,1.575c3.545,12.997,7.877,25.994,12.603,39.778
	c7.089,19.692,14.966,38.597,23.237,55.926c1.182-0.394,2.363-0.788,3.151-1.182c5.908-1.969,11.028-5.12,15.36-9.058
	C374.272,249.696,373.484,247.726,372.696,245.363z"/>
<g>
</g>
<g>
</g>
<g>
</g>
<g>
</g>
<g>
</g>
<g>
</g>
<g>
</g>
<g>
</g>
<g>
</g>
<g>
</g>
<g>
</g>
<g>
</g>
<g>
</g>
<g>
</g>
<g>
</g>
</svg>
