<?xml version="1.0" encoding="iso-8859-1"?>
<!-- Generator: Adobe Illustrator 19.0.0, SVG Export Plug-In . SVG Version: 6.00 Build 0)  -->
<svg version="1.1" id="Layer_1" xmlns="http://www.w3.org/2000/svg" xmlns:xlink="http://www.w3.org/1999/xlink" x="0px" y="0px"
	 viewBox="0 0 491.52 491.52" style="enable-background:new 0 0 491.52 491.52;" xml:space="preserve">
<g>
	<polygon style="fill:#3A556A;" points="70.637,136.506 70.637,218.997 105.062,218.997 95.593,136.506 	"/>
	<polygon style="fill:#3A556A;" points="395.927,136.506 386.457,218.997 420.883,218.997 420.883,136.506 	"/>
</g>
<polygon style="fill:#2F4859;" points="95.593,136.506 105.062,218.997 386.457,218.997 395.927,136.506 "/>
<rect x="105.062" y="13.553" style="fill:#D5D6DB;" width="281.395" height="195.635"/>
<path style="fill:#64798A;" d="M477.132,218.997H14.39c-7.948,0-14.39,6.443-14.39,14.389v230.183
	c0,7.947,6.442,14.389,14.39,14.389h462.742c7.947,0,14.388-6.442,14.388-14.389V233.386
	C491.52,225.439,485.079,218.997,477.132,218.997z"/>
<g>
	<rect y="285.865" style="fill:#3A556A;" width="491.52" height="12.206"/>
	<rect x="70.636" y="381.64" style="fill:#3A556A;" width="350.259" height="96.328"/>
</g>
<rect x="83.558" y="416.046" style="fill:#64798A;" width="324.403" height="61.901"/>
<circle style="fill:#FCD462;" cx="415.334" cy="257.275" r="10.066"/>
<circle style="fill:#E56353;" cx="452.301" cy="257.275" r="10.066"/>
<g>
	<rect x="213.591" y="325.832" style="fill:#FFFFFF;" width="64.338" height="17.93"/>
	<rect x="105.062" y="23.383" style="fill:#FFFFFF;" width="281.395" height="195.635"/>
</g>
<polygon style="fill:#EBF0F3;" points="334.969,23.382 105.062,23.382 105.062,218.997 386.457,218.997 386.457,74.872 "/>
<polygon style="fill:#E1E6E9;" points="334.969,74.872 386.457,74.872 334.969,23.382 "/>
<g>
</g>
<g>
</g>
<g>
</g>
<g>
</g>
<g>
</g>
<g>
</g>
<g>
</g>
<g>
</g>
<g>
</g>
<g>
</g>
<g>
</g>
<g>
</g>
<g>
</g>
<g>
</g>
<g>
</g>
</svg>
