<?xml version="1.0" encoding="iso-8859-1"?>
<!-- Generator: Adobe Illustrator 19.0.0, SVG Export Plug-In . SVG Version: 6.00 Build 0)  -->
<svg version="1.1" id="Layer_1" xmlns="http://www.w3.org/2000/svg" xmlns:xlink="http://www.w3.org/1999/xlink" x="0px" y="0px"
	 viewBox="0 0 512 512" style="enable-background:new 0 0 512 512;" xml:space="preserve">
<g>
	<g>
		<path style="fill:#2D404E;" d="M448.621,303.105c0,0,8.492,28.519-6.422,59.412c-11.654,24.142-63.027,32.941-63.027,32.941
			v39.243c0,0,90.615-16.947,84.432-97.038c-3.09-40.016-9.275-54.226-9.275-54.226L448.621,303.105z"/>
	</g>
	<g>
		<path style="fill:#253744;" d="M379.172,411.602v-16.143c0,0,51.373-8.8,63.027-32.941c14.914-30.894,6.422-59.412,6.422-59.412
			l1.281-4.419c0,0,8.486,42.129-4.691,66.343C432.033,389.242,421.232,398.858,379.172,411.602z"/>
	</g>
	<g>
		<g>
			<path style="fill:#253744;" d="M181.971,509.146c0,1.576-1.275,2.854-2.854,2.854h-8.562c-1.574,0-2.854-1.278-2.854-2.854
				v-11.357c0-1.576,1.279-2.854,2.854-2.854h8.562c1.578,0,2.854,1.278,2.854,2.854V509.146z"/>
		</g>
		<g>
			<path style="fill:#253744;" d="M348.949,509.146c0,1.576-1.279,2.854-2.854,2.854h-8.562c-1.578,0-2.854-1.278-2.854-2.854
				v-11.357c0-1.576,1.275-2.854,2.854-2.854h8.562c1.574,0,2.854,1.278,2.854,2.854V509.146z"/>
		</g>
	</g>
	<g>
		<path style="fill:#F2B643;" d="M206.607,53.773l227.031,181.289c0,0,29.492,16.173,26.639,51.373
			c-2.854,35.199-27.018,50.516-51.613,50.516c-43.764,0-89.752-2.831-89.752-2.831l-0.504-14.626c0,0,71.232,7.135,90.496,4.994
			c19.266-2.14,27.199-11.12,27.828-32.107c0.34-11.402-7.137-28.54-33.535-33.535c-26.4-4.995-256.492-22.13-256.492-22.13
			S132.164,95.157,206.607,53.773z"/>
	</g>
	<g>
		<path style="fill:#F2B643;" d="M229.096,154.777c-14.967,75.112-66.701,128.111-115.559,118.377
			c-48.852-9.732-76.326-78.514-61.363-153.626C67.141,44.418,118.877-8.582,167.732,1.152
			C216.588,10.885,244.06,79.665,229.096,154.777z"/>
	</g>
	<g>
		
			<ellipse transform="matrix(-0.9807 -0.1954 0.1954 -0.9807 251.7151 299.152)" style="fill:#D89932;" cx="140.614" cy="137.16" rx="78.842" ry="121.215"/>
	</g>
	<g>
		<path style="fill:#2D404E;" d="M317.23,351.699c0,1.576-1.279,2.854-2.855,2.854l0,0c-1.576,0-2.854-1.278-2.854-2.854v-38.363
			c0-1.578,1.277-2.854,2.854-2.854l0,0c1.576,0,2.855,1.276,2.855,2.854V351.699z"/>
	</g>
	<g>
		<path style="fill:#253744;" d="M365.973,362.164H150.154c-2.295,0-4.162-1.868-4.162-4.162c0-2.295,1.867-4.162,4.162-4.162
			h215.819c2.295,0,4.162,1.867,4.162,4.162C370.135,360.296,368.267,362.164,365.973,362.164z M150.154,355.266
			c-1.508,0-2.736,1.228-2.736,2.735s1.229,2.734,2.736,2.734h215.819c1.508,0,2.734-1.227,2.734-2.734s-1.227-2.735-2.734-2.735
			H150.154z"/>
	</g>
	<g>
		<path style="fill:#2D404E;" d="M263.533,352.531c0,3.021-2.449,5.471-5.471,5.471l0,0c-3.021,0-5.471-2.449-5.471-5.471v-2.023
			c0-3.021,2.449-5.47,5.471-5.47l0,0c3.021,0,5.471,2.448,5.471,5.47V352.531z"/>
	</g>
	<g>
		<path style="fill:#253744;" d="M258.062,358.001L258.062,358.001c-3.021,0-5.471-2.449-5.471-5.471v-2.023
			c0-3.021,2.449-5.47,5.471-5.47c0,0-2.734,0.716-2.734,3.927s0,6.778,0,6.778L258.062,358.001z"/>
	</g>
	<g>
		<path style="fill:#2D404E;" d="M268.33,375.965c0,1.046-1.578,1.895-3.52,1.895h-12.971c-1.941,0-3.52-0.849-3.52-1.895v-14.999
			c0-1.047,1.578-1.896,3.52-1.896h12.971c1.941,0,3.52,0.849,3.52,1.896V375.965z"/>
	</g>
	<g>
		<path style="fill:#253744;" d="M248.32,360.966v14.999c0,1.046,1.578,1.895,3.52,1.895v-18.79
			C249.898,359.07,248.32,359.919,248.32,360.966z"/>
	</g>
	<g>
		<rect x="137.476" y="375.005" style="fill:#9D6227;" width="241.695" height="124.626"/>
	</g>
	<g>
		<path style="fill:#915A26;" d="M391.514,376.432c0,1.576-1.279,2.854-2.855,2.854H127.99c-1.576,0-2.854-1.278-2.854-2.854v-3.688
			c0-1.576,1.277-2.854,2.854-2.854h260.668c1.576,0,2.855,1.277,2.855,2.854L391.514,376.432L391.514,376.432z"/>
	</g>
	<g>
		<circle style="fill:#2D404E;" cx="314.375" cy="326.432" r="15.951"/>
	</g>
	<g>
		<path style="fill:#915A26;" d="M316.039,464.909c0,7.093-5.75,12.843-12.844,12.843h-89.74c-7.094,0-12.844-5.75-12.844-12.843
			v-27.113c0-7.094,5.75-12.844,12.844-12.844h89.74c7.094,0,12.844,5.75,12.844,12.844V464.909z"/>
	</g>
	<g>
		<circle style="fill:#D89932;" cx="258.325" cy="404.306" r="7.296"/>
	</g>
	<g>
		<rect x="137.476" y="375.005" style="fill:#915A26;" width="30.225" height="122.782"/>
	</g>
	<g>
		<rect x="348.949" y="375.005" style="fill:#915A26;" width="30.223" height="122.782"/>
	</g>
	<g>
		<polygon style="fill:#814F20;" points="137.476,379.288 379.172,379.288 379.172,383.569 348.949,386.779 167.701,386.779 
			137.476,383.746 		"/>
	</g>
	<g>
		<polygon style="fill:#814F20;" points="137.476,498.203 379.172,498.203 379.172,493.922 348.949,490.712 167.701,490.712 
			137.476,493.745 		"/>
	</g>
	<g>
		<path style="fill:#915A26;" d="M391.514,501.475c0,1.576-1.279,2.854-2.855,2.854H127.99c-1.576,0-2.854-1.277-2.854-2.854v-3.688
			c0-1.576,1.277-2.854,2.854-2.854h260.668c1.576,0,2.855,1.278,2.855,2.854L391.514,501.475L391.514,501.475z"/>
	</g>
	<g>
		<path style="fill:#2D404E;" d="M369.682,358.001c0,1.904-1.543,3.448-3.447,3.448H150.416c-1.904,0-3.449-1.544-3.449-3.448l0,0
			c0-1.904,1.545-3.448,3.449-3.448h215.818C368.139,354.552,369.682,356.096,369.682,358.001L369.682,358.001z"/>
	</g>
	<g>
		<path style="fill:#253744;" d="M330.012,329.585c-1.74,8.634-10.152,14.224-18.789,12.483
			c-8.635-1.74-14.227-10.153-12.484-18.788c0.594-2.946,1.965-5.538,3.855-7.604c0,0-3.078,5.008,2.336,15.405
			c4.205,8.072,16.176,7.228,19.371,4.888S330.012,329.585,330.012,329.585z"/>
	</g>
</g>
<g>
</g>
<g>
</g>
<g>
</g>
<g>
</g>
<g>
</g>
<g>
</g>
<g>
</g>
<g>
</g>
<g>
</g>
<g>
</g>
<g>
</g>
<g>
</g>
<g>
</g>
<g>
</g>
<g>
</g>
</svg>
