<?xml version="1.0" encoding="iso-8859-1"?>
<!-- Generator: Adobe Illustrator 19.0.0, SVG Export Plug-In . SVG Version: 6.00 Build 0)  -->
<svg version="1.1" id="Layer_1" xmlns="http://www.w3.org/2000/svg" xmlns:xlink="http://www.w3.org/1999/xlink" x="0px" y="0px"
	 viewBox="0 0 504.616 504.616" style="enable-background:new 0 0 504.616 504.616;" xml:space="preserve">
<path style="fill:#E2574C;" d="M468.923,484.136c0,11.422-9.058,20.48-20.48,20.48H56.172c-11.028,0-20.48-9.058-20.48-20.48
	V198.598c0-3.545,2.757-6.695,6.302-7.483c34.265-7.877,61.44-79.951,61.44-167.778v-8.271c0-3.938,2.757-7.483,6.695-7.877
	l56.32-7.089c2.363-0.394,4.726,0.394,6.302,2.363c16.935,16.542,46.08,31.508,79.163,31.508s62.228-14.966,79.163-31.508
	c1.575-1.575,3.938-2.363,6.302-2.363l56.714,7.089c3.938,0.394,6.695,3.938,6.695,7.877v8.271
	c0,87.828,27.175,159.902,61.44,167.778c3.545,0.788,6.302,3.938,6.302,7.483C468.529,198.598,468.923,484.136,468.923,484.136z"/>
<path style="fill:#BF392B;" d="M252.308,157.638c56.714,0,102.4-59.865,102.4-133.908c0-7.483-0.394-14.572-1.182-21.662
	l-15.36-1.969c-2.363-0.394-4.726,0.394-6.302,2.363c-16.935,16.542-46.08,31.508-79.163,31.508s-62.228-14.966-79.163-31.508
	c-1.575-1.575-3.938-2.363-6.302-2.363l-15.36,1.969c-1.575,7.089-1.969,14.178-1.969,21.662
	C149.908,97.773,195.594,157.638,252.308,157.638z"/>
<path style="fill:#D9D9D9;" d="M150.302,2.069c6.695,34.658,49.625,61.046,101.612,61.046S346.831,36.727,353.92,2.069L338.166,0.1
	h-1.969c-1.575,0.394-3.151,0.788-4.332,2.363c-16.935,16.542-46.08,31.508-79.163,31.508s-62.228-14.966-79.163-31.508
	c-1.182-1.182-2.757-1.969-4.332-2.363h-1.969C167.237,0.099,150.302,2.069,150.302,2.069z"/>
<path style="fill:#EFEFEF;" d="M344.074,0.099c0.788,7.877,1.575,15.754,1.575,23.631c0,69.317-41.748,126.031-93.342,126.031
	s-93.342-56.32-93.342-126.031c0-8.271,0.788-16.148,1.575-23.631h-16.935c-0.788,7.877-1.575,15.754-1.575,23.631
	c0,77.982,49.625,141.785,110.277,141.785S362.584,101.712,362.584,23.73c0-7.877-0.788-15.754-1.575-23.631
	C361.009,0.099,344.074,0.099,344.074,0.099z"/>
<path style="fill:#EC9089;" d="M327.138,204.899h55.138c2.363,0,3.938,1.575,3.938,3.938v23.631c0,2.363-1.575,3.938-3.938,3.938
	h-55.138c-2.363,0-3.938-1.575-3.938-3.938v-23.631C323.2,206.869,324.775,204.899,327.138,204.899z"/>
<path style="fill:#EEE0DF;" d="M237.735,389.219h-43.717c-1.182,0-1.182-1.182-0.788-1.575c7.877-7.877,18.117-14.572,27.569-21.662
	c12.603-9.846,23.237-20.48,23.237-37.022c0-22.449-18.117-32.689-40.172-32.689c-18.511,0-35.446,10.634-36.628,30.326
	c0,5.514,2.757,7.877,8.271,8.271c5.12,0.788,10.634-1.182,11.815-6.695c1.969-9.058,8.665-13.391,16.935-13.391
	c11.422,0,18.117,5.908,18.117,16.542c0,9.452-9.846,18.117-18.905,25.206c-11.422,8.665-22.055,16.542-31.902,27.175
	c-2.363,2.757-5.514,7.877-5.514,14.572c0,9.452,2.363,12.209,11.028,12.209h61.046c5.514,0,7.089-4.726,7.089-9.452
	C244.431,395.521,242.855,389.219,237.735,389.219L237.735,389.219z M306.658,338.019c-1.182,0-1.575-1.182-0.788-1.969
	l21.268-20.874c2.363-2.363,4.332-4.726,4.332-8.665c0.394-5.514-0.788-11.028-6.302-11.028h-55.926
	c-5.514,0-6.695,6.302-6.695,11.028s1.182,9.452,6.695,9.452h32.689c-2.363,1.969-4.332,3.545-6.302,5.908l-13.785,14.178
	c-2.757,3.151-3.938,6.695-1.969,11.028c1.575,3.938,4.726,5.908,8.271,5.908c13.785,0,29.538,2.363,29.538,20.086
	c0,10.24-7.483,18.511-18.511,18.511c-9.452,0-14.966-3.151-19.298-11.422c-2.757-4.726-7.877-5.514-12.997-3.545
	c-5.514,2.363-7.877,7.089-5.12,12.603c6.695,14.178,20.874,20.086,37.022,20.086c23.237,0,40.566-14.966,40.96-38.203
	C338.954,352.986,325.957,339.989,306.658,338.019z"/>
<path style="fill:#CB4E44;" d="M41.994,191.115c-3.545,0.788-6.302,3.938-6.302,7.483v285.538c0,11.422,9.058,20.48,20.48,20.48
	h7.089V177.33C56.566,184.419,49.477,189.146,41.994,191.115z M462.622,191.115c-7.483-1.575-14.572-6.695-21.268-13.785v326.892
	h7.089c11.028,0,20.48-9.058,20.48-20.48V198.598C468.923,194.659,466.166,191.903,462.622,191.115z"/>
<g>
</g>
<g>
</g>
<g>
</g>
<g>
</g>
<g>
</g>
<g>
</g>
<g>
</g>
<g>
</g>
<g>
</g>
<g>
</g>
<g>
</g>
<g>
</g>
<g>
</g>
<g>
</g>
<g>
</g>
</svg>
