<?xml version="1.0" encoding="iso-8859-1"?>
<!-- Generator: Adobe Illustrator 19.0.0, SVG Export Plug-In . SVG Version: 6.00 Build 0)  -->
<svg version="1.1" id="Layer_1" xmlns="http://www.w3.org/2000/svg" xmlns:xlink="http://www.w3.org/1999/xlink" x="0px" y="0px"
	 viewBox="0 0 512.001 512.001" style="enable-background:new 0 0 512.001 512.001;" xml:space="preserve">
<path style="fill:#F0545A;" d="M414.897,432.552H97.103c-9.751,0-17.655-7.904-17.655-17.655v-35.31h353.103v35.31
	C432.552,424.648,424.648,432.552,414.897,432.552z"/>
<polygon style="fill:#FF6464;" points="432.552,379.587 79.448,379.587 150.069,114.759 361.931,114.759 "/>
<path style="fill:#F0545A;" d="M256,79.449c-141.385,0-256,42.499-256,94.924v40.228c0,15.616,16.399,26.975,33.082,22.915
	l87.938-21.398c11.868-2.888,20.222-13.517,20.222-25.732v-34.084c0-8.676,6.287-16.183,14.866-17.481
	c66.218-10.023,133.568-10.023,199.786,0c8.578,1.299,14.866,8.806,14.866,17.481v34.084c0,12.214,8.353,22.844,20.222,25.732
	l87.937,21.398c16.684,4.06,33.082-7.299,33.082-22.915v-40.228C512,121.948,397.385,79.449,256,79.449z"/>
<g>
	<path style="fill:#D4DEED;" d="M141.241,168.393L0,203.282v11.319c0,15.615,16.399,26.975,33.082,22.915l87.938-21.398
		c11.868-2.888,20.222-13.517,20.222-25.732v-21.993H141.241z"/>
	<path style="fill:#D4DEED;" d="M370.759,168.913v21.473c0,12.214,8.353,22.844,20.222,25.732l87.938,21.398
		c16.683,4.06,33.081-7.299,33.082-22.915v-11.318L370.759,168.913z"/>
	<circle style="fill:#D4DEED;" cx="256" cy="264.828" r="97.103"/>
</g>
<circle style="fill:#B6BFD5;" cx="256" cy="264.828" r="70.621"/>
<g>
	<circle style="fill:#FFFFFF;" cx="256" cy="264.828" r="52.966"/>
	<circle style="fill:#FFFFFF;" cx="256" cy="189.794" r="13.241"/>
	<circle style="fill:#FFFFFF;" cx="256" cy="339.863" r="13.241"/>
	<circle style="fill:#FFFFFF;" cx="180.966" cy="264.828" r="13.241"/>
	<circle style="fill:#FFFFFF;" cx="293.517" cy="199.846" r="13.241"/>
	<circle style="fill:#FFFFFF;" cx="218.483" cy="329.81" r="13.241"/>
	<circle style="fill:#FFFFFF;" cx="191.018" cy="227.311" r="13.241"/>
	<circle style="fill:#FFFFFF;" cx="218.483" cy="199.846" r="13.241"/>
	<circle style="fill:#FFFFFF;" cx="293.517" cy="329.81" r="13.241"/>
	<circle style="fill:#FFFFFF;" cx="191.018" cy="302.345" r="13.241"/>
</g>
<path style="fill:#929CB4;" d="M312.945,291.096l-0.987,1.632c-1.212,2.005-0.734,4.598,1.111,6.04l25.945,20.283
	c2.187,1.709,5.376,1.123,6.812-1.252l5.063-8.378c1.436-2.376,0.471-5.472-2.059-6.613l-30.023-13.536
	C316.674,288.307,314.156,289.092,312.945,291.096z"/>
<g>
</g>
<g>
</g>
<g>
</g>
<g>
</g>
<g>
</g>
<g>
</g>
<g>
</g>
<g>
</g>
<g>
</g>
<g>
</g>
<g>
</g>
<g>
</g>
<g>
</g>
<g>
</g>
<g>
</g>
</svg>
