<?xml version="1.0" encoding="iso-8859-1"?>
<!-- Generator: Adobe Illustrator 19.0.0, SVG Export Plug-In . SVG Version: 6.00 Build 0)  -->
<svg version="1.1" id="Layer_1" xmlns="http://www.w3.org/2000/svg" xmlns:xlink="http://www.w3.org/1999/xlink" x="0px" y="0px"
	 viewBox="0 0 355.104 355.104" style="enable-background:new 0 0 355.104 355.104;" xml:space="preserve">
<g>
	<path style="fill:#1E252B;" d="M339.151,297.151c0,13.167-10.773,23.94-23.94,23.94H75.949c-13.167,0-23.941-10.773-23.941-23.94
		V23.941C52.008,10.774,62.782,0,75.949,0h239.262c13.167,0,23.94,10.774,23.94,23.941V297.151z"/>
	<path style="fill:#333E48;" d="M87.072,355.104H45.16c-16.105,0-29.207-13.102-29.207-29.208v-182.01
		c0-16.105,13.103-29.208,29.207-29.208h6.848v10.534H45.16c-10.297,0-18.674,8.377-18.674,18.674v182.009
		c0,10.297,8.377,18.674,18.674,18.674h41.912c10.297,0,18.674-8.377,18.674-18.674v-48.998h10.534v48.998
		C116.279,342.002,103.177,355.104,87.072,355.104z"/>
	<path style="fill:#333E48;" d="M146.33,44.665c0-5.267-4.309-9.577-9.576-9.577H85.271c-5.267,0-9.576,4.31-9.576,9.577v231.761
		c0,5.267,4.309,9.576,9.576,9.576h51.482c5.267,0,9.576-4.309,9.576-9.576L146.33,44.665L146.33,44.665z"/>
	<g>
		<path style="fill:#333E48;" d="M214.145,128.012c0,4.225-3.458,7.681-7.683,7.681h-23.045c-4.224,0-7.681-3.456-7.681-7.681
			V111.88c0-4.225,3.457-7.682,7.681-7.682h23.045c4.225,0,7.683,3.457,7.683,7.682V128.012z"/>
		<path style="fill:#333E48;" d="M264.845,128.012c0,4.225-3.457,7.681-7.682,7.681h-23.045c-4.225,0-7.681-3.456-7.681-7.681
			V111.88c0-4.225,3.456-7.682,7.681-7.682h23.045c4.225,0,7.682,3.457,7.682,7.682V128.012z"/>
		<path style="fill:#333E48;" d="M315.545,128.012c0,4.225-3.458,7.681-7.682,7.681h-23.046c-4.225,0-7.682-3.456-7.682-7.681
			V111.88c0-4.225,3.457-7.682,7.682-7.682h23.046c4.225,0,7.682,3.457,7.682,7.682V128.012z"/>
		<path style="fill:#333E48;" d="M214.145,173.892c0,4.225-3.458,7.681-7.683,7.681h-23.045c-4.224,0-7.681-3.456-7.681-7.681
			V157.76c0-4.225,3.457-7.682,7.681-7.682h23.045c4.225,0,7.683,3.458,7.683,7.682V173.892z"/>
		<path style="fill:#333E48;" d="M264.845,173.892c0,4.225-3.457,7.681-7.682,7.681h-23.045c-4.225,0-7.681-3.456-7.681-7.681
			V157.76c0-4.225,3.456-7.682,7.681-7.682h23.045c4.225,0,7.682,3.458,7.682,7.682V173.892z"/>
		<path style="fill:#333E48;" d="M315.545,173.892c0,4.225-3.458,7.681-7.682,7.681h-23.046c-4.225,0-7.682-3.456-7.682-7.681
			V157.76c0-4.225,3.457-7.682,7.682-7.682h23.046c4.225,0,7.682,3.458,7.682,7.682V173.892z"/>
		<path style="fill:#333E48;" d="M214.145,219.773c0,4.225-3.458,7.681-7.683,7.681h-23.045c-4.224,0-7.681-3.457-7.681-7.681
			V203.64c0-4.225,3.457-7.682,7.681-7.682h23.045c4.225,0,7.683,3.457,7.683,7.682V219.773z"/>
		<path style="fill:#333E48;" d="M264.845,219.773c0,4.225-3.457,7.681-7.682,7.681h-23.045c-4.225,0-7.681-3.457-7.681-7.681
			V203.64c0-4.225,3.456-7.682,7.681-7.682h23.045c4.225,0,7.682,3.457,7.682,7.682V219.773z"/>
		<path style="fill:#333E48;" d="M315.545,219.773c0,4.225-3.458,7.681-7.682,7.681h-23.046c-4.225,0-7.682-3.457-7.682-7.681
			V203.64c0-4.225,3.457-7.682,7.682-7.682h23.046c4.225,0,7.682,3.457,7.682,7.682V219.773z"/>
		<path style="fill:#333E48;" d="M214.145,265.652c0,4.225-3.458,7.682-7.683,7.682h-23.045c-4.224,0-7.681-3.457-7.681-7.682
			V249.52c0-4.225,3.457-7.682,7.681-7.682h23.045c4.225,0,7.683,3.457,7.683,7.682V265.652z"/>
		<path style="fill:#333E48;" d="M264.845,265.652c0,4.225-3.457,7.682-7.682,7.682h-23.045c-4.225,0-7.681-3.457-7.681-7.682
			V249.52c0-4.225,3.456-7.682,7.681-7.682h23.045c4.225,0,7.682,3.457,7.682,7.682V265.652z"/>
		<path style="fill:#333E48;" d="M315.545,265.652c0,4.225-3.458,7.682-7.682,7.682h-23.046c-4.225,0-7.682-3.457-7.682-7.682
			V249.52c0-4.225,3.457-7.682,7.682-7.682h23.046c4.225,0,7.682,3.457,7.682,7.682V265.652z"/>
	</g>
	<rect x="175.736" y="35.088" style="fill:#61B4E4;" width="139.809" height="48.847"/>
</g>
<g>
</g>
<g>
</g>
<g>
</g>
<g>
</g>
<g>
</g>
<g>
</g>
<g>
</g>
<g>
</g>
<g>
</g>
<g>
</g>
<g>
</g>
<g>
</g>
<g>
</g>
<g>
</g>
<g>
</g>
</svg>
