<?xml version="1.0" encoding="iso-8859-1"?>
<!-- Generator: Adobe Illustrator 19.0.0, SVG Export Plug-In . SVG Version: 6.00 Build 0)  -->
<svg version="1.1" id="Layer_1" xmlns="http://www.w3.org/2000/svg" xmlns:xlink="http://www.w3.org/1999/xlink" x="0px" y="0px"
	 viewBox="0 0 511.999 511.999" style="enable-background:new 0 0 511.999 511.999;" xml:space="preserve">
<path style="fill:#C3C3C7;" d="M165.323,267.452L395.89,125.446c4.144-2.545,8.407,3.058,4.849,6.359L210.454,308.684
	c-6.688,6.226-11.003,14.558-12.225,23.602l-6.482,48.036c-0.858,6.414-9.868,7.05-11.638,0.843l-24.929-87.595
	C152.325,283.578,156.486,272.907,165.323,267.452z"/>
<path style="fill:#DEDEE0;" d="M9.043,246.86l117.975,44.032l45.664,146.854c2.922,9.405,14.423,12.882,22.057,6.641l65.761-53.61
	c6.893-5.617,16.712-5.897,23.916-0.667l118.61,86.113c8.166,5.936,19.736,1.461,21.784-8.407l86.888-417.947
	c2.236-10.779-8.356-19.772-18.62-15.802L8.905,220.845C-3.043,225.453-2.939,242.369,9.043,246.86z M165.323,267.452
	L395.89,125.446c4.144-2.545,8.407,3.058,4.849,6.359L210.454,308.684c-6.688,6.226-11.003,14.558-12.225,23.602l-6.482,48.036
	c-0.858,6.414-9.868,7.05-11.638,0.843l-24.929-87.595C152.325,283.578,156.486,272.907,165.323,267.452z"/>
<g>
</g>
<g>
</g>
<g>
</g>
<g>
</g>
<g>
</g>
<g>
</g>
<g>
</g>
<g>
</g>
<g>
</g>
<g>
</g>
<g>
</g>
<g>
</g>
<g>
</g>
<g>
</g>
<g>
</g>
</svg>
