<?xml version="1.0" encoding="iso-8859-1"?>
<!-- Generator: Adobe Illustrator 19.0.0, SVG Export Plug-In . SVG Version: 6.00 Build 0)  -->
<svg version="1.1" id="Layer_1" xmlns="http://www.w3.org/2000/svg" xmlns:xlink="http://www.w3.org/1999/xlink" x="0px" y="0px"
	 viewBox="0 0 512 512" style="enable-background:new 0 0 512 512;" xml:space="preserve">
<path style="fill:#C3C6C8;" d="M237.307,103.489l-23.192-35.228c-3.678-5.588-10.212-8.994-17.251-8.994H10.958
	C4.906,59.267,0,63.835,0,69.471v33.651L237.307,103.489z"/>
<path style="fill:#FF6361;" d="M209.626,185.125v-81.784H22.009v233.728h379.74V194.014H218.516
	C213.607,194.014,209.626,190.035,209.626,185.125z"/>
<g style="opacity:0.15;">
	<path d="M56.667,310.878c-5.615,0-10.166-4.552-10.166-10.166v-197.37H22.009v233.728h379.74v-26.191H56.667z"/>
</g>
<rect x="291.943" y="132.524" style="fill:#C3C6C8;" width="81.509" height="61.49"/>
<rect x="291.943" y="132.524" style="opacity:0.15;enable-background:new    ;" width="16.775" height="61.49"/>
<path style="fill:#586069;" d="M384.752,104.621H280.648c-2.101,0-3.804,1.703-3.804,3.804v30.118c0,2.101,1.703,3.804,3.804,3.804
	h104.104c2.101,0,3.804-1.703,3.804-3.804v-30.118C388.556,106.324,386.853,104.621,384.752,104.621z"/>
<path style="opacity:0.15;enable-background:new    ;" d="M290.647,131.977c-2.101,0-3.804-1.703-3.804-3.804v-23.552h-6.195
	c-2.101,0-3.804,1.703-3.804,3.804v30.118c0,2.101,1.703,3.804,3.804,3.804h104.104c2.101,0,3.804-1.703,3.804-3.804v-6.566
	C388.556,131.977,290.647,131.977,290.647,131.977z"/>
<g>
	<circle style="fill:#333E48;" cx="68.3" cy="406.759" r="45.971"/>
	<circle style="fill:#333E48;" cx="195.325" cy="406.759" r="45.971"/>
	<circle style="fill:#333E48;" cx="322.35" cy="406.759" r="45.971"/>
</g>
<path style="fill:#FFB547;" d="M361.605,273.874h-50.362c-4.602,0-8.332-3.731-8.332-8.332s3.731-8.332,8.332-8.332h50.362
	c4.602,0,8.332,3.731,8.332,8.332S366.206,273.874,361.605,273.874z"/>
<g>
	<path style="fill:#333E48;" d="M361.605,246.183H332.7c-4.602,0-8.332-3.731-8.332-8.332s3.731-8.332,8.332-8.332h28.904
		c4.602,0,8.332,3.731,8.332,8.332S366.206,246.183,361.605,246.183z"/>
	<path style="fill:#333E48;" d="M430.94,351.321h-18.015c-6.173,0-11.177-5.005-11.177-11.177V190.94
		c0-6.173,5.004-11.177,11.177-11.177h18.015c6.173,0,11.177,5.005,11.177,11.177v149.203
		C442.118,346.316,437.114,351.321,430.94,351.321z"/>
</g>
<path style="opacity:0.15;enable-background:new    ;" d="M412.925,179.763c-6.173,0-11.177,5.005-11.177,11.177v149.203
	c0,6.173,5.004,11.177,11.177,11.177h3.579V185.2c0-1.975,0.517-3.827,1.415-5.438h-4.995V179.763z"/>
<path style="fill:#7D868C;" d="M457.505,237.617h-15.388v55.848h15.388c3.478,0,6.299-2.82,6.299-6.299v-43.25
	C463.804,240.438,460.985,237.617,457.505,237.617z"/>
<path style="fill:#586069;" d="M442.118,345.58h-40.369v57.218c0,27.578,22.357,49.934,49.934,49.934h50.711
	c7.873,0,12.391-8.964,7.708-15.293L442.118,345.58z"/>
<path style="opacity:0.15;enable-background:new    ;" d="M510.819,438.569H466.44c-27.578,0-49.934-22.357-49.934-49.936V345.58
	h-14.758v57.218c0,27.578,22.357,49.934,49.934,49.934h50.711C509.81,452.732,514.242,444.781,510.819,438.569z"/>
<path style="fill:#333E48;" d="M459.586,429.247c-2.581,0-5.124-1.194-6.753-3.444l-21.904-30.226
	c-2.701-3.726-1.869-8.936,1.857-11.636c3.727-2.702,8.936-1.869,11.636,1.857l21.904,30.226c2.701,3.726,1.869,8.936-1.857,11.636
	C462.991,428.732,461.28,429.247,459.586,429.247z"/>
<path style="fill:#C3C6C8;" d="M466.359,330.376H6.382c-3.525,0-6.382,2.857-6.382,6.382v17.644c0,3.525,2.857,6.382,6.382,6.382
	h459.977c3.525,0,6.382-2.857,6.382-6.382v-17.644C472.742,333.233,469.884,330.376,466.359,330.376z"/>
<path style="opacity:0.15;enable-background:new    ;" d="M16.381,351.163c-3.525,0-6.382-2.857-6.382-6.382v-14.404H6.382
	c-3.525,0-6.382,2.857-6.382,6.382v17.644c0,3.525,2.857,6.382,6.382,6.382h459.977c3.525,0,6.382-2.857,6.382-6.382v-3.239H16.381z
	"/>
<path style="fill:#333E48;" d="M161.457,142.345H70.178c-5.438,0-9.846,4.408-9.846,9.846v42.538c0,5.438,4.408,9.846,9.846,9.846
	h91.279c5.438,0,9.846-4.408,9.846-9.846v-42.538C171.303,146.755,166.895,142.345,161.457,142.345z"/>
<path style="fill:#586069;" d="M232.951,117.821H7.924c-4.377,0-7.924-3.548-7.924-7.924V89.678h232.951
	c4.377,0,7.924,3.548,7.924,7.924v12.294C240.877,114.273,237.328,117.821,232.951,117.821z"/>
<path style="opacity:0.15;enable-background:new    ;" d="M19.034,108.411c-4.377,0-7.924-3.548-7.924-7.924V89.678H0v20.219
	c0,4.377,3.548,7.924,7.924,7.924h225.027c4.377,0,7.924-3.548,7.924-7.924v-1.485H19.034V108.411z"/>
<g style="opacity:0.15;">
	<path d="M150.522,301.797H81.114c-10.024,0-18.178-8.154-18.178-18.178v-44.284c0-10.023,8.154-18.178,18.178-18.178h69.408
		c10.024,0,18.178,8.154,18.178,18.178v44.284C168.7,293.643,160.546,301.797,150.522,301.797z M81.114,237.822
		c-0.835,0-1.514,0.679-1.514,1.514v44.284c0,0.835,0.679,1.514,1.514,1.514h69.408c0.834,0,1.514-0.679,1.514-1.514v-44.284
		c0-0.835-0.68-1.514-1.514-1.514H81.114z"/>
	<path d="M125.814,265.762h-19.991c-4.602,0-8.332-3.731-8.332-8.332c0-4.601,3.731-8.332,8.332-8.332h19.991
		c4.602,0,8.332,3.731,8.332,8.332C134.146,262.031,130.415,265.762,125.814,265.762z"/>
</g>
<g>
	<path style="fill:#E8E8E8;" d="M209.626,282.981c-4.602,0-8.332-3.731-8.332-8.332v-48.881c0-4.602,3.731-8.332,8.332-8.332
		s8.332,3.731,8.332,8.332v48.881C217.958,279.251,214.228,282.981,209.626,282.981z"/>
	<path style="fill:#E8E8E8;" d="M241.988,258.541c-4.602,0-8.332-3.731-8.332-8.332v-24.441c0-4.602,3.731-8.332,8.332-8.332
		s8.332,3.731,8.332,8.332v24.441C250.32,254.81,246.589,258.541,241.988,258.541z"/>
</g>
<path style="fill:#C3C6C8;" d="M322.35,423.423H195.326c-9.203,0-16.664-7.461-16.664-16.664c0-9.203,7.461-16.664,16.664-16.664
	H322.35c9.203,0,16.664,7.461,16.664,16.664C339.014,415.963,331.553,423.423,322.35,423.423z"/>
<path style="fill:#7D868C;" d="M195.326,423.423H68.303c-9.203,0-16.664-7.461-16.664-16.664c0-9.203,7.461-16.664,16.664-16.664
	h127.023c9.203,0,16.664,7.461,16.664,16.664C211.99,415.963,204.529,423.423,195.326,423.423z"/>
<g>
</g>
<g>
</g>
<g>
</g>
<g>
</g>
<g>
</g>
<g>
</g>
<g>
</g>
<g>
</g>
<g>
</g>
<g>
</g>
<g>
</g>
<g>
</g>
<g>
</g>
<g>
</g>
<g>
</g>
</svg>
