<?xml version="1.0" encoding="iso-8859-1"?>
<!-- Generator: Adobe Illustrator 19.0.0, SVG Export Plug-In . SVG Version: 6.00 Build 0)  -->
<svg version="1.1" id="Layer_1" xmlns="http://www.w3.org/2000/svg" xmlns:xlink="http://www.w3.org/1999/xlink" x="0px" y="0px"
	 viewBox="0 0 512 512" style="enable-background:new 0 0 512 512;" xml:space="preserve">
<g>
	<g>
		<g>
			<path d="M170.667,362.667c-11.776,0-21.333,9.557-21.333,21.333s9.557,21.333,21.333,21.333S192,395.776,192,384
				S182.443,362.667,170.667,362.667z"/>
			<path d="M352,384c-5.888,0-10.667,4.779-10.667,10.667s4.779,10.667,10.667,10.667c5.888,0,10.667-4.779,10.667-10.667
				S357.888,384,352,384z"/>
			<path d="M491.093,384.022C503.893,364.907,512,334.55,512,298.667C512,237.846,489.067,192,458.667,192h-7.68l18.027-72.085
				c0.213-0.853,0.32-1.707,0.32-2.581V74.667c0-17.643-14.357-32-32-32h-42.667c-17.643,0-32,14.357-32,32v42.667
				c0,0.875,0.107,1.749,0.32,2.581L381.013,192h-39.68v-32c0-17.643-14.357-32-32-32c-17.643,0-32,14.357-32,32v32h-42.667v-85.333
				h10.667c5.888,0,10.667-4.779,10.667-10.667V74.667c0-17.643-14.357-32-32-32H53.333c-17.643,0-32,14.357-32,32V96
				c0,5.888,4.779,10.667,10.667,10.667h10.667v192H21.333V288c0-5.888-4.779-10.667-10.667-10.667S0,282.112,0,288v85.333
				C0,379.222,4.779,384,10.667,384s10.667-4.779,10.667-10.667v-10.667h22.421c4.395,21.504,21.909,38.187,44.352,41.792
				c9.216,37.141,42.603,64.875,82.56,64.875c39.637,0,72.768-27.307,82.304-64h25.451c5.227,36.096,36.075,64,73.579,64
				c31.531,0,58.411-19.712,69.355-47.424l4.779,7.168c16.789,25.195,44.907,40.256,75.2,40.256c3.349,0,6.507-1.579,8.512-4.245
				c2.005-2.667,2.667-6.144,1.749-9.344L491.093,384.022z M85.333,224v-85.333C85.333,132.779,90.112,128,96,128h85.333
				c5.888,0,10.667,4.779,10.667,10.667V224c0,5.888-4.779,10.667-10.667,10.667H96C90.112,234.667,85.333,229.888,85.333,224z
				 M233.856,392.043c-0.064,0.405-0.085,0.704-0.149,1.131c-0.021,0.085,0.021,0.171,0.021,0.235
				C229.12,424.214,202.731,448,170.667,448c-31.211,0-57.173-22.485-62.784-52.075c0.064-0.427,0.299-0.811,0.299-1.259
				c0-1.301-0.363-2.496-0.789-3.648c-0.277-2.325-0.725-4.608-0.725-7.019c0-35.285,28.715-64,64-64s64,28.715,64,64
				C234.667,386.752,234.197,389.376,233.856,392.043z M352,448c-29.397,0-53.333-23.936-53.333-53.333s23.936-53.333,53.333-53.333
				s53.333,23.936,53.333,53.333S381.397,448,352,448z"/>
		</g>
	</g>
</g>
<g>
</g>
<g>
</g>
<g>
</g>
<g>
</g>
<g>
</g>
<g>
</g>
<g>
</g>
<g>
</g>
<g>
</g>
<g>
</g>
<g>
</g>
<g>
</g>
<g>
</g>
<g>
</g>
<g>
</g>
</svg>
