<?xml version="1.0" encoding="iso-8859-1"?>
<!-- Generator: Adobe Illustrator 19.0.0, SVG Export Plug-In . SVG Version: 6.00 Build 0)  -->
<svg version="1.1" id="Layer_1" xmlns="http://www.w3.org/2000/svg" xmlns:xlink="http://www.w3.org/1999/xlink" x="0px" y="0px"
	 viewBox="0 0 512 512" style="enable-background:new 0 0 512 512;" xml:space="preserve">
<g>
	<g>
		<path d="M503.467,452.281h-102.4H307.2h-93.867h-93.867H8.533c-4.719,0-8.533,3.823-8.533,8.533s3.814,8.533,8.533,8.533h494.933
			c4.719,0,8.533-3.823,8.533-8.533S508.186,452.281,503.467,452.281z"/>
	</g>
</g>
<g>
	<g>
		<path d="M477.867,375.481H179.2c-4.71,0-8.533-3.823-8.533-8.533V256.015c0-4.71-3.823-8.533-8.533-8.533h-102.4
			c-4.71,0-8.533,3.823-8.533,8.533v25.6c0,3.917,2.662,7.33,6.46,8.277l27.674,6.921v78.669H42.667
			c-4.71,0-8.533,3.823-8.533,8.533v25.6c0,4.71,3.823,8.533,8.533,8.533h42.667c0,18.825,15.309,34.133,34.133,34.133
			s34.133-15.309,34.133-34.133h25.6c0,18.825,15.309,34.133,34.133,34.133c18.825,0,34.133-15.309,34.133-34.133h25.6
			c0,18.825,15.309,34.133,34.133,34.133s34.133-15.309,34.133-34.133h25.6c0,18.825,15.309,34.133,34.133,34.133
			c18.825,0,34.133-15.309,34.133-34.133h42.667c4.71,0,8.533-3.823,8.533-8.533v-25.6
			C486.4,379.304,482.577,375.481,477.867,375.481z"/>
	</g>
</g>
<g>
	<g>
		<path d="M452.267,273.081H409.6v-17.067c0-11.213-7.287-20.659-17.348-24.115c0.521-1.604,1.067-3.2,1.306-4.958
			c1.246-9.233-1.724-18.176-7.893-24.678c2.577-8.755,2.364-19.806-3.721-28.57c-2.953-4.25-9.242-10.487-21.257-11.767
			c1.382-13.739-3.959-27.042-15.155-36.531c-13.747-11.639-32.469-14.959-49.323-9.455c-1.579-3.814-3.891-6.929-6.938-9.301
			c-3.678-2.867-8.124-4.514-13.449-4.966c2.031-13.252-0.845-26.3-8.422-37.086c-10.103-14.37-26.692-22.485-45.534-21.905
			c-20.233,0-40.388,10.957-50.159,27.264c-7.014,11.733-8.047,25.105-3.098,38.289c-20.369,16.998-22.502,39.799-14.959,55.936
			c7.689,16.469,26.991,29.705,53.88,25.139c3.507,6.997,10.146,13.431,18.662,17.69c11.776,5.888,25.105,6.844,37.658,2.97
			c1.28,7.996,5.299,13.756,9.199,17.621c15.172,15.044,43.776,16.853,65.843,12.177c5.632,4.42,13.107,7.33,20.864,8.422
			c-0.811,2.475-1.357,5.077-1.357,7.825v17.067h-44.544c-4.582-10.035-17.126-17.067-32.256-17.067
			c-15.13,0-27.674,7.031-32.256,17.067h-53.077c-4.71,0-8.533,3.823-8.533,8.533v76.8h264.533c14.592,0,25.6-18.338,25.6-42.667
			S466.859,273.081,452.267,273.081z"/>
	</g>
</g>
<g>
</g>
<g>
</g>
<g>
</g>
<g>
</g>
<g>
</g>
<g>
</g>
<g>
</g>
<g>
</g>
<g>
</g>
<g>
</g>
<g>
</g>
<g>
</g>
<g>
</g>
<g>
</g>
<g>
</g>
</svg>
