<?xml version="1.0" encoding="iso-8859-1"?>
<!-- Generator: Adobe Illustrator 19.0.0, SVG Export Plug-In . SVG Version: 6.00 Build 0)  -->
<svg version="1.1" id="Layer_1" xmlns="http://www.w3.org/2000/svg" xmlns:xlink="http://www.w3.org/1999/xlink" x="0px" y="0px"
	 viewBox="0 0 511.117 511.117" style="enable-background:new 0 0 511.117 511.117;" xml:space="preserve">
<path style="fill:#455970;" d="M410.041,406.069V486.4c0,0,0,0-0.883,0c-9.71,4.414-15.007,5.297-24.717,8.828
	c-23.834,8.828-46.786,15.007-71.503,15.89c-2.648,0-4.414,0-7.062,0c-5.297,0-15.007,0-15.89,0c-7.945,0-15.89-0.883-22.952-1.766
	c-12.359-1.766-24.717-4.414-37.076-8.828c-18.538-7.062-37.076-18.538-51.2-33.545c-10.593-11.476-20.303-24.717-22.952-40.607
	c-0.883-11.476-1.766-22.952-1.766-35.31c0-60.028,0-119.172,0-179.2h-52.966v-75.034c6.179-2.648,12.359-4.414,17.655-7.062
	c30.897-14.124,53.848-37.959,68.855-68.855c7.062-15.007,11.476-31.779,14.124-48.552c0.883-4.414,0.883-7.945,1.766-12.359h74.152
	v132.414h114.759v79.448H277.628c0,0,0,139.476,0,143.89c0,10.593,0.883,22.069,2.648,32.662
	c1.766,11.476,6.179,21.186,15.89,28.248c9.71,6.179,20.303,9.71,31.779,11.476c11.476,0.883,22.069,0,33.545-1.766
	C380.028,421.959,393.269,416.662,410.041,406.069"/>
<g>
</g>
<g>
</g>
<g>
</g>
<g>
</g>
<g>
</g>
<g>
</g>
<g>
</g>
<g>
</g>
<g>
</g>
<g>
</g>
<g>
</g>
<g>
</g>
<g>
</g>
<g>
</g>
<g>
</g>
</svg>
