<?xml version="1.0" encoding="UTF-8" standalone="no"?>
<!-- Created with Inkscape (http://www.inkscape.org/) -->

<svg
   xmlns:dc="http://purl.org/dc/elements/1.1/"
   xmlns:cc="http://creativecommons.org/ns#"
   xmlns:rdf="http://www.w3.org/1999/02/22-rdf-syntax-ns#"
   xmlns:svg="http://www.w3.org/2000/svg"
   xmlns="http://www.w3.org/2000/svg"
   xmlns:sodipodi="http://sodipodi.sourceforge.net/DTD/sodipodi-0.dtd"
   xmlns:inkscape="http://www.inkscape.org/namespaces/inkscape"
   id="svg2"
   sodipodi:docname="microscope-parts.svg"
   xml:space="preserve"
   viewBox="0 0 287.2 281.65"
   version="1.1"
   inkscape:version="0.48.3.1 r9886"
   width="100%"
   height="100%">
  <defs
   id="defs6">
    <clipPath
   id="clipPath274"
   clipPathUnits="userSpaceOnUse">
      <path
   id="path276"
   d="m198 566.78s0.161 1.931-1.448 2.574c-2.309 0.924-3.012 1.771-3.012 6.346v28.394s-0.161 2.368-2.851 2.368h-9.518s-2.851 0-2.69-2.69 0-28.716 0-28.716 0.733-4.974-2.092-5.863c-2.047-0.643-1.403-1.402-1.564-2.85-0.161-1.449 23.175 0.437 23.175 0.437" />
    </clipPath>
    <clipPath
   id="clipPath300"
   clipPathUnits="userSpaceOnUse">
      <path
   id="path302"
   d="m180.48 510.48 0.006 1.931h13.651l0.006-1.932-1.777-3.172h-10.276l-1.61 3.173" />
    </clipPath>
    <clipPath
   id="clipPath322"
   clipPathUnits="userSpaceOnUse">
      <path
   id="path324"
   d="m204.09 514.37-1.236 1.483 10.457 8.775 1.246-1.476 0.678-3.572-7.872-6.606-3.273 1.396" />
    </clipPath>
    <clipPath
   id="clipPath396"
   clipPathUnits="userSpaceOnUse">
      <path
   id="path398"
   d="m160.98 466.54-1.689-1.237h-4.657v-1.936h4.41l1.983-1.601-0.047 4.774" />
    </clipPath>
    <clipPath
   id="clipPath410"
   clipPathUnits="userSpaceOnUse">
      <path
   id="path412"
   d="m160.98 444.24-1.689-1.237h-4.657v-1.936h4.41l1.983-1.602-0.047 4.775" />
    </clipPath>
    <clipPath
   id="clipPath432"
   clipPathUnits="userSpaceOnUse">
      <path
   id="path434"
   d="m190.1 460.64h11.843v-4.556h-11.843v4.556z" />
    </clipPath>
    <clipPath
   id="clipPath448"
   clipPathUnits="userSpaceOnUse">
      <path
   id="path450"
   d="m168.03 465.51h11.843v-4.555h-11.843v4.555z" />
    </clipPath>
  </defs>
  <sodipodi:namedview
   id="namedview4"
   bordercolor="#666666"
   inkscape:pageshadow="2"
   guidetolerance="10"
   pagecolor="#ffffff"
   gridtolerance="10"
   inkscape:window-maximized="1"
   inkscape:zoom="1.98"
   objecttolerance="10"
   borderopacity="1"
   inkscape:current-layer="g12"
   inkscape:cx="190.95926"
   inkscape:cy="103.0913"
   inkscape:window-y="24"
   inkscape:window-x="0"
   inkscape:window-width="1366"
   showgrid="false"
   inkscape:pageopacity="0"
   inkscape:window-height="744" />
  <g
   id="g12"
   inkscape:label="58294main_The.Brain.in.Space"
   inkscape:groupmode="layer"
   transform="matrix(1.25,0,0,-1.25,-90,779.25)"><path
   id="path256"
   style="stroke:#231f20;stroke-miterlimit:3.864;stroke-width:0.947;fill:#ffffff"
   d="m184.35 607.66h3.233c1.57 0 2.842-0.558 2.842-1.246s-1.272-1.246-2.842-1.246h-3.233c-1.57 0-2.843 0.558-2.843 1.246s1.273 1.246 2.843 1.246z" /><path
   id="path258"
   style="fill-rule:evenodd;stroke:#231f20;stroke-miterlimit:3.864;stroke-width:0.595;fill:#ffffff"
   d="m217.7 504.54 3.943 3.309c0.378 0.317 0.858 0.366 1.072 0.111s0.082-0.719-0.296-1.036l-3.943-3.308c-0.377-0.317-0.857-0.367-1.071-0.112-0.214 0.256-0.082 0.719 0.295 1.036z" /><path
   id="path260"
   style="stroke:#231f20;stroke-miterlimit:3.864;stroke-width:0.793;fill:#ffffff"
   d="m216.15 505.05 5.257 4.411c0.504 0.423 1.429 0.149 1.429 0.149 0.286-0.34 0.109-0.959-0.394-1.381l-5.257-4.412c-0.504-0.422-1.143-0.489-1.429-0.148-0.286 0.34-0.109 0.959 0.394 1.381z" /><path
   id="path262"
   style="stroke:#231f20;stroke-miterlimit:3.864;stroke-width:0.793;fill:none"
   d="m198.92 426.26-20.23 20.226c-0.309 0.309-0.812 0.309-1.121 0l-1.613-1.613c-0.309-0.309-0.309-0.812 0-1.121l20.229-20.226c0.31-0.31 0.812-0.31 1.122 0l1.613 1.612c0.309 0.31 0.309 0.812 0 1.122z" /><path
   id="path264"
   style="stroke:#231f20;stroke-miterlimit:3.864;stroke-width:0.793;fill:#ffffff"
   d="m146.27 436.86h23.612v-5.38h-23.612v5.38z" /><path
   id="path266"
   style="stroke:#231f20;stroke-miterlimit:3.864;stroke-width:0.793;fill:#ffffff"
   d="m169.88 436.86 19.198-0.793s1.51-1.055 1.448-2.024c-0.057-0.89-1.448-1.77-1.448-1.77l-19.198-0.793v5.38z" /><path
   id="path268"
   style="fill:#ffffff"
   d="m198 566.78s0.161 1.931-1.448 2.574c-2.309 0.924-3.012 1.771-3.012 6.346v28.394s-0.161 2.368-2.851 2.368h-9.518s-2.851 0-2.69-2.69 0-28.716 0-28.716 0.733-4.974-2.092-5.863c-2.047-0.643-1.403-1.402-1.564-2.85-0.161-1.449 23.175 0.437 23.175 0.437" /><g
   id="g270"><g
     id="g272"
     clip-path="url(#clipPath274)"><path
       id="path278"
       style="stroke:#231f20;stroke-linecap:round;stroke-miterlimit:3.864;stroke-width:0.793;fill:none"
       d="m177.51 604.1h16.507" /></g></g><path
   id="path280"
   style="stroke:#231f20;stroke-miterlimit:3.864;stroke-width:0.793;fill:none"
   d="m198 566.78s0.161 1.931-1.448 2.574c-2.309 0.924-3.012 1.771-3.012 6.346v28.394s-0.161 2.368-2.851 2.368h-9.518s-2.851 0-2.69-2.69 0-28.716 0-28.716 0.733-4.974-2.092-5.863c-2.047-0.643-1.403-1.402-1.564-2.85-0.161-1.449 23.175 0.437 23.175 0.437zm-55.311-150.02h-35.889l-2.184-1.731h-8.528v12.196l9.023 2.474s4.861 1.936 5.356 4.614 1.979 9.561 4.657 14.175m66.851 78.766h10.599v-8.392h-10.599v8.392z" /><path
   id="path282"
   style="stroke:#231f20;stroke-miterlimit:3.864;stroke-width:0.793;fill:#ffffff"
   d="m198.33 566.61h-54.229s-40.664-38.947-37.529-95.182c1.753-31.435 28.011-43.834 28.011-43.834s6.661-0.9 6.661-10.711h61.451l2.524-1.846h14.736v14.601h-56.817s-8.099-0.04-14.736 7.182c-6.638 7.222-4.301 43.583-4.301 43.583h-12.691s-8.723-0.877-5.802 8.933c2.922 9.811 6.971 32.604 21.958 32.604h50.764v44.67z" /><path
   id="path284"
   style="fill:#231f20"
   d="m158.96 568.88h14.898v-1.931h-14.898v1.931z" /><path
   id="path286"
   style="stroke:#231f20;stroke-miterlimit:3.864;stroke-width:0.793;fill:#ffffff"
   d="m180.76 516.82 0.161-2.046h0.965l0.322 0.805h10.202l0.323-0.805h0.965l0.161 2.046h-13.099z" /><path
   id="path288"
   style="stroke:#231f20;stroke-miterlimit:3.864;stroke-width:0.793;fill:#ffffff"
   d="m180.76 516.76 0.557 2.046h11.984l0.558-2.046h-13.099z" /><path
   id="path290"
   style="stroke:#231f20;stroke-miterlimit:3.864;stroke-width:0.793;fill:none"
   d="m177.51 566.62v-44.695m-1.586 44.695v-44.695" /><path
   id="path292"
   style="stroke:#231f20;stroke-miterlimit:3.864;stroke-width:0.793;fill:#231f20"
   d="m181.33 514.29h11.564v-1.885h-11.564v1.885z" /><path
   id="path294"
   style="fill:#ffffff"
   d="m180.48 510.48 0.006 1.931h13.651l0.006-1.932-1.777-3.172h-10.276l-1.61 3.173" /><g
   id="g296"><g
     id="g298"
     clip-path="url(#clipPath300)"><path
       id="path304"
       style="stroke:#231f20;stroke-miterlimit:3.864;stroke-width:0.793;fill:none"
       d="m194.04 510.48h-13.675" /></g></g><path
   id="path306"
   style="stroke:#231f20;stroke-miterlimit:3.864;stroke-width:0.793;fill:none"
   d="m180.48 510.48 0.006 1.931h13.651l0.006-1.932-1.777-3.172h-10.276l-1.61 3.173z" /><path
   id="path308"
   style="fill-rule:evenodd;stroke:#231f20;stroke-miterlimit:3.864;stroke-width:0.595;fill:#ffffff"
   d="m184.62 498h5.147c0.493 0 0.892-0.27 0.892-0.604 0-0.333-0.399-0.603-0.892-0.603h-5.147c-0.493 0-0.893 0.27-0.893 0.603 0 0.334 0.4 0.604 0.893 0.604z" /><path
   id="path310"
   style="fill-rule:evenodd;stroke:#231f20;stroke-miterlimit:3.864;stroke-width:0.793;fill:#ffffff"
   d="m183.76 499.39h6.863c0.657 0 1.189-0.805 1.189-0.805 0-0.444-0.532-0.805-1.189-0.805h-6.863c-0.657 0-1.19 0.361-1.19 0.805s0.533 0.805 1.19 0.805z" /><path
   id="path312"
   style="stroke:#231f20;stroke-miterlimit:3.864;stroke-width:0.793;fill:#ffffff"
   d="m181.97 507.3h10.277v-8.553h-10.277v8.553z" /><path
   id="path314"
   style="stroke:#231f20;stroke-miterlimit:3.864;stroke-width:0.793;fill:#231f20"
   d="m202.13 517.69 8.857 7.433 1.212-1.444-8.857-7.433-1.212 1.444z" /><path
   id="path316"
   style="fill:#ffffff"
   d="m204.09 514.37-1.236 1.483 10.457 8.775 1.246-1.476 0.678-3.572-7.872-6.606-3.273 1.396" /><g
   id="g318"><g
     id="g320"
     clip-path="url(#clipPath322)"><path
       id="path326"
       style="stroke:#231f20;stroke-miterlimit:3.864;stroke-width:0.793;fill:none"
       d="m214.48 523.09-10.476-8.79" /></g></g><path
   id="path328"
   style="stroke:#231f20;stroke-miterlimit:3.864;stroke-width:0.793;fill:none"
   d="m204.09 514.37-1.236 1.483 10.457 8.775 1.246-1.476 0.678-3.572-7.872-6.606-3.273 1.396z" /><path
   id="path330"
   style="stroke:#231f20;stroke-miterlimit:3.864;stroke-width:0.793;fill:#ffffff"
   d="m207.28 512.9 7.872 6.606 7.812-9.31-7.873-6.606-7.811 9.31z" /><path
   id="path332"
   style="stroke:#231f20;stroke-miterlimit:3.864;stroke-width:0.793;fill:none"
   d="m193.38 517.95 5.38 2.046s0.614-2.694 3.48-2.209m1.212-1.444-10.555-3.934" /><path
   id="path334"
   style="stroke:#231f20;stroke-miterlimit:3.864;stroke-width:.396;fill:#231f20"
   d="m195.94 513.67 3.368 1.225c0.618 0.225 1.218 0.132 1.342-0.207 0.123-0.339-0.277-0.796-0.895-1.021l-3.368-1.225c-0.617-0.225-1.218-0.132-1.341 0.207-0.124 0.339 0.277 0.796 0.894 1.021z" /><path
   id="path336"
   style="stroke:#231f20;stroke-miterlimit:3.864;stroke-width:.396;fill:#231f20"
   d="m193.7 521.93 1.448-3.334 2.207 0.759-0.965 2.575h-2.69z" /><path
   id="path338"
   style="stroke:#231f20;stroke-miterlimit:3.864;stroke-width:.396;fill:#231f20"
   d="m198.16 519.67 1.724-4.736-3.977-1.61-1.886 4.461 4.139 1.885z" /><path
   id="path340"
   style="stroke:#231f20;stroke-miterlimit:3.864;stroke-width:0.793;fill:none"
   d="m179.56 521.93s0.046-0.805-0.758-0.966c-0.805-0.16-2.414-0.16-2.414-0.16l0.643-7.794 3.978-0.598m17.473 13.289 12.967 5.104 2.414-3.656-1.449-2.851" /><path
   id="path342"
   style="stroke-linejoin:bevel;stroke:#231f20;stroke-linecap:square;stroke-miterlimit:3.864;stroke-width:0.793;fill:none"
   d="m210.2 524.78c0.483 1.563 0 2.851 0 2.851l-4.943-4.782-5.702-3.817" /><path
   id="path344"
   style="stroke:#231f20;stroke-miterlimit:3.864;stroke-width:0.793;fill:none"
   d="m196.39 521.6h4.621s6.184 3.334 8.392 8.231" /><path
   id="path346"
   style="stroke-linejoin:bevel;stroke:#231f20;stroke-linecap:square;stroke-miterlimit:3.864;stroke-width:0.793;fill:#ffffff"
   d="m133.9 489.07h84.699l-0.247-2.552c0-4.381-3.551-7.932-7.932-7.932h-68.674c-4.381 0-7.932 3.551-7.932 7.932l0.086 2.552z" /><path
   id="path348"
   style="stroke-linejoin:bevel;stroke:#231f20;stroke-linecap:square;stroke-miterlimit:3.864;stroke-width:0.793;fill:none"
   d="m166.11 495.56c0 2.095 1.699 3.793 3.794 3.793s3.794-1.698 3.794-3.793c0-2.096-1.699-3.794-3.794-3.794s-3.794 1.698-3.794 3.794z" /><path
   id="path350"
   style="stroke-linejoin:bevel;stroke:#231f20;stroke-linecap:square;stroke-miterlimit:3.864;stroke-width:0.793;fill:#ffffff"
   d="m169.88 497.63h8.598v-19.037h-8.598v19.037z" /><path
   id="path352"
   style="fill:#231f20"
   d="m172.34 485.87c-0.526 0.526-0.526 1.377 0 1.902 0.525 0.526 1.377 0.526 1.902 0 0.525-0.525 0.525-1.376 0-1.902-0.525-0.525-1.377-0.525-1.902 0" /><path
   id="path354"
   style="stroke:#ffffff;stroke-miterlimit:3.864;stroke-width:.396;fill:none"
   d="m174.97 488.41-3.381-3.381" /><path
   id="path356"
   style="fill:#231f20"
   d="m172.07 481.58c-0.254 0.698 0.106 1.47 0.803 1.724 0.698 0.254 1.47-0.106 1.724-0.804s-0.105-1.469-0.804-1.723c-0.698-0.255-1.469 0.105-1.723 0.803" /><path
   id="path358"
   style="stroke:#ffffff;stroke-miterlimit:3.864;stroke-width:.396;fill:none"
   d="m175.52 482.78-4.493-1.636" /><path
   id="path360"
   style="stroke:#231f20;stroke-miterlimit:3.864;stroke-width:0.793;fill:#ffffff"
   d="m180.52 492.08h33.337v-1.448h-33.337v1.448z" /><path
   id="path362"
   style="stroke:#231f20;stroke-miterlimit:3.864;stroke-width:0.793;fill:#ffffff"
   d="m178.48 497.63h2.368v-6.989h-2.368v6.989z" /><path
   id="path364"
   style="stroke:#231f20;stroke-miterlimit:3.864;stroke-width:0.515;fill:#ffffff"
   d="m211.93 485.23c0 1.142 0.926 2.069 2.069 2.069 1.142 0 2.069-0.927 2.069-2.069 0-1.143-0.927-2.069-2.069-2.069-1.143 0-2.069 0.926-2.069 2.069z" /><path
   id="path366"
   style="stroke:#231f20;stroke-miterlimit:3.864;stroke-width:0.515;fill:#ffffff"
   d="m135.78 485.23c0 1.142 0.926 2.069 2.069 2.069 1.142 0 2.069-0.927 2.069-2.069 0-1.143-0.927-2.069-2.069-2.069-1.143 0-2.069 0.926-2.069 2.069z" /><path
   id="path368"
   style="stroke:#231f20;stroke-miterlimit:3.864;stroke-width:.396;fill:none"
   d="m187.47 434.13c0 0.419 0.339 0.759 0.758 0.759s0.759-0.34 0.759-0.759-0.34-0.759-0.759-0.759-0.758 0.34-0.758 0.759z" /><path
   id="path370"
   style="stroke:#231f20;stroke-miterlimit:3.864;stroke-width:0.793;fill:none"
   d="m179.32 476.06h14.917v-1.732h-14.917v1.732z" /><path
   id="path372"
   style="stroke:#231f20;stroke-miterlimit:3.864;stroke-width:0.793;fill:#ffffff"
   d="m178.13 474.82h16.806v-2.081h-16.806v2.081z" /><path
   id="path374"
   style="stroke:#231f20;stroke-miterlimit:3.864;stroke-width:0.793;fill:#ffffff"
   d="m176.35 472.84h18.337v-1.889h-18.337v1.889z" /><path
   id="path376"
   style="stroke:#231f20;stroke-miterlimit:3.864;stroke-width:0.793;fill:#ffffff"
   d="m176.35 471.2h27.361v-1.834h-27.361v1.834z" /><path
   id="path378"
   style="stroke:#231f20;stroke-miterlimit:3.864;stroke-width:0.793;fill:#ffffff"
   d="m163.62 469.4h41.1v-3.145h-41.1v3.145z" /><path
   id="path380"
   style="stroke:#231f20;stroke-miterlimit:3.864;stroke-width:0.793;fill:none"
   d="m158.52 472.7h-1.383v5.89h4.556s-1.88-1.269-2.608-2.906c-0.377-0.848-0.565-2.984-0.565-2.984z" /><path
   id="path382"
   style="stroke:#231f20;stroke-miterlimit:3.864;stroke-width:0.793;fill:#ffffff"
   d="m169.88 478.59h36.848v-2.812h-36.848v2.812z" /><path
   id="path384"
   style="stroke:#231f20;stroke-miterlimit:3.864;stroke-width:0.515;fill:none"
   d="m163.01 457.82c0 1.101 0.893 1.995 1.995 1.995s1.995-0.894 1.995-1.995c0-1.102-0.893-1.995-1.995-1.995s-1.995 0.893-1.995 1.995z" /><path
   id="path386"
   style="stroke:#231f20;stroke-miterlimit:3.864;stroke-width:0.793;fill:none"
   d="m158.27 457.82c0 3.718 3.015 6.733 6.733 6.733 3.719 0 6.734-3.015 6.734-6.733 0-3.719-3.015-6.734-6.734-6.734-3.718 0-6.733 3.015-6.733 6.734z" /><path
   id="path388"
   style="stroke:#231f20;stroke-miterlimit:3.864;stroke-width:0.793;fill:#ffffff"
   d="m158.04 472.6h5.057v-35.654h-5.057v35.654z" /><path
   id="path390"
   style="fill:#ffffff"
   d="m160.98 466.54-1.689-1.237h-4.657v-1.936h4.41l1.983-1.601-0.047 4.774" /><g
   id="g392"><g
     id="g394"
     clip-path="url(#clipPath396)"><path
       id="path400"
       style="fill:#231f20"
       d="m153.21 466.64h5.121v-4.774h-5.121v4.774z" /></g></g><path
   id="path402"
   style="stroke:#231f20;stroke-miterlimit:3.864;stroke-width:0.793;fill:none"
   d="m160.98 466.54-1.689-1.237h-4.657v-1.936h4.41l1.983-1.601-0.047 4.774z" /><path
   id="path404"
   style="fill:#ffffff"
   d="m160.98 444.24-1.689-1.237h-4.657v-1.936h4.41l1.983-1.602-0.047 4.775" /><g
   id="g406"><g
     id="g408"
     clip-path="url(#clipPath410)"><path
       id="path414"
       style="fill:#231f20"
       d="m153.21 444.33h5.121v-4.774h-5.121v4.774z" /></g></g><path
   id="path416"
   style="stroke:#231f20;stroke-miterlimit:3.864;stroke-width:0.793;fill:none"
   d="m160.98 444.24-1.689-1.237h-4.657v-1.936h4.41l1.983-1.602-0.047 4.775z" /><path
   id="path418"
   style="stroke:#231f20;stroke-miterlimit:3.864;stroke-width:.396;fill:none"
   d="m161.33 472.7v-35.842" /><path
   id="path420"
   style="stroke:#231f20;stroke-miterlimit:3.864;stroke-width:0.793;fill:#ffffff"
   d="m175.32 461.86h20.136v-2.89h-20.136v2.89z" /><path
   id="path422"
   style="stroke:#231f20;stroke-miterlimit:3.864;stroke-width:0.793;fill:#ffffff"
   d="m178.02 464.22h24.911v-2.89h-24.911v2.89z" /><path
   id="path424"
   style="stroke:#231f20;stroke-miterlimit:3.864;stroke-width:0.793;fill:#ffffff"
   d="m193.51 475.78h4.794v-15.864h-4.794v15.864z" /><path
   id="path426"
   style="fill:#231f20"
   d="m190.1 460.64h11.843v-4.556h-11.843v4.556z" /><g
   id="g428"><g
     id="g430"
     clip-path="url(#clipPath432)"><path
       id="path436"
       style="stroke:#ffffff;stroke-miterlimit:3.864;stroke-width:.278;fill:none"
       d="m190.76 461.48v-6.44m0.793 6.44v-6.44m0.793 6.44v-6.44m0.793 6.44v-6.44m0.793 6.44v-6.44m0.794 6.44v-6.44m0.793 6.44v-6.44m0.793 6.44v-6.44m0.793 6.44v-6.44m0.793 6.44v-6.44m0.793 6.44v-6.44m0.794 6.44v-6.44m0.793 6.44v-6.44m0.793 6.44v-6.44m-9.518 6.44v-6.44" /></g></g><path
   id="path438"
   style="stroke:#231f20;stroke-miterlimit:3.864;stroke-width:.198;fill:none"
   d="m190.1 460.64h11.843v-4.556h-11.843v4.556z" /><path
   id="path440"
   style="stroke:#231f20;stroke-miterlimit:3.864;stroke-width:0.793;fill:#ffffff"
   d="m171.58 475.78h4.65v-10.995h-4.65v10.995z" /><path
   id="path442"
   style="fill:#231f20"
   d="m168.03 465.51h11.843v-4.555h-11.843v4.555z" /><g
   id="g444"><g
     id="g446"
     clip-path="url(#clipPath448)"><path
       id="path452"
       style="stroke:#ffffff;stroke-miterlimit:3.864;stroke-width:.278;fill:none"
       d="m168.69 466.35v-6.44m0.793 6.44v-6.44m0.793 6.44v-6.44m0.793 6.44v-6.44m0.793 6.44v-6.44m0.794 6.44v-6.44m0.793 6.44v-6.44m0.793 6.44v-6.44m0.793 6.44v-6.44m0.793 6.44v-6.44m0.794 6.44v-6.44m0.793 6.44v-6.44m0.793 6.44v-6.44m0.793 6.44v-6.44m-9.518 6.44v-6.44" /></g></g><path
   id="path454"
   style="stroke:#231f20;stroke-miterlimit:3.864;stroke-width:.198;fill:none"
   d="m168.03 465.51h11.843v-4.555h-11.843v4.555z" /><path
   id="path460"
   style="stroke:#231f20;stroke-miterlimit:3.864;stroke-width:.396;fill:#231f20"
   d="m123 453.55c0 4.692 3.804 8.496 8.496 8.496s8.496-3.804 8.496-8.496-3.804-8.496-8.496-8.496-8.496 3.804-8.496 8.496z" /><path
   id="path462"
   style="stroke:#ffffff;stroke-miterlimit:3.864;stroke-width:0.623;fill:#231f20"
   d="m124.28 453.55c0 3.988 3.233 7.221 7.222 7.221 3.988 0 7.221-3.233 7.221-7.221s-3.233-7.222-7.221-7.222c-3.989 0-7.222 3.234-7.222 7.222z" />
<path
   id="path494"
   style="fill:#ffffff"
   d="m104.83 486.59h3.28v-17.722h-3.28v17.722z" />
<path
   id="path506"
   style="fill:none;stroke:#231f20;stroke-width:0.47400001;stroke-miterlimit:3.86400008"
   d="m 227.53,578.97 -27.753,-15.14 m 27.753,-10.52 -14.386,-22.737 m 3.224,-21.249 11.162,10.803 -39.687,-16.949 m -5.788,-9.371 45.475,3.941 m 0,-22.379 -9.37,6.504 m 9.37,-50.905 -38.254,8.296 m -94.175,3.28 22.021,-16.95 m -3.638,43.27 10.501,-8.654 m -22.738,77.225 19.1,0 m 56.334,68.571 -71.134,0"
   inkscape:connector-curvature="0"
   sodipodi:nodetypes="ccccccccccccccccccccc" /><path
   id="path522"
   style="stroke:#000000;stroke-miterlimit:10;stroke-width:.5;fill:none"
   d="m72.25 623.15h229.26v-224.82h-229.26v224.82z" /><text
   xml:space="preserve"
   style="font-size:9.44000053px;font-style:normal;font-weight:normal;line-height:0%;letter-spacing:0px;word-spacing:0px;fill:#000000;fill-opacity:1;stroke:none;font-family:Sans"
   x="77.252518"
   y="-486.96887"
   id="text3161"
   sodipodi:linespacing="0%"
   transform="scale(1,-1)"><tspan
     sodipodi:role="line"
     id="tspan3163"
     x="77.252518"
     y="-486.96887"
     style="letter-spacing:-0.63999999px">Fine</tspan></text>
<text
   xml:space="preserve"
   style="font-size:9.44000053px;font-style:normal;font-weight:normal;line-height:0%;letter-spacing:0px;word-spacing:0px;fill:#000000;fill-opacity:1;stroke:none;font-family:Sans"
   x="77.252518"
   y="-478.48404"
   id="text3165"
   sodipodi:linespacing="0%"
   transform="scale(1,-1)"><tspan
     sodipodi:role="line"
     id="tspan3167"
     x="77.252518"
     y="-478.48404"
     style="letter-spacing:-0.63999999px">Focusing</tspan></text>
<text
   xml:space="preserve"
   style="font-size:9.44000053px;font-style:normal;font-weight:normal;line-height:0%;letter-spacing:0px;word-spacing:0px;fill:#000000;fill-opacity:1;stroke:none;font-family:Sans"
   x="76.848473"
   y="-469.59515"
   id="text3169"
   sodipodi:linespacing="0%"
   transform="scale(1,-1)"><tspan
     sodipodi:role="line"
     id="tspan3171"
     x="76.848473"
     y="-469.59515"
     style="letter-spacing:-0.64000005px">Mechanism</tspan></text>
<text
   xml:space="preserve"
   style="font-size:11.80000019px;font-style:normal;font-weight:normal;line-height:0%;letter-spacing:0px;word-spacing:0px;fill:#000000;fill-opacity:1;stroke:none;font-family:Sans"
   x="8.5858583"
   y="222.05405"
   id="text3173"
   sodipodi:linespacing="0%"
   transform="matrix(0.80000002,0,0,-0.80000002,71.999993,623.4)"><tspan
     sodipodi:role="line"
     id="tspan3175"
     x="8.5858583"
     y="222.05405"
     style="letter-spacing:-0.8px">Base</tspan></text>
<text
   xml:space="preserve"
   style="font-size:9.44000053px;font-style:normal;font-weight:normal;line-height:0%;letter-spacing:0px;word-spacing:0px;fill:#000000;fill-opacity:1;stroke:none;font-family:Sans"
   x="229.17171"
   y="-457.55472"
   id="text3196"
   sodipodi:linespacing="0%"
   transform="scale(1,-1)"><tspan
     sodipodi:role="line"
     id="tspan3198"
     x="229.17171"
     y="-457.55472"
     style="letter-spacing:-0.63999999px">Condenser</tspan></text>
<path
   style="fill:none;stroke:#000000;stroke-width:0.5;stroke-linecap:butt;stroke-linejoin:miter;stroke-opacity:1;opacity:1;stroke-miterlimit:4;stroke-dasharray:none"
   d="m 194.94949,201.34697 -26.26262,-6.56566"
   id="path3200"
   inkscape:connector-curvature="0"
   transform="matrix(0.80000002,0,0,-0.80000002,71.999993,623.4)" /><text
   xml:space="preserve"
   style="font-size:9.44000053px;font-style:normal;font-weight:normal;line-height:0%;letter-spacing:0px;word-spacing:0px;fill:#000000;fill-opacity:1;stroke:none;font-family:Sans"
   x="80.48484"
   y="-604.94867"
   id="text3970"
   sodipodi:linespacing="0%"
   transform="scale(1,-1)"><tspan
     sodipodi:role="line"
     id="tspan3972"
     x="80.48484"
     y="-604.94867">Lens</tspan></text>
<text
   xml:space="preserve"
   style="font-size:9.44000053px;font-style:normal;font-weight:normal;line-height:0%;letter-spacing:0px;word-spacing:0px;fill:#000000;fill-opacity:1;stroke:none;font-family:Sans"
   x="79.27272"
   y="-535.45374"
   id="text3974"
   sodipodi:linespacing="0%"
   transform="scale(1,-1)"><tspan
     sodipodi:role="line"
     id="tspan3976"
     x="79.27272"
     y="-535.45374">Arm</tspan></text>
<text
   xml:space="preserve"
   style="font-size:9.44000053px;font-style:normal;font-weight:normal;line-height:0%;letter-spacing:0px;word-spacing:0px;fill:#000000;fill-opacity:1;stroke:none;font-family:Sans"
   x="228.36363"
   y="-428.38303"
   id="text3978"
   sodipodi:linespacing="0%"
   transform="scale(1,-1)"><tspan
     sodipodi:role="line"
     id="tspan3980"
     x="228.36363"
     y="-428.38303">Mirror/Light</tspan></text>
<text
   xml:space="preserve"
   style="font-size:9.44000053px;font-style:normal;font-weight:normal;line-height:0%;letter-spacing:0px;word-spacing:0px;fill:#000000;fill-opacity:1;stroke:none;font-family:Sans"
   x="228.76767"
   y="-472.01938"
   id="text3982"
   sodipodi:linespacing="0%"
   transform="scale(1,-1)"><tspan
     sodipodi:role="line"
     id="tspan3984"
     x="228.76767"
     y="-472.01938">Stage</tspan></text>
<text
   xml:space="preserve"
   style="font-size:9.44000053px;font-style:normal;font-weight:normal;line-height:0%;letter-spacing:0px;word-spacing:0px;fill:#000000;fill-opacity:1;stroke:none;font-family:Sans"
   x="229.17171"
   y="-497.47394"
   id="text3986"
   sodipodi:linespacing="0%"
   transform="scale(1,-1)"><tspan
     sodipodi:role="line"
     id="tspan3988"
     x="229.17171"
     y="-497.47394">Mechanical</tspan></text>
<text
   xml:space="preserve"
   style="font-size:9.44000053px;font-style:normal;font-weight:normal;line-height:0%;letter-spacing:0px;word-spacing:0px;fill:#000000;fill-opacity:1;stroke:none;font-family:Sans"
   x="228.76767"
   y="-488.58505"
   id="text3990"
   sodipodi:linespacing="0%"
   transform="scale(1,-1)"><tspan
     sodipodi:role="line"
     id="tspan3992"
     x="228.76767"
     y="-488.58505">Stage</tspan></text>
<text
   xml:space="preserve"
   style="font-size:11.80000019px;font-style:normal;font-weight:normal;line-height:0%;letter-spacing:0px;word-spacing:0px;fill:#000000;fill-opacity:1;stroke:none;font-family:Sans"
   x="198.9899"
   y="132.15504"
   id="text3994"
   sodipodi:linespacing="0%"
   transform="matrix(0.80000002,0,0,-0.80000002,71.999993,623.4)"><tspan
     sodipodi:role="line"
     id="tspan3996"
     x="198.9899"
     y="132.15504">Objectives</tspan></text>
<text
   xml:space="preserve"
   style="font-size:11.80000019px;font-style:normal;font-weight:normal;line-height:0%;letter-spacing:0px;word-spacing:0px;fill:#000000;fill-opacity:1;stroke:none;font-family:Sans"
   x="198.9899"
   y="54.377274"
   id="text3998"
   sodipodi:linespacing="0%"
   transform="matrix(0.80000002,0,0,-0.80000002,71.999993,623.4)"><tspan
     sodipodi:role="line"
     id="tspan4000"
     x="198.9899"
     y="54.377274">Body Tube</tspan></text>
<text
   xml:space="preserve"
   style="font-size:9.44000053px;font-style:normal;font-weight:normal;line-height:0%;letter-spacing:0px;word-spacing:0px;fill:#000000;fill-opacity:1;stroke:none;font-family:Sans"
   x="230.38383"
   y="-554.4436"
   id="text4002"
   sodipodi:linespacing="0%"
   transform="scale(1,-1)"><tspan
     sodipodi:role="line"
     id="tspan4004"
     x="230.38383"
     y="-554.4436">Revolving</tspan></text>
<text
   xml:space="preserve"
   style="font-size:9.44000053px;font-style:normal;font-weight:normal;line-height:0%;letter-spacing:0px;word-spacing:0px;fill:#000000;fill-opacity:1;stroke:none;font-family:Sans"
   x="230.39999"
   y="-545.57092"
   id="text4006"
   sodipodi:linespacing="0%"
   transform="scale(1,-1)"><tspan
     sodipodi:role="line"
     id="tspan4008"
     x="230.39999"
     y="-545.57092">Nosepiece</tspan></text>
</g>
<metadata
   id="metadata133"><rdf:RDF><cc:Work><dc:format>image/svg+xml</dc:format><dc:type
         rdf:resource="http://purl.org/dc/dcmitype/StillImage" /><cc:license
         rdf:resource="http://creativecommons.org/licenses/publicdomain/" /><dc:publisher><cc:Agent
           rdf:about="http://openclipart.org/"><dc:title>Openclipart</dc:title></cc:Agent></dc:publisher><dc:title></dc:title><dc:date>2010-04-06T07:38:21</dc:date><dc:description>This is clipart converted and broken apart that has been released into the public domain because the document says so, and its from NASA, a USA government agency. The publication is called &quot;The Brain in Space:&quot;
\n
\nhttp://www.nasa.gov/audience/foreducators/topnav/materials/listbytype/The.Brain.in.Space.html</dc:description><dc:source>https://openclipart.org/detail/38227/-by-rejon-38227</dc:source><dc:creator><cc:Agent><dc:title>rejon</dc:title></cc:Agent></dc:creator><dc:subject><rdf:Bag><rdf:li>astronomy</rdf:li><rdf:li>brain</rdf:li><rdf:li>converted</rdf:li><rdf:li>government</rdf:li><rdf:li>nasa</rdf:li><rdf:li>science</rdf:li><rdf:li>space</rdf:li><rdf:li>usa</rdf:li></rdf:Bag></dc:subject></cc:Work><cc:License
       rdf:about="http://creativecommons.org/licenses/publicdomain/"><cc:permits
         rdf:resource="http://creativecommons.org/ns#Reproduction" /><cc:permits
         rdf:resource="http://creativecommons.org/ns#Distribution" /><cc:permits
         rdf:resource="http://creativecommons.org/ns#DerivativeWorks" /></cc:License></rdf:RDF></metadata></svg>