<?xml version="1.0" encoding="UTF-8" standalone="no"?><svg xmlns="http://www.w3.org/2000/svg" xmlns:xlink="http://www.w3.org/1999/xlink" contentScriptType="application/ecmascript" contentStyleType="text/css" height="596px" preserveAspectRatio="none" style="width:466px;height:596px;" version="1.1" viewBox="0 0 466 596" width="466px" zoomAndPan="magnify"><defs><filter height="300%" id="fi744xr" width="300%" x="-1" y="-1"><feGaussianBlur result="blurOut" stdDeviation="2.0"/><feColorMatrix in="blurOut" result="blurOut2" type="matrix" values="0 0 0 0 0 0 0 0 0 0 0 0 0 0 0 0 0 0 .4 0"/><feOffset dx="4.0" dy="4.0" in="blurOut2" result="blurOut3"/><feBlend in="SourceGraphic" in2="blurOut3" mode="normal"/></filter></defs><g><!--class Aplicacao--><rect fill="#FEFECE" filter="url(#fi744xr)" height="73.9102" style="stroke: #A80036; stroke-width: 1.5;" width="156" x="153" y="8"/><ellipse cx="199.25" cy="24" fill="#ADD1B2" rx="11" ry="11" style="stroke: #A80036; stroke-width: 1.0;"/><path d="M202.2231,29.6431 Q201.6421,29.9419 201.0029,30.0913 Q200.3638,30.2407 199.6582,30.2407 Q197.1514,30.2407 195.8315,28.5889 Q194.5117,26.937 194.5117,23.8159 Q194.5117,20.6865 195.8315,19.0347 Q197.1514,17.3828 199.6582,17.3828 Q200.3638,17.3828 201.0112,17.5322 Q201.6587,17.6816 202.2231,17.9805 L202.2231,20.7031 Q201.5923,20.1221 200.9988,19.8523 Q200.4053,19.5825 199.7744,19.5825 Q198.4297,19.5825 197.7449,20.6492 Q197.0601,21.7158 197.0601,23.8159 Q197.0601,25.9077 197.7449,26.9744 Q198.4297,28.041 199.7744,28.041 Q200.4053,28.041 200.9988,27.7712 Q201.5923,27.5015 202.2231,26.9204 Z "/><text fill="#000000" font-family="sans-serif" font-size="12" lengthAdjust="spacingAndGlyphs" textLength="55" x="219.75" y="28.5352">Aplicacao</text><line style="stroke: #A80036; stroke-width: 1.5;" x1="154" x2="308" y1="40" y2="40"/><line style="stroke: #A80036; stroke-width: 1.5;" x1="154" x2="308" y1="48" y2="48"/><ellipse cx="164" cy="59.9775" fill="#84BE84" rx="3" ry="3" style="stroke: #038048; stroke-width: 1.0;"/><text fill="#000000" font-family="sans-serif" font-size="11" lengthAdjust="spacingAndGlyphs" textLength="60" x="173" y="62.6348">Aplicacao()</text><ellipse cx="164" cy="72.9326" fill="#84BE84" rx="3" ry="3" style="stroke: #038048; stroke-width: 1.0;"/><text fill="#000000" font-family="sans-serif" font-size="11" lengthAdjust="spacingAndGlyphs" text-decoration="underline" textLength="130" x="173" y="75.5898">main(String[] args): void</text><line style="stroke: #000000; stroke-width: 1.0;" x1="173" x2="303" y1="77.5898" y2="77.5898"/><!--class Lutador--><rect fill="#FEFECE" filter="url(#fi744xr)" height="86.8652" style="stroke: #A80036; stroke-width: 1.5;" width="201" x="130.5" y="142"/><ellipse cx="204.75" cy="158" fill="#ADD1B2" rx="11" ry="11" style="stroke: #A80036; stroke-width: 1.0;"/><path d="M207.7231,163.6431 Q207.1421,163.9419 206.5029,164.0913 Q205.8638,164.2407 205.1582,164.2407 Q202.6514,164.2407 201.3315,162.5889 Q200.0117,160.937 200.0117,157.8159 Q200.0117,154.6865 201.3315,153.0347 Q202.6514,151.3828 205.1582,151.3828 Q205.8638,151.3828 206.5112,151.5322 Q207.1587,151.6816 207.7231,151.9805 L207.7231,154.7031 Q207.0923,154.1221 206.4988,153.8523 Q205.9053,153.5825 205.2744,153.5825 Q203.9297,153.5825 203.2449,154.6492 Q202.5601,155.7158 202.5601,157.8159 Q202.5601,159.9077 203.2449,160.9744 Q203.9297,162.041 205.2744,162.041 Q205.9053,162.041 206.4988,161.7712 Q207.0923,161.5015 207.7231,160.9204 Z "/><text fill="#000000" font-family="sans-serif" font-size="12" lengthAdjust="spacingAndGlyphs" textLength="44" x="225.25" y="162.5352">Lutador</text><line style="stroke: #A80036; stroke-width: 1.5;" x1="131.5" x2="330.5" y1="174" y2="174"/><line style="stroke: #A80036; stroke-width: 1.5;" x1="131.5" x2="330.5" y1="182" y2="182"/><ellipse cx="141.5" cy="193.9775" fill="#84BE84" rx="3" ry="3" style="stroke: #038048; stroke-width: 1.0;"/><text fill="#000000" font-family="sans-serif" font-size="11" lengthAdjust="spacingAndGlyphs" textLength="50" x="150.5" y="196.6348">Lutador()</text><ellipse cx="141.5" cy="206.9326" fill="#84BE84" rx="3" ry="3" style="stroke: #038048; stroke-width: 1.0;"/><text fill="#000000" font-family="sans-serif" font-size="11" lengthAdjust="spacingAndGlyphs" textLength="175" x="150.5" y="209.5898">mudarMetodo(MetodoLuta): void</text><ellipse cx="141.5" cy="219.8877" fill="#84BE84" rx="3" ry="3" style="stroke: #038048; stroke-width: 1.0;"/><text fill="#000000" font-family="sans-serif" font-size="11" lengthAdjust="spacingAndGlyphs" textLength="51" x="150.5" y="222.5449">finalizar()</text><!--class MetodoLuta--><rect fill="#FEFECE" filter="url(#fi744xr)" height="125.7305" style="stroke: #A80036; stroke-width: 1.5;" width="208" x="127" y="289"/><ellipse cx="193.25" cy="305" fill="#ADD1B2" rx="11" ry="11" style="stroke: #A80036; stroke-width: 1.0;"/><path d="M196.2231,310.6431 Q195.6421,310.9419 195.0029,311.0913 Q194.3638,311.2407 193.6582,311.2407 Q191.1514,311.2407 189.8315,309.5889 Q188.5117,307.937 188.5117,304.8159 Q188.5117,301.6865 189.8315,300.0347 Q191.1514,298.3828 193.6582,298.3828 Q194.3638,298.3828 195.0112,298.5322 Q195.6587,298.6816 196.2231,298.9805 L196.2231,301.7031 Q195.5923,301.1221 194.9988,300.8523 Q194.4053,300.5825 193.7744,300.5825 Q192.4297,300.5825 191.7449,301.6492 Q191.0601,302.7158 191.0601,304.8159 Q191.0601,306.9077 191.7449,307.9744 Q192.4297,309.041 193.7744,309.041 Q194.4053,309.041 194.9988,308.7712 Q195.5923,308.5015 196.2231,307.9204 Z "/><text fill="#000000" font-family="sans-serif" font-size="12" lengthAdjust="spacingAndGlyphs" textLength="67" x="213.75" y="309.5352">MetodoLuta</text><line style="stroke: #A80036; stroke-width: 1.5;" x1="128" x2="334" y1="321" y2="321"/><line style="stroke: #A80036; stroke-width: 1.5;" x1="128" x2="334" y1="329" y2="329"/><ellipse cx="138" cy="340.9775" fill="#84BE84" rx="3" ry="3" style="stroke: #038048; stroke-width: 1.0;"/><text fill="#000000" font-family="sans-serif" font-size="11" lengthAdjust="spacingAndGlyphs" textLength="107" x="147" y="343.6348">MetodoFinalizacao()</text><text fill="#000000" font-family="sans-serif" font-size="11" font-style="italic" lengthAdjust="spacingAndGlyphs" textLength="142" x="147" y="356.5898">desafiarOponente(): String</text><text fill="#000000" font-family="sans-serif" font-size="11" font-style="italic" lengthAdjust="spacingAndGlyphs" textLength="152" x="147" y="369.5449">socarOponente(String): void</text><text fill="#000000" font-family="sans-serif" font-size="11" font-style="italic" lengthAdjust="spacingAndGlyphs" textLength="157" x="147" y="382.5">chutarOponente(String): void</text><text fill="#000000" font-family="sans-serif" font-size="11" font-style="italic" lengthAdjust="spacingAndGlyphs" textLength="182" x="147" y="395.4551">atirarMagiaOponente(String): void</text><ellipse cx="138" cy="405.7529" fill="#84BE84" rx="3" ry="3" style="stroke: #038048; stroke-width: 1.0;"/><text fill="#000000" font-family="sans-serif" font-size="11" lengthAdjust="spacingAndGlyphs" textLength="80" x="147" y="408.4102">finalizar(): void</text><!--class MetodoForcaBruta--><rect fill="#FEFECE" filter="url(#fi744xr)" height="112.7754" style="stroke: #A80036; stroke-width: 1.5;" width="208" x="6" y="475"/><ellipse cx="53.75" cy="491" fill="#ADD1B2" rx="11" ry="11" style="stroke: #A80036; stroke-width: 1.0;"/><path d="M56.7231,496.6431 Q56.1421,496.9419 55.5029,497.0913 Q54.8638,497.2407 54.1582,497.2407 Q51.6514,497.2407 50.3315,495.5889 Q49.0117,493.937 49.0117,490.8159 Q49.0117,487.6865 50.3315,486.0347 Q51.6514,484.3828 54.1582,484.3828 Q54.8638,484.3828 55.5112,484.5322 Q56.1587,484.6816 56.7231,484.9805 L56.7231,487.7031 Q56.0923,487.1221 55.4988,486.8523 Q54.9053,486.5825 54.2744,486.5825 Q52.9297,486.5825 52.2449,487.6492 Q51.5601,488.7158 51.5601,490.8159 Q51.5601,492.9077 52.2449,493.9744 Q52.9297,495.041 54.2744,495.041 Q54.9053,495.041 55.4988,494.7712 Q56.0923,494.5015 56.7231,493.9204 Z "/><text fill="#000000" font-family="sans-serif" font-size="12" lengthAdjust="spacingAndGlyphs" textLength="104" x="74.25" y="495.5352">MetodoForcaBruta</text><line style="stroke: #A80036; stroke-width: 1.5;" x1="7" x2="213" y1="507" y2="507"/><line style="stroke: #A80036; stroke-width: 1.5;" x1="7" x2="213" y1="515" y2="515"/><ellipse cx="17" cy="526.9775" fill="#84BE84" rx="3" ry="3" style="stroke: #038048; stroke-width: 1.0;"/><text fill="#000000" font-family="sans-serif" font-size="11" lengthAdjust="spacingAndGlyphs" textLength="106" x="26" y="529.6348">MetodoForcaBruta()</text><text fill="#000000" font-family="sans-serif" font-size="11" font-style="italic" lengthAdjust="spacingAndGlyphs" textLength="142" x="26" y="542.5898">desafiarOponente(): String</text><text fill="#000000" font-family="sans-serif" font-size="11" font-style="italic" lengthAdjust="spacingAndGlyphs" textLength="152" x="26" y="555.5449">socarOponente(String): void</text><text fill="#000000" font-family="sans-serif" font-size="11" font-style="italic" lengthAdjust="spacingAndGlyphs" textLength="157" x="26" y="568.5">chutarOponente(String): void</text><text fill="#000000" font-family="sans-serif" font-size="11" font-style="italic" lengthAdjust="spacingAndGlyphs" textLength="182" x="26" y="581.4551">atirarMagiaOponente(String): void</text><!--class MetodoAgil--><rect fill="#FEFECE" filter="url(#fi744xr)" height="112.7754" style="stroke: #A80036; stroke-width: 1.5;" width="208" x="249" y="475"/><ellipse cx="316.75" cy="491" fill="#ADD1B2" rx="11" ry="11" style="stroke: #A80036; stroke-width: 1.0;"/><path d="M319.7231,496.6431 Q319.1421,496.9419 318.5029,497.0913 Q317.8638,497.2407 317.1582,497.2407 Q314.6514,497.2407 313.3315,495.5889 Q312.0117,493.937 312.0117,490.8159 Q312.0117,487.6865 313.3315,486.0347 Q314.6514,484.3828 317.1582,484.3828 Q317.8638,484.3828 318.5112,484.5322 Q319.1587,484.6816 319.7231,484.9805 L319.7231,487.7031 Q319.0923,487.1221 318.4988,486.8523 Q317.9053,486.5825 317.2744,486.5825 Q315.9297,486.5825 315.2449,487.6492 Q314.5601,488.7158 314.5601,490.8159 Q314.5601,492.9077 315.2449,493.9744 Q315.9297,495.041 317.2744,495.041 Q317.9053,495.041 318.4988,494.7712 Q319.0923,494.5015 319.7231,493.9204 Z "/><text fill="#000000" font-family="sans-serif" font-size="12" lengthAdjust="spacingAndGlyphs" textLength="64" x="337.25" y="495.5352">MetodoAgil</text><line style="stroke: #A80036; stroke-width: 1.5;" x1="250" x2="456" y1="507" y2="507"/><line style="stroke: #A80036; stroke-width: 1.5;" x1="250" x2="456" y1="515" y2="515"/><ellipse cx="260" cy="526.9775" fill="#84BE84" rx="3" ry="3" style="stroke: #038048; stroke-width: 1.0;"/><text fill="#000000" font-family="sans-serif" font-size="11" lengthAdjust="spacingAndGlyphs" textLength="69" x="269" y="529.6348">MetodoAgil()</text><text fill="#000000" font-family="sans-serif" font-size="11" font-style="italic" lengthAdjust="spacingAndGlyphs" textLength="142" x="269" y="542.5898">desafiarOponente(): String</text><text fill="#000000" font-family="sans-serif" font-size="11" font-style="italic" lengthAdjust="spacingAndGlyphs" textLength="152" x="269" y="555.5449">socarOponente(String): void</text><text fill="#000000" font-family="sans-serif" font-size="11" font-style="italic" lengthAdjust="spacingAndGlyphs" textLength="157" x="269" y="568.5">chutarOponente(String): void</text><text fill="#000000" font-family="sans-serif" font-size="11" font-style="italic" lengthAdjust="spacingAndGlyphs" textLength="182" x="269" y="581.4551">atirarMagiaOponente(String): void</text><path d="M231,82.2825 C231,98.8594 231,118.6036 231,136.3632 " fill="none" style="stroke: #A80036; stroke-width: 1.0; stroke-dasharray: 7.0,7.0;"/><polygon fill="#A80036" points="231,141.8053,235,132.8053,231,136.8053,227,132.8053,231,141.8053" style="stroke: #A80036; stroke-width: 1.0;"/><path d="M231,229.2459 C231,245.8911 231,265.2791 231,283.664 " fill="none" style="stroke: #A80036; stroke-width: 1.0;"/><polygon fill="#A80036" points="231,288.8198,235,279.8198,231,283.8198,227,279.8198,231,288.8198" style="stroke: #A80036; stroke-width: 1.0;"/><text fill="#000000" font-family="sans-serif" font-size="13" lengthAdjust="spacingAndGlyphs" textLength="8" x="222.4125" y="249.3737">0</text><text fill="#000000" font-family="sans-serif" font-size="13" lengthAdjust="spacingAndGlyphs" textLength="8" x="222.5375" y="278.2493">1</text><path d="M177.1875,431.8292 C167.3966,446.3537 157.3692,461.2291 148.1479,474.9086 " fill="none" style="stroke: #A80036; stroke-width: 1.0;"/><polygon fill="none" points="171.5265,427.7038,188.5101,415.0326,183.1353,435.5292,171.5265,427.7038" style="stroke: #A80036; stroke-width: 1.0;"/><path d="M285.2572,431.8292 C295.129,446.3537 305.2393,461.2291 314.5368,474.9086 " fill="none" style="stroke: #A80036; stroke-width: 1.0;"/><polygon fill="none" points="279.2942,435.5086,273.8411,415.0326,290.8729,427.6388,279.2942,435.5086" style="stroke: #A80036; stroke-width: 1.0;"/></g></svg>