<?xml version="1.0" encoding="UTF-8" standalone="no"?><svg xmlns="http://www.w3.org/2000/svg" xmlns:xlink="http://www.w3.org/1999/xlink" contentScriptType="application/ecmascript" contentStyleType="text/css" height="570px" preserveAspectRatio="none" style="width:438px;height:570px;" version="1.1" viewBox="0 0 438 570" width="438px" zoomAndPan="magnify"><defs><filter height="300%" id="fskrzoi" width="300%" x="-1" y="-1"><feGaussianBlur result="blurOut" stdDeviation="2.0"/><feColorMatrix in="blurOut" result="blurOut2" type="matrix" values="0 0 0 0 0 0 0 0 0 0 0 0 0 0 0 0 0 0 .4 0"/><feOffset dx="4.0" dy="4.0" in="blurOut2" result="blurOut3"/><feBlend in="SourceGraphic" in2="blurOut3" mode="normal"/></filter></defs><g><!--class Aplicacao--><rect fill="#FEFECE" filter="url(#fskrzoi)" height="73.9102" style="stroke: #A80036; stroke-width: 1.5;" width="156" x="139" y="8"/><ellipse cx="185.25" cy="24" fill="#ADD1B2" rx="11" ry="11" style="stroke: #A80036; stroke-width: 1.0;"/><path d="M188.2231,29.6431 Q187.6421,29.9419 187.0029,30.0913 Q186.3638,30.2407 185.6582,30.2407 Q183.1514,30.2407 181.8315,28.5889 Q180.5117,26.937 180.5117,23.8159 Q180.5117,20.6865 181.8315,19.0347 Q183.1514,17.3828 185.6582,17.3828 Q186.3638,17.3828 187.0112,17.5322 Q187.6587,17.6816 188.2231,17.9805 L188.2231,20.7031 Q187.5923,20.1221 186.9988,19.8523 Q186.4053,19.5825 185.7744,19.5825 Q184.4297,19.5825 183.7449,20.6492 Q183.0601,21.7158 183.0601,23.8159 Q183.0601,25.9077 183.7449,26.9744 Q184.4297,28.041 185.7744,28.041 Q186.4053,28.041 186.9988,27.7712 Q187.5923,27.5015 188.2231,26.9204 Z "/><text fill="#000000" font-family="sans-serif" font-size="12" lengthAdjust="spacingAndGlyphs" textLength="55" x="205.75" y="28.5352">Aplicacao</text><line style="stroke: #A80036; stroke-width: 1.5;" x1="140" x2="294" y1="40" y2="40"/><line style="stroke: #A80036; stroke-width: 1.5;" x1="140" x2="294" y1="48" y2="48"/><ellipse cx="150" cy="59.9775" fill="#84BE84" rx="3" ry="3" style="stroke: #038048; stroke-width: 1.0;"/><text fill="#000000" font-family="sans-serif" font-size="11" lengthAdjust="spacingAndGlyphs" textLength="60" x="159" y="62.6348">Aplicacao()</text><ellipse cx="150" cy="72.9326" fill="#84BE84" rx="3" ry="3" style="stroke: #038048; stroke-width: 1.0;"/><text fill="#000000" font-family="sans-serif" font-size="11" lengthAdjust="spacingAndGlyphs" text-decoration="underline" textLength="130" x="159" y="75.5898">main(String[] args): void</text><line style="stroke: #000000; stroke-width: 1.0;" x1="159" x2="289" y1="77.5898" y2="77.5898"/><!--class Lutador--><rect fill="#FEFECE" filter="url(#fskrzoi)" height="86.8652" style="stroke: #A80036; stroke-width: 1.5;" width="201" x="116.5" y="142"/><ellipse cx="190.75" cy="158" fill="#ADD1B2" rx="11" ry="11" style="stroke: #A80036; stroke-width: 1.0;"/><path d="M193.7231,163.6431 Q193.1421,163.9419 192.5029,164.0913 Q191.8638,164.2407 191.1582,164.2407 Q188.6514,164.2407 187.3315,162.5889 Q186.0117,160.937 186.0117,157.8159 Q186.0117,154.6865 187.3315,153.0347 Q188.6514,151.3828 191.1582,151.3828 Q191.8638,151.3828 192.5112,151.5322 Q193.1587,151.6816 193.7231,151.9805 L193.7231,154.7031 Q193.0923,154.1221 192.4988,153.8523 Q191.9053,153.5825 191.2744,153.5825 Q189.9297,153.5825 189.2449,154.6492 Q188.5601,155.7158 188.5601,157.8159 Q188.5601,159.9077 189.2449,160.9744 Q189.9297,162.041 191.2744,162.041 Q191.9053,162.041 192.4988,161.7712 Q193.0923,161.5015 193.7231,160.9204 Z "/><text fill="#000000" font-family="sans-serif" font-size="12" lengthAdjust="spacingAndGlyphs" textLength="44" x="211.25" y="162.5352">Lutador</text><line style="stroke: #A80036; stroke-width: 1.5;" x1="117.5" x2="316.5" y1="174" y2="174"/><line style="stroke: #A80036; stroke-width: 1.5;" x1="117.5" x2="316.5" y1="182" y2="182"/><ellipse cx="127.5" cy="193.9775" fill="#84BE84" rx="3" ry="3" style="stroke: #038048; stroke-width: 1.0;"/><text fill="#000000" font-family="sans-serif" font-size="11" lengthAdjust="spacingAndGlyphs" textLength="50" x="136.5" y="196.6348">Lutador()</text><ellipse cx="127.5" cy="206.9326" fill="#84BE84" rx="3" ry="3" style="stroke: #038048; stroke-width: 1.0;"/><text fill="#000000" font-family="sans-serif" font-size="11" lengthAdjust="spacingAndGlyphs" textLength="175" x="136.5" y="209.5898">mudarMetodo(MetodoLuta): void</text><ellipse cx="127.5" cy="219.8877" fill="#84BE84" rx="3" ry="3" style="stroke: #038048; stroke-width: 1.0;"/><text fill="#000000" font-family="sans-serif" font-size="11" lengthAdjust="spacingAndGlyphs" textLength="51" x="136.5" y="222.5449">finalizar()</text><!--class MetodoLuta--><rect fill="#FEFECE" filter="url(#fskrzoi)" height="112.7754" style="stroke: #A80036; stroke-width: 1.5;" width="208" x="113" y="289"/><ellipse cx="179.25" cy="305" fill="#ADD1B2" rx="11" ry="11" style="stroke: #A80036; stroke-width: 1.0;"/><path d="M182.2231,310.6431 Q181.6421,310.9419 181.0029,311.0913 Q180.3638,311.2407 179.6582,311.2407 Q177.1514,311.2407 175.8315,309.5889 Q174.5117,307.937 174.5117,304.8159 Q174.5117,301.6865 175.8315,300.0347 Q177.1514,298.3828 179.6582,298.3828 Q180.3638,298.3828 181.0112,298.5322 Q181.6587,298.6816 182.2231,298.9805 L182.2231,301.7031 Q181.5923,301.1221 180.9988,300.8523 Q180.4053,300.5825 179.7744,300.5825 Q178.4297,300.5825 177.7449,301.6492 Q177.0601,302.7158 177.0601,304.8159 Q177.0601,306.9077 177.7449,307.9744 Q178.4297,309.041 179.7744,309.041 Q180.4053,309.041 180.9988,308.7712 Q181.5923,308.5015 182.2231,307.9204 Z "/><text fill="#000000" font-family="sans-serif" font-size="12" lengthAdjust="spacingAndGlyphs" textLength="67" x="199.75" y="309.5352">MetodoLuta</text><line style="stroke: #A80036; stroke-width: 1.5;" x1="114" x2="320" y1="321" y2="321"/><line style="stroke: #A80036; stroke-width: 1.5;" x1="114" x2="320" y1="329" y2="329"/><ellipse cx="124" cy="340.9775" fill="#84BE84" rx="3" ry="3" style="stroke: #038048; stroke-width: 1.0;"/><text fill="#000000" font-family="sans-serif" font-size="11" lengthAdjust="spacingAndGlyphs" textLength="107" x="133" y="343.6348">MetodoFinalizacao()</text><text fill="#000000" font-family="sans-serif" font-size="11" font-style="italic" lengthAdjust="spacingAndGlyphs" textLength="152" x="133" y="356.5898">socarOponente(String): void</text><text fill="#000000" font-family="sans-serif" font-size="11" font-style="italic" lengthAdjust="spacingAndGlyphs" textLength="157" x="133" y="369.5449">chutarOponente(String): void</text><text fill="#000000" font-family="sans-serif" font-size="11" font-style="italic" lengthAdjust="spacingAndGlyphs" textLength="182" x="133" y="382.5">atirarMagiaOponente(String): void</text><ellipse cx="124" cy="392.7979" fill="#84BE84" rx="3" ry="3" style="stroke: #038048; stroke-width: 1.0;"/><text fill="#000000" font-family="sans-serif" font-size="11" lengthAdjust="spacingAndGlyphs" textLength="80" x="133" y="395.4551">finalizar(): void</text><!--class MetodoForcaBruta--><rect fill="#FEFECE" filter="url(#fskrzoi)" height="99.8203" style="stroke: #A80036; stroke-width: 1.5;" width="194" x="6" y="462"/><ellipse cx="47.1" cy="478" fill="#ADD1B2" rx="11" ry="11" style="stroke: #A80036; stroke-width: 1.0;"/><path d="M50.0731,483.6431 Q49.4921,483.9419 48.8529,484.0913 Q48.2138,484.2407 47.5082,484.2407 Q45.0014,484.2407 43.6815,482.5889 Q42.3617,480.937 42.3617,477.8159 Q42.3617,474.6865 43.6815,473.0347 Q45.0014,471.3828 47.5082,471.3828 Q48.2138,471.3828 48.8612,471.5322 Q49.5087,471.6816 50.0731,471.9805 L50.0731,474.7031 Q49.4423,474.1221 48.8488,473.8523 Q48.2553,473.5825 47.6244,473.5825 Q46.2797,473.5825 45.5949,474.6492 Q44.9101,475.7158 44.9101,477.8159 Q44.9101,479.9077 45.5949,480.9744 Q46.2797,482.041 47.6244,482.041 Q48.2553,482.041 48.8488,481.7712 Q49.4423,481.5015 50.0731,480.9204 Z "/><text fill="#000000" font-family="sans-serif" font-size="12" lengthAdjust="spacingAndGlyphs" textLength="104" x="66.9" y="482.5352">MetodoForcaBruta</text><line style="stroke: #A80036; stroke-width: 1.5;" x1="7" x2="199" y1="494" y2="494"/><ellipse cx="17" cy="505.9775" fill="none" rx="3" ry="3" style="stroke: #038048; stroke-width: 1.0;"/><text fill="#000000" font-family="sans-serif" font-size="11" lengthAdjust="spacingAndGlyphs" textLength="71" x="26" y="508.6348">MetodoBrutal</text><line style="stroke: #A80036; stroke-width: 1.5;" x1="7" x2="199" y1="514.9551" y2="514.9551"/><text fill="#000000" font-family="sans-serif" font-size="11" font-style="italic" lengthAdjust="spacingAndGlyphs" textLength="152" x="12" y="529.5898">socarOponente(String): void</text><text fill="#000000" font-family="sans-serif" font-size="11" font-style="italic" lengthAdjust="spacingAndGlyphs" textLength="157" x="12" y="542.5449">chutarOponente(String): void</text><text fill="#000000" font-family="sans-serif" font-size="11" font-style="italic" lengthAdjust="spacingAndGlyphs" textLength="182" x="12" y="555.5">atirarMagiaOponente(String): void</text><!--class MetodoAgil--><rect fill="#FEFECE" filter="url(#fskrzoi)" height="99.8203" style="stroke: #A80036; stroke-width: 1.5;" width="194" x="235" y="462"/><ellipse cx="295.75" cy="478" fill="#ADD1B2" rx="11" ry="11" style="stroke: #A80036; stroke-width: 1.0;"/><path d="M298.7231,483.6431 Q298.1421,483.9419 297.5029,484.0913 Q296.8638,484.2407 296.1582,484.2407 Q293.6514,484.2407 292.3315,482.5889 Q291.0117,480.937 291.0117,477.8159 Q291.0117,474.6865 292.3315,473.0347 Q293.6514,471.3828 296.1582,471.3828 Q296.8638,471.3828 297.5112,471.5322 Q298.1587,471.6816 298.7231,471.9805 L298.7231,474.7031 Q298.0923,474.1221 297.4988,473.8523 Q296.9053,473.5825 296.2744,473.5825 Q294.9297,473.5825 294.2449,474.6492 Q293.5601,475.7158 293.5601,477.8159 Q293.5601,479.9077 294.2449,480.9744 Q294.9297,482.041 296.2744,482.041 Q296.9053,482.041 297.4988,481.7712 Q298.0923,481.5015 298.7231,480.9204 Z "/><text fill="#000000" font-family="sans-serif" font-size="12" lengthAdjust="spacingAndGlyphs" textLength="64" x="316.25" y="482.5352">MetodoAgil</text><line style="stroke: #A80036; stroke-width: 1.5;" x1="236" x2="428" y1="494" y2="494"/><ellipse cx="246" cy="505.9775" fill="none" rx="3" ry="3" style="stroke: #038048; stroke-width: 1.0;"/><text fill="#000000" font-family="sans-serif" font-size="11" lengthAdjust="spacingAndGlyphs" textLength="61" x="255" y="508.6348">MetodoAgil</text><line style="stroke: #A80036; stroke-width: 1.5;" x1="236" x2="428" y1="514.9551" y2="514.9551"/><text fill="#000000" font-family="sans-serif" font-size="11" font-style="italic" lengthAdjust="spacingAndGlyphs" textLength="152" x="241" y="529.5898">socarOponente(String): void</text><text fill="#000000" font-family="sans-serif" font-size="11" font-style="italic" lengthAdjust="spacingAndGlyphs" textLength="157" x="241" y="542.5449">chutarOponente(String): void</text><text fill="#000000" font-family="sans-serif" font-size="11" font-style="italic" lengthAdjust="spacingAndGlyphs" textLength="182" x="241" y="555.5">atirarMagiaOponente(String): void</text><path d="M217,82.2825 C217,98.8594 217,118.6036 217,136.3632 " fill="none" style="stroke: #A80036; stroke-width: 1.0; stroke-dasharray: 7.0,7.0;"/><polygon fill="#A80036" points="217,141.8053,221,132.8053,217,136.8053,213,132.8053,217,141.8053" style="stroke: #A80036; stroke-width: 1.0;"/><path d="M217,229.2207 C217,246.0509 217,265.599 217,283.8096 " fill="none" style="stroke: #A80036; stroke-width: 1.0;"/><polygon fill="#A80036" points="217,288.9071,221,279.9071,217,283.9071,213,279.9071,217,288.9071" style="stroke: #A80036; stroke-width: 1.0;"/><text fill="#000000" font-family="sans-serif" font-size="13" lengthAdjust="spacingAndGlyphs" textLength="8" x="208.4125" y="249.3448">0</text><text fill="#000000" font-family="sans-serif" font-size="13" lengthAdjust="spacingAndGlyphs" textLength="8" x="208.4875" y="278.2978">1</text><path d="M166.6589,419.0245 C156.7557,433.4883 146.5807,448.3492 137.3517,461.8284 " fill="none" style="stroke: #A80036; stroke-width: 1.0;"/><polygon fill="none" points="161.0116,414.882,178.0865,402.3342,172.5633,422.7914,161.0116,414.882" style="stroke: #A80036; stroke-width: 1.0;"/><path d="M267.7827,419.0245 C277.7727,433.4883 288.037,448.3492 297.347,461.8284 " fill="none" style="stroke: #A80036; stroke-width: 1.0;"/><polygon fill="none" points="261.8614,422.7687,256.2548,402.3342,273.3808,414.8123,261.8614,422.7687" style="stroke: #A80036; stroke-width: 1.0;"/></g></svg>