<?xml version="1.0" encoding="UTF-8"?>
<svg width="562px" height="526px" viewBox="0 0 562 526" version="1.1" xmlns="http://www.w3.org/2000/svg" xmlns:xlink="http://www.w3.org/1999/xlink">
    <!-- Generator: Sketch 48.2 (47327) - http://www.bohemiancoding.com/sketch -->
    <title>arrivedo-postBackgorund</title>
    <desc>Created with Sketch.</desc>
    <defs>
        <rect id="path-1" x="0" y="0" width="562" height="526"></rect>
        <linearGradient x1="50%" y1="-23.8051368%" x2="50%" y2="93.0473419%" id="linearGradient-3">
            <stop stop-color="#FABE58" offset="0%"></stop>
            <stop stop-color="#FFE144" offset="100%"></stop>
        </linearGradient>
        <linearGradient x1="146.297506%" y1="47.1156826%" x2="-151.013021%" y2="41.6464649%" id="linearGradient-4">
            <stop stop-color="#FABE58" offset="0%"></stop>
            <stop stop-color="#FFE144" offset="100%"></stop>
        </linearGradient>
    </defs>
    <g id="Design11" stroke="none" stroke-width="1" fill="none" fill-rule="evenodd">
        <g id="arrivedo-postBackgorund">
            <g id="arrivedo-postBackground" transform="translate(281.000000, 262.000000) scale(-1, 1) translate(-281.000000, -262.000000) translate(0.000000, -1.000000)">
                <mask id="mask-2" fill="white">
                    <use xlink:href="#path-1"></use>
                </mask>
                <g id="Mask"></g>
                <g id="Group-7" mask="url(#mask-2)">
                    <g transform="translate(130.000000, 88.000000)">
                        <path d="M708.527255,366.485639 C708.527255,317.763685 673.50835,277.248565 627.272092,268.672625 C628.390944,263.816578 629.002275,258.764443 629.002275,253.568127 C629.002275,216.467235 598.92016,186.38512 561.813501,186.38512 C549.281208,186.38512 537.556335,189.828184 527.509739,195.803083 C512.359102,120.067204 445.497332,63 365.299888,63 C309.35269,63 259.900021,90.7694377 229.958627,133.274268 C215.023687,122.587504 196.742573,116.278103 176.976386,116.278103 C126.622292,116.278103 85.805544,157.093121 85.805544,207.447214 C85.805544,212.660833 86.2663494,217.759105 87.1060649,222.730498 C36.6204774,238.607811 0,285.778368 0,341.507563 C0,405.962649 48.9791748,458.975457 111.747332,465.359832 L111.296331,466 L617.00634,466 L616.769881,465.671265 C668.104412,461.709146 708.527255,418.83521 708.527255,366.485639" id="Fill-14" fill="url(#linearGradient-3)"></path>
                        <path d="M130.769893,8.49005108 C127.171893,8.49005108 123.782893,9.28205108 120.755893,10.6550511 C121.835893,6.45105108 125.895893,3.31405108 130.769893,3.31405108 C135.644893,3.31405108 139.704893,6.45105108 140.783893,10.6540511 C137.757893,9.28205108 134.367893,8.49005108 130.769893,8.49005108 Z M148.403893,37.8640511 C148.403893,0.459051084 137.919893,-8.77794892 130.769893,-8.77794892 C123.620893,-8.77794892 113.136893,0.459051084 113.136893,37.8640511 L54.8608932,78.6760511 C54.1898932,79.1460511 53.6398932,80.2010511 53.6398932,81.0210511 L53.6398932,96.7100511 C53.6398932,98.6740511 55.2078932,99.9310511 57.1248932,99.5060511 L112.828893,87.1360511 C114.939893,103.700051 118.514893,118.518051 120.795893,133.739051 L99.4378932,150.212051 C98.8408932,150.685051 98.3528932,151.695051 98.3528932,152.456051 L98.3528932,160.073051 C98.3528932,162.500051 100.166893,163.677051 102.382893,162.689051 L130.769893,150.032051 L159.156893,162.689051 C161.373893,163.677051 163.186893,162.500051 163.186893,160.073051 L163.186893,152.456051 C163.186893,151.695051 162.698893,150.685051 162.102893,150.212051 L140.744893,133.739051 C143.025893,118.518051 146.600893,103.700051 148.710893,87.1360511 L204.415893,99.5060511 C206.331893,99.9310511 207.900893,98.6730511 207.900893,96.7100511 L207.900893,81.0210511 C207.900893,80.2010511 207.350893,79.1450511 206.678893,78.6750511 L148.403893,37.8640511 Z" id="Fill-28" fill="url(#linearGradient-4)" transform="translate(130.770393, 77.130500) rotate(-90.000000) translate(-130.770393, -77.130500) "></path>
                    </g>
                </g>
            </g>
        </g>
    </g>
</svg>