<?xml version="1.0" encoding="UTF-8"?>
<svg width="559px" height="532px" viewBox="0 0 559 532" version="1.1" xmlns="http://www.w3.org/2000/svg" xmlns:xlink="http://www.w3.org/1999/xlink">
    <!-- Generator: Sketch 48.2 (47327) - http://www.bohemiancoding.com/sketch -->
    <title>arrivedo-postBackground</title>
    <desc>Created with Sketch.</desc>
    <defs>
        <rect id="path-1" x="0" y="0" width="559" height="532"></rect>
        <linearGradient x1="50%" y1="0%" x2="50%" y2="93.0473419%" id="linearGradient-3">
            <stop stop-color="#FFA100" offset="0%"></stop>
            <stop stop-color="#FFE144" offset="100%"></stop>
        </linearGradient>
        <linearGradient x1="50%" y1="0%" x2="50%" y2="100%" id="linearGradient-4">
            <stop stop-color="#FFA100" offset="0%"></stop>
            <stop stop-color="#FFE144" offset="100%"></stop>
        </linearGradient>
    </defs>
    <g id="Design11" stroke="none" stroke-width="1" fill="none" fill-rule="evenodd">
        <g id="arrivedo-postBackground">
            <g transform="translate(279.500000, 266.000000) scale(-1, 1) translate(-279.500000, -266.000000) ">
                <mask id="mask-2" fill="white">
                    <use xlink:href="#path-1"></use>
                </mask>
                <g id="Mask"></g>
                <g id="Group-7" mask="url(#mask-2)">
                    <g transform="translate(19.000000, 16.000000)">
                        <path d="M143.97488,114.398967 C143.835277,113.192289 143.1083,112.136354 142.031573,111.573485 L141.887514,111.505911 C141.555585,111.367051 133.708098,108.104195 128.899211,107.429198 C127.987334,107.300734 127.027933,107.479693 126.148729,107.920038 L109.99856,113.642287 C106.847833,112.021998 94.9020986,105.883909 80.8303848,98.7047358 L114.095322,81.1785833 C115.073288,80.6632393 115.642839,79.7795802 115.61685,78.8149809 C115.591602,77.8511242 114.976754,76.9993957 113.972056,76.5367742 L102.759239,71.3655122 C101.683254,70.869475 99.9731136,70.6734363 98.7901985,70.9259103 L47.688714,81.9070451 C37.173171,76.6295955 28.4947478,72.3501608 24.8762011,70.7506637 C22.2200258,69.5766595 18.9905861,68.9848307 15.2784754,68.9848307 C9.15301008,68.9848307 1.65898707,70.7454657 0.274092806,73.3437204 C0.219885149,73.4432248 -3.43653274,84.2906969 17.6806914,96.4302419 L96.4325367,136.560988 C96.5112492,136.598116 98.3892104,137.538211 100.215934,137.859001 C103.307256,138.40182 106.654764,138.559245 110.098064,138.559245 L111.096079,138.559245 C111.573552,138.559245 112.042857,138.559245 112.503993,138.559245 L112.81513,138.559245 L112.81513,138.449345 C115.042842,138.449345 116.679468,137.485488 116.942338,137.303558 L142.699886,117.670733 L142.760777,117.597218 C143.677852,116.804153 144.112998,115.610099 143.97488,114.398967 Z M101.985835,125.643326 L101.986578,125.643326 L101.986578,125.655207 L101.985835,125.643326 Z" id="Shape" fill="url(#linearGradient-3)" fill-rule="nonzero"></path>
                        <path d="M530.465718,439.559051 C496.152623,489.926712 438.335933,523 372.794563,523 C309.251852,523 252.969882,491.91307 218.327624,444.118183 L186.412412,444.118183 C156.294908,444.118183 130.578727,433.453288 109.262872,412.147386 C87.9500033,390.835513 77.2920759,365.119331 77.2920759,334.994861 C77.2950619,309.421011 85.2556617,286.722651 101.171885,266.928647 C117.082136,247.12867 137.267303,234.390516 161.702503,228.709207 C153.929024,216.772289 150.053233,203.700701 150.053233,189.494444 C150.053233,169.411796 157.158849,152.268339 171.36212,138.0581 C185.568377,123.852839 202.71283,116.747222 222.795478,116.747222 C240.98104,116.747222 256.707156,122.620628 269.963874,134.36744 C281.136384,107.465828 298.902914,85.6791847 323.242562,69.0075108 C347.588183,52.3398182 374.728673,44 404.662041,44 C444.822361,44 479.114253,58.2122287 507.531743,86.629719 C535.951224,115.040242 550.156485,149.334124 550.156485,189.49743 C550.156485,192.340075 549.966379,196.409954 549.588155,201.71503 C571.562915,211.945964 589.277688,227.432207 602.727499,248.182718 C616.176314,268.921285 622.903708,291.801789 622.903708,316.809299 C622.903708,351.855646 610.445239,381.83679 585.53527,406.745764 C569.32527,422.959003 550.968387,433.89649 530.465719,439.559049 Z" id="Combined-Shape" fill="url(#linearGradient-4)" fill-rule="nonzero"></path>
                        <path d="M104.516667,182.375 C102.008333,170.2625 91.2583333,161 78,161 C67.6083333,161 58.65,166.7 54.35,175.25 C43.2416667,176.675 35,185.58125 35,196.625 C35,208.38125 44.675,218 56.5,218 L103.083333,218 C113.116667,218 121,210.1625 121,200.1875 C121,190.925 113.475,183.0875 104.516667,182.375 Z" id="Shape" fill="url(#linearGradient-4)" fill-rule="evenodd"></path>
                        <path d="M186.650041,10.8250203 C192.61811,10.8250203 197.475061,15.6805855 197.475061,21.6500407 C197.475061,27.6194959 192.61811,32.475061 186.650041,32.475061 C180.681015,32.475061 175.82502,27.6185389 175.82502,21.6500407 C175.82502,15.6815425 180.681015,10.8250203 186.650041,10.8250203 Z M186.87641,7.69646586 C185.695394,7.69646586 184.73818,6.73925183 184.73818,5.55920457 L184.73818,2.13823013 C184.73818,0.957214032 185.695394,0 186.87641,0 C188.057426,0 189.01464,0.957214032 189.01464,2.13823013 L189.01464,5.55920457 C189.01464,6.73925183 188.056457,7.69646586 186.87641,7.69646586 Z M186.87641,36.0553848 C188.056457,36.0553848 189.01464,37.0125988 189.01464,38.1936149 L189.01464,41.6136205 C189.01464,42.7956055 188.057426,43.7528195 186.87641,43.7528195 C185.695394,43.7528195 184.73818,42.7956055 184.73818,41.6136205 L184.73818,38.1936149 C184.73818,37.0125988 185.695394,36.0553848 186.87641,36.0553848 Z M196.901967,11.8498834 C196.067796,11.0147432 196.067796,9.66127361 196.901967,8.82613343 L199.321161,6.40693967 C200.155332,5.57276833 201.509771,5.57276833 202.344911,6.40693967 C203.180051,7.24207984 203.180051,8.59651832 202.344911,9.43068966 L199.925717,11.8498834 C199.091546,12.6850236 197.738076,12.6850236 196.901967,11.8498834 Z M176.849883,31.9039049 C177.685024,32.7371074 177.685024,34.0915459 176.849883,34.9257172 L174.43069,37.3458798 C173.596518,38.1800512 172.24208,38.1800512 171.40694,37.3458798 C170.571799,36.5117085 170.572768,35.1563012 171.40694,34.3221298 L173.826133,31.9039049 C174.661274,31.0677959 176.014743,31.0677959 176.849883,31.9039049 Z M201.055385,21.8764097 C201.055385,20.6953937 202.012599,19.7381796 203.193615,19.7381796 L206.614589,19.7381796 C207.795605,19.7381796 208.752819,20.6953937 208.752819,21.8764097 C208.752819,23.0574258 207.795605,24.013671 206.614589,24.013671 L203.193615,24.013671 C202.012599,24.013671 201.055385,23.0574258 201.055385,21.8764097 Z M172.696466,21.8764097 C172.696466,23.0574258 171.739252,24.013671 170.559205,24.013671 L167.13823,24.013671 C165.957214,24.013671 165,23.0574258 165,21.8764097 C165,20.6953937 165.957214,19.7381796 167.13823,19.7381796 L170.558236,19.7381796 C171.739252,19.7381796 172.696466,20.6953937 172.696466,21.8764097 Z M196.901967,31.9039049 C197.737107,31.0697336 199.091546,31.0697336 199.925717,31.9039049 L202.344911,34.3230987 C203.180051,35.1563012 203.180051,36.5117085 202.344911,37.3458798 C201.509771,38.1800512 200.156301,38.1800512 199.321161,37.3458798 L196.901967,34.9266861 C196.066827,34.0915459 196.066827,32.7380763 196.901967,31.9039049 Z M176.849883,11.8498834 C176.014743,12.6859924 174.661274,12.6859924 173.826133,11.8498834 L171.40694,9.43068966 C170.571799,8.59651832 170.571799,7.24207984 171.40694,6.40790851 C172.24208,5.57276833 173.595549,5.57276833 174.43069,6.40790851 L176.849883,8.82613343 C177.685024,9.66127361 177.685024,11.0147432 176.849883,11.8498834 Z" id="Combined-Shape" fill="url(#linearGradient-3)" fill-rule="nonzero"></path>
                    </g>
                </g>
            </g>
        </g>
    </g>
</svg>