<?xml version="1.0" encoding="UTF-8"?>
<svg width="562px" height="526px" viewBox="0 0 562 526" version="1.1" xmlns="http://www.w3.org/2000/svg" xmlns:xlink="http://www.w3.org/1999/xlink">
    <!-- Generator: Sketch 48.2 (47327) - http://www.bohemiancoding.com/sketch -->
    <title>chapters-postBackground</title>
    <desc>Created with Sketch.</desc>
    <defs>
        <rect id="path-1" x="0" y="0" width="562" height="526"></rect>
        <linearGradient x1="26.8463075%" y1="0%" x2="26.8463075%" y2="70.913828%" id="linearGradient-3">
            <stop stop-color="#BA003F" offset="0%"></stop>
            <stop stop-color="#FF1A3A" offset="100%"></stop>
        </linearGradient>
    </defs>
    <g id="Design11" stroke="none" stroke-width="1" fill="none" fill-rule="evenodd">
        <g id="chapters-postBackground">
            <g id="Group-7-Copy-2">
                <mask id="mask-2" fill="white">
                    <use xlink:href="#path-1"></use>
                </mask>
                <g id="Mask"></g>
                <g id="Group-7" mask="url(#mask-2)" fill="url(#linearGradient-3)" fill-rule="nonzero">
                    <g transform="translate(108.000000, 13.000000)" id="Combined-Shape">
                        <path d="M230.961165,266.839762 C230.961165,270.943114 229.332257,274.890104 226.462277,277.676761 L190.160901,313.903299 C187.213353,316.768137 185.584445,320.715127 185.584445,324.817705 L184.808775,723 L64.9676951,723 C56.4353204,723 49.4542866,716.033358 49.4542866,707.518573 L49.4542866,324.817705 C49.4542866,320.715127 47.8253788,316.84477 44.8778312,313.903299 L8.57645548,277.676761 C5.62890788,274.812697 4,270.864933 4,266.762355 L4,182.620801 L4,152.819054 C4,144.30427 10.9810338,137.337628 19.5134084,137.337628 L33.8633112,137.337628 C42.3956858,137.337628 49.3767196,144.30427 49.3767196,152.819054 L49.3767196,182.620801 L91.6507575,182.620801 L91.6507575,152.819054 C91.6507575,144.768712 97.9336879,138.111699 105.845526,137.415035 L105.845526,7.52586455 C105.845526,1.95255093 111.740621,-1.68558435 116.782479,0.791443929 L220.722315,52.7316305 C226.772545,55.7505088 226.074441,64.574922 219.636377,66.6649146 L129.115639,95.8474039 L129.115639,137.492442 C137.105044,138.189106 143.310408,144.768712 143.310408,152.896461 L143.310408,182.698208 L185.584445,182.698208 L185.584445,152.896461 C185.584445,144.381677 192.565479,137.415035 201.097854,137.415035 L215.447757,137.415035 C223.980131,137.415035 230.961165,144.381677 230.961165,152.896461 L230.961165,182.698208 L230.961165,266.839762 Z M751.119634,137.353107 C759.646181,137.353107 766.622446,144.24308 766.776699,152.835417 L766.776699,182.640355 L766.776699,266.868334 C766.776699,270.971351 765.149679,274.842122 762.20337,277.783908 L725.926015,314.014326 C722.982031,316.878696 721.354236,320.826883 721.354236,324.9299 L721.354236,707.516916 C721.354236,716.032612 714.37797,723 705.851424,723 L586.013138,723 L585.237997,324.77507 C585.237997,320.672052 583.610977,316.801281 580.666218,313.859495 L544.388863,277.629078 C541.443329,274.764707 539.815534,270.81652 539.815534,266.713503 L539.815534,182.562939 L539.815534,152.758002 C539.815534,144.242306 546.791799,137.274918 555.318346,137.274918 L569.658447,137.274918 C578.184993,137.274918 585.161259,144.242306 585.161259,152.758002 L585.161259,182.562939 L627.483935,182.562939 L627.483935,152.758002 C627.483935,144.861629 633.454068,138.358733 641.12796,137.429748 L641.12796,7.52667038 C641.12796,1.95276 647.019028,-1.68576483 652.057442,0.791528673 L755.926281,52.7372768 C761.971603,55.7564783 761.275526,64.5818364 754.841084,66.6720527 L664.382952,95.858441 L664.382952,137.430523 C672.521929,137.8176 679.031559,144.552741 679.031559,152.836192 L679.031559,182.641129 L721.276721,182.641129 L721.276721,152.836192 C721.276721,144.320495 728.252987,137.353107 736.779533,137.353107 L751.119634,137.353107 Z M521.314931,361.793647 L521.392387,392.101586 L552.684466,392.179098 L552.684466,723 L491.49451,723 C482.974389,723 476.003381,716.023927 476.003381,707.497615 L476.003381,632.311046 C476.003381,582.16083 435.415851,541.622092 385.380281,541.622092 C335.343937,541.622092 294.757181,582.16083 294.757181,632.311046 L294.757181,707.497615 C294.757181,716.023927 287.786173,723 279.266053,723 L215.752427,723 L215.752427,392.179098 L249.368175,392.101586 L249.445631,361.793647 C249.445631,353.267336 256.416639,346.291262 264.936759,346.291262 L324.577603,346.291262 C333.097723,346.291262 340.068731,353.267336 340.068731,361.793647 L340.068731,391.635739 L385.380281,391.635739 L430.691831,391.635739 L430.691831,361.793647 C430.691831,353.267336 437.662839,346.291262 446.182959,346.291262 L505.823803,346.291262 C514.343924,346.291262 521.314931,353.267336 521.314931,361.793647 Z M366.195972,35 C387.291168,35 404.392553,51.7214254 404.392857,72.3479969 C404.392857,72.7605521 404.377039,73.1799486 404.347227,73.6058888 C402.61178,71.5020653 400.338511,69.8580908 396.991119,69.8580908 C391.425823,69.8580908 388.827062,74.4012548 386.738745,78.0511936 C384.691495,81.6306382 383.516075,83.3168498 381.592633,83.3168498 C379.669191,83.3168498 378.493163,81.6306382 376.445913,78.0511936 C374.357292,74.4009573 371.758531,69.8580908 366.193539,69.8580908 C360.628546,69.8580908 358.029786,74.4012548 355.941469,78.0511936 C353.894218,81.6306382 352.719103,83.3168498 350.795357,83.3168498 C348.871915,83.3168498 347.696799,81.6306382 345.649245,78.0511936 C343.560624,74.4009573 340.962167,69.8580908 335.397175,69.8580908 C332.052521,69.8580908 329.780165,71.4999832 328.045325,73.6017245 C328.015514,73.177569 328,72.7593623 328,72.3479969 C328,51.7214254 345.100776,35 366.195972,35 Z M397.579506,76.1346154 C399.50013,76.1346154 400.672783,77.820827 402.716957,81.4002716 C402.838077,81.6129442 402.961322,81.8291862 403.086996,82.0463206 C398.519024,94.6882976 386.547221,110.522447 377.604948,124.451465 L356.09468,124.451465 C347.1518,110.52096 335.17848,94.6850257 330.611722,82.0430487 C330.736181,81.8265092 330.859123,81.6117545 330.979636,81.4002716 C333.022899,77.820827 334.196159,76.1346154 336.11557,76.1346154 C338.03498,76.1346154 339.207633,77.820827 341.250896,81.4002716 C343.334836,85.0505079 345.928149,89.5933744 351.481174,89.5933744 C357.034806,89.5933744 359.627816,85.0505079 361.711756,81.4002716 C363.754716,77.820827 364.927368,76.1346154 366.847082,76.1346154 C368.766493,76.1346154 369.939752,77.820827 371.982712,81.4002716 C374.066652,85.0508053 376.659966,89.5933744 382.213598,89.5933744 C387.766622,89.5933744 390.360543,85.0505079 392.443876,81.4002716 C394.486835,77.820827 395.659792,76.1346154 397.579506,76.1346154 Z M351.505495,132.93956 L381.540293,132.93956 L381.540293,148.907113 C381.540293,151.62351 379.276034,153.833333 376.493028,153.833333 L356.552759,153.833333 C353.769754,153.833333 351.505495,151.62351 351.505495,148.907113 L351.505495,132.93956 Z"></path>
                    </g>
                </g>
            </g>
        </g>
    </g>
</svg>