<?xml version="1.0" encoding="UTF-8"?>
<svg width="559px" height="532px" viewBox="0 0 559 532" version="1.1" xmlns="http://www.w3.org/2000/svg" xmlns:xlink="http://www.w3.org/1999/xlink">
    <!-- Generator: Sketch 48.2 (47327) - http://www.bohemiancoding.com/sketch -->
    <title>chapters-postBackground</title>
    <desc>Created with Sketch.</desc>
    <defs>
        <rect id="path-1" x="0" y="0" width="559" height="532"></rect>
        <linearGradient x1="46.7919254%" y1="30.2922715%" x2="45.7203537%" y2="74.7206845%" id="linearGradient-3">
            <stop stop-color="#BA0041" offset="0%"></stop>
            <stop stop-color="#FF1A8B" offset="100%"></stop>
        </linearGradient>
        <linearGradient x1="44.8886356%" y1="29.1715408%" x2="45.7203537%" y2="74.7206845%" id="linearGradient-4">
            <stop stop-color="#BA0041" offset="0%"></stop>
            <stop stop-color="#FF1A8B" offset="100%"></stop>
        </linearGradient>
        <linearGradient x1="44.4309738%" y1="31.4969483%" x2="45.7203537%" y2="74.7206845%" id="linearGradient-5">
            <stop stop-color="#BA0041" offset="0%"></stop>
            <stop stop-color="#FF1A8B" offset="100%"></stop>
        </linearGradient>
        <linearGradient x1="45.7203539%" y1="0%" x2="45.7203537%" y2="74.7206845%" id="linearGradient-6">
            <stop stop-color="#BA0041" offset="0%"></stop>
            <stop stop-color="#FF1A8B" offset="100%"></stop>
        </linearGradient>
    </defs>
    <g id="Design11" stroke="none" stroke-width="1" fill="none" fill-rule="evenodd">
        <g id="chapters-postBackground">
            <g id="chapters-postBackground-Copy">
                <mask id="mask-2" fill="white">
                    <use xlink:href="#path-1"></use>
                </mask>
                <g id="Mask"></g>
                <g id="Group-7" mask="url(#mask-2)">
                    <g transform="translate(15.000000, -158.000000)">
                        <path d="M461.459195,299.862068 C403.472324,265.069946 204.659718,347.391487 165.228646,400.739408 C165.228646,400.739408 153.631272,412.336783 165.228646,430.892581 C176.82602,449.44838 311.508733,680.462785 311.508733,680.462785 C313.828208,682.78226 323.106107,685.101735 334.703482,678.14331 C404.287726,634.073289 574.391361,577.114864 627.739282,588.712238 L461.459195,299.862068 Z" id="cover" fill="url(#linearGradient-3)" fill-rule="evenodd" transform="translate(393.906770, 487.165562) rotate(-330.000000) translate(-393.906770, -487.165562) "></path>
                        <path d="M490.64999,300.37969 C432.663119,265.587568 231.171021,303.268093 191.739949,356.616014 C191.739949,356.616014 180.142575,368.213388 191.739949,386.769187 C203.337323,405.324986 338.020036,636.339391 338.020036,636.339391 C340.339511,638.658866 349.617411,640.978341 361.214785,634.019916 C430.79903,589.949894 600.902664,532.99147 654.250585,544.588844 L490.64999,300.37969 Z" id="page1" fill="url(#linearGradient-4)" fill-rule="evenodd" transform="translate(420.418073, 462.794036) rotate(-330.000000) translate(-420.418073, -462.794036) "></path>
                        <path d="M529.64999,268.87969 C471.663119,234.087568 270.171021,271.768093 230.739949,325.116014 C230.739949,325.116014 219.142575,336.713388 230.739949,355.269187 C242.337323,373.824986 377.020036,604.839391 377.020036,604.839391 C379.339511,607.158866 388.617411,609.478341 400.214785,602.519916 C469.79903,558.449894 639.902664,501.49147 693.250585,513.088844 L529.64999,268.87969 Z" id="page2" fill="url(#linearGradient-5)" fill-rule="evenodd" transform="translate(459.418073, 431.294036) rotate(-330.000000) translate(-459.418073, -431.294036) "></path>
                        <path d="M113.432544,289.674586 C112.763259,287.879923 111.331004,286.463816 109.511834,285.800619 L106.890512,284.844674 C106.357085,284.650147 106,284.143382 106,283.573701 C106,283.004019 106.357085,282.497254 106.890525,282.302722 L109.51203,281.346764 C111.331047,280.683498 112.763244,279.267415 113.432544,277.472961 L114.399344,274.881069 C114.597494,274.349839 115.105315,274 115.670156,274 C116.234996,274 116.742817,274.349839 116.940966,274.881064 L117.907801,277.473049 C118.576908,279.267326 120.009167,280.68347 121.828163,281.346775 L124.449652,282.302727 C124.983079,282.497254 125.340164,283.004019 125.340164,283.573701 C125.340164,284.143382 124.983079,284.650147 124.449657,284.844672 L121.828242,285.800651 C120.009375,286.463784 118.577066,287.880011 117.907768,289.674586 L116.941157,292.26597 C116.743169,292.79756 116.235249,293.147693 115.670156,293.147693 C115.105063,293.147693 114.597142,292.79756 114.399346,292.266483 L113.432544,289.674586 Z M110.268995,283.724047 C112.694282,284.608209 114.607649,286.500005 115.503495,288.902184 L115.670156,289.348984 L115.836825,288.90216 C116.732688,286.500102 118.64607,284.608202 121.071058,283.724087 L121.483375,283.573723 L121.070935,283.423323 C118.645812,282.538992 116.732488,280.647194 115.836843,278.245435 L115.670156,277.798563 L115.503477,278.245411 C114.607601,280.647337 112.694363,282.539049 110.269234,283.423321 L109.856789,283.573723 L110.268995,283.724047 Z M114.870041,291.494009 L114.870341,291.493205 C114.870241,291.493473 114.870141,291.493741 114.870041,291.494009 Z M116.470461,291.494522 C116.470361,291.494254 116.470261,291.493985 116.470161,291.493717 L116.470461,291.494522 Z M114.468006,289.288349 C113.685434,287.18991 112.012589,285.535993 109.89047,284.762353 L107.269142,283.806406 C107.1706,283.77047 107.105152,283.677563 107.105152,283.573701 C107.105152,283.469838 107.1706,283.376931 107.269142,283.340995 L109.890618,282.385048 C112.012736,281.611262 113.685434,279.957345 114.468006,277.859198 L115.434808,275.267301 C115.471152,275.169866 115.565113,275.105152 115.670156,275.105152 C115.775198,275.105152 115.86916,275.169866 115.905503,275.267301 L116.872305,277.859198 C117.65473,279.957345 119.327575,281.611262 121.449546,282.385048 L124.071021,283.340995 C124.169563,283.376931 124.235011,283.469838 124.235011,283.573701 C124.235011,283.677563 124.169563,283.77047 124.071021,283.806406 L121.449694,284.762353 C119.327723,285.535993 117.654877,287.190056 116.872305,289.288349 L115.905503,291.880246 C115.86916,291.977828 115.775198,292.042541 115.670156,292.042541 C115.565113,292.042541 115.471152,291.977828 115.434808,291.880246 L114.468006,289.288349 Z" id="Combined-Shape-Copy-4" fill="url(#linearGradient-6)" fill-rule="nonzero"></path>
                        <path d="M126.432544,255.674586 C125.763259,253.879923 124.331004,252.463816 122.511834,251.800619 L119.890512,250.844674 C119.357085,250.650147 119,250.143382 119,249.573701 C119,249.004019 119.357085,248.497254 119.890525,248.302722 L122.51203,247.346764 C124.331047,246.683498 125.763244,245.267415 126.432544,243.472961 L127.399344,240.881069 C127.597494,240.349839 128.105315,240 128.670156,240 C129.234996,240 129.742817,240.349839 129.940966,240.881064 L130.907801,243.473049 C131.576908,245.267326 133.009167,246.68347 134.828163,247.346775 L137.449652,248.302727 C137.983079,248.497254 138.340164,249.004019 138.340164,249.573701 C138.340164,250.143382 137.983079,250.650147 137.449657,250.844672 L134.828242,251.800651 C133.009375,252.463784 131.577066,253.880011 130.907768,255.674586 L129.941157,258.26597 C129.743169,258.79756 129.235249,259.147693 128.670156,259.147693 C128.105063,259.147693 127.597142,258.79756 127.399346,258.266483 L126.432544,255.674586 Z M123.268995,249.724047 C125.694282,250.608209 127.607649,252.500005 128.503495,254.902184 L128.670156,255.348984 L128.836825,254.90216 C129.732688,252.500102 131.64607,250.608202 134.071058,249.724087 L134.483375,249.573723 L134.070935,249.423323 C131.645812,248.538992 129.732488,246.647194 128.836843,244.245435 L128.670156,243.798563 L128.503477,244.245411 C127.607601,246.647337 125.694363,248.539049 123.269234,249.423321 L122.856789,249.573723 L123.268995,249.724047 Z M127.870041,257.494009 L127.870341,257.493205 C127.870241,257.493473 127.870141,257.493741 127.870041,257.494009 Z M129.470461,257.494522 C129.470361,257.494254 129.470261,257.493985 129.470161,257.493717 L129.470461,257.494522 Z M127.468006,255.288349 C126.685434,253.18991 125.012589,251.535993 122.89047,250.762353 L120.269142,249.806406 C120.1706,249.77047 120.105152,249.677563 120.105152,249.573701 C120.105152,249.469838 120.1706,249.376931 120.269142,249.340995 L122.890618,248.385048 C125.012736,247.611262 126.685434,245.957345 127.468006,243.859198 L128.434808,241.267301 C128.471152,241.169866 128.565113,241.105152 128.670156,241.105152 C128.775198,241.105152 128.86916,241.169866 128.905503,241.267301 L129.872305,243.859198 C130.65473,245.957345 132.327575,247.611262 134.449546,248.385048 L137.071021,249.340995 C137.169563,249.376931 137.235011,249.469838 137.235011,249.573701 C137.235011,249.677563 137.169563,249.77047 137.071021,249.806406 L134.449694,250.762353 C132.327723,251.535993 130.654877,253.190056 129.872305,255.288349 L128.905503,257.880246 C128.86916,257.977828 128.775198,258.042541 128.670156,258.042541 C128.565113,258.042541 128.471152,257.977828 128.434808,257.880246 L127.468006,255.288349 Z" id="Combined-Shape-Copy-5" fill="url(#linearGradient-6)" fill-rule="nonzero"></path>
                        <path d="M143.223036,277.906015 C142.842761,276.88632 142.02898,276.081714 140.99536,275.704897 L139.505973,275.161747 C139.202889,275.05122 139,274.763285 139,274.439603 C139,274.11592 139.202889,273.827985 139.50598,273.717456 L140.995471,273.174298 C142.029004,272.797442 142.842752,271.992849 143.223036,270.973273 L143.772354,269.500607 C143.88494,269.198772 144.173475,269 144.494407,269 C144.815339,269 145.103873,269.198772 145.216458,269.500604 L145.765796,270.973323 C146.145971,271.992799 146.959754,272.797426 147.993274,273.174304 L149.482757,273.717459 C149.78584,273.827985 149.988729,274.11592 149.988729,274.439603 C149.988729,274.763285 149.78584,275.05122 149.48276,275.161745 L147.993319,275.704915 C146.959872,276.081695 146.14606,276.88637 145.765777,277.906015 L145.216566,279.378392 C145.104073,279.680432 144.815482,279.879371 144.494407,279.879371 C144.173331,279.879371 143.88474,279.680432 143.772355,279.378684 L143.223036,277.906015 Z M141.425565,274.525027 C142.803569,275.027392 143.89071,276.102276 144.399713,277.46715 L144.494407,277.721014 L144.589105,277.467136 C145.098118,276.102331 146.185267,275.027388 147.563101,274.52505 L147.797372,274.439615 L147.563031,274.354161 C146.18512,273.8517 145.098005,272.776815 144.589115,271.412179 L144.494407,271.158275 L144.399703,271.412165 C143.890682,272.776896 142.803616,273.851732 141.425701,274.35416 L141.191357,274.439615 L141.425565,274.525027 Z M144.039796,278.939778 L144.039966,278.939321 C144.03991,278.939473 144.039853,278.939626 144.039796,278.939778 Z M144.949126,278.940069 C144.949069,278.939917 144.949012,278.939764 144.948955,278.939612 L144.949126,278.940069 Z M143.811367,277.686562 C143.366724,276.494267 142.416244,275.554541 141.210494,275.114973 L139.721104,274.571822 C139.665114,274.551404 139.627927,274.498616 139.627927,274.439603 C139.627927,274.38059 139.665114,274.327802 139.721104,274.307384 L141.210578,273.764232 C142.416327,273.324581 143.366724,272.384855 143.811367,271.192726 L144.360686,269.720057 C144.381336,269.664696 144.434724,269.627927 144.494407,269.627927 C144.55409,269.627927 144.607477,269.664696 144.628127,269.720057 L145.177446,271.192726 C145.622005,272.384855 146.572486,273.324581 147.778151,273.764232 L149.267626,274.307384 C149.323615,274.327802 149.360802,274.38059 149.360802,274.439603 C149.360802,274.498616 149.323615,274.551404 149.267626,274.571822 L147.778235,275.114973 C146.57257,275.554541 145.622089,276.49435 145.177446,277.686562 L144.628127,279.159231 C144.607477,279.214675 144.55409,279.251444 144.494407,279.251444 C144.434724,279.251444 144.381336,279.214675 144.360686,279.159231 L143.811367,277.686562 Z" id="Combined-Shape-Copy-3" fill="url(#linearGradient-6)" fill-rule="nonzero"></path>
                        <path d="M164.223036,292.906015 C163.842761,291.88632 163.02898,291.081714 161.99536,290.704897 L160.505973,290.161747 C160.202889,290.05122 160,289.763285 160,289.439603 C160,289.11592 160.202889,288.827985 160.50598,288.717456 L161.995471,288.174298 C163.029004,287.797442 163.842752,286.992849 164.223036,285.973273 L164.772354,284.500607 C164.88494,284.198772 165.173475,284 165.494407,284 C165.815339,284 166.103873,284.198772 166.216458,284.500604 L166.765796,285.973323 C167.145971,286.992799 167.959754,287.797426 168.993274,288.174304 L170.482757,288.717459 C170.78584,288.827985 170.988729,289.11592 170.988729,289.439603 C170.988729,289.763285 170.78584,290.05122 170.48276,290.161745 L168.993319,290.704915 C167.959872,291.081695 167.14606,291.88637 166.765777,292.906015 L166.216566,294.378392 C166.104073,294.680432 165.815482,294.879371 165.494407,294.879371 C165.173331,294.879371 164.88474,294.680432 164.772355,294.378684 L164.223036,292.906015 Z M162.425565,289.525027 C163.803569,290.027392 164.89071,291.102276 165.399713,292.46715 L165.494407,292.721014 L165.589105,292.467136 C166.098118,291.102331 167.185267,290.027388 168.563101,289.52505 L168.797372,289.439615 L168.563031,289.354161 C167.18512,288.8517 166.098005,287.776815 165.589115,286.412179 L165.494407,286.158275 L165.399703,286.412165 C164.890682,287.776896 163.803616,288.851732 162.425701,289.35416 L162.191357,289.439615 L162.425565,289.525027 Z M165.039796,293.939778 L165.039966,293.939321 C165.03991,293.939473 165.039853,293.939626 165.039796,293.939778 Z M165.949126,293.940069 C165.949069,293.939917 165.949012,293.939764 165.948955,293.939612 L165.949126,293.940069 Z M164.811367,292.686562 C164.366724,291.494267 163.416244,290.554541 162.210494,290.114973 L160.721104,289.571822 C160.665114,289.551404 160.627927,289.498616 160.627927,289.439603 C160.627927,289.38059 160.665114,289.327802 160.721104,289.307384 L162.210578,288.764232 C163.416327,288.324581 164.366724,287.384855 164.811367,286.192726 L165.360686,284.720057 C165.381336,284.664696 165.434724,284.627927 165.494407,284.627927 C165.55409,284.627927 165.607477,284.664696 165.628127,284.720057 L166.177446,286.192726 C166.622005,287.384855 167.572486,288.324581 168.778151,288.764232 L170.267626,289.307384 C170.323615,289.327802 170.360802,289.38059 170.360802,289.439603 C170.360802,289.498616 170.323615,289.551404 170.267626,289.571822 L168.778235,290.114973 C167.57257,290.554541 166.622089,291.49435 166.177446,292.686562 L165.628127,294.159231 C165.607477,294.214675 165.55409,294.251444 165.494407,294.251444 C165.434724,294.251444 165.381336,294.214675 165.360686,294.159231 L164.811367,292.686562 Z" id="Combined-Shape-Copy-6" fill="url(#linearGradient-6)" fill-rule="nonzero"></path>
                        <path d="M99.6512783,219.604371 C98.7770603,219.604371 97.9170432,219.662837 97.0701878,219.76498 L91.7483339,201.675655 C92.2682234,201.074145 92.5841057,200.293799 92.5841057,199.439166 C92.5841057,197.540058 91.0330961,196 89.1204845,196 L74.8333936,196 C72.920782,196 71.3697725,197.540058 71.3697725,199.439166 C71.3697725,201.338273 72.920782,202.878332 74.8333936,202.878332 L83.8821039,202.878332 L80.2030455,208.692929 C80.0406017,208.672294 79.8740015,208.660601 79.707055,208.665072 L48.7762253,209.110444 C49.5427247,208.479701 50.0310953,207.527052 50.0310953,206.461599 C50.0310953,204.562491 48.4804321,203.022433 46.5674741,203.022433 L38.2236108,203.022433 C36.3106528,203.022433 34.7599896,204.562491 34.7599896,206.461599 C34.7599896,208.360706 36.3106528,209.900764 38.2236108,209.900764 L38.8467162,209.900764 C38.9298431,210.20857 39.0555726,210.510185 39.2308318,210.796323 L40.6218221,213.069268 L36.7827444,220.590036 C34.7513306,219.951039 32.590031,219.604027 30.3483753,219.604027 C18.5769125,219.604371 9,229.113321 9,240.802013 C9,252.490706 18.5769125,262 30.3483753,262 C40.5141034,262 49.037036,254.906033 51.1751293,245.443512 L62.5974592,246.099705 C62.6646534,246.103488 62.7315013,246.105551 62.7980029,246.105551 C63.9842931,246.105551 65.0943837,245.500946 65.7303045,244.495678 L87.1631922,210.621614 L90.4200352,221.690913 C83.257613,225.115634 78.3025566,232.394973 78.3025566,240.802013 C78.3025566,252.490363 87.8794691,262 99.6512783,262 C111.423088,262 121,252.490706 121,240.802013 C121,229.113321 111.422741,219.604371 99.6512783,219.604371 Z M44.8557525,219.98887 L56.3996555,238.853726 L51.5782948,238.576873 C50.9354468,232.48611 47.6831065,227.157467 42.9559563,223.710047 L44.8557525,219.98887 Z M15.9272423,240.802013 C15.9272423,232.906377 22.3965939,226.482703 30.3483753,226.482703 C31.4619295,226.482703 32.5450039,226.612703 33.5865148,226.851381 L27.2588253,239.247511 C26.730623,240.282012 26.7631811,241.511169 27.3457622,242.516782 C27.9283432,243.522394 28.9819768,244.168613 30.148178,244.235677 L44.1249285,245.038722 C42.3016783,250.872923 36.8153024,255.121668 30.3483753,255.121668 C22.3965939,255.121668 15.9272423,248.697994 15.9272423,240.802013 Z M35.8292095,237.671685 L39.7618049,229.967609 C42.1884179,232.049336 43.910184,234.917601 44.5215131,238.171052 L35.8292095,237.671685 Z M62.8406054,236.133346 L50.4986841,215.964702 L75.832302,215.599806 L62.8406054,236.133346 Z M99.6512783,255.121668 C91.6991505,255.121668 85.2297989,248.697994 85.2297989,240.802013 C85.2297989,235.52874 88.1174198,230.915443 92.4029583,228.430646 L96.3265483,241.766356 C96.8634096,243.589801 98.7877975,244.636339 100.622131,244.103269 C102.458543,243.570542 103.512177,241.660773 102.975662,239.838015 L99.0510327,226.498179 C99.250191,226.489925 99.4500419,226.483046 99.6512783,226.483046 C107.603406,226.483046 114.072758,232.90672 114.072758,240.802357 C114.072758,248.697994 107.603406,255.121668 99.6512783,255.121668 Z" id="Shape" fill="url(#linearGradient-6)" fill-rule="nonzero" transform="translate(65.000000, 229.000000) scale(-1, 1) rotate(-21.000000) translate(-65.000000, -229.000000) "></path>
                    </g>
                </g>
            </g>
        </g>
    </g>
</svg>