<?xml version="1.0" encoding="UTF-8"?>
<svg width="562px" height="526px" viewBox="0 0 562 526" version="1.1" xmlns="http://www.w3.org/2000/svg" xmlns:xlink="http://www.w3.org/1999/xlink">
    <!-- Generator: Sketch 48.2 (47327) - http://www.bohemiancoding.com/sketch -->
    <title>sbt-postBackground</title>
    <desc>Created with Sketch.</desc>
    <defs>
        <rect id="path-1" x="0" y="0" width="562" height="526"></rect>
        <linearGradient x1="50%" y1="-2.1107696%" x2="50%" y2="77.7209976%" id="linearGradient-3">
            <stop stop-color="#00ACFF" offset="0%"></stop>
            <stop stop-color="#22D4FF" offset="100%"></stop>
        </linearGradient>
    </defs>
    <g id="Design11" stroke="none" stroke-width="1" fill="none" fill-rule="evenodd">
        <g id="sbt-postBackground">
            <g id="sbt-postBackground-Copy">
                <mask id="mask-2" fill="white">
                    <use xlink:href="#path-1"></use>
                </mask>
                <g id="Mask"></g>
                <g id="Group-7" mask="url(#mask-2)" fill="url(#linearGradient-3)">
                    <g transform="translate(42.000000, 58.000000)" id="Combined-Shape">
                        <path d="M157.290897,349.480275 C157.097685,345.344436 157,341.183626 157,337 C157,219.894295 233.537829,120.664958 339.318825,86.6066518 L339.02672,77.7282161 L319.589615,65.6370327 C309.830633,59.5662912 311.370439,44.9160178 322.178342,41.0069431 L343.704598,33.2211823 L349.197601,10.9990158 C351.955528,-0.15828961 366.364592,-3.22103074 373.422168,5.84992499 L387.478846,23.9166786 L410.310813,22.2738079 C421.774288,21.4489553 429.139773,34.2063506 422.693693,43.7215844 L409.854941,62.6732129 L414.480935,74.0567596 C416.316067,74.0189814 418.155817,74 420,74 C565.250889,74 683,191.749111 683,337 C683,482.250889 565.250889,600 420,600 C289.998178,600 182.026739,505.676715 160.788963,381.733425 L143.522684,406.286628 L155.754621,437.960729 C161.896033,453.863662 146.99419,469.843932 130.701593,464.826814 L98.2513912,454.834146 L71.9074074,476.255245 C58.6806199,487.010351 38.8775576,477.776032 38.6144315,460.730476 L38.0903595,426.780596 L9.5769444,408.345462 C-4.73907116,399.08955 -2.07619412,377.402157 14.0537824,371.884543 L46.1800897,360.895031 L54.9018138,328.080392 C59.2808171,311.604818 80.7296279,307.435592 90.9616277,321.071075 L111.34085,348.229062 L145.244587,346.383634 C149.813145,346.134961 153.918607,347.329582 157.290897,349.480273 Z M76.1528723,101.698521 C69.7684748,103.664523 63.9290567,97.4025141 66.3356228,91.17081 L71.1288151,78.7590349 L63.4753209,67.8755207 C59.6326545,62.4111259 63.7836997,54.922442 70.4540723,55.2855198 L83.7395498,56.0086672 L91.7253272,45.3665708 C95.7348263,40.023387 104.139731,41.657135 105.855682,48.1132336 L109.273367,60.9719384 L121.862343,65.2782753 C128.183016,67.4404009 129.226488,75.9387967 123.616631,79.5658072 L112.443399,86.7897764 L112.238036,100.093335 C112.134928,106.772786 104.374924,110.391336 99.1918909,106.176853 L88.8687692,97.7828066 L76.1528723,101.698521 Z"></path>
                    </g>
                </g>
            </g>
        </g>
    </g>
</svg>