<?xml version="1.0" encoding="UTF-8"?>
<svg width="559px" height="532px" viewBox="0 0 559 532" version="1.1" xmlns="http://www.w3.org/2000/svg" xmlns:xlink="http://www.w3.org/1999/xlink">
    <!-- Generator: Sketch 48.2 (47327) - http://www.bohemiancoding.com/sketch -->
    <title>sbt-postBackground</title>
    <desc>Created with Sketch.</desc>
    <defs>
        <rect id="path-1" x="0" y="0" width="559" height="532"></rect>
        <linearGradient x1="50%" y1="0%" x2="50%" y2="78.0840055%" id="linearGradient-3">
            <stop stop-color="#007AFF" offset="0%"></stop>
            <stop stop-color="#22D4FF" offset="100%"></stop>
        </linearGradient>
        <linearGradient x1="94.303292%" y1="28.6894626%" x2="-20.1261165%" y2="77.4515633%" id="linearGradient-4">
            <stop stop-color="#007AFF" offset="0%"></stop>
            <stop stop-color="#22D4FF" offset="100%"></stop>
        </linearGradient>
    </defs>
    <g id="Design11" stroke="none" stroke-width="1" fill="none" fill-rule="evenodd">
        <g id="sbt-postBackground">
            <g>
                <mask id="mask-2" fill="white">
                    <use xlink:href="#path-1"></use>
                </mask>
                <g id="Mask"></g>
                <g id="Group-7" mask="url(#mask-2)">
                    <g transform="translate(13.000000, -10.000000)">
                        <path d="M170.775761,440.167489 L152.520301,466.124754 L165.454761,499.619624 C171.948895,516.436729 156.188269,533.336744 138.957942,528.031987 L104.640052,517.466425 L76.7782464,540.120758 C62.7893908,551.495045 41.8467207,541.730764 41.5693579,523.705015 L41.0169304,487.802871 L10.8629272,468.309148 C-4.27679477,458.52174 -1.45945023,435.587068 15.5994565,429.751299 L49.5759275,418.128115 L58.8015345,383.425999 C63.4335272,366.002761 86.1174121,361.592635 96.937759,376.01168 L118.4888,404.730302 L154.344542,402.776938 C159.172109,402.51394 163.510656,403.774715 167.075299,406.045321 C166.871124,401.672769 166.767898,397.273823 166.767898,392.850764 C166.767898,268.999327 247.705102,164.054042 359.566262,128.034126 L359.257113,118.643546 L338.702434,105.855457 C328.382341,99.4348136 330.010281,83.9407795 341.439331,79.8068342 L364.202737,71.5731956 L370.010913,48.0712577 C372.927082,36.2714045 388.164314,33.0326309 395.627799,42.6262203 L410.492931,61.7339111 L434.637259,59.9970031 C446.759644,59.1249364 454.548832,72.6172982 447.732469,82.6804079 L434.15622,102.723249 L439.048,114.76155 C440.988499,114.7216 442.93388,114.701528 444.883949,114.701528 C598.483203,114.701528 723,239.233183 723,392.850764 C723,546.468345 598.483203,671 444.883949,671 C307.41251,671 193.236882,571.246876 170.775761,440.167489 Z" id="Combined-Shape" fill="url(#linearGradient-3)" fill-rule="evenodd"></path>
                        <path d="M199.565305,67.2920121 C195.016274,71.1395438 188.042865,68.0166491 187.841587,62.0417909 L187.440698,50.1415795 L177.367058,43.8432478 C172.309285,40.6809813 173.099812,33.0616792 178.696094,31.033651 L189.842291,26.994398 L192.676811,15.4386304 C194.099967,9.63671058 201.561948,8.05061758 205.221919,12.7720855 L212.511536,22.1759012 L224.337006,21.3323758 C230.274337,20.9088586 234.095569,27.5479013 230.761273,32.4939571 L224.120307,42.345088 L228.594329,53.3795282 C230.840646,58.9196999 225.740316,64.608947 220.019637,62.9443097 L208.625677,59.6288276 L199.565305,67.2920121 Z" id="Combined-Shape-Copy" fill="url(#linearGradient-3)" fill-rule="evenodd" transform="translate(202.998313, 39.492106) rotate(24.000000) translate(-202.998313, -39.492106) "></path>
                        <path d="M106.923441,163.517949 L106.923441,146.244986 C106.923441,107.707941 90.5502698,84.4307955 83.7021087,76.3829162 C82.9636677,75.507671 81.8779836,75.0087813 80.7351583,75.0000288 C79.5879375,74.9956526 78.5022534,75.4901661 77.7506259,76.3566588 C70.7881823,84.3870333 54.0853502,107.672931 54.0853502,146.244986 L54.0853502,163.522326 L50.8810438,165.671052 C44.7053914,169.819715 41,176.756033 41,184.178112 L41,204.794512 C41,206.015479 41.6769042,207.144545 42.7581928,207.726583 C43.8438769,208.304245 45.1581261,208.238601 46.1778779,207.55591 L56.5863796,200.654602 C59.5093752,198.72031 62.9378512,197.683145 66.4498414,197.683145 L74.1023758,197.683145 L74.1023758,207.674068 C74.1023758,209.512083 75.5968397,211 77.4385467,211 L83.5658488,211 C85.4075558,211 86.9020197,209.512083 86.9020197,207.674068 L86.9020197,197.683145 L94.5501586,197.683145 C98.0621488,197.683145 101.49502,198.711558 104.422411,200.658978 L114.822122,207.55591 C115.841874,208.238601 117.156123,208.304245 118.241807,207.726583 C119.323096,207.144545 120,206.015479 120,204.794512 L120,184.178112 C120,176.764785 116.290213,169.828467 110.118956,165.671052 L106.923441,163.517949 Z M80.5065932,136.455369 C74.1507261,136.455369 68.9904301,131.322056 68.9904301,124.994033 C68.9904301,118.661634 74.1507261,113.532698 80.5065932,113.532698 C86.8580649,113.532698 92.0183609,118.661634 92.0183609,124.994033 C92.0183609,131.322056 86.8580649,136.455369 80.5065932,136.455369 Z" id="Shape" fill="url(#linearGradient-4)" fill-rule="nonzero" transform="translate(80.500000, 143.000000) rotate(-54.000000) translate(-80.500000, -143.000000) "></path>
                    </g>
                </g>
            </g>
        </g>
    </g>
</svg>