<?xml version="1.0" standalone="no"?>
<!DOCTYPE svg PUBLIC "-//W3C//DTD SVG 1.1//EN" "http://www.w3.org/Graphics/SVG/1.1/DTD/svg11.dtd">
<svg width="81.0001999999999mm" height="60.0002mm"
 viewBox="0 0 81.0001999999999 60.0002"
 xmlns="http://www.w3.org/2000/svg" version="1.1"
 xmlns:xlink="http://www.w3.org/1999/xlink">
<desc>Output from Flights of Ideas SVG Sketchup Plugin</desc>

  <g id="face0" fill="none" stroke="rgb(0,0,255)" stroke-width="1" stroke-miterlimit="4" stroke-dasharray="none" stroke-linejoin="round" stroke-linecap="round">
    <line x1="35.5001" y1="3.0001" x2="3.0001" y2="3.0001"/>
    <line x1="3.0001" y1="3.0001" x2="3.0001" y2="25.0001"/>
    <line x1="3.0001" y1="25.0001" x2="0.0001" y2="25.0001"/>
    <line x1="0.0001" y1="25.0001" x2="0.0001" y2="35.0001"/>
    <line x1="0.0001" y1="35.0001" x2="3.0001" y2="35.0001"/>
    <line x1="3.0001" y1="35.0001" x2="3.0001" y2="57.0001"/>
    <line x1="3.0001" y1="57.0001" x2="35.5001" y2="57.0001"/>
    <line x1="35.5001" y1="57.0001" x2="35.5001" y2="60.0001"/>
    <line x1="35.5001" y1="60.0001" x2="45.5001" y2="60.0001"/>
    <line x1="45.5001" y1="60.0001" x2="45.5001" y2="57.0001"/>
    <line x1="45.5001" y1="57.0001" x2="78.0001" y2="57.0001"/>
    <line x1="78.0001" y1="57.0001" x2="78.0001" y2="35.0001"/>
    <line x1="78.0001" y1="35.0001" x2="81.0000999999999" y2="35.0001"/>
    <line x1="81.0000999999999" y1="35.0001" x2="81.0000999999999" y2="25.0001"/>
    <line x1="81.0000999999999" y1="25.0001" x2="78.0001" y2="25.0001"/>
    <line x1="78.0001" y1="25.0001" x2="78.0001" y2="3.0001"/>
    <line x1="78.0001" y1="3.0001" x2="45.5001" y2="3.0001"/>
    <line x1="45.5001" y1="3.0001" x2="45.5001" y2="0.0001"/>
    <line x1="45.5001" y1="0.0001" x2="35.5001" y2="0.0001"/>
    <line x1="35.5001" y1="0.0001" x2="35.5001" y2="3.0001"/>
    <line x1="30.5001" y1="23.5001000000001" x2="30.5001" y2="15.5001000000001"/>
    <line x1="30.5001" y1="15.5001000000001" x2="50.5001000000001" y2="15.5001000000001"/>
    <line x1="50.5001000000001" y1="15.5001000000001" x2="50.5001000000001" y2="23.5001000000001"/>
    <line x1="50.5001000000001" y1="23.5001000000001" x2="30.5001" y2="23.5001000000001"/>
  </g>
</svg>
