<?xml version="1.0" standalone="no"?>
<!DOCTYPE svg PUBLIC "-//W3C//DTD SVG 1.1//EN" "http://www.w3.org/Graphics/SVG/1.1/DTD/svg11.dtd">
<svg width="87.0002000000001mm" height="272.840074296562mm"
 viewBox="0 0 87.0002000000001 272.840074296562"
 xmlns="http://www.w3.org/2000/svg" version="1.1"
 xmlns:xlink="http://www.w3.org/1999/xlink">
<desc>Output from Flights of Ideas SVG Sketchup Plugin</desc>

  <g id="face0" fill="none" stroke="rgb(0,0,255)" stroke-width="1" stroke-miterlimit="4" stroke-dasharray="none" stroke-linejoin="round" stroke-linecap="round">
    <line x1="0.0001" y1="0.0001" x2="0.0001" y2="272.839974296562"/>
    <line x1="0.0001" y1="272.839974296562" x2="87.0001000000001" y2="272.839974296562"/>
    <line x1="87.0001000000001" y1="272.839974296562" x2="87.0001000000001" y2="0.0001"/>
    <line x1="87.0001000000001" y1="0.0001" x2="0.0001" y2="0.0001"/>
    <line x1="84.0001" y1="10.0001" x2="84.0001" y2="20.0001"/>
    <line x1="84.0001" y1="20.0001" x2="81.0001" y2="20.0001"/>
    <line x1="81.0001" y1="20.0001" x2="81.0001" y2="10.0001000000001"/>
    <line x1="81.0001" y1="10.0001000000001" x2="84.0001" y2="10.0001"/>
    <line x1="38.5001000000001" y1="6.00010000000011" x2="38.5001000000001" y2="3.00010000000006"/>
    <line x1="38.5001000000001" y1="3.00010000000006" x2="48.5001000000001" y2="3.00010000000011"/>
    <line x1="48.5001000000001" y1="3.00010000000011" x2="48.5001000000001" y2="6.00010000000011"/>
    <line x1="48.5001000000001" y1="6.00010000000011" x2="38.5001000000001" y2="6.00010000000011"/>
    <line x1="6.00010000000009" y1="20.0001000000002" x2="3.00010000000003" y2="20.0001000000001"/>
    <line x1="3.00010000000003" y1="20.0001000000001" x2="3.00010000000003" y2="10.0001000000002"/>
    <line x1="3.00010000000003" y1="10.0001000000002" x2="6.00010000000009" y2="10.0001000000001"/>
    <line x1="6.00010000000009" y1="10.0001000000001" x2="6.00010000000009" y2="20.0001000000002"/>
    <line x1="48.5001000000001" y1="266.839974296562" x2="48.5001000000001" y2="269.839974296562"/>
    <line x1="48.5001000000001" y1="269.839974296562" x2="38.5001000000001" y2="269.839974296562"/>
    <line x1="38.5001000000001" y1="269.839974296562" x2="38.5001000000001" y2="266.839974296562"/>
    <line x1="38.5001000000001" y1="266.839974296562" x2="48.5001000000001" y2="266.839974296562"/>
  </g>
</svg>
