<?xml version="1.0" standalone="no"?>
<!DOCTYPE svg PUBLIC "-//W3C//DTD SVG 1.1//EN" "http://www.w3.org/Graphics/SVG/1.1/DTD/svg11.dtd">
<svg width="83.0000000000001mm" height="33.0mm"
 viewBox="0 0 83.0000000000001 33.0"
 xmlns="http://www.w3.org/2000/svg" version="1.1"
 xmlns:xlink="http://www.w3.org/1999/xlink">
<desc>Output from Flights of Ideas SVG Sketchup Plugin</desc>

  <g id="face0" fill="none" stroke="rgb(0,0,255)" stroke-width="1" stroke-miterlimit="4" stroke-dasharray="none" stroke-linejoin="round" stroke-linecap="round">
    <line x1="59.0000000000001" y1="4.00000000000011" x2="4.00000000000014" y2="4.00000000000011"/>
    <line x1="4.00000000000014" y1="4.00000000000011" x2="4.00000000000003" y2="17.0"/>
    <line x1="4.00000000000003" y1="17.0" x2="1.0" y2="17.0"/>
    <line x1="1.0" y1="17.0" x2="1.00000000000009" y2="26.9999999999999"/>
    <line x1="1.00000000000009" y1="26.9999999999999" x2="4.00000000000014" y2="27.0000000000001"/>
    <line x1="4.00000000000014" y1="27.0000000000001" x2="4.00000000000014" y2="32.0"/>
    <line x1="4.00000000000014" y1="32.0" x2="79.0" y2="32.0"/>
    <line x1="79.0" y1="32.0" x2="79.0" y2="26.9999999999999"/>
    <line x1="79.0" y1="26.9999999999999" x2="82.0000000000001" y2="27.0000000000001"/>
    <line x1="82.0000000000001" y1="27.0000000000001" x2="82.0000000000001" y2="17.0"/>
    <line x1="82.0000000000001" y1="17.0" x2="79.0" y2="17.0"/>
    <line x1="79.0" y1="17.0" x2="79.0" y2="4.00000000000011"/>
    <line x1="79.0" y1="4.00000000000011" x2="69.0" y2="4.00000000000011"/>
    <line x1="69.0" y1="4.00000000000011" x2="69.0" y2="1.0"/>
    <line x1="69.0" y1="1.0" x2="59.0000000000001" y2="1.0"/>
    <line x1="59.0000000000001" y1="1.0" x2="59.0000000000001" y2="4.00000000000011"/>
    <line x1="35.3999999383656" y1="14.0000000000001" x2="47.5999999383657" y2="14.0000000000001"/>
    <line x1="47.5999999383657" y1="14.0000000000001" x2="47.5999999504508" y2="26.199999876731"/>
    <line x1="47.5999999504508" y1="26.199999876731" x2="35.3999999504507" y2="26.2"/>
    <line x1="35.3999999504507" y1="26.2" x2="35.3999999383656" y2="14.0000000000001"/>
  </g>
</svg>
