<?xml version="1.0" standalone="no"?>
<!DOCTYPE svg PUBLIC "-//W3C//DTD SVG 1.1//EN" "http://www.w3.org/Graphics/SVG/1.1/DTD/svg11.dtd">
<svg width="81.0002mm" height="60.0001999999999mm"
 viewBox="0 0 81.0002 60.0001999999999"
 xmlns="http://www.w3.org/2000/svg" version="1.1"
 xmlns:xlink="http://www.w3.org/1999/xlink">
<desc>Output from Flights of Ideas SVG Sketchup Plugin</desc>

  <g id="face0" fill="none" stroke="rgb(0,0,255)" stroke-width="1" stroke-miterlimit="4" stroke-dasharray="none" stroke-linejoin="round" stroke-linecap="round">
    <line x1="3.00010000000011" y1="18.0001" x2="3.00010000000003" y2="28.5001"/>
    <line x1="3.00010000000003" y1="28.5001" x2="5.00010000000011" y2="28.5000999999999"/>
    <line x1="5.00010000000011" y1="28.5000999999999" x2="5.00010000000011" y2="27.2000999999999"/>
    <line x1="5.00010000000011" y1="27.2000999999999" x2="7.20010000000007" y2="27.2001"/>
    <line x1="7.20010000000007" y1="27.2001" x2="7.20010000000007" y2="28.5001"/>
    <line x1="7.20010000000007" y1="28.5001" x2="10.2001" y2="28.5000999999999"/>
    <line x1="10.2001" y1="28.5000999999999" x2="10.2001" y2="31.5000999999999"/>
    <line x1="10.2001" y1="31.5000999999999" x2="7.20010000000007" y2="31.5000999999999"/>
    <line x1="7.20010000000007" y1="31.5000999999999" x2="7.20010000000007" y2="32.8001"/>
    <line x1="7.20010000000007" y1="32.8001" x2="5.00010000000011" y2="32.8001"/>
    <line x1="5.00010000000011" y1="32.8001" x2="5.00010000000011" y2="31.5000999999999"/>
    <line x1="5.00010000000011" y1="31.5000999999999" x2="3.00010000000003" y2="31.5000999999999"/>
    <line x1="3.00010000000003" y1="31.5000999999999" x2="3.00010000000003" y2="42.0000999999999"/>
    <line x1="3.00010000000003" y1="42.0000999999999" x2="0.0001" y2="42.0000999999999"/>
    <line x1="0.0001" y1="42.0000999999999" x2="0.0001" y2="52.0001"/>
    <line x1="0.0001" y1="52.0001" x2="3.00010000000003" y2="52.0000999999999"/>
    <line x1="3.00010000000003" y1="52.0000999999999" x2="3.00010000000003" y2="57.0000999999998"/>
    <line x1="3.00010000000003" y1="57.0000999999998" x2="8.00009999999997" y2="57.0000999999998"/>
    <line x1="8.00009999999997" y1="57.0000999999998" x2="8.00009999999997" y2="60.0000999999999"/>
    <line x1="8.00009999999997" y1="60.0000999999999" x2="18.0001000000001" y2="60.0000999999999"/>
    <line x1="18.0001000000001" y1="60.0000999999999" x2="18.0001000000001" y2="57.0000999999998"/>
    <line x1="18.0001000000001" y1="57.0000999999998" x2="63.0001000000001" y2="57.0000999999998"/>
    <line x1="63.0001000000001" y1="57.0000999999998" x2="63.0001000000001" y2="60.0000999999999"/>
    <line x1="63.0001000000001" y1="60.0000999999999" x2="73.0001" y2="60.0000999999999"/>
    <line x1="73.0001" y1="60.0000999999999" x2="73.0001" y2="57.0001"/>
    <line x1="73.0001" y1="57.0001" x2="78.0001000000001" y2="57.0000999999998"/>
    <line x1="78.0001000000001" y1="57.0000999999998" x2="78.0001000000001" y2="52.0000999999999"/>
    <line x1="78.0001000000001" y1="52.0000999999999" x2="81.0001" y2="52.0000999999999"/>
    <line x1="81.0001" y1="52.0000999999999" x2="81.0001" y2="42.0000999999999"/>
    <line x1="81.0001" y1="42.0000999999999" x2="78.0001000000001" y2="42.0000999999999"/>
    <line x1="78.0001000000001" y1="42.0000999999999" x2="78.0001000000001" y2="31.5000999999999"/>
    <line x1="78.0001000000001" y1="31.5000999999999" x2="76.0001000000001" y2="31.5000999999999"/>
    <line x1="76.0001000000001" y1="31.5000999999999" x2="76.0001000000001" y2="32.8001"/>
    <line x1="76.0001000000001" y1="32.8001" x2="73.8001" y2="32.8001"/>
    <line x1="73.8001" y1="32.8001" x2="73.8001" y2="31.5000999999999"/>
    <line x1="73.8001" y1="31.5000999999999" x2="70.8001" y2="31.5000999999999"/>
    <line x1="70.8001" y1="31.5000999999999" x2="70.8001" y2="28.5000999999999"/>
    <line x1="70.8001" y1="28.5000999999999" x2="73.8001" y2="28.5001"/>
    <line x1="73.8001" y1="28.5001" x2="73.8001" y2="27.2000999999999"/>
    <line x1="73.8001" y1="27.2000999999999" x2="76.0001000000001" y2="27.2001000000002"/>
    <line x1="76.0001000000001" y1="27.2001000000002" x2="76.0001000000001" y2="28.5001"/>
    <line x1="76.0001000000001" y1="28.5001" x2="78.0001000000001" y2="28.5001"/>
    <line x1="78.0001000000001" y1="28.5001" x2="78.0001000000001" y2="18.0001"/>
    <line x1="78.0001000000001" y1="18.0001" x2="81.0001" y2="18.0001"/>
    <line x1="81.0001" y1="18.0001" x2="81.0001" y2="8.00009999999989"/>
    <line x1="81.0001" y1="8.00009999999989" x2="78.0001000000001" y2="8.0001"/>
    <line x1="78.0001000000001" y1="8.0001" x2="78.0001000000001" y2="3.0001"/>
    <line x1="78.0001000000001" y1="3.0001" x2="73.0001" y2="3.00009999999989"/>
    <line x1="73.0001" y1="3.00009999999989" x2="73.0001" y2="0.0001"/>
    <line x1="73.0001" y1="0.0001" x2="63.0001000000001" y2="0.0001"/>
    <line x1="63.0001000000001" y1="0.0001" x2="63.0001000000001" y2="3.00009999999989"/>
    <line x1="63.0001000000001" y1="3.00009999999989" x2="18.0001000000001" y2="3.0001"/>
    <line x1="18.0001000000001" y1="3.0001" x2="18.0001000000001" y2="0.0001"/>
    <line x1="18.0001000000001" y1="0.0001" x2="8.00009999999997" y2="0.0001"/>
    <line x1="8.00009999999997" y1="0.0001" x2="8.00009999999997" y2="3.0001"/>
    <line x1="8.00009999999997" y1="3.0001" x2="3.00010000000003" y2="3.0001"/>
    <line x1="3.00010000000003" y1="3.0001" x2="3.00010000000003" y2="8.0001"/>
    <line x1="3.00010000000003" y1="8.0001" x2="0.000100000000085265" y2="8.0001"/>
    <line x1="0.000100000000085265" y1="8.0001" x2="0.00010000000017053" y2="18.0001"/>
    <line x1="0.00010000000017053" y1="18.0001" x2="3.00010000000011" y2="18.0001"/>
    <line x1="39.8530523872438" y1="27.5852854342773" x2="40.5001" y2="27.5001"/>
    <line x1="40.5001" y1="27.5001" x2="41.1471476127564" y2="27.5852854342773"/>
    <line x1="41.1471476127564" y1="27.5852854342773" x2="41.7501000000001" y2="27.8350364905389"/>
    <line x1="41.7501000000001" y1="27.8350364905389" x2="42.2678669529664" y2="28.2323330470336"/>
    <line x1="42.2678669529664" y1="28.2323330470336" x2="42.6651635094612" y2="28.7500999999999"/>
    <line x1="42.6651635094612" y1="28.7500999999999" x2="42.9149145657226" y2="29.3530523872437"/>
    <line x1="42.9149145657226" y1="29.3530523872437" x2="43.0000999999999" y2="30.0001"/>
    <line x1="43.0000999999999" y1="30.0001" x2="42.9149145657226" y2="30.6471476127563"/>
    <line x1="42.9149145657226" y1="30.6471476127563" x2="42.6651635094612" y2="31.2500999999999"/>
    <line x1="42.6651635094612" y1="31.2500999999999" x2="42.2678669529664" y2="31.7678669529663"/>
    <line x1="42.2678669529664" y1="31.7678669529663" x2="41.7501000000001" y2="32.1651635094611"/>
    <line x1="41.7501000000001" y1="32.1651635094611" x2="41.1471476127564" y2="32.4149145657225"/>
    <line x1="41.1471476127564" y1="32.4149145657225" x2="40.5001" y2="32.5001"/>
    <line x1="40.5001" y1="32.5001" x2="39.8530523872438" y2="32.4149145657226"/>
    <line x1="39.8530523872438" y1="32.4149145657226" x2="39.2501" y2="32.1651635094611"/>
    <line x1="39.2501" y1="32.1651635094611" x2="38.7323330470337" y2="31.7678669529663"/>
    <line x1="38.7323330470337" y1="31.7678669529663" x2="38.335036490539" y2="31.2501"/>
    <line x1="38.335036490539" y1="31.2501" x2="38.0852854342774" y2="30.6471476127563"/>
    <line x1="38.0852854342774" y1="30.6471476127563" x2="38.0001" y2="30.0000999999999"/>
    <line x1="38.0001" y1="30.0000999999999" x2="38.0852854342774" y2="29.3530523872437"/>
    <line x1="38.0852854342774" y1="29.3530523872437" x2="38.335036490539" y2="28.7500999999999"/>
    <line x1="38.335036490539" y1="28.7500999999999" x2="38.7323330470337" y2="28.2323330470336"/>
    <line x1="38.7323330470337" y1="28.2323330470336" x2="39.2501" y2="27.8350364905389"/>
    <line x1="39.2501" y1="27.8350364905389" x2="39.8530523872438" y2="27.5852854342773"/>
    <line x1="68.0001000000001" y1="15.4001002120953" x2="58.0001" y2="15.4001002120952"/>
    <line x1="58.0001" y1="15.4001002120952" x2="58.0001" y2="12.4001002120952"/>
    <line x1="58.0001" y1="12.4001002120952" x2="68.0001000000001" y2="12.4001002120951"/>
    <line x1="68.0001000000001" y1="12.4001002120951" x2="68.0001000000001" y2="15.4001002120953"/>
    <line x1="23.0001000000002" y1="12.4001002120952" x2="13.0001000000001" y2="12.4001002120951"/>
    <line x1="13.0001000000001" y1="12.4001002120951" x2="13.0001000000001" y2="9.40010021209516"/>
    <line x1="13.0001000000001" y1="9.40010021209516" x2="23.0001000000002" y2="9.40010021209516"/>
    <line x1="23.0001000000002" y1="9.40010021209516" x2="23.0001000000002" y2="12.4001002120952"/>
  </g>
</svg>
