<?xml version="1.0" standalone="no"?>
<!DOCTYPE svg PUBLIC "-//W3C//DTD SVG 1.1//EN" "http://www.w3.org/Graphics/SVG/1.1/DTD/svg11.dtd">
<svg width="54.0002000000001mm" height="63.0002mm"
 viewBox="0 0 54.0002000000001 63.0002"
 xmlns="http://www.w3.org/2000/svg" version="1.1"
 xmlns:xlink="http://www.w3.org/1999/xlink">
<desc>Output from Flights of Ideas SVG Sketchup Plugin</desc>

  <g id="face0" fill="none" stroke="rgb(0,0,255)" stroke-width="1" stroke-miterlimit="4" stroke-dasharray="none" stroke-linejoin="round" stroke-linecap="round">
    <line x1="41.600099787905" y1="48.0001" x2="44.600099787905" y2="48.0001"/>
    <line x1="44.600099787905" y1="48.0001" x2="44.600099787905" y2="40.0001000000001"/>
    <line x1="44.600099787905" y1="40.0001000000001" x2="47.6000997879049" y2="40.0001000000001"/>
    <line x1="47.6000997879049" y1="40.0001000000001" x2="47.6000997879049" y2="50.0001000000001"/>
    <line x1="47.6000997879049" y1="50.0001000000001" x2="44.600099787905" y2="50.0001000000001"/>
    <line x1="44.600099787905" y1="50.0001000000001" x2="44.600099787905" y2="58.0001"/>
    <line x1="44.600099787905" y1="58.0001" x2="41.600099787905" y2="58.0001"/>
    <line x1="41.600099787905" y1="58.0001" x2="41.600099787905" y2="53.0001"/>
    <line x1="41.600099787905" y1="53.0001" x2="34.0001000000001" y2="53.0001"/>
    <line x1="34.0001000000001" y1="53.0001" x2="34.0001000000001" y2="63.0001"/>
    <line x1="34.0001000000001" y1="63.0001" x2="54.0001000000001" y2="63.0001"/>
    <line x1="54.0001000000001" y1="63.0001" x2="54.0001000000001" y2="0.0001"/>
    <line x1="54.0001000000001" y1="0.0001" x2="0.0001" y2="0.0001"/>
    <line x1="0.0001" y1="0.0001" x2="0.0001" y2="63.0001"/>
    <line x1="0.0001" y1="63.0001" x2="24.0000999999999" y2="63.0001"/>
    <line x1="24.0000999999999" y1="63.0001" x2="24.0000999999999" y2="53.0001"/>
    <line x1="24.0000999999999" y1="53.0001" x2="14.0001000000001" y2="53.0001"/>
    <line x1="14.0001000000001" y1="53.0001" x2="14.0001000000001" y2="43.0001"/>
    <line x1="14.0001000000001" y1="43.0001" x2="41.600099787905" y2="43.0001"/>
    <line x1="41.600099787905" y1="43.0001" x2="41.600099787905" y2="48.0001"/>
    <line x1="15.0001" y1="35.0001000000001" x2="5.00009999999994" y2="35.0001000000001"/>
    <line x1="5.00009999999994" y1="35.0001000000001" x2="5.00009999999994" y2="32.0001000000001"/>
    <line x1="5.00009999999994" y1="32.0001000000001" x2="15.0001" y2="32.0001000000001"/>
    <line x1="15.0001" y1="32.0001000000001" x2="15.0001" y2="35.0001000000001"/>
    <line x1="39.0001000000001" y1="32.0001000000001" x2="49.0001000000001" y2="32.0001000000001"/>
    <line x1="49.0001000000001" y1="32.0001000000001" x2="49.0001000000001" y2="35.0001000000001"/>
    <line x1="49.0001000000001" y1="35.0001000000001" x2="39.0001000000001" y2="35.0001000000001"/>
    <line x1="39.0001000000001" y1="35.0001000000001" x2="39.0001000000001" y2="32.0001000000001"/>
    <line x1="10.0001000000001" y1="3.00010000000011" x2="44.0001" y2="3.00010000000011"/>
    <line x1="44.0001" y1="3.00010000000011" x2="44.0001" y2="6.00010000000011"/>
    <line x1="44.0001" y1="6.00010000000011" x2="10.0001000000001" y2="6.00010000000011"/>
    <line x1="10.0001000000001" y1="6.00010000000011" x2="10.0001000000001" y2="3.00010000000011"/>
    <line x1="25.5512112605665" y1="33.8883285676538" x2="25.5001" y2="33.5001"/>
    <line x1="25.5001" y1="33.5001" x2="25.5512112605665" y2="33.1118714323462"/>
    <line x1="25.5512112605665" y1="33.1118714323462" x2="25.7010618943234" y2="32.7501"/>
    <line x1="25.7010618943234" y1="32.7501" x2="25.9394398282202" y2="32.4394398282202"/>
    <line x1="25.9394398282202" y1="32.4394398282202" x2="26.2501" y2="32.2010618943233"/>
    <line x1="26.2501" y1="32.2010618943233" x2="26.6118714323463" y2="32.0512112605665"/>
    <line x1="26.6118714323463" y1="32.0512112605665" x2="27.0001" y2="32.0001"/>
    <line x1="27.0001" y1="32.0001" x2="27.3883285676539" y2="32.0512112605665"/>
    <line x1="27.3883285676539" y1="32.0512112605665" x2="27.7501" y2="32.2010618943233"/>
    <line x1="27.7501" y1="32.2010618943233" x2="28.0607601717798" y2="32.4394398282202"/>
    <line x1="28.0607601717798" y1="32.4394398282202" x2="28.2991381056767" y2="32.7501000000001"/>
    <line x1="28.2991381056767" y1="32.7501000000001" x2="28.4489887394337" y2="33.1118714323462"/>
    <line x1="28.4489887394337" y1="33.1118714323462" x2="28.5001" y2="33.5001"/>
    <line x1="28.5001" y1="33.5001" x2="28.4489887394337" y2="33.8883285676538"/>
    <line x1="28.4489887394337" y1="33.8883285676538" x2="28.2991381056767" y2="34.2501"/>
    <line x1="28.2991381056767" y1="34.2501" x2="28.0607601717798" y2="34.5607601717798"/>
    <line x1="28.0607601717798" y1="34.5607601717798" x2="27.7501" y2="34.7991381056767"/>
    <line x1="27.7501" y1="34.7991381056767" x2="27.3883285676539" y2="34.9489887394336"/>
    <line x1="27.3883285676539" y1="34.9489887394336" x2="27.0001" y2="35.0001"/>
    <line x1="27.0001" y1="35.0001" x2="26.6118714323463" y2="34.9489887394336"/>
    <line x1="26.6118714323463" y1="34.9489887394336" x2="26.2501" y2="34.7991381056767"/>
    <line x1="26.2501" y1="34.7991381056767" x2="25.9394398282202" y2="34.5607601717799"/>
    <line x1="25.9394398282202" y1="34.5607601717799" x2="25.7010618943234" y2="34.2501"/>
    <line x1="25.7010618943234" y1="34.2501" x2="25.5512112605665" y2="33.8883285676538"/>
  </g>
</svg>
