<?xml version="1.0" standalone="no"?>
<!DOCTYPE svg PUBLIC "-//W3C//DTD SVG 1.1//EN" "http://www.w3.org/Graphics/SVG/1.1/DTD/svg11.dtd">
<svg width="54.0002mm" height="63.0002000000001mm"
 viewBox="0 0 54.0002 63.0002000000001"
 xmlns="http://www.w3.org/2000/svg" version="1.1"
 xmlns:xlink="http://www.w3.org/1999/xlink">
<desc>Output from Flights of Ideas SVG Sketchup Plugin</desc>

  <g id="face0" fill="none" stroke="rgb(0,0,255)" stroke-width="1" stroke-miterlimit="4" stroke-dasharray="none" stroke-linejoin="round" stroke-linecap="round">
    <line x1="20.0001" y1="53.0001" x2="12.4001002120951" y2="53.0001"/>
    <line x1="12.4001002120951" y1="53.0001" x2="12.4001002120951" y2="58.0001000000001"/>
    <line x1="12.4001002120951" y1="58.0001000000001" x2="9.40010021209508" y2="58.0001000000001"/>
    <line x1="9.40010021209508" y1="58.0001000000001" x2="9.40010021209508" y2="50.0001000000001"/>
    <line x1="9.40010021209508" y1="50.0001000000001" x2="6.40010021209522" y2="50.0001000000001"/>
    <line x1="6.40010021209522" y1="50.0001000000001" x2="6.40010021209522" y2="40.0001000000001"/>
    <line x1="6.40010021209522" y1="40.0001000000001" x2="9.40010021209508" y2="40.0001000000001"/>
    <line x1="9.40010021209508" y1="40.0001000000001" x2="9.40010021209508" y2="48.0001000000001"/>
    <line x1="9.40010021209508" y1="48.0001000000001" x2="12.4001002120951" y2="48.0001000000001"/>
    <line x1="12.4001002120951" y1="48.0001000000001" x2="12.4001002120951" y2="43.0001000000001"/>
    <line x1="12.4001002120951" y1="43.0001000000001" x2="40.0000999999999" y2="43.0001"/>
    <line x1="40.0000999999999" y1="43.0001" x2="40.0000999999999" y2="53.0001"/>
    <line x1="40.0000999999999" y1="53.0001" x2="30.0001" y2="53.0001"/>
    <line x1="30.0001" y1="53.0001" x2="30.0001" y2="63.0001000000001"/>
    <line x1="30.0001" y1="63.0001000000001" x2="54.0001" y2="63.0001000000001"/>
    <line x1="54.0001" y1="63.0001000000001" x2="54.0001" y2="0.0001"/>
    <line x1="54.0001" y1="0.0001" x2="0.0001" y2="0.0001"/>
    <line x1="0.0001" y1="0.0001" x2="0.0001" y2="63.0001000000001"/>
    <line x1="0.0001" y1="63.0001000000001" x2="20.0001" y2="63.0001000000001"/>
    <line x1="20.0001" y1="63.0001000000001" x2="20.0001" y2="53.0001"/>
    <line x1="49.0001000000001" y1="35.0001000000001" x2="39.0000999999999" y2="35.0001000000001"/>
    <line x1="39.0000999999999" y1="35.0001000000001" x2="39.0001" y2="32.0001000000001"/>
    <line x1="39.0001" y1="32.0001000000001" x2="49.0001000000001" y2="32.0001000000001"/>
    <line x1="49.0001000000001" y1="32.0001000000001" x2="49.0001000000001" y2="35.0001000000001"/>
    <line x1="5.00009999999994" y1="32.0001000000001" x2="15.0001" y2="32.0001000000001"/>
    <line x1="15.0001" y1="32.0001000000001" x2="15.0001" y2="35.0001000000001"/>
    <line x1="15.0001" y1="35.0001000000001" x2="5.00009999999994" y2="35.0001000000001"/>
    <line x1="5.00009999999994" y1="35.0001000000001" x2="5.00009999999994" y2="32.0001000000001"/>
    <line x1="10.0001000000001" y1="3.00010000000023" x2="44.0000999999999" y2="3.00010000000023"/>
    <line x1="44.0000999999999" y1="3.00010000000023" x2="44.0000999999999" y2="6.00010000000011"/>
    <line x1="44.0000999999999" y1="6.00010000000011" x2="10.0001000000001" y2="6.00010000000011"/>
    <line x1="10.0001000000001" y1="6.00010000000011" x2="10.0001000000001" y2="3.00010000000023"/>
    <line x1="28.5001" y1="33.5001000000001" x2="28.4489887394335" y2="33.8883285676539"/>
    <line x1="28.4489887394335" y1="33.8883285676539" x2="28.2991381056766" y2="34.2501000000001"/>
    <line x1="28.2991381056766" y1="34.2501000000001" x2="28.0607601717798" y2="34.5607601717799"/>
    <line x1="28.0607601717798" y1="34.5607601717799" x2="27.7501" y2="34.7991381056767"/>
    <line x1="27.7501" y1="34.7991381056767" x2="27.3883285676537" y2="34.9489887394336"/>
    <line x1="27.3883285676537" y1="34.9489887394336" x2="27.0001" y2="35.0001"/>
    <line x1="27.0001" y1="35.0001" x2="26.6118714323461" y2="34.9489887394336"/>
    <line x1="26.6118714323461" y1="34.9489887394336" x2="26.2501" y2="34.7991381056767"/>
    <line x1="26.2501" y1="34.7991381056767" x2="25.9394398282202" y2="34.5607601717799"/>
    <line x1="25.9394398282202" y1="34.5607601717799" x2="25.7010618943232" y2="34.2501000000001"/>
    <line x1="25.7010618943232" y1="34.2501000000001" x2="25.5512112605663" y2="33.8883285676539"/>
    <line x1="25.5512112605663" y1="33.8883285676539" x2="25.5001" y2="33.5001000000001"/>
    <line x1="25.5001" y1="33.5001000000001" x2="25.5512112605663" y2="33.1118714323462"/>
    <line x1="25.5512112605663" y1="33.1118714323462" x2="25.7010618943232" y2="32.7501000000001"/>
    <line x1="25.7010618943232" y1="32.7501000000001" x2="25.9394398282202" y2="32.4394398282201"/>
    <line x1="25.9394398282202" y1="32.4394398282201" x2="26.2501" y2="32.2010618943233"/>
    <line x1="26.2501" y1="32.2010618943233" x2="26.6118714323461" y2="32.0512112605665"/>
    <line x1="26.6118714323461" y1="32.0512112605665" x2="27.0001" y2="32.0001000000001"/>
    <line x1="27.0001" y1="32.0001000000001" x2="27.3883285676537" y2="32.0512112605665"/>
    <line x1="27.3883285676537" y1="32.0512112605665" x2="27.7501" y2="32.2010618943233"/>
    <line x1="27.7501" y1="32.2010618943233" x2="28.0607601717798" y2="32.4394398282201"/>
    <line x1="28.0607601717798" y1="32.4394398282201" x2="28.2991381056766" y2="32.7501000000001"/>
    <line x1="28.2991381056766" y1="32.7501000000001" x2="28.4489887394335" y2="33.1118714323462"/>
    <line x1="28.4489887394335" y1="33.1118714323462" x2="28.5001" y2="33.5001000000001"/>
  </g>
</svg>
