<?xml version="1.0" standalone="no"?>
<!DOCTYPE svg PUBLIC "-//W3C//DTD SVG 1.1//EN" "http://www.w3.org/Graphics/SVG/1.1/DTD/svg11.dtd">
<svg width="61.9999999999999mm" height="83.0mm"
 viewBox="0 0 61.9999999999999 83.0"
 xmlns="http://www.w3.org/2000/svg" version="1.1"
 xmlns:xlink="http://www.w3.org/1999/xlink">
<desc>Output from Flights of Ideas SVG Sketchup Plugin</desc>

  <g id="face0" fill="none" stroke="rgb(0,0,255)" stroke-width="1" stroke-miterlimit="4" stroke-dasharray="none" stroke-linejoin="round" stroke-linecap="round">
    <line x1="19.0" y1="78.9999999999999" x2="29.5" y2="78.9999999999999"/>
    <line x1="29.5" y1="78.9999999999999" x2="29.5" y2="76.9999999999999"/>
    <line x1="29.5" y1="76.9999999999999" x2="28.2" y2="76.9999999999999"/>
    <line x1="28.2" y1="76.9999999999999" x2="28.2" y2="74.7999999999999"/>
    <line x1="28.2" y1="74.7999999999999" x2="29.5" y2="74.7999999999999"/>
    <line x1="29.5" y1="74.7999999999999" x2="29.5" y2="71.8"/>
    <line x1="29.5" y1="71.8" x2="32.5" y2="71.8"/>
    <line x1="32.5" y1="71.8" x2="32.5" y2="74.7999999999999"/>
    <line x1="32.5" y1="74.7999999999999" x2="33.8" y2="74.7999999999999"/>
    <line x1="33.8" y1="74.7999999999999" x2="33.8" y2="76.9999999999999"/>
    <line x1="33.8" y1="76.9999999999999" x2="32.5" y2="76.9999999999999"/>
    <line x1="32.5" y1="76.9999999999999" x2="32.5" y2="78.9999999999999"/>
    <line x1="32.5" y1="78.9999999999999" x2="42.9999999999999" y2="78.9999999999999"/>
    <line x1="42.9999999999999" y1="78.9999999999999" x2="42.9999999999999" y2="82.0"/>
    <line x1="42.9999999999999" y1="82.0" x2="53.0" y2="82.0"/>
    <line x1="53.0" y1="82.0" x2="53.0" y2="78.9999999999999"/>
    <line x1="53.0" y1="78.9999999999999" x2="58.0" y2="78.9999999999999"/>
    <line x1="58.0" y1="78.9999999999999" x2="58.0" y2="74.0"/>
    <line x1="58.0" y1="74.0" x2="60.9999999999999" y2="74.0"/>
    <line x1="60.9999999999999" y1="74.0" x2="60.9999999999999" y2="63.9999999999999"/>
    <line x1="60.9999999999999" y1="63.9999999999999" x2="58.0" y2="64.0"/>
    <line x1="58.0" y1="64.0" x2="58.0" y2="18.9999999999999"/>
    <line x1="58.0" y1="18.9999999999999" x2="60.9999999999999" y2="18.9999999999999"/>
    <line x1="60.9999999999999" y1="18.9999999999999" x2="60.9999999999999" y2="9.0"/>
    <line x1="60.9999999999999" y1="9.0" x2="58.0" y2="8.99999999999999"/>
    <line x1="58.0" y1="8.99999999999999" x2="58.0" y2="3.99999999999989"/>
    <line x1="58.0" y1="3.99999999999989" x2="53.0" y2="3.99999999999987"/>
    <line x1="53.0" y1="3.99999999999987" x2="53.0" y2="1.00000000000001"/>
    <line x1="53.0" y1="1.00000000000001" x2="42.9999999999999" y2="1.00000000000001"/>
    <line x1="42.9999999999999" y1="1.00000000000001" x2="42.9999999999999" y2="3.99999999999987"/>
    <line x1="42.9999999999999" y1="3.99999999999987" x2="32.5" y2="3.99999999999987"/>
    <line x1="32.5" y1="3.99999999999987" x2="32.5" y2="5.99999999999996"/>
    <line x1="32.5" y1="5.99999999999996" x2="33.8" y2="5.99999999999996"/>
    <line x1="33.8" y1="5.99999999999996" x2="33.8" y2="8.20000000000001"/>
    <line x1="33.8" y1="8.20000000000001" x2="32.5" y2="8.2"/>
    <line x1="32.5" y1="8.2" x2="32.5" y2="11.2"/>
    <line x1="32.5" y1="11.2" x2="29.5" y2="11.2"/>
    <line x1="29.5" y1="11.2" x2="29.5" y2="8.2"/>
    <line x1="29.5" y1="8.2" x2="28.2" y2="8.20000000000001"/>
    <line x1="28.2" y1="8.20000000000001" x2="28.2" y2="5.99999999999995"/>
    <line x1="28.2" y1="5.99999999999995" x2="29.5" y2="5.99999999999996"/>
    <line x1="29.5" y1="5.99999999999996" x2="29.5" y2="3.99999999999987"/>
    <line x1="29.5" y1="3.99999999999987" x2="19.0" y2="3.99999999999987"/>
    <line x1="19.0" y1="3.99999999999987" x2="19.0" y2="1.00000000000001"/>
    <line x1="19.0" y1="1.00000000000001" x2="8.99999999999999" y2="1.0"/>
    <line x1="8.99999999999999" y1="1.0" x2="9.0" y2="3.99999999999987"/>
    <line x1="9.0" y1="3.99999999999987" x2="4.0" y2="3.99999999999987"/>
    <line x1="4.0" y1="3.99999999999987" x2="4.0" y2="9.0"/>
    <line x1="4.0" y1="9.0" x2="1.00000000000001" y2="9.0"/>
    <line x1="1.00000000000001" y1="9.0" x2="1.0" y2="18.9999999999999"/>
    <line x1="1.0" y1="18.9999999999999" x2="4.0" y2="18.9999999999999"/>
    <line x1="4.0" y1="18.9999999999999" x2="4.0" y2="63.9999999999999"/>
    <line x1="4.0" y1="63.9999999999999" x2="1.0" y2="63.9999999999999"/>
    <line x1="1.0" y1="63.9999999999999" x2="1.0" y2="74.0"/>
    <line x1="1.0" y1="74.0" x2="4.0" y2="74.0"/>
    <line x1="4.0" y1="74.0" x2="4.0" y2="78.9999999999999"/>
    <line x1="4.0" y1="78.9999999999999" x2="8.99999999999999" y2="78.9999999999999"/>
    <line x1="8.99999999999999" y1="78.9999999999999" x2="9.00000000000003" y2="81.9999999999999"/>
    <line x1="9.00000000000003" y1="81.9999999999999" x2="19.0" y2="81.9999999999998"/>
    <line x1="19.0" y1="81.9999999999998" x2="19.0" y2="78.9999999999999"/>
    <line x1="28.5851854342773" y1="42.1470476127563" x2="28.5" y2="41.5"/>
    <line x1="28.5" y1="41.5" x2="28.5851854342773" y2="40.8529523872437"/>
    <line x1="28.5851854342773" y1="40.8529523872437" x2="28.8349364905389" y2="40.2499999999999"/>
    <line x1="28.8349364905389" y1="40.2499999999999" x2="29.2322330470336" y2="39.7322330470336"/>
    <line x1="29.2322330470336" y1="39.7322330470336" x2="29.75" y2="39.3349364905389"/>
    <line x1="29.75" y1="39.3349364905389" x2="30.3529523872437" y2="39.0851854342774"/>
    <line x1="30.3529523872437" y1="39.0851854342774" x2="31.0" y2="39.0"/>
    <line x1="31.0" y1="39.0" x2="31.6470476127563" y2="39.0851854342774"/>
    <line x1="31.6470476127563" y1="39.0851854342774" x2="32.25" y2="39.3349364905389"/>
    <line x1="32.25" y1="39.3349364905389" x2="32.7677669529663" y2="39.7322330470336"/>
    <line x1="32.7677669529663" y1="39.7322330470336" x2="33.165063509461" y2="40.2499999999999"/>
    <line x1="33.165063509461" y1="40.2499999999999" x2="33.4148145657226" y2="40.8529523872437"/>
    <line x1="33.4148145657226" y1="40.8529523872437" x2="33.5" y2="41.5"/>
    <line x1="33.5" y1="41.5" x2="33.4148145657226" y2="42.1470476127563"/>
    <line x1="33.4148145657226" y1="42.1470476127563" x2="33.165063509461" y2="42.75"/>
    <line x1="33.165063509461" y1="42.75" x2="32.7677669529663" y2="43.2677669529663"/>
    <line x1="32.7677669529663" y1="43.2677669529663" x2="32.25" y2="43.6650635094611"/>
    <line x1="32.25" y1="43.6650635094611" x2="31.6470476127563" y2="43.9148145657227"/>
    <line x1="31.6470476127563" y1="43.9148145657227" x2="31.0" y2="44.0"/>
    <line x1="31.0" y1="44.0" x2="30.3529523872437" y2="43.9148145657227"/>
    <line x1="30.3529523872437" y1="43.9148145657227" x2="29.75" y2="43.6650635094611"/>
    <line x1="29.75" y1="43.6650635094611" x2="29.2322330470336" y2="43.2677669529663"/>
    <line x1="29.2322330470336" y1="43.2677669529663" x2="28.8349364905389" y2="42.75"/>
    <line x1="28.8349364905389" y1="42.75" x2="28.5851854342773" y2="42.1470476127563"/>
    <line x1="13.0" y1="13.9999999999999" x2="13.0" y2="24.0"/>
    <line x1="13.0" y1="24.0" x2="10.0" y2="24.0"/>
    <line x1="10.0" y1="24.0" x2="10.0" y2="13.9999999999999"/>
    <line x1="10.0" y1="13.9999999999999" x2="13.0" y2="13.9999999999999"/>
    <line x1="10.0" y1="58.9999999999998" x2="10.0" y2="68.9999999999999"/>
    <line x1="10.0" y1="68.9999999999999" x2="7.0" y2="68.9999999999999"/>
    <line x1="7.0" y1="68.9999999999999" x2="7.0" y2="58.9999999999998"/>
    <line x1="7.0" y1="58.9999999999998" x2="10.0" y2="58.9999999999998"/>
  </g>
</svg>
