<?xml version="1.0" standalone="no"?>
<!DOCTYPE svg PUBLIC "-//W3C//DTD SVG 1.1//EN" "http://www.w3.org/Graphics/SVG/1.1/DTD/svg11.dtd">
<svg width="81.0002mm" height="31.0002mm"
 viewBox="0 0 81.0002 31.0002"
 xmlns="http://www.w3.org/2000/svg" version="1.1"
 xmlns:xlink="http://www.w3.org/1999/xlink">
<desc>Output from Flights of Ideas SVG Sketchup Plugin</desc>

  <g id="face0" fill="none" stroke="rgb(0,0,255)" stroke-width="1" stroke-miterlimit="4" stroke-dasharray="none" stroke-linejoin="round" stroke-linecap="round">
    <line x1="13.0001000000001" y1="3.0001" x2="3.00010000000006" y2="3.0001"/>
    <line x1="3.00010000000006" y1="3.0001" x2="3.00010000000006" y2="8.0001"/>
    <line x1="3.00010000000006" y1="8.0001" x2="0.000100000000113687" y2="8.0001"/>
    <line x1="0.000100000000113687" y1="8.0001" x2="0.0001" y2="18.0001"/>
    <line x1="0.0001" y1="18.0001" x2="3.00010000000006" y2="18.0001"/>
    <line x1="3.00010000000006" y1="18.0001" x2="3.00010000000006" y2="31.0001"/>
    <line x1="3.00010000000006" y1="31.0001" x2="78.0000999999999" y2="31.0001"/>
    <line x1="78.0000999999999" y1="31.0001" x2="78.0000999999999" y2="18.0001"/>
    <line x1="78.0000999999999" y1="18.0001" x2="81.0001" y2="18.0001"/>
    <line x1="81.0001" y1="18.0001" x2="81.0001" y2="8.00010000000011"/>
    <line x1="81.0001" y1="8.00010000000011" x2="78.0000999999999" y2="8.00009999999989"/>
    <line x1="78.0000999999999" y1="8.00009999999989" x2="78.0000999999999" y2="3.0001"/>
    <line x1="78.0000999999999" y1="3.0001" x2="23.0001000000001" y2="3.0001"/>
    <line x1="23.0001000000001" y1="3.0001" x2="23.0001000000001" y2="0.0001"/>
    <line x1="23.0001000000001" y1="0.0001" x2="13.0001000000001" y2="0.0001"/>
    <line x1="13.0001000000001" y1="0.0001" x2="13.0001000000001" y2="3.0001"/>
  </g>
</svg>
