<?xml version="1.0" standalone="no"?>
<!DOCTYPE svg PUBLIC "-//W3C//DTD SVG 1.1//EN" "http://www.w3.org/Graphics/SVG/1.1/DTD/svg11.dtd">
<svg width="56.0000000000003mm" height="65.0mm"
 viewBox="0 0 56.0000000000003 65.0"
 xmlns="http://www.w3.org/2000/svg" version="1.1"
 xmlns:xlink="http://www.w3.org/1999/xlink">
<desc>Output from Flights of Ideas SVG Sketchup Plugin</desc>

  <g id="face0" fill="none" stroke="rgb(0,0,255)" stroke-width="1" stroke-miterlimit="4" stroke-dasharray="none" stroke-linejoin="round" stroke-linecap="round">
    <line x1="42.5999997879051" y1="43.9999999999999" x2="42.5999997879051" y2="53.9999999999999"/>
    <line x1="42.5999997879051" y1="53.9999999999999" x2="35.0000000000003" y2="53.9999999999999"/>
    <line x1="35.0000000000003" y1="53.9999999999999" x2="35.0000000000003" y2="64.0"/>
    <line x1="35.0000000000003" y1="64.0" x2="55.0000000000003" y2="63.9999999999999"/>
    <line x1="55.0000000000003" y1="63.9999999999999" x2="55.0000000000003" y2="1.0"/>
    <line x1="55.0000000000003" y1="1.0" x2="1.0" y2="1.0"/>
    <line x1="1.0" y1="1.0" x2="1.0" y2="63.9999999999999"/>
    <line x1="1.0" y1="63.9999999999999" x2="24.9999999999999" y2="64.0"/>
    <line x1="24.9999999999999" y1="64.0" x2="24.9999999999999" y2="53.9999999999999"/>
    <line x1="24.9999999999999" y1="53.9999999999999" x2="15.0000000000001" y2="53.9999999999999"/>
    <line x1="15.0000000000001" y1="53.9999999999999" x2="15.0000000000001" y2="43.9999999999999"/>
    <line x1="15.0000000000001" y1="43.9999999999999" x2="42.5999997879051" y2="43.9999999999999"/>
    <line x1="16.0" y1="36.0" x2="5.99999999999994" y2="36.0"/>
    <line x1="5.99999999999994" y1="36.0" x2="5.99999999999994" y2="33.0"/>
    <line x1="5.99999999999994" y1="33.0" x2="16.0" y2="33.0"/>
    <line x1="16.0" y1="33.0" x2="16.0" y2="36.0"/>
    <line x1="40.0000000000003" y1="33.0" x2="50.0000000000003" y2="33.0"/>
    <line x1="50.0000000000003" y1="33.0" x2="50.0000000000003" y2="36.0"/>
    <line x1="50.0000000000003" y1="36.0" x2="40.0000000000003" y2="36.0"/>
    <line x1="40.0000000000003" y1="36.0" x2="40.0000000000003" y2="33.0"/>
    <line x1="11.0000000000001" y1="4.0" x2="45.0000000000002" y2="4.0"/>
    <line x1="45.0000000000002" y1="4.0" x2="45.0000000000002" y2="7.0"/>
    <line x1="45.0000000000002" y1="7.0" x2="11.0000000000001" y2="7.0"/>
    <line x1="11.0000000000001" y1="7.0" x2="11.0000000000001" y2="4.0"/>
    <line x1="26.5511112605665" y1="34.8882285676538" x2="26.5" y2="34.4999999999999"/>
    <line x1="26.5" y1="34.4999999999999" x2="26.5511112605665" y2="34.1117714323461"/>
    <line x1="26.5511112605665" y1="34.1117714323461" x2="26.7009618943234" y2="33.7499999999999"/>
    <line x1="26.7009618943234" y1="33.7499999999999" x2="26.9393398282202" y2="33.4393398282201"/>
    <line x1="26.9393398282202" y1="33.4393398282201" x2="27.25" y2="33.2009618943232"/>
    <line x1="27.25" y1="33.2009618943232" x2="27.6117714323463" y2="33.0511112605664"/>
    <line x1="27.6117714323463" y1="33.0511112605664" x2="28.0" y2="32.9999999999999"/>
    <line x1="28.0" y1="32.9999999999999" x2="28.3882285676539" y2="33.0511112605664"/>
    <line x1="28.3882285676539" y1="33.0511112605664" x2="28.75" y2="33.2009618943232"/>
    <line x1="28.75" y1="33.2009618943232" x2="29.0606601717798" y2="33.4393398282201"/>
    <line x1="29.0606601717798" y1="33.4393398282201" x2="29.2990381056767" y2="33.7499999999999"/>
    <line x1="29.2990381056767" y1="33.7499999999999" x2="29.4488887394337" y2="34.1117714323461"/>
    <line x1="29.4488887394337" y1="34.1117714323461" x2="29.5" y2="34.4999999999999"/>
    <line x1="29.5" y1="34.4999999999999" x2="29.4488887394337" y2="34.8882285676538"/>
    <line x1="29.4488887394337" y1="34.8882285676538" x2="29.2990381056767" y2="35.2499999999999"/>
    <line x1="29.2990381056767" y1="35.2499999999999" x2="29.0606601717798" y2="35.5606601717798"/>
    <line x1="29.0606601717798" y1="35.5606601717798" x2="28.75" y2="35.7990381056766"/>
    <line x1="28.75" y1="35.7990381056766" x2="28.3882285676539" y2="35.9488887394335"/>
    <line x1="28.3882285676539" y1="35.9488887394335" x2="28.0" y2="35.9999999999999"/>
    <line x1="28.0" y1="35.9999999999999" x2="27.6117714323463" y2="35.9488887394335"/>
    <line x1="27.6117714323463" y1="35.9488887394335" x2="27.25" y2="35.7990381056766"/>
    <line x1="27.25" y1="35.7990381056766" x2="26.9393398282202" y2="35.5606601717798"/>
    <line x1="26.9393398282202" y1="35.5606601717798" x2="26.7009618943234" y2="35.2499999999999"/>
    <line x1="26.7009618943234" y1="35.2499999999999" x2="26.5511112605665" y2="34.8882285676538"/>
    <line x1="46.0000000000001" y1="58.9999999999999" x2="46.0000000000001" y2="49.0"/>
    <line x1="46.0000000000001" y1="49.0" x2="48.9999997879051" y2="49.0"/>
    <line x1="48.9999997879051" y1="49.0" x2="48.9999997879051" y2="41.0000000000001"/>
    <line x1="48.9999997879051" y1="41.0000000000001" x2="52.0000000000002" y2="41.0000000000001"/>
    <line x1="52.0000000000002" y1="41.0000000000001" x2="52.0000000000002" y2="51.0"/>
    <line x1="52.0000000000002" y1="51.0" x2="49.0000000000004" y2="51.0"/>
    <line x1="49.0000000000004" y1="51.0" x2="49.0000000000004" y2="58.9999999999999"/>
    <line x1="49.0000000000004" y1="58.9999999999999" x2="46.0000000000001" y2="58.9999999999999"/>
  </g>
</svg>
