<?xml version="1.0" standalone="no"?>
<!DOCTYPE svg PUBLIC "-//W3C//DTD SVG 1.1//EN" "http://www.w3.org/Graphics/SVG/1.1/DTD/svg11.dtd">
<svg width="81.0002000000001mm" height="31.0002mm"
 viewBox="0 0 81.0002000000001 31.0002"
 xmlns="http://www.w3.org/2000/svg" version="1.1"
 xmlns:xlink="http://www.w3.org/1999/xlink">
<desc>Output from Flights of Ideas SVG Sketchup Plugin</desc>

  <g id="face0" fill="none" stroke="rgb(0,0,255)" stroke-width="1" stroke-miterlimit="4" stroke-dasharray="none" stroke-linejoin="round" stroke-linecap="round">
    <line x1="58.0001000000001" y1="3.00010000000011" x2="3.00010000000014" y2="3.00010000000011"/>
    <line x1="3.00010000000014" y1="3.00010000000011" x2="3.00010000000003" y2="16.0001"/>
    <line x1="3.00010000000003" y1="16.0001" x2="0.0001" y2="16.0001"/>
    <line x1="0.0001" y1="16.0001" x2="0.000100000000085265" y2="26.0000999999999"/>
    <line x1="0.000100000000085265" y1="26.0000999999999" x2="3.00010000000014" y2="26.0001000000001"/>
    <line x1="3.00010000000014" y1="26.0001000000001" x2="3.00010000000014" y2="31.0001"/>
    <line x1="3.00010000000014" y1="31.0001" x2="78.0001" y2="31.0001"/>
    <line x1="78.0001" y1="31.0001" x2="78.0001" y2="26.0000999999999"/>
    <line x1="78.0001" y1="26.0000999999999" x2="81.0001000000001" y2="26.0001000000001"/>
    <line x1="81.0001000000001" y1="26.0001000000001" x2="81.0001000000001" y2="16.0001"/>
    <line x1="81.0001000000001" y1="16.0001" x2="78.0001" y2="16.0001"/>
    <line x1="78.0001" y1="16.0001" x2="78.0001" y2="3.00010000000011"/>
    <line x1="78.0001" y1="3.00010000000011" x2="68.0001" y2="3.00010000000011"/>
    <line x1="68.0001" y1="3.00010000000011" x2="68.0001" y2="0.0001"/>
    <line x1="68.0001" y1="0.0001" x2="58.0001000000001" y2="0.0001"/>
    <line x1="58.0001000000001" y1="0.0001" x2="58.0001000000001" y2="3.00010000000011"/>
    <line x1="35.4000999383656" y1="14.0001000000001" x2="45.6000999383656" y2="14.0001000000001"/>
    <line x1="45.6000999383656" y1="14.0001000000001" x2="45.6000999383656" y2="24.200099876731"/>
    <line x1="45.6000999383656" y1="24.200099876731" x2="35.4000999383656" y2="24.2001000000002"/>
    <line x1="35.4000999383656" y1="24.2001000000002" x2="35.4000999383656" y2="14.0001000000001"/>
  </g>
</svg>
