<?xml version="1.0" standalone="no"?>
<!DOCTYPE svg PUBLIC "-//W3C//DTD SVG 1.1//EN" "http://www.w3.org/Graphics/SVG/1.1/DTD/svg11.dtd">
<svg width="56.0mm" height="65.0000000000001mm"
 viewBox="0 0 56.0 65.0000000000001"
 xmlns="http://www.w3.org/2000/svg" version="1.1"
 xmlns:xlink="http://www.w3.org/1999/xlink">
<desc>Output from Flights of Ideas SVG Sketchup Plugin</desc>

  <g id="face0" fill="none" stroke="rgb(0,0,255)" stroke-width="1" stroke-miterlimit="4" stroke-dasharray="none" stroke-linejoin="round" stroke-linecap="round">
    <line x1="21.0" y1="54.0" x2="13.4000002120951" y2="54.0"/>
    <line x1="13.4000002120951" y1="54.0" x2="13.4000002120951" y2="44.0000000000001"/>
    <line x1="13.4000002120951" y1="44.0000000000001" x2="40.9999999999999" y2="44.0"/>
    <line x1="40.9999999999999" y1="44.0" x2="40.9999999999999" y2="54.0"/>
    <line x1="40.9999999999999" y1="54.0" x2="31.0" y2="54.0"/>
    <line x1="31.0" y1="54.0" x2="31.0" y2="64.0000000000001"/>
    <line x1="31.0" y1="64.0000000000001" x2="55.0" y2="64.0000000000001"/>
    <line x1="55.0" y1="64.0000000000001" x2="55.0" y2="1.0"/>
    <line x1="55.0" y1="1.0" x2="1.0" y2="1.0"/>
    <line x1="1.0" y1="1.0" x2="1.0" y2="64.0000000000001"/>
    <line x1="1.0" y1="64.0000000000001" x2="21.0" y2="64.0000000000001"/>
    <line x1="21.0" y1="64.0000000000001" x2="21.0" y2="54.0"/>
    <line x1="50.0000000000001" y1="36.0000000000001" x2="39.9999999999999" y2="36.0000000000001"/>
    <line x1="39.9999999999999" y1="36.0000000000001" x2="40.0" y2="33.0000000000001"/>
    <line x1="40.0" y1="33.0000000000001" x2="50.0000000000001" y2="33.0000000000001"/>
    <line x1="50.0000000000001" y1="33.0000000000001" x2="50.0000000000001" y2="36.0000000000001"/>
    <line x1="5.99999999999994" y1="33.0000000000001" x2="16.0" y2="33.0000000000001"/>
    <line x1="16.0" y1="33.0000000000001" x2="16.0" y2="36.0000000000001"/>
    <line x1="16.0" y1="36.0000000000001" x2="5.99999999999994" y2="36.0000000000001"/>
    <line x1="5.99999999999994" y1="36.0000000000001" x2="5.99999999999994" y2="33.0000000000001"/>
    <line x1="11.0000000000001" y1="4.00000000000023" x2="44.9999999999999" y2="4.00000000000023"/>
    <line x1="44.9999999999999" y1="4.00000000000023" x2="44.9999999999999" y2="7.00000000000011"/>
    <line x1="44.9999999999999" y1="7.00000000000011" x2="11.0000000000001" y2="7.00000000000011"/>
    <line x1="11.0000000000001" y1="7.00000000000011" x2="11.0000000000001" y2="4.00000000000023"/>
    <line x1="29.5" y1="34.5000000000001" x2="29.4488887394335" y2="34.8882285676539"/>
    <line x1="29.4488887394335" y1="34.8882285676539" x2="29.2990381056766" y2="35.2500000000001"/>
    <line x1="29.2990381056766" y1="35.2500000000001" x2="29.0606601717798" y2="35.5606601717799"/>
    <line x1="29.0606601717798" y1="35.5606601717799" x2="28.75" y2="35.7990381056767"/>
    <line x1="28.75" y1="35.7990381056767" x2="28.3882285676537" y2="35.9488887394336"/>
    <line x1="28.3882285676537" y1="35.9488887394336" x2="28.0" y2="36.0"/>
    <line x1="28.0" y1="36.0" x2="27.6117714323461" y2="35.9488887394336"/>
    <line x1="27.6117714323461" y1="35.9488887394336" x2="27.25" y2="35.7990381056767"/>
    <line x1="27.25" y1="35.7990381056767" x2="26.9393398282202" y2="35.5606601717799"/>
    <line x1="26.9393398282202" y1="35.5606601717799" x2="26.7009618943232" y2="35.2500000000001"/>
    <line x1="26.7009618943232" y1="35.2500000000001" x2="26.5511112605663" y2="34.8882285676539"/>
    <line x1="26.5511112605663" y1="34.8882285676539" x2="26.5" y2="34.5000000000001"/>
    <line x1="26.5" y1="34.5000000000001" x2="26.5511112605663" y2="34.1117714323462"/>
    <line x1="26.5511112605663" y1="34.1117714323462" x2="26.7009618943232" y2="33.7500000000001"/>
    <line x1="26.7009618943232" y1="33.7500000000001" x2="26.9393398282202" y2="33.4393398282201"/>
    <line x1="26.9393398282202" y1="33.4393398282201" x2="27.25" y2="33.2009618943233"/>
    <line x1="27.25" y1="33.2009618943233" x2="27.6117714323461" y2="33.0511112605665"/>
    <line x1="27.6117714323461" y1="33.0511112605665" x2="28.0" y2="33.0000000000001"/>
    <line x1="28.0" y1="33.0000000000001" x2="28.3882285676537" y2="33.0511112605665"/>
    <line x1="28.3882285676537" y1="33.0511112605665" x2="28.75" y2="33.2009618943233"/>
    <line x1="28.75" y1="33.2009618943233" x2="29.0606601717798" y2="33.4393398282201"/>
    <line x1="29.0606601717798" y1="33.4393398282201" x2="29.2990381056766" y2="33.7500000000001"/>
    <line x1="29.2990381056766" y1="33.7500000000001" x2="29.4488887394335" y2="34.1117714323462"/>
    <line x1="29.4488887394335" y1="34.1117714323462" x2="29.5" y2="34.5000000000001"/>
    <line x1="7.00000021209513" y1="49.0000000000001" x2="10.0000000000001" y2="49.0000000000001"/>
    <line x1="10.0000000000001" y1="49.0000000000001" x2="10.0000000000001" y2="59.0000000000001"/>
    <line x1="10.0000000000001" y1="59.0000000000001" x2="6.99999999999989" y2="59.0000000000001"/>
    <line x1="6.99999999999989" y1="59.0000000000001" x2="6.99999999999989" y2="51.0000000000001"/>
    <line x1="6.99999999999989" y1="51.0000000000001" x2="4.00000000000003" y2="51.0000000000001"/>
    <line x1="4.00000000000003" y1="51.0000000000001" x2="4.00000000000003" y2="41.0000000000001"/>
    <line x1="4.00000000000003" y1="41.0000000000001" x2="7.00000021209513" y2="41.0000000000001"/>
    <line x1="7.00000021209513" y1="41.0000000000001" x2="7.00000021209513" y2="49.0000000000001"/>
  </g>
</svg>
