<?xml version="1.0" standalone="no"?>
<!DOCTYPE svg PUBLIC "-//W3C//DTD SVG 1.1//EN" "http://www.w3.org/Graphics/SVG/1.1/DTD/svg11.dtd">
<svg width="87.0002000000001mm" height="63.0001999999999mm"
 viewBox="0 0 87.0002000000001 63.0001999999999"
 xmlns="http://www.w3.org/2000/svg" version="1.1"
 xmlns:xlink="http://www.w3.org/1999/xlink">
<desc>Output from Flights of Ideas SVG Sketchup Plugin</desc>

  <g id="face0" fill="none" stroke="rgb(0,0,255)" stroke-width="1" stroke-miterlimit="4" stroke-dasharray="none" stroke-linejoin="round" stroke-linecap="round">
    <line x1="87.0001000000001" y1="63.0000999999999" x2="87.0001000000001" y2="0.0001"/>
    <line x1="87.0001000000001" y1="0.0001" x2="0.0001" y2="0.0001"/>
    <line x1="0.0001" y1="0.0001" x2="0.0001" y2="63.0000999999999"/>
    <line x1="0.0001" y1="63.0000999999999" x2="87.0001000000001" y2="63.0000999999999"/>
    <line x1="21.0001" y1="3.0001" x2="21.0001" y2="6.0001"/>
    <line x1="21.0001" y1="6.0001" x2="11.0001" y2="6.0001"/>
    <line x1="11.0001" y1="6.0001" x2="11.0001" y2="3.00009999999989"/>
    <line x1="11.0001" y1="3.00009999999989" x2="21.0001" y2="3.0001"/>
    <line x1="76.0001" y1="6.0001" x2="66.0001" y2="6.0001"/>
    <line x1="66.0001" y1="6.0001" x2="66.0001" y2="3.00009999999989"/>
    <line x1="66.0001" y1="3.00009999999989" x2="76.0001" y2="3.0001"/>
    <line x1="76.0001" y1="3.0001" x2="76.0001" y2="6.0001"/>
    <line x1="66.0001" y1="32.0000999999999" x2="76.0001" y2="32.0000999999999"/>
    <line x1="76.0001" y1="32.0000999999999" x2="76.0001" y2="35.0001"/>
    <line x1="76.0001" y1="35.0001" x2="66.0001" y2="35.0001"/>
    <line x1="66.0001" y1="35.0001" x2="66.0001" y2="32.0000999999999"/>
    <line x1="21.0001" y1="35.0001" x2="11.0001" y2="35.0001"/>
    <line x1="11.0001" y1="35.0001" x2="11.0001" y2="32.0000999999999"/>
    <line x1="11.0001" y1="32.0000999999999" x2="21.0001" y2="32.0000999999999"/>
    <line x1="21.0001" y1="32.0000999999999" x2="21.0001" y2="35.0001"/>
    <line x1="42.0512112605665" y1="4.88832856765375" x2="42.0001" y2="4.5001"/>
    <line x1="42.0001" y1="4.5001" x2="42.0512112605664" y2="4.11187143234613"/>
    <line x1="42.0512112605664" y1="4.11187143234613" x2="42.2010618943234" y2="3.7501"/>
    <line x1="42.2010618943234" y1="3.7501" x2="42.4394398282202" y2="3.43943982822011"/>
    <line x1="42.4394398282202" y1="3.43943982822011" x2="42.7501" y2="3.20106189432331"/>
    <line x1="42.7501" y1="3.20106189432331" x2="43.1118714323462" y2="3.05121126056636"/>
    <line x1="43.1118714323462" y1="3.05121126056636" x2="43.5001" y2="3.0001"/>
    <line x1="43.5001" y1="3.0001" x2="43.8883285676537" y2="3.05121126056636"/>
    <line x1="43.8883285676537" y1="3.05121126056636" x2="44.2501" y2="3.20106189432331"/>
    <line x1="44.2501" y1="3.20106189432331" x2="44.5607601717798" y2="3.43943982822011"/>
    <line x1="44.5607601717798" y1="3.43943982822011" x2="44.7991381056766" y2="3.7501"/>
    <line x1="44.7991381056766" y1="3.7501" x2="44.9489887394335" y2="4.11187143234613"/>
    <line x1="44.9489887394335" y1="4.11187143234613" x2="45.0001000000001" y2="4.5001"/>
    <line x1="45.0001000000001" y1="4.5001" x2="44.9489887394335" y2="4.88832856765375"/>
    <line x1="44.9489887394335" y1="4.88832856765375" x2="44.7991381056766" y2="5.2501"/>
    <line x1="44.7991381056766" y1="5.2501" x2="44.5607601717799" y2="5.56076017177977"/>
    <line x1="44.5607601717799" y1="5.56076017177977" x2="44.2501" y2="5.79913810567657"/>
    <line x1="44.2501" y1="5.79913810567657" x2="43.8883285676537" y2="5.94898873943353"/>
    <line x1="43.8883285676537" y1="5.94898873943353" x2="43.5001" y2="6.0001"/>
    <line x1="43.5001" y1="6.0001" x2="43.1118714323462" y2="5.94898873943353"/>
    <line x1="43.1118714323462" y1="5.94898873943353" x2="42.7501" y2="5.79913810567657"/>
    <line x1="42.7501" y1="5.79913810567657" x2="42.4394398282202" y2="5.56076017177977"/>
    <line x1="42.4394398282202" y1="5.56076017177977" x2="42.2010618943234" y2="5.2501"/>
    <line x1="42.2010618943234" y1="5.2501" x2="42.0512112605665" y2="4.88832856765375"/>
  </g>
</svg>
