<?xml version="1.0" standalone="no"?>
<!DOCTYPE svg PUBLIC "-//W3C//DTD SVG 1.1//EN" "http://www.w3.org/Graphics/SVG/1.1/DTD/svg11.dtd">
<svg width="81.0002mm" height="60.0002000000001mm"
 viewBox="0 0 81.0002 60.0002000000001"
 xmlns="http://www.w3.org/2000/svg" version="1.1"
 xmlns:xlink="http://www.w3.org/1999/xlink">
<desc>Output from Flights of Ideas SVG Sketchup Plugin</desc>

  <g id="face0" fill="none" stroke="rgb(0,0,255)" stroke-width="1" stroke-miterlimit="4" stroke-dasharray="none" stroke-linejoin="round" stroke-linecap="round">
    <line x1="8.00009999999999" y1="3.0001" x2="3.00010000000004" y2="3.0001"/>
    <line x1="3.00010000000004" y1="3.0001" x2="3.00010000000004" y2="13.0001"/>
    <line x1="3.00010000000004" y1="13.0001" x2="0.0001" y2="13.0001"/>
    <line x1="0.0001" y1="13.0001" x2="0.000100000000014211" y2="47.0001"/>
    <line x1="0.000100000000014211" y1="47.0001" x2="3.00010000000006" y2="47.0001"/>
    <line x1="3.00010000000006" y1="47.0001" x2="3.00010000000006" y2="57.0001"/>
    <line x1="3.00010000000006" y1="57.0001" x2="8.00009999999999" y2="57.0001"/>
    <line x1="8.00009999999999" y1="57.0001" x2="8.00009999999999" y2="60.0001000000001"/>
    <line x1="8.00009999999999" y1="60.0001000000001" x2="18.0001000000001" y2="60.0001000000001"/>
    <line x1="18.0001000000001" y1="60.0001000000001" x2="18.0001000000001" y2="57.0001"/>
    <line x1="18.0001000000001" y1="57.0001" x2="39.0001" y2="57.0001"/>
    <line x1="39.0001" y1="57.0001" x2="39.0001" y2="55.0001000000001"/>
    <line x1="39.0001" y1="55.0001000000001" x2="37.7001000000001" y2="55.0001000000001"/>
    <line x1="37.7001000000001" y1="55.0001000000001" x2="37.7001000000001" y2="52.8001000000001"/>
    <line x1="37.7001000000001" y1="52.8001000000001" x2="39.0001" y2="52.8001000000001"/>
    <line x1="39.0001" y1="52.8001000000001" x2="39.0001" y2="49.8001000000001"/>
    <line x1="39.0001" y1="49.8001000000001" x2="42.0001" y2="49.8001000000001"/>
    <line x1="42.0001" y1="49.8001000000001" x2="42.0001" y2="52.8001000000001"/>
    <line x1="42.0001" y1="52.8001000000001" x2="43.3001000000001" y2="52.8001000000001"/>
    <line x1="43.3001000000001" y1="52.8001000000001" x2="43.3001000000001" y2="55.0001000000001"/>
    <line x1="43.3001000000001" y1="55.0001000000001" x2="42.0001" y2="55.0001000000001"/>
    <line x1="42.0001" y1="55.0001000000001" x2="42.0001" y2="57.0001"/>
    <line x1="42.0001" y1="57.0001" x2="63.0001000000001" y2="57.0001"/>
    <line x1="63.0001000000001" y1="57.0001" x2="63.0001000000001" y2="60.0001000000001"/>
    <line x1="63.0001000000001" y1="60.0001000000001" x2="73.0001" y2="60.0001000000001"/>
    <line x1="73.0001" y1="60.0001000000001" x2="73.0001" y2="57.0001"/>
    <line x1="73.0001" y1="57.0001" x2="78.0001000000001" y2="57.0001"/>
    <line x1="78.0001000000001" y1="57.0001" x2="78.0001000000001" y2="47.0001"/>
    <line x1="78.0001000000001" y1="47.0001" x2="81.0001" y2="47.0001"/>
    <line x1="81.0001" y1="47.0001" x2="81.0001" y2="13.0001"/>
    <line x1="81.0001" y1="13.0001" x2="78.0001000000001" y2="13.0001"/>
    <line x1="78.0001000000001" y1="13.0001" x2="78.0001000000001" y2="3.0001"/>
    <line x1="78.0001000000001" y1="3.0001" x2="73.0001" y2="3.0001"/>
    <line x1="73.0001" y1="3.0001" x2="73.0001" y2="0.0001"/>
    <line x1="73.0001" y1="0.0001" x2="63.0001000000001" y2="0.0001"/>
    <line x1="63.0001000000001" y1="0.0001" x2="63.0001000000001" y2="3.0001"/>
    <line x1="63.0001000000001" y1="3.0001" x2="42.0001" y2="3.0001"/>
    <line x1="42.0001" y1="3.0001" x2="42.0001" y2="5.0001"/>
    <line x1="42.0001" y1="5.0001" x2="43.3001000000001" y2="5.0001"/>
    <line x1="43.3001000000001" y1="5.0001" x2="43.3001000000001" y2="7.20010000000005"/>
    <line x1="43.3001000000001" y1="7.20010000000005" x2="42.0001" y2="7.20010000000005"/>
    <line x1="42.0001" y1="7.20010000000005" x2="42.0001" y2="10.2001"/>
    <line x1="42.0001" y1="10.2001" x2="39.0001" y2="10.2001"/>
    <line x1="39.0001" y1="10.2001" x2="39.0001" y2="7.20010000000005"/>
    <line x1="39.0001" y1="7.20010000000005" x2="37.7001000000001" y2="7.20010000000005"/>
    <line x1="37.7001000000001" y1="7.20010000000005" x2="37.7001000000001" y2="5.0001"/>
    <line x1="37.7001000000001" y1="5.0001" x2="39.0001" y2="5.00010000000011"/>
    <line x1="39.0001" y1="5.00010000000011" x2="39.0001" y2="3.0001"/>
    <line x1="39.0001" y1="3.0001" x2="18.0001000000001" y2="3.0001"/>
    <line x1="18.0001000000001" y1="3.0001" x2="18.0001000000001" y2="0.0001"/>
    <line x1="18.0001000000001" y1="0.0001" x2="8.00009999999999" y2="0.0001"/>
    <line x1="8.00009999999999" y1="0.0001" x2="8.00009999999999" y2="3.0001"/>
    <line x1="6.00010000000009" y1="43.3001000000001" x2="15.0001" y2="43.3001000000001"/>
    <line x1="15.0001" y1="43.3001000000001" x2="15.0001" y2="54.0001"/>
    <line x1="15.0001" y1="54.0001" x2="6.00010000000009" y2="54.0001"/>
    <line x1="6.00010000000009" y1="54.0001" x2="6.00010000000009" y2="43.3001000000001"/>
  </g>
</svg>
