<?xml version="1.0" standalone="no"?>
<!DOCTYPE svg PUBLIC "-//W3C//DTD SVG 1.1//EN" "http://www.w3.org/Graphics/SVG/1.1/DTD/svg11.dtd">
<svg width="60.0002000000001mm" height="292.840074296562mm"
 viewBox="0 0 60.0002000000001 292.840074296562"
 xmlns="http://www.w3.org/2000/svg" version="1.1"
 xmlns:xlink="http://www.w3.org/1999/xlink">
<desc>Output from Flights of Ideas SVG Sketchup Plugin</desc>

  <g id="face0" fill="none" stroke="rgb(0,0,255)" stroke-width="1" stroke-miterlimit="4" stroke-dasharray="none" stroke-linejoin="round" stroke-linecap="round">
    <line x1="37.0001000000001" y1="20.0001000000001" x2="33.0001000000001" y2="20.0001000000001"/>
    <line x1="33.0001000000001" y1="20.0001000000001" x2="33.0001000000001" y2="10.0001"/>
    <line x1="33.0001000000001" y1="10.0001" x2="43.0001000000001" y2="10.0001000000001"/>
    <line x1="43.0001000000001" y1="10.0001000000001" x2="43.0001000000001" y2="0.000100000000113687"/>
    <line x1="43.0001000000001" y1="0.000100000000113687" x2="15.4001002120952" y2="0.0001"/>
    <line x1="15.4001002120952" y1="0.0001" x2="15.4001002120952" y2="10.0001"/>
    <line x1="15.4001002120952" y1="10.0001" x2="23.0001" y2="10.0001"/>
    <line x1="23.0001" y1="10.0001" x2="23.0001" y2="20.0001000000001"/>
    <line x1="23.0001" y1="20.0001000000001" x2="3.00010000000004" y2="20.0001000000001"/>
    <line x1="3.00010000000004" y1="20.0001000000001" x2="3.00010000000004" y2="30.0001"/>
    <line x1="3.00010000000004" y1="30.0001" x2="0.0001" y2="30.0001"/>
    <line x1="0.0001" y1="30.0001" x2="0.0001" y2="40.0001"/>
    <line x1="0.0001" y1="40.0001" x2="3.00010000000004" y2="40.0001"/>
    <line x1="3.00010000000004" y1="40.0001" x2="3.00010000000006" y2="292.839974296562"/>
    <line x1="3.00010000000006" y1="292.839974296562" x2="57.0001" y2="292.839974296562"/>
    <line x1="57.0001" y1="292.839974296562" x2="57.0001" y2="40.0001"/>
    <line x1="57.0001" y1="40.0001" x2="60.0001000000001" y2="40.0001"/>
    <line x1="60.0001000000001" y1="40.0001" x2="60.0001000000001" y2="30.0001000000001"/>
    <line x1="60.0001000000001" y1="30.0001000000001" x2="57.0001" y2="30.0001000000001"/>
    <line x1="57.0001" y1="30.0001000000001" x2="57.0001" y2="20.0001000000001"/>
    <line x1="57.0001" y1="20.0001000000001" x2="37.0001000000001" y2="20.0001000000001"/>
    <line x1="12.3134513652372" y1="244.1533256618" x2="40.8098546470502" y2="272.649728943623"/>
    <line x1="40.8098546470502" y1="272.649728943623" x2="38.6885343034901" y2="274.771049287182"/>
    <line x1="38.6885343034901" y1="274.771049287182" x2="10.1921310216769" y2="246.27464600536"/>
    <line x1="10.1921310216769" y1="246.27464600536" x2="12.3134513652372" y2="244.1533256618"/>
    <line x1="25.0001" y1="289.839974296562" x2="25.0001" y2="286.839974296562"/>
    <line x1="25.0001" y1="286.839974296562" x2="35.0001000000001" y2="286.839974296562"/>
    <line x1="35.0001000000001" y1="286.839974296562" x2="35.0001000000001" y2="289.839974296562"/>
    <line x1="35.0001000000001" y1="289.839974296562" x2="25.0001" y2="289.839974296562"/>
  </g>
</svg>
