<?xml version="1.0" standalone="no"?>
<!DOCTYPE svg PUBLIC "-//W3C//DTD SVG 1.1//EN" "http://www.w3.org/Graphics/SVG/1.1/DTD/svg11.dtd">
<svg width="75.0001999999999mm" height="60.0001999999999mm"
 viewBox="0 0 75.0001999999999 60.0001999999999"
 xmlns="http://www.w3.org/2000/svg" version="1.1"
 xmlns:xlink="http://www.w3.org/1999/xlink">
<desc>Output from Flights of Ideas SVG Sketchup Plugin</desc>

  <g id="face0" fill="none" stroke="rgb(0,0,255)" stroke-width="1" stroke-miterlimit="4" stroke-dasharray="none" stroke-linejoin="round" stroke-linecap="round">
    <line x1="0.0001" y1="3.00010000000006" x2="0.0001" y2="57.0001000000001"/>
    <line x1="0.0001" y1="57.0001000000001" x2="32.5000999999999" y2="57.0001000000001"/>
    <line x1="32.5000999999999" y1="57.0001000000001" x2="32.5000999999999" y2="60.0000999999999"/>
    <line x1="32.5000999999999" y1="60.0000999999999" x2="42.5000999999999" y2="60.0000999999999"/>
    <line x1="42.5000999999999" y1="60.0000999999999" x2="42.5000999999999" y2="57.0001000000001"/>
    <line x1="42.5000999999999" y1="57.0001000000001" x2="75.0000999999999" y2="57.0001000000001"/>
    <line x1="75.0000999999999" y1="57.0001000000001" x2="75.0000999999999" y2="3.00010000000006"/>
    <line x1="75.0000999999999" y1="3.00010000000006" x2="42.5001" y2="3.00010000000006"/>
    <line x1="42.5001" y1="3.00010000000006" x2="42.5001" y2="0.000100000000113687"/>
    <line x1="42.5001" y1="0.000100000000113687" x2="32.5001" y2="0.0001"/>
    <line x1="32.5001" y1="0.0001" x2="32.5001" y2="3.00010000000006"/>
    <line x1="32.5001" y1="3.00010000000006" x2="0.0001" y2="3.00010000000006"/>
    <line x1="38.0000999999999" y1="47.0000999999999" x2="37.0001" y2="47.0000999999999"/>
    <line x1="37.0001" y1="47.0000999999999" x2="37.0001" y2="13.1001"/>
    <line x1="37.0001" y1="13.1001" x2="37.5001" y2="13.1001"/>
    <line x1="37.5001" y1="13.1001" x2="38.0000999999999" y2="13.1001"/>
    <line x1="38.0000999999999" y1="13.1001" x2="38.0000999999999" y2="47.0000999999999"/>
  </g>
</svg>
