<?xml version="1.0" standalone="no"?>
<!DOCTYPE svg PUBLIC "-//W3C//DTD SVG 1.1//EN" "http://www.w3.org/Graphics/SVG/1.1/DTD/svg11.dtd">
<svg width="101.0mm" height="80.3mm"
 viewBox="0 0 101.0 80.3"
 xmlns="http://www.w3.org/2000/svg" version="1.1"
 xmlns:xlink="http://www.w3.org/1999/xlink">
<desc>Output from Flights of Ideas SVG Sketchup Plugin</desc>

  <g id="face0" fill="none" stroke="rgb(0,0,255)" stroke-width="1" stroke-miterlimit="4" stroke-dasharray="none" stroke-linejoin="round" stroke-linecap="round">
    <line x1="12.9999999999999" y1="60.3" x2="12.9999999999999" y2="70.3"/>
    <line x1="12.9999999999999" y1="70.3" x2="88.0" y2="70.3"/>
    <line x1="88.0" y1="70.3" x2="88.0" y2="60.3"/>
    <line x1="88.0" y1="60.3" x2="91.0" y2="60.3"/>
    <line x1="91.0" y1="60.3" x2="91.0" y2="19.9999999999997"/>
    <line x1="91.0" y1="19.9999999999997" x2="88.0" y2="19.9999999999997"/>
    <line x1="88.0" y1="19.9999999999997" x2="88.0" y2="10.0"/>
    <line x1="88.0" y1="10.0" x2="12.9999999999999" y2="10.0"/>
    <line x1="12.9999999999999" y1="10.0" x2="12.9999999999999" y2="19.9999999999998"/>
    <line x1="12.9999999999999" y1="19.9999999999998" x2="10.0" y2="19.9999999999998"/>
    <line x1="10.0" y1="19.9999999999998" x2="10.0" y2="60.3"/>
    <line x1="10.0" y1="60.3" x2="12.9999999999999" y2="60.3"/>
    <line x1="62.7514345179214" y1="18.05" x2="62.3632059502676" y2="17.9988887394336"/>
    <line x1="62.3632059502676" y1="17.9988887394336" x2="62.0014345179214" y2="17.8490381056766"/>
    <line x1="62.0014345179214" y1="17.8490381056766" x2="61.6907743461416" y2="17.6106601717798"/>
    <line x1="61.6907743461416" y1="17.6106601717798" x2="61.4523964122448" y2="17.3"/>
    <line x1="61.4523964122448" y1="17.3" x2="61.3025457784878" y2="16.9382285676538"/>
    <line x1="61.3025457784878" y1="16.9382285676538" x2="61.2514345179214" y2="16.55"/>
    <line x1="61.2514345179214" y1="16.55" x2="61.3025457784878" y2="16.1617714323461"/>
    <line x1="61.3025457784878" y1="16.1617714323461" x2="61.4523964122448" y2="15.8"/>
    <line x1="61.4523964122448" y1="15.8" x2="61.6907743461416" y2="15.4893398282202"/>
    <line x1="61.6907743461416" y1="15.4893398282202" x2="62.0014345179214" y2="15.2509618943233"/>
    <line x1="62.0014345179214" y1="15.2509618943233" x2="62.3632059502676" y2="15.1011112605664"/>
    <line x1="62.3632059502676" y1="15.1011112605664" x2="62.7514345179214" y2="15.05"/>
    <line x1="62.7514345179214" y1="15.05" x2="63.1396630855752" y2="15.1011112605664"/>
    <line x1="63.1396630855752" y1="15.1011112605664" x2="63.5014345179214" y2="15.2509618943233"/>
    <line x1="63.5014345179214" y1="15.2509618943233" x2="63.8120946897012" y2="15.4893398282202"/>
    <line x1="63.8120946897012" y1="15.4893398282202" x2="64.0504726235981" y2="15.8"/>
    <line x1="64.0504726235981" y1="15.8" x2="64.200323257355" y2="16.1617714323461"/>
    <line x1="64.200323257355" y1="16.1617714323461" x2="64.2514345179214" y2="16.55"/>
    <line x1="64.2514345179214" y1="16.55" x2="64.200323257355" y2="16.9382285676538"/>
    <line x1="64.200323257355" y1="16.9382285676538" x2="64.0504726235981" y2="17.3"/>
    <line x1="64.0504726235981" y1="17.3" x2="63.8120946897012" y2="17.6106601717798"/>
    <line x1="63.8120946897012" y1="17.6106601717798" x2="63.5014345179214" y2="17.8490381056766"/>
    <line x1="63.5014345179214" y1="17.8490381056766" x2="63.1396630855752" y2="17.9988887394336"/>
    <line x1="63.1396630855752" y1="17.9988887394336" x2="62.7514345179214" y2="18.05"/>
    <line x1="62.7514345179214" y1="39.55" x2="63.1396630855752" y2="39.6011112605664"/>
    <line x1="63.1396630855752" y1="39.6011112605664" x2="63.5014345179214" y2="39.7509618943233"/>
    <line x1="63.5014345179214" y1="39.7509618943233" x2="63.8120946897012" y2="39.9893398282202"/>
    <line x1="63.8120946897012" y1="39.9893398282202" x2="64.0504726235981" y2="40.3"/>
    <line x1="64.0504726235981" y1="40.3" x2="64.200323257355" y2="40.6617714323462"/>
    <line x1="64.200323257355" y1="40.6617714323462" x2="64.2514345179214" y2="41.05"/>
    <line x1="64.2514345179214" y1="41.05" x2="64.200323257355" y2="41.4382285676538"/>
    <line x1="64.200323257355" y1="41.4382285676538" x2="64.0504726235981" y2="41.8"/>
    <line x1="64.0504726235981" y1="41.8" x2="63.8120946897012" y2="42.1106601717798"/>
    <line x1="63.8120946897012" y1="42.1106601717798" x2="63.5014345179214" y2="42.3490381056766"/>
    <line x1="63.5014345179214" y1="42.3490381056766" x2="63.1396630855752" y2="42.4988887394336"/>
    <line x1="63.1396630855752" y1="42.4988887394336" x2="62.7514345179214" y2="42.55"/>
    <line x1="62.7514345179214" y1="42.55" x2="62.3632059502676" y2="42.4988887394336"/>
    <line x1="62.3632059502676" y1="42.4988887394336" x2="62.0014345179214" y2="42.3490381056766"/>
    <line x1="62.0014345179214" y1="42.3490381056766" x2="61.6907743461416" y2="42.1106601717798"/>
    <line x1="61.6907743461416" y1="42.1106601717798" x2="61.4523964122448" y2="41.8"/>
    <line x1="61.4523964122448" y1="41.8" x2="61.3025457784878" y2="41.4382285676538"/>
    <line x1="61.3025457784878" y1="41.4382285676538" x2="61.2514345179214" y2="41.05"/>
    <line x1="61.2514345179214" y1="41.05" x2="61.3025457784878" y2="40.6617714323462"/>
    <line x1="61.3025457784878" y1="40.6617714323462" x2="61.4523964122448" y2="40.3"/>
    <line x1="61.4523964122448" y1="40.3" x2="61.6907743461416" y2="39.9893398282202"/>
    <line x1="61.6907743461416" y1="39.9893398282202" x2="62.0014345179214" y2="39.7509618943233"/>
    <line x1="62.0014345179214" y1="39.7509618943233" x2="62.3632059502676" y2="39.6011112605664"/>
    <line x1="62.3632059502676" y1="39.6011112605664" x2="62.7514345179214" y2="39.55"/>
    <line x1="38.2514345179214" y1="39.55" x2="38.6396630855752" y2="39.6011112605664"/>
    <line x1="38.6396630855752" y1="39.6011112605664" x2="39.0014345179214" y2="39.7509618943233"/>
    <line x1="39.0014345179214" y1="39.7509618943233" x2="39.3120946897012" y2="39.9893398282202"/>
    <line x1="39.3120946897012" y1="39.9893398282202" x2="39.550472623598" y2="40.3"/>
    <line x1="39.550472623598" y1="40.3" x2="39.700323257355" y2="40.6617714323462"/>
    <line x1="39.700323257355" y1="40.6617714323462" x2="39.7514345179214" y2="41.05"/>
    <line x1="39.7514345179214" y1="41.05" x2="39.700323257355" y2="41.4382285676538"/>
    <line x1="39.700323257355" y1="41.4382285676538" x2="39.550472623598" y2="41.8"/>
    <line x1="39.550472623598" y1="41.8" x2="39.3120946897012" y2="42.1106601717798"/>
    <line x1="39.3120946897012" y1="42.1106601717798" x2="39.0014345179214" y2="42.3490381056766"/>
    <line x1="39.0014345179214" y1="42.3490381056766" x2="38.6396630855752" y2="42.4988887394336"/>
    <line x1="38.6396630855752" y1="42.4988887394336" x2="38.2514345179214" y2="42.55"/>
    <line x1="38.2514345179214" y1="42.55" x2="37.8632059502676" y2="42.4988887394336"/>
    <line x1="37.8632059502676" y1="42.4988887394336" x2="37.5014345179213" y2="42.3490381056766"/>
    <line x1="37.5014345179213" y1="42.3490381056766" x2="37.1907743461416" y2="42.1106601717798"/>
    <line x1="37.1907743461416" y1="42.1106601717798" x2="36.9523964122448" y2="41.8"/>
    <line x1="36.9523964122448" y1="41.8" x2="36.8025457784878" y2="41.4382285676538"/>
    <line x1="36.8025457784878" y1="41.4382285676538" x2="36.7514345179213" y2="41.05"/>
    <line x1="36.7514345179213" y1="41.05" x2="36.8025457784878" y2="40.6617714323462"/>
    <line x1="36.8025457784878" y1="40.6617714323462" x2="36.9523964122448" y2="40.3"/>
    <line x1="36.9523964122448" y1="40.3" x2="37.1907743461416" y2="39.9893398282202"/>
    <line x1="37.1907743461416" y1="39.9893398282202" x2="37.5014345179213" y2="39.7509618943233"/>
    <line x1="37.5014345179213" y1="39.7509618943233" x2="37.8632059502676" y2="39.6011112605664"/>
    <line x1="37.8632059502676" y1="39.6011112605664" x2="38.2514345179214" y2="39.55"/>
    <line x1="38.2514345179214" y1="18.05" x2="37.8632059502676" y2="17.9988887394336"/>
    <line x1="37.8632059502676" y1="17.9988887394336" x2="37.5014345179213" y2="17.8490381056766"/>
    <line x1="37.5014345179213" y1="17.8490381056766" x2="37.1907743461416" y2="17.6106601717798"/>
    <line x1="37.1907743461416" y1="17.6106601717798" x2="36.9523964122448" y2="17.3"/>
    <line x1="36.9523964122448" y1="17.3" x2="36.8025457784878" y2="16.9382285676538"/>
    <line x1="36.8025457784878" y1="16.9382285676538" x2="36.7514345179213" y2="16.55"/>
    <line x1="36.7514345179213" y1="16.55" x2="36.8025457784878" y2="16.1617714323461"/>
    <line x1="36.8025457784878" y1="16.1617714323461" x2="36.9523964122448" y2="15.8"/>
    <line x1="36.9523964122448" y1="15.8" x2="37.1907743461416" y2="15.4893398282202"/>
    <line x1="37.1907743461416" y1="15.4893398282202" x2="37.5014345179213" y2="15.2509618943233"/>
    <line x1="37.5014345179213" y1="15.2509618943233" x2="37.8632059502676" y2="15.1011112605664"/>
    <line x1="37.8632059502676" y1="15.1011112605664" x2="38.2514345179214" y2="15.05"/>
    <line x1="38.2514345179214" y1="15.05" x2="38.6396630855752" y2="15.1011112605664"/>
    <line x1="38.6396630855752" y1="15.1011112605664" x2="39.0014345179214" y2="15.2509618943233"/>
    <line x1="39.0014345179214" y1="15.2509618943233" x2="39.3120946897012" y2="15.4893398282202"/>
    <line x1="39.3120946897012" y1="15.4893398282202" x2="39.550472623598" y2="15.8"/>
    <line x1="39.550472623598" y1="15.8" x2="39.700323257355" y2="16.1617714323461"/>
    <line x1="39.700323257355" y1="16.1617714323461" x2="39.7514345179214" y2="16.55"/>
    <line x1="39.7514345179214" y1="16.55" x2="39.700323257355" y2="16.9382285676538"/>
    <line x1="39.700323257355" y1="16.9382285676538" x2="39.550472623598" y2="17.3"/>
    <line x1="39.550472623598" y1="17.3" x2="39.3120946897012" y2="17.6106601717798"/>
    <line x1="39.3120946897012" y1="17.6106601717798" x2="39.0014345179214" y2="17.8490381056766"/>
    <line x1="39.0014345179214" y1="17.8490381056766" x2="38.6396630855752" y2="17.9988887394336"/>
    <line x1="38.6396630855752" y1="17.9988887394336" x2="38.2514345179214" y2="18.05"/>
  </g>
</svg>
