<?xml version="1.0"?>
<svg xmlns="http://www.w3.org/2000/svg" height="512px" viewBox="-45 0 512 512" width="512px"><path d="m211.359375 352c-5.519531 0-10 4.480469-10 10s4.480469 10 10 10 10-4.480469 10-10-4.480469-10-10-10zm0 0" fill="#FFFFFF"/><path d="m420.089844 411.300781c3.082031-3.359375 3.5-8.375 1.019531-12.203125 0 0-154.984375-238.953125-155.003906-238.988281-1.960938-2.945313-2.242188-6.75-.621094-10.007813l34.820313-69.628906c1.921874-3.851562 1.167968-8.5-1.875-11.542968-5.0625-5.0625-10.78125-9.207032-17.070313-12.375v-46.554688c0-5.523438-4.476563-10-10-10s-10 4.476562-10 10v40.191406c-17.597656-2.652344-35.6875 1.851563-50 12.601563-14.316406-10.75-32.402344-15.25-50-12.597657v-40.195312c0-5.523438-4.476563-10-10-10s-10 4.476562-10 10v46.554688c-6.285156 3.167968-12.007813 7.3125-17.070313 12.375-3.042968 3.042968-3.796874 7.691406-1.875 11.542968l34.816407 69.617188c1.511719 3.03125 1.515625 6.644531-.679688 10.117187l-154.941406 238.890625c-2.480469 3.828125-2.058594 8.84375 1.023437 12.203125 21.152344 23.054688 49.628907 42.378907 82.746094 56.273438-1.304687 4-2.273437 7.0625-2.886718 9.140625-1.460938 4.929687 1.058593 10.164062 5.824218 12.101562 37.324219 15.164063 79.871094 23.183594 123.042969 23.183594s85.71875-8.019531 123.046875-23.1875c4.765625-1.933594 7.28125-7.167969 5.824219-12.101562-.617188-2.089844-1.597657-5.1875-2.882813-9.132813 33.117188-13.90625 61.59375-33.230469 82.742188-56.277344zm-276.316406-332.832031c3.40625-2.515625 7.125-4.535156 11.113281-6.039062 17.097656-6.445313 36.488281-2.269532 49.402343 10.640624 3.90625 3.90625 10.234376 3.90625 14.140626 0 12.914062-12.910156 32.304687-17.085937 49.402343-10.644531 3.988281 1.507813 7.707031 3.527344 11.113281 6.042969-32.933593 66.242188-31.84375 62.820312-33.246093 67.53125h-68.679688c-1.421875-4.769531-.847656-2.371094-33.246093-67.53125zm187.226562 370.085938c-20.417969-60.328126-66.167969-189.957032-82.945312-235.980469-1.890626-5.1875-7.632813-7.863281-12.820313-5.96875-5.1875 1.890625-7.859375 7.628906-5.96875 12.820312 17.984375 49.328125 73.792969 207.523438 89.011719 254.179688-29.902344 10.972656-63.050782 17.195312-96.917969 18.222656v-89.828125c0-5.523438-4.476563-10-10-10-5.519531 0-10 4.476562-10 10v89.828125c-33.863281-1.027344-67.011719-7.246094-96.914063-18.21875 15.085938-46.203125 70.25-202.75 89.007813-254.183594 1.894531-5.1875-.777344-10.929687-5.964844-12.820312-5.191406-1.894531-10.929687.777343-12.824219 5.96875-18.289062 50.140625-63.339843 178.105469-82.933593 235.972656-27.152344-11.570313-50.746094-27.011719-69.027344-45.214844 160.203125-247.304687 151.339844-232.523437 153.316406-237.332031h70.679688c1.96875 4.785156-6.574219-9.492188 153.320312 237.332031-18.277343 18.199219-41.867187 33.640625-69.019531 45.222657zm0 0" fill="#FFFFFF"/></svg>
