<?xml version="1.0" encoding="iso-8859-1"?>
<!-- Generator: Adobe Illustrator 19.0.0, SVG Export Plug-In . SVG Version: 6.00 Build 0)  -->
<svg xmlns="http://www.w3.org/2000/svg" xmlns:xlink="http://www.w3.org/1999/xlink" version="1.1" id="Capa_1" x="0px" y="0px" viewBox="0 0 512.001 512.001" style="enable-background:new 0 0 512.001 512.001;" xml:space="preserve" width="512px" height="512px">
<g>
	<g>
		<path d="M206.888,260.423c-1.87-1.86-4.44-2.93-7.079-2.93c-2.63,0-5.209,1.07-7.069,2.93c-1.86,1.86-2.92,4.44-2.92,7.069    s1.06,5.209,2.92,7.069c1.87,1.86,4.44,2.93,7.069,2.93c2.64,0,5.209-1.07,7.079-2.93c1.86-1.86,2.92-4.44,2.92-7.069    S208.748,262.282,206.888,260.423z" fill="#FFFFFF"/>
	</g>
</g>
<g>
	<g>
		<path d="M484.014,187.977c-8.433-8.155-18.183-14.499-28.747-18.857c-6.858-41.861-26.359-79.863-56.476-109.981    c-78.752-78.75-206.889-78.75-285.64,0c-24.945,24.945-42.826,55.773-52.035,89.556c-5.692-0.219-11.414,1.209-16.531,4.273    c-9.135,5.469-14.588,15.09-14.588,25.737v78.928c-7.054,3.093-11.999,10.134-11.999,18.316v44.096    C7.907,321.053,0,329.591,0,339.943v141.984c0,16.54,13.456,29.997,29.997,29.997h91.99c16.54,0,29.997-13.456,29.997-29.997    V375.175c22.771,13.729,47.798,22.691,73.992,26.564v50.129h-4.83c-27.601,0-50.057,22.456-50.057,50.057    c0,5.522,4.477,9.999,9.999,9.999h149.769c5.522,0,9.999-4.477,9.999-9.999c0-27.601-22.456-50.057-50.057-50.057h-4.827v-50.136    c27.923-4.129,54.452-14.013,78.301-29.225v99.912c0,21.784,17.722,39.506,39.506,39.506h29.497    c21.784,0,39.506-17.722,39.506-39.506V354.652l29.727-60.326C520.166,258.489,512.735,215.751,484.014,187.977z M49.995,178.706    c0-5.115,3.401-7.703,4.862-8.579c1.462-0.876,5.349-2.652,9.858-0.235l31.996,17.144c3.255,1.744,5.276,5.121,5.276,8.813v60.102    H49.995V178.706z M37.997,275.951h75.992v43.995H37.997V275.951z M131.986,481.928c0,5.513-4.485,9.999-9.999,9.999h-91.99    c-5.513,0-9.999-4.485-9.999-9.999V339.944h111.987V481.928z M290.8,471.866c13.071,0,24.22,8.386,28.349,20.061H192.797    c4.129-11.675,15.278-20.061,28.35-20.061h14.828h39.996H290.8z M245.974,451.868v-48.18c3.298,0.159,6.607,0.247,9.93,0.247    c0.913,0,1.829-0.006,2.743-0.018c2.45-0.032,4.89-0.114,7.325-0.232v48.183H245.974z M151.983,351.328v-11.385    c0.001-10.352-7.906-18.89-17.997-19.897v-44.096c0-8.182-4.944-15.223-11.999-18.316v-61.784c0-11.078-6.065-21.209-15.829-26.44    l-26.132-14.001c8.173-30.996,24.432-59.293,47.267-82.128c70.954-70.954,186.405-70.953,257.358,0    c24.925,24.925,41.785,55.837,49.155,89.929c-4.427-0.651-8.928-0.987-13.475-0.987c-5.151,0-10.238,0.451-15.228,1.284    c-8.071-31.307-26.045-59.621-51.177-80.363c-27.478-22.677-62.265-35.166-97.951-35.166c-27.075,0-53.705,7.128-77.013,20.615    c-22.604,13.079-41.656,31.829-55.1,54.226c-2.842,4.734-1.308,10.877,3.428,13.719c4.734,2.84,10.876,1.308,13.719-3.428    c24.481-40.785,67.46-65.136,114.967-65.136c12.819,0,25.302,1.842,37.169,5.291l-73.791,73.79c-3.905,3.905-3.905,10.236,0,14.14    c1.953,1.953,4.511,2.929,7.07,2.929s5.118-0.977,7.07-2.929l80.11-80.109c12.743,6.102,24.433,14.168,34.634,23.841    L219.76,233.406c-3.905,3.905-3.905,10.236,0,14.141c1.953,1.953,4.511,2.929,7.07,2.929s5.118-0.976,7.07-2.929l127.804-127.804    c11.159,14.276,19.519,30.92,24.149,49.179c-10.743,4.362-20.651,10.782-29.208,19.057l-1.134,1.097    c-27.958,27.036-35.793,68.928-19.497,104.241l5.449,11.809c-24.003,19.916-54.131,30.819-85.492,30.819    c-25.869,0-50.973-7.383-72.597-21.352c-4.638-2.998-10.828-1.665-13.824,2.974c-2.997,4.638-1.665,10.828,2.974,13.824    c24.864,16.061,53.72,24.551,83.448,24.551c34.266,0,67.246-11.333,94.122-32.118l11.998,25.998    C300.156,394.333,214.652,395.047,151.983,351.328z M452.781,472.419c0,10.757-8.751,19.508-19.508,19.508h-29.497    c-10.757,0-19.508-8.751-19.508-19.508v-62.621h68.512V472.419z M452.781,389.801h-68.512v-27.662h68.512V389.801z     M484.567,285.487l-27.918,56.655h-5.13v-41.064c0-5.522-4.477-9.999-9.999-9.999c-5.522,0-9.999,4.477-9.999,9.999v41.064    h-50.949l-26.399-57.205c-12.74-27.605-6.614-60.351,15.242-81.488l1.134-1.097c27.914-26.995,71.649-26.996,99.565,0    C492.564,224.063,498.373,257.472,484.567,285.487z" fill="#FFFFFF"/>
	</g>
</g>
<g>
	<g>
		<path d="M448.591,260.423c-1.86-1.86-4.44-2.93-7.069-2.93c-2.63,0-5.209,1.07-7.069,2.93c-1.86,1.86-2.93,4.44-2.93,7.069    s1.07,5.209,2.93,7.069c1.86,1.86,4.44,2.93,7.069,2.93c2.63,0,5.209-1.07,7.069-2.93c1.86-1.86,2.93-4.44,2.93-7.069    S450.451,262.282,448.591,260.423z" fill="#FFFFFF"/>
	</g>
</g>
<g>
</g>
<g>
</g>
<g>
</g>
<g>
</g>
<g>
</g>
<g>
</g>
<g>
</g>
<g>
</g>
<g>
</g>
<g>
</g>
<g>
</g>
<g>
</g>
<g>
</g>
<g>
</g>
<g>
</g>
</svg>
