<?xml version="1.0"?>
<svg xmlns="http://www.w3.org/2000/svg" viewBox="0 0 512 512" width="512px" height="512px"><path d="m462 386c5.519531 0 10-4.480469 10-10s-4.480469-10-10-10-10 4.480469-10 10 4.480469 10 10 10zm0 0" fill="#FFFFFF"/><path d="m462 346c5.523438 0 10-4.476562 10-10v-80c0-5.523438-4.476562-10-10-10s-10 4.476562-10 10v80c0 5.523438 4.476562 10 10 10zm0 0" fill="#FFFFFF"/><path d="m10 366h10v136c0 5.523438 4.476562 10 10 10h452c16.542969 0 30-13.457031 30-30v-372c0-5.523438-4.476562-10-10-10h-76v-10c0-49.625-40.375-90-90-90-49.53125 0-90 40.074219-90 90v10h-76c-5.523438 0-10 4.476562-10 10v106.019531c-9.796875 7.375-16.554688 18.113281-18.992188 30.042969-.335937-.035156-.671874-.0625-1.007812-.0625s-.667969.023438-1 .03125c-4.632812-22.808594-24.84375-40.03125-49-40.03125-27.570312 0-50 22.429688-50 50 0 11.246094 3.734375 21.636719 10.027344 30h-40.027344c-5.523438 0-10 4.476562-10 10v60c0 5.523438 4.476562 10 10 10zm30 0h50v126h-50zm70 0h60v126h-60zm130 126c-21.449219 0-26.5625 0-50 0v-126h50zm-50-146v-40h70v40zm0-60c-.34375 0-.683594-.019531-1.023438-.03125-1.472656-7.238281-4.523437-14.046875-8.976562-19.96875v-38.277344c3.199219-1.128906 6.578125-1.722656 10-1.722656 16.542969 0 30 13.457031 30 30s-13.457031 30-30 30zm-50.582031-19.996094 8.65625 1.09375c9.234375 2.574219 16.910156 9.574219 20.214843 18.902344h-56.546874c4.121093-11.550781 14.945312-19.753906 27.675781-19.996094zm30.582031 39.996094v40h-60v-40zm312 186h-222v-40h232v30c0 5.515625-4.484375 10-10 10zm-216-402c0-38.609375 31.246094-70 70-70 38.597656 0 70 31.402344 70 70v10h-140zm-20 30v46h-10c-5.523438 0-10 4.476562-10 10s4.476562 10 10 10h40c5.523438 0 10-4.476562 10-10s-4.476562-10-10-10h-10v-46h140v46h-10c-5.523438 0-10 4.476562-10 10s4.476562 10 10 10h40c5.523438 0 10-4.476562 10-10s-4.476562-10-10-10h-10v-46h66v312h-232v-66h10c5.523438 0 10-4.476562 10-10v-60c0-5.523438-4.476562-10-10-10h-40.027344c6.292969-8.363281 10.027344-18.753906 10.027344-30 0-27.570312-22.429688-50-50-50-3.371094 0-6.71875.347656-10 1.015625v-87.015625zm-186 136c0-16.542969 13.457031-30 30-30 14.632812 0 26.847656 10.535156 29.472656 24.417969-14.539062 6.582031-25.191406 19.894531-28.4375 35.550781-.34375.011719-.6875.03125-1.035156.03125-16.542969 0-30-13.457031-30-30zm-40 50h70v40h-70zm0 0" fill="#FFFFFF"/></svg>
