<?xml version="1.0" standalone="no"?>
<!DOCTYPE svg PUBLIC "-//W3C//DTD SVG 1.1//EN" "http://www.w3.org/Graphics/SVG/1.1/DTD/svg11.dtd">
<svg width="111.5mm" height="490.732308330971mm"
 viewBox="0 0 111.5 490.732308330971"
 xmlns="http://www.w3.org/2000/svg" version="1.1"
 xmlns:xlink="http://www.w3.org/1999/xlink">
<desc>Output from Flights of Ideas SVG Sketchup Plugin</desc>

  <g id="face0" fill="none" stroke="rgb(0,0,255)" stroke-width="1" stroke-miterlimit="4" stroke-dasharray="none" stroke-linejoin="round" stroke-linecap="round">
    <line x1="101.5" y1="480.732308330971" x2="101.5" y2="10.0"/>
    <line x1="101.5" y1="10.0" x2="10.0000000000001" y2="10.0"/>
    <line x1="10.0000000000001" y1="10.0" x2="10.0" y2="480.732308330971"/>
    <line x1="10.0" y1="480.732308330971" x2="101.5" y2="480.732308330971"/>
    <line x1="40.0" y1="13.0" x2="40.0" y2="15.9999999999999"/>
    <line x1="40.0" y1="15.9999999999999" x2="20.0000000000001" y2="16.0"/>
    <line x1="20.0000000000001" y1="16.0" x2="20.0000000000001" y2="13.0"/>
    <line x1="20.0000000000001" y1="13.0" x2="40.0" y2="13.0"/>
    <line x1="71.5" y1="13.0" x2="91.5" y2="13.0"/>
    <line x1="91.5" y1="13.0" x2="91.5000000000001" y2="16.0000000000001"/>
    <line x1="91.5000000000001" y1="16.0000000000001" x2="71.5" y2="16.0"/>
    <line x1="71.5" y1="16.0" x2="71.5" y2="13.0"/>
    <line x1="98.5000000000001" y1="111.721955248519" x2="95.5000000000001" y2="111.721955248519"/>
    <line x1="95.5000000000001" y1="111.721955248519" x2="95.5000000000001" y2="39.0"/>
    <line x1="95.5000000000001" y1="39.0" x2="98.5000000000001" y2="39.0"/>
    <line x1="98.5000000000001" y1="39.0" x2="98.5000000000001" y2="111.721955248519"/>
    <line x1="13.0" y1="111.721955248519" x2="13.0000000000001" y2="39.0"/>
    <line x1="13.0000000000001" y1="39.0" x2="16.0" y2="39.0"/>
    <line x1="16.0" y1="39.0" x2="16.0" y2="111.721955248519"/>
    <line x1="16.0" y1="111.721955248519" x2="13.0" y2="111.721955248519"/>
    <line x1="71.5000000000001" y1="137.721955248519" x2="40.0" y2="137.721955248519"/>
    <line x1="40.0" y1="137.721955248519" x2="39.9999999999999" y2="140.721955248519"/>
    <line x1="39.9999999999999" y1="140.721955248519" x2="20.0" y2="140.721955248519"/>
    <line x1="20.0" y1="140.721955248519" x2="20.0" y2="137.721955248519"/>
    <line x1="20.0" y1="137.721955248519" x2="30.0" y2="137.72195524852"/>
    <line x1="30.0" y1="137.72195524852" x2="30.0" y2="134.72195524852"/>
    <line x1="30.0" y1="134.72195524852" x2="81.5000000000001" y2="134.721955248519"/>
    <line x1="81.5000000000001" y1="134.721955248519" x2="81.5000000000001" y2="137.721955248519"/>
    <line x1="81.5000000000001" y1="137.721955248519" x2="91.5000000000001" y2="137.721955248519"/>
    <line x1="91.5000000000001" y1="137.721955248519" x2="91.5000000000001" y2="140.721955248519"/>
    <line x1="91.5000000000001" y1="140.721955248519" x2="71.5000000000001" y2="140.721955248519"/>
    <line x1="71.5000000000001" y1="140.721955248519" x2="71.5000000000001" y2="137.721955248519"/>
    <line x1="95.5000000000001" y1="350.732308330971" x2="98.5000000000001" y2="350.732308330971"/>
    <line x1="98.5000000000001" y1="350.732308330971" x2="98.5000000000001" y2="360.732308330971"/>
    <line x1="98.5000000000001" y1="360.732308330971" x2="95.5000000000001" y2="360.732308330971"/>
    <line x1="95.5000000000001" y1="360.732308330971" x2="95.5000000000001" y2="350.732308330971"/>
    <line x1="95.5000000000001" y1="337.732308330971" x2="95.5000000000001" y2="327.732308330971"/>
    <line x1="95.5000000000001" y1="327.732308330971" x2="98.5000000000001" y2="327.732308330971"/>
    <line x1="98.5000000000001" y1="327.732308330971" x2="98.5000000000001" y2="337.732308330971"/>
    <line x1="98.5000000000001" y1="337.732308330971" x2="95.5000000000001" y2="337.732308330971"/>
    <line x1="44.100000000009" y1="314.732308330973" x2="67.4" y2="314.732308330973"/>
    <line x1="67.4" y1="314.732308330973" x2="67.4" y2="317.732308330973"/>
    <line x1="67.4" y1="317.732308330973" x2="44.1000000000089" y2="317.732308330973"/>
    <line x1="44.1000000000089" y1="317.732308330973" x2="44.100000000009" y2="314.732308330973"/>
    <line x1="13.000000000009" y1="327.732308330975" x2="16.0000000000089" y2="327.732308330975"/>
    <line x1="16.0000000000089" y1="327.732308330975" x2="16.000000000009" y2="337.732308330975"/>
    <line x1="16.000000000009" y1="337.732308330975" x2="13.000000000009" y2="337.732308330975"/>
    <line x1="13.000000000009" y1="337.732308330975" x2="13.000000000009" y2="327.732308330975"/>
    <line x1="13.000000000009" y1="360.732308330975" x2="13.000000000009" y2="350.732308330975"/>
    <line x1="13.000000000009" y1="350.732308330975" x2="16.000000000009" y2="350.732308330975"/>
    <line x1="16.000000000009" y1="350.732308330975" x2="16.000000000009" y2="360.732308330975"/>
    <line x1="16.000000000009" y1="360.732308330975" x2="13.000000000009" y2="360.732308330975"/>
    <line x1="14.8882285676628" y1="345.681197070409" x2="14.500000000009" y2="345.732308330975"/>
    <line x1="14.500000000009" y1="345.732308330975" x2="14.1117714323552" y2="345.681197070409"/>
    <line x1="14.1117714323552" y1="345.681197070409" x2="13.750000000009" y2="345.531346436652"/>
    <line x1="13.750000000009" y1="345.531346436652" x2="13.4393398282292" y2="345.292968502755"/>
    <line x1="13.4393398282292" y1="345.292968502755" x2="13.2009618943323" y2="344.982308330975"/>
    <line x1="13.2009618943323" y1="344.982308330975" x2="13.0511112605754" y2="344.620536898629"/>
    <line x1="13.0511112605754" y1="344.620536898629" x2="13.000000000009" y2="344.232308330975"/>
    <line x1="13.000000000009" y1="344.232308330975" x2="13.0511112605755" y2="343.844079763322"/>
    <line x1="13.0511112605755" y1="343.844079763322" x2="13.2009618943323" y2="343.482308330975"/>
    <line x1="13.2009618943323" y1="343.482308330975" x2="13.4393398282292" y2="343.171648159195"/>
    <line x1="13.4393398282292" y1="343.171648159195" x2="13.750000000009" y2="342.933270225299"/>
    <line x1="13.750000000009" y1="342.933270225299" x2="14.1117714323552" y2="342.783419591542"/>
    <line x1="14.1117714323552" y1="342.783419591542" x2="14.500000000009" y2="342.732308330975"/>
    <line x1="14.500000000009" y1="342.732308330975" x2="14.8882285676628" y2="342.783419591542"/>
    <line x1="14.8882285676628" y1="342.783419591542" x2="15.2500000000089" y2="342.933270225299"/>
    <line x1="15.2500000000089" y1="342.933270225299" x2="15.5606601717889" y2="343.171648159195"/>
    <line x1="15.5606601717889" y1="343.171648159195" x2="15.7990381056857" y2="343.482308330975"/>
    <line x1="15.7990381056857" y1="343.482308330975" x2="15.9488887394426" y2="343.844079763322"/>
    <line x1="15.9488887394426" y1="343.844079763322" x2="16.000000000009" y2="344.232308330975"/>
    <line x1="16.000000000009" y1="344.232308330975" x2="15.9488887394426" y2="344.620536898629"/>
    <line x1="15.9488887394426" y1="344.620536898629" x2="15.7990381056857" y2="344.982308330975"/>
    <line x1="15.7990381056857" y1="344.982308330975" x2="15.5606601717888" y2="345.292968502755"/>
    <line x1="15.5606601717888" y1="345.292968502755" x2="15.250000000009" y2="345.531346436652"/>
    <line x1="15.250000000009" y1="345.531346436652" x2="14.8882285676628" y2="345.681197070409"/>
    <line x1="97.0000000000001" y1="342.732308330971" x2="97.3882285676538" y2="342.783419591537"/>
    <line x1="97.3882285676538" y1="342.783419591537" x2="97.7500000000001" y2="342.933270225294"/>
    <line x1="97.7500000000001" y1="342.933270225294" x2="98.0606601717799" y2="343.171648159191"/>
    <line x1="98.0606601717799" y1="343.171648159191" x2="98.2990381056767" y2="343.482308330971"/>
    <line x1="98.2990381056767" y1="343.482308330971" x2="98.4488887394336" y2="343.844079763317"/>
    <line x1="98.4488887394336" y1="343.844079763317" x2="98.5000000000001" y2="344.232308330971"/>
    <line x1="98.5000000000001" y1="344.232308330971" x2="98.4488887394336" y2="344.620536898625"/>
    <line x1="98.4488887394336" y1="344.620536898625" x2="98.2990381056767" y2="344.982308330971"/>
    <line x1="98.2990381056767" y1="344.982308330971" x2="98.0606601717799" y2="345.292968502751"/>
    <line x1="98.0606601717799" y1="345.292968502751" x2="97.7500000000001" y2="345.531346436648"/>
    <line x1="97.7500000000001" y1="345.531346436648" x2="97.3882285676538" y2="345.681197070405"/>
    <line x1="97.3882285676538" y1="345.681197070405" x2="97.0000000000001" y2="345.732308330971"/>
    <line x1="97.0000000000001" y1="345.732308330971" x2="96.6117714323463" y2="345.681197070405"/>
    <line x1="96.6117714323463" y1="345.681197070405" x2="96.2500000000001" y2="345.531346436648"/>
    <line x1="96.2500000000001" y1="345.531346436648" x2="95.9393398282202" y2="345.292968502751"/>
    <line x1="95.9393398282202" y1="345.292968502751" x2="95.7009618943234" y2="344.982308330971"/>
    <line x1="95.7009618943234" y1="344.982308330971" x2="95.5511112605664" y2="344.620536898625"/>
    <line x1="95.5511112605664" y1="344.620536898625" x2="95.5000000000001" y2="344.232308330971"/>
    <line x1="95.5000000000001" y1="344.232308330971" x2="95.5511112605664" y2="343.844079763317"/>
    <line x1="95.5511112605664" y1="343.844079763317" x2="95.7009618943234" y2="343.482308330971"/>
    <line x1="95.7009618943234" y1="343.482308330971" x2="95.9393398282202" y2="343.171648159191"/>
    <line x1="95.9393398282202" y1="343.171648159191" x2="96.2500000000001" y2="342.933270225294"/>
    <line x1="96.2500000000001" y1="342.933270225294" x2="96.6117714323462" y2="342.783419591537"/>
    <line x1="96.6117714323462" y1="342.783419591537" x2="97.0000000000001" y2="342.732308330971"/>
    <line x1="90.4488887394422" y1="315.844079763317" x2="90.5000000000089" y2="316.232308330973"/>
    <line x1="90.5000000000089" y1="316.232308330973" x2="90.4488887394422" y2="316.620536898629"/>
    <line x1="90.4488887394422" y1="316.620536898629" x2="90.2990381056843" y2="316.982308330978"/>
    <line x1="90.2990381056843" y1="316.982308330978" x2="90.0606601717861" y2="317.292968502759"/>
    <line x1="90.0606601717861" y1="317.292968502759" x2="89.7500000000044" y2="317.531346436658"/>
    <line x1="89.7500000000044" y1="317.531346436658" x2="89.3882285676561" y2="317.681197070415"/>
    <line x1="89.3882285676561" y1="317.681197070415" x2="89.0" y2="317.732308330982"/>
    <line x1="89.0" y1="317.732308330982" x2="88.611771432344" y2="317.681197070415"/>
    <line x1="88.611771432344" y1="317.681197070415" x2="88.2499999999956" y2="317.531346436657"/>
    <line x1="88.2499999999956" y1="317.531346436657" x2="87.939339828214" y2="317.292968502759"/>
    <line x1="87.939339828214" y1="317.292968502759" x2="87.7009618943158" y2="316.982308330978"/>
    <line x1="87.7009618943158" y1="316.982308330978" x2="87.5511112605579" y2="316.620536898629"/>
    <line x1="87.5511112605579" y1="316.620536898629" x2="87.4999999999912" y2="316.232308330973"/>
    <line x1="87.4999999999912" y1="316.232308330973" x2="87.5511112605579" y2="315.844079763317"/>
    <line x1="87.5511112605579" y1="315.844079763317" x2="87.7009618943158" y2="315.482308330969"/>
    <line x1="87.7009618943158" y1="315.482308330969" x2="87.939339828214" y2="315.171648159187"/>
    <line x1="87.939339828214" y1="315.171648159187" x2="88.2499999999956" y2="314.933270225289"/>
    <line x1="88.2499999999956" y1="314.933270225289" x2="88.611771432344" y2="314.783419591531"/>
    <line x1="88.611771432344" y1="314.783419591531" x2="89.0" y2="314.732308330964"/>
    <line x1="89.0" y1="314.732308330964" x2="89.3882285676561" y2="314.783419591531"/>
    <line x1="89.3882285676561" y1="314.783419591531" x2="89.7500000000044" y2="314.933270225289"/>
    <line x1="89.7500000000044" y1="314.933270225289" x2="90.0606601717861" y2="315.171648159187"/>
    <line x1="90.0606601717861" y1="315.171648159187" x2="90.2990381056843" y2="315.482308330969"/>
    <line x1="90.2990381056843" y1="315.482308330969" x2="90.4488887394422" y2="315.844079763317"/>
    <line x1="24.1000000000089" y1="316.232308330975" x2="24.0488887394425" y2="316.620536898629"/>
    <line x1="24.0488887394425" y1="316.620536898629" x2="23.8990381056856" y2="316.982308330975"/>
    <line x1="23.8990381056856" y1="316.982308330975" x2="23.6606601717888" y2="317.292968502755"/>
    <line x1="23.6606601717888" y1="317.292968502755" x2="23.3500000000089" y2="317.531346436652"/>
    <line x1="23.3500000000089" y1="317.531346436652" x2="22.9882285676628" y2="317.681197070409"/>
    <line x1="22.9882285676628" y1="317.681197070409" x2="22.600000000009" y2="317.732308330975"/>
    <line x1="22.600000000009" y1="317.732308330975" x2="22.2117714323552" y2="317.681197070409"/>
    <line x1="22.2117714323552" y1="317.681197070409" x2="21.850000000009" y2="317.531346436652"/>
    <line x1="21.850000000009" y1="317.531346436652" x2="21.5393398282292" y2="317.292968502755"/>
    <line x1="21.5393398282292" y1="317.292968502755" x2="21.3009618943323" y2="316.982308330975"/>
    <line x1="21.3009618943323" y1="316.982308330975" x2="21.1511112605754" y2="316.620536898629"/>
    <line x1="21.1511112605754" y1="316.620536898629" x2="21.1000000000089" y2="316.232308330975"/>
    <line x1="21.1000000000089" y1="316.232308330975" x2="21.1511112605754" y2="315.844079763321"/>
    <line x1="21.1511112605754" y1="315.844079763321" x2="21.3009618943323" y2="315.482308330975"/>
    <line x1="21.3009618943323" y1="315.482308330975" x2="21.5393398282292" y2="315.171648159195"/>
    <line x1="21.5393398282292" y1="315.171648159195" x2="21.850000000009" y2="314.933270225298"/>
    <line x1="21.850000000009" y1="314.933270225298" x2="22.2117714323552" y2="314.783419591541"/>
    <line x1="22.2117714323552" y1="314.783419591541" x2="22.6000000000091" y2="314.732308330975"/>
    <line x1="22.6000000000091" y1="314.732308330975" x2="22.9882285676628" y2="314.783419591541"/>
    <line x1="22.9882285676628" y1="314.783419591541" x2="23.350000000009" y2="314.933270225298"/>
    <line x1="23.350000000009" y1="314.933270225298" x2="23.6606601717888" y2="315.171648159195"/>
    <line x1="23.6606601717888" y1="315.171648159195" x2="23.8990381056856" y2="315.482308330975"/>
    <line x1="23.8990381056856" y1="315.482308330975" x2="24.0488887394426" y2="315.844079763321"/>
    <line x1="24.0488887394426" y1="315.844079763321" x2="24.1000000000089" y2="316.232308330975"/>
    <line x1="14.5000000000001" y1="124.72195524852" x2="14.1117714323462" y2="124.670843987953"/>
    <line x1="14.1117714323462" y1="124.670843987953" x2="13.7500000000001" y2="124.520993354196"/>
    <line x1="13.7500000000001" y1="124.520993354196" x2="13.4393398282202" y2="124.282615420299"/>
    <line x1="13.4393398282202" y1="124.282615420299" x2="13.2009618943234" y2="123.97195524852"/>
    <line x1="13.2009618943234" y1="123.97195524852" x2="13.0511112605665" y2="123.610183816173"/>
    <line x1="13.0511112605665" y1="123.610183816173" x2="13.0000000000001" y2="123.221955248519"/>
    <line x1="13.0000000000001" y1="123.221955248519" x2="13.0511112605664" y2="122.833726680866"/>
    <line x1="13.0511112605664" y1="122.833726680866" x2="13.2009618943235" y2="122.471955248519"/>
    <line x1="13.2009618943235" y1="122.471955248519" x2="13.4393398282202" y2="122.16129507674"/>
    <line x1="13.4393398282202" y1="122.16129507674" x2="13.7500000000001" y2="121.922917142843"/>
    <line x1="13.7500000000001" y1="121.922917142843" x2="14.1117714323462" y2="121.773066509086"/>
    <line x1="14.1117714323462" y1="121.773066509086" x2="14.5" y2="121.721955248519"/>
    <line x1="14.5" y1="121.721955248519" x2="14.8882285676539" y2="121.773066509086"/>
    <line x1="14.8882285676539" y1="121.773066509086" x2="15.25" y2="121.922917142843"/>
    <line x1="15.25" y1="121.922917142843" x2="15.5606601717798" y2="122.16129507674"/>
    <line x1="15.5606601717798" y1="122.16129507674" x2="15.7990381056767" y2="122.471955248519"/>
    <line x1="15.7990381056767" y1="122.471955248519" x2="15.9488887394336" y2="122.833726680866"/>
    <line x1="15.9488887394336" y1="122.833726680866" x2="16.0" y2="123.221955248519"/>
    <line x1="16.0" y1="123.221955248519" x2="15.9488887394336" y2="123.610183816173"/>
    <line x1="15.9488887394336" y1="123.610183816173" x2="15.7990381056767" y2="123.97195524852"/>
    <line x1="15.7990381056767" y1="123.97195524852" x2="15.5606601717798" y2="124.282615420299"/>
    <line x1="15.5606601717798" y1="124.282615420299" x2="15.25" y2="124.520993354196"/>
    <line x1="15.25" y1="124.520993354196" x2="14.8882285676538" y2="124.670843987953"/>
    <line x1="14.8882285676538" y1="124.670843987953" x2="14.5000000000001" y2="124.72195524852"/>
    <line x1="14.5000000000001" y1="29.0" x2="14.1117714323462" y2="28.9488887394336"/>
    <line x1="14.1117714323462" y1="28.9488887394336" x2="13.75" y2="28.7990381056768"/>
    <line x1="13.75" y1="28.7990381056768" x2="13.4393398282202" y2="28.5606601717798"/>
    <line x1="13.4393398282202" y1="28.5606601717798" x2="13.2009618943233" y2="28.2499999999999"/>
    <line x1="13.2009618943233" y1="28.2499999999999" x2="13.0511112605664" y2="27.8882285676538"/>
    <line x1="13.0511112605664" y1="27.8882285676538" x2="13.0" y2="27.5"/>
    <line x1="13.0" y1="27.5" x2="13.0511112605665" y2="27.1117714323462"/>
    <line x1="13.0511112605665" y1="27.1117714323462" x2="13.2009618943234" y2="26.75"/>
    <line x1="13.2009618943234" y1="26.75" x2="13.4393398282202" y2="26.4393398282202"/>
    <line x1="13.4393398282202" y1="26.4393398282202" x2="13.75" y2="26.2009618943233"/>
    <line x1="13.75" y1="26.2009618943233" x2="14.1117714323462" y2="26.0511112605664"/>
    <line x1="14.1117714323462" y1="26.0511112605664" x2="14.4999999999999" y2="26.0"/>
    <line x1="14.4999999999999" y1="26.0" x2="14.8882285676538" y2="26.0511112605664"/>
    <line x1="14.8882285676538" y1="26.0511112605664" x2="15.2500000000001" y2="26.2009618943233"/>
    <line x1="15.2500000000001" y1="26.2009618943233" x2="15.5606601717798" y2="26.4393398282202"/>
    <line x1="15.5606601717798" y1="26.4393398282202" x2="15.7990381056766" y2="26.7499999999999"/>
    <line x1="15.7990381056766" y1="26.7499999999999" x2="15.9488887394336" y2="27.1117714323462"/>
    <line x1="15.9488887394336" y1="27.1117714323462" x2="16.0000000000001" y2="27.5000000000001"/>
    <line x1="16.0000000000001" y1="27.5000000000001" x2="15.9488887394336" y2="27.8882285676538"/>
    <line x1="15.9488887394336" y1="27.8882285676538" x2="15.7990381056766" y2="28.25"/>
    <line x1="15.7990381056766" y1="28.25" x2="15.5606601717798" y2="28.5606601717798"/>
    <line x1="15.5606601717798" y1="28.5606601717798" x2="15.25" y2="28.7990381056767"/>
    <line x1="15.25" y1="28.7990381056767" x2="14.8882285676538" y2="28.9488887394335"/>
    <line x1="14.8882285676538" y1="28.9488887394335" x2="14.5000000000001" y2="29.0"/>
    <line x1="57.4" y1="14.4999999999999" x2="57.3488887394337" y2="14.8882285676538"/>
    <line x1="57.3488887394337" y1="14.8882285676538" x2="57.1990381056767" y2="15.25"/>
    <line x1="57.1990381056767" y1="15.25" x2="56.9606601717798" y2="15.5606601717797"/>
    <line x1="56.9606601717798" y1="15.5606601717797" x2="56.65" y2="15.7990381056767"/>
    <line x1="56.65" y1="15.7990381056767" x2="56.2882285676538" y2="15.9488887394335"/>
    <line x1="56.2882285676538" y1="15.9488887394335" x2="55.9000000000001" y2="16.0"/>
    <line x1="55.9000000000001" y1="16.0" x2="55.5117714323463" y2="15.9488887394335"/>
    <line x1="55.5117714323463" y1="15.9488887394335" x2="55.15" y2="15.7990381056767"/>
    <line x1="55.15" y1="15.7990381056767" x2="54.8393398282202" y2="15.5606601717798"/>
    <line x1="54.8393398282202" y1="15.5606601717798" x2="54.6009618943233" y2="15.25"/>
    <line x1="54.6009618943233" y1="15.25" x2="54.4511112605664" y2="14.8882285676538"/>
    <line x1="54.4511112605664" y1="14.8882285676538" x2="54.4" y2="14.5"/>
    <line x1="54.4" y1="14.5" x2="54.4511112605664" y2="14.1117714323462"/>
    <line x1="54.4511112605664" y1="14.1117714323462" x2="54.6009618943233" y2="13.75"/>
    <line x1="54.6009618943233" y1="13.75" x2="54.8393398282202" y2="13.4393398282202"/>
    <line x1="54.8393398282202" y1="13.4393398282202" x2="55.15" y2="13.2009618943233"/>
    <line x1="55.15" y1="13.2009618943233" x2="55.5117714323463" y2="13.0511112605664"/>
    <line x1="55.5117714323463" y1="13.0511112605664" x2="55.9" y2="13.0"/>
    <line x1="55.9" y1="13.0" x2="56.2882285676538" y2="13.0511112605664"/>
    <line x1="56.2882285676538" y1="13.0511112605664" x2="56.65" y2="13.2009618943233"/>
    <line x1="56.65" y1="13.2009618943233" x2="56.9606601717798" y2="13.4393398282202"/>
    <line x1="56.9606601717798" y1="13.4393398282202" x2="57.1990381056767" y2="13.75"/>
    <line x1="57.1990381056767" y1="13.75" x2="57.3488887394336" y2="14.1117714323461"/>
    <line x1="57.3488887394336" y1="14.1117714323461" x2="57.4" y2="14.4999999999999"/>
    <line x1="97.0000000000001" y1="29.0" x2="96.6117714323463" y2="28.9488887394336"/>
    <line x1="96.6117714323463" y1="28.9488887394336" x2="96.25" y2="28.7990381056768"/>
    <line x1="96.25" y1="28.7990381056768" x2="95.9393398282202" y2="28.5606601717798"/>
    <line x1="95.9393398282202" y1="28.5606601717798" x2="95.7009618943234" y2="28.25"/>
    <line x1="95.7009618943234" y1="28.25" x2="95.5511112605664" y2="27.8882285676538"/>
    <line x1="95.5511112605664" y1="27.8882285676538" x2="95.5000000000001" y2="27.5000000000001"/>
    <line x1="95.5000000000001" y1="27.5000000000001" x2="95.5511112605664" y2="27.1117714323462"/>
    <line x1="95.5511112605664" y1="27.1117714323462" x2="95.7009618943233" y2="26.75"/>
    <line x1="95.7009618943233" y1="26.75" x2="95.9393398282202" y2="26.4393398282202"/>
    <line x1="95.9393398282202" y1="26.4393398282202" x2="96.2500000000001" y2="26.2009618943233"/>
    <line x1="96.2500000000001" y1="26.2009618943233" x2="96.6117714323463" y2="26.0511112605664"/>
    <line x1="96.6117714323463" y1="26.0511112605664" x2="97.0000000000001" y2="26.0"/>
    <line x1="97.0000000000001" y1="26.0" x2="97.3882285676538" y2="26.0511112605664"/>
    <line x1="97.3882285676538" y1="26.0511112605664" x2="97.75" y2="26.2009618943234"/>
    <line x1="97.75" y1="26.2009618943234" x2="98.0606601717798" y2="26.4393398282202"/>
    <line x1="98.0606601717798" y1="26.4393398282202" x2="98.2990381056766" y2="26.75"/>
    <line x1="98.2990381056766" y1="26.75" x2="98.4488887394336" y2="27.1117714323462"/>
    <line x1="98.4488887394336" y1="27.1117714323462" x2="98.5000000000001" y2="27.5"/>
    <line x1="98.5000000000001" y1="27.5" x2="98.4488887394336" y2="27.8882285676539"/>
    <line x1="98.4488887394336" y1="27.8882285676539" x2="98.2990381056767" y2="28.25"/>
    <line x1="98.2990381056767" y1="28.25" x2="98.0606601717798" y2="28.5606601717797"/>
    <line x1="98.0606601717798" y1="28.5606601717797" x2="97.75" y2="28.7990381056767"/>
    <line x1="97.75" y1="28.7990381056767" x2="97.3882285676538" y2="28.9488887394336"/>
    <line x1="97.3882285676538" y1="28.9488887394336" x2="97.0000000000001" y2="29.0"/>
    <line x1="97.0000000000001" y1="124.72195524852" x2="96.6117714323462" y2="124.670843987953"/>
    <line x1="96.6117714323462" y1="124.670843987953" x2="96.2500000000001" y2="124.520993354196"/>
    <line x1="96.2500000000001" y1="124.520993354196" x2="95.9393398282202" y2="124.282615420299"/>
    <line x1="95.9393398282202" y1="124.282615420299" x2="95.7009618943234" y2="123.97195524852"/>
    <line x1="95.7009618943234" y1="123.97195524852" x2="95.5511112605665" y2="123.610183816173"/>
    <line x1="95.5511112605665" y1="123.610183816173" x2="95.5000000000001" y2="123.221955248519"/>
    <line x1="95.5000000000001" y1="123.221955248519" x2="95.5511112605665" y2="122.833726680866"/>
    <line x1="95.5511112605665" y1="122.833726680866" x2="95.7009618943234" y2="122.471955248519"/>
    <line x1="95.7009618943234" y1="122.471955248519" x2="95.9393398282202" y2="122.16129507674"/>
    <line x1="95.9393398282202" y1="122.16129507674" x2="96.2500000000001" y2="121.922917142843"/>
    <line x1="96.2500000000001" y1="121.922917142843" x2="96.6117714323463" y2="121.773066509086"/>
    <line x1="96.6117714323463" y1="121.773066509086" x2="97.0000000000001" y2="121.721955248519"/>
    <line x1="97.0000000000001" y1="121.721955248519" x2="97.3882285676539" y2="121.773066509086"/>
    <line x1="97.3882285676539" y1="121.773066509086" x2="97.7500000000001" y2="121.922917142843"/>
    <line x1="97.7500000000001" y1="121.922917142843" x2="98.0606601717799" y2="122.16129507674"/>
    <line x1="98.0606601717799" y1="122.16129507674" x2="98.2990381056767" y2="122.471955248519"/>
    <line x1="98.2990381056767" y1="122.471955248519" x2="98.4488887394336" y2="122.833726680866"/>
    <line x1="98.4488887394336" y1="122.833726680866" x2="98.5000000000001" y2="123.221955248519"/>
    <line x1="98.5000000000001" y1="123.221955248519" x2="98.4488887394336" y2="123.610183816173"/>
    <line x1="98.4488887394336" y1="123.610183816173" x2="98.2990381056767" y2="123.97195524852"/>
    <line x1="98.2990381056767" y1="123.97195524852" x2="98.0606601717799" y2="124.282615420299"/>
    <line x1="98.0606601717799" y1="124.282615420299" x2="97.7500000000001" y2="124.520993354196"/>
    <line x1="97.7500000000001" y1="124.520993354196" x2="97.3882285676538" y2="124.670843987953"/>
    <line x1="97.3882285676538" y1="124.670843987953" x2="97.0000000000001" y2="124.72195524852"/>
    <line x1="36.0000000000001" y1="111.721955248519" x2="36.0000000000001" y2="36.7219552485194"/>
    <line x1="36.0000000000001" y1="36.7219552485194" x2="75.5000000000001" y2="36.7219552485194"/>
    <line x1="75.5000000000001" y1="36.7219552485194" x2="75.5000000000001" y2="111.721955248519"/>
    <line x1="75.5000000000001" y1="111.721955248519" x2="36.0000000000001" y2="111.721955248519"/>
    <line x1="16.000000000009" y1="464.73230833098" x2="13.000000000009" y2="464.73230833098"/>
    <line x1="13.000000000009" y1="464.73230833098" x2="13.000000000009" y2="444.73230833098"/>
    <line x1="13.000000000009" y1="444.73230833098" x2="16.000000000009" y2="444.73230833098"/>
    <line x1="16.000000000009" y1="444.73230833098" x2="16.000000000009" y2="464.73230833098"/>
    <line x1="15.000000000009" y1="474.73230833098" x2="20.000000000009" y2="474.73230833098"/>
    <line x1="20.000000000009" y1="474.73230833098" x2="20.000000000009" y2="477.732308330975"/>
    <line x1="20.000000000009" y1="477.732308330975" x2="15.000000000009" y2="477.732308330975"/>
    <line x1="15.000000000009" y1="477.732308330975" x2="15.000000000009" y2="474.73230833098"/>
    <line x1="95.5000000000001" y1="477.732308330975" x2="75.5" y2="477.732308330975"/>
    <line x1="75.5" y1="477.732308330975" x2="75.5" y2="474.732308330975"/>
    <line x1="75.5" y1="474.732308330975" x2="95.5000000000001" y2="474.732308330975"/>
    <line x1="95.5000000000001" y1="474.732308330975" x2="95.5000000000001" y2="477.732308330975"/>
    <line x1="95.5000000000001" y1="444.732308330975" x2="98.5000000000001" y2="444.732308330975"/>
    <line x1="98.5000000000001" y1="444.732308330975" x2="98.5000000000001" y2="464.732308330975"/>
    <line x1="98.5000000000001" y1="464.732308330975" x2="95.5000000000001" y2="464.732308330975"/>
    <line x1="95.5000000000001" y1="464.732308330975" x2="95.5000000000001" y2="444.732308330975"/>
    <line x1="14.8882285676628" y1="434.681197070413" x2="14.500000000009" y2="434.73230833098"/>
    <line x1="14.500000000009" y1="434.73230833098" x2="14.1117714323552" y2="434.681197070413"/>
    <line x1="14.1117714323552" y1="434.681197070413" x2="13.750000000009" y2="434.531346436656"/>
    <line x1="13.750000000009" y1="434.531346436656" x2="13.4393398282292" y2="434.29296850276"/>
    <line x1="13.4393398282292" y1="434.29296850276" x2="13.2009618943323" y2="433.98230833098"/>
    <line x1="13.2009618943323" y1="433.98230833098" x2="13.0511112605754" y2="433.620536898634"/>
    <line x1="13.0511112605754" y1="433.620536898634" x2="13.000000000009" y2="433.23230833098"/>
    <line x1="13.000000000009" y1="433.23230833098" x2="13.0511112605754" y2="432.844079763326"/>
    <line x1="13.0511112605754" y1="432.844079763326" x2="13.2009618943323" y2="432.48230833098"/>
    <line x1="13.2009618943323" y1="432.48230833098" x2="13.4393398282292" y2="432.1716481592"/>
    <line x1="13.4393398282292" y1="432.1716481592" x2="13.750000000009" y2="431.933270225303"/>
    <line x1="13.750000000009" y1="431.933270225303" x2="14.1117714323552" y2="431.783419591546"/>
    <line x1="14.1117714323552" y1="431.783419591546" x2="14.500000000009" y2="431.73230833098"/>
    <line x1="14.500000000009" y1="431.73230833098" x2="14.8882285676628" y2="431.783419591546"/>
    <line x1="14.8882285676628" y1="431.783419591546" x2="15.250000000009" y2="431.933270225303"/>
    <line x1="15.250000000009" y1="431.933270225303" x2="15.5606601717888" y2="432.1716481592"/>
    <line x1="15.5606601717888" y1="432.1716481592" x2="15.7990381056857" y2="432.48230833098"/>
    <line x1="15.7990381056857" y1="432.48230833098" x2="15.9488887394426" y2="432.844079763326"/>
    <line x1="15.9488887394426" y1="432.844079763326" x2="16.000000000009" y2="433.23230833098"/>
    <line x1="16.000000000009" y1="433.23230833098" x2="15.9488887394426" y2="433.620536898634"/>
    <line x1="15.9488887394426" y1="433.620536898634" x2="15.7990381056857" y2="433.98230833098"/>
    <line x1="15.7990381056857" y1="433.98230833098" x2="15.5606601717888" y2="434.29296850276"/>
    <line x1="15.5606601717888" y1="434.29296850276" x2="15.250000000009" y2="434.531346436656"/>
    <line x1="15.250000000009" y1="434.531346436656" x2="14.8882285676628" y2="434.681197070413"/>
    <line x1="97.3882285676538" y1="434.681197070409" x2="97.0000000000001" y2="434.732308330975"/>
    <line x1="97.0000000000001" y1="434.732308330975" x2="96.6117714323462" y2="434.681197070409"/>
    <line x1="96.6117714323462" y1="434.681197070409" x2="96.2500000000001" y2="434.531346436652"/>
    <line x1="96.2500000000001" y1="434.531346436652" x2="95.9393398282202" y2="434.292968502755"/>
    <line x1="95.9393398282202" y1="434.292968502755" x2="95.7009618943234" y2="433.982308330975"/>
    <line x1="95.7009618943234" y1="433.982308330975" x2="95.5511112605664" y2="433.620536898629"/>
    <line x1="95.5511112605664" y1="433.620536898629" x2="95.5000000000001" y2="433.232308330975"/>
    <line x1="95.5000000000001" y1="433.232308330975" x2="95.5511112605664" y2="432.844079763322"/>
    <line x1="95.5511112605664" y1="432.844079763322" x2="95.7009618943234" y2="432.482308330975"/>
    <line x1="95.7009618943234" y1="432.482308330975" x2="95.9393398282202" y2="432.171648159196"/>
    <line x1="95.9393398282202" y1="432.171648159196" x2="96.2500000000001" y2="431.933270225299"/>
    <line x1="96.2500000000001" y1="431.933270225299" x2="96.6117714323462" y2="431.783419591542"/>
    <line x1="96.6117714323462" y1="431.783419591542" x2="97.0000000000001" y2="431.732308330975"/>
    <line x1="97.0000000000001" y1="431.732308330975" x2="97.3882285676538" y2="431.783419591542"/>
    <line x1="97.3882285676538" y1="431.783419591542" x2="97.7500000000001" y2="431.933270225299"/>
    <line x1="97.7500000000001" y1="431.933270225299" x2="98.0606601717799" y2="432.171648159196"/>
    <line x1="98.0606601717799" y1="432.171648159196" x2="98.2990381056767" y2="432.482308330975"/>
    <line x1="98.2990381056767" y1="432.482308330975" x2="98.4488887394336" y2="432.844079763322"/>
    <line x1="98.4488887394336" y1="432.844079763322" x2="98.5000000000001" y2="433.232308330975"/>
    <line x1="98.5000000000001" y1="433.232308330975" x2="98.4488887394336" y2="433.620536898629"/>
    <line x1="98.4488887394336" y1="433.620536898629" x2="98.2990381056767" y2="433.982308330975"/>
    <line x1="98.2990381056767" y1="433.982308330975" x2="98.0606601717799" y2="434.292968502755"/>
    <line x1="98.0606601717799" y1="434.292968502755" x2="97.7500000000001" y2="434.531346436652"/>
    <line x1="97.7500000000001" y1="434.531346436652" x2="97.3882285676538" y2="434.681197070409"/>
    <line x1="41.7673437868312" y1="408.092937535286" x2="41.3762559089238" y2="408.14228648371"/>
    <line x1="41.3762559089238" y1="408.14228648371" x2="40.9857215795967" y2="408.088732916381"/>
    <line x1="40.9857215795967" y1="408.088732916381" x2="40.6223550680049" y2="407.935926420412"/>
    <line x1="40.6223550680049" y1="407.935926420412" x2="40.3109192014219" y2="407.694280505979"/>
    <line x1="40.3109192014219" y1="407.694280505979" x2="40.0726378194833" y2="407.380262942811"/>
    <line x1="40.0726378194833" y1="407.380262942811" x2="39.9237494045895" y2="407.0152735089"/>
    <line x1="39.9237494045895" y1="407.0152735089" x2="39.8744004561657" y2="406.624185630992"/>
    <line x1="39.8744004561657" y1="406.624185630992" x2="39.9279540234943" y2="406.233651301665"/>
    <line x1="39.9279540234943" y1="406.233651301665" x2="40.080760519463" y2="405.870284790073"/>
    <line x1="40.080760519463" y1="405.870284790073" x2="40.3224064338963" y2="405.55884892349"/>
    <line x1="40.3224064338963" y1="405.55884892349" x2="40.6364239970644" y2="405.320567541552"/>
    <line x1="40.6364239970644" y1="405.320567541552" x2="41.0014134309758" y2="405.171679126658"/>
    <line x1="41.0014134309758" y1="405.171679126658" x2="41.3925013088833" y2="405.122330178234"/>
    <line x1="41.3925013088833" y1="405.122330178234" x2="41.7830356382104" y2="405.175883745563"/>
    <line x1="41.7830356382104" y1="405.175883745563" x2="42.1464021498022" y2="405.328690241531"/>
    <line x1="42.1464021498022" y1="405.328690241531" x2="42.4578380163852" y2="405.570336155965"/>
    <line x1="42.4578380163852" y1="405.570336155965" x2="42.6961193983238" y2="405.884353719133"/>
    <line x1="42.6961193983238" y1="405.884353719133" x2="42.8450078132176" y2="406.249343153044"/>
    <line x1="42.8450078132176" y1="406.249343153044" x2="42.8943567616413" y2="406.640431030952"/>
    <line x1="42.8943567616413" y1="406.640431030952" x2="42.8408031943128" y2="407.030965360279"/>
    <line x1="42.8408031943128" y1="407.030965360279" x2="42.6879966983441" y2="407.394331871871"/>
    <line x1="42.6879966983441" y1="407.394331871871" x2="42.4463507839108" y2="407.705767738454"/>
    <line x1="42.4463507839108" y1="407.705767738454" x2="42.1323332207427" y2="407.944049120392"/>
    <line x1="42.1323332207427" y1="407.944049120392" x2="41.7673437868312" y2="408.092937535286"/>
    <line x1="68.4949999999993" y1="408.240006690686" x2="68.1822687604076" y2="408.000039570563"/>
    <line x1="68.1822687604076" y1="408.000039570563" x2="67.9423016402848" y2="407.687308330971"/>
    <line x1="67.9423016402848" y1="407.687308330971" x2="67.7914520023028" y2="407.323125089076"/>
    <line x1="67.7914520023028" y1="407.323125089076" x2="67.7399999999993" y2="406.932308330971"/>
    <line x1="67.7399999999993" y1="406.932308330971" x2="67.7914520023028" y2="406.541491572866"/>
    <line x1="67.7914520023028" y1="406.541491572866" x2="67.9423016402848" y2="406.177308330971"/>
    <line x1="67.9423016402848" y1="406.177308330971" x2="68.1822687604076" y2="405.86457709138"/>
    <line x1="68.1822687604076" y1="405.86457709138" x2="68.4949999999993" y2="405.624609971257"/>
    <line x1="68.4949999999993" y1="405.624609971257" x2="68.8591832418945" y2="405.473760333275"/>
    <line x1="68.8591832418945" y1="405.473760333275" x2="69.2499999999993" y2="405.422308330971"/>
    <line x1="69.2499999999993" y1="405.422308330971" x2="69.6408167581041" y2="405.473760333275"/>
    <line x1="69.6408167581041" y1="405.473760333275" x2="70.0049999999993" y2="405.624609971257"/>
    <line x1="70.0049999999993" y1="405.624609971257" x2="70.317731239591" y2="405.86457709138"/>
    <line x1="70.317731239591" y1="405.86457709138" x2="70.5576983597138" y2="406.177308330971"/>
    <line x1="70.5576983597138" y1="406.177308330971" x2="70.7085479976958" y2="406.541491572866"/>
    <line x1="70.7085479976958" y1="406.541491572866" x2="70.7599999999993" y2="406.932308330971"/>
    <line x1="70.7599999999993" y1="406.932308330971" x2="70.7085479976958" y2="407.323125089076"/>
    <line x1="70.7085479976958" y1="407.323125089076" x2="70.5576983597138" y2="407.687308330971"/>
    <line x1="70.5576983597138" y1="407.687308330971" x2="70.317731239591" y2="408.000039570563"/>
    <line x1="70.317731239591" y1="408.000039570563" x2="70.0049999999993" y2="408.240006690686"/>
    <line x1="70.0049999999993" y1="408.240006690686" x2="69.6408167581041" y2="408.390856328668"/>
    <line x1="69.6408167581041" y1="408.390856328668" x2="69.2499999999993" y2="408.442308330971"/>
    <line x1="69.2499999999993" y1="408.442308330971" x2="68.8591832418945" y2="408.390856328668"/>
    <line x1="68.8591832418945" y1="408.390856328668" x2="68.4949999999993" y2="408.240006690686"/>
    <line x1="76.5576983597154" y1="457.787308330971" x2="76.3177312395926" y2="458.100039570563"/>
    <line x1="76.3177312395926" y1="458.100039570563" x2="76.0050000000008" y2="458.340006690686"/>
    <line x1="76.0050000000008" y1="458.340006690686" x2="75.6408167581057" y2="458.490856328668"/>
    <line x1="75.6408167581057" y1="458.490856328668" x2="75.2500000000009" y2="458.542308330971"/>
    <line x1="75.2500000000009" y1="458.542308330971" x2="74.859183241896" y2="458.490856328668"/>
    <line x1="74.859183241896" y1="458.490856328668" x2="74.4950000000009" y2="458.340006690686"/>
    <line x1="74.4950000000009" y1="458.340006690686" x2="74.1822687604091" y2="458.100039570563"/>
    <line x1="74.1822687604091" y1="458.100039570563" x2="73.9423016402863" y2="457.787308330971"/>
    <line x1="73.9423016402863" y1="457.787308330971" x2="73.7914520023043" y2="457.423125089076"/>
    <line x1="73.7914520023043" y1="457.423125089076" x2="73.7400000000007" y2="457.032308330971"/>
    <line x1="73.7400000000007" y1="457.032308330971" x2="73.7914520023043" y2="456.641491572866"/>
    <line x1="73.7914520023043" y1="456.641491572866" x2="73.9423016402862" y2="456.277308330971"/>
    <line x1="73.9423016402862" y1="456.277308330971" x2="74.182268760409" y2="455.964577091379"/>
    <line x1="74.182268760409" y1="455.964577091379" x2="74.4950000000007" y2="455.724609971256"/>
    <line x1="74.4950000000007" y1="455.724609971256" x2="74.859183241896" y2="455.573760333274"/>
    <line x1="74.859183241896" y1="455.573760333274" x2="75.2500000000007" y2="455.522308330971"/>
    <line x1="75.2500000000007" y1="455.522308330971" x2="75.6408167581056" y2="455.573760333274"/>
    <line x1="75.6408167581056" y1="455.573760333274" x2="76.0050000000008" y2="455.724609971256"/>
    <line x1="76.0050000000008" y1="455.724609971256" x2="76.3177312395925" y2="455.964577091379"/>
    <line x1="76.3177312395925" y1="455.964577091379" x2="76.5576983597153" y2="456.277308330971"/>
    <line x1="76.5576983597153" y1="456.277308330971" x2="76.7085479976973" y2="456.641491572866"/>
    <line x1="76.7085479976973" y1="456.641491572866" x2="76.7600000000009" y2="457.032308330971"/>
    <line x1="76.7600000000009" y1="457.032308330971" x2="76.7085479976973" y2="457.423125089076"/>
    <line x1="76.7085479976973" y1="457.423125089076" x2="76.5576983597154" y2="457.787308330971"/>
    <line x1="27.5408167581057" y1="454.973760333276" x2="27.9050000000009" y2="455.124609971258"/>
    <line x1="27.9050000000009" y1="455.124609971258" x2="28.2177312395926" y2="455.364577091381"/>
    <line x1="28.2177312395926" y1="455.364577091381" x2="28.4576983597154" y2="455.677308330972"/>
    <line x1="28.4576983597154" y1="455.677308330972" x2="28.6085479976974" y2="456.041491572868"/>
    <line x1="28.6085479976974" y1="456.041491572868" x2="28.6600000000009" y2="456.432308330972"/>
    <line x1="28.6600000000009" y1="456.432308330972" x2="28.6085479976975" y2="456.823125089077"/>
    <line x1="28.6085479976975" y1="456.823125089077" x2="28.4576983597154" y2="457.187308330972"/>
    <line x1="28.4576983597154" y1="457.187308330972" x2="28.2177312395926" y2="457.500039570564"/>
    <line x1="28.2177312395926" y1="457.500039570564" x2="27.9050000000009" y2="457.740006690687"/>
    <line x1="27.9050000000009" y1="457.740006690687" x2="27.5408167581057" y2="457.890856328669"/>
    <line x1="27.5408167581057" y1="457.890856328669" x2="27.1500000000009" y2="457.942308330972"/>
    <line x1="27.1500000000009" y1="457.942308330972" x2="26.7591832418961" y2="457.890856328669"/>
    <line x1="26.7591832418961" y1="457.890856328669" x2="26.3950000000009" y2="457.740006690687"/>
    <line x1="26.3950000000009" y1="457.740006690687" x2="26.0822687604092" y2="457.500039570564"/>
    <line x1="26.0822687604092" y1="457.500039570564" x2="25.8423016402864" y2="457.187308330972"/>
    <line x1="25.8423016402864" y1="457.187308330972" x2="25.6914520023043" y2="456.823125089077"/>
    <line x1="25.6914520023043" y1="456.823125089077" x2="25.6400000000009" y2="456.432308330972"/>
    <line x1="25.6400000000009" y1="456.432308330972" x2="25.6914520023043" y2="456.041491572868"/>
    <line x1="25.6914520023043" y1="456.041491572868" x2="25.8423016402864" y2="455.677308330972"/>
    <line x1="25.8423016402864" y1="455.677308330972" x2="26.0822687604092" y2="455.364577091381"/>
    <line x1="26.0822687604092" y1="455.364577091381" x2="26.3950000000009" y2="455.124609971258"/>
    <line x1="26.3950000000009" y1="455.124609971258" x2="26.7591832418961" y2="454.973760333276"/>
    <line x1="26.7591832418961" y1="454.973760333276" x2="27.1500000000009" y2="454.922308330972"/>
    <line x1="27.1500000000009" y1="454.922308330972" x2="27.5408167581057" y2="454.973760333276"/>
  </g>
</svg>
