<?xml version="1.0" standalone="no"?>
<!DOCTYPE svg PUBLIC "-//W3C//DTD SVG 1.1//EN" "http://www.w3.org/Graphics/SVG/1.1/DTD/svg11.dtd">
<svg width="103.960737701816mm" height="64.5116951990907mm"
 viewBox="0 0 103.960737701816 64.5116951990907"
 xmlns="http://www.w3.org/2000/svg" version="1.1"
 xmlns:xlink="http://www.w3.org/1999/xlink">
<desc>Output from Flights of Ideas SVG Sketchup Plugin</desc>

  <g id="face0" fill="none" stroke="rgb(0,0,255)" stroke-width="1" stroke-miterlimit="4" stroke-dasharray="none" stroke-linejoin="round" stroke-linecap="round">
    <line x1="26.7444436971731" y1="54.5116951990907" x2="26.744443697168" y2="25.0000000000003"/>
    <line x1="26.744443697168" y1="25.0000000000003" x2="77.2162940046478" y2="25.0000000000003"/>
    <line x1="77.2162940046478" y1="25.0000000000003" x2="77.2162940046478" y2="54.5116951990907"/>
    <line x1="77.2162940046478" y1="54.5116951990907" x2="93.9607377018159" y2="54.5116951990907"/>
    <line x1="93.9607377018159" y1="54.5116951990907" x2="93.9607377018159" y2="49.5116951990917"/>
    <line x1="93.9607377018159" y1="49.5116951990917" x2="91.9607377018159" y2="49.5116951990917"/>
    <line x1="91.9607377018159" y1="49.5116951990917" x2="91.9607377018159" y2="50.8116951990919"/>
    <line x1="91.9607377018159" y1="50.8116951990919" x2="89.7607377018159" y2="50.8116951990919"/>
    <line x1="89.7607377018159" y1="50.8116951990919" x2="89.7607377018159" y2="49.5116951990917"/>
    <line x1="89.7607377018159" y1="49.5116951990917" x2="86.7607377018159" y2="49.5116951990918"/>
    <line x1="86.7607377018159" y1="49.5116951990918" x2="86.7607377018159" y2="46.5116951990917"/>
    <line x1="86.7607377018159" y1="46.5116951990917" x2="89.7607377018159" y2="46.5116951990917"/>
    <line x1="89.7607377018159" y1="46.5116951990917" x2="89.7607377018159" y2="45.2116951990917"/>
    <line x1="89.7607377018159" y1="45.2116951990917" x2="91.9607377018159" y2="45.2116951990917"/>
    <line x1="91.9607377018159" y1="45.2116951990917" x2="91.9607377018159" y2="46.5116951990917"/>
    <line x1="91.9607377018159" y1="46.5116951990917" x2="93.9607377018159" y2="46.5116951990916"/>
    <line x1="93.9607377018159" y1="46.5116951990916" x2="93.9607377018159" y2="16.0000000000003"/>
    <line x1="93.9607377018159" y1="16.0000000000003" x2="91.9607377018159" y2="16.0000000000003"/>
    <line x1="91.9607377018159" y1="16.0000000000003" x2="91.9607377018159" y2="17.3000000000003"/>
    <line x1="91.9607377018159" y1="17.3000000000003" x2="89.7607377018159" y2="17.3000000000004"/>
    <line x1="89.7607377018159" y1="17.3000000000004" x2="89.7607377018159" y2="16.0000000000003"/>
    <line x1="89.7607377018159" y1="16.0000000000003" x2="86.7607377018159" y2="16.0000000000003"/>
    <line x1="86.7607377018159" y1="16.0000000000003" x2="86.7607377018159" y2="13.0000000000003"/>
    <line x1="86.7607377018159" y1="13.0000000000003" x2="89.7607377018159" y2="13.0000000000003"/>
    <line x1="89.7607377018159" y1="13.0000000000003" x2="89.7607377018159" y2="11.7000000000003"/>
    <line x1="89.7607377018159" y1="11.7000000000003" x2="91.9607377018159" y2="11.7000000000003"/>
    <line x1="91.9607377018159" y1="11.7000000000003" x2="91.9607377018159" y2="13.0000000000003"/>
    <line x1="91.9607377018159" y1="13.0000000000003" x2="93.9607377018159" y2="13.0000000000002"/>
    <line x1="93.9607377018159" y1="13.0000000000002" x2="93.9607377018159" y2="10.0000000000003"/>
    <line x1="93.9607377018159" y1="10.0000000000003" x2="20.4162940046479" y2="10.0"/>
    <line x1="20.4162940046479" y1="10.0" x2="10.0" y2="10.0000000000013"/>
    <line x1="10.0" y1="10.0000000000013" x2="10.0000000000004" y2="13.0000000000011"/>
    <line x1="10.0000000000004" y1="13.0000000000011" x2="12.0000000000004" y2="13.000000000001"/>
    <line x1="12.0000000000004" y1="13.000000000001" x2="12.0000000000002" y2="11.700000000001"/>
    <line x1="12.0000000000002" y1="11.700000000001" x2="14.2000000000002" y2="11.7000000000007"/>
    <line x1="14.2000000000002" y1="11.7000000000007" x2="14.2000000000003" y2="13.0000000000007"/>
    <line x1="14.2000000000003" y1="13.0000000000007" x2="17.2000000000003" y2="13.0000000000003"/>
    <line x1="17.2000000000003" y1="13.0000000000003" x2="17.2000000000007" y2="16.0000000000003"/>
    <line x1="17.2000000000007" y1="16.0000000000003" x2="14.2000000000007" y2="16.0000000000007"/>
    <line x1="14.2000000000007" y1="16.0000000000007" x2="14.2000000000009" y2="17.3000000000008"/>
    <line x1="14.2000000000009" y1="17.3000000000008" x2="12.0000000000008" y2="17.3000000000009"/>
    <line x1="12.0000000000008" y1="17.3000000000009" x2="12.0000000000007" y2="16.0000000000009"/>
    <line x1="12.0000000000007" y1="16.0000000000009" x2="10.0000000000007" y2="16.0000000000011"/>
    <line x1="10.0000000000007" y1="16.0000000000011" x2="10.0000000000041" y2="46.5116951990926"/>
    <line x1="10.0000000000041" y1="46.5116951990926" x2="12.0000000000041" y2="46.5116951990925"/>
    <line x1="12.0000000000041" y1="46.5116951990925" x2="12.000000000004" y2="45.2116951990924"/>
    <line x1="12.000000000004" y1="45.2116951990924" x2="14.200000000004" y2="45.2116951990921"/>
    <line x1="14.200000000004" y1="45.2116951990921" x2="14.2000000000041" y2="46.5116951990922"/>
    <line x1="14.2000000000041" y1="46.5116951990922" x2="17.2000000000041" y2="46.5116951990918"/>
    <line x1="17.2000000000041" y1="46.5116951990918" x2="17.2000000000045" y2="49.5116951990918"/>
    <line x1="17.2000000000045" y1="49.5116951990918" x2="14.2000000000045" y2="49.5116951990922"/>
    <line x1="14.2000000000045" y1="49.5116951990922" x2="14.2000000000046" y2="50.8116951990921"/>
    <line x1="14.2000000000046" y1="50.8116951990921" x2="12.0000000000046" y2="50.8116951990924"/>
    <line x1="12.0000000000046" y1="50.8116951990924" x2="12.0000000000045" y2="49.5116951990924"/>
    <line x1="12.0000000000045" y1="49.5116951990924" x2="10.0000000000045" y2="49.5116951990926"/>
    <line x1="10.0000000000045" y1="49.5116951990926" x2="10.0000000000051" y2="54.5116951990907"/>
    <line x1="10.0000000000051" y1="54.5116951990907" x2="26.7444436971731" y2="54.5116951990907"/>
    <line x1="16.4944436971714" y1="40.2370188022235" x2="16.8562151295176" y2="40.0871681684664"/>
    <line x1="16.8562151295176" y1="40.0871681684664" x2="17.2444436971714" y2="40.0360569079"/>
    <line x1="17.2444436971714" y1="40.0360569079" x2="17.6326722648252" y2="40.0871681684664"/>
    <line x1="17.6326722648252" y1="40.0871681684664" x2="17.9944436971714" y2="40.2370188022232"/>
    <line x1="17.9944436971714" y1="40.2370188022232" x2="18.3051038689513" y2="40.47539673612"/>
    <line x1="18.3051038689513" y1="40.47539673612" x2="18.5434818028482" y2="40.7860569078999"/>
    <line x1="18.5434818028482" y1="40.7860569078999" x2="18.6933324366051" y2="41.1478283402461"/>
    <line x1="18.6933324366051" y1="41.1478283402461" x2="18.7444436971716" y2="41.5360569078998"/>
    <line x1="18.7444436971716" y1="41.5360569078998" x2="18.6933324366052" y2="41.9242854755537"/>
    <line x1="18.6933324366052" y1="41.9242854755537" x2="18.5434818028484" y2="42.2860569078999"/>
    <line x1="18.5434818028484" y1="42.2860569078999" x2="18.3051038689515" y2="42.5967170796798"/>
    <line x1="18.3051038689515" y1="42.5967170796798" x2="17.9944436971717" y2="42.8350950135766"/>
    <line x1="17.9944436971717" y1="42.8350950135766" x2="17.6326722648256" y2="42.9849456473337"/>
    <line x1="17.6326722648256" y1="42.9849456473337" x2="17.2444436971718" y2="43.0360569079"/>
    <line x1="17.2444436971718" y1="43.0360569079" x2="16.856215129518" y2="42.9849456473337"/>
    <line x1="16.856215129518" y1="42.9849456473337" x2="16.4944436971718" y2="42.8350950135768"/>
    <line x1="16.4944436971718" y1="42.8350950135768" x2="16.1837835253919" y2="42.59671707968"/>
    <line x1="16.1837835253919" y1="42.59671707968" x2="15.945405591495" y2="42.2860569079002"/>
    <line x1="15.945405591495" y1="42.2860569079002" x2="15.795554957738" y2="41.924285475554"/>
    <line x1="15.795554957738" y1="41.924285475554" x2="15.7444436971716" y2="41.5360569079003"/>
    <line x1="15.7444436971716" y1="41.5360569079003" x2="15.7955549577379" y2="41.1478283402464"/>
    <line x1="15.7955549577379" y1="41.1478283402464" x2="15.9454055914949" y2="40.7860569079003"/>
    <line x1="15.9454055914949" y1="40.7860569079003" x2="16.1837835253916" y2="40.4753967361204"/>
    <line x1="16.1837835253916" y1="40.4753967361204" x2="16.4944436971714" y2="40.2370188022235"/>
    <line x1="17.994443697169" y1="18.2370188022234" x2="18.3051038689488" y2="18.4753967361202"/>
    <line x1="18.3051038689488" y1="18.4753967361202" x2="18.5434818028457" y2="18.7860569078999"/>
    <line x1="18.5434818028457" y1="18.7860569078999" x2="18.6933324366027" y2="19.1478283402461"/>
    <line x1="18.6933324366027" y1="19.1478283402461" x2="18.7444436971691" y2="19.5360569078999"/>
    <line x1="18.7444436971691" y1="19.5360569078999" x2="18.6933324366028" y2="19.9242854755536"/>
    <line x1="18.6933324366028" y1="19.9242854755536" x2="18.5434818028459" y2="20.2860569078999"/>
    <line x1="18.5434818028459" y1="20.2860569078999" x2="18.3051038689491" y2="20.5967170796797"/>
    <line x1="18.3051038689491" y1="20.5967170796797" x2="17.9944436971693" y2="20.8350950135766"/>
    <line x1="17.9944436971693" y1="20.8350950135766" x2="17.6326722648231" y2="20.9849456473336"/>
    <line x1="17.6326722648231" y1="20.9849456473336" x2="17.2444436971693" y2="21.0360569079"/>
    <line x1="17.2444436971693" y1="21.0360569079" x2="16.8562151295155" y2="20.9849456473337"/>
    <line x1="16.8562151295155" y1="20.9849456473337" x2="16.4944436971693" y2="20.8350950135767"/>
    <line x1="16.4944436971693" y1="20.8350950135767" x2="16.1837835253894" y2="20.5967170796799"/>
    <line x1="16.1837835253894" y1="20.5967170796799" x2="15.9454055914925" y2="20.2860569079002"/>
    <line x1="15.9454055914925" y1="20.2860569079002" x2="15.7955549577356" y2="19.924285475554"/>
    <line x1="15.7955549577356" y1="19.924285475554" x2="15.7444436971691" y2="19.5360569079002"/>
    <line x1="15.7444436971691" y1="19.5360569079002" x2="15.7955549577355" y2="19.1478283402465"/>
    <line x1="15.7955549577355" y1="19.1478283402465" x2="15.9454055914924" y2="18.7860569079002"/>
    <line x1="15.9454055914924" y1="18.7860569079002" x2="16.1837835253892" y2="18.4753967361204"/>
    <line x1="16.1837835253892" y1="18.4753967361204" x2="16.494443697169" y2="18.2370188022235"/>
    <line x1="16.494443697169" y1="18.2370188022235" x2="16.8562151295152" y2="18.0871681684665"/>
    <line x1="16.8562151295152" y1="18.0871681684665" x2="17.2444436971689" y2="18.0360569079"/>
    <line x1="17.2444436971689" y1="18.0360569079" x2="17.6326722648227" y2="18.0871681684664"/>
    <line x1="17.6326722648227" y1="18.0871681684664" x2="17.994443697169" y2="18.2370188022234"/>
    <line x1="21.3013321675844" y1="30.1230968973302" x2="20.8817503930651" y2="31.1360569078996"/>
    <line x1="20.8817503930651" y1="31.1360569078996" x2="20.2142921781541" y2="32.0059053888832"/>
    <line x1="20.2142921781541" y1="32.0059053888832" x2="19.3444436971706" y2="32.6733636037944"/>
    <line x1="19.3444436971706" y1="32.6733636037944" x2="18.3314836866013" y2="33.092945378314"/>
    <line x1="18.3314836866013" y1="33.092945378314" x2="17.2444436971706" y2="33.2360569079001"/>
    <line x1="17.2444436971706" y1="33.2360569079001" x2="16.1574037077401" y2="33.0929453783143"/>
    <line x1="16.1574037077401" y1="33.0929453783143" x2="15.1444436971706" y2="32.6733636037949"/>
    <line x1="15.1444436971706" y1="32.6733636037949" x2="14.274595216187" y2="32.0059053888839"/>
    <line x1="14.274595216187" y1="32.0059053888839" x2="13.6071370012758" y2="31.1360569079005"/>
    <line x1="13.6071370012758" y1="31.1360569079005" x2="13.1875552267563" y2="30.1230968973312"/>
    <line x1="13.1875552267563" y1="30.1230968973312" x2="13.0444436971702" y2="29.0360569079005"/>
    <line x1="13.0444436971702" y1="29.0360569079005" x2="13.187555226756" y2="27.9490169184699"/>
    <line x1="13.187555226756" y1="27.9490169184699" x2="13.6071370012753" y2="26.9360569079005"/>
    <line x1="13.6071370012753" y1="26.9360569079005" x2="14.2745952161864" y2="26.0662084269169"/>
    <line x1="14.2745952161864" y1="26.0662084269169" x2="15.1444436971697" y2="25.3987502120057"/>
    <line x1="15.1444436971697" y1="25.3987502120057" x2="16.1574037077392" y2="24.9791684374861"/>
    <line x1="16.1574037077392" y1="24.9791684374861" x2="17.2444436971697" y2="24.8360569079001"/>
    <line x1="17.2444436971697" y1="24.8360569079001" x2="18.3314836866004" y2="24.9791684374858"/>
    <line x1="18.3314836866004" y1="24.9791684374858" x2="19.3444436971698" y2="25.3987502120052"/>
    <line x1="19.3444436971698" y1="25.3987502120052" x2="20.2142921781534" y2="26.0662084269162"/>
    <line x1="20.2142921781534" y1="26.0662084269162" x2="20.8817503930646" y2="26.9360569078997"/>
    <line x1="20.8817503930646" y1="26.9360569078997" x2="21.3013321675842" y2="27.9490169184691"/>
    <line x1="21.3013321675842" y1="27.9490169184691" x2="21.4444436971702" y2="29.0360569078996"/>
    <line x1="21.4444436971702" y1="29.0360569078996" x2="21.3013321675844" y2="30.1230968973302"/>
    <line x1="83.0789873087532" y1="31.1360569079" x2="82.6594055342338" y2="30.1230968973306"/>
    <line x1="82.6594055342338" y1="30.1230968973306" x2="82.5162940046479" y2="29.0360569079"/>
    <line x1="82.5162940046479" y1="29.0360569079" x2="82.6594055342338" y2="27.9490169184695"/>
    <line x1="82.6594055342338" y1="27.9490169184695" x2="83.0789873087532" y2="26.9360569079"/>
    <line x1="83.0789873087532" y1="26.9360569079" x2="83.7464455236644" y2="26.0662084269164"/>
    <line x1="83.7464455236644" y1="26.0662084269164" x2="84.6162940046479" y2="25.3987502120053"/>
    <line x1="84.6162940046479" y1="25.3987502120053" x2="85.6292540152173" y2="24.9791684374859"/>
    <line x1="85.6292540152173" y1="24.9791684374859" x2="86.7162940046478" y2="24.8360569079001"/>
    <line x1="86.7162940046478" y1="24.8360569079001" x2="87.8033339940785" y2="24.9791684374859"/>
    <line x1="87.8033339940785" y1="24.9791684374859" x2="88.8162940046479" y2="25.3987502120053"/>
    <line x1="88.8162940046479" y1="25.3987502120053" x2="89.6861424856314" y2="26.0662084269164"/>
    <line x1="89.6861424856314" y1="26.0662084269164" x2="90.3536007005425" y2="26.9360569079"/>
    <line x1="90.3536007005425" y1="26.9360569079" x2="90.7731824750619" y2="27.9490169184695"/>
    <line x1="90.7731824750619" y1="27.9490169184695" x2="90.9162940046479" y2="29.0360569079"/>
    <line x1="90.9162940046479" y1="29.0360569079" x2="90.7731824750619" y2="30.1230968973306"/>
    <line x1="90.7731824750619" y1="30.1230968973306" x2="90.3536007005425" y2="31.1360569079"/>
    <line x1="90.3536007005425" y1="31.1360569079" x2="89.6861424856314" y2="32.0059053888835"/>
    <line x1="89.6861424856314" y1="32.0059053888835" x2="88.8162940046479" y2="32.6733636037947"/>
    <line x1="88.8162940046479" y1="32.6733636037947" x2="87.8033339940785" y2="33.0929453783141"/>
    <line x1="87.8033339940785" y1="33.0929453783141" x2="86.7162940046478" y2="33.2360569079001"/>
    <line x1="86.7162940046478" y1="33.2360569079001" x2="85.6292540152173" y2="33.0929453783141"/>
    <line x1="85.6292540152173" y1="33.0929453783141" x2="84.6162940046479" y2="32.6733636037947"/>
    <line x1="84.6162940046479" y1="32.6733636037947" x2="83.7464455236644" y2="32.0059053888835"/>
    <line x1="83.7464455236644" y1="32.0059053888835" x2="83.0789873087532" y2="31.1360569079"/>
    <line x1="85.655633832868" y1="18.4753967361202" x2="85.9662940046478" y2="18.2370188022234"/>
    <line x1="85.9662940046478" y1="18.2370188022234" x2="86.3280654369941" y2="18.0871681684664"/>
    <line x1="86.3280654369941" y1="18.0871681684664" x2="86.7162940046478" y2="18.0360569078999"/>
    <line x1="86.7162940046478" y1="18.0360569078999" x2="87.1045225723017" y2="18.0871681684664"/>
    <line x1="87.1045225723017" y1="18.0871681684664" x2="87.4662940046478" y2="18.2370188022235"/>
    <line x1="87.4662940046478" y1="18.2370188022235" x2="87.7769541764277" y2="18.4753967361202"/>
    <line x1="87.7769541764277" y1="18.4753967361202" x2="88.0153321103245" y2="18.7860569079"/>
    <line x1="88.0153321103245" y1="18.7860569079" x2="88.1651827440815" y2="19.1478283402463"/>
    <line x1="88.1651827440815" y1="19.1478283402463" x2="88.2162940046479" y2="19.5360569079"/>
    <line x1="88.2162940046479" y1="19.5360569079" x2="88.1651827440815" y2="19.9242854755538"/>
    <line x1="88.1651827440815" y1="19.9242854755538" x2="88.0153321103245" y2="20.2860569079"/>
    <line x1="88.0153321103245" y1="20.2860569079" x2="87.7769541764277" y2="20.5967170796798"/>
    <line x1="87.7769541764277" y1="20.5967170796798" x2="87.4662940046478" y2="20.8350950135766"/>
    <line x1="87.4662940046478" y1="20.8350950135766" x2="87.1045225723017" y2="20.9849456473336"/>
    <line x1="87.1045225723017" y1="20.9849456473336" x2="86.7162940046478" y2="21.0360569079"/>
    <line x1="86.7162940046478" y1="21.0360569079" x2="86.328065436994" y2="20.9849456473336"/>
    <line x1="86.328065436994" y1="20.9849456473336" x2="85.9662940046478" y2="20.8350950135766"/>
    <line x1="85.9662940046478" y1="20.8350950135766" x2="85.655633832868" y2="20.5967170796798"/>
    <line x1="85.655633832868" y1="20.5967170796798" x2="85.4172558989712" y2="20.2860569079"/>
    <line x1="85.4172558989712" y1="20.2860569079" x2="85.2674052652142" y2="19.9242854755538"/>
    <line x1="85.2674052652142" y1="19.9242854755538" x2="85.2162940046478" y2="19.5360569079"/>
    <line x1="85.2162940046478" y1="19.5360569079" x2="85.2674052652142" y2="19.1478283402462"/>
    <line x1="85.2674052652142" y1="19.1478283402462" x2="85.4172558989712" y2="18.7860569079"/>
    <line x1="85.4172558989712" y1="18.7860569079" x2="85.655633832868" y2="18.4753967361202"/>
    <line x1="87.1045225723017" y1="40.0871681684664" x2="87.4662940046478" y2="40.2370188022234"/>
    <line x1="87.4662940046478" y1="40.2370188022234" x2="87.7769541764277" y2="40.4753967361202"/>
    <line x1="87.7769541764277" y1="40.4753967361202" x2="88.0153321103245" y2="40.7860569079"/>
    <line x1="88.0153321103245" y1="40.7860569079" x2="88.1651827440815" y2="41.1478283402463"/>
    <line x1="88.1651827440815" y1="41.1478283402463" x2="88.2162940046479" y2="41.5360569079"/>
    <line x1="88.2162940046479" y1="41.5360569079" x2="88.1651827440815" y2="41.9242854755538"/>
    <line x1="88.1651827440815" y1="41.9242854755538" x2="88.0153321103245" y2="42.2860569079"/>
    <line x1="88.0153321103245" y1="42.2860569079" x2="87.7769541764277" y2="42.5967170796798"/>
    <line x1="87.7769541764277" y1="42.5967170796798" x2="87.4662940046478" y2="42.8350950135766"/>
    <line x1="87.4662940046478" y1="42.8350950135766" x2="87.1045225723017" y2="42.9849456473337"/>
    <line x1="87.1045225723017" y1="42.9849456473337" x2="86.7162940046478" y2="43.0360569079"/>
    <line x1="86.7162940046478" y1="43.0360569079" x2="86.3280654369941" y2="42.9849456473337"/>
    <line x1="86.3280654369941" y1="42.9849456473337" x2="85.9662940046478" y2="42.8350950135766"/>
    <line x1="85.9662940046478" y1="42.8350950135766" x2="85.655633832868" y2="42.5967170796798"/>
    <line x1="85.655633832868" y1="42.5967170796798" x2="85.4172558989712" y2="42.2860569078999"/>
    <line x1="85.4172558989712" y1="42.2860569078999" x2="85.2674052652142" y2="41.9242854755538"/>
    <line x1="85.2674052652142" y1="41.9242854755538" x2="85.2162940046478" y2="41.5360569079"/>
    <line x1="85.2162940046478" y1="41.5360569079" x2="85.2674052652142" y2="41.1478283402463"/>
    <line x1="85.2674052652142" y1="41.1478283402463" x2="85.4172558989712" y2="40.7860569079"/>
    <line x1="85.4172558989712" y1="40.7860569079" x2="85.655633832868" y2="40.4753967361203"/>
    <line x1="85.655633832868" y1="40.4753967361203" x2="85.9662940046478" y2="40.2370188022232"/>
    <line x1="85.9662940046478" y1="40.2370188022232" x2="86.328065436994" y2="40.0871681684664"/>
    <line x1="86.328065436994" y1="40.0871681684664" x2="86.7162940046478" y2="40.0360569079"/>
    <line x1="86.7162940046478" y1="40.0360569079" x2="87.1045225723017" y2="40.0871681684664"/>
  </g>
</svg>
