<?xml version="1.0" standalone="no"?>
<!DOCTYPE svg PUBLIC "-//W3C//DTD SVG 1.1//EN" "http://www.w3.org/Graphics/SVG/1.1/DTD/svg11.dtd">
<svg width="49.9999999999999mm" height="64.5116951990915mm"
 viewBox="0 0 49.9999999999999 64.5116951990915"
 xmlns="http://www.w3.org/2000/svg" version="1.1"
 xmlns:xlink="http://www.w3.org/1999/xlink">
<desc>Output from Flights of Ideas SVG Sketchup Plugin</desc>

  <g id="face0" fill="none" stroke="rgb(0,0,255)" stroke-width="1" stroke-miterlimit="4" stroke-dasharray="none" stroke-linejoin="round" stroke-linecap="round">
    <line x1="39.9999999999999" y1="54.5116951990915" x2="39.9999999999999" y2="10.0"/>
    <line x1="39.9999999999999" y1="10.0" x2="10.0" y2="10.0"/>
    <line x1="10.0" y1="10.0" x2="10.0" y2="54.5116951990915"/>
    <line x1="10.0" y1="54.5116951990915" x2="39.9999999999999" y2="54.5116951990915"/>
    <line x1="35.5" y1="46.5116951990915" x2="35.8882285676537" y2="46.5628064596579"/>
    <line x1="35.8882285676537" y1="46.5628064596579" x2="36.25" y2="46.7126570934149"/>
    <line x1="36.25" y1="46.7126570934149" x2="36.5606601717798" y2="46.9510350273116"/>
    <line x1="36.5606601717798" y1="46.9510350273116" x2="36.7990381056766" y2="47.2616951990915"/>
    <line x1="36.7990381056766" y1="47.2616951990915" x2="36.9488887394336" y2="47.6234666314377"/>
    <line x1="36.9488887394336" y1="47.6234666314377" x2="37.0" y2="48.0116951990915"/>
    <line x1="37.0" y1="48.0116951990915" x2="36.9488887394336" y2="48.3999237667453"/>
    <line x1="36.9488887394336" y1="48.3999237667453" x2="36.7990381056766" y2="48.7616951990914"/>
    <line x1="36.7990381056766" y1="48.7616951990914" x2="36.5606601717798" y2="49.0723553708713"/>
    <line x1="36.5606601717798" y1="49.0723553708713" x2="36.25" y2="49.3107333047682"/>
    <line x1="36.25" y1="49.3107333047682" x2="35.8882285676537" y2="49.4605839385251"/>
    <line x1="35.8882285676537" y1="49.4605839385251" x2="35.5" y2="49.5116951990914"/>
    <line x1="35.5" y1="49.5116951990914" x2="35.1117714323462" y2="49.4605839385251"/>
    <line x1="35.1117714323462" y1="49.4605839385251" x2="34.75" y2="49.3107333047682"/>
    <line x1="34.75" y1="49.3107333047682" x2="34.4393398282202" y2="49.0723553708713"/>
    <line x1="34.4393398282202" y1="49.0723553708713" x2="34.2009618943233" y2="48.7616951990915"/>
    <line x1="34.2009618943233" y1="48.7616951990915" x2="34.0511112605664" y2="48.3999237667453"/>
    <line x1="34.0511112605664" y1="48.3999237667453" x2="34.0" y2="48.0116951990915"/>
    <line x1="34.0" y1="48.0116951990915" x2="34.0511112605664" y2="47.6234666314377"/>
    <line x1="34.0511112605664" y1="47.6234666314377" x2="34.2009618943233" y2="47.2616951990915"/>
    <line x1="34.2009618943233" y1="47.2616951990915" x2="34.4393398282202" y2="46.9510350273116"/>
    <line x1="34.4393398282202" y1="46.9510350273116" x2="34.75" y2="46.7126570934149"/>
    <line x1="34.75" y1="46.7126570934149" x2="35.1117714323462" y2="46.5628064596579"/>
    <line x1="35.1117714323462" y1="46.5628064596579" x2="35.5" y2="46.5116951990915"/>
    <line x1="35.5" y1="13.0" x2="35.8882285676537" y2="13.0511112605665"/>
    <line x1="35.8882285676537" y1="13.0511112605665" x2="36.25" y2="13.2009618943233"/>
    <line x1="36.25" y1="13.2009618943233" x2="36.5606601717798" y2="13.4393398282202"/>
    <line x1="36.5606601717798" y1="13.4393398282202" x2="36.7990381056766" y2="13.75"/>
    <line x1="36.7990381056766" y1="13.75" x2="36.9488887394336" y2="14.1117714323462"/>
    <line x1="36.9488887394336" y1="14.1117714323462" x2="37.0" y2="14.5"/>
    <line x1="37.0" y1="14.5" x2="36.9488887394336" y2="14.8882285676538"/>
    <line x1="36.9488887394336" y1="14.8882285676538" x2="36.7990381056766" y2="15.2500000000001"/>
    <line x1="36.7990381056766" y1="15.2500000000001" x2="36.5606601717798" y2="15.5606601717798"/>
    <line x1="36.5606601717798" y1="15.5606601717798" x2="36.25" y2="15.7990381056767"/>
    <line x1="36.25" y1="15.7990381056767" x2="35.8882285676537" y2="15.9488887394336"/>
    <line x1="35.8882285676537" y1="15.9488887394336" x2="35.5" y2="16.0000000000001"/>
    <line x1="35.5" y1="16.0000000000001" x2="35.1117714323462" y2="15.9488887394336"/>
    <line x1="35.1117714323462" y1="15.9488887394336" x2="34.75" y2="15.7990381056767"/>
    <line x1="34.75" y1="15.7990381056767" x2="34.4393398282202" y2="15.5606601717798"/>
    <line x1="34.4393398282202" y1="15.5606601717798" x2="34.2009618943233" y2="15.2500000000001"/>
    <line x1="34.2009618943233" y1="15.2500000000001" x2="34.0511112605664" y2="14.8882285676538"/>
    <line x1="34.0511112605664" y1="14.8882285676538" x2="34.0" y2="14.5"/>
    <line x1="34.0" y1="14.5" x2="34.0511112605664" y2="14.1117714323462"/>
    <line x1="34.0511112605664" y1="14.1117714323462" x2="34.2009618943233" y2="13.75"/>
    <line x1="34.2009618943233" y1="13.75" x2="34.4393398282202" y2="13.4393398282202"/>
    <line x1="34.4393398282202" y1="13.4393398282202" x2="34.75" y2="13.2009618943233"/>
    <line x1="34.75" y1="13.2009618943233" x2="35.1117714323462" y2="13.0511112605665"/>
    <line x1="35.1117714323462" y1="13.0511112605665" x2="35.5" y2="13.0"/>
    <line x1="17.1117714323455" y1="46.5628064596577" x2="17.4999999999993" y2="46.5116951990914"/>
    <line x1="17.4999999999993" y1="46.5116951990914" x2="17.8882285676531" y2="46.5628064596577"/>
    <line x1="17.8882285676531" y1="46.5628064596577" x2="18.2499999999993" y2="46.7126570934147"/>
    <line x1="18.2499999999993" y1="46.7126570934147" x2="18.5606601717791" y2="46.9510350273115"/>
    <line x1="18.5606601717791" y1="46.9510350273115" x2="18.799038105676" y2="47.2616951990913"/>
    <line x1="18.799038105676" y1="47.2616951990913" x2="18.9488887394329" y2="47.6234666314376"/>
    <line x1="18.9488887394329" y1="47.6234666314376" x2="18.9999999999993" y2="48.0116951990913"/>
    <line x1="18.9999999999993" y1="48.0116951990913" x2="18.9488887394329" y2="48.3999237667451"/>
    <line x1="18.9488887394329" y1="48.3999237667451" x2="18.799038105676" y2="48.7616951990914"/>
    <line x1="18.799038105676" y1="48.7616951990914" x2="18.5606601717791" y2="49.0723553708712"/>
    <line x1="18.5606601717791" y1="49.0723553708712" x2="18.2499999999993" y2="49.310733304768"/>
    <line x1="18.2499999999993" y1="49.310733304768" x2="17.8882285676531" y2="49.460583938525"/>
    <line x1="17.8882285676531" y1="49.460583938525" x2="17.4999999999993" y2="49.5116951990914"/>
    <line x1="17.4999999999993" y1="49.5116951990914" x2="17.1117714323455" y2="49.460583938525"/>
    <line x1="17.1117714323455" y1="49.460583938525" x2="16.7499999999993" y2="49.310733304768"/>
    <line x1="16.7499999999993" y1="49.310733304768" x2="16.4393398282195" y2="49.0723553708712"/>
    <line x1="16.4393398282195" y1="49.0723553708712" x2="16.2009618943226" y2="48.7616951990914"/>
    <line x1="16.2009618943226" y1="48.7616951990914" x2="16.0511112605657" y2="48.3999237667451"/>
    <line x1="16.0511112605657" y1="48.3999237667451" x2="15.9999999999992" y2="48.0116951990913"/>
    <line x1="15.9999999999992" y1="48.0116951990913" x2="16.0511112605657" y2="47.6234666314376"/>
    <line x1="16.0511112605657" y1="47.6234666314376" x2="16.2009618943226" y2="47.2616951990913"/>
    <line x1="16.2009618943226" y1="47.2616951990913" x2="16.4393398282195" y2="46.9510350273115"/>
    <line x1="16.4393398282195" y1="46.9510350273115" x2="16.7499999999993" y2="46.7126570934147"/>
    <line x1="16.7499999999993" y1="46.7126570934147" x2="17.1117714323455" y2="46.5628064596577"/>
    <line x1="17.1117714323426" y1="13.0511112605662" x2="17.4999999999964" y2="12.9999999999998"/>
    <line x1="17.4999999999964" y1="12.9999999999998" x2="17.8882285676502" y2="13.0511112605662"/>
    <line x1="17.8882285676502" y1="13.0511112605662" x2="18.2499999999964" y2="13.2009618943232"/>
    <line x1="18.2499999999964" y1="13.2009618943232" x2="18.5606601717762" y2="13.4393398282201"/>
    <line x1="18.5606601717762" y1="13.4393398282201" x2="18.7990381056731" y2="13.7499999999999"/>
    <line x1="18.7990381056731" y1="13.7499999999999" x2="18.94888873943" y2="14.111771432346"/>
    <line x1="18.94888873943" y1="14.111771432346" x2="18.9999999999964" y2="14.4999999999998"/>
    <line x1="18.9999999999964" y1="14.4999999999998" x2="18.94888873943" y2="14.8882285676536"/>
    <line x1="18.94888873943" y1="14.8882285676536" x2="18.7990381056731" y2="15.2499999999998"/>
    <line x1="18.7990381056731" y1="15.2499999999998" x2="18.5606601717762" y2="15.5606601717797"/>
    <line x1="18.5606601717762" y1="15.5606601717797" x2="18.2499999999964" y2="15.7990381056765"/>
    <line x1="18.2499999999964" y1="15.7990381056765" x2="17.8882285676502" y2="15.9488887394335"/>
    <line x1="17.8882285676502" y1="15.9488887394335" x2="17.4999999999964" y2="15.9999999999999"/>
    <line x1="17.4999999999964" y1="15.9999999999999" x2="17.1117714323426" y2="15.9488887394335"/>
    <line x1="17.1117714323426" y1="15.9488887394335" x2="16.7499999999964" y2="15.7990381056765"/>
    <line x1="16.7499999999964" y1="15.7990381056765" x2="16.4393398282166" y2="15.5606601717797"/>
    <line x1="16.4393398282166" y1="15.5606601717797" x2="16.2009618943197" y2="15.2499999999998"/>
    <line x1="16.2009618943197" y1="15.2499999999998" x2="16.0511112605628" y2="14.8882285676536"/>
    <line x1="16.0511112605628" y1="14.8882285676536" x2="15.9999999999964" y2="14.4999999999998"/>
    <line x1="15.9999999999964" y1="14.4999999999998" x2="16.0511112605628" y2="14.111771432346"/>
    <line x1="16.0511112605628" y1="14.111771432346" x2="16.2009618943197" y2="13.7499999999998"/>
    <line x1="16.2009618943197" y1="13.7499999999998" x2="16.4393398282166" y2="13.4393398282201"/>
    <line x1="16.4393398282166" y1="13.4393398282201" x2="16.7499999999964" y2="13.2009618943232"/>
    <line x1="16.7499999999964" y1="13.2009618943232" x2="17.1117714323426" y2="13.0511112605662"/>
    <line x1="12.999999999999" y1="23.9999999999999" x2="12.999999999999" y2="20.9999999999999"/>
    <line x1="12.999999999999" y1="20.9999999999999" x2="15.9999999999973" y2="20.9999999999999"/>
    <line x1="15.9999999999973" y1="20.9999999999999" x2="15.9999999999973" y2="23.9999999999999"/>
    <line x1="15.9999999999973" y1="23.9999999999999" x2="12.999999999999" y2="23.9999999999999"/>
    <line x1="12.9999999999985" y1="36.5116951990913" x2="15.9999999999988" y2="36.5116951990914"/>
    <line x1="15.9999999999988" y1="36.5116951990914" x2="15.9999999999988" y2="41.5116951990909"/>
    <line x1="15.9999999999988" y1="41.5116951990909" x2="12.9999999999985" y2="41.5116951990909"/>
    <line x1="12.9999999999985" y1="41.5116951990909" x2="12.9999999999985" y2="36.5116951990913"/>
  </g>
</svg>
