<?xml version="1.0" standalone="no"?>
<!DOCTYPE svg PUBLIC "-//W3C//DTD SVG 1.1//EN" "http://www.w3.org/Graphics/SVG/1.1/DTD/svg11.dtd">
<svg width="70.4718503074799mm" height="34.0mm"
 viewBox="0 0 70.4718503074799 34.0"
 xmlns="http://www.w3.org/2000/svg" version="1.1"
 xmlns:xlink="http://www.w3.org/1999/xlink">
<desc>Output from Flights of Ideas SVG Sketchup Plugin</desc>

  <g id="face0" fill="none" stroke="rgb(0,0,255)" stroke-width="1" stroke-miterlimit="4" stroke-dasharray="none" stroke-linejoin="round" stroke-linecap="round">
    <line x1="10.0" y1="24.0" x2="31.2359251537401" y2="24.0"/>
    <line x1="31.2359251537401" y1="24.0" x2="31.23592515374" y2="21.2339739016724"/>
    <line x1="31.23592515374" y1="21.2339739016724" x2="31.2359251537401" y2="18.3120101852758"/>
    <line x1="31.2359251537401" y1="18.3120101852758" x2="31.3746124338714" y2="18.0717967697249"/>
    <line x1="31.3746124338714" y1="18.0717967697249" x2="35.0972378736083" y2="15.9225379700006"/>
    <line x1="35.0972378736083" y1="15.9225379700006" x2="35.3746124338712" y2="15.9225379700006"/>
    <line x1="35.3746124338712" y1="15.9225379700006" x2="39.0972378736079" y2="18.0717967697246"/>
    <line x1="39.0972378736079" y1="18.0717967697246" x2="39.2359251537396" y2="18.3120101852762"/>
    <line x1="39.2359251537396" y1="18.3120101852762" x2="39.2359251537396" y2="22.1906753472235"/>
    <line x1="39.2359251537396" y1="22.1906753472235" x2="39.2359251537396" y2="24.0"/>
    <line x1="39.2359251537396" y1="24.0" x2="60.4718503074799" y2="24.0"/>
    <line x1="60.4718503074799" y1="24.0" x2="60.4718503074799" y2="10.0"/>
    <line x1="60.4718503074799" y1="10.0" x2="10.0" y2="10.0"/>
    <line x1="10.0" y1="10.0" x2="10.0" y2="24.0"/>
    <line x1="26.0606601717798" y1="21.0606601717798" x2="25.75" y2="21.2990381056767"/>
    <line x1="25.75" y1="21.2990381056767" x2="25.3882285676538" y2="21.4488887394336"/>
    <line x1="25.3882285676538" y1="21.4488887394336" x2="25.0" y2="21.5"/>
    <line x1="25.0" y1="21.5" x2="24.6117714323462" y2="21.4488887394336"/>
    <line x1="24.6117714323462" y1="21.4488887394336" x2="24.25" y2="21.2990381056767"/>
    <line x1="24.25" y1="21.2990381056767" x2="23.9393398282202" y2="21.0606601717798"/>
    <line x1="23.9393398282202" y1="21.0606601717798" x2="23.7009618943233" y2="20.75"/>
    <line x1="23.7009618943233" y1="20.75" x2="23.5511112605664" y2="20.3882285676538"/>
    <line x1="23.5511112605664" y1="20.3882285676538" x2="23.5" y2="20.0"/>
    <line x1="23.5" y1="20.0" x2="23.5511112605664" y2="19.6117714323462"/>
    <line x1="23.5511112605664" y1="19.6117714323462" x2="23.7009618943233" y2="19.25"/>
    <line x1="23.7009618943233" y1="19.25" x2="23.9393398282202" y2="18.9393398282202"/>
    <line x1="23.9393398282202" y1="18.9393398282202" x2="24.25" y2="18.7009618943233"/>
    <line x1="24.25" y1="18.7009618943233" x2="24.6117714323462" y2="18.5511112605664"/>
    <line x1="24.6117714323462" y1="18.5511112605664" x2="25.0" y2="18.5"/>
    <line x1="25.0" y1="18.5" x2="25.3882285676538" y2="18.5511112605664"/>
    <line x1="25.3882285676538" y1="18.5511112605664" x2="25.75" y2="18.7009618943233"/>
    <line x1="25.75" y1="18.7009618943233" x2="26.0606601717798" y2="18.9393398282202"/>
    <line x1="26.0606601717798" y1="18.9393398282202" x2="26.2990381056767" y2="19.25"/>
    <line x1="26.2990381056767" y1="19.25" x2="26.4488887394336" y2="19.6117714323462"/>
    <line x1="26.4488887394336" y1="19.6117714323462" x2="26.5" y2="20.0"/>
    <line x1="26.5" y1="20.0" x2="26.4488887394336" y2="20.3882285676538"/>
    <line x1="26.4488887394336" y1="20.3882285676538" x2="26.2990381056767" y2="20.75"/>
    <line x1="26.2990381056767" y1="20.75" x2="26.0606601717798" y2="21.0606601717798"/>
    <line x1="46.7708884131566" y1="19.25" x2="46.9207390469135" y2="19.6117714323462"/>
    <line x1="46.9207390469135" y1="19.6117714323462" x2="46.9718503074799" y2="20.0000000000001"/>
    <line x1="46.9718503074799" y1="20.0000000000001" x2="46.9207390469135" y2="20.3882285676538"/>
    <line x1="46.9207390469135" y1="20.3882285676538" x2="46.7708884131566" y2="20.75"/>
    <line x1="46.7708884131566" y1="20.75" x2="46.5325104792597" y2="21.0606601717799"/>
    <line x1="46.5325104792597" y1="21.0606601717799" x2="46.2218503074799" y2="21.2990381056767"/>
    <line x1="46.2218503074799" y1="21.2990381056767" x2="45.8600788751337" y2="21.4488887394336"/>
    <line x1="45.8600788751337" y1="21.4488887394336" x2="45.4718503074799" y2="21.4999999999999"/>
    <line x1="45.4718503074799" y1="21.4999999999999" x2="45.0836217398261" y2="21.4488887394336"/>
    <line x1="45.0836217398261" y1="21.4488887394336" x2="44.7218503074799" y2="21.2990381056767"/>
    <line x1="44.7218503074799" y1="21.2990381056767" x2="44.4111901357001" y2="21.0606601717798"/>
    <line x1="44.4111901357001" y1="21.0606601717798" x2="44.1728122018032" y2="20.75"/>
    <line x1="44.1728122018032" y1="20.75" x2="44.0229615680463" y2="20.3882285676538"/>
    <line x1="44.0229615680463" y1="20.3882285676538" x2="43.9718503074799" y2="20.0"/>
    <line x1="43.9718503074799" y1="20.0" x2="44.0229615680463" y2="19.6117714323462"/>
    <line x1="44.0229615680463" y1="19.6117714323462" x2="44.1728122018032" y2="19.25"/>
    <line x1="44.1728122018032" y1="19.25" x2="44.4111901357001" y2="18.9393398282202"/>
    <line x1="44.4111901357001" y1="18.9393398282202" x2="44.7218503074799" y2="18.7009618943234"/>
    <line x1="44.7218503074799" y1="18.7009618943234" x2="45.0836217398261" y2="18.5511112605664"/>
    <line x1="45.0836217398261" y1="18.5511112605664" x2="45.4718503074799" y2="18.5"/>
    <line x1="45.4718503074799" y1="18.5" x2="45.8600788751337" y2="18.5511112605664"/>
    <line x1="45.8600788751337" y1="18.5511112605664" x2="46.2218503074799" y2="18.7009618943233"/>
    <line x1="46.2218503074799" y1="18.7009618943233" x2="46.5325104792597" y2="18.9393398282202"/>
    <line x1="46.5325104792597" y1="18.9393398282202" x2="46.7708884131566" y2="19.25"/>
  </g>
</svg>
