<?xml version="1.0" standalone="no"?>
<!DOCTYPE svg PUBLIC "-//W3C//DTD SVG 1.1//EN" "http://www.w3.org/Graphics/SVG/1.1/DTD/svg11.dtd">
<svg width="54.608147002324mm" height="64.5116951990915mm"
 viewBox="0 0 54.608147002324 64.5116951990915"
 xmlns="http://www.w3.org/2000/svg" version="1.1"
 xmlns:xlink="http://www.w3.org/1999/xlink">
<desc>Output from Flights of Ideas SVG Sketchup Plugin</desc>

  <g id="face0" fill="none" stroke="rgb(0,0,255)" stroke-width="1" stroke-miterlimit="4" stroke-dasharray="none" stroke-linejoin="round" stroke-linecap="round">
    <line x1="44.608147002324" y1="10.0" x2="10.0" y2="10.0"/>
    <line x1="10.0" y1="10.0" x2="10.0" y2="54.5116951990915"/>
    <line x1="10.0" y1="54.5116951990915" x2="44.608147002324" y2="54.5116951990915"/>
    <line x1="44.608147002324" y1="54.5116951990915" x2="44.608147002324" y2="10.0"/>
    <line x1="38.0881476748687" y1="20.7908313635072" x2="37.7387033051519" y2="20.9355759607388"/>
    <line x1="37.7387033051519" y1="20.9355759607388" x2="37.3637033051519" y2="20.9849456473341"/>
    <line x1="37.3637033051519" y1="20.9849456473341" x2="36.988703305152" y2="20.9355759607388"/>
    <line x1="36.988703305152" y1="20.9355759607388" x2="36.6392589354352" y2="20.7908313635073"/>
    <line x1="36.6392589354352" y1="20.7908313635073" x2="36.3391842523136" y2="20.560575960739"/>
    <line x1="36.3391842523136" y1="20.560575960739" x2="36.1089288495452" y2="20.2605012776173"/>
    <line x1="36.1089288495452" y1="20.2605012776173" x2="35.9641842523137" y2="19.9110569079006"/>
    <line x1="35.9641842523137" y1="19.9110569079006" x2="35.9148145657184" y2="19.5360569079006"/>
    <line x1="35.9148145657184" y1="19.5360569079006" x2="35.9641842523137" y2="19.1610569079006"/>
    <line x1="35.9641842523137" y1="19.1610569079006" x2="36.1089288495452" y2="18.8116125381838"/>
    <line x1="36.1089288495452" y1="18.8116125381838" x2="36.3391842523136" y2="18.5115378550623"/>
    <line x1="36.3391842523136" y1="18.5115378550623" x2="36.6392589354352" y2="18.2812824522939"/>
    <line x1="36.6392589354352" y1="18.2812824522939" x2="36.988703305152" y2="18.1365378550623"/>
    <line x1="36.988703305152" y1="18.1365378550623" x2="37.3637033051519" y2="18.087168168467"/>
    <line x1="37.3637033051519" y1="18.087168168467" x2="37.7387033051519" y2="18.1365378550623"/>
    <line x1="37.7387033051519" y1="18.1365378550623" x2="38.0881476748687" y2="18.2812824522939"/>
    <line x1="38.0881476748687" y1="18.2812824522939" x2="38.3882223579902" y2="18.5115378550623"/>
    <line x1="38.3882223579902" y1="18.5115378550623" x2="38.6184777607587" y2="18.8116125381838"/>
    <line x1="38.6184777607587" y1="18.8116125381838" x2="38.7632223579902" y2="19.1610569079006"/>
    <line x1="38.7632223579902" y1="19.1610569079006" x2="38.8125920445855" y2="19.5360569079006"/>
    <line x1="38.8125920445855" y1="19.5360569079006" x2="38.7632223579902" y2="19.9110569079006"/>
    <line x1="38.7632223579902" y1="19.9110569079006" x2="38.6184777607587" y2="20.2605012776173"/>
    <line x1="38.6184777607587" y1="20.2605012776173" x2="38.3882223579902" y2="20.560575960739"/>
    <line x1="38.3882223579902" y1="20.560575960739" x2="38.0881476748687" y2="20.7908313635072"/>
    <line x1="11.8030431333761" y1="30.06066017178" x2="11.5646651994792" y2="29.7500000000002"/>
    <line x1="11.5646651994792" y1="29.7500000000002" x2="11.4148145657223" y2="29.3882285676539"/>
    <line x1="11.4148145657223" y1="29.3882285676539" x2="11.3637033051559" y2="29.0000000000002"/>
    <line x1="11.3637033051559" y1="29.0000000000002" x2="11.4148145657223" y2="28.6117714323464"/>
    <line x1="11.4148145657223" y1="28.6117714323464" x2="11.5646651994793" y2="28.2500000000002"/>
    <line x1="11.5646651994793" y1="28.2500000000002" x2="11.8030431333761" y2="27.9393398282203"/>
    <line x1="11.8030431333761" y1="27.9393398282203" x2="12.1137033051558" y2="27.7009618943235"/>
    <line x1="12.1137033051558" y1="27.7009618943235" x2="12.4754747375021" y2="27.5511112605665"/>
    <line x1="12.4754747375021" y1="27.5511112605665" x2="12.8637033051558" y2="27.5000000000001"/>
    <line x1="12.8637033051558" y1="27.5000000000001" x2="13.2519318728096" y2="27.5511112605665"/>
    <line x1="13.2519318728096" y1="27.5511112605665" x2="13.6137033051559" y2="27.7009618943235"/>
    <line x1="13.6137033051559" y1="27.7009618943235" x2="13.9243634769358" y2="27.9393398282203"/>
    <line x1="13.9243634769358" y1="27.9393398282203" x2="14.1627414108325" y2="28.2500000000002"/>
    <line x1="14.1627414108325" y1="28.2500000000002" x2="14.3125920445895" y2="28.6117714323463"/>
    <line x1="14.3125920445895" y1="28.6117714323463" x2="14.3637033051559" y2="29.0000000000002"/>
    <line x1="14.3637033051559" y1="29.0000000000002" x2="14.3125920445895" y2="29.3882285676539"/>
    <line x1="14.3125920445895" y1="29.3882285676539" x2="14.1627414108325" y2="29.7500000000002"/>
    <line x1="14.1627414108325" y1="29.7500000000002" x2="13.9243634769358" y2="30.0606601717799"/>
    <line x1="13.9243634769358" y1="30.0606601717799" x2="13.6137033051559" y2="30.2990381056768"/>
    <line x1="13.6137033051559" y1="30.2990381056768" x2="13.2519318728096" y2="30.4488887394338"/>
    <line x1="13.2519318728096" y1="30.4488887394338" x2="12.8637033051558" y2="30.5000000000002"/>
    <line x1="12.8637033051558" y1="30.5000000000002" x2="12.4754747375021" y2="30.4488887394338"/>
    <line x1="12.4754747375021" y1="30.4488887394338" x2="12.1137033051558" y2="30.2990381056768"/>
    <line x1="12.1137033051558" y1="30.2990381056768" x2="11.8030431333761" y2="30.06066017178"/>
    <line x1="38.662741410831" y1="40.7860569079005" x2="38.812592044588" y2="41.1478283402466"/>
    <line x1="38.812592044588" y1="41.1478283402466" x2="38.8637033051544" y2="41.5360569079004"/>
    <line x1="38.8637033051544" y1="41.5360569079004" x2="38.8125920445881" y2="41.9242854755542"/>
    <line x1="38.8125920445881" y1="41.9242854755542" x2="38.6627414108312" y2="42.2860569079004"/>
    <line x1="38.6627414108312" y1="42.2860569079004" x2="38.4243634769344" y2="42.5967170796803"/>
    <line x1="38.4243634769344" y1="42.5967170796803" x2="38.1137033051546" y2="42.8350950135771"/>
    <line x1="38.1137033051546" y1="42.8350950135771" x2="37.7519318728084" y2="42.9849456473342"/>
    <line x1="37.7519318728084" y1="42.9849456473342" x2="37.3637033051546" y2="43.0360569079005"/>
    <line x1="37.3637033051546" y1="43.0360569079005" x2="36.9754747375008" y2="42.9849456473342"/>
    <line x1="36.9754747375008" y1="42.9849456473342" x2="36.6137033051546" y2="42.8350950135772"/>
    <line x1="36.6137033051546" y1="42.8350950135772" x2="36.3030431333747" y2="42.5967170796805"/>
    <line x1="36.3030431333747" y1="42.5967170796805" x2="36.0646651994778" y2="42.2860569079007"/>
    <line x1="36.0646651994778" y1="42.2860569079007" x2="35.9148145657209" y2="41.9242854755546"/>
    <line x1="35.9148145657209" y1="41.9242854755546" x2="35.8637033051544" y2="41.5360569079007"/>
    <line x1="35.8637033051544" y1="41.5360569079007" x2="35.9148145657208" y2="41.147828340247"/>
    <line x1="35.9148145657208" y1="41.147828340247" x2="36.0646651994777" y2="40.7860569079007"/>
    <line x1="36.0646651994777" y1="40.7860569079007" x2="36.3030431333745" y2="40.4753967361209"/>
    <line x1="36.3030431333745" y1="40.4753967361209" x2="36.6137033051543" y2="40.237018802224"/>
    <line x1="36.6137033051543" y1="40.237018802224" x2="36.9754747375005" y2="40.087168168467"/>
    <line x1="36.9754747375005" y1="40.087168168467" x2="37.3637033051542" y2="40.0360569079006"/>
    <line x1="37.3637033051542" y1="40.0360569079006" x2="37.7519318728081" y2="40.087168168467"/>
    <line x1="37.7519318728081" y1="40.087168168467" x2="38.1137033051542" y2="40.2370188022238"/>
    <line x1="38.1137033051542" y1="40.2370188022238" x2="38.4243634769341" y2="40.4753967361207"/>
    <line x1="38.4243634769341" y1="40.4753967361207" x2="38.662741410831" y2="40.7860569079005"/>
    <line x1="21.363703305156" y1="47.5116951990915" x2="21.4148145657223" y2="47.1234666314377"/>
    <line x1="21.4148145657223" y1="47.1234666314377" x2="21.5646651994794" y2="46.7616951990915"/>
    <line x1="21.5646651994794" y1="46.7616951990915" x2="21.8030431333761" y2="46.4510350273117"/>
    <line x1="21.8030431333761" y1="46.4510350273117" x2="22.1137033051559" y2="46.2126570934149"/>
    <line x1="22.1137033051559" y1="46.2126570934149" x2="22.4754747375022" y2="46.0628064596579"/>
    <line x1="22.4754747375022" y1="46.0628064596579" x2="22.8637033051559" y2="46.0116951990916"/>
    <line x1="22.8637033051559" y1="46.0116951990916" x2="23.2519318728097" y2="46.0628064596579"/>
    <line x1="23.2519318728097" y1="46.0628064596579" x2="23.6137033051559" y2="46.2126570934149"/>
    <line x1="23.6137033051559" y1="46.2126570934149" x2="23.9243634769358" y2="46.4510350273117"/>
    <line x1="23.9243634769358" y1="46.4510350273117" x2="24.1627414108326" y2="46.7616951990915"/>
    <line x1="24.1627414108326" y1="46.7616951990915" x2="24.3125920445895" y2="47.1234666314378"/>
    <line x1="24.3125920445895" y1="47.1234666314378" x2="24.363703305156" y2="47.5116951990915"/>
    <line x1="24.363703305156" y1="47.5116951990915" x2="24.3125920445895" y2="47.8999237667453"/>
    <line x1="24.3125920445895" y1="47.8999237667453" x2="24.1627414108326" y2="48.2616951990915"/>
    <line x1="24.1627414108326" y1="48.2616951990915" x2="23.9243634769358" y2="48.5723553708714"/>
    <line x1="23.9243634769358" y1="48.5723553708714" x2="23.6137033051559" y2="48.8107333047682"/>
    <line x1="23.6137033051559" y1="48.8107333047682" x2="23.2519318728097" y2="48.9605839385251"/>
    <line x1="23.2519318728097" y1="48.9605839385251" x2="22.8637033051559" y2="49.0116951990915"/>
    <line x1="22.8637033051559" y1="49.0116951990915" x2="22.4754747375022" y2="48.9605839385251"/>
    <line x1="22.4754747375022" y1="48.9605839385251" x2="22.1137033051559" y2="48.8107333047682"/>
    <line x1="22.1137033051559" y1="48.8107333047682" x2="21.8030431333761" y2="48.5723553708714"/>
    <line x1="21.8030431333761" y1="48.5723553708714" x2="21.5646651994794" y2="48.2616951990915"/>
    <line x1="21.5646651994794" y1="48.2616951990915" x2="21.4148145657223" y2="47.8999237667453"/>
    <line x1="21.4148145657223" y1="47.8999237667453" x2="21.363703305156" y2="47.5116951990915"/>
    <line x1="38.4507432945865" y1="33.0929453783127" x2="37.363703305156" y2="33.2360569078987"/>
    <line x1="37.363703305156" y1="33.2360569078987" x2="36.2766633157253" y2="33.0929453783127"/>
    <line x1="36.2766633157253" y1="33.0929453783127" x2="35.263703305156" y2="32.6733636037934"/>
    <line x1="35.263703305156" y1="32.6733636037934" x2="34.3938548241724" y2="32.0059053888822"/>
    <line x1="34.3938548241724" y1="32.0059053888822" x2="33.7263966092613" y2="31.1360569078987"/>
    <line x1="33.7263966092613" y1="31.1360569078987" x2="33.3068148347419" y2="30.1230968973293"/>
    <line x1="33.3068148347419" y1="30.1230968973293" x2="33.1637033051559" y2="29.0360569078987"/>
    <line x1="33.1637033051559" y1="29.0360569078987" x2="33.3068148347419" y2="27.9490169184681"/>
    <line x1="33.3068148347419" y1="27.9490169184681" x2="33.7263966092613" y2="26.9360569078987"/>
    <line x1="33.7263966092613" y1="26.9360569078987" x2="34.3938548241724" y2="26.0662084269152"/>
    <line x1="34.3938548241724" y1="26.0662084269152" x2="35.263703305156" y2="25.398750212004"/>
    <line x1="35.263703305156" y1="25.398750212004" x2="36.2766633157254" y2="24.9791684374846"/>
    <line x1="36.2766633157254" y1="24.9791684374846" x2="37.363703305156" y2="24.8360569078987"/>
    <line x1="37.363703305156" y1="24.8360569078987" x2="38.4507432945865" y2="24.9791684374846"/>
    <line x1="38.4507432945865" y1="24.9791684374846" x2="39.4637033051559" y2="25.3987502120041"/>
    <line x1="39.4637033051559" y1="25.3987502120041" x2="40.3335517861395" y2="26.0662084269152"/>
    <line x1="40.3335517861395" y1="26.0662084269152" x2="41.0010100010506" y2="26.9360569078988"/>
    <line x1="41.0010100010506" y1="26.9360569078988" x2="41.42059177557" y2="27.9490169184681"/>
    <line x1="41.42059177557" y1="27.9490169184681" x2="41.5637033051559" y2="29.0360569078987"/>
    <line x1="41.5637033051559" y1="29.0360569078987" x2="41.42059177557" y2="30.1230968973293"/>
    <line x1="41.42059177557" y1="30.1230968973293" x2="41.0010100010506" y2="31.1360569078987"/>
    <line x1="41.0010100010506" y1="31.1360569078987" x2="40.3335517861395" y2="32.0059053888822"/>
    <line x1="40.3335517861395" y1="32.0059053888822" x2="39.4637033051559" y2="32.6733636037933"/>
    <line x1="39.4637033051559" y1="32.6733636037933" x2="38.4507432945865" y2="33.0929453783127"/>
  </g>
</svg>
