<?xml version="1.0" standalone="no"?>
<!DOCTYPE svg PUBLIC "-//W3C//DTD SVG 1.1//EN" "http://www.w3.org/Graphics/SVG/1.1/DTD/svg11.dtd">
<svg width="109.960737701818mm" height="64.5116951990915mm"
 viewBox="0 0 109.960737701818 64.5116951990915"
 xmlns="http://www.w3.org/2000/svg" version="1.1"
 xmlns:xlink="http://www.w3.org/1999/xlink">
<desc>Output from Flights of Ideas SVG Sketchup Plugin</desc>

  <g id="face0" fill="none" stroke="rgb(0,0,255)" stroke-width="1" stroke-miterlimit="4" stroke-dasharray="none" stroke-linejoin="round" stroke-linecap="round">
    <line x1="13.000000000002" y1="24.0000000000002" x2="13.0000000000017" y2="27.0949140696308"/>
    <line x1="13.0000000000017" y1="27.0949140696308" x2="13.7492531687866" y2="25.2860569078998"/>
    <line x1="13.7492531687866" y1="25.2860569078998" x2="14.9411428382709" y2="23.7327560490008"/>
    <line x1="14.9411428382709" y1="23.7327560490008" x2="16.4944436971702" y2="22.5408663795168"/>
    <line x1="16.4944436971702" y1="22.5408663795168" x2="18.3033008589014" y2="21.7916132107324"/>
    <line x1="18.3033008589014" y1="21.7916132107324" x2="20.2444436971703" y2="21.5360569079005"/>
    <line x1="20.2444436971703" y1="21.5360569079005" x2="22.1855865354392" y2="21.7916132107327"/>
    <line x1="22.1855865354392" y1="21.7916132107327" x2="23.9944436971702" y2="22.5408663795178"/>
    <line x1="23.9944436971702" y1="22.5408663795178" x2="25.5477445560691" y2="23.7327560490021"/>
    <line x1="25.5477445560691" y1="23.7327560490021" x2="26.7396342255531" y2="25.2860569079013"/>
    <line x1="26.7396342255531" y1="25.2860569079013" x2="27.4888873943377" y2="27.0949140696324"/>
    <line x1="27.4888873943377" y1="27.0949140696324" x2="27.7444436971694" y2="29.0360569079014"/>
    <line x1="27.7444436971694" y1="29.0360569079014" x2="27.4888873943373" y2="30.9771997461703"/>
    <line x1="27.4888873943373" y1="30.9771997461703" x2="26.7396342255523" y2="32.7860569079012"/>
    <line x1="26.7396342255523" y1="32.7860569079012" x2="25.547744556068" y2="34.3393577668002"/>
    <line x1="25.547744556068" y1="34.3393577668002" x2="23.9944436971687" y2="35.5312474362843"/>
    <line x1="23.9944436971687" y1="35.5312474362843" x2="22.1855865354375" y2="36.2805006050687"/>
    <line x1="22.1855865354375" y1="36.2805006050687" x2="20.2444436971686" y2="36.5360569079006"/>
    <line x1="20.2444436971686" y1="36.5360569079006" x2="18.3033008588998" y2="36.2805006050684"/>
    <line x1="18.3033008588998" y1="36.2805006050684" x2="16.4944436971687" y2="35.5312474362834"/>
    <line x1="16.4944436971687" y1="35.5312474362834" x2="14.9411428382698" y2="34.339357766799"/>
    <line x1="14.9411428382698" y1="34.339357766799" x2="13.7492531687858" y2="32.7860569078998"/>
    <line x1="13.7492531687858" y1="32.7860569078998" x2="13.0000000000012" y2="30.9771997461687"/>
    <line x1="13.0000000000012" y1="30.9771997461687" x2="13.0000000000006" y2="36.5116951990914"/>
    <line x1="13.0000000000006" y1="36.5116951990914" x2="10.0000000000006" y2="36.5116951990909"/>
    <line x1="10.0000000000006" y1="36.5116951990909" x2="10.0" y2="41.511695199091"/>
    <line x1="10.0" y1="41.511695199091" x2="13.0" y2="41.5116951990913"/>
    <line x1="13.0" y1="41.5116951990913" x2="12.9999999999994" y2="46.5116951990915"/>
    <line x1="12.9999999999994" y1="46.5116951990915" x2="14.9999999999994" y2="46.5116951990917"/>
    <line x1="14.9999999999994" y1="46.5116951990917" x2="14.9999999999996" y2="45.2116951990917"/>
    <line x1="14.9999999999996" y1="45.2116951990917" x2="17.1999999999996" y2="45.211695199092"/>
    <line x1="17.1999999999996" y1="45.211695199092" x2="17.1999999999995" y2="46.5116951990919"/>
    <line x1="17.1999999999995" y1="46.5116951990919" x2="20.1999999999995" y2="46.5116951990923"/>
    <line x1="20.1999999999995" y1="46.5116951990923" x2="20.1999999999991" y2="49.5116951990923"/>
    <line x1="20.1999999999991" y1="49.5116951990923" x2="17.1999999999991" y2="49.5116951990919"/>
    <line x1="17.1999999999991" y1="49.5116951990919" x2="17.199999999999" y2="50.8116951990919"/>
    <line x1="17.199999999999" y1="50.8116951990919" x2="14.999999999999" y2="50.8116951990917"/>
    <line x1="14.999999999999" y1="50.8116951990917" x2="14.9999999999991" y2="49.5116951990917"/>
    <line x1="14.9999999999991" y1="49.5116951990917" x2="12.9999999999991" y2="49.5116951990914"/>
    <line x1="12.9999999999991" y1="49.5116951990914" x2="12.9999999999985" y2="54.5116951990915"/>
    <line x1="12.9999999999985" y1="54.5116951990915" x2="96.9607377018145" y2="54.5116951990915"/>
    <line x1="96.9607377018145" y1="54.5116951990915" x2="96.9607377018145" y2="49.5116951990915"/>
    <line x1="96.9607377018145" y1="49.5116951990915" x2="94.9607377018145" y2="49.5116951990915"/>
    <line x1="94.9607377018145" y1="49.5116951990915" x2="94.9607377018145" y2="50.8116951990914"/>
    <line x1="94.9607377018145" y1="50.8116951990914" x2="92.7607377018144" y2="50.8116951990914"/>
    <line x1="92.7607377018144" y1="50.8116951990914" x2="92.7607377018144" y2="49.5116951990915"/>
    <line x1="92.7607377018144" y1="49.5116951990915" x2="89.7607377018145" y2="49.5116951990914"/>
    <line x1="89.7607377018145" y1="49.5116951990914" x2="89.7607377018145" y2="46.5116951990915"/>
    <line x1="89.7607377018145" y1="46.5116951990915" x2="92.7607377018144" y2="46.5116951990915"/>
    <line x1="92.7607377018144" y1="46.5116951990915" x2="92.7607377018144" y2="45.2116951990915"/>
    <line x1="92.7607377018144" y1="45.2116951990915" x2="94.9607377018145" y2="45.2116951990915"/>
    <line x1="94.9607377018145" y1="45.2116951990915" x2="94.9607377018145" y2="46.5116951990915"/>
    <line x1="94.9607377018145" y1="46.5116951990915" x2="96.9607377018145" y2="46.5116951990915"/>
    <line x1="96.9607377018145" y1="46.5116951990915" x2="96.960737701816" y2="41.5116951990909"/>
    <line x1="96.960737701816" y1="41.5116951990909" x2="99.9607377018159" y2="41.5116951990912"/>
    <line x1="99.9607377018159" y1="41.5116951990912" x2="99.9607377018159" y2="36.5116951990916"/>
    <line x1="99.9607377018159" y1="36.5116951990916" x2="96.960737701816" y2="36.5116951990914"/>
    <line x1="96.960737701816" y1="36.5116951990914" x2="96.9607377018144" y2="30.9771997461687"/>
    <line x1="96.9607377018144" y1="30.9771997461687" x2="96.2114845330297" y2="32.7860569078998"/>
    <line x1="96.2114845330297" y1="32.7860569078998" x2="95.0195948635455" y2="34.3393577667988"/>
    <line x1="95.0195948635455" y1="34.3393577667988" x2="93.4662940046464" y2="35.531247436283"/>
    <line x1="93.4662940046464" y1="35.531247436283" x2="91.6574368429154" y2="36.2805006050678"/>
    <line x1="91.6574368429154" y1="36.2805006050678" x2="89.7162940046465" y2="36.5360569078997"/>
    <line x1="89.7162940046465" y1="36.5360569078997" x2="87.7751511663775" y2="36.2805006050678"/>
    <line x1="87.7751511663775" y1="36.2805006050678" x2="85.9662940046464" y2="35.531247436283"/>
    <line x1="85.9662940046464" y1="35.531247436283" x2="84.4129931457473" y2="34.3393577667988"/>
    <line x1="84.4129931457473" y1="34.3393577667988" x2="83.2211034762631" y2="32.7860569078997"/>
    <line x1="83.2211034762631" y1="32.7860569078997" x2="82.4718503074783" y2="30.9771997461687"/>
    <line x1="82.4718503074783" y1="30.9771997461687" x2="82.2162940046463" y2="29.0360569078998"/>
    <line x1="82.2162940046463" y1="29.0360569078998" x2="82.4718503074783" y2="27.094914069631"/>
    <line x1="82.4718503074783" y1="27.094914069631" x2="83.2211034762631" y2="25.2860569078996"/>
    <line x1="83.2211034762631" y1="25.2860569078996" x2="84.4129931457473" y2="23.7327560490022"/>
    <line x1="84.4129931457473" y1="23.7327560490022" x2="85.9662940046464" y2="22.5408663795162"/>
    <line x1="85.9662940046464" y1="22.5408663795162" x2="87.7751511663775" y2="21.7916132107314"/>
    <line x1="87.7751511663775" y1="21.7916132107314" x2="89.7162940046465" y2="21.5360569078997"/>
    <line x1="89.7162940046465" y1="21.5360569078997" x2="91.6574368429153" y2="21.791613210732"/>
    <line x1="91.6574368429153" y1="21.791613210732" x2="93.4662940046464" y2="22.5408663795158"/>
    <line x1="93.4662940046464" y1="22.5408663795158" x2="95.0195948635455" y2="23.7327560489973"/>
    <line x1="95.0195948635455" y1="23.7327560489973" x2="96.2114845330297" y2="25.2860569079005"/>
    <line x1="96.2114845330297" y1="25.2860569079005" x2="96.9607377018144" y2="27.0949140696307"/>
    <line x1="96.9607377018144" y1="27.0949140696307" x2="96.960737701818" y2="24.0000000000002"/>
    <line x1="96.960737701818" y1="24.0000000000002" x2="99.9607377018179" y2="24.0000000000002"/>
    <line x1="99.9607377018179" y1="24.0000000000002" x2="99.9607377018179" y2="20.9999999999998"/>
    <line x1="99.9607377018179" y1="20.9999999999998" x2="96.960737701818" y2="21.0000000000001"/>
    <line x1="96.960737701818" y1="21.0000000000001" x2="96.9607377018145" y2="15.9999999999999"/>
    <line x1="96.9607377018145" y1="15.9999999999999" x2="94.9607377018145" y2="15.9999999999999"/>
    <line x1="94.9607377018145" y1="15.9999999999999" x2="94.9607377018145" y2="17.3000000000001"/>
    <line x1="94.9607377018145" y1="17.3000000000001" x2="92.7607377018144" y2="17.3"/>
    <line x1="92.7607377018144" y1="17.3" x2="92.7607377018144" y2="16.0"/>
    <line x1="92.7607377018144" y1="16.0" x2="89.7607377018145" y2="15.9999999999999"/>
    <line x1="89.7607377018145" y1="15.9999999999999" x2="89.7607377018145" y2="13.0000000000001"/>
    <line x1="89.7607377018145" y1="13.0000000000001" x2="92.7607377018144" y2="12.9999999999999"/>
    <line x1="92.7607377018144" y1="12.9999999999999" x2="92.7607377018144" y2="11.7"/>
    <line x1="92.7607377018144" y1="11.7" x2="94.9607377018145" y2="11.7"/>
    <line x1="94.9607377018145" y1="11.7" x2="94.9607377018145" y2="13.0"/>
    <line x1="94.9607377018145" y1="13.0" x2="96.9607377018145" y2="13.0"/>
    <line x1="96.9607377018145" y1="13.0" x2="96.9607377018145" y2="10.0"/>
    <line x1="96.9607377018145" y1="10.0" x2="12.9999999999985" y2="10.0"/>
    <line x1="12.9999999999985" y1="10.0" x2="13.0000000000032" y2="13.0"/>
    <line x1="13.0000000000032" y1="13.0" x2="15.0000000000032" y2="13.0000000000002"/>
    <line x1="15.0000000000032" y1="13.0000000000002" x2="15.0000000000034" y2="11.7000000000002"/>
    <line x1="15.0000000000034" y1="11.7000000000002" x2="17.2000000000034" y2="11.7000000000005"/>
    <line x1="17.2000000000034" y1="11.7000000000005" x2="17.2000000000032" y2="13.0000000000006"/>
    <line x1="17.2000000000032" y1="13.0000000000006" x2="20.2000000000033" y2="13.0000000000008"/>
    <line x1="20.2000000000033" y1="13.0000000000008" x2="20.2000000000029" y2="16.0000000000008"/>
    <line x1="20.2000000000029" y1="16.0000000000008" x2="17.2000000000029" y2="16.0000000000005"/>
    <line x1="17.2000000000029" y1="16.0000000000005" x2="17.2000000000028" y2="17.3000000000004"/>
    <line x1="17.2000000000028" y1="17.3000000000004" x2="15.0000000000027" y2="17.3000000000002"/>
    <line x1="15.0000000000027" y1="17.3000000000002" x2="15.0000000000029" y2="16.0000000000002"/>
    <line x1="15.0000000000029" y1="16.0000000000002" x2="13.0000000000029" y2="16.0"/>
    <line x1="13.0000000000029" y1="16.0" x2="13.0000000000024" y2="21.0000000000002"/>
    <line x1="13.0000000000024" y1="21.0000000000002" x2="10.0000000000023" y2="20.9999999999999"/>
    <line x1="10.0000000000023" y1="20.9999999999999" x2="10.000000000002" y2="24.0000000000002"/>
    <line x1="10.000000000002" y1="24.0000000000002" x2="13.000000000002" y2="24.0000000000002"/>
    <line x1="21.5434818028473" y1="18.7860569079006" x2="21.6933324366042" y2="19.147828340247"/>
    <line x1="21.6933324366042" y1="19.147828340247" x2="21.7444436971705" y2="19.5360569079007"/>
    <line x1="21.7444436971705" y1="19.5360569079007" x2="21.6933324366041" y2="19.9242854755545"/>
    <line x1="21.6933324366041" y1="19.9242854755545" x2="21.5434818028471" y2="20.2860569079006"/>
    <line x1="21.5434818028471" y1="20.2860569079006" x2="21.3051038689502" y2="20.5967170796804"/>
    <line x1="21.3051038689502" y1="20.5967170796804" x2="20.9944436971704" y2="20.8350950135773"/>
    <line x1="20.9944436971704" y1="20.8350950135773" x2="20.6326722648242" y2="20.9849456473343"/>
    <line x1="20.6326722648242" y1="20.9849456473343" x2="20.2444436971704" y2="21.0360569079006"/>
    <line x1="20.2444436971704" y1="21.0360569079006" x2="19.8562151295166" y2="20.9849456473341"/>
    <line x1="19.8562151295166" y1="20.9849456473341" x2="19.4944436971704" y2="20.8350950135771"/>
    <line x1="19.4944436971704" y1="20.8350950135771" x2="19.1837835253906" y2="20.5967170796803"/>
    <line x1="19.1837835253906" y1="20.5967170796803" x2="18.9454055914938" y2="20.2860569079004"/>
    <line x1="18.9454055914938" y1="20.2860569079004" x2="18.7955549577369" y2="19.9242854755541"/>
    <line x1="18.7955549577369" y1="19.9242854755541" x2="18.7444436971706" y2="19.5360569079004"/>
    <line x1="18.7444436971706" y1="19.5360569079004" x2="18.795554957737" y2="19.1478283402465"/>
    <line x1="18.795554957737" y1="19.1478283402465" x2="18.945405591494" y2="18.7860569079005"/>
    <line x1="18.945405591494" y1="18.7860569079005" x2="19.1837835253909" y2="18.4753967361206"/>
    <line x1="19.1837835253909" y1="18.4753967361206" x2="19.4944436971707" y2="18.2370188022238"/>
    <line x1="19.4944436971707" y1="18.2370188022238" x2="19.856215129517" y2="18.087168168467"/>
    <line x1="19.856215129517" y1="18.087168168467" x2="20.2444436971707" y2="18.0360569079005"/>
    <line x1="20.2444436971707" y1="18.0360569079005" x2="20.6326722648245" y2="18.087168168467"/>
    <line x1="20.6326722648245" y1="18.087168168467" x2="20.9944436971707" y2="18.2370188022239"/>
    <line x1="20.9944436971707" y1="18.2370188022239" x2="21.3051038689505" y2="18.4753967361208"/>
    <line x1="21.3051038689505" y1="18.4753967361208" x2="21.5434818028473" y2="18.7860569079006"/>
    <line x1="34.3562151295128" y1="46.062806459658" x2="34.7444436971666" y2="46.0116951990915"/>
    <line x1="34.7444436971666" y1="46.0116951990915" x2="35.1326722648203" y2="46.062806459658"/>
    <line x1="35.1326722648203" y1="46.062806459658" x2="35.4944436971665" y2="46.2126570934148"/>
    <line x1="35.4944436971665" y1="46.2126570934148" x2="35.8051038689464" y2="46.4510350273116"/>
    <line x1="35.8051038689464" y1="46.4510350273116" x2="36.0434818028431" y2="46.7616951990915"/>
    <line x1="36.0434818028431" y1="46.7616951990915" x2="36.1933324366002" y2="47.1234666314377"/>
    <line x1="36.1933324366002" y1="47.1234666314377" x2="36.2444436971665" y2="47.5116951990915"/>
    <line x1="36.2444436971665" y1="47.5116951990915" x2="36.1933324366002" y2="47.8999237667452"/>
    <line x1="36.1933324366002" y1="47.8999237667452" x2="36.0434818028431" y2="48.2616951990915"/>
    <line x1="36.0434818028431" y1="48.2616951990915" x2="35.8051038689464" y2="48.5723553708714"/>
    <line x1="35.8051038689464" y1="48.5723553708714" x2="35.4944436971665" y2="48.8107333047682"/>
    <line x1="35.4944436971665" y1="48.8107333047682" x2="35.1326722648203" y2="48.9605839385251"/>
    <line x1="35.1326722648203" y1="48.9605839385251" x2="34.7444436971666" y2="49.0116951990915"/>
    <line x1="34.7444436971666" y1="49.0116951990915" x2="34.3562151295128" y2="48.9605839385251"/>
    <line x1="34.3562151295128" y1="48.9605839385251" x2="33.9944436971665" y2="48.8107333047681"/>
    <line x1="33.9944436971665" y1="48.8107333047681" x2="33.6837835253867" y2="48.5723553708714"/>
    <line x1="33.6837835253867" y1="48.5723553708714" x2="33.4454055914899" y2="48.2616951990915"/>
    <line x1="33.4454055914899" y1="48.2616951990915" x2="33.295554957733" y2="47.8999237667452"/>
    <line x1="33.295554957733" y1="47.8999237667452" x2="33.2444436971665" y2="47.5116951990915"/>
    <line x1="33.2444436971665" y1="47.5116951990915" x2="33.295554957733" y2="47.1234666314377"/>
    <line x1="33.295554957733" y1="47.1234666314377" x2="33.4454055914899" y2="46.7616951990915"/>
    <line x1="33.4454055914899" y1="46.7616951990915" x2="33.6837835253867" y2="46.4510350273116"/>
    <line x1="33.6837835253867" y1="46.4510350273116" x2="33.9944436971665" y2="46.2126570934148"/>
    <line x1="33.9944436971665" y1="46.2126570934148" x2="34.3562151295128" y2="46.062806459658"/>
    <line x1="75.2162940046454" y1="46.0116951990886" x2="75.6045225722992" y2="46.062806459655"/>
    <line x1="75.6045225722992" y1="46.062806459655" x2="75.9662940046454" y2="46.2126570934121"/>
    <line x1="75.9662940046454" y1="46.2126570934121" x2="76.2769541764252" y2="46.4510350273089"/>
    <line x1="76.2769541764252" y1="46.4510350273089" x2="76.5153321103221" y2="46.7616951990886"/>
    <line x1="76.5153321103221" y1="46.7616951990886" x2="76.665182744079" y2="47.1234666314349"/>
    <line x1="76.665182744079" y1="47.1234666314349" x2="76.7162940046454" y2="47.5116951990886"/>
    <line x1="76.7162940046454" y1="47.5116951990886" x2="76.665182744079" y2="47.8999237667424"/>
    <line x1="76.665182744079" y1="47.8999237667424" x2="76.5153321103221" y2="48.2616951990886"/>
    <line x1="76.5153321103221" y1="48.2616951990886" x2="76.2769541764252" y2="48.5723553708684"/>
    <line x1="76.2769541764252" y1="48.5723553708684" x2="75.9662940046454" y2="48.8107333047653"/>
    <line x1="75.9662940046454" y1="48.8107333047653" x2="75.6045225722992" y2="48.9605839385223"/>
    <line x1="75.6045225722992" y1="48.9605839385223" x2="75.2162940046454" y2="49.0116951990886"/>
    <line x1="75.2162940046454" y1="49.0116951990886" x2="74.8280654369916" y2="48.9605839385223"/>
    <line x1="74.8280654369916" y1="48.9605839385223" x2="74.4662940046454" y2="48.8107333047653"/>
    <line x1="74.4662940046454" y1="48.8107333047653" x2="74.1556338328656" y2="48.5723553708684"/>
    <line x1="74.1556338328656" y1="48.5723553708684" x2="73.9172558989687" y2="48.2616951990886"/>
    <line x1="73.9172558989687" y1="48.2616951990886" x2="73.7674052652118" y2="47.8999237667424"/>
    <line x1="73.7674052652118" y1="47.8999237667424" x2="73.7162940046454" y2="47.5116951990886"/>
    <line x1="73.7162940046454" y1="47.5116951990886" x2="73.7674052652118" y2="47.1234666314349"/>
    <line x1="73.7674052652118" y1="47.1234666314349" x2="73.9172558989687" y2="46.7616951990886"/>
    <line x1="73.9172558989687" y1="46.7616951990886" x2="74.1556338328656" y2="46.4510350273089"/>
    <line x1="74.1556338328656" y1="46.4510350273089" x2="74.4662940046454" y2="46.212657093412"/>
    <line x1="74.4662940046454" y1="46.212657093412" x2="74.8280654369916" y2="46.062806459655"/>
    <line x1="74.8280654369916" y1="46.062806459655" x2="75.2162940046454" y2="46.0116951990886"/>
    <line x1="20.9944436971679" y1="42.8350950135773" x2="20.6326722648217" y2="42.9849456473341"/>
    <line x1="20.6326722648217" y1="42.9849456473341" x2="20.2444436971679" y2="43.0360569079005"/>
    <line x1="20.2444436971679" y1="43.0360569079005" x2="19.8562151295141" y2="42.9849456473341"/>
    <line x1="19.8562151295141" y1="42.9849456473341" x2="19.4944436971679" y2="42.8350950135771"/>
    <line x1="19.4944436971679" y1="42.8350950135771" x2="19.1837835253881" y2="42.5967170796803"/>
    <line x1="19.1837835253881" y1="42.5967170796803" x2="18.9454055914913" y2="42.2860569079004"/>
    <line x1="18.9454055914913" y1="42.2860569079004" x2="18.7955549577344" y2="41.9242854755541"/>
    <line x1="18.7955549577344" y1="41.9242854755541" x2="18.744443697168" y2="41.5360569079003"/>
    <line x1="18.744443697168" y1="41.5360569079003" x2="18.7955549577345" y2="41.1478283402466"/>
    <line x1="18.7955549577345" y1="41.1478283402466" x2="18.9454055914915" y2="40.7860569079004"/>
    <line x1="18.9454055914915" y1="40.7860569079004" x2="19.1837835253883" y2="40.4753967361206"/>
    <line x1="19.1837835253883" y1="40.4753967361206" x2="19.4944436971682" y2="40.2370188022237"/>
    <line x1="19.4944436971682" y1="40.2370188022237" x2="19.8562151295144" y2="40.0871681684669"/>
    <line x1="19.8562151295144" y1="40.0871681684669" x2="20.2444436971683" y2="40.0360569079006"/>
    <line x1="20.2444436971683" y1="40.0360569079006" x2="20.6326722648219" y2="40.087168168467"/>
    <line x1="20.6326722648219" y1="40.087168168467" x2="20.9944436971682" y2="40.2370188022239"/>
    <line x1="20.9944436971682" y1="40.2370188022239" x2="21.3051038689479" y2="40.4753967361208"/>
    <line x1="21.3051038689479" y1="40.4753967361208" x2="21.5434818028448" y2="40.7860569079007"/>
    <line x1="21.5434818028448" y1="40.7860569079007" x2="21.6933324366017" y2="41.147828340247"/>
    <line x1="21.6933324366017" y1="41.147828340247" x2="21.7444436971681" y2="41.5360569079007"/>
    <line x1="21.7444436971681" y1="41.5360569079007" x2="21.6933324366016" y2="41.9242854755545"/>
    <line x1="21.6933324366016" y1="41.9242854755545" x2="21.5434818028447" y2="42.2860569079007"/>
    <line x1="21.5434818028447" y1="42.2860569079007" x2="21.3051038689478" y2="42.5967170796805"/>
    <line x1="21.3051038689478" y1="42.5967170796805" x2="20.9944436971679" y2="42.8350950135773"/>
    <line x1="90.4662940046464" y1="40.2370188022231" x2="90.7769541764263" y2="40.4753967361199"/>
    <line x1="90.7769541764263" y1="40.4753967361199" x2="91.015332110323" y2="40.7860569078997"/>
    <line x1="91.015332110323" y1="40.7860569078997" x2="91.16518274408" y2="41.1478283402458"/>
    <line x1="91.16518274408" y1="41.1478283402458" x2="91.2162940046464" y2="41.5360569078998"/>
    <line x1="91.2162940046464" y1="41.5360569078998" x2="91.16518274408" y2="41.9242854755535"/>
    <line x1="91.16518274408" y1="41.9242854755535" x2="91.015332110323" y2="42.2860569078997"/>
    <line x1="91.015332110323" y1="42.2860569078997" x2="90.7769541764263" y2="42.5967170796796"/>
    <line x1="90.7769541764263" y1="42.5967170796796" x2="90.4662940046465" y2="42.8350950135764"/>
    <line x1="90.4662940046465" y1="42.8350950135764" x2="90.1045225723002" y2="42.9849456473333"/>
    <line x1="90.1045225723002" y1="42.9849456473333" x2="89.7162940046465" y2="43.0360569078997"/>
    <line x1="89.7162940046465" y1="43.0360569078997" x2="89.3280654369926" y2="42.9849456473333"/>
    <line x1="89.3280654369926" y1="42.9849456473333" x2="88.9662940046464" y2="42.8350950135764"/>
    <line x1="88.9662940046464" y1="42.8350950135764" x2="88.6556338328665" y2="42.5967170796796"/>
    <line x1="88.6556338328665" y1="42.5967170796796" x2="88.4172558989698" y2="42.2860569078998"/>
    <line x1="88.4172558989698" y1="42.2860569078998" x2="88.2674052652128" y2="41.9242854755535"/>
    <line x1="88.2674052652128" y1="41.9242854755535" x2="88.2162940046464" y2="41.5360569078997"/>
    <line x1="88.2162940046464" y1="41.5360569078997" x2="88.2674052652128" y2="41.147828340246"/>
    <line x1="88.2674052652128" y1="41.147828340246" x2="88.4172558989698" y2="40.7860569078997"/>
    <line x1="88.4172558989698" y1="40.7860569078997" x2="88.6556338328665" y2="40.4753967361199"/>
    <line x1="88.6556338328665" y1="40.4753967361199" x2="88.9662940046464" y2="40.2370188022231"/>
    <line x1="88.9662940046464" y1="40.2370188022231" x2="89.3280654369926" y2="40.0871681684661"/>
    <line x1="89.3280654369926" y1="40.0871681684661" x2="89.7162940046465" y2="40.0360569078998"/>
    <line x1="89.7162940046465" y1="40.0360569078998" x2="90.1045225723002" y2="40.0871681684662"/>
    <line x1="90.1045225723002" y1="40.0871681684662" x2="90.4662940046464" y2="40.2370188022231"/>
    <line x1="88.2674052652128" y1="19.1478283402458" x2="88.4172558989698" y2="18.7860569078999"/>
    <line x1="88.4172558989698" y1="18.7860569078999" x2="88.6556338328665" y2="18.4753967361197"/>
    <line x1="88.6556338328665" y1="18.4753967361197" x2="88.9662940046464" y2="18.237018802223"/>
    <line x1="88.9662940046464" y1="18.237018802223" x2="89.3280654369926" y2="18.0871681684661"/>
    <line x1="89.3280654369926" y1="18.0871681684661" x2="89.7162940046465" y2="18.0360569078999"/>
    <line x1="89.7162940046465" y1="18.0360569078999" x2="90.1045225723002" y2="18.0871681684661"/>
    <line x1="90.1045225723002" y1="18.0871681684661" x2="90.4662940046464" y2="18.237018802223"/>
    <line x1="90.4662940046464" y1="18.237018802223" x2="90.7769541764263" y2="18.4753967361198"/>
    <line x1="90.7769541764263" y1="18.4753967361198" x2="91.015332110323" y2="18.7860569078997"/>
    <line x1="91.015332110323" y1="18.7860569078997" x2="91.16518274408" y2="19.1478283402461"/>
    <line x1="91.16518274408" y1="19.1478283402461" x2="91.2162940046464" y2="19.5360569078997"/>
    <line x1="91.2162940046464" y1="19.5360569078997" x2="91.16518274408" y2="19.9242854755535"/>
    <line x1="91.16518274408" y1="19.9242854755535" x2="91.015332110323" y2="20.2860569078999"/>
    <line x1="91.015332110323" y1="20.2860569078999" x2="90.7769541764263" y2="20.5967170796795"/>
    <line x1="90.7769541764263" y1="20.5967170796795" x2="90.4662940046465" y2="20.8350950135763"/>
    <line x1="90.4662940046465" y1="20.8350950135763" x2="90.1045225723002" y2="20.9849456473336"/>
    <line x1="90.1045225723002" y1="20.9849456473336" x2="89.7162940046465" y2="21.0360569079"/>
    <line x1="89.7162940046465" y1="21.0360569079" x2="89.3280654369926" y2="20.9849456473333"/>
    <line x1="89.3280654369926" y1="20.9849456473333" x2="88.9662940046464" y2="20.8350950135765"/>
    <line x1="88.9662940046464" y1="20.8350950135765" x2="88.6556338328665" y2="20.5967170796796"/>
    <line x1="88.6556338328665" y1="20.5967170796796" x2="88.4172558989698" y2="20.2860569078999"/>
    <line x1="88.4172558989698" y1="20.2860569078999" x2="88.2674052652128" y2="19.9242854755533"/>
    <line x1="88.2674052652128" y1="19.9242854755533" x2="88.2162940046464" y2="19.5360569078995"/>
    <line x1="88.2162940046464" y1="19.5360569078995" x2="88.2674052652128" y2="19.1478283402458"/>
    <line x1="66.2769541764262" y1="30.0606601717799" x2="65.9662940046464" y2="30.2990381056767"/>
    <line x1="65.9662940046464" y1="30.2990381056767" x2="65.6045225723002" y2="30.4488887394336"/>
    <line x1="65.6045225723002" y1="30.4488887394336" x2="65.2162940046464" y2="30.5"/>
    <line x1="65.2162940046464" y1="30.5" x2="64.8280654369926" y2="30.4488887394336"/>
    <line x1="64.8280654369926" y1="30.4488887394336" x2="64.4662940046464" y2="30.2990381056767"/>
    <line x1="64.4662940046464" y1="30.2990381056767" x2="64.1556338328666" y2="30.0606601717799"/>
    <line x1="64.1556338328666" y1="30.0606601717799" x2="63.9172558989697" y2="29.75"/>
    <line x1="63.9172558989697" y1="29.75" x2="63.7674052652128" y2="29.3882285676538"/>
    <line x1="63.7674052652128" y1="29.3882285676538" x2="63.7162940046464" y2="29.0"/>
    <line x1="63.7162940046464" y1="29.0" x2="63.7674052652128" y2="28.6117714323462"/>
    <line x1="63.7674052652128" y1="28.6117714323462" x2="63.9172558989697" y2="28.2499999999999"/>
    <line x1="63.9172558989697" y1="28.2499999999999" x2="64.1556338328666" y2="27.9393398282201"/>
    <line x1="64.1556338328666" y1="27.9393398282201" x2="64.4662940046464" y2="27.7009618943234"/>
    <line x1="64.4662940046464" y1="27.7009618943234" x2="64.8280654369926" y2="27.5511112605664"/>
    <line x1="64.8280654369926" y1="27.5511112605664" x2="65.2162940046464" y2="27.4999999999999"/>
    <line x1="65.2162940046464" y1="27.4999999999999" x2="65.6045225723002" y2="27.5511112605666"/>
    <line x1="65.6045225723002" y1="27.5511112605666" x2="65.9662940046464" y2="27.7009618943233"/>
    <line x1="65.9662940046464" y1="27.7009618943233" x2="66.2769541764262" y2="27.9393398282202"/>
    <line x1="66.2769541764262" y1="27.9393398282202" x2="66.5153321103231" y2="28.2499999999999"/>
    <line x1="66.5153321103231" y1="28.2499999999999" x2="66.66518274408" y2="28.6117714323461"/>
    <line x1="66.66518274408" y1="28.6117714323461" x2="66.7162940046465" y2="29.0"/>
    <line x1="66.7162940046465" y1="29.0" x2="66.66518274408" y2="29.3882285676538"/>
    <line x1="66.66518274408" y1="29.3882285676538" x2="66.5153321103231" y2="29.75"/>
    <line x1="66.5153321103231" y1="29.75" x2="66.2769541764262" y2="30.0606601717799"/>
    <line x1="45.8051038689463" y1="27.9393398282201" x2="46.0434818028432" y2="28.25"/>
    <line x1="46.0434818028432" y1="28.25" x2="46.1933324366002" y2="28.6117714323462"/>
    <line x1="46.1933324366002" y1="28.6117714323462" x2="46.2444436971666" y2="29.0"/>
    <line x1="46.2444436971666" y1="29.0" x2="46.1933324366002" y2="29.3882285676538"/>
    <line x1="46.1933324366002" y1="29.3882285676538" x2="46.0434818028432" y2="29.75"/>
    <line x1="46.0434818028432" y1="29.75" x2="45.8051038689463" y2="30.0606601717799"/>
    <line x1="45.8051038689463" y1="30.0606601717799" x2="45.4944436971665" y2="30.2990381056767"/>
    <line x1="45.4944436971665" y1="30.2990381056767" x2="45.1326722648204" y2="30.4488887394335"/>
    <line x1="45.1326722648204" y1="30.4488887394335" x2="44.7444436971665" y2="30.5"/>
    <line x1="44.7444436971665" y1="30.5" x2="44.3562151295127" y2="30.4488887394336"/>
    <line x1="44.3562151295127" y1="30.4488887394336" x2="43.9944436971665" y2="30.2990381056767"/>
    <line x1="43.9944436971665" y1="30.2990381056767" x2="43.6837835253867" y2="30.0606601717799"/>
    <line x1="43.6837835253867" y1="30.0606601717799" x2="43.4454055914899" y2="29.75"/>
    <line x1="43.4454055914899" y1="29.75" x2="43.2955549577329" y2="29.3882285676538"/>
    <line x1="43.2955549577329" y1="29.3882285676538" x2="43.2444436971665" y2="29.0"/>
    <line x1="43.2444436971665" y1="29.0" x2="43.2955549577329" y2="28.6117714323462"/>
    <line x1="43.2955549577329" y1="28.6117714323462" x2="43.4454055914899" y2="28.25"/>
    <line x1="43.4454055914899" y1="28.25" x2="43.6837835253867" y2="27.9393398282201"/>
    <line x1="43.6837835253867" y1="27.9393398282201" x2="43.9944436971665" y2="27.7009618943233"/>
    <line x1="43.9944436971665" y1="27.7009618943233" x2="44.3562151295127" y2="27.5511112605664"/>
    <line x1="44.3562151295127" y1="27.5511112605664" x2="44.7444436971665" y2="27.5"/>
    <line x1="44.7444436971665" y1="27.5" x2="45.1326722648204" y2="27.5511112605665"/>
    <line x1="45.1326722648204" y1="27.5511112605665" x2="45.4944436971665" y2="27.7009618943233"/>
    <line x1="45.4944436971665" y1="27.7009618943233" x2="45.8051038689463" y2="27.9393398282201"/>
  </g>
</svg>
