<?xml version="1.0" standalone="no"?>
<!DOCTYPE svg PUBLIC "-//W3C//DTD SVG 1.1//EN" "http://www.w3.org/Graphics/SVG/1.1/DTD/svg11.dtd">
<svg width="36.744443697168mm" height="64.5116951990914mm"
 viewBox="0 0 36.744443697168 64.5116951990914"
 xmlns="http://www.w3.org/2000/svg" version="1.1"
 xmlns:xlink="http://www.w3.org/1999/xlink">
<desc>Output from Flights of Ideas SVG Sketchup Plugin</desc>

  <g id="face0" fill="none" stroke="rgb(0,0,255)" stroke-width="1" stroke-miterlimit="4" stroke-dasharray="none" stroke-linejoin="round" stroke-linecap="round">
    <line x1="26.744443697168" y1="27.0949140696308" x2="26.744443697168" y2="15.9999999999999"/>
    <line x1="26.744443697168" y1="15.9999999999999" x2="24.744443697168" y2="15.9999999999999"/>
    <line x1="24.744443697168" y1="15.9999999999999" x2="24.744443697168" y2="17.3"/>
    <line x1="24.744443697168" y1="17.3" x2="22.544443697168" y2="17.3"/>
    <line x1="22.544443697168" y1="17.3" x2="22.544443697168" y2="15.9999999999999"/>
    <line x1="22.544443697168" y1="15.9999999999999" x2="19.544443697168" y2="15.9999999999999"/>
    <line x1="19.544443697168" y1="15.9999999999999" x2="19.544443697168" y2="12.9999999999999"/>
    <line x1="19.544443697168" y1="12.9999999999999" x2="22.544443697168" y2="12.9999999999999"/>
    <line x1="22.544443697168" y1="12.9999999999999" x2="22.544443697168" y2="11.6999999999999"/>
    <line x1="22.544443697168" y1="11.6999999999999" x2="24.744443697168" y2="11.6999999999999"/>
    <line x1="24.744443697168" y1="11.6999999999999" x2="24.744443697168" y2="12.9999999999999"/>
    <line x1="24.744443697168" y1="12.9999999999999" x2="26.744443697168" y2="12.9999999999999"/>
    <line x1="26.744443697168" y1="12.9999999999999" x2="26.744443697168" y2="10.0"/>
    <line x1="26.744443697168" y1="10.0" x2="10.0" y2="10.0"/>
    <line x1="10.0" y1="10.0" x2="10.0" y2="54.5116951990914"/>
    <line x1="10.0" y1="54.5116951990914" x2="26.744443697168" y2="54.5116951990914"/>
    <line x1="26.744443697168" y1="54.5116951990914" x2="26.744443697168" y2="49.5116951990915"/>
    <line x1="26.744443697168" y1="49.5116951990915" x2="24.744443697168" y2="49.5116951990915"/>
    <line x1="24.744443697168" y1="49.5116951990915" x2="24.744443697168" y2="50.8116951990914"/>
    <line x1="24.744443697168" y1="50.8116951990914" x2="22.544443697168" y2="50.8116951990914"/>
    <line x1="22.544443697168" y1="50.8116951990914" x2="22.544443697168" y2="49.5116951990915"/>
    <line x1="22.544443697168" y1="49.5116951990915" x2="19.544443697168" y2="49.5116951990915"/>
    <line x1="19.544443697168" y1="49.5116951990915" x2="19.544443697168" y2="46.5116951990914"/>
    <line x1="19.544443697168" y1="46.5116951990914" x2="22.544443697168" y2="46.5116951990914"/>
    <line x1="22.544443697168" y1="46.5116951990914" x2="22.544443697168" y2="45.2116951990915"/>
    <line x1="22.544443697168" y1="45.2116951990915" x2="24.744443697168" y2="45.2116951990915"/>
    <line x1="24.744443697168" y1="45.2116951990915" x2="24.744443697168" y2="46.5116951990914"/>
    <line x1="24.744443697168" y1="46.5116951990914" x2="26.744443697168" y2="46.5116951990914"/>
    <line x1="26.744443697168" y1="46.5116951990914" x2="26.744443697168" y2="30.9771997461686"/>
    <line x1="26.744443697168" y1="30.9771997461686" x2="25.9951905283833" y2="32.7860569078996"/>
    <line x1="25.9951905283833" y1="32.7860569078996" x2="24.8033008588991" y2="34.3393577667988"/>
    <line x1="24.8033008588991" y1="34.3393577667988" x2="23.2499999999999" y2="35.531247436283"/>
    <line x1="23.2499999999999" y1="35.531247436283" x2="21.4411428382689" y2="36.2805006050677"/>
    <line x1="21.4411428382689" y1="36.2805006050677" x2="19.5" y2="36.5360569078997"/>
    <line x1="19.5" y1="36.5360569078997" x2="17.5588571617311" y2="36.2805006050677"/>
    <line x1="17.5588571617311" y1="36.2805006050677" x2="15.7499999999999" y2="35.531247436283"/>
    <line x1="15.7499999999999" y1="35.531247436283" x2="14.1966991411009" y2="34.3393577667988"/>
    <line x1="14.1966991411009" y1="34.3393577667988" x2="13.0048094716167" y2="32.7860569078996"/>
    <line x1="13.0048094716167" y1="32.7860569078996" x2="12.255556302832" y2="30.9771997461686"/>
    <line x1="12.255556302832" y1="30.9771997461686" x2="12.0" y2="29.0360569078997"/>
    <line x1="12.0" y1="29.0360569078997" x2="12.255556302832" y2="27.0949140696308"/>
    <line x1="12.255556302832" y1="27.0949140696308" x2="13.0048094716167" y2="25.2860569078997"/>
    <line x1="13.0048094716167" y1="25.2860569078997" x2="14.1966991411009" y2="23.7327560490006"/>
    <line x1="14.1966991411009" y1="23.7327560490006" x2="15.7499999999999" y2="22.5408663795164"/>
    <line x1="15.7499999999999" y1="22.5408663795164" x2="17.5588571617311" y2="21.7916132107317"/>
    <line x1="17.5588571617311" y1="21.7916132107317" x2="19.5" y2="21.5360569078997"/>
    <line x1="19.5" y1="21.5360569078997" x2="21.4411428382689" y2="21.7916132107317"/>
    <line x1="21.4411428382689" y1="21.7916132107317" x2="23.2499999999999" y2="22.5408663795164"/>
    <line x1="23.2499999999999" y1="22.5408663795164" x2="24.8033008588991" y2="23.7327560490006"/>
    <line x1="24.8033008588991" y1="23.7327560490006" x2="25.9951905283833" y2="25.2860569078997"/>
    <line x1="25.9951905283833" y1="25.2860569078997" x2="26.744443697168" y2="27.0949140696308"/>
    <line x1="19.1117714323462" y1="40.0871681684661" x2="19.5" y2="40.0360569078997"/>
    <line x1="19.5" y1="40.0360569078997" x2="19.8882285676537" y2="40.0871681684661"/>
    <line x1="19.8882285676537" y1="40.0871681684661" x2="20.25" y2="40.2370188022231"/>
    <line x1="20.25" y1="40.2370188022231" x2="20.5606601717798" y2="40.4753967361198"/>
    <line x1="20.5606601717798" y1="40.4753967361198" x2="20.7990381056766" y2="40.7860569078997"/>
    <line x1="20.7990381056766" y1="40.7860569078997" x2="20.9488887394336" y2="41.147828340246"/>
    <line x1="20.9488887394336" y1="41.147828340246" x2="21.0" y2="41.5360569078996"/>
    <line x1="21.0" y1="41.5360569078996" x2="20.9488887394336" y2="41.9242854755535"/>
    <line x1="20.9488887394336" y1="41.9242854755535" x2="20.7990381056766" y2="42.2860569078996"/>
    <line x1="20.7990381056766" y1="42.2860569078996" x2="20.5606601717798" y2="42.5967170796794"/>
    <line x1="20.5606601717798" y1="42.5967170796794" x2="20.25" y2="42.8350950135763"/>
    <line x1="20.25" y1="42.8350950135763" x2="19.8882285676537" y2="42.9849456473333"/>
    <line x1="19.8882285676537" y1="42.9849456473333" x2="19.5" y2="43.0360569078996"/>
    <line x1="19.5" y1="43.0360569078996" x2="19.1117714323462" y2="42.9849456473332"/>
    <line x1="19.1117714323462" y1="42.9849456473332" x2="18.75" y2="42.8350950135763"/>
    <line x1="18.75" y1="42.8350950135763" x2="18.4393398282202" y2="42.5967170796794"/>
    <line x1="18.4393398282202" y1="42.5967170796794" x2="18.2009618943233" y2="42.2860569078996"/>
    <line x1="18.2009618943233" y1="42.2860569078996" x2="18.0511112605664" y2="41.9242854755535"/>
    <line x1="18.0511112605664" y1="41.9242854755535" x2="18.0" y2="41.5360569078996"/>
    <line x1="18.0" y1="41.5360569078996" x2="18.0511112605664" y2="41.147828340246"/>
    <line x1="18.0511112605664" y1="41.147828340246" x2="18.2009618943233" y2="40.7860569078996"/>
    <line x1="18.2009618943233" y1="40.7860569078996" x2="18.4393398282201" y2="40.4753967361198"/>
    <line x1="18.4393398282201" y1="40.4753967361198" x2="18.75" y2="40.2370188022231"/>
    <line x1="18.75" y1="40.2370188022231" x2="19.1117714323462" y2="40.0871681684661"/>
    <line x1="19.8882285676537" y1="20.9849456473333" x2="19.5" y2="21.0360569078997"/>
    <line x1="19.5" y1="21.0360569078997" x2="19.1117714323462" y2="20.9849456473333"/>
    <line x1="19.1117714323462" y1="20.9849456473333" x2="18.75" y2="20.8350950135763"/>
    <line x1="18.75" y1="20.8350950135763" x2="18.4393398282201" y2="20.5967170796795"/>
    <line x1="18.4393398282201" y1="20.5967170796795" x2="18.2009618943233" y2="20.2860569078997"/>
    <line x1="18.2009618943233" y1="20.2860569078997" x2="18.0511112605664" y2="19.9242854755535"/>
    <line x1="18.0511112605664" y1="19.9242854755535" x2="18.0" y2="19.5360569078997"/>
    <line x1="18.0" y1="19.5360569078997" x2="18.0511112605664" y2="19.1478283402459"/>
    <line x1="18.0511112605664" y1="19.1478283402459" x2="18.2009618943233" y2="18.7860569078996"/>
    <line x1="18.2009618943233" y1="18.7860569078996" x2="18.4393398282201" y2="18.4753967361199"/>
    <line x1="18.4393398282201" y1="18.4753967361199" x2="18.75" y2="18.237018802223"/>
    <line x1="18.75" y1="18.237018802223" x2="19.1117714323462" y2="18.0871681684661"/>
    <line x1="19.1117714323462" y1="18.0871681684661" x2="19.5" y2="18.0360569078996"/>
    <line x1="19.5" y1="18.0360569078996" x2="19.8882285676537" y2="18.0871681684661"/>
    <line x1="19.8882285676537" y1="18.0871681684661" x2="20.25" y2="18.237018802223"/>
    <line x1="20.25" y1="18.237018802223" x2="20.5606601717798" y2="18.4753967361199"/>
    <line x1="20.5606601717798" y1="18.4753967361199" x2="20.7990381056766" y2="18.7860569078996"/>
    <line x1="20.7990381056766" y1="18.7860569078996" x2="20.9488887394336" y2="19.1478283402459"/>
    <line x1="20.9488887394336" y1="19.1478283402459" x2="21.0" y2="19.5360569078997"/>
    <line x1="21.0" y1="19.5360569078997" x2="20.9488887394336" y2="19.9242854755535"/>
    <line x1="20.9488887394336" y1="19.9242854755535" x2="20.7990381056766" y2="20.2860569078997"/>
    <line x1="20.7990381056766" y1="20.2860569078997" x2="20.5606601717798" y2="20.5967170796795"/>
    <line x1="20.5606601717798" y1="20.5967170796795" x2="20.25" y2="20.8350950135763"/>
    <line x1="20.25" y1="20.8350950135763" x2="19.8882285676537" y2="20.9849456473333"/>
  </g>
</svg>
