<?xml version="1.0" standalone="no"?>
<!DOCTYPE svg PUBLIC "-//W3C//DTD SVG 1.1//EN" "http://www.w3.org/Graphics/SVG/1.1/DTD/svg11.dtd">
<svg width="70.4718503074799mm" height="40.5116951990915mm"
 viewBox="0 0 70.4718503074799 40.5116951990915"
 xmlns="http://www.w3.org/2000/svg" version="1.1"
 xmlns:xlink="http://www.w3.org/1999/xlink">
<desc>Output from Flights of Ideas SVG Sketchup Plugin</desc>

  <g id="face0" fill="none" stroke="rgb(0,0,255)" stroke-width="1" stroke-miterlimit="4" stroke-dasharray="none" stroke-linejoin="round" stroke-linecap="round">
    <line x1="10.0" y1="10.0" x2="10.0" y2="30.5116951990915"/>
    <line x1="10.0" y1="30.5116951990915" x2="24.9718503074801" y2="30.5116951990915"/>
    <line x1="24.9718503074801" y1="30.5116951990915" x2="24.9718503074801" y2="16.4999999999999"/>
    <line x1="24.9718503074801" y1="16.4999999999999" x2="44.9718503074801" y2="16.4999999999999"/>
    <line x1="44.9718503074801" y1="16.4999999999999" x2="44.9718503074791" y2="30.5116951990865"/>
    <line x1="44.9718503074791" y1="30.5116951990865" x2="60.4718503074789" y2="30.5116951990897"/>
    <line x1="60.4718503074789" y1="30.5116951990897" x2="60.4718503074799" y2="10.0"/>
    <line x1="60.4718503074799" y1="10.0" x2="10.0" y2="10.0"/>
    <line x1="55.8600788751327" y1="24.9605839385223" x2="55.4718503074789" y2="25.0116951990888"/>
    <line x1="55.4718503074789" y1="25.0116951990888" x2="55.0836217398252" y2="24.9605839385223"/>
    <line x1="55.0836217398252" y1="24.9605839385223" x2="54.721850307479" y2="24.8107333047652"/>
    <line x1="54.721850307479" y1="24.8107333047652" x2="54.4111901356991" y2="24.5723553708685"/>
    <line x1="54.4111901356991" y1="24.5723553708685" x2="54.1728122018023" y2="24.2616951990886"/>
    <line x1="54.1728122018023" y1="24.2616951990886" x2="54.0229615680454" y2="23.8999237667425"/>
    <line x1="54.0229615680454" y1="23.8999237667425" x2="53.9718503074789" y2="23.5116951990886"/>
    <line x1="53.9718503074789" y1="23.5116951990886" x2="54.0229615680454" y2="23.1234666314349"/>
    <line x1="54.0229615680454" y1="23.1234666314349" x2="54.1728122018023" y2="22.7616951990886"/>
    <line x1="54.1728122018023" y1="22.7616951990886" x2="54.4111901356991" y2="22.4510350273089"/>
    <line x1="54.4111901356991" y1="22.4510350273089" x2="54.721850307479" y2="22.212657093412"/>
    <line x1="54.721850307479" y1="22.212657093412" x2="55.0836217398252" y2="22.0628064596551"/>
    <line x1="55.0836217398252" y1="22.0628064596551" x2="55.4718503074789" y2="22.0116951990886"/>
    <line x1="55.4718503074789" y1="22.0116951990886" x2="55.8600788751327" y2="22.0628064596551"/>
    <line x1="55.8600788751327" y1="22.0628064596551" x2="56.2218503074789" y2="22.212657093412"/>
    <line x1="56.2218503074789" y1="22.212657093412" x2="56.5325104792588" y2="22.4510350273089"/>
    <line x1="56.5325104792588" y1="22.4510350273089" x2="56.7708884131555" y2="22.7616951990886"/>
    <line x1="56.7708884131555" y1="22.7616951990886" x2="56.9207390469126" y2="23.1234666314349"/>
    <line x1="56.9207390469126" y1="23.1234666314349" x2="56.9718503074789" y2="23.5116951990886"/>
    <line x1="56.9718503074789" y1="23.5116951990886" x2="56.9207390469126" y2="23.8999237667425"/>
    <line x1="56.9207390469126" y1="23.8999237667425" x2="56.7708884131555" y2="24.2616951990886"/>
    <line x1="56.7708884131555" y1="24.2616951990886" x2="56.5325104792588" y2="24.5723553708685"/>
    <line x1="56.5325104792588" y1="24.5723553708685" x2="56.2218503074789" y2="24.8107333047653"/>
    <line x1="56.2218503074789" y1="24.8107333047653" x2="55.8600788751327" y2="24.9605839385223"/>
    <line x1="15.3882285676538" y1="24.9605839385251" x2="15.0" y2="25.0116951990915"/>
    <line x1="15.0" y1="25.0116951990915" x2="14.6117714323462" y2="24.9605839385251"/>
    <line x1="14.6117714323462" y1="24.9605839385251" x2="14.25" y2="24.8107333047682"/>
    <line x1="14.25" y1="24.8107333047682" x2="13.9393398282202" y2="24.5723553708713"/>
    <line x1="13.9393398282202" y1="24.5723553708713" x2="13.7009618943234" y2="24.2616951990916"/>
    <line x1="13.7009618943234" y1="24.2616951990916" x2="13.5511112605664" y2="23.8999237667452"/>
    <line x1="13.5511112605664" y1="23.8999237667452" x2="13.5" y2="23.5116951990916"/>
    <line x1="13.5" y1="23.5116951990916" x2="13.5511112605664" y2="23.1234666314377"/>
    <line x1="13.5511112605664" y1="23.1234666314377" x2="13.7009618943234" y2="22.7616951990916"/>
    <line x1="13.7009618943234" y1="22.7616951990916" x2="13.9393398282202" y2="22.4510350273117"/>
    <line x1="13.9393398282202" y1="22.4510350273117" x2="14.25" y2="22.2126570934149"/>
    <line x1="14.25" y1="22.2126570934149" x2="14.6117714323462" y2="22.0628064596578"/>
    <line x1="14.6117714323462" y1="22.0628064596578" x2="15.0" y2="22.0116951990916"/>
    <line x1="15.0" y1="22.0116951990916" x2="15.3882285676538" y2="22.0628064596578"/>
    <line x1="15.3882285676538" y1="22.0628064596578" x2="15.75" y2="22.2126570934148"/>
    <line x1="15.75" y1="22.2126570934148" x2="16.0606601717798" y2="22.4510350273117"/>
    <line x1="16.0606601717798" y1="22.4510350273117" x2="16.2990381056767" y2="22.7616951990915"/>
    <line x1="16.2990381056767" y1="22.7616951990915" x2="16.4488887394336" y2="23.1234666314377"/>
    <line x1="16.4488887394336" y1="23.1234666314377" x2="16.5000000000001" y2="23.5116951990916"/>
    <line x1="16.5000000000001" y1="23.5116951990916" x2="16.4488887394336" y2="23.8999237667452"/>
    <line x1="16.4488887394336" y1="23.8999237667452" x2="16.2990381056767" y2="24.2616951990916"/>
    <line x1="16.2990381056767" y1="24.2616951990916" x2="16.0606601717798" y2="24.5723553708714"/>
    <line x1="16.0606601717798" y1="24.5723553708714" x2="15.75" y2="24.8107333047682"/>
    <line x1="15.75" y1="24.8107333047682" x2="15.3882285676538" y2="24.9605839385251"/>
  </g>
</svg>
