<?xml version="1.0" standalone="no"?>
<!DOCTYPE svg PUBLIC "-//W3C//DTD SVG 1.1//EN" "http://www.w3.org/Graphics/SVG/1.1/DTD/svg11.dtd">
<svg width="93.5mm" height="32.221975720322mm"
 viewBox="0 0 93.5 32.221975720322"
 xmlns="http://www.w3.org/2000/svg" version="1.1"
 xmlns:xlink="http://www.w3.org/1999/xlink">
<desc>Output from Flights of Ideas SVG Sketchup Plugin</desc>

  <g id="face0" fill="none" stroke="rgb(0,0,255)" stroke-width="1" stroke-miterlimit="4" stroke-dasharray="none" stroke-linejoin="round" stroke-linecap="round">
    <line x1="59.5000000000001" y1="4.00000000000017" x2="34.0" y2="4.00000000000017"/>
    <line x1="34.0" y1="4.00000000000017" x2="22.3" y2="4.00000000000017"/>
    <line x1="22.3" y1="4.00000000000017" x2="22.3" y2="1.00000000000017"/>
    <line x1="22.3" y1="1.00000000000017" x2="1.00000000000001" y2="1.0"/>
    <line x1="1.00000000000001" y1="1.0" x2="1.0" y2="28.221975720322"/>
    <line x1="1.0" y1="28.221975720322" x2="21.0" y2="28.221975720322"/>
    <line x1="21.0" y1="28.221975720322" x2="21.0" y2="31.221975720322"/>
    <line x1="21.0" y1="31.221975720322" x2="72.5" y2="31.221975720322"/>
    <line x1="72.5" y1="31.221975720322" x2="72.5" y2="28.221975720322"/>
    <line x1="72.5" y1="28.221975720322" x2="92.5" y2="28.2219757203221"/>
    <line x1="92.5" y1="28.2219757203221" x2="92.5" y2="1.00000000000017"/>
    <line x1="92.5" y1="1.00000000000017" x2="71.2499999999989" y2="1.00000000000017"/>
    <line x1="71.2499999999989" y1="1.00000000000017" x2="71.2499999999989" y2="4.00000000000017"/>
    <line x1="71.2499999999989" y1="4.00000000000017" x2="59.5000000000001" y2="4.00000000000017"/>
    <line x1="88.3882285676538" y1="11.9488887394338" x2="88.0000000000001" y2="12.0000000000001"/>
    <line x1="88.0000000000001" y1="12.0000000000001" x2="87.6117714323463" y2="11.9488887394338"/>
    <line x1="87.6117714323463" y1="11.9488887394338" x2="87.2500000000001" y2="11.7990381056769"/>
    <line x1="87.2500000000001" y1="11.7990381056769" x2="86.9393398282202" y2="11.5606601717799"/>
    <line x1="86.9393398282202" y1="11.5606601717799" x2="86.7009618943234" y2="11.2500000000002"/>
    <line x1="86.7009618943234" y1="11.2500000000002" x2="86.5511112605665" y2="10.888228567654"/>
    <line x1="86.5511112605665" y1="10.888228567654" x2="86.5000000000001" y2="10.5000000000002"/>
    <line x1="86.5000000000001" y1="10.5000000000002" x2="86.5511112605665" y2="10.1117714323464"/>
    <line x1="86.5511112605665" y1="10.1117714323464" x2="86.7009618943234" y2="9.75000000000017"/>
    <line x1="86.7009618943234" y1="9.75000000000017" x2="86.9393398282202" y2="9.43933982822034"/>
    <line x1="86.9393398282202" y1="9.43933982822034" x2="87.2500000000001" y2="9.20096189432348"/>
    <line x1="87.2500000000001" y1="9.20096189432348" x2="87.6117714323463" y2="9.05111126056653"/>
    <line x1="87.6117714323463" y1="9.05111126056653" x2="88.0000000000001" y2="9.00000000000017"/>
    <line x1="88.0000000000001" y1="9.00000000000017" x2="88.3882285676538" y2="9.05111126056659"/>
    <line x1="88.3882285676538" y1="9.05111126056659" x2="88.75" y2="9.20096189432354"/>
    <line x1="88.75" y1="9.20096189432354" x2="89.0606601717799" y2="9.43933982822034"/>
    <line x1="89.0606601717799" y1="9.43933982822034" x2="89.2990381056767" y2="9.75000000000017"/>
    <line x1="89.2990381056767" y1="9.75000000000017" x2="89.4488887394337" y2="10.1117714323464"/>
    <line x1="89.4488887394337" y1="10.1117714323464" x2="89.5" y2="10.5000000000002"/>
    <line x1="89.5" y1="10.5000000000002" x2="89.4488887394337" y2="10.8882285676539"/>
    <line x1="89.4488887394337" y1="10.8882285676539" x2="89.2990381056767" y2="11.2500000000002"/>
    <line x1="89.2990381056767" y1="11.2500000000002" x2="89.0606601717799" y2="11.5606601717799"/>
    <line x1="89.0606601717799" y1="11.5606601717799" x2="88.75" y2="11.7990381056769"/>
    <line x1="88.75" y1="11.7990381056769" x2="88.3882285676538" y2="11.9488887394338"/>
    <line x1="5.88822856765377" y1="11.9488887394338" x2="5.50000000000006" y2="12.0000000000002"/>
    <line x1="5.50000000000006" y1="12.0000000000002" x2="5.11177143234626" y2="11.9488887394338"/>
    <line x1="5.11177143234626" y1="11.9488887394338" x2="4.75000000000004" y2="11.7990381056769"/>
    <line x1="4.75000000000004" y1="11.7990381056769" x2="4.43933982822017" y2="11.56066017178"/>
    <line x1="4.43933982822017" y1="11.56066017178" x2="4.20096189432338" y2="11.2500000000002"/>
    <line x1="4.20096189432338" y1="11.2500000000002" x2="4.05111126056646" y2="10.8882285676539"/>
    <line x1="4.05111126056646" y1="10.8882285676539" x2="4.00000000000004" y2="10.5000000000001"/>
    <line x1="4.00000000000004" y1="10.5000000000001" x2="4.05111126056646" y2="10.1117714323464"/>
    <line x1="4.05111126056646" y1="10.1117714323464" x2="4.20096189432338" y2="9.75000000000017"/>
    <line x1="4.20096189432338" y1="9.75000000000017" x2="4.43933982822017" y2="9.43933982822034"/>
    <line x1="4.43933982822017" y1="9.43933982822034" x2="4.75000000000004" y2="9.20096189432343"/>
    <line x1="4.75000000000004" y1="9.20096189432343" x2="5.11177143234626" y2="9.05111126056647"/>
    <line x1="5.11177143234626" y1="9.05111126056647" x2="5.50000000000006" y2="9.00000000000017"/>
    <line x1="5.50000000000006" y1="9.00000000000017" x2="5.88822856765385" y2="9.05111126056647"/>
    <line x1="5.88822856765385" y1="9.05111126056647" x2="6.25000000000007" y2="9.20096189432348"/>
    <line x1="6.25000000000007" y1="9.20096189432348" x2="6.56066017177986" y2="9.43933982822034"/>
    <line x1="6.56066017177986" y1="9.43933982822034" x2="6.79903810567669" y2="9.75000000000023"/>
    <line x1="6.79903810567669" y1="9.75000000000023" x2="6.94888873943361" y2="10.1117714323464"/>
    <line x1="6.94888873943361" y1="10.1117714323464" x2="7.00000000000003" y2="10.5000000000002"/>
    <line x1="7.00000000000003" y1="10.5000000000002" x2="6.94888873943361" y2="10.8882285676539"/>
    <line x1="6.94888873943361" y1="10.8882285676539" x2="6.79903810567669" y2="11.2500000000002"/>
    <line x1="6.79903810567669" y1="11.2500000000002" x2="6.56066017177986" y2="11.5606601717799"/>
    <line x1="6.56066017177986" y1="11.5606601717799" x2="6.25000000000007" y2="11.7990381056769"/>
    <line x1="6.25000000000007" y1="11.7990381056769" x2="5.88822856765377" y2="11.9488887394338"/>
    <line x1="7.00000000000003" y1="23.221975720322" x2="4.00000000000004" y2="23.221975720322"/>
    <line x1="4.00000000000004" y1="23.221975720322" x2="4.00000000000004" y2="18.2219757203221"/>
    <line x1="4.00000000000004" y1="18.2219757203221" x2="7.00000000000003" y2="18.221975720322"/>
    <line x1="7.00000000000003" y1="18.221975720322" x2="7.00000000000003" y2="23.221975720322"/>
    <line x1="89.5" y1="18.221975720322" x2="89.5" y2="23.221975720322"/>
    <line x1="89.5" y1="23.221975720322" x2="86.5000000000001" y2="23.221975720322"/>
    <line x1="86.5000000000001" y1="23.221975720322" x2="86.5000000000001" y2="18.221975720322"/>
    <line x1="86.5000000000001" y1="18.221975720322" x2="89.5" y2="18.221975720322"/>
  </g>
</svg>
