<?xml version="1.0" standalone="no"?>
<!DOCTYPE svg PUBLIC "-//W3C//DTD SVG 1.1//EN" "http://www.w3.org/Graphics/SVG/1.1/DTD/svg11.dtd">
<svg width="111.5mm" height="68.3000000000002mm"
 viewBox="0 0 111.5 68.3000000000002"
 xmlns="http://www.w3.org/2000/svg" version="1.1"
 xmlns:xlink="http://www.w3.org/1999/xlink">
<desc>Output from Flights of Ideas SVG Sketchup Plugin</desc>

  <g id="face0" fill="none" stroke="rgb(0,0,255)" stroke-width="1" stroke-miterlimit="4" stroke-dasharray="none" stroke-linejoin="round" stroke-linecap="round">
    <line x1="76.5" y1="13.0000000000001" x2="57.25" y2="13.0000000000001"/>
    <line x1="57.25" y1="13.0000000000001" x2="57.25" y2="15.0000000000001"/>
    <line x1="57.25" y1="15.0000000000001" x2="58.55" y2="15.0"/>
    <line x1="58.55" y1="15.0" x2="58.55" y2="17.2"/>
    <line x1="58.55" y1="17.2" x2="57.25" y2="17.2"/>
    <line x1="57.25" y1="17.2" x2="57.25" y2="20.2000000000001"/>
    <line x1="57.25" y1="20.2000000000001" x2="54.25" y2="20.2000000000001"/>
    <line x1="54.25" y1="20.2000000000001" x2="54.25" y2="17.2"/>
    <line x1="54.25" y1="17.2" x2="52.95" y2="17.2"/>
    <line x1="52.95" y1="17.2" x2="52.95" y2="15.0000000000001"/>
    <line x1="52.95" y1="15.0000000000001" x2="54.25" y2="15.0000000000001"/>
    <line x1="54.25" y1="15.0000000000001" x2="54.25" y2="13.0000000000001"/>
    <line x1="54.25" y1="13.0000000000001" x2="35.0" y2="13.0000000000001"/>
    <line x1="35.0" y1="13.0000000000001" x2="35.0" y2="10.0"/>
    <line x1="35.0" y1="10.0" x2="15.0" y2="10.0000000000001"/>
    <line x1="15.0" y1="10.0000000000001" x2="15.0" y2="13.0000000000001"/>
    <line x1="15.0" y1="13.0000000000001" x2="10.0" y2="13.0000000000001"/>
    <line x1="10.0" y1="13.0000000000001" x2="10.0" y2="55.3000000000001"/>
    <line x1="10.0" y1="55.3000000000001" x2="15.0" y2="55.3000000000001"/>
    <line x1="15.0" y1="55.3000000000001" x2="15.0" y2="58.3000000000002"/>
    <line x1="15.0" y1="58.3000000000002" x2="19.9999999999999" y2="58.3000000000002"/>
    <line x1="19.9999999999999" y1="58.3000000000002" x2="19.9999999999999" y2="55.3000000000001"/>
    <line x1="19.9999999999999" y1="55.3000000000001" x2="33.4499999999924" y2="55.3000000000001"/>
    <line x1="33.4499999999924" y1="55.3000000000001" x2="33.4499999999924" y2="40.1000000000002"/>
    <line x1="33.4499999999924" y1="40.1000000000002" x2="46.4499999999924" y2="40.1000000000002"/>
    <line x1="46.4499999999924" y1="40.1000000000002" x2="46.4499999999924" y2="55.3000000000001"/>
    <line x1="46.4499999999924" y1="55.3000000000001" x2="75.4999999999911" y2="55.3000000000001"/>
    <line x1="75.4999999999911" y1="55.3000000000001" x2="75.4999999999911" y2="58.3000000000001"/>
    <line x1="75.4999999999911" y1="58.3000000000001" x2="95.4999999999911" y2="58.3000000000002"/>
    <line x1="95.4999999999911" y1="58.3000000000002" x2="95.499999999991" y2="55.3000000000001"/>
    <line x1="95.499999999991" y1="55.3000000000001" x2="96.4999999999999" y2="55.3000000000001"/>
    <line x1="96.4999999999999" y1="55.3000000000001" x2="101.5" y2="55.3000000000001"/>
    <line x1="101.5" y1="55.3000000000001" x2="101.5" y2="13.0000000000001"/>
    <line x1="101.5" y1="13.0000000000001" x2="96.4999999999999" y2="13.0000000000001"/>
    <line x1="96.4999999999999" y1="13.0000000000001" x2="96.5" y2="10.0000000000001"/>
    <line x1="96.5" y1="10.0000000000001" x2="76.5" y2="10.0000000000001"/>
    <line x1="76.5" y1="10.0000000000001" x2="76.5" y2="13.0000000000001"/>
    <line x1="93.5" y1="41.6000000000002" x2="93.4999999999999" y2="52.3000000000002"/>
    <line x1="93.4999999999999" y1="52.3000000000002" x2="84.4999999999999" y2="52.3000000000002"/>
    <line x1="84.4999999999999" y1="52.3000000000002" x2="84.4999999999999" y2="41.6000000000002"/>
    <line x1="84.4999999999999" y1="41.6000000000002" x2="93.5" y2="41.6000000000002"/>
    <line x1="16.0" y1="28.0000000000002" x2="13.0" y2="28.0000000000002"/>
    <line x1="13.0" y1="28.0000000000002" x2="13.0" y2="18.0000000000003"/>
    <line x1="13.0" y1="18.0000000000003" x2="16.0" y2="18.0000000000003"/>
    <line x1="16.0" y1="18.0000000000003" x2="16.0" y2="28.0000000000002"/>
    <line x1="95.4999999999911" y1="18.0000000000001" x2="98.499999999991" y2="18.0000000000001"/>
    <line x1="98.499999999991" y1="18.0000000000001" x2="98.499999999991" y2="28.0000000000001"/>
    <line x1="98.499999999991" y1="28.0000000000001" x2="95.499999999991" y2="28.0000000000001"/>
    <line x1="95.499999999991" y1="28.0000000000001" x2="95.4999999999911" y2="18.0000000000001"/>
  </g>
</svg>
