<?xml version="1.0" standalone="no"?>
<!DOCTYPE svg PUBLIC "-//W3C//DTD SVG 1.1//EN" "http://www.w3.org/Graphics/SVG/1.1/DTD/svg11.dtd">
<svg width="111.5mm" height="65.3000000000001mm"
 viewBox="0 0 111.5 65.3000000000001"
 xmlns="http://www.w3.org/2000/svg" version="1.1"
 xmlns:xlink="http://www.w3.org/1999/xlink">
<desc>Output from Flights of Ideas SVG Sketchup Plugin</desc>

  <g id="face0" fill="none" stroke="rgb(0,0,255)" stroke-width="1" stroke-miterlimit="4" stroke-dasharray="none" stroke-linejoin="round" stroke-linecap="round">
    <line x1="90.5" y1="55.3000000000001" x2="101.5" y2="55.3000000000001"/>
    <line x1="101.5" y1="55.3000000000001" x2="101.5" y2="13.0"/>
    <line x1="101.5" y1="13.0" x2="81.5000000000001" y2="13.0"/>
    <line x1="81.5000000000001" y1="13.0" x2="81.5000000000001" y2="10.0"/>
    <line x1="81.5000000000001" y1="10.0" x2="61.5000000000001" y2="10.0"/>
    <line x1="61.5000000000001" y1="10.0" x2="61.5000000000001" y2="13.0"/>
    <line x1="61.5000000000001" y1="13.0" x2="10.0" y2="13.0"/>
    <line x1="10.0" y1="13.0" x2="10.0" y2="55.3000000000001"/>
    <line x1="10.0" y1="55.3000000000001" x2="21.0" y2="55.3000000000001"/>
    <line x1="21.0" y1="55.3000000000001" x2="21.0" y2="53.2999999999998"/>
    <line x1="21.0" y1="53.2999999999998" x2="19.8" y2="53.3000000000002"/>
    <line x1="19.8" y1="53.3000000000002" x2="19.8" y2="51.1000000000002"/>
    <line x1="19.8" y1="51.1000000000002" x2="21.1" y2="51.1000000000001"/>
    <line x1="21.1" y1="51.1000000000001" x2="21.1" y2="48.1000000000001"/>
    <line x1="21.1" y1="48.1000000000001" x2="24.1" y2="48.1000000000001"/>
    <line x1="24.1" y1="48.1000000000001" x2="24.1" y2="51.1"/>
    <line x1="24.1" y1="51.1" x2="25.4" y2="51.1"/>
    <line x1="25.4" y1="51.1" x2="25.4" y2="53.3000000000001"/>
    <line x1="25.4" y1="53.3000000000001" x2="24.1" y2="53.3000000000002"/>
    <line x1="24.1" y1="53.3000000000002" x2="24.1" y2="55.3000000000001"/>
    <line x1="24.1" y1="55.3000000000001" x2="87.4" y2="55.3000000000001"/>
    <line x1="87.4" y1="55.3000000000001" x2="87.4" y2="53.3000000000001"/>
    <line x1="87.4" y1="53.3000000000001" x2="86.2" y2="53.3000000000001"/>
    <line x1="86.2" y1="53.3000000000001" x2="86.2" y2="51.1000000000001"/>
    <line x1="86.2" y1="51.1000000000001" x2="87.5" y2="51.1000000000001"/>
    <line x1="87.5" y1="51.1000000000001" x2="87.5" y2="48.1000000000001"/>
    <line x1="87.5" y1="48.1000000000001" x2="90.5" y2="48.1000000000001"/>
    <line x1="90.5" y1="48.1000000000001" x2="90.5" y2="51.1000000000001"/>
    <line x1="90.5" y1="51.1000000000001" x2="91.8" y2="51.1000000000001"/>
    <line x1="91.8" y1="51.1000000000001" x2="91.8" y2="53.3000000000001"/>
    <line x1="91.8" y1="53.3000000000001" x2="90.5" y2="53.3000000000001"/>
    <line x1="90.5" y1="53.3000000000001" x2="90.5" y2="55.3000000000001"/>
    <line x1="14.875" y1="20.8995190528383" x2="14.5" y2="20.9488887394336"/>
    <line x1="14.5" y1="20.9488887394336" x2="14.125" y2="20.8995190528383"/>
    <line x1="14.125" y1="20.8995190528383" x2="13.7755556302832" y2="20.7547744556067"/>
    <line x1="13.7755556302832" y1="20.7547744556067" x2="13.4754809471616" y2="20.5245190528383"/>
    <line x1="13.4754809471616" y1="20.5245190528383" x2="13.2452255443933" y2="20.2244443697168"/>
    <line x1="13.2452255443933" y1="20.2244443697168" x2="13.1004809471617" y2="19.875"/>
    <line x1="13.1004809471617" y1="19.875" x2="13.0511112605664" y2="19.5"/>
    <line x1="13.0511112605664" y1="19.5" x2="13.1004809471617" y2="19.125"/>
    <line x1="13.1004809471617" y1="19.125" x2="13.2452255443933" y2="18.7755556302832"/>
    <line x1="13.2452255443933" y1="18.7755556302832" x2="13.4754809471616" y2="18.4754809471617"/>
    <line x1="13.4754809471616" y1="18.4754809471617" x2="13.7755556302832" y2="18.2452255443933"/>
    <line x1="13.7755556302832" y1="18.2452255443933" x2="14.125" y2="18.1004809471616"/>
    <line x1="14.125" y1="18.1004809471616" x2="14.5" y2="18.0511112605664"/>
    <line x1="14.5" y1="18.0511112605664" x2="14.875" y2="18.1004809471616"/>
    <line x1="14.875" y1="18.1004809471616" x2="15.2244443697168" y2="18.2452255443933"/>
    <line x1="15.2244443697168" y1="18.2452255443933" x2="15.5245190528383" y2="18.4754809471617"/>
    <line x1="15.5245190528383" y1="18.4754809471617" x2="15.7547744556067" y2="18.7755556302832"/>
    <line x1="15.7547744556067" y1="18.7755556302832" x2="15.8995190528383" y2="19.125"/>
    <line x1="15.8995190528383" y1="19.125" x2="15.9488887394336" y2="19.5"/>
    <line x1="15.9488887394336" y1="19.5" x2="15.8995190528383" y2="19.875"/>
    <line x1="15.8995190528383" y1="19.875" x2="15.7547744556067" y2="20.2244443697168"/>
    <line x1="15.7547744556067" y1="20.2244443697168" x2="15.5245190528383" y2="20.5245190528383"/>
    <line x1="15.5245190528383" y1="20.5245190528383" x2="15.2244443697168" y2="20.7547744556067"/>
    <line x1="15.2244443697168" y1="20.7547744556067" x2="14.875" y2="20.8995190528383"/>
    <line x1="14.1117714323462" y1="47.3511112605664" x2="14.5" y2="47.3"/>
    <line x1="14.5" y1="47.3" x2="14.8882285676538" y2="47.3511112605662"/>
    <line x1="14.8882285676538" y1="47.3511112605662" x2="15.25" y2="47.5009618943233"/>
    <line x1="15.25" y1="47.5009618943233" x2="15.5606601717798" y2="47.7393398282201"/>
    <line x1="15.5606601717798" y1="47.7393398282201" x2="15.7990381056766" y2="48.05"/>
    <line x1="15.7990381056766" y1="48.05" x2="15.9488887394336" y2="48.4117714323462"/>
    <line x1="15.9488887394336" y1="48.4117714323462" x2="16.0" y2="48.8000000000001"/>
    <line x1="16.0" y1="48.8000000000001" x2="15.9488887394336" y2="49.1882285676537"/>
    <line x1="15.9488887394336" y1="49.1882285676537" x2="15.7990381056766" y2="49.55"/>
    <line x1="15.7990381056766" y1="49.55" x2="15.5606601717798" y2="49.8606601717797"/>
    <line x1="15.5606601717798" y1="49.8606601717797" x2="15.25" y2="50.0990381056765"/>
    <line x1="15.25" y1="50.0990381056765" x2="14.8882285676538" y2="50.2488887394335"/>
    <line x1="14.8882285676538" y1="50.2488887394335" x2="14.5" y2="50.2999999999999"/>
    <line x1="14.5" y1="50.2999999999999" x2="14.1117714323462" y2="50.2488887394336"/>
    <line x1="14.1117714323462" y1="50.2488887394336" x2="13.75" y2="50.0990381056765"/>
    <line x1="13.75" y1="50.0990381056765" x2="13.4393398282202" y2="49.8606601717799"/>
    <line x1="13.4393398282202" y1="49.8606601717799" x2="13.2009618943233" y2="49.5499999999999"/>
    <line x1="13.2009618943233" y1="49.5499999999999" x2="13.0511112605664" y2="49.1882285676538"/>
    <line x1="13.0511112605664" y1="49.1882285676538" x2="13.0" y2="48.7999999999998"/>
    <line x1="13.0" y1="48.7999999999998" x2="13.0511112605664" y2="48.4117714323463"/>
    <line x1="13.0511112605664" y1="48.4117714323463" x2="13.2009618943233" y2="48.05"/>
    <line x1="13.2009618943233" y1="48.05" x2="13.4393398282202" y2="47.7393398282203"/>
    <line x1="13.4393398282202" y1="47.7393398282203" x2="13.75" y2="47.5009618943233"/>
    <line x1="13.75" y1="47.5009618943233" x2="14.1117714323462" y2="47.3511112605664"/>
    <line x1="95.9393398282112" y1="20.5606601717797" x2="95.7009618943144" y2="20.2499999999999"/>
    <line x1="95.7009618943144" y1="20.2499999999999" x2="95.5511112605574" y2="19.8882285676537"/>
    <line x1="95.5511112605574" y1="19.8882285676537" x2="95.499999999991" y2="19.4999999999999"/>
    <line x1="95.499999999991" y1="19.4999999999999" x2="95.5511112605574" y2="19.1117714323461"/>
    <line x1="95.5511112605574" y1="19.1117714323461" x2="95.7009618943144" y2="18.7499999999999"/>
    <line x1="95.7009618943144" y1="18.7499999999999" x2="95.9393398282112" y2="18.4393398282201"/>
    <line x1="95.9393398282112" y1="18.4393398282201" x2="96.249999999991" y2="18.2009618943233"/>
    <line x1="96.249999999991" y1="18.2009618943233" x2="96.6117714323372" y2="18.0511112605663"/>
    <line x1="96.6117714323372" y1="18.0511112605663" x2="96.999999999991" y2="17.9999999999999"/>
    <line x1="96.999999999991" y1="17.9999999999999" x2="97.3882285676448" y2="18.0511112605663"/>
    <line x1="97.3882285676448" y1="18.0511112605663" x2="97.749999999991" y2="18.2009618943233"/>
    <line x1="97.749999999991" y1="18.2009618943233" x2="98.0606601717708" y2="18.4393398282201"/>
    <line x1="98.0606601717708" y1="18.4393398282201" x2="98.2990381056677" y2="18.7499999999999"/>
    <line x1="98.2990381056677" y1="18.7499999999999" x2="98.4488887394246" y2="19.1117714323461"/>
    <line x1="98.4488887394246" y1="19.1117714323461" x2="98.499999999991" y2="19.4999999999999"/>
    <line x1="98.499999999991" y1="19.4999999999999" x2="98.4488887394246" y2="19.8882285676537"/>
    <line x1="98.4488887394246" y1="19.8882285676537" x2="98.2990381056677" y2="20.2499999999999"/>
    <line x1="98.2990381056677" y1="20.2499999999999" x2="98.0606601717708" y2="20.5606601717797"/>
    <line x1="98.0606601717708" y1="20.5606601717797" x2="97.749999999991" y2="20.7990381056765"/>
    <line x1="97.749999999991" y1="20.7990381056765" x2="97.3882285676448" y2="20.9488887394335"/>
    <line x1="97.3882285676448" y1="20.9488887394335" x2="96.999999999991" y2="20.9999999999999"/>
    <line x1="96.999999999991" y1="20.9999999999999" x2="96.6117714323372" y2="20.9488887394335"/>
    <line x1="96.6117714323372" y1="20.9488887394335" x2="96.249999999991" y2="20.7990381056765"/>
    <line x1="96.249999999991" y1="20.7990381056765" x2="95.9393398282112" y2="20.5606601717797"/>
    <line x1="98.499999999991" y1="48.7999999999999" x2="98.4488887394246" y2="49.1882285676537"/>
    <line x1="98.4488887394246" y1="49.1882285676537" x2="98.2990381056677" y2="49.5499999999999"/>
    <line x1="98.2990381056677" y1="49.5499999999999" x2="98.0606601717708" y2="49.8606601717797"/>
    <line x1="98.0606601717708" y1="49.8606601717797" x2="97.749999999991" y2="50.0990381056766"/>
    <line x1="97.749999999991" y1="50.0990381056766" x2="97.3882285676448" y2="50.2488887394335"/>
    <line x1="97.3882285676448" y1="50.2488887394335" x2="96.999999999991" y2="50.2999999999999"/>
    <line x1="96.999999999991" y1="50.2999999999999" x2="96.6117714323372" y2="50.2488887394335"/>
    <line x1="96.6117714323372" y1="50.2488887394335" x2="96.249999999991" y2="50.0990381056766"/>
    <line x1="96.249999999991" y1="50.0990381056766" x2="95.9393398282112" y2="49.8606601717797"/>
    <line x1="95.9393398282112" y1="49.8606601717797" x2="95.7009618943144" y2="49.5499999999999"/>
    <line x1="95.7009618943144" y1="49.5499999999999" x2="95.5511112605574" y2="49.1882285676537"/>
    <line x1="95.5511112605574" y1="49.1882285676537" x2="95.499999999991" y2="48.7999999999999"/>
    <line x1="95.499999999991" y1="48.7999999999999" x2="95.5511112605574" y2="48.4117714323461"/>
    <line x1="95.5511112605574" y1="48.4117714323461" x2="95.7009618943144" y2="48.0499999999999"/>
    <line x1="95.7009618943144" y1="48.0499999999999" x2="95.9393398282112" y2="47.73933982822"/>
    <line x1="95.9393398282112" y1="47.73933982822" x2="96.249999999991" y2="47.5009618943232"/>
    <line x1="96.249999999991" y1="47.5009618943232" x2="96.6117714323372" y2="47.3511112605663"/>
    <line x1="96.6117714323372" y1="47.3511112605663" x2="96.999999999991" y2="47.2999999999999"/>
    <line x1="96.999999999991" y1="47.2999999999999" x2="97.3882285676448" y2="47.3511112605663"/>
    <line x1="97.3882285676448" y1="47.3511112605663" x2="97.749999999991" y2="47.5009618943232"/>
    <line x1="97.749999999991" y1="47.5009618943232" x2="98.0606601717708" y2="47.73933982822"/>
    <line x1="98.0606601717708" y1="47.73933982822" x2="98.2990381056677" y2="48.0499999999999"/>
    <line x1="98.2990381056677" y1="48.0499999999999" x2="98.4488887394246" y2="48.4117714323461"/>
    <line x1="98.4488887394246" y1="48.4117714323461" x2="98.499999999991" y2="48.7999999999999"/>
    <line x1="24.8777781514045" y1="33.5399358966939" x2="25.0140748462479" y2="34.5752120771011"/>
    <line x1="25.0140748462479" y1="34.5752120771011" x2="24.8777781514038" y2="35.6104882575141"/>
    <line x1="24.8777781514038" y1="35.6104882575141" x2="24.4781764613849" y2="36.5752120771039"/>
    <line x1="24.4781764613849" y1="36.5752120771039" x2="23.842501970993" y2="37.4036392018498"/>
    <line x1="23.842501970993" y1="37.4036392018498" x2="23.0140748462466" y2="38.0393136922411"/>
    <line x1="23.0140748462466" y1="38.0393136922411" x2="22.0493510266565" y2="38.4389153822592"/>
    <line x1="22.0493510266565" y1="38.4389153822592" x2="21.0140748462464" y2="38.5752120771026"/>
    <line x1="21.0140748462464" y1="38.5752120771026" x2="19.9787986658363" y2="38.4389153822584"/>
    <line x1="19.9787986658363" y1="38.4389153822584" x2="19.0140748462466" y2="38.0393136922396"/>
    <line x1="19.0140748462466" y1="38.0393136922396" x2="18.1856477215006" y2="37.4036392018478"/>
    <line x1="18.1856477215006" y1="37.4036392018478" x2="17.5499732311094" y2="36.5752120771013"/>
    <line x1="17.5499732311094" y1="36.5752120771013" x2="17.1503715410912" y2="35.6104882575112"/>
    <line x1="17.1503715410912" y1="35.6104882575112" x2="17.0140748462479" y2="34.5752120771011"/>
    <line x1="17.0140748462479" y1="34.5752120771011" x2="17.150371541092" y2="33.539935896691"/>
    <line x1="17.150371541092" y1="33.539935896691" x2="17.5499732311109" y2="32.5752120771013"/>
    <line x1="17.5499732311109" y1="32.5752120771013" x2="18.1856477215027" y2="31.7467849523554"/>
    <line x1="18.1856477215027" y1="31.7467849523554" x2="19.0140748462491" y2="31.1111104619641"/>
    <line x1="19.0140748462491" y1="31.1111104619641" x2="19.9787986658392" y2="30.7115087719459"/>
    <line x1="19.9787986658392" y1="30.7115087719459" x2="21.0140748462493" y2="30.5752120771026"/>
    <line x1="21.0140748462493" y1="30.5752120771026" x2="22.0493510266594" y2="30.7115087719467"/>
    <line x1="22.0493510266594" y1="30.7115087719467" x2="23.0140748462491" y2="31.1111104619656"/>
    <line x1="23.0140748462491" y1="31.1111104619656" x2="23.8425019709951" y2="31.7467849523575"/>
    <line x1="23.8425019709951" y1="31.7467849523575" x2="24.4781764613864" y2="32.5752120771039"/>
    <line x1="24.4781764613864" y1="32.5752120771039" x2="24.8777781514045" y2="33.5399358966939"/>
    <line x1="94.349628458884" y1="33.539935896691" x2="94.4859251537277" y2="34.5752120771011"/>
    <line x1="94.4859251537277" y1="34.5752120771011" x2="94.349628458884" y2="35.6104882575112"/>
    <line x1="94.349628458884" y1="35.6104882575112" x2="93.9500267688655" y2="36.5752120771011"/>
    <line x1="93.9500267688655" y1="36.5752120771011" x2="93.3143522784739" y2="37.4036392018473"/>
    <line x1="93.3143522784739" y1="37.4036392018473" x2="92.4859251537277" y2="38.0393136922389"/>
    <line x1="92.4859251537277" y1="38.0393136922389" x2="91.5212013341378" y2="38.4389153822574"/>
    <line x1="91.5212013341378" y1="38.4389153822574" x2="90.4859251537277" y2="38.5752120771011"/>
    <line x1="90.4859251537277" y1="38.5752120771011" x2="89.4506489733176" y2="38.4389153822574"/>
    <line x1="89.4506489733176" y1="38.4389153822574" x2="88.4859251537277" y2="38.0393136922389"/>
    <line x1="88.4859251537277" y1="38.0393136922389" x2="87.6574980289815" y2="37.4036392018473"/>
    <line x1="87.6574980289815" y1="37.4036392018473" x2="87.02182353859" y2="36.5752120771011"/>
    <line x1="87.02182353859" y1="36.5752120771011" x2="86.6222218485715" y2="35.6104882575112"/>
    <line x1="86.6222218485715" y1="35.6104882575112" x2="86.4859251537277" y2="34.5752120771011"/>
    <line x1="86.4859251537277" y1="34.5752120771011" x2="86.6222218485715" y2="33.539935896691"/>
    <line x1="86.6222218485715" y1="33.539935896691" x2="87.02182353859" y2="32.5752120771011"/>
    <line x1="87.02182353859" y1="32.5752120771011" x2="87.6574980289815" y2="31.7467849523549"/>
    <line x1="87.6574980289815" y1="31.7467849523549" x2="88.4859251537277" y2="31.1111104619634"/>
    <line x1="88.4859251537277" y1="31.1111104619634" x2="89.4506489733177" y2="30.7115087719448"/>
    <line x1="89.4506489733177" y1="30.7115087719448" x2="90.4859251537277" y2="30.5752120771011"/>
    <line x1="90.4859251537277" y1="30.5752120771011" x2="91.5212013341378" y2="30.7115087719448"/>
    <line x1="91.5212013341378" y1="30.7115087719448" x2="92.4859251537277" y2="31.1111104619634"/>
    <line x1="92.4859251537277" y1="31.1111104619634" x2="93.3143522784739" y2="31.7467849523549"/>
    <line x1="93.3143522784739" y1="31.7467849523549" x2="93.9500267688655" y2="32.5752120771011"/>
    <line x1="93.9500267688655" y1="32.5752120771011" x2="94.349628458884" y2="33.539935896691"/>
    <line x1="54.9735428646926" y1="31.2522225211328" x2="55.7500000000001" y2="31.15"/>
    <line x1="55.7500000000001" y1="31.15" x2="56.5264571353077" y2="31.2522225211328"/>
    <line x1="56.5264571353077" y1="31.2522225211328" x2="57.2500000000001" y2="31.5519237886467"/>
    <line x1="57.2500000000001" y1="31.5519237886467" x2="57.8713203435598" y2="32.0286796564403"/>
    <line x1="57.8713203435598" y1="32.0286796564403" x2="58.3480762113534" y2="32.65"/>
    <line x1="58.3480762113534" y1="32.65" x2="58.6477774788673" y2="33.3735428646924"/>
    <line x1="58.6477774788673" y1="33.3735428646924" x2="58.7500000000001" y2="34.15"/>
    <line x1="58.7500000000001" y1="34.15" x2="58.6477774788673" y2="34.9264571353075"/>
    <line x1="58.6477774788673" y1="34.9264571353075" x2="58.3480762113534" y2="35.6499999999999"/>
    <line x1="58.3480762113534" y1="35.6499999999999" x2="57.8713203435597" y2="36.2713203435596"/>
    <line x1="57.8713203435597" y1="36.2713203435596" x2="57.2500000000001" y2="36.7480762113533"/>
    <line x1="57.2500000000001" y1="36.7480762113533" x2="56.5264571353077" y2="37.0477774788672"/>
    <line x1="56.5264571353077" y1="37.0477774788672" x2="55.7500000000001" y2="37.15"/>
    <line x1="55.7500000000001" y1="37.15" x2="54.9735428646926" y2="37.0477774788672"/>
    <line x1="54.9735428646926" y1="37.0477774788672" x2="54.2500000000001" y2="36.7480762113533"/>
    <line x1="54.2500000000001" y1="36.7480762113533" x2="53.6286796564405" y2="36.2713203435596"/>
    <line x1="53.6286796564405" y1="36.2713203435596" x2="53.1519237886468" y2="35.65"/>
    <line x1="53.1519237886468" y1="35.65" x2="52.8522225211329" y2="34.9264571353075"/>
    <line x1="52.8522225211329" y1="34.9264571353075" x2="52.7500000000001" y2="34.15"/>
    <line x1="52.7500000000001" y1="34.15" x2="52.8522225211329" y2="33.3735428646924"/>
    <line x1="52.8522225211329" y1="33.3735428646924" x2="53.1519237886468" y2="32.65"/>
    <line x1="53.1519237886468" y1="32.65" x2="53.6286796564405" y2="32.0286796564403"/>
    <line x1="53.6286796564405" y1="32.0286796564403" x2="54.2500000000001" y2="31.5519237886467"/>
    <line x1="54.2500000000001" y1="31.5519237886467" x2="54.9735428646926" y2="31.2522225211328"/>
    <line x1="40.7676380901941" y1="16.718148347422" x2="41.2499999999891" y2="16.9179491924313"/>
    <line x1="41.2499999999891" y1="16.9179491924313" x2="41.6642135623622" y2="17.2357864376271"/>
    <line x1="41.6642135623622" y1="17.2357864376271" x2="41.982050807558" y2="17.6500000000001"/>
    <line x1="41.982050807558" y1="17.6500000000001" x2="42.1818516525672" y2="18.1323619097952"/>
    <line x1="42.1818516525672" y1="18.1323619097952" x2="42.2499999999891" y2="18.6500000000002"/>
    <line x1="42.2499999999891" y1="18.6500000000002" x2="42.1818516525672" y2="19.1676380902052"/>
    <line x1="42.1818516525672" y1="19.1676380902052" x2="41.982050807558" y2="19.6500000000002"/>
    <line x1="41.982050807558" y1="19.6500000000002" x2="41.6642135623622" y2="20.0642135623733"/>
    <line x1="41.6642135623622" y1="20.0642135623733" x2="41.2499999999891" y2="20.382050807569"/>
    <line x1="41.2499999999891" y1="20.382050807569" x2="40.7676380901941" y2="20.5818516525783"/>
    <line x1="40.7676380901941" y1="20.5818516525783" x2="40.2499999999891" y2="20.6500000000002"/>
    <line x1="40.2499999999891" y1="20.6500000000002" x2="39.7323619097841" y2="20.5818516525783"/>
    <line x1="39.7323619097841" y1="20.5818516525783" x2="39.2499999999891" y2="20.3820508075691"/>
    <line x1="39.2499999999891" y1="20.3820508075691" x2="38.835786437616" y2="20.0642135623733"/>
    <line x1="38.835786437616" y1="20.0642135623733" x2="38.5179491924202" y2="19.6500000000002"/>
    <line x1="38.5179491924202" y1="19.6500000000002" x2="38.3181483474109" y2="19.1676380902052"/>
    <line x1="38.3181483474109" y1="19.1676380902052" x2="38.2499999999891" y2="18.6500000000002"/>
    <line x1="38.2499999999891" y1="18.6500000000002" x2="38.3181483474109" y2="18.1323619097952"/>
    <line x1="38.3181483474109" y1="18.1323619097952" x2="38.5179491924202" y2="17.6500000000002"/>
    <line x1="38.5179491924202" y1="17.6500000000002" x2="38.835786437616" y2="17.2357864376271"/>
    <line x1="38.835786437616" y1="17.2357864376271" x2="39.2499999999891" y2="16.9179491924313"/>
    <line x1="39.2499999999891" y1="16.9179491924313" x2="39.7323619097841" y2="16.718148347422"/>
    <line x1="39.7323619097841" y1="16.718148347422" x2="40.2499999999891" y2="16.6500000000002"/>
    <line x1="40.2499999999891" y1="16.6500000000002" x2="40.7676380901941" y2="16.718148347422"/>
    <line x1="40.2499999999891" y1="47.6500000000002" x2="40.7676380901941" y2="47.718148347422"/>
    <line x1="40.7676380901941" y1="47.718148347422" x2="41.2499999999891" y2="47.9179491924313"/>
    <line x1="41.2499999999891" y1="47.9179491924313" x2="41.6642135623622" y2="48.2357864376271"/>
    <line x1="41.6642135623622" y1="48.2357864376271" x2="41.982050807558" y2="48.6500000000002"/>
    <line x1="41.982050807558" y1="48.6500000000002" x2="42.1818516525672" y2="49.1323619097951"/>
    <line x1="42.1818516525672" y1="49.1323619097951" x2="42.2499999999891" y2="49.6500000000001"/>
    <line x1="42.2499999999891" y1="49.6500000000001" x2="42.1818516525672" y2="50.1676380902053"/>
    <line x1="42.1818516525672" y1="50.1676380902053" x2="41.982050807558" y2="50.6500000000002"/>
    <line x1="41.982050807558" y1="50.6500000000002" x2="41.6642135623622" y2="51.0642135623733"/>
    <line x1="41.6642135623622" y1="51.0642135623733" x2="41.2499999999891" y2="51.3820508075691"/>
    <line x1="41.2499999999891" y1="51.3820508075691" x2="40.7676380901941" y2="51.5818516525782"/>
    <line x1="40.7676380901941" y1="51.5818516525782" x2="40.2499999999891" y2="51.6500000000002"/>
    <line x1="40.2499999999891" y1="51.6500000000002" x2="39.732361909784" y2="51.5818516525784"/>
    <line x1="39.732361909784" y1="51.5818516525784" x2="39.2499999999891" y2="51.3820508075691"/>
    <line x1="39.2499999999891" y1="51.3820508075691" x2="38.835786437616" y2="51.0642135623733"/>
    <line x1="38.835786437616" y1="51.0642135623733" x2="38.5179491924202" y2="50.6500000000002"/>
    <line x1="38.5179491924202" y1="50.6500000000002" x2="38.318148347411" y2="50.1676380902051"/>
    <line x1="38.318148347411" y1="50.1676380902051" x2="38.2499999999891" y2="49.6500000000001"/>
    <line x1="38.2499999999891" y1="49.6500000000001" x2="38.318148347411" y2="49.1323619097952"/>
    <line x1="38.318148347411" y1="49.1323619097952" x2="38.5179491924202" y2="48.6500000000001"/>
    <line x1="38.5179491924202" y1="48.6500000000001" x2="38.835786437616" y2="48.2357864376271"/>
    <line x1="38.835786437616" y1="48.2357864376271" x2="39.2499999999891" y2="47.9179491924313"/>
    <line x1="39.2499999999891" y1="47.9179491924313" x2="39.7323619097841" y2="47.718148347422"/>
    <line x1="39.7323619097841" y1="47.718148347422" x2="40.2499999999891" y2="47.6500000000002"/>
    <line x1="69.5769673925135" y1="17.6840741737111" x2="69.8839745962047" y2="17.2839745962157"/>
    <line x1="69.8839745962047" y1="17.2839745962157" x2="70.2840741737" y2="16.9769673925246"/>
    <line x1="70.2840741737" y1="16.9769673925246" x2="70.7499999999891" y2="16.7839745962157"/>
    <line x1="70.7499999999891" y1="16.7839745962157" x2="71.2499999999891" y2="16.718148347422"/>
    <line x1="71.2499999999891" y1="16.718148347422" x2="71.7499999999891" y2="16.7839745962157"/>
    <line x1="71.7499999999891" y1="16.7839745962157" x2="72.2159258262782" y2="16.9769673925246"/>
    <line x1="72.2159258262782" y1="16.9769673925246" x2="72.6160254037735" y2="17.2839745962157"/>
    <line x1="72.6160254037735" y1="17.2839745962157" x2="72.9230326074647" y2="17.6840741737111"/>
    <line x1="72.9230326074647" y1="17.6840741737111" x2="73.1160254037735" y2="18.1500000000002"/>
    <line x1="73.1160254037735" y1="18.1500000000002" x2="73.1818516525672" y2="18.6500000000002"/>
    <line x1="73.1818516525672" y1="18.6500000000002" x2="73.1160254037735" y2="19.1500000000002"/>
    <line x1="73.1160254037735" y1="19.1500000000002" x2="72.9230326074647" y2="19.6159258262892"/>
    <line x1="72.9230326074647" y1="19.6159258262892" x2="72.6160254037735" y2="20.0160254037846"/>
    <line x1="72.6160254037735" y1="20.0160254037846" x2="72.2159258262782" y2="20.3230326074758"/>
    <line x1="72.2159258262782" y1="20.3230326074758" x2="71.7499999999891" y2="20.5160254037846"/>
    <line x1="71.7499999999891" y1="20.5160254037846" x2="71.2499999999891" y2="20.5818516525783"/>
    <line x1="71.2499999999891" y1="20.5818516525783" x2="70.7499999999891" y2="20.5160254037846"/>
    <line x1="70.7499999999891" y1="20.5160254037846" x2="70.2840741737" y2="20.3230326074758"/>
    <line x1="70.2840741737" y1="20.3230326074758" x2="69.8839745962047" y2="20.0160254037846"/>
    <line x1="69.8839745962047" y1="20.0160254037846" x2="69.5769673925135" y2="19.6159258262892"/>
    <line x1="69.5769673925135" y1="19.6159258262892" x2="69.3839745962047" y2="19.1500000000002"/>
    <line x1="69.3839745962047" y1="19.1500000000002" x2="69.3181483474109" y2="18.6500000000002"/>
    <line x1="69.3181483474109" y1="18.6500000000002" x2="69.3839745962047" y2="18.1500000000002"/>
    <line x1="69.3839745962047" y1="18.1500000000002" x2="69.5769673925135" y2="17.6840741737111"/>
    <line x1="73.1818516525672" y1="49.6500000000002" x2="73.1160254037735" y2="50.1500000000002"/>
    <line x1="73.1160254037735" y1="50.1500000000002" x2="72.9230326074647" y2="50.6159258262892"/>
    <line x1="72.9230326074647" y1="50.6159258262892" x2="72.6160254037735" y2="51.0160254037846"/>
    <line x1="72.6160254037735" y1="51.0160254037846" x2="72.2159258262782" y2="51.3230326074758"/>
    <line x1="72.2159258262782" y1="51.3230326074758" x2="71.7499999999891" y2="51.5160254037846"/>
    <line x1="71.7499999999891" y1="51.5160254037846" x2="71.2499999999891" y2="51.5818516525783"/>
    <line x1="71.2499999999891" y1="51.5818516525783" x2="70.7499999999891" y2="51.5160254037846"/>
    <line x1="70.7499999999891" y1="51.5160254037846" x2="70.2840741737" y2="51.3230326074758"/>
    <line x1="70.2840741737" y1="51.3230326074758" x2="69.8839745962047" y2="51.0160254037846"/>
    <line x1="69.8839745962047" y1="51.0160254037846" x2="69.5769673925135" y2="50.6159258262892"/>
    <line x1="69.5769673925135" y1="50.6159258262892" x2="69.3839745962047" y2="50.1500000000002"/>
    <line x1="69.3839745962047" y1="50.1500000000002" x2="69.3181483474109" y2="49.6500000000002"/>
    <line x1="69.3181483474109" y1="49.6500000000002" x2="69.3839745962047" y2="49.1500000000002"/>
    <line x1="69.3839745962047" y1="49.1500000000002" x2="69.5769673925135" y2="48.6840741737111"/>
    <line x1="69.5769673925135" y1="48.6840741737111" x2="69.8839745962047" y2="48.2839745962158"/>
    <line x1="69.8839745962047" y1="48.2839745962158" x2="70.2840741737" y2="47.9769673925246"/>
    <line x1="70.2840741737" y1="47.9769673925246" x2="70.7499999999891" y2="47.7839745962158"/>
    <line x1="70.7499999999891" y1="47.7839745962158" x2="71.2499999999891" y2="47.718148347422"/>
    <line x1="71.2499999999891" y1="47.718148347422" x2="71.7499999999891" y2="47.7839745962158"/>
    <line x1="71.7499999999891" y1="47.7839745962158" x2="72.2159258262782" y2="47.9769673925246"/>
    <line x1="72.2159258262782" y1="47.9769673925246" x2="72.6160254037735" y2="48.2839745962158"/>
    <line x1="72.6160254037735" y1="48.2839745962158" x2="72.9230326074647" y2="48.6840741737111"/>
    <line x1="72.9230326074647" y1="48.6840741737111" x2="73.1160254037735" y2="49.1500000000002"/>
    <line x1="73.1160254037735" y1="49.1500000000002" x2="73.1818516525672" y2="49.6500000000002"/>
  </g>
</svg>
