<?xml version="1.0" standalone="no"?>
<!DOCTYPE svg PUBLIC "-//W3C//DTD SVG 1.1//EN" "http://www.w3.org/Graphics/SVG/1.1/DTD/svg11.dtd">
<svg width="68.3mm" height="183.000000000004mm"
 viewBox="0 0 68.3 183.000000000004"
 xmlns="http://www.w3.org/2000/svg" version="1.1"
 xmlns:xlink="http://www.w3.org/1999/xlink">
<desc>Output from Flights of Ideas SVG Sketchup Plugin</desc>

  <g id="face0" fill="none" stroke="rgb(0,0,255)" stroke-width="1" stroke-miterlimit="4" stroke-dasharray="none" stroke-linejoin="round" stroke-linecap="round">
    <line x1="55.3" y1="117.000000000004" x2="55.3" y2="60.9999999999998"/>
    <line x1="55.3" y1="60.9999999999998" x2="53.3000000000001" y2="60.9999999999998"/>
    <line x1="53.3000000000001" y1="60.9999999999998" x2="53.3000000000001" y2="62.2999999999998"/>
    <line x1="53.3000000000001" y1="62.2999999999998" x2="51.1" y2="62.2999999999998"/>
    <line x1="51.1" y1="62.2999999999998" x2="51.1" y2="60.9999999999998"/>
    <line x1="51.1" y1="60.9999999999998" x2="48.1" y2="60.9999999999998"/>
    <line x1="48.1" y1="60.9999999999998" x2="48.1" y2="57.9999999999998"/>
    <line x1="48.1" y1="57.9999999999998" x2="51.1" y2="57.9999999999998"/>
    <line x1="51.1" y1="57.9999999999998" x2="51.1" y2="56.6999999999998"/>
    <line x1="51.1" y1="56.6999999999998" x2="53.3" y2="56.6999999999998"/>
    <line x1="53.3" y1="56.6999999999998" x2="53.3000000000001" y2="57.9999999999998"/>
    <line x1="53.3000000000001" y1="57.9999999999998" x2="55.3" y2="57.9999999999998"/>
    <line x1="55.3" y1="57.9999999999998" x2="55.3" y2="47.9999999999999"/>
    <line x1="55.3" y1="47.9999999999999" x2="58.3" y2="47.9999999999999"/>
    <line x1="58.3" y1="47.9999999999999" x2="58.3" y2="17.9999999999998"/>
    <line x1="58.3" y1="17.9999999999998" x2="55.3" y2="17.9999999999998"/>
    <line x1="55.3" y1="17.9999999999998" x2="55.3000000000001" y2="12.9999999999999"/>
    <line x1="55.3000000000001" y1="12.9999999999999" x2="55.3" y2="10.0"/>
    <line x1="55.3" y1="10.0" x2="53.3" y2="10.0"/>
    <line x1="53.3" y1="10.0" x2="53.3" y2="13.0000000000001"/>
    <line x1="53.3" y1="13.0000000000001" x2="50.3" y2="13.0000000000001"/>
    <line x1="50.3" y1="13.0000000000001" x2="50.3" y2="15.0000000000001"/>
    <line x1="50.3" y1="15.0000000000001" x2="51.6" y2="15.0000000000001"/>
    <line x1="51.6" y1="15.0000000000001" x2="51.6" y2="17.2"/>
    <line x1="51.6" y1="17.2" x2="50.3" y2="17.2"/>
    <line x1="50.3" y1="17.2" x2="50.3" y2="20.2"/>
    <line x1="50.3" y1="20.2" x2="47.3" y2="20.2"/>
    <line x1="47.3" y1="20.2" x2="47.3" y2="17.2"/>
    <line x1="47.3" y1="17.2" x2="46.0" y2="17.2"/>
    <line x1="46.0" y1="17.2" x2="46.0" y2="15.0000000000001"/>
    <line x1="46.0" y1="15.0000000000001" x2="47.3" y2="15.0000000000001"/>
    <line x1="47.3" y1="15.0000000000001" x2="47.3" y2="13.0000000000001"/>
    <line x1="47.3" y1="13.0000000000001" x2="21.0000000000001" y2="13.0000000000001"/>
    <line x1="21.0000000000001" y1="13.0000000000001" x2="21.0000000000001" y2="15.0000000000001"/>
    <line x1="21.0000000000001" y1="15.0000000000001" x2="22.3000000000001" y2="15.0000000000001"/>
    <line x1="22.3000000000001" y1="15.0000000000001" x2="22.3000000000001" y2="17.2"/>
    <line x1="22.3000000000001" y1="17.2" x2="21.0000000000001" y2="17.2"/>
    <line x1="21.0000000000001" y1="17.2" x2="21.0000000000001" y2="20.2"/>
    <line x1="21.0000000000001" y1="20.2" x2="18.0" y2="20.2"/>
    <line x1="18.0" y1="20.2" x2="18.0000000000001" y2="17.2"/>
    <line x1="18.0000000000001" y1="17.2" x2="16.7" y2="17.2"/>
    <line x1="16.7" y1="17.2" x2="16.7" y2="15.0"/>
    <line x1="16.7" y1="15.0" x2="18.0" y2="15.0000000000001"/>
    <line x1="18.0" y1="15.0000000000001" x2="18.0000000000001" y2="13.0000000000001"/>
    <line x1="18.0000000000001" y1="13.0000000000001" x2="15.0000000000001" y2="13.0000000000001"/>
    <line x1="15.0000000000001" y1="13.0000000000001" x2="15.0000000000001" y2="10.0"/>
    <line x1="15.0000000000001" y1="10.0" x2="13.0000000000001" y2="10.0000000000001"/>
    <line x1="13.0000000000001" y1="10.0000000000001" x2="13.0" y2="23.0"/>
    <line x1="13.0" y1="23.0" x2="10.0" y2="23.0"/>
    <line x1="10.0" y1="23.0" x2="10.0" y2="33.0"/>
    <line x1="10.0" y1="33.0" x2="13.0000000000001" y2="33.0"/>
    <line x1="13.0000000000001" y1="33.0" x2="13.0000000000001" y2="38.0000000000001"/>
    <line x1="13.0000000000001" y1="38.0000000000001" x2="15.0" y2="38.0000000000001"/>
    <line x1="15.0" y1="38.0000000000001" x2="15.0" y2="36.7000000000001"/>
    <line x1="15.0" y1="36.7000000000001" x2="17.2" y2="36.7000000000001"/>
    <line x1="17.2" y1="36.7000000000001" x2="17.2" y2="38.0000000000001"/>
    <line x1="17.2" y1="38.0000000000001" x2="20.2" y2="38.0000000000001"/>
    <line x1="20.2" y1="38.0000000000001" x2="20.2" y2="41.0000000000001"/>
    <line x1="20.2" y1="41.0000000000001" x2="17.2" y2="41.0000000000001"/>
    <line x1="17.2" y1="41.0000000000001" x2="17.2" y2="42.3000000000001"/>
    <line x1="17.2" y1="42.3000000000001" x2="15.0" y2="42.3000000000001"/>
    <line x1="15.0" y1="42.3000000000001" x2="15.0" y2="41.0000000000001"/>
    <line x1="15.0" y1="41.0000000000001" x2="13.0000000000001" y2="41.0000000000001"/>
    <line x1="13.0000000000001" y1="41.0000000000001" x2="13.0000000000001" y2="46.0"/>
    <line x1="13.0000000000001" y1="46.0" x2="10.0000000000001" y2="46.0000000000001"/>
    <line x1="10.0000000000001" y1="46.0000000000001" x2="10.0000000000001" y2="56.0"/>
    <line x1="10.0000000000001" y1="56.0" x2="13.0000000000001" y2="56.0000000000001"/>
    <line x1="13.0000000000001" y1="56.0000000000001" x2="13.0000000000001" y2="126.885513646283"/>
    <line x1="13.0000000000001" y1="126.885513646283" x2="15.0021853167996" y2="126.885513646283"/>
    <line x1="15.0021853167996" y1="126.885513646283" x2="15.0021853167997" y2="125.585513646283"/>
    <line x1="15.0021853167997" y1="125.585513646283" x2="17.2021853167997" y2="125.585513646283"/>
    <line x1="17.2021853167997" y1="125.585513646283" x2="17.2021853167997" y2="126.885513646283"/>
    <line x1="17.2021853167997" y1="126.885513646283" x2="20.2" y2="127.000000000004"/>
    <line x1="20.2" y1="127.000000000004" x2="20.2" y2="130.000000000004"/>
    <line x1="20.2" y1="130.000000000004" x2="17.2" y2="130.000000000004"/>
    <line x1="17.2" y1="130.000000000004" x2="17.2" y2="131.300000000004"/>
    <line x1="17.2" y1="131.300000000004" x2="15.0000000000001" y2="131.300000000004"/>
    <line x1="15.0000000000001" y1="131.300000000004" x2="15.0000000000001" y2="130.000000000004"/>
    <line x1="15.0000000000001" y1="130.000000000004" x2="13.0000000000001" y2="130.000000000004"/>
    <line x1="13.0000000000001" y1="130.000000000004" x2="13.0000000000001" y2="140.000000000004"/>
    <line x1="13.0000000000001" y1="140.000000000004" x2="10.0000000000001" y2="140.000000000004"/>
    <line x1="10.0000000000001" y1="140.000000000004" x2="10.0" y2="160.000000000004"/>
    <line x1="10.0" y1="160.000000000004" x2="13.0000000000001" y2="160.000000000004"/>
    <line x1="13.0000000000001" y1="160.000000000004" x2="13.0" y2="170.000000000004"/>
    <line x1="13.0" y1="170.000000000004" x2="23.0" y2="170.000000000004"/>
    <line x1="23.0" y1="170.000000000004" x2="23.0" y2="168.000000000004"/>
    <line x1="23.0" y1="168.000000000004" x2="21.7" y2="168.000000000004"/>
    <line x1="21.7" y1="168.000000000004" x2="21.7" y2="165.800000000004"/>
    <line x1="21.7" y1="165.800000000004" x2="23.0" y2="165.800000000004"/>
    <line x1="23.0" y1="165.800000000004" x2="23.0" y2="162.800000000004"/>
    <line x1="23.0" y1="162.800000000004" x2="26.0" y2="162.800000000004"/>
    <line x1="26.0" y1="162.800000000004" x2="26.0" y2="165.800000000004"/>
    <line x1="26.0" y1="165.800000000004" x2="27.3000000000001" y2="165.800000000004"/>
    <line x1="27.3000000000001" y1="165.800000000004" x2="27.3" y2="168.000000000004"/>
    <line x1="27.3" y1="168.000000000004" x2="26.0" y2="168.000000000004"/>
    <line x1="26.0" y1="168.000000000004" x2="26.0" y2="170.000000000004"/>
    <line x1="26.0" y1="170.000000000004" x2="40.3" y2="170.000000000004"/>
    <line x1="40.3" y1="170.000000000004" x2="40.3" y2="173.000000000004"/>
    <line x1="40.3" y1="173.000000000004" x2="50.3" y2="173.000000000004"/>
    <line x1="50.3" y1="173.000000000004" x2="50.3" y2="170.000000000004"/>
    <line x1="50.3" y1="170.000000000004" x2="55.3" y2="170.000000000004"/>
    <line x1="55.3" y1="170.000000000004" x2="55.3" y2="160.000000000004"/>
    <line x1="55.3" y1="160.000000000004" x2="53.3" y2="160.000000000004"/>
    <line x1="53.3" y1="160.000000000004" x2="53.3" y2="161.300000000004"/>
    <line x1="53.3" y1="161.300000000004" x2="51.1" y2="161.300000000004"/>
    <line x1="51.1" y1="161.300000000004" x2="51.1" y2="160.000000000004"/>
    <line x1="51.1" y1="160.000000000004" x2="48.1" y2="160.000000000004"/>
    <line x1="48.1" y1="160.000000000004" x2="48.1" y2="157.000000000004"/>
    <line x1="48.1" y1="157.000000000004" x2="51.1" y2="157.000000000004"/>
    <line x1="51.1" y1="157.000000000004" x2="51.1" y2="155.700000000004"/>
    <line x1="51.1" y1="155.700000000004" x2="53.3" y2="155.700000000004"/>
    <line x1="53.3" y1="155.700000000004" x2="53.3" y2="157.000000000004"/>
    <line x1="53.3" y1="157.000000000004" x2="55.3" y2="157.000000000004"/>
    <line x1="55.3" y1="157.000000000004" x2="55.3" y2="147.000000000004"/>
    <line x1="55.3" y1="147.000000000004" x2="58.3" y2="147.000000000004"/>
    <line x1="58.3" y1="147.000000000004" x2="58.3" y2="117.000000000004"/>
    <line x1="58.3" y1="117.000000000004" x2="55.3" y2="117.000000000004"/>
  </g>
</svg>
