<?xml version="1.0" standalone="no"?>
<!DOCTYPE svg PUBLIC "-//W3C//DTD SVG 1.1//EN" "http://www.w3.org/Graphics/SVG/1.1/DTD/svg11.dtd">
<svg width="111.5mm" height="65.2999999999999mm"
 viewBox="0 0 111.5 65.2999999999999"
 xmlns="http://www.w3.org/2000/svg" version="1.1"
 xmlns:xlink="http://www.w3.org/1999/xlink">
<desc>Output from Flights of Ideas SVG Sketchup Plugin</desc>

  <g id="face0" fill="none" stroke="rgb(0,0,255)" stroke-width="1" stroke-miterlimit="4" stroke-dasharray="none" stroke-linejoin="round" stroke-linecap="round">
    <line x1="98.4999999999911" y1="55.2999999999999" x2="101.5" y2="55.2999999999999"/>
    <line x1="101.5" y1="55.2999999999999" x2="101.5" y2="12.9999999999999"/>
    <line x1="101.5" y1="12.9999999999999" x2="98.4999999999912" y2="13.0"/>
    <line x1="98.4999999999912" y1="13.0" x2="98.4999999999912" y2="15.0"/>
    <line x1="98.4999999999912" y1="15.0" x2="95.4999999999912" y2="15.0"/>
    <line x1="95.4999999999912" y1="15.0" x2="95.4999999999912" y2="13.0"/>
    <line x1="95.4999999999912" y1="13.0" x2="46.0000000000002" y2="13.0"/>
    <line x1="46.0000000000002" y1="13.0" x2="46.0000000000002" y2="10.0"/>
    <line x1="46.0000000000002" y1="10.0" x2="26.0000000000001" y2="10.0"/>
    <line x1="26.0000000000001" y1="10.0" x2="26.0000000000001" y2="13.0000000000001"/>
    <line x1="26.0000000000001" y1="13.0000000000001" x2="16.0000000000002" y2="13.0"/>
    <line x1="16.0000000000002" y1="13.0" x2="16.0000000000002" y2="15.0000000000001"/>
    <line x1="16.0000000000002" y1="15.0000000000001" x2="13.0000000000002" y2="15.0000000000001"/>
    <line x1="13.0000000000002" y1="15.0000000000001" x2="13.0000000000002" y2="13.0000000000001"/>
    <line x1="13.0000000000002" y1="13.0000000000001" x2="10.0" y2="12.9999999999999"/>
    <line x1="10.0" y1="12.9999999999999" x2="10.0" y2="55.2999999999999"/>
    <line x1="10.0" y1="55.2999999999999" x2="13.0" y2="55.2999999999999"/>
    <line x1="13.0" y1="55.2999999999999" x2="13.0" y2="53.3000000000001"/>
    <line x1="13.0" y1="53.3000000000001" x2="16.0" y2="53.2999999999997"/>
    <line x1="16.0" y1="53.2999999999997" x2="16.0" y2="55.2999999999999"/>
    <line x1="16.0" y1="55.2999999999999" x2="21.0" y2="55.2999999999999"/>
    <line x1="21.0" y1="55.2999999999999" x2="21.0" y2="53.2999999999999"/>
    <line x1="21.0" y1="53.2999999999999" x2="19.8" y2="53.3000000000005"/>
    <line x1="19.8" y1="53.3000000000005" x2="19.7999999999999" y2="51.1000000000002"/>
    <line x1="19.7999999999999" y1="51.1000000000002" x2="21.1" y2="51.1000000000001"/>
    <line x1="21.1" y1="51.1000000000001" x2="21.1" y2="48.1"/>
    <line x1="21.1" y1="48.1" x2="24.1" y2="48.0999999999999"/>
    <line x1="24.1" y1="48.0999999999999" x2="24.1" y2="51.1"/>
    <line x1="24.1" y1="51.1" x2="25.4" y2="51.1000000000001"/>
    <line x1="25.4" y1="51.1000000000001" x2="25.4" y2="53.3000000000002"/>
    <line x1="25.4" y1="53.3000000000002" x2="24.1" y2="53.3000000000004"/>
    <line x1="24.1" y1="53.3000000000004" x2="24.1" y2="55.2999999999999"/>
    <line x1="24.1" y1="55.2999999999999" x2="87.4" y2="55.2999999999999"/>
    <line x1="87.4" y1="55.2999999999999" x2="87.4" y2="53.3"/>
    <line x1="87.4" y1="53.3" x2="86.2" y2="53.3"/>
    <line x1="86.2" y1="53.3" x2="86.2" y2="51.1"/>
    <line x1="86.2" y1="51.1" x2="87.5" y2="51.1"/>
    <line x1="87.5" y1="51.1" x2="87.5" y2="48.1"/>
    <line x1="87.5" y1="48.1" x2="90.5" y2="48.1"/>
    <line x1="90.5" y1="48.1" x2="90.5" y2="51.1"/>
    <line x1="90.5" y1="51.1" x2="91.8" y2="51.1"/>
    <line x1="91.8" y1="51.1" x2="91.8" y2="53.3"/>
    <line x1="91.8" y1="53.3" x2="90.5" y2="53.3"/>
    <line x1="90.5" y1="53.3" x2="90.5" y2="55.2999999999999"/>
    <line x1="90.5" y1="55.2999999999999" x2="95.4999999999911" y2="55.2999999999999"/>
    <line x1="95.4999999999911" y1="55.2999999999999" x2="95.4999999999911" y2="53.2999999999999"/>
    <line x1="95.4999999999911" y1="53.2999999999999" x2="98.4999999999911" y2="53.2999999999999"/>
    <line x1="98.4999999999911" y1="53.2999999999999" x2="98.4999999999911" y2="55.2999999999999"/>
    <line x1="14.875" y1="20.8995190528383" x2="14.5" y2="20.9488887394336"/>
    <line x1="14.5" y1="20.9488887394336" x2="14.125" y2="20.8995190528383"/>
    <line x1="14.125" y1="20.8995190528383" x2="13.7755556302832" y2="20.7547744556066"/>
    <line x1="13.7755556302832" y1="20.7547744556066" x2="13.4754809471616" y2="20.5245190528383"/>
    <line x1="13.4754809471616" y1="20.5245190528383" x2="13.2452255443933" y2="20.2244443697168"/>
    <line x1="13.2452255443933" y1="20.2244443697168" x2="13.1004809471617" y2="19.875"/>
    <line x1="13.1004809471617" y1="19.875" x2="13.0511112605664" y2="19.5"/>
    <line x1="13.0511112605664" y1="19.5" x2="13.1004809471617" y2="19.125"/>
    <line x1="13.1004809471617" y1="19.125" x2="13.2452255443933" y2="18.7755556302832"/>
    <line x1="13.2452255443933" y1="18.7755556302832" x2="13.4754809471617" y2="18.4754809471616"/>
    <line x1="13.4754809471617" y1="18.4754809471616" x2="13.7755556302832" y2="18.2452255443932"/>
    <line x1="13.7755556302832" y1="18.2452255443932" x2="14.125" y2="18.1004809471616"/>
    <line x1="14.125" y1="18.1004809471616" x2="14.5" y2="18.0511112605664"/>
    <line x1="14.5" y1="18.0511112605664" x2="14.875" y2="18.1004809471616"/>
    <line x1="14.875" y1="18.1004809471616" x2="15.2244443697168" y2="18.2452255443932"/>
    <line x1="15.2244443697168" y1="18.2452255443932" x2="15.5245190528383" y2="18.4754809471616"/>
    <line x1="15.5245190528383" y1="18.4754809471616" x2="15.7547744556067" y2="18.7755556302832"/>
    <line x1="15.7547744556067" y1="18.7755556302832" x2="15.8995190528383" y2="19.125"/>
    <line x1="15.8995190528383" y1="19.125" x2="15.9488887394336" y2="19.4999999999999"/>
    <line x1="15.9488887394336" y1="19.4999999999999" x2="15.8995190528383" y2="19.8749999999999"/>
    <line x1="15.8995190528383" y1="19.8749999999999" x2="15.7547744556067" y2="20.2244443697168"/>
    <line x1="15.7547744556067" y1="20.2244443697168" x2="15.5245190528383" y2="20.5245190528383"/>
    <line x1="15.5245190528383" y1="20.5245190528383" x2="15.2244443697168" y2="20.7547744556067"/>
    <line x1="15.2244443697168" y1="20.7547744556067" x2="14.875" y2="20.8995190528383"/>
    <line x1="14.1117714323462" y1="47.3511112605663" x2="14.5" y2="47.3"/>
    <line x1="14.5" y1="47.3" x2="14.8882285676538" y2="47.3511112605664"/>
    <line x1="14.8882285676538" y1="47.3511112605664" x2="15.25" y2="47.5009618943232"/>
    <line x1="15.25" y1="47.5009618943232" x2="15.5606601717798" y2="47.7393398282201"/>
    <line x1="15.5606601717798" y1="47.7393398282201" x2="15.7990381056766" y2="48.05"/>
    <line x1="15.7990381056766" y1="48.05" x2="15.9488887394336" y2="48.4117714323461"/>
    <line x1="15.9488887394336" y1="48.4117714323461" x2="16.0" y2="48.7999999999999"/>
    <line x1="16.0" y1="48.7999999999999" x2="15.9488887394336" y2="49.1882285676536"/>
    <line x1="15.9488887394336" y1="49.1882285676536" x2="15.7990381056766" y2="49.5499999999999"/>
    <line x1="15.7990381056766" y1="49.5499999999999" x2="15.5606601717798" y2="49.8606601717797"/>
    <line x1="15.5606601717798" y1="49.8606601717797" x2="15.25" y2="50.0990381056766"/>
    <line x1="15.25" y1="50.0990381056766" x2="14.8882285676538" y2="50.2488887394336"/>
    <line x1="14.8882285676538" y1="50.2488887394336" x2="14.5" y2="50.2999999999999"/>
    <line x1="14.5" y1="50.2999999999999" x2="14.1117714323462" y2="50.2488887394335"/>
    <line x1="14.1117714323462" y1="50.2488887394335" x2="13.75" y2="50.0990381056766"/>
    <line x1="13.75" y1="50.0990381056766" x2="13.4393398282202" y2="49.8606601717797"/>
    <line x1="13.4393398282202" y1="49.8606601717797" x2="13.2009618943233" y2="49.5499999999997"/>
    <line x1="13.2009618943233" y1="49.5499999999997" x2="13.0511112605664" y2="49.1882285676537"/>
    <line x1="13.0511112605664" y1="49.1882285676537" x2="13.0" y2="48.7999999999999"/>
    <line x1="13.0" y1="48.7999999999999" x2="13.0511112605664" y2="48.4117714323463"/>
    <line x1="13.0511112605664" y1="48.4117714323463" x2="13.2009618943233" y2="48.0499999999998"/>
    <line x1="13.2009618943233" y1="48.0499999999998" x2="13.4393398282202" y2="47.73933982822"/>
    <line x1="13.4393398282202" y1="47.73933982822" x2="13.75" y2="47.5009618943232"/>
    <line x1="13.75" y1="47.5009618943232" x2="14.1117714323462" y2="47.3511112605663"/>
    <line x1="95.9393398282112" y1="20.5606601717797" x2="95.7009618943144" y2="20.2499999999999"/>
    <line x1="95.7009618943144" y1="20.2499999999999" x2="95.5511112605574" y2="19.8882285676536"/>
    <line x1="95.5511112605574" y1="19.8882285676536" x2="95.499999999991" y2="19.4999999999999"/>
    <line x1="95.499999999991" y1="19.4999999999999" x2="95.5511112605574" y2="19.1117714323461"/>
    <line x1="95.5511112605574" y1="19.1117714323461" x2="95.7009618943144" y2="18.7499999999999"/>
    <line x1="95.7009618943144" y1="18.7499999999999" x2="95.9393398282112" y2="18.43933982822"/>
    <line x1="95.9393398282112" y1="18.43933982822" x2="96.249999999991" y2="18.2009618943232"/>
    <line x1="96.249999999991" y1="18.2009618943232" x2="96.6117714323372" y2="18.0511112605662"/>
    <line x1="96.6117714323372" y1="18.0511112605662" x2="96.999999999991" y2="17.9999999999999"/>
    <line x1="96.999999999991" y1="17.9999999999999" x2="97.3882285676448" y2="18.0511112605662"/>
    <line x1="97.3882285676448" y1="18.0511112605662" x2="97.749999999991" y2="18.2009618943232"/>
    <line x1="97.749999999991" y1="18.2009618943232" x2="98.0606601717708" y2="18.43933982822"/>
    <line x1="98.0606601717708" y1="18.43933982822" x2="98.2990381056677" y2="18.7499999999999"/>
    <line x1="98.2990381056677" y1="18.7499999999999" x2="98.4488887394247" y2="19.1117714323461"/>
    <line x1="98.4488887394247" y1="19.1117714323461" x2="98.499999999991" y2="19.4999999999999"/>
    <line x1="98.499999999991" y1="19.4999999999999" x2="98.4488887394247" y2="19.8882285676536"/>
    <line x1="98.4488887394247" y1="19.8882285676536" x2="98.2990381056677" y2="20.2499999999999"/>
    <line x1="98.2990381056677" y1="20.2499999999999" x2="98.0606601717708" y2="20.5606601717797"/>
    <line x1="98.0606601717708" y1="20.5606601717797" x2="97.749999999991" y2="20.7990381056765"/>
    <line x1="97.749999999991" y1="20.7990381056765" x2="97.3882285676448" y2="20.9488887394335"/>
    <line x1="97.3882285676448" y1="20.9488887394335" x2="96.999999999991" y2="20.9999999999999"/>
    <line x1="96.999999999991" y1="20.9999999999999" x2="96.6117714323372" y2="20.9488887394335"/>
    <line x1="96.6117714323372" y1="20.9488887394335" x2="96.249999999991" y2="20.7990381056765"/>
    <line x1="96.249999999991" y1="20.7990381056765" x2="95.9393398282112" y2="20.5606601717797"/>
    <line x1="98.499999999991" y1="48.7999999999998" x2="98.4488887394247" y2="49.1882285676536"/>
    <line x1="98.4488887394247" y1="49.1882285676536" x2="98.2990381056677" y2="49.5499999999998"/>
    <line x1="98.2990381056677" y1="49.5499999999998" x2="98.0606601717708" y2="49.8606601717797"/>
    <line x1="98.0606601717708" y1="49.8606601717797" x2="97.749999999991" y2="50.0990381056765"/>
    <line x1="97.749999999991" y1="50.0990381056765" x2="97.3882285676448" y2="50.2488887394334"/>
    <line x1="97.3882285676448" y1="50.2488887394334" x2="96.999999999991" y2="50.2999999999998"/>
    <line x1="96.999999999991" y1="50.2999999999998" x2="96.6117714323372" y2="50.2488887394334"/>
    <line x1="96.6117714323372" y1="50.2488887394334" x2="96.249999999991" y2="50.0990381056765"/>
    <line x1="96.249999999991" y1="50.0990381056765" x2="95.9393398282112" y2="49.8606601717797"/>
    <line x1="95.9393398282112" y1="49.8606601717797" x2="95.7009618943144" y2="49.5499999999998"/>
    <line x1="95.7009618943144" y1="49.5499999999998" x2="95.5511112605574" y2="49.1882285676536"/>
    <line x1="95.5511112605574" y1="49.1882285676536" x2="95.499999999991" y2="48.7999999999998"/>
    <line x1="95.499999999991" y1="48.7999999999998" x2="95.5511112605574" y2="48.4117714323461"/>
    <line x1="95.5511112605574" y1="48.4117714323461" x2="95.7009618943144" y2="48.0499999999998"/>
    <line x1="95.7009618943144" y1="48.0499999999998" x2="95.9393398282112" y2="47.73933982822"/>
    <line x1="95.9393398282112" y1="47.73933982822" x2="96.249999999991" y2="47.5009618943232"/>
    <line x1="96.249999999991" y1="47.5009618943232" x2="96.6117714323372" y2="47.3511112605662"/>
    <line x1="96.6117714323372" y1="47.3511112605662" x2="96.999999999991" y2="47.2999999999999"/>
    <line x1="96.999999999991" y1="47.2999999999999" x2="97.3882285676448" y2="47.3511112605662"/>
    <line x1="97.3882285676448" y1="47.3511112605662" x2="97.749999999991" y2="47.5009618943232"/>
    <line x1="97.749999999991" y1="47.5009618943232" x2="98.0606601717708" y2="47.73933982822"/>
    <line x1="98.0606601717708" y1="47.73933982822" x2="98.2990381056677" y2="48.0499999999998"/>
    <line x1="98.2990381056677" y1="48.0499999999998" x2="98.4488887394247" y2="48.4117714323461"/>
    <line x1="98.4488887394247" y1="48.4117714323461" x2="98.499999999991" y2="48.7999999999998"/>
    <line x1="40.7676380901941" y1="16.718148347422" x2="41.2499999999891" y2="16.9179491924313"/>
    <line x1="41.2499999999891" y1="16.9179491924313" x2="41.6642135623622" y2="17.235786437627"/>
    <line x1="41.6642135623622" y1="17.235786437627" x2="41.982050807558" y2="17.6500000000001"/>
    <line x1="41.982050807558" y1="17.6500000000001" x2="42.1818516525672" y2="18.1323619097951"/>
    <line x1="42.1818516525672" y1="18.1323619097951" x2="42.2499999999891" y2="18.6500000000001"/>
    <line x1="42.2499999999891" y1="18.6500000000001" x2="42.1818516525672" y2="19.1676380902052"/>
    <line x1="42.1818516525672" y1="19.1676380902052" x2="41.982050807558" y2="19.6500000000001"/>
    <line x1="41.982050807558" y1="19.6500000000001" x2="41.6642135623622" y2="20.0642135623733"/>
    <line x1="41.6642135623622" y1="20.0642135623733" x2="41.2499999999891" y2="20.382050807569"/>
    <line x1="41.2499999999891" y1="20.382050807569" x2="40.7676380901941" y2="20.5818516525783"/>
    <line x1="40.7676380901941" y1="20.5818516525783" x2="40.2499999999891" y2="20.6500000000001"/>
    <line x1="40.2499999999891" y1="20.6500000000001" x2="39.732361909784" y2="20.5818516525783"/>
    <line x1="39.732361909784" y1="20.5818516525783" x2="39.2499999999891" y2="20.382050807569"/>
    <line x1="39.2499999999891" y1="20.382050807569" x2="38.835786437616" y2="20.0642135623733"/>
    <line x1="38.835786437616" y1="20.0642135623733" x2="38.5179491924202" y2="19.6500000000002"/>
    <line x1="38.5179491924202" y1="19.6500000000002" x2="38.3181483474109" y2="19.1676380902052"/>
    <line x1="38.3181483474109" y1="19.1676380902052" x2="38.2499999999891" y2="18.6500000000001"/>
    <line x1="38.2499999999891" y1="18.6500000000001" x2="38.3181483474109" y2="18.1323619097951"/>
    <line x1="38.3181483474109" y1="18.1323619097951" x2="38.5179491924202" y2="17.6500000000001"/>
    <line x1="38.5179491924202" y1="17.6500000000001" x2="38.835786437616" y2="17.235786437627"/>
    <line x1="38.835786437616" y1="17.235786437627" x2="39.2499999999891" y2="16.9179491924312"/>
    <line x1="39.2499999999891" y1="16.9179491924312" x2="39.732361909784" y2="16.718148347422"/>
    <line x1="39.732361909784" y1="16.718148347422" x2="40.2499999999891" y2="16.6500000000001"/>
    <line x1="40.2499999999891" y1="16.6500000000001" x2="40.7676380901941" y2="16.718148347422"/>
    <line x1="40.2499999999891" y1="47.6500000000001" x2="40.7676380901941" y2="47.718148347422"/>
    <line x1="40.7676380901941" y1="47.718148347422" x2="41.2499999999891" y2="47.9179491924313"/>
    <line x1="41.2499999999891" y1="47.9179491924313" x2="41.6642135623622" y2="48.2357864376271"/>
    <line x1="41.6642135623622" y1="48.2357864376271" x2="41.982050807558" y2="48.6500000000002"/>
    <line x1="41.982050807558" y1="48.6500000000002" x2="42.1818516525672" y2="49.1323619097951"/>
    <line x1="42.1818516525672" y1="49.1323619097951" x2="42.2499999999891" y2="49.6500000000002"/>
    <line x1="42.2499999999891" y1="49.6500000000002" x2="42.1818516525672" y2="50.1676380902051"/>
    <line x1="42.1818516525672" y1="50.1676380902051" x2="41.982050807558" y2="50.6500000000001"/>
    <line x1="41.982050807558" y1="50.6500000000001" x2="41.6642135623622" y2="51.0642135623733"/>
    <line x1="41.6642135623622" y1="51.0642135623733" x2="41.2499999999891" y2="51.3820508075691"/>
    <line x1="41.2499999999891" y1="51.3820508075691" x2="40.7676380901941" y2="51.5818516525782"/>
    <line x1="40.7676380901941" y1="51.5818516525782" x2="40.2499999999891" y2="51.6500000000002"/>
    <line x1="40.2499999999891" y1="51.6500000000002" x2="39.732361909784" y2="51.5818516525782"/>
    <line x1="39.732361909784" y1="51.5818516525782" x2="39.2499999999891" y2="51.3820508075691"/>
    <line x1="39.2499999999891" y1="51.3820508075691" x2="38.835786437616" y2="51.0642135623733"/>
    <line x1="38.835786437616" y1="51.0642135623733" x2="38.5179491924202" y2="50.6500000000001"/>
    <line x1="38.5179491924202" y1="50.6500000000001" x2="38.318148347411" y2="50.1676380902051"/>
    <line x1="38.318148347411" y1="50.1676380902051" x2="38.2499999999891" y2="49.6500000000001"/>
    <line x1="38.2499999999891" y1="49.6500000000001" x2="38.318148347411" y2="49.1323619097951"/>
    <line x1="38.318148347411" y1="49.1323619097951" x2="38.5179491924202" y2="48.6500000000001"/>
    <line x1="38.5179491924202" y1="48.6500000000001" x2="38.835786437616" y2="48.2357864376271"/>
    <line x1="38.835786437616" y1="48.2357864376271" x2="39.2499999999891" y2="47.9179491924313"/>
    <line x1="39.2499999999891" y1="47.9179491924313" x2="39.7323619097841" y2="47.7181483474221"/>
    <line x1="39.7323619097841" y1="47.7181483474221" x2="40.2499999999891" y2="47.6500000000001"/>
    <line x1="69.5769673925135" y1="17.6840741737111" x2="69.8839745962046" y2="17.2839745962157"/>
    <line x1="69.8839745962046" y1="17.2839745962157" x2="70.2840741737" y2="16.9769673925245"/>
    <line x1="70.2840741737" y1="16.9769673925245" x2="70.7499999999891" y2="16.7839745962157"/>
    <line x1="70.7499999999891" y1="16.7839745962157" x2="71.2499999999891" y2="16.718148347422"/>
    <line x1="71.2499999999891" y1="16.718148347422" x2="71.7499999999891" y2="16.7839745962157"/>
    <line x1="71.7499999999891" y1="16.7839745962157" x2="72.2159258262782" y2="16.9769673925245"/>
    <line x1="72.2159258262782" y1="16.9769673925245" x2="72.6160254037736" y2="17.2839745962157"/>
    <line x1="72.6160254037736" y1="17.2839745962157" x2="72.9230326074647" y2="17.6840741737111"/>
    <line x1="72.9230326074647" y1="17.6840741737111" x2="73.1160254037735" y2="18.1500000000001"/>
    <line x1="73.1160254037735" y1="18.1500000000001" x2="73.1818516525672" y2="18.6500000000001"/>
    <line x1="73.1818516525672" y1="18.6500000000001" x2="73.1160254037735" y2="19.1500000000001"/>
    <line x1="73.1160254037735" y1="19.1500000000001" x2="72.9230326074647" y2="19.6159258262892"/>
    <line x1="72.9230326074647" y1="19.6159258262892" x2="72.6160254037736" y2="20.0160254037846"/>
    <line x1="72.6160254037736" y1="20.0160254037846" x2="72.2159258262782" y2="20.3230326074757"/>
    <line x1="72.2159258262782" y1="20.3230326074757" x2="71.7499999999891" y2="20.5160254037846"/>
    <line x1="71.7499999999891" y1="20.5160254037846" x2="71.2499999999891" y2="20.5818516525783"/>
    <line x1="71.2499999999891" y1="20.5818516525783" x2="70.7499999999891" y2="20.5160254037846"/>
    <line x1="70.7499999999891" y1="20.5160254037846" x2="70.2840741737" y2="20.3230326074757"/>
    <line x1="70.2840741737" y1="20.3230326074757" x2="69.8839745962046" y2="20.0160254037846"/>
    <line x1="69.8839745962046" y1="20.0160254037846" x2="69.5769673925135" y2="19.6159258262892"/>
    <line x1="69.5769673925135" y1="19.6159258262892" x2="69.3839745962047" y2="19.1500000000001"/>
    <line x1="69.3839745962047" y1="19.1500000000001" x2="69.318148347411" y2="18.6500000000001"/>
    <line x1="69.318148347411" y1="18.6500000000001" x2="69.3839745962047" y2="18.1500000000001"/>
    <line x1="69.3839745962047" y1="18.1500000000001" x2="69.5769673925135" y2="17.6840741737111"/>
    <line x1="73.1818516525672" y1="49.6500000000001" x2="73.1160254037735" y2="50.1500000000001"/>
    <line x1="73.1160254037735" y1="50.1500000000001" x2="72.9230326074647" y2="50.6159258262891"/>
    <line x1="72.9230326074647" y1="50.6159258262891" x2="72.6160254037736" y2="51.0160254037845"/>
    <line x1="72.6160254037736" y1="51.0160254037845" x2="72.2159258262782" y2="51.3230326074757"/>
    <line x1="72.2159258262782" y1="51.3230326074757" x2="71.7499999999891" y2="51.5160254037845"/>
    <line x1="71.7499999999891" y1="51.5160254037845" x2="71.2499999999891" y2="51.5818516525783"/>
    <line x1="71.2499999999891" y1="51.5818516525783" x2="70.7499999999891" y2="51.5160254037846"/>
    <line x1="70.7499999999891" y1="51.5160254037846" x2="70.2840741737" y2="51.3230326074757"/>
    <line x1="70.2840741737" y1="51.3230326074757" x2="69.8839745962046" y2="51.0160254037845"/>
    <line x1="69.8839745962046" y1="51.0160254037845" x2="69.5769673925135" y2="50.6159258262892"/>
    <line x1="69.5769673925135" y1="50.6159258262892" x2="69.3839745962047" y2="50.1500000000001"/>
    <line x1="69.3839745962047" y1="50.1500000000001" x2="69.318148347411" y2="49.6500000000001"/>
    <line x1="69.318148347411" y1="49.6500000000001" x2="69.3839745962047" y2="49.1500000000001"/>
    <line x1="69.3839745962047" y1="49.1500000000001" x2="69.5769673925135" y2="48.6840741737111"/>
    <line x1="69.5769673925135" y1="48.6840741737111" x2="69.8839745962046" y2="48.2839745962157"/>
    <line x1="69.8839745962046" y1="48.2839745962157" x2="70.2840741737" y2="47.9769673925245"/>
    <line x1="70.2840741737" y1="47.9769673925245" x2="70.7499999999891" y2="47.7839745962157"/>
    <line x1="70.7499999999891" y1="47.7839745962157" x2="71.2499999999891" y2="47.718148347422"/>
    <line x1="71.2499999999891" y1="47.718148347422" x2="71.7499999999891" y2="47.7839745962157"/>
    <line x1="71.7499999999891" y1="47.7839745962157" x2="72.2159258262782" y2="47.9769673925245"/>
    <line x1="72.2159258262782" y1="47.9769673925245" x2="72.6160254037736" y2="48.2839745962157"/>
    <line x1="72.6160254037736" y1="48.2839745962157" x2="72.9230326074647" y2="48.6840741737111"/>
    <line x1="72.9230326074647" y1="48.6840741737111" x2="73.1160254037735" y2="49.1500000000001"/>
    <line x1="73.1160254037735" y1="49.1500000000001" x2="73.1818516525672" y2="49.6500000000001"/>
    <line x1="45.1248159108203" y1="36.9970094961276" x2="44.7500000000001" y2="34.1499999999999"/>
    <line x1="44.7500000000001" y1="34.1499999999999" x2="45.1248159108203" y2="31.3029905038722"/>
    <line x1="45.1248159108203" y1="31.3029905038722" x2="46.2237205583712" y2="28.6499999999999"/>
    <line x1="46.2237205583712" y1="28.6499999999999" x2="47.9718254069481" y2="26.3718254069479"/>
    <line x1="47.9718254069481" y1="26.3718254069479" x2="50.2500000000001" y2="24.6237205583711"/>
    <line x1="50.2500000000001" y1="24.6237205583711" x2="52.9029905038724" y2="23.5248159108202"/>
    <line x1="52.9029905038724" y1="23.5248159108202" x2="55.7500000000001" y2="23.1499999999999"/>
    <line x1="55.7500000000001" y1="23.1499999999999" x2="58.5970094961278" y2="23.5248159108202"/>
    <line x1="58.5970094961278" y1="23.5248159108202" x2="61.2500000000001" y2="24.6237205583711"/>
    <line x1="61.2500000000001" y1="24.6237205583711" x2="63.5281745930521" y2="26.3718254069479"/>
    <line x1="63.5281745930521" y1="26.3718254069479" x2="65.2762794416289" y2="28.6499999999999"/>
    <line x1="65.2762794416289" y1="28.6499999999999" x2="66.3751840891798" y2="31.3029905038722"/>
    <line x1="66.3751840891798" y1="31.3029905038722" x2="66.7500000000001" y2="34.1499999999999"/>
    <line x1="66.7500000000001" y1="34.1499999999999" x2="66.3751840891798" y2="36.9970094961276"/>
    <line x1="66.3751840891798" y1="36.9970094961276" x2="65.2762794416289" y2="39.6499999999999"/>
    <line x1="65.2762794416289" y1="39.6499999999999" x2="63.5281745930521" y2="41.9281745930519"/>
    <line x1="63.5281745930521" y1="41.9281745930519" x2="61.2500000000001" y2="43.6762794416287"/>
    <line x1="61.2500000000001" y1="43.6762794416287" x2="58.5970094961278" y2="44.7751840891796"/>
    <line x1="58.5970094961278" y1="44.7751840891796" x2="55.7500000000001" y2="45.1499999999999"/>
    <line x1="55.7500000000001" y1="45.1499999999999" x2="52.9029905038724" y2="44.7751840891796"/>
    <line x1="52.9029905038724" y1="44.7751840891796" x2="50.2500000000001" y2="43.6762794416287"/>
    <line x1="50.2500000000001" y1="43.6762794416287" x2="47.9718254069481" y2="41.9281745930519"/>
    <line x1="47.9718254069481" y1="41.9281745930519" x2="46.2237205583712" y2="39.6499999999999"/>
    <line x1="46.2237205583712" y1="39.6499999999999" x2="45.1248159108203" y2="36.9970094961276"/>
  </g>
</svg>
