<?xml version="1.0" standalone="no"?>
<!DOCTYPE svg PUBLIC "-//W3C//DTD SVG 1.1//EN" "http://www.w3.org/Graphics/SVG/1.1/DTD/svg11.dtd">
<svg width="111.5mm" height="50.2219757203218mm"
 viewBox="0 0 111.5 50.2219757203218"
 xmlns="http://www.w3.org/2000/svg" version="1.1"
 xmlns:xlink="http://www.w3.org/1999/xlink">
<desc>Output from Flights of Ideas SVG Sketchup Plugin</desc>

  <g id="face0" fill="none" stroke="rgb(0,0,255)" stroke-width="1" stroke-miterlimit="4" stroke-dasharray="none" stroke-linejoin="round" stroke-linecap="round">
    <line x1="68.5" y1="10.0" x2="43.0" y2="10.0"/>
    <line x1="43.0" y1="10.0" x2="43.0" y2="13.0"/>
    <line x1="43.0" y1="13.0" x2="31.3" y2="13.0000000000001"/>
    <line x1="31.3" y1="13.0000000000001" x2="31.3" y2="10.0"/>
    <line x1="31.3" y1="10.0" x2="10.0" y2="10.0"/>
    <line x1="10.0" y1="10.0" x2="10.0" y2="37.2219757203218"/>
    <line x1="10.0" y1="37.2219757203218" x2="30.0" y2="37.2219757203218"/>
    <line x1="30.0" y1="37.2219757203218" x2="30.0" y2="40.2219757203218"/>
    <line x1="30.0" y1="40.2219757203218" x2="81.5" y2="40.2219757203218"/>
    <line x1="81.5" y1="40.2219757203218" x2="81.5" y2="37.2219757203218"/>
    <line x1="81.5" y1="37.2219757203218" x2="101.5" y2="37.2219757203218"/>
    <line x1="101.5" y1="37.2219757203218" x2="101.5" y2="10.0"/>
    <line x1="101.5" y1="10.0" x2="80.2499999999989" y2="10.0"/>
    <line x1="80.2499999999989" y1="10.0" x2="80.2499999999989" y2="13.0"/>
    <line x1="80.2499999999989" y1="13.0" x2="68.5" y2="13.0"/>
    <line x1="68.5" y1="13.0" x2="68.5" y2="10.0"/>
    <line x1="97.3882285676538" y1="20.9488887394336" x2="97.0000000000001" y2="21.0"/>
    <line x1="97.0000000000001" y1="21.0" x2="96.6117714323463" y2="20.9488887394336"/>
    <line x1="96.6117714323463" y1="20.9488887394336" x2="96.25" y2="20.7990381056767"/>
    <line x1="96.25" y1="20.7990381056767" x2="95.9393398282202" y2="20.5606601717798"/>
    <line x1="95.9393398282202" y1="20.5606601717798" x2="95.7009618943234" y2="20.2500000000001"/>
    <line x1="95.7009618943234" y1="20.2500000000001" x2="95.5511112605665" y2="19.8882285676538"/>
    <line x1="95.5511112605665" y1="19.8882285676538" x2="95.5" y2="19.5000000000001"/>
    <line x1="95.5" y1="19.5000000000001" x2="95.5511112605665" y2="19.1117714323462"/>
    <line x1="95.5511112605665" y1="19.1117714323462" x2="95.7009618943234" y2="18.75"/>
    <line x1="95.7009618943234" y1="18.75" x2="95.9393398282202" y2="18.4393398282202"/>
    <line x1="95.9393398282202" y1="18.4393398282202" x2="96.25" y2="18.2009618943234"/>
    <line x1="96.25" y1="18.2009618943234" x2="96.6117714323463" y2="18.0511112605664"/>
    <line x1="96.6117714323463" y1="18.0511112605664" x2="97.0000000000001" y2="18.0"/>
    <line x1="97.0000000000001" y1="18.0" x2="97.3882285676538" y2="18.0511112605664"/>
    <line x1="97.3882285676538" y1="18.0511112605664" x2="97.75" y2="18.2009618943234"/>
    <line x1="97.75" y1="18.2009618943234" x2="98.0606601717799" y2="18.4393398282202"/>
    <line x1="98.0606601717799" y1="18.4393398282202" x2="98.2990381056767" y2="18.75"/>
    <line x1="98.2990381056767" y1="18.75" x2="98.4488887394337" y2="19.1117714323462"/>
    <line x1="98.4488887394337" y1="19.1117714323462" x2="98.5" y2="19.5"/>
    <line x1="98.5" y1="19.5" x2="98.4488887394337" y2="19.8882285676538"/>
    <line x1="98.4488887394337" y1="19.8882285676538" x2="98.2990381056767" y2="20.2500000000001"/>
    <line x1="98.2990381056767" y1="20.2500000000001" x2="98.0606601717799" y2="20.5606601717798"/>
    <line x1="98.0606601717799" y1="20.5606601717798" x2="97.75" y2="20.7990381056767"/>
    <line x1="97.75" y1="20.7990381056767" x2="97.3882285676538" y2="20.9488887394336"/>
    <line x1="14.8882285676538" y1="20.9488887394336" x2="14.5000000000001" y2="20.9999999999999"/>
    <line x1="14.5000000000001" y1="20.9999999999999" x2="14.1117714323463" y2="20.9488887394336"/>
    <line x1="14.1117714323463" y1="20.9488887394336" x2="13.75" y2="20.7990381056767"/>
    <line x1="13.75" y1="20.7990381056767" x2="13.4393398282202" y2="20.5606601717798"/>
    <line x1="13.4393398282202" y1="20.5606601717798" x2="13.2009618943234" y2="20.25"/>
    <line x1="13.2009618943234" y1="20.25" x2="13.0511112605665" y2="19.8882285676538"/>
    <line x1="13.0511112605665" y1="19.8882285676538" x2="13.0" y2="19.5"/>
    <line x1="13.0" y1="19.5" x2="13.0511112605665" y2="19.1117714323462"/>
    <line x1="13.0511112605665" y1="19.1117714323462" x2="13.2009618943234" y2="18.75"/>
    <line x1="13.2009618943234" y1="18.75" x2="13.4393398282202" y2="18.4393398282202"/>
    <line x1="13.4393398282202" y1="18.4393398282202" x2="13.75" y2="18.2009618943234"/>
    <line x1="13.75" y1="18.2009618943234" x2="14.1117714323463" y2="18.0511112605664"/>
    <line x1="14.1117714323463" y1="18.0511112605664" x2="14.5000000000001" y2="18.0"/>
    <line x1="14.5000000000001" y1="18.0" x2="14.8882285676539" y2="18.0511112605664"/>
    <line x1="14.8882285676539" y1="18.0511112605664" x2="15.2500000000001" y2="18.2009618943234"/>
    <line x1="15.2500000000001" y1="18.2009618943234" x2="15.5606601717799" y2="18.4393398282202"/>
    <line x1="15.5606601717799" y1="18.4393398282202" x2="15.7990381056767" y2="18.75"/>
    <line x1="15.7990381056767" y1="18.75" x2="15.9488887394336" y2="19.1117714323462"/>
    <line x1="15.9488887394336" y1="19.1117714323462" x2="16.0" y2="19.4999999999999"/>
    <line x1="16.0" y1="19.4999999999999" x2="15.9488887394336" y2="19.8882285676538"/>
    <line x1="15.9488887394336" y1="19.8882285676538" x2="15.7990381056767" y2="20.25"/>
    <line x1="15.7990381056767" y1="20.25" x2="15.5606601717799" y2="20.5606601717798"/>
    <line x1="15.5606601717799" y1="20.5606601717798" x2="15.2500000000001" y2="20.7990381056767"/>
    <line x1="15.2500000000001" y1="20.7990381056767" x2="14.8882285676538" y2="20.9488887394336"/>
    <line x1="16.0" y1="32.2219757203218" x2="13.0" y2="32.2219757203218"/>
    <line x1="13.0" y1="32.2219757203218" x2="13.0" y2="27.2219757203219"/>
    <line x1="13.0" y1="27.2219757203219" x2="16.0" y2="27.2219757203218"/>
    <line x1="16.0" y1="27.2219757203218" x2="16.0" y2="32.2219757203218"/>
    <line x1="98.5" y1="27.2219757203219" x2="98.5" y2="32.2219757203219"/>
    <line x1="98.5" y1="32.2219757203219" x2="95.5" y2="32.2219757203218"/>
    <line x1="95.5" y1="32.2219757203218" x2="95.5" y2="27.2219757203219"/>
    <line x1="95.5" y1="27.2219757203219" x2="98.5" y2="27.2219757203219"/>
  </g>
</svg>
