<?xml version="1.0" standalone="no"?>
<!DOCTYPE svg PUBLIC "-//W3C//DTD SVG 1.1//EN" "http://www.w3.org/Graphics/SVG/1.1/DTD/svg11.dtd">
<svg width="51.999999999997mm" height="111.5mm"
 viewBox="0 0 51.999999999997 111.5"
 xmlns="http://www.w3.org/2000/svg" version="1.1"
 xmlns:xlink="http://www.w3.org/1999/xlink">
<desc>Output from Flights of Ideas SVG Sketchup Plugin</desc>

  <g id="face0" fill="none" stroke="rgb(0,0,255)" stroke-width="1" stroke-miterlimit="4" stroke-dasharray="none" stroke-linejoin="round" stroke-linecap="round">
    <line x1="10.0000000000001" y1="10.0" x2="10.0000000000001" y2="13.5"/>
    <line x1="10.0000000000001" y1="13.5" x2="12.0000000000001" y2="13.5"/>
    <line x1="12.0000000000001" y1="13.5" x2="12.0000000000001" y2="12.2"/>
    <line x1="12.0000000000001" y1="12.2" x2="14.2" y2="12.2"/>
    <line x1="14.2" y1="12.2" x2="14.2" y2="13.5"/>
    <line x1="14.2" y1="13.5" x2="17.2" y2="13.5"/>
    <line x1="17.2" y1="13.5" x2="17.2" y2="16.4999999999999"/>
    <line x1="17.2" y1="16.4999999999999" x2="14.2" y2="16.4999999999999"/>
    <line x1="14.2" y1="16.4999999999999" x2="14.2" y2="17.8"/>
    <line x1="14.2" y1="17.8" x2="12.0000000000001" y2="17.8"/>
    <line x1="12.0000000000001" y1="17.8" x2="12.0000000000001" y2="16.4999999999999"/>
    <line x1="12.0000000000001" y1="16.4999999999999" x2="10.0000000000001" y2="16.4999999999999"/>
    <line x1="10.0000000000001" y1="16.4999999999999" x2="10.0" y2="90.0"/>
    <line x1="10.0" y1="90.0" x2="36.9999999999969" y2="90.0"/>
    <line x1="36.9999999999969" y1="90.0" x2="36.9999999999969" y2="92.4999999999996"/>
    <line x1="36.9999999999969" y1="92.4999999999996" x2="33.1396396396429" y2="92.4999999999995"/>
    <line x1="33.1396396396429" y1="92.4999999999995" x2="10.0" y2="92.4999999999996"/>
    <line x1="10.0" y1="92.4999999999996" x2="10.0" y2="101.5"/>
    <line x1="10.0" y1="101.5" x2="41.9999999999969" y2="101.499999999999"/>
    <line x1="41.9999999999969" y1="101.499999999999" x2="41.999999999997" y2="81.4999999999995"/>
    <line x1="41.999999999997" y1="81.4999999999995" x2="38.9999999999969" y2="81.4999999999995"/>
    <line x1="38.9999999999969" y1="81.4999999999995" x2="38.9999999999969" y2="71.4999999999995"/>
    <line x1="38.9999999999969" y1="71.4999999999995" x2="36.9999999999969" y2="71.4999999999995"/>
    <line x1="36.9999999999969" y1="71.4999999999995" x2="36.9999999999969" y2="72.7999999999995"/>
    <line x1="36.9999999999969" y1="72.7999999999995" x2="34.7999999999969" y2="72.7999999999995"/>
    <line x1="34.7999999999969" y1="72.7999999999995" x2="34.7999999999969" y2="71.4999999999995"/>
    <line x1="34.7999999999969" y1="71.4999999999995" x2="31.7999999999969" y2="71.4999999999995"/>
    <line x1="31.7999999999969" y1="71.4999999999995" x2="31.7999999999969" y2="68.4999999999995"/>
    <line x1="31.7999999999969" y1="68.4999999999995" x2="34.7999999999969" y2="68.4999999999995"/>
    <line x1="34.7999999999969" y1="68.4999999999995" x2="34.7999999999969" y2="67.1999999999995"/>
    <line x1="34.7999999999969" y1="67.1999999999995" x2="36.9999999999969" y2="67.1999999999995"/>
    <line x1="36.9999999999969" y1="67.1999999999995" x2="36.9999999999969" y2="68.4999999999995"/>
    <line x1="36.9999999999969" y1="68.4999999999995" x2="38.9999999999969" y2="68.4999999999995"/>
    <line x1="38.9999999999969" y1="68.4999999999995" x2="38.999999999997" y2="58.4999999999995"/>
    <line x1="38.999999999997" y1="58.4999999999995" x2="41.999999999997" y2="58.4999999999995"/>
    <line x1="41.999999999997" y1="58.4999999999995" x2="41.999999999997" y2="33.0"/>
    <line x1="41.999999999997" y1="33.0" x2="38.999999999997" y2="33.0"/>
    <line x1="38.999999999997" y1="33.0" x2="38.999999999997" y2="23.0"/>
    <line x1="38.999999999997" y1="23.0" x2="36.999999999997" y2="23.0"/>
    <line x1="36.999999999997" y1="23.0" x2="36.999999999997" y2="24.3"/>
    <line x1="36.999999999997" y1="24.3" x2="34.799999999997" y2="24.3"/>
    <line x1="34.799999999997" y1="24.3" x2="34.799999999997" y2="23.0"/>
    <line x1="34.799999999997" y1="23.0" x2="31.799999999997" y2="23.0"/>
    <line x1="31.799999999997" y1="23.0" x2="31.799999999997" y2="20.0"/>
    <line x1="31.799999999997" y1="20.0" x2="34.799999999997" y2="20.0"/>
    <line x1="34.799999999997" y1="20.0" x2="34.799999999997" y2="18.7"/>
    <line x1="34.799999999997" y1="18.7" x2="36.999999999997" y2="18.7"/>
    <line x1="36.999999999997" y1="18.7" x2="36.999999999997" y2="20.0"/>
    <line x1="36.999999999997" y1="20.0" x2="38.999999999997" y2="20.0"/>
    <line x1="38.999999999997" y1="20.0" x2="38.999999999997" y2="10.0"/>
    <line x1="38.999999999997" y1="10.0" x2="10.0000000000001" y2="10.0"/>
  </g>
</svg>
