<?xml version="1.0" standalone="no"?>
<!DOCTYPE svg PUBLIC "-//W3C//DTD SVG 1.1//EN" "http://www.w3.org/Graphics/SVG/1.1/DTD/svg11.dtd">
<svg width="50.2219757203218mm" height="144.721955248519mm"
 viewBox="0 0 50.2219757203218 144.721955248519"
 xmlns="http://www.w3.org/2000/svg" version="1.1"
 xmlns:xlink="http://www.w3.org/1999/xlink">
<desc>Output from Flights of Ideas SVG Sketchup Plugin</desc>

  <g id="face0" fill="none" stroke="rgb(0,0,255)" stroke-width="1" stroke-miterlimit="4" stroke-dasharray="none" stroke-linejoin="round" stroke-linecap="round">
    <line x1="18.0" y1="13.0" x2="13.0" y2="13.0"/>
    <line x1="13.0" y1="13.0" x2="13.0" y2="33.0"/>
    <line x1="13.0" y1="33.0" x2="10.0" y2="33.0"/>
    <line x1="10.0" y1="33.0" x2="10.0" y2="53.0000000000001"/>
    <line x1="10.0" y1="53.0000000000001" x2="13.0" y2="53.0000000000001"/>
    <line x1="13.0" y1="53.0000000000001" x2="13.0" y2="63.0"/>
    <line x1="13.0" y1="63.0" x2="15.0" y2="63.0"/>
    <line x1="15.0" y1="63.0" x2="15.0" y2="61.7"/>
    <line x1="15.0" y1="61.7" x2="17.2" y2="61.7"/>
    <line x1="17.2" y1="61.7" x2="17.2" y2="63.0"/>
    <line x1="17.2" y1="63.0" x2="20.2" y2="63.0"/>
    <line x1="20.2" y1="63.0" x2="20.2" y2="66.0"/>
    <line x1="20.2" y1="66.0" x2="17.2" y2="66.0"/>
    <line x1="17.2" y1="66.0" x2="17.2" y2="67.3"/>
    <line x1="17.2" y1="67.3" x2="15.0" y2="67.3"/>
    <line x1="15.0" y1="67.3" x2="15.0" y2="66.0"/>
    <line x1="15.0" y1="66.0" x2="13.0" y2="66.0"/>
    <line x1="13.0" y1="66.0" x2="13.0" y2="76.0000000000001"/>
    <line x1="13.0" y1="76.0000000000001" x2="10.0" y2="76.0000000000001"/>
    <line x1="10.0" y1="76.0000000000001" x2="10.0" y2="96.0"/>
    <line x1="10.0" y1="96.0" x2="13.0" y2="96.0"/>
    <line x1="13.0" y1="96.0" x2="13.0" y2="131.721955248519"/>
    <line x1="13.0" y1="131.721955248519" x2="18.0" y2="131.721955248519"/>
    <line x1="18.0" y1="131.721955248519" x2="18.0" y2="129.721955248519"/>
    <line x1="18.0" y1="129.721955248519" x2="16.7" y2="129.721955248519"/>
    <line x1="16.7" y1="129.721955248519" x2="16.7" y2="127.521955248519"/>
    <line x1="16.7" y1="127.521955248519" x2="18.0" y2="127.521955248519"/>
    <line x1="18.0" y1="127.521955248519" x2="18.0" y2="124.521955248519"/>
    <line x1="18.0" y1="124.521955248519" x2="21.0" y2="124.521955248519"/>
    <line x1="21.0" y1="124.521955248519" x2="21.0" y2="127.521955248519"/>
    <line x1="21.0" y1="127.521955248519" x2="22.3" y2="127.521955248519"/>
    <line x1="22.3" y1="127.521955248519" x2="22.3" y2="129.721955248519"/>
    <line x1="22.3" y1="129.721955248519" x2="21.0" y2="129.721955248519"/>
    <line x1="21.0" y1="129.721955248519" x2="21.0" y2="131.721955248519"/>
    <line x1="21.0" y1="131.721955248519" x2="27.2219757203219" y2="131.721955248519"/>
    <line x1="27.2219757203219" y1="131.721955248519" x2="27.2219757203219" y2="134.721955248519"/>
    <line x1="27.2219757203219" y1="134.721955248519" x2="32.2219757203219" y2="134.721955248519"/>
    <line x1="32.2219757203219" y1="134.721955248519" x2="32.2219757203218" y2="131.721955248519"/>
    <line x1="32.2219757203218" y1="131.721955248519" x2="37.2219757203218" y2="131.721955248519"/>
    <line x1="37.2219757203218" y1="131.721955248519" x2="37.2219757203218" y2="121.721955248519"/>
    <line x1="37.2219757203218" y1="121.721955248519" x2="35.2219757203218" y2="121.721955248519"/>
    <line x1="35.2219757203218" y1="121.721955248519" x2="35.2219757203219" y2="123.02195524852"/>
    <line x1="35.2219757203219" y1="123.02195524852" x2="33.0219757203218" y2="123.021955248519"/>
    <line x1="33.0219757203218" y1="123.021955248519" x2="33.0219757203218" y2="121.721955248519"/>
    <line x1="33.0219757203218" y1="121.721955248519" x2="30.0219757203218" y2="121.721955248519"/>
    <line x1="30.0219757203218" y1="121.721955248519" x2="30.0219757203218" y2="118.721955248519"/>
    <line x1="30.0219757203218" y1="118.721955248519" x2="33.0219757203219" y2="118.721955248519"/>
    <line x1="33.0219757203219" y1="118.721955248519" x2="33.0219757203218" y2="117.421955248519"/>
    <line x1="33.0219757203218" y1="117.421955248519" x2="35.2219757203218" y2="117.421955248519"/>
    <line x1="35.2219757203218" y1="117.421955248519" x2="35.2219757203218" y2="118.721955248519"/>
    <line x1="35.2219757203218" y1="118.721955248519" x2="37.2219757203218" y2="118.721955248519"/>
    <line x1="37.2219757203218" y1="118.721955248519" x2="37.2219757203219" y2="108.721955248519"/>
    <line x1="37.2219757203219" y1="108.721955248519" x2="40.2219757203218" y2="108.721955248519"/>
    <line x1="40.2219757203218" y1="108.721955248519" x2="40.2219757203218" y2="36.0"/>
    <line x1="40.2219757203218" y1="36.0" x2="37.2219757203218" y2="36.0"/>
    <line x1="37.2219757203218" y1="36.0" x2="37.2219757203218" y2="26.0"/>
    <line x1="37.2219757203218" y1="26.0" x2="35.2219757203218" y2="26.0000000000001"/>
    <line x1="35.2219757203218" y1="26.0000000000001" x2="35.2219757203218" y2="27.3"/>
    <line x1="35.2219757203218" y1="27.3" x2="33.0219757203218" y2="27.3"/>
    <line x1="33.0219757203218" y1="27.3" x2="33.0219757203218" y2="26.0000000000001"/>
    <line x1="33.0219757203218" y1="26.0000000000001" x2="30.0219757203218" y2="26.0000000000001"/>
    <line x1="30.0219757203218" y1="26.0000000000001" x2="30.0219757203218" y2="23.0"/>
    <line x1="30.0219757203218" y1="23.0" x2="33.0219757203218" y2="23.0"/>
    <line x1="33.0219757203218" y1="23.0" x2="33.0219757203218" y2="21.7"/>
    <line x1="33.0219757203218" y1="21.7" x2="35.2219757203218" y2="21.7"/>
    <line x1="35.2219757203218" y1="21.7" x2="35.2219757203218" y2="23.0"/>
    <line x1="35.2219757203218" y1="23.0" x2="37.2219757203218" y2="23.0"/>
    <line x1="37.2219757203218" y1="23.0" x2="37.2219757203218" y2="13.0"/>
    <line x1="37.2219757203218" y1="13.0" x2="32.2219757203218" y2="13.0"/>
    <line x1="32.2219757203218" y1="13.0" x2="32.2219757203218" y2="10.0"/>
    <line x1="32.2219757203218" y1="10.0" x2="27.2219757203219" y2="10.0"/>
    <line x1="27.2219757203219" y1="10.0" x2="27.2219757203219" y2="13.0"/>
    <line x1="27.2219757203219" y1="13.0" x2="21.0" y2="13.0"/>
    <line x1="21.0" y1="13.0" x2="21.0" y2="15.0"/>
    <line x1="21.0" y1="15.0" x2="22.3" y2="15.0"/>
    <line x1="22.3" y1="15.0" x2="22.3" y2="17.2"/>
    <line x1="22.3" y1="17.2" x2="21.0" y2="17.2"/>
    <line x1="21.0" y1="17.2" x2="21.0" y2="20.2"/>
    <line x1="21.0" y1="20.2" x2="18.0" y2="20.2"/>
    <line x1="18.0" y1="20.2" x2="18.0" y2="17.2"/>
    <line x1="18.0" y1="17.2" x2="16.7" y2="17.2"/>
    <line x1="16.7" y1="17.2" x2="16.7" y2="15.0"/>
    <line x1="16.7" y1="15.0" x2="18.0" y2="15.0"/>
    <line x1="18.0" y1="15.0" x2="18.0" y2="13.0"/>
  </g>
</svg>
