<?xml version="1.0" standalone="no"?>
<!DOCTYPE svg PUBLIC "-//W3C//DTD SVG 1.1//EN" "http://www.w3.org/Graphics/SVG/1.1/DTD/svg11.dtd">
<svg width="111.5mm" height="153.721955248519mm"
 viewBox="0 0 111.5 153.721955248519"
 xmlns="http://www.w3.org/2000/svg" version="1.1"
 xmlns:xlink="http://www.w3.org/1999/xlink">
<desc>Output from Flights of Ideas SVG Sketchup Plugin</desc>

  <g id="face0" fill="none" stroke="rgb(0,0,255)" stroke-width="1" stroke-miterlimit="4" stroke-dasharray="none" stroke-linejoin="round" stroke-linecap="round">
    <line x1="10.0" y1="10.0" x2="10.0" y2="134.721955248519"/>
    <line x1="10.0" y1="134.721955248519" x2="31.2999999999999" y2="134.721955248519"/>
    <line x1="31.2999999999999" y1="134.721955248519" x2="31.3" y2="143.721955248519"/>
    <line x1="31.3" y1="143.721955248519" x2="34.3" y2="143.721955248519"/>
    <line x1="34.3" y1="143.721955248519" x2="34.3" y2="123.721955248519"/>
    <line x1="34.3" y1="123.721955248519" x2="37.3" y2="123.721955248519"/>
    <line x1="37.3" y1="123.721955248519" x2="37.3" y2="143.721955248519"/>
    <line x1="37.3" y1="143.721955248519" x2="43.0" y2="143.721955248519"/>
    <line x1="43.0" y1="143.721955248519" x2="43.0" y2="138.721955248519"/>
    <line x1="43.0" y1="138.721955248519" x2="68.5" y2="138.721955248519"/>
    <line x1="68.5" y1="138.721955248519" x2="68.5" y2="143.721955248519"/>
    <line x1="68.5" y1="143.721955248519" x2="74.2499999999988" y2="143.721955248519"/>
    <line x1="74.2499999999988" y1="143.721955248519" x2="74.2499999999988" y2="123.721955248519"/>
    <line x1="74.2499999999988" y1="123.721955248519" x2="77.2499999999989" y2="123.721955248519"/>
    <line x1="77.2499999999989" y1="123.721955248519" x2="77.2499999999989" y2="143.721955248519"/>
    <line x1="77.2499999999989" y1="143.721955248519" x2="80.2499999999989" y2="143.721955248519"/>
    <line x1="80.2499999999989" y1="143.721955248519" x2="80.2499999999989" y2="134.721955248519"/>
    <line x1="80.2499999999989" y1="134.721955248519" x2="101.5" y2="134.721955248519"/>
    <line x1="101.5" y1="134.721955248519" x2="101.5" y2="10.0"/>
    <line x1="101.5" y1="10.0" x2="10.0" y2="10.0"/>
    <line x1="71.2499999999989" y1="125.22195524852" x2="71.2499999999988" y2="135.721955248519"/>
    <line x1="71.2499999999988" y1="135.721955248519" x2="40.4" y2="135.721955248519"/>
    <line x1="40.4" y1="135.721955248519" x2="40.4" y2="125.22195524852"/>
    <line x1="40.4" y1="125.22195524852" x2="71.2499999999989" y2="125.22195524852"/>
    <line x1="95.5000000000001" y1="99.0" x2="95.5" y2="78.9999999999999"/>
    <line x1="95.5" y1="78.9999999999999" x2="98.5" y2="78.9999999999999"/>
    <line x1="98.5" y1="78.9999999999999" x2="98.5" y2="99.0"/>
    <line x1="98.5" y1="99.0" x2="95.5000000000001" y2="99.0"/>
    <line x1="95.5000000000001" y1="35.9999999999999" x2="98.5" y2="36.0000000000001"/>
    <line x1="98.5" y1="36.0000000000001" x2="98.5" y2="55.9999999999999"/>
    <line x1="98.5" y1="55.9999999999999" x2="95.5" y2="56.0"/>
    <line x1="95.5" y1="56.0" x2="95.5000000000001" y2="35.9999999999999"/>
    <line x1="97.3882285676538" y1="68.9488887394336" x2="97.0" y2="69.0000000000001"/>
    <line x1="97.0" y1="69.0000000000001" x2="96.6117714323463" y2="68.9488887394336"/>
    <line x1="96.6117714323463" y1="68.9488887394336" x2="96.25" y2="68.7990381056766"/>
    <line x1="96.25" y1="68.7990381056766" x2="95.9393398282202" y2="68.5606601717798"/>
    <line x1="95.9393398282202" y1="68.5606601717798" x2="95.7009618943233" y2="68.25"/>
    <line x1="95.7009618943233" y1="68.25" x2="95.5511112605664" y2="67.8882285676538"/>
    <line x1="95.5511112605664" y1="67.8882285676538" x2="95.5000000000001" y2="67.5"/>
    <line x1="95.5000000000001" y1="67.5" x2="95.5511112605664" y2="67.1117714323462"/>
    <line x1="95.5511112605664" y1="67.1117714323462" x2="95.7009618943233" y2="66.75"/>
    <line x1="95.7009618943233" y1="66.75" x2="95.9393398282202" y2="66.4393398282201"/>
    <line x1="95.9393398282202" y1="66.4393398282201" x2="96.25" y2="66.2009618943233"/>
    <line x1="96.25" y1="66.2009618943233" x2="96.6117714323463" y2="66.0511112605664"/>
    <line x1="96.6117714323463" y1="66.0511112605664" x2="97.0" y2="66.0"/>
    <line x1="97.0" y1="66.0" x2="97.3882285676538" y2="66.0511112605664"/>
    <line x1="97.3882285676538" y1="66.0511112605664" x2="97.75" y2="66.2009618943233"/>
    <line x1="97.75" y1="66.2009618943233" x2="98.0606601717798" y2="66.4393398282202"/>
    <line x1="98.0606601717798" y1="66.4393398282202" x2="98.2990381056767" y2="66.75"/>
    <line x1="98.2990381056767" y1="66.75" x2="98.4488887394336" y2="67.1117714323462"/>
    <line x1="98.4488887394336" y1="67.1117714323462" x2="98.5" y2="67.5"/>
    <line x1="98.5" y1="67.5" x2="98.4488887394336" y2="67.8882285676538"/>
    <line x1="98.4488887394336" y1="67.8882285676538" x2="98.2990381056767" y2="68.25"/>
    <line x1="98.2990381056767" y1="68.25" x2="98.0606601717798" y2="68.5606601717798"/>
    <line x1="98.0606601717798" y1="68.5606601717798" x2="97.75" y2="68.7990381056766"/>
    <line x1="97.75" y1="68.7990381056766" x2="97.3882285676538" y2="68.9488887394336"/>
    <line x1="13.0" y1="35.9999999999999" x2="16.0" y2="35.9999999999999"/>
    <line x1="16.0" y1="35.9999999999999" x2="16.0" y2="56.0"/>
    <line x1="16.0" y1="56.0" x2="13.0" y2="56.0"/>
    <line x1="13.0" y1="56.0" x2="13.0" y2="35.9999999999999"/>
    <line x1="13.0" y1="79.0" x2="16.0" y2="79.0"/>
    <line x1="16.0" y1="79.0" x2="16.0" y2="99.0"/>
    <line x1="16.0" y1="99.0" x2="13.0" y2="99.0"/>
    <line x1="13.0" y1="99.0" x2="13.0" y2="79.0"/>
    <line x1="14.8882285676538" y1="68.9488887394336" x2="14.5" y2="69.0"/>
    <line x1="14.5" y1="69.0" x2="14.1117714323463" y2="68.9488887394336"/>
    <line x1="14.1117714323463" y1="68.9488887394336" x2="13.75" y2="68.7990381056766"/>
    <line x1="13.75" y1="68.7990381056766" x2="13.4393398282202" y2="68.5606601717798"/>
    <line x1="13.4393398282202" y1="68.5606601717798" x2="13.2009618943234" y2="68.25"/>
    <line x1="13.2009618943234" y1="68.25" x2="13.0511112605664" y2="67.8882285676538"/>
    <line x1="13.0511112605664" y1="67.8882285676538" x2="13.0" y2="67.5"/>
    <line x1="13.0" y1="67.5" x2="13.0511112605664" y2="67.1117714323462"/>
    <line x1="13.0511112605664" y1="67.1117714323462" x2="13.2009618943234" y2="66.75"/>
    <line x1="13.2009618943234" y1="66.75" x2="13.4393398282202" y2="66.4393398282202"/>
    <line x1="13.4393398282202" y1="66.4393398282202" x2="13.7500000000001" y2="66.2009618943233"/>
    <line x1="13.7500000000001" y1="66.2009618943233" x2="14.1117714323463" y2="66.0511112605664"/>
    <line x1="14.1117714323463" y1="66.0511112605664" x2="14.5" y2="66.0"/>
    <line x1="14.5" y1="66.0" x2="14.8882285676538" y2="66.0511112605664"/>
    <line x1="14.8882285676538" y1="66.0511112605664" x2="15.25" y2="66.2009618943233"/>
    <line x1="15.25" y1="66.2009618943233" x2="15.5606601717799" y2="66.4393398282202"/>
    <line x1="15.5606601717799" y1="66.4393398282202" x2="15.7990381056766" y2="66.75"/>
    <line x1="15.7990381056766" y1="66.75" x2="15.9488887394336" y2="67.1117714323462"/>
    <line x1="15.9488887394336" y1="67.1117714323462" x2="16.0" y2="67.5"/>
    <line x1="16.0" y1="67.5" x2="15.9488887394336" y2="67.8882285676538"/>
    <line x1="15.9488887394336" y1="67.8882285676538" x2="15.7990381056766" y2="68.25"/>
    <line x1="15.7990381056766" y1="68.25" x2="15.5606601717799" y2="68.5606601717798"/>
    <line x1="15.5606601717799" y1="68.5606601717798" x2="15.25" y2="68.7990381056766"/>
    <line x1="15.25" y1="68.7990381056766" x2="14.8882285676538" y2="68.9488887394336"/>
    <line x1="78.5" y1="12.9999999999998" x2="78.5" y2="16.0000000000001"/>
    <line x1="78.5" y1="16.0000000000001" x2="33.0818944939377" y2="16.0"/>
    <line x1="33.0818944939377" y1="16.0" x2="33.0818944939377" y2="12.9999999999999"/>
    <line x1="33.0818944939377" y1="12.9999999999999" x2="78.5" y2="12.9999999999998"/>
    <line x1="23.0307832333713" y1="14.1117714323462" x2="23.0818944939377" y2="14.4999999999999"/>
    <line x1="23.0818944939377" y1="14.4999999999999" x2="23.0307832333713" y2="14.8882285676538"/>
    <line x1="23.0307832333713" y1="14.8882285676538" x2="22.8809325996143" y2="15.25"/>
    <line x1="22.8809325996143" y1="15.25" x2="22.6425546657175" y2="15.5606601717799"/>
    <line x1="22.6425546657175" y1="15.5606601717799" x2="22.3318944939377" y2="15.7990381056766"/>
    <line x1="22.3318944939377" y1="15.7990381056766" x2="21.9701230615915" y2="15.9488887394336"/>
    <line x1="21.9701230615915" y1="15.9488887394336" x2="21.5818944939377" y2="16.0"/>
    <line x1="21.5818944939377" y1="16.0" x2="21.1936659262839" y2="15.9488887394336"/>
    <line x1="21.1936659262839" y1="15.9488887394336" x2="20.8318944939377" y2="15.7990381056766"/>
    <line x1="20.8318944939377" y1="15.7990381056766" x2="20.5212343221579" y2="15.5606601717799"/>
    <line x1="20.5212343221579" y1="15.5606601717799" x2="20.282856388261" y2="15.25"/>
    <line x1="20.282856388261" y1="15.25" x2="20.1330057545041" y2="14.8882285676538"/>
    <line x1="20.1330057545041" y1="14.8882285676538" x2="20.0818944939376" y2="14.4999999999999"/>
    <line x1="20.0818944939376" y1="14.4999999999999" x2="20.1330057545041" y2="14.1117714323462"/>
    <line x1="20.1330057545041" y1="14.1117714323462" x2="20.282856388261" y2="13.7499999999999"/>
    <line x1="20.282856388261" y1="13.7499999999999" x2="20.5212343221579" y2="13.4393398282202"/>
    <line x1="20.5212343221579" y1="13.4393398282202" x2="20.8318944939377" y2="13.2009618943234"/>
    <line x1="20.8318944939377" y1="13.2009618943234" x2="21.1936659262839" y2="13.0511112605664"/>
    <line x1="21.1936659262839" y1="13.0511112605664" x2="21.5818944939377" y2="12.9999999999999"/>
    <line x1="21.5818944939377" y1="12.9999999999999" x2="21.9701230615915" y2="13.0511112605664"/>
    <line x1="21.9701230615915" y1="13.0511112605664" x2="22.3318944939377" y2="13.2009618943233"/>
    <line x1="22.3318944939377" y1="13.2009618943233" x2="22.6425546657175" y2="13.4393398282202"/>
    <line x1="22.6425546657175" y1="13.4393398282202" x2="22.8809325996143" y2="13.7499999999999"/>
    <line x1="22.8809325996143" y1="13.7499999999999" x2="23.0307832333713" y2="14.1117714323462"/>
    <line x1="88.5511112605664" y1="14.8882285676537" x2="88.5" y2="14.5000000000001"/>
    <line x1="88.5" y1="14.5000000000001" x2="88.5511112605664" y2="14.111771432346"/>
    <line x1="88.5511112605664" y1="14.111771432346" x2="88.7009618943234" y2="13.7500000000002"/>
    <line x1="88.7009618943234" y1="13.7500000000002" x2="88.9393398282202" y2="13.4393398282202"/>
    <line x1="88.9393398282202" y1="13.4393398282202" x2="89.25" y2="13.2009618943234"/>
    <line x1="89.25" y1="13.2009618943234" x2="89.6117714323462" y2="13.0511112605663"/>
    <line x1="89.6117714323462" y1="13.0511112605663" x2="90.0" y2="13.0000000000001"/>
    <line x1="90.0" y1="13.0000000000001" x2="90.3882285676538" y2="13.0511112605665"/>
    <line x1="90.3882285676538" y1="13.0511112605665" x2="90.75" y2="13.2009618943234"/>
    <line x1="90.75" y1="13.2009618943234" x2="91.0606601717798" y2="13.4393398282201"/>
    <line x1="91.0606601717798" y1="13.4393398282201" x2="91.2990381056767" y2="13.7499999999999"/>
    <line x1="91.2990381056767" y1="13.7499999999999" x2="91.4488887394336" y2="14.1117714323464"/>
    <line x1="91.4488887394336" y1="14.1117714323464" x2="91.5" y2="14.4999999999999"/>
    <line x1="91.5" y1="14.4999999999999" x2="91.4488887394336" y2="14.8882285676537"/>
    <line x1="91.4488887394336" y1="14.8882285676537" x2="91.2990381056767" y2="15.2499999999999"/>
    <line x1="91.2990381056767" y1="15.2499999999999" x2="91.0606601717798" y2="15.5606601717799"/>
    <line x1="91.0606601717798" y1="15.5606601717799" x2="90.75" y2="15.7990381056767"/>
    <line x1="90.75" y1="15.7990381056767" x2="90.3882285676538" y2="15.9488887394338"/>
    <line x1="90.3882285676538" y1="15.9488887394338" x2="90.0" y2="16.0000000000001"/>
    <line x1="90.0" y1="16.0000000000001" x2="89.6117714323462" y2="15.9488887394335"/>
    <line x1="89.6117714323462" y1="15.9488887394335" x2="89.25" y2="15.7990381056766"/>
    <line x1="89.25" y1="15.7990381056766" x2="88.9393398282202" y2="15.5606601717799"/>
    <line x1="88.9393398282202" y1="15.5606601717799" x2="88.7009618943234" y2="15.2500000000001"/>
    <line x1="88.7009618943234" y1="15.2500000000001" x2="88.5511112605664" y2="14.8882285676537"/>
    <line x1="77.2499999999989" y1="75.2219552485199" x2="77.2499999999989" y2="100.721955248519"/>
    <line x1="77.2499999999989" y1="100.721955248519" x2="74.2499999999988" y2="100.721955248519"/>
    <line x1="74.2499999999988" y1="100.721955248519" x2="74.2499999999988" y2="75.2219552485199"/>
    <line x1="74.2499999999988" y1="75.2219552485199" x2="77.2499999999989" y2="75.2219552485199"/>
    <line x1="37.3" y1="100.721955248519" x2="34.3" y2="100.721955248519"/>
    <line x1="34.3" y1="100.721955248519" x2="34.3" y2="75.2219552485199"/>
    <line x1="34.3" y1="75.2219552485199" x2="37.3" y2="75.2219552485199"/>
    <line x1="37.3" y1="75.2219552485199" x2="37.3" y2="100.721955248519"/>
    <line x1="35.8" y1="65.2219552485199" x2="35.4117714323462" y2="65.1708439879535"/>
    <line x1="35.4117714323462" y1="65.1708439879535" x2="35.05" y2="65.0209933541965"/>
    <line x1="35.05" y1="65.0209933541965" x2="34.7393398282202" y2="64.7826154202997"/>
    <line x1="34.7393398282202" y1="64.7826154202997" x2="34.5009618943233" y2="64.4719552485199"/>
    <line x1="34.5009618943233" y1="64.4719552485199" x2="34.3511112605664" y2="64.1101838161737"/>
    <line x1="34.3511112605664" y1="64.1101838161737" x2="34.3" y2="63.7219552485199"/>
    <line x1="34.3" y1="63.7219552485199" x2="34.3511112605664" y2="63.3337266808661"/>
    <line x1="34.3511112605664" y1="63.3337266808661" x2="34.5009618943233" y2="62.9719552485199"/>
    <line x1="34.5009618943233" y1="62.9719552485199" x2="34.7393398282202" y2="62.66129507674"/>
    <line x1="34.7393398282202" y1="62.66129507674" x2="35.05" y2="62.4229171428432"/>
    <line x1="35.05" y1="62.4229171428432" x2="35.4117714323462" y2="62.2730665090863"/>
    <line x1="35.4117714323462" y1="62.2730665090863" x2="35.8" y2="62.2219552485199"/>
    <line x1="35.8" y1="62.2219552485199" x2="36.1882285676538" y2="62.2730665090863"/>
    <line x1="36.1882285676538" y1="62.2730665090863" x2="36.55" y2="62.4229171428432"/>
    <line x1="36.55" y1="62.4229171428432" x2="36.8606601717798" y2="62.66129507674"/>
    <line x1="36.8606601717798" y1="62.66129507674" x2="37.0990381056767" y2="62.9719552485199"/>
    <line x1="37.0990381056767" y1="62.9719552485199" x2="37.2488887394336" y2="63.3337266808661"/>
    <line x1="37.2488887394336" y1="63.3337266808661" x2="37.3" y2="63.7219552485199"/>
    <line x1="37.3" y1="63.7219552485199" x2="37.2488887394336" y2="64.1101838161737"/>
    <line x1="37.2488887394336" y1="64.1101838161737" x2="37.0990381056767" y2="64.4719552485199"/>
    <line x1="37.0990381056767" y1="64.4719552485199" x2="36.8606601717798" y2="64.7826154202997"/>
    <line x1="36.8606601717798" y1="64.7826154202997" x2="36.55" y2="65.0209933541965"/>
    <line x1="36.55" y1="65.0209933541965" x2="36.1882285676538" y2="65.1708439879535"/>
    <line x1="36.1882285676538" y1="65.1708439879535" x2="35.8" y2="65.2219552485199"/>
    <line x1="35.8" y1="113.721955248519" x2="35.4117714323462" y2="113.670843987953"/>
    <line x1="35.4117714323462" y1="113.670843987953" x2="35.05" y2="113.520993354196"/>
    <line x1="35.05" y1="113.520993354196" x2="34.7393398282202" y2="113.282615420299"/>
    <line x1="34.7393398282202" y1="113.282615420299" x2="34.5009618943233" y2="112.971955248519"/>
    <line x1="34.5009618943233" y1="112.971955248519" x2="34.3511112605664" y2="112.610183816173"/>
    <line x1="34.3511112605664" y1="112.610183816173" x2="34.3" y2="112.221955248519"/>
    <line x1="34.3" y1="112.221955248519" x2="34.3511112605664" y2="111.833726680866"/>
    <line x1="34.3511112605664" y1="111.833726680866" x2="34.5009618943233" y2="111.471955248519"/>
    <line x1="34.5009618943233" y1="111.471955248519" x2="34.7393398282202" y2="111.16129507674"/>
    <line x1="34.7393398282202" y1="111.16129507674" x2="35.05" y2="110.922917142843"/>
    <line x1="35.05" y1="110.922917142843" x2="35.4117714323462" y2="110.773066509086"/>
    <line x1="35.4117714323462" y1="110.773066509086" x2="35.8" y2="110.721955248519"/>
    <line x1="35.8" y1="110.721955248519" x2="36.1882285676538" y2="110.773066509086"/>
    <line x1="36.1882285676538" y1="110.773066509086" x2="36.55" y2="110.922917142843"/>
    <line x1="36.55" y1="110.922917142843" x2="36.8606601717798" y2="111.16129507674"/>
    <line x1="36.8606601717798" y1="111.16129507674" x2="37.0990381056767" y2="111.471955248519"/>
    <line x1="37.0990381056767" y1="111.471955248519" x2="37.2488887394336" y2="111.833726680866"/>
    <line x1="37.2488887394336" y1="111.833726680866" x2="37.3" y2="112.221955248519"/>
    <line x1="37.3" y1="112.221955248519" x2="37.2488887394336" y2="112.610183816173"/>
    <line x1="37.2488887394336" y1="112.610183816173" x2="37.0990381056767" y2="112.971955248519"/>
    <line x1="37.0990381056767" y1="112.971955248519" x2="36.8606601717798" y2="113.282615420299"/>
    <line x1="36.8606601717798" y1="113.282615420299" x2="36.55" y2="113.520993354196"/>
    <line x1="36.55" y1="113.520993354196" x2="36.1882285676538" y2="113.670843987953"/>
    <line x1="36.1882285676538" y1="113.670843987953" x2="35.8" y2="113.721955248519"/>
    <line x1="75.7499999999988" y1="65.2219552485199" x2="75.3617714323451" y2="65.1708439879535"/>
    <line x1="75.3617714323451" y1="65.1708439879535" x2="74.9999999999989" y2="65.0209933541965"/>
    <line x1="74.9999999999989" y1="65.0209933541965" x2="74.689339828219" y2="64.7826154202997"/>
    <line x1="74.689339828219" y1="64.7826154202997" x2="74.4509618943222" y2="64.4719552485199"/>
    <line x1="74.4509618943222" y1="64.4719552485199" x2="74.3011112605652" y2="64.1101838161737"/>
    <line x1="74.3011112605652" y1="64.1101838161737" x2="74.2499999999988" y2="63.7219552485199"/>
    <line x1="74.2499999999988" y1="63.7219552485199" x2="74.3011112605652" y2="63.3337266808661"/>
    <line x1="74.3011112605652" y1="63.3337266808661" x2="74.4509618943222" y2="62.9719552485199"/>
    <line x1="74.4509618943222" y1="62.9719552485199" x2="74.689339828219" y2="62.66129507674"/>
    <line x1="74.689339828219" y1="62.66129507674" x2="74.9999999999988" y2="62.4229171428432"/>
    <line x1="74.9999999999988" y1="62.4229171428432" x2="75.3617714323451" y2="62.2730665090863"/>
    <line x1="75.3617714323451" y1="62.2730665090863" x2="75.7499999999988" y2="62.2219552485199"/>
    <line x1="75.7499999999988" y1="62.2219552485199" x2="76.1382285676527" y2="62.2730665090863"/>
    <line x1="76.1382285676527" y1="62.2730665090863" x2="76.4999999999989" y2="62.4229171428432"/>
    <line x1="76.4999999999989" y1="62.4229171428432" x2="76.8106601717787" y2="62.66129507674"/>
    <line x1="76.8106601717787" y1="62.66129507674" x2="77.0490381056755" y2="62.9719552485199"/>
    <line x1="77.0490381056755" y1="62.9719552485199" x2="77.1988887394325" y2="63.3337266808661"/>
    <line x1="77.1988887394325" y1="63.3337266808661" x2="77.2499999999989" y2="63.7219552485199"/>
    <line x1="77.2499999999989" y1="63.7219552485199" x2="77.1988887394324" y2="64.1101838161737"/>
    <line x1="77.1988887394324" y1="64.1101838161737" x2="77.0490381056755" y2="64.4719552485199"/>
    <line x1="77.0490381056755" y1="64.4719552485199" x2="76.8106601717787" y2="64.7826154202997"/>
    <line x1="76.8106601717787" y1="64.7826154202997" x2="76.4999999999989" y2="65.0209933541965"/>
    <line x1="76.4999999999989" y1="65.0209933541965" x2="76.1382285676527" y2="65.1708439879535"/>
    <line x1="76.1382285676527" y1="65.1708439879535" x2="75.7499999999988" y2="65.2219552485199"/>
    <line x1="75.7499999999989" y1="113.721955248519" x2="75.3617714323451" y2="113.670843987953"/>
    <line x1="75.3617714323451" y1="113.670843987953" x2="74.9999999999988" y2="113.520993354196"/>
    <line x1="74.9999999999988" y1="113.520993354196" x2="74.689339828219" y2="113.282615420299"/>
    <line x1="74.689339828219" y1="113.282615420299" x2="74.4509618943222" y2="112.971955248519"/>
    <line x1="74.4509618943222" y1="112.971955248519" x2="74.3011112605652" y2="112.610183816173"/>
    <line x1="74.3011112605652" y1="112.610183816173" x2="74.2499999999988" y2="112.221955248519"/>
    <line x1="74.2499999999988" y1="112.221955248519" x2="74.3011112605652" y2="111.833726680866"/>
    <line x1="74.3011112605652" y1="111.833726680866" x2="74.4509618943222" y2="111.471955248519"/>
    <line x1="74.4509618943222" y1="111.471955248519" x2="74.6893398282191" y2="111.16129507674"/>
    <line x1="74.6893398282191" y1="111.16129507674" x2="74.9999999999988" y2="110.922917142843"/>
    <line x1="74.9999999999988" y1="110.922917142843" x2="75.3617714323451" y2="110.773066509086"/>
    <line x1="75.3617714323451" y1="110.773066509086" x2="75.7499999999988" y2="110.721955248519"/>
    <line x1="75.7499999999988" y1="110.721955248519" x2="76.1382285676527" y2="110.773066509086"/>
    <line x1="76.1382285676527" y1="110.773066509086" x2="76.4999999999989" y2="110.922917142843"/>
    <line x1="76.4999999999989" y1="110.922917142843" x2="76.8106601717787" y2="111.16129507674"/>
    <line x1="76.8106601717787" y1="111.16129507674" x2="77.0490381056755" y2="111.471955248519"/>
    <line x1="77.0490381056755" y1="111.471955248519" x2="77.1988887394325" y2="111.833726680866"/>
    <line x1="77.1988887394325" y1="111.833726680866" x2="77.2499999999989" y2="112.221955248519"/>
    <line x1="77.2499999999989" y1="112.221955248519" x2="77.1988887394325" y2="112.610183816173"/>
    <line x1="77.1988887394325" y1="112.610183816173" x2="77.0490381056755" y2="112.971955248519"/>
    <line x1="77.0490381056755" y1="112.971955248519" x2="76.8106601717787" y2="113.282615420299"/>
    <line x1="76.8106601717787" y1="113.282615420299" x2="76.4999999999989" y2="113.520993354196"/>
    <line x1="76.4999999999989" y1="113.520993354196" x2="76.1382285676527" y2="113.670843987953"/>
    <line x1="76.1382285676527" y1="113.670843987953" x2="75.7499999999989" y2="113.721955248519"/>
  </g>
</svg>
