<?xml version="1.0" standalone="no"?>
<!DOCTYPE svg PUBLIC "-//W3C//DTD SVG 1.1//EN" "http://www.w3.org/Graphics/SVG/1.1/DTD/svg11.dtd">
<svg width="72.9499999999989mm" height="35.0000000000001mm"
 viewBox="0 0 72.9499999999989 35.0000000000001"
 xmlns="http://www.w3.org/2000/svg" version="1.1"
 xmlns:xlink="http://www.w3.org/1999/xlink">
<desc>Output from Flights of Ideas SVG Sketchup Plugin</desc>

  <g id="face0" fill="none" stroke="rgb(0,0,255)" stroke-width="1" stroke-miterlimit="4" stroke-dasharray="none" stroke-linejoin="round" stroke-linecap="round">
    <line x1="10.0" y1="25.0000000000001" x2="62.9499999999989" y2="25.0000000000001"/>
    <line x1="62.9499999999989" y1="25.0000000000001" x2="62.9499999999989" y2="10.0"/>
    <line x1="62.9499999999989" y1="10.0" x2="10.0" y2="10.0"/>
    <line x1="10.0" y1="10.0" x2="10.0" y2="25.0000000000001"/>
    <line x1="56.8382285676527" y1="16.4488887394336" x2="56.4499999999989" y2="16.5"/>
    <line x1="56.4499999999989" y1="16.5" x2="56.0617714323451" y2="16.4488887394336"/>
    <line x1="56.0617714323451" y1="16.4488887394336" x2="55.6999999999989" y2="16.2990381056767"/>
    <line x1="55.6999999999989" y1="16.2990381056767" x2="55.3893398282191" y2="16.0606601717798"/>
    <line x1="55.3893398282191" y1="16.0606601717798" x2="55.1509618943222" y2="15.7500000000001"/>
    <line x1="55.1509618943222" y1="15.7500000000001" x2="55.0011112605653" y2="15.3882285676538"/>
    <line x1="55.0011112605653" y1="15.3882285676538" x2="54.9499999999989" y2="15.0"/>
    <line x1="54.9499999999989" y1="15.0" x2="55.0011112605653" y2="14.6117714323462"/>
    <line x1="55.0011112605653" y1="14.6117714323462" x2="55.1509618943222" y2="14.2500000000001"/>
    <line x1="55.1509618943222" y1="14.2500000000001" x2="55.3893398282191" y2="13.9393398282202"/>
    <line x1="55.3893398282191" y1="13.9393398282202" x2="55.6999999999989" y2="13.7009618943234"/>
    <line x1="55.6999999999989" y1="13.7009618943234" x2="56.0617714323451" y2="13.5511112605664"/>
    <line x1="56.0617714323451" y1="13.5511112605664" x2="56.4499999999989" y2="13.5000000000001"/>
    <line x1="56.4499999999989" y1="13.5000000000001" x2="56.8382285676527" y2="13.5511112605665"/>
    <line x1="56.8382285676527" y1="13.5511112605665" x2="57.1999999999989" y2="13.7009618943234"/>
    <line x1="57.1999999999989" y1="13.7009618943234" x2="57.5106601717787" y2="13.9393398282202"/>
    <line x1="57.5106601717787" y1="13.9393398282202" x2="57.7490381056755" y2="14.2500000000001"/>
    <line x1="57.7490381056755" y1="14.2500000000001" x2="57.8988887394325" y2="14.6117714323462"/>
    <line x1="57.8988887394325" y1="14.6117714323462" x2="57.9499999999989" y2="15.0"/>
    <line x1="57.9499999999989" y1="15.0" x2="57.8988887394325" y2="15.3882285676538"/>
    <line x1="57.8988887394325" y1="15.3882285676538" x2="57.7490381056755" y2="15.7500000000001"/>
    <line x1="57.7490381056755" y1="15.7500000000001" x2="57.5106601717787" y2="16.0606601717798"/>
    <line x1="57.5106601717787" y1="16.0606601717798" x2="57.1999999999989" y2="16.2990381056767"/>
    <line x1="57.1999999999989" y1="16.2990381056767" x2="56.8382285676527" y2="16.4488887394336"/>
    <line x1="16.8882285676538" y1="16.4488887394336" x2="16.5" y2="16.5"/>
    <line x1="16.5" y1="16.5" x2="16.1117714323462" y2="16.4488887394336"/>
    <line x1="16.1117714323462" y1="16.4488887394336" x2="15.75" y2="16.2990381056767"/>
    <line x1="15.75" y1="16.2990381056767" x2="15.4393398282202" y2="16.0606601717798"/>
    <line x1="15.4393398282202" y1="16.0606601717798" x2="15.2009618943233" y2="15.7500000000001"/>
    <line x1="15.2009618943233" y1="15.7500000000001" x2="15.0511112605664" y2="15.3882285676538"/>
    <line x1="15.0511112605664" y1="15.3882285676538" x2="15.0" y2="15.0000000000001"/>
    <line x1="15.0" y1="15.0000000000001" x2="15.0511112605664" y2="14.6117714323462"/>
    <line x1="15.0511112605664" y1="14.6117714323462" x2="15.2009618943233" y2="14.2500000000001"/>
    <line x1="15.2009618943233" y1="14.2500000000001" x2="15.4393398282202" y2="13.9393398282202"/>
    <line x1="15.4393398282202" y1="13.9393398282202" x2="15.75" y2="13.7009618943234"/>
    <line x1="15.75" y1="13.7009618943234" x2="16.1117714323462" y2="13.5511112605665"/>
    <line x1="16.1117714323462" y1="13.5511112605665" x2="16.5" y2="13.5000000000001"/>
    <line x1="16.5" y1="13.5000000000001" x2="16.8882285676538" y2="13.5511112605665"/>
    <line x1="16.8882285676538" y1="13.5511112605665" x2="17.25" y2="13.7009618943234"/>
    <line x1="17.25" y1="13.7009618943234" x2="17.5606601717798" y2="13.9393398282202"/>
    <line x1="17.5606601717798" y1="13.9393398282202" x2="17.7990381056766" y2="14.25"/>
    <line x1="17.7990381056766" y1="14.25" x2="17.9488887394336" y2="14.6117714323462"/>
    <line x1="17.9488887394336" y1="14.6117714323462" x2="18.0" y2="15.0"/>
    <line x1="18.0" y1="15.0" x2="17.9488887394336" y2="15.3882285676538"/>
    <line x1="17.9488887394336" y1="15.3882285676538" x2="17.7990381056766" y2="15.7500000000001"/>
    <line x1="17.7990381056766" y1="15.7500000000001" x2="17.5606601717798" y2="16.0606601717798"/>
    <line x1="17.5606601717798" y1="16.0606601717798" x2="17.25" y2="16.2990381056767"/>
    <line x1="17.25" y1="16.2990381056767" x2="16.8882285676538" y2="16.4488887394336"/>
  </g>
</svg>
