<?xml version="1.0" standalone="no"?>
<!DOCTYPE svg PUBLIC "-//W3C//DTD SVG 1.1//EN" "http://www.w3.org/Graphics/SVG/1.1/DTD/svg11.dtd">
<svg width="111.5mm" height="50.2219757203218mm"
 viewBox="0 0 111.5 50.2219757203218"
 xmlns="http://www.w3.org/2000/svg" version="1.1"
 xmlns:xlink="http://www.w3.org/1999/xlink">
<desc>Output from Flights of Ideas SVG Sketchup Plugin</desc>

  <g id="face0" fill="none" stroke="rgb(0,0,255)" stroke-width="1" stroke-miterlimit="4" stroke-dasharray="none" stroke-linejoin="round" stroke-linecap="round">
    <line x1="68.5000000000001" y1="10.0" x2="43.0" y2="10.0"/>
    <line x1="43.0" y1="10.0" x2="43.0" y2="12.9999999999999"/>
    <line x1="43.0" y1="12.9999999999999" x2="31.3" y2="13.0000000000001"/>
    <line x1="31.3" y1="13.0000000000001" x2="31.3" y2="10.0"/>
    <line x1="31.3" y1="10.0" x2="10.0" y2="10.0"/>
    <line x1="10.0" y1="10.0" x2="10.0" y2="37.2219757203218"/>
    <line x1="10.0" y1="37.2219757203218" x2="20.0" y2="37.2219757203218"/>
    <line x1="20.0" y1="37.2219757203218" x2="20.0" y2="40.2219757203218"/>
    <line x1="20.0" y1="40.2219757203218" x2="40.0" y2="40.2219757203218"/>
    <line x1="40.0" y1="40.2219757203218" x2="40.0" y2="37.2219757203218"/>
    <line x1="40.0" y1="37.2219757203218" x2="71.5000000000001" y2="37.2219757203218"/>
    <line x1="71.5000000000001" y1="37.2219757203218" x2="71.5000000000001" y2="40.2219757203218"/>
    <line x1="71.5000000000001" y1="40.2219757203218" x2="91.5000000000001" y2="40.2219757203218"/>
    <line x1="91.5000000000001" y1="40.2219757203218" x2="91.5000000000001" y2="37.2219757203218"/>
    <line x1="91.5000000000001" y1="37.2219757203218" x2="101.5" y2="37.2219757203218"/>
    <line x1="101.5" y1="37.2219757203218" x2="101.5" y2="10.0"/>
    <line x1="101.5" y1="10.0" x2="80.2499999999989" y2="10.0"/>
    <line x1="80.2499999999989" y1="10.0" x2="80.2499999999989" y2="13.0"/>
    <line x1="80.2499999999989" y1="13.0" x2="68.5000000000001" y2="13.0"/>
    <line x1="68.5000000000001" y1="13.0" x2="68.5000000000001" y2="10.0"/>
    <line x1="13.2009618943234" y1="20.25" x2="13.0511112605665" y2="19.8882285676538"/>
    <line x1="13.0511112605665" y1="19.8882285676538" x2="13.0000000000001" y2="19.5"/>
    <line x1="13.0000000000001" y1="19.5" x2="13.0511112605665" y2="19.1117714323462"/>
    <line x1="13.0511112605665" y1="19.1117714323462" x2="13.2009618943234" y2="18.7499999999999"/>
    <line x1="13.2009618943234" y1="18.7499999999999" x2="13.4393398282202" y2="18.4393398282202"/>
    <line x1="13.4393398282202" y1="18.4393398282202" x2="13.7500000000001" y2="18.2009618943234"/>
    <line x1="13.7500000000001" y1="18.2009618943234" x2="14.1117714323463" y2="18.0511112605664"/>
    <line x1="14.1117714323463" y1="18.0511112605664" x2="14.5000000000001" y2="18.0"/>
    <line x1="14.5000000000001" y1="18.0" x2="14.8882285676539" y2="18.0511112605664"/>
    <line x1="14.8882285676539" y1="18.0511112605664" x2="15.2500000000001" y2="18.2009618943234"/>
    <line x1="15.2500000000001" y1="18.2009618943234" x2="15.5606601717799" y2="18.4393398282202"/>
    <line x1="15.5606601717799" y1="18.4393398282202" x2="15.7990381056767" y2="18.75"/>
    <line x1="15.7990381056767" y1="18.75" x2="15.9488887394337" y2="19.1117714323462"/>
    <line x1="15.9488887394337" y1="19.1117714323462" x2="16.0" y2="19.4999999999999"/>
    <line x1="16.0" y1="19.4999999999999" x2="15.9488887394337" y2="19.8882285676538"/>
    <line x1="15.9488887394337" y1="19.8882285676538" x2="15.7990381056767" y2="20.25"/>
    <line x1="15.7990381056767" y1="20.25" x2="15.5606601717799" y2="20.5606601717798"/>
    <line x1="15.5606601717799" y1="20.5606601717798" x2="15.2500000000001" y2="20.7990381056766"/>
    <line x1="15.2500000000001" y1="20.7990381056766" x2="14.8882285676538" y2="20.9488887394336"/>
    <line x1="14.8882285676538" y1="20.9488887394336" x2="14.5000000000001" y2="20.9999999999999"/>
    <line x1="14.5000000000001" y1="20.9999999999999" x2="14.1117714323463" y2="20.9488887394336"/>
    <line x1="14.1117714323463" y1="20.9488887394336" x2="13.7500000000001" y2="20.7990381056767"/>
    <line x1="13.7500000000001" y1="20.7990381056767" x2="13.4393398282202" y2="20.5606601717798"/>
    <line x1="13.4393398282202" y1="20.5606601717798" x2="13.2009618943234" y2="20.25"/>
    <line x1="95.9393398282202" y1="20.5606601717798" x2="95.7009618943234" y2="20.25"/>
    <line x1="95.7009618943234" y1="20.25" x2="95.5511112605665" y2="19.8882285676538"/>
    <line x1="95.5511112605665" y1="19.8882285676538" x2="95.5000000000001" y2="19.5"/>
    <line x1="95.5000000000001" y1="19.5" x2="95.5511112605665" y2="19.1117714323462"/>
    <line x1="95.5511112605665" y1="19.1117714323462" x2="95.7009618943234" y2="18.75"/>
    <line x1="95.7009618943234" y1="18.75" x2="95.9393398282202" y2="18.4393398282202"/>
    <line x1="95.9393398282202" y1="18.4393398282202" x2="96.2500000000001" y2="18.2009618943234"/>
    <line x1="96.2500000000001" y1="18.2009618943234" x2="96.6117714323463" y2="18.0511112605664"/>
    <line x1="96.6117714323463" y1="18.0511112605664" x2="97.0000000000001" y2="18.0"/>
    <line x1="97.0000000000001" y1="18.0" x2="97.3882285676538" y2="18.0511112605664"/>
    <line x1="97.3882285676538" y1="18.0511112605664" x2="97.75" y2="18.2009618943234"/>
    <line x1="97.75" y1="18.2009618943234" x2="98.0606601717799" y2="18.4393398282202"/>
    <line x1="98.0606601717799" y1="18.4393398282202" x2="98.2990381056767" y2="18.75"/>
    <line x1="98.2990381056767" y1="18.75" x2="98.4488887394337" y2="19.1117714323462"/>
    <line x1="98.4488887394337" y1="19.1117714323462" x2="98.5000000000001" y2="19.5"/>
    <line x1="98.5000000000001" y1="19.5" x2="98.4488887394337" y2="19.8882285676538"/>
    <line x1="98.4488887394337" y1="19.8882285676538" x2="98.2990381056767" y2="20.25"/>
    <line x1="98.2990381056767" y1="20.25" x2="98.0606601717799" y2="20.5606601717798"/>
    <line x1="98.0606601717799" y1="20.5606601717798" x2="97.75" y2="20.7990381056766"/>
    <line x1="97.75" y1="20.7990381056766" x2="97.3882285676538" y2="20.9488887394336"/>
    <line x1="97.3882285676538" y1="20.9488887394336" x2="97.0000000000001" y2="21.0"/>
    <line x1="97.0000000000001" y1="21.0" x2="96.6117714323463" y2="20.9488887394336"/>
    <line x1="96.6117714323463" y1="20.9488887394336" x2="96.2500000000001" y2="20.7990381056766"/>
    <line x1="96.2500000000001" y1="20.7990381056766" x2="95.9393398282202" y2="20.5606601717798"/>
    <line x1="89.4506489733264" y1="12.6334844922669" x2="90.4859251537365" y2="12.4971877974231"/>
    <line x1="90.4859251537365" y1="12.4971877974231" x2="91.5212013341466" y2="12.6334844922669"/>
    <line x1="91.5212013341466" y1="12.6334844922669" x2="92.4859251537365" y2="13.0330861822854"/>
    <line x1="92.4859251537365" y1="13.0330861822854" x2="93.3143522784827" y2="13.668760672677"/>
    <line x1="93.3143522784827" y1="13.668760672677" x2="93.9500267688742" y2="14.4971877974231"/>
    <line x1="93.9500267688742" y1="14.4971877974231" x2="94.3496284588928" y2="15.461911617013"/>
    <line x1="94.3496284588928" y1="15.461911617013" x2="94.4859251537364" y2="16.4971877974231"/>
    <line x1="94.4859251537364" y1="16.4971877974231" x2="94.3496284588928" y2="17.5324639778332"/>
    <line x1="94.3496284588928" y1="17.5324639778332" x2="93.9500267688742" y2="18.4971877974231"/>
    <line x1="93.9500267688742" y1="18.4971877974231" x2="93.3143522784827" y2="19.3256149221693"/>
    <line x1="93.3143522784827" y1="19.3256149221693" x2="92.4859251537365" y2="19.9612894125609"/>
    <line x1="92.4859251537365" y1="19.9612894125609" x2="91.5212013341466" y2="20.3608911025794"/>
    <line x1="91.5212013341466" y1="20.3608911025794" x2="90.4859251537365" y2="20.4971877974231"/>
    <line x1="90.4859251537365" y1="20.4971877974231" x2="89.4506489733264" y2="20.3608911025794"/>
    <line x1="89.4506489733264" y1="20.3608911025794" x2="88.4859251537365" y2="19.9612894125609"/>
    <line x1="88.4859251537365" y1="19.9612894125609" x2="87.6574980289903" y2="19.3256149221693"/>
    <line x1="87.6574980289903" y1="19.3256149221693" x2="87.0218235385987" y2="18.4971877974231"/>
    <line x1="87.0218235385987" y1="18.4971877974231" x2="86.6222218485802" y2="17.5324639778332"/>
    <line x1="86.6222218485802" y1="17.5324639778332" x2="86.4859251537365" y2="16.4971877974231"/>
    <line x1="86.4859251537365" y1="16.4971877974231" x2="86.6222218485802" y2="15.4619116170131"/>
    <line x1="86.6222218485802" y1="15.4619116170131" x2="87.0218235385987" y2="14.4971877974231"/>
    <line x1="87.0218235385987" y1="14.4971877974231" x2="87.6574980289903" y2="13.668760672677"/>
    <line x1="87.6574980289903" y1="13.668760672677" x2="88.4859251537365" y2="13.0330861822854"/>
    <line x1="88.4859251537365" y1="13.0330861822854" x2="89.4506489733264" y2="12.6334844922669"/>
    <line x1="19.9787986658465" y1="12.6334844922669" x2="21.0140748462566" y2="12.4971877974233"/>
    <line x1="21.0140748462566" y1="12.4971877974233" x2="22.0493510266667" y2="12.6334844922669"/>
    <line x1="22.0493510266667" y1="12.6334844922669" x2="23.0140748462566" y2="13.0330861822855"/>
    <line x1="23.0140748462566" y1="13.0330861822855" x2="23.8425019710028" y2="13.6687606726771"/>
    <line x1="23.8425019710028" y1="13.6687606726771" x2="24.4781764613943" y2="14.4971877974231"/>
    <line x1="24.4781764613943" y1="14.4971877974231" x2="24.8777781514129" y2="15.461911617013"/>
    <line x1="24.8777781514129" y1="15.461911617013" x2="25.0140748462566" y2="16.4971877974232"/>
    <line x1="25.0140748462566" y1="16.4971877974232" x2="24.8777781514129" y2="17.5324639778332"/>
    <line x1="24.8777781514129" y1="17.5324639778332" x2="24.4781764613943" y2="18.4971877974231"/>
    <line x1="24.4781764613943" y1="18.4971877974231" x2="23.8425019710028" y2="19.3256149221693"/>
    <line x1="23.8425019710028" y1="19.3256149221693" x2="23.0140748462566" y2="19.9612894125609"/>
    <line x1="23.0140748462566" y1="19.9612894125609" x2="22.0493510266667" y2="20.3608911025794"/>
    <line x1="22.0493510266667" y1="20.3608911025794" x2="21.0140748462566" y2="20.4971877974231"/>
    <line x1="21.0140748462566" y1="20.4971877974231" x2="19.9787986658465" y2="20.3608911025794"/>
    <line x1="19.9787986658465" y1="20.3608911025794" x2="19.0140748462566" y2="19.9612894125609"/>
    <line x1="19.0140748462566" y1="19.9612894125609" x2="18.1856477215104" y2="19.3256149221693"/>
    <line x1="18.1856477215104" y1="19.3256149221693" x2="17.5499732311189" y2="18.4971877974232"/>
    <line x1="17.5499732311189" y1="18.4971877974232" x2="17.1503715411004" y2="17.5324639778332"/>
    <line x1="17.1503715411004" y1="17.5324639778332" x2="17.0140748462566" y2="16.4971877974232"/>
    <line x1="17.0140748462566" y1="16.4971877974232" x2="17.1503715411004" y2="15.4619116170131"/>
    <line x1="17.1503715411004" y1="15.4619116170131" x2="17.5499732311189" y2="14.4971877974231"/>
    <line x1="17.5499732311189" y1="14.4971877974231" x2="18.1856477215104" y2="13.668760672677"/>
    <line x1="18.1856477215104" y1="13.668760672677" x2="19.0140748462566" y2="13.0330861822854"/>
    <line x1="19.0140748462566" y1="13.0330861822854" x2="19.9787986658465" y2="12.6334844922669"/>
    <line x1="55.1029523872399" y1="13.6571611545988" x2="55.7499999999961" y2="13.5719757203215"/>
    <line x1="55.7499999999961" y1="13.5719757203215" x2="56.3970476127524" y2="13.6571611545988"/>
    <line x1="56.3970476127524" y1="13.6571611545988" x2="56.9999999999961" y2="13.9069122108604"/>
    <line x1="56.9999999999961" y1="13.9069122108604" x2="57.5177669529625" y2="14.3042087673551"/>
    <line x1="57.5177669529625" y1="14.3042087673551" x2="57.9150635094572" y2="14.8219757203215"/>
    <line x1="57.9150635094572" y1="14.8219757203215" x2="58.1648145657188" y2="15.4249281075652"/>
    <line x1="58.1648145657188" y1="15.4249281075652" x2="58.2499999999961" y2="16.0719757203215"/>
    <line x1="58.2499999999961" y1="16.0719757203215" x2="58.1648145657188" y2="16.7190233330778"/>
    <line x1="58.1648145657188" y1="16.7190233330778" x2="57.9150635094572" y2="17.3219757203215"/>
    <line x1="57.9150635094572" y1="17.3219757203215" x2="57.5177669529625" y2="17.8397426732878"/>
    <line x1="57.5177669529625" y1="17.8397426732878" x2="56.9999999999961" y2="18.2370392297826"/>
    <line x1="56.9999999999961" y1="18.2370392297826" x2="56.3970476127524" y2="18.4867902860441"/>
    <line x1="56.3970476127524" y1="18.4867902860441" x2="55.7499999999961" y2="18.5719757203215"/>
    <line x1="55.7499999999961" y1="18.5719757203215" x2="55.1029523872399" y2="18.4867902860441"/>
    <line x1="55.1029523872399" y1="18.4867902860441" x2="54.4999999999961" y2="18.2370392297826"/>
    <line x1="54.4999999999961" y1="18.2370392297826" x2="53.9822330470298" y2="17.8397426732878"/>
    <line x1="53.9822330470298" y1="17.8397426732878" x2="53.584936490535" y2="17.3219757203215"/>
    <line x1="53.584936490535" y1="17.3219757203215" x2="53.3351854342735" y2="16.7190233330778"/>
    <line x1="53.3351854342735" y1="16.7190233330778" x2="53.2499999999961" y2="16.0719757203215"/>
    <line x1="53.2499999999961" y1="16.0719757203215" x2="53.3351854342735" y2="15.4249281075652"/>
    <line x1="53.3351854342735" y1="15.4249281075652" x2="53.584936490535" y2="14.8219757203215"/>
    <line x1="53.584936490535" y1="14.8219757203215" x2="53.9822330470298" y2="14.3042087673551"/>
    <line x1="53.9822330470298" y1="14.3042087673551" x2="54.4999999999961" y2="13.9069122108604"/>
    <line x1="54.4999999999961" y1="13.9069122108604" x2="55.1029523872399" y2="13.6571611545988"/>
  </g>
</svg>
