<?xml version="1.0" standalone="no"?>
<!DOCTYPE svg PUBLIC "-//W3C//DTD SVG 1.1//EN" "http://www.w3.org/Graphics/SVG/1.1/DTD/svg11.dtd">
<svg width="248.0002mm" height="156.0002mm"
 viewBox="0 0 248.0002 156.0002"
 xmlns="http://www.w3.org/2000/svg" version="1.1"
 xmlns:xlink="http://www.w3.org/1999/xlink">
<desc>Output from Flights of Ideas SVG Sketchup Plugin</desc>

  <g id="face0" fill="none" stroke="rgb(0,0,255)" stroke-width="1" stroke-miterlimit="4" stroke-dasharray="none" stroke-linejoin="round" stroke-linecap="round">
    <line x1="3.0001" y1="0.0001" x2="3.0001" y2="10.0001000000001"/>
    <line x1="3.0001" y1="10.0001000000001" x2="0.0001" y2="10.0001000000001"/>
    <line x1="0.0001" y1="10.0001000000001" x2="0.0001" y2="30.0001"/>
    <line x1="0.0001" y1="30.0001" x2="3.0001" y2="30.0001"/>
    <line x1="3.0001" y1="30.0001" x2="3.0001" y2="35.0001000000001"/>
    <line x1="3.0001" y1="35.0001000000001" x2="5.0001" y2="35.0001000000001"/>
    <line x1="5.0001" y1="35.0001000000001" x2="5.0001" y2="33.7001"/>
    <line x1="5.0001" y1="33.7001" x2="7.20010000000005" y2="33.7001"/>
    <line x1="7.20010000000005" y1="33.7001" x2="7.20010000000005" y2="35.0001000000001"/>
    <line x1="7.20010000000005" y1="35.0001000000001" x2="10.2000999999999" y2="35.0001000000001"/>
    <line x1="10.2000999999999" y1="35.0001000000001" x2="10.2000999999999" y2="38.0001"/>
    <line x1="10.2000999999999" y1="38.0001" x2="7.20010000000005" y2="38.0001"/>
    <line x1="7.20010000000005" y1="38.0001" x2="7.20010000000005" y2="39.3001"/>
    <line x1="7.20010000000005" y1="39.3001" x2="5.0001" y2="39.3001"/>
    <line x1="5.0001" y1="39.3001" x2="5.0001" y2="38.0001"/>
    <line x1="5.0001" y1="38.0001" x2="3.0001" y2="38.0001"/>
    <line x1="3.0001" y1="38.0001" x2="3.0001" y2="118.0001"/>
    <line x1="3.0001" y1="118.0001" x2="5.0001" y2="118.0001"/>
    <line x1="5.0001" y1="118.0001" x2="5.0001" y2="116.7001"/>
    <line x1="5.0001" y1="116.7001" x2="7.20010000000005" y2="116.7001"/>
    <line x1="7.20010000000005" y1="116.7001" x2="7.20010000000005" y2="118.0001"/>
    <line x1="7.20010000000005" y1="118.0001" x2="10.2000999999999" y2="118.0001"/>
    <line x1="10.2000999999999" y1="118.0001" x2="10.2000999999999" y2="121.0001"/>
    <line x1="10.2000999999999" y1="121.0001" x2="7.20010000000005" y2="121.0001"/>
    <line x1="7.20010000000005" y1="121.0001" x2="7.20010000000005" y2="122.3001"/>
    <line x1="7.20010000000005" y1="122.3001" x2="5.0001" y2="122.3001"/>
    <line x1="5.0001" y1="122.3001" x2="5.0001" y2="121.0001"/>
    <line x1="5.0001" y1="121.0001" x2="3.0001" y2="121.0001"/>
    <line x1="3.0001" y1="121.0001" x2="3.0001" y2="126.0001"/>
    <line x1="3.0001" y1="126.0001" x2="0.0001" y2="126.0001"/>
    <line x1="0.0001" y1="126.0001" x2="0.0001" y2="146.0001"/>
    <line x1="0.0001" y1="146.0001" x2="3.0001" y2="146.0001"/>
    <line x1="3.0001" y1="146.0001" x2="3.0001" y2="156.0001"/>
    <line x1="3.0001" y1="156.0001" x2="248.0001" y2="156.0001"/>
    <line x1="248.0001" y1="156.0001" x2="248.0001" y2="0.0001"/>
    <line x1="248.0001" y1="0.0001" x2="3.0001" y2="0.0001"/>
    <line x1="33.0001" y1="150.0001" x2="33.0001" y2="153.0001"/>
    <line x1="33.0001" y1="153.0001" x2="13.0001" y2="153.0001"/>
    <line x1="13.0001" y1="153.0001" x2="13.0001" y2="150.0001"/>
    <line x1="13.0001" y1="150.0001" x2="33.0001" y2="150.0001"/>
    <line x1="66.0001" y1="153.0001" x2="66.0001" y2="150.0001"/>
    <line x1="66.0001" y1="150.0001" x2="86.0001" y2="150.0001"/>
    <line x1="86.0001" y1="150.0001" x2="86.0001" y2="153.0001"/>
    <line x1="86.0001" y1="153.0001" x2="66.0001" y2="153.0001"/>
    <line x1="100.0001" y1="120.0001" x2="103.0001" y2="120.0001"/>
    <line x1="103.0001" y1="120.0001" x2="103.0001" y2="140.0001"/>
    <line x1="103.0001" y1="140.0001" x2="100.0001" y2="140.0001"/>
    <line x1="100.0001" y1="140.0001" x2="100.0001" y2="120.0001"/>
    <line x1="103.0001" y1="36.0001000000001" x2="100.0001" y2="36.0001"/>
    <line x1="100.0001" y1="36.0001" x2="100.0001" y2="16.0001"/>
    <line x1="100.0001" y1="16.0001" x2="103.0001" y2="16.0001"/>
    <line x1="103.0001" y1="16.0001" x2="103.0001" y2="36.0001000000001"/>
    <line x1="158.0001" y1="120.0001" x2="161.0001" y2="120.0001"/>
    <line x1="161.0001" y1="120.0001" x2="161.0001" y2="140.0001"/>
    <line x1="161.0001" y1="140.0001" x2="158.0001" y2="140.0001"/>
    <line x1="158.0001" y1="140.0001" x2="158.0001" y2="120.0001"/>
    <line x1="158.0001" y1="16.0001" x2="161.0001" y2="16.0001"/>
    <line x1="161.0001" y1="16.0001" x2="161.0001" y2="36.0001"/>
    <line x1="161.0001" y1="36.0001" x2="158.0001" y2="36.0000999999999"/>
    <line x1="158.0001" y1="36.0000999999999" x2="158.0001" y2="16.0001"/>
    <line x1="86.0001" y1="3.00009999999987" x2="86.0001" y2="6.00010000000016"/>
    <line x1="86.0001" y1="6.00010000000016" x2="66.0001" y2="6.00009999999996"/>
    <line x1="66.0001" y1="6.00009999999996" x2="66.0001" y2="3.00009999999994"/>
    <line x1="66.0001" y1="3.00009999999994" x2="86.0001" y2="3.00009999999987"/>
    <line x1="33.0001" y1="6.00009999999999" x2="13.0001" y2="6.00009999999999"/>
    <line x1="13.0001" y1="6.00009999999999" x2="13.0001" y2="3.00010000000004"/>
    <line x1="13.0001" y1="3.00010000000004" x2="33.0001" y2="3.00010000000003"/>
    <line x1="33.0001" y1="3.00010000000003" x2="33.0001" y2="6.00009999999999"/>
    <line x1="215.0001" y1="150.0001" x2="215.0001" y2="153.0001"/>
    <line x1="215.0001" y1="153.0001" x2="195.0001" y2="153.0001"/>
    <line x1="195.0001" y1="153.0001" x2="195.0001" y2="150.0001"/>
    <line x1="195.0001" y1="150.0001" x2="215.0001" y2="150.0001"/>
    <line x1="242.0001" y1="120.0001" x2="245.0001" y2="120.0001"/>
    <line x1="245.0001" y1="120.0001" x2="245.0001" y2="140.0001"/>
    <line x1="245.0001" y1="140.0001" x2="242.0001" y2="140.0001"/>
    <line x1="242.0001" y1="140.0001" x2="242.0001" y2="120.0001"/>
    <line x1="245.0001" y1="36.0001" x2="242.0001" y2="36.0001000000002"/>
    <line x1="242.0001" y1="36.0001000000002" x2="242.0001" y2="16.0001000000001"/>
    <line x1="242.0001" y1="16.0001000000001" x2="245.0001" y2="16.0001000000004"/>
    <line x1="245.0001" y1="16.0001000000004" x2="245.0001" y2="36.0001"/>
    <line x1="215.0001" y1="6.0000999999997" x2="195.0001" y2="6.00010000000002"/>
    <line x1="195.0001" y1="6.00010000000002" x2="195.0001" y2="3.00009999999965"/>
    <line x1="195.0001" y1="3.00009999999965" x2="215.0001" y2="3.00009999999825"/>
    <line x1="215.0001" y1="3.00009999999825" x2="215.0001" y2="6.0000999999997"/>
    <line x1="243.5001" y1="112.0001" x2="243.888328567654" y2="112.051211260566"/>
    <line x1="243.888328567654" y1="112.051211260566" x2="244.2501" y2="112.201061894323"/>
    <line x1="244.2501" y1="112.201061894323" x2="244.56076017178" y2="112.43943982822"/>
    <line x1="244.56076017178" y1="112.43943982822" x2="244.799138105677" y2="112.7501"/>
    <line x1="244.799138105677" y1="112.7501" x2="244.948988739434" y2="113.111871432346"/>
    <line x1="244.948988739434" y1="113.111871432346" x2="245.0001" y2="113.5001"/>
    <line x1="245.0001" y1="113.5001" x2="244.948988739434" y2="113.888328567654"/>
    <line x1="244.948988739434" y1="113.888328567654" x2="244.799138105677" y2="114.2501"/>
    <line x1="244.799138105677" y1="114.2501" x2="244.56076017178" y2="114.56076017178"/>
    <line x1="244.56076017178" y1="114.56076017178" x2="244.2501" y2="114.799138105677"/>
    <line x1="244.2501" y1="114.799138105677" x2="243.888328567654" y2="114.948988739434"/>
    <line x1="243.888328567654" y1="114.948988739434" x2="243.5001" y2="115.0001"/>
    <line x1="243.5001" y1="115.0001" x2="243.111871432346" y2="114.948988739434"/>
    <line x1="243.111871432346" y1="114.948988739434" x2="242.7501" y2="114.799138105677"/>
    <line x1="242.7501" y1="114.799138105677" x2="242.43943982822" y2="114.56076017178"/>
    <line x1="242.43943982822" y1="114.56076017178" x2="242.201061894323" y2="114.2501"/>
    <line x1="242.201061894323" y1="114.2501" x2="242.051211260566" y2="113.888328567654"/>
    <line x1="242.051211260566" y1="113.888328567654" x2="242.0001" y2="113.5001"/>
    <line x1="242.0001" y1="113.5001" x2="242.051211260566" y2="113.111871432346"/>
    <line x1="242.051211260566" y1="113.111871432346" x2="242.201061894323" y2="112.7501"/>
    <line x1="242.201061894323" y1="112.7501" x2="242.43943982822" y2="112.43943982822"/>
    <line x1="242.43943982822" y1="112.43943982822" x2="242.7501" y2="112.201061894323"/>
    <line x1="242.7501" y1="112.201061894323" x2="243.111871432346" y2="112.051211260566"/>
    <line x1="243.111871432346" y1="112.051211260566" x2="243.5001" y2="112.0001"/>
    <line x1="243.5001" y1="39.0001000000003" x2="243.888328567654" y2="39.0512112605665"/>
    <line x1="243.888328567654" y1="39.0512112605665" x2="244.2501" y2="39.2010618943234"/>
    <line x1="244.2501" y1="39.2010618943234" x2="244.56076017178" y2="39.4394398282203"/>
    <line x1="244.56076017178" y1="39.4394398282203" x2="244.799138105677" y2="39.7501"/>
    <line x1="244.799138105677" y1="39.7501" x2="244.948988739434" y2="40.1118714323461"/>
    <line x1="244.948988739434" y1="40.1118714323461" x2="245.0001" y2="40.5001000000001"/>
    <line x1="245.0001" y1="40.5001000000001" x2="244.948988739434" y2="40.8883285676538"/>
    <line x1="244.948988739434" y1="40.8883285676538" x2="244.799138105677" y2="41.2501000000003"/>
    <line x1="244.799138105677" y1="41.2501000000003" x2="244.56076017178" y2="41.5607601717799"/>
    <line x1="244.56076017178" y1="41.5607601717799" x2="244.2501" y2="41.7991381056769"/>
    <line x1="244.2501" y1="41.7991381056769" x2="243.888328567654" y2="41.948988739434"/>
    <line x1="243.888328567654" y1="41.948988739434" x2="243.5001" y2="42.0001000000001"/>
    <line x1="243.5001" y1="42.0001000000001" x2="243.111871432346" y2="41.9489887394336"/>
    <line x1="243.111871432346" y1="41.9489887394336" x2="242.7501" y2="41.7991381056768"/>
    <line x1="242.7501" y1="41.7991381056768" x2="242.43943982822" y2="41.56076017178"/>
    <line x1="242.43943982822" y1="41.56076017178" x2="242.201061894323" y2="41.2501000000001"/>
    <line x1="242.201061894323" y1="41.2501000000001" x2="242.051211260566" y2="40.8883285676539"/>
    <line x1="242.051211260566" y1="40.8883285676539" x2="242.0001" y2="40.5001000000001"/>
    <line x1="242.0001" y1="40.5001000000001" x2="242.051211260566" y2="40.1118714323462"/>
    <line x1="242.051211260566" y1="40.1118714323462" x2="242.201061894323" y2="39.7501"/>
    <line x1="242.201061894323" y1="39.7501" x2="242.43943982822" y2="39.4394398282202"/>
    <line x1="242.43943982822" y1="39.4394398282202" x2="242.7501" y2="39.2010618943233"/>
    <line x1="242.7501" y1="39.2010618943233" x2="243.111871432346" y2="39.0512112605664"/>
    <line x1="243.111871432346" y1="39.0512112605664" x2="243.5001" y2="39.0001000000003"/>
    <line x1="225.0001" y1="151.5001" x2="225.051211260566" y2="151.111871432346"/>
    <line x1="225.051211260566" y1="151.111871432346" x2="225.201061894323" y2="150.7501"/>
    <line x1="225.201061894323" y1="150.7501" x2="225.43943982822" y2="150.43943982822"/>
    <line x1="225.43943982822" y1="150.43943982822" x2="225.7501" y2="150.201061894323"/>
    <line x1="225.7501" y1="150.201061894323" x2="226.111871432346" y2="150.051211260566"/>
    <line x1="226.111871432346" y1="150.051211260566" x2="226.5001" y2="150.0001"/>
    <line x1="226.5001" y1="150.0001" x2="226.888328567654" y2="150.051211260566"/>
    <line x1="226.888328567654" y1="150.051211260566" x2="227.2501" y2="150.201061894323"/>
    <line x1="227.2501" y1="150.201061894323" x2="227.56076017178" y2="150.43943982822"/>
    <line x1="227.56076017178" y1="150.43943982822" x2="227.799138105677" y2="150.7501"/>
    <line x1="227.799138105677" y1="150.7501" x2="227.948988739434" y2="151.111871432346"/>
    <line x1="227.948988739434" y1="151.111871432346" x2="228.0001" y2="151.5001"/>
    <line x1="228.0001" y1="151.5001" x2="227.948988739434" y2="151.888328567654"/>
    <line x1="227.948988739434" y1="151.888328567654" x2="227.799138105677" y2="152.2501"/>
    <line x1="227.799138105677" y1="152.2501" x2="227.56076017178" y2="152.56076017178"/>
    <line x1="227.56076017178" y1="152.56076017178" x2="227.2501" y2="152.799138105677"/>
    <line x1="227.2501" y1="152.799138105677" x2="226.888328567654" y2="152.948988739434"/>
    <line x1="226.888328567654" y1="152.948988739434" x2="226.5001" y2="153.0001"/>
    <line x1="226.5001" y1="153.0001" x2="226.111871432346" y2="152.948988739434"/>
    <line x1="226.111871432346" y1="152.948988739434" x2="225.7501" y2="152.799138105677"/>
    <line x1="225.7501" y1="152.799138105677" x2="225.43943982822" y2="152.56076017178"/>
    <line x1="225.43943982822" y1="152.56076017178" x2="225.201061894323" y2="152.2501"/>
    <line x1="225.201061894323" y1="152.2501" x2="225.051211260566" y2="151.888328567654"/>
    <line x1="225.051211260566" y1="151.888328567654" x2="225.0001" y2="151.5001"/>
    <line x1="53.0001" y1="151.5001" x2="53.0512112605664" y2="151.111871432346"/>
    <line x1="53.0512112605664" y1="151.111871432346" x2="53.2010618943233" y2="150.7501"/>
    <line x1="53.2010618943233" y1="150.7501" x2="53.4394398282201" y2="150.43943982822"/>
    <line x1="53.4394398282201" y1="150.43943982822" x2="53.7501" y2="150.201061894323"/>
    <line x1="53.7501" y1="150.201061894323" x2="54.1118714323462" y2="150.051211260566"/>
    <line x1="54.1118714323462" y1="150.051211260566" x2="54.5001" y2="150.0001"/>
    <line x1="54.5001" y1="150.0001" x2="54.8883285676538" y2="150.051211260566"/>
    <line x1="54.8883285676538" y1="150.051211260566" x2="55.2501" y2="150.201061894323"/>
    <line x1="55.2501" y1="150.201061894323" x2="55.5607601717798" y2="150.43943982822"/>
    <line x1="55.5607601717798" y1="150.43943982822" x2="55.7991381056766" y2="150.7501"/>
    <line x1="55.7991381056766" y1="150.7501" x2="55.9489887394336" y2="151.111871432346"/>
    <line x1="55.9489887394336" y1="151.111871432346" x2="56.0000999999999" y2="151.5001"/>
    <line x1="56.0000999999999" y1="151.5001" x2="55.9489887394336" y2="151.888328567654"/>
    <line x1="55.9489887394336" y1="151.888328567654" x2="55.7991381056767" y2="152.2501"/>
    <line x1="55.7991381056767" y1="152.2501" x2="55.5607601717798" y2="152.56076017178"/>
    <line x1="55.5607601717798" y1="152.56076017178" x2="55.2501" y2="152.799138105677"/>
    <line x1="55.2501" y1="152.799138105677" x2="54.8883285676538" y2="152.948988739434"/>
    <line x1="54.8883285676538" y1="152.948988739434" x2="54.5001" y2="153.0001"/>
    <line x1="54.5001" y1="153.0001" x2="54.1118714323462" y2="152.948988739434"/>
    <line x1="54.1118714323462" y1="152.948988739434" x2="53.7501" y2="152.799138105677"/>
    <line x1="53.7501" y1="152.799138105677" x2="53.4394398282202" y2="152.56076017178"/>
    <line x1="53.4394398282202" y1="152.56076017178" x2="53.2010618943233" y2="152.2501"/>
    <line x1="53.2010618943233" y1="152.2501" x2="53.0512112605664" y2="151.888328567654"/>
    <line x1="53.0512112605664" y1="151.888328567654" x2="53.0001" y2="151.5001"/>
    <line x1="53.0001" y1="4.50010000000017" x2="53.0512112605664" y2="4.11187143234627"/>
    <line x1="53.0512112605664" y1="4.11187143234627" x2="53.2010618943233" y2="3.75010000000006"/>
    <line x1="53.2010618943233" y1="3.75010000000006" x2="53.4394398282201" y2="3.43943982822024"/>
    <line x1="53.4394398282201" y1="3.43943982822024" x2="53.7501" y2="3.20106189432335"/>
    <line x1="53.7501" y1="3.20106189432335" x2="54.1118714323462" y2="3.05121126056656"/>
    <line x1="54.1118714323462" y1="3.05121126056656" x2="54.5001" y2="3.00010000000006"/>
    <line x1="54.5001" y1="3.00010000000006" x2="54.8883285676538" y2="3.05121126056651"/>
    <line x1="54.8883285676538" y1="3.05121126056651" x2="55.2501" y2="3.20106189432339"/>
    <line x1="55.2501" y1="3.20106189432339" x2="55.5607601717798" y2="3.43943982822018"/>
    <line x1="55.5607601717798" y1="3.43943982822018" x2="55.7991381056767" y2="3.75010000000006"/>
    <line x1="55.7991381056767" y1="3.75010000000006" x2="55.9489887394336" y2="4.11187143234628"/>
    <line x1="55.9489887394336" y1="4.11187143234628" x2="56.0000999999999" y2="4.50010000000013"/>
    <line x1="56.0000999999999" y1="4.50010000000013" x2="55.9489887394336" y2="4.88832856765389"/>
    <line x1="55.9489887394336" y1="4.88832856765389" x2="55.7991381056767" y2="5.25010000000004"/>
    <line x1="55.7991381056767" y1="5.25010000000004" x2="55.5607601717798" y2="5.5607601717799"/>
    <line x1="55.5607601717798" y1="5.5607601717799" x2="55.2501" y2="5.79913810567677"/>
    <line x1="55.2501" y1="5.79913810567677" x2="54.8883285676538" y2="5.94898873943368"/>
    <line x1="54.8883285676538" y1="5.94898873943368" x2="54.5001" y2="6.00009999999995"/>
    <line x1="54.5001" y1="6.00009999999995" x2="54.1118714323462" y2="5.94898873943371"/>
    <line x1="54.1118714323462" y1="5.94898873943371" x2="53.7501" y2="5.79913810567673"/>
    <line x1="53.7501" y1="5.79913810567673" x2="53.4394398282202" y2="5.56076017177984"/>
    <line x1="53.4394398282202" y1="5.56076017177984" x2="53.2010618943233" y2="5.25010000000006"/>
    <line x1="53.2010618943233" y1="5.25010000000006" x2="53.0512112605664" y2="4.88832856765381"/>
    <line x1="53.0512112605664" y1="4.88832856765381" x2="53.0001" y2="4.50010000000017"/>
    <line x1="225.0001" y1="4.50009999999921" x2="225.051211260566" y2="4.1118714323472"/>
    <line x1="225.051211260566" y1="4.1118714323472" x2="225.201061894323" y2="3.75009999999891"/>
    <line x1="225.201061894323" y1="3.75009999999891" x2="225.43943982822" y2="3.43943982822067"/>
    <line x1="225.43943982822" y1="3.43943982822067" x2="225.7501" y2="3.20106189432025"/>
    <line x1="225.7501" y1="3.20106189432025" x2="226.111871432346" y2="3.05121126056466"/>
    <line x1="226.111871432346" y1="3.05121126056466" x2="226.5001" y2="3.0000999999993"/>
    <line x1="226.5001" y1="3.0000999999993" x2="226.888328567654" y2="3.05121126056777"/>
    <line x1="226.888328567654" y1="3.05121126056777" x2="227.2501" y2="3.20106189432446"/>
    <line x1="227.2501" y1="3.20106189432446" x2="227.56076017178" y2="3.43943982822117"/>
    <line x1="227.56076017178" y1="3.43943982822117" x2="227.799138105677" y2="3.75009999999998"/>
    <line x1="227.799138105677" y1="3.75009999999998" x2="227.948988739434" y2="4.11187143234554"/>
    <line x1="227.948988739434" y1="4.11187143234554" x2="228.0001" y2="4.50010000000141"/>
    <line x1="228.0001" y1="4.50010000000141" x2="227.948988739434" y2="4.88832856765356"/>
    <line x1="227.948988739434" y1="4.88832856765356" x2="227.799138105677" y2="5.25010000000033"/>
    <line x1="227.799138105677" y1="5.25010000000033" x2="227.56076017178" y2="5.56076017178055"/>
    <line x1="227.56076017178" y1="5.56076017178055" x2="227.2501" y2="5.79913810567696"/>
    <line x1="227.2501" y1="5.79913810567696" x2="226.888328567654" y2="5.94898873943323"/>
    <line x1="226.888328567654" y1="5.94898873943323" x2="226.5001" y2="6.00010000000049"/>
    <line x1="226.5001" y1="6.00010000000049" x2="226.111871432346" y2="5.948988739435"/>
    <line x1="226.111871432346" y1="5.948988739435" x2="225.7501" y2="5.79913810567673"/>
    <line x1="225.7501" y1="5.79913810567673" x2="225.43943982822" y2="5.56076017177978"/>
    <line x1="225.43943982822" y1="5.56076017177978" x2="225.201061894323" y2="5.25009999999984"/>
    <line x1="225.201061894323" y1="5.25009999999984" x2="225.051211260566" y2="4.88832856765233"/>
    <line x1="225.051211260566" y1="4.88832856765233" x2="225.0001" y2="4.50009999999921"/>
    <line x1="159.5001" y1="112.0001" x2="159.888328567654" y2="112.051211260566"/>
    <line x1="159.888328567654" y1="112.051211260566" x2="160.2501" y2="112.201061894323"/>
    <line x1="160.2501" y1="112.201061894323" x2="160.56076017178" y2="112.43943982822"/>
    <line x1="160.56076017178" y1="112.43943982822" x2="160.799138105677" y2="112.7501"/>
    <line x1="160.799138105677" y1="112.7501" x2="160.948988739434" y2="113.111871432346"/>
    <line x1="160.948988739434" y1="113.111871432346" x2="161.0001" y2="113.5001"/>
    <line x1="161.0001" y1="113.5001" x2="160.948988739434" y2="113.888328567654"/>
    <line x1="160.948988739434" y1="113.888328567654" x2="160.799138105677" y2="114.2501"/>
    <line x1="160.799138105677" y1="114.2501" x2="160.56076017178" y2="114.56076017178"/>
    <line x1="160.56076017178" y1="114.56076017178" x2="160.2501" y2="114.799138105677"/>
    <line x1="160.2501" y1="114.799138105677" x2="159.888328567654" y2="114.948988739434"/>
    <line x1="159.888328567654" y1="114.948988739434" x2="159.5001" y2="115.0001"/>
    <line x1="159.5001" y1="115.0001" x2="159.111871432346" y2="114.948988739434"/>
    <line x1="159.111871432346" y1="114.948988739434" x2="158.7501" y2="114.799138105677"/>
    <line x1="158.7501" y1="114.799138105677" x2="158.43943982822" y2="114.56076017178"/>
    <line x1="158.43943982822" y1="114.56076017178" x2="158.201061894323" y2="114.2501"/>
    <line x1="158.201061894323" y1="114.2501" x2="158.051211260566" y2="113.888328567654"/>
    <line x1="158.051211260566" y1="113.888328567654" x2="158.0001" y2="113.5001"/>
    <line x1="158.0001" y1="113.5001" x2="158.051211260566" y2="113.111871432346"/>
    <line x1="158.051211260566" y1="113.111871432346" x2="158.201061894323" y2="112.7501"/>
    <line x1="158.201061894323" y1="112.7501" x2="158.43943982822" y2="112.43943982822"/>
    <line x1="158.43943982822" y1="112.43943982822" x2="158.7501" y2="112.201061894323"/>
    <line x1="158.7501" y1="112.201061894323" x2="159.111871432346" y2="112.051211260566"/>
    <line x1="159.111871432346" y1="112.051211260566" x2="159.5001" y2="112.0001"/>
    <line x1="159.5001" y1="39.0001" x2="159.888328567654" y2="39.0512112605664"/>
    <line x1="159.888328567654" y1="39.0512112605664" x2="160.2501" y2="39.2010618943234"/>
    <line x1="160.2501" y1="39.2010618943234" x2="160.56076017178" y2="39.4394398282202"/>
    <line x1="160.56076017178" y1="39.4394398282202" x2="160.799138105677" y2="39.7501000000001"/>
    <line x1="160.799138105677" y1="39.7501000000001" x2="160.948988739434" y2="40.1118714323463"/>
    <line x1="160.948988739434" y1="40.1118714323463" x2="161.0001" y2="40.5001"/>
    <line x1="161.0001" y1="40.5001" x2="160.948988739434" y2="40.8883285676537"/>
    <line x1="160.948988739434" y1="40.8883285676537" x2="160.799138105677" y2="41.2500999999999"/>
    <line x1="160.799138105677" y1="41.2500999999999" x2="160.56076017178" y2="41.5607601717799"/>
    <line x1="160.56076017178" y1="41.5607601717799" x2="160.2501" y2="41.7991381056767"/>
    <line x1="160.2501" y1="41.7991381056767" x2="159.888328567654" y2="41.9489887394336"/>
    <line x1="159.888328567654" y1="41.9489887394336" x2="159.5001" y2="42.0001000000001"/>
    <line x1="159.5001" y1="42.0001000000001" x2="159.111871432346" y2="41.9489887394335"/>
    <line x1="159.111871432346" y1="41.9489887394335" x2="158.7501" y2="41.7991381056766"/>
    <line x1="158.7501" y1="41.7991381056766" x2="158.43943982822" y2="41.5607601717799"/>
    <line x1="158.43943982822" y1="41.5607601717799" x2="158.201061894323" y2="41.2501"/>
    <line x1="158.201061894323" y1="41.2501" x2="158.051211260566" y2="40.8883285676539"/>
    <line x1="158.051211260566" y1="40.8883285676539" x2="158.0001" y2="40.5001"/>
    <line x1="158.0001" y1="40.5001" x2="158.051211260566" y2="40.1118714323463"/>
    <line x1="158.051211260566" y1="40.1118714323463" x2="158.201061894323" y2="39.7501"/>
    <line x1="158.201061894323" y1="39.7501" x2="158.43943982822" y2="39.4394398282202"/>
    <line x1="158.43943982822" y1="39.4394398282202" x2="158.7501" y2="39.2010618943233"/>
    <line x1="158.7501" y1="39.2010618943233" x2="159.111871432346" y2="39.0512112605665"/>
    <line x1="159.111871432346" y1="39.0512112605665" x2="159.5001" y2="39.0001"/>
    <line x1="101.5001" y1="112.0001" x2="101.888328567654" y2="112.051211260566"/>
    <line x1="101.888328567654" y1="112.051211260566" x2="102.2501" y2="112.201061894323"/>
    <line x1="102.2501" y1="112.201061894323" x2="102.56076017178" y2="112.43943982822"/>
    <line x1="102.56076017178" y1="112.43943982822" x2="102.799138105677" y2="112.7501"/>
    <line x1="102.799138105677" y1="112.7501" x2="102.948988739434" y2="113.111871432346"/>
    <line x1="102.948988739434" y1="113.111871432346" x2="103.0001" y2="113.5001"/>
    <line x1="103.0001" y1="113.5001" x2="102.948988739434" y2="113.888328567654"/>
    <line x1="102.948988739434" y1="113.888328567654" x2="102.799138105677" y2="114.2501"/>
    <line x1="102.799138105677" y1="114.2501" x2="102.56076017178" y2="114.56076017178"/>
    <line x1="102.56076017178" y1="114.56076017178" x2="102.2501" y2="114.799138105677"/>
    <line x1="102.2501" y1="114.799138105677" x2="101.888328567654" y2="114.948988739434"/>
    <line x1="101.888328567654" y1="114.948988739434" x2="101.5001" y2="115.0001"/>
    <line x1="101.5001" y1="115.0001" x2="101.111871432346" y2="114.948988739434"/>
    <line x1="101.111871432346" y1="114.948988739434" x2="100.7501" y2="114.799138105677"/>
    <line x1="100.7501" y1="114.799138105677" x2="100.43943982822" y2="114.56076017178"/>
    <line x1="100.43943982822" y1="114.56076017178" x2="100.201061894323" y2="114.2501"/>
    <line x1="100.201061894323" y1="114.2501" x2="100.051211260566" y2="113.888328567654"/>
    <line x1="100.051211260566" y1="113.888328567654" x2="100.0001" y2="113.5001"/>
    <line x1="100.0001" y1="113.5001" x2="100.051211260566" y2="113.111871432346"/>
    <line x1="100.051211260566" y1="113.111871432346" x2="100.201061894323" y2="112.7501"/>
    <line x1="100.201061894323" y1="112.7501" x2="100.43943982822" y2="112.43943982822"/>
    <line x1="100.43943982822" y1="112.43943982822" x2="100.7501" y2="112.201061894323"/>
    <line x1="100.7501" y1="112.201061894323" x2="101.111871432346" y2="112.051211260566"/>
    <line x1="101.111871432346" y1="112.051211260566" x2="101.5001" y2="112.0001"/>
    <line x1="101.5001" y1="41.0001000000001" x2="101.888328567654" y2="41.0512112605664"/>
    <line x1="101.888328567654" y1="41.0512112605664" x2="102.2501" y2="41.2010618943234"/>
    <line x1="102.2501" y1="41.2010618943234" x2="102.56076017178" y2="41.4394398282202"/>
    <line x1="102.56076017178" y1="41.4394398282202" x2="102.799138105677" y2="41.7501"/>
    <line x1="102.799138105677" y1="41.7501" x2="102.948988739434" y2="42.1118714323463"/>
    <line x1="102.948988739434" y1="42.1118714323463" x2="103.0001" y2="42.5001"/>
    <line x1="103.0001" y1="42.5001" x2="102.948988739434" y2="42.8883285676538"/>
    <line x1="102.948988739434" y1="42.8883285676538" x2="102.799138105677" y2="43.2501"/>
    <line x1="102.799138105677" y1="43.2501" x2="102.56076017178" y2="43.5607601717799"/>
    <line x1="102.56076017178" y1="43.5607601717799" x2="102.2501" y2="43.7991381056766"/>
    <line x1="102.2501" y1="43.7991381056766" x2="101.888328567654" y2="43.9489887394337"/>
    <line x1="101.888328567654" y1="43.9489887394337" x2="101.5001" y2="44.0001"/>
    <line x1="101.5001" y1="44.0001" x2="101.111871432346" y2="43.9489887394337"/>
    <line x1="101.111871432346" y1="43.9489887394337" x2="100.7501" y2="43.7991381056766"/>
    <line x1="100.7501" y1="43.7991381056766" x2="100.43943982822" y2="43.5607601717799"/>
    <line x1="100.43943982822" y1="43.5607601717799" x2="100.201061894323" y2="43.2501"/>
    <line x1="100.201061894323" y1="43.2501" x2="100.051211260566" y2="42.8883285676538"/>
    <line x1="100.051211260566" y1="42.8883285676538" x2="100.0001" y2="42.5001"/>
    <line x1="100.0001" y1="42.5001" x2="100.051211260566" y2="42.1118714323463"/>
    <line x1="100.051211260566" y1="42.1118714323463" x2="100.201061894323" y2="41.7501000000001"/>
    <line x1="100.201061894323" y1="41.7501000000001" x2="100.43943982822" y2="41.4394398282202"/>
    <line x1="100.43943982822" y1="41.4394398282202" x2="100.7501" y2="41.2010618943234"/>
    <line x1="100.7501" y1="41.2010618943234" x2="101.111871432346" y2="41.0512112605665"/>
    <line x1="101.111871432346" y1="41.0512112605665" x2="101.5001" y2="41.0001000000001"/>
  </g>
</svg>
