<?xml version="1.0" standalone="no"?>
<!DOCTYPE svg PUBLIC "-//W3C//DTD SVG 1.1//EN" "http://www.w3.org/Graphics/SVG/1.1/DTD/svg11.dtd">
<svg width="33.0mm" height="66.5mm"
 viewBox="0 0 33.0 66.5"
 xmlns="http://www.w3.org/2000/svg" version="1.1"
 xmlns:xlink="http://www.w3.org/1999/xlink">
<desc>Output from Flights of Ideas SVG Sketchup Plugin</desc>

  <g id="face0" fill="none" stroke="rgb(0,0,255)" stroke-width="1" stroke-miterlimit="4" stroke-dasharray="none" stroke-linejoin="round" stroke-linecap="round">
    <line x1="10.0" y1="10.0" x2="10.0" y2="56.5"/>
    <line x1="10.0" y1="56.5" x2="23.0" y2="56.5"/>
    <line x1="23.0" y1="56.5" x2="23.0" y2="10.0"/>
    <line x1="23.0" y1="10.0" x2="10.0" y2="10.0"/>
    <line x1="16.8882285676538" y1="17.6988887394336" x2="16.5" y2="17.75"/>
    <line x1="16.5" y1="17.75" x2="16.1117714323462" y2="17.6988887394336"/>
    <line x1="16.1117714323462" y1="17.6988887394336" x2="15.75" y2="17.5490381056766"/>
    <line x1="15.75" y1="17.5490381056766" x2="15.4393398282202" y2="17.3106601717798"/>
    <line x1="15.4393398282202" y1="17.3106601717798" x2="15.2009618943234" y2="17.0"/>
    <line x1="15.2009618943234" y1="17.0" x2="15.0511112605664" y2="16.6382285676538"/>
    <line x1="15.0511112605664" y1="16.6382285676538" x2="15.0" y2="16.25"/>
    <line x1="15.0" y1="16.25" x2="15.0511112605664" y2="15.8617714323462"/>
    <line x1="15.0511112605664" y1="15.8617714323462" x2="15.2009618943234" y2="15.5"/>
    <line x1="15.2009618943234" y1="15.5" x2="15.4393398282202" y2="15.1893398282202"/>
    <line x1="15.4393398282202" y1="15.1893398282202" x2="15.75" y2="14.9509618943234"/>
    <line x1="15.75" y1="14.9509618943234" x2="16.1117714323462" y2="14.8011112605664"/>
    <line x1="16.1117714323462" y1="14.8011112605664" x2="16.5" y2="14.75"/>
    <line x1="16.5" y1="14.75" x2="16.8882285676538" y2="14.8011112605664"/>
    <line x1="16.8882285676538" y1="14.8011112605664" x2="17.2500000000001" y2="14.9509618943234"/>
    <line x1="17.2500000000001" y1="14.9509618943234" x2="17.5606601717798" y2="15.1893398282202"/>
    <line x1="17.5606601717798" y1="15.1893398282202" x2="17.7990381056767" y2="15.5"/>
    <line x1="17.7990381056767" y1="15.5" x2="17.9488887394336" y2="15.8617714323462"/>
    <line x1="17.9488887394336" y1="15.8617714323462" x2="18.0000000000001" y2="16.25"/>
    <line x1="18.0000000000001" y1="16.25" x2="17.9488887394336" y2="16.6382285676538"/>
    <line x1="17.9488887394336" y1="16.6382285676538" x2="17.7990381056767" y2="17.0"/>
    <line x1="17.7990381056767" y1="17.0" x2="17.5606601717798" y2="17.3106601717798"/>
    <line x1="17.5606601717798" y1="17.3106601717798" x2="17.2500000000001" y2="17.5490381056766"/>
    <line x1="17.2500000000001" y1="17.5490381056766" x2="16.8882285676538" y2="17.6988887394336"/>
    <line x1="16.8882285676538" y1="51.3751840891798" x2="16.5" y2="51.4262953497462"/>
    <line x1="16.5" y1="51.4262953497462" x2="16.1117714323462" y2="51.3751840891798"/>
    <line x1="16.1117714323462" y1="51.3751840891798" x2="15.75" y2="51.2253334554228"/>
    <line x1="15.75" y1="51.2253334554228" x2="15.4393398282202" y2="50.9869555215259"/>
    <line x1="15.4393398282202" y1="50.9869555215259" x2="15.2009618943234" y2="50.6762953497462"/>
    <line x1="15.2009618943234" y1="50.6762953497462" x2="15.0511112605664" y2="50.3145239173999"/>
    <line x1="15.0511112605664" y1="50.3145239173999" x2="15.0" y2="49.9262953497461"/>
    <line x1="15.0" y1="49.9262953497461" x2="15.0511112605664" y2="49.5380667820924"/>
    <line x1="15.0511112605664" y1="49.5380667820924" x2="15.2009618943234" y2="49.1762953497461"/>
    <line x1="15.2009618943234" y1="49.1762953497461" x2="15.4393398282202" y2="48.8656351779663"/>
    <line x1="15.4393398282202" y1="48.8656351779663" x2="15.75" y2="48.6272572440695"/>
    <line x1="15.75" y1="48.6272572440695" x2="16.1117714323462" y2="48.4774066103125"/>
    <line x1="16.1117714323462" y1="48.4774066103125" x2="16.5" y2="48.4262953497461"/>
    <line x1="16.5" y1="48.4262953497461" x2="16.8882285676538" y2="48.4774066103125"/>
    <line x1="16.8882285676538" y1="48.4774066103125" x2="17.2500000000001" y2="48.6272572440695"/>
    <line x1="17.2500000000001" y1="48.6272572440695" x2="17.5606601717798" y2="48.8656351779663"/>
    <line x1="17.5606601717798" y1="48.8656351779663" x2="17.7990381056767" y2="49.1762953497461"/>
    <line x1="17.7990381056767" y1="49.1762953497461" x2="17.9488887394336" y2="49.5380667820924"/>
    <line x1="17.9488887394336" y1="49.5380667820924" x2="18.0000000000001" y2="49.9262953497461"/>
    <line x1="18.0000000000001" y1="49.9262953497461" x2="17.9488887394336" y2="50.3145239173999"/>
    <line x1="17.9488887394336" y1="50.3145239173999" x2="17.7990381056767" y2="50.6762953497462"/>
    <line x1="17.7990381056767" y1="50.6762953497462" x2="17.5606601717798" y2="50.9869555215259"/>
    <line x1="17.5606601717798" y1="50.9869555215259" x2="17.2500000000001" y2="51.2253334554228"/>
    <line x1="17.2500000000001" y1="51.2253334554228" x2="16.8882285676538" y2="51.3751840891798"/>
    <line x1="17.9999999999999" y1="23.75" x2="15.0000000000001" y2="23.75"/>
    <line x1="15.0000000000001" y1="23.75" x2="15.0000000000001" y2="21.75"/>
    <line x1="15.0000000000001" y1="21.75" x2="17.9999999999999" y2="21.75"/>
    <line x1="17.9999999999999" y1="21.75" x2="17.9999999999999" y2="23.75"/>
    <line x1="15.0000000000001" y1="42.4262953497461" x2="17.9999999999999" y2="42.4262953497461"/>
    <line x1="17.9999999999999" y1="42.4262953497461" x2="17.9999999999999" y2="44.4262953497461"/>
    <line x1="17.9999999999999" y1="44.4262953497461" x2="15.0000000000001" y2="44.4262953497461"/>
    <line x1="15.0000000000001" y1="44.4262953497461" x2="15.0000000000001" y2="42.4262953497461"/>
  </g>
</svg>
