<?xml version="1.0" standalone="no"?>
<!DOCTYPE svg PUBLIC "-//W3C//DTD SVG 1.1//EN" "http://www.w3.org/Graphics/SVG/1.1/DTD/svg11.dtd">
<svg width="81.0mm" height="152.0mm"
 viewBox="0 0 81.0 152.0"
 xmlns="http://www.w3.org/2000/svg" version="1.1"
 xmlns:xlink="http://www.w3.org/1999/xlink">
<desc>Output from Flights of Ideas SVG Sketchup Plugin</desc>

  <g id="face0" fill="none" stroke="rgb(0,0,255)" stroke-width="1" stroke-miterlimit="4" stroke-dasharray="none" stroke-linejoin="round" stroke-linecap="round">
    <line x1="22.0" y1="85.1762953497462" x2="14.958780928474" y2="85.1762953497462"/>
    <line x1="14.958780928474" y1="85.1762953497462" x2="1.0" y2="85.1762953497462"/>
    <line x1="1.0" y1="85.1762953497462" x2="1.0" y2="87.1762953497462"/>
    <line x1="1.0" y1="87.1762953497462" x2="4.00000000000006" y2="87.1762953497462"/>
    <line x1="4.00000000000006" y1="87.1762953497462" x2="4.00000000000006" y2="91.1762953497462"/>
    <line x1="4.00000000000006" y1="91.1762953497462" x2="5.99999999999994" y2="91.1762953497462"/>
    <line x1="5.99999999999994" y1="91.1762953497462" x2="5.99999999999994" y2="89.8762953497462"/>
    <line x1="5.99999999999994" y1="89.8762953497462" x2="8.19999999999999" y2="89.8762953497462"/>
    <line x1="8.19999999999999" y1="89.8762953497462" x2="8.19999999999999" y2="91.1762953497462"/>
    <line x1="8.19999999999999" y1="91.1762953497462" x2="11.1999999999999" y2="91.1762953497462"/>
    <line x1="11.1999999999999" y1="91.1762953497462" x2="11.1999999999999" y2="94.1762953497462"/>
    <line x1="11.1999999999999" y1="94.1762953497462" x2="8.19999999999999" y2="94.1762953497462"/>
    <line x1="8.19999999999999" y1="94.1762953497462" x2="8.19999999999999" y2="95.4762953497462"/>
    <line x1="8.19999999999999" y1="95.4762953497462" x2="6.00000000000006" y2="95.4762953497462"/>
    <line x1="6.00000000000006" y1="95.4762953497462" x2="6.00000000000006" y2="94.1762953497462"/>
    <line x1="6.00000000000006" y1="94.1762953497462" x2="4.00000000000006" y2="94.1762953497462"/>
    <line x1="4.00000000000006" y1="94.1762953497462" x2="3.99999999999994" y2="148.0"/>
    <line x1="3.99999999999994" y1="148.0" x2="61.1" y2="148.0"/>
    <line x1="61.1" y1="148.0" x2="61.1" y2="151.0"/>
    <line x1="61.1" y1="151.0" x2="64.1" y2="151.0"/>
    <line x1="64.1" y1="151.0" x2="64.1" y2="148.0"/>
    <line x1="64.1" y1="148.0" x2="69.1" y2="148.0"/>
    <line x1="69.1" y1="148.0" x2="69.1" y2="146.0"/>
    <line x1="69.1" y1="146.0" x2="67.8000000000001" y2="146.0"/>
    <line x1="67.8000000000001" y1="146.0" x2="67.8000000000001" y2="143.8"/>
    <line x1="67.8000000000001" y1="143.8" x2="69.0" y2="143.8"/>
    <line x1="69.0" y1="143.8" x2="69.0" y2="140.8"/>
    <line x1="69.0" y1="140.8" x2="72.0" y2="140.8"/>
    <line x1="72.0" y1="140.8" x2="72.0" y2="143.8"/>
    <line x1="72.0" y1="143.8" x2="73.3" y2="143.8"/>
    <line x1="73.3" y1="143.8" x2="73.3" y2="146.0"/>
    <line x1="73.3" y1="146.0" x2="72.0" y2="146.0"/>
    <line x1="72.0" y1="146.0" x2="72.0" y2="148.0"/>
    <line x1="72.0" y1="148.0" x2="76.9999999999999" y2="148.0"/>
    <line x1="76.9999999999999" y1="148.0" x2="76.9999999999999" y2="138.0"/>
    <line x1="76.9999999999999" y1="138.0" x2="80.0" y2="138.0"/>
    <line x1="80.0" y1="138.0" x2="80.0" y2="118.0"/>
    <line x1="80.0" y1="118.0" x2="76.9999999999999" y2="118.0"/>
    <line x1="76.9999999999999" y1="118.0" x2="76.9999999999999" y2="113.0"/>
    <line x1="76.9999999999999" y1="113.0" x2="75.0000000000001" y2="113.0"/>
    <line x1="75.0000000000001" y1="113.0" x2="75.0000000000001" y2="114.3"/>
    <line x1="75.0000000000001" y1="114.3" x2="72.8" y2="114.3"/>
    <line x1="72.8" y1="114.3" x2="72.8" y2="113.0"/>
    <line x1="72.8" y1="113.0" x2="69.8" y2="113.0"/>
    <line x1="69.8" y1="113.0" x2="69.8" y2="110.0"/>
    <line x1="69.8" y1="110.0" x2="72.8" y2="110.0"/>
    <line x1="72.8" y1="110.0" x2="72.8" y2="108.7"/>
    <line x1="72.8" y1="108.7" x2="75.0000000000001" y2="108.7"/>
    <line x1="75.0000000000001" y1="108.7" x2="75.0000000000001" y2="110.0"/>
    <line x1="75.0000000000001" y1="110.0" x2="76.9999999999999" y2="110.0"/>
    <line x1="76.9999999999999" y1="110.0" x2="76.9999999999999" y2="40.0000000000001"/>
    <line x1="76.9999999999999" y1="40.0000000000001" x2="75.0000000000001" y2="40.0000000000001"/>
    <line x1="75.0000000000001" y1="40.0000000000001" x2="75.0000000000001" y2="41.3000000000001"/>
    <line x1="75.0000000000001" y1="41.3000000000001" x2="72.8" y2="41.3000000000001"/>
    <line x1="72.8" y1="41.3000000000001" x2="72.8" y2="40.0000000000001"/>
    <line x1="72.8" y1="40.0000000000001" x2="69.8" y2="40.0000000000001"/>
    <line x1="69.8" y1="40.0000000000001" x2="69.8" y2="37.0000000000001"/>
    <line x1="69.8" y1="37.0000000000001" x2="72.8" y2="37.0000000000001"/>
    <line x1="72.8" y1="37.0000000000001" x2="72.8" y2="35.7"/>
    <line x1="72.8" y1="35.7" x2="75.0000000000001" y2="35.7"/>
    <line x1="75.0000000000001" y1="35.7" x2="75.0000000000001" y2="37.0000000000001"/>
    <line x1="75.0000000000001" y1="37.0000000000001" x2="76.9999999999999" y2="37.0000000000001"/>
    <line x1="76.9999999999999" y1="37.0000000000001" x2="76.9999999999999" y2="34.0000000000001"/>
    <line x1="76.9999999999999" y1="34.0000000000001" x2="80.0" y2="34.0000000000001"/>
    <line x1="80.0" y1="34.0000000000001" x2="80.0" y2="14.0000000000001"/>
    <line x1="80.0" y1="14.0000000000001" x2="76.9999999999999" y2="14.0000000000001"/>
    <line x1="76.9999999999999" y1="14.0000000000001" x2="76.9999999999999" y2="4.00000000000006"/>
    <line x1="76.9999999999999" y1="4.00000000000006" x2="72.0" y2="4.00000000000006"/>
    <line x1="72.0" y1="4.00000000000006" x2="72.0" y2="6.00000000000006"/>
    <line x1="72.0" y1="6.00000000000006" x2="73.3" y2="6.00000000000006"/>
    <line x1="73.3" y1="6.00000000000006" x2="73.3" y2="8.2000000000001"/>
    <line x1="73.3" y1="8.2000000000001" x2="72.0" y2="8.2000000000001"/>
    <line x1="72.0" y1="8.2000000000001" x2="72.0" y2="11.2"/>
    <line x1="72.0" y1="11.2" x2="69.0" y2="11.2"/>
    <line x1="69.0" y1="11.2" x2="69.0" y2="8.2000000000001"/>
    <line x1="69.0" y1="8.2000000000001" x2="67.7" y2="8.2000000000001"/>
    <line x1="67.7" y1="8.2000000000001" x2="67.7" y2="6.00000000000006"/>
    <line x1="67.7" y1="6.00000000000006" x2="69.0" y2="6.00000000000006"/>
    <line x1="69.0" y1="6.00000000000006" x2="69.0" y2="4.00000000000006"/>
    <line x1="69.0" y1="4.00000000000006" x2="64.0000000000001" y2="4.00000000000006"/>
    <line x1="64.0000000000001" y1="4.00000000000006" x2="64.0000000000001" y2="1.0"/>
    <line x1="64.0000000000001" y1="1.0" x2="61.0" y2="1.0"/>
    <line x1="61.0" y1="1.0" x2="61.0" y2="4.00000000000006"/>
    <line x1="61.0" y1="4.00000000000006" x2="4.00000000000006" y2="4.00000000000006"/>
    <line x1="4.00000000000006" y1="4.00000000000006" x2="4.00000000000006" y2="57.5000000000001"/>
    <line x1="4.00000000000006" y1="57.5000000000001" x2="6.00000000000006" y2="57.5000000000001"/>
    <line x1="6.00000000000006" y1="57.5000000000001" x2="6.00000000000006" y2="56.2000000000001"/>
    <line x1="6.00000000000006" y1="56.2000000000001" x2="8.19999999999999" y2="56.2000000000001"/>
    <line x1="8.19999999999999" y1="56.2000000000001" x2="8.19999999999999" y2="57.5000000000001"/>
    <line x1="8.19999999999999" y1="57.5000000000001" x2="11.1999999999999" y2="57.5000000000001"/>
    <line x1="11.1999999999999" y1="57.5000000000001" x2="11.1999999999999" y2="60.5000000000001"/>
    <line x1="11.1999999999999" y1="60.5000000000001" x2="8.19999999999999" y2="60.5000000000001"/>
    <line x1="8.19999999999999" y1="60.5000000000001" x2="8.19999999999999" y2="61.8000000000001"/>
    <line x1="8.19999999999999" y1="61.8000000000001" x2="5.99999999999994" y2="61.8000000000001"/>
    <line x1="5.99999999999994" y1="61.8000000000001" x2="5.99999999999994" y2="60.5000000000001"/>
    <line x1="5.99999999999994" y1="60.5000000000001" x2="4.00000000000006" y2="60.5000000000001"/>
    <line x1="4.00000000000006" y1="60.5000000000001" x2="4.00000000000006" y2="64.5000000000001"/>
    <line x1="4.00000000000006" y1="64.5000000000001" x2="1.0" y2="64.5000000000001"/>
    <line x1="1.0" y1="64.5000000000001" x2="1.0" y2="66.5000000000001"/>
    <line x1="1.0" y1="66.5000000000001" x2="22.0" y2="66.5000000000001"/>
    <line x1="22.0" y1="66.5000000000001" x2="22.0" y2="85.1762953497462"/>
  </g>
</svg>
