<?xml version="1.0" standalone="no"?>
<!DOCTYPE svg PUBLIC "-//W3C//DTD SVG 1.1//EN" "http://www.w3.org/Graphics/SVG/1.1/DTD/svg11.dtd">
<svg width="148.0mm" height="158.0mm"
 viewBox="0 0 148.0 158.0"
 xmlns="http://www.w3.org/2000/svg" version="1.1"
 xmlns:xlink="http://www.w3.org/1999/xlink">
<desc>Output from Flights of Ideas SVG Sketchup Plugin</desc>

  <g id="face0" fill="none" stroke="rgb(0,0,255)" stroke-width="1" stroke-miterlimit="4" stroke-dasharray="none" stroke-linejoin="round" stroke-linecap="round">
    <line x1="147.0" y1="1.0" x2="1.0" y2="1.00000000000002"/>
    <line x1="1.0" y1="1.00000000000002" x2="1.0" y2="157.0"/>
    <line x1="1.0" y1="157.0" x2="147.0" y2="157.0"/>
    <line x1="147.0" y1="157.0" x2="147.0" y2="1.0"/>
    <line x1="44.0" y1="7.00000000000015" x2="24.0" y2="7.00000000000013"/>
    <line x1="24.0" y1="7.00000000000013" x2="24.0" y2="3.99999999999941"/>
    <line x1="24.0" y1="3.99999999999941" x2="44.0" y2="3.99999999999911"/>
    <line x1="44.0" y1="3.99999999999911" x2="44.0" y2="7.00000000000015"/>
    <line x1="131.0" y1="7.00000000000008" x2="111.0" y2="7.00000000000008"/>
    <line x1="111.0" y1="7.00000000000008" x2="111.0" y2="4.00000000000002"/>
    <line x1="111.0" y1="4.00000000000002" x2="131.0" y2="4.00000000000005"/>
    <line x1="131.0" y1="4.00000000000005" x2="131.0" y2="7.00000000000008"/>
    <line x1="13.9488887394336" y1="5.11177143234677" x2="14.0" y2="5.49999999999997"/>
    <line x1="14.0" y1="5.49999999999997" x2="13.9488887394336" y2="5.88822856765396"/>
    <line x1="13.9488887394336" y1="5.88822856765396" x2="13.7990381056767" y2="6.24999999999998"/>
    <line x1="13.7990381056767" y1="6.24999999999998" x2="13.5606601717798" y2="6.56066017177983"/>
    <line x1="13.5606601717798" y1="6.56066017177983" x2="13.25" y2="6.79903810567683"/>
    <line x1="13.25" y1="6.79903810567683" x2="12.8882285676538" y2="6.94888873943346"/>
    <line x1="12.8882285676538" y1="6.94888873943346" x2="12.5" y2="6.99999999999999"/>
    <line x1="12.5" y1="6.99999999999999" x2="12.1117714323462" y2="6.94888873943326"/>
    <line x1="12.1117714323462" y1="6.94888873943326" x2="11.75" y2="6.79903810567681"/>
    <line x1="11.75" y1="6.79903810567681" x2="11.4393398282202" y2="6.56066017178022"/>
    <line x1="11.4393398282202" y1="6.56066017178022" x2="11.2009618943234" y2="6.25000000000006"/>
    <line x1="11.2009618943234" y1="6.25000000000006" x2="11.0511112605664" y2="5.88822856765411"/>
    <line x1="11.0511112605664" y1="5.88822856765411" x2="11.0" y2="5.49999999999996"/>
    <line x1="11.0" y1="5.49999999999996" x2="11.0511112605664" y2="5.11177143234629"/>
    <line x1="11.0511112605664" y1="5.11177143234629" x2="11.2009618943234" y2="4.75000000000029"/>
    <line x1="11.2009618943234" y1="4.75000000000029" x2="11.4393398282202" y2="4.43933982822048"/>
    <line x1="11.4393398282202" y1="4.43933982822048" x2="11.75" y2="4.2009618943234"/>
    <line x1="11.75" y1="4.2009618943234" x2="12.1117714323462" y2="4.05111126056628"/>
    <line x1="12.1117714323462" y1="4.05111126056628" x2="12.5" y2="4.00000000000037"/>
    <line x1="12.5" y1="4.00000000000037" x2="12.8882285676538" y2="4.05111126056728"/>
    <line x1="12.8882285676538" y1="4.05111126056728" x2="13.25" y2="4.20096189432345"/>
    <line x1="13.25" y1="4.20096189432345" x2="13.5606601717798" y2="4.43933982821964"/>
    <line x1="13.5606601717798" y1="4.43933982821964" x2="13.7990381056767" y2="4.75000000000053"/>
    <line x1="13.7990381056767" y1="4.75000000000053" x2="13.9488887394336" y2="5.11177143234677"/>
    <line x1="105.948888739434" y1="5.11177143234621" x2="106.0" y2="5.50000000000006"/>
    <line x1="106.0" y1="5.50000000000006" x2="105.948888739434" y2="5.8882285676539"/>
    <line x1="105.948888739434" y1="5.8882285676539" x2="105.799038105677" y2="6.25000000000008"/>
    <line x1="105.799038105677" y1="6.25000000000008" x2="105.56066017178" y2="6.56066017177982"/>
    <line x1="105.56066017178" y1="6.56066017177982" x2="105.25" y2="6.79903810567674"/>
    <line x1="105.25" y1="6.79903810567674" x2="104.888228567654" y2="6.94888873943363"/>
    <line x1="104.888228567654" y1="6.94888873943363" x2="104.5" y2="7.0000000000001"/>
    <line x1="104.5" y1="7.0000000000001" x2="104.111771432346" y2="6.94888873943368"/>
    <line x1="104.111771432346" y1="6.94888873943368" x2="103.75" y2="6.79903810567674"/>
    <line x1="103.75" y1="6.79903810567674" x2="103.43933982822" y2="6.56066017177989"/>
    <line x1="103.43933982822" y1="6.56066017177989" x2="103.200961894323" y2="6.25000000000008"/>
    <line x1="103.200961894323" y1="6.25000000000008" x2="103.051111260566" y2="5.88822856765388"/>
    <line x1="103.051111260566" y1="5.88822856765388" x2="103.0" y2="5.50000000000008"/>
    <line x1="103.0" y1="5.50000000000008" x2="103.051111260566" y2="5.11177143234628"/>
    <line x1="103.051111260566" y1="5.11177143234628" x2="103.200961894323" y2="4.74999999999994"/>
    <line x1="103.200961894323" y1="4.74999999999994" x2="103.43933982822" y2="4.43933982822028"/>
    <line x1="103.43933982822" y1="4.43933982822028" x2="103.75" y2="4.20096189432344"/>
    <line x1="103.75" y1="4.20096189432344" x2="104.111771432346" y2="4.05111126056646"/>
    <line x1="104.111771432346" y1="4.05111126056646" x2="104.5" y2="3.99999999999999"/>
    <line x1="104.5" y1="3.99999999999999" x2="104.888228567654" y2="4.05111126056637"/>
    <line x1="104.888228567654" y1="4.05111126056637" x2="105.25" y2="4.2009618943234"/>
    <line x1="105.25" y1="4.2009618943234" x2="105.56066017178" y2="4.4393398282203"/>
    <line x1="105.56066017178" y1="4.4393398282203" x2="105.799038105677" y2="4.75000000000004"/>
    <line x1="105.799038105677" y1="4.75000000000004" x2="105.948888739434" y2="5.11177143234621"/>
    <line x1="141.0" y1="11.0000000000001" x2="144.0" y2="11.0000000000001"/>
    <line x1="144.0" y1="11.0000000000001" x2="144.0" y2="31.0"/>
    <line x1="144.0" y1="31.0" x2="141.0" y2="31.0"/>
    <line x1="141.0" y1="31.0" x2="141.0" y2="11.0000000000001"/>
    <line x1="142.111771432346" y1="36.0511112605664" x2="142.5" y2="36.0000000000001"/>
    <line x1="142.5" y1="36.0000000000001" x2="142.888228567654" y2="36.0511112605664"/>
    <line x1="142.888228567654" y1="36.0511112605664" x2="143.25" y2="36.2009618943234"/>
    <line x1="143.25" y1="36.2009618943234" x2="143.56066017178" y2="36.4393398282202"/>
    <line x1="143.56066017178" y1="36.4393398282202" x2="143.799038105677" y2="36.7500000000001"/>
    <line x1="143.799038105677" y1="36.7500000000001" x2="143.948888739434" y2="37.1117714323463"/>
    <line x1="143.948888739434" y1="37.1117714323463" x2="144.0" y2="37.5"/>
    <line x1="144.0" y1="37.5" x2="143.948888739434" y2="37.8882285676538"/>
    <line x1="143.948888739434" y1="37.8882285676538" x2="143.799038105677" y2="38.25"/>
    <line x1="143.799038105677" y1="38.25" x2="143.56066017178" y2="38.5606601717799"/>
    <line x1="143.56066017178" y1="38.5606601717799" x2="143.25" y2="38.7990381056767"/>
    <line x1="143.25" y1="38.7990381056767" x2="142.888228567654" y2="38.9488887394337"/>
    <line x1="142.888228567654" y1="38.9488887394337" x2="142.5" y2="39.0"/>
    <line x1="142.5" y1="39.0" x2="142.111771432346" y2="38.9488887394336"/>
    <line x1="142.111771432346" y1="38.9488887394336" x2="141.75" y2="38.7990381056767"/>
    <line x1="141.75" y1="38.7990381056767" x2="141.43933982822" y2="38.5606601717799"/>
    <line x1="141.43933982822" y1="38.5606601717799" x2="141.200961894323" y2="38.25"/>
    <line x1="141.200961894323" y1="38.25" x2="141.051111260566" y2="37.8882285676538"/>
    <line x1="141.051111260566" y1="37.8882285676538" x2="141.0" y2="37.5"/>
    <line x1="141.0" y1="37.5" x2="141.051111260566" y2="37.1117714323463"/>
    <line x1="141.051111260566" y1="37.1117714323463" x2="141.200961894323" y2="36.75"/>
    <line x1="141.200961894323" y1="36.75" x2="141.43933982822" y2="36.4393398282202"/>
    <line x1="141.43933982822" y1="36.4393398282202" x2="141.75" y2="36.2009618943234"/>
    <line x1="141.75" y1="36.2009618943234" x2="142.111771432346" y2="36.0511112605664"/>
    <line x1="144.0" y1="127.0" x2="144.0" y2="147.0"/>
    <line x1="144.0" y1="147.0" x2="141.0" y2="147.0"/>
    <line x1="141.0" y1="147.0" x2="141.0" y2="127.0"/>
    <line x1="141.0" y1="127.0" x2="144.0" y2="127.0"/>
    <line x1="142.888228567654" y1="121.948888739434" x2="142.5" y2="122.0"/>
    <line x1="142.5" y1="122.0" x2="142.111771432346" y2="121.948888739434"/>
    <line x1="142.111771432346" y1="121.948888739434" x2="141.75" y2="121.799038105677"/>
    <line x1="141.75" y1="121.799038105677" x2="141.43933982822" y2="121.56066017178"/>
    <line x1="141.43933982822" y1="121.56066017178" x2="141.200961894323" y2="121.25"/>
    <line x1="141.200961894323" y1="121.25" x2="141.051111260566" y2="120.888228567654"/>
    <line x1="141.051111260566" y1="120.888228567654" x2="141.0" y2="120.5"/>
    <line x1="141.0" y1="120.5" x2="141.051111260566" y2="120.111771432346"/>
    <line x1="141.051111260566" y1="120.111771432346" x2="141.200961894323" y2="119.75"/>
    <line x1="141.200961894323" y1="119.75" x2="141.43933982822" y2="119.43933982822"/>
    <line x1="141.43933982822" y1="119.43933982822" x2="141.75" y2="119.200961894323"/>
    <line x1="141.75" y1="119.200961894323" x2="142.111771432346" y2="119.051111260566"/>
    <line x1="142.111771432346" y1="119.051111260566" x2="142.5" y2="119.0"/>
    <line x1="142.5" y1="119.0" x2="142.888228567654" y2="119.051111260566"/>
    <line x1="142.888228567654" y1="119.051111260566" x2="143.25" y2="119.200961894323"/>
    <line x1="143.25" y1="119.200961894323" x2="143.56066017178" y2="119.43933982822"/>
    <line x1="143.56066017178" y1="119.43933982822" x2="143.799038105677" y2="119.75"/>
    <line x1="143.799038105677" y1="119.75" x2="143.948888739434" y2="120.111771432346"/>
    <line x1="143.948888739434" y1="120.111771432346" x2="144.0" y2="120.5"/>
    <line x1="144.0" y1="120.5" x2="143.948888739434" y2="120.888228567654"/>
    <line x1="143.948888739434" y1="120.888228567654" x2="143.799038105677" y2="121.25"/>
    <line x1="143.799038105677" y1="121.25" x2="143.56066017178" y2="121.56066017178"/>
    <line x1="143.56066017178" y1="121.56066017178" x2="143.25" y2="121.799038105677"/>
    <line x1="143.25" y1="121.799038105677" x2="142.888228567654" y2="121.948888739434"/>
    <line x1="111.0" y1="151.0" x2="131.0" y2="151.0"/>
    <line x1="131.0" y1="151.0" x2="131.0" y2="154.0"/>
    <line x1="131.0" y1="154.0" x2="111.0" y2="154.0"/>
    <line x1="111.0" y1="154.0" x2="111.0" y2="151.0"/>
    <line x1="105.948888739434" y1="152.111771432346" x2="106.0" y2="152.5"/>
    <line x1="106.0" y1="152.5" x2="105.948888739434" y2="152.888228567654"/>
    <line x1="105.948888739434" y1="152.888228567654" x2="105.799038105677" y2="153.25"/>
    <line x1="105.799038105677" y1="153.25" x2="105.56066017178" y2="153.56066017178"/>
    <line x1="105.56066017178" y1="153.56066017178" x2="105.25" y2="153.799038105677"/>
    <line x1="105.25" y1="153.799038105677" x2="104.888228567654" y2="153.948888739434"/>
    <line x1="104.888228567654" y1="153.948888739434" x2="104.5" y2="154.0"/>
    <line x1="104.5" y1="154.0" x2="104.111771432346" y2="153.948888739434"/>
    <line x1="104.111771432346" y1="153.948888739434" x2="103.75" y2="153.799038105677"/>
    <line x1="103.75" y1="153.799038105677" x2="103.43933982822" y2="153.56066017178"/>
    <line x1="103.43933982822" y1="153.56066017178" x2="103.200961894323" y2="153.25"/>
    <line x1="103.200961894323" y1="153.25" x2="103.051111260566" y2="152.888228567654"/>
    <line x1="103.051111260566" y1="152.888228567654" x2="103.0" y2="152.5"/>
    <line x1="103.0" y1="152.5" x2="103.051111260566" y2="152.111771432346"/>
    <line x1="103.051111260566" y1="152.111771432346" x2="103.200961894323" y2="151.75"/>
    <line x1="103.200961894323" y1="151.75" x2="103.43933982822" y2="151.43933982822"/>
    <line x1="103.43933982822" y1="151.43933982822" x2="103.75" y2="151.200961894323"/>
    <line x1="103.75" y1="151.200961894323" x2="104.111771432346" y2="151.051111260566"/>
    <line x1="104.111771432346" y1="151.051111260566" x2="104.5" y2="151.0"/>
    <line x1="104.5" y1="151.0" x2="104.888228567654" y2="151.051111260566"/>
    <line x1="104.888228567654" y1="151.051111260566" x2="105.25" y2="151.200961894323"/>
    <line x1="105.25" y1="151.200961894323" x2="105.56066017178" y2="151.43933982822"/>
    <line x1="105.56066017178" y1="151.43933982822" x2="105.799038105677" y2="151.75"/>
    <line x1="105.799038105677" y1="151.75" x2="105.948888739434" y2="152.111771432346"/>
    <line x1="24.0" y1="151.0" x2="44.0" y2="151.0"/>
    <line x1="44.0" y1="151.0" x2="44.0" y2="154.0"/>
    <line x1="44.0" y1="154.0" x2="24.0000000000001" y2="154.0"/>
    <line x1="24.0000000000001" y1="154.0" x2="24.0" y2="151.0"/>
    <line x1="13.9488887394336" y1="152.111771432346" x2="14.0" y2="152.5"/>
    <line x1="14.0" y1="152.5" x2="13.9488887394337" y2="152.888228567654"/>
    <line x1="13.9488887394337" y1="152.888228567654" x2="13.7990381056767" y2="153.25"/>
    <line x1="13.7990381056767" y1="153.25" x2="13.5606601717799" y2="153.56066017178"/>
    <line x1="13.5606601717799" y1="153.56066017178" x2="13.25" y2="153.799038105677"/>
    <line x1="13.25" y1="153.799038105677" x2="12.8882285676538" y2="153.948888739434"/>
    <line x1="12.8882285676538" y1="153.948888739434" x2="12.5000000000001" y2="154.0"/>
    <line x1="12.5000000000001" y1="154.0" x2="12.1117714323463" y2="153.948888739434"/>
    <line x1="12.1117714323463" y1="153.948888739434" x2="11.75" y2="153.799038105677"/>
    <line x1="11.75" y1="153.799038105677" x2="11.4393398282202" y2="153.56066017178"/>
    <line x1="11.4393398282202" y1="153.56066017178" x2="11.2009618943233" y2="153.25"/>
    <line x1="11.2009618943233" y1="153.25" x2="11.0511112605665" y2="152.888228567654"/>
    <line x1="11.0511112605665" y1="152.888228567654" x2="11.0" y2="152.5"/>
    <line x1="11.0" y1="152.5" x2="11.0511112605664" y2="152.111771432346"/>
    <line x1="11.0511112605664" y1="152.111771432346" x2="11.2009618943234" y2="151.75"/>
    <line x1="11.2009618943234" y1="151.75" x2="11.4393398282202" y2="151.43933982822"/>
    <line x1="11.4393398282202" y1="151.43933982822" x2="11.75" y2="151.200961894323"/>
    <line x1="11.75" y1="151.200961894323" x2="12.1117714323463" y2="151.051111260566"/>
    <line x1="12.1117714323463" y1="151.051111260566" x2="12.5" y2="151.0"/>
    <line x1="12.5" y1="151.0" x2="12.8882285676538" y2="151.051111260566"/>
    <line x1="12.8882285676538" y1="151.051111260566" x2="13.25" y2="151.200961894323"/>
    <line x1="13.25" y1="151.200961894323" x2="13.5606601717799" y2="151.43933982822"/>
    <line x1="13.5606601717799" y1="151.43933982822" x2="13.7990381056767" y2="151.75"/>
    <line x1="13.7990381056767" y1="151.75" x2="13.9488887394336" y2="152.111771432346"/>
    <line x1="59.0" y1="89.0" x2="59.0" y2="94.0"/>
    <line x1="59.0" y1="94.0" x2="56.0" y2="94.0000000000001"/>
    <line x1="56.0" y1="94.0000000000001" x2="56.0" y2="89.0"/>
    <line x1="56.0" y1="89.0" x2="59.0" y2="89.0"/>
    <line x1="56.0" y1="69.0" x2="56.0" y2="64.0"/>
    <line x1="56.0" y1="64.0" x2="59.0" y2="64.0"/>
    <line x1="59.0" y1="64.0" x2="59.0" y2="69.0000000000001"/>
    <line x1="59.0" y1="69.0000000000001" x2="56.0" y2="69.0"/>
    <line x1="92.9999999999967" y1="93.9999999999997" x2="92.9999999999967" y2="89.0000000000004"/>
    <line x1="92.9999999999967" y1="89.0000000000004" x2="95.9999999999978" y2="89.0000000000004"/>
    <line x1="95.9999999999978" y1="89.0000000000004" x2="95.9999999999978" y2="93.9999999999997"/>
    <line x1="95.9999999999978" y1="93.9999999999997" x2="92.9999999999967" y2="93.9999999999997"/>
    <line x1="96.0000000000034" y1="68.9999999999997" x2="93.0000000000023" y2="68.9999999999997"/>
    <line x1="93.0000000000023" y1="68.9999999999997" x2="93.0000000000023" y2="64.0000000000004"/>
    <line x1="93.0000000000023" y1="64.0000000000004" x2="96.0000000000034" y2="64.0000000000004"/>
    <line x1="96.0000000000034" y1="64.0000000000004" x2="96.0000000000034" y2="68.9999999999997"/>
    <line x1="57.1117714323462" y1="79.0511112605664" x2="57.5" y2="79.0"/>
    <line x1="57.5" y1="79.0" x2="57.8882285676538" y2="79.0511112605665"/>
    <line x1="57.8882285676538" y1="79.0511112605665" x2="58.25" y2="79.2009618943234"/>
    <line x1="58.25" y1="79.2009618943234" x2="58.5606601717798" y2="79.4393398282202"/>
    <line x1="58.5606601717798" y1="79.4393398282202" x2="58.7990381056767" y2="79.7500000000001"/>
    <line x1="58.7990381056767" y1="79.7500000000001" x2="58.9488887394336" y2="80.1117714323463"/>
    <line x1="58.9488887394336" y1="80.1117714323463" x2="59.0" y2="80.5"/>
    <line x1="59.0" y1="80.5" x2="58.9488887394336" y2="80.8882285676538"/>
    <line x1="58.9488887394336" y1="80.8882285676538" x2="58.7990381056766" y2="81.25"/>
    <line x1="58.7990381056766" y1="81.25" x2="58.5606601717798" y2="81.5606601717799"/>
    <line x1="58.5606601717798" y1="81.5606601717799" x2="58.25" y2="81.7990381056767"/>
    <line x1="58.25" y1="81.7990381056767" x2="57.8882285676538" y2="81.9488887394337"/>
    <line x1="57.8882285676538" y1="81.9488887394337" x2="57.5" y2="82.0"/>
    <line x1="57.5" y1="82.0" x2="57.1117714323462" y2="81.9488887394337"/>
    <line x1="57.1117714323462" y1="81.9488887394337" x2="56.75" y2="81.7990381056767"/>
    <line x1="56.75" y1="81.7990381056767" x2="56.4393398282202" y2="81.5606601717799"/>
    <line x1="56.4393398282202" y1="81.5606601717799" x2="56.2009618943233" y2="81.25"/>
    <line x1="56.2009618943233" y1="81.25" x2="56.0511112605664" y2="80.8882285676538"/>
    <line x1="56.0511112605664" y1="80.8882285676538" x2="56.0" y2="80.5000000000001"/>
    <line x1="56.0" y1="80.5000000000001" x2="56.0511112605664" y2="80.1117714323463"/>
    <line x1="56.0511112605664" y1="80.1117714323463" x2="56.2009618943234" y2="79.7500000000001"/>
    <line x1="56.2009618943234" y1="79.7500000000001" x2="56.4393398282202" y2="79.4393398282202"/>
    <line x1="56.4393398282202" y1="79.4393398282202" x2="56.75" y2="79.2009618943234"/>
    <line x1="56.75" y1="79.2009618943234" x2="57.1117714323462" y2="79.0511112605664"/>
    <line x1="94.5" y1="79.0" x2="94.1117714323463" y2="78.9488887394336"/>
    <line x1="94.1117714323463" y1="78.9488887394336" x2="93.75" y2="78.7990381056767"/>
    <line x1="93.75" y1="78.7990381056767" x2="93.4393398282202" y2="78.5606601717799"/>
    <line x1="93.4393398282202" y1="78.5606601717799" x2="93.2009618943234" y2="78.25"/>
    <line x1="93.2009618943234" y1="78.25" x2="93.0511112605664" y2="77.8882285676538"/>
    <line x1="93.0511112605664" y1="77.8882285676538" x2="93.0000000000001" y2="77.5"/>
    <line x1="93.0000000000001" y1="77.5" x2="93.0511112605664" y2="77.1117714323462"/>
    <line x1="93.0511112605664" y1="77.1117714323462" x2="93.2009618943234" y2="76.75"/>
    <line x1="93.2009618943234" y1="76.75" x2="93.4393398282202" y2="76.4393398282202"/>
    <line x1="93.4393398282202" y1="76.4393398282202" x2="93.7500000000001" y2="76.2009618943234"/>
    <line x1="93.7500000000001" y1="76.2009618943234" x2="94.1117714323463" y2="76.0511112605664"/>
    <line x1="94.1117714323463" y1="76.0511112605664" x2="94.5" y2="76.0"/>
    <line x1="94.5" y1="76.0" x2="94.8882285676538" y2="76.0511112605664"/>
    <line x1="94.8882285676538" y1="76.0511112605664" x2="95.25" y2="76.2009618943234"/>
    <line x1="95.25" y1="76.2009618943234" x2="95.5606601717799" y2="76.4393398282202"/>
    <line x1="95.5606601717799" y1="76.4393398282202" x2="95.7990381056767" y2="76.75"/>
    <line x1="95.7990381056767" y1="76.75" x2="95.9488887394336" y2="77.1117714323462"/>
    <line x1="95.9488887394336" y1="77.1117714323462" x2="96.0" y2="77.5"/>
    <line x1="96.0" y1="77.5" x2="95.9488887394337" y2="77.8882285676538"/>
    <line x1="95.9488887394337" y1="77.8882285676538" x2="95.7990381056767" y2="78.25"/>
    <line x1="95.7990381056767" y1="78.25" x2="95.5606601717799" y2="78.5606601717798"/>
    <line x1="95.5606601717799" y1="78.5606601717798" x2="95.25" y2="78.7990381056767"/>
    <line x1="95.25" y1="78.7990381056767" x2="94.8882285676538" y2="78.9488887394336"/>
    <line x1="94.8882285676538" y1="78.9488887394336" x2="94.5" y2="79.0"/>
  </g>
</svg>
