<?xml version="1.0" standalone="no"?>
<!DOCTYPE svg PUBLIC "-//W3C//DTD SVG 1.1//EN" "http://www.w3.org/Graphics/SVG/1.1/DTD/svg11.dtd">
<svg width="146.0002mm" height="156.0002mm"
 viewBox="0 0 146.0002 156.0002"
 xmlns="http://www.w3.org/2000/svg" version="1.1"
 xmlns:xlink="http://www.w3.org/1999/xlink">
<desc>Output from Flights of Ideas SVG Sketchup Plugin</desc>

  <g id="face0" fill="none" stroke="rgb(0,0,255)" stroke-width="1" stroke-miterlimit="4" stroke-dasharray="none" stroke-linejoin="round" stroke-linecap="round">
    <line x1="146.0001" y1="0.0001" x2="0.0001" y2="0.000100000000017764"/>
    <line x1="0.0001" y1="0.000100000000017764" x2="0.0001" y2="156.0001"/>
    <line x1="0.0001" y1="156.0001" x2="146.0001" y2="156.0001"/>
    <line x1="146.0001" y1="156.0001" x2="146.0001" y2="0.0001"/>
    <line x1="43.0001" y1="6.00010000000015" x2="23.0001" y2="6.00010000000012"/>
    <line x1="23.0001" y1="6.00010000000012" x2="23.0001" y2="3.00009999999941"/>
    <line x1="23.0001" y1="3.00009999999941" x2="43.0001" y2="3.00009999999911"/>
    <line x1="43.0001" y1="3.00009999999911" x2="43.0001" y2="6.00010000000015"/>
    <line x1="130.0001" y1="6.00010000000008" x2="110.0001" y2="6.00010000000008"/>
    <line x1="110.0001" y1="6.00010000000008" x2="110.0001" y2="3.00010000000002"/>
    <line x1="110.0001" y1="3.00010000000002" x2="130.0001" y2="3.00010000000005"/>
    <line x1="130.0001" y1="3.00010000000005" x2="130.0001" y2="6.00010000000008"/>
    <line x1="12.9489887394336" y1="4.11187143234677" x2="13.0001" y2="4.50009999999997"/>
    <line x1="13.0001" y1="4.50009999999997" x2="12.9489887394336" y2="4.88832856765396"/>
    <line x1="12.9489887394336" y1="4.88832856765396" x2="12.7991381056767" y2="5.25009999999998"/>
    <line x1="12.7991381056767" y1="5.25009999999998" x2="12.5607601717798" y2="5.56076017177983"/>
    <line x1="12.5607601717798" y1="5.56076017177983" x2="12.2501" y2="5.79913810567683"/>
    <line x1="12.2501" y1="5.79913810567683" x2="11.8883285676539" y2="5.94898873943346"/>
    <line x1="11.8883285676539" y1="5.94898873943346" x2="11.5001" y2="6.00009999999999"/>
    <line x1="11.5001" y1="6.00009999999999" x2="11.1118714323462" y2="5.94898873943326"/>
    <line x1="11.1118714323462" y1="5.94898873943326" x2="10.7501" y2="5.79913810567681"/>
    <line x1="10.7501" y1="5.79913810567681" x2="10.4394398282202" y2="5.56076017178022"/>
    <line x1="10.4394398282202" y1="5.56076017178022" x2="10.2010618943233" y2="5.25010000000006"/>
    <line x1="10.2010618943233" y1="5.25010000000006" x2="10.0512112605664" y2="4.88832856765411"/>
    <line x1="10.0512112605664" y1="4.88832856765411" x2="10.0001" y2="4.50009999999996"/>
    <line x1="10.0001" y1="4.50009999999996" x2="10.0512112605664" y2="4.11187143234629"/>
    <line x1="10.0512112605664" y1="4.11187143234629" x2="10.2010618943233" y2="3.75010000000029"/>
    <line x1="10.2010618943233" y1="3.75010000000029" x2="10.4394398282202" y2="3.43943982822048"/>
    <line x1="10.4394398282202" y1="3.43943982822048" x2="10.7501" y2="3.2010618943234"/>
    <line x1="10.7501" y1="3.2010618943234" x2="11.1118714323462" y2="3.05121126056628"/>
    <line x1="11.1118714323462" y1="3.05121126056628" x2="11.5001" y2="3.00010000000037"/>
    <line x1="11.5001" y1="3.00010000000037" x2="11.8883285676539" y2="3.05121126056728"/>
    <line x1="11.8883285676539" y1="3.05121126056728" x2="12.2501" y2="3.20106189432345"/>
    <line x1="12.2501" y1="3.20106189432345" x2="12.5607601717798" y2="3.43943982821964"/>
    <line x1="12.5607601717798" y1="3.43943982821964" x2="12.7991381056767" y2="3.75010000000053"/>
    <line x1="12.7991381056767" y1="3.75010000000053" x2="12.9489887394336" y2="4.11187143234677"/>
    <line x1="104.948988739434" y1="4.1118714323462" x2="105.0001" y2="4.50010000000007"/>
    <line x1="105.0001" y1="4.50010000000007" x2="104.948988739434" y2="4.8883285676539"/>
    <line x1="104.948988739434" y1="4.8883285676539" x2="104.799138105677" y2="5.25010000000008"/>
    <line x1="104.799138105677" y1="5.25010000000008" x2="104.56076017178" y2="5.56076017177982"/>
    <line x1="104.56076017178" y1="5.56076017177982" x2="104.2501" y2="5.79913810567674"/>
    <line x1="104.2501" y1="5.79913810567674" x2="103.888328567654" y2="5.94898873943363"/>
    <line x1="103.888328567654" y1="5.94898873943363" x2="103.5001" y2="6.0001000000001"/>
    <line x1="103.5001" y1="6.0001000000001" x2="103.111871432346" y2="5.94898873943368"/>
    <line x1="103.111871432346" y1="5.94898873943368" x2="102.7501" y2="5.79913810567673"/>
    <line x1="102.7501" y1="5.79913810567673" x2="102.43943982822" y2="5.5607601717799"/>
    <line x1="102.43943982822" y1="5.5607601717799" x2="102.201061894323" y2="5.25010000000007"/>
    <line x1="102.201061894323" y1="5.25010000000007" x2="102.051211260566" y2="4.88832856765388"/>
    <line x1="102.051211260566" y1="4.88832856765388" x2="102.0001" y2="4.50010000000008"/>
    <line x1="102.0001" y1="4.50010000000008" x2="102.051211260566" y2="4.11187143234628"/>
    <line x1="102.051211260566" y1="4.11187143234628" x2="102.201061894323" y2="3.75009999999994"/>
    <line x1="102.201061894323" y1="3.75009999999994" x2="102.43943982822" y2="3.43943982822028"/>
    <line x1="102.43943982822" y1="3.43943982822028" x2="102.7501" y2="3.20106189432343"/>
    <line x1="102.7501" y1="3.20106189432343" x2="103.111871432346" y2="3.05121126056646"/>
    <line x1="103.111871432346" y1="3.05121126056646" x2="103.5001" y2="3.00009999999999"/>
    <line x1="103.5001" y1="3.00009999999999" x2="103.888328567654" y2="3.05121126056637"/>
    <line x1="103.888328567654" y1="3.05121126056637" x2="104.2501" y2="3.2010618943234"/>
    <line x1="104.2501" y1="3.2010618943234" x2="104.56076017178" y2="3.43943982822029"/>
    <line x1="104.56076017178" y1="3.43943982822029" x2="104.799138105677" y2="3.75010000000004"/>
    <line x1="104.799138105677" y1="3.75010000000004" x2="104.948988739434" y2="4.1118714323462"/>
    <line x1="140.0001" y1="10.0001000000001" x2="143.0001" y2="10.0001000000001"/>
    <line x1="143.0001" y1="10.0001000000001" x2="143.0001" y2="30.0001"/>
    <line x1="143.0001" y1="30.0001" x2="140.0001" y2="30.0001"/>
    <line x1="140.0001" y1="30.0001" x2="140.0001" y2="10.0001000000001"/>
    <line x1="141.111871432346" y1="35.0512112605664" x2="141.5001" y2="35.0001000000001"/>
    <line x1="141.5001" y1="35.0001000000001" x2="141.888328567654" y2="35.0512112605664"/>
    <line x1="141.888328567654" y1="35.0512112605664" x2="142.2501" y2="35.2010618943234"/>
    <line x1="142.2501" y1="35.2010618943234" x2="142.56076017178" y2="35.4394398282202"/>
    <line x1="142.56076017178" y1="35.4394398282202" x2="142.799138105677" y2="35.7501000000001"/>
    <line x1="142.799138105677" y1="35.7501000000001" x2="142.948988739434" y2="36.1118714323463"/>
    <line x1="142.948988739434" y1="36.1118714323463" x2="143.0001" y2="36.5001"/>
    <line x1="143.0001" y1="36.5001" x2="142.948988739434" y2="36.8883285676538"/>
    <line x1="142.948988739434" y1="36.8883285676538" x2="142.799138105677" y2="37.2501"/>
    <line x1="142.799138105677" y1="37.2501" x2="142.56076017178" y2="37.5607601717799"/>
    <line x1="142.56076017178" y1="37.5607601717799" x2="142.2501" y2="37.7991381056767"/>
    <line x1="142.2501" y1="37.7991381056767" x2="141.888328567654" y2="37.9489887394337"/>
    <line x1="141.888328567654" y1="37.9489887394337" x2="141.5001" y2="38.0001"/>
    <line x1="141.5001" y1="38.0001" x2="141.111871432346" y2="37.9489887394336"/>
    <line x1="141.111871432346" y1="37.9489887394336" x2="140.7501" y2="37.7991381056767"/>
    <line x1="140.7501" y1="37.7991381056767" x2="140.43943982822" y2="37.5607601717799"/>
    <line x1="140.43943982822" y1="37.5607601717799" x2="140.201061894323" y2="37.2501"/>
    <line x1="140.201061894323" y1="37.2501" x2="140.051211260566" y2="36.8883285676538"/>
    <line x1="140.051211260566" y1="36.8883285676538" x2="140.0001" y2="36.5001"/>
    <line x1="140.0001" y1="36.5001" x2="140.051211260566" y2="36.1118714323463"/>
    <line x1="140.051211260566" y1="36.1118714323463" x2="140.201061894323" y2="35.7501"/>
    <line x1="140.201061894323" y1="35.7501" x2="140.43943982822" y2="35.4394398282202"/>
    <line x1="140.43943982822" y1="35.4394398282202" x2="140.7501" y2="35.2010618943234"/>
    <line x1="140.7501" y1="35.2010618943234" x2="141.111871432346" y2="35.0512112605664"/>
    <line x1="143.0001" y1="126.0001" x2="143.0001" y2="146.0001"/>
    <line x1="143.0001" y1="146.0001" x2="140.0001" y2="146.0001"/>
    <line x1="140.0001" y1="146.0001" x2="140.0001" y2="126.0001"/>
    <line x1="140.0001" y1="126.0001" x2="143.0001" y2="126.0001"/>
    <line x1="141.888328567654" y1="120.948988739434" x2="141.5001" y2="121.0001"/>
    <line x1="141.5001" y1="121.0001" x2="141.111871432346" y2="120.948988739434"/>
    <line x1="141.111871432346" y1="120.948988739434" x2="140.7501" y2="120.799138105677"/>
    <line x1="140.7501" y1="120.799138105677" x2="140.43943982822" y2="120.56076017178"/>
    <line x1="140.43943982822" y1="120.56076017178" x2="140.201061894323" y2="120.2501"/>
    <line x1="140.201061894323" y1="120.2501" x2="140.051211260566" y2="119.888328567654"/>
    <line x1="140.051211260566" y1="119.888328567654" x2="140.0001" y2="119.5001"/>
    <line x1="140.0001" y1="119.5001" x2="140.051211260566" y2="119.111871432346"/>
    <line x1="140.051211260566" y1="119.111871432346" x2="140.201061894323" y2="118.7501"/>
    <line x1="140.201061894323" y1="118.7501" x2="140.43943982822" y2="118.43943982822"/>
    <line x1="140.43943982822" y1="118.43943982822" x2="140.7501" y2="118.201061894323"/>
    <line x1="140.7501" y1="118.201061894323" x2="141.111871432346" y2="118.051211260566"/>
    <line x1="141.111871432346" y1="118.051211260566" x2="141.5001" y2="118.0001"/>
    <line x1="141.5001" y1="118.0001" x2="141.888328567654" y2="118.051211260566"/>
    <line x1="141.888328567654" y1="118.051211260566" x2="142.2501" y2="118.201061894323"/>
    <line x1="142.2501" y1="118.201061894323" x2="142.56076017178" y2="118.43943982822"/>
    <line x1="142.56076017178" y1="118.43943982822" x2="142.799138105677" y2="118.7501"/>
    <line x1="142.799138105677" y1="118.7501" x2="142.948988739434" y2="119.111871432346"/>
    <line x1="142.948988739434" y1="119.111871432346" x2="143.0001" y2="119.5001"/>
    <line x1="143.0001" y1="119.5001" x2="142.948988739434" y2="119.888328567654"/>
    <line x1="142.948988739434" y1="119.888328567654" x2="142.799138105677" y2="120.2501"/>
    <line x1="142.799138105677" y1="120.2501" x2="142.56076017178" y2="120.56076017178"/>
    <line x1="142.56076017178" y1="120.56076017178" x2="142.2501" y2="120.799138105677"/>
    <line x1="142.2501" y1="120.799138105677" x2="141.888328567654" y2="120.948988739434"/>
    <line x1="110.0001" y1="150.0001" x2="130.0001" y2="150.0001"/>
    <line x1="130.0001" y1="150.0001" x2="130.0001" y2="153.0001"/>
    <line x1="130.0001" y1="153.0001" x2="110.0001" y2="153.0001"/>
    <line x1="110.0001" y1="153.0001" x2="110.0001" y2="150.0001"/>
    <line x1="104.948988739434" y1="151.111871432346" x2="105.0001" y2="151.5001"/>
    <line x1="105.0001" y1="151.5001" x2="104.948988739434" y2="151.888328567654"/>
    <line x1="104.948988739434" y1="151.888328567654" x2="104.799138105677" y2="152.2501"/>
    <line x1="104.799138105677" y1="152.2501" x2="104.56076017178" y2="152.56076017178"/>
    <line x1="104.56076017178" y1="152.56076017178" x2="104.2501" y2="152.799138105677"/>
    <line x1="104.2501" y1="152.799138105677" x2="103.888328567654" y2="152.948988739434"/>
    <line x1="103.888328567654" y1="152.948988739434" x2="103.5001" y2="153.0001"/>
    <line x1="103.5001" y1="153.0001" x2="103.111871432346" y2="152.948988739434"/>
    <line x1="103.111871432346" y1="152.948988739434" x2="102.7501" y2="152.799138105677"/>
    <line x1="102.7501" y1="152.799138105677" x2="102.43943982822" y2="152.56076017178"/>
    <line x1="102.43943982822" y1="152.56076017178" x2="102.201061894323" y2="152.2501"/>
    <line x1="102.201061894323" y1="152.2501" x2="102.051211260566" y2="151.888328567654"/>
    <line x1="102.051211260566" y1="151.888328567654" x2="102.0001" y2="151.5001"/>
    <line x1="102.0001" y1="151.5001" x2="102.051211260566" y2="151.111871432346"/>
    <line x1="102.051211260566" y1="151.111871432346" x2="102.201061894323" y2="150.7501"/>
    <line x1="102.201061894323" y1="150.7501" x2="102.43943982822" y2="150.43943982822"/>
    <line x1="102.43943982822" y1="150.43943982822" x2="102.7501" y2="150.201061894323"/>
    <line x1="102.7501" y1="150.201061894323" x2="103.111871432346" y2="150.051211260566"/>
    <line x1="103.111871432346" y1="150.051211260566" x2="103.5001" y2="150.0001"/>
    <line x1="103.5001" y1="150.0001" x2="103.888328567654" y2="150.051211260566"/>
    <line x1="103.888328567654" y1="150.051211260566" x2="104.2501" y2="150.201061894323"/>
    <line x1="104.2501" y1="150.201061894323" x2="104.56076017178" y2="150.43943982822"/>
    <line x1="104.56076017178" y1="150.43943982822" x2="104.799138105677" y2="150.7501"/>
    <line x1="104.799138105677" y1="150.7501" x2="104.948988739434" y2="151.111871432346"/>
    <line x1="23.0001" y1="150.0001" x2="43.0001" y2="150.0001"/>
    <line x1="43.0001" y1="150.0001" x2="43.0001" y2="153.0001"/>
    <line x1="43.0001" y1="153.0001" x2="23.0001" y2="153.0001"/>
    <line x1="23.0001" y1="153.0001" x2="23.0001" y2="150.0001"/>
    <line x1="12.9489887394336" y1="151.111871432346" x2="13.0001" y2="151.5001"/>
    <line x1="13.0001" y1="151.5001" x2="12.9489887394336" y2="151.888328567654"/>
    <line x1="12.9489887394336" y1="151.888328567654" x2="12.7991381056767" y2="152.2501"/>
    <line x1="12.7991381056767" y1="152.2501" x2="12.5607601717799" y2="152.56076017178"/>
    <line x1="12.5607601717799" y1="152.56076017178" x2="12.2501" y2="152.799138105677"/>
    <line x1="12.2501" y1="152.799138105677" x2="11.8883285676539" y2="152.948988739434"/>
    <line x1="11.8883285676539" y1="152.948988739434" x2="11.5001000000001" y2="153.0001"/>
    <line x1="11.5001000000001" y1="153.0001" x2="11.1118714323464" y2="152.948988739434"/>
    <line x1="11.1118714323464" y1="152.948988739434" x2="10.7501" y2="152.799138105677"/>
    <line x1="10.7501" y1="152.799138105677" x2="10.4394398282202" y2="152.56076017178"/>
    <line x1="10.4394398282202" y1="152.56076017178" x2="10.2010618943233" y2="152.2501"/>
    <line x1="10.2010618943233" y1="152.2501" x2="10.0512112605664" y2="151.888328567654"/>
    <line x1="10.0512112605664" y1="151.888328567654" x2="10.0001000000001" y2="151.5001"/>
    <line x1="10.0001000000001" y1="151.5001" x2="10.0512112605664" y2="151.111871432346"/>
    <line x1="10.0512112605664" y1="151.111871432346" x2="10.2010618943233" y2="150.7501"/>
    <line x1="10.2010618943233" y1="150.7501" x2="10.4394398282201" y2="150.43943982822"/>
    <line x1="10.4394398282201" y1="150.43943982822" x2="10.7501" y2="150.201061894323"/>
    <line x1="10.7501" y1="150.201061894323" x2="11.1118714323462" y2="150.051211260566"/>
    <line x1="11.1118714323462" y1="150.051211260566" x2="11.5001" y2="150.0001"/>
    <line x1="11.5001" y1="150.0001" x2="11.8883285676539" y2="150.051211260566"/>
    <line x1="11.8883285676539" y1="150.051211260566" x2="12.2501" y2="150.201061894323"/>
    <line x1="12.2501" y1="150.201061894323" x2="12.5607601717799" y2="150.43943982822"/>
    <line x1="12.5607601717799" y1="150.43943982822" x2="12.7991381056767" y2="150.7501"/>
    <line x1="12.7991381056767" y1="150.7501" x2="12.9489887394336" y2="151.111871432346"/>
    <line x1="58.0001" y1="88.0001" x2="58.0001" y2="93.0001"/>
    <line x1="58.0001" y1="93.0001" x2="55.0001" y2="93.0001000000001"/>
    <line x1="55.0001" y1="93.0001000000001" x2="55.0001" y2="88.0001"/>
    <line x1="55.0001" y1="88.0001" x2="58.0001" y2="88.0001"/>
    <line x1="55.0001" y1="68.0001" x2="55.0001" y2="63.0001"/>
    <line x1="55.0001" y1="63.0001" x2="58.0001" y2="63.0001"/>
    <line x1="58.0001" y1="63.0001" x2="58.0001" y2="68.0001000000001"/>
    <line x1="58.0001" y1="68.0001000000001" x2="55.0001" y2="68.0001"/>
    <line x1="92.0000999999967" y1="93.0000999999997" x2="92.0000999999967" y2="88.0001000000004"/>
    <line x1="92.0000999999967" y1="88.0001000000004" x2="95.0000999999978" y2="88.0001000000004"/>
    <line x1="95.0000999999978" y1="88.0001000000004" x2="95.0000999999978" y2="93.0000999999997"/>
    <line x1="95.0000999999978" y1="93.0000999999997" x2="92.0000999999967" y2="93.0000999999997"/>
    <line x1="95.0001000000034" y1="68.0000999999997" x2="92.0001000000023" y2="68.0000999999997"/>
    <line x1="92.0001000000023" y1="68.0000999999997" x2="92.0001000000023" y2="63.0001000000004"/>
    <line x1="92.0001000000023" y1="63.0001000000004" x2="95.0001000000034" y2="63.0001000000004"/>
    <line x1="95.0001000000034" y1="63.0001000000004" x2="95.0001000000034" y2="68.0000999999997"/>
    <line x1="93.1118714323485" y1="78.0512112605665" x2="93.5001000000023" y2="78.0001000000001"/>
    <line x1="93.5001000000023" y1="78.0001000000001" x2="93.8883285676561" y2="78.0512112605665"/>
    <line x1="93.8883285676561" y1="78.0512112605665" x2="94.2501000000023" y2="78.2010618943234"/>
    <line x1="94.2501000000023" y1="78.2010618943234" x2="94.5607601717821" y2="78.4394398282203"/>
    <line x1="94.5607601717821" y1="78.4394398282203" x2="94.7991381056788" y2="78.7501"/>
    <line x1="94.7991381056788" y1="78.7501" x2="94.9489887394359" y2="79.1118714323463"/>
    <line x1="94.9489887394359" y1="79.1118714323463" x2="95.0001000000023" y2="79.5001000000001"/>
    <line x1="95.0001000000023" y1="79.5001000000001" x2="94.9489887394359" y2="79.8883285676539"/>
    <line x1="94.9489887394359" y1="79.8883285676539" x2="94.799138105679" y2="80.2501000000001"/>
    <line x1="94.799138105679" y1="80.2501000000001" x2="94.5607601717821" y2="80.5607601717799"/>
    <line x1="94.5607601717821" y1="80.5607601717799" x2="94.2501000000023" y2="80.7991381056767"/>
    <line x1="94.2501000000023" y1="80.7991381056767" x2="93.8883285676561" y2="80.9489887394337"/>
    <line x1="93.8883285676561" y1="80.9489887394337" x2="93.5001000000023" y2="81.0001000000001"/>
    <line x1="93.5001000000023" y1="81.0001000000001" x2="93.1118714323485" y2="80.9489887394337"/>
    <line x1="93.1118714323485" y1="80.9489887394337" x2="92.7501000000023" y2="80.7991381056767"/>
    <line x1="92.7501000000023" y1="80.7991381056767" x2="92.4394398282224" y2="80.5607601717799"/>
    <line x1="92.4394398282224" y1="80.5607601717799" x2="92.2010618943256" y2="80.2501000000001"/>
    <line x1="92.2010618943256" y1="80.2501000000001" x2="92.0512112605687" y2="79.8883285676539"/>
    <line x1="92.0512112605687" y1="79.8883285676539" x2="92.0001000000023" y2="79.5001000000001"/>
    <line x1="92.0001000000023" y1="79.5001000000001" x2="92.0512112605687" y2="79.1118714323463"/>
    <line x1="92.0512112605687" y1="79.1118714323463" x2="92.2010618943256" y2="78.7501"/>
    <line x1="92.2010618943256" y1="78.7501" x2="92.4394398282225" y2="78.4394398282203"/>
    <line x1="92.4394398282225" y1="78.4394398282203" x2="92.7501000000023" y2="78.2010618943234"/>
    <line x1="92.7501000000023" y1="78.2010618943234" x2="93.1118714323485" y2="78.0512112605665"/>
    <line x1="56.1118714323462" y1="78.0512112605664" x2="56.5001" y2="78.0001"/>
    <line x1="56.5001" y1="78.0001" x2="56.8883285676538" y2="78.0512112605665"/>
    <line x1="56.8883285676538" y1="78.0512112605665" x2="57.2501" y2="78.2010618943234"/>
    <line x1="57.2501" y1="78.2010618943234" x2="57.5607601717799" y2="78.4394398282202"/>
    <line x1="57.5607601717799" y1="78.4394398282202" x2="57.7991381056767" y2="78.7501000000001"/>
    <line x1="57.7991381056767" y1="78.7501000000001" x2="57.9489887394335" y2="79.1118714323463"/>
    <line x1="57.9489887394335" y1="79.1118714323463" x2="58.0001" y2="79.5001000000001"/>
    <line x1="58.0001" y1="79.5001000000001" x2="57.9489887394335" y2="79.8883285676538"/>
    <line x1="57.9489887394335" y1="79.8883285676538" x2="57.7991381056767" y2="80.2501"/>
    <line x1="57.7991381056767" y1="80.2501" x2="57.5607601717798" y2="80.5607601717799"/>
    <line x1="57.5607601717798" y1="80.5607601717799" x2="57.2501" y2="80.7991381056767"/>
    <line x1="57.2501" y1="80.7991381056767" x2="56.8883285676538" y2="80.9489887394337"/>
    <line x1="56.8883285676538" y1="80.9489887394337" x2="56.5001" y2="81.0001"/>
    <line x1="56.5001" y1="81.0001" x2="56.1118714323462" y2="80.9489887394337"/>
    <line x1="56.1118714323462" y1="80.9489887394337" x2="55.7501" y2="80.7991381056767"/>
    <line x1="55.7501" y1="80.7991381056767" x2="55.4394398282202" y2="80.5607601717799"/>
    <line x1="55.4394398282202" y1="80.5607601717799" x2="55.2010618943233" y2="80.2501"/>
    <line x1="55.2010618943233" y1="80.2501" x2="55.0512112605664" y2="79.8883285676539"/>
    <line x1="55.0512112605664" y1="79.8883285676539" x2="55.0001" y2="79.5001000000001"/>
    <line x1="55.0001" y1="79.5001000000001" x2="55.0512112605664" y2="79.1118714323463"/>
    <line x1="55.0512112605664" y1="79.1118714323463" x2="55.2010618943234" y2="78.7501000000001"/>
    <line x1="55.2010618943234" y1="78.7501000000001" x2="55.4394398282202" y2="78.4394398282202"/>
    <line x1="55.4394398282202" y1="78.4394398282202" x2="55.7501" y2="78.2010618943234"/>
    <line x1="55.7501" y1="78.2010618943234" x2="56.1118714323462" y2="78.0512112605664"/>
  </g>
</svg>
