<?xml version="1.0" standalone="no"?>
<!DOCTYPE svg PUBLIC "-//W3C//DTD SVG 1.1//EN" "http://www.w3.org/Graphics/SVG/1.1/DTD/svg11.dtd">
<svg width="80.0002mm" height="80.0002mm"
 viewBox="0 0 80.0002 80.0002"
 xmlns="http://www.w3.org/2000/svg" version="1.1"
 xmlns:xlink="http://www.w3.org/1999/xlink">
<desc>Output from Flights of Ideas SVG Sketchup Plugin</desc>

  <g id="face0" fill="none" stroke="rgb(0,0,255)" stroke-width="1" stroke-miterlimit="4" stroke-dasharray="none" stroke-linejoin="round" stroke-linecap="round">
    <line x1="20.0000999999999" y1="74.6411161513776" x2="29.6473381958991" y2="78.6371330515628"/>
    <line x1="29.6473381958991" y1="78.6371330515628" x2="40.0000999999999" y2="80.0001"/>
    <line x1="40.0000999999999" y1="80.0001" x2="50.3528618041009" y2="78.6371330515628"/>
    <line x1="50.3528618041009" y1="78.6371330515628" x2="60.0001" y2="74.6411161513776"/>
    <line x1="60.0001" y1="74.6411161513776" x2="68.2843712474619" y2="68.284371247462"/>
    <line x1="68.2843712474619" y1="68.284371247462" x2="74.6411161513775" y2="60.0001000000001"/>
    <line x1="74.6411161513775" y1="60.0001000000001" x2="78.6371330515628" y2="50.3528618041009"/>
    <line x1="78.6371330515628" y1="50.3528618041009" x2="80.0001" y2="40.0001000000001"/>
    <line x1="80.0001" y1="40.0001000000001" x2="78.6371330515628" y2="29.6473381958992"/>
    <line x1="78.6371330515628" y1="29.6473381958992" x2="74.6411161513776" y2="20.0001000000001"/>
    <line x1="74.6411161513776" y1="20.0001000000001" x2="68.2843712474619" y2="11.7158287525381"/>
    <line x1="68.2843712474619" y1="11.7158287525381" x2="60.0001000000001" y2="5.35908384862247"/>
    <line x1="60.0001000000001" y1="5.35908384862247" x2="50.3528618041009" y2="1.36306694843725"/>
    <line x1="50.3528618041009" y1="1.36306694843725" x2="40.0001" y2="0.0001"/>
    <line x1="40.0001" y1="0.0001" x2="29.6473381958992" y2="1.36306694843725"/>
    <line x1="29.6473381958992" y1="1.36306694843725" x2="20.0001" y2="5.35908384862242"/>
    <line x1="20.0001" y1="5.35908384862242" x2="11.7158287525381" y2="11.7158287525381"/>
    <line x1="11.7158287525381" y1="11.7158287525381" x2="5.35908384862242" y2="20.0001000000001"/>
    <line x1="5.35908384862242" y1="20.0001000000001" x2="1.36306694843725" y2="29.6473381958991"/>
    <line x1="1.36306694843725" y1="29.6473381958991" x2="0.0001" y2="40.0001"/>
    <line x1="0.0001" y1="40.0001" x2="1.36306694843725" y2="50.3528618041008"/>
    <line x1="1.36306694843725" y1="50.3528618041008" x2="5.35908384862242" y2="60.0001"/>
    <line x1="5.35908384862242" y1="60.0001" x2="11.7158287525381" y2="68.2843712474619"/>
    <line x1="11.7158287525381" y1="68.2843712474619" x2="20.0000999999999" y2="74.6411161513776"/>
    <line x1="18.3108845602289" y1="60.8480465781912" x2="18.4216397069984" y2="60.7372914314217"/>
    <line x1="18.4216397069984" y1="60.7372914314217" x2="18.5572865049845" y2="60.6589757160897"/>
    <line x1="18.5572865049845" y1="60.6589757160897" x2="18.7085808490716" y2="60.6184365187721"/>
    <line x1="18.7085808490716" y1="60.6184365187721" x2="18.8652122797356" y2="60.6184365187721"/>
    <line x1="18.8652122797356" y1="60.6184365187721" x2="19.0165066238226" y2="60.6589757160897"/>
    <line x1="19.0165066238226" y1="60.6589757160897" x2="19.1521534218088" y2="60.7372914314217"/>
    <line x1="19.1521534218088" y1="60.7372914314217" x2="19.2075309951936" y2="60.7926690048065"/>
    <line x1="19.2075309951936" y1="60.7926690048065" x2="19.2629085685784" y2="60.8480465781912"/>
    <line x1="19.2629085685784" y1="60.8480465781912" x2="19.3412242839104" y2="60.9836933761774"/>
    <line x1="19.3412242839104" y1="60.9836933761774" x2="19.3817634812279" y2="61.1349877202644"/>
    <line x1="19.3817634812279" y1="61.1349877202644" x2="19.3817634812279" y2="61.2916191509285"/>
    <line x1="19.3817634812279" y1="61.2916191509285" x2="19.3412242839103" y2="61.4429134950155"/>
    <line x1="19.3412242839103" y1="61.4429134950155" x2="19.2629085685784" y2="61.5785602930017"/>
    <line x1="19.2629085685784" y1="61.5785602930017" x2="19.1521534218088" y2="61.6893154397712"/>
    <line x1="19.1521534218088" y1="61.6893154397712" x2="19.0165066238226" y2="61.7676311551033"/>
    <line x1="19.0165066238226" y1="61.7676311551033" x2="18.8652122797356" y2="61.8081703524208"/>
    <line x1="18.8652122797356" y1="61.8081703524208" x2="18.7085808490716" y2="61.8081703524207"/>
    <line x1="18.7085808490716" y1="61.8081703524207" x2="18.5572865049845" y2="61.7676311551032"/>
    <line x1="18.5572865049845" y1="61.7676311551032" x2="18.4216397069984" y2="61.6893154397712"/>
    <line x1="18.4216397069984" y1="61.6893154397712" x2="18.3108845602289" y2="61.5785602930017"/>
    <line x1="18.3108845602289" y1="61.5785602930017" x2="18.2325688448968" y2="61.4429134950155"/>
    <line x1="18.2325688448968" y1="61.4429134950155" x2="18.1920296475793" y2="61.2916191509284"/>
    <line x1="18.1920296475793" y1="61.2916191509284" x2="18.1920296475793" y2="61.1349877202644"/>
    <line x1="18.1920296475793" y1="61.1349877202644" x2="18.2325688448969" y2="60.9836933761774"/>
    <line x1="18.2325688448969" y1="60.9836933761774" x2="18.3108845602289" y2="60.8480465781912"/>
    <line x1="39.2501" y1="41.2991381056767" x2="38.9394398282202" y2="41.0607601717798"/>
    <line x1="38.9394398282202" y1="41.0607601717798" x2="38.7010618943234" y2="40.7501"/>
    <line x1="38.7010618943234" y1="40.7501" x2="38.5512112605664" y2="40.3883285676538"/>
    <line x1="38.5512112605664" y1="40.3883285676538" x2="38.5001" y2="40.0001000000001"/>
    <line x1="38.5001" y1="40.0001000000001" x2="38.5512112605664" y2="39.6118714323462"/>
    <line x1="38.5512112605664" y1="39.6118714323462" x2="38.7010618943234" y2="39.2501"/>
    <line x1="38.7010618943234" y1="39.2501" x2="38.9394398282202" y2="38.9394398282202"/>
    <line x1="38.9394398282202" y1="38.9394398282202" x2="39.2501" y2="38.7010618943234"/>
    <line x1="39.2501" y1="38.7010618943234" x2="39.6118714323462" y2="38.5512112605664"/>
    <line x1="39.6118714323462" y1="38.5512112605664" x2="40.0001" y2="38.5001"/>
    <line x1="40.0001" y1="38.5001" x2="40.3883285676538" y2="38.5512112605664"/>
    <line x1="40.3883285676538" y1="38.5512112605664" x2="40.7501" y2="38.7010618943234"/>
    <line x1="40.7501" y1="38.7010618943234" x2="41.0607601717798" y2="38.9394398282202"/>
    <line x1="41.0607601717798" y1="38.9394398282202" x2="41.2991381056767" y2="39.2501"/>
    <line x1="41.2991381056767" y1="39.2501" x2="41.4489887394336" y2="39.6118714323462"/>
    <line x1="41.4489887394336" y1="39.6118714323462" x2="41.5001" y2="40.0001"/>
    <line x1="41.5001" y1="40.0001" x2="41.4489887394336" y2="40.3883285676538"/>
    <line x1="41.4489887394336" y1="40.3883285676538" x2="41.2991381056767" y2="40.7501000000001"/>
    <line x1="41.2991381056767" y1="40.7501000000001" x2="41.0607601717798" y2="41.0607601717798"/>
    <line x1="41.0607601717798" y1="41.0607601717798" x2="40.7501" y2="41.2991381056767"/>
    <line x1="40.7501" y1="41.2991381056767" x2="40.3883285676538" y2="41.4489887394336"/>
    <line x1="40.3883285676538" y1="41.4489887394336" x2="40.0001" y2="41.5001"/>
    <line x1="40.0001" y1="41.5001" x2="39.6118714323462" y2="41.4489887394336"/>
    <line x1="39.6118714323462" y1="41.4489887394336" x2="39.2501" y2="41.2991381056767"/>
    <line x1="10.7353126370542" y1="47.0717617036922" x2="10.924430567163" y2="47.0210877070453"/>
    <line x1="10.924430567163" y1="47.0210877070453" x2="11.120219855493" y2="47.0210877070453"/>
    <line x1="11.120219855493" y1="47.0210877070453" x2="11.3093377856018" y2="47.0717617036922"/>
    <line x1="11.3093377856018" y1="47.0717617036922" x2="11.4788962830845" y2="47.1696563478572"/>
    <line x1="11.4788962830845" y1="47.1696563478572" x2="11.6173402165464" y2="47.3081002813191"/>
    <line x1="11.6173402165464" y1="47.3081002813191" x2="11.7152348607114" y2="47.4776587788018"/>
    <line x1="11.7152348607114" y1="47.4776587788018" x2="11.7405718590349" y2="47.5722177438562"/>
    <line x1="11.7405718590349" y1="47.5722177438562" x2="11.7659088573583" y2="47.6667767089106"/>
    <line x1="11.7659088573583" y1="47.6667767089106" x2="11.7659088573583" y2="47.8625659972407"/>
    <line x1="11.7659088573583" y1="47.8625659972407" x2="11.7152348607114" y2="48.0516839273495"/>
    <line x1="11.7152348607114" y1="48.0516839273495" x2="11.6173402165463" y2="48.2212424248322"/>
    <line x1="11.6173402165463" y1="48.2212424248322" x2="11.4788962830845" y2="48.3596863582941"/>
    <line x1="11.4788962830845" y1="48.3596863582941" x2="11.3093377856018" y2="48.4575810024591"/>
    <line x1="11.3093377856018" y1="48.4575810024591" x2="11.120219855493" y2="48.508254999106"/>
    <line x1="11.120219855493" y1="48.508254999106" x2="10.9244305671629" y2="48.508254999106"/>
    <line x1="10.9244305671629" y1="48.508254999106" x2="10.7353126370541" y2="48.4575810024591"/>
    <line x1="10.7353126370541" y1="48.4575810024591" x2="10.5657541395714" y2="48.3596863582941"/>
    <line x1="10.5657541395714" y1="48.3596863582941" x2="10.4273102061095" y2="48.2212424248322"/>
    <line x1="10.4273102061095" y1="48.2212424248322" x2="10.3294155619445" y2="48.0516839273494"/>
    <line x1="10.3294155619445" y1="48.0516839273494" x2="10.2787415652976" y2="47.8625659972407"/>
    <line x1="10.2787415652976" y1="47.8625659972407" x2="10.2787415652976" y2="47.6667767089106"/>
    <line x1="10.2787415652976" y1="47.6667767089106" x2="10.3294155619445" y2="47.4776587788018"/>
    <line x1="10.3294155619445" y1="47.4776587788018" x2="10.4273102061096" y2="47.3081002813191"/>
    <line x1="10.4273102061096" y1="47.3081002813191" x2="10.5657541395714" y2="47.1696563478572"/>
    <line x1="10.5657541395714" y1="47.1696563478572" x2="10.7353126370542" y2="47.0717617036922"/>
    <line x1="11.1528514035481" y1="31.2440837855505" x2="11.4050086436931" y2="31.3116491144131"/>
    <line x1="11.4050086436931" y1="31.3116491144131" x2="11.6310866403367" y2="31.4421753066332"/>
    <line x1="11.6310866403367" y1="31.4421753066332" x2="11.8156785516192" y2="31.6267672179157"/>
    <line x1="11.8156785516192" y1="31.6267672179157" x2="11.9462047438393" y2="31.8528452145593"/>
    <line x1="11.9462047438393" y1="31.8528452145593" x2="12.0137700727018" y2="32.1050024547043"/>
    <line x1="12.0137700727018" y1="32.1050024547043" x2="12.0137700727018" y2="32.3660548391444"/>
    <line x1="12.0137700727018" y1="32.3660548391444" x2="11.9799874082705" y2="32.4921334592169"/>
    <line x1="11.9799874082705" y1="32.4921334592169" x2="11.9462047438393" y2="32.6182120792895"/>
    <line x1="11.9462047438393" y1="32.6182120792895" x2="11.8156785516192" y2="32.8442900759331"/>
    <line x1="11.8156785516192" y1="32.8442900759331" x2="11.6310866403367" y2="33.0288819872156"/>
    <line x1="11.6310866403367" y1="33.0288819872156" x2="11.4050086436931" y2="33.1594081794357"/>
    <line x1="11.4050086436931" y1="33.1594081794357" x2="11.1528514035481" y2="33.2269735082982"/>
    <line x1="11.1528514035481" y1="33.2269735082982" x2="10.8917990191079" y2="33.2269735082982"/>
    <line x1="10.8917990191079" y1="33.2269735082982" x2="10.6396417789629" y2="33.1594081794357"/>
    <line x1="10.6396417789629" y1="33.1594081794357" x2="10.4135637823192" y2="33.0288819872157"/>
    <line x1="10.4135637823192" y1="33.0288819872157" x2="10.2289718710367" y2="32.8442900759331"/>
    <line x1="10.2289718710367" y1="32.8442900759331" x2="10.0984456788167" y2="32.6182120792895"/>
    <line x1="10.0984456788167" y1="32.6182120792895" x2="10.0308803499541" y2="32.3660548391444"/>
    <line x1="10.0308803499541" y1="32.3660548391444" x2="10.0308803499541" y2="32.1050024547044"/>
    <line x1="10.0308803499541" y1="32.1050024547044" x2="10.0984456788167" y2="31.8528452145593"/>
    <line x1="10.0984456788167" y1="31.8528452145593" x2="10.2289718710367" y2="31.6267672179157"/>
    <line x1="10.2289718710367" y1="31.6267672179157" x2="10.4135637823192" y2="31.4421753066332"/>
    <line x1="10.4135637823192" y1="31.4421753066332" x2="10.6396417789629" y2="31.3116491144131"/>
    <line x1="10.6396417789629" y1="31.3116491144131" x2="10.8917990191079" y2="31.2440837855505"/>
    <line x1="10.8917990191079" y1="31.2440837855505" x2="11.1528514035481" y2="31.2440837855505"/>
    <line x1="19.6707800408868" y1="17.9030130879204" x2="19.7701041800105" y2="18.032454826162"/>
    <line x1="19.7701041800105" y1="18.032454826162" x2="19.8694283191341" y2="18.1618965644036"/>
    <line x1="19.8694283191341" y1="18.1618965644036" x2="19.9943038472649" y2="18.4633727580255"/>
    <line x1="19.9943038472649" y1="18.4633727580255" x2="20.0368965644036" y2="18.7868965644036"/>
    <line x1="20.0368965644036" y1="18.7868965644036" x2="19.9943038472649" y2="19.1104203707818"/>
    <line x1="19.9943038472649" y1="19.1104203707818" x2="19.8694283191341" y2="19.4118965644036"/>
    <line x1="19.8694283191341" y1="19.4118965644036" x2="19.6707800408868" y2="19.6707800408868"/>
    <line x1="19.6707800408868" y1="19.6707800408868" x2="19.4118965644036" y2="19.8694283191342"/>
    <line x1="19.4118965644036" y1="19.8694283191342" x2="19.1104203707818" y2="19.9943038472649"/>
    <line x1="19.1104203707818" y1="19.9943038472649" x2="18.7868965644036" y2="20.0368965644036"/>
    <line x1="18.7868965644036" y1="20.0368965644036" x2="18.4633727580254" y2="19.9943038472649"/>
    <line x1="18.4633727580254" y1="19.9943038472649" x2="18.1618965644036" y2="19.8694283191341"/>
    <line x1="18.1618965644036" y1="19.8694283191341" x2="18.032454826162" y2="19.7701041800105"/>
    <line x1="18.032454826162" y1="19.7701041800105" x2="17.9030130879204" y2="19.6707800408868"/>
    <line x1="17.9030130879204" y1="19.6707800408868" x2="17.704364809673" y2="19.4118965644036"/>
    <line x1="17.704364809673" y1="19.4118965644036" x2="17.5794892815423" y2="19.1104203707818"/>
    <line x1="17.5794892815423" y1="19.1104203707818" x2="17.5368965644036" y2="18.7868965644036"/>
    <line x1="17.5368965644036" y1="18.7868965644036" x2="17.5794892815423" y2="18.4633727580254"/>
    <line x1="17.5794892815423" y1="18.4633727580254" x2="17.704364809673" y2="18.1618965644036"/>
    <line x1="17.704364809673" y1="18.1618965644036" x2="17.9030130879204" y2="17.9030130879205"/>
    <line x1="17.9030130879204" y1="17.9030130879205" x2="18.1618965644036" y2="17.704364809673"/>
    <line x1="18.1618965644036" y1="17.704364809673" x2="18.4633727580254" y2="17.5794892815423"/>
    <line x1="18.4633727580254" y1="17.5794892815423" x2="18.7868965644036" y2="17.5368965644036"/>
    <line x1="18.7868965644036" y1="17.5368965644036" x2="19.1104203707817" y2="17.5794892815423"/>
    <line x1="19.1104203707817" y1="17.5794892815423" x2="19.4118965644036" y2="17.7043648096731"/>
    <line x1="19.4118965644036" y1="17.7043648096731" x2="19.6707800408868" y2="17.9030130879204"/>
    <line x1="33.6213479456913" y1="10.4483000627803" x2="33.7226959389851" y2="10.8265359229979"/>
    <line x1="33.7226959389851" y1="10.8265359229979" x2="33.7226959389851" y2="11.2181144996581"/>
    <line x1="33.7226959389851" y1="11.2181144996581" x2="33.6213479456913" y2="11.5963503598756"/>
    <line x1="33.6213479456913" y1="11.5963503598756" x2="33.4255586573612" y2="11.935467354841"/>
    <line x1="33.4255586573612" y1="11.935467354841" x2="33.1486707904374" y2="12.2123552217648"/>
    <line x1="33.1486707904374" y1="12.2123552217648" x2="32.809553795472" y2="12.4081445100949"/>
    <line x1="32.809553795472" y1="12.4081445100949" x2="32.6204358653632" y2="12.4588185067418"/>
    <line x1="32.6204358653632" y1="12.4588185067418" x2="32.4313179352545" y2="12.5094925033887"/>
    <line x1="32.4313179352545" y1="12.5094925033887" x2="32.0397393585943" y2="12.5094925033887"/>
    <line x1="32.0397393585943" y1="12.5094925033887" x2="31.6615034983767" y2="12.4081445100949"/>
    <line x1="31.6615034983767" y1="12.4081445100949" x2="31.3223865034113" y2="12.2123552217648"/>
    <line x1="31.3223865034113" y1="12.2123552217648" x2="31.0454986364876" y2="11.935467354841"/>
    <line x1="31.0454986364876" y1="11.935467354841" x2="30.8497093481575" y2="11.5963503598756"/>
    <line x1="30.8497093481575" y1="11.5963503598756" x2="30.7483613548636" y2="11.2181144996581"/>
    <line x1="30.7483613548636" y1="11.2181144996581" x2="30.7483613548636" y2="10.8265359229979"/>
    <line x1="30.7483613548636" y1="10.8265359229979" x2="30.8497093481575" y2="10.4483000627804"/>
    <line x1="30.8497093481575" y1="10.4483000627804" x2="31.0454986364876" y2="10.1091830678149"/>
    <line x1="31.0454986364876" y1="10.1091830678149" x2="31.3223865034113" y2="9.83229520089108"/>
    <line x1="31.3223865034113" y1="9.83229520089108" x2="31.6615034983767" y2="9.63650591256103"/>
    <line x1="31.6615034983767" y1="9.63650591256103" x2="32.0397393585943" y2="9.53515791926727"/>
    <line x1="32.0397393585943" y1="9.53515791926727" x2="32.4313179352545" y2="9.53515791926727"/>
    <line x1="32.4313179352545" y1="9.53515791926727" x2="32.809553795472" y2="9.63650591256103"/>
    <line x1="32.809553795472" y1="9.63650591256103" x2="33.1486707904375" y2="9.83229520089114"/>
    <line x1="33.1486707904375" y1="9.83229520089114" x2="33.4255586573612" y2="10.1091830678149"/>
    <line x1="33.4255586573612" y1="10.1091830678149" x2="33.6213479456913" y2="10.4483000627803"/>
    <line x1="49.4775929268817" y1="11.3806542249313" x2="49.3701078773293" y2="11.687318793203"/>
    <line x1="49.3701078773293" y1="11.687318793203" x2="49.3264841664892" y2="11.8117811859441"/>
    <line x1="49.3264841664892" y1="11.8117811859441" x2="49.0689404438804" y2="12.1891080269245"/>
    <line x1="49.0689404438804" y1="12.1891080269245" x2="48.7225129381398" y2="12.4869205472217"/>
    <line x1="48.7225129381398" y1="12.4869205472217" x2="48.3108101112852" y2="12.6849233157361"/>
    <line x1="48.3108101112852" y1="12.6849233157361" x2="47.8618888305955" y2="12.7696227710082"/>
    <line x1="47.8618888305955" y1="12.7696227710082" x2="47.4063423394723" y2="12.735246785134"/>
    <line x1="47.4063423394723" y1="12.735246785134" x2="47.3143361963954" y2="12.7029988964931"/>
    <line x1="47.3143361963954" y1="12.7029988964931" x2="46.9752153784595" y2="12.5841380247416"/>
    <line x1="46.9752153784595" y1="12.5841380247416" x2="46.5978885374791" y2="12.3265943021327"/>
    <line x1="46.5978885374791" y1="12.3265943021327" x2="46.3000760171819" y2="11.9801667963922"/>
    <line x1="46.3000760171819" y1="11.9801667963922" x2="46.1020732486676" y2="11.5684639695375"/>
    <line x1="46.1020732486676" y1="11.5684639695375" x2="46.0173737933953" y2="11.1195426888479"/>
    <line x1="46.0173737933953" y1="11.1195426888479" x2="46.041825747971" y2="10.7955082844585"/>
    <line x1="46.041825747971" y1="10.7955082844585" x2="46.0517497792696" y2="10.6639961977247"/>
    <line x1="46.0517497792696" y1="10.6639961977247" x2="46.2028585396621" y2="10.2328692367119"/>
    <line x1="46.2028585396621" y1="10.2328692367119" x2="46.4604022622708" y2="9.85554239573147"/>
    <line x1="46.4604022622708" y1="9.85554239573147" x2="46.8068297680115" y2="9.5577298754342"/>
    <line x1="46.8068297680115" y1="9.5577298754342" x2="47.2185325948661" y2="9.35972710691984"/>
    <line x1="47.2185325948661" y1="9.35972710691984" x2="47.6674538755558" y2="9.27502765164772"/>
    <line x1="47.6674538755558" y1="9.27502765164772" x2="48.123000366679" y2="9.30940363752196"/>
    <line x1="48.123000366679" y1="9.30940363752196" x2="48.2150065097559" y2="9.3416515261629"/>
    <line x1="48.2150065097559" y1="9.3416515261629" x2="48.5541273276917" y2="9.46051239791435"/>
    <line x1="48.5541273276917" y1="9.46051239791435" x2="48.9314541686721" y2="9.71805612052318"/>
    <line x1="48.9314541686721" y1="9.71805612052318" x2="49.2292666889694" y2="10.0644836262638"/>
    <line x1="49.2292666889694" y1="10.0644836262638" x2="49.4272694574837" y2="10.4761864531185"/>
    <line x1="49.4272694574837" y1="10.4761864531185" x2="49.5119689127559" y2="10.9251077338081"/>
    <line x1="49.5119689127559" y1="10.9251077338081" x2="49.4775929268817" y2="11.3806542249313"/>
    <line x1="62.6275169979695" y1="20.2011101267767" x2="62.420410216783" y2="20.3600287493746"/>
    <line x1="62.420410216783" y1="20.3600287493746" x2="62.2133034355964" y2="20.5189473719725"/>
    <line x1="62.2133034355964" y1="20.5189473719725" x2="61.7309415258015" y2="20.7187482169817"/>
    <line x1="61.7309415258015" y1="20.7187482169817" x2="61.2133034355964" y2="20.7868965644036"/>
    <line x1="61.2133034355964" y1="20.7868965644036" x2="60.6956653453913" y2="20.7187482169817"/>
    <line x1="60.6956653453913" y1="20.7187482169817" x2="60.2133034355964" y2="20.5189473719725"/>
    <line x1="60.2133034355964" y1="20.5189473719725" x2="59.7990898732233" y2="20.2011101267767"/>
    <line x1="59.7990898732233" y1="20.2011101267767" x2="59.4812526280276" y2="19.7868965644036"/>
    <line x1="59.4812526280276" y1="19.7868965644036" x2="59.2814517830183" y2="19.3045346546086"/>
    <line x1="59.2814517830183" y1="19.3045346546086" x2="59.2133034355964" y2="18.7868965644036"/>
    <line x1="59.2133034355964" y1="18.7868965644036" x2="59.2814517830183" y2="18.2692584741986"/>
    <line x1="59.2814517830183" y1="18.2692584741986" x2="59.4812526280275" y2="17.7868965644036"/>
    <line x1="59.4812526280275" y1="17.7868965644036" x2="59.6401712506255" y2="17.5797897832171"/>
    <line x1="59.6401712506255" y1="17.5797897832171" x2="59.7990898732233" y2="17.3726830020305"/>
    <line x1="59.7990898732233" y1="17.3726830020305" x2="60.2133034355964" y2="17.0548457568347"/>
    <line x1="60.2133034355964" y1="17.0548457568347" x2="60.6956653453913" y2="16.8550449118255"/>
    <line x1="60.6956653453913" y1="16.8550449118255" x2="61.2133034355964" y2="16.7868965644036"/>
    <line x1="61.2133034355964" y1="16.7868965644036" x2="61.7309415258015" y2="16.8550449118255"/>
    <line x1="61.7309415258015" y1="16.8550449118255" x2="62.2133034355964" y2="17.0548457568347"/>
    <line x1="62.2133034355964" y1="17.0548457568347" x2="62.6275169979695" y2="17.3726830020305"/>
    <line x1="62.6275169979695" y1="17.3726830020305" x2="62.9453542431653" y2="17.7868965644036"/>
    <line x1="62.9453542431653" y1="17.7868965644036" x2="63.1451550881746" y2="18.2692584741986"/>
    <line x1="63.1451550881746" y1="18.2692584741986" x2="63.2133034355964" y2="18.7868965644036"/>
    <line x1="63.2133034355964" y1="18.7868965644036" x2="63.1451550881746" y2="19.3045346546087"/>
    <line x1="63.1451550881746" y1="19.3045346546087" x2="62.9453542431653" y2="19.7868965644036"/>
    <line x1="62.9453542431653" y1="19.7868965644036" x2="62.6275169979695" y2="20.2011101267767"/>
    <line x1="69.6249224014283" y1="34.6503432126471" x2="69.3013985950502" y2="34.6929359297857"/>
    <line x1="69.3013985950502" y1="34.6929359297857" x2="68.977874788672" y2="34.7355286469244"/>
    <line x1="68.977874788672" y1="34.7355286469244" x2="68.3308271759157" y2="34.650343212647"/>
    <line x1="68.3308271759157" y1="34.650343212647" x2="67.727874788672" y2="34.4005921563855"/>
    <line x1="67.727874788672" y1="34.4005921563855" x2="67.2101078357057" y2="34.0032955998908"/>
    <line x1="67.2101078357057" y1="34.0032955998908" x2="66.8128112792109" y2="33.4855286469244"/>
    <line x1="66.8128112792109" y1="33.4855286469244" x2="66.5630602229494" y2="32.8825762596807"/>
    <line x1="66.5630602229494" y1="32.8825762596807" x2="66.477874788672" y2="32.2355286469244"/>
    <line x1="66.477874788672" y1="32.2355286469244" x2="66.5630602229494" y2="31.5884810341681"/>
    <line x1="66.5630602229494" y1="31.5884810341681" x2="66.8128112792109" y2="30.9855286469244"/>
    <line x1="66.8128112792109" y1="30.9855286469244" x2="67.2101078357057" y2="30.467761693958"/>
    <line x1="67.2101078357057" y1="30.467761693958" x2="67.727874788672" y2="30.0704651374633"/>
    <line x1="67.727874788672" y1="30.0704651374633" x2="68.0293509822939" y2="29.9455896093325"/>
    <line x1="68.0293509822939" y1="29.9455896093325" x2="68.3308271759157" y2="29.8207140812017"/>
    <line x1="68.3308271759157" y1="29.8207140812017" x2="68.977874788672" y2="29.7355286469243"/>
    <line x1="68.977874788672" y1="29.7355286469243" x2="69.6249224014283" y2="29.8207140812017"/>
    <line x1="69.6249224014283" y1="29.8207140812017" x2="70.227874788672" y2="30.0704651374633"/>
    <line x1="70.227874788672" y1="30.0704651374633" x2="70.7456417416384" y2="30.467761693958"/>
    <line x1="70.7456417416384" y1="30.467761693958" x2="71.1429382981331" y2="30.9855286469244"/>
    <line x1="71.1429382981331" y1="30.9855286469244" x2="71.3926893543947" y2="31.5884810341681"/>
    <line x1="71.3926893543947" y1="31.5884810341681" x2="71.477874788672" y2="32.2355286469244"/>
    <line x1="71.477874788672" y1="32.2355286469244" x2="71.3926893543947" y2="32.8825762596807"/>
    <line x1="71.3926893543947" y1="32.8825762596807" x2="71.1429382981331" y2="33.4855286469244"/>
    <line x1="71.1429382981331" y1="33.4855286469244" x2="70.7456417416384" y2="34.0032955998907"/>
    <line x1="70.7456417416384" y1="34.0032955998907" x2="70.227874788672" y2="34.4005921563854"/>
    <line x1="70.227874788672" y1="34.4005921563854" x2="69.6249224014283" y2="34.6503432126471"/>
    <line x1="68.3226019259093" y1="50.6922330476137" x2="67.8386606281522" y2="50.5149776298502"/>
    <line x1="67.8386606281522" y1="50.5149776298502" x2="67.587221085004" y2="50.4228817052627"/>
    <line x1="67.587221085004" y1="50.4228817052627" x2="66.9466109958399" y2="49.9723777203104"/>
    <line x1="66.9466109958399" y1="49.9723777203104" x2="66.4444281773351" y2="49.3714221948384"/>
    <line x1="66.4444281773351" y1="49.3714221948384" x2="66.1148955586745" y2="48.6609692547815"/>
    <line x1="66.1148955586745" y1="48.6609692547815" x2="65.9804702432413" y2="47.8894350939258"/>
    <line x1="65.9804702432413" y1="47.8894350939258" x2="66.050313094134" y2="47.1093984903128"/>
    <line x1="66.050313094134" y1="47.1093984903128" x2="66.0933947660954" y2="46.9917772604425"/>
    <line x1="66.0933947660954" y1="46.9917772604425" x2="66.319664436485" y2="46.3740176494076"/>
    <line x1="66.319664436485" y1="46.3740176494076" x2="66.7701684214373" y2="45.7334075602435"/>
    <line x1="66.7701684214373" y1="45.7334075602435" x2="67.3711239469093" y2="45.2312247417387"/>
    <line x1="67.3711239469093" y1="45.2312247417387" x2="68.0815768869661" y2="44.901692123078"/>
    <line x1="68.0815768869661" y1="44.901692123078" x2="68.853111047822" y2="44.7672668076449"/>
    <line x1="68.853111047822" y1="44.7672668076449" x2="69.3664395236981" y2="44.8132291689411"/>
    <line x1="69.3664395236981" y1="44.8132291689411" x2="69.6331476514348" y2="44.8371096585376"/>
    <line x1="69.6331476514348" y1="44.8371096585376" x2="70.3685284923401" y2="45.1064610008886"/>
    <line x1="70.3685284923401" y1="45.1064610008886" x2="71.0091385815042" y2="45.5569649858409"/>
    <line x1="71.0091385815042" y1="45.5569649858409" x2="71.511321400009" y2="46.1579205113129"/>
    <line x1="71.511321400009" y1="46.1579205113129" x2="71.8408540186696" y2="46.8683734513698"/>
    <line x1="71.8408540186696" y1="46.8683734513698" x2="71.9752793341029" y2="47.6399076122255"/>
    <line x1="71.9752793341029" y1="47.6399076122255" x2="71.9054364832101" y2="48.4199442158385"/>
    <line x1="71.9054364832101" y1="48.4199442158385" x2="71.6360851408591" y2="49.1553250567436"/>
    <line x1="71.6360851408591" y1="49.1553250567436" x2="71.1855811559069" y2="49.7959351459078"/>
    <line x1="71.1855811559069" y1="49.7959351459078" x2="70.5846256304348" y2="50.2981179644126"/>
    <line x1="70.5846256304348" y1="50.2981179644126" x2="69.8741726903779" y2="50.6276505830732"/>
    <line x1="69.8741726903779" y1="50.6276505830732" x2="69.1026385295221" y2="50.7620758985064"/>
    <line x1="69.1026385295221" y1="50.7620758985064" x2="68.3226019259093" y2="50.6922330476137"/>
    <line x1="58.3848763108502" y1="64.0417305603426" x2="58.0670390656545" y2="63.6275169979695"/>
    <line x1="58.0670390656545" y1="63.6275169979695" x2="57.7492018204586" y2="63.2133034355965"/>
    <line x1="57.7492018204586" y1="63.2133034355965" x2="57.3496001304402" y2="62.2485796160065"/>
    <line x1="57.3496001304402" y1="62.2485796160065" x2="57.2133034355964" y2="61.2133034355964"/>
    <line x1="57.2133034355964" y1="61.2133034355964" x2="57.3496001304402" y2="60.1780272551863"/>
    <line x1="57.3496001304402" y1="60.1780272551863" x2="57.7492018204587" y2="59.2133034355964"/>
    <line x1="57.7492018204587" y1="59.2133034355964" x2="58.3848763108502" y2="58.3848763108502"/>
    <line x1="58.3848763108502" y1="58.3848763108502" x2="59.2133034355964" y2="57.7492018204587"/>
    <line x1="59.2133034355964" y1="57.7492018204587" x2="60.1780272551863" y2="57.3496001304402"/>
    <line x1="60.1780272551863" y1="57.3496001304402" x2="61.2133034355964" y2="57.2133034355964"/>
    <line x1="61.2133034355964" y1="57.2133034355964" x2="62.2485796160065" y2="57.3496001304402"/>
    <line x1="62.2485796160065" y1="57.3496001304402" x2="63.2133034355964" y2="57.7492018204587"/>
    <line x1="63.2133034355964" y1="57.7492018204587" x2="63.6275169979695" y2="58.0670390656545"/>
    <line x1="63.6275169979695" y1="58.0670390656545" x2="64.0417305603426" y2="58.3848763108502"/>
    <line x1="64.0417305603426" y1="58.3848763108502" x2="64.6774050507342" y2="59.2133034355965"/>
    <line x1="64.6774050507342" y1="59.2133034355965" x2="65.0770067407528" y2="60.1780272551863"/>
    <line x1="65.0770067407528" y1="60.1780272551863" x2="65.2133034355964" y2="61.2133034355964"/>
    <line x1="65.2133034355964" y1="61.2133034355964" x2="65.0770067407527" y2="62.2485796160065"/>
    <line x1="65.0770067407527" y1="62.2485796160065" x2="64.6774050507342" y2="63.2133034355965"/>
    <line x1="64.6774050507342" y1="63.2133034355965" x2="64.0417305603426" y2="64.0417305603426"/>
    <line x1="64.0417305603426" y1="64.0417305603426" x2="63.2133034355964" y2="64.6774050507342"/>
    <line x1="63.2133034355964" y1="64.6774050507342" x2="62.2485796160065" y2="65.0770067407527"/>
    <line x1="62.2485796160065" y1="65.0770067407527" x2="61.2133034355964" y2="65.2133034355964"/>
    <line x1="61.2133034355964" y1="65.2133034355964" x2="60.1780272551863" y2="65.0770067407527"/>
    <line x1="60.1780272551863" y1="65.0770067407527" x2="59.2133034355964" y2="64.6774050507342"/>
    <line x1="59.2133034355964" y1="64.6774050507342" x2="58.3848763108502" y2="64.0417305603426"/>
    <line x1="41.9691163953412" y1="70.5307890592872" x2="41.8668938742084" y2="69.7543319239796"/>
    <line x1="41.8668938742084" y1="69.7543319239796" x2="41.7646713530756" y2="68.977874788672"/>
    <line x1="41.7646713530756" y1="68.977874788672" x2="41.9691163953412" y2="67.4249605180569"/>
    <line x1="41.9691163953412" y1="67.4249605180569" x2="42.568518930369" y2="65.977874788672"/>
    <line x1="42.568518930369" y1="65.977874788672" x2="43.5220306659564" y2="64.7352341015528"/>
    <line x1="43.5220306659564" y1="64.7352341015528" x2="44.7646713530756" y2="63.7817223659654"/>
    <line x1="44.7646713530756" y1="63.7817223659654" x2="46.2117570824605" y2="63.1823198309376"/>
    <line x1="46.2117570824605" y1="63.1823198309376" x2="47.7646713530756" y2="62.977874788672"/>
    <line x1="47.7646713530756" y1="62.977874788672" x2="49.3175856236907" y2="63.1823198309376"/>
    <line x1="49.3175856236907" y1="63.1823198309376" x2="50.7646713530757" y2="63.7817223659654"/>
    <line x1="50.7646713530757" y1="63.7817223659654" x2="52.0073120401949" y2="64.7352341015528"/>
    <line x1="52.0073120401949" y1="64.7352341015528" x2="52.9608237757822" y2="65.977874788672"/>
    <line x1="52.9608237757822" y1="65.977874788672" x2="53.2605250432962" y2="66.7014176533645"/>
    <line x1="53.2605250432962" y1="66.7014176533645" x2="53.56022631081" y2="67.4249605180569"/>
    <line x1="53.56022631081" y1="67.4249605180569" x2="53.7646713530756" y2="68.977874788672"/>
    <line x1="53.7646713530756" y1="68.977874788672" x2="53.56022631081" y2="70.5307890592872"/>
    <line x1="53.56022631081" y1="70.5307890592872" x2="52.9608237757822" y2="71.977874788672"/>
    <line x1="52.9608237757822" y1="71.977874788672" x2="52.0073120401949" y2="73.2205154757914"/>
    <line x1="52.0073120401949" y1="73.2205154757914" x2="50.7646713530757" y2="74.1740272113784"/>
    <line x1="50.7646713530757" y1="74.1740272113784" x2="49.3175856236907" y2="74.7734297464058"/>
    <line x1="49.3175856236907" y1="74.7734297464058" x2="47.7646713530756" y2="74.9778747886722"/>
    <line x1="47.7646713530756" y1="74.9778747886722" x2="46.2117570824605" y2="74.7734297464067"/>
    <line x1="46.2117570824605" y1="74.7734297464067" x2="44.7646713530756" y2="74.1740272113787"/>
    <line x1="44.7646713530756" y1="74.1740272113787" x2="43.5220306659564" y2="73.2205154757913"/>
    <line x1="43.5220306659564" y1="73.2205154757913" x2="42.568518930369" y2="71.9778747886721"/>
    <line x1="42.568518930369" y1="71.9778747886721" x2="41.9691163953412" y2="70.5307890592872"/>
    <line x1="32.7312510776113" y1="68.912611692562" x2="32.7312510776113" y2="69.0431378847821"/>
    <line x1="32.7312510776113" y1="69.0431378847821" x2="32.69746841318" y2="69.1692165048546"/>
    <line x1="32.69746841318" y1="69.1692165048546" x2="32.63220531707" y2="69.2822555031765"/>
    <line x1="32.63220531707" y1="69.2822555031765" x2="32.5399093614287" y2="69.3745514588176"/>
    <line x1="32.5399093614287" y1="69.3745514588176" x2="32.4268703631069" y2="69.4398145549277"/>
    <line x1="32.4268703631069" y1="69.4398145549277" x2="32.3007917430344" y2="69.4735972193589"/>
    <line x1="32.3007917430344" y1="69.4735972193589" x2="32.1702655508143" y2="69.4735972193589"/>
    <line x1="32.1702655508143" y1="69.4735972193589" x2="32.1072262407781" y2="69.4567058871433"/>
    <line x1="32.1072262407781" y1="69.4567058871433" x2="32.0441869307419" y2="69.4398145549277"/>
    <line x1="32.0441869307419" y1="69.4398145549277" x2="31.93114793242" y2="69.3745514588176"/>
    <line x1="31.93114793242" y1="69.3745514588176" x2="31.8388519767788" y2="69.2822555031765"/>
    <line x1="31.8388519767788" y1="69.2822555031765" x2="31.7735888806688" y2="69.1692165048546"/>
    <line x1="31.7735888806688" y1="69.1692165048546" x2="31.7398062162375" y2="69.0431378847821"/>
    <line x1="31.7398062162375" y1="69.0431378847821" x2="31.7398062162375" y2="68.912611692562"/>
    <line x1="31.7398062162375" y1="68.912611692562" x2="31.7735888806688" y2="68.7865330724895"/>
    <line x1="31.7735888806688" y1="68.7865330724895" x2="31.8388519767788" y2="68.6734940741676"/>
    <line x1="31.8388519767788" y1="68.6734940741676" x2="31.93114793242" y2="68.5811981185264"/>
    <line x1="31.93114793242" y1="68.5811981185264" x2="32.0441869307419" y2="68.5159350224164"/>
    <line x1="32.0441869307419" y1="68.5159350224164" x2="32.1702655508144" y2="68.4821523579851"/>
    <line x1="32.1702655508144" y1="68.4821523579851" x2="32.3007917430344" y2="68.4821523579851"/>
    <line x1="32.3007917430344" y1="68.4821523579851" x2="32.3638310530706" y2="68.4990436902008"/>
    <line x1="32.3638310530706" y1="68.4990436902008" x2="32.4268703631069" y2="68.5159350224164"/>
    <line x1="32.4268703631069" y1="68.5159350224164" x2="32.5399093614288" y2="68.5811981185264"/>
    <line x1="32.5399093614288" y1="68.5811981185264" x2="32.63220531707" y2="68.6734940741677"/>
    <line x1="32.63220531707" y1="68.6734940741677" x2="32.69746841318" y2="68.7865330724895"/>
    <line x1="32.69746841318" y1="68.7865330724895" x2="32.7312510776113" y2="68.912611692562"/>
  </g>
</svg>
