<?xml version="1.0" standalone="no"?>
<!DOCTYPE svg PUBLIC "-//W3C//DTD SVG 1.1//EN" "http://www.w3.org/Graphics/SVG/1.1/DTD/svg11.dtd">
<svg width="10.0002mm" height="90.0002mm"
 viewBox="0 0 10.0002 90.0002"
 xmlns="http://www.w3.org/2000/svg" version="1.1"
 xmlns:xlink="http://www.w3.org/1999/xlink">
<desc>Output from Flights of Ideas SVG Sketchup Plugin</desc>

  <g id="face0" fill="none" stroke="rgb(0,0,255)" stroke-width="1" stroke-miterlimit="4" stroke-dasharray="none" stroke-linejoin="round" stroke-linecap="round">
    <line x1="0.0001" y1="90.0001" x2="3.50010000000003" y2="90.0001"/>
    <line x1="3.50010000000003" y1="90.0001" x2="3.50010000000003" y2="88.0001"/>
    <line x1="3.50010000000003" y1="88.0001" x2="2.20010000000002" y2="88.0001"/>
    <line x1="2.20010000000002" y1="88.0001" x2="2.20010000000002" y2="85.8001"/>
    <line x1="2.20010000000002" y1="85.8001" x2="3.50010000000003" y2="85.8001"/>
    <line x1="3.50010000000003" y1="85.8001" x2="3.50010000000003" y2="77.8001"/>
    <line x1="3.50010000000003" y1="77.8001" x2="6.50009999999997" y2="77.8001"/>
    <line x1="6.50009999999997" y1="77.8001" x2="6.50009999999997" y2="85.8001"/>
    <line x1="6.50009999999997" y1="85.8001" x2="7.80009999999998" y2="85.8001"/>
    <line x1="7.80009999999998" y1="85.8001" x2="7.80009999999998" y2="88.0001"/>
    <line x1="7.80009999999998" y1="88.0001" x2="6.50009999999997" y2="88.0001"/>
    <line x1="6.50009999999997" y1="88.0001" x2="6.50009999999997" y2="90.0001"/>
    <line x1="6.50009999999997" y1="90.0001" x2="10.0001" y2="90.0001"/>
    <line x1="10.0001" y1="90.0001" x2="10.0001" y2="0.0001"/>
    <line x1="10.0001" y1="0.0001" x2="0.0001" y2="0.0001"/>
    <line x1="0.0001" y1="0.0001" x2="0.0001" y2="90.0001"/>
    <line x1="5.7501" y1="23.7010618943233" x2="6.06076017177986" y2="23.9394398282202"/>
    <line x1="6.06076017177986" y1="23.9394398282202" x2="6.29913810567669" y2="24.2501"/>
    <line x1="6.29913810567669" y1="24.2501" x2="6.44898873943364" y2="24.6118714323462"/>
    <line x1="6.44898873943364" y1="24.6118714323462" x2="6.50010000000003" y2="25.0001"/>
    <line x1="6.50010000000003" y1="25.0001" x2="6.44898873943364" y2="25.3883285676538"/>
    <line x1="6.44898873943364" y1="25.3883285676538" x2="6.29913810567669" y2="25.7501"/>
    <line x1="6.29913810567669" y1="25.7501" x2="6.06076017177986" y2="26.0607601717799"/>
    <line x1="6.06076017177986" y1="26.0607601717799" x2="5.7501" y2="26.2991381056767"/>
    <line x1="5.7501" y1="26.2991381056767" x2="5.38832856765381" y2="26.4489887394336"/>
    <line x1="5.38832856765381" y1="26.4489887394336" x2="5.00010000000006" y2="26.5001"/>
    <line x1="5.00010000000006" y1="26.5001" x2="4.61187143234624" y2="26.4489887394336"/>
    <line x1="4.61187143234624" y1="26.4489887394336" x2="4.25010000000003" y2="26.2991381056767"/>
    <line x1="4.25010000000003" y1="26.2991381056767" x2="3.9394398282202" y2="26.0607601717798"/>
    <line x1="3.9394398282202" y1="26.0607601717798" x2="3.70106189432337" y2="25.7501"/>
    <line x1="3.70106189432337" y1="25.7501" x2="3.55121126056639" y2="25.3883285676538"/>
    <line x1="3.55121126056639" y1="25.3883285676538" x2="3.50010000000003" y2="25.0001"/>
    <line x1="3.50010000000003" y1="25.0001" x2="3.55121126056644" y2="24.6118714323462"/>
    <line x1="3.55121126056644" y1="24.6118714323462" x2="3.70106189432337" y2="24.2501"/>
    <line x1="3.70106189432337" y1="24.2501" x2="3.9394398282202" y2="23.9394398282202"/>
    <line x1="3.9394398282202" y1="23.9394398282202" x2="4.25010000000003" y2="23.7010618943233"/>
    <line x1="4.25010000000003" y1="23.7010618943233" x2="4.61187143234624" y2="23.5512112605664"/>
    <line x1="4.61187143234624" y1="23.5512112605664" x2="5.0001" y2="23.5001"/>
    <line x1="5.0001" y1="23.5001" x2="5.38832856765381" y2="23.5512112605664"/>
    <line x1="5.38832856765381" y1="23.5512112605664" x2="5.7501" y2="23.7010618943233"/>
    <line x1="5.00010000000006" y1="7.0001" x2="5.38832856765381" y2="7.05121126056644"/>
    <line x1="5.38832856765381" y1="7.05121126056644" x2="5.75010000000006" y2="7.20106189432337"/>
    <line x1="5.75010000000006" y1="7.20106189432337" x2="6.06076017177986" y2="7.4394398282202"/>
    <line x1="6.06076017177986" y1="7.4394398282202" x2="6.29913810567669" y2="7.75010000000003"/>
    <line x1="6.29913810567669" y1="7.75010000000003" x2="6.44898873943364" y2="8.11187143234622"/>
    <line x1="6.44898873943364" y1="8.11187143234622" x2="6.50010000000003" y2="8.5001"/>
    <line x1="6.50010000000003" y1="8.5001" x2="6.44898873943361" y2="8.88832856765381"/>
    <line x1="6.44898873943361" y1="8.88832856765381" x2="6.29913810567669" y2="9.25010000000006"/>
    <line x1="6.29913810567669" y1="9.25010000000006" x2="6.06076017177986" y2="9.56076017177986"/>
    <line x1="6.06076017177986" y1="9.56076017177986" x2="5.7501" y2="9.79913810567666"/>
    <line x1="5.7501" y1="9.79913810567666" x2="5.38832856765381" y2="9.94898873943364"/>
    <line x1="5.38832856765381" y1="9.94898873943364" x2="5.00010000000006" y2="10.0001"/>
    <line x1="5.00010000000006" y1="10.0001" x2="4.61187143234624" y2="9.94898873943361"/>
    <line x1="4.61187143234624" y1="9.94898873943361" x2="4.2501" y2="9.79913810567669"/>
    <line x1="4.2501" y1="9.79913810567669" x2="3.9394398282202" y2="9.56076017177986"/>
    <line x1="3.9394398282202" y1="9.56076017177986" x2="3.70106189432337" y2="9.25010000000006"/>
    <line x1="3.70106189432337" y1="9.25010000000006" x2="3.55121126056644" y2="8.88832856765378"/>
    <line x1="3.55121126056644" y1="8.88832856765378" x2="3.50010000000003" y2="8.50010000000003"/>
    <line x1="3.50010000000003" y1="8.50010000000003" x2="3.55121126056644" y2="8.11187143234624"/>
    <line x1="3.55121126056644" y1="8.11187143234624" x2="3.70106189432337" y2="7.75010000000003"/>
    <line x1="3.70106189432337" y1="7.75010000000003" x2="3.9394398282202" y2="7.4394398282202"/>
    <line x1="3.9394398282202" y1="7.4394398282202" x2="4.25010000000003" y2="7.20106189432337"/>
    <line x1="4.25010000000003" y1="7.20106189432337" x2="4.61187143234624" y2="7.05121126056644"/>
    <line x1="4.61187143234624" y1="7.05121126056644" x2="5.00010000000006" y2="7.0001"/>
    <line x1="6.50009999999997" y1="75.8001" x2="6.44898873943361" y2="76.1883285676538"/>
    <line x1="6.44898873943361" y1="76.1883285676538" x2="6.29913810567669" y2="76.5501"/>
    <line x1="6.29913810567669" y1="76.5501" x2="6.06076017177986" y2="76.8607601717798"/>
    <line x1="6.06076017177986" y1="76.8607601717798" x2="5.7501" y2="77.0991381056766"/>
    <line x1="5.7501" y1="77.0991381056766" x2="5.38832856765375" y2="77.2489887394336"/>
    <line x1="5.38832856765375" y1="77.2489887394336" x2="5.0001" y2="77.3001"/>
    <line x1="5.0001" y1="77.3001" x2="4.61187143234624" y2="77.2489887394336"/>
    <line x1="4.61187143234624" y1="77.2489887394336" x2="4.2501" y2="77.0991381056766"/>
    <line x1="4.2501" y1="77.0991381056766" x2="3.9394398282202" y2="76.8607601717798"/>
    <line x1="3.9394398282202" y1="76.8607601717798" x2="3.70106189432337" y2="76.5501"/>
    <line x1="3.70106189432337" y1="76.5501" x2="3.55121126056639" y2="76.1883285676538"/>
    <line x1="3.55121126056639" y1="76.1883285676538" x2="3.50010000000003" y2="75.8001"/>
    <line x1="3.50010000000003" y1="75.8001" x2="3.55121126056639" y2="75.4118714323462"/>
    <line x1="3.55121126056639" y1="75.4118714323462" x2="3.70106189432334" y2="75.0501"/>
    <line x1="3.70106189432334" y1="75.0501" x2="3.9394398282202" y2="74.7394398282202"/>
    <line x1="3.9394398282202" y1="74.7394398282202" x2="4.25010000000003" y2="74.5010618943234"/>
    <line x1="4.25010000000003" y1="74.5010618943234" x2="4.61187143234624" y2="74.3512112605664"/>
    <line x1="4.61187143234624" y1="74.3512112605664" x2="5.0001" y2="74.3001"/>
    <line x1="5.0001" y1="74.3001" x2="5.38832856765375" y2="74.3512112605664"/>
    <line x1="5.38832856765375" y1="74.3512112605664" x2="5.7501" y2="74.5010618943234"/>
    <line x1="5.7501" y1="74.5010618943234" x2="6.06076017177986" y2="74.7394398282202"/>
    <line x1="6.06076017177986" y1="74.7394398282202" x2="6.29913810567669" y2="75.0501"/>
    <line x1="6.29913810567669" y1="75.0501" x2="6.44898873943361" y2="75.4118714323462"/>
    <line x1="6.44898873943361" y1="75.4118714323462" x2="6.50009999999997" y2="75.8001"/>
  </g>
</svg>
