<?xml version="1.0" standalone="no"?>
<!DOCTYPE svg PUBLIC "-//W3C//DTD SVG 1.1//EN" "http://www.w3.org/Graphics/SVG/1.1/DTD/svg11.dtd">
<svg width="21.0002mm" height="40.0002mm"
 viewBox="0 0 21.0002 40.0002"
 xmlns="http://www.w3.org/2000/svg" version="1.1"
 xmlns:xlink="http://www.w3.org/1999/xlink">
<desc>Output from Flights of Ideas SVG Sketchup Plugin</desc>

  <g id="face0" fill="none" stroke="rgb(0,0,255)" stroke-width="1" stroke-miterlimit="4" stroke-dasharray="none" stroke-linejoin="round" stroke-linecap="round">
    <line x1="3.00009999999994" y1="10.0001" x2="3.00009999999994" y2="18.5001"/>
    <line x1="3.00009999999994" y1="18.5001" x2="5.00009999999994" y2="18.5001"/>
    <line x1="5.00009999999994" y1="18.5001" x2="5.00009999999994" y2="17.2001"/>
    <line x1="5.00009999999994" y1="17.2001" x2="7.20009999999999" y2="17.2001"/>
    <line x1="7.20009999999999" y1="17.2001" x2="7.20009999999999" y2="18.5001"/>
    <line x1="7.20009999999999" y1="18.5001" x2="10.2000999999999" y2="18.5001"/>
    <line x1="10.2000999999999" y1="18.5001" x2="10.2000999999999" y2="21.5001"/>
    <line x1="10.2000999999999" y1="21.5001" x2="7.20009999999999" y2="21.5001"/>
    <line x1="7.20009999999999" y1="21.5001" x2="7.20009999999999" y2="22.8001"/>
    <line x1="7.20009999999999" y1="22.8001" x2="5.00009999999994" y2="22.8001"/>
    <line x1="5.00009999999994" y1="22.8001" x2="5.00009999999994" y2="21.5001"/>
    <line x1="5.00009999999994" y1="21.5001" x2="3.00009999999994" y2="21.5001"/>
    <line x1="3.00009999999994" y1="21.5001" x2="3.00009999999994" y2="30.0001"/>
    <line x1="3.00009999999994" y1="30.0001" x2="0.0001" y2="30.0001"/>
    <line x1="0.0001" y1="30.0001" x2="0.0001" y2="35.0001"/>
    <line x1="0.0001" y1="35.0001" x2="3.00009999999994" y2="35.0001"/>
    <line x1="3.00009999999994" y1="35.0001" x2="3.00009999999994" y2="40.0001"/>
    <line x1="3.00009999999994" y1="40.0001" x2="18.0001" y2="40.0001"/>
    <line x1="18.0001" y1="40.0001" x2="18.0001" y2="35.0001"/>
    <line x1="18.0001" y1="35.0001" x2="16.0001" y2="35.0001"/>
    <line x1="16.0001" y1="35.0001" x2="16.0001" y2="36.3001"/>
    <line x1="16.0001" y1="36.3001" x2="13.8001" y2="36.3001"/>
    <line x1="13.8001" y1="36.3001" x2="13.8001" y2="35.0001"/>
    <line x1="13.8001" y1="35.0001" x2="10.8001" y2="35.0001"/>
    <line x1="10.8001" y1="35.0001" x2="10.8001" y2="32.0001"/>
    <line x1="10.8001" y1="32.0001" x2="13.8001" y2="32.0001"/>
    <line x1="13.8001" y1="32.0001" x2="13.8001" y2="30.7001"/>
    <line x1="13.8001" y1="30.7001" x2="16.0001" y2="30.7001"/>
    <line x1="16.0001" y1="30.7001" x2="16.0001" y2="32.0001"/>
    <line x1="16.0001" y1="32.0001" x2="18.0001" y2="32.0001"/>
    <line x1="18.0001" y1="32.0001" x2="18.0001" y2="15.0001"/>
    <line x1="18.0001" y1="15.0001" x2="21.0001" y2="15.0001"/>
    <line x1="21.0001" y1="15.0001" x2="21.0001" y2="5.00009999999999"/>
    <line x1="21.0001" y1="5.00009999999999" x2="18.0001" y2="5.00009999999999"/>
    <line x1="18.0001" y1="5.00009999999999" x2="18.0001" y2="0.0001"/>
    <line x1="18.0001" y1="0.0001" x2="3.00009999999994" y2="0.0001"/>
    <line x1="3.00009999999994" y1="0.0001" x2="3.00009999999994" y2="5.00009999999999"/>
    <line x1="3.00009999999994" y1="5.00009999999999" x2="0.0001" y2="5.00009999999999"/>
    <line x1="0.0001" y1="5.00009999999999" x2="0.0001" y2="10.0001"/>
    <line x1="0.0001" y1="10.0001" x2="3.00009999999994" y2="10.0001"/>
  </g>
</svg>
