<?xml version="1.0" standalone="no"?>
<!DOCTYPE svg PUBLIC "-//W3C//DTD SVG 1.1//EN" "http://www.w3.org/Graphics/SVG/1.1/DTD/svg11.dtd">
<svg width="46.0002mm" height="40.0002mm"
 viewBox="0 0 46.0002 40.0002"
 xmlns="http://www.w3.org/2000/svg" version="1.1"
 xmlns:xlink="http://www.w3.org/1999/xlink">
<desc>Output from Flights of Ideas SVG Sketchup Plugin</desc>

  <g id="face0" fill="none" stroke="rgb(0,0,255)" stroke-width="1" stroke-miterlimit="4" stroke-dasharray="none" stroke-linejoin="round" stroke-linecap="round">
    <line x1="46.0001" y1="40.0001" x2="46.0001" y2="0.0001"/>
    <line x1="46.0001" y1="0.0001" x2="0.0001" y2="0.0001"/>
    <line x1="0.0001" y1="0.0001" x2="0.0001" y2="40.0001"/>
    <line x1="0.0001" y1="40.0001" x2="46.0001" y2="40.0001"/>
    <line x1="22.3530523872438" y1="17.5852854342773" x2="23.0001" y2="17.5001"/>
    <line x1="23.0001" y1="17.5001" x2="23.6471476127564" y2="17.5852854342773"/>
    <line x1="23.6471476127564" y1="17.5852854342773" x2="24.2501000000001" y2="17.8350364905389"/>
    <line x1="24.2501000000001" y1="17.8350364905389" x2="24.7678669529664" y2="18.2323330470337"/>
    <line x1="24.7678669529664" y1="18.2323330470337" x2="25.1651635094611" y2="18.7501"/>
    <line x1="25.1651635094611" y1="18.7501" x2="25.4149145657227" y2="19.3530523872437"/>
    <line x1="25.4149145657227" y1="19.3530523872437" x2="25.5001" y2="20.0001"/>
    <line x1="25.5001" y1="20.0001" x2="25.4149145657227" y2="20.6471476127563"/>
    <line x1="25.4149145657227" y1="20.6471476127563" x2="25.1651635094611" y2="21.2501"/>
    <line x1="25.1651635094611" y1="21.2501" x2="24.7678669529664" y2="21.7678669529664"/>
    <line x1="24.7678669529664" y1="21.7678669529664" x2="24.2501000000001" y2="22.1651635094611"/>
    <line x1="24.2501000000001" y1="22.1651635094611" x2="23.6471476127564" y2="22.4149145657227"/>
    <line x1="23.6471476127564" y1="22.4149145657227" x2="23.0001000000001" y2="22.5001"/>
    <line x1="23.0001000000001" y1="22.5001" x2="22.3530523872438" y2="22.4149145657227"/>
    <line x1="22.3530523872438" y1="22.4149145657227" x2="21.7501000000001" y2="22.1651635094611"/>
    <line x1="21.7501000000001" y1="22.1651635094611" x2="21.2323330470337" y2="21.7678669529664"/>
    <line x1="21.2323330470337" y1="21.7678669529664" x2="20.835036490539" y2="21.2501"/>
    <line x1="20.835036490539" y1="21.2501" x2="20.5852854342774" y2="20.6471476127563"/>
    <line x1="20.5852854342774" y1="20.6471476127563" x2="20.5001000000001" y2="20.0001"/>
    <line x1="20.5001000000001" y1="20.0001" x2="20.5852854342774" y2="19.3530523872437"/>
    <line x1="20.5852854342774" y1="19.3530523872437" x2="20.835036490539" y2="18.7501"/>
    <line x1="20.835036490539" y1="18.7501" x2="21.2323330470337" y2="18.2323330470337"/>
    <line x1="21.2323330470337" y1="18.2323330470337" x2="21.7501000000001" y2="17.8350364905389"/>
    <line x1="21.7501000000001" y1="17.8350364905389" x2="22.3530523872438" y2="17.5852854342773"/>
    <line x1="3.00010000000006" y1="15.0001" x2="3.00010000000006" y2="5.0001"/>
    <line x1="3.00010000000006" y1="5.0001" x2="6.0001" y2="5.0001"/>
    <line x1="6.0001" y1="5.0001" x2="6.0001" y2="15.0001"/>
    <line x1="6.0001" y1="15.0001" x2="3.00010000000006" y2="15.0001"/>
    <line x1="4.1118714323463" y1="32.0512112605663" x2="4.50010000000006" y2="32.0001"/>
    <line x1="4.50010000000006" y1="32.0001" x2="4.88832856765381" y2="32.0512112605664"/>
    <line x1="4.88832856765381" y1="32.0512112605664" x2="5.25010000000006" y2="32.2010618943233"/>
    <line x1="5.25010000000006" y1="32.2010618943233" x2="5.56076017177989" y2="32.4394398282202"/>
    <line x1="5.56076017177989" y1="32.4394398282202" x2="5.79913810567669" y2="32.7501"/>
    <line x1="5.79913810567669" y1="32.7501" x2="5.94898873943364" y2="33.1118714323462"/>
    <line x1="5.94898873943364" y1="33.1118714323462" x2="6.0001" y2="33.5000999999999"/>
    <line x1="6.0001" y1="33.5000999999999" x2="5.94898873943364" y2="33.8883285676538"/>
    <line x1="5.94898873943364" y1="33.8883285676538" x2="5.79913810567669" y2="34.2501"/>
    <line x1="5.79913810567669" y1="34.2501" x2="5.56076017177989" y2="34.5607601717798"/>
    <line x1="5.56076017177989" y1="34.5607601717798" x2="5.25010000000006" y2="34.7991381056766"/>
    <line x1="5.25010000000006" y1="34.7991381056766" x2="4.88832856765381" y2="34.9489887394336"/>
    <line x1="4.88832856765381" y1="34.9489887394336" x2="4.50010000000006" y2="35.0001"/>
    <line x1="4.50010000000006" y1="35.0001" x2="4.1118714323463" y2="34.9489887394336"/>
    <line x1="4.1118714323463" y1="34.9489887394336" x2="3.75010000000006" y2="34.7991381056767"/>
    <line x1="3.75010000000006" y1="34.7991381056767" x2="3.43943982822017" y2="34.5607601717798"/>
    <line x1="3.43943982822017" y1="34.5607601717798" x2="3.20106189432343" y2="34.2500999999999"/>
    <line x1="3.20106189432343" y1="34.2500999999999" x2="3.05121126056642" y2="33.8883285676538"/>
    <line x1="3.05121126056642" y1="33.8883285676538" x2="3.00010000000006" y2="33.5000999999999"/>
    <line x1="3.00010000000006" y1="33.5000999999999" x2="3.05121126056642" y2="33.1118714323462"/>
    <line x1="3.05121126056642" y1="33.1118714323462" x2="3.20106189432343" y2="32.7501"/>
    <line x1="3.20106189432343" y1="32.7501" x2="3.43943982822023" y2="32.4394398282202"/>
    <line x1="3.43943982822023" y1="32.4394398282202" x2="3.75010000000006" y2="32.2010618943233"/>
    <line x1="3.75010000000006" y1="32.2010618943233" x2="4.1118714323463" y2="32.0512112605663"/>
    <line x1="43.000099999999" y1="25.0001000000004" x2="43.000099999999" y2="35.0000999999997"/>
    <line x1="43.000099999999" y1="35.0000999999997" x2="40.0000999999968" y2="35.0000999999997"/>
    <line x1="40.0000999999968" y1="35.0000999999997" x2="40.0000999999968" y2="25.0001000000004"/>
    <line x1="40.0000999999968" y1="25.0001000000004" x2="43.000099999999" y2="25.0001000000004"/>
    <line x1="41.1118714323497" y1="5.05121126056642" x2="41.5001000000035" y2="5.00010000000004"/>
    <line x1="41.5001000000035" y1="5.00010000000004" x2="41.8883285676572" y2="5.05121126056642"/>
    <line x1="41.8883285676572" y1="5.05121126056642" x2="42.2501000000035" y2="5.20106189432338"/>
    <line x1="42.2501000000035" y1="5.20106189432338" x2="42.5607601717832" y2="5.43943982822021"/>
    <line x1="42.5607601717832" y1="5.43943982822021" x2="42.7991381056801" y2="5.75010000000006"/>
    <line x1="42.7991381056801" y1="5.75010000000006" x2="42.948988739437" y2="6.11187143234626"/>
    <line x1="42.948988739437" y1="6.11187143234626" x2="43.0001000000034" y2="6.50010000000001"/>
    <line x1="43.0001000000034" y1="6.50010000000001" x2="42.9489887394371" y2="6.88832856765381"/>
    <line x1="42.9489887394371" y1="6.88832856765381" x2="42.7991381056801" y2="7.25010000000003"/>
    <line x1="42.7991381056801" y1="7.25010000000003" x2="42.5607601717832" y2="7.56076017177986"/>
    <line x1="42.5607601717832" y1="7.56076017177986" x2="42.2501000000035" y2="7.79913810567669"/>
    <line x1="42.2501000000035" y1="7.79913810567669" x2="41.8883285676572" y2="7.94898873943361"/>
    <line x1="41.8883285676572" y1="7.94898873943361" x2="41.5001000000035" y2="8.00010000000004"/>
    <line x1="41.5001000000035" y1="8.00010000000004" x2="41.1118714323497" y2="7.94898873943361"/>
    <line x1="41.1118714323497" y1="7.94898873943361" x2="40.7501000000034" y2="7.79913810567669"/>
    <line x1="40.7501000000034" y1="7.79913810567669" x2="40.4394398282236" y2="7.56076017177986"/>
    <line x1="40.4394398282236" y1="7.56076017177986" x2="40.2010618943268" y2="7.25010000000003"/>
    <line x1="40.2010618943268" y1="7.25010000000003" x2="40.0512112605698" y2="6.88832856765381"/>
    <line x1="40.0512112605698" y1="6.88832856765381" x2="40.0001000000035" y2="6.50010000000001"/>
    <line x1="40.0001000000035" y1="6.50010000000001" x2="40.0512112605698" y2="6.11187143234626"/>
    <line x1="40.0512112605698" y1="6.11187143234626" x2="40.2010618943268" y2="5.75010000000006"/>
    <line x1="40.2010618943268" y1="5.75010000000006" x2="40.4394398282236" y2="5.43943982822021"/>
    <line x1="40.4394398282236" y1="5.43943982822021" x2="40.7501000000034" y2="5.20106189432338"/>
    <line x1="40.7501000000034" y1="5.20106189432338" x2="41.1118714323497" y2="5.05121126056642"/>
  </g>
</svg>
