<?xml version="1.0" standalone="no"?>
<!DOCTYPE svg PUBLIC "-//W3C//DTD SVG 1.1//EN" "http://www.w3.org/Graphics/SVG/1.1/DTD/svg11.dtd">
<svg width="23.0mm" height="42.0mm"
 viewBox="0 0 23.0 42.0"
 xmlns="http://www.w3.org/2000/svg" version="1.1"
 xmlns:xlink="http://www.w3.org/1999/xlink">
<desc>Output from Flights of Ideas SVG Sketchup Plugin</desc>

  <g id="face0" fill="none" stroke="rgb(0,0,255)" stroke-width="1" stroke-miterlimit="4" stroke-dasharray="none" stroke-linejoin="round" stroke-linecap="round">
    <line x1="6.0" y1="21.0" x2="6.0" y2="19.7"/>
    <line x1="6.0" y1="19.7" x2="8.20000000000002" y2="19.7"/>
    <line x1="8.20000000000002" y1="19.7" x2="8.20000000000002" y2="21.0"/>
    <line x1="8.20000000000002" y1="21.0" x2="11.2" y2="21.0"/>
    <line x1="11.2" y1="21.0" x2="11.2" y2="24.0"/>
    <line x1="11.2" y1="24.0" x2="8.20000000000002" y2="24.0"/>
    <line x1="8.20000000000002" y1="24.0" x2="8.20000000000002" y2="25.3"/>
    <line x1="8.20000000000002" y1="25.3" x2="6.0" y2="25.3"/>
    <line x1="6.0" y1="25.3" x2="6.0" y2="24.0"/>
    <line x1="6.0" y1="24.0" x2="4.0" y2="24.0"/>
    <line x1="4.0" y1="24.0" x2="4.00000000000001" y2="31.0"/>
    <line x1="4.00000000000001" y1="31.0" x2="1.0" y2="31.0"/>
    <line x1="1.0" y1="31.0" x2="1.0" y2="36.0"/>
    <line x1="1.0" y1="36.0" x2="4.00000000000001" y2="36.0"/>
    <line x1="4.00000000000001" y1="36.0" x2="4.00000000000001" y2="41.0"/>
    <line x1="4.00000000000001" y1="41.0" x2="19.0" y2="41.0"/>
    <line x1="19.0" y1="41.0" x2="19.0" y2="36.0"/>
    <line x1="19.0" y1="36.0" x2="17.0" y2="36.0"/>
    <line x1="17.0" y1="36.0" x2="17.0" y2="37.3"/>
    <line x1="17.0" y1="37.3" x2="14.8" y2="37.3"/>
    <line x1="14.8" y1="37.3" x2="14.8" y2="36.0"/>
    <line x1="14.8" y1="36.0" x2="11.8" y2="36.0"/>
    <line x1="11.8" y1="36.0" x2="11.8" y2="33.0"/>
    <line x1="11.8" y1="33.0" x2="14.8" y2="33.0"/>
    <line x1="14.8" y1="33.0" x2="14.8" y2="31.7"/>
    <line x1="14.8" y1="31.7" x2="17.0" y2="31.7"/>
    <line x1="17.0" y1="31.7" x2="17.0" y2="33.0"/>
    <line x1="17.0" y1="33.0" x2="19.0" y2="33.0"/>
    <line x1="19.0" y1="33.0" x2="19.0" y2="16.0"/>
    <line x1="19.0" y1="16.0" x2="22.0" y2="16.0"/>
    <line x1="22.0" y1="16.0" x2="22.0" y2="5.99999999999999"/>
    <line x1="22.0" y1="5.99999999999999" x2="19.0" y2="5.99999999999999"/>
    <line x1="19.0" y1="5.99999999999999" x2="19.0" y2="1.0"/>
    <line x1="19.0" y1="1.0" x2="4.0" y2="1.0"/>
    <line x1="4.0" y1="1.0" x2="4.00000000000001" y2="5.99999999999999"/>
    <line x1="4.00000000000001" y1="5.99999999999999" x2="1.0" y2="5.99999999999999"/>
    <line x1="1.0" y1="5.99999999999999" x2="1.0" y2="11.0"/>
    <line x1="1.0" y1="11.0" x2="4.00000000000001" y2="11.0"/>
    <line x1="4.00000000000001" y1="11.0" x2="4.00000000000001" y2="21.0"/>
    <line x1="4.00000000000001" y1="21.0" x2="6.0" y2="21.0"/>
  </g>
</svg>
