<?xml version="1.0" standalone="no"?>
<!DOCTYPE svg PUBLIC "-//W3C//DTD SVG 1.1//EN" "http://www.w3.org/Graphics/SVG/1.1/DTD/svg11.dtd">
<svg width="143.0002mm" height="248.0002mm"
 viewBox="0 0 143.0002 248.0002"
 xmlns="http://www.w3.org/2000/svg" version="1.1"
 xmlns:xlink="http://www.w3.org/1999/xlink">
<desc>Output from Flights of Ideas SVG Sketchup Plugin</desc>

  <g id="face0" fill="none" stroke="rgb(0,0,255)" stroke-width="1" stroke-miterlimit="4" stroke-dasharray="none" stroke-linejoin="round" stroke-linecap="round">
    <line x1="140.0001" y1="245.0001" x2="140.0001" y2="235.0001"/>
    <line x1="140.0001" y1="235.0001" x2="143.0001" y2="235.0001"/>
    <line x1="143.0001" y1="235.0001" x2="143.0001" y2="215.0001"/>
    <line x1="143.0001" y1="215.0001" x2="140.0001" y2="215.0001"/>
    <line x1="140.0001" y1="215.0001" x2="140.0001" y2="195.0001"/>
    <line x1="140.0001" y1="195.0001" x2="138.0001" y2="195.0001"/>
    <line x1="138.0001" y1="195.0001" x2="138.0001" y2="196.3001"/>
    <line x1="138.0001" y1="196.3001" x2="135.8001" y2="196.3001"/>
    <line x1="135.8001" y1="196.3001" x2="135.8001" y2="195.0001"/>
    <line x1="135.8001" y1="195.0001" x2="132.8001" y2="195.0001"/>
    <line x1="132.8001" y1="195.0001" x2="132.8001" y2="192.0001"/>
    <line x1="132.8001" y1="192.0001" x2="135.8001" y2="192.0001"/>
    <line x1="135.8001" y1="192.0001" x2="135.8001" y2="190.7001"/>
    <line x1="135.8001" y1="190.7001" x2="138.0001" y2="190.7001"/>
    <line x1="138.0001" y1="190.7001" x2="138.0001" y2="192.0001"/>
    <line x1="138.0001" y1="192.0001" x2="140.0001" y2="192.0001"/>
    <line x1="140.0001" y1="192.0001" x2="140.0001" y2="182.0001"/>
    <line x1="140.0001" y1="182.0001" x2="143.0001" y2="182.0001"/>
    <line x1="143.0001" y1="182.0001" x2="143.0001" y2="162.0001"/>
    <line x1="143.0001" y1="162.0001" x2="140.0001" y2="162.0001"/>
    <line x1="140.0001" y1="162.0001" x2="140.0001" y2="53.0001"/>
    <line x1="140.0001" y1="53.0001" x2="143.0001" y2="53.0001"/>
    <line x1="143.0001" y1="53.0001" x2="143.0001" y2="33.0000999999999"/>
    <line x1="143.0001" y1="33.0000999999999" x2="140.0001" y2="33.0000999999999"/>
    <line x1="140.0001" y1="33.0000999999999" x2="140.0001" y2="23.0001"/>
    <line x1="140.0001" y1="23.0001" x2="138.0001" y2="23.0001"/>
    <line x1="138.0001" y1="23.0001" x2="138.0001" y2="24.3000999999999"/>
    <line x1="138.0001" y1="24.3000999999999" x2="135.8001" y2="24.3000999999999"/>
    <line x1="135.8001" y1="24.3000999999999" x2="135.8001" y2="23.0001"/>
    <line x1="135.8001" y1="23.0001" x2="132.8001" y2="23.0001"/>
    <line x1="132.8001" y1="23.0001" x2="132.8001" y2="20.0001"/>
    <line x1="132.8001" y1="20.0001" x2="135.8001" y2="20.0001"/>
    <line x1="135.8001" y1="20.0001" x2="135.8001" y2="18.7000999999999"/>
    <line x1="135.8001" y1="18.7000999999999" x2="138.0001" y2="18.7000999999999"/>
    <line x1="138.0001" y1="18.7000999999999" x2="138.0001" y2="20.0001"/>
    <line x1="138.0001" y1="20.0001" x2="140.0001" y2="20.0001"/>
    <line x1="140.0001" y1="20.0001" x2="140.0001" y2="0.0001"/>
    <line x1="140.0001" y1="0.0001" x2="120.0001" y2="0.0001"/>
    <line x1="120.0001" y1="0.0001" x2="120.0001" y2="3.00010000000003"/>
    <line x1="120.0001" y1="3.00010000000003" x2="100.0001" y2="225.0001"/>
    <line x1="100.0001" y1="225.0001" x2="0.0001" y2="225.0001"/>
    <line x1="0.0001" y1="225.0001" x2="0.0001" y2="245.0001"/>
    <line x1="0.0001" y1="245.0001" x2="10.0001000000001" y2="245.0001"/>
    <line x1="10.0001000000001" y1="245.0001" x2="10.0001000000001" y2="243.000099999999"/>
    <line x1="10.0001000000001" y1="243.000099999999" x2="8.70010000000005" y2="243.000099999999"/>
    <line x1="8.70010000000005" y1="243.000099999999" x2="8.70010000000005" y2="240.8001"/>
    <line x1="8.70010000000005" y1="240.8001" x2="10.0001000000001" y2="240.8001"/>
    <line x1="10.0001000000001" y1="240.8001" x2="10.0001000000001" y2="237.8001"/>
    <line x1="10.0001000000001" y1="237.8001" x2="13.0001000000001" y2="237.8001"/>
    <line x1="13.0001000000001" y1="237.8001" x2="13.0001000000001" y2="240.8001"/>
    <line x1="13.0001000000001" y1="240.8001" x2="14.3001000000001" y2="240.8001"/>
    <line x1="14.3001000000001" y1="240.8001" x2="14.3001000000001" y2="243.000100000001"/>
    <line x1="14.3001000000001" y1="243.000100000001" x2="13.0001000000001" y2="243.0001"/>
    <line x1="13.0001000000001" y1="243.0001" x2="13.0001000000001" y2="245.0001"/>
    <line x1="13.0001000000001" y1="245.0001" x2="23.0001" y2="245.0001"/>
    <line x1="23.0001" y1="245.0001" x2="23.0001" y2="248.0001"/>
    <line x1="23.0001" y1="248.0001" x2="43.0001000000001" y2="248.0001"/>
    <line x1="43.0001000000001" y1="248.0001" x2="43.0001000000001" y2="245.0001"/>
    <line x1="43.0001000000001" y1="245.0001" x2="102.0001" y2="245.0001"/>
    <line x1="102.0001" y1="245.0001" x2="102.0001" y2="243.0001"/>
    <line x1="102.0001" y1="243.0001" x2="100.7001" y2="243.0001"/>
    <line x1="100.7001" y1="243.0001" x2="100.7001" y2="240.8001"/>
    <line x1="100.7001" y1="240.8001" x2="102.0001" y2="240.8001"/>
    <line x1="102.0001" y1="240.8001" x2="102.0001" y2="237.8001"/>
    <line x1="102.0001" y1="237.8001" x2="105.0001" y2="237.8001"/>
    <line x1="105.0001" y1="237.8001" x2="105.0001" y2="240.8001"/>
    <line x1="105.0001" y1="240.8001" x2="106.3001" y2="240.8001"/>
    <line x1="106.3001" y1="240.8001" x2="106.3001" y2="243.0001"/>
    <line x1="106.3001" y1="243.0001" x2="105.0001" y2="243.0001"/>
    <line x1="105.0001" y1="243.0001" x2="105.0001" y2="245.0001"/>
    <line x1="105.0001" y1="245.0001" x2="110.0001" y2="245.0001"/>
    <line x1="110.0001" y1="245.0001" x2="110.0001" y2="248.0001"/>
    <line x1="110.0001" y1="248.0001" x2="130.0001" y2="248.0001"/>
    <line x1="130.0001" y1="248.0001" x2="130.0001" y2="245.0001"/>
    <line x1="130.0001" y1="245.0001" x2="140.0001" y2="245.0001"/>
    <line x1="129.0001" y1="215.1001" x2="129.0001" y2="233.9001"/>
    <line x1="129.0001" y1="233.9001" x2="116.0001" y2="233.9001"/>
    <line x1="116.0001" y1="233.9001" x2="116.0001" y2="215.1001"/>
    <line x1="116.0001" y1="215.1001" x2="129.0001" y2="215.1001"/>
    <line x1="135.0001" y1="146.5001" x2="134.948988739434" y2="146.888328567654"/>
    <line x1="134.948988739434" y1="146.888328567654" x2="134.799138105677" y2="147.2501"/>
    <line x1="134.799138105677" y1="147.2501" x2="134.56076017178" y2="147.56076017178"/>
    <line x1="134.56076017178" y1="147.56076017178" x2="134.2501" y2="147.799138105677"/>
    <line x1="134.2501" y1="147.799138105677" x2="133.888328567654" y2="147.948988739434"/>
    <line x1="133.888328567654" y1="147.948988739434" x2="133.5001" y2="148.0001"/>
    <line x1="133.5001" y1="148.0001" x2="133.111871432346" y2="147.948988739434"/>
    <line x1="133.111871432346" y1="147.948988739434" x2="132.7501" y2="147.799138105677"/>
    <line x1="132.7501" y1="147.799138105677" x2="132.43943982822" y2="147.56076017178"/>
    <line x1="132.43943982822" y1="147.56076017178" x2="132.201061894323" y2="147.2501"/>
    <line x1="132.201061894323" y1="147.2501" x2="132.051211260566" y2="146.888328567654"/>
    <line x1="132.051211260566" y1="146.888328567654" x2="132.0001" y2="146.5001"/>
    <line x1="132.0001" y1="146.5001" x2="132.051211260566" y2="146.111871432346"/>
    <line x1="132.051211260566" y1="146.111871432346" x2="132.201061894323" y2="145.7501"/>
    <line x1="132.201061894323" y1="145.7501" x2="132.43943982822" y2="145.43943982822"/>
    <line x1="132.43943982822" y1="145.43943982822" x2="132.7501" y2="145.201061894323"/>
    <line x1="132.7501" y1="145.201061894323" x2="133.111871432346" y2="145.051211260566"/>
    <line x1="133.111871432346" y1="145.051211260566" x2="133.5001" y2="145.0001"/>
    <line x1="133.5001" y1="145.0001" x2="133.888328567654" y2="145.051211260566"/>
    <line x1="133.888328567654" y1="145.051211260566" x2="134.2501" y2="145.201061894323"/>
    <line x1="134.2501" y1="145.201061894323" x2="134.56076017178" y2="145.43943982822"/>
    <line x1="134.56076017178" y1="145.43943982822" x2="134.799138105677" y2="145.7501"/>
    <line x1="134.799138105677" y1="145.7501" x2="134.948988739434" y2="146.111871432346"/>
    <line x1="134.948988739434" y1="146.111871432346" x2="135.0001" y2="146.5001"/>
    <line x1="135.0001" y1="88.5001" x2="134.948988739434" y2="88.8883285676538"/>
    <line x1="134.948988739434" y1="88.8883285676538" x2="134.799138105677" y2="89.2501"/>
    <line x1="134.799138105677" y1="89.2501" x2="134.56076017178" y2="89.5607601717798"/>
    <line x1="134.56076017178" y1="89.5607601717798" x2="134.2501" y2="89.7991381056767"/>
    <line x1="134.2501" y1="89.7991381056767" x2="133.888328567654" y2="89.9489887394336"/>
    <line x1="133.888328567654" y1="89.9489887394336" x2="133.5001" y2="90.0000999999999"/>
    <line x1="133.5001" y1="90.0000999999999" x2="133.111871432346" y2="89.9489887394336"/>
    <line x1="133.111871432346" y1="89.9489887394336" x2="132.7501" y2="89.7991381056767"/>
    <line x1="132.7501" y1="89.7991381056767" x2="132.43943982822" y2="89.5607601717798"/>
    <line x1="132.43943982822" y1="89.5607601717798" x2="132.201061894323" y2="89.2501"/>
    <line x1="132.201061894323" y1="89.2501" x2="132.051211260566" y2="88.8883285676538"/>
    <line x1="132.051211260566" y1="88.8883285676538" x2="132.0001" y2="88.5001"/>
    <line x1="132.0001" y1="88.5001" x2="132.051211260566" y2="88.1118714323462"/>
    <line x1="132.051211260566" y1="88.1118714323462" x2="132.201061894323" y2="87.7501"/>
    <line x1="132.201061894323" y1="87.7501" x2="132.43943982822" y2="87.4394398282201"/>
    <line x1="132.43943982822" y1="87.4394398282201" x2="132.7501" y2="87.2010618943233"/>
    <line x1="132.7501" y1="87.2010618943233" x2="133.111871432346" y2="87.0512112605664"/>
    <line x1="133.111871432346" y1="87.0512112605664" x2="133.5001" y2="87.0001"/>
    <line x1="133.5001" y1="87.0001" x2="133.888328567654" y2="87.0512112605664"/>
    <line x1="133.888328567654" y1="87.0512112605664" x2="134.2501" y2="87.2010618943234"/>
    <line x1="134.2501" y1="87.2010618943234" x2="134.56076017178" y2="87.4394398282201"/>
    <line x1="134.56076017178" y1="87.4394398282201" x2="134.799138105677" y2="87.7501"/>
    <line x1="134.799138105677" y1="87.7501" x2="134.948988739434" y2="88.1118714323462"/>
    <line x1="134.948988739434" y1="88.1118714323462" x2="135.0001" y2="88.5001"/>
    <line x1="135.0001" y1="4.50009999999997" x2="134.948988739434" y2="4.88832856765378"/>
    <line x1="134.948988739434" y1="4.88832856765378" x2="134.799138105677" y2="5.25009999999989"/>
    <line x1="134.799138105677" y1="5.25009999999989" x2="134.56076017178" y2="5.56076017177969"/>
    <line x1="134.56076017178" y1="5.56076017177969" x2="134.2501" y2="5.79913810567663"/>
    <line x1="134.2501" y1="5.79913810567663" x2="133.888328567654" y2="5.94898873943358"/>
    <line x1="133.888328567654" y1="5.94898873943358" x2="133.5001" y2="6.00009999999989"/>
    <line x1="133.5001" y1="6.00009999999989" x2="133.111871432346" y2="5.94898873943358"/>
    <line x1="133.111871432346" y1="5.94898873943358" x2="132.7501" y2="5.79913810567663"/>
    <line x1="132.7501" y1="5.79913810567663" x2="132.43943982822" y2="5.56076017177969"/>
    <line x1="132.43943982822" y1="5.56076017177969" x2="132.201061894323" y2="5.25009999999989"/>
    <line x1="132.201061894323" y1="5.25009999999989" x2="132.051211260566" y2="4.88832856765378"/>
    <line x1="132.051211260566" y1="4.88832856765378" x2="132.0001" y2="4.50009999999989"/>
    <line x1="132.0001" y1="4.50009999999989" x2="132.051211260566" y2="4.11187143234616"/>
    <line x1="132.051211260566" y1="4.11187143234616" x2="132.201061894323" y2="3.75009999999997"/>
    <line x1="132.201061894323" y1="3.75009999999997" x2="132.43943982822" y2="3.43943982822009"/>
    <line x1="132.43943982822" y1="3.43943982822009" x2="132.7501" y2="3.20106189432329"/>
    <line x1="132.7501" y1="3.20106189432329" x2="133.111871432346" y2="3.05121126056636"/>
    <line x1="133.111871432346" y1="3.05121126056636" x2="133.5001" y2="3.00009999999986"/>
    <line x1="133.5001" y1="3.00009999999986" x2="133.888328567654" y2="3.05121126056636"/>
    <line x1="133.888328567654" y1="3.05121126056636" x2="134.2501" y2="3.20106189432329"/>
    <line x1="134.2501" y1="3.20106189432329" x2="134.56076017178" y2="3.43943982822009"/>
    <line x1="134.56076017178" y1="3.43943982822009" x2="134.799138105677" y2="3.75009999999986"/>
    <line x1="134.799138105677" y1="3.75009999999986" x2="134.948988739434" y2="4.11187143234616"/>
    <line x1="134.948988739434" y1="4.11187143234616" x2="135.0001" y2="4.50009999999997"/>
    <line x1="127.0001" y1="3.00010000000003" x2="127.0001" y2="6.00009999999989"/>
    <line x1="127.0001" y1="6.00009999999989" x2="124.0001" y2="6.00009999999989"/>
    <line x1="124.0001" y1="6.00009999999989" x2="124.0001" y2="3.00010000000003"/>
    <line x1="124.0001" y1="3.00010000000003" x2="127.0001" y2="3.00010000000003"/>
    <line x1="117.0001" y1="148.0001" x2="117.0001" y2="145.0001"/>
    <line x1="117.0001" y1="145.0001" x2="127.0001" y2="145.0001"/>
    <line x1="127.0001" y1="145.0001" x2="127.0001" y2="148.0001"/>
    <line x1="127.0001" y1="148.0001" x2="117.0001" y2="148.0001"/>
  </g>
</svg>
