<?xml version="1.0" standalone="no"?>
<!DOCTYPE svg PUBLIC "-//W3C//DTD SVG 1.1//EN" "http://www.w3.org/Graphics/SVG/1.1/DTD/svg11.dtd">
<svg width="79.0001999999999mm" height="150.0002mm"
 viewBox="0 0 79.0001999999999 150.0002"
 xmlns="http://www.w3.org/2000/svg" version="1.1"
 xmlns:xlink="http://www.w3.org/1999/xlink">
<desc>Output from Flights of Ideas SVG Sketchup Plugin</desc>

  <g id="face0" fill="none" stroke="rgb(0,0,255)" stroke-width="1" stroke-miterlimit="4" stroke-dasharray="none" stroke-linejoin="round" stroke-linecap="round">
    <line x1="3.0001" y1="86.1763953497462" x2="3.0001" y2="90.1763953497462"/>
    <line x1="3.0001" y1="90.1763953497462" x2="5.00009999999994" y2="90.1763953497462"/>
    <line x1="5.00009999999994" y1="90.1763953497462" x2="5.00009999999994" y2="88.8763953497462"/>
    <line x1="5.00009999999994" y1="88.8763953497462" x2="7.20009999999999" y2="88.8763953497462"/>
    <line x1="7.20009999999999" y1="88.8763953497462" x2="7.20009999999999" y2="90.1763953497462"/>
    <line x1="7.20009999999999" y1="90.1763953497462" x2="10.2000999999999" y2="90.1763953497462"/>
    <line x1="10.2000999999999" y1="90.1763953497462" x2="10.2000999999999" y2="93.1763953497462"/>
    <line x1="10.2000999999999" y1="93.1763953497462" x2="7.20009999999999" y2="93.1763953497462"/>
    <line x1="7.20009999999999" y1="93.1763953497462" x2="7.20009999999999" y2="94.4763953497462"/>
    <line x1="7.20009999999999" y1="94.4763953497462" x2="5.0001" y2="94.4763953497462"/>
    <line x1="5.0001" y1="94.4763953497462" x2="5.0001" y2="93.1763953497462"/>
    <line x1="5.0001" y1="93.1763953497462" x2="3.0001" y2="93.1763953497462"/>
    <line x1="3.0001" y1="93.1763953497462" x2="3.00009999999994" y2="147.0001"/>
    <line x1="3.00009999999994" y1="147.0001" x2="60.1000999999999" y2="147.0001"/>
    <line x1="60.1000999999999" y1="147.0001" x2="60.1000999999999" y2="150.0001"/>
    <line x1="60.1000999999999" y1="150.0001" x2="63.1001" y2="150.0001"/>
    <line x1="63.1001" y1="150.0001" x2="63.1001" y2="147.0001"/>
    <line x1="63.1001" y1="147.0001" x2="68.1001" y2="147.0001"/>
    <line x1="68.1001" y1="147.0001" x2="68.1001" y2="145.0001"/>
    <line x1="68.1001" y1="145.0001" x2="66.8001" y2="145.0001"/>
    <line x1="66.8001" y1="145.0001" x2="66.8001" y2="142.8001"/>
    <line x1="66.8001" y1="142.8001" x2="68.0000999999999" y2="142.8001"/>
    <line x1="68.0000999999999" y1="142.8001" x2="68.0000999999999" y2="139.8001"/>
    <line x1="68.0000999999999" y1="139.8001" x2="71.0001" y2="139.8001"/>
    <line x1="71.0001" y1="139.8001" x2="71.0001" y2="142.8001"/>
    <line x1="71.0001" y1="142.8001" x2="72.3001" y2="142.8001"/>
    <line x1="72.3001" y1="142.8001" x2="72.3001" y2="145.0001"/>
    <line x1="72.3001" y1="145.0001" x2="71.0001" y2="145.0001"/>
    <line x1="71.0001" y1="145.0001" x2="71.0001" y2="147.0001"/>
    <line x1="71.0001" y1="147.0001" x2="76.0000999999999" y2="147.0001"/>
    <line x1="76.0000999999999" y1="147.0001" x2="76.0000999999999" y2="137.0001"/>
    <line x1="76.0000999999999" y1="137.0001" x2="79.0000999999999" y2="137.0001"/>
    <line x1="79.0000999999999" y1="137.0001" x2="79.0000999999999" y2="117.0001"/>
    <line x1="79.0000999999999" y1="117.0001" x2="76.0001" y2="117.0001"/>
    <line x1="76.0001" y1="117.0001" x2="76.0000999999999" y2="112.0001"/>
    <line x1="76.0000999999999" y1="112.0001" x2="74.0001" y2="112.0001"/>
    <line x1="74.0001" y1="112.0001" x2="74.0001" y2="113.3001"/>
    <line x1="74.0001" y1="113.3001" x2="71.8001" y2="113.3001"/>
    <line x1="71.8001" y1="113.3001" x2="71.8001" y2="112.0001"/>
    <line x1="71.8001" y1="112.0001" x2="68.8001" y2="112.0001"/>
    <line x1="68.8001" y1="112.0001" x2="68.8001" y2="109.0001"/>
    <line x1="68.8001" y1="109.0001" x2="71.8001" y2="109.0001"/>
    <line x1="71.8001" y1="109.0001" x2="71.8001" y2="107.7001"/>
    <line x1="71.8001" y1="107.7001" x2="74.0001" y2="107.7001"/>
    <line x1="74.0001" y1="107.7001" x2="74.0001" y2="109.0001"/>
    <line x1="74.0001" y1="109.0001" x2="76.0000999999999" y2="109.0001"/>
    <line x1="76.0000999999999" y1="109.0001" x2="76.0000999999999" y2="39.0001000000001"/>
    <line x1="76.0000999999999" y1="39.0001000000001" x2="74.0001" y2="39.0001000000001"/>
    <line x1="74.0001" y1="39.0001000000001" x2="74.0001" y2="40.3001"/>
    <line x1="74.0001" y1="40.3001" x2="71.8001" y2="40.3001"/>
    <line x1="71.8001" y1="40.3001" x2="71.8001" y2="39.0001000000001"/>
    <line x1="71.8001" y1="39.0001000000001" x2="68.8001" y2="39.0001000000001"/>
    <line x1="68.8001" y1="39.0001000000001" x2="68.8001" y2="36.0001"/>
    <line x1="68.8001" y1="36.0001" x2="71.8001" y2="36.0001"/>
    <line x1="71.8001" y1="36.0001" x2="71.8001" y2="34.7001"/>
    <line x1="71.8001" y1="34.7001" x2="74.0000999999999" y2="34.7001"/>
    <line x1="74.0000999999999" y1="34.7001" x2="74.0001" y2="36.0001"/>
    <line x1="74.0001" y1="36.0001" x2="76.0000999999999" y2="36.0001"/>
    <line x1="76.0000999999999" y1="36.0001" x2="76.0000999999999" y2="33.0001000000001"/>
    <line x1="76.0000999999999" y1="33.0001000000001" x2="79.0000999999999" y2="33.0001000000001"/>
    <line x1="79.0000999999999" y1="33.0001000000001" x2="79.0000999999999" y2="13.0001"/>
    <line x1="79.0000999999999" y1="13.0001" x2="76.0000999999999" y2="13.0001"/>
    <line x1="76.0000999999999" y1="13.0001" x2="76.0001" y2="3.00010000000006"/>
    <line x1="76.0001" y1="3.00010000000006" x2="71.0001" y2="3.00010000000006"/>
    <line x1="71.0001" y1="3.00010000000006" x2="71.0001" y2="5.00010000000006"/>
    <line x1="71.0001" y1="5.00010000000006" x2="72.3001" y2="5.00010000000006"/>
    <line x1="72.3001" y1="5.00010000000006" x2="72.3001" y2="7.20010000000005"/>
    <line x1="72.3001" y1="7.20010000000005" x2="71.0001" y2="7.20010000000005"/>
    <line x1="71.0001" y1="7.20010000000005" x2="71.0001" y2="10.2001"/>
    <line x1="71.0001" y1="10.2001" x2="68.0000999999999" y2="10.2001"/>
    <line x1="68.0000999999999" y1="10.2001" x2="68.0001000000001" y2="7.20010000000005"/>
    <line x1="68.0001000000001" y1="7.20010000000005" x2="66.7001" y2="7.20010000000005"/>
    <line x1="66.7001" y1="7.20010000000005" x2="66.7001" y2="5.00010000000006"/>
    <line x1="66.7001" y1="5.00010000000006" x2="68.0001000000001" y2="5.00010000000006"/>
    <line x1="68.0001000000001" y1="5.00010000000006" x2="68.0000999999999" y2="3.00010000000006"/>
    <line x1="68.0000999999999" y1="3.00010000000006" x2="63.0001" y2="3.00010000000006"/>
    <line x1="63.0001" y1="3.00010000000006" x2="63.0001" y2="0.0001"/>
    <line x1="63.0001" y1="0.0001" x2="60.0000999999999" y2="0.0001"/>
    <line x1="60.0000999999999" y1="0.0001" x2="60.0001000000001" y2="3.00010000000006"/>
    <line x1="60.0001000000001" y1="3.00010000000006" x2="3.0001" y2="3.00010000000006"/>
    <line x1="3.0001" y1="3.00010000000006" x2="3.0001" y2="56.5001000000001"/>
    <line x1="3.0001" y1="56.5001000000001" x2="5.0001" y2="56.5001000000001"/>
    <line x1="5.0001" y1="56.5001000000001" x2="5.0001" y2="55.2001000000001"/>
    <line x1="5.0001" y1="55.2001000000001" x2="7.20009999999999" y2="55.2001000000001"/>
    <line x1="7.20009999999999" y1="55.2001000000001" x2="7.20009999999999" y2="56.5001000000001"/>
    <line x1="7.20009999999999" y1="56.5001000000001" x2="10.2001" y2="56.5001000000001"/>
    <line x1="10.2001" y1="56.5001000000001" x2="10.2000999999999" y2="59.5001000000001"/>
    <line x1="10.2000999999999" y1="59.5001000000001" x2="7.20009999999999" y2="59.5001000000001"/>
    <line x1="7.20009999999999" y1="59.5001000000001" x2="7.20009999999999" y2="60.8001000000001"/>
    <line x1="7.20009999999999" y1="60.8001000000001" x2="5.00009999999994" y2="60.8001000000001"/>
    <line x1="5.00009999999994" y1="60.8001000000001" x2="5.00009999999994" y2="59.5001000000001"/>
    <line x1="5.00009999999994" y1="59.5001000000001" x2="3.0001" y2="59.5001000000001"/>
    <line x1="3.0001" y1="59.5001000000001" x2="3.0001" y2="63.5001000000001"/>
    <line x1="3.0001" y1="63.5001000000001" x2="0.0001" y2="63.5001000000001"/>
    <line x1="0.0001" y1="63.5001000000001" x2="0.0001" y2="65.5001000000001"/>
    <line x1="0.0001" y1="65.5001000000001" x2="11.5001" y2="65.5001000000001"/>
    <line x1="11.5001" y1="65.5001000000001" x2="13.958880928474" y2="65.8238046502539"/>
    <line x1="13.958880928474" y1="65.8238046502539" x2="16.2501" y2="66.7728586640478"/>
    <line x1="16.2501" y1="66.7728586640478" x2="18.2176144212722" y2="68.2825855787278"/>
    <line x1="18.2176144212722" y1="68.2825855787278" x2="19.7273413359521" y2="70.2501"/>
    <line x1="19.7273413359521" y1="70.2501" x2="20.6763953497462" y2="72.5413190715261"/>
    <line x1="20.6763953497462" y1="72.5413190715261" x2="21.0001" y2="75.0001"/>
    <line x1="21.0001" y1="75.0001" x2="20.6763953497462" y2="77.458880928474"/>
    <line x1="20.6763953497462" y1="77.458880928474" x2="19.7273413359521" y2="79.7501"/>
    <line x1="19.7273413359521" y1="79.7501" x2="18.2176144212722" y2="81.7176144212722"/>
    <line x1="18.2176144212722" y1="81.7176144212722" x2="16.2501" y2="83.2273413359522"/>
    <line x1="16.2501" y1="83.2273413359522" x2="13.958880928474" y2="84.1763953497462"/>
    <line x1="13.958880928474" y1="84.1763953497462" x2="11.5001" y2="84.5001"/>
    <line x1="11.5001" y1="84.5001" x2="9.04131907152597" y2="84.1763953497462"/>
    <line x1="9.04131907152597" y1="84.1763953497462" x2="0.0001" y2="84.1763953497462"/>
    <line x1="0.0001" y1="84.1763953497462" x2="0.0001" y2="86.1763953497462"/>
    <line x1="0.0001" y1="86.1763953497462" x2="3.0001" y2="86.1763953497462"/>
  </g>
</svg>
