<?xml version="1.0" standalone="no"?>
<!DOCTYPE svg PUBLIC "-//W3C//DTD SVG 1.1//EN" "http://www.w3.org/Graphics/SVG/1.1/DTD/svg11.dtd">
<svg width="143.0002mm" height="248.0002mm"
 viewBox="0 0 143.0002 248.0002"
 xmlns="http://www.w3.org/2000/svg" version="1.1"
 xmlns:xlink="http://www.w3.org/1999/xlink">
<desc>Output from Flights of Ideas SVG Sketchup Plugin</desc>

  <g id="face0" fill="none" stroke="rgb(0,0,255)" stroke-width="1" stroke-miterlimit="4" stroke-dasharray="none" stroke-linejoin="round" stroke-linecap="round">
    <line x1="100.0001" y1="23.0001" x2="120.0001" y2="245.0001"/>
    <line x1="120.0001" y1="245.0001" x2="120.0001" y2="248.0001"/>
    <line x1="120.0001" y1="248.0001" x2="140.0001" y2="248.0001"/>
    <line x1="140.0001" y1="248.0001" x2="140.0001" y2="228.0001"/>
    <line x1="140.0001" y1="228.0001" x2="138.0001" y2="228.0001"/>
    <line x1="138.0001" y1="228.0001" x2="138.0001" y2="229.3001"/>
    <line x1="138.0001" y1="229.3001" x2="135.8001" y2="229.3001"/>
    <line x1="135.8001" y1="229.3001" x2="135.8001" y2="228.0001"/>
    <line x1="135.8001" y1="228.0001" x2="132.8001" y2="228.0001"/>
    <line x1="132.8001" y1="228.0001" x2="132.8001" y2="225.0001"/>
    <line x1="132.8001" y1="225.0001" x2="135.8001" y2="225.0001"/>
    <line x1="135.8001" y1="225.0001" x2="135.8001" y2="223.7001"/>
    <line x1="135.8001" y1="223.7001" x2="138.0001" y2="223.7001"/>
    <line x1="138.0001" y1="223.7001" x2="138.0001" y2="225.0001"/>
    <line x1="138.0001" y1="225.0001" x2="140.0001" y2="225.0001"/>
    <line x1="140.0001" y1="225.0001" x2="140.0001" y2="215.0001"/>
    <line x1="140.0001" y1="215.0001" x2="143.0001" y2="215.0001"/>
    <line x1="143.0001" y1="215.0001" x2="143.0001" y2="195.0001"/>
    <line x1="143.0001" y1="195.0001" x2="140.0001" y2="195.0001"/>
    <line x1="140.0001" y1="195.0001" x2="140.0001" y2="86.0001"/>
    <line x1="140.0001" y1="86.0001" x2="143.0001" y2="86.0001"/>
    <line x1="143.0001" y1="86.0001" x2="143.0001" y2="66.0001"/>
    <line x1="143.0001" y1="66.0001" x2="140.0001" y2="66.0001"/>
    <line x1="140.0001" y1="66.0001" x2="140.0001" y2="56.0001"/>
    <line x1="140.0001" y1="56.0001" x2="138.0001" y2="56.0001"/>
    <line x1="138.0001" y1="56.0001" x2="138.0001" y2="57.3001"/>
    <line x1="138.0001" y1="57.3001" x2="135.8001" y2="57.3001"/>
    <line x1="135.8001" y1="57.3001" x2="135.8001" y2="56.0001"/>
    <line x1="135.8001" y1="56.0001" x2="132.8001" y2="56.0001"/>
    <line x1="132.8001" y1="56.0001" x2="132.8001" y2="53.0001"/>
    <line x1="132.8001" y1="53.0001" x2="135.8001" y2="53.0001"/>
    <line x1="135.8001" y1="53.0001" x2="135.8001" y2="51.7001"/>
    <line x1="135.8001" y1="51.7001" x2="138.0001" y2="51.7001"/>
    <line x1="138.0001" y1="51.7001" x2="138.0001" y2="53.0001"/>
    <line x1="138.0001" y1="53.0001" x2="140.0001" y2="53.0001"/>
    <line x1="140.0001" y1="53.0001" x2="140.0001" y2="33.0001"/>
    <line x1="140.0001" y1="33.0001" x2="143.0001" y2="33.0001"/>
    <line x1="143.0001" y1="33.0001" x2="143.0001" y2="13.0001"/>
    <line x1="143.0001" y1="13.0001" x2="140.0001" y2="13.0001"/>
    <line x1="140.0001" y1="13.0001" x2="140.0001" y2="3.00010000000002"/>
    <line x1="140.0001" y1="3.00010000000002" x2="130.0001" y2="3.0001"/>
    <line x1="130.0001" y1="3.0001" x2="130.0001" y2="0.000100000000014211"/>
    <line x1="130.0001" y1="0.000100000000014211" x2="110.0001" y2="0.000100000000014211"/>
    <line x1="110.0001" y1="0.000100000000014211" x2="110.0001" y2="3.00010000000001"/>
    <line x1="110.0001" y1="3.00010000000001" x2="105.0001" y2="3.00010000000001"/>
    <line x1="105.0001" y1="3.00010000000001" x2="105.0001" y2="5.00010000000001"/>
    <line x1="105.0001" y1="5.00010000000001" x2="106.3001" y2="5.00010000000001"/>
    <line x1="106.3001" y1="5.00010000000001" x2="106.3001" y2="7.2001"/>
    <line x1="106.3001" y1="7.2001" x2="105.0001" y2="7.2001"/>
    <line x1="105.0001" y1="7.2001" x2="105.0001" y2="10.2001"/>
    <line x1="105.0001" y1="10.2001" x2="102.0001" y2="10.2001"/>
    <line x1="102.0001" y1="10.2001" x2="102.0001" y2="7.2001"/>
    <line x1="102.0001" y1="7.2001" x2="100.7001" y2="7.2001"/>
    <line x1="100.7001" y1="7.2001" x2="100.7001" y2="5.00010000000001"/>
    <line x1="100.7001" y1="5.00010000000001" x2="102.0001" y2="5.00010000000001"/>
    <line x1="102.0001" y1="5.00010000000001" x2="102.0001" y2="3.00010000000001"/>
    <line x1="102.0001" y1="3.00010000000001" x2="43.0001000000001" y2="3.00010000000002"/>
    <line x1="43.0001000000001" y1="3.00010000000002" x2="43.0001000000001" y2="0.000100000000014211"/>
    <line x1="43.0001000000001" y1="0.000100000000014211" x2="23.0001" y2="0.0001"/>
    <line x1="23.0001" y1="0.0001" x2="23.0001" y2="3.00009999999998"/>
    <line x1="23.0001" y1="3.00009999999998" x2="13.0001" y2="3.0001"/>
    <line x1="13.0001" y1="3.0001" x2="13.0001" y2="5.00009999999999"/>
    <line x1="13.0001" y1="5.00009999999999" x2="14.3001000000001" y2="5.00009999999997"/>
    <line x1="14.3001000000001" y1="5.00009999999997" x2="14.3001" y2="7.20009999999999"/>
    <line x1="14.3001" y1="7.20009999999999" x2="13.0001" y2="7.20010000000001"/>
    <line x1="13.0001" y1="7.20010000000001" x2="13.0001" y2="10.2001"/>
    <line x1="13.0001" y1="10.2001" x2="10.0001000000001" y2="10.2001"/>
    <line x1="10.0001000000001" y1="10.2001" x2="10.0001000000001" y2="7.20009999999995"/>
    <line x1="10.0001000000001" y1="7.20009999999995" x2="8.70009999999999" y2="7.20009999999997"/>
    <line x1="8.70009999999999" y1="7.20009999999997" x2="8.70009999999999" y2="5.00010000000007"/>
    <line x1="8.70009999999999" y1="5.00010000000007" x2="10.0001000000001" y2="5.00009999999999"/>
    <line x1="10.0001000000001" y1="5.00009999999999" x2="10.0001000000001" y2="3.00010000000001"/>
    <line x1="10.0001000000001" y1="3.00010000000001" x2="0.0001" y2="3.00009999999994"/>
    <line x1="0.0001" y1="3.00009999999994" x2="0.0001" y2="23.0001"/>
    <line x1="0.0001" y1="23.0001" x2="25.0001000000001" y2="23.0001"/>
    <line x1="25.0001000000001" y1="23.0001" x2="25.0001000000001" y2="33.0001"/>
    <line x1="25.0001000000001" y1="33.0001" x2="45.0001000000001" y2="33.0001000000001"/>
    <line x1="45.0001000000001" y1="33.0001000000001" x2="45.0001000000001" y2="23.0001"/>
    <line x1="45.0001000000001" y1="23.0001" x2="100.0001" y2="23.0001"/>
    <line x1="130.0001" y1="13.0001" x2="130.0001" y2="23.7001"/>
    <line x1="130.0001" y1="23.7001" x2="121.0001" y2="23.7001"/>
    <line x1="121.0001" y1="23.7001" x2="121.0001" y2="13.0001"/>
    <line x1="121.0001" y1="13.0001" x2="130.0001" y2="13.0001"/>
    <line x1="35.3883285676539" y1="29.4489887394337" x2="35.0001000000001" y2="29.5001"/>
    <line x1="35.0001000000001" y1="29.5001" x2="34.6118714323462" y2="29.4489887394336"/>
    <line x1="34.6118714323462" y1="29.4489887394336" x2="34.2501000000001" y2="29.2991381056767"/>
    <line x1="34.2501000000001" y1="29.2991381056767" x2="33.9394398282202" y2="29.0607601717798"/>
    <line x1="33.9394398282202" y1="29.0607601717798" x2="33.7010618943234" y2="28.7501000000001"/>
    <line x1="33.7010618943234" y1="28.7501000000001" x2="33.5512112605665" y2="28.3883285676538"/>
    <line x1="33.5512112605665" y1="28.3883285676538" x2="33.5001000000001" y2="28.0001"/>
    <line x1="33.5001000000001" y1="28.0001" x2="33.5512112605665" y2="27.6118714323463"/>
    <line x1="33.5512112605665" y1="27.6118714323463" x2="33.7010618943234" y2="27.2501"/>
    <line x1="33.7010618943234" y1="27.2501" x2="33.9394398282202" y2="26.9394398282202"/>
    <line x1="33.9394398282202" y1="26.9394398282202" x2="34.2501000000001" y2="26.7010618943232"/>
    <line x1="34.2501000000001" y1="26.7010618943232" x2="34.6118714323462" y2="26.5512112605664"/>
    <line x1="34.6118714323462" y1="26.5512112605664" x2="35.0001000000001" y2="26.5001000000002"/>
    <line x1="35.0001000000001" y1="26.5001000000002" x2="35.3883285676539" y2="26.5512112605665"/>
    <line x1="35.3883285676539" y1="26.5512112605665" x2="35.7501000000001" y2="26.7010618943233"/>
    <line x1="35.7501000000001" y1="26.7010618943233" x2="36.0607601717799" y2="26.9394398282203"/>
    <line x1="36.0607601717799" y1="26.9394398282203" x2="36.2991381056767" y2="27.2500999999998"/>
    <line x1="36.2991381056767" y1="27.2500999999998" x2="36.4489887394337" y2="27.6118714323461"/>
    <line x1="36.4489887394337" y1="27.6118714323461" x2="36.5001" y2="28.0001"/>
    <line x1="36.5001" y1="28.0001" x2="36.4489887394337" y2="28.3883285676538"/>
    <line x1="36.4489887394337" y1="28.3883285676538" x2="36.2991381056767" y2="28.7500999999999"/>
    <line x1="36.2991381056767" y1="28.7500999999999" x2="36.0607601717799" y2="29.0607601717798"/>
    <line x1="36.0607601717799" y1="29.0607601717798" x2="35.7501000000001" y2="29.2991381056767"/>
    <line x1="35.7501000000001" y1="29.2991381056767" x2="35.3883285676539" y2="29.4489887394337"/>
    <line x1="35.3883285676539" y1="12.9489887394336" x2="35.0001000000001" y2="13.0001"/>
    <line x1="35.0001000000001" y1="13.0001" x2="34.6118714323462" y2="12.9489887394336"/>
    <line x1="34.6118714323462" y1="12.9489887394336" x2="34.2501000000001" y2="12.7991381056767"/>
    <line x1="34.2501000000001" y1="12.7991381056767" x2="33.9394398282202" y2="12.5607601717798"/>
    <line x1="33.9394398282202" y1="12.5607601717798" x2="33.7010618943234" y2="12.2501"/>
    <line x1="33.7010618943234" y1="12.2501" x2="33.5512112605665" y2="11.8883285676538"/>
    <line x1="33.5512112605665" y1="11.8883285676538" x2="33.5001000000001" y2="11.5001"/>
    <line x1="33.5001000000001" y1="11.5001" x2="33.5512112605665" y2="11.1118714323462"/>
    <line x1="33.5512112605665" y1="11.1118714323462" x2="33.7010618943234" y2="10.7501"/>
    <line x1="33.7010618943234" y1="10.7501" x2="33.9394398282202" y2="10.4394398282202"/>
    <line x1="33.9394398282202" y1="10.4394398282202" x2="34.2501000000001" y2="10.2010618943233"/>
    <line x1="34.2501000000001" y1="10.2010618943233" x2="34.6118714323462" y2="10.0512112605664"/>
    <line x1="34.6118714323462" y1="10.0512112605664" x2="35.0001000000001" y2="10.0001"/>
    <line x1="35.0001000000001" y1="10.0001" x2="35.3883285676539" y2="10.0512112605664"/>
    <line x1="35.3883285676539" y1="10.0512112605664" x2="35.7501000000001" y2="10.2010618943234"/>
    <line x1="35.7501000000001" y1="10.2010618943234" x2="36.0607601717799" y2="10.4394398282202"/>
    <line x1="36.0607601717799" y1="10.4394398282202" x2="36.2991381056767" y2="10.7501"/>
    <line x1="36.2991381056767" y1="10.7501" x2="36.4489887394337" y2="11.1118714323462"/>
    <line x1="36.4489887394337" y1="11.1118714323462" x2="36.5001" y2="11.5001"/>
    <line x1="36.5001" y1="11.5001" x2="36.4489887394337" y2="11.8883285676538"/>
    <line x1="36.4489887394337" y1="11.8883285676538" x2="36.2991381056767" y2="12.2501"/>
    <line x1="36.2991381056767" y1="12.2501" x2="36.0607601717799" y2="12.5607601717798"/>
    <line x1="36.0607601717799" y1="12.5607601717798" x2="35.7501000000001" y2="12.7991381056767"/>
    <line x1="35.7501000000001" y1="12.7991381056767" x2="35.3883285676539" y2="12.9489887394336"/>
    <line x1="124.1001" y1="245.0001" x2="124.1001" y2="242.0001"/>
    <line x1="124.1001" y1="242.0001" x2="127.1001" y2="242.0001"/>
    <line x1="127.1001" y1="242.0001" x2="127.1001" y2="245.0001"/>
    <line x1="127.1001" y1="245.0001" x2="124.1001" y2="245.0001"/>
    <line x1="135.0001" y1="243.5001" x2="134.948988739434" y2="243.888328567654"/>
    <line x1="134.948988739434" y1="243.888328567654" x2="134.799138105677" y2="244.2501"/>
    <line x1="134.799138105677" y1="244.2501" x2="134.56076017178" y2="244.56076017178"/>
    <line x1="134.56076017178" y1="244.56076017178" x2="134.2501" y2="244.799138105677"/>
    <line x1="134.2501" y1="244.799138105677" x2="133.888328567654" y2="244.948988739434"/>
    <line x1="133.888328567654" y1="244.948988739434" x2="133.5001" y2="245.0001"/>
    <line x1="133.5001" y1="245.0001" x2="133.111871432346" y2="244.948988739434"/>
    <line x1="133.111871432346" y1="244.948988739434" x2="132.7501" y2="244.799138105677"/>
    <line x1="132.7501" y1="244.799138105677" x2="132.43943982822" y2="244.56076017178"/>
    <line x1="132.43943982822" y1="244.56076017178" x2="132.201061894323" y2="244.2501"/>
    <line x1="132.201061894323" y1="244.2501" x2="132.051211260566" y2="243.888328567654"/>
    <line x1="132.051211260566" y1="243.888328567654" x2="132.0001" y2="243.5001"/>
    <line x1="132.0001" y1="243.5001" x2="132.051211260566" y2="243.111871432346"/>
    <line x1="132.051211260566" y1="243.111871432346" x2="132.201061894323" y2="242.7501"/>
    <line x1="132.201061894323" y1="242.7501" x2="132.43943982822" y2="242.43943982822"/>
    <line x1="132.43943982822" y1="242.43943982822" x2="132.7501" y2="242.201061894323"/>
    <line x1="132.7501" y1="242.201061894323" x2="133.111871432346" y2="242.051211260566"/>
    <line x1="133.111871432346" y1="242.051211260566" x2="133.5001" y2="242.0001"/>
    <line x1="133.5001" y1="242.0001" x2="133.888328567654" y2="242.051211260566"/>
    <line x1="133.888328567654" y1="242.051211260566" x2="134.2501" y2="242.201061894323"/>
    <line x1="134.2501" y1="242.201061894323" x2="134.56076017178" y2="242.43943982822"/>
    <line x1="134.56076017178" y1="242.43943982822" x2="134.799138105677" y2="242.7501"/>
    <line x1="134.799138105677" y1="242.7501" x2="134.948988739434" y2="243.111871432346"/>
    <line x1="134.948988739434" y1="243.111871432346" x2="135.0001" y2="243.5001"/>
    <line x1="135.0001" y1="159.5001" x2="134.952734571084" y2="159.874348933617"/>
    <line x1="134.952734571084" y1="159.874348933617" x2="134.806374496741" y2="160.237566203013"/>
    <line x1="134.806374496741" y1="160.237566203013" x2="134.570993974166" y2="160.550526369394"/>
    <line x1="134.570993974166" y1="160.550526369394" x2="134.262633796987" y2="160.791901714612"/>
    <line x1="134.262633796987" y1="160.791901714612" x2="133.90230820169" y2="160.945242907783"/>
    <line x1="133.90230820169" y1="160.945242907783" x2="133.514572782129" y2="161.0001"/>
    <line x1="133.514572782129" y1="161.0001" x2="133.125851066383" y2="160.952734571084"/>
    <line x1="133.125851066383" y1="160.952734571084" x2="132.762633796987" y2="160.806374496741"/>
    <line x1="132.762633796987" y1="160.806374496741" x2="132.449673630606" y2="160.570993974166"/>
    <line x1="132.449673630606" y1="160.570993974166" x2="132.208298285388" y2="160.262633796987"/>
    <line x1="132.208298285388" y1="160.262633796987" x2="132.054957092217" y2="159.90230820169"/>
    <line x1="132.054957092217" y1="159.90230820169" x2="132.0001" y2="159.514572782129"/>
    <line x1="132.0001" y1="159.514572782129" x2="132.047465428916" y2="159.125851066383"/>
    <line x1="132.047465428916" y1="159.125851066383" x2="132.193825503259" y2="158.762633796987"/>
    <line x1="132.193825503259" y1="158.762633796987" x2="132.429206025834" y2="158.449673630606"/>
    <line x1="132.429206025834" y1="158.449673630606" x2="132.737566203013" y2="158.208298285388"/>
    <line x1="132.737566203013" y1="158.208298285388" x2="133.09789179831" y2="158.054957092217"/>
    <line x1="133.09789179831" y1="158.054957092217" x2="133.485627217871" y2="158.0001"/>
    <line x1="133.485627217871" y1="158.0001" x2="133.874348933617" y2="158.047465428916"/>
    <line x1="133.874348933617" y1="158.047465428916" x2="134.237566203013" y2="158.193825503259"/>
    <line x1="134.237566203013" y1="158.193825503259" x2="134.550526369394" y2="158.429206025834"/>
    <line x1="134.550526369394" y1="158.429206025834" x2="134.791901714612" y2="158.737566203013"/>
    <line x1="134.791901714612" y1="158.737566203013" x2="134.945242907783" y2="159.09789179831"/>
    <line x1="134.945242907783" y1="159.09789179831" x2="135.0001" y2="159.5001"/>
    <line x1="127.1001" y1="161.0001" x2="124.1001" y2="161.0001"/>
    <line x1="124.1001" y1="161.0001" x2="124.1001" y2="158.0001"/>
    <line x1="124.1001" y1="158.0001" x2="127.1001" y2="158.0001"/>
    <line x1="127.1001" y1="158.0001" x2="127.1001" y2="161.0001"/>
    <line x1="117.1001" y1="103.0001" x2="117.1001" y2="100.0001"/>
    <line x1="117.1001" y1="100.0001" x2="127.1001" y2="100.0001"/>
    <line x1="127.1001" y1="100.0001" x2="127.1001" y2="103.0001"/>
    <line x1="127.1001" y1="103.0001" x2="117.1001" y2="103.0001"/>
    <line x1="135.0001" y1="101.5001" x2="134.948988739434" y2="101.888328567654"/>
    <line x1="134.948988739434" y1="101.888328567654" x2="134.799138105677" y2="102.2501"/>
    <line x1="134.799138105677" y1="102.2501" x2="134.56076017178" y2="102.56076017178"/>
    <line x1="134.56076017178" y1="102.56076017178" x2="134.2501" y2="102.799138105677"/>
    <line x1="134.2501" y1="102.799138105677" x2="133.888328567654" y2="102.948988739434"/>
    <line x1="133.888328567654" y1="102.948988739434" x2="133.5001" y2="103.0001"/>
    <line x1="133.5001" y1="103.0001" x2="133.111871432346" y2="102.948988739434"/>
    <line x1="133.111871432346" y1="102.948988739434" x2="132.7501" y2="102.799138105677"/>
    <line x1="132.7501" y1="102.799138105677" x2="132.43943982822" y2="102.56076017178"/>
    <line x1="132.43943982822" y1="102.56076017178" x2="132.201061894323" y2="102.2501"/>
    <line x1="132.201061894323" y1="102.2501" x2="132.051211260566" y2="101.888328567654"/>
    <line x1="132.051211260566" y1="101.888328567654" x2="132.0001" y2="101.5001"/>
    <line x1="132.0001" y1="101.5001" x2="132.051211260566" y2="101.111871432346"/>
    <line x1="132.051211260566" y1="101.111871432346" x2="132.201061894323" y2="100.7501"/>
    <line x1="132.201061894323" y1="100.7501" x2="132.43943982822" y2="100.43943982822"/>
    <line x1="132.43943982822" y1="100.43943982822" x2="132.7501" y2="100.201061894323"/>
    <line x1="132.7501" y1="100.201061894323" x2="133.111871432346" y2="100.051211260566"/>
    <line x1="133.111871432346" y1="100.051211260566" x2="133.5001" y2="100.0001"/>
    <line x1="133.5001" y1="100.0001" x2="133.888328567654" y2="100.051211260566"/>
    <line x1="133.888328567654" y1="100.051211260566" x2="134.2501" y2="100.201061894323"/>
    <line x1="134.2501" y1="100.201061894323" x2="134.56076017178" y2="100.43943982822"/>
    <line x1="134.56076017178" y1="100.43943982822" x2="134.799138105677" y2="100.7501"/>
    <line x1="134.799138105677" y1="100.7501" x2="134.948988739434" y2="101.111871432346"/>
    <line x1="134.948988739434" y1="101.111871432346" x2="135.0001" y2="101.5001"/>
  </g>
</svg>
