<?xml version="1.0" standalone="no"?>
<!DOCTYPE svg PUBLIC "-//W3C//DTD SVG 1.1//EN" "http://www.w3.org/Graphics/SVG/1.1/DTD/svg11.dtd">
<svg width="113.0002mm" height="150.0002mm"
 viewBox="0 0 113.0002 150.0002"
 xmlns="http://www.w3.org/2000/svg" version="1.1"
 xmlns:xlink="http://www.w3.org/1999/xlink">
<desc>Output from Flights of Ideas SVG Sketchup Plugin</desc>

  <g id="face0" fill="none" stroke="rgb(0,0,255)" stroke-width="1" stroke-miterlimit="4" stroke-dasharray="none" stroke-linejoin="round" stroke-linecap="round">
    <line x1="110.0001" y1="3.00010000000003" x2="105.0001" y2="3.00010000000003"/>
    <line x1="105.0001" y1="3.00010000000003" x2="105.0001" y2="5.00010000000003"/>
    <line x1="105.0001" y1="5.00010000000003" x2="106.3001" y2="5.00010000000003"/>
    <line x1="106.3001" y1="5.00010000000003" x2="106.3001" y2="7.20010000000007"/>
    <line x1="106.3001" y1="7.20010000000007" x2="105.0001" y2="7.20010000000007"/>
    <line x1="105.0001" y1="7.20010000000007" x2="105.0001" y2="10.2001"/>
    <line x1="105.0001" y1="10.2001" x2="102.0001" y2="10.2001"/>
    <line x1="102.0001" y1="10.2001" x2="102.0001" y2="7.20010000000007"/>
    <line x1="102.0001" y1="7.20010000000007" x2="100.7001" y2="7.20010000000007"/>
    <line x1="100.7001" y1="7.20010000000007" x2="100.7001" y2="5.00010000000003"/>
    <line x1="100.7001" y1="5.00010000000003" x2="102.0001" y2="5.00010000000003"/>
    <line x1="102.0001" y1="5.00010000000003" x2="102.0001" y2="3.00010000000003"/>
    <line x1="102.0001" y1="3.00010000000003" x2="97.0001" y2="3.00010000000003"/>
    <line x1="97.0001" y1="3.00010000000003" x2="97.0001" y2="0.0001"/>
    <line x1="97.0001" y1="0.0001" x2="87.0001" y2="0.0001"/>
    <line x1="87.0001" y1="0.0001" x2="87.0001" y2="3.00010000000003"/>
    <line x1="87.0001" y1="3.00010000000003" x2="0.0001" y2="3.00010000000006"/>
    <line x1="0.0001" y1="3.00010000000006" x2="0.0001" y2="147.0001"/>
    <line x1="0.0001" y1="147.0001" x2="87.1001" y2="147.0001"/>
    <line x1="87.1001" y1="147.0001" x2="87.1001" y2="150.0001"/>
    <line x1="87.1001" y1="150.0001" x2="97.1001" y2="150.0001"/>
    <line x1="97.1001" y1="150.0001" x2="97.1001" y2="147.0001"/>
    <line x1="97.1001" y1="147.0001" x2="102.1001" y2="147.0001"/>
    <line x1="102.1001" y1="147.0001" x2="102.1001" y2="145.0001"/>
    <line x1="102.1001" y1="145.0001" x2="100.8001" y2="145.0001"/>
    <line x1="100.8001" y1="145.0001" x2="100.8001" y2="142.8001"/>
    <line x1="100.8001" y1="142.8001" x2="102.0001" y2="142.8001"/>
    <line x1="102.0001" y1="142.8001" x2="102.0001" y2="139.8001"/>
    <line x1="102.0001" y1="139.8001" x2="105.0001" y2="139.8001"/>
    <line x1="105.0001" y1="139.8001" x2="105.0001" y2="142.8001"/>
    <line x1="105.0001" y1="142.8001" x2="106.3001" y2="142.8001"/>
    <line x1="106.3001" y1="142.8001" x2="106.3001" y2="145.0001"/>
    <line x1="106.3001" y1="145.0001" x2="105.0001" y2="145.0001"/>
    <line x1="105.0001" y1="145.0001" x2="105.0001" y2="147.0001"/>
    <line x1="105.0001" y1="147.0001" x2="110.0001" y2="147.0001"/>
    <line x1="110.0001" y1="147.0001" x2="110.0001" y2="137.0001"/>
    <line x1="110.0001" y1="137.0001" x2="113.0001" y2="137.0001"/>
    <line x1="113.0001" y1="137.0001" x2="113.0001" y2="117.0001"/>
    <line x1="113.0001" y1="117.0001" x2="110.0001" y2="117.0001"/>
    <line x1="110.0001" y1="117.0001" x2="110.0001" y2="112.0001"/>
    <line x1="110.0001" y1="112.0001" x2="108.0001" y2="112.0001"/>
    <line x1="108.0001" y1="112.0001" x2="108.0001" y2="113.3001"/>
    <line x1="108.0001" y1="113.3001" x2="105.8001" y2="113.3001"/>
    <line x1="105.8001" y1="113.3001" x2="105.8001" y2="112.0001"/>
    <line x1="105.8001" y1="112.0001" x2="102.8001" y2="112.0001"/>
    <line x1="102.8001" y1="112.0001" x2="102.8001" y2="109.0001"/>
    <line x1="102.8001" y1="109.0001" x2="105.8001" y2="109.0001"/>
    <line x1="105.8001" y1="109.0001" x2="105.8001" y2="107.7001"/>
    <line x1="105.8001" y1="107.7001" x2="108.0001" y2="107.7001"/>
    <line x1="108.0001" y1="107.7001" x2="108.0001" y2="109.0001"/>
    <line x1="108.0001" y1="109.0001" x2="110.0001" y2="109.0001"/>
    <line x1="110.0001" y1="109.0001" x2="110.0001" y2="41.0001000000001"/>
    <line x1="110.0001" y1="41.0001000000001" x2="108.0001" y2="41.0001000000001"/>
    <line x1="108.0001" y1="41.0001000000001" x2="108.0001" y2="42.3001"/>
    <line x1="108.0001" y1="42.3001" x2="105.8001" y2="42.3001"/>
    <line x1="105.8001" y1="42.3001" x2="105.8001" y2="41.0001000000001"/>
    <line x1="105.8001" y1="41.0001000000001" x2="102.8001" y2="41.0001000000001"/>
    <line x1="102.8001" y1="41.0001000000001" x2="102.8001" y2="38.0001"/>
    <line x1="102.8001" y1="38.0001" x2="105.8001" y2="38.0001"/>
    <line x1="105.8001" y1="38.0001" x2="105.8001" y2="36.7001"/>
    <line x1="105.8001" y1="36.7001" x2="108.0001" y2="36.7001"/>
    <line x1="108.0001" y1="36.7001" x2="108.0001" y2="38.0001"/>
    <line x1="108.0001" y1="38.0001" x2="110.0001" y2="38.0001"/>
    <line x1="110.0001" y1="38.0001" x2="110.0001" y2="33.0001000000001"/>
    <line x1="110.0001" y1="33.0001000000001" x2="113.0001" y2="33.0001000000001"/>
    <line x1="113.0001" y1="33.0001000000001" x2="113.0001" y2="13.0001"/>
    <line x1="113.0001" y1="13.0001" x2="110.0001" y2="13.0001"/>
    <line x1="110.0001" y1="13.0001" x2="110.0001" y2="3.00010000000003"/>
    <line x1="5.38832856765375" y1="143.948988739434" x2="5.0001" y2="144.0001"/>
    <line x1="5.0001" y1="144.0001" x2="4.61187143234624" y2="143.948988739434"/>
    <line x1="4.61187143234624" y1="143.948988739434" x2="4.2501" y2="143.799138105677"/>
    <line x1="4.2501" y1="143.799138105677" x2="3.93943982822023" y2="143.56076017178"/>
    <line x1="3.93943982822023" y1="143.56076017178" x2="3.70106189432343" y2="143.2501"/>
    <line x1="3.70106189432343" y1="143.2501" x2="3.55121126056647" y2="142.888328567654"/>
    <line x1="3.55121126056647" y1="142.888328567654" x2="3.5001" y2="142.5001"/>
    <line x1="3.5001" y1="142.5001" x2="3.55121126056647" y2="142.111871432346"/>
    <line x1="3.55121126056647" y1="142.111871432346" x2="3.70106189432331" y2="141.7501"/>
    <line x1="3.70106189432331" y1="141.7501" x2="3.93943982822023" y2="141.43943982822"/>
    <line x1="3.93943982822023" y1="141.43943982822" x2="4.2501" y2="141.201061894323"/>
    <line x1="4.2501" y1="141.201061894323" x2="4.61187143234624" y2="141.051211260566"/>
    <line x1="4.61187143234624" y1="141.051211260566" x2="5.0001" y2="141.0001"/>
    <line x1="5.0001" y1="141.0001" x2="5.38832856765375" y2="141.051211260566"/>
    <line x1="5.38832856765375" y1="141.051211260566" x2="5.7501" y2="141.201061894323"/>
    <line x1="5.7501" y1="141.201061894323" x2="6.06076017177977" y2="141.43943982822"/>
    <line x1="6.06076017177977" y1="141.43943982822" x2="6.2991381056768" y2="141.7501"/>
    <line x1="6.2991381056768" y1="141.7501" x2="6.44898873943364" y2="142.111871432346"/>
    <line x1="6.44898873943364" y1="142.111871432346" x2="6.50010000000011" y2="142.5001"/>
    <line x1="6.50010000000011" y1="142.5001" x2="6.44898873943364" y2="142.888328567654"/>
    <line x1="6.44898873943364" y1="142.888328567654" x2="6.2991381056768" y2="143.2501"/>
    <line x1="6.2991381056768" y1="143.2501" x2="6.06076017177977" y2="143.56076017178"/>
    <line x1="6.06076017177977" y1="143.56076017178" x2="5.7501" y2="143.799138105677"/>
    <line x1="5.7501" y1="143.799138105677" x2="5.38832856765375" y2="143.948988739434"/>
    <line x1="38.684417386358" y1="46.0223252113281" x2="38.6350476997627" y2="46.397325211328"/>
    <line x1="38.6350476997627" y1="46.397325211328" x2="38.4903031025312" y2="46.7467695810448"/>
    <line x1="38.4903031025312" y1="46.7467695810448" x2="38.2600476997627" y2="47.0468442641663"/>
    <line x1="38.2600476997627" y1="47.0468442641663" x2="37.9599730166412" y2="47.2770996669347"/>
    <line x1="37.9599730166412" y1="47.2770996669347" x2="37.6105286469243" y2="47.4218442641663"/>
    <line x1="37.6105286469243" y1="47.4218442641663" x2="37.2355286469243" y2="47.4712139507616"/>
    <line x1="37.2355286469243" y1="47.4712139507616" x2="36.8605286469243" y2="47.4218442641663"/>
    <line x1="36.8605286469243" y1="47.4218442641663" x2="36.5110842772076" y2="47.2770996669347"/>
    <line x1="36.5110842772076" y1="47.2770996669347" x2="36.2110095940861" y2="47.0468442641663"/>
    <line x1="36.2110095940861" y1="47.0468442641663" x2="35.9807541913177" y2="46.7467695810448"/>
    <line x1="35.9807541913177" y1="46.7467695810448" x2="35.8360095940861" y2="46.397325211328"/>
    <line x1="35.8360095940861" y1="46.397325211328" x2="35.7866399074908" y2="46.022325211328"/>
    <line x1="35.7866399074908" y1="46.022325211328" x2="35.8360095940861" y2="45.6473252113281"/>
    <line x1="35.8360095940861" y1="45.6473252113281" x2="35.9807541913177" y2="45.2978808416112"/>
    <line x1="35.9807541913177" y1="45.2978808416112" x2="36.2110095940861" y2="44.9978061584897"/>
    <line x1="36.2110095940861" y1="44.9978061584897" x2="36.5110842772076" y2="44.7675507557213"/>
    <line x1="36.5110842772076" y1="44.7675507557213" x2="36.8605286469243" y2="44.6228061584897"/>
    <line x1="36.8605286469243" y1="44.6228061584897" x2="37.2355286469243" y2="44.5734364718944"/>
    <line x1="37.2355286469243" y1="44.5734364718944" x2="37.6105286469243" y2="44.6228061584897"/>
    <line x1="37.6105286469243" y1="44.6228061584897" x2="37.9599730166412" y2="44.7675507557213"/>
    <line x1="37.9599730166412" y1="44.7675507557213" x2="38.2600476997627" y2="44.9978061584896"/>
    <line x1="38.2600476997627" y1="44.9978061584896" x2="38.4903031025312" y2="45.2978808416112"/>
    <line x1="38.4903031025312" y1="45.2978808416112" x2="38.6350476997627" y2="45.647325211328"/>
    <line x1="38.6350476997627" y1="45.647325211328" x2="38.684417386358" y2="46.0223252113281"/>
    <line x1="51.0001" y1="75.0001" x2="50.7956549577345" y2="76.5530142706152"/>
    <line x1="50.7956549577345" y1="76.5530142706152" x2="50.1962524227066" y2="78.0001"/>
    <line x1="50.1962524227066" y1="78.0001" x2="49.2427406871193" y2="79.2427406871193"/>
    <line x1="49.2427406871193" y1="79.2427406871193" x2="48.0001000000001" y2="80.1962524227067"/>
    <line x1="48.0001000000001" y1="80.1962524227067" x2="46.5530142706151" y2="80.7956549577344"/>
    <line x1="46.5530142706151" y1="80.7956549577344" x2="45.0001" y2="81.0001000000001"/>
    <line x1="45.0001" y1="81.0001000000001" x2="43.4471857293849" y2="80.7956549577344"/>
    <line x1="43.4471857293849" y1="80.7956549577344" x2="42.0001000000001" y2="80.1962524227067"/>
    <line x1="42.0001000000001" y1="80.1962524227067" x2="40.7574593128807" y2="79.2427406871193"/>
    <line x1="40.7574593128807" y1="79.2427406871193" x2="39.8039475772934" y2="78.0001"/>
    <line x1="39.8039475772934" y1="78.0001" x2="39.2045450422657" y2="76.5530142706152"/>
    <line x1="39.2045450422657" y1="76.5530142706152" x2="39.0001" y2="75.0001"/>
    <line x1="39.0001" y1="75.0001" x2="39.2045450422657" y2="73.4471857293849"/>
    <line x1="39.2045450422657" y1="73.4471857293849" x2="39.8039475772934" y2="72.0001"/>
    <line x1="39.8039475772934" y1="72.0001" x2="40.7574593128807" y2="70.7574593128808"/>
    <line x1="40.7574593128807" y1="70.7574593128808" x2="42.0001" y2="69.8039475772934"/>
    <line x1="42.0001" y1="69.8039475772934" x2="43.4471857293849" y2="69.2045450422656"/>
    <line x1="43.4471857293849" y1="69.2045450422656" x2="45.0001" y2="69.0001"/>
    <line x1="45.0001" y1="69.0001" x2="46.5530142706151" y2="69.2045450422656"/>
    <line x1="46.5530142706151" y1="69.2045450422656" x2="48.0001000000001" y2="69.8039475772934"/>
    <line x1="48.0001000000001" y1="69.8039475772934" x2="49.2427406871193" y2="70.7574593128808"/>
    <line x1="49.2427406871193" y1="70.7574593128808" x2="50.1962524227066" y2="72.0001"/>
    <line x1="50.1962524227066" y1="72.0001" x2="50.7956549577345" y2="73.4471857293849"/>
    <line x1="50.7956549577345" y1="73.4471857293849" x2="51.0001" y2="75.0001"/>
  </g>
</svg>
