<?xml version="1.0" standalone="no"?>
<!DOCTYPE svg PUBLIC "-//W3C//DTD SVG 1.1//EN" "http://www.w3.org/Graphics/SVG/1.1/DTD/svg11.dtd" >
<svg xmlns="http://www.w3.org/2000/svg">
<metadata></metadata>
<defs>
<font id="haufemerriweathersansregular" horiz-adv-x="1022" >
<font-face units-per-em="2048" ascent="1638" descent="-410" />
<missing-glyph horiz-adv-x="656" />
<glyph horiz-adv-x="0" />
<glyph horiz-adv-x="0" />
<glyph unicode="&#x9;" horiz-adv-x="0" />
<glyph unicode="&#xa;" horiz-adv-x="0" />
<glyph horiz-adv-x="0" />
<glyph horiz-adv-x="0" />
<glyph horiz-adv-x="0" />
<glyph horiz-adv-x="0" />
<glyph horiz-adv-x="0" />
<glyph horiz-adv-x="0" />
<glyph horiz-adv-x="0" />
<glyph unicode=" "  horiz-adv-x="656" />
<glyph unicode="&#x09;" horiz-adv-x="656" />
<glyph unicode="&#xa0;" horiz-adv-x="656" />
<glyph unicode="!" horiz-adv-x="606" d="M179 1780h258l-25 -1269h-204zM146 133q-1 36 12.5 68.5t36.5 56.5t52.5 38t61.5 14q37 0 65 -12.5t47 -33.5t29 -49t11 -59q1 -38 -12.5 -70.5t-36.5 -56.5t-53.5 -37.5t-63.5 -13.5q-30 0 -57 11.5t-47 32.5t-32 49.5t-13 61.5z" />
<glyph unicode="&#x22;" horiz-adv-x="1284" d="M261 1687h248l-33 -723h-181zM773 1687h248l-33 -723h-181z" />
<glyph unicode="#" horiz-adv-x="1573" d="M408 352h-200v162h215l33 363h-214v159h228l31 337h198l-32 -337h304l30 337h197l-32 -337h221v-159h-235l-34 -363h225v-162h-240l-32 -352h-191l31 352h-308l-33 -352h-194zM925 514l32 363h-305l-34 -363h307z" />
<glyph unicode="$" horiz-adv-x="1373" d="M286 261q28 -17 68 -33.5t87.5 -30t100 -21.5t105.5 -8q70 0 125.5 11.5t93.5 36.5t58.5 64t20.5 94t-22.5 96.5t-65.5 76.5t-106 68t-143 72q-71 34 -139.5 79t-121.5 102t-85.5 126t-32.5 152q0 93 33 161.5t88.5 115t128.5 73t153 36.5l3 230h166l-3 -226 q115 -6 189.5 -30t109.5 -47l-46 -183q-26 16 -55.5 30.5t-66.5 25.5t-84 18t-108 7q-53 0 -104.5 -10.5t-91.5 -33t-64.5 -56.5t-24.5 -82q0 -55 16.5 -94.5t52.5 -73.5t93.5 -67t138.5 -75q75 -38 150 -81.5t135.5 -99t98 -125t37.5 -158.5q0 -94 -29.5 -166.5t-84 -124 t-131.5 -81.5t-171 -40l-2 -226h-166l2 223q-64 4 -121.5 13.5t-104.5 21.5t-81 25t-52 25z" />
<glyph unicode="%" horiz-adv-x="1981" d="M1211 1530h196l-644 -1530h-196zM432 660q-86 -2 -152.5 31t-112 90t-69 132.5t-23.5 159.5q0 102 32 180t85.5 132t123.5 82.5t146 30.5q94 2 161.5 -30t111 -89t64.5 -134t21 -164q0 -101 -32 -179t-86 -131t-124 -81.5t-146 -29.5zM446 812q84 0 129 70t45 192 q0 61 -11.5 111.5t-33.5 86t-53.5 55t-71.5 19.5q-42 0 -75 -18.5t-55 -53t-33.5 -83t-11.5 -109.5q0 -58 11.5 -107.5t33 -85.5t53.5 -56.5t73 -20.5zM1162 461q0 101 32 179t85.5 132t123.5 82.5t147 30.5q93 2 160.5 -30t111 -89t64.5 -133.5t21 -163.5q0 -101 -32 -179 t-86 -131t-124 -81t-146 -30q-86 -2 -152 30.5t-112 89.5t-69.5 133t-23.5 160zM1363 469q0 -58 11 -107.5t33 -85.5t53.5 -56.5t72.5 -20.5q85 0 129.5 70t44.5 192q0 61 -11.5 111.5t-33 86.5t-53.5 56t-72 20q-85 0 -129.5 -71.5t-44.5 -194.5z" />
<glyph unicode="&#x26;" horiz-adv-x="1532" d="M142 395q0 70 24 129t66 107.5t98.5 87.5t121.5 69q-31 41 -60.5 86t-53 94.5t-38 104t-14.5 113.5q0 84 29.5 150.5t84 113t131.5 71.5t172 25q88 0 158.5 -29t119.5 -77t75 -110.5t26 -129.5q0 -93 -23.5 -164t-67.5 -127t-107 -99.5t-141 -79.5q28 -40 70.5 -96 t89.5 -116t94 -117t85 -99q38 40 59 95t21 131q0 35 -4 67t-9 58.5t-10.5 46t-8.5 30.5h198q8 -26 18 -78.5t10 -124.5q0 -112 -35 -197.5t-101 -146.5q49 -32 99.5 -45.5t113.5 -19.5v-119q-20 -6 -50 -10.5t-69 -4.5q-75 0 -133.5 19t-117.5 58q-65 -33 -147.5 -55 t-163.5 -22q-136 0 -248 26t-192.5 77.5t-125 128.5t-44.5 179zM649 861q56 24 100 55t75 71.5t47 92t16 117.5q0 30 -11.5 63.5t-34.5 61t-58.5 45.5t-83.5 18q-41 0 -77.5 -10.5t-64 -34t-44 -60.5t-16.5 -89q0 -54 9 -92t27.5 -73t47.5 -73t68 -92zM357 402q0 -48 20 -94 t65 -81.5t117.5 -57.5t178.5 -22q57 0 99.5 11t83.5 28q-44 49 -93.5 110t-98.5 124.5t-94.5 124.5t-81.5 110q-88 -47 -142 -110.5t-54 -142.5z" />
<glyph unicode="'" horiz-adv-x="770" d="M261 1687h248l-33 -723h-181z" />
<glyph unicode="(" horiz-adv-x="846" d="M566 -331q-22 14 -64 51t-91.5 97.5t-102 146t-95 198t-69.5 252t-27 308.5q0 144 26.5 271.5t69 235t94 195t101.5 151.5t92 104t66 53l153 -78q-19 -15 -53.5 -49.5t-75.5 -90.5t-84 -133t-79.5 -176t-61 -219.5t-28.5 -263.5q-4 -146 15.5 -270t53.5 -226t77.5 -182 t87.5 -140t83 -99t65 -58l-153 -78v0z" />
<glyph unicode=")" horiz-adv-x="846" d="M280.034 1756.98q21.999 -13.999 63.9961 -50.9971q41.998 -36.9971 91.4951 -97.4932q49.4971 -60.4971 101.993 -145.991q52.4971 -85.4951 94.9941 -197.988q42.498 -112.493 69.4961 -251.984t26.998 -308.481q0 -143.991 -26.498 -271.483t-68.9961 -234.985 q-42.4971 -107.493 -93.9941 -194.988t-101.493 -151.491q-49.9971 -63.9961 -91.9951 -103.993q-41.9971 -39.998 -65.9961 -52.9971l-152.99 77.9951q18.999 14.999 53.4971 49.4971q34.4971 34.498 75.4951 90.4951q40.9971 55.9961 83.9951 132.991 q42.9971 76.9961 79.4951 175.989q36.4971 98.9941 60.9961 219.487q24.498 120.492 28.498 263.483q4 145.991 -15.499 269.983t-53.4971 225.986q-33.9971 101.994 -77.4951 181.989q-43.4971 79.9951 -87.4941 139.991q-43.998 59.9961 -82.9951 98.9941 q-38.998 38.9971 -64.9961 57.9961l152.99 77.9951v0z" />
<glyph unicode="*" horiz-adv-x="1220" d="M531 910l35 169l-124 -121l-221 -149l-99 169l236 125l163 52q-2 1 -14 4.5t-29.5 8.5t-38 11t-38.5 11t-30.5 8.5t-14.5 4.5l-238 119l95 170l224 -149l127 -112q0 2 -6 27t-13 55t-13 55t-7 28l-21 269h198l-15 -266l-34 -166l10 10t22.5 21.5t28.5 27t28.5 27t23 21.5 t11.5 10l223 150l97 -168l-236 -122l-163 -54l164 -48l240 -116l-100 -175l-219 147l-130 113q1 -3 7 -28t13 -55t13 -55t6 -28l23 -267l-198 -1z" />
<glyph unicode="+" horiz-adv-x="1393" d="M604 516l7 173l-165 -7h-220v183h220l165 -11l-7 175v225h184v-225l-8 -175l142 11h245v-183h-245l-142 7l8 -173v-233h-184v233z" />
<glyph unicode="," horiz-adv-x="606" d="M159 143l146 131q52 -19 88 -56t58.5 -82.5t32.5 -94.5t10 -93q0 -82 -21.5 -155t-57.5 -131.5t-84 -100.5t-101 -62l-78 93v26q27 14 50 40t40.5 60t27 74.5t9.5 84.5q0 31 -10 65.5t-26.5 63.5t-38.5 48.5t-45 22.5v66z" />
<glyph unicode="-" horiz-adv-x="1350" d="M250 863h850v-183h-850v183z" />
<glyph unicode="." horiz-adv-x="606" d="M146 133q-1 36 12.5 68.5t36.5 56.5t53 38t62 14q36 0 64 -12.5t47 -33.5t29 -49t11 -59q1 -38 -12 -70.5t-36.5 -56.5t-54 -37.5t-63.5 -13.5q-30 0 -56.5 11.5t-47 32.5t-32.5 49.5t-13 61.5z" />
<glyph unicode="/" horiz-adv-x="854" d="M609 1599h204l-569 -1962h-204z" />
<glyph unicode="0" horiz-adv-x="1390" d="M688 -16q-99 0 -178.5 29.5t-140 82t-103.5 125t-70.5 158.5t-39.5 181.5t-11 195.5q2 177 46 321t119.5 246t179 157.5t223.5 55.5q101 0 180 -28t138.5 -79t100.5 -123t66.5 -159t36.5 -187.5t10 -209.5q-1 -170 -41.5 -310.5t-113.5 -242t-175.5 -157.5t-226.5 -56z M696 142q78 0 136.5 41t97.5 118.5t58.5 188.5t19.5 252q0 132 -18 248t-55.5 201.5t-95.5 135t-139 49.5q-78 0 -137.5 -43.5t-99.5 -123.5t-60.5 -193t-20.5 -251q0 -79 8.5 -156t25 -146t42.5 -128t60.5 -102t79 -67t98.5 -24z" />
<glyph unicode="1" horiz-adv-x="922" d="M376 1251q-57 -16 -111 -28.5t-112 -23.5l-25 137q49 14 106.5 40t111.5 55.5t98 58t66 48.5h2l103 -25v-1513h-239v1251z" />
<glyph unicode="2" horiz-adv-x="1270" d="M141 116q83 57 167 124t161 141t144 154t116.5 162.5t77.5 166.5t28 167q0 153 -66.5 236.5t-182.5 83.5q-50 0 -100 -12t-95.5 -31.5t-84 -45t-65.5 -52.5l-95 129q29 32 74.5 66t105 62.5t132 47t156.5 18.5q126 0 213 -39.5t141 -106.5t78 -155.5t24 -186.5 q0 -115 -42 -231.5t-118.5 -228.5t-183 -215.5t-234.5 -192.5l636 8v-185h-953z" />
<glyph unicode="3" horiz-adv-x="1151" d="M148 165q84 -18 172 -18q109 0 199.5 24.5t155 67t100 99.5t35.5 122q0 54 -20 98.5t-62 75.5t-108.5 45.5t-159.5 8.5l-94 -22l-46 155q103 20 183 55q109 43 171 113.5t63 155.5q1 56 -17 95.5t-49.5 64.5t-74.5 36.5t-92 11.5q-53 0 -99 -9.5t-85 -25t-71.5 -35 t-59.5 -38.5l-88 131q29 24 74.5 51.5t101.5 51t120 39t130 15.5q88 0 167 -22.5t139 -67.5t95 -112t35 -156q0 -64 -21 -120.5t-57.5 -104t-86 -86t-106.5 -65.5q85 -10 150.5 -40.5t110.5 -74.5t68 -98.5t23 -111.5q0 -99 -46.5 -188t-134.5 -156t-213.5 -106t-283.5 -38 q-51 0 -106 5.5t-111 15.5z" />
<glyph unicode="4" horiz-adv-x="1343" d="M111 352l564 1186h196l48 -84l-468 -884l-88 -148h455l19 471h209v-471h229v-176h-229v-246h-228v246h-651z" />
<glyph unicode="5" horiz-adv-x="1230" d="M202 139q17 -1 33.5 -1.5t33.5 -0.5q128 0 235 26.5t184.5 74.5t120.5 114t43 144q0 148 -76.5 223t-245.5 75q-60 0 -129 -13t-142 -36l-53 32l56 745h779l-21 -196h-581l-39 -395q60 14 119.5 23t114.5 9q110 0 194.5 -31.5t141.5 -90.5t86.5 -142.5t29.5 -187.5 q0 -99 -49 -196t-145 -173.5t-237.5 -123.5t-325.5 -47q-13 0 -29.5 0.5t-34 2t-34.5 4t-30 6.5z" />
<glyph unicode="6" horiz-adv-x="1375" d="M157 573q0 131 35 248.5t95.5 218.5t142 184.5t174 146.5t191.5 104.5t195 58.5l60 -147q-111 -28 -207 -79.5t-174 -120t-135 -150.5t-90 -170q21 19 50.5 41t70 40.5t92 31t114.5 12.5q110 0 193 -36.5t138.5 -98t83.5 -143t28 -172.5q0 -107 -33 -207.5t-100 -178.5 t-168.5 -125t-237.5 -47q-122 0 -218 47t-162.5 127.5t-102 187.5t-35.5 227zM703 143q70 0 122.5 30.5t87.5 80t52.5 113.5t17.5 131q0 91 -20 152t-55.5 97t-83.5 51t-103 15q-67 0 -118 -9.5t-89 -23t-64 -29t-42 -27.5q-2 -14 -3 -28t-1 -28q-3 -104 8.5 -199 t45.5 -167.5t93.5 -115.5t151.5 -43z" />
<glyph unicode="7" horiz-adv-x="1240" d="M326 0q75 159 151 327t149 338t141.5 339t128.5 330h-751l1 188h955l45 -60l-535 -1462h-285v0z" />
<glyph unicode="8" horiz-adv-x="1311" d="M149 386q0 53 17 107t55 105t97.5 97.5t145.5 85.5q-53 32 -99.5 69t-81.5 83.5t-55.5 103t-20.5 127.5q0 92 37 161t100.5 115.5t149 69.5t182.5 23q100 0 182.5 -24.5t141 -70t90.5 -109.5t32 -142q0 -53 -15.5 -109t-48 -109t-83.5 -100t-123 -83q64 -35 124 -74 t106 -85t73.5 -101t28.5 -124q1 -105 -39.5 -183t-110.5 -130.5t-162.5 -78.5t-194.5 -26q-65 0 -129.5 9.5t-123.5 30.5t-109 53t-87 76.5t-58 102.5t-21 130zM704 865q53 20 92 52t65 71t39 83t14 88q2 50 -14 90t-47.5 68.5t-77.5 43.5t-104 15q-54 0 -100 -13 t-79.5 -38.5t-53 -62t-19.5 -83.5q0 -53 23 -97t62 -81.5t90.5 -71t109.5 -64.5zM366 404q0 -122 78 -191.5t239 -69.5q52 0 101 15.5t87.5 45t61.5 72.5t23 98q0 60 -28.5 106t-75.5 83.5t-108 70t-126 65.5q-54 -20 -100.5 -49.5t-80 -67.5t-52.5 -83t-19 -95z" />
<glyph unicode="9" horiz-adv-x="1400" d="M308 112q112 24 208 75t173 118t135 146.5t94 160.5q-25 -21 -55.5 -38.5t-69.5 -30t-86.5 -20t-105.5 -7.5q-105 0 -185 39t-134.5 104t-82.5 150t-28 177q0 121 36 222t105 173t169 112t228 40q126 0 221.5 -47t160 -128t97.5 -188t33 -227q0 -132 -35.5 -251 t-96.5 -221.5t-143 -187t-175.5 -148.5t-193 -106t-196.5 -58zM645 692q62 0 112 9t89.5 25.5t71 40.5t57.5 53l2 25q3 112 -10 208t-47.5 166.5t-94 110.5t-148.5 40q-63 0 -114 -27t-87 -71t-55.5 -100t-19.5 -113q0 -91 18 -160t50.5 -115t77.5 -69t98 -23z" />
<glyph unicode=":" horiz-adv-x="606" d="M146 133q-1 36 12.5 68.5t36.5 56.5t53 38t62 14q36 0 64 -12.5t47 -33.5t29 -49t11 -59q1 -38 -12 -70.5t-36.5 -56.5t-54 -37.5t-63.5 -13.5q-30 0 -56.5 11.5t-47 32.5t-32.5 49.5t-13 61.5zM146 925q-1 36 12.5 68.5t36.5 56.5t53 38t62 14q36 0 64 -12.5t47 -33.5 t29 -49t11 -59q1 -38 -12 -70.5t-36.5 -56.5t-54 -37.5t-63.5 -13.5q-30 0 -56.5 11.5t-47 32.5t-32.5 49.5t-13 61.5z" />
<glyph unicode=";" horiz-adv-x="606" d="M159 143l146 131q52 -19 88 -56t58.5 -82.5t32.5 -94.5t10 -93q0 -82 -21.5 -155t-57.5 -131.5t-84 -100.5t-101 -62l-78 93v26q27 14 50 40t40.5 60t27 74.5t9.5 84.5q0 31 -10 65.5t-26.5 63.5t-38.5 48.5t-45 22.5v66zM146 925q-1 36 12.5 68.5t36.5 56.5t53 38t62 14 q36 0 64 -12.5t47 -33.5t29 -49t11 -59q1 -38 -12 -70.5t-36.5 -56.5t-54 -37.5t-63.5 -13.5q-30 0 -56.5 11.5t-47 32.5t-32.5 49.5t-13 61.5z" />
<glyph unicode="&#x3c;" horiz-adv-x="1368" d="M171 850l964 450v-213l-716 -314l716 -307v-217l-964 447v154z" />
<glyph unicode="=" horiz-adv-x="1401" d="M243 1119h915v-173h-915v173zM243 602h915v-171h-915v171z" />
<glyph unicode="&#x3e;" horiz-adv-x="1368" d="M1197.01 850l-963.941 450v-213l715.956 -314l-715.956 -307v-217l963.941 447v154z" />
<glyph unicode="?" horiz-adv-x="1048" d="M362 497q-16 20 -31.5 49t-27.5 64.5t-20 76t-9 84.5q-2 56 26.5 100.5t72.5 82.5t97.5 71.5t101 68t82.5 72t43 82.5q23 96 6 170.5t-69 126t-136 78t-194 26.5q-74 0 -119.5 -7.5t-65.5 -12.5v167q9 6 31 13.5t52.5 14t66.5 11t74 4.5q119 0 212.5 -22.5t163 -62 t116 -94t72 -118.5t30 -135.5t-9.5 -144.5q-13 -76 -49 -130.5t-83 -96t-98.5 -74.5t-95.5 -64.5t-74.5 -66.5t-33.5 -81q-3 -33 -1 -63t8.5 -59.5t16 -61t20.5 -68.5h-175zM330 130q-1 35 12.5 66t36.5 54.5t52.5 37.5t60.5 14q35 0 62 -12t45.5 -32.5t28.5 -48t11 -57.5 q1 -37 -12 -68.5t-35.5 -55t-52.5 -37t-63 -13.5q-28 0 -54 11.5t-46 31.5t-32.5 48t-13.5 61z" />
<glyph unicode="@" horiz-adv-x="2220" d="M209 423q0 169 36.5 317.5t103.5 273t161 223t210 166.5t250.5 104t281.5 36q168 0 308 -47t240.5 -138t156.5 -223.5t56 -304.5q0 -132 -22.5 -245.5t-62.5 -206.5t-94 -164.5t-118 -120t-134 -73.5t-141 -25q-75 0 -111 47t-43 140q-2 23 -2 54.5t5 73.5 q-34 -64 -74.5 -121.5t-87 -100.5t-99 -68t-110.5 -25q-51 0 -103 26.5t-93 81.5t-65.5 137.5t-22.5 195.5q2 69 17.5 142.5t45.5 143t75.5 132t107 109t140 74t175.5 27.5q65 0 127.5 -13t104.5 -42l174 31q-15 -55 -32.5 -129.5t-34.5 -156t-32.5 -164.5t-26.5 -154 q-22 -135 -19.5 -207t37.5 -72q55 0 115 49.5t110 135.5t82.5 202.5t32.5 250.5q0 120 -22 211.5t-62.5 158t-97.5 110.5t-125.5 70.5t-147.5 37.5t-164 11q-113 0 -218.5 -31t-197.5 -90t-168 -143t-130 -189.5t-84 -231t-30 -266.5q0 -142 27 -254.5t75 -198t114 -145.5 t144 -98t165.5 -55.5t178.5 -17.5q76 0 140 8.5t116 21t91.5 27.5t66.5 29l39 -131q-32 -20 -82 -39t-112 -34t-133 -24t-146 -9q-181 0 -338 54.5t-273.5 166t-183.5 281t-67 398.5zM829 474q-2 -65 4.5 -119t23 -94t43.5 -62t66 -22q35 0 74.5 33t79.5 87t78 124t69.5 143 t53 144.5t29.5 128.5q-12 20 -32.5 34t-44.5 23t-50 13t-48 4q-81 0 -144.5 -39.5t-107.5 -102t-68 -140.5t-26 -155z" />
<glyph unicode="A" horiz-adv-x="1417" d="M600 1537h231l564 -1537h-251l-126 379h-618l-132 -379h-246zM960 551l-200 601l-44 147l-45 -147l-211 -601h500z" />
<glyph unicode="B" horiz-adv-x="1352" d="M195 1523l109 -1q37 0 75.5 2.5t81 5t90.5 5t104 2.5q130 0 225 -26t156 -73t90.5 -114t29.5 -149q0 -52 -13 -107.5t-40.5 -104.5t-71.5 -87t-106 -54q70 -3 130.5 -34.5t105.5 -82t71 -115t26 -134.5q0 -103 -29.5 -189.5t-100.5 -148.5t-189.5 -97t-296.5 -35 q-44 0 -91 1.5t-91 3.5t-83 4.5t-66 4.5h-116v1523zM427 869q29 -5 64 -6t70.5 -1t70.5 1t64 1q48 0 91 17.5t75 52t50.5 87t18.5 122.5q0 119 -82 175.5t-235 56.5q-15 0 -42 -0.5t-56 -2t-54 -4t-35 -6.5v-493zM427 176q13 -8 41.5 -12.5t63 -7t70 -3t63.5 -0.5 q84 0 150 14t112 46.5t70.5 86t24.5 132.5q0 139 -84.5 204t-264.5 65h-63.5h-66.5t-63.5 -1.5t-52.5 -4.5v-519z" />
<glyph unicode="C" horiz-adv-x="1319" d="M97 753q0 189 57.5 335.5t155 246.5t226 151.5t270.5 51.5q86 0 151 -7t113 -16.5t80.5 -19t53.5 -14.5l-33 -206q-11 6 -35 18t-65.5 24.5t-102.5 22t-146 9.5q-114 0 -205.5 -40.5t-155.5 -116t-98 -183t-34 -240.5q0 -132 33.5 -242.5t96.5 -190t154.5 -124 t207.5 -44.5q58 0 116 8t108 21t88.5 29.5t58.5 34.5l1 -197q-33 -13 -70.5 -27t-83.5 -26t-102.5 -19.5t-126.5 -7.5q-163 0 -295 55t-225 156t-143 243t-50 315z" />
<glyph unicode="D" horiz-adv-x="1482" d="M195 1522h113q36 0 79.5 2.5t91 5.5t97 5.5t97.5 2.5q184 0 320 -49.5t225.5 -144t133.5 -230.5t44 -310q0 -195 -52 -348.5t-148.5 -259.5t-235 -160.5t-311.5 -51.5q-39 1 -85.5 3.5t-95.5 5.5t-97 5t-90 2h-86v1522zM429 174q24 -5 55 -8.5t64.5 -6t68 -3t66.5 -0.5 q103 2 189.5 37.5t149 110t97.5 190t35 277.5q0 167 -33.5 281.5t-100.5 185t-166 101.5t-231 31q-60 0 -110.5 -4t-83.5 -11v-1181z" />
<glyph unicode="E" horiz-adv-x="1226" d="M195 1522h882v-179h-649v-470h477v-179h-477v-512h721v-182h-954v1522z" />
<glyph unicode="F" horiz-adv-x="1093" d="M195 1522h879v-179h-645v-491h484v-179h-484v-673h-234v1522z" />
<glyph unicode="G" horiz-adv-x="1443" d="M100 753q0 197 55.5 344t151.5 245t225.5 147t278.5 49q85 0 144 -5.5t105 -14.5t87 -19.5t90 -20.5l-10 -207q-36 18 -76 34t-90.5 27t-114.5 17.5t-147 6.5q-99 0 -183 -39t-145 -113t-95.5 -181t-34.5 -243q0 -131 28 -244t85.5 -196.5t145 -131t205.5 -47.5 q41 0 84.5 3.5t83 10t73.5 17t55 25.5v370l-274 13v167h497v-674q-34 -2 -75 -19t-100 -37t-141.5 -36.5t-199.5 -16.5q-168 0 -300 58t-222.5 160.5t-138 243.5t-47.5 307z" />
<glyph unicode="H" horiz-adv-x="1563" d="M195 1522h233v-664h706v664h234v-1522h-234v680h-706v-680h-233v1522z" />
<glyph unicode="I" horiz-adv-x="652" d="M208 1522h236v-1522h-236v1522z" />
<glyph unicode="J" horiz-adv-x="722" d="M-40 -211q39 14 81 37.5t79.5 57.5t68 79t46.5 104q12 45 18.5 104.5t9.5 129t3.5 147.5t0.5 160v914h236v-909q0 -150 0.5 -283.5t-19.5 -242.5q-11 -66 -37.5 -121t-63 -99.5t-80.5 -79t-91 -59t-94 -39.5t-89 -21l-69 121v0z" />
<glyph unicode="K" horiz-adv-x="1382" d="M195 1522h233v-757l594 757h273l-536 -657q24 -40 61.5 -96.5t82 -122.5t92.5 -137.5t94.5 -142t88 -136.5t72.5 -120l65 -110h-268q-7 10 -12.5 20t-12 23.5t-15.5 30.5t-22 40q-36 66 -83 140.5t-97.5 150.5t-100 150t-90.5 139l-186 -217v-477h-233v1522z" />
<glyph unicode="L" horiz-adv-x="1088" d="M195 1522h239v-1340h597v-182h-836v1522z" />
<glyph unicode="M" horiz-adv-x="1937" d="M289 1522h327l277 -864l78 -326l74 326l265 864h311l183 -1522h-233l-92 940l-28 410l-101 -411l-312 -953h-134l-327 953l-110 410l-27 -409l-81 -940l-225 -1z" />
<glyph unicode="N" horiz-adv-x="1565" d="M194 1522h214l643 -995l122 -226l-15 261v960h213v-1522h-218l-621 958l-139 248l15 -271v-935h-214v1522z" />
<glyph unicode="O" horiz-adv-x="1577" d="M102 772q4 191 60.5 334.5t152.5 239.5t223.5 144t273.5 48q152 0 276 -55t211 -156t132.5 -245t42.5 -321q-4 -191 -57.5 -335t-145.5 -241.5t-217 -147.5t-272 -53q-159 -3 -286 54.5t-216 162.5t-135 251t-43 320zM789 162q102 0 185 39t141.5 116t90.5 191t32 264 q0 119 -27.5 226t-82 187.5t-135.5 128t-188 47.5q-95 0 -179.5 -36t-148.5 -110.5t-101.5 -188t-37.5 -268.5q0 -118 28.5 -225.5t85 -190t141 -131.5t196.5 -49z" />
<glyph unicode="P" horiz-adv-x="1283" d="M195 1522h110q86 0 175.5 8t191.5 8q124 0 223 -28.5t168.5 -88.5t106.5 -154t37 -225q0 -125 -37.5 -222.5t-111.5 -164.5t-183.5 -102.5t-252.5 -35.5q-72 0 -118.5 2t-75.5 3v-522h-233v1522zM428 698q50 -7 94 -8.5t88 -1.5q72 0 138.5 14t117 52.5t80.5 107.5 t30 179q0 90 -24 153.5t-70.5 104t-115.5 58.5t-159 15q-45 -2 -91 -5t-88 -14v-655z" />
<glyph unicode="Q" horiz-adv-x="1577" d="M765 -16q-155 0 -279 59t-210.5 164t-131.5 249.5t-42 315.5q4 191 60.5 334.5t152.5 239.5t223.5 144t273.5 48q152 0 276 -55t211 -156t132.5 -245t42.5 -321q-3 -156 -40 -281t-101.5 -219t-153.5 -156t-196 -92q32 -33 72 -57t85 -39t93 -22t97 -7q20 0 45 1t50.5 3 t49 6t40.5 10v-166q-12 -8 -31.5 -15t-44.5 -12.5t-53 -9t-57 -3.5q-81 0 -156.5 12t-145 43.5t-135 86.5t-127.5 140zM789 162q102 0 185 39t141.5 116t90.5 191t32 264q0 119 -27.5 226t-82 187.5t-135.5 128t-188 47.5q-95 0 -179.5 -36t-148.5 -110.5t-101.5 -188 t-37.5 -268.5q0 -118 28.5 -225.5t85 -190t141 -131.5t196.5 -49z" />
<glyph unicode="R" horiz-adv-x="1379" d="M195 1522h98q37 0 82.5 2.5t96 5.5t105 5.5t110.5 2.5q115 0 211 -24t165 -76t107 -134t38 -198q0 -167 -73 -272t-200 -151q35 -24 65.5 -63t57.5 -87.5t52 -103t49 -110t48 -108.5t49 -99q14 -28 30 -56.5t31 -55.5h-264q-7 10 -12 19.5t-11 22t-13.5 29.5t-18.5 41 q-20 44 -40 97.5t-42 108.5t-45.5 108t-51.5 97.5t-61 76t-72 43.5q-44 -2 -105 -2h-153v-641h-233v1522zM428 806q16 -2 47 -3t65.5 -2t67 -1h52.5q72 0 130 17t98 53t61.5 92t21.5 134q0 69 -17.5 120.5t-55.5 85t-98.5 50t-147.5 16.5q-61 0 -118.5 -4t-105.5 -14v-544z " />
<glyph unicode="S" horiz-adv-x="1143" d="M183 261q28 -17 68 -33.5t87.5 -30t100 -21.5t105.5 -8q70 0 125.5 11.5t93.5 36.5t58.5 64t20.5 94t-22.5 96.5t-65.5 76.5t-106 68t-143 72q-71 34 -139.5 79t-121.5 102t-85.5 126t-32.5 152q0 109 44 183.5t116 121t163 67t186 20.5q70 0 127.5 -7.5t102.5 -19 t77 -25.5t52 -27l-46 -183q-26 16 -55.5 30.5t-66.5 25.5t-84 18t-108 7q-53 0 -104.5 -10.5t-91.5 -33t-64.5 -56.5t-24.5 -82q0 -55 16.5 -94.5t52.5 -73.5t93.5 -67t138.5 -75q75 -38 150 -81.5t135.5 -99t98 -125t37.5 -158.5q0 -105 -37 -183.5t-104.5 -130.5 t-161.5 -77.5t-208 -25.5q-76 0 -145 8.5t-125.5 21.5t-98 28.5t-61.5 28.5z" />
<glyph unicode="T" horiz-adv-x="1307" d="M535 1342h-471v180h1179v-180h-473v-1342h-235v1342z" />
<glyph unicode="U" horiz-adv-x="1473" d="M161 1522h233l-2 -835q0 -155 24 -256t70 -160t113 -82t153 -23q76 0 137.5 23.5t104 82.5t65.5 159.5t23 255.5v835h232v-892q0 -155 -34.5 -275.5t-104.5 -203t-177 -125t-251 -42.5q-158 0 -269.5 43.5t-182 126.5t-103 203.5t-32.5 274.5z" />
<glyph unicode="V" horiz-adv-x="1364" d="M23 1522h248l353 -1010l67 -238l69 238l336 1010h245l-554 -1534h-196z" />
<glyph unicode="W" horiz-adv-x="1928" d="M22 1522h239l237 -980l50 -279l51 279l282 980h172l286 -980l65 -279l47 278l222 981h233l-393 -1537h-228l-285 986l-35 188l-35 -189l-288 -985h-202z" />
<glyph unicode="X" horiz-adv-x="1324" d="M522 785l-476 737l262 1l245 -401l119 -198l116 198l234 400h249l-475 -768l486 -754h-265l-265 444l-102 170l-99 -170l-258 -444h-249z" />
<glyph unicode="Y" horiz-adv-x="1274" d="M522 592l-500 930h249l330 -647l45 -112l38 112l323 647h245l-493 -931v-591h-237v592z" />
<glyph unicode="Z" horiz-adv-x="1300" d="M856 1264l59 73h-742v185h1002l46 -81l-751 -1173l-74 -86h766v-182h-1028l-45 84z" />
<glyph unicode="[" horiz-adv-x="837" d="M182 1486q0 74 8 122.5t29.5 77.5t58.5 40.5t95 11.5q46 0 84.5 -2t73 -5.5t67.5 -8t69 -8.5v-123h-267v-1638l267 -2v-120q-36 -5 -69 -9.5t-67.5 -7.5t-73 -5t-84.5 -2q-58 0 -95 12t-58.5 41t-29.5 78t-8 123v1425z" />
<glyph unicode="\" horiz-adv-x="854" d="M243.037 1599h-203.987l568.965 -1962h203.987z" />
<glyph unicode="]" horiz-adv-x="837" d="M654.011 1486q0 74 -7.99902 122.5q-8 48.5 -29.498 77.5q-21.499 29 -58.4971 40.5q-36.9971 11.5 -94.9941 11.5q-45.9971 0 -84.4941 -2q-38.498 -2 -72.9961 -5.5t-67.4961 -8t-68.9951 -8.5v-123h266.983v-1638l-266.983 -2v-120q35.9971 -5 68.9951 -9.5 t67.4961 -7.5t72.9961 -5q38.4971 -2 84.4941 -2q57.9971 0 94.9941 12q36.998 12 58.4971 41q21.498 29 29.498 78q7.99902 49 7.99902 123v1425z" />
<glyph unicode="^" horiz-adv-x="1365" d="M579 1531h207l397 -1041h-218l-283 784l-281 -784h-219z" />
<glyph unicode="_" horiz-adv-x="1692" d="M1732 -277v-139h-1772v139h1772z" />
<glyph unicode="`" horiz-adv-x="601" d="M437 1289q-20 9 -52 32.5t-69.5 54.5t-77 67.5t-75.5 73.5t-65.5 71t-46.5 60l162 138q36 -47 77.5 -98t86 -103t89 -103.5t86.5 -98.5l-115 -94v0z" />
<glyph unicode="a" horiz-adv-x="1144" d="M96 306q0 111 59.5 189t161.5 120q50 20 106 34t113.5 23t113 13t103.5 4v113q0 60 -14.5 96t-44.5 55.5t-75 26t-106 6.5q-38 0 -83.5 -8t-89.5 -20t-81 -26.5t-58 -28.5l-55 148q16 10 59.5 28t102 35t127 30t136.5 13q93 0 169 -15.5t130 -56t83 -112t29 -183.5v-806 h-98q-29 0 -50.5 2.5t-36.5 12.5t-22.5 31t-7.5 58v8q-23 -21 -57 -41t-75.5 -36t-89.5 -25.5t-99 -9.5q-76 0 -140.5 22t-111 64t-72.5 101.5t-26 134.5zM322 326q0 -174 195 -174q37 0 75.5 8.5t71 20.5t56.5 25.5t33 23.5v317q-31 0 -71.5 -3t-82.5 -9.5t-82 -17 t-70 -24.5q-27 -13 -50 -28t-39.5 -35t-26 -45.5t-9.5 -58.5z" />
<glyph unicode="b" horiz-adv-x="1252" d="M168 1661h230v-468l-8 -162q20 20 47.5 42t65 40.5t87 30.5t113.5 12q90 0 171.5 -33t143.5 -100.5t98.5 -169.5t36.5 -241t-41 -254.5t-116.5 -199t-182 -130t-236.5 -46.5q-62 0 -127.5 9t-123 21.5t-100 26.5t-58.5 25v1597zM398 189q27 -20 78.5 -30t123.5 -10 q67 0 124.5 28t100.5 83t67.5 136t26.5 187q2 202 -71.5 297.5t-209.5 95.5q-41 0 -77 -9t-66.5 -22.5t-55 -29.5t-41.5 -30v-696z" />
<glyph unicode="c" horiz-adv-x="1010" d="M99 558q0 126 34.5 235t103.5 190t173 127t242 46q54 0 99.5 -6t81.5 -14.5t61.5 -19t39.5 -19.5l-35 -180q-45 31 -106 46.5t-149 15.5q-58 0 -114 -21t-101 -67t-74 -119t-33 -176q-3 -108 20.5 -190t66.5 -137.5t102.5 -83.5t127.5 -28q42 0 82.5 6t75.5 15.5t64 21 t48 22.5l45 -129q-26 -24 -64 -44.5t-83.5 -34.5t-97.5 -22t-106 -8q-122 0 -216 44t-158 121t-97 182t-33 227z" />
<glyph unicode="d" horiz-adv-x="1251" d="M99 528q0 139 40.5 254.5t115.5 198.5t180.5 129t234.5 46q56 0 103 -8.5t83 -19.5l-3 65v471h230v-1680h-107q-25 0 -45 2.5t-34.5 11.5t-22 26t-7.5 46v43q-20 -20 -47.5 -42.5t-66 -42t-89 -32t-116.5 -12.5q-90 0 -171 33t-143 100.5t-98.5 169.5t-36.5 241zM613 163 q40 0 76 9t66.5 22.5t55 29t42.5 29.5v688q-29 26 -79.5 37.5t-122.5 11.5q-67 0 -124.5 -28t-100 -82.5t-67.5 -135.5t-26 -187q-2 -202 71 -298t209 -96z" />
<glyph unicode="e" horiz-adv-x="1135" d="M99 572q0 124 33 230t97.5 184t160.5 123t222 47q85 1 161 -25.5t133 -80.5t92 -135.5t38 -190.5q0 -65 -1.5 -115.5t-9.5 -88.5h-702q0 -5 0.5 -8.5t0.5 -8.5q5 -99 33.5 -165.5t74.5 -107t106.5 -57.5t130.5 -17q30 0 70.5 5t81 13.5t76.5 19.5t57 23l43 -130 q-28 -23 -72.5 -42t-97 -32.5t-109.5 -21t-110 -7.5q-123 0 -217.5 40t-159.5 115.5t-98.5 184.5t-33.5 248zM821 668q4 61 -3 120t-31 105t-69 74.5t-118 28.5q-51 0 -96 -17t-80.5 -56t-60 -101.5t-34.5 -153.5h492z" />
<glyph unicode="f" horiz-adv-x="821" d="M249 969h-171v128l171 43v100q0 85 18 151t48.5 115t71.5 82.5t87 54.5t95 30t95 9q50 0 90 -8t56 -14v-179q-30 10 -67 15t-103 5q-35 0 -64.5 -13t-51 -40t-33.5 -67.5t-12 -94.5v-146h279v-171h-279v-969h-230v969z" />
<glyph unicode="g" horiz-adv-x="1232" d="M110 -180q0 43 14.5 79t37 65.5t51 52t56.5 37.5q-54 32 -71.5 78t-16.5 92q2 57 38.5 116t102.5 104q-91 48 -144 130t-53 190q0 99 34.5 172t95.5 121t144 72.5t181 26.5q84 2 159 -15.5t135 -54.5q18 12 41.5 23t51.5 20t58 14t61 5h112v-180h-206q23 -40 35.5 -87.5 t12.5 -104.5q0 -94 -35 -167t-97 -122.5t-147 -75t-185 -25.5q-68 0 -126 13q-27 -20 -44 -50t-17 -62t7 -52.5t22.5 -33t41 -17.5t61.5 -5h210q130 0 212 -27.5t128.5 -72t63.5 -102t17 -117.5q0 -88 -44.5 -158t-121 -118.5t-178.5 -74.5t-216 -26q-112 0 -201 21 t-151.5 62.5t-96 104.5t-33.5 149zM581 535q54 0 97 11.5t72.5 38.5t45.5 71.5t16 111.5q0 117 -54.5 177t-167.5 60q-47 0 -90 -10t-75.5 -35.5t-52 -71t-19.5 -115.5q0 -48 12.5 -91t40 -75.5t71 -52t104.5 -19.5zM334 -152q0 -51 14.5 -90.5t46 -66.5t82.5 -40.5 t124 -13.5q66 0 126 11t106 32.5t73 54t27 75.5q0 45 -11.5 80.5t-42.5 60t-85 37.5t-138 13h-113q-42 0 -76 1.5t-63 5.5q-14 -12 -26.5 -27t-22 -34.5t-15.5 -43.5t-6 -55z" />
<glyph unicode="h" horiz-adv-x="1300" d="M178 1664h229v-473l-10 -164q33 24 76.5 46.5t93.5 40.5t104 29.5t107 13.5q93 2 159.5 -23t109 -81.5t62.5 -144.5t20 -212v-696h-230v709q0 69 -10 119.5t-35 82t-67 45.5t-105 11q-27 -1 -61 -8t-70.5 -20t-73.5 -31.5t-70 -42.5v-865h-229v1664z" />
<glyph unicode="i" horiz-adv-x="617" d="M194 1138h229v-1138h-229v1138zM301 1343q-29 0 -55.5 9.5t-46.5 27.5t-31.5 43.5t-11.5 57.5q0 33 14.5 62t38 50.5t53 34t60.5 12.5q36 0 63.5 -10.5t45.5 -29.5t27 -44t9 -54q0 -35 -14 -64.5t-37 -50.5t-53 -32.5t-62 -11.5z" />
<glyph unicode="j" horiz-adv-x="586" d="M194 1138h229v-1099q0 -149 -23.5 -253t-69 -169t-112 -94.5t-152.5 -29.5q-13 0 -35 1t-44 2.5t-40 4.5t-24 6v167q8 -4 22.5 -8t31 -7t33.5 -5t30 -2q45 0 74.5 19t47 57t25 94.5t7.5 131.5v1184zM299 1343q-29 0 -55.5 9.5t-46.5 27.5t-31.5 43.5t-11.5 57.5 q0 33 14.5 62t38 50.5t53 34t60.5 12.5q36 0 63.5 -10.5t45.5 -29.5t27 -44t9 -54q0 -35 -14 -64.5t-37 -50.5t-53 -32.5t-62 -11.5z" />
<glyph unicode="k" horiz-adv-x="1177" d="M170 1661h230v-895l-5 -121l445 495h272l-429 -448l481 -692h-260l-370 536l-139 -145l5 -171v-220h-230v1661z" />
<glyph unicode="l" horiz-adv-x="624" d="M197 1664h230v-1664h-230v1664z" />
<glyph unicode="m" horiz-adv-x="1983" d="M178 1138h205l1 -120q32 22 76 46t95.5 44t107.5 33.5t112 15.5q111 2 181.5 -30.5t108.5 -111.5q33 25 78.5 49.5t98.5 45t110.5 33.5t115.5 14q91 2 156 -20t106.5 -74.5t61 -138t19.5 -210.5v-714h-229v709q0 69 -8 119t-30 82t-62 46t-104 11q-30 -1 -64.5 -8.5 t-70.5 -20.5t-71.5 -31.5t-66.5 -40.5q9 -66 9 -151v-715h-229v709q0 69 -8 119t-30.5 82t-62 46t-103.5 11q-27 -1 -61 -8t-70 -20t-73 -31.5t-70 -42.5v-865h-229v1138z" />
<glyph unicode="n" horiz-adv-x="1291" d="M178 1138h205l1 -120q32 22 77 46t97.5 44t109 33.5t112.5 15.5q92 2 156.5 -20.5t105 -75.5t59 -139t18.5 -211v-711h-229v709q0 70 -8 121t-31 83t-64 46t-106 10q-28 -1 -62 -8.5t-70 -20.5t-72.5 -32t-69.5 -43v-865h-229v1138z" />
<glyph unicode="o" horiz-adv-x="1225" d="M98 594q2 137 42.5 242t110.5 176t165 107.5t206 36.5q139 0 235.5 -49.5t157 -133.5t87 -194.5t25.5 -232.5q-2 -137 -42.5 -242t-110.5 -176t-165.5 -107.5t-206.5 -36.5q-138 0 -234.5 49.5t-157 133.5t-87.5 194.5t-25 232.5zM608 146q71 -2 124.5 25.5t89.5 80.5 t54 130t18 175q0 90 -16 169t-50 137.5t-86.5 93t-124.5 35.5q-142 3 -214 -102t-72 -300q0 -90 16.5 -170.5t50.5 -140.5t86 -96t124 -37z" />
<glyph unicode="p" horiz-adv-x="1252" d="M398 -139v-367h-230v1646h209v-122q19 20 46.5 44t66.5 45t91.5 35t121.5 14q90 0 171.5 -33t143.5 -100.5t98.5 -169.5t36.5 -241t-40.5 -254.5t-115.5 -198.5t-180.5 -129t-234.5 -46q-57 0 -104.5 8.5t-82.5 19.5zM398 200q31 -27 80.5 -39t121.5 -12q67 0 124.5 28 t100.5 83t67.5 136t26.5 187q2 202 -71.5 297.5t-209.5 95.5q-40 0 -76 -9t-66.5 -22.5t-55 -29.5t-42.5 -30v-685z" />
<glyph unicode="q" horiz-adv-x="1251" d="M99 528q0 139 40.5 254.5t115.5 198.5t180.5 129t234.5 46q78 0 144 -15.5t106 -32.5l165 32v-1646h-230v367l6 245q-21 -20 -49 -41.5t-65.5 -39.5t-86.5 -29.5t-112 -11.5q-90 0 -171 33t-143 100.5t-98.5 169.5t-36.5 241zM613 163q40 0 76 9t67 22.5t56 29t43 29.5 v688q-30 26 -80.5 37.5t-122.5 11.5q-67 0 -125 -28t-100.5 -82.5t-67.5 -135.5t-26 -187q-2 -202 71 -298t209 -96z" />
<glyph unicode="r" horiz-adv-x="833" d="M170 1138h193l15 -130q16 23 48 49t74 48.5t90.5 37t97.5 14.5q78 0 109 -14v-216q-8 4 -19 9t-28 9t-42 6.5t-59 2.5q-43 0 -80 -8.5t-68.5 -22t-57 -30.5t-43.5 -34v-859h-230v1138z" />
<glyph unicode="s" horiz-adv-x="989" d="M148 235q12 -8 43 -22t74.5 -27.5t96 -23.5t107.5 -11q100 -1 152 35t52 102q0 34 -18.5 62t-50.5 51.5t-74.5 44.5t-91.5 41q-69 29 -127.5 63.5t-101 79t-66.5 100.5t-23 128q1 75 34.5 131t89.5 93t131.5 55.5t160.5 18.5q53 0 100.5 -6.5t86.5 -16t66.5 -20 t41.5 -17.5l-36 -171q-13 11 -38.5 22.5t-59 21t-72.5 15.5t-79 6q-105 0 -158 -32.5t-55 -87.5q-1 -39 13.5 -68.5t43.5 -53.5t70.5 -44.5t94.5 -41.5q58 -23 117 -54.5t107 -74t78.5 -99t30.5 -129.5q0 -78 -28.5 -138t-81.5 -100.5t-128 -61.5t-169 -21q-60 0 -117 7.5 t-105.5 19t-86 26t-58.5 29.5z" />
<glyph unicode="t" horiz-adv-x="860" d="M228 969h-147v124q37 11 65 18.5t48.5 17.5t34.5 24.5t23 38.5q14 35 30 88t37 120h138v-260h320v-171h-320v-567q0 -81 4.5 -128t18 -71t38 -30t65.5 -6q22 0 49.5 3.5t54.5 9.5t51 13.5t38 15.5l39 -131q-23 -17 -59.5 -34t-80 -30.5t-90 -21.5t-90.5 -8 q-57 0 -106 12.5t-84.5 45.5t-56 89.5t-20.5 145.5v692z" />
<glyph unicode="u" horiz-adv-x="1261" d="M171 1140h229v-667q0 -103 11.5 -163t36.5 -91t64 -40t94 -9q32 0 68 7.5t70 19.5t63 25.5t47 25.5v892h230v-1156h-96q-26 0 -46 2.5t-33.5 11.5t-21 26t-7.5 47v29q-35 -22 -79.5 -43t-93.5 -37t-99 -26t-96 -10q-110 0 -176.5 35.5t-103.5 100t-49 154.5t-12 200v666z " />
<glyph unicode="v" horiz-adv-x="1123" d="M20 1140h247l221 -639l83 -273l77 273l212 639h243l-437 -1156h-195z" />
<glyph unicode="w" horiz-adv-x="1645" d="M22 1140h228l180 -670l51 -220l48 219l191 671h221l185 -670l50 -222l51 216l174 676h223l-349 -1156h-211l-201 735l-38 183l-40 -183l-198 -735h-217z" />
<glyph unicode="x" horiz-adv-x="1145" d="M450 578l-403 562h260l244 -370l26 -45l23 47l245 368h257l-405 -558l414 -582h-266l-245 373l-33 54l-28 -57l-228 -370h-262z" />
<glyph unicode="y" horiz-adv-x="1127" d="M134 -308q8 -3 21 -5t27 -3.5t27 -2t22 -0.5q31 0 72 12.5t82.5 47t78.5 97t61 162.5h-69l-412 1140h244l248 -761l58 -189l51 189l212 761h246l-383 -1175q-68 -206 -158 -315.5t-199 -140.5q-23 -7 -55.5 -11.5t-58.5 -4.5q-11 0 -29 1t-35.5 3t-32 4.5t-18.5 5.5v185 v0z" />
<glyph unicode="z" horiz-adv-x="1069" d="M629 883l57 84h-543v173h818l35 -95l-544 -794l-60 -84h583v-167h-851l-42 82z" />
<glyph unicode="{" horiz-adv-x="976" d="M327 568q0 22 -25 45t-63 42t-82 32t-82 17v146q38 4 82 15.5t82 29t63 39t25 44.5v508q0 74 9.5 123.5t33 79t62 42t96.5 12.5q82 0 148 -8t131 -16v-126h-264v-615q0 -29 -11.5 -52t-32.5 -43q-32 -32 -86.5 -58t-111.5 -49q59 -23 113.5 -52t88.5 -64 q19 -20 29.5 -42.5t10.5 -47.5v-617h264v-116q-65 -18 -131 -26.5t-148 -8.5q-58 0 -96.5 12.5t-62 42.5t-33 79.5t-9.5 123.5v508z" />
<glyph unicode="|" horiz-adv-x="855" d="M323 1780h209v-1968h-209v1968z" />
<glyph unicode="}" horiz-adv-x="976" d="M648.02 568q0 22 24.999 45q24.998 23 62.9961 42t81.9951 32t81.9951 17v146q-37.998 4 -81.9951 15.5t-81.9951 29t-62.9961 39q-24.999 21.5 -24.999 44.5v508q0 74 -9.49902 123.5t-32.998 79q-23.498 29.5 -61.9961 42t-96.4941 12.5q-81.9951 0 -147.991 -8 t-130.992 -16v-126h263.984v-615q0 -29 11.499 -52t32.498 -43q31.998 -32 86.4951 -58q54.4961 -26 111.493 -49q-58.9971 -23 -113.493 -52q-54.4971 -29 -88.4951 -64q-18.998 -20 -29.498 -42.5q-10.499 -22.5 -10.499 -47.5v-617h-263.984v-116 q64.9961 -18 130.992 -26.5t147.991 -8.5q57.9961 0 96.4941 12.5t61.9961 42.5q23.499 30 32.998 79.5t9.49902 123.5v508z" />
<glyph unicode="~" horiz-adv-x="1438" d="M214 761q12 31 39.5 68.5t68.5 70t94 54t116 21.5q48 0 86 -12.5t69 -31t58 -40t53.5 -40t55 -31t63.5 -12.5q71 0 118.5 32.5t83.5 80.5l104 -103q-14 -38 -41.5 -75t-67.5 -65.5t-92.5 -46t-116.5 -17.5q-48 0 -85.5 12.5t-67.5 31t-56 40.5t-52 40.5t-55 31t-65 12.5 q-35 0 -63 -9t-51 -24t-42 -35.5t-37 -44.5z" />
<glyph horiz-adv-x="0" />
<glyph unicode="&#xa2;" horiz-adv-x="1184" d="M155 558q0 115 28.5 216t86 179.5t144 130t201.5 66.5l6 227h151l-5 -223q85 -6 142.5 -24t80.5 -33l-35 -180q-45 31 -106 46.5t-149 15.5q-58 0 -114 -21t-101 -67t-74 -119t-33 -176q-3 -108 20.5 -190t66.5 -137.5t102.5 -83.5t127.5 -28q42 0 82.5 6t75.5 15.5 t64 21t48 22.5l45 -129q-43 -41 -116 -68.5t-160 -36.5l-3 -204h-152l4 205q-104 13 -184 61.5t-134 124t-82 173t-28 210.5z" />
<glyph unicode="&#xa3;" horiz-adv-x="1538" d="M144 82q0 36 16 67t49 55t82 39t115 18q19 41 23.5 97.5t4.5 113.5v280h-181v155h181v137q0 111 32.5 202.5t94 156t151 100t202.5 35.5q63 0 114.5 -8.5t92.5 -22.5t71.5 -31.5t53.5 -36.5l-107 -166q-21 18 -45 34.5t-53.5 29t-66 20t-82.5 7.5q-42 0 -83.5 -13.5 t-74 -51.5t-52.5 -106.5t-20 -179.5v-106h350v-155h-349l1 -36q1 -98 -0.5 -177.5t-9.5 -141t-23.5 -106t-43.5 -74.5q46 -8 82.5 -20.5t75 -24.5t84.5 -21t111 -9q72 0 119.5 15.5t75.5 42t39.5 61.5t11.5 74q0 28 -7.5 53.5t-19 45.5t-24.5 33.5t-25 17.5l163 82 q18 -10 40.5 -32.5t42.5 -54.5t33.5 -73t13.5 -88q0 -173 -111 -256t-322 -83q-70 0 -129 9t-108 22t-89.5 28.5t-74.5 27.5t-62 19.5t-51 5.5q-15 -17 -37 -33.5t-48.5 -30t-56 -22t-59.5 -8.5q-18 0 -37.5 6t-36 16.5t-27 26t-10.5 35.5z" />
<glyph unicode="&#xa4;" horiz-adv-x="1530" d="M405 515q-39 54 -60.5 119.5t-21.5 138.5q0 72 21.5 137.5t59.5 119.5l-204 204l128 131l209 -212q51 30 108.5 46.5t120.5 16.5t120.5 -16.5t107.5 -46.5l216 214l128 -129l-209 -209q38 -54 59.5 -119t21.5 -137t-21.5 -137t-59.5 -119l204 -205l-128 -129l-210 210 q-51 -30 -108.5 -46.5t-120.5 -16.5t-120 16t-107 45l-210 -211l-129 129zM767 500q54 0 101.5 21.5t83 59t55.5 87t20 105.5t-20 105.5t-55.5 86.5t-83 58.5t-101.5 21.5t-102 -21.5t-83.5 -58.5t-56 -86.5t-20.5 -105.5t20.5 -106t56 -87t83.5 -58.5t102 -21.5z" />
<glyph unicode="&#xa5;" horiz-adv-x="1534" d="M272 437h384v228h-384v147h334l-445 710h249l297 -515l66 -137l62 143l304 509h244l-455 -710h315v-147h-359v-228h359v-147h-359v-290h-228v290h-384v147z" />
<glyph unicode="&#xa6;" horiz-adv-x="855" d="M323 1780h209v-829h-209v829zM323 639h209v-825h-209v825z" />
<glyph unicode="&#xa7;" horiz-adv-x="1360" d="M269 73q20 -15 56 -32t84 -31t108 -23.5t128 -9.5q55 0 106 8.5t90 27t62.5 48t23.5 72.5q0 47 -30.5 82.5t-81 65t-114.5 55.5t-131.5 54.5t-131.5 62t-114.5 77.5t-81 101.5t-30.5 133.5q0 91 39 169.5t103 140.5q-57 48 -92.5 109.5t-35.5 147.5q0 66 20 117t54 89 t80 64t98 41.5t106.5 22.5t107.5 7q70 0 128 -6.5t104 -17t79.5 -23.5t55.5 -26l-43 -173q-17 12 -45 25.5t-68 24.5t-93 18.5t-120 7.5q-50 0 -96 -8.5t-81.5 -26.5t-57 -46t-21.5 -68q0 -52 30.5 -92.5t81 -74.5t114.5 -65t131.5 -63.5t131.5 -70t114.5 -85t81 -107.5 t30.5 -139q0 -82 -32 -155t-84 -133q46 -41 73.5 -93.5t27.5 -123.5q0 -66 -21 -117.5t-57 -90t-84 -64.5t-103 -42.5t-113 -23.5t-113 -7q-70 0 -135.5 8.5t-120 22t-96.5 30t-65 32.5zM419 805q0 -49 21.5 -87.5t57.5 -68.5t84.5 -54.5t102 -47.5t110 -45.5t108.5 -48.5 q17 41 29.5 85t12.5 80q0 50 -20.5 90t-55.5 72.5t-81 60t-98.5 52.5t-107.5 50t-107 53q-22 -44 -39 -95.5t-17 -95.5z" />
<glyph unicode="&#xa8;" horiz-adv-x="873" d="M657 1358q-28 0 -52.5 9.5t-43 27t-29 42t-10.5 55.5t13.5 59t36 48.5t50.5 32.5t58 12q34 0 59.5 -10.5t42 -28.5t24.5 -42.5t8 -52.5q0 -33 -13 -61t-35 -48.5t-50 -31.5t-59 -11zM194 1358q-28 0 -52.5 9.5t-42.5 27t-28.5 42t-10.5 55.5t13.5 59t36 48.5t51 32.5 t57.5 12q34 0 59.5 -10.5t42 -28.5t24.5 -42.5t8 -52.5q0 -33 -13 -61t-35 -48.5t-50.5 -31.5t-59.5 -11z" />
<glyph unicode="&#xa9;" horiz-adv-x="2127" d="M1063 242q-121 0 -233 31.5t-208.5 88.5t-175.5 137.5t-135.5 178.5t-87 210.5t-30.5 234.5q0 121 30.5 233.5t87 210t135.5 177.5t175.5 137t208 88t233.5 31q121 0 233 -31t209 -88t176 -137t135 -177.5t87 -210t31 -233.5q0 -122 -31 -234.5t-87 -210.5t-135 -178.5 t-176 -137.5t-209 -88.5t-233 -31.5zM1063 371q105 0 199.5 27t175.5 76t146 117.5t111 152.5t71 179.5t25 199.5q0 103 -25 199t-71 179.5t-111 152t-146 117.5t-175.5 76t-199.5 27t-199.5 -27t-175.5 -76t-146 -117.5t-111 -152t-71 -179.5t-25 -199q0 -104 25 -199.5 t71 -179.5t111 -152.5t146 -117.5t175.5 -76t199.5 -27zM1061 638q-104 0 -186 40t-138.5 106t-86.5 152.5t-30 179.5q0 105 32 195.5t95 157t155.5 104.5t213.5 38q48 0 86 -6t67.5 -15t50.5 -19t35 -17l-32 -165q-42 26 -96 44t-129 18q-68 0 -120.5 -25t-88 -68t-54 -101 t-18.5 -125q0 -81 20 -143.5t56 -104.5t85.5 -63.5t109.5 -21.5q40 0 76.5 5.5t68 14.5t57.5 19.5t44 21.5l45 -127q-24 -20 -58 -37.5t-75.5 -30.5t-88 -20t-96.5 -7z" />
<glyph unicode="&#xaa;" horiz-adv-x="1036" d="M430 676q-68 0 -124 16.5t-96 48t-62.5 78.5t-22.5 107q0 51 13 91t37 70.5t57.5 52.5t73.5 38q43 16 91 27t96 17.5t95 9t89 2.5v63q0 50 -12.5 79t-36.5 44t-59.5 19t-82.5 4q-33 0 -75 -8.5t-82 -20.5t-73 -26t-49 -25l-56 124q14 13 53 32.5t92 37.5t114.5 31 t119.5 13q82 0 147 -15t110.5 -49.5t69.5 -91.5t24 -142v-617h-77q-27 0 -48.5 0.5t-36.5 6.5t-23 21t-8 44v14q-17 -17 -43 -34.5t-59.5 -31t-73 -22t-82.5 -8.5zM471 826q36 0 70 7t61.5 17t46.5 21t27 18l1 -2v223q-36 0 -71.5 -0.5t-69.5 -3.5t-65.5 -10t-58.5 -20 q-45 -22 -66 -52t-21 -83q0 -29 11.5 -51t31 -36t46.5 -21t57 -7z" />
<glyph unicode="&#xab;" horiz-adv-x="1942" d="M243 706l645 430l58 -169l-479 -352l479 -349l-58 -165l-645 415v190zM979 706l645 430l58 -169l-479 -352l479 -349l-58 -165l-645 415v190z" />
<glyph unicode="&#xac;" horiz-adv-x="1470" d="M240 852h990v-531h-204v362h-786v169z" />
<glyph unicode="&#xad;" horiz-adv-x="1350" d="M250 863h850v-183h-850v183z" />
<glyph unicode="&#xae;" horiz-adv-x="2127" d="M1063 242q-121 0 -233 31.5t-208.5 88.5t-175.5 137.5t-135.5 178.5t-87 210.5t-30.5 234.5q0 121 30.5 233.5t87 210t135.5 177.5t175.5 137t208 88t233.5 31q121 0 233 -31t209 -88t176 -137t135 -177.5t87 -210t31 -233.5q0 -122 -31 -234.5t-87 -210.5t-135 -178.5 t-176 -137.5t-209 -88.5t-233 -31.5zM1063 371q105 0 199.5 27t175.5 76t146 117.5t111 152.5t71 179.5t25 199.5q0 103 -25 199t-71 179.5t-111 152t-146 117.5t-175.5 76t-199.5 27t-199.5 -27t-175.5 -76t-146 -117.5t-111 -152t-71 -179.5t-25 -199q0 -104 25 -199.5 t71 -179.5t111 -152.5t146 -117.5t175.5 -76t199.5 -27zM736 1602h78q54 0 121 3.5t138 3.5q95 0 163 -22t112 -59.5t64.5 -87t20.5 -105.5q0 -55 -10 -103t-33 -87t-60 -67t-91 -44q27 -20 48 -47.5t39 -59t34.5 -65t33.5 -65.5q8 -15 16.5 -28.5t20 -31t27 -41t37.5 -56.5 l-206 1q-25 31 -42 63.5t-36 72.5q-16 34 -32 71t-36.5 69.5t-45.5 57.5t-59 34q-19 -1 -52.5 -1h-69.5v-368h-180v962zM916 1141q11 -1 28 -2t35 -1.5t35.5 -0.5h30.5q100 0 151 39t51 135q0 38 -9.5 69t-34.5 53t-68.5 33t-110.5 9q-32 -1 -56 -2.5t-52 -8.5v-323z" />
<glyph unicode="&#xaf;" horiz-adv-x="652" d="M50 1591h552v-168h-552v168z" />
<glyph unicode="&#xb0;" horiz-adv-x="916" d="M458 937q-71 0 -133.5 25.5t-109 71.5t-73.5 108t-27 136t26.5 136.5t73 108t109 71t134.5 25.5t134 -25.5t108.5 -71.5t73 -108.5t26.5 -135.5q0 -74 -26.5 -136.5t-72.5 -108t-108.5 -71t-134.5 -25.5zM458 1085q38 0 71.5 14.5t58.5 40t39.5 61t14.5 77.5t-14.5 77 t-39.5 60.5t-58.5 40t-71.5 14.5t-71.5 -14t-58 -39.5t-39 -61t-14.5 -77.5t14.5 -77.5t39 -61t58 -40t71.5 -14.5z" />
<glyph unicode="&#xb1;" horiz-adv-x="1393" d="M249 170h894v-170h-894v170zM604 516l7 173l-165 -7h-220v183h220l165 -11l-7 175v225h184v-225l-8 -175l142 11h245v-183h-245l-142 7l8 -173v-233h-184v233z" />
<glyph unicode="&#xb2;" d="M100 816q25 15 63.5 43.5t85 66t98 83t101.5 95.5t95.5 103t79.5 105t54.5 102t20.5 95q0 57 -15.5 93.5t-43 56.5t-67 27.5t-87.5 7.5q-45 0 -89.5 -13t-83.5 -32.5t-70 -42.5t-48 -42l-79 84q18 25 51.5 58.5t84 63.5t116.5 51t148 21q104 0 176.5 -27.5t118.5 -73.5 t66.5 -104.5t20.5 -120.5q0 -61 -24.5 -123.5t-67 -124.5t-98.5 -121.5t-119 -114.5t-129.5 -103.5t-128.5 -88.5l605 54l2 -177h-797z" />
<glyph unicode="&#xb3;" d="M150 878q57 -20 107 -29.5t112 -9.5q180 0 266 58t86 163q0 89 -64.5 135.5t-189.5 41.5l-118 -46l-31 128q24 6 63.5 19.5t81.5 34.5q37 15 70 37t58 48.5t39.5 56t14.5 59.5q0 68 -46.5 95t-131.5 27q-39 0 -78.5 -7.5t-76 -20.5t-68.5 -30.5t-57 -38.5l-61 107 q26 25 66 49.5t90 43.5t107 31t117 12q82 0 145 -17t106 -48t65 -74t22 -95q0 -36 -10.5 -78.5t-39 -84.5t-79 -81t-131.5 -67q100 8 165.5 -12t103.5 -56t53 -81.5t15 -88.5q0 -66 -34.5 -129.5t-100.5 -113.5t-161 -80.5t-216 -30.5q-62 0 -125.5 8t-135.5 39z" />
<glyph unicode="&#xb4;" horiz-adv-x="600" d="M48 1385q42 46 86.5 95t88 100t85.5 102.5t78 103.5l162 -138q-13 -22 -41 -55t-64.5 -70t-77.5 -75t-80 -70.5t-71 -56t-51 -30.5z" />
<glyph unicode="&#xb5;" horiz-adv-x="1362" d="M419 -371h-213v1511h228v-737q0 -68 15 -114t45 -74t75 -40.5t106 -12.5q30 0 60 8t57.5 20.5t52.5 28t44 29.5v892h230v-901q0 -23 2.5 -38t7 -23.5t11 -11.5t14.5 -3q10 0 30 5t48 22l31 -103q-5 -8 -24 -25.5t-48 -35t-66 -31t-79 -13.5q-28 0 -51.5 7t-40.5 23.5 t-26 43t-7 64.5q-18 -20 -41 -44t-55 -44.5t-74 -34t-96 -13.5q-94 0 -159 21.5t-109 79.5z" />
<glyph unicode="&#xb6;" horiz-adv-x="1326" d="M515 777q-105 0 -185.5 27t-136 84t-84 146t-28.5 214q0 105 36.5 190t109 146t180 94t250.5 33q25 0 61.5 -1.5t79.5 -3t89.5 -4t91 -5t84.5 -4t71 -2.5v-1691h-190v1544h-239v-1544h-190v777z" />
<glyph unicode="&#xb7;" horiz-adv-x="606" d="M146 715q-1 36 12.5 68.5t36.5 56.5t53 38t62 14q36 0 64 -12.5t47 -33.5t29 -49t11 -59q1 -38 -12 -70.5t-36.5 -56.5t-54 -37.5t-63.5 -13.5q-30 0 -56.5 11.5t-47 32.5t-32.5 49.5t-13 61.5z" />
<glyph unicode="&#xb8;" horiz-adv-x="487" d="M336 34l43 -4q18 -18 30 -45t19.5 -61t9.5 -72.5t-1 -79.5q-5 -63 -27 -108t-55 -73.5t-74.5 -41.5t-85.5 -13q-20 0 -42.5 2t-43.5 6t-37.5 9t-25.5 11l16 145q13 -8 35.5 -11t45.5 -3q49 0 85 34.5t41 115.5q10 71 1.5 113.5t-22.5 71.5z" />
<glyph unicode="&#xb9;" d="M140 844h318v792q-30 -11 -70 -22t-83.5 -20.5t-86.5 -17.5t-78 -12l-24 112q55 12 115.5 28.5t119 38t112.5 48.5t97 60h3l88 -16v-992l259 1v-127h-770v127z" />
<glyph unicode="&#xba;" horiz-adv-x="1035" d="M512 676q-97 0 -172.5 34t-127.5 96t-78.5 150t-25.5 196q2 123 41.5 208.5t100.5 139t136 77.5t148 24q96 0 170 -34.5t123.5 -96.5t74.5 -148t24 -190q-2 -123 -38.5 -210t-94.5 -141.5t-131.5 -79.5t-149.5 -25zM523 829q46 1 81.5 18t59.5 53t36 92.5t12 137.5 q0 74 -12 133.5t-36 101t-59.5 63.5t-81.5 21q-44 -1 -80.5 -17t-63.5 -51.5t-42 -91.5t-15 -137q0 -74 13.5 -134t39.5 -102.5t63.5 -65t84.5 -21.5z" />
<glyph unicode="&#xbb;" horiz-adv-x="1942" d="M961.015 706l-644.96 430l-57.9971 -169l478.971 -352l-478.971 -349l57.9971 -165l644.96 415v190zM1697.01 706l-644.96 430l-57.9971 -169l478.971 -352l-478.971 -349l57.9971 -165l644.96 415v190z" />
<glyph unicode="&#xbc;" horiz-adv-x="2419" d="M140 670h318v792q-30 -11 -70 -22t-83.5 -20.5t-86.5 -17.5t-78 -12l-24 112q55 12 115.5 28.5t119 38t112.5 48.5t97 60h3l88 -16v-992l259 1v-127h-770v127zM731 -119l760 1805l139 -35l-759 -1800zM1439 284l398 863h158l43 -53l-361 -717l-53 -81l359 24l30 301h153 v-288l200 14v-149h-200v-199h-184v199h-495z" />
<glyph unicode="&#xbd;" horiz-adv-x="2419" d="M140 670h318v792q-30 -11 -70 -22t-83.5 -20.5t-86.5 -17.5t-78 -12l-24 112q55 12 115.5 28.5t119 38t112.5 48.5t97 60h3l88 -16v-992l259 1v-127h-770v127zM731 -119l760 1805l139 -35l-759 -1800zM1497 98q25 15 63.5 43.5t85 66t98 83t101.5 95.5t95.5 103t79.5 105 t54.5 102t20.5 95q0 57 -15.5 93.5t-43 56.5t-67 27.5t-87.5 7.5q-45 0 -89.5 -13t-83.5 -32.5t-70 -42.5t-48 -42l-79 84q18 25 51.5 58.5t84 63.5t116.5 51t148 21q104 0 176.5 -27.5t118.5 -73.5t66.5 -104.5t20.5 -120.5q0 -61 -24.5 -123.5t-67 -124.5t-98.5 -121.5 t-119 -114.5t-129.5 -103.5t-128.5 -88.5l605 54l2 -177h-797z" />
<glyph unicode="&#xbe;" horiz-adv-x="2419" d="M150 704q57 -20 107 -29.5t112 -9.5q180 0 266 58t86 163q0 89 -64.5 135.5t-189.5 41.5l-118 -46l-31 128q24 6 63.5 19.5t81.5 34.5q37 15 70 37t58 48.5t39.5 56t14.5 59.5q0 68 -46.5 95t-131.5 27q-39 0 -78.5 -7.5t-76 -20.5t-68.5 -30.5t-57 -38.5l-61 107 q26 25 66 49.5t90 43.5t107 31t117 12q82 0 145 -17t106 -48t65 -74t22 -95q0 -36 -10.5 -78.5t-39 -84.5t-79 -81t-131.5 -67q100 8 165.5 -12t103.5 -56t53 -81.5t15 -88.5q0 -66 -34.5 -129.5t-100.5 -113.5t-161 -80.5t-216 -30.5q-62 0 -125.5 8t-135.5 39zM731 -119 l760 1805l139 -35l-759 -1800zM1439 284l398 863h158l43 -53l-361 -717l-53 -81l359 24l30 301h153v-288l200 14v-149h-200v-199h-184v199h-495z" />
<glyph unicode="&#xc0;" horiz-adv-x="1417" d="M600 1537h231l564 -1537h-251l-126 379h-618l-132 -379h-246zM960 551l-200 601l-44 147l-45 -147l-211 -601h500zM740 1571q-24 8 -57 25.5t-70.5 41t-76.5 51t-75 55.5t-66 55t-49 49l153 133q2 -4 27 -28.5t62 -59t79.5 -74t79.5 -73t62.5 -56.5t27.5 -25l-97 -94v0z " />
<glyph unicode="&#xc1;" horiz-adv-x="1417" d="M600 1537h231l564 -1537h-251l-126 379h-618l-132 -379h-246zM960 551l-200 601l-44 147l-45 -147l-211 -601h500zM578 1665q2 2 27.5 25t62.5 56.5t79.5 73t79.5 74t61.5 59t26.5 28.5l154 -133q-35 -36 -85 -78.5t-104 -81.5t-108 -70.5t-96 -46.5z" />
<glyph unicode="&#xc2;" horiz-adv-x="1417" d="M600 1537h231l564 -1537h-251l-126 379h-618l-132 -379h-246zM960 551l-200 601l-44 147l-45 -147l-211 -601h500zM346 1688l260 301h199l264 -298l-146 -64l-217 202l-221 -202z" />
<glyph unicode="&#xc3;" horiz-adv-x="1417" d="M600 1537h231l564 -1537h-251l-126 379h-618l-132 -379h-246zM960 551l-200 601l-44 147l-45 -147l-211 -601h500zM289 1769q17 43 48 79t69.5 62t81.5 41t84 15q40 0 70.5 -10.5t54.5 -25.5t43.5 -33.5t38.5 -33.5t39.5 -25.5t46.5 -10.5q27 0 52 9.5t47.5 24t41.5 32 t34 33.5l87 -75q-17 -42 -48 -78t-69 -62.5t-81 -41t-84 -14.5q-40 0 -70 10.5t-54 26.5t-43.5 35t-39 35t-40.5 26.5t-47 10.5q-27 0 -52 -9.5t-47 -24.5t-41.5 -33t-34.5 -35z" />
<glyph unicode="&#xc4;" horiz-adv-x="1417" d="M600 1537h231l564 -1537h-251l-126 379h-618l-132 -379h-246zM960 551l-200 601l-44 147l-45 -147l-211 -601h500zM945 1662q-29 0 -54 9.5t-44.5 27t-30.5 42.5t-11 57q0 33 14 62t36.5 50.5t52 33.5t59.5 12q36 0 62.5 -10.5t44 -29t26 -44t8.5 -54.5 q0 -35 -13.5 -63.5t-36 -49t-52 -32t-61.5 -11.5zM446 1662q-29 0 -54 9.5t-44.5 27t-30.5 42.5t-11 57q0 33 14 62t36.5 50.5t51.5 33.5t60 12q36 0 62.5 -10.5t44 -29t26 -44t8.5 -54.5q0 -35 -13.5 -63.5t-36 -49t-52 -32t-61.5 -11.5z" />
<glyph unicode="&#xc6;" horiz-adv-x="1872" d="M650 1522h1072v-179h-648v-470h476v-179h-476v-512h721v-182h-954v379h-479l-178 -379h-256zM841 551v825h-9l-389 -825h398z" />
<glyph unicode="&#xc8;" horiz-adv-x="1226" d="M716 1571q-24 8 -57 25.5t-70.5 41t-76.5 51t-75 55.5t-66 55t-49 49l153 133q2 -4 27 -28.5t62 -59t79.5 -74t79.5 -73t62.5 -56.5t27.5 -25l-97 -94v0zM195 1522h882v-179h-649v-470h477v-179h-477v-512h721v-182h-954v1522z" />
<glyph unicode="&#xc9;" horiz-adv-x="1226" d="M555 1665q2 2 27.5 25t62.5 56.5t79.5 73t79.5 74t61.5 59t26.5 28.5l154 -133q-35 -36 -85 -78.5t-104 -81.5t-108 -70.5t-96 -46.5zM195 1522h882v-179h-649v-470h477v-179h-477v-512h721v-182h-954v1522z" />
<glyph unicode="&#xca;" horiz-adv-x="1226" d="M195 1522h882v-179h-649v-470h477v-179h-477v-512h721v-182h-954v1522zM323 1688l260 301h199l264 -298l-146 -64l-217 202l-221 -202z" />
<glyph unicode="&#xcb;" horiz-adv-x="1226" d="M922 1662q-29 0 -54 9.5t-44.5 27t-30.5 42.5t-11 57q0 33 14 62t36.5 50.5t52 33.5t59.5 12q36 0 62.5 -10.5t44 -29t26 -44t8.5 -54.5q0 -35 -13.5 -63.5t-36 -49t-52 -32t-61.5 -11.5zM423 1662q-29 0 -54 9.5t-44.5 27t-30.5 42.5t-11 57q0 33 14 62t36.5 50.5 t51.5 33.5t60 12q36 0 62.5 -10.5t44 -29t26 -44t8.5 -54.5q0 -35 -13.5 -63.5t-36 -49t-52 -32t-61.5 -11.5zM195 1522h882v-179h-649v-470h477v-179h-477v-512h721v-182h-954v1522z" />
<glyph unicode="&#xcc;" horiz-adv-x="652" d="M208 1522h236v-1522h-236v1522zM361 1571q-24 8 -57 25.5t-70.5 41t-76.5 51t-75 55.5t-66 55t-49 49l153 133q2 -4 27 -28.5t62 -59t79.5 -74t79.5 -73t62.5 -56.5t27.5 -25l-97 -94v0z" />
<glyph unicode="&#xcd;" horiz-adv-x="652" d="M208 1522h236v-1522h-236v1522zM198 1665q2 2 27.5 25t62.5 56.5t79.5 73t79.5 74t61.5 59t26.5 28.5l154 -133q-35 -36 -85 -78.5t-104 -81.5t-108 -70.5t-96 -46.5z" />
<glyph unicode="&#xce;" horiz-adv-x="652" d="M208 1522h236v-1522h-236v1522zM-33 1688l260 301h199l264 -298l-146 -64l-217 202l-221 -202z" />
<glyph unicode="&#xcf;" horiz-adv-x="652" d="M208 1522h236v-1522h-236v1522zM566 1662q-29 0 -54 9.5t-44.5 27t-30.5 42.5t-11 57q0 33 14 62t36.5 50.5t52 33.5t59.5 12q36 0 62.5 -10.5t44 -29t26 -44t8.5 -54.5q0 -35 -13.5 -63.5t-36 -49t-52 -32t-61.5 -11.5zM67 1662q-29 0 -54 9.5t-44.5 27t-30.5 42.5 t-11 57q0 33 14 62t36.5 50.5t51.5 33.5t60 12q36 0 62.5 -10.5t44 -29t26 -44t8.5 -54.5q0 -35 -13.5 -63.5t-36 -49t-52 -32t-61.5 -11.5z" />
<glyph unicode="&#xd0;" horiz-adv-x="1482" d="M195 717h-127v155h127v650h113q36 0 79.5 2.5t91 5.5t97 5.5t97.5 2.5q184 0 320 -49.5t225.5 -144t133.5 -230.5t44 -310q0 -195 -52 -348.5t-148.5 -259.5t-235 -160.5t-311.5 -51.5q-39 1 -85.5 3.5t-95.5 5.5t-97 5t-90 2h-86v717zM429 174q24 -5 55 -8.5t64.5 -6 t68 -3t66.5 -0.5q103 2 189.5 37.5t149 110t97.5 190t35 277.5q0 167 -33.5 281.5t-100.5 185t-166 101.5t-231 31q-60 0 -110.5 -4t-83.5 -11v-483h388v-155h-388v-543z" />
<glyph unicode="&#xd1;" horiz-adv-x="1565" d="M378 1769q17 43 48 79t69.5 62t81.5 41t84 15q40 0 70.5 -10.5t54.5 -25.5t43.5 -33.5t38.5 -33.5t39.5 -25.5t46.5 -10.5q27 0 52 9.5t47.5 24t41.5 32t34 33.5l87 -75q-17 -42 -48 -78t-69 -62.5t-81 -41t-84 -14.5q-40 0 -70 10.5t-54 26.5t-43.5 35t-39 35 t-40.5 26.5t-47 10.5q-27 0 -52 -9.5t-47 -24.5t-41.5 -33t-34.5 -35zM194 1522h214l643 -995l122 -226l-15 261v960h213v-1522h-218l-621 958l-139 248l15 -271v-935h-214v1522z" />
<glyph unicode="&#xd2;" horiz-adv-x="1577" d="M845 1571q-24 8 -57 25.5t-70.5 41t-76.5 51t-75 55.5t-66 55t-49 49l153 133q2 -4 27 -28.5t62 -59t79.5 -74t79.5 -73t62.5 -56.5t27.5 -25l-97 -94v0zM102 772q4 191 60.5 334.5t152.5 239.5t223.5 144t273.5 48q152 0 276 -55t211 -156t132.5 -245t42.5 -321 q-4 -191 -57.5 -335t-145.5 -241.5t-217 -147.5t-272 -53q-159 -3 -286 54.5t-216 162.5t-135 251t-43 320zM789 162q102 0 185 39t141.5 116t90.5 191t32 264q0 119 -27.5 226t-82 187.5t-135.5 128t-188 47.5q-95 0 -179.5 -36t-148.5 -110.5t-101.5 -188t-37.5 -268.5 q0 -118 28.5 -225.5t85 -190t141 -131.5t196.5 -49z" />
<glyph unicode="&#xd3;" horiz-adv-x="1577" d="M683 1665q2 2 27.5 25t62.5 56.5t79.5 73t79.5 74t61.5 59t26.5 28.5l154 -133q-35 -36 -85 -78.5t-104 -81.5t-108 -70.5t-96 -46.5zM102 772q4 191 60.5 334.5t152.5 239.5t223.5 144t273.5 48q152 0 276 -55t211 -156t132.5 -245t42.5 -321q-4 -191 -57.5 -335 t-145.5 -241.5t-217 -147.5t-272 -53q-159 -3 -286 54.5t-216 162.5t-135 251t-43 320zM789 162q102 0 185 39t141.5 116t90.5 191t32 264q0 119 -27.5 226t-82 187.5t-135.5 128t-188 47.5q-95 0 -179.5 -36t-148.5 -110.5t-101.5 -188t-37.5 -268.5q0 -118 28.5 -225.5 t85 -190t141 -131.5t196.5 -49z" />
<glyph unicode="&#xd4;" horiz-adv-x="1577" d="M102 772q4 191 60.5 334.5t152.5 239.5t223.5 144t273.5 48q152 0 276 -55t211 -156t132.5 -245t42.5 -321q-4 -191 -57.5 -335t-145.5 -241.5t-217 -147.5t-272 -53q-159 -3 -286 54.5t-216 162.5t-135 251t-43 320zM789 162q102 0 185 39t141.5 116t90.5 191t32 264 q0 119 -27.5 226t-82 187.5t-135.5 128t-188 47.5q-95 0 -179.5 -36t-148.5 -110.5t-101.5 -188t-37.5 -268.5q0 -118 28.5 -225.5t85 -190t141 -131.5t196.5 -49zM451 1688l260 301h199l264 -298l-146 -64l-217 202l-221 -202z" />
<glyph unicode="&#xd5;" horiz-adv-x="1577" d="M394 1769q17 43 48 79t69.5 62t81.5 41t84 15q40 0 70.5 -10.5t54.5 -25.5t43.5 -33.5t38.5 -33.5t39.5 -25.5t46.5 -10.5q27 0 52 9.5t47.5 24t41.5 32t34 33.5l87 -75q-17 -42 -48 -78t-69 -62.5t-81 -41t-84 -14.5q-40 0 -70 10.5t-54 26.5t-43.5 35t-39 35 t-40.5 26.5t-47 10.5q-27 0 -52 -9.5t-47 -24.5t-41.5 -33t-34.5 -35zM102 772q4 191 60.5 334.5t152.5 239.5t223.5 144t273.5 48q152 0 276 -55t211 -156t132.5 -245t42.5 -321q-4 -191 -57.5 -335t-145.5 -241.5t-217 -147.5t-272 -53q-159 -3 -286 54.5t-216 162.5 t-135 251t-43 320zM789 162q102 0 185 39t141.5 116t90.5 191t32 264q0 119 -27.5 226t-82 187.5t-135.5 128t-188 47.5q-95 0 -179.5 -36t-148.5 -110.5t-101.5 -188t-37.5 -268.5q0 -118 28.5 -225.5t85 -190t141 -131.5t196.5 -49z" />
<glyph unicode="&#xd6;" horiz-adv-x="1577" d="M1050 1662q-29 0 -54 9.5t-44.5 27t-30.5 42.5t-11 57q0 33 14 62t36.5 50.5t52 33.5t59.5 12q36 0 62.5 -10.5t44 -29t26 -44t8.5 -54.5q0 -35 -13.5 -63.5t-36 -49t-52 -32t-61.5 -11.5zM551 1662q-29 0 -54 9.5t-44.5 27t-30.5 42.5t-11 57q0 33 14 62t36.5 50.5 t51.5 33.5t60 12q36 0 62.5 -10.5t44 -29t26 -44t8.5 -54.5q0 -35 -13.5 -63.5t-36 -49t-52 -32t-61.5 -11.5zM102 772q4 191 60.5 334.5t152.5 239.5t223.5 144t273.5 48q152 0 276 -55t211 -156t132.5 -245t42.5 -321q-4 -191 -57.5 -335t-145.5 -241.5t-217 -147.5 t-272 -53q-159 -3 -286 54.5t-216 162.5t-135 251t-43 320zM789 162q102 0 185 39t141.5 116t90.5 191t32 264q0 119 -27.5 226t-82 187.5t-135.5 128t-188 47.5q-95 0 -179.5 -36t-148.5 -110.5t-101.5 -188t-37.5 -268.5q0 -118 28.5 -225.5t85 -190t141 -131.5t196.5 -49 z" />
<glyph unicode="&#xd7;" horiz-adv-x="1373" d="M229 436l341 338l-341 348l134 131l324 -357l325 357l133 -131l-341 -345l341 -341l-133 -131l-325 346l-324 -346z" />
<glyph unicode="&#xd8;" horiz-adv-x="1577" d="M462 54q-87 45 -155 116.5t-114.5 163.5t-70 202.5t-20.5 235.5q4 191 60.5 334.5t152.5 239.5t223.5 144t273.5 48q93 0 176 -21l82 226l126 -36l-85 -235q87 -43 155 -111t115 -158.5t71 -201.5t22 -240q-4 -191 -57.5 -335t-145.5 -241.5t-217 -147.5t-272 -53 q-104 -1 -199 23l-75 -209l-125 35zM926 1343q-56 18 -121 18q-95 0 -179.5 -36t-148.5 -110.5t-101.5 -188t-37.5 -268.5q0 -77 12.5 -150.5t37 -139t61 -121t84.5 -95.5zM648 186q63 -24 141 -24q102 0 185 39t141.5 116t90.5 191t32 264q0 79 -12.5 154t-37 141t-61 120 t-85.5 93z" />
<glyph unicode="&#xd9;" horiz-adv-x="1473" d="M782 1571q-24 8 -57 25.5t-70.5 41t-76.5 51t-75 55.5t-66 55t-49 49l153 133q2 -4 27 -28.5t62 -59t79.5 -74t79.5 -73t62.5 -56.5t27.5 -25l-97 -94v0zM161 1522h233l-2 -835q0 -155 24 -256t70 -160t113 -82t153 -23q76 0 137.5 23.5t104 82.5t65.5 159.5t23 255.5 v835h232v-892q0 -155 -34.5 -275.5t-104.5 -203t-177 -125t-251 -42.5q-158 0 -269.5 43.5t-182 126.5t-103 203.5t-32.5 274.5z" />
<glyph unicode="&#xda;" horiz-adv-x="1473" d="M620 1665q2 2 27.5 25t62.5 56.5t79.5 73t79.5 74t61.5 59t26.5 28.5l154 -133q-35 -36 -85 -78.5t-104 -81.5t-108 -70.5t-96 -46.5zM161 1522h233l-2 -835q0 -155 24 -256t70 -160t113 -82t153 -23q76 0 137.5 23.5t104 82.5t65.5 159.5t23 255.5v835h232v-892 q0 -155 -34.5 -275.5t-104.5 -203t-177 -125t-251 -42.5q-158 0 -269.5 43.5t-182 126.5t-103 203.5t-32.5 274.5z" />
<glyph unicode="&#xdb;" horiz-adv-x="1473" d="M161 1522h233l-2 -835q0 -155 24 -256t70 -160t113 -82t153 -23q76 0 137.5 23.5t104 82.5t65.5 159.5t23 255.5v835h232v-892q0 -155 -34.5 -275.5t-104.5 -203t-177 -125t-251 -42.5q-158 0 -269.5 43.5t-182 126.5t-103 203.5t-32.5 274.5zM389 1688l260 301h199 l264 -298l-146 -64l-217 202l-221 -202z" />
<glyph unicode="&#xdc;" horiz-adv-x="1473" d="M987 1662q-29 0 -54 9.5t-44.5 27t-30.5 42.5t-11 57q0 33 14 62t36.5 50.5t52 33.5t59.5 12q36 0 62.5 -10.5t44 -29t26 -44t8.5 -54.5q0 -35 -13.5 -63.5t-36 -49t-52 -32t-61.5 -11.5zM488 1662q-29 0 -54 9.5t-44.5 27t-30.5 42.5t-11 57q0 33 14 62t36.5 50.5 t51.5 33.5t60 12q36 0 62.5 -10.5t44 -29t26 -44t8.5 -54.5q0 -35 -13.5 -63.5t-36 -49t-52 -32t-61.5 -11.5zM161 1522h233l-2 -835q0 -155 24 -256t70 -160t113 -82t153 -23q76 0 137.5 23.5t104 82.5t65.5 159.5t23 255.5v835h232v-892q0 -155 -34.5 -275.5t-104.5 -203 t-177 -125t-251 -42.5q-158 0 -269.5 43.5t-182 126.5t-103 203.5t-32.5 274.5z" />
<glyph unicode="&#xde;" horiz-adv-x="1275" d="M195 1522h233v-273q54 4 112.5 8t121.5 4q259 0 395.5 -115t136.5 -353q0 -121 -37.5 -216t-110.5 -160.5t-181 -100t-250 -34.5q-66 0 -112 2.5t-75 4.5v169q-5 0 -15 2v-170h6.5t8.5 -1v-289h-233v1522zM428 458q45 -6 83.5 -7.5t76.5 -1.5q74 0 142 13t119.5 50 t82 103.5t30.5 173.5q0 163 -93 237t-284 69q-41 -2 -80.5 -6t-76.5 -12v172q-23 -2 -46 -3t-43 -1l74 -171l15 3v-619z" />
<glyph unicode="&#xdf;" horiz-adv-x="1281" d="M176 969h-138v135l153 39q22 114 72 196.5t120.5 136t158.5 78.5t186 25q80 0 149.5 -18.5t121.5 -53.5t81.5 -86.5t29.5 -118.5q0 -56 -16.5 -99.5t-41.5 -79.5t-53.5 -65.5t-53.5 -58t-41.5 -57.5t-16.5 -63q0 -50 26.5 -88.5t66.5 -73t86.5 -70.5t86.5 -82 t66.5 -105.5t26.5 -142.5q0 -93 -35 -156.5t-91.5 -102.5t-128 -56.5t-145.5 -17.5q-38 0 -73.5 3t-65.5 7.5t-54 10.5t-38 12v178q27 -16 85 -33.5t148 -17.5q30 0 59.5 7.5t53 25t38 46t14.5 71.5q-1 55 -26 96t-62.5 77t-81 71t-81 79t-62.5 100t-25 134q0 47 15.5 84.5 t38.5 69.5t50.5 61.5t50.5 60.5t38.5 66t15.5 79q0 74 -50 110t-144 36q-62 0 -114 -22.5t-90 -76.5t-59.5 -144.5t-21.5 -226.5v-948h-229v969z" />
<glyph unicode="&#xe0;" horiz-adv-x="1144" d="M96 306q0 111 59.5 189t161.5 120q50 20 106 34t113.5 23t113 13t103.5 4v113q0 60 -14.5 96t-44.5 55.5t-75 26t-106 6.5q-38 0 -83.5 -8t-89.5 -20t-81 -26.5t-58 -28.5l-55 148q16 10 59.5 28t102 35t127 30t136.5 13q93 0 169 -15.5t130 -56t83 -112t29 -183.5v-806 h-98q-29 0 -50.5 2.5t-36.5 12.5t-22.5 31t-7.5 58v8q-23 -21 -57 -41t-75.5 -36t-89.5 -25.5t-99 -9.5q-76 0 -140.5 22t-111 64t-72.5 101.5t-26 134.5zM322 326q0 -174 195 -174q37 0 75.5 8.5t71 20.5t56.5 25.5t33 23.5v317q-31 0 -71.5 -3t-82.5 -9.5t-82 -17 t-70 -24.5q-27 -13 -50 -28t-39.5 -35t-26 -45.5t-9.5 -58.5zM569 1289q-20 9 -52 32.5t-69.5 54.5t-77 67.5t-75.5 73.5t-65.5 71t-46.5 60l162 138q36 -47 77.5 -98t86 -103t89 -103.5t86.5 -98.5l-115 -94v0z" />
<glyph unicode="&#xe1;" horiz-adv-x="1144" d="M96 306q0 111 59.5 189t161.5 120q50 20 106 34t113.5 23t113 13t103.5 4v113q0 60 -14.5 96t-44.5 55.5t-75 26t-106 6.5q-38 0 -83.5 -8t-89.5 -20t-81 -26.5t-58 -28.5l-55 148q16 10 59.5 28t102 35t127 30t136.5 13q93 0 169 -15.5t130 -56t83 -112t29 -183.5v-806 h-98q-29 0 -50.5 2.5t-36.5 12.5t-22.5 31t-7.5 58v8q-23 -21 -57 -41t-75.5 -36t-89.5 -25.5t-99 -9.5q-76 0 -140.5 22t-111 64t-72.5 101.5t-26 134.5zM322 326q0 -174 195 -174q37 0 75.5 8.5t71 20.5t56.5 25.5t33 23.5v317q-31 0 -71.5 -3t-82.5 -9.5t-82 -17 t-70 -24.5q-27 -13 -50 -28t-39.5 -35t-26 -45.5t-9.5 -58.5zM440 1385q42 46 86.5 95t88 100t85.5 102.5t78 103.5l162 -138q-13 -22 -41 -55t-64.5 -70t-77.5 -75t-80 -70.5t-71 -56t-51 -30.5z" />
<glyph unicode="&#xe2;" horiz-adv-x="1144" d="M96 306q0 111 59.5 189t161.5 120q50 20 106 34t113.5 23t113 13t103.5 4v113q0 60 -14.5 96t-44.5 55.5t-75 26t-106 6.5q-38 0 -83.5 -8t-89.5 -20t-81 -26.5t-58 -28.5l-55 148q16 10 59.5 28t102 35t127 30t136.5 13q93 0 169 -15.5t130 -56t83 -112t29 -183.5v-806 h-98q-29 0 -50.5 2.5t-36.5 12.5t-22.5 31t-7.5 58v8q-23 -21 -57 -41t-75.5 -36t-89.5 -25.5t-99 -9.5q-76 0 -140.5 22t-111 64t-72.5 101.5t-26 134.5zM322 326q0 -174 195 -174q37 0 75.5 8.5t71 20.5t56.5 25.5t33 23.5v317q-31 0 -71.5 -3t-82.5 -9.5t-82 -17 t-70 -24.5q-27 -13 -50 -28t-39.5 -35t-26 -45.5t-9.5 -58.5zM196 1352l278 334h199l271 -333l-138 -60l-233 221l-248 -222z" />
<glyph unicode="&#xe3;" horiz-adv-x="1144" d="M96 306q0 111 59.5 189t161.5 120q50 20 106 34t113.5 23t113 13t103.5 4v113q0 60 -14.5 96t-44.5 55.5t-75 26t-106 6.5q-38 0 -83.5 -8t-89.5 -20t-81 -26.5t-58 -28.5l-55 148q16 10 59.5 28t102 35t127 30t136.5 13q93 0 169 -15.5t130 -56t83 -112t29 -183.5v-806 h-98q-29 0 -50.5 2.5t-36.5 12.5t-22.5 31t-7.5 58v8q-23 -21 -57 -41t-75.5 -36t-89.5 -25.5t-99 -9.5q-76 0 -140.5 22t-111 64t-72.5 101.5t-26 134.5zM322 326q0 -174 195 -174q37 0 75.5 8.5t71 20.5t56.5 25.5t33 23.5v317q-31 0 -71.5 -3t-82.5 -9.5t-82 -17 t-70 -24.5q-27 -13 -50 -28t-39.5 -35t-26 -45.5t-9.5 -58.5zM150 1453q16 37 43.5 72.5t63 63.5t77.5 44.5t88 16.5q41 0 72 -10t55 -25.5t44 -33t39.5 -33t40 -25.5t46.5 -10q34 0 61 9t49 23t40 31.5t33 34.5l88 -76q-18 -40 -45.5 -75.5t-62.5 -62t-76.5 -42 t-87.5 -15.5q-43 0 -74.5 10t-56 25.5t-44 33t-38 33t-39 25.5t-46.5 10q-30 0 -56.5 -9t-49.5 -23.5t-42.5 -31.5t-34.5 -33z" />
<glyph unicode="&#xe4;" horiz-adv-x="1144" d="M96 306q0 111 59.5 189t161.5 120q50 20 106 34t113.5 23t113 13t103.5 4v113q0 60 -14.5 96t-44.5 55.5t-75 26t-106 6.5q-38 0 -83.5 -8t-89.5 -20t-81 -26.5t-58 -28.5l-55 148q16 10 59.5 28t102 35t127 30t136.5 13q93 0 169 -15.5t130 -56t83 -112t29 -183.5v-806 h-98q-29 0 -50.5 2.5t-36.5 12.5t-22.5 31t-7.5 58v8q-23 -21 -57 -41t-75.5 -36t-89.5 -25.5t-99 -9.5q-76 0 -140.5 22t-111 64t-72.5 101.5t-26 134.5zM322 326q0 -174 195 -174q37 0 75.5 8.5t71 20.5t56.5 25.5t33 23.5v317q-31 0 -71.5 -3t-82.5 -9.5t-82 -17 t-70 -24.5q-27 -13 -50 -28t-39.5 -35t-26 -45.5t-9.5 -58.5zM793 1358q-28 0 -52.5 9.5t-43 27t-29 42t-10.5 55.5t13.5 59t36 48.5t50.5 32.5t58 12q34 0 59.5 -10.5t42 -28.5t24.5 -42.5t8 -52.5q0 -33 -13 -61t-35 -48.5t-50 -31.5t-59 -11zM330 1358q-28 0 -52.5 9.5 t-42.5 27t-28.5 42t-10.5 55.5t13.5 59t36 48.5t51 32.5t57.5 12q34 0 59.5 -10.5t42 -28.5t24.5 -42.5t8 -52.5q0 -33 -13 -61t-35 -48.5t-50.5 -31.5t-59.5 -11z" />
<glyph unicode="&#xe5;" horiz-adv-x="1144" d="M96 306q0 111 59.5 189t161.5 120q50 20 106 34t113.5 23t113 13t103.5 4v113q0 60 -14.5 96t-44.5 55.5t-75 26t-106 6.5q-38 0 -83.5 -8t-89.5 -20t-81 -26.5t-58 -28.5l-55 148q16 10 59.5 28t102 35t127 30t136.5 13q93 0 169 -15.5t130 -56t83 -112t29 -183.5v-806 h-98q-29 0 -50.5 2.5t-36.5 12.5t-22.5 31t-7.5 58v8q-23 -21 -57 -41t-75.5 -36t-89.5 -25.5t-99 -9.5q-76 0 -140.5 22t-111 64t-72.5 101.5t-26 134.5zM322 326q0 -174 195 -174q37 0 75.5 8.5t71 20.5t56.5 25.5t33 23.5v317q-31 0 -71.5 -3t-82.5 -9.5t-82 -17 t-70 -24.5q-27 -13 -50 -28t-39.5 -35t-26 -45.5t-9.5 -58.5zM569 1326q-73 0 -132.5 20t-101.5 56.5t-64.5 88.5t-21.5 116q1 72 29.5 123t74.5 83.5t103.5 47t116.5 14.5q73 0 133 -17.5t102.5 -52t65 -84.5t22.5 -115q-1 -72 -27.5 -125t-71.5 -87.5t-104 -51t-124 -16.5 zM570 1454q37 0 68 8.5t53.5 26.5t35 47t12.5 69q0 35 -13 61.5t-36 45t-53.5 28t-66.5 9.5q-30 0 -59 -6.5t-52 -23t-37 -44t-14 -68.5q0 -33 11.5 -61t32.5 -48t51 -31.5t67 -12.5z" />
<glyph unicode="&#xe6;" horiz-adv-x="1791" d="M96 306q0 55 16.5 102.5t46 86.5t70.5 69t89 51q100 42 213 58t223 16v113q0 59 -14 95t-42 55.5t-70 26t-98 6.5q-38 0 -85 -8t-93 -21t-85 -28t-61 -28l-55 151q16 10 61 27.5t105.5 35t131.5 30.5t139 13q59 0 109.5 -6.5t91.5 -22t73 -42.5t54 -68q64 63 152 99.5 t202 38.5q85 1 161 -25.5t133 -80.5t91.5 -135.5t37.5 -190.5q0 -65 -1.5 -115.5t-9.5 -88.5h-701q0 -5 0.5 -8.5t0.5 -8.5q5 -102 33 -169t73.5 -106t105.5 -55t130 -16q30 0 71 5t82.5 13t78.5 19.5t58 23.5l43 -131q-28 -23 -73 -42t-98 -32.5t-110.5 -21t-110.5 -7.5 q-269 0 -399 177q-80 -93 -186.5 -135t-227.5 -42q-76 0 -141 22t-113 64t-75 101.5t-27 134.5zM1478 668q4 61 -3 120t-31 105t-69 74.5t-118 28.5q-50 0 -95 -17t-80.5 -56t-60 -101.5t-34.5 -153.5h491zM327 326q0 -87 44.5 -130.5t141.5 -43.5q39 0 81.5 9.5t82 26 t73 40t53.5 51.5q-22 57 -33.5 123.5t-13.5 144.5q-41 0 -83 -3t-82 -9.5t-76.5 -17t-66.5 -24.5q-27 -13 -49.5 -28t-38.5 -35t-24.5 -45.5t-8.5 -58.5z" />
<glyph unicode="&#xe8;" horiz-adv-x="1135" d="M99 572q0 124 33 230t97.5 184t160.5 123t222 47q85 1 161 -25.5t133 -80.5t92 -135.5t38 -190.5q0 -65 -1.5 -115.5t-9.5 -88.5h-702q0 -5 0.5 -8.5t0.5 -8.5q5 -99 33.5 -165.5t74.5 -107t106.5 -57.5t130.5 -17q30 0 70.5 5t81 13.5t76.5 19.5t57 23l43 -130 q-28 -23 -72.5 -42t-97 -32.5t-109.5 -21t-110 -7.5q-123 0 -217.5 40t-159.5 115.5t-98.5 184.5t-33.5 248zM821 668q4 61 -3 120t-31 105t-69 74.5t-118 28.5q-51 0 -96 -17t-80.5 -56t-60 -101.5t-34.5 -153.5h492zM600 1289q-20 9 -52 32.5t-69.5 54.5t-77 67.5 t-75.5 73.5t-65.5 71t-46.5 60l162 138q36 -47 77.5 -98t86 -103t89 -103.5t86.5 -98.5l-115 -94v0z" />
<glyph unicode="&#xe9;" horiz-adv-x="1135" d="M470 1385q42 46 86.5 95t88 100t85.5 102.5t78 103.5l162 -138q-13 -22 -41 -55t-64.5 -70t-77.5 -75t-80 -70.5t-71 -56t-51 -30.5zM99 572q0 124 33 230t97.5 184t160.5 123t222 47q85 1 161 -25.5t133 -80.5t92 -135.5t38 -190.5q0 -65 -1.5 -115.5t-9.5 -88.5h-702 q0 -5 0.5 -8.5t0.5 -8.5q5 -99 33.5 -165.5t74.5 -107t106.5 -57.5t130.5 -17q30 0 70.5 5t81 13.5t76.5 19.5t57 23l43 -130q-28 -23 -72.5 -42t-97 -32.5t-109.5 -21t-110 -7.5q-123 0 -217.5 40t-159.5 115.5t-98.5 184.5t-33.5 248zM821 668q4 61 -3 120t-31 105 t-69 74.5t-118 28.5q-51 0 -96 -17t-80.5 -56t-60 -101.5t-34.5 -153.5h492z" />
<glyph unicode="&#xea;" horiz-adv-x="1135" d="M226 1352l278 334h199l271 -333l-138 -60l-233 221l-248 -222zM99 572q0 124 33 230t97.5 184t160.5 123t222 47q85 1 161 -25.5t133 -80.5t92 -135.5t38 -190.5q0 -65 -1.5 -115.5t-9.5 -88.5h-702q0 -5 0.5 -8.5t0.5 -8.5q5 -99 33.5 -165.5t74.5 -107t106.5 -57.5 t130.5 -17q30 0 70.5 5t81 13.5t76.5 19.5t57 23l43 -130q-28 -23 -72.5 -42t-97 -32.5t-109.5 -21t-110 -7.5q-123 0 -217.5 40t-159.5 115.5t-98.5 184.5t-33.5 248zM821 668q4 61 -3 120t-31 105t-69 74.5t-118 28.5q-51 0 -96 -17t-80.5 -56t-60 -101.5t-34.5 -153.5 h492z" />
<glyph unicode="&#xeb;" horiz-adv-x="1135" d="M823 1358q-28 0 -52.5 9.5t-43 27t-29 42t-10.5 55.5t13.5 59t36 48.5t50.5 32.5t58 12q34 0 59.5 -10.5t42 -28.5t24.5 -42.5t8 -52.5q0 -33 -13 -61t-35 -48.5t-50 -31.5t-59 -11zM360 1358q-28 0 -52.5 9.5t-42.5 27t-28.5 42t-10.5 55.5t13.5 59t36 48.5t51 32.5 t57.5 12q34 0 59.5 -10.5t42 -28.5t24.5 -42.5t8 -52.5q0 -33 -13 -61t-35 -48.5t-50.5 -31.5t-59.5 -11zM99 572q0 124 33 230t97.5 184t160.5 123t222 47q85 1 161 -25.5t133 -80.5t92 -135.5t38 -190.5q0 -65 -1.5 -115.5t-9.5 -88.5h-702q0 -5 0.5 -8.5t0.5 -8.5 q5 -99 33.5 -165.5t74.5 -107t106.5 -57.5t130.5 -17q30 0 70.5 5t81 13.5t76.5 19.5t57 23l43 -130q-28 -23 -72.5 -42t-97 -32.5t-109.5 -21t-110 -7.5q-123 0 -217.5 40t-159.5 115.5t-98.5 184.5t-33.5 248zM821 668q4 61 -3 120t-31 105t-69 74.5t-118 28.5 q-51 0 -96 -17t-80.5 -56t-60 -101.5t-34.5 -153.5h492z" />
<glyph unicode="&#xec;" horiz-adv-x="617" d="M194 1138h229v-1138h-229v1138zM306 1289q-20 9 -52 32.5t-69.5 54.5t-77 67.5t-75.5 73.5t-65.5 71t-46.5 60l162 138q36 -47 77.5 -98t86 -103t89 -103.5t86.5 -98.5l-115 -94v0z" />
<glyph unicode="&#xed;" horiz-adv-x="617" d="M176 1385q42 46 86.5 95t88 100t85.5 102.5t78 103.5l162 -138q-13 -22 -41 -55t-64.5 -70t-77.5 -75t-80 -70.5t-71 -56t-51 -30.5zM194 1138h229v-1138h-229v1138z" />
<glyph unicode="&#xee;" horiz-adv-x="617" d="M-68 1352l278 334h199l271 -333l-138 -60l-233 221l-248 -222zM194 1138h229v-1138h-229v1138z" />
<glyph unicode="&#xef;" horiz-adv-x="617" d="M530 1358q-28 0 -52.5 9.5t-43 27t-29 42t-10.5 55.5t13.5 59t36 48.5t50.5 32.5t58 12q34 0 59.5 -10.5t42 -28.5t24.5 -42.5t8 -52.5q0 -33 -13 -61t-35 -48.5t-50 -31.5t-59 -11zM67 1358q-28 0 -52.5 9.5t-42.5 27t-28.5 42t-10.5 55.5t13.5 59t36 48.5t51 32.5 t57.5 12q34 0 59.5 -10.5t42 -28.5t24.5 -42.5t8 -52.5q0 -33 -13 -61t-35 -48.5t-50.5 -31.5t-59.5 -11zM194 1138h229v-1138h-229v1138z" />
<glyph unicode="&#xf0;" horiz-adv-x="1203" d="M97 553q0 139 37 250.5t104 189.5t161.5 119.5t209.5 41.5q66 -1 118.5 -20.5t93.5 -51.5q-40 111 -108 203.5t-156 166.5l-133 -149l-118 92l133 143q-51 33 -105 60t-110 47l53 129q149 -47 270 -118q21 24 44.5 51.5t43.5 51.5q23 28 45 56l120 -92q-22 -25 -44 -51 q-20 -22 -42.5 -48t-45.5 -50l8 -5q108 -82 191.5 -185.5t140.5 -225t87 -259t30 -288.5q0 -161 -37 -280t-104.5 -198t-162 -119t-208.5 -41q-119 -2 -214 38.5t-162.5 116.5t-103.5 183.5t-36 241.5zM621 130q63 0 113.5 30t86.5 85.5t55.5 134.5t19.5 177q0 76 1 145 t-6 146q-5 23 -23 47.5t-51 44.5t-81.5 33t-114.5 13q-75 0 -130.5 -31.5t-92 -88t-54.5 -135t-18 -172.5q0 -93 18.5 -172t55.5 -136t92 -89t129 -32z" />
<glyph unicode="&#xf1;" horiz-adv-x="1291" d="M178 1138h205l1 -120q32 22 77 46t97.5 44t109 33.5t112.5 15.5q92 2 156.5 -20.5t105 -75.5t59 -139t18.5 -211v-711h-229v709q0 70 -8 121t-31 83t-64 46t-106 10q-28 -1 -62 -8.5t-70 -20.5t-72.5 -32t-69.5 -43v-865h-229v1138zM294 1453q16 37 43.5 72.5t63 63.5 t77.5 44.5t88 16.5q41 0 72 -10t55 -25.5t44 -33t39.5 -33t40 -25.5t46.5 -10q34 0 61 9t49 23t40 31.5t33 34.5l88 -76q-18 -40 -45.5 -75.5t-62.5 -62t-76.5 -42t-87.5 -15.5q-43 0 -74.5 10t-56 25.5t-44 33t-38 33t-39 25.5t-46.5 10q-30 0 -56.5 -9t-49.5 -23.5 t-42.5 -31.5t-34.5 -33z" />
<glyph unicode="&#xf2;" horiz-adv-x="1225" d="M98 594q2 137 42.5 242t110.5 176t165 107.5t206 36.5q139 0 235.5 -49.5t157 -133.5t87 -194.5t25.5 -232.5q-2 -137 -42.5 -242t-110.5 -176t-165.5 -107.5t-206.5 -36.5q-138 0 -234.5 49.5t-157 133.5t-87.5 194.5t-25 232.5zM608 146q71 -2 124.5 25.5t89.5 80.5 t54 130t18 175q0 90 -16 169t-50 137.5t-86.5 93t-124.5 35.5q-142 3 -214 -102t-72 -300q0 -90 16.5 -170.5t50.5 -140.5t86 -96t124 -37zM618 1289q-20 9 -52 32.5t-69.5 54.5t-77 67.5t-75.5 73.5t-65.5 71t-46.5 60l162 138q36 -47 77.5 -98t86 -103t89 -103.5 t86.5 -98.5l-115 -94v0z" />
<glyph unicode="&#xf3;" horiz-adv-x="1225" d="M489 1385q42 46 86.5 95t88 100t85.5 102.5t78 103.5l162 -138q-13 -22 -41 -55t-64.5 -70t-77.5 -75t-80 -70.5t-71 -56t-51 -30.5zM98 594q2 137 42.5 242t110.5 176t165 107.5t206 36.5q139 0 235.5 -49.5t157 -133.5t87 -194.5t25.5 -232.5q-2 -137 -42.5 -242 t-110.5 -176t-165.5 -107.5t-206.5 -36.5q-138 0 -234.5 49.5t-157 133.5t-87.5 194.5t-25 232.5zM608 146q71 -2 124.5 25.5t89.5 80.5t54 130t18 175q0 90 -16 169t-50 137.5t-86.5 93t-124.5 35.5q-142 3 -214 -102t-72 -300q0 -90 16.5 -170.5t50.5 -140.5t86 -96 t124 -37z" />
<glyph unicode="&#xf4;" horiz-adv-x="1225" d="M245 1352l278 334h199l271 -333l-138 -60l-233 221l-248 -222zM98 594q2 137 42.5 242t110.5 176t165 107.5t206 36.5q139 0 235.5 -49.5t157 -133.5t87 -194.5t25.5 -232.5q-2 -137 -42.5 -242t-110.5 -176t-165.5 -107.5t-206.5 -36.5q-138 0 -234.5 49.5t-157 133.5 t-87.5 194.5t-25 232.5zM608 146q71 -2 124.5 25.5t89.5 80.5t54 130t18 175q0 90 -16 169t-50 137.5t-86.5 93t-124.5 35.5q-142 3 -214 -102t-72 -300q0 -90 16.5 -170.5t50.5 -140.5t86 -96t124 -37z" />
<glyph unicode="&#xf5;" horiz-adv-x="1225" d="M98 594q2 137 42.5 242t110.5 176t165 107.5t206 36.5q139 0 235.5 -49.5t157 -133.5t87 -194.5t25.5 -232.5q-2 -137 -42.5 -242t-110.5 -176t-165.5 -107.5t-206.5 -36.5q-138 0 -234.5 49.5t-157 133.5t-87.5 194.5t-25 232.5zM608 146q71 -2 124.5 25.5t89.5 80.5 t54 130t18 175q0 90 -16 169t-50 137.5t-86.5 93t-124.5 35.5q-142 3 -214 -102t-72 -300q0 -90 16.5 -170.5t50.5 -140.5t86 -96t124 -37zM199 1453q16 37 43.5 72.5t63 63.5t77.5 44.5t88 16.5q41 0 72 -10t55 -25.5t44 -33t39.5 -33t40 -25.5t46.5 -10q34 0 61 9t49 23 t40 31.5t33 34.5l88 -76q-18 -40 -45.5 -75.5t-62.5 -62t-76.5 -42t-87.5 -15.5q-43 0 -74.5 10t-56 25.5t-44 33t-38 33t-39 25.5t-46.5 10q-30 0 -56.5 -9t-49.5 -23.5t-42.5 -31.5t-34.5 -33z" />
<glyph unicode="&#xf6;" horiz-adv-x="1225" d="M842 1358q-28 0 -52.5 9.5t-43 27t-29 42t-10.5 55.5t13.5 59t36 48.5t50.5 32.5t58 12q34 0 59.5 -10.5t42 -28.5t24.5 -42.5t8 -52.5q0 -33 -13 -61t-35 -48.5t-50 -31.5t-59 -11zM379 1358q-28 0 -52.5 9.5t-42.5 27t-28.5 42t-10.5 55.5t13.5 59t36 48.5t51 32.5 t57.5 12q34 0 59.5 -10.5t42 -28.5t24.5 -42.5t8 -52.5q0 -33 -13 -61t-35 -48.5t-50.5 -31.5t-59.5 -11zM98 594q2 137 42.5 242t110.5 176t165 107.5t206 36.5q139 0 235.5 -49.5t157 -133.5t87 -194.5t25.5 -232.5q-2 -137 -42.5 -242t-110.5 -176t-165.5 -107.5 t-206.5 -36.5q-138 0 -234.5 49.5t-157 133.5t-87.5 194.5t-25 232.5zM608 146q71 -2 124.5 25.5t89.5 80.5t54 130t18 175q0 90 -16 169t-50 137.5t-86.5 93t-124.5 35.5q-142 3 -214 -102t-72 -300q0 -90 16.5 -170.5t50.5 -140.5t86 -96t124 -37z" />
<glyph unicode="&#xf7;" horiz-adv-x="1395" d="M694 1029q-30 0 -56 10t-46 29t-31.5 45t-11.5 59q0 34 14.5 64.5t38 52.5t53.5 35t62 13q36 0 63.5 -11.5t45.5 -31t27 -45.5t9 -56q0 -36 -14 -66t-37 -52t-53.5 -34t-63.5 -12zM227 861h941v-176h-941v176zM548 359q0 34 14.5 64.5t38 52.5t53.5 35t62 13 q36 0 63.5 -11t45.5 -30.5t27 -45.5t9 -56q0 -36 -14 -66t-37 -52t-53.5 -34t-63.5 -12q-30 0 -56 10t-46 28.5t-31.5 45t-11.5 58.5z" />
<glyph unicode="&#xf8;" horiz-adv-x="1226" d="M362 36q-72 36 -122.5 94t-82.5 130.5t-46 157.5t-13 176q2 137 42.5 242t110.5 176t165 107.5t206 36.5q32 0 61 -3t57 -8l68 200l126 -36l-71 -206q72 -36 122.5 -94t82.5 -130.5t46 -157.5t13 -175q-2 -137 -42.5 -242t-110.5 -176t-165.5 -107.5t-206.5 -36.5 q-32 0 -60.5 3t-55.5 8l-67 -197l-126 35zM684 982q-30 8 -67 10q-142 3 -214.5 -102t-72.5 -300q0 -110 24 -203t75 -154zM541 156q15 -5 32 -7.5t35 -2.5q71 -2 125 25.5t90 80.5t54 130t18 175q0 109 -23.5 200t-74.5 151z" />
<glyph unicode="&#xf9;" horiz-adv-x="1261" d="M171 1140h229v-667q0 -103 11.5 -163t36.5 -91t64 -40t94 -9q32 0 68 7.5t70 19.5t63 25.5t47 25.5v892h230v-1156h-96q-26 0 -46 2.5t-33.5 11.5t-21 26t-7.5 47v29q-35 -22 -79.5 -43t-93.5 -37t-99 -26t-96 -10q-110 0 -176.5 35.5t-103.5 100t-49 154.5t-12 200v666z M636 1289q-20 9 -52 32.5t-69.5 54.5t-77 67.5t-75.5 73.5t-65.5 71t-46.5 60l162 138q36 -47 77.5 -98t86 -103t89 -103.5t86.5 -98.5l-115 -94v0z" />
<glyph unicode="&#xfa;" horiz-adv-x="1261" d="M507 1385q42 46 86.5 95t88 100t85.5 102.5t78 103.5l162 -138q-13 -22 -41 -55t-64.5 -70t-77.5 -75t-80 -70.5t-71 -56t-51 -30.5zM171 1140h229v-667q0 -103 11.5 -163t36.5 -91t64 -40t94 -9q32 0 68 7.5t70 19.5t63 25.5t47 25.5v892h230v-1156h-96q-26 0 -46 2.5 t-33.5 11.5t-21 26t-7.5 47v29q-35 -22 -79.5 -43t-93.5 -37t-99 -26t-96 -10q-110 0 -176.5 35.5t-103.5 100t-49 154.5t-12 200v666z" />
<glyph unicode="&#xfb;" horiz-adv-x="1261" d="M263 1352l278 334h199l271 -333l-138 -60l-233 221l-248 -222zM171 1140h229v-667q0 -103 11.5 -163t36.5 -91t64 -40t94 -9q32 0 68 7.5t70 19.5t63 25.5t47 25.5v892h230v-1156h-96q-26 0 -46 2.5t-33.5 11.5t-21 26t-7.5 47v29q-35 -22 -79.5 -43t-93.5 -37t-99 -26 t-96 -10q-110 0 -176.5 35.5t-103.5 100t-49 154.5t-12 200v666z" />
<glyph unicode="&#xfc;" horiz-adv-x="1261" d="M860 1358q-28 0 -52.5 9.5t-43 27t-29 42t-10.5 55.5t13.5 59t36 48.5t50.5 32.5t58 12q34 0 59.5 -10.5t42 -28.5t24.5 -42.5t8 -52.5q0 -33 -13 -61t-35 -48.5t-50 -31.5t-59 -11zM397 1358q-28 0 -52.5 9.5t-42.5 27t-28.5 42t-10.5 55.5t13.5 59t36 48.5t51 32.5 t57.5 12q34 0 59.5 -10.5t42 -28.5t24.5 -42.5t8 -52.5q0 -33 -13 -61t-35 -48.5t-50.5 -31.5t-59.5 -11zM171 1140h229v-667q0 -103 11.5 -163t36.5 -91t64 -40t94 -9q32 0 68 7.5t70 19.5t63 25.5t47 25.5v892h230v-1156h-96q-26 0 -46 2.5t-33.5 11.5t-21 26t-7.5 47v29 q-35 -22 -79.5 -43t-93.5 -37t-99 -26t-96 -10q-110 0 -176.5 35.5t-103.5 100t-49 154.5t-12 200v666z" />
<glyph unicode="&#xfe;" horiz-adv-x="1252" d="M398 -169v-338h-230v2168h230v-468l-8 -162q20 20 47.5 42t65 40.5t87 30.5t113.5 12q90 0 171.5 -33t143.5 -100.5t98.5 -169.5t36.5 -241t-41 -254.5t-116.5 -199t-182 -130t-236.5 -46.5q-47 0 -96 5t-96 13zM398 189q27 -20 78.5 -30t123.5 -10q67 0 124.5 28 t100.5 83t67.5 136t26.5 187q2 202 -71.5 297.5t-209.5 95.5q-41 0 -77 -9t-66.5 -22.5t-55 -29.5t-41.5 -30v-696z" />
<glyph unicode="&#x100;" horiz-adv-x="1417" d="M600 1537h231l564 -1537h-251l-126 379h-618l-132 -379h-246zM960 551l-200 601l-44 147l-45 -147l-211 -601h500zM433 1893h552v-167h-552v167z" />
<glyph unicode="&#x101;" horiz-adv-x="1144" d="M96 306q0 111 59.5 189t161.5 120q50 20 106 34t113.5 23t113 13t103.5 4v113q0 60 -14.5 96t-44.5 55.5t-75 26t-106 6.5q-38 0 -83.5 -8t-89.5 -20t-81 -26.5t-58 -28.5l-55 148q16 10 59.5 28t102 35t127 30t136.5 13q93 0 169 -15.5t130 -56t83 -112t29 -183.5v-806 h-98q-29 0 -50.5 2.5t-36.5 12.5t-22.5 31t-7.5 58v8q-23 -21 -57 -41t-75.5 -36t-89.5 -25.5t-99 -9.5q-76 0 -140.5 22t-111 64t-72.5 101.5t-26 134.5zM322 326q0 -174 195 -174q37 0 75.5 8.5t71 20.5t56.5 25.5t33 23.5v317q-31 0 -71.5 -3t-82.5 -9.5t-82 -17 t-70 -24.5q-27 -13 -50 -28t-39.5 -35t-26 -45.5t-9.5 -58.5zM298 1591h552v-168h-552v168z" />
<glyph unicode="&#x102;" horiz-adv-x="1417" d="M600 1537h231l564 -1537h-251l-126 379h-618l-132 -379h-246zM960 551l-200 601l-44 147l-45 -147l-211 -601h500zM707 1629q-87 0 -154 27.5t-111.5 74t-65 108.5t-14.5 131h158q0 -9 3 -36t20.5 -55.5t55.5 -50.5t108 -22t108.5 22t56.5 50.5t22 55.5t4 36h154 q6 -69 -16 -131t-67.5 -108.5t-112 -74t-149.5 -27.5z" />
<glyph unicode="&#x103;" horiz-adv-x="1144" d="M96 306q0 111 59.5 189t161.5 120q50 20 106 34t113.5 23t113 13t103.5 4v113q0 60 -14.5 96t-44.5 55.5t-75 26t-106 6.5q-38 0 -83.5 -8t-89.5 -20t-81 -26.5t-58 -28.5l-55 148q16 10 59.5 28t102 35t127 30t136.5 13q93 0 169 -15.5t130 -56t83 -112t29 -183.5v-806 h-98q-29 0 -50.5 2.5t-36.5 12.5t-22.5 31t-7.5 58v8q-23 -21 -57 -41t-75.5 -36t-89.5 -25.5t-99 -9.5q-76 0 -140.5 22t-111 64t-72.5 101.5t-26 134.5zM322 326q0 -174 195 -174q37 0 75.5 8.5t71 20.5t56.5 25.5t33 23.5v317q-31 0 -71.5 -3t-82.5 -9.5t-82 -17 t-70 -24.5q-27 -13 -50 -28t-39.5 -35t-26 -45.5t-9.5 -58.5zM572 1306q-86 0 -153 32t-112 85t-66 121.5t-15 140.5h159q0 -7 1 -24.5t6.5 -40t16.5 -47t32 -44.5t53 -33t79 -13t79 13t53 33t32.5 44.5t17 47t7 40t1.5 24.5h155q6 -72 -16.5 -140.5t-68.5 -121.5 t-112.5 -85t-148.5 -32z" />
<glyph unicode="&#x106;" horiz-adv-x="1319" d="M97 753q0 189 57.5 335.5t155 246.5t226 151.5t270.5 51.5q86 0 151 -7t113 -16.5t80.5 -19t53.5 -14.5l-33 -206q-11 6 -35 18t-65.5 24.5t-102.5 22t-146 9.5q-114 0 -205.5 -40.5t-155.5 -116t-98 -183t-34 -240.5q0 -132 33.5 -242.5t96.5 -190t154.5 -124 t207.5 -44.5q58 0 116 8t108 21t88.5 29.5t58.5 34.5l1 -197q-33 -13 -70.5 -27t-83.5 -26t-102.5 -19.5t-126.5 -7.5q-163 0 -295 55t-225 156t-143 243t-50 315zM671 1665q2 2 27.5 25t62.5 56.5t79.5 73t79.5 74t61.5 59t26.5 28.5l154 -133q-35 -36 -85 -78.5 t-104 -81.5t-108 -70.5t-96 -46.5z" />
<glyph unicode="&#x107;" horiz-adv-x="1010" d="M482 1385q42 46 86.5 95t88 100t85.5 102.5t78 103.5l162 -138q-13 -22 -41 -55t-64.5 -70t-77.5 -75t-80 -70.5t-71 -56t-51 -30.5zM99 558q0 126 34.5 235t103.5 190t173 127t242 46q54 0 99.5 -6t81.5 -14.5t61.5 -19t39.5 -19.5l-35 -180q-45 31 -106 46.5t-149 15.5 q-58 0 -114 -21t-101 -67t-74 -119t-33 -176q-3 -108 20.5 -190t66.5 -137.5t102.5 -83.5t127.5 -28q42 0 82.5 6t75.5 15.5t64 21t48 22.5l45 -129q-26 -24 -64 -44.5t-83.5 -34.5t-97.5 -22t-106 -8q-122 0 -216 44t-158 121t-97 182t-33 227z" />
<glyph unicode="&#x108;" horiz-adv-x="1319" d="M97 753q0 189 57.5 335.5t155 246.5t226 151.5t270.5 51.5q86 0 151 -7t113 -16.5t80.5 -19t53.5 -14.5l-33 -206q-11 6 -35 18t-65.5 24.5t-102.5 22t-146 9.5q-114 0 -205.5 -40.5t-155.5 -116t-98 -183t-34 -240.5q0 -132 33.5 -242.5t96.5 -190t154.5 -124 t207.5 -44.5q58 0 116 8t108 21t88.5 29.5t58.5 34.5l1 -197q-33 -13 -70.5 -27t-83.5 -26t-102.5 -19.5t-126.5 -7.5q-163 0 -295 55t-225 156t-143 243t-50 315zM439 1688l260 301h199l264 -298l-146 -64l-217 202l-221 -202z" />
<glyph unicode="&#x109;" horiz-adv-x="1010" d="M238 1352l278 334h199l271 -333l-138 -60l-233 221l-248 -222zM99 558q0 126 34.5 235t103.5 190t173 127t242 46q54 0 99.5 -6t81.5 -14.5t61.5 -19t39.5 -19.5l-35 -180q-45 31 -106 46.5t-149 15.5q-58 0 -114 -21t-101 -67t-74 -119t-33 -176q-3 -108 20.5 -190 t66.5 -137.5t102.5 -83.5t127.5 -28q42 0 82.5 6t75.5 15.5t64 21t48 22.5l45 -129q-26 -24 -64 -44.5t-83.5 -34.5t-97.5 -22t-106 -8q-122 0 -216 44t-158 121t-97 182t-33 227z" />
<glyph unicode="&#x10b;" horiz-adv-x="1010" d="M99 558q0 126 34.5 235t103.5 190t173 127t242 46q54 0 99.5 -6t81.5 -14.5t61.5 -19t39.5 -19.5l-35 -180q-45 31 -106 46.5t-149 15.5q-58 0 -114 -21t-101 -67t-74 -119t-33 -176q-3 -108 20.5 -190t66.5 -137.5t102.5 -83.5t127.5 -28q42 0 82.5 6t75.5 15.5t64 21 t48 22.5l45 -129q-26 -24 -64 -44.5t-83.5 -34.5t-97.5 -22t-106 -8q-122 0 -216 44t-158 121t-97 182t-33 227zM603 1343q-29 0 -55.5 9.5t-46.5 27.5t-31.5 43.5t-11.5 57.5q0 33 14.5 62t38 50.5t53 34t60.5 12.5q36 0 63.5 -10.5t45.5 -29.5t27 -44t9 -54 q0 -35 -14 -64.5t-37 -50.5t-53 -32.5t-62 -11.5z" />
<glyph unicode="&#x10c;" horiz-adv-x="1319" d="M97 753q0 189 57.5 335.5t155 246.5t226 151.5t270.5 51.5q86 0 151 -7t113 -16.5t80.5 -19t53.5 -14.5l-33 -206q-11 6 -35 18t-65.5 24.5t-102.5 22t-146 9.5q-114 0 -205.5 -40.5t-155.5 -116t-98 -183t-34 -240.5q0 -132 33.5 -242.5t96.5 -190t154.5 -124 t207.5 -44.5q58 0 116 8t108 21t88.5 29.5t58.5 34.5l1 -197q-33 -13 -70.5 -27t-83.5 -26t-102.5 -19.5t-126.5 -7.5q-163 0 -295 55t-225 156t-143 243t-50 315zM454 1926l131 63l216 -173l221 173l124 -61l-245 -264h-199z" />
<glyph unicode="&#x10d;" horiz-adv-x="1010" d="M240 1652l129 60l248 -222l233 221l138 -60l-271 -333h-199zM99 558q0 126 34.5 235t103.5 190t173 127t242 46q54 0 99.5 -6t81.5 -14.5t61.5 -19t39.5 -19.5l-35 -180q-45 31 -106 46.5t-149 15.5q-58 0 -114 -21t-101 -67t-74 -119t-33 -176q-3 -108 20.5 -190 t66.5 -137.5t102.5 -83.5t127.5 -28q42 0 82.5 6t75.5 15.5t64 21t48 22.5l45 -129q-26 -24 -64 -44.5t-83.5 -34.5t-97.5 -22t-106 -8q-122 0 -216 44t-158 121t-97 182t-33 227z" />
<glyph unicode="&#x10f;" horiz-adv-x="1660" d="M99 528q0 139 40.5 254.5t115.5 198.5t180.5 129t234.5 46q56 0 103 -8.5t83 -19.5l-3 65v471h230v-1680h-107q-25 0 -45 2.5t-34.5 11.5t-22 26t-7.5 46v43q-20 -20 -47.5 -42.5t-66 -42t-89 -32t-116.5 -12.5q-90 0 -171 33t-143 100.5t-98.5 169.5t-36.5 241zM613 163 q40 0 76 9t66.5 22.5t55 29t42.5 29.5v688q-29 26 -79.5 37.5t-122.5 11.5q-67 0 -124.5 -28t-100 -82.5t-67.5 -135.5t-26 -187q-2 -202 71 -298t209 -96zM1318 1066l-7 29q7 28 15.5 53.5t15.5 57t11.5 73t4.5 102.5q0 30 -5 61t-13 58.5t-18 49.5t-20 34l14 48l182 57 q17 -15 29 -39.5t19.5 -56.5t11 -70t3.5 -78q0 -67 -11 -129t-29 -115.5t-41.5 -97t-47.5 -72.5z" />
<glyph unicode="&#x110;" horiz-adv-x="1482" d="M195 717h-127v155h127v650h113q36 0 79.5 2.5t91 5.5t97 5.5t97.5 2.5q184 0 320 -49.5t225.5 -144t133.5 -230.5t44 -310q0 -195 -52 -348.5t-148.5 -259.5t-235 -160.5t-311.5 -51.5q-39 1 -85.5 3.5t-95.5 5.5t-97 5t-90 2h-86v717zM429 174q24 -5 55 -8.5t64.5 -6 t68 -3t66.5 -0.5q103 2 189.5 37.5t149 110t97.5 190t35 277.5q0 167 -33.5 281.5t-100.5 185t-166 101.5t-231 31q-60 0 -110.5 -4t-83.5 -11v-483h388v-155h-388v-543z" />
<glyph unicode="&#x111;" horiz-adv-x="1251" d="M99 528q0 139 40.5 254.5t115.5 198.5t180.5 129t234.5 46q56 0 103 -8.5t83 -19.5l-3 65v112h-267v145h267v214h230v-214h140v-145h-140v-1321h-107q-25 0 -45 2.5t-34.5 11.5t-22 26t-7.5 46v43q-20 -20 -47.5 -42.5t-66 -42t-89 -32t-116.5 -12.5q-90 0 -171 33 t-143 100.5t-98.5 169.5t-36.5 241zM613 163q40 0 76 9t66.5 22.5t55 29t42.5 29.5v688q-29 26 -79.5 37.5t-122.5 11.5q-67 0 -124.5 -28t-100 -82.5t-67.5 -135.5t-26 -187q-2 -202 71 -298t209 -96z" />
<glyph unicode="&#x112;" horiz-adv-x="1226" d="M410 1893h552v-167h-552v167zM195 1522h882v-179h-649v-470h477v-179h-477v-512h721v-182h-954v1522z" />
<glyph unicode="&#x113;" horiz-adv-x="1135" d="M99 572q0 124 33 230t97.5 184t160.5 123t222 47q85 1 161 -25.5t133 -80.5t92 -135.5t38 -190.5q0 -65 -1.5 -115.5t-9.5 -88.5h-702q0 -5 0.5 -8.5t0.5 -8.5q5 -99 33.5 -165.5t74.5 -107t106.5 -57.5t130.5 -17q30 0 70.5 5t81 13.5t76.5 19.5t57 23l43 -130 q-28 -23 -72.5 -42t-97 -32.5t-109.5 -21t-110 -7.5q-123 0 -217.5 40t-159.5 115.5t-98.5 184.5t-33.5 248zM821 668q4 61 -3 120t-31 105t-69 74.5t-118 28.5q-51 0 -96 -17t-80.5 -56t-60 -101.5t-34.5 -153.5h492zM328 1591h552v-168h-552v168z" />
<glyph unicode="&#x114;" horiz-adv-x="1226" d="M683 1629q-87 0 -154 27.5t-111.5 74t-65 108.5t-14.5 131h158q0 -9 3 -36t20.5 -55.5t55.5 -50.5t108 -22t108.5 22t56.5 50.5t22 55.5t4 36h154q6 -69 -16 -131t-67.5 -108.5t-112 -74t-149.5 -27.5zM195 1522h882v-179h-649v-470h477v-179h-477v-512h721v-182h-954 v1522z" />
<glyph unicode="&#x115;" horiz-adv-x="1135" d="M99 572q0 124 33 230t97.5 184t160.5 123t222 47q85 1 161 -25.5t133 -80.5t92 -135.5t38 -190.5q0 -65 -1.5 -115.5t-9.5 -88.5h-702q0 -5 0.5 -8.5t0.5 -8.5q5 -99 33.5 -165.5t74.5 -107t106.5 -57.5t130.5 -17q30 0 70.5 5t81 13.5t76.5 19.5t57 23l43 -130 q-28 -23 -72.5 -42t-97 -32.5t-109.5 -21t-110 -7.5q-123 0 -217.5 40t-159.5 115.5t-98.5 184.5t-33.5 248zM821 668q4 61 -3 120t-31 105t-69 74.5t-118 28.5q-51 0 -96 -17t-80.5 -56t-60 -101.5t-34.5 -153.5h492zM603 1306q-86 0 -153 32t-112 85t-66 121.5t-15 140.5 h159q0 -7 1 -24.5t6.5 -40t16.5 -47t32 -44.5t53 -33t79 -13t79 13t53 33t32.5 44.5t17 47t7 40t1.5 24.5h155q6 -72 -16.5 -140.5t-68.5 -121.5t-112.5 -85t-148.5 -32z" />
<glyph unicode="&#x116;" horiz-adv-x="1226" d="M675 1665q-29 0 -55 9.5t-45.5 27t-30.5 42.5t-11 57q0 33 14 61.5t37 49.5t52 33t60 12q73 0 107.5 -38.5t34.5 -97.5q0 -35 -13.5 -63.5t-36 -49t-52 -32t-61.5 -11.5zM195 1522h882v-179h-649v-470h477v-179h-477v-512h721v-182h-954v1522z" />
<glyph unicode="&#x117;" horiz-adv-x="1135" d="M99 572q0 124 33 230t97.5 184t160.5 123t222 47q85 1 161 -25.5t133 -80.5t92 -135.5t38 -190.5q0 -65 -1.5 -115.5t-9.5 -88.5h-702q0 -5 0.5 -8.5t0.5 -8.5q5 -99 33.5 -165.5t74.5 -107t106.5 -57.5t130.5 -17q30 0 70.5 5t81 13.5t76.5 19.5t57 23l43 -130 q-28 -23 -72.5 -42t-97 -32.5t-109.5 -21t-110 -7.5q-123 0 -217.5 40t-159.5 115.5t-98.5 184.5t-33.5 248zM821 668q4 61 -3 120t-31 105t-69 74.5t-118 28.5q-51 0 -96 -17t-80.5 -56t-60 -101.5t-34.5 -153.5h492zM591 1343q-29 0 -55.5 9.5t-46.5 27.5t-31.5 43.5 t-11.5 57.5q0 33 14.5 62t38 50.5t53 34t60.5 12.5q36 0 63.5 -10.5t45.5 -29.5t27 -44t9 -54q0 -35 -14 -64.5t-37 -50.5t-53 -32.5t-62 -11.5z" />
<glyph unicode="&#x11a;" horiz-adv-x="1226" d="M337 1926l131 63l216 -173l221 173l124 -61l-245 -264h-199zM195 1522h882v-179h-649v-470h477v-179h-477v-512h721v-182h-954v1522z" />
<glyph unicode="&#x11b;" horiz-adv-x="1135" d="M228 1652l129 60l248 -222l233 221l138 -60l-271 -333h-199zM99 572q0 124 33 230t97.5 184t160.5 123t222 47q85 1 161 -25.5t133 -80.5t92 -135.5t38 -190.5q0 -65 -1.5 -115.5t-9.5 -88.5h-702q0 -5 0.5 -8.5t0.5 -8.5q5 -99 33.5 -165.5t74.5 -107t106.5 -57.5 t130.5 -17q30 0 70.5 5t81 13.5t76.5 19.5t57 23l43 -130q-28 -23 -72.5 -42t-97 -32.5t-109.5 -21t-110 -7.5q-123 0 -217.5 40t-159.5 115.5t-98.5 184.5t-33.5 248zM821 668q4 61 -3 120t-31 105t-69 74.5t-118 28.5q-51 0 -96 -17t-80.5 -56t-60 -101.5t-34.5 -153.5 h492z" />
<glyph unicode="&#x128;" horiz-adv-x="652" d="M208 1522h236v-1522h-236v1522zM-90 1769q17 43 48 79t69.5 62t81.5 41t84 15q40 0 70.5 -10.5t54.5 -25.5t43.5 -33.5t38.5 -33.5t39.5 -25.5t46.5 -10.5q27 0 52 9.5t47.5 24t41.5 32t34 33.5l87 -75q-17 -42 -48 -78t-69 -62.5t-81 -41t-84 -14.5q-40 0 -70 10.5 t-54 26.5t-43.5 35t-39 35t-40.5 26.5t-47 10.5q-27 0 -52 -9.5t-47 -24.5t-41.5 -33t-34.5 -35z" />
<glyph unicode="&#x129;" horiz-adv-x="617" d="M194 1138h229v-1138h-229v1138zM-113 1453q16 37 43.5 72.5t63 63.5t77.5 44.5t88 16.5q41 0 72 -10t55 -25.5t44 -33t39.5 -33t40 -25.5t46.5 -10q34 0 61 9t49 23t40 31.5t33 34.5l88 -76q-18 -40 -45.5 -75.5t-62.5 -62t-76.5 -42t-87.5 -15.5q-43 0 -74.5 10 t-56 25.5t-44 33t-38 33t-39 25.5t-46.5 10q-30 0 -56.5 -9t-49.5 -23.5t-42.5 -31.5t-34.5 -33z" />
<glyph unicode="&#x12a;" horiz-adv-x="652" d="M208 1522h236v-1522h-236v1522zM53 1893h552v-167h-552v167z" />
<glyph unicode="&#x12b;" horiz-adv-x="617" d="M194 1138h229v-1138h-229v1138zM34 1591h552v-168h-552v168z" />
<glyph unicode="&#x12c;" horiz-adv-x="652" d="M208 1522h236v-1522h-236v1522zM327 1629q-87 0 -154 27.5t-111.5 74t-65 108.5t-14.5 131h158q0 -9 3 -36t20.5 -55.5t55.5 -50.5t108 -22t108.5 22t56.5 50.5t22 55.5t4 36h154q6 -69 -16 -131t-67.5 -108.5t-112 -74t-149.5 -27.5z" />
<glyph unicode="&#x12d;" horiz-adv-x="617" d="M194 1138h229v-1138h-229v1138zM309 1306q-86 0 -153 32t-112 85t-66 121.5t-15 140.5h159q0 -7 1 -24.5t6.5 -40t16.5 -47t32 -44.5t53 -33t79 -13t79 13t53 33t32.5 44.5t17 47t7 40t1.5 24.5h155q6 -72 -16.5 -140.5t-68.5 -121.5t-112.5 -85t-148.5 -32z" />
<glyph unicode="&#x130;" horiz-adv-x="652" d="M208 1522h236v-1522h-236v1522zM318 1665q-29 0 -55 9.5t-45.5 27t-30.5 42.5t-11 57q0 33 14 61.5t37 49.5t52 33t60 12q73 0 107.5 -38.5t34.5 -97.5q0 -35 -13.5 -63.5t-36 -49t-52 -32t-61.5 -11.5z" />
<glyph unicode="&#x131;" horiz-adv-x="617" d="M194 1138h229v-1138h-229v1138z" />
<glyph unicode="&#x132;" horiz-adv-x="1375" d="M208 1522h236v-1522h-236v1522zM612 -211q39 14 81 37.5t79.5 57.5t68 79t46.5 104q12 45 18.5 104.5t9.5 129t3.5 147.5t0.5 160v914h236v-909q0 -150 0.5 -283.5t-19.5 -242.5q-11 -66 -37.5 -121t-63 -99.5t-80.5 -79t-91 -59t-94 -39.5t-89 -21l-69 121v0z" />
<glyph unicode="&#x133;" horiz-adv-x="1203" d="M810 1138h229v-1099q0 -149 -23.5 -253t-69 -169t-112 -94.5t-152.5 -29.5q-13 0 -35 1t-44 2.5t-40 4.5t-24 6v167q8 -4 22.5 -8t31 -7t33.5 -5t30 -2q45 0 74.5 19t47 57t25 94.5t7.5 131.5v1184zM194 1138h229v-1138h-229v1138zM301 1343q-29 0 -55.5 9.5t-46.5 27.5 t-31.5 43.5t-11.5 57.5q0 33 14.5 62t38 50.5t53 34t60.5 12.5q36 0 63.5 -10.5t45.5 -29.5t27 -44t9 -54q0 -35 -14 -64.5t-37 -50.5t-53 -32.5t-62 -11.5zM915 1343q-29 0 -55.5 9.5t-46.5 27.5t-31.5 43.5t-11.5 57.5q0 33 14.5 62t38 50.5t53 34t60.5 12.5 q36 0 63.5 -10.5t45.5 -29.5t27 -44t9 -54q0 -35 -14 -64.5t-37 -50.5t-53 -32.5t-62 -11.5z" />
<glyph unicode="&#x134;" horiz-adv-x="722" d="M-40 -211q39 14 81 37.5t79.5 57.5t68 79t46.5 104q12 45 18.5 104.5t9.5 129t3.5 147.5t0.5 160v914h236v-909q0 -150 0.5 -283.5t-19.5 -242.5q-11 -66 -37.5 -121t-63 -99.5t-80.5 -79t-91 -59t-94 -39.5t-89 -21l-69 121v0zM20 1688l260 301h199l264 -298l-146 -64 l-217 202l-221 -202z" />
<glyph unicode="&#x141;" horiz-adv-x="1088" d="M195 614l-123 -45l-54 138l177 65v750h239v-662l382 141l54 -140l-436 -160v-519h597v-182h-836v614z" />
<glyph unicode="&#x142;" horiz-adv-x="624" d="M197 746l-146 -56v156l146 58v760h230v-669l197 79v-165l-197 -75v-834h-230v746z" />
<glyph unicode="&#x14c;" horiz-adv-x="1577" d="M538 1893h552v-167h-552v167zM102 772q4 191 60.5 334.5t152.5 239.5t223.5 144t273.5 48q152 0 276 -55t211 -156t132.5 -245t42.5 -321q-4 -191 -57.5 -335t-145.5 -241.5t-217 -147.5t-272 -53q-159 -3 -286 54.5t-216 162.5t-135 251t-43 320zM789 162q102 0 185 39 t141.5 116t90.5 191t32 264q0 119 -27.5 226t-82 187.5t-135.5 128t-188 47.5q-95 0 -179.5 -36t-148.5 -110.5t-101.5 -188t-37.5 -268.5q0 -118 28.5 -225.5t85 -190t141 -131.5t196.5 -49z" />
<glyph unicode="&#x14d;" horiz-adv-x="1225" d="M347 1591h552v-168h-552v168zM98 594q2 137 42.5 242t110.5 176t165 107.5t206 36.5q139 0 235.5 -49.5t157 -133.5t87 -194.5t25.5 -232.5q-2 -137 -42.5 -242t-110.5 -176t-165.5 -107.5t-206.5 -36.5q-138 0 -234.5 49.5t-157 133.5t-87.5 194.5t-25 232.5zM608 146 q71 -2 124.5 25.5t89.5 80.5t54 130t18 175q0 90 -16 169t-50 137.5t-86.5 93t-124.5 35.5q-142 3 -214 -102t-72 -300q0 -90 16.5 -170.5t50.5 -140.5t86 -96t124 -37z" />
<glyph unicode="&#x14e;" horiz-adv-x="1577" d="M811 1629q-87 0 -154 27.5t-111.5 74t-65 108.5t-14.5 131h158q0 -9 3 -36t20.5 -55.5t55.5 -50.5t108 -22t108.5 22t56.5 50.5t22 55.5t4 36h154q6 -69 -16 -131t-67.5 -108.5t-112 -74t-149.5 -27.5zM102 772q4 191 60.5 334.5t152.5 239.5t223.5 144t273.5 48 q152 0 276 -55t211 -156t132.5 -245t42.5 -321q-4 -191 -57.5 -335t-145.5 -241.5t-217 -147.5t-272 -53q-159 -3 -286 54.5t-216 162.5t-135 251t-43 320zM789 162q102 0 185 39t141.5 116t90.5 191t32 264q0 119 -27.5 226t-82 187.5t-135.5 128t-188 47.5 q-95 0 -179.5 -36t-148.5 -110.5t-101.5 -188t-37.5 -268.5q0 -118 28.5 -225.5t85 -190t141 -131.5t196.5 -49z" />
<glyph unicode="&#x14f;" horiz-adv-x="1225" d="M98 594q2 137 42.5 242t110.5 176t165 107.5t206 36.5q139 0 235.5 -49.5t157 -133.5t87 -194.5t25.5 -232.5q-2 -137 -42.5 -242t-110.5 -176t-165.5 -107.5t-206.5 -36.5q-138 0 -234.5 49.5t-157 133.5t-87.5 194.5t-25 232.5zM608 146q71 -2 124.5 25.5t89.5 80.5 t54 130t18 175q0 90 -16 169t-50 137.5t-86.5 93t-124.5 35.5q-142 3 -214 -102t-72 -300q0 -90 16.5 -170.5t50.5 -140.5t86 -96t124 -37zM621 1306q-86 0 -153 32t-112 85t-66 121.5t-15 140.5h159q0 -7 1 -24.5t6.5 -40t16.5 -47t32 -44.5t53 -33t79 -13t79 13t53 33 t32.5 44.5t17 47t7 40t1.5 24.5h155q6 -72 -16.5 -140.5t-68.5 -121.5t-112.5 -85t-148.5 -32z" />
<glyph unicode="&#x150;" horiz-adv-x="1577" d="M102 772q4 191 60.5 334.5t152.5 239.5t223.5 144t273.5 48q152 0 276 -55t211 -156t132.5 -245t42.5 -321q-4 -191 -57.5 -335t-145.5 -241.5t-217 -147.5t-272 -53q-159 -3 -286 54.5t-216 162.5t-135 251t-43 320zM789 162q102 0 185 39t141.5 116t90.5 191t32 264 q0 119 -27.5 226t-82 187.5t-135.5 128t-188 47.5q-95 0 -179.5 -36t-148.5 -110.5t-101.5 -188t-37.5 -268.5q0 -118 28.5 -225.5t85 -190t141 -131.5t196.5 -49zM452 1707q2 2 18 23.5t38.5 52.5t48 67t47.5 68t37.5 54.5t17.5 26.5l178 -89q-30 -42 -64 -84t-68 -78.5 t-66.5 -66t-59.5 -46.5zM922 1707q2 3 18.5 23.5t40 51t50.5 65.5t50.5 65.5t39.5 52.5t18 26l168 -89q-27 -39 -59.5 -79t-66.5 -76t-68 -65.5t-62 -46.5z" />
<glyph unicode="&#x151;" horiz-adv-x="1225" d="M246 1414q2 2 22 33.5t49 77t62 98.5t61.5 98l47.5 75t20 31l165 -114q-15 -27 -39.5 -61.5t-54 -71.5t-61.5 -74t-63 -69.5t-58 -57.5t-46 -38zM746 1414q1 2 21.5 32.5t50.5 75t64.5 96t64 96t49 73.5t20.5 30l159 -112q-13 -25 -36.5 -58.5t-53 -70t-62.5 -73t-65 -69 t-60.5 -57t-48.5 -36.5zM98 594q2 137 42.5 242t110.5 176t165 107.5t206 36.5q139 0 235.5 -49.5t157 -133.5t87 -194.5t25.5 -232.5q-2 -137 -42.5 -242t-110.5 -176t-165.5 -107.5t-206.5 -36.5q-138 0 -234.5 49.5t-157 133.5t-87.5 194.5t-25 232.5zM608 146 q71 -2 124.5 25.5t89.5 80.5t54 130t18 175q0 90 -16 169t-50 137.5t-86.5 93t-124.5 35.5q-142 3 -214 -102t-72 -300q0 -90 16.5 -170.5t50.5 -140.5t86 -96t124 -37z" />
<glyph unicode="&#x152;" horiz-adv-x="2074" d="M102 769q4 189 57.5 331t146.5 237.5t221 145.5t281 55q52 2 115 -7t120 -34v25h881v-179h-648v-470h476v-179h-476v-512h720v-182h-953v51q-54 -30 -117 -47.5t-149 -19.5q-158 -3 -284.5 55t-214.5 163.5t-133.5 250.5t-42.5 316zM788 160q75 0 139 19t116 61v1060 q-47 32 -105.5 46.5t-132.5 14.5q-92 0 -176.5 -34.5t-149 -107.5t-103.5 -187.5t-39 -273.5q0 -120 29 -228.5t85.5 -190.5t141 -130.5t195.5 -48.5z" />
<glyph unicode="&#x153;" horiz-adv-x="1931" d="M599 -16q-137 0 -233 49.5t-156 133.5t-87 194.5t-25 232.5q2 137 43 242t111 176t164.5 107.5t205.5 36.5q140 0 235.5 -50.5t155.5 -137.5q64 87 162.5 136.5t232.5 51.5q86 1 161.5 -25.5t133 -80.5t92 -135.5t37.5 -190.5q0 -65 -1.5 -115.5t-9.5 -88.5h-701 q0 -5 0.5 -8.5t0.5 -8.5q4 -99 32 -165.5t74 -106.5t106 -57t129 -17q30 0 71.5 5t83 13t78 19.5t57.5 23.5l43 -131q-28 -23 -72.5 -42t-97.5 -32.5t-110 -21t-110 -7.5q-135 0 -235 47t-165 138q-71 -92 -175 -138.5t-231 -46.5zM1617 668q4 61 -3 120t-31 105t-69 74.5 t-118 28.5q-51 0 -96 -17t-80.5 -56t-60 -101.5t-34.5 -153.5h492zM606 146q71 -2 125 25.5t90.5 80.5t55 130t18.5 175q0 90 -16.5 169t-50.5 137.5t-87 93t-125 35.5q-140 3 -212.5 -101.5t-72.5 -300.5q0 -90 16.5 -170.5t50.5 -140.5t85.5 -96t122.5 -37z" />
<glyph unicode="&#x168;" horiz-adv-x="1473" d="M331 1769q17 43 48 79t69.5 62t81.5 41t84 15q40 0 70.5 -10.5t54.5 -25.5t43.5 -33.5t38.5 -33.5t39.5 -25.5t46.5 -10.5q27 0 52 9.5t47.5 24t41.5 32t34 33.5l87 -75q-17 -42 -48 -78t-69 -62.5t-81 -41t-84 -14.5q-40 0 -70 10.5t-54 26.5t-43.5 35t-39 35 t-40.5 26.5t-47 10.5q-27 0 -52 -9.5t-47 -24.5t-41.5 -33t-34.5 -35zM161 1522h233l-2 -835q0 -155 24 -256t70 -160t113 -82t153 -23q76 0 137.5 23.5t104 82.5t65.5 159.5t23 255.5v835h232v-892q0 -155 -34.5 -275.5t-104.5 -203t-177 -125t-251 -42.5 q-158 0 -269.5 43.5t-182 126.5t-103 203.5t-32.5 274.5z" />
<glyph unicode="&#x169;" horiz-adv-x="1261" d="M171 1140h229v-667q0 -103 11.5 -163t36.5 -91t64 -40t94 -9q32 0 68 7.5t70 19.5t63 25.5t47 25.5v892h230v-1156h-96q-26 0 -46 2.5t-33.5 11.5t-21 26t-7.5 47v29q-35 -22 -79.5 -43t-93.5 -37t-99 -26t-96 -10q-110 0 -176.5 35.5t-103.5 100t-49 154.5t-12 200v666z M217 1453q16 37 43.5 72.5t63 63.5t77.5 44.5t88 16.5q41 0 72 -10t55 -25.5t44 -33t39.5 -33t40 -25.5t46.5 -10q34 0 61 9t49 23t40 31.5t33 34.5l88 -76q-18 -40 -45.5 -75.5t-62.5 -62t-76.5 -42t-87.5 -15.5q-43 0 -74.5 10t-56 25.5t-44 33t-38 33t-39 25.5t-46.5 10 q-30 0 -56.5 -9t-49.5 -23.5t-42.5 -31.5t-34.5 -33z" />
<glyph unicode="&#x16a;" horiz-adv-x="1473" d="M475 1893h552v-167h-552v167zM161 1522h233l-2 -835q0 -155 24 -256t70 -160t113 -82t153 -23q76 0 137.5 23.5t104 82.5t65.5 159.5t23 255.5v835h232v-892q0 -155 -34.5 -275.5t-104.5 -203t-177 -125t-251 -42.5q-158 0 -269.5 43.5t-182 126.5t-103 203.5 t-32.5 274.5z" />
<glyph unicode="&#x16b;" horiz-adv-x="1261" d="M171 1140h229v-667q0 -103 11.5 -163t36.5 -91t64 -40t94 -9q32 0 68 7.5t70 19.5t63 25.5t47 25.5v892h230v-1156h-96q-26 0 -46 2.5t-33.5 11.5t-21 26t-7.5 47v29q-35 -22 -79.5 -43t-93.5 -37t-99 -26t-96 -10q-110 0 -176.5 35.5t-103.5 100t-49 154.5t-12 200v666z M365 1591h552v-168h-552v168z" />
<glyph unicode="&#x16c;" horiz-adv-x="1473" d="M749 1629q-87 0 -154 27.5t-111.5 74t-65 108.5t-14.5 131h158q0 -9 3 -36t20.5 -55.5t55.5 -50.5t108 -22t108.5 22t56.5 50.5t22 55.5t4 36h154q6 -69 -16 -131t-67.5 -108.5t-112 -74t-149.5 -27.5zM161 1522h233l-2 -835q0 -155 24 -256t70 -160t113 -82t153 -23 q76 0 137.5 23.5t104 82.5t65.5 159.5t23 255.5v835h232v-892q0 -155 -34.5 -275.5t-104.5 -203t-177 -125t-251 -42.5q-158 0 -269.5 43.5t-182 126.5t-103 203.5t-32.5 274.5z" />
<glyph unicode="&#x16d;" horiz-adv-x="1261" d="M171 1140h229v-667q0 -103 11.5 -163t36.5 -91t64 -40t94 -9q32 0 68 7.5t70 19.5t63 25.5t47 25.5v892h230v-1156h-96q-26 0 -46 2.5t-33.5 11.5t-21 26t-7.5 47v29q-35 -22 -79.5 -43t-93.5 -37t-99 -26t-96 -10q-110 0 -176.5 35.5t-103.5 100t-49 154.5t-12 200v666z M639 1306q-86 0 -153 32t-112 85t-66 121.5t-15 140.5h159q0 -7 1 -24.5t6.5 -40t16.5 -47t32 -44.5t53 -33t79 -13t79 13t53 33t32.5 44.5t17 47t7 40t1.5 24.5h155q6 -72 -16.5 -140.5t-68.5 -121.5t-112.5 -85t-148.5 -32z" />
<glyph unicode="&#x16e;" horiz-adv-x="1473" d="M161 1522h233l-2 -835q0 -155 24 -256t70 -160t113 -82t153 -23q76 0 137.5 23.5t104 82.5t65.5 159.5t23 255.5v835h232v-892q0 -155 -34.5 -275.5t-104.5 -203t-177 -125t-251 -42.5q-158 0 -269.5 43.5t-182 126.5t-103 203.5t-32.5 274.5zM745 1432q-73 0 -132.5 19 t-101.5 54.5t-64.5 86.5t-21.5 115q1 72 29.5 122.5t74.5 82t103.5 45.5t116.5 14q73 0 133 -17t102.5 -50.5t65 -83t22.5 -114.5q-1 -72 -27.5 -124t-71.5 -85.5t-104 -49t-124 -15.5zM746 1561q37 0 68 7t53.5 24.5t35 45t12.5 67.5q0 35 -13 61t-36 43t-53.5 26t-66.5 9 q-30 0 -59 -6t-52 -21.5t-37 -42t-14 -67.5q0 -67 43.5 -105.5t118.5 -40.5z" />
<glyph unicode="&#x16f;" horiz-adv-x="1261" d="M636 1326q-73 0 -132.5 20t-101.5 56.5t-64.5 88.5t-21.5 116q1 72 29.5 123t74.5 83.5t103.5 47t116.5 14.5q73 0 133 -17.5t102.5 -52t65 -84.5t22.5 -115q-1 -72 -27.5 -125t-71.5 -87.5t-104 -51t-124 -16.5zM637 1454q37 0 68 8.5t53.5 26.5t35 47t12.5 69 q0 35 -13 61.5t-36 45t-53.5 28t-66.5 9.5q-30 0 -59 -6.5t-52 -23t-37 -44t-14 -68.5q0 -33 11.5 -61t32.5 -48t51 -31.5t67 -12.5zM171 1140h229v-667q0 -103 11.5 -163t36.5 -91t64 -40t94 -9q32 0 68 7.5t70 19.5t63 25.5t47 25.5v892h230v-1156h-96q-26 0 -46 2.5 t-33.5 11.5t-21 26t-7.5 47v29q-35 -22 -79.5 -43t-93.5 -37t-99 -26t-96 -10q-110 0 -176.5 35.5t-103.5 100t-49 154.5t-12 200v666z" />
<glyph unicode="&#x170;" horiz-adv-x="1473" d="M161 1522h233l-2 -835q0 -155 24 -256t70 -160t113 -82t153 -23q76 0 137.5 23.5t104 82.5t65.5 159.5t23 255.5v835h232v-892q0 -155 -34.5 -275.5t-104.5 -203t-177 -125t-251 -42.5q-158 0 -269.5 43.5t-182 126.5t-103 203.5t-32.5 274.5zM389 1707q2 2 18 23.5 t38.5 52.5t48 67t47.5 68t37.5 54.5t17.5 26.5l178 -89q-30 -42 -64 -84t-68 -78.5t-66.5 -66t-59.5 -46.5zM859 1707q2 3 18.5 23.5t40 51t50.5 65.5t50.5 65.5t39.5 52.5t18 26l168 -89q-27 -39 -59.5 -79t-66.5 -76t-68 -65.5t-62 -46.5z" />
<glyph unicode="&#x171;" horiz-adv-x="1261" d="M171 1140h229v-667q0 -103 11.5 -163t36.5 -91t64 -40t94 -9q32 0 68 7.5t70 19.5t63 25.5t47 25.5v892h230v-1156h-96q-26 0 -46 2.5t-33.5 11.5t-21 26t-7.5 47v29q-35 -22 -79.5 -43t-93.5 -37t-99 -26t-96 -10q-110 0 -176.5 35.5t-103.5 100t-49 154.5t-12 200v666z M264 1414q2 2 22 33.5t49 77t62 98.5t61.5 98l47.5 75t20 31l165 -114q-15 -27 -39.5 -61.5t-54 -71.5t-61.5 -74t-63 -69.5t-58 -57.5t-46 -38zM764 1414q1 2 21.5 32.5t50.5 75t64.5 96t64 96t49 73.5t20.5 30l159 -112q-13 -25 -36.5 -58.5t-53 -70t-62.5 -73t-65 -69 t-60.5 -57t-48.5 -36.5z" />
<glyph unicode="&#x192;" horiz-adv-x="1171" d="M418 967h-202l9 120l206 53l8 66q16 132 59 223.5t105.5 148.5t140.5 82t164 25q67 0 104.5 -6.5t48.5 -11.5l-13 -185q-15 8 -56 13.5t-109 5.5q-39 0 -74 -11t-63 -38t-48 -73t-28 -115l-14 -124h296l-13 -173h-297l-111 -1323h-225z" />
<glyph unicode="&#x1c7;" horiz-adv-x="1810" d="M195 1522h239v-1340h597v-182h-836v1522zM1048 -211q39 14 81 37.5t79.5 57.5t68 79t46.5 104q12 45 18.5 104.5t9.5 129t3.5 147.5t0.5 160v914h236v-909q0 -150 0.5 -283.5t-19.5 -242.5q-11 -66 -37.5 -121t-63 -99.5t-80.5 -79t-91 -59t-94 -39.5t-89 -21l-69 121v0z " />
<glyph unicode="&#x1c8;" horiz-adv-x="1674" d="M195 1522h239v-1340h597v-182h-836v1522zM1282 1138h229v-1099q0 -149 -23.5 -253t-69 -169t-112 -94.5t-152.5 -29.5q-13 0 -35 1t-44 2.5t-40 4.5t-24 6v167q8 -4 22.5 -8t31 -7t33.5 -5t30 -2q45 0 74.5 19t47 57t25 94.5t7.5 131.5v1184zM1387 1343q-29 0 -55.5 9.5 t-46.5 27.5t-31.5 43.5t-11.5 57.5q0 33 14.5 62t38 50.5t53 34t60.5 12.5q36 0 63.5 -10.5t45.5 -29.5t27 -44t9 -54q0 -35 -14 -64.5t-37 -50.5t-53 -32.5t-62 -11.5z" />
<glyph unicode="&#x1c9;" horiz-adv-x="1210" d="M197 1664h230v-1664h-230v1664zM818 1138h229v-1099q0 -149 -23.5 -253t-69 -169t-112 -94.5t-152.5 -29.5q-13 0 -35 1t-44 2.5t-40 4.5t-24 6v167q8 -4 22.5 -8t31 -7t33.5 -5t30 -2q45 0 74.5 19t47 57t25 94.5t7.5 131.5v1184zM923 1343q-29 0 -55.5 9.5t-46.5 27.5 t-31.5 43.5t-11.5 57.5q0 33 14.5 62t38 50.5t53 34t60.5 12.5q36 0 63.5 -10.5t45.5 -29.5t27 -44t9 -54q0 -35 -14 -64.5t-37 -50.5t-53 -32.5t-62 -11.5z" />
<glyph unicode="&#x1ca;" horiz-adv-x="2287" d="M194 1522h214l643 -995l122 -226l-15 261v960h213v-1522h-218l-621 958l-139 248l15 -271v-935h-214v1522zM1525 -211q39 14 81 37.5t79.5 57.5t68 79t46.5 104q12 45 18.5 104.5t9.5 129t3.5 147.5t0.5 160v914h236v-909q0 -150 0.5 -283.5t-19.5 -242.5 q-11 -66 -37.5 -121t-63 -99.5t-80.5 -79t-91 -59t-94 -39.5t-89 -21l-69 121v0z" />
<glyph unicode="&#x1cb;" horiz-adv-x="2151" d="M194 1522h214l643 -995l122 -226l-15 261v960h213v-1522h-218l-621 958l-139 248l15 -271v-935h-214v1522zM1759 1138h229v-1099q0 -149 -23.5 -253t-69 -169t-112 -94.5t-152.5 -29.5q-13 0 -35 1t-44 2.5t-40 4.5t-24 6v167q8 -4 22.5 -8t31 -7t33.5 -5t30 -2 q45 0 74.5 19t47 57t25 94.5t7.5 131.5v1184zM1864 1343q-29 0 -55.5 9.5t-46.5 27.5t-31.5 43.5t-11.5 57.5q0 33 14.5 62t38 50.5t53 34t60.5 12.5q36 0 63.5 -10.5t45.5 -29.5t27 -44t9 -54q0 -35 -14 -64.5t-37 -50.5t-53 -32.5t-62 -11.5z" />
<glyph unicode="&#x1cc;" horiz-adv-x="1877" d="M178 1138h205l1 -120q32 22 77 46t97.5 44t109 33.5t112.5 15.5q92 2 156.5 -20.5t105 -75.5t59 -139t18.5 -211v-711h-229v709q0 70 -8 121t-31 83t-64 46t-106 10q-28 -1 -62 -8.5t-70 -20.5t-72.5 -32t-69.5 -43v-865h-229v1138zM1485 1138h229v-1099 q0 -149 -23.5 -253t-69 -169t-112 -94.5t-152.5 -29.5q-13 0 -35 1t-44 2.5t-40 4.5t-24 6v167q8 -4 22.5 -8t31 -7t33.5 -5t30 -2q45 0 74.5 19t47 57t25 94.5t7.5 131.5v1184zM1590 1343q-29 0 -55.5 9.5t-46.5 27.5t-31.5 43.5t-11.5 57.5q0 33 14.5 62t38 50.5t53 34 t60.5 12.5q36 0 63.5 -10.5t45.5 -29.5t27 -44t9 -54q0 -35 -14 -64.5t-37 -50.5t-53 -32.5t-62 -11.5z" />
<glyph unicode="&#x1f1;" horiz-adv-x="2782" d="M195 1522h113q36 0 79.5 2.5t91 5.5t97 5.5t97.5 2.5q184 0 320 -49.5t225.5 -144t133.5 -230.5t44 -310q0 -195 -52 -348.5t-148.5 -259.5t-235 -160.5t-311.5 -51.5q-39 1 -85.5 3.5t-95.5 5.5t-97 5t-90 2h-86v1522zM429 174q24 -5 55 -8.5t64.5 -6t68 -3t66.5 -0.5 q103 2 189.5 37.5t149 110t97.5 190t35 277.5q0 167 -33.5 281.5t-100.5 185t-166 101.5t-231 31q-60 0 -110.5 -4t-83.5 -11v-1181zM2338 1264l59 73h-742v185h1002l46 -81l-751 -1173l-74 -86h766v-182h-1028l-45 84z" />
<glyph unicode="&#x1f2;" horiz-adv-x="2551" d="M195 1522h113q36 0 79.5 2.5t91 5.5t97 5.5t97.5 2.5q184 0 320 -49.5t225.5 -144t133.5 -230.5t44 -310q0 -195 -52 -348.5t-148.5 -259.5t-235 -160.5t-311.5 -51.5q-39 1 -85.5 3.5t-95.5 5.5t-97 5t-90 2h-86v1522zM429 174q24 -5 55 -8.5t64.5 -6t68 -3t66.5 -0.5 q103 2 189.5 37.5t149 110t97.5 190t35 277.5q0 167 -33.5 281.5t-100.5 185t-166 101.5t-231 31q-60 0 -110.5 -4t-83.5 -11v-1181zM2111 883l57 84h-543v173h818l35 -95l-544 -794l-60 -84h583v-167h-851l-42 82z" />
<glyph unicode="&#x1f3;" horiz-adv-x="2320" d="M99 528q0 139 40.5 254.5t115.5 198.5t180.5 129t234.5 46q56 0 103 -8.5t83 -19.5l-3 65v471h230v-1680h-107q-25 0 -45 2.5t-34.5 11.5t-22 26t-7.5 46v43q-20 -20 -47.5 -42.5t-66 -42t-89 -32t-116.5 -12.5q-90 0 -171 33t-143 100.5t-98.5 169.5t-36.5 241zM613 163 q40 0 76 9t66.5 22.5t55 29t42.5 29.5v688q-29 26 -79.5 37.5t-122.5 11.5q-67 0 -124.5 -28t-100 -82.5t-67.5 -135.5t-26 -187q-2 -202 71 -298t209 -96zM1880 883l57 84h-543v173h818l35 -95l-544 -794l-60 -84h583v-167h-851l-42 82z" />
<glyph unicode="&#x1fc;" horiz-adv-x="1872" d="M896 1665q2 2 27.5 25t62.5 56.5t79.5 73t79.5 74t61.5 59t26.5 28.5l154 -133q-35 -36 -85 -78.5t-104 -81.5t-108 -70.5t-96 -46.5zM650 1522h1072v-179h-648v-470h476v-179h-476v-512h721v-182h-954v379h-479l-178 -379h-256zM841 551v825h-9l-389 -825h398z" />
<glyph unicode="&#x1fd;" horiz-adv-x="1791" d="M775 1385q42 46 86.5 95t88 100t85.5 102.5t78 103.5l162 -138q-13 -22 -41 -55t-64.5 -70t-77.5 -75t-80 -70.5t-71 -56t-51 -30.5zM96 306q0 55 16.5 102.5t46 86.5t70.5 69t89 51q100 42 213 58t223 16v113q0 59 -14 95t-42 55.5t-70 26t-98 6.5q-38 0 -85 -8t-93 -21 t-85 -28t-61 -28l-55 151q16 10 61 27.5t105.5 35t131.5 30.5t139 13q59 0 109.5 -6.5t91.5 -22t73 -42.5t54 -68q64 63 152 99.5t202 38.5q85 1 161 -25.5t133 -80.5t91.5 -135.5t37.5 -190.5q0 -65 -1.5 -115.5t-9.5 -88.5h-701q0 -5 0.5 -8.5t0.5 -8.5q5 -102 33 -169 t73.5 -106t105.5 -55t130 -16q30 0 71 5t82.5 13t78.5 19.5t58 23.5l43 -131q-28 -23 -73 -42t-98 -32.5t-110.5 -21t-110.5 -7.5q-269 0 -399 177q-80 -93 -186.5 -135t-227.5 -42q-76 0 -141 22t-113 64t-75 101.5t-27 134.5zM1478 668q4 61 -3 120t-31 105t-69 74.5 t-118 28.5q-50 0 -95 -17t-80.5 -56t-60 -101.5t-34.5 -153.5h491zM327 326q0 -87 44.5 -130.5t141.5 -43.5q39 0 81.5 9.5t82 26t73 40t53.5 51.5q-22 57 -33.5 123.5t-13.5 144.5q-41 0 -83 -3t-82 -9.5t-76.5 -17t-66.5 -24.5q-27 -13 -49.5 -28t-38.5 -35t-24.5 -45.5 t-8.5 -58.5z" />
<glyph unicode="&#x237;" horiz-adv-x="586" d="M194 1138h229v-1099q0 -149 -23.5 -253t-69 -169t-112 -94.5t-152.5 -29.5q-13 0 -35 1t-44 2.5t-40 4.5t-24 6v167q8 -4 22.5 -8t31 -7t33.5 -5t30 -2q45 0 74.5 19t47 57t25 94.5t7.5 131.5v1184z" />
<glyph unicode="&#x259;" horiz-adv-x="1135" d="M99 420q0 65 1.5 115.5t9.5 88.5h701v17q-5 99 -33.5 165.5t-74.5 107t-106.5 57.5t-130.5 17q-30 0 -70.5 -5t-81 -13.5t-76.5 -19.5t-57 -23l-43 130q28 23 72.5 42t97 32.5t109.5 21t110 7.5q123 0 217.5 -40t159.5 -115.5t98.5 -184.5t33.5 -248q0 -125 -33 -230.5 t-97.5 -183.5t-160.5 -123t-222 -47q-86 -2 -161.5 25t-132.5 81t-92 135.5t-38 190.5zM535 148q51 0 96 17t80.5 56t60 101.5t34.5 153.5h-492q-4 -61 3 -120t31 -105t69 -74.5t118 -28.5z" />
<glyph unicode="&#x2c6;" horiz-adv-x="839" d="M46 1352l278 334h199l271 -333l-138 -60l-233 221l-248 -222z" />
<glyph unicode="&#x2c7;" horiz-adv-x="824" d="M46 1626l129 60l248 -222l233 221l138 -60l-271 -333h-199z" />
<glyph unicode="&#x2d8;" horiz-adv-x="786" d="M393 1306q-86 0 -153 32t-112 85t-66 121.5t-15 140.5h159q0 -7 1 -24.5t6.5 -40t16.5 -47t32 -44.5t53 -33t79 -13t79 13t53 33t32.5 44.5t17 47t7 40t1.5 24.5h155q6 -72 -16.5 -140.5t-68.5 -121.5t-112.5 -85t-148.5 -32z" />
<glyph unicode="&#x2d9;" horiz-adv-x="411" d="M195 1343q-29 0 -55.5 9.5t-46.5 27.5t-31.5 43.5t-11.5 57.5q0 33 14.5 62t38 50.5t53 34t60.5 12.5q36 0 63.5 -10.5t45.5 -29.5t27 -44t9 -54q0 -35 -14 -64.5t-37 -50.5t-53 -32.5t-62 -11.5z" />
<glyph unicode="&#x2da;" horiz-adv-x="734" d="M363 1326q-73 0 -132.5 20t-101.5 56.5t-64.5 88.5t-21.5 116q1 72 29.5 123t74.5 83.5t103.5 47t116.5 14.5q73 0 133 -17.5t102.5 -52t65 -84.5t22.5 -115q-1 -72 -27.5 -125t-71.5 -87.5t-104 -51t-124 -16.5zM364 1454q37 0 68 8.5t53.5 26.5t35 47t12.5 69 q0 35 -13 61.5t-36 45t-53.5 28t-66.5 9.5q-30 0 -59 -6.5t-52 -23t-37 -44t-14 -68.5q0 -33 11.5 -61t32.5 -48t51 -31.5t67 -12.5z" />
<glyph unicode="&#x2dc;" horiz-adv-x="927" d="M44 1453q16 37 43.5 72.5t63 63.5t77.5 44.5t88 16.5q41 0 72 -10t55 -25.5t44 -33t39.5 -33t40 -25.5t46.5 -10q34 0 61 9t49 23t40 31.5t33 34.5l88 -76q-18 -40 -45.5 -75.5t-62.5 -62t-76.5 -42t-87.5 -15.5q-43 0 -74.5 10t-56 25.5t-44 33t-38 33t-39 25.5 t-46.5 10q-30 0 -56.5 -9t-49.5 -23.5t-42.5 -31.5t-34.5 -33z" />
<glyph unicode="&#x2dd;" horiz-adv-x="1035" d="M40 1388q2 2 22 33.5t49 77t62 98.5t61.5 98l47.5 75t20 31l165 -114q-15 -27 -39.5 -61.5t-54 -71.5t-61.5 -74t-63 -69.5t-58 -57.5t-46 -38zM540 1388q1 2 21.5 32.5t50.5 75t64.5 96t64 96t49 73.5t20.5 30l159 -112q-13 -25 -36.5 -58.5t-53 -70t-62.5 -73t-65 -69 t-60.5 -57t-48.5 -36.5z" />
<glyph unicode="&#x3c0;" horiz-adv-x="1558" d="M175 99q14 3 47.5 19t71.5 44q42 30 66 65.5t37.5 76t19 86t10.5 97.5l36 463h-54q-36 0 -64 -8.5t-50 -21.5t-39 -28.5t-31 -30.5l-112 56q1 9 5.5 24t11.5 31.5t15.5 33t17.5 29.5q41 54 107.5 79.5t173.5 25.5h724q62 0 97.5 17t49.5 58h144q-4 -72 -25.5 -122.5 t-59 -82.5t-90.5 -46.5t-122 -14.5h-5l-28 -689q-2 -32 3.5 -53t15 -33t23 -16.5t27.5 -4.5q22 0 44.5 13t43 33t37.5 43t28 43l107 -53q-8 -45 -36.5 -91t-72.5 -82.5t-100.5 -59.5t-121.5 -23q-116 0 -165 72.5t-41 201.5l50 699h-316l-28 -524q-5 -85 -17.5 -142.5 t-33 -98.5t-48 -71.5t-61.5 -61.5q-29 -26 -68.5 -45.5t-85.5 -29.5l-138 123v0z" />
<glyph unicode="&#x1e0b;" horiz-adv-x="1251" d="M99 528q0 139 40.5 254.5t115.5 198.5t180.5 129t234.5 46q56 0 103 -8.5t83 -19.5l-3 65v471h230v-1680h-107q-25 0 -45 2.5t-34.5 11.5t-22 26t-7.5 46v43q-20 -20 -47.5 -42.5t-66 -42t-89 -32t-116.5 -12.5q-90 0 -171 33t-143 100.5t-98.5 169.5t-36.5 241zM613 163 q40 0 76 9t66.5 22.5t55 29t42.5 29.5v688q-29 26 -79.5 37.5t-122.5 11.5q-67 0 -124.5 -28t-100 -82.5t-67.5 -135.5t-26 -187q-2 -202 71 -298t209 -96zM357 1343q-29 0 -55.5 9.5t-46.5 27.5t-31.5 43.5t-11.5 57.5q0 33 14.5 62t38 50.5t53 34t60.5 12.5 q36 0 63.5 -10.5t45.5 -29.5t27 -44t9 -54q0 -35 -14 -64.5t-37 -50.5t-53 -32.5t-62 -11.5z" />
<glyph unicode="&#x1e1e;" horiz-adv-x="1093" d="M668 1665q-29 0 -55 9.5t-45.5 27t-30.5 42.5t-11 57q0 33 14 61.5t37 49.5t52 33t60 12q73 0 107.5 -38.5t34.5 -97.5q0 -35 -13.5 -63.5t-36 -49t-52 -32t-61.5 -11.5zM195 1522h879v-179h-645v-491h484v-179h-484v-673h-234v1522z" />
<glyph unicode="&#x1e9e;" horiz-adv-x="1495" d="M105 753q0 183 42.5 328.5t128 247t215.5 155.5t305 54q102 0 174.5 -14.5t126.5 -31.5t95 -31.5t79 -14.5l-2 -100l-260 -428q80 0 153 -27.5t129 -83.5t89 -141.5t33 -200.5q0 -96 -30.5 -184t-91 -155.5t-150.5 -108t-209 -40.5q-80 0 -140 7t-106 18.5t-80 27 t-63 33.5l81 174q18 -17 49 -33t69 -28t79.5 -19.5t81.5 -7.5q54 0 106.5 19t94 58t66.5 98t25 139q0 90 -22 152t-73.5 100.5t-135 56t-206.5 17.5l9 82l252 442q-38 29 -94.5 45t-122.5 16q-96 0 -181.5 -30.5t-149.5 -93.5t-101 -158t-37 -224v-868h-228v753z" />
<glyph unicode="&#x2002;" horiz-adv-x="0" />
<glyph unicode="&#x2009;" horiz-adv-x="0" />
<glyph unicode="&#x200b;" horiz-adv-x="0" />
<glyph unicode="&#x200c;" horiz-adv-x="0" />
<glyph unicode="&#x2013;" horiz-adv-x="1693" d="M240 863h1212v-183h-1212v183z" />
<glyph unicode="&#x2014;" horiz-adv-x="2347" d="M240 863h1866v-183h-1866v183z" />
<glyph unicode="&#x2018;" horiz-adv-x="528" d="M305 957q-44 16 -82 49.5t-65.5 81t-43 108t-15.5 129.5q0 79 21.5 146t53.5 119.5t67.5 89.5t64.5 55l100 -63v-32q-22 -18 -39.5 -49t-30 -68t-19 -77t-6.5 -76q0 -40 10.5 -76t26.5 -65t36 -49.5t39 -29.5v-63l-118 -130v0z" />
<glyph unicode="&#x2019;" horiz-adv-x="528" d="M130 1020v32q17 18 31 49t23.5 68t15 77t5.5 76q0 41 -8.5 78.5t-22 68.5t-30 52.5t-32.5 31.5v62l148 120q33 -16 62 -43t50 -67.5t33 -94.5t12 -123q0 -95 -20 -170.5t-48.5 -131.5t-61.5 -93t-58 -55z" />
<glyph unicode="&#x201a;" horiz-adv-x="528" d="M130 -479v32q17 18 31 49t23.5 68t15 77t5.5 76q0 41 -8.5 78.5t-22 68.5t-30 52.5t-32.5 31.5v62l148 120q33 -16 62 -43t50 -67.5t33 -94.5t12 -123q0 -95 -20 -170.5t-48.5 -131.5t-61.5 -93t-58 -55z" />
<glyph unicode="&#x201b;" horiz-adv-x="528" d="M306 957q-29 18 -64.5 55t-67.5 89.5t-53.5 119.5t-21.5 146q0 69 15.5 129.5t43 108t65.5 81t82 49.5l118 -130v-62q-19 -9 -39 -30t-36 -50t-26.5 -65t-10.5 -76q0 -36 6.5 -76t19 -77t30 -68t39.5 -49v-32l-100 -63v0z" />
<glyph unicode="&#x201c;" horiz-adv-x="1040" d="M305 957q-44 16 -82 49.5t-65.5 81t-43 108t-15.5 129.5q0 79 21.5 146t53.5 119.5t67.5 89.5t64.5 55l100 -63v-32q-22 -18 -39.5 -49t-30 -68t-19 -77t-6.5 -76q0 -40 10.5 -76t26.5 -65t36 -49.5t39 -29.5v-63l-118 -130v0zM823 957q-44 16 -82 49.5t-65.5 81t-43 108 t-15.5 129.5q0 79 21.5 146t53.5 119.5t67.5 89.5t64.5 55l100 -63v-32q-22 -18 -39.5 -49t-30 -68t-19 -77t-6.5 -76q0 -40 10.5 -76t26.5 -65t36 -49.5t39 -29.5v-63l-118 -130v0z" />
<glyph unicode="&#x201d;" horiz-adv-x="1041" d="M130 1020v32q17 18 31 49t23.5 68t15 77t5.5 76q0 41 -8.5 78.5t-22 68.5t-30 52.5t-32.5 31.5v62l148 120q33 -16 62 -43t50 -67.5t33 -94.5t12 -123q0 -95 -20 -170.5t-48.5 -131.5t-61.5 -93t-58 -55zM649 1020v32q17 18 31 49t23.5 68t15 77t5.5 76q0 41 -8.5 78.5 t-22 68.5t-30 52.5t-32.5 31.5v62l148 120q33 -16 62 -43t50 -67.5t33 -94.5t12 -123q0 -95 -20 -170.5t-48.5 -131.5t-61.5 -93t-58 -55z" />
<glyph unicode="&#x201e;" horiz-adv-x="1040" d="M130 -455v32q17 18 31 49t23.5 68t15 77t5.5 76q0 41 -8.5 78.5t-22 68.5t-30 52.5t-32.5 31.5v62l148 120q33 -16 62 -43t50 -67.5t33 -94.5t12 -123q0 -95 -20 -170.5t-48.5 -131.5t-61.5 -93t-58 -55zM645 -455v32q17 18 31 49t23.5 68t15 77t5.5 76q0 41 -8.5 78.5 t-22 68.5t-30 52.5t-32.5 31.5v62l148 120q33 -16 62 -43t50 -67.5t33 -94.5t12 -123q0 -95 -20 -170.5t-48.5 -131.5t-61.5 -93t-58 -55z" />
<glyph unicode="&#x2020;" horiz-adv-x="1026" d="M411 1122l-289 -2l1 168l288 -4l-3 374h210l-3 -374l289 4v-168l-289 2l-11 -922h-182z" />
<glyph unicode="&#x2022;" horiz-adv-x="858" d="M419 495q-46 0 -86.5 18.5t-70 49.5t-45.5 72.5t-13 88.5q2 48 22 90.5t52 74t73.5 49.5t87.5 18t86.5 -17.5t70 -48t45.5 -72t13 -89.5q-2 -48 -22 -90.5t-52 -74.5t-73.5 -50.5t-87.5 -18.5z" />
<glyph unicode="&#x2026;" horiz-adv-x="2050" d="M1551 133q-1 36 12.5 68.5t36.5 56.5t53.5 38t62.5 14q36 0 63.5 -12.5t46.5 -33.5t29 -49t11 -59q1 -38 -12.5 -70.5t-36.5 -56.5t-53 -37.5t-63 -13.5q-30 0 -56.5 11.5t-47 32.5t-33 49.5t-13.5 61.5zM868 133q-1 36 12.5 68.5t36.5 56.5t53 38t62 14q37 0 64.5 -12.5 t46.5 -33.5t28.5 -49t10.5 -59q1 -38 -12 -70.5t-36 -56.5t-53.5 -37.5t-63.5 -13.5q-30 0 -56.5 11.5t-47 32.5t-32.5 49.5t-13 61.5zM184 133q-1 36 12.5 68.5t37 56.5t53.5 38t62 14q36 0 63.5 -12.5t46.5 -33.5t29 -49t11 -59q1 -38 -12 -70.5t-36 -56.5t-53.5 -37.5 t-63.5 -13.5q-30 0 -56.5 11.5t-47 32.5t-33 49.5t-13.5 61.5z" />
<glyph unicode="&#x2030;" horiz-adv-x="2827" d="M2005 461q0 101 32 179t86 132t124 82.5t146 30.5q93 2 161 -30t111.5 -89t64.5 -133.5t21 -163.5q0 -101 -32 -179t-86 -131t-124 -81t-146 -30q-86 -2 -152.5 30.5t-112 89.5t-69.5 133t-24 160zM2206 469q0 -58 11.5 -107.5t33 -85.5t53 -56.5t72.5 -20.5 q85 0 129.5 70t44.5 192q0 61 -11 111.5t-33 86.5t-53.5 56t-72.5 20q-84 0 -129 -71.5t-45 -194.5zM1211 1530h196l-644 -1530h-196zM432 660q-86 -2 -152.5 31t-112 90t-69 132.5t-23.5 159.5q0 102 32 180t85.5 132t123.5 82.5t146 30.5q94 2 161.5 -30t111 -89 t64.5 -134t21 -164q0 -101 -32 -179t-86 -131t-124 -81.5t-146 -29.5zM446 812q84 0 129 70t45 192q0 61 -11.5 111.5t-33.5 86t-53.5 55t-71.5 19.5q-42 0 -75 -18.5t-55 -53t-33.5 -83t-11.5 -109.5q0 -58 11.5 -107.5t33 -85.5t53.5 -56.5t73 -20.5zM1162 461 q0 101 32 179t85.5 132t123.5 82.5t147 30.5q93 2 160.5 -30t111 -89t64.5 -133.5t21 -163.5q0 -101 -32 -179t-86 -131t-124 -81t-146 -30q-86 -2 -152 30.5t-112 89.5t-69.5 133t-23.5 160zM1363 469q0 -58 11 -107.5t33 -85.5t53.5 -56.5t72.5 -20.5q85 0 129.5 70 t44.5 192q0 61 -11.5 111.5t-33 86.5t-53.5 56t-72 20q-85 0 -129.5 -71.5t-44.5 -194.5z" />
<glyph unicode="&#x2032;" horiz-adv-x="682" d="M282 1797h238l-163 -607h-170z" />
<glyph unicode="&#x2033;" horiz-adv-x="1098" d="M282 1797h238l-163 -607h-170zM698 1797h238l-163 -607h-170z" />
<glyph unicode="&#x2039;" horiz-adv-x="1204" d="M243 706l645 430l58 -169l-479 -352l479 -349l-58 -165l-645 415v190z" />
<glyph unicode="&#x203a;" horiz-adv-x="1204" d="M961.015 706l-644.96 430l-57.9971 -169l478.971 -352l-478.971 -349l57.9971 -165l644.96 415v190z" />
<glyph unicode="&#x2044;" horiz-adv-x="375" d="M-291 -119l760 1805l139 -35l-759 -1800z" />
<glyph unicode="&#x2070;" d="M505 677q-78 0 -140 24.5t-109.5 66.5t-81.5 99t-55.5 122t-31.5 135.5t-9 139.5q1 126 38.5 227.5t99 173t142 110.5t168.5 39q119 0 199.5 -45t129.5 -121t69.5 -177.5t19.5 -213.5q0 -78 -16 -151.5t-44 -138t-68 -118t-89 -92t-105 -59.5t-117 -21zM512 833 q61 0 106 36.5t74 95.5t43.5 134t14.5 152q0 86 -11.5 161.5t-38.5 131.5t-72.5 88.5t-113.5 32.5q-61 0 -106.5 -32t-75.5 -86t-45 -125.5t-15 -150.5q0 -78 12 -156.5t40.5 -141t74 -101.5t113.5 -39z" />
<glyph unicode="&#x2074;" d="M42 1002l398 863h158l43 -53l-361 -717l-53 -81l359 24l30 301h153v-288l200 14v-149h-200v-199h-184v199h-495z" />
<glyph unicode="&#x2075;" d="M155 857q13 -4 33 -8.5t44 -8t49.5 -6t48.5 -2.5q71 0 135 17t112 49t76.5 77t28.5 101q0 101 -60 152.5t-167 51.5q-39 0 -74 -5t-62.5 -12t-47 -14t-28.5 -10l-90 56l66 541h629v-141h-490l-53 -319q10 5 31.5 11.5t52 12.5t69 10t83.5 4q91 0 154 -24t102 -66.5 t56 -101t17 -128.5q0 -71 -32 -140.5t-94.5 -124.5t-155.5 -89.5t-215 -34.5q-75 0 -136.5 9.5t-108.5 22.5z" />
<glyph unicode="&#x2076;" d="M513 705q-101 0 -176.5 37t-126 98t-76 140t-25.5 163q0 100 23.5 188t64.5 163t97.5 136.5t122.5 108t139 78t147 46.5l90 -75q-88 -30 -159 -72t-126 -93t-94 -108.5t-64 -117.5q40 32 98 57t127 25q78 0 140 -26.5t105 -74.5t66 -115t23 -148q0 -79 -26.5 -153 t-77.5 -131t-124.5 -91.5t-167.5 -34.5zM518 834q55 0 92 23t59.5 58.5t31.5 78.5t9 84q0 75 -17 126t-44 82t-62 44t-71 13q-67 0 -120.5 -22t-84.5 -57q-3 -19 -4.5 -37t-2.5 -36q-2 -61 4.5 -124.5t29.5 -115t66 -84.5t114 -33z" />
<glyph unicode="&#x2077;" d="M266 754q136 235 260.5 459.5t243.5 455.5h-643l-1 167h799l33 -40l-470 -1096l-222 54v0z" />
<glyph unicode="&#x2078;" d="M528 706q-75 0 -151.5 16.5t-138 53t-100.5 95.5t-39 145q0 35 11 73t36 74.5t64 69.5t95 59q-35 21 -65 46t-52.5 55t-35 66.5t-12.5 81.5q0 75 29 131.5t79 94t117 56.5t143 19q84 0 152 -18t116 -51.5t74 -80.5t26 -104q0 -35 -12 -73.5t-34.5 -77.5t-56 -76 t-76.5 -67q45 -22 85 -47.5t71 -57t49.5 -69.5t19.5 -86q1 -74 -30 -134.5t-85 -103.5t-126 -66.5t-153 -23.5zM591 1344q27 20 48 47.5t35 56.5t21.5 57.5t7.5 51.5q0 39 -15 67.5t-42 47.5t-64 28t-80 9q-83 0 -130.5 -36.5t-47.5 -93.5q0 -43 22.5 -76t59.5 -61t85 -51.5 t100 -46.5zM523 839q37 0 72 11.5t61.5 31t42.5 46t16 57.5q0 49 -28 85t-73.5 65.5t-102.5 55t-114 52.5q-27 -12 -47.5 -34t-34 -48.5t-20.5 -56t-7 -56.5q0 -47 14.5 -85.5t43.5 -66t73.5 -42.5t103.5 -15z" />
<glyph unicode="&#x2079;" d="M215 733q82 28 149 70.5t120.5 95t93 112.5t66.5 122q-39 -27 -90.5 -45.5t-110.5 -18.5q-78 0 -140 31t-105 84.5t-66 124.5t-23 152q0 79 27 148t78.5 121t127 82t173.5 30q94 0 167 -32.5t123.5 -88t77 -130t26.5 -158.5q0 -100 -23.5 -193.5t-64.5 -176.5 t-97.5 -153.5t-122.5 -125.5t-139 -91.5t-147 -51.5zM502 1204q58 0 105.5 16.5t79.5 43.5q7 32 11 62t6 59q3 61 -5 120t-31 105.5t-63.5 75t-104.5 28.5q-44 0 -79.5 -21.5t-60.5 -56t-38.5 -76.5t-13.5 -82q0 -72 17 -123.5t44.5 -85t62 -49.5t70.5 -16z" />
<glyph unicode="&#x2080;" d="M505 -207q-78 0 -140 24.5t-109.5 66.5t-81.5 99t-55.5 122t-31.5 135.5t-9 139.5q1 126 38.5 227.5t99 173t142 110.5t168.5 39q119 0 199.5 -45t129.5 -121t69.5 -177.5t19.5 -213.5q0 -78 -16 -151.5t-44 -138t-68 -118t-89 -92t-105 -59.5t-117 -21zM512 -51 q61 0 106 36.5t74 95.5t43.5 134t14.5 152q0 86 -11.5 161.5t-38.5 131.5t-72.5 88.5t-113.5 32.5q-61 0 -106.5 -32t-75.5 -86t-45 -125.5t-15 -150.5q0 -78 12 -156.5t40.5 -141t74 -101.5t113.5 -39z" />
<glyph unicode="&#x2081;" d="M140 -67h318v792q-30 -11 -70 -22t-83.5 -20.5t-86.5 -17.5t-78 -12l-24 112q55 12 115.5 28.5t119 38t112.5 48.5t97 60h3l88 -16v-992l259 1v-127h-770v127z" />
<glyph unicode="&#x2082;" d="M100 -95q25 15 63.5 43.5t85 66t98 83t101.5 95.5t95.5 103t79.5 105t54.5 102t20.5 95q0 57 -15.5 93.5t-43 56.5t-67 27.5t-87.5 7.5q-45 0 -89.5 -13t-83.5 -32.5t-70 -42.5t-48 -42l-79 84q18 25 51.5 58.5t84 63.5t116.5 51t148 21q104 0 176.5 -27.5t118.5 -73.5 t66.5 -104.5t20.5 -120.5q0 -61 -24.5 -123.5t-67 -124.5t-98.5 -121.5t-119 -114.5t-129.5 -103.5t-128.5 -88.5l605 54l2 -177h-797z" />
<glyph unicode="&#x2083;" d="M150 -33q57 -20 107 -29.5t112 -9.5q180 0 266 58t86 163q0 89 -64.5 135.5t-189.5 41.5l-118 -46l-31 128q24 6 63.5 19.5t81.5 34.5q37 15 70 37t58 48.5t39.5 56t14.5 59.5q0 68 -46.5 95t-131.5 27q-39 0 -78.5 -7.5t-76 -20.5t-68.5 -30.5t-57 -38.5l-61 107 q26 25 66 49.5t90 43.5t107 31t117 12q82 0 145 -17t106 -48t65 -74t22 -95q0 -36 -10.5 -78.5t-39 -84.5t-79 -81t-131.5 -67q100 8 165.5 -12t103.5 -56t53 -81.5t15 -88.5q0 -66 -34.5 -129.5t-100.5 -113.5t-161 -80.5t-216 -30.5q-62 0 -125.5 8t-135.5 39z" />
<glyph unicode="&#x2084;" d="M42 91l398 863h158l43 -53l-361 -717l-53 -81l359 24l30 301h153v-288l200 14v-149h-200v-199h-184v199h-495z" />
<glyph unicode="&#x2085;" d="M155 -54q13 -4 33 -8.5t44 -8t49.5 -6t48.5 -2.5q71 0 135 17t112 49t76.5 77t28.5 101q0 101 -60 152.5t-167 51.5q-39 0 -74 -5t-62.5 -12t-47 -14t-28.5 -10l-90 56l66 541h629v-141h-490l-53 -319q10 5 31.5 11.5t52 12.5t69 10t83.5 4q91 0 154 -24t102 -66.5 t56 -101t17 -128.5q0 -71 -32 -140.5t-94.5 -124.5t-155.5 -89.5t-215 -34.5q-75 0 -136.5 9.5t-108.5 22.5z" />
<glyph unicode="&#x2086;" d="M513 -206q-101 0 -176.5 37t-126 98t-76 140t-25.5 163q0 100 23.5 188t64.5 163t97.5 136.5t122.5 108t139 78t147 46.5l90 -75q-88 -30 -159 -72t-126 -93t-94 -108.5t-64 -117.5q40 32 98 57t127 25q78 0 140 -26.5t105 -74.5t66 -115t23 -148q0 -79 -26.5 -153 t-77.5 -131t-124.5 -91.5t-167.5 -34.5zM518 -77q55 0 92 23t59.5 58.5t31.5 78.5t9 84q0 75 -17 126t-44 82t-62 44t-71 13q-67 0 -120.5 -22t-84.5 -57q-3 -19 -4.5 -37t-2.5 -36q-2 -61 4.5 -124.5t29.5 -115t66 -84.5t114 -33z" />
<glyph unicode="&#x2087;" d="M266 -157q136 235 260.5 459.5t243.5 455.5h-643l-1 167h799l33 -40l-470 -1096l-222 54v0z" />
<glyph unicode="&#x2088;" d="M528 -205q-75 0 -151.5 16.5t-138 53t-100.5 95.5t-39 145q0 35 11 73t36 74.5t64 69.5t95 59q-35 21 -65 46t-52.5 55t-35 66.5t-12.5 81.5q0 75 29 131.5t79 94t117 56.5t143 19q84 0 152 -18t116 -51.5t74 -80.5t26 -104q0 -35 -12 -73.5t-34.5 -77.5t-56 -76 t-76.5 -67q45 -22 85 -47.5t71 -57t49.5 -69.5t19.5 -86q1 -74 -30 -134.5t-85 -103.5t-126 -66.5t-153 -23.5zM591 433q27 20 48 47.5t35 56.5t21.5 57.5t7.5 51.5q0 39 -15 67.5t-42 47.5t-64 28t-80 9q-83 0 -130.5 -36.5t-47.5 -93.5q0 -43 22.5 -76t59.5 -61t85 -51.5 t100 -46.5zM523 -72q37 0 72 11.5t61.5 31t42.5 46t16 57.5q0 49 -28 85t-73.5 65.5t-102.5 55t-114 52.5q-27 -12 -47.5 -34t-34 -48.5t-20.5 -56t-7 -56.5q0 -47 14.5 -85.5t43.5 -66t73.5 -42.5t103.5 -15z" />
<glyph unicode="&#x2089;" d="M215 -178q82 28 149 70.5t120.5 95t93 112.5t66.5 122q-39 -27 -90.5 -45.5t-110.5 -18.5q-78 0 -140 31t-105 84.5t-66 124.5t-23 152q0 79 27 148t78.5 121t127 82t173.5 30q94 0 167 -32.5t123.5 -88t77 -130t26.5 -158.5q0 -100 -23.5 -193.5t-64.5 -176.5 t-97.5 -153.5t-122.5 -125.5t-139 -91.5t-147 -51.5zM502 293q58 0 105.5 16.5t79.5 43.5q7 32 11 62t6 59q3 61 -5 120t-31 105.5t-63.5 75t-104.5 28.5q-44 0 -79.5 -21.5t-60.5 -56t-38.5 -76.5t-13.5 -82q0 -72 17 -123.5t44.5 -85t62 -49.5t70.5 -16z" />
<glyph unicode="&#x20a1;" horiz-adv-x="1329" d="M523 36q-101 40 -180 107.5t-134.5 159.5t-84.5 205.5t-29 244.5q0 157 40.5 285t111.5 224t167 159.5t207 92.5l20 301h117l-19 -280q34 3 68 3h35t34 -1l19 278h117l-19 -288q83 -11 133 -25t79 -21l-33 -206q-8 4 -22.5 12t-38 17t-56 18t-75.5 16l-77 -1166 q48 4 93 13t83.5 21t68 26t46.5 29l1 -197q-28 -11 -59 -23t-68 -22.5t-81 -19t-97 -12.5l-22 -341h-117l22 339q-35 2 -69 6t-67 10l-23 -355h-117zM650 197q32 -11 65.5 -18.5t69.5 -9.5l79 1179q-10 1 -19.5 1h-20.5q-26 0 -50.5 -2t-47.5 -6zM607 1304 q-134 -63 -207 -200t-73 -335q0 -170 54 -301.5t156 -208.5z" />
<glyph unicode="&#x20a4;" horiz-adv-x="1501" d="M144 82q0 36 16 67t49 55t82 39t115 18q19 41 23.5 97.5t4.5 113.5v110h-225v138h225v130h-203v138h203v56q0 111 32.5 202.5t94 156t151 100t202.5 35.5q63 0 114.5 -8.5t92.5 -22.5t71.5 -31.5t53.5 -36.5l-107 -166q-21 18 -45 34.5t-53.5 29t-66 20t-82.5 7.5 q-42 0 -83.5 -13.5t-74 -51.5t-52.5 -106.5t-20 -179.5v-25h381v-138h-380l1 -130h357v-138h-357q-1 -69 -4.5 -125.5t-12 -102t-23.5 -79.5t-37 -58q46 -8 82.5 -20.5t75 -24.5t84.5 -21t111 -9q72 0 119.5 15.5t75.5 42t39.5 61.5t11.5 74q0 28 -7.5 53.5t-19 45.5 t-24.5 33.5t-25 17.5l163 82q18 -10 40.5 -32.5t42.5 -54.5t33.5 -73t13.5 -88q0 -173 -111 -256t-322 -83q-70 0 -129 9t-108 22t-89.5 28.5t-74.5 27.5t-62 19.5t-51 5.5q-15 -17 -37 -33.5t-48.5 -30t-56 -22t-59.5 -8.5q-18 0 -37.5 6t-36 16.5t-27 26t-10.5 35.5z" />
<glyph unicode="&#x20ac;" horiz-adv-x="1505" d="M112 656h193q-1 16 -1 31.5v32.5q0 84 9 161h-169v146h197q31 119 88.5 212t137 158t180 100.5t219.5 40.5q81 3 137.5 -3.5t98.5 -17t74 -22t63 -18.5l-53 -181q-28 16 -56.5 28.5t-65.5 21t-85 13.5t-115 5q-143 1 -243 -84.5t-143 -252.5h527v-146h-550q-2 -23 -3 -47 t-1 -49q0 -33 1 -65t3 -64h516v-147h-499q15 -82 43.5 -150t74.5 -117t112.5 -76t156.5 -27q54 0 105.5 7t97 19.5t84 29.5t65.5 36l60 -172q-22 -3 -43 -11t-45.5 -17.5t-55.5 -20t-73 -19t-97.5 -14t-128.5 -5.5q-129 0 -231.5 38t-178.5 108t-125 169t-71 222h-210v147z " />
<glyph unicode="&#x20b2;" horiz-adv-x="1490" d="M682 -7q-140 20 -248.5 85t-183 165t-113.5 230t-39 280q0 177 45 314t125 234t188.5 154t236.5 75v-39h46.5t57 -0.5t56.5 -0.5h47v46q-21 1 -43.5 1.5t-48.5 0.5q-30 0 -58.5 -2t-56.5 -6v232h207v-226q58 -3 102 -9.5t81.5 -14.5t73 -17t77.5 -17l-10 -207 q-36 18 -76 34t-90.5 27t-114.5 17.5t-147 6.5q-99 0 -183 -39t-145 -113t-95.5 -181t-34.5 -243q0 -131 28 -244t85.5 -196.5t145 -131t205.5 -47.5q41 0 84.5 3.5t83 10t73.5 17t55 25.5v370l-273 13v167h496v-674q-31 -2 -67.5 -16.5t-86.5 -32.5t-117.5 -34.5 t-160.5 -22.5l-2 -245h-207l2 251v0z" />
<glyph unicode="&#x20b5;" horiz-adv-x="1390" d="M618 5q-122 29 -218.5 95t-164 162t-103.5 220.5t-36 270.5q0 181 53 322.5t143 241t209.5 155t253.5 64.5l25 279h147l-25 -280q62 -4 110.5 -11t85 -15.5t62 -16t43.5 -11.5l-33 -206q-10 5 -30.5 15.5t-54.5 22t-83.5 21.5t-116.5 13l-105 -1178q10 -1 20 -1h21 q58 0 115.5 8t107.5 21t88.5 29.5t58.5 34.5l1 -197q-33 -13 -70 -27t-83 -26t-102.5 -19.5t-127.5 -7.5q-12 0 -23.5 0.5t-22.5 1.5l-30 -340h-147zM737 1343q-96 -14 -171.5 -60.5t-128.5 -120t-81 -173t-28 -220.5q0 -103 20.5 -193.5t60 -163.5t96.5 -126.5t130 -83.5z " />
<glyph unicode="&#x2105;" horiz-adv-x="1981" d="M533 709q-84 0 -152 31.5t-115.5 87t-73.5 131t-26 164.5q0 88 29.5 165.5t81.5 135.5t123.5 91t154.5 33q54 0 93.5 -4t67 -10.5t45 -15t27.5 -16.5l-38 -160q-9 5 -27.5 14t-44.5 17.5t-59.5 15t-70.5 6.5q-91 0 -131.5 -63t-40.5 -184q0 -68 7.5 -121t27 -89t53 -54.5 t85.5 -18.5q49 0 82.5 9t56.5 20.5t40 23.5t34 18l29 -136q-33 -38 -96.5 -64.5t-161.5 -26.5zM1211 1530h196l-644 -1530h-196zM1162 461q0 101 32 179t85.5 132t123.5 82.5t147 30.5q93 2 160.5 -30t111 -89t64.5 -133.5t21 -163.5q0 -101 -32 -179t-86 -131t-124 -81 t-146 -30q-86 -2 -152 30.5t-112 89.5t-69.5 133t-23.5 160zM1363 469q0 -58 11 -107.5t33 -85.5t53.5 -56.5t72.5 -20.5q85 0 129.5 70t44.5 192q0 61 -11.5 111.5t-33 86.5t-53.5 56t-72 20q-85 0 -129.5 -71.5t-44.5 -194.5z" />
<glyph unicode="&#x2113;" horiz-adv-x="1246" d="M-3 151q83 54 159 112t146 120q-2 27 -3.5 55.5t-1.5 58.5q0 142 22 285.5t61.5 275.5t95 246t123 198t144.5 132.5t160 48.5q52 0 90 -19t63 -53t37.5 -81.5t12.5 -104.5q0 -142 -47 -285.5t-129.5 -284t-194 -276t-239.5 -261.5q9 -47 23.5 -79t31.5 -52t36 -29t38 -9 q34 0 68 26.5t65 70.5t58.5 101.5t49.5 119.5l183 -35q-12 -38 -33 -86.5t-50 -100t-66.5 -100.5t-81.5 -88t-94 -62.5t-106 -23.5q-96 0 -164 52.5t-108 153.5q-42 -38 -84.5 -74.5t-86.5 -71.5zM484 561q103 112 183.5 227t136 226t84 214t28.5 193q0 12 -2.5 28t-7.5 30 t-14 24t-21 10q-38 0 -80.5 -43t-83.5 -115.5t-79 -168t-68 -201.5t-50 -215t-26 -209z" />
<glyph unicode="&#x2116;" horiz-adv-x="2595" d="M1519 985q2 132 40 234t105 171t158.5 104.5t200.5 35.5q130 0 222.5 -47t150 -127t83.5 -185.5t25 -222.5q-2 -132 -40 -234.5t-104 -172.5t-157 -106t-199 -36q-136 0 -229.5 48t-150.5 128.5t-82 186.5t-23 223zM192 1522h203l577 -959l105 -228l-10 202v985h212 v-1522h-204l-553 917l-132 264l13 -235v-946h-211v1522zM1744 984q0 -91 16.5 -168t49.5 -133.5t82.5 -89.5t116.5 -34q134 -3 202 100.5t68 294.5q0 89 -15.5 164.5t-48 130.5t-81.5 86.5t-116 32.5q-134 2 -204 -96.5t-70 -287.5zM1586 170h864v-170h-864v170z" />
<glyph unicode="&#x2120;" horiz-adv-x="2218" d="M254 981q11 -6 36 -19.5t60 -26.5t78.5 -23t91.5 -10q20 0 42 3t40 11.5t29.5 24t11.5 39.5q0 28 -14.5 45.5t-42.5 31.5t-68.5 27.5t-92.5 34.5q-50 20 -85 42.5t-57.5 49.5t-32.5 59.5t-10 73.5q0 90 80 144.5t244 54.5q53 0 93 -4.5t69.5 -11t48.5 -14t29 -12.5 l-31 -150q-8 9 -29 20t-48.5 20.5t-57.5 15.5t-54 6q-53 0 -85.5 -6t-51.5 -15t-25.5 -20.5t-6.5 -22.5q0 -22 7.5 -36.5t25 -26t46 -23t70.5 -27.5q51 -19 98 -39.5t83 -48.5t57 -66.5t21 -93.5q0 -34 -13.5 -74t-45.5 -74t-85.5 -56.5t-132.5 -22.5q-46 0 -96.5 8 t-94.5 19t-77 22.5t-44 18.5zM1045 1542h299l141 -399l38 -142l30 142l126 399h283l74 -775h-181l-39 531l-7 125l-44 -136l-180 -527h-122l-205 527l-52 137l-3 -126l-24 -531h-175z" />
<glyph unicode="&#x2122;" horiz-adv-x="2218" d="M1045 1543h299l141 -400l38 -142l30 142l126 400h283l74 -776h-181l-39 531l-7 125l-44 -136l-180 -527h-122l-205 527l-52 138l-3 -127l-24 -531h-175zM422 1387l-247 -1l-1 157h692v-157l-256 1v-620h-188v620z" />
<glyph unicode="&#x2126;" horiz-adv-x="1805" d="M196 160h332q-59 46 -118.5 118t-108 162.5t-79 197t-30.5 221.5q0 119 28 216t77.5 173t116.5 132t145 92.5t163.5 54.5t172.5 18q147 0 273 -44t218.5 -130.5t144.5 -214.5t52 -297q0 -113 -25.5 -217t-69 -194t-101 -163.5t-121.5 -124.5h357v-160h-585v156 q60 39 116.5 105t100 155.5t70 199t26.5 234.5q0 144 -40.5 244t-106 163t-146.5 91t-162 28q-57 0 -114 -12t-109 -38t-97.5 -67.5t-78.5 -100t-52 -135t-19 -173.5q0 -125 31.5 -234.5t81 -198.5t109 -155.5t116.5 -105.5v-156h-567z" />
<glyph unicode="&#x212e;" horiz-adv-x="1373" d="M386 198v69q-40 54 -63 130.5t-28 182.5l-3 45h94v-358q62 -85 155.5 -119.5t206.5 -34.5q57 0 111.5 10.5t102.5 25.5t87 32.5t64 32.5l49 -123q-32 -23 -82 -42.5t-109 -34t-122.5 -22.5t-121.5 -8q-148 0 -263.5 47t-195.5 135.5t-122 216t-42 288.5q0 147 38.5 271.5 t116.5 215.5t196 143t276 55q109 2 205 -33.5t169 -103.5t116.5 -166t47.5 -221q0 -65 -1.5 -117t-9.5 -90h-872v143h-91q5 67 15 113q12 57 31 102.5t45 82.5v-298h619v-32h92v422l-92 40v-81q35 -42 52.5 -94.5t23.5 -109.5q4 -31 4.5 -72t-1.5 -73h-79v349 q-42 50 -110.5 79.5t-176.5 29.5q-101 0 -187 -37t-145 -123v81l-101 -69v-310h10q-5 -70 -3 -143h-7v-388z" />
<glyph unicode="&#x2153;" horiz-adv-x="2419" d="M140 670h318v792q-30 -11 -70 -22t-83.5 -20.5t-86.5 -17.5t-78 -12l-24 112q55 12 115.5 28.5t119 38t112.5 48.5t97 60h3l88 -16v-992l259 1v-127h-770v127zM731 -119l760 1805l139 -35l-759 -1800zM1547 160q57 -20 107 -29.5t112 -9.5q180 0 266 58t86 163 q0 89 -64.5 135.5t-189.5 41.5l-118 -46l-31 128q24 6 63.5 19.5t81.5 34.5q37 15 70 37t58 48.5t39.5 56t14.5 59.5q0 68 -46.5 95t-131.5 27q-39 0 -78.5 -7.5t-76 -20.5t-68.5 -30.5t-57 -38.5l-61 107q26 25 66 49.5t90 43.5t107 31t117 12q82 0 145 -17t106 -48t65 -74 t22 -95q0 -36 -10.5 -78.5t-39 -84.5t-79 -81t-131.5 -67q100 8 165.5 -12t103.5 -56t53 -81.5t15 -88.5q0 -66 -34.5 -129.5t-100.5 -113.5t-161 -80.5t-216 -30.5q-62 0 -125.5 8t-135.5 39z" />
<glyph unicode="&#x2154;" horiz-adv-x="2419" d="M100 642q25 15 63.5 43.5t85 66t98 83t101.5 95.5t95.5 103t79.5 105t54.5 102t20.5 95q0 57 -15.5 93.5t-43 56.5t-67 27.5t-87.5 7.5q-45 0 -89.5 -13t-83.5 -32.5t-70 -42.5t-48 -42l-79 84q18 25 51.5 58.5t84 63.5t116.5 51t148 21q104 0 176.5 -27.5t118.5 -73.5 t66.5 -104.5t20.5 -120.5q0 -61 -24.5 -123.5t-67 -124.5t-98.5 -121.5t-119 -114.5t-129.5 -103.5t-128.5 -88.5l605 54l2 -177h-797zM731 -119l760 1805l139 -35l-759 -1800zM1925 -12q-75 0 -151.5 16.5t-138 53t-100.5 95.5t-39 145q0 35 11 73t36 74.5t64 69.5t95 59 q-35 21 -65 46t-52.5 55t-35 66.5t-12.5 81.5q0 75 29 131.5t79 94t117 56.5t143 19q84 0 152 -18t116 -51.5t74 -80.5t26 -104q0 -35 -12 -73.5t-34.5 -77.5t-56 -76t-76.5 -67q45 -22 85 -47.5t71 -57t49.5 -69.5t19.5 -86q1 -74 -30 -134.5t-85 -103.5t-126 -66.5 t-153 -23.5zM1988 626q27 20 48 47.5t35 56.5t21.5 57.5t7.5 51.5q0 39 -15 67.5t-42 47.5t-64 28t-80 9q-83 0 -130.5 -36.5t-47.5 -93.5q0 -43 22.5 -76t59.5 -61t85 -51.5t100 -46.5zM1920 121q37 0 72 11.5t61.5 31t42.5 46t16 57.5q0 49 -28 85t-73.5 65.5t-102.5 55 t-114 52.5q-27 -12 -47.5 -34t-34 -48.5t-20.5 -56t-7 -56.5q0 -47 14.5 -85.5t43.5 -66t73.5 -42.5t103.5 -15z" />
<glyph unicode="&#x215b;" horiz-adv-x="2419" d="M140 670h318v792q-30 -11 -70 -22t-83.5 -20.5t-86.5 -17.5t-78 -12l-24 112q55 12 115.5 28.5t119 38t112.5 48.5t97 60h3l88 -16v-992l259 1v-127h-770v127zM731 -119l760 1805l139 -35l-759 -1800zM1925 -12q-75 0 -151.5 16.5t-138 53t-100.5 95.5t-39 145 q0 35 11 73t36 74.5t64 69.5t95 59q-35 21 -65 46t-52.5 55t-35 66.5t-12.5 81.5q0 75 29 131.5t79 94t117 56.5t143 19q84 0 152 -18t116 -51.5t74 -80.5t26 -104q0 -35 -12 -73.5t-34.5 -77.5t-56 -76t-76.5 -67q45 -22 85 -47.5t71 -57t49.5 -69.5t19.5 -86 q1 -74 -30 -134.5t-85 -103.5t-126 -66.5t-153 -23.5zM1988 626q27 20 48 47.5t35 56.5t21.5 57.5t7.5 51.5q0 39 -15 67.5t-42 47.5t-64 28t-80 9q-83 0 -130.5 -36.5t-47.5 -93.5q0 -43 22.5 -76t59.5 -61t85 -51.5t100 -46.5zM1920 121q37 0 72 11.5t61.5 31t42.5 46 t16 57.5q0 49 -28 85t-73.5 65.5t-102.5 55t-114 52.5q-27 -12 -47.5 -34t-34 -48.5t-20.5 -56t-7 -56.5q0 -47 14.5 -85.5t43.5 -66t73.5 -42.5t103.5 -15z" />
<glyph unicode="&#x215c;" horiz-adv-x="2419" d="M150 704q57 -20 107 -29.5t112 -9.5q180 0 266 58t86 163q0 89 -64.5 135.5t-189.5 41.5l-118 -46l-31 128q24 6 63.5 19.5t81.5 34.5q37 15 70 37t58 48.5t39.5 56t14.5 59.5q0 68 -46.5 95t-131.5 27q-39 0 -78.5 -7.5t-76 -20.5t-68.5 -30.5t-57 -38.5l-61 107 q26 25 66 49.5t90 43.5t107 31t117 12q82 0 145 -17t106 -48t65 -74t22 -95q0 -36 -10.5 -78.5t-39 -84.5t-79 -81t-131.5 -67q100 8 165.5 -12t103.5 -56t53 -81.5t15 -88.5q0 -66 -34.5 -129.5t-100.5 -113.5t-161 -80.5t-216 -30.5q-62 0 -125.5 8t-135.5 39zM731 -119 l760 1805l139 -35l-759 -1800zM1925 -12q-75 0 -151.5 16.5t-138 53t-100.5 95.5t-39 145q0 35 11 73t36 74.5t64 69.5t95 59q-35 21 -65 46t-52.5 55t-35 66.5t-12.5 81.5q0 75 29 131.5t79 94t117 56.5t143 19q84 0 152 -18t116 -51.5t74 -80.5t26 -104q0 -35 -12 -73.5 t-34.5 -77.5t-56 -76t-76.5 -67q45 -22 85 -47.5t71 -57t49.5 -69.5t19.5 -86q1 -74 -30 -134.5t-85 -103.5t-126 -66.5t-153 -23.5zM1988 626q27 20 48 47.5t35 56.5t21.5 57.5t7.5 51.5q0 39 -15 67.5t-42 47.5t-64 28t-80 9q-83 0 -130.5 -36.5t-47.5 -93.5 q0 -43 22.5 -76t59.5 -61t85 -51.5t100 -46.5zM1920 121q37 0 72 11.5t61.5 31t42.5 46t16 57.5q0 49 -28 85t-73.5 65.5t-102.5 55t-114 52.5q-27 -12 -47.5 -34t-34 -48.5t-20.5 -56t-7 -56.5q0 -47 14.5 -85.5t43.5 -66t73.5 -42.5t103.5 -15z" />
<glyph unicode="&#x215d;" horiz-adv-x="2419" d="M155 683q13 -4 33 -8.5t44 -8t49.5 -6t48.5 -2.5q71 0 135 17t112 49t76.5 77t28.5 101q0 101 -60 152.5t-167 51.5q-39 0 -74 -5t-62.5 -12t-47 -14t-28.5 -10l-90 56l66 541h629v-141h-490l-53 -319q10 5 31.5 11.5t52 12.5t69 10t83.5 4q91 0 154 -24t102 -66.5 t56 -101t17 -128.5q0 -71 -32 -140.5t-94.5 -124.5t-155.5 -89.5t-215 -34.5q-75 0 -136.5 9.5t-108.5 22.5zM731 -119l760 1805l139 -35l-759 -1800zM1925 -12q-75 0 -151.5 16.5t-138 53t-100.5 95.5t-39 145q0 35 11 73t36 74.5t64 69.5t95 59q-35 21 -65 46t-52.5 55 t-35 66.5t-12.5 81.5q0 75 29 131.5t79 94t117 56.5t143 19q84 0 152 -18t116 -51.5t74 -80.5t26 -104q0 -35 -12 -73.5t-34.5 -77.5t-56 -76t-76.5 -67q45 -22 85 -47.5t71 -57t49.5 -69.5t19.5 -86q1 -74 -30 -134.5t-85 -103.5t-126 -66.5t-153 -23.5zM1988 626 q27 20 48 47.5t35 56.5t21.5 57.5t7.5 51.5q0 39 -15 67.5t-42 47.5t-64 28t-80 9q-83 0 -130.5 -36.5t-47.5 -93.5q0 -43 22.5 -76t59.5 -61t85 -51.5t100 -46.5zM1920 121q37 0 72 11.5t61.5 31t42.5 46t16 57.5q0 49 -28 85t-73.5 65.5t-102.5 55t-114 52.5 q-27 -12 -47.5 -34t-34 -48.5t-20.5 -56t-7 -56.5q0 -47 14.5 -85.5t43.5 -66t73.5 -42.5t103.5 -15z" />
<glyph unicode="&#x215e;" horiz-adv-x="2419" d="M266 580q136 235 260.5 459.5t243.5 455.5h-643l-1 167h799l33 -40l-470 -1096l-222 54v0zM731 -119l760 1805l139 -35l-759 -1800zM1925 -12q-75 0 -151.5 16.5t-138 53t-100.5 95.5t-39 145q0 35 11 73t36 74.5t64 69.5t95 59q-35 21 -65 46t-52.5 55t-35 66.5 t-12.5 81.5q0 75 29 131.5t79 94t117 56.5t143 19q84 0 152 -18t116 -51.5t74 -80.5t26 -104q0 -35 -12 -73.5t-34.5 -77.5t-56 -76t-76.5 -67q45 -22 85 -47.5t71 -57t49.5 -69.5t19.5 -86q1 -74 -30 -134.5t-85 -103.5t-126 -66.5t-153 -23.5zM1988 626q27 20 48 47.5 t35 56.5t21.5 57.5t7.5 51.5q0 39 -15 67.5t-42 47.5t-64 28t-80 9q-83 0 -130.5 -36.5t-47.5 -93.5q0 -43 22.5 -76t59.5 -61t85 -51.5t100 -46.5zM1920 121q37 0 72 11.5t61.5 31t42.5 46t16 57.5q0 49 -28 85t-73.5 65.5t-102.5 55t-114 52.5q-27 -12 -47.5 -34 t-34 -48.5t-20.5 -56t-7 -56.5q0 -47 14.5 -85.5t43.5 -66t73.5 -42.5t103.5 -15z" />
<glyph unicode="&#x2190;" horiz-adv-x="1530" d="M110 766l593 592l132 -135l-360 -359l243 12l702 1l-2 -221l-700 1l-243 11l360 -358l-132 -135zM395 784l-18 -18l18 -18v36z" />
<glyph unicode="&#x2191;" horiz-adv-x="1530" d="M655 841l11 242l-358 -359l-135 132l591 593l592 -593l-135 -132l-359 359l12 -242l1 -701l-221 1zM784 1162l-20 20l-20 -20h40z" />
<glyph unicode="&#x2192;" horiz-adv-x="1530" d="M1426.01 766l-592.964 592l-131.992 -135l359.979 -359l-242.985 12l-701.957 1l2 -221l699.957 1l242.985 11l-359.979 -358l131.992 -135zM1141.02 784l17.999 -18l-17.999 -18v36z" />
<glyph unicode="&#x2193;" horiz-adv-x="1530" d="M655 755.052l11 -241.985l-358 358.978l-135 -131.991l591 -592.964l592 592.964l-135 131.991l-359 -358.978l12 241.985l1 700.957l-221 -1zM784 434.071l-20 -19.999l-20 19.999h40z" />
<glyph unicode="&#x2202;" horiz-adv-x="1370" d="M162 452q-8 146 35.5 258t123 188t188 115t231.5 39q70 0 137 -11t129 -34q-12 108 -45.5 201t-93.5 161.5t-149.5 108t-213.5 39.5q-30 0 -63.5 -4t-65.5 -11.5t-60 -17.5t-48 -22l-75 130q34 25 78 43t91.5 29.5t95.5 17t89 5.5q128 0 228.5 -35t176.5 -96.5 t129.5 -145t87 -180t48.5 -201.5t15 -209q0 -114 -12.5 -221.5t-40 -201.5t-71 -173t-106 -135t-145 -87.5t-187.5 -31.5q-104 0 -194 34t-157.5 97t-108.5 152t-47 199zM383 484q4 -74 21 -137.5t52 -110t92 -73t142 -26.5q70 0 121.5 31.5t87.5 84t58.5 120.5t35 141.5 t17 147.5t4.5 138v36q-66 35 -136 47t-153 12q-65 0 -128 -25t-112.5 -75.5t-78 -128t-23.5 -182.5z" />
<glyph unicode="&#x2206;" horiz-adv-x="1579" d="M744 1508h33l745 -1481l-16 -27h-1436l-14 22zM1210 181l-442 927l-417 -927h859z" />
<glyph unicode="&#x220f;" horiz-adv-x="1660" d="M328 1349h-195v173h1394v-173h-195v-1519h-235v1519h-535v-1519h-234v1519z" />
<glyph unicode="&#x2211;" horiz-adv-x="1592" d="M774 676l-551 766l30 80h1038v-174h-760l482 -666l-470 -689h765v-163h-1059l-26 55z" />
<glyph unicode="&#x2212;" horiz-adv-x="1350" d="M250 863h850v-183h-850v183z" />
<glyph unicode="&#x2219;" horiz-adv-x="0" />
<glyph unicode="&#x221a;" horiz-adv-x="1604" d="M84 603l187 113h201l306 -763l584 1917h226l-709 -2224h-183l-387 867l-128 -77z" />
<glyph unicode="&#x221e;" horiz-adv-x="1822" d="M499 221q-100 -2 -179 29t-134 84t-84 122.5t-29 146.5q0 105 33.5 182t91.5 127.5t135.5 75.5t165.5 25q77 0 138.5 -21t112 -55.5t91 -79.5t76.5 -94q34 47 77.5 91.5t95.5 79.5t111.5 56.5t125.5 22.5q110 1 189.5 -32t131 -87t76 -123.5t24.5 -140.5 q0 -96 -29.5 -172.5t-85.5 -129t-136.5 -80.5t-183.5 -28q-75 0 -134.5 20t-107.5 53.5t-87.5 77.5t-73.5 91q-34 -47 -77 -90.5t-95 -76.5t-112 -53t-127 -21zM1019 626q30 -43 64.5 -87t75 -79.5t87 -58t99.5 -22.5q50 0 87.5 19.5t62 52t37 75t12.5 88.5t-16 87.5 t-46.5 73t-76 50t-103.5 18.5q-42 0 -80 -16t-72.5 -44.5t-66.5 -68.5t-64 -88zM521 379q41 0 79.5 16t74 44.5t69.5 69t66 88.5q-28 42 -59 85.5t-66.5 79.5t-76.5 58.5t-89 22.5q-63 0 -109 -19.5t-75 -51.5t-43 -73.5t-14 -85.5q0 -48 14.5 -90.5t44.5 -74.5t76 -50.5 t108 -18.5z" />
<glyph unicode="&#x222b;" horiz-adv-x="1044" d="M194 -256q10 -11 29 -26.5t46 -30.5t62.5 -25.5t79.5 -10.5q56 0 99 14t72 50t44 98t15 158q0 99 -30.5 199t-75.5 201t-98.5 203.5t-98.5 206t-75.5 208.5t-30.5 212q0 105 26.5 193.5t80.5 153t136 101t193 36.5q96 0 175.5 -30t124.5 -98l-114 -117q-21 31 -70.5 54 t-119.5 23q-61 0 -103.5 -22.5t-69 -64t-38.5 -100t-12 -129.5q0 -99 30 -199t75 -200.5t98 -202t98 -205t75 -209t30 -213.5q0 -105 -21 -194.5t-69 -155.5t-126.5 -103t-192.5 -37q-56 0 -106.5 10.5t-93.5 27.5t-76 39.5t-53 45.5l85 139v0z" />
<glyph unicode="&#x2248;" horiz-adv-x="1438" d="M214 398q12 31 39.5 68.5t68.5 70t94 54t116 21.5q48 0 86 -12.5t69 -31t58 -40t53.5 -40t55 -31t63.5 -12.5q71 0 118.5 32.5t83.5 80.5l104 -103q-14 -38 -41.5 -75t-67.5 -65.5t-92.5 -46t-116.5 -17.5q-48 0 -85.5 12.5t-67.5 31t-56 40.5t-52 40.5t-55 31t-65 12.5 q-35 0 -63 -9t-51 -24t-42 -35.5t-37 -44.5zM213 860q12 31 39.5 68.5t68.5 70t94 54t116 21.5q48 0 86 -12.5t69 -31t58 -40t53.5 -40t55 -31t63.5 -12.5q71 0 118.5 32.5t83.5 80.5l104 -103q-14 -38 -41.5 -75t-67.5 -65.5t-92.5 -46t-116.5 -17.5q-48 0 -85.5 12.5 t-67.5 31t-56 40.5t-52 40.5t-55 31t-65 12.5q-35 0 -63 -9t-51 -24t-42 -35.5t-37 -44.5z" />
<glyph unicode="&#x2260;" horiz-adv-x="1401" d="M493 431h-250v171h313l123 344h-436v173h500l76 203h174l-76 -203h241v-173h-306l-123 -344h429v-171h-491l-84 -230h-173z" />
<glyph unicode="&#x2264;" horiz-adv-x="1368" d="M160 854l970 431v-209l-728 -300l728 -300v-208l-970 430v156zM160 167h970v-167h-970v167z" />
<glyph unicode="&#x2265;" horiz-adv-x="1368" d="M1208.01 854l-969.94 431v-209l727.955 -300l-727.955 -300v-208l969.94 430v156zM1208.01 167h-969.94v-167h969.94v167z" />
<glyph unicode="&#x25ca;" horiz-adv-x="1187" d="M51 763v13l541 742h4l540 -742v-13l-540 -763h-5zM595 301l315 468v3l-315 447h-3l-316 -447v-6l316 -465h3z" />
<glyph unicode="&#x25fc;" horiz-adv-x="1140" d="M0 1140h1140v-1140h-1140v1140z" />
<glyph unicode="&#xe000;" horiz-adv-x="0" />
<glyph unicode="&#xe001;" horiz-adv-x="0" />
<glyph unicode="&#xe0ff;" horiz-adv-x="0" />
<glyph unicode="&#xeffd;" horiz-adv-x="0" />
<glyph unicode="&#xf000;" horiz-adv-x="0" />
<glyph unicode="&#xf6c3;" horiz-adv-x="363" d="M202 -82q18 -8 35.5 -26.5t31 -45.5t22 -62t8.5 -77q0 -52 -15 -96.5t-37.5 -79t-49 -58t-48.5 -33.5l-82 41v26q14 19 26 58t12 87q0 19 -4.5 39.5t-13.5 38t-21 30.5t-27 16v50z" />
<glyph unicode="&#xfb00;" horiz-adv-x="1630" d="M247 969h-171v128l171 43v100q0 85 18 151t48.5 115t71.5 82.5t87 54.5t95 30t95 9q50 0 90 -8t56 -14v-179q-30 10 -67 15t-103 5q-35 0 -64.5 -13t-51 -40t-33.5 -67.5t-12 -94.5v-146h279v-171h-279v-969h-230v969zM1061 969h-171v128l171 43v100q0 85 18 151 t48.5 115t71.5 82.5t87 54.5t95 30t95 9q50 0 90 -8t56 -14v-179q-30 10 -67 15t-103 5q-35 0 -64.5 -13t-51 -40t-33.5 -67.5t-12 -94.5v-146h279v-171h-279v-969h-230v969z" />
<glyph unicode="&#xfb01;" horiz-adv-x="1426" d="M1006 1138h229v-1138h-229v1138zM1114 1343q-29 0 -55.5 9.5t-46.5 27.5t-31.5 43.5t-11.5 57.5q0 33 14.5 62t38 50.5t53 34t60.5 12.5q36 0 63.5 -10.5t45.5 -29.5t27 -44t9 -54q0 -35 -14 -64.5t-37 -50.5t-53 -32.5t-62 -11.5zM247 969h-171v128l171 43v100 q0 85 18 151t48.5 115t71.5 82.5t87 54.5t95 30t95 9q50 0 90 -8t56 -14v-179q-30 10 -67 15t-103 5q-35 0 -64.5 -13t-51 -40t-33.5 -67.5t-12 -94.5v-146h279v-171h-279v-969h-230v969z" />
<glyph unicode="&#xfb02;" horiz-adv-x="1433" d="M1009 1664h230v-1664h-230v1664zM247 969h-171v128l171 43v100q0 85 18 151t48.5 115t71.5 82.5t87 54.5t95 30t95 9q50 0 90 -8t56 -14v-179q-30 10 -67 15t-103 5q-35 0 -64.5 -13t-51 -40t-33.5 -67.5t-12 -94.5v-146h279v-171h-279v-969h-230v969z" />
<glyph unicode="&#xfb03;" horiz-adv-x="2242" d="M1821 1138h229v-1138h-229v1138zM1929 1343q-29 0 -55.5 9.5t-46.5 27.5t-31.5 43.5t-11.5 57.5q0 33 14.5 62t38 50.5t53 34t60.5 12.5q36 0 63.5 -10.5t45.5 -29.5t27 -44t9 -54q0 -35 -14 -64.5t-37 -50.5t-53 -32.5t-62 -11.5zM247 969h-171v128l171 43v100 q0 85 18 151t48.5 115t71.5 82.5t87 54.5t95 30t95 9q50 0 90 -8t56 -14v-179q-30 10 -67 15t-103 5q-35 0 -64.5 -13t-51 -40t-33.5 -67.5t-12 -94.5v-146h279v-171h-279v-969h-230v969zM1061 969h-171v128l171 43v100q0 85 18 151t48.5 115t71.5 82.5t87 54.5t95 30t95 9 q50 0 90 -8t56 -14v-179q-30 10 -67 15t-103 5q-35 0 -64.5 -13t-51 -40t-33.5 -67.5t-12 -94.5v-146h279v-171h-279v-969h-230v969z" />
<glyph unicode="&#xfb04;" horiz-adv-x="2248" d="M1824 1664h230v-1664h-230v1664zM247 969h-171v128l171 43v100q0 85 18 151t48.5 115t71.5 82.5t87 54.5t95 30t95 9q50 0 90 -8t56 -14v-179q-30 10 -67 15t-103 5q-35 0 -64.5 -13t-51 -40t-33.5 -67.5t-12 -94.5v-146h279v-171h-279v-969h-230v969zM1061 969h-171v128 l171 43v100q0 85 18 151t48.5 115t71.5 82.5t87 54.5t95 30t95 9q50 0 90 -8t56 -14v-179q-30 10 -67 15t-103 5q-35 0 -64.5 -13t-51 -40t-33.5 -67.5t-12 -94.5v-146h279v-171h-279v-969h-230v969z" />
<glyph unicode="&#xfeff;" horiz-adv-x="0" />
<glyph d="M140 670h318v792q-30 -11 -70 -22t-83.5 -20.5t-86.5 -17.5t-78 -12l-24 112q55 12 115.5 28.5t119 38t112.5 48.5t97 60h3l88 -16v-992l259 1v-127h-770v127z" />
<glyph d="M100 642q25 15 63.5 43.5t85 66t98 83t101.5 95.5t95.5 103t79.5 105t54.5 102t20.5 95q0 57 -15.5 93.5t-43 56.5t-67 27.5t-87.5 7.5q-45 0 -89.5 -13t-83.5 -32.5t-70 -42.5t-48 -42l-79 84q18 25 51.5 58.5t84 63.5t116.5 51t148 21q104 0 176.5 -27.5t118.5 -73.5 t66.5 -104.5t20.5 -120.5q0 -61 -24.5 -123.5t-67 -124.5t-98.5 -121.5t-119 -114.5t-129.5 -103.5t-128.5 -88.5l605 54l2 -177h-797z" />
<glyph d="M42 828l398 863h158l43 -53l-361 -717l-53 -81l359 24l30 301h153v-288l200 14v-149h-200v-199h-184v199h-495z" />
<glyph d="M150 704q57 -20 107 -29.5t112 -9.5q180 0 266 58t86 163q0 89 -64.5 135.5t-189.5 41.5l-118 -46l-31 128q24 6 63.5 19.5t81.5 34.5q37 15 70 37t58 48.5t39.5 56t14.5 59.5q0 68 -46.5 95t-131.5 27q-39 0 -78.5 -7.5t-76 -20.5t-68.5 -30.5t-57 -38.5l-61 107 q26 25 66 49.5t90 43.5t107 31t117 12q82 0 145 -17t106 -48t65 -74t22 -95q0 -36 -10.5 -78.5t-39 -84.5t-79 -81t-131.5 -67q100 8 165.5 -12t103.5 -56t53 -81.5t15 -88.5q0 -66 -34.5 -129.5t-100.5 -113.5t-161 -80.5t-216 -30.5q-62 0 -125.5 8t-135.5 39z" />
<glyph horiz-adv-x="602" d="M444 1571q-24 8 -57 25.5t-70.5 41t-76.5 51t-75 55.5t-66 55t-49 49l153 133q2 -4 27 -28.5t62 -59t79.5 -74t79.5 -73t62.5 -56.5t27.5 -25l-97 -94v0z" />
<glyph horiz-adv-x="902" d="M689 1662q-29 0 -54 9.5t-44.5 27t-30.5 42.5t-11 57q0 33 14 62t36.5 50.5t52 33.5t59.5 12q36 0 62.5 -10.5t44 -29t26 -44t8.5 -54.5q0 -35 -13.5 -63.5t-36 -49t-52 -32t-61.5 -11.5zM190 1662q-29 0 -54 9.5t-44.5 27t-30.5 42.5t-11 57q0 33 14 62t36.5 50.5 t51.5 33.5t60 12q36 0 62.5 -10.5t44 -29t26 -44t8.5 -54.5q0 -35 -13.5 -63.5t-36 -49t-52 -32t-61.5 -11.5z" />
<glyph horiz-adv-x="819" d="M48 1688l260 301h199l264 -298l-146 -64l-217 202l-221 -202z" />
<glyph horiz-adv-x="759" d="M48 1926l131 63l216 -173l221 173l124 -61l-245 -264h-199z" />
<glyph horiz-adv-x="783" d="M392 1629q-87 0 -154 27.5t-111.5 74t-65 108.5t-14.5 131h158q0 -9 3 -36t20.5 -55.5t55.5 -50.5t108 -22t108.5 22t56.5 50.5t22 55.5t4 36h154q6 -69 -16 -131t-67.5 -108.5t-112 -74t-149.5 -27.5z" />
<glyph horiz-adv-x="734" d="M363 1432q-73 0 -132.5 19t-101.5 54.5t-64.5 86.5t-21.5 115q1 72 29.5 122.5t74.5 82t103.5 45.5t116.5 14q73 0 133 -17t102.5 -50.5t65 -83t22.5 -114.5q-1 -72 -27.5 -124t-71.5 -85.5t-104 -49t-124 -15.5zM364 1561q37 0 68 7t53.5 24.5t35 45t12.5 67.5 q0 35 -13 61t-36 43t-53.5 26t-66.5 9q-30 0 -59 -6t-52 -21.5t-37 -42t-14 -67.5q0 -67 43.5 -105.5t118.5 -40.5z" />
<glyph horiz-adv-x="927" d="M45 1769q17 43 48 79t69.5 62t81.5 41t84 15q40 0 70.5 -10.5t54.5 -25.5t43.5 -33.5t38.5 -33.5t39.5 -25.5t46.5 -10.5q27 0 52 9.5t47.5 24t41.5 32t34 33.5l87 -75q-17 -42 -48 -78t-69 -62.5t-81 -41t-84 -14.5q-40 0 -70 10.5t-54 26.5t-43.5 35t-39 35t-40.5 26.5 t-47 10.5q-27 0 -52 -9.5t-47 -24.5t-41.5 -33t-34.5 -35z" />
<glyph horiz-adv-x="962" d="M55 1707q2 2 18 23.5t38.5 52.5t48 67t47.5 68t37.5 54.5t17.5 26.5l178 -89q-30 -42 -64 -84t-68 -78.5t-66.5 -66t-59.5 -46.5zM525 1707q2 3 18.5 23.5t40 51t50.5 65.5t50.5 65.5t39.5 52.5t18 26l168 -89q-27 -39 -59.5 -79t-66.5 -76t-68 -65.5t-62 -46.5z" />
<glyph horiz-adv-x="602" d="M61 1665q2 2 27.5 25t62.5 56.5t79.5 73t79.5 74t61.5 59t26.5 28.5l154 -133q-35 -36 -85 -78.5t-104 -81.5t-108 -70.5t-96 -46.5z" />
<glyph horiz-adv-x="411" d="M195 1665q-29 0 -55 9.5t-45.5 27t-30.5 42.5t-11 57q0 33 14 61.5t37 49.5t52 33t60 12q73 0 107.5 -38.5t34.5 -97.5q0 -35 -13.5 -63.5t-36 -49t-52 -32t-61.5 -11.5z" />
<glyph horiz-adv-x="652" d="M50 1893h552v-167h-552v167z" />
<glyph horiz-adv-x="346" d="M66 1066l-7 29q7 28 15.5 53.5t15.5 57t11.5 73t4.5 102.5q0 30 -5 61t-13 58.5t-18 49.5t-20 34l14 48l182 57q17 -15 29 -39.5t19.5 -56.5t11 -70t3.5 -78q0 -67 -11 -129t-29 -115.5t-41.5 -97t-47.5 -72.5z" />
<glyph horiz-adv-x="652" d="M208 1522h236v-1522h-236v1522zM317 1665q-29 0 -55 9.5t-45.5 27t-30.5 42.5t-11 57q0 33 14 61.5t37 49.5t52 33t60 12q73 0 107.5 -38.5t34.5 -97.5q0 -35 -13.5 -63.5t-36 -49t-52 -32t-61.5 -11.5z" />
<glyph horiz-adv-x="858" d="M419 548q-46 0 -86.5 18.5t-70 49.5t-45.5 72.5t-13 88.5q2 48 22 90.5t52 74t73.5 49.5t87.5 18t86.5 -17.5t70 -48t45.5 -72t13 -89.5q-2 -48 -22 -90.5t-52 -74.5t-73.5 -50.5t-87.5 -18.5z" />
<glyph horiz-adv-x="606" d="M146 745q-1 36 12.5 68.5t36.5 56.5t53 38t62 14q36 0 64 -12.5t47 -33.5t29 -49t11 -59q1 -38 -12 -70.5t-36.5 -56.5t-54 -37.5t-63.5 -13.5q-30 0 -56.5 11.5t-47 32.5t-32.5 49.5t-13 61.5z" />
<glyph d="M505 531q-78 0 -140 24.5t-109.5 66.5t-81.5 99t-55.5 122t-31.5 135.5t-9 139.5q1 126 38.5 227.5t99 173t142 110.5t168.5 39q119 0 199.5 -45t129.5 -121t69.5 -177.5t19.5 -213.5q0 -78 -16 -151.5t-44 -138t-68 -118t-89 -92t-105 -59.5t-117 -21zM512 687 q61 0 106 36.5t74 95.5t43.5 134t14.5 152q0 86 -11.5 161.5t-38.5 131.5t-72.5 88.5t-113.5 32.5q-61 0 -106.5 -32t-75.5 -86t-45 -125.5t-15 -150.5q0 -78 12 -156.5t40.5 -141t74 -101.5t113.5 -39z" />
<glyph d="M155 683q13 -4 33 -8.5t44 -8t49.5 -6t48.5 -2.5q71 0 135 17t112 49t76.5 77t28.5 101q0 101 -60 152.5t-167 51.5q-39 0 -74 -5t-62.5 -12t-47 -14t-28.5 -10l-90 56l66 541h629v-141h-490l-53 -319q10 5 31.5 11.5t52 12.5t69 10t83.5 4q91 0 154 -24t102 -66.5 t56 -101t17 -128.5q0 -71 -32 -140.5t-94.5 -124.5t-155.5 -89.5t-215 -34.5q-75 0 -136.5 9.5t-108.5 22.5z" />
<glyph d="M513 531q-101 0 -176.5 37t-126 98t-76 140t-25.5 163q0 100 23.5 188t64.5 163t97.5 136.5t122.5 108t139 78t147 46.5l90 -75q-88 -30 -159 -72t-126 -93t-94 -108.5t-64 -117.5q40 32 98 57t127 25q78 0 140 -26.5t105 -74.5t66 -115t23 -148q0 -79 -26.5 -153 t-77.5 -131t-124.5 -91.5t-167.5 -34.5zM518 660q55 0 92 23t59.5 58.5t31.5 78.5t9 84q0 75 -17 126t-44 82t-62 44t-71 13q-67 0 -120.5 -22t-84.5 -57q-3 -19 -4.5 -37t-2.5 -36q-2 -61 4.5 -124.5t29.5 -115t66 -84.5t114 -33z" />
<glyph d="M266 580q136 235 260.5 459.5t243.5 455.5h-643l-1 167h799l33 -40l-470 -1096l-222 54v0z" />
<glyph d="M528 532q-75 0 -151.5 16.5t-138 53t-100.5 95.5t-39 145q0 35 11 73t36 74.5t64 69.5t95 59q-35 21 -65 46t-52.5 55t-35 66.5t-12.5 81.5q0 75 29 131.5t79 94t117 56.5t143 19q84 0 152 -18t116 -51.5t74 -80.5t26 -104q0 -35 -12 -73.5t-34.5 -77.5t-56 -76 t-76.5 -67q45 -22 85 -47.5t71 -57t49.5 -69.5t19.5 -86q1 -74 -30 -134.5t-85 -103.5t-126 -66.5t-153 -23.5zM591 1170q27 20 48 47.5t35 56.5t21.5 57.5t7.5 51.5q0 39 -15 67.5t-42 47.5t-64 28t-80 9q-83 0 -130.5 -36.5t-47.5 -93.5q0 -43 22.5 -76t59.5 -61t85 -51.5 t100 -46.5zM523 665q37 0 72 11.5t61.5 31t42.5 46t16 57.5q0 49 -28 85t-73.5 65.5t-102.5 55t-114 52.5q-27 -12 -47.5 -34t-34 -48.5t-20.5 -56t-7 -56.5q0 -47 14.5 -85.5t43.5 -66t73.5 -42.5t103.5 -15z" />
<glyph d="M215 559q82 28 149 70.5t120.5 95t93 112.5t66.5 122q-39 -27 -90.5 -45.5t-110.5 -18.5q-78 0 -140 31t-105 84.5t-66 124.5t-23 152q0 79 27 148t78.5 121t127 82t173.5 30q94 0 167 -32.5t123.5 -88t77 -130t26.5 -158.5q0 -100 -23.5 -193.5t-64.5 -176.5 t-97.5 -153.5t-122.5 -125.5t-139 -91.5t-147 -51.5zM502 1030q58 0 105.5 16.5t79.5 43.5q7 32 11 62t6 59q3 61 -5 120t-31 105.5t-63.5 75t-104.5 28.5q-44 0 -79.5 -21.5t-60.5 -56t-38.5 -76.5t-13.5 -82q0 -72 17 -123.5t44.5 -85t62 -49.5t70.5 -16z" />
<glyph d="M505 -13q-78 0 -140 24.5t-109.5 66.5t-81.5 99t-55.5 122t-31.5 135.5t-9 139.5q1 126 38.5 227.5t99 173t142 110.5t168.5 39q119 0 199.5 -45t129.5 -121t69.5 -177.5t19.5 -213.5q0 -78 -16 -151.5t-44 -138t-68 -118t-89 -92t-105 -59.5t-117 -21zM512 143 q61 0 106 36.5t74 95.5t43.5 134t14.5 152q0 86 -11.5 161.5t-38.5 131.5t-72.5 88.5t-113.5 32.5q-61 0 -106.5 -32t-75.5 -86t-45 -125.5t-15 -150.5q0 -78 12 -156.5t40.5 -141t74 -101.5t113.5 -39z" />
<glyph d="M140 126h318v792q-30 -11 -70 -22t-83.5 -20.5t-86.5 -17.5t-78 -12l-24 112q55 12 115.5 28.5t119 38t112.5 48.5t97 60h3l88 -16v-992l259 1v-127h-770v127z" />
<glyph d="M100 98q25 15 63.5 43.5t85 66t98 83t101.5 95.5t95.5 103t79.5 105t54.5 102t20.5 95q0 57 -15.5 93.5t-43 56.5t-67 27.5t-87.5 7.5q-45 0 -89.5 -13t-83.5 -32.5t-70 -42.5t-48 -42l-79 84q18 25 51.5 58.5t84 63.5t116.5 51t148 21q104 0 176.5 -27.5t118.5 -73.5 t66.5 -104.5t20.5 -120.5q0 -61 -24.5 -123.5t-67 -124.5t-98.5 -121.5t-119 -114.5t-129.5 -103.5t-128.5 -88.5l605 54l2 -177h-797z" />
<glyph d="M150 160q57 -20 107 -29.5t112 -9.5q180 0 266 58t86 163q0 89 -64.5 135.5t-189.5 41.5l-118 -46l-31 128q24 6 63.5 19.5t81.5 34.5q37 15 70 37t58 48.5t39.5 56t14.5 59.5q0 68 -46.5 95t-131.5 27q-39 0 -78.5 -7.5t-76 -20.5t-68.5 -30.5t-57 -38.5l-61 107 q26 25 66 49.5t90 43.5t107 31t117 12q82 0 145 -17t106 -48t65 -74t22 -95q0 -36 -10.5 -78.5t-39 -84.5t-79 -81t-131.5 -67q100 8 165.5 -12t103.5 -56t53 -81.5t15 -88.5q0 -66 -34.5 -129.5t-100.5 -113.5t-161 -80.5t-216 -30.5q-62 0 -125.5 8t-135.5 39z" />
<glyph d="M42 284l398 863h158l43 -53l-361 -717l-53 -81l359 24l30 301h153v-288l200 14v-149h-200v-199h-184v199h-495z" />
<glyph d="M155 139q13 -4 33 -8.5t44 -8t49.5 -6t48.5 -2.5q71 0 135 17t112 49t76.5 77t28.5 101q0 101 -60 152.5t-167 51.5q-39 0 -74 -5t-62.5 -12t-47 -14t-28.5 -10l-90 56l66 541h629v-141h-490l-53 -319q10 5 31.5 11.5t52 12.5t69 10t83.5 4q91 0 154 -24t102 -66.5 t56 -101t17 -128.5q0 -71 -32 -140.5t-94.5 -124.5t-155.5 -89.5t-215 -34.5q-75 0 -136.5 9.5t-108.5 22.5z" />
<glyph d="M513 -13q-101 0 -176.5 37t-126 98t-76 140t-25.5 163q0 100 23.5 188t64.5 163t97.5 136.5t122.5 108t139 78t147 46.5l90 -75q-88 -30 -159 -72t-126 -93t-94 -108.5t-64 -117.5q40 32 98 57t127 25q78 0 140 -26.5t105 -74.5t66 -115t23 -148q0 -79 -26.5 -153 t-77.5 -131t-124.5 -91.5t-167.5 -34.5zM518 116q55 0 92 23t59.5 58.5t31.5 78.5t9 84q0 75 -17 126t-44 82t-62 44t-71 13q-67 0 -120.5 -22t-84.5 -57q-3 -19 -4.5 -37t-2.5 -36q-2 -61 4.5 -124.5t29.5 -115t66 -84.5t114 -33z" />
<glyph d="M266 36q136 235 260.5 459.5t243.5 455.5h-643l-1 167h799l33 -40l-470 -1096l-222 54v0z" />
<glyph d="M528 -12q-75 0 -151.5 16.5t-138 53t-100.5 95.5t-39 145q0 35 11 73t36 74.5t64 69.5t95 59q-35 21 -65 46t-52.5 55t-35 66.5t-12.5 81.5q0 75 29 131.5t79 94t117 56.5t143 19q84 0 152 -18t116 -51.5t74 -80.5t26 -104q0 -35 -12 -73.5t-34.5 -77.5t-56 -76 t-76.5 -67q45 -22 85 -47.5t71 -57t49.5 -69.5t19.5 -86q1 -74 -30 -134.5t-85 -103.5t-126 -66.5t-153 -23.5zM591 626q27 20 48 47.5t35 56.5t21.5 57.5t7.5 51.5q0 39 -15 67.5t-42 47.5t-64 28t-80 9q-83 0 -130.5 -36.5t-47.5 -93.5q0 -43 22.5 -76t59.5 -61t85 -51.5 t100 -46.5zM523 121q37 0 72 11.5t61.5 31t42.5 46t16 57.5q0 49 -28 85t-73.5 65.5t-102.5 55t-114 52.5q-27 -12 -47.5 -34t-34 -48.5t-20.5 -56t-7 -56.5q0 -47 14.5 -85.5t43.5 -66t73.5 -42.5t103.5 -15z" />
<glyph d="M215 15q82 28 149 70.5t120.5 95t93 112.5t66.5 122q-39 -27 -90.5 -45.5t-110.5 -18.5q-78 0 -140 31t-105 84.5t-66 124.5t-23 152q0 79 27 148t78.5 121t127 82t173.5 30q94 0 167 -32.5t123.5 -88t77 -130t26.5 -158.5q0 -100 -23.5 -193.5t-64.5 -176.5 t-97.5 -153.5t-122.5 -125.5t-139 -91.5t-147 -51.5zM502 486q58 0 105.5 16.5t79.5 43.5q7 32 11 62t6 59q3 61 -5 120t-31 105.5t-63.5 75t-104.5 28.5q-44 0 -79.5 -21.5t-60.5 -56t-38.5 -76.5t-13.5 -82q0 -72 17 -123.5t44.5 -85t62 -49.5t70.5 -16z" />
<glyph horiz-adv-x="1438" d="M1014 1138h229v-1138h-229v1138zM249 969h-171v128l171 43v100q0 85 18 151t48.5 115t71.5 82.5t87 54.5t95 30t95 9q50 0 90 -8t56 -14v-179q-30 10 -67 15t-103 5q-35 0 -64.5 -13t-51 -40t-33.5 -67.5t-12 -94.5v-146h279v-171h-279v-969h-230v969z" />
<glyph horiz-adv-x="2259" d="M1835 1138h229v-1138h-229v1138zM249 969h-171v128l171 43v100q0 85 18 151t48.5 115t71.5 82.5t87 54.5t95 30t95 9q50 0 90 -8t56 -14v-179q-30 10 -67 15t-103 5q-35 0 -64.5 -13t-51 -40t-33.5 -67.5t-12 -94.5v-146h279v-171h-279v-969h-230v969zM1069 969h-171v128 l171 43v100q0 85 18 151t48.5 115t71.5 82.5t87 54.5t95 30t95 9q50 0 90 -8t56 -14v-179q-30 10 -67 15t-103 5q-35 0 -64.5 -13t-51 -40t-33.5 -67.5t-12 -94.5v-146h279v-171h-279v-969h-230v969z" />
<glyph horiz-adv-x="1390" d="M688 -16q-99 0 -178.5 29.5t-140 82t-103.5 125t-70.5 158.5t-39.5 181.5t-11 195.5q2 177 46 320.5t119.5 245t179 156.5t223.5 55q152 0 254.5 -61t164.5 -167t88 -249t25 -306q-1 -170 -41.5 -310.5t-113.5 -242t-175.5 -157.5t-226.5 -56zM839 1323q-29 24 -63.5 37 t-75.5 13q-78 0 -137.5 -43t-99.5 -122.5t-60.5 -192t-20.5 -250.5q0 -119 18.5 -231t57.5 -200zM547 203q31 -29 68 -45t81 -16q78 0 136.5 41t97.5 118.5t58.5 188.5t19.5 252q0 140 -19.5 257.5t-61.5 205.5z" />
<glyph horiz-adv-x="1389" d="M145 561q2 139 45.5 249.5t119.5 187.5t179 118t223 41q152 0 254.5 -47t164 -129t87.5 -191.5t25 -234.5q-1 -127 -41.5 -232t-113 -180.5t-175 -117t-226.5 -41.5q-149 0 -253 47.5t-168.5 127.5t-93.5 184.5t-27 217.5zM382 570q0 -81 18.5 -157.5t57 -136t97.5 -96 t140 -38.5q78 -2 136.5 25t97.5 79t58.5 128t19.5 172q0 94 -18 176t-55.5 143t-95.5 96.5t-139 35.5q-78 0 -137.5 -29t-99.5 -84.5t-60 -134.5t-20 -179z" />
<glyph horiz-adv-x="926" d="M378 878q-57 -16 -111 -28.5t-112 -23.5l-25 137q49 14 106.5 39t111.5 53t98 55t66 47h1l104 -23v-1134h-239v878z" />
<glyph horiz-adv-x="1275" d="M129 117q83 39 166.5 86t160 98.5t142.5 107t114.5 113t76.5 116t28 115.5q0 50 -13 91t-40.5 70.5t-69.5 45.5t-100 16q-50 0 -98.5 -12t-92.5 -31.5t-81 -45t-64 -52.5l-95 128q29 32 73 66t101.5 62.5t129 47t155.5 18.5q126 0 209 -32t132.5 -86t69.5 -124t20 -146 q0 -78 -38 -157t-107.5 -155t-167 -147.5t-215.5 -134.5l607 9v-184h-968z" />
<glyph horiz-adv-x="1151" d="M149 -291q43 -8 87.5 -13t83.5 -5q109 0 199.5 27.5t154.5 75t99.5 111.5t35.5 138q0 63 -20 115.5t-62 88.5t-108.5 53.5t-159.5 10.5l-92 -22l-47 156q51 10 96.5 23.5t86.5 31.5q109 43 170.5 113t62.5 156q1 55 -17 94.5t-49.5 65t-74.5 37t-92 11.5q-53 0 -99 -9.5 t-85 -25.5t-71.5 -35.5t-59.5 -38.5l-88 131q29 24 74.5 51.5t102 51.5t120.5 39.5t130 15.5q88 0 167 -22.5t139 -67.5t95 -112t35 -156q0 -65 -21 -121.5t-58 -104t-87 -86t-107 -65.5q85 -11 151 -45t111 -83.5t68.5 -110.5t23.5 -125q0 -106 -47 -202t-134.5 -169 t-214 -115.5t-285.5 -41.5q-50 0 -103 5.5t-110 15.5l-1 158v0z" />
<glyph horiz-adv-x="1343" d="M690 1313h81l144 -84l-464 -906l-105 -148h479l19 452h209v-452h222v-175h-222v-370h-228v370h-658l-56 106z" />
<glyph horiz-adv-x="1230" d="M201 -296q17 -1 32.5 -1.5t31.5 -0.5q129 0 236.5 30t185 84t121 129t43.5 164q0 148 -77 223.5t-245 75.5q-60 0 -129 -13t-141 -36l-52 31l56 750h778l-23 -197h-577l-39 -395q60 14 118 22t112 8q111 0 195.5 -32t141.5 -91t86 -143t29 -188q0 -109 -49 -213.5 t-145 -187t-237.5 -133.5t-326.5 -53q-12 0 -28.5 0.5t-33.5 2t-34 4t-30 6.5l1 154v0z" />
<glyph horiz-adv-x="1378" d="M158 575q0 136 35.5 262t96.5 237t142.5 204.5t174 164.5t190.5 118t193 65l62 -146q-94 -25 -178.5 -72.5t-155.5 -110.5t-128 -138.5t-97.5 -157t-63 -166t-24.5 -165.5q-3 -104 9 -199.5t46 -168.5t94 -116t152 -43q70 0 122 30t87 80t52.5 114t17.5 132q0 91 -19 152 t-50 97t-71 51t-82 15q-60 0 -105.5 -15.5t-68.5 -29.5l-62 132q13 13 39.5 29t63 29.5t82.5 22.5t99 9q96 0 171.5 -35.5t127.5 -96.5t79 -142t27 -172q0 -108 -33 -209t-100 -179.5t-168.5 -125.5t-238.5 -47q-122 0 -218 47t-163 128t-102 188.5t-35 227.5z" />
<glyph horiz-adv-x="1243" d="M335 -399q75 159 150 329.5t147 343.5t140 344.5t128 332.5h-753v189h956l47 -61l-572 -1548l-243 70v0z" />
<glyph horiz-adv-x="1314" d="M150 376q0 55 16.5 110.5t53 107t94.5 99t141 87.5q-51 31 -96 68t-78.5 83t-53 103t-19.5 128q0 92 37 161.5t100.5 116t149 70t182.5 23.5q100 0 182.5 -25t141 -70.5t91 -110t32.5 -142.5q0 -54 -16 -110t-49.5 -109t-86.5 -100t-126 -82q66 -35 126.5 -74t107.5 -86 t75.5 -104t29.5 -128q1 -105 -39.5 -181.5t-110.5 -127t-162.5 -75t-194.5 -24.5q-98 0 -192.5 20.5t-169 67t-120.5 121.5t-46 183zM695 865q56 19 97 50t68 70t41 83t15 89q2 50 -14 90.5t-47.5 69t-78 44t-104.5 15.5q-54 0 -100 -13.5t-79.5 -39t-53 -62.5t-19.5 -84 q0 -53 22 -97t59.5 -81.5t87.5 -70t106 -63.5zM368 394q0 -124 77 -187.5t240 -63.5q52 0 101 14t87 41.5t61 69t23 96.5q0 63 -29.5 110.5t-78.5 86t-112 71.5t-130 66q-52 -22 -96 -52.5t-75.5 -69t-49.5 -84.5t-18 -98z" />
<glyph horiz-adv-x="1403" d="M292 -366q129 27 233.5 91t184.5 149t136.5 183t88.5 193q-25 -24 -57 -44.5t-72.5 -36t-90.5 -24t-113 -8.5q-105 0 -185.5 39t-134.5 104t-82 150t-28 178q0 122 36 223t105 173.5t169.5 112.5t228.5 40q126 0 222 -47t160.5 -128t97 -188.5t32.5 -228.5 q0 -133 -34.5 -259.5t-94.5 -240t-142 -210.5t-177 -172t-199.5 -124t-209.5 -66zM644 314q63 0 113 9.5t90 27t72 42.5t59 56q0 5 0.5 9t0.5 9q3 112 -10 208.5t-48.5 167t-95 111t-148.5 40.5q-62 0 -113 -27t-87 -71.5t-55.5 -100.5t-19.5 -114q0 -91 18 -160t50.5 -115 t76.5 -69t97 -23z" />
<glyph horiz-adv-x="1389" d="M145 564q2 139 45.5 249t119.5 186.5t179 117t223 40.5q152 0 254.5 -47t164 -128t87.5 -190t25 -234q-1 -127 -41.5 -232.5t-113 -181.5t-175 -118t-226.5 -42q-149 0 -253 48t-168.5 128.5t-93.5 185.5t-27 218zM829 965q-28 15 -60 23.5t-70 8.5q-78 0 -137.5 -28.5 t-99.5 -83.5t-60 -133.5t-20 -178.5q0 -94 23.5 -179.5t74.5 -147.5zM571 172q54 -29 124 -30q78 -2 136.5 25.5t97.5 80t58.5 129t19.5 172.5q0 101 -20.5 184t-63.5 146z" />
<glyph horiz-adv-x="1390" d="M688 -16q-99 0 -178.5 29.5t-140 82t-103.5 125t-70.5 158t-39.5 181t-11 195.5q2 177 46 320.5t119.5 245t179 157t223.5 55.5q152 0 254.5 -61.5t164.5 -167.5t88 -249t25 -306q-1 -170 -41.5 -310.5t-113.5 -241.5t-175.5 -157t-226.5 -56zM696 142q78 0 136.5 41 t97.5 118t58.5 188t19.5 252q0 132 -18 247.5t-55.5 201t-95.5 134.5t-139 49q-78 0 -137.5 -43.5t-99.5 -123t-60.5 -192t-20.5 -250.5q0 -79 8.5 -156t25 -146t42.5 -127.5t60.5 -101.5t79 -67t98.5 -24z" />
<glyph horiz-adv-x="922" d="M386 1251q-57 -16 -111 -28.5t-112 -23.5l-25 137q49 14 106.5 40t111.5 55.5t98 58t66 48.5h2l103 -25v-1513h-239v1251z" />
<glyph horiz-adv-x="1270" d="M141 116q83 57 167 124t161 141t144 154t116.5 162.5t77.5 166.5t28 167q0 76 -18 135.5t-51.5 100.5t-80.5 62.5t-105 21.5q-54 0 -102.5 -11.5t-91.5 -30.5t-78.5 -44t-62.5 -52l-95 129q29 32 74.5 66t105 61.5t132 45.5t156.5 18q126 0 212.5 -39.5t139.5 -106.5 t76.5 -155.5t23.5 -186.5q0 -115 -42 -231.5t-118.5 -228.5t-183 -215.5t-234.5 -192.5l636 8v-185h-953z" />
<glyph horiz-adv-x="1151" d="M148 165q84 -18 172 -18q109 0 199.5 24.5t155 67t100 99.5t35.5 122q0 54 -20 98.5t-62 75.5t-108.5 45.5t-159.5 8.5l-94 -22l-46 155q103 20 183 55q109 43 171 113.5t63 155.5q1 56 -17 95.5t-49.5 64.5t-74.5 36.5t-92 11.5q-53 0 -99 -9.5t-85 -25t-71.5 -35 t-59.5 -38.5l-88 131q29 24 74.5 51.5t101.5 51t120 39t130 15.5q88 0 167 -22.5t139 -67.5t95 -112t35 -156q0 -64 -21 -120.5t-57 -104t-85.5 -85.5t-106.5 -66q84 -9 149.5 -39.5t110 -74.5t67.5 -99t23 -112q0 -99 -46.5 -187.5t-134 -155.5t-213 -106.5t-283.5 -38.5 q-51 0 -106 5.5t-111 15.5z" />
<glyph horiz-adv-x="1343" d="M111 352l564 1186h196l48 -84l-468 -884l-88 -148h455l19 471h209v-471h229v-176h-229v-246h-228v246h-651z" />
<glyph horiz-adv-x="1230" d="M202 139q17 -1 33.5 -1.5t33.5 -0.5q128 0 235 26.5t184.5 74.5t120.5 114t43 144q0 148 -76.5 223t-245.5 75q-60 0 -129 -13t-142 -36l-53 32l56 745h779l-21 -196h-581l-39 -395q60 14 119.5 23t114.5 9q110 0 194.5 -31.5t141.5 -90.5t86.5 -142.5t29.5 -187.5 q0 -99 -49 -196t-145 -173.5t-237.5 -123.5t-325.5 -47q-13 0 -29.5 0.5t-34 2t-34.5 4t-30 6.5z" />
<glyph horiz-adv-x="1375" d="M157 573q0 131 35 248.5t95.5 218.5t142 184.5t174 146.5t191.5 104.5t195 58.5l60 -147q-111 -28 -207 -79.5t-174 -120t-135 -150.5t-90 -170q21 19 50.5 41t70 40.5t92 31t114.5 12.5q110 0 193 -36.5t138.5 -98t83.5 -143t28 -172.5q0 -107 -33 -207.5t-100 -178.5 t-168.5 -125t-237.5 -47q-122 0 -218 47t-162.5 127.5t-102 187.5t-35.5 227zM703 143q70 0 122.5 30.5t87.5 80t52.5 113.5t17.5 131q0 91 -20 152t-55.5 97t-83.5 51t-103 15q-67 0 -118 -9.5t-89 -23t-64 -29t-42 -27.5q-2 -14 -3 -28t-1 -28q-3 -104 8.5 -199 t45.5 -167.5t93.5 -115.5t151.5 -43z" />
<glyph horiz-adv-x="1240" d="M326 0q75 159 151 327t149 338t141.5 339t128.5 330h-751l1 188h955l45 -60l-535 -1462h-285v0z" />
<glyph horiz-adv-x="1311" d="M149 382q0 53 17 107t55 105.5t97.5 98.5t145.5 86q-53 32 -99.5 69t-81.5 83.5t-55.5 103t-20.5 127.5q0 92 37 161.5t100.5 116t149 70t182.5 23.5q100 0 182.5 -25t141 -70.5t90.5 -110t32 -142.5q0 -54 -15.5 -110t-48.5 -109t-84 -100t-123 -83q64 -35 124 -74 t106 -85t74 -101.5t29 -124.5q1 -105 -39.5 -182.5t-110.5 -129t-162.5 -77t-194.5 -25.5q-98 0 -192.5 21.5t-169 69t-120.5 123.5t-46 184zM703 863q54 20 93 52t65 71t39 83t14 88q2 50 -14 90.5t-47.5 69t-77.5 44t-104 15.5q-54 0 -100 -13.5t-79.5 -39t-53 -62.5 t-19.5 -84q0 -53 22.5 -97t61.5 -81.5t90.5 -71t109.5 -64.5zM366 400q0 -122 77.5 -189.5t239.5 -67.5q52 0 101 15t87.5 44t61.5 71t23 97q0 60 -28.5 106t-76 84.5t-108.5 71t-126 65.5q-54 -20 -100 -50t-79.5 -68t-52.5 -83.5t-19 -95.5z" />
<glyph horiz-adv-x="1400" d="M308 112q112 24 208 75t173 118t135 146.5t94 160.5q-25 -21 -55.5 -38.5t-69.5 -30t-86.5 -20t-105.5 -7.5q-105 0 -185 39t-134.5 104t-82.5 150t-28 177q0 121 36 222t105 173t169 112t228 40q126 0 221.5 -47t160 -128t97.5 -188t33 -227q0 -132 -35.5 -251 t-96.5 -221.5t-143 -187t-175.5 -148.5t-193 -106t-196.5 -58zM645 692q62 0 112 9t89.5 25.5t71 40.5t57.5 53l2 25q3 112 -10 208t-47.5 166.5t-94 110.5t-148.5 40q-63 0 -114 -27t-87 -71t-55.5 -100t-19.5 -113q0 -91 18 -160t50.5 -115t77.5 -69t98 -23z" />
<glyph horiz-adv-x="1390" d="M688 -16q-99 0 -178.5 29.5t-140 82t-103.5 125t-70.5 158t-39.5 181t-11 195.5q2 177 46 320.5t119.5 245t179 157t223.5 55.5q152 0 254.5 -61.5t164.5 -167.5t88 -249t25 -306q-1 -170 -41.5 -310.5t-113.5 -241.5t-175.5 -157t-226.5 -56zM836 1326q-29 23 -63 35 t-73 12q-78 0 -137.5 -43.5t-99.5 -123t-60.5 -192t-20.5 -250.5q0 -132 22.5 -253.5t70.5 -211.5zM563 189q29 -23 62 -35t71 -12q78 0 136.5 41t97.5 118t58.5 188t19.5 252q0 140 -19.5 258.5t-61.5 205.5z" />
<glyph horiz-adv-x="1285" d="M635 -16q-99 0 -178 29.5t-139.5 82t-103.5 125t-70.5 158t-39.5 181.5t-11 195q2 176 46 319.5t119.5 245.5t178.5 157.5t223 55.5q101 0 180 -28t138.5 -79t100 -122.5t66 -158.5t36.5 -187.5t10 -208.5q-1 -169 -41.5 -309.5t-113.5 -242t-175 -157.5t-226 -56z M643 142q78 0 136.5 40.5t97.5 118t58.5 188.5t19.5 252q0 133 -18 248.5t-55.5 200.5t-95.5 134t-139 49q-78 0 -137.5 -43t-99.5 -122.5t-60.5 -192t-20.5 -251.5q0 -119 19 -231t57.5 -199t97.5 -139.5t140 -52.5z" />
<glyph horiz-adv-x="1285" d="M168 176h433v1055q-29 -8 -66 -18.5t-85 -20t-108 -18.5t-136 -14l-26 154q97 16 187.5 45t164.5 62t127 65t75 52h1l105 -28v-1334h364v-176h-1036v176z" />
<glyph horiz-adv-x="1285" d="M147 116q83 57 167 124t161 141t144 154t116.5 162.5t78 166.5t28.5 167q0 154 -64.5 237.5t-181.5 83.5q-50 0 -100 -11.5t-96 -30.5t-84.5 -44.5t-65.5 -52.5l-94 129q29 32 74 66t104.5 61.5t132.5 45.5t157 18q126 0 212 -39.5t139.5 -106.5t77 -155.5t23.5 -186.5 q0 -115 -42 -231.5t-118.5 -228t-182.5 -215.5t-233 -193l635 7v-184h-954z" />
<glyph horiz-adv-x="1285" d="M187 166q21 -5 47.5 -8.5t53.5 -6t53 -3.5t47 -1q111 0 203 24.5t158.5 66.5t103.5 98.5t37 121.5q0 55 -16 101.5t-54.5 79t-101 49t-155.5 11.5l-142 -32l-47 156q51 10 103.5 22.5t94.5 30.5q55 21 100 49.5t77 63t50 74t18 83.5q1 56 -18.5 95.5t-53 64t-78 36 t-93.5 11.5q-54 0 -104.5 -9.5t-95.5 -25t-82.5 -35t-64.5 -38.5l-87 130q29 24 79 51.5t112 51.5t130.5 39.5t134.5 15.5q89 0 170.5 -22.5t143 -67.5t98 -112t36.5 -155q0 -64 -21.5 -120t-59 -103.5t-88 -85.5t-107.5 -66q85 -5 151 -30.5t112 -68t70 -100.5t24 -128 q0 -99 -48.5 -188t-138.5 -156t-218 -106t-288 -38q-25 0 -56 1.5t-63.5 4.5t-64.5 7t-60 9z" />
<glyph horiz-adv-x="1285" d="M59 352l564 1186h196l49 -84l-469 -884l-88 -148h455l20 471h208v-471h230v-176h-230v-246h-228v246h-651z" />
<glyph horiz-adv-x="1285" d="M219 137q18 -1 35.5 -1.5t34.5 -0.5q128 0 235 27t184.5 75t120.5 114t43 144q0 147 -76.5 222.5t-244.5 75.5q-60 0 -131 -13t-144 -36l-52 31l56 747h781l-22 -195h-581l-44 -404q61 14 122.5 26.5t115.5 12.5q111 0 196 -32t142 -91t86.5 -142.5t29.5 -187.5 q0 -98 -49 -194.5t-144 -173t-236 -123.5t-325 -47q-13 0 -30 0.5t-35.5 2t-36.5 4.5t-32 7z" />
<glyph horiz-adv-x="1285" d="M124 573q0 131 34 248.5t92.5 219t137.5 185t170 146t189 103.5t195 58l60 -148q-112 -27 -207 -78.5t-170.5 -120t-130 -150.5t-85.5 -171q20 19 50 41.5t70.5 41.5t92 31.5t116.5 12.5q110 0 191.5 -36.5t135 -98t80 -143t26.5 -171.5q0 -108 -31.5 -208.5t-97 -178.5 t-165 -125t-235.5 -47q-122 0 -218 47t-163 127.5t-102 187.5t-35 227zM671 143q70 0 120.5 30.5t83.5 80t49 113.5t16 131q0 91 -18.5 152t-52 98t-79.5 52t-101 15q-68 0 -119 -9.5t-89 -23.5t-63.5 -29.5t-41.5 -27.5q-2 -14 -3 -29t-1 -29q-3 -104 8.5 -198.5t45.5 -167 t93.5 -115.5t151.5 -43z" />
<glyph horiz-adv-x="1285" d="M329 0q75 162 153.5 330t155.5 336.5t150 336.5t138 330h-804l1 189h1007l46 -60q-1 -3 -17.5 -45t-44 -112.5t-63.5 -163t-76.5 -196.5t-83 -213.5t-82.5 -213.5t-76 -196.5t-63 -163t-43 -113t-16 -45.5h-282v0z" />
<glyph horiz-adv-x="1285" d="M124 377q0 54 17.5 108t55.5 106t98.5 99t147.5 86q-53 32 -100.5 69t-83 83.5t-56 103.5t-20.5 128q0 92 38.5 161.5t103.5 116.5t152 71t184 24q100 0 181 -25.5t138 -71.5t87.5 -110.5t30.5 -142.5q0 -53 -15 -109t-47 -109.5t-82 -101.5t-120 -84q63 -35 121.5 -73 t103.5 -83.5t72 -100t28 -122.5q1 -105 -41 -183t-113.5 -129.5t-165.5 -77.5t-196 -26q-98 0 -191.5 21t-166 67.5t-117 121.5t-44.5 183zM685 859q52 21 90.5 53.5t64 72t38 83t13.5 87.5q2 50 -13 90.5t-45 69.5t-74.5 45t-102.5 16q-53 0 -100.5 -14t-83 -40t-56.5 -63 t-21 -84q0 -54 23.5 -98t63 -82t92 -71.5t111.5 -64.5zM342 393q0 -60 17.5 -107t54.5 -78.5t95.5 -48t139.5 -16.5q52 0 102.5 15t90.5 44.5t64.5 72t24.5 97.5q0 59 -28 104.5t-74 83t-106.5 70t-124.5 64.5q-56 -20 -103 -50.5t-81 -69.5t-53 -84.5t-19 -96.5z" />
<glyph horiz-adv-x="1285" d="M246 113q114 24 211 74.5t175 118t135.5 147t93.5 161.5q-50 -43 -126.5 -70.5t-192.5 -27.5q-105 0 -185 38.5t-134 103.5t-81.5 150t-27.5 177q0 122 36 223t105 173t169 112t228 40q126 0 221 -47t159.5 -128t97 -188t32.5 -227q0 -133 -35.5 -252t-96.5 -221.5 t-143 -187t-175.5 -148.5t-194 -105.5t-197.5 -57.5zM585 691q62 0 112 9t90 25.5t71.5 40t57.5 52.5l2 28q3 111 -10 207t-47.5 166.5t-94 110.5t-148.5 40q-63 0 -113.5 -27.5t-86.5 -71.5t-55.5 -100t-19.5 -114q0 -91 18.5 -159.5t50.5 -114.5t76.5 -69t96.5 -23z" />
<glyph horiz-adv-x="1285" d="M635 -16q-99 0 -178 29.5t-139.5 82t-103.5 125t-70.5 158t-39.5 181.5t-11 195q2 176 46 319.5t119.5 245.5t178.5 157.5t223 55.5q101 0 180 -28t138.5 -79t100 -122.5t66 -158.5t36.5 -187.5t10 -208.5q-1 -169 -41.5 -309.5t-113.5 -242t-175 -157.5t-226 -56z M776 1331q-28 20 -60 31t-69 11q-78 0 -137.5 -43t-99.5 -122.5t-60.5 -192t-20.5 -251.5q0 -132 22.5 -253.5t70.5 -211.5zM510 189q29 -23 62 -35t71 -12q78 0 136.5 40.5t97.5 118t58.5 188.5t19.5 252q0 144 -20.5 266t-65.5 209z" />
<glyph horiz-adv-x="1285" d="M94 559q2 139 45.5 249.5t119 188t178.5 119t223 41.5q152 0 254 -47.5t164 -129.5t87.5 -192t24.5 -235q-1 -127 -41 -231.5t-113 -179.5t-175 -116.5t-226 -41.5q-149 0 -252.5 47.5t-168 127t-93.5 183.5t-27 217zM330 568q0 -81 18.5 -157t57 -135.5t97.5 -95.5 t140 -38q79 -2 137.5 24.5t97 78t57.5 127.5t19 172q0 94 -17.5 176.5t-55 144t-95.5 97t-139 35.5q-78 0 -137.5 -29.5t-99.5 -85t-60 -135t-20 -179.5z" />
<glyph horiz-adv-x="1285" d="M171 176h429v710q-19 -5 -50 -11.5t-68 -12.5t-77.5 -12t-78.5 -11t-71 -8t-56 -4l-27 140q105 24 197.5 49t165.5 50t123.5 48t72.5 43h1l107 -26v-955h364v-176h-1032v176z" />
<glyph horiz-adv-x="1285" d="M140 116q84 39 167.5 86t160 99t143 108t115 114.5t76.5 117t28 116.5q0 49 -13 90t-40.5 70t-70 45t-100.5 16q-50 0 -98.5 -12t-92.5 -31.5t-81 -45.5t-64 -53l-95 128q29 32 76.5 66t108 62.5t130.5 47t143 18.5q126 0 209 -29t132.5 -79.5t70 -117.5t20.5 -143 q0 -78 -40.5 -159.5t-113.5 -161t-174 -154t-221 -139.5l627 9v-184h-968z" />
<glyph horiz-adv-x="1285" d="M190 -291q21 -5 47.5 -8t53.5 -5.5t53 -3.5t47 -1q109 0 199 27.5t154 75t99.5 111.5t35.5 138q0 63 -20 115.5t-62 89t-108 53.5t-158 10l-96 -22l-47 154q51 10 96.5 24t87.5 32q110 43 171.5 113.5t62.5 156.5q1 55 -16.5 94.5t-49 65t-74.5 37t-92 11.5 q-54 0 -101.5 -8.5t-89 -22t-76 -31.5t-61.5 -37l-75 131q29 24 74 50t101.5 47.5t120.5 36t130 14.5q88 0 167 -22.5t139 -67.5t95 -112t35 -156q0 -65 -21 -121.5t-58 -104t-86.5 -86t-107.5 -65.5q85 -11 151 -45t111 -83.5t68.5 -110.5t23.5 -125q0 -106 -47 -202 t-134.5 -169t-214 -115.5t-285.5 -41.5q-26 0 -56.5 1.5t-62.5 4t-64 6.5t-59 9l-1 158v0z" />
<glyph horiz-adv-x="1285" d="M60 106l582 1212h81l144 -84l-468 -911l-104 -148h478l20 450h207v-450h224v-175h-224v-376h-227v376h-657z" />
<glyph horiz-adv-x="1285" d="M168 -296q8 0 20.5 -0.5t25.5 -1t25.5 -0.5h20.5q137 0 252 30.5t197.5 85t128.5 129t46 163.5q0 148 -81 223.5t-259 75.5q-65 0 -138.5 -13t-151.5 -36l-52 31l47 749h835l-22 -196h-636l-29 -395q66 14 129 22t120 8q116 0 204.5 -32t148 -91t89.5 -143t30 -188 q0 -109 -51.5 -213.5t-152 -187t-249.5 -133.5t-344 -53q-12 0 -33 0.5t-43.5 2t-43.5 4t-34 6.5l1 153v0z" />
<glyph horiz-adv-x="1285" d="M135 574q0 136 31 262.5t85.5 237.5t128.5 204.5t160.5 165t181 118t190.5 64.5l61 -147q-142 -37 -251 -121.5t-183.5 -196.5t-114 -240.5t-43.5 -252.5q-3 -104 6 -198.5t39.5 -167.5t87 -116t148.5 -43q70 0 119 30.5t80 80t45.5 113.5t14.5 132q0 92 -15.5 153.5 t-43 98t-65 51.5t-80.5 15q-63 0 -104 -16.5t-64 -30.5l-60 130q13 13 37.5 29.5t59.5 30.5t80 23.5t100 9.5q97 0 169.5 -35.5t120.5 -97t71.5 -143t23.5 -173.5q0 -72 -13 -141.5t-40.5 -131.5t-69.5 -114.5t-99.5 -91t-131.5 -60t-165 -21.5q-122 0 -214.5 47 t-155.5 127.5t-95 188t-32 227.5z" />
<glyph horiz-adv-x="1285" d="M305 -399q75 159 157.5 329.5t164 343.5t157 344t136.5 332l-803 2l1 188h1005l47 -61l-622 -1548l-243 70v0z" />
<glyph horiz-adv-x="1285" d="M125 376q0 55 16.5 111t53 109t94 101t140.5 88q-51 31 -95.5 68.5t-77.5 83.5t-52.5 102.5t-19.5 127.5q0 92 36.5 160.5t100 114.5t148.5 68.5t182 22.5q100 0 182.5 -24t141 -69t90.5 -108.5t32 -141.5q0 -54 -16 -110.5t-49.5 -109.5t-86.5 -100t-127 -82 q66 -36 127 -75.5t108 -87t75.5 -104.5t29.5 -129q1 -105 -39.5 -181.5t-110 -127t-162 -75t-194.5 -24.5q-65 0 -129.5 9t-123 28.5t-108.5 50.5t-87 74.5t-58 100.5t-21 129zM668 869q56 19 97.5 50t68.5 70t41 83.5t15 89.5q2 50 -14 89.5t-47.5 67.5t-78 42.5 t-104.5 14.5q-53 0 -99 -12.5t-80 -37.5t-53 -61t-19 -83q0 -53 21.5 -97t59 -81.5t87 -70.5t105.5 -64zM343 394q0 -124 77 -187.5t240 -63.5q51 0 100 14t87 41.5t61 69t23 96.5q0 63 -30 111t-79 87t-112.5 72.5t-130.5 67.5q-52 -22 -95 -53.5t-74.5 -70.5t-49 -85.5 t-17.5 -98.5z" />
<glyph horiz-adv-x="1285" d="M289 -366q103 25 188.5 75t153 116.5t118 146t84 164t51 169.5t19.5 164q3 112 -7 208t-41 166.5t-87 110.5t-145 40q-63 0 -110.5 -27.5t-80 -71.5t-49 -100t-16.5 -114q0 -184 59 -277t165 -93q37 0 61.5 3.5t42.5 9.5t31.5 13.5t27.5 14.5l53 -124q-12 -14 -34 -30.5 t-56 -30t-80 -22.5t-107 -9q-99 0 -172.5 39t-122 104.5t-73 151t-24.5 178.5q0 122 33 223t98.5 173t162 112t224.5 40q126 0 218.5 -47t153 -127.5t90 -188t29.5 -228.5q0 -145 -31.5 -275.5t-86 -243.5t-129.5 -206.5t-162 -164.5t-182.5 -117.5t-191.5 -65.5l-75 141v0z " />
<glyph horiz-adv-x="1285" d="M94 564q2 139 45.5 250t119 189t178.5 120t223 42q152 0 254 -48t164 -130.5t87.5 -193t24.5 -235.5q-1 -127 -41 -232.5t-113 -181.5t-175 -118t-226 -42q-149 0 -252.5 48t-168 128.5t-93.5 185.5t-27 218zM773 976q-27 14 -58.5 21.5t-67.5 7.5q-78 0 -137.5 -30 t-99.5 -86t-60 -136t-20 -180q0 -91 23 -175.5t71 -146.5zM515 174q57 -31 128 -32q79 -2 137.5 25.5t97 80t57.5 129t19 172.5q0 103 -21 191.5t-66 151.5z" />
<glyph horiz-adv-x="0" />
</font>
</defs>
</svg>
