<?xml version="1.0" standalone="no"?>
<!DOCTYPE svg PUBLIC "-//W3C//DTD SVG 1.1//EN" "http://www.w3.org/Graphics/SVG/1.1/DTD/svg11.dtd" >
<svg xmlns="http://www.w3.org/2000/svg">
<metadata></metadata>
<defs>
<font id="haufemerriweatherbold" horiz-adv-x="1049" >
<font-face units-per-em="2048" ascent="1638" descent="-410" />
<missing-glyph horiz-adv-x="643" />
<glyph horiz-adv-x="0" />
<glyph horiz-adv-x="0" />
<glyph unicode="&#x9;" horiz-adv-x="0" />
<glyph unicode="&#xa;" horiz-adv-x="0" />
<glyph horiz-adv-x="0" />
<glyph horiz-adv-x="0" />
<glyph horiz-adv-x="0" />
<glyph horiz-adv-x="0" />
<glyph horiz-adv-x="0" />
<glyph horiz-adv-x="0" />
<glyph horiz-adv-x="0" />
<glyph unicode=" "  horiz-adv-x="643" />
<glyph unicode="&#x09;" horiz-adv-x="643" />
<glyph unicode="&#xa0;" horiz-adv-x="643" />
<glyph unicode="!" horiz-adv-x="723" d="M181 1780h338l-73 -1236h-186zM167 143q0 40 16 75t44 61t65 40.5t79 14.5q49 0 83 -13t55.5 -35t31 -51t9.5 -62q0 -44 -15.5 -79t-43 -59.5t-66 -38t-83.5 -13.5q-35 0 -67 11t-56 32t-38 50.5t-14 66.5z" />
<glyph unicode="&#x22;" horiz-adv-x="1317" d="M791 1684h297l-58 -775h-181zM229 1684h297l-58 -775h-181z" />
<glyph unicode="#" horiz-adv-x="1523" d="M370 354h-217l-2 167h231l32 348h-229v167h247l30 337h206l-30 -337h287l31 337h206l-31 -337h237v-167h-254l-30 -348h240l1 -167h-254l-33 -354h-206l33 354h-290l-34 -354h-208zM872 521l36 348h-288l-32 -348h284z" />
<glyph unicode="$" horiz-adv-x="1370" d="M204 433h174l48 -244q32 -34 85 -55.5t139 -21.5q66 0 114 16t79 44.5t45.5 68.5t14.5 87q0 51 -25 93.5t-70.5 81.5t-109 76.5t-140.5 76.5q-75 40 -140.5 86.5t-115 105t-78 134t-28.5 174.5q0 74 28.5 137.5t82 112.5t128.5 82t168 45v229h179v-224q59 -4 111.5 -13.5 t96 -20.5t76 -21.5t52.5 -16.5l-13 -333h-169l-46 225q-23 23 -61 38.5t-100 14.5q-53 0 -97.5 -12.5t-76.5 -36.5t-49.5 -58.5t-17.5 -77.5q0 -59 31.5 -106t81 -86t110 -72t117.5 -65q81 -46 151 -92t122 -101t82 -123t30 -158q0 -81 -25.5 -155.5t-81 -134.5 t-142.5 -100.5t-211 -51.5l-2 -239h-179l2 239q-69 6 -130.5 18.5t-112 26.5t-87.5 27.5t-57 19.5z" />
<glyph unicode="%" horiz-adv-x="2130" d="M1272 1538h199l-656 -1538h-199zM473 643q-90 0 -162.5 34.5t-123.5 93.5t-78 137.5t-27 166.5q0 108 35 192t94.5 141t136.5 87t161 30q102 0 176 -34t122 -93.5t71 -139t23 -170.5q0 -108 -36 -191t-96 -139.5t-137 -85.5t-159 -29zM488 777q48 0 77.5 26.5t46 69.5 t22 97t5.5 109t-5.5 111t-21.5 100.5t-44 72.5t-74 28q-47 0 -76.5 -27t-45.5 -70.5t-21.5 -98t-5.5 -109.5q0 -52 5.5 -106.5t21 -99.5t43.5 -74t73 -29zM1191 458q0 108 35 192t94.5 141t136.5 87t161 30q102 0 176 -34t122 -93.5t71 -139t23 -170.5q0 -108 -36 -191 t-96 -139.5t-137.5 -85.5t-159.5 -29q-90 0 -162 34.5t-123 93.5t-78 137.5t-27 166.5zM1454 469q0 -51 5.5 -106t21 -100t43.5 -74t73 -29q48 0 77.5 26.5t45.5 69.5t21.5 97t5.5 109t-5.5 111t-21 100.5t-43.5 72.5t-74 28q-48 0 -77 -27t-45 -70.5t-21.5 -98t-5.5 -109.5 z" />
<glyph unicode="&#x26;" horiz-adv-x="1587" d="M100 373q0 71 24.5 129t65.5 104.5t94.5 81.5t110.5 61q-32 41 -62 87.5t-52.5 98t-36 108t-13.5 116.5q0 80 33.5 149.5t93 120.5t141 80.5t177.5 29.5q102 0 175 -25.5t120 -66.5t69.5 -94t22.5 -107q0 -82 -24.5 -145t-68 -114t-104 -94.5t-132.5 -86.5 q37 -44 84.5 -100.5t97.5 -113.5t97.5 -109t84.5 -88l29 -28q36 59 50.5 136.5t10.5 186.5l-156 29v139h509v-139l-144 -29q0 -80 -11 -148t-30 -124t-44.5 -100.5t-52.5 -76.5q48 -41 101 -67.5t121 -31.5v-125q-12 -9 -36 -15t-51 -10t-52 -6t-39 -2q-40 0 -74 4t-65 13.5 t-61 25t-63 38.5q-41 -25 -88 -41.5t-93.5 -26.5t-91 -14.5t-80.5 -4.5q-136 0 -245 25t-185 74.5t-116.5 123.5t-40.5 172zM660 895q46 40 77 81t50 84.5t26.5 89.5t7.5 96q0 24 -5 55t-20.5 59t-44 47.5t-75.5 19.5q-35 0 -64 -15.5t-50 -44t-32.5 -69t-11.5 -89.5 q0 -51 14.5 -97t35.5 -86t46 -73t46 -58zM387 418q0 -58 19.5 -113t59.5 -98t100 -69t140 -26q47 0 105 11t113 38q0 1 -0.5 1t-0.5 1q-51 46 -108.5 107t-116 126.5t-115 131.5t-105.5 124q-41 -47 -66 -103t-25 -131z" />
<glyph unicode="'" horiz-adv-x="755" d="M229 1684h297l-58 -775h-181z" />
<glyph unicode="(" horiz-adv-x="904" d="M142 685q0 154 31 285t80.5 239.5t109.5 194t118 147.5t106.5 101t75.5 55l112 -92q-21 -14 -55.5 -45.5t-74 -83t-80 -123.5t-74.5 -165.5t-56.5 -210t-26.5 -257.5q-4 -156 14.5 -287.5t51.5 -239.5t75 -193t84.5 -147t81 -102t63.5 -58l-115 -90q-22 14 -69 50 t-105 96.5t-119.5 146.5t-112 200.5t-83 258.5t-32.5 320z" />
<glyph unicode=")" horiz-adv-x="904" d="M761.009 635.042q0 -153.991 -30.998 -284.982q-30.998 -130.992 -80.4951 -239.485q-49.4971 -108.494 -109.493 -193.988q-59.9971 -85.4951 -117.993 -147.491t-106.493 -100.994q-48.4971 -38.9971 -75.4961 -54.9961l-111.993 91.9941 q20.999 13.999 55.4971 45.4971t73.9951 82.9951q39.498 51.4971 79.9951 123.492q40.498 71.9961 74.4961 165.49t56.4961 209.987q22.499 116.492 26.499 257.484q3.99902 155.99 -14.5 287.482q-18.498 131.491 -51.4961 239.485q-32.998 107.993 -74.9961 192.988 q-41.9971 84.9941 -84.4941 146.99q-42.498 61.9971 -80.9951 101.994q-38.498 39.998 -63.4961 57.9961l114.992 89.9951q21.999 -13.999 68.9961 -49.9971t104.994 -96.4941q57.9961 -60.4961 119.492 -146.491q61.4961 -85.9941 111.993 -200.487t82.9951 -258.484 t32.498 -319.98z" />
<glyph unicode="*" horiz-adv-x="1328" d="M118 978l276 119l208 57l-208 53l-280 112l125 223l238 -188l155 -148l-57 208l-50 300h259l-38 -297l-53 -208l149 153l239 188l128 -220l-277 -116l-207 -59l207 -51l282 -110l-131 -229l-233 187l-157 148l59 -208l50 -298l-260 -1l38 299l52 210l-147 -155l-238 -191 z" />
<glyph unicode="+" horiz-adv-x="1353" d="M209 718h191l178 -12l-7 151v228h212v-228l-9 -151l148 12h222v-212h-222l-148 7l9 -149v-240h-212v240l7 149l-178 -7h-191v212z" />
<glyph unicode="," horiz-adv-x="696" d="M175 170q0 39 15.5 71.5t40 55t54.5 35t60 12.5h16q51 0 89.5 -21.5t65 -59t39.5 -87t13 -104.5q0 -57 -11.5 -115.5t-32 -115.5t-49 -109.5t-61 -96.5t-69 -76.5t-73.5 -49.5h-3l-95 62v32q24 14 50.5 42.5t49 67t37.5 85.5t15 98q0 37 -11 58.5t-28 37t-36.5 28 t-36.5 30.5t-28 46t-11 74z" />
<glyph unicode="-" horiz-adv-x="1345" d="M230 718h885v-203h-885v203z" />
<glyph unicode="." horiz-adv-x="717" d="M167 143q0 40 16 75t44 61t65 40.5t79 14.5q49 0 83 -13t55.5 -35t31 -51t9.5 -62q0 -43 -15.5 -78t-43 -60t-66 -38.5t-83.5 -13.5q-35 0 -67 11t-56 32t-38 50.5t-14 66.5z" />
<glyph unicode="/" horiz-adv-x="882" d="M608 1599h240l-573 -1962h-240z" />
<glyph unicode="0" horiz-adv-x="1407" d="M689 -18q-113 0 -199.5 31.5t-150 87t-106 132t-68 166t-36 188.5t-9.5 200q2 172 46 311t122 237t187 150.5t240 52.5q118 0 206 -27.5t152 -78t105.5 -120t66 -154t34 -181t8.5 -199.5q-1 -173 -42.5 -318.5t-118.5 -251.5t-187.5 -166t-249.5 -60zM698 107 q82 0 133.5 42.5t80.5 126t40 207.5t11 286q0 139 -13 256t-43.5 201.5t-80.5 132t-124 47.5q-78 0 -128.5 -38.5t-79 -115t-39.5 -190.5t-11 -266q0 -89 5.5 -174.5t18 -162t32 -141t47.5 -111.5t65.5 -73.5t85.5 -26.5z" />
<glyph unicode="1" horiz-adv-x="915" d="M117 126l222 27v1048q-19 -6 -49.5 -12.5t-63.5 -12.5t-65 -10.5t-53 -5.5l-26 157q58 12 122.5 36.5t127 56t117 66t91.5 65.5h1l112 -47v-1341l214 -27v-126h-750v126z" />
<glyph unicode="2" horiz-adv-x="1266" d="M84 121q91 61 176 133t159.5 150.5t136 162.5t105.5 169.5t68.5 170.5t24.5 166q0 61 -17.5 107.5t-49.5 77.5t-76 47t-98 16t-102.5 -14.5t-90 -37t-74.5 -49t-56 -51.5l-104 118q27 44 78 88.5t118.5 80.5t149 59t169.5 23q129 0 219 -35.5t146.5 -93t82 -131.5 t25.5 -151q0 -87 -28 -174.5t-77 -172.5t-114 -166.5t-138.5 -157t-152 -144t-153.5 -126.5l550 43l75 156l145 -29l-55 -356h-997z" />
<glyph unicode="3" horiz-adv-x="1161" d="M128 183q19 -7 44 -12t52 -8t55 -4.5t54 -1.5q90 0 164.5 22.5t128 63.5t83.5 100t30 132q0 45 -14.5 86t-47.5 73t-85.5 52.5t-128.5 24.5l-135 -24l-53 146q41 6 83.5 19t78.5 26q125 45 187.5 115.5t63.5 157.5q0 52 -17 87.5t-45.5 57.5t-65 31.5t-74.5 9.5 q-101 0 -178 -27t-140 -72l-75 130q25 24 72.5 54t110 55.5t136.5 43t152 17.5q92 0 172 -19.5t138.5 -61t92 -105.5t33.5 -152q0 -73 -25 -135t-71.5 -113.5t-112.5 -91.5t-147 -70q104 5 183.5 -16.5t134 -62.5t82.5 -98t28 -123q0 -114 -47.5 -207.5t-138 -160 t-220.5 -103.5t-295 -37q-30 0 -64 2.5t-66.5 7t-62 11t-50.5 13.5v167z" />
<glyph unicode="4" horiz-adv-x="1327" d="M52 514q60 104 123 235t118.5 273.5t97.5 290.5t62 286h88l228 -47q-30 -143 -72.5 -271.5t-91.5 -243.5t-101.5 -215t-103.5 -186l-71 -85l453 30l24 443h250v-424l201 14v-234h-201v-380h-277v380h-639z" />
<glyph unicode="5" horiz-adv-x="1190" d="M160 150q29 -2 58.5 -3t57.5 -1q101 0 193 30.5t161.5 83.5t111 124t41.5 151q0 67 -19.5 114.5t-55.5 77t-87.5 43t-115.5 13.5q-42 0 -83.5 -5t-79.5 -13t-73 -18.5t-63 -20.5l-72 53l84 743h643l21 39h147l-52 -272h-572l-46 -369q70 28 151.5 40.5t153.5 12.5 q109 0 190.5 -30.5t135 -86t80 -133t26.5 -171.5q0 -81 -28 -155t-79 -137.5t-123.5 -114.5t-160.5 -87.5t-190 -56t-213 -19.5q-34 0 -71 3t-72 11z" />
<glyph unicode="6" horiz-adv-x="1327" d="M118 617q0 132 35.5 253t97.5 226.5t145.5 193.5t180 153.5t201 107t208.5 54.5l61 -118q-114 -33 -206 -91.5t-163.5 -134t-122 -166t-80.5 -187.5q24 20 55.5 39t71.5 34t89.5 24.5t109.5 9.5q101 0 181 -31.5t135 -91.5t84 -146t29 -194q0 -112 -35 -215t-104 -182 t-171.5 -126t-236.5 -47q-139 0 -244.5 49.5t-177 135.5t-107.5 201.5t-36 248.5zM690 117q58 0 102 32t74 82.5t45 113t15 124.5q0 99 -16.5 170t-45.5 116.5t-69 67t-88 21.5q-52 0 -94.5 -10.5t-76 -26.5t-58 -36t-40.5 -38q-6 -50 -6 -98q-2 -113 10.5 -208t43 -164 t80.5 -107.5t124 -38.5z" />
<glyph unicode="7" horiz-adv-x="1267" d="M346 49q82 165 160.5 328t151.5 320.5t139.5 307.5t124.5 288l-570 -13l-76 -209l-176 27l51 424h976l69 -83l-529 -1476l-321 86v0z" />
<glyph unicode="8" horiz-adv-x="1357" d="M141 381q0 113 66.5 208.5t210.5 165.5q-44 33 -82 72t-66 87.5t-44 108t-16 131.5q0 96 42 168.5t110 121t154.5 73t176.5 24.5q117 0 203 -26t142.5 -71.5t83.5 -107.5t27 -135q0 -105 -53.5 -197t-171.5 -164q61 -36 117 -77t98.5 -92t68 -114.5t25.5 -143.5 q0 -101 -43.5 -181t-119.5 -135.5t-179.5 -85t-223.5 -29.5q-65 0 -129 10t-122.5 30.5t-108.5 52.5t-87 76t-58 101.5t-21 128.5zM801 907q55 48 83.5 111t28.5 129q0 131 -60 203t-169 72q-42 0 -79.5 -13t-65 -38t-43.5 -62t-16 -85q0 -55 26.5 -99t71 -81.5t102.5 -70.5 t121 -66zM411 425q0 -70 15.5 -128.5t48.5 -100.5t85 -65.5t124 -23.5q43 0 85 14.5t75 42.5t53.5 70t20.5 96q0 65 -34 113t-89 87.5t-124 75t-139 76.5q-54 -46 -87.5 -110.5t-33.5 -146.5z" />
<glyph unicode="9" horiz-adv-x="1325" d="M312 48q111 32 200 88t157 129t115.5 160t76.5 182q-21 -20 -49 -38t-65 -32.5t-84 -23t-106 -8.5q-99 0 -182 34t-142.5 97t-92.5 152.5t-33 200.5q0 110 37.5 210.5t109.5 176.5t176.5 121t239.5 45q142 0 245.5 -47.5t171 -132.5t100 -202.5t32.5 -256.5 q0 -132 -34 -252t-93 -224t-140 -190t-175 -150t-197 -104.5t-207 -53.5zM631 676q48 0 89 9.5t75 24.5t59.5 33t42.5 36q4 29 5.5 59t2.5 59q2 112 -7.5 206t-36.5 161.5t-75 105t-123 37.5q-59 0 -105.5 -31.5t-79 -82t-50 -112t-17.5 -121.5q0 -101 16.5 -174 t45.5 -119.5t69.5 -68.5t88.5 -22z" />
<glyph unicode=":" horiz-adv-x="717" d="M167 978q0 40 16 75t44 61t65 40.5t79 14.5q49 0 83 -13t55.5 -35t31 -51t9.5 -62q0 -43 -15.5 -78t-43 -60t-66 -38.5t-83.5 -13.5q-35 0 -67 11t-56 32t-38 50.5t-14 66.5zM167 143q0 40 16 75t44 61t65 40.5t79 14.5q49 0 83 -13t55.5 -35t31 -51t9.5 -62 q0 -43 -15.5 -78t-43 -60t-66 -38.5t-83.5 -13.5q-35 0 -67 11t-56 32t-38 50.5t-14 66.5z" />
<glyph unicode=";" horiz-adv-x="717" d="M175 170q0 39 15.5 71.5t40 55t54.5 35t60 12.5h16q51 0 89.5 -21.5t65 -59t39.5 -87t13 -104.5q0 -57 -11.5 -115.5t-32 -115.5t-49 -109.5t-61 -96.5t-69 -76.5t-73.5 -49.5h-3l-95 62v32q24 14 50.5 42.5t49 67t37.5 85.5t15 98q0 37 -11 58.5t-28 37t-36.5 28 t-36.5 30.5t-28 46t-11 74zM168 978q0 40 16 75t44 61t65 40.5t79 14.5q49 0 83 -13t55.5 -35t31 -51t9.5 -62q0 -43 -15.5 -78t-43 -60t-66 -38.5t-83.5 -13.5q-35 0 -67 11t-56 32t-38 50.5t-14 66.5z" />
<glyph unicode="&#x3c;" horiz-adv-x="1370" d="M168 683l968 495v-240l-668 -323l668 -325v-235l-968 494v134z" />
<glyph unicode="=" horiz-adv-x="1337" d="M210 988h917v-204h-917v204zM210 448h917v-204h-917v204z" />
<glyph unicode="&#x3e;" horiz-adv-x="1370" d="M1202.01 683l-967.94 495v-240l667.959 -323l-667.959 -325v-235l967.94 494v134z" />
<glyph unicode="?" horiz-adv-x="1030" d="M345 502q-17 17 -35.5 53t-35 78.5t-28 85.5t-13.5 74q0 59 27.5 102t71 76t97 59.5t105 52.5t95.5 54.5t68 66.5q0 7 0.5 14t0.5 15q0 74 -26 149t-77.5 136t-128 99t-178.5 38q-48 0 -90 -5.5t-61 -9.5l-43 173q9 6 38 13t69 13t88 10t95 4q158 0 270 -45.5 t182.5 -117.5t103 -161.5t32.5 -177.5q0 -85 -27 -147t-69 -109.5t-94 -83t-102 -66t-93 -60.5t-67 -65q-3 -8 -5.5 -22.5t-2.5 -28.5q0 -61 7.5 -117.5t18.5 -107.5zM377 208q14 26 34.5 44.5t45.5 28.5t54 9.5t59 -11.5q34 -15 52.5 -35.5t23.5 -43t0 -46.5t-17 -45 q-11 -29 -31.5 -48.5t-46.5 -28.5t-57 -8t-64 14q-49 28 -63 74.5t10 95.5z" />
<glyph unicode="@" horiz-adv-x="2207" d="M160 331q0 180 42.5 340t118 294t179 240.5t226 180t259 113t277.5 39.5q157 0 289.5 -47t228.5 -141.5t149.5 -237t53.5 -334.5q0 -140 -31 -256t-80.5 -208t-112.5 -161t-127 -115t-124 -68.5t-103 -22.5q-54 0 -90.5 47t-44.5 134q-4 41 3 110t26 178 q-34 -91 -79.5 -178.5t-98.5 -156.5t-112 -111.5t-120 -42.5q-53 0 -106.5 29t-96.5 84t-70.5 134.5t-27.5 179.5q0 72 17.5 151.5t50.5 157t81.5 147.5t109.5 123.5t135 85t158 31.5q54 0 116.5 -12.5t118.5 -41.5q6 19 17 35.5t31 12.5q35 -9 70 -25.5t78 -28.5 q-13 -58 -29.5 -136.5t-32 -164.5t-29 -173t-21.5 -160q-3 -45 -2.5 -83.5t3.5 -67t8 -45t11 -16.5q53 0 111 42.5t106 119t79.5 183t31.5 234.5q0 117 -25 210t-69 164t-104.5 122t-131 83.5t-148 47.5t-156.5 15q-104 0 -205 -31t-192 -90t-168 -145t-133 -195 t-87.5 -240.5t-31.5 -282.5q0 -191 52.5 -329.5t140.5 -229t203.5 -134t242.5 -43.5q50 0 108 6.5t113.5 18.5t102.5 28.5t76 35.5l48 -120q-38 -32 -91 -59t-116.5 -46.5t-134.5 -31t-145 -11.5q-185 0 -332.5 58.5t-250.5 169.5t-158 271.5t-55 365.5zM829 418 q0 -33 4.5 -76t18 -81t37 -64t61.5 -26q33 0 72.5 37.5t79 98t75 136t61.5 150.5q35 103 46 185q-14 15 -40.5 27.5t-57 22t-61 15t-51.5 5.5q-60 0 -106 -35.5t-77 -95t-46.5 -137t-15.5 -162.5z" />
<glyph unicode="A" horiz-adv-x="1441" d="M-51 137l129 28l482 1363h321l481 -1363l139 -28v-137h-649v137l163 28l-75 244h-543l-71 -245l165 -27v-137h-541zM892 565l-197 645l-35 146l-32 -146l-186 -645h450z" />
<glyph unicode="B" horiz-adv-x="1441" d="M85 137l164 27v1193l-162 31v134h317q50 0 91 2t78 4.5t73.5 4.5t77.5 2q143 0 247.5 -20.5t173 -62.5t101.5 -107t33 -154q0 -84 -24.5 -150t-67.5 -114t-102.5 -78t-129.5 -41q90 -1 168.5 -25.5t137 -70t92.5 -110t34 -145.5q0 -91 -29 -175.5t-100.5 -150 t-192 -104.5t-303.5 -39q-41 0 -78 2t-79 4t-91.5 4t-113.5 2h-315v137zM564 864q14 -2 37 -3.5t47.5 -2t48.5 -0.5h41q63 0 106.5 18t70.5 54t38.5 89.5t11.5 124.5q0 65 -13.5 113.5t-44.5 80t-82 47t-125 15.5q-43 0 -81.5 -4t-54.5 -6v-526zM564 144q9 -5 27 -8.5 t39.5 -5.5t45.5 -3t45 -1q90 0 153.5 20.5t103.5 59t58.5 94.5t18.5 127q0 80 -17.5 136t-55 91t-96 51t-140.5 16h-44.5t-53.5 -0.5t-50 -1.5t-34 -2v-573z" />
<glyph unicode="C" horiz-adv-x="1360" d="M57 754q0 177 60 321.5t166 247.5t250 159t311 56q72 0 137 -8.5t121.5 -19t103 -21.5t81.5 -15l-23 -398h-205l-60 263q-11 12 -26 23.5t-37.5 19.5t-54.5 13t-76 5q-86 0 -158 -37.5t-123.5 -113t-80 -189.5t-28.5 -267q0 -132 23 -254t70.5 -215.5t120.5 -149.5 t173 -56q50 0 86 5.5t62 14.5t43 21t29 26l91 221l176 -10l-24 -340q-43 -3 -87 -15.5t-99 -26.5t-127.5 -25.5t-172.5 -11.5q-177 0 -311.5 56.5t-226 159t-138 245.5t-46.5 316z" />
<glyph unicode="D" horiz-adv-x="1593" d="M85 137l164 27v1194l-157 30v134h312q56 0 101 2t89.5 4.5t93 4.5t110.5 2q192 0 330 -48.5t227 -140.5t131 -225.5t42 -304.5q0 -188 -55.5 -343t-156 -265t-242 -169t-312.5 -55q-38 1 -83 3.5t-92.5 5.5t-93.5 5t-86 2h-322v137zM570 145q40 -14 87 -17t102 -1 q96 1 175 41t136 119t88.5 198t31.5 278q0 152 -27.5 270.5t-84.5 199.5t-145.5 123.5t-210.5 42.5q-57 0 -95 -4.5t-57 -7.5v-1242z" />
<glyph unicode="E" horiz-adv-x="1379" d="M85 137l164 27v1193l-162 31v134h1101l23 -347h-171l-73 194l-398 20v-542l260 4l30 168h173v-491h-173l-30 168l-260 5v-548l479 23l123 264l171 -39l-58 -401h-1199v137z" />
<glyph unicode="F" horiz-adv-x="1289" d="M89 137l160 27v1193l-166 31v134h1137l20 -377h-198l-77 224l-396 16v-551l264 3l41 162h167v-501h-167l-41 173l-264 5v-512l299 -27v-137h-779v137z" />
<glyph unicode="G" horiz-adv-x="1551" d="M77 739q0 188 61.5 336.5t170 252t256.5 158.5t321 55q82 0 162 -7.5t148.5 -18t121.5 -21.5t80 -17l-23 -386h-216l-60 251q-11 10 -26.5 20.5t-41.5 19.5t-65 15t-96 6q-97 0 -177 -37t-137 -113t-88.5 -191t-31.5 -271q0 -88 10.5 -172t32.5 -158.5t56 -137.5 t79.5 -108.5t103.5 -71t129 -25.5q85 0 150.5 19t97.5 52v414l-196 23v164h620v-164l-105 -19v-525q-41 -2 -100 -18.5t-134.5 -36t-166 -35t-195.5 -15.5q-177 0 -315 56.5t-232.5 158t-144 241t-49.5 306.5z" />
<glyph unicode="H" horiz-adv-x="1728" d="M86 137l163 27v1193l-160 31v134h648v-134l-171 -31v-501h596v501l-162 31v134h639v-134l-160 -31v-1193l160 -27v-137h-637v137l160 27v534h-596v-534l171 -27v-137h-651v137z" />
<glyph unicode="I" horiz-adv-x="845" d="M88 137l176 28v1192l-176 31v134h668v-134l-175 -31v-1192l175 -30v-135h-668v137z" />
<glyph unicode="J" horiz-adv-x="798" d="M222 2q10 33 17 69.5t11.5 85.5t6.5 112.5t2 150.5v937l-176 31v134h668v-134l-174 -31v-788q0 -180 -5 -314.5t-24 -212.5q-21 -84 -65 -154t-109 -124.5t-149 -93.5t-184 -61l-72 116q39 15 76.5 38.5t70.5 57.5t60.5 79t45.5 102z" />
<glyph unicode="K" horiz-adv-x="1537" d="M85 137l164 27v1193l-162 31v134h630v-134l-151 -31v-639l512 639l-160 31l-1 134h560v-134l-173 -31l-386 -432q36 -31 75.5 -79t80 -105.5t81 -121t78.5 -126t73 -119.5t64.5 -102.5t52.5 -75t37 -36.5l82 -25v-135h-371q-16 0 -37.5 23t-46.5 62t-53 91t-58.5 110 t-62 118t-63 116.5t-63 105t-61.5 82.5l-160 -186v-358l190 -29v-135h-671v137z" />
<glyph unicode="L" horiz-adv-x="1348" d="M85 137l164 27v1193l-162 31v134h680v-134l-201 -31v-1189l419 21l126 374l195 -26l-64 -537h-1157v137z" />
<glyph unicode="M" horiz-adv-x="2100" d="M1 137l175 27l154 1193l-202 31v134h631l267 -961l35 -185l29 185l247 961h635v-134l-216 -31l174 -1192l172 -28v-137h-661v137l166 27l-93 876l-42 374l-63 -298l-295 -1132h-209l-330 1072l-94 354l-18 -369l-82 -877l199 -27v-137h-579v137z" />
<glyph unicode="N" horiz-adv-x="1649" d="M55 137l185 27v1193l-185 31v134h477l631 -889l106 -212v936l-195 31v134h557v-134l-177 -31v-1357h-228l-668 956l-133 254v-1045l205 -28v-137h-575v137z" />
<glyph unicode="O" horiz-adv-x="1498" d="M738 -23q-174 -2 -302.5 52t-212.5 154t-125.5 242.5t-41.5 318.5q0 181 51 328t144.5 251.5t224.5 161t291 56.5q176 0 303.5 -53.5t210 -153.5t122 -241.5t39.5 -317.5q0 -181 -51 -328t-143.5 -251t-222 -161t-287.5 -58zM748 115q79 0 143.5 41t110 123t70 205.5 t24.5 289.5q0 165 -24 284.5t-68.5 196t-108.5 113t-145 36.5q-80 0 -144.5 -40.5t-110 -122.5t-70 -206t-24.5 -290q0 -167 24 -286.5t69 -196t109 -112t145 -35.5z" />
<glyph unicode="P" horiz-adv-x="1366" d="M85 137l164 26v1194l-157 31v134h317q47 0 86 2t79 4.5t87 4t110 1.5q154 -1 260 -29t171 -83.5t93.5 -139t28.5 -195.5q0 -131 -43 -231t-123 -167.5t-194 -102t-256 -34.5q-24 0 -47.5 1t-43 2.5t-33.5 3t-20 2.5l-1 -397l280 -27v-137h-758v137zM563 700 q25 -6 57 -7.5t86 -1.5q55 0 107 19.5t91.5 65t63.5 121t24 187.5q0 319 -283 319q-27 0 -48 -1.5t-38.5 -3.5t-31.5 -4t-28 -3v-691z" />
<glyph unicode="Q" horiz-adv-x="1515" d="M746 -23q-174 -2 -302.5 52t-212.5 154t-125.5 242.5t-41.5 318.5q0 181 51 328t144.5 251.5t224.5 161t291 56.5q176 0 303.5 -53.5t210 -153.5t122 -241.5t39.5 -317.5q0 -151 -35.5 -278.5t-101.5 -226.5t-159.5 -166.5t-209.5 -99.5q26 -53 72 -85.5t103 -50 t119.5 -23t122.5 -5.5h13q10 0 28.5 1.5t38 4.5t36.5 7t24 9v-253q-6 -7 -25 -14.5t-45.5 -13.5t-57.5 -10.5t-62 -4.5h-4q-116 0 -209 31t-159 86t-103.5 130.5t-42.5 165.5q-12 -1 -23.5 -1.5t-23.5 -0.5zM756 115q79 0 143.5 41t110 123t70 205.5t24.5 289.5 q0 165 -24 284.5t-68.5 196t-108.5 113t-145 36.5q-80 0 -144.5 -40.5t-110 -122.5t-70 -206t-24.5 -290q0 -167 24 -286.5t69 -196t109 -112t145 -35.5z" />
<glyph unicode="R" horiz-adv-x="1463" d="M85 137l164 26v1194l-157 31v134h311q47 0 86.5 2t78.5 4.5t82 4.5t98 2q155 0 261 -25.5t171.5 -76t94 -125t28.5 -172.5q0 -64 -17.5 -130.5t-54 -124t-92 -101.5t-131.5 -64q52 -22 94.5 -69.5t78 -106.5t65 -123t56.5 -118t52 -91.5t51 -43.5l84 -27v-137h-368 q-25 0 -51 42.5t-54.5 108.5t-59 145t-63 152.5t-67.5 131.5t-72 81h-56.5t-56.5 0.5t-48.5 1t-31.5 1.5v-501l177 -26v-137h-653v137zM561 801q10 -3 32.5 -4t47.5 -1h49h38q58 0 104 19.5t78 60t49.5 102t17.5 145.5q0 66 -15.5 117.5t-49.5 87t-88 54t-130 18.5 q-31 0 -52.5 -1t-36.5 -2.5t-25.5 -3.5t-18.5 -3v-589z" />
<glyph unicode="S" horiz-adv-x="1238" d="M133 447h180l44 -248q13 -15 35 -29t52 -25t67.5 -18t81.5 -7q70 0 119 16.5t79.5 46t44 69t13.5 85.5q0 53 -23 95.5t-66 80t-105 72t-140 72.5q-40 19 -84 43t-86.5 54.5t-81.5 68.5t-68.5 85.5t-47 105t-17.5 126.5q0 82 33.5 154.5t99.5 127.5t164 87t227 32 q69 0 135 -10t123 -23t100.5 -24.5t66.5 -15.5l-13 -345h-176l-41 227q-8 9 -26.5 18.5t-43 17.5t-53.5 13t-59 5q-62 0 -106 -13.5t-71.5 -38.5t-40.5 -59t-13 -75q0 -58 26 -102.5t72.5 -82t110.5 -72t140 -72.5q66 -33 135 -74.5t126 -95.5t93 -123t36 -158 q0 -80 -31 -161.5t-99 -148.5t-176 -109t-262 -42q-93 0 -171.5 13.5t-141.5 30t-108 31t-70 16.5z" />
<glyph unicode="T" horiz-adv-x="1465" d="M303 137l275 28v1211l-280 -18l-76 -425h-186l30 589h1336l31 -589h-187l-74 425l-273 18v-1212l292 -27v-137h-888v137z" />
<glyph unicode="U" horiz-adv-x="1525" d="M167 1356l-140 32v134h641v-134l-171 -31v-766q0 -117 22 -205t62.5 -146t99 -87t130.5 -29q91 0 157 36.5t108 99.5t62 148.5t20 183.5v765l-169 31v134h510v-134l-137 -30v-758q0 -162 -43.5 -278.5t-120 -191.5t-181.5 -110.5t-227 -35.5q-314 0 -468.5 156 t-154.5 486v730z" />
<glyph unicode="V" horiz-adv-x="1398" d="M88 1358l-127 30v134h641v-134l-173 -31l292 -905l52 -189l46 189l284 905l-156 31v134h507v-134l-134 -31l-474 -1372h-255z" />
<glyph unicode="W" horiz-adv-x="2080" d="M74 1356l-122 32v134h624v-134l-169 -32l253 -913l39 -204l39 204l218 734l-59 180l-134 31v134h638v-134l-176 -32l251 -913l46 -222l39 222l239 913l-191 32v134h517v-134l-133 -32l-400 -1366h-285l-271 919l-263 -919h-278z" />
<glyph unicode="X" horiz-adv-x="1513" d="M1 137l167 28l406 599l-420 594l-133 30v134h663v-134l-142 -31l292 -453l283 454l-167 30v134h549v-134l-177 -32l-399 -551l457 -641l138 -27v-137h-682v137l157 27l-324 497l-286 -498l180 -26v-137h-562v137z" />
<glyph unicode="Y" horiz-adv-x="1359" d="M303 137l227 27v433l-445 760l-122 31v134h621v-134l-140 -31l263 -516l43 -130l54 125l248 521l-165 31v134h506v-134l-143 -31l-383 -758v-435l238 -27v-137h-802v137z" />
<glyph unicode="Z" horiz-adv-x="1384" d="M50 119l763 1143l115 133l-503 -26l-115 -276l-173 25l49 410h1049l54 -120l-745 -1144l-126 -126l595 42l121 306l170 -34l-54 -452h-1131z" />
<glyph unicode="[" horiz-adv-x="872" d="M173 1416q0 74 16 119.5t47.5 70t78 33t107.5 8.5q83 0 153 -14t135 -30v-120h-281v-1598h281v-122q-65 -18 -135 -31t-153 -13q-61 0 -107.5 8.5t-78 33t-47.5 70t-16 119.5v1466z" />
<glyph unicode="\" horiz-adv-x="882" d="M268.037 1599h-239.985l572.965 -1962h239.985z" />
<glyph unicode="]" horiz-adv-x="872" d="M699.011 1416q0 74 -15.999 119.5t-47.4971 70t-77.9951 33t-107.494 8.5q-82.9941 0 -152.99 -14t-134.992 -30v-120h280.983v-1598h-280.983v-122q64.9961 -18 134.992 -31t152.99 -13q60.9971 0 107.494 8.5t77.9951 33t47.4971 70t15.999 119.5v1466z" />
<glyph unicode="^" horiz-adv-x="1363" d="M577 1531h204l397 -1118h-214l-284 793l-283 -793h-212z" />
<glyph unicode="_" horiz-adv-x="1711" d="M1731 -251v-154h-1751v154h1751z" />
<glyph unicode="`" horiz-adv-x="681" d="M421 1309q-27 10 -64.5 32t-79.5 51.5t-85.5 65t-82 71.5t-69 70.5t-46.5 63.5l189 173h1l351 -429l-113 -98h-1v0z" />
<glyph unicode="a" horiz-adv-x="1167" d="M62 304q0 73 26.5 130t73 100t109.5 73t136 49.5t152 28.5t158 11v48q0 57 -11.5 97.5t-35.5 66t-61.5 37t-90.5 11.5q-54 0 -108.5 -8.5t-104.5 -21t-92.5 -28t-72.5 -29.5h-1l-59 134q21 17 71 44.5t120 53.5t155 45t175 19q111 0 188.5 -24t126 -74t71 -126.5 t22.5 -180.5v-624h124v-123q-19 -5 -47 -11t-62 -11.5t-73 -9.5t-80 -4q-36 0 -61.5 3t-41 14t-22.5 31.5t-7 55.5v58q-17 -23 -47 -51t-72.5 -53t-96.5 -41.5t-119 -16.5q-71 0 -133 19t-108.5 59t-73.5 101.5t-27 147.5zM379 352q0 -89 40.5 -135.5t118.5 -46.5 q16 0 39.5 5t48.5 14t49 21.5t42 28.5v331q-98 0 -163 -18t-104 -48t-55 -69.5t-16 -82.5z" />
<glyph unicode="b" horiz-adv-x="1278" d="M151 1489l-150 25v117l390 49h4l63 -41v-595q24 24 56 46t70.5 39.5t84 28t96.5 10.5q90 0 170 -30t140.5 -97t96 -174t35.5 -261q0 -133 -40.5 -248t-117 -199.5t-186.5 -133t-249 -48.5q-98 0 -178 9t-139.5 22t-97 26.5t-48.5 21.5v1433zM458 161q13 -23 54 -36.5 t93 -13.5q68 0 118 36t83 98.5t49.5 146t17.5 178.5q1 98 -13 175.5t-43 131t-73.5 81.5t-105.5 28q-62 0 -108.5 -23t-71.5 -51v-751z" />
<glyph unicode="c" horiz-adv-x="1067" d="M72 559q0 135 40.5 247t115.5 192.5t181.5 125t238.5 44.5q67 0 123 -7.5t100 -17.5t76 -20.5t52 -16.5l-10 -341h-176l-58 176q-22 42 -54 66t-78 24q-45 0 -85.5 -22.5t-72 -71t-50.5 -125.5t-19 -186q0 -125 19.5 -210.5t57 -138.5t91 -76.5t121.5 -23.5q46 0 86.5 7 t74.5 18t62 25t51 29l53 -121q-21 -23 -60.5 -50.5t-92 -51.5t-116 -40t-132.5 -16q-141 0 -243 44t-167.5 122t-97 184.5t-31.5 231.5z" />
<glyph unicode="d" horiz-adv-x="1302" d="M513 -22q-93 0 -173.5 33.5t-140.5 103.5t-94 176t-34 252q0 137 40.5 251.5t117 197.5t186.5 129.5t249 46.5q42 0 81.5 -4t75.5 -12v340l-183 31v114l423 43h5l62 -47v-1494h111v-126q-50 -11 -114 -23.5t-140 -12.5q-62 0 -95.5 27t-33.5 98v39q-25 -32 -59.5 -61.5 t-78 -52t-95 -36t-110.5 -13.5zM640 159q61 0 108.5 23t72.5 52v754q-17 18 -56 32t-93 14t-102 -23t-84 -76.5t-57.5 -140.5t-23.5 -215q-2 -112 14 -191.5t46.5 -130.5t75 -74.5t99.5 -23.5z" />
<glyph unicode="e" horiz-adv-x="1126" d="M70 569q0 139 39.5 250t111.5 188.5t173 118.5t224 41q415 0 433 -405q2 -69 -0.5 -124.5t-10.5 -93.5h-652q5 -99 29 -169t63 -114t92.5 -64t117.5 -20q50 0 94 8t81.5 20t67.5 27t53 29l52 -121q-25 -26 -69.5 -54.5t-102 -52.5t-124 -40t-135.5 -16q-141 0 -242.5 44 t-167 122.5t-96.5 187.5t-31 238zM745 679q0 5 0.5 14t1 19t0.5 18.5v13.5q0 51 -7 103t-25.5 93t-51 67t-83.5 26q-38 0 -71.5 -14.5t-59 -53.5t-42 -108t-20.5 -178h358z" />
<glyph unicode="f" horiz-adv-x="845" d="M72 132l160 27v806h-176v120l176 50v58q0 79 22.5 147.5t61.5 126t91 102.5t111.5 75.5t122.5 47t125 16.5q51 0 77 -6t40 -11v-299q-14 13 -37 27t-52.5 24.5t-63.5 17.5t-69 7q-27 0 -49 -6t-37.5 -21.5t-24 -42t-8.5 -67.5l1 -196h257v-170h-257v-812l222 -21v-132 h-693v132z" />
<glyph unicode="g" horiz-adv-x="1287" d="M81 -220q0 46 17 86.5t45 74t65 58.5t78 39q-58 30 -89 76t-31 108q0 38 10.5 69.5t29.5 58.5t45 50t57 43q-102 46 -150.5 130t-48.5 200q0 90 40.5 163t110 124.5t163 79.5t199.5 28h1q250 0 371 -96q14 16 38 34t55 32t69 23.5t80 9.5h47v-224h-197q11 -32 17.5 -67 t6.5 -76q0 -90 -37.5 -165.5t-106 -130.5t-163.5 -86t-209 -31h-1q-83 0 -152 12q-17 -17 -28 -39.5t-11 -52.5q0 -35 13 -56t41 -32.5t71.5 -15.5t104.5 -4h200q108 0 188 -17.5t133.5 -55.5t79.5 -97t26 -142q0 -101 -52.5 -183t-141.5 -139.5t-206 -89t-245 -31.5h-1 q-141 0 -242 25t-165.5 69t-94.5 105t-30 133zM618 524q51 0 84.5 20.5t52.5 55.5t26.5 83t7.5 102q0 132 -42.5 191.5t-139.5 59.5h-1q-95 0 -137 -60t-42 -183q0 -60 9 -109.5t31 -85t58.5 -55t91.5 -19.5h1zM367 -159q0 -67 18 -113.5t53 -76t86.5 -42.5t119.5 -13h2 q61 0 119 14t103.5 42.5t73 71.5t27.5 100q0 44 -9.5 75t-34 50.5t-67 28.5t-108.5 9h-208q-65 0 -120 9q-20 -22 -37.5 -57.5t-17.5 -97.5z" />
<glyph unicode="h" horiz-adv-x="1392" d="M71 134l123 20v1335l-150 25v117l389 49h5l61 -47l2 -471l-16 -159q27 25 67.5 53t91.5 51.5t111.5 39t127.5 15.5q97 0 161.5 -27t102 -83t53 -141.5t15.5 -202.5v-554l141 -20v-134h-560v130l111 22v559q0 69 -7 119.5t-26.5 82.5t-54 47.5t-88.5 15.5q-31 0 -64 -7 t-64 -17.5t-57.5 -24.5t-44.5 -27v-746l137 -20v-134h-567v134z" />
<glyph unicode="i" horiz-adv-x="735" d="M82 134l146 19v770l-135 43v150l367 49h5l73 -43v-968l145 -20v-134h-601v134zM348 1334q-35 0 -62.5 13t-46 34.5t-28 51t-9.5 62.5q0 39 10.5 73.5t32.5 60.5t54 41t76 15h1q40 0 70 -13.5t50 -36t29.5 -51.5t9.5 -61q0 -40 -11 -74.5t-33.5 -60t-58 -40t-83.5 -14.5 h-1v0z" />
<glyph unicode="j" horiz-adv-x="700" d="M232 919l-136 42l1 155l365 49h5l71 -43v-1100q0 -128 -34 -224t-90 -160.5t-129.5 -98.5t-152.5 -37q-11 0 -29 0.5t-36.5 1.5t-34.5 2.5t-22 3.5l-15 138q7 -1 19 0.5t25.5 4.5t28.5 7.5t28 10.5q43 18 70 53.5t42 87.5t20 119t5 148zM348 1334q-35 0 -62.5 13 t-46 34.5t-28 51t-9.5 62.5q0 39 10.5 73.5t32.5 60.5t54 41t76 15h1q40 0 70 -13.5t50 -36t29.5 -51.5t9.5 -61q0 -40 -11 -74.5t-33.5 -60t-58 -40t-83.5 -14.5h-1v0z" />
<glyph unicode="k" horiz-adv-x="1358" d="M63 134l130 19v1336l-145 25v117l387 49h3l63 -47v-895l-5 -155l389 400l-156 27v136h564v-136l-186 -36l-248 -227l386 -593l123 -20v-134h-566v134l101 22l-245 418l-162 -156l5 -119v-145l137 -20v-134h-575v134z" />
<glyph unicode="l" horiz-adv-x="708" d="M57 134l145 20v1335l-149 25v117l391 49h3l63 -47v-1479l151 -20v-134h-604v134z" />
<glyph unicode="m" horiz-adv-x="2107" d="M99 130l125 23v770l-136 42v151l354 49h5l53 -43v-119q33 31 81.5 60t104 51t113.5 35t110 13q115 0 183 -37t103 -118q28 25 73.5 52.5t100.5 50t115.5 37.5t117.5 15q94 0 157 -24t101 -78t54 -140.5t16 -210.5v-556l141 -23v-130h-554v130l105 23v547q0 77 -8.5 130.5 t-28.5 86.5t-54 48t-85 15q-25 0 -55 -7t-60 -17.5t-58 -23.5t-49 -26q8 -42 11 -91.5t3 -107.5v-555l133 -22v-130h-560v130l120 22v559q0 69 -8 119.5t-27.5 82.5t-53 47.5t-84.5 15.5q-30 0 -62.5 -7t-63.5 -17.5t-57 -24.5t-44 -27v-747l135 -23v-130h-567v130z" />
<glyph unicode="n" horiz-adv-x="1417" d="M95 134l129 20v769l-136 42v151l358 49h5l53 -43v-119q33 30 78 59t97.5 51t110.5 35.5t117 13.5q96 0 160.5 -25.5t102.5 -80t54 -141t16 -208.5v-554l142 -19v-134h-563v134l109 19v558q0 69 -7 119.5t-25.5 82.5t-51 47.5t-83.5 15.5q-34 0 -67 -7.5t-62.5 -19.5 t-54 -26.5t-42.5 -28.5v-740l134 -20v-134h-574v134z" />
<glyph unicode="o" horiz-adv-x="1232" d="M65 566q0 152 47 265t125 188t180.5 112t213.5 37q130 0 230 -40.5t168 -116.5t103 -185t35 -247q0 -156 -47 -270t-125 -187.5t-180 -109t-213 -35.5q-130 0 -230 40.5t-168.5 116.5t-103.5 185t-35 247zM619 115q55 0 95 24.5t66.5 77t39 134.5t12.5 196 q0 117 -11.5 207.5t-37 151.5t-67 92.5t-101.5 31.5q-55 0 -95.5 -24.5t-67.5 -77t-40 -134.5t-13 -196q0 -235 50.5 -359t169.5 -124z" />
<glyph unicode="p" horiz-adv-x="1340" d="M214 -344v1267l-136 42v151l358 49h5l51 -43v-106q25 29 59 56.5t76 48.5t92 34t108 13q92 0 172.5 -31t140.5 -98.5t94.5 -174.5t34.5 -258q0 -133 -40.5 -248t-116.5 -199.5t-185 -133t-246 -48.5q-50 0 -96.5 7t-69.5 12l6 -166v-174l198 -25v-127h-655v127zM521 159 q17 -19 55 -33.5t92 -14.5t102.5 23.5t84.5 77.5t58 142t24 216q1 113 -15 192t-47 129t-75.5 72.5t-99.5 22.5q-60 0 -107 -21.5t-72 -48.5v-757z" />
<glyph unicode="q" horiz-adv-x="1274" d="M513 -22q-92 0 -172.5 33.5t-140.5 102.5t-94.5 176t-34.5 254q0 137 40.5 251.5t117 197.5t186.5 129t249 46q66 0 131 -12t116 -29l163 38h3l51 -43v-1465l138 -26v-127h-655v127l210 25v296l7 157q-26 -27 -59 -50.5t-72.5 -41.5t-85.5 -28.5t-98 -10.5zM640 159 q61 0 108.5 23t72.5 52v753q-15 18 -55 32.5t-94 14.5t-102 -22.5t-84.5 -75.5t-58.5 -140t-24 -216q-2 -111 14 -190.5t47.5 -131t76 -75.5t99.5 -24z" />
<glyph unicode="r" horiz-adv-x="979" d="M88 134l144 19v770l-136 42v151l342 49h6l53 -43v-83l-1 -156h4q8 22 25 51t41 61t55 63t68.5 55.5t80 39.5t90.5 15q31 0 47.5 -2.5t27.5 -6.5v-346q-6 4 -21 9t-37 9t-50 6.5t-60 2.5q-35 0 -70 -4t-65.5 -10.5t-54.5 -15.5t-37 -18v-638l249 -24v-130h-701v134z" />
<glyph unicode="s" horiz-adv-x="1075" d="M112 345h184l52 -156q9 -13 27.5 -26t44 -23t57.5 -16.5t67 -6.5q49 0 81 12t51 30.5t26 41.5t7 46q0 42 -21.5 72.5t-61 56t-95.5 49t-124 52.5q-69 28 -124 62.5t-93.5 77.5t-59.5 96t-21 119q0 70 29.5 131t87.5 105.5t144 70t199 25.5q66 0 117.5 -8t93.5 -18.5 t77 -22t68 -17.5v-276l-174 3l-47 133q-14 23 -53 44.5t-99 22.5q-45 0 -75.5 -10t-49 -27t-26.5 -37.5t-8 -41.5q0 -52 27 -85.5t68 -56.5t90 -40.5t93 -37.5q66 -29 126 -61.5t106.5 -75.5t74 -99.5t27.5 -134.5q0 -73 -28.5 -135.5t-86 -108t-144 -71.5t-202.5 -26 q-79 0 -144.5 11t-119 25.5t-95.5 29t-73 21.5v281z" />
<glyph unicode="t" horiz-adv-x="851" d="M197 976h-141v114q8 2 25.5 8.5t36 13.5t33.5 13.5t19 9.5q34 27 71 96q10 19 22 46t23.5 56t21.5 57.5t17 51.5h178l3 -296h294v-170h-294v-554q0 -80 2.5 -127t12 -71t29.5 -31t55 -7h1q24 0 50.5 4t52 9.5t47 12t35.5 11.5h1l47 -117q-30 -23 -73.5 -46t-96 -41.5 t-111 -30t-117.5 -11.5h-2q-66 0 -112.5 17t-75 50.5t-41.5 82.5t-13 113v736z" />
<glyph unicode="u" horiz-adv-x="1340" d="M174 982l-100 37v117l360 29h1l46 -28v-732q0 -66 8.5 -111.5t28.5 -74.5t53 -42t82 -13q37 0 69.5 7.5t58 19t44.5 24t31 22.5v745l-138 39v118l388 26h2l55 -28v-1001h111v-124q-38 -9 -101 -22t-142 -13q-73 0 -107 32t-34 95v36q-26 -30 -63.5 -59t-82.5 -52.5 t-96 -37.5t-102 -14q-98 0 -168.5 23.5t-115.5 75.5t-66.5 134.5t-21.5 201.5v570z" />
<glyph unicode="v" horiz-adv-x="1207" d="M83 990l-95 28v128h585v-128l-149 -28l187 -574l66 -228l56 222l179 580l-146 28v128h454v-128l-102 -28l-373 -1006h-261z" />
<glyph unicode="w" horiz-adv-x="1834" d="M102 990l-111 28v128h570v-128l-156 -29l138 -521l52 -232l50 232l196 678h262l199 -678l50 -222l46 221l142 521l-161 30v128h481v-128l-119 -29l-312 -1005h-250l-209 664l-43 179l-38 -179l-203 -664h-252z" />
<glyph unicode="x" horiz-adv-x="1253" d="M24 119l120 24l313 436l-302 411l-110 28v128h599v-128l-131 -28l143 -202l65 -105l45 99l151 208l-132 28v128h438v-128l-117 -28l-291 -408l325 -440l106 -23v-119h-597v119l122 24l-158 237l-60 97l-45 -103l-151 -231l140 -24v-119h-473v119z" />
<glyph unicode="y" horiz-adv-x="1228" d="M166 -251q15 -7 59.5 -16.5t104.5 -9.5q30 0 65.5 7t73.5 35t77 83.5t76 151.5h-180l-360 990l-91 28v128h579v-128l-151 -29l191 -592l78 -272l68 272l152 592l-130 29v128h442v-128l-92 -28q-29 -91 -61.5 -196.5t-65.5 -213t-65 -209.5t-58 -186t-45.5 -143t-28.5 -80 q-42 -116 -91.5 -204t-108 -147.5t-128 -90t-151.5 -30.5q-20 0 -44 1t-47 3t-41.5 4.5t-26.5 5.5v245v0z" />
<glyph unicode="z" horiz-adv-x="1161" d="M52 101l543 765l128 140l-362 -15l-43 -190h-173v345h898l47 -96l-528 -772l-126 -140l420 24l80 216l165 -16l-30 -362h-969z" />
<glyph unicode="{" horiz-adv-x="1037" d="M277 -18q0 71 21.5 129t48 112t48 108.5t21.5 117.5q0 34 -14 61t-49.5 46t-95 29t-150.5 10v197q91 0 150.5 7.5t95 23t49.5 40t14 57.5q0 63 -21.5 117.5t-48 108.5t-48 112t-21.5 129q0 63 16 111.5t54 81.5t100.5 50t155.5 17q82 0 153.5 -9t138.5 -25v-119h-163 q-35 0 -66 -5.5t-55 -21.5t-38 -45t-14 -77q0 -43 13.5 -95.5t30 -108.5t30 -113.5t13.5 -109.5q0 -54 -21 -93t-57 -66.5t-84.5 -44.5t-102.5 -26q54 -9 102.5 -27t84.5 -46.5t57 -69t21 -94.5q0 -53 -13.5 -110t-30 -113.5t-30 -108.5t-13.5 -95q0 -48 14 -77t38 -45 t55 -21.5t66 -5.5h163v-119q-67 -16 -138.5 -25t-153.5 -9q-93 0 -155.5 17t-100.5 50t-54 81.5t-16 111.5z" />
<glyph unicode="|" horiz-adv-x="865" d="M318 1780h230v-1966h-230v1966z" />
<glyph unicode="}" horiz-adv-x="1037" d="M760.017 -18q0 71 -21.498 129q-21.499 58 -47.9971 112q-26.499 54 -47.9971 108.5q-21.499 54.5 -21.499 117.5q0 34 13.999 61t49.4971 46t94.9941 29t150.491 10v197q-90.9951 0 -150.491 7.5t-94.9941 23t-49.4971 40t-13.999 57.5q0 63 21.499 117.5 q21.498 54.5 47.9971 108.5q26.498 54 47.9971 112q21.498 58 21.498 129q0 63 -15.999 111.5t-53.9961 81.5q-37.998 33 -100.494 50t-155.49 17q-81.9951 0 -153.491 -9q-71.4951 -9 -138.491 -25v-119h162.99q34.998 0 65.9961 -5.5t54.9961 -21.5q23.999 -16 37.998 -45 t13.999 -77q0 -43 -13.499 -95.5t-29.998 -108.5t-29.998 -113.5q-13.5 -57.5 -13.5 -109.5q0 -54 20.999 -93t56.9971 -66.5q35.9971 -27.5 84.4941 -44.5t102.494 -26q-53.9971 -9 -102.494 -27t-84.4941 -46.5q-35.998 -28.5 -56.9971 -69t-20.999 -94.5q0 -53 13.5 -110 q13.499 -57 29.998 -113.5t29.998 -108.5t13.499 -95q0 -48 -13.999 -77t-37.998 -45q-23.998 -16 -54.9961 -21.5t-65.9961 -5.5h-162.99v-119q66.9961 -16 138.491 -25q71.4961 -9 153.491 -9q92.9941 0 155.49 17t100.494 50q37.9971 33 53.9961 81.5t15.999 111.5z" />
<glyph unicode="~" horiz-adv-x="1426" d="M202 594q19 33 52 68.5t76.5 65t96.5 48t113 18.5q47 0 85 -12.5t70.5 -31.5t60 -41.5t54 -41.5t53 -31.5t55.5 -12.5q37 0 67.5 8t55 22t45 33t37.5 40l101 -124q-21 -35 -54.5 -71.5t-76.5 -66.5t-95.5 -49t-112.5 -19q-43 0 -79 13t-68 32.5t-60.5 42t-56 42t-56 32.5 t-59.5 13q-63 0 -113.5 -29t-90.5 -69z" />
<glyph horiz-adv-x="0" />
<glyph unicode="&#xa2;" horiz-adv-x="1196" d="M618 1375h171l-15 -287h-171zM699 44l-15 -287h-171l15 287h171zM135 559q0 135 40.5 247t115.5 192.5t181.5 125t238.5 44.5q67 0 123 -7.5t100 -17.5t76 -20.5t52 -16.5l-10 -341h-176l-58 176q-22 42 -54 66t-78 24q-45 0 -85.5 -22.5t-72 -71t-50.5 -125.5t-19 -186 q0 -125 19.5 -210.5t57 -138.5t91 -76.5t121.5 -23.5q46 0 86.5 7t74.5 18t62 25t51 29l53 -121q-21 -23 -60.5 -50.5t-92 -51.5t-116 -40t-132.5 -16q-141 0 -243 44t-167.5 122t-97 184.5t-31.5 231.5z" />
<glyph unicode="&#xa3;" horiz-adv-x="1553" d="M109 107q0 35 17.5 67.5t51 57.5t82 39t109.5 12q9 11 15.5 34.5t10.5 53.5t6 62t2 61v255h-182v143h182v133q0 118 45 213t120 161.5t173.5 102.5t205.5 36t197 -26t156 -75l-131 -221q-8 13 -28.5 37t-53.5 47t-78 40.5t-100 17.5q-42 0 -78 -9t-63 -38t-42.5 -83 t-15.5 -143v-193h301v-143h-301v-135q0 -78 -14.5 -138.5t-36 -105.5t-45.5 -76.5t-43 -53.5q50 -5 99.5 -16.5t99.5 -23t101.5 -20.5t106.5 -9q60 0 99 11.5t61.5 33.5t31.5 53t9 70q0 30 -5.5 59.5t-14 54t-18.5 43.5t-20 30h303q7 -9 16 -25.5t16.5 -39.5t12.5 -52.5 t5 -66.5q0 -64 -22 -128t-73 -115t-133.5 -82.5t-203.5 -31.5q-96 0 -175.5 22t-147.5 48.5t-127.5 49t-117.5 23.5q-32 -34 -60 -59t-56 -41.5t-56.5 -24.5t-60.5 -8q-23 0 -46 6.5t-42.5 20t-31.5 34.5t-12 51z" />
<glyph unicode="&#xa4;" horiz-adv-x="1547" d="M399 508q-36 54 -55.5 118t-19.5 136q0 75 21 143t59 125l-226 227l132 134l228 -230q51 32 109 50t123 18t125 -16.5t112 -46.5l228 227l133 -133l-221 -221q38 -54 59 -118.5t21 -136.5q0 -75 -22.5 -144t-63.5 -127l223 -223l-133 -133l-227 227q-51 -32 -110.5 -49.5 t-123.5 -17.5q-66 0 -124.5 16t-109.5 46l-225 -226l-133 133zM772 542q57 0 97.5 17.5t67 48.5t38.5 72t12 88q0 46 -18 89t-48 76t-70 52.5t-85 19.5q-54 0 -94 -19.5t-66 -52.5t-38.5 -76t-12.5 -89q0 -47 17 -88t46.5 -72t69 -48.5t84.5 -17.5z" />
<glyph unicode="&#xa5;" horiz-adv-x="1560" d="M215 460h439v210l-5 7h-434v128h352l-364 567l-135 32v118h629v-118l-152 -31l244 -441l55 -114l59 112l234 443l-166 31v118h517v-118l-162 -34l-330 -565h350v-128h-425v-217h425v-128h-425v-183l248 -28v-121h-751v121l236 29v182h-439v128z" />
<glyph unicode="&#xa6;" horiz-adv-x="865" d="M318 1780h230v-830h-230v830zM318 641h230v-827h-230v827z" />
<glyph unicode="&#xa7;" horiz-adv-x="1385" d="M220 246h183l44 -223q12 -16 34.5 -31.5t52.5 -28t67 -20t78 -7.5q70 0 120 12t82.5 32.5t47.5 48.5t15 60q0 47 -21.5 80t-61.5 59.5t-96 50t-125 52.5q-101 45 -186 89.5t-146.5 101.5t-96 131.5t-34.5 178.5q0 43 12.5 82.5t33.5 74t47.5 63t54.5 50.5q-43 47 -69 107 t-26 139q0 74 32 135.5t93.5 106t149.5 69t201 24.5q70 0 132.5 -10t113.5 -23t89 -24.5t61 -15.5l-13 -326h-164l-58 195q-5 8 -19 18t-36.5 19t-53 15t-68.5 6q-112 0 -165.5 -38t-53.5 -101q0 -48 19.5 -81.5t55.5 -60t86.5 -50.5t112.5 -52q35 -16 83.5 -37t101 -49 t103.5 -64t91.5 -81.5t65.5 -101.5t25 -123q0 -53 -10.5 -97.5t-29 -82.5t-44 -70t-55.5 -60q49 -48 79.5 -108t30.5 -138q0 -64 -30.5 -126t-94 -110.5t-161 -78.5t-231.5 -30q-88 0 -163 14t-134 31t-102 32t-67 17zM752 576q48 -21 102 -45.5t106 -56.5q36 58 36 136 q0 56 -25.5 97.5t-71.5 75.5t-110.5 63.5t-143.5 62.5q-51 21 -107.5 47.5t-110.5 61.5q-47 -54 -47 -131q0 -55 27.5 -97t77 -78t118 -68t149.5 -68z" />
<glyph unicode="&#xa8;" horiz-adv-x="1022" d="M747 1334q-35 0 -62 13t-46 34.5t-28.5 51t-9.5 62.5q0 39 10.5 73.5t32.5 60.5t54 41t76 15h1q40 0 70 -13.5t50 -36t29.5 -51.5t9.5 -61q0 -40 -11 -74.5t-33.5 -60t-58 -40t-83.5 -14.5h-1zM237 1334q-35 0 -62.5 13t-46 34.5t-28 51t-9.5 62.5q0 39 10.5 73.5 t32 60.5t54 41t76.5 15h1q40 0 70 -13.5t49.5 -36t29.5 -51.5t10 -61q0 -40 -11 -74.5t-34 -60t-58 -40t-83 -14.5h-1z" />
<glyph unicode="&#xa9;" horiz-adv-x="2129" d="M194 1003q0 121 30.5 233.5t87 210t135.5 177.5t175.5 137t208 88t233.5 31t233.5 -31t208.5 -88t176 -137t135 -177.5t87 -210t31 -233.5q0 -122 -31 -234.5t-87 -210.5t-135 -178.5t-176 -137.5t-209 -88.5t-233 -31.5t-233 31.5t-208.5 88.5t-175.5 137.5 t-135.5 178.5t-87 210.5t-30.5 234.5zM366 1003q0 -100 24 -193t68 -175.5t106.5 -150.5t140 -117t168 -76t191.5 -27q100 0 191 27t168.5 76t140 117t106.5 150.5t68 175.5t24 193q0 99 -24 192.5t-68 175.5t-106.5 150t-140 117t-168.5 76t-191 27q-101 0 -191.5 -27 t-168 -76t-140 -117t-106.5 -150t-68 -175.5t-24 -192.5zM612 994q0 107 39 200.5t108.5 163t164.5 109.5t207 40q34 0 73 -4t76 -12t67 -19.5t45 -26.5l-8 -267h-133l-49 149q-10 7 -21 13.5t-27.5 10.5t-40.5 6.5t-61 2.5q-53 0 -93 -23t-67.5 -66t-41.5 -103t-14 -134 q0 -78 23.5 -142.5t64.5 -111t97 -72.5t121 -26q63 0 114 22t90 57l56 -101q-22 -27 -56 -54.5t-77.5 -50t-94 -36.5t-104.5 -14q-113 0 -199 36.5t-143.5 101.5t-86.5 154.5t-29 196.5z" />
<glyph unicode="&#xaa;" horiz-adv-x="1051" d="M393 669q-74 0 -129.5 21.5t-92.5 58t-56 86.5t-19 107q0 76 36 130.5t107.5 89.5t178 53t248.5 21v24q0 55 -8 91t-28 57t-53.5 29t-84.5 8q-43 0 -83.5 -7t-77 -17.5t-68.5 -23t-59 -24.5l-73 137q30 19 78.5 39t104.5 36.5t114.5 27t107.5 10.5q88 0 158.5 -17.5 t119.5 -57t75.5 -104t26.5 -158.5v-483h103v-103q-18 -5 -42.5 -10t-53 -10t-58 -8t-57.5 -3t-52 2t-41 10t-27 24.5t-10 46.5v40q-23 -22 -51.5 -44t-64 -39.5t-78 -28.5t-91.5 -11zM500 829q24 0 49.5 5.5t48 14.5t40 21t27.5 24l1 -1v234q-90 -3 -148 -14t-92 -30.5 t-47.5 -48.5t-13.5 -68q0 -59 36 -98t99 -39z" />
<glyph unicode="&#xab;" horiz-adv-x="1944" d="M992 693l654 451l85 -133l-403 -399l406 -393l-88 -130l-654 439v165zM228 693l654 451l85 -133l-403 -399l406 -393l-88 -130l-654 439v165z" />
<glyph unicode="&#xac;" horiz-adv-x="1410" d="M210 717h990v-557h-215v362h-775v195z" />
<glyph unicode="&#xad;" horiz-adv-x="1345" d="M230 718h885v-203h-885v203z" />
<glyph unicode="&#xae;" horiz-adv-x="2129" d="M194 1003q0 121 30.5 233.5t87 210t135.5 177.5t175.5 137t208 88t233.5 31t233.5 -31t208.5 -88t176 -137t135 -177.5t87 -210t31 -233.5q0 -122 -31 -234.5t-87 -210.5t-135 -178.5t-176 -137.5t-209 -88.5t-233 -31.5t-233 31.5t-208.5 88.5t-175.5 137.5 t-135.5 178.5t-87 210.5t-30.5 234.5zM366 1003q0 -100 24 -193t68 -175.5t106.5 -150.5t140 -117t168 -76t191.5 -27q100 0 191 27t168.5 76t140 117t106.5 150.5t68 175.5t24 193q0 99 -24 192.5t-68 175.5t-106.5 150t-140 117t-168.5 76t-191 27q-101 0 -191.5 -27 t-168 -76t-140 -117t-106.5 -150t-68 -175.5t-24 -192.5zM670 621l92 28v694l-92 24v114h160q30 -1 50 -1t44.5 1t60.5 2.5t99 2.5q85 0 154 -17t118 -48.5t75 -77.5t26 -103q0 -120 -60 -195t-163 -101q43 -17 69.5 -46t45 -62t32.5 -68t31.5 -64t42.5 -49.5t66 -25.5v-110 h-175q-47 0 -72.5 23.5t-41 60t-25.5 81.5t-26.5 88.5t-44 81t-77.5 58.5q-8 0 -22.5 0.5t-30 1t-30 1t-22.5 0.5v-272l89 -22v-102h-373v102zM954 1052q26 -6 54 -7.5t67 -1.5q37 0 67.5 13t53 35t35 51.5t12.5 63.5q0 84 -46 120.5t-149 36.5h-24t-19.5 -0.5t-21 -3 t-29.5 -7.5v-300z" />
<glyph unicode="&#xaf;" horiz-adv-x="681" d="M51 1614h578v-193h-578v193z" />
<glyph unicode="&#xb0;" horiz-adv-x="916" d="M457 931q-74 0 -140 28.5t-115.5 78t-78.5 115.5t-29 140q0 78 29 144t78.5 114.5t115.5 75.5t140 27q80 0 147 -28.5t115.5 -78t75.5 -115t27 -139.5q0 -78 -28.5 -144.5t-78 -115t-116 -75.5t-142.5 -27zM459 1110q39 0 71 13.5t54.5 38t35 58t12.5 73.5q0 37 -13.5 70 t-37.5 58t-56 40t-69 15q-38 0 -70 -14t-55 -39t-35.5 -58t-12.5 -72q0 -36 14 -69.5t38 -58.5t56 -40t68 -15z" />
<glyph unicode="&#xb1;" horiz-adv-x="1353" d="M233 204h332v188l7 143l-172 -7h-191v224h191l172 -12l-7 146v228h223v-228l-9 -146l143 12h222v-224h-222l-143 7l9 -143v-188h330v-204h-885v204z" />
<glyph unicode="&#xb2;" d="M94 819q56 34 116.5 77t118 92t109 102t90.5 108t61.5 109.5t22.5 106.5q0 75 -45 119t-140 44q-45 0 -84.5 -10t-72 -25t-58 -32.5t-42.5 -31.5l-74 102q19 27 59.5 57.5t95 56t119 42t133.5 16.5q96 0 163.5 -25t110.5 -66.5t62.5 -95.5t19.5 -112q0 -80 -45.5 -161.5 t-120.5 -160t-171.5 -150.5t-198.5 -133l421 43l89 148l123 -25l-51 -311h-767z" />
<glyph unicode="&#xb3;" d="M162 860q22 -10 52 -18t62 -14t63 -9t54 -3q135 0 208 46t73 140q0 28 -13.5 56.5t-39.5 51.5t-65.5 38t-90.5 15l-110 -34l-42 121q31 5 73.5 18t78.5 29q73 35 109 75.5t36 105.5q0 25 -8 45.5t-27 35t-49.5 22.5t-75.5 8q-67 0 -129 -25t-102 -61l-66 125 q22 21 59.5 43t84.5 40t100 29.5t107 11.5q81 0 146.5 -17.5t112 -49t71.5 -75.5t25 -98q0 -45 -12.5 -86.5t-41 -78t-75 -66.5t-114.5 -52q86 4 146.5 -17t99 -57t56 -81.5t17.5 -89.5q0 -70 -33 -129t-96.5 -102t-156.5 -67.5t-212 -24.5q-31 0 -68.5 4.5t-75 13t-72 19 t-59.5 22.5v140z" />
<glyph unicode="&#xb4;" horiz-adv-x="681" d="M167 1407l351 429h1l188 -173q-16 -29 -46.5 -63.5t-69 -70.5t-82 -71.5t-85.5 -65t-79.5 -51.5t-64.5 -32h-2z" />
<glyph unicode="&#xb5;" horiz-adv-x="1398" d="M211 973l-117 58v100l378 26l45 -28v-751q0 -40 8 -78.5t27 -69t51.5 -49t80.5 -18.5q47 0 81 9t57.5 21.5t38 26t22.5 23.5v730l-130 49l-1 110l394 25l42 -27v-994h110v-127q-15 -8 -46.5 -14.5t-68.5 -11.5t-73 -8t-60 -3q-69 0 -100 33t-31 87v54q-21 -30 -47.5 -60 t-60 -53.5t-74.5 -38.5t-90 -15q-45 0 -84.5 9t-72.5 23v-384h-279v1346z" />
<glyph unicode="&#xb6;" horiz-adv-x="1605" d="M338 133l201 27v619q-110 0 -191.5 32.5t-135 93.5t-79.5 148t-26 197q0 98 36.5 182t107 146t174 97.5t236.5 35.5q66 0 113 -1.5t85.5 -3.5t74.5 -5t80.5 -5t103.5 -3.5t143 -1.5h171v-135l-156 -23v-1373l132 -27v-133h-380v1531q-17 2 -40 4.5t-49 4.5t-54 3.5 t-55 1.5q-12 0 -24.5 -0.5t-17.5 -2.5v-1542h-450v133z" />
<glyph unicode="&#xb7;" horiz-adv-x="711" d="M170 718q0 40 16 75t44 61t65 40.5t79 14.5q49 0 83 -13t55.5 -35t31 -51t9.5 -62q0 -43 -15.5 -78t-43 -60t-66 -38.5t-83.5 -13.5q-35 0 -67 11t-56 32t-38 50.5t-14 66.5z" />
<glyph unicode="&#xb8;" horiz-adv-x="615" d="M287 14l44 -8q16 -15 41 -45.5t47.5 -72t37.5 -90.5t12 -100q-3 -64 -23.5 -106.5t-57.5 -68t-90 -36.5t-120 -11h-1q-17 0 -37 2t-39.5 6t-37 9t-30.5 11l1 188q21 -7 46 -10t36 -3h1q33 0 58.5 4t43 18t26 42t8.5 75q0 26 -6.5 54.5t-16 54.5t-20 47t-17.5 32z" />
<glyph unicode="&#xb9;" d="M171 835l265 24v630q-30 -11 -63 -20.5t-65.5 -17t-62.5 -13t-55 -9.5l-41 138q42 12 96 29.5t111.5 40.5t112.5 51.5t99 62.5h4l102 -17v-875l226 -24v-132h-729v132z" />
<glyph unicode="&#xba;" d="M525 672q-99 0 -184 29.5t-147 89.5t-97 151.5t-33 214.5q2 122 44.5 210t109 144.5t150.5 83t168 26.5q108 0 192 -31t141.5 -91t87 -148.5t28.5 -203.5q-1 -127 -43 -217t-107.5 -147t-147 -84t-162.5 -27zM522 795q46 0 79.5 12t55 48t31.5 102t10 174q0 88 -11 157 t-33 116.5t-54.5 72.5t-74.5 24q-43 -1 -75.5 -19.5t-54.5 -59t-33 -104t-11 -154.5q0 -89 13.5 -158t37 -116t54.5 -71t66 -24z" />
<glyph unicode="&#xbb;" horiz-adv-x="1899" d="M1672.01 693l-653.96 451l-84.9951 -133l402.976 -399l-405.975 -393l87.9941 -130l653.96 439v165zM961.014 693l-653.96 451l-84.9951 -133l402.976 -399l-405.975 -393l87.9941 -130l653.96 439v165z" />
<glyph unicode="&#xbc;" horiz-adv-x="2481" d="M171 661l265 24v630q-30 -11 -63 -20.5t-65.5 -17t-62.5 -13t-55 -9.5l-41 138q42 12 96 29.5t111.5 40.5t112.5 51.5t99 62.5h4l102 -17v-875l226 -24v-132h-729v132zM773 -172l712 1832l196 -16l-711 -1829zM1464 265q8 16 29.5 54.5t51 91t65 116t73 130t74.5 133 t69 125.5t57 106.5t38 76.5h74l169 -84l-381 -572l-85 -131l315 18l15 239l210 17v-243l178 10l1 -181h-179v-224h-226v224h-477z" />
<glyph unicode="&#xbd;" horiz-adv-x="2481" d="M171 661l265 24v630q-30 -11 -63 -20.5t-65.5 -17t-62.5 -13t-55 -9.5l-41 138q42 12 96 29.5t111.5 40.5t112.5 51.5t99 62.5h4l102 -17v-875l226 -24v-132h-729v132zM773 -172l712 1832l196 -16l-711 -1829zM1526 116q56 34 116.5 77t118 92t109 102t90.5 108 t61.5 109.5t22.5 106.5q0 75 -45 119t-140 44q-45 0 -84.5 -10t-72 -25t-58 -32.5t-42.5 -31.5l-74 102q19 27 59.5 57.5t95 56t119 42t133.5 16.5q96 0 163.5 -25t110.5 -66.5t62.5 -95.5t19.5 -112q0 -80 -45.5 -161.5t-120.5 -160t-171.5 -150.5t-198.5 -133l421 43 l89 148l123 -25l-51 -311h-767z" />
<glyph unicode="&#xbe;" horiz-adv-x="2481" d="M162 686q22 -10 52 -18t62 -14t63 -9t54 -3q135 0 208 46t73 140q0 28 -13.5 56.5t-39.5 51.5t-65.5 38t-90.5 15l-110 -34l-42 121q31 5 73.5 18t78.5 29q73 35 109 75.5t36 105.5q0 25 -8 45.5t-27 35t-49.5 22.5t-75.5 8q-67 0 -129 -25t-102 -61l-66 125 q22 21 59.5 43t84.5 40t100 29.5t107 11.5q81 0 146.5 -17.5t112 -49t71.5 -75.5t25 -98q0 -45 -12.5 -86.5t-41 -78t-75 -66.5t-114.5 -52q86 4 146.5 -17t99 -57t56 -81.5t17.5 -89.5q0 -70 -33 -129t-96.5 -102t-156.5 -67.5t-212 -24.5q-31 0 -68.5 4.5t-75 13t-72 19 t-59.5 22.5v140zM773 -172l712 1832l196 -16l-711 -1829zM1464 265q8 16 29.5 54.5t51 91t65 116t73 130t74.5 133t69 125.5t57 106.5t38 76.5h74l169 -84l-381 -572l-85 -131l315 18l15 239l210 17v-243l178 10l1 -181h-179v-224h-226v224h-477z" />
<glyph unicode="&#xc0;" horiz-adv-x="1441" d="M-48 137l129 28l482 1363h321l481 -1363l139 -28v-137h-649v137l163 28l-75 244h-543l-71 -245l165 -27v-137h-541zM895 565l-197 645l-35 146l-32 -146l-186 -645h450zM850 1604q-22 6 -55.5 21t-71.5 35.5t-78.5 46t-77 53.5t-66.5 56.5t-47 56.5l197 141h1l317 -322 l-118 -88h-1v0z" />
<glyph unicode="&#xc1;" horiz-adv-x="1441" d="M-48 137l129 28l482 1363h321l481 -1363l139 -28v-137h-649v137l163 28l-75 244h-543l-71 -245l165 -27v-137h-541zM895 565l-197 645l-35 146l-32 -146l-186 -645h450zM567 1692l317 322h1l197 -141q-17 -28 -47 -56.5t-66.5 -56.5t-77 -53.5t-78.5 -46t-71.5 -35.5 t-55.5 -21h-1z" />
<glyph unicode="&#xc2;" horiz-adv-x="1441" d="M-48 137l129 28l482 1363h321l481 -1363l139 -28v-137h-649v137l163 28l-75 244h-543l-71 -245l165 -27v-137h-541zM895 565l-197 645l-35 146l-32 -146l-186 -645h450zM330 1701l293 313h200l294 -312l-108 -86l-286 197l-288 -197z" />
<glyph unicode="&#xc3;" horiz-adv-x="1441" d="M-48 137l129 28l482 1363h321l481 -1363l139 -28v-137h-649v137l163 28l-75 244h-543l-71 -245l165 -27v-137h-541zM895 565l-197 645l-35 146l-32 -146l-186 -645h450zM267 1794q13 31 39.5 69t65 70t89.5 54t113 22q43 0 78 -12.5t65 -31t56 -40.5t51 -40.5t50.5 -31 t54.5 -12.5q34 0 58 11t41 27.5t29 35t23 32.5l105 -88q-19 -39 -45 -78t-61 -69.5t-80 -49.5t-101 -19q-42 0 -77.5 12.5t-66 31.5t-58 40.5t-54.5 40.5t-55 31.5t-59 12.5q-32 0 -56.5 -12t-43.5 -29t-33 -35t-24 -30z" />
<glyph unicode="&#xc4;" horiz-adv-x="1441" d="M-48 137l129 28l482 1363h321l481 -1363l139 -28v-137h-649v137l163 28l-75 244h-543l-71 -245l165 -27v-137h-541zM895 565l-197 645l-35 146l-32 -146l-186 -645h450zM970 1645q-35 0 -62.5 13t-46 35t-28 51.5t-9.5 62.5q0 39 10.5 73.5t32 60t54 40.5t76.5 15h1 q40 0 70 -13t49.5 -35.5t29.5 -51.5t10 -61q0 -40 -11 -75t-34 -60.5t-58 -40t-83 -14.5h-1zM442 1645q-35 0 -62 13t-46 35t-28.5 51.5t-9.5 62.5q0 39 10.5 73.5t32.5 60t54 40.5t76 15h1q40 0 70 -13t50 -35.5t29.5 -51.5t9.5 -61q0 -40 -11 -75t-33.5 -60.5t-58 -40 t-83.5 -14.5h-1z" />
<glyph unicode="&#xc6;" horiz-adv-x="1934" d="M-131 135l146 29l490 1193l-263 31v134h1503l27 -350h-175l-73 201l-401 16v-542l257 4l30 169h167v-492h-167l-30 167l-257 6v-552l485 27l130 266l171 -41l-68 -401h-1195v126l165 25v268h-457l-90 -256l148 -28v-135h-543v135zM811 576v798h-121l-97 -274l-184 -524 h402z" />
<glyph unicode="&#xc8;" horiz-adv-x="1379" d="M741 1604q-22 6 -55.5 21t-71.5 35.5t-78.5 46t-77 53.5t-66.5 56.5t-47 56.5l197 141h1l317 -322l-118 -88h-1v0zM85 137l164 27v1193l-162 31v134h1101l23 -347h-171l-73 194l-398 20v-542l260 4l30 168h173v-491h-173l-30 168l-260 5v-548l479 23l123 264l171 -39 l-58 -401h-1199v137z" />
<glyph unicode="&#xc9;" horiz-adv-x="1379" d="M544 1692l317 322h1l197 -141q-17 -28 -47 -56.5t-66.5 -56.5t-77 -53.5t-78.5 -46t-71.5 -35.5t-55.5 -21h-1zM85 137l164 27v1193l-162 31v134h1101l23 -347h-171l-73 194l-398 20v-542l260 4l30 168h173v-491h-173l-30 168l-260 5v-548l479 23l123 264l171 -39 l-58 -401h-1199v137z" />
<glyph unicode="&#xca;" horiz-adv-x="1379" d="M85 137l164 27v1193l-162 31v134h1101l23 -347h-171l-73 194l-398 20v-542l260 4l30 168h173v-491h-173l-30 168l-260 5v-548l479 23l123 264l171 -39l-58 -401h-1199v137zM301 1701l293 313h200l294 -312l-108 -86l-286 197l-288 -197z" />
<glyph unicode="&#xcb;" horiz-adv-x="1379" d="M940 1645q-35 0 -62.5 13t-46 35t-28 51.5t-9.5 62.5q0 39 10.5 73.5t32 60t54 40.5t76.5 15h1q40 0 70 -13t49.5 -35.5t29.5 -51.5t10 -61q0 -40 -11 -75t-34 -60.5t-58 -40t-83 -14.5h-1zM412 1645q-35 0 -62 13t-46 35t-28.5 51.5t-9.5 62.5q0 39 10.5 73.5t32.5 60 t54 40.5t76 15h1q40 0 70 -13t50 -35.5t29.5 -51.5t9.5 -61q0 -40 -11 -75t-33.5 -60.5t-58 -40t-83.5 -14.5h-1zM85 137l164 27v1193l-162 31v134h1101l23 -347h-171l-73 194l-398 20v-542l260 4l30 168h173v-491h-173l-30 168l-260 5v-548l479 23l123 264l171 -39 l-58 -401h-1199v137z" />
<glyph unicode="&#xcc;" horiz-adv-x="845" d="M88 137l176 28v1192l-176 31v134h668v-134l-175 -31v-1192l175 -30v-135h-668v137zM558 1604q-22 6 -55.5 21t-71.5 35.5t-78.5 46t-77 53.5t-66.5 56.5t-47 56.5l197 141h1l317 -322l-118 -88h-1v0z" />
<glyph unicode="&#xcd;" horiz-adv-x="845" d="M88 137l176 28v1192l-176 31v134h668v-134l-175 -31v-1192l175 -30v-135h-668v137zM277 1692l317 322h1l197 -141q-17 -28 -47 -56.5t-66.5 -56.5t-77 -53.5t-78.5 -46t-71.5 -35.5t-55.5 -21h-1z" />
<glyph unicode="&#xce;" horiz-adv-x="845" d="M88 137l176 28v1192l-176 31v134h668v-134l-175 -31v-1192l175 -30v-135h-668v137zM40 1701l293 313h200l294 -312l-108 -86l-286 197l-288 -197z" />
<glyph unicode="&#xcf;" horiz-adv-x="845" d="M88 137l176 28v1192l-176 31v134h668v-134l-175 -31v-1192l175 -30v-135h-668v137zM679 1645q-35 0 -62.5 13t-46 35t-28 51.5t-9.5 62.5q0 39 10.5 73.5t32 60t54 40.5t76.5 15h1q40 0 70 -13t49.5 -35.5t29.5 -51.5t10 -61q0 -40 -11 -75t-34 -60.5t-58 -40t-83 -14.5 h-1zM151 1645q-35 0 -62 13t-46 35t-28.5 51.5t-9.5 62.5q0 39 10.5 73.5t32.5 60t54 40.5t76 15h1q40 0 70 -13t50 -35.5t29.5 -51.5t9.5 -61q0 -40 -11 -75t-33.5 -60.5t-58 -40t-83.5 -14.5h-1z" />
<glyph unicode="&#xd0;" horiz-adv-x="1593" d="M85 137l164 27v551h-156v146h156v497l-157 30v134h312q56 0 101 2t89.5 4.5t93 4.5t110.5 2q192 0 330 -48.5t227 -140.5t131 -225.5t42 -304.5q0 -188 -55.5 -343t-156 -265t-242 -169t-312.5 -55q-38 1 -83 3.5t-92.5 5.5t-93.5 5t-86 2h-322v137zM570 145 q40 -14 87 -17t102 -1q96 1 175 41t136 119t88.5 198t31.5 278q0 152 -27.5 270.5t-84.5 199.5t-145.5 123.5t-210.5 42.5q-57 0 -95 -4.5t-57 -7.5v-526h280v-146h-280v-570z" />
<glyph unicode="&#xd1;" horiz-adv-x="1649" d="M406 1794q13 31 39.5 69t65 70t89.5 54t113 22q43 0 78 -12.5t65 -31t56 -40.5t51 -40.5t50.5 -31t54.5 -12.5q34 0 58 11t41 27.5t29 35t23 32.5l105 -88q-19 -39 -45 -78t-61 -69.5t-80 -49.5t-101 -19q-42 0 -77.5 12.5t-66 31.5t-58 40.5t-54.5 40.5t-55 31.5 t-59 12.5q-32 0 -56.5 -12t-43.5 -29t-33 -35t-24 -30zM55 137l185 27v1193l-185 31v134h477l631 -889l106 -212v936l-195 31v134h557v-134l-177 -31v-1357h-228l-668 956l-133 254v-1045l205 -28v-137h-575v137z" />
<glyph unicode="&#xd2;" horiz-adv-x="1515" d="M886 1604q-22 6 -55.5 21t-71.5 35.5t-78.5 46t-77 53.5t-66.5 56.5t-47 56.5l197 141h1l317 -322l-118 -88h-1v0zM746 -23q-174 -2 -302.5 52t-212.5 154t-125.5 242.5t-41.5 318.5q0 181 51 328t144.5 251.5t224.5 161t291 56.5q176 0 303.5 -53.5t210 -153.5 t122 -241.5t39.5 -317.5q0 -181 -51 -328t-143.5 -251t-222 -161t-287.5 -58zM756 115q79 0 143.5 41t110 123t70 205.5t24.5 289.5q0 165 -24 284.5t-68.5 196t-108.5 113t-145 36.5q-80 0 -144.5 -40.5t-110 -122.5t-70 -206t-24.5 -290q0 -167 24 -286.5t69 -196 t109 -112t145 -35.5z" />
<glyph unicode="&#xd3;" horiz-adv-x="1515" d="M603 1692l317 322h1l197 -141q-17 -28 -47 -56.5t-66.5 -56.5t-77 -53.5t-78.5 -46t-71.5 -35.5t-55.5 -21h-1zM746 -23q-174 -2 -302.5 52t-212.5 154t-125.5 242.5t-41.5 318.5q0 181 51 328t144.5 251.5t224.5 161t291 56.5q176 0 303.5 -53.5t210 -153.5t122 -241.5 t39.5 -317.5q0 -181 -51 -328t-143.5 -251t-222 -161t-287.5 -58zM756 115q79 0 143.5 41t110 123t70 205.5t24.5 289.5q0 165 -24 284.5t-68.5 196t-108.5 113t-145 36.5q-80 0 -144.5 -40.5t-110 -122.5t-70 -206t-24.5 -290q0 -167 24 -286.5t69 -196t109 -112t145 -35.5 z" />
<glyph unicode="&#xd4;" horiz-adv-x="1515" d="M746 -23q-174 -2 -302.5 52t-212.5 154t-125.5 242.5t-41.5 318.5q0 181 51 328t144.5 251.5t224.5 161t291 56.5q176 0 303.5 -53.5t210 -153.5t122 -241.5t39.5 -317.5q0 -181 -51 -328t-143.5 -251t-222 -161t-287.5 -58zM756 115q79 0 143.5 41t110 123t70 205.5 t24.5 289.5q0 165 -24 284.5t-68.5 196t-108.5 113t-145 36.5q-80 0 -144.5 -40.5t-110 -122.5t-70 -206t-24.5 -290q0 -167 24 -286.5t69 -196t109 -112t145 -35.5zM366 1701l293 313h200l294 -312l-108 -86l-286 197l-288 -197z" />
<glyph unicode="&#xd5;" horiz-adv-x="1515" d="M303 1794q13 31 39.5 69t65 70t89.5 54t113 22q43 0 78 -12.5t65 -31t56 -40.5t51 -40.5t50.5 -31t54.5 -12.5q34 0 58 11t41 27.5t29 35t23 32.5l105 -88q-19 -39 -45 -78t-61 -69.5t-80 -49.5t-101 -19q-42 0 -77.5 12.5t-66 31.5t-58 40.5t-54.5 40.5t-55 31.5 t-59 12.5q-32 0 -56.5 -12t-43.5 -29t-33 -35t-24 -30zM746 -23q-174 -2 -302.5 52t-212.5 154t-125.5 242.5t-41.5 318.5q0 181 51 328t144.5 251.5t224.5 161t291 56.5q176 0 303.5 -53.5t210 -153.5t122 -241.5t39.5 -317.5q0 -181 -51 -328t-143.5 -251t-222 -161 t-287.5 -58zM756 115q79 0 143.5 41t110 123t70 205.5t24.5 289.5q0 165 -24 284.5t-68.5 196t-108.5 113t-145 36.5q-80 0 -144.5 -40.5t-110 -122.5t-70 -206t-24.5 -290q0 -167 24 -286.5t69 -196t109 -112t145 -35.5z" />
<glyph unicode="&#xd6;" horiz-adv-x="1515" d="M1006 1645q-35 0 -62.5 13t-46 35t-28 51.5t-9.5 62.5q0 39 10.5 73.5t32 60t54 40.5t76.5 15h1q40 0 70 -13t49.5 -35.5t29.5 -51.5t10 -61q0 -40 -11 -75t-34 -60.5t-58 -40t-83 -14.5h-1zM478 1645q-35 0 -62 13t-46 35t-28.5 51.5t-9.5 62.5q0 39 10.5 73.5t32.5 60 t54 40.5t76 15h1q40 0 70 -13t50 -35.5t29.5 -51.5t9.5 -61q0 -40 -11 -75t-33.5 -60.5t-58 -40t-83.5 -14.5h-1zM746 -23q-174 -2 -302.5 52t-212.5 154t-125.5 242.5t-41.5 318.5q0 181 51 328t144.5 251.5t224.5 161t291 56.5q176 0 303.5 -53.5t210 -153.5t122 -241.5 t39.5 -317.5q0 -181 -51 -328t-143.5 -251t-222 -161t-287.5 -58zM756 115q79 0 143.5 41t110 123t70 205.5t24.5 289.5q0 165 -24 284.5t-68.5 196t-108.5 113t-145 36.5q-80 0 -144.5 -40.5t-110 -122.5t-70 -206t-24.5 -290q0 -167 24 -286.5t69 -196t109 -112t145 -35.5 z" />
<glyph unicode="&#xd7;" horiz-adv-x="1240" d="M135 300l338 316l-342 316l174 182l315 -351l314 351l171 -181l-338 -317l338 -316l-171 -180l-314 349l-314 -349z" />
<glyph unicode="&#xd8;" horiz-adv-x="1511" d="M412 43q-88 42 -153.5 109t-108.5 156.5t-64.5 199t-21.5 236.5q0 181 51 328t144.5 251.5t224.5 161t291 56.5q103 0 194 -20l83 220l141 -48l-86 -219q88 -42 153 -109t107 -156t62.5 -198t20.5 -236q0 -181 -51 -328t-143.5 -251t-222 -161t-287.5 -58q-51 0 -97 4 t-89 13l-93 -232l-150 46zM911 1363q-66 41 -153 41q-80 0 -144.5 -40.5t-110 -122.5t-70 -206t-24.5 -290q0 -182 27.5 -307t80.5 -200zM612 150q61 -35 144 -35q79 0 143.5 41t110 123t70 205.5t24.5 289.5q0 175 -26.5 297t-75.5 199z" />
<glyph unicode="&#xd9;" horiz-adv-x="1525" d="M957 1604q-22 6 -55.5 21t-71.5 35.5t-78.5 46t-77 53.5t-66.5 56.5t-47 56.5l197 141h1l317 -322l-118 -88h-1v0zM167 1356l-140 32v134h641v-134l-171 -31v-766q0 -117 22 -205t62.5 -146t99 -87t130.5 -29q91 0 157 36.5t108 99.5t62 148.5t20 183.5v765l-169 31v134 h510v-134l-137 -30v-758q0 -162 -43.5 -278.5t-120 -191.5t-181.5 -110.5t-227 -35.5q-314 0 -468.5 156t-154.5 486v730z" />
<glyph unicode="&#xda;" horiz-adv-x="1525" d="M674 1692l317 322h1l197 -141q-17 -28 -47 -56.5t-66.5 -56.5t-77 -53.5t-78.5 -46t-71.5 -35.5t-55.5 -21h-1zM167 1356l-140 32v134h641v-134l-171 -31v-766q0 -117 22 -205t62.5 -146t99 -87t130.5 -29q91 0 157 36.5t108 99.5t62 148.5t20 183.5v765l-169 31v134h510 v-134l-137 -30v-758q0 -162 -43.5 -278.5t-120 -191.5t-181.5 -110.5t-227 -35.5q-314 0 -468.5 156t-154.5 486v730z" />
<glyph unicode="&#xdb;" horiz-adv-x="1525" d="M167 1356l-140 32v134h641v-134l-171 -31v-766q0 -117 22 -205t62.5 -146t99 -87t130.5 -29q91 0 157 36.5t108 99.5t62 148.5t20 183.5v765l-169 31v134h510v-134l-137 -30v-758q0 -162 -43.5 -278.5t-120 -191.5t-181.5 -110.5t-227 -35.5q-314 0 -468.5 156 t-154.5 486v730zM437 1701l293 313h200l294 -312l-108 -86l-286 197l-288 -197z" />
<glyph unicode="&#xdc;" horiz-adv-x="1525" d="M1077 1645q-35 0 -62.5 13t-46 35t-28 51.5t-9.5 62.5q0 39 10.5 73.5t32 60t54 40.5t76.5 15h1q40 0 70 -13t49.5 -35.5t29.5 -51.5t10 -61q0 -40 -11 -75t-34 -60.5t-58 -40t-83 -14.5h-1zM549 1645q-35 0 -62 13t-46 35t-28.5 51.5t-9.5 62.5q0 39 10.5 73.5t32.5 60 t54 40.5t76 15h1q40 0 70 -13t50 -35.5t29.5 -51.5t9.5 -61q0 -40 -11 -75t-33.5 -60.5t-58 -40t-83.5 -14.5h-1zM167 1356l-140 32v134h641v-134l-171 -31v-766q0 -117 22 -205t62.5 -146t99 -87t130.5 -29q91 0 157 36.5t108 99.5t62 148.5t20 183.5v765l-169 31v134h510 v-134l-137 -30v-758q0 -162 -43.5 -278.5t-120 -191.5t-181.5 -110.5t-227 -35.5q-314 0 -468.5 156t-154.5 486v730z" />
<glyph unicode="&#xde;" horiz-adv-x="1409" d="M85 126l164 27v1215l-162 31v123h649v-123l-172 -31v-196q40 3 76 6.5t73.5 6.5t78 5t90.5 2q241 0 368 -96t127 -301q0 -119 -38.5 -206t-110.5 -143.5t-175 -84t-232 -27.5q-88 0 -152 4t-105 8v-193l205 -27v-126h-684v126zM564 478q60 -8 109 -8.5t97 -0.5 q57 0 106.5 15.5t86 52t57.5 96.5t21 149q0 65 -16 115t-52 84t-93.5 51t-140.5 16q-52 -1 -96.5 -6t-78.5 -10v-554z" />
<glyph unicode="&#xdf;" horiz-adv-x="1334" d="M34 137l131 23v787q0 146 46.5 268t129 209.5t196.5 136.5t250 49q100 0 172.5 -20.5t119.5 -58t69.5 -90.5t22.5 -119q0 -55 -16 -97t-40 -75.5t-51.5 -61.5t-51.5 -53.5t-40 -52t-16 -56.5q0 -40 25.5 -75.5t63.5 -72.5t82.5 -77.5t82.5 -91t63.5 -113.5t25.5 -144 q0 -86 -33 -155.5t-95 -118.5t-152 -75t-204 -26q-18 0 -43 2.5t-50 6t-46.5 7.5t-32.5 7v175q29 -13 73.5 -22t90.5 -9q42 0 74 11.5t53.5 31t32.5 46t11 57.5q0 62 -21.5 110.5t-53.5 90.5t-69.5 80t-69.5 78.5t-53.5 86.5t-21.5 103q0 44 14 77t35 62.5t45.5 58.5 t45.5 64t35 79t14 105q0 177 -156 177q-65 0 -112 -32t-77.5 -93t-45 -149.5t-14.5 -200.5v-987h-439v137z" />
<glyph unicode="&#xe0;" horiz-adv-x="1167" d="M62 304q0 73 26.5 130t73 100t109.5 73t136 49.5t152 28.5t158 11v48q0 57 -11.5 97.5t-35.5 66t-61.5 37t-90.5 11.5q-54 0 -108.5 -8.5t-104.5 -21t-92.5 -28t-72.5 -29.5h-1l-59 134q21 17 71 44.5t120 53.5t155 45t175 19q111 0 188.5 -24t126 -74t71 -126.5 t22.5 -180.5v-624h124v-123q-19 -5 -47 -11t-62 -11.5t-73 -9.5t-80 -4q-36 0 -61.5 3t-41 14t-22.5 31.5t-7 55.5v58q-17 -23 -47 -51t-72.5 -53t-96.5 -41.5t-119 -16.5q-71 0 -133 19t-108.5 59t-73.5 101.5t-27 147.5zM379 352q0 -89 40.5 -135.5t118.5 -46.5 q16 0 39.5 5t48.5 14t49 21.5t42 28.5v331q-98 0 -163 -18t-104 -48t-55 -69.5t-16 -82.5zM650 1309q-27 10 -64.5 32t-79.5 51.5t-85.5 65t-82 71.5t-69 70.5t-46.5 63.5l189 173h1l351 -429l-113 -98h-1v0z" />
<glyph unicode="&#xe1;" horiz-adv-x="1167" d="M62 304q0 73 26.5 130t73 100t109.5 73t136 49.5t152 28.5t158 11v48q0 57 -11.5 97.5t-35.5 66t-61.5 37t-90.5 11.5q-54 0 -108.5 -8.5t-104.5 -21t-92.5 -28t-72.5 -29.5h-1l-59 134q21 17 71 44.5t120 53.5t155 45t175 19q111 0 188.5 -24t126 -74t71 -126.5 t22.5 -180.5v-624h124v-123q-19 -5 -47 -11t-62 -11.5t-73 -9.5t-80 -4q-36 0 -61.5 3t-41 14t-22.5 31.5t-7 55.5v58q-17 -23 -47 -51t-72.5 -53t-96.5 -41.5t-119 -16.5q-71 0 -133 19t-108.5 59t-73.5 101.5t-27 147.5zM379 352q0 -89 40.5 -135.5t118.5 -46.5 q16 0 39.5 5t48.5 14t49 21.5t42 28.5v331q-98 0 -163 -18t-104 -48t-55 -69.5t-16 -82.5zM396 1407l351 429h1l188 -173q-16 -29 -46.5 -63.5t-69 -70.5t-82 -71.5t-85.5 -65t-79.5 -51.5t-64.5 -32h-2z" />
<glyph unicode="&#xe2;" horiz-adv-x="1167" d="M62 304q0 73 26.5 130t73 100t109.5 73t136 49.5t152 28.5t158 11v48q0 57 -11.5 97.5t-35.5 66t-61.5 37t-90.5 11.5q-54 0 -108.5 -8.5t-104.5 -21t-92.5 -28t-72.5 -29.5h-1l-59 134q21 17 71 44.5t120 53.5t155 45t175 19q111 0 188.5 -24t126 -74t71 -126.5 t22.5 -180.5v-624h124v-123q-19 -5 -47 -11t-62 -11.5t-73 -9.5t-80 -4q-36 0 -61.5 3t-41 14t-22.5 31.5t-7 55.5v58q-17 -23 -47 -51t-72.5 -53t-96.5 -41.5t-119 -16.5q-71 0 -133 19t-108.5 59t-73.5 101.5t-27 147.5zM379 352q0 -89 40.5 -135.5t118.5 -46.5 q16 0 39.5 5t48.5 14t49 21.5t42 28.5v331q-98 0 -163 -18t-104 -48t-55 -69.5t-16 -82.5zM170 1391l302 400h194l300 -399l-108 -85l-289 244l-298 -245z" />
<glyph unicode="&#xe3;" horiz-adv-x="1167" d="M62 304q0 73 26.5 130t73 100t109.5 73t136 49.5t152 28.5t158 11v48q0 57 -11.5 97.5t-35.5 66t-61.5 37t-90.5 11.5q-54 0 -108.5 -8.5t-104.5 -21t-92.5 -28t-72.5 -29.5h-1l-59 134q21 17 71 44.5t120 53.5t155 45t175 19q111 0 188.5 -24t126 -74t71 -126.5 t22.5 -180.5v-624h124v-123q-19 -5 -47 -11t-62 -11.5t-73 -9.5t-80 -4q-36 0 -61.5 3t-41 14t-22.5 31.5t-7 55.5v58q-17 -23 -47 -51t-72.5 -53t-96.5 -41.5t-119 -16.5q-71 0 -133 19t-108.5 59t-73.5 101.5t-27 147.5zM379 352q0 -89 40.5 -135.5t118.5 -46.5 q16 0 39.5 5t48.5 14t49 21.5t42 28.5v331q-98 0 -163 -18t-104 -48t-55 -69.5t-16 -82.5zM110 1474q13 31 39.5 69t65 70t89.5 54t113 22q43 0 78 -12.5t65 -31t56 -40.5t51 -40.5t50.5 -31t54.5 -12.5q34 0 58 11t41.5 27.5t29.5 35t22 32.5l105 -88q-19 -39 -45 -78 t-61 -69.5t-80 -49.5t-101 -19q-42 0 -77.5 12.5t-66 31.5t-58 41t-54.5 41t-55 31.5t-59 12.5q-32 0 -56.5 -12t-43.5 -29.5t-33 -35.5t-24 -30z" />
<glyph unicode="&#xe4;" horiz-adv-x="1167" d="M62 304q0 73 26.5 130t73 100t109.5 73t136 49.5t152 28.5t158 11v48q0 57 -11.5 97.5t-35.5 66t-61.5 37t-90.5 11.5q-54 0 -108.5 -8.5t-104.5 -21t-92.5 -28t-72.5 -29.5h-1l-59 134q21 17 71 44.5t120 53.5t155 45t175 19q111 0 188.5 -24t126 -74t71 -126.5 t22.5 -180.5v-624h124v-123q-19 -5 -47 -11t-62 -11.5t-73 -9.5t-80 -4q-36 0 -61.5 3t-41 14t-22.5 31.5t-7 55.5v58q-17 -23 -47 -51t-72.5 -53t-96.5 -41.5t-119 -16.5q-71 0 -133 19t-108.5 59t-73.5 101.5t-27 147.5zM379 352q0 -89 40.5 -135.5t118.5 -46.5 q16 0 39.5 5t48.5 14t49 21.5t42 28.5v331q-98 0 -163 -18t-104 -48t-55 -69.5t-16 -82.5zM806 1334q-35 0 -62 13t-46 34.5t-28.5 51t-9.5 62.5q0 39 10.5 73.5t32.5 60.5t54 41t76 15h1q40 0 70 -13.5t50 -36t29.5 -51.5t9.5 -61q0 -40 -11 -74.5t-33.5 -60t-58 -40 t-83.5 -14.5h-1zM296 1334q-35 0 -62.5 13t-46 34.5t-28 51t-9.5 62.5q0 39 10.5 73.5t32 60.5t54 41t76.5 15h1q40 0 70 -13.5t49.5 -36t29.5 -51.5t10 -61q0 -40 -11 -74.5t-34 -60t-58 -40t-83 -14.5h-1z" />
<glyph unicode="&#xe5;" horiz-adv-x="1167" d="M62 304q0 73 26.5 130t73 100t109.5 73t136 49.5t152 28.5t158 11v48q0 57 -11.5 97.5t-35.5 66t-61.5 37t-90.5 11.5q-54 0 -108.5 -8.5t-104.5 -21t-92.5 -28t-72.5 -29.5h-1l-59 134q21 17 71 44.5t120 53.5t155 45t175 19q111 0 188.5 -24t126 -74t71 -126.5 t22.5 -180.5v-624h124v-123q-19 -5 -47 -11t-62 -11.5t-73 -9.5t-80 -4q-36 0 -61.5 3t-41 14t-22.5 31.5t-7 55.5v58q-17 -23 -47 -51t-72.5 -53t-96.5 -41.5t-119 -16.5q-71 0 -133 19t-108.5 59t-73.5 101.5t-27 147.5zM379 352q0 -89 40.5 -135.5t118.5 -46.5 q16 0 39.5 5t48.5 14t49 21.5t42 28.5v331q-98 0 -163 -18t-104 -48t-55 -69.5t-16 -82.5zM562 1295q-93 0 -159 23.5t-108 64t-61 95t-18 116.5q1 71 32 125t81 90.5t115 55t134 18.5h1q86 0 149.5 -22.5t105.5 -61.5t62.5 -93t20.5 -117q-1 -71 -29 -125.5t-76 -92 t-112.5 -57t-136.5 -19.5h-1zM568 1431q45 0 75 10t48 29t25 47.5t7 64.5q0 33 -7.5 62.5t-25.5 52t-47.5 35.5t-73.5 13h-1q-45 0 -75 -11t-48 -30.5t-26 -47.5t-8 -62q0 -32 8.5 -61t27 -52t48 -36.5t72.5 -13.5h1z" />
<glyph unicode="&#xe6;" horiz-adv-x="1766" d="M62 299q0 72 25.5 128.5t70.5 99t106.5 73t134.5 50t153.5 29.5t164.5 12v60q0 60 -11 99.5t-35 62t-63 31.5t-96 9q-50 0 -99.5 -8.5t-95 -21t-86.5 -28.5t-74 -31l-59 145q28 22 81 49.5t121 51t146 39.5t155 16q114 0 193.5 -24.5t128.5 -81.5q68 53 154 80.5 t188 27.5q413 0 433 -405q2 -69 -0.5 -124.5t-10.5 -93.5h-652q5 -99 29 -169t63 -114t92.5 -64t117.5 -20q50 0 94 8t81.5 20t67.5 27t53 29l52 -121q-25 -26 -69.5 -54.5t-102 -52.5t-124 -40t-135.5 -16q-159 0 -267.5 55t-172.5 152q-34 -44 -77 -82t-95 -66 t-111.5 -43.5t-126.5 -15.5t-128.5 19t-109 59t-76 100.5t-28.5 143.5zM1392 679q0 5 0.5 14t1 19t0.5 18.5v13.5q0 51 -7.5 103t-26 93t-50.5 67t-83 26q-38 0 -72 -14.5t-59.5 -53.5t-42 -108t-19.5 -178h358zM379 352q0 -89 40.5 -135.5t118.5 -46.5q31 0 62.5 9 t60.5 24.5t55.5 36t47.5 43.5q-24 63 -35.5 134.5t-11.5 151.5v1q-95 0 -159.5 -18t-104 -48t-57 -69.5t-17.5 -82.5z" />
<glyph unicode="&#xe8;" horiz-adv-x="1123" d="M70 569q0 139 39.5 250t111.5 188.5t173 118.5t224 41q415 0 433 -405q2 -69 -0.5 -124.5t-10.5 -93.5h-652q5 -99 29 -169t63 -114t92.5 -64t117.5 -20q50 0 94 8t81.5 20t67.5 27t53 29l52 -121q-25 -26 -69.5 -54.5t-102 -52.5t-124 -40t-135.5 -16q-141 0 -242.5 44 t-167 122.5t-96.5 187.5t-31 238zM745 679q0 5 0.5 14t1 19t0.5 18.5v13.5q0 51 -7 103t-25.5 93t-51 67t-83.5 26q-38 0 -71.5 -14.5t-59 -53.5t-42 -108t-20.5 -178h358zM671 1309q-27 10 -64.5 32t-79.5 51.5t-85.5 65t-82 71.5t-69 70.5t-46.5 63.5l189 173h1l351 -429 l-113 -98h-1v0z" />
<glyph unicode="&#xe9;" horiz-adv-x="1123" d="M417 1407l351 429h1l188 -173q-16 -29 -46.5 -63.5t-69 -70.5t-82 -71.5t-85.5 -65t-79.5 -51.5t-64.5 -32h-2zM70 569q0 139 39.5 250t111.5 188.5t173 118.5t224 41q415 0 433 -405q2 -69 -0.5 -124.5t-10.5 -93.5h-652q5 -99 29 -169t63 -114t92.5 -64t117.5 -20 q50 0 94 8t81.5 20t67.5 27t53 29l52 -121q-25 -26 -69.5 -54.5t-102 -52.5t-124 -40t-135.5 -16q-141 0 -242.5 44t-167 122.5t-96.5 187.5t-31 238zM745 679q0 5 0.5 14t1 19t0.5 18.5v13.5q0 51 -7 103t-25.5 93t-51 67t-83.5 26q-38 0 -71.5 -14.5t-59 -53.5t-42 -108 t-20.5 -178h358z" />
<glyph unicode="&#xea;" horiz-adv-x="1123" d="M186 1391l302 400h194l300 -399l-108 -85l-289 244l-298 -245zM70 569q0 139 39.5 250t111.5 188.5t173 118.5t224 41q415 0 433 -405q2 -69 -0.5 -124.5t-10.5 -93.5h-652q5 -99 29 -169t63 -114t92.5 -64t117.5 -20q50 0 94 8t81.5 20t67.5 27t53 29l52 -121 q-25 -26 -69.5 -54.5t-102 -52.5t-124 -40t-135.5 -16q-141 0 -242.5 44t-167 122.5t-96.5 187.5t-31 238zM745 679q0 5 0.5 14t1 19t0.5 18.5v13.5q0 51 -7 103t-25.5 93t-51 67t-83.5 26q-38 0 -71.5 -14.5t-59 -53.5t-42 -108t-20.5 -178h358z" />
<glyph unicode="&#xeb;" horiz-adv-x="1123" d="M827 1334q-35 0 -62 13t-46 34.5t-28.5 51t-9.5 62.5q0 39 10.5 73.5t32.5 60.5t54 41t76 15h1q40 0 70 -13.5t50 -36t29.5 -51.5t9.5 -61q0 -40 -11 -74.5t-33.5 -60t-58 -40t-83.5 -14.5h-1zM317 1334q-35 0 -62.5 13t-46 34.5t-28 51t-9.5 62.5q0 39 10.5 73.5 t32 60.5t54 41t76.5 15h1q40 0 70 -13.5t49.5 -36t29.5 -51.5t10 -61q0 -40 -11 -74.5t-34 -60t-58 -40t-83 -14.5h-1zM70 569q0 139 39.5 250t111.5 188.5t173 118.5t224 41q415 0 433 -405q2 -69 -0.5 -124.5t-10.5 -93.5h-652q5 -99 29 -169t63 -114t92.5 -64t117.5 -20 q50 0 94 8t81.5 20t67.5 27t53 29l52 -121q-25 -26 -69.5 -54.5t-102 -52.5t-124 -40t-135.5 -16q-141 0 -242.5 44t-167 122.5t-96.5 187.5t-31 238zM745 679q0 5 0.5 14t1 19t0.5 18.5v13.5q0 51 -7 103t-25.5 93t-51 67t-83.5 26q-38 0 -71.5 -14.5t-59 -53.5t-42 -108 t-20.5 -178h358z" />
<glyph unicode="&#xec;" horiz-adv-x="735" d="M82 134l146 19v770l-135 43v150l367 49h5l73 -43v-968l145 -20v-134h-601v134zM455 1309q-27 10 -64.5 32t-79.5 51.5t-85.5 65t-82 71.5t-69 70.5t-46.5 63.5l189 173h1l351 -429l-113 -98h-1v0z" />
<glyph unicode="&#xed;" horiz-adv-x="735" d="M201 1407l351 429h1l188 -173q-16 -29 -46.5 -63.5t-69 -70.5t-82 -71.5t-85.5 -65t-79.5 -51.5t-64.5 -32h-2zM82 134l146 19v770l-135 43v150l367 49h5l73 -43v-968l145 -20v-134h-601v134z" />
<glyph unicode="&#xee;" horiz-adv-x="735" d="M-29 1391l302 400h194l300 -399l-108 -85l-289 244l-298 -245zM82 134l146 19v770l-135 43v150l367 49h5l73 -43v-968l145 -20v-134h-601v134z" />
<glyph unicode="&#xef;" horiz-adv-x="747" d="M617 1334q-35 0 -62 13t-46 34.5t-28.5 51t-9.5 62.5q0 39 10.5 73.5t32.5 60.5t54 41t76 15h1q40 0 70 -13.5t50 -36t29.5 -51.5t9.5 -61q0 -40 -11 -74.5t-33.5 -60t-58 -40t-83.5 -14.5h-1zM107 1334q-35 0 -62.5 13t-46 34.5t-28 51t-9.5 62.5q0 39 10.5 73.5 t32 60.5t54 41t76.5 15h1q40 0 70 -13.5t49.5 -36t29.5 -51.5t10 -61q0 -40 -11 -74.5t-34 -60t-58 -40t-83 -14.5h-1zM87 134l146 19v770l-135 43v150l367 49h5l73 -43v-968l145 -20v-134h-601v134z" />
<glyph unicode="&#xf0;" horiz-adv-x="1229" d="M72 545q0 159 45.5 276t121 194.5t172.5 115t201 37.5q53 0 95 -9.5t73 -22.5q-19 54 -47.5 107t-64.5 101t-78.5 89.5t-89.5 73.5l-132 -159l-129 92l134 151q-29 19 -58.5 36t-57.5 31t-52.5 23.5t-42.5 14.5l52 128q73 -17 141 -42t134 -60q23 27 46.5 56t42.5 52 q22 27 43 54l122 -99q-19 -22 -38 -45q-17 -20 -37.5 -44.5t-41.5 -48.5q110 -75 207.5 -177t170 -226.5t115 -268t42.5 -299.5q0 -86 -13 -171t-41.5 -163t-72.5 -144.5t-106.5 -115.5t-144.5 -77t-185 -28q-134 0 -233 41.5t-164 116.5t-97 179.5t-32 230.5zM614 123 q58 0 100.5 30t70.5 92.5t41.5 159t13.5 229.5q0 57 -2.5 109t-7 95.5t-10 76.5t-11.5 52q-7 9 -20 20t-34.5 21t-52 16.5t-71.5 6.5q-113 0 -170.5 -110t-57.5 -343q0 -87 10 -169t34.5 -145.5t65 -102t101.5 -38.5z" />
<glyph unicode="&#xf1;" horiz-adv-x="1417" d="M95 134l129 20v769l-136 42v151l358 49h5l53 -43v-119q33 30 78 59t97.5 51t110.5 35.5t117 13.5q96 0 160.5 -25.5t102.5 -80t54 -141t16 -208.5v-554l142 -19v-134h-563v134l109 19v558q0 69 -7 119.5t-25.5 82.5t-51 47.5t-83.5 15.5q-34 0 -67 -7.5t-62.5 -19.5 t-54 -26.5t-42.5 -28.5v-740l134 -20v-134h-574v134zM259 1474q13 31 39.5 69t65 70t89.5 54t113 22q43 0 78 -12.5t65 -31t56 -40.5t51 -40.5t50.5 -31t54.5 -12.5q34 0 58 11t41.5 27.5t29.5 35t22 32.5l105 -88q-19 -39 -45 -78t-61 -69.5t-80 -49.5t-101 -19 q-42 0 -77.5 12.5t-66 31.5t-58 41t-54.5 41t-55 31.5t-59 12.5q-32 0 -56.5 -12t-43.5 -29.5t-33 -35.5t-24 -30z" />
<glyph unicode="&#xf2;" horiz-adv-x="1232" d="M65 566q0 152 47 265t125 188t180.5 112t213.5 37q130 0 230 -40.5t168 -116.5t103 -185t35 -247q0 -156 -47 -270t-125 -187.5t-180 -109t-213 -35.5q-130 0 -230 40.5t-168.5 116.5t-103.5 185t-35 247zM619 115q55 0 95 24.5t66.5 77t39 134.5t12.5 196 q0 117 -11.5 207.5t-37 151.5t-67 92.5t-101.5 31.5q-55 0 -95.5 -24.5t-67.5 -77t-40 -134.5t-13 -196q0 -235 50.5 -359t169.5 -124zM706 1309q-27 10 -64.5 32t-79.5 51.5t-85.5 65t-82 71.5t-69 70.5t-46.5 63.5l189 173h1l351 -429l-113 -98h-1v0z" />
<glyph unicode="&#xf3;" horiz-adv-x="1232" d="M452 1407l351 429h1l188 -173q-16 -29 -46.5 -63.5t-69 -70.5t-82 -71.5t-85.5 -65t-79.5 -51.5t-64.5 -32h-2zM65 566q0 152 47 265t125 188t180.5 112t213.5 37q130 0 230 -40.5t168 -116.5t103 -185t35 -247q0 -156 -47 -270t-125 -187.5t-180 -109t-213 -35.5 q-130 0 -230 40.5t-168.5 116.5t-103.5 185t-35 247zM619 115q55 0 95 24.5t66.5 77t39 134.5t12.5 196q0 117 -11.5 207.5t-37 151.5t-67 92.5t-101.5 31.5q-55 0 -95.5 -24.5t-67.5 -77t-40 -134.5t-13 -196q0 -235 50.5 -359t169.5 -124z" />
<glyph unicode="&#xf4;" horiz-adv-x="1232" d="M226 1391l302 400h194l300 -399l-108 -85l-289 244l-298 -245zM65 566q0 152 47 265t125 188t180.5 112t213.5 37q130 0 230 -40.5t168 -116.5t103 -185t35 -247q0 -156 -47 -270t-125 -187.5t-180 -109t-213 -35.5q-130 0 -230 40.5t-168.5 116.5t-103.5 185t-35 247z M619 115q55 0 95 24.5t66.5 77t39 134.5t12.5 196q0 117 -11.5 207.5t-37 151.5t-67 92.5t-101.5 31.5q-55 0 -95.5 -24.5t-67.5 -77t-40 -134.5t-13 -196q0 -235 50.5 -359t169.5 -124z" />
<glyph unicode="&#xf5;" horiz-adv-x="1232" d="M65 566q0 152 47 265t125 188t180.5 112t213.5 37q130 0 230 -40.5t168 -116.5t103 -185t35 -247q0 -156 -47 -270t-125 -187.5t-180 -109t-213 -35.5q-130 0 -230 40.5t-168.5 116.5t-103.5 185t-35 247zM619 115q55 0 95 24.5t66.5 77t39 134.5t12.5 196 q0 117 -11.5 207.5t-37 151.5t-67 92.5t-101.5 31.5q-55 0 -95.5 -24.5t-67.5 -77t-40 -134.5t-13 -196q0 -235 50.5 -359t169.5 -124zM166 1474q13 31 39.5 69t65 70t89.5 54t113 22q43 0 78 -12.5t65 -31t56 -40.5t51 -40.5t50.5 -31t54.5 -12.5q34 0 58 11t41.5 27.5 t29.5 35t22 32.5l105 -88q-19 -39 -45 -78t-61 -69.5t-80 -49.5t-101 -19q-42 0 -77.5 12.5t-66 31.5t-58 41t-54.5 41t-55 31.5t-59 12.5q-32 0 -56.5 -12t-43.5 -29.5t-33 -35.5t-24 -30z" />
<glyph unicode="&#xf6;" horiz-adv-x="1232" d="M862 1334q-35 0 -62 13t-46 34.5t-28.5 51t-9.5 62.5q0 39 10.5 73.5t32.5 60.5t54 41t76 15h1q40 0 70 -13.5t50 -36t29.5 -51.5t9.5 -61q0 -40 -11 -74.5t-33.5 -60t-58 -40t-83.5 -14.5h-1zM352 1334q-35 0 -62.5 13t-46 34.5t-28 51t-9.5 62.5q0 39 10.5 73.5 t32 60.5t54 41t76.5 15h1q40 0 70 -13.5t49.5 -36t29.5 -51.5t10 -61q0 -40 -11 -74.5t-34 -60t-58 -40t-83 -14.5h-1zM65 566q0 152 47 265t125 188t180.5 112t213.5 37q130 0 230 -40.5t168 -116.5t103 -185t35 -247q0 -156 -47 -270t-125 -187.5t-180 -109t-213 -35.5 q-130 0 -230 40.5t-168.5 116.5t-103.5 185t-35 247zM619 115q55 0 95 24.5t66.5 77t39 134.5t12.5 196q0 117 -11.5 207.5t-37 151.5t-67 92.5t-101.5 31.5q-55 0 -95.5 -24.5t-67.5 -77t-40 -134.5t-13 -196q0 -235 50.5 -359t169.5 -124z" />
<glyph unicode="&#xf7;" horiz-adv-x="1358" d="M689 855q-35 0 -66.5 11t-55.5 31t-38.5 49.5t-14.5 67.5q0 40 16 75.5t44 62t65 41.5t79 15q49 0 83 -13.5t55.5 -36t31.5 -52t10 -62.5q0 -44 -15.5 -78.5t-43.5 -59.5t-66.5 -38t-83.5 -13zM209 718h941v-209h-941v209zM492 185q0 40 16 75t44 61t65 40.5t79 14.5 q49 0 83 -13t55.5 -35t31.5 -51t10 -62q0 -43 -15.5 -78.5t-43.5 -61t-66.5 -39.5t-83.5 -14q-35 0 -66.5 11.5t-55.5 33t-38.5 51.5t-14.5 67z" />
<glyph unicode="&#xf8;" horiz-adv-x="1232" d="M358 23q-144 63 -218.5 201.5t-74.5 341.5q0 152 47 265t125 188t180.5 112t213.5 37q31 0 60 -2.5t57 -7.5l73 218l128 -38l-69 -219q141 -63 214 -201t73 -339q0 -156 -47 -270t-125 -187.5t-180 -109t-213 -35.5q-29 0 -56 2t-53 6l-85 -240l-132 40zM709 1004 q-41 26 -94 26q-55 0 -95.5 -24.5t-67.5 -77t-40 -134.5t-13 -196q0 -125 13.5 -218.5t43.5 -154.5zM532 137q37 -22 87 -22q55 0 95 24.5t66.5 77t39 134.5t12.5 196q0 118 -11.5 208t-37.5 152z" />
<glyph unicode="&#xf9;" horiz-adv-x="1340" d="M174 982l-100 37v117l360 29h1l46 -28v-732q0 -66 8.5 -111.5t28.5 -74.5t53 -42t82 -13q37 0 69.5 7.5t58 19t44.5 24t31 22.5v745l-138 39v118l388 26h2l55 -28v-1001h111v-124q-38 -9 -101 -22t-142 -13q-73 0 -107 32t-34 95v36q-26 -30 -63.5 -59t-82.5 -52.5 t-96 -37.5t-102 -14q-98 0 -168.5 23.5t-115.5 75.5t-66.5 134.5t-21.5 201.5v570zM751 1309q-27 10 -64.5 32t-79.5 51.5t-85.5 65t-82 71.5t-69 70.5t-46.5 63.5l189 173h1l351 -429l-113 -98h-1v0z" />
<glyph unicode="&#xfa;" horiz-adv-x="1340" d="M497 1407l351 429h1l188 -173q-16 -29 -46.5 -63.5t-69 -70.5t-82 -71.5t-85.5 -65t-79.5 -51.5t-64.5 -32h-2zM174 982l-100 37v117l360 29h1l46 -28v-732q0 -66 8.5 -111.5t28.5 -74.5t53 -42t82 -13q37 0 69.5 7.5t58 19t44.5 24t31 22.5v745l-138 39v118l388 26h2 l55 -28v-1001h111v-124q-38 -9 -101 -22t-142 -13q-73 0 -107 32t-34 95v36q-26 -30 -63.5 -59t-82.5 -52.5t-96 -37.5t-102 -14q-98 0 -168.5 23.5t-115.5 75.5t-66.5 134.5t-21.5 201.5v570z" />
<glyph unicode="&#xfb;" horiz-adv-x="1340" d="M271 1391l302 400h194l300 -399l-108 -85l-289 244l-298 -245zM174 982l-100 37v117l360 29h1l46 -28v-732q0 -66 8.5 -111.5t28.5 -74.5t53 -42t82 -13q37 0 69.5 7.5t58 19t44.5 24t31 22.5v745l-138 39v118l388 26h2l55 -28v-1001h111v-124q-38 -9 -101 -22t-142 -13 q-73 0 -107 32t-34 95v36q-26 -30 -63.5 -59t-82.5 -52.5t-96 -37.5t-102 -14q-98 0 -168.5 23.5t-115.5 75.5t-66.5 134.5t-21.5 201.5v570z" />
<glyph unicode="&#xfc;" horiz-adv-x="1340" d="M907 1334q-35 0 -62 13t-46 34.5t-28.5 51t-9.5 62.5q0 39 10.5 73.5t32.5 60.5t54 41t76 15h1q40 0 70 -13.5t50 -36t29.5 -51.5t9.5 -61q0 -40 -11 -74.5t-33.5 -60t-58 -40t-83.5 -14.5h-1zM397 1334q-35 0 -62.5 13t-46 34.5t-28 51t-9.5 62.5q0 39 10.5 73.5 t32 60.5t54 41t76.5 15h1q40 0 70 -13.5t49.5 -36t29.5 -51.5t10 -61q0 -40 -11 -74.5t-34 -60t-58 -40t-83 -14.5h-1zM174 982l-100 37v117l360 29h1l46 -28v-732q0 -66 8.5 -111.5t28.5 -74.5t53 -42t82 -13q37 0 69.5 7.5t58 19t44.5 24t31 22.5v745l-138 39v118l388 26 h2l55 -28v-1001h111v-124q-38 -9 -101 -22t-142 -13q-73 0 -107 32t-34 95v36q-26 -30 -63.5 -59t-82.5 -52.5t-96 -37.5t-102 -14q-98 0 -168.5 23.5t-115.5 75.5t-66.5 134.5t-21.5 201.5v570z" />
<glyph unicode="&#xfe;" horiz-adv-x="1272" d="M155 -346v1835l-150 25v117l390 49h4l63 -41v-595q24 24 56 46t70.5 39.5t84 28t96.5 10.5q90 0 170 -30t140.5 -97t96 -174t35.5 -261q0 -133 -40.5 -248t-117 -199.5t-186.5 -133t-249 -48.5q-45 0 -85 2t-77 6l7 -155v-176l194 -25v-125h-649v125zM462 161 q13 -23 54 -36.5t93 -13.5q68 0 118 36t83 98.5t49.5 146t17.5 178.5q1 98 -13 175.5t-43 131t-73.5 81.5t-105.5 28q-62 0 -108.5 -23t-71.5 -51v-751z" />
<glyph unicode="&#x100;" horiz-adv-x="1441" d="M-48 137l129 28l482 1363h321l481 -1363l139 -28v-137h-649v137l163 28l-75 244h-543l-71 -245l165 -27v-137h-541zM895 565l-197 645l-35 146l-32 -146l-186 -645h450zM417 1916h623v-194h-623v194z" />
<glyph unicode="&#x101;" horiz-adv-x="1167" d="M62 304q0 73 26.5 130t73 100t109.5 73t136 49.5t152 28.5t158 11v48q0 57 -11.5 97.5t-35.5 66t-61.5 37t-90.5 11.5q-54 0 -108.5 -8.5t-104.5 -21t-92.5 -28t-72.5 -29.5h-1l-59 134q21 17 71 44.5t120 53.5t155 45t175 19q111 0 188.5 -24t126 -74t71 -126.5 t22.5 -180.5v-624h124v-123q-19 -5 -47 -11t-62 -11.5t-73 -9.5t-80 -4q-36 0 -61.5 3t-41 14t-22.5 31.5t-7 55.5v58q-17 -23 -47 -51t-72.5 -53t-96.5 -41.5t-119 -16.5q-71 0 -133 19t-108.5 59t-73.5 101.5t-27 147.5zM379 352q0 -89 40.5 -135.5t118.5 -46.5 q16 0 39.5 5t48.5 14t49 21.5t42 28.5v331q-98 0 -163 -18t-104 -48t-55 -69.5t-16 -82.5zM280 1614h578v-193h-578v193z" />
<glyph unicode="&#x102;" horiz-adv-x="1441" d="M-48 137l129 28l482 1363h321l481 -1363l139 -28v-137h-649v137l163 28l-75 244h-543l-71 -245l165 -27v-137h-541zM895 565l-197 645l-35 146l-32 -146l-186 -645h450zM729 1621q-93 0 -162.5 28t-116 75t-69.5 108.5t-23 127.5q0 22 3 45h151q0 -4 0.5 -9.5t1.5 -13.5 q4 -21 15.5 -48.5t36 -52t64.5 -42t101 -17.5t100 17.5t62 42.5t33 52.5t13 47.5q1 8 1 13.5v9.5h153q1 -11 1.5 -21.5t0.5 -21.5q0 -66 -23.5 -128t-70 -109t-115 -75.5t-157.5 -28.5z" />
<glyph unicode="&#x103;" horiz-adv-x="1167" d="M62 304q0 73 26.5 130t73 100t109.5 73t136 49.5t152 28.5t158 11v48q0 57 -11.5 97.5t-35.5 66t-61.5 37t-90.5 11.5q-54 0 -108.5 -8.5t-104.5 -21t-92.5 -28t-72.5 -29.5h-1l-59 134q21 17 71 44.5t120 53.5t155 45t175 19q111 0 188.5 -24t126 -74t71 -126.5 t22.5 -180.5v-624h124v-123q-19 -5 -47 -11t-62 -11.5t-73 -9.5t-80 -4q-36 0 -61.5 3t-41 14t-22.5 31.5t-7 55.5v58q-17 -23 -47 -51t-72.5 -53t-96.5 -41.5t-119 -16.5q-71 0 -133 19t-108.5 59t-73.5 101.5t-27 147.5zM379 352q0 -89 40.5 -135.5t118.5 -46.5 q16 0 39.5 5t48.5 14t49 21.5t42 28.5v331q-98 0 -163 -18t-104 -48t-55 -69.5t-16 -82.5zM570 1332q-81 0 -148 27t-115 74t-74.5 109.5t-26.5 133.5q0 21 0.5 47t2.5 40h146q0 -8 1 -19t3 -23q4 -28 16.5 -59t37 -56.5t63.5 -42t96 -16.5t94.5 16.5t61.5 42t35.5 56 t15.5 58.5q2 13 3 24t1 19h141q1 -7 1.5 -17.5t1 -22.5l1 -24t0.5 -22q0 -71 -27 -134t-75 -110t-113.5 -74t-142.5 -27z" />
<glyph unicode="&#x106;" horiz-adv-x="1370" d="M66 754q0 177 60 321.5t166 247.5t250 159t311 56q72 0 137 -8.5t121.5 -19t103 -21.5t81.5 -15l-23 -398h-205l-60 263q-11 12 -26 23.5t-37.5 19.5t-54.5 13t-76 5q-86 0 -158 -37.5t-123.5 -113t-80 -189.5t-28.5 -267q0 -132 23 -254t70.5 -215.5t120.5 -149.5 t173 -56q50 0 86 5.5t62 14.5t43 21t29 26l91 221l176 -10l-24 -340q-43 -3 -87 -15.5t-99 -26.5t-127.5 -25.5t-172.5 -11.5q-177 0 -311.5 56.5t-226 159t-138 245.5t-46.5 316zM639 1692l317 322h1l197 -141q-17 -28 -47 -56.5t-66.5 -56.5t-77 -53.5t-78.5 -46 t-71.5 -35.5t-55.5 -21h-1z" />
<glyph unicode="&#x107;" horiz-adv-x="1066" d="M410 1407l351 429h1l188 -173q-16 -29 -46.5 -63.5t-69 -70.5t-82 -71.5t-85.5 -65t-79.5 -51.5t-64.5 -32h-2zM72 559q0 135 40.5 247t115.5 192.5t181.5 125t238.5 44.5q67 0 123 -7.5t100 -17.5t76 -20.5t52 -16.5l-10 -341h-176l-58 176q-22 42 -54 66t-78 24 q-45 0 -85.5 -22.5t-72 -71t-50.5 -125.5t-19 -186q0 -125 19.5 -210.5t57 -138.5t91 -76.5t121.5 -23.5q46 0 86.5 7t74.5 18t62 25t51 29l53 -121q-21 -23 -60.5 -50.5t-92 -51.5t-116 -40t-132.5 -16q-141 0 -243 44t-167.5 122t-97 184.5t-31.5 231.5z" />
<glyph unicode="&#x108;" horiz-adv-x="1370" d="M66 754q0 177 60 321.5t166 247.5t250 159t311 56q72 0 137 -8.5t121.5 -19t103 -21.5t81.5 -15l-23 -398h-205l-60 263q-11 12 -26 23.5t-37.5 19.5t-54.5 13t-76 5q-86 0 -158 -37.5t-123.5 -113t-80 -189.5t-28.5 -267q0 -132 23 -254t70.5 -215.5t120.5 -149.5 t173 -56q50 0 86 5.5t62 14.5t43 21t29 26l91 221l176 -10l-24 -340q-43 -3 -87 -15.5t-99 -26.5t-127.5 -25.5t-172.5 -11.5q-177 0 -311.5 56.5t-226 159t-138 245.5t-46.5 316zM402 1701l293 313h200l294 -312l-108 -86l-286 197l-288 -197z" />
<glyph unicode="&#x109;" horiz-adv-x="1066" d="M205 1391l302 400h194l300 -399l-108 -85l-289 244l-298 -245zM72 559q0 135 40.5 247t115.5 192.5t181.5 125t238.5 44.5q67 0 123 -7.5t100 -17.5t76 -20.5t52 -16.5l-10 -341h-176l-58 176q-22 42 -54 66t-78 24q-45 0 -85.5 -22.5t-72 -71t-50.5 -125.5t-19 -186 q0 -125 19.5 -210.5t57 -138.5t91 -76.5t121.5 -23.5q46 0 86.5 7t74.5 18t62 25t51 29l53 -121q-21 -23 -60.5 -50.5t-92 -51.5t-116 -40t-132.5 -16q-141 0 -243 44t-167.5 122t-97 184.5t-31.5 231.5z" />
<glyph unicode="&#x10b;" horiz-adv-x="1066" d="M72 559q0 135 40.5 247t115.5 192.5t181.5 125t238.5 44.5q67 0 123 -7.5t100 -17.5t76 -20.5t52 -16.5l-10 -341h-176l-58 176q-22 42 -54 66t-78 24q-45 0 -85.5 -22.5t-72 -71t-50.5 -125.5t-19 -186q0 -125 19.5 -210.5t57 -138.5t91 -76.5t121.5 -23.5q46 0 86.5 7 t74.5 18t62 25t51 29l53 -121q-21 -23 -60.5 -50.5t-92 -51.5t-116 -40t-132.5 -16q-141 0 -243 44t-167.5 122t-97 184.5t-31.5 231.5zM567 1334q-35 0 -62.5 13t-46 34.5t-28 51t-9.5 62.5q0 39 10.5 73.5t32.5 60.5t54 41t76 15h1q40 0 70 -13.5t50 -36t29.5 -51.5 t9.5 -61q0 -40 -11 -74.5t-33.5 -60t-58 -40t-83.5 -14.5h-1v0z" />
<glyph unicode="&#x10c;" horiz-adv-x="1370" d="M66 754q0 177 60 321.5t166 247.5t250 159t311 56q72 0 137 -8.5t121.5 -19t103 -21.5t81.5 -15l-23 -398h-205l-60 263q-11 12 -26 23.5t-37.5 19.5t-54.5 13t-76 5q-86 0 -158 -37.5t-123.5 -113t-80 -189.5t-28.5 -267q0 -132 23 -254t70.5 -215.5t120.5 -149.5 t173 -56q50 0 86 5.5t62 14.5t43 21t29 26l91 221l176 -10l-24 -340q-43 -3 -87 -15.5t-99 -26.5t-127.5 -25.5t-172.5 -11.5q-177 0 -311.5 56.5t-226 159t-138 245.5t-46.5 316zM423 1927l109 87l266 -191l279 191l105 -85l-284 -301h-201z" />
<glyph unicode="&#x10d;" horiz-adv-x="1066" d="M209 1716l105 85l291 -244l294 245l103 -85l-300 -400h-195zM72 559q0 135 40.5 247t115.5 192.5t181.5 125t238.5 44.5q67 0 123 -7.5t100 -17.5t76 -20.5t52 -16.5l-10 -341h-176l-58 176q-22 42 -54 66t-78 24q-45 0 -85.5 -22.5t-72 -71t-50.5 -125.5t-19 -186 q0 -125 19.5 -210.5t57 -138.5t91 -76.5t121.5 -23.5q46 0 86.5 7t74.5 18t62 25t51 29l53 -121q-21 -23 -60.5 -50.5t-92 -51.5t-116 -40t-132.5 -16q-141 0 -243 44t-167.5 122t-97 184.5t-31.5 231.5z" />
<glyph unicode="&#x10f;" horiz-adv-x="1513" d="M514 -22q-93 0 -173.5 33.5t-140.5 103.5t-94 176t-34 252q0 137 40.5 251.5t117 197.5t186.5 129.5t249 46.5q42 0 81.5 -4t75.5 -12v340l-183 31v114l423 43h5l62 -47v-1494h111v-126q-50 -11 -114 -23.5t-140 -12.5q-62 0 -95.5 27t-33.5 98v39q-25 -32 -59.5 -61.5 t-78 -52t-95 -36t-110.5 -13.5zM641 159q61 0 108.5 23t72.5 52v754q-17 18 -56 32t-93 14t-102 -23t-84 -76.5t-57.5 -140.5t-23.5 -215q-2 -112 14 -191.5t46.5 -130.5t75 -74.5t99.5 -23.5zM1314 1048l-7 26q15 88 19 161t4 128q0 40 -5 78t-12.5 70t-16.5 56t-18 35 l15 42l214 53q14 -15 26 -44.5t20.5 -66t13 -77.5t4.5 -80q0 -60 -10.5 -122t-28 -118t-40 -102.5t-46.5 -76.5z" />
<glyph unicode="&#x110;" horiz-adv-x="1593" d="M85 137l164 27v539h-156v155h156v500l-157 30v134h312q56 0 101 2t89.5 4.5t93 4.5t110.5 2q192 0 330 -48.5t227 -140.5t131 -225.5t42 -304.5q0 -188 -55.5 -343t-156 -265t-242 -169t-312.5 -55q-38 1 -83 3.5t-92.5 5.5t-93.5 5t-86 2h-322v137zM570 145 q40 -14 87 -17t102 -1q96 1 175 41t136 119t88.5 198t31.5 278q0 152 -27.5 270.5t-84.5 199.5t-145.5 123.5t-210.5 42.5q-57 0 -95 -4.5t-57 -7.5v-529h280v-155h-280v-558z" />
<glyph unicode="&#x111;" horiz-adv-x="1303" d="M513 -22q-93 0 -173.5 33.5t-140.5 103.5t-94 176t-34 252q0 137 40.5 251.5t117 197.5t186.5 129.5t249 46.5q42 0 81.5 -4t75.5 -12v112h-241v148h241v80l-183 31v114l423 43h5l62 -47v-221h144v-148h-144v-1125h111v-126q-50 -11 -114 -23.5t-140 -12.5 q-62 0 -95.5 27t-33.5 98v39q-25 -32 -59.5 -61.5t-78 -52t-95 -36t-110.5 -13.5zM640 159q61 0 108.5 23t72.5 52v754q-17 18 -56 32t-93 14t-102 -23t-84 -76.5t-57.5 -140.5t-23.5 -215q-2 -112 14 -191.5t46.5 -130.5t75 -74.5t99.5 -23.5z" />
<glyph unicode="&#x112;" horiz-adv-x="1379" d="M387 1916h623v-194h-623v194zM85 137l164 27v1193l-162 31v134h1101l23 -347h-171l-73 194l-398 20v-542l260 4l30 168h173v-491h-173l-30 168l-260 5v-548l479 23l123 264l171 -39l-58 -401h-1199v137z" />
<glyph unicode="&#x113;" horiz-adv-x="1123" d="M70 569q0 139 39.5 250t111.5 188.5t173 118.5t224 41q415 0 433 -405q2 -69 -0.5 -124.5t-10.5 -93.5h-652q5 -99 29 -169t63 -114t92.5 -64t117.5 -20q50 0 94 8t81.5 20t67.5 27t53 29l52 -121q-25 -26 -69.5 -54.5t-102 -52.5t-124 -40t-135.5 -16q-141 0 -242.5 44 t-167 122.5t-96.5 187.5t-31 238zM745 679q0 5 0.5 14t1 19t0.5 18.5v13.5q0 51 -7 103t-25.5 93t-51 67t-83.5 26q-38 0 -71.5 -14.5t-59 -53.5t-42 -108t-20.5 -178h358zM301 1614h578v-193h-578v193z" />
<glyph unicode="&#x114;" horiz-adv-x="1379" d="M699 1621q-93 0 -162.5 28t-116 75t-69.5 108.5t-23 127.5q0 22 3 45h151q0 -4 0.5 -9.5t1.5 -13.5q4 -21 15.5 -48.5t36 -52t64.5 -42t101 -17.5t100 17.5t62 42.5t33 52.5t13 47.5q1 8 1 13.5v9.5h153q1 -11 1.5 -21.5t0.5 -21.5q0 -66 -23.5 -128t-70 -109t-115 -75.5 t-157.5 -28.5zM85 137l164 27v1193l-162 31v134h1101l23 -347h-171l-73 194l-398 20v-542l260 4l30 168h173v-491h-173l-30 168l-260 5v-548l479 23l123 264l171 -39l-58 -401h-1199v137z" />
<glyph unicode="&#x115;" horiz-adv-x="1123" d="M70 569q0 139 39.5 250t111.5 188.5t173 118.5t224 41q415 0 433 -405q2 -69 -0.5 -124.5t-10.5 -93.5h-652q5 -99 29 -169t63 -114t92.5 -64t117.5 -20q50 0 94 8t81.5 20t67.5 27t53 29l52 -121q-25 -26 -69.5 -54.5t-102 -52.5t-124 -40t-135.5 -16q-141 0 -242.5 44 t-167 122.5t-96.5 187.5t-31 238zM745 679q0 5 0.5 14t1 19t0.5 18.5v13.5q0 51 -7 103t-25.5 93t-51 67t-83.5 26q-38 0 -71.5 -14.5t-59 -53.5t-42 -108t-20.5 -178h358zM591 1332q-81 0 -148 27t-115 74t-74.5 109.5t-26.5 133.5q0 21 0.5 47t2.5 40h146q0 -8 1 -19 t3 -23q4 -28 16.5 -59t37 -56.5t63.5 -42t96 -16.5t94.5 16.5t61.5 42t35.5 56t15.5 58.5q2 13 3 24t1 19h141q1 -7 1.5 -17.5t1 -22.5l1 -24t0.5 -22q0 -71 -27 -134t-75 -110t-113.5 -74t-142.5 -27z" />
<glyph unicode="&#x116;" horiz-adv-x="1379" d="M676 1647q-35 0 -62.5 13t-46 35t-28 51.5t-9.5 62.5q0 39 10.5 73.5t32.5 60.5t54 41t76 15h1q40 0 70 -13.5t50 -36t29.5 -51.5t9.5 -61q0 -40 -11 -74.5t-33.5 -60t-58 -40.5t-83.5 -15h-1v0zM85 137l164 27v1193l-162 31v134h1101l23 -347h-171l-73 194l-398 20v-542 l260 4l30 168h173v-491h-173l-30 168l-260 5v-548l479 23l123 264l171 -39l-58 -401h-1199v137z" />
<glyph unicode="&#x117;" horiz-adv-x="1123" d="M70 569q0 139 39.5 250t111.5 188.5t173 118.5t224 41q415 0 433 -405q2 -69 -0.5 -124.5t-10.5 -93.5h-652q5 -99 29 -169t63 -114t92.5 -64t117.5 -20q50 0 94 8t81.5 20t67.5 27t53 29l52 -121q-25 -26 -69.5 -54.5t-102 -52.5t-124 -40t-135.5 -16q-141 0 -242.5 44 t-167 122.5t-96.5 187.5t-31 238zM745 679q0 5 0.5 14t1 19t0.5 18.5v13.5q0 51 -7 103t-25.5 93t-51 67t-83.5 26q-38 0 -71.5 -14.5t-59 -53.5t-42 -108t-20.5 -178h358zM574 1334q-35 0 -62.5 13t-46 34.5t-28 51t-9.5 62.5q0 39 10.5 73.5t32.5 60.5t54 41t76 15h1 q40 0 70 -13.5t50 -36t29.5 -51.5t9.5 -61q0 -40 -11 -74.5t-33.5 -60t-58 -40t-83.5 -14.5h-1v0z" />
<glyph unicode="&#x11a;" horiz-adv-x="1379" d="M322 1927l109 87l266 -191l279 191l105 -85l-284 -301h-201zM85 137l164 27v1193l-162 31v134h1101l23 -347h-171l-73 194l-398 20v-542l260 4l30 168h173v-491h-173l-30 168l-260 5v-548l479 23l123 264l171 -39l-58 -401h-1199v137z" />
<glyph unicode="&#x11b;" horiz-adv-x="1123" d="M209 1716l105 85l291 -244l294 245l103 -85l-300 -400h-195zM70 569q0 139 39.5 250t111.5 188.5t173 118.5t224 41q415 0 433 -405q2 -69 -0.5 -124.5t-10.5 -93.5h-652q5 -99 29 -169t63 -114t92.5 -64t117.5 -20q50 0 94 8t81.5 20t67.5 27t53 29l52 -121 q-25 -26 -69.5 -54.5t-102 -52.5t-124 -40t-135.5 -16q-141 0 -242.5 44t-167 122.5t-96.5 187.5t-31 238zM745 679q0 5 0.5 14t1 19t0.5 18.5v13.5q0 51 -7 103t-25.5 93t-51 67t-83.5 26q-38 0 -71.5 -14.5t-59 -53.5t-42 -108t-20.5 -178h358z" />
<glyph unicode="&#x128;" horiz-adv-x="845" d="M88 137l176 28v1192l-176 31v134h668v-134l-175 -31v-1192l175 -30v-135h-668v137zM-24 1794q13 31 39.5 69t65 70t89.5 54t113 22q43 0 78 -12.5t65 -31t56 -40.5t51 -40.5t50.5 -31t54.5 -12.5q34 0 58 11t41 27.5t29 35t23 32.5l105 -88q-19 -39 -45 -78t-61 -69.5 t-80 -49.5t-101 -19q-42 0 -77.5 12.5t-66 31.5t-58 40.5t-54.5 40.5t-55 31.5t-59 12.5q-32 0 -56.5 -12t-43.5 -29t-33 -35t-24 -30z" />
<glyph unicode="&#x129;" horiz-adv-x="747" d="M87 134l146 19v770l-135 43v150l367 49h5l73 -43v-968l145 -20v-134h-601v134zM-79 1474q13 31 39.5 69t65 70t89.5 54t113 22q43 0 78 -12.5t65 -31t56 -40.5t51 -40.5t50.5 -31t54.5 -12.5q34 0 58 11t41.5 27.5t29.5 35t22 32.5l105 -88q-19 -39 -45 -78t-61 -69.5 t-80 -49.5t-101 -19q-42 0 -77.5 12.5t-66 31.5t-58 41t-54.5 41t-55 31.5t-59 12.5q-32 0 -56.5 -12t-43.5 -29.5t-33 -35.5t-24 -30z" />
<glyph unicode="&#x12a;" horiz-adv-x="845" d="M88 137l176 28v1192l-176 31v134h668v-134l-175 -31v-1192l175 -30v-135h-668v137zM125 1916h623v-194h-623v194z" />
<glyph unicode="&#x12b;" horiz-adv-x="747" d="M87 134l146 19v770l-135 43v150l367 49h5l73 -43v-968l145 -20v-134h-601v134zM90 1614h578v-193h-578v193z" />
<glyph unicode="&#x12c;" horiz-adv-x="845" d="M88 137l176 28v1192l-176 31v134h668v-134l-175 -31v-1192l175 -30v-135h-668v137zM438 1621q-93 0 -162.5 28t-116 75t-69.5 108.5t-23 127.5q0 22 3 45h151q0 -4 0.5 -9.5t1.5 -13.5q4 -21 15.5 -48.5t36 -52t64.5 -42t101 -17.5t100 17.5t62 42.5t33 52.5t13 47.5 q1 8 1 13.5v9.5h153q1 -11 1.5 -21.5t0.5 -21.5q0 -66 -23.5 -128t-70 -109t-115 -75.5t-157.5 -28.5z" />
<glyph unicode="&#x12d;" horiz-adv-x="747" d="M87 134l146 19v770l-135 43v150l367 49h5l73 -43v-968l145 -20v-134h-601v134zM381 1332q-81 0 -148 27t-115 74t-74.5 109.5t-26.5 133.5q0 21 0.5 47t2.5 40h146q0 -8 1 -19t3 -23q4 -28 16.5 -59t37 -56.5t63.5 -42t96 -16.5t94.5 16.5t61.5 42t35.5 56t15.5 58.5 q2 13 3 24t1 19h141q1 -7 1.5 -17.5t1 -22.5l1 -24t0.5 -22q0 -71 -27 -134t-75 -110t-113.5 -74t-142.5 -27z" />
<glyph unicode="&#x131;" horiz-adv-x="735" d="M82 134l146 19v770l-135 43v150l367 49h5l73 -43v-968l145 -20v-134h-601v134z" />
<glyph unicode="&#x132;" horiz-adv-x="1645" d="M88 137l176 28v1192l-176 31v134h668v-134l-175 -31v-1192l175 -30v-135h-668v137zM1068 2q10 33 17 69.5t11.5 85.5t6.5 112.5t2 150.5v937l-176 31v134h668v-134l-174 -31v-788q0 -180 -5 -314.5t-24 -212.5q-21 -84 -65 -154t-109 -124.5t-149 -93.5t-184 -61l-72 116 q39 15 76.5 38.5t70.5 57.5t60.5 79t45.5 102z" />
<glyph unicode="&#x133;" horiz-adv-x="1435" d="M967 919l-136 42l1 155l365 49h5l71 -43v-1100q0 -128 -34 -224t-90 -160.5t-129.5 -98.5t-152.5 -37q-11 0 -29 0.5t-36.5 1.5t-34.5 2.5t-22 3.5l-15 138q7 -1 19 0.5t25.5 4.5t28.5 7.5t28 10.5q43 18 70 53.5t42 87.5t20 119t5 148zM82 134l146 19v770l-135 43v150 l367 49h5l73 -43v-968l145 -20v-134h-601v134zM348 1334q-35 0 -62.5 13t-46 34.5t-28 51t-9.5 62.5q0 39 10.5 73.5t32.5 60.5t54 41t76 15h1q40 0 70 -13.5t50 -36t29.5 -51.5t9.5 -61q0 -40 -11 -74.5t-33.5 -60t-58 -40t-83.5 -14.5h-1v0zM1083 1334q-35 0 -62.5 13 t-46 34.5t-28 51t-9.5 62.5q0 39 10.5 73.5t32.5 60.5t54 41t76 15h1q40 0 70 -13.5t50 -36t29.5 -51.5t9.5 -61q0 -40 -11 -74.5t-33.5 -60t-58 -40t-83.5 -14.5h-1v0z" />
<glyph unicode="&#x134;" horiz-adv-x="800" d="M224 2q10 33 17 69.5t11.5 85.5t6.5 112.5t2 150.5v937l-176 31v134h668v-134l-174 -31v-788q0 -180 -5 -314.5t-24 -212.5q-21 -84 -65 -154t-109 -124.5t-149 -93.5t-184 -61l-72 116q39 15 76.5 38.5t70.5 57.5t60.5 79t45.5 102zM23 1701l293 313h200l294 -312 l-108 -86l-286 197l-288 -197z" />
<glyph unicode="&#x141;" horiz-adv-x="1348" d="M85 137l164 27v436l-205 -83v145l205 85v610l-162 31v134h680v-134l-201 -31v-481l308 129v-154l-308 -127v-556l419 21l126 374l195 -26l-64 -537h-1157v137z" />
<glyph unicode="&#x142;" horiz-adv-x="717" d="M61 134l145 20v520l-194 -87v155l194 90v657l-149 25v117l391 49h3l63 -47v-671l195 90v-165l-195 -87v-646l151 -20v-134h-604v134z" />
<glyph unicode="&#x14c;" horiz-adv-x="1515" d="M453 1916h623v-194h-623v194zM746 -23q-174 -2 -302.5 52t-212.5 154t-125.5 242.5t-41.5 318.5q0 181 51 328t144.5 251.5t224.5 161t291 56.5q176 0 303.5 -53.5t210 -153.5t122 -241.5t39.5 -317.5q0 -181 -51 -328t-143.5 -251t-222 -161t-287.5 -58zM756 115 q79 0 143.5 41t110 123t70 205.5t24.5 289.5q0 165 -24 284.5t-68.5 196t-108.5 113t-145 36.5q-80 0 -144.5 -40.5t-110 -122.5t-70 -206t-24.5 -290q0 -167 24 -286.5t69 -196t109 -112t145 -35.5z" />
<glyph unicode="&#x14d;" horiz-adv-x="1232" d="M336 1614h578v-193h-578v193zM65 566q0 152 47 265t125 188t180.5 112t213.5 37q130 0 230 -40.5t168 -116.5t103 -185t35 -247q0 -156 -47 -270t-125 -187.5t-180 -109t-213 -35.5q-130 0 -230 40.5t-168.5 116.5t-103.5 185t-35 247zM619 115q55 0 95 24.5t66.5 77 t39 134.5t12.5 196q0 117 -11.5 207.5t-37 151.5t-67 92.5t-101.5 31.5q-55 0 -95.5 -24.5t-67.5 -77t-40 -134.5t-13 -196q0 -235 50.5 -359t169.5 -124z" />
<glyph unicode="&#x14e;" horiz-adv-x="1515" d="M765 1621q-93 0 -162.5 28t-116 75t-69.5 108.5t-23 127.5q0 22 3 45h151q0 -4 0.5 -9.5t1.5 -13.5q4 -21 15.5 -48.5t36 -52t64.5 -42t101 -17.5t100 17.5t62 42.5t33 52.5t13 47.5q1 8 1 13.5v9.5h153q1 -11 1.5 -21.5t0.5 -21.5q0 -66 -23.5 -128t-70 -109t-115 -75.5 t-157.5 -28.5zM746 -23q-174 -2 -302.5 52t-212.5 154t-125.5 242.5t-41.5 318.5q0 181 51 328t144.5 251.5t224.5 161t291 56.5q176 0 303.5 -53.5t210 -153.5t122 -241.5t39.5 -317.5q0 -181 -51 -328t-143.5 -251t-222 -161t-287.5 -58zM756 115q79 0 143.5 41t110 123 t70 205.5t24.5 289.5q0 165 -24 284.5t-68.5 196t-108.5 113t-145 36.5q-80 0 -144.5 -40.5t-110 -122.5t-70 -206t-24.5 -290q0 -167 24 -286.5t69 -196t109 -112t145 -35.5z" />
<glyph unicode="&#x14f;" horiz-adv-x="1232" d="M65 566q0 152 47 265t125 188t180.5 112t213.5 37q130 0 230 -40.5t168 -116.5t103 -185t35 -247q0 -156 -47 -270t-125 -187.5t-180 -109t-213 -35.5q-130 0 -230 40.5t-168.5 116.5t-103.5 185t-35 247zM619 115q55 0 95 24.5t66.5 77t39 134.5t12.5 196 q0 117 -11.5 207.5t-37 151.5t-67 92.5t-101.5 31.5q-55 0 -95.5 -24.5t-67.5 -77t-40 -134.5t-13 -196q0 -235 50.5 -359t169.5 -124zM626 1332q-81 0 -148 27t-115 74t-74.5 109.5t-26.5 133.5q0 21 0.5 47t2.5 40h146q0 -8 1 -19t3 -23q4 -28 16.5 -59t37 -56.5t63.5 -42 t96 -16.5t94.5 16.5t61.5 42t35.5 56t15.5 58.5q2 13 3 24t1 19h141q1 -7 1.5 -17.5t1 -22.5l1 -24t0.5 -22q0 -71 -27 -134t-75 -110t-113.5 -74t-142.5 -27z" />
<glyph unicode="&#x150;" horiz-adv-x="1515" d="M746 -23q-174 -2 -302.5 52t-212.5 154t-125.5 242.5t-41.5 318.5q0 181 51 328t144.5 251.5t224.5 161t291 56.5q176 0 303.5 -53.5t210 -153.5t122 -241.5t39.5 -317.5q0 -181 -51 -328t-143.5 -251t-222 -161t-287.5 -58zM756 115q79 0 143.5 41t110 123t70 205.5 t24.5 289.5q0 165 -24 284.5t-68.5 196t-108.5 113t-145 36.5q-80 0 -144.5 -40.5t-110 -122.5t-70 -206t-24.5 -290q0 -167 24 -286.5t69 -196t109 -112t145 -35.5zM894 1717l298 297l165 -137q-28 -37 -70 -76t-89.5 -75t-95 -66t-86.5 -49zM355 1717l288 297l174 -139 q-34 -41 -77.5 -80t-89.5 -73.5t-91 -63t-82 -47.5z" />
<glyph unicode="&#x151;" horiz-adv-x="1232" d="M758 1421l328 402l165 -147q-14 -25 -41.5 -56t-63.5 -65t-76.5 -67.5t-79.5 -63.5t-74 -53.5t-58 -35.5zM255 1421l321 402l173 -151q-17 -27 -46.5 -59t-66 -65.5t-76.5 -66t-78.5 -61t-71.5 -51t-55 -34.5zM65 566q0 152 47 265t125 188t180.5 112t213.5 37 q130 0 230 -40.5t168 -116.5t103 -185t35 -247q0 -156 -47 -270t-125 -187.5t-180 -109t-213 -35.5q-130 0 -230 40.5t-168.5 116.5t-103.5 185t-35 247zM619 115q55 0 95 24.5t66.5 77t39 134.5t12.5 196q0 117 -11.5 207.5t-37 151.5t-67 92.5t-101.5 31.5 q-55 0 -95.5 -24.5t-67.5 -77t-40 -134.5t-13 -196q0 -235 50.5 -359t169.5 -124z" />
<glyph unicode="&#x152;" horiz-adv-x="2145" d="M67 742q0 181 50 328t142 251.5t221 161.5t287 58q69 1 131 -10.5t118 -36.5v28h938l24 -347h-176l-69 194l-405 21v-543l267 4l30 169h173v-492h-173l-30 167l-267 6v-548l491 23l130 264l171 -39l-66 -401h-1038v59q-61 -38 -129 -55.5t-142 -19.5q-170 -2 -297.5 52 t-212 153.5t-126.5 240t-42 312.5zM762 118q96 0 157 47t97 134v924q-43 95 -111.5 139t-162.5 44q-77 0 -138.5 -41.5t-104 -124t-65 -207.5t-22.5 -291q0 -131 24.5 -244.5t69.5 -198t110 -133t146 -48.5z" />
<glyph unicode="&#x153;" horiz-adv-x="2009" d="M66 560q0 156 48.5 270.5t129.5 189.5t187 111.5t222 36.5q150 0 246 -51.5t150 -155.5q72 100 182.5 153t252.5 53q415 0 433 -405q2 -69 -0.5 -124.5t-10.5 -93.5h-652q5 -99 29 -169t63 -114t92.5 -64t117.5 -20q50 0 94 8t81.5 20t67.5 27t53 29l52 -121 q-25 -26 -69.5 -54.5t-102 -52.5t-124 -40t-135.5 -16q-163 0 -273 58t-173 159q-68 -112 -177 -164.5t-250 -52.5q-261 0 -397.5 150t-136.5 433zM1611 679q0 5 0.5 14t1 19t0.5 18.5v13.5q0 51 -7 103t-25.5 93t-51 67t-83.5 26q-38 0 -71.5 -14.5t-59 -53.5t-42 -108 t-20.5 -178h358zM618 115q110 0 163 108t53 335q0 127 -12.5 216.5t-39 146.5t-67.5 83t-98 26q-111 0 -165.5 -108.5t-54.5 -334.5q0 -128 13.5 -217.5t41 -146t69 -82.5t97.5 -26z" />
<glyph unicode="&#x168;" horiz-adv-x="1525" d="M374 1794q13 31 39.5 69t65 70t89.5 54t113 22q43 0 78 -12.5t65 -31t56 -40.5t51 -40.5t50.5 -31t54.5 -12.5q34 0 58 11t41 27.5t29 35t23 32.5l105 -88q-19 -39 -45 -78t-61 -69.5t-80 -49.5t-101 -19q-42 0 -77.5 12.5t-66 31.5t-58 40.5t-54.5 40.5t-55 31.5 t-59 12.5q-32 0 -56.5 -12t-43.5 -29t-33 -35t-24 -30zM167 1356l-140 32v134h641v-134l-171 -31v-766q0 -117 22 -205t62.5 -146t99 -87t130.5 -29q91 0 157 36.5t108 99.5t62 148.5t20 183.5v765l-169 31v134h510v-134l-137 -30v-758q0 -162 -43.5 -278.5t-120 -191.5 t-181.5 -110.5t-227 -35.5q-314 0 -468.5 156t-154.5 486v730z" />
<glyph unicode="&#x169;" horiz-adv-x="1340" d="M174 982l-100 37v117l360 29h1l46 -28v-732q0 -66 8.5 -111.5t28.5 -74.5t53 -42t82 -13q37 0 69.5 7.5t58 19t44.5 24t31 22.5v745l-138 39v118l388 26h2l55 -28v-1001h111v-124q-38 -9 -101 -22t-142 -13q-73 0 -107 32t-34 95v36q-26 -30 -63.5 -59t-82.5 -52.5 t-96 -37.5t-102 -14q-98 0 -168.5 23.5t-115.5 75.5t-66.5 134.5t-21.5 201.5v570zM211 1474q13 31 39.5 69t65 70t89.5 54t113 22q43 0 78 -12.5t65 -31t56 -40.5t51 -40.5t50.5 -31t54.5 -12.5q34 0 58 11t41.5 27.5t29.5 35t22 32.5l105 -88q-19 -39 -45 -78t-61 -69.5 t-80 -49.5t-101 -19q-42 0 -77.5 12.5t-66 31.5t-58 41t-54.5 41t-55 31.5t-59 12.5q-32 0 -56.5 -12t-43.5 -29.5t-33 -35.5t-24 -30z" />
<glyph unicode="&#x16a;" horiz-adv-x="1525" d="M524 1916h623v-194h-623v194zM167 1356l-140 32v134h641v-134l-171 -31v-766q0 -117 22 -205t62.5 -146t99 -87t130.5 -29q91 0 157 36.5t108 99.5t62 148.5t20 183.5v765l-169 31v134h510v-134l-137 -30v-758q0 -162 -43.5 -278.5t-120 -191.5t-181.5 -110.5t-227 -35.5 q-314 0 -468.5 156t-154.5 486v730z" />
<glyph unicode="&#x16b;" horiz-adv-x="1340" d="M174 982l-100 37v117l360 29h1l46 -28v-732q0 -66 8.5 -111.5t28.5 -74.5t53 -42t82 -13q37 0 69.5 7.5t58 19t44.5 24t31 22.5v745l-138 39v118l388 26h2l55 -28v-1001h111v-124q-38 -9 -101 -22t-142 -13q-73 0 -107 32t-34 95v36q-26 -30 -63.5 -59t-82.5 -52.5 t-96 -37.5t-102 -14q-98 0 -168.5 23.5t-115.5 75.5t-66.5 134.5t-21.5 201.5v570zM381 1614h578v-193h-578v193z" />
<glyph unicode="&#x16c;" horiz-adv-x="1525" d="M836 1621q-93 0 -162.5 28t-116 75t-69.5 108.5t-23 127.5q0 22 3 45h151q0 -4 0.5 -9.5t1.5 -13.5q4 -21 15.5 -48.5t36 -52t64.5 -42t101 -17.5t100 17.5t62 42.5t33 52.5t13 47.5q1 8 1 13.5v9.5h153q1 -11 1.5 -21.5t0.5 -21.5q0 -66 -23.5 -128t-70 -109t-115 -75.5 t-157.5 -28.5zM167 1356l-140 32v134h641v-134l-171 -31v-766q0 -117 22 -205t62.5 -146t99 -87t130.5 -29q91 0 157 36.5t108 99.5t62 148.5t20 183.5v765l-169 31v134h510v-134l-137 -30v-758q0 -162 -43.5 -278.5t-120 -191.5t-181.5 -110.5t-227 -35.5 q-314 0 -468.5 156t-154.5 486v730z" />
<glyph unicode="&#x16d;" horiz-adv-x="1340" d="M174 982l-100 37v117l360 29h1l46 -28v-732q0 -66 8.5 -111.5t28.5 -74.5t53 -42t82 -13q37 0 69.5 7.5t58 19t44.5 24t31 22.5v745l-138 39v118l388 26h2l55 -28v-1001h111v-124q-38 -9 -101 -22t-142 -13q-73 0 -107 32t-34 95v36q-26 -30 -63.5 -59t-82.5 -52.5 t-96 -37.5t-102 -14q-98 0 -168.5 23.5t-115.5 75.5t-66.5 134.5t-21.5 201.5v570zM671 1332q-81 0 -148 27t-115 74t-74.5 109.5t-26.5 133.5q0 21 0.5 47t2.5 40h146q0 -8 1 -19t3 -23q4 -28 16.5 -59t37 -56.5t63.5 -42t96 -16.5t94.5 16.5t61.5 42t35.5 56t15.5 58.5 q2 13 3 24t1 19h141q1 -7 1.5 -17.5t1 -22.5l1 -24t0.5 -22q0 -71 -27 -134t-75 -110t-113.5 -74t-142.5 -27z" />
<glyph unicode="&#x16e;" horiz-adv-x="1525" d="M167 1356l-140 32v134h641v-134l-171 -31v-766q0 -117 22 -205t62.5 -146t99 -87t130.5 -29q91 0 157 36.5t108 99.5t62 148.5t20 183.5v765l-169 31v134h510v-134l-137 -30v-758q0 -162 -43.5 -278.5t-120 -191.5t-181.5 -110.5t-227 -35.5q-314 0 -468.5 156 t-154.5 486v730zM830 1494q-93 0 -159.5 21t-108.5 57t-61 83.5t-18 101.5q1 62 32 110t81.5 80.5t115 49.5t133.5 17h1q86 0 150 -20t106 -55.5t62.5 -83.5t20.5 -103q-1 -62 -29 -110t-76 -81t-112.5 -50t-136.5 -17h-1zM836 1607q45 0 74.5 9.5t47.5 27.5t25 43.5t7 57.5 q0 31 -7.5 59t-25.5 49t-47.5 33.5t-72.5 12.5h-1q-45 0 -75 -10t-48.5 -29t-26 -45t-7.5 -58q0 -28 8 -55t26.5 -48t48.5 -34t73 -13h1z" />
<glyph unicode="&#x16f;" horiz-adv-x="1340" d="M664 1295q-93 0 -159 23.5t-108 64t-61 95t-18 116.5q1 71 32 125t81 90.5t115 55t134 18.5h1q86 0 149.5 -22.5t105.5 -61.5t62.5 -93t20.5 -117q-1 -71 -29 -125.5t-76 -92t-112.5 -57t-136.5 -19.5h-1zM670 1431q45 0 75 10t48 29t25 47.5t7 64.5q0 33 -7.5 62.5 t-25.5 52t-47.5 35.5t-73.5 13h-1q-45 0 -75 -11t-48 -30.5t-26 -47.5t-8 -62q0 -32 8.5 -61t27 -52t48 -36.5t72.5 -13.5h1zM174 982l-100 37v117l360 29h1l46 -28v-732q0 -66 8.5 -111.5t28.5 -74.5t53 -42t82 -13q37 0 69.5 7.5t58 19t44.5 24t31 22.5v745l-138 39v118 l388 26h2l55 -28v-1001h111v-124q-38 -9 -101 -22t-142 -13q-73 0 -107 32t-34 95v36q-26 -30 -63.5 -59t-82.5 -52.5t-96 -37.5t-102 -14q-98 0 -168.5 23.5t-115.5 75.5t-66.5 134.5t-21.5 201.5v570z" />
<glyph unicode="&#x170;" horiz-adv-x="1525" d="M167 1356l-140 32v134h641v-134l-171 -31v-766q0 -117 22 -205t62.5 -146t99 -87t130.5 -29q91 0 157 36.5t108 99.5t62 148.5t20 183.5v765l-169 31v134h510v-134l-137 -30v-758q0 -162 -43.5 -278.5t-120 -191.5t-181.5 -110.5t-227 -35.5q-314 0 -468.5 156 t-154.5 486v730zM965 1717l298 297l165 -137q-28 -37 -70 -76t-89.5 -75t-95 -66t-86.5 -49zM426 1717l288 297l174 -139q-34 -41 -77.5 -80t-89.5 -73.5t-91 -63t-82 -47.5z" />
<glyph unicode="&#x171;" horiz-adv-x="1340" d="M174 982l-100 37v117l360 29h1l46 -28v-732q0 -66 8.5 -111.5t28.5 -74.5t53 -42t82 -13q37 0 69.5 7.5t58 19t44.5 24t31 22.5v745l-138 39v118l388 26h2l55 -28v-1001h111v-124q-38 -9 -101 -22t-142 -13q-73 0 -107 32t-34 95v36q-26 -30 -63.5 -59t-82.5 -52.5 t-96 -37.5t-102 -14q-98 0 -168.5 23.5t-115.5 75.5t-66.5 134.5t-21.5 201.5v570zM803 1421l328 402l165 -147q-14 -25 -41.5 -56t-63.5 -65t-76.5 -67.5t-79.5 -63.5t-74 -53.5t-58 -35.5zM300 1421l321 402l173 -151q-17 -27 -46.5 -59t-66 -65.5t-76.5 -66t-78.5 -61 t-71.5 -51t-55 -34.5z" />
<glyph unicode="&#x18f;" horiz-adv-x="1373" d="M59 574q0 33 1 68.5t3.5 68t5.5 60.5t7 47l927 -1q-5 136 -36 244t-81.5 183.5t-116.5 115.5t-141 40q-62 0 -106 -11.5t-75 -30.5t-52.5 -44.5t-37.5 -52.5l-41 -136l-201 8l5 326q43 2 93.5 14.5t115 27t147 26t189.5 11.5q145 0 265 -51t206 -149t133.5 -240 t47.5 -324q0 -188 -55.5 -336t-150.5 -250.5t-221 -156.5t-266 -54q-115 0 -217 35.5t-178.5 109t-121.5 186t-48 266.5zM370 554q0 -68 16 -141t52 -134.5t94 -101t142 -39.5q73 0 132.5 29.5t103 92.5t68.5 162t28 238l-633 1q-2 -28 -2.5 -52.5t-0.5 -54.5z" />
<glyph unicode="&#x192;" horiz-adv-x="1068" d="M380 966h-207l10 110l213 59l11 83q9 112 54.5 199t111.5 146.5t145.5 90.5t156.5 31t120 -8t56 -13l-22 -225q-23 13 -61 24.5t-100 11.5q-37 0 -69.5 -9.5t-57.5 -31.5t-41.5 -59t-20.5 -91l-17 -149h298l-14 -169h-300l-114 -1322h-266z" />
<glyph unicode="&#x1c7;" horiz-adv-x="2146" d="M85 137l164 27v1193l-162 31v134h680v-134l-201 -31v-1189l419 21l126 374l195 -26l-64 -537h-1157v137zM1570 2q10 33 17 69.5t11.5 85.5t6.5 112.5t2 150.5v937l-176 31v134h668v-134l-174 -31v-788q0 -180 -5 -314.5t-24 -212.5q-21 -84 -65 -154t-109 -124.5 t-149 -93.5t-184 -61l-72 116q39 15 76.5 38.5t70.5 57.5t60.5 79t45.5 102z" />
<glyph unicode="&#x1c8;" horiz-adv-x="2048" d="M85 137l164 27v1193l-162 31v134h680v-134l-201 -31v-1189l419 21l126 374l195 -26l-64 -537h-1157v137zM1580 919l-136 42l1 155l365 49h5l71 -43v-1100q0 -128 -34 -224t-90 -160.5t-129.5 -98.5t-152.5 -37q-11 0 -29 0.5t-36.5 1.5t-34.5 2.5t-22 3.5l-15 138 q7 -1 19 0.5t25.5 4.5t28.5 7.5t28 10.5q43 18 70 53.5t42 87.5t20 119t5 148zM1696 1334q-35 0 -62.5 13t-46 34.5t-28 51t-9.5 62.5q0 39 10.5 73.5t32.5 60.5t54 41t76 15h1q40 0 70 -13.5t50 -36t29.5 -51.5t9.5 -61q0 -40 -11 -74.5t-33.5 -60t-58 -40t-83.5 -14.5h-1 v0z" />
<glyph unicode="&#x1c9;" horiz-adv-x="1408" d="M57 134l145 20v1335l-149 25v117l391 49h3l63 -47v-1479l151 -20v-134h-604v134zM940 919l-136 42l1 155l365 49h5l71 -43v-1100q0 -128 -34 -224t-90 -160.5t-129.5 -98.5t-152.5 -37q-11 0 -29 0.5t-36.5 1.5t-34.5 2.5t-22 3.5l-15 138q7 -1 19 0.5t25.5 4.5t28.5 7.5 t28 10.5q43 18 70 53.5t42 87.5t20 119t5 148zM1056 1334q-35 0 -62.5 13t-46 34.5t-28 51t-9.5 62.5q0 39 10.5 73.5t32.5 60.5t54 41t76 15h1q40 0 70 -13.5t50 -36t29.5 -51.5t9.5 -61q0 -40 -11 -74.5t-33.5 -60t-58 -40t-83.5 -14.5h-1v0z" />
<glyph unicode="&#x1ca;" horiz-adv-x="2447" d="M55 137l185 27v1193l-185 31v134h477l631 -889l106 -212v936l-195 31v134h557v-134l-177 -31v-1357h-228l-668 956l-133 254v-1045l205 -28v-137h-575v137zM1871 2q10 33 17 69.5t11.5 85.5t6.5 112.5t2 150.5v937l-176 31v134h668v-134l-174 -31v-788q0 -180 -5 -314.5 t-24 -212.5q-21 -84 -65 -154t-109 -124.5t-149 -93.5t-184 -61l-72 116q39 15 76.5 38.5t70.5 57.5t60.5 79t45.5 102z" />
<glyph unicode="&#x1cb;" horiz-adv-x="2349" d="M55 137l185 27v1193l-185 31v134h477l631 -889l106 -212v936l-195 31v134h557v-134l-177 -31v-1357h-228l-668 956l-133 254v-1045l205 -28v-137h-575v137zM1881 919l-136 42l1 155l365 49h5l71 -43v-1100q0 -128 -34 -224t-90 -160.5t-129.5 -98.5t-152.5 -37 q-11 0 -29 0.5t-36.5 1.5t-34.5 2.5t-22 3.5l-15 138q7 -1 19 0.5t25.5 4.5t28.5 7.5t28 10.5q43 18 70 53.5t42 87.5t20 119t5 148zM1997 1334q-35 0 -62.5 13t-46 34.5t-28 51t-9.5 62.5q0 39 10.5 73.5t32.5 60.5t54 41t76 15h1q40 0 70 -13.5t50 -36t29.5 -51.5t9.5 -61 q0 -40 -11 -74.5t-33.5 -60t-58 -40t-83.5 -14.5h-1v0z" />
<glyph unicode="&#x1cc;" horiz-adv-x="2117" d="M95 134l129 20v769l-136 42v151l358 49h5l53 -43v-119q33 30 78 59t97.5 51t110.5 35.5t117 13.5q96 0 160.5 -25.5t102.5 -80t54 -141t16 -208.5v-554l142 -19v-134h-563v134l109 19v558q0 69 -7 119.5t-25.5 82.5t-51 47.5t-83.5 15.5q-34 0 -67 -7.5t-62.5 -19.5 t-54 -26.5t-42.5 -28.5v-740l134 -20v-134h-574v134zM1649 919l-136 42l1 155l365 49h5l71 -43v-1100q0 -128 -34 -224t-90 -160.5t-129.5 -98.5t-152.5 -37q-11 0 -29 0.5t-36.5 1.5t-34.5 2.5t-22 3.5l-15 138q7 -1 19 0.5t25.5 4.5t28.5 7.5t28 10.5q43 18 70 53.5 t42 87.5t20 119t5 148zM1765 1334q-35 0 -62.5 13t-46 34.5t-28 51t-9.5 62.5q0 39 10.5 73.5t32.5 60.5t54 41t76 15h1q40 0 70 -13.5t50 -36t29.5 -51.5t9.5 -61q0 -40 -11 -74.5t-33.5 -60t-58 -40t-83.5 -14.5h-1v0z" />
<glyph unicode="&#x1f1;" horiz-adv-x="2977" d="M85 137l164 27v1194l-157 30v134h312q56 0 101 2t89.5 4.5t93 4.5t110.5 2q192 0 330 -48.5t227 -140.5t131 -225.5t42 -304.5q0 -188 -55.5 -343t-156 -265t-242 -169t-312.5 -55q-38 1 -83 3.5t-92.5 5.5t-93.5 5t-86 2h-322v137zM570 145q40 -14 87 -17t102 -1 q96 1 175 41t136 119t88.5 198t31.5 278q0 152 -27.5 270.5t-84.5 199.5t-145.5 123.5t-210.5 42.5q-57 0 -95 -4.5t-57 -7.5v-1242zM1643 119l763 1143l115 133l-503 -26l-115 -276l-173 25l49 410h1049l54 -120l-745 -1144l-126 -126l595 42l121 306l170 -34l-54 -452 h-1131z" />
<glyph unicode="&#x1f2;" horiz-adv-x="2754" d="M85 137l164 27v1194l-157 30v134h312q56 0 101 2t89.5 4.5t93 4.5t110.5 2q192 0 330 -48.5t227 -140.5t131 -225.5t42 -304.5q0 -188 -55.5 -343t-156 -265t-242 -169t-312.5 -55q-38 1 -83 3.5t-92.5 5.5t-93.5 5t-86 2h-322v137zM570 145q40 -14 87 -17t102 -1 q96 1 175 41t136 119t88.5 198t31.5 278q0 152 -27.5 270.5t-84.5 199.5t-145.5 123.5t-210.5 42.5q-57 0 -95 -4.5t-57 -7.5v-1242zM1645 101l543 765l128 140l-362 -15l-43 -190h-173v345h898l47 -96l-528 -772l-126 -140l420 24l80 216l165 -16l-30 -362h-969z" />
<glyph unicode="&#x1f3;" horiz-adv-x="2463" d="M513 -22q-93 0 -173.5 33.5t-140.5 103.5t-94 176t-34 252q0 137 40.5 251.5t117 197.5t186.5 129.5t249 46.5q42 0 81.5 -4t75.5 -12v340l-183 31v114l423 43h5l62 -47v-1494h111v-126q-50 -11 -114 -23.5t-140 -12.5q-62 0 -95.5 27t-33.5 98v39q-25 -32 -59.5 -61.5 t-78 -52t-95 -36t-110.5 -13.5zM640 159q61 0 108.5 23t72.5 52v754q-17 18 -56 32t-93 14t-102 -23t-84 -76.5t-57.5 -140.5t-23.5 -215q-2 -112 14 -191.5t46.5 -130.5t75 -74.5t99.5 -23.5zM1354 101l543 765l128 140l-362 -15l-43 -190h-173v345h898l47 -96l-528 -772 l-126 -140l420 24l80 216l165 -16l-30 -362h-969z" />
<glyph unicode="&#x1fc;" horiz-adv-x="1934" d="M836 1692l317 322h1l197 -141q-17 -28 -47 -56.5t-66.5 -56.5t-77 -53.5t-78.5 -46t-71.5 -35.5t-55.5 -21h-1zM-131 135l146 29l490 1193l-263 31v134h1503l27 -350h-175l-73 201l-401 16v-542l257 4l30 169h167v-492h-167l-30 167l-257 6v-552l485 27l130 266l171 -41 l-68 -401h-1195v126l165 25v268h-457l-90 -256l148 -28v-135h-543v135zM811 576v798h-121l-97 -274l-184 -524h402z" />
<glyph unicode="&#x1fd;" horiz-adv-x="1757" d="M737 1407l351 429h1l188 -173q-16 -29 -46.5 -63.5t-69 -70.5t-82 -71.5t-85.5 -65t-79.5 -51.5t-64.5 -32h-2zM62 299q0 72 25.5 128.5t70.5 99t106.5 73t134.5 50t153.5 29.5t164.5 12v60q0 60 -11 99.5t-35 62t-63 31.5t-96 9q-50 0 -99.5 -8.5t-95 -21t-86.5 -28.5 t-74 -31l-59 145q28 22 81 49.5t121 51t146 39.5t155 16q114 0 193.5 -24.5t128.5 -81.5q68 53 154 80.5t188 27.5q413 0 433 -405q2 -69 -0.5 -124.5t-10.5 -93.5h-652q5 -99 29 -169t63 -114t92.5 -64t117.5 -20q50 0 94 8t81.5 20t67.5 27t53 29l52 -121 q-25 -26 -69.5 -54.5t-102 -52.5t-124 -40t-135.5 -16q-159 0 -267.5 55t-172.5 152q-34 -44 -77 -82t-95 -66t-111.5 -43.5t-126.5 -15.5t-128.5 19t-109 59t-76 100.5t-28.5 143.5zM1392 679q0 5 0.5 14t1 19t0.5 18.5v13.5q0 51 -7.5 103t-26 93t-50.5 67t-83 26 q-38 0 -72 -14.5t-59.5 -53.5t-42 -108t-19.5 -178h358zM379 352q0 -89 40.5 -135.5t118.5 -46.5q31 0 62.5 9t60.5 24.5t55.5 36t47.5 43.5q-24 63 -35.5 134.5t-11.5 151.5v1q-95 0 -159.5 -18t-104 -48t-57 -69.5t-17.5 -82.5z" />
<glyph unicode="&#x237;" horiz-adv-x="700" d="M232 919l-136 42l1 155l365 49h5l71 -43v-1100q0 -128 -34 -224t-90 -160.5t-129.5 -98.5t-152.5 -37q-11 0 -29 0.5t-36.5 1.5t-34.5 2.5t-22 3.5l-15 138q7 -1 19 0.5t25.5 4.5t28.5 7.5t28 10.5q43 18 70 53.5t42 87.5t20 119t5 148z" />
<glyph unicode="&#x259;" horiz-adv-x="1119" d="M78 382q-3 69 0.5 124.5t10.5 93.5h644q-5 99 -28.5 169t-62.5 113.5t-91.5 63.5t-115.5 20q-50 0 -93.5 -7.5t-80.5 -19.5t-66.5 -27t-51.5 -29l-52 120q25 26 69 55t100.5 53t122.5 40t135 16q139 0 239.5 -44t165.5 -122.5t95.5 -187.5t30.5 -238q0 -140 -39 -250.5 t-110 -188t-171 -118.5t-222 -41q-411 0 -429 405zM381 402q0 -51 6 -103t24 -94t50 -68.5t84 -26.5q37 0 69.5 14.5t58 53.5t41.5 108t19 179h-350q0 -5 -0.5 -13.5t-1 -18t-0.5 -18.5v-13z" />
<glyph unicode="&#x2c6;" horiz-adv-x="1038" d="M120 1391l302 400h194l300 -399l-108 -85l-289 244l-298 -245z" />
<glyph unicode="&#x2c7;" horiz-adv-x="1021" d="M115 1716l105 85l291 -244l294 245l103 -85l-300 -400h-195z" />
<glyph unicode="&#x2d8;" horiz-adv-x="1022" d="M511 1332q-81 0 -148 27t-115 74t-74.5 109.5t-26.5 133.5q0 21 0.5 47t2.5 40h146q0 -8 1 -19t3 -23q4 -28 16.5 -59t37 -56.5t63.5 -42t96 -16.5t94.5 16.5t61.5 42t35.5 56t15.5 58.5q2 13 3 24t1 19h141q1 -7 1.5 -17.5t1 -22.5l1 -24t0.5 -22q0 -71 -27 -134 t-75 -110t-113.5 -74t-142.5 -27z" />
<glyph unicode="&#x2d9;" horiz-adv-x="575" d="M269 1334q-35 0 -62.5 13t-46 34.5t-28 51t-9.5 62.5q0 39 10.5 73.5t32.5 60.5t54 41t76 15h1q40 0 70 -13.5t50 -36t29.5 -51.5t9.5 -61q0 -40 -11 -74.5t-33.5 -60t-58 -40t-83.5 -14.5h-1v0z" />
<glyph unicode="&#x2da;" horiz-adv-x="1020" d="M505 1295q-93 0 -159 23.5t-108 64t-61 95t-18 116.5q1 71 32 125t81 90.5t115 55t134 18.5h1q86 0 149.5 -22.5t105.5 -61.5t62.5 -93t20.5 -117q-1 -71 -29 -125.5t-76 -92t-112.5 -57t-136.5 -19.5h-1zM511 1431q45 0 75 10t48 29t25 47.5t7 64.5q0 33 -7.5 62.5 t-25.5 52t-47.5 35.5t-73.5 13h-1q-45 0 -75 -11t-48 -30.5t-26 -47.5t-8 -62q0 -32 8.5 -61t27 -52t48 -36.5t72.5 -13.5h1z" />
<glyph unicode="&#x2dc;" horiz-adv-x="1022" d="M51 1474q13 31 39.5 69t65 70t89.5 54t113 22q43 0 78 -12.5t65 -31t56 -40.5t51 -40.5t50.5 -31t54.5 -12.5q34 0 58 11t41.5 27.5t29.5 35t22 32.5l105 -88q-19 -39 -45 -78t-61 -69.5t-80 -49.5t-101 -19q-42 0 -77.5 12.5t-66 31.5t-58 41t-54.5 41t-55 31.5 t-59 12.5q-32 0 -56.5 -12t-43.5 -29.5t-33 -35.5t-24 -30z" />
<glyph unicode="&#x2dd;" horiz-adv-x="1022" d="M643 1421l328 402l165 -147q-14 -25 -41.5 -56t-63.5 -65t-76.5 -67.5t-79.5 -63.5t-74 -53.5t-58 -35.5zM140 1421l321 402l173 -151q-17 -27 -46.5 -59t-66 -65.5t-76.5 -66t-78.5 -61t-71.5 -51t-55 -34.5z" />
<glyph unicode="&#x3c0;" horiz-adv-x="1592" d="M164 127q13 3 50 18.5t80 44.5q44 30 71.5 64t45 72.5t28.5 82t23 93.5l73 377h-120q-37 0 -62 -11.5t-42.5 -30t-28 -42t-19.5 -46.5l-114 13q-6 83 16.5 152t64.5 118t100 76t123 27h735q33 0 59.5 1.5t46 9t32 22.5t18.5 42h124q-3 -55 -6.5 -101t-13 -83t-27 -65 t-48 -46.5t-77.5 -27.5t-114 -9h-44l-19 -560q-3 -78 17 -111t49 -33q42 0 80 22.5t74 86.5l91 -92q-18 -36 -47.5 -73t-69.5 -66.5t-90 -48.5t-107 -19q-122 0 -178 68.5t-38 216.5l68 609h-266l-45 -448q-9 -86 -22 -144t-31 -100t-43.5 -73.5t-60.5 -62.5 q-32 -29 -73 -41.5t-97 -25.5l-166 144v0z" />
<glyph unicode="&#x1e0b;" horiz-adv-x="1304" d="M514 -22q-93 0 -173.5 33.5t-140.5 103.5t-94 176t-34 252q0 137 40.5 251.5t117 197.5t186.5 129.5t249 46.5q42 0 81.5 -4t75.5 -12v340l-183 31v114l423 43h5l62 -47v-1494h111v-126q-50 -11 -114 -23.5t-140 -12.5q-62 0 -95.5 27t-33.5 98v39q-25 -32 -59.5 -61.5 t-78 -52t-95 -36t-110.5 -13.5zM641 159q61 0 108.5 23t72.5 52v754q-17 18 -56 32t-93 14t-102 -23t-84 -76.5t-57.5 -140.5t-23.5 -215q-2 -112 14 -191.5t46.5 -130.5t75 -74.5t99.5 -23.5zM287 1334q-35 0 -62.5 13t-46 34.5t-28 51t-9.5 62.5q0 39 10.5 73.5t32.5 60.5 t54 41t76 15h1q40 0 70 -13.5t50 -36t29.5 -51.5t9.5 -61q0 -40 -11 -74.5t-33.5 -60t-58 -40t-83.5 -14.5h-1v0z" />
<glyph unicode="&#x1e1e;" horiz-adv-x="1289" d="M645 1647q-35 0 -62.5 13t-46 35t-28 51.5t-9.5 62.5q0 39 10.5 73.5t32.5 60.5t54 41t76 15h1q40 0 70 -13.5t50 -36t29.5 -51.5t9.5 -61q0 -40 -11 -74.5t-33.5 -60t-58 -40.5t-83.5 -15h-1v0zM89 137l160 27v1193l-166 31v134h1137l20 -377h-198l-77 224l-396 16v-551 l264 3l41 162h167v-501h-167l-41 173l-264 5v-512l299 -27v-137h-779v137z" />
<glyph unicode="&#x1e9e;" horiz-adv-x="1535" d="M21 130l115 27v668q0 159 51 290.5t145.5 225t227 145.5t296.5 52q87 0 157.5 -10t128 -24t103.5 -29.5t85 -26.5l-1 -142l-259 -353q78 -20 157 -57t142 -95t102.5 -140t39.5 -193q0 -115 -37 -206t-103.5 -154.5t-158.5 -97t-203 -33.5q-76 0 -136.5 12.5t-107.5 28 t-80.5 29t-55.5 15.5l7 366h162l44 -242q20 -39 63.5 -57.5t99.5 -18.5q35 0 68.5 16t60 52t43 94t16.5 141q0 75 -35 140.5t-92 116.5t-129.5 85.5t-146.5 46.5v57l297 456q-35 37 -100 63t-157 26q-86 0 -155.5 -31t-118 -93t-74.5 -155t-26 -217v-915h-435v137z" />
<glyph unicode="&#x2002;" horiz-adv-x="0" />
<glyph unicode="&#x2009;" horiz-adv-x="0" />
<glyph unicode="&#x200b;" horiz-adv-x="0" />
<glyph unicode="&#x200c;" horiz-adv-x="0" />
<glyph unicode="&#x2013;" horiz-adv-x="1480" d="M230 718h1020v-210h-1020v210z" />
<glyph unicode="&#x2014;" horiz-adv-x="2508" d="M230 718h2048v-204h-2048v204z" />
<glyph unicode="&#x2018;" horiz-adv-x="776" d="M427 818q-48 0 -89 25.5t-71.5 71.5t-47.5 109t-17 138q0 112 30 207.5t73 169.5t90 123t80 69h2l80 -78v-37q-18 -15 -39.5 -41.5t-40 -66.5t-31.5 -93.5t-13 -122.5q0 -44 10 -74.5t25.5 -53.5t33 -41.5t33 -39.5t25.5 -47.5t10 -64.5q0 -73 -40 -113t-102 -40h-1v0z " />
<glyph unicode="&#x2019;" horiz-adv-x="776" d="M348.026 1789.05q47.9971 0 88.9941 -25.498q40.998 -25.499 71.4961 -71.4961t47.4971 -108.993t16.999 -137.991q0 -111.993 -29.999 -207.487q-29.998 -95.4941 -72.9951 -169.49q-42.9971 -73.9951 -89.9941 -122.992t-79.9951 -68.9961h-2l-79.9951 77.9951v36.998 q17.999 14.999 39.4971 41.4971q21.499 26.499 39.998 66.4961q18.499 39.998 31.498 93.4941q12.999 53.4971 12.999 122.493q0 43.9971 -9.99902 74.4951q-10 30.498 -25.499 53.4971q-15.499 22.998 -32.998 41.4971t-32.998 39.498q-15.499 20.998 -25.498 47.4971 q-9.99902 26.498 -9.99902 64.4961q0 72.9951 39.9971 112.993q39.998 39.9971 101.994 39.9971h1v0z" />
<glyph unicode="&#x201a;" horiz-adv-x="776" d="M348.026 402.05q47.9971 0 88.9941 -25.498q40.998 -25.499 71.4961 -71.4961t47.4971 -108.993t16.999 -137.991q0 -111.993 -29.999 -207.487q-29.998 -95.4941 -72.9951 -169.49q-42.9971 -73.9951 -89.9941 -122.992t-79.9951 -68.9961h-2l-79.9951 77.9951v36.998 q17.999 14.999 39.4971 41.4971q21.499 26.499 39.998 66.4961q18.499 39.998 31.498 93.4941q12.999 53.4971 12.999 122.493q0 43.9971 -9.99902 74.4951q-10 30.498 -25.499 53.4971q-15.499 22.998 -32.998 41.4971t-32.998 39.498q-15.499 20.998 -25.498 47.4971 q-9.99902 26.498 -9.99902 64.4961q0 72.9951 39.9971 112.993q39.998 39.9971 101.994 39.9971h1v0z" />
<glyph unicode="&#x201b;" horiz-adv-x="776" d="M427 1789.05q-48 0 -89 -25.498q-41 -25.499 -71.5 -71.4961t-47.5 -108.993t-17 -137.991q0 -111.993 30 -207.487t73 -169.49q43 -73.9951 90 -122.992t80 -68.9961h2l80 77.9951v36.998q-18 14.999 -39.5 41.4971q-21.5 26.499 -40 66.4961 q-18.5 39.998 -31.5 93.4941q-13 53.4971 -13 122.493q0 43.9971 10 74.4951t25.5 53.4971q15.5 22.998 33 41.4971t33 39.498q15.5 20.998 25.5 47.4971q10 26.498 10 64.4961q0 72.9951 -40 112.993q-40 39.9971 -102 39.9971h-1v0z" />
<glyph unicode="&#x201c;" horiz-adv-x="1331" d="M981 818q-48 0 -89 25.5t-71.5 71.5t-47.5 109t-17 138q0 112 30 207.5t73 169.5t90 123t80 69h2l80 -78v-37q-18 -15 -39.5 -41.5t-40 -66.5t-31.5 -93.5t-13 -122.5q0 -44 10 -74.5t25.5 -53.5t33 -41.5t33 -39.5t25.5 -47.5t10 -64.5q0 -73 -40 -113t-102 -40h-1v0z M427 818q-48 0 -89 25.5t-71.5 71.5t-47.5 109t-17 138q0 112 30 207.5t73 169.5t90 123t80 69h2l80 -78v-37q-18 -15 -39.5 -41.5t-40 -66.5t-31.5 -93.5t-13 -122.5q0 -44 10 -74.5t25.5 -53.5t33 -41.5t33 -39.5t25.5 -47.5t10 -64.5q0 -73 -40 -113t-102 -40h-1v0z" />
<glyph unicode="&#x201d;" horiz-adv-x="1330" d="M348.026 1789.05q47.9971 0 88.9941 -25.498q40.998 -25.499 71.4961 -71.4961t47.4971 -108.993t16.999 -137.991q0 -111.993 -29.999 -207.487q-29.998 -95.4941 -72.9951 -169.49q-42.9971 -73.9951 -89.9941 -122.992t-79.9951 -68.9961h-2l-79.9951 77.9951v36.998 q17.999 14.999 39.4971 41.4971q21.499 26.499 39.998 66.4961q18.499 39.998 31.498 93.4941q12.999 53.4971 12.999 122.493q0 43.9971 -9.99902 74.4951q-10 30.498 -25.499 53.4971q-15.499 22.998 -32.998 41.4971t-32.998 39.498q-15.499 20.998 -25.498 47.4971 q-9.99902 26.498 -9.99902 64.4961q0 72.9951 39.9971 112.993q39.998 39.9971 101.994 39.9971h1v0zM902.026 1789.05q47.9971 0 88.9941 -25.498q40.998 -25.499 71.4961 -71.4961t47.4971 -108.993t16.999 -137.991q0 -111.993 -29.999 -207.487 q-29.998 -95.4941 -72.9951 -169.49q-42.9971 -73.9951 -89.9941 -122.992t-79.9951 -68.9961h-2l-79.9951 77.9951v36.998q17.999 14.999 39.4971 41.4971q21.499 26.499 39.998 66.4961q18.499 39.998 31.498 93.4941q12.999 53.4971 12.999 122.493 q0 43.9971 -9.99902 74.4951q-10 30.498 -25.499 53.4971q-15.499 22.998 -32.998 41.4971t-32.998 39.498q-15.499 20.998 -25.498 47.4971q-9.99902 26.498 -9.99902 64.4961q0 72.9951 39.9971 112.993q39.998 39.9971 101.994 39.9971h1v0z" />
<glyph unicode="&#x201e;" horiz-adv-x="1330" d="M348.026 402.05q47.9971 0 88.9941 -25.498q40.998 -25.499 71.4961 -71.4961t47.4971 -108.993t16.999 -137.991q0 -111.993 -29.999 -207.487q-29.998 -95.4941 -72.9951 -169.49q-42.9971 -73.9951 -89.9941 -122.992t-79.9951 -68.9961h-2l-79.9951 77.9951v36.998 q17.999 14.999 39.4971 41.4971q21.499 26.499 39.998 66.4961q18.499 39.998 31.498 93.4941q12.999 53.4971 12.999 122.493q0 43.9971 -9.99902 74.4951q-10 30.498 -25.499 53.4971q-15.499 22.998 -32.998 41.4971t-32.998 39.498q-15.499 20.998 -25.498 47.4971 q-9.99902 26.498 -9.99902 64.4961q0 72.9951 39.9971 112.993q39.998 39.9971 101.994 39.9971h1v0zM902.026 402.05q47.9971 0 88.9941 -25.498q40.998 -25.499 71.4961 -71.4961t47.4971 -108.993t16.999 -137.991q0 -111.993 -29.999 -207.487 q-29.998 -95.4941 -72.9951 -169.49q-42.9971 -73.9951 -89.9941 -122.992t-79.9951 -68.9961h-2l-79.9951 77.9951v36.998q17.999 14.999 39.4971 41.4971q21.499 26.499 39.998 66.4961q18.499 39.998 31.498 93.4941q12.999 53.4971 12.999 122.493 q0 43.9971 -9.99902 74.4951q-10 30.498 -25.499 53.4971q-15.499 22.998 -32.998 41.4971t-32.998 39.498q-15.499 20.998 -25.498 47.4971q-9.99902 26.498 -9.99902 64.4961q0 72.9951 39.9971 112.993q39.998 39.9971 101.994 39.9971h1v0z" />
<glyph unicode="&#x2020;" horiz-adv-x="1090" d="M423 886l28 227l-289 -16l1 217l288 -15l-28 211v147h244v-147l-27 -211l287 15v-217l-287 16l27 -227l-40 -768h-163z" />
<glyph unicode="&#x2022;" horiz-adv-x="852" d="M417 468q-45 0 -83.5 18t-67 48.5t-44.5 71.5t-16 87q0 49 19 90.5t51.5 71t74.5 46t87 16.5t83 -16.5t66 -46t44 -70.5t16 -91q0 -48 -19.5 -89t-51.5 -71t-73.5 -47.5t-85.5 -17.5z" />
<glyph unicode="&#x2026;" horiz-adv-x="2152" d="M167 143q0 40 16 75t44 61t65 40.5t79 14.5q49 0 83 -13t55.5 -35t31 -51t9.5 -62q0 -43 -15.5 -78t-43 -60t-66 -38.5t-83.5 -13.5q-35 0 -67 11t-56 32t-38 50.5t-14 66.5zM884 143q0 40 16 75t44 61t65 40.5t79 14.5q49 0 83 -13t55.5 -35t31 -51t9.5 -62 q0 -43 -15.5 -78t-43 -60t-66 -38.5t-83.5 -13.5q-35 0 -67 11t-56 32t-38 50.5t-14 66.5zM1601 143q0 40 16 75t44 61t65 40.5t79 14.5q49 0 83 -13t55.5 -35t31 -51t9.5 -62q0 -43 -15.5 -78t-43 -60t-66 -38.5t-83.5 -13.5q-35 0 -67 11t-56 32t-38 50.5t-14 66.5z" />
<glyph unicode="&#x2030;" horiz-adv-x="3079" d="M2140 458q0 108 35.5 192t94.5 141t136 87t161 30q102 0 176 -34t122 -93.5t71 -139t23 -170.5q0 -108 -36 -191t-95.5 -139.5t-137 -85.5t-159.5 -29q-90 0 -162.5 34.5t-123.5 93.5t-78 137.5t-27 166.5zM2403 469q0 -53 5.5 -110t21 -103.5t43.5 -76.5t73 -30 q48 0 77.5 27.5t46 72t22 100.5t5.5 113t-5.5 115t-21.5 104t-44 75t-74 29q-47 0 -76.5 -28t-45.5 -73t-21.5 -101.5t-5.5 -113.5zM1272 1538h199l-656 -1538h-199zM473 643q-90 0 -162.5 34.5t-123.5 93.5t-78 137.5t-27 166.5q0 108 35 192t94.5 141t136.5 87t161 30 q102 0 176 -34t122 -93.5t71 -139t23 -170.5q0 -108 -36 -191t-96 -139.5t-137 -85.5t-159 -29zM488 777q48 0 77.5 26.5t46 69.5t22 97t5.5 109t-5.5 111t-21.5 100.5t-44 72.5t-74 28q-47 0 -76.5 -27t-45.5 -70.5t-21.5 -98t-5.5 -109.5q0 -52 5.5 -106.5t21 -99.5 t43.5 -74t73 -29zM1191 458q0 108 35 192t94.5 141t136.5 87t161 30q102 0 176 -34t122 -93.5t71 -139t23 -170.5q0 -108 -36 -191t-96 -139.5t-137.5 -85.5t-159.5 -29q-90 0 -162 34.5t-123 93.5t-78 137.5t-27 166.5zM1454 469q0 -51 5.5 -106t21 -100t43.5 -74t73 -29 q48 0 77.5 26.5t45.5 69.5t21.5 97t5.5 109t-5.5 111t-21 100.5t-43.5 72.5t-74 28q-48 0 -77 -27t-45 -70.5t-21.5 -98t-5.5 -109.5z" />
<glyph unicode="&#x2032;" horiz-adv-x="698" d="M302 1793h296l-188 -647h-196z" />
<glyph unicode="&#x2033;" horiz-adv-x="1190" d="M302 1793h296l-188 -647h-196zM794 1793h296l-188 -647h-196z" />
<glyph unicode="&#x2039;" horiz-adv-x="1189" d="M228 693l654 451l85 -133l-403 -399l406 -393l-88 -130l-654 439v165z" />
<glyph unicode="&#x203a;" horiz-adv-x="1189" d="M961.014 693l-653.96 451l-84.9951 -133l402.976 -399l-405.975 -393l87.9941 -130l653.96 439v165z" />
<glyph unicode="&#x2044;" horiz-adv-x="383" d="M-276 -172l712 1832l196 -16l-711 -1829z" />
<glyph unicode="&#x2070;" d="M514 687q-127 0 -212.5 45.5t-136.5 121t-72 172.5t-20 198q1 121 37 218t98 165.5t145.5 105.5t180.5 37q133 0 219 -42.5t136 -115.5t69 -169.5t18 -205.5q-1 -114 -34.5 -211t-94 -167.5t-145.5 -111t-188 -40.5zM521 797q58 0 95 25.5t58 77t28.5 129.5t7.5 182 q0 94 -8.5 172.5t-30 135t-57.5 88t-91 31.5q-56 0 -91.5 -25t-56 -76t-28.5 -127t-8 -178q0 -87 8.5 -166t29.5 -139t56 -95t88 -35z" />
<glyph unicode="&#x2074;" d="M40 968q8 16 29.5 54.5t51 91t65 116t73 130t74.5 133t69 125.5t57 106.5t38 76.5h74l169 -84l-381 -572l-85 -131l315 18l15 239l210 17v-243l178 10l1 -181h-179v-224h-226v224h-477z" />
<glyph unicode="&#x2075;" d="M211 797q23 -5 50.5 -6.5t50.5 -1.5q74 0 137 18.5t109.5 51.5t72.5 78.5t26 99.5q0 89 -53.5 131.5t-150.5 42.5q-32 0 -64 -4t-60 -10t-50.5 -12.5t-35.5 -11.5l-69 47l60 522h642l-21 -180h-466l-34 -250q19 7 47 14.5t59.5 13.5t64 9.5t61.5 3.5q95 0 159 -23 t102.5 -63.5t55 -95t16.5 -118.5q0 -84 -45.5 -156t-124 -124t-183.5 -81.5t-224 -29.5q-35 0 -72.5 3t-72.5 12z" />
<glyph unicode="&#x2076;" d="M523 684q-99 0 -175 34t-128 95t-79 143.5t-27 180.5q0 96 25 183.5t69 163.5t104 139.5t130.5 111t147.5 77t156 39.5l53 -90q-89 -25 -157.5 -69t-119 -99.5t-84 -119.5t-52.5 -129q37 32 98.5 57t147.5 25q76 0 135 -25t99.5 -70.5t61.5 -109.5t21 -142 q0 -79 -27 -150.5t-80.5 -126t-133.5 -86.5t-185 -32zM539 798q45 0 76.5 19t51.5 52t29 77.5t9 96.5q0 70 -14 117t-37.5 75.5t-53.5 40.5t-62 12q-42 0 -71 -6.5t-49.5 -17t-33.5 -23t-22 -24.5q-1 -10 -1.5 -19.5t-0.5 -19.5q-1 -83 7 -153t28.5 -120.5t55.5 -78.5 t88 -28z" />
<glyph unicode="&#x2077;" d="M326 690q127 237 238.5 455.5t202.5 417.5l-418 1l-54 -177l-149 19l39 336h749l50 -63l-411 -1054l-247 65v0z" />
<glyph unicode="&#x2078;" d="M535 684q-73 0 -148 16t-136.5 50.5t-100.5 88.5t-39 131q0 71 45.5 135t148.5 109q-32 21 -59.5 47t-47.5 58t-31.5 70.5t-11.5 86.5q0 69 34 121t88.5 86.5t123 51.5t137.5 17q90 0 158.5 -18t115 -50t70 -75.5t23.5 -93.5q0 -69 -39 -133.5t-127 -115.5q46 -21 88 -47 t73.5 -58.5t50.5 -74t19 -93.5q1 -72 -34 -129t-94.5 -97t-139 -61.5t-167.5 -21.5zM632 1310q45 32 67.5 74t22.5 81q0 41 -14.5 73t-40 54.5t-60 34.5t-75.5 12q-33 0 -62.5 -9t-52 -25.5t-36 -39.5t-13.5 -52q0 -38 22 -66.5t58.5 -52t84.5 -43.5t99 -41zM539 800 q33 0 64 9.5t55.5 26.5t39.5 41.5t15 53.5q0 45 -28 76.5t-73 57t-101 48.5t-112 50q-38 -29 -59 -69.5t-21 -88.5q0 -43 14 -80.5t42 -65t69 -43.5t95 -16z" />
<glyph unicode="&#x2079;" d="M269 694q84 24 149.5 65t114 93t81 112t51.5 122q-38 -36 -90.5 -55t-130.5 -19q-73 0 -134.5 26.5t-106.5 74t-70 113.5t-25 146t29 149.5t83.5 120.5t133.5 80.5t180 29.5q98 0 173.5 -34.5t127.5 -96t78.5 -145t26.5 -180.5q0 -96 -24 -182t-66.5 -159.5t-101 -134 t-127 -105.5t-145 -73.5t-154.5 -37.5zM524 1150q34 0 59.5 4.5t45 13.5t34.5 22t28 30q3 27 3 55q0 174 -41.5 266.5t-138.5 92.5q-81 0 -123 -62.5t-42 -170.5q0 -74 15.5 -122t40 -77t56 -40.5t63.5 -11.5z" />
<glyph unicode="&#x2080;" horiz-adv-x="1071" d="M514 -214q-127 0 -212.5 45.5t-136.5 121t-72 172.5t-20 198q1 121 37 218t98 165.5t145.5 105.5t180.5 37q133 0 219 -42.5t136 -115.5t69 -169.5t18 -205.5q-1 -114 -34.5 -211t-94 -167.5t-145.5 -111t-188 -40.5zM521 -104q58 0 95 25.5t58 77t28.5 129.5t7.5 182 q0 94 -8.5 172.5t-30 135t-57.5 88t-91 31.5q-56 0 -91.5 -25t-56 -76t-28.5 -127t-8 -178q0 -87 8.5 -166t29.5 -139t56 -95t88 -35z" />
<glyph unicode="&#x2081;" horiz-adv-x="1071" d="M171 -76l265 24v630q-30 -11 -63 -20.5t-65.5 -17t-62.5 -13t-55 -9.5l-41 138q42 12 96 29.5t111.5 40.5t112.5 51.5t99 62.5h4l102 -17v-875l226 -24v-132h-729v132z" />
<glyph unicode="&#x2082;" horiz-adv-x="1071" d="M94 -92q56 34 116.5 77t118 92t109 102t90.5 108t61.5 109.5t22.5 106.5q0 75 -45 119t-140 44q-45 0 -84.5 -10t-72 -25t-58 -32.5t-42.5 -31.5l-74 102q19 27 59.5 57.5t95 56t119 42t133.5 16.5q96 0 163.5 -25t110.5 -66.5t62.5 -95.5t19.5 -112q0 -80 -45.5 -161.5 t-120.5 -160t-171.5 -150.5t-198.5 -133l421 43l89 148l123 -25l-51 -311h-767z" />
<glyph unicode="&#x2083;" horiz-adv-x="1071" d="M162 -51q22 -10 52 -18t62 -14t63 -9t54 -3q135 0 208 46t73 140q0 28 -13.5 56.5t-39.5 51.5t-65.5 38t-90.5 15l-110 -34l-42 121q31 5 73.5 18t78.5 29q73 35 109 75.5t36 105.5q0 25 -8 45.5t-27 35t-49.5 22.5t-75.5 8q-67 0 -129 -25t-102 -61l-66 125 q22 21 59.5 43t84.5 40t100 29.5t107 11.5q81 0 146.5 -17.5t112 -49t71.5 -75.5t25 -98q0 -45 -12.5 -86.5t-41 -78t-75 -66.5t-114.5 -52q86 4 146.5 -17t99 -57t56 -81.5t17.5 -89.5q0 -70 -33 -129t-96.5 -102t-156.5 -67.5t-212 -24.5q-31 0 -68.5 4.5t-75 13t-72 19 t-59.5 22.5v140z" />
<glyph unicode="&#x2084;" horiz-adv-x="1071" d="M32 57q8 16 29.5 54.5t51 91t65 116t73 130t74.5 133t69 125.5t57 106.5t38 76.5h74l169 -84l-381 -572l-85 -131l315 18l15 239l210 17v-243l178 10l1 -181h-179v-224h-226v224h-477z" />
<glyph unicode="&#x2085;" horiz-adv-x="1071" d="M211 -114q23 -5 50.5 -6.5t50.5 -1.5q74 0 137 18.5t109.5 51.5t72.5 78.5t26 99.5q0 89 -53.5 131.5t-150.5 42.5q-32 0 -64 -4t-60 -10t-50.5 -12.5t-35.5 -11.5l-69 47l60 522h642l-21 -180h-466l-34 -250q19 7 47 14.5t59.5 13.5t64 9.5t61.5 3.5q95 0 159 -23 t102.5 -63.5t55 -95t16.5 -118.5q0 -84 -45.5 -156t-124 -124t-183.5 -81.5t-224 -29.5q-35 0 -72.5 3t-72.5 12z" />
<glyph unicode="&#x2086;" horiz-adv-x="1071" d="M523 -227q-99 0 -175 34t-128 95t-79 143.5t-27 180.5q0 96 25 183.5t69 163.5t104 139.5t130.5 111t147.5 77t156 39.5l53 -90q-89 -25 -157.5 -69t-119 -99.5t-84 -119.5t-52.5 -129q37 32 98.5 57t147.5 25q76 0 135 -25t99.5 -70.5t61.5 -109.5t21 -142 q0 -79 -27 -150.5t-80.5 -126t-133.5 -86.5t-185 -32zM539 -113q45 0 76.5 19t51.5 52t29 77.5t9 96.5q0 70 -14 117t-37.5 75.5t-53.5 40.5t-62 12q-42 0 -71 -6.5t-49.5 -17t-33.5 -23t-22 -24.5q-1 -10 -1.5 -19.5t-0.5 -19.5q-1 -83 7 -153t28.5 -120.5t55.5 -78.5 t88 -28z" />
<glyph unicode="&#x2087;" horiz-adv-x="1071" d="M326 -220q127 237 238.5 455.5t202.5 417.5l-418 1l-54 -177l-149 19l39 336h749l50 -63l-411 -1054l-247 65v0z" />
<glyph unicode="&#x2088;" horiz-adv-x="1071" d="M535 -227q-73 0 -148 16t-136.5 50.5t-100.5 88.5t-39 131q0 71 45.5 135t148.5 109q-32 21 -59.5 47t-47.5 58t-31.5 70.5t-11.5 86.5q0 69 34 121t88.5 86.5t123 51.5t137.5 17q90 0 158.5 -18t115 -50t70 -75.5t23.5 -93.5q0 -69 -39 -133.5t-127 -115.5 q46 -21 88 -47t73.5 -58.5t50.5 -74t19 -93.5q1 -72 -34 -129t-94.5 -97t-139 -61.5t-167.5 -21.5zM632 399q45 32 67.5 74t22.5 81q0 41 -14.5 73t-40 54.5t-60 34.5t-75.5 12q-33 0 -62.5 -9t-52 -25.5t-36 -39.5t-13.5 -52q0 -38 22 -66.5t58.5 -52t84.5 -43.5t99 -41z M539 -111q33 0 64 9.5t55.5 26.5t39.5 41.5t15 53.5q0 45 -28 76.5t-73 57t-101 48.5t-112 50q-38 -29 -59 -69.5t-21 -88.5q0 -43 14 -80.5t42 -65t69 -43.5t95 -16z" />
<glyph unicode="&#x2089;" horiz-adv-x="1071" d="M277 -218q84 24 149.5 65t114 93t81 112t51.5 122q-38 -36 -90.5 -55t-130.5 -19q-73 0 -134.5 26.5t-106.5 74t-70 113.5t-25 146t29 149.5t83.5 120.5t133.5 80.5t180 29.5q98 0 173.5 -34.5t127.5 -96t78.5 -145t26.5 -180.5q0 -96 -24 -182t-66.5 -159.5t-101 -134 t-127 -105.5t-145 -73.5t-154.5 -37.5zM532 238q34 0 59.5 4.5t45 13.5t34.5 22t28 30q3 27 3 55q0 174 -41.5 266.5t-138.5 92.5q-81 0 -123 -62.5t-42 -170.5q0 -74 15.5 -122t40 -77t56 -40.5t63.5 -11.5z" />
<glyph unicode="&#x20a1;" horiz-adv-x="1530" d="M616 7q-108 34 -192.5 99.5t-143 158t-89 210t-30.5 255.5q0 160 40.5 293.5t114 237t176 174t225.5 103.5l19 277h130l-17 -253q22 2 44 3.5t45 1.5q18 0 35.5 -0.5t34.5 -1.5l17 250h129l-18 -266q48 -8 89.5 -18.5t76.5 -20.5t64 -17.5t54 -9.5l-22 -364h-183l-53 239 q-16 16 -37 26l-84 -1270q40 9 71 25.5t56 39.5l100 202l148 -39l-17 -280q-27 -1 -63 -10t-81.5 -21.5t-101 -25t-121.5 -21.5l-22 -338h-129l21 327q-11 0 -23 -0.5t-24 -0.5q-29 0 -57 2t-54 6l-22 -334h-130zM754 136q35 -17 74 -26t83 -9l87 1317q-20 2 -40 3.5 t-40 1.5q-40 0 -79 -9zM705 1354q-99 -72 -157.5 -219t-58.5 -364q0 -174 36 -310t106 -224z" />
<glyph unicode="&#x20a4;" horiz-adv-x="1494" d="M107 119q0 34 18 66.5t51.5 56t82 35.5t110.5 6q9 15 15 42t10.5 62.5t6.5 78.5t2 90v29h-194v136h194v179h-172v137h172q3 115 48.5 208t120 158t172 100t203.5 35q107 0 197 -26t156 -75l-131 -221q-8 13 -32.5 37t-60.5 47t-81 40.5t-94 17.5q-42 0 -77 -9t-60.5 -38 t-39.5 -83t-14 -143v-48h292v-137h-292v-179h270v-136h-270q-1 -52 -13 -99t-31.5 -89t-44.5 -78.5t-52 -67.5q51 -5 100.5 -18.5t100 -27t102 -24t106.5 -10.5q60 0 98 13.5t59.5 37t29.5 56.5t8 72q0 62 -16 108.5t-36 67.5h303q7 -9 15 -22.5t15 -32t11.5 -43t4.5 -57.5 q0 -43 -10.5 -88t-33 -88t-58 -81t-85 -67t-113.5 -45.5t-145 -16.5q-96 0 -174.5 23.5t-146 52t-126.5 52.5t-117 26q-23 -30 -48 -56t-52.5 -45.5t-57.5 -31t-62 -11.5q-23 0 -46.5 8.5t-43 24t-32 38.5t-12.5 53z" />
<glyph unicode="&#x20ac;" horiz-adv-x="1551" d="M108 659h187q-1 17 -1 35v36q0 81 9 156h-183v140h210q33 127 94.5 227.5t146 170t188.5 106.5t223 37q85 0 152.5 -12t120.5 -27t94.5 -28.5t74.5 -16.5l-22 -364h-183l-53 239q-27 34 -82 49.5t-122 15.5q-128 0 -211 -99.5t-114 -297.5h447v-140h-462q-2 -25 -2 -51 v-53q0 -65 3 -123h441v-139h-427q14 -96 40.5 -173.5t67 -132t95.5 -84t126 -29.5q75 0 122 19.5t84 58.5l100 202l149 -39l-12 -280q-33 -2 -78.5 -16t-106.5 -30.5t-139.5 -30t-176.5 -13.5q-122 0 -221.5 38t-175.5 109t-126.5 172.5t-73.5 228.5h-203v139z" />
<glyph unicode="&#x20b2;" horiz-adv-x="1545" d="M704 -18q-152 15 -269.5 77.5t-198 162.5t-122 233t-41.5 288q0 174 52.5 314t145 240.5t218.5 160.5t274 75v229h185v-227q70 -4 135 -12t119.5 -17t96.5 -18t66 -14l-23 -386h-201l-59 251q-11 10 -28 20.5t-44.5 19.5t-68.5 15t-98 6q-93 0 -170 -36.5t-131.5 -112 t-84.5 -190t-30 -270.5q0 -88 10.5 -172t32.5 -158.5t54.5 -137.5t77 -108.5t100 -71t123.5 -25.5q85 0 150.5 19t97.5 52v405l-187 23v173h592v-173l-98 -20v-515q-37 -2 -86 -15.5t-110 -30t-135 -32.5t-160 -23l-2 -239h-185l2 240v0z" />
<glyph unicode="&#x20b5;" horiz-adv-x="1534" d="M733 -20q-142 15 -249 76t-178.5 160t-107.5 230.5t-36 287.5q0 178 47.5 322t133.5 248.5t206.5 166t267.5 75.5l15 269h134l-15 -267q64 -3 124 -11t110.5 -17.5t90.5 -19.5t66 -17l-23 -354h-194l-53 218q-17 19 -49 35t-79 24l-70 -1294q79 1 128 23.5t82 54.5 l78 186l172 -9l-13 -305q-38 -3 -78.5 -15.5t-93 -27.5t-121 -27.5t-161.5 -15.5l-18 -330h-134zM810 1407q-148 -26 -225 -184t-77 -447q0 -113 12 -215.5t40 -186.5t72 -145t109 -91z" />
<glyph unicode="&#x2105;" horiz-adv-x="2087" d="M1251 1538h199l-656 -1538h-199zM503 636q-93 0 -168 30.5t-128 86.5t-82 135t-29 176q-1 90 29 173.5t87.5 147t141 101.5t188.5 38q49 0 87.5 -6t68.5 -14t52 -15.5t38 -9.5l4 -278h-148l-27 103q-13 27 -36.5 47.5t-62.5 20.5q-40 0 -72 -17.5t-55.5 -50t-36 -79 t-13.5 -104.5q-1 -77 14 -135t42 -97t65 -59t84 -20q35 0 63 5t51.5 13.5t42 19.5t34.5 23l62 -118q-23 -21 -54 -42t-68.5 -37.5t-81 -27t-92.5 -10.5zM1191 458q0 108 35 192t94.5 141t136.5 87t161 30q102 0 176 -34t122 -93.5t71 -139t23 -170.5q0 -108 -36 -191 t-96 -139.5t-137.5 -85.5t-159.5 -29q-90 0 -162 34.5t-123 93.5t-78 137.5t-27 166.5zM1454 469q0 -51 5.5 -106t21 -100t43.5 -74t73 -29q48 0 77.5 26.5t45.5 69.5t21.5 97t5.5 109t-5.5 111t-21 100.5t-43.5 72.5t-74 28q-48 0 -77 -27t-45 -70.5t-21.5 -98t-5.5 -109.5 z" />
<glyph unicode="&#x2113;" horiz-adv-x="1344" d="M28 192q92 46 172 93t143 93q-10 46 -14.5 96.5t-4.5 104.5q0 141 22.5 277t63.5 257.5t99 223.5t128.5 176.5t151.5 116t169 41.5q50 0 97.5 -16.5t84 -51.5t58.5 -88.5t22 -127.5q0 -150 -45.5 -300t-125 -293t-188.5 -276.5t-235 -250.5q19 -23 40 -36t41 -20t37 -9 t29 -2q86 0 159 67t118 209l132 -43q-13 -54 -32 -109t-45 -106t-61 -95t-81.5 -76.5t-104.5 -51t-131 -18.5q-84 0 -155 40t-125 115q-45 -30 -95.5 -59.5t-101.5 -58.5zM544 544q95 100 170.5 211t128 223.5t80.5 221t28 203.5q0 54 -16 85t-41 31q-48 0 -92.5 -42 t-83.5 -113t-71 -165t-55 -199t-35.5 -214t-12.5 -210v-32z" />
<glyph unicode="&#x2116;" horiz-adv-x="2755" d="M1649 1031q1 130 43.5 227t113 161t161.5 95.5t189 31.5q108 0 193 -33.5t143.5 -97.5t89.5 -155.5t30 -206.5q0 -130 -41 -228.5t-110 -164.5t-160 -99.5t-191 -33.5q-112 0 -198 35.5t-144.5 101t-88.5 158.5t-30 209zM129 126l182 28v1213l-182 32v123h498l513 -905 l103 -240l-5 990l-185 32v123h532v-123l-166 -31v-1368h-266l-545 953l-112 245v-1042l206 -30v-126h-573v126zM1946 1052q0 -205 48 -302.5t141 -99.5q49 0 83.5 21t56.5 66.5t32.5 118t10.5 174.5q0 204 -46.5 297.5t-138.5 95.5q-97 1 -142 -87t-45 -284zM1672 340h916 v-174h-916v174z" />
<glyph unicode="&#x2120;" horiz-adv-x="2264" d="M182 998l143 -1l27 -92q7 -9 21.5 -16t33 -12t40 -7.5t42.5 -2.5q37 0 62.5 9.5t41 25t22 35.5t6.5 42q0 25 -11 42t-34 31t-58 26.5t-83 27.5q-51 16 -95 37.5t-77 52t-51.5 73t-18.5 99.5q0 46 23 85.5t64 68.5t98.5 45.5t126.5 16.5q51 0 94.5 -5t78 -12.5t58.5 -15 t36 -11.5v-163h-126l-35 83q-5 8 -17 13.5t-27.5 9t-33.5 5t-36 1.5q-51 0 -82.5 -20.5t-31.5 -52.5t11.5 -54t33 -39.5t53 -31t71.5 -26.5q48 -16 96.5 -35t87 -46t62.5 -66t24 -94q0 -54 -23 -101t-67.5 -81.5t-108 -54.5t-144.5 -20q-37 0 -77.5 4.5t-80 12t-75.5 16.5 t-64 19v179zM907 875l106 16l45 574l-105 9v97h415l137 -431l44 -134l188 565h356v-97l-97 -9l52 -573l102 -17v-89h-389v89l91 16l-22 363l-9 216l-20 -61l-218 -631h-138l-206 553l-56 142l-4 -149l-23 -434l89 -15v-89h-338v89z" />
<glyph unicode="&#x2122;" horiz-adv-x="2304" d="M948 875l106 16l45 574l-105 9v97h414l138 -431l44 -136l188 567h355v-97l-97 -9l53 -573l101 -17v-89h-388v89l91 16l-22 363l-10 215l-20 -60l-217 -631h-138l-206 553l-56 141l-5 -148l-22 -434l89 -15v-89h-338v89zM279 875l123 16v572l-160 -5l-43 -159l-83 -1 l20 273h742v-271l-80 -5l-27 164l-167 6v-574l131 -16v-89h-456v89z" />
<glyph unicode="&#x2126;" horiz-adv-x="1933" d="M112 424h166l69 -211l331 -37q-42 25 -89 68t-92.5 98t-86.5 121t-71.5 137.5t-48.5 146.5t-16 149q2 117 30.5 210.5t77 165.5t114 123.5t142 84.5t161 48.5t171.5 15.5q151 0 276.5 -42t214 -123.5t136.5 -201.5t45 -276q-2 -66 -18 -136t-43 -139t-63.5 -135t-78 -124 t-87 -106t-90.5 -81l321 34l73 210h163l-56 -424h-676v185q68 46 120 113.5t87.5 152t53.5 183.5t18 208q0 104 -30.5 189t-84.5 145.5t-127.5 93.5t-158.5 33q-99 0 -177 -33.5t-132.5 -96.5t-83.5 -154.5t-29 -206.5q0 -110 27.5 -209t72 -180.5t99.5 -142.5t110 -95v-185 h-694z" />
<glyph unicode="&#x212e;" horiz-adv-x="1393" d="M465 267q51 -68 124.5 -102.5t164.5 -34.5q56 0 112 10.5t106 26.5t90.5 35t65.5 36l72 -146q-33 -23 -85.5 -45t-114 -39t-127.5 -27t-124 -10q-139 0 -257 52t-204.5 145t-135.5 221.5t-49 281.5q0 150 41 276.5t122.5 219.5t203 146t282.5 56q111 2 207 -34 t168 -105.5t115 -169t48 -225.5q0 -66 -1.5 -118.5t-10.5 -91.5l-813 1v-359zM948 759v395q-33 35 -82 55.5t-119 20.5q-44 0 -83.5 -5t-75.5 -18t-67 -35t-56 -56v-357h483z" />
<glyph unicode="&#x2153;" horiz-adv-x="2481" d="M171 661l265 24v630q-30 -11 -63 -20.5t-65.5 -17t-62.5 -13t-55 -9.5l-41 138q42 12 96 29.5t111.5 40.5t112.5 51.5t99 62.5h4l102 -17v-875l226 -24v-132h-729v132zM773 -172l712 1832l196 -16l-711 -1829zM1594 157q22 -10 52 -18t62 -14t63 -9t54 -3q135 0 208 46 t73 140q0 28 -13.5 56.5t-39.5 51.5t-65.5 38t-90.5 15l-110 -34l-42 121q31 5 73.5 18t78.5 29q73 35 109 75.5t36 105.5q0 25 -8 45.5t-27 35t-49.5 22.5t-75.5 8q-67 0 -129 -25t-102 -61l-66 125q22 21 59.5 43t84.5 40t100 29.5t107 11.5q81 0 146.5 -17.5t112 -49 t71.5 -75.5t25 -98q0 -45 -12.5 -86.5t-41 -78t-75 -66.5t-114.5 -52q86 4 146.5 -17t99 -57t56 -81.5t17.5 -89.5q0 -70 -33 -129t-96.5 -102t-156.5 -67.5t-212 -24.5q-31 0 -68.5 4.5t-75 13t-72 19t-59.5 22.5v140z" />
<glyph unicode="&#x2154;" horiz-adv-x="2481" d="M94 645q56 34 116.5 77t118 92t109 102t90.5 108t61.5 109.5t22.5 106.5q0 75 -45 119t-140 44q-45 0 -84.5 -10t-72 -25t-58 -32.5t-42.5 -31.5l-74 102q19 27 59.5 57.5t95 56t119 42t133.5 16.5q96 0 163.5 -25t110.5 -66.5t62.5 -95.5t19.5 -112q0 -80 -45.5 -161.5 t-120.5 -160t-171.5 -150.5t-198.5 -133l421 43l89 148l123 -25l-51 -311h-767zM773 -172l712 1832l196 -16l-711 -1829zM1967 -19q-73 0 -148 16t-136.5 50.5t-100.5 88.5t-39 131q0 71 45.5 135t148.5 109q-32 21 -59.5 47t-47.5 58t-31.5 70.5t-11.5 86.5q0 69 34 121 t88.5 86.5t123 51.5t137.5 17q90 0 158.5 -18t115 -50t70 -75.5t23.5 -93.5q0 -69 -39 -133.5t-127 -115.5q46 -21 88 -47t73.5 -58.5t50.5 -74t19 -93.5q1 -72 -34 -129t-94.5 -97t-139 -61.5t-167.5 -21.5zM2064 607q45 32 67.5 74t22.5 81q0 41 -14.5 73t-40 54.5 t-60 34.5t-75.5 12q-33 0 -62.5 -9t-52 -25.5t-36 -39.5t-13.5 -52q0 -38 22 -66.5t58.5 -52t84.5 -43.5t99 -41zM1971 97q33 0 64 9.5t55.5 26.5t39.5 41.5t15 53.5q0 45 -28 76.5t-73 57t-101 48.5t-112 50q-38 -29 -59 -69.5t-21 -88.5q0 -43 14 -80.5t42 -65t69 -43.5 t95 -16z" />
<glyph unicode="&#x215b;" horiz-adv-x="2481" d="M171 661l265 24v630q-30 -11 -63 -20.5t-65.5 -17t-62.5 -13t-55 -9.5l-41 138q42 12 96 29.5t111.5 40.5t112.5 51.5t99 62.5h4l102 -17v-875l226 -24v-132h-729v132zM773 -172l712 1832l196 -16l-711 -1829zM1967 -19q-73 0 -148 16t-136.5 50.5t-100.5 88.5t-39 131 q0 71 45.5 135t148.5 109q-32 21 -59.5 47t-47.5 58t-31.5 70.5t-11.5 86.5q0 69 34 121t88.5 86.5t123 51.5t137.5 17q90 0 158.5 -18t115 -50t70 -75.5t23.5 -93.5q0 -69 -39 -133.5t-127 -115.5q46 -21 88 -47t73.5 -58.5t50.5 -74t19 -93.5q1 -72 -34 -129t-94.5 -97 t-139 -61.5t-167.5 -21.5zM2064 607q45 32 67.5 74t22.5 81q0 41 -14.5 73t-40 54.5t-60 34.5t-75.5 12q-33 0 -62.5 -9t-52 -25.5t-36 -39.5t-13.5 -52q0 -38 22 -66.5t58.5 -52t84.5 -43.5t99 -41zM1971 97q33 0 64 9.5t55.5 26.5t39.5 41.5t15 53.5q0 45 -28 76.5t-73 57 t-101 48.5t-112 50q-38 -29 -59 -69.5t-21 -88.5q0 -43 14 -80.5t42 -65t69 -43.5t95 -16z" />
<glyph unicode="&#x215c;" horiz-adv-x="2481" d="M162 686q22 -10 52 -18t62 -14t63 -9t54 -3q135 0 208 46t73 140q0 28 -13.5 56.5t-39.5 51.5t-65.5 38t-90.5 15l-110 -34l-42 121q31 5 73.5 18t78.5 29q73 35 109 75.5t36 105.5q0 25 -8 45.5t-27 35t-49.5 22.5t-75.5 8q-67 0 -129 -25t-102 -61l-66 125 q22 21 59.5 43t84.5 40t100 29.5t107 11.5q81 0 146.5 -17.5t112 -49t71.5 -75.5t25 -98q0 -45 -12.5 -86.5t-41 -78t-75 -66.5t-114.5 -52q86 4 146.5 -17t99 -57t56 -81.5t17.5 -89.5q0 -70 -33 -129t-96.5 -102t-156.5 -67.5t-212 -24.5q-31 0 -68.5 4.5t-75 13t-72 19 t-59.5 22.5v140zM773 -172l712 1832l196 -16l-711 -1829zM1967 -19q-73 0 -148 16t-136.5 50.5t-100.5 88.5t-39 131q0 71 45.5 135t148.5 109q-32 21 -59.5 47t-47.5 58t-31.5 70.5t-11.5 86.5q0 69 34 121t88.5 86.5t123 51.5t137.5 17q90 0 158.5 -18t115 -50t70 -75.5 t23.5 -93.5q0 -69 -39 -133.5t-127 -115.5q46 -21 88 -47t73.5 -58.5t50.5 -74t19 -93.5q1 -72 -34 -129t-94.5 -97t-139 -61.5t-167.5 -21.5zM2064 607q45 32 67.5 74t22.5 81q0 41 -14.5 73t-40 54.5t-60 34.5t-75.5 12q-33 0 -62.5 -9t-52 -25.5t-36 -39.5t-13.5 -52 q0 -38 22 -66.5t58.5 -52t84.5 -43.5t99 -41zM1971 97q33 0 64 9.5t55.5 26.5t39.5 41.5t15 53.5q0 45 -28 76.5t-73 57t-101 48.5t-112 50q-38 -29 -59 -69.5t-21 -88.5q0 -43 14 -80.5t42 -65t69 -43.5t95 -16z" />
<glyph unicode="&#x215d;" horiz-adv-x="2481" d="M211 623q23 -5 50.5 -6.5t50.5 -1.5q74 0 137 18.5t109.5 51.5t72.5 78.5t26 99.5q0 89 -53.5 131.5t-150.5 42.5q-32 0 -64 -4t-60 -10t-50.5 -12.5t-35.5 -11.5l-69 47l60 522h642l-21 -180h-466l-34 -250q19 7 47 14.5t59.5 13.5t64 9.5t61.5 3.5q95 0 159 -23 t102.5 -63.5t55 -95t16.5 -118.5q0 -84 -45.5 -156t-124 -124t-183.5 -81.5t-224 -29.5q-35 0 -72.5 3t-72.5 12zM773 -172l712 1832l196 -16l-711 -1829zM1967 -19q-73 0 -148 16t-136.5 50.5t-100.5 88.5t-39 131q0 71 45.5 135t148.5 109q-32 21 -59.5 47t-47.5 58 t-31.5 70.5t-11.5 86.5q0 69 34 121t88.5 86.5t123 51.5t137.5 17q90 0 158.5 -18t115 -50t70 -75.5t23.5 -93.5q0 -69 -39 -133.5t-127 -115.5q46 -21 88 -47t73.5 -58.5t50.5 -74t19 -93.5q1 -72 -34 -129t-94.5 -97t-139 -61.5t-167.5 -21.5zM2064 607q45 32 67.5 74 t22.5 81q0 41 -14.5 73t-40 54.5t-60 34.5t-75.5 12q-33 0 -62.5 -9t-52 -25.5t-36 -39.5t-13.5 -52q0 -38 22 -66.5t58.5 -52t84.5 -43.5t99 -41zM1971 97q33 0 64 9.5t55.5 26.5t39.5 41.5t15 53.5q0 45 -28 76.5t-73 57t-101 48.5t-112 50q-38 -29 -59 -69.5t-21 -88.5 q0 -43 14 -80.5t42 -65t69 -43.5t95 -16z" />
<glyph unicode="&#x215e;" horiz-adv-x="2481" d="M346 516q127 237 238.5 455.5t202.5 417.5l-418 1l-54 -177l-149 19l39 336h749l50 -63l-411 -1054l-247 65v0zM773 -172l712 1832l196 -16l-711 -1829zM1967 -19q-73 0 -148 16t-136.5 50.5t-100.5 88.5t-39 131q0 71 45.5 135t148.5 109q-32 21 -59.5 47t-47.5 58 t-31.5 70.5t-11.5 86.5q0 69 34 121t88.5 86.5t123 51.5t137.5 17q90 0 158.5 -18t115 -50t70 -75.5t23.5 -93.5q0 -69 -39 -133.5t-127 -115.5q46 -21 88 -47t73.5 -58.5t50.5 -74t19 -93.5q1 -72 -34 -129t-94.5 -97t-139 -61.5t-167.5 -21.5zM2064 607q45 32 67.5 74 t22.5 81q0 41 -14.5 73t-40 54.5t-60 34.5t-75.5 12q-33 0 -62.5 -9t-52 -25.5t-36 -39.5t-13.5 -52q0 -38 22 -66.5t58.5 -52t84.5 -43.5t99 -41zM1971 97q33 0 64 9.5t55.5 26.5t39.5 41.5t15 53.5q0 45 -28 76.5t-73 57t-101 48.5t-112 50q-38 -29 -59 -69.5t-21 -88.5 q0 -43 14 -80.5t42 -65t69 -43.5t95 -16z" />
<glyph unicode="&#x2190;" horiz-adv-x="1530" d="M113 766l590 590l137 -139l-361 -360l146 17h792l-2 -214h-790l-146 16l361 -359l-137 -140z" />
<glyph unicode="&#x2191;" horiz-adv-x="1530" d="M658 935l16 145l-359 -360l-140 136l589 590l590 -590l-139 -136l-360 360l17 -145v-792l-214 1v791z" />
<glyph unicode="&#x2192;" horiz-adv-x="1530" d="M1417.01 766l-589.964 590l-136.992 -139l360.979 -360l-145.991 17h-791.951l1.99902 -214h789.952l145.991 16l-360.979 -359l136.992 -140z" />
<glyph unicode="&#x2193;" horiz-adv-x="1530" d="M658 655.057l16 -144.99l-359 359.978l-140 -135.991l589 -589.965l590 589.965l-139 135.991l-360 -359.978l17 144.99v791.952l-214 -1v-790.952z" />
<glyph unicode="&#x2202;" horiz-adv-x="1324" d="M100 434q0 147 49 257t133 183.5t196 110t239 36.5q75 0 132.5 -20t99.5 -43q-3 64 -12 128.5t-27 123.5t-48 110.5t-75 89.5t-107.5 59.5t-146.5 21.5q-81 0 -155.5 -19.5t-124.5 -61.5l-63 136q30 23 74.5 47t98 43.5t114 31.5t122.5 12q175 0 293.5 -54t190.5 -150 t103 -228.5t31 -288.5q0 -114 -14.5 -231t-46.5 -226.5t-83 -205t-123.5 -167t-168.5 -112.5t-218 -41q-108 0 -193.5 37t-145.5 100t-92 146t-32 175zM400 489q0 -63 16.5 -119.5t47.5 -100t75.5 -69t100.5 -25.5q51 0 91.5 19.5t72 53t55 77.5t40 94t27 102t16.5 101 q6 51 7.5 91t2.5 77q-53 41 -113.5 63t-122.5 22q-66 0 -123.5 -25t-100.5 -74t-67.5 -121t-24.5 -166z" />
<glyph unicode="&#x2206;" horiz-adv-x="1769" d="M823 1516h55l754 -1478l-27 -37h-1443l-25 32zM1217 240l-409 825l-369 -825h778z" />
<glyph unicode="&#x220f;" horiz-adv-x="1568" d="M214 81v1285l-165 24v132h1470v-132l-165 -26v-1280l169 -29v-135h-636v135l150 28v1276h-492v-1276l149 -28v-135h-649v135z" />
<glyph unicode="&#x2211;" horiz-adv-x="1592" d="M719 621l-577 806l36 95h1145l28 -359h-155l-77 224l-617 19l496 -692l-541 -693l707 38l116 201l139 -21l-51 -419h-1187l-23 87z" />
<glyph unicode="&#x2212;" horiz-adv-x="1345" d="M230 718h885v-204h-885v204z" />
<glyph unicode="&#x2219;" horiz-adv-x="711" d="M170 718q0 40 16 75t44 61t65 40.5t79 14.5q49 0 83 -13t55.5 -35t31 -51t9.5 -62q0 -43 -15.5 -78t-43 -60t-66 -38.5t-83.5 -13.5q-35 0 -67 11t-56 32t-38 50.5t-14 66.5z" />
<glyph unicode="&#x221a;" horiz-adv-x="1472" d="M88 583l225 132h220l276 -802h8l571 1957h255l-703 -2224h-262l-354 834l-147 -76z" />
<glyph unicode="&#x221e;" horiz-adv-x="1963" d="M546 179q-111 -1 -200 36.5t-151.5 101t-96.5 148t-34 177.5q0 91 34.5 173t98.5 144t156 98.5t207 36.5q76 0 142.5 -22t124 -60.5t107.5 -89.5t94 -109q27 48 63.5 97t85 89.5t110 66.5t138.5 26q111 1 199 -36.5t149 -101.5t93.5 -148t32.5 -177q0 -91 -34.5 -173 t-98.5 -144t-156.5 -98.5t-207.5 -36.5q-140 0 -253.5 72.5t-212.5 202.5q-30 -56 -69.5 -105.5t-88.5 -86.5t-107 -58.5t-125 -22.5zM1100 728q35 -56 73 -111.5t80.5 -100t90.5 -72.5t104 -28q50 0 90 18.5t68.5 50.5t44 74.5t15.5 89.5q0 63 -23 111.5t-62.5 81.5t-92 50 t-112.5 17q-40 0 -77.5 -13.5t-72 -37.5t-66.5 -57t-60 -73zM297 622q0 -63 23 -111.5t62.5 -81.5t92 -50t112.5 -17q40 0 77.5 13.5t72 37.5t66.5 57t60 73q-35 56 -73 112t-81 100.5t-91 72.5t-103 28q-50 0 -90 -19t-68.5 -51t-44 -74.5t-15.5 -89.5z" />
<glyph unicode="&#x222b;" horiz-adv-x="1075" d="M213 -246q15 -18 36.5 -36.5t48.5 -34.5t59.5 -26t70.5 -10q42 0 79 15.5t65 44.5t44 69t16 90q0 122 -33.5 236t-83.5 222.5t-108.5 215.5t-108.5 215.5t-83.5 221.5t-33.5 235q0 116 39 204.5t103.5 148t147.5 90t170 30.5q44 0 89 -5t87 -19t79.5 -38.5t67.5 -64.5 l-110 -122q-8 13 -24.5 31t-41 34t-56.5 27t-71 11q-44 0 -80.5 -17.5t-62.5 -47.5t-40.5 -70.5t-14.5 -87.5q0 -122 33.5 -234t83.5 -218.5t108.5 -211t108.5 -211t83.5 -218t33.5 -233.5q0 -108 -33 -200.5t-92 -161t-142 -107t-183 -38.5q-26 0 -70 4t-94.5 16.5 t-100.5 36t-88 63.5l102 151v0z" />
<glyph unicode="&#x2248;" horiz-adv-x="1390" d="M187 303q19 33 52 68.5t76.5 65t96.5 48t113 18.5q47 0 85 -12.5t70.5 -31.5t60 -41.5t54 -41.5t53 -31.5t55.5 -12.5q37 0 67.5 8t55 22t45 33t37.5 40l101 -124q-21 -35 -54.5 -71.5t-76.5 -66.5t-95.5 -49t-112.5 -19q-43 0 -79 13t-68 32.5t-60.5 42t-56 42t-56 32.5 t-59.5 13q-63 0 -113.5 -29t-90.5 -69zM187 887q19 33 52 68.5t76.5 65t96.5 48t113 18.5q47 0 85 -12.5t70.5 -31.5t60 -41.5t54 -41.5t53 -31.5t55.5 -12.5q37 0 67.5 8t55 22t45 33t37.5 40l101 -124q-21 -35 -54.5 -71.5t-76.5 -66.5t-95.5 -49t-112.5 -19q-43 0 -79 13 t-68 32.5t-60.5 42t-56 42t-56 32.5t-59.5 13q-63 0 -113.5 -29t-90.5 -69z" />
<glyph unicode="&#x2260;" horiz-adv-x="1337" d="M210 448h308l121 336h-429v204h506l78 197h197l-70 -197h206v-204h-281l-124 -336h405v-204h-487l-80 -196h-197l76 196h-229v204z" />
<glyph unicode="&#x2264;" horiz-adv-x="1370" d="M151 1020l1014 446v-235l-618 -254l618 -263v-223l-1014 446v83zM151 353h1014v-216h-1014v216z" />
<glyph unicode="&#x2265;" horiz-adv-x="1370" d="M1219.01 1020l-1013.94 446v-235l617.962 -254l-617.962 -263v-223l1013.94 446v83zM1219.01 353h-1013.94v-216h1013.94v216z" />
<glyph unicode="&#x25ca;" horiz-adv-x="1175" d="M50 769l306 428l232 319l307 -422l230 -326l-305 -440l-233 -328l-307 434zM733 558l146 218l-140 201l-147 207l-141 -200l-145 -209l139 -211l147 -215z" />
<glyph unicode="&#x25fc;" horiz-adv-x="1145" d="M0 1145h1145v-1145h-1145v1145z" />
<glyph unicode="&#xe000;" horiz-adv-x="0" />
<glyph unicode="&#xe001;" horiz-adv-x="0" />
<glyph unicode="&#xe0ff;" horiz-adv-x="0" />
<glyph unicode="&#xeffd;" horiz-adv-x="0" />
<glyph unicode="&#xf000;" horiz-adv-x="0" />
<glyph unicode="&#xf6c3;" horiz-adv-x="679" d="M196 -209q0 38 15 62.5t37.5 38t47.5 18.5t46 5h11q37 0 67 -13t51 -37t32.5 -57t11.5 -73q0 -47 -13 -87t-32 -72.5t-42 -58t-43 -42.5t-34 -26t-15 -9h-2l-94 50v11q26 18 36.5 54t10.5 71q0 26 -13.5 40t-30.5 24q-18 11 -32.5 34.5t-14.5 66.5z" />
<glyph unicode="&#xfb00;" horiz-adv-x="1689" d="M72 132l160 27v806h-176v120l176 50v47q0 77 22.5 144t61.5 123t91 100t111.5 74t122.5 46t125 16q51 0 77 -6t40 -11v-299q-14 13 -37 27t-52.5 24.5t-63.5 17.5t-69 7q-27 0 -49 -6t-37.5 -21.5t-24 -42t-8.5 -67.5l1 -173h257v-170h-257v-812l222 -21v-132h-693v132z M916 132l160 27v806h-176v120l176 50v58q0 79 22.5 147.5t61.5 126t91 102.5t111.5 75.5t122.5 47t125 16.5q51 0 77 -6t40 -11v-299q-14 13 -37 27t-52.5 24.5t-63.5 17.5t-69 7q-27 0 -49 -6t-37.5 -21.5t-24 -42t-8.5 -67.5l1 -196h257v-170h-257v-812l222 -21v-132h-693 v132z" />
<glyph unicode="&#xfb01;" horiz-adv-x="1580" d="M926 134l146 19v770l-135 43v150l367 49h5l73 -43v-968l145 -20v-134h-601v134zM1193 1334q-35 0 -62.5 13t-46 34.5t-28 51t-9.5 62.5q0 39 10.5 73.5t32.5 60.5t54 41t76 15h1q40 0 70 -13.5t50 -36t29.5 -51.5t9.5 -61q0 -40 -11 -74.5t-33.5 -60t-58 -40t-83.5 -14.5 h-1v0zM72 132l160 27v806h-176v120l176 50v58q0 79 22.5 147.5t61.5 126t91 102.5t111.5 75.5t122.5 47t125 16.5q51 0 77 -6t40 -11v-299q-14 13 -37 27t-52.5 24.5t-63.5 17.5t-69 7q-27 0 -49 -6t-37.5 -21.5t-24 -42t-8.5 -67.5l1 -196h257v-170h-257v-812l222 -21v-132 h-693v132z" />
<glyph unicode="&#xfb02;" horiz-adv-x="1553" d="M901 134l145 20v1335l-149 25v117l391 49h3l63 -47v-1479l151 -20v-134h-604v134zM72 132l160 27v806h-176v120l176 50v58q0 79 22.5 147.5t61.5 126t91 102.5t111.5 75.5t122.5 47t125 16.5q51 0 77 -6t40 -11v-299q-14 13 -37 27t-52.5 24.5t-63.5 17.5t-69 7 q-27 0 -49 -6t-37.5 -21.5t-24 -42t-8.5 -67.5l1 -196h257v-170h-257v-812l222 -21v-132h-693v132z" />
<glyph unicode="&#xfb03;" horiz-adv-x="2425" d="M72 132l160 27v806h-176v120l176 50v47q0 77 22.5 144t61.5 123t91 100t111.5 74t122.5 46t125 16q51 0 77 -6t40 -11v-299q-14 13 -37 27t-52.5 24.5t-63.5 17.5t-69 7q-27 0 -49 -6t-37.5 -21.5t-24 -42t-8.5 -67.5l1 -173h257v-170h-257v-812l222 -21v-132h-693v132z M1771 134l146 19v770l-135 43v150l367 49h5l73 -43v-968l145 -20v-134h-601v134zM2037 1334q-35 0 -62.5 13t-46 34.5t-28 51t-9.5 62.5q0 39 10.5 73.5t32.5 60.5t54 41t76 15h1q40 0 70 -13.5t50 -36t29.5 -51.5t9.5 -61q0 -40 -11 -74.5t-33.5 -60t-58 -40t-83.5 -14.5 h-1zM916 132l160 27v806h-176v120l176 50v58q0 79 22.5 147.5t61.5 126t91 102.5t111.5 75.5t122.5 47t125 16.5q51 0 77 -6t40 -11v-299q-14 13 -37 27t-52.5 24.5t-63.5 17.5t-69 7q-27 0 -49 -6t-37.5 -21.5t-24 -42t-8.5 -67.5l1 -196h257v-170h-257v-812l222 -21v-132 h-693v132z" />
<glyph unicode="&#xfb04;" horiz-adv-x="2398" d="M72 132l160 27v806h-176v120l176 50v47q0 77 22.5 144t61.5 123t91 100t111.5 74t122.5 46t125 16q51 0 77 -6t40 -11v-299q-14 13 -37 27t-52.5 24.5t-63.5 17.5t-69 7q-27 0 -49 -6t-37.5 -21.5t-24 -42t-8.5 -67.5l1 -173h257v-170h-257v-812l222 -21v-132h-693v132z M1746 134l145 20v1335l-149 25v117l391 49h3l63 -47v-1479l151 -20v-134h-604v134zM916 132l160 27v806h-176v120l176 50v58q0 79 22.5 147.5t61.5 126t91 102.5t111.5 75.5t122.5 47t125 16.5q51 0 77 -6t40 -11v-299q-14 13 -37 27t-52.5 24.5t-63.5 17.5t-69 7 q-27 0 -49 -6t-37.5 -21.5t-24 -42t-8.5 -67.5l1 -196h257v-170h-257v-812l222 -21v-132h-693v132z" />
<glyph unicode="&#xfeff;" horiz-adv-x="0" />
<glyph horiz-adv-x="711" d="M170 922q0 40 16 75t44 61t65 40.5t79 14.5q49 0 83 -13t55.5 -35t31 -51t9.5 -62q0 -43 -15.5 -78t-43 -60t-66 -38.5t-83.5 -13.5q-35 0 -67 11t-56 32t-38 50.5t-14 66.5z" />
<glyph horiz-adv-x="852" d="M417 655q-45 0 -83.5 18t-67 48.5t-44.5 71.5t-16 87q0 49 19 90.5t51.5 71t74.5 46t87 16.5t83 -16.5t66 -46t44 -70.5t16 -91q0 -48 -19.5 -89t-51.5 -71t-73.5 -47.5t-85.5 -17.5z" />
<glyph horiz-adv-x="1024" />
<glyph horiz-adv-x="1024" />
<glyph horiz-adv-x="1024" />
<glyph horiz-adv-x="1024" />
<glyph horiz-adv-x="1024" />
<glyph horiz-adv-x="1024" />
<glyph horiz-adv-x="1024" />
<glyph horiz-adv-x="1407" d="M689 -18q-113 0 -199.5 31.5t-150 87t-106 132t-68 166t-36 188.5t-9.5 200q2 172 46 311t122 237t187 150.5t240 52.5q118 0 206 -27.5t152 -78t105.5 -120t66 -154t34 -181t8.5 -199.5q-1 -173 -42.5 -318.5t-118.5 -251.5t-187.5 -166t-249.5 -60zM869 1306 q-30 48 -71.5 74t-95.5 26q-78 0 -128.5 -38.5t-79 -115t-39.5 -190.5t-11 -266q0 -118 9.5 -229t32.5 -203zM537 223q29 -54 69 -85t92 -31q82 0 133.5 42.5t80.5 126t40 207.5t11 286q0 120 -9.5 223t-31.5 184z" />
<glyph horiz-adv-x="1407" d="M689 -18q-113 0 -199.5 31.5t-150 87t-106 132t-68 166t-36 188.5t-9.5 200q2 172 46 311t122 237t187 150.5t240 52.5q118 0 206 -27.5t152 -78t105.5 -120t66 -154t34 -181t8.5 -199.5q-1 -173 -42.5 -318.5t-118.5 -251.5t-187.5 -166t-249.5 -60zM698 107 q82 0 133.5 42.5t80.5 126t40 207.5t11 286q0 139 -13 256t-43.5 201.5t-80.5 132t-124 47.5q-78 0 -128.5 -38.5t-79 -115t-39.5 -190.5t-11 -266q0 -89 5.5 -174.5t18 -162t32 -141t47.5 -111.5t65.5 -73.5t85.5 -26.5z" />
<glyph horiz-adv-x="915" d="M117 126l222 27v1048q-19 -6 -49.5 -12.5t-63.5 -12.5t-65 -10.5t-53 -5.5l-26 157q58 12 122.5 36.5t127 56t117 66t91.5 65.5h1l112 -47v-1341l214 -27v-126h-750v126z" />
<glyph horiz-adv-x="1266" d="M84 121q91 61 176 133t159.5 150.5t136 162.5t105.5 169.5t68.5 170.5t24.5 166q0 61 -17.5 107.5t-49.5 77.5t-76 47t-98 16t-102.5 -14.5t-90 -37t-74.5 -49t-56 -51.5l-104 118q27 44 78 88.5t118.5 80.5t149 59t169.5 23q129 0 219 -35.5t146.5 -93t82 -131.5 t25.5 -151q0 -87 -28 -174.5t-77 -172.5t-114 -166.5t-138.5 -157t-152 -144t-153.5 -126.5l550 43l75 156l145 -29l-55 -356h-997z" />
<glyph horiz-adv-x="1161" d="M128 183q19 -7 44 -12t52 -8t55 -4.5t54 -1.5q90 0 164.5 22.5t128 63.5t83.5 100t30 132q0 45 -14.5 86t-47.5 73t-85.5 52.5t-128.5 24.5l-135 -24l-53 146q41 6 83.5 19t78.5 26q125 45 187.5 115.5t63.5 157.5q0 52 -17 87.5t-45.5 57.5t-65 31.5t-74.5 9.5 q-101 0 -178 -27t-140 -72l-75 130q25 24 72.5 54t110 55.5t136.5 43t152 17.5q92 0 172 -19.5t138.5 -61t92 -105.5t33.5 -152q0 -73 -25 -135t-71.5 -113.5t-112.5 -91.5t-147 -70q104 5 183.5 -16.5t134 -62.5t82.5 -98t28 -123q0 -114 -47.5 -207.5t-138 -160 t-220.5 -103.5t-295 -37q-30 0 -64 2.5t-66.5 7t-62 11t-50.5 13.5v167z" />
<glyph horiz-adv-x="1327" d="M52 514q60 104 123 235t118.5 273.5t97.5 290.5t62 286h88l228 -47q-30 -143 -72.5 -271.5t-91.5 -243.5t-101.5 -215t-103.5 -186l-71 -85l453 30l24 443h250v-424l201 14v-234h-201v-380h-277v380h-639z" />
<glyph horiz-adv-x="1190" d="M160 150q29 -2 58.5 -3t57.5 -1q101 0 193 30.5t161.5 83.5t111 124t41.5 151q0 67 -19.5 114.5t-55.5 77t-87.5 43t-115.5 13.5q-42 0 -83.5 -5t-79.5 -13t-73 -18.5t-63 -20.5l-72 53l84 743h643l21 39h147l-52 -272h-572l-46 -369q70 28 151.5 40.5t153.5 12.5 q109 0 190.5 -30.5t135 -86t80 -133t26.5 -171.5q0 -81 -28 -155t-79 -137.5t-123.5 -114.5t-160.5 -87.5t-190 -56t-213 -19.5q-34 0 -71 3t-72 11z" />
<glyph horiz-adv-x="1327" d="M118 617q0 132 35.5 253t97.5 226.5t145.5 193.5t180 153.5t201 107t208.5 54.5l61 -118q-114 -33 -206 -91.5t-163.5 -134t-122 -166t-80.5 -187.5q24 20 55.5 39t71.5 34t89.5 24.5t109.5 9.5q101 0 181 -31.5t135 -91.5t84 -146t29 -194q0 -112 -35 -215t-104 -182 t-171.5 -126t-236.5 -47q-139 0 -244.5 49.5t-177 135.5t-107.5 201.5t-36 248.5zM690 117q58 0 102 32t74 82.5t45 113t15 124.5q0 99 -16.5 170t-45.5 116.5t-69 67t-88 21.5q-52 0 -94.5 -10.5t-76 -26.5t-58 -36t-40.5 -38q-6 -50 -6 -98q-2 -113 10.5 -208t43 -164 t80.5 -107.5t124 -38.5z" />
<glyph horiz-adv-x="1267" d="M346 49q82 165 160.5 328t151.5 320.5t139.5 307.5t124.5 288l-570 -13l-76 -209l-176 27l51 424h976l69 -83l-529 -1476l-321 86v0z" />
<glyph horiz-adv-x="1357" d="M141 381q0 113 66.5 208.5t210.5 165.5q-44 33 -82 72t-66 87.5t-44 108t-16 131.5q0 96 42 168.5t110 121t154.5 73t176.5 24.5q117 0 203 -26t142.5 -71.5t83.5 -107.5t27 -135q0 -105 -53.5 -197t-171.5 -164q61 -36 117 -77t98.5 -92t68 -114.5t25.5 -143.5 q0 -101 -43.5 -181t-119.5 -135.5t-179.5 -85t-223.5 -29.5q-65 0 -129 10t-122.5 30.5t-108.5 52.5t-87 76t-58 101.5t-21 128.5zM801 907q55 48 83.5 111t28.5 129q0 131 -60 203t-169 72q-42 0 -79.5 -13t-65 -38t-43.5 -62t-16 -85q0 -55 26.5 -99t71 -81.5t102.5 -70.5 t121 -66zM411 425q0 -70 15.5 -128.5t48.5 -100.5t85 -65.5t124 -23.5q43 0 85 14.5t75 42.5t53.5 70t20.5 96q0 65 -34 113t-89 87.5t-124 75t-139 76.5q-54 -46 -87.5 -110.5t-33.5 -146.5z" />
<glyph horiz-adv-x="1325" d="M312 48q111 32 200 88t157 129t115.5 160t76.5 182q-21 -20 -49 -38t-65 -32.5t-84 -23t-106 -8.5q-99 0 -182 34t-142.5 97t-92.5 152.5t-33 200.5q0 110 37.5 210.5t109.5 176.5t176.5 121t239.5 45q142 0 245.5 -47.5t171 -132.5t100 -202.5t32.5 -256.5 q0 -132 -34 -252t-93 -224t-140 -190t-175 -150t-197 -104.5t-207 -53.5zM631 676q48 0 89 9.5t75 24.5t59.5 33t42.5 36q4 29 5.5 59t2.5 59q2 112 -7.5 206t-36.5 161.5t-75 105t-123 37.5q-59 0 -105.5 -31.5t-79 -82t-50 -112t-17.5 -121.5q0 -101 16.5 -174 t45.5 -119.5t69.5 -68.5t88.5 -22z" />
<glyph horiz-adv-x="1407" d="M689 -18q-113 0 -199.5 31.5t-150 87t-106 132t-68 166t-36 188.5t-9.5 200q2 172 46 311t122 237t187 150.5t240 52.5q118 0 206 -27.5t152 -78t105.5 -120t66 -154t34 -181t8.5 -199.5q-1 -173 -42.5 -318.5t-118.5 -251.5t-187.5 -166t-249.5 -60zM869 1306 q-30 48 -71.5 74t-95.5 26q-78 0 -128.5 -38.5t-79 -115t-39.5 -190.5t-11 -266q0 -118 9.5 -229t32.5 -203zM537 223q29 -54 69 -85t92 -31q82 0 133.5 42.5t80.5 126t40 207.5t11 286q0 120 -9.5 223t-31.5 184z" />
<glyph horiz-adv-x="1343" d="M103 598q2 124 46.5 229.5t122 182t182.5 119.5t227 43q110 0 194.5 -23.5t147 -64.5t104.5 -97.5t67.5 -122.5t36 -139.5t9.5 -148.5q-2 -124 -45 -232t-120.5 -188.5t-184 -127t-234.5 -46.5q-108 0 -191.5 25t-145 69t-103.5 103t-67.5 127.5t-36 143t-9.5 148.5z M665 105q73 0 120.5 31t76 90t40 145t11.5 196q0 97 -12.5 184t-41.5 152t-76 103t-116 38t-115.5 -29t-74 -85t-39 -137t-11.5 -186q0 -96 12.5 -186.5t40.5 -160.5t73.5 -112.5t111.5 -42.5z" />
<glyph horiz-adv-x="909" d="M114 126l216 23v711q-19 -6 -48.5 -12t-61.5 -11t-63 -8.5t-52 -4.5l-26 148q61 12 125.5 33t125 48t112.5 58t89 62h3l111 -31v-993l219 -23v-126h-750v126z" />
<glyph horiz-adv-x="1227" d="M74 121q132 64 247 140t200.5 157t135 163.5t49.5 161.5q0 49 -14 89.5t-41.5 69.5t-68 44.5t-93.5 15.5q-55 0 -101 -13t-83.5 -33t-67 -43t-51.5 -42l-80 118q28 39 79 79t116.5 72.5t142.5 52.5t157 20q121 0 202.5 -28.5t130 -78t69 -115t20.5 -138.5 q0 -83 -44.5 -165.5t-122 -161t-181.5 -151t-223 -136.5l487 30l77 145l144 -29l-55 -345h-986z" />
<glyph horiz-adv-x="1147" d="M104 -221q38 -14 95 -20t110 -6q93 0 169 23t131 65.5t85 102.5t30 133q0 47 -14 89t-46.5 75t-84.5 54t-128 26l-131 -24l-53 146q41 6 82.5 19.5t76.5 26.5q124 46 185 122t61 169q0 52 -16.5 88.5t-44 59t-63.5 33t-74 10.5q-96 0 -168 -27.5t-132 -71.5l-75 130 q24 24 69.5 53.5t105.5 55.5t131.5 43.5t147.5 17.5q92 0 171 -20.5t137 -62.5t91 -107t33 -153q0 -75 -24.5 -140.5t-70.5 -119.5t-111 -96.5t-146 -72.5q103 6 182 -18t132.5 -68.5t81 -105.5t27.5 -128q1 -114 -47 -206.5t-139 -158t-223.5 -101.5t-300.5 -36 q-30 0 -63.5 2.5t-66.5 7t-62 11t-50 13.5v167v0z" />
<glyph horiz-adv-x="1304" d="M28 134q38 69 87.5 163.5t105.5 202t114.5 223t114 227.5t104.5 214.5t86 184.5h59l243 -132l-508 -877l-109 -158l424 22l20 318l253 21v-324l259 14v-233h-259v-376h-276v376h-635z" />
<glyph horiz-adv-x="1201" d="M163 -341q29 -2 58.5 -3t57.5 -1q102 0 190.5 33.5t154.5 92.5t103.5 138.5t37.5 172.5q0 77 -19.5 131t-55.5 87.5t-87.5 49t-115.5 15.5q-33 0 -69 -4t-71 -11t-67 -16.5t-58 -19.5l-72 52l101 757h626l21 39h147l-48 -297h-555l-71 -374q72 28 144.5 43t137.5 15 q106 0 190 -27t142 -82t89 -138t31 -194q0 -86 -28 -166t-80 -149.5t-124.5 -126.5t-161.5 -97.5t-191.5 -63t-214.5 -22.5q-34 0 -71 3t-72 11l1 152v0z" />
<glyph horiz-adv-x="1356" d="M116 626q0 141 33.5 269.5t93 239.5t141 203.5t176.5 161.5t199.5 112.5t211.5 58.5l61 -119q-103 -33 -187.5 -88t-150 -125.5t-113.5 -153t-79 -169.5t-46 -175t-15 -170q0 -57 3.5 -120.5t13 -125t26.5 -117.5t44.5 -98.5t66.5 -67.5t92 -25q42 0 75.5 20t59.5 53 t44.5 76.5t31 90.5t18 94.5t5.5 89.5q0 124 -16.5 205.5t-43.5 129.5t-61.5 67.5t-71.5 19.5q-29 0 -51 -5t-41 -10l-46 109q12 10 33.5 24t52 26t69.5 20.5t87 8.5q94 0 169 -34.5t127.5 -102t80.5 -166.5t28 -228q0 -76 -14.5 -152t-44.5 -145.5t-75.5 -129t-107.5 -103 t-141 -68.5t-176 -25q-139 0 -244 51t-175.5 139t-106.5 205t-36 249z" />
<glyph horiz-adv-x="1206" d="M288 -461q54 110 109.5 228t111 239.5t109.5 242.5t104.5 236t95.5 222t82 199l-568 -13l-76 -227l-175 28l51 441h965l70 -83l-558 -1600l-321 87v0z" />
<glyph horiz-adv-x="1324" d="M107 385q0 58 18 113t55 104.5t94.5 92t136.5 75.5q-48 34 -90.5 74.5t-74 90t-49.5 110t-18 134.5q0 97 42.5 170t111.5 122t157 73.5t179 24.5q119 0 206 -25t143.5 -70t84 -107t27.5 -136q0 -107 -55 -205.5t-177 -173.5q64 -37 122.5 -79t103.5 -93.5t71.5 -114.5 t26.5 -142q0 -102 -44 -183.5t-122 -138.5t-183.5 -87t-228.5 -30q-66 0 -131.5 9.5t-125 30t-111 52.5t-89 76.5t-59 102.5t-21.5 130zM776 919q59 51 88 117.5t29 134.5q0 134 -61.5 206.5t-173.5 72.5q-44 0 -82 -13t-66.5 -38.5t-45 -63.5t-16.5 -87q0 -56 27 -101.5 t72.5 -84.5t104.5 -73.5t124 -69.5zM379 435q0 -71 16 -130.5t50.5 -103t88.5 -68t129 -24.5q46 0 90 15t78.5 44.5t56 72.5t21.5 99q0 66 -34.5 115.5t-90.5 91t-126.5 79t-142.5 78.5q-61 -48 -98.5 -115t-37.5 -154z" />
<glyph horiz-adv-x="1356" d="M513 14q-91 0 -164 37t-124 107.5t-78.5 173.5t-27.5 235q0 113 34.5 221.5t105 194t177.5 137.5t252 52q139 0 242.5 -50.5t172.5 -137t103 -202t34 -245.5q0 -143 -33.5 -273t-93 -242.5t-141 -206t-176.5 -163t-199.5 -114t-211.5 -59.5l-61 119q103 34 187 90 t150 127.5t113.5 155t78.5 171.5t46 177t15 173q0 58 -3.5 120.5t-13 123t-26.5 115t-44 96t-66 66t-92 24.5q-42 0 -75.5 -19t-59.5 -50.5t-45 -73t-31 -86.5t-17.5 -91t-5.5 -86q0 -129 17.5 -214.5t45.5 -136.5t64 -72t73 -21q29 0 47.5 5t36.5 10l46 -109 q-12 -11 -33.5 -24.5t-52 -25.5t-72 -20.5t-94.5 -8.5z" />
<glyph horiz-adv-x="1343" d="M103 598q2 124 46.5 229.5t122 182t182.5 119.5t227 43q110 0 194.5 -23.5t147 -64.5t104.5 -97.5t67.5 -122.5t36 -139.5t9.5 -148.5q-2 -124 -45 -232t-120.5 -188.5t-184 -127t-234.5 -46.5q-108 0 -191.5 25t-145 69t-103.5 103t-67.5 127.5t-36 143t-9.5 148.5z M782 1006q-24 18 -52.5 28t-62.5 10q-69 0 -115.5 -29t-74 -85t-39 -137t-11.5 -186q0 -90 10.5 -174t33.5 -152zM532 168q26 -30 58.5 -46.5t74.5 -16.5q73 0 120.5 31t76 90t40 145t11.5 196q0 103 -14.5 193.5t-46.5 156.5z" />
<glyph horiz-adv-x="1335" d="M652 -18q-108 0 -191.5 31.5t-146 87t-105.5 132t-69.5 166t-37.5 188.5t-10 200q2 172 47 311t123 237t184.5 150.5t232.5 52.5q113 0 198.5 -27.5t148.5 -78t105 -120t67 -154t35.5 -181t9.5 -199.5q-1 -173 -43 -318.5t-119 -251.5t-186 -166t-243 -60zM662 112 q73 0 122.5 42.5t79 125.5t42 205.5t12.5 283.5q0 138 -14.5 254t-45 199.5t-78 130.5t-114.5 47q-71 0 -118.5 -38t-76.5 -113.5t-41.5 -189t-12.5 -263.5q0 -88 6 -173t19 -161t33 -140t47 -111t62 -73t78 -26z" />
<glyph horiz-adv-x="1335" d="M259 126l285 28l3 1056q-20 -6 -57 -14.5t-78.5 -16.5t-80 -14t-60.5 -7l-43 157q59 12 133.5 41t148 66t137 75.5t101.5 69.5h2l112 -48l-4 -1365l257 -28v-126h-856v126z" />
<glyph horiz-adv-x="1335" d="M130 121q137 92 257.5 206.5t210.5 239.5t142 254.5t52 251.5q0 61 -17.5 107.5t-49.5 77.5t-76 47t-98 16t-101.5 -14.5t-87 -37t-71.5 -49t-55 -51.5l-103 118q27 44 76.5 88.5t115.5 80.5t146 59t168 23q129 0 219 -35.5t146.5 -93t82 -131.5t25.5 -151 q0 -87 -27.5 -174.5t-75.5 -172.5t-111.5 -166.5t-136.5 -157t-150.5 -144t-152.5 -126.5l532 43l75 156l146 -29l-56 -356h-980z" />
<glyph horiz-adv-x="1335" d="M211 178q19 -7 45 -12t54.5 -8t58 -4.5t55.5 -1.5q90 0 164.5 20.5t128.5 59.5t84 96t30 130q0 45 -14.5 88.5t-47.5 78.5t-86 58.5t-129 27.5l-135 -24l-53 146q42 6 85.5 19.5t80.5 26.5q124 45 185.5 114t62.5 155q0 52 -17 88t-45.5 58.5t-65.5 32.5t-75 10 q-100 0 -179.5 -29t-142.5 -74l-75 130q25 24 73 54t111.5 57t138.5 45t153 18q92 0 172 -20t138.5 -62t92 -106.5t33.5 -152.5q0 -73 -25.5 -134.5t-72 -112.5t-112 -90.5t-146.5 -69.5q103 5 183 -19.5t134.5 -69t83 -104t28.5 -125.5q0 -114 -48 -205.5t-138.5 -156 t-221 -99t-295.5 -34.5q-30 0 -65 2.5t-69 7t-65 11t-52 13.5v167z" />
<glyph horiz-adv-x="1335" d="M50 514q60 104 122.5 235t118 273.5t97.5 290.5t62 286h88l228 -47q-30 -143 -72.5 -271.5t-91.5 -243.5t-101.5 -215t-103.5 -186l-51 -85l432 30l15 443h260v-424l201 14v-234h-201v-380h-277v380h-639z" />
<glyph horiz-adv-x="1335" d="M225 147q33 -2 67.5 -3t66.5 -1q101 0 190 29.5t155 80.5t104.5 120.5t38.5 149.5q0 67 -20 115.5t-56.5 79.5t-88.5 45.5t-116 14.5q-38 0 -78 -4t-78 -11.5t-73.5 -17t-65.5 -19.5l-72 53l84 743h660l21 39h147l-48 -297h-589l-50 -344q85 28 161.5 40.5t151.5 12.5 q111 0 194 -30.5t138 -86t82.5 -133t27.5 -171.5q0 -82 -28 -156t-79.5 -138t-123.5 -116t-160 -88.5t-190 -56.5t-213 -20q-38 0 -79.5 3t-81.5 11z" />
<glyph horiz-adv-x="1323" d="M126 617q0 132 34 253t94 226.5t141.5 193.5t176.5 153.5t199 107t209 54.5l61 -118q-114 -33 -205.5 -90.5t-161 -133t-117.5 -165t-76 -185.5q20 19 46.5 37.5t62 32.5t81.5 23t106 9q101 0 179.5 -33.5t132 -95.5t81.5 -149.5t28 -196.5q0 -112 -34 -213 t-102.5 -177.5t-170.5 -122t-238 -45.5q-131 0 -230 49.5t-165 135.5t-99 201.5t-33 248.5zM672 117q59 0 101 32t69 82.5t39.5 113t12.5 124.5q0 99 -15.5 170t-44 116.5t-68.5 67t-89 21.5q-48 0 -85 -10t-65 -25.5t-48 -34.5t-33 -37q-6 -51 -6 -102q-2 -113 6 -208 t33 -164t71.5 -107.5t121.5 -38.5z" />
<glyph horiz-adv-x="1335" d="M365 49q82 165 161 328t152 320.5t139.5 307.5t124.5 288l-571 -13l-76 -227l-175 28l50 441h976l69 -83l-529 -1476l-321 86v0z" />
<glyph horiz-adv-x="1335" d="M130 381q0 115 68 211t217 165q-45 33 -83.5 72t-67 87.5t-45 107.5t-16.5 132q0 97 40.5 169t107.5 119t151.5 70.5t173.5 23.5q116 0 200 -23.5t139 -67t81 -104.5t26 -135q0 -106 -53 -198.5t-170 -164.5q62 -36 119 -77t100.5 -92t69.5 -114.5t26 -143.5 q0 -102 -42.5 -183t-118 -137.5t-178.5 -86t-223 -29.5q-65 0 -128.5 9.5t-121.5 29.5t-108 52t-86.5 76t-57 102t-20.5 130zM776 913q54 47 81 108t27 127q0 134 -51.5 202.5t-157.5 68.5q-45 0 -82.5 -12t-64.5 -36t-41.5 -60.5t-14.5 -85.5q0 -54 25 -97.5t67 -80.5 t97 -69.5t115 -64.5zM402 430q0 -71 15 -130t47.5 -102t83.5 -67t123 -24q43 0 84.5 15t74 43.5t52 71t19.5 98.5q0 66 -33 114t-87 88t-121.5 75t-136.5 75q-56 -44 -88.5 -107t-32.5 -150z" />
<glyph horiz-adv-x="1323" d="M310 44q114 33 202.5 89.5t154.5 130t110 161t69 182.5q-19 -20 -44.5 -39t-61 -34t-82.5 -24t-109 -9q-100 0 -179 34t-133.5 97t-83 152.5t-28.5 200.5q0 110 34.5 210.5t103 176.5t171 121t238.5 45q135 0 233.5 -50t163.5 -136.5t96.5 -203t31.5 -249.5 q0 -132 -32 -252t-89 -224t-135 -190t-169.5 -150t-193.5 -104.5t-207 -53.5zM646 672q49 0 86 10t65 26t47.5 35.5t32.5 37.5q5 51 6 101q2 112 -5 207.5t-31.5 165.5t-71 109t-122.5 39q-59 0 -101.5 -31.5t-69.5 -82t-40 -112t-13 -121.5q0 -101 17 -174t46.5 -119.5 t69 -68.5t84.5 -22z" />
<glyph horiz-adv-x="1335" d="M652 -18q-108 0 -191.5 31.5t-146 87t-105.5 132t-69.5 166t-37.5 188.5t-10 200q2 172 47 311t123 237t184.5 150.5t232.5 52.5q113 0 198.5 -27.5t148.5 -78t105 -120t67 -154t35.5 -181t9.5 -199.5q-1 -173 -43 -318.5t-119 -251.5t-186 -166t-243 -60zM830 1286 q-29 55 -70 84.5t-94 29.5q-71 0 -118.5 -38t-76.5 -113.5t-41.5 -189t-12.5 -263.5q0 -115 10 -223.5t33 -199.5zM511 230q29 -56 66 -87t85 -31q73 0 122.5 42.5t79 125.5t42 205.5t12.5 283.5q0 110 -9 205t-28 173z" />
<glyph horiz-adv-x="1300" d="M81 598q2 129 47 234.5t122.5 181t182.5 117t227 41.5q165 0 273.5 -49.5t172 -132t89 -190t24.5 -224.5q-2 -128 -45.5 -236.5t-120.5 -188t-184 -124.5t-234 -45q-108 0 -191.5 24t-145.5 67t-104 102t-67.5 127.5t-36 143.5t-9.5 152zM644 105q73 0 120.5 31t76 90 t40 145t11.5 196q0 97 -12.5 184t-41.5 152t-76 103t-116 38q-70 0 -116 -29t-73.5 -85t-39 -137t-11.5 -186q0 -96 12.5 -186.5t40.5 -160.5t73.5 -112.5t111.5 -42.5z" />
<glyph horiz-adv-x="1300" d="M249 126l295 24v687q-19 -6 -58 -13t-82 -13t-83 -10.5t-61 -5.5l-26 149q61 12 134.5 37.5t145 58t133 67.5t98.5 66h2l111 -42v-981l278 -24v-126h-887v126z" />
<glyph horiz-adv-x="1300" d="M105 121q137 65 253 138.5t200 152.5t131.5 162.5t47.5 168.5q0 49 -15.5 89.5t-44.5 69.5t-71 44.5t-94 15.5q-51 0 -97 -13t-85 -33t-70 -43t-52 -42l-80 118q28 40 78.5 80t115.5 71.5t142 51.5t159 20q122 0 204.5 -28.5t133 -77.5t72 -114.5t21.5 -138.5 q0 -83 -44.5 -165.5t-121.5 -161t-181 -151t-223 -136.5l491 30l76 145l145 -29l-56 -345h-990z" />
<glyph horiz-adv-x="1300" d="M183 -241q19 -6 45 -11t55 -8.5t58.5 -5t55.5 -1.5q93 0 170 23t132.5 65.5t86 102.5t30.5 133q0 47 -14.5 91.5t-47.5 79.5t-86 58t-129 27l-150 -29l-53 146q47 7 94 21.5t86 28.5q64 24 110.5 57.5t77.5 73t46 83.5t15 89q0 52 -17 88t-45.5 58.5t-65 32.5t-74.5 10 q-97 0 -173 -27t-137 -72l-75 130q24 24 71 53.5t108.5 55t134.5 43t149 17.5q92 0 172 -20t138.5 -61t92 -105.5t33.5 -152.5q0 -76 -25 -143t-71.5 -123t-112.5 -100.5t-147 -74.5q103 6 183 -18t134 -68.5t82.5 -105.5t28.5 -128q0 -114 -48.5 -208t-140.5 -162 t-224.5 -105.5t-300.5 -37.5q-30 0 -65.5 2.5t-69.5 7t-65 10.5t-52 13v167v0z" />
<glyph horiz-adv-x="1300" d="M53 134q38 69 86.5 163.5t102 202t110 223t110 227.5t102 214.5t85.5 184.5h59l242 -132l-491 -877l-109 -158l415 23l19 317l255 21v-323l223 13v-233h-223v-376h-277v376h-625z" />
<glyph horiz-adv-x="1300" d="M200 -341q29 -2 58.5 -3t57.5 -1q105 0 196.5 33.5t159.5 92.5t107 138.5t39 172.5q0 77 -20 131t-57 87.5t-90 49t-119 15.5q-33 0 -69.5 -4t-72 -11t-68.5 -16.5t-59 -19.5l-72 52l101 757h642l22 39h146l-47 -297h-572l-71 -374q72 28 146 43t140 15q108 0 193.5 -27 t144.5 -82t90.5 -138t31.5 -194q0 -86 -28.5 -166t-81.5 -149.5t-127 -126.5t-164.5 -97.5t-195.5 -63t-219 -22.5q-34 0 -71 3t-72 11l1 152v0z" />
<glyph horiz-adv-x="1289" d="M88 631q0 142 33.5 271t93 240t141 202.5t176.5 160.5t199.5 112t211.5 58l61 -119q-104 -33 -188 -88.5t-149.5 -126.5t-113.5 -153.5t-79 -169.5t-46 -175.5t-15 -171.5q0 -57 3.5 -120.5t13 -125t26.5 -117.5t44.5 -98.5t66.5 -67.5t92 -25q42 0 75.5 20.5t59.5 55 t45 79.5t31 93.5t17.5 97.5t5.5 92q0 121 -16 200t-43 125t-62 64.5t-72 18.5q-29 0 -48.5 -2.5t-37.5 -7.5l-40 106q12 11 32.5 24t49.5 24.5t67.5 19.5t85.5 8q92 0 166 -34.5t126 -102t80 -167t28 -229.5q0 -76 -15.5 -151.5t-46.5 -144t-78 -128t-110.5 -103t-143 -68.5 t-176.5 -25q-138 0 -241.5 52t-172.5 140.5t-103 206.5t-34 250z" />
<glyph horiz-adv-x="1300" d="M328 -456q54 110 109.5 228t111 238.5t109 241t103.5 235t94.5 221t82.5 198.5l-568 -13l-76 -227l-176 28l51 441h966l69 -83l-555 -1594l-321 86v0z" />
<glyph horiz-adv-x="1300" d="M92 375q0 113 69.5 209.5t219.5 166.5q-46 32 -85.5 71t-69 87t-46 107t-16.5 132q0 97 42.5 170t111.5 122t157 73.5t179 24.5q119 0 206 -25t143.5 -70t84 -107t27.5 -136q0 -106 -53.5 -199t-172.5 -166q63 -35 120.5 -75.5t101.5 -91t70 -113.5t26 -142 q0 -102 -44 -182t-122 -135t-183.5 -83.5t-228.5 -28.5q-66 0 -131.5 9t-125 28.5t-111 50t-89 74t-59 100.5t-21.5 129zM765 900q57 48 85.5 111t28.5 129q0 134 -61.5 206.5t-173.5 72.5q-44 0 -82 -13t-66 -38.5t-44.5 -63.5t-16.5 -87q0 -56 27 -100.5t73 -81.5 t105.5 -69.5t124.5 -65.5zM362 425q0 -71 16 -129t50.5 -99.5t88.5 -64.5t129 -23q46 0 90 13.5t78.5 41t56 69t21.5 97.5q0 67 -35 115.5t-91.5 87.5t-128 74t-143.5 74q-59 -45 -95.5 -108t-36.5 -148z" />
<glyph horiz-adv-x="1289" d="M482 15q-91 0 -164 36.5t-124 107.5t-78.5 174t-27.5 237q0 74 15.5 148t46 140.5t77.5 124t110.5 99.5t143 66t176.5 24q139 0 242.5 -51t172.5 -138.5t103 -204t34 -246.5q0 -144 -33.5 -274t-93 -242.5t-141 -205.5t-176.5 -162.5t-199.5 -113.5t-211.5 -59l-61 119 q103 34 187 90t150 128t113.5 155.5t78.5 172t46 178.5t15 174q0 58 -3.5 120.5t-13 123t-26.5 115t-44 96t-66 66t-92 24.5q-42 0 -75.5 -19.5t-59.5 -52.5t-45 -76t-31 -89.5t-17.5 -94t-5.5 -88.5q0 -125 17.5 -208t45.5 -132t64 -69t73 -20q29 0 44.5 2t34.5 7l46 -105 q-13 -11 -33 -24.5t-50 -25t-70.5 -19.5t-93.5 -8z" />
<glyph horiz-adv-x="1300" d="M81 598q2 129 47 234.5t122.5 181t182.5 117t227 41.5q165 0 273.5 -49.5t172 -132t89 -190t24.5 -224.5q-2 -128 -45.5 -236.5t-120.5 -188t-184 -124.5t-234 -45q-108 0 -191.5 24t-145.5 67t-104 102t-67.5 127.5t-36 143.5t-9.5 152zM775 994q-53 50 -129 50 q-70 0 -116 -29t-73.5 -85t-39 -137t-11.5 -186q0 -97 12 -188t41 -161zM523 155q50 -50 121 -50q73 0 120.5 31t76 90t40 145t11.5 196q0 95 -12 179t-40 149z" />
<glyph d="M171 661l265 24v630q-30 -11 -63 -20.5t-65.5 -17t-62.5 -13t-55 -9.5l-41 138q42 12 96 29.5t111.5 40.5t112.5 51.5t99 62.5h4l102 -17v-875l226 -24v-132h-729v132z" />
<glyph d="M94 645q56 34 116.5 77t118 92t109 102t90.5 108t61.5 109.5t22.5 106.5q0 75 -45 119t-140 44q-45 0 -84.5 -10t-72 -25t-58 -32.5t-42.5 -31.5l-74 102q19 27 59.5 57.5t95 56t119 42t133.5 16.5q96 0 163.5 -25t110.5 -66.5t62.5 -95.5t19.5 -112q0 -80 -45.5 -161.5 t-120.5 -160t-171.5 -150.5t-198.5 -133l421 43l89 148l123 -25l-51 -311h-767z" />
<glyph d="M32 794q8 16 29.5 54.5t51 91t65 116t73 130t74.5 133t69 125.5t57 106.5t38 76.5h74l169 -84l-381 -572l-85 -131l315 18l15 239l210 17v-243l178 10l1 -181h-179v-224h-226v224h-477z" />
<glyph d="M162 686q22 -10 52 -18t62 -14t63 -9t54 -3q135 0 208 46t73 140q0 28 -13.5 56.5t-39.5 51.5t-65.5 38t-90.5 15l-110 -34l-42 121q31 5 73.5 18t78.5 29q73 35 109 75.5t36 105.5q0 25 -8 45.5t-27 35t-49.5 22.5t-75.5 8q-67 0 -129 -25t-102 -61l-66 125 q22 21 59.5 43t84.5 40t100 29.5t107 11.5q81 0 146.5 -17.5t112 -49t71.5 -75.5t25 -98q0 -45 -12.5 -86.5t-41 -78t-75 -66.5t-114.5 -52q86 4 146.5 -17t99 -57t56 -81.5t17.5 -89.5q0 -70 -33 -129t-96.5 -102t-156.5 -67.5t-212 -24.5q-31 0 -68.5 4.5t-75 13t-72 19 t-59.5 22.5v140z" />
<glyph d="M528 510q-73 0 -148 16t-136.5 50.5t-100.5 88.5t-39 131q0 71 45.5 135t148.5 109q-32 21 -59.5 47t-47.5 58t-31.5 70.5t-11.5 86.5q0 69 34 121t88.5 86.5t123 51.5t137.5 17q90 0 158.5 -18t115 -50t70 -75.5t23.5 -93.5q0 -69 -39 -133.5t-127 -115.5q46 -21 88 -47 t73.5 -58.5t50.5 -74t19 -93.5q1 -72 -34 -129t-94.5 -97t-139 -61.5t-167.5 -21.5zM625 1136q45 32 67.5 74t22.5 81q0 41 -14.5 73t-40 54.5t-60 34.5t-75.5 12q-33 0 -62.5 -9t-52 -25.5t-36 -39.5t-13.5 -52q0 -38 22 -66.5t58.5 -52t84.5 -43.5t99 -41zM532 626 q33 0 64 9.5t55.5 26.5t39.5 41.5t15 53.5q0 45 -28 76.5t-73 57t-101 48.5t-112 50q-38 -29 -59 -69.5t-21 -88.5q0 -43 14 -80.5t42 -65t69 -43.5t95 -16z" />
<glyph d="M211 623q23 -5 50.5 -6.5t50.5 -1.5q74 0 137 18.5t109.5 51.5t72.5 78.5t26 99.5q0 89 -53.5 131.5t-150.5 42.5q-32 0 -64 -4t-60 -10t-50.5 -12.5t-35.5 -11.5l-69 47l60 522h642l-21 -180h-466l-34 -250q19 7 47 14.5t59.5 13.5t64 9.5t61.5 3.5q95 0 159 -23 t102.5 -63.5t55 -95t16.5 -118.5q0 -84 -45.5 -156t-124 -124t-183.5 -81.5t-224 -29.5q-35 0 -72.5 3t-72.5 12z" />
<glyph d="M326 516q127 237 238.5 455.5t202.5 417.5l-418 1l-54 -177l-149 19l39 336h749l50 -63l-411 -1054l-247 65v0z" />
<glyph d="M514 541q-127 0 -212.5 45.5t-136.5 121t-72 172.5t-20 198q1 121 37 218t98 165.5t145.5 105.5t180.5 37q133 0 219 -42.5t136 -115.5t69 -169.5t18 -205.5q-1 -114 -34.5 -211t-94 -167.5t-145.5 -111t-188 -40.5zM521 651q58 0 95 25.5t58 77t28.5 129.5t7.5 182 q0 94 -8.5 172.5t-30 135t-57.5 88t-91 31.5q-56 0 -91.5 -25t-56 -76t-28.5 -127t-8 -178q0 -87 8.5 -166t29.5 -139t56 -95t88 -35z" />
<glyph d="M523 510q-99 0 -175 34t-128 95t-79 143.5t-27 180.5q0 96 25 183.5t69 163.5t104 139.5t130.5 111t147.5 77t156 39.5l53 -90q-89 -25 -157.5 -69t-119 -99.5t-84 -119.5t-52.5 -129q37 32 98.5 57t147.5 25q76 0 135 -25t99.5 -70.5t61.5 -109.5t21 -142 q0 -79 -27 -150.5t-80.5 -126t-133.5 -86.5t-185 -32zM539 624q45 0 76.5 19t51.5 52t29 77.5t9 96.5q0 70 -14 117t-37.5 75.5t-53.5 40.5t-62 12q-42 0 -71 -6.5t-49.5 -17t-33.5 -23t-22 -24.5q-1 -10 -1.5 -19.5t-0.5 -19.5q-1 -83 7 -153t28.5 -120.5t55.5 -78.5 t88 -28z" />
<glyph d="M269 520q84 24 149.5 65t114 93t81 112t51.5 122q-38 -36 -90.5 -55t-130.5 -19q-73 0 -134.5 26.5t-106.5 74t-70 113.5t-25 146t29 149.5t83.5 120.5t133.5 80.5t180 29.5q98 0 173.5 -34.5t127.5 -96t78.5 -145t26.5 -180.5q0 -96 -24 -182t-66.5 -159.5t-101 -134 t-127 -105.5t-145 -73.5t-154.5 -37.5zM524 976q34 0 59.5 4.5t45 13.5t34.5 22t28 30q3 27 3 55q0 174 -41.5 266.5t-138.5 92.5q-81 0 -123 -62.5t-42 -170.5q0 -74 15.5 -122t40 -77t56 -40.5t63.5 -11.5z" />
<glyph d="M514 12q-127 0 -212.5 45.5t-136.5 121t-72 172.5t-20 198q1 121 37 218t98 165.5t145.5 105.5t180.5 37q133 0 219 -42.5t136 -115.5t69 -169.5t18 -205.5q-1 -114 -34.5 -211t-94 -167.5t-145.5 -111t-188 -40.5zM521 122q58 0 95 25.5t58 77t28.5 129.5t7.5 182 q0 94 -8.5 172.5t-30 135t-57.5 88t-91 31.5q-56 0 -91.5 -25t-56 -76t-28.5 -127t-8 -178q0 -87 8.5 -166t29.5 -139t56 -95t88 -35z" />
<glyph d="M171 132l265 24v630q-30 -11 -63 -20.5t-65.5 -17t-62.5 -13t-55 -9.5l-41 138q42 12 96 29.5t111.5 40.5t112.5 51.5t99 62.5h4l102 -17v-875l226 -24v-132h-729v132z" />
<glyph d="M94 116q56 34 116.5 77t118 92t109 102t90.5 108t61.5 109.5t22.5 106.5q0 75 -45 119t-140 44q-45 0 -84.5 -10t-72 -25t-58 -32.5t-42.5 -31.5l-74 102q19 27 59.5 57.5t95 56t119 42t133.5 16.5q96 0 163.5 -25t110.5 -66.5t62.5 -95.5t19.5 -112q0 -80 -45.5 -161.5 t-120.5 -160t-171.5 -150.5t-198.5 -133l421 43l89 148l123 -25l-51 -311h-767z" />
<glyph d="M162 157q22 -10 52 -18t62 -14t63 -9t54 -3q135 0 208 46t73 140q0 28 -13.5 56.5t-39.5 51.5t-65.5 38t-90.5 15l-110 -34l-42 121q31 5 73.5 18t78.5 29q73 35 109 75.5t36 105.5q0 25 -8 45.5t-27 35t-49.5 22.5t-75.5 8q-67 0 -129 -25t-102 -61l-66 125 q22 21 59.5 43t84.5 40t100 29.5t107 11.5q81 0 146.5 -17.5t112 -49t71.5 -75.5t25 -98q0 -45 -12.5 -86.5t-41 -78t-75 -66.5t-114.5 -52q86 4 146.5 -17t99 -57t56 -81.5t17.5 -89.5q0 -70 -33 -129t-96.5 -102t-156.5 -67.5t-212 -24.5q-31 0 -68.5 4.5t-75 13t-72 19 t-59.5 22.5v140z" />
<glyph d="M32 265q8 16 29.5 54.5t51 91t65 116t73 130t74.5 133t69 125.5t57 106.5t38 76.5h74l169 -84l-381 -572l-85 -131l315 18l15 239l210 17v-243l178 10l1 -181h-179v-224h-226v224h-477z" />
<glyph d="M211 94q23 -5 50.5 -6.5t50.5 -1.5q74 0 137 18.5t109.5 51.5t72.5 78.5t26 99.5q0 89 -53.5 131.5t-150.5 42.5q-32 0 -64 -4t-60 -10t-50.5 -12.5t-35.5 -11.5l-69 47l60 522h642l-21 -180h-466l-34 -250q19 7 47 14.5t59.5 13.5t64 9.5t61.5 3.5q95 0 159 -23 t102.5 -63.5t55 -95t16.5 -118.5q0 -84 -45.5 -156t-124 -124t-183.5 -81.5t-224 -29.5q-35 0 -72.5 3t-72.5 12z" />
<glyph d="M523 -19q-99 0 -175 34t-128 95t-79 143.5t-27 180.5q0 96 25 183.5t69 163.5t104 139.5t130.5 111t147.5 77t156 39.5l53 -90q-89 -25 -157.5 -69t-119 -99.5t-84 -119.5t-52.5 -129q37 32 98.5 57t147.5 25q76 0 135 -25t99.5 -70.5t61.5 -109.5t21 -142 q0 -79 -27 -150.5t-80.5 -126t-133.5 -86.5t-185 -32zM539 95q45 0 76.5 19t51.5 52t29 77.5t9 96.5q0 70 -14 117t-37.5 75.5t-53.5 40.5t-62 12q-42 0 -71 -6.5t-49.5 -17t-33.5 -23t-22 -24.5q-1 -10 -1.5 -19.5t-0.5 -19.5q-1 -83 7 -153t28.5 -120.5t55.5 -78.5t88 -28 z" />
<glyph d="M326 -13q127 237 238.5 455.5t202.5 417.5l-418 1l-54 -177l-149 19l39 336h749l50 -63l-411 -1054l-247 65v0z" />
<glyph d="M535 -19q-73 0 -148 16t-136.5 50.5t-100.5 88.5t-39 131q0 71 45.5 135t148.5 109q-32 21 -59.5 47t-47.5 58t-31.5 70.5t-11.5 86.5q0 69 34 121t88.5 86.5t123 51.5t137.5 17q90 0 158.5 -18t115 -50t70 -75.5t23.5 -93.5q0 -69 -39 -133.5t-127 -115.5q46 -21 88 -47 t73.5 -58.5t50.5 -74t19 -93.5q1 -72 -34 -129t-94.5 -97t-139 -61.5t-167.5 -21.5zM632 607q45 32 67.5 74t22.5 81q0 41 -14.5 73t-40 54.5t-60 34.5t-75.5 12q-33 0 -62.5 -9t-52 -25.5t-36 -39.5t-13.5 -52q0 -38 22 -66.5t58.5 -52t84.5 -43.5t99 -41zM539 97 q33 0 64 9.5t55.5 26.5t39.5 41.5t15 53.5q0 45 -28 76.5t-73 57t-101 48.5t-112 50q-38 -29 -59 -69.5t-21 -88.5q0 -43 14 -80.5t42 -65t69 -43.5t95 -16z" />
<glyph d="M269 -9q84 24 149.5 65t114 93t81 112t51.5 122q-38 -36 -90.5 -55t-130.5 -19q-73 0 -134.5 26.5t-106.5 74t-70 113.5t-25 146t29 149.5t83.5 120.5t133.5 80.5t180 29.5q98 0 173.5 -34.5t127.5 -96t78.5 -145t26.5 -180.5q0 -96 -24 -182t-66.5 -159.5t-101 -134 t-127 -105.5t-145 -73.5t-154.5 -37.5zM524 447q34 0 59.5 4.5t45 13.5t34.5 22t28 30q3 27 3 55q0 174 -41.5 266.5t-138.5 92.5q-81 0 -123 -62.5t-42 -170.5q0 -74 15.5 -122t40 -77t56 -40.5t63.5 -11.5z" />
<glyph horiz-adv-x="1040" d="M438 1692l317 322h1l197 -141q-17 -28 -47 -56.5t-66.5 -56.5t-77 -53.5t-78.5 -46t-71.5 -35.5t-55.5 -21h-1z" />
<glyph horiz-adv-x="1038" d="M495 1604q-22 6 -55.5 21t-71.5 35.5t-78.5 46t-77 53.5t-66.5 56.5t-47 56.5l197 141h1l317 -322l-118 -88h-1v0z" />
<glyph horiz-adv-x="574" d="M271 1647q-35 0 -62.5 13t-46 35t-28 51.5t-9.5 62.5q0 39 10.5 73.5t32.5 60.5t54 41t76 15h1q40 0 70 -13.5t50 -36t29.5 -51.5t9.5 -61q0 -40 -11 -74.5t-33.5 -60t-58 -40.5t-83.5 -15h-1v0z" />
<glyph horiz-adv-x="1020" d="M754 1645q-35 0 -62.5 13t-46 35t-28 51.5t-9.5 62.5q0 39 10.5 73.5t32 60t54 40.5t76.5 15h1q40 0 70 -13t49.5 -35.5t29.5 -51.5t10 -61q0 -40 -11 -75t-34 -60.5t-58 -40t-83 -14.5h-1zM226 1645q-35 0 -62 13t-46 35t-28.5 51.5t-9.5 62.5q0 39 10.5 73.5t32.5 60 t54 40.5t76 15h1q40 0 70 -13t50 -35.5t29.5 -51.5t9.5 -61q0 -40 -11 -75t-33.5 -60.5t-58 -40t-83.5 -14.5h-1z" />
<glyph horiz-adv-x="679" d="M-39 1927l109 87l266 -191l279 191l105 -85l-284 -301h-201z" />
<glyph horiz-adv-x="1062" d="M133 1701l293 313h200l294 -312l-108 -86l-286 197l-288 -197z" />
<glyph horiz-adv-x="681" d="M31 1916h623v-194h-623v194z" />
<glyph horiz-adv-x="1022" d="M513 1621q-93 0 -162.5 28t-116 75t-69.5 108.5t-23 127.5q0 22 3 45h151q0 -4 0.5 -9.5t1.5 -13.5q4 -21 15.5 -48.5t36 -52t64.5 -42t101 -17.5t100 17.5t62 42.5t33 52.5t13 47.5q1 8 1 13.5v9.5h153q1 -11 1.5 -21.5t0.5 -21.5q0 -66 -23.5 -128t-70 -109t-115 -75.5 t-157.5 -28.5z" />
<glyph horiz-adv-x="1022" d="M51 1794q13 31 39.5 69t65 70t89.5 54t113 22q43 0 78 -12.5t65 -31t56 -40.5t51 -40.5t50.5 -31t54.5 -12.5q34 0 58 11t41 27.5t29 35t23 32.5l105 -88q-19 -39 -45 -78t-61 -69.5t-80 -49.5t-101 -19q-42 0 -77.5 12.5t-66 31.5t-58 40.5t-54.5 40.5t-55 31.5 t-59 12.5q-32 0 -56.5 -12t-43.5 -29t-33 -35t-24 -30z" />
<glyph horiz-adv-x="874" d="M433 1494q-93 0 -159.5 21t-108.5 57t-61 83.5t-18 101.5q1 62 32 110t81.5 80.5t115 49.5t133.5 17h1q86 0 150 -20t106 -55.5t62.5 -83.5t20.5 -103q-1 -62 -29 -110t-76 -81t-112.5 -50t-136.5 -17h-1zM439 1607q45 0 74.5 9.5t47.5 27.5t25 43.5t7 57.5q0 31 -7.5 59 t-25.5 49t-47.5 33.5t-72.5 12.5h-1q-45 0 -75 -10t-48.5 -29t-26 -45t-7.5 -58q0 -28 8 -55t26.5 -48t48.5 -34t73 -13h1z" />
<glyph horiz-adv-x="1020" d="M642 1717l298 297l165 -137q-28 -37 -70 -76t-89.5 -75t-95 -66t-86.5 -49zM103 1717l288 297l174 -139q-34 -41 -77.5 -80t-89.5 -73.5t-91 -63t-82 -47.5z" />
<glyph horiz-adv-x="342" d="M95 1048l-7 26q15 88 19 161t4 128q0 40 -5 78t-12.5 70t-16.5 56t-18 35l15 42l214 53q14 -15 26 -44.5t20.5 -66t13 -77.5t4.5 -80q0 -60 -10.5 -122t-28 -118t-40 -102.5t-46.5 -76.5z" />
<glyph horiz-adv-x="1580" d="M926 134l146 19v770l-135 43v150l367 49h5l73 -43v-968l145 -20v-134h-601v134zM72 132l160 27v806h-176v120l176 50v58q0 79 22.5 147.5t61.5 126t91 102.5t111.5 75.5t122.5 47t125 16.5q51 0 77 -6t40 -11v-299q-14 13 -37 27t-52.5 24.5t-63.5 17.5t-69 7 q-27 0 -49 -6t-37.5 -21.5t-24 -42t-8.5 -67.5l1 -196h257v-170h-257v-812l222 -21v-132h-693v132z" />
<glyph horiz-adv-x="2425" d="M72 132l160 27v806h-176v120l176 50v47q0 77 22.5 144t61.5 123t91 100t111.5 74t122.5 46t125 16q51 0 77 -6t40 -11v-299q-14 13 -37 27t-52.5 24.5t-63.5 17.5t-69 7q-27 0 -49 -6t-37.5 -21.5t-24 -42t-8.5 -67.5l1 -173h257v-170h-257v-812l222 -21v-132h-693v132z M1771 134l146 19v770l-135 43v150l367 49h5l73 -43v-968l145 -20v-134h-601v134zM916 132l160 27v806h-176v120l176 50v58q0 79 22.5 147.5t61.5 126t91 102.5t111.5 75.5t122.5 47t125 16.5q51 0 77 -6t40 -11v-299q-14 13 -37 27t-52.5 24.5t-63.5 17.5t-69 7 q-27 0 -49 -6t-37.5 -21.5t-24 -42t-8.5 -67.5l1 -196h257v-170h-257v-812l222 -21v-132h-693v132z" />
<glyph horiz-adv-x="0" />
</font>
</defs>
</svg>
