<?xml version="1.0" standalone="no"?>
<!DOCTYPE svg PUBLIC "-//W3C//DTD SVG 1.1//EN" "http://www.w3.org/Graphics/SVG/1.1/DTD/svg11.dtd" >
<svg xmlns="http://www.w3.org/2000/svg">
<metadata></metadata>
<defs>
<font id="haufemerriweatherregular" horiz-adv-x="1028" >
<font-face units-per-em="2048" ascent="1638" descent="-410" />
<missing-glyph horiz-adv-x="662" />
<glyph horiz-adv-x="0" />
<glyph horiz-adv-x="0" />
<glyph unicode="&#x9;" horiz-adv-x="0" />
<glyph unicode="&#xa;" horiz-adv-x="0" />
<glyph horiz-adv-x="0" />
<glyph horiz-adv-x="0" />
<glyph horiz-adv-x="0" />
<glyph horiz-adv-x="0" />
<glyph horiz-adv-x="0" />
<glyph horiz-adv-x="0" />
<glyph horiz-adv-x="0" />
<glyph unicode=" "  horiz-adv-x="662" />
<glyph unicode="&#x09;" horiz-adv-x="662" />
<glyph unicode="&#xa0;" horiz-adv-x="662" />
<glyph unicode="!" horiz-adv-x="729" d="M224 1780h256l-57 -1260h-137zM209 116q0 34 14.5 64t37.5 51.5t53 34t61 12.5q38 0 65.5 -11t45 -30t25.5 -43.5t8 -52.5q0 -37 -13.5 -67t-37 -51t-54 -32.5t-63.5 -11.5q-28 0 -54 9.5t-45.5 27t-31 43t-11.5 57.5z" />
<glyph unicode="&#x22;" horiz-adv-x="1278" d="M782 1684h240l-51 -734h-140zM257 1684h240l-51 -734h-140z" />
<glyph unicode="#" horiz-adv-x="1523" d="M386 362h-217v135h231l36 396h-233v135h247l30 345h173l-30 -345h320l31 345h173l-31 -345h237v-135h-250l-34 -396h240v-135h-254l-32 -362h-173l31 362h-322l-33 -362h-175zM890 497l40 396h-321l-36 -396h317z" />
<glyph unicode="$" horiz-adv-x="1370" d="M227 411h135l50 -238q47 -45 112.5 -62.5t148.5 -17.5q136 0 210.5 60t74.5 186q0 58 -29.5 104.5t-80 88t-117.5 80.5t-143 81q-92 52 -161 102t-115.5 107t-70 124.5t-23.5 154.5q0 75 31.5 135.5t85 104.5t125 72t151.5 39v230h163v-225q58 -4 108 -13t90 -20 t70 -22.5t49 -20.5l-13 -324h-129l-57 231q-32 30 -75.5 44.5t-114.5 13.5q-51 0 -100 -12t-86.5 -37.5t-60.5 -66t-23 -97.5q0 -60 27 -106.5t70.5 -84.5t99.5 -72t115 -69q104 -63 185 -114.5t137 -106t85.5 -119.5t29.5 -155q0 -85 -29 -155.5t-84.5 -123t-136.5 -85 t-186 -41.5l-2 -239h-163l2 238q-62 5 -120.5 16t-108 24t-87 26t-56.5 23z" />
<glyph unicode="%" horiz-adv-x="2097" d="M1286 1538h170l-656 -1538h-170zM471 659q-83 0 -150 33t-114 90t-72.5 132.5t-25.5 159.5q0 103 33 183.5t87.5 135.5t126.5 83.5t150 28.5q94 0 162.5 -32.5t113 -89.5t66 -133.5t21.5 -163.5q0 -104 -33.5 -183.5t-89 -133.5t-127 -82t-148.5 -28zM486 779 q46 0 79.5 22t55.5 62t32.5 94t10.5 119t-10.5 121.5t-32 98t-54 65t-75.5 23.5q-46 0 -79 -22.5t-54.5 -62.5t-32 -95t-10.5 -119q0 -61 10 -116.5t31 -97.5t53 -67t76 -25zM1217 459q0 103 33 183.5t87.5 135.5t126.5 83.5t150 28.5q94 0 162.5 -32.5t113 -89.5t66 -133.5 t21.5 -163.5q0 -103 -33.5 -182.5t-89 -134t-127.5 -82.5t-148 -28q-84 0 -151 33t-114 90t-72 132.5t-25 159.5zM1423 470q0 -61 10.5 -116.5t31.5 -97.5t53 -67t75 -25q46 0 80 22t56 62t32.5 94t10.5 119t-10.5 121.5t-32 98t-54 65.5t-76.5 24q-45 0 -78.5 -22.5 t-55 -63t-32 -95.5t-10.5 -119z" />
<glyph unicode="&#x26;" horiz-adv-x="1551" d="M127 371q0 71 24.5 128.5t65 104.5t92.5 85.5t108 71.5q-33 44 -64 95.5t-55 106t-38.5 111.5t-14.5 112q0 72 30 136t83.5 112t127 76.5t160.5 28.5q92 0 159.5 -25.5t111.5 -65.5t65.5 -90.5t21.5 -99.5q0 -92 -27.5 -159.5t-73 -121.5t-104 -99t-120.5 -91 q35 -44 83 -101t99 -115.5t100 -112.5t86 -92l41 -40q31 41 51 87.5t30.5 95t12.5 96t-2 91.5l-163 25v125h493v-125l-158 -25q1 -72 -11 -139t-34 -127t-53 -111t-68 -90q53 -50 110 -83.5t134 -40.5v-96q-11 -6 -30.5 -11t-40.5 -8t-41.5 -4.5t-33.5 -1.5q-37 0 -68.5 6.5 t-61.5 19.5t-60.5 33.5t-65.5 50.5q-44 -33 -93 -55t-97 -34.5t-92 -17.5t-77 -5q-123 0 -223 25.5t-171 74.5t-109.5 121.5t-38.5 167.5zM610 871q55 46 93 86.5t61.5 84t34 93t10.5 112.5q0 25 -5 57.5t-22.5 61.5t-50.5 49.5t-90 20.5q-38 0 -70.5 -17.5t-57.5 -48 t-39 -71.5t-14 -89q0 -58 14.5 -108t37 -92.5t49 -77t49.5 -61.5zM346 397q0 -54 19.5 -105.5t60.5 -92.5t104 -66t149 -25q26 0 57.5 3.5t65 12t67 22t63.5 33.5q-51 49 -109 112t-117 130.5t-115 133t-102 119.5q-32 -29 -58.5 -59t-45 -64t-29 -72t-10.5 -82z" />
<glyph unicode="'" horiz-adv-x="753" d="M257 1684h240l-51 -734h-140z" />
<glyph unicode="(" horiz-adv-x="874" d="M137 685q0 148 29.5 276t76 235t103.5 192.5t112.5 148.5t103.5 102.5t75 55.5l95 -63q-21 -14 -56.5 -48t-76.5 -88t-83.5 -129t-78 -170.5t-59 -212t-27.5 -254.5q-4 -153 16.5 -284t55.5 -240t80 -195.5t90 -151t84.5 -105.5t64.5 -59l-105 -70q-23 14 -69 50.5 t-101.5 97.5t-114 147t-106.5 199t-78.5 254t-30.5 312z" />
<glyph unicode=")" horiz-adv-x="874" d="M736.009 635.042q0 -147.991 -29.499 -275.983q-29.498 -127.992 -75.9951 -234.985q-46.4971 -106.994 -103.493 -192.488q-56.9971 -85.4951 -112.493 -148.491q-55.4971 -62.9961 -103.494 -102.494q-47.9971 -39.4971 -74.9951 -55.4961l-94.9941 62.9961 q20.998 13.999 56.4961 47.9971t76.4951 87.9951q40.998 53.9961 83.4951 128.991q42.498 74.9961 77.9951 170.49q35.498 95.4941 58.9971 211.987q23.498 116.492 27.498 254.484q4 152.99 -16.499 283.982t-55.4971 239.985q-34.9971 108.993 -79.9951 195.488 q-44.9971 86.4941 -89.9941 150.99t-84.4951 105.494q-39.4971 40.9971 -64.4961 58.9961l104.994 69.9961q22.998 -14 68.9961 -50.4971q45.9971 -36.498 101.493 -97.4941q55.4971 -60.9961 113.993 -146.991t106.493 -198.988t78.4951 -253.984 q30.499 -140.991 30.499 -311.98z" />
<glyph unicode="*" horiz-adv-x="1304" d="M151 977l311 137l139 40l-139 37l-315 130l102 181l271 -208l106 -98l-37 140l-50 339h211l-41 -336l-34 -141l101 102l271 210l104 -179l-311 -135l-140 -41l140 -37l317 -126l-107 -187l-268 207l-107 98l38 -140l51 -337l-211 -1l39 338l34 142l-101 -104l-269 -211z " />
<glyph unicode="+" horiz-adv-x="1353" d="M217 697h212l169 -12l-7 164v228h171v-228l-9 -164l140 12h243v-171h-243l-140 7l9 -161v-240h-171v240l7 161l-169 -7h-212v171z" />
<glyph unicode="," horiz-adv-x="688" d="M212 155q0 32 11 58t29.5 44.5t42.5 28.5t49 10h12q40 0 70 -20t49.5 -55.5t29.5 -83.5t10 -104q0 -86 -21 -163.5t-55.5 -140.5t-77.5 -109.5t-88 -68.5h-3l-64 59v23q18 13 39.5 33.5t40 52t31 76t12.5 105.5q0 36 -8.5 59.5t-21.5 40.5t-28.5 30.5t-28.5 29.5 t-21.5 38.5t-8.5 56.5z" />
<glyph unicode="-" horiz-adv-x="1345" d="M230 697h885v-162h-885v162z" />
<glyph unicode="." horiz-adv-x="709" d="M199 116q0 35 14.5 64.5t38.5 51.5t54 34t61 12q37 0 64.5 -11t44.5 -30t25.5 -43.5t8.5 -52.5q0 -37 -14 -67t-37 -51t-54 -32.5t-64 -11.5q-28 0 -53.5 9.5t-45 27t-31.5 43t-12 57.5z" />
<glyph unicode="/" horiz-adv-x="882" d="M628 1599h199l-573 -1962h-199z" />
<glyph unicode="0" horiz-adv-x="1293" d="M634 -17q-140 0 -238 53.5t-159 145t-88.5 212.5t-25.5 256q1 152 45 271t118.5 201.5t173 125.5t208.5 43q142 0 239 -48.5t156 -134.5t84 -203t24 -255q-1 -151 -42.5 -274t-113.5 -210t-169.5 -135t-211.5 -48zM649 97q82 0 136 36.5t85.5 106t44.5 169.5t13 228 q0 120 -14 219.5t-46.5 171t-85.5 111t-132 39.5q-83 0 -137.5 -35t-87.5 -101.5t-46.5 -162t-13.5 -216.5q0 -115 15 -217.5t48.5 -180t87.5 -123t133 -45.5z" />
<glyph unicode="1" horiz-adv-x="881" d="M129 107l244 28v896q-21 -8 -56.5 -16t-74.5 -15.5t-75.5 -13t-60.5 -6.5l-26 125q54 12 107 31.5t103 45t95 55t82 60.5h1l130 -25v-1138l217 -27v-107h-686v107z" />
<glyph unicode="2" horiz-adv-x="1219" d="M97 91q92 52 178.5 114t162 129.5t138.5 139t108 144t70 143t25 136.5q0 56 -18 101.5t-50.5 77t-79 48.5t-103.5 17q-67 0 -122 -16t-99 -40t-77.5 -51.5t-57.5 -49.5l-69 98q31 35 80 74t112.5 71.5t139.5 53.5t160 21q111 0 192 -31.5t134.5 -83.5t79 -119t25.5 -139 q0 -71 -25 -143t-69 -142.5t-105.5 -139.5t-134 -133.5t-154.5 -123.5t-168 -111l593 47l71 147l116 -25l-50 -305h-970z" />
<glyph unicode="3" horiz-adv-x="1146" d="M136 -186q15 -5 34.5 -8t40 -5t40.5 -3t37 -1q114 0 206 28t157.5 77t101 116t35.5 145q0 64 -17 116.5t-55 90.5t-100.5 61t-152.5 28l-123 -29l-39 122q40 6 78.5 18t73.5 26q60 25 110 60t86 77.5t56.5 91t20.5 100.5q1 60 -17.5 102.5t-50 69t-73 38.5t-86.5 12 q-99 0 -176.5 -31t-135.5 -73l-56 94q23 23 66 52t99.5 54.5t124 42.5t139.5 17q85 0 159 -19t129.5 -60t87.5 -104.5t32 -151.5q0 -74 -30 -142.5t-81 -126.5t-119 -102.5t-144 -70.5q106 9 189 -15t140 -70.5t87 -110.5t31 -135q1 -114 -49 -210.5t-144 -166.5 t-227.5 -109.5t-299.5 -39.5q-21 0 -45 1.5t-49 4.5t-48.5 6.5t-42.5 8.5v124v0z" />
<glyph unicode="4" horiz-adv-x="1306" d="M74 105q70 129 149.5 287.5t161 329.5t161 344.5t150.5 331.5h56l172 -102l-560 -1039l-84 -128l501 30l3 372l196 21v-381l290 17v-188h-290v-376h-199v376h-648l-59 105v0z" />
<glyph unicode="5" horiz-adv-x="1205" d="M195 -230q29 -2 58.5 -3t57.5 -1q102 0 192 33.5t157 95t106 149t39 195.5q0 89 -20.5 153t-58.5 104.5t-91.5 59.5t-120.5 19q-31 0 -65.5 -3.5t-70 -10t-69.5 -16t-64 -20.5l-60 44l106 712h543l23 39h145l-39 -229h-513l-95 -430q72 28 145 42t138 14q93 0 170.5 -28 t132.5 -84.5t85.5 -141t30.5 -196.5q0 -78 -23 -154.5t-66.5 -145t-106.5 -126.5t-143 -100.5t-176 -66.5t-205 -24q-34 0 -71 3t-72 11l1 106v0z" />
<glyph unicode="6" horiz-adv-x="1347" d="M153 588q0 134 34.5 256.5t95 229.5t142 197t175.5 158.5t196.5 114t204.5 63.5l47 -93q-124 -42 -224 -108.5t-176.5 -149.5t-129.5 -178.5t-83 -194.5q23 21 55.5 41t73.5 36t91.5 26t110.5 10q108 0 190 -32t136.5 -92t82.5 -144.5t28 -189.5q0 -109 -34.5 -210 t-100.5 -178.5t-163 -124t-223 -46.5q-130 0 -229 49t-165.5 132t-100.5 194t-34 234zM695 91q72 0 123.5 36t85 92t49 125t15.5 134q0 105 -20.5 178t-56 118.5t-82.5 66t-101 20.5q-59 0 -108.5 -13.5t-88.5 -33t-66.5 -41.5t-41.5 -40q-2 -19 -3.5 -38t-1.5 -37 q-3 -71 1 -140.5t16 -132.5t33.5 -116.5t55.5 -93t81 -62t110 -22.5z" />
<glyph unicode="7" horiz-adv-x="1199" d="M324 -277q78 165 152.5 339.5t146.5 352t142 354t139 346.5l-592 -8l-78 -237l-130 23l43 388h915l45 -56l-543 -1569l-240 67v0z" />
<glyph unicode="8" horiz-adv-x="1300" d="M141 385q0 58 17.5 113.5t54.5 107.5t95 98.5t138 85.5q-50 34 -93 73.5t-75.5 87.5t-51 106.5t-18.5 129.5q0 94 39.5 165.5t104 119.5t146.5 72.5t168 24.5q98 0 177.5 -24t136 -68t87.5 -106.5t31 -139.5q0 -55 -16 -109.5t-47.5 -106.5t-79 -99t-110.5 -86 q63 -39 121.5 -82t103.5 -94t71.5 -111.5t26.5 -135.5q0 -98 -43.5 -176.5t-116 -133t-166.5 -84t-195 -29.5q-90 0 -180 22t-162.5 70t-118 124.5t-45.5 184.5zM746 888q40 25 70.5 57.5t51 69.5t31 77t10.5 79q0 69 -17.5 124t-50.5 93.5t-80 58.5t-105 20q-53 0 -99 -16 t-80 -46t-53.5 -72.5t-19.5 -94.5q0 -57 28.5 -104.5t76 -89.5t109.5 -80t128 -76zM354 431q0 -74 19.5 -136t58.5 -107t98 -70.5t138 -25.5q49 0 97.5 19t87.5 53t63 82t24 107q0 68 -35.5 119.5t-92.5 95t-129 82.5t-145 82q-38 -24 -71.5 -55.5t-58.5 -70t-39.5 -82.5 t-14.5 -93z" />
<glyph unicode="9" horiz-adv-x="1347" d="M369 -231q121 42 215 107.5t162.5 146.5t114 174.5t70.5 192.5q-23 -20 -55.5 -39t-71.5 -34t-83.5 -24t-92.5 -9q-108 0 -195.5 34.5t-149 98t-94.5 152.5t-33 198q0 105 35.5 202t103 170.5t165.5 117.5t224 44q136 0 235.5 -47t164 -128.5t95.5 -191t31 -234.5 q0 -137 -30.5 -261t-85 -231.5t-129 -197t-162.5 -158t-186.5 -113.5t-200.5 -64zM655 419q57 0 106 11t88 28t66.5 37t41.5 37q3 26 5 51t3 51q3 106 -6 205.5t-40.5 177t-91 124.5t-156.5 47q-72 0 -125 -34.5t-87.5 -88.5t-51 -120t-16.5 -129q0 -109 21 -184.5t57 -123 t84 -68.5t102 -21z" />
<glyph unicode=":" horiz-adv-x="709" d="M199 964q0 35 14.5 64.5t38.5 51.5t54 34t61 12q37 0 64.5 -11t44.5 -30t25.5 -43.5t8.5 -52.5q0 -37 -14 -67t-37 -51t-54 -32.5t-64 -11.5q-28 0 -53.5 9.5t-45 27t-31.5 43t-12 57.5zM199 116q0 35 14.5 64.5t38.5 51.5t54 34t61 12q37 0 64.5 -11t44.5 -30 t25.5 -43.5t8.5 -52.5q0 -37 -14 -67t-37 -51t-54 -32.5t-64 -11.5q-28 0 -53.5 9.5t-45 27t-31.5 43t-12 57.5z" />
<glyph unicode=";" horiz-adv-x="709" d="M212 155q0 32 11 58t29.5 44.5t42.5 28.5t49 10h12q40 0 70 -20t49.5 -55.5t29.5 -83.5t10 -104q0 -86 -21 -163.5t-55.5 -140.5t-77.5 -109.5t-88 -68.5h-3l-64 59v23q18 13 39.5 33.5t40 52t31 76t12.5 105.5q0 36 -8.5 59.5t-21.5 40.5t-28.5 30.5t-28.5 29.5 t-21.5 38.5t-8.5 56.5zM201 964q0 35 14.5 64.5t38.5 51.5t54 34t61 12q37 0 64.5 -11t44.5 -30t25.5 -43.5t8.5 -52.5q0 -37 -14 -67t-37 -51t-54 -32.5t-64 -11.5q-28 0 -53.5 9.5t-45 27t-31.5 43t-12 57.5z" />
<glyph unicode="&#x3c;" horiz-adv-x="1370" d="M168 683l968 495v-199l-761 -363l761 -363v-198l-968 494v134z" />
<glyph unicode="=" horiz-adv-x="1337" d="M210 967h917v-163h-917v163zM210 427h917v-163h-917v163z" />
<glyph unicode="&#x3e;" horiz-adv-x="1370" d="M1202.01 683l-967.94 495v-199l760.953 -363l-760.953 -363v-198l967.94 494v134z" />
<glyph unicode="?" horiz-adv-x="985" d="M338 483q-18 18 -35 54.5t-30.5 78.5t-22.5 83.5t-11 69.5q0 58 31.5 101t80 77t107 63t113.5 60t99.5 67t63.5 84q0 8 0.5 15.5t0.5 15.5q0 81 -33.5 158t-94 136.5t-144 96t-184.5 36.5q-38 0 -76.5 -3t-61.5 -7l-34 137q8 6 32.5 12.5t57 12t69.5 8.5t70 3 q156 0 266.5 -43t181 -113t103 -159t32.5 -180q0 -85 -27 -149.5t-69 -114.5t-94 -88.5t-102.5 -72t-93 -64.5t-66.5 -66q-3 -17 -3 -42q0 -68 6 -121t19 -109zM346 86q-7 27 -1.5 52t19.5 46t34.5 36.5t43.5 22.5q57 14 93.5 -7t53.5 -66q9 -29 5 -54.5t-18 -46t-35 -34.5 t-45 -20q-21 -8 -44 -7.5t-43 10t-37 26.5t-26 42z" />
<glyph unicode="@" horiz-adv-x="2197" d="M189 363q0 178 40.5 334.5t112.5 287t171.5 233t218.5 174t252 109t273 37.5q155 0 286 -46t226.5 -139.5t149.5 -234.5t54 -331q0 -138 -30.5 -252.5t-79.5 -205.5t-111.5 -159t-125.5 -113.5t-122 -68t-102 -22.5q-53 0 -89.5 47t-44.5 133q-4 39 1 108.5t23 175.5 q-33 -87 -76.5 -171t-95 -150.5t-108.5 -107t-115 -40.5q-51 0 -101 28t-90.5 81t-65.5 129.5t-25 172.5q0 69 16 145.5t47.5 151t76.5 142t103.5 119t128.5 82t151 30.5q52 0 112.5 -11.5t114.5 -40.5q3 9 7 18.5t9.5 16.5t12.5 10.5t17 1.5q32 -9 60.5 -21t66.5 -23 q-13 -56 -26.5 -133t-26.5 -161.5t-24 -170t-18 -157.5q-5 -51 -4.5 -94.5t5 -76t13 -50.5t18.5 -18q54 0 115 43.5t113 123t86 191.5t34 248q0 120 -25.5 215t-70.5 168t-106.5 125t-133.5 85t-151.5 48.5t-160.5 15.5q-107 0 -209.5 -30.5t-194.5 -88.5t-169 -143 t-133 -194.5t-87.5 -242.5t-31.5 -286q0 -195 52 -339.5t140 -240t205 -142.5t248 -47q51 0 109.5 6.5t114.5 18.5t103.5 28.5t76.5 35.5l40 -91q-38 -32 -90 -58.5t-114.5 -46.5t-133 -31t-143.5 -11q-183 0 -326 60.5t-241.5 173t-150 274t-51.5 363.5zM810 423 q0 -37 5.5 -83.5t20 -87.5t40 -69t66.5 -28q36 0 78.5 40.5t85 105t81.5 146t68 163.5q19 56 32.5 108t18.5 97q-15 16 -44 29.5t-62 23.5t-66 16t-56 6q-63 0 -112.5 -40.5t-84 -106.5t-53 -149.5t-18.5 -170.5z" />
<glyph unicode="A" horiz-adv-x="1412" d="M-39 110l129 28l507 1397h227l494 -1398l128 -27v-110h-542v110l163 28l-94 291h-596l-94 -291l169 -28v-110h-490zM931 557l-213 661l-42 162l-43 -162l-214 -661h512z" />
<glyph unicode="B" horiz-adv-x="1390" d="M100 110l168 27v1248l-164 27v110h278q46 0 86 2.5t76.5 5t72 5t74.5 2.5q139 0 237 -22.5t160 -66.5t90.5 -108t28.5 -147q0 -72 -19.5 -135t-57 -113.5t-93 -85.5t-127.5 -50q92 2 167 -22.5t128 -71t82 -112t29 -146.5q0 -60 -12.5 -118.5t-42 -110.5t-76.5 -96 t-115.5 -76t-161 -50t-211.5 -18q-38 0 -71 2t-69.5 4t-80.5 4t-104 2h-272v110zM496 856q19 -2 45 -3t53 -1h52.5h45.5q150 0 218.5 72.5t68.5 221.5q0 69 -15.5 120t-51.5 85t-96 51t-149 17q-73 0 -112 -5t-59 -7v-551zM496 125q11 -7 33 -10.5t49 -5t56.5 -2t54.5 -0.5 q104 0 176.5 21.5t118.5 61.5t66.5 98t20.5 131q0 81 -19.5 139t-62.5 95t-110 54.5t-163 17.5h-56.5h-60.5t-57 -0.5t-46 -1.5v-598z" />
<glyph unicode="C" horiz-adv-x="1332" d="M66 765q0 113 26.5 214t74.5 187t116 155t150.5 117t178 74t198.5 26q66 0 131.5 -8t123 -18.5t104 -21t75.5 -16.5l-18 -353h-145l-58 231q-26 29 -89 47t-174 18q-93 0 -171 -41t-134.5 -120.5t-88 -196.5t-31.5 -268q0 -87 11 -172t34 -162t58.5 -143t85 -114 t113.5 -75.5t143 -27.5q55 0 95.5 5.5t70.5 15t51 24t37 32.5l93 197l129 -20l-49 -295q-41 -2 -79.5 -15t-87 -27t-112.5 -25.5t-156 -11.5q-170 0 -301.5 56.5t-221.5 160t-136.5 249t-46.5 322.5z" />
<glyph unicode="D" horiz-adv-x="1568" d="M100 110l168 27v1248l-156 27v110h270q89 0 175 7.5t184 7.5q198 0 339.5 -51.5t232 -147t133 -230t42.5 -300.5q0 -188 -57 -341.5t-159.5 -262.5t-245 -166.5t-313.5 -53.5q-37 1 -78.5 3.5t-84 5.5t-84.5 5t-81 2h-285v110zM498 123q54 -16 112.5 -18t126.5 0 q109 3 202 45.5t160.5 124.5t106 204t38.5 284q0 655 -571 655q-67 0 -109.5 -4.5t-65.5 -7.5v-1283z" />
<glyph unicode="E" horiz-adv-x="1341" d="M100 110l168 27v1248l-164 27v110h1031l27 -310h-128l-65 182l-471 12v-566l324 7l31 163h136v-460h-136l-30 165l-325 6v-593l546 22l115 245l128 -38l-61 -357h-1126v110z" />
<glyph unicode="F" horiz-adv-x="1270" d="M107 110l161 27v1248l-173 27v110h1092l20 -345h-150l-65 217l-494 11v-577l350 3l41 162h126v-464h-126l-41 165l-350 9v-566l291 -27v-110h-682v110z" />
<glyph unicode="G" horiz-adv-x="1519" d="M91 735q0 125 28 232.5t79 197t122.5 159t158 117.5t185.5 73t206 25q80 0 154 -7.5t136.5 -18t110 -21.5t74.5 -17l-19 -350h-147l-58 228q-11 10 -29 21.5t-49 21.5t-78.5 16.5t-116.5 6.5q-108 0 -199 -38.5t-157 -116t-103 -194t-37 -272.5q0 -87 12.5 -172.5 t37.5 -163t63.5 -144.5t91.5 -115.5t119.5 -76.5t148.5 -28q43 0 87.5 4t85.5 14t76.5 26t59.5 40v431l-243 23v133h590v-133l-116 -22v-532q-41 -2 -94.5 -18.5t-122.5 -36t-154 -35t-188 -15.5q-169 0 -301.5 57.5t-224.5 158.5t-140.5 240t-48.5 302z" />
<glyph unicode="H" horiz-adv-x="1699" d="M101 110l167 28v1247l-160 27v110h560v-110l-171 -27v-538h705v538l-162 27v110h552v-110l-160 -27v-1248l160 -27v-110h-550v110l160 27v580h-705v-580l171 -27v-110h-567v110z" />
<glyph unicode="I" horiz-adv-x="822" d="M115 110l181 28v1247l-181 27v110h590v-110l-179 -27v-1248l179 -31v-106h-590v110z" />
<glyph unicode="J" horiz-adv-x="775" d="M246 3q12 42 20 84t12.5 97.5t6.5 130.5t2 182v888l-182 27v110h588v-110l-176 -27v-821v-147.5t-2 -137t-7 -123.5t-15 -106q-19 -90 -65.5 -161t-108 -123t-131.5 -84.5t-137 -47.5l-55 93q41 14 79 39t70.5 59.5t58.5 79t42 98.5z" />
<glyph unicode="K" horiz-adv-x="1477" d="M100 110l168 28v1247l-164 27v110h553v-110l-160 -27v-700l575 699l-163 28l-1 110h503v-110l-151 -27l-429 -489q36 -31 75.5 -79.5t81 -107t83.5 -123.5t82 -128t76.5 -120.5t67.5 -102t55 -71t38 -28.5l88 -26v-110h-296q-19 0 -43.5 24.5t-52.5 66t-59.5 96 t-64.5 115.5t-67.5 124.5t-68.5 122t-67 108.5t-64 84l-198 -230v-374l188 -31v-106h-585v110z" />
<glyph unicode="L" horiz-adv-x="1301" d="M100 110l168 28v1247l-164 27v110h585v-110l-192 -27v-1247l510 19l122 318l133 -26l-68 -449h-1094v110z" />
<glyph unicode="M" horiz-adv-x="2047" d="M6 110l180 27l156 1248l-213 27v110h544l324 -1020l37 -184l36 184l309 1020h534v-110l-214 -28l165 -1246l181 -28v-110h-586v110l172 27l-95 903l-46 394l-63 -250l-366 -1200h-110l-364 1072l-110 373l-28 -388l-89 -904l192 -27v-110h-546v110z" />
<glyph unicode="N" horiz-adv-x="1637" d="M98 110l167 27v1248l-167 27v110h387l683 -986l99 -185v1034l-181 27v110h503v-110l-169 -28v-1384h-148l-698 1001l-156 267v-1131l185 -27v-110h-505v110z" />
<glyph unicode="O" horiz-adv-x="1478" d="M725 -23q-161 -3 -284 52t-206 157t-126 245.5t-43 316.5q0 181 53 327.5t146 249.5t220 158.5t274 55.5q161 0 283.5 -54.5t204.5 -154.5t123.5 -241t41.5 -314q0 -181 -52.5 -327.5t-144.5 -250t-217.5 -160.5t-272.5 -60zM740 98q96 0 173 41t132 125t84.5 211 t29.5 299q0 146 -28 265t-82 203t-132.5 130t-178.5 46q-96 0 -173.5 -40t-132 -122.5t-84.5 -208.5t-30 -298q0 -147 28.5 -267t82.5 -205.5t132.5 -132t178.5 -46.5z" />
<glyph unicode="P" horiz-adv-x="1320" d="M100 110l168 26v1249l-156 27v110h271q50 0 86 2t73 5t81.5 5t110.5 2q152 0 254.5 -29.5t164 -85t87.5 -136.5t26 -184q0 -127 -45 -226t-124.5 -167t-187.5 -103.5t-234 -35.5q-29 0 -58 1t-53.5 2t-42.5 2.5t-25 3.5v-441l264 -27v-110h-660v110zM496 697 q15 -3 31 -4.5t37 -2.5t48.5 -1.5t64.5 -0.5q66 0 128 19t111 66t78.5 126.5t29.5 201.5q0 86 -22.5 146.5t-66.5 99t-111 56t-155 17.5q-36 0 -60.5 -1.5t-43.5 -4t-35 -4.5t-34 -2v-711z" />
<glyph unicode="Q" horiz-adv-x="1511" d="M741 -23q-161 -3 -284 52t-206 157t-126 245.5t-43 316.5q0 181 53 327.5t146 249.5t220 158.5t274 55.5q161 0 283.5 -54.5t204.5 -154.5t123.5 -241t41.5 -314q0 -149 -36 -274.5t-100.5 -223.5t-154.5 -166t-198 -102q31 -56 79 -90t106 -53t123.5 -25t132.5 -6h13 q33 1 65 6t49 17v-187q-16 -16 -63 -31.5t-122 -15.5h-4q-89 0 -171.5 24t-149.5 70t-114 112.5t-65 152.5q-37 -4 -77 -6zM756 98q96 0 173 41t132 125t84.5 211t29.5 299q0 146 -28 265t-82 203t-132.5 130t-178.5 46q-96 0 -173.5 -40t-132 -122.5t-84.5 -208.5t-30 -298 q0 -147 28.5 -267t82.5 -205.5t132.5 -132t178.5 -46.5z" />
<glyph unicode="R" horiz-adv-x="1429" d="M100 110l168 26v1249l-156 27v110h272q40 0 78 2.5t75.5 5t75.5 5t80 2.5q151 0 255.5 -25.5t169 -75.5t93.5 -125t29 -174q0 -69 -20 -135.5t-57.5 -124t-92.5 -101.5t-124 -66q41 -26 79.5 -76.5t75.5 -112t71 -126.5t66 -120.5t61 -93.5t56 -44l81 -27v-110h-288 q-20 0 -42 25t-46 66.5t-50 95.5t-53 112.5t-55 117t-56.5 109t-57 88.5t-57.5 55h-64.5t-69.5 0.5t-61.5 1t-39.5 1.5v-537l195 -25v-110h-591v110zM496 789q14 -2 44 -2.5t64 0t65.5 1t49.5 0.5q129 0 203 81.5t74 249.5q0 62 -15 117t-52.5 95.5t-101.5 64t-162 23.5 q-39 0 -66.5 -1.5t-46.5 -3.5t-32.5 -4t-23.5 -3v-618z" />
<glyph unicode="S" horiz-adv-x="1211" d="M143 439h138l42 -248q17 -20 45 -36.5t64 -29t78 -19.5t87 -7q151 0 222.5 66.5t71.5 182.5q0 61 -23.5 107t-68 84t-107.5 71.5t-141 69.5q-41 18 -87 41.5t-91 53.5t-85.5 67.5t-71.5 83.5t-49.5 101t-18.5 122q0 86 35 157.5t99.5 123.5t155.5 80.5t202 28.5 q69 0 131 -10t113.5 -23t90.5 -24.5t62 -15.5l-13 -339h-133l-49 235q-9 10 -29.5 20.5t-48 18.5t-61.5 13.5t-70 5.5q-136 0 -200 -53.5t-64 -160.5q0 -59 22.5 -102t65.5 -80t106.5 -71.5t146.5 -75.5q49 -25 99.5 -51.5t97.5 -57.5t88.5 -67t72 -79t48 -94.5t17.5 -112.5 q0 -80 -35 -158t-103 -140.5t-169.5 -101t-234.5 -38.5q-89 0 -163.5 13.5t-133.5 30.5t-101.5 32t-66.5 17z" />
<glyph unicode="T" horiz-adv-x="1397" d="M324 110l257 28v1264l-330 -10l-74 -405h-145l33 535h1268l25 -535h-145l-67 405l-329 10v-1264l277 -28v-110h-770v110z" />
<glyph unicode="U" horiz-adv-x="1515" d="M196 1384l-146 28v110h545v-110l-164 -27v-761q0 -150 28.5 -250t78.5 -160t118.5 -84.5t148.5 -24.5q177 0 269.5 129t92.5 378v772l-159 28v110h472v-110l-147 -27v-765q0 -166 -42.5 -286t-116 -198t-174 -115t-215.5 -37q-155 0 -266 40t-183 122t-106 206.5 t-34 293.5v738z" />
<glyph unicode="V" horiz-adv-x="1361" d="M96 1385l-128 27v110h556v-110l-183 -27l320 -954l65 -231l56 233l314 951l-154 28v110h458v-110l-128 -27l-493 -1400h-182z" />
<glyph unicode="W" horiz-adv-x="2037" d="M87 1384l-132 28v110h549v-110l-177 -28l273 -949l48 -267l59 267l240 766l-58 184l-141 27v110h567v-110l-183 -27l272 -950l56 -294l53 294l268 949l-205 28v110h505v-110l-132 -28l-422 -1394h-212l-298 985l-303 -985h-199z" />
<glyph unicode="X" horiz-adv-x="1463" d="M12 110l175 27l425 628l-417 620l-150 27v110h602v-110l-174 -27l311 -498l305 498l-167 27v110h507v-110l-159 -28l-411 -582l448 -665l152 -27v-110h-603v110l173 27l-339 537l-316 -538l190 -26v-110h-552v110z" />
<glyph unicode="Y" horiz-adv-x="1321" d="M340 110l218 27v455l-451 792l-132 28v110h543v-110l-156 -27l286 -552l52 -140l62 139l275 553l-162 27v110h470v-110l-134 -27l-418 -790v-458l222 -27v-110h-675v110z" />
<glyph unicode="Z" horiz-adv-x="1351" d="M867 1281l106 130l-563 -20l-116 -258l-125 16l44 380h983l53 -97l-791 -1184l-117 -127l661 37l117 304l129 -25l-49 -437h-1072l-60 100z" />
<glyph unicode="[" horiz-adv-x="872" d="M192 1416q0 74 11.5 119.5t37 70t66 33t99.5 8.5q41 0 77.5 -4t70.5 -10t66 -14l64 -16v-96h-295v-1646h295v-98q-65 -18 -130 -31t-148 -13q-59 0 -99.5 8.5t-66 33t-37 70t-11.5 119.5v1466z" />
<glyph unicode="\" horiz-adv-x="882" d="M248.038 1599h-198.987l572.965 -1962h198.987z" />
<glyph unicode="]" horiz-adv-x="872" d="M680.012 1416q0 74 -11.499 119.5q-11.5 45.5 -36.998 70t-65.9961 33q-40.4971 8.5 -99.4941 8.5q-40.9971 0 -77.4951 -4t-70.4951 -10q-33.998 -6 -65.9961 -14l-63.9961 -16v-96h294.981v-1646h-294.981v-98q64.9961 -18 129.992 -31t147.99 -13 q58.9971 0 99.4941 8.5q40.498 8.5 65.9961 33t36.998 70q11.499 45.5 11.499 119.5v1466z" />
<glyph unicode="^" horiz-adv-x="1363" d="M577 1531h204l397 -1118h-173l-325 879l-324 -879h-171z" />
<glyph unicode="_" horiz-adv-x="1711" d="M1731 -271v-142h-1751v142h1751z" />
<glyph unicode="`" horiz-adv-x="681" d="M402 1337q-22 7 -57 29t-76.5 51.5t-84.5 64.5t-81 70t-67 66t-42 53l163 142h1l324 -402l-79 -74h-1v0z" />
<glyph unicode="a" horiz-adv-x="1144" d="M84 300q0 72 27 128.5t74 99.5t110.5 73t137 49t152.5 28t158 11v53q0 70 -10 118.5t-34.5 79t-65.5 44t-104 13.5q-54 0 -108 -10t-103.5 -24.5t-91 -31t-69.5 -30.5h-1l-45 96q19 18 67 46t113.5 54t141 45t150.5 19q105 0 177.5 -21.5t117.5 -69t64.5 -123 t19.5 -184.5v-652h124v-97l-46 -11.5t-55 -12t-59 -9.5t-57 -4q-28 0 -48.5 2.5t-33.5 13t-19.5 31.5t-6.5 57v37q-13 -12 -42.5 -35.5t-72.5 -47t-98 -41t-118 -17.5q-69 0 -131.5 18.5t-110 57.5t-76 100t-28.5 147zM326 330q0 -55 14.5 -93t40 -62t60 -34.5t75.5 -10.5 q21 0 50 5.5t60 15.5t61.5 25t55.5 33v368q-120 0 -200.5 -21t-128.5 -55.5t-68 -78.5t-20 -92z" />
<glyph unicode="b" horiz-adv-x="1233" d="M158 1522l-164 18v95l333 45h4l50 -34v-613q25 25 58 49.5t72.5 43.5t87 30.5t102.5 11.5q86 0 166.5 -31.5t143 -99t100 -173.5t37.5 -255q0 -131 -40.5 -246.5t-116.5 -201t-185 -135t-245 -49.5q-75 0 -144 8.5t-123 21t-90 26t-46 23.5v1466zM381 160q7 -17 25 -29.5 t44 -21t58 -13t68 -4.5q71 0 130.5 30t103 90t68.5 150t27 211q1 112 -20.5 195t-61.5 138t-95 82t-120 27q-40 0 -75 -10t-63.5 -25t-51 -33t-37.5 -34v-753z" />
<glyph unicode="c" horiz-adv-x="1040" d="M88 552q0 124 39 236t113.5 196.5t182 134t244.5 49.5q49 0 95.5 -6.5t86 -16t70.5 -20.5t51 -19l-10 -294h-135l-45 166q-26 34 -65.5 52.5t-96.5 18.5t-109 -26t-92.5 -78.5t-65 -131t-25.5 -183.5q-1 -136 26.5 -231t73.5 -154.5t107 -86.5t127 -27q47 0 88.5 8 t76.5 21t64 29t51 33l44 -96q-27 -28 -67 -54.5t-89.5 -47.5t-104.5 -34t-112 -13q-129 0 -226.5 44.5t-163 121.5t-99 182t-34.5 227z" />
<glyph unicode="d" horiz-adv-x="1270" d="M532 -23q-89 0 -170 34.5t-142.5 104.5t-98 176t-36.5 250q0 132 40.5 246.5t116.5 199t184.5 132.5t244.5 48q48 0 94.5 -5t88.5 -13v373l-197 19v95l365 43h5l50 -35v-1525h119v-106q-42 -11 -98.5 -24t-119.5 -13q-27 0 -47 3.5t-34 15t-21 32t-7 55.5v44 q-26 -27 -60 -54t-76 -48t-92.5 -34.5t-108.5 -13.5zM625 130q40 0 75 9.5t64 24.5t52 33t38 35v758q-8 12 -26 23.5t-44.5 20.5t-58.5 14t-68 5q-68 0 -127 -25.5t-103 -82t-70.5 -147t-28.5 -220.5q-2 -117 20.5 -201.5t63 -139.5t95.5 -81t118 -26z" />
<glyph unicode="e" horiz-adv-x="1107" d="M85 573q0 133 40 242.5t111.5 188t169.5 121.5t214 43q189 0 293 -102.5t113 -303.5q1 -65 -1 -113.5t-10 -85.5h-692v-6q4 -114 33 -195t75.5 -132.5t106.5 -75t125 -23.5q43 0 87 8t84.5 21t74 30t55.5 34l42 -98q-29 -29 -73.5 -56t-99 -47.5t-116 -33t-122.5 -12.5 q-127 0 -222.5 44t-159.5 123t-96 188.5t-32 240.5zM787 683q2 20 2.5 42t0.5 41q0 55 -12 106t-38 90t-67.5 62.5t-102.5 23.5q-50 0 -93 -17.5t-75.5 -59.5t-53 -112t-25.5 -176h464z" />
<glyph unicode="f" horiz-adv-x="832" d="M98 109l168 19v861h-193v98l193 48v95q0 98 42 182.5t109.5 147t152 98t169.5 35.5q49 0 74.5 -5t43.5 -11v-225q-9 7 -26.5 16.5t-42.5 18t-55 14.5t-64 6q-42 0 -75 -7t-56.5 -28t-36 -58.5t-12.5 -97.5l1 -181h272v-146h-272v-862l214 -18v-109h-606v109z" />
<glyph unicode="g" horiz-adv-x="1256" d="M103 -224q0 54 16.5 97.5t43 78t60 59.5t68.5 41q-50 29 -77.5 72.5t-27.5 104.5q0 40 11.5 73.5t32 61t48.5 50.5t62 44q-94 45 -147 126.5t-53 194.5q0 93 40 165t106 121.5t151 76t174 26.5h1q107 0 195 -25t148 -78q13 13 36 30.5t53 34t67 28t79 11.5h40v-195h-206 q34 -68 34 -156q0 -92 -37.5 -167.5t-101.5 -129.5t-150 -83.5t-183 -29.5h-1q-73 0 -140 14q-31 -22 -51 -51.5t-20 -71.5q0 -39 15.5 -62.5t44.5 -36t72 -16.5t97 -4h218q199 0 292 -76.5t93 -230.5q0 -86 -43 -163t-120.5 -135.5t-185 -92.5t-236.5 -34h-1 q-129 0 -225.5 24t-161.5 67t-97.5 103.5t-32.5 133.5zM610 526q60 0 101 18t66 52.5t36 84t11 111.5q0 133 -54.5 195.5t-172.5 62.5h-1q-51 0 -92 -12t-70.5 -40t-45.5 -75.5t-16 -117.5q0 -55 11.5 -105.5t38.5 -89t72.5 -61.5t114.5 -23h1zM320 -168q0 -61 18.5 -108.5 t57 -80.5t98 -50t142.5 -17h2q71 0 136 15t114.5 44.5t78.5 74t29 103.5q0 48 -9.5 82.5t-37 57t-76.5 33t-128 10.5h-180q-51 0 -97.5 4.5t-86.5 15.5q-24 -30 -42.5 -74.5t-18.5 -109.5z" />
<glyph unicode="h" horiz-adv-x="1364" d="M99 110l121 17v1395l-164 18v95l332 45h5l49 -35l1 -461l-8 -181q28 25 70 53t94 52t111.5 39.5t122.5 15.5q97 0 160 -27.5t100.5 -85.5t52.5 -148t15 -214v-561l147 -17v-110h-503v108l133 18v563q0 80 -7.5 140t-29.5 100t-62.5 60t-106.5 20q-73 0 -150.5 -25 t-138.5 -70v-787l145 -17v-110h-489v110z" />
<glyph unicode="i" horiz-adv-x="690" d="M75 110l165 17v832l-140 44v120l306 41h5l53 -40v-998l162 -16v-110h-551v110zM319 1353q-29 0 -53 10.5t-41 29t-26 44t-9 54.5q0 32 9.5 61t28 51.5t46.5 36t65 13.5h1q33 0 58 -12t42 -31.5t26 -44.5t9 -52q0 -34 -9.5 -63t-29 -50.5t-48.5 -34t-68 -12.5h-1v0z" />
<glyph unicode="j" horiz-adv-x="667" d="M247 951l-140 44l2 128l305 41h5l52 -40v-1102q0 -128 -25.5 -223t-71 -159t-108.5 -98t-138 -40h-24.5t-35 0.5t-34 2.5t-20.5 5l-11 111q7 -1 20.5 0.5t28.5 5t30 7.5t27 9q43 16 70.5 54.5t43 93t21 122t5.5 142.5zM323 1353q-29 0 -53 10.5t-41 29t-26 44t-9 54.5 q0 32 9.5 61t28 51.5t46.5 36t65 13.5h1q33 0 58 -12t42 -31.5t26 -44.5t9 -52q0 -34 -9.5 -63t-29 -50.5t-48.5 -34t-68 -12.5h-1v0z" />
<glyph unicode="k" horiz-adv-x="1305" d="M83 110l136 17v1395l-156 18v95l327 45h2l50 -35v-985l-4 -125l454 466l-161 34v103h512v-103l-163 -37l-288 -284l385 -588l123 -16v-110h-501v109l119 19l-275 457l-206 -201l5 -96v-161l146 -18v-109h-505v110z" />
<glyph unicode="l" horiz-adv-x="689" d="M72 110l165 17v1395l-165 18v95l336 45h2l50 -35v-1518l173 -17v-110h-561v110z" />
<glyph unicode="m" horiz-adv-x="2062" d="M121 108l126 18v833l-140 44v120l285 41h5l48 -40v-78l-1 -43q33 30 81.5 58.5t104 51t113 36.5t109.5 14q111 0 177.5 -36t101.5 -113q28 24 76 50.5t104 48.5t114 36t107 14q98 0 161.5 -26.5t100 -83.5t51 -147t14.5 -216v-564l146 -18v-108h-492v108l123 18v558 q0 82 -8 143t-32 101.5t-66.5 61t-111.5 20.5q-31 0 -66 -7.5t-70 -19.5t-67 -28t-56 -33q19 -94 19 -234v-562l145 -18v-108h-503v108l135 18v563q0 80 -7.5 140t-29 100t-61.5 60t-106 20q-36 0 -73.5 -7t-74.5 -19.5t-71 -30t-62 -38.5v-788l137 -18v-108h-486v108z" />
<glyph unicode="n" horiz-adv-x="1385" d="M113 110l134 17v832l-140 44v120l286 41h5l49 -40v-78l-2 -43q33 30 81.5 58.5t103.5 51t113 36.5t111 14q99 0 163 -27t100.5 -85t50.5 -147.5t14 -215.5v-561l148 -17v-110h-504v110l132 17v562q0 80 -7 140t-28.5 100t-61.5 60t-105 20q-38 0 -76.5 -7.5t-75 -20 t-71 -30.5t-62.5 -39v-785l141 -17v-110h-499v110z" />
<glyph unicode="o" horiz-adv-x="1203" d="M75 574q0 142 46.5 252.5t122.5 186.5t172.5 115.5t197.5 39.5q136 0 233.5 -46.5t159.5 -127.5t91 -190t29 -233q0 -95 -21 -176.5t-58.5 -147.5t-89 -116.5t-111.5 -84.5t-126 -51.5t-133 -17.5q-136 0 -233 46.5t-159.5 127.5t-91.5 190t-29 233zM600 100 q142 0 210 114t68 338q0 103 -15 192.5t-48 156.5t-85.5 105.5t-127.5 38.5q-143 0 -211 -113t-68 -339q0 -103 15.5 -193t48.5 -156.5t85.5 -105t127.5 -38.5z" />
<glyph unicode="p" horiz-adv-x="1298" d="M225 -365v1324l-141 44v120l287 41h5l46 -40v-111q26 27 60 55t77 50t94.5 36t113.5 14q87 0 167.5 -32t143 -99.5t99.5 -173.5t37 -254q0 -131 -40.5 -246.5t-116 -201t-182.5 -135t-239 -49.5q-24 0 -50.5 2t-52.5 5t-49.5 7t-41.5 9l6 -170v-195l205 -23v-108h-581 v108zM448 157q7 -12 24.5 -23.5t43 -21t57.5 -15t68 -5.5q68 0 127.5 26.5t104 84t71 149t28.5 221.5q2 116 -21 199.5t-63.5 137.5t-96 79.5t-118.5 25.5q-39 0 -73 -9t-62.5 -22.5t-51 -30.5t-38.5 -33v-763z" />
<glyph unicode="q" horiz-adv-x="1244" d="M532 -23q-87 0 -167.5 34t-143 103.5t-99.5 177t-37 254.5q0 132 40.5 246t116.5 197.5t184.5 131t244.5 47.5q71 0 139 -10t121 -25l101 31h2l43 -40v-1488l136 -24v-108h-568v108l210 23v317l6 168q-26 -27 -59.5 -52.5t-74.5 -45.5t-89.5 -32.5t-105.5 -12.5zM625 130 q40 0 75 9.5t64 24.5t52 33t38 35v756q-6 12 -24 24t-44.5 21t-59.5 14.5t-69 5.5q-68 0 -127 -25t-104 -80.5t-71.5 -145.5t-28.5 -220q-2 -116 21 -201t63.5 -141t96 -83t118.5 -27z" />
<glyph unicode="r" horiz-adv-x="940" d="M91 110l163 17v832l-140 44v120l282 41h5l47 -40v-60l-1 -125h2q5 8 20 28.5t38.5 46t55.5 53t71.5 50t86.5 37t100 14.5q23 0 38 -2.5t26 -6.5v-245q-4 3 -15 6.5t-26.5 6.5t-34.5 5.5t-38 2.5q-56 0 -101 -6t-80.5 -16.5t-63.5 -24.5t-49 -29v-732l272 -19v-108h-658 v110z" />
<glyph unicode="s" horiz-adv-x="1045" d="M129 326h142l41 -148q9 -16 31 -31.5t52 -28t67 -20t77 -7.5q62 0 102 13.5t63 35.5t31.5 51t8.5 61q0 39 -17.5 70.5t-53.5 60t-92.5 56t-134.5 57.5q-81 31 -140 66t-98 78.5t-57.5 97t-18.5 121.5q0 69 31.5 124.5t87 95.5t131 61.5t163.5 21.5q62 0 114 -8t94 -18.5 t73 -21t51 -16.5v-250l-133 1l-44 129q-13 26 -56.5 48.5t-111.5 22.5q-52 1 -89 -10t-60 -30t-34 -44.5t-11 -54.5q0 -54 23 -88t60.5 -58t85.5 -42t98 -40q69 -30 131.5 -63t110.5 -75.5t76.5 -99t28.5 -133.5q0 -76 -29.5 -138t-85.5 -105.5t-136.5 -67t-181.5 -23.5 q-54 0 -112 9t-111.5 22t-97 28.5t-69.5 27.5v262z" />
<glyph unicode="t" horiz-adv-x="844" d="M223 993h-145v94q31 10 61.5 21t44.5 20q33 23 56 75q8 18 20 47.5t23.5 60.5t21 59t13.5 44h128v-276h335v-145h-335v-598q0 -89 2.5 -139t14 -74t34 -29.5t63.5 -5.5h1q28 0 60 4t62 9.5t55 12t40 12.5h1l34 -98q-24 -18 -66 -37.5t-91.5 -35.5t-103 -26.5t-99.5 -10.5 h-2q-53 0 -95 12t-71.5 39.5t-45.5 73t-16 111.5v780z" />
<glyph unicode="u" horiz-adv-x="1314" d="M204 993l-112 43v96l289 32h1l45 -28v-704q0 -83 8.5 -140.5t31.5 -93.5t62.5 -52t101.5 -16q43 0 82 9.5t72 23t59 29.5t44 29v772l-141 43v97l306 31h2l56 -28v-1022h121v-100q-35 -11 -83 -24.5t-108 -13.5q-63 0 -96 23t-33 86v41q-28 -24 -66.5 -50.5t-84.5 -48.5 t-97.5 -36t-105.5 -14q-93 0 -160 24t-110 77t-63.5 137t-20.5 205v573z" />
<glyph unicode="v" horiz-adv-x="1173" d="M96 1002l-97 28v108h506v-108l-159 -28l189 -553l94 -281l77 269l188 565l-140 28v108h421v-108l-100 -28l-390 -1018h-185z" />
<glyph unicode="w" horiz-adv-x="1794" d="M109 1002l-112 28v108h502v-108l-162 -28l165 -593l56 -250l53 249l208 730h217l206 -729l54 -247l60 245l160 593l-156 30v108h440v-108l-118 -28l-308 -1018h-215l-219 742l-48 224l-36 -224l-216 -742h-207z" />
<glyph unicode="x" horiz-adv-x="1221" d="M18 105l137 21l347 446l-333 430l-120 28v108h522v-108l-141 -28l178 -241l59 -91l50 89l179 243l-148 28v108h448v-108l-128 -28l-324 -410l349 -468l116 -19v-105h-523v105l131 21l-181 261l-63 93l-49 -91l-182 -262l162 -22v-105h-486v105z" />
<glyph unicode="y" horiz-adv-x="1191" d="M155 -311q6 -3 19 -6t29.5 -5.5t34 -3.5t34.5 -1q32 0 70.5 8.5t80.5 41t86 98t87 179.5h-126l-374 1002l-96 28v108h504v-108l-160 -28l204 -614l90 -295l80 295l174 614l-135 28v108h418v-108l-103 -28q-78 -247 -134.5 -429t-96 -308t-63.5 -199.5t-37 -103.5 q-48 -120 -94.5 -208.5t-101.5 -147t-122 -87.5t-155 -29q-15 0 -32 1t-33 3t-29 4.5t-19 5.5v185v0z" />
<glyph unicode="z" horiz-adv-x="1145" d="M663 888l124 127l-442 -15l-37 -187h-143v325h846l42 -92l-579 -800l-126 -124l510 24l74 208l134 -16l-30 -338h-915l-45 94z" />
<glyph unicode="{" horiz-adv-x="1029" d="M299 -26q0 72 21 133.5t46 118.5t46 112t21 115q0 37 -13.5 66.5t-48 50t-93 31.5t-147.5 11v163q89 0 147.5 8t93 25.5t48 44t13.5 63.5q0 60 -21 115t-46 112t-46 118.5t-21 133.5q0 60 14.5 107t49.5 79t94.5 49t148.5 17q72 0 136.5 -9t124.5 -25v-102h-169 q-36 0 -69 -5.5t-57.5 -22t-39.5 -47t-15 -79.5q0 -45 15.5 -100.5t34 -115t34 -120t15.5 -115.5q0 -51 -18.5 -88.5t-51 -63.5t-76 -42t-93.5 -24q50 -8 93.5 -25t76 -44.5t51 -66t18.5 -89.5q0 -55 -15.5 -115.5t-34 -120t-34 -115t-15.5 -100.5q0 -49 15 -79.5t39.5 -47 t57.5 -22t69 -5.5h169v-102q-60 -16 -124.5 -25t-136.5 -9q-89 0 -148.5 17t-94.5 49t-49.5 79t-14.5 107z" />
<glyph unicode="|" horiz-adv-x="865" d="M338 1780h189v-1966h-189v1966z" />
<glyph unicode="}" horiz-adv-x="1029" d="M730.019 -26q0 72 -20.999 133.5t-45.9971 118.5q-24.999 57 -45.9971 112q-20.999 55 -20.999 115q0 37 13.499 66.5t47.9971 50t92.9941 31.5q58.4971 11 147.491 11v163q-88.9941 0 -147.491 8q-58.4961 8 -92.9941 25.5t-47.9971 44t-13.499 63.5q0 60 20.999 115 q20.998 55 45.9971 112q24.998 57 45.9971 118.5t20.999 133.5q0 60 -14.499 107q-14.5 47 -49.4971 79q-34.998 32 -94.4941 49q-59.4971 17 -148.491 17q-71.9961 0 -136.492 -9t-124.492 -25v-102h168.99q35.9971 0 68.9951 -5.5t57.4971 -22q24.498 -16.5 39.4971 -47 t14.999 -79.5q0 -45 -15.499 -100.5t-33.998 -115q-18.498 -59.5 -33.9971 -120q-15.5 -60.5 -15.5 -115.5q0 -51 18.499 -88.5t50.9971 -63.5t75.9951 -42q43.498 -16 93.4951 -24q-49.9971 -8 -93.4951 -25q-43.4971 -17 -75.9951 -44.5t-50.9971 -66t-18.499 -89.5 q0 -55 15.5 -115.5q15.499 -60.5 33.9971 -120q18.499 -59.5 33.998 -115t15.499 -100.5q0 -49 -14.999 -79.5t-39.4971 -47q-24.499 -16.5 -57.4971 -22t-68.9951 -5.5h-168.99v-102q59.9961 -16 124.492 -25t136.492 -9q88.9941 0 148.491 17q59.4961 17 94.4941 49 q34.9971 32 49.4971 79q14.499 47 14.499 107z" />
<glyph unicode="~" horiz-adv-x="1414" d="M215 595q21 33 53.5 65.5t74 59t91 42.5t104.5 16q45 0 81 -12t67 -29.5t57.5 -38t52.5 -38t52.5 -29.5t57.5 -12q35 0 65 9t55.5 24t47 33.5t39.5 38.5l86 -98q-22 -35 -54.5 -68t-74 -59t-90.5 -41.5t-104 -15.5q-44 0 -79 12t-65.5 29.5t-57 38.5t-52.5 38.5t-54 29.5 t-60 12q-34 0 -63.5 -9t-55 -24t-47.5 -34t-41 -38z" />
<glyph horiz-adv-x="0" />
<glyph unicode="&#xa2;" horiz-adv-x="1196" d="M626 1375h146l-15 -287h-146zM687 44l-15 -287h-147l15 287h147zM143 552q0 124 39 236t113.5 196.5t182 134t244.5 49.5q49 0 95.5 -6.5t86 -16t70.5 -20.5t51 -19l-10 -294h-135l-45 166q-26 34 -65.5 52.5t-96.5 18.5t-109 -26t-92.5 -78.5t-65 -131t-25.5 -183.5 q-1 -136 26.5 -231t73.5 -154.5t107 -86.5t127 -27q47 0 88.5 8t76.5 21t64 29t51 33l44 -96q-27 -28 -67 -54.5t-89.5 -47.5t-104.5 -34t-112 -13q-129 0 -226.5 44.5t-163 121.5t-99 182t-34.5 227z" />
<glyph unicode="&#xa3;" horiz-adv-x="1511" d="M129 91q0 32 18 63.5t51.5 56.5t81 38.5t105.5 9.5q10 19 17 54t11 75.5t5.5 81t1.5 69.5v239h-192v118h192v126q0 114 41.5 208.5t111.5 163t162.5 106.5t194.5 38q94 0 177 -24.5t141 -73.5l-116 -174q-7 13 -29 35.5t-57.5 44.5t-82 38t-101.5 16q-35 0 -72 -9.5 t-68 -41.5t-51 -95t-20 -169v-189h303v-118h-303v-178q0 -121 -35.5 -211t-88.5 -154q54 -5 115.5 -20t126 -30.5t128.5 -27.5t123 -12q58 0 93 11t54 32.5t25 54t6 75.5q0 29 -5.5 58.5t-14 54.5t-18.5 44.5t-20 29.5h238q14 -17 27 -55.5t13 -103.5q0 -64 -28 -128.5 t-80 -116t-124.5 -84t-162.5 -32.5q-61 0 -115.5 10.5t-104 26.5t-95.5 34.5t-89.5 34.5t-85.5 27t-84 12q-48 -57 -99.5 -94t-112.5 -37q-16 0 -35 4t-35 14.5t-27 28.5t-11 45z" />
<glyph unicode="&#xa4;" horiz-adv-x="1547" d="M408 513q-35 53 -54.5 116t-19.5 134q0 73 20.5 139.5t58.5 122.5l-216 216l128 130l217 -219q50 32 107 49.5t121 17.5t123 -16.5t110 -45.5l217 216l129 -129l-211 -210q38 -53 58.5 -116t20.5 -135q0 -74 -22 -141t-62 -124l212 -212l-129 -129l-215 216 q-51 -32 -109.5 -49t-121.5 -17q-64 0 -121.5 16t-107.5 46l-215 -216l-129 129zM772 494q69 0 118 21.5t80.5 58.5t46 86.5t14.5 105.5t-21.5 108t-58 91.5t-85 63t-102.5 23.5q-65 0 -112.5 -23.5t-79 -63t-46.5 -91.5t-15 -108t20.5 -105.5t55.5 -86.5t83 -58.5 t102 -21.5z" />
<glyph unicode="&#xa5;" horiz-adv-x="1560" d="M235 477h450v246l-1 2h-449v120h370l-361 552l-132 27v98h542v-98l-164 -28l251 -433l64 -112l73 117l246 429l-168 27v98h473v-98l-143 -28l-342 -551h381v-120h-446v-248h446v-121h-446v-230l231 -27v-99h-652v99l227 28v229h-450v121z" />
<glyph unicode="&#xa6;" horiz-adv-x="865" d="M338 1780h189v-830h-189v830zM338 641h189v-827h-189v827z" />
<glyph unicode="&#xa7;" horiz-adv-x="1368" d="M210 246h139l42 -234q17 -20 46 -37t65.5 -30t79 -20t86.5 -7q76 0 131.5 13.5t92 37t54 55.5t17.5 69q0 54 -23.5 92.5t-67 69.5t-104.5 58t-137 57q-51 22 -104 47t-102.5 54.5t-93.5 65.5t-76.5 80.5t-51.5 99.5t-19 123q0 85 38 150t100 113q-45 47 -72 106.5 t-27 138.5q0 74 32.5 135.5t94 106t150 69t200.5 24.5q70 0 131 -10t110.5 -23t87 -24.5t60.5 -15.5l-13 -326h-129l-55 219q-6 9 -23 19t-43 18.5t-60 14t-75 5.5q-135 0 -200 -45t-65 -121q0 -60 23.5 -100t66 -70.5t101.5 -57t129 -59.5q41 -18 90 -40.5t98.5 -51t96 -64 t82.5 -78.5t57.5 -95t21.5 -114q0 -84 -36.5 -153.5t-96.5 -126.5q49 -45 79.5 -103t30.5 -133q0 -64 -30.5 -127t-93.5 -112.5t-160 -80.5t-230 -31q-87 0 -161.5 14t-133 31t-101 32t-66.5 17zM745 559q45 -20 96 -42.5t100 -50.5q40 61 40 144q0 57 -24.5 100t-69.5 78.5 t-109 66t-142 62.5q-49 21 -103.5 46t-107.5 58q-49 -56 -49 -134q0 -64 27.5 -109.5t76.5 -82t116.5 -68t148.5 -68.5z" />
<glyph unicode="&#xa8;" horiz-adv-x="1022" d="M731 1353q-29 0 -53 10.5t-40.5 29t-25.5 44t-9 54.5q0 32 9.5 61t28 51.5t46.5 36t65 13.5h1q32 0 57 -12t42.5 -31.5t26.5 -44.5t9 -52q0 -34 -9.5 -63t-29 -50.5t-49 -34t-68.5 -12.5h-1zM269 1353q-30 0 -53.5 10.5t-40.5 29t-26 44t-9 54.5q0 32 9.5 61t28 51.5 t46.5 36t65 13.5h1q32 0 57 -12t42.5 -31.5t26.5 -44.5t9 -52q0 -34 -9.5 -63t-29 -50.5t-48.5 -34t-68 -12.5h-1z" />
<glyph unicode="&#xa9;" horiz-adv-x="2129" d="M194 1003q0 121 30.5 233.5t87 210t135.5 177.5t175.5 137t208 88t233.5 31t233.5 -31t208.5 -88t176 -137t135 -177.5t87 -210t31 -233.5q0 -122 -31 -234.5t-87 -210.5t-135 -178.5t-176 -137.5t-209 -88.5t-233 -31.5t-233 31.5t-208.5 88.5t-175.5 137.5 t-135.5 178.5t-87 210.5t-30.5 234.5zM337 1003q0 -103 25 -198.5t71.5 -179.5t112 -153.5t146 -119.5t174.5 -77.5t198 -27.5q103 0 197.5 27.5t175 77.5t146 119.5t112 153.5t71.5 179.5t25 198.5q0 102 -25 198t-71.5 179.5t-112 153t-146 119.5t-175 77.5t-197.5 27.5 t-197.5 -27.5t-175 -77.5t-146 -119.5t-112 -153t-71.5 -179.5t-25 -198zM620 994q0 105 38.5 197t106.5 160t161 107.5t203 39.5q33 0 72 -4t75 -12t65.5 -19t44.5 -26l-2 -226h-121l-49 133q-11 7 -22.5 13.5t-29 10.5t-44 6.5t-66.5 2.5q-57 0 -101 -24.5t-74.5 -69.5 t-46 -108t-15.5 -141q0 -82 25 -150.5t69 -118t103.5 -77t129.5 -27.5q63 0 114 22t90 57l50 -73q-21 -27 -54.5 -54t-76 -49t-92 -36t-103.5 -14q-111 0 -195.5 36t-141 99.5t-85 151.5t-28.5 193z" />
<glyph unicode="&#xaa;" horiz-adv-x="1034" d="M403 669q-63 0 -115.5 19t-90 53t-58.5 81.5t-21 103.5q0 75 37.5 129t109.5 90t177 56t239 26v24q0 63 -9.5 103.5t-32 64t-60 33t-94.5 9.5q-42 0 -82 -6.5t-76 -17t-68 -22.5t-58 -24l-56 106q29 18 75 38t99 36.5t109 27t104 10.5q87 0 153 -17t110 -56t66 -102.5 t22 -156.5v-488h110v-90q-16 -5 -37.5 -10t-45.5 -9.5t-50 -7.5t-50 -3q-27 0 -49 2t-37 10t-23 24t-8 45v40q-24 -21 -52.5 -43t-63.5 -39t-78 -28t-96 -11zM491 803q28 0 58 8t56.5 19.5t46.5 24.5t28 23l1 -1v252q-102 -4 -168.5 -17t-105.5 -36t-54.5 -56t-15.5 -77 q0 -29 10 -54t29.5 -44.5t48 -30.5t66.5 -11z" />
<glyph unicode="&#xab;" horiz-adv-x="1910" d="M979 693l650 430l65 -112l-456 -397l462 -386l-71 -115l-650 415v165zM240 693l650 430l65 -112l-456 -397l462 -386l-71 -115l-650 415v165z" />
<glyph unicode="&#xac;" horiz-adv-x="1410" d="M210 696h990v-537h-178v390h-812v147z" />
<glyph unicode="&#xad;" horiz-adv-x="1345" d="M230 697h885v-162h-885v162z" />
<glyph unicode="&#xae;" horiz-adv-x="2129" d="M194 1003q0 121 30.5 233.5t87 210t135.5 177.5t175.5 137t208 88t233.5 31t233.5 -31t208.5 -88t176 -137t135 -177.5t87 -210t31 -233.5q0 -122 -31 -234.5t-87 -210.5t-135 -178.5t-176 -137.5t-209 -88.5t-233 -31.5t-233 31.5t-208.5 88.5t-175.5 137.5 t-135.5 178.5t-87 210.5t-30.5 234.5zM337 1003q0 -103 25 -198.5t71.5 -179.5t112 -153.5t146 -119.5t174.5 -77.5t198 -27.5q103 0 197.5 27.5t175 77.5t146 119.5t112 153.5t71.5 179.5t25 198.5q0 102 -25 198t-71.5 179.5t-112 153t-146 119.5t-175 77.5t-197.5 27.5 t-197.5 -27.5t-175 -77.5t-146 -119.5t-112 -153t-71.5 -179.5t-25 -198zM670 609l92 28v718l-92 24v102h160q30 -1 50 -1t44.5 1t60.5 2.5t99 2.5q85 0 154 -17t118 -48.5t75 -77.5t26 -103q0 -120 -60 -195t-163 -101q44 -23 71.5 -54.5t45.5 -66t32 -69.5t31 -63.5 t41.5 -48.5t65.5 -25v-98h-163q-47 0 -73 23.5t-42.5 60t-27.5 81.5t-28.5 88.5t-45.5 81t-78 58.5q-9 0 -27 0.5t-38 1t-38 1t-27 0.5v-284l98 -22v-90h-361v90zM933 1044q29 -6 64 -7.5t78 -1.5q40 0 74 13.5t59 36.5t38.5 54.5t13.5 66.5q0 93 -50 133.5t-162 40.5h-28.5 t-25 -0.5t-27 -3t-34.5 -7.5v-325z" />
<glyph unicode="&#xaf;" horiz-adv-x="681" d="M68 1590h544v-161h-544v161z" />
<glyph unicode="&#xb0;" horiz-adv-x="916" d="M457 947q-71 0 -134 27.5t-110.5 74.5t-75 110t-27.5 134q0 75 27.5 138t75 109t110.5 72t134 26q76 0 140.5 -27.5t110.5 -74.5t72 -110t26 -133q0 -75 -27.5 -138.5t-74.5 -109.5t-110.5 -72t-136.5 -26zM460 1094q43 0 78.5 14.5t60.5 40.5t38.5 63t13.5 81 q0 41 -15 77t-41.5 63t-62 43t-76.5 16q-43 0 -78 -15t-60.5 -41.5t-39.5 -63t-14 -79.5q0 -41 15.5 -77t42 -63t62 -43t76.5 -16z" />
<glyph unicode="&#xb1;" horiz-adv-x="1353" d="M233 163h356v217l7 159l-167 -7h-212v175h212l167 -12l-7 162v228h175v-228l-9 -162l138 12h243v-175h-243l-138 7l9 -159v-217h354v-163h-885v163z" />
<glyph unicode="&#xb2;" d="M119 805q38 24 90.5 61.5t109.5 85.5t112.5 103.5t99.5 115t71.5 120t27.5 118.5q0 36 -11.5 67t-34.5 53t-57.5 34.5t-80.5 12.5q-42 0 -82 -9.5t-74 -24.5t-61 -34t-44 -37l-69 80q18 26 54.5 56t86 55.5t109 42.5t124.5 17q86 0 149 -22.5t104.5 -61t62 -89 t20.5 -105.5q0 -48 -20.5 -101.5t-56.5 -108.5t-85 -110.5t-105.5 -108t-118 -100.5t-123.5 -88l405 33l82 138l108 -21l-51 -274h-701z" />
<glyph unicode="&#xb3;" d="M146 851q53 -20 116.5 -33.5t120.5 -13.5q153 0 229 47.5t76 149.5q0 34 -16.5 65t-46.5 54t-72 36.5t-93 11.5l-116 -43l-33 110q26 5 66 19t80 34q30 15 56.5 33t46 39.5t31 46.5t11.5 54t-7 52.5t-25.5 40t-51 25.5t-84.5 9q-33 0 -66.5 -7t-64.5 -20t-58.5 -30 t-49.5 -37l-61 96q24 24 60.5 48t81.5 43t97.5 30.5t109.5 11.5q73 0 132 -16t100.5 -45t64 -69.5t22.5 -89.5q0 -38 -10 -75.5t-36 -73t-71.5 -67.5t-115.5 -58q90 6 152 -15t100 -56t55 -79t17 -83q0 -66 -31.5 -124t-91.5 -100.5t-147.5 -67t-198.5 -24.5q-30 0 -65 3.5 t-71.5 11t-73 18t-68.5 25.5v113z" />
<glyph unicode="&#xb4;" horiz-adv-x="681" d="M207 1411l325 402h1l162 -142q-13 -22 -42 -53t-67 -66t-81 -70t-84.5 -64.5t-76.5 -51.5t-57 -29h-2z" />
<glyph unicode="&#xb5;" horiz-adv-x="1398" d="M253 454v7v536l-117 56v78l294 30l45 -28v-753q0 -33 9 -76.5t31.5 -82.5t62 -65.5t99.5 -26.5q62 0 105.5 11.5t73.5 28t48.5 34t30.5 30.5v764l-127 54v81l316 29l32 -27v-1020h120v-105q-15 -8 -40 -15.5t-54.5 -13t-59 -9t-53.5 -3.5q-54 0 -82 24t-28 71v74 q-63 -78 -133.5 -118t-169.5 -40q-70 0 -118.5 19t-80.5 48v-419h-204v827z" />
<glyph unicode="&#xb6;" horiz-adv-x="1465" d="M321 102l201 27v650q-110 0 -191.5 32.5t-135 93.5t-79.5 148t-26 197q0 98 36.5 182t107 146t174 97.5t236.5 35.5q50 0 89.5 -1.5t75 -3.5t70 -5t74.5 -5t88.5 -3.5t112.5 -1.5h171v-111l-156 -23v-1428l132 -27v-102h-335v1545q-17 2 -41 4.5t-52 4.5t-57 3.5t-56 1.5 q-9 0 -18.5 -0.5t-15.5 -2.5v-1556h-405v102z" />
<glyph unicode="&#xb7;" horiz-adv-x="703" d="M200 691q0 35 14.5 64.5t38.5 51.5t54 34t61 12q37 0 64.5 -11t44.5 -30t25.5 -43.5t8.5 -52.5q0 -37 -14 -67t-37 -51t-54 -32.5t-64 -11.5q-28 0 -53.5 9.5t-45 27t-31.5 43t-12 57.5z" />
<glyph unicode="&#xb8;" horiz-adv-x="615" d="M237 14l44 -12q16 -15 39 -45t44 -69.5t35.5 -86.5t11.5 -95q-3 -55 -21 -92.5t-51 -60.5t-79.5 -33t-106.5 -10h-1q-17 0 -37 2t-39.5 5.5t-37 8.5t-30.5 11l1 155q21 -7 46 -10t36 -3h1q33 0 58.5 4t43 18t26 42t8.5 75q0 26 -6 54t-15 53t-19 45.5t-17 31.5z" />
<glyph unicode="&#xb9;" d="M200 810l250 24v662q-30 -11 -63.5 -20t-66 -16t-63 -12.5t-55.5 -9.5l-28 117q41 12 89 27t97.5 35t98.5 46t92 59h3l85 -17v-871l215 -24v-107h-654v107z" />
<glyph unicode="&#xba;" horiz-adv-x="1041" d="M521 676q-89 0 -166.5 28t-135 86.5t-90.5 148t-31 210.5q1 120 41.5 206t103 141.5t139 82t150.5 26.5q97 0 173.5 -30.5t130 -89.5t81 -146t26.5 -200q-1 -83 -19.5 -149.5t-49.5 -118t-72.5 -88.5t-88 -60.5t-96 -35t-96.5 -11.5zM518 783q51 0 89.5 13.5t64 51 t38.5 104.5t13 174q0 87 -14 156t-40 117t-63.5 73.5t-84.5 24.5q-48 -1 -85.5 -20.5t-63.5 -60.5t-40 -105t-14 -153q0 -87 16.5 -157t44.5 -118.5t64 -74t75 -25.5z" />
<glyph unicode="&#xbb;" horiz-adv-x="1897" d="M1660.01 693l-649.96 430l-64.9961 -112l455.972 -397l-461.972 -386l70.9961 -115l649.96 415v165zM949.015 693l-649.96 430l-64.9961 -112l455.972 -397l-461.972 -386l70.9961 -115l649.96 415v165z" />
<glyph unicode="&#xbc;" horiz-adv-x="2429" d="M200 636l250 24v662q-30 -11 -63.5 -20t-66 -16t-63 -12.5t-55.5 -9.5l-28 117q41 12 89 27t97.5 35t98.5 46t92 59h3l85 -17v-871l215 -24v-107h-654v107zM1453 266q2 4 22.5 38.5t52.5 88t72 121t82.5 138t83 139t73 124t54 92.5t25.5 45h65l122 -83l-396 -589l-61 -94 l356 24l4 236l181 18v-241l172 12l2 -157h-174v-204h-185v204h-498zM764 -131l749 1811l151 -31l-747 -1806z" />
<glyph unicode="&#xbd;" horiz-adv-x="2429" d="M200 636l250 24v662q-30 -11 -63.5 -20t-66 -16t-63 -12.5t-55.5 -9.5l-28 117q41 12 89 27t97.5 35t98.5 46t92 59h3l85 -17v-871l215 -24v-107h-654v107zM764 -131l749 1811l151 -31l-747 -1806zM1520 102q38 24 90.5 61.5t109.5 85.5t112.5 103.5t99.5 115t71.5 120 t27.5 118.5q0 36 -11.5 67t-34.5 53t-57.5 34.5t-80.5 12.5q-42 0 -82 -9.5t-74 -24.5t-61 -34t-44 -37l-69 80q18 26 54.5 56t86 55.5t109 42.5t124.5 17q86 0 149 -22.5t104.5 -61t62 -89t20.5 -105.5q0 -48 -20.5 -101.5t-56.5 -108.5t-85 -110.5t-105.5 -108 t-118 -100.5t-123.5 -88l405 33l82 138l108 -21l-51 -274h-701z" />
<glyph unicode="&#xbe;" horiz-adv-x="2433" d="M159 677q53 -20 116.5 -33.5t120.5 -13.5q153 0 229 47.5t76 149.5q0 34 -16.5 65t-46.5 54t-72 36.5t-93 11.5l-116 -43l-33 110q26 5 66 19t80 34q30 15 56.5 33t46 39.5t31 46.5t11.5 54t-7 52.5t-25.5 40t-51 25.5t-84.5 9q-33 0 -66.5 -7t-64.5 -20t-58.5 -30 t-49.5 -37l-61 96q24 24 60.5 48t81.5 43t97.5 30.5t109.5 11.5q73 0 132 -16t100.5 -45t64 -69.5t22.5 -89.5q0 -38 -10 -75.5t-36 -73t-71.5 -67.5t-115.5 -58q90 6 152 -15t100 -56t55 -79t17 -83q0 -66 -31.5 -124t-91.5 -100.5t-147.5 -67t-198.5 -24.5q-30 0 -65 3.5 t-71.5 11t-73 18t-68.5 25.5v113zM1453 266q2 4 22.5 38.5t52.5 88t72 121t82.5 138t83 139t73 124t54 92.5t25.5 45h65l122 -83l-396 -589l-61 -94l356 24l4 236l181 18v-241l172 12l2 -157h-174v-204h-185v204h-498zM764 -131l749 1811l151 -31l-747 -1806z" />
<glyph unicode="&#xc0;" horiz-adv-x="1412" d="M-32 110l129 28l507 1397h227l494 -1398l128 -27v-110h-542v110l163 28l-94 291h-596l-94 -291l169 -28v-110h-490zM938 557l-213 661l-42 162l-43 -162l-214 -661h512zM835 1633q-22 6 -56.5 20.5t-74.5 34t-82 43.5t-80 49.5t-68.5 51.5t-46.5 50l152 132h1l333 -313 l-77 -68h-1v0z" />
<glyph unicode="&#xc1;" horiz-adv-x="1412" d="M-32 110l129 28l507 1397h227l494 -1398l128 -27v-110h-542v110l163 28l-94 291h-596l-94 -291l169 -28v-110h-490zM938 557l-213 661l-42 162l-43 -162l-214 -661h512zM579 1701l334 313h1l152 -132q-17 -24 -47 -50t-68 -51.5t-80.5 -49.5t-82 -43.5t-74 -34 t-56.5 -20.5h-1z" />
<glyph unicode="&#xc2;" horiz-adv-x="1412" d="M-32 110l129 28l507 1397h227l494 -1398l128 -27v-110h-542v110l163 28l-94 291h-596l-94 -291l169 -28v-110h-490zM938 557l-213 661l-42 162l-43 -162l-214 -661h512zM362 1712l265 302h192l267 -300l-93 -59l-270 198l-275 -198z" />
<glyph unicode="&#xc3;" horiz-adv-x="1412" d="M-32 110l129 28l507 1397h227l494 -1398l128 -27v-110h-542v110l163 28l-94 291h-596l-94 -291l169 -28v-110h-490zM938 557l-213 661l-42 162l-43 -162l-214 -661h512zM295 1796q9 34 34.5 71.5t63.5 69.5t87 53t106 21q41 0 73.5 -12t59.5 -30.5t49.5 -40t45 -40 t45.5 -30.5t50 -12q34 0 58.5 14t41 33t27 39t18.5 32l103 -63q-15 -41 -38.5 -80t-57 -69t-76.5 -48t-95 -18q-41 0 -73.5 12t-60.5 30.5t-52 40t-48.5 40t-49.5 30.5t-55 12q-34 0 -59.5 -14t-44 -33.5t-31 -39.5t-19.5 -31z" />
<glyph unicode="&#xc4;" horiz-adv-x="1412" d="M-32 110l129 28l507 1397h227l494 -1398l128 -27v-110h-542v110l163 28l-94 291h-596l-94 -291l169 -28v-110h-490zM938 557l-213 661l-42 162l-43 -162l-214 -661h512zM959 1690q-29 0 -53 10.5t-41 29.5t-26 44.5t-9 54.5q0 32 9.5 61t28 51.5t46.5 36t65 13.5h1 q33 0 58 -12t42.5 -31.5t26.5 -45t9 -51.5q0 -34 -10 -63.5t-29.5 -51t-48.5 -34t-68 -12.5h-1zM463 1690q-29 0 -53 10.5t-40.5 29.5t-25.5 44.5t-9 54.5q0 32 9.5 61t28 51.5t46.5 36t65 13.5h1q32 0 57 -12t42.5 -31.5t26.5 -45t9 -51.5q0 -34 -9.5 -63.5t-29 -51 t-49 -34t-68.5 -12.5h-1z" />
<glyph unicode="&#xc6;" horiz-adv-x="1880" d="M530 1385l-261 27v110h1406l28 -311h-129l-65 184l-475 11v-566l327 7l30 163h134v-460h-134l-30 165l-327 6v-594l557 23l130 246l129 -39l-77 -357h-1132v107l168 26v298h-513l-120 -296l146 -29v-106h-496v106l146 30zM809 560v837h-120l-103 -249l-238 -588h461z" />
<glyph unicode="&#xc8;" horiz-adv-x="1341" d="M784 1633q-22 6 -56.5 20.5t-74.5 34t-82 43.5t-80 49.5t-68.5 51.5t-46.5 50l152 132h1l333 -313l-77 -68h-1v0zM100 110l168 27v1248l-164 27v110h1031l27 -310h-128l-65 182l-471 12v-566l324 7l31 163h136v-460h-136l-30 165l-325 6v-593l546 22l115 245l128 -38 l-61 -357h-1126v110z" />
<glyph unicode="&#xc9;" horiz-adv-x="1341" d="M553 1701l334 313h1l152 -132q-17 -24 -47 -50t-68 -51.5t-80.5 -49.5t-82 -43.5t-74 -34t-56.5 -20.5h-1zM100 110l168 27v1248l-164 27v110h1031l27 -310h-128l-65 182l-471 12v-566l324 7l31 163h136v-460h-136l-30 165l-325 6v-593l546 22l115 245l128 -38l-61 -357 h-1126v110z" />
<glyph unicode="&#xca;" horiz-adv-x="1341" d="M100 110l168 27v1248l-164 27v110h1031l27 -310h-128l-65 182l-471 12v-566l324 7l31 163h136v-460h-136l-30 165l-325 6v-593l546 22l115 245l128 -38l-61 -357h-1126v110zM334 1712l265 302h192l267 -300l-93 -59l-270 198l-275 -198z" />
<glyph unicode="&#xcb;" horiz-adv-x="1341" d="M930 1690q-29 0 -53 10.5t-41 29.5t-26 44.5t-9 54.5q0 32 9.5 61t28 51.5t46.5 36t65 13.5h1q33 0 58 -12t42.5 -31.5t26.5 -45t9 -51.5q0 -34 -10 -63.5t-29.5 -51t-48.5 -34t-68 -12.5h-1zM434 1690q-29 0 -53 10.5t-40.5 29.5t-25.5 44.5t-9 54.5q0 32 9.5 61 t28 51.5t46.5 36t65 13.5h1q32 0 57 -12t42.5 -31.5t26.5 -45t9 -51.5q0 -34 -9.5 -63.5t-29 -51t-49 -34t-68.5 -12.5h-1zM100 110l168 27v1248l-164 27v110h1031l27 -310h-128l-65 182l-471 12v-566l324 7l31 163h136v-460h-136l-30 165l-325 6v-593l546 22l115 245 l128 -38l-61 -357h-1126v110z" />
<glyph unicode="&#xcc;" horiz-adv-x="822" d="M115 110l181 28v1247l-181 27v110h590v-110l-179 -27v-1248l179 -31v-106h-590v110zM525 1633q-22 6 -56.5 20.5t-74.5 34t-82 43.5t-80 49.5t-68.5 51.5t-46.5 50l152 132h1l333 -313l-77 -68h-1v0z" />
<glyph unicode="&#xcd;" horiz-adv-x="822" d="M115 110l181 28v1247l-181 27v110h590v-110l-179 -27v-1248l179 -31v-106h-590v110zM271 1701l334 313h1l152 -132q-17 -24 -47 -50t-68 -51.5t-80.5 -49.5t-82 -43.5t-74 -34t-56.5 -20.5h-1z" />
<glyph unicode="&#xce;" horiz-adv-x="822" d="M115 110l181 28v1247l-181 27v110h590v-110l-179 -27v-1248l179 -31v-106h-590v110zM54 1712l265 302h192l267 -300l-93 -59l-270 198l-275 -198z" />
<glyph unicode="&#xcf;" horiz-adv-x="822" d="M115 110l181 28v1247l-181 27v110h590v-110l-179 -27v-1248l179 -31v-106h-590v110zM650 1690q-29 0 -53 10.5t-41 29.5t-26 44.5t-9 54.5q0 32 9.5 61t28 51.5t46.5 36t65 13.5h1q33 0 58 -12t42.5 -31.5t26.5 -45t9 -51.5q0 -34 -10 -63.5t-29.5 -51t-48.5 -34 t-68 -12.5h-1zM154 1690q-29 0 -53 10.5t-40.5 29.5t-25.5 44.5t-9 54.5q0 32 9.5 61t28 51.5t46.5 36t65 13.5h1q32 0 57 -12t42.5 -31.5t26.5 -45t9 -51.5q0 -34 -9.5 -63.5t-29 -51t-49 -34t-68.5 -12.5h-1z" />
<glyph unicode="&#xd0;" horiz-adv-x="1568" d="M100 110l168 27v597h-153v119h153v532l-156 27v110h270q89 0 175 7.5t184 7.5q198 0 339.5 -51.5t232 -147t133 -230t42.5 -300.5q0 -188 -57 -341.5t-159.5 -262.5t-245 -166.5t-313.5 -53.5q-37 1 -78.5 3.5t-84 5.5t-84.5 5t-81 2h-285v110zM498 123q54 -16 112.5 -18 t126.5 0q109 3 202 45.5t160.5 124.5t106 204t38.5 284q0 655 -571 655q-67 0 -109.5 -4.5t-65.5 -7.5v-553h338v-119h-338v-611z" />
<glyph unicode="&#xd1;" horiz-adv-x="1637" d="M412 1796q9 34 34.5 71.5t63.5 69.5t87 53t106 21q41 0 73.5 -12t59.5 -30.5t49.5 -40t45 -40t45.5 -30.5t50 -12q34 0 58.5 14t41 33t27 39t18.5 32l103 -63q-15 -41 -38.5 -80t-57 -69t-76.5 -48t-95 -18q-41 0 -73.5 12t-60.5 30.5t-52 40t-48.5 40t-49.5 30.5t-55 12 q-34 0 -59.5 -14t-44 -33.5t-31 -39.5t-19.5 -31zM98 110l167 27v1248l-167 27v110h387l683 -986l99 -185v1034l-181 27v110h503v-110l-169 -28v-1384h-148l-698 1001l-156 267v-1131l185 -27v-110h-505v110z" />
<glyph unicode="&#xd2;" horiz-adv-x="1511" d="M870 1633q-22 6 -56.5 20.5t-74.5 34t-82 43.5t-80 49.5t-68.5 51.5t-46.5 50l152 132h1l333 -313l-77 -68h-1v0zM741 -23q-161 -3 -284 52t-206 157t-126 245.5t-43 316.5q0 181 53 327.5t146 249.5t220 158.5t274 55.5q161 0 283.5 -54.5t204.5 -154.5t123.5 -241 t41.5 -314q0 -181 -52.5 -327.5t-144.5 -250t-217.5 -160.5t-272.5 -60zM756 98q96 0 173 41t132 125t84.5 211t29.5 299q0 146 -28 265t-82 203t-132.5 130t-178.5 46q-96 0 -173.5 -40t-132 -122.5t-84.5 -208.5t-30 -298q0 -147 28.5 -267t82.5 -205.5t132.5 -132 t178.5 -46.5z" />
<glyph unicode="&#xd3;" horiz-adv-x="1511" d="M615 1701l334 313h1l152 -132q-17 -24 -47 -50t-68 -51.5t-80.5 -49.5t-82 -43.5t-74 -34t-56.5 -20.5h-1zM741 -23q-161 -3 -284 52t-206 157t-126 245.5t-43 316.5q0 181 53 327.5t146 249.5t220 158.5t274 55.5q161 0 283.5 -54.5t204.5 -154.5t123.5 -241t41.5 -314 q0 -181 -52.5 -327.5t-144.5 -250t-217.5 -160.5t-272.5 -60zM756 98q96 0 173 41t132 125t84.5 211t29.5 299q0 146 -28 265t-82 203t-132.5 130t-178.5 46q-96 0 -173.5 -40t-132 -122.5t-84.5 -208.5t-30 -298q0 -147 28.5 -267t82.5 -205.5t132.5 -132t178.5 -46.5z" />
<glyph unicode="&#xd4;" horiz-adv-x="1511" d="M741 -23q-161 -3 -284 52t-206 157t-126 245.5t-43 316.5q0 181 53 327.5t146 249.5t220 158.5t274 55.5q161 0 283.5 -54.5t204.5 -154.5t123.5 -241t41.5 -314q0 -181 -52.5 -327.5t-144.5 -250t-217.5 -160.5t-272.5 -60zM756 98q96 0 173 41t132 125t84.5 211 t29.5 299q0 146 -28 265t-82 203t-132.5 130t-178.5 46q-96 0 -173.5 -40t-132 -122.5t-84.5 -208.5t-30 -298q0 -147 28.5 -267t82.5 -205.5t132.5 -132t178.5 -46.5zM398 1712l265 302h192l267 -300l-93 -59l-270 198l-275 -198z" />
<glyph unicode="&#xd5;" horiz-adv-x="1511" d="M330 1796q9 34 34.5 71.5t63.5 69.5t87 53t106 21q41 0 73.5 -12t59.5 -30.5t49.5 -40t45 -40t45.5 -30.5t50 -12q34 0 58.5 14t41 33t27 39t18.5 32l103 -63q-15 -41 -38.5 -80t-57 -69t-76.5 -48t-95 -18q-41 0 -73.5 12t-60.5 30.5t-52 40t-48.5 40t-49.5 30.5t-55 12 q-34 0 -59.5 -14t-44 -33.5t-31 -39.5t-19.5 -31zM741 -23q-161 -3 -284 52t-206 157t-126 245.5t-43 316.5q0 181 53 327.5t146 249.5t220 158.5t274 55.5q161 0 283.5 -54.5t204.5 -154.5t123.5 -241t41.5 -314q0 -181 -52.5 -327.5t-144.5 -250t-217.5 -160.5t-272.5 -60 zM756 98q96 0 173 41t132 125t84.5 211t29.5 299q0 146 -28 265t-82 203t-132.5 130t-178.5 46q-96 0 -173.5 -40t-132 -122.5t-84.5 -208.5t-30 -298q0 -147 28.5 -267t82.5 -205.5t132.5 -132t178.5 -46.5z" />
<glyph unicode="&#xd6;" horiz-adv-x="1511" d="M994 1690q-29 0 -53 10.5t-41 29.5t-26 44.5t-9 54.5q0 32 9.5 61t28 51.5t46.5 36t65 13.5h1q33 0 58 -12t42.5 -31.5t26.5 -45t9 -51.5q0 -34 -10 -63.5t-29.5 -51t-48.5 -34t-68 -12.5h-1zM498 1690q-29 0 -53 10.5t-40.5 29.5t-25.5 44.5t-9 54.5q0 32 9.5 61 t28 51.5t46.5 36t65 13.5h1q32 0 57 -12t42.5 -31.5t26.5 -45t9 -51.5q0 -34 -9.5 -63.5t-29 -51t-49 -34t-68.5 -12.5h-1zM741 -23q-161 -3 -284 52t-206 157t-126 245.5t-43 316.5q0 181 53 327.5t146 249.5t220 158.5t274 55.5q161 0 283.5 -54.5t204.5 -154.5 t123.5 -241t41.5 -314q0 -181 -52.5 -327.5t-144.5 -250t-217.5 -160.5t-272.5 -60zM756 98q96 0 173 41t132 125t84.5 211t29.5 299q0 146 -28 265t-82 203t-132.5 130t-178.5 46q-96 0 -173.5 -40t-132 -122.5t-84.5 -208.5t-30 -298q0 -147 28.5 -267t82.5 -205.5 t132.5 -132t178.5 -46.5z" />
<glyph unicode="&#xd7;" horiz-adv-x="1240" d="M166 292l341 324l-342 324l133 139l322 -350l322 350l132 -139l-341 -324l341 -324l-132 -139l-322 350l-322 -350z" />
<glyph unicode="&#xd8;" horiz-adv-x="1503" d="M427 43q-85 43 -149.5 112t-108 159.5t-65.5 199.5t-22 234q0 181 53 327.5t146 249.5t220 158.5t274 55.5q59 0 112 -8t102 -22l79 206l103 -36l-84 -208q84 -43 148 -110.5t107 -156t64.5 -197t21.5 -232.5q0 -181 -52.5 -327.5t-144.5 -250t-217.5 -160.5t-272.5 -60 q-114 -1 -212 26l-90 -216l-106 34zM932 1372q-80 46 -178 46q-96 0 -173.5 -40t-132 -122.5t-84.5 -208.5t-30 -298q0 -183 43 -321.5t124 -222.5zM584 141q77 -43 172 -43q96 0 173 41t132 125t84.5 211t29.5 299q0 178 -41.5 313.5t-119.5 219.5z" />
<glyph unicode="&#xd9;" horiz-adv-x="1515" d="M912 1633q-22 6 -56.5 20.5t-74.5 34t-82 43.5t-80 49.5t-68.5 51.5t-46.5 50l152 132h1l333 -313l-77 -68h-1v0zM196 1384l-146 28v110h545v-110l-164 -27v-761q0 -150 28.5 -250t78.5 -160t118.5 -84.5t148.5 -24.5q177 0 269.5 129t92.5 378v772l-159 28v110h472v-110 l-147 -27v-765q0 -166 -42.5 -286t-116 -198t-174 -115t-215.5 -37q-155 0 -266 40t-183 122t-106 206.5t-34 293.5v738z" />
<glyph unicode="&#xda;" horiz-adv-x="1515" d="M657 1701l334 313h1l152 -132q-17 -24 -47 -50t-68 -51.5t-80.5 -49.5t-82 -43.5t-74 -34t-56.5 -20.5h-1zM196 1384l-146 28v110h545v-110l-164 -27v-761q0 -150 28.5 -250t78.5 -160t118.5 -84.5t148.5 -24.5q177 0 269.5 129t92.5 378v772l-159 28v110h472v-110 l-147 -27v-765q0 -166 -42.5 -286t-116 -198t-174 -115t-215.5 -37q-155 0 -266 40t-183 122t-106 206.5t-34 293.5v738z" />
<glyph unicode="&#xdb;" horiz-adv-x="1515" d="M196 1384l-146 28v110h545v-110l-164 -27v-761q0 -150 28.5 -250t78.5 -160t118.5 -84.5t148.5 -24.5q177 0 269.5 129t92.5 378v772l-159 28v110h472v-110l-147 -27v-765q0 -166 -42.5 -286t-116 -198t-174 -115t-215.5 -37q-155 0 -266 40t-183 122t-106 206.5 t-34 293.5v738zM440 1712l265 302h192l267 -300l-93 -59l-270 198l-275 -198z" />
<glyph unicode="&#xdc;" horiz-adv-x="1515" d="M1036 1690q-29 0 -53 10.5t-41 29.5t-26 44.5t-9 54.5q0 32 9.5 61t28 51.5t46.5 36t65 13.5h1q33 0 58 -12t42.5 -31.5t26.5 -45t9 -51.5q0 -34 -10 -63.5t-29.5 -51t-48.5 -34t-68 -12.5h-1zM540 1690q-29 0 -53 10.5t-40.5 29.5t-25.5 44.5t-9 54.5q0 32 9.5 61 t28 51.5t46.5 36t65 13.5h1q32 0 57 -12t42.5 -31.5t26.5 -45t9 -51.5q0 -34 -9.5 -63.5t-29 -51t-49 -34t-68.5 -12.5h-1zM196 1384l-146 28v110h545v-110l-164 -27v-761q0 -150 28.5 -250t78.5 -160t118.5 -84.5t148.5 -24.5q177 0 269.5 129t92.5 378v772l-159 28v110 h472v-110l-147 -27v-765q0 -166 -42.5 -286t-116 -198t-174 -115t-215.5 -37q-155 0 -266 40t-183 122t-106 206.5t-34 293.5v738z" />
<glyph unicode="&#xde;" horiz-adv-x="1325" d="M100 107l168 27v1254l-164 28v106h561v-106l-172 -28v-229q74 6 147 12.5t161 6.5q110 0 196.5 -25t146 -74.5t90.5 -123.5t31 -173q0 -116 -36.5 -199.5t-105.5 -137.5t-167.5 -79.5t-222.5 -25.5q-45 0 -79.5 0.5t-62.5 1t-52 2t-46 3.5v-213l217 -27v-107h-610v107z M493 465q66 -8 119.5 -8.5t106.5 -0.5q63 0 117 14.5t94 50t63 96t23 152.5q0 66 -17 120t-56 91.5t-102.5 56.5t-156.5 16q-58 -2 -105.5 -7t-85.5 -10v-571z" />
<glyph unicode="&#xdf;" horiz-adv-x="1287" d="M51 110l134 19v827q0 158 48 279.5t129 203.5t186.5 124t220.5 42q71 0 134 -16.5t109.5 -50.5t73.5 -86t27 -123q0 -57 -16 -100.5t-40.5 -78t-52.5 -63t-52.5 -57.5t-40.5 -61t-16 -72q0 -45 26.5 -83.5t65.5 -75.5t85.5 -77t85.5 -87t65.5 -105.5t26.5 -133.5 q0 -89 -37.5 -156t-101 -112t-147.5 -67.5t-176 -22.5q-21 0 -45 2t-47.5 5.5t-44.5 7.5t-35 8v160q37 -16 90 -26.5t108 -10.5q57 0 95 14t61 37t32.5 52t9.5 58q0 57 -24 102.5t-60.5 85.5t-79 78t-79 81t-60.5 93.5t-24 116.5q0 38 15 71t37 63.5t48 61.5t48 66t37 76.5 t15 92.5q0 97 -46 152t-136 55q-79 0 -134.5 -28.5t-90 -87.5t-50.5 -150t-16 -217v-996h-361v110z" />
<glyph unicode="&#xe0;" horiz-adv-x="1144" d="M84 300q0 72 27 128.5t74 99.5t110.5 73t137 49t152.5 28t158 11v53q0 70 -10 118.5t-34.5 79t-65.5 44t-104 13.5q-54 0 -108 -10t-103.5 -24.5t-91 -31t-69.5 -30.5h-1l-45 96q19 18 67 46t113.5 54t141 45t150.5 19q105 0 177.5 -21.5t117.5 -69t64.5 -123 t19.5 -184.5v-652h124v-97l-46 -11.5t-55 -12t-59 -9.5t-57 -4q-28 0 -48.5 2.5t-33.5 13t-19.5 31.5t-6.5 57v37q-13 -12 -42.5 -35.5t-72.5 -47t-98 -41t-118 -17.5q-69 0 -131.5 18.5t-110 57.5t-76 100t-28.5 147zM326 330q0 -55 14.5 -93t40 -62t60 -34.5t75.5 -10.5 q21 0 50 5.5t60 15.5t61.5 25t55.5 33v368q-120 0 -200.5 -21t-128.5 -55.5t-68 -78.5t-20 -92zM626 1337q-22 7 -57 29t-76.5 51.5t-84.5 64.5t-81 70t-67 66t-42 53l163 142h1l324 -402l-79 -74h-1v0z" />
<glyph unicode="&#xe1;" horiz-adv-x="1144" d="M84 300q0 72 27 128.5t74 99.5t110.5 73t137 49t152.5 28t158 11v53q0 70 -10 118.5t-34.5 79t-65.5 44t-104 13.5q-54 0 -108 -10t-103.5 -24.5t-91 -31t-69.5 -30.5h-1l-45 96q19 18 67 46t113.5 54t141 45t150.5 19q105 0 177.5 -21.5t117.5 -69t64.5 -123 t19.5 -184.5v-652h124v-97l-46 -11.5t-55 -12t-59 -9.5t-57 -4q-28 0 -48.5 2.5t-33.5 13t-19.5 31.5t-6.5 57v37q-13 -12 -42.5 -35.5t-72.5 -47t-98 -41t-118 -17.5q-69 0 -131.5 18.5t-110 57.5t-76 100t-28.5 147zM326 330q0 -55 14.5 -93t40 -62t60 -34.5t75.5 -10.5 q21 0 50 5.5t60 15.5t61.5 25t55.5 33v368q-120 0 -200.5 -21t-128.5 -55.5t-68 -78.5t-20 -92zM431 1411l325 402h1l162 -142q-13 -22 -42 -53t-67 -66t-81 -70t-84.5 -64.5t-76.5 -51.5t-57 -29h-2z" />
<glyph unicode="&#xe2;" horiz-adv-x="1144" d="M84 300q0 72 27 128.5t74 99.5t110.5 73t137 49t152.5 28t158 11v53q0 70 -10 118.5t-34.5 79t-65.5 44t-104 13.5q-54 0 -108 -10t-103.5 -24.5t-91 -31t-69.5 -30.5h-1l-45 96q19 18 67 46t113.5 54t141 45t150.5 19q105 0 177.5 -21.5t117.5 -69t64.5 -123 t19.5 -184.5v-652h124v-97l-46 -11.5t-55 -12t-59 -9.5t-57 -4q-28 0 -48.5 2.5t-33.5 13t-19.5 31.5t-6.5 57v37q-13 -12 -42.5 -35.5t-72.5 -47t-98 -41t-118 -17.5q-69 0 -131.5 18.5t-110 57.5t-76 100t-28.5 147zM326 330q0 -55 14.5 -93t40 -62t60 -34.5t75.5 -10.5 q21 0 50 5.5t60 15.5t61.5 25t55.5 33v368q-120 0 -200.5 -21t-128.5 -55.5t-68 -78.5t-20 -92zM189 1383l281 396h190l273 -395l-92 -57l-276 275l-294 -276z" />
<glyph unicode="&#xe3;" horiz-adv-x="1144" d="M84 300q0 72 27 128.5t74 99.5t110.5 73t137 49t152.5 28t158 11v53q0 70 -10 118.5t-34.5 79t-65.5 44t-104 13.5q-54 0 -108 -10t-103.5 -24.5t-91 -31t-69.5 -30.5h-1l-45 96q19 18 67 46t113.5 54t141 45t150.5 19q105 0 177.5 -21.5t117.5 -69t64.5 -123 t19.5 -184.5v-652h124v-97l-46 -11.5t-55 -12t-59 -9.5t-57 -4q-28 0 -48.5 2.5t-33.5 13t-19.5 31.5t-6.5 57v37q-13 -12 -42.5 -35.5t-72.5 -47t-98 -41t-118 -17.5q-69 0 -131.5 18.5t-110 57.5t-76 100t-28.5 147zM326 330q0 -55 14.5 -93t40 -62t60 -34.5t75.5 -10.5 q21 0 50 5.5t60 15.5t61.5 25t55.5 33v368q-120 0 -200.5 -21t-128.5 -55.5t-68 -78.5t-20 -92zM134 1442q9 34 34.5 72t63.5 69.5t87 52.5t106 21q41 0 73.5 -12t59.5 -30.5t49.5 -39.5t45 -39.5t45.5 -30.5t50 -12q34 0 59 14t42 33t27.5 39t16.5 32l103 -63 q-15 -41 -38.5 -80t-57 -69t-76.5 -48t-95 -18q-41 0 -73.5 12t-60.5 30.5t-52 40t-48.5 40t-49.5 30.5t-55 12q-34 0 -59.5 -14t-44 -33.5t-31 -39.5t-19.5 -31z" />
<glyph unicode="&#xe4;" horiz-adv-x="1144" d="M84 300q0 72 27 128.5t74 99.5t110.5 73t137 49t152.5 28t158 11v53q0 70 -10 118.5t-34.5 79t-65.5 44t-104 13.5q-54 0 -108 -10t-103.5 -24.5t-91 -31t-69.5 -30.5h-1l-45 96q19 18 67 46t113.5 54t141 45t150.5 19q105 0 177.5 -21.5t117.5 -69t64.5 -123 t19.5 -184.5v-652h124v-97l-46 -11.5t-55 -12t-59 -9.5t-57 -4q-28 0 -48.5 2.5t-33.5 13t-19.5 31.5t-6.5 57v37q-13 -12 -42.5 -35.5t-72.5 -47t-98 -41t-118 -17.5q-69 0 -131.5 18.5t-110 57.5t-76 100t-28.5 147zM326 330q0 -55 14.5 -93t40 -62t60 -34.5t75.5 -10.5 q21 0 50 5.5t60 15.5t61.5 25t55.5 33v368q-120 0 -200.5 -21t-128.5 -55.5t-68 -78.5t-20 -92zM785 1353q-29 0 -53 10.5t-40.5 29t-25.5 44t-9 54.5q0 32 9.5 61t28 51.5t46.5 36t65 13.5h1q32 0 57 -12t42.5 -31.5t26.5 -44.5t9 -52q0 -34 -9.5 -63t-29 -50.5t-49 -34 t-68.5 -12.5h-1zM323 1353q-30 0 -53.5 10.5t-40.5 29t-26 44t-9 54.5q0 32 9.5 61t28 51.5t46.5 36t65 13.5h1q32 0 57 -12t42.5 -31.5t26.5 -44.5t9 -52q0 -34 -9.5 -63t-29 -50.5t-48.5 -34t-68 -12.5h-1z" />
<glyph unicode="&#xe5;" horiz-adv-x="1144" d="M84 300q0 72 27 128.5t74 99.5t110.5 73t137 49t152.5 28t158 11v53q0 70 -10 118.5t-34.5 79t-65.5 44t-104 13.5q-54 0 -108 -10t-103.5 -24.5t-91 -31t-69.5 -30.5h-1l-45 96q19 18 67 46t113.5 54t141 45t150.5 19q105 0 177.5 -21.5t117.5 -69t64.5 -123 t19.5 -184.5v-652h124v-97l-46 -11.5t-55 -12t-59 -9.5t-57 -4q-28 0 -48.5 2.5t-33.5 13t-19.5 31.5t-6.5 57v37q-13 -12 -42.5 -35.5t-72.5 -47t-98 -41t-118 -17.5q-69 0 -131.5 18.5t-110 57.5t-76 100t-28.5 147zM326 330q0 -55 14.5 -93t40 -62t60 -34.5t75.5 -10.5 q21 0 50 5.5t60 15.5t61.5 25t55.5 33v368q-120 0 -200.5 -21t-128.5 -55.5t-68 -78.5t-20 -92zM561 1312q-84 0 -146 22t-102.5 61t-59.5 91t-18 112q1 66 31 116.5t77.5 85t108 52t123.5 17.5h1q78 0 137 -21t99 -58t60 -87.5t20 -109.5q-1 -68 -28 -120.5t-72 -88 t-104.5 -54t-125.5 -18.5h-1zM567 1418q91 0 127.5 42.5t36.5 125.5q0 34 -9 66t-28.5 56t-50.5 38.5t-75 14.5h-1q-45 0 -77.5 -12t-52.5 -33.5t-29.5 -51.5t-9.5 -66q0 -35 10 -67.5t30.5 -57.5t52 -40t75.5 -15h1z" />
<glyph unicode="&#xe6;" horiz-adv-x="1762" d="M84 298q0 72 26.5 128.5t73.5 99t110 72.5t136.5 49t153 28.5t159.5 11.5v64q0 68 -10 114.5t-34.5 75.5t-66 42t-105.5 13q-53 0 -103 -9t-96.5 -23t-88.5 -31.5t-78 -33.5l-44 97q21 22 70 51t113.5 54t138 42.5t144.5 17.5q129 0 208.5 -32t120.5 -107 q71 70 163.5 108t202.5 38q189 0 293 -102.5t113 -303.5q0 -65 -1.5 -113.5t-9.5 -85.5h-692v-6q4 -114 33 -195t75.5 -132.5t106.5 -75t125 -23.5q43 0 87 8t84 21t73.5 30t55.5 34l42 -98q-29 -29 -73.5 -56t-99 -47.5t-115.5 -33t-122 -12.5q-144 0 -247 55t-166 154 q-24 -32 -62 -68.5t-89 -67.5t-116 -52t-143 -21q-67 0 -129.5 18.5t-110.5 57.5t-77 99.5t-29 145.5zM1445 683q1 20 2 42t1 41q0 55 -12 106t-38 90t-68 62.5t-102 23.5q-50 0 -93.5 -17.5t-76 -59.5t-53 -112t-24.5 -176h464zM326 330q0 -55 14.5 -93t40 -62t60 -34.5 t75.5 -10.5q44 0 86.5 14t79.5 35.5t66 47t46 49.5q-26 64 -38.5 138.5t-12.5 158.5v4q-115 0 -194.5 -21t-129 -55.5t-71.5 -78.5t-22 -92z" />
<glyph unicode="&#xe8;" horiz-adv-x="1106" d="M85 573q0 133 40 242.5t111.5 188t169.5 121.5t214 43q189 0 293 -102.5t113 -303.5q1 -65 -1 -113.5t-10 -85.5h-692v-6q4 -114 33 -195t75.5 -132.5t106.5 -75t125 -23.5q43 0 87 8t84.5 21t74 30t55.5 34l42 -98q-29 -29 -73.5 -56t-99 -47.5t-116 -33t-122.5 -12.5 q-127 0 -222.5 44t-159.5 123t-96 188.5t-32 240.5zM787 683q2 20 2.5 42t0.5 41q0 55 -12 106t-38 90t-67.5 62.5t-102.5 23.5q-50 0 -93 -17.5t-75.5 -59.5t-53 -112t-25.5 -176h464zM639 1337q-22 7 -57 29t-76.5 51.5t-84.5 64.5t-81 70t-67 66t-42 53l163 142h1 l324 -402l-79 -74h-1v0z" />
<glyph unicode="&#xe9;" horiz-adv-x="1106" d="M444 1411l325 402h1l162 -142q-13 -22 -42 -53t-67 -66t-81 -70t-84.5 -64.5t-76.5 -51.5t-57 -29h-2zM85 573q0 133 40 242.5t111.5 188t169.5 121.5t214 43q189 0 293 -102.5t113 -303.5q1 -65 -1 -113.5t-10 -85.5h-692v-6q4 -114 33 -195t75.5 -132.5t106.5 -75 t125 -23.5q43 0 87 8t84.5 21t74 30t55.5 34l42 -98q-29 -29 -73.5 -56t-99 -47.5t-116 -33t-122.5 -12.5q-127 0 -222.5 44t-159.5 123t-96 188.5t-32 240.5zM787 683q2 20 2.5 42t0.5 41q0 55 -12 106t-38 90t-67.5 62.5t-102.5 23.5q-50 0 -93 -17.5t-75.5 -59.5 t-53 -112t-25.5 -176h464z" />
<glyph unicode="&#xea;" horiz-adv-x="1106" d="M200 1383l281 396h190l273 -395l-92 -57l-276 275l-294 -276zM85 573q0 133 40 242.5t111.5 188t169.5 121.5t214 43q189 0 293 -102.5t113 -303.5q1 -65 -1 -113.5t-10 -85.5h-692v-6q4 -114 33 -195t75.5 -132.5t106.5 -75t125 -23.5q43 0 87 8t84.5 21t74 30t55.5 34 l42 -98q-29 -29 -73.5 -56t-99 -47.5t-116 -33t-122.5 -12.5q-127 0 -222.5 44t-159.5 123t-96 188.5t-32 240.5zM787 683q2 20 2.5 42t0.5 41q0 55 -12 106t-38 90t-67.5 62.5t-102.5 23.5q-50 0 -93 -17.5t-75.5 -59.5t-53 -112t-25.5 -176h464z" />
<glyph unicode="&#xeb;" horiz-adv-x="1106" d="M798 1353q-29 0 -53 10.5t-40.5 29t-25.5 44t-9 54.5q0 32 9.5 61t28 51.5t46.5 36t65 13.5h1q32 0 57 -12t42.5 -31.5t26.5 -44.5t9 -52q0 -34 -9.5 -63t-29 -50.5t-49 -34t-68.5 -12.5h-1zM336 1353q-30 0 -53.5 10.5t-40.5 29t-26 44t-9 54.5q0 32 9.5 61t28 51.5 t46.5 36t65 13.5h1q32 0 57 -12t42.5 -31.5t26.5 -44.5t9 -52q0 -34 -9.5 -63t-29 -50.5t-48.5 -34t-68 -12.5h-1zM85 573q0 133 40 242.5t111.5 188t169.5 121.5t214 43q189 0 293 -102.5t113 -303.5q1 -65 -1 -113.5t-10 -85.5h-692v-6q4 -114 33 -195t75.5 -132.5 t106.5 -75t125 -23.5q43 0 87 8t84.5 21t74 30t55.5 34l42 -98q-29 -29 -73.5 -56t-99 -47.5t-116 -33t-122.5 -12.5q-127 0 -222.5 44t-159.5 123t-96 188.5t-32 240.5zM787 683q2 20 2.5 42t0.5 41q0 55 -12 106t-38 90t-67.5 62.5t-102.5 23.5q-50 0 -93 -17.5 t-75.5 -59.5t-53 -112t-25.5 -176h464z" />
<glyph unicode="&#xec;" horiz-adv-x="690" d="M75 110l165 17v832l-140 44v120l306 41h5l53 -40v-998l162 -16v-110h-551v110zM401 1337q-22 7 -57 29t-76.5 51.5t-84.5 64.5t-81 70t-67 66t-42 53l163 142h1l324 -402l-79 -74h-1v0z" />
<glyph unicode="&#xed;" horiz-adv-x="690" d="M206 1411l325 402h1l162 -142q-13 -22 -42 -53t-67 -66t-81 -70t-84.5 -64.5t-76.5 -51.5t-57 -29h-2zM75 110l165 17v832l-140 44v120l306 41h5l53 -40v-998l162 -16v-110h-551v110z" />
<glyph unicode="&#xee;" horiz-adv-x="690" d="M-38 1383l281 396h190l273 -395l-92 -57l-276 275l-294 -276zM75 110l165 17v832l-140 44v120l306 41h5l53 -40v-998l162 -16v-110h-551v110z" />
<glyph unicode="&#xef;" horiz-adv-x="693" d="M562 1353q-29 0 -53 10.5t-40.5 29t-25.5 44t-9 54.5q0 32 9.5 61t28 51.5t46.5 36t65 13.5h1q32 0 57 -12t42.5 -31.5t26.5 -44.5t9 -52q0 -34 -9.5 -63t-29 -50.5t-49 -34t-68.5 -12.5h-1zM100 1353q-30 0 -53.5 10.5t-40.5 29t-26 44t-9 54.5q0 32 9.5 61t28 51.5 t46.5 36t65 13.5h1q32 0 57 -12t42.5 -31.5t26.5 -44.5t9 -52q0 -34 -9.5 -63t-29 -50.5t-48.5 -34t-68 -12.5h-1zM76 110l165 17v832l-140 44v120l306 41h5l53 -40v-998l162 -16v-110h-551v110z" />
<glyph unicode="&#xf0;" horiz-adv-x="1195" d="M88 533q0 159 44.5 278t118.5 198.5t170 119t200 39.5q55 0 99.5 -10.5t77.5 -24.5q-22 53 -54 107.5t-72 105.5t-88 96t-102 81l-135 -164l-105 75l139 160q-26 18 -55 34.5t-57.5 30t-54 23t-43.5 14.5l44 107q40 -12 73.5 -23t63.5 -24t59 -27t61 -32q21 25 43.5 53 t41.5 51q22 27 43 53l98 -83q-19 -23 -39 -47q-17 -20 -37.5 -44.5t-40.5 -46.5q117 -81 215 -186.5t169 -230t111 -264t40 -287.5q0 -78 -12 -159t-37.5 -157.5t-66 -144t-97.5 -118t-131.5 -80t-168.5 -29.5q-134 0 -231 41.5t-160 116t-93.5 176.5t-30.5 222zM610 102 q139 0 203 139t64 405q0 114 -14 193.5t-25 117.5q-11 15 -28.5 32t-43.5 31.5t-62 23.5t-83 9q-69 0 -122.5 -34.5t-91 -99t-57 -157t-19.5 -209.5q0 -87 14.5 -168.5t47 -144t86 -100.5t131.5 -38z" />
<glyph unicode="&#xf1;" horiz-adv-x="1385" d="M113 110l134 17v832l-140 44v120l286 41h5l49 -40v-78l-2 -43q33 30 81.5 58.5t103.5 51t113 36.5t111 14q99 0 163 -27t100.5 -85t50.5 -147.5t14 -215.5v-561l148 -17v-110h-504v110l132 17v562q0 80 -7 140t-28.5 100t-61.5 60t-105 20q-38 0 -76.5 -7.5t-75 -20 t-71 -30.5t-62.5 -39v-785l141 -17v-110h-499v110zM288 1442q9 34 34.5 72t63.5 69.5t87 52.5t106 21q41 0 73.5 -12t59.5 -30.5t49.5 -39.5t45 -39.5t45.5 -30.5t50 -12q34 0 59 14t42 33t27.5 39t16.5 32l103 -63q-15 -41 -38.5 -80t-57 -69t-76.5 -48t-95 -18 q-41 0 -73.5 12t-60.5 30.5t-52 40t-48.5 40t-49.5 30.5t-55 12q-34 0 -59.5 -14t-44 -33.5t-31 -39.5t-19.5 -31z" />
<glyph unicode="&#xf2;" horiz-adv-x="1203" d="M75 574q0 142 46.5 252.5t122.5 186.5t172.5 115.5t197.5 39.5q136 0 233.5 -46.5t159.5 -127.5t91 -190t29 -233q0 -95 -21 -176.5t-58.5 -147.5t-89 -116.5t-111.5 -84.5t-126 -51.5t-133 -17.5q-136 0 -233 46.5t-159.5 127.5t-91.5 190t-29 233zM600 100 q142 0 210 114t68 338q0 103 -15 192.5t-48 156.5t-85.5 105.5t-127.5 38.5q-143 0 -211 -113t-68 -339q0 -103 15.5 -193t48.5 -156.5t85.5 -105t127.5 -38.5zM672 1337q-22 7 -57 29t-76.5 51.5t-84.5 64.5t-81 70t-67 66t-42 53l163 142h1l324 -402l-79 -74h-1v0z" />
<glyph unicode="&#xf3;" horiz-adv-x="1203" d="M477 1411l325 402h1l162 -142q-13 -22 -42 -53t-67 -66t-81 -70t-84.5 -64.5t-76.5 -51.5t-57 -29h-2zM75 574q0 142 46.5 252.5t122.5 186.5t172.5 115.5t197.5 39.5q136 0 233.5 -46.5t159.5 -127.5t91 -190t29 -233q0 -95 -21 -176.5t-58.5 -147.5t-89 -116.5 t-111.5 -84.5t-126 -51.5t-133 -17.5q-136 0 -233 46.5t-159.5 127.5t-91.5 190t-29 233zM600 100q142 0 210 114t68 338q0 103 -15 192.5t-48 156.5t-85.5 105.5t-127.5 38.5q-143 0 -211 -113t-68 -339q0 -103 15.5 -193t48.5 -156.5t85.5 -105t127.5 -38.5z" />
<glyph unicode="&#xf4;" horiz-adv-x="1203" d="M234 1383l281 396h190l273 -395l-92 -57l-276 275l-294 -276zM75 574q0 142 46.5 252.5t122.5 186.5t172.5 115.5t197.5 39.5q136 0 233.5 -46.5t159.5 -127.5t91 -190t29 -233q0 -95 -21 -176.5t-58.5 -147.5t-89 -116.5t-111.5 -84.5t-126 -51.5t-133 -17.5 q-136 0 -233 46.5t-159.5 127.5t-91.5 190t-29 233zM600 100q142 0 210 114t68 338q0 103 -15 192.5t-48 156.5t-85.5 105.5t-127.5 38.5q-143 0 -211 -113t-68 -339q0 -103 15.5 -193t48.5 -156.5t85.5 -105t127.5 -38.5z" />
<glyph unicode="&#xf5;" horiz-adv-x="1203" d="M75 574q0 142 46.5 252.5t122.5 186.5t172.5 115.5t197.5 39.5q136 0 233.5 -46.5t159.5 -127.5t91 -190t29 -233q0 -95 -21 -176.5t-58.5 -147.5t-89 -116.5t-111.5 -84.5t-126 -51.5t-133 -17.5q-136 0 -233 46.5t-159.5 127.5t-91.5 190t-29 233zM600 100 q142 0 210 114t68 338q0 103 -15 192.5t-48 156.5t-85.5 105.5t-127.5 38.5q-143 0 -211 -113t-68 -339q0 -103 15.5 -193t48.5 -156.5t85.5 -105t127.5 -38.5zM180 1442q9 34 34.5 72t63.5 69.5t87 52.5t106 21q41 0 73.5 -12t59.5 -30.5t49.5 -39.5t45 -39.5t45.5 -30.5 t50 -12q34 0 59 14t42 33t27.5 39t16.5 32l103 -63q-15 -41 -38.5 -80t-57 -69t-76.5 -48t-95 -18q-41 0 -73.5 12t-60.5 30.5t-52 40t-48.5 40t-49.5 30.5t-55 12q-34 0 -59.5 -14t-44 -33.5t-31 -39.5t-19.5 -31z" />
<glyph unicode="&#xf6;" horiz-adv-x="1203" d="M831 1353q-29 0 -53 10.5t-40.5 29t-25.5 44t-9 54.5q0 32 9.5 61t28 51.5t46.5 36t65 13.5h1q32 0 57 -12t42.5 -31.5t26.5 -44.5t9 -52q0 -34 -9.5 -63t-29 -50.5t-49 -34t-68.5 -12.5h-1zM369 1353q-30 0 -53.5 10.5t-40.5 29t-26 44t-9 54.5q0 32 9.5 61t28 51.5 t46.5 36t65 13.5h1q32 0 57 -12t42.5 -31.5t26.5 -44.5t9 -52q0 -34 -9.5 -63t-29 -50.5t-48.5 -34t-68 -12.5h-1zM75 574q0 142 46.5 252.5t122.5 186.5t172.5 115.5t197.5 39.5q136 0 233.5 -46.5t159.5 -127.5t91 -190t29 -233q0 -95 -21 -176.5t-58.5 -147.5t-89 -116.5 t-111.5 -84.5t-126 -51.5t-133 -17.5q-136 0 -233 46.5t-159.5 127.5t-91.5 190t-29 233zM600 100q142 0 210 114t68 338q0 103 -15 192.5t-48 156.5t-85.5 105.5t-127.5 38.5q-143 0 -211 -113t-68 -339q0 -103 15.5 -193t48.5 -156.5t85.5 -105t127.5 -38.5z" />
<glyph unicode="&#xf7;" horiz-adv-x="1363" d="M689 867q-28 0 -53.5 9.5t-45 26.5t-31.5 42t-12 57q0 35 14.5 65t38 51.5t53.5 34t61 12.5q38 0 65 -11t44.5 -30t26 -44t8.5 -53q0 -36 -14 -65.5t-37 -50.5t-54 -32.5t-64 -11.5zM217 697h929v-164h-929v164zM529 202q0 34 14.5 64t38 51.5t53.5 34t61 12.5 q38 0 65 -11t44.5 -30t26 -43.5t8.5 -52.5q0 -37 -14 -67t-37 -51t-54 -32.5t-64 -11.5q-28 0 -53.5 9.5t-45 27t-31.5 43t-12 57.5z" />
<glyph unicode="&#xf8;" horiz-adv-x="1203" d="M349 26q-72 34 -124 89.5t-85 126.5t-49 155.5t-16 176.5q0 142 46.5 252.5t122.5 186.5t172.5 115.5t197.5 39.5q42 0 80 -5t73 -14l69 192l94 -26l-69 -201q70 -35 120 -90.5t82.5 -125.5t48 -153t15.5 -174q0 -95 -21 -176.5t-58.5 -147.5t-89 -116.5t-111.5 -84.5 t-126 -51.5t-133 -17.5q-38 0 -73.5 4t-67.5 12l-78 -204l-98 28zM718 1013q-50 32 -116 32q-143 0 -211 -113t-68 -339q0 -126 23 -231t74 -172zM492 127q46 -27 108 -27q142 0 210 114t68 338q0 121 -20.5 222t-67.5 169z" />
<glyph unicode="&#xf9;" horiz-adv-x="1314" d="M204 993l-112 43v96l289 32h1l45 -28v-704q0 -83 8.5 -140.5t31.5 -93.5t62.5 -52t101.5 -16q43 0 82 9.5t72 23t59 29.5t44 29v772l-141 43v97l306 31h2l56 -28v-1022h121v-100q-35 -11 -83 -24.5t-108 -13.5q-63 0 -96 23t-33 86v41q-28 -24 -66.5 -50.5t-84.5 -48.5 t-97.5 -36t-105.5 -14q-93 0 -160 24t-110 77t-63.5 137t-20.5 205v573zM721 1337q-22 7 -57 29t-76.5 51.5t-84.5 64.5t-81 70t-67 66t-42 53l163 142h1l324 -402l-79 -74h-1v0z" />
<glyph unicode="&#xfa;" horiz-adv-x="1314" d="M526 1411l325 402h1l162 -142q-13 -22 -42 -53t-67 -66t-81 -70t-84.5 -64.5t-76.5 -51.5t-57 -29h-2zM204 993l-112 43v96l289 32h1l45 -28v-704q0 -83 8.5 -140.5t31.5 -93.5t62.5 -52t101.5 -16q43 0 82 9.5t72 23t59 29.5t44 29v772l-141 43v97l306 31h2l56 -28 v-1022h121v-100q-35 -11 -83 -24.5t-108 -13.5q-63 0 -96 23t-33 86v41q-28 -24 -66.5 -50.5t-84.5 -48.5t-97.5 -36t-105.5 -14q-93 0 -160 24t-110 77t-63.5 137t-20.5 205v573z" />
<glyph unicode="&#xfb;" horiz-adv-x="1314" d="M283 1383l281 396h190l273 -395l-92 -57l-276 275l-294 -276zM204 993l-112 43v96l289 32h1l45 -28v-704q0 -83 8.5 -140.5t31.5 -93.5t62.5 -52t101.5 -16q43 0 82 9.5t72 23t59 29.5t44 29v772l-141 43v97l306 31h2l56 -28v-1022h121v-100q-35 -11 -83 -24.5 t-108 -13.5q-63 0 -96 23t-33 86v41q-28 -24 -66.5 -50.5t-84.5 -48.5t-97.5 -36t-105.5 -14q-93 0 -160 24t-110 77t-63.5 137t-20.5 205v573z" />
<glyph unicode="&#xfc;" horiz-adv-x="1314" d="M880 1353q-29 0 -53 10.5t-40.5 29t-25.5 44t-9 54.5q0 32 9.5 61t28 51.5t46.5 36t65 13.5h1q32 0 57 -12t42.5 -31.5t26.5 -44.5t9 -52q0 -34 -9.5 -63t-29 -50.5t-49 -34t-68.5 -12.5h-1zM418 1353q-30 0 -53.5 10.5t-40.5 29t-26 44t-9 54.5q0 32 9.5 61t28 51.5 t46.5 36t65 13.5h1q32 0 57 -12t42.5 -31.5t26.5 -44.5t9 -52q0 -34 -9.5 -63t-29 -50.5t-48.5 -34t-68 -12.5h-1zM204 993l-112 43v96l289 32h1l45 -28v-704q0 -83 8.5 -140.5t31.5 -93.5t62.5 -52t101.5 -16q43 0 82 9.5t72 23t59 29.5t44 29v772l-141 43v97l306 31h2 l56 -28v-1022h121v-100q-35 -11 -83 -24.5t-108 -13.5q-63 0 -96 23t-33 86v41q-28 -24 -66.5 -50.5t-84.5 -48.5t-97.5 -36t-105.5 -14q-93 0 -160 24t-110 77t-63.5 137t-20.5 205v573z" />
<glyph unicode="&#xfe;" horiz-adv-x="1233" d="M161 1522l-164 18v95l333 45h4l50 -34v-613q25 25 58 49.5t72.5 43.5t87 30.5t102.5 11.5q86 0 166.5 -31.5t143 -99t100 -173.5t37.5 -255q0 -131 -40.5 -246.5t-116.5 -201t-185 -135t-245 -49.5q-51 0 -97.5 4t-88.5 11l7 -162v-198l205 -24v-104h-580v104l152 24v423 q-1 0 -1 1v1466zM384 160q7 -17 25 -29.5t44 -21t58 -13t68 -4.5q71 0 130.5 30t103 90t68.5 150t27 211q1 112 -20.5 195t-61.5 138t-95 82t-120 27q-40 0 -75 -10t-63.5 -25t-51 -33t-37.5 -34v-753z" />
<glyph unicode="&#x100;" horiz-adv-x="1412" d="M-32 110l129 28l507 1397h227l494 -1398l128 -27v-110h-542v110l163 28l-94 291h-596l-94 -291l169 -28v-110h-490zM938 557l-213 661l-42 162l-43 -162l-214 -661h512zM451 1912h557v-161h-557v161z" />
<glyph unicode="&#x101;" horiz-adv-x="1144" d="M84 300q0 72 27 128.5t74 99.5t110.5 73t137 49t152.5 28t158 11v53q0 70 -10 118.5t-34.5 79t-65.5 44t-104 13.5q-54 0 -108 -10t-103.5 -24.5t-91 -31t-69.5 -30.5h-1l-45 96q19 18 67 46t113.5 54t141 45t150.5 19q105 0 177.5 -21.5t117.5 -69t64.5 -123 t19.5 -184.5v-652h124v-97l-46 -11.5t-55 -12t-59 -9.5t-57 -4q-28 0 -48.5 2.5t-33.5 13t-19.5 31.5t-6.5 57v37q-13 -12 -42.5 -35.5t-72.5 -47t-98 -41t-118 -17.5q-69 0 -131.5 18.5t-110 57.5t-76 100t-28.5 147zM326 330q0 -55 14.5 -93t40 -62t60 -34.5t75.5 -10.5 q21 0 50 5.5t60 15.5t61.5 25t55.5 33v368q-120 0 -200.5 -21t-128.5 -55.5t-68 -78.5t-20 -92zM292 1590h544v-161h-544v161z" />
<glyph unicode="&#x102;" horiz-adv-x="1412" d="M-32 110l129 28l507 1397h227l494 -1398l128 -27v-110h-542v110l163 28l-94 291h-596l-94 -291l169 -28v-110h-490zM938 557l-213 661l-42 162l-43 -162l-214 -661h512zM726 1643q-82 0 -145 24.5t-106 66.5t-65 99t-22 122v21t2 21h121q0 -4 0.5 -11t2.5 -16 q4 -20 15 -46.5t35 -50.5t63.5 -40.5t100.5 -16.5t100 17t62.5 41t33.5 50.5t13 46.5q2 10 2 16v10h118q2 -11 2 -20.5v-20.5q0 -65 -22.5 -122t-65 -99.5t-104.5 -67t-141 -24.5z" />
<glyph unicode="&#x103;" horiz-adv-x="1144" d="M84 300q0 72 27 128.5t74 99.5t110.5 73t137 49t152.5 28t158 11v53q0 70 -10 118.5t-34.5 79t-65.5 44t-104 13.5q-54 0 -108 -10t-103.5 -24.5t-91 -31t-69.5 -30.5h-1l-45 96q19 18 67 46t113.5 54t141 45t150.5 19q105 0 177.5 -21.5t117.5 -69t64.5 -123 t19.5 -184.5v-652h124v-97l-46 -11.5t-55 -12t-59 -9.5t-57 -4q-28 0 -48.5 2.5t-33.5 13t-19.5 31.5t-6.5 57v37q-13 -12 -42.5 -35.5t-72.5 -47t-98 -41t-118 -17.5q-69 0 -131.5 18.5t-110 57.5t-76 100t-28.5 147zM326 330q0 -55 14.5 -93t40 -62t60 -34.5t75.5 -10.5 q21 0 50 5.5t60 15.5t61.5 25t55.5 33v368q-120 0 -200.5 -21t-128.5 -55.5t-68 -78.5t-20 -92zM565 1352q-79 0 -141.5 28.5t-106 76t-66.5 109.5t-23 130q0 14 0.5 29t2.5 26h119q0 -5 0.5 -14.5t2.5 -21.5q4 -24 15.5 -55.5t36 -59t63.5 -46.5t99 -19q59 0 97.5 19 t62 46.5t34 59t14.5 55.5q3 24 3 36h115q1 -11 2 -25.5t1 -28.5q0 -68 -23.5 -130.5t-66.5 -110t-104.5 -76t-136.5 -28.5z" />
<glyph unicode="&#x106;" horiz-adv-x="1351" d="M85 765q0 113 26.5 214t74.5 187t116 155t150.5 117t178 74t198.5 26q66 0 131.5 -8t123 -18.5t104 -21t75.5 -16.5l-18 -353h-145l-58 231q-26 29 -89 47t-174 18q-93 0 -171 -41t-134.5 -120.5t-88 -196.5t-31.5 -268q0 -87 11 -172t34 -162t58.5 -143t85 -114 t113.5 -75.5t143 -27.5q55 0 95.5 5.5t70.5 15t51 24t37 32.5l93 197l129 -20l-49 -295q-41 -2 -79.5 -15t-87 -27t-112.5 -25.5t-156 -11.5q-170 0 -301.5 56.5t-221.5 160t-136.5 249t-46.5 322.5zM654 1701l334 313h1l152 -132q-17 -24 -47 -50t-68 -51.5t-80.5 -49.5 t-82 -43.5t-74 -34t-56.5 -20.5h-1z" />
<glyph unicode="&#x107;" horiz-adv-x="1038" d="M454 1411l325 402h1l162 -142q-13 -22 -42 -53t-67 -66t-81 -70t-84.5 -64.5t-76.5 -51.5t-57 -29h-2zM88 552q0 124 39 236t113.5 196.5t182 134t244.5 49.5q49 0 95.5 -6.5t86 -16t70.5 -20.5t51 -19l-10 -294h-135l-45 166q-26 34 -65.5 52.5t-96.5 18.5t-109 -26 t-92.5 -78.5t-65 -131t-25.5 -183.5q-1 -136 26.5 -231t73.5 -154.5t107 -86.5t127 -27q47 0 88.5 8t76.5 21t64 29t51 33l44 -96q-27 -28 -67 -54.5t-89.5 -47.5t-104.5 -34t-112 -13q-129 0 -226.5 44.5t-163 121.5t-99 182t-34.5 227z" />
<glyph unicode="&#x108;" horiz-adv-x="1351" d="M85 765q0 113 26.5 214t74.5 187t116 155t150.5 117t178 74t198.5 26q66 0 131.5 -8t123 -18.5t104 -21t75.5 -16.5l-18 -353h-145l-58 231q-26 29 -89 47t-174 18q-93 0 -171 -41t-134.5 -120.5t-88 -196.5t-31.5 -268q0 -87 11 -172t34 -162t58.5 -143t85 -114 t113.5 -75.5t143 -27.5q55 0 95.5 5.5t70.5 15t51 24t37 32.5l93 197l129 -20l-49 -295q-41 -2 -79.5 -15t-87 -27t-112.5 -25.5t-156 -11.5q-170 0 -301.5 56.5t-221.5 160t-136.5 249t-46.5 322.5zM437 1712l265 302h192l267 -300l-93 -59l-270 198l-275 -198z" />
<glyph unicode="&#x109;" horiz-adv-x="1038" d="M217 1383l281 396h190l273 -395l-92 -57l-276 275l-294 -276zM88 552q0 124 39 236t113.5 196.5t182 134t244.5 49.5q49 0 95.5 -6.5t86 -16t70.5 -20.5t51 -19l-10 -294h-135l-45 166q-26 34 -65.5 52.5t-96.5 18.5t-109 -26t-92.5 -78.5t-65 -131t-25.5 -183.5 q-1 -136 26.5 -231t73.5 -154.5t107 -86.5t127 -27q47 0 88.5 8t76.5 21t64 29t51 33l44 -96q-27 -28 -67 -54.5t-89.5 -47.5t-104.5 -34t-112 -13q-129 0 -226.5 44.5t-163 121.5t-99 182t-34.5 227z" />
<glyph unicode="&#x10b;" horiz-adv-x="1038" d="M88 552q0 124 39 236t113.5 196.5t182 134t244.5 49.5q49 0 95.5 -6.5t86 -16t70.5 -20.5t51 -19l-10 -294h-135l-45 166q-26 34 -65.5 52.5t-96.5 18.5t-109 -26t-92.5 -78.5t-65 -131t-25.5 -183.5q-1 -136 26.5 -231t73.5 -154.5t107 -86.5t127 -27q47 0 88.5 8 t76.5 21t64 29t51 33l44 -96q-27 -28 -67 -54.5t-89.5 -47.5t-104.5 -34t-112 -13q-129 0 -226.5 44.5t-163 121.5t-99 182t-34.5 227zM580 1353q-29 0 -53 10.5t-41 29t-26 44t-9 54.5q0 32 9.5 61t28 51.5t46.5 36t65 13.5h1q33 0 58 -12t42 -31.5t26 -44.5t9 -52 q0 -34 -9.5 -63t-29 -50.5t-48.5 -34t-68 -12.5h-1v0z" />
<glyph unicode="&#x10c;" horiz-adv-x="1351" d="M85 765q0 113 26.5 214t74.5 187t116 155t150.5 117t178 74t198.5 26q66 0 131.5 -8t123 -18.5t104 -21t75.5 -16.5l-18 -353h-145l-58 231q-26 29 -89 47t-174 18q-93 0 -171 -41t-134.5 -120.5t-88 -196.5t-31.5 -268q0 -87 11 -172t34 -162t58.5 -143t85 -114 t113.5 -75.5t143 -27.5q55 0 95.5 5.5t70.5 15t51 24t37 32.5l93 197l129 -20l-49 -295q-41 -2 -79.5 -15t-87 -27t-112.5 -25.5t-156 -11.5q-170 0 -301.5 56.5t-221.5 160t-136.5 249t-46.5 322.5zM458 1954l93 60l250 -184l258 184l86 -57l-247 -278h-193z" />
<glyph unicode="&#x10d;" horiz-adv-x="1038" d="M225 1742l90 57l281 -275l285 276l83 -57l-274 -396h-190zM88 552q0 124 39 236t113.5 196.5t182 134t244.5 49.5q49 0 95.5 -6.5t86 -16t70.5 -20.5t51 -19l-10 -294h-135l-45 166q-26 34 -65.5 52.5t-96.5 18.5t-109 -26t-92.5 -78.5t-65 -131t-25.5 -183.5 q-1 -136 26.5 -231t73.5 -154.5t107 -86.5t127 -27q47 0 88.5 8t76.5 21t64 29t51 33l44 -96q-27 -28 -67 -54.5t-89.5 -47.5t-104.5 -34t-112 -13q-129 0 -226.5 44.5t-163 121.5t-99 182t-34.5 227z" />
<glyph unicode="&#x10f;" horiz-adv-x="1460" d="M534 -23q-89 0 -170 34.5t-142.5 104.5t-98 176t-36.5 250q0 132 40.5 246.5t116.5 199t184.5 132.5t244.5 48q48 0 94.5 -5t88.5 -13v373l-197 19v95l365 43h5l50 -35v-1525h119v-106q-42 -11 -98.5 -24t-119.5 -13q-27 0 -47 3.5t-34 15t-21 32t-7 55.5v44 q-26 -27 -60 -54t-76 -48t-92.5 -34.5t-108.5 -13.5zM627 130q40 0 75 9.5t64 24.5t52 33t38 35v758q-8 12 -26 23.5t-44.5 20.5t-58.5 14t-68 5q-68 0 -127 -25.5t-103 -82t-70.5 -147t-28.5 -220.5q-2 -117 20.5 -201.5t63 -139.5t95.5 -81t118 -26zM1285 1070l-5 26 q18 68 24.5 133.5t6.5 117.5q0 45 -5 86t-12.5 75t-16.5 58.5t-18 35.5l15 42l169 41q14 -14 26 -39.5t20.5 -58t13 -69t4.5 -73.5q0 -60 -10.5 -123t-28 -119.5t-41 -100.5t-49.5 -67z" />
<glyph unicode="&#x110;" horiz-adv-x="1568" d="M100 110l168 27v575h-153v134h153v539l-156 27v110h270q89 0 175 7.5t184 7.5q198 0 339.5 -51.5t232 -147t133 -230t42.5 -300.5q0 -188 -57 -341.5t-159.5 -262.5t-245 -166.5t-313.5 -53.5q-37 1 -78.5 3.5t-84 5.5t-84.5 5t-81 2h-285v110zM498 123q54 -16 112.5 -18 t126.5 0q109 3 202 45.5t160.5 124.5t106 204t38.5 284q0 655 -571 655q-67 0 -109.5 -4.5t-65.5 -7.5v-560h338v-134h-338v-589z" />
<glyph unicode="&#x111;" horiz-adv-x="1271" d="M532 -23q-89 0 -170 34.5t-142.5 104.5t-98 176t-36.5 250q0 132 40.5 246.5t116.5 199t184.5 132.5t244.5 48q48 0 94.5 -5t88.5 -13v139h-240v119h240v115l-197 19v95l365 43h5l50 -35v-237h142v-119h-142v-1169h119v-106q-42 -11 -98.5 -24t-119.5 -13q-27 0 -47 3.5 t-34 15t-21 32t-7 55.5v44q-26 -27 -60 -54t-76 -48t-92.5 -34.5t-108.5 -13.5zM625 130q40 0 75 9.5t64 24.5t52 33t38 35v758q-8 12 -26 23.5t-44.5 20.5t-58.5 14t-68 5q-68 0 -127 -25.5t-103 -82t-70.5 -147t-28.5 -220.5q-2 -117 20.5 -201.5t63 -139.5t95.5 -81 t118 -26z" />
<glyph unicode="&#x112;" horiz-adv-x="1341" d="M422 1912h557v-161h-557v161zM100 110l168 27v1248l-164 27v110h1031l27 -310h-128l-65 182l-471 12v-566l324 7l31 163h136v-460h-136l-30 165l-325 6v-593l546 22l115 245l128 -38l-61 -357h-1126v110z" />
<glyph unicode="&#x113;" horiz-adv-x="1106" d="M85 573q0 133 40 242.5t111.5 188t169.5 121.5t214 43q189 0 293 -102.5t113 -303.5q1 -65 -1 -113.5t-10 -85.5h-692v-6q4 -114 33 -195t75.5 -132.5t106.5 -75t125 -23.5q43 0 87 8t84.5 21t74 30t55.5 34l42 -98q-29 -29 -73.5 -56t-99 -47.5t-116 -33t-122.5 -12.5 q-127 0 -222.5 44t-159.5 123t-96 188.5t-32 240.5zM787 683q2 20 2.5 42t0.5 41q0 55 -12 106t-38 90t-67.5 62.5t-102.5 23.5q-50 0 -93 -17.5t-75.5 -59.5t-53 -112t-25.5 -176h464zM305 1590h544v-161h-544v161z" />
<glyph unicode="&#x114;" horiz-adv-x="1341" d="M697 1643q-82 0 -145 24.5t-106 66.5t-65 99t-22 122v21t2 21h121q0 -4 0.5 -11t2.5 -16q4 -20 15 -46.5t35 -50.5t63.5 -40.5t100.5 -16.5t100 17t62.5 41t33.5 50.5t13 46.5q2 10 2 16v10h118q2 -11 2 -20.5v-20.5q0 -65 -22.5 -122t-65 -99.5t-104.5 -67t-141 -24.5z M100 110l168 27v1248l-164 27v110h1031l27 -310h-128l-65 182l-471 12v-566l324 7l31 163h136v-460h-136l-30 165l-325 6v-593l546 22l115 245l128 -38l-61 -357h-1126v110z" />
<glyph unicode="&#x115;" horiz-adv-x="1106" d="M85 573q0 133 40 242.5t111.5 188t169.5 121.5t214 43q189 0 293 -102.5t113 -303.5q1 -65 -1 -113.5t-10 -85.5h-692v-6q4 -114 33 -195t75.5 -132.5t106.5 -75t125 -23.5q43 0 87 8t84.5 21t74 30t55.5 34l42 -98q-29 -29 -73.5 -56t-99 -47.5t-116 -33t-122.5 -12.5 q-127 0 -222.5 44t-159.5 123t-96 188.5t-32 240.5zM787 683q2 20 2.5 42t0.5 41q0 55 -12 106t-38 90t-67.5 62.5t-102.5 23.5q-50 0 -93 -17.5t-75.5 -59.5t-53 -112t-25.5 -176h464zM578 1352q-79 0 -141.5 28.5t-106 76t-66.5 109.5t-23 130q0 14 0.5 29t2.5 26h119 q0 -5 0.5 -14.5t2.5 -21.5q4 -24 15.5 -55.5t36 -59t63.5 -46.5t99 -19q59 0 97.5 19t62 46.5t34 59t14.5 55.5q3 24 3 36h115q1 -11 2 -25.5t1 -28.5q0 -68 -23.5 -130.5t-66.5 -110t-104.5 -76t-136.5 -28.5z" />
<glyph unicode="&#x116;" horiz-adv-x="1341" d="M683 1695q-29 0 -53 10.5t-41 29t-26 44t-9 54.5q0 32 9.5 61t28 51.5t46.5 36t65 13.5h1q33 0 58 -12t42.5 -31.5t26.5 -44.5t9 -52q0 -34 -10 -63t-29.5 -50.5t-48.5 -34t-68 -12.5h-1v0zM100 110l168 27v1248l-164 27v110h1031l27 -310h-128l-65 182l-471 12v-566 l324 7l31 163h136v-460h-136l-30 165l-325 6v-593l546 22l115 245l128 -38l-61 -357h-1126v110z" />
<glyph unicode="&#x117;" horiz-adv-x="1106" d="M85 573q0 133 40 242.5t111.5 188t169.5 121.5t214 43q189 0 293 -102.5t113 -303.5q1 -65 -1 -113.5t-10 -85.5h-692v-6q4 -114 33 -195t75.5 -132.5t106.5 -75t125 -23.5q43 0 87 8t84.5 21t74 30t55.5 34l42 -98q-29 -29 -73.5 -56t-99 -47.5t-116 -33t-122.5 -12.5 q-127 0 -222.5 44t-159.5 123t-96 188.5t-32 240.5zM787 683q2 20 2.5 42t0.5 41q0 55 -12 106t-38 90t-67.5 62.5t-102.5 23.5q-50 0 -93 -17.5t-75.5 -59.5t-53 -112t-25.5 -176h464zM570 1353q-29 0 -53 10.5t-41 29t-26 44t-9 54.5q0 32 9.5 61t28 51.5t46.5 36t65 13.5 h1q33 0 58 -12t42 -31.5t26 -44.5t9 -52q0 -34 -9.5 -63t-29 -50.5t-48.5 -34t-68 -12.5h-1v0z" />
<glyph unicode="&#x11a;" horiz-adv-x="1341" d="M355 1954l93 60l250 -184l258 184l86 -57l-247 -278h-193zM100 110l168 27v1248l-164 27v110h1031l27 -310h-128l-65 182l-471 12v-566l324 7l31 163h136v-460h-136l-30 165l-325 6v-593l546 22l115 245l128 -38l-61 -357h-1126v110z" />
<glyph unicode="&#x11b;" horiz-adv-x="1106" d="M213 1742l90 57l281 -275l285 276l83 -57l-274 -396h-190zM85 573q0 133 40 242.5t111.5 188t169.5 121.5t214 43q189 0 293 -102.5t113 -303.5q1 -65 -1 -113.5t-10 -85.5h-692v-6q4 -114 33 -195t75.5 -132.5t106.5 -75t125 -23.5q43 0 87 8t84.5 21t74 30t55.5 34 l42 -98q-29 -29 -73.5 -56t-99 -47.5t-116 -33t-122.5 -12.5q-127 0 -222.5 44t-159.5 123t-96 188.5t-32 240.5zM787 683q2 20 2.5 42t0.5 41q0 55 -12 106t-38 90t-67.5 62.5t-102.5 23.5q-50 0 -93 -17.5t-75.5 -59.5t-53 -112t-25.5 -176h464z" />
<glyph unicode="&#x128;" horiz-adv-x="822" d="M115 110l181 28v1247l-181 27v110h590v-110l-179 -27v-1248l179 -31v-106h-590v110zM-14 1796q9 34 34.5 71.5t63.5 69.5t87 53t106 21q41 0 73.5 -12t59.5 -30.5t49.5 -40t45 -40t45.5 -30.5t50 -12q34 0 58.5 14t41 33t27 39t18.5 32l103 -63q-15 -41 -38.5 -80 t-57 -69t-76.5 -48t-95 -18q-41 0 -73.5 12t-60.5 30.5t-52 40t-48.5 40t-49.5 30.5t-55 12q-34 0 -59.5 -14t-44 -33.5t-31 -39.5t-19.5 -31z" />
<glyph unicode="&#x129;" horiz-adv-x="693" d="M76 110l165 17v832l-140 44v120l306 41h5l53 -40v-998l162 -16v-110h-551v110zM-89 1442q9 34 34.5 72t63.5 69.5t87 52.5t106 21q41 0 73.5 -12t59.5 -30.5t49.5 -39.5t45 -39.5t45.5 -30.5t50 -12q34 0 59 14t42 33t27.5 39t16.5 32l103 -63q-15 -41 -38.5 -80t-57 -69 t-76.5 -48t-95 -18q-41 0 -73.5 12t-60.5 30.5t-52 40t-48.5 40t-49.5 30.5t-55 12q-34 0 -59.5 -14t-44 -33.5t-31 -39.5t-19.5 -31z" />
<glyph unicode="&#x12a;" horiz-adv-x="822" d="M115 110l181 28v1247l-181 27v110h590v-110l-179 -27v-1248l179 -31v-106h-590v110zM141 1912h557v-161h-557v161z" />
<glyph unicode="&#x12b;" horiz-adv-x="693" d="M76 110l165 17v832l-140 44v120l306 41h5l53 -40v-998l162 -16v-110h-551v110zM68 1590h544v-161h-544v161z" />
<glyph unicode="&#x12c;" horiz-adv-x="822" d="M115 110l181 28v1247l-181 27v110h590v-110l-179 -27v-1248l179 -31v-106h-590v110zM417 1643q-82 0 -145 24.5t-106 66.5t-65 99t-22 122v21t2 21h121q0 -4 0.5 -11t2.5 -16q4 -20 15 -46.5t35 -50.5t63.5 -40.5t100.5 -16.5t100 17t62.5 41t33.5 50.5t13 46.5 q2 10 2 16v10h118q2 -11 2 -20.5v-20.5q0 -65 -22.5 -122t-65 -99.5t-104.5 -67t-141 -24.5z" />
<glyph unicode="&#x12d;" horiz-adv-x="693" d="M76 110l165 17v832l-140 44v120l306 41h5l53 -40v-998l162 -16v-110h-551v110zM342 1352q-79 0 -141.5 28.5t-106 76t-66.5 109.5t-23 130q0 14 0.5 29t2.5 26h119q0 -5 0.5 -14.5t2.5 -21.5q4 -24 15.5 -55.5t36 -59t63.5 -46.5t99 -19q59 0 97.5 19t62 46.5t34 59 t14.5 55.5q3 24 3 36h115q1 -11 2 -25.5t1 -28.5q0 -68 -23.5 -130.5t-66.5 -110t-104.5 -76t-136.5 -28.5z" />
<glyph unicode="&#x131;" horiz-adv-x="690" d="M75 110l165 17v832l-140 44v120l306 41h5l53 -40v-998l162 -16v-110h-551v110z" />
<glyph unicode="&#x132;" horiz-adv-x="1597" d="M115 110l181 28v1247l-181 27v110h590v-110l-179 -27v-1248l179 -31v-106h-590v110zM1067 3q12 42 20 84t12.5 97.5t6.5 130.5t2 182v888l-182 27v110h588v-110l-176 -27v-821v-147.5t-2 -137t-7 -123.5t-15 -106q-19 -90 -65.5 -161t-108 -123t-131.5 -84.5t-137 -47.5 l-55 93q41 14 79 39t70.5 59.5t58.5 79t42 98.5z" />
<glyph unicode="&#x133;" horiz-adv-x="1357" d="M936 951l-140 44l2 128l305 41h5l52 -40v-1102q0 -128 -25.5 -223t-71 -159t-108.5 -98t-138 -40h-24.5t-35 0.5t-34 2.5t-20.5 5l-11 111q7 -1 20.5 0.5t28.5 5t30 7.5t27 9q43 16 70.5 54.5t43 93t21 122t5.5 142.5zM75 110l165 17v832l-140 44v120l306 41h5l53 -40 v-998l162 -16v-110h-551v110zM319 1353q-29 0 -53 10.5t-41 29t-26 44t-9 54.5q0 32 9.5 61t28 51.5t46.5 36t65 13.5h1q33 0 58 -12t42 -31.5t26 -44.5t9 -52q0 -34 -9.5 -63t-29 -50.5t-48.5 -34t-68 -12.5h-1v0zM1013 1353q-29 0 -53 10.5t-41 29t-26 44t-9 54.5 q0 32 9.5 61t28 51.5t46.5 36t65 13.5h1q33 0 58 -12t42 -31.5t26 -44.5t9 -52q0 -34 -9.5 -63t-29 -50.5t-48.5 -34t-68 -12.5h-1v0z" />
<glyph unicode="&#x134;" horiz-adv-x="776" d="M246 3q12 42 20 84t12.5 97.5t6.5 130.5t2 182v888l-182 27v110h588v-110l-176 -27v-821v-147.5t-2 -137t-7 -123.5t-15 -106q-19 -90 -65.5 -161t-108 -123t-131.5 -84.5t-137 -47.5l-55 93q41 14 79 39t70.5 59.5t58.5 79t42 98.5zM35 1712l265 302h192l267 -300 l-93 -59l-270 198l-275 -198z" />
<glyph unicode="&#x141;" horiz-adv-x="1301" d="M100 110l168 28v480l-223 -95v123l223 98v641l-164 27v110h585v-110l-192 -27v-547l377 167v-132l-377 -162v-573l510 19l122 318l133 -26l-68 -449h-1094v110z" />
<glyph unicode="&#x142;" horiz-adv-x="706" d="M80 110l165 17v576l-209 -96v135l209 99v681l-165 18v95l336 45h2l50 -35v-704l214 101v-145l-214 -98v-672l173 -17v-110h-561v110z" />
<glyph unicode="&#x14c;" horiz-adv-x="1511" d="M486 1912h557v-161h-557v161zM741 -23q-161 -3 -284 52t-206 157t-126 245.5t-43 316.5q0 181 53 327.5t146 249.5t220 158.5t274 55.5q161 0 283.5 -54.5t204.5 -154.5t123.5 -241t41.5 -314q0 -181 -52.5 -327.5t-144.5 -250t-217.5 -160.5t-272.5 -60zM756 98 q96 0 173 41t132 125t84.5 211t29.5 299q0 146 -28 265t-82 203t-132.5 130t-178.5 46q-96 0 -173.5 -40t-132 -122.5t-84.5 -208.5t-30 -298q0 -147 28.5 -267t82.5 -205.5t132.5 -132t178.5 -46.5z" />
<glyph unicode="&#x14d;" horiz-adv-x="1203" d="M338 1590h544v-161h-544v161zM75 574q0 142 46.5 252.5t122.5 186.5t172.5 115.5t197.5 39.5q136 0 233.5 -46.5t159.5 -127.5t91 -190t29 -233q0 -95 -21 -176.5t-58.5 -147.5t-89 -116.5t-111.5 -84.5t-126 -51.5t-133 -17.5q-136 0 -233 46.5t-159.5 127.5t-91.5 190 t-29 233zM600 100q142 0 210 114t68 338q0 103 -15 192.5t-48 156.5t-85.5 105.5t-127.5 38.5q-143 0 -211 -113t-68 -339q0 -103 15.5 -193t48.5 -156.5t85.5 -105t127.5 -38.5z" />
<glyph unicode="&#x14e;" horiz-adv-x="1511" d="M761 1643q-82 0 -145 24.5t-106 66.5t-65 99t-22 122v21t2 21h121q0 -4 0.5 -11t2.5 -16q4 -20 15 -46.5t35 -50.5t63.5 -40.5t100.5 -16.5t100 17t62.5 41t33.5 50.5t13 46.5q2 10 2 16v10h118q2 -11 2 -20.5v-20.5q0 -65 -22.5 -122t-65 -99.5t-104.5 -67t-141 -24.5z M741 -23q-161 -3 -284 52t-206 157t-126 245.5t-43 316.5q0 181 53 327.5t146 249.5t220 158.5t274 55.5q161 0 283.5 -54.5t204.5 -154.5t123.5 -241t41.5 -314q0 -181 -52.5 -327.5t-144.5 -250t-217.5 -160.5t-272.5 -60zM756 98q96 0 173 41t132 125t84.5 211t29.5 299 q0 146 -28 265t-82 203t-132.5 130t-178.5 46q-96 0 -173.5 -40t-132 -122.5t-84.5 -208.5t-30 -298q0 -147 28.5 -267t82.5 -205.5t132.5 -132t178.5 -46.5z" />
<glyph unicode="&#x14f;" horiz-adv-x="1203" d="M75 574q0 142 46.5 252.5t122.5 186.5t172.5 115.5t197.5 39.5q136 0 233.5 -46.5t159.5 -127.5t91 -190t29 -233q0 -95 -21 -176.5t-58.5 -147.5t-89 -116.5t-111.5 -84.5t-126 -51.5t-133 -17.5q-136 0 -233 46.5t-159.5 127.5t-91.5 190t-29 233zM600 100 q142 0 210 114t68 338q0 103 -15 192.5t-48 156.5t-85.5 105.5t-127.5 38.5q-143 0 -211 -113t-68 -339q0 -103 15.5 -193t48.5 -156.5t85.5 -105t127.5 -38.5zM611 1352q-79 0 -141.5 28.5t-106 76t-66.5 109.5t-23 130q0 14 0.5 29t2.5 26h119q0 -5 0.5 -14.5t2.5 -21.5 q4 -24 15.5 -55.5t36 -59t63.5 -46.5t99 -19q59 0 97.5 19t62 46.5t34 59t14.5 55.5q3 24 3 36h115q1 -11 2 -25.5t1 -28.5q0 -68 -23.5 -130.5t-66.5 -110t-104.5 -76t-136.5 -28.5z" />
<glyph unicode="&#x150;" horiz-adv-x="1511" d="M741 -23q-161 -3 -284 52t-206 157t-126 245.5t-43 316.5q0 181 53 327.5t146 249.5t220 158.5t274 55.5q161 0 283.5 -54.5t204.5 -154.5t123.5 -241t41.5 -314q0 -181 -52.5 -327.5t-144.5 -250t-217.5 -160.5t-272.5 -60zM756 98q96 0 173 41t132 125t84.5 211 t29.5 299q0 146 -28 265t-82 203t-132.5 130t-178.5 46q-96 0 -173.5 -40t-132 -122.5t-84.5 -208.5t-30 -298q0 -147 28.5 -267t82.5 -205.5t132.5 -132t178.5 -46.5zM883 1721l293 293l136 -125q-31 -37 -73.5 -73.5t-88.5 -70t-91.5 -61t-81.5 -46.5zM383 1721l278 293 l147 -125q-36 -41 -79.5 -78t-87.5 -69.5t-87 -58.5t-77 -45z" />
<glyph unicode="&#x151;" horiz-adv-x="1203" d="M744 1408l328 402l139 -124q-14 -24 -41.5 -55.5t-63.5 -65.5t-76.5 -67.5t-79.5 -63.5t-74 -53.5t-58 -35.5zM266 1408l321 402l146 -128q-17 -27 -46.5 -59t-66 -65.5t-76.5 -66t-78.5 -61t-71.5 -51t-55 -34.5zM75 574q0 142 46.5 252.5t122.5 186.5t172.5 115.5 t197.5 39.5q136 0 233.5 -46.5t159.5 -127.5t91 -190t29 -233q0 -95 -21 -176.5t-58.5 -147.5t-89 -116.5t-111.5 -84.5t-126 -51.5t-133 -17.5q-136 0 -233 46.5t-159.5 127.5t-91.5 190t-29 233zM600 100q142 0 210 114t68 338q0 103 -15 192.5t-48 156.5t-85.5 105.5 t-127.5 38.5q-143 0 -211 -113t-68 -339q0 -103 15.5 -193t48.5 -156.5t85.5 -105t127.5 -38.5z" />
<glyph unicode="&#x152;" horiz-adv-x="2112" d="M747 -16q-158 -3 -281 51.5t-207 156t-127.5 243.5t-43.5 314q0 181 53 327t145.5 249.5t218 160t270.5 59.5t264 -49v26h867l27 -310h-129l-64 182l-475 13v-567l328 7l30 163h137v-460h-137l-30 165l-328 6v-593l558 22l130 245l129 -38l-77 -357h-966v60 q-66 -37 -139.5 -55.5t-152.5 -20.5zM764 103q173 0 275 119v1097q-48 51 -116.5 79.5t-165.5 28.5q-99 0 -177 -43.5t-132.5 -128.5t-83 -212t-28.5 -293q0 -131 28.5 -248.5t83.5 -206t134.5 -140.5t181.5 -52z" />
<glyph unicode="&#x153;" horiz-adv-x="1967" d="M74 572q0 94 21.5 175t59.5 147t89.5 117t112.5 86t128.5 53t136.5 18q148 0 245 -58.5t153 -161.5q72 104 181.5 162t245.5 58q189 0 293 -102.5t113 -303.5q1 -65 -1 -113.5t-10 -85.5h-692v-6q4 -114 33 -195t75.5 -132.5t106.5 -75t125 -23.5q43 0 87 8t84.5 21 t74 30t55.5 34l42 -98q-29 -29 -73.5 -56t-99 -47.5t-116 -33t-122.5 -12.5q-150 0 -255 59.5t-167 165.5q-72 -112 -178 -168.5t-231 -56.5q-134 0 -231 43.5t-161 122t-94.5 188t-30.5 241.5zM1614 683q2 20 2.5 42t0.5 41q0 55 -12 106t-38 90t-67.5 62.5t-102.5 23.5 q-50 0 -93 -17.5t-75.5 -59.5t-53 -112t-25.5 -176h464zM600 100q142 0 212 117t70 338q0 115 -18 206t-53 154t-87 96.5t-121 33.5q-143 0 -213.5 -117.5t-70.5 -337.5q0 -115 18.5 -206t54 -154t88 -96.5t120.5 -33.5z" />
<glyph unicode="&#x168;" horiz-adv-x="1515" d="M372 1796q9 34 34.5 71.5t63.5 69.5t87 53t106 21q41 0 73.5 -12t59.5 -30.5t49.5 -40t45 -40t45.5 -30.5t50 -12q34 0 58.5 14t41 33t27 39t18.5 32l103 -63q-15 -41 -38.5 -80t-57 -69t-76.5 -48t-95 -18q-41 0 -73.5 12t-60.5 30.5t-52 40t-48.5 40t-49.5 30.5t-55 12 q-34 0 -59.5 -14t-44 -33.5t-31 -39.5t-19.5 -31zM196 1384l-146 28v110h545v-110l-164 -27v-761q0 -150 28.5 -250t78.5 -160t118.5 -84.5t148.5 -24.5q177 0 269.5 129t92.5 378v772l-159 28v110h472v-110l-147 -27v-765q0 -166 -42.5 -286t-116 -198t-174 -115 t-215.5 -37q-155 0 -266 40t-183 122t-106 206.5t-34 293.5v738z" />
<glyph unicode="&#x169;" horiz-adv-x="1314" d="M204 993l-112 43v96l289 32h1l45 -28v-704q0 -83 8.5 -140.5t31.5 -93.5t62.5 -52t101.5 -16q43 0 82 9.5t72 23t59 29.5t44 29v772l-141 43v97l306 31h2l56 -28v-1022h121v-100q-35 -11 -83 -24.5t-108 -13.5q-63 0 -96 23t-33 86v41q-28 -24 -66.5 -50.5t-84.5 -48.5 t-97.5 -36t-105.5 -14q-93 0 -160 24t-110 77t-63.5 137t-20.5 205v573zM229 1442q9 34 34.5 72t63.5 69.5t87 52.5t106 21q41 0 73.5 -12t59.5 -30.5t49.5 -39.5t45 -39.5t45.5 -30.5t50 -12q34 0 59 14t42 33t27.5 39t16.5 32l103 -63q-15 -41 -38.5 -80t-57 -69 t-76.5 -48t-95 -18q-41 0 -73.5 12t-60.5 30.5t-52 40t-48.5 40t-49.5 30.5t-55 12q-34 0 -59.5 -14t-44 -33.5t-31 -39.5t-19.5 -31z" />
<glyph unicode="&#x16a;" horiz-adv-x="1515" d="M528 1912h557v-161h-557v161zM196 1384l-146 28v110h545v-110l-164 -27v-761q0 -150 28.5 -250t78.5 -160t118.5 -84.5t148.5 -24.5q177 0 269.5 129t92.5 378v772l-159 28v110h472v-110l-147 -27v-765q0 -166 -42.5 -286t-116 -198t-174 -115t-215.5 -37q-155 0 -266 40 t-183 122t-106 206.5t-34 293.5v738z" />
<glyph unicode="&#x16b;" horiz-adv-x="1314" d="M204 993l-112 43v96l289 32h1l45 -28v-704q0 -83 8.5 -140.5t31.5 -93.5t62.5 -52t101.5 -16q43 0 82 9.5t72 23t59 29.5t44 29v772l-141 43v97l306 31h2l56 -28v-1022h121v-100q-35 -11 -83 -24.5t-108 -13.5q-63 0 -96 23t-33 86v41q-28 -24 -66.5 -50.5t-84.5 -48.5 t-97.5 -36t-105.5 -14q-93 0 -160 24t-110 77t-63.5 137t-20.5 205v573zM387 1590h544v-161h-544v161z" />
<glyph unicode="&#x16c;" horiz-adv-x="1515" d="M803 1643q-82 0 -145 24.5t-106 66.5t-65 99t-22 122v21t2 21h121q0 -4 0.5 -11t2.5 -16q4 -20 15 -46.5t35 -50.5t63.5 -40.5t100.5 -16.5t100 17t62.5 41t33.5 50.5t13 46.5q2 10 2 16v10h118q2 -11 2 -20.5v-20.5q0 -65 -22.5 -122t-65 -99.5t-104.5 -67t-141 -24.5z M196 1384l-146 28v110h545v-110l-164 -27v-761q0 -150 28.5 -250t78.5 -160t118.5 -84.5t148.5 -24.5q177 0 269.5 129t92.5 378v772l-159 28v110h472v-110l-147 -27v-765q0 -166 -42.5 -286t-116 -198t-174 -115t-215.5 -37q-155 0 -266 40t-183 122t-106 206.5t-34 293.5 v738z" />
<glyph unicode="&#x16d;" horiz-adv-x="1314" d="M204 993l-112 43v96l289 32h1l45 -28v-704q0 -83 8.5 -140.5t31.5 -93.5t62.5 -52t101.5 -16q43 0 82 9.5t72 23t59 29.5t44 29v772l-141 43v97l306 31h2l56 -28v-1022h121v-100q-35 -11 -83 -24.5t-108 -13.5q-63 0 -96 23t-33 86v41q-28 -24 -66.5 -50.5t-84.5 -48.5 t-97.5 -36t-105.5 -14q-93 0 -160 24t-110 77t-63.5 137t-20.5 205v573zM660 1352q-79 0 -141.5 28.5t-106 76t-66.5 109.5t-23 130q0 14 0.5 29t2.5 26h119q0 -5 0.5 -14.5t2.5 -21.5q4 -24 15.5 -55.5t36 -59t63.5 -46.5t99 -19q59 0 97.5 19t62 46.5t34 59t14.5 55.5 q3 24 3 36h115q1 -11 2 -25.5t1 -28.5q0 -68 -23.5 -130.5t-66.5 -110t-104.5 -76t-136.5 -28.5z" />
<glyph unicode="&#x16e;" horiz-adv-x="1515" d="M196 1384l-146 28v110h545v-110l-164 -27v-761q0 -150 28.5 -250t78.5 -160t118.5 -84.5t148.5 -24.5q177 0 269.5 129t92.5 378v772l-159 28v110h472v-110l-147 -27v-765q0 -166 -42.5 -286t-116 -198t-174 -115t-215.5 -37q-155 0 -266 40t-183 122t-106 206.5 t-34 293.5v738zM800 1508q-84 0 -145.5 20t-102 55t-59.5 81.5t-18 99.5q1 62 31 108.5t77.5 78t108 47.5t122.5 16h1q78 0 137.5 -19t99.5 -53t60 -81t20 -102q-1 -60 -28 -107t-72.5 -79t-105 -48.5t-125.5 -16.5h-1zM806 1609q46 0 77 9.5t50.5 28t28 45t8.5 60.5 q0 33 -9 62t-28.5 50.5t-50.5 34.5t-75 13h-1q-91 0 -130 -39.5t-39 -108.5q0 -30 10 -57.5t30.5 -49.5t52 -35t75.5 -13h1z" />
<glyph unicode="&#x16f;" horiz-adv-x="1314" d="M656 1312q-84 0 -146 22t-102.5 61t-59.5 91t-18 112q1 66 31 116.5t77.5 85t108 52t123.5 17.5h1q78 0 137 -21t99 -58t60 -87.5t20 -109.5q-1 -68 -28 -120.5t-72 -88t-104.5 -54t-125.5 -18.5h-1zM662 1418q91 0 127.5 42.5t36.5 125.5q0 34 -9 66t-28.5 56 t-50.5 38.5t-75 14.5h-1q-45 0 -77.5 -12t-52.5 -33.5t-29.5 -51.5t-9.5 -66q0 -35 10 -67.5t30.5 -57.5t52 -40t75.5 -15h1zM204 993l-112 43v96l289 32h1l45 -28v-704q0 -83 8.5 -140.5t31.5 -93.5t62.5 -52t101.5 -16q43 0 82 9.5t72 23t59 29.5t44 29v772l-141 43v97 l306 31h2l56 -28v-1022h121v-100q-35 -11 -83 -24.5t-108 -13.5q-63 0 -96 23t-33 86v41q-28 -24 -66.5 -50.5t-84.5 -48.5t-97.5 -36t-105.5 -14q-93 0 -160 24t-110 77t-63.5 137t-20.5 205v573z" />
<glyph unicode="&#x170;" horiz-adv-x="1515" d="M196 1384l-146 28v110h545v-110l-164 -27v-761q0 -150 28.5 -250t78.5 -160t118.5 -84.5t148.5 -24.5q177 0 269.5 129t92.5 378v772l-159 28v110h472v-110l-147 -27v-765q0 -166 -42.5 -286t-116 -198t-174 -115t-215.5 -37q-155 0 -266 40t-183 122t-106 206.5 t-34 293.5v738zM925 1721l293 293l136 -125q-31 -37 -73.5 -73.5t-88.5 -70t-91.5 -61t-81.5 -46.5zM425 1721l278 293l147 -125q-36 -41 -79.5 -78t-87.5 -69.5t-87 -58.5t-77 -45z" />
<glyph unicode="&#x171;" horiz-adv-x="1314" d="M204 993l-112 43v96l289 32h1l45 -28v-704q0 -83 8.5 -140.5t31.5 -93.5t62.5 -52t101.5 -16q43 0 82 9.5t72 23t59 29.5t44 29v772l-141 43v97l306 31h2l56 -28v-1022h121v-100q-35 -11 -83 -24.5t-108 -13.5q-63 0 -96 23t-33 86v41q-28 -24 -66.5 -50.5t-84.5 -48.5 t-97.5 -36t-105.5 -14q-93 0 -160 24t-110 77t-63.5 137t-20.5 205v573zM793 1408l328 402l139 -124q-14 -24 -41.5 -55.5t-63.5 -65.5t-76.5 -67.5t-79.5 -63.5t-74 -53.5t-58 -35.5zM315 1408l321 402l146 -128q-17 -27 -46.5 -59t-66 -65.5t-76.5 -66t-78.5 -61 t-71.5 -51t-55 -34.5z" />
<glyph unicode="&#x18f;" horiz-adv-x="1328" d="M73 580q0 64 2 115.5t10 87.5l947 -1v17q-5 154 -42.5 270.5t-96.5 194t-133.5 116.5t-153.5 39q-65 0 -114.5 -10t-87 -26.5t-64.5 -38t-46 -44.5l-44 -143l-137 2l10 300q43 2 90 14.5t108 27t140 26t186 11.5q141 0 254.5 -55t193.5 -155.5t123.5 -242t43.5 -314.5 q0 -179 -51 -325.5t-140.5 -250.5t-211 -161t-261.5 -57q-115 0 -211 39.5t-165.5 116t-108.5 189t-40 258.5zM307 552q0 -49 8 -101t25.5 -102t45 -94.5t66 -78t88 -53t112.5 -19.5q79 0 147.5 28t119.5 93t81.5 171.5t33.5 263.5h-721q-3 -28 -4.5 -54t-1.5 -54z" />
<glyph unicode="&#x192;" horiz-adv-x="1068" d="M407 990h-207l8 86l212 59l11 83q9 112 53 199t108.5 146.5t142 90.5t152.5 31q65 0 102.5 -6.5t48.5 -11.5l-23 -185q-17 8 -58 20t-110 12q-37 0 -70 -7.5t-59.5 -31.5t-44 -69.5t-23.5 -121.5l-17 -149h315l-12 -145h-316l-115 -1346h-212z" />
<glyph unicode="&#x1c7;" horiz-adv-x="2076" d="M100 110l168 28v1247l-164 27v110h585v-110l-192 -27v-1247l510 19l122 318l133 -26l-68 -449h-1094v110zM1547 3q12 42 20 84t12.5 97.5t6.5 130.5t2 182v888l-182 27v110h588v-110l-176 -27v-821v-147.5t-2 -137t-7 -123.5t-15 -106q-19 -90 -65.5 -161t-108 -123 t-131.5 -84.5t-137 -47.5l-55 93q41 14 79 39t70.5 59.5t58.5 79t42 98.5z" />
<glyph unicode="&#x1c8;" horiz-adv-x="1968" d="M100 110l168 28v1247l-164 27v110h585v-110l-192 -27v-1247l510 19l122 318l133 -26l-68 -449h-1094v110zM1548 951l-140 44l2 128l305 41h5l52 -40v-1102q0 -128 -25.5 -223t-71 -159t-108.5 -98t-138 -40h-24.5t-35 0.5t-34 2.5t-20.5 5l-11 111q7 -1 20.5 0.5t28.5 5 t30 7.5t27 9q43 16 70.5 54.5t43 93t21 122t5.5 142.5zM1624 1353q-29 0 -53 10.5t-41 29t-26 44t-9 54.5q0 32 9.5 61t28 51.5t46.5 36t65 13.5h1q33 0 58 -12t42 -31.5t26 -44.5t9 -52q0 -34 -9.5 -63t-29 -50.5t-48.5 -34t-68 -12.5h-1v0z" />
<glyph unicode="&#x1c9;" horiz-adv-x="1356" d="M72 110l165 17v1395l-165 18v95l336 45h2l50 -35v-1518l173 -17v-110h-561v110zM936 951l-140 44l2 128l305 41h5l52 -40v-1102q0 -128 -25.5 -223t-71 -159t-108.5 -98t-138 -40h-24.5t-35 0.5t-34 2.5t-20.5 5l-11 111q7 -1 20.5 0.5t28.5 5t30 7.5t27 9 q43 16 70.5 54.5t43 93t21 122t5.5 142.5zM1012 1353q-29 0 -53 10.5t-41 29t-26 44t-9 54.5q0 32 9.5 61t28 51.5t46.5 36t65 13.5h1q33 0 58 -12t42 -31.5t26 -44.5t9 -52q0 -34 -9.5 -63t-29 -50.5t-48.5 -34t-68 -12.5h-1v0z" />
<glyph unicode="&#x1ca;" horiz-adv-x="2412" d="M98 110l167 27v1248l-167 27v110h387l683 -986l99 -185v1034l-181 27v110h503v-110l-169 -28v-1384h-148l-698 1001l-156 267v-1131l185 -27v-110h-505v110zM1883 3q12 42 20 84t12.5 97.5t6.5 130.5t2 182v888l-182 27v110h588v-110l-176 -27v-821v-147.5t-2 -137 t-7 -123.5t-15 -106q-19 -90 -65.5 -161t-108 -123t-131.5 -84.5t-137 -47.5l-55 93q41 14 79 39t70.5 59.5t58.5 79t42 98.5z" />
<glyph unicode="&#x1cb;" horiz-adv-x="2304" d="M98 110l167 27v1248l-167 27v110h387l683 -986l99 -185v1034l-181 27v110h503v-110l-169 -28v-1384h-148l-698 1001l-156 267v-1131l185 -27v-110h-505v110zM1884 951l-140 44l2 128l305 41h5l52 -40v-1102q0 -128 -25.5 -223t-71 -159t-108.5 -98t-138 -40h-24.5 t-35 0.5t-34 2.5t-20.5 5l-11 111q7 -1 20.5 0.5t28.5 5t30 7.5t27 9q43 16 70.5 54.5t43 93t21 122t5.5 142.5zM1960 1353q-29 0 -53 10.5t-41 29t-26 44t-9 54.5q0 32 9.5 61t28 51.5t46.5 36t65 13.5h1q33 0 58 -12t42 -31.5t26 -44.5t9 -52q0 -34 -9.5 -63t-29 -50.5 t-48.5 -34t-68 -12.5h-1v0z" />
<glyph unicode="&#x1cc;" horiz-adv-x="2052" d="M113 110l134 17v832l-140 44v120l286 41h5l49 -40v-78l-2 -43q33 30 81.5 58.5t103.5 51t113 36.5t111 14q99 0 163 -27t100.5 -85t50.5 -147.5t14 -215.5v-561l148 -17v-110h-504v110l132 17v562q0 80 -7 140t-28.5 100t-61.5 60t-105 20q-38 0 -76.5 -7.5t-75 -20 t-71 -30.5t-62.5 -39v-785l141 -17v-110h-499v110zM1632 951l-140 44l2 128l305 41h5l52 -40v-1102q0 -128 -25.5 -223t-71 -159t-108.5 -98t-138 -40h-24.5t-35 0.5t-34 2.5t-20.5 5l-11 111q7 -1 20.5 0.5t28.5 5t30 7.5t27 9q43 16 70.5 54.5t43 93t21 122t5.5 142.5z M1708 1353q-29 0 -53 10.5t-41 29t-26 44t-9 54.5q0 32 9.5 61t28 51.5t46.5 36t65 13.5h1q33 0 58 -12t42 -31.5t26 -44.5t9 -52q0 -34 -9.5 -63t-29 -50.5t-48.5 -34t-68 -12.5h-1v0z" />
<glyph unicode="&#x1f1;" horiz-adv-x="2919" d="M100 110l168 27v1248l-156 27v110h270q89 0 175 7.5t184 7.5q198 0 339.5 -51.5t232 -147t133 -230t42.5 -300.5q0 -188 -57 -341.5t-159.5 -262.5t-245 -166.5t-313.5 -53.5q-37 1 -78.5 3.5t-84 5.5t-84.5 5t-81 2h-285v110zM498 123q54 -16 112.5 -18t126.5 0 q109 3 202 45.5t160.5 124.5t106 204t38.5 284q0 655 -571 655q-67 0 -109.5 -4.5t-65.5 -7.5v-1283zM2435 1281l106 130l-563 -20l-116 -258l-125 16l44 380h983l53 -97l-791 -1184l-117 -127l661 37l117 304l129 -25l-49 -437h-1072l-60 100z" />
<glyph unicode="&#x1f2;" horiz-adv-x="2713" d="M100 110l168 27v1248l-156 27v110h270q89 0 175 7.5t184 7.5q198 0 339.5 -51.5t232 -147t133 -230t42.5 -300.5q0 -188 -57 -341.5t-159.5 -262.5t-245 -166.5t-313.5 -53.5q-37 1 -78.5 3.5t-84 5.5t-84.5 5t-81 2h-285v110zM498 123q54 -16 112.5 -18t126.5 0 q109 3 202 45.5t160.5 124.5t106 204t38.5 284q0 655 -571 655q-67 0 -109.5 -4.5t-65.5 -7.5v-1283zM2231 888l124 127l-442 -15l-37 -187h-143v325h846l42 -92l-579 -800l-126 -124l510 24l74 208l134 -16l-30 -338h-915l-45 94z" />
<glyph unicode="&#x1f3;" horiz-adv-x="2415" d="M532 -23q-89 0 -170 34.5t-142.5 104.5t-98 176t-36.5 250q0 132 40.5 246.5t116.5 199t184.5 132.5t244.5 48q48 0 94.5 -5t88.5 -13v373l-197 19v95l365 43h5l50 -35v-1525h119v-106q-42 -11 -98.5 -24t-119.5 -13q-27 0 -47 3.5t-34 15t-21 32t-7 55.5v44 q-26 -27 -60 -54t-76 -48t-92.5 -34.5t-108.5 -13.5zM625 130q40 0 75 9.5t64 24.5t52 33t38 35v758q-8 12 -26 23.5t-44.5 20.5t-58.5 14t-68 5q-68 0 -127 -25.5t-103 -82t-70.5 -147t-28.5 -220.5q-2 -117 20.5 -201.5t63 -139.5t95.5 -81t118 -26zM1933 888l124 127 l-442 -15l-37 -187h-143v325h846l42 -92l-579 -800l-126 -124l510 24l74 208l134 -16l-30 -338h-915l-45 94z" />
<glyph unicode="&#x1fc;" horiz-adv-x="1880" d="M822 1701l334 313h1l152 -132q-17 -24 -47 -50t-68 -51.5t-80.5 -49.5t-82 -43.5t-74 -34t-56.5 -20.5h-1zM530 1385l-261 27v110h1406l28 -311h-129l-65 184l-475 11v-566l327 7l30 163h134v-460h-134l-30 165l-327 6v-594l557 23l130 246l129 -39l-77 -357h-1132v107 l168 26v298h-513l-120 -296l146 -29v-106h-496v106l146 30zM809 560v837h-120l-103 -249l-238 -588h461z" />
<glyph unicode="&#x1fd;" horiz-adv-x="1745" d="M807 1411l325 402h1l162 -142q-13 -22 -42 -53t-67 -66t-81 -70t-84.5 -64.5t-76.5 -51.5t-57 -29h-2zM84 298q0 72 26.5 128.5t73.5 99t110 72.5t136.5 49t153 28.5t159.5 11.5v64q0 68 -10 114.5t-34.5 75.5t-66 42t-105.5 13q-53 0 -103 -9t-96.5 -23t-88.5 -31.5 t-78 -33.5l-44 97q21 22 70 51t113.5 54t138 42.5t144.5 17.5q129 0 208.5 -32t120.5 -107q71 70 163.5 108t202.5 38q189 0 293 -102.5t113 -303.5q0 -65 -1.5 -113.5t-9.5 -85.5h-692v-6q4 -114 33 -195t75.5 -132.5t106.5 -75t125 -23.5q43 0 87 8t84 21t73.5 30t55.5 34 l42 -98q-29 -29 -73.5 -56t-99 -47.5t-115.5 -33t-122 -12.5q-144 0 -247 55t-166 154q-24 -32 -62 -68.5t-89 -67.5t-116 -52t-143 -21q-67 0 -129.5 18.5t-110.5 57.5t-77 99.5t-29 145.5zM1445 683q1 20 2 42t1 41q0 55 -12 106t-38 90t-68 62.5t-102 23.5 q-50 0 -93.5 -17.5t-76 -59.5t-53 -112t-24.5 -176h464zM326 330q0 -55 14.5 -93t40 -62t60 -34.5t75.5 -10.5q44 0 86.5 14t79.5 35.5t66 47t46 49.5q-26 64 -38.5 138.5t-12.5 158.5v4q-115 0 -194.5 -21t-129 -55.5t-71.5 -78.5t-22 -92z" />
<glyph unicode="&#x237;" horiz-adv-x="667" d="M247 951l-140 44l2 128l305 41h5l52 -40v-1102q0 -128 -25.5 -223t-71 -159t-108.5 -98t-138 -40h-24.5t-35 0.5t-34 2.5t-20.5 5l-11 111q7 -1 20.5 0.5t28.5 5t30 7.5t27 9q43 16 70.5 54.5t43 93t21 122t5.5 142.5z" />
<glyph unicode="&#x259;" horiz-adv-x="1089" d="M82 383q-2 64 2 113t9 85h677v7q-4 114 -32.5 195t-74.5 132.5t-104.5 75t-122.5 23.5q-42 0 -84.5 -8t-81.5 -21.5t-72 -30t-54 -33.5l-41 97q28 29 71.5 56t96.5 48t113 33.5t120 12.5q124 0 218 -44t156.5 -123t94 -189t31.5 -241q0 -133 -39 -242.5t-109 -187.5 t-166 -121t-210 -43q-186 0 -287.5 102.5t-110.5 303.5zM317 384q0 -56 10 -107.5t34.5 -92t65.5 -64.5t103 -24q48 0 89.5 17.5t73.5 59.5t51.5 112t24.5 176h-449q-2 -17 -2.5 -38.5t-0.5 -38.5z" />
<glyph unicode="&#x2c6;" horiz-adv-x="1056" d="M152 1383l281 396h190l273 -395l-92 -57l-276 275l-294 -276z" />
<glyph unicode="&#x2c7;" horiz-adv-x="1022" d="M142 1742l90 57l281 -275l285 276l83 -57l-274 -396h-190z" />
<glyph unicode="&#x2d8;" horiz-adv-x="1022" d="M511 1352q-79 0 -141.5 28.5t-106 76t-66.5 109.5t-23 130q0 14 0.5 29t2.5 26h119q0 -5 0.5 -14.5t2.5 -21.5q4 -24 15.5 -55.5t36 -59t63.5 -46.5t99 -19q59 0 97.5 19t62 46.5t34 59t14.5 55.5q3 24 3 36h115q1 -11 2 -25.5t1 -28.5q0 -68 -23.5 -130.5t-66.5 -110 t-104.5 -76t-136.5 -28.5z" />
<glyph unicode="&#x2d9;" horiz-adv-x="575" d="M278 1353q-29 0 -53 10.5t-41 29t-26 44t-9 54.5q0 32 9.5 61t28 51.5t46.5 36t65 13.5h1q33 0 58 -12t42 -31.5t26 -44.5t9 -52q0 -34 -9.5 -63t-29 -50.5t-48.5 -34t-68 -12.5h-1v0z" />
<glyph unicode="&#x2da;" horiz-adv-x="1020" d="M507 1312q-84 0 -146 22t-102.5 61t-59.5 91t-18 112q1 66 31 116.5t77.5 85t108 52t123.5 17.5h1q78 0 137 -21t99 -58t60 -87.5t20 -109.5q-1 -68 -28 -120.5t-72 -88t-104.5 -54t-125.5 -18.5h-1zM513 1418q91 0 127.5 42.5t36.5 125.5q0 34 -9 66t-28.5 56 t-50.5 38.5t-75 14.5h-1q-45 0 -77.5 -12t-52.5 -33.5t-29.5 -51.5t-9.5 -66q0 -35 10 -67.5t30.5 -57.5t52 -40t75.5 -15h1z" />
<glyph unicode="&#x2dc;" horiz-adv-x="1022" d="M80 1442q9 34 34.5 72t63.5 69.5t87 52.5t106 21q41 0 73.5 -12t59.5 -30.5t49.5 -39.5t45 -39.5t45.5 -30.5t50 -12q34 0 59 14t42 33t27.5 39t16.5 32l103 -63q-15 -41 -38.5 -80t-57 -69t-76.5 -48t-95 -18q-41 0 -73.5 12t-60.5 30.5t-52 40t-48.5 40t-49.5 30.5 t-55 12q-34 0 -59.5 -14t-44 -33.5t-31 -39.5t-19.5 -31z" />
<glyph unicode="&#x2dd;" horiz-adv-x="1022" d="M644 1408l328 402l139 -124q-14 -24 -41.5 -55.5t-63.5 -65.5t-76.5 -67.5t-79.5 -63.5t-74 -53.5t-58 -35.5zM166 1408l321 402l146 -128q-17 -27 -46.5 -59t-66 -65.5t-76.5 -66t-78.5 -61t-71.5 -51t-55 -34.5z" />
<glyph unicode="&#x3c0;" horiz-adv-x="1592" d="M184 109q13 3 50 16.5t80 42.5q44 30 70 65.5t41.5 76.5t23.5 86.5t17 96.5l68 431h-119q-37 0 -62 -11.5t-42.5 -30t-28 -42t-19.5 -46.5l-114 13q-6 73 16.5 133.5t64.5 103.5t100 67t123 24h698q33 0 59.5 1.5t46 9t32 22.5t18.5 42h124q-3 -47 -6.5 -87t-13 -71.5 t-27 -55.5t-48 -40.5t-77.5 -24.5t-114 -8h-36l-19 -626q-1 -39 4.5 -66t15.5 -43.5t23 -24t28 -7.5q21 0 40 4.5t37.5 16.5t36 32.5t35.5 52.5l91 -71q-18 -39 -43 -76t-59.5 -66.5t-80 -47t-102.5 -17.5q-113 0 -164.5 69.5t-39.5 203.5l55 666l-290 1l-44 -494 q-9 -86 -21.5 -144t-31 -100t-44 -73.5t-60.5 -62.5q-32 -29 -73 -41.5t-97 -25.5l-122 126v0z" />
<glyph unicode="&#x1e0b;" horiz-adv-x="1273" d="M534 -23q-89 0 -170 34.5t-142.5 104.5t-98 176t-36.5 250q0 132 40.5 246.5t116.5 199t184.5 132.5t244.5 48q48 0 94.5 -5t88.5 -13v373l-197 19v95l365 43h5l50 -35v-1525h119v-106q-42 -11 -98.5 -24t-119.5 -13q-27 0 -47 3.5t-34 15t-21 32t-7 55.5v44 q-26 -27 -60 -54t-76 -48t-92.5 -34.5t-108.5 -13.5zM627 130q40 0 75 9.5t64 24.5t52 33t38 35v758q-8 12 -26 23.5t-44.5 20.5t-58.5 14t-68 5q-68 0 -127 -25.5t-103 -82t-70.5 -147t-28.5 -220.5q-2 -117 20.5 -201.5t63 -139.5t95.5 -81t118 -26zM339 1353 q-29 0 -53 10.5t-41 29t-26 44t-9 54.5q0 32 9.5 61t28 51.5t46.5 36t65 13.5h1q33 0 58 -12t42 -31.5t26 -44.5t9 -52q0 -34 -9.5 -63t-29 -50.5t-48.5 -34t-68 -12.5h-1v0z" />
<glyph unicode="&#x1e1e;" horiz-adv-x="1270" d="M636 1695q-29 0 -53 10.5t-41 29t-26 44t-9 54.5q0 32 9.5 61t28 51.5t46.5 36t65 13.5h1q33 0 58 -12t42.5 -31.5t26.5 -44.5t9 -52q0 -34 -10 -63t-29.5 -50.5t-48.5 -34t-68 -12.5h-1v0zM107 110l161 27v1248l-173 27v110h1092l20 -345h-150l-65 217l-494 11v-577 l350 3l41 162h126v-464h-126l-41 165l-350 9v-566l291 -27v-110h-682v110z" />
<glyph unicode="&#x1e9e;" horiz-adv-x="1510" d="M49 -13v110l119 26v770q0 137 52 255t143 204.5t214.5 136t265.5 49.5q73 0 134.5 -8.5t114 -23.5t97.5 -34.5t85 -41.5v-96l-249 -387q50 -26 102.5 -54t102 -61t93.5 -71.5t77 -87t52 -108t19 -132.5q0 -98 -33.5 -181.5t-94 -144.5t-145 -95.5t-187.5 -34.5 q-72 0 -132.5 12.5t-108.5 27.5t-83.5 28.5t-56.5 15.5l15 368h133l42 -256q11 -20 32.5 -34t48.5 -24t58 -14.5t61 -4.5q41 0 81.5 13t72.5 46t52 89t20 142q0 54 -22.5 103t-59 91.5t-84 78.5t-96.5 66t-96 52.5t-84 38.5v50l267 451q-12 16 -34.5 34t-57 33t-82.5 25 t-112 10q-76 0 -145.5 -30t-123 -89t-85 -148t-31.5 -207v-958h-351z" />
<glyph unicode="&#x2002;" horiz-adv-x="0" />
<glyph unicode="&#x2009;" horiz-adv-x="0" />
<glyph unicode="&#x200b;" horiz-adv-x="0" />
<glyph unicode="&#x200c;" horiz-adv-x="0" />
<glyph unicode="&#x2013;" horiz-adv-x="1480" d="M230 697h1020v-165h-1020v165z" />
<glyph unicode="&#x2014;" horiz-adv-x="2508" d="M230 697h2048v-163h-2048v163z" />
<glyph unicode="&#x2018;" horiz-adv-x="775" d="M425 891q-43 0 -80 28.5t-64 76t-42.5 109t-15.5 127.5q0 98 26 181.5t64 148t80.5 108t75.5 61.5h2l63 -63v-25q-17 -14 -39 -39t-41.5 -64t-33 -91.5t-13.5 -120.5q0 -44 10 -75t25 -54.5t33 -43t33 -39.5t25 -43.5t10 -55.5q0 -63 -33 -94.5t-84 -31.5h-1v0z" />
<glyph unicode="&#x2019;" horiz-adv-x="775" d="M348.026 1724.05q42.9971 0 79.9951 -28.499q36.9971 -28.498 63.9961 -75.9951q26.998 -47.4971 42.4971 -108.993t15.499 -127.492q0 -97.9941 -25.998 -181.489q-25.999 -83.4941 -63.9961 -147.99q-37.998 -64.4961 -80.4951 -107.994 q-42.498 -43.4971 -75.4961 -61.4961h-2l-62.9961 62.9961v24.999q16.999 13.999 38.998 38.9971q21.999 24.999 41.4971 63.9961q19.499 38.998 32.998 91.4951q13.499 52.4961 13.499 120.492q0 43.9971 -9.99902 74.9951t-24.998 54.4971q-14.999 23.498 -32.998 42.9971 t-32.998 39.498q-14.999 19.998 -24.999 43.4971q-9.99902 23.499 -9.99902 55.4971q0 62.9961 32.998 94.4941t83.9951 31.498h1v0z" />
<glyph unicode="&#x201a;" horiz-adv-x="775" d="M348.026 329.055q42.9971 0 79.9951 -28.499q36.9971 -28.498 63.9961 -75.9951q26.998 -47.4971 42.4971 -108.993t15.499 -127.492q0 -97.9941 -25.998 -181.489q-25.999 -83.4941 -63.9961 -147.99q-37.998 -64.4961 -80.4951 -107.994 q-42.498 -43.4971 -75.4961 -61.4961h-2l-62.9961 62.9961v24.999q16.999 13.999 38.998 38.9971q21.999 24.999 41.4971 63.9961q19.499 38.998 32.998 91.4951q13.499 52.4961 13.499 120.492q0 43.9971 -9.99902 74.9951t-24.998 54.4971q-14.999 23.498 -32.998 42.9971 t-32.998 39.498q-14.999 19.998 -24.999 43.4971q-9.99902 23.499 -9.99902 55.4971q0 62.9961 32.998 94.4941t83.9951 31.498h1v0z" />
<glyph unicode="&#x201b;" horiz-adv-x="775" d="M425 1724.05q-43 0 -80 -28.499q-37 -28.498 -64 -75.9951t-42.5 -108.993t-15.5 -127.492q0 -97.9941 26 -181.489q26 -83.4941 64 -147.99t80.5 -107.994q42.5 -43.4971 75.5 -61.4961h2l63 62.9961v24.999q-17 13.999 -39 38.9971q-22 24.999 -41.5 63.9961 q-19.5 38.998 -33 91.4951q-13.5 52.4961 -13.5 120.492q0 43.9971 10 74.9951t25 54.4971q15 23.498 33 42.9971t33 39.498q15 19.998 25 43.4971t10 55.4971q0 62.9961 -33 94.4941t-84 31.498h-1v0z" />
<glyph unicode="&#x201c;" horiz-adv-x="1301" d="M951 891q-43 0 -80 28.5t-64 76t-42.5 109t-15.5 127.5q0 98 26 181.5t64 148t80.5 108t75.5 61.5h2l63 -63v-25q-17 -14 -39 -39t-41.5 -64t-33 -91.5t-13.5 -120.5q0 -44 10 -75t25 -54.5t33 -43t33 -39.5t25 -43.5t10 -55.5q0 -63 -33 -94.5t-84 -31.5h-1v0zM425 891 q-43 0 -80 28.5t-64 76t-42.5 109t-15.5 127.5q0 98 26 181.5t64 148t80.5 108t75.5 61.5h2l63 -63v-25q-17 -14 -39 -39t-41.5 -64t-33 -91.5t-13.5 -120.5q0 -44 10 -75t25 -54.5t33 -43t33 -39.5t25 -43.5t10 -55.5q0 -63 -33 -94.5t-84 -31.5h-1v0z" />
<glyph unicode="&#x201d;" horiz-adv-x="1300" d="M348.026 1724.05q42.9971 0 79.9951 -28.499q36.9971 -28.498 63.9961 -75.9951q26.998 -47.4971 42.4971 -108.993t15.499 -127.492q0 -97.9941 -25.998 -181.489q-25.999 -83.4941 -63.9961 -147.99q-37.998 -64.4961 -80.4951 -107.994 q-42.498 -43.4971 -75.4961 -61.4961h-2l-62.9961 62.9961v24.999q16.999 13.999 38.998 38.9971q21.999 24.999 41.4971 63.9961q19.499 38.998 32.998 91.4951q13.499 52.4961 13.499 120.492q0 43.9971 -9.99902 74.9951t-24.998 54.4971q-14.999 23.498 -32.998 42.9971 t-32.998 39.498q-14.999 19.998 -24.999 43.4971q-9.99902 23.499 -9.99902 55.4971q0 62.9961 32.998 94.4941t83.9951 31.498h1v0zM874.026 1724.05q42.9971 0 79.9951 -28.499q36.9971 -28.498 63.9961 -75.9951q26.998 -47.4971 42.4971 -108.993t15.499 -127.492 q0 -97.9941 -25.998 -181.489q-25.999 -83.4941 -63.9961 -147.99q-37.998 -64.4961 -80.4951 -107.994q-42.498 -43.4971 -75.4961 -61.4961h-2l-62.9961 62.9961v24.999q16.999 13.999 38.998 38.9971q21.999 24.999 41.4971 63.9961q19.499 38.998 32.998 91.4951 q13.499 52.4961 13.499 120.492q0 43.9971 -9.99902 74.9951t-24.998 54.4971q-14.999 23.498 -32.998 42.9971t-32.998 39.498q-14.999 19.998 -24.999 43.4971q-9.99902 23.499 -9.99902 55.4971q0 62.9961 32.998 94.4941t83.9951 31.498h1v0z" />
<glyph unicode="&#x201e;" horiz-adv-x="1300" d="M348.026 329.055q42.9971 0 79.9951 -28.499q36.9971 -28.498 63.9961 -75.9951q26.998 -47.4971 42.4971 -108.993t15.499 -127.492q0 -97.9941 -25.998 -181.489q-25.999 -83.4941 -63.9961 -147.99q-37.998 -64.4961 -80.4951 -107.994 q-42.498 -43.4971 -75.4961 -61.4961h-2l-62.9961 62.9961v24.999q16.999 13.999 38.998 38.9971q21.999 24.999 41.4971 63.9961q19.499 38.998 32.998 91.4951q13.499 52.4961 13.499 120.492q0 43.9971 -9.99902 74.9951t-24.998 54.4971q-14.999 23.498 -32.998 42.9971 t-32.998 39.498q-14.999 19.998 -24.999 43.4971q-9.99902 23.499 -9.99902 55.4971q0 62.9961 32.998 94.4941t83.9951 31.498h1v0zM874.026 329.055q42.9971 0 79.9951 -28.499q36.9971 -28.498 63.9961 -75.9951q26.998 -47.4971 42.4971 -108.993t15.499 -127.492 q0 -97.9941 -25.998 -181.489q-25.999 -83.4941 -63.9961 -147.99q-37.998 -64.4961 -80.4951 -107.994q-42.498 -43.4971 -75.4961 -61.4961h-2l-62.9961 62.9961v24.999q16.999 13.999 38.998 38.9971q21.999 24.999 41.4971 63.9961q19.499 38.998 32.998 91.4951 q13.499 52.4961 13.499 120.492q0 43.9971 -9.99902 74.9951t-24.998 54.4971q-14.999 23.498 -32.998 42.9971t-32.998 39.498q-14.999 19.998 -24.999 43.4971q-9.99902 23.499 -9.99902 55.4971q0 62.9961 32.998 94.4941t83.9951 31.498h1v0z" />
<glyph unicode="&#x2020;" horiz-adv-x="1072" d="M438 911l23 218l-298 -7l1 166l297 -7l-23 202v168h196v-168l-22 -202l297 7v-166l-297 7l22 -218l-39 -794h-117z" />
<glyph unicode="&#x2022;" horiz-adv-x="844" d="M413 475q-43 0 -79.5 17.5t-63.5 47.5t-42 69.5t-15 83.5q0 47 18 86.5t49 68.5t70.5 45.5t83.5 16.5q42 0 78 -16t62.5 -45t41.5 -69t15 -87q0 -45 -18.5 -85t-48.5 -69.5t-69.5 -46.5t-81.5 -17z" />
<glyph unicode="&#x2026;" horiz-adv-x="2128" d="M199 116q0 35 14.5 64.5t38.5 51.5t54 34t61 12q37 0 64.5 -11t44.5 -30t25.5 -43.5t8.5 -52.5q0 -37 -14 -67t-37 -51t-54 -32.5t-64 -11.5q-28 0 -53.5 9.5t-45 27t-31.5 43t-12 57.5zM908 116q0 35 14.5 64.5t38.5 51.5t54 34t61 12q37 0 64.5 -11t44.5 -30 t25.5 -43.5t8.5 -52.5q0 -37 -14 -67t-37 -51t-54 -32.5t-64 -11.5q-28 0 -53.5 9.5t-45 27t-31.5 43t-12 57.5zM1617 116q0 35 14.5 64.5t38.5 51.5t54 34t61 12q37 0 64.5 -11t44.5 -30t25.5 -43.5t8.5 -52.5q0 -37 -14 -67t-37 -51t-54 -32.5t-64 -11.5q-28 0 -53.5 9.5 t-45 27t-31.5 43t-12 57.5z" />
<glyph unicode="&#x2030;" horiz-adv-x="2993" d="M2113 459q0 103 33 183.5t87.5 135.5t126.5 83.5t150 28.5q94 0 162.5 -32.5t113 -89.5t66 -133.5t21.5 -163.5q0 -103 -33.5 -182.5t-88.5 -134t-127 -82.5t-148 -28q-84 0 -151 33t-114 90t-72.5 132.5t-25.5 159.5zM2320 470q0 -62 10 -117.5t31 -98.5t53 -68t76 -25 q46 0 79.5 22.5t55.5 62.5t32.5 95t10.5 120q0 66 -10.5 123t-32 99t-54 66t-75.5 24q-46 0 -79 -23t-54.5 -63.5t-32 -96t-10.5 -120.5zM1286 1538h170l-656 -1538h-170zM471 659q-83 0 -150 33t-114 90t-72.5 132.5t-25.5 159.5q0 103 33 183.5t87.5 135.5t126.5 83.5 t150 28.5q94 0 162.5 -32.5t113 -89.5t66 -133.5t21.5 -163.5q0 -104 -33.5 -183.5t-89 -133.5t-127 -82t-148.5 -28zM486 779q46 0 79.5 22t55.5 62t32.5 94t10.5 119t-10.5 121.5t-32 98t-54 65t-75.5 23.5q-46 0 -79 -22.5t-54.5 -62.5t-32 -95t-10.5 -119 q0 -61 10 -116.5t31 -97.5t53 -67t76 -25zM1217 459q0 103 33 183.5t87.5 135.5t126.5 83.5t150 28.5q94 0 162.5 -32.5t113 -89.5t66 -133.5t21.5 -163.5q0 -103 -33.5 -182.5t-89 -134t-127.5 -82.5t-148 -28q-84 0 -151 33t-114 90t-72 132.5t-25 159.5zM1423 470 q0 -61 10.5 -116.5t31.5 -97.5t53 -67t75 -25q46 0 80 22t56 62t32.5 94t10.5 119t-10.5 121.5t-32 98t-54 65.5t-76.5 24q-45 0 -78.5 -22.5t-55 -63t-32 -95.5t-10.5 -119z" />
<glyph unicode="&#x2032;" horiz-adv-x="686" d="M202 1146l87 647h249l-185 -647h-151z" />
<glyph unicode="&#x2033;" horiz-adv-x="1134" d="M202 1146l87 647h249l-185 -647h-151zM649 1146l87 647h249l-185 -647h-151z" />
<glyph unicode="&#x2039;" horiz-adv-x="1189" d="M240 693l650 430l65 -112l-456 -397l462 -386l-71 -115l-650 415v165z" />
<glyph unicode="&#x203a;" horiz-adv-x="1189" d="M949.015 693l-649.96 430l-64.9961 -112l455.972 -397l-461.972 -386l70.9961 -115l649.96 415v165z" />
<glyph unicode="&#x2044;" horiz-adv-x="377" d="M-264 -131l749 1811l151 -31l-747 -1806z" />
<glyph unicode="&#x2070;" d="M507 687q-119 0 -201.5 44t-133.5 115.5t-73.5 163.5t-21.5 188q1 120 38 216t98.5 164t143 104.5t171.5 36.5q122 0 203.5 -42t131 -114t69.5 -168t19 -203q0 -108 -34.5 -200.5t-94 -160t-140.5 -106t-175 -38.5zM514 793q69 0 113 25.5t69.5 75t35 123t9.5 169.5 q0 92 -11 171t-37 137.5t-69 91.5t-108 33q-68 0 -112 -27t-70 -79.5t-36.5 -130t-10.5 -177.5q0 -81 11.5 -155.5t38 -131.5t70 -91t107.5 -34z" />
<glyph unicode="&#x2074;" d="M65 969q2 4 22.5 38.5t52.5 88t72 121t82.5 138t83 139t73 124t54 92.5t25.5 45h65l122 -83l-396 -589l-61 -94l356 24l4 236l181 18v-241l172 12l2 -157h-174v-204h-185v204h-498z" />
<glyph unicode="&#x2075;" d="M213 796q25 -7 59.5 -9t58.5 -2q72 0 135.5 17t110 48t73.5 75.5t27 99.5q0 91 -55 137.5t-160 46.5q-38 0 -72 -5t-62 -11.5t-48.5 -13.5t-30.5 -10l-75 53l50 487h623l-7 -142h-482l-34 -281q12 6 38 13t59 14t69 11.5t69 4.5q89 0 151.5 -20.5t102 -58t57.5 -90 t18 -117.5q0 -74 -38 -139.5t-106.5 -115t-163 -78.5t-208.5 -29q-43 0 -90.5 3.5t-90.5 15.5z" />
<glyph unicode="&#x2076;" d="M513 687q-92 0 -164.5 34t-122.5 92t-76.5 134t-26.5 159q0 94 23.5 180t64.5 161.5t97.5 138.5t122.5 111t139 79.5t148 44.5l52 -77q-94 -29 -164.5 -74.5t-121.5 -102.5t-84.5 -121t-51.5 -129q36 38 99 64.5t145 26.5q78 0 137 -26t99 -71.5t60 -109t20 -138.5 t-25.5 -143t-75.5 -119.5t-124 -82.5t-170 -31zM528 788q53 0 87.5 20.5t55 54.5t28.5 77t8 87q0 72 -15 121.5t-40.5 80.5t-58 44.5t-67.5 13.5q-78 0 -127.5 -27t-73.5 -65q-3 -21 -3 -42q-2 -67 7 -132.5t33 -117t64.5 -83.5t101.5 -32z" />
<glyph unicode="&#x2077;" d="M349 709q61 119 109.5 222.5t93.5 205t90 207t101 227.5h-422l-51 -195l-135 11l35 322h714l37 -45l-368 -1010l-204 55v0z" />
<glyph unicode="&#x2078;" d="M529 687q-73 0 -148.5 16t-137 51.5t-100.5 90.5t-39 133q0 63 45 127t146 111q-31 19 -57 42t-45 51.5t-30 62.5t-11 75q0 69 29.5 120.5t79.5 86t116 52t139 17.5q83 0 150 -18t113.5 -50.5t71.5 -76.5t25 -96q0 -64 -42.5 -129t-125.5 -116q44 -20 83 -44t69 -54 t47.5 -67t18.5 -83q1 -69 -30 -124.5t-85.5 -95t-127.5 -61t-154 -21.5zM603 1281q25 16 44 37t32 43.5t19.5 45t6.5 42.5q0 43 -15 76t-41 55.5t-62 34t-78 11.5q-39 0 -72 -10.5t-57 -29t-37.5 -45t-13.5 -58.5q0 -38 23 -66.5t61 -51.5t87.5 -43t102.5 -41zM527 783 q36 0 70.5 12t61.5 33t43.5 49.5t16.5 61.5q0 29 -14 53t-38 43.5t-56.5 36t-69.5 32t-77 31t-79 33.5q-43 -26 -67.5 -69.5t-24.5 -89.5q0 -48 15 -89.5t45 -72t73.5 -47.5t100.5 -17z" />
<glyph unicode="&#x2079;" d="M283 700q90 27 157 69t115 93t78.5 109.5t47.5 118.5q-32 -39 -87.5 -63t-134.5 -24q-72 0 -133 27t-106 75t-70 114t-25 144q0 76 29.5 141.5t82 114t125.5 76.5t160 28q90 0 160.5 -35.5t119.5 -95t75 -137t26 -161.5q0 -141 -47 -256.5t-125.5 -201t-181 -140 t-214.5 -73.5zM515 1123q73 0 117 25t70 67q1 14 1.5 26.5t0.5 26.5q0 79 -12 144t-37.5 111t-64.5 71.5t-93 25.5q-44 0 -77 -16.5t-55 -46t-33.5 -70.5t-11.5 -90q0 -79 17.5 -132t45.5 -84.5t62.5 -44.5t69.5 -13z" />
<glyph unicode="&#x2080;" horiz-adv-x="1071" d="M507 -201q-119 0 -201.5 44t-133.5 115.5t-73.5 163.5t-21.5 188q1 120 38 216t98.5 164t143 104.5t171.5 36.5q122 0 203.5 -42t131 -114t69.5 -168t19 -203q0 -108 -34.5 -200.5t-94 -160t-140.5 -106t-175 -38.5zM514 -95q69 0 113 25.5t69.5 75t35 123t9.5 169.5 q0 92 -11 171t-37 137.5t-69 91.5t-108 33q-68 0 -112 -27t-70 -79.5t-36.5 -130t-10.5 -177.5q0 -81 11.5 -155.5t38 -131.5t70 -91t107.5 -34z" />
<glyph unicode="&#x2081;" horiz-adv-x="1071" d="M200 -101l250 24v662q-30 -11 -63.5 -20t-66 -16t-63 -12.5t-55.5 -9.5l-28 117q41 12 89 27t97.5 35t98.5 46t92 59h3l85 -17v-871l215 -24v-107h-654v107z" />
<glyph unicode="&#x2082;" horiz-adv-x="1071" d="M119 -106q38 24 90.5 61.5t109.5 85.5t112.5 103.5t99.5 115t71.5 120t27.5 118.5q0 36 -11.5 67t-34.5 53t-57.5 34.5t-80.5 12.5q-42 0 -82 -9.5t-74 -24.5t-61 -34t-44 -37l-69 80q18 26 54.5 56t86 55.5t109 42.5t124.5 17q86 0 149 -22.5t104.5 -61t62 -89 t20.5 -105.5q0 -48 -20.5 -101.5t-56.5 -108.5t-85 -110.5t-105.5 -108t-118 -100.5t-123.5 -88l405 33l82 138l108 -21l-51 -274h-701z" />
<glyph unicode="&#x2083;" horiz-adv-x="1071" d="M146 -60q53 -20 116.5 -33.5t120.5 -13.5q153 0 229 47.5t76 149.5q0 34 -16.5 65t-46.5 54t-72 36.5t-93 11.5l-116 -43l-33 110q26 5 66 19t80 34q30 15 56.5 33t46 39.5t31 46.5t11.5 54t-7 52.5t-25.5 40t-51 25.5t-84.5 9q-33 0 -66.5 -7t-64.5 -20t-58.5 -30 t-49.5 -37l-61 96q24 24 60.5 48t81.5 43t97.5 30.5t109.5 11.5q73 0 132 -16t100.5 -45t64 -69.5t22.5 -89.5q0 -38 -10 -75.5t-36 -73t-71.5 -67.5t-115.5 -58q90 6 152 -15t100 -56t55 -79t17 -83q0 -66 -31.5 -124t-91.5 -100.5t-147.5 -67t-198.5 -24.5q-30 0 -65 3.5 t-71.5 11t-73 18t-68.5 25.5v113z" />
<glyph unicode="&#x2084;" horiz-adv-x="1071" d="M49 58q2 4 22.5 38.5t52.5 88t72 121t82.5 138t83 139t73 124t54 92.5t25.5 45h65l122 -83l-396 -589l-61 -94l356 24l4 236l181 18v-241l172 12l2 -157h-174v-204h-185v204h-498z" />
<glyph unicode="&#x2085;" horiz-adv-x="1071" d="M213 -115q25 -7 59.5 -9t58.5 -2q72 0 135.5 17t110 48t73.5 75.5t27 99.5q0 91 -55 137.5t-160 46.5q-38 0 -72 -5t-62 -11.5t-48.5 -13.5t-30.5 -10l-75 53l50 487h623l-7 -142h-482l-34 -281q12 6 38 13t59 14t69 11.5t69 4.5q89 0 151.5 -20.5t102 -58t57.5 -90 t18 -117.5q0 -74 -38 -139.5t-106.5 -115t-163 -78.5t-208.5 -29q-43 0 -90.5 3.5t-90.5 15.5z" />
<glyph unicode="&#x2086;" horiz-adv-x="1071" d="M513 -224q-92 0 -164.5 34t-122.5 92t-76.5 134t-26.5 159q0 94 23.5 180t64.5 161.5t97.5 138.5t122.5 111t139 79.5t148 44.5l52 -77q-94 -29 -164.5 -74.5t-121.5 -102.5t-84.5 -121t-51.5 -129q36 38 99 64.5t145 26.5q78 0 137 -26t99 -71.5t60 -109t20 -138.5 t-25.5 -143t-75.5 -119.5t-124 -82.5t-170 -31zM528 -123q53 0 87.5 20.5t55 54.5t28.5 77t8 87q0 72 -15 121.5t-40.5 80.5t-58 44.5t-67.5 13.5q-78 0 -127.5 -27t-73.5 -65q-3 -21 -3 -42q-2 -67 7 -132.5t33 -117t64.5 -83.5t101.5 -32z" />
<glyph unicode="&#x2087;" horiz-adv-x="1071" d="M349 -200q61 119 109.5 222.5t93.5 205t90 207t101 227.5h-422l-51 -195l-135 11l35 322h714l37 -45l-368 -1010l-204 55v0z" />
<glyph unicode="&#x2088;" horiz-adv-x="1071" d="M529 -224q-73 0 -148.5 16t-137 51.5t-100.5 90.5t-39 133q0 63 45 127t146 111q-31 19 -57 42t-45 51.5t-30 62.5t-11 75q0 69 29.5 120.5t79.5 86t116 52t139 17.5q83 0 150 -18t113.5 -50.5t71.5 -76.5t25 -96q0 -64 -42.5 -129t-125.5 -116q44 -20 83 -44t69 -54 t47.5 -67t18.5 -83q1 -69 -30 -124.5t-85.5 -95t-127.5 -61t-154 -21.5zM603 370q25 16 44 37t32 43.5t19.5 45t6.5 42.5q0 43 -15 76t-41 55.5t-62 34t-78 11.5q-39 0 -72 -10.5t-57 -29t-37.5 -45t-13.5 -58.5q0 -38 23 -66.5t61 -51.5t87.5 -43t102.5 -41zM527 -128 q36 0 70.5 12t61.5 33t43.5 49.5t16.5 61.5q0 29 -14 53t-38 43.5t-56.5 36t-69.5 32t-77 31t-79 33.5q-43 -26 -67.5 -69.5t-24.5 -89.5q0 -48 15 -89.5t45 -72t73.5 -47.5t100.5 -17z" />
<glyph unicode="&#x2089;" horiz-adv-x="1071" d="M298 -214q90 27 157 69t115 93t78.5 109.5t47.5 118.5q-32 -39 -87.5 -63t-134.5 -24q-72 0 -133 27t-106 75t-70 114t-25 144q0 76 29.5 141.5t82 114t125.5 76.5t160 28q90 0 160.5 -35.5t119.5 -95t75 -137t26 -161.5q0 -141 -47 -256.5t-125.5 -201t-181 -140 t-214.5 -73.5zM530 209q73 0 117 25t70 67q1 14 1.5 26.5t0.5 26.5q0 79 -12 144t-37.5 111t-64.5 71.5t-93 25.5q-44 0 -77 -16.5t-55 -46t-33.5 -70.5t-11.5 -90q0 -79 17.5 -132t45.5 -84.5t62.5 -44.5t69.5 -13z" />
<glyph unicode="&#x20a1;" horiz-adv-x="1530" d="M579 15q-95 37 -166.5 103.5t-119.5 158t-72 205t-24 244.5q0 153 34 283t97 232t152.5 174.5t199.5 110.5l19 289h114l-17 -259q32 5 65.5 8t68.5 3q11 0 22.5 -0.5t22.5 -0.5l17 249h113l-17 -261q82 -14 143 -34t106 -28l-18 -289h-121l-45 167q-25 26 -75 43 l-87 -1315q91 23 159 84l75 132l113 -26l-27 -221q-26 -1 -57.5 -11t-71 -23t-88.5 -26.5t-111 -22.5l-22 -338h-113l21 327q-11 -1 -21 -1h-21q-72 0 -136 12l-22 -338h-114zM700 117q76 -33 177 -33l90 1354q-22 2 -43.5 3.5t-44.5 1.5q-24 0 -46.5 -2.5t-44.5 -7.5z M670 1384q-115 -74 -179.5 -231t-64.5 -386q0 -92 9 -176.5t28.5 -158t51 -134.5t76.5 -106z" />
<glyph unicode="&#x20a4;" horiz-adv-x="1494" d="M129 94q0 32 18 63.5t51.5 55.5t81 37.5t105.5 8.5q10 20 16.5 56t10.5 78t6 85.5t2 77.5v41h-211v116h211v187h-189v116h189v6q0 114 41.5 208.5t111.5 163t162.5 106.5t194.5 38q94 0 177 -24.5t141 -73.5l-116 -174q-7 13 -30.5 35.5t-59.5 44.5t-82.5 38t-100.5 16 q-34 0 -70.5 -9.5t-67 -41.5t-50 -95t-19.5 -169v-69h313v-116h-313v-187h291v-116h-291v-2q0 -107 -33.5 -197t-91.5 -160q54 -5 115.5 -20.5t126 -31.5t128.5 -28.5t123 -12.5q58 0 92.5 11.5t53.5 34t25 55t6 75.5q0 29 -5.5 58t-13.5 53.5t-18 43.5t-20 29h238 q14 -17 26.5 -52.5t12.5 -98.5q0 -64 -28.5 -129.5t-81 -119t-126 -87t-162.5 -33.5q-92 0 -169 22.5t-146 50t-132.5 51t-126.5 24.5q-21 -27 -45 -51.5t-50 -42.5t-54.5 -29t-58.5 -11q-16 0 -35 4.5t-35 16t-27 29.5t-11 45z" />
<glyph unicode="&#x20ac;" horiz-adv-x="1551" d="M112 651h203q-2 18 -2 36.5v38.5q0 47 3 91t8 86h-192v123h216q33 127 93 227t144.5 170t190.5 107t230 37q71 0 130 -9.5t108 -22t88 -25t70 -18.5l-18 -289h-120l-45 167q-15 17 -42.5 30.5t-62 23t-75.5 14.5t-83 5q-78 0 -141 -28t-112 -81t-82.5 -130.5 t-51.5 -177.5h544v-123h-559q-3 -32 -4 -65t-1 -68q0 -62 3 -119h532v-123h-520q14 -98 43 -180t77.5 -140.5t118.5 -91t167 -32.5q75 0 133.5 24.5t111.5 73.5l75 132l113 -26l-25 -221q-33 -2 -71.5 -17t-92 -32t-125 -31.5t-169.5 -14.5q-128 0 -229.5 39t-175.5 111.5 t-121 175.5t-67 230h-215v123z" />
<glyph unicode="&#x20b2;" horiz-adv-x="1537" d="M724 -19q-149 14 -266 77.5t-197.5 164.5t-123 234.5t-42.5 286.5q0 174 54 313.5t147 241t218.5 161.5t268.5 74v228h165v-226q67 -4 128 -12t112 -17t90 -18t62 -15l-18 -349h-136l-58 227q-11 10 -30.5 21.5t-52.5 21.5t-82 16.5t-118 6.5q-107 0 -197 -38.5 t-156 -115.5t-103 -193.5t-37 -272.5q0 -87 12.5 -172.5t38 -163t64.5 -144.5t91.5 -115.5t118.5 -76.5t147 -28q43 0 87.5 4t85.5 14t76.5 26t59.5 40v429l-226 23v135h553v-135l-99 -22v-530q-37 -2 -83.5 -15.5t-104.5 -30.5t-128.5 -33t-155.5 -22l-2 -239h-165l2 239v0 z" />
<glyph unicode="&#x20b5;" horiz-adv-x="1534" d="M739 -21q-134 16 -233 77t-164.5 159t-97.5 228t-32 284q0 180 43.5 326.5t124.5 253.5t195.5 171t257.5 79l16 258h121l-15 -254q60 -2 113.5 -10.5t99.5 -19.5t83 -21.5t64 -17.5l-18 -286h-124l-45 161q-23 24 -70.5 42t-110.5 26l-80 -1348h11q78 0 137 25.5 t112 72.5l68 128l120 -18l-26 -228q-33 -2 -70 -16t-86 -30.5t-115 -31t-158 -16.5l-19 -327h-122zM826 1438q-92 -9 -161.5 -58t-116.5 -134.5t-71 -205.5t-24 -271q0 -120 13.5 -228.5t47 -196t90 -149.5t142.5 -89z" />
<glyph unicode="&#x2105;" horiz-adv-x="2085" d="M1280 1538h170l-656 -1538h-170zM516 658q-88 0 -158 31t-119 85.5t-75 129t-26 162.5q0 86 28 165.5t82 140t132.5 97t179.5 36.5q37 0 71 -4.5t63.5 -11.5t53 -14t38.5 -12l-3 -240h-117l-30 105q-17 23 -44.5 36.5t-68.5 13.5q-37 0 -70.5 -17t-59 -49.5t-40.5 -80 t-16 -108.5q-1 -86 16.5 -148t47.5 -102t68.5 -58.5t79.5 -18.5q36 0 64.5 6t52.5 16t43 21.5t35 23.5l53 -98q-22 -21 -53 -40t-68 -34t-77.5 -24t-82.5 -9zM1217 459q0 103 33 183.5t87.5 135.5t126.5 83.5t150 28.5q94 0 162.5 -32.5t113 -89.5t66 -133.5t21.5 -163.5 q0 -103 -33.5 -182.5t-89 -134t-127.5 -82.5t-148 -28q-84 0 -151 33t-114 90t-72 132.5t-25 159.5zM1423 470q0 -61 10.5 -116.5t31.5 -97.5t53 -67t75 -25q46 0 80 22t56 62t32.5 94t10.5 119t-10.5 121.5t-32 98t-54 65.5t-76.5 24q-45 0 -78.5 -22.5t-55 -63t-32 -95.5 t-10.5 -119z" />
<glyph unicode="&#x2113;" horiz-adv-x="1344" d="M71 160q174 101 308 207q-5 35 -7.5 73t-2.5 79q0 142 22 282t62 267t96 235t124 187t145.5 124t161.5 45q101 0 158 -69.5t57 -191.5q0 -98 -21.5 -196.5t-60.5 -196.5t-95 -194.5t-124 -189t-147.5 -180t-166.5 -168.5q17 -40 39.5 -63t45.5 -35t45.5 -15.5t39.5 -3.5 q43 0 84 22t77 63t65.5 98.5t48.5 128.5l109 -26q-9 -47 -23.5 -99.5t-36.5 -104.5t-53.5 -99t-75 -83t-100 -57.5t-129.5 -21.5q-91 0 -160.5 46t-114.5 134q-45 -35 -90.5 -67.5t-93.5 -62.5zM550 517q111 115 192.5 235t134 237t78 227.5t25.5 205.5q0 54 -17 82t-42 28 q-49 0 -95 -47t-86.5 -126t-74 -182.5t-58 -216t-39.5 -227.5t-18 -216z" />
<glyph unicode="&#x2116;" horiz-adv-x="2743" d="M1609 1056q1 118 41 209.5t105.5 153.5t150 94.5t173.5 32.5q107 0 188.5 -37t136.5 -102.5t83 -155t27 -194.5q-1 -118 -38.5 -213t-101 -161.5t-147 -102.5t-176.5 -36q-115 0 -198.5 40.5t-138 110t-80.5 162.5t-25 199zM169 107l164 27v1254l-164 28v106h391 l564 -1018l99 -243l-1 1126l-173 29v106h490v-106l-166 -28v-1388h-204l-562 996l-122 265v-1126l178 -28v-107h-494v107zM1827 1066q0 -88 14 -160.5t43.5 -125t74 -82t104.5 -30.5q64 -1 108.5 20.5t72 67.5t40 117t12.5 169q0 87 -13.5 156.5t-42 119t-72 76t-103.5 28.5 q-126 2 -182 -87t-56 -269zM1617 340h888v-141h-888v141z" />
<glyph unicode="&#x2120;" horiz-adv-x="2245" d="M226 990h129l29 -99q7 -10 22.5 -17.5t35.5 -13t43 -8t46 -2.5q44 0 72 10t43.5 26.5t21.5 38.5t6 45q0 27 -12 45.5t-36.5 33.5t-62 28.5t-89.5 30.5q-56 17 -99.5 38.5t-74.5 51.5t-47 70.5t-16 96.5q0 45 23 83t64 65.5t97 42.5t121 15q50 0 93.5 -5t77.5 -12 t58 -14.5t35 -11.5v-162h-117l-36 87q-5 9 -17.5 14.5t-29 9.5t-35.5 5.5t-37 1.5q-60 0 -90 -21.5t-30 -55.5q0 -33 12 -57t34.5 -42t55.5 -32t75 -27q51 -17 98.5 -36t85 -45t60 -63.5t22.5 -92.5q0 -54 -23.5 -100t-67 -79.5t-106 -53t-139.5 -19.5q-37 0 -77 4.5 t-79.5 12t-75 17t-63.5 19.5v177zM950 860l108 15l41 586l-104 9v88h378l136 -427l45 -149l194 576h328v-88l-97 -9l53 -585l100 -16v-80h-369v80l91 15l-23 369l-9 219l-20 -66l-220 -626h-115l-205 549l-56 148l-4 -155l-27 -438l93 -15v-80h-318v80z" />
<glyph unicode="&#x2122;" horiz-adv-x="2257" d="M961 860l109 15l41 586l-105 9v88h378l137 -427l45 -150l193 577h328v-88l-96 -9l52 -585l100 -16v-80h-368v80l90 15l-22 369l-9 219l-20 -66l-220 -626h-116l-204 549l-57 149l-4 -156l-26 -438l93 -15v-80h-319v80zM298 860l121 15v584l-158 -9l-43 -137l-70 -1 l20 246h694v-244l-66 -5l-27 142l-166 10v-585l130 -16v-80h-435v80z" />
<glyph unicode="&#x2126;" horiz-adv-x="1933" d="M125 400h137l65 -225l353 -17q-44 25 -91 67t-92 97.5t-85.5 122t-70.5 139.5t-47.5 150t-15.5 154q2 117 30 211.5t76 167.5t113 126t141.5 87t162 50t173.5 16q154 0 278 -42t211 -124t132.5 -202.5t42.5 -276.5q-2 -69 -17.5 -141t-42 -143.5t-62.5 -139.5 t-77.5 -127.5t-87.5 -108t-92 -81.5l343 16l71 224h138l-56 -400h-668v144q75 46 136 120.5t104.5 169.5t67.5 206t24 229q0 130 -32.5 229t-91.5 165.5t-141 100t-182 33.5q-113 0 -201.5 -33.5t-150 -102.5t-94 -175t-32.5 -250q0 -119 34 -229.5t86.5 -202t115.5 -159 t122 -101.5v-144h-685z" />
<glyph unicode="&#x212e;" horiz-adv-x="1393" d="M420 258q60 -75 145 -111.5t185 -36.5q56 0 112.5 7.5t106.5 19.5t90.5 28t65.5 33l54 -107q-32 -23 -83 -43.5t-111 -35.5t-123.5 -23.5t-121.5 -8.5q-137 0 -252.5 51.5t-199 143t-130.5 218.5t-47 278q0 148 40.5 273t120.5 216.5t200 144t279 55.5q110 2 205 -33.5 t166 -104t113.5 -167t46.5 -222.5q0 -66 -1.5 -117.5t-9.5 -89.5h-851v-368zM992 759v388q-38 44 -99 69.5t-153 25.5q-110 0 -189 -31t-131 -107v-345h572z" />
<glyph unicode="&#x2153;" horiz-adv-x="2433" d="M1549 113q53 -20 116.5 -33.5t120.5 -13.5q153 0 229 47.5t76 149.5q0 34 -16.5 65t-46.5 54t-72 36.5t-93 11.5l-116 -43l-33 110q26 5 66 19t80 34q30 15 56.5 33t46 39.5t31 46.5t11.5 54t-7 52.5t-25.5 40t-51 25.5t-84.5 9q-33 0 -66.5 -7t-64.5 -20t-58.5 -30 t-49.5 -37l-61 96q24 24 60.5 48t81.5 43t97.5 30.5t109.5 11.5q73 0 132 -16t100.5 -45t64 -69.5t22.5 -89.5q0 -38 -10 -75.5t-36 -73t-71.5 -67.5t-115.5 -58q90 6 152 -15t100 -56t55 -79t17 -83q0 -66 -31.5 -124t-91.5 -100.5t-147.5 -67t-198.5 -24.5q-30 0 -65 3.5 t-71.5 11t-73 18t-68.5 25.5v113zM200 636l250 24v662q-30 -11 -63.5 -20t-66 -16t-63 -12.5t-55.5 -9.5l-28 117q41 12 89 27t97.5 35t98.5 46t92 59h3l85 -17v-871l215 -24v-107h-654v107zM764 -131l749 1811l151 -31l-747 -1806z" />
<glyph unicode="&#x2154;" horiz-adv-x="2433" d="M1549 113q53 -20 116.5 -33.5t120.5 -13.5q153 0 229 47.5t76 149.5q0 34 -16.5 65t-46.5 54t-72 36.5t-93 11.5l-116 -43l-33 110q26 5 66 19t80 34q30 15 56.5 33t46 39.5t31 46.5t11.5 54t-7 52.5t-25.5 40t-51 25.5t-84.5 9q-33 0 -66.5 -7t-64.5 -20t-58.5 -30 t-49.5 -37l-61 96q24 24 60.5 48t81.5 43t97.5 30.5t109.5 11.5q73 0 132 -16t100.5 -45t64 -69.5t22.5 -89.5q0 -38 -10 -75.5t-36 -73t-71.5 -67.5t-115.5 -58q90 6 152 -15t100 -56t55 -79t17 -83q0 -66 -31.5 -124t-91.5 -100.5t-147.5 -67t-198.5 -24.5q-30 0 -65 3.5 t-71.5 11t-73 18t-68.5 25.5v113zM155 631q38 24 90.5 61.5t109.5 85.5t112.5 103.5t99.5 115t71.5 120t27.5 118.5q0 36 -11.5 67t-34.5 53t-57.5 34.5t-80.5 12.5q-42 0 -82 -9.5t-74 -24.5t-61 -34t-44 -37l-69 80q18 26 54.5 56t86 55.5t109 42.5t124.5 17 q86 0 149 -22.5t104.5 -61t62 -89t20.5 -105.5q0 -48 -20.5 -101.5t-56.5 -108.5t-85 -110.5t-105.5 -108t-118 -100.5t-123.5 -88l405 33l82 138l108 -21l-51 -274h-701zM764 -131l749 1811l151 -31l-747 -1806z" />
<glyph unicode="&#x215b;" horiz-adv-x="2433" d="M200 636l250 24v662q-30 -11 -63.5 -20t-66 -16t-63 -12.5t-55.5 -9.5l-28 117q41 12 89 27t97.5 35t98.5 46t92 59h3l85 -17v-871l215 -24v-107h-654v107zM1933 -16q-73 0 -148.5 16t-137 51.5t-100.5 90.5t-39 133q0 63 45 127t146 111q-31 19 -57 42t-45 51.5 t-30 62.5t-11 75q0 69 29.5 120.5t79.5 86t116 52t139 17.5q83 0 150 -18t113.5 -50.5t71.5 -76.5t25 -96q0 -64 -42.5 -129t-125.5 -116q44 -20 83 -44t69 -54t47.5 -67t18.5 -83q1 -69 -30 -124.5t-85.5 -95t-127.5 -61t-154 -21.5zM2007 578q25 16 44 37t32 43.5t19.5 45 t6.5 42.5q0 43 -15 76t-41 55.5t-62 34t-78 11.5q-39 0 -72 -10.5t-57 -29t-37.5 -45t-13.5 -58.5q0 -38 23 -66.5t61 -51.5t87.5 -43t102.5 -41zM1931 80q36 0 70.5 12t61.5 33t43.5 49.5t16.5 61.5q0 29 -14 53t-38 43.5t-56.5 36t-69.5 32t-77 31t-79 33.5 q-43 -26 -67.5 -69.5t-24.5 -89.5q0 -48 15 -89.5t45 -72t73.5 -47.5t100.5 -17zM764 -131l749 1811l151 -31l-747 -1806z" />
<glyph unicode="&#x215c;" horiz-adv-x="2433" d="M159 677q53 -20 116.5 -33.5t120.5 -13.5q153 0 229 47.5t76 149.5q0 34 -16.5 65t-46.5 54t-72 36.5t-93 11.5l-116 -43l-33 110q26 5 66 19t80 34q30 15 56.5 33t46 39.5t31 46.5t11.5 54t-7 52.5t-25.5 40t-51 25.5t-84.5 9q-33 0 -66.5 -7t-64.5 -20t-58.5 -30 t-49.5 -37l-61 96q24 24 60.5 48t81.5 43t97.5 30.5t109.5 11.5q73 0 132 -16t100.5 -45t64 -69.5t22.5 -89.5q0 -38 -10 -75.5t-36 -73t-71.5 -67.5t-115.5 -58q90 6 152 -15t100 -56t55 -79t17 -83q0 -66 -31.5 -124t-91.5 -100.5t-147.5 -67t-198.5 -24.5q-30 0 -65 3.5 t-71.5 11t-73 18t-68.5 25.5v113zM1933 -16q-73 0 -148.5 16t-137 51.5t-100.5 90.5t-39 133q0 63 45 127t146 111q-31 19 -57 42t-45 51.5t-30 62.5t-11 75q0 69 29.5 120.5t79.5 86t116 52t139 17.5q83 0 150 -18t113.5 -50.5t71.5 -76.5t25 -96q0 -64 -42.5 -129 t-125.5 -116q44 -20 83 -44t69 -54t47.5 -67t18.5 -83q1 -69 -30 -124.5t-85.5 -95t-127.5 -61t-154 -21.5zM2007 578q25 16 44 37t32 43.5t19.5 45t6.5 42.5q0 43 -15 76t-41 55.5t-62 34t-78 11.5q-39 0 -72 -10.5t-57 -29t-37.5 -45t-13.5 -58.5q0 -38 23 -66.5t61 -51.5 t87.5 -43t102.5 -41zM1931 80q36 0 70.5 12t61.5 33t43.5 49.5t16.5 61.5q0 29 -14 53t-38 43.5t-56.5 36t-69.5 32t-77 31t-79 33.5q-43 -26 -67.5 -69.5t-24.5 -89.5q0 -48 15 -89.5t45 -72t73.5 -47.5t100.5 -17zM764 -131l749 1811l151 -31l-747 -1806z" />
<glyph unicode="&#x215d;" horiz-adv-x="2433" d="M224 622q25 -7 59.5 -9t58.5 -2q72 0 135.5 17t110 48t73.5 75.5t27 99.5q0 91 -55 137.5t-160 46.5q-38 0 -72 -5t-62 -11.5t-48.5 -13.5t-30.5 -10l-75 53l50 487h623l-7 -142h-482l-34 -281q12 6 38 13t59 14t69 11.5t69 4.5q89 0 151.5 -20.5t102 -58t57.5 -90 t18 -117.5q0 -74 -38 -139.5t-106.5 -115t-163 -78.5t-208.5 -29q-43 0 -90.5 3.5t-90.5 15.5zM1933 -16q-73 0 -148.5 16t-137 51.5t-100.5 90.5t-39 133q0 63 45 127t146 111q-31 19 -57 42t-45 51.5t-30 62.5t-11 75q0 69 29.5 120.5t79.5 86t116 52t139 17.5 q83 0 150 -18t113.5 -50.5t71.5 -76.5t25 -96q0 -64 -42.5 -129t-125.5 -116q44 -20 83 -44t69 -54t47.5 -67t18.5 -83q1 -69 -30 -124.5t-85.5 -95t-127.5 -61t-154 -21.5zM2007 578q25 16 44 37t32 43.5t19.5 45t6.5 42.5q0 43 -15 76t-41 55.5t-62 34t-78 11.5 q-39 0 -72 -10.5t-57 -29t-37.5 -45t-13.5 -58.5q0 -38 23 -66.5t61 -51.5t87.5 -43t102.5 -41zM1931 80q36 0 70.5 12t61.5 33t43.5 49.5t16.5 61.5q0 29 -14 53t-38 43.5t-56.5 36t-69.5 32t-77 31t-79 33.5q-43 -26 -67.5 -69.5t-24.5 -89.5q0 -48 15 -89.5t45 -72 t73.5 -47.5t100.5 -17zM764 -131l749 1811l151 -31l-747 -1806z" />
<glyph unicode="&#x215e;" horiz-adv-x="2433" d="M1933 -16q-73 0 -148.5 16t-137 51.5t-100.5 90.5t-39 133q0 63 45 127t146 111q-31 19 -57 42t-45 51.5t-30 62.5t-11 75q0 69 29.5 120.5t79.5 86t116 52t139 17.5q83 0 150 -18t113.5 -50.5t71.5 -76.5t25 -96q0 -64 -42.5 -129t-125.5 -116q44 -20 83 -44t69 -54 t47.5 -67t18.5 -83q1 -69 -30 -124.5t-85.5 -95t-127.5 -61t-154 -21.5zM2007 578q25 16 44 37t32 43.5t19.5 45t6.5 42.5q0 43 -15 76t-41 55.5t-62 34t-78 11.5q-39 0 -72 -10.5t-57 -29t-37.5 -45t-13.5 -58.5q0 -38 23 -66.5t61 -51.5t87.5 -43t102.5 -41zM1931 80 q36 0 70.5 12t61.5 33t43.5 49.5t16.5 61.5q0 29 -14 53t-38 43.5t-56.5 36t-69.5 32t-77 31t-79 33.5q-43 -26 -67.5 -69.5t-24.5 -89.5q0 -48 15 -89.5t45 -72t73.5 -47.5t100.5 -17zM764 -131l749 1811l151 -31l-747 -1806zM397 535q61 119 109.5 222.5t93.5 205t90 207 t101 227.5h-422l-51 -195l-135 11l35 322h714l37 -45l-368 -1010l-204 55v0z" />
<glyph unicode="&#x2190;" horiz-adv-x="1530" d="M113 766l590 590l116 -119l-398 -397l118 13h878l-2 -173h-876l-118 13l398 -397l-116 -119z" />
<glyph unicode="&#x2191;" horiz-adv-x="1530" d="M678 1021l13 117l-397 -397l-119 116l589 590l590 -590l-119 -116l-397 398l13 -118v-878l-173 1v877z" />
<glyph unicode="&#x2192;" horiz-adv-x="1530" d="M1417.01 766l-589.964 590l-115.993 -119l397.976 -397l-117.992 13h-877.946l1.99902 -173h875.947l117.992 13l-397.976 -397l115.993 -119z" />
<glyph unicode="&#x2193;" horiz-adv-x="1530" d="M678 569.062l13 -116.993l-397 396.976l-119 -115.992l589 -589.965l590 589.965l-119 115.992l-397 -397.976l13 117.993v877.946l-173 -1v-876.946z" />
<glyph unicode="&#x2202;" horiz-adv-x="1295" d="M125 418q0 142 48 254.5t130 191t191 120t231 41.5q78 0 139 -21t112 -47q-3 75 -13 147t-31 136.5t-54.5 118.5t-83 93.5t-117 61.5t-157.5 22q-81 0 -148 -18t-132 -63l-49 95q38 28 84 52t96.5 41.5t104.5 27t109 9.5q170 0 284.5 -57.5t184.5 -156.5t99.5 -232 t29.5 -284q0 -109 -12.5 -223t-42 -222.5t-77 -204.5t-117.5 -168t-164 -114t-216 -42q-95 0 -174 33t-135.5 92t-88 140t-31.5 177zM344 474q0 -72 19.5 -135.5t56 -111t88.5 -75t116 -27.5q58 0 105 23.5t83 63t62.5 91.5t45 109.5t30 116t17.5 111.5q5 42 7 76.5t4 65.5 q-64 55 -139 85t-153 30q-61 0 -122 -25.5t-110 -78t-79.5 -132t-30.5 -187.5z" />
<glyph unicode="&#x2206;" horiz-adv-x="1769" d="M835 1516h39l750 -1486l-19 -29h-1443l-17 24zM1307 172l-491 996l-448 -996h939z" />
<glyph unicode="&#x220f;" horiz-adv-x="1458" d="M204 -20v1415l-165 24v103h1380v-103l-165 -26v-1413l169 -28v-109h-564v109l166 28v1411h-588v-1411l166 -28v-109h-568v109z" />
<glyph unicode="&#x2211;" horiz-adv-x="1592" d="M776 645l-566 807l32 70h1058l32 -335h-125l-63 212l-653 15l509 -719l-543 -717l716 24l104 183l109 -16l-47 -350l-1106 1l-25 63z" />
<glyph unicode="&#x2212;" horiz-adv-x="1345" d="M230 697h885v-163h-885v163z" />
<glyph unicode="&#x2219;" horiz-adv-x="703" d="M200 691q0 35 14.5 64.5t38.5 51.5t54 34t61 12q37 0 64.5 -11t44.5 -30t25.5 -43.5t8.5 -52.5q0 -37 -14 -67t-37 -51t-54 -32.5t-64 -11.5q-28 0 -53.5 9.5t-45 27t-31.5 43t-12 57.5z" />
<glyph unicode="&#x221a;" horiz-adv-x="1472" d="M95 583l223 132h162l304 -858h8l582 2013h226l-713 -2224h-190l-382 877l-143 -76z" />
<glyph unicode="&#x221e;" horiz-adv-x="1852" d="M502 211q-97 -2 -177 31t-137 89t-88.5 127.5t-31.5 146.5q0 94 34 170t94 130t142.5 83.5t179.5 29.5q74 0 137 -24t117.5 -64t101.5 -91.5t89 -105.5q38 51 81.5 101t93 89.5t106 64.5t121.5 26q97 1 174.5 -32t131.5 -88.5t83 -127t29 -146.5q0 -93 -34 -169t-94 -130 t-142.5 -83.5t-179.5 -29.5q-72 0 -133.5 22.5t-116 61t-102.5 89.5t-92 108q-35 -51 -75.5 -100t-88 -88t-103 -64t-120.5 -26zM544 354q41 0 80 17.5t75 46.5t69 67t63 79q-33 48 -71 102.5t-82 101t-94.5 77t-108.5 30.5q-57 0 -102 -20t-76 -53.5t-47 -79t-16 -96.5 q0 -62 26 -112t69.5 -85.5t99 -55t115.5 -19.5zM1020 661q33 -48 71 -102.5t82 -101t94.5 -77t108.5 -30.5q57 0 102 20t76 53.5t47.5 79t16.5 96.5q0 62 -26 112.5t-69.5 86t-99.5 55t-116 19.5q-41 0 -80 -17.5t-75 -47t-69 -67.5t-63 -79z" />
<glyph unicode="&#x222b;" horiz-adv-x="1075" d="M218 -274q15 -20 37 -40t49.5 -36t59 -25.5t65.5 -9.5q47 0 88.5 20t72 53.5t48.5 77.5t18 92q0 125 -32 240t-80.5 225.5t-104.5 219t-104.5 218.5t-80.5 224.5t-32 238.5q0 94 36.5 178t97 147t139.5 99.5t164 36.5q31 0 71 -2.5t81.5 -15t81 -38t71.5 -71.5l-114 -100 q-9 19 -28.5 37t-46 32t-58.5 23t-66 9q-48 0 -89 -20.5t-71 -54t-47.5 -77.5t-17.5 -91q0 -126 32 -241t80.5 -225t105 -217t105 -216.5t80.5 -224t32 -238.5q0 -92 -30.5 -177t-85 -150.5t-129.5 -104.5t-164 -39q-26 0 -68.5 4t-90.5 16.5t-96 36t-86 63.5l107 123v0z " />
<glyph unicode="&#x2248;" horiz-adv-x="1390" d="M204 304q21 33 53.5 65.5t74 59t91 42.5t104.5 16q45 0 81 -12t67 -29.5t57.5 -38t52.5 -38t52.5 -29.5t57.5 -12q35 0 65 9t55.5 24t47 33.5t39.5 38.5l86 -98q-22 -35 -54.5 -68t-74 -59t-90.5 -41.5t-104 -15.5q-44 0 -79 12t-65.5 29.5t-57 38.5t-52.5 38.5t-54 29.5 t-60 12q-34 0 -63.5 -9t-55 -24t-47.5 -34t-41 -38zM204 888q21 33 53.5 65.5t74 59t91 42.5t104.5 16q45 0 81 -12t67 -29.5t57.5 -38t52.5 -38t52.5 -29.5t57.5 -12q35 0 65 9t55.5 24t47 33.5t39.5 38.5l86 -98q-22 -35 -54.5 -68t-74 -59t-90.5 -41.5t-104 -15.5 q-44 0 -79 12t-65.5 29.5t-57 38.5t-52.5 38.5t-54 29.5t-60 12q-34 0 -63.5 -9t-55 -24t-47.5 -34t-41 -38z" />
<glyph unicode="&#x2260;" horiz-adv-x="1337" d="M210 427h313l135 377h-448v163h508l80 218h181l-77 -218h225v-163h-286l-139 -377h425v-163h-488l-83 -216h-181l84 216h-249v163z" />
<glyph unicode="&#x2264;" horiz-adv-x="1370" d="M163 1020l981 429v-189l-699 -283l699 -287v-187l-981 434v83zM163 332h981v-166h-981v166z" />
<glyph unicode="&#x2265;" horiz-adv-x="1370" d="M1207.01 1020l-980.939 429v-189l698.957 -283l-698.957 -287v-187l980.939 434v83zM1207.01 332h-980.939v-166h980.939v166z" />
<glyph unicode="&#x25ca;" horiz-adv-x="1175" d="M499 122l-449 642l86 130l451 622l89 -119l449 -624l-86 -133l-450 -640zM588 289l41 58l284 425l-39 58l-284 404l-42 -56l-284 -405l39 -64z" />
<glyph unicode="&#x25fc;" horiz-adv-x="1140" d="M0 1140h1140v-1140h-1140v1140z" />
<glyph unicode="&#xe000;" horiz-adv-x="0" />
<glyph unicode="&#xe001;" horiz-adv-x="0" />
<glyph unicode="&#xe0ff;" horiz-adv-x="0" />
<glyph unicode="&#xeffd;" horiz-adv-x="0" />
<glyph unicode="&#xf000;" horiz-adv-x="0" />
<glyph unicode="&#xf6c3;" horiz-adv-x="679" d="M225 -223q0 35 12.5 57t30.5 34t37 16.5t33 4.5h11q67 0 106 -46.5t39 -121.5q0 -47 -12 -86t-30.5 -70t-40.5 -54.5t-41 -39t-32 -23.5t-14 -8h-2l-66 51v11q15 7 26 21t18.5 32t11.5 38t4 37q0 26 -13.5 37t-30.5 21q-18 11 -32.5 30.5t-14.5 58.5z" />
<glyph unicode="&#xfb00;" horiz-adv-x="1664" d="M98 109l168 19v861h-193v98l193 48v73q0 65 19.5 124t53 110t79 92.5t98 71t109.5 45.5t114 16q49 0 74.5 -5t43.5 -11v-224q-9 7 -26.5 16t-42.5 17.5t-55 14.5t-64 6q-42 0 -75 -7t-56.5 -28t-36 -58.5t-12.5 -97.5l1 -155h272v-146h-272v-862l214 -18v-109h-606v109z M929 109l168 19v861h-193v98l193 48v95q0 98 42 182.5t109.5 147t152 98t169.5 35.5q49 0 74.5 -5t43.5 -11v-225q-9 7 -26.5 16.5t-42.5 18t-55 14.5t-64 6q-42 0 -75 -7t-56.5 -28t-36 -58.5t-12.5 -97.5l1 -181h272v-146h-272v-862l214 -18v-109h-606v109z" />
<glyph unicode="&#xfb01;" horiz-adv-x="1522" d="M906 110l165 17v832l-140 44v120l306 41h5l53 -40v-998l162 -16v-110h-551v110zM1151 1353q-29 0 -53 10.5t-41 29t-26 44t-9 54.5q0 32 9.5 61t28 51.5t46.5 36t65 13.5h1q33 0 58 -12t42 -31.5t26 -44.5t9 -52q0 -34 -9.5 -63t-29 -50.5t-48.5 -34t-68 -12.5h-1v0z M98 109l168 19v861h-193v98l193 48v95q0 98 42 182.5t109.5 147t152 98t169.5 35.5q49 0 74.5 -5t43.5 -11v-225q-9 7 -26.5 16.5t-42.5 18t-55 14.5t-64 6q-42 0 -75 -7t-56.5 -28t-36 -58.5t-12.5 -97.5l1 -181h272v-146h-272v-862l214 -18v-109h-606v109z" />
<glyph unicode="&#xfb02;" horiz-adv-x="1521" d="M903 110l165 17v1395l-165 18v95l336 45h2l50 -35v-1518l173 -17v-110h-561v110zM98 109l168 19v861h-193v98l193 48v95q0 98 42 182.5t109.5 147t152 98t169.5 35.5q49 0 74.5 -5t43.5 -11v-225q-9 7 -26.5 16.5t-42.5 18t-55 14.5t-64 6q-42 0 -75 -7t-56.5 -28 t-36 -58.5t-12.5 -97.5l1 -181h272v-146h-272v-862l214 -18v-109h-606v109z" />
<glyph unicode="&#xfb03;" horiz-adv-x="2354" d="M98 109l168 19v861h-193v98l193 48v73q0 65 19.5 124t53 110t79 92.5t98 71t109.5 45.5t114 16q49 0 74.5 -5t43.5 -11v-224q-9 7 -26.5 16t-42.5 17.5t-55 14.5t-64 6q-42 0 -75 -7t-56.5 -28t-36 -58.5t-12.5 -97.5l1 -155h272v-146h-272v-862l214 -18v-109h-606v109z M1738 110l165 17v832l-140 44v120l306 41h5l53 -40v-998l162 -16v-110h-551v110zM1983 1353q-29 0 -53 10.5t-41 29t-26 44t-9 54.5q0 32 9.5 61t28 51.5t46.5 36t65 13.5h1q33 0 58 -12t42 -31.5t26 -44.5t9 -52q0 -34 -9.5 -63t-29 -50.5t-48.5 -34t-68 -12.5h-1zM929 109 l168 19v861h-193v98l193 48v95q0 98 42 182.5t109.5 147t152 98t169.5 35.5q49 0 74.5 -5t43.5 -11v-225q-9 7 -26.5 16.5t-42.5 18t-55 14.5t-64 6q-42 0 -75 -7t-56.5 -28t-36 -58.5t-12.5 -97.5l1 -181h272v-146h-272v-862l214 -18v-109h-606v109z" />
<glyph unicode="&#xfb04;" horiz-adv-x="2353" d="M98 109l168 19v861h-193v98l193 48v73q0 65 19.5 124t53 110t79 92.5t98 71t109.5 45.5t114 16q49 0 74.5 -5t43.5 -11v-224q-9 7 -26.5 16t-42.5 17.5t-55 14.5t-64 6q-42 0 -75 -7t-56.5 -28t-36 -58.5t-12.5 -97.5l1 -155h272v-146h-272v-862l214 -18v-109h-606v109z M1735 110l165 17v1395l-165 18v95l336 45h2l50 -35v-1518l173 -17v-110h-561v110zM929 109l168 19v861h-193v98l193 48v95q0 98 42 182.5t109.5 147t152 98t169.5 35.5q49 0 74.5 -5t43.5 -11v-225q-9 7 -26.5 16.5t-42.5 18t-55 14.5t-64 6q-42 0 -75 -7t-56.5 -28 t-36 -58.5t-12.5 -97.5l1 -181h272v-146h-272v-862l214 -18v-109h-606v109z" />
<glyph unicode="&#xfeff;" horiz-adv-x="0" />
<glyph horiz-adv-x="703" d="M200 899q0 35 14.5 64.5t38.5 51.5t54 34t61 12q37 0 64.5 -11t44.5 -30t25.5 -43.5t8.5 -52.5q0 -37 -14 -67t-37 -51t-54 -32.5t-64 -11.5q-28 0 -53.5 9.5t-45 27t-31.5 43t-12 57.5z" />
<glyph horiz-adv-x="844" d="M413 662q-43 0 -79.5 17.5t-63.5 47.5t-42 69.5t-15 83.5q0 47 18 86.5t49 68.5t70.5 45.5t83.5 16.5q42 0 78 -16t62.5 -45t41.5 -69t15 -87q0 -45 -18.5 -85t-48.5 -69.5t-69.5 -46.5t-81.5 -17z" />
<glyph horiz-adv-x="1024" />
<glyph horiz-adv-x="1024" />
<glyph horiz-adv-x="1024" />
<glyph horiz-adv-x="1024" />
<glyph horiz-adv-x="1024" />
<glyph horiz-adv-x="1024" />
<glyph horiz-adv-x="1024" />
<glyph horiz-adv-x="1293" d="M419 154l92 -20l401 1014l-90 23zM629 -17q-140 0 -238 53.5t-159 145t-88.5 212.5t-25.5 256q1 152 45 271t118.5 201.5t173 125.5t208.5 43q142 0 239 -48.5t156 -134.5t84 -203t24 -255q-1 -151 -42.5 -274t-113.5 -210t-169.5 -135t-211.5 -48zM644 97q82 0 136 36.5 t85.5 106t44.5 169.5t13 228q0 120 -14 219.5t-46.5 171t-85.5 111t-132 39.5q-83 0 -137.5 -35t-87.5 -101.5t-46.5 -162t-13.5 -216.5q0 -115 15 -217.5t48.5 -180t87.5 -123t133 -45.5z" />
<glyph horiz-adv-x="1407" d="M691 -19q-111 0 -196 31.5t-148 87.5t-105.5 132.5t-68 166t-36 188t-9.5 199.5q2 172 46 311.5t122 237t185.5 150.5t237.5 53q114 0 200.5 -28t149 -78t103.5 -120t65 -154.5t33.5 -181t8.5 -199.5q-1 -172 -42 -317.5t-116.5 -252t-184 -166.5t-245.5 -60zM702 94 q102 0 167.5 47t103 134t51.5 212t14 281q0 136 -17.5 255t-57 207t-102.5 139t-154 51q-102 0 -167.5 -42.5t-103.5 -122.5t-52.5 -196t-14.5 -264q0 -87 8 -172.5t25 -163.5t43.5 -144.5t63.5 -115.5t85 -77t108 -28z" />
<glyph horiz-adv-x="915" d="M146 107l237 28v1125q-22 -8 -56 -16t-71 -15.5t-72.5 -13t-59.5 -6.5l-26 125q54 12 113.5 34t117 49.5t109 59t88.5 62.5h1l80 -38v-1367l226 -27v-107h-687v107z" />
<glyph horiz-adv-x="1266" d="M116 91q92 66 180 143.5t166.5 162.5t144 174.5t113.5 180t74.5 178.5t26.5 170q0 67 -20.5 118.5t-56.5 86.5t-85.5 52.5t-106.5 17.5q-54 0 -106 -16t-97.5 -41t-82 -56t-60.5 -60l-81 91q30 47 81.5 91t116.5 78.5t139.5 55t150.5 20.5q121 0 207 -34.5t141.5 -91.5 t81.5 -131t26 -152q0 -90 -31.5 -182t-85 -182t-124 -176.5t-148 -167t-158.5 -153t-154 -134.5l616 46l71 150l117 -25l-50 -305h-973l-33 91v0z" />
<glyph horiz-adv-x="1161" d="M181 122q15 -5 34.5 -8.5t40 -5.5t40.5 -3t37 -1q101 0 189 26t153.5 74t103 115.5t37.5 150.5q0 64 -18.5 113t-58 83t-103 54t-153.5 25l-132 -29l-39 122q38 5 75.5 15t72.5 22q63 22 117 53t93 69t61.5 81.5t22.5 91.5q1 60 -19 101t-53 65.5t-75.5 35.5t-88.5 11 q-106 0 -193 -31t-149 -74l-59 95q24 23 71 51.5t108.5 54t134.5 43t149 17.5q85 0 160 -18.5t131 -58t88.5 -102.5t32.5 -151q0 -69 -30.5 -130t-82.5 -112t-121 -90.5t-145 -64.5q106 8 190 -13t142 -63.5t89 -103t32 -130.5q1 -122 -52.5 -219t-147.5 -165t-222 -104.5 t-278 -36.5q-21 0 -45.5 1.5t-49 4.5t-48 6.5t-42.5 8.5v124z" />
<glyph horiz-adv-x="1284" d="M59 490q79 128 147 265t125 276t102 278t78 271h67l165 -37q-49 -158 -99 -285.5t-100.5 -237t-102 -207t-104.5 -195.5l-68 -104l507 31l4 436l195 1v-424l222 14v-188h-222v-384h-200l1 384h-651z" />
<glyph horiz-adv-x="1190" d="M211 105q29 -2 58.5 -3t57.5 -1q100 0 193 34t164 94t113.5 141t42.5 174q0 81 -23 137.5t-64.5 92.5t-99 52.5t-126.5 16.5q-75 0 -149 -14t-143 -37l-59 44l72 687h577l22 39h146l-40 -222h-547l-54 -401q42 14 79.5 23t72.5 14.5t70.5 8t73.5 2.5q108 0 189 -31.5 t135 -86.5t81 -130t27 -162q0 -118 -52.5 -226.5t-148.5 -191.5t-230 -132.5t-296 -49.5q-34 0 -71 3t-72 11z" />
<glyph horiz-adv-x="1344" d="M153 588q0 131 34.5 250.5t95 224t142 192.5t175.5 154.5t196.5 110.5t204.5 62l47 -94q-122 -40 -221.5 -103.5t-175.5 -142.5t-129.5 -170.5t-83.5 -186.5q23 21 55.5 40.5t73.5 35.5t90.5 25.5t108.5 9.5q108 0 190 -32t136.5 -92t82.5 -144.5t28 -189.5 q0 -109 -34.5 -210t-100.5 -178.5t-163 -124t-223 -46.5q-130 0 -229 49t-165.5 132t-100.5 194t-34 234zM695 91q72 0 123.5 36t85 92t49 125t15.5 134q0 105 -20.5 178t-56 118.5t-82.5 66t-101 20.5q-59 0 -108.5 -13.5t-88.5 -33t-66 -41.5t-41 -40q-5 -38 -6 -75 q-3 -71 1 -140.5t16 -132.5t33.5 -116.5t55.5 -93t81 -62t110 -22.5z" />
<glyph horiz-adv-x="1267" d="M386 40q78 165 148.5 328t138 325.5t133.5 327.5t135 335l-611 -9l-75 -195l-133 15l43 355h935l46 -52l-519 -1497l-241 67v0z" />
<glyph horiz-adv-x="1300" d="M145 377q0 114 69 214t223 176q-47 33 -88 72t-71.5 86t-48 104.5t-17.5 128.5q0 94 39.5 165t103.5 119t146 72.5t167 24.5q97 0 176.5 -24t136 -68t87 -106.5t30.5 -139.5q0 -109 -60.5 -208.5t-185.5 -176.5q62 -37 118.5 -79t100 -92.5t69 -111.5t25.5 -136 q0 -98 -43 -174.5t-115 -129.5t-165.5 -81t-193.5 -28q-59 0 -119.5 9t-116.5 29t-104.5 50.5t-84.5 74.5t-57 101t-21 129zM752 873q38 24 67 54.5t49 65.5t30.5 73t10.5 77q0 69 -17.5 123.5t-50.5 92t-79.5 57.5t-104.5 20q-52 0 -97.5 -16t-79 -45.5t-53 -71 t-19.5 -93.5q0 -57 29 -103t77 -85.5t110 -75.5t128 -73zM357 421q0 -74 19 -134.5t58 -103.5t97.5 -67t136.5 -24q49 0 97 17.5t86 50t62 79t24 104.5q0 67 -36 116.5t-94 91t-130.5 78.5t-145.5 79q-36 -23 -67.5 -53t-55.5 -66t-37.5 -78t-13.5 -90z" />
<glyph horiz-adv-x="1343" d="M357 57q121 39 215 100t163 136.5t115 162.5t71 180q-21 -21 -50 -41.5t-68 -36.5t-88 -26t-109 -10q-108 0 -192.5 34t-143 96.5t-89.5 150.5t-31 197q0 105 35.5 202.5t103 172.5t165.5 119.5t223 44.5q137 0 236 -48.5t162.5 -131.5t94 -193.5t30.5 -235.5 q0 -131 -30.5 -248.5t-85 -219t-129.5 -185.5t-163.5 -147.5t-187 -106t-200.5 -59.5zM645 657q58 0 107.5 13t89 32.5t67 41.5t40.5 40q5 41 6 79q2 71 -0.5 140t-13 131.5t-31 116t-53.5 92.5t-80.5 61t-112.5 22q-72 0 -124.5 -34t-87 -88t-51.5 -119.5t-17 -128.5 q0 -109 20.5 -185t56 -123.5t83 -69t101.5 -21.5z" />
<glyph horiz-adv-x="1407" d="M691 -19q-111 0 -196 31.5t-148 87.5t-105.5 132.5t-68 166t-36 188t-9.5 199.5q2 172 46 311.5t122 237t185.5 150.5t237.5 53q114 0 200.5 -28t149 -78t103.5 -120t65 -154.5t33.5 -181t8.5 -199.5q-1 -172 -42 -317.5t-116.5 -252t-184 -166.5t-245.5 -60zM873 1359 q-34 29 -75 45t-91 16q-102 0 -167.5 -42.5t-103.5 -122.5t-52.5 -196t-14.5 -264q0 -70 5 -139.5t15.5 -135t27.5 -125t40 -109.5zM518 186q36 -44 81.5 -68t102.5 -24q102 0 167.5 47t103 134t51.5 212t14 281q0 155 -23 286.5t-76 221.5z" />
<glyph horiz-adv-x="1339" d="M123 598q1 83 22.5 157.5t58.5 138.5t88 115.5t113 88t131.5 56t144.5 19.5q99 0 178 -24.5t138.5 -67.5t101.5 -101t68 -125.5t38 -142t11 -148.5q-2 -124 -47 -230t-121.5 -184t-177.5 -122t-214 -44q-99 0 -177 24.5t-137.5 68t-101.5 102.5t-68.5 127.5t-38 143 t-10.5 148.5zM665 95q85 0 143.5 33.5t94.5 94.5t52 145.5t16 186.5q0 62 -7.5 123.5t-23.5 117.5t-40.5 104t-58.5 83.5t-77.5 56t-96.5 20.5q-84 0 -142 -33t-94 -93t-51.5 -143.5t-15.5 -183.5q0 -62 7.5 -124t23.5 -118.5t40 -106t57.5 -85.5t76.5 -57t96 -21z" />
<glyph horiz-adv-x="885" d="M131 107l235 18v784q-21 -8 -55 -15t-71 -13t-72 -10t-59 -5l-26 108q60 12 120.5 33t116 47.5t104 57t85.5 61.5h3l78 -27v-1021l228 -18v-107h-687v107z" />
<glyph horiz-adv-x="1219" d="M95 91q91 43 177.5 93t162.5 104t140 112.5t110 119.5t71.5 123t25.5 124q0 119 -65 181.5t-176 62.5q-58 0 -107.5 -14.5t-90 -37t-72.5 -49t-56 -49.5l-67 91q31 40 79.5 79.5t109 70.5t130.5 50.5t144 19.5q115 0 193.5 -27.5t127 -76t69.5 -114t21 -140.5 q0 -86 -49 -176.5t-132.5 -178t-194.5 -168.5t-235 -149l542 38l71 146l124 -24l-50 -302h-970z" />
<glyph horiz-adv-x="1139" d="M123 -299q15 -5 34.5 -8t40.5 -5t41 -3t37 -1q107 0 198.5 26t158.5 74t105 115.5t38 150.5q0 68 -17 120t-55.5 88t-100.5 57t-152 26l-124 -29l-38 122q35 6 71 16.5t68 22.5q63 24 115 58.5t90 77t59 92t22 102.5q1 60 -17.5 101t-50 66t-73 35.5t-87.5 10.5 q-98 0 -174 -31t-134 -73l-60 94q23 23 66 52t100 54.5t124.5 42.5t139.5 17q85 0 158.5 -18t128 -58t86 -102.5t31.5 -150.5q0 -74 -29.5 -141t-79.5 -124t-118 -100.5t-144 -68.5q106 8 188.5 -14.5t139 -68t86 -109.5t30.5 -139q1 -122 -52 -218.5t-148 -164t-227 -103.5 t-289 -36q-21 0 -45.5 1.5t-49 4.5t-48.5 6.5t-43 8.5v124v0z" />
<glyph horiz-adv-x="1296" d="M67 105q70 129 144.5 271t150.5 293t152 307.5t148 314.5h59l166 -101l-525 -933l-85 -125l501 28l5 345l190 21v-355l289 17v-188h-289v-376h-196v376h-652l-58 105v0z" />
<glyph horiz-adv-x="1193" d="M190 -377q29 -2 58.5 -3t57.5 -1q102 0 193 36t159.5 101.5t108.5 155.5t40 198q0 89 -22 150t-62.5 98.5t-96.5 53.5t-125 16q-30 0 -63.5 -3.5t-68 -10t-67.5 -15.5t-62 -21l-60 44l106 712h543l23 39h145l-39 -228h-513l-95 -431q70 28 141 42.5t134 14.5 q95 0 174.5 -25.5t137.5 -78.5t90 -135t32 -194q0 -78 -23.5 -155.5t-67.5 -148t-108 -131t-145 -105t-177.5 -70t-205.5 -25.5q-34 0 -71 3t-72 11l1 106v0z" />
<glyph horiz-adv-x="1352" d="M141 613q0 144 31.5 272.5t87.5 239t132.5 201.5t167 160t190.5 115t204 67l47 -94q-161 -57 -276.5 -156t-190 -220.5t-110 -257t-35.5 -266.5q0 -48 3 -110t14 -127t31 -127.5t53.5 -111t83 -78.5t118.5 -30q53 0 94 23t72 60.5t52.5 86.5t34.5 100.5t19 102t6 92.5 q0 132 -17 218.5t-47 137.5t-71 71.5t-89 20.5q-25 0 -51.5 -4t-43.5 -8l-42 88q11 9 30.5 19t45 18.5t56.5 14t66 5.5q87 0 161 -32.5t127.5 -98t84 -165t30.5 -233.5q0 -69 -14 -142.5t-42 -143.5t-71.5 -132.5t-103 -109.5t-135 -74.5t-167.5 -27.5q-91 0 -166.5 26.5 t-135 72.5t-103.5 108t-73 132.5t-43.5 146.5t-14.5 150z" />
<glyph horiz-adv-x="1198" d="M315 -483q75 165 153.5 349t156.5 372.5t152 374.5t140 356l-606 -9l-75 -228l-133 15l43 388h915l47 -52l-552 -1633l-241 67v0z" />
<glyph horiz-adv-x="1291" d="M136 385q0 58 17.5 114t54.5 107.5t95 98t138 85.5q-49 34 -92 73.5t-75.5 87.5t-51 106.5t-18.5 129.5q0 94 39.5 165.5t103.5 119.5t146 72.5t168 24.5q98 0 177.5 -24t136 -68t87.5 -106.5t31 -139.5q0 -55 -16 -109.5t-47.5 -106.5t-79 -99t-110.5 -86 q63 -39 121.5 -82t103 -94t71 -111.5t26.5 -135.5q0 -98 -43.5 -176.5t-116 -133t-166.5 -84t-195 -29.5q-60 0 -120.5 9.5t-116.5 30t-105 52.5t-85 76.5t-57 102.5t-21 130zM741 888q39 25 69.5 58t51.5 70t31.5 76.5t10.5 78.5q0 69 -18 124t-51 93.5t-80 58.5t-105 20 q-53 0 -99 -16t-79.5 -46t-53 -72.5t-19.5 -94.5q0 -57 28.5 -104.5t76 -89.5t109.5 -80t128 -76zM348 431q0 -74 19.5 -136t58.5 -107t98 -70.5t138 -25.5q49 0 98 19t87.5 53t62.5 82t24 107q0 68 -35.5 119.5t-92.5 95t-128.5 82.5t-144.5 82q-38 -24 -71.5 -55.5 t-59 -70t-40 -82.5t-14.5 -93z" />
<glyph horiz-adv-x="1352" d="M542 -21q-86 0 -159.5 36.5t-127 108.5t-83.5 179t-30 247q0 67 14 136.5t42.5 134.5t72.5 123t103.5 101t135 68t167.5 25t167 -25.5t134 -69.5t103 -103t73 -127t43 -141t14 -144q0 -147 -31.5 -278.5t-87.5 -244.5t-133 -206.5t-167 -164.5t-191 -118.5t-204 -68.5 l-46 94q107 40 194 99t155 132t117.5 157t81.5 173.5t47.5 182t15.5 182.5q0 48 -3 108.5t-13.5 122.5t-30.5 121t-53.5 104.5t-83 73.5t-118.5 28q-53 0 -94.5 -20.5t-72.5 -54t-52 -77.5t-34 -91t-19 -93.5t-6 -85.5q0 -140 19 -234t51.5 -151t75.5 -81.5t91 -24.5 q25 0 44.5 4t36.5 9l43 -88q-12 -9 -29 -19t-41.5 -18.5t-56.5 -14.5t-74 -6z" />
<glyph horiz-adv-x="1339" d="M123 598q1 83 22.5 157.5t58.5 138.5t88 115.5t113 88t131.5 56t144.5 19.5q99 0 178 -24.5t138.5 -67.5t101.5 -101t68 -125.5t38 -142t11 -148.5q-2 -124 -47 -230t-121.5 -184t-177.5 -122t-214 -44q-99 0 -177 24.5t-137.5 68t-101.5 102.5t-68.5 127.5t-38 143 t-10.5 148.5zM783 1029q-26 15 -54.5 23t-61.5 8q-84 0 -142 -33t-94 -93t-51.5 -143.5t-15.5 -183.5q0 -54 5.5 -108t17.5 -105t30 -97t43 -83zM530 139q29 -21 62.5 -32.5t72.5 -11.5q85 0 143.5 33.5t94.5 94.5t52 145.5t16 186.5q0 58 -7 115.5t-21 111t-35.5 100.5 t-50.5 83z" />
<glyph horiz-adv-x="1310" d="M642 -19q-106 0 -188.5 31.5t-143.5 87.5t-102.5 132.5t-66.5 166t-35.5 188t-9.5 199.5q2 172 45 311.5t119.5 237t181 150.5t229.5 53q110 0 193 -28t144 -78t101 -120t63.5 -154.5t33 -181t8.5 -199.5q-1 -172 -41 -317.5t-114 -252t-179.5 -166.5t-237.5 -60zM653 96 q96 0 158 46.5t98 133.5t50 211.5t14 280.5q0 136 -17.5 254.5t-55 206.5t-97 138.5t-144.5 50.5q-96 0 -158 -42t-99 -122t-51.5 -196t-14.5 -263q0 -86 8 -171.5t24 -163.5t41.5 -144.5t61 -115t80.5 -76.5t102 -28z" />
<glyph horiz-adv-x="1310" d="M260 107l318 29l8 1155q-14 -5 -39.5 -12t-56.5 -15t-65 -16t-66 -14.5t-58.5 -11t-42.5 -5.5l-31 125q36 8 80.5 22.5t92 33.5t95.5 41t92 45t80.5 46t61.5 44h3l78 -42l-7 -1397l295 -28v-107h-838v107z" />
<glyph horiz-adv-x="1310" d="M149 91q92 66 179 143.5t163.5 162.5t140.5 174.5t109.5 180t71 178.5t25.5 170q0 67 -20.5 118.5t-56.5 86.5t-85 52.5t-106 17.5q-54 0 -103.5 -16t-92 -41t-76.5 -56t-58 -60l-81 91q30 47 79 91t110.5 78.5t133.5 55t148 20.5q121 0 207 -34.5t141.5 -91.5t81.5 -131 t26 -152q0 -90 -30.5 -182t-82 -182t-120 -176.5t-144 -166.5t-154.5 -152.5t-152 -134.5l581 45l71 150l117 -25l-50 -305h-939l-34 91v0z" />
<glyph horiz-adv-x="1310" d="M232 122q15 -5 37.5 -8.5t46 -5.5t46 -3t39.5 -1q101 0 189 21t153.5 62.5t103 103.5t37.5 145q0 64 -18.5 118t-58 95t-103 66t-153.5 30l-132 -29l-39 122q40 5 79.5 15.5t76.5 24.5q62 22 114 53t90.5 68.5t60 80.5t21.5 90q1 60 -19 101t-53 65.5t-75.5 35.5 t-88.5 11q-53 0 -102.5 -9.5t-94.5 -25.5t-83.5 -36.5t-69.5 -41.5l-60 95q24 23 72.5 53t112 57t137.5 45.5t150 18.5q85 0 160 -18.5t131 -58t88.5 -102.5t32.5 -151q0 -69 -30.5 -130t-82.5 -112t-121 -90.5t-145 -64.5q106 8 190.5 -18.5t143 -76t90 -115.5t31.5 -137 q1 -121 -52.5 -212.5t-148 -152.5t-223 -92t-278.5 -31q-21 0 -48 1.5t-54.5 4.5t-54 6.5t-45.5 8.5v124z" />
<glyph horiz-adv-x="1310" d="M70 490q79 128 147.5 265t125 276t101.5 278t78 271h67l165 -37q-49 -158 -99 -285.5t-100.5 -237t-102 -207t-103.5 -195.5l-68 -104l506 31l5 436l194 1v-424l223 14v-188h-223v-384h-199v384h-651z" />
<glyph horiz-adv-x="1310" d="M264 105q29 -2 60.5 -3t60.5 -1q100 0 192 33.5t162 93t111.5 139.5t41.5 173q0 81 -23 138.5t-64.5 93.5t-99 53t-126.5 17q-72 0 -146.5 -13.5t-144.5 -36.5l-60 44l73 687h582l22 39h146l-40 -229h-551l-55 -394q44 14 81.5 23t73 14.5t70 8t73.5 2.5 q108 0 189.5 -31.5t135.5 -86.5t81.5 -130t27.5 -162q0 -118 -52.5 -226.5t-148.5 -191.5t-229.5 -132.5t-295.5 -49.5q-35 0 -73.5 3t-74.5 11z" />
<glyph horiz-adv-x="1307" d="M148 588q0 131 33 250.5t91.5 224t137.5 192.5t171.5 154.5t193.5 110.5t203 62l47 -94q-122 -40 -219.5 -103t-171.5 -142.5t-125 -170.5t-79 -186q21 21 49.5 40.5t66.5 35t86 25t107 9.5q108 0 187 -32.5t130.5 -93t76.5 -145.5t25 -190q0 -109 -31.5 -209.5 t-95 -177.5t-158 -123t-220.5 -46q-128 0 -223 49t-157.5 132t-93.5 194t-31 234zM669 91q72 0 121 36t78.5 92t42 125t12.5 134q0 105 -18 178t-50.5 118.5t-77 66t-98.5 20.5q-58 0 -104.5 -13.5t-81.5 -33t-59 -41.5t-36 -40q-2 -19 -3 -37.5t-2 -37.5q-2 -71 0 -140.5 t11.5 -132.5t28.5 -116.5t50.5 -93t77 -62t108.5 -22.5z" />
<glyph horiz-adv-x="1310" d="M407 40q77 165 147.5 328t138 325.5t134 327.5t135.5 335l-611 -9l-75 -228l-133 15l42 388h935l47 -52l-520 -1497l-240 67v0z" />
<glyph horiz-adv-x="1310" d="M155 377q0 57 15.5 111.5t50 104.5t89 94.5t132.5 83.5q-46 33 -86 72t-70 86t-47 104.5t-17 128.5q0 94 38 165.5t100.5 119.5t142.5 72t165 24q97 0 175 -23.5t132.5 -67.5t83.5 -106.5t29 -139.5q0 -109 -58 -209t-181 -178q61 -37 116.5 -79t98.5 -92.5t68.5 -112 t25.5 -136.5q0 -98 -42 -175t-112.5 -130.5t-163 -81.5t-192.5 -28q-59 0 -118.5 9t-114 28.5t-102.5 50.5t-83 74.5t-55 101t-20 129.5zM750 877q75 49 112 120t37 149q0 139 -62 217t-177 78q-53 0 -97.5 -16t-76.5 -46t-50 -72t-18 -94q0 -56 28 -101.5t74 -85.5t106 -76 t124 -73zM367 422q0 -74 18 -134.5t55 -104t94 -67.5t135 -24q49 0 95.5 17.5t83.5 50t59.5 79t22.5 105.5q0 67 -35 117t-91.5 92t-127.5 79.5t-142 79.5q-36 -23 -66.5 -53.5t-53 -67t-35 -79t-12.5 -90.5z" />
<glyph horiz-adv-x="1307" d="M336 56q123 40 215 101t158.5 136.5t109 163t65.5 180.5q-19 -21 -45.5 -42t-62.5 -37.5t-84 -26.5t-109 -10q-108 0 -189 34t-136 96.5t-82.5 150.5t-27.5 197q0 105 32.5 202.5t96 172.5t159 119.5t221.5 44.5q135 0 230 -49t155 -132.5t88 -194.5t28 -234 q0 -130 -29 -247.5t-81 -219t-124.5 -186t-158.5 -148t-183 -106t-199 -59.5zM628 656q58 0 104.5 13t81.5 32.5t58.5 42t35.5 40.5q2 19 3 37.5t2 37.5q2 71 1 140.5t-9.5 132t-26.5 116.5t-49 93t-77 61.5t-111 22.5q-72 0 -121.5 -34t-80 -88t-43.5 -119.5t-13 -128.5 q0 -109 18.5 -185t51 -123.5t77.5 -69t98 -21.5z" />
<glyph horiz-adv-x="1310" d="M642 -19q-106 0 -188.5 31.5t-143.5 87.5t-102.5 132.5t-66.5 166t-35.5 188t-9.5 199.5q2 172 45 311.5t119.5 237t181 150.5t229.5 53q110 0 193 -28t144 -78t101 -120t63.5 -154.5t33 -181t8.5 -199.5q-1 -172 -41 -317.5t-114 -252t-179.5 -166.5t-237.5 -60z M830 1342q-34 36 -76.5 56t-94.5 20q-96 0 -158 -42t-99 -122t-51.5 -196t-14.5 -263q0 -70 5 -139t15.5 -134t26.5 -124.5t38 -109.5zM482 185q34 -42 76 -65.5t95 -23.5q96 0 158 46.5t98 133.5t50 211.5t14 280.5q0 144 -19.5 267t-61.5 213z" />
<glyph horiz-adv-x="1299" d="M103 598q2 125 47.5 230.5t121.5 182t176.5 119.5t212.5 43q99 0 178 -24t138.5 -67t101.5 -101t68.5 -125.5t38 -142t10.5 -149.5q-2 -125 -47 -231.5t-121.5 -184t-177.5 -121t-214 -43.5q-99 0 -177 24.5t-137.5 67.5t-101.5 102t-68.5 127.5t-38 143t-10.5 149.5z M645 95q85 0 143.5 33.5t94.5 94.5t52 145.5t16 186.5q0 62 -7.5 123.5t-23.5 117.5t-40.5 104t-58.5 83.5t-77.5 56t-96.5 20.5q-84 0 -142 -33t-93.5 -93t-51.5 -143.5t-16 -183.5q0 -62 7.5 -124t23.5 -118.5t40 -106t57.5 -85.5t76.5 -57t96 -21z" />
<glyph horiz-adv-x="1300" d="M271 107l321 19v777q-21 -8 -61 -15.5t-84 -13.5t-85 -10.5t-65 -5.5l-26 108q60 12 126 34t129 50.5t118 60t92 62.5h2l78 -30v-1017l295 -19v-107h-840v107z" />
<glyph horiz-adv-x="1300" d="M119 91q92 43 178.5 92.5t163 103.5t140.5 112t109.5 119t71 123.5t25.5 125.5q0 60 -19.5 105.5t-54 76t-82 46.5t-102.5 16q-59 0 -108 -14.5t-89.5 -37t-72.5 -49t-56 -49.5l-67 91q31 40 79.5 79.5t109 70.5t130.5 50.5t144 19.5q115 0 196.5 -27.5t133 -76t75 -114 t23.5 -140.5q0 -87 -49 -177t-133 -177.5t-195 -168.5t-235 -149l551 38l71 146l124 -24l-50 -302h-978l-34 91v0z" />
<glyph horiz-adv-x="1300" d="M200 -304q15 -5 37 -8.5t45.5 -5.5t46.5 -3t40 -1q107 0 200 26t161.5 74t107.5 115.5t39 150.5q0 68 -18.5 121t-58 89.5t-103 58t-153.5 26.5l-161 -38l-39 122q48 7 94 19t88 28q67 26 120 62t90.5 79.5t58 92.5t20.5 100q1 60 -19 101t-53 66t-75.5 35.5t-88.5 10.5 q-49 0 -95 -8.5t-87.5 -22.5t-77.5 -33t-65 -40l-59 94q23 23 68.5 52t105.5 54.5t130 42.5t142 17q85 0 160 -18t131 -58t88.5 -102.5t32.5 -150.5q0 -74 -30.5 -141.5t-82.5 -125t-121 -101.5t-145 -70q106 9 190 -14t142 -68.5t89 -109.5t32 -138q1 -122 -53.5 -219 t-151.5 -165t-230 -104.5t-290 -36.5q-21 0 -48 1.5t-54.5 4.5t-54 6.5t-45.5 8.5v124v0z" />
<glyph horiz-adv-x="1300" d="M72 105q70 129 144 271t149 293t150 307.5t148 314.5h59l164 -101l-519 -933l-85 -125l510 29l5 344l193 21v-354l279 16v-188h-279v-376h-199v376h-661l-58 105v0z" />
<glyph horiz-adv-x="1300" d="M222 -377q29 -2 58.5 -3t57.5 -1q108 0 205 36t170 101.5t116 155.5t43 198q0 89 -23.5 150t-66 98.5t-102 53.5t-132.5 16q-30 0 -65 -3.5t-70 -10t-69.5 -15.5t-64.5 -21l-59 44l106 712h576l23 39h145l-39 -228h-547l-94 -431q72 28 144.5 42.5t138.5 14.5 q99 0 181.5 -25.5t142.5 -78.5t93.5 -135t33.5 -194q0 -78 -24.5 -155.5t-71 -148t-113 -131t-151 -105t-185.5 -70t-215 -25.5q-34 0 -71 3t-72 11l1 106v0z" />
<glyph horiz-adv-x="1297" d="M122 615q0 144 31.5 272.5t87.5 239t133 201.5t167 160t190.5 115t204.5 66l46 -94q-107 -38 -194 -95.5t-155 -128.5t-117.5 -152.5t-81.5 -169t-47.5 -178t-15.5 -177.5q0 -48 3 -110t13.5 -127t30.5 -127.5t53.5 -111t83 -78.5t118.5 -30q53 0 94.5 23t72.5 61t52 87 t34 101t19 103.5t6 93.5q0 131 -17 217t-47 136.5t-71 70.5t-89 20q-25 0 -50.5 -3t-42.5 -8l-41 87q12 9 31 19t44.5 18.5t56 14t65.5 5.5q87 0 160.5 -32.5t127 -98.5t83.5 -165.5t30 -233.5q0 -69 -14 -142t-42.5 -143t-72.5 -132.5t-103.5 -109.5t-135 -74.5 t-167.5 -27.5q-91 0 -166.5 26.5t-134.5 73t-103 108.5t-73 133t-43 147t-14 150z" />
<glyph horiz-adv-x="1300" d="M371 -482q74 165 152.5 349t156 372t152 374t140.5 356l-606 -9l-76 -228l-132 15l42 388h916l46 -52l-551 -1631l-240 66v0z" />
<glyph horiz-adv-x="1300" d="M137 385q0 58 17.5 113.5t54.5 107.5t94.5 98t137.5 85q-49 34 -92 74t-75.5 88t-51 106.5t-18.5 129.5q0 94 39.5 165.5t104 119.5t146.5 72.5t168 24.5q98 0 177.5 -24t136 -68t87 -106.5t30.5 -139.5q0 -55 -15.5 -109.5t-47 -106t-79 -98.5t-110.5 -86 q63 -38 121.5 -81t103 -94t71 -112.5t26.5 -136.5q0 -98 -43.5 -176.5t-116 -133t-166.5 -84t-195 -29.5q-59 0 -120 9.5t-117 30t-105 52.5t-85 76.5t-57 102.5t-21 130zM743 889q39 25 69.5 57.5t51 69.5t31 76.5t10.5 78.5q0 69 -18 124t-51 93.5t-80 58.5t-105 20 q-53 0 -98.5 -16t-79.5 -46t-53.5 -72.5t-19.5 -94.5q0 -58 28.5 -105.5t76.5 -89t110 -79t128 -75.5zM348 431q0 -74 19.5 -136t58.5 -107t98 -70.5t139 -25.5q49 0 97.5 19t87.5 53t63 82t24 107q0 68 -35.5 119.5t-92.5 94.5t-129 82t-145 82q-38 -24 -71.5 -55.5 t-59 -69.5t-40 -82t-14.5 -93z" />
<glyph horiz-adv-x="1297" d="M522 -21q-86 0 -159.5 36.5t-127 108.5t-83.5 179t-30 248q0 66 14 135.5t42.5 135t72.5 123t103.5 100.5t135 68t168.5 25q91 0 166 -25.5t134.5 -69.5t103 -103.5t72.5 -127.5t43 -141.5t14 -144.5q0 -147 -31.5 -278.5t-87.5 -244.5t-132.5 -206.5t-167 -164 t-191 -118t-203.5 -68.5l-47 94q161 60 276.5 161.5t190 226.5t110 264.5t35.5 274.5q0 48 -3 108.5t-14 122.5t-31 121t-53.5 104.5t-83 73.5t-118.5 28q-53 0 -94.5 -20.5t-72.5 -55t-52 -78.5t-34 -91.5t-19 -94.5t-6 -86q0 -139 19 -232.5t52 -150t76 -80.5t91 -24 q25 0 43.5 3.5t35.5 7.5l43 -87q-12 -9 -29 -19t-41 -18.5t-56 -14t-74 -5.5z" />
<glyph horiz-adv-x="1299" d="M103 598q2 125 47.5 230.5t121.5 182t176.5 119.5t212.5 43q99 0 178 -24t138.5 -67t101.5 -101t68.5 -125.5t38 -142t10.5 -149.5q-2 -125 -47 -231.5t-121.5 -184t-177.5 -121t-214 -43.5q-99 0 -177 24.5t-137.5 67.5t-101.5 102t-68.5 127.5t-38 143t-10.5 149.5z M771 1024q-26 17 -57.5 26.5t-66.5 9.5q-84 0 -142 -33t-93.5 -93t-51.5 -143.5t-16 -183.5q0 -56 6 -111.5t18.5 -107.5t32 -99t45.5 -84zM517 134q56 -39 128 -39q85 0 143.5 33.5t94.5 94.5t52 145.5t16 186.5q0 56 -6.5 112t-20 108.5t-33.5 98.5t-48 83z" />
<glyph d="M200 636l250 24v662q-30 -11 -63.5 -20t-66 -16t-63 -12.5t-55.5 -9.5l-28 117q41 12 89 27t97.5 35t98.5 46t92 59h3l85 -17v-871l215 -24v-107h-654v107z" />
<glyph d="M119 631q38 24 90.5 61.5t109.5 85.5t112.5 103.5t99.5 115t71.5 120t27.5 118.5q0 36 -11.5 67t-34.5 53t-57.5 34.5t-80.5 12.5q-42 0 -82 -9.5t-74 -24.5t-61 -34t-44 -37l-69 80q18 26 54.5 56t86 55.5t109 42.5t124.5 17q86 0 149 -22.5t104.5 -61t62 -89 t20.5 -105.5q0 -48 -20.5 -101.5t-56.5 -108.5t-85 -110.5t-105.5 -108t-118 -100.5t-123.5 -88l405 33l82 138l108 -21l-51 -274h-701z" />
<glyph d="M49 795q2 4 22.5 38.5t52.5 88t72 121t82.5 138t83 139t73 124t54 92.5t25.5 45h65l122 -83l-396 -589l-61 -94l356 24l4 236l181 18v-241l172 12l2 -157h-174v-204h-185v204h-498z" />
<glyph d="M146 677q53 -20 116.5 -33.5t120.5 -13.5q153 0 229 47.5t76 149.5q0 34 -16.5 65t-46.5 54t-72 36.5t-93 11.5l-116 -43l-33 110q26 5 66 19t80 34q30 15 56.5 33t46 39.5t31 46.5t11.5 54t-7 52.5t-25.5 40t-51 25.5t-84.5 9q-33 0 -66.5 -7t-64.5 -20t-58.5 -30 t-49.5 -37l-61 96q24 24 60.5 48t81.5 43t97.5 30.5t109.5 11.5q73 0 132 -16t100.5 -45t64 -69.5t22.5 -89.5q0 -38 -10 -75.5t-36 -73t-71.5 -67.5t-115.5 -58q90 6 152 -15t100 -56t55 -79t17 -83q0 -66 -31.5 -124t-91.5 -100.5t-147.5 -67t-198.5 -24.5q-30 0 -65 3.5 t-71.5 11t-73 18t-68.5 25.5v113z" />
<glyph d="M529 513q-73 0 -148.5 16t-137 51.5t-100.5 90.5t-39 133q0 63 45 127t146 111q-31 19 -57 42t-45 51.5t-30 62.5t-11 75q0 69 29.5 120.5t79.5 86t116 52t139 17.5q83 0 150 -18t113.5 -50.5t71.5 -76.5t25 -96q0 -64 -42.5 -129t-125.5 -116q44 -20 83 -44t69 -54 t47.5 -67t18.5 -83q1 -69 -30 -124.5t-85.5 -95t-127.5 -61t-154 -21.5zM603 1107q25 16 44 37t32 43.5t19.5 45t6.5 42.5q0 43 -15 76t-41 55.5t-62 34t-78 11.5q-39 0 -72 -10.5t-57 -29t-37.5 -45t-13.5 -58.5q0 -38 23 -66.5t61 -51.5t87.5 -43t102.5 -41zM527 609 q36 0 70.5 12t61.5 33t43.5 49.5t16.5 61.5q0 29 -14 53t-38 43.5t-56.5 36t-69.5 32t-77 31t-79 33.5q-43 -26 -67.5 -69.5t-24.5 -89.5q0 -48 15 -89.5t45 -72t73.5 -47.5t100.5 -17z" />
<glyph d="M213 622q25 -7 59.5 -9t58.5 -2q72 0 135.5 17t110 48t73.5 75.5t27 99.5q0 91 -55 137.5t-160 46.5q-38 0 -72 -5t-62 -11.5t-48.5 -13.5t-30.5 -10l-75 53l50 487h623l-7 -142h-482l-34 -281q12 6 38 13t59 14t69 11.5t69 4.5q89 0 151.5 -20.5t102 -58t57.5 -90 t18 -117.5q0 -74 -38 -139.5t-106.5 -115t-163 -78.5t-208.5 -29q-43 0 -90.5 3.5t-90.5 15.5z" />
<glyph d="M349 535q61 119 109.5 222.5t93.5 205t90 207t101 227.5h-422l-51 -195l-135 11l35 322h714l37 -45l-368 -1010l-204 55v0z" />
<glyph d="M507 541q-119 0 -201.5 44t-133.5 115.5t-73.5 163.5t-21.5 188q1 120 38 216t98.5 164t143 104.5t171.5 36.5q122 0 203.5 -42t131 -114t69.5 -168t19 -203q0 -108 -34.5 -200.5t-94 -160t-140.5 -106t-175 -38.5zM514 647q69 0 113 25.5t69.5 75t35 123t9.5 169.5 q0 92 -11 171t-37 137.5t-69 91.5t-108 33q-68 0 -112 -27t-70 -79.5t-36.5 -130t-10.5 -177.5q0 -81 11.5 -155.5t38 -131.5t70 -91t107.5 -34z" />
<glyph d="M513 513q-92 0 -164.5 34t-122.5 92t-76.5 134t-26.5 159q0 94 23.5 180t64.5 161.5t97.5 138.5t122.5 111t139 79.5t148 44.5l52 -77q-94 -29 -164.5 -74.5t-121.5 -102.5t-84.5 -121t-51.5 -129q36 38 99 64.5t145 26.5q78 0 137 -26t99 -71.5t60 -109t20 -138.5 t-25.5 -143t-75.5 -119.5t-124 -82.5t-170 -31zM528 614q53 0 87.5 20.5t55 54.5t28.5 77t8 87q0 72 -15 121.5t-40.5 80.5t-58 44.5t-67.5 13.5q-78 0 -127.5 -27t-73.5 -65q-3 -21 -3 -42q-2 -67 7 -132.5t33 -117t64.5 -83.5t101.5 -32z" />
<glyph d="M283 526q90 27 157 69t115 93t78.5 109.5t47.5 118.5q-32 -39 -87.5 -63t-134.5 -24q-72 0 -133 27t-106 75t-70 114t-25 144q0 76 29.5 141.5t82 114t125.5 76.5t160 28q90 0 160.5 -35.5t119.5 -95t75 -137t26 -161.5q0 -141 -47 -256.5t-125.5 -201t-181 -140 t-214.5 -73.5zM515 949q73 0 117 25t70 67q1 14 1.5 26.5t0.5 26.5q0 79 -12 144t-37.5 111t-64.5 71.5t-93 25.5q-44 0 -77 -16.5t-55 -46t-33.5 -70.5t-11.5 -90q0 -79 17.5 -132t45.5 -84.5t62.5 -44.5t69.5 -13z" />
<glyph d="M507 12q-119 0 -201.5 44t-133.5 115.5t-73.5 163.5t-21.5 188q1 120 38 216t98.5 164t143 104.5t171.5 36.5q122 0 203.5 -42t131 -114t69.5 -168t19 -203q0 -108 -34.5 -200.5t-94 -160t-140.5 -106t-175 -38.5zM514 118q69 0 113 25.5t69.5 75t35 123t9.5 169.5 q0 92 -11 171t-37 137.5t-69 91.5t-108 33q-68 0 -112 -27t-70 -79.5t-36.5 -130t-10.5 -177.5q0 -81 11.5 -155.5t38 -131.5t70 -91t107.5 -34z" />
<glyph d="M200 107l250 24v662q-30 -11 -63.5 -20t-66 -16t-63 -12.5t-55.5 -9.5l-28 117q41 12 89 27t97.5 35t98.5 46t92 59h3l85 -17v-871l215 -24v-107h-654v107z" />
<glyph d="M119 102q38 24 90.5 61.5t109.5 85.5t112.5 103.5t99.5 115t71.5 120t27.5 118.5q0 36 -11.5 67t-34.5 53t-57.5 34.5t-80.5 12.5q-42 0 -82 -9.5t-74 -24.5t-61 -34t-44 -37l-69 80q18 26 54.5 56t86 55.5t109 42.5t124.5 17q86 0 149 -22.5t104.5 -61t62 -89 t20.5 -105.5q0 -48 -20.5 -101.5t-56.5 -108.5t-85 -110.5t-105.5 -108t-118 -100.5t-123.5 -88l405 33l82 138l108 -21l-51 -274h-701z" />
<glyph d="M146 148q53 -20 116.5 -33.5t120.5 -13.5q153 0 229 47.5t76 149.5q0 34 -16.5 65t-46.5 54t-72 36.5t-93 11.5l-116 -43l-33 110q26 5 66 19t80 34q30 15 56.5 33t46 39.5t31 46.5t11.5 54t-7 52.5t-25.5 40t-51 25.5t-84.5 9q-33 0 -66.5 -7t-64.5 -20t-58.5 -30 t-49.5 -37l-61 96q24 24 60.5 48t81.5 43t97.5 30.5t109.5 11.5q73 0 132 -16t100.5 -45t64 -69.5t22.5 -89.5q0 -38 -10 -75.5t-36 -73t-71.5 -67.5t-115.5 -58q90 6 152 -15t100 -56t55 -79t17 -83q0 -66 -31.5 -124t-91.5 -100.5t-147.5 -67t-198.5 -24.5q-30 0 -65 3.5 t-71.5 11t-73 18t-68.5 25.5v113z" />
<glyph d="M49 266q2 4 22.5 38.5t52.5 88t72 121t82.5 138t83 139t73 124t54 92.5t25.5 45h65l122 -83l-396 -589l-61 -94l356 24l4 236l181 18v-241l172 12l2 -157h-174v-204h-185v204h-498z" />
<glyph d="M213 93q25 -7 59.5 -9t58.5 -2q72 0 135.5 17t110 48t73.5 75.5t27 99.5q0 91 -55 137.5t-160 46.5q-38 0 -72 -5t-62 -11.5t-48.5 -13.5t-30.5 -10l-75 53l50 487h623l-7 -142h-482l-34 -281q12 6 38 13t59 14t69 11.5t69 4.5q89 0 151.5 -20.5t102 -58t57.5 -90 t18 -117.5q0 -74 -38 -139.5t-106.5 -115t-163 -78.5t-208.5 -29q-43 0 -90.5 3.5t-90.5 15.5z" />
<glyph d="M513 -16q-92 0 -164.5 34t-122.5 92t-76.5 134t-26.5 159q0 94 23.5 180t64.5 161.5t97.5 138.5t122.5 111t139 79.5t148 44.5l52 -77q-94 -29 -164.5 -74.5t-121.5 -102.5t-84.5 -121t-51.5 -129q36 38 99 64.5t145 26.5q78 0 137 -26t99 -71.5t60 -109t20 -138.5 t-25.5 -143t-75.5 -119.5t-124 -82.5t-170 -31zM528 85q53 0 87.5 20.5t55 54.5t28.5 77t8 87q0 72 -15 121.5t-40.5 80.5t-58 44.5t-67.5 13.5q-78 0 -127.5 -27t-73.5 -65q-3 -21 -3 -42q-2 -67 7 -132.5t33 -117t64.5 -83.5t101.5 -32z" />
<glyph d="M349 6q61 119 109.5 222.5t93.5 205t90 207t101 227.5h-422l-51 -195l-135 11l35 322h714l37 -45l-368 -1010l-204 55v0z" />
<glyph d="M529 -16q-73 0 -148.5 16t-137 51.5t-100.5 90.5t-39 133q0 63 45 127t146 111q-31 19 -57 42t-45 51.5t-30 62.5t-11 75q0 69 29.5 120.5t79.5 86t116 52t139 17.5q83 0 150 -18t113.5 -50.5t71.5 -76.5t25 -96q0 -64 -42.5 -129t-125.5 -116q44 -20 83 -44t69 -54 t47.5 -67t18.5 -83q1 -69 -30 -124.5t-85.5 -95t-127.5 -61t-154 -21.5zM603 578q25 16 44 37t32 43.5t19.5 45t6.5 42.5q0 43 -15 76t-41 55.5t-62 34t-78 11.5q-39 0 -72 -10.5t-57 -29t-37.5 -45t-13.5 -58.5q0 -38 23 -66.5t61 -51.5t87.5 -43t102.5 -41zM527 80 q36 0 70.5 12t61.5 33t43.5 49.5t16.5 61.5q0 29 -14 53t-38 43.5t-56.5 36t-69.5 32t-77 31t-79 33.5q-43 -26 -67.5 -69.5t-24.5 -89.5q0 -48 15 -89.5t45 -72t73.5 -47.5t100.5 -17z" />
<glyph d="M283 -3q90 27 157 69t115 93t78.5 109.5t47.5 118.5q-32 -39 -87.5 -63t-134.5 -24q-72 0 -133 27t-106 75t-70 114t-25 144q0 76 29.5 141.5t82 114t125.5 76.5t160 28q90 0 160.5 -35.5t119.5 -95t75 -137t26 -161.5q0 -141 -47 -256.5t-125.5 -201t-181 -140 t-214.5 -73.5zM515 420q73 0 117 25t70 67q1 14 1.5 26.5t0.5 26.5q0 79 -12 144t-37.5 111t-64.5 71.5t-93 25.5q-44 0 -77 -16.5t-55 -46t-33.5 -70.5t-11.5 -90q0 -79 17.5 -132t45.5 -84.5t62.5 -44.5t69.5 -13z" />
<glyph horiz-adv-x="1056" d="M519 1701l334 313h1l152 -132q-17 -24 -47 -50t-68 -51.5t-80.5 -49.5t-82 -43.5t-74 -34t-56.5 -20.5h-1z" />
<glyph horiz-adv-x="1055" d="M481 1633q-22 6 -56.5 20.5t-74.5 34t-82 43.5t-80 49.5t-68.5 51.5t-46.5 50l152 132h1l333 -313l-77 -68h-1v0z" />
<glyph horiz-adv-x="574" d="M277 1695q-29 0 -53 10.5t-41 29t-26 44t-9 54.5q0 32 9.5 61t28 51.5t46.5 36t65 13.5h1q33 0 58 -12t42.5 -31.5t26.5 -44.5t9 -52q0 -34 -10 -63t-29.5 -50.5t-48.5 -34t-68 -12.5h-1v0z" />
<glyph horiz-adv-x="1020" d="M744 1690q-29 0 -53 10.5t-41 29.5t-26 44.5t-9 54.5q0 32 9.5 61t28 51.5t46.5 36t65 13.5h1q33 0 58 -12t42.5 -31.5t26.5 -45t9 -51.5q0 -34 -10 -63.5t-29.5 -51t-48.5 -34t-68 -12.5h-1zM248 1690q-29 0 -53 10.5t-40.5 29.5t-25.5 44.5t-9 54.5q0 32 9.5 61 t28 51.5t46.5 36t65 13.5h1q32 0 57 -12t42.5 -31.5t26.5 -45t9 -51.5q0 -34 -9.5 -63.5t-29 -51t-49 -34t-68.5 -12.5h-1z" />
<glyph horiz-adv-x="679" d="M-3 1954l93 60l250 -184l258 184l86 -57l-247 -278h-193z" />
<glyph horiz-adv-x="1062" d="M170 1712l265 302h192l267 -300l-93 -59l-270 198l-275 -198z" />
<glyph horiz-adv-x="681" d="M66 1912h557v-161h-557v161z" />
<glyph horiz-adv-x="1022" d="M511 1643q-82 0 -145 24.5t-106 66.5t-65 99t-22 122v21t2 21h121q0 -4 0.5 -11t2.5 -16q4 -20 15 -46.5t35 -50.5t63.5 -40.5t100.5 -16.5t100 17t62.5 41t33.5 50.5t13 46.5q2 10 2 16v10h118q2 -11 2 -20.5v-20.5q0 -65 -22.5 -122t-65 -99.5t-104.5 -67t-141 -24.5z " />
<glyph horiz-adv-x="1022" d="M80 1796q9 34 34.5 71.5t63.5 69.5t87 53t106 21q41 0 73.5 -12t59.5 -30.5t49.5 -40t45 -40t45.5 -30.5t50 -12q34 0 58.5 14t41 33t27 39t18.5 32l103 -63q-15 -41 -38.5 -80t-57 -69t-76.5 -48t-95 -18q-41 0 -73.5 12t-60.5 30.5t-52 40t-48.5 40t-49.5 30.5t-55 12 q-34 0 -59.5 -14t-44 -33.5t-31 -39.5t-19.5 -31z" />
<glyph horiz-adv-x="734" d="M364 1508q-84 0 -145.5 20t-102 55t-59.5 81.5t-18 99.5q1 62 31 108.5t77.5 78t108 47.5t122.5 16h1q78 0 137.5 -19t99.5 -53t60 -81t20 -102q-1 -60 -28 -107t-72.5 -79t-105 -48.5t-125.5 -16.5h-1zM370 1609q46 0 77 9.5t50.5 28t28 45t8.5 60.5q0 33 -9 62 t-28.5 50.5t-50.5 34.5t-75 13h-1q-91 0 -130 -39.5t-39 -108.5q0 -30 10 -57.5t30.5 -49.5t52 -35t75.5 -13h1z" />
<glyph horiz-adv-x="1020" d="M633 1721l293 293l136 -125q-31 -37 -73.5 -73.5t-88.5 -70t-91.5 -61t-81.5 -46.5zM133 1721l278 293l147 -125q-36 -41 -79.5 -78t-87.5 -69.5t-87 -58.5t-77 -45z" />
<glyph horiz-adv-x="342" d="M85 1070l-5 26q18 68 24.5 133.5t6.5 117.5q0 45 -5 86t-12.5 75t-16.5 58.5t-18 35.5l15 42l169 41q14 -14 26 -39.5t20.5 -58t13 -69t4.5 -73.5q0 -60 -10.5 -123t-28 -119.5t-41 -100.5t-49.5 -67z" />
<glyph horiz-adv-x="1522" d="M906 110l165 17v832l-140 44v120l306 41h5l53 -40v-998l162 -16v-110h-551v110zM98 109l168 19v861h-193v98l193 48v95q0 98 42 182.5t109.5 147t152 98t169.5 35.5q49 0 74.5 -5t43.5 -11v-225q-9 7 -26.5 16.5t-42.5 18t-55 14.5t-64 6q-42 0 -75 -7t-56.5 -28 t-36 -58.5t-12.5 -97.5l1 -181h272v-146h-272v-862l214 -18v-109h-606v109z" />
<glyph horiz-adv-x="2354" d="M98 109l168 19v861h-193v98l193 48v73q0 65 19.5 124t53 110t79 92.5t98 71t109.5 45.5t114 16q49 0 74.5 -5t43.5 -11v-224q-9 7 -26.5 16t-42.5 17.5t-55 14.5t-64 6q-42 0 -75 -7t-56.5 -28t-36 -58.5t-12.5 -97.5l1 -155h272v-146h-272v-862l214 -18v-109h-606v109z M1738 110l165 17v832l-140 44v120l306 41h5l53 -40v-998l162 -16v-110h-551v110zM929 109l168 19v861h-193v98l193 48v95q0 98 42 182.5t109.5 147t152 98t169.5 35.5q49 0 74.5 -5t43.5 -11v-225q-9 7 -26.5 16.5t-42.5 18t-55 14.5t-64 6q-42 0 -75 -7t-56.5 -28 t-36 -58.5t-12.5 -97.5l1 -181h272v-146h-272v-862l214 -18v-109h-606v109z" />
<glyph horiz-adv-x="0" />
</font>
</defs>
</svg>
