<?xml version="1.0" standalone="no"?>
<!DOCTYPE svg PUBLIC "-//W3C//DTD SVG 1.1//EN" "http://www.w3.org/Graphics/SVG/1.1/DTD/svg11.dtd">
<svg width="198.0mm" height="82.0000000000009mm"
 viewBox="0 0 198.0 82.0000000000009"
 xmlns="http://www.w3.org/2000/svg" version="1.1"
 xmlns:xlink="http://www.w3.org/1999/xlink">
<desc>Output from Flights of Ideas SVG Sketchup Plugin</desc>

  <g id="face0" fill="none" stroke="rgb(0,0,255)" stroke-width="1" stroke-miterlimit="4" stroke-dasharray="none" stroke-linejoin="round" stroke-linecap="round">
    <line x1="94.0000000000001" y1="1.0" x2="1.00000000000003" y2="1.00000000000001"/>
    <line x1="1.00000000000003" y1="1.00000000000001" x2="1.0" y2="81.0000000000009"/>
    <line x1="1.0" y1="81.0000000000009" x2="197.0" y2="81.0000000000008"/>
    <line x1="197.0" y1="81.0000000000008" x2="197.0" y2="13.0000000000009"/>
    <line x1="197.0" y1="13.0000000000009" x2="94.0" y2="13.0000000000009"/>
    <line x1="94.0" y1="13.0000000000009" x2="94.0000000000001" y2="1.0"/>
    <line x1="114.0" y1="16.0000000000009" x2="114.0" y2="19.0000000000009"/>
    <line x1="114.0" y1="19.0000000000009" x2="104.0" y2="19.0000000000009"/>
    <line x1="104.0" y1="19.0000000000009" x2="104.0" y2="16.0000000000009"/>
    <line x1="104.0" y1="16.0000000000009" x2="114.0" y2="16.0000000000009"/>
    <line x1="177.0" y1="16.0000000000008" x2="187.0" y2="16.0000000000008"/>
    <line x1="187.0" y1="16.0000000000008" x2="187.0" y2="19.0000000000008"/>
    <line x1="187.0" y1="19.0000000000008" x2="177.0" y2="19.0000000000009"/>
    <line x1="177.0" y1="19.0000000000009" x2="177.0" y2="16.0000000000008"/>
    <line x1="194.0" y1="24.0000000000008" x2="194.0" y2="34.0000000000009"/>
    <line x1="194.0" y1="34.0000000000009" x2="191.0" y2="34.0000000000008"/>
    <line x1="191.0" y1="34.0000000000008" x2="191.0" y2="24.0000000000008"/>
    <line x1="191.0" y1="24.0000000000008" x2="194.0" y2="24.0000000000008"/>
    <line x1="194.0" y1="66.000000000001" x2="194.0" y2="76.0000000000009"/>
    <line x1="194.0" y1="76.0000000000009" x2="191.0" y2="76.0000000000009"/>
    <line x1="191.0" y1="76.0000000000009" x2="191.0" y2="66.000000000001"/>
    <line x1="191.0" y1="66.000000000001" x2="194.0" y2="66.000000000001"/>
    <line x1="91.0000000000001" y1="21.0000000000009" x2="94.0000000000001" y2="21.0000000000009"/>
    <line x1="94.0000000000001" y1="21.0000000000009" x2="94.0000000000001" y2="31.0000000000009"/>
    <line x1="94.0000000000001" y1="31.0000000000009" x2="91.0000000000001" y2="31.0000000000009"/>
    <line x1="91.0000000000001" y1="31.0000000000009" x2="91.0000000000001" y2="21.0000000000009"/>
    <line x1="91.0000000000001" y1="76.000000000001" x2="91.0000000000001" y2="66.0000000000009"/>
    <line x1="91.0000000000001" y1="66.0000000000009" x2="94.0000000000001" y2="66.0000000000009"/>
    <line x1="94.0000000000001" y1="66.0000000000009" x2="94.0000000000001" y2="76.000000000001"/>
    <line x1="94.0000000000001" y1="76.000000000001" x2="91.0000000000001" y2="76.000000000001"/>
    <line x1="4.00000000000011" y1="31.0000000000009" x2="4.00000000000011" y2="21.0000000000009"/>
    <line x1="4.00000000000011" y1="21.0000000000009" x2="7.00000000000009" y2="21.0000000000009"/>
    <line x1="7.00000000000009" y1="21.0000000000009" x2="7.00000000000009" y2="31.0000000000009"/>
    <line x1="7.00000000000009" y1="31.0000000000009" x2="4.00000000000011" y2="31.0000000000009"/>
    <line x1="7.00000000000009" y1="76.000000000001" x2="4.00000000000011" y2="76.000000000001"/>
    <line x1="4.00000000000011" y1="76.000000000001" x2="4.00000000000011" y2="66.000000000001"/>
    <line x1="4.00000000000011" y1="66.000000000001" x2="7.00000000000009" y2="66.000000000001"/>
    <line x1="7.00000000000009" y1="66.000000000001" x2="7.00000000000009" y2="76.000000000001"/>
    <line x1="192.888228567654" y1="49.9488887394345" x2="192.5" y2="50.0000000000009"/>
    <line x1="192.5" y1="50.0000000000009" x2="192.111771432346" y2="49.9488887394345"/>
    <line x1="192.111771432346" y1="49.9488887394345" x2="191.75" y2="49.7990381056776"/>
    <line x1="191.75" y1="49.7990381056776" x2="191.43933982822" y2="49.5606601717807"/>
    <line x1="191.43933982822" y1="49.5606601717807" x2="191.200961894323" y2="49.250000000001"/>
    <line x1="191.200961894323" y1="49.250000000001" x2="191.051111260566" y2="48.8882285676547"/>
    <line x1="191.051111260566" y1="48.8882285676547" x2="191.0" y2="48.500000000001"/>
    <line x1="191.0" y1="48.500000000001" x2="191.051111260566" y2="48.1117714323471"/>
    <line x1="191.051111260566" y1="48.1117714323471" x2="191.200961894323" y2="47.7500000000009"/>
    <line x1="191.200961894323" y1="47.7500000000009" x2="191.43933982822" y2="47.4393398282211"/>
    <line x1="191.43933982822" y1="47.4393398282211" x2="191.75" y2="47.2009618943243"/>
    <line x1="191.75" y1="47.2009618943243" x2="192.111771432346" y2="47.0511112605673"/>
    <line x1="192.111771432346" y1="47.0511112605673" x2="192.5" y2="47.0000000000009"/>
    <line x1="192.5" y1="47.0000000000009" x2="192.888228567654" y2="47.0511112605673"/>
    <line x1="192.888228567654" y1="47.0511112605673" x2="193.25" y2="47.2009618943243"/>
    <line x1="193.25" y1="47.2009618943243" x2="193.56066017178" y2="47.4393398282211"/>
    <line x1="193.56066017178" y1="47.4393398282211" x2="193.799038105677" y2="47.7500000000009"/>
    <line x1="193.799038105677" y1="47.7500000000009" x2="193.948888739434" y2="48.1117714323471"/>
    <line x1="193.948888739434" y1="48.1117714323471" x2="194.0" y2="48.5000000000009"/>
    <line x1="194.0" y1="48.5000000000009" x2="193.948888739434" y2="48.8882285676547"/>
    <line x1="193.948888739434" y1="48.8882285676547" x2="193.799038105677" y2="49.250000000001"/>
    <line x1="193.799038105677" y1="49.250000000001" x2="193.56066017178" y2="49.5606601717808"/>
    <line x1="193.56066017178" y1="49.5606601717808" x2="193.25" y2="49.7990381056776"/>
    <line x1="193.25" y1="49.7990381056776" x2="192.888228567654" y2="49.9488887394345"/>
    <line x1="5.11177143234633" y1="47.0511112605673" x2="5.50000000000011" y2="47.000000000001"/>
    <line x1="5.50000000000011" y1="47.000000000001" x2="5.88822856765387" y2="47.0511112605673"/>
    <line x1="5.88822856765387" y1="47.0511112605673" x2="6.25000000000009" y2="47.2009618943243"/>
    <line x1="6.25000000000009" y1="47.2009618943243" x2="6.56066017177992" y2="47.4393398282212"/>
    <line x1="6.56066017177992" y1="47.4393398282212" x2="6.79903810567674" y2="47.750000000001"/>
    <line x1="6.79903810567674" y1="47.750000000001" x2="6.9488887394337" y2="48.1117714323473"/>
    <line x1="6.9488887394337" y1="48.1117714323473" x2="7.00000000000009" y2="48.500000000001"/>
    <line x1="7.00000000000009" y1="48.500000000001" x2="6.94888873943367" y2="48.8882285676548"/>
    <line x1="6.94888873943367" y1="48.8882285676548" x2="6.79903810567674" y2="49.250000000001"/>
    <line x1="6.79903810567674" y1="49.250000000001" x2="6.56066017177992" y2="49.5606601717808"/>
    <line x1="6.56066017177992" y1="49.5606601717808" x2="6.25000000000009" y2="49.7990381056776"/>
    <line x1="6.25000000000009" y1="49.7990381056776" x2="5.88822856765387" y2="49.9488887394346"/>
    <line x1="5.88822856765387" y1="49.9488887394346" x2="5.50000000000009" y2="50.000000000001"/>
    <line x1="5.50000000000009" y1="50.000000000001" x2="5.11177143234633" y2="49.9488887394346"/>
    <line x1="5.11177143234633" y1="49.9488887394346" x2="4.75000000000011" y2="49.7990381056776"/>
    <line x1="4.75000000000011" y1="49.7990381056776" x2="4.43933982822028" y2="49.5606601717808"/>
    <line x1="4.43933982822028" y1="49.5606601717808" x2="4.20096189432346" y2="49.250000000001"/>
    <line x1="4.20096189432346" y1="49.250000000001" x2="4.0511112605665" y2="48.8882285676548"/>
    <line x1="4.0511112605665" y1="48.8882285676548" x2="4.00000000000011" y2="48.500000000001"/>
    <line x1="4.00000000000011" y1="48.500000000001" x2="4.05111126056653" y2="48.1117714323473"/>
    <line x1="4.05111126056653" y1="48.1117714323473" x2="4.20096189432346" y2="47.750000000001"/>
    <line x1="4.20096189432346" y1="47.750000000001" x2="4.43933982822028" y2="47.4393398282212"/>
    <line x1="4.43933982822028" y1="47.4393398282212" x2="4.75000000000011" y2="47.2009618943244"/>
    <line x1="4.75000000000011" y1="47.2009618943244" x2="5.11177143234633" y2="47.0511112605673"/>
    <line x1="92.1117714323463" y1="47.0511112605674" x2="92.5000000000001" y2="47.000000000001"/>
    <line x1="92.5000000000001" y1="47.000000000001" x2="92.8882285676539" y2="47.0511112605674"/>
    <line x1="92.8882285676539" y1="47.0511112605674" x2="93.2500000000001" y2="47.2009618943243"/>
    <line x1="93.2500000000001" y1="47.2009618943243" x2="93.5606601717799" y2="47.4393398282211"/>
    <line x1="93.5606601717799" y1="47.4393398282211" x2="93.7990381056768" y2="47.750000000001"/>
    <line x1="93.7990381056768" y1="47.750000000001" x2="93.9488887394338" y2="48.1117714323472"/>
    <line x1="93.9488887394338" y1="48.1117714323472" x2="94.0000000000001" y2="48.500000000001"/>
    <line x1="94.0000000000001" y1="48.500000000001" x2="93.9488887394338" y2="48.8882285676547"/>
    <line x1="93.9488887394338" y1="48.8882285676547" x2="93.7990381056768" y2="49.250000000001"/>
    <line x1="93.7990381056768" y1="49.250000000001" x2="93.5606601717799" y2="49.5606601717808"/>
    <line x1="93.5606601717799" y1="49.5606601717808" x2="93.2500000000001" y2="49.7990381056776"/>
    <line x1="93.2500000000001" y1="49.7990381056776" x2="92.8882285676539" y2="49.9488887394346"/>
    <line x1="92.8882285676539" y1="49.9488887394346" x2="92.5000000000001" y2="50.000000000001"/>
    <line x1="92.5000000000001" y1="50.000000000001" x2="92.1117714323463" y2="49.9488887394346"/>
    <line x1="92.1117714323463" y1="49.9488887394346" x2="91.7500000000001" y2="49.7990381056776"/>
    <line x1="91.7500000000001" y1="49.7990381056776" x2="91.4393398282203" y2="49.5606601717808"/>
    <line x1="91.4393398282203" y1="49.5606601717808" x2="91.2009618943235" y2="49.250000000001"/>
    <line x1="91.2009618943235" y1="49.250000000001" x2="91.0511112605665" y2="48.8882285676547"/>
    <line x1="91.0511112605665" y1="48.8882285676547" x2="91.0000000000001" y2="48.500000000001"/>
    <line x1="91.0000000000001" y1="48.500000000001" x2="91.0511112605665" y2="48.1117714323472"/>
    <line x1="91.0511112605665" y1="48.1117714323472" x2="91.2009618943235" y2="47.750000000001"/>
    <line x1="91.2009618943235" y1="47.750000000001" x2="91.4393398282203" y2="47.4393398282211"/>
    <line x1="91.4393398282203" y1="47.4393398282211" x2="91.7500000000001" y2="47.2009618943243"/>
    <line x1="91.7500000000001" y1="47.2009618943243" x2="92.1117714323463" y2="47.0511112605674"/>
    <line x1="174.748888739426" y1="25.4882285676573" x2="174.599038105669" y2="25.8500000000035"/>
    <line x1="174.599038105669" y1="25.8500000000035" x2="174.360660171772" y2="26.1606601717833"/>
    <line x1="174.360660171772" y1="26.1606601717833" x2="174.049999999992" y2="26.3990381056801"/>
    <line x1="174.049999999992" y1="26.3990381056801" x2="173.688228567646" y2="26.5488887394371"/>
    <line x1="173.688228567646" y1="26.5488887394371" x2="173.299999999992" y2="26.6000000000034"/>
    <line x1="173.299999999992" y1="26.6000000000034" x2="172.911771432338" y2="26.5488887394371"/>
    <line x1="172.911771432338" y1="26.5488887394371" x2="172.549999999992" y2="26.3990381056801"/>
    <line x1="172.549999999992" y1="26.3990381056801" x2="172.239339828212" y2="26.1606601717833"/>
    <line x1="172.239339828212" y1="26.1606601717833" x2="172.000961894315" y2="25.8500000000034"/>
    <line x1="172.000961894315" y1="25.8500000000034" x2="171.851111260558" y2="25.4882285676573"/>
    <line x1="171.851111260558" y1="25.4882285676573" x2="171.799999999992" y2="25.1000000000035"/>
    <line x1="171.799999999992" y1="25.1000000000035" x2="171.851111260558" y2="24.7117714323497"/>
    <line x1="171.851111260558" y1="24.7117714323497" x2="172.000961894315" y2="24.3500000000035"/>
    <line x1="172.000961894315" y1="24.3500000000035" x2="172.239339828212" y2="24.0393398282237"/>
    <line x1="172.239339828212" y1="24.0393398282237" x2="172.549999999992" y2="23.8009618943268"/>
    <line x1="172.549999999992" y1="23.8009618943268" x2="172.911771432338" y2="23.6511112605699"/>
    <line x1="172.911771432338" y1="23.6511112605699" x2="173.299999999992" y2="23.6000000000035"/>
    <line x1="173.299999999992" y1="23.6000000000035" x2="173.688228567646" y2="23.6511112605698"/>
    <line x1="173.688228567646" y1="23.6511112605698" x2="174.049999999992" y2="23.8009618943269"/>
    <line x1="174.049999999992" y1="23.8009618943269" x2="174.360660171772" y2="24.0393398282237"/>
    <line x1="174.360660171772" y1="24.0393398282237" x2="174.599038105669" y2="24.3500000000035"/>
    <line x1="174.599038105669" y1="24.3500000000035" x2="174.748888739426" y2="24.7117714323497"/>
    <line x1="174.748888739426" y1="24.7117714323497" x2="174.799999999992" y2="25.1000000000034"/>
    <line x1="174.799999999992" y1="25.1000000000034" x2="174.748888739426" y2="25.4882285676573"/>
    <line x1="121.892301640279" y1="31.8550000000119" x2="121.741452002297" y2="31.4908167581168"/>
    <line x1="121.741452002297" y1="31.4908167581168" x2="121.689999999993" y2="31.100000000012"/>
    <line x1="121.689999999993" y1="31.100000000012" x2="121.741452002296" y2="30.7091832419071"/>
    <line x1="121.741452002296" y1="30.7091832419071" x2="121.892301640278" y2="30.345000000012"/>
    <line x1="121.892301640278" y1="30.345000000012" x2="122.132268760401" y2="30.0322687604203"/>
    <line x1="122.132268760401" y1="30.0322687604203" x2="122.444999999993" y2="29.7923016402974"/>
    <line x1="122.444999999993" y1="29.7923016402974" x2="122.809183241888" y2="29.6414520023154"/>
    <line x1="122.809183241888" y1="29.6414520023154" x2="123.199999999993" y2="29.5900000000118"/>
    <line x1="123.199999999993" y1="29.5900000000118" x2="123.590816758097" y2="29.6414520023152"/>
    <line x1="123.590816758097" y1="29.6414520023152" x2="123.954999999993" y2="29.7923016402972"/>
    <line x1="123.954999999993" y1="29.7923016402972" x2="124.267731239584" y2="30.0322687604199"/>
    <line x1="124.267731239584" y1="30.0322687604199" x2="124.507698359707" y2="30.3450000000116"/>
    <line x1="124.507698359707" y1="30.3450000000116" x2="124.658547997689" y2="30.7091832419067"/>
    <line x1="124.658547997689" y1="30.7091832419067" x2="124.709999999993" y2="31.1000000000115"/>
    <line x1="124.709999999993" y1="31.1000000000115" x2="124.658547997689" y2="31.4908167581163"/>
    <line x1="124.658547997689" y1="31.4908167581163" x2="124.507698359707" y2="31.8550000000114"/>
    <line x1="124.507698359707" y1="31.8550000000114" x2="124.267731239585" y2="32.1677312396032"/>
    <line x1="124.267731239585" y1="32.1677312396032" x2="123.954999999993" y2="32.407698359726"/>
    <line x1="123.954999999993" y1="32.407698359726" x2="123.590816758098" y2="32.5585479977081"/>
    <line x1="123.590816758098" y1="32.5585479977081" x2="123.199999999993" y2="32.6100000000117"/>
    <line x1="123.199999999993" y1="32.6100000000117" x2="122.809183241888" y2="32.5585479977082"/>
    <line x1="122.809183241888" y1="32.5585479977082" x2="122.444999999993" y2="32.4076983597263"/>
    <line x1="122.444999999993" y1="32.4076983597263" x2="122.132268760401" y2="32.1677312396035"/>
    <line x1="122.132268760401" y1="32.1677312396035" x2="121.892301640279" y2="31.8550000000119"/>
    <line x1="121.39002184726" y1="58.957498691128" x2="121.443575414588" y2="58.5669643618009"/>
    <line x1="121.443575414588" y1="58.5669643618009" x2="121.596381910557" y2="58.2035978502091"/>
    <line x1="121.596381910557" y1="58.2035978502091" x2="121.83802782499" y2="57.8921619836261"/>
    <line x1="121.83802782499" y1="57.8921619836261" x2="122.152045388158" y2="57.6538806016874"/>
    <line x1="122.152045388158" y1="57.6538806016874" x2="122.51703482207" y2="57.5049921867936"/>
    <line x1="122.51703482207" y1="57.5049921867936" x2="122.908122699977" y2="57.4556432383699"/>
    <line x1="122.908122699977" y1="57.4556432383699" x2="123.298657029304" y2="57.5091968056984"/>
    <line x1="123.298657029304" y1="57.5091968056984" x2="123.662023540896" y2="57.662003301667"/>
    <line x1="123.662023540896" y1="57.662003301667" x2="123.973459407479" y2="57.9036492161003"/>
    <line x1="123.973459407479" y1="57.9036492161003" x2="124.211740789417" y2="58.2176667792683"/>
    <line x1="124.211740789417" y1="58.2176667792683" x2="124.360629204311" y2="58.5826562131798"/>
    <line x1="124.360629204311" y1="58.5826562131798" x2="124.409978152735" y2="58.9737440910871"/>
    <line x1="124.409978152735" y1="58.9737440910871" x2="124.356424585407" y2="59.3642784204142"/>
    <line x1="124.356424585407" y1="59.3642784204142" x2="124.203618089438" y2="59.727644932006"/>
    <line x1="124.203618089438" y1="59.727644932006" x2="123.961972175005" y2="60.0390807985889"/>
    <line x1="123.961972175005" y1="60.0390807985889" x2="123.647954611837" y2="60.2773621805276"/>
    <line x1="123.647954611837" y1="60.2773621805276" x2="123.282965177925" y2="60.4262505954214"/>
    <line x1="123.282965177925" y1="60.4262505954214" x2="122.891877300018" y2="60.4755995438451"/>
    <line x1="122.891877300018" y1="60.4755995438451" x2="122.501342970691" y2="60.4220459765167"/>
    <line x1="122.501342970691" y1="60.4220459765167" x2="122.137976459099" y2="60.2692394805481"/>
    <line x1="122.137976459099" y1="60.2692394805481" x2="121.826540592516" y2="60.0275935661148"/>
    <line x1="121.826540592516" y1="60.0275935661148" x2="121.588259210577" y2="59.7135760029467"/>
    <line x1="121.588259210577" y1="59.7135760029467" x2="121.439370795684" y2="59.3485865690353"/>
    <line x1="121.439370795684" y1="59.3485865690353" x2="121.39002184726" y2="58.957498691128"/>
    <line x1="173.767731239592" y1="74.2677312395949" x2="173.455" y2="74.5076983597178"/>
    <line x1="173.455" y1="74.5076983597178" x2="173.090816758105" y2="74.6585479976999"/>
    <line x1="173.090816758105" y1="74.6585479976999" x2="172.7" y2="74.7100000000034"/>
    <line x1="172.7" y1="74.7100000000034" x2="172.309183241895" y2="74.6585479977"/>
    <line x1="172.309183241895" y1="74.6585479977" x2="171.945" y2="74.507698359718"/>
    <line x1="171.945" y1="74.507698359718" x2="171.632268760408" y2="74.2677312395953"/>
    <line x1="171.632268760408" y1="74.2677312395953" x2="171.392301640285" y2="73.9550000000037"/>
    <line x1="171.392301640285" y1="73.9550000000037" x2="171.241452002303" y2="73.5908167581085"/>
    <line x1="171.241452002303" y1="73.5908167581085" x2="171.19" y2="73.2000000000037"/>
    <line x1="171.19" y1="73.2000000000037" x2="171.241452002303" y2="72.8091832418989"/>
    <line x1="171.241452002303" y1="72.8091832418989" x2="171.392301640285" y2="72.4450000000037"/>
    <line x1="171.392301640285" y1="72.4450000000037" x2="171.632268760408" y2="72.132268760412"/>
    <line x1="171.632268760408" y1="72.132268760412" x2="171.945" y2="71.8923016402891"/>
    <line x1="171.945" y1="71.8923016402891" x2="172.309183241895" y2="71.741452002307"/>
    <line x1="172.309183241895" y1="71.741452002307" x2="172.699999999999" y2="71.6900000000035"/>
    <line x1="172.699999999999" y1="71.6900000000035" x2="173.090816758104" y2="71.741452002307"/>
    <line x1="173.090816758104" y1="71.741452002307" x2="173.454999999999" y2="71.8923016402889"/>
    <line x1="173.454999999999" y1="71.8923016402889" x2="173.767731239591" y2="72.1322687604116"/>
    <line x1="173.767731239591" y1="72.1322687604116" x2="174.007698359714" y2="72.4450000000033"/>
    <line x1="174.007698359714" y1="72.4450000000033" x2="174.158547997696" y2="72.8091832418985"/>
    <line x1="174.158547997696" y1="72.8091832418985" x2="174.21" y2="73.2000000000032"/>
    <line x1="174.21" y1="73.2000000000032" x2="174.158547997696" y2="73.590816758108"/>
    <line x1="174.158547997696" y1="73.590816758108" x2="174.007698359714" y2="73.9550000000032"/>
    <line x1="174.007698359714" y1="73.9550000000032" x2="173.767731239592" y2="74.2677312395949"/>
    <line x1="89.0" y1="13.0000000000009" x2="89.0" y2="16.0000000000009"/>
    <line x1="89.0" y1="16.0000000000009" x2="79.0" y2="16.0000000000009"/>
    <line x1="79.0" y1="16.0000000000009" x2="79.0" y2="13.0000000000009"/>
    <line x1="79.0" y1="13.0000000000009" x2="89.0" y2="13.0000000000009"/>
    <line x1="9.0" y1="13.0000000000008" x2="19.0" y2="13.0000000000009"/>
    <line x1="19.0" y1="13.0000000000009" x2="19.0" y2="16.000000000001"/>
    <line x1="19.0" y1="16.000000000001" x2="9.0" y2="16.0000000000009"/>
    <line x1="9.0" y1="16.0000000000009" x2="9.0" y2="13.0000000000008"/>
  </g>
</svg>
