<?xml version="1.0" standalone="no"?>
<!DOCTYPE svg PUBLIC "-//W3C//DTD SVG 1.1//EN" "http://www.w3.org/Graphics/SVG/1.1/DTD/svg11.dtd">
<svg width="105.0mm" height="98.0000000000012mm"
 viewBox="0 0 105.0 98.0000000000012"
 xmlns="http://www.w3.org/2000/svg" version="1.1"
 xmlns:xlink="http://www.w3.org/1999/xlink">
<desc>Output from Flights of Ideas SVG Sketchup Plugin</desc>

  <g id="face0" fill="none" stroke="rgb(0,0,255)" stroke-width="1" stroke-miterlimit="4" stroke-dasharray="none" stroke-linejoin="round" stroke-linecap="round">
    <line x1="1.0" y1="94.0000000000012" x2="11.0" y2="94.0000000000012"/>
    <line x1="11.0" y1="94.0000000000012" x2="11.0" y2="97.0000000000012"/>
    <line x1="11.0" y1="97.0000000000012" x2="21.0000000000001" y2="97.0000000000012"/>
    <line x1="21.0000000000001" y1="97.0000000000012" x2="21.0000000000001" y2="94.0000000000012"/>
    <line x1="21.0000000000001" y1="94.0000000000012" x2="83.9999999999999" y2="94.0000000000012"/>
    <line x1="83.9999999999999" y1="94.0000000000012" x2="83.9999999999999" y2="97.0000000000011"/>
    <line x1="83.9999999999999" y1="97.0000000000011" x2="93.9999999999999" y2="97.0000000000008"/>
    <line x1="93.9999999999999" y1="97.0000000000008" x2="93.9999999999999" y2="94.0000000000012"/>
    <line x1="93.9999999999999" y1="94.0000000000012" x2="104.0" y2="94.0000000000012"/>
    <line x1="104.0" y1="94.0000000000012" x2="104.0" y2="4.00000000000006"/>
    <line x1="104.0" y1="4.00000000000006" x2="93.9999999999999" y2="4.00000000000006"/>
    <line x1="93.9999999999999" y1="4.00000000000006" x2="93.9999999999999" y2="1.0"/>
    <line x1="93.9999999999999" y1="1.0" x2="83.9999999999999" y2="1.00000000000001"/>
    <line x1="83.9999999999999" y1="1.00000000000001" x2="83.9999999999999" y2="4.00000000000006"/>
    <line x1="83.9999999999999" y1="4.00000000000006" x2="21.0000000000001" y2="4.00000000000005"/>
    <line x1="21.0000000000001" y1="4.00000000000005" x2="21.0000000000001" y2="1.00000000000001"/>
    <line x1="21.0000000000001" y1="1.00000000000001" x2="11.0" y2="1.00000000000001"/>
    <line x1="11.0" y1="1.00000000000001" x2="11.0" y2="4.00000000000006"/>
    <line x1="11.0" y1="4.00000000000006" x2="1.0" y2="4.00000000000005"/>
    <line x1="1.0" y1="4.00000000000005" x2="1.0" y2="94.0000000000012"/>
    <line x1="89.5999999999992" y1="36.9500000000006" x2="89.5999999999992" y2="61.0500000000011"/>
    <line x1="89.5999999999992" y1="61.0500000000011" x2="15.9999999999993" y2="61.0500000000011"/>
    <line x1="15.9999999999993" y1="61.0500000000011" x2="15.9999999999993" y2="36.9500000000006"/>
    <line x1="15.9999999999993" y1="36.9500000000006" x2="89.5999999999992" y2="36.9500000000006"/>
    <line x1="90.324999999999" y1="63.3308657048918" x2="90.6505942891105" y2="63.1960001345105"/>
    <line x1="90.6505942891105" y1="63.1960001345105" x2="90.9999999999988" y2="63.1500000000007"/>
    <line x1="90.9999999999988" y1="63.1500000000007" x2="91.3494057108873" y2="63.1960001345105"/>
    <line x1="91.3494057108873" y1="63.1960001345105" x2="91.6749999999989" y2="63.3308657048917"/>
    <line x1="91.6749999999989" y1="63.3308657048917" x2="91.9545941546008" y2="63.5454058453989"/>
    <line x1="91.9545941546008" y1="63.5454058453989" x2="92.1691342951079" y2="63.8250000000007"/>
    <line x1="92.1691342951079" y1="63.8250000000007" x2="92.3039998654892" y2="64.1505942891123"/>
    <line x1="92.3039998654892" y1="64.1505942891123" x2="92.3499999999989" y2="64.5000000000007"/>
    <line x1="92.3499999999989" y1="64.5000000000007" x2="92.3039998654892" y2="64.8494057108891"/>
    <line x1="92.3039998654892" y1="64.8494057108891" x2="92.1691342951079" y2="65.1750000000007"/>
    <line x1="92.1691342951079" y1="65.1750000000007" x2="91.9545941546008" y2="65.4545941546026"/>
    <line x1="91.9545941546008" y1="65.4545941546026" x2="91.6749999999989" y2="65.6691342951097"/>
    <line x1="91.6749999999989" y1="65.6691342951097" x2="91.3494057108873" y2="65.803999865491"/>
    <line x1="91.3494057108873" y1="65.803999865491" x2="90.9999999999989" y2="65.8500000000007"/>
    <line x1="90.9999999999989" y1="65.8500000000007" x2="90.6505942891105" y2="65.803999865491"/>
    <line x1="90.6505942891105" y1="65.803999865491" x2="90.324999999999" y2="65.6691342951097"/>
    <line x1="90.324999999999" y1="65.6691342951097" x2="90.0454058453971" y2="65.4545941546026"/>
    <line x1="90.0454058453971" y1="65.4545941546026" x2="89.83086570489" y2="65.1750000000007"/>
    <line x1="89.83086570489" y1="65.1750000000007" x2="89.6960001345087" y2="64.8494057108892"/>
    <line x1="89.6960001345087" y1="64.8494057108892" x2="89.6499999999989" y2="64.5000000000008"/>
    <line x1="89.6499999999989" y1="64.5000000000008" x2="89.6960001345087" y2="64.1505942891123"/>
    <line x1="89.6960001345087" y1="64.1505942891123" x2="89.83086570489" y2="63.8250000000008"/>
    <line x1="89.83086570489" y1="63.8250000000008" x2="90.0454058453971" y2="63.5454058453989"/>
    <line x1="90.0454058453971" y1="63.5454058453989" x2="90.324999999999" y2="63.3308657048918"/>
    <line x1="91.9545941546006" y1="32.5454058453988" x2="92.1691342951077" y2="32.8250000000007"/>
    <line x1="92.1691342951077" y1="32.8250000000007" x2="92.3039998654891" y2="33.1505942891123"/>
    <line x1="92.3039998654891" y1="33.1505942891123" x2="92.3499999999988" y2="33.5000000000007"/>
    <line x1="92.3499999999988" y1="33.5000000000007" x2="92.3039998654891" y2="33.8494057108891"/>
    <line x1="92.3039998654891" y1="33.8494057108891" x2="92.1691342951077" y2="34.1750000000007"/>
    <line x1="92.1691342951077" y1="34.1750000000007" x2="91.9545941546006" y2="34.4545941546025"/>
    <line x1="91.9545941546006" y1="34.4545941546025" x2="91.6749999999988" y2="34.6691342951097"/>
    <line x1="91.6749999999988" y1="34.6691342951097" x2="91.3494057108872" y2="34.8039998654909"/>
    <line x1="91.3494057108872" y1="34.8039998654909" x2="90.9999999999988" y2="34.8500000000007"/>
    <line x1="90.9999999999988" y1="34.8500000000007" x2="90.6505942891104" y2="34.8039998654909"/>
    <line x1="90.6505942891104" y1="34.8039998654909" x2="90.3249999999987" y2="34.6691342951097"/>
    <line x1="90.3249999999987" y1="34.6691342951097" x2="90.0454058453969" y2="34.4545941546025"/>
    <line x1="90.0454058453969" y1="34.4545941546025" x2="89.8308657048897" y2="34.1750000000007"/>
    <line x1="89.8308657048897" y1="34.1750000000007" x2="89.6960001345086" y2="33.8494057108891"/>
    <line x1="89.6960001345086" y1="33.8494057108891" x2="89.6499999999987" y2="33.5000000000006"/>
    <line x1="89.6499999999987" y1="33.5000000000006" x2="89.6960001345084" y2="33.1505942891123"/>
    <line x1="89.6960001345084" y1="33.1505942891123" x2="89.8308657048898" y2="32.8250000000007"/>
    <line x1="89.8308657048898" y1="32.8250000000007" x2="90.0454058453969" y2="32.5454058453989"/>
    <line x1="90.0454058453969" y1="32.5454058453989" x2="90.3249999999987" y2="32.3308657048917"/>
    <line x1="90.3249999999987" y1="32.3308657048917" x2="90.6505942891104" y2="32.1960001345104"/>
    <line x1="90.6505942891104" y1="32.1960001345104" x2="90.9999999999988" y2="32.1500000000007"/>
    <line x1="90.9999999999988" y1="32.1500000000007" x2="91.3494057108872" y2="32.1960001345104"/>
    <line x1="91.3494057108872" y1="32.1960001345104" x2="91.6749999999988" y2="32.3308657048917"/>
    <line x1="91.6749999999988" y1="32.3308657048917" x2="91.9545941546006" y2="32.5454058453988"/>
    <line x1="15.6505942891105" y1="63.1960001345108" x2="15.9999999999989" y2="63.150000000001"/>
    <line x1="15.9999999999989" y1="63.150000000001" x2="16.3494057108873" y2="63.1960001345108"/>
    <line x1="16.3494057108873" y1="63.1960001345108" x2="16.6749999999989" y2="63.3308657048921"/>
    <line x1="16.6749999999989" y1="63.3308657048921" x2="16.9545941546007" y2="63.5454058453992"/>
    <line x1="16.9545941546007" y1="63.5454058453992" x2="17.1691342951079" y2="63.825000000001"/>
    <line x1="17.1691342951079" y1="63.825000000001" x2="17.3039998654891" y2="64.1505942891126"/>
    <line x1="17.3039998654891" y1="64.1505942891126" x2="17.3499999999989" y2="64.5000000000011"/>
    <line x1="17.3499999999989" y1="64.5000000000011" x2="17.3039998654891" y2="64.8494057108894"/>
    <line x1="17.3039998654891" y1="64.8494057108894" x2="17.1691342951079" y2="65.175000000001"/>
    <line x1="17.1691342951079" y1="65.175000000001" x2="16.9545941546007" y2="65.4545941546029"/>
    <line x1="16.9545941546007" y1="65.4545941546029" x2="16.6749999999989" y2="65.66913429511"/>
    <line x1="16.6749999999989" y1="65.66913429511" x2="16.3494057108873" y2="65.8039998654912"/>
    <line x1="16.3494057108873" y1="65.8039998654912" x2="15.9999999999989" y2="65.850000000001"/>
    <line x1="15.9999999999989" y1="65.850000000001" x2="15.6505942891105" y2="65.8039998654912"/>
    <line x1="15.6505942891105" y1="65.8039998654912" x2="15.3249999999989" y2="65.66913429511"/>
    <line x1="15.3249999999989" y1="65.66913429511" x2="15.0454058453971" y2="65.4545941546029"/>
    <line x1="15.0454058453971" y1="65.4545941546029" x2="14.8308657048899" y2="65.175000000001"/>
    <line x1="14.8308657048899" y1="65.175000000001" x2="14.6960001345087" y2="64.8494057108894"/>
    <line x1="14.6960001345087" y1="64.8494057108894" x2="14.6499999999989" y2="64.5000000000011"/>
    <line x1="14.6499999999989" y1="64.5000000000011" x2="14.6960001345087" y2="64.1505942891126"/>
    <line x1="14.6960001345087" y1="64.1505942891126" x2="14.8308657048899" y2="63.825000000001"/>
    <line x1="14.8308657048899" y1="63.825000000001" x2="15.0454058453971" y2="63.5454058453992"/>
    <line x1="15.0454058453971" y1="63.5454058453992" x2="15.3249999999989" y2="63.3308657048921"/>
    <line x1="15.3249999999989" y1="63.3308657048921" x2="15.6505942891105" y2="63.1960001345108"/>
    <line x1="14.8308657048898" y1="34.175000000001" x2="14.6960001345086" y2="33.8494057108894"/>
    <line x1="14.6960001345086" y1="33.8494057108894" x2="14.6499999999988" y2="33.500000000001"/>
    <line x1="14.6499999999988" y1="33.500000000001" x2="14.6960001345086" y2="33.1505942891126"/>
    <line x1="14.6960001345086" y1="33.1505942891126" x2="14.8308657048898" y2="32.825000000001"/>
    <line x1="14.8308657048898" y1="32.825000000001" x2="15.0454058453969" y2="32.5454058453991"/>
    <line x1="15.0454058453969" y1="32.5454058453991" x2="15.3249999999989" y2="32.330865704892"/>
    <line x1="15.3249999999989" y1="32.330865704892" x2="15.6505942891104" y2="32.1960001345107"/>
    <line x1="15.6505942891104" y1="32.1960001345107" x2="15.9999999999987" y2="32.150000000001"/>
    <line x1="15.9999999999987" y1="32.150000000001" x2="16.3494057108871" y2="32.1960001345107"/>
    <line x1="16.3494057108871" y1="32.1960001345107" x2="16.6749999999988" y2="32.330865704892"/>
    <line x1="16.6749999999988" y1="32.330865704892" x2="16.9545941546006" y2="32.5454058453991"/>
    <line x1="16.9545941546006" y1="32.5454058453991" x2="17.1691342951078" y2="32.825000000001"/>
    <line x1="17.1691342951078" y1="32.825000000001" x2="17.3039998654889" y2="33.1505942891125"/>
    <line x1="17.3039998654889" y1="33.1505942891125" x2="17.3499999999988" y2="33.500000000001"/>
    <line x1="17.3499999999988" y1="33.500000000001" x2="17.3039998654891" y2="33.8494057108893"/>
    <line x1="17.3039998654891" y1="33.8494057108893" x2="17.1691342951078" y2="34.1750000000009"/>
    <line x1="17.1691342951078" y1="34.1750000000009" x2="16.9545941546007" y2="34.4545941546028"/>
    <line x1="16.9545941546007" y1="34.4545941546028" x2="16.6749999999988" y2="34.66913429511"/>
    <line x1="16.6749999999988" y1="34.66913429511" x2="16.3494057108873" y2="34.8039998654912"/>
    <line x1="16.3494057108873" y1="34.8039998654912" x2="15.9999999999987" y2="34.850000000001"/>
    <line x1="15.9999999999987" y1="34.850000000001" x2="15.6505942891104" y2="34.8039998654912"/>
    <line x1="15.6505942891104" y1="34.8039998654912" x2="15.3249999999987" y2="34.66913429511"/>
    <line x1="15.3249999999987" y1="34.66913429511" x2="15.0454058453969" y2="34.4545941546028"/>
    <line x1="15.0454058453969" y1="34.4545941546028" x2="14.8308657048898" y2="34.175000000001"/>
    <line x1="40.0941333421404" y1="72.6692596079892" x2="40.9999999999993" y2="72.550000000001"/>
    <line x1="40.9999999999993" y1="72.550000000001" x2="41.9058666578581" y2="72.6692596079892"/>
    <line x1="41.9058666578581" y1="72.6692596079892" x2="42.7499999999993" y2="73.0189110867555"/>
    <line x1="42.7499999999993" y1="73.0189110867555" x2="43.4748737341522" y2="73.5751262658481"/>
    <line x1="43.4748737341522" y1="73.5751262658481" x2="44.0310889132448" y2="74.300000000001"/>
    <line x1="44.0310889132448" y1="74.300000000001" x2="44.380740392011" y2="75.1441333421422"/>
    <line x1="44.380740392011" y1="75.1441333421422" x2="44.4999999999993" y2="76.050000000001"/>
    <line x1="44.4999999999993" y1="76.050000000001" x2="44.380740392011" y2="76.9558666578598"/>
    <line x1="44.380740392011" y1="76.9558666578598" x2="44.0310889132448" y2="77.800000000001"/>
    <line x1="44.0310889132448" y1="77.800000000001" x2="43.4748737341522" y2="78.5248737341539"/>
    <line x1="43.4748737341522" y1="78.5248737341539" x2="42.7499999999993" y2="79.0810889132465"/>
    <line x1="42.7499999999993" y1="79.0810889132465" x2="41.9058666578581" y2="79.4307403920128"/>
    <line x1="41.9058666578581" y1="79.4307403920128" x2="40.9999999999993" y2="79.550000000001"/>
    <line x1="40.9999999999993" y1="79.550000000001" x2="40.0941333421404" y2="79.4307403920128"/>
    <line x1="40.0941333421404" y1="79.4307403920128" x2="39.2499999999993" y2="79.0810889132465"/>
    <line x1="39.2499999999993" y1="79.0810889132465" x2="38.5251262658463" y2="78.5248737341539"/>
    <line x1="38.5251262658463" y1="78.5248737341539" x2="37.9689110867538" y2="77.800000000001"/>
    <line x1="37.9689110867538" y1="77.800000000001" x2="37.6192596079875" y2="76.9558666578599"/>
    <line x1="37.6192596079875" y1="76.9558666578599" x2="37.4999999999993" y2="76.050000000001"/>
    <line x1="37.4999999999993" y1="76.050000000001" x2="37.6192596079875" y2="75.1441333421422"/>
    <line x1="37.6192596079875" y1="75.1441333421422" x2="37.9689110867538" y2="74.300000000001"/>
    <line x1="37.9689110867538" y1="74.300000000001" x2="38.5251262658463" y2="73.5751262658481"/>
    <line x1="38.5251262658463" y1="73.5751262658481" x2="39.2499999999993" y2="73.0189110867554"/>
    <line x1="39.2499999999993" y1="73.0189110867554" x2="40.0941333421404" y2="72.6692596079892"/>
    <line x1="58.5999999999992" y1="70.050000000001" x2="70.5999999999992" y2="70.050000000001"/>
    <line x1="70.5999999999992" y1="70.050000000001" x2="70.5999999999992" y2="82.050000000001"/>
    <line x1="70.5999999999992" y1="82.050000000001" x2="58.5999999999992" y2="82.0500000000009"/>
    <line x1="58.5999999999992" y1="82.0500000000009" x2="58.5999999999992" y2="70.050000000001"/>
    <line x1="101.0" y1="79.0000000000013" x2="101.0" y2="89.0000000000012"/>
    <line x1="101.0" y1="89.0000000000012" x2="98.0000000000001" y2="89.0000000000012"/>
    <line x1="98.0000000000001" y1="89.0000000000012" x2="98.0000000000001" y2="79.0000000000013"/>
    <line x1="98.0000000000001" y1="79.0000000000013" x2="101.0" y2="79.0000000000013"/>
    <line x1="98.0000000000001" y1="19.0000000000017" x2="98.0000000000001" y2="9.00000000000171"/>
    <line x1="98.0000000000001" y1="9.00000000000171" x2="101.0" y2="9.00000000000171"/>
    <line x1="101.0" y1="9.00000000000171" x2="101.0" y2="19.0000000000017"/>
    <line x1="101.0" y1="19.0000000000017" x2="98.0000000000001" y2="19.0000000000017"/>
    <line x1="99.8882285676538" y1="50.4488887394354" x2="99.4999999999999" y2="50.5000000000017"/>
    <line x1="99.4999999999999" y1="50.5000000000017" x2="99.1117714323462" y2="50.4488887394353"/>
    <line x1="99.1117714323462" y1="50.4488887394353" x2="98.7499999999999" y2="50.2990381056784"/>
    <line x1="98.7499999999999" y1="50.2990381056784" x2="98.4393398282202" y2="50.0606601717816"/>
    <line x1="98.4393398282202" y1="50.0606601717816" x2="98.2009618943234" y2="49.7500000000017"/>
    <line x1="98.2009618943234" y1="49.7500000000017" x2="98.0511112605664" y2="49.3882285676555"/>
    <line x1="98.0511112605664" y1="49.3882285676555" x2="98.0000000000001" y2="49.0000000000017"/>
    <line x1="98.0000000000001" y1="49.0000000000017" x2="98.0511112605664" y2="48.6117714323479"/>
    <line x1="98.0511112605664" y1="48.6117714323479" x2="98.2009618943234" y2="48.2500000000017"/>
    <line x1="98.2009618943234" y1="48.2500000000017" x2="98.4393398282202" y2="47.9393398282219"/>
    <line x1="98.4393398282202" y1="47.9393398282219" x2="98.7500000000001" y2="47.700961894325"/>
    <line x1="98.7500000000001" y1="47.700961894325" x2="99.1117714323462" y2="47.5511112605681"/>
    <line x1="99.1117714323462" y1="47.5511112605681" x2="99.4999999999999" y2="47.5000000000017"/>
    <line x1="99.4999999999999" y1="47.5000000000017" x2="99.8882285676538" y2="47.5511112605681"/>
    <line x1="99.8882285676538" y1="47.5511112605681" x2="100.25" y2="47.700961894325"/>
    <line x1="100.25" y1="47.700961894325" x2="100.56066017178" y2="47.9393398282219"/>
    <line x1="100.56066017178" y1="47.9393398282219" x2="100.799038105677" y2="48.2500000000017"/>
    <line x1="100.799038105677" y1="48.2500000000017" x2="100.948888739434" y2="48.6117714323479"/>
    <line x1="100.948888739434" y1="48.6117714323479" x2="101.0" y2="49.0000000000017"/>
    <line x1="101.0" y1="49.0000000000017" x2="100.948888739434" y2="49.3882285676555"/>
    <line x1="100.948888739434" y1="49.3882285676555" x2="100.799038105677" y2="49.7500000000017"/>
    <line x1="100.799038105677" y1="49.7500000000017" x2="100.56066017178" y2="50.0606601717815"/>
    <line x1="100.56066017178" y1="50.0606601717815" x2="100.25" y2="50.2990381056784"/>
    <line x1="100.25" y1="50.2990381056784" x2="99.8882285676538" y2="50.4488887394354"/>
  </g>
</svg>
