<?xml version="1.0" standalone="no"?>
<!DOCTYPE svg PUBLIC "-//W3C//DTD SVG 1.1//EN" "http://www.w3.org/Graphics/SVG/1.1/DTD/svg11.dtd">
<svg width="67.0000000000001mm" height="97.9999999999997mm"
 viewBox="0 0 67.0000000000001 97.9999999999997"
 xmlns="http://www.w3.org/2000/svg" version="1.1"
 xmlns:xlink="http://www.w3.org/1999/xlink">
<desc>Output from Flights of Ideas SVG Sketchup Plugin</desc>

  <g id="face0" fill="none" stroke="rgb(0,0,255)" stroke-width="1" stroke-miterlimit="4" stroke-dasharray="none" stroke-linejoin="round" stroke-linecap="round">
    <line x1="48.0000000000001" y1="4.0" x2="27.6000000000008" y2="4.0"/>
    <line x1="27.6000000000008" y1="4.0" x2="27.6000000000008" y2="22.1999999999997"/>
    <line x1="27.6000000000008" y1="22.1999999999997" x2="15.6000000000008" y2="22.1999999999997"/>
    <line x1="15.6000000000008" y1="22.1999999999997" x2="15.6000000000008" y2="4.0"/>
    <line x1="15.6000000000008" y1="4.0" x2="16.0" y2="4.0"/>
    <line x1="16.0" y1="4.0" x2="16.0" y2="1.00000000000006"/>
    <line x1="16.0" y1="1.00000000000006" x2="5.99999999999994" y2="1.00000000000006"/>
    <line x1="5.99999999999994" y1="1.00000000000006" x2="6.0" y2="4.0"/>
    <line x1="6.0" y1="4.0" x2="1.0" y2="4.0"/>
    <line x1="1.0" y1="4.0" x2="1.0" y2="93.9999999999997"/>
    <line x1="1.0" y1="93.9999999999997" x2="6.0" y2="93.9999999999997"/>
    <line x1="6.0" y1="93.9999999999997" x2="6.0" y2="96.9999999999997"/>
    <line x1="6.0" y1="96.9999999999997" x2="16.0000000000001" y2="96.9999999999996"/>
    <line x1="16.0000000000001" y1="96.9999999999996" x2="16.0" y2="93.9999999999997"/>
    <line x1="16.0" y1="93.9999999999997" x2="32.0" y2="93.9999999999997"/>
    <line x1="32.0" y1="93.9999999999997" x2="32.0" y2="91.9999999999997"/>
    <line x1="32.0" y1="91.9999999999997" x2="30.7" y2="91.9999999999996"/>
    <line x1="30.7" y1="91.9999999999996" x2="30.7" y2="89.7999999999996"/>
    <line x1="30.7" y1="89.7999999999996" x2="32.0" y2="89.7999999999996"/>
    <line x1="32.0" y1="89.7999999999996" x2="32.0" y2="86.7999999999997"/>
    <line x1="32.0" y1="86.7999999999997" x2="35.0" y2="86.7999999999997"/>
    <line x1="35.0" y1="86.7999999999997" x2="35.0" y2="89.7999999999996"/>
    <line x1="35.0" y1="89.7999999999996" x2="36.3" y2="89.7999999999996"/>
    <line x1="36.3" y1="89.7999999999996" x2="36.3" y2="91.9999999999997"/>
    <line x1="36.3" y1="91.9999999999997" x2="35.0" y2="91.9999999999997"/>
    <line x1="35.0" y1="91.9999999999997" x2="35.0" y2="93.9999999999997"/>
    <line x1="35.0" y1="93.9999999999997" x2="48.0000000000001" y2="93.9999999999996"/>
    <line x1="48.0000000000001" y1="93.9999999999996" x2="48.0000000000001" y2="96.9999999999996"/>
    <line x1="48.0000000000001" y1="96.9999999999996" x2="58.0000000000001" y2="96.9999999999996"/>
    <line x1="58.0000000000001" y1="96.9999999999996" x2="58.0000000000001" y2="93.9999999999996"/>
    <line x1="58.0000000000001" y1="93.9999999999996" x2="63.0000000000001" y2="93.9999999999997"/>
    <line x1="63.0000000000001" y1="93.9999999999997" x2="63.0000000000001" y2="88.9999999999997"/>
    <line x1="63.0000000000001" y1="88.9999999999997" x2="66.0000000000001" y2="88.9999999999997"/>
    <line x1="66.0000000000001" y1="88.9999999999997" x2="66.0000000000001" y2="78.9999999999997"/>
    <line x1="66.0000000000001" y1="78.9999999999997" x2="63.0000000000001" y2="78.9999999999997"/>
    <line x1="63.0000000000001" y1="78.9999999999997" x2="63.0000000000001" y2="50.5"/>
    <line x1="63.0000000000001" y1="50.5" x2="61.0000000000001" y2="50.5"/>
    <line x1="61.0000000000001" y1="50.5" x2="61.0000000000001" y2="51.8"/>
    <line x1="61.0000000000001" y1="51.8" x2="58.8000000000001" y2="51.8"/>
    <line x1="58.8000000000001" y1="51.8" x2="58.8000000000001" y2="50.5"/>
    <line x1="58.8000000000001" y1="50.5" x2="55.8000000000001" y2="50.5000000000001"/>
    <line x1="55.8000000000001" y1="50.5000000000001" x2="55.8000000000001" y2="47.5000000000001"/>
    <line x1="55.8000000000001" y1="47.5000000000001" x2="58.8000000000001" y2="47.5"/>
    <line x1="58.8000000000001" y1="47.5" x2="58.8000000000001" y2="46.2"/>
    <line x1="58.8000000000001" y1="46.2" x2="61.0000000000001" y2="46.2000000000001"/>
    <line x1="61.0000000000001" y1="46.2000000000001" x2="61.0000000000001" y2="47.5000000000001"/>
    <line x1="61.0000000000001" y1="47.5000000000001" x2="63.0000000000001" y2="47.5"/>
    <line x1="63.0000000000001" y1="47.5" x2="63.0000000000001" y2="19.0000000000001"/>
    <line x1="63.0000000000001" y1="19.0000000000001" x2="66.0000000000001" y2="19.0"/>
    <line x1="66.0000000000001" y1="19.0" x2="66.0000000000001" y2="9.0"/>
    <line x1="66.0000000000001" y1="9.0" x2="63.0000000000001" y2="9.00000000000003"/>
    <line x1="63.0000000000001" y1="9.00000000000003" x2="63.0000000000001" y2="4.0"/>
    <line x1="63.0000000000001" y1="4.0" x2="58.0000000000001" y2="4.0"/>
    <line x1="58.0000000000001" y1="4.0" x2="58.0000000000001" y2="1.0"/>
    <line x1="58.0000000000001" y1="1.0" x2="48.0000000000001" y2="1.0"/>
    <line x1="48.0000000000001" y1="1.0" x2="48.0000000000001" y2="4.0"/>
    <line x1="30.0000000000001" y1="63.2999999999999" x2="30.0000000000001" y2="73.9999999999999"/>
    <line x1="30.0000000000001" y1="73.9999999999999" x2="21.0000000000001" y2="73.9999999999999"/>
    <line x1="21.0000000000001" y1="73.9999999999999" x2="21.0000000000001" y2="63.2999999999999"/>
    <line x1="21.0000000000001" y1="63.2999999999999" x2="30.0000000000001" y2="63.2999999999999"/>
    <line x1="47.2000000000005" y1="22.6999999999996" x2="47.2000000000005" y2="5.69999999999956"/>
    <line x1="47.2000000000005" y1="5.69999999999956" x2="56.2000000000005" y2="5.69999999999956"/>
    <line x1="56.2000000000005" y1="5.69999999999956" x2="56.2000000000005" y2="22.6999999999996"/>
    <line x1="56.2000000000005" y1="22.6999999999996" x2="47.2000000000005" y2="22.6999999999996"/>
  </g>
</svg>
