<?xml version="1.0" standalone="no"?>
<!DOCTYPE svg PUBLIC "-//W3C//DTD SVG 1.1//EN" "http://www.w3.org/Graphics/SVG/1.1/DTD/svg11.dtd">
<svg width="198.0mm" height="82.0000000000008mm"
 viewBox="0 0 198.0 82.0000000000008"
 xmlns="http://www.w3.org/2000/svg" version="1.1"
 xmlns:xlink="http://www.w3.org/1999/xlink">
<desc>Output from Flights of Ideas SVG Sketchup Plugin</desc>

  <g id="face0" fill="none" stroke="rgb(0,0,255)" stroke-width="1" stroke-miterlimit="4" stroke-dasharray="none" stroke-linejoin="round" stroke-linecap="round">
    <line x1="1.0" y1="81.0000000000008" x2="20.0" y2="81.0000000000008"/>
    <line x1="20.0" y1="81.0000000000008" x2="20.0" y2="68.9999999999995"/>
    <line x1="20.0" y1="68.9999999999995" x2="39.0000000000002" y2="68.9999999999995"/>
    <line x1="39.0000000000002" y1="68.9999999999995" x2="39.0000000000002" y2="81.0000000000008"/>
    <line x1="39.0000000000002" y1="81.0000000000008" x2="59.0000000000001" y2="81.0000000000008"/>
    <line x1="59.0000000000001" y1="81.0000000000008" x2="59.0000000000001" y2="68.9999999999988"/>
    <line x1="59.0000000000001" y1="68.9999999999988" x2="78.0000000000001" y2="68.9999999999988"/>
    <line x1="78.0000000000001" y1="68.9999999999988" x2="78.0000000000001" y2="81.0000000000008"/>
    <line x1="78.0000000000001" y1="81.0000000000008" x2="94.0000000000001" y2="81.0000000000008"/>
    <line x1="94.0000000000001" y1="81.0000000000008" x2="94.0000000000001" y2="69.0000000000001"/>
    <line x1="94.0000000000001" y1="69.0000000000001" x2="197.0" y2="69.0000000000001"/>
    <line x1="197.0" y1="69.0000000000001" x2="197.0" y2="1.00000000000003"/>
    <line x1="197.0" y1="1.00000000000003" x2="1.0" y2="1.0"/>
    <line x1="1.0" y1="1.0" x2="1.0" y2="81.0000000000008"/>
    <line x1="194.0" y1="6.00000000000001" x2="194.0" y2="16.0"/>
    <line x1="194.0" y1="16.0" x2="191.0" y2="16.0"/>
    <line x1="191.0" y1="16.0" x2="191.0" y2="6.00000000000001"/>
    <line x1="191.0" y1="6.00000000000001" x2="194.0" y2="6.00000000000001"/>
    <line x1="194.0" y1="47.9999999999999" x2="194.0" y2="58.0000000000001"/>
    <line x1="194.0" y1="58.0000000000001" x2="191.0" y2="58.0000000000002"/>
    <line x1="191.0" y1="58.0000000000002" x2="191.0" y2="48.0"/>
    <line x1="191.0" y1="48.0" x2="194.0" y2="47.9999999999999"/>
    <line x1="187.0" y1="66.0000000000001" x2="177.0" y2="65.9999999999999"/>
    <line x1="177.0" y1="65.9999999999999" x2="177.0" y2="62.9999999999999"/>
    <line x1="177.0" y1="62.9999999999999" x2="187.0" y2="63.0000000000001"/>
    <line x1="187.0" y1="63.0000000000001" x2="187.0" y2="66.0000000000001"/>
    <line x1="114.0" y1="63.0000000000001" x2="114.0" y2="65.9999999999999"/>
    <line x1="114.0" y1="65.9999999999999" x2="104.0" y2="66.0"/>
    <line x1="104.0" y1="66.0" x2="104.0" y2="63.0000000000001"/>
    <line x1="104.0" y1="63.0000000000001" x2="114.0" y2="63.0000000000001"/>
    <line x1="94.0000000000001" y1="61.0" x2="91.0000000000001" y2="61.0"/>
    <line x1="91.0000000000001" y1="61.0" x2="91.0000000000001" y2="51.0"/>
    <line x1="91.0000000000001" y1="51.0" x2="94.0000000000001" y2="51.0"/>
    <line x1="94.0000000000001" y1="51.0" x2="94.0000000000001" y2="61.0"/>
    <line x1="91.0000000000001" y1="16.0" x2="91.0000000000001" y2="5.99999999999995"/>
    <line x1="91.0000000000001" y1="5.99999999999995" x2="94.0" y2="5.99999999999993"/>
    <line x1="94.0" y1="5.99999999999993" x2="94.0" y2="16.0"/>
    <line x1="94.0" y1="16.0" x2="91.0000000000001" y2="16.0"/>
    <line x1="4.00000000000011" y1="61.0" x2="4.00000000000011" y2="51.0"/>
    <line x1="4.00000000000011" y1="51.0" x2="7.00000000000011" y2="51.0"/>
    <line x1="7.00000000000011" y1="51.0" x2="7.00000000000011" y2="61.0"/>
    <line x1="7.00000000000011" y1="61.0" x2="4.00000000000011" y2="61.0"/>
    <line x1="4.00000000000011" y1="5.99999999999994" x2="7.00000000000011" y2="5.99999999999995"/>
    <line x1="7.00000000000011" y1="5.99999999999995" x2="7.00000000000011" y2="15.9999999999999"/>
    <line x1="7.00000000000011" y1="15.9999999999999" x2="4.00000000000011" y2="15.9999999999999"/>
    <line x1="4.00000000000011" y1="15.9999999999999" x2="4.00000000000011" y2="5.99999999999994"/>
    <line x1="192.5" y1="31.9999999999999" x2="192.888228567654" y2="32.0511112605665"/>
    <line x1="192.888228567654" y1="32.0511112605665" x2="193.25" y2="32.2009618943233"/>
    <line x1="193.25" y1="32.2009618943233" x2="193.56066017178" y2="32.4393398282203"/>
    <line x1="193.56066017178" y1="32.4393398282203" x2="193.799038105677" y2="32.75"/>
    <line x1="193.799038105677" y1="32.75" x2="193.948888739434" y2="33.1117714323461"/>
    <line x1="193.948888739434" y1="33.1117714323461" x2="194.0" y2="33.5000000000001"/>
    <line x1="194.0" y1="33.5000000000001" x2="193.948888739434" y2="33.8882285676538"/>
    <line x1="193.948888739434" y1="33.8882285676538" x2="193.799038105677" y2="34.25"/>
    <line x1="193.799038105677" y1="34.25" x2="193.56066017178" y2="34.5606601717799"/>
    <line x1="193.56066017178" y1="34.5606601717799" x2="193.25" y2="34.7990381056768"/>
    <line x1="193.25" y1="34.7990381056768" x2="192.888228567654" y2="34.9488887394335"/>
    <line x1="192.888228567654" y1="34.9488887394335" x2="192.5" y2="35.0000000000001"/>
    <line x1="192.5" y1="35.0000000000001" x2="192.111771432346" y2="34.9488887394336"/>
    <line x1="192.111771432346" y1="34.9488887394336" x2="191.75" y2="34.7990381056767"/>
    <line x1="191.75" y1="34.7990381056767" x2="191.43933982822" y2="34.5606601717799"/>
    <line x1="191.43933982822" y1="34.5606601717799" x2="191.200961894323" y2="34.2500000000001"/>
    <line x1="191.200961894323" y1="34.2500000000001" x2="191.051111260566" y2="33.8882285676538"/>
    <line x1="191.051111260566" y1="33.8882285676538" x2="191.0" y2="33.5000000000001"/>
    <line x1="191.0" y1="33.5000000000001" x2="191.051111260566" y2="33.1117714323461"/>
    <line x1="191.051111260566" y1="33.1117714323461" x2="191.200961894323" y2="32.7499999999999"/>
    <line x1="191.200961894323" y1="32.7499999999999" x2="191.43933982822" y2="32.4393398282202"/>
    <line x1="191.43933982822" y1="32.4393398282202" x2="191.75" y2="32.2009618943233"/>
    <line x1="191.75" y1="32.2009618943233" x2="192.111771432346" y2="32.0511112605663"/>
    <line x1="192.111771432346" y1="32.0511112605663" x2="192.5" y2="31.9999999999999"/>
    <line x1="5.5" y1="34.9999999999999" x2="5.11177143234636" y2="34.9488887394335"/>
    <line x1="5.11177143234636" y1="34.9488887394335" x2="4.75000000000011" y2="34.7990381056766"/>
    <line x1="4.75000000000011" y1="34.7990381056766" x2="4.43933982822023" y2="34.5606601717798"/>
    <line x1="4.43933982822023" y1="34.5606601717798" x2="4.20096189432343" y2="34.2499999999999"/>
    <line x1="4.20096189432343" y1="34.2499999999999" x2="4.05111126056647" y2="33.8882285676537"/>
    <line x1="4.05111126056647" y1="33.8882285676537" x2="4.00000000000011" y2="33.4999999999999"/>
    <line x1="4.00000000000011" y1="33.4999999999999" x2="4.05111126056647" y2="33.1117714323462"/>
    <line x1="4.05111126056647" y1="33.1117714323462" x2="4.20096189432343" y2="32.7499999999999"/>
    <line x1="4.20096189432343" y1="32.7499999999999" x2="4.43933982822023" y2="32.4393398282201"/>
    <line x1="4.43933982822023" y1="32.4393398282201" x2="4.75000000000011" y2="32.2009618943233"/>
    <line x1="4.75000000000011" y1="32.2009618943233" x2="5.11177143234636" y2="32.0511112605663"/>
    <line x1="5.11177143234636" y1="32.0511112605663" x2="5.5" y2="32.0"/>
    <line x1="5.5" y1="32.0" x2="5.88822856765387" y2="32.0511112605663"/>
    <line x1="5.88822856765387" y1="32.0511112605663" x2="6.25" y2="32.2009618943233"/>
    <line x1="6.25" y1="32.2009618943233" x2="6.56066017177989" y2="32.4393398282201"/>
    <line x1="6.56066017177989" y1="32.4393398282201" x2="6.79903810567669" y2="32.7499999999999"/>
    <line x1="6.79903810567669" y1="32.7499999999999" x2="6.94888873943364" y2="33.1117714323462"/>
    <line x1="6.94888873943364" y1="33.1117714323462" x2="7.00000000000011" y2="33.4999999999999"/>
    <line x1="7.00000000000011" y1="33.4999999999999" x2="6.94888873943364" y2="33.8882285676537"/>
    <line x1="6.94888873943364" y1="33.8882285676537" x2="6.79903810567669" y2="34.2499999999999"/>
    <line x1="6.79903810567669" y1="34.2499999999999" x2="6.56066017177989" y2="34.5606601717798"/>
    <line x1="6.56066017177989" y1="34.5606601717798" x2="6.25" y2="34.7990381056766"/>
    <line x1="6.25" y1="34.7990381056766" x2="5.88822856765387" y2="34.9488887394335"/>
    <line x1="5.88822856765387" y1="34.9488887394335" x2="5.5" y2="34.9999999999999"/>
    <line x1="92.5000000000001" y1="35.0000000000001" x2="92.1117714323464" y2="34.9488887394336"/>
    <line x1="92.1117714323464" y1="34.9488887394336" x2="91.7500000000001" y2="34.7990381056767"/>
    <line x1="91.7500000000001" y1="34.7990381056767" x2="91.4393398282203" y2="34.5606601717798"/>
    <line x1="91.4393398282203" y1="34.5606601717798" x2="91.2009618943234" y2="34.25"/>
    <line x1="91.2009618943234" y1="34.25" x2="91.0511112605665" y2="33.8882285676538"/>
    <line x1="91.0511112605665" y1="33.8882285676538" x2="91.0000000000001" y2="33.5"/>
    <line x1="91.0000000000001" y1="33.5" x2="91.0511112605665" y2="33.1117714323462"/>
    <line x1="91.0511112605665" y1="33.1117714323462" x2="91.2009618943234" y2="32.75"/>
    <line x1="91.2009618943234" y1="32.75" x2="91.4393398282203" y2="32.4393398282202"/>
    <line x1="91.4393398282203" y1="32.4393398282202" x2="91.7500000000001" y2="32.2009618943233"/>
    <line x1="91.7500000000001" y1="32.2009618943233" x2="92.1117714323464" y2="32.0511112605664"/>
    <line x1="92.1117714323464" y1="32.0511112605664" x2="92.5000000000001" y2="32.0"/>
    <line x1="92.5000000000001" y1="32.0" x2="92.8882285676539" y2="32.0511112605664"/>
    <line x1="92.8882285676539" y1="32.0511112605664" x2="93.2500000000001" y2="32.2009618943233"/>
    <line x1="93.2500000000001" y1="32.2009618943233" x2="93.5606601717799" y2="32.4393398282202"/>
    <line x1="93.5606601717799" y1="32.4393398282202" x2="93.7990381056768" y2="32.75"/>
    <line x1="93.7990381056768" y1="32.75" x2="93.9488887394338" y2="33.1117714323462"/>
    <line x1="93.9488887394338" y1="33.1117714323462" x2="94.0000000000001" y2="33.5"/>
    <line x1="94.0000000000001" y1="33.5" x2="93.9488887394338" y2="33.8882285676538"/>
    <line x1="93.9488887394338" y1="33.8882285676538" x2="93.7990381056768" y2="34.25"/>
    <line x1="93.7990381056768" y1="34.25" x2="93.5606601717799" y2="34.5606601717798"/>
    <line x1="93.5606601717799" y1="34.5606601717798" x2="93.2500000000001" y2="34.7990381056766"/>
    <line x1="93.2500000000001" y1="34.7990381056766" x2="92.8882285676539" y2="34.9488887394336"/>
    <line x1="92.8882285676539" y1="34.9488887394336" x2="92.5000000000001" y2="35.0000000000001"/>
    <line x1="154.100000000001" y1="29.0000000000001" x2="154.100000000001" y2="15.9999999999986"/>
    <line x1="154.100000000001" y1="15.9999999999986" x2="172.9" y2="15.9999999999986"/>
    <line x1="172.9" y1="15.9999999999986" x2="172.9" y2="29.0000000000001"/>
    <line x1="172.9" y1="29.0000000000001" x2="154.100000000001" y2="29.0000000000001"/>
    <line x1="19.0" y1="65.9999999999999" x2="19.0" y2="68.9999999999994"/>
    <line x1="19.0" y1="68.9999999999994" x2="9.00000000000011" y2="68.9999999999994"/>
    <line x1="9.00000000000011" y1="68.9999999999994" x2="9.00000000000011" y2="65.9999999999999"/>
    <line x1="9.00000000000011" y1="65.9999999999999" x2="19.0" y2="65.9999999999999"/>
    <line x1="89.0000000000001" y1="69.0" x2="79.0000000000001" y2="69.0"/>
    <line x1="79.0000000000001" y1="69.0" x2="79.0000000000001" y2="66.0"/>
    <line x1="79.0000000000001" y1="66.0" x2="89.0000000000001" y2="66.0000000000001"/>
    <line x1="89.0000000000001" y1="66.0000000000001" x2="89.0000000000001" y2="69.0"/>
  </g>
</svg>
