<?xml version="1.0" standalone="no"?>
<!DOCTYPE svg PUBLIC "-//W3C//DTD SVG 1.1//EN" "http://www.w3.org/Graphics/SVG/1.1/DTD/svg11.dtd">
<svg width="92.0000000000001mm" height="92.0mm"
 viewBox="0 0 92.0000000000001 92.0"
 xmlns="http://www.w3.org/2000/svg" version="1.1"
 xmlns:xlink="http://www.w3.org/1999/xlink">
<desc>Output from Flights of Ideas SVG Sketchup Plugin</desc>

  <g id="face0" fill="none" stroke="rgb(0,0,255)" stroke-width="1" stroke-miterlimit="4" stroke-dasharray="none" stroke-linejoin="round" stroke-linecap="round">
    <line x1="1.0" y1="1.0" x2="1.0" y2="91.0"/>
    <line x1="1.0" y1="91.0" x2="91.0" y2="91.0"/>
    <line x1="91.0" y1="91.0" x2="91.0000000000001" y2="1.0"/>
    <line x1="91.0000000000001" y1="1.0" x2="1.0" y2="1.0"/>
    <line x1="26.6814834742187" y1="51.1763809020504" x2="26.0" y2="46.0"/>
    <line x1="26.0" y1="46.0" x2="26.6814834742187" y2="40.8236190979496"/>
    <line x1="26.6814834742187" y1="40.8236190979496" x2="28.6794919243112" y2="36.0"/>
    <line x1="28.6794919243112" y1="36.0" x2="31.8578643762691" y2="31.857864376269"/>
    <line x1="31.8578643762691" y1="31.857864376269" x2="36.0" y2="28.6794919243112"/>
    <line x1="36.0" y1="28.6794919243112" x2="40.8236190979496" y2="26.6814834742186"/>
    <line x1="40.8236190979496" y1="26.6814834742186" x2="46.0" y2="26.0"/>
    <line x1="46.0" y1="26.0" x2="51.1763809020504" y2="26.6814834742186"/>
    <line x1="51.1763809020504" y1="26.6814834742186" x2="56.0" y2="28.6794919243112"/>
    <line x1="56.0" y1="28.6794919243112" x2="60.142135623731" y2="31.857864376269"/>
    <line x1="60.142135623731" y1="31.857864376269" x2="63.3205080756888" y2="36.0"/>
    <line x1="63.3205080756888" y1="36.0" x2="65.3185165257813" y2="40.8236190979495"/>
    <line x1="65.3185165257813" y1="40.8236190979495" x2="66.0" y2="46.0"/>
    <line x1="66.0" y1="46.0" x2="65.3185165257813" y2="51.1763809020504"/>
    <line x1="65.3185165257813" y1="51.1763809020504" x2="63.3205080756888" y2="56.0"/>
    <line x1="63.3205080756888" y1="56.0" x2="60.142135623731" y2="60.142135623731"/>
    <line x1="60.142135623731" y1="60.142135623731" x2="56.0000000000001" y2="63.3205080756888"/>
    <line x1="56.0000000000001" y1="63.3205080756888" x2="51.1763809020504" y2="65.3185165257813"/>
    <line x1="51.1763809020504" y1="65.3185165257813" x2="46.0" y2="66.0"/>
    <line x1="46.0" y1="66.0" x2="40.8236190979496" y2="65.3185165257813"/>
    <line x1="40.8236190979496" y1="65.3185165257813" x2="36.0" y2="63.3205080756887"/>
    <line x1="36.0" y1="63.3205080756887" x2="31.8578643762691" y2="60.142135623731"/>
    <line x1="31.8578643762691" y1="60.142135623731" x2="28.6794919243113" y2="56.0"/>
    <line x1="28.6794919243113" y1="56.0" x2="26.6814834742187" y2="51.1763809020504"/>
    <line x1="85.6117714323462" y1="28.4011112605664" x2="86.0000000000001" y2="28.3500000000001"/>
    <line x1="86.0000000000001" y1="28.3500000000001" x2="86.3882285676539" y2="28.4011112605664"/>
    <line x1="86.3882285676539" y1="28.4011112605664" x2="86.7499999999999" y2="28.5509618943234"/>
    <line x1="86.7499999999999" y1="28.5509618943234" x2="87.0606601717798" y2="28.7893398282202"/>
    <line x1="87.0606601717798" y1="28.7893398282202" x2="87.2990381056767" y2="29.1000000000001"/>
    <line x1="87.2990381056767" y1="29.1000000000001" x2="87.4488887394336" y2="29.4617714323463"/>
    <line x1="87.4488887394336" y1="29.4617714323463" x2="87.5" y2="29.85"/>
    <line x1="87.5" y1="29.85" x2="87.4488887394336" y2="30.2382285676538"/>
    <line x1="87.4488887394336" y1="30.2382285676538" x2="87.2990381056767" y2="30.6"/>
    <line x1="87.2990381056767" y1="30.6" x2="87.0606601717798" y2="30.9106601717799"/>
    <line x1="87.0606601717798" y1="30.9106601717799" x2="86.7499999999999" y2="31.1490381056767"/>
    <line x1="86.7499999999999" y1="31.1490381056767" x2="86.3882285676539" y2="31.2988887394336"/>
    <line x1="86.3882285676539" y1="31.2988887394336" x2="85.9999999999999" y2="31.3500000000001"/>
    <line x1="85.9999999999999" y1="31.3500000000001" x2="85.6117714323462" y2="31.2988887394336"/>
    <line x1="85.6117714323462" y1="31.2988887394336" x2="85.2499999999999" y2="31.1490381056767"/>
    <line x1="85.2499999999999" y1="31.1490381056767" x2="84.9393398282202" y2="30.9106601717799"/>
    <line x1="84.9393398282202" y1="30.9106601717799" x2="84.7009618943234" y2="30.6"/>
    <line x1="84.7009618943234" y1="30.6" x2="84.5511112605664" y2="30.2382285676538"/>
    <line x1="84.5511112605664" y1="30.2382285676538" x2="84.5" y2="29.85"/>
    <line x1="84.5" y1="29.85" x2="84.5511112605664" y2="29.4617714323462"/>
    <line x1="84.5511112605664" y1="29.4617714323462" x2="84.7009618943234" y2="29.1000000000001"/>
    <line x1="84.7009618943234" y1="29.1000000000001" x2="84.9393398282202" y2="28.7893398282202"/>
    <line x1="84.9393398282202" y1="28.7893398282202" x2="85.2499999999999" y2="28.5509618943234"/>
    <line x1="85.2499999999999" y1="28.5509618943234" x2="85.6117714323462" y2="28.4011112605664"/>
    <line x1="86.3882285676539" y1="63.5988887394336" x2="85.9999999999999" y2="63.65"/>
    <line x1="85.9999999999999" y1="63.65" x2="85.6117714323462" y2="63.5988887394336"/>
    <line x1="85.6117714323462" y1="63.5988887394336" x2="85.2500000000001" y2="63.4490381056767"/>
    <line x1="85.2500000000001" y1="63.4490381056767" x2="84.9393398282202" y2="63.2106601717798"/>
    <line x1="84.9393398282202" y1="63.2106601717798" x2="84.7009618943234" y2="62.9"/>
    <line x1="84.7009618943234" y1="62.9" x2="84.5511112605664" y2="62.5382285676538"/>
    <line x1="84.5511112605664" y1="62.5382285676538" x2="84.5" y2="62.15"/>
    <line x1="84.5" y1="62.15" x2="84.5511112605664" y2="61.7617714323462"/>
    <line x1="84.5511112605664" y1="61.7617714323462" x2="84.7009618943234" y2="61.4"/>
    <line x1="84.7009618943234" y1="61.4" x2="84.9393398282202" y2="61.0893398282201"/>
    <line x1="84.9393398282202" y1="61.0893398282201" x2="85.2500000000001" y2="60.8509618943233"/>
    <line x1="85.2500000000001" y1="60.8509618943233" x2="85.6117714323462" y2="60.7011112605664"/>
    <line x1="85.6117714323462" y1="60.7011112605664" x2="85.9999999999999" y2="60.65"/>
    <line x1="85.9999999999999" y1="60.65" x2="86.3882285676539" y2="60.7011112605664"/>
    <line x1="86.3882285676539" y1="60.7011112605664" x2="86.7499999999999" y2="60.8509618943233"/>
    <line x1="86.7499999999999" y1="60.8509618943233" x2="87.0606601717798" y2="61.0893398282201"/>
    <line x1="87.0606601717798" y1="61.0893398282201" x2="87.2990381056767" y2="61.4"/>
    <line x1="87.2990381056767" y1="61.4" x2="87.4488887394336" y2="61.7617714323462"/>
    <line x1="87.4488887394336" y1="61.7617714323462" x2="87.5" y2="62.15"/>
    <line x1="87.5" y1="62.15" x2="87.4488887394336" y2="62.5382285676538"/>
    <line x1="87.4488887394336" y1="62.5382285676538" x2="87.2990381056766" y2="62.9"/>
    <line x1="87.2990381056766" y1="62.9" x2="87.0606601717798" y2="63.2106601717798"/>
    <line x1="87.0606601717798" y1="63.2106601717798" x2="86.7499999999999" y2="63.4490381056767"/>
    <line x1="86.7499999999999" y1="63.4490381056767" x2="86.3882285676539" y2="63.5988887394336"/>
    <line x1="6.38822856765381" y1="63.5988887394336" x2="6.0" y2="63.6499999999999"/>
    <line x1="6.0" y1="63.6499999999999" x2="5.61177143234625" y2="63.5988887394336"/>
    <line x1="5.61177143234625" y1="63.5988887394336" x2="5.25" y2="63.4490381056767"/>
    <line x1="5.25" y1="63.4490381056767" x2="4.93933982822023" y2="63.2106601717798"/>
    <line x1="4.93933982822023" y1="63.2106601717798" x2="4.70096189432337" y2="62.9"/>
    <line x1="4.70096189432337" y1="62.9" x2="4.55111126056642" y2="62.5382285676538"/>
    <line x1="4.55111126056642" y1="62.5382285676538" x2="4.50000000000006" y2="62.15"/>
    <line x1="4.50000000000006" y1="62.15" x2="4.55111126056642" y2="61.7617714323462"/>
    <line x1="4.55111126056642" y1="61.7617714323462" x2="4.70096189432337" y2="61.4"/>
    <line x1="4.70096189432337" y1="61.4" x2="4.93933982822023" y2="61.0893398282201"/>
    <line x1="4.93933982822023" y1="61.0893398282201" x2="5.25" y2="60.8509618943233"/>
    <line x1="5.25" y1="60.8509618943233" x2="5.61177143234625" y2="60.7011112605664"/>
    <line x1="5.61177143234625" y1="60.7011112605664" x2="6.0" y2="60.65"/>
    <line x1="6.0" y1="60.65" x2="6.38822856765381" y2="60.7011112605664"/>
    <line x1="6.38822856765381" y1="60.7011112605664" x2="6.75" y2="60.8509618943233"/>
    <line x1="6.75" y1="60.8509618943233" x2="7.06066017177983" y2="61.0893398282201"/>
    <line x1="7.06066017177983" y1="61.0893398282201" x2="7.29903810567669" y2="61.4"/>
    <line x1="7.29903810567669" y1="61.4" x2="7.44888873943358" y2="61.7617714323462"/>
    <line x1="7.44888873943358" y1="61.7617714323462" x2="7.50000000000006" y2="62.15"/>
    <line x1="7.50000000000006" y1="62.15" x2="7.44888873943358" y2="62.5382285676538"/>
    <line x1="7.44888873943358" y1="62.5382285676538" x2="7.29903810567669" y2="62.9"/>
    <line x1="7.29903810567669" y1="62.9" x2="7.06066017177983" y2="63.2106601717798"/>
    <line x1="7.06066017177983" y1="63.2106601717798" x2="6.75" y2="63.4490381056767"/>
    <line x1="6.75" y1="63.4490381056767" x2="6.38822856765381" y2="63.5988887394336"/>
    <line x1="5.61177143234625" y1="28.4011112605664" x2="6.0" y2="28.35"/>
    <line x1="6.0" y1="28.35" x2="6.38822856765381" y2="28.4011112605664"/>
    <line x1="6.38822856765381" y1="28.4011112605664" x2="6.75" y2="28.5509618943233"/>
    <line x1="6.75" y1="28.5509618943233" x2="7.06066017177983" y2="28.7893398282202"/>
    <line x1="7.06066017177983" y1="28.7893398282202" x2="7.29903810567669" y2="29.1"/>
    <line x1="7.29903810567669" y1="29.1" x2="7.44888873943358" y2="29.4617714323462"/>
    <line x1="7.44888873943358" y1="29.4617714323462" x2="7.50000000000006" y2="29.85"/>
    <line x1="7.50000000000006" y1="29.85" x2="7.44888873943358" y2="30.2382285676538"/>
    <line x1="7.44888873943358" y1="30.2382285676538" x2="7.29903810567669" y2="30.6"/>
    <line x1="7.29903810567669" y1="30.6" x2="7.06066017177983" y2="30.9106601717798"/>
    <line x1="7.06066017177983" y1="30.9106601717798" x2="6.75" y2="31.1490381056767"/>
    <line x1="6.75" y1="31.1490381056767" x2="6.38822856765381" y2="31.2988887394336"/>
    <line x1="6.38822856765381" y1="31.2988887394336" x2="6.0" y2="31.35"/>
    <line x1="6.0" y1="31.35" x2="5.61177143234625" y2="31.2988887394336"/>
    <line x1="5.61177143234625" y1="31.2988887394336" x2="5.25" y2="31.1490381056767"/>
    <line x1="5.25" y1="31.1490381056767" x2="4.93933982822023" y2="30.9106601717798"/>
    <line x1="4.93933982822023" y1="30.9106601717798" x2="4.70096189432337" y2="30.6"/>
    <line x1="4.70096189432337" y1="30.6" x2="4.55111126056642" y2="30.2382285676538"/>
    <line x1="4.55111126056642" y1="30.2382285676538" x2="4.50000000000006" y2="29.85"/>
    <line x1="4.50000000000006" y1="29.85" x2="4.55111126056642" y2="29.4617714323462"/>
    <line x1="4.55111126056642" y1="29.4617714323462" x2="4.70096189432337" y2="29.1"/>
    <line x1="4.70096189432337" y1="29.1" x2="4.93933982822023" y2="28.7893398282202"/>
    <line x1="4.93933982822023" y1="28.7893398282202" x2="5.25" y2="28.5509618943233"/>
    <line x1="5.25" y1="28.5509618943233" x2="5.61177143234625" y2="28.4011112605664"/>
    <line x1="40.6117714323462" y1="7.55111126056636" x2="41.0000000000001" y2="7.5"/>
    <line x1="41.0000000000001" y1="7.5" x2="41.3882285676538" y2="7.55111126056639"/>
    <line x1="41.3882285676538" y1="7.55111126056639" x2="41.7500000000001" y2="7.70096189432334"/>
    <line x1="41.7500000000001" y1="7.70096189432334" x2="42.0606601717798" y2="7.93933982822017"/>
    <line x1="42.0606601717798" y1="7.93933982822017" x2="42.2990381056767" y2="8.25"/>
    <line x1="42.2990381056767" y1="8.25" x2="42.4488887394336" y2="8.61177143234625"/>
    <line x1="42.4488887394336" y1="8.61177143234625" x2="42.5" y2="8.99999999999994"/>
    <line x1="42.5" y1="8.99999999999994" x2="42.4488887394336" y2="9.38822856765378"/>
    <line x1="42.4488887394336" y1="9.38822856765378" x2="42.2990381056767" y2="9.75"/>
    <line x1="42.2990381056767" y1="9.75" x2="42.0606601717798" y2="10.0606601717798"/>
    <line x1="42.0606601717798" y1="10.0606601717798" x2="41.7500000000001" y2="10.2990381056767"/>
    <line x1="41.7500000000001" y1="10.2990381056767" x2="41.3882285676538" y2="10.4488887394336"/>
    <line x1="41.3882285676538" y1="10.4488887394336" x2="41.0000000000001" y2="10.5"/>
    <line x1="41.0000000000001" y1="10.5" x2="40.6117714323462" y2="10.4488887394336"/>
    <line x1="40.6117714323462" y1="10.4488887394336" x2="40.25" y2="10.2990381056767"/>
    <line x1="40.25" y1="10.2990381056767" x2="39.9393398282202" y2="10.0606601717798"/>
    <line x1="39.9393398282202" y1="10.0606601717798" x2="39.7009618943234" y2="9.74999999999997"/>
    <line x1="39.7009618943234" y1="9.74999999999997" x2="39.5511112605664" y2="9.38822856765378"/>
    <line x1="39.5511112605664" y1="9.38822856765378" x2="39.5" y2="8.99999999999994"/>
    <line x1="39.5" y1="8.99999999999994" x2="39.5511112605664" y2="8.61177143234616"/>
    <line x1="39.5511112605664" y1="8.61177143234616" x2="39.7009618943234" y2="8.25000000000003"/>
    <line x1="39.7009618943234" y1="8.25000000000003" x2="39.9393398282202" y2="7.93933982822017"/>
    <line x1="39.9393398282202" y1="7.93933982822017" x2="40.25" y2="7.70096189432337"/>
    <line x1="40.25" y1="7.70096189432337" x2="40.6117714323462" y2="7.55111126056636"/>
    <line x1="50.6117714323462" y1="7.55111126056636" x2="51.0" y2="7.50000000000003"/>
    <line x1="51.0" y1="7.50000000000003" x2="51.3882285676539" y2="7.55111126056636"/>
    <line x1="51.3882285676539" y1="7.55111126056636" x2="51.75" y2="7.70096189432334"/>
    <line x1="51.75" y1="7.70096189432334" x2="52.0606601717798" y2="7.93933982822011"/>
    <line x1="52.0606601717798" y1="7.93933982822011" x2="52.2990381056767" y2="8.25000000000009"/>
    <line x1="52.2990381056767" y1="8.25000000000009" x2="52.4488887394336" y2="8.61177143234627"/>
    <line x1="52.4488887394336" y1="8.61177143234627" x2="52.5" y2="9.0"/>
    <line x1="52.5" y1="9.0" x2="52.4488887394336" y2="9.38822856765381"/>
    <line x1="52.4488887394336" y1="9.38822856765381" x2="52.2990381056767" y2="9.75"/>
    <line x1="52.2990381056767" y1="9.75" x2="52.0606601717798" y2="10.0606601717798"/>
    <line x1="52.0606601717798" y1="10.0606601717798" x2="51.75" y2="10.2990381056767"/>
    <line x1="51.75" y1="10.2990381056767" x2="51.3882285676539" y2="10.4488887394336"/>
    <line x1="51.3882285676539" y1="10.4488887394336" x2="51.0" y2="10.5"/>
    <line x1="51.0" y1="10.5" x2="50.6117714323462" y2="10.4488887394336"/>
    <line x1="50.6117714323462" y1="10.4488887394336" x2="50.2499999999999" y2="10.2990381056767"/>
    <line x1="50.2499999999999" y1="10.2990381056767" x2="49.9393398282202" y2="10.0606601717799"/>
    <line x1="49.9393398282202" y1="10.0606601717799" x2="49.7009618943234" y2="9.74999999999997"/>
    <line x1="49.7009618943234" y1="9.74999999999997" x2="49.5511112605665" y2="9.38822856765375"/>
    <line x1="49.5511112605665" y1="9.38822856765375" x2="49.4999999999999" y2="9.0"/>
    <line x1="49.4999999999999" y1="9.0" x2="49.5511112605665" y2="8.61177143234622"/>
    <line x1="49.5511112605665" y1="8.61177143234622" x2="49.7009618943234" y2="8.25"/>
    <line x1="49.7009618943234" y1="8.25" x2="49.9393398282203" y2="7.93933982822011"/>
    <line x1="49.9393398282203" y1="7.93933982822011" x2="50.2499999999999" y2="7.7009618943234"/>
    <line x1="50.2499999999999" y1="7.7009618943234" x2="50.6117714323462" y2="7.55111126056636"/>
  </g>
</svg>
