<?xml version="1.0" standalone="no"?>
<!DOCTYPE svg PUBLIC "-//W3C//DTD SVG 1.1//EN" "http://www.w3.org/Graphics/SVG/1.1/DTD/svg11.dtd">
<svg width="12.0mm" height="44.3mm"
 viewBox="0 0 12.0 44.3"
 xmlns="http://www.w3.org/2000/svg" version="1.1"
 xmlns:xlink="http://www.w3.org/1999/xlink">
<desc>Output from Flights of Ideas SVG Sketchup Plugin</desc>

  <g id="face0" fill="none" stroke="rgb(0,0,255)" stroke-width="1" stroke-miterlimit="4" stroke-dasharray="none" stroke-linejoin="round" stroke-linecap="round">
    <line x1="1.0" y1="1.0" x2="1.0" y2="43.3"/>
    <line x1="1.0" y1="43.3" x2="11.0" y2="43.3"/>
    <line x1="11.0" y1="43.3" x2="11.0" y2="1.0"/>
    <line x1="11.0" y1="1.0" x2="1.0" y2="1.0"/>
    <line x1="6.38822856765375" y1="39.5250770446188" x2="6.0" y2="39.5761883051852"/>
    <line x1="6.0" y1="39.5761883051852" x2="5.61177143234625" y2="39.5250770446188"/>
    <line x1="5.61177143234625" y1="39.5250770446188" x2="5.25" y2="39.3752264108618"/>
    <line x1="5.25" y1="39.3752264108618" x2="4.93933982822011" y2="39.136848476965"/>
    <line x1="4.93933982822011" y1="39.136848476965" x2="4.70096189432331" y2="38.8261883051852"/>
    <line x1="4.70096189432331" y1="38.8261883051852" x2="4.55111126056647" y2="38.4644168728389"/>
    <line x1="4.55111126056647" y1="38.4644168728389" x2="4.5" y2="38.0761883051852"/>
    <line x1="4.5" y1="38.0761883051852" x2="4.55111126056647" y2="37.6879597375314"/>
    <line x1="4.55111126056647" y1="37.6879597375314" x2="4.70096189432331" y2="37.3261883051852"/>
    <line x1="4.70096189432331" y1="37.3261883051852" x2="4.93933982822011" y2="37.0155281334053"/>
    <line x1="4.93933982822011" y1="37.0155281334053" x2="5.25" y2="36.7771501995086"/>
    <line x1="5.25" y1="36.7771501995086" x2="5.61177143234625" y2="36.6272995657516"/>
    <line x1="5.61177143234625" y1="36.6272995657516" x2="6.0" y2="36.5761883051852"/>
    <line x1="6.0" y1="36.5761883051852" x2="6.38822856765375" y2="36.6272995657516"/>
    <line x1="6.38822856765375" y1="36.6272995657516" x2="6.74999999999989" y2="36.7771501995086"/>
    <line x1="6.74999999999989" y1="36.7771501995086" x2="7.06066017177977" y2="37.0155281334053"/>
    <line x1="7.06066017177977" y1="37.0155281334053" x2="7.29903810567657" y2="37.3261883051852"/>
    <line x1="7.29903810567657" y1="37.3261883051852" x2="7.44888873943364" y2="37.6879597375314"/>
    <line x1="7.44888873943364" y1="37.6879597375314" x2="7.5" y2="38.0761883051852"/>
    <line x1="7.5" y1="38.0761883051852" x2="7.44888873943364" y2="38.4644168728389"/>
    <line x1="7.44888873943364" y1="38.4644168728389" x2="7.29903810567657" y2="38.8261883051852"/>
    <line x1="7.29903810567657" y1="38.8261883051852" x2="7.06066017177977" y2="39.136848476965"/>
    <line x1="7.06066017177977" y1="39.136848476965" x2="6.74999999999989" y2="39.3752264108618"/>
    <line x1="6.74999999999989" y1="39.3752264108618" x2="6.38822856765375" y2="39.5250770446188"/>
    <line x1="6.0" y1="4.50000000000001" x2="6.38822856765375" y2="4.55111126056643"/>
    <line x1="6.38822856765375" y1="4.55111126056643" x2="6.74999999999989" y2="4.70096189432337"/>
    <line x1="6.74999999999989" y1="4.70096189432337" x2="7.06066017177977" y2="4.93933982822014"/>
    <line x1="7.06066017177977" y1="4.93933982822014" x2="7.29903810567657" y2="5.25000000000003"/>
    <line x1="7.29903810567657" y1="5.25000000000003" x2="7.44888873943364" y2="5.61177143234624"/>
    <line x1="7.44888873943364" y1="5.61177143234624" x2="7.5" y2="6.00000000000004"/>
    <line x1="7.5" y1="6.00000000000004" x2="7.44888873943364" y2="6.38822856765375"/>
    <line x1="7.44888873943364" y1="6.38822856765375" x2="7.29903810567657" y2="6.74999999999996"/>
    <line x1="7.29903810567657" y1="6.74999999999996" x2="7.06066017177977" y2="7.06066017177984"/>
    <line x1="7.06066017177977" y1="7.06066017177984" x2="6.75" y2="7.29903810567662"/>
    <line x1="6.75" y1="7.29903810567662" x2="6.38822856765375" y2="7.44888873943364"/>
    <line x1="6.38822856765375" y1="7.44888873943364" x2="6.0" y2="7.49999999999996"/>
    <line x1="6.0" y1="7.49999999999996" x2="5.61177143234625" y2="7.44888873943364"/>
    <line x1="5.61177143234625" y1="7.44888873943364" x2="5.25" y2="7.29903810567662"/>
    <line x1="5.25" y1="7.29903810567662" x2="4.93933982822011" y2="7.06066017177984"/>
    <line x1="4.93933982822011" y1="7.06066017177984" x2="4.70096189432331" y2="6.74999999999996"/>
    <line x1="4.70096189432331" y1="6.74999999999996" x2="4.55111126056647" y2="6.38822856765375"/>
    <line x1="4.55111126056647" y1="6.38822856765375" x2="4.5" y2="6.00000000000004"/>
    <line x1="4.5" y1="6.00000000000004" x2="4.55111126056647" y2="5.61177143234624"/>
    <line x1="4.55111126056647" y1="5.61177143234624" x2="4.70096189432331" y2="5.25000000000003"/>
    <line x1="4.70096189432331" y1="5.25000000000003" x2="4.93933982822011" y2="4.93933982822014"/>
    <line x1="4.93933982822011" y1="4.93933982822014" x2="5.25" y2="4.70096189432337"/>
    <line x1="5.25" y1="4.70096189432337" x2="5.61177143234625" y2="4.55111126056643"/>
    <line x1="5.61177143234625" y1="4.55111126056643" x2="6.0" y2="4.50000000000001"/>
  </g>
</svg>
