<?xml version="1.0" standalone="no"?>
<!DOCTYPE svg PUBLIC "-//W3C//DTD SVG 1.1//EN" "http://www.w3.org/Graphics/SVG/1.1/DTD/svg11.dtd">
<svg width="91.9999999999999mm" height="44.3mm"
 viewBox="0 0 91.9999999999999 44.3"
 xmlns="http://www.w3.org/2000/svg" version="1.1"
 xmlns:xlink="http://www.w3.org/1999/xlink">
<desc>Output from Flights of Ideas SVG Sketchup Plugin</desc>

  <g id="face0" fill="none" stroke="rgb(0,0,255)" stroke-width="1" stroke-miterlimit="4" stroke-dasharray="none" stroke-linejoin="round" stroke-linecap="round">
    <line x1="90.9999999999999" y1="43.3" x2="90.9999999999999" y2="1.00000000000003"/>
    <line x1="90.9999999999999" y1="1.00000000000003" x2="1.0" y2="1.0"/>
    <line x1="1.0" y1="1.0" x2="1.0" y2="43.3"/>
    <line x1="1.0" y1="43.3" x2="90.9999999999999" y2="43.3"/>
    <line x1="63.4318516525781" y1="37.65" x2="63.3660254037844" y2="38.1499999999999"/>
    <line x1="63.3660254037844" y1="38.1499999999999" x2="63.1730326074756" y2="38.6159258262891"/>
    <line x1="63.1730326074756" y1="38.6159258262891" x2="62.8660254037844" y2="39.0160254037844"/>
    <line x1="62.8660254037844" y1="39.0160254037844" x2="62.4659258262891" y2="39.3230326074756"/>
    <line x1="62.4659258262891" y1="39.3230326074756" x2="62.0" y2="39.5160254037844"/>
    <line x1="62.0" y1="39.5160254037844" x2="61.4999999999999" y2="39.5818516525782"/>
    <line x1="61.4999999999999" y1="39.5818516525782" x2="61.0" y2="39.5160254037844"/>
    <line x1="61.0" y1="39.5160254037844" x2="60.5340741737109" y2="39.3230326074756"/>
    <line x1="60.5340741737109" y1="39.3230326074756" x2="60.1339745962156" y2="39.0160254037845"/>
    <line x1="60.1339745962156" y1="39.0160254037845" x2="59.8269673925244" y2="38.6159258262891"/>
    <line x1="59.8269673925244" y1="38.6159258262891" x2="59.6339745962155" y2="38.1499999999999"/>
    <line x1="59.6339745962155" y1="38.1499999999999" x2="59.5681483474219" y2="37.6499999999999"/>
    <line x1="59.5681483474219" y1="37.6499999999999" x2="59.6339745962155" y2="37.15"/>
    <line x1="59.6339745962155" y1="37.15" x2="59.8269673925244" y2="36.684074173711"/>
    <line x1="59.8269673925244" y1="36.684074173711" x2="60.1339745962156" y2="36.2839745962155"/>
    <line x1="60.1339745962156" y1="36.2839745962155" x2="60.5340741737109" y2="35.9769673925244"/>
    <line x1="60.5340741737109" y1="35.9769673925244" x2="61.0" y2="35.7839745962156"/>
    <line x1="61.0" y1="35.7839745962156" x2="61.4999999999999" y2="35.7181483474219"/>
    <line x1="61.4999999999999" y1="35.7181483474219" x2="62.0" y2="35.7839745962156"/>
    <line x1="62.0" y1="35.7839745962156" x2="62.4659258262891" y2="35.9769673925244"/>
    <line x1="62.4659258262891" y1="35.9769673925244" x2="62.8660254037844" y2="36.2839745962155"/>
    <line x1="62.8660254037844" y1="36.2839745962155" x2="63.1730326074756" y2="36.684074173711"/>
    <line x1="63.1730326074756" y1="36.684074173711" x2="63.3660254037844" y2="37.15"/>
    <line x1="63.3660254037844" y1="37.15" x2="63.4318516525781" y2="37.65"/>
    <line x1="32.4318516525781" y1="37.1323619097949" x2="32.4999999999999" y2="37.6500000000001"/>
    <line x1="32.4999999999999" y1="37.6500000000001" x2="32.4318516525781" y2="38.167638090205"/>
    <line x1="32.4318516525781" y1="38.167638090205" x2="32.2320508075688" y2="38.65"/>
    <line x1="32.2320508075688" y1="38.65" x2="31.914213562373" y2="39.0642135623731"/>
    <line x1="31.914213562373" y1="39.0642135623731" x2="31.5" y2="39.382050807569"/>
    <line x1="31.5" y1="39.382050807569" x2="31.017638090205" y2="39.5818516525783"/>
    <line x1="31.017638090205" y1="39.5818516525783" x2="30.5" y2="39.6500000000001"/>
    <line x1="30.5" y1="39.6500000000001" x2="29.982361909795" y2="39.5818516525782"/>
    <line x1="29.982361909795" y1="39.5818516525782" x2="29.5" y2="39.3820508075689"/>
    <line x1="29.5" y1="39.3820508075689" x2="29.0857864376269" y2="39.064213562373"/>
    <line x1="29.0857864376269" y1="39.064213562373" x2="28.7679491924311" y2="38.65"/>
    <line x1="28.7679491924311" y1="38.65" x2="28.5681483474219" y2="38.1676380902051"/>
    <line x1="28.5681483474219" y1="38.1676380902051" x2="28.5" y2="37.65"/>
    <line x1="28.5" y1="37.65" x2="28.5681483474219" y2="37.1323619097949"/>
    <line x1="28.5681483474219" y1="37.1323619097949" x2="28.7679491924311" y2="36.6500000000001"/>
    <line x1="28.7679491924311" y1="36.6500000000001" x2="29.0857864376269" y2="36.2357864376269"/>
    <line x1="29.0857864376269" y1="36.2357864376269" x2="29.5" y2="35.9179491924311"/>
    <line x1="29.5" y1="35.9179491924311" x2="29.982361909795" y2="35.7181483474219"/>
    <line x1="29.982361909795" y1="35.7181483474219" x2="30.5" y2="35.65"/>
    <line x1="30.5" y1="35.65" x2="31.017638090205" y2="35.7181483474219"/>
    <line x1="31.017638090205" y1="35.7181483474219" x2="31.5" y2="35.9179491924311"/>
    <line x1="31.5" y1="35.9179491924311" x2="31.914213562373" y2="36.2357864376269"/>
    <line x1="31.914213562373" y1="36.2357864376269" x2="32.2320508075688" y2="36.65"/>
    <line x1="32.2320508075688" y1="36.65" x2="32.4318516525781" y2="37.1323619097949"/>
    <line x1="62.948287736084" y1="5.23578643762698" x2="63.2661249812799" y2="5.65000000000005"/>
    <line x1="63.2661249812799" y1="5.65000000000005" x2="63.465925826289" y2="6.13236190979502"/>
    <line x1="63.465925826289" y1="6.13236190979502" x2="63.5340741737108" y2="6.65000000000001"/>
    <line x1="63.5340741737108" y1="6.65000000000001" x2="63.465925826289" y2="7.16763809020507"/>
    <line x1="63.465925826289" y1="7.16763809020507" x2="63.2661249812799" y2="7.65000000000005"/>
    <line x1="63.2661249812799" y1="7.65000000000005" x2="62.948287736084" y2="8.06421356237318"/>
    <line x1="62.948287736084" y1="8.06421356237318" x2="62.5340741737109" y2="8.38205080756896"/>
    <line x1="62.5340741737109" y1="8.38205080756896" x2="62.0517122639159" y2="8.58185165257817"/>
    <line x1="62.0517122639159" y1="8.58185165257817" x2="61.534074173711" y2="8.65000000000009"/>
    <line x1="61.534074173711" y1="8.65000000000009" x2="61.0164360835059" y2="8.58185165257817"/>
    <line x1="61.0164360835059" y1="8.58185165257817" x2="60.5340741737109" y2="8.38205080756893"/>
    <line x1="60.5340741737109" y1="8.38205080756893" x2="60.1198606113379" y2="8.06421356237318"/>
    <line x1="60.1198606113379" y1="8.06421356237318" x2="59.802023366142" y2="7.65000000000005"/>
    <line x1="59.802023366142" y1="7.65000000000005" x2="59.6022225211328" y2="7.16763809020507"/>
    <line x1="59.6022225211328" y1="7.16763809020507" x2="59.5340741737109" y2="6.65000000000001"/>
    <line x1="59.5340741737109" y1="6.65000000000001" x2="59.6022225211328" y2="6.13236190979499"/>
    <line x1="59.6022225211328" y1="6.13236190979499" x2="59.802023366142" y2="5.65000000000002"/>
    <line x1="59.802023366142" y1="5.65000000000002" x2="60.1198606113379" y2="5.23578643762698"/>
    <line x1="60.1198606113379" y1="5.23578643762698" x2="60.5340741737109" y2="4.91794919243122"/>
    <line x1="60.5340741737109" y1="4.91794919243122" x2="61.0164360835059" y2="4.71814834742192"/>
    <line x1="61.0164360835059" y1="4.71814834742192" x2="61.534074173711" y2="4.65000000000008"/>
    <line x1="61.534074173711" y1="4.65000000000008" x2="62.0517122639159" y2="4.71814834742192"/>
    <line x1="62.0517122639159" y1="4.71814834742192" x2="62.5340741737109" y2="4.91794919243122"/>
    <line x1="62.5340741737109" y1="4.91794919243122" x2="62.948287736084" y2="5.23578643762698"/>
    <line x1="32.4999999999999" y1="6.65000000000002" x2="32.4318516525781" y2="7.16763809020507"/>
    <line x1="32.4318516525781" y1="7.16763809020507" x2="32.2320508075688" y2="7.65000000000005"/>
    <line x1="32.2320508075688" y1="7.65000000000005" x2="31.914213562373" y2="8.06421356237318"/>
    <line x1="31.914213562373" y1="8.06421356237318" x2="31.5" y2="8.38205080756893"/>
    <line x1="31.5" y1="8.38205080756893" x2="31.017638090205" y2="8.58185165257819"/>
    <line x1="31.017638090205" y1="8.58185165257819" x2="30.5" y2="8.65000000000006"/>
    <line x1="30.5" y1="8.65000000000006" x2="29.982361909795" y2="8.58185165257817"/>
    <line x1="29.982361909795" y1="8.58185165257817" x2="29.5" y2="8.38205080756893"/>
    <line x1="29.5" y1="8.38205080756893" x2="29.0857864376269" y2="8.06421356237318"/>
    <line x1="29.0857864376269" y1="8.06421356237318" x2="28.7679491924311" y2="7.65000000000005"/>
    <line x1="28.7679491924311" y1="7.65000000000005" x2="28.5681483474219" y2="7.16763809020507"/>
    <line x1="28.5681483474219" y1="7.16763809020507" x2="28.5" y2="6.65000000000001"/>
    <line x1="28.5" y1="6.65000000000001" x2="28.5681483474219" y2="6.13236190979502"/>
    <line x1="28.5681483474219" y1="6.13236190979502" x2="28.7679491924311" y2="5.65000000000005"/>
    <line x1="28.7679491924311" y1="5.65000000000005" x2="29.0857864376269" y2="5.23578643762698"/>
    <line x1="29.0857864376269" y1="5.23578643762698" x2="29.5" y2="4.91794919243122"/>
    <line x1="29.5" y1="4.91794919243122" x2="29.982361909795" y2="4.71814834742192"/>
    <line x1="29.982361909795" y1="4.71814834742192" x2="30.5" y2="4.65000000000012"/>
    <line x1="30.5" y1="4.65000000000012" x2="31.017638090205" y2="4.7181483474219"/>
    <line x1="31.017638090205" y1="4.7181483474219" x2="31.5" y2="4.91794919243122"/>
    <line x1="31.5" y1="4.91794919243122" x2="31.914213562373" y2="5.23578643762698"/>
    <line x1="31.914213562373" y1="5.23578643762698" x2="32.2320508075688" y2="5.65000000000005"/>
    <line x1="32.2320508075688" y1="5.65000000000005" x2="32.4318516525781" y2="6.13236190979499"/>
    <line x1="32.4318516525781" y1="6.13236190979499" x2="32.4999999999999" y2="6.65000000000002"/>
    <line x1="34.8918529976757" y1="25.1264190186791" x2="34.5000000000001" y2="22.1500000000001"/>
    <line x1="34.5000000000001" y1="22.1500000000001" x2="34.8918529976757" y2="19.173580981321"/>
    <line x1="34.8918529976757" y1="19.173580981321" x2="36.0407078564789" y2="16.4"/>
    <line x1="36.0407078564789" y1="16.4" x2="37.8682720163548" y2="14.0182720163547"/>
    <line x1="37.8682720163548" y1="14.0182720163547" x2="40.25" y2="12.190707856479"/>
    <line x1="40.25" y1="12.190707856479" x2="43.023580981321" y2="11.0418529976757"/>
    <line x1="43.023580981321" y1="11.0418529976757" x2="46.0000000000001" y2="10.6500000000001"/>
    <line x1="46.0000000000001" y1="10.6500000000001" x2="48.976419018679" y2="11.0418529976758"/>
    <line x1="48.976419018679" y1="11.0418529976758" x2="51.75" y2="12.190707856479"/>
    <line x1="51.75" y1="12.190707856479" x2="54.1317279836454" y2="14.0182720163547"/>
    <line x1="54.1317279836454" y1="14.0182720163547" x2="55.9592921435211" y2="16.4"/>
    <line x1="55.9592921435211" y1="16.4" x2="57.1081470023243" y2="19.173580981321"/>
    <line x1="57.1081470023243" y1="19.173580981321" x2="57.5000000000001" y2="22.1500000000001"/>
    <line x1="57.5000000000001" y1="22.1500000000001" x2="57.1081470023243" y2="25.126419018679"/>
    <line x1="57.1081470023243" y1="25.126419018679" x2="55.9592921435211" y2="27.9"/>
    <line x1="55.9592921435211" y1="27.9" x2="54.1317279836454" y2="30.2817279836454"/>
    <line x1="54.1317279836454" y1="30.2817279836454" x2="51.75" y2="32.1092921435211"/>
    <line x1="51.75" y1="32.1092921435211" x2="48.976419018679" y2="33.2581470023243"/>
    <line x1="48.976419018679" y1="33.2581470023243" x2="46.0000000000001" y2="33.65"/>
    <line x1="46.0000000000001" y1="33.65" x2="43.023580981321" y2="33.2581470023243"/>
    <line x1="43.023580981321" y1="33.2581470023243" x2="40.25" y2="32.1092921435211"/>
    <line x1="40.25" y1="32.1092921435211" x2="37.8682720163548" y2="30.2817279836454"/>
    <line x1="37.8682720163548" y1="30.2817279836454" x2="36.0407078564789" y2="27.9000000000001"/>
    <line x1="36.0407078564789" y1="27.9000000000001" x2="34.8918529976757" y2="25.1264190186791"/>
    <line x1="86.3882285676538" y1="39.7488887394336" x2="86.0" y2="39.8"/>
    <line x1="86.0" y1="39.8" x2="85.6117714323462" y2="39.7488887394336"/>
    <line x1="85.6117714323462" y1="39.7488887394336" x2="85.25" y2="39.5990381056767"/>
    <line x1="85.25" y1="39.5990381056767" x2="84.9393398282202" y2="39.3606601717798"/>
    <line x1="84.9393398282202" y1="39.3606601717798" x2="84.7009618943233" y2="39.05"/>
    <line x1="84.7009618943233" y1="39.05" x2="84.5511112605664" y2="38.6882285676538"/>
    <line x1="84.5511112605664" y1="38.6882285676538" x2="84.4999999999999" y2="38.3"/>
    <line x1="84.4999999999999" y1="38.3" x2="84.5511112605664" y2="37.9117714323462"/>
    <line x1="84.5511112605664" y1="37.9117714323462" x2="84.7009618943233" y2="37.55"/>
    <line x1="84.7009618943233" y1="37.55" x2="84.9393398282202" y2="37.2393398282202"/>
    <line x1="84.9393398282202" y1="37.2393398282202" x2="85.25" y2="37.0009618943234"/>
    <line x1="85.25" y1="37.0009618943234" x2="85.6117714323462" y2="36.8511112605664"/>
    <line x1="85.6117714323462" y1="36.8511112605664" x2="86.0" y2="36.8"/>
    <line x1="86.0" y1="36.8" x2="86.3882285676538" y2="36.8511112605664"/>
    <line x1="86.3882285676538" y1="36.8511112605664" x2="86.75" y2="37.0009618943234"/>
    <line x1="86.75" y1="37.0009618943234" x2="87.0606601717798" y2="37.2393398282202"/>
    <line x1="87.0606601717798" y1="37.2393398282202" x2="87.2990381056767" y2="37.55"/>
    <line x1="87.2990381056767" y1="37.55" x2="87.4488887394336" y2="37.9117714323462"/>
    <line x1="87.4488887394336" y1="37.9117714323462" x2="87.5" y2="38.3"/>
    <line x1="87.5" y1="38.3" x2="87.4488887394336" y2="38.6882285676538"/>
    <line x1="87.4488887394336" y1="38.6882285676538" x2="87.2990381056767" y2="39.05"/>
    <line x1="87.2990381056767" y1="39.05" x2="87.0606601717798" y2="39.3606601717798"/>
    <line x1="87.0606601717798" y1="39.3606601717798" x2="86.75" y2="39.5990381056767"/>
    <line x1="86.75" y1="39.5990381056767" x2="86.3882285676538" y2="39.7488887394336"/>
    <line x1="85.6117714323462" y1="4.55111126056646" x2="86.0" y2="4.50000000000004"/>
    <line x1="86.0" y1="4.50000000000004" x2="86.3882285676537" y2="4.55111126056646"/>
    <line x1="86.3882285676537" y1="4.55111126056646" x2="86.75" y2="4.70096189432338"/>
    <line x1="86.75" y1="4.70096189432338" x2="87.0606601717798" y2="4.93933982822026"/>
    <line x1="87.0606601717798" y1="4.93933982822026" x2="87.2990381056767" y2="5.25000000000004"/>
    <line x1="87.2990381056767" y1="5.25000000000004" x2="87.4488887394336" y2="5.61177143234626"/>
    <line x1="87.4488887394336" y1="5.61177143234626" x2="87.5" y2="6.00000000000006"/>
    <line x1="87.5" y1="6.00000000000006" x2="87.4488887394336" y2="6.38822856765385"/>
    <line x1="87.4488887394336" y1="6.38822856765385" x2="87.2990381056767" y2="6.75000000000007"/>
    <line x1="87.2990381056767" y1="6.75000000000007" x2="87.0606601717798" y2="7.06066017177986"/>
    <line x1="87.0606601717798" y1="7.06066017177986" x2="86.75" y2="7.29903810567673"/>
    <line x1="86.75" y1="7.29903810567673" x2="86.3882285676537" y2="7.44888873943366"/>
    <line x1="86.3882285676537" y1="7.44888873943366" x2="86.0" y2="7.50000000000007"/>
    <line x1="86.0" y1="7.50000000000007" x2="85.6117714323462" y2="7.44888873943366"/>
    <line x1="85.6117714323462" y1="7.44888873943366" x2="85.25" y2="7.29903810567673"/>
    <line x1="85.25" y1="7.29903810567673" x2="84.9393398282202" y2="7.06066017177986"/>
    <line x1="84.9393398282202" y1="7.06066017177986" x2="84.7009618943233" y2="6.75000000000007"/>
    <line x1="84.7009618943233" y1="6.75000000000007" x2="84.5511112605664" y2="6.38822856765385"/>
    <line x1="84.5511112605664" y1="6.38822856765385" x2="84.4999999999999" y2="6.00000000000006"/>
    <line x1="84.4999999999999" y1="6.00000000000006" x2="84.5511112605664" y2="5.61177143234626"/>
    <line x1="84.5511112605664" y1="5.61177143234626" x2="84.7009618943233" y2="5.25000000000004"/>
    <line x1="84.7009618943233" y1="5.25000000000004" x2="84.9393398282202" y2="4.93933982822026"/>
    <line x1="84.9393398282202" y1="4.93933982822026" x2="85.25" y2="4.70096189432338"/>
    <line x1="85.25" y1="4.70096189432338" x2="85.6117714323462" y2="4.55111126056646"/>
    <line x1="6.00000000000006" y1="4.50000000000006" x2="6.38822856765375" y2="4.55111126056643"/>
    <line x1="6.38822856765375" y1="4.55111126056643" x2="6.75000000000006" y2="4.70096189432336"/>
    <line x1="6.75000000000006" y1="4.70096189432336" x2="7.06066017177983" y2="4.93933982822023"/>
    <line x1="7.06066017177983" y1="4.93933982822023" x2="7.29903810567669" y2="5.25000000000003"/>
    <line x1="7.29903810567669" y1="5.25000000000003" x2="7.44888873943364" y2="5.61177143234626"/>
    <line x1="7.44888873943364" y1="5.61177143234626" x2="7.49999999999994" y2="6.00000000000006"/>
    <line x1="7.49999999999994" y1="6.00000000000006" x2="7.44888873943364" y2="6.38822856765385"/>
    <line x1="7.44888873943364" y1="6.38822856765385" x2="7.29903810567669" y2="6.75000000000009"/>
    <line x1="7.29903810567669" y1="6.75000000000009" x2="7.06066017177983" y2="7.06066017177983"/>
    <line x1="7.06066017177983" y1="7.06066017177983" x2="6.75000000000006" y2="7.29903810567673"/>
    <line x1="6.75000000000006" y1="7.29903810567673" x2="6.38822856765375" y2="7.44888873943368"/>
    <line x1="6.38822856765375" y1="7.44888873943368" x2="6.00000000000006" y2="7.5000000000001"/>
    <line x1="6.00000000000006" y1="7.5000000000001" x2="5.61177143234625" y2="7.44888873943366"/>
    <line x1="5.61177143234625" y1="7.44888873943366" x2="5.25000000000006" y2="7.29903810567671"/>
    <line x1="5.25000000000006" y1="7.29903810567671" x2="4.93933982822017" y2="7.06066017177993"/>
    <line x1="4.93933982822017" y1="7.06066017177993" x2="4.70096189432337" y2="6.75000000000007"/>
    <line x1="4.70096189432337" y1="6.75000000000007" x2="4.55111126056642" y2="6.38822856765385"/>
    <line x1="4.55111126056642" y1="6.38822856765385" x2="4.5" y2="6.00000000000009"/>
    <line x1="4.5" y1="6.00000000000009" x2="4.55111126056642" y2="5.61177143234623"/>
    <line x1="4.55111126056642" y1="5.61177143234623" x2="4.70096189432337" y2="5.25000000000004"/>
    <line x1="4.70096189432337" y1="5.25000000000004" x2="4.93933982822017" y2="4.93933982822026"/>
    <line x1="4.93933982822017" y1="4.93933982822026" x2="5.25000000000006" y2="4.70096189432341"/>
    <line x1="5.25000000000006" y1="4.70096189432341" x2="5.61177143234625" y2="4.55111126056647"/>
    <line x1="5.61177143234625" y1="4.55111126056647" x2="6.00000000000006" y2="4.50000000000006"/>
    <line x1="6.00000000000006" y1="39.8" x2="5.61177143234625" y2="39.7488887394338"/>
    <line x1="5.61177143234625" y1="39.7488887394338" x2="5.25000000000006" y2="39.5990381056766"/>
    <line x1="5.25000000000006" y1="39.5990381056766" x2="4.93933982822017" y2="39.3606601717801"/>
    <line x1="4.93933982822017" y1="39.3606601717801" x2="4.70096189432337" y2="39.0499999999999"/>
    <line x1="4.70096189432337" y1="39.0499999999999" x2="4.55111126056642" y2="38.6882285676537"/>
    <line x1="4.55111126056642" y1="38.6882285676537" x2="4.5" y2="38.3000000000001"/>
    <line x1="4.5" y1="38.3000000000001" x2="4.55111126056642" y2="37.9117714323461"/>
    <line x1="4.55111126056642" y1="37.9117714323461" x2="4.70096189432337" y2="37.5500000000001"/>
    <line x1="4.70096189432337" y1="37.5500000000001" x2="4.93933982822017" y2="37.2393398282201"/>
    <line x1="4.93933982822017" y1="37.2393398282201" x2="5.25000000000006" y2="37.0009618943232"/>
    <line x1="5.25000000000006" y1="37.0009618943232" x2="5.61177143234625" y2="36.8511112605665"/>
    <line x1="5.61177143234625" y1="36.8511112605665" x2="6.00000000000006" y2="36.8000000000001"/>
    <line x1="6.00000000000006" y1="36.8000000000001" x2="6.38822856765375" y2="36.8511112605665"/>
    <line x1="6.38822856765375" y1="36.8511112605665" x2="6.75000000000006" y2="37.0009618943233"/>
    <line x1="6.75000000000006" y1="37.0009618943233" x2="7.06066017177983" y2="37.2393398282203"/>
    <line x1="7.06066017177983" y1="37.2393398282203" x2="7.29903810567669" y2="37.5499999999999"/>
    <line x1="7.29903810567669" y1="37.5499999999999" x2="7.44888873943364" y2="37.911771432346"/>
    <line x1="7.44888873943364" y1="37.911771432346" x2="7.49999999999994" y2="38.3000000000001"/>
    <line x1="7.49999999999994" y1="38.3000000000001" x2="7.44888873943364" y2="38.6882285676537"/>
    <line x1="7.44888873943364" y1="38.6882285676537" x2="7.29903810567669" y2="39.0499999999998"/>
    <line x1="7.29903810567669" y1="39.0499999999998" x2="7.06066017177983" y2="39.3606601717798"/>
    <line x1="7.06066017177983" y1="39.3606601717798" x2="6.75000000000006" y2="39.5990381056767"/>
    <line x1="6.75000000000006" y1="39.5990381056767" x2="6.38822856765375" y2="39.7488887394335"/>
    <line x1="6.38822856765375" y1="39.7488887394335" x2="6.00000000000006" y2="39.8"/>
  </g>
</svg>
