<?xml version="1.0" standalone="no"?>
<!DOCTYPE svg PUBLIC "-//W3C//DTD SVG 1.1//EN" "http://www.w3.org/Graphics/SVG/1.1/DTD/svg11.dtd">
<svg width="92.0000000000001mm" height="98.0000000000001mm"
 viewBox="0 0 92.0000000000001 98.0000000000001"
 xmlns="http://www.w3.org/2000/svg" version="1.1"
 xmlns:xlink="http://www.w3.org/1999/xlink">
<desc>Output from Flights of Ideas SVG Sketchup Plugin</desc>

  <g id="face0" fill="none" stroke="rgb(0,0,255)" stroke-width="1" stroke-miterlimit="4" stroke-dasharray="none" stroke-linejoin="round" stroke-linecap="round">
    <line x1="1.0" y1="4.00000000000011" x2="1.0" y2="94.0000000000001"/>
    <line x1="1.0" y1="94.0000000000001" x2="6.0" y2="94.0000000000002"/>
    <line x1="6.0" y1="94.0000000000002" x2="6.0" y2="97.0000000000001"/>
    <line x1="6.0" y1="97.0000000000001" x2="16.0" y2="97.0000000000001"/>
    <line x1="16.0" y1="97.0000000000001" x2="16.0" y2="94.0000000000002"/>
    <line x1="16.0" y1="94.0000000000002" x2="76.0000000000001" y2="94.0000000000001"/>
    <line x1="76.0000000000001" y1="94.0000000000001" x2="76.0000000000001" y2="97.0000000000001"/>
    <line x1="76.0000000000001" y1="97.0000000000001" x2="86.0" y2="97.0000000000001"/>
    <line x1="86.0" y1="97.0000000000001" x2="86.0" y2="94.0000000000001"/>
    <line x1="86.0" y1="94.0000000000001" x2="90.9999999999999" y2="94.0000000000001"/>
    <line x1="90.9999999999999" y1="94.0000000000001" x2="91.0000000000001" y2="4.00000000000011"/>
    <line x1="91.0000000000001" y1="4.00000000000011" x2="85.9999999999999" y2="4.00000000000011"/>
    <line x1="85.9999999999999" y1="4.00000000000011" x2="85.9999999999999" y2="1.00000000000011"/>
    <line x1="85.9999999999999" y1="1.00000000000011" x2="76.0000000000001" y2="1.0"/>
    <line x1="76.0000000000001" y1="1.0" x2="76.0000000000001" y2="4.00000000000011"/>
    <line x1="76.0000000000001" y1="4.00000000000011" x2="16.0" y2="4.00000000000011"/>
    <line x1="16.0" y1="4.00000000000011" x2="16.0" y2="1.00000000000011"/>
    <line x1="16.0" y1="1.00000000000011" x2="6.0" y2="1.00000000000011"/>
    <line x1="6.0" y1="1.00000000000011" x2="6.0" y2="4.00000000000011"/>
    <line x1="6.0" y1="4.00000000000011" x2="1.0" y2="4.00000000000011"/>
    <line x1="26.0" y1="49.0000000000001" x2="26.6814834742187" y2="43.8236190979497"/>
    <line x1="26.6814834742187" y1="43.8236190979497" x2="28.6794919243113" y2="39.0000000000001"/>
    <line x1="28.6794919243113" y1="39.0000000000001" x2="31.857864376269" y2="34.8578643762692"/>
    <line x1="31.857864376269" y1="34.8578643762692" x2="36.0" y2="31.6794919243113"/>
    <line x1="36.0" y1="31.6794919243113" x2="40.8236190979496" y2="29.6814834742187"/>
    <line x1="40.8236190979496" y1="29.6814834742187" x2="46.0" y2="29.0000000000001"/>
    <line x1="46.0" y1="29.0000000000001" x2="51.1763809020504" y2="29.6814834742187"/>
    <line x1="51.1763809020504" y1="29.6814834742187" x2="56.0000000000001" y2="31.6794919243113"/>
    <line x1="56.0000000000001" y1="31.6794919243113" x2="60.142135623731" y2="34.8578643762692"/>
    <line x1="60.142135623731" y1="34.8578643762692" x2="63.3205080756888" y2="39.0000000000001"/>
    <line x1="63.3205080756888" y1="39.0000000000001" x2="65.3185165257813" y2="43.8236190979497"/>
    <line x1="65.3185165257813" y1="43.8236190979497" x2="66.0" y2="49.0000000000001"/>
    <line x1="66.0" y1="49.0000000000001" x2="65.3185165257813" y2="54.1763809020505"/>
    <line x1="65.3185165257813" y1="54.1763809020505" x2="63.3205080756888" y2="59.0000000000001"/>
    <line x1="63.3205080756888" y1="59.0000000000001" x2="60.142135623731" y2="63.1421356237311"/>
    <line x1="60.142135623731" y1="63.1421356237311" x2="56.0" y2="66.3205080756889"/>
    <line x1="56.0" y1="66.3205080756889" x2="51.1763809020504" y2="68.3185165257815"/>
    <line x1="51.1763809020504" y1="68.3185165257815" x2="46.0" y2="69.0000000000002"/>
    <line x1="46.0" y1="69.0000000000002" x2="40.8236190979496" y2="68.3185165257815"/>
    <line x1="40.8236190979496" y1="68.3185165257815" x2="36.0" y2="66.3205080756889"/>
    <line x1="36.0" y1="66.3205080756889" x2="31.857864376269" y2="63.1421356237311"/>
    <line x1="31.857864376269" y1="63.1421356237311" x2="28.6794919243113" y2="59.0000000000001"/>
    <line x1="28.6794919243113" y1="59.0000000000001" x2="26.6814834742187" y2="54.1763809020505"/>
    <line x1="26.6814834742187" y1="54.1763809020505" x2="26.0" y2="49.0000000000001"/>
    <line x1="85.9999999999999" y1="66.6500000000001" x2="85.6117714323462" y2="66.5988887394336"/>
    <line x1="85.6117714323462" y1="66.5988887394336" x2="85.2499999999999" y2="66.4490381056767"/>
    <line x1="85.2499999999999" y1="66.4490381056767" x2="84.9393398282201" y2="66.2106601717799"/>
    <line x1="84.9393398282201" y1="66.2106601717799" x2="84.7009618943234" y2="65.9000000000001"/>
    <line x1="84.7009618943234" y1="65.9000000000001" x2="84.5511112605664" y2="65.5382285676538"/>
    <line x1="84.5511112605664" y1="65.5382285676538" x2="84.5" y2="65.15"/>
    <line x1="84.5" y1="65.15" x2="84.5511112605664" y2="64.7617714323463"/>
    <line x1="84.5511112605664" y1="64.7617714323463" x2="84.7009618943234" y2="64.4000000000001"/>
    <line x1="84.7009618943234" y1="64.4000000000001" x2="84.9393398282201" y2="64.0893398282202"/>
    <line x1="84.9393398282201" y1="64.0893398282202" x2="85.2499999999999" y2="63.8509618943235"/>
    <line x1="85.2499999999999" y1="63.8509618943235" x2="85.6117714323462" y2="63.7011112605664"/>
    <line x1="85.6117714323462" y1="63.7011112605664" x2="85.9999999999999" y2="63.6500000000001"/>
    <line x1="85.9999999999999" y1="63.6500000000001" x2="86.3882285676538" y2="63.7011112605664"/>
    <line x1="86.3882285676538" y1="63.7011112605664" x2="86.7499999999999" y2="63.8509618943235"/>
    <line x1="86.7499999999999" y1="63.8509618943235" x2="87.0606601717798" y2="64.0893398282203"/>
    <line x1="87.0606601717798" y1="64.0893398282203" x2="87.2990381056767" y2="64.4000000000001"/>
    <line x1="87.2990381056767" y1="64.4000000000001" x2="87.4488887394336" y2="64.7617714323463"/>
    <line x1="87.4488887394336" y1="64.7617714323463" x2="87.4999999999999" y2="65.15"/>
    <line x1="87.4999999999999" y1="65.15" x2="87.4488887394336" y2="65.5382285676539"/>
    <line x1="87.4488887394336" y1="65.5382285676539" x2="87.2990381056767" y2="65.9000000000001"/>
    <line x1="87.2990381056767" y1="65.9000000000001" x2="87.0606601717798" y2="66.2106601717799"/>
    <line x1="87.0606601717798" y1="66.2106601717799" x2="86.7499999999999" y2="66.4490381056767"/>
    <line x1="86.7499999999999" y1="66.4490381056767" x2="86.3882285676538" y2="66.5988887394336"/>
    <line x1="86.3882285676538" y1="66.5988887394336" x2="85.9999999999999" y2="66.6500000000001"/>
    <line x1="85.6117714323462" y1="31.4011112605665" x2="85.9999999999999" y2="31.3500000000001"/>
    <line x1="85.9999999999999" y1="31.3500000000001" x2="86.3882285676538" y2="31.4011112605665"/>
    <line x1="86.3882285676538" y1="31.4011112605665" x2="86.7499999999999" y2="31.5509618943234"/>
    <line x1="86.7499999999999" y1="31.5509618943234" x2="87.0606601717798" y2="31.7893398282203"/>
    <line x1="87.0606601717798" y1="31.7893398282203" x2="87.2990381056766" y2="32.1000000000001"/>
    <line x1="87.2990381056766" y1="32.1000000000001" x2="87.4488887394336" y2="32.4617714323463"/>
    <line x1="87.4488887394336" y1="32.4617714323463" x2="87.4999999999999" y2="32.8500000000001"/>
    <line x1="87.4999999999999" y1="32.8500000000001" x2="87.4488887394336" y2="33.2382285676538"/>
    <line x1="87.4488887394336" y1="33.2382285676538" x2="87.2990381056767" y2="33.6000000000001"/>
    <line x1="87.2990381056767" y1="33.6000000000001" x2="87.0606601717798" y2="33.9106601717799"/>
    <line x1="87.0606601717798" y1="33.9106601717799" x2="86.7499999999999" y2="34.1490381056768"/>
    <line x1="86.7499999999999" y1="34.1490381056768" x2="86.3882285676538" y2="34.2988887394337"/>
    <line x1="86.3882285676538" y1="34.2988887394337" x2="85.9999999999999" y2="34.3500000000001"/>
    <line x1="85.9999999999999" y1="34.3500000000001" x2="85.6117714323462" y2="34.2988887394337"/>
    <line x1="85.6117714323462" y1="34.2988887394337" x2="85.25" y2="34.1490381056767"/>
    <line x1="85.25" y1="34.1490381056767" x2="84.9393398282201" y2="33.9106601717799"/>
    <line x1="84.9393398282201" y1="33.9106601717799" x2="84.7009618943234" y2="33.6"/>
    <line x1="84.7009618943234" y1="33.6" x2="84.5511112605664" y2="33.2382285676539"/>
    <line x1="84.5511112605664" y1="33.2382285676539" x2="84.5" y2="32.8500000000001"/>
    <line x1="84.5" y1="32.8500000000001" x2="84.5511112605664" y2="32.4617714323463"/>
    <line x1="84.5511112605664" y1="32.4617714323463" x2="84.7009618943234" y2="32.1000000000001"/>
    <line x1="84.7009618943234" y1="32.1000000000001" x2="84.9393398282202" y2="31.7893398282203"/>
    <line x1="84.9393398282202" y1="31.7893398282203" x2="85.25" y2="31.5509618943234"/>
    <line x1="85.25" y1="31.5509618943234" x2="85.6117714323462" y2="31.4011112605665"/>
    <line x1="5.61177143234625" y1="31.4011112605665" x2="6.0" y2="31.3500000000001"/>
    <line x1="6.0" y1="31.3500000000001" x2="6.38822856765381" y2="31.4011112605665"/>
    <line x1="6.38822856765381" y1="31.4011112605665" x2="6.75" y2="31.5509618943234"/>
    <line x1="6.75" y1="31.5509618943234" x2="7.06066017177983" y2="31.7893398282203"/>
    <line x1="7.06066017177983" y1="31.7893398282203" x2="7.29903810567669" y2="32.1000000000001"/>
    <line x1="7.29903810567669" y1="32.1000000000001" x2="7.44888873943358" y2="32.4617714323463"/>
    <line x1="7.44888873943358" y1="32.4617714323463" x2="7.5" y2="32.8500000000001"/>
    <line x1="7.5" y1="32.8500000000001" x2="7.44888873943358" y2="33.2382285676539"/>
    <line x1="7.44888873943358" y1="33.2382285676539" x2="7.29903810567669" y2="33.6000000000001"/>
    <line x1="7.29903810567669" y1="33.6000000000001" x2="7.06066017177983" y2="33.9106601717799"/>
    <line x1="7.06066017177983" y1="33.9106601717799" x2="6.75" y2="34.1490381056768"/>
    <line x1="6.75" y1="34.1490381056768" x2="6.38822856765381" y2="34.2988887394337"/>
    <line x1="6.38822856765381" y1="34.2988887394337" x2="6.0" y2="34.3500000000001"/>
    <line x1="6.0" y1="34.3500000000001" x2="5.61177143234625" y2="34.2988887394337"/>
    <line x1="5.61177143234625" y1="34.2988887394337" x2="5.25" y2="34.1490381056768"/>
    <line x1="5.25" y1="34.1490381056768" x2="4.93933982822017" y2="33.9106601717799"/>
    <line x1="4.93933982822017" y1="33.9106601717799" x2="4.70096189432337" y2="33.6000000000001"/>
    <line x1="4.70096189432337" y1="33.6000000000001" x2="4.55111126056642" y2="33.2382285676539"/>
    <line x1="4.55111126056642" y1="33.2382285676539" x2="4.5" y2="32.8500000000001"/>
    <line x1="4.5" y1="32.8500000000001" x2="4.55111126056642" y2="32.4617714323463"/>
    <line x1="4.55111126056642" y1="32.4617714323463" x2="4.70096189432337" y2="32.1000000000001"/>
    <line x1="4.70096189432337" y1="32.1000000000001" x2="4.93933982822017" y2="31.7893398282203"/>
    <line x1="4.93933982822017" y1="31.7893398282203" x2="5.25" y2="31.5509618943234"/>
    <line x1="5.25" y1="31.5509618943234" x2="5.61177143234625" y2="31.4011112605665"/>
    <line x1="6.38822856765381" y1="66.5988887394337" x2="6.0" y2="66.6500000000001"/>
    <line x1="6.0" y1="66.6500000000001" x2="5.61177143234625" y2="66.5988887394337"/>
    <line x1="5.61177143234625" y1="66.5988887394337" x2="5.25" y2="66.4490381056767"/>
    <line x1="5.25" y1="66.4490381056767" x2="4.93933982822017" y2="66.2106601717799"/>
    <line x1="4.93933982822017" y1="66.2106601717799" x2="4.70096189432337" y2="65.9000000000001"/>
    <line x1="4.70096189432337" y1="65.9000000000001" x2="4.55111126056642" y2="65.5382285676538"/>
    <line x1="4.55111126056642" y1="65.5382285676538" x2="4.5" y2="65.1500000000001"/>
    <line x1="4.5" y1="65.1500000000001" x2="4.55111126056642" y2="64.7617714323463"/>
    <line x1="4.55111126056642" y1="64.7617714323463" x2="4.70096189432337" y2="64.4000000000001"/>
    <line x1="4.70096189432337" y1="64.4000000000001" x2="4.93933982822017" y2="64.0893398282202"/>
    <line x1="4.93933982822017" y1="64.0893398282202" x2="5.25" y2="63.8509618943235"/>
    <line x1="5.25" y1="63.8509618943235" x2="5.61177143234625" y2="63.7011112605665"/>
    <line x1="5.61177143234625" y1="63.7011112605665" x2="6.0" y2="63.6500000000001"/>
    <line x1="6.0" y1="63.6500000000001" x2="6.38822856765381" y2="63.7011112605665"/>
    <line x1="6.38822856765381" y1="63.7011112605665" x2="6.75" y2="63.8509618943235"/>
    <line x1="6.75" y1="63.8509618943235" x2="7.06066017177983" y2="64.0893398282202"/>
    <line x1="7.06066017177983" y1="64.0893398282202" x2="7.29903810567669" y2="64.4000000000001"/>
    <line x1="7.29903810567669" y1="64.4000000000001" x2="7.44888873943358" y2="64.7617714323463"/>
    <line x1="7.44888873943358" y1="64.7617714323463" x2="7.5" y2="65.1500000000001"/>
    <line x1="7.5" y1="65.1500000000001" x2="7.44888873943358" y2="65.5382285676538"/>
    <line x1="7.44888873943358" y1="65.5382285676538" x2="7.29903810567669" y2="65.9000000000001"/>
    <line x1="7.29903810567669" y1="65.9000000000001" x2="7.06066017177983" y2="66.2106601717799"/>
    <line x1="7.06066017177983" y1="66.2106601717799" x2="6.75" y2="66.4490381056767"/>
    <line x1="6.75" y1="66.4490381056767" x2="6.38822856765381" y2="66.5988887394337"/>
    <line x1="50.9999999999999" y1="87.5000000000001" x2="50.6117714323462" y2="87.4488887394337"/>
    <line x1="50.6117714323462" y1="87.4488887394337" x2="50.2499999999999" y2="87.2990381056768"/>
    <line x1="50.2499999999999" y1="87.2990381056768" x2="49.9393398282202" y2="87.06066017178"/>
    <line x1="49.9393398282202" y1="87.06066017178" x2="49.7009618943233" y2="86.7500000000001"/>
    <line x1="49.7009618943233" y1="86.7500000000001" x2="49.5511112605664" y2="86.3882285676539"/>
    <line x1="49.5511112605664" y1="86.3882285676539" x2="49.4999999999999" y2="86.0000000000001"/>
    <line x1="49.4999999999999" y1="86.0000000000001" x2="49.5511112605664" y2="85.6117714323463"/>
    <line x1="49.5511112605664" y1="85.6117714323463" x2="49.7009618943234" y2="85.2500000000001"/>
    <line x1="49.7009618943234" y1="85.2500000000001" x2="49.9393398282202" y2="84.9393398282203"/>
    <line x1="49.9393398282202" y1="84.9393398282203" x2="50.2499999999999" y2="84.7009618943234"/>
    <line x1="50.2499999999999" y1="84.7009618943234" x2="50.6117714323462" y2="84.5511112605665"/>
    <line x1="50.6117714323462" y1="84.5511112605665" x2="51.0000000000001" y2="84.5000000000001"/>
    <line x1="51.0000000000001" y1="84.5000000000001" x2="51.3882285676539" y2="84.5511112605665"/>
    <line x1="51.3882285676539" y1="84.5511112605665" x2="51.7500000000001" y2="84.7009618943234"/>
    <line x1="51.7500000000001" y1="84.7009618943234" x2="52.0606601717798" y2="84.9393398282203"/>
    <line x1="52.0606601717798" y1="84.9393398282203" x2="52.2990381056767" y2="85.2500000000001"/>
    <line x1="52.2990381056767" y1="85.2500000000001" x2="52.4488887394336" y2="85.6117714323464"/>
    <line x1="52.4488887394336" y1="85.6117714323464" x2="52.5" y2="86.0000000000001"/>
    <line x1="52.5" y1="86.0000000000001" x2="52.4488887394336" y2="86.3882285676539"/>
    <line x1="52.4488887394336" y1="86.3882285676539" x2="52.2990381056767" y2="86.7500000000001"/>
    <line x1="52.2990381056767" y1="86.7500000000001" x2="52.0606601717798" y2="87.06066017178"/>
    <line x1="52.0606601717798" y1="87.06066017178" x2="51.7500000000001" y2="87.2990381056768"/>
    <line x1="51.7500000000001" y1="87.2990381056768" x2="51.3882285676539" y2="87.4488887394337"/>
    <line x1="51.3882285676539" y1="87.4488887394337" x2="50.9999999999999" y2="87.5000000000001"/>
    <line x1="41.3882285676538" y1="87.4488887394337" x2="41.0" y2="87.5000000000001"/>
    <line x1="41.0" y1="87.5000000000001" x2="40.6117714323462" y2="87.4488887394337"/>
    <line x1="40.6117714323462" y1="87.4488887394337" x2="40.25" y2="87.2990381056768"/>
    <line x1="40.25" y1="87.2990381056768" x2="39.9393398282202" y2="87.06066017178"/>
    <line x1="39.9393398282202" y1="87.06066017178" x2="39.7009618943234" y2="86.7500000000001"/>
    <line x1="39.7009618943234" y1="86.7500000000001" x2="39.5511112605664" y2="86.3882285676539"/>
    <line x1="39.5511112605664" y1="86.3882285676539" x2="39.5" y2="86.0000000000001"/>
    <line x1="39.5" y1="86.0000000000001" x2="39.5511112605664" y2="85.6117714323464"/>
    <line x1="39.5511112605664" y1="85.6117714323464" x2="39.7009618943234" y2="85.2500000000001"/>
    <line x1="39.7009618943234" y1="85.2500000000001" x2="39.9393398282202" y2="84.9393398282203"/>
    <line x1="39.9393398282202" y1="84.9393398282203" x2="40.25" y2="84.7009618943235"/>
    <line x1="40.25" y1="84.7009618943235" x2="40.6117714323462" y2="84.5511112605665"/>
    <line x1="40.6117714323462" y1="84.5511112605665" x2="41.0" y2="84.5000000000001"/>
    <line x1="41.0" y1="84.5000000000001" x2="41.3882285676538" y2="84.5511112605665"/>
    <line x1="41.3882285676538" y1="84.5511112605665" x2="41.75" y2="84.7009618943235"/>
    <line x1="41.75" y1="84.7009618943235" x2="42.0606601717798" y2="84.9393398282203"/>
    <line x1="42.0606601717798" y1="84.9393398282203" x2="42.2990381056767" y2="85.2500000000001"/>
    <line x1="42.2990381056767" y1="85.2500000000001" x2="42.4488887394336" y2="85.6117714323464"/>
    <line x1="42.4488887394336" y1="85.6117714323464" x2="42.5" y2="86.0000000000001"/>
    <line x1="42.5" y1="86.0000000000001" x2="42.4488887394336" y2="86.3882285676539"/>
    <line x1="42.4488887394336" y1="86.3882285676539" x2="42.2990381056767" y2="86.7500000000001"/>
    <line x1="42.2990381056767" y1="86.7500000000001" x2="42.0606601717798" y2="87.06066017178"/>
    <line x1="42.0606601717798" y1="87.06066017178" x2="41.75" y2="87.2990381056768"/>
    <line x1="41.75" y1="87.2990381056768" x2="41.3882285676538" y2="87.4488887394337"/>
  </g>
</svg>
