<?xml version="1.0" standalone="no"?>
<!DOCTYPE svg PUBLIC "-//W3C//DTD SVG 1.1//EN" "http://www.w3.org/Graphics/SVG/1.1/DTD/svg11.dtd">
<svg width="92.0mm" height="92.0mm"
 viewBox="0 0 92.0 92.0"
 xmlns="http://www.w3.org/2000/svg" version="1.1"
 xmlns:xlink="http://www.w3.org/1999/xlink">
<desc>Output from Flights of Ideas SVG Sketchup Plugin</desc>

  <g id="face0" fill="none" stroke="rgb(0,0,255)" stroke-width="1" stroke-miterlimit="4" stroke-dasharray="none" stroke-linejoin="round" stroke-linecap="round">
    <line x1="17.9881510376171" y1="53.5057523079731" x2="17.0" y2="46.0"/>
    <line x1="17.0" y1="46.0" x2="16.9999999999999" y2="1.00000000000003"/>
    <line x1="16.9999999999999" y1="1.00000000000003" x2="1.0" y2="1.00000000000003"/>
    <line x1="1.0" y1="1.00000000000003" x2="1.0" y2="91.0"/>
    <line x1="1.0" y1="91.0" x2="91.0" y2="91.0"/>
    <line x1="91.0" y1="91.0" x2="91.0" y2="1.0"/>
    <line x1="91.0" y1="1.0" x2="75.0" y2="1.00000000000003"/>
    <line x1="75.0" y1="1.00000000000003" x2="74.9999999999999" y2="46.0"/>
    <line x1="74.9999999999999" y1="46.0" x2="74.0118489623829" y2="53.5057523079731"/>
    <line x1="74.0118489623829" y1="53.5057523079731" x2="71.1147367097487" y2="60.5000000000001"/>
    <line x1="71.1147367097487" y1="60.5000000000001" x2="66.5060966544098" y2="66.5060966544099"/>
    <line x1="66.5060966544098" y1="66.5060966544099" x2="60.5" y2="71.1147367097488"/>
    <line x1="60.5" y1="71.1147367097488" x2="53.505752307973" y2="74.011848962383"/>
    <line x1="53.505752307973" y1="74.011848962383" x2="46.0" y2="75.0"/>
    <line x1="46.0" y1="75.0" x2="38.4942476920269" y2="74.011848962383"/>
    <line x1="38.4942476920269" y1="74.011848962383" x2="31.5" y2="71.1147367097487"/>
    <line x1="31.5" y1="71.1147367097487" x2="25.4939033455902" y2="66.5060966544099"/>
    <line x1="25.4939033455902" y1="66.5060966544099" x2="20.8852632902513" y2="60.5"/>
    <line x1="20.8852632902513" y1="60.5" x2="17.9881510376171" y2="53.5057523079731"/>
    <line x1="6.38822856765375" y1="63.5988887394336" x2="6.0" y2="63.65"/>
    <line x1="6.0" y1="63.65" x2="5.61177143234625" y2="63.5988887394336"/>
    <line x1="5.61177143234625" y1="63.5988887394336" x2="5.25" y2="63.4490381056767"/>
    <line x1="5.25" y1="63.4490381056767" x2="4.93933982822011" y2="63.2106601717798"/>
    <line x1="4.93933982822011" y1="63.2106601717798" x2="4.70096189432331" y2="62.9"/>
    <line x1="4.70096189432331" y1="62.9" x2="4.55111126056636" y2="62.5382285676538"/>
    <line x1="4.55111126056636" y1="62.5382285676538" x2="4.5" y2="62.15"/>
    <line x1="4.5" y1="62.15" x2="4.55111126056636" y2="61.7617714323462"/>
    <line x1="4.55111126056636" y1="61.7617714323462" x2="4.70096189432331" y2="61.4"/>
    <line x1="4.70096189432331" y1="61.4" x2="4.93933982822011" y2="61.0893398282202"/>
    <line x1="4.93933982822011" y1="61.0893398282202" x2="5.25" y2="60.8509618943233"/>
    <line x1="5.25" y1="60.8509618943233" x2="5.61177143234625" y2="60.7011112605664"/>
    <line x1="5.61177143234625" y1="60.7011112605664" x2="6.0" y2="60.65"/>
    <line x1="6.0" y1="60.65" x2="6.38822856765375" y2="60.7011112605664"/>
    <line x1="6.38822856765375" y1="60.7011112605664" x2="6.75" y2="60.8509618943233"/>
    <line x1="6.75" y1="60.8509618943233" x2="7.06066017177977" y2="61.0893398282202"/>
    <line x1="7.06066017177977" y1="61.0893398282202" x2="7.29903810567657" y2="61.4"/>
    <line x1="7.29903810567657" y1="61.4" x2="7.44888873943364" y2="61.7617714323462"/>
    <line x1="7.44888873943364" y1="61.7617714323462" x2="7.49999999999989" y2="62.15"/>
    <line x1="7.49999999999989" y1="62.15" x2="7.44888873943364" y2="62.5382285676538"/>
    <line x1="7.44888873943364" y1="62.5382285676538" x2="7.29903810567657" y2="62.9"/>
    <line x1="7.29903810567657" y1="62.9" x2="7.06066017177977" y2="63.2106601717798"/>
    <line x1="7.06066017177977" y1="63.2106601717798" x2="6.75" y2="63.4490381056767"/>
    <line x1="6.75" y1="63.4490381056767" x2="6.38822856765375" y2="63.5988887394336"/>
    <line x1="5.61177143234625" y1="28.4011112605665" x2="6.0" y2="28.3500000000001"/>
    <line x1="6.0" y1="28.3500000000001" x2="6.38822856765375" y2="28.4011112605665"/>
    <line x1="6.38822856765375" y1="28.4011112605665" x2="6.75" y2="28.5509618943234"/>
    <line x1="6.75" y1="28.5509618943234" x2="7.06066017177977" y2="28.7893398282202"/>
    <line x1="7.06066017177977" y1="28.7893398282202" x2="7.29903810567669" y2="29.1000000000001"/>
    <line x1="7.29903810567669" y1="29.1000000000001" x2="7.44888873943364" y2="29.4617714323463"/>
    <line x1="7.44888873943364" y1="29.4617714323463" x2="7.49999999999989" y2="29.8500000000001"/>
    <line x1="7.49999999999989" y1="29.8500000000001" x2="7.44888873943364" y2="30.2382285676539"/>
    <line x1="7.44888873943364" y1="30.2382285676539" x2="7.29903810567669" y2="30.6000000000001"/>
    <line x1="7.29903810567669" y1="30.6000000000001" x2="7.06066017177977" y2="30.9106601717799"/>
    <line x1="7.06066017177977" y1="30.9106601717799" x2="6.75" y2="31.1490381056767"/>
    <line x1="6.75" y1="31.1490381056767" x2="6.38822856765375" y2="31.2988887394337"/>
    <line x1="6.38822856765375" y1="31.2988887394337" x2="6.0" y2="31.3500000000001"/>
    <line x1="6.0" y1="31.3500000000001" x2="5.61177143234625" y2="31.2988887394337"/>
    <line x1="5.61177143234625" y1="31.2988887394337" x2="5.25" y2="31.1490381056767"/>
    <line x1="5.25" y1="31.1490381056767" x2="4.93933982822011" y2="30.9106601717799"/>
    <line x1="4.93933982822011" y1="30.9106601717799" x2="4.70096189432331" y2="30.6000000000001"/>
    <line x1="4.70096189432331" y1="30.6000000000001" x2="4.55111126056636" y2="30.2382285676539"/>
    <line x1="4.55111126056636" y1="30.2382285676539" x2="4.5" y2="29.8500000000001"/>
    <line x1="4.5" y1="29.8500000000001" x2="4.55111126056636" y2="29.4617714323463"/>
    <line x1="4.55111126056636" y1="29.4617714323463" x2="4.70096189432331" y2="29.1000000000001"/>
    <line x1="4.70096189432331" y1="29.1000000000001" x2="4.93933982822011" y2="28.7893398282202"/>
    <line x1="4.93933982822011" y1="28.7893398282202" x2="5.25" y2="28.5509618943234"/>
    <line x1="5.25" y1="28.5509618943234" x2="5.61177143234625" y2="28.4011112605665"/>
    <line x1="86.3882285676538" y1="63.5988887394336" x2="85.9999999999999" y2="63.65"/>
    <line x1="85.9999999999999" y1="63.65" x2="85.6117714323461" y2="63.5988887394337"/>
    <line x1="85.6117714323461" y1="63.5988887394337" x2="85.2499999999999" y2="63.4490381056767"/>
    <line x1="85.2499999999999" y1="63.4490381056767" x2="84.9393398282201" y2="63.2106601717798"/>
    <line x1="84.9393398282201" y1="63.2106601717798" x2="84.7009618943233" y2="62.9"/>
    <line x1="84.7009618943233" y1="62.9" x2="84.5511112605664" y2="62.5382285676539"/>
    <line x1="84.5511112605664" y1="62.5382285676539" x2="84.4999999999999" y2="62.15"/>
    <line x1="84.4999999999999" y1="62.15" x2="84.5511112605664" y2="61.7617714323463"/>
    <line x1="84.5511112605664" y1="61.7617714323463" x2="84.7009618943233" y2="61.4"/>
    <line x1="84.7009618943233" y1="61.4" x2="84.9393398282201" y2="61.0893398282201"/>
    <line x1="84.9393398282201" y1="61.0893398282201" x2="85.2499999999999" y2="60.8509618943233"/>
    <line x1="85.2499999999999" y1="60.8509618943233" x2="85.6117714323461" y2="60.7011112605665"/>
    <line x1="85.6117714323461" y1="60.7011112605665" x2="85.9999999999999" y2="60.65"/>
    <line x1="85.9999999999999" y1="60.65" x2="86.3882285676538" y2="60.7011112605665"/>
    <line x1="86.3882285676538" y1="60.7011112605665" x2="86.75" y2="60.8509618943234"/>
    <line x1="86.75" y1="60.8509618943234" x2="87.0606601717798" y2="61.0893398282202"/>
    <line x1="87.0606601717798" y1="61.0893398282202" x2="87.2990381056766" y2="61.4"/>
    <line x1="87.2990381056766" y1="61.4" x2="87.4488887394335" y2="61.7617714323462"/>
    <line x1="87.4488887394335" y1="61.7617714323462" x2="87.5" y2="62.1500000000001"/>
    <line x1="87.5" y1="62.1500000000001" x2="87.4488887394335" y2="62.5382285676538"/>
    <line x1="87.4488887394335" y1="62.5382285676538" x2="87.2990381056766" y2="62.9"/>
    <line x1="87.2990381056766" y1="62.9" x2="87.0606601717798" y2="63.2106601717798"/>
    <line x1="87.0606601717798" y1="63.2106601717798" x2="86.75" y2="63.4490381056767"/>
    <line x1="86.75" y1="63.4490381056767" x2="86.3882285676538" y2="63.5988887394336"/>
    <line x1="85.6117714323461" y1="28.5292428544363" x2="85.9999999999999" y2="28.4781315938699"/>
    <line x1="85.9999999999999" y1="28.4781315938699" x2="86.3882285676538" y2="28.5292428544363"/>
    <line x1="86.3882285676538" y1="28.5292428544363" x2="86.75" y2="28.6790934881932"/>
    <line x1="86.75" y1="28.6790934881932" x2="87.0606601717798" y2="28.9174714220901"/>
    <line x1="87.0606601717798" y1="28.9174714220901" x2="87.2990381056766" y2="29.2281315938699"/>
    <line x1="87.2990381056766" y1="29.2281315938699" x2="87.4488887394335" y2="29.5899030262161"/>
    <line x1="87.4488887394335" y1="29.5899030262161" x2="87.5" y2="29.9781315938699"/>
    <line x1="87.5" y1="29.9781315938699" x2="87.4488887394335" y2="30.3663601615237"/>
    <line x1="87.4488887394335" y1="30.3663601615237" x2="87.2990381056766" y2="30.7281315938699"/>
    <line x1="87.2990381056766" y1="30.7281315938699" x2="87.0606601717798" y2="31.0387917656497"/>
    <line x1="87.0606601717798" y1="31.0387917656497" x2="86.75" y2="31.2771696995466"/>
    <line x1="86.75" y1="31.2771696995466" x2="86.3882285676538" y2="31.4270203333035"/>
    <line x1="86.3882285676538" y1="31.4270203333035" x2="85.9999999999999" y2="31.4781315938699"/>
    <line x1="85.9999999999999" y1="31.4781315938699" x2="85.6117714323461" y2="31.4270203333035"/>
    <line x1="85.6117714323461" y1="31.4270203333035" x2="85.2499999999999" y2="31.2771696995466"/>
    <line x1="85.2499999999999" y1="31.2771696995466" x2="84.9393398282201" y2="31.0387917656497"/>
    <line x1="84.9393398282201" y1="31.0387917656497" x2="84.7009618943233" y2="30.7281315938699"/>
    <line x1="84.7009618943233" y1="30.7281315938699" x2="84.5511112605664" y2="30.3663601615237"/>
    <line x1="84.5511112605664" y1="30.3663601615237" x2="84.4999999999999" y2="29.9781315938699"/>
    <line x1="84.4999999999999" y1="29.9781315938699" x2="84.5511112605664" y2="29.5899030262161"/>
    <line x1="84.5511112605664" y1="29.5899030262161" x2="84.7009618943233" y2="29.2281315938699"/>
    <line x1="84.7009618943233" y1="29.2281315938699" x2="84.9393398282201" y2="28.9174714220901"/>
    <line x1="84.9393398282201" y1="28.9174714220901" x2="85.2499999999999" y2="28.6790934881932"/>
    <line x1="85.2499999999999" y1="28.6790934881932" x2="85.6117714323461" y2="28.5292428544363"/>
  </g>
</svg>
