solid Microscope-Sketchup
facet normal 2.20839305458944e-13 -1.0 1.43159122879028e-13
  outer loop
    vertex -652.96099873505 -240.904869946907 -3.00000000003399
    vertex -650.760998735049 -240.904869946907 -9.25000000003362
    vertex -650.76099873505 -240.904869946906 -3.00000000003363
  endloop
endfacet
facet normal 2.20839305458944e-13 -1.0 1.43159122879028e-13
  outer loop
    vertex -650.760998735049 -240.904869946907 -9.25000000003362
    vertex -652.96099873505 -240.904869946907 -3.00000000003399
    vertex -652.960998735049 -240.904869946908 -9.25000000003398
  endloop
endfacet
facet normal -1.60792034676801e-08 2.49052594421776e-11 1.0
  outer loop
    vertex -638.010998735007 -438.804869946903 -3.00000000000322
    vertex -640.460998735007 -437.804869946904 -3.00000000000376
    vertex -645.465268735006 -438.804869946905 -3.00000000000443
  endloop
endfacet
facet normal -1.60792034676801e-08 2.49052594421776e-11 1.0
  outer loop
    vertex -640.460998735007 -437.804869946904 -3.00000000000376
    vertex -638.010998735007 -438.804869946903 -3.00000000000322
    vertex -638.010998735051 -237.904869946903 -3.00000000003197
  endloop
endfacet
facet normal -1.60792034676801e-08 2.49052594421776e-11 1.0
  outer loop
    vertex -640.460998735007 -437.804869946904 -3.00000000000376
    vertex -638.010998735051 -237.904869946903 -3.00000000003197
    vertex -640.460998735007 -436.304869946904 -3.000000000004
  endloop
endfacet
facet normal -1.60792034676801e-08 2.49052594421776e-11 1.0
  outer loop
    vertex -640.460998735007 -436.304869946904 -3.000000000004
    vertex -638.010998735051 -237.904869946903 -3.00000000003197
    vertex -640.460998735008 -434.304869946904 -3.00000000000429
  endloop
endfacet
facet normal -1.60792034676801e-08 2.49052594421776e-11 1.0
  outer loop
    vertex -640.460998735007 -436.304869946904 -3.000000000004
    vertex -640.460998735008 -434.304869946904 -3.00000000000429
    vertex -642.660998735007 -436.304869946904 -3.00000000000434
  endloop
endfacet
facet normal -1.60792034676801e-08 2.49052594421776e-11 1.0
  outer loop
    vertex -640.460998735008 -434.304869946904 -3.00000000000429
    vertex -638.010998735051 -237.904869946903 -3.00000000003197
    vertex -640.460998735008 -432.804869946904 -3.00000000000448
  endloop
endfacet
facet normal -1.60792034676801e-08 2.49052594421776e-11 1.0
  outer loop
    vertex -640.460998735008 -432.804869946904 -3.00000000000448
    vertex -638.010998735051 -237.904869946903 -3.00000000003197
    vertex -640.460998735008 -430.804869946904 -3.00000000000476
  endloop
endfacet
facet normal -1.60792034676801e-08 2.49052594421776e-11 1.0
  outer loop
    vertex -640.460998735008 -432.804869946904 -3.00000000000448
    vertex -640.460998735008 -430.804869946904 -3.00000000000476
    vertex -642.660998735008 -432.804869946904 -3.00000000000483
  endloop
endfacet
facet normal -1.60792034676801e-08 2.49052594421776e-11 1.0
  outer loop
    vertex -640.460998735008 -430.804869946904 -3.00000000000476
    vertex -638.010998735051 -237.904869946903 -3.00000000003197
    vertex -640.460998735026 -350.804869946904 -3.00000000001624
  endloop
endfacet
facet normal -1.60792034676801e-08 2.49052594421776e-11 1.0
  outer loop
    vertex -640.460998735026 -350.804869946904 -3.00000000001624
    vertex -638.010998735051 -237.904869946903 -3.00000000003197
    vertex -640.460998735027 -345.804869946904 -3.00000000001694
  endloop
endfacet
facet normal -1.60792034676801e-08 2.49052594421776e-11 1.0
  outer loop
    vertex -640.460998735026 -350.804869946904 -3.00000000001624
    vertex -640.460998735027 -345.804869946904 -3.00000000001694
    vertex -642.710998735026 -350.804869946904 -3.0000006029266
  endloop
endfacet
facet normal -1.60792034676801e-08 2.49052594421776e-11 1.0
  outer loop
    vertex -642.710998735026 -350.804869946904 -3.0000006029266
    vertex -640.460998735027 -345.804869946904 -3.00000000001694
    vertex -642.710998735027 -345.804869946904 -3.0000006029273
  endloop
endfacet
facet normal -1.60792034676801e-08 2.49052594421776e-11 1.0
  outer loop
    vertex -640.460998735027 -345.804869946904 -3.00000000001694
    vertex -638.010998735051 -237.904869946903 -3.00000000003197
    vertex -640.460998735044 -268.904869946904 -3.00000000002795
  endloop
endfacet
facet normal -1.60792034676801e-08 2.49052594421776e-11 1.0
  outer loop
    vertex -640.460998735044 -268.904869946904 -3.00000000002795
    vertex -638.010998735051 -237.904869946903 -3.00000000003197
    vertex -640.460998735045 -266.904869946904 -3.00000000002823
  endloop
endfacet
facet normal -1.60792034676801e-08 2.49052594421776e-11 1.0
  outer loop
    vertex -640.460998735044 -268.904869946904 -3.00000000002795
    vertex -640.460998735045 -266.904869946904 -3.00000000002823
    vertex -642.660998735044 -268.904869946904 -3.00000000002831
  endloop
endfacet
facet normal -1.60792034676801e-08 2.49052594421776e-11 1.0
  outer loop
    vertex -640.460998735045 -266.904869946904 -3.00000000002823
    vertex -638.010998735051 -237.904869946903 -3.00000000003197
    vertex -640.460998735045 -265.404869946904 -3.00000000002846
  endloop
endfacet
facet normal -1.60792034676801e-08 2.49052594421776e-11 1.0
  outer loop
    vertex -640.460998735045 -265.404869946904 -3.00000000002846
    vertex -638.010998735051 -237.904869946903 -3.00000000003197
    vertex -642.660998735045 -265.404869946904 -3.00000000002881
  endloop
endfacet
facet normal -1.60792034676801e-08 2.49052594421776e-11 1.0
  outer loop
    vertex -642.660998735045 -265.404869946904 -3.00000000002881
    vertex -638.010998735051 -237.904869946903 -3.00000000003197
    vertex -640.46099873505 -242.404869946904 -3.00000000003176
  endloop
endfacet
facet normal -1.60792034676801e-08 2.49052594421776e-11 1.0
  outer loop
    vertex -640.46099873505 -242.404869946904 -3.00000000003176
    vertex -638.010998735051 -237.904869946903 -3.00000000003197
    vertex -640.46099873505 -240.904869946904 -3.00000000003196
  endloop
endfacet
facet normal -1.60792034676801e-08 2.49052594421776e-11 1.0
  outer loop
    vertex -640.46099873505 -240.904869946904 -3.00000000003196
    vertex -638.010998735051 -237.904869946903 -3.00000000003197
    vertex -642.66099873505 -240.904869946904 -3.00000000003232
  endloop
endfacet
facet normal -1.60792034676801e-08 2.49052594421776e-11 1.0
  outer loop
    vertex -642.66099873505 -240.904869946904 -3.00000000003232
    vertex -638.010998735051 -237.904869946903 -3.00000000003197
    vertex -642.660998735051 -237.904869946904 -3.00000000003275
  endloop
endfacet
facet normal -1.60792034676801e-08 2.49052594421776e-11 1.0
  outer loop
    vertex -642.66099873505 -242.404869946904 -3.00000000003211
    vertex -642.660998735045 -265.404869946904 -3.00000000002881
    vertex -640.46099873505 -242.404869946904 -3.00000000003176
  endloop
endfacet
facet normal -1.60792034676801e-08 2.49052594421776e-11 1.0
  outer loop
    vertex -642.660998735044 -266.904869946904 -3.00000000002858
    vertex -642.660998735044 -268.904869946904 -3.00000000002831
    vertex -640.460998735045 -266.904869946904 -3.00000000002823
  endloop
endfacet
facet normal -1.60792034676801e-08 2.49052594421776e-11 1.0
  outer loop
    vertex -642.660998735008 -430.804869946904 -3.00000000000512
    vertex -642.660998735008 -432.804869946904 -3.00000000000483
    vertex -640.460998735008 -430.804869946904 -3.00000000000476
  endloop
endfacet
facet normal -1.60792034676801e-08 2.49052594421776e-11 1.0
  outer loop
    vertex -642.660998735008 -434.304869946904 -3.00000000000464
    vertex -642.660998735007 -436.304869946904 -3.00000000000434
    vertex -640.460998735008 -434.304869946904 -3.00000000000429
  endloop
endfacet
facet normal -1.60792034676801e-08 2.49052594421776e-11 1.0
  outer loop
    vertex -645.465268735007 -437.804869946905 -3.00000000000457
    vertex -645.465268735006 -438.804869946905 -3.00000000000443
    vertex -640.460998735007 -437.804869946904 -3.00000000000376
  endloop
endfacet
facet normal -7.62836914582633e-08 -2.58132955379094e-09 -0.999999999999997
  outer loop
    vertex -655.41099873505 -237.904869946908 -10.6999988109243
    vertex -638.010998735005 -438.804869946904 -10.7000003665722
    vertex -655.410998735005 -438.804869946908 -10.6999988108955
  endloop
endfacet
facet normal -7.62836914582633e-08 -2.58132955379094e-09 -0.999999999999997
  outer loop
    vertex -638.010998735005 -438.804869946904 -10.7000003665722
    vertex -655.41099873505 -237.904869946908 -10.6999988109243
    vertex -638.01099873505 -237.904869946904 -10.700000366601
  endloop
endfacet
facet normal 0.258819045102361 1.95438512217703e-13 0.965925826289111
  outer loop
    vertex -647.033417384062 -437.804869946905 -4.20328277958791
    vertex -647.333863735006 -438.804869946906 -4.07883382626112
    vertex -647.033417384062 -438.804869946906 -4.20328277958776
  endloop
endfacet
facet normal 0.499999999999835 2.34399089926186e-13 0.866025403784534
  outer loop
    vertex -647.333863735006 -438.804869946906 -4.07883382626112
    vertex -647.033417384062 -437.804869946905 -4.20328277958791
    vertex -647.333863735007 -437.804869946906 -4.07883382626126
  endloop
endfacet
facet normal -1.0 -2.20839305458967e-13 -1.62152943567184e-13
  outer loop
    vertex -640.460998735007 -430.804869946905 -9.25000000000476
    vertex -640.460998735026 -350.804869946904 -3.00000000001624
    vertex -640.460998735025 -350.804869946905 -9.25000000001623
  endloop
endfacet
facet normal -1.0 -2.20839305458967e-13 -1.62152943567184e-13
  outer loop
    vertex -640.460998735026 -350.804869946904 -3.00000000001624
    vertex -640.460998735007 -430.804869946905 -9.25000000000476
    vertex -640.460998735008 -430.804869946904 -3.00000000000476
  endloop
endfacet
facet normal -1.62131123759852e-13 1.43183668777735e-13 1.0
  outer loop
    vertex -642.66099873505 -237.904869946905 -9.25000000003276
    vertex -650.760998735049 -240.904869946907 -9.25000000003362
    vertex -642.660998735049 -240.904869946905 -9.2500000000323
  endloop
endfacet
facet normal -1.62131123759852e-13 1.43183668777735e-13 1.0
  outer loop
    vertex -650.760998735049 -240.904869946907 -9.25000000003362
    vertex -642.66099873505 -237.904869946905 -9.25000000003276
    vertex -650.76099873505 -237.904869946907 -9.25000000003408
  endloop
endfacet
facet normal -1.62131123759852e-13 1.43183668777735e-13 1.0
  outer loop
    vertex -640.460998735049 -240.904869946905 -9.25000000003195
    vertex -642.660998735049 -242.404869946905 -9.25000000003211
    vertex -640.460998735049 -242.404869946905 -9.25000000003176
  endloop
endfacet
facet normal -1.62131123759852e-13 1.43183668777735e-13 1.0
  outer loop
    vertex -642.660998735049 -242.404869946905 -9.25000000003211
    vertex -640.460998735049 -240.904869946905 -9.25000000003195
    vertex -650.760998735049 -242.404869946907 -9.25000000003344
  endloop
endfacet
facet normal -1.62131123759852e-13 1.43183668777735e-13 1.0
  outer loop
    vertex -650.760998735049 -242.404869946907 -9.25000000003344
    vertex -640.460998735049 -240.904869946905 -9.25000000003195
    vertex -652.960998735049 -242.404869946908 -9.25000000003378
  endloop
endfacet
facet normal -1.62131123759852e-13 1.43183668777735e-13 1.0
  outer loop
    vertex -652.960998735049 -242.404869946908 -9.25000000003378
    vertex -640.460998735049 -240.904869946905 -9.25000000003195
    vertex -652.960998735049 -240.904869946908 -9.25000000003398
  endloop
endfacet
facet normal -1.62131123759852e-13 1.43183668777735e-13 1.0
  outer loop
    vertex -652.960998735049 -240.904869946908 -9.25000000003398
    vertex -640.460998735049 -240.904869946905 -9.25000000003195
    vertex -642.660998735049 -240.904869946905 -9.2500000000323
  endloop
endfacet
facet normal -1.62131123759852e-13 1.43183668777735e-13 1.0
  outer loop
    vertex -652.960998735049 -240.904869946908 -9.25000000003398
    vertex -642.660998735049 -240.904869946905 -9.2500000000323
    vertex -650.760998735049 -240.904869946907 -9.25000000003362
  endloop
endfacet
facet normal -1.62131123759852e-13 1.43183668777735e-13 1.0
  outer loop
    vertex -642.660998735049 -242.404869946905 -9.25000000003211
    vertex -650.760998735044 -265.404869946907 -9.25000000003013
    vertex -642.660998735044 -265.404869946905 -9.2500000000288
  endloop
endfacet
facet normal -1.62131123759852e-13 1.43183668777735e-13 1.0
  outer loop
    vertex -650.760998735044 -265.404869946907 -9.25000000003013
    vertex -642.660998735049 -242.404869946905 -9.25000000003211
    vertex -650.760998735049 -242.404869946907 -9.25000000003344
  endloop
endfacet
facet normal -1.62131123759852e-13 1.43183668777735e-13 1.0
  outer loop
    vertex -640.460998735044 -265.404869946905 -9.25000000002846
    vertex -642.660998735043 -266.904869946905 -9.25000000002858
    vertex -640.460998735044 -266.904869946905 -9.25000000002823
  endloop
endfacet
facet normal -1.62131123759852e-13 1.43183668777735e-13 1.0
  outer loop
    vertex -642.660998735043 -266.904869946905 -9.25000000002858
    vertex -640.460998735044 -265.404869946905 -9.25000000002846
    vertex -650.760998735043 -266.904869946907 -9.2500000000299
  endloop
endfacet
facet normal -1.62131123759852e-13 1.43183668777735e-13 1.0
  outer loop
    vertex -650.760998735043 -266.904869946907 -9.2500000000299
    vertex -640.460998735044 -265.404869946905 -9.25000000002846
    vertex -652.960998735043 -266.904869946908 -9.25000000003025
  endloop
endfacet
facet normal -1.62131123759852e-13 1.43183668777735e-13 1.0
  outer loop
    vertex -652.960998735043 -266.904869946908 -9.25000000003025
    vertex -640.460998735044 -265.404869946905 -9.25000000002846
    vertex -652.960998735044 -265.404869946908 -9.25000000003049
  endloop
endfacet
facet normal -1.62131123759852e-13 1.43183668777735e-13 1.0
  outer loop
    vertex -652.960998735044 -265.404869946908 -9.25000000003049
    vertex -640.460998735044 -265.404869946905 -9.25000000002846
    vertex -642.660998735044 -265.404869946905 -9.2500000000288
  endloop
endfacet
facet normal -1.62131123759852e-13 1.43183668777735e-13 1.0
  outer loop
    vertex -652.960998735044 -265.404869946908 -9.25000000003049
    vertex -642.660998735044 -265.404869946905 -9.2500000000288
    vertex -650.760998735044 -265.404869946907 -9.25000000003013
  endloop
endfacet
facet normal -1.62131123759852e-13 1.43183668777735e-13 1.0
  outer loop
    vertex -642.660998735043 -266.904869946905 -9.25000000002858
    vertex -650.760998735043 -268.904869946907 -9.25000000002963
    vertex -642.660998735043 -268.904869946905 -9.25000000002832
  endloop
endfacet
facet normal -1.62131123759852e-13 1.43183668777735e-13 1.0
  outer loop
    vertex -650.760998735043 -268.904869946907 -9.25000000002963
    vertex -642.660998735043 -266.904869946905 -9.25000000002858
    vertex -650.760998735043 -266.904869946907 -9.2500000000299
  endloop
endfacet
facet normal -1.62131123759852e-13 1.43183668777735e-13 1.0
  outer loop
    vertex -640.460998735043 -268.904869946905 -9.25000000002796
    vertex -652.960998735026 -345.804869946908 -9.25000000001896
    vertex -640.460998735026 -345.804869946905 -9.25000000001694
  endloop
endfacet
facet normal -1.62131123759852e-13 1.43183668777735e-13 1.0
  outer loop
    vertex -652.960998735026 -345.804869946908 -9.25000000001896
    vertex -640.460998735043 -268.904869946905 -9.25000000002796
    vertex -652.960998735043 -268.904869946908 -9.25000000002999
  endloop
endfacet
facet normal -1.62131123759852e-13 1.43183668777735e-13 1.0
  outer loop
    vertex -652.960998735043 -268.904869946908 -9.25000000002999
    vertex -640.460998735043 -268.904869946905 -9.25000000002796
    vertex -642.660998735043 -268.904869946905 -9.25000000002832
  endloop
endfacet
facet normal -1.62131123759852e-13 1.43183668777735e-13 1.0
  outer loop
    vertex -652.960998735043 -268.904869946908 -9.25000000002999
    vertex -642.660998735043 -268.904869946905 -9.25000000002832
    vertex -650.760998735043 -268.904869946907 -9.25000000002963
  endloop
endfacet
facet normal 0.86602540378437 2.62832010121073e-13 0.500000000000118
  outer loop
    vertex -647.789832561263 -437.804869946906 -3.62286500000495
    vertex -647.591862865534 -438.804869946906 -3.88086413053229
    vertex -647.591862865534 -437.804869946906 -3.88086413053244
  endloop
endfacet
facet normal 0.707106781186433 2.57385757019017e-13 0.707106781186662
  outer loop
    vertex -647.591862865534 -438.804869946906 -3.88086413053229
    vertex -647.789832561263 -437.804869946906 -3.62286500000495
    vertex -647.789832561263 -438.804869946906 -3.6228650000048
  endloop
endfacet
facet normal 2.20839305458944e-13 -1.0 1.43159122879028e-13
  outer loop
    vertex -640.460998735044 -268.904869946904 -3.00000000002795
    vertex -642.660998735043 -268.904869946905 -9.25000000002832
    vertex -640.460998735043 -268.904869946905 -9.25000000002796
  endloop
endfacet
facet normal 2.20839305458944e-13 -1.0 1.43159122879028e-13
  outer loop
    vertex -642.660998735043 -268.904869946905 -9.25000000002832
    vertex -640.460998735044 -268.904869946904 -3.00000000002795
    vertex -642.660998735044 -268.904869946904 -3.00000000002831
  endloop
endfacet
facet normal -1.60792028430194e-08 -2.46189610012581e-11 1.0
  outer loop
    vertex -650.760998735007 -434.304869946906 -3.00000000000595
    vertex -652.960998735007 -436.304869946907 -3.00000000000602
    vertex -650.760998735007 -436.304869946906 -3.00000000000567
  endloop
endfacet
facet normal -1.60792028430194e-08 -2.46189610012581e-11 1.0
  outer loop
    vertex -650.760998735008 -430.804869946906 -3.00000000000643
    vertex -652.960998735008 -432.804869946907 -3.0000000000065
    vertex -650.760998735008 -432.804869946906 -3.00000000000615
  endloop
endfacet
facet normal -1.60792028430194e-08 -2.46189610012581e-11 1.0
  outer loop
    vertex -650.710998735027 -345.804869946906 -2.99999939710861
    vertex -652.960998735026 -350.804869946907 -3.00000000001824
    vertex -650.710998735026 -350.804869946906 -2.99999939710789
  endloop
endfacet
facet normal -1.60792028430194e-08 -2.46189610012581e-11 1.0
  outer loop
    vertex -650.760998735044 -266.904869946906 -3.0000000000299
    vertex -652.960998735044 -268.904869946907 -3.00000000002998
    vertex -650.760998735044 -268.904869946906 -3.00000000002962
  endloop
endfacet
facet normal -1.60792028430194e-08 -2.46189610012581e-11 1.0
  outer loop
    vertex -650.76099873505 -242.404869946906 -3.00000000003343
    vertex -652.960998735045 -265.404869946907 -3.00000000003047
    vertex -650.760998735045 -265.404869946906 -3.00000000003013
  endloop
endfacet
facet normal -1.60792028430194e-08 -2.46189610012581e-11 1.0
  outer loop
    vertex -650.760998735051 -237.904869946906 -3.00000000003406
    vertex -652.96099873505 -240.904869946907 -3.00000000003399
    vertex -650.76099873505 -240.904869946906 -3.00000000003363
  endloop
endfacet
facet normal -1.60792028430194e-08 -2.46189610012581e-11 1.0
  outer loop
    vertex -647.956728735007 -437.804869946906 -3.00000000000498
    vertex -655.410998735007 -438.804869946907 -3.00000000000605
    vertex -647.956728735007 -438.804869946906 -3.00000000000483
  endloop
endfacet
facet normal -1.60792028430194e-08 -2.46189610012581e-11 1.0
  outer loop
    vertex -655.410998735007 -438.804869946907 -3.00000000000605
    vertex -647.956728735007 -437.804869946906 -3.00000000000498
    vertex -652.960998735007 -437.804869946907 -3.00000000000579
  endloop
endfacet
facet normal -1.60792028430194e-08 -2.46189610012581e-11 1.0
  outer loop
    vertex -655.410998735007 -438.804869946907 -3.00000000000605
    vertex -652.960998735007 -437.804869946907 -3.00000000000579
    vertex -655.410998735051 -237.904869946907 -3.00000000003481
  endloop
endfacet
facet normal -1.60792028430194e-08 -2.46189610012581e-11 1.0
  outer loop
    vertex -655.410998735051 -237.904869946907 -3.00000000003481
    vertex -652.960998735007 -437.804869946907 -3.00000000000579
    vertex -652.960998735007 -436.304869946907 -3.00000000000602
  endloop
endfacet
facet normal -1.60792028430194e-08 -2.46189610012581e-11 1.0
  outer loop
    vertex -655.410998735051 -237.904869946907 -3.00000000003481
    vertex -652.960998735007 -436.304869946907 -3.00000000000602
    vertex -652.960998735007 -434.304869946907 -3.00000000000631
  endloop
endfacet
facet normal -1.60792028430194e-08 -2.46189610012581e-11 1.0
  outer loop
    vertex -652.960998735007 -434.304869946907 -3.00000000000631
    vertex -652.960998735007 -436.304869946907 -3.00000000000602
    vertex -650.760998735007 -434.304869946906 -3.00000000000595
  endloop
endfacet
facet normal -1.60792028430194e-08 -2.46189610012581e-11 1.0
  outer loop
    vertex -655.410998735051 -237.904869946907 -3.00000000003481
    vertex -652.960998735007 -434.304869946907 -3.00000000000631
    vertex -652.960998735008 -432.804869946907 -3.0000000000065
  endloop
endfacet
facet normal -1.60792028430194e-08 -2.46189610012581e-11 1.0
  outer loop
    vertex -655.410998735051 -237.904869946907 -3.00000000003481
    vertex -652.960998735008 -432.804869946907 -3.0000000000065
    vertex -652.960998735008 -430.804869946907 -3.00000000000679
  endloop
endfacet
facet normal -1.60792028430194e-08 -2.46189610012581e-11 1.0
  outer loop
    vertex -652.960998735008 -430.804869946907 -3.00000000000679
    vertex -652.960998735008 -432.804869946907 -3.0000000000065
    vertex -650.760998735008 -430.804869946906 -3.00000000000643
  endloop
endfacet
facet normal -1.60792028430194e-08 -2.46189610012581e-11 1.0
  outer loop
    vertex -655.410998735051 -237.904869946907 -3.00000000003481
    vertex -652.960998735008 -430.804869946907 -3.00000000000679
    vertex -652.960998735026 -350.804869946907 -3.00000000001824
  endloop
endfacet
facet normal -1.60792028430194e-08 -2.46189610012581e-11 1.0
  outer loop
    vertex -655.410998735051 -237.904869946907 -3.00000000003481
    vertex -652.960998735026 -350.804869946907 -3.00000000001824
    vertex -652.960998735027 -345.804869946907 -3.00000000001896
  endloop
endfacet
facet normal -1.60792028430194e-08 -2.46189610012581e-11 1.0
  outer loop
    vertex -652.960998735027 -345.804869946907 -3.00000000001896
    vertex -652.960998735026 -350.804869946907 -3.00000000001824
    vertex -650.710998735027 -345.804869946906 -2.99999939710861
  endloop
endfacet
facet normal -1.60792028430194e-08 -2.46189610012581e-11 1.0
  outer loop
    vertex -655.410998735051 -237.904869946907 -3.00000000003481
    vertex -652.960998735027 -345.804869946907 -3.00000000001896
    vertex -652.960998735044 -268.904869946907 -3.00000000002998
  endloop
endfacet
facet normal -1.60792028430194e-08 -2.46189610012581e-11 1.0
  outer loop
    vertex -655.410998735051 -237.904869946907 -3.00000000003481
    vertex -652.960998735044 -268.904869946907 -3.00000000002998
    vertex -652.960998735044 -266.904869946907 -3.00000000003025
  endloop
endfacet
facet normal -1.60792028430194e-08 -2.46189610012581e-11 1.0
  outer loop
    vertex -652.960998735044 -266.904869946907 -3.00000000003025
    vertex -652.960998735044 -268.904869946907 -3.00000000002998
    vertex -650.760998735044 -266.904869946906 -3.0000000000299
  endloop
endfacet
facet normal -1.60792028430194e-08 -2.46189610012581e-11 1.0
  outer loop
    vertex -655.410998735051 -237.904869946907 -3.00000000003481
    vertex -652.960998735044 -266.904869946907 -3.00000000003025
    vertex -652.960998735045 -265.404869946907 -3.00000000003047
  endloop
endfacet
facet normal -1.60792028430194e-08 -2.46189610012581e-11 1.0
  outer loop
    vertex -655.410998735051 -237.904869946907 -3.00000000003481
    vertex -652.960998735045 -265.404869946907 -3.00000000003047
    vertex -652.96099873505 -242.404869946907 -3.00000000003378
  endloop
endfacet
facet normal -1.60792028430194e-08 -2.46189610012581e-11 1.0
  outer loop
    vertex -652.96099873505 -242.404869946907 -3.00000000003378
    vertex -652.960998735045 -265.404869946907 -3.00000000003047
    vertex -650.76099873505 -242.404869946906 -3.00000000003343
  endloop
endfacet
facet normal -1.60792028430194e-08 -2.46189610012581e-11 1.0
  outer loop
    vertex -655.410998735051 -237.904869946907 -3.00000000003481
    vertex -652.96099873505 -242.404869946907 -3.00000000003378
    vertex -652.96099873505 -240.904869946907 -3.00000000003399
  endloop
endfacet
facet normal -1.60792028430194e-08 -2.46189610012581e-11 1.0
  outer loop
    vertex -655.410998735051 -237.904869946907 -3.00000000003481
    vertex -652.96099873505 -240.904869946907 -3.00000000003399
    vertex -650.760998735051 -237.904869946906 -3.00000000003406
  endloop
endfacet
facet normal 0.500000130533702 2.34399107964182e-13 0.866025328420758
  outer loop
    vertex -648.710999257162 -345.804869946906 -6.46410131370102
    vertex -649.539426286093 -350.804869946906 -5.82842669844212
    vertex -648.710999257161 -350.804869946906 -6.46410131370031
  endloop
endfacet
facet normal 0.707106887766862 2.57385765298202e-13 0.707106674606217
  outer loop
    vertex -649.539426286093 -350.804869946906 -5.82842669844212
    vertex -648.710999257162 -345.804869946906 -6.46410131370102
    vertex -649.539426286095 -345.804869946906 -5.82842669844284
  endloop
endfacet
facet normal 2.20839305458944e-13 -1.0 1.43159122879028e-13
  outer loop
    vertex -652.960998735044 -268.904869946907 -3.00000000002998
    vertex -650.760998735043 -268.904869946907 -9.25000000002963
    vertex -650.760998735044 -268.904869946906 -3.00000000002962
  endloop
endfacet
facet normal 2.20839305458944e-13 -1.0 1.43159122879028e-13
  outer loop
    vertex -650.760998735043 -268.904869946907 -9.25000000002963
    vertex -652.960998735044 -268.904869946907 -3.00000000002998
    vertex -652.960998735043 -268.904869946908 -9.25000000002999
  endloop
endfacet
facet normal -1.0 -2.20839305458967e-13 -1.62152943567184e-13
  outer loop
    vertex -640.460998735044 -266.904869946905 -9.25000000002823
    vertex -640.460998735045 -265.404869946904 -3.00000000002846
    vertex -640.460998735044 -265.404869946905 -9.25000000002846
  endloop
endfacet
facet normal -1.0 -2.20839305458967e-13 -1.62152943567184e-13
  outer loop
    vertex -640.460998735045 -265.404869946904 -3.00000000002846
    vertex -640.460998735044 -266.904869946905 -9.25000000002823
    vertex -640.460998735045 -266.904869946904 -3.00000000002823
  endloop
endfacet
facet normal -1.0 -2.20839305458967e-13 -1.62152943567184e-13
  outer loop
    vertex -640.460998735026 -345.804869946905 -9.25000000001694
    vertex -640.460998735044 -268.904869946904 -3.00000000002795
    vertex -640.460998735043 -268.904869946905 -9.25000000002796
  endloop
endfacet
facet normal -1.0 -2.20839305458967e-13 -1.62152943567184e-13
  outer loop
    vertex -640.460998735044 -268.904869946904 -3.00000000002795
    vertex -640.460998735026 -345.804869946905 -9.25000000001694
    vertex -640.460998735027 -345.804869946904 -3.00000000001694
  endloop
endfacet
facet normal 1.0 2.20839305458967e-13 1.62152943567184e-13
  outer loop
    vertex -652.960998735044 -268.904869946907 -3.00000000002998
    vertex -652.960998735026 -345.804869946908 -9.25000000001896
    vertex -652.960998735043 -268.904869946908 -9.25000000002999
  endloop
endfacet
facet normal 1.0 2.20839305458967e-13 1.62152943567184e-13
  outer loop
    vertex -652.960998735026 -345.804869946908 -9.25000000001896
    vertex -652.960998735044 -268.904869946907 -3.00000000002998
    vertex -652.960998735027 -345.804869946907 -3.00000000001896
  endloop
endfacet
facet normal -1.0 -2.20839305458967e-13 -1.62152943567184e-13
  outer loop
    vertex -640.460998735008 -434.304869946904 -3.00000000000429
    vertex -640.460998735007 -432.804869946905 -9.25000000000448
    vertex -640.460998735006 -434.304869946905 -9.25000000000427
  endloop
endfacet
facet normal -1.0 -2.20839305458967e-13 -1.62152943567184e-13
  outer loop
    vertex -640.460998735007 -432.804869946905 -9.25000000000448
    vertex -640.460998735008 -434.304869946904 -3.00000000000429
    vertex -640.460998735008 -432.804869946904 -3.00000000000448
  endloop
endfacet
facet normal -1.0 -2.20839305458967e-13 -1.62152943567184e-13
  outer loop
    vertex -640.46099873505 -242.404869946904 -3.00000000003176
    vertex -640.460998735049 -240.904869946905 -9.25000000003195
    vertex -640.460998735049 -242.404869946905 -9.25000000003176
  endloop
endfacet
facet normal -1.0 -2.20839305458967e-13 -1.62152943567184e-13
  outer loop
    vertex -640.460998735049 -240.904869946905 -9.25000000003195
    vertex -640.46099873505 -242.404869946904 -3.00000000003176
    vertex -640.46099873505 -240.904869946904 -3.00000000003196
  endloop
endfacet
facet normal -1.17505131523904e-13 1.4556573149697e-13 1.0
  outer loop
    vertex -640.460998735025 -350.804869946905 -9.25000000001623
    vertex -642.660998735007 -430.804869946905 -9.25000000000512
    vertex -640.460998735007 -430.804869946905 -9.25000000000476
  endloop
endfacet
facet normal -1.17505131523904e-13 1.4556573149697e-13 1.0
  outer loop
    vertex -642.660998735007 -430.804869946905 -9.25000000000512
    vertex -640.460998735025 -350.804869946905 -9.25000000001623
    vertex -650.760998735007 -430.804869946907 -9.25000000000506
  endloop
endfacet
facet normal -1.17505131523904e-13 1.4556573149697e-13 1.0
  outer loop
    vertex -650.760998735007 -430.804869946907 -9.25000000000506
    vertex -640.460998735025 -350.804869946905 -9.25000000001623
    vertex -652.960998735007 -430.804869946908 -9.25000000000541
  endloop
endfacet
facet normal -1.17505131523904e-13 1.4556573149697e-13 1.0
  outer loop
    vertex -652.960998735007 -430.804869946908 -9.25000000000541
    vertex -640.460998735025 -350.804869946905 -9.25000000001623
    vertex -652.960998735025 -350.804869946908 -9.25000000001825
  endloop
endfacet
facet normal -1.17505131523904e-13 1.4556573149697e-13 1.0
  outer loop
    vertex -642.660998735007 -430.804869946905 -9.25000000000512
    vertex -650.760998735007 -432.804869946907 -9.25000000000477
    vertex -642.660998735007 -432.804869946905 -9.25000000000483
  endloop
endfacet
facet normal -1.17505131523904e-13 1.4556573149697e-13 1.0
  outer loop
    vertex -650.760998735007 -432.804869946907 -9.25000000000477
    vertex -642.660998735007 -430.804869946905 -9.25000000000512
    vertex -650.760998735007 -430.804869946907 -9.25000000000506
  endloop
endfacet
facet normal -1.17505131523904e-13 1.4556573149697e-13 1.0
  outer loop
    vertex -640.460998735007 -432.804869946905 -9.25000000000448
    vertex -642.660998735007 -434.304869946905 -9.25000000000463
    vertex -640.460998735006 -434.304869946905 -9.25000000000427
  endloop
endfacet
facet normal -1.17505131523904e-13 1.4556573149697e-13 1.0
  outer loop
    vertex -642.660998735007 -434.304869946905 -9.25000000000463
    vertex -640.460998735007 -432.804869946905 -9.25000000000448
    vertex -650.760998735007 -434.304869946907 -9.25000000000594
  endloop
endfacet
facet normal -1.17505131523904e-13 1.4556573149697e-13 1.0
  outer loop
    vertex -650.760998735007 -434.304869946907 -9.25000000000594
    vertex -640.460998735007 -432.804869946905 -9.25000000000448
    vertex -652.960998735006 -434.304869946908 -9.2500000000063
  endloop
endfacet
facet normal -1.17505131523904e-13 1.4556573149697e-13 1.0
  outer loop
    vertex -652.960998735006 -434.304869946908 -9.2500000000063
    vertex -640.460998735007 -432.804869946905 -9.25000000000448
    vertex -652.960998735007 -432.804869946908 -9.25000000000513
  endloop
endfacet
facet normal -1.17505131523904e-13 1.4556573149697e-13 1.0
  outer loop
    vertex -652.960998735007 -432.804869946908 -9.25000000000513
    vertex -640.460998735007 -432.804869946905 -9.25000000000448
    vertex -642.660998735007 -432.804869946905 -9.25000000000483
  endloop
endfacet
facet normal -1.17505131523904e-13 1.4556573149697e-13 1.0
  outer loop
    vertex -652.960998735007 -432.804869946908 -9.25000000000513
    vertex -642.660998735007 -432.804869946905 -9.25000000000483
    vertex -650.760998735007 -432.804869946907 -9.25000000000477
  endloop
endfacet
facet normal -1.17505131523904e-13 1.4556573149697e-13 1.0
  outer loop
    vertex -642.660998735007 -434.304869946905 -9.25000000000463
    vertex -650.760998735006 -436.304869946907 -9.25000000000566
    vertex -642.660998735006 -436.304869946905 -9.25000000000434
  endloop
endfacet
facet normal -1.17505131523904e-13 1.4556573149697e-13 1.0
  outer loop
    vertex -650.760998735006 -436.304869946907 -9.25000000000566
    vertex -642.660998735007 -434.304869946905 -9.25000000000463
    vertex -650.760998735007 -434.304869946907 -9.25000000000594
  endloop
endfacet
facet normal -1.17505131523904e-13 1.4556573149697e-13 1.0
  outer loop
    vertex -640.460998735006 -436.304869946905 -9.25000000000399
    vertex -652.960998735006 -437.804869946908 -9.25000000000486
    vertex -640.460998735006 -437.804869946905 -9.25000000000284
  endloop
endfacet
facet normal -1.17505131523904e-13 1.4556573149697e-13 1.0
  outer loop
    vertex -652.960998735006 -437.804869946908 -9.25000000000486
    vertex -640.460998735006 -436.304869946905 -9.25000000000399
    vertex -652.960998735006 -436.304869946908 -9.25000000000601
  endloop
endfacet
facet normal -1.17505131523904e-13 1.4556573149697e-13 1.0
  outer loop
    vertex -652.960998735006 -436.304869946908 -9.25000000000601
    vertex -640.460998735006 -436.304869946905 -9.25000000000399
    vertex -642.660998735006 -436.304869946905 -9.25000000000434
  endloop
endfacet
facet normal -1.17505131523904e-13 1.4556573149697e-13 1.0
  outer loop
    vertex -652.960998735006 -436.304869946908 -9.25000000000601
    vertex -642.660998735006 -436.304869946905 -9.25000000000434
    vertex -650.760998735006 -436.304869946907 -9.25000000000566
  endloop
endfacet
facet normal 1.0 2.20839305458967e-13 1.62152943567184e-13
  outer loop
    vertex -652.960998735007 -436.304869946907 -3.00000000000602
    vertex -652.960998735006 -437.804869946908 -9.25000000000486
    vertex -652.960998735006 -436.304869946908 -9.25000000000601
  endloop
endfacet
facet normal 1.0 2.20839305458967e-13 1.62152943567184e-13
  outer loop
    vertex -652.960998735006 -437.804869946908 -9.25000000000486
    vertex -652.960998735007 -436.304869946907 -3.00000000000602
    vertex -652.960998735007 -437.804869946907 -3.00000000000579
  endloop
endfacet
facet normal 1.0 2.20839305458967e-13 1.62152943567184e-13
  outer loop
    vertex -652.960998735026 -350.804869946907 -3.00000000001824
    vertex -652.960998735007 -430.804869946908 -9.25000000000541
    vertex -652.960998735025 -350.804869946908 -9.25000000001825
  endloop
endfacet
facet normal 1.0 2.20839305458967e-13 1.62152943567184e-13
  outer loop
    vertex -652.960998735007 -430.804869946908 -9.25000000000541
    vertex -652.960998735026 -350.804869946907 -3.00000000001824
    vertex -652.960998735008 -430.804869946907 -3.00000000000679
  endloop
endfacet
facet normal 0.965925865300164 2.5036668385624e-13 0.258818899511084
  outer loop
    vertex -650.574702196228 -345.804869946906 -4.0352755980623
    vertex -650.175100651618 -350.804869946906 -4.9999994778824
    vertex -650.175100651619 -345.804869946906 -4.99999947788312
  endloop
endfacet
facet normal 0.866025479148097 2.62832008077238e-13 0.499999869466293
  outer loop
    vertex -650.175100651618 -350.804869946906 -4.9999994778824
    vertex -650.574702196228 -345.804869946906 -4.0352755980623
    vertex -650.574702196227 -350.804869946906 -4.03527559806159
  endloop
endfacet
facet normal 2.20839305458944e-13 -1.0 1.43159122879028e-13
  outer loop
    vertex -640.460998735007 -436.304869946904 -3.000000000004
    vertex -642.660998735006 -436.304869946905 -9.25000000000434
    vertex -640.460998735006 -436.304869946905 -9.25000000000399
  endloop
endfacet
facet normal 2.20839305458944e-13 -1.0 1.43159122879028e-13
  outer loop
    vertex -642.660998735006 -436.304869946905 -9.25000000000434
    vertex -640.460998735007 -436.304869946904 -3.000000000004
    vertex -642.660998735007 -436.304869946904 -3.00000000000434
  endloop
endfacet
facet normal -2.20839305458944e-13 1.0 -1.43159122879028e-13
  outer loop
    vertex -652.960998735007 -430.804869946908 -9.25000000000541
    vertex -650.760998735008 -430.804869946906 -3.00000000000643
    vertex -650.760998735007 -430.804869946907 -9.25000000000506
  endloop
endfacet
facet normal -2.20839305458944e-13 1.0 -1.43159122879028e-13
  outer loop
    vertex -650.760998735008 -430.804869946906 -3.00000000000643
    vertex -652.960998735007 -430.804869946908 -9.25000000000541
    vertex -652.960998735008 -430.804869946907 -3.00000000000679
  endloop
endfacet
facet normal 2.20839305458944e-13 -1.0 1.43159122879028e-13
  outer loop
    vertex -652.960998735007 -436.304869946907 -3.00000000000602
    vertex -650.760998735006 -436.304869946907 -9.25000000000566
    vertex -650.760998735007 -436.304869946906 -3.00000000000567
  endloop
endfacet
facet normal 2.20839305458944e-13 -1.0 1.43159122879028e-13
  outer loop
    vertex -650.760998735006 -436.304869946907 -9.25000000000566
    vertex -652.960998735007 -436.304869946907 -3.00000000000602
    vertex -652.960998735006 -436.304869946908 -9.25000000000601
  endloop
endfacet
facet normal 0.991444861373793 2.37636009777609e-13 0.130526192220185
  outer loop
    vertex -647.956728735007 -437.804869946906 -3.00000000000498
    vertex -647.91428151459 -438.804869946906 -3.32241864906039
    vertex -647.91428151459 -437.804869946906 -3.32241864906053
  endloop
endfacet
facet normal 0.965925826289032 2.50366696083811e-13 0.258819045102657
  outer loop
    vertex -647.91428151459 -438.804869946906 -3.32241864906039
    vertex -647.956728735007 -437.804869946906 -3.00000000000498
    vertex -647.956728735007 -438.804869946906 -3.00000000000483
  endloop
endfacet
facet normal 0.258819190693949 1.95438538785244e-13 0.965925787277951
  outer loop
    vertex -647.746275497803 -345.804869946906 -6.8637031491298
    vertex -648.710999257161 -350.804869946906 -6.46410131370031
    vertex -647.746275497802 -350.804869946906 -6.86370314912908
  endloop
endfacet
facet normal 0.500000130533702 2.34399107964182e-13 0.866025328420758
  outer loop
    vertex -648.710999257161 -350.804869946906 -6.46410131370031
    vertex -647.746275497803 -345.804869946906 -6.8637031491298
    vertex -648.710999257162 -345.804869946906 -6.46410131370102
  endloop
endfacet
facet normal -0.991444841699932 -2.00263953657511e-13 0.130526341657909
  outer loop
    vertex -642.710998735026 -350.804869946904 -3.0000006029266
    vertex -642.847295585915 -345.804869946905 -4.03527676279375
    vertex -642.847295585914 -350.804869946905 -4.03527676279303
  endloop
endfacet
facet normal -0.965925787277949 -1.7626205166334e-13 0.258819190693955
  outer loop
    vertex -642.847295585915 -345.804869946905 -4.03527676279375
    vertex -642.710998735026 -350.804869946904 -3.0000006029266
    vertex -642.710998735027 -345.804869946904 -3.0000006029273
  endloop
endfacet
facet normal -2.20839305458944e-13 1.0 -1.43159122879028e-13
  outer loop
    vertex -640.460998735026 -345.804869946905 -9.25000000001694
    vertex -643.882572036602 -345.804869946905 -5.82842755108543
    vertex -640.460998735027 -345.804869946904 -3.00000000001694
  endloop
endfacet
facet normal -2.20839305458944e-13 1.0 -1.43159122879028e-13
  outer loop
    vertex -643.882572036602 -345.804869946905 -5.82842755108543
    vertex -640.460998735026 -345.804869946905 -9.25000000001694
    vertex -644.710999257162 -345.804869946905 -6.46410191661038
  endloop
endfacet
facet normal -2.20839305458944e-13 1.0 -1.43159122879028e-13
  outer loop
    vertex -644.710999257162 -345.804869946905 -6.46410191661038
    vertex -640.460998735026 -345.804869946905 -9.25000000001694
    vertex -645.675723136983 -345.804869946906 -6.86370346121864
  endloop
endfacet
facet normal -2.20839305458944e-13 1.0 -1.43159122879028e-13
  outer loop
    vertex -645.675723136983 -345.804869946906 -6.86370346121864
    vertex -640.460998735026 -345.804869946905 -9.25000000001694
    vertex -652.960998735026 -345.804869946908 -9.25000000001896
  endloop
endfacet
facet normal -2.20839305458944e-13 1.0 -1.43159122879028e-13
  outer loop
    vertex -640.460998735027 -345.804869946904 -3.00000000001694
    vertex -643.882572036602 -345.804869946905 -5.82842755108543
    vertex -643.246897421344 -345.804869946905 -5.00000052215276
  endloop
endfacet
facet normal -2.20839305458944e-13 1.0 -1.43159122879028e-13
  outer loop
    vertex -640.460998735027 -345.804869946904 -3.00000000001694
    vertex -643.246897421344 -345.804869946905 -5.00000052215276
    vertex -642.847295585915 -345.804869946905 -4.03527676279375
  endloop
endfacet
facet normal -2.20839305458944e-13 1.0 -1.43159122879028e-13
  outer loop
    vertex -640.460998735027 -345.804869946904 -3.00000000001694
    vertex -642.847295585915 -345.804869946905 -4.03527676279375
    vertex -642.710998735027 -345.804869946904 -3.0000006029273
  endloop
endfacet
facet normal -2.20839305458944e-13 1.0 -1.43159122879028e-13
  outer loop
    vertex -645.675723136983 -345.804869946906 -6.86370346121864
    vertex -652.960998735026 -345.804869946908 -9.25000000001896
    vertex -646.710999337936 -345.804869946906 -7.00000000001795
  endloop
endfacet
facet normal -2.20839305458944e-13 1.0 -1.43159122879028e-13
  outer loop
    vertex -646.710999337936 -345.804869946906 -7.00000000001795
    vertex -652.960998735026 -345.804869946908 -9.25000000001896
    vertex -647.746275497803 -345.804869946906 -6.8637031491298
  endloop
endfacet
facet normal -2.20839305458944e-13 1.0 -1.43159122879028e-13
  outer loop
    vertex -647.746275497803 -345.804869946906 -6.8637031491298
    vertex -652.960998735026 -345.804869946908 -9.25000000001896
    vertex -648.710999257162 -345.804869946906 -6.46410131370102
  endloop
endfacet
facet normal -2.20839305458944e-13 1.0 -1.43159122879028e-13
  outer loop
    vertex -648.710999257162 -345.804869946906 -6.46410131370102
    vertex -652.960998735026 -345.804869946908 -9.25000000001896
    vertex -649.539426286095 -345.804869946906 -5.82842669844284
  endloop
endfacet
facet normal -2.20839305458944e-13 1.0 -1.43159122879028e-13
  outer loop
    vertex -649.539426286095 -345.804869946906 -5.82842669844284
    vertex -652.960998735026 -345.804869946908 -9.25000000001896
    vertex -650.175100651619 -345.804869946906 -4.99999947788312
  endloop
endfacet
facet normal -2.20839305458944e-13 1.0 -1.43159122879028e-13
  outer loop
    vertex -650.175100651619 -345.804869946906 -4.99999947788312
    vertex -652.960998735026 -345.804869946908 -9.25000000001896
    vertex -650.574702196228 -345.804869946906 -4.0352755980623
  endloop
endfacet
facet normal -2.20839305458944e-13 1.0 -1.43159122879028e-13
  outer loop
    vertex -650.574702196228 -345.804869946906 -4.0352755980623
    vertex -652.960998735026 -345.804869946908 -9.25000000001896
    vertex -650.710998735027 -345.804869946906 -2.99999939710861
  endloop
endfacet
facet normal -2.20839305458944e-13 1.0 -1.43159122879028e-13
  outer loop
    vertex -650.710998735027 -345.804869946906 -2.99999939710861
    vertex -652.960998735026 -345.804869946908 -9.25000000001896
    vertex -652.960998735027 -345.804869946907 -3.00000000001896
  endloop
endfacet
facet normal 2.20839305458944e-13 -1.0 1.43159122879028e-13
  outer loop
    vertex -652.960998735008 -432.804869946907 -3.0000000000065
    vertex -650.760998735007 -432.804869946907 -9.25000000000477
    vertex -650.760998735008 -432.804869946906 -3.00000000000615
  endloop
endfacet
facet normal 2.20839305458944e-13 -1.0 1.43159122879028e-13
  outer loop
    vertex -650.760998735007 -432.804869946907 -9.25000000000477
    vertex -652.960998735008 -432.804869946907 -3.0000000000065
    vertex -652.960998735007 -432.804869946908 -9.25000000000513
  endloop
endfacet
facet normal -1.55255744507985e-13 1.43159122878994e-13 1.0
  outer loop
    vertex -646.710998735007 -437.804869946905 -4.24573000000477
    vertex -647.033417384062 -438.804869946906 -4.20328277958776
    vertex -646.710998735006 -438.804869946905 -4.24573000000463
  endloop
endfacet
facet normal 0.258819045102361 1.95438512217703e-13 0.965925826289111
  outer loop
    vertex -647.033417384062 -438.804869946906 -4.20328277958776
    vertex -646.710998735007 -437.804869946905 -4.24573000000477
    vertex -647.033417384062 -437.804869946905 -4.20328277958791
  endloop
endfacet
facet normal -0.707106781186663 -5.49281838661095e-14 0.707106781186432
  outer loop
    vertex -645.830134604479 -437.804869946905 -3.88086413053215
    vertex -646.088133735006 -438.804869946905 -4.07883382626092
    vertex -645.830134604479 -438.804869946905 -3.880864130532
  endloop
endfacet
facet normal -0.500000000000137 1.35597844672231e-14 0.86602540378436
  outer loop
    vertex -646.088133735006 -438.804869946905 -4.07883382626092
    vertex -645.830134604479 -437.804869946905 -3.88086413053215
    vertex -646.088133735007 -437.804869946905 -4.07883382626106
  endloop
endfacet
facet normal 0.866025479148097 2.62832008077238e-13 0.499999869466293
  outer loop
    vertex -650.175100651619 -345.804869946906 -4.99999947788312
    vertex -649.539426286093 -350.804869946906 -5.82842669844212
    vertex -649.539426286095 -345.804869946906 -5.82842669844284
  endloop
endfacet
facet normal 0.707106887766862 2.57385765298202e-13 0.707106674606217
  outer loop
    vertex -649.539426286093 -350.804869946906 -5.82842669844212
    vertex -650.175100651619 -345.804869946906 -4.99999947788312
    vertex -650.175100651618 -350.804869946906 -4.9999994778824
  endloop
endfacet
facet normal -0.991444861373835 -2.00263979395702e-13 0.130526192219864
  outer loop
    vertex -645.465268735006 -438.804869946905 -3.00000000000443
    vertex -645.507715955424 -437.804869946905 -3.32241864906014
    vertex -645.507715955423 -438.804869946905 -3.32241864906
  endloop
endfacet
facet normal -0.965925826289114 -1.76262081121305e-13 0.25881904510235
  outer loop
    vertex -645.507715955424 -437.804869946905 -3.32241864906014
    vertex -645.465268735006 -438.804869946905 -3.00000000000443
    vertex -645.465268735007 -437.804869946905 -3.00000000000457
  endloop
endfacet
facet normal 2.20839305458944e-13 -1.0 1.43159122879028e-13
  outer loop
    vertex -640.460998735008 -432.804869946904 -3.00000000000448
    vertex -642.660998735007 -432.804869946905 -9.25000000000483
    vertex -640.460998735007 -432.804869946905 -9.25000000000448
  endloop
endfacet
facet normal 2.20839305458944e-13 -1.0 1.43159122879028e-13
  outer loop
    vertex -642.660998735007 -432.804869946905 -9.25000000000483
    vertex -640.460998735008 -432.804869946904 -3.00000000000448
    vertex -642.660998735008 -432.804869946904 -3.00000000000483
  endloop
endfacet
facet normal -2.20839305458944e-13 1.0 -1.43159122879028e-13
  outer loop
    vertex -652.960998735006 -437.804869946908 -9.25000000000486
    vertex -640.460998735007 -437.804869946904 -3.00000000000376
    vertex -640.460998735006 -437.804869946905 -9.25000000000284
  endloop
endfacet
facet normal -2.20839305458944e-13 1.0 -1.43159122879028e-13
  outer loop
    vertex -640.460998735007 -437.804869946904 -3.00000000000376
    vertex -652.960998735006 -437.804869946908 -9.25000000000486
    vertex -646.088133735007 -437.804869946905 -4.07883382626106
  endloop
endfacet
facet normal -2.20839305458944e-13 1.0 -1.43159122879028e-13
  outer loop
    vertex -640.460998735007 -437.804869946904 -3.00000000000376
    vertex -646.088133735007 -437.804869946905 -4.07883382626106
    vertex -645.830134604479 -437.804869946905 -3.88086413053215
  endloop
endfacet
facet normal -2.20839305458944e-13 1.0 -1.43159122879028e-13
  outer loop
    vertex -640.460998735007 -437.804869946904 -3.00000000000376
    vertex -645.830134604479 -437.804869946905 -3.88086413053215
    vertex -645.63216490875 -437.804869946905 -3.6228650000046
  endloop
endfacet
facet normal -2.20839305458944e-13 1.0 -1.43159122879028e-13
  outer loop
    vertex -640.460998735007 -437.804869946904 -3.00000000000376
    vertex -645.63216490875 -437.804869946905 -3.6228650000046
    vertex -645.507715955424 -437.804869946905 -3.32241864906014
  endloop
endfacet
facet normal -2.20839305458944e-13 1.0 -1.43159122879028e-13
  outer loop
    vertex -640.460998735007 -437.804869946904 -3.00000000000376
    vertex -645.507715955424 -437.804869946905 -3.32241864906014
    vertex -645.465268735007 -437.804869946905 -3.00000000000457
  endloop
endfacet
facet normal -2.20839305458944e-13 1.0 -1.43159122879028e-13
  outer loop
    vertex -646.088133735007 -437.804869946905 -4.07883382626106
    vertex -652.960998735006 -437.804869946908 -9.25000000000486
    vertex -646.388580085951 -437.804869946905 -4.20328277958781
  endloop
endfacet
facet normal -2.20839305458944e-13 1.0 -1.43159122879028e-13
  outer loop
    vertex -646.388580085951 -437.804869946905 -4.20328277958781
    vertex -652.960998735006 -437.804869946908 -9.25000000000486
    vertex -646.710998735007 -437.804869946905 -4.24573000000477
  endloop
endfacet
facet normal -2.20839305458944e-13 1.0 -1.43159122879028e-13
  outer loop
    vertex -646.710998735007 -437.804869946905 -4.24573000000477
    vertex -652.960998735006 -437.804869946908 -9.25000000000486
    vertex -647.033417384062 -437.804869946905 -4.20328277958791
  endloop
endfacet
facet normal -2.20839305458944e-13 1.0 -1.43159122879028e-13
  outer loop
    vertex -647.033417384062 -437.804869946905 -4.20328277958791
    vertex -652.960998735006 -437.804869946908 -9.25000000000486
    vertex -647.333863735007 -437.804869946906 -4.07883382626126
  endloop
endfacet
facet normal -2.20839305458944e-13 1.0 -1.43159122879028e-13
  outer loop
    vertex -647.333863735007 -437.804869946906 -4.07883382626126
    vertex -652.960998735006 -437.804869946908 -9.25000000000486
    vertex -647.591862865534 -437.804869946906 -3.88086413053244
  endloop
endfacet
facet normal -2.20839305458944e-13 1.0 -1.43159122879028e-13
  outer loop
    vertex -647.591862865534 -437.804869946906 -3.88086413053244
    vertex -652.960998735006 -437.804869946908 -9.25000000000486
    vertex -647.789832561263 -437.804869946906 -3.62286500000495
  endloop
endfacet
facet normal -2.20839305458944e-13 1.0 -1.43159122879028e-13
  outer loop
    vertex -647.789832561263 -437.804869946906 -3.62286500000495
    vertex -652.960998735006 -437.804869946908 -9.25000000000486
    vertex -647.91428151459 -437.804869946906 -3.32241864906053
  endloop
endfacet
facet normal -2.20839305458944e-13 1.0 -1.43159122879028e-13
  outer loop
    vertex -647.91428151459 -437.804869946906 -3.32241864906053
    vertex -652.960998735006 -437.804869946908 -9.25000000000486
    vertex -647.956728735007 -437.804869946906 -3.00000000000498
  endloop
endfacet
facet normal -2.20839305458944e-13 1.0 -1.43159122879028e-13
  outer loop
    vertex -647.956728735007 -437.804869946906 -3.00000000000498
    vertex -652.960998735006 -437.804869946908 -9.25000000000486
    vertex -652.960998735007 -437.804869946907 -3.00000000000579
  endloop
endfacet
facet normal 0.499999999999835 2.34399089926186e-13 0.866025403784534
  outer loop
    vertex -647.333863735007 -437.804869946906 -4.07883382626126
    vertex -647.591862865534 -438.804869946906 -3.88086413053229
    vertex -647.333863735006 -438.804869946906 -4.07883382626112
  endloop
endfacet
facet normal 0.707106781186433 2.57385757019017e-13 0.707106781186662
  outer loop
    vertex -647.591862865534 -438.804869946906 -3.88086413053229
    vertex -647.333863735007 -437.804869946906 -4.07883382626126
    vertex -647.591862865534 -437.804869946906 -3.88086413053244
  endloop
endfacet
facet normal -0.499999869466291 1.35598240832337e-14 0.866025479148098
  outer loop
    vertex -644.710999257162 -345.804869946905 -6.46410191661038
    vertex -645.675723136982 -350.804869946906 -6.86370346121792
    vertex -644.710999257161 -350.804869946905 -6.46410191660967
  endloop
endfacet
facet normal -0.25881889951109 8.11237136348607e-14 0.965925865300163
  outer loop
    vertex -645.675723136982 -350.804869946906 -6.86370346121792
    vertex -644.710999257162 -345.804869946905 -6.46410191661038
    vertex -645.675723136983 -345.804869946906 -6.86370346121864
  endloop
endfacet
facet normal 1.0 2.20839305458967e-13 1.62152943567184e-13
  outer loop
    vertex -650.760998735007 -434.304869946906 -3.00000000000595
    vertex -650.760998735006 -436.304869946907 -9.25000000000566
    vertex -650.760998735007 -434.304869946907 -9.25000000000594
  endloop
endfacet
facet normal 1.0 2.20839305458967e-13 1.62152943567184e-13
  outer loop
    vertex -650.760998735006 -436.304869946907 -9.25000000000566
    vertex -650.760998735007 -434.304869946906 -3.00000000000595
    vertex -650.760998735007 -436.304869946906 -3.00000000000567
  endloop
endfacet
facet normal -1.0 -2.20839305458967e-13 -1.62152943567184e-13
  outer loop
    vertex -642.660998735007 -436.304869946904 -3.00000000000434
    vertex -642.660998735007 -434.304869946905 -9.25000000000463
    vertex -642.660998735006 -436.304869946905 -9.25000000000434
  endloop
endfacet
facet normal -1.0 -2.20839305458967e-13 -1.62152943567184e-13
  outer loop
    vertex -642.660998735007 -434.304869946905 -9.25000000000463
    vertex -642.660998735007 -436.304869946904 -3.00000000000434
    vertex -642.660998735008 -434.304869946904 -3.00000000000464
  endloop
endfacet
facet normal -2.20839305458944e-13 1.0 -1.43159122879028e-13
  outer loop
    vertex -642.660998735007 -430.804869946905 -9.25000000000512
    vertex -640.460998735008 -430.804869946904 -3.00000000000476
    vertex -640.460998735007 -430.804869946905 -9.25000000000476
  endloop
endfacet
facet normal -2.20839305458944e-13 1.0 -1.43159122879028e-13
  outer loop
    vertex -640.460998735008 -430.804869946904 -3.00000000000476
    vertex -642.660998735007 -430.804869946905 -9.25000000000512
    vertex -642.660998735008 -430.804869946904 -3.00000000000512
  endloop
endfacet
facet normal -0.707106781186664 -5.49281838661097e-14 0.707106781186431
  outer loop
    vertex -645.830134604479 -438.804869946905 -3.880864130532
    vertex -645.63216490875 -437.804869946905 -3.6228650000046
    vertex -645.830134604479 -437.804869946905 -3.88086413053215
  endloop
endfacet
facet normal -0.866025403784533 -1.19672887242087e-13 0.499999999999836
  outer loop
    vertex -645.63216490875 -437.804869946905 -3.6228650000046
    vertex -645.830134604479 -438.804869946905 -3.880864130532
    vertex -645.63216490875 -438.804869946905 -3.62286500000445
  endloop
endfacet
facet normal -0.500000000000137 1.35597844672231e-14 0.86602540378436
  outer loop
    vertex -646.088133735007 -437.804869946905 -4.07883382626106
    vertex -646.388580085951 -438.804869946905 -4.20328277958765
    vertex -646.088133735006 -438.804869946905 -4.07883382626092
  endloop
endfacet
facet normal -0.258819045102692 8.11236758977117e-14 0.965925826289022
  outer loop
    vertex -646.388580085951 -438.804869946905 -4.20328277958765
    vertex -646.088133735007 -437.804869946905 -4.07883382626106
    vertex -646.388580085951 -437.804869946905 -4.20328277958781
  endloop
endfacet
facet normal -0.96592578727795 -1.7626205166334e-13 0.258819190693953
  outer loop
    vertex -642.847295585914 -350.804869946905 -4.03527676279303
    vertex -643.246897421344 -345.804869946905 -5.00000052215276
    vertex -643.246897421343 -350.804869946905 -5.00000052215205
  endloop
endfacet
facet normal -0.866025328420763 -1.19672851911692e-13 0.500000130533694
  outer loop
    vertex -643.246897421344 -345.804869946905 -5.00000052215276
    vertex -642.847295585914 -350.804869946905 -4.03527676279303
    vertex -642.847295585915 -345.804869946905 -4.03527676279375
  endloop
endfacet
facet normal 1.50727339070259e-07 1.43159156165548e-13 0.999999999999989
  outer loop
    vertex -646.710999337936 -345.804869946906 -7.00000000001795
    vertex -647.746275497802 -350.804869946906 -6.86370314912908
    vertex -646.710999337935 -350.804869946906 -7.00000000001722
  endloop
endfacet
facet normal 0.258819190693949 1.95438538785244e-13 0.965925787277951
  outer loop
    vertex -647.746275497802 -350.804869946906 -6.86370314912908
    vertex -646.710999337936 -345.804869946906 -7.00000000001795
    vertex -647.746275497803 -345.804869946906 -6.8637031491298
  endloop
endfacet
facet normal -0.866025328420763 -1.19672851911692e-13 0.500000130533694
  outer loop
    vertex -643.246897421343 -350.804869946905 -5.00000052215205
    vertex -643.882572036602 -345.804869946905 -5.82842755108543
    vertex -643.882572036601 -350.804869946905 -5.82842755108471
  endloop
endfacet
facet normal -0.70710667460622 -5.49281450709982e-14 0.707106887766859
  outer loop
    vertex -643.882572036602 -345.804869946905 -5.82842755108543
    vertex -643.246897421343 -350.804869946905 -5.00000052215205
    vertex -643.246897421344 -345.804869946905 -5.00000052215276
  endloop
endfacet
facet normal -1.0 -2.20839305458967e-13 -1.62152943567184e-13
  outer loop
    vertex -642.660998735008 -432.804869946904 -3.00000000000483
    vertex -642.660998735007 -430.804869946905 -9.25000000000512
    vertex -642.660998735007 -432.804869946905 -9.25000000000483
  endloop
endfacet
facet normal -1.0 -2.20839305458967e-13 -1.62152943567184e-13
  outer loop
    vertex -642.660998735007 -430.804869946905 -9.25000000000512
    vertex -642.660998735008 -432.804869946904 -3.00000000000483
    vertex -642.660998735008 -430.804869946904 -3.00000000000512
  endloop
endfacet
facet normal -0.866025403784534 -1.19672887242088e-13 0.499999999999835
  outer loop
    vertex -645.63216490875 -438.804869946905 -3.62286500000445
    vertex -645.507715955424 -437.804869946905 -3.32241864906014
    vertex -645.63216490875 -437.804869946905 -3.6228650000046
  endloop
endfacet
facet normal -0.965925826289114 -1.76262081121305e-13 0.25881904510235
  outer loop
    vertex -645.507715955424 -437.804869946905 -3.32241864906014
    vertex -645.63216490875 -438.804869946905 -3.62286500000445
    vertex -645.507715955423 -438.804869946905 -3.32241864906
  endloop
endfacet
facet normal 2.20839305458944e-13 -1.0 1.43159122879028e-13
  outer loop
    vertex -638.010998735007 -438.804869946903 -3.00000000000322
    vertex -655.410998735005 -438.804869946908 -10.6999988108955
    vertex -638.010998735005 -438.804869946904 -10.7000003665722
  endloop
endfacet
facet normal 2.20839305458944e-13 -1.0 1.43159122879028e-13
  outer loop
    vertex -655.410998735005 -438.804869946908 -10.6999988108955
    vertex -638.010998735007 -438.804869946903 -3.00000000000322
    vertex -646.088133735006 -438.804869946905 -4.07883382626092
  endloop
endfacet
facet normal 2.20839305458944e-13 -1.0 1.43159122879028e-13
  outer loop
    vertex -646.088133735006 -438.804869946905 -4.07883382626092
    vertex -638.010998735007 -438.804869946903 -3.00000000000322
    vertex -645.830134604479 -438.804869946905 -3.880864130532
  endloop
endfacet
facet normal 2.20839305458944e-13 -1.0 1.43159122879028e-13
  outer loop
    vertex -645.830134604479 -438.804869946905 -3.880864130532
    vertex -638.010998735007 -438.804869946903 -3.00000000000322
    vertex -645.63216490875 -438.804869946905 -3.62286500000445
  endloop
endfacet
facet normal 2.20839305458944e-13 -1.0 1.43159122879028e-13
  outer loop
    vertex -645.63216490875 -438.804869946905 -3.62286500000445
    vertex -638.010998735007 -438.804869946903 -3.00000000000322
    vertex -645.507715955423 -438.804869946905 -3.32241864906
  endloop
endfacet
facet normal 2.20839305458944e-13 -1.0 1.43159122879028e-13
  outer loop
    vertex -645.507715955423 -438.804869946905 -3.32241864906
    vertex -638.010998735007 -438.804869946903 -3.00000000000322
    vertex -645.465268735006 -438.804869946905 -3.00000000000443
  endloop
endfacet
facet normal 2.20839305458944e-13 -1.0 1.43159122879028e-13
  outer loop
    vertex -655.410998735005 -438.804869946908 -10.6999988108955
    vertex -646.088133735006 -438.804869946905 -4.07883382626092
    vertex -646.388580085951 -438.804869946905 -4.20328277958765
  endloop
endfacet
facet normal 2.20839305458944e-13 -1.0 1.43159122879028e-13
  outer loop
    vertex -655.410998735005 -438.804869946908 -10.6999988108955
    vertex -646.388580085951 -438.804869946905 -4.20328277958765
    vertex -646.710998735006 -438.804869946905 -4.24573000000463
  endloop
endfacet
facet normal 2.20839305458944e-13 -1.0 1.43159122879028e-13
  outer loop
    vertex -655.410998735005 -438.804869946908 -10.6999988108955
    vertex -646.710998735006 -438.804869946905 -4.24573000000463
    vertex -647.033417384062 -438.804869946906 -4.20328277958776
  endloop
endfacet
facet normal 2.20839305458944e-13 -1.0 1.43159122879028e-13
  outer loop
    vertex -655.410998735005 -438.804869946908 -10.6999988108955
    vertex -647.033417384062 -438.804869946906 -4.20328277958776
    vertex -647.333863735006 -438.804869946906 -4.07883382626112
  endloop
endfacet
facet normal 2.20839305458944e-13 -1.0 1.43159122879028e-13
  outer loop
    vertex -655.410998735005 -438.804869946908 -10.6999988108955
    vertex -647.333863735006 -438.804869946906 -4.07883382626112
    vertex -647.591862865534 -438.804869946906 -3.88086413053229
  endloop
endfacet
facet normal 2.20839305458944e-13 -1.0 1.43159122879028e-13
  outer loop
    vertex -655.410998735005 -438.804869946908 -10.6999988108955
    vertex -647.591862865534 -438.804869946906 -3.88086413053229
    vertex -647.789832561263 -438.804869946906 -3.6228650000048
  endloop
endfacet
facet normal 2.20839305458944e-13 -1.0 1.43159122879028e-13
  outer loop
    vertex -655.410998735005 -438.804869946908 -10.6999988108955
    vertex -647.789832561263 -438.804869946906 -3.6228650000048
    vertex -647.91428151459 -438.804869946906 -3.32241864906039
  endloop
endfacet
facet normal 2.20839305458944e-13 -1.0 1.43159122879028e-13
  outer loop
    vertex -655.410998735005 -438.804869946908 -10.6999988108955
    vertex -647.91428151459 -438.804869946906 -3.32241864906039
    vertex -647.956728735007 -438.804869946906 -3.00000000000483
  endloop
endfacet
facet normal 2.20839305458944e-13 -1.0 1.43159122879028e-13
  outer loop
    vertex -655.410998735005 -438.804869946908 -10.6999988108955
    vertex -647.956728735007 -438.804869946906 -3.00000000000483
    vertex -655.410998735007 -438.804869946907 -3.00000000000605
  endloop
endfacet
facet normal 1.0 2.20839305458967e-13 1.62152943567184e-13
  outer loop
    vertex -652.960998735045 -265.404869946907 -3.00000000003047
    vertex -652.960998735043 -266.904869946908 -9.25000000003025
    vertex -652.960998735044 -265.404869946908 -9.25000000003049
  endloop
endfacet
facet normal 1.0 2.20839305458967e-13 1.62152943567184e-13
  outer loop
    vertex -652.960998735043 -266.904869946908 -9.25000000003025
    vertex -652.960998735045 -265.404869946907 -3.00000000003047
    vertex -652.960998735044 -266.904869946907 -3.00000000003025
  endloop
endfacet
facet normal -0.70710667460622 -5.49281450709982e-14 0.707106887766859
  outer loop
    vertex -643.882572036602 -345.804869946905 -5.82842755108543
    vertex -644.710999257161 -350.804869946905 -6.46410191660967
    vertex -643.882572036601 -350.804869946905 -5.82842755108471
  endloop
endfacet
facet normal -0.499999869466291 1.35598240832337e-14 0.866025479148098
  outer loop
    vertex -644.710999257161 -350.804869946905 -6.46410191660967
    vertex -643.882572036602 -345.804869946905 -5.82842755108543
    vertex -644.710999257162 -345.804869946905 -6.46410191661038
  endloop
endfacet
facet normal 0.96592582628903 2.50366696083811e-13 0.258819045102663
  outer loop
    vertex -647.91428151459 -437.804869946906 -3.32241864906053
    vertex -647.789832561263 -438.804869946906 -3.6228650000048
    vertex -647.789832561263 -437.804869946906 -3.62286500000495
  endloop
endfacet
facet normal 0.866025403784371 2.62832010121073e-13 0.500000000000117
  outer loop
    vertex -647.789832561263 -438.804869946906 -3.6228650000048
    vertex -647.91428151459 -437.804869946906 -3.32241864906053
    vertex -647.91428151459 -438.804869946906 -3.32241864906039
  endloop
endfacet
facet normal -2.20839305458944e-13 1.0 -1.43159122879028e-13
  outer loop
    vertex -642.660998735043 -266.904869946905 -9.25000000002858
    vertex -640.460998735045 -266.904869946904 -3.00000000002823
    vertex -640.460998735044 -266.904869946905 -9.25000000002823
  endloop
endfacet
facet normal -2.20839305458944e-13 1.0 -1.43159122879028e-13
  outer loop
    vertex -640.460998735045 -266.904869946904 -3.00000000002823
    vertex -642.660998735043 -266.904869946905 -9.25000000002858
    vertex -642.660998735044 -266.904869946904 -3.00000000002858
  endloop
endfacet
facet normal 0.991444881047666 2.37635992728961e-13 0.130526042782192
  outer loop
    vertex -650.710998735027 -345.804869946906 -2.99999939710861
    vertex -650.574702196227 -350.804869946906 -4.03527559806159
    vertex -650.574702196228 -345.804869946906 -4.0352755980623
  endloop
endfacet
facet normal 0.965925865300165 2.5036668385624e-13 0.258818899511083
  outer loop
    vertex -650.574702196227 -350.804869946906 -4.03527559806159
    vertex -650.710998735027 -345.804869946906 -2.99999939710861
    vertex -650.710998735026 -350.804869946906 -2.99999939710789
  endloop
endfacet
facet normal -0.25881889951109 8.11237136348607e-14 0.965925865300163
  outer loop
    vertex -645.675723136983 -345.804869946906 -6.86370346121864
    vertex -646.710999337935 -350.804869946906 -7.00000000001722
    vertex -645.675723136982 -350.804869946906 -6.86370346121792
  endloop
endfacet
facet normal 1.50727339070259e-07 1.43159156165548e-13 0.999999999999989
  outer loop
    vertex -646.710999337935 -350.804869946906 -7.00000000001722
    vertex -645.675723136983 -345.804869946906 -6.86370346121864
    vertex -646.710999337936 -345.804869946906 -7.00000000001795
  endloop
endfacet
facet normal -1.0 -2.20839305458967e-13 -1.62152943567184e-13
  outer loop
    vertex -640.460998735006 -437.804869946905 -9.25000000000284
    vertex -640.460998735007 -436.304869946904 -3.000000000004
    vertex -640.460998735006 -436.304869946905 -9.25000000000399
  endloop
endfacet
facet normal -1.0 -2.20839305458967e-13 -1.62152943567184e-13
  outer loop
    vertex -640.460998735007 -436.304869946904 -3.000000000004
    vertex -640.460998735006 -437.804869946905 -9.25000000000284
    vertex -640.460998735007 -437.804869946904 -3.00000000000376
  endloop
endfacet
facet normal 1.0 2.20839305458967e-13 1.62152943567184e-13
  outer loop
    vertex -652.960998735049 -240.904869946908 -9.25000000003398
    vertex -652.96099873505 -242.404869946907 -3.00000000003378
    vertex -652.960998735049 -242.404869946908 -9.25000000003378
  endloop
endfacet
facet normal 1.0 2.20839305458967e-13 1.62152943567184e-13
  outer loop
    vertex -652.96099873505 -242.404869946907 -3.00000000003378
    vertex -652.960998735049 -240.904869946908 -9.25000000003398
    vertex -652.96099873505 -240.904869946907 -3.00000000003399
  endloop
endfacet
facet normal 2.20839305458944e-13 -1.0 1.43159122879028e-13
  outer loop
    vertex -652.960998735045 -265.404869946907 -3.00000000003047
    vertex -650.760998735044 -265.404869946907 -9.25000000003013
    vertex -650.760998735045 -265.404869946906 -3.00000000003013
  endloop
endfacet
facet normal 2.20839305458944e-13 -1.0 1.43159122879028e-13
  outer loop
    vertex -650.760998735044 -265.404869946907 -9.25000000003013
    vertex -652.960998735045 -265.404869946907 -3.00000000003047
    vertex -652.960998735044 -265.404869946908 -9.25000000003049
  endloop
endfacet
facet normal 2.20839305458944e-13 -1.0 1.43159122879028e-13
  outer loop
    vertex -640.46099873505 -240.904869946904 -3.00000000003196
    vertex -642.660998735049 -240.904869946905 -9.2500000000323
    vertex -640.460998735049 -240.904869946905 -9.25000000003195
  endloop
endfacet
facet normal 2.20839305458944e-13 -1.0 1.43159122879028e-13
  outer loop
    vertex -642.660998735049 -240.904869946905 -9.2500000000323
    vertex -640.46099873505 -240.904869946904 -3.00000000003196
    vertex -642.66099873505 -240.904869946904 -3.00000000003232
  endloop
endfacet
facet normal -1.0 -2.20839305458967e-13 -1.62152943567184e-13
  outer loop
    vertex -642.660998735049 -240.904869946905 -9.2500000000323
    vertex -642.660998735051 -237.904869946904 -3.00000000003275
    vertex -642.66099873505 -237.904869946905 -9.25000000003276
  endloop
endfacet
facet normal -1.0 -2.20839305458967e-13 -1.62152943567184e-13
  outer loop
    vertex -642.660998735051 -237.904869946904 -3.00000000003275
    vertex -642.660998735049 -240.904869946905 -9.2500000000323
    vertex -642.66099873505 -240.904869946904 -3.00000000003232
  endloop
endfacet
facet normal -2.20839305458944e-13 1.0 -1.43159122879028e-13
  outer loop
    vertex -642.660998735007 -434.304869946905 -9.25000000000463
    vertex -640.460998735008 -434.304869946904 -3.00000000000429
    vertex -640.460998735006 -434.304869946905 -9.25000000000427
  endloop
endfacet
facet normal -2.20839305458944e-13 1.0 -1.43159122879028e-13
  outer loop
    vertex -640.460998735008 -434.304869946904 -3.00000000000429
    vertex -642.660998735007 -434.304869946905 -9.25000000000463
    vertex -642.660998735008 -434.304869946904 -3.00000000000464
  endloop
endfacet
facet normal -1.0 -2.20839305458967e-13 -1.62152943567184e-13
  outer loop
    vertex -642.660998735044 -268.904869946904 -3.00000000002831
    vertex -642.660998735043 -266.904869946905 -9.25000000002858
    vertex -642.660998735043 -268.904869946905 -9.25000000002832
  endloop
endfacet
facet normal -1.0 -2.20839305458967e-13 -1.62152943567184e-13
  outer loop
    vertex -642.660998735043 -266.904869946905 -9.25000000002858
    vertex -642.660998735044 -268.904869946904 -3.00000000002831
    vertex -642.660998735044 -266.904869946904 -3.00000000002858
  endloop
endfacet
facet normal 2.20839305458944e-13 -1.0 1.43159122879028e-13
  outer loop
    vertex -640.460998735025 -350.804869946905 -9.25000000001623
    vertex -645.675723136982 -350.804869946906 -6.86370346121792
    vertex -652.960998735025 -350.804869946908 -9.25000000001825
  endloop
endfacet
facet normal 2.20839305458944e-13 -1.0 1.43159122879028e-13
  outer loop
    vertex -645.675723136982 -350.804869946906 -6.86370346121792
    vertex -640.460998735025 -350.804869946905 -9.25000000001623
    vertex -644.710999257161 -350.804869946905 -6.46410191660967
  endloop
endfacet
facet normal 2.20839305458944e-13 -1.0 1.43159122879028e-13
  outer loop
    vertex -644.710999257161 -350.804869946905 -6.46410191660967
    vertex -640.460998735025 -350.804869946905 -9.25000000001623
    vertex -643.882572036601 -350.804869946905 -5.82842755108471
  endloop
endfacet
facet normal 2.20839305458944e-13 -1.0 1.43159122879028e-13
  outer loop
    vertex -643.882572036601 -350.804869946905 -5.82842755108471
    vertex -640.460998735025 -350.804869946905 -9.25000000001623
    vertex -640.460998735026 -350.804869946904 -3.00000000001624
  endloop
endfacet
facet normal 2.20839305458944e-13 -1.0 1.43159122879028e-13
  outer loop
    vertex -643.882572036601 -350.804869946905 -5.82842755108471
    vertex -640.460998735026 -350.804869946904 -3.00000000001624
    vertex -643.246897421343 -350.804869946905 -5.00000052215205
  endloop
endfacet
facet normal 2.20839305458944e-13 -1.0 1.43159122879028e-13
  outer loop
    vertex -643.246897421343 -350.804869946905 -5.00000052215205
    vertex -640.460998735026 -350.804869946904 -3.00000000001624
    vertex -642.847295585914 -350.804869946905 -4.03527676279303
  endloop
endfacet
facet normal 2.20839305458944e-13 -1.0 1.43159122879028e-13
  outer loop
    vertex -642.847295585914 -350.804869946905 -4.03527676279303
    vertex -640.460998735026 -350.804869946904 -3.00000000001624
    vertex -642.710998735026 -350.804869946904 -3.0000006029266
  endloop
endfacet
facet normal 2.20839305458944e-13 -1.0 1.43159122879028e-13
  outer loop
    vertex -652.960998735025 -350.804869946908 -9.25000000001825
    vertex -645.675723136982 -350.804869946906 -6.86370346121792
    vertex -646.710999337935 -350.804869946906 -7.00000000001722
  endloop
endfacet
facet normal 2.20839305458944e-13 -1.0 1.43159122879028e-13
  outer loop
    vertex -652.960998735025 -350.804869946908 -9.25000000001825
    vertex -646.710999337935 -350.804869946906 -7.00000000001722
    vertex -647.746275497802 -350.804869946906 -6.86370314912908
  endloop
endfacet
facet normal 2.20839305458944e-13 -1.0 1.43159122879028e-13
  outer loop
    vertex -652.960998735025 -350.804869946908 -9.25000000001825
    vertex -647.746275497802 -350.804869946906 -6.86370314912908
    vertex -648.710999257161 -350.804869946906 -6.46410131370031
  endloop
endfacet
facet normal 2.20839305458944e-13 -1.0 1.43159122879028e-13
  outer loop
    vertex -652.960998735025 -350.804869946908 -9.25000000001825
    vertex -648.710999257161 -350.804869946906 -6.46410131370031
    vertex -649.539426286093 -350.804869946906 -5.82842669844212
  endloop
endfacet
facet normal 2.20839305458944e-13 -1.0 1.43159122879028e-13
  outer loop
    vertex -652.960998735025 -350.804869946908 -9.25000000001825
    vertex -649.539426286093 -350.804869946906 -5.82842669844212
    vertex -650.175100651618 -350.804869946906 -4.9999994778824
  endloop
endfacet
facet normal 2.20839305458944e-13 -1.0 1.43159122879028e-13
  outer loop
    vertex -652.960998735025 -350.804869946908 -9.25000000001825
    vertex -650.175100651618 -350.804869946906 -4.9999994778824
    vertex -650.574702196227 -350.804869946906 -4.03527559806159
  endloop
endfacet
facet normal 2.20839305458944e-13 -1.0 1.43159122879028e-13
  outer loop
    vertex -652.960998735025 -350.804869946908 -9.25000000001825
    vertex -650.574702196227 -350.804869946906 -4.03527559806159
    vertex -650.710998735026 -350.804869946906 -2.99999939710789
  endloop
endfacet
facet normal 2.20839305458944e-13 -1.0 1.43159122879028e-13
  outer loop
    vertex -652.960998735025 -350.804869946908 -9.25000000001825
    vertex -650.710998735026 -350.804869946906 -2.99999939710789
    vertex -652.960998735026 -350.804869946907 -3.00000000001824
  endloop
endfacet
facet normal -0.258819045102691 8.11236758977118e-14 0.965925826289023
  outer loop
    vertex -646.388580085951 -437.804869946905 -4.20328277958781
    vertex -646.710998735006 -438.804869946905 -4.24573000000463
    vertex -646.388580085951 -438.804869946905 -4.20328277958765
  endloop
endfacet
facet normal -1.55255744507985e-13 1.43159122878994e-13 1.0
  outer loop
    vertex -646.710998735006 -438.804869946905 -4.24573000000463
    vertex -646.388580085951 -437.804869946905 -4.20328277958781
    vertex -646.710998735007 -437.804869946905 -4.24573000000477
  endloop
endfacet
facet normal 1.0 2.20839305458967e-13 1.62152943567184e-13
  outer loop
    vertex -650.760998735008 -430.804869946906 -3.00000000000643
    vertex -650.760998735007 -432.804869946907 -9.25000000000477
    vertex -650.760998735007 -430.804869946907 -9.25000000000506
  endloop
endfacet
facet normal 1.0 2.20839305458967e-13 1.62152943567184e-13
  outer loop
    vertex -650.760998735007 -432.804869946907 -9.25000000000477
    vertex -650.760998735008 -430.804869946906 -3.00000000000643
    vertex -650.760998735008 -432.804869946906 -3.00000000000615
  endloop
endfacet
facet normal 1.0 2.20839305458967e-13 1.62152943567184e-13
  outer loop
    vertex -638.010998735051 -237.904869946903 -3.00000000003197
    vertex -638.010998735005 -438.804869946904 -10.7000003665722
    vertex -638.01099873505 -237.904869946904 -10.700000366601
  endloop
endfacet
facet normal 1.0 2.20839305458967e-13 1.62152943567184e-13
  outer loop
    vertex -638.010998735005 -438.804869946904 -10.7000003665722
    vertex -638.010998735051 -237.904869946903 -3.00000000003197
    vertex -638.010998735007 -438.804869946903 -3.00000000000322
  endloop
endfacet
facet normal -1.0 -2.20839305458967e-13 -1.62152943567184e-13
  outer loop
    vertex -655.410998735005 -438.804869946908 -10.6999988108955
    vertex -655.410998735051 -237.904869946907 -3.00000000003481
    vertex -655.41099873505 -237.904869946908 -10.6999988109243
  endloop
endfacet
facet normal -1.0 -2.20839305458967e-13 -1.62152943567184e-13
  outer loop
    vertex -655.410998735051 -237.904869946907 -3.00000000003481
    vertex -655.410998735005 -438.804869946908 -10.6999988108955
    vertex -655.410998735007 -438.804869946907 -3.00000000000605
  endloop
endfacet
facet normal 1.0 2.20839305458967e-13 1.62152943567184e-13
  outer loop
    vertex -650.76099873505 -242.404869946906 -3.00000000003343
    vertex -650.760998735044 -265.404869946907 -9.25000000003013
    vertex -650.760998735049 -242.404869946907 -9.25000000003344
  endloop
endfacet
facet normal 1.0 2.20839305458967e-13 1.62152943567184e-13
  outer loop
    vertex -650.760998735044 -265.404869946907 -9.25000000003013
    vertex -650.76099873505 -242.404869946906 -3.00000000003343
    vertex -650.760998735045 -265.404869946906 -3.00000000003013
  endloop
endfacet
facet normal -2.20837338484219e-13 1.0 -1.44102019857899e-13
  outer loop
    vertex -638.01099873505 -237.904869946904 -10.700000366601
    vertex -642.66099873505 -237.904869946905 -9.25000000003276
    vertex -638.010998735051 -237.904869946903 -3.00000000003197
  endloop
endfacet
facet normal -2.20837338484219e-13 1.0 -1.44102019857899e-13
  outer loop
    vertex -642.66099873505 -237.904869946905 -9.25000000003276
    vertex -638.01099873505 -237.904869946904 -10.700000366601
    vertex -655.41099873505 -237.904869946908 -10.6999988109243
  endloop
endfacet
facet normal -2.20837338484219e-13 1.0 -1.44102019857899e-13
  outer loop
    vertex -642.66099873505 -237.904869946905 -9.25000000003276
    vertex -655.41099873505 -237.904869946908 -10.6999988109243
    vertex -650.76099873505 -237.904869946907 -9.25000000003408
  endloop
endfacet
facet normal -2.20837338484219e-13 1.0 -1.44102019857899e-13
  outer loop
    vertex -650.76099873505 -237.904869946907 -9.25000000003408
    vertex -655.41099873505 -237.904869946908 -10.6999988109243
    vertex -650.760998735051 -237.904869946906 -3.00000000003406
  endloop
endfacet
facet normal -2.20837338484219e-13 1.0 -1.44102019857899e-13
  outer loop
    vertex -650.760998735051 -237.904869946906 -3.00000000003406
    vertex -655.41099873505 -237.904869946908 -10.6999988109243
    vertex -655.410998735051 -237.904869946907 -3.00000000003481
  endloop
endfacet
facet normal -2.20837338484219e-13 1.0 -1.44102019857899e-13
  outer loop
    vertex -642.660998735051 -237.904869946904 -3.00000000003275
    vertex -638.010998735051 -237.904869946903 -3.00000000003197
    vertex -642.66099873505 -237.904869946905 -9.25000000003276
  endloop
endfacet
facet normal -2.20839305458944e-13 1.0 -1.43159122879028e-13
  outer loop
    vertex -652.960998735049 -242.404869946908 -9.25000000003378
    vertex -650.76099873505 -242.404869946906 -3.00000000003343
    vertex -650.760998735049 -242.404869946907 -9.25000000003344
  endloop
endfacet
facet normal -2.20839305458944e-13 1.0 -1.43159122879028e-13
  outer loop
    vertex -650.76099873505 -242.404869946906 -3.00000000003343
    vertex -652.960998735049 -242.404869946908 -9.25000000003378
    vertex -652.96099873505 -242.404869946907 -3.00000000003378
  endloop
endfacet
facet normal 2.20839305458944e-13 -1.0 1.43159122879028e-13
  outer loop
    vertex -640.460998735045 -265.404869946904 -3.00000000002846
    vertex -642.660998735044 -265.404869946905 -9.2500000000288
    vertex -640.460998735044 -265.404869946905 -9.25000000002846
  endloop
endfacet
facet normal 2.20839305458944e-13 -1.0 1.43159122879028e-13
  outer loop
    vertex -642.660998735044 -265.404869946905 -9.2500000000288
    vertex -640.460998735045 -265.404869946904 -3.00000000002846
    vertex -642.660998735045 -265.404869946904 -3.00000000002881
  endloop
endfacet
facet normal -2.20839305458944e-13 1.0 -1.43159122879028e-13
  outer loop
    vertex -642.660998735049 -242.404869946905 -9.25000000003211
    vertex -640.46099873505 -242.404869946904 -3.00000000003176
    vertex -640.460998735049 -242.404869946905 -9.25000000003176
  endloop
endfacet
facet normal -2.20839305458944e-13 1.0 -1.43159122879028e-13
  outer loop
    vertex -640.46099873505 -242.404869946904 -3.00000000003176
    vertex -642.660998735049 -242.404869946905 -9.25000000003211
    vertex -642.66099873505 -242.404869946904 -3.00000000003211
  endloop
endfacet
facet normal -1.0 -2.20839305458967e-13 -1.62152943567184e-13
  outer loop
    vertex -642.660998735044 -265.404869946905 -9.2500000000288
    vertex -642.66099873505 -242.404869946904 -3.00000000003211
    vertex -642.660998735049 -242.404869946905 -9.25000000003211
  endloop
endfacet
facet normal -1.0 -2.20839305458967e-13 -1.62152943567184e-13
  outer loop
    vertex -642.66099873505 -242.404869946904 -3.00000000003211
    vertex -642.660998735044 -265.404869946905 -9.2500000000288
    vertex -642.660998735045 -265.404869946904 -3.00000000002881
  endloop
endfacet
facet normal -2.20839305458944e-13 1.0 -1.43159122879028e-13
  outer loop
    vertex -652.960998735043 -266.904869946908 -9.25000000003025
    vertex -650.760998735044 -266.904869946906 -3.0000000000299
    vertex -650.760998735043 -266.904869946907 -9.2500000000299
  endloop
endfacet
facet normal -2.20839305458944e-13 1.0 -1.43159122879028e-13
  outer loop
    vertex -650.760998735044 -266.904869946906 -3.0000000000299
    vertex -652.960998735043 -266.904869946908 -9.25000000003025
    vertex -652.960998735044 -266.904869946907 -3.00000000003025
  endloop
endfacet
facet normal 1.0 2.20839305458967e-13 1.62152943567184e-13
  outer loop
    vertex -650.760998735051 -237.904869946906 -3.00000000003406
    vertex -650.760998735049 -240.904869946907 -9.25000000003362
    vertex -650.76099873505 -237.904869946907 -9.25000000003408
  endloop
endfacet
facet normal 1.0 2.20839305458967e-13 1.62152943567184e-13
  outer loop
    vertex -650.760998735049 -240.904869946907 -9.25000000003362
    vertex -650.760998735051 -237.904869946906 -3.00000000003406
    vertex -650.76099873505 -240.904869946906 -3.00000000003363
  endloop
endfacet
facet normal 1.0 2.20839305458967e-13 1.62152943567184e-13
  outer loop
    vertex -650.760998735043 -266.904869946907 -9.2500000000299
    vertex -650.760998735044 -268.904869946906 -3.00000000002962
    vertex -650.760998735043 -268.904869946907 -9.25000000002963
  endloop
endfacet
facet normal 1.0 2.20839305458967e-13 1.62152943567184e-13
  outer loop
    vertex -650.760998735044 -268.904869946906 -3.00000000002962
    vertex -650.760998735043 -266.904869946907 -9.2500000000299
    vertex -650.760998735044 -266.904869946906 -3.0000000000299
  endloop
endfacet
facet normal -2.20839305458944e-13 1.0 -1.43159122879028e-13
  outer loop
    vertex -652.960998735006 -434.304869946908 -9.2500000000063
    vertex -650.760998735007 -434.304869946906 -3.00000000000595
    vertex -650.760998735007 -434.304869946907 -9.25000000000594
  endloop
endfacet
facet normal -2.20839305458944e-13 1.0 -1.43159122879028e-13
  outer loop
    vertex -650.760998735007 -434.304869946906 -3.00000000000595
    vertex -652.960998735006 -434.304869946908 -9.2500000000063
    vertex -652.960998735007 -434.304869946907 -3.00000000000631
  endloop
endfacet
facet normal 1.0 2.20839305458967e-13 1.62152943567184e-13
  outer loop
    vertex -652.960998735007 -432.804869946908 -9.25000000000513
    vertex -652.960998735007 -434.304869946907 -3.00000000000631
    vertex -652.960998735006 -434.304869946908 -9.2500000000063
  endloop
endfacet
facet normal 1.0 2.20839305458967e-13 1.62152943567184e-13
  outer loop
    vertex -652.960998735007 -434.304869946907 -3.00000000000631
    vertex -652.960998735007 -432.804869946908 -9.25000000000513
    vertex -652.960998735008 -432.804869946907 -3.0000000000065
  endloop
endfacet
endsolid Microscope-Sketchup
