solid Microscope-Sketchup
facet normal -1.14813006607242e-13 1.43159122878953e-13 1.0
  outer loop
    vertex -679.360999805992 -237.004869946916 -3.00000000003141
    vertex -678.460999805991 -237.904869946916 -3.00000000003122
    vertex -661.960999805992 -237.004869946905 -3.00000000002946
  endloop
endfacet
facet normal -1.14813006607242e-13 1.43159122878953e-13 1.0
  outer loop
    vertex -678.460999805991 -237.904869946916 -3.00000000003122
    vertex -679.360999805992 -237.004869946916 -3.00000000003141
    vertex -679.360999805857 -439.904869946916 -3.00000000000236
  endloop
endfacet
facet normal -1.14813006607242e-13 1.43159122878953e-13 1.0
  outer loop
    vertex -678.460999805991 -237.904869946916 -3.00000000003122
    vertex -679.360999805857 -439.904869946916 -3.00000000000236
    vertex -678.460999805858 -439.004869946916 -3.00000000000243
  endloop
endfacet
facet normal -1.14813006607242e-13 1.43159122878953e-13 1.0
  outer loop
    vertex -678.460999805858 -439.004869946916 -3.00000000000243
    vertex -679.360999805857 -439.904869946916 -3.00000000000236
    vertex -661.960999805857 -439.904869946905 -3.00000000000041
  endloop
endfacet
facet normal -1.14813006607242e-13 1.43159122878953e-13 1.0
  outer loop
    vertex -661.960999805992 -237.004869946905 -3.00000000002946
    vertex -662.860999805991 -237.904869946905 -3.00000000002939
    vertex -661.960999805857 -439.904869946905 -3.00000000000041
  endloop
endfacet
facet normal -1.14813006607242e-13 1.43159122878953e-13 1.0
  outer loop
    vertex -662.860999805991 -237.904869946905 -3.00000000002939
    vertex -661.960999805992 -237.004869946905 -3.00000000002946
    vertex -678.460999805991 -237.904869946916 -3.00000000003122
  endloop
endfacet
facet normal -1.14813006607242e-13 1.43159122878953e-13 1.0
  outer loop
    vertex -661.960999805857 -439.904869946905 -3.00000000000041
    vertex -662.860999805991 -237.904869946905 -3.00000000002939
    vertex -662.860999805858 -439.004869946905 -3.0000000000006
  endloop
endfacet
facet normal -1.14813006607242e-13 1.43159122878953e-13 1.0
  outer loop
    vertex -661.960999805857 -439.904869946905 -3.00000000000041
    vertex -662.860999805858 -439.004869946905 -3.0000000000006
    vertex -678.460999805858 -439.004869946916 -3.00000000000243
  endloop
endfacet
facet normal -6.61859456130289e-13 1.0 -1.43159122879029e-13
  outer loop
    vertex -678.460999805858 -439.004869946916 -3.00000000000243
    vertex -662.860999805857 -439.004869946906 -7.09999900000057
    vertex -678.460999805857 -439.004869946916 -7.09999900000245
  endloop
endfacet
facet normal -6.61859456130289e-13 1.0 -1.43159122879029e-13
  outer loop
    vertex -662.860999805857 -439.004869946906 -7.09999900000057
    vertex -678.460999805858 -439.004869946916 -3.00000000000243
    vertex -662.860999805858 -439.004869946905 -3.0000000000006
  endloop
endfacet
facet normal -1.0 -6.61859456130306e-13 -1.14813006607147e-13
  outer loop
    vertex -679.360999805857 -439.904869946916 -3.00000000000236
    vertex -679.360999805991 -237.004869946917 -7.9999997770724
    vertex -679.360999805857 -439.904869946917 -7.99999977704335
  endloop
endfacet
facet normal -1.0 -6.61859456130306e-13 -1.14813006607147e-13
  outer loop
    vertex -679.360999805991 -237.004869946917 -7.9999997770724
    vertex -679.360999805857 -439.904869946916 -3.00000000000236
    vertex -679.360999805992 -237.004869946916 -3.00000000003141
  endloop
endfacet
facet normal 1.0 6.61859456130306e-13 1.14813006607147e-13
  outer loop
    vertex -661.960999805992 -237.004869946905 -3.00000000002946
    vertex -661.960999805857 -439.904869946905 -7.99999932534643
    vertex -661.960999805991 -237.004869946905 -7.99999932537548
  endloop
endfacet
facet normal 1.0 6.61859456130306e-13 1.14813006607147e-13
  outer loop
    vertex -661.960999805857 -439.904869946905 -7.99999932534643
    vertex -661.960999805992 -237.004869946905 -3.00000000002946
    vertex -661.960999805857 -439.904869946905 -3.00000000000041
  endloop
endfacet
facet normal 6.67312258821219e-13 -1.0 1.43159122881448e-13
  outer loop
    vertex -679.360999805857 -439.904869946917 -7.99999977704335
    vertex -661.960999805857 -439.904869946905 -3.00000000000041
    vertex -679.360999805857 -439.904869946916 -3.00000000000236
  endloop
endfacet
facet normal 6.67312258821219e-13 -1.0 1.43159122881448e-13
  outer loop
    vertex -661.960999805857 -439.904869946905 -3.00000000000041
    vertex -679.360999805857 -439.904869946917 -7.99999977704335
    vertex -661.960999805857 -439.904869946905 -7.99999932534643
  endloop
endfacet
facet normal -6.61859456130289e-13 1.0 -1.43159122879029e-13
  outer loop
    vertex -661.960999805992 -237.004869946905 -3.00000000002946
    vertex -679.360999805991 -237.004869946917 -7.9999997770724
    vertex -679.360999805992 -237.004869946916 -3.00000000003141
  endloop
endfacet
facet normal -6.61859456130289e-13 1.0 -1.43159122879029e-13
  outer loop
    vertex -679.360999805991 -237.004869946917 -7.9999997770724
    vertex -661.960999805992 -237.004869946905 -3.00000000002946
    vertex -661.960999805991 -237.004869946905 -7.99999932537548
  endloop
endfacet
facet normal 2.68183082435683e-08 -1.43159105129109e-13 -1.0
  outer loop
    vertex -661.960999805991 -237.004869946905 -7.99999932537548
    vertex -679.360999805857 -439.904869946917 -7.99999977704335
    vertex -679.360999805991 -237.004869946917 -7.9999997770724
  endloop
endfacet
facet normal 2.68183082435683e-08 -1.43159105129109e-13 -1.0
  outer loop
    vertex -679.360999805857 -439.904869946917 -7.99999977704335
    vertex -661.960999805991 -237.004869946905 -7.99999932537548
    vertex -661.960999805857 -439.904869946905 -7.99999932534643
  endloop
endfacet
facet normal 1.0 6.61859456130306e-13 1.14813006607147e-13
  outer loop
    vertex -678.460999805991 -237.904869946916 -3.00000000003122
    vertex -678.460999805857 -439.004869946916 -7.09999900000245
    vertex -678.460999805991 -237.904869946916 -7.09999900003124
  endloop
endfacet
facet normal 1.0 6.61859456130306e-13 1.14813006607147e-13
  outer loop
    vertex -678.460999805857 -439.004869946916 -7.09999900000245
    vertex -678.460999805991 -237.904869946916 -3.00000000003122
    vertex -678.460999805858 -439.004869946916 -3.00000000000243
  endloop
endfacet
facet normal -1.14813006607242e-13 1.43159122878953e-13 1.0
  outer loop
    vertex -678.460999805857 -439.004869946916 -7.09999900000245
    vertex -662.860999805991 -237.904869946906 -7.09999900002936
    vertex -678.460999805991 -237.904869946916 -7.09999900003124
  endloop
endfacet
facet normal -1.14813006607242e-13 1.43159122878953e-13 1.0
  outer loop
    vertex -662.860999805991 -237.904869946906 -7.09999900002936
    vertex -678.460999805857 -439.004869946916 -7.09999900000245
    vertex -662.860999805857 -439.004869946906 -7.09999900000057
  endloop
endfacet
facet normal -1.0 -6.61859456130306e-13 -1.14813006607147e-13
  outer loop
    vertex -662.860999805858 -439.004869946905 -3.0000000000006
    vertex -662.860999805991 -237.904869946906 -7.09999900002936
    vertex -662.860999805857 -439.004869946906 -7.09999900000057
  endloop
endfacet
facet normal -1.0 -6.61859456130306e-13 -1.14813006607147e-13
  outer loop
    vertex -662.860999805991 -237.904869946906 -7.09999900002936
    vertex -662.860999805858 -439.004869946905 -3.0000000000006
    vertex -662.860999805991 -237.904869946905 -3.00000000002939
  endloop
endfacet
facet normal 6.61859456130289e-13 -1.0 1.43159122879029e-13
  outer loop
    vertex -662.860999805991 -237.904869946906 -7.09999900002936
    vertex -678.460999805991 -237.904869946916 -3.00000000003122
    vertex -678.460999805991 -237.904869946916 -7.09999900003124
  endloop
endfacet
facet normal 6.61859456130289e-13 -1.0 1.43159122879029e-13
  outer loop
    vertex -678.460999805991 -237.904869946916 -3.00000000003122
    vertex -662.860999805991 -237.904869946906 -7.09999900002936
    vertex -662.860999805991 -237.904869946905 -3.00000000002939
  endloop
endfacet
endsolid Microscope-Sketchup
