<?xml version="1.0" encoding="UTF-8" standalone="no"?>
<!-- Created with Inkscape (http://www.inkscape.org/) -->

<svg
   width="213"
   height="80"
   viewBox="0 0 56.356249 21.166667"
   version="1.1"
   id="svg8"
   inkscape:version="1.1.1 (3bf5ae0d25, 2021-09-20)"
   sodipodi:docname="logo.svg"
   inkscape:export-filename="C:\Users\Rares\Desktop\bitmap.png"
   inkscape:export-xdpi="388.92651"
   inkscape:export-ydpi="388.92651"
   xmlns:inkscape="http://www.inkscape.org/namespaces/inkscape"
   xmlns:sodipodi="http://sodipodi.sourceforge.net/DTD/sodipodi-0.dtd"
   xmlns="http://www.w3.org/2000/svg"
   xmlns:svg="http://www.w3.org/2000/svg"
   xmlns:rdf="http://www.w3.org/1999/02/22-rdf-syntax-ns#"
   xmlns:cc="http://creativecommons.org/ns#"
   xmlns:dc="http://purl.org/dc/elements/1.1/">
  <defs
     id="defs2" />
  <sodipodi:namedview
     id="base"
     pagecolor="#ffffff"
     bordercolor="#666666"
     borderopacity="1.0"
     inkscape:pageopacity="0.0"
     inkscape:pageshadow="2"
     inkscape:zoom="0.9899495"
     inkscape:cx="-2.5253813"
     inkscape:cy="121.72338"
     inkscape:document-units="px"
     inkscape:current-layer="layer1"
     showgrid="false"
     units="px"
     inkscape:window-width="1920"
     inkscape:window-height="1137"
     inkscape:window-x="-8"
     inkscape:window-y="-8"
     inkscape:window-maximized="1"
     inkscape:pagecheckerboard="0" />
  <metadata
     id="metadata5">
    <rdf:RDF>
      <cc:Work
         rdf:about="">
        <dc:format>image/svg+xml</dc:format>
        <dc:type
           rdf:resource="http://purl.org/dc/dcmitype/StillImage" />
      </cc:Work>
    </rdf:RDF>
  </metadata>
  <g
     inkscape:label="Layer 1"
     inkscape:groupmode="layer"
     id="layer1"
     transform="translate(0,-275.83332)">
    <g
       id="g24"
       transform="matrix(0.07060046,0,0,-0.07060046,-1.6929715,307.43002)">
      <path
         d="m 120.5331,259.8446 h 93.8486 c 0,0 93.8489,-0.9428 93.8489,93.378 v 94.3198 h -93.8489 c 0,0 -93.8486,-0.1849 -93.8486,-93.8481 z M 58.1525,212.493 c 0.3642,-0.091 0.7514,-0.1367 1.1613,-0.1367 0.4099,0 0.7971,0 1.1614,0 2.2771,-0.0909 4.5312,-0.4552 6.7629,-1.093 2.2314,-0.6375 4.3492,-1.5483 6.353,-2.7323 1.184,-0.4555 2.2771,-1.0247 3.2788,-1.7079 1.0021,-0.6831 1.9585,-1.48 2.8692,-2.391 2.3681,-2.1858 4.2809,-4.7135 5.7382,-7.5824 1.4573,-2.8692 2.3681,-5.8978 2.7326,-9.0856 V 148.8263 H 77.0066 v 36.2052 c -0.091,1.2753 -0.3416,2.596 -0.7515,3.9623 -0.4099,1.3663 -0.9791,2.6413 -1.7076,3.8253 -1.3663,2.3684 -3.1881,4.3265 -5.4652,5.8748 -2.2771,1.5486 -4.7818,2.5504 -7.5141,3.0059 -0.6378,0.1822 -1.3436,0.2959 -2.1177,0.3416 -0.7742,0.0453 -1.5256,0.0683 -2.2544,0.0683 -0.2733,0 -0.5692,0 -0.8881,0 -0.3186,0 -0.6146,-0.0457 -0.8878,-0.1367 -0.2733,0 -0.5695,-0.0226 -0.8881,-0.0683 -0.3189,-0.0456 -0.6149,-0.0683 -0.8881,-0.0683 -2.8236,-0.091 -5.4649,-0.7971 -7.9243,-2.1178 -2.4593,-1.3206 -4.4631,-3.1651 -6.0114,-5.5332 -1.184,-1.9128 -2.0948,-3.962 -2.7326,-6.148 -0.6375,-2.1861 -0.9561,-4.4632 -0.9561,-6.8313 0,-0.2732 0,-0.5692 0,-0.8881 0,-0.3186 0,-0.6601 0,-1.0247 0,-0.3642 0.0226,-0.7058 0.0683,-1.0247 0.0453,-0.3186 0.1136,-0.6146 0.2049,-0.8878 0.091,-1.3663 0.3186,-2.7099 0.6829,-4.0306 0.3645,-1.3207 0.8654,-2.6186 1.5029,-3.8937 0.6375,-1.184 1.3663,-2.2997 2.1861,-3.3474 0.8198,-1.0474 1.6849,-2.0265 2.5957,-2.9373 1.002,-0.9107 2.0951,-1.6852 3.2791,-2.3227 1.184,-0.6375 2.4137,-1.1384 3.6887,-1.5029 1.0021,-0.3642 2.0495,-0.6375 3.1425,-0.8195 1.093,-0.1823 2.1861,-0.2733 3.2788,-0.2733 0.1823,0 0.3416,0 0.4782,0 0.1367,0 0.2506,0.0454 0.3416,0.1367 0.1823,0 0.3416,0 0.4782,0 0.1367,0 0.2506,0 0.3416,0 1.2753,0.091 2.482,0.3186 3.6207,0.6828 1.1384,0.3646 2.2541,0.8655 3.3471,1.503 1.1841,0.7288 2.2998,1.5712 3.3475,2.5276 1.0474,0.9564 1.9355,1.9812 2.664,3.0739 v -13.1159 c -2.0948,-1.5483 -4.3719,-2.7323 -6.8312,-3.5521 -2.4591,-0.8198 -5.0094,-1.3206 -7.651,-1.5029 -0.5465,-0.091 -1.0701,-0.1366 -1.571,-0.1366 -0.5012,0 -1.0247,0 -1.5712,0 -1.0931,0.091 -2.1631,0.2049 -3.2108,0.3415 -1.0474,0.1367 -2.0722,0.3416 -3.0739,0.6149 -1.7306,0.3642 -3.3928,0.9564 -4.9867,1.7762 -1.5942,0.8197 -3.1198,1.7759 -4.5771,2.8689 -1.2751,1.002 -2.5047,2.0721 -3.6888,3.2108 -1.184,1.1384 -2.277,2.3454 -3.2791,3.6204 -1.0017,1.3663 -1.9125,2.8009 -2.7323,4.3039 -0.8198,1.5026 -1.5029,3.0282 -2.0494,4.5768 -0.5466,1.8215 -0.9565,3.666 -1.2297,5.5332 -0.2733,1.8672 -0.4099,3.757 -0.4099,5.6699 0,1.7305 0.1366,3.4384 0.4099,5.1233 0.2732,1.6852 0.6378,3.3474 1.093,4.987 0.5465,1.7305 1.2297,3.3928 2.0495,4.9867 0.8198,1.5939 1.7305,3.1195 2.7323,4.5768 1.002,1.2753 2.0721,2.4594 3.2108,3.5524 1.1384,1.0928 2.3454,2.0948 3.6204,3.0056 1.2753,1.002 2.6643,1.8672 4.1672,2.5959 1.5027,0.7285 3.0286,1.2751 4.5768,1.6393 1.9129,0.5465 3.871,0.9564 5.8748,1.2297 2.0039,0.2732 4.0077,0.3645 6.0115,0.2732 z m 732.9172,0.1366 c 1.5483,0 3.1195,-0.1366 4.7134,-0.4099 1.5939,-0.2732 3.1195,-0.6831 4.5771,-1.2297 2.2771,-0.8194 4.4402,-1.8671 6.4897,-3.1422 2.0491,-1.2753 3.9393,-2.7779 5.6698,-4.5085 1.7306,-1.7305 3.2562,-3.6433 4.5768,-5.7381 1.3207,-2.0951 2.3454,-4.3266 3.0742,-6.6946 0.7285,-2.2771 1.2067,-4.6454 1.4343,-7.1045 0.2279,-2.4593 0.2506,-4.9187 0.0684,-7.3777 -0.182,-2.3684 -0.6832,-4.6908 -1.5027,-6.9679 -0.8198,-2.277 -1.8675,-4.4631 -3.1425,-6.5579 -1.275,-2.0951 -2.7779,-4.0306 -4.5085,-5.8065 -1.7305,-1.7762 -3.6434,-3.3474 -5.7382,-4.7137 -2.0038,-1.1841 -4.1672,-2.1405 -6.4896,-2.869 -2.3227,-0.7288 -4.6681,-1.184 -7.0362,-1.3663 -0.4555,-0.091 -0.888,-0.1593 -1.2979,-0.2049 -0.4099,-0.0457 -0.8425,-0.0683 -1.298,-0.0683 -0.4555,-0.091 -0.8881,-0.1367 -1.298,-0.1367 -0.4099,0 -0.8425,0 -1.298,0 -1.5483,0 -3.0739,0.091 -4.5768,0.2733 -1.5029,0.1823 -3.0285,0.4555 -4.5768,0.8198 -2.2771,0.7288 -4.4859,1.7078 -6.6263,2.9375 -2.1404,1.2294 -4.1216,2.6184 -5.9431,4.1669 -1.7306,1.7306 -3.3018,3.6204 -4.7135,5.6699 -1.4119,2.0494 -2.5733,4.2126 -3.484,6.4896 -0.6375,1.8216 -1.1384,3.6434 -1.503,5.4649 -0.3642,1.8219 -0.5465,3.6891 -0.5465,5.6016 0,0.2733 0,0.5465 0,0.8198 0,0.2732 0,0.5465 0,0.8198 0,0.1822 0.023,0.4098 0.0683,0.6831 0.0457,0.2733 0.0684,0.5465 0.0684,0.8198 0.1822,2.459 0.6604,4.8727 1.4346,7.2411 0.7741,2.368 1.7535,4.5995 2.9375,6.6946 1.275,2.0948 2.7097,4.0303 4.3036,5.8065 1.5939,1.7761 3.3928,3.3927 5.3966,4.85 2.0951,1.3663 4.2809,2.482 6.5579,3.3475 2.2771,0.8651 4.5998,1.4799 6.9679,1.8442 1.184,0.1823 2.391,0.3189 3.6207,0.4099 1.2293,0.0913 2.4363,0.0913 3.6204,0 z m 1.6395,-11.0665 c -0.3645,0 -0.7058,0.0227 -1.0247,0.0684 -0.3189,0.0456 -0.6148,0.0683 -0.8881,0.0683 -0.3642,0.091 -0.7058,0.1366 -1.0247,0.1366 -0.3186,0 -0.6602,0 -1.0247,0 -0.4553,0 -0.9108,-0.0227 -1.3661,-0.0683 -0.4555,-0.0456 -0.911,-0.0683 -1.3663,-0.0683 -0.4555,-0.091 -0.9107,-0.1823 -1.3663,-0.2733 -0.4555,-0.091 -0.9107,-0.2276 -1.3663,-0.4099 -1.8215,-0.4555 -3.5067,-1.1613 -5.055,-2.1177 -1.5483,-0.9564 -2.9602,-2.1632 -4.2352,-3.6204 -1.0931,-1.1841 -2.0495,-2.4137 -2.8692,-3.6891 -0.8198,-1.275 -1.503,-2.6866 -2.0495,-4.2352 -0.3642,-1.5483 -0.6375,-3.1422 -0.8195,-4.7818 -0.1823,-1.6395 -0.2279,-3.2791 -0.1366,-4.9184 0.091,-1.5485 0.3642,-3.0968 0.8195,-4.6454 0.4555,-1.5483 1.0477,-3.0055 1.7762,-4.3718 0.7287,-1.4573 1.6395,-2.7553 2.7326,-3.8937 1.093,-1.1387 2.277,-2.2088 3.5521,-3.2108 1.3663,-0.9108 2.8009,-1.6623 4.3035,-2.2544 1.5029,-0.5919 3.0285,-0.9791 4.5771,-1.1611 0.5465,-0.0913 1.0931,-0.1596 1.6396,-0.2049 0.5462,-0.0457 1.0474,-0.0683 1.5026,-0.0683 1.0931,0 2.1861,0.091 3.2791,0.2732 1.0931,0.182 2.1405,0.4553 3.1422,0.8195 1.5486,0.4555 2.9832,1.0931 4.3039,1.9128 1.3206,0.8198 2.573,1.8219 3.757,3.0059 1.1841,1.0018 2.2315,2.1858 3.1425,3.5521 0.9108,1.3663 1.6393,2.7779 2.1858,4.2352 0.4555,1.0931 0.7742,2.1861 0.9564,3.2791 0.1823,1.0931 0.2733,2.2315 0.2733,3.4155 0,0.4555 0,0.9337 0,1.4346 0,0.5012 -0.0457,0.9791 -0.1367,1.4346 0.091,1.6396 -0.0456,3.2335 -0.4098,4.7818 -0.3643,1.5486 -0.9108,3.0512 -1.6396,4.5088 -0.7285,1.5483 -1.6393,2.9373 -2.7323,4.1669 -1.0931,1.2297 -2.2771,2.2998 -3.5524,3.2105 -1.275,1.0021 -2.664,1.7992 -4.1669,2.3911 -1.503,0.5921 -3.0742,0.9791 -4.7135,1.1613 z M 133.9843,212.493 h 15.0285 v -11.3397 h -11.8862 -3.8254 c -1.3663,-0.4556 -2.687,-0.9564 -3.9623,-1.503 -1.275,-0.5465 -2.5047,-1.184 -3.6887,-1.9128 -1.184,-0.8195 -2.2544,-1.7076 -3.2108,-2.664 -0.9561,-0.9564 -1.7989,-2.0265 -2.5274,-3.2108 -0.6375,-1.0018 -1.207,-2.0721 -1.7078,-3.2105 -0.5009,-1.1387 -0.8881,-2.3454 -1.1614,-3.6207 -0.091,-0.8195 -0.182,-1.6393 -0.2733,-2.4591 -0.0909,-0.8197 -0.1366,-1.6395 -0.1366,-2.4593 0,-0.4552 0,-0.8881 0,-1.298 0,-0.4099 0.0457,-0.8424 0.1366,-1.2977 0.1823,-1.3663 0.5012,-2.6869 0.9565,-3.9623 0.4555,-1.275 1.002,-2.5046 1.6395,-3.6887 0.6375,-1.002 1.3207,-1.9584 2.0495,-2.8692 0.7285,-0.9108 1.5482,-1.7306 2.459,-2.4591 1.0021,-0.911 2.0721,-1.7078 3.2108,-2.391 1.1384,-0.6831 2.2998,-1.2523 3.4838,-1.7079 2.0951,-0.5465 4.1899,-0.9564 6.2847,-1.2296 2.0951,-0.2733 4.1899,-0.3643 6.2847,-0.2733 0.9108,-0.091 1.8445,-0.1137 2.8009,-0.0683 0.9564,0.0456 1.8899,0.114 2.8006,0.2049 v -10.2466 h -11.2031 l -6.6945,0.2732 c -2.0039,0.3643 -3.9393,0.9108 -5.8065,1.6396 -1.8672,0.7285 -3.6661,1.5939 -5.3966,2.5957 -1.3663,0.8198 -2.6643,1.7762 -3.894,2.8692 -1.2294,1.093 -2.3907,2.2314 -3.4838,3.4155 -0.9107,1.093 -1.7761,2.2544 -2.5959,3.484 -0.8195,1.2297 -1.5483,2.482 -2.1858,3.7571 -0.4556,1.002 -0.8654,2.0267 -1.2297,3.0741 -0.3642,1.0474 -0.6831,2.1175 -0.9564,3.2106 -0.091,0.5465 -0.1823,1.0703 -0.2733,1.5712 -0.091,0.5009 -0.1822,1.0247 -0.2732,1.5712 -0.091,1.8216 -0.091,3.5978 0,5.3283 0.091,1.7306 0.3189,3.4611 0.6831,5.1917 0.2733,1.5486 0.6832,3.0285 1.2297,4.4402 0.5465,1.4119 1.184,2.8009 1.9128,4.1672 1.0018,1.7305 2.1405,3.3701 3.4155,4.9184 1.275,1.5485 2.6413,3.0058 4.0986,4.3719 1.002,0.911 2.0268,1.7535 3.0742,2.5276 1.0474,0.7741 2.1631,1.48 3.3471,2.1178 1.8218,0.8198 3.689,1.5026 5.6018,2.0491 1.9126,0.5466 3.871,0.8655 5.8748,0.9564 z m 34.5714,-0.4099 h 12.0229 V 148.553 h -12.0229 z m 5.4649,21.5867 c 1.184,0 2.2771,-0.2506 3.2791,-0.7515 1.0018,-0.5009 1.8216,-1.2067 2.4591,-2.1178 0.2732,-0.3642 0.5238,-0.7741 0.7514,-1.2294 0.2279,-0.4555 0.4326,-0.911 0.6149,-1.3662 0,-0.1823 0.0226,-0.3416 0.0683,-0.4783 0.0456,-0.1366 0.0683,-0.2959 0.0683,-0.4782 0,-0.091 0.0227,-0.2049 0.0683,-0.3415 0.0457,-0.1367 0.0683,-0.2506 0.0683,-0.3416 0,-0.1823 0,-0.3189 0,-0.4099 0,-0.091 0,-0.2276 0,-0.4099 0,-0.2732 -0.0226,-0.5235 -0.0683,-0.7515 -0.0456,-0.2276 -0.0683,-0.4325 -0.0683,-0.6148 -0.091,-0.182 -0.1823,-0.3869 -0.2733,-0.6148 -0.091,-0.2276 -0.1822,-0.4779 -0.2732,-0.7512 -0.3643,-0.5465 -0.7515,-1.0477 -1.1614,-1.5029 -0.4099,-0.4556 -0.8881,-0.8654 -1.4343,-1.2297 -0.7288,-0.2733 -1.5029,-0.4782 -2.3227,-0.6148 -0.8198,-0.1367 -1.6396,-0.205 -2.4594,-0.205 -0.6375,0.091 -1.2523,0.2733 -1.8442,0.5465 -0.5921,0.2733 -1.1613,0.5922 -1.7078,0.9564 -0.5466,0.4556 -1.0248,0.9791 -1.4347,1.5713 -0.4098,0.5919 -0.7514,1.2067 -1.0247,1.8442 0,0.0913 0,0.205 0,0.3416 0,0.1366 0,0.2506 0,0.3416 -0.091,0.0912 -0.1366,0.2049 -0.1366,0.3415 0,0.1367 0,0.2506 0,0.3416 0.0913,1.2753 0.3645,2.4594 0.8198,3.5524 0.4555,1.0927 1.1386,2.0948 2.0494,3.0056 0.4553,0.2732 0.9335,0.5238 1.4346,0.7514 0.5009,0.2277 0.9791,0.3416 1.4344,0.3416 0.1822,0.091 0.3645,0.1366 0.5465,0.1366 0.1822,0 0.3645,0 0.5465,0 z m 79.9305,7.1044 h 11.7499 v -61.7541 c -0.0913,-2.7324 -0.5012,-5.351 -1.2297,-7.8557 -0.7288,-2.505 -1.7305,-4.9413 -3.0059,-7.3094 -0.8197,-1.8218 -1.8445,-3.5294 -3.0738,-5.1236 -1.2297,-1.594 -2.6187,-3.0283 -4.1673,-4.3036 -1.5482,-1.184 -3.2105,-2.2314 -4.9867,-3.1422 -1.7762,-0.911 -3.6204,-1.6852 -5.5332,-2.3227 -0.9108,-0.091 -1.8898,-0.2506 -2.9375,-0.4782 -1.0474,-0.2276 -2.0722,-0.3872 -3.0739,-0.4782 -0.4556,0 -0.9338,-0.0227 -1.4346,-0.0683 -0.5009,-0.0457 -1.0248,-0.0683 -1.5713,-0.0683 -0.2732,0 -0.5235,0 -0.7514,0 -0.2277,0 -0.4326,0 -0.6149,0 -0.182,0 -0.3869,0.0226 -0.6145,0.0683 -0.2279,0.0456 -0.4782,0.0683 -0.7515,0.0683 -2.0038,0 -3.9849,0.1823 -5.9431,0.5465 -1.9585,0.3643 -3.8483,0.9108 -5.6702,1.6396 -1.7305,0.9107 -3.3927,1.9808 -4.9867,3.2105 -1.5939,1.2297 -3.0285,2.5733 -4.3035,4.0306 -1.3663,1.4573 -2.6187,3.0285 -3.7573,4.7134 -1.1384,1.6849 -2.1175,3.4384 -2.9373,5.26 -0.7288,1.8218 -1.3207,3.689 -1.7762,5.6015 -0.4552,1.9128 -0.7285,3.871 -0.8198,5.8748 -0.091,4.0077 0.4556,7.9243 1.6396,11.7499 1.184,3.8254 2.9146,7.3321 5.1916,10.52 2.6416,3.0968 5.6929,5.6471 9.154,7.651 3.4611,2.0038 7.1498,3.3244 11.0664,3.9619 3.6434,0.1823 7.2184,-0.091 10.7252,-0.8197 3.5064,-0.7285 6.8539,-1.8672 10.0417,-3.4155 v -11.3397 c -1.3663,0.9107 -2.8009,1.7305 -4.3035,2.459 -1.503,0.7288 -3.0286,1.3663 -4.5771,1.9128 -1.2751,0.4553 -2.5731,0.7515 -3.8937,0.8881 -1.3207,0.1367 -2.6187,0.1594 -3.8937,0.0684 -1.2753,0 -2.5503,-0.1596 -3.8256,-0.4782 -1.275,-0.3189 -2.5047,-0.7515 -3.6887,-1.298 -2.5504,-0.9108 -4.8048,-2.3454 -6.7629,-4.3036 -1.9585,-1.9584 -3.3928,-4.2582 -4.3039,-6.8995 -0.5465,-1.2753 -0.9334,-2.596 -1.1611,-3.9623 -0.2279,-1.366 -0.3415,-2.7323 -0.3415,-4.0986 0,-1.3663 0.1366,-2.7096 0.4099,-4.0303 0.2732,-1.3209 0.6375,-2.6186 1.0927,-3.894 0.8198,-2.459 2.0038,-4.759 3.5524,-6.8995 1.5483,-2.1404 3.3701,-3.9846 5.4649,-5.5332 1.184,-0.6375 2.391,-1.1614 3.6204,-1.5713 1.2297,-0.4098 2.5277,-0.7058 3.894,-0.888 0.5465,-0.091 1.093,-0.1594 1.6395,-0.2047 0.5465,-0.0456 1.0928,-0.0683 1.6393,-0.0683 0.7288,0 1.4803,0.0453 2.2544,0.1366 0.7741,0.091 1.5256,0.182 2.2544,0.273 1.275,0.3645 2.5274,0.8198 3.757,1.3663 1.2297,0.5465 2.3454,1.2753 3.3475,2.1861 2.0948,1.4573 3.871,3.2561 5.3282,5.3966 1.4573,2.1404 2.4137,4.4858 2.869,7.0361 z m 60.6665,-28.2812 c 0.3643,-0.091 0.7515,-0.1367 1.1614,-0.1367 0.4099,0 0.7971,0 1.1613,0 2.2771,-0.0909 4.5312,-0.4552 6.7629,-1.093 2.2314,-0.6375 4.3492,-1.5483 6.353,-2.7323 1.1841,-0.4555 2.2771,-1.0247 3.2789,-1.7079 1.002,-0.6831 1.9584,-1.48 2.8692,-2.391 2.368,-2.1858 4.2809,-4.7135 5.7382,-7.5824 1.4572,-2.8692 2.368,-5.8978 2.7326,-9.0856 v -38.9378 h -11.2034 v 36.2052 c -0.091,1.2753 -0.3416,2.596 -0.7515,3.9623 -0.4099,1.3663 -0.9791,2.6413 -1.7076,3.8253 -1.3663,2.3684 -3.1881,4.3265 -5.4652,5.8748 -2.277,1.5486 -4.7817,2.5504 -7.514,3.0059 -0.6378,0.1822 -1.3437,0.2959 -2.1178,0.3416 -0.7742,0.0453 -1.5256,0.0683 -2.2544,0.0683 -0.2733,0 -0.5692,0 -0.8881,0 -0.3186,0 -0.6145,-0.0457 -0.8878,-0.1367 -0.2733,0 -0.5695,-0.0226 -0.8881,-0.0683 -0.3189,-0.0456 -0.6148,-0.0683 -0.8881,-0.0683 -2.8236,-0.091 -5.4649,-0.7971 -7.9242,-2.1178 -2.4594,-1.3206 -4.4632,-3.1651 -6.0115,-5.5332 -1.184,-1.9128 -2.0948,-3.962 -2.7326,-6.148 -0.6375,-2.1861 -0.9561,-4.4632 -0.9561,-6.8313 0,-0.2732 0,-0.5692 0,-0.8881 0,-0.3186 0,-0.6601 0,-1.0247 0,-0.3642 0.0227,-0.7058 0.0683,-1.0247 0.0454,-0.3186 0.1137,-0.6146 0.205,-0.8878 0.0909,-1.3663 0.3186,-2.7099 0.6828,-4.0306 0.3646,-1.3207 0.8654,-2.6186 1.5029,-3.8937 0.6376,-1.184 1.3663,-2.2997 2.1861,-3.3474 0.8198,-1.0474 1.6849,-2.0265 2.5957,-2.9373 1.0021,-0.9107 2.0951,-1.6852 3.2791,-2.3227 1.1841,-0.6375 2.4137,-1.1384 3.6888,-1.5029 1.002,-0.3642 2.0494,-0.6375 3.1424,-0.8195 1.0931,-0.1823 2.1861,-0.2733 3.2789,-0.2733 0.1822,0 0.3416,0 0.4782,0 0.1366,0 0.2506,0.0454 0.3416,0.1367 0.1822,0 0.3415,0 0.4782,0 0.1366,0 0.2505,0 0.3415,0 1.2753,0.091 2.4821,0.3186 3.6207,0.6828 1.1384,0.3646 2.2541,0.8655 3.3472,1.503 1.184,0.7288 2.2997,1.5712 3.3474,2.5276 1.0474,0.9564 1.9355,1.9812 2.664,3.0739 v -13.1159 c -2.0948,-1.5483 -4.3719,-2.7323 -6.8312,-3.5521 -2.4591,-0.8198 -5.0094,-1.3206 -7.651,-1.5029 -0.5465,-0.091 -1.0701,-0.1366 -1.571,-0.1366 -0.5011,0 -1.0247,0 -1.5712,0 -1.093,0.091 -2.1631,0.2049 -3.2108,0.3415 -1.0474,0.1367 -2.0721,0.3416 -3.0739,0.6149 -1.7305,0.3642 -3.3928,0.9564 -4.9867,1.7762 -1.5942,0.8197 -3.1198,1.7759 -4.5771,2.8689 -1.275,1.002 -2.5047,2.0721 -3.6887,3.2108 -1.1841,1.1384 -2.2771,2.3454 -3.2791,3.6204 -1.0018,1.3663 -1.9126,2.8009 -2.7324,4.3039 -0.8197,1.5026 -1.5029,3.0282 -2.0494,4.5768 -0.5465,1.8215 -0.9564,3.666 -1.2297,5.5332 -0.2732,1.8672 -0.4099,3.757 -0.4099,5.6699 0,1.7305 0.1367,3.4384 0.4099,5.1233 0.2733,1.6852 0.6378,3.3474 1.0931,4.987 0.5465,1.7305 1.2296,3.3928 2.0494,4.9867 0.8198,1.5939 1.7306,3.1195 2.7323,4.5768 1.0021,1.2753 2.0722,2.4594 3.2108,3.5524 1.1384,1.0928 2.3454,2.0948 3.6204,3.0056 1.2753,1.002 2.6643,1.8672 4.1673,2.5959 1.5026,0.7285 3.0285,1.2751 4.5768,1.6393 1.9128,0.5465 3.871,0.9564 5.8748,1.2297 2.0038,0.2732 4.0076,0.3645 6.0114,0.2732 z m 78.4276,0 v -10.1101 c -1.3663,0 -2.7323,-0.0683 -4.0986,-0.2049 -1.3663,-0.1366 -2.687,-0.3872 -3.9623,-0.7515 -1.184,-0.3642 -2.2998,-0.8424 -3.3472,-1.4346 -1.0474,-0.5919 -2.0721,-1.298 -3.0741,-2.1178 -0.9108,-0.9107 -1.7306,-1.8898 -2.4591,-2.9372 -0.7288,-1.0474 -1.3207,-2.2088 -1.7762,-3.4841 -0.3642,-1.4573 -0.6375,-2.8916 -0.8198,-4.3035 -0.1819,-1.4117 -0.2732,-2.8463 -0.2732,-4.3036 v -34.0194 h -11.613 v 63.2568 h 10.9298 v -7.7876 c 0.7288,0.911 1.5256,1.8218 2.3911,2.7326 0.8654,0.9107 1.8445,1.6849 2.9375,2.3227 1.0018,0.6375 2.0948,1.184 3.2788,1.6392 1.1841,0.4556 2.3681,0.7745 3.5524,0.9565 0.9108,0.1822 1.7989,0.3415 2.664,0.4782 0.8654,0.1366 1.7535,0.2049 2.6643,0.2049 0.2733,0 0.5235,0 0.7515,0 0.2276,0 0.4782,-0.0453 0.7511,-0.1366 0.2733,0 0.5239,-0.0227 0.7515,-0.0683 0.2279,-0.0454 0.4782,-0.0684 0.7515,-0.0684 z m 12.0285,15.9851 h 11.7496 v -16.395 h 23.226 v -10.52 h -22.9527 v -35.9322 c 0,-0.2733 0.0226,-0.4782 0.0683,-0.6146 0.0456,-0.1366 0.0683,-0.2962 0.0683,-0.4782 0.1823,-0.7287 0.4326,-1.4119 0.7515,-2.0494 0.3186,-0.6375 0.7514,-1.184 1.2979,-1.6396 0.7285,-0.5465 1.571,-0.9564 2.5274,-1.2296 0.9564,-0.2733 1.8902,-0.4553 2.8009,-0.5466 l 15.1651,0.1367 v -10.3833 h -18.9907 c -1.184,0.091 -2.3681,0.3189 -3.5521,0.6831 -1.184,0.3643 -2.2771,0.8652 -3.2791,1.5029 -1.1841,0.6376 -2.2998,1.4117 -3.3472,2.3225 -1.0474,0.911 -1.9355,1.9584 -2.6643,3.1425 -0.6375,1.0017 -1.161,2.0264 -1.5709,3.0738 -0.4099,1.0477 -0.7061,2.1178 -0.8881,3.2109 -0.0913,0.5465 -0.1596,1.07 -0.205,1.5712 -0.0456,0.5009 -0.0683,0.9791 -0.0683,1.4343 -0.0912,0.4556 -0.1366,0.9338 -0.1366,1.4346 0,0.5009 0,1.0248 0,1.5713 z m 61.6229,-16.395 h 33.0631 v -10.52 h -32.5166 c -0.6375,-0.0909 -1.2753,-0.2505 -1.9128,-0.4782 -0.6375,-0.2276 -1.2296,-0.5692 -1.7762,-1.0247 -0.3642,-0.3642 -0.6831,-0.8424 -0.9564,-1.4346 -0.2729,-0.5919 -0.4552,-1.2067 -0.5462,-1.8442 0,-0.0913 -0.023,-0.1823 -0.0683,-0.2733 -0.0457,-0.0912 -0.0683,-0.1366 -0.0683,-0.1366 0,-0.0913 0,-0.1823 0,-0.2733 0,-0.0912 0,-0.1822 0,-0.2732 0,-0.1823 0.0226,-0.3643 0.0683,-0.5465 0.0453,-0.1823 0.0683,-0.3643 0.0683,-0.5466 0.091,-0.2732 0.182,-0.5008 0.2733,-0.6831 0.0909,-0.1823 0.1819,-0.3643 0.2729,-0.5465 0.1823,-0.3643 0.4782,-0.7285 0.8881,-1.0931 0.4099,-0.3642 0.7971,-0.6375 1.1614,-0.8198 l 28.5545,-10.5199 c 2.2771,-1.0018 4.2126,-2.4364 5.8065,-4.3035 1.5939,-1.8672 2.664,-3.985 3.2105,-6.3531 0.1823,-0.8197 0.3189,-1.6395 0.4099,-2.4593 0.0913,-0.8198 0.1366,-1.6396 0.1366,-2.4593 0,-0.3643 0,-0.7512 0,-1.1611 0,-0.4099 -0.0453,-0.8427 -0.1366,-1.298 -0.4552,-2.4593 -1.389,-4.7134 -2.8006,-6.7629 -1.412,-2.0494 -3.1652,-3.7117 -5.26,-4.9867 -1.4576,-0.8198 -2.9832,-1.4346 -4.5771,-1.8445 -1.5939,-0.4099 -3.2105,-0.6148 -4.8501,-0.6148 h -35.1125 v 10.3833 h 35.3858 c 1.093,0.2732 2.0721,0.8198 2.9375,1.6395 0.8652,0.8198 1.48,1.8219 1.8442,3.0059 0.0913,0.182 0.1367,0.4099 0.1367,0.6831 0,0.2733 0,0.5466 0,0.8195 0,0.4556 -0.0454,0.9111 -0.1367,1.3663 -0.0909,0.4556 -0.2276,0.9108 -0.4098,1.3663 -0.3643,0.7288 -0.8881,1.3663 -1.571,1.9129 -0.6832,0.5465 -1.4346,0.9564 -2.2544,1.2296 l -26.7783,10.1101 c -1.1841,0.3642 -2.2771,0.9107 -3.2789,1.6395 -1.002,0.7285 -1.9128,1.594 -2.7326,2.5957 -1.093,1.4573 -1.9128,3.0515 -2.4593,4.7821 -0.5465,1.7305 -0.8198,3.4611 -0.8198,5.1916 0,0.3643 0,0.7058 0,1.0247 0,0.3187 0.0457,0.6602 0.1366,1.0248 0.3646,2.368 1.1844,4.5538 2.4594,6.5576 1.2753,2.0041 2.9146,3.6434 4.9184,4.9187 1.4573,0.8198 2.9602,1.48 4.5088,1.9809 1.5482,0.5011 3.1422,0.7971 4.7817,0.8881 z m 51.9228,16.395 h 11.7496 v -16.395 h 23.226 v -10.52 h -22.9527 v -35.9322 c 0,-0.2733 0.0226,-0.4782 0.0683,-0.6146 0.0456,-0.1366 0.0683,-0.2962 0.0683,-0.4782 0.1823,-0.7287 0.4326,-1.4119 0.7515,-2.0494 0.3186,-0.6375 0.7514,-1.184 1.2979,-1.6396 0.7286,-0.5465 1.571,-0.9564 2.5274,-1.2296 0.9564,-0.2733 1.8902,-0.4553 2.8009,-0.5466 l 15.1651,0.1367 V 148.8263 H 534.331 c -1.184,0.091 -2.3681,0.3189 -3.5521,0.6831 -1.184,0.3643 -2.2771,0.8652 -3.2791,1.5029 -1.1841,0.6376 -2.2998,1.4117 -3.3472,2.3225 -1.0474,0.911 -1.9355,1.9584 -2.6643,3.1425 -0.6375,1.0017 -1.161,2.0264 -1.5709,3.0738 -0.4099,1.0477 -0.7061,2.1178 -0.8881,3.2109 -0.0913,0.5465 -0.1596,1.07 -0.205,1.5712 -0.0456,0.5009 -0.0683,0.9791 -0.0683,1.4343 -0.0912,0.4556 -0.1366,0.9338 -0.1366,1.4346 0,0.5009 0,1.0248 0,1.5713 z m 47.414,-16.395 h 11.613 v -37.9814 c 0,-1.3663 0.1366,-2.687 0.4099,-3.962 0.2732,-1.2753 0.6831,-2.5503 1.2296,-3.8257 0.6375,-1.184 1.389,-2.277 2.2544,-3.2788 0.8651,-1.002 1.8442,-1.8672 2.9373,-2.596 0.9107,-0.4552 1.8445,-0.8197 2.8009,-1.093 0.9564,-0.2733 1.8898,-0.4099 2.8006,-0.4099 0.5465,-0.091 1.0931,-0.182 1.6396,-0.2732 0.5465,-0.091 1.093,-0.1364 1.6395,-0.1364 0.7285,0.091 1.4347,0.182 2.1178,0.273 0.6829,0.0913 1.3433,0.1823 1.9809,0.2732 1.093,0.3646 2.1404,0.8198 3.1424,1.3663 1.0018,0.5466 1.9126,1.1841 2.7324,1.9129 0.9107,0.7285 1.6622,1.5712 2.2543,2.5276 0.5922,0.9561 1.0701,1.9809 1.4347,3.0739 0.2732,1.0021 0.4782,2.0038 0.6148,3.0059 0.1366,1.0017 0.2503,2.0038 0.3416,3.0055 v 38.1181 h 11.7496 v -41.9434 c -0.0913,-1.4573 -0.3189,-2.8466 -0.6832,-4.1672 -0.3642,-1.3207 -0.8654,-2.6187 -1.5029,-3.8937 -0.5465,-1.184 -1.2067,-2.3454 -1.9811,-3.4841 -0.7742,-1.1384 -1.6623,-2.2084 -2.664,-3.2105 -1.0021,-1.002 -2.0951,-1.9128 -3.2792,-2.7326 -1.184,-0.8195 -2.4137,-1.5483 -3.6887,-2.1858 -1.184,-0.6375 -2.4593,-1.1387 -3.8256,-1.5029 -1.366,-0.3643 -2.778,-0.5922 -4.2353,-0.6832 -0.8197,-0.1822 -1.6395,-0.2959 -2.459,-0.3415 -0.8198,-0.0457 -1.6396,-0.0683 -2.4594,-0.0683 -0.8197,0 -1.6395,0.0226 -2.4593,0.0683 -0.8198,0.0456 -1.5939,0.1593 -2.3224,0.3415 -1.2753,0.091 -2.5277,0.2506 -3.7573,0.4783 -1.2297,0.2276 -2.4364,0.6148 -3.6204,1.1613 -1.4573,0.5465 -2.8236,1.2297 -4.0989,2.0495 -1.2751,0.8195 -2.4591,1.7305 -3.5521,2.7323 -0.9108,1.002 -1.7762,2.0494 -2.596,3.1425 -0.8198,1.0927 -1.5027,2.2314 -2.0492,3.4154 -0.7288,1.3663 -1.298,2.778 -1.7078,4.2353 -0.4099,1.4575 -0.6605,2.9602 -0.7515,4.5088 z m 121.8742,28.6911 h 11.7498 v -61.7541 c -0.0912,-2.7324 -0.5011,-5.351 -1.2296,-7.8557 -0.7288,-2.505 -1.7306,-4.9413 -3.0059,-7.3094 -0.8198,-1.8218 -1.8445,-3.5294 -3.0739,-5.1236 -1.2296,-1.594 -2.6186,-3.0283 -4.1672,-4.3036 -1.5483,-1.184 -3.2105,-2.2314 -4.9867,-3.1422 -1.7762,-0.911 -3.6204,-1.6852 -5.5332,-2.3227 -0.9108,-0.091 -1.8899,-0.2506 -2.9376,-0.4782 -1.0474,-0.2276 -2.0721,-0.3872 -3.0739,-0.4782 -0.4555,0 -0.9337,-0.0227 -1.4346,-0.0683 -0.5008,-0.0457 -1.0247,-0.0683 -1.5712,-0.0683 -0.2733,0 -0.5236,0 -0.7515,0 -0.2276,0 -0.4325,0 -0.6148,0 -0.182,0 -0.3869,0.0226 -0.6146,0.0683 -0.2279,0.0456 -0.4782,0.0683 -0.7514,0.0683 -2.0038,0 -3.985,0.1823 -5.9431,0.5465 -1.9585,0.3643 -3.8484,0.9108 -5.6702,1.6396 -1.7305,0.9107 -3.3928,1.9808 -4.9867,3.2105 -1.5939,1.2297 -3.0285,2.5733 -4.3036,4.0306 -1.3663,1.4573 -2.6186,3.0285 -3.7573,4.7134 -1.1384,1.6849 -2.1175,3.4384 -2.9372,5.26 -0.7288,1.8218 -1.3207,3.689 -1.7762,5.6015 -0.4553,1.9128 -0.7285,3.871 -0.8198,5.8748 -0.091,4.0077 0.4555,7.9243 1.6396,11.7499 1.184,3.8254 2.9145,7.3321 5.1916,10.52 2.6416,3.0968 5.6928,5.6471 9.1539,7.651 3.4611,2.0038 7.1499,3.3244 11.0665,3.9619 3.6434,0.1823 7.2184,-0.091 10.7252,-0.8197 3.5064,-0.7285 6.8538,-1.8672 10.0417,-3.4155 v -11.3397 c -1.3663,0.9107 -2.8009,1.7305 -4.3036,2.459 -1.5029,0.7288 -3.0285,1.3663 -4.5771,1.9128 -1.275,0.4553 -2.573,0.7515 -3.8936,0.8881 -1.3207,0.1367 -2.6187,0.1594 -3.8937,0.0684 -1.2753,0 -2.5503,-0.1596 -3.8257,-0.4782 -1.275,-0.3189 -2.5046,-0.7515 -3.6887,-1.298 -2.5503,-0.9108 -4.8047,-2.3454 -6.7629,-4.3036 -1.9584,-1.9584 -3.3928,-4.2582 -4.3038,-6.8995 -0.5465,-1.2753 -0.9335,-2.596 -1.1611,-3.9623 -0.2279,-1.366 -0.3416,-2.7323 -0.3416,-4.0986 0,-1.3663 0.1367,-2.7096 0.4099,-4.0303 0.2733,-1.3209 0.6375,-2.6186 1.0928,-3.894 0.8198,-2.459 2.0038,-4.759 3.5524,-6.8995 1.5482,-2.1404 3.3701,-3.9846 5.4649,-5.5332 1.184,-0.6375 2.391,-1.1614 3.6204,-1.5713 1.2297,-0.4098 2.5276,-0.7058 3.8939,-0.888 0.5466,-0.091 1.0931,-0.1594 1.6396,-0.2047 0.5465,-0.0456 1.0928,-0.0683 1.6393,-0.0683 0.7288,0 1.4802,0.0453 2.2544,0.1366 0.7741,0.091 1.5256,0.182 2.2544,0.273 1.275,0.3645 2.5273,0.8198 3.757,1.3663 1.2297,0.5465 2.3454,1.2753 3.3474,2.1861 2.0948,1.4573 3.871,3.2561 5.3283,5.3966 1.4573,2.1404 2.4137,4.4858 2.869,7.0361 z m 35.2544,-28.6911 h 12.0229 V 148.553 H 723.162 Z m 5.465,21.5867 c 1.184,0 2.277,-0.2506 3.2791,-0.7515 1.0017,-0.5009 1.8215,-1.2067 2.459,-2.1178 0.2733,-0.3642 0.5239,-0.7741 0.7515,-1.2294 0.2279,-0.4555 0.4326,-0.911 0.6148,-1.3662 0,-0.1823 0.0227,-0.3416 0.0683,-0.4783 0.0457,-0.1366 0.0684,-0.2959 0.0684,-0.4782 0,-0.091 0.0226,-0.2049 0.0683,-0.3415 0.0456,-0.1367 0.0683,-0.2506 0.0683,-0.3416 0,-0.1823 0,-0.3189 0,-0.4099 0,-0.091 0,-0.2276 0,-0.4099 0,-0.2732 -0.0227,-0.5235 -0.0683,-0.7515 -0.0457,-0.2276 -0.0683,-0.4325 -0.0683,-0.6148 -0.091,-0.182 -0.1823,-0.3869 -0.2733,-0.6148 -0.091,-0.2276 -0.1823,-0.4779 -0.2733,-0.7512 -0.3642,-0.5465 -0.7514,-1.0477 -1.1613,-1.5029 -0.4099,-0.4556 -0.8881,-0.8654 -1.4343,-1.2297 -0.7288,-0.2733 -1.503,-0.4782 -2.3228,-0.6148 -0.8197,-0.1367 -1.6395,-0.205 -2.4593,-0.205 -0.6375,0.091 -1.2523,0.2733 -1.8442,0.5465 -0.5922,0.2733 -1.1614,0.5922 -1.7079,0.9564 -0.5465,0.4556 -1.0247,0.9791 -1.4346,1.5713 -0.4099,0.5919 -0.7515,1.2067 -1.0247,1.8442 0,0.0913 0,0.205 0,0.3416 0,0.1366 0,0.2506 0,0.3416 -0.091,0.0912 -0.1367,0.2049 -0.1367,0.3415 0,0.1367 0,0.2506 0,0.3416 0.0913,1.2753 0.3646,2.4594 0.8198,3.5524 0.4556,1.0927 1.1387,2.0948 2.0495,3.0056 0.4552,0.2732 0.9334,0.5238 1.4346,0.7514 0.5009,0.2277 0.9791,0.3416 1.4343,0.3416 0.1823,0.091 0.3646,0.1366 0.5465,0.1366 0.1823,0 0.3646,0 0.5466,0 z m -194.9616,67.4685 v -41.296 h 93.6686 c 0,0 94.0283,0.4057 94.0283,94.0516 h -41.2928 c 0,0 6.7637,-52.7633 -52.7355,-52.7633 l -93.6686,0.008 z m 187.6969,105.1084 v 41.2957 h -93.6689 c 0,0 -94.028,-0.4054 -94.028,-94.0516 h 41.2926 c 0,0 -6.7638,52.7632 52.7354,52.7632 l 93.6689,-0.007 z M 327.0988,259.8446 h 93.8489 c 0,0 93.8486,-0.9428 93.8486,93.378 v 94.3198 h -93.8486 c 0,0 -93.8489,-0.1849 -93.8489,-93.8481 z m 41.2935,41.2951 h 52.5554 c 0,0 52.5552,-0.5292 52.5552,52.291 v 52.8197 h -52.5552 c 0,0 -52.5554,-0.1052 -52.5554,-52.5561 z m -206.5658,0 h 52.5552 c 0,0 52.5555,-0.5292 52.5555,52.291 v 52.8197 h -52.5555 c 0,0 -52.5552,-0.1052 -52.5552,-52.5561 z"
         style="fill:#0056c4;fill-opacity:1;fill-rule:evenodd;stroke:none"
         id="path26" />
      <path
         d="m 627.514,376.734 c 12.7228,0 23.0406,-10.3181 23.0406,-23.0408 0,-12.723 -10.3178,-23.0409 -23.0406,-23.0409 -12.723,0 -23.0408,10.3179 -23.0408,23.0409 0,12.7227 10.3178,23.0408 23.0408,23.0408 z m -413.1317,6e-4 c 12.7227,0 23.0408,-10.3178 23.0408,-23.0408 0,-12.7228 -10.3181,-23.0409 -23.0408,-23.0409 -12.7228,0 -23.0406,10.3181 -23.0406,23.0409 0,12.723 10.3178,23.0408 23.0406,23.0408 z m 206.5657,-6e-4 c 12.723,0 23.0409,-10.3181 23.0409,-23.0408 0,-12.723 -10.3179,-23.0409 -23.0409,-23.0409 -12.7227,0 -23.0406,10.3179 -23.0406,23.0409 0,12.7227 10.3179,23.0408 23.0406,23.0408"
         style="fill:#ff9e01;fill-opacity:1;fill-rule:evenodd;stroke:none"
         id="path28" />
    </g>
  </g>
</svg>
