<?xml version="1.0" encoding="UTF-8" standalone="no"?>
<svg
   version="1.1"
   xml:space="preserve"
   style="fill-rule:evenodd;clip-rule:evenodd;stroke-linejoin:round;stroke-miterlimit:2;"
   viewBox="34.72 119.37 432.88 136.03"
   id="svg16"
   sodipodi:docname="whitecitycode_black.svg"
   inkscape:version="1.1.2 (0a00cf5339, 2022-02-04)"
   xmlns:inkscape="http://www.inkscape.org/namespaces/inkscape"
   xmlns:sodipodi="http://sodipodi.sourceforge.net/DTD/sodipodi-0.dtd"
   xmlns="http://www.w3.org/2000/svg"
   xmlns:svg="http://www.w3.org/2000/svg"><defs
     id="defs20" /><sodipodi:namedview
     id="namedview18"
     pagecolor="#505050"
     bordercolor="#eeeeee"
     borderopacity="1"
     inkscape:pageshadow="0"
     inkscape:pageopacity="0"
     inkscape:pagecheckerboard="0"
     showgrid="false"
     inkscape:zoom="2.8760857"
     inkscape:cx="216.44"
     inkscape:cy="68.148177"
     inkscape:window-width="3072"
     inkscape:window-height="1659"
     inkscape:window-x="0"
     inkscape:window-y="0"
     inkscape:window-maximized="1"
     inkscape:current-layer="svg16" /><path
     d="M290.863,196.49l-2.638,9.488l-37.277,0l-14.677,-14.477l-29.254,0l0,-62.624l2.645,-9.486l81.201,0l0,77.099Zm-4.206,-4.206l0,-68.687l-19.468,0l0,51.954l-7.239,0l0,-51.954l-19.377,0l0,37.471l-7.239,0l0,-37.471l-19.467,0l0,54.204l26.706,0l14.679,14.483l31.405,0Z"
     style="fill:#000000;fill-rule:nonzero"
     id="path2" /><path
     d="M207.017,191.501l29.254,0l4.302,-13.7l-26.706,0l-6.85,13.7Z"
     style="fill:#ea5e8c;fill-rule:nonzero;"
     id="path4" /><path
     d="M240.573,177.801l14.679,14.483l-4.304,13.694l-14.677,-14.477l4.302,-13.7Z"
     style="fill:#25c5cb;fill-rule:nonzero;"
     id="path6" /><path
     d="M255.252,192.284l31.405,0l1.568,13.694l-37.277,0l4.304,-13.694Z"
     style="fill:#ea8b3f;fill-rule:nonzero;"
     id="path8" /><path
     d="M58.456,233.481l-6.85,15.256l-0.511,0l-4.615,-11.276l-4.75,11.341l-0.538,0l-6.468,-15.321l2.963,0l3.822,10.83l4.841,-11.212l0.448,0l4.556,11.277l4.107,-10.895l2.995,0Zm26.214,14.809l-2.644,0l0,-9.268c-0.13,-0.979 -0.466,-1.821 -1.017,-2.533c-0.551,-0.713 -1.264,-1.07 -2.139,-1.07c-0.142,0 -0.557,0.064 -1.226,0.194c-0.667,0.131 -1.282,0.526 -1.846,1.193c-0.564,0.668 -0.894,1.491 -1.004,2.468l0,9.016l-2.644,0l0,-24.879l2.579,0l0,12.358c0.558,-0.803 1.238,-1.425 2.061,-1.86c0.816,-0.435 1.672,-0.654 2.56,-0.654c1.574,0 2.961,0.576 4.172,1.724c0.765,1.055 1.148,2.3 1.148,3.726l0,9.585Zm25.709,-20.038c-0.214,0.045 -0.377,0.064 -0.48,0.064c-0.512,0 -0.927,-0.18 -1.257,-0.557c-0.33,-0.37 -0.493,-0.81 -0.493,-1.322c0,-0.317 0.065,-0.596 0.201,-0.843c0.142,-0.246 0.383,-0.453 0.72,-0.622c0.149,-0.038 0.323,-0.096 0.524,-0.154c0.201,-0.065 0.39,-0.078 0.557,-0.034c0.493,0.065 0.876,0.266 1.149,0.603c0.278,0.336 0.414,0.72 0.414,1.148c0,0.894 -0.448,1.465 -1.335,1.717Zm0.856,20.038l-2.645,0l0,-14.751l2.645,0l0,14.751Zm34.82,-12.579l-2.645,0l0,12.579l-2.58,0l0,-12.579l-2.326,0l0,-2.041l2.326,0l0,-5.956l2.58,0l0,5.956l2.645,0l0,2.041Zm34.846,9.105c-0.894,1.192 -1.978,2.126 -3.247,2.807c-1.277,0.68 -2.625,1.017 -4.051,1.017c-1.354,0 -2.65,-0.331 -3.882,-0.986c-1.147,-0.745 -2.021,-1.71 -2.612,-2.897c-0.595,-1.192 -0.894,-2.488 -0.894,-3.888c0,-1.892 0.544,-3.584 1.639,-5.08c1.097,-1.497 2.223,-2.339 3.378,-2.515c1.16,-0.181 1.949,-0.272 2.371,-0.272c1.362,0 2.631,0.305 3.811,0.92c1.179,0.616 2.042,1.555 2.593,2.819c0.55,1.264 0.829,2.747 0.829,4.446l-12.01,0c0,1.445 0.455,2.69 1.369,3.726c0.913,1.044 2.061,1.562 3.441,1.562c0.428,0 0.81,-0.045 1.146,-0.13c0.85,-0.123 1.581,-0.428 2.197,-0.907c0.617,-0.48 1.226,-1.12 1.815,-1.925l2.107,1.303Zm-2.645,-5.542c-0.234,-1.184 -0.796,-2.156 -1.692,-2.915c-0.887,-0.751 -1.938,-1.128 -3.149,-1.128c-1.081,0 -2.035,0.395 -2.852,1.193c-0.816,0.797 -1.353,1.749 -1.606,2.85l9.299,0Zm33.219,8.095c-0.355,0.468 -0.906,0.778 -1.639,0.94c-0.732,0.156 -1.523,0.233 -2.372,0.233c-0.168,0.026 -0.349,0.033 -0.538,0.033l-0.446,0c-1.576,0 -2.982,-0.357 -4.219,-1.082c-1.244,-0.72 -2.185,-1.783 -2.819,-3.182c-0.493,-1.213 -0.74,-2.412 -0.74,-3.603c0,-1.122 0.221,-2.185 0.656,-3.182c0.433,-0.999 1.068,-1.867 1.897,-2.6c0.823,-0.732 1.751,-1.238 2.768,-1.51c1.023,-0.278 2.125,-0.414 3.311,-0.414c1.38,0 2.678,0.33 3.889,0.985l0,2.547c-0.188,0.044 -0.589,-0.097 -1.193,-0.428c-0.609,-0.33 -1.068,-0.531 -1.387,-0.603c-0.317,-0.078 -0.829,-0.116 -1.528,-0.116c-0.785,0 -1.529,0.123 -2.23,0.369c-0.7,0.247 -1.315,0.628 -1.846,1.161c-1.064,1.231 -1.594,2.553 -1.594,3.952c0,1.101 0.343,2.165 1.017,3.182c0.174,0.214 0.368,0.428 0.589,0.642c0.227,0.207 0.486,0.434 0.784,0.667c0.979,0.597 2.036,0.894 3.182,0.894c0.79,0 1.575,-0.148 2.359,-0.446c0.487,-0.384 1.011,-0.732 1.562,-1.051c0.253,-0.091 0.434,-0.109 0.537,-0.064l0,2.676Zm26.312,-19.117c-0.207,0.045 -0.37,0.064 -0.472,0.064c-0.513,0 -0.935,-0.18 -1.258,-0.557c-0.33,-0.37 -0.499,-0.81 -0.499,-1.322c0,-0.317 0.071,-0.596 0.207,-0.843c0.143,-0.246 0.377,-0.453 0.72,-0.622c0.149,-0.038 0.323,-0.096 0.524,-0.154c0.201,-0.065 0.388,-0.078 0.558,-0.034c0.486,0.065 0.867,0.266 1.146,0.603c0.279,0.336 0.415,0.72 0.415,1.148c0,0.894 -0.446,1.465 -1.341,1.717Zm0.861,20.038l-2.642,0l0,-14.751l2.642,0l0,14.751Zm34.815,-12.579l-2.644,0l0,12.579l-2.58,0l0,-12.579l-2.32,0l0,-2.041l2.32,0l0,-5.956l2.58,0l0,5.956l2.644,0l0,2.041Zm34.885,-2.23l-9.812,21.911l-2.903,0l4.335,-9.397l-6.338,-12.514l3.182,0l4.458,10.318l4.174,-10.318l2.904,0Zm62.394,13.888c-0.355,0.468 -0.906,0.778 -1.639,0.94c-0.732,0.156 -1.523,0.233 -2.372,0.233c-0.168,0.026 -0.349,0.033 -0.538,0.033l-0.446,0c-1.576,0 -2.982,-0.357 -4.219,-1.082c-1.244,-0.72 -2.185,-1.783 -2.819,-3.182c-0.493,-1.213 -0.74,-2.412 -0.74,-3.603c0,-1.122 0.221,-2.185 0.655,-3.182c0.434,-0.999 1.069,-1.867 1.898,-2.6c0.823,-0.732 1.751,-1.238 2.768,-1.51c1.023,-0.278 2.125,-0.414 3.311,-0.414c1.38,0 2.678,0.33 3.889,0.985l0,2.547c-0.188,0.044 -0.589,-0.097 -1.193,-0.428c-0.609,-0.33 -1.068,-0.531 -1.387,-0.603c-0.317,-0.078 -0.829,-0.116 -1.528,-0.116c-0.785,0 -1.53,0.123 -2.23,0.369c-0.7,0.247 -1.315,0.628 -1.846,1.161c-1.064,1.231 -1.594,2.553 -1.594,3.952c0,1.101 0.343,2.165 1.017,3.182c0.174,0.214 0.368,0.428 0.588,0.642c0.228,0.207 0.487,0.434 0.785,0.667c0.979,0.597 2.036,0.894 3.182,0.894c0.79,0 1.575,-0.148 2.359,-0.446c0.486,-0.384 1.011,-0.732 1.562,-1.051c0.253,-0.091 0.434,-0.109 0.537,-0.064l0,2.676Zm33.642,-6.369c0,2.138 -0.785,3.972 -2.339,5.488c-1.563,1.523 -3.436,2.281 -5.626,2.281c-2.21,0 -4.096,-0.758 -5.651,-2.281c-1.563,-1.516 -2.346,-3.356 -2.346,-5.521c0,-2.19 0.765,-4.063 2.281,-5.626c1.517,-1.561 3.37,-2.339 5.56,-2.339c2.23,0 4.141,0.771 5.729,2.327c1.594,1.548 2.392,3.434 2.392,5.671Zm-2.392,0c0,-1.556 -0.525,-2.879 -1.575,-3.967c-1.05,-1.095 -2.332,-1.646 -3.836,-1.646c-1.556,0 -2.878,0.531 -3.966,1.581c-1.095,1.05 -1.639,2.326 -1.639,3.836c0,1.51 0.53,2.814 1.587,3.922c1.062,1.102 2.346,1.652 3.856,1.652c1.51,0 2.812,-0.519 3.92,-1.562c1.102,-1.037 1.653,-2.313 1.653,-3.816Zm32.682,7.29l-2.45,0l0,-2.93c-0.531,1.063 -1.296,1.873 -2.294,2.437c-0.997,0.564 -2.074,0.843 -3.221,0.843c-0.907,0 -1.801,-0.17 -2.671,-0.506c-0.874,-0.344 -1.659,-0.855 -2.357,-1.548c-0.7,-0.687 -1.226,-1.51 -1.576,-2.451c-0.357,-0.945 -0.531,-1.951 -0.531,-3.012c0,-1.653 0.408,-3.229 1.213,-4.712c0.615,-1.044 1.476,-1.86 2.578,-2.457c1.108,-0.596 2.261,-0.888 3.474,-0.888c1.251,0 2.397,0.325 3.441,0.986c0.318,0.234 0.628,0.499 0.927,0.796c0.292,0.299 0.635,0.669 1.017,1.115l0,-12.617l2.45,0l0,24.944Zm-3.661,-3.41c0.848,-1.126 1.276,-2.448 1.276,-3.978c0,-1.296 -0.35,-2.451 -1.037,-3.461c-0.694,-1.004 -1.691,-1.639 -3.013,-1.893c-0.383,-0.045 -0.669,-0.065 -0.856,-0.065c-1.258,0 -2.352,0.409 -3.298,1.227c-0.947,0.822 -1.465,1.605 -1.563,2.357c-0.096,0.753 -0.148,1.219 -0.154,1.387c-0.014,0.169 -0.02,0.318 -0.02,0.448c0,1.503 0.401,2.812 1.193,3.914c0.796,1.108 1.931,1.659 3.396,1.659c0.848,0 1.599,-0.123 2.261,-0.369c0.654,-0.24 1.264,-0.648 1.815,-1.226Zm36.57,-0.064c-0.896,1.192 -1.978,2.126 -3.253,2.807c-1.271,0.68 -2.62,1.017 -4.045,1.017c-1.361,0 -2.656,-0.331 -3.889,-0.986c-1.146,-0.745 -2.014,-1.71 -2.611,-2.897c-0.589,-1.192 -0.888,-2.488 -0.888,-3.888c0,-1.892 0.544,-3.584 1.639,-5.08c1.095,-1.497 2.217,-2.339 3.377,-2.515c1.154,-0.181 1.951,-0.272 2.372,-0.272c1.36,0 2.631,0.305 3.804,0.92c1.18,0.616 2.047,1.555 2.598,2.819c0.553,1.264 0.83,2.747 0.83,4.446l-12.008,0c0,1.445 0.454,2.69 1.367,3.726c0.914,1.044 2.062,1.562 3.442,1.562c0.426,0 0.81,-0.045 1.146,-0.13c0.85,-0.123 1.582,-0.428 2.197,-0.907c0.616,-0.48 1.226,-1.12 1.815,-1.925l2.107,1.303Zm-2.645,-5.542c-0.233,-1.184 -0.797,-2.156 -1.692,-2.915c-0.887,-0.751 -1.944,-1.128 -3.149,-1.128c-1.088,0 -2.035,0.395 -2.851,1.193c-0.817,0.797 -1.354,1.749 -1.615,2.85l9.307,0Z"
     style="fill:#000000;fill-rule:nonzero"
     id="path10" /><rect
     x="329.85"
     y="231.699"
     width="5.307"
     height="5.307"
     style="fill:#000000"
     id="rect12" /><rect
     x="329.85"
     y="244.972"
     width="5.307"
     height="5.307"
     style="fill:#000000"
     id="rect14" /></svg>
