<?xml version="1.0" encoding="utf-8"?>
<!-- Generator: Adobe Illustrator 18.1.0, SVG Export Plug-In . SVG Version: 6.00 Build 0)  -->
<!DOCTYPE svg PUBLIC "-//W3C//DTD SVG 1.1//EN" "http://www.w3.org/Graphics/SVG/1.1/DTD/svg11.dtd">
<svg version="1.1" xmlns="http://www.w3.org/2000/svg" xmlns:xlink="http://www.w3.org/1999/xlink" x="0px" y="0px"
	 viewBox="0 0 100 100" enable-background="new 0 0 100 100" xml:space="preserve">
<g id="Amazon_CloudSearch">
	<g>
		<polygon fill="#FAD791" points="68.8,71.3 50,66.9 31.2,71.3 50,78.8 		"/>
		<polygon fill="#D9A741" points="79.8,37.3 50,28.4 50,14 79.8,28.9 		"/>
		<polygon fill="#D9A741" points="68.8,76.6 50,86 50,78.8 68.8,71.3 		"/>
		<polygon fill="#876929" points="50,86 31.2,76.6 31.2,71.3 50,78.8 		"/>
		<polygon fill="#876929" points="20.2,37.3 50,28.4 50,14 20.2,28.9 		"/>
		<polygon fill="#624A1E" points="79.8,37.3 50,41.1 20.2,37.3 50,28.4 		"/>
		<polygon fill="#D9A741" points="65.9,66.8 62.6,67.8 62.6,55.9 65.9,55.6 		"/>
		<polygon fill="#D9A741" points="54.8,70.2 50,71.6 50,42.8 54.8,43.3 		"/>
		<polygon fill="#876929" points="37.4,55.9 34.1,55.6 34.1,44.4 37.4,44.1 		"/>
		<polygon fill="#876929" points="45.2,70.2 50,71.6 50,42.8 45.2,43.3 		"/>
		<polygon fill="#876929" points="59,67.1 62.6,67.8 62.6,55.9 59,55.7 		"/>
		<polygon fill="#D9A741" points="41.1,55.7 37.4,55.9 37.4,44.1 41.1,44.3 		"/>
		<polygon fill="#FAD791" points="65.9,55.6 62.3,55.4 59,55.7 62.6,55.9 		"/>
	</g>
</g>
<g id="nyt_x5F_exporter_x5F_info" display="none">
</g>
</svg>
