<?xml version="1.0" encoding="utf-8"?>
<!-- Generator: Adobe Illustrator 16.0.0, SVG Export Plug-In . SVG Version: 6.00 Build 0)  -->
<svg version="1.2" baseProfile="tiny" xmlns="http://www.w3.org/2000/svg" xmlns:xlink="http://www.w3.org/1999/xlink" x="0px"
	 y="0px" width="100px" height="100px" viewBox="0 0 100 100" xml:space="preserve">
<g id="Layer_3">
</g>
<g id="Layer_1">
	<g>
		<polygon fill="#6B3A19" points="79.823,37.347 50,41.053 20.177,37.347 50,28.4 		"/>
		<polygon fill="#FBBF93" points="79.823,62.653 50,58.947 20.177,62.653 50,71.6 		"/>
		<polygon fill="#F58536" points="79.823,37.347 50,28.4 50,14 79.823,28.912 		"/>
		<polygon fill="#F58536" points="65.874,61.225 50,64.4 50,35.6 65.874,38.775 		"/>
		<polygon fill="#F58536" points="62.601,55.94 79.823,54.218 79.823,45.782 62.601,44.061 		"/>
		<polygon fill="#F58536" points="79.823,62.653 50,71.6 50,86 79.823,71.088 		"/>
		<polygon fill="#9D5025" points="20.177,37.347 50,28.4 50,14 20.177,28.912 		"/>
		<polygon fill="#9D5025" points="34.125,61.225 50,64.4 50,35.6 34.125,38.775 		"/>
		<polygon fill="#9D5025" points="37.399,55.94 20.177,54.218 20.177,45.782 37.399,44.061 		"/>
		<polygon fill="#9D5025" points="20.177,62.653 50,71.6 50,86 20.177,71.088 		"/>
	</g>
</g>
<g id="nyt_x5F_exporter_x5F_info" display="none">
</g>
</svg>
