<?xml version="1.0" encoding="utf-8"?>
<!-- Generator: Adobe Illustrator 18.1.0, SVG Export Plug-In . SVG Version: 6.00 Build 0)  -->
<!DOCTYPE svg PUBLIC "-//W3C//DTD SVG 1.1//EN" "http://www.w3.org/Graphics/SVG/1.1/DTD/svg11.dtd">
<svg version="1.1" xmlns="http://www.w3.org/2000/svg" xmlns:xlink="http://www.w3.org/1999/xlink" x="0px" y="0px"
	 viewBox="0 0 100 100" enable-background="new 0 0 100 100" xml:space="preserve">
<g id="Amazon_CloudSearch">
	<g>
		<polygon fill="#512843" points="14.9,38.6 71.9,25.1 71.9,37.2 21.9,40.2 		"/>
		<polygon fill="#7A3E65" points="43.6,55 79.4,60.3 79.4,71.3 43.6,62.6 		"/>
		<polygon fill="#C17B9E" points="75.9,61.2 68,63.6 68,77 75.9,73.1 		"/>
		<polygon fill="#C17B9E" points="85.1,58.5 79.4,60.2 79.4,71.3 85.1,68.5 		"/>
		<polygon fill="#7A3E65" points="31.6,56.5 68,63.6 68,77 31.6,65.2 		"/>
		<polygon fill="#C17B9E" points="62.6,65.2 50,69 50,86 62.6,79.7 		"/>
		<polygon fill="#7A3E65" points="14.9,58.5 50,69 50,86 14.9,68.5 		"/>
		<polygon fill="#CFB2C1" points="14.9,58.5 50,69 62.6,65.2 26.1,57.1 		"/>
		<polygon fill="#CFB2C1" points="43.6,55 79.3,60.2 85.1,58.5 50.4,54.2 		"/>
		<polygon fill="#CFB2C1" points="31.6,56.5 68,63.6 75.9,61.2 39.9,55.5 		"/>
		<polygon fill="#995B7F" points="14.9,28.9 60.6,17.9 60.6,14 16,27.8 		"/>
		<polygon fill="#995B7F" points="68.9,25.6 85.1,22.8 85.1,18.8 68.9,22.1 		"/>
		<polygon fill="#C17B9E" points="85.1,43.6 50.1,43.6 50.1,60.3 85.1,53.4 		"/>
		<polygon fill="#C17B9E" points="50.1,35.2 50.1,18.4 60.6,14 71.9,24.6 85.1,18.8 85.1,28.8 71.9,37.2 60.4,28.5 		"/>
		<polygon fill="#7A3E65" points="14.9,43.6 50.1,43.6 50.1,60.3 14.9,53.4 		"/>
		<polygon fill="#7A3E65" points="14.9,38.6 50.1,35.1 50.1,18.4 14.9,28.9 		"/>
	</g>
</g>
<g id="nyt_x5F_exporter_x5F_info" display="none">
</g>
</svg>
