<?xml version="1.0" encoding="utf-8"?>
<!-- Generator: Adobe Illustrator 16.0.4, SVG Export Plug-In . SVG Version: 6.00 Build 0)  -->
<!DOCTYPE svg PUBLIC "-//W3C//DTD SVG 1.1//EN" "http://www.w3.org/Graphics/SVG/1.1/DTD/svg11.dtd">
<svg version="1.1" xmlns="http://www.w3.org/2000/svg" xmlns:xlink="http://www.w3.org/1999/xlink" x="0px" y="0px" width="100px"
	 height="100px" viewBox="0 0 100 100" enable-background="new 0 0 100 100" xml:space="preserve">
<g id="Amazon_CloudSearch">
	<g>
		<polygon fill="#D9A741" points="54.46,59.506 23.985,63.793 23.987,36.201 54.462,40.494 		"/>
		<polygon fill="#876929" points="20.179,37.344 50.003,28.399 50.003,14 20.179,28.908 		"/>
		<polygon fill="#876929" points="20.19,62.654 49.999,71.6 49.997,86 20.19,71.094 		"/>
		<polygon fill="#D9A741" points="79.823,37.35 50.003,28.399 50.003,14 79.825,28.914 		"/>
		<polygon fill="#D9A741" points="79.806,62.66 49.999,71.6 49.997,86 79.806,71.099 		"/>
		<polygon fill="#876929" points="23.985,72.99 20.175,71.086 20.179,28.908 23.989,27.004 		"/>
		<polygon fill="#876929" points="39.017,57.762 49.999,59.16 50.001,40.832 39.019,42.229 		"/>
		<polygon fill="#876929" points="27.954,56.354 35.081,57.26 35.083,42.729 27.954,43.637 		"/>
		<polygon fill="#624A1E" points="23.987,36.201 50.003,28.399 79.823,37.35 54.481,40.496 		"/>
		<polygon fill="#FAD791" points="23.985,63.793 49.999,71.6 79.806,62.66 54.46,59.506 		"/>
		<polygon fill="#D9A741" points="79.808,55.33 49.999,59.092 50.001,40.832 79.808,44.629 		"/>
	</g>
</g>
<g id="nyt_x5F_exporter_x5F_info" display="none">
	<text transform="matrix(1 0 0 1 -763 0)" display="inline"><tspan x="0" y="0" font-family="'MyriadPro-Regular'" font-size="12">&lt;nyt_prefs&gt;</tspan><tspan x="0" y="14.4" font-family="'MyriadPro-Regular'" font-size="12">  &lt;nyt_prefix&gt;&lt;/nyt_prefix&gt;</tspan><tspan x="0" y="28.8" font-family="'MyriadPro-Regular'" font-size="12">  &lt;nyt_suffix&gt;&lt;/nyt_suffix&gt;</tspan><tspan x="0" y="43.2" font-family="'MyriadPro-Regular'" font-size="12">  &lt;nyt_base_path&gt;~/Desktop/wip/Architecture%20Icons%20-%20Update%20all%20customer-facing%20files%20/AWS-Simple-Icons%202/App%20Services/EPS&lt;/nyt_base_path&gt;</tspan><tspan x="0" y="57.6" font-family="'MyriadPro-Regular'" font-size="12">  &lt;nyt_scaling&gt;100&lt;/nyt_scaling&gt;</tspan><tspan x="0" y="72" font-family="'MyriadPro-Regular'" font-size="12">  &lt;nyt_transparency&gt;true&lt;/nyt_transparency&gt;</tspan><tspan x="0" y="86.4" font-family="'MyriadPro-Regular'" font-size="12">  &lt;nyt_format&gt;EPS&lt;/nyt_format&gt;</tspan><tspan x="0" y="100.8" font-family="'MyriadPro-Regular'" font-size="12">  &lt;nyt_export_code&gt;artboards&lt;/nyt_export_code&gt;</tspan><tspan x="0" y="115.2" font-family="'MyriadPro-Regular'" font-size="12">&lt;/nyt_prefs&gt;</tspan></text>
</g>
</svg>
