<?xml version="1.0" encoding="utf-8"?>
<!-- Generator: Adobe Illustrator 16.0.4, SVG Export Plug-In . SVG Version: 6.00 Build 0)  -->
<!DOCTYPE svg PUBLIC "-//W3C//DTD SVG 1.1//EN" "http://www.w3.org/Graphics/SVG/1.1/DTD/svg11.dtd">
<svg version="1.1" xmlns="http://www.w3.org/2000/svg" xmlns:xlink="http://www.w3.org/1999/xlink" x="0px" y="0px" width="100px"
	 height="100px" viewBox="0 0 100 100" enable-background="new 0 0 100 100" xml:space="preserve">
<g id="Amazon_CloudSearch">
	<g>
		<polygon fill="#876929" points="45.765,65.797 76.015,72.85 76.015,27.008 45.765,34.104 		"/>
		<polygon fill="#D9A741" points="71.448,75.277 65.874,78.062 65.874,21.938 71.448,24.725 		"/>
		<polygon fill="#D9A741" points="79.823,71.088 76.015,72.994 76.015,27.008 79.823,28.912 		"/>
		<polygon fill="#876929" points="45.765,28.359 45.765,71.697 65.874,78.137 65.874,21.938 		"/>
		<polygon fill="#FAD791" points="23.987,63.797 49.886,71.566 58.921,68.863 32.212,62.639 		"/>
		<polygon fill="#D9A741" points="32.212,62.639 23.987,63.797 23.987,36.203 32.212,37.363 		"/>
		<polygon fill="#624A1E" points="58.921,31.137 32.212,37.363 23.987,36.203 49.886,28.434 		"/>
		<polygon fill="#D9A741" points="58.921,81.539 49.999,86 49.999,14 58.921,18.461 		"/>
		<path fill="#876929" d="M49.999,14L20.177,28.912l0.016,42.184L49.999,86V14z M41.079,68.924l-17.092-5.127V36.203l17.092-5.127
			V68.924z"/>
	</g>
</g>
<g id="nyt_x5F_exporter_x5F_info" display="none">
</g>
</svg>
