<?xml version="1.0" encoding="utf-8"?>
<!-- Generator: Adobe Illustrator 16.0.0, SVG Export Plug-In . SVG Version: 6.00 Build 0)  -->
<svg version="1.2" baseProfile="tiny" xmlns="http://www.w3.org/2000/svg" xmlns:xlink="http://www.w3.org/1999/xlink" x="0px"
	 y="0px" width="100px" height="100px" viewBox="0 0 100 100" xml:space="preserve">
<g id="Raw_Elements">
</g>
<g id="Artifacts" display="none">
</g>
<g id="Logos">
	<g>
		<g>
			<linearGradient id="SVGID_1_" gradientUnits="userSpaceOnUse" x1="52.1611" y1="8.2402" x2="52.1611" y2="92.6562">
				<stop  offset="0" style="stop-color:#F58534"/>
				<stop  offset="1" style="stop-color:#D16928"/>
			</linearGradient>
			<polygon fill="url(#SVGID_1_)" points="15.161,29.042 52.161,7.797 89.161,29.042 89.161,71.531 52.161,92.775 15.161,71.531 			
				"/>
			<g>
				<path fill="#FFFFFF" d="M47.465,40.534h-0.037h-19h-0.035c-1.062,0-1.926,0.864-1.926,1.925v0.036v26.278v0.032
					c0,1.063,0.864,1.928,1.926,1.928h0.035h19h0.037c1.061,0,1.924-0.864,1.924-1.928v-0.032V42.495v-0.036
					C49.389,41.398,48.525,40.534,47.465,40.534z M37.929,69.849c-0.903,0-1.635-0.731-1.635-1.635c0-0.902,0.731-1.634,1.635-1.634
					c0.902,0,1.634,0.731,1.634,1.634C39.563,69.117,38.832,69.849,37.929,69.849z M45.468,65.694H30.39V44.457h15.078V65.694z"/>
				<g>
					<path fill="#FFFFFF" d="M77.144,58.314V30.682H39.606v9.853h3.922v-5.931h29.692v19.789H49.389v3.922h6.254v3.014
						c-2.375,0.099-4.516,0.326-6.254,0.644v4.024h6.318h2.881h2.605h10.577v-1.98c0-1.326-4.613-2.432-10.752-2.688v-3.014H77.144z
						"/>
				</g>
			</g>
		</g>
	</g>
</g>
</svg>
