<?xml version="1.0" encoding="utf-8"?>
<!-- Generator: Adobe Illustrator 16.0.4, SVG Export Plug-In . SVG Version: 6.00 Build 0)  -->
<!DOCTYPE svg PUBLIC "-//W3C//DTD SVG 1.1//EN" "http://www.w3.org/Graphics/SVG/1.1/DTD/svg11.dtd">
<svg version="1.1" xmlns="http://www.w3.org/2000/svg" xmlns:xlink="http://www.w3.org/1999/xlink" x="0px" y="0px" width="100px"
	 height="100px" viewBox="0 0 100 100" enable-background="new 0 0 100 100" xml:space="preserve">
<g id="Layer_1">
	<g>
		<g>
			<g>
				<polygon fill="#FFFFFF" stroke="#444444" stroke-width="1.5" stroke-miterlimit="10" points="54.414,74.464 28.459,58.954 
					28.912,28.722 55.32,14 81.277,29.51 80.822,59.739 				"/>
				<polygon fill="#FFFFFF" stroke="#444444" stroke-width="1.5" stroke-miterlimit="10" points="28.914,28.722 28.914,28.729 
					54.859,44.229 81.266,29.51 81.266,29.502 55.321,14 				"/>
				<polygon fill="#FFFFFF" stroke="#444444" stroke-width="1.5" stroke-miterlimit="10" points="28.908,28.73 28.902,28.733 
					28.967,58.956 55.184,74.021 55.19,74.015 55.125,43.792 				"/>
			</g>
		</g>
		<g>
			<g>
				<polygon fill="#FFFFFF" stroke="#444444" stroke-width="1.5" stroke-miterlimit="10" points="34.068,83.974 18.723,75.108 
					18.73,57.384 34.08,48.529 49.426,57.396 49.421,75.118 				"/>
				<polygon fill="#FFFFFF" stroke="#444444" stroke-width="1.5" stroke-miterlimit="10" points="18.73,57.384 18.73,57.39 
					34.07,66.251 49.421,57.396 49.421,57.392 34.081,48.529 				"/>
				<polygon fill="#FFFFFF" stroke="#444444" stroke-width="1.5" stroke-miterlimit="10" points="18.729,57.39 18.723,57.392 
					19.021,75.104 34.516,83.708 34.52,83.705 34.222,65.991 				"/>
			</g>
		</g>
		<g>
			<g>
				<polygon fill="#FFFFFF" stroke="#444444" stroke-width="1.5" stroke-miterlimit="10" points="50.324,86 41.242,80.752 
					41.246,70.263 50.33,65.022 59.413,70.271 59.41,80.759 				"/>
				<polygon fill="#FFFFFF" stroke="#444444" stroke-width="1.5" stroke-miterlimit="10" points="41.246,70.263 41.246,70.267 
					50.325,75.511 59.41,70.271 59.41,70.267 50.332,65.022 				"/>
				<polygon fill="#FFFFFF" stroke="#444444" stroke-width="1.5" stroke-miterlimit="10" points="41.246,70.267 41.242,70.267 
					41.42,80.75 50.59,85.843 50.592,85.84 50.414,75.358 				"/>
			</g>
		</g>
	</g>
</g>
<g id="nyt_x5F_exporter_x5F_info" display="none">
</g>
</svg>
