<?xml version="1.0" encoding="utf-8"?>
<!-- Generator: Adobe Illustrator 16.0.4, SVG Export Plug-In . SVG Version: 6.00 Build 0)  -->
<!DOCTYPE svg PUBLIC "-//W3C//DTD SVG 1.1//EN" "http://www.w3.org/Graphics/SVG/1.1/DTD/svg11.dtd">
<svg version="1.1" xmlns="http://www.w3.org/2000/svg" xmlns:xlink="http://www.w3.org/1999/xlink" x="0px" y="0px" width="100px"
	 height="100px" viewBox="0 0 100 100" enable-background="new 0 0 100 100" xml:space="preserve">
<g id="Amazon_CloudSearch">
	<g>
		<polygon fill="#876929" points="45.164,29.851 50.061,28.384 73.781,35.5 69.321,36.173 		"/>
		<polygon fill="#876929" points="54.836,29.851 49.939,28.384 26.219,35.5 30.679,36.173 		"/>
		<polygon fill="#FAD791" points="50,61.112 45.104,60.35 69.321,57.056 73.782,57.405 		"/>
		<polygon fill="#FAD791" points="50,61.112 54.896,60.35 30.679,57.056 26.218,57.405 		"/>
		<polygon fill="#D9A741" points="79.752,37.292 50,28.366 50,14 79.752,28.876 		"/>
		<polygon fill="#D9A741" points="79.752,64.89 50,75.479 50,61.112 79.752,56.474 		"/>
		<polygon fill="#D9A741" points="73.781,26.023 79.752,28.992 79.752,64.89 73.781,67.014 		"/>
		<polygon fill="#D9A741" points="58.899,62.5 49.98,64.283 49.98,86 58.899,81.521 		"/>
		<polygon fill="#876929" points="69.321,36.173 73.781,35.5 73.781,57.405 69.321,57.056 		"/>
		<polygon fill="#876929" points="20.248,37.292 50,28.366 50,14 20.248,28.876 		"/>
		<polygon fill="#876929" points="20.248,64.89 50,75.479 50,61.112 20.248,56.474 		"/>
		<polygon fill="#876929" points="26.219,26.023 20.248,28.992 20.248,64.89 26.219,67.014 		"/>
		<polygon fill="#876929" points="41.101,62.5 50.02,64.283 50.02,86 41.101,81.521 		"/>
		<polygon fill="#876929" points="30.679,36.173 26.219,35.5 26.219,57.405 30.679,57.056 		"/>
	</g>
</g>
<g id="nyt_x5F_exporter_x5F_info" display="none">
	<text display="inline"><tspan x="0" y="0" font-family="'MyriadPro-Regular'" font-size="12">&lt;nyt_prefs&gt;</tspan><tspan x="0" y="14.4" font-family="'MyriadPro-Regular'" font-size="12">  &lt;nyt_prefix&gt;&lt;/nyt_prefix&gt;</tspan><tspan x="0" y="28.8" font-family="'MyriadPro-Regular'" font-size="12">  &lt;nyt_suffix&gt;&lt;/nyt_suffix&gt;</tspan><tspan x="0" y="43.2" font-family="'MyriadPro-Regular'" font-size="12">  &lt;nyt_base_path&gt;~/Desktop/wip/Architecture%20Icons%20-%20Update%20all%20customer-facing%20files%20/AWS-Simple-Icons%202/App%20Services/EPS&lt;/nyt_base_path&gt;</tspan><tspan x="0" y="57.6" font-family="'MyriadPro-Regular'" font-size="12">  &lt;nyt_scaling&gt;100&lt;/nyt_scaling&gt;</tspan><tspan x="0" y="72" font-family="'MyriadPro-Regular'" font-size="12">  &lt;nyt_transparency&gt;true&lt;/nyt_transparency&gt;</tspan><tspan x="0" y="86.4" font-family="'MyriadPro-Regular'" font-size="12">  &lt;nyt_format&gt;EPS&lt;/nyt_format&gt;</tspan><tspan x="0" y="100.8" font-family="'MyriadPro-Regular'" font-size="12">  &lt;nyt_export_code&gt;artboards&lt;/nyt_export_code&gt;</tspan><tspan x="0" y="115.2" font-family="'MyriadPro-Regular'" font-size="12">&lt;/nyt_prefs&gt;</tspan></text>
</g>
</svg>
