<?xml version="1.0" encoding="utf-8"?>
<!-- Generator: Adobe Illustrator 16.0.0, SVG Export Plug-In . SVG Version: 6.00 Build 0)  -->
<svg version="1.2" baseProfile="tiny" xmlns="http://www.w3.org/2000/svg" xmlns:xlink="http://www.w3.org/1999/xlink" x="0px"
	 y="0px" width="100px" height="100px" viewBox="0 0 100 100" xml:space="preserve">
<g id="Layer_1">
</g>
<g id="nyt_x5F_exporter_x5F_info" display="none">
</g>
<g id="CloudTrail">
	<g>
		<polygon fill="#4B612C" points="21.991,42.512 20.185,42.69 20.185,34.199 21.991,33.656 		"/>
		<polygon fill="#759C3E" points="28.669,34.53 21.991,33.639 21.991,42.504 28.669,42.802 		"/>
		<polygon fill="#3C4929" points="28.669,42.802 26.722,42.958 20.185,42.69 21.991,42.512 		"/>
		<polygon fill="#4B612C" points="21.991,51.488 20.185,51.309 20.185,59.801 21.991,60.344 		"/>
		<polygon fill="#759C3E" points="28.669,59.471 21.991,60.361 21.991,51.496 28.669,51.197 		"/>
		<polygon fill="#B7CA9D" points="28.669,51.197 26.722,51.041 20.185,51.309 21.991,51.488 		"/>
		<polygon fill="#4B612C" points="26.153,27.615 31.185,25.732 31.185,41.663 26.153,42.04 		"/>
		<polygon fill="#759C3E" points="40.92,28.017 31.185,25.902 31.185,41.684 40.92,42.107 		"/>
		<polygon fill="#3C4929" points="40.92,42.107 35.55,42.512 26.153,42.04 31.186,41.537 		"/>
		<polygon fill="#4B612C" points="26.153,66.258 31.185,68.125 31.185,52.334 26.153,51.961 		"/>
		<polygon fill="#759C3E" points="40.92,66.107 31.185,68.242 31.185,52.32 40.92,51.893 		"/>
		<polygon fill="#B7CA9D" points="40.92,51.893 35.55,51.488 26.153,51.961 31.186,52.463 		"/>
		<polygon fill="#759C3E" points="79.815,67.943 49.991,82.855 49.991,10.856 79.815,25.767 		"/>
		<polygon fill="#4B612C" points="37.392,76.555 49.991,82.855 49.991,10.856 37.392,17.156 		"/>
	</g>
</g>
</svg>
