<?xml version="1.0" encoding="utf-8"?>
<!-- Generator: Adobe Illustrator 18.1.0, SVG Export Plug-In . SVG Version: 6.00 Build 0)  -->
<!DOCTYPE svg PUBLIC "-//W3C//DTD SVG 1.1//EN" "http://www.w3.org/Graphics/SVG/1.1/DTD/svg11.dtd">
<svg version="1.1" xmlns="http://www.w3.org/2000/svg" xmlns:xlink="http://www.w3.org/1999/xlink" x="0px" y="0px"
	 viewBox="0 0 100 100" enable-background="new 0 0 100 100" xml:space="preserve">
<g id="Amazon_CloudSearch">
	<g>
		<polygon fill="#759C3E" points="59.4,66.7 28.6,75 28.6,24.7 59.4,33.1 		"/>
		<polygon fill="#4B612C" points="28.6,75.2 20.2,71 20.2,28.9 28.6,24.7 		"/>
		<polygon fill="#759C3E" points="79.8,39.5 50,32 50,14 79.8,28.9 		"/>
		<polygon fill="#759C3E" points="79.8,55.2 50,58.9 50,40.9 79.8,44.7 		"/>
		<polygon fill="#759C3E" points="79.8,71.1 50,86 50,68 79.8,60.5 		"/>
		<polygon fill="#4B612C" points="34.1,21.9 50,14 50,32 34.1,36 		"/>
		<polygon fill="#4B612C" points="34.1,78 50,85.9 50,68 34.1,64 		"/>
		<polygon fill="#4B612C" points="34.1,42.9 50,40.9 50,58.9 34.1,57 		"/>
		<polygon fill="#3C4929" points="79.8,39.5 65.3,41 34.1,36 50,32 		"/>
		<polygon fill="#B7CA9D" points="79.8,60.5 65.3,59 34.1,64 50,68 		"/>
	</g>
</g>
<g id="nyt_x5F_exporter_x5F_info" display="none">
</g>
</svg>
