<?xml version="1.0" encoding="utf-8"?>
<!-- Generator: Adobe Illustrator 18.1.0, SVG Export Plug-In . SVG Version: 6.00 Build 0)  -->
<!DOCTYPE svg PUBLIC "-//W3C//DTD SVG 1.1//EN" "http://www.w3.org/Graphics/SVG/1.1/DTD/svg11.dtd">
<svg version="1.1" xmlns="http://www.w3.org/2000/svg" xmlns:xlink="http://www.w3.org/1999/xlink" x="0px" y="0px"
	 viewBox="0 0 100 100" enable-background="new 0 0 100 100" xml:space="preserve">
<g id="Amazon_CloudSearch">
	<g>
		<polygon fill="#759C3E" points="44.1,35.2 28.6,32.3 28.6,24.7 44.1,28.9 		"/>
		<polygon fill="#4B612C" points="20.2,35.2 28.6,32.3 28.6,24.7 20.2,28.9 		"/>
		<polygon fill="#3C4929" points="44.1,35.2 28.6,32.3 20.2,35.2 34.7,37.3 		"/>
		<polygon fill="#4B612C" points="55.9,35.2 71.4,32.3 71.4,24.7 55.9,28.9 		"/>
		<polygon fill="#4B612C" points="34.1,30.3 50,24.8 50,14 34.1,21.9 		"/>
		<polygon fill="#759C3E" points="65.9,30.3 50,24.8 50,14 65.9,21.9 		"/>
		<polygon fill="#759C3E" points="79.8,35.2 71.4,32.3 71.4,24.7 79.8,28.9 		"/>
		<polygon fill="#4B612C" points="20.2,50 50,50 50,35.6 20.2,41.6 		"/>
		<polygon fill="#4B612C" points="50,86 20.2,71.1 20.2,56.3 50,60.7 		"/>
		<polygon fill="#759C3E" points="79.8,71.1 50,86 50,60.7 79.8,56.3 		"/>
		<polygon fill="#759C3E" points="79.8,50 50,50 50,35.6 79.8,41.6 		"/>
		<polygon fill="#3C4929" points="65.9,30.3 50,33.9 34.1,30.3 50,24.8 		"/>
		<polygon fill="#3C4929" points="55.9,35.2 71.4,32.3 79.8,35.2 65.3,37.3 		"/>
		<polygon fill="#B7CA9D" points="79.8,56.3 50,54.4 20.2,56.3 50,60.7 		"/>
	</g>
</g>
<g id="nyt_x5F_exporter_x5F_info" display="none">
</g>
</svg>
