<?xml version="1.0" encoding="utf-8"?>
<!-- Generator: Adobe Illustrator 16.0.0, SVG Export Plug-In . SVG Version: 6.00 Build 0)  -->
<svg version="1.2" baseProfile="tiny" xmlns="http://www.w3.org/2000/svg" xmlns:xlink="http://www.w3.org/1999/xlink" x="0px"
	 y="0px" width="100px" height="100px" viewBox="0 0 100 100" xml:space="preserve">
<g id="Layer_3">
</g>
<g id="Layer_1">
	<g>
		<polygon fill="#F58536" points="30.143,70.952 23.174,72.542 23.174,27.409 30.143,29.002 		"/>
		<polygon fill="#F58536" points="38.838,73.616 30.143,76.087 30.143,23.926 38.838,26.394 		"/>
		<polygon fill="#F58536" points="49.992,76.353 38.838,80.435 38.838,19.578 49.992,23.658 		"/>
		<polygon fill="#F58536" points="79.816,71.088 49.992,86 49.992,14 79.816,28.912 		"/>
		<polygon fill="#9D5025" points="44.047,16.973 49.992,14 49.992,86 44.047,83.028 		"/>
		<polygon fill="#9D5025" points="34.236,21.878 38.838,19.577 38.838,80.423 34.236,78.122 		"/>
		<polygon fill="#9D5025" points="26.477,25.758 30.143,23.925 30.143,76.075 26.477,74.241 		"/>
		<polygon fill="#9D5025" points="23.174,27.409 20.184,28.904 20.184,71.097 23.174,72.591 		"/>
	</g>
</g>
<g id="nyt_x5F_exporter_x5F_info" display="none">
	<text display="inline" font-family="'MyriadPro-Regular'" font-size="12">&lt;</text>
	<text transform="matrix(1 0 0 1 7.1519 0)" display="inline" font-family="'MyriadPro-Regular'" font-size="12">n</text>
	<text transform="matrix(1 0 0 1 13.6558 0)" display="inline" font-family="'MyriadPro-Regular'" font-size="12">y</text>
	<text transform="matrix(1 0 0 1 19.3076 0)" display="inline" font-family="'MyriadPro-Regular'" font-size="12">t</text>
	<text transform="matrix(1 0 0 1 23.2798 0)" display="inline" font-family="'MyriadPro-Regular'" font-size="12">_</text>
	<text transform="matrix(1 0 0 1 29.2798 0)" display="inline" font-family="'MyriadPro-Regular'" font-size="12">p</text>
	<text transform="matrix(1 0 0 1 36.1074 0)" display="inline" font-family="'MyriadPro-Regular'" font-size="12">r</text>
	<text transform="matrix(1 0 0 1 39.9111 0)" display="inline" font-family="'MyriadPro-Regular'" font-size="12">e</text>
	<text transform="matrix(1 0 0 1 45.9229 0)" display="inline" font-family="'MyriadPro-Regular'" font-size="12">f</text>
	<text transform="matrix(1 0 0 1 49.3188 0)" display="inline" font-family="'MyriadPro-Regular'" font-size="12">s</text>
	<text transform="matrix(1 0 0 1 54.0713 0)" display="inline" font-family="'MyriadPro-Regular'" font-size="12">&gt;</text>
	<text transform="matrix(1 0 0 1 0 14.3999)" display="inline" font-family="'MyriadPro-Regular'" font-size="12"> </text>
	<text transform="matrix(1 0 0 1 2.5439 14.3999)" display="inline" font-family="'MyriadPro-Regular'" font-size="12"> </text>
	<text transform="matrix(1 0 0 1 5.0879 14.3999)" display="inline" font-family="'MyriadPro-Regular'" font-size="12">&lt;</text>
	<text transform="matrix(1 0 0 1 12.2397 14.3999)" display="inline" font-family="'MyriadPro-Regular'" font-size="12">n</text>
	<text transform="matrix(1 0 0 1 18.7437 14.3999)" display="inline" font-family="'MyriadPro-Regular'" font-size="12">y</text>
	<text transform="matrix(1 0 0 1 24.3955 14.3999)" display="inline" font-family="'MyriadPro-Regular'" font-size="12">t</text>
	<text transform="matrix(1 0 0 1 28.3677 14.3999)" display="inline" font-family="'MyriadPro-Regular'" font-size="12">_</text>
	<text transform="matrix(1 0 0 1 34.3677 14.3999)" display="inline" font-family="'MyriadPro-Regular'" font-size="12">p</text>
	<text transform="matrix(1 0 0 1 41.1953 14.3999)" display="inline" font-family="'MyriadPro-Regular'" font-size="12">r</text>
	<text transform="matrix(1 0 0 1 44.999 14.3999)" display="inline" font-family="'MyriadPro-Regular'" font-size="12">e</text>
	<text transform="matrix(1 0 0 1 51.0117 14.3999)" display="inline" font-family="'MyriadPro-Regular'" font-size="12">f</text>
	<text transform="matrix(1 0 0 1 57.2881 14.3999)" display="inline" font-family="'MyriadPro-Regular'" font-size="12">i</text>
	<text transform="matrix(1 0 0 1 62.8438 14.3999)" display="inline" font-family="'MyriadPro-Regular'" font-size="12">x</text>
	<text transform="matrix(1 0 0 1 69.9961 14.3999)" display="inline" font-family="'MyriadPro-Regular'" font-size="12">&gt;</text>
	<text transform="matrix(1 0 0 1 77.1484 14.3999)" display="inline" font-family="'MyriadPro-Regular'" font-size="12">&lt;</text>
	<text transform="matrix(1 0 0 1 22321204 -8141)" display="inline" font-family="'MyriadPro-Regular'" font-size="12">/</text>
	<text transform="matrix(1 0 0 1 81.2646 14.3999)" display="inline" font-family="'MyriadPro-Regular'" font-size="12">n</text>
	<text transform="matrix(1 0 0 1 87.7686 14.3999)" display="inline" font-family="'MyriadPro-Regular'" font-size="12">y</text>
	<text transform="matrix(1 0 0 1 93.4209 14.3999)" display="inline" font-family="'MyriadPro-Regular'" font-size="12">t</text>
	<text transform="matrix(1 0 0 1 97.3926 14.3999)" display="inline" font-family="'MyriadPro-Regular'" font-size="12">_</text>
	<text transform="matrix(1 0 0 1 103.3926 14.3999)" display="inline" font-family="'MyriadPro-Regular'" font-size="12">p</text>
	<text transform="matrix(1 0 0 1 110.2207 14.3999)" display="inline" font-family="'MyriadPro-Regular'" font-size="12">r</text>
	<text transform="matrix(1 0 0 1 114.0244 14.3999)" display="inline" font-family="'MyriadPro-Regular'" font-size="12">e</text>
	<text transform="matrix(1 0 0 1 120.0361 14.3999)" display="inline" font-family="'MyriadPro-Regular'" font-size="12">f</text>
	<text transform="matrix(1 0 0 1 126.3125 14.3999)" display="inline" font-family="'MyriadPro-Regular'" font-size="12">i</text>
	<text transform="matrix(1 0 0 1 131.8682 14.3999)" display="inline" font-family="'MyriadPro-Regular'" font-size="12">x</text>
	<text transform="matrix(1 0 0 1 29136948 -8141)" display="inline" font-family="'MyriadPro-Regular'" font-size="12">&gt;</text>
	<text transform="matrix(1 0 0 1 0 28.7998)" display="inline" font-family="'MyriadPro-Regular'" font-size="12"> </text>
	<text transform="matrix(1 0 0 1 2.5439 28.7998)" display="inline" font-family="'MyriadPro-Regular'" font-size="12"> </text>
	<text transform="matrix(1 0 0 1 5.0879 28.7998)" display="inline" font-family="'MyriadPro-Regular'" font-size="12">&lt;</text>
	<text transform="matrix(1 0 0 1 12.2397 28.7998)" display="inline" font-family="'MyriadPro-Regular'" font-size="12">n</text>
	<text transform="matrix(1 0 0 1 18.7437 28.7998)" display="inline" font-family="'MyriadPro-Regular'" font-size="12">y</text>
	<text transform="matrix(1 0 0 1 24.3955 28.7998)" display="inline" font-family="'MyriadPro-Regular'" font-size="12">t</text>
	<text transform="matrix(1 0 0 1 28.3677 28.7998)" display="inline" font-family="'MyriadPro-Regular'" font-size="12">_</text>
	<text transform="matrix(1 0 0 1 34.3677 28.7998)" display="inline" font-family="'MyriadPro-Regular'" font-size="12">s</text>
	<text transform="matrix(1 0 0 1 39.1196 28.7998)" display="inline" font-family="'MyriadPro-Regular'" font-size="12">u</text>
	<text transform="matrix(1 0 0 1 45.7314 28.7998)" display="inline" font-family="'MyriadPro-Regular'" font-size="12">f</text>
	<text transform="matrix(1 0 0 1 55.5107 28.7998)" display="inline" font-family="'MyriadPro-Regular'" font-size="12">f</text>
	<text transform="matrix(1 0 0 1 61.0664 28.7998)" display="inline" font-family="'MyriadPro-Regular'" font-size="12">i</text>
	<text transform="matrix(1 0 0 1 68.2188 28.7998)" display="inline" font-family="'MyriadPro-Regular'" font-size="12">x</text>
	<text transform="matrix(1 0 0 1 75.3711 28.7998)" display="inline" font-family="'MyriadPro-Regular'" font-size="12">&gt;</text>
	<text transform="matrix(1 0 0 1 -6061 -8141)" display="inline" font-family="'MyriadPro-Regular'" font-size="12">&lt;</text>
	<text transform="matrix(1 0 0 1 -6051.2148 -8141)" display="inline" font-family="'MyriadPro-Regular'" font-size="12">/</text>
	<text transform="matrix(1 0 0 1 79.4873 28.7998)" display="inline" font-family="'MyriadPro-Regular'" font-size="12">n</text>
	<text transform="matrix(1 0 0 1 85.9922 28.7998)" display="inline" font-family="'MyriadPro-Regular'" font-size="12">y</text>
	<text transform="matrix(1 0 0 1 91.6445 28.7998)" display="inline" font-family="'MyriadPro-Regular'" font-size="12">t</text>
	<text transform="matrix(1 0 0 1 95.6162 28.7998)" display="inline" font-family="'MyriadPro-Regular'" font-size="12">_</text>
	<text transform="matrix(1 0 0 1 101.6162 28.7998)" display="inline" font-family="'MyriadPro-Regular'" font-size="12">s</text>
	<text transform="matrix(1 0 0 1 106.3682 28.7998)" display="inline" font-family="'MyriadPro-Regular'" font-size="12">u</text>
	<text transform="matrix(1 0 0 1 112.9805 28.7998)" display="inline" font-family="'MyriadPro-Regular'" font-size="12">f</text>
	<text transform="matrix(1 0 0 1 122.7607 28.7998)" display="inline" font-family="'MyriadPro-Regular'" font-size="12">f</text>
	<text transform="matrix(1 0 0 1 128.3164 28.7998)" display="inline" font-family="'MyriadPro-Regular'" font-size="12">i</text>
	<text transform="matrix(1 0 0 1 68.2188 28.7998)" display="inline" font-family="'MyriadPro-Regular'" font-size="12">x</text>
	<text transform="matrix(1 0 0 1 75.3711 28.7998)" display="inline" font-family="'MyriadPro-Regular'" font-size="12">&gt;</text>
	<text transform="matrix(1 0 0 1 0 43.2002)" display="inline" font-family="'MyriadPro-Regular'" font-size="12"> </text>
	<text transform="matrix(1 0 0 1 2.5439 43.2002)" display="inline" font-family="'MyriadPro-Regular'" font-size="12"> </text>
	<text transform="matrix(1 0 0 1 5.0879 43.2002)" display="inline" font-family="'MyriadPro-Regular'" font-size="12">&lt;</text>
	<text transform="matrix(1 0 0 1 12.2397 43.2002)" display="inline" font-family="'MyriadPro-Regular'" font-size="12">n</text>
	<text transform="matrix(1 0 0 1 18.7437 43.2002)" display="inline" font-family="'MyriadPro-Regular'" font-size="12">y</text>
	<text transform="matrix(1 0 0 1 24.3955 43.2002)" display="inline" font-family="'MyriadPro-Regular'" font-size="12">t</text>
	<text transform="matrix(1 0 0 1 28.3677 43.2002)" display="inline" font-family="'MyriadPro-Regular'" font-size="12">_</text>
	<text transform="matrix(1 0 0 1 34.3677 43.2002)" display="inline" font-family="'MyriadPro-Regular'" font-size="12">b</text>
	<text transform="matrix(1 0 0 1 41.1953 43.2002)" display="inline" font-family="'MyriadPro-Regular'" font-size="12">a</text>
	<text transform="matrix(1 0 0 1 46.979 43.2002)" display="inline" font-family="'MyriadPro-Regular'" font-size="12">s</text>
	<text transform="matrix(1 0 0 1 51.7305 43.2002)" display="inline" font-family="'MyriadPro-Regular'" font-size="12">e</text>
	<text transform="matrix(1 0 0 1 57.7422 43.2002)" display="inline" font-family="'MyriadPro-Regular'" font-size="12">_</text>
	<text transform="matrix(1 0 0 1 63.7422 43.2002)" display="inline" font-family="'MyriadPro-Regular'" font-size="12">p</text>
	<text transform="matrix(1 0 0 1 70.5703 43.2002)" display="inline" font-family="'MyriadPro-Regular'" font-size="12">a</text>
	<text transform="matrix(1 0 0 1 76.3066 43.2002)" display="inline" font-family="'MyriadPro-Regular'" font-size="12">t</text>
	<text transform="matrix(1 0 0 1 80.2783 43.2002)" display="inline" font-family="'MyriadPro-Regular'" font-size="12">h</text>
	<text transform="matrix(1 0 0 1 86.9385 43.2002)" display="inline" font-family="'MyriadPro-Regular'" font-size="12">&gt;</text>
	<text transform="matrix(1 0 0 1 94.0908 43.2002)" display="inline" font-family="'MyriadPro-Regular'" font-size="12">~</text>
	<text transform="matrix(1 0 0 1 101.2432 43.2002)" display="inline" font-family="'MyriadPro-Regular'" font-size="12">/</text>
	<text transform="matrix(1 0 0 1 105.3594 43.2002)" display="inline" font-family="'MyriadPro-Regular'" font-size="12">D</text>
	<text transform="matrix(1 0 0 1 113.3994 43.2002)" display="inline" font-family="'MyriadPro-Regular'" font-size="12">e</text>
	<text transform="matrix(1 0 0 1 119.4111 43.2002)" display="inline" font-family="'MyriadPro-Regular'" font-size="12">s</text>
	<text transform="matrix(1 0 0 1 124.1631 43.2002)" display="inline" font-family="'MyriadPro-Regular'" font-size="12">k</text>
	<text transform="matrix(1 0 0 1 129.791 43.2002)" display="inline" font-family="'MyriadPro-Regular'" font-size="12">t</text>
	<text transform="matrix(1 0 0 1 133.6914 43.2002)" display="inline" font-family="'MyriadPro-Regular'" font-size="12">o</text>
	<text transform="matrix(1 0 0 1 140.2793 43.2002)" display="inline" font-family="'MyriadPro-Regular'" font-size="12">p</text>
	<text transform="matrix(1 0 0 1 147.1074 43.2002)" display="inline" font-family="'MyriadPro-Regular'" font-size="12">/</text>
	<text transform="matrix(1 0 0 1 151.2236 43.2002)" display="inline" font-family="'MyriadPro-Regular'" font-size="12">w</text>
	<text transform="matrix(1 0 0 1 160.0557 43.2002)" display="inline" font-family="'MyriadPro-Regular'" font-size="12">i</text>
	<text transform="matrix(1 0 0 1 162.8633 43.2002)" display="inline" font-family="'MyriadPro-Regular'" font-size="12">p</text>
	<text transform="matrix(1 0 0 1 169.6914 43.2002)" display="inline" font-family="'MyriadPro-Regular'" font-size="12">/</text>
	<text transform="matrix(1 0 0 1 173.8076 43.2002)" display="inline" font-family="'MyriadPro-Regular'" font-size="12">A</text>
	<text transform="matrix(1 0 0 1 181.1152 43.2002)" display="inline" font-family="'MyriadPro-Regular'" font-size="12">r</text>
	<text transform="matrix(1 0 0 1 184.9189 43.2002)" display="inline" font-family="'MyriadPro-Regular'" font-size="12">c</text>
	<text transform="matrix(1 0 0 1 190.2949 43.2002)" display="inline" font-family="'MyriadPro-Regular'" font-size="12">h</text>
	<text transform="matrix(1 0 0 1 196.9551 43.2002)" display="inline" font-family="'MyriadPro-Regular'" font-size="12">i</text>
	<text transform="matrix(1 0 0 1 199.7627 43.2002)" display="inline" font-family="'MyriadPro-Regular'" font-size="12">t</text>
	<text transform="matrix(1 0 0 1 203.6621 43.2002)" display="inline" font-family="'MyriadPro-Regular'" font-size="12">e</text>
	<text transform="matrix(1 0 0 1 209.6738 43.2002)" display="inline" font-family="'MyriadPro-Regular'" font-size="12">c</text>
	<text transform="matrix(1 0 0 1 215.2061 43.2002)" display="inline" font-family="'MyriadPro-Regular'" font-size="12">t</text>
	<text transform="matrix(1 0 0 1 219.1777 43.2002)" display="inline" font-family="'MyriadPro-Regular'" font-size="12">u</text>
	<text transform="matrix(1 0 0 1 225.79 43.2002)" display="inline" font-family="'MyriadPro-Regular'" font-size="12">r</text>
	<text transform="matrix(1 0 0 1 229.5938 43.2002)" display="inline" font-family="'MyriadPro-Regular'" font-size="12">e</text>
	<text transform="matrix(1 0 0 1 235.6055 43.2002)" display="inline" font-family="'MyriadPro-Regular'" font-size="12">%</text>
	<text transform="matrix(1 0 0 1 245.1094 43.2002)" display="inline" font-family="'MyriadPro-Regular'" font-size="12">2</text>
	<text transform="matrix(1 0 0 1 251.2656 43.2002)" display="inline" font-family="'MyriadPro-Regular'" font-size="12">0</text>
	<text transform="matrix(1 0 0 1 257.4219 43.2002)" display="inline" font-family="'MyriadPro-Regular'" font-size="12">I</text>
	<text transform="matrix(1 0 0 1 260.29 43.2002)" display="inline" font-family="'MyriadPro-Regular'" font-size="12">c</text>
	<text transform="matrix(1 0 0 1 265.5947 43.2002)" display="inline" font-family="'MyriadPro-Regular'" font-size="12">o</text>
	<text transform="matrix(1 0 0 1 272.1826 43.2002)" display="inline" font-family="'MyriadPro-Regular'" font-size="12">n</text>
	<text transform="matrix(1 0 0 1 278.8428 43.2002)" display="inline" font-family="'MyriadPro-Regular'" font-size="12">s</text>
	<text transform="matrix(1 0 0 1 283.5947 43.2002)" display="inline" font-family="'MyriadPro-Regular'" font-size="12">%</text>
	<text transform="matrix(1 0 0 1 293.0986 43.2002)" display="inline" font-family="'MyriadPro-Regular'" font-size="12">2</text>
	<text transform="matrix(1 0 0 1 299.2549 43.2002)" display="inline" font-family="'MyriadPro-Regular'" font-size="12">0</text>
	<text transform="matrix(1 0 0 1 305.4111 43.2002)" display="inline" font-family="'MyriadPro-Regular'" font-size="12">-</text>
	<text transform="matrix(1 0 0 1 309.0947 43.2002)" display="inline" font-family="'MyriadPro-Regular'" font-size="12">%</text>
	<text transform="matrix(1 0 0 1 318.5986 43.2002)" display="inline" font-family="'MyriadPro-Regular'" font-size="12">2</text>
	<text transform="matrix(1 0 0 1 324.7549 43.2002)" display="inline" font-family="'MyriadPro-Regular'" font-size="12">0</text>
	<text transform="matrix(1 0 0 1 330.9111 43.2002)" display="inline" font-family="'MyriadPro-Regular'" font-size="12">U</text>
	<text transform="matrix(1 0 0 1 338.6748 43.2002)" display="inline" font-family="'MyriadPro-Regular'" font-size="12">p</text>
	<text transform="matrix(1 0 0 1 345.5029 43.2002)" display="inline" font-family="'MyriadPro-Regular'" font-size="12">d</text>
	<text transform="matrix(1 0 0 1 352.2705 43.2002)" display="inline" font-family="'MyriadPro-Regular'" font-size="12">a</text>
	<text transform="matrix(1 0 0 1 358.0068 43.2002)" display="inline" font-family="'MyriadPro-Regular'" font-size="12">t</text>
	<text transform="matrix(1 0 0 1 361.9062 43.2002)" display="inline" font-family="'MyriadPro-Regular'" font-size="12">e</text>
	<text transform="matrix(1 0 0 1 367.918 43.2002)" display="inline" font-family="'MyriadPro-Regular'" font-size="12">%</text>
	<text transform="matrix(1 0 0 1 377.4219 43.2002)" display="inline" font-family="'MyriadPro-Regular'" font-size="12">2</text>
	<text transform="matrix(1 0 0 1 383.5781 43.2002)" display="inline" font-family="'MyriadPro-Regular'" font-size="12">0</text>
	<text transform="matrix(1 0 0 1 389.7344 43.2002)" display="inline" font-family="'MyriadPro-Regular'" font-size="12">a</text>
	<text transform="matrix(1 0 0 1 395.5186 43.2002)" display="inline" font-family="'MyriadPro-Regular'" font-size="12">l</text>
	<text transform="matrix(1 0 0 1 398.3506 43.2002)" display="inline" font-family="'MyriadPro-Regular'" font-size="12">l</text>
	<text transform="matrix(1 0 0 1 401.1826 43.2002)" display="inline" font-family="'MyriadPro-Regular'" font-size="12">%</text>
	<text transform="matrix(1 0 0 1 410.6865 43.2002)" display="inline" font-family="'MyriadPro-Regular'" font-size="12">2</text>
	<text transform="matrix(1 0 0 1 416.8428 43.2002)" display="inline" font-family="'MyriadPro-Regular'" font-size="12">0</text>
	<text transform="matrix(1 0 0 1 422.999 43.2002)" display="inline" font-family="'MyriadPro-Regular'" font-size="12">c</text>
	<text transform="matrix(1 0 0 1 428.375 43.2002)" display="inline" font-family="'MyriadPro-Regular'" font-size="12">u</text>
	<text transform="matrix(1 0 0 1 434.9873 43.2002)" display="inline" font-family="'MyriadPro-Regular'" font-size="12">s</text>
	<text transform="matrix(1 0 0 1 439.7393 43.2002)" display="inline" font-family="'MyriadPro-Regular'" font-size="12">t</text>
	<text transform="matrix(1 0 0 1 443.6387 43.2002)" display="inline" font-family="'MyriadPro-Regular'" font-size="12">o</text>
	<text transform="matrix(1 0 0 1 450.2266 43.2002)" display="inline" font-family="'MyriadPro-Regular'" font-size="12">m</text>
	<text transform="matrix(1 0 0 1 460.2344 43.2002)" display="inline" font-family="'MyriadPro-Regular'" font-size="12">e</text>
	<text transform="matrix(1 0 0 1 466.2461 43.2002)" display="inline" font-family="'MyriadPro-Regular'" font-size="12">r</text>
	<text transform="matrix(1 0 0 1 470.1104 43.2002)" display="inline" font-family="'MyriadPro-Regular'" font-size="12">-</text>
	<text transform="matrix(1 0 0 1 473.7939 43.2002)" display="inline" font-family="'MyriadPro-Regular'" font-size="12">f</text>
	<text transform="matrix(1 0 0 1 477.2979 43.2002)" display="inline" font-family="'MyriadPro-Regular'" font-size="12">a</text>
	<text transform="matrix(1 0 0 1 483.082 43.2002)" display="inline" font-family="'MyriadPro-Regular'" font-size="12">c</text>
	<text transform="matrix(1 0 0 1 488.458 43.2002)" display="inline" font-family="'MyriadPro-Regular'" font-size="12">i</text>
	<text transform="matrix(1 0 0 1 491.2656 43.2002)" display="inline" font-family="'MyriadPro-Regular'" font-size="12">n</text>
	<text transform="matrix(1 0 0 1 497.9258 43.2002)" display="inline" font-family="'MyriadPro-Regular'" font-size="12">g</text>
	<text transform="matrix(1 0 0 1 504.6338 43.2002)" display="inline" font-family="'MyriadPro-Regular'" font-size="12">%</text>
	<text transform="matrix(1 0 0 1 514.1377 43.2002)" display="inline" font-family="'MyriadPro-Regular'" font-size="12">2</text>
	<text transform="matrix(1 0 0 1 520.2939 43.2002)" display="inline" font-family="'MyriadPro-Regular'" font-size="12">0</text>
	<text transform="matrix(1 0 0 1 526.4502 43.2002)" display="inline" font-family="'MyriadPro-Regular'" font-size="12">f</text>
	<text transform="matrix(1 0 0 1 532.7266 43.2002)" display="inline" font-family="'MyriadPro-Regular'" font-size="12">i</text>
	<text transform="matrix(1 0 0 1 535.5586 43.2002)" display="inline" font-family="'MyriadPro-Regular'" font-size="12">l</text>
	<text transform="matrix(1 0 0 1 541.5703 43.2002)" display="inline" font-family="'MyriadPro-Regular'" font-size="12">e</text>
	<text transform="matrix(1 0 0 1 546.3223 43.2002)" display="inline" font-family="'MyriadPro-Regular'" font-size="12">s</text>
	<text transform="matrix(1 0 0 1 555.8262 43.2002)" display="inline" font-family="'MyriadPro-Regular'" font-size="12">%</text>
	<text transform="matrix(1 0 0 1 561.9824 43.2002)" display="inline" font-family="'MyriadPro-Regular'" font-size="12">2</text>
	<text transform="matrix(1 0 0 1 568.1387 43.2002)" display="inline" font-family="'MyriadPro-Regular'" font-size="12">0</text>
	<text transform="matrix(1 0 0 1 -8141 -8141)" display="inline" font-family="'MyriadPro-Regular'" font-size="12">/</text>
	<text transform="matrix(1 0 0 1 572.2549 43.2002)" display="inline" font-family="'MyriadPro-Regular'" font-size="12">A</text>
	<text transform="matrix(1 0 0 1 578.9629 43.2002)" display="inline" font-family="'MyriadPro-Regular'" font-size="12">W</text>
	<text transform="matrix(1 0 0 1 589.1152 43.2002)" display="inline" font-family="'MyriadPro-Regular'" font-size="12">S</text>
	<text transform="matrix(1 0 0 1 595.0908 43.2002)" display="inline" font-family="'MyriadPro-Regular'" font-size="12">-</text>
	<text transform="matrix(1 0 0 1 598.7744 43.2002)" display="inline" font-family="'MyriadPro-Regular'" font-size="12">S</text>
	<text transform="matrix(1 0 0 1 604.6904 43.2002)" display="inline" font-family="'MyriadPro-Regular'" font-size="12">i</text>
	<text transform="matrix(1 0 0 1 607.498 43.2002)" display="inline" font-family="'MyriadPro-Regular'" font-size="12">m</text>
	<text transform="matrix(1 0 0 1 617.5059 43.2002)" display="inline" font-family="'MyriadPro-Regular'" font-size="12">p</text>
	<text transform="matrix(1 0 0 1 624.334 43.2002)" display="inline" font-family="'MyriadPro-Regular'" font-size="12">l</text>
	<text transform="matrix(1 0 0 1 627.166 43.2002)" display="inline" font-family="'MyriadPro-Regular'" font-size="12">e</text>
	<text transform="matrix(1 0 0 1 633.5137 43.2002)" display="inline" font-family="'MyriadPro-Regular'" font-size="12">-</text>
	<text transform="matrix(1 0 0 1 637.1973 43.2002)" display="inline" font-family="'MyriadPro-Regular'" font-size="12">I</text>
	<text transform="matrix(1 0 0 1 640.0654 43.2002)" display="inline" font-family="'MyriadPro-Regular'" font-size="12">c</text>
	<text transform="matrix(1 0 0 1 645.3701 43.2002)" display="inline" font-family="'MyriadPro-Regular'" font-size="12">o</text>
	<text transform="matrix(1 0 0 1 651.958 43.2002)" display="inline" font-family="'MyriadPro-Regular'" font-size="12">n</text>
	<text transform="matrix(1 0 0 1 658.6182 43.2002)" display="inline" font-family="'MyriadPro-Regular'" font-size="12">s</text>
	<text transform="matrix(1 0 0 1 663.3701 43.2002)" display="inline" font-family="'MyriadPro-Regular'" font-size="12">%</text>
	<text transform="matrix(1 0 0 1 672.874 43.2002)" display="inline" font-family="'MyriadPro-Regular'" font-size="12">2</text>
	<text transform="matrix(1 0 0 1 679.0303 43.2002)" display="inline" font-family="'MyriadPro-Regular'" font-size="12">0</text>
	<text transform="matrix(1 0 0 1 685.1865 43.2002)" display="inline" font-family="'MyriadPro-Regular'" font-size="12">2</text>
	<text transform="matrix(1 0 0 1 691.3428 43.2002)" display="inline" font-family="'MyriadPro-Regular'" font-size="12">/</text>
	<text transform="matrix(1 0 0 1 695.459 43.2002)" display="inline" font-family="'MyriadPro-Regular'" font-size="12">E</text>
	<text transform="matrix(1 0 0 1 701.3633 43.2002)" display="inline" font-family="'MyriadPro-Regular'" font-size="12">P</text>
	<text transform="matrix(1 0 0 1 707.7471 43.2002)" display="inline" font-family="'MyriadPro-Regular'" font-size="12">S</text>
	<text transform="matrix(1 0 0 1 713.6631 43.2002)" display="inline" font-family="'MyriadPro-Regular'" font-size="12">&lt;</text>
	<text transform="matrix(1 0 0 1 720.8154 43.2002)" display="inline" font-family="'MyriadPro-Regular'" font-size="12">/</text>
	<text transform="matrix(1 0 0 1 724.9316 43.2002)" display="inline" font-family="'MyriadPro-Regular'" font-size="12">n</text>
	<text transform="matrix(1 0 0 1 731.4355 43.2002)" display="inline" font-family="'MyriadPro-Regular'" font-size="12">y</text>
	<text transform="matrix(1 0 0 1 737.0879 43.2002)" display="inline" font-family="'MyriadPro-Regular'" font-size="12">t</text>
	<text transform="matrix(1 0 0 1 741.0596 43.2002)" display="inline" font-family="'MyriadPro-Regular'" font-size="12">_</text>
	<text transform="matrix(1 0 0 1 747.0596 43.2002)" display="inline" font-family="'MyriadPro-Regular'" font-size="12">b</text>
	<text transform="matrix(1 0 0 1 753.8877 43.2002)" display="inline" font-family="'MyriadPro-Regular'" font-size="12">a</text>
	<text transform="matrix(1 0 0 1 759.6719 43.2002)" display="inline" font-family="'MyriadPro-Regular'" font-size="12">s</text>
	<text transform="matrix(1 0 0 1 764.4238 43.2002)" display="inline" font-family="'MyriadPro-Regular'" font-size="12">e</text>
	<text transform="matrix(1 0 0 1 770.4355 43.2002)" display="inline" font-family="'MyriadPro-Regular'" font-size="12">_</text>
	<text transform="matrix(1 0 0 1 776.4355 43.2002)" display="inline" font-family="'MyriadPro-Regular'" font-size="12">p</text>
	<text transform="matrix(1 0 0 1 783.2637 43.2002)" display="inline" font-family="'MyriadPro-Regular'" font-size="12">a</text>
	<text transform="matrix(1 0 0 1 789 43.2002)" display="inline" font-family="'MyriadPro-Regular'" font-size="12">t</text>
	<text transform="matrix(1 0 0 1 792.9717 43.2002)" display="inline" font-family="'MyriadPro-Regular'" font-size="12">h</text>
	<text transform="matrix(1 0 0 1 799.6318 43.2002)" display="inline" font-family="'MyriadPro-Regular'" font-size="12">&gt;</text>
	<text transform="matrix(1 0 0 1 0 57.5996)" display="inline" font-family="'MyriadPro-Regular'" font-size="12"> </text>
	<text transform="matrix(1 0 0 1 2.5439 57.5996)" display="inline" font-family="'MyriadPro-Regular'" font-size="12"> </text>
	<text transform="matrix(1 0 0 1 5.0879 57.5996)" display="inline" font-family="'MyriadPro-Regular'" font-size="12">&lt;</text>
	<text transform="matrix(1 0 0 1 12.2397 57.5996)" display="inline" font-family="'MyriadPro-Regular'" font-size="12">n</text>
	<text transform="matrix(1 0 0 1 18.7437 57.5996)" display="inline" font-family="'MyriadPro-Regular'" font-size="12">y</text>
	<text transform="matrix(1 0 0 1 24.3955 57.5996)" display="inline" font-family="'MyriadPro-Regular'" font-size="12">t</text>
	<text transform="matrix(1 0 0 1 28.3677 57.5996)" display="inline" font-family="'MyriadPro-Regular'" font-size="12">_</text>
	<text transform="matrix(1 0 0 1 34.3677 57.5996)" display="inline" font-family="'MyriadPro-Regular'" font-size="12">s</text>
	<text transform="matrix(1 0 0 1 39.1196 57.5996)" display="inline" font-family="'MyriadPro-Regular'" font-size="12">c</text>
	<text transform="matrix(1 0 0 1 44.4956 57.5996)" display="inline" font-family="'MyriadPro-Regular'" font-size="12">a</text>
	<text transform="matrix(1 0 0 1 50.2798 57.5996)" display="inline" font-family="'MyriadPro-Regular'" font-size="12">l</text>
	<text transform="matrix(1 0 0 1 53.1113 57.5996)" display="inline" font-family="'MyriadPro-Regular'" font-size="12">i</text>
	<text transform="matrix(1 0 0 1 55.9189 57.5996)" display="inline" font-family="'MyriadPro-Regular'" font-size="12">n</text>
	<text transform="matrix(1 0 0 1 62.5791 57.5996)" display="inline" font-family="'MyriadPro-Regular'" font-size="12">g</text>
	<text transform="matrix(1 0 0 1 69.2871 57.5996)" display="inline" font-family="'MyriadPro-Regular'" font-size="12">&gt;</text>
	<text transform="matrix(1 0 0 1 76.4395 57.5996)" display="inline" font-family="'MyriadPro-Regular'" font-size="12">1</text>
	<text transform="matrix(1 0 0 1 82.5957 57.5996)" display="inline" font-family="'MyriadPro-Regular'" font-size="12">0</text>
	<text transform="matrix(1 0 0 1 88.752 57.5996)" display="inline" font-family="'MyriadPro-Regular'" font-size="12">0</text>
	<text transform="matrix(1 0 0 1 94.9082 57.5996)" display="inline" font-family="'MyriadPro-Regular'" font-size="12">&lt;</text>
	<text transform="matrix(1 0 0 1 102.0605 57.5996)" display="inline" font-family="'MyriadPro-Regular'" font-size="12">/</text>
	<text transform="matrix(1 0 0 1 106.1768 57.5996)" display="inline" font-family="'MyriadPro-Regular'" font-size="12">n</text>
	<text transform="matrix(1 0 0 1 112.6816 57.5996)" display="inline" font-family="'MyriadPro-Regular'" font-size="12">y</text>
	<text transform="matrix(1 0 0 1 118.334 57.5996)" display="inline" font-family="'MyriadPro-Regular'" font-size="12">t</text>
	<text transform="matrix(1 0 0 1 122.3057 57.5996)" display="inline" font-family="'MyriadPro-Regular'" font-size="12">_</text>
	<text transform="matrix(1 0 0 1 128.3057 57.5996)" display="inline" font-family="'MyriadPro-Regular'" font-size="12">s</text>
	<text transform="matrix(1 0 0 1 133.0576 57.5996)" display="inline" font-family="'MyriadPro-Regular'" font-size="12">c</text>
	<text transform="matrix(1 0 0 1 138.4336 57.5996)" display="inline" font-family="'MyriadPro-Regular'" font-size="12">a</text>
	<text transform="matrix(1 0 0 1 144.2178 57.5996)" display="inline" font-family="'MyriadPro-Regular'" font-size="12">l</text>
	<text transform="matrix(1 0 0 1 147.0498 57.5996)" display="inline" font-family="'MyriadPro-Regular'" font-size="12">i</text>
	<text transform="matrix(1 0 0 1 149.8574 57.5996)" display="inline" font-family="'MyriadPro-Regular'" font-size="12">n</text>
	<text transform="matrix(1 0 0 1 156.5176 57.5996)" display="inline" font-family="'MyriadPro-Regular'" font-size="12">g</text>
	<text transform="matrix(1 0 0 1 163.2256 57.5996)" display="inline" font-family="'MyriadPro-Regular'" font-size="12">&gt;</text>
	<text transform="matrix(1 0 0 1 0 72)" display="inline" font-family="'MyriadPro-Regular'" font-size="12"> </text>
	<text transform="matrix(1 0 0 1 2.5439 72)" display="inline" font-family="'MyriadPro-Regular'" font-size="12"> </text>
	<text transform="matrix(1 0 0 1 5.0879 72)" display="inline" font-family="'MyriadPro-Regular'" font-size="12">&lt;</text>
	<text transform="matrix(1 0 0 1 12.2397 72)" display="inline" font-family="'MyriadPro-Regular'" font-size="12">n</text>
	<text transform="matrix(1 0 0 1 18.7437 72)" display="inline" font-family="'MyriadPro-Regular'" font-size="12">y</text>
	<text transform="matrix(1 0 0 1 24.3955 72)" display="inline" font-family="'MyriadPro-Regular'" font-size="12">t</text>
	<text transform="matrix(1 0 0 1 28.3677 72)" display="inline" font-family="'MyriadPro-Regular'" font-size="12">_</text>
	<text transform="matrix(1 0 0 1 34.3677 72)" display="inline" font-family="'MyriadPro-Regular'" font-size="12">t</text>
	<text transform="matrix(1 0 0 1 38.3394 72)" display="inline" font-family="'MyriadPro-Regular'" font-size="12">r</text>
	<text transform="matrix(1 0 0 1 42.2031 72)" display="inline" font-family="'MyriadPro-Regular'" font-size="12">a</text>
	<text transform="matrix(1 0 0 1 47.9873 72)" display="inline" font-family="'MyriadPro-Regular'" font-size="12">n</text>
	<text transform="matrix(1 0 0 1 54.6475 72)" display="inline" font-family="'MyriadPro-Regular'" font-size="12">s</text>
	<text transform="matrix(1 0 0 1 59.3994 72)" display="inline" font-family="'MyriadPro-Regular'" font-size="12">p</text>
	<text transform="matrix(1 0 0 1 66.2275 72)" display="inline" font-family="'MyriadPro-Regular'" font-size="12">a</text>
	<text transform="matrix(1 0 0 1 72.0117 72)" display="inline" font-family="'MyriadPro-Regular'" font-size="12">r</text>
	<text transform="matrix(1 0 0 1 75.8154 72)" display="inline" font-family="'MyriadPro-Regular'" font-size="12">e</text>
	<text transform="matrix(1 0 0 1 81.8271 72)" display="inline" font-family="'MyriadPro-Regular'" font-size="12">n</text>
	<text transform="matrix(1 0 0 1 88.4873 72)" display="inline" font-family="'MyriadPro-Regular'" font-size="12">c</text>
	<text transform="matrix(1 0 0 1 94.0791 72)" display="inline" font-family="'MyriadPro-Regular'" font-size="12">y</text>
	<text transform="matrix(1 0 0 1 99.7314 72)" display="inline" font-family="'MyriadPro-Regular'" font-size="12">&gt;</text>
	<text transform="matrix(1 0 0 1 106.8838 72)" display="inline" font-family="'MyriadPro-Regular'" font-size="12">t</text>
	<text transform="matrix(1 0 0 1 110.8555 72)" display="inline" font-family="'MyriadPro-Regular'" font-size="12">r</text>
	<text transform="matrix(1 0 0 1 114.7793 72)" display="inline" font-family="'MyriadPro-Regular'" font-size="12">u</text>
	<text transform="matrix(1 0 0 1 121.3916 72)" display="inline" font-family="'MyriadPro-Regular'" font-size="12">e</text>
	<text transform="matrix(1 0 0 1 127.4033 72)" display="inline" font-family="'MyriadPro-Regular'" font-size="12">&lt;</text>
	<text transform="matrix(1 0 0 1 134.5557 72)" display="inline" font-family="'MyriadPro-Regular'" font-size="12">/</text>
	<text transform="matrix(1 0 0 1 138.6719 72)" display="inline" font-family="'MyriadPro-Regular'" font-size="12">n</text>
	<text transform="matrix(1 0 0 1 145.1768 72)" display="inline" font-family="'MyriadPro-Regular'" font-size="12">y</text>
	<text transform="matrix(1 0 0 1 150.8291 72)" display="inline" font-family="'MyriadPro-Regular'" font-size="12">t</text>
	<text transform="matrix(1 0 0 1 154.8008 72)" display="inline" font-family="'MyriadPro-Regular'" font-size="12">_</text>
	<text transform="matrix(1 0 0 1 160.8008 72)" display="inline" font-family="'MyriadPro-Regular'" font-size="12">t</text>
	<text transform="matrix(1 0 0 1 164.7725 72)" display="inline" font-family="'MyriadPro-Regular'" font-size="12">r</text>
	<text transform="matrix(1 0 0 1 168.6367 72)" display="inline" font-family="'MyriadPro-Regular'" font-size="12">a</text>
	<text transform="matrix(1 0 0 1 174.4199 72)" display="inline" font-family="'MyriadPro-Regular'" font-size="12">n</text>
	<text transform="matrix(1 0 0 1 181.0801 72)" display="inline" font-family="'MyriadPro-Regular'" font-size="12">s</text>
	<text transform="matrix(1 0 0 1 185.832 72)" display="inline" font-family="'MyriadPro-Regular'" font-size="12">p</text>
	<text transform="matrix(1 0 0 1 192.6602 72)" display="inline" font-family="'MyriadPro-Regular'" font-size="12">a</text>
	<text transform="matrix(1 0 0 1 198.4453 72)" display="inline" font-family="'MyriadPro-Regular'" font-size="12">r</text>
	<text transform="matrix(1 0 0 1 202.249 72)" display="inline" font-family="'MyriadPro-Regular'" font-size="12">e</text>
	<text transform="matrix(1 0 0 1 208.2607 72)" display="inline" font-family="'MyriadPro-Regular'" font-size="12">n</text>
	<text transform="matrix(1 0 0 1 214.9209 72)" display="inline" font-family="'MyriadPro-Regular'" font-size="12">c</text>
	<text transform="matrix(1 0 0 1 220.5127 72)" display="inline" font-family="'MyriadPro-Regular'" font-size="12">y</text>
	<text transform="matrix(1 0 0 1 226.165 72)" display="inline" font-family="'MyriadPro-Regular'" font-size="12">&gt;</text>
	<text transform="matrix(1 0 0 1 0 86.4004)" display="inline" font-family="'MyriadPro-Regular'" font-size="12"> </text>
	<text transform="matrix(1 0 0 1 2.5439 86.4004)" display="inline" font-family="'MyriadPro-Regular'" font-size="12"> </text>
	<text transform="matrix(1 0 0 1 5.0879 86.4004)" display="inline" font-family="'MyriadPro-Regular'" font-size="12">&lt;</text>
	<text transform="matrix(1 0 0 1 12.2397 86.4004)" display="inline" font-family="'MyriadPro-Regular'" font-size="12">n</text>
	<text transform="matrix(1 0 0 1 18.7437 86.4004)" display="inline" font-family="'MyriadPro-Regular'" font-size="12">y</text>
	<text transform="matrix(1 0 0 1 24.3955 86.4004)" display="inline" font-family="'MyriadPro-Regular'" font-size="12">t</text>
	<text transform="matrix(1 0 0 1 28.3677 86.4004)" display="inline" font-family="'MyriadPro-Regular'" font-size="12">_</text>
	<text transform="matrix(1 0 0 1 34.3677 86.4004)" display="inline" font-family="'MyriadPro-Regular'" font-size="12">f</text>
	<text transform="matrix(1 0 0 1 37.7158 86.4004)" display="inline" font-family="'MyriadPro-Regular'" font-size="12">o</text>
	<text transform="matrix(1 0 0 1 44.3037 86.4004)" display="inline" font-family="'MyriadPro-Regular'" font-size="12">r</text>
	<text transform="matrix(1 0 0 1 48.2754 86.4004)" display="inline" font-family="'MyriadPro-Regular'" font-size="12">m</text>
	<text transform="matrix(1 0 0 1 58.2832 86.4004)" display="inline" font-family="'MyriadPro-Regular'" font-size="12">a</text>
	<text transform="matrix(1 0 0 1 64.0195 86.4004)" display="inline" font-family="'MyriadPro-Regular'" font-size="12">t</text>
	<text transform="matrix(1 0 0 1 67.9912 86.4004)" display="inline" font-family="'MyriadPro-Regular'" font-size="12">&gt;</text>
	<text transform="matrix(1 0 0 1 75.1436 86.4004)" display="inline" font-family="'MyriadPro-Regular'" font-size="12">E</text>
	<text transform="matrix(1 0 0 1 81.0479 86.4004)" display="inline" font-family="'MyriadPro-Regular'" font-size="12">P</text>
	<text transform="matrix(1 0 0 1 87.4316 86.4004)" display="inline" font-family="'MyriadPro-Regular'" font-size="12">S</text>
	<text transform="matrix(1 0 0 1 93.3477 86.4004)" display="inline" font-family="'MyriadPro-Regular'" font-size="12">&lt;</text>
	<text transform="matrix(1 0 0 1 100.5 86.4004)" display="inline" font-family="'MyriadPro-Regular'" font-size="12">/</text>
	<text transform="matrix(1 0 0 1 104.6162 86.4004)" display="inline" font-family="'MyriadPro-Regular'" font-size="12">n</text>
	<text transform="matrix(1 0 0 1 111.1201 86.4004)" display="inline" font-family="'MyriadPro-Regular'" font-size="12">y</text>
	<text transform="matrix(1 0 0 1 116.7725 86.4004)" display="inline" font-family="'MyriadPro-Regular'" font-size="12">t</text>
	<text transform="matrix(1 0 0 1 120.7441 86.4004)" display="inline" font-family="'MyriadPro-Regular'" font-size="12">_</text>
	<text transform="matrix(1 0 0 1 126.7441 86.4004)" display="inline" font-family="'MyriadPro-Regular'" font-size="12">f</text>
	<text transform="matrix(1 0 0 1 130.0928 86.4004)" display="inline" font-family="'MyriadPro-Regular'" font-size="12">o</text>
	<text transform="matrix(1 0 0 1 136.6807 86.4004)" display="inline" font-family="'MyriadPro-Regular'" font-size="12">r</text>
	<text transform="matrix(1 0 0 1 140.6523 86.4004)" display="inline" font-family="'MyriadPro-Regular'" font-size="12">m</text>
	<text transform="matrix(1 0 0 1 150.6602 86.4004)" display="inline" font-family="'MyriadPro-Regular'" font-size="12">a</text>
	<text transform="matrix(1 0 0 1 156.3965 86.4004)" display="inline" font-family="'MyriadPro-Regular'" font-size="12">t</text>
	<text transform="matrix(1 0 0 1 160.3682 86.4004)" display="inline" font-family="'MyriadPro-Regular'" font-size="12">&gt;</text>
	<text transform="matrix(1 0 0 1 0 100.7998)" display="inline" font-family="'MyriadPro-Regular'" font-size="12"> </text>
	<text transform="matrix(1 0 0 1 2.5439 100.7998)" display="inline" font-family="'MyriadPro-Regular'" font-size="12"> </text>
	<text transform="matrix(1 0 0 1 5.0879 100.7998)" display="inline" font-family="'MyriadPro-Regular'" font-size="12">&lt;</text>
	<text transform="matrix(1 0 0 1 12.2397 100.7998)" display="inline" font-family="'MyriadPro-Regular'" font-size="12">n</text>
	<text transform="matrix(1 0 0 1 18.7437 100.7998)" display="inline" font-family="'MyriadPro-Regular'" font-size="12">y</text>
	<text transform="matrix(1 0 0 1 24.3955 100.7998)" display="inline" font-family="'MyriadPro-Regular'" font-size="12">t</text>
	<text transform="matrix(1 0 0 1 28.3677 100.7998)" display="inline" font-family="'MyriadPro-Regular'" font-size="12">_</text>
	<text transform="matrix(1 0 0 1 34.3677 100.7998)" display="inline" font-family="'MyriadPro-Regular'" font-size="12">e</text>
	<text transform="matrix(1 0 0 1 40.3433 100.7998)" display="inline" font-family="'MyriadPro-Regular'" font-size="12">x</text>
	<text transform="matrix(1 0 0 1 45.8994 100.7998)" display="inline" font-family="'MyriadPro-Regular'" font-size="12">p</text>
	<text transform="matrix(1 0 0 1 52.7275 100.7998)" display="inline" font-family="'MyriadPro-Regular'" font-size="12">o</text>
	<text transform="matrix(1 0 0 1 59.3154 100.7998)" display="inline" font-family="'MyriadPro-Regular'" font-size="12">r</text>
	<text transform="matrix(1 0 0 1 63.5264 100.7998)" display="inline" font-family="'MyriadPro-Regular'" font-size="12">t</text>
	<text transform="matrix(1 0 0 1 67.498 100.7998)" display="inline" font-family="'MyriadPro-Regular'" font-size="12">_</text>
	<text transform="matrix(1 0 0 1 73.498 100.7998)" display="inline" font-family="'MyriadPro-Regular'" font-size="12">c</text>
	<text transform="matrix(1 0 0 1 78.8027 100.7998)" display="inline" font-family="'MyriadPro-Regular'" font-size="12">o</text>
	<text transform="matrix(1 0 0 1 85.3906 100.7998)" display="inline" font-family="'MyriadPro-Regular'" font-size="12">d</text>
	<text transform="matrix(1 0 0 1 92.1582 100.7998)" display="inline" font-family="'MyriadPro-Regular'" font-size="12">e</text>
	<text transform="matrix(1 0 0 1 98.1699 100.7998)" display="inline" font-family="'MyriadPro-Regular'" font-size="12">&gt;</text>
	<text transform="matrix(1 0 0 1 105.3223 100.7998)" display="inline" font-family="'MyriadPro-Regular'" font-size="12">a</text>
	<text transform="matrix(1 0 0 1 111.1064 100.7998)" display="inline" font-family="'MyriadPro-Regular'" font-size="12">r</text>
	<text transform="matrix(1 0 0 1 115.3184 100.7998)" display="inline" font-family="'MyriadPro-Regular'" font-size="12">t</text>
	<text transform="matrix(1 0 0 1 119.2891 100.7998)" display="inline" font-family="'MyriadPro-Regular'" font-size="12">b</text>
	<text transform="matrix(1 0 0 1 126.1172 100.7998)" display="inline" font-family="'MyriadPro-Regular'" font-size="12">o</text>
	<text transform="matrix(1 0 0 1 132.7051 100.7998)" display="inline" font-family="'MyriadPro-Regular'" font-size="12">a</text>
	<text transform="matrix(1 0 0 1 138.4902 100.7998)" display="inline" font-family="'MyriadPro-Regular'" font-size="12">r</text>
	<text transform="matrix(1 0 0 1 142.2939 100.7998)" display="inline" font-family="'MyriadPro-Regular'" font-size="12">d</text>
	<text transform="matrix(1 0 0 1 149.0615 100.7998)" display="inline" font-family="'MyriadPro-Regular'" font-size="12">s</text>
	<text transform="matrix(1 0 0 1 153.8135 100.7998)" display="inline" font-family="'MyriadPro-Regular'" font-size="12">&lt;</text>
	<text transform="matrix(1 0 0 1 160.9658 100.7998)" display="inline" font-family="'MyriadPro-Regular'" font-size="12">/</text>
	<text transform="matrix(1 0 0 1 165.082 100.7998)" display="inline" font-family="'MyriadPro-Regular'" font-size="12">n</text>
	<text transform="matrix(1 0 0 1 171.5859 100.7998)" display="inline" font-family="'MyriadPro-Regular'" font-size="12">y</text>
	<text transform="matrix(1 0 0 1 177.2383 100.7998)" display="inline" font-family="'MyriadPro-Regular'" font-size="12">t</text>
	<text transform="matrix(1 0 0 1 181.21 100.7998)" display="inline" font-family="'MyriadPro-Regular'" font-size="12">_</text>
	<text transform="matrix(1 0 0 1 187.21 100.7998)" display="inline" font-family="'MyriadPro-Regular'" font-size="12">e</text>
	<text transform="matrix(1 0 0 1 193.1855 100.7998)" display="inline" font-family="'MyriadPro-Regular'" font-size="12">x</text>
	<text transform="matrix(1 0 0 1 198.7412 100.7998)" display="inline" font-family="'MyriadPro-Regular'" font-size="12">p</text>
	<text transform="matrix(1 0 0 1 205.5693 100.7998)" display="inline" font-family="'MyriadPro-Regular'" font-size="12">o</text>
	<text transform="matrix(1 0 0 1 212.1572 100.7998)" display="inline" font-family="'MyriadPro-Regular'" font-size="12">r</text>
	<text transform="matrix(1 0 0 1 216.3691 100.7998)" display="inline" font-family="'MyriadPro-Regular'" font-size="12">t</text>
	<text transform="matrix(1 0 0 1 220.3408 100.7998)" display="inline" font-family="'MyriadPro-Regular'" font-size="12">_</text>
	<text transform="matrix(1 0 0 1 226.3408 100.7998)" display="inline" font-family="'MyriadPro-Regular'" font-size="12">c</text>
	<text transform="matrix(1 0 0 1 231.6445 100.7998)" display="inline" font-family="'MyriadPro-Regular'" font-size="12">o</text>
	<text transform="matrix(1 0 0 1 238.2324 100.7998)" display="inline" font-family="'MyriadPro-Regular'" font-size="12">d</text>
	<text transform="matrix(1 0 0 1 245 100.7998)" display="inline" font-family="'MyriadPro-Regular'" font-size="12">e</text>
	<text transform="matrix(1 0 0 1 251.0117 100.7998)" display="inline" font-family="'MyriadPro-Regular'" font-size="12">&gt;</text>
	<text transform="matrix(1 0 0 1 0 115.2002)" display="inline" font-family="'MyriadPro-Regular'" font-size="12">&lt;</text>
	<text transform="matrix(1 0 0 1 7.1519 115.2002)" display="inline" font-family="'MyriadPro-Regular'" font-size="12">/</text>
	<text transform="matrix(1 0 0 1 11.2676 115.2002)" display="inline" font-family="'MyriadPro-Regular'" font-size="12">n</text>
	<text transform="matrix(1 0 0 1 17.772 115.2002)" display="inline" font-family="'MyriadPro-Regular'" font-size="12">y</text>
	<text transform="matrix(1 0 0 1 23.4238 115.2002)" display="inline" font-family="'MyriadPro-Regular'" font-size="12">t</text>
	<text transform="matrix(1 0 0 1 27.396 115.2002)" display="inline" font-family="'MyriadPro-Regular'" font-size="12">_</text>
	<text transform="matrix(1 0 0 1 33.396 115.2002)" display="inline" font-family="'MyriadPro-Regular'" font-size="12">p</text>
	<text transform="matrix(1 0 0 1 40.2236 115.2002)" display="inline" font-family="'MyriadPro-Regular'" font-size="12">r</text>
	<text transform="matrix(1 0 0 1 44.0273 115.2002)" display="inline" font-family="'MyriadPro-Regular'" font-size="12">e</text>
	<text transform="matrix(1 0 0 1 50.0391 115.2002)" display="inline" font-family="'MyriadPro-Regular'" font-size="12">f</text>
	<text transform="matrix(1 0 0 1 53.4346 115.2002)" display="inline" font-family="'MyriadPro-Regular'" font-size="12">s</text>
	<text transform="matrix(1 0 0 1 58.1865 115.2002)" display="inline" font-family="'MyriadPro-Regular'" font-size="12">&gt;</text>
</g>
</svg>
