<?xml version="1.0" encoding="utf-8"?>
<!-- Generator: Adobe Illustrator 16.0.4, SVG Export Plug-In . SVG Version: 6.00 Build 0)  -->
<!DOCTYPE svg PUBLIC "-//W3C//DTD SVG 1.1//EN" "http://www.w3.org/Graphics/SVG/1.1/DTD/svg11.dtd">
<svg version="1.1" xmlns="http://www.w3.org/2000/svg" xmlns:xlink="http://www.w3.org/1999/xlink" x="0px" y="0px" width="100px"
	 height="100px" viewBox="0 0 100 100" enable-background="new 0 0 100 100" xml:space="preserve">
<g id="Amazon_CloudSearch">
	<g>
		<polygon fill="#D9A741" points="79.797,39.572 74.859,38.355 74.859,26.43 79.797,28.898 		"/>
		<polygon fill="#624A1E" points="79.845,39.584 73.527,40.228 68.283,39.174 74.948,38.377 		"/>
		<polygon fill="#876929" points="74.859,26.43 68.283,28.028 68.283,39.174 74.859,38.388 		"/>
		<polygon fill="#D9A741" points="79.783,56.279 50,60.754 50,39.584 79.783,43.879 		"/>
		<polygon fill="#D9A741" points="71.959,37.641 64.857,35.89 64.857,21.429 71.959,24.979 		"/>
		<polygon fill="#876929" points="57.754,37.057 64.857,35.908 64.857,21.429 57.754,23.764 		"/>
		<polygon fill="#624A1E" points="71.959,37.641 65.118,38.537 57.754,37.057 64.901,35.9 		"/>
		<polygon fill="#D9A741" points="60.93,34.922 50,32.227 50,14 60.93,19.465 		"/>
		<polygon fill="#876929" points="20.203,39.572 25.141,38.355 25.141,26.43 20.203,28.898 		"/>
		<polygon fill="#624A1E" points="20.155,39.584 26.473,40.228 31.717,39.174 25.051,38.377 		"/>
		<polygon fill="#D9A741" points="25.141,26.43 31.717,28.028 31.717,39.174 25.141,38.388 		"/>
		<polygon fill="#876929" points="20.217,56.279 50,60.754 50,39.584 20.217,43.879 		"/>
		<polygon fill="#876929" points="28.041,37.641 35.143,35.89 35.143,21.429 28.041,24.979 		"/>
		<polygon fill="#D9A741" points="42.246,37.057 35.143,35.908 35.143,21.429 42.246,23.764 		"/>
		<polygon fill="#624A1E" points="28.041,37.641 34.881,38.537 42.246,37.057 35.099,35.9 		"/>
		<polygon fill="#876929" points="39.07,34.922 50,32.227 50,14 39.07,19.465 		"/>
		<polygon fill="#624A1E" points="60.93,34.922 50,36.904 39.07,34.922 50,32.227 		"/>
		<polygon fill="#D9A741" points="79.797,60.428 74.859,61.645 74.859,73.57 79.797,71.102 		"/>
		<polygon fill="#FAD791" points="79.845,60.416 73.527,59.772 68.283,60.826 74.948,61.623 		"/>
		<polygon fill="#876929" points="74.859,73.57 68.283,71.972 68.283,60.826 74.859,61.612 		"/>
		<polygon fill="#D9A741" points="71.959,62.359 64.857,64.11 64.857,78.571 71.959,75.021 		"/>
		<polygon fill="#876929" points="57.754,62.942 64.857,64.093 64.857,78.571 57.754,76.236 		"/>
		<polygon fill="#FAD791" points="71.959,62.359 65.118,61.462 57.754,62.942 64.901,64.1 		"/>
		<polygon fill="#D9A741" points="60.93,65.079 50,67.772 50,86 60.93,80.535 		"/>
		<polygon fill="#876929" points="20.203,60.428 25.141,61.645 25.141,73.57 20.203,71.102 		"/>
		<polygon fill="#FAD791" points="20.155,60.416 26.473,59.772 31.717,60.826 25.051,61.623 		"/>
		<polygon fill="#D9A741" points="25.141,73.57 31.717,71.972 31.717,60.826 25.141,61.612 		"/>
		<polygon fill="#876929" points="28.041,62.359 35.143,64.11 35.143,78.571 28.041,75.021 		"/>
		<polygon fill="#D9A741" points="42.246,62.942 35.143,64.093 35.143,78.571 42.246,76.236 		"/>
		<polygon fill="#FAD791" points="28.041,62.359 34.881,61.462 42.246,62.942 35.099,64.1 		"/>
		<polygon fill="#876929" points="39.07,65.079 50,67.772 50,86 39.07,80.535 		"/>
		<polygon fill="#FAD791" points="60.93,65.079 50,63.096 39.07,65.079 50,67.772 		"/>
	</g>
</g>
<g id="nyt_x5F_exporter_x5F_info" display="none">
</g>
</svg>
