<?xml version="1.0" encoding="utf-8"?>
<!-- Generator: Adobe Illustrator 18.1.1, SVG Export Plug-In . SVG Version: 6.00 Build 0)  -->
<!DOCTYPE svg PUBLIC "-//W3C//DTD SVG 1.1//EN" "http://www.w3.org/Graphics/SVG/1.1/DTD/svg11.dtd">
<svg version="1.1" xmlns="http://www.w3.org/2000/svg" xmlns:xlink="http://www.w3.org/1999/xlink" x="0px" y="0px"
	 viewBox="0 0 100 100" enable-background="new 0 0 100 100" xml:space="preserve">
<g id="Approved">
	<g>
		<polygon fill="#FBBF93" points="79.9,64.8 50,60.5 20.1,64.8 50.1,75.3 		"/>
		<polygon fill="#9D5025" points="50,50 61.2,50 61.2,25.7 50,28.9 		"/>
		<polygon fill="#9D5025" points="61.2,50 69.9,50 69.9,34.4 61.2,35.8 		"/>
		<polygon fill="#9D5025" points="69.9,50 76.9,50 76.9,31.9 69.9,33.2 		"/>
		<polygon fill="#F58536" points="56,17 50,14 50,50 56,50 		"/>
		<polygon fill="#F58536" points="65.8,27.5 61.2,25.7 61.2,50 65.8,50 		"/>
		<polygon fill="#F58536" points="73.4,35.4 69.9,34.4 69.9,50 73.4,50 		"/>
		<polygon fill="#F58536" points="76.9,31.9 79.9,33.1 79.9,50 76.9,50 		"/>
		<polygon fill="#F58536" points="79.8,60.5 49.9,67.9 49.9,57.2 79.8,54.2 		"/>
		<polygon fill="#F58536" points="79.9,64.8 49.9,75.4 49.9,86 79.9,71 		"/>
		<polygon fill="#9D5025" points="20.1,64.8 49.9,75.3 49.9,86 20.1,71.1 		"/>
		<polygon fill="#9D5025" points="20.1,54.2 49.9,57.2 49.9,67.9 20.1,60.5 		"/>
		<polygon fill="#9D5025" points="20.1,50 50,50 50,14 20.1,28.9 		"/>
		<polygon fill="#FBBF93" points="79.8,54.2 49.9,53 20.1,54.2 49.9,57.2 		"/>
	</g>
</g>
<g id="Approved_Outlined" display="none">
</g>
<g id="Approved_2" display="none">
</g>
</svg>
