<?xml version="1.0" encoding="utf-8"?>
<!-- Generator: Adobe Illustrator 16.0.0, SVG Export Plug-In . SVG Version: 6.00 Build 0)  -->
<svg version="1.2" baseProfile="tiny" xmlns="http://www.w3.org/2000/svg" xmlns:xlink="http://www.w3.org/1999/xlink" x="0px"
	 y="0px" width="100px" height="100px" viewBox="0 0 100 100" xml:space="preserve">
<g id="Layer_1">
	<g>
		<polygon fill="#1A476F" points="18.055,70.088 25.535,78.854 25.535,21.138 18.055,29.901 		"/>
		<polygon fill="#205B98" points="25.536,78.854 39.829,86 39.839,13.999 25.536,21.122 		"/>
		<polygon fill="#2D72B8" points="81.945,29.901 74.463,21.138 74.463,78.854 81.945,70.089 		"/>
		<polygon fill="#5294CF" points="60.17,86 74.463,78.854 74.463,21.122 60.16,13.999 		"/>
		<rect x="39.839" y="13.999" fill="#2D72B8" width="20.321" height="72.002"/>
	</g>
</g>
<g id="nyt_x5F_exporter_x5F_info" display="none">
	<text transform="matrix(1 0 0 1 -255 0)" display="inline" font-family="'MyriadPro-Regular'" font-size="12">&lt;</text>
	<text transform="matrix(1 0 0 1 -247.8481 0)" display="inline" font-family="'MyriadPro-Regular'" font-size="12">n</text>
	<text transform="matrix(1 0 0 1 -241.3442 0)" display="inline" font-family="'MyriadPro-Regular'" font-size="12">y</text>
	<text transform="matrix(1 0 0 1 -235.6924 0)" display="inline" font-family="'MyriadPro-Regular'" font-size="12">t</text>
	<text transform="matrix(1 0 0 1 -231.7202 0)" display="inline" font-family="'MyriadPro-Regular'" font-size="12">_</text>
	<text transform="matrix(1 0 0 1 -225.7202 0)" display="inline" font-family="'MyriadPro-Regular'" font-size="12">p</text>
	<text transform="matrix(1 0 0 1 -218.8926 0)" display="inline" font-family="'MyriadPro-Regular'" font-size="12">r</text>
	<text transform="matrix(1 0 0 1 -215.0889 0)" display="inline" font-family="'MyriadPro-Regular'" font-size="12">e</text>
	<text transform="matrix(1 0 0 1 -209.0771 0)" display="inline" font-family="'MyriadPro-Regular'" font-size="12">f</text>
	<text transform="matrix(1 0 0 1 -205.6812 0)" display="inline" font-family="'MyriadPro-Regular'" font-size="12">s</text>
	<text transform="matrix(1 0 0 1 -200.9287 0)" display="inline" font-family="'MyriadPro-Regular'" font-size="12">&gt;</text>
	<text transform="matrix(1 0 0 1 -255 14.3999)" display="inline" font-family="'MyriadPro-Regular'" font-size="12"> </text>
	<text transform="matrix(1 0 0 1 -252.4561 14.3999)" display="inline" font-family="'MyriadPro-Regular'" font-size="12"> </text>
	<text transform="matrix(1 0 0 1 -249.9121 14.3999)" display="inline" font-family="'MyriadPro-Regular'" font-size="12">&lt;</text>
	<text transform="matrix(1 0 0 1 -242.7603 14.3999)" display="inline" font-family="'MyriadPro-Regular'" font-size="12">n</text>
	<text transform="matrix(1 0 0 1 -236.2563 14.3999)" display="inline" font-family="'MyriadPro-Regular'" font-size="12">y</text>
	<text transform="matrix(1 0 0 1 -230.6045 14.3999)" display="inline" font-family="'MyriadPro-Regular'" font-size="12">t</text>
	<text transform="matrix(1 0 0 1 -226.6323 14.3999)" display="inline" font-family="'MyriadPro-Regular'" font-size="12">_</text>
	<text transform="matrix(1 0 0 1 -220.6323 14.3999)" display="inline" font-family="'MyriadPro-Regular'" font-size="12">p</text>
	<text transform="matrix(1 0 0 1 -213.8047 14.3999)" display="inline" font-family="'MyriadPro-Regular'" font-size="12">r</text>
	<text transform="matrix(1 0 0 1 -210.001 14.3999)" display="inline" font-family="'MyriadPro-Regular'" font-size="12">e</text>
	<text transform="matrix(1 0 0 1 -203.9883 14.3999)" display="inline" font-family="'MyriadPro-Regular'" font-size="12">f</text>
	<text transform="matrix(1 0 0 1 -197.7119 14.3999)" display="inline" font-family="'MyriadPro-Regular'" font-size="12">i</text>
	<text transform="matrix(1 0 0 1 -192.1562 14.3999)" display="inline" font-family="'MyriadPro-Regular'" font-size="12">x</text>
	<text transform="matrix(1 0 0 1 -185.0039 14.3999)" display="inline" font-family="'MyriadPro-Regular'" font-size="12">&gt;</text>
	<text transform="matrix(1 0 0 1 -177.8516 14.3999)" display="inline" font-family="'MyriadPro-Regular'" font-size="12">&lt;</text>
	<text transform="matrix(1 0 0 1 0 -8141)" display="inline" font-family="'MyriadPro-Regular'" font-size="12">/</text>
	<text transform="matrix(1 0 0 1 -173.7354 14.3999)" display="inline" font-family="'MyriadPro-Regular'" font-size="12">n</text>
	<text transform="matrix(1 0 0 1 -167.2314 14.3999)" display="inline" font-family="'MyriadPro-Regular'" font-size="12">y</text>
	<text transform="matrix(1 0 0 1 -161.5791 14.3999)" display="inline" font-family="'MyriadPro-Regular'" font-size="12">t</text>
	<text transform="matrix(1 0 0 1 -157.6074 14.3999)" display="inline" font-family="'MyriadPro-Regular'" font-size="12">_</text>
	<text transform="matrix(1 0 0 1 -151.6074 14.3999)" display="inline" font-family="'MyriadPro-Regular'" font-size="12">p</text>
	<text transform="matrix(1 0 0 1 -144.7793 14.3999)" display="inline" font-family="'MyriadPro-Regular'" font-size="12">r</text>
	<text transform="matrix(1 0 0 1 -140.9756 14.3999)" display="inline" font-family="'MyriadPro-Regular'" font-size="12">e</text>
	<text transform="matrix(1 0 0 1 -134.9639 14.3999)" display="inline" font-family="'MyriadPro-Regular'" font-size="12">f</text>
	<text transform="matrix(1 0 0 1 -128.6875 14.3999)" display="inline" font-family="'MyriadPro-Regular'" font-size="12">i</text>
	<text transform="matrix(1 0 0 1 -123.1318 14.3999)" display="inline" font-family="'MyriadPro-Regular'" font-size="12">x</text>
	<text transform="matrix(1 0 0 1 -8396 -8141)" display="inline" font-family="'MyriadPro-Regular'" font-size="12">&gt;</text>
	<text transform="matrix(1 0 0 1 -255 28.7998)" display="inline" font-family="'MyriadPro-Regular'" font-size="12"> </text>
	<text transform="matrix(1 0 0 1 -252.4561 28.7998)" display="inline" font-family="'MyriadPro-Regular'" font-size="12"> </text>
	<text transform="matrix(1 0 0 1 -249.9121 28.7998)" display="inline" font-family="'MyriadPro-Regular'" font-size="12">&lt;</text>
	<text transform="matrix(1 0 0 1 -242.7603 28.7998)" display="inline" font-family="'MyriadPro-Regular'" font-size="12">n</text>
	<text transform="matrix(1 0 0 1 -236.2563 28.7998)" display="inline" font-family="'MyriadPro-Regular'" font-size="12">y</text>
	<text transform="matrix(1 0 0 1 -230.6045 28.7998)" display="inline" font-family="'MyriadPro-Regular'" font-size="12">t</text>
	<text transform="matrix(1 0 0 1 -226.6323 28.7998)" display="inline" font-family="'MyriadPro-Regular'" font-size="12">_</text>
	<text transform="matrix(1 0 0 1 -220.6323 28.7998)" display="inline" font-family="'MyriadPro-Regular'" font-size="12">s</text>
	<text transform="matrix(1 0 0 1 -215.8804 28.7998)" display="inline" font-family="'MyriadPro-Regular'" font-size="12">u</text>
	<text transform="matrix(1 0 0 1 -209.2686 28.7998)" display="inline" font-family="'MyriadPro-Regular'" font-size="12">f</text>
	<text transform="matrix(1 0 0 1 -199.4893 28.7998)" display="inline" font-family="'MyriadPro-Regular'" font-size="12">f</text>
	<text transform="matrix(1 0 0 1 -193.9336 28.7998)" display="inline" font-family="'MyriadPro-Regular'" font-size="12">i</text>
	<text transform="matrix(1 0 0 1 -186.7812 28.7998)" display="inline" font-family="'MyriadPro-Regular'" font-size="12">x</text>
	<text transform="matrix(1 0 0 1 -179.6289 28.7998)" display="inline" font-family="'MyriadPro-Regular'" font-size="12">&gt;</text>
	<text transform="matrix(1 0 0 1 58513204 -8141)" display="inline" font-family="'MyriadPro-Regular'" font-size="12">&lt;</text>
	<text transform="matrix(1 0 0 1 58589044 -8141)" display="inline" font-family="'MyriadPro-Regular'" font-size="12">/</text>
	<text transform="matrix(1 0 0 1 -175.5127 28.7998)" display="inline" font-family="'MyriadPro-Regular'" font-size="12">n</text>
	<text transform="matrix(1 0 0 1 -169.0078 28.7998)" display="inline" font-family="'MyriadPro-Regular'" font-size="12">y</text>
	<text transform="matrix(1 0 0 1 -163.3555 28.7998)" display="inline" font-family="'MyriadPro-Regular'" font-size="12">t</text>
	<text transform="matrix(1 0 0 1 -159.3838 28.7998)" display="inline" font-family="'MyriadPro-Regular'" font-size="12">_</text>
	<text transform="matrix(1 0 0 1 -153.3838 28.7998)" display="inline" font-family="'MyriadPro-Regular'" font-size="12">s</text>
	<text transform="matrix(1 0 0 1 -148.6318 28.7998)" display="inline" font-family="'MyriadPro-Regular'" font-size="12">u</text>
	<text transform="matrix(1 0 0 1 -142.0195 28.7998)" display="inline" font-family="'MyriadPro-Regular'" font-size="12">f</text>
	<text transform="matrix(1 0 0 1 -132.2393 28.7998)" display="inline" font-family="'MyriadPro-Regular'" font-size="12">f</text>
	<text transform="matrix(1 0 0 1 -126.6836 28.7998)" display="inline" font-family="'MyriadPro-Regular'" font-size="12">i</text>
	<text transform="matrix(1 0 0 1 -186.7812 28.7998)" display="inline" font-family="'MyriadPro-Regular'" font-size="12">x</text>
	<text transform="matrix(1 0 0 1 -179.6289 28.7998)" display="inline" font-family="'MyriadPro-Regular'" font-size="12">&gt;</text>
	<text transform="matrix(1 0 0 1 -255 43.2002)" display="inline" font-family="'MyriadPro-Regular'" font-size="12"> </text>
	<text transform="matrix(1 0 0 1 -252.4561 43.2002)" display="inline" font-family="'MyriadPro-Regular'" font-size="12"> </text>
	<text transform="matrix(1 0 0 1 -249.9121 43.2002)" display="inline" font-family="'MyriadPro-Regular'" font-size="12">&lt;</text>
	<text transform="matrix(1 0 0 1 -242.7603 43.2002)" display="inline" font-family="'MyriadPro-Regular'" font-size="12">n</text>
	<text transform="matrix(1 0 0 1 -236.2563 43.2002)" display="inline" font-family="'MyriadPro-Regular'" font-size="12">y</text>
	<text transform="matrix(1 0 0 1 -230.6045 43.2002)" display="inline" font-family="'MyriadPro-Regular'" font-size="12">t</text>
	<text transform="matrix(1 0 0 1 -226.6323 43.2002)" display="inline" font-family="'MyriadPro-Regular'" font-size="12">_</text>
	<text transform="matrix(1 0 0 1 -220.6323 43.2002)" display="inline" font-family="'MyriadPro-Regular'" font-size="12">b</text>
	<text transform="matrix(1 0 0 1 -213.8047 43.2002)" display="inline" font-family="'MyriadPro-Regular'" font-size="12">a</text>
	<text transform="matrix(1 0 0 1 -208.021 43.2002)" display="inline" font-family="'MyriadPro-Regular'" font-size="12">s</text>
	<text transform="matrix(1 0 0 1 -203.2695 43.2002)" display="inline" font-family="'MyriadPro-Regular'" font-size="12">e</text>
	<text transform="matrix(1 0 0 1 -197.2578 43.2002)" display="inline" font-family="'MyriadPro-Regular'" font-size="12">_</text>
	<text transform="matrix(1 0 0 1 -191.2578 43.2002)" display="inline" font-family="'MyriadPro-Regular'" font-size="12">p</text>
	<text transform="matrix(1 0 0 1 -184.4297 43.2002)" display="inline" font-family="'MyriadPro-Regular'" font-size="12">a</text>
	<text transform="matrix(1 0 0 1 -178.6934 43.2002)" display="inline" font-family="'MyriadPro-Regular'" font-size="12">t</text>
	<text transform="matrix(1 0 0 1 -174.7217 43.2002)" display="inline" font-family="'MyriadPro-Regular'" font-size="12">h</text>
	<text transform="matrix(1 0 0 1 -168.0615 43.2002)" display="inline" font-family="'MyriadPro-Regular'" font-size="12">&gt;</text>
	<text transform="matrix(1 0 0 1 -160.9092 43.2002)" display="inline" font-family="'MyriadPro-Regular'" font-size="12">~</text>
	<text transform="matrix(1 0 0 1 -153.7568 43.2002)" display="inline" font-family="'MyriadPro-Regular'" font-size="12">/</text>
	<text transform="matrix(1 0 0 1 -149.6406 43.2002)" display="inline" font-family="'MyriadPro-Regular'" font-size="12">D</text>
	<text transform="matrix(1 0 0 1 -141.6006 43.2002)" display="inline" font-family="'MyriadPro-Regular'" font-size="12">e</text>
	<text transform="matrix(1 0 0 1 -135.5889 43.2002)" display="inline" font-family="'MyriadPro-Regular'" font-size="12">s</text>
	<text transform="matrix(1 0 0 1 -130.8369 43.2002)" display="inline" font-family="'MyriadPro-Regular'" font-size="12">k</text>
	<text transform="matrix(1 0 0 1 -125.209 43.2002)" display="inline" font-family="'MyriadPro-Regular'" font-size="12">t</text>
	<text transform="matrix(1 0 0 1 -121.3086 43.2002)" display="inline" font-family="'MyriadPro-Regular'" font-size="12">o</text>
	<text transform="matrix(1 0 0 1 -114.7207 43.2002)" display="inline" font-family="'MyriadPro-Regular'" font-size="12">p</text>
	<text transform="matrix(1 0 0 1 -107.8926 43.2002)" display="inline" font-family="'MyriadPro-Regular'" font-size="12">/</text>
	<text transform="matrix(1 0 0 1 -103.7764 43.2002)" display="inline" font-family="'MyriadPro-Regular'" font-size="12">w</text>
	<text transform="matrix(1 0 0 1 -94.9443 43.2002)" display="inline" font-family="'MyriadPro-Regular'" font-size="12">i</text>
	<text transform="matrix(1 0 0 1 -92.1367 43.2002)" display="inline" font-family="'MyriadPro-Regular'" font-size="12">p</text>
	<text transform="matrix(1 0 0 1 -85.3086 43.2002)" display="inline" font-family="'MyriadPro-Regular'" font-size="12">/</text>
	<text transform="matrix(1 0 0 1 -81.1924 43.2002)" display="inline" font-family="'MyriadPro-Regular'" font-size="12">A</text>
	<text transform="matrix(1 0 0 1 -73.8848 43.2002)" display="inline" font-family="'MyriadPro-Regular'" font-size="12">r</text>
	<text transform="matrix(1 0 0 1 -70.0811 43.2002)" display="inline" font-family="'MyriadPro-Regular'" font-size="12">c</text>
	<text transform="matrix(1 0 0 1 -64.7051 43.2002)" display="inline" font-family="'MyriadPro-Regular'" font-size="12">h</text>
	<text transform="matrix(1 0 0 1 -58.0449 43.2002)" display="inline" font-family="'MyriadPro-Regular'" font-size="12">i</text>
	<text transform="matrix(1 0 0 1 -55.2373 43.2002)" display="inline" font-family="'MyriadPro-Regular'" font-size="12">t</text>
	<text transform="matrix(1 0 0 1 -51.3379 43.2002)" display="inline" font-family="'MyriadPro-Regular'" font-size="12">e</text>
	<text transform="matrix(1 0 0 1 -45.3262 43.2002)" display="inline" font-family="'MyriadPro-Regular'" font-size="12">c</text>
	<text transform="matrix(1 0 0 1 -39.7939 43.2002)" display="inline" font-family="'MyriadPro-Regular'" font-size="12">t</text>
	<text transform="matrix(1 0 0 1 -35.8223 43.2002)" display="inline" font-family="'MyriadPro-Regular'" font-size="12">u</text>
	<text transform="matrix(1 0 0 1 -29.21 43.2002)" display="inline" font-family="'MyriadPro-Regular'" font-size="12">r</text>
	<text transform="matrix(1 0 0 1 -25.4062 43.2002)" display="inline" font-family="'MyriadPro-Regular'" font-size="12">e</text>
	<text transform="matrix(1 0 0 1 -19.3945 43.2002)" display="inline" font-family="'MyriadPro-Regular'" font-size="12">%</text>
	<text transform="matrix(1 0 0 1 -9.8906 43.2002)" display="inline" font-family="'MyriadPro-Regular'" font-size="12">2</text>
	<text transform="matrix(1 0 0 1 -3.7344 43.2002)" display="inline" font-family="'MyriadPro-Regular'" font-size="12">0</text>
	<text transform="matrix(1 0 0 1 2.4219 43.2002)" display="inline" font-family="'MyriadPro-Regular'" font-size="12">I</text>
	<text transform="matrix(1 0 0 1 5.29 43.2002)" display="inline" font-family="'MyriadPro-Regular'" font-size="12">c</text>
	<text transform="matrix(1 0 0 1 10.5947 43.2002)" display="inline" font-family="'MyriadPro-Regular'" font-size="12">o</text>
	<text transform="matrix(1 0 0 1 17.1826 43.2002)" display="inline" font-family="'MyriadPro-Regular'" font-size="12">n</text>
	<text transform="matrix(1 0 0 1 23.8428 43.2002)" display="inline" font-family="'MyriadPro-Regular'" font-size="12">s</text>
	<text transform="matrix(1 0 0 1 28.5947 43.2002)" display="inline" font-family="'MyriadPro-Regular'" font-size="12">%</text>
	<text transform="matrix(1 0 0 1 38.0986 43.2002)" display="inline" font-family="'MyriadPro-Regular'" font-size="12">2</text>
	<text transform="matrix(1 0 0 1 44.2549 43.2002)" display="inline" font-family="'MyriadPro-Regular'" font-size="12">0</text>
	<text transform="matrix(1 0 0 1 50.4111 43.2002)" display="inline" font-family="'MyriadPro-Regular'" font-size="12">-</text>
	<text transform="matrix(1 0 0 1 54.0947 43.2002)" display="inline" font-family="'MyriadPro-Regular'" font-size="12">%</text>
	<text transform="matrix(1 0 0 1 63.5986 43.2002)" display="inline" font-family="'MyriadPro-Regular'" font-size="12">2</text>
	<text transform="matrix(1 0 0 1 69.7549 43.2002)" display="inline" font-family="'MyriadPro-Regular'" font-size="12">0</text>
	<text transform="matrix(1 0 0 1 75.9111 43.2002)" display="inline" font-family="'MyriadPro-Regular'" font-size="12">U</text>
	<text transform="matrix(1 0 0 1 83.6748 43.2002)" display="inline" font-family="'MyriadPro-Regular'" font-size="12">p</text>
	<text transform="matrix(1 0 0 1 90.5029 43.2002)" display="inline" font-family="'MyriadPro-Regular'" font-size="12">d</text>
	<text transform="matrix(1 0 0 1 97.2705 43.2002)" display="inline" font-family="'MyriadPro-Regular'" font-size="12">a</text>
	<text transform="matrix(1 0 0 1 103.0068 43.2002)" display="inline" font-family="'MyriadPro-Regular'" font-size="12">t</text>
	<text transform="matrix(1 0 0 1 106.9062 43.2002)" display="inline" font-family="'MyriadPro-Regular'" font-size="12">e</text>
	<text transform="matrix(1 0 0 1 112.918 43.2002)" display="inline" font-family="'MyriadPro-Regular'" font-size="12">%</text>
	<text transform="matrix(1 0 0 1 122.4219 43.2002)" display="inline" font-family="'MyriadPro-Regular'" font-size="12">2</text>
	<text transform="matrix(1 0 0 1 128.5781 43.2002)" display="inline" font-family="'MyriadPro-Regular'" font-size="12">0</text>
	<text transform="matrix(1 0 0 1 134.7344 43.2002)" display="inline" font-family="'MyriadPro-Regular'" font-size="12">a</text>
	<text transform="matrix(1 0 0 1 140.5186 43.2002)" display="inline" font-family="'MyriadPro-Regular'" font-size="12">l</text>
	<text transform="matrix(1 0 0 1 143.3506 43.2002)" display="inline" font-family="'MyriadPro-Regular'" font-size="12">l</text>
	<text transform="matrix(1 0 0 1 146.1826 43.2002)" display="inline" font-family="'MyriadPro-Regular'" font-size="12">%</text>
	<text transform="matrix(1 0 0 1 155.6865 43.2002)" display="inline" font-family="'MyriadPro-Regular'" font-size="12">2</text>
	<text transform="matrix(1 0 0 1 161.8428 43.2002)" display="inline" font-family="'MyriadPro-Regular'" font-size="12">0</text>
	<text transform="matrix(1 0 0 1 167.999 43.2002)" display="inline" font-family="'MyriadPro-Regular'" font-size="12">c</text>
	<text transform="matrix(1 0 0 1 173.375 43.2002)" display="inline" font-family="'MyriadPro-Regular'" font-size="12">u</text>
	<text transform="matrix(1 0 0 1 179.9873 43.2002)" display="inline" font-family="'MyriadPro-Regular'" font-size="12">s</text>
	<text transform="matrix(1 0 0 1 184.7393 43.2002)" display="inline" font-family="'MyriadPro-Regular'" font-size="12">t</text>
	<text transform="matrix(1 0 0 1 188.6387 43.2002)" display="inline" font-family="'MyriadPro-Regular'" font-size="12">o</text>
	<text transform="matrix(1 0 0 1 195.2266 43.2002)" display="inline" font-family="'MyriadPro-Regular'" font-size="12">m</text>
	<text transform="matrix(1 0 0 1 205.2344 43.2002)" display="inline" font-family="'MyriadPro-Regular'" font-size="12">e</text>
	<text transform="matrix(1 0 0 1 211.2461 43.2002)" display="inline" font-family="'MyriadPro-Regular'" font-size="12">r</text>
	<text transform="matrix(1 0 0 1 215.1104 43.2002)" display="inline" font-family="'MyriadPro-Regular'" font-size="12">-</text>
	<text transform="matrix(1 0 0 1 218.7939 43.2002)" display="inline" font-family="'MyriadPro-Regular'" font-size="12">f</text>
	<text transform="matrix(1 0 0 1 222.2979 43.2002)" display="inline" font-family="'MyriadPro-Regular'" font-size="12">a</text>
	<text transform="matrix(1 0 0 1 228.082 43.2002)" display="inline" font-family="'MyriadPro-Regular'" font-size="12">c</text>
	<text transform="matrix(1 0 0 1 233.458 43.2002)" display="inline" font-family="'MyriadPro-Regular'" font-size="12">i</text>
	<text transform="matrix(1 0 0 1 236.2656 43.2002)" display="inline" font-family="'MyriadPro-Regular'" font-size="12">n</text>
	<text transform="matrix(1 0 0 1 242.9258 43.2002)" display="inline" font-family="'MyriadPro-Regular'" font-size="12">g</text>
	<text transform="matrix(1 0 0 1 249.6338 43.2002)" display="inline" font-family="'MyriadPro-Regular'" font-size="12">%</text>
	<text transform="matrix(1 0 0 1 259.1377 43.2002)" display="inline" font-family="'MyriadPro-Regular'" font-size="12">2</text>
	<text transform="matrix(1 0 0 1 265.2939 43.2002)" display="inline" font-family="'MyriadPro-Regular'" font-size="12">0</text>
	<text transform="matrix(1 0 0 1 271.4502 43.2002)" display="inline" font-family="'MyriadPro-Regular'" font-size="12">f</text>
	<text transform="matrix(1 0 0 1 277.7266 43.2002)" display="inline" font-family="'MyriadPro-Regular'" font-size="12">i</text>
	<text transform="matrix(1 0 0 1 280.5586 43.2002)" display="inline" font-family="'MyriadPro-Regular'" font-size="12">l</text>
	<text transform="matrix(1 0 0 1 286.5703 43.2002)" display="inline" font-family="'MyriadPro-Regular'" font-size="12">e</text>
	<text transform="matrix(1 0 0 1 291.3223 43.2002)" display="inline" font-family="'MyriadPro-Regular'" font-size="12">s</text>
	<text transform="matrix(1 0 0 1 300.8262 43.2002)" display="inline" font-family="'MyriadPro-Regular'" font-size="12">%</text>
	<text transform="matrix(1 0 0 1 306.9824 43.2002)" display="inline" font-family="'MyriadPro-Regular'" font-size="12">2</text>
	<text transform="matrix(1 0 0 1 313.1387 43.2002)" display="inline" font-family="'MyriadPro-Regular'" font-size="12">0</text>
	<text transform="matrix(1 0 0 1 -8396 -8141)" display="inline" font-family="'MyriadPro-Regular'" font-size="12">/</text>
	<text transform="matrix(1 0 0 1 317.2549 43.2002)" display="inline" font-family="'MyriadPro-Regular'" font-size="12">A</text>
	<text transform="matrix(1 0 0 1 323.9629 43.2002)" display="inline" font-family="'MyriadPro-Regular'" font-size="12">W</text>
	<text transform="matrix(1 0 0 1 334.1152 43.2002)" display="inline" font-family="'MyriadPro-Regular'" font-size="12">S</text>
	<text transform="matrix(1 0 0 1 340.0908 43.2002)" display="inline" font-family="'MyriadPro-Regular'" font-size="12">-</text>
	<text transform="matrix(1 0 0 1 343.7744 43.2002)" display="inline" font-family="'MyriadPro-Regular'" font-size="12">S</text>
	<text transform="matrix(1 0 0 1 349.6904 43.2002)" display="inline" font-family="'MyriadPro-Regular'" font-size="12">i</text>
	<text transform="matrix(1 0 0 1 352.498 43.2002)" display="inline" font-family="'MyriadPro-Regular'" font-size="12">m</text>
	<text transform="matrix(1 0 0 1 362.5059 43.2002)" display="inline" font-family="'MyriadPro-Regular'" font-size="12">p</text>
	<text transform="matrix(1 0 0 1 369.334 43.2002)" display="inline" font-family="'MyriadPro-Regular'" font-size="12">l</text>
	<text transform="matrix(1 0 0 1 372.166 43.2002)" display="inline" font-family="'MyriadPro-Regular'" font-size="12">e</text>
	<text transform="matrix(1 0 0 1 378.5137 43.2002)" display="inline" font-family="'MyriadPro-Regular'" font-size="12">-</text>
	<text transform="matrix(1 0 0 1 382.1973 43.2002)" display="inline" font-family="'MyriadPro-Regular'" font-size="12">I</text>
	<text transform="matrix(1 0 0 1 385.0654 43.2002)" display="inline" font-family="'MyriadPro-Regular'" font-size="12">c</text>
	<text transform="matrix(1 0 0 1 390.3701 43.2002)" display="inline" font-family="'MyriadPro-Regular'" font-size="12">o</text>
	<text transform="matrix(1 0 0 1 396.958 43.2002)" display="inline" font-family="'MyriadPro-Regular'" font-size="12">n</text>
	<text transform="matrix(1 0 0 1 403.6182 43.2002)" display="inline" font-family="'MyriadPro-Regular'" font-size="12">s</text>
	<text transform="matrix(1 0 0 1 408.3701 43.2002)" display="inline" font-family="'MyriadPro-Regular'" font-size="12">%</text>
	<text transform="matrix(1 0 0 1 417.874 43.2002)" display="inline" font-family="'MyriadPro-Regular'" font-size="12">2</text>
	<text transform="matrix(1 0 0 1 424.0303 43.2002)" display="inline" font-family="'MyriadPro-Regular'" font-size="12">0</text>
	<text transform="matrix(1 0 0 1 430.1865 43.2002)" display="inline" font-family="'MyriadPro-Regular'" font-size="12">2</text>
	<text transform="matrix(1 0 0 1 436.3428 43.2002)" display="inline" font-family="'MyriadPro-Regular'" font-size="12">/</text>
	<text transform="matrix(1 0 0 1 440.459 43.2002)" display="inline" font-family="'MyriadPro-Regular'" font-size="12">D</text>
	<text transform="matrix(1 0 0 1 448.4512 43.2002)" display="inline" font-family="'MyriadPro-Regular'" font-size="12">a</text>
	<text transform="matrix(1 0 0 1 454.1875 43.2002)" display="inline" font-family="'MyriadPro-Regular'" font-size="12">t</text>
	<text transform="matrix(1 0 0 1 458.1592 43.2002)" display="inline" font-family="'MyriadPro-Regular'" font-size="12">a</text>
	<text transform="matrix(1 0 0 1 463.9434 43.2002)" display="inline" font-family="'MyriadPro-Regular'" font-size="12">b</text>
	<text transform="matrix(1 0 0 1 470.7715 43.2002)" display="inline" font-family="'MyriadPro-Regular'" font-size="12">a</text>
	<text transform="matrix(1 0 0 1 476.5557 43.2002)" display="inline" font-family="'MyriadPro-Regular'" font-size="12">s</text>
	<text transform="matrix(1 0 0 1 481.3076 43.2002)" display="inline" font-family="'MyriadPro-Regular'" font-size="12">e</text>
	<text transform="matrix(1 0 0 1 487.3193 43.2002)" display="inline" font-family="'MyriadPro-Regular'" font-size="12">/</text>
	<text transform="matrix(1 0 0 1 491.4355 43.2002)" display="inline" font-family="'MyriadPro-Regular'" font-size="12">E</text>
	<text transform="matrix(1 0 0 1 497.3398 43.2002)" display="inline" font-family="'MyriadPro-Regular'" font-size="12">P</text>
	<text transform="matrix(1 0 0 1 503.7236 43.2002)" display="inline" font-family="'MyriadPro-Regular'" font-size="12">S</text>
	<text transform="matrix(1 0 0 1 509.6396 43.2002)" display="inline" font-family="'MyriadPro-Regular'" font-size="12">&lt;</text>
	<text transform="matrix(1 0 0 1 516.792 43.2002)" display="inline" font-family="'MyriadPro-Regular'" font-size="12">/</text>
	<text transform="matrix(1 0 0 1 520.9082 43.2002)" display="inline" font-family="'MyriadPro-Regular'" font-size="12">n</text>
	<text transform="matrix(1 0 0 1 527.4121 43.2002)" display="inline" font-family="'MyriadPro-Regular'" font-size="12">y</text>
	<text transform="matrix(1 0 0 1 533.0645 43.2002)" display="inline" font-family="'MyriadPro-Regular'" font-size="12">t</text>
	<text transform="matrix(1 0 0 1 537.0361 43.2002)" display="inline" font-family="'MyriadPro-Regular'" font-size="12">_</text>
	<text transform="matrix(1 0 0 1 543.0361 43.2002)" display="inline" font-family="'MyriadPro-Regular'" font-size="12">b</text>
	<text transform="matrix(1 0 0 1 549.8643 43.2002)" display="inline" font-family="'MyriadPro-Regular'" font-size="12">a</text>
	<text transform="matrix(1 0 0 1 555.6484 43.2002)" display="inline" font-family="'MyriadPro-Regular'" font-size="12">s</text>
	<text transform="matrix(1 0 0 1 560.4004 43.2002)" display="inline" font-family="'MyriadPro-Regular'" font-size="12">e</text>
	<text transform="matrix(1 0 0 1 566.4121 43.2002)" display="inline" font-family="'MyriadPro-Regular'" font-size="12">_</text>
	<text transform="matrix(1 0 0 1 572.4121 43.2002)" display="inline" font-family="'MyriadPro-Regular'" font-size="12">p</text>
	<text transform="matrix(1 0 0 1 579.2402 43.2002)" display="inline" font-family="'MyriadPro-Regular'" font-size="12">a</text>
	<text transform="matrix(1 0 0 1 584.9766 43.2002)" display="inline" font-family="'MyriadPro-Regular'" font-size="12">t</text>
	<text transform="matrix(1 0 0 1 588.9482 43.2002)" display="inline" font-family="'MyriadPro-Regular'" font-size="12">h</text>
	<text transform="matrix(1 0 0 1 595.6084 43.2002)" display="inline" font-family="'MyriadPro-Regular'" font-size="12">&gt;</text>
	<text transform="matrix(1 0 0 1 -255 57.5996)" display="inline" font-family="'MyriadPro-Regular'" font-size="12"> </text>
	<text transform="matrix(1 0 0 1 -252.4561 57.5996)" display="inline" font-family="'MyriadPro-Regular'" font-size="12"> </text>
	<text transform="matrix(1 0 0 1 -249.9121 57.5996)" display="inline" font-family="'MyriadPro-Regular'" font-size="12">&lt;</text>
	<text transform="matrix(1 0 0 1 -242.7603 57.5996)" display="inline" font-family="'MyriadPro-Regular'" font-size="12">n</text>
	<text transform="matrix(1 0 0 1 -236.2563 57.5996)" display="inline" font-family="'MyriadPro-Regular'" font-size="12">y</text>
	<text transform="matrix(1 0 0 1 -230.6045 57.5996)" display="inline" font-family="'MyriadPro-Regular'" font-size="12">t</text>
	<text transform="matrix(1 0 0 1 -226.6323 57.5996)" display="inline" font-family="'MyriadPro-Regular'" font-size="12">_</text>
	<text transform="matrix(1 0 0 1 -220.6323 57.5996)" display="inline" font-family="'MyriadPro-Regular'" font-size="12">s</text>
	<text transform="matrix(1 0 0 1 -215.8804 57.5996)" display="inline" font-family="'MyriadPro-Regular'" font-size="12">c</text>
	<text transform="matrix(1 0 0 1 -210.5044 57.5996)" display="inline" font-family="'MyriadPro-Regular'" font-size="12">a</text>
	<text transform="matrix(1 0 0 1 -204.7202 57.5996)" display="inline" font-family="'MyriadPro-Regular'" font-size="12">l</text>
	<text transform="matrix(1 0 0 1 -201.8887 57.5996)" display="inline" font-family="'MyriadPro-Regular'" font-size="12">i</text>
	<text transform="matrix(1 0 0 1 -199.0811 57.5996)" display="inline" font-family="'MyriadPro-Regular'" font-size="12">n</text>
	<text transform="matrix(1 0 0 1 -192.4209 57.5996)" display="inline" font-family="'MyriadPro-Regular'" font-size="12">g</text>
	<text transform="matrix(1 0 0 1 -185.7129 57.5996)" display="inline" font-family="'MyriadPro-Regular'" font-size="12">&gt;</text>
	<text transform="matrix(1 0 0 1 -178.5605 57.5996)" display="inline" font-family="'MyriadPro-Regular'" font-size="12">1</text>
	<text transform="matrix(1 0 0 1 -172.4043 57.5996)" display="inline" font-family="'MyriadPro-Regular'" font-size="12">0</text>
	<text transform="matrix(1 0 0 1 -166.248 57.5996)" display="inline" font-family="'MyriadPro-Regular'" font-size="12">0</text>
	<text transform="matrix(1 0 0 1 -160.0918 57.5996)" display="inline" font-family="'MyriadPro-Regular'" font-size="12">&lt;</text>
	<text transform="matrix(1 0 0 1 -152.9395 57.5996)" display="inline" font-family="'MyriadPro-Regular'" font-size="12">/</text>
	<text transform="matrix(1 0 0 1 -148.8232 57.5996)" display="inline" font-family="'MyriadPro-Regular'" font-size="12">n</text>
	<text transform="matrix(1 0 0 1 -142.3184 57.5996)" display="inline" font-family="'MyriadPro-Regular'" font-size="12">y</text>
	<text transform="matrix(1 0 0 1 -136.666 57.5996)" display="inline" font-family="'MyriadPro-Regular'" font-size="12">t</text>
	<text transform="matrix(1 0 0 1 -132.6943 57.5996)" display="inline" font-family="'MyriadPro-Regular'" font-size="12">_</text>
	<text transform="matrix(1 0 0 1 -126.6943 57.5996)" display="inline" font-family="'MyriadPro-Regular'" font-size="12">s</text>
	<text transform="matrix(1 0 0 1 -121.9424 57.5996)" display="inline" font-family="'MyriadPro-Regular'" font-size="12">c</text>
	<text transform="matrix(1 0 0 1 -116.5664 57.5996)" display="inline" font-family="'MyriadPro-Regular'" font-size="12">a</text>
	<text transform="matrix(1 0 0 1 -110.7822 57.5996)" display="inline" font-family="'MyriadPro-Regular'" font-size="12">l</text>
	<text transform="matrix(1 0 0 1 -107.9502 57.5996)" display="inline" font-family="'MyriadPro-Regular'" font-size="12">i</text>
	<text transform="matrix(1 0 0 1 -105.1426 57.5996)" display="inline" font-family="'MyriadPro-Regular'" font-size="12">n</text>
	<text transform="matrix(1 0 0 1 -98.4824 57.5996)" display="inline" font-family="'MyriadPro-Regular'" font-size="12">g</text>
	<text transform="matrix(1 0 0 1 -91.7744 57.5996)" display="inline" font-family="'MyriadPro-Regular'" font-size="12">&gt;</text>
	<text transform="matrix(1 0 0 1 -255 72)" display="inline" font-family="'MyriadPro-Regular'" font-size="12"> </text>
	<text transform="matrix(1 0 0 1 -252.4561 72)" display="inline" font-family="'MyriadPro-Regular'" font-size="12"> </text>
	<text transform="matrix(1 0 0 1 -249.9121 72)" display="inline" font-family="'MyriadPro-Regular'" font-size="12">&lt;</text>
	<text transform="matrix(1 0 0 1 -242.7603 72)" display="inline" font-family="'MyriadPro-Regular'" font-size="12">n</text>
	<text transform="matrix(1 0 0 1 -236.2563 72)" display="inline" font-family="'MyriadPro-Regular'" font-size="12">y</text>
	<text transform="matrix(1 0 0 1 -230.6045 72)" display="inline" font-family="'MyriadPro-Regular'" font-size="12">t</text>
	<text transform="matrix(1 0 0 1 -226.6323 72)" display="inline" font-family="'MyriadPro-Regular'" font-size="12">_</text>
	<text transform="matrix(1 0 0 1 -220.6323 72)" display="inline" font-family="'MyriadPro-Regular'" font-size="12">t</text>
	<text transform="matrix(1 0 0 1 -216.6606 72)" display="inline" font-family="'MyriadPro-Regular'" font-size="12">r</text>
	<text transform="matrix(1 0 0 1 -212.7969 72)" display="inline" font-family="'MyriadPro-Regular'" font-size="12">a</text>
	<text transform="matrix(1 0 0 1 -207.0127 72)" display="inline" font-family="'MyriadPro-Regular'" font-size="12">n</text>
	<text transform="matrix(1 0 0 1 -200.3525 72)" display="inline" font-family="'MyriadPro-Regular'" font-size="12">s</text>
	<text transform="matrix(1 0 0 1 -195.6006 72)" display="inline" font-family="'MyriadPro-Regular'" font-size="12">p</text>
	<text transform="matrix(1 0 0 1 -188.7725 72)" display="inline" font-family="'MyriadPro-Regular'" font-size="12">a</text>
	<text transform="matrix(1 0 0 1 -182.9883 72)" display="inline" font-family="'MyriadPro-Regular'" font-size="12">r</text>
	<text transform="matrix(1 0 0 1 -179.1846 72)" display="inline" font-family="'MyriadPro-Regular'" font-size="12">e</text>
	<text transform="matrix(1 0 0 1 -173.1729 72)" display="inline" font-family="'MyriadPro-Regular'" font-size="12">n</text>
	<text transform="matrix(1 0 0 1 -166.5127 72)" display="inline" font-family="'MyriadPro-Regular'" font-size="12">c</text>
	<text transform="matrix(1 0 0 1 -160.9209 72)" display="inline" font-family="'MyriadPro-Regular'" font-size="12">y</text>
	<text transform="matrix(1 0 0 1 -155.2686 72)" display="inline" font-family="'MyriadPro-Regular'" font-size="12">&gt;</text>
	<text transform="matrix(1 0 0 1 -148.1162 72)" display="inline" font-family="'MyriadPro-Regular'" font-size="12">t</text>
	<text transform="matrix(1 0 0 1 -144.1445 72)" display="inline" font-family="'MyriadPro-Regular'" font-size="12">r</text>
	<text transform="matrix(1 0 0 1 -140.2207 72)" display="inline" font-family="'MyriadPro-Regular'" font-size="12">u</text>
	<text transform="matrix(1 0 0 1 -133.6084 72)" display="inline" font-family="'MyriadPro-Regular'" font-size="12">e</text>
	<text transform="matrix(1 0 0 1 -127.5967 72)" display="inline" font-family="'MyriadPro-Regular'" font-size="12">&lt;</text>
	<text transform="matrix(1 0 0 1 -120.4443 72)" display="inline" font-family="'MyriadPro-Regular'" font-size="12">/</text>
	<text transform="matrix(1 0 0 1 -116.3281 72)" display="inline" font-family="'MyriadPro-Regular'" font-size="12">n</text>
	<text transform="matrix(1 0 0 1 -109.8232 72)" display="inline" font-family="'MyriadPro-Regular'" font-size="12">y</text>
	<text transform="matrix(1 0 0 1 -104.1709 72)" display="inline" font-family="'MyriadPro-Regular'" font-size="12">t</text>
	<text transform="matrix(1 0 0 1 -100.1992 72)" display="inline" font-family="'MyriadPro-Regular'" font-size="12">_</text>
	<text transform="matrix(1 0 0 1 -94.1992 72)" display="inline" font-family="'MyriadPro-Regular'" font-size="12">t</text>
	<text transform="matrix(1 0 0 1 -90.2275 72)" display="inline" font-family="'MyriadPro-Regular'" font-size="12">r</text>
	<text transform="matrix(1 0 0 1 -86.3633 72)" display="inline" font-family="'MyriadPro-Regular'" font-size="12">a</text>
	<text transform="matrix(1 0 0 1 -80.5801 72)" display="inline" font-family="'MyriadPro-Regular'" font-size="12">n</text>
	<text transform="matrix(1 0 0 1 -73.9199 72)" display="inline" font-family="'MyriadPro-Regular'" font-size="12">s</text>
	<text transform="matrix(1 0 0 1 -69.168 72)" display="inline" font-family="'MyriadPro-Regular'" font-size="12">p</text>
	<text transform="matrix(1 0 0 1 -62.3398 72)" display="inline" font-family="'MyriadPro-Regular'" font-size="12">a</text>
	<text transform="matrix(1 0 0 1 -56.5547 72)" display="inline" font-family="'MyriadPro-Regular'" font-size="12">r</text>
	<text transform="matrix(1 0 0 1 -52.751 72)" display="inline" font-family="'MyriadPro-Regular'" font-size="12">e</text>
	<text transform="matrix(1 0 0 1 -46.7393 72)" display="inline" font-family="'MyriadPro-Regular'" font-size="12">n</text>
	<text transform="matrix(1 0 0 1 -40.0791 72)" display="inline" font-family="'MyriadPro-Regular'" font-size="12">c</text>
	<text transform="matrix(1 0 0 1 -34.4873 72)" display="inline" font-family="'MyriadPro-Regular'" font-size="12">y</text>
	<text transform="matrix(1 0 0 1 -28.835 72)" display="inline" font-family="'MyriadPro-Regular'" font-size="12">&gt;</text>
	<text transform="matrix(1 0 0 1 -255 86.4004)" display="inline" font-family="'MyriadPro-Regular'" font-size="12"> </text>
	<text transform="matrix(1 0 0 1 -252.4561 86.4004)" display="inline" font-family="'MyriadPro-Regular'" font-size="12"> </text>
	<text transform="matrix(1 0 0 1 -249.9121 86.4004)" display="inline" font-family="'MyriadPro-Regular'" font-size="12">&lt;</text>
	<text transform="matrix(1 0 0 1 -242.7603 86.4004)" display="inline" font-family="'MyriadPro-Regular'" font-size="12">n</text>
	<text transform="matrix(1 0 0 1 -236.2563 86.4004)" display="inline" font-family="'MyriadPro-Regular'" font-size="12">y</text>
	<text transform="matrix(1 0 0 1 -230.6045 86.4004)" display="inline" font-family="'MyriadPro-Regular'" font-size="12">t</text>
	<text transform="matrix(1 0 0 1 -226.6323 86.4004)" display="inline" font-family="'MyriadPro-Regular'" font-size="12">_</text>
	<text transform="matrix(1 0 0 1 -220.6323 86.4004)" display="inline" font-family="'MyriadPro-Regular'" font-size="12">f</text>
	<text transform="matrix(1 0 0 1 -217.2842 86.4004)" display="inline" font-family="'MyriadPro-Regular'" font-size="12">o</text>
	<text transform="matrix(1 0 0 1 -210.6963 86.4004)" display="inline" font-family="'MyriadPro-Regular'" font-size="12">r</text>
	<text transform="matrix(1 0 0 1 -206.7246 86.4004)" display="inline" font-family="'MyriadPro-Regular'" font-size="12">m</text>
	<text transform="matrix(1 0 0 1 -196.7168 86.4004)" display="inline" font-family="'MyriadPro-Regular'" font-size="12">a</text>
	<text transform="matrix(1 0 0 1 -190.9805 86.4004)" display="inline" font-family="'MyriadPro-Regular'" font-size="12">t</text>
	<text transform="matrix(1 0 0 1 -187.0088 86.4004)" display="inline" font-family="'MyriadPro-Regular'" font-size="12">&gt;</text>
	<text transform="matrix(1 0 0 1 -179.8564 86.4004)" display="inline" font-family="'MyriadPro-Regular'" font-size="12">E</text>
	<text transform="matrix(1 0 0 1 -173.9521 86.4004)" display="inline" font-family="'MyriadPro-Regular'" font-size="12">P</text>
	<text transform="matrix(1 0 0 1 -167.5684 86.4004)" display="inline" font-family="'MyriadPro-Regular'" font-size="12">S</text>
	<text transform="matrix(1 0 0 1 -161.6523 86.4004)" display="inline" font-family="'MyriadPro-Regular'" font-size="12">&lt;</text>
	<text transform="matrix(1 0 0 1 -154.5 86.4004)" display="inline" font-family="'MyriadPro-Regular'" font-size="12">/</text>
	<text transform="matrix(1 0 0 1 -150.3838 86.4004)" display="inline" font-family="'MyriadPro-Regular'" font-size="12">n</text>
	<text transform="matrix(1 0 0 1 -143.8799 86.4004)" display="inline" font-family="'MyriadPro-Regular'" font-size="12">y</text>
	<text transform="matrix(1 0 0 1 -138.2275 86.4004)" display="inline" font-family="'MyriadPro-Regular'" font-size="12">t</text>
	<text transform="matrix(1 0 0 1 -134.2559 86.4004)" display="inline" font-family="'MyriadPro-Regular'" font-size="12">_</text>
	<text transform="matrix(1 0 0 1 -128.2559 86.4004)" display="inline" font-family="'MyriadPro-Regular'" font-size="12">f</text>
	<text transform="matrix(1 0 0 1 -124.9072 86.4004)" display="inline" font-family="'MyriadPro-Regular'" font-size="12">o</text>
	<text transform="matrix(1 0 0 1 -118.3193 86.4004)" display="inline" font-family="'MyriadPro-Regular'" font-size="12">r</text>
	<text transform="matrix(1 0 0 1 -114.3477 86.4004)" display="inline" font-family="'MyriadPro-Regular'" font-size="12">m</text>
	<text transform="matrix(1 0 0 1 -104.3398 86.4004)" display="inline" font-family="'MyriadPro-Regular'" font-size="12">a</text>
	<text transform="matrix(1 0 0 1 -98.6035 86.4004)" display="inline" font-family="'MyriadPro-Regular'" font-size="12">t</text>
	<text transform="matrix(1 0 0 1 -94.6318 86.4004)" display="inline" font-family="'MyriadPro-Regular'" font-size="12">&gt;</text>
	<text transform="matrix(1 0 0 1 -255 100.7998)" display="inline" font-family="'MyriadPro-Regular'" font-size="12"> </text>
	<text transform="matrix(1 0 0 1 -252.4561 100.7998)" display="inline" font-family="'MyriadPro-Regular'" font-size="12"> </text>
	<text transform="matrix(1 0 0 1 -249.9121 100.7998)" display="inline" font-family="'MyriadPro-Regular'" font-size="12">&lt;</text>
	<text transform="matrix(1 0 0 1 -242.7603 100.7998)" display="inline" font-family="'MyriadPro-Regular'" font-size="12">n</text>
	<text transform="matrix(1 0 0 1 -236.2563 100.7998)" display="inline" font-family="'MyriadPro-Regular'" font-size="12">y</text>
	<text transform="matrix(1 0 0 1 -230.6045 100.7998)" display="inline" font-family="'MyriadPro-Regular'" font-size="12">t</text>
	<text transform="matrix(1 0 0 1 -226.6323 100.7998)" display="inline" font-family="'MyriadPro-Regular'" font-size="12">_</text>
	<text transform="matrix(1 0 0 1 -220.6323 100.7998)" display="inline" font-family="'MyriadPro-Regular'" font-size="12">e</text>
	<text transform="matrix(1 0 0 1 -214.6567 100.7998)" display="inline" font-family="'MyriadPro-Regular'" font-size="12">x</text>
	<text transform="matrix(1 0 0 1 -209.1006 100.7998)" display="inline" font-family="'MyriadPro-Regular'" font-size="12">p</text>
	<text transform="matrix(1 0 0 1 -202.2725 100.7998)" display="inline" font-family="'MyriadPro-Regular'" font-size="12">o</text>
	<text transform="matrix(1 0 0 1 -195.6846 100.7998)" display="inline" font-family="'MyriadPro-Regular'" font-size="12">r</text>
	<text transform="matrix(1 0 0 1 -191.4736 100.7998)" display="inline" font-family="'MyriadPro-Regular'" font-size="12">t</text>
	<text transform="matrix(1 0 0 1 -187.502 100.7998)" display="inline" font-family="'MyriadPro-Regular'" font-size="12">_</text>
	<text transform="matrix(1 0 0 1 -181.502 100.7998)" display="inline" font-family="'MyriadPro-Regular'" font-size="12">c</text>
	<text transform="matrix(1 0 0 1 -176.1973 100.7998)" display="inline" font-family="'MyriadPro-Regular'" font-size="12">o</text>
	<text transform="matrix(1 0 0 1 -169.6094 100.7998)" display="inline" font-family="'MyriadPro-Regular'" font-size="12">d</text>
	<text transform="matrix(1 0 0 1 -162.8418 100.7998)" display="inline" font-family="'MyriadPro-Regular'" font-size="12">e</text>
	<text transform="matrix(1 0 0 1 -156.8301 100.7998)" display="inline" font-family="'MyriadPro-Regular'" font-size="12">&gt;</text>
	<text transform="matrix(1 0 0 1 -149.6777 100.7998)" display="inline" font-family="'MyriadPro-Regular'" font-size="12">a</text>
	<text transform="matrix(1 0 0 1 -143.8936 100.7998)" display="inline" font-family="'MyriadPro-Regular'" font-size="12">r</text>
	<text transform="matrix(1 0 0 1 -139.6816 100.7998)" display="inline" font-family="'MyriadPro-Regular'" font-size="12">t</text>
	<text transform="matrix(1 0 0 1 -135.7109 100.7998)" display="inline" font-family="'MyriadPro-Regular'" font-size="12">b</text>
	<text transform="matrix(1 0 0 1 -128.8828 100.7998)" display="inline" font-family="'MyriadPro-Regular'" font-size="12">o</text>
	<text transform="matrix(1 0 0 1 -122.2949 100.7998)" display="inline" font-family="'MyriadPro-Regular'" font-size="12">a</text>
	<text transform="matrix(1 0 0 1 -116.5098 100.7998)" display="inline" font-family="'MyriadPro-Regular'" font-size="12">r</text>
	<text transform="matrix(1 0 0 1 -112.7061 100.7998)" display="inline" font-family="'MyriadPro-Regular'" font-size="12">d</text>
	<text transform="matrix(1 0 0 1 -105.9385 100.7998)" display="inline" font-family="'MyriadPro-Regular'" font-size="12">s</text>
	<text transform="matrix(1 0 0 1 -101.1865 100.7998)" display="inline" font-family="'MyriadPro-Regular'" font-size="12">&lt;</text>
	<text transform="matrix(1 0 0 1 -94.0342 100.7998)" display="inline" font-family="'MyriadPro-Regular'" font-size="12">/</text>
	<text transform="matrix(1 0 0 1 -89.918 100.7998)" display="inline" font-family="'MyriadPro-Regular'" font-size="12">n</text>
	<text transform="matrix(1 0 0 1 -83.4141 100.7998)" display="inline" font-family="'MyriadPro-Regular'" font-size="12">y</text>
	<text transform="matrix(1 0 0 1 -77.7617 100.7998)" display="inline" font-family="'MyriadPro-Regular'" font-size="12">t</text>
	<text transform="matrix(1 0 0 1 -73.79 100.7998)" display="inline" font-family="'MyriadPro-Regular'" font-size="12">_</text>
	<text transform="matrix(1 0 0 1 -67.79 100.7998)" display="inline" font-family="'MyriadPro-Regular'" font-size="12">e</text>
	<text transform="matrix(1 0 0 1 -61.8145 100.7998)" display="inline" font-family="'MyriadPro-Regular'" font-size="12">x</text>
	<text transform="matrix(1 0 0 1 -56.2588 100.7998)" display="inline" font-family="'MyriadPro-Regular'" font-size="12">p</text>
	<text transform="matrix(1 0 0 1 -49.4307 100.7998)" display="inline" font-family="'MyriadPro-Regular'" font-size="12">o</text>
	<text transform="matrix(1 0 0 1 -42.8428 100.7998)" display="inline" font-family="'MyriadPro-Regular'" font-size="12">r</text>
	<text transform="matrix(1 0 0 1 -38.6309 100.7998)" display="inline" font-family="'MyriadPro-Regular'" font-size="12">t</text>
	<text transform="matrix(1 0 0 1 -34.6592 100.7998)" display="inline" font-family="'MyriadPro-Regular'" font-size="12">_</text>
	<text transform="matrix(1 0 0 1 -28.6592 100.7998)" display="inline" font-family="'MyriadPro-Regular'" font-size="12">c</text>
	<text transform="matrix(1 0 0 1 -23.3555 100.7998)" display="inline" font-family="'MyriadPro-Regular'" font-size="12">o</text>
	<text transform="matrix(1 0 0 1 -16.7676 100.7998)" display="inline" font-family="'MyriadPro-Regular'" font-size="12">d</text>
	<text transform="matrix(1 0 0 1 -10 100.7998)" display="inline" font-family="'MyriadPro-Regular'" font-size="12">e</text>
	<text transform="matrix(1 0 0 1 -3.9883 100.7998)" display="inline" font-family="'MyriadPro-Regular'" font-size="12">&gt;</text>
	<text transform="matrix(1 0 0 1 -255 115.2002)" display="inline" font-family="'MyriadPro-Regular'" font-size="12">&lt;</text>
	<text transform="matrix(1 0 0 1 -247.8481 115.2002)" display="inline" font-family="'MyriadPro-Regular'" font-size="12">/</text>
	<text transform="matrix(1 0 0 1 -243.7324 115.2002)" display="inline" font-family="'MyriadPro-Regular'" font-size="12">n</text>
	<text transform="matrix(1 0 0 1 -237.228 115.2002)" display="inline" font-family="'MyriadPro-Regular'" font-size="12">y</text>
	<text transform="matrix(1 0 0 1 -231.5762 115.2002)" display="inline" font-family="'MyriadPro-Regular'" font-size="12">t</text>
	<text transform="matrix(1 0 0 1 -227.604 115.2002)" display="inline" font-family="'MyriadPro-Regular'" font-size="12">_</text>
	<text transform="matrix(1 0 0 1 -221.604 115.2002)" display="inline" font-family="'MyriadPro-Regular'" font-size="12">p</text>
	<text transform="matrix(1 0 0 1 -214.7764 115.2002)" display="inline" font-family="'MyriadPro-Regular'" font-size="12">r</text>
	<text transform="matrix(1 0 0 1 -210.9727 115.2002)" display="inline" font-family="'MyriadPro-Regular'" font-size="12">e</text>
	<text transform="matrix(1 0 0 1 -204.9609 115.2002)" display="inline" font-family="'MyriadPro-Regular'" font-size="12">f</text>
	<text transform="matrix(1 0 0 1 -201.5654 115.2002)" display="inline" font-family="'MyriadPro-Regular'" font-size="12">s</text>
	<text transform="matrix(1 0 0 1 -196.8135 115.2002)" display="inline" font-family="'MyriadPro-Regular'" font-size="12">&gt;</text>
</g>
</svg>
