<?xml version="1.0" encoding="utf-8"?>
<!-- Generator: Adobe Illustrator 16.0.0, SVG Export Plug-In . SVG Version: 6.00 Build 0)  -->
<svg version="1.2" baseProfile="tiny" xmlns="http://www.w3.org/2000/svg" xmlns:xlink="http://www.w3.org/1999/xlink" x="0px"
	 y="0px" width="100px" height="100px" viewBox="0 0 100 100" xml:space="preserve">
<g id="Layer_1">
	<g>
		<polygon fill="#205B98" points="50.002,67.462 75.166,73.552 75.166,26.305 50.002,32.397 		"/>
		<polygon fill="#5294CF" points="75.164,26.305 80,28.723 80,71.148 75.164,73.564 		"/>
		<polygon fill="#5294CF" points="50.002,67.462 24.836,73.552 24.836,26.305 50.002,32.397 		"/>
		<polygon fill="#205B98" points="24.836,26.305 20,28.723 20,71.148 24.836,73.564 		"/>
		<polygon fill="#5294CF" points="56.443,83.056 65.998,78.279 65.998,21.721 56.443,16.944 53.441,48.384 		"/>
		<polygon fill="#205B98" points="43.557,83.056 34.004,78.279 34.004,21.721 43.557,16.944 46.561,48.275 		"/>
		<rect x="43.557" y="16.944" fill="#2D72B8" width="12.887" height="66.111"/>
	</g>
</g>
<g id="nyt_x5F_exporter_x5F_info" display="none">
</g>
</svg>
