<?xml version="1.0" encoding="utf-8"?>
<!-- Generator: Adobe Illustrator 16.0.0, SVG Export Plug-In . SVG Version: 6.00 Build 0)  -->
<svg version="1.2" baseProfile="tiny" xmlns="http://www.w3.org/2000/svg" xmlns:xlink="http://www.w3.org/1999/xlink" x="0px"
	 y="0px" width="100px" height="100px" viewBox="0 0 100 100" xml:space="preserve">
<g id="Layer_3">
</g>
<g id="Layer_1">
	<g>
		<polygon fill="#F58536" points="61.6,78.562 48.999,84.863 48.999,12.863 61.6,19.164 		"/>
		<polygon fill="#9D5025" points="36.398,78.562 48.999,84.863 48.999,12.863 36.398,19.164 		"/>
		<polygon fill="#F58536" points="44.248,39.071 22.983,36.358 22.983,25.871 44.248,30.859 		"/>
		<polygon fill="#9D5025" points="75.015,32.016 53.75,35.671 53.75,44.255 75.015,42.979 		"/>
		<polygon fill="#F58536" points="78.822,43.392 75.015,42.897 75.015,32.016 78.822,33.41 		"/>
		<polygon fill="#9D5025" points="19.191,27.768 22.983,25.871 22.983,36.358 19.191,37.39 		"/>
		<polygon fill="#6B3A19" points="44.248,39.071 39.826,39.715 19.191,37.39 22.983,36.358 		"/>
		<polygon fill="#6B3A19" points="78.822,43.392 57.704,44.526 53.75,44.255 75.443,42.953 		"/>
	</g>
</g>
<g id="nyt_x5F_exporter_x5F_info" display="none">
</g>
</svg>
