<?xml version="1.0" encoding="utf-8"?>
<!-- Generator: Adobe Illustrator 16.0.0, SVG Export Plug-In . SVG Version: 6.00 Build 0)  -->
<svg version="1.2" baseProfile="tiny" xmlns="http://www.w3.org/2000/svg" xmlns:xlink="http://www.w3.org/1999/xlink" x="0px"
	 y="0px" width="100px" height="100px" viewBox="0 0 100 100" xml:space="preserve">
<g id="Layer_1">
	<g>
		<polygon fill="#8C3123" points="49.352,66.961 75.365,73.048 75.365,36.317 49.352,39.979 		"/>
		<polygon fill="#5E1F18" points="50.906,37.95 56.679,38.947 75.365,36.317 56.855,30.763 51.07,32.173 		"/>
		<polygon fill="#E05243" points="79.176,29.024 79.159,29.017 75.364,27.12 49.352,14.113 49.352,28.513 49.352,86.113 
			58.273,81.652 58.273,31.189 75.364,36.317 75.364,73.106 79.159,71.21 79.159,37.456 79.176,37.46 		"/>
		<polygon fill="#8C3123" points="33.477,78.176 49.352,86.114 49.352,14.112 33.477,22.051 		"/>
		<polygon fill="#8C3123" points="27.904,75.39 19.543,71.208 19.543,29.017 27.904,24.837 		"/>
		<polygon fill="#E05243" points="33.477,73.729 27.904,75.227 27.904,24.837 33.477,26.345 		"/>
	</g>
</g>
<g id="nyt_x5F_exporter_x5F_info" display="none">
</g>
</svg>
