<?xml version="1.0" standalone="no"?>
<!DOCTYPE svg PUBLIC "-//W3C//DTD SVG 1.1//EN" "http://www.w3.org/Graphics/SVG/1.1/DTD/svg11.dtd">
<svg width="250.0mm" height="145.0mm"
 viewBox="0 0 250.0 145.0"
 xmlns="http://www.w3.org/2000/svg" version="1.1"
 xmlns:xlink="http://www.w3.org/1999/xlink">
<desc>Output from Flights of Ideas SVG Sketchup Plugin</desc>

  <g id="face0" fill="none" stroke="rgb(0,0,255)" stroke-width="1" stroke-miterlimit="4" stroke-dasharray="none" stroke-linejoin="round" stroke-linecap="round">
    <line x1="4.00000000000004" y1="121.0" x2="4.00000000000004" y2="131.0"/>
    <line x1="4.00000000000004" y1="131.0" x2="6.00000000000004" y2="131.0"/>
    <line x1="6.00000000000004" y1="131.0" x2="6.00000000000004" y2="129.7"/>
    <line x1="6.00000000000004" y1="129.7" x2="8.20000000000008" y2="129.7"/>
    <line x1="8.20000000000008" y1="129.7" x2="8.20000000000008" y2="131.0"/>
    <line x1="8.20000000000008" y1="131.0" x2="11.2" y2="131.0"/>
    <line x1="11.2" y1="131.0" x2="11.2" y2="134.0"/>
    <line x1="11.2" y1="134.0" x2="8.20000000000008" y2="134.0"/>
    <line x1="8.20000000000008" y1="134.0" x2="8.20000000000008" y2="135.3"/>
    <line x1="8.20000000000008" y1="135.3" x2="6.00000000000004" y2="135.3"/>
    <line x1="6.00000000000004" y1="135.3" x2="6.00000000000004" y2="134.0"/>
    <line x1="6.00000000000004" y1="134.0" x2="4.00000000000004" y2="134.0"/>
    <line x1="4.00000000000004" y1="134.0" x2="4.00000000000004" y2="144.0"/>
    <line x1="4.00000000000004" y1="144.0" x2="24.0" y2="144.0"/>
    <line x1="24.0" y1="144.0" x2="24.0" y2="44.0"/>
    <line x1="24.0" y1="44.0" x2="246.0" y2="24.0"/>
    <line x1="246.0" y1="24.0" x2="249.0" y2="24.0"/>
    <line x1="249.0" y1="24.0" x2="249.0" y2="4.00000000000009"/>
    <line x1="249.0" y1="4.00000000000009" x2="229.0" y2="4.00000000000006"/>
    <line x1="229.0" y1="4.00000000000006" x2="229.0" y2="6.00000000000009"/>
    <line x1="229.0" y1="6.00000000000009" x2="230.3" y2="6.0"/>
    <line x1="230.3" y1="6.0" x2="230.3" y2="8.20000000000005"/>
    <line x1="230.3" y1="8.20000000000005" x2="229.0" y2="8.20000000000005"/>
    <line x1="229.0" y1="8.20000000000005" x2="229.0" y2="11.2"/>
    <line x1="229.0" y1="11.2" x2="226.0" y2="11.2"/>
    <line x1="226.0" y1="11.2" x2="226.0" y2="8.19999999999999"/>
    <line x1="226.0" y1="8.19999999999999" x2="224.7" y2="8.19999999999996"/>
    <line x1="224.7" y1="8.19999999999996" x2="224.7" y2="6.0"/>
    <line x1="224.7" y1="6.0" x2="226.0" y2="6.0"/>
    <line x1="226.0" y1="6.0" x2="226.0" y2="4.0"/>
    <line x1="226.0" y1="4.0" x2="216.0" y2="4.0"/>
    <line x1="216.0" y1="4.0" x2="216.0" y2="1.0"/>
    <line x1="216.0" y1="1.0" x2="196.0" y2="1.00000000000006"/>
    <line x1="196.0" y1="1.00000000000006" x2="196.0" y2="4.00000000000006"/>
    <line x1="196.0" y1="4.00000000000006" x2="87.0" y2="4.00000000000006"/>
    <line x1="87.0" y1="4.00000000000006" x2="87.0" y2="1.00000000000006"/>
    <line x1="87.0" y1="1.00000000000006" x2="67.0" y2="1.00000000000006"/>
    <line x1="67.0" y1="1.00000000000006" x2="67.0000000000001" y2="4.00000000000006"/>
    <line x1="67.0000000000001" y1="4.00000000000006" x2="57.0000000000001" y2="4.0"/>
    <line x1="57.0000000000001" y1="4.0" x2="57.0000000000001" y2="6.00000000000006"/>
    <line x1="57.0000000000001" y1="6.00000000000006" x2="58.3000000000001" y2="6.0"/>
    <line x1="58.3000000000001" y1="6.0" x2="58.3000000000001" y2="8.20000000000005"/>
    <line x1="58.3000000000001" y1="8.20000000000005" x2="57.0000000000001" y2="8.20000000000005"/>
    <line x1="57.0000000000001" y1="8.20000000000005" x2="57.0000000000001" y2="11.2000000000001"/>
    <line x1="57.0000000000001" y1="11.2000000000001" x2="54.0" y2="11.2000000000001"/>
    <line x1="54.0" y1="11.2000000000001" x2="54.0" y2="8.20000000000005"/>
    <line x1="54.0" y1="8.20000000000005" x2="52.7" y2="8.20000000000005"/>
    <line x1="52.7" y1="8.20000000000005" x2="52.7" y2="6.00000000000006"/>
    <line x1="52.7" y1="6.00000000000006" x2="54.0000000000001" y2="6.00000000000006"/>
    <line x1="54.0000000000001" y1="6.00000000000006" x2="54.0" y2="4.00000000000006"/>
    <line x1="54.0" y1="4.00000000000006" x2="34.0000000000001" y2="4.00000000000006"/>
    <line x1="34.0000000000001" y1="4.00000000000006" x2="34.0000000000001" y2="1.00000000000006"/>
    <line x1="34.0000000000001" y1="1.00000000000006" x2="14.0" y2="1.00000000000006"/>
    <line x1="14.0" y1="1.00000000000006" x2="14.0" y2="4.0"/>
    <line x1="14.0" y1="4.0" x2="4.00000000000005" y2="4.00000000000006"/>
    <line x1="4.00000000000005" y1="4.00000000000006" x2="4.00000000000005" y2="14.0000000000001"/>
    <line x1="4.00000000000005" y1="14.0000000000001" x2="1.00000000000001" y2="14.0000000000001"/>
    <line x1="1.00000000000001" y1="14.0000000000001" x2="1.00000000000001" y2="34.0"/>
    <line x1="1.00000000000001" y1="34.0" x2="4.00000000000004" y2="34.0"/>
    <line x1="4.00000000000004" y1="34.0" x2="4.00000000000004" y2="39.0000000000001"/>
    <line x1="4.00000000000004" y1="39.0000000000001" x2="6.00000000000004" y2="39.0000000000001"/>
    <line x1="6.00000000000004" y1="39.0000000000001" x2="6.00000000000004" y2="37.7"/>
    <line x1="6.00000000000004" y1="37.7" x2="8.20000000000009" y2="37.7"/>
    <line x1="8.20000000000009" y1="37.7" x2="8.20000000000008" y2="39.0000000000001"/>
    <line x1="8.20000000000008" y1="39.0000000000001" x2="11.2" y2="39.0000000000001"/>
    <line x1="11.2" y1="39.0000000000001" x2="11.2" y2="42.0000000000001"/>
    <line x1="11.2" y1="42.0000000000001" x2="8.20000000000008" y2="42.0000000000001"/>
    <line x1="8.20000000000008" y1="42.0000000000001" x2="8.20000000000009" y2="43.3"/>
    <line x1="8.20000000000009" y1="43.3" x2="6.00000000000004" y2="43.3"/>
    <line x1="6.00000000000004" y1="43.3" x2="6.00000000000004" y2="42.0000000000001"/>
    <line x1="6.00000000000004" y1="42.0000000000001" x2="4.00000000000004" y2="42.0000000000001"/>
    <line x1="4.00000000000004" y1="42.0000000000001" x2="4.00000000000004" y2="101.0"/>
    <line x1="4.00000000000004" y1="101.0" x2="1.0" y2="101.0"/>
    <line x1="1.0" y1="101.0" x2="1.0" y2="121.0"/>
    <line x1="1.0" y1="121.0" x2="4.00000000000004" y2="121.0"/>
    <line x1="15.0999999999999" y1="15.0" x2="33.8999999999999" y2="15.0"/>
    <line x1="33.8999999999999" y1="15.0" x2="33.8999999999999" y2="28.0000000000001"/>
    <line x1="33.8999999999999" y1="28.0000000000001" x2="15.0999999999999" y2="28.0000000000001"/>
    <line x1="15.0999999999999" y1="28.0000000000001" x2="15.0999999999999" y2="15.0"/>
    <line x1="102.111771432346" y1="9.05111126056647" x2="102.5" y2="9.00000000000003"/>
    <line x1="102.5" y1="9.00000000000003" x2="102.888228567654" y2="9.05111126056647"/>
    <line x1="102.888228567654" y1="9.05111126056647" x2="103.25" y2="9.2009618943234"/>
    <line x1="103.25" y1="9.2009618943234" x2="103.56066017178" y2="9.43933982822023"/>
    <line x1="103.56066017178" y1="9.43933982822023" x2="103.799038105677" y2="9.75000000000006"/>
    <line x1="103.799038105677" y1="9.75000000000006" x2="103.948888739434" y2="10.1117714323463"/>
    <line x1="103.948888739434" y1="10.1117714323463" x2="104.0" y2="10.5000000000001"/>
    <line x1="104.0" y1="10.5000000000001" x2="103.948888739434" y2="10.8882285676538"/>
    <line x1="103.948888739434" y1="10.8882285676538" x2="103.799038105677" y2="11.2500000000001"/>
    <line x1="103.799038105677" y1="11.2500000000001" x2="103.56066017178" y2="11.5606601717799"/>
    <line x1="103.56066017178" y1="11.5606601717799" x2="103.25" y2="11.7990381056767"/>
    <line x1="103.25" y1="11.7990381056767" x2="102.888228567654" y2="11.9488887394337"/>
    <line x1="102.888228567654" y1="11.9488887394337" x2="102.5" y2="12.0000000000001"/>
    <line x1="102.5" y1="12.0000000000001" x2="102.111771432346" y2="11.9488887394336"/>
    <line x1="102.111771432346" y1="11.9488887394336" x2="101.75" y2="11.7990381056767"/>
    <line x1="101.75" y1="11.7990381056767" x2="101.43933982822" y2="11.5606601717799"/>
    <line x1="101.43933982822" y1="11.5606601717799" x2="101.200961894323" y2="11.2500000000001"/>
    <line x1="101.200961894323" y1="11.2500000000001" x2="101.051111260566" y2="10.8882285676539"/>
    <line x1="101.051111260566" y1="10.8882285676539" x2="101.0" y2="10.5000000000001"/>
    <line x1="101.0" y1="10.5000000000001" x2="101.051111260566" y2="10.1117714323463"/>
    <line x1="101.051111260566" y1="10.1117714323463" x2="101.200961894323" y2="9.75000000000006"/>
    <line x1="101.200961894323" y1="9.75000000000006" x2="101.43933982822" y2="9.43933982822017"/>
    <line x1="101.43933982822" y1="9.43933982822017" x2="101.75" y2="9.2009618943234"/>
    <line x1="101.75" y1="9.2009618943234" x2="102.111771432346" y2="9.05111126056647"/>
    <line x1="160.111771432346" y1="9.05111126056647" x2="160.5" y2="9.00000000000009"/>
    <line x1="160.5" y1="9.00000000000009" x2="160.888228567654" y2="9.05111126056647"/>
    <line x1="160.888228567654" y1="9.05111126056647" x2="161.25" y2="9.2009618943234"/>
    <line x1="161.25" y1="9.2009618943234" x2="161.56066017178" y2="9.43933982822026"/>
    <line x1="161.56066017178" y1="9.43933982822026" x2="161.799038105677" y2="9.75000000000006"/>
    <line x1="161.799038105677" y1="9.75000000000006" x2="161.948888739434" y2="10.1117714323463"/>
    <line x1="161.948888739434" y1="10.1117714323463" x2="162.0" y2="10.5"/>
    <line x1="162.0" y1="10.5" x2="161.948888739434" y2="10.8882285676539"/>
    <line x1="161.948888739434" y1="10.8882285676539" x2="161.799038105677" y2="11.2500000000001"/>
    <line x1="161.799038105677" y1="11.2500000000001" x2="161.56066017178" y2="11.5606601717799"/>
    <line x1="161.56066017178" y1="11.5606601717799" x2="161.25" y2="11.7990381056767"/>
    <line x1="161.25" y1="11.7990381056767" x2="160.888228567654" y2="11.9488887394337"/>
    <line x1="160.888228567654" y1="11.9488887394337" x2="160.5" y2="12.0"/>
    <line x1="160.5" y1="12.0" x2="160.111771432346" y2="11.9488887394337"/>
    <line x1="160.111771432346" y1="11.9488887394337" x2="159.75" y2="11.7990381056767"/>
    <line x1="159.75" y1="11.7990381056767" x2="159.43933982822" y2="11.5606601717799"/>
    <line x1="159.43933982822" y1="11.5606601717799" x2="159.200961894323" y2="11.2500000000001"/>
    <line x1="159.200961894323" y1="11.2500000000001" x2="159.051111260566" y2="10.8882285676538"/>
    <line x1="159.051111260566" y1="10.8882285676538" x2="159.0" y2="10.5000000000001"/>
    <line x1="159.0" y1="10.5000000000001" x2="159.051111260566" y2="10.1117714323463"/>
    <line x1="159.051111260566" y1="10.1117714323463" x2="159.200961894323" y2="9.75000000000006"/>
    <line x1="159.200961894323" y1="9.75000000000006" x2="159.43933982822" y2="9.43933982822017"/>
    <line x1="159.43933982822" y1="9.43933982822017" x2="159.75" y2="9.2009618943234"/>
    <line x1="159.75" y1="9.2009618943234" x2="160.111771432346" y2="9.05111126056647"/>
    <line x1="244.111771432346" y1="9.05111126056636" x2="244.5" y2="9.00000000000003"/>
    <line x1="244.5" y1="9.00000000000003" x2="244.888228567654" y2="9.05111126056647"/>
    <line x1="244.888228567654" y1="9.05111126056647" x2="245.25" y2="9.20096189432348"/>
    <line x1="245.25" y1="9.20096189432348" x2="245.56066017178" y2="9.43933982822034"/>
    <line x1="245.56066017178" y1="9.43933982822034" x2="245.799038105677" y2="9.75000000000009"/>
    <line x1="245.799038105677" y1="9.75000000000009" x2="245.948888739434" y2="10.1117714323464"/>
    <line x1="245.948888739434" y1="10.1117714323464" x2="246.0" y2="10.5000000000001"/>
    <line x1="246.0" y1="10.5000000000001" x2="245.948888739434" y2="10.8882285676539"/>
    <line x1="245.948888739434" y1="10.8882285676539" x2="245.799038105677" y2="11.2500000000001"/>
    <line x1="245.799038105677" y1="11.2500000000001" x2="245.56066017178" y2="11.5606601717799"/>
    <line x1="245.56066017178" y1="11.5606601717799" x2="245.25" y2="11.7990381056768"/>
    <line x1="245.25" y1="11.7990381056768" x2="244.888228567654" y2="11.9488887394337"/>
    <line x1="244.888228567654" y1="11.9488887394337" x2="244.5" y2="12.0"/>
    <line x1="244.5" y1="12.0" x2="244.111771432346" y2="11.9488887394337"/>
    <line x1="244.111771432346" y1="11.9488887394337" x2="243.75" y2="11.7990381056767"/>
    <line x1="243.75" y1="11.7990381056767" x2="243.43933982822" y2="11.5606601717799"/>
    <line x1="243.43933982822" y1="11.5606601717799" x2="243.200961894323" y2="11.25"/>
    <line x1="243.200961894323" y1="11.25" x2="243.051111260566" y2="10.8882285676539"/>
    <line x1="243.051111260566" y1="10.8882285676539" x2="243.0" y2="10.5000000000001"/>
    <line x1="243.0" y1="10.5000000000001" x2="243.051111260566" y2="10.1117714323463"/>
    <line x1="243.051111260566" y1="10.1117714323463" x2="243.200961894323" y2="9.75000000000014"/>
    <line x1="243.200961894323" y1="9.75000000000014" x2="243.43933982822" y2="9.43933982822026"/>
    <line x1="243.43933982822" y1="9.43933982822026" x2="243.75" y2="9.2009618943234"/>
    <line x1="243.75" y1="9.2009618943234" x2="244.111771432346" y2="9.05111126056636"/>
    <line x1="243.0" y1="17.0" x2="246.0" y2="17.0000000000001"/>
    <line x1="246.0" y1="17.0000000000001" x2="246.0" y2="20.0000000000001"/>
    <line x1="246.0" y1="20.0000000000001" x2="243.0" y2="20.0000000000001"/>
    <line x1="243.0" y1="20.0000000000001" x2="243.0" y2="17.0"/>
    <line x1="159.0" y1="17.0" x2="162.0" y2="17.0"/>
    <line x1="162.0" y1="17.0" x2="162.0" y2="20.0"/>
    <line x1="162.0" y1="20.0" x2="159.0" y2="20.0"/>
    <line x1="159.0" y1="20.0" x2="159.0" y2="17.0"/>
    <line x1="104.0" y1="27.0" x2="101.0" y2="27.0000000000001"/>
    <line x1="101.0" y1="27.0000000000001" x2="101.0" y2="17.0000000000001"/>
    <line x1="101.0" y1="17.0000000000001" x2="104.0" y2="17.0"/>
    <line x1="104.0" y1="17.0" x2="104.0" y2="27.0"/>
  </g>
</svg>
