<?xml version="1.0" encoding="UTF-8" standalone="no"?><svg xmlns="http://www.w3.org/2000/svg" xmlns:xlink="http://www.w3.org/1999/xlink" contentScriptType="application/ecmascript" contentStyleType="text/css" height="505px" preserveAspectRatio="none" style="width:616px;height:505px;" version="1.1" viewBox="0 0 616 505" width="616px" zoomAndPan="magnify"><defs><filter height="300%" id="fuyblbk" width="300%" x="-1" y="-1"><feGaussianBlur result="blurOut" stdDeviation="2.0"/><feColorMatrix in="blurOut" result="blurOut2" type="matrix" values="0 0 0 0 0 0 0 0 0 0 0 0 0 0 0 0 0 0 .4 0"/><feOffset dx="4.0" dy="4.0" in="blurOut2" result="blurOut3"/><feBlend in="SourceGraphic" in2="blurOut3" mode="normal"/></filter></defs><g><!--class Aplicacao--><rect fill="#FEFECE" filter="url(#fuyblbk)" height="73.9102" style="stroke: #A80036; stroke-width: 1.5;" width="156" x="246" y="8"/><ellipse cx="292.25" cy="24" fill="#ADD1B2" rx="11" ry="11" style="stroke: #A80036; stroke-width: 1.0;"/><path d="M295.2231,29.6431 Q294.6421,29.9419 294.0029,30.0913 Q293.3638,30.2407 292.6582,30.2407 Q290.1514,30.2407 288.8315,28.5889 Q287.5117,26.937 287.5117,23.8159 Q287.5117,20.6865 288.8315,19.0347 Q290.1514,17.3828 292.6582,17.3828 Q293.3638,17.3828 294.0112,17.5322 Q294.6587,17.6816 295.2231,17.9805 L295.2231,20.7031 Q294.5923,20.1221 293.9988,19.8523 Q293.4053,19.5825 292.7744,19.5825 Q291.4297,19.5825 290.7449,20.6492 Q290.0601,21.7158 290.0601,23.8159 Q290.0601,25.9077 290.7449,26.9744 Q291.4297,28.041 292.7744,28.041 Q293.4053,28.041 293.9988,27.7712 Q294.5923,27.5015 295.2231,26.9204 Z "/><text fill="#000000" font-family="sans-serif" font-size="12" lengthAdjust="spacingAndGlyphs" textLength="55" x="312.75" y="28.5352">Aplicacao</text><line style="stroke: #A80036; stroke-width: 1.5;" x1="247" x2="401" y1="40" y2="40"/><line style="stroke: #A80036; stroke-width: 1.5;" x1="247" x2="401" y1="48" y2="48"/><ellipse cx="257" cy="59.9775" fill="#84BE84" rx="3" ry="3" style="stroke: #038048; stroke-width: 1.0;"/><text fill="#000000" font-family="sans-serif" font-size="11" lengthAdjust="spacingAndGlyphs" textLength="60" x="266" y="62.6348">Aplicacao()</text><ellipse cx="257" cy="72.9326" fill="#84BE84" rx="3" ry="3" style="stroke: #038048; stroke-width: 1.0;"/><text fill="#000000" font-family="sans-serif" font-size="11" lengthAdjust="spacingAndGlyphs" text-decoration="underline" textLength="130" x="266" y="75.5898">main(String[] args): void</text><line style="stroke: #000000; stroke-width: 1.0;" x1="266" x2="396" y1="77.5898" y2="77.5898"/><!--class AgenteSecreto--><rect fill="#FEFECE" filter="url(#fuyblbk)" height="86.8652" style="stroke: #A80036; stroke-width: 1.5;" width="252" x="198" y="142"/><ellipse cx="278.75" cy="158" fill="#ADD1B2" rx="11" ry="11" style="stroke: #A80036; stroke-width: 1.0;"/><path d="M281.7231,163.6431 Q281.1421,163.9419 280.5029,164.0913 Q279.8638,164.2407 279.1582,164.2407 Q276.6514,164.2407 275.3315,162.5889 Q274.0117,160.937 274.0117,157.8159 Q274.0117,154.6865 275.3315,153.0347 Q276.6514,151.3828 279.1582,151.3828 Q279.8638,151.3828 280.5112,151.5322 Q281.1587,151.6816 281.7231,151.9805 L281.7231,154.7031 Q281.0923,154.1221 280.4988,153.8523 Q279.9053,153.5825 279.2744,153.5825 Q277.9297,153.5825 277.2449,154.6492 Q276.5601,155.7158 276.5601,157.8159 Q276.5601,159.9077 277.2449,160.9744 Q277.9297,162.041 279.2744,162.041 Q279.9053,162.041 280.4988,161.7712 Q281.0923,161.5015 281.7231,160.9204 Z "/><text fill="#000000" font-family="sans-serif" font-size="12" lengthAdjust="spacingAndGlyphs" textLength="82" x="299.25" y="162.5352">AgenteSecreto</text><line style="stroke: #A80036; stroke-width: 1.5;" x1="199" x2="449" y1="174" y2="174"/><line style="stroke: #A80036; stroke-width: 1.5;" x1="199" x2="449" y1="182" y2="182"/><ellipse cx="209" cy="193.9775" fill="#84BE84" rx="3" ry="3" style="stroke: #038048; stroke-width: 1.0;"/><text fill="#000000" font-family="sans-serif" font-size="11" lengthAdjust="spacingAndGlyphs" textLength="86" x="218" y="196.6348">AgenteSecreto()</text><ellipse cx="209" cy="206.9326" fill="#84BE84" rx="3" ry="3" style="stroke: #038048; stroke-width: 1.0;"/><text fill="#000000" font-family="sans-serif" font-size="11" lengthAdjust="spacingAndGlyphs" textLength="226" x="218" y="209.5898">mudarEstrategia(EstratetegiaAgente): void</text><ellipse cx="209" cy="219.8877" fill="#84BE84" rx="3" ry="3" style="stroke: #038048; stroke-width: 1.0;"/><text fill="#000000" font-family="sans-serif" font-size="11" lengthAdjust="spacingAndGlyphs" textLength="59" x="218" y="222.5449">combater()</text><!--class EstrategiaAgente--><rect fill="#FEFECE" filter="url(#fuyblbk)" height="60.9551" style="stroke: #A80036; stroke-width: 1.5;" width="129" x="259.5" y="289"/><ellipse cx="274.5" cy="305" fill="#B4A7E5" rx="11" ry="11" style="stroke: #A80036; stroke-width: 1.0;"/><path d="M270.4277,300.7651 L270.4277,298.6069 L277.8071,298.6069 L277.8071,300.7651 L275.3418,300.7651 L275.3418,308.8418 L277.8071,308.8418 L277.8071,311 L270.4277,311 L270.4277,308.8418 L272.8931,308.8418 L272.8931,300.7651 Z "/><text fill="#000000" font-family="sans-serif" font-size="12" font-style="italic" lengthAdjust="spacingAndGlyphs" textLength="97" x="288.5" y="309.5352">EstrategiaAgente</text><line style="stroke: #A80036; stroke-width: 1.5;" x1="260.5" x2="387.5" y1="321" y2="321"/><line style="stroke: #A80036; stroke-width: 1.5;" x1="260.5" x2="387.5" y1="329" y2="329"/><ellipse cx="270.5" cy="340.9775" fill="#84BE84" rx="3" ry="3" style="stroke: #038048; stroke-width: 1.0;"/><text fill="#000000" font-family="sans-serif" font-size="11" lengthAdjust="spacingAndGlyphs" textLength="84" x="279.5" y="343.6348">executar(): void</text><!--class EstrategiaLinhaDeFrente--><rect fill="#FEFECE" filter="url(#fuyblbk)" height="86.8652" style="stroke: #A80036; stroke-width: 1.5;" width="194" x="6" y="410"/><ellipse cx="31.35" cy="426" fill="#ADD1B2" rx="11" ry="11" style="stroke: #A80036; stroke-width: 1.0;"/><path d="M34.3231,431.6431 Q33.7421,431.9419 33.1029,432.0913 Q32.4638,432.2407 31.7582,432.2407 Q29.2514,432.2407 27.9315,430.5889 Q26.6117,428.937 26.6117,425.8159 Q26.6117,422.6865 27.9315,421.0347 Q29.2514,419.3828 31.7582,419.3828 Q32.4638,419.3828 33.1112,419.5322 Q33.7587,419.6816 34.3231,419.9805 L34.3231,422.7031 Q33.6923,422.1221 33.0988,421.8523 Q32.5053,421.5825 31.8744,421.5825 Q30.5297,421.5825 29.8449,422.6492 Q29.1601,423.7158 29.1601,425.8159 Q29.1601,427.9077 29.8449,428.9744 Q30.5297,430.041 31.8744,430.041 Q32.5053,430.041 33.0988,429.7712 Q33.6923,429.5015 34.3231,428.9204 Z "/><text fill="#000000" font-family="sans-serif" font-size="12" lengthAdjust="spacingAndGlyphs" textLength="139" x="47.65" y="430.5352">EstrategiaLinhaDeFrente</text><line style="stroke: #A80036; stroke-width: 1.5;" x1="7" x2="199" y1="442" y2="442"/><ellipse cx="17" cy="453.9775" fill="none" rx="3" ry="3" style="stroke: #038048; stroke-width: 1.0;"/><text fill="#000000" font-family="sans-serif" font-size="11" lengthAdjust="spacingAndGlyphs" textLength="130" x="26" y="456.6348">EstrategiaLinhaDeFrente</text><line style="stroke: #A80036; stroke-width: 1.5;" x1="7" x2="199" y1="462.9551" y2="462.9551"/><ellipse cx="17" cy="474.9326" fill="#84BE84" rx="3" ry="3" style="stroke: #038048; stroke-width: 1.0;"/><text fill="#000000" font-family="sans-serif" font-size="11" lengthAdjust="spacingAndGlyphs" textLength="79" x="26" y="477.5898">execute(): void</text><ellipse cx="17" cy="487.8877" fill="#84BE84" rx="3" ry="3" style="stroke: #038048; stroke-width: 1.0;"/><text fill="#000000" font-family="sans-serif" font-size="11" lengthAdjust="spacingAndGlyphs" text-decoration="underline" textLength="168" x="26" y="490.5449">combaterComoLinhaDeFrente()</text><line style="stroke: #000000; stroke-width: 1.0;" x1="26" x2="194" y1="492.5449" y2="492.5449"/><!--class EstrategiaEngenharia--><rect fill="#FEFECE" filter="url(#fuyblbk)" height="86.8652" style="stroke: #A80036; stroke-width: 1.5;" width="178" x="235" y="410"/><ellipse cx="261.25" cy="426" fill="#ADD1B2" rx="11" ry="11" style="stroke: #A80036; stroke-width: 1.0;"/><path d="M264.2231,431.6431 Q263.6421,431.9419 263.0029,432.0913 Q262.3638,432.2407 261.6582,432.2407 Q259.1514,432.2407 257.8315,430.5889 Q256.5117,428.937 256.5117,425.8159 Q256.5117,422.6865 257.8315,421.0347 Q259.1514,419.3828 261.6582,419.3828 Q262.3638,419.3828 263.0112,419.5322 Q263.6587,419.6816 264.2231,419.9805 L264.2231,422.7031 Q263.5923,422.1221 262.9988,421.8523 Q262.4053,421.5825 261.7744,421.5825 Q260.4297,421.5825 259.7449,422.6492 Q259.0601,423.7158 259.0601,425.8159 Q259.0601,427.9077 259.7449,428.9744 Q260.4297,430.041 261.7744,430.041 Q262.4053,430.041 262.9988,429.7712 Q263.5923,429.5015 264.2231,428.9204 Z "/><text fill="#000000" font-family="sans-serif" font-size="12" lengthAdjust="spacingAndGlyphs" textLength="121" x="277.75" y="430.5352">EstrategiaEngenharia</text><line style="stroke: #A80036; stroke-width: 1.5;" x1="236" x2="412" y1="442" y2="442"/><ellipse cx="246" cy="453.9775" fill="none" rx="3" ry="3" style="stroke: #038048; stroke-width: 1.0;"/><text fill="#000000" font-family="sans-serif" font-size="11" lengthAdjust="spacingAndGlyphs" textLength="113" x="255" y="456.6348">EstrategiaEngenharia</text><line style="stroke: #A80036; stroke-width: 1.5;" x1="236" x2="412" y1="462.9551" y2="462.9551"/><ellipse cx="246" cy="474.9326" fill="#84BE84" rx="3" ry="3" style="stroke: #038048; stroke-width: 1.0;"/><text fill="#000000" font-family="sans-serif" font-size="11" lengthAdjust="spacingAndGlyphs" textLength="79" x="255" y="477.5898">execute(): void</text><ellipse cx="246" cy="487.8877" fill="#84BE84" rx="3" ry="3" style="stroke: #038048; stroke-width: 1.0;"/><text fill="#000000" font-family="sans-serif" font-size="11" lengthAdjust="spacingAndGlyphs" text-decoration="underline" textLength="152" x="255" y="490.5449">combaterComoEngenheiro()</text><line style="stroke: #000000; stroke-width: 1.0;" x1="255" x2="407" y1="492.5449" y2="492.5449"/><!--class EstrategiaSuporte--><rect fill="#FEFECE" filter="url(#fuyblbk)" height="86.8652" style="stroke: #A80036; stroke-width: 1.5;" width="159" x="448.5" y="410"/><ellipse cx="475.2" cy="426" fill="#ADD1B2" rx="11" ry="11" style="stroke: #A80036; stroke-width: 1.0;"/><path d="M478.1731,431.6431 Q477.5921,431.9419 476.9529,432.0913 Q476.3138,432.2407 475.6082,432.2407 Q473.1014,432.2407 471.7815,430.5889 Q470.4617,428.937 470.4617,425.8159 Q470.4617,422.6865 471.7815,421.0347 Q473.1014,419.3828 475.6082,419.3828 Q476.3138,419.3828 476.9612,419.5322 Q477.6087,419.6816 478.1731,419.9805 L478.1731,422.7031 Q477.5423,422.1221 476.9488,421.8523 Q476.3553,421.5825 475.7244,421.5825 Q474.3797,421.5825 473.6949,422.6492 Q473.0101,423.7158 473.0101,425.8159 Q473.0101,427.9077 473.6949,428.9744 Q474.3797,430.041 475.7244,430.041 Q476.3553,430.041 476.9488,429.7712 Q477.5423,429.5015 478.1731,428.9204 Z "/><text fill="#000000" font-family="sans-serif" font-size="12" lengthAdjust="spacingAndGlyphs" textLength="101" x="491.8" y="430.5352">EstrategiaSuporte</text><line style="stroke: #A80036; stroke-width: 1.5;" x1="449.5" x2="606.5" y1="442" y2="442"/><ellipse cx="459.5" cy="453.9775" fill="none" rx="3" ry="3" style="stroke: #038048; stroke-width: 1.0;"/><text fill="#000000" font-family="sans-serif" font-size="11" lengthAdjust="spacingAndGlyphs" textLength="95" x="468.5" y="456.6348">EstrategiaSuporte</text><line style="stroke: #A80036; stroke-width: 1.5;" x1="449.5" x2="606.5" y1="462.9551" y2="462.9551"/><ellipse cx="459.5" cy="474.9326" fill="#84BE84" rx="3" ry="3" style="stroke: #038048; stroke-width: 1.0;"/><text fill="#000000" font-family="sans-serif" font-size="11" lengthAdjust="spacingAndGlyphs" textLength="79" x="468.5" y="477.5898">execute(): void</text><ellipse cx="459.5" cy="487.8877" fill="#84BE84" rx="3" ry="3" style="stroke: #038048; stroke-width: 1.0;"/><text fill="#000000" font-family="sans-serif" font-size="11" lengthAdjust="spacingAndGlyphs" text-decoration="underline" textLength="133" x="468.5" y="490.5449">combaterComoSuporte()</text><line style="stroke: #000000; stroke-width: 1.0;" x1="468.5" x2="601.5" y1="492.5449" y2="492.5449"/><path d="M324,82.2825 C324,98.8594 324,118.6036 324,136.3632 " fill="none" style="stroke: #A80036; stroke-width: 1.0; stroke-dasharray: 7.0,7.0;"/><polygon fill="#A80036" points="324,141.8053,328,132.8053,324,136.8053,320,132.8053,324,141.8053" style="stroke: #A80036; stroke-width: 1.0;"/><path d="M324,229.006 C324,246.7354 324,266.978 324,283.8159 " fill="none" style="stroke: #A80036; stroke-width: 1.0;"/><polygon fill="#A80036" points="324,288.9257,328,279.9257,324,283.9257,320,279.9257,324,288.9257" style="stroke: #A80036; stroke-width: 1.0;"/><text fill="#000000" font-family="sans-serif" font-size="13" lengthAdjust="spacingAndGlyphs" textLength="8" x="315.3875" y="249.4187">0</text><text fill="#000000" font-family="sans-serif" font-size="13" lengthAdjust="spacingAndGlyphs" textLength="8" x="315.125" y="278.2042">1</text><path d="M256.4044,360.4856 C230.6273,376.1151 201.1625,393.9806 174.9916,409.849 " fill="none" style="stroke: #A80036; stroke-width: 1.0;"/><polygon fill="none" points="252.8439,354.4582,273.5751,350.0743,260.1026,366.4295,252.8439,354.4582" style="stroke: #A80036; stroke-width: 1.0;"/><path d="M324,370.3532 C324,383.3984 324,397.312 324,409.9514 " fill="none" style="stroke: #A80036; stroke-width: 1.0;"/><polygon fill="none" points="317.0001,370.2423,324,350.2423,331.0001,370.2423,317.0001,370.2423" style="stroke: #A80036; stroke-width: 1.0;"/><path d="M387.4276,361.1632 C410.9741,376.6301 437.7369,394.2095 461.5462,409.849 " fill="none" style="stroke: #A80036; stroke-width: 1.0;"/><polygon fill="none" points="383.4192,366.9054,370.546,350.0743,391.1054,355.204,383.4192,366.9054" style="stroke: #A80036; stroke-width: 1.0;"/></g></svg>