<?xml version="1.0" encoding="UTF-8" standalone="no"?>
<svg
   xmlns:sketch="http://www.bohemiancoding.com/sketch/ns"
   xmlns:dc="http://purl.org/dc/elements/1.1/"
   xmlns:cc="http://creativecommons.org/ns#"
   xmlns:rdf="http://www.w3.org/1999/02/22-rdf-syntax-ns#"
   xmlns:svg="http://www.w3.org/2000/svg"
   xmlns="http://www.w3.org/2000/svg"
   xmlns:sodipodi="http://sodipodi.sourceforge.net/DTD/sodipodi-0.dtd"
   xmlns:inkscape="http://www.inkscape.org/namespaces/inkscape"
   width="40px"
   height="40px"
   viewBox="0 0 60 60"
   version="1.1"
   id="svg3426"
   inkscape:version="0.91 r13725"
   sodipodi:docname="paypal.svg">
  <metadata
     id="metadata3435">
    <rdf:RDF>
      <cc:Work
         rdf:about="">
        <dc:format>image/svg+xml</dc:format>
        <dc:type
           rdf:resource="http://purl.org/dc/dcmitype/StillImage" />
        <dc:title></dc:title>
      </cc:Work>
    </rdf:RDF>
  </metadata>
  <defs
     id="defs3433">
    <filter
       inkscape:collect="always"
       id="filter22750">
      <feGaussianBlur
         inkscape:collect="always"
         stdDeviation="2.3420919"
         id="feGaussianBlur22752" />
    </filter>
  </defs>
  <sodipodi:namedview
     pagecolor="#ffffff"
     bordercolor="#666666"
     borderopacity="1"
     objecttolerance="10"
     gridtolerance="10"
     guidetolerance="10"
     inkscape:pageopacity="0"
     inkscape:pageshadow="2"
     inkscape:window-width="1280"
     inkscape:window-height="868"
     id="namedview3431"
     showgrid="false"
     inkscape:zoom="5.9"
     inkscape:cx="-12.457627"
     inkscape:cy="20"
     inkscape:window-x="0"
     inkscape:window-y="0"
     inkscape:window-maximized="0"
     inkscape:current-layer="svg3426" />
  <path
     d="M0.336871032,30 C0.336871032,13.4314567 13.5672313,0 29.8877097,0 C46.208188,0 59.4385483,13.4314567 59.4385483,30 C59.4385483,46.5685433 46.208188,60 29.8877097,60 C13.5672313,60 0.336871032,46.5685433 0.336871032,30 Z M0.336871032,30"
     id="Github"
     fill="#333333"
     sketch:type="MSShapeGroup"
     style="fill:#ffc242;fill-opacity:1" />
  <g
     transform="matrix(0.26641189,0,0,0.28138465,-115.90952,-28.307553)"
     id="g22754">
    <g
       id="g21535"
       transform="translate(0.2067277,2.316172)"
       style="fill:#000000;fill-opacity:1;filter:url(#filter22750)">
      <path
         inkscape:connector-curvature="0"
         id="path21537"
         d="m 456.59375,185.90625 c -3.11465,14.3105 -6.22911,28.627 -9.34375,42.9375 3.95643,-0.0842 7.91857,-0.16582 11.875,-0.25 0.92597,-4.71405 1.85528,-9.4422 2.78125,-14.15625 3.69042,-0.0696 7.3721,-0.14912 11.0625,-0.21875 2.45851,0.0322 5.02383,-0.0864 7.125,-1.53125 5.53957,-3.59162 8.98484,-10.46187 8.1875,-17.0625 -0.56613,-4.95497 -4.92848,-8.61897 -9.59375,-9.6875 -7.36363,-0.0697 -14.72484,-0.0113 -22.09375,-0.0312 z m 10.09375,8.59375 7.0625,0.25 c 3.53554,1.26269 3.32751,2.78848 3.03125,4.53125 -1.26269,7.42811 -5.81249,6.8125 -5.8125,6.8125 l -6.8125,-0.25 L 466.6875,194.5 Z"
         style="fill:#000000;fill-opacity:1;fill-rule:evenodd;stroke:none;stroke-width:1px;stroke-linecap:butt;stroke-linejoin:miter;stroke-opacity:1" />
      <path
         inkscape:connector-curvature="0"
         id="path21539"
         d="m 506.5625,193.9375 c -3.63823,-0.0576 -8.65371,0.53712 -15.125,3.0625 l 0,7.59375 c 0,0 10.83717,-4.05636 15.15625,-1 1.45767,1.0315 1.00507,2.5211 0.5,3.53125 -0.50509,1.01016 -13.12404,-2.54489 -19.4375,5.03125 -6.31346,7.57615 -0.59052,14.37395 0,14.65625 2.27842,1.0892 7.33265,5.05584 14.65625,-0.5 l 0.5,2.03125 10.59375,0 c 0,-1e-5 5.98044,-19.20641 5.0625,-26.78125 -0.34643,-2.85847 -1.71728,-6.05234 -6.8125,-7.0625 -1.20762,-0.23942 -2.91081,-0.52793 -5.09375,-0.5625 z m -4.875,20.4375 c 1.94081,-0.0111 3.65626,0.3125 3.65625,0.3125 -0.50507,5.80838 -7.03852,10.06519 -8.84375,5.5625 -1.96626,-4.90429 1.95282,-5.85653 5.1875,-5.875 z"
         style="fill:#000000;fill-opacity:1;fill-rule:evenodd;stroke:none;stroke-width:1px;stroke-linecap:butt;stroke-linejoin:miter;stroke-opacity:1" />
      <path
         inkscape:connector-curvature="0"
         id="path21541"
         d="m 523.51156,194.74267 10.35406,0 2.02031,18.94036 10.35406,-18.68782 11.61675,0.25254 -25.25381,46.97209 -13.13198,-0.25254 7.57614,-12.6269 -3.53553,-34.59773 z"
         style="fill:#000000;fill-opacity:1;fill-rule:evenodd;stroke:none;stroke-width:1px;stroke-linecap:butt;stroke-linejoin:miter;stroke-opacity:1" />
      <path
         inkscape:connector-curvature="0"
         id="path21543"
         d="m 634.88088,185.6513 11.86929,0 -9.34391,43.18402 -11.36422,0 8.83884,-43.18402 z"
         style="fill:#000000;fill-opacity:1;fill-rule:evenodd;stroke:none;stroke-width:1px;stroke-linecap:butt;stroke-linejoin:miter;stroke-opacity:1" />
      <path
         inkscape:connector-curvature="0"
         id="path21545"
         d="m 613.03125,194.28125 c -3.63823,-0.0576 -8.65371,0.56837 -15.125,3.09375 l 0,7.5625 c 0,1e-5 10.83717,-4.05636 15.15625,-1 1.45767,1.0315 1.00507,2.5211 0.5,3.53125 -0.50506,1.01015 -13.12404,-2.54489 -19.4375,5.03125 -6.31343,7.57616 -0.59052,14.37395 0,14.65625 2.27845,1.08919 7.33265,5.05584 14.65625,-0.5 l 0.5,2.03125 10.59375,0 c 0,0 5.98044,-19.20641 5.0625,-26.78125 -0.34643,-2.85847 -1.71728,-6.05234 -6.8125,-7.0625 -1.20763,-0.23942 -2.91081,-0.52793 -5.09375,-0.5625 z m -4.84375,20.4375 c 1.94081,-0.0111 3.625,0.3125 3.625,0.3125 -0.50507,5.80838 -7.03852,10.06519 -8.84375,5.5625 -1.96626,-4.90429 1.98407,-5.85654 5.21875,-5.875 z"
         style="fill:#000000;fill-opacity:1;fill-rule:evenodd;stroke:none;stroke-width:1px;stroke-linecap:butt;stroke-linejoin:miter;stroke-opacity:1" />
      <path
         inkscape:connector-curvature="0"
         id="path21547"
         d="m 574.09375,186.375 c -3.68591,0.004 -7.37805,0.0412 -11.0625,0.0312 -3.11465,14.3105 -6.22911,28.59574 -9.34375,42.90625 3.95643,-0.0842 7.91859,-0.16581 11.875,-0.25 0.92597,-4.71405 1.85527,-9.41095 2.78125,-14.125 3.69042,-0.0696 7.37209,-0.14911 11.0625,-0.21875 2.45851,0.0322 5.0551,-0.0864 7.15625,-1.53125 5.53957,-3.59162 8.95358,-10.46186 8.15625,-17.0625 -0.56613,-4.95497 -4.89724,-8.65021 -9.5625,-9.71875 -3.68182,-0.0349 -7.37659,-0.035 -11.0625,-0.0312 z m -0.9375,8.59375 7.0625,0.25 c 3.53554,1.26269 3.32747,2.81974 3.03125,4.5625 -1.26269,7.42811 -5.8125,6.81249 -5.8125,6.8125 l -6.8125,-0.25 2.53125,-11.375 z"
         style="fill:#000000;fill-opacity:1;fill-rule:evenodd;stroke:none;stroke-width:1px;stroke-linecap:butt;stroke-linejoin:miter;stroke-opacity:1" />
    </g>
    <g
       id="g21510">
      <path
         inkscape:connector-curvature="0"
         id="path20505"
         d="m 456.59375,185.90625 c -3.11465,14.3105 -6.22911,28.627 -9.34375,42.9375 3.95643,-0.0842 7.91857,-0.16582 11.875,-0.25 0.92597,-4.71405 1.85528,-9.4422 2.78125,-14.15625 3.69042,-0.0696 7.3721,-0.14912 11.0625,-0.21875 2.45851,0.0322 5.02383,-0.0864 7.125,-1.53125 5.53957,-3.59162 8.98484,-10.46187 8.1875,-17.0625 -0.56613,-4.95497 -4.92848,-8.61897 -9.59375,-9.6875 -7.36363,-0.0697 -14.72484,-0.0113 -22.09375,-0.0312 z m 10.09375,8.59375 7.0625,0.25 c 3.53554,1.26269 3.32751,2.78848 3.03125,4.53125 -1.26269,7.42811 -5.81249,6.8125 -5.8125,6.8125 l -6.8125,-0.25 L 466.6875,194.5 Z"
         style="fill:#0f4262;fill-opacity:1;fill-rule:evenodd;stroke:none;stroke-width:1px;stroke-linecap:butt;stroke-linejoin:miter;stroke-opacity:1" />
      <path
         inkscape:connector-curvature="0"
         id="path20513"
         d="m 506.5625,193.9375 c -3.63823,-0.0576 -8.65371,0.53712 -15.125,3.0625 l 0,7.59375 c 0,0 10.83717,-4.05636 15.15625,-1 1.45767,1.0315 1.00507,2.5211 0.5,3.53125 -0.50509,1.01016 -13.12404,-2.54489 -19.4375,5.03125 -6.31346,7.57615 -0.59052,14.37395 0,14.65625 2.27842,1.0892 7.33265,5.05584 14.65625,-0.5 l 0.5,2.03125 10.59375,0 c 0,-1e-5 5.98044,-19.20641 5.0625,-26.78125 -0.34643,-2.85847 -1.71728,-6.05234 -6.8125,-7.0625 -1.20762,-0.23942 -2.91081,-0.52793 -5.09375,-0.5625 z m -4.875,20.4375 c 1.94081,-0.0111 3.65626,0.3125 3.65625,0.3125 -0.50507,5.80838 -7.03852,10.06519 -8.84375,5.5625 -1.96626,-4.90429 1.95282,-5.85653 5.1875,-5.875 z"
         style="fill:#0f4262;fill-opacity:1;fill-rule:evenodd;stroke:none;stroke-width:1px;stroke-linecap:butt;stroke-linejoin:miter;stroke-opacity:1" />
      <path
         inkscape:connector-curvature="0"
         id="path20517"
         d="m 523.51156,194.74267 10.35406,0 2.02031,18.94036 10.35406,-18.68782 11.61675,0.25254 -25.25381,46.97209 -13.13198,-0.25254 7.57614,-12.6269 -3.53553,-34.59773 z"
         style="fill:#0f4262;fill-opacity:1;fill-rule:evenodd;stroke:none;stroke-width:1px;stroke-linecap:butt;stroke-linejoin:miter;stroke-opacity:1" />
      <path
         inkscape:connector-curvature="0"
         id="path20519"
         d="m 634.88088,185.6513 11.86929,0 -9.34391,43.18402 -11.36422,0 8.83884,-43.18402 z"
         style="fill:#136da5;fill-opacity:1;fill-rule:evenodd;stroke:none;stroke-width:1px;stroke-linecap:butt;stroke-linejoin:miter;stroke-opacity:1" />
      <path
         inkscape:connector-curvature="0"
         id="path20521"
         d="m 613.03125,194.28125 c -3.63823,-0.0576 -8.65371,0.56837 -15.125,3.09375 l 0,7.5625 c 0,1e-5 10.83717,-4.05636 15.15625,-1 1.45767,1.0315 1.00507,2.5211 0.5,3.53125 -0.50506,1.01015 -13.12404,-2.54489 -19.4375,5.03125 -6.31343,7.57616 -0.59052,14.37395 0,14.65625 2.27845,1.08919 7.33265,5.05584 14.65625,-0.5 l 0.5,2.03125 10.59375,0 c 0,0 5.98044,-19.20641 5.0625,-26.78125 -0.34643,-2.85847 -1.71728,-6.05234 -6.8125,-7.0625 -1.20763,-0.23942 -2.91081,-0.52793 -5.09375,-0.5625 z m -4.84375,20.4375 c 1.94081,-0.0111 3.625,0.3125 3.625,0.3125 -0.50507,5.80838 -7.03852,10.06519 -8.84375,5.5625 -1.96626,-4.90429 1.98407,-5.85654 5.21875,-5.875 z"
         style="fill:#136da5;fill-opacity:1;fill-rule:evenodd;stroke:none;stroke-width:1px;stroke-linecap:butt;stroke-linejoin:miter;stroke-opacity:1" />
      <path
         inkscape:connector-curvature="0"
         id="path20525"
         d="m 574.09375,186.375 c -3.68591,0.004 -7.37805,0.0412 -11.0625,0.0312 -3.11465,14.3105 -6.22911,28.59574 -9.34375,42.90625 3.95643,-0.0842 7.91859,-0.16581 11.875,-0.25 0.92597,-4.71405 1.85527,-9.41095 2.78125,-14.125 3.69042,-0.0696 7.37209,-0.14911 11.0625,-0.21875 2.45851,0.0322 5.0551,-0.0864 7.15625,-1.53125 5.53957,-3.59162 8.95358,-10.46186 8.15625,-17.0625 -0.56613,-4.95497 -4.89724,-8.65021 -9.5625,-9.71875 -3.68182,-0.0349 -7.37659,-0.035 -11.0625,-0.0312 z m -0.9375,8.59375 7.0625,0.25 c 3.53554,1.26269 3.32747,2.81974 3.03125,4.5625 -1.26269,7.42811 -5.8125,6.81249 -5.8125,6.8125 l -6.8125,-0.25 2.53125,-11.375 z"
         style="fill:#136da5;fill-opacity:1;fill-rule:evenodd;stroke:none;stroke-width:1px;stroke-linecap:butt;stroke-linejoin:miter;stroke-opacity:1" />
    </g>
  </g>
  <path
     inkscape:connector-curvature="0"
     style="fill:#000000;fill-opacity:0.07999998"
     d="m 59.060161,29.886904 c 0,16.568543 -13.230361,30 -29.550839,30 -6.052879,0 -11.680714,-1.847487 -16.366095,-5.017225 L 47.003447,5.7063148 C 54.315346,11.167554 59.060161,19.964701 59.060161,29.886904 Z m 0,0"
     id="reflec"
     sketch:type="MSShapeGroup" />
</svg>
