<?xml version="1.0" standalone="no"?>
<!DOCTYPE svg PUBLIC "-//W3C//DTD SVG 1.1//EN" "http://www.w3.org/Graphics/SVG/1.1/DTD/svg11.dtd">
<svg width="148.342562560008mm" height="409.671979021693mm"
 viewBox="0 0 148.342562560008 409.671979021693"
 xmlns="http://www.w3.org/2000/svg" version="1.1"
 xmlns:xlink="http://www.w3.org/1999/xlink">
<desc>Output from Flights of Ideas SVG Sketchup Plugin</desc>

  <g id="face0" fill="none" stroke="rgb(0,0,255)" stroke-width="1" stroke-miterlimit="4" stroke-dasharray="none" stroke-linejoin="round" stroke-linecap="round">
    <line x1="122.845269660162" y1="15.8081091797808" x2="122.335325802165" y2="16.1242693633767"/>
    <line x1="122.335325802165" y1="16.1242693633767" x2="120.227591244861" y2="12.7246436433968"/>
    <line x1="120.227591244861" y1="12.7246436433968" x2="94.8153889880144" y2="28.4799594592451"/>
    <line x1="94.8153889880144" y1="28.4799594592451" x2="96.9231235453185" y2="31.879585179225"/>
    <line x1="96.9231235453185" y1="31.879585179225" x2="5.53146682583126" y2="88.5415147513127"/>
    <line x1="5.53146682583126" y1="88.5415147513127" x2="6.74417617948319" y2="88.5415147513145"/>
    <line x1="6.74417617948319" y1="88.5415147513145" x2="6.74417617946726" y2="98.5415147513145"/>
    <line x1="6.74417617946726" y1="98.5415147513145" x2="0.000100000338553185" y2="98.5415147513036"/>
    <line x1="0.000100000338553185" y1="98.5415147513036" x2="0.000100000306721759" y2="118.541514751304"/>
    <line x1="0.000100000306721759" y1="118.541514751304" x2="6.74417617943534" y2="118.541514751315"/>
    <line x1="6.74417617943534" y1="118.541514751315" x2="6.74417617916056" y2="291.130464270028"/>
    <line x1="6.74417617916056" y1="291.130464270028" x2="0.000100000031809222" y2="291.130464270017"/>
    <line x1="0.000100000031809222" y1="291.130464270017" x2="0.0001" y2="311.130464270017"/>
    <line x1="0.0001" y1="311.130464270017" x2="6.74417617912875" y2="311.130464270028"/>
    <line x1="6.74417617912875" y1="311.130464270028" x2="6.74417617911282" y2="321.130464270028"/>
    <line x1="6.74417617911282" y1="321.130464270028" x2="5.00009999998413" y2="321.130464270025"/>
    <line x1="5.00009999998413" y1="321.130464270025" x2="97.2956058869724" y2="378.14064967889"/>
    <line x1="97.2956058869724" y1="378.14064967889" x2="95.1935239307855" y2="381.543773457049"/>
    <line x1="95.1935239307855" y1="381.543773457049" x2="120.716952266981" y2="397.30938812845"/>
    <line x1="120.716952266981" y1="397.30938812845" x2="122.819034223167" y2="393.906264350291"/>
    <line x1="122.819034223167" y1="393.906264350291" x2="148.342462559362" y2="409.671879021693"/>
    <line x1="148.342462559362" y1="409.671879021693" x2="148.342462560008" y2="0.0001"/>
    <line x1="148.342462560008" y1="0.0001" x2="122.845269660162" y2="15.8081091797808"/>
  </g>
</svg>
