<?xml version="1.0" standalone="no"?>
<!DOCTYPE svg PUBLIC "-//W3C//DTD SVG 1.1//EN" "http://www.w3.org/Graphics/SVG/1.1/DTD/svg11.dtd">
<svg width="181.954099612403mm" height="320.000200000193mm"
 viewBox="0 0 181.954099612403 320.000200000193"
 xmlns="http://www.w3.org/2000/svg" version="1.1"
 xmlns:xlink="http://www.w3.org/1999/xlink">
<desc>Output from Flights of Ideas SVG Sketchup Plugin</desc>

  <g id="face0" fill="none" stroke="rgb(0,0,255)" stroke-width="1" stroke-miterlimit="4" stroke-dasharray="none" stroke-linejoin="round" stroke-linecap="round">
    <line x1="10.0001000000001" y1="240.000099997475" x2="169.953999607261" y2="320.0001"/>
    <line x1="169.953999607261" y1="320.0001" x2="181.953999607261" y2="320.000100000193"/>
    <line x1="181.953999607261" y1="320.000100000193" x2="181.953999607582" y2="300.000100000193"/>
    <line x1="181.953999607582" y1="300.000100000193" x2="169.953999607582" y2="300.0001"/>
    <line x1="169.953999607582" y1="300.0001" x2="169.953999607904" y2="280.0001"/>
    <line x1="169.953999607904" y1="280.0001" x2="181.953999607904" y2="280.000100000193"/>
    <line x1="181.953999607904" y1="280.000100000193" x2="181.953999608547" y2="240.000099997475"/>
    <line x1="181.953999608547" y1="240.000099997475" x2="169.953999608547" y2="240.000099997475"/>
    <line x1="169.953999608547" y1="240.000099997475" x2="169.953999609189" y2="200.0001"/>
    <line x1="169.953999609189" y1="200.0001" x2="181.953999609189" y2="200.000100000193"/>
    <line x1="181.953999609189" y1="200.000100000193" x2="181.953999610475" y2="120.000100000193"/>
    <line x1="181.953999610475" y1="120.000100000193" x2="169.953999610475" y2="120.0001"/>
    <line x1="169.953999610475" y1="120.0001" x2="169.953999611118" y2="80.0001"/>
    <line x1="169.953999611118" y1="80.0001" x2="181.953999611118" y2="80.0001000001935"/>
    <line x1="181.953999611118" y1="80.0001000001935" x2="181.953999611761" y2="40.0001000001937"/>
    <line x1="181.953999611761" y1="40.0001000001937" x2="169.95399961176" y2="40.0001"/>
    <line x1="169.95399961176" y1="40.0001" x2="169.953999612082" y2="20.0000999999998"/>
    <line x1="169.953999612082" y1="20.0000999999998" x2="181.953999612082" y2="20.0001000001935"/>
    <line x1="181.953999612082" y1="20.0001000001935" x2="181.953999612403" y2="0.000100000193722371"/>
    <line x1="181.953999612403" y1="0.000100000193722371" x2="169.953999612403" y2="0.0001"/>
    <line x1="169.953999612403" y1="0.0001" x2="10.0001000033164" y2="30.0000999974748"/>
    <line x1="10.0001000033164" y1="30.0000999974748" x2="0.000100003316358743" y2="30.0000999973179"/>
    <line x1="0.000100003316358743" y1="30.0000999973179" x2="0.000100003000536708" y2="50.0000999973177"/>
    <line x1="0.000100003000536708" y1="50.0000999973177" x2="10.0001000030006" y2="50.000099997475"/>
    <line x1="10.0001000030006" y1="50.000099997475" x2="10.0001000026848" y2="70.0000999974748"/>
    <line x1="10.0001000026848" y1="70.0000999974748" x2="0.000100002684657829" y2="70.0000999973177"/>
    <line x1="0.000100002684657829" y1="70.0000999973177" x2="0.000100002210924777" y2="100.000099997318"/>
    <line x1="0.000100002210924777" y1="100.000099997318" x2="10.000100002211" y2="100.000099997475"/>
    <line x1="10.000100002211" y1="100.000099997475" x2="10.0001000018952" y2="120.000099997475"/>
    <line x1="10.0001000018952" y1="120.000099997475" x2="0.000100001895102741" y2="120.000099997317"/>
    <line x1="0.000100001895102741" y1="120.000099997317" x2="0.000100001421312845" y2="150.000099997317"/>
    <line x1="0.000100001421312845" y1="150.000099997317" x2="10.0001000014214" y2="150.000099997475"/>
    <line x1="10.0001000014214" y1="150.000099997475" x2="10.0001000011054" y2="170.000099997475"/>
    <line x1="10.0001000011054" y1="170.000099997475" x2="0.000100001105433967" y2="170.000099997318"/>
    <line x1="0.000100001105433967" y1="170.000099997318" x2="0.00010000063164407" y2="200.000099997318"/>
    <line x1="0.00010000063164407" y1="200.000099997318" x2="10.0001000006317" y2="200.000099997475"/>
    <line x1="10.0001000006317" y1="200.000099997475" x2="10.0001000003159" y2="220.000099997475"/>
    <line x1="10.0001000003159" y1="220.000099997475" x2="0.000100000315822035" y2="220.000099997317"/>
    <line x1="0.000100000315822035" y1="220.000099997317" x2="0.0001" y2="240.000099997475"/>
    <line x1="0.0001" y1="240.000099997475" x2="10.0001000000001" y2="240.000099997475"/>
    <line x1="144.945267305621" y1="11.423368374029" x2="144.945267305566" y2="14.923368374029"/>
    <line x1="144.945267305566" y1="14.923368374029" x2="114.782901750374" y2="19.4490400495929"/>
    <line x1="114.782901750374" y1="19.4490400495929" x2="114.782901750429" y2="15.9490400495929"/>
    <line x1="114.782901750429" y1="15.9490400495929" x2="144.945267305621" y2="11.423368374029"/>
  </g>
</svg>
