<?xml version="1.0" standalone="no"?>
<!DOCTYPE svg PUBLIC "-//W3C//DTD SVG 1.1//EN" "http://www.w3.org/Graphics/SVG/1.1/DTD/svg11.dtd">
<svg width="181.954099609573mm" height="320.000200000046mm"
 viewBox="0 0 181.954099609573 320.000200000046"
 xmlns="http://www.w3.org/2000/svg" version="1.1"
 xmlns:xlink="http://www.w3.org/1999/xlink">
<desc>Output from Flights of Ideas SVG Sketchup Plugin</desc>

  <g id="face0" fill="none" stroke="rgb(0,0,255)" stroke-width="1" stroke-miterlimit="4" stroke-dasharray="none" stroke-linejoin="round" stroke-linecap="round">
    <line x1="10.0001000008196" y1="290.000100000657" x2="169.953999609573" y2="320.000100000046"/>
    <line x1="169.953999609573" y1="320.000100000046" x2="181.953999609573" y2="320.0001"/>
    <line x1="181.953999609573" y1="320.0001" x2="181.953999609495" y2="300.000099999999"/>
    <line x1="181.953999609495" y1="300.000099999999" x2="169.953999609495" y2="300.000100000046"/>
    <line x1="169.953999609495" y1="300.000100000046" x2="169.953999609417" y2="280.000100000047"/>
    <line x1="169.953999609417" y1="280.000100000047" x2="181.953999609417" y2="280.0001"/>
    <line x1="181.953999609417" y1="280.0001" x2="181.953999609261" y2="240.0001"/>
    <line x1="181.953999609261" y1="240.0001" x2="169.953999609261" y2="240.000100000047"/>
    <line x1="169.953999609261" y1="240.000100000047" x2="169.953999609105" y2="200.000100000047"/>
    <line x1="169.953999609105" y1="200.000100000047" x2="181.953999609105" y2="200.0001"/>
    <line x1="181.953999609105" y1="200.0001" x2="181.953999608793" y2="120.0001"/>
    <line x1="181.953999608793" y1="120.0001" x2="169.953999608793" y2="120.000100000047"/>
    <line x1="169.953999608793" y1="120.000100000047" x2="169.953999608637" y2="80.0001000000466"/>
    <line x1="169.953999608637" y1="80.0001000000466" x2="181.953999608637" y2="80.0000999999998"/>
    <line x1="181.953999608637" y1="80.0000999999998" x2="181.953999608481" y2="40.0001"/>
    <line x1="181.953999608481" y1="40.0001" x2="169.953999608481" y2="40.0001000000466"/>
    <line x1="169.953999608481" y1="40.0001000000466" x2="169.953999608402" y2="20.0001000000466"/>
    <line x1="169.953999608402" y1="20.0001000000466" x2="181.953999608403" y2="20.0000999999998"/>
    <line x1="181.953999608403" y1="20.0000999999998" x2="181.953999608324" y2="0.0001"/>
    <line x1="181.953999608324" y1="0.0001" x2="169.953999608324" y2="0.000100000046838977"/>
    <line x1="169.953999608324" y1="0.000100000046838977" x2="10.0000999999999" y2="80.0001000006569"/>
    <line x1="10.0000999999999" y1="80.0001000006569" x2="0.0001" y2="80.0001000006958"/>
    <line x1="0.0001" y1="80.0001000006958" x2="0.000100000078046014" y2="100.000100000696"/>
    <line x1="0.000100000078046014" y1="100.000100000696" x2="10.000100000078" y2="100.000100000657"/>
    <line x1="10.000100000078" y1="100.000100000657" x2="10.0001000001561" y2="120.000100000657"/>
    <line x1="10.0001000001561" y1="120.000100000657" x2="0.00010000015612045" y2="120.000100000696"/>
    <line x1="0.00010000015612045" y1="120.000100000696" x2="0.000100000273189471" y2="150.000100000696"/>
    <line x1="0.000100000273189471" y1="150.000100000696" x2="10.0001000002732" y2="150.000100000657"/>
    <line x1="10.0001000002732" y1="150.000100000657" x2="10.0001000003512" y2="170.000100000657"/>
    <line x1="10.0001000003512" y1="170.000100000657" x2="0.000100000351263907" y2="170.000100000696"/>
    <line x1="0.000100000351263907" y1="170.000100000696" x2="0.000100000468389771" y2="200.000100000696"/>
    <line x1="0.000100000468389771" y1="200.000100000696" x2="10.0001000004683" y2="200.000100000657"/>
    <line x1="10.0001000004683" y1="200.000100000657" x2="10.0001000005464" y2="220.000100000657"/>
    <line x1="10.0001000005464" y1="220.000100000657" x2="0.000100000546435786" y2="220.000100000696"/>
    <line x1="0.000100000546435786" y1="220.000100000696" x2="0.000100000663533228" y2="250.000100000696"/>
    <line x1="0.000100000663533228" y1="250.000100000696" x2="10.0001000006635" y2="250.000100000657"/>
    <line x1="10.0001000006635" y1="250.000100000657" x2="10.0001000007416" y2="270.000100000657"/>
    <line x1="10.0001000007416" y1="270.000100000657" x2="0.000100000741579242" y2="270.000100000696"/>
    <line x1="0.000100000741579242" y1="270.000100000696" x2="0.000100000819653678" y2="290.000100000657"/>
    <line x1="0.000100000819653678" y1="290.000100000657" x2="10.0001000008196" y2="290.000100000657"/>
    <line x1="114.459391152667" y1="304.002619236551" x2="114.45943212066" y2="300.502625383541"/>
    <line x1="114.45943212066" y1="300.502625383541" x2="144.621797675798" y2="305.028297059464"/>
    <line x1="144.621797675798" y1="305.028297059464" x2="144.621797675811" y2="308.528297059464"/>
    <line x1="144.621797675811" y1="308.528297059464" x2="114.459391152667" y2="304.002619236551"/>
  </g>
</svg>
