<?xml version="1.0" standalone="no"?>
<!DOCTYPE svg PUBLIC "-//W3C//DTD SVG 1.1//EN" "http://www.w3.org/Graphics/SVG/1.1/DTD/svg11.dtd">
<svg width="268.0mm" height="302.999999999992mm"
 viewBox="0 0 268.0 302.999999999992"
 xmlns="http://www.w3.org/2000/svg" version="1.1"
 xmlns:xlink="http://www.w3.org/1999/xlink">
<desc>Output from Flights of Ideas SVG Sketchup Plugin</desc>

  <g id="face0" fill="none" stroke="rgb(0,0,255)" stroke-width="1" stroke-miterlimit="4" stroke-dasharray="none" stroke-linejoin="round" stroke-linecap="round">
    <line x1="267.0" y1="4.00000000000182" x2="247.0" y2="4.00000000000182"/>
    <line x1="247.0" y1="4.00000000000182" x2="247.0" y2="6.00000000000182"/>
    <line x1="247.0" y1="6.00000000000182" x2="248.3" y2="6.00000000000159"/>
    <line x1="248.3" y1="6.00000000000159" x2="248.3" y2="8.20000000000164"/>
    <line x1="248.3" y1="8.20000000000164" x2="247.0" y2="8.20000000000164"/>
    <line x1="247.0" y1="8.20000000000164" x2="247.0" y2="11.2000000000016"/>
    <line x1="247.0" y1="11.2000000000016" x2="244.0" y2="11.2000000000016"/>
    <line x1="244.0" y1="11.2000000000016" x2="244.0" y2="8.20000000000164"/>
    <line x1="244.0" y1="8.20000000000164" x2="242.7" y2="8.20000000000164"/>
    <line x1="242.7" y1="8.20000000000164" x2="242.7" y2="6.00000000000182"/>
    <line x1="242.7" y1="6.00000000000182" x2="244.0" y2="6.00000000000182"/>
    <line x1="244.0" y1="6.00000000000182" x2="244.0" y2="4.00000000000182"/>
    <line x1="244.0" y1="4.00000000000182" x2="234.0" y2="4.00000000000182"/>
    <line x1="234.0" y1="4.00000000000182" x2="234.0" y2="1.00000000000182"/>
    <line x1="234.0" y1="1.00000000000182" x2="204.0" y2="1.00000000000182"/>
    <line x1="204.0" y1="1.00000000000182" x2="204.0" y2="4.00000000000182"/>
    <line x1="204.0" y1="4.00000000000182" x2="64.0000000000002" y2="4.00000000000182"/>
    <line x1="64.0000000000002" y1="4.00000000000182" x2="64.0000000000002" y2="1.0"/>
    <line x1="64.0000000000002" y1="1.0" x2="34.0000000000001" y2="1.0000000000025"/>
    <line x1="34.0000000000001" y1="1.0000000000025" x2="34.0000000000001" y2="4.00000000000182"/>
    <line x1="34.0000000000001" y1="4.00000000000182" x2="24.0" y2="4.00000000000182"/>
    <line x1="24.0" y1="4.00000000000182" x2="24.0" y2="6.00000000000205"/>
    <line x1="24.0" y1="6.00000000000205" x2="25.3000000000001" y2="6.00000000000159"/>
    <line x1="25.3000000000001" y1="6.00000000000159" x2="25.3000000000001" y2="8.20000000000346"/>
    <line x1="25.3000000000001" y1="8.20000000000346" x2="24.0" y2="8.20000000000118"/>
    <line x1="24.0" y1="8.20000000000118" x2="24.0" y2="11.2000000000007"/>
    <line x1="24.0" y1="11.2000000000007" x2="21.0" y2="11.2000000000023"/>
    <line x1="21.0" y1="11.2000000000023" x2="21.0" y2="8.20000000000118"/>
    <line x1="21.0" y1="8.20000000000118" x2="19.7000000000001" y2="8.20000000000095"/>
    <line x1="19.7000000000001" y1="8.20000000000095" x2="19.7000000000001" y2="6.00000000000045"/>
    <line x1="19.7000000000001" y1="6.00000000000045" x2="21.0" y2="6.00000000000341"/>
    <line x1="21.0" y1="6.00000000000341" x2="21.0" y2="4.00000000000182"/>
    <line x1="21.0" y1="4.00000000000182" x2="1.00000000000005" y2="4.00000000000182"/>
    <line x1="1.00000000000005" y1="4.00000000000182" x2="1.0" y2="298.999999999992"/>
    <line x1="1.0" y1="298.999999999992" x2="24.0" y2="298.999999999992"/>
    <line x1="24.0" y1="298.999999999992" x2="24.0" y2="301.999999999992"/>
    <line x1="24.0" y1="301.999999999992" x2="54.0" y2="301.999999999992"/>
    <line x1="54.0" y1="301.999999999992" x2="54.0000000000002" y2="298.999999999992"/>
    <line x1="54.0000000000002" y1="298.999999999992" x2="214.0" y2="298.999999999992"/>
    <line x1="214.0" y1="298.999999999992" x2="214.0" y2="301.999999999992"/>
    <line x1="214.0" y1="301.999999999992" x2="244.0" y2="301.999999999992"/>
    <line x1="244.0" y1="301.999999999992" x2="244.0" y2="298.999999999992"/>
    <line x1="244.0" y1="298.999999999992" x2="267.0" y2="298.999999999992"/>
    <line x1="267.0" y1="298.999999999992" x2="267.0" y2="4.00000000000182"/>
    <line x1="219.0" y1="253.999999999992" x2="49.0000000000002" y2="253.999999999992"/>
    <line x1="49.0000000000002" y1="253.999999999992" x2="49.0000000000001" y2="143.999999999991"/>
    <line x1="49.0000000000001" y1="143.999999999991" x2="219.0" y2="143.999999999991"/>
    <line x1="219.0" y1="143.999999999991" x2="219.0" y2="253.999999999992"/>
    <line x1="14.0" y1="273.999999999992" x2="19.4233335706687" y2="273.999999999992"/>
    <line x1="19.4233335706687" y1="273.999999999992" x2="19.4233335706686" y2="293.999999999993"/>
    <line x1="19.4233335706686" y1="293.999999999993" x2="14.0" y2="293.999999999992"/>
    <line x1="14.0" y1="293.999999999992" x2="14.0" y2="273.999999999992"/>
    <line x1="19.4233335706686" y1="223.999999999992" x2="19.4233335706686" y2="253.999999999992"/>
    <line x1="19.4233335706686" y1="253.999999999992" x2="14.0" y2="253.999999999992"/>
    <line x1="14.0" y1="253.999999999992" x2="13.9999999999999" y2="223.999999999992"/>
    <line x1="13.9999999999999" y1="223.999999999992" x2="19.4233335706686" y2="223.999999999992"/>
    <line x1="14.0" y1="173.999999999992" x2="19.4233335706686" y2="173.999999999992"/>
    <line x1="19.4233335706686" y1="173.999999999992" x2="19.4233335706686" y2="203.999999999992"/>
    <line x1="19.4233335706686" y1="203.999999999992" x2="14.0" y2="203.999999999992"/>
    <line x1="14.0" y1="203.999999999992" x2="14.0" y2="173.999999999992"/>
    <line x1="19.4233335706686" y1="123.999999999992" x2="19.4233335706686" y2="153.999999999992"/>
    <line x1="19.4233335706686" y1="153.999999999992" x2="14.0" y2="153.999999999992"/>
    <line x1="14.0" y1="153.999999999992" x2="14.0" y2="123.999999999992"/>
    <line x1="14.0" y1="123.999999999992" x2="19.4233335706686" y2="123.999999999992"/>
    <line x1="14.0" y1="84.0932506305237" x2="19.4233335706686" y2="84.0932506305237"/>
    <line x1="19.4233335706686" y1="84.0932506305237" x2="19.4233335706686" y2="103.999999999992"/>
    <line x1="19.4233335706686" y1="103.999999999992" x2="14.0" y2="103.999999999992"/>
    <line x1="14.0" y1="103.999999999992" x2="14.0" y2="84.0932506305237"/>
    <line x1="248.576666429328" y1="273.999999999992" x2="254.0" y2="273.999999999992"/>
    <line x1="254.0" y1="273.999999999992" x2="254.0" y2="293.999999999992"/>
    <line x1="254.0" y1="293.999999999992" x2="248.576666429328" y2="293.999999999992"/>
    <line x1="248.576666429328" y1="293.999999999992" x2="248.576666429328" y2="273.999999999992"/>
    <line x1="248.576666429328" y1="223.999999999992" x2="254.0" y2="223.999999999992"/>
    <line x1="254.0" y1="223.999999999992" x2="254.0" y2="253.999999999992"/>
    <line x1="254.0" y1="253.999999999992" x2="248.576666429328" y2="253.999999999992"/>
    <line x1="248.576666429328" y1="253.999999999992" x2="248.576666429328" y2="223.999999999992"/>
    <line x1="248.576666429328" y1="173.999999999992" x2="254.0" y2="173.999999999992"/>
    <line x1="254.0" y1="173.999999999992" x2="254.0" y2="203.999999999992"/>
    <line x1="254.0" y1="203.999999999992" x2="248.576666429328" y2="203.999999999992"/>
    <line x1="248.576666429328" y1="203.999999999992" x2="248.576666429328" y2="173.999999999992"/>
    <line x1="248.576666429328" y1="153.999999999992" x2="248.576666429328" y2="123.999999999992"/>
    <line x1="248.576666429328" y1="123.999999999992" x2="254.0" y2="123.999999999992"/>
    <line x1="254.0" y1="123.999999999992" x2="254.0" y2="153.999999999992"/>
    <line x1="254.0" y1="153.999999999992" x2="248.576666429328" y2="153.999999999992"/>
    <line x1="248.576666429328" y1="103.999999999992" x2="248.576666429328" y2="83.999999999992"/>
    <line x1="248.576666429328" y1="83.999999999992" x2="254.0" y2="83.999999999992"/>
    <line x1="254.0" y1="83.999999999992" x2="254.0" y2="103.999999999992"/>
    <line x1="254.0" y1="103.999999999992" x2="248.576666429328" y2="103.999999999992"/>
    <line x1="7.00000000000012" y1="57.0000000000016" x2="7.00000000000012" y2="77.0000000000018"/>
    <line x1="7.00000000000012" y1="77.0000000000018" x2="4.00000000000009" y2="77.000000000002"/>
    <line x1="4.00000000000009" y1="77.000000000002" x2="4.00000000000009" y2="57.000000000002"/>
    <line x1="4.00000000000009" y1="57.000000000002" x2="7.00000000000012" y2="57.0000000000016"/>
    <line x1="7.00000000000012" y1="34.000000000002" x2="4.00000000000013" y2="34.000000000002"/>
    <line x1="4.00000000000013" y1="34.000000000002" x2="4.00000000000009" y2="14.0000000000014"/>
    <line x1="4.00000000000009" y1="14.0000000000014" x2="7.00000000000012" y2="14.0000000000011"/>
    <line x1="7.00000000000012" y1="14.0000000000011" x2="7.00000000000012" y2="34.000000000002"/>
    <line x1="5.11177143234621" y1="44.0511112605682" x2="5.5000000000001" y2="44.0000000000018"/>
    <line x1="5.5000000000001" y1="44.0000000000018" x2="5.88822856765382" y2="44.0511112605682"/>
    <line x1="5.88822856765382" y1="44.0511112605682" x2="6.25000000000012" y2="44.200961894325"/>
    <line x1="6.25000000000012" y1="44.200961894325" x2="6.56066017177991" y2="44.4393398282218"/>
    <line x1="6.56066017177991" y1="44.4393398282218" x2="6.79903810567669" y2="44.7500000000016"/>
    <line x1="6.79903810567669" y1="44.7500000000016" x2="6.94888873943362" y2="45.111771432348"/>
    <line x1="6.94888873943362" y1="45.111771432348" x2="7.00000000000012" y2="45.5000000000016"/>
    <line x1="7.00000000000012" y1="45.5000000000016" x2="6.94888873943362" y2="45.8882285676557"/>
    <line x1="6.94888873943362" y1="45.8882285676557" x2="6.79903810567669" y2="46.2500000000018"/>
    <line x1="6.79903810567669" y1="46.2500000000018" x2="6.56066017177991" y2="46.5606601717816"/>
    <line x1="6.56066017177991" y1="46.5606601717816" x2="6.25000000000012" y2="46.7990381056784"/>
    <line x1="6.25000000000012" y1="46.7990381056784" x2="5.88822856765382" y2="46.9488887394352"/>
    <line x1="5.88822856765382" y1="46.9488887394352" x2="5.5000000000001" y2="47.0000000000018"/>
    <line x1="5.5000000000001" y1="47.0000000000018" x2="5.11177143234621" y2="46.9488887394352"/>
    <line x1="5.11177143234621" y1="46.9488887394352" x2="4.75000000000014" y2="46.7990381056784"/>
    <line x1="4.75000000000014" y1="46.7990381056784" x2="4.4393398282203" y2="46.5606601717816"/>
    <line x1="4.4393398282203" y1="46.5606601717816" x2="4.20096189432339" y2="46.250000000002"/>
    <line x1="4.20096189432339" y1="46.250000000002" x2="4.05111126056641" y2="45.8882285676555"/>
    <line x1="4.05111126056641" y1="45.8882285676555" x2="4.00000000000009" y2="45.5000000000016"/>
    <line x1="4.00000000000009" y1="45.5000000000016" x2="4.05111126056641" y2="45.111771432348"/>
    <line x1="4.05111126056641" y1="45.111771432348" x2="4.20096189432334" y2="44.7500000000016"/>
    <line x1="4.20096189432334" y1="44.7500000000016" x2="4.4393398282203" y2="44.4393398282218"/>
    <line x1="4.4393398282203" y1="44.4393398282218" x2="4.75000000000009" y2="44.200961894325"/>
    <line x1="4.75000000000009" y1="44.200961894325" x2="5.11177143234621" y2="44.0511112605682"/>
    <line x1="7.00000000000017" y1="288.999999999992" x2="4.00000000000018" y2="288.999999999992"/>
    <line x1="4.00000000000018" y1="288.999999999992" x2="4.00000000000013" y2="268.999999999992"/>
    <line x1="4.00000000000013" y1="268.999999999992" x2="7.00000000000008" y2="268.999999999992"/>
    <line x1="7.00000000000008" y1="268.999999999992" x2="7.00000000000017" y2="288.999999999992"/>
    <line x1="7.00000000000008" y1="245.999999999992" x2="4.00000000000009" y2="245.999999999992"/>
    <line x1="4.00000000000009" y1="245.999999999992" x2="4.00000000000009" y2="225.999999999992"/>
    <line x1="4.00000000000009" y1="225.999999999992" x2="7.00000000000012" y2="225.999999999992"/>
    <line x1="7.00000000000012" y1="225.999999999992" x2="7.00000000000008" y2="245.999999999992"/>
    <line x1="5.11177143234617" y1="256.051111260558" x2="5.5000000000001" y2="255.999999999992"/>
    <line x1="5.5000000000001" y1="255.999999999992" x2="5.88822856765386" y2="256.051111260558"/>
    <line x1="5.88822856765386" y1="256.051111260558" x2="6.25000000000007" y2="256.200961894315"/>
    <line x1="6.25000000000007" y1="256.200961894315" x2="6.56066017177991" y2="256.439339828212"/>
    <line x1="6.56066017177991" y1="256.439339828212" x2="6.79903810567669" y2="256.749999999992"/>
    <line x1="6.79903810567669" y1="256.749999999992" x2="6.94888873943357" y2="257.111771432338"/>
    <line x1="6.94888873943357" y1="257.111771432338" x2="7.00000000000008" y2="257.499999999992"/>
    <line x1="7.00000000000008" y1="257.499999999992" x2="6.94888873943362" y2="257.888228567646"/>
    <line x1="6.94888873943362" y1="257.888228567646" x2="6.79903810567669" y2="258.249999999992"/>
    <line x1="6.79903810567669" y1="258.249999999992" x2="6.56066017177986" y2="258.560660171772"/>
    <line x1="6.56066017177986" y1="258.560660171772" x2="6.25000000000016" y2="258.799038105669"/>
    <line x1="6.25000000000016" y1="258.799038105669" x2="5.88822856765386" y2="258.948888739426"/>
    <line x1="5.88822856765386" y1="258.948888739426" x2="5.50000000000006" y2="258.999999999992"/>
    <line x1="5.50000000000006" y1="258.999999999992" x2="5.11177143234626" y2="258.948888739426"/>
    <line x1="5.11177143234626" y1="258.948888739426" x2="4.75000000000009" y2="258.799038105669"/>
    <line x1="4.75000000000009" y1="258.799038105669" x2="4.43933982822035" y2="258.560660171772"/>
    <line x1="4.43933982822035" y1="258.560660171772" x2="4.2009618943233" y2="258.249999999992"/>
    <line x1="4.2009618943233" y1="258.249999999992" x2="4.05111126056641" y2="257.888228567646"/>
    <line x1="4.05111126056641" y1="257.888228567646" x2="4.00000000000009" y2="257.499999999992"/>
    <line x1="4.00000000000009" y1="257.499999999992" x2="4.05111126056646" y2="257.111771432338"/>
    <line x1="4.05111126056646" y1="257.111771432338" x2="4.20096189432339" y2="256.749999999992"/>
    <line x1="4.20096189432339" y1="256.749999999992" x2="4.43933982822021" y2="256.439339828212"/>
    <line x1="4.43933982822021" y1="256.439339828212" x2="4.75000000000005" y2="256.200961894315"/>
    <line x1="4.75000000000005" y1="256.200961894315" x2="5.11177143234617" y2="256.051111260558"/>
    <line x1="261.0" y1="268.999999999992" x2="264.0" y2="268.999999999992"/>
    <line x1="264.0" y1="268.999999999992" x2="264.0" y2="288.999999999992"/>
    <line x1="264.0" y1="288.999999999992" x2="261.0" y2="288.999999999992"/>
    <line x1="261.0" y1="288.999999999992" x2="261.0" y2="268.999999999992"/>
    <line x1="261.0" y1="225.999999999992" x2="264.0" y2="225.999999999992"/>
    <line x1="264.0" y1="225.999999999992" x2="264.0" y2="245.999999999992"/>
    <line x1="264.0" y1="245.999999999992" x2="261.0" y2="245.999999999992"/>
    <line x1="261.0" y1="245.999999999992" x2="261.0" y2="225.999999999992"/>
    <line x1="262.111771432347" y1="256.051111260558" x2="262.5" y2="255.999999999992"/>
    <line x1="262.5" y1="255.999999999992" x2="262.888228567654" y2="256.051111260558"/>
    <line x1="262.888228567654" y1="256.051111260558" x2="263.25" y2="256.200961894315"/>
    <line x1="263.25" y1="256.200961894315" x2="263.56066017178" y2="256.439339828212"/>
    <line x1="263.56066017178" y1="256.439339828212" x2="263.799038105677" y2="256.749999999992"/>
    <line x1="263.799038105677" y1="256.749999999992" x2="263.948888739434" y2="257.111771432338"/>
    <line x1="263.948888739434" y1="257.111771432338" x2="264.0" y2="257.499999999992"/>
    <line x1="264.0" y1="257.499999999992" x2="263.948888739434" y2="257.888228567646"/>
    <line x1="263.948888739434" y1="257.888228567646" x2="263.799038105677" y2="258.249999999992"/>
    <line x1="263.799038105677" y1="258.249999999992" x2="263.56066017178" y2="258.560660171772"/>
    <line x1="263.56066017178" y1="258.560660171772" x2="263.25" y2="258.799038105669"/>
    <line x1="263.25" y1="258.799038105669" x2="262.888228567654" y2="258.948888739426"/>
    <line x1="262.888228567654" y1="258.948888739426" x2="262.5" y2="258.999999999992"/>
    <line x1="262.5" y1="258.999999999992" x2="262.111771432347" y2="258.948888739426"/>
    <line x1="262.111771432347" y1="258.948888739426" x2="261.75" y2="258.799038105669"/>
    <line x1="261.75" y1="258.799038105669" x2="261.43933982822" y2="258.560660171772"/>
    <line x1="261.43933982822" y1="258.560660171772" x2="261.200961894324" y2="258.249999999992"/>
    <line x1="261.200961894324" y1="258.249999999992" x2="261.051111260567" y2="257.888228567646"/>
    <line x1="261.051111260567" y1="257.888228567646" x2="261.0" y2="257.499999999992"/>
    <line x1="261.0" y1="257.499999999992" x2="261.051111260567" y2="257.111771432338"/>
    <line x1="261.051111260567" y1="257.111771432338" x2="261.200961894324" y2="256.749999999992"/>
    <line x1="261.200961894324" y1="256.749999999992" x2="261.43933982822" y2="256.439339828212"/>
    <line x1="261.43933982822" y1="256.439339828212" x2="261.75" y2="256.200961894315"/>
    <line x1="261.75" y1="256.200961894315" x2="262.111771432347" y2="256.051111260558"/>
    <line x1="264.0" y1="77.0000000000018" x2="261.0" y2="77.0000000000018"/>
    <line x1="261.0" y1="77.0000000000018" x2="261.0" y2="57.0000000000018"/>
    <line x1="261.0" y1="57.0000000000018" x2="264.0" y2="57.0000000000018"/>
    <line x1="264.0" y1="57.0000000000018" x2="264.0" y2="77.0000000000018"/>
    <line x1="264.0" y1="34.0000000000018" x2="261.0" y2="34.0000000000018"/>
    <line x1="261.0" y1="34.0000000000018" x2="261.0" y2="14.0000000000018"/>
    <line x1="261.0" y1="14.0000000000018" x2="264.0" y2="14.0000000000016"/>
    <line x1="264.0" y1="14.0000000000016" x2="264.0" y2="34.0000000000018"/>
    <line x1="262.111771432347" y1="44.0511112605682" x2="262.5" y2="44.0000000000016"/>
    <line x1="262.5" y1="44.0000000000016" x2="262.888228567654" y2="44.0511112605682"/>
    <line x1="262.888228567654" y1="44.0511112605682" x2="263.25" y2="44.200961894325"/>
    <line x1="263.25" y1="44.200961894325" x2="263.56066017178" y2="44.4393398282218"/>
    <line x1="263.56066017178" y1="44.4393398282218" x2="263.799038105677" y2="44.7500000000018"/>
    <line x1="263.799038105677" y1="44.7500000000018" x2="263.948888739434" y2="45.111771432348"/>
    <line x1="263.948888739434" y1="45.111771432348" x2="264.0" y2="45.5000000000018"/>
    <line x1="264.0" y1="45.5000000000018" x2="263.948888739434" y2="45.8882285676557"/>
    <line x1="263.948888739434" y1="45.8882285676557" x2="263.799038105677" y2="46.2500000000018"/>
    <line x1="263.799038105677" y1="46.2500000000018" x2="263.56066017178" y2="46.5606601717816"/>
    <line x1="263.56066017178" y1="46.5606601717816" x2="263.25" y2="46.7990381056784"/>
    <line x1="263.25" y1="46.7990381056784" x2="262.888228567654" y2="46.9488887394355"/>
    <line x1="262.888228567654" y1="46.9488887394355" x2="262.5" y2="47.0000000000018"/>
    <line x1="262.5" y1="47.0000000000018" x2="262.111771432347" y2="46.9488887394355"/>
    <line x1="262.111771432347" y1="46.9488887394355" x2="261.75" y2="46.7990381056784"/>
    <line x1="261.75" y1="46.7990381056784" x2="261.43933982822" y2="46.5606601717816"/>
    <line x1="261.43933982822" y1="46.5606601717816" x2="261.200961894324" y2="46.2500000000018"/>
    <line x1="261.200961894324" y1="46.2500000000018" x2="261.051111260567" y2="45.8882285676557"/>
    <line x1="261.051111260567" y1="45.8882285676557" x2="261.0" y2="45.5000000000018"/>
    <line x1="261.0" y1="45.5000000000018" x2="261.051111260567" y2="45.111771432348"/>
    <line x1="261.051111260567" y1="45.111771432348" x2="261.200961894324" y2="44.7500000000018"/>
    <line x1="261.200961894324" y1="44.7500000000018" x2="261.43933982822" y2="44.4393398282218"/>
    <line x1="261.43933982822" y1="44.4393398282218" x2="261.75" y2="44.200961894325"/>
    <line x1="261.75" y1="44.200961894325" x2="262.111771432347" y2="44.0511112605682"/>
    <line x1="220.458585248517" y1="288.468633174518" x2="240.458585248517" y2="288.468633174518"/>
    <line x1="240.458585248517" y1="288.468633174518" x2="240.458585248517" y2="292.046695045975"/>
    <line x1="240.458585248517" y1="292.046695045975" x2="220.458585248517" y2="292.046695045975"/>
    <line x1="220.458585248517" y1="292.046695045975" x2="220.458585248517" y2="288.468633174518"/>
    <line x1="27.8696357298038" y1="292.046695045975" x2="27.8696357298039" y2="288.736368302956"/>
    <line x1="27.8696357298039" y1="288.736368302956" x2="47.8696357298039" y2="288.736368302956"/>
    <line x1="47.8696357298039" y1="288.736368302956" x2="47.8696357298039" y2="292.046695045975"/>
    <line x1="47.8696357298039" y1="292.046695045975" x2="27.8696357298038" y2="292.046695045975"/>
    <line x1="220.458585248517" y1="90.5516277461682" x2="240.458585248517" y2="90.5516277461682"/>
    <line x1="240.458585248517" y1="90.5516277461682" x2="240.458585248517" y2="94.791071191881"/>
    <line x1="240.458585248517" y1="94.791071191881" x2="220.458585248517" y2="94.791071191881"/>
    <line x1="220.458585248517" y1="94.791071191881" x2="220.458585248517" y2="90.5516277461682"/>
    <line x1="27.5414147515162" y1="94.7910711918807" x2="27.5414147515162" y2="90.5516277461682"/>
    <line x1="27.5414147515162" y1="90.5516277461682" x2="47.5414147515162" y2="90.5516277461682"/>
    <line x1="47.5414147515162" y1="90.5516277461682" x2="47.5414147515162" y2="94.791071191881"/>
    <line x1="47.5414147515162" y1="94.791071191881" x2="27.5414147515162" y2="94.7910711918807"/>
    <line x1="232.0" y1="262.464101615129" x2="231.171572875254" y2="261.828427124737"/>
    <line x1="231.171572875254" y1="261.828427124737" x2="230.535898384862" y2="260.999999999991"/>
    <line x1="230.535898384862" y1="260.999999999991" x2="230.136296694844" y2="260.035276180401"/>
    <line x1="230.136296694844" y1="260.035276180401" x2="230.0" y2="258.999999999991"/>
    <line x1="230.0" y1="258.999999999991" x2="230.136296694844" y2="257.964723819581"/>
    <line x1="230.136296694844" y1="257.964723819581" x2="230.535898384862" y2="256.999999999991"/>
    <line x1="230.535898384862" y1="256.999999999991" x2="231.171572875254" y2="256.171572875245"/>
    <line x1="231.171572875254" y1="256.171572875245" x2="232.0" y2="255.535898384853"/>
    <line x1="232.0" y1="255.535898384853" x2="232.96472381959" y2="255.136296694835"/>
    <line x1="232.96472381959" y1="255.136296694835" x2="234.0" y2="254.999999999991"/>
    <line x1="234.0" y1="254.999999999991" x2="235.03527618041" y2="255.136296694835"/>
    <line x1="235.03527618041" y1="255.136296694835" x2="236.0" y2="255.535898384853"/>
    <line x1="236.0" y1="255.535898384853" x2="236.828427124746" y2="256.171572875245"/>
    <line x1="236.828427124746" y1="256.171572875245" x2="237.464101615138" y2="256.999999999991"/>
    <line x1="237.464101615138" y1="256.999999999991" x2="237.863703305156" y2="257.964723819581"/>
    <line x1="237.863703305156" y1="257.964723819581" x2="238.0" y2="258.999999999991"/>
    <line x1="238.0" y1="258.999999999991" x2="237.863703305156" y2="260.035276180401"/>
    <line x1="237.863703305156" y1="260.035276180401" x2="237.464101615138" y2="260.999999999991"/>
    <line x1="237.464101615138" y1="260.999999999991" x2="236.828427124746" y2="261.828427124737"/>
    <line x1="236.828427124746" y1="261.828427124737" x2="236.0" y2="262.464101615129"/>
    <line x1="236.0" y1="262.464101615129" x2="235.03527618041" y2="262.863703305147"/>
    <line x1="235.03527618041" y1="262.863703305147" x2="234.0" y2="262.999999999991"/>
    <line x1="234.0" y1="262.999999999991" x2="232.96472381959" y2="262.863703305147"/>
    <line x1="232.96472381959" y1="262.863703305147" x2="232.0" y2="262.464101615129"/>
    <line x1="236.828427124746" y1="153.171572875245" x2="237.464101615137" y2="153.999999999991"/>
    <line x1="237.464101615137" y1="153.999999999991" x2="237.863703305156" y2="154.964723819581"/>
    <line x1="237.863703305156" y1="154.964723819581" x2="238.0" y2="155.999999999991"/>
    <line x1="238.0" y1="155.999999999991" x2="237.863703305156" y2="157.035276180401"/>
    <line x1="237.863703305156" y1="157.035276180401" x2="237.464101615137" y2="157.999999999991"/>
    <line x1="237.464101615137" y1="157.999999999991" x2="236.828427124746" y2="158.828427124737"/>
    <line x1="236.828427124746" y1="158.828427124737" x2="235.999999999999" y2="159.464101615129"/>
    <line x1="235.999999999999" y1="159.464101615129" x2="235.03527618041" y2="159.863703305147"/>
    <line x1="235.03527618041" y1="159.863703305147" x2="234.0" y2="159.999999999991"/>
    <line x1="234.0" y1="159.999999999991" x2="232.964723819589" y2="159.863703305147"/>
    <line x1="232.964723819589" y1="159.863703305147" x2="231.999999999999" y2="159.464101615129"/>
    <line x1="231.999999999999" y1="159.464101615129" x2="231.171572875253" y2="158.828427124737"/>
    <line x1="231.171572875253" y1="158.828427124737" x2="230.535898384862" y2="157.999999999991"/>
    <line x1="230.535898384862" y1="157.999999999991" x2="230.136296694843" y2="157.035276180401"/>
    <line x1="230.136296694843" y1="157.035276180401" x2="230.0" y2="155.999999999991"/>
    <line x1="230.0" y1="155.999999999991" x2="230.136296694843" y2="154.964723819581"/>
    <line x1="230.136296694843" y1="154.964723819581" x2="230.535898384862" y2="153.999999999991"/>
    <line x1="230.535898384862" y1="153.999999999991" x2="231.171572875253" y2="153.171572875245"/>
    <line x1="231.171572875253" y1="153.171572875245" x2="231.999999999999" y2="152.535898384853"/>
    <line x1="231.999999999999" y1="152.535898384853" x2="232.964723819589" y2="152.136296694835"/>
    <line x1="232.964723819589" y1="152.136296694835" x2="234.0" y2="151.999999999991"/>
    <line x1="234.0" y1="151.999999999991" x2="235.03527618041" y2="152.136296694835"/>
    <line x1="235.03527618041" y1="152.136296694835" x2="235.999999999999" y2="152.535898384853"/>
    <line x1="235.999999999999" y1="152.535898384853" x2="236.828427124746" y2="153.171572875245"/>
    <line x1="36.8284271247463" y1="261.828427124738" x2="36.0" y2="262.46410161513"/>
    <line x1="36.0" y1="262.46410161513" x2="35.0352761804101" y2="262.863703305149"/>
    <line x1="35.0352761804101" y1="262.863703305149" x2="34.0000000000002" y2="262.999999999992"/>
    <line x1="34.0000000000002" y1="262.999999999992" x2="32.96472381959" y2="262.863703305149"/>
    <line x1="32.96472381959" y1="262.863703305149" x2="32.0000000000001" y2="262.46410161513"/>
    <line x1="32.0000000000001" y1="262.46410161513" x2="31.1715728752539" y2="261.828427124738"/>
    <line x1="31.1715728752539" y1="261.828427124738" x2="30.5358983848622" y2="260.999999999992"/>
    <line x1="30.5358983848622" y1="260.999999999992" x2="30.1362966948438" y2="260.035276180402"/>
    <line x1="30.1362966948438" y1="260.035276180402" x2="30.0" y2="258.999999999992"/>
    <line x1="30.0" y1="258.999999999992" x2="30.1362966948438" y2="257.964723819582"/>
    <line x1="30.1362966948438" y1="257.964723819582" x2="30.5358983848622" y2="256.999999999992"/>
    <line x1="30.5358983848622" y1="256.999999999992" x2="31.1715728752538" y2="256.171572875246"/>
    <line x1="31.1715728752538" y1="256.171572875246" x2="32.0" y2="255.535898384854"/>
    <line x1="32.0" y1="255.535898384854" x2="32.96472381959" y2="255.136296694836"/>
    <line x1="32.96472381959" y1="255.136296694836" x2="34.0" y2="254.999999999992"/>
    <line x1="34.0" y1="254.999999999992" x2="35.0352761804101" y2="255.136296694836"/>
    <line x1="35.0352761804101" y1="255.136296694836" x2="36.0000000000001" y2="255.535898384855"/>
    <line x1="36.0000000000001" y1="255.535898384855" x2="36.8284271247462" y2="256.171572875246"/>
    <line x1="36.8284271247462" y1="256.171572875246" x2="37.4641016151377" y2="256.999999999992"/>
    <line x1="37.4641016151377" y1="256.999999999992" x2="37.8637033051564" y2="257.964723819582"/>
    <line x1="37.8637033051564" y1="257.964723819582" x2="38.0" y2="258.999999999992"/>
    <line x1="38.0" y1="258.999999999992" x2="37.8637033051563" y2="260.035276180402"/>
    <line x1="37.8637033051563" y1="260.035276180402" x2="37.4641016151378" y2="260.999999999992"/>
    <line x1="37.4641016151378" y1="260.999999999992" x2="36.8284271247463" y2="261.828427124738"/>
    <line x1="29.9999999999996" y1="155.999999999992" x2="30.1362966948432" y2="154.964723819582"/>
    <line x1="30.1362966948432" y1="154.964723819582" x2="30.5358983848619" y2="153.999999999992"/>
    <line x1="30.5358983848619" y1="153.999999999992" x2="31.1715728752534" y2="153.171572875246"/>
    <line x1="31.1715728752534" y1="153.171572875246" x2="31.9999999999994" y2="152.535898384854"/>
    <line x1="31.9999999999994" y1="152.535898384854" x2="32.9647238195894" y2="152.136296694836"/>
    <line x1="32.9647238195894" y1="152.136296694836" x2="33.9999999999996" y2="151.999999999992"/>
    <line x1="33.9999999999996" y1="151.999999999992" x2="35.0352761804097" y2="152.136296694836"/>
    <line x1="35.0352761804097" y1="152.136296694836" x2="35.9999999999997" y2="152.535898384855"/>
    <line x1="35.9999999999997" y1="152.535898384855" x2="36.8284271247457" y2="153.171572875246"/>
    <line x1="36.8284271247457" y1="153.171572875246" x2="37.4641016151373" y2="153.999999999992"/>
    <line x1="37.4641016151373" y1="153.999999999992" x2="37.8637033051559" y2="154.964723819582"/>
    <line x1="37.8637033051559" y1="154.964723819582" x2="37.9999999999996" y2="155.999999999992"/>
    <line x1="37.9999999999996" y1="155.999999999992" x2="37.8637033051559" y2="157.035276180402"/>
    <line x1="37.8637033051559" y1="157.035276180402" x2="37.4641016151373" y2="157.999999999992"/>
    <line x1="37.4641016151373" y1="157.999999999992" x2="36.8284271247457" y2="158.828427124738"/>
    <line x1="36.8284271247457" y1="158.828427124738" x2="35.9999999999997" y2="159.46410161513"/>
    <line x1="35.9999999999997" y1="159.46410161513" x2="35.0352761804097" y2="159.863703305149"/>
    <line x1="35.0352761804097" y1="159.863703305149" x2="33.9999999999996" y2="159.999999999992"/>
    <line x1="33.9999999999996" y1="159.999999999992" x2="32.9647238195894" y2="159.863703305148"/>
    <line x1="32.9647238195894" y1="159.863703305148" x2="31.9999999999995" y2="159.46410161513"/>
    <line x1="31.9999999999995" y1="159.46410161513" x2="31.1715728752534" y2="158.828427124738"/>
    <line x1="31.1715728752534" y1="158.828427124738" x2="30.5358983848618" y2="157.999999999992"/>
    <line x1="30.5358983848618" y1="157.999999999992" x2="30.1362966948432" y2="157.035276180402"/>
    <line x1="30.1362966948432" y1="157.035276180402" x2="29.9999999999996" y2="155.999999999992"/>
  </g>
</svg>
