<?xml version="1.0" standalone="no"?>
<!DOCTYPE svg PUBLIC "-//W3C//DTD SVG 1.1//EN" "http://www.w3.org/Graphics/SVG/1.1/DTD/svg11.dtd">
<svg width="268.0mm" height="231.0mm"
 viewBox="0 0 268.0 231.0"
 xmlns="http://www.w3.org/2000/svg" version="1.1"
 xmlns:xlink="http://www.w3.org/1999/xlink">
<desc>Output from Flights of Ideas SVG Sketchup Plugin</desc>

  <g id="face0" fill="none" stroke="rgb(0,0,255)" stroke-width="1" stroke-miterlimit="4" stroke-dasharray="none" stroke-linejoin="round" stroke-linecap="round">
    <line x1="267.0" y1="230.0" x2="267.0" y2="1.0"/>
    <line x1="267.0" y1="1.0" x2="1.0" y2="1.0"/>
    <line x1="1.0" y1="1.0" x2="1.0" y2="230.0"/>
    <line x1="1.0" y1="230.0" x2="267.0" y2="230.0"/>
    <line x1="262.888228567654" y1="19.9488887394338" x2="262.5" y2="20.0"/>
    <line x1="262.5" y1="20.0" x2="262.111771432347" y2="19.9488887394338"/>
    <line x1="262.111771432347" y1="19.9488887394338" x2="261.75" y2="19.7990381056768"/>
    <line x1="261.75" y1="19.7990381056768" x2="261.43933982822" y2="19.5606601717798"/>
    <line x1="261.43933982822" y1="19.5606601717798" x2="261.200961894324" y2="19.25"/>
    <line x1="261.200961894324" y1="19.25" x2="261.051111260567" y2="18.8882285676538"/>
    <line x1="261.051111260567" y1="18.8882285676538" x2="261.0" y2="18.5"/>
    <line x1="261.0" y1="18.5" x2="261.051111260567" y2="18.1117714323464"/>
    <line x1="261.051111260567" y1="18.1117714323464" x2="261.200961894324" y2="17.75"/>
    <line x1="261.200961894324" y1="17.75" x2="261.43933982822" y2="17.4393398282202"/>
    <line x1="261.43933982822" y1="17.4393398282202" x2="261.75" y2="17.2009618943234"/>
    <line x1="261.75" y1="17.2009618943234" x2="262.111771432347" y2="17.0511112605665"/>
    <line x1="262.111771432347" y1="17.0511112605665" x2="262.5" y2="17.0"/>
    <line x1="262.5" y1="17.0" x2="262.888228567654" y2="17.0511112605665"/>
    <line x1="262.888228567654" y1="17.0511112605665" x2="263.25" y2="17.2009618943234"/>
    <line x1="263.25" y1="17.2009618943234" x2="263.56066017178" y2="17.4393398282202"/>
    <line x1="263.56066017178" y1="17.4393398282202" x2="263.799038105677" y2="17.75"/>
    <line x1="263.799038105677" y1="17.75" x2="263.948888739434" y2="18.1117714323464"/>
    <line x1="263.948888739434" y1="18.1117714323464" x2="264.0" y2="18.5"/>
    <line x1="264.0" y1="18.5" x2="263.948888739434" y2="18.8882285676538"/>
    <line x1="263.948888739434" y1="18.8882285676538" x2="263.799038105677" y2="19.25"/>
    <line x1="263.799038105677" y1="19.25" x2="263.56066017178" y2="19.5606601717798"/>
    <line x1="263.56066017178" y1="19.5606601717798" x2="263.25" y2="19.7990381056768"/>
    <line x1="263.25" y1="19.7990381056768" x2="262.888228567654" y2="19.9488887394338"/>
    <line x1="262.888228567654" y1="213.948888739434" x2="262.5" y2="214.0"/>
    <line x1="262.5" y1="214.0" x2="262.111771432346" y2="213.948888739434"/>
    <line x1="262.111771432346" y1="213.948888739434" x2="261.75" y2="213.799038105677"/>
    <line x1="261.75" y1="213.799038105677" x2="261.43933982822" y2="213.56066017178"/>
    <line x1="261.43933982822" y1="213.56066017178" x2="261.200961894324" y2="213.25"/>
    <line x1="261.200961894324" y1="213.25" x2="261.051111260567" y2="212.888228567654"/>
    <line x1="261.051111260567" y1="212.888228567654" x2="261.0" y2="212.5"/>
    <line x1="261.0" y1="212.5" x2="261.051111260567" y2="212.111771432346"/>
    <line x1="261.051111260567" y1="212.111771432346" x2="261.200961894324" y2="211.75"/>
    <line x1="261.200961894324" y1="211.75" x2="261.43933982822" y2="211.43933982822"/>
    <line x1="261.43933982822" y1="211.43933982822" x2="261.75" y2="211.200961894323"/>
    <line x1="261.75" y1="211.200961894323" x2="262.111771432346" y2="211.051111260566"/>
    <line x1="262.111771432346" y1="211.051111260566" x2="262.5" y2="211.0"/>
    <line x1="262.5" y1="211.0" x2="262.888228567654" y2="211.051111260566"/>
    <line x1="262.888228567654" y1="211.051111260566" x2="263.25" y2="211.200961894323"/>
    <line x1="263.25" y1="211.200961894323" x2="263.56066017178" y2="211.43933982822"/>
    <line x1="263.56066017178" y1="211.43933982822" x2="263.799038105677" y2="211.75"/>
    <line x1="263.799038105677" y1="211.75" x2="263.948888739434" y2="212.111771432346"/>
    <line x1="263.948888739434" y1="212.111771432346" x2="264.0" y2="212.5"/>
    <line x1="264.0" y1="212.5" x2="263.948888739434" y2="212.888228567654"/>
    <line x1="263.948888739434" y1="212.888228567654" x2="263.799038105677" y2="213.25"/>
    <line x1="263.799038105677" y1="213.25" x2="263.56066017178" y2="213.56066017178"/>
    <line x1="263.56066017178" y1="213.56066017178" x2="263.25" y2="213.799038105677"/>
    <line x1="263.25" y1="213.799038105677" x2="262.888228567654" y2="213.948888739434"/>
    <line x1="244.051111260566" y1="5.88822856765375" x2="244.0" y2="5.50000000000011"/>
    <line x1="244.0" y1="5.50000000000011" x2="244.051111260566" y2="5.11177143234625"/>
    <line x1="244.051111260566" y1="5.11177143234625" x2="244.200961894323" y2="4.75000000000011"/>
    <line x1="244.200961894323" y1="4.75000000000011" x2="244.43933982822" y2="4.43933982822034"/>
    <line x1="244.43933982822" y1="4.43933982822034" x2="244.75" y2="4.20096189432331"/>
    <line x1="244.75" y1="4.20096189432331" x2="245.111771432346" y2="4.05111126056636"/>
    <line x1="245.111771432346" y1="4.05111126056636" x2="245.5" y2="4.00000000000011"/>
    <line x1="245.5" y1="4.00000000000011" x2="245.888228567654" y2="4.05111126056636"/>
    <line x1="245.888228567654" y1="4.05111126056636" x2="246.25" y2="4.20096189432331"/>
    <line x1="246.25" y1="4.20096189432331" x2="246.56066017178" y2="4.43933982822034"/>
    <line x1="246.56066017178" y1="4.43933982822034" x2="246.799038105677" y2="4.75000000000011"/>
    <line x1="246.799038105677" y1="4.75000000000011" x2="246.948888739434" y2="5.11177143234625"/>
    <line x1="246.948888739434" y1="5.11177143234625" x2="247.0" y2="5.50000000000011"/>
    <line x1="247.0" y1="5.50000000000011" x2="246.948888739434" y2="5.88822856765375"/>
    <line x1="246.948888739434" y1="5.88822856765375" x2="246.799038105677" y2="6.24999999999989"/>
    <line x1="246.799038105677" y1="6.24999999999989" x2="246.56066017178" y2="6.56066017177989"/>
    <line x1="246.56066017178" y1="6.56066017177989" x2="246.25" y2="6.79903810567669"/>
    <line x1="246.25" y1="6.79903810567669" x2="245.888228567654" y2="6.94888873943364"/>
    <line x1="245.888228567654" y1="6.94888873943364" x2="245.5" y2="7.00000000000011"/>
    <line x1="245.5" y1="7.00000000000011" x2="245.111771432346" y2="6.94888873943364"/>
    <line x1="245.111771432346" y1="6.94888873943364" x2="244.75" y2="6.79903810567669"/>
    <line x1="244.75" y1="6.79903810567669" x2="244.43933982822" y2="6.56066017177989"/>
    <line x1="244.43933982822" y1="6.56066017177989" x2="244.200961894323" y2="6.24999999999989"/>
    <line x1="244.200961894323" y1="6.24999999999989" x2="244.051111260566" y2="5.88822856765375"/>
    <line x1="21.0511112605664" y1="5.88822856765375" x2="20.9999999999999" y2="5.50000000000011"/>
    <line x1="20.9999999999999" y1="5.50000000000011" x2="21.0511112605664" y2="5.11177143234625"/>
    <line x1="21.0511112605664" y1="5.11177143234625" x2="21.2009618943234" y2="4.75000000000023"/>
    <line x1="21.2009618943234" y1="4.75000000000023" x2="21.4393398282202" y2="4.43933982822011"/>
    <line x1="21.4393398282202" y1="4.43933982822011" x2="21.75" y2="4.20096189432331"/>
    <line x1="21.75" y1="4.20096189432331" x2="22.1117714323462" y2="4.05111126056636"/>
    <line x1="22.1117714323462" y1="4.05111126056636" x2="22.5" y2="4.00000000000011"/>
    <line x1="22.5" y1="4.00000000000011" x2="22.8882285676538" y2="4.05111126056636"/>
    <line x1="22.8882285676538" y1="4.05111126056636" x2="23.2499999999999" y2="4.20096189432331"/>
    <line x1="23.2499999999999" y1="4.20096189432331" x2="23.5606601717798" y2="4.43933982822034"/>
    <line x1="23.5606601717798" y1="4.43933982822034" x2="23.7990381056767" y2="4.75000000000011"/>
    <line x1="23.7990381056767" y1="4.75000000000011" x2="23.9488887394336" y2="5.11177143234625"/>
    <line x1="23.9488887394336" y1="5.11177143234625" x2="24.0" y2="5.50000000000011"/>
    <line x1="24.0" y1="5.50000000000011" x2="23.9488887394337" y2="5.88822856765375"/>
    <line x1="23.9488887394337" y1="5.88822856765375" x2="23.7990381056767" y2="6.24999999999989"/>
    <line x1="23.7990381056767" y1="6.24999999999989" x2="23.5606601717798" y2="6.56066017177989"/>
    <line x1="23.5606601717798" y1="6.56066017177989" x2="23.25" y2="6.79903810567669"/>
    <line x1="23.25" y1="6.79903810567669" x2="22.8882285676538" y2="6.94888873943364"/>
    <line x1="22.8882285676538" y1="6.94888873943364" x2="22.5" y2="7.00000000000011"/>
    <line x1="22.5" y1="7.00000000000011" x2="22.1117714323463" y2="6.94888873943364"/>
    <line x1="22.1117714323463" y1="6.94888873943364" x2="21.7499999999999" y2="6.79903810567669"/>
    <line x1="21.7499999999999" y1="6.79903810567669" x2="21.4393398282202" y2="6.56066017177989"/>
    <line x1="21.4393398282202" y1="6.56066017177989" x2="21.2009618943234" y2="6.25000000000011"/>
    <line x1="21.2009618943234" y1="6.25000000000011" x2="21.0511112605664" y2="5.88822856765375"/>
    <line x1="5.88822856765395" y1="19.9488887394338" x2="5.50000000000006" y2="20.0"/>
    <line x1="5.50000000000006" y1="20.0" x2="5.11177143234635" y2="19.9488887394338"/>
    <line x1="5.11177143234635" y1="19.9488887394338" x2="4.75" y2="19.7990381056768"/>
    <line x1="4.75" y1="19.7990381056768" x2="4.4393398282203" y2="19.5606601717798"/>
    <line x1="4.4393398282203" y1="19.5606601717798" x2="4.20096189432338" y2="19.2500000000002"/>
    <line x1="4.20096189432338" y1="19.2500000000002" x2="4.0511112605665" y2="18.8882285676538"/>
    <line x1="4.0511112605665" y1="18.8882285676538" x2="4.00000000000004" y2="18.5"/>
    <line x1="4.00000000000004" y1="18.5" x2="4.05111126056655" y2="18.1117714323464"/>
    <line x1="4.05111126056655" y1="18.1117714323464" x2="4.20096189432343" y2="17.75"/>
    <line x1="4.20096189432343" y1="17.75" x2="4.43933982822021" y2="17.4393398282202"/>
    <line x1="4.43933982822021" y1="17.4393398282202" x2="4.75" y2="17.2009618943237"/>
    <line x1="4.75" y1="17.2009618943237" x2="5.11177143234639" y2="17.0511112605664"/>
    <line x1="5.11177143234639" y1="17.0511112605664" x2="5.50000000000006" y2="17.0"/>
    <line x1="5.50000000000006" y1="17.0" x2="5.88822856765395" y2="17.0511112605665"/>
    <line x1="5.88822856765395" y1="17.0511112605665" x2="6.25000000000011" y2="17.2009618943232"/>
    <line x1="6.25000000000011" y1="17.2009618943232" x2="6.56066017177986" y2="17.4393398282202"/>
    <line x1="6.56066017177986" y1="17.4393398282202" x2="6.79903810567678" y2="17.75"/>
    <line x1="6.79903810567678" y1="17.75" x2="6.94888873943375" y2="18.1117714323464"/>
    <line x1="6.94888873943375" y1="18.1117714323464" x2="7.00000000000008" y2="18.5"/>
    <line x1="7.00000000000008" y1="18.5" x2="6.94888873943371" y2="18.8882285676539"/>
    <line x1="6.94888873943371" y1="18.8882285676539" x2="6.79903810567687" y2="19.25"/>
    <line x1="6.79903810567687" y1="19.25" x2="6.56066017177986" y2="19.5606601717798"/>
    <line x1="6.56066017177986" y1="19.5606601717798" x2="6.25000000000002" y2="19.7990381056768"/>
    <line x1="6.25000000000002" y1="19.7990381056768" x2="5.88822856765395" y2="19.9488887394338"/>
    <line x1="5.88822856765377" y1="213.948888739433" x2="5.50000000000006" y2="214.0"/>
    <line x1="5.50000000000006" y1="214.0" x2="5.11177143234612" y2="213.948888739434"/>
    <line x1="5.11177143234612" y1="213.948888739434" x2="4.75000000000005" y2="213.799038105676"/>
    <line x1="4.75000000000005" y1="213.799038105676" x2="4.43933982822026" y2="213.56066017178"/>
    <line x1="4.43933982822026" y1="213.56066017178" x2="4.2009618943233" y2="213.25"/>
    <line x1="4.2009618943233" y1="213.25" x2="4.05111126056637" y2="212.888228567654"/>
    <line x1="4.05111126056637" y1="212.888228567654" x2="4.00000000000004" y2="212.5"/>
    <line x1="4.00000000000004" y1="212.5" x2="4.05111126056632" y2="212.111771432347"/>
    <line x1="4.05111126056632" y1="212.111771432347" x2="4.2009618943233" y2="211.75"/>
    <line x1="4.2009618943233" y1="211.75" x2="4.43933982822026" y2="211.439339828221"/>
    <line x1="4.43933982822026" y1="211.439339828221" x2="4.75000000000005" y2="211.200961894323"/>
    <line x1="4.75000000000005" y1="211.200961894323" x2="5.11177143234617" y2="211.051111260566"/>
    <line x1="5.11177143234617" y1="211.051111260566" x2="5.50000000000006" y2="211.0"/>
    <line x1="5.50000000000006" y1="211.0" x2="5.88822856765377" y2="211.051111260566"/>
    <line x1="5.88822856765377" y1="211.051111260566" x2="6.25000000000007" y2="211.200961894324"/>
    <line x1="6.25000000000007" y1="211.200961894324" x2="6.56066017177986" y2="211.43933982822"/>
    <line x1="6.56066017177986" y1="211.43933982822" x2="6.79903810567664" y2="211.75"/>
    <line x1="6.79903810567664" y1="211.75" x2="6.94888873943357" y2="212.111771432347"/>
    <line x1="6.94888873943357" y1="212.111771432347" x2="7.00000000000003" y2="212.5"/>
    <line x1="7.00000000000003" y1="212.5" x2="6.94888873943357" y2="212.888228567654"/>
    <line x1="6.94888873943357" y1="212.888228567654" x2="6.79903810567664" y2="213.25"/>
    <line x1="6.79903810567664" y1="213.25" x2="6.56066017177986" y2="213.56066017178"/>
    <line x1="6.56066017177986" y1="213.56066017178" x2="6.25000000000007" y2="213.799038105677"/>
    <line x1="6.25000000000007" y1="213.799038105677" x2="5.88822856765377" y2="213.948888739433"/>
    <line x1="4.00000000000004" y1="201.0" x2="4.00000000000004" y2="171.0"/>
    <line x1="4.00000000000004" y1="171.0" x2="7.00000000000008" y2="171.0"/>
    <line x1="7.00000000000008" y1="171.0" x2="7.00000000000008" y2="201.0"/>
    <line x1="7.00000000000008" y1="201.0" x2="4.00000000000004" y2="201.0"/>
    <line x1="7.00000000000008" y1="30.0000000000001" x2="7.00000000000008" y2="60.0000000000001"/>
    <line x1="7.00000000000008" y1="60.0000000000001" x2="3.99999999999999" y2="60.0"/>
    <line x1="3.99999999999999" y1="60.0" x2="3.99999999999999" y2="30.0000000000001"/>
    <line x1="3.99999999999999" y1="30.0000000000001" x2="7.00000000000008" y2="30.0000000000001"/>
    <line x1="34.0" y1="4.00000000000011" x2="64.0000000000001" y2="4.00000000000011"/>
    <line x1="64.0000000000001" y1="4.00000000000011" x2="64.0000000000001" y2="7.00000000000011"/>
    <line x1="64.0000000000001" y1="7.00000000000011" x2="34.0" y2="7.00000000000011"/>
    <line x1="34.0" y1="7.00000000000011" x2="34.0" y2="4.00000000000011"/>
    <line x1="204.0" y1="7.00000000000011" x2="204.0" y2="4.00000000000011"/>
    <line x1="204.0" y1="4.00000000000011" x2="234.0" y2="4.00000000000011"/>
    <line x1="234.0" y1="4.00000000000011" x2="234.0" y2="7.00000000000011"/>
    <line x1="234.0" y1="7.00000000000011" x2="204.0" y2="7.00000000000011"/>
    <line x1="261.0" y1="30.0000000000001" x2="264.0" y2="30.0000000000001"/>
    <line x1="264.0" y1="30.0000000000001" x2="264.0" y2="60.0"/>
    <line x1="264.0" y1="60.0" x2="261.0" y2="60.0000000000001"/>
    <line x1="261.0" y1="60.0000000000001" x2="261.0" y2="30.0000000000001"/>
    <line x1="264.0" y1="201.0" x2="261.0" y2="201.0"/>
    <line x1="261.0" y1="201.0" x2="261.0" y2="171.0"/>
    <line x1="261.0" y1="171.0" x2="264.0" y2="171.0"/>
    <line x1="264.0" y1="171.0" x2="264.0" y2="201.0"/>
    <line x1="234.0" y1="224.0" x2="234.0" y2="227.0"/>
    <line x1="234.0" y1="227.0" x2="204.0" y2="227.0"/>
    <line x1="204.0" y1="227.0" x2="204.0" y2="224.0"/>
    <line x1="204.0" y1="224.0" x2="234.0" y2="224.0"/>
    <line x1="64.0000000000001" y1="223.999999999999" x2="64.0000000000001" y2="226.999999999998"/>
    <line x1="64.0000000000001" y1="226.999999999998" x2="34.0000000000001" y2="227.000000000001"/>
    <line x1="34.0000000000001" y1="227.000000000001" x2="34.0000000000001" y2="224.000000000001"/>
    <line x1="34.0000000000001" y1="224.000000000001" x2="64.0000000000001" y2="223.999999999999"/>
  </g>
</svg>
