<?xml version="1.0" standalone="no"?>
<!DOCTYPE svg PUBLIC "-//W3C//DTD SVG 1.1//EN" "http://www.w3.org/Graphics/SVG/1.1/DTD/svg11.dtd">
<svg width="266.0002mm" height="229.0002mm"
 viewBox="0 0 266.0002 229.0002"
 xmlns="http://www.w3.org/2000/svg" version="1.1"
 xmlns:xlink="http://www.w3.org/1999/xlink">
<desc>Output from Flights of Ideas SVG Sketchup Plugin</desc>

  <g id="face0" fill="none" stroke="rgb(0,0,255)" stroke-width="1" stroke-miterlimit="4" stroke-dasharray="none" stroke-linejoin="round" stroke-linecap="round">
    <line x1="266.0001" y1="229.0001" x2="266.0001" y2="0.0001"/>
    <line x1="266.0001" y1="0.0001" x2="0.0001" y2="0.000100000000227374"/>
    <line x1="0.0001" y1="0.000100000000227374" x2="0.0001" y2="229.0001"/>
    <line x1="0.0001" y1="229.0001" x2="266.0001" y2="229.0001"/>
    <line x1="261.888328567654" y1="18.9489887394338" x2="261.5001" y2="19.0001"/>
    <line x1="261.5001" y1="19.0001" x2="261.111871432347" y2="18.9489887394338"/>
    <line x1="261.111871432347" y1="18.9489887394338" x2="260.7501" y2="18.7991381056768"/>
    <line x1="260.7501" y1="18.7991381056768" x2="260.43943982822" y2="18.56076017178"/>
    <line x1="260.43943982822" y1="18.56076017178" x2="260.201061894324" y2="18.2501000000002"/>
    <line x1="260.201061894324" y1="18.2501000000002" x2="260.051211260567" y2="17.8883285676539"/>
    <line x1="260.051211260567" y1="17.8883285676539" x2="260.0001" y2="17.5001000000002"/>
    <line x1="260.0001" y1="17.5001000000002" x2="260.051211260567" y2="17.1118714323464"/>
    <line x1="260.051211260567" y1="17.1118714323464" x2="260.201061894324" y2="16.7501000000002"/>
    <line x1="260.201061894324" y1="16.7501000000002" x2="260.43943982822" y2="16.4394398282202"/>
    <line x1="260.43943982822" y1="16.4394398282202" x2="260.7501" y2="16.2010618943234"/>
    <line x1="260.7501" y1="16.2010618943234" x2="261.111871432347" y2="16.0512112605665"/>
    <line x1="261.111871432347" y1="16.0512112605665" x2="261.5001" y2="16.0001000000002"/>
    <line x1="261.5001" y1="16.0001000000002" x2="261.888328567654" y2="16.0512112605665"/>
    <line x1="261.888328567654" y1="16.0512112605665" x2="262.2501" y2="16.2010618943234"/>
    <line x1="262.2501" y1="16.2010618943234" x2="262.56076017178" y2="16.4394398282202"/>
    <line x1="262.56076017178" y1="16.4394398282202" x2="262.799138105677" y2="16.7501000000002"/>
    <line x1="262.799138105677" y1="16.7501000000002" x2="262.948988739434" y2="17.1118714323464"/>
    <line x1="262.948988739434" y1="17.1118714323464" x2="263.0001" y2="17.5001000000002"/>
    <line x1="263.0001" y1="17.5001000000002" x2="262.948988739434" y2="17.8883285676539"/>
    <line x1="262.948988739434" y1="17.8883285676539" x2="262.799138105677" y2="18.2501000000002"/>
    <line x1="262.799138105677" y1="18.2501000000002" x2="262.56076017178" y2="18.56076017178"/>
    <line x1="262.56076017178" y1="18.56076017178" x2="262.2501" y2="18.7991381056768"/>
    <line x1="262.2501" y1="18.7991381056768" x2="261.888328567654" y2="18.9489887394338"/>
    <line x1="261.888328567654" y1="212.948988739434" x2="261.5001" y2="213.0001"/>
    <line x1="261.5001" y1="213.0001" x2="261.111871432346" y2="212.948988739434"/>
    <line x1="261.111871432346" y1="212.948988739434" x2="260.7501" y2="212.799138105677"/>
    <line x1="260.7501" y1="212.799138105677" x2="260.43943982822" y2="212.56076017178"/>
    <line x1="260.43943982822" y1="212.56076017178" x2="260.201061894323" y2="212.2501"/>
    <line x1="260.201061894323" y1="212.2501" x2="260.051211260567" y2="211.888328567654"/>
    <line x1="260.051211260567" y1="211.888328567654" x2="260.0001" y2="211.5001"/>
    <line x1="260.0001" y1="211.5001" x2="260.051211260567" y2="211.111871432346"/>
    <line x1="260.051211260567" y1="211.111871432346" x2="260.201061894323" y2="210.7501"/>
    <line x1="260.201061894323" y1="210.7501" x2="260.43943982822" y2="210.43943982822"/>
    <line x1="260.43943982822" y1="210.43943982822" x2="260.7501" y2="210.201061894323"/>
    <line x1="260.7501" y1="210.201061894323" x2="261.111871432346" y2="210.051211260567"/>
    <line x1="261.111871432346" y1="210.051211260567" x2="261.5001" y2="210.0001"/>
    <line x1="261.5001" y1="210.0001" x2="261.888328567654" y2="210.051211260567"/>
    <line x1="261.888328567654" y1="210.051211260567" x2="262.2501" y2="210.201061894323"/>
    <line x1="262.2501" y1="210.201061894323" x2="262.56076017178" y2="210.43943982822"/>
    <line x1="262.56076017178" y1="210.43943982822" x2="262.799138105677" y2="210.7501"/>
    <line x1="262.799138105677" y1="210.7501" x2="262.948988739434" y2="211.111871432346"/>
    <line x1="262.948988739434" y1="211.111871432346" x2="263.0001" y2="211.5001"/>
    <line x1="263.0001" y1="211.5001" x2="262.948988739434" y2="211.888328567654"/>
    <line x1="262.948988739434" y1="211.888328567654" x2="262.799138105677" y2="212.2501"/>
    <line x1="262.799138105677" y1="212.2501" x2="262.56076017178" y2="212.56076017178"/>
    <line x1="262.56076017178" y1="212.56076017178" x2="262.2501" y2="212.799138105677"/>
    <line x1="262.2501" y1="212.799138105677" x2="261.888328567654" y2="212.948988739434"/>
    <line x1="243.051211260566" y1="4.88832856765375" x2="243.0001" y2="4.50010000000011"/>
    <line x1="243.0001" y1="4.50010000000011" x2="243.051211260566" y2="4.11187143234636"/>
    <line x1="243.051211260566" y1="4.11187143234636" x2="243.201061894323" y2="3.75010000000011"/>
    <line x1="243.201061894323" y1="3.75010000000011" x2="243.43943982822" y2="3.43943982822034"/>
    <line x1="243.43943982822" y1="3.43943982822034" x2="243.7501" y2="3.20106189432354"/>
    <line x1="243.7501" y1="3.20106189432354" x2="244.111871432346" y2="3.05121126056636"/>
    <line x1="244.111871432346" y1="3.05121126056636" x2="244.5001" y2="3.00010000000011"/>
    <line x1="244.5001" y1="3.00010000000011" x2="244.888328567654" y2="3.05121126056659"/>
    <line x1="244.888328567654" y1="3.05121126056659" x2="245.2501" y2="3.20106189432354"/>
    <line x1="245.2501" y1="3.20106189432354" x2="245.56076017178" y2="3.43943982822034"/>
    <line x1="245.56076017178" y1="3.43943982822034" x2="245.799138105677" y2="3.75010000000011"/>
    <line x1="245.799138105677" y1="3.75010000000011" x2="245.948988739434" y2="4.11187143234636"/>
    <line x1="245.948988739434" y1="4.11187143234636" x2="246.0001" y2="4.50010000000011"/>
    <line x1="246.0001" y1="4.50010000000011" x2="245.948988739434" y2="4.88832856765398"/>
    <line x1="245.948988739434" y1="4.88832856765398" x2="245.799138105677" y2="5.25010000000011"/>
    <line x1="245.799138105677" y1="5.25010000000011" x2="245.56076017178" y2="5.56076017177989"/>
    <line x1="245.56076017178" y1="5.56076017177989" x2="245.2501" y2="5.7991381056768"/>
    <line x1="245.2501" y1="5.7991381056768" x2="244.888328567654" y2="5.94898873943376"/>
    <line x1="244.888328567654" y1="5.94898873943376" x2="244.5001" y2="6.00010000000011"/>
    <line x1="244.5001" y1="6.00010000000011" x2="244.111871432346" y2="5.94898873943376"/>
    <line x1="244.111871432346" y1="5.94898873943376" x2="243.7501" y2="5.7991381056768"/>
    <line x1="243.7501" y1="5.7991381056768" x2="243.43943982822" y2="5.56076017177989"/>
    <line x1="243.43943982822" y1="5.56076017177989" x2="243.201061894323" y2="5.25010000000011"/>
    <line x1="243.201061894323" y1="5.25010000000011" x2="243.051211260566" y2="4.88832856765375"/>
    <line x1="20.0512112605664" y1="4.88832856765398" x2="20.0001" y2="4.50010000000011"/>
    <line x1="20.0001" y1="4.50010000000011" x2="20.0512112605664" y2="4.11187143234636"/>
    <line x1="20.0512112605664" y1="4.11187143234636" x2="20.2010618943234" y2="3.75010000000023"/>
    <line x1="20.2010618943234" y1="3.75010000000023" x2="20.4394398282202" y2="3.43943982822034"/>
    <line x1="20.4394398282202" y1="3.43943982822034" x2="20.7501" y2="3.20106189432354"/>
    <line x1="20.7501" y1="3.20106189432354" x2="21.1118714323463" y2="3.05121126056659"/>
    <line x1="21.1118714323463" y1="3.05121126056659" x2="21.5001" y2="3.00010000000011"/>
    <line x1="21.5001" y1="3.00010000000011" x2="21.8883285676539" y2="3.05121126056659"/>
    <line x1="21.8883285676539" y1="3.05121126056659" x2="22.2501" y2="3.20106189432354"/>
    <line x1="22.2501" y1="3.20106189432354" x2="22.5607601717798" y2="3.43943982822034"/>
    <line x1="22.5607601717798" y1="3.43943982822034" x2="22.7991381056768" y2="3.75010000000011"/>
    <line x1="22.7991381056768" y1="3.75010000000011" x2="22.9489887394337" y2="4.11187143234624"/>
    <line x1="22.9489887394337" y1="4.11187143234624" x2="23.0001" y2="4.50010000000011"/>
    <line x1="23.0001" y1="4.50010000000011" x2="22.9489887394337" y2="4.88832856765375"/>
    <line x1="22.9489887394337" y1="4.88832856765375" x2="22.7991381056767" y2="5.25010000000011"/>
    <line x1="22.7991381056767" y1="5.25010000000011" x2="22.5607601717797" y2="5.56076017177989"/>
    <line x1="22.5607601717797" y1="5.56076017177989" x2="22.2501" y2="5.79913810567669"/>
    <line x1="22.2501" y1="5.79913810567669" x2="21.8883285676538" y2="5.94898873943376"/>
    <line x1="21.8883285676538" y1="5.94898873943376" x2="21.5000999999999" y2="6.00010000000011"/>
    <line x1="21.5000999999999" y1="6.00010000000011" x2="21.1118714323463" y2="5.94898873943376"/>
    <line x1="21.1118714323463" y1="5.94898873943376" x2="20.7501" y2="5.7991381056768"/>
    <line x1="20.7501" y1="5.7991381056768" x2="20.4394398282201" y2="5.56076017177989"/>
    <line x1="20.4394398282201" y1="5.56076017177989" x2="20.2010618943234" y2="5.25010000000011"/>
    <line x1="20.2010618943234" y1="5.25010000000011" x2="20.0512112605664" y2="4.88832856765398"/>
    <line x1="4.88832856765395" y1="18.9489887394338" x2="4.50010000000011" y2="19.0001"/>
    <line x1="4.50010000000011" y1="19.0001" x2="4.11187143234635" y2="18.9489887394338"/>
    <line x1="4.11187143234635" y1="18.9489887394338" x2="3.7501000000001" y2="18.7991381056768"/>
    <line x1="3.7501000000001" y1="18.7991381056768" x2="3.43943982822031" y2="18.56076017178"/>
    <line x1="3.43943982822031" y1="18.56076017178" x2="3.20106189432343" y2="18.2501000000002"/>
    <line x1="3.20106189432343" y1="18.2501000000002" x2="3.0512112605665" y2="17.8883285676539"/>
    <line x1="3.0512112605665" y1="17.8883285676539" x2="3.00010000000009" y2="17.5001"/>
    <line x1="3.00010000000009" y1="17.5001" x2="3.05121126056655" y2="17.1118714323464"/>
    <line x1="3.05121126056655" y1="17.1118714323464" x2="3.20106189432343" y2="16.7501000000002"/>
    <line x1="3.20106189432343" y1="16.7501000000002" x2="3.43943982822021" y2="16.4394398282203"/>
    <line x1="3.43943982822021" y1="16.4394398282203" x2="3.75010000000001" y2="16.2010618943237"/>
    <line x1="3.75010000000001" y1="16.2010618943237" x2="4.11187143234635" y2="16.0512112605665"/>
    <line x1="4.11187143234635" y1="16.0512112605665" x2="4.50010000000006" y2="16.0001000000002"/>
    <line x1="4.50010000000006" y1="16.0001000000002" x2="4.88832856765386" y2="16.0512112605667"/>
    <line x1="4.88832856765386" y1="16.0512112605667" x2="5.25010000000002" y2="16.2010618943237"/>
    <line x1="5.25010000000002" y1="16.2010618943237" x2="5.56076017177986" y2="16.4394398282202"/>
    <line x1="5.56076017177986" y1="16.4394398282202" x2="5.79913810567682" y2="16.7501000000002"/>
    <line x1="5.79913810567682" y1="16.7501000000002" x2="5.94898873943375" y2="17.1118714323464"/>
    <line x1="5.94898873943375" y1="17.1118714323464" x2="6.00010000000012" y2="17.5001000000002"/>
    <line x1="6.00010000000012" y1="17.5001000000002" x2="5.94898873943375" y2="17.8883285676539"/>
    <line x1="5.94898873943375" y1="17.8883285676539" x2="5.79913810567682" y2="18.2501000000002"/>
    <line x1="5.79913810567682" y1="18.2501000000002" x2="5.56076017177986" y2="18.56076017178"/>
    <line x1="5.56076017177986" y1="18.56076017178" x2="5.25010000000007" y2="18.7991381056768"/>
    <line x1="5.25010000000007" y1="18.7991381056768" x2="4.88832856765395" y2="18.9489887394338"/>
    <line x1="4.88832856765377" y1="212.948988739433" x2="4.50010000000006" y2="213.0001"/>
    <line x1="4.50010000000006" y1="213.0001" x2="4.11187143234612" y2="212.948988739434"/>
    <line x1="4.11187143234612" y1="212.948988739434" x2="3.75010000000001" y2="212.799138105678"/>
    <line x1="3.75010000000001" y1="212.799138105678" x2="3.43943982822026" y2="212.56076017178"/>
    <line x1="3.43943982822026" y1="212.56076017178" x2="3.2010618943233" y2="212.2501"/>
    <line x1="3.2010618943233" y1="212.2501" x2="3.05121126056637" y2="211.888328567654"/>
    <line x1="3.05121126056637" y1="211.888328567654" x2="3.00010000000004" y2="211.5001"/>
    <line x1="3.00010000000004" y1="211.5001" x2="3.05121126056632" y2="211.111871432347"/>
    <line x1="3.05121126056632" y1="211.111871432347" x2="3.2010618943233" y2="210.750100000001"/>
    <line x1="3.2010618943233" y1="210.750100000001" x2="3.43943982822026" y2="210.439439828221"/>
    <line x1="3.43943982822026" y1="210.439439828221" x2="3.75010000000005" y2="210.201061894323"/>
    <line x1="3.75010000000005" y1="210.201061894323" x2="4.11187143234617" y2="210.051211260566"/>
    <line x1="4.11187143234617" y1="210.051211260566" x2="4.50010000000006" y2="210.0001"/>
    <line x1="4.50010000000006" y1="210.0001" x2="4.88832856765377" y2="210.051211260566"/>
    <line x1="4.88832856765377" y1="210.051211260566" x2="5.25010000000007" y2="210.201061894324"/>
    <line x1="5.25010000000007" y1="210.201061894324" x2="5.56076017177986" y2="210.43943982822"/>
    <line x1="5.56076017177986" y1="210.43943982822" x2="5.79913810567664" y2="210.7501"/>
    <line x1="5.79913810567664" y1="210.7501" x2="5.94898873943357" y2="211.111871432347"/>
    <line x1="5.94898873943357" y1="211.111871432347" x2="6.00010000000004" y2="211.5001"/>
    <line x1="6.00010000000004" y1="211.5001" x2="5.94898873943357" y2="211.888328567654"/>
    <line x1="5.94898873943357" y1="211.888328567654" x2="5.79913810567664" y2="212.2501"/>
    <line x1="5.79913810567664" y1="212.2501" x2="5.56076017177986" y2="212.56076017178"/>
    <line x1="5.56076017177986" y1="212.56076017178" x2="5.25010000000007" y2="212.799138105677"/>
    <line x1="5.25010000000007" y1="212.799138105677" x2="4.88832856765377" y2="212.948988739433"/>
    <line x1="3.00010000000004" y1="200.0001" x2="3.00010000000004" y2="170.0001"/>
    <line x1="3.00010000000004" y1="170.0001" x2="6.00010000000008" y2="170.0001"/>
    <line x1="6.00010000000008" y1="170.0001" x2="6.00010000000008" y2="200.0001"/>
    <line x1="6.00010000000008" y1="200.0001" x2="3.00010000000004" y2="200.0001"/>
    <line x1="6.00010000000008" y1="29.0001000000003" x2="6.00010000000004" y2="59.0001000000003"/>
    <line x1="6.00010000000004" y1="59.0001000000003" x2="3.0001" y2="59.0001000000003"/>
    <line x1="3.0001" y1="59.0001000000003" x2="3.00010000000004" y2="29.0001000000001"/>
    <line x1="3.00010000000004" y1="29.0001000000001" x2="6.00010000000008" y2="29.0001000000003"/>
    <line x1="33.0001" y1="3.00010000000011" x2="63.0001000000001" y2="3.00010000000011"/>
    <line x1="63.0001000000001" y1="3.00010000000011" x2="63.0001000000002" y2="6.00010000000011"/>
    <line x1="63.0001000000002" y1="6.00010000000011" x2="33.0001000000001" y2="6.00010000000011"/>
    <line x1="33.0001000000001" y1="6.00010000000011" x2="33.0001" y2="3.00010000000011"/>
    <line x1="203.0001" y1="6.00010000000011" x2="203.0001" y2="3.00010000000011"/>
    <line x1="203.0001" y1="3.00010000000011" x2="233.0001" y2="3.00010000000011"/>
    <line x1="233.0001" y1="3.00010000000011" x2="233.0001" y2="6.00010000000011"/>
    <line x1="233.0001" y1="6.00010000000011" x2="203.0001" y2="6.00010000000011"/>
    <line x1="260.0001" y1="29.0001000000001" x2="263.0001" y2="29.0001000000001"/>
    <line x1="263.0001" y1="29.0001000000001" x2="263.0001" y2="59.0001000000001"/>
    <line x1="263.0001" y1="59.0001000000001" x2="260.0001" y2="59.0001000000001"/>
    <line x1="260.0001" y1="59.0001000000001" x2="260.0001" y2="29.0001000000001"/>
    <line x1="263.0001" y1="200.0001" x2="260.0001" y2="200.0001"/>
    <line x1="260.0001" y1="200.0001" x2="260.0001" y2="170.0001"/>
    <line x1="260.0001" y1="170.0001" x2="263.0001" y2="170.0001"/>
    <line x1="263.0001" y1="170.0001" x2="263.0001" y2="200.0001"/>
    <line x1="243.0001" y1="223.0001" x2="243.0001" y2="226.0001"/>
    <line x1="243.0001" y1="226.0001" x2="213.0001" y2="226.0001"/>
    <line x1="213.0001" y1="226.0001" x2="213.0001" y2="223.0001"/>
    <line x1="213.0001" y1="223.0001" x2="243.0001" y2="223.0001"/>
    <line x1="53.0001" y1="223.000099999999" x2="53.0001" y2="226.000099999999"/>
    <line x1="53.0001" y1="226.000099999999" x2="23.0001" y2="226.000100000001"/>
    <line x1="23.0001" y1="226.000100000001" x2="23.0001" y2="223.0001"/>
    <line x1="23.0001" y1="223.0001" x2="53.0001" y2="223.000099999999"/>
  </g>
</svg>
