<?xml version="1.0" standalone="no"?>
<!DOCTYPE svg PUBLIC "-//W3C//DTD SVG 1.1//EN" "http://www.w3.org/Graphics/SVG/1.1/DTD/svg11.dtd">
<svg width="301.00019999999mm" height="223.000200000003mm"
 viewBox="0 0 301.00019999999 223.000200000003"
 xmlns="http://www.w3.org/2000/svg" version="1.1"
 xmlns:xlink="http://www.w3.org/1999/xlink">
<desc>Output from Flights of Ideas SVG Sketchup Plugin</desc>

  <g id="face0" fill="none" stroke="rgb(0,0,255)" stroke-width="1" stroke-miterlimit="4" stroke-dasharray="none" stroke-linejoin="round" stroke-linecap="round">
    <line x1="298.00009999999" y1="220.0001" x2="298.00009999999" y2="210.0001"/>
    <line x1="298.00009999999" y1="210.0001" x2="296.00009999999" y2="210.0001"/>
    <line x1="296.00009999999" y1="210.0001" x2="296.00009999999" y2="211.3001"/>
    <line x1="296.00009999999" y1="211.3001" x2="293.80009999999" y2="211.3001"/>
    <line x1="293.80009999999" y1="211.3001" x2="293.80009999999" y2="210.0001"/>
    <line x1="293.80009999999" y1="210.0001" x2="290.80009999999" y2="210.0001"/>
    <line x1="290.80009999999" y1="210.0001" x2="290.80009999999" y2="207.0001"/>
    <line x1="290.80009999999" y1="207.0001" x2="293.80009999999" y2="207.0001"/>
    <line x1="293.80009999999" y1="207.0001" x2="293.80009999999" y2="205.7001"/>
    <line x1="293.80009999999" y1="205.7001" x2="296.00009999999" y2="205.7001"/>
    <line x1="296.00009999999" y1="205.7001" x2="296.00009999999" y2="207.0001"/>
    <line x1="296.00009999999" y1="207.0001" x2="298.00009999999" y2="207.0001"/>
    <line x1="298.00009999999" y1="207.0001" x2="298.00009999999" y2="197.0001"/>
    <line x1="298.00009999999" y1="197.0001" x2="301.00009999999" y2="197.0001"/>
    <line x1="301.00009999999" y1="197.0001" x2="301.00009999999" y2="167.0001"/>
    <line x1="301.00009999999" y1="167.0001" x2="298.00009999999" y2="167.0001"/>
    <line x1="298.00009999999" y1="167.0001" x2="298.00009999999" y2="56.0001000000001"/>
    <line x1="298.00009999999" y1="56.0001000000001" x2="301.00009999999" y2="56.0001"/>
    <line x1="301.00009999999" y1="56.0001" x2="301.00009999999" y2="26.0001000000001"/>
    <line x1="301.00009999999" y1="26.0001000000001" x2="298.00009999999" y2="26.0001000000001"/>
    <line x1="298.00009999999" y1="26.0001000000001" x2="298.00009999999" y2="16.0001000000001"/>
    <line x1="298.00009999999" y1="16.0001000000001" x2="296.00009999999" y2="16.0001000000001"/>
    <line x1="296.00009999999" y1="16.0001000000001" x2="296.00009999999" y2="17.3001000000002"/>
    <line x1="296.00009999999" y1="17.3001000000002" x2="293.80009999999" y2="17.3001000000001"/>
    <line x1="293.80009999999" y1="17.3001000000001" x2="293.80009999999" y2="16.0001000000001"/>
    <line x1="293.80009999999" y1="16.0001000000001" x2="290.80009999999" y2="16.0001000000001"/>
    <line x1="290.80009999999" y1="16.0001000000001" x2="290.80009999999" y2="13.0001000000001"/>
    <line x1="290.80009999999" y1="13.0001000000001" x2="293.80009999999" y2="13.0001000000001"/>
    <line x1="293.80009999999" y1="13.0001000000001" x2="293.80009999999" y2="11.7001"/>
    <line x1="293.80009999999" y1="11.7001" x2="296.00009999999" y2="11.7001000000002"/>
    <line x1="296.00009999999" y1="11.7001000000002" x2="296.00009999999" y2="13.0001000000001"/>
    <line x1="296.00009999999" y1="13.0001000000001" x2="298.00009999999" y2="13.0001000000001"/>
    <line x1="298.00009999999" y1="13.0001000000001" x2="298.00009999999" y2="3.00010000000011"/>
    <line x1="298.00009999999" y1="3.00010000000011" x2="278.00009999999" y2="3.00010000000011"/>
    <line x1="278.00009999999" y1="3.00010000000011" x2="278.00009999999" y2="0.000100000000113687"/>
    <line x1="278.00009999999" y1="0.000100000000113687" x2="258.00009999999" y2="0.000100000000113687"/>
    <line x1="258.00009999999" y1="0.000100000000113687" x2="258.00009999999" y2="3.00010000000011"/>
    <line x1="258.00009999999" y1="3.00010000000011" x2="248.00009999999" y2="3.00010000000011"/>
    <line x1="248.00009999999" y1="3.00010000000011" x2="248.00009999999" y2="5.00010000000011"/>
    <line x1="248.00009999999" y1="5.00010000000011" x2="249.30009999999" y2="5.00010000000011"/>
    <line x1="249.30009999999" y1="5.00010000000011" x2="249.30009999999" y2="7.20010000000016"/>
    <line x1="249.30009999999" y1="7.20010000000016" x2="248.00009999999" y2="7.20010000000016"/>
    <line x1="248.00009999999" y1="7.20010000000016" x2="248.00009999999" y2="10.2001000000002"/>
    <line x1="248.00009999999" y1="10.2001000000002" x2="245.00009999999" y2="10.2001000000002"/>
    <line x1="245.00009999999" y1="10.2001000000002" x2="245.00009999999" y2="7.20010000000016"/>
    <line x1="245.00009999999" y1="7.20010000000016" x2="243.70009999999" y2="7.20010000000016"/>
    <line x1="243.70009999999" y1="7.20010000000016" x2="243.70009999999" y2="5.00010000000011"/>
    <line x1="243.70009999999" y1="5.00010000000011" x2="245.00009999999" y2="5.00010000000011"/>
    <line x1="245.00009999999" y1="5.00010000000011" x2="245.00009999999" y2="3.0001"/>
    <line x1="245.00009999999" y1="3.0001" x2="235.00009999999" y2="3.00010000000011"/>
    <line x1="235.00009999999" y1="3.00010000000011" x2="235.00009999999" y2="0.000100000000113687"/>
    <line x1="235.00009999999" y1="0.000100000000113687" x2="215.00009999999" y2="0.0001"/>
    <line x1="215.00009999999" y1="0.0001" x2="215.00009999999" y2="3.0001"/>
    <line x1="215.00009999999" y1="3.0001" x2="86.0001" y2="3.0001"/>
    <line x1="86.0001" y1="3.0001" x2="86.0001" y2="0.0001"/>
    <line x1="86.0001" y1="0.0001" x2="66.0001" y2="0.0001"/>
    <line x1="66.0001" y1="0.0001" x2="66.0001" y2="3.0001"/>
    <line x1="66.0001" y1="3.0001" x2="56.0001000000001" y2="3.00010000000011"/>
    <line x1="56.0001000000001" y1="3.00010000000011" x2="56.0001000000001" y2="5.00010000000011"/>
    <line x1="56.0001000000001" y1="5.00010000000011" x2="57.3001000000001" y2="5.0001"/>
    <line x1="57.3001000000001" y1="5.0001" x2="57.3001" y2="7.20010000000016"/>
    <line x1="57.3001" y1="7.20010000000016" x2="56.0001000000002" y2="7.20010000000016"/>
    <line x1="56.0001000000002" y1="7.20010000000016" x2="56.0001000000002" y2="10.2001"/>
    <line x1="56.0001000000002" y1="10.2001" x2="53.0001000000001" y2="10.2001"/>
    <line x1="53.0001000000001" y1="10.2001" x2="53.0001000000001" y2="7.20010000000016"/>
    <line x1="53.0001000000001" y1="7.20010000000016" x2="51.7001" y2="7.20010000000016"/>
    <line x1="51.7001" y1="7.20010000000016" x2="51.7001" y2="5.00010000000023"/>
    <line x1="51.7001" y1="5.00010000000023" x2="53.0001000000001" y2="5.00010000000011"/>
    <line x1="53.0001000000001" y1="5.00010000000011" x2="53.0001000000001" y2="3.0001"/>
    <line x1="53.0001000000001" y1="3.0001" x2="43.0001000000001" y2="3.00010000000011"/>
    <line x1="43.0001000000001" y1="3.00010000000011" x2="43.0001" y2="0.000100000000113687"/>
    <line x1="43.0001" y1="0.000100000000113687" x2="23.0001" y2="0.000100000000113687"/>
    <line x1="23.0001" y1="0.000100000000113687" x2="23.0001" y2="3.00010000000011"/>
    <line x1="23.0001" y1="3.00010000000011" x2="3.00010000000009" y2="3.00010000000011"/>
    <line x1="3.00010000000009" y1="3.00010000000011" x2="3.00010000000004" y2="13.0001000000002"/>
    <line x1="3.00010000000004" y1="13.0001000000002" x2="5.0001" y2="13.0001000000001"/>
    <line x1="5.0001" y1="13.0001000000001" x2="5.00009999999994" y2="11.7001000000002"/>
    <line x1="5.00009999999994" y1="11.7001000000002" x2="7.20010000000007" y2="11.7001000000002"/>
    <line x1="7.20010000000007" y1="11.7001000000002" x2="7.20010000000007" y2="13.0001000000001"/>
    <line x1="7.20010000000007" y1="13.0001000000001" x2="10.2001" y2="13.0001000000001"/>
    <line x1="10.2001" y1="13.0001000000001" x2="10.2001000000001" y2="16.0001000000002"/>
    <line x1="10.2001000000001" y1="16.0001000000002" x2="7.20010000000007" y2="16.0001000000001"/>
    <line x1="7.20010000000007" y1="16.0001000000001" x2="7.20009999999999" y2="17.3001000000003"/>
    <line x1="7.20009999999999" y1="17.3001000000003" x2="5.0001" y2="17.3001000000001"/>
    <line x1="5.0001" y1="17.3001000000001" x2="5.00010000000004" y2="16.0001000000001"/>
    <line x1="5.00010000000004" y1="16.0001000000001" x2="3.00010000000013" y2="16.0001000000001"/>
    <line x1="3.00010000000013" y1="16.0001000000001" x2="3.00010000000009" y2="26.0001000000001"/>
    <line x1="3.00010000000009" y1="26.0001000000001" x2="0.0001" y2="26.0001000000002"/>
    <line x1="0.0001" y1="26.0001000000002" x2="0.000100000000042633" y2="56.0001000000002"/>
    <line x1="0.000100000000042633" y1="56.0001000000002" x2="3.00010000000009" y2="56.0001000000002"/>
    <line x1="3.00010000000009" y1="56.0001000000002" x2="3.00010000000009" y2="167.0001"/>
    <line x1="3.00010000000009" y1="167.0001" x2="0.000100000000042633" y2="167.0001"/>
    <line x1="0.000100000000042633" y1="167.0001" x2="0.000100000000042633" y2="197.0001"/>
    <line x1="0.000100000000042633" y1="197.0001" x2="3.00010000000004" y2="197.000100000001"/>
    <line x1="3.00010000000004" y1="197.000100000001" x2="3.00010000000009" y2="207.000099999999"/>
    <line x1="3.00010000000009" y1="207.000099999999" x2="5.00010000000004" y2="207.000099999999"/>
    <line x1="5.00010000000004" y1="207.000099999999" x2="5.0001" y2="205.7001"/>
    <line x1="5.0001" y1="205.7001" x2="7.20009999999999" y2="205.700100000001"/>
    <line x1="7.20009999999999" y1="205.700100000001" x2="7.20010000000003" y2="207.000099999999"/>
    <line x1="7.20010000000003" y1="207.000099999999" x2="10.2001000000001" y2="207.0001"/>
    <line x1="10.2001000000001" y1="207.0001" x2="10.2001000000001" y2="210.0001"/>
    <line x1="10.2001000000001" y1="210.0001" x2="7.20010000000003" y2="210.0001"/>
    <line x1="7.20010000000003" y1="210.0001" x2="7.20010000000003" y2="211.3001"/>
    <line x1="7.20010000000003" y1="211.3001" x2="5.0001" y2="211.3001"/>
    <line x1="5.0001" y1="211.3001" x2="5.0001" y2="210.0001"/>
    <line x1="5.0001" y1="210.0001" x2="3.00010000000009" y2="210.0001"/>
    <line x1="3.00010000000009" y1="210.0001" x2="3.00010000000009" y2="220.0001"/>
    <line x1="3.00010000000009" y1="220.0001" x2="13.0001" y2="220.0001"/>
    <line x1="13.0001" y1="220.0001" x2="13.0001" y2="223.000100000003"/>
    <line x1="13.0001" y1="223.000100000003" x2="33.0000999999999" y2="223.000099999998"/>
    <line x1="33.0000999999999" y1="223.000099999998" x2="33.0000999999999" y2="220.0001"/>
    <line x1="33.0000999999999" y1="220.0001" x2="43.0001" y2="220.0001"/>
    <line x1="43.0001" y1="220.0001" x2="43.0001" y2="218.000099999999"/>
    <line x1="43.0001" y1="218.000099999999" x2="41.7000999999999" y2="218.000099999998"/>
    <line x1="41.7000999999999" y1="218.000099999998" x2="41.7000999999999" y2="215.8001"/>
    <line x1="41.7000999999999" y1="215.8001" x2="43.0001" y2="215.800099999999"/>
    <line x1="43.0001" y1="215.800099999999" x2="43.0001" y2="212.8001"/>
    <line x1="43.0001" y1="212.8001" x2="46.0001000000001" y2="212.8001"/>
    <line x1="46.0001000000001" y1="212.8001" x2="46.0001000000001" y2="215.800100000001"/>
    <line x1="46.0001000000001" y1="215.800100000001" x2="47.3000999999999" y2="215.800099999998"/>
    <line x1="47.3000999999999" y1="215.800099999998" x2="47.3000999999999" y2="218.000099999999"/>
    <line x1="47.3000999999999" y1="218.000099999999" x2="46.0001000000001" y2="218.000099999997"/>
    <line x1="46.0001000000001" y1="218.000099999997" x2="46.0001000000001" y2="220.0001"/>
    <line x1="46.0001000000001" y1="220.0001" x2="56.0001000000001" y2="220.0001"/>
    <line x1="56.0001000000001" y1="220.0001" x2="56.0001000000001" y2="223.000099999998"/>
    <line x1="56.0001000000001" y1="223.000099999998" x2="76.0001000000001" y2="223.000100000002"/>
    <line x1="76.0001000000001" y1="223.000100000002" x2="76.0001000000001" y2="220.0001"/>
    <line x1="76.0001000000001" y1="220.0001" x2="225.00009999999" y2="220.0001"/>
    <line x1="225.00009999999" y1="220.0001" x2="225.00009999999" y2="223.0001"/>
    <line x1="225.00009999999" y1="223.0001" x2="245.00009999999" y2="223.0001"/>
    <line x1="245.00009999999" y1="223.0001" x2="245.00009999999" y2="220.0001"/>
    <line x1="245.00009999999" y1="220.0001" x2="255.00009999999" y2="220.0001"/>
    <line x1="255.00009999999" y1="220.0001" x2="255.00009999999" y2="218.0001"/>
    <line x1="255.00009999999" y1="218.0001" x2="253.70009999999" y2="218.0001"/>
    <line x1="253.70009999999" y1="218.0001" x2="253.70009999999" y2="215.8001"/>
    <line x1="253.70009999999" y1="215.8001" x2="255.00009999999" y2="215.8001"/>
    <line x1="255.00009999999" y1="215.8001" x2="255.00009999999" y2="212.8001"/>
    <line x1="255.00009999999" y1="212.8001" x2="258.00009999999" y2="212.8001"/>
    <line x1="258.00009999999" y1="212.8001" x2="258.00009999999" y2="215.8001"/>
    <line x1="258.00009999999" y1="215.8001" x2="259.30009999999" y2="215.8001"/>
    <line x1="259.30009999999" y1="215.8001" x2="259.30009999999" y2="218.0001"/>
    <line x1="259.30009999999" y1="218.0001" x2="258.00009999999" y2="218.0001"/>
    <line x1="258.00009999999" y1="218.0001" x2="258.00009999999" y2="220.0001"/>
    <line x1="258.00009999999" y1="220.0001" x2="268.00009999999" y2="220.0001"/>
    <line x1="268.00009999999" y1="220.0001" x2="268.00009999999" y2="223.0001"/>
    <line x1="268.00009999999" y1="223.0001" x2="288.00009999999" y2="223.0001"/>
    <line x1="288.00009999999" y1="223.0001" x2="288.00009999999" y2="220.0001"/>
    <line x1="288.00009999999" y1="220.0001" x2="298.00009999999" y2="220.0001"/>
    <line x1="258.00009999999" y1="43.0001000000001" x2="258.00009999999" y2="180.0001"/>
    <line x1="258.00009999999" y1="180.0001" x2="43.0000999999905" y2="180.0001"/>
    <line x1="43.0000999999905" y1="180.0001" x2="43.0000999999905" y2="43.0001"/>
    <line x1="43.0000999999905" y1="43.0001" x2="258.00009999999" y2="43.0001000000001"/>
  </g>
</svg>
