<?xml version="1.0" standalone="no"?>
<!DOCTYPE svg PUBLIC "-//W3C//DTD SVG 1.1//EN" "http://www.w3.org/Graphics/SVG/1.1/DTD/svg11.dtd">
<svg width="266.0002mm" height="301.000199999992mm"
 viewBox="0 0 266.0002 301.000199999992"
 xmlns="http://www.w3.org/2000/svg" version="1.1"
 xmlns:xlink="http://www.w3.org/1999/xlink">
<desc>Output from Flights of Ideas SVG Sketchup Plugin</desc>

  <g id="face0" fill="none" stroke="rgb(0,0,255)" stroke-width="1" stroke-miterlimit="4" stroke-dasharray="none" stroke-linejoin="round" stroke-linecap="round">
    <line x1="266.0001" y1="3.00010000000182" x2="246.0001" y2="3.00010000000182"/>
    <line x1="246.0001" y1="3.00010000000182" x2="246.0001" y2="5.00010000000182"/>
    <line x1="246.0001" y1="5.00010000000182" x2="247.3001" y2="5.00010000000159"/>
    <line x1="247.3001" y1="5.00010000000159" x2="247.3001" y2="7.20010000000164"/>
    <line x1="247.3001" y1="7.20010000000164" x2="246.0001" y2="7.20010000000164"/>
    <line x1="246.0001" y1="7.20010000000164" x2="246.0001" y2="10.2001000000016"/>
    <line x1="246.0001" y1="10.2001000000016" x2="243.0001" y2="10.2001000000016"/>
    <line x1="243.0001" y1="10.2001000000016" x2="243.0001" y2="7.20010000000164"/>
    <line x1="243.0001" y1="7.20010000000164" x2="241.7001" y2="7.20010000000164"/>
    <line x1="241.7001" y1="7.20010000000164" x2="241.7001" y2="5.00010000000182"/>
    <line x1="241.7001" y1="5.00010000000182" x2="243.0001" y2="5.00010000000182"/>
    <line x1="243.0001" y1="5.00010000000182" x2="243.0001" y2="3.00010000000182"/>
    <line x1="243.0001" y1="3.00010000000182" x2="233.0001" y2="3.00010000000182"/>
    <line x1="233.0001" y1="3.00010000000182" x2="233.0001" y2="0.000100000001818989"/>
    <line x1="233.0001" y1="0.000100000001818989" x2="203.0001" y2="0.000100000001818989"/>
    <line x1="203.0001" y1="0.000100000001818989" x2="203.0001" y2="3.00010000000182"/>
    <line x1="203.0001" y1="3.00010000000182" x2="63.0001000000002" y2="3.00010000000182"/>
    <line x1="63.0001000000002" y1="3.00010000000182" x2="63.0001000000002" y2="0.0001"/>
    <line x1="63.0001000000002" y1="0.0001" x2="33.0001000000001" y2="0.00010000000250111"/>
    <line x1="33.0001000000001" y1="0.00010000000250111" x2="33.0001000000001" y2="3.00010000000182"/>
    <line x1="33.0001000000001" y1="3.00010000000182" x2="23.0001" y2="3.00010000000182"/>
    <line x1="23.0001" y1="3.00010000000182" x2="23.0001" y2="5.00010000000205"/>
    <line x1="23.0001" y1="5.00010000000205" x2="24.3001000000001" y2="5.00010000000159"/>
    <line x1="24.3001000000001" y1="5.00010000000159" x2="24.3001000000001" y2="7.20010000000346"/>
    <line x1="24.3001000000001" y1="7.20010000000346" x2="23.0001" y2="7.20010000000118"/>
    <line x1="23.0001" y1="7.20010000000118" x2="23.0001" y2="10.2001000000007"/>
    <line x1="23.0001" y1="10.2001000000007" x2="20.0001" y2="10.2001000000023"/>
    <line x1="20.0001" y1="10.2001000000023" x2="20.0001" y2="7.20010000000118"/>
    <line x1="20.0001" y1="7.20010000000118" x2="18.7001000000001" y2="7.20010000000095"/>
    <line x1="18.7001000000001" y1="7.20010000000095" x2="18.7001000000001" y2="5.00010000000045"/>
    <line x1="18.7001000000001" y1="5.00010000000045" x2="20.0001" y2="5.00010000000341"/>
    <line x1="20.0001" y1="5.00010000000341" x2="20.0001" y2="3.00010000000182"/>
    <line x1="20.0001" y1="3.00010000000182" x2="0.000100000000045297" y2="3.00010000000182"/>
    <line x1="0.000100000000045297" y1="3.00010000000182" x2="0.0001" y2="298.000099999992"/>
    <line x1="0.0001" y1="298.000099999992" x2="23.0001" y2="298.000099999992"/>
    <line x1="23.0001" y1="298.000099999992" x2="23.0001" y2="301.000099999992"/>
    <line x1="23.0001" y1="301.000099999992" x2="53.0001" y2="301.000099999992"/>
    <line x1="53.0001" y1="301.000099999992" x2="53.0001000000002" y2="298.000099999992"/>
    <line x1="53.0001000000002" y1="298.000099999992" x2="213.0001" y2="298.000099999992"/>
    <line x1="213.0001" y1="298.000099999992" x2="213.0001" y2="301.000099999992"/>
    <line x1="213.0001" y1="301.000099999992" x2="243.0001" y2="301.000099999992"/>
    <line x1="243.0001" y1="301.000099999992" x2="243.0001" y2="298.000099999992"/>
    <line x1="243.0001" y1="298.000099999992" x2="266.0001" y2="298.000099999992"/>
    <line x1="266.0001" y1="298.000099999992" x2="266.0001" y2="3.00010000000182"/>
    <line x1="218.0001" y1="253.000099999992" x2="48.0001000000002" y2="253.000099999992"/>
    <line x1="48.0001000000002" y1="253.000099999992" x2="48.0001000000001" y2="143.000099999991"/>
    <line x1="48.0001000000001" y1="143.000099999991" x2="218.0001" y2="143.000099999991"/>
    <line x1="218.0001" y1="143.000099999991" x2="218.0001" y2="253.000099999992"/>
    <line x1="13.0001" y1="273.000099999992" x2="18.4234335706687" y2="273.000099999992"/>
    <line x1="18.4234335706687" y1="273.000099999992" x2="18.4234335706686" y2="293.000099999993"/>
    <line x1="18.4234335706686" y1="293.000099999993" x2="13.0001" y2="293.000099999992"/>
    <line x1="13.0001" y1="293.000099999992" x2="13.0001" y2="273.000099999992"/>
    <line x1="18.4234335706686" y1="223.000099999992" x2="18.4234335706686" y2="253.000099999992"/>
    <line x1="18.4234335706686" y1="253.000099999992" x2="13.0001" y2="253.000099999992"/>
    <line x1="13.0001" y1="253.000099999992" x2="13.0000999999999" y2="223.000099999992"/>
    <line x1="13.0000999999999" y1="223.000099999992" x2="18.4234335706686" y2="223.000099999992"/>
    <line x1="13.0001" y1="173.000099999992" x2="18.4234335706686" y2="173.000099999992"/>
    <line x1="18.4234335706686" y1="173.000099999992" x2="18.4234335706686" y2="203.000099999992"/>
    <line x1="18.4234335706686" y1="203.000099999992" x2="13.0001" y2="203.000099999992"/>
    <line x1="13.0001" y1="203.000099999992" x2="13.0001" y2="173.000099999992"/>
    <line x1="18.4234335706686" y1="123.000099999992" x2="18.4234335706686" y2="153.000099999992"/>
    <line x1="18.4234335706686" y1="153.000099999992" x2="13.0001" y2="153.000099999992"/>
    <line x1="13.0001" y1="153.000099999992" x2="13.0001" y2="123.000099999992"/>
    <line x1="13.0001" y1="123.000099999992" x2="18.4234335706686" y2="123.000099999992"/>
    <line x1="13.0001" y1="83.0933506305237" x2="18.4234335706686" y2="83.0933506305237"/>
    <line x1="18.4234335706686" y1="83.0933506305237" x2="18.4234335706686" y2="103.000099999992"/>
    <line x1="18.4234335706686" y1="103.000099999992" x2="13.0001" y2="103.000099999992"/>
    <line x1="13.0001" y1="103.000099999992" x2="13.0001" y2="83.0933506305237"/>
    <line x1="247.576766429328" y1="273.000099999992" x2="253.0001" y2="273.000099999992"/>
    <line x1="253.0001" y1="273.000099999992" x2="253.0001" y2="293.000099999992"/>
    <line x1="253.0001" y1="293.000099999992" x2="247.576766429328" y2="293.000099999992"/>
    <line x1="247.576766429328" y1="293.000099999992" x2="247.576766429328" y2="273.000099999992"/>
    <line x1="247.576766429328" y1="223.000099999992" x2="253.0001" y2="223.000099999992"/>
    <line x1="253.0001" y1="223.000099999992" x2="253.0001" y2="253.000099999992"/>
    <line x1="253.0001" y1="253.000099999992" x2="247.576766429328" y2="253.000099999992"/>
    <line x1="247.576766429328" y1="253.000099999992" x2="247.576766429328" y2="223.000099999992"/>
    <line x1="247.576766429328" y1="173.000099999992" x2="253.0001" y2="173.000099999992"/>
    <line x1="253.0001" y1="173.000099999992" x2="253.0001" y2="203.000099999992"/>
    <line x1="253.0001" y1="203.000099999992" x2="247.576766429328" y2="203.000099999992"/>
    <line x1="247.576766429328" y1="203.000099999992" x2="247.576766429328" y2="173.000099999992"/>
    <line x1="247.576766429328" y1="153.000099999992" x2="247.576766429328" y2="123.000099999992"/>
    <line x1="247.576766429328" y1="123.000099999992" x2="253.0001" y2="123.000099999992"/>
    <line x1="253.0001" y1="123.000099999992" x2="253.0001" y2="153.000099999992"/>
    <line x1="253.0001" y1="153.000099999992" x2="247.576766429328" y2="153.000099999992"/>
    <line x1="247.576766429328" y1="103.000099999992" x2="247.576766429328" y2="83.000099999992"/>
    <line x1="247.576766429328" y1="83.000099999992" x2="253.0001" y2="83.000099999992"/>
    <line x1="253.0001" y1="83.000099999992" x2="253.0001" y2="103.000099999992"/>
    <line x1="253.0001" y1="103.000099999992" x2="247.576766429328" y2="103.000099999992"/>
    <line x1="6.00010000000012" y1="56.0001000000016" x2="6.00010000000012" y2="76.0001000000018"/>
    <line x1="6.00010000000012" y1="76.0001000000018" x2="3.00010000000009" y2="76.000100000002"/>
    <line x1="3.00010000000009" y1="76.000100000002" x2="3.00010000000009" y2="56.000100000002"/>
    <line x1="3.00010000000009" y1="56.000100000002" x2="6.00010000000012" y2="56.0001000000016"/>
    <line x1="6.00010000000012" y1="33.000100000002" x2="3.00010000000013" y2="33.000100000002"/>
    <line x1="3.00010000000013" y1="33.000100000002" x2="3.00010000000009" y2="13.0001000000014"/>
    <line x1="3.00010000000009" y1="13.0001000000014" x2="6.00010000000012" y2="13.0001000000011"/>
    <line x1="6.00010000000012" y1="13.0001000000011" x2="6.00010000000012" y2="33.000100000002"/>
    <line x1="4.11187143234621" y1="43.0512112605682" x2="4.5001000000001" y2="43.0001000000018"/>
    <line x1="4.5001000000001" y1="43.0001000000018" x2="4.88832856765382" y2="43.0512112605682"/>
    <line x1="4.88832856765382" y1="43.0512112605682" x2="5.25010000000012" y2="43.201061894325"/>
    <line x1="5.25010000000012" y1="43.201061894325" x2="5.56076017177991" y2="43.4394398282218"/>
    <line x1="5.56076017177991" y1="43.4394398282218" x2="5.79913810567669" y2="43.7501000000016"/>
    <line x1="5.79913810567669" y1="43.7501000000016" x2="5.94898873943362" y2="44.111871432348"/>
    <line x1="5.94898873943362" y1="44.111871432348" x2="6.00010000000012" y2="44.5001000000016"/>
    <line x1="6.00010000000012" y1="44.5001000000016" x2="5.94898873943362" y2="44.8883285676557"/>
    <line x1="5.94898873943362" y1="44.8883285676557" x2="5.79913810567669" y2="45.2501000000018"/>
    <line x1="5.79913810567669" y1="45.2501000000018" x2="5.56076017177991" y2="45.5607601717816"/>
    <line x1="5.56076017177991" y1="45.5607601717816" x2="5.25010000000012" y2="45.7991381056784"/>
    <line x1="5.25010000000012" y1="45.7991381056784" x2="4.88832856765382" y2="45.9489887394352"/>
    <line x1="4.88832856765382" y1="45.9489887394352" x2="4.5001000000001" y2="46.0001000000018"/>
    <line x1="4.5001000000001" y1="46.0001000000018" x2="4.11187143234621" y2="45.9489887394352"/>
    <line x1="4.11187143234621" y1="45.9489887394352" x2="3.75010000000014" y2="45.7991381056784"/>
    <line x1="3.75010000000014" y1="45.7991381056784" x2="3.4394398282203" y2="45.5607601717816"/>
    <line x1="3.4394398282203" y1="45.5607601717816" x2="3.20106189432339" y2="45.250100000002"/>
    <line x1="3.20106189432339" y1="45.250100000002" x2="3.05121126056641" y2="44.8883285676555"/>
    <line x1="3.05121126056641" y1="44.8883285676555" x2="3.00010000000009" y2="44.5001000000016"/>
    <line x1="3.00010000000009" y1="44.5001000000016" x2="3.05121126056641" y2="44.111871432348"/>
    <line x1="3.05121126056641" y1="44.111871432348" x2="3.20106189432334" y2="43.7501000000016"/>
    <line x1="3.20106189432334" y1="43.7501000000016" x2="3.4394398282203" y2="43.4394398282218"/>
    <line x1="3.4394398282203" y1="43.4394398282218" x2="3.75010000000009" y2="43.201061894325"/>
    <line x1="3.75010000000009" y1="43.201061894325" x2="4.11187143234621" y2="43.0512112605682"/>
    <line x1="6.00010000000017" y1="288.000099999992" x2="3.00010000000018" y2="288.000099999992"/>
    <line x1="3.00010000000018" y1="288.000099999992" x2="3.00010000000013" y2="268.000099999992"/>
    <line x1="3.00010000000013" y1="268.000099999992" x2="6.00010000000008" y2="268.000099999992"/>
    <line x1="6.00010000000008" y1="268.000099999992" x2="6.00010000000017" y2="288.000099999992"/>
    <line x1="6.00010000000008" y1="245.000099999992" x2="3.00010000000009" y2="245.000099999992"/>
    <line x1="3.00010000000009" y1="245.000099999992" x2="3.00010000000009" y2="225.000099999992"/>
    <line x1="3.00010000000009" y1="225.000099999992" x2="6.00010000000012" y2="225.000099999992"/>
    <line x1="6.00010000000012" y1="225.000099999992" x2="6.00010000000008" y2="245.000099999992"/>
    <line x1="4.11187143234617" y1="255.051211260558" x2="4.5001000000001" y2="255.000099999992"/>
    <line x1="4.5001000000001" y1="255.000099999992" x2="4.88832856765386" y2="255.051211260558"/>
    <line x1="4.88832856765386" y1="255.051211260558" x2="5.25010000000007" y2="255.201061894315"/>
    <line x1="5.25010000000007" y1="255.201061894315" x2="5.56076017177991" y2="255.439439828212"/>
    <line x1="5.56076017177991" y1="255.439439828212" x2="5.79913810567669" y2="255.750099999992"/>
    <line x1="5.79913810567669" y1="255.750099999992" x2="5.94898873943357" y2="256.111871432338"/>
    <line x1="5.94898873943357" y1="256.111871432338" x2="6.00010000000008" y2="256.500099999992"/>
    <line x1="6.00010000000008" y1="256.500099999992" x2="5.94898873943362" y2="256.888328567646"/>
    <line x1="5.94898873943362" y1="256.888328567646" x2="5.79913810567669" y2="257.250099999992"/>
    <line x1="5.79913810567669" y1="257.250099999992" x2="5.56076017177986" y2="257.560760171772"/>
    <line x1="5.56076017177986" y1="257.560760171772" x2="5.25010000000016" y2="257.799138105669"/>
    <line x1="5.25010000000016" y1="257.799138105669" x2="4.88832856765386" y2="257.948988739426"/>
    <line x1="4.88832856765386" y1="257.948988739426" x2="4.50010000000006" y2="258.000099999992"/>
    <line x1="4.50010000000006" y1="258.000099999992" x2="4.11187143234626" y2="257.948988739426"/>
    <line x1="4.11187143234626" y1="257.948988739426" x2="3.75010000000009" y2="257.799138105669"/>
    <line x1="3.75010000000009" y1="257.799138105669" x2="3.43943982822035" y2="257.560760171772"/>
    <line x1="3.43943982822035" y1="257.560760171772" x2="3.2010618943233" y2="257.250099999992"/>
    <line x1="3.2010618943233" y1="257.250099999992" x2="3.05121126056641" y2="256.888328567646"/>
    <line x1="3.05121126056641" y1="256.888328567646" x2="3.00010000000009" y2="256.500099999992"/>
    <line x1="3.00010000000009" y1="256.500099999992" x2="3.05121126056646" y2="256.111871432338"/>
    <line x1="3.05121126056646" y1="256.111871432338" x2="3.20106189432339" y2="255.750099999992"/>
    <line x1="3.20106189432339" y1="255.750099999992" x2="3.43943982822021" y2="255.439439828212"/>
    <line x1="3.43943982822021" y1="255.439439828212" x2="3.75010000000005" y2="255.201061894315"/>
    <line x1="3.75010000000005" y1="255.201061894315" x2="4.11187143234617" y2="255.051211260558"/>
    <line x1="260.0001" y1="268.000099999992" x2="263.0001" y2="268.000099999992"/>
    <line x1="263.0001" y1="268.000099999992" x2="263.0001" y2="288.000099999992"/>
    <line x1="263.0001" y1="288.000099999992" x2="260.0001" y2="288.000099999992"/>
    <line x1="260.0001" y1="288.000099999992" x2="260.0001" y2="268.000099999992"/>
    <line x1="260.0001" y1="225.000099999992" x2="263.0001" y2="225.000099999992"/>
    <line x1="263.0001" y1="225.000099999992" x2="263.0001" y2="245.000099999992"/>
    <line x1="263.0001" y1="245.000099999992" x2="260.0001" y2="245.000099999992"/>
    <line x1="260.0001" y1="245.000099999992" x2="260.0001" y2="225.000099999992"/>
    <line x1="261.111871432347" y1="255.051211260558" x2="261.5001" y2="255.000099999992"/>
    <line x1="261.5001" y1="255.000099999992" x2="261.888328567654" y2="255.051211260558"/>
    <line x1="261.888328567654" y1="255.051211260558" x2="262.2501" y2="255.201061894315"/>
    <line x1="262.2501" y1="255.201061894315" x2="262.56076017178" y2="255.439439828212"/>
    <line x1="262.56076017178" y1="255.439439828212" x2="262.799138105677" y2="255.750099999992"/>
    <line x1="262.799138105677" y1="255.750099999992" x2="262.948988739434" y2="256.111871432338"/>
    <line x1="262.948988739434" y1="256.111871432338" x2="263.0001" y2="256.500099999992"/>
    <line x1="263.0001" y1="256.500099999992" x2="262.948988739434" y2="256.888328567646"/>
    <line x1="262.948988739434" y1="256.888328567646" x2="262.799138105677" y2="257.250099999992"/>
    <line x1="262.799138105677" y1="257.250099999992" x2="262.56076017178" y2="257.560760171772"/>
    <line x1="262.56076017178" y1="257.560760171772" x2="262.2501" y2="257.799138105669"/>
    <line x1="262.2501" y1="257.799138105669" x2="261.888328567654" y2="257.948988739426"/>
    <line x1="261.888328567654" y1="257.948988739426" x2="261.5001" y2="258.000099999992"/>
    <line x1="261.5001" y1="258.000099999992" x2="261.111871432347" y2="257.948988739426"/>
    <line x1="261.111871432347" y1="257.948988739426" x2="260.7501" y2="257.799138105669"/>
    <line x1="260.7501" y1="257.799138105669" x2="260.43943982822" y2="257.560760171772"/>
    <line x1="260.43943982822" y1="257.560760171772" x2="260.201061894324" y2="257.250099999992"/>
    <line x1="260.201061894324" y1="257.250099999992" x2="260.051211260567" y2="256.888328567646"/>
    <line x1="260.051211260567" y1="256.888328567646" x2="260.0001" y2="256.500099999992"/>
    <line x1="260.0001" y1="256.500099999992" x2="260.051211260567" y2="256.111871432338"/>
    <line x1="260.051211260567" y1="256.111871432338" x2="260.201061894324" y2="255.750099999992"/>
    <line x1="260.201061894324" y1="255.750099999992" x2="260.43943982822" y2="255.439439828212"/>
    <line x1="260.43943982822" y1="255.439439828212" x2="260.7501" y2="255.201061894315"/>
    <line x1="260.7501" y1="255.201061894315" x2="261.111871432347" y2="255.051211260558"/>
    <line x1="263.0001" y1="76.0001000000018" x2="260.0001" y2="76.0001000000018"/>
    <line x1="260.0001" y1="76.0001000000018" x2="260.0001" y2="56.0001000000018"/>
    <line x1="260.0001" y1="56.0001000000018" x2="263.0001" y2="56.0001000000018"/>
    <line x1="263.0001" y1="56.0001000000018" x2="263.0001" y2="76.0001000000018"/>
    <line x1="263.0001" y1="33.0001000000018" x2="260.0001" y2="33.0001000000018"/>
    <line x1="260.0001" y1="33.0001000000018" x2="260.0001" y2="13.0001000000018"/>
    <line x1="260.0001" y1="13.0001000000018" x2="263.0001" y2="13.0001000000016"/>
    <line x1="263.0001" y1="13.0001000000016" x2="263.0001" y2="33.0001000000018"/>
    <line x1="261.111871432347" y1="43.0512112605682" x2="261.5001" y2="43.0001000000016"/>
    <line x1="261.5001" y1="43.0001000000016" x2="261.888328567654" y2="43.0512112605682"/>
    <line x1="261.888328567654" y1="43.0512112605682" x2="262.2501" y2="43.201061894325"/>
    <line x1="262.2501" y1="43.201061894325" x2="262.56076017178" y2="43.4394398282218"/>
    <line x1="262.56076017178" y1="43.4394398282218" x2="262.799138105677" y2="43.7501000000018"/>
    <line x1="262.799138105677" y1="43.7501000000018" x2="262.948988739434" y2="44.111871432348"/>
    <line x1="262.948988739434" y1="44.111871432348" x2="263.0001" y2="44.5001000000018"/>
    <line x1="263.0001" y1="44.5001000000018" x2="262.948988739434" y2="44.8883285676557"/>
    <line x1="262.948988739434" y1="44.8883285676557" x2="262.799138105677" y2="45.2501000000018"/>
    <line x1="262.799138105677" y1="45.2501000000018" x2="262.56076017178" y2="45.5607601717816"/>
    <line x1="262.56076017178" y1="45.5607601717816" x2="262.2501" y2="45.7991381056784"/>
    <line x1="262.2501" y1="45.7991381056784" x2="261.888328567654" y2="45.9489887394355"/>
    <line x1="261.888328567654" y1="45.9489887394355" x2="261.5001" y2="46.0001000000018"/>
    <line x1="261.5001" y1="46.0001000000018" x2="261.111871432347" y2="45.9489887394355"/>
    <line x1="261.111871432347" y1="45.9489887394355" x2="260.7501" y2="45.7991381056784"/>
    <line x1="260.7501" y1="45.7991381056784" x2="260.43943982822" y2="45.5607601717816"/>
    <line x1="260.43943982822" y1="45.5607601717816" x2="260.201061894324" y2="45.2501000000018"/>
    <line x1="260.201061894324" y1="45.2501000000018" x2="260.051211260567" y2="44.8883285676557"/>
    <line x1="260.051211260567" y1="44.8883285676557" x2="260.0001" y2="44.5001000000018"/>
    <line x1="260.0001" y1="44.5001000000018" x2="260.051211260567" y2="44.111871432348"/>
    <line x1="260.051211260567" y1="44.111871432348" x2="260.201061894324" y2="43.7501000000018"/>
    <line x1="260.201061894324" y1="43.7501000000018" x2="260.43943982822" y2="43.4394398282218"/>
    <line x1="260.43943982822" y1="43.4394398282218" x2="260.7501" y2="43.201061894325"/>
    <line x1="260.7501" y1="43.201061894325" x2="261.111871432347" y2="43.0512112605682"/>
    <line x1="219.458685248517" y1="287.468733174518" x2="239.458685248517" y2="287.468733174518"/>
    <line x1="239.458685248517" y1="287.468733174518" x2="239.458685248517" y2="291.046795045975"/>
    <line x1="239.458685248517" y1="291.046795045975" x2="219.458685248517" y2="291.046795045975"/>
    <line x1="219.458685248517" y1="291.046795045975" x2="219.458685248517" y2="287.468733174518"/>
    <line x1="26.8697357298038" y1="291.046795045975" x2="26.8697357298039" y2="287.736468302956"/>
    <line x1="26.8697357298039" y1="287.736468302956" x2="46.8697357298039" y2="287.736468302956"/>
    <line x1="46.8697357298039" y1="287.736468302956" x2="46.8697357298039" y2="291.046795045975"/>
    <line x1="46.8697357298039" y1="291.046795045975" x2="26.8697357298038" y2="291.046795045975"/>
    <line x1="219.458685248517" y1="89.5517277461682" x2="239.458685248517" y2="89.5517277461682"/>
    <line x1="239.458685248517" y1="89.5517277461682" x2="239.458685248517" y2="93.791171191881"/>
    <line x1="239.458685248517" y1="93.791171191881" x2="219.458685248517" y2="93.791171191881"/>
    <line x1="219.458685248517" y1="93.791171191881" x2="219.458685248517" y2="89.5517277461682"/>
    <line x1="26.5415147515162" y1="93.7911711918807" x2="26.5415147515162" y2="89.5517277461682"/>
    <line x1="26.5415147515162" y1="89.5517277461682" x2="46.5415147515162" y2="89.5517277461682"/>
    <line x1="46.5415147515162" y1="89.5517277461682" x2="46.5415147515162" y2="93.791171191881"/>
    <line x1="46.5415147515162" y1="93.791171191881" x2="26.5415147515162" y2="93.7911711918807"/>
  </g>
</svg>
