<?xml version="1.0" standalone="no"?>
<!DOCTYPE svg PUBLIC "-//W3C//DTD SVG 1.1//EN" "http://www.w3.org/Graphics/SVG/1.1/DTD/svg11.dtd">
<svg width="266.0002mm" height="301.000199999992mm"
 viewBox="0 0 266.0002 301.000199999992"
 xmlns="http://www.w3.org/2000/svg" version="1.1"
 xmlns:xlink="http://www.w3.org/1999/xlink">
<desc>Output from Flights of Ideas SVG Sketchup Plugin</desc>

  <g id="face0" fill="none" stroke="rgb(0,0,255)" stroke-width="1" stroke-miterlimit="4" stroke-dasharray="none" stroke-linejoin="round" stroke-linecap="round">
    <line x1="0.0001" y1="298.00009999999" x2="20.0001000000001" y2="298.00009999999"/>
    <line x1="20.0001000000001" y1="298.00009999999" x2="20.0001000000001" y2="296.00009999999"/>
    <line x1="20.0001000000001" y1="296.00009999999" x2="18.7001000000001" y2="296.00009999999"/>
    <line x1="18.7001000000001" y1="296.00009999999" x2="18.7001000000001" y2="293.80009999999"/>
    <line x1="18.7001000000001" y1="293.80009999999" x2="20.0001000000001" y2="293.80009999999"/>
    <line x1="20.0001000000001" y1="293.80009999999" x2="20.0001000000001" y2="290.80009999999"/>
    <line x1="20.0001000000001" y1="290.80009999999" x2="23.0001" y2="290.80009999999"/>
    <line x1="23.0001" y1="290.80009999999" x2="23.0001" y2="293.80009999999"/>
    <line x1="23.0001" y1="293.80009999999" x2="24.3001000000001" y2="293.80009999999"/>
    <line x1="24.3001000000001" y1="293.80009999999" x2="24.3001000000001" y2="296.00009999999"/>
    <line x1="24.3001000000001" y1="296.00009999999" x2="23.0001" y2="296.00009999999"/>
    <line x1="23.0001" y1="296.00009999999" x2="23.0001000000002" y2="298.00009999999"/>
    <line x1="23.0001000000002" y1="298.00009999999" x2="33.0001000000001" y2="298.00009999999"/>
    <line x1="33.0001000000001" y1="298.00009999999" x2="33.0001000000001" y2="301.00009999999"/>
    <line x1="33.0001000000001" y1="301.00009999999" x2="64.3087114515386" y2="301.00009999999"/>
    <line x1="64.3087114515386" y1="301.00009999999" x2="64.3087114515386" y2="298.00009999999"/>
    <line x1="64.3087114515386" y1="298.00009999999" x2="203.0001" y2="298.00009999999"/>
    <line x1="203.0001" y1="298.00009999999" x2="203.0001" y2="301.000099999989"/>
    <line x1="203.0001" y1="301.000099999989" x2="233.0001" y2="301.000099999992"/>
    <line x1="233.0001" y1="301.000099999992" x2="233.0001" y2="298.00009999999"/>
    <line x1="233.0001" y1="298.00009999999" x2="243.0001" y2="298.00009999999"/>
    <line x1="243.0001" y1="298.00009999999" x2="243.0001" y2="296.00009999999"/>
    <line x1="243.0001" y1="296.00009999999" x2="241.7001" y2="296.000099999987"/>
    <line x1="241.7001" y1="296.000099999987" x2="241.7001" y2="293.800099999989"/>
    <line x1="241.7001" y1="293.800099999989" x2="243.0001" y2="293.800099999991"/>
    <line x1="243.0001" y1="293.800099999991" x2="243.0001" y2="290.800099999991"/>
    <line x1="243.0001" y1="290.800099999991" x2="246.0001" y2="290.80009999999"/>
    <line x1="246.0001" y1="290.80009999999" x2="246.0001" y2="293.800099999991"/>
    <line x1="246.0001" y1="293.800099999991" x2="247.3001" y2="293.800099999991"/>
    <line x1="247.3001" y1="293.800099999991" x2="247.3001" y2="296.000099999992"/>
    <line x1="247.3001" y1="296.000099999992" x2="246.0001" y2="296.000099999989"/>
    <line x1="246.0001" y1="296.000099999989" x2="246.0001" y2="298.00009999999"/>
    <line x1="246.0001" y1="298.00009999999" x2="266.0001" y2="298.00009999999"/>
    <line x1="266.0001" y1="298.00009999999" x2="266.0001" y2="3.00009999999989"/>
    <line x1="266.0001" y1="3.00009999999989" x2="246.0001" y2="3.0001"/>
    <line x1="246.0001" y1="3.0001" x2="246.0001" y2="5.00009999999989"/>
    <line x1="246.0001" y1="5.00009999999989" x2="247.3001" y2="5.00009999999989"/>
    <line x1="247.3001" y1="5.00009999999989" x2="247.3001" y2="7.20009999999993"/>
    <line x1="247.3001" y1="7.20009999999993" x2="246.0001" y2="7.20009999999993"/>
    <line x1="246.0001" y1="7.20009999999993" x2="246.0001" y2="10.2001"/>
    <line x1="246.0001" y1="10.2001" x2="243.0001" y2="10.2000999999999"/>
    <line x1="243.0001" y1="10.2000999999999" x2="243.0001" y2="7.20009999999993"/>
    <line x1="243.0001" y1="7.20009999999993" x2="241.7001" y2="7.20009999999993"/>
    <line x1="241.7001" y1="7.20009999999993" x2="241.7001" y2="5.0001"/>
    <line x1="241.7001" y1="5.0001" x2="243.0001" y2="5.00009999999989"/>
    <line x1="243.0001" y1="5.00009999999989" x2="243.0001" y2="3.00009999999989"/>
    <line x1="243.0001" y1="3.00009999999989" x2="233.0001" y2="3.00009999999989"/>
    <line x1="233.0001" y1="3.00009999999989" x2="233.0001" y2="0.0001"/>
    <line x1="233.0001" y1="0.0001" x2="203.0001" y2="0.0001"/>
    <line x1="203.0001" y1="0.0001" x2="203.0001" y2="3.00009999999989"/>
    <line x1="203.0001" y1="3.00009999999989" x2="63.0001000000001" y2="3.00009999999989"/>
    <line x1="63.0001000000001" y1="3.00009999999989" x2="63.0001000000001" y2="0.0001"/>
    <line x1="63.0001000000001" y1="0.0001" x2="33.0001000000001" y2="0.0001"/>
    <line x1="33.0001000000001" y1="0.0001" x2="33.0001000000001" y2="3.00009999999989"/>
    <line x1="33.0001000000001" y1="3.00009999999989" x2="23.0001" y2="3.00009999999989"/>
    <line x1="23.0001" y1="3.00009999999989" x2="23.0001" y2="5.00009999999989"/>
    <line x1="23.0001" y1="5.00009999999989" x2="24.3001000000001" y2="5.00009999999989"/>
    <line x1="24.3001000000001" y1="5.00009999999989" x2="24.3001000000001" y2="7.20009999999993"/>
    <line x1="24.3001000000001" y1="7.20009999999993" x2="23.0001" y2="7.20009999999993"/>
    <line x1="23.0001" y1="7.20009999999993" x2="23.0001" y2="10.2000999999999"/>
    <line x1="23.0001" y1="10.2000999999999" x2="20.0001000000001" y2="10.2000999999999"/>
    <line x1="20.0001000000001" y1="10.2000999999999" x2="20.0001000000001" y2="7.20009999999993"/>
    <line x1="20.0001000000001" y1="7.20009999999993" x2="18.7001000000001" y2="7.20009999999993"/>
    <line x1="18.7001000000001" y1="7.20009999999993" x2="18.7001000000001" y2="5.00009999999989"/>
    <line x1="18.7001000000001" y1="5.00009999999989" x2="20.0001000000002" y2="5.00009999999989"/>
    <line x1="20.0001000000002" y1="5.00009999999989" x2="20.0001000000002" y2="3.00009999999989"/>
    <line x1="20.0001000000002" y1="3.00009999999989" x2="0.000100000000017764" y2="3.00009999999989"/>
    <line x1="0.000100000000017764" y1="3.00009999999989" x2="0.0001" y2="298.00009999999"/>
    <line x1="6.00010000000009" y1="23.0001" x2="6.00010000000011" y2="43.0000999999999"/>
    <line x1="6.00010000000011" y1="43.0000999999999" x2="3.00010000000006" y2="43.0000999999999"/>
    <line x1="3.00010000000006" y1="43.0000999999999" x2="3.00010000000006" y2="23.0001"/>
    <line x1="3.00010000000006" y1="23.0001" x2="6.00010000000009" y2="23.0001"/>
    <line x1="6.00010000000008" y1="86.0000999999999" x2="3.00010000000005" y2="86.0000999999999"/>
    <line x1="3.00010000000005" y1="86.0000999999999" x2="3.00010000000008" y2="66.0000999999999"/>
    <line x1="3.00010000000008" y1="66.0000999999999" x2="6.00010000000008" y2="66.0000999999999"/>
    <line x1="6.00010000000008" y1="66.0000999999999" x2="6.00010000000008" y2="86.0000999999999"/>
    <line x1="4.88832856765377" y1="55.9489887394335" x2="4.50010000000009" y2="56.0001"/>
    <line x1="4.50010000000009" y1="56.0001" x2="4.11187143234616" y2="55.9489887394335"/>
    <line x1="4.11187143234616" y1="55.9489887394335" x2="3.75010000000005" y2="55.7991381056766"/>
    <line x1="3.75010000000005" y1="55.7991381056766" x2="3.43943982822029" y2="55.5607601717799"/>
    <line x1="3.43943982822029" y1="55.5607601717799" x2="3.20106189432329" y2="55.2501"/>
    <line x1="3.20106189432329" y1="55.2501" x2="3.05121126056639" y2="54.8883285676538"/>
    <line x1="3.05121126056639" y1="54.8883285676538" x2="3.00010000000005" y2="54.5000999999999"/>
    <line x1="3.00010000000005" y1="54.5000999999999" x2="3.05121126056639" y2="54.1118714323461"/>
    <line x1="3.05121126056639" y1="54.1118714323461" x2="3.20106189432331" y2="53.7500999999999"/>
    <line x1="3.20106189432331" y1="53.7500999999999" x2="3.43943982822026" y2="53.4394398282201"/>
    <line x1="3.43943982822026" y1="53.4394398282201" x2="3.75010000000005" y2="53.2010618943233"/>
    <line x1="3.75010000000005" y1="53.2010618943233" x2="4.11187143234618" y2="53.0512112605664"/>
    <line x1="4.11187143234618" y1="53.0512112605664" x2="4.50010000000009" y2="53.0000999999999"/>
    <line x1="4.50010000000009" y1="53.0000999999999" x2="4.88832856765378" y2="53.0512112605664"/>
    <line x1="4.88832856765378" y1="53.0512112605664" x2="5.25010000000011" y2="53.2010618943233"/>
    <line x1="5.25010000000011" y1="53.2010618943233" x2="5.56076017177985" y2="53.4394398282201"/>
    <line x1="5.56076017177985" y1="53.4394398282201" x2="5.79913810567664" y2="53.7500999999999"/>
    <line x1="5.79913810567664" y1="53.7500999999999" x2="5.94898873943377" y2="54.1118714323461"/>
    <line x1="5.94898873943377" y1="54.1118714323461" x2="6.00010000000009" y2="54.5000999999999"/>
    <line x1="6.00010000000009" y1="54.5000999999999" x2="5.94898873943376" y2="54.8883285676538"/>
    <line x1="5.94898873943376" y1="54.8883285676538" x2="5.79913810567668" y2="55.2501"/>
    <line x1="5.79913810567668" y1="55.2501" x2="5.56076017177988" y2="55.5607601717799"/>
    <line x1="5.56076017177988" y1="55.5607601717799" x2="5.25010000000009" y2="55.7991381056766"/>
    <line x1="5.25010000000009" y1="55.7991381056766" x2="4.88832856765377" y2="55.9489887394335"/>
    <line x1="3.00010000000004" y1="278.00009999999" x2="3.00010000000004" y2="258.00009999999"/>
    <line x1="3.00010000000004" y1="258.00009999999" x2="6.00010000000008" y2="258.00009999999"/>
    <line x1="6.00010000000008" y1="258.00009999999" x2="6.00010000000008" y2="278.00009999999"/>
    <line x1="6.00010000000008" y1="278.00009999999" x2="3.00010000000004" y2="278.00009999999"/>
    <line x1="4.88832856765378" y1="247.948988739424" x2="4.50010000000006" y2="248.00009999999"/>
    <line x1="4.50010000000006" y1="248.00009999999" x2="4.11187143234617" y2="247.948988739424"/>
    <line x1="4.11187143234617" y1="247.948988739424" x2="3.75010000000005" y2="247.799138105667"/>
    <line x1="3.75010000000005" y1="247.799138105667" x2="3.43943982822027" y2="247.56076017177"/>
    <line x1="3.43943982822027" y1="247.56076017177" x2="3.20106189432329" y2="247.25009999999"/>
    <line x1="3.20106189432329" y1="247.25009999999" x2="3.05121126056637" y2="246.888328567644"/>
    <line x1="3.05121126056637" y1="246.888328567644" x2="3.00010000000004" y2="246.50009999999"/>
    <line x1="3.00010000000004" y1="246.50009999999" x2="3.05121126056637" y2="246.111871432337"/>
    <line x1="3.05121126056637" y1="246.111871432337" x2="3.2010618943233" y2="245.75009999999"/>
    <line x1="3.2010618943233" y1="245.75009999999" x2="3.43943982822026" y2="245.43943982821"/>
    <line x1="3.43943982822026" y1="245.43943982821" x2="3.75010000000005" y2="245.201061894314"/>
    <line x1="3.75010000000005" y1="245.201061894314" x2="4.11187143234617" y2="245.051211260557"/>
    <line x1="4.11187143234617" y1="245.051211260557" x2="4.50010000000006" y2="245.00009999999"/>
    <line x1="4.50010000000006" y1="245.00009999999" x2="4.88832856765377" y2="245.051211260557"/>
    <line x1="4.88832856765377" y1="245.051211260557" x2="5.25010000000007" y2="245.201061894314"/>
    <line x1="5.25010000000007" y1="245.201061894314" x2="5.56076017177986" y2="245.43943982821"/>
    <line x1="5.56076017177986" y1="245.43943982821" x2="5.79913810567665" y2="245.75009999999"/>
    <line x1="5.79913810567665" y1="245.75009999999" x2="5.94898873943357" y2="246.111871432337"/>
    <line x1="5.94898873943357" y1="246.111871432337" x2="6.00010000000008" y2="246.50009999999"/>
    <line x1="6.00010000000008" y1="246.50009999999" x2="5.94898873943357" y2="246.888328567644"/>
    <line x1="5.94898873943357" y1="246.888328567644" x2="5.79913810567664" y2="247.25009999999"/>
    <line x1="5.79913810567664" y1="247.25009999999" x2="5.56076017177986" y2="247.56076017177"/>
    <line x1="5.56076017177986" y1="247.56076017177" x2="5.25010000000008" y2="247.799138105667"/>
    <line x1="5.25010000000008" y1="247.799138105667" x2="4.88832856765378" y2="247.948988739424"/>
    <line x1="3.00010000000004" y1="235.00009999999" x2="3.00010000000003" y2="215.00009999999"/>
    <line x1="3.00010000000003" y1="215.00009999999" x2="6.00010000000009" y2="215.00009999999"/>
    <line x1="6.00010000000009" y1="215.00009999999" x2="6.00010000000009" y2="235.00009999999"/>
    <line x1="6.00010000000009" y1="235.00009999999" x2="3.00010000000004" y2="235.00009999999"/>
    <line x1="260.0001" y1="278.00009999999" x2="260.0001" y2="258.00009999999"/>
    <line x1="260.0001" y1="258.00009999999" x2="263.0001" y2="258.00009999999"/>
    <line x1="263.0001" y1="258.00009999999" x2="263.0001" y2="278.000099999991"/>
    <line x1="263.0001" y1="278.000099999991" x2="260.0001" y2="278.00009999999"/>
    <line x1="260.0001" y1="235.000099999991" x2="260.0001" y2="215.00009999999"/>
    <line x1="260.0001" y1="215.00009999999" x2="263.0001" y2="215.00009999999"/>
    <line x1="263.0001" y1="215.00009999999" x2="263.0001" y2="235.00009999999"/>
    <line x1="263.0001" y1="235.00009999999" x2="260.0001" y2="235.000099999991"/>
    <line x1="261.888328567654" y1="247.948988739424" x2="261.5001" y2="248.00009999999"/>
    <line x1="261.5001" y1="248.00009999999" x2="261.111871432347" y2="247.948988739424"/>
    <line x1="261.111871432347" y1="247.948988739424" x2="260.7501" y2="247.799138105667"/>
    <line x1="260.7501" y1="247.799138105667" x2="260.43943982822" y2="247.56076017177"/>
    <line x1="260.43943982822" y1="247.56076017177" x2="260.201061894324" y2="247.25009999999"/>
    <line x1="260.201061894324" y1="247.25009999999" x2="260.051211260567" y2="246.888328567644"/>
    <line x1="260.051211260567" y1="246.888328567644" x2="260.0001" y2="246.50009999999"/>
    <line x1="260.0001" y1="246.50009999999" x2="260.051211260567" y2="246.111871432337"/>
    <line x1="260.051211260567" y1="246.111871432337" x2="260.201061894324" y2="245.75009999999"/>
    <line x1="260.201061894324" y1="245.75009999999" x2="260.43943982822" y2="245.43943982821"/>
    <line x1="260.43943982822" y1="245.43943982821" x2="260.7501" y2="245.201061894314"/>
    <line x1="260.7501" y1="245.201061894314" x2="261.111871432347" y2="245.051211260557"/>
    <line x1="261.111871432347" y1="245.051211260557" x2="261.5001" y2="245.00009999999"/>
    <line x1="261.5001" y1="245.00009999999" x2="261.888328567654" y2="245.051211260557"/>
    <line x1="261.888328567654" y1="245.051211260557" x2="262.2501" y2="245.201061894314"/>
    <line x1="262.2501" y1="245.201061894314" x2="262.56076017178" y2="245.43943982821"/>
    <line x1="262.56076017178" y1="245.43943982821" x2="262.799138105677" y2="245.75009999999"/>
    <line x1="262.799138105677" y1="245.75009999999" x2="262.948988739434" y2="246.111871432337"/>
    <line x1="262.948988739434" y1="246.111871432337" x2="263.0001" y2="246.50009999999"/>
    <line x1="263.0001" y1="246.50009999999" x2="262.948988739434" y2="246.888328567644"/>
    <line x1="262.948988739434" y1="246.888328567644" x2="262.799138105677" y2="247.25009999999"/>
    <line x1="262.799138105677" y1="247.25009999999" x2="262.56076017178" y2="247.56076017177"/>
    <line x1="262.56076017178" y1="247.56076017177" x2="262.2501" y2="247.799138105667"/>
    <line x1="262.2501" y1="247.799138105667" x2="261.888328567654" y2="247.948988739424"/>
    <line x1="260.0001" y1="86.0000999999999" x2="260.0001" y2="66.0000999999999"/>
    <line x1="260.0001" y1="66.0000999999999" x2="263.0001" y2="66.0000999999999"/>
    <line x1="263.0001" y1="66.0000999999999" x2="263.0001" y2="86.0000999999999"/>
    <line x1="263.0001" y1="86.0000999999999" x2="260.0001" y2="86.0000999999999"/>
    <line x1="260.0001" y1="43.0000999999999" x2="260.0001" y2="23.0001"/>
    <line x1="260.0001" y1="23.0001" x2="263.0001" y2="23.0001"/>
    <line x1="263.0001" y1="23.0001" x2="263.0001" y2="43.0000999999999"/>
    <line x1="263.0001" y1="43.0000999999999" x2="260.0001" y2="43.0000999999999"/>
    <line x1="261.888328567654" y1="55.9489887394335" x2="261.5001" y2="56.0001"/>
    <line x1="261.5001" y1="56.0001" x2="261.111871432347" y2="55.9489887394335"/>
    <line x1="261.111871432347" y1="55.9489887394335" x2="260.7501" y2="55.7991381056766"/>
    <line x1="260.7501" y1="55.7991381056766" x2="260.43943982822" y2="55.5607601717799"/>
    <line x1="260.43943982822" y1="55.5607601717799" x2="260.201061894324" y2="55.2501"/>
    <line x1="260.201061894324" y1="55.2501" x2="260.051211260567" y2="54.8883285676538"/>
    <line x1="260.051211260567" y1="54.8883285676538" x2="260.0001" y2="54.5000999999999"/>
    <line x1="260.0001" y1="54.5000999999999" x2="260.051211260567" y2="54.1118714323461"/>
    <line x1="260.051211260567" y1="54.1118714323461" x2="260.201061894324" y2="53.7501"/>
    <line x1="260.201061894324" y1="53.7501" x2="260.43943982822" y2="53.43943982822"/>
    <line x1="260.43943982822" y1="53.43943982822" x2="260.7501" y2="53.2010618943233"/>
    <line x1="260.7501" y1="53.2010618943233" x2="261.111871432347" y2="53.0512112605664"/>
    <line x1="261.111871432347" y1="53.0512112605664" x2="261.5001" y2="53.0000999999999"/>
    <line x1="261.5001" y1="53.0000999999999" x2="261.888328567654" y2="53.0512112605664"/>
    <line x1="261.888328567654" y1="53.0512112605664" x2="262.2501" y2="53.2010618943233"/>
    <line x1="262.2501" y1="53.2010618943233" x2="262.56076017178" y2="53.4394398282201"/>
    <line x1="262.56076017178" y1="53.4394398282201" x2="262.799138105677" y2="53.7500999999999"/>
    <line x1="262.799138105677" y1="53.7500999999999" x2="262.948988739434" y2="54.1118714323461"/>
    <line x1="262.948988739434" y1="54.1118714323461" x2="263.0001" y2="54.5000999999999"/>
    <line x1="263.0001" y1="54.5000999999999" x2="262.948988739434" y2="54.8883285676538"/>
    <line x1="262.948988739434" y1="54.8883285676538" x2="262.799138105677" y2="55.2501"/>
    <line x1="262.799138105677" y1="55.2501" x2="262.56076017178" y2="55.5607601717799"/>
    <line x1="262.56076017178" y1="55.5607601717799" x2="262.2501" y2="55.7991381056766"/>
    <line x1="262.2501" y1="55.7991381056766" x2="261.888328567654" y2="55.9489887394335"/>
  </g>
</svg>
