<?xml version="1.0" standalone="no"?>
<!DOCTYPE svg PUBLIC "-//W3C//DTD SVG 1.1//EN" "http://www.w3.org/Graphics/SVG/1.1/DTD/svg11.dtd">
<svg width="422.000200000087mm" height="270.000199999996mm"
 viewBox="0 0 422.000200000087 270.000199999996"
 xmlns="http://www.w3.org/2000/svg" version="1.1"
 xmlns:xlink="http://www.w3.org/1999/xlink">
<desc>Output from Flights of Ideas SVG Sketchup Plugin</desc>

  <g id="face0" fill="none" stroke="rgb(0,0,255)" stroke-width="1" stroke-miterlimit="4" stroke-dasharray="none" stroke-linejoin="round" stroke-linecap="round">
    <line x1="422.000100000087" y1="270.000099999996" x2="422.000100000087" y2="0.0001"/>
    <line x1="422.000100000087" y1="0.0001" x2="0.0001" y2="0.0001"/>
    <line x1="0.0001" y1="0.0001" x2="0.0001" y2="270.000099999996"/>
    <line x1="0.0001" y1="270.000099999996" x2="422.000100000087" y2="270.000099999996"/>
    <line x1="6.00009999998261" y1="247.000099999995" x2="3.00009999999523" y2="247.000099999996"/>
    <line x1="3.00009999999523" y1="247.000099999996" x2="3.00009999999523" y2="222.000099999997"/>
    <line x1="3.00009999999523" y1="222.000099999997" x2="6.00009999998261" y2="222.000099999996"/>
    <line x1="6.00009999998261" y1="222.000099999996" x2="6.00009999998261" y2="247.000099999995"/>
    <line x1="3.00009999997806" y1="172.000099999996" x2="6.00009999996635" y2="172.000099999996"/>
    <line x1="6.00009999996635" y1="172.000099999996" x2="6.00009999996635" y2="197.000099999996"/>
    <line x1="6.00009999996635" y1="197.000099999996" x2="3.00009999997806" y2="197.000099999996"/>
    <line x1="3.00009999997806" y1="197.000099999996" x2="3.00009999997806" y2="172.000099999996"/>
    <line x1="6.00010000001455" y1="101.927884692058" x2="6.00010000001455" y2="126.927884692058"/>
    <line x1="6.00010000001455" y1="126.927884692058" x2="3.00009999995043" y2="126.927884692058"/>
    <line x1="3.00009999995043" y1="126.927884692058" x2="3.00009999995043" y2="101.927884692058"/>
    <line x1="3.00009999995043" y1="101.927884692058" x2="6.00010000001455" y2="101.927884692058"/>
    <line x1="3.00009999993747" y1="51.9278846920579" x2="6.00010000007628" y2="51.9278846920579"/>
    <line x1="6.00010000007628" y1="51.9278846920579" x2="6.00010000007628" y2="76.9278846920579"/>
    <line x1="6.00010000007628" y1="76.9278846920579" x2="3.00009999993759" y2="76.9278846920579"/>
    <line x1="3.00009999993759" y1="76.9278846920579" x2="3.00009999993747" y2="51.9278846920579"/>
    <line x1="4.8883285676608" y1="41.8767734314916" x2="4.50010000000693" y2="41.9278846920579"/>
    <line x1="4.50010000000693" y1="41.9278846920579" x2="4.11187143235307" y2="41.8767734314916"/>
    <line x1="4.11187143235307" y1="41.8767734314916" x2="3.75010000000694" y2="41.7269227977347"/>
    <line x1="3.75010000000694" y1="41.7269227977347" x2="3.43943982822693" y2="41.4885448638379"/>
    <line x1="3.43943982822693" y1="41.4885448638379" x2="3.20106189433013" y2="41.1778846920579"/>
    <line x1="3.20106189433013" y1="41.1778846920579" x2="3.05121126057329" y2="40.8161132597118"/>
    <line x1="3.05121126057329" y1="40.8161132597118" x2="3.00010000000694" y2="40.4278846920579"/>
    <line x1="3.00010000000694" y1="40.4278846920579" x2="3.05121126057329" y2="40.039656124404"/>
    <line x1="3.05121126057329" y1="40.039656124404" x2="3.20106189433013" y2="39.6778846920581"/>
    <line x1="3.20106189433013" y1="39.6778846920581" x2="3.43943982822716" y2="39.3672245202779"/>
    <line x1="3.43943982822716" y1="39.3672245202779" x2="3.75010000000694" y2="39.1288465863813"/>
    <line x1="3.75010000000694" y1="39.1288465863813" x2="4.11187143235284" y2="38.9789959526243"/>
    <line x1="4.11187143235284" y1="38.9789959526243" x2="4.50010000000693" y2="38.9278846920579"/>
    <line x1="4.50010000000693" y1="38.9278846920579" x2="4.8883285676608" y2="38.9789959526245"/>
    <line x1="4.8883285676608" y1="38.9789959526245" x2="5.25010000000693" y2="39.1288465863811"/>
    <line x1="5.25010000000693" y1="39.1288465863811" x2="5.56076017178659" y2="39.3672245202781"/>
    <line x1="5.56076017178659" y1="39.3672245202781" x2="5.79913810568373" y2="39.6778846920581"/>
    <line x1="5.79913810568373" y1="39.6778846920581" x2="5.94898873944069" y2="40.039656124404"/>
    <line x1="5.94898873944069" y1="40.039656124404" x2="6.00010000000693" y2="40.4278846920579"/>
    <line x1="6.00010000000693" y1="40.4278846920579" x2="5.94898873944069" y2="40.8161132597116"/>
    <line x1="5.94898873944069" y1="40.8161132597116" x2="5.79913810568373" y2="41.1778846920579"/>
    <line x1="5.79913810568373" y1="41.1778846920579" x2="5.56076017178659" y2="41.4885448638379"/>
    <line x1="5.56076017178659" y1="41.4885448638379" x2="5.25010000000693" y2="41.7269227977347"/>
    <line x1="5.25010000000693" y1="41.7269227977347" x2="4.8883285676608" y2="41.8767734314916"/>
    <line x1="4.88832856762602" y1="150.94898873943" x2="4.50009999997226" y2="151.000099999996"/>
    <line x1="4.50009999997226" y1="151.000099999996" x2="4.11187143231839" y2="150.94898873943"/>
    <line x1="4.11187143231839" y1="150.94898873943" x2="3.75009999997215" y2="150.799138105673"/>
    <line x1="3.75009999997215" y1="150.799138105673" x2="3.43943982819226" y2="150.560760171776"/>
    <line x1="3.43943982819226" y1="150.560760171776" x2="3.20106189429557" y2="150.250099999997"/>
    <line x1="3.20106189429557" y1="150.250099999997" x2="3.05121126053862" y2="149.88832856765"/>
    <line x1="3.05121126053862" y1="149.88832856765" x2="3.00009999997226" y2="149.500099999996"/>
    <line x1="3.00009999997226" y1="149.500099999996" x2="3.05121126053862" y2="149.111871432342"/>
    <line x1="3.05121126053862" y1="149.111871432342" x2="3.20106189429557" y2="148.750099999996"/>
    <line x1="3.20106189429557" y1="148.750099999996" x2="3.43943982819226" y2="148.439439828217"/>
    <line x1="3.43943982819226" y1="148.439439828217" x2="3.75009999997215" y2="148.20106189432"/>
    <line x1="3.75009999997215" y1="148.20106189432" x2="4.11187143231839" y2="148.051211260562"/>
    <line x1="4.11187143231839" y1="148.051211260562" x2="4.50009999997226" y2="148.000099999996"/>
    <line x1="4.50009999997226" y1="148.000099999996" x2="4.88832856762602" y2="148.051211260562"/>
    <line x1="4.88832856762602" y1="148.051211260562" x2="5.25009999997215" y2="148.20106189432"/>
    <line x1="5.25009999997215" y1="148.20106189432" x2="5.56076017175215" y2="148.439439828217"/>
    <line x1="5.56076017175215" y1="148.439439828217" x2="5.79913810564883" y2="148.750099999996"/>
    <line x1="5.79913810564883" y1="148.750099999996" x2="5.94898873940579" y2="149.111871432342"/>
    <line x1="5.94898873940579" y1="149.111871432342" x2="6.00009999997226" y2="149.500099999996"/>
    <line x1="6.00009999997226" y1="149.500099999996" x2="5.94898873940579" y2="149.88832856765"/>
    <line x1="5.94898873940579" y1="149.88832856765" x2="5.79913810564872" y2="150.250099999997"/>
    <line x1="5.79913810564872" y1="150.250099999997" x2="5.56076017175215" y2="150.560760171776"/>
    <line x1="5.56076017175215" y1="150.560760171776" x2="5.25009999997215" y2="150.799138105673"/>
    <line x1="5.25009999997215" y1="150.799138105673" x2="4.88832856762602" y2="150.94898873943"/>
    <line x1="4.11187143233499" y1="257.051211260564" x2="4.50009999998886" y2="257.000099999996"/>
    <line x1="4.50009999998886" y1="257.000099999996" x2="4.88832856764284" y2="257.051211260565"/>
    <line x1="4.88832856764284" y1="257.051211260565" x2="5.25009999998886" y2="257.201061894319"/>
    <line x1="5.25009999998886" y1="257.201061894319" x2="5.56076017176875" y2="257.439439828217"/>
    <line x1="5.56076017176875" y1="257.439439828217" x2="5.79913810566566" y2="257.750099999998"/>
    <line x1="5.79913810566566" y1="257.750099999998" x2="5.94898873942261" y2="258.11187143234"/>
    <line x1="5.94898873942261" y1="258.11187143234" x2="6.00009999998886" y2="258.500099999996"/>
    <line x1="6.00009999998886" y1="258.500099999996" x2="5.94898873942261" y2="258.888328567649"/>
    <line x1="5.94898873942261" y1="258.888328567649" x2="5.79913810566566" y2="259.250099999997"/>
    <line x1="5.79913810566566" y1="259.250099999997" x2="5.56076017176875" y2="259.560760171777"/>
    <line x1="5.56076017176875" y1="259.560760171777" x2="5.25009999998886" y2="259.799138105672"/>
    <line x1="5.25009999998886" y1="259.799138105672" x2="4.88832856764284" y2="259.948988739429"/>
    <line x1="4.88832856764284" y1="259.948988739429" x2="4.50009999998886" y2="260.000099999996"/>
    <line x1="4.50009999998886" y1="260.000099999996" x2="4.11187143233499" y2="259.948988739432"/>
    <line x1="4.11187143233499" y1="259.948988739432" x2="3.75009999998886" y2="259.799138105673"/>
    <line x1="3.75009999998886" y1="259.799138105673" x2="3.43943982820909" y2="259.560760171778"/>
    <line x1="3.43943982820909" y1="259.560760171778" x2="3.20106189431217" y2="259.250099999996"/>
    <line x1="3.20106189431217" y1="259.250099999996" x2="3.05121126055522" y2="258.888328567649"/>
    <line x1="3.05121126055522" y1="258.888328567649" x2="3.00009999998886" y2="258.500099999996"/>
    <line x1="3.00009999998886" y1="258.500099999996" x2="3.05121126055522" y2="258.11187143234"/>
    <line x1="3.05121126055522" y1="258.11187143234" x2="3.20106189431217" y2="257.750099999997"/>
    <line x1="3.20106189431217" y1="257.750099999997" x2="3.43943982820909" y2="257.439439828214"/>
    <line x1="3.43943982820909" y1="257.439439828214" x2="3.75009999998886" y2="257.20106189432"/>
    <line x1="3.75009999998886" y1="257.20106189432" x2="4.11187143233499" y2="257.051211260564"/>
    <line x1="417.500100000087" y1="257.0001" x2="417.888328567741" y2="257.051211260566"/>
    <line x1="417.888328567741" y1="257.051211260566" x2="418.250100000087" y2="257.201061894323"/>
    <line x1="418.250100000087" y1="257.201061894323" x2="418.560760171867" y2="257.43943982822"/>
    <line x1="418.560760171867" y1="257.43943982822" x2="418.799138105764" y2="257.7501"/>
    <line x1="418.799138105764" y1="257.7501" x2="418.948988739521" y2="258.111871432346"/>
    <line x1="418.948988739521" y1="258.111871432346" x2="419.000100000087" y2="258.5001"/>
    <line x1="419.000100000087" y1="258.5001" x2="418.948988739521" y2="258.888328567653"/>
    <line x1="418.948988739521" y1="258.888328567653" x2="418.799138105764" y2="259.2501"/>
    <line x1="418.799138105764" y1="259.2501" x2="418.560760171867" y2="259.56076017178"/>
    <line x1="418.560760171867" y1="259.56076017178" x2="418.250100000087" y2="259.799138105676"/>
    <line x1="418.250100000087" y1="259.799138105676" x2="417.888328567741" y2="259.948988739433"/>
    <line x1="417.888328567741" y1="259.948988739433" x2="417.500100000087" y2="260.0001"/>
    <line x1="417.500100000087" y1="260.0001" x2="417.111871432433" y2="259.948988739433"/>
    <line x1="417.111871432433" y1="259.948988739433" x2="416.750100000087" y2="259.799138105677"/>
    <line x1="416.750100000087" y1="259.799138105677" x2="416.439439828307" y2="259.56076017178"/>
    <line x1="416.439439828307" y1="259.56076017178" x2="416.201061894411" y2="259.2501"/>
    <line x1="416.201061894411" y1="259.2501" x2="416.051211260654" y2="258.888328567654"/>
    <line x1="416.051211260654" y1="258.888328567654" x2="416.000100000087" y2="258.5001"/>
    <line x1="416.000100000087" y1="258.5001" x2="416.051211260654" y2="258.111871432346"/>
    <line x1="416.051211260654" y1="258.111871432346" x2="416.201061894411" y2="257.7501"/>
    <line x1="416.201061894411" y1="257.7501" x2="416.439439828307" y2="257.43943982822"/>
    <line x1="416.439439828307" y1="257.43943982822" x2="416.750100000087" y2="257.201061894323"/>
    <line x1="416.750100000087" y1="257.201061894323" x2="417.111871432433" y2="257.051211260566"/>
    <line x1="417.111871432433" y1="257.051211260566" x2="417.500100000087" y2="257.0001"/>
    <line x1="417.500100000085" y1="151.0001" x2="417.111871432431" y2="150.948988739433"/>
    <line x1="417.111871432431" y1="150.948988739433" x2="416.750100000085" y2="150.799138105676"/>
    <line x1="416.750100000085" y1="150.799138105676" x2="416.439439828305" y2="150.56076017178"/>
    <line x1="416.439439828305" y1="150.56076017178" x2="416.201061894409" y2="150.2501"/>
    <line x1="416.201061894409" y1="150.2501" x2="416.051211260651" y2="149.888328567654"/>
    <line x1="416.051211260651" y1="149.888328567654" x2="416.000100000085" y2="149.5001"/>
    <line x1="416.000100000085" y1="149.5001" x2="416.051211260651" y2="149.111871432346"/>
    <line x1="416.051211260651" y1="149.111871432346" x2="416.201061894409" y2="148.7501"/>
    <line x1="416.201061894409" y1="148.7501" x2="416.439439828305" y2="148.43943982822"/>
    <line x1="416.439439828305" y1="148.43943982822" x2="416.750100000085" y2="148.201061894323"/>
    <line x1="416.750100000085" y1="148.201061894323" x2="417.111871432431" y2="148.051211260566"/>
    <line x1="417.111871432431" y1="148.051211260566" x2="417.500100000085" y2="148.0001"/>
    <line x1="417.500100000085" y1="148.0001" x2="417.888328567739" y2="148.051211260566"/>
    <line x1="417.888328567739" y1="148.051211260566" x2="418.250100000085" y2="148.201061894323"/>
    <line x1="418.250100000085" y1="148.201061894323" x2="418.560760171865" y2="148.43943982822"/>
    <line x1="418.560760171865" y1="148.43943982822" x2="418.799138105762" y2="148.7501"/>
    <line x1="418.799138105762" y1="148.7501" x2="418.948988739519" y2="149.111871432346"/>
    <line x1="418.948988739519" y1="149.111871432346" x2="419.000100000085" y2="149.5001"/>
    <line x1="419.000100000085" y1="149.5001" x2="418.948988739519" y2="149.888328567654"/>
    <line x1="418.948988739519" y1="149.888328567654" x2="418.799138105762" y2="150.2501"/>
    <line x1="418.799138105762" y1="150.2501" x2="418.560760171865" y2="150.56076017178"/>
    <line x1="418.560760171865" y1="150.56076017178" x2="418.250100000085" y2="150.799138105676"/>
    <line x1="418.250100000085" y1="150.799138105676" x2="417.888328567739" y2="150.948988739433"/>
    <line x1="417.888328567739" y1="150.948988739433" x2="417.500100000085" y2="151.0001"/>
    <line x1="417.500100000081" y1="41.9278846920616" x2="417.111871432428" y2="41.876773431495"/>
    <line x1="417.111871432428" y1="41.876773431495" x2="416.750100000082" y2="41.7269227977381"/>
    <line x1="416.750100000082" y1="41.7269227977381" x2="416.439439828302" y2="41.4885448638413"/>
    <line x1="416.439439828302" y1="41.4885448638413" x2="416.201061894405" y2="41.1778846920618"/>
    <line x1="416.201061894405" y1="41.1778846920618" x2="416.051211260648" y2="40.8161132597152"/>
    <line x1="416.051211260648" y1="40.8161132597152" x2="416.000100000082" y2="40.4278846920616"/>
    <line x1="416.000100000082" y1="40.4278846920616" x2="416.051211260648" y2="40.0396561244077"/>
    <line x1="416.051211260648" y1="40.0396561244077" x2="416.201061894405" y2="39.6778846920616"/>
    <line x1="416.201061894405" y1="39.6778846920616" x2="416.439439828302" y2="39.3672245202818"/>
    <line x1="416.439439828302" y1="39.3672245202818" x2="416.750100000082" y2="39.1288465863848"/>
    <line x1="416.750100000082" y1="39.1288465863848" x2="417.111871432428" y2="38.9789959526279"/>
    <line x1="417.111871432428" y1="38.9789959526279" x2="417.500100000082" y2="38.9278846920616"/>
    <line x1="417.500100000082" y1="38.9278846920616" x2="417.888328567735" y2="38.9789959526279"/>
    <line x1="417.888328567735" y1="38.9789959526279" x2="418.250100000082" y2="39.1288465863848"/>
    <line x1="418.250100000082" y1="39.1288465863848" x2="418.560760171861" y2="39.3672245202818"/>
    <line x1="418.560760171861" y1="39.3672245202818" x2="418.799138105758" y2="39.6778846920616"/>
    <line x1="418.799138105758" y1="39.6778846920616" x2="418.948988739515" y2="40.0396561244077"/>
    <line x1="418.948988739515" y1="40.0396561244077" x2="419.000100000082" y2="40.4278846920616"/>
    <line x1="419.000100000082" y1="40.4278846920616" x2="418.948988739515" y2="40.8161132597152"/>
    <line x1="418.948988739515" y1="40.8161132597152" x2="418.799138105758" y2="41.1778846920616"/>
    <line x1="418.799138105758" y1="41.1778846920616" x2="418.560760171861" y2="41.4885448638413"/>
    <line x1="418.560760171861" y1="41.4885448638413" x2="418.250100000082" y2="41.7269227977384"/>
    <line x1="418.250100000082" y1="41.7269227977384" x2="417.888328567735" y2="41.876773431495"/>
    <line x1="417.888328567735" y1="41.876773431495" x2="417.500100000081" y2="41.9278846920616"/>
    <line x1="416.000100000077" y1="51.9278846920616" x2="419.000100000087" y2="51.9278846920616"/>
    <line x1="419.000100000087" y1="51.9278846920616" x2="419.000100000087" y2="76.9278846920616"/>
    <line x1="419.000100000087" y1="76.9278846920616" x2="416.000100000077" y2="76.9278846920616"/>
    <line x1="416.000100000077" y1="76.9278846920616" x2="416.000100000077" y2="51.9278846920616"/>
    <line x1="419.000100000087" y1="101.927884692062" x2="419.000100000087" y2="126.927884692062"/>
    <line x1="419.000100000087" y1="126.927884692062" x2="416.00010000008" y2="126.927884692062"/>
    <line x1="416.00010000008" y1="126.927884692062" x2="416.00010000008" y2="101.927884692062"/>
    <line x1="416.00010000008" y1="101.927884692062" x2="419.000100000087" y2="101.927884692062"/>
    <line x1="419.000100000087" y1="172.0001" x2="419.000100000087" y2="197.0001"/>
    <line x1="419.000100000087" y1="197.0001" x2="416.000100000084" y2="197.0001"/>
    <line x1="416.000100000084" y1="197.0001" x2="416.000100000084" y2="172.0001"/>
    <line x1="416.000100000084" y1="172.0001" x2="419.000100000087" y2="172.0001"/>
    <line x1="419.000100000087" y1="222.0001" x2="419.000100000087" y2="247.0001"/>
    <line x1="419.000100000087" y1="247.0001" x2="416.000100000087" y2="247.0001"/>
    <line x1="416.000100000087" y1="247.0001" x2="416.000100000087" y2="222.0001"/>
    <line x1="416.000100000087" y1="222.0001" x2="419.000100000087" y2="222.0001"/>
    <line x1="416.000100000001" y1="3.00009999999659" x2="416.000100000001" y2="6.00009999999659"/>
    <line x1="416.000100000001" y1="6.00009999999659" x2="396.000100000001" y2="6.00009999999659"/>
    <line x1="396.000100000001" y1="6.00009999999659" x2="396.0001" y2="3.00009999999659"/>
    <line x1="396.0001" y1="3.00009999999659" x2="416.000100000001" y2="3.00009999999659"/>
    <line x1="373.000100000001" y1="6.00009999999659" x2="343.000100000001" y2="6.00009999999659"/>
    <line x1="343.000100000001" y1="6.00009999999659" x2="343.000100000001" y2="3.00009999999659"/>
    <line x1="343.000100000001" y1="3.00009999999659" x2="373.000100000001" y2="3.00009999999659"/>
    <line x1="373.000100000001" y1="3.00009999999659" x2="373.000100000001" y2="6.00009999999659"/>
    <line x1="313.000100000001" y1="6.00009999999659" x2="283.000100000001" y2="6.00009999999659"/>
    <line x1="283.000100000001" y1="6.00009999999659" x2="283.000100000001" y2="3.00009999999659"/>
    <line x1="283.000100000001" y1="3.00009999999659" x2="313.000100000001" y2="3.00009999999659"/>
    <line x1="313.000100000001" y1="3.00009999999659" x2="313.000100000001" y2="6.00009999999659"/>
    <line x1="383.051211260567" y1="4.88832856765046" x2="383.000100000001" y2="4.50009999999682"/>
    <line x1="383.000100000001" y1="4.50009999999682" x2="383.051211260567" y2="4.11187143234272"/>
    <line x1="383.051211260567" y1="4.11187143234272" x2="383.201061894324" y2="3.75009999999682"/>
    <line x1="383.201061894324" y1="3.75009999999682" x2="383.439439828221" y2="3.43943982821682"/>
    <line x1="383.439439828221" y1="3.43943982821682" x2="383.7501" y2="3.20106189432024"/>
    <line x1="383.7501" y1="3.20106189432024" x2="384.111871432347" y2="3.05121126056295"/>
    <line x1="384.111871432347" y1="3.05121126056295" x2="384.500100000001" y2="3.00009999999682"/>
    <line x1="384.500100000001" y1="3.00009999999682" x2="384.888328567655" y2="3.05121126056318"/>
    <line x1="384.888328567655" y1="3.05121126056318" x2="385.250100000001" y2="3.20106189432002"/>
    <line x1="385.250100000001" y1="3.20106189432002" x2="385.56076017178" y2="3.43943982821682"/>
    <line x1="385.56076017178" y1="3.43943982821682" x2="385.799138105677" y2="3.75009999999682"/>
    <line x1="385.799138105677" y1="3.75009999999682" x2="385.948988739434" y2="4.11187143234272"/>
    <line x1="385.948988739434" y1="4.11187143234272" x2="386.000100000001" y2="4.50009999999682"/>
    <line x1="386.000100000001" y1="4.50009999999682" x2="385.948988739434" y2="4.88832856765046"/>
    <line x1="385.948988739434" y1="4.88832856765046" x2="385.799138105677" y2="5.25009999999682"/>
    <line x1="385.799138105677" y1="5.25009999999682" x2="385.56076017178" y2="5.56076017177659"/>
    <line x1="385.56076017178" y1="5.56076017177659" x2="385.250100000001" y2="5.79913810567339"/>
    <line x1="385.250100000001" y1="5.79913810567339" x2="384.888328567655" y2="5.94898873943023"/>
    <line x1="384.888328567655" y1="5.94898873943023" x2="384.500100000001" y2="6.00009999999682"/>
    <line x1="384.500100000001" y1="6.00009999999682" x2="384.111871432347" y2="5.94898873943023"/>
    <line x1="384.111871432347" y1="5.94898873943023" x2="383.7501" y2="5.79913810567339"/>
    <line x1="383.7501" y1="5.79913810567339" x2="383.439439828221" y2="5.56076017177659"/>
    <line x1="383.439439828221" y1="5.56076017177659" x2="383.201061894324" y2="5.25009999999682"/>
    <line x1="383.201061894324" y1="5.25009999999682" x2="383.051211260567" y2="4.88832856765046"/>
    <line x1="212.448988739434" y1="4.11187143234272" x2="212.500100000001" y2="4.50009999999682"/>
    <line x1="212.500100000001" y1="4.50009999999682" x2="212.448988739434" y2="4.88832856765046"/>
    <line x1="212.448988739434" y1="4.88832856765046" x2="212.299138105677" y2="5.25009999999682"/>
    <line x1="212.299138105677" y1="5.25009999999682" x2="212.060760171781" y2="5.56076017177659"/>
    <line x1="212.060760171781" y1="5.56076017177659" x2="211.750100000001" y2="5.79913810567339"/>
    <line x1="211.750100000001" y1="5.79913810567339" x2="211.388328567654" y2="5.94898873943023"/>
    <line x1="211.388328567654" y1="5.94898873943023" x2="211.000100000001" y2="6.00009999999682"/>
    <line x1="211.000100000001" y1="6.00009999999682" x2="210.611871432347" y2="5.94898873943023"/>
    <line x1="210.611871432347" y1="5.94898873943023" x2="210.2501" y2="5.79913810567339"/>
    <line x1="210.2501" y1="5.79913810567339" x2="209.939439828221" y2="5.56076017177659"/>
    <line x1="209.939439828221" y1="5.56076017177659" x2="209.701061894324" y2="5.25009999999682"/>
    <line x1="209.701061894324" y1="5.25009999999682" x2="209.551211260567" y2="4.88832856765046"/>
    <line x1="209.551211260567" y1="4.88832856765046" x2="209.500100000001" y2="4.50009999999682"/>
    <line x1="209.500100000001" y1="4.50009999999682" x2="209.551211260567" y2="4.11187143234272"/>
    <line x1="209.551211260567" y1="4.11187143234272" x2="209.701061894324" y2="3.75009999999682"/>
    <line x1="209.701061894324" y1="3.75009999999682" x2="209.939439828221" y2="3.43943982821704"/>
    <line x1="209.939439828221" y1="3.43943982821704" x2="210.250100000001" y2="3.20106189432002"/>
    <line x1="210.250100000001" y1="3.20106189432002" x2="210.611871432347" y2="3.05121126056318"/>
    <line x1="210.611871432347" y1="3.05121126056318" x2="211.000100000001" y2="3.00009999999682"/>
    <line x1="211.000100000001" y1="3.00009999999682" x2="211.388328567654" y2="3.05121126056318"/>
    <line x1="211.388328567654" y1="3.05121126056318" x2="211.750100000001" y2="3.20106189432002"/>
    <line x1="211.750100000001" y1="3.20106189432002" x2="212.06076017178" y2="3.43943982821704"/>
    <line x1="212.06076017178" y1="3.43943982821704" x2="212.299138105677" y2="3.75009999999682"/>
    <line x1="212.299138105677" y1="3.75009999999682" x2="212.448988739434" y2="4.11187143234272"/>
    <line x1="109.000100000001" y1="3.00009999999659" x2="139.000100000001" y2="3.00009999999659"/>
    <line x1="139.000100000001" y1="3.00009999999659" x2="139.000100000001" y2="6.00009999999659"/>
    <line x1="139.000100000001" y1="6.00009999999659" x2="109.000100000001" y2="6.00009999999659"/>
    <line x1="109.000100000001" y1="6.00009999999659" x2="109.000100000001" y2="3.00009999999659"/>
    <line x1="79.0001000000005" y1="3.00009999999682" x2="79.0001000000006" y2="6.00009999999682"/>
    <line x1="79.0001000000006" y1="6.00009999999682" x2="49.0001000000008" y2="6.00009999999659"/>
    <line x1="49.0001000000008" y1="6.00009999999659" x2="49.0001000000008" y2="3.00009999999659"/>
    <line x1="49.0001000000008" y1="3.00009999999659" x2="79.0001000000005" y2="3.00009999999682"/>
    <line x1="6.00010000000068" y1="6.00009999999613" x2="6.00010000000045" y2="3.00009999999659"/>
    <line x1="6.00010000000045" y1="3.00009999999659" x2="26.0001000000005" y2="3.00009999999659"/>
    <line x1="26.0001000000005" y1="3.00009999999659" x2="26.0001000000006" y2="6.00009999999659"/>
    <line x1="26.0001000000006" y1="6.00009999999659" x2="6.00010000000068" y2="6.00009999999613"/>
    <line x1="36.051211260567" y1="4.88832856765069" x2="36.0001000000007" y2="4.50009999999682"/>
    <line x1="36.0001000000007" y1="4.50009999999682" x2="36.0512112605669" y2="4.11187143234318"/>
    <line x1="36.0512112605669" y1="4.11187143234318" x2="36.2010618943239" y2="3.75009999999682"/>
    <line x1="36.2010618943239" y1="3.75009999999682" x2="36.4394398282208" y2="3.43943982821704"/>
    <line x1="36.4394398282208" y1="3.43943982821704" x2="36.7501000000006" y2="3.20106189432024"/>
    <line x1="36.7501000000006" y1="3.20106189432024" x2="37.1118714323468" y2="3.05121126056318"/>
    <line x1="37.1118714323468" y1="3.05121126056318" x2="37.5001000000007" y2="3.00009999999682"/>
    <line x1="37.5001000000007" y1="3.00009999999682" x2="37.8883285676544" y2="3.05121126056318"/>
    <line x1="37.8883285676544" y1="3.05121126056318" x2="38.2501000000006" y2="3.20106189432024"/>
    <line x1="38.2501000000006" y1="3.20106189432024" x2="38.5607601717805" y2="3.43943982821682"/>
    <line x1="38.5607601717805" y1="3.43943982821682" x2="38.7991381056771" y2="3.75009999999682"/>
    <line x1="38.7991381056771" y1="3.75009999999682" x2="38.948988739434" y2="4.11187143234295"/>
    <line x1="38.948988739434" y1="4.11187143234295" x2="39.0001000000006" y2="4.50009999999682"/>
    <line x1="39.0001000000006" y1="4.50009999999682" x2="38.9489887394341" y2="4.88832856765069"/>
    <line x1="38.9489887394341" y1="4.88832856765069" x2="38.7991381056773" y2="5.25009999999682"/>
    <line x1="38.7991381056773" y1="5.25009999999682" x2="38.5607601717805" y2="5.56076017177682"/>
    <line x1="38.5607601717805" y1="5.56076017177682" x2="38.2501000000006" y2="5.79913810567362"/>
    <line x1="38.2501000000006" y1="5.79913810567362" x2="37.8883285676544" y2="5.94898873943046"/>
    <line x1="37.8883285676544" y1="5.94898873943046" x2="37.5001000000006" y2="6.00009999999682"/>
    <line x1="37.5001000000006" y1="6.00009999999682" x2="37.1118714323468" y2="5.94898873943046"/>
    <line x1="37.1118714323468" y1="5.94898873943046" x2="36.7501000000007" y2="5.79913810567339"/>
    <line x1="36.7501000000007" y1="5.79913810567339" x2="36.4394398282208" y2="5.56076017177682"/>
    <line x1="36.4394398282208" y1="5.56076017177682" x2="36.2010618943239" y2="5.25009999999682"/>
    <line x1="36.2010618943239" y1="5.25009999999682" x2="36.051211260567" y2="4.88832856765069"/>
  </g>
</svg>
