<?xml version="1.0" standalone="no"?>
<!DOCTYPE svg PUBLIC "-//W3C//DTD SVG 1.1//EN" "http://www.w3.org/Graphics/SVG/1.1/DTD/svg11.dtd">
<svg width="410.0002mm" height="14.1948308753016mm"
 viewBox="0 0 410.0002 14.1948308753016"
 xmlns="http://www.w3.org/2000/svg" version="1.1"
 xmlns:xlink="http://www.w3.org/1999/xlink">
<desc>Output from Flights of Ideas SVG Sketchup Plugin</desc>

  <g id="face0" fill="none" stroke="rgb(0,0,255)" stroke-width="1" stroke-miterlimit="4" stroke-dasharray="none" stroke-linejoin="round" stroke-linecap="round">
    <line x1="277.0001" y1="3.00010000000091" x2="206.5001" y2="3.00010000000091"/>
    <line x1="206.5001" y1="3.00010000000091" x2="206.5001" y2="5.00010000000102"/>
    <line x1="206.5001" y1="5.00010000000102" x2="207.8001" y2="5.00010000000057"/>
    <line x1="207.8001" y1="5.00010000000057" x2="207.8001" y2="7.20010000000095"/>
    <line x1="207.8001" y1="7.20010000000095" x2="206.5001" y2="7.20010000000084"/>
    <line x1="206.5001" y1="7.20010000000084" x2="206.5001" y2="10.2001000000008"/>
    <line x1="206.5001" y1="10.2001000000008" x2="203.5001" y2="10.2001000000008"/>
    <line x1="203.5001" y1="10.2001000000008" x2="203.5001" y2="7.20010000000095"/>
    <line x1="203.5001" y1="7.20010000000095" x2="202.2001" y2="7.20010000000095"/>
    <line x1="202.2001" y1="7.20010000000095" x2="202.2001" y2="5.00010000000102"/>
    <line x1="202.2001" y1="5.00010000000102" x2="203.5001" y2="5.00010000000102"/>
    <line x1="203.5001" y1="5.00010000000102" x2="203.5001" y2="3.00010000000091"/>
    <line x1="203.5001" y1="3.00010000000091" x2="133.0001" y2="3.00010000000091"/>
    <line x1="133.0001" y1="3.00010000000091" x2="133.0001" y2="0.000100000000113687"/>
    <line x1="133.0001" y1="0.000100000000113687" x2="103.0001" y2="0.000100000002046363"/>
    <line x1="103.0001" y1="0.000100000002046363" x2="103.0001" y2="3.00010000000091"/>
    <line x1="103.0001" y1="3.00010000000091" x2="73.0001000000002" y2="3.00010000000091"/>
    <line x1="73.0001000000002" y1="3.00010000000091" x2="73.0001000000002" y2="0.000100000003524292"/>
    <line x1="73.0001000000002" y1="0.000100000003524292" x2="43.0001000000001" y2="0.000100000002387424"/>
    <line x1="43.0001000000001" y1="0.000100000002387424" x2="43.0001000000001" y2="3.00010000000091"/>
    <line x1="43.0001000000001" y1="3.00010000000091" x2="33.0001000000001" y2="3.00010000000091"/>
    <line x1="33.0001000000001" y1="3.00010000000091" x2="33.0001000000001" y2="5.00010000000023"/>
    <line x1="33.0001000000001" y1="5.00010000000023" x2="34.3001" y2="5.00009999999875"/>
    <line x1="34.3001" y1="5.00009999999875" x2="34.3001" y2="7.20010000000141"/>
    <line x1="34.3001" y1="7.20010000000141" x2="33.0001000000001" y2="7.20010000000186"/>
    <line x1="33.0001000000001" y1="7.20010000000186" x2="33.0001000000001" y2="10.2001000000016"/>
    <line x1="33.0001000000001" y1="10.2001000000016" x2="30.0001000000002" y2="10.2001000000003"/>
    <line x1="30.0001000000002" y1="10.2001000000003" x2="30.0001000000002" y2="7.20010000000243"/>
    <line x1="30.0001000000002" y1="7.20010000000243" x2="28.7001000000002" y2="7.20010000000016"/>
    <line x1="28.7001000000002" y1="7.20010000000016" x2="28.7001000000002" y2="5.00010000000443"/>
    <line x1="28.7001000000002" y1="5.00010000000443" x2="30.0001000000002" y2="5.00010000000114"/>
    <line x1="30.0001000000002" y1="5.00010000000114" x2="30.0001000000002" y2="3.00010000000091"/>
    <line x1="30.0001000000002" y1="3.00010000000091" x2="20.0001" y2="3.00010000000091"/>
    <line x1="20.0001" y1="3.00010000000091" x2="20.0001" y2="0.00010000000250111"/>
    <line x1="20.0001" y1="0.00010000000250111" x2="0.000100000000227374" y2="0.0001"/>
    <line x1="0.000100000000227374" y1="0.0001" x2="0.0001" y2="4.29473087528904"/>
    <line x1="0.0001" y1="4.29473087528904" x2="7.33695684773741" y2="4.29473087530064"/>
    <line x1="7.33695684773741" y1="4.29473087530064" x2="7.33695684772843" y2="14.1947308753016"/>
    <line x1="7.33695684772843" y1="14.1947308753016" x2="402.9001" y2="14.1947308752971"/>
    <line x1="402.9001" y1="14.1947308752971" x2="402.9001" y2="4.30010000000064"/>
    <line x1="402.9001" y1="4.30010000000064" x2="410.0001" y2="4.30009999999927"/>
    <line x1="410.0001" y1="4.30009999999927" x2="410.0001" y2="0.000100000002046363"/>
    <line x1="410.0001" y1="0.000100000002046363" x2="390.0001" y2="0.000100000000909495"/>
    <line x1="390.0001" y1="0.000100000000909495" x2="390.0001" y2="3.00010000000091"/>
    <line x1="390.0001" y1="3.00010000000091" x2="380.0001" y2="3.00010000000091"/>
    <line x1="380.0001" y1="3.00010000000091" x2="380.0001" y2="5.00010000000045"/>
    <line x1="380.0001" y1="5.00010000000045" x2="381.3001" y2="5.00010000000182"/>
    <line x1="381.3001" y1="5.00010000000182" x2="381.3001" y2="7.20010000000061"/>
    <line x1="381.3001" y1="7.20010000000061" x2="380.0001" y2="7.20010000000095"/>
    <line x1="380.0001" y1="7.20010000000095" x2="380.0001" y2="10.2001000000008"/>
    <line x1="380.0001" y1="10.2001000000008" x2="377.0001" y2="10.2001000000012"/>
    <line x1="377.0001" y1="10.2001000000012" x2="377.0001" y2="7.20010000000141"/>
    <line x1="377.0001" y1="7.20010000000141" x2="375.7001" y2="7.20010000000118"/>
    <line x1="375.7001" y1="7.20010000000118" x2="375.7001" y2="5.00010000000068"/>
    <line x1="375.7001" y1="5.00010000000068" x2="377.0001" y2="5.00010000000091"/>
    <line x1="377.0001" y1="5.00010000000091" x2="377.0001" y2="3.00010000000091"/>
    <line x1="377.0001" y1="3.00010000000091" x2="367.0001" y2="3.00010000000091"/>
    <line x1="367.0001" y1="3.00010000000091" x2="367.0001" y2="0.000100000001250555"/>
    <line x1="367.0001" y1="0.000100000001250555" x2="337.0001" y2="0.000100000001136868"/>
    <line x1="337.0001" y1="0.000100000001136868" x2="337.0001" y2="3.00010000000091"/>
    <line x1="337.0001" y1="3.00010000000091" x2="307.0001" y2="3.00010000000091"/>
    <line x1="307.0001" y1="3.00010000000091" x2="307.0001" y2="0.000100000000909495"/>
    <line x1="307.0001" y1="0.000100000000909495" x2="277.0001" y2="0.000100000000909495"/>
    <line x1="277.0001" y1="0.000100000000909495" x2="277.0001" y2="3.00010000000091"/>
  </g>
</svg>
