<?xml version="1.0" standalone="no"?>
<!DOCTYPE svg PUBLIC "-//W3C//DTD SVG 1.1//EN" "http://www.w3.org/Graphics/SVG/1.1/DTD/svg11.dtd">
<svg width="326.000200000003mm" height="270.0002mm"
 viewBox="0 0 326.000200000003 270.0002"
 xmlns="http://www.w3.org/2000/svg" version="1.1"
 xmlns:xlink="http://www.w3.org/1999/xlink">
<desc>Output from Flights of Ideas SVG Sketchup Plugin</desc>

  <g id="face0" fill="none" stroke="rgb(0,0,255)" stroke-width="1" stroke-miterlimit="4" stroke-dasharray="none" stroke-linejoin="round" stroke-linecap="round">
    <line x1="323.000100000003" y1="51.9278846920618" x2="323.000100000004" y2="41.9278846920618"/>
    <line x1="323.000100000004" y1="41.9278846920618" x2="320.000100000004" y2="41.9278846920618"/>
    <line x1="320.000100000004" y1="41.9278846920618" x2="320.000100000004" y2="43.227884692062"/>
    <line x1="320.000100000004" y1="43.227884692062" x2="317.800100000003" y2="43.227884692062"/>
    <line x1="317.800100000003" y1="43.227884692062" x2="317.800100000003" y2="41.9278846920618"/>
    <line x1="317.800100000003" y1="41.9278846920618" x2="315.800100000004" y2="41.9278846920618"/>
    <line x1="315.800100000004" y1="41.9278846920618" x2="315.800100000004" y2="38.9278846920618"/>
    <line x1="315.800100000004" y1="38.9278846920618" x2="317.800100000003" y2="38.9278846920618"/>
    <line x1="317.800100000003" y1="38.9278846920618" x2="317.800100000003" y2="37.6278846920621"/>
    <line x1="317.800100000003" y1="37.6278846920621" x2="320.000100000004" y2="37.6278846920621"/>
    <line x1="320.000100000004" y1="37.6278846920621" x2="320.000100000004" y2="38.9278846920618"/>
    <line x1="320.000100000004" y1="38.9278846920618" x2="323.000100000004" y2="38.9278846920618"/>
    <line x1="323.000100000004" y1="38.9278846920618" x2="323.000100000004" y2="18.9278846920618"/>
    <line x1="323.000100000004" y1="18.9278846920618" x2="303.000100000004" y2="18.9278846920618"/>
    <line x1="303.000100000004" y1="18.9278846920618" x2="303.000100000004" y2="8.5001"/>
    <line x1="303.000100000004" y1="8.5001" x2="323.000100000004" y2="8.5001"/>
    <line x1="323.000100000004" y1="8.5001" x2="323.0001" y2="0.0001"/>
    <line x1="323.0001" y1="0.0001" x2="3.0001" y2="0.0001"/>
    <line x1="3.0001" y1="0.0001" x2="3.00010000000182" y2="8.5001"/>
    <line x1="3.00010000000182" y1="8.5001" x2="23.0001000000002" y2="8.5001"/>
    <line x1="23.0001000000002" y1="8.5001" x2="23.0001000000002" y2="18.9278846920613"/>
    <line x1="23.0001000000002" y1="18.9278846920613" x2="3.00010000000182" y2="18.9278846920613"/>
    <line x1="3.00010000000182" y1="18.9278846920613" x2="3.00010000000148" y2="38.9278846920627"/>
    <line x1="3.00010000000148" y1="38.9278846920627" x2="5.00010000000171" y2="38.9278846920613"/>
    <line x1="5.00010000000171" y1="38.9278846920613" x2="5.00010000000171" y2="37.6278846920616"/>
    <line x1="5.00010000000171" y1="37.6278846920616" x2="7.20010000000164" y2="37.6278846920616"/>
    <line x1="7.20010000000164" y1="37.6278846920616" x2="7.20010000000164" y2="38.9278846920609"/>
    <line x1="7.20010000000164" y1="38.9278846920609" x2="10.2001000000016" y2="38.9278846920627"/>
    <line x1="10.2001000000016" y1="38.9278846920627" x2="10.2001000000016" y2="41.9278846920631"/>
    <line x1="10.2001000000016" y1="41.9278846920631" x2="7.20010000000164" y2="41.9278846920627"/>
    <line x1="7.20010000000164" y1="41.9278846920627" x2="7.20010000000164" y2="43.2278846920615"/>
    <line x1="7.20010000000164" y1="43.2278846920615" x2="5.00010000000171" y2="43.2278846920633"/>
    <line x1="5.00010000000171" y1="43.2278846920633" x2="5.00010000000171" y2="41.9278846920627"/>
    <line x1="5.00010000000171" y1="41.9278846920627" x2="3.00010000000148" y2="41.9278846920604"/>
    <line x1="3.00010000000148" y1="41.9278846920604" x2="3.00010000000148" y2="51.9278846920618"/>
    <line x1="3.00010000000148" y1="51.9278846920618" x2="0.000100000001477929" y2="51.9278846920618"/>
    <line x1="0.000100000001477929" y1="51.9278846920618" x2="0.000100000001477929" y2="76.9278846920622"/>
    <line x1="0.000100000001477929" y1="76.9278846920622" x2="3.00010000000148" y2="76.9278846920618"/>
    <line x1="3.00010000000148" y1="76.9278846920618" x2="3.00010000000114" y2="101.927884692062"/>
    <line x1="3.00010000000114" y1="101.927884692062" x2="0.000100000001023182" y2="101.927884692062"/>
    <line x1="0.000100000001023182" y1="101.927884692062" x2="0.000100000001023182" y2="126.927884692062"/>
    <line x1="0.000100000001023182" y1="126.927884692062" x2="3.00010000000114" y2="126.927884692062"/>
    <line x1="3.00010000000114" y1="126.927884692062" x2="3.00010000000114" y2="148.0001"/>
    <line x1="3.00010000000114" y1="148.0001" x2="5.00010000000102" y2="148.0001"/>
    <line x1="5.00010000000102" y1="148.0001" x2="5.00010000000102" y2="146.7001"/>
    <line x1="5.00010000000102" y1="146.7001" x2="7.20010000000084" y2="146.7001"/>
    <line x1="7.20010000000084" y1="146.7001" x2="7.20010000000084" y2="148.0001"/>
    <line x1="7.20010000000084" y1="148.0001" x2="10.200100000001" y2="148.0001"/>
    <line x1="10.200100000001" y1="148.0001" x2="10.200100000001" y2="151.0001"/>
    <line x1="10.200100000001" y1="151.0001" x2="7.20010000000084" y2="151.0001"/>
    <line x1="7.20010000000084" y1="151.0001" x2="7.20010000000084" y2="152.3001"/>
    <line x1="7.20010000000084" y1="152.3001" x2="5.00010000000102" y2="152.3001"/>
    <line x1="5.00010000000102" y1="152.3001" x2="5.00010000000102" y2="151.0001"/>
    <line x1="5.00010000000102" y1="151.0001" x2="3.00010000000114" y2="151.0001"/>
    <line x1="3.00010000000114" y1="151.0001" x2="3.0001000000008" y2="172.0001"/>
    <line x1="3.0001000000008" y1="172.0001" x2="0.000100000000682121" y2="172.0001"/>
    <line x1="0.000100000000682121" y1="172.0001" x2="0.000100000000682121" y2="197.0001"/>
    <line x1="0.000100000000682121" y1="197.0001" x2="3.00010000000091" y2="197.0001"/>
    <line x1="3.00010000000091" y1="197.0001" x2="3.00010000000034" y2="222.0001"/>
    <line x1="3.00010000000034" y1="222.0001" x2="0.000100000000113687" y2="222.0001"/>
    <line x1="0.000100000000113687" y1="222.0001" x2="0.0001" y2="247.0001"/>
    <line x1="0.0001" y1="247.0001" x2="3.00010000000023" y2="247.0001"/>
    <line x1="3.00010000000023" y1="247.0001" x2="3.0001" y2="257.0001"/>
    <line x1="3.0001" y1="257.0001" x2="5.00009999999989" y2="257.0001"/>
    <line x1="5.00009999999989" y1="257.0001" x2="5.00009999999989" y2="255.7001"/>
    <line x1="5.00009999999989" y1="255.7001" x2="7.20010000000016" y2="255.7001"/>
    <line x1="7.20010000000016" y1="255.7001" x2="7.20010000000016" y2="257.0001"/>
    <line x1="7.20010000000016" y1="257.0001" x2="10.2001000000002" y2="257.0001"/>
    <line x1="10.2001000000002" y1="257.0001" x2="10.2001000000002" y2="260.0001"/>
    <line x1="10.2001000000002" y1="260.0001" x2="7.20010000000016" y2="260.0001"/>
    <line x1="7.20010000000016" y1="260.0001" x2="7.20010000000016" y2="261.3001"/>
    <line x1="7.20010000000016" y1="261.3001" x2="5.00009999999989" y2="261.3001"/>
    <line x1="5.00009999999989" y1="261.3001" x2="5.00009999999989" y2="260.0001"/>
    <line x1="5.00009999999989" y1="260.0001" x2="3.0001" y2="260.0001"/>
    <line x1="3.0001" y1="260.0001" x2="3.0001" y2="270.0001"/>
    <line x1="3.0001" y1="270.0001" x2="323.0001" y2="270.0001"/>
    <line x1="323.0001" y1="270.0001" x2="323.0001" y2="260.0001"/>
    <line x1="323.0001" y1="260.0001" x2="320.0001" y2="260.0001"/>
    <line x1="320.0001" y1="260.0001" x2="320.0001" y2="261.3001"/>
    <line x1="320.0001" y1="261.3001" x2="317.8001" y2="261.3001"/>
    <line x1="317.8001" y1="261.3001" x2="317.8001" y2="260.0001"/>
    <line x1="317.8001" y1="260.0001" x2="315.8001" y2="260.0001"/>
    <line x1="315.8001" y1="260.0001" x2="315.8001" y2="257.0001"/>
    <line x1="315.8001" y1="257.0001" x2="317.8001" y2="257.0001"/>
    <line x1="317.8001" y1="257.0001" x2="317.8001" y2="255.7001"/>
    <line x1="317.8001" y1="255.7001" x2="320.0001" y2="255.7001"/>
    <line x1="320.0001" y1="255.7001" x2="320.0001" y2="257.0001"/>
    <line x1="320.0001" y1="257.0001" x2="323.0001" y2="257.0001"/>
    <line x1="323.0001" y1="257.0001" x2="323.0001" y2="247.0001"/>
    <line x1="323.0001" y1="247.0001" x2="326.0001" y2="247.0001"/>
    <line x1="326.0001" y1="247.0001" x2="326.000100000001" y2="222.0001"/>
    <line x1="326.000100000001" y1="222.0001" x2="323.000100000001" y2="222.0001"/>
    <line x1="323.000100000001" y1="222.0001" x2="323.000100000001" y2="197.0001"/>
    <line x1="323.000100000001" y1="197.0001" x2="326.000100000001" y2="197.0001"/>
    <line x1="326.000100000001" y1="197.0001" x2="326.000100000001" y2="172.0001"/>
    <line x1="326.000100000001" y1="172.0001" x2="323.000100000001" y2="172.0001"/>
    <line x1="323.000100000001" y1="172.0001" x2="323.000100000002" y2="151.0001"/>
    <line x1="323.000100000002" y1="151.0001" x2="320.000100000002" y2="151.0001"/>
    <line x1="320.000100000002" y1="151.0001" x2="320.000100000002" y2="152.3001"/>
    <line x1="320.000100000002" y1="152.3001" x2="317.800100000002" y2="152.3001"/>
    <line x1="317.800100000002" y1="152.3001" x2="317.800100000002" y2="151.0001"/>
    <line x1="317.800100000002" y1="151.0001" x2="315.800100000002" y2="151.0001"/>
    <line x1="315.800100000002" y1="151.0001" x2="315.800100000002" y2="148.0001"/>
    <line x1="315.800100000002" y1="148.0001" x2="317.800100000002" y2="148.0001"/>
    <line x1="317.800100000002" y1="148.0001" x2="317.800100000002" y2="146.7001"/>
    <line x1="317.800100000002" y1="146.7001" x2="320.000100000002" y2="146.7001"/>
    <line x1="320.000100000002" y1="146.7001" x2="320.000100000002" y2="148.0001"/>
    <line x1="320.000100000002" y1="148.0001" x2="323.000100000002" y2="148.0001"/>
    <line x1="323.000100000002" y1="148.0001" x2="323.000100000002" y2="126.927884692062"/>
    <line x1="323.000100000002" y1="126.927884692062" x2="326.000100000002" y2="126.927884692062"/>
    <line x1="326.000100000002" y1="126.927884692062" x2="326.000100000003" y2="101.927884692062"/>
    <line x1="326.000100000003" y1="101.927884692062" x2="323.000100000003" y2="101.927884692062"/>
    <line x1="323.000100000003" y1="101.927884692062" x2="323.000100000003" y2="76.9278846920618"/>
    <line x1="323.000100000003" y1="76.9278846920618" x2="326.000100000003" y2="76.9278846920618"/>
    <line x1="326.000100000003" y1="76.9278846920618" x2="326.000100000003" y2="51.9278846920618"/>
    <line x1="326.000100000003" y1="51.9278846920618" x2="323.000100000003" y2="51.9278846920618"/>
    <line x1="283.000100000004" y1="18.9278846920618" x2="243.000100000004" y2="18.9278846920618"/>
    <line x1="243.000100000004" y1="18.9278846920618" x2="243.000100000004" y2="8.50010000000136"/>
    <line x1="243.000100000004" y1="8.50010000000136" x2="283.000100000004" y2="8.50010000000091"/>
    <line x1="283.000100000004" y1="8.50010000000091" x2="283.000100000004" y2="18.9278846920618"/>
    <line x1="83.0001000000002" y1="8.5001" x2="83.0001000000002" y2="18.9278846920622"/>
    <line x1="83.0001000000002" y1="18.9278846920622" x2="43.0001" y2="18.9278846920622"/>
    <line x1="43.0001" y1="18.9278846920622" x2="43.0001000000003" y2="8.5001"/>
    <line x1="43.0001000000003" y1="8.5001" x2="83.0001000000002" y2="8.5001"/>
    <line x1="203.000100000004" y1="18.9278846920618" x2="123.0001" y2="18.9278846920618"/>
    <line x1="123.0001" y1="18.9278846920618" x2="123.0001" y2="8.50009999999"/>
    <line x1="123.0001" y1="8.50009999999" x2="203.0001" y2="8.50009999999"/>
    <line x1="203.0001" y1="8.50009999999" x2="203.000100000004" y2="18.9278846920618"/>
  </g>
</svg>
