<svg id="svg" version="1.1" xmlns="http://www.w3.org/2000/svg" xmlns:xlink="http://www.w3.org/1999/xlink" width="400" height="400" viewBox="0, 0, 400,400"><g id="svgg"><path id="path0" d="M22.000 1.200 C 22.000 2.313,21.895 2.400,20.546 2.400 C 17.546 2.400,16.122 3.145,15.251 5.171 C 14.268 7.456,13.429 8.222,11.539 8.560 C 10.526 8.741,9.760 9.239,9.040 10.184 C 8.468 10.933,7.649 11.657,7.220 11.794 C 6.791 11.930,6.042 12.707,5.556 13.521 C 5.070 14.334,4.365 15.270,3.990 15.600 C 3.101 16.381,2.400 18.523,2.400 20.460 C 2.400 21.904,2.326 22.000,1.200 22.000 L 0.000 22.000 -0.000 168.610 L -0.000 315.220 1.200 315.460 C 2.313 315.683,2.400 315.826,2.400 317.442 C 2.400 320.415,3.371 322.200,5.321 322.814 C 7.422 323.475,8.400 324.283,8.401 325.362 C 8.404 327.012,9.854 328.737,11.481 329.028 C 13.098 329.316,14.800 330.579,14.800 331.490 C 14.800 333.775,17.369 335.600,20.587 335.600 C 22.319 335.600,22.400 335.651,22.400 336.756 C 22.400 340.249,26.819 341.569,40.000 342.013 C 52.598 342.437,211.336 342.462,219.821 342.041 C 226.481 341.710,228.061 341.282,228.583 339.664 C 228.701 339.299,229.344 338.690,230.011 338.312 C 230.678 337.933,231.533 337.078,231.912 336.411 C 232.290 335.744,232.899 335.101,233.264 334.983 C 234.220 334.674,235.057 333.232,235.376 331.340 C 235.713 329.347,234.562 328.451,230.600 327.619 C 227.510 326.971,225.968 325.780,224.672 323.041 C 222.754 318.991,233.296 319.428,132.000 319.194 C 65.510 319.041,42.670 318.871,41.695 318.521 C 40.977 318.264,39.418 317.497,38.229 316.817 C 37.041 316.137,35.032 315.224,33.766 314.788 C 28.476 312.968,25.040 309.764,23.581 305.289 C 23.098 303.810,22.021 301.340,21.187 299.800 C 19.938 297.494,19.590 296.330,19.214 293.200 C 18.544 287.624,18.827 44.089,19.506 41.741 C 19.770 40.828,20.600 39.028,21.351 37.741 C 22.102 36.453,23.113 34.176,23.598 32.679 C 25.140 27.918,28.214 24.903,33.030 23.427 C 34.334 23.027,36.750 21.958,38.400 21.050 L 41.400 19.400 200.051 19.400 L 358.701 19.400 361.851 21.041 C 363.583 21.943,366.203 23.079,367.672 23.564 C 372.360 25.112,375.095 27.845,376.715 32.600 C 377.090 33.700,378.097 35.950,378.953 37.600 C 379.809 39.250,380.700 41.230,380.932 42.000 C 381.218 42.945,381.428 64.131,381.578 107.200 C 381.833 180.356,381.351 172.727,385.847 174.852 C 388.739 176.218,389.789 177.498,390.209 180.166 C 390.494 181.976,391.255 184.000,391.651 184.000 C 391.792 184.000,392.004 184.371,392.122 184.824 C 392.481 186.198,396.721 185.024,397.354 183.376 C 397.479 183.050,398.101 182.800,398.787 182.800 L 400.000 182.800 400.000 102.400 L 400.000 22.000 399.000 22.000 C 398.101 22.000,398.000 21.839,398.000 20.408 C 398.000 17.580,396.999 15.790,395.079 15.186 C 392.879 14.494,392.000 13.710,391.999 12.438 C 391.996 10.589,390.619 8.872,388.919 8.600 C 386.419 8.200,386.360 8.146,385.044 5.078 C 384.275 3.283,382.550 2.400,379.813 2.400 C 378.065 2.400,378.000 2.357,378.000 1.200 L 378.000 0.000 200.000 0.000 L 22.000 0.000 22.000 1.200 M56.823 101.455 C 52.785 102.778,52.800 102.760,52.800 106.400 C 52.800 110.031,52.717 109.932,57.000 111.459 L 60.200 112.600 200.200 112.600 L 340.200 112.600 343.400 111.438 C 347.357 110.000,347.600 109.709,347.600 106.400 C 347.600 103.023,347.287 102.652,343.400 101.423 L 340.200 100.410 200.000 100.445 L 59.800 100.479 56.823 101.455 M56.823 163.850 C 52.759 165.188,52.800 165.136,52.800 169.000 C 52.800 172.925,52.752 172.869,57.240 174.212 L 60.584 175.213 143.392 175.106 C 235.207 174.988,228.705 175.191,230.099 172.400 C 231.634 169.329,230.744 165.046,228.293 163.707 C 227.070 163.038,222.499 162.997,143.400 162.935 L 59.800 162.870 56.823 163.850 M395.451 210.189 C 395.567 210.491,395.909 210.833,396.211 210.949 C 396.557 211.082,396.682 210.957,396.549 210.611 C 396.433 210.309,396.091 209.967,395.789 209.851 C 395.443 209.718,395.318 209.843,395.451 210.189 M398.046 221.500 C 398.008 222.238,398.197 222.390,399.100 222.346 C 400.006 222.301,400.045 222.261,399.325 222.121 C 398.843 222.027,398.369 221.647,398.271 221.275 C 398.145 220.797,398.079 220.862,398.046 221.500 M59.800 225.469 C 53.102 227.106,52.800 227.362,52.800 231.400 C 52.800 235.226,52.705 235.101,56.800 236.646 L 59.800 237.777 108.800 237.917 C 166.503 238.081,166.368 238.089,167.832 234.586 C 169.174 231.372,168.267 227.404,165.893 226.107 C 164.644 225.424,62.496 224.810,59.800 225.469 M221.463 226.453 C 218.614 228.109,219.120 235.339,222.173 236.614 C 228.038 239.065,232.726 234.184,230.234 228.219 C 229.355 226.115,223.925 225.022,221.463 226.453 M398.154 271.777 C 398.032 272.094,398.017 272.679,398.120 273.077 C 398.278 273.688,398.314 273.670,398.354 272.961 C 398.379 272.500,398.805 271.927,399.300 271.688 L 400.200 271.254 399.287 271.227 C 398.786 271.212,398.275 271.459,398.154 271.777 M391.425 310.122 C 390.861 311.083,390.400 312.314,390.400 312.857 C 390.400 315.140,388.554 317.741,385.816 319.316 C 381.549 321.770,381.831 320.065,381.600 344.800 C 381.424 363.676,381.322 366.342,380.741 367.401 C 378.503 371.480,371.427 371.576,367.062 367.587 C 365.632 366.280,363.741 365.138,361.177 364.033 C 358.354 362.817,356.995 361.964,355.795 360.659 C 354.556 359.311,353.645 358.754,351.807 358.219 C 348.620 357.293,346.657 356.250,344.660 354.425 C 339.367 349.585,329.216 349.778,324.400 354.811 C 322.633 356.658,321.061 357.450,317.263 358.411 C 316.054 358.717,314.960 359.429,313.663 360.754 C 312.202 362.247,310.985 362.981,308.024 364.158 C 305.269 365.253,303.678 366.180,302.139 367.586 C 297.773 371.576,290.698 371.480,288.459 367.401 C 287.878 366.342,287.776 363.676,287.600 344.800 C 287.418 325.326,287.336 323.284,286.693 322.107 C 284.528 318.145,277.659 318.744,275.457 323.086 C 274.082 325.797,270.485 328.000,267.433 328.000 C 267.108 328.000,266.378 328.429,265.811 328.954 L 264.782 329.909 264.891 362.254 C 265.018 399.818,264.651 397.055,269.613 397.848 C 270.992 398.069,271.201 398.240,271.206 399.151 C 271.211 399.975,271.295 400.071,271.600 399.600 C 271.858 399.200,271.990 399.167,271.994 399.500 C 271.999 399.889,274.710 400.000,284.200 400.000 L 296.400 400.000 296.400 399.046 C 296.400 398.185,296.623 398.064,298.700 397.805 C 302.338 397.350,304.000 396.030,304.000 393.595 C 304.000 392.652,305.140 392.000,306.791 392.000 C 310.512 392.000,315.592 390.213,315.602 388.900 C 315.619 386.684,316.476 385.600,318.211 385.600 C 319.186 385.600,320.662 385.352,321.492 385.048 C 322.321 384.744,323.784 384.259,324.742 383.970 C 326.615 383.405,327.365 382.552,327.793 380.500 C 328.032 379.350,328.216 379.200,329.386 379.200 C 330.113 379.200,331.598 378.913,332.686 378.561 C 334.498 377.976,334.823 377.976,336.546 378.561 C 337.581 378.913,339.052 379.200,339.814 379.200 C 341.073 379.200,341.200 379.305,341.200 380.346 C 341.200 381.995,342.515 383.458,344.293 383.787 C 345.122 383.941,346.394 384.346,347.120 384.688 C 347.845 385.030,349.456 385.420,350.699 385.555 L 352.959 385.800 353.379 387.698 C 353.956 390.299,357.633 392.000,362.677 392.000 C 364.383 392.000,365.200 392.551,365.200 393.700 C 365.200 395.994,366.917 397.331,370.500 397.828 C 372.162 398.058,372.400 398.210,372.400 399.045 L 372.400 400.000 384.800 400.000 C 394.450 400.000,397.201 399.889,397.206 399.500 C 397.210 399.167,397.342 399.200,397.600 399.600 C 397.902 400.068,397.989 399.957,397.994 399.100 C 397.999 398.195,398.177 398.000,399.000 398.000 L 400.000 398.000 400.000 354.400 L 400.000 310.800 398.600 310.800 C 397.830 310.800,397.200 310.641,397.200 310.446 C 397.200 309.870,395.509 308.941,393.925 308.647 C 392.504 308.383,392.411 308.438,391.425 310.122 " stroke="none" fill="#474f57" fill-rule="evenodd"></path><path id="path1" d="M324.200 188.188 C 314.699 189.289,312.002 190.093,308.025 193.012 C 307.269 193.567,305.655 194.310,304.440 194.664 C 302.833 195.131,301.624 195.870,300.014 197.368 C 298.797 198.501,296.629 200.302,295.197 201.369 C 293.766 202.435,291.516 204.663,290.197 206.319 C 288.879 207.975,286.762 210.452,285.493 211.824 C 283.912 213.532,282.946 215.012,282.428 216.520 C 281.441 219.388,281.011 220.191,279.158 222.626 C 277.207 225.190,276.629 226.864,276.056 231.600 C 273.749 250.677,275.208 266.665,279.796 272.573 C 280.778 273.838,281.897 275.873,282.283 277.095 C 282.737 278.536,283.619 280.019,284.791 281.314 C 285.786 282.413,287.770 284.862,289.200 286.756 C 290.915 289.027,292.736 290.881,294.550 292.200 C 296.063 293.300,298.428 295.200,299.806 296.423 C 301.658 298.067,302.940 298.837,304.724 299.377 C 306.248 299.838,307.922 300.753,309.268 301.860 C 313.271 305.150,320.746 306.551,334.400 306.567 C 347.987 306.584,355.709 305.217,359.287 302.163 C 360.707 300.951,362.241 300.113,364.167 299.498 C 366.370 298.794,367.496 298.123,369.388 296.389 C 370.715 295.173,372.824 293.421,374.075 292.495 C 376.865 290.431,378.905 288.369,380.502 286.000 C 382.828 282.551,383.979 281.600,385.828 281.600 C 388.638 281.600,390.033 282.035,390.499 283.057 C 390.740 283.587,391.294 284.014,391.764 284.032 C 392.224 284.049,392.375 284.154,392.100 284.265 C 391.538 284.492,391.416 285.200,391.939 285.200 C 392.125 285.200,392.693 284.840,393.200 284.400 C 394.207 283.527,394.586 283.375,394.200 284.000 C 393.695 284.818,395.033 284.351,395.943 283.392 C 396.532 282.772,396.789 282.148,396.629 281.731 C 396.488 281.364,396.565 280.945,396.800 280.800 C 397.036 280.654,397.267 279.696,397.314 278.671 C 397.361 277.645,397.516 276.804,397.658 276.803 C 397.800 276.801,397.906 275.749,397.894 274.465 C 397.869 271.814,398.119 271.200,399.224 271.200 C 399.984 271.200,400.000 270.686,400.000 246.800 L 400.000 222.400 399.000 222.400 C 397.907 222.400,397.782 221.980,397.965 218.900 C 398.021 217.965,397.916 217.199,397.733 217.197 C 397.550 217.196,397.361 216.356,397.314 215.331 C 397.267 214.307,397.056 213.296,396.845 213.085 C 396.635 212.875,396.559 212.451,396.677 212.143 C 396.949 211.434,394.994 209.440,394.292 209.709 C 394.003 209.820,393.425 209.661,393.007 209.356 C 392.042 208.650,391.600 208.651,391.600 209.357 C 391.600 209.664,391.304 210.028,390.943 210.167 C 390.581 210.305,390.400 210.533,390.540 210.674 C 391.376 211.509,386.702 212.763,384.661 212.251 C 384.049 212.097,382.359 210.420,380.280 207.900 C 378.419 205.645,375.763 202.900,374.380 201.800 C 372.996 200.700,370.844 198.855,369.596 197.701 C 368.099 196.314,366.582 195.344,365.130 194.845 C 362.374 193.897,360.511 192.947,359.106 191.775 C 355.322 188.617,336.868 186.721,324.200 188.188 " stroke="none" fill="#74c4fc" fill-rule="evenodd"></path><path id="path2" d="M42.400 19.566 C 41.410 19.711,39.430 20.477,38.000 21.268 C 36.570 22.059,34.334 23.031,33.030 23.429 C 28.218 24.900,25.140 27.917,23.598 32.679 C 23.113 34.176,22.102 36.453,21.351 37.741 C 20.600 39.028,19.770 40.828,19.506 41.741 C 18.827 44.089,18.544 287.624,19.214 293.200 C 19.590 296.330,19.938 297.494,21.187 299.800 C 22.021 301.340,23.098 303.810,23.581 305.289 C 25.040 309.764,28.476 312.968,33.766 314.788 C 35.032 315.224,37.041 316.137,38.229 316.817 C 39.418 317.497,40.977 318.264,41.695 318.521 C 42.670 318.871,65.510 319.041,132.000 319.194 C 233.296 319.428,222.754 318.991,224.672 323.041 C 225.969 325.782,227.512 326.972,230.600 327.616 C 231.920 327.891,233.427 328.378,233.949 328.699 C 234.471 329.020,234.780 329.092,234.636 328.858 C 234.491 328.624,233.298 327.859,231.984 327.159 C 229.184 325.667,227.817 324.394,226.732 322.267 C 225.687 320.218,222.829 317.403,221.371 316.985 C 220.727 316.801,180.960 316.547,133.000 316.420 L 45.800 316.190 39.800 314.447 C 27.443 310.857,25.287 308.144,22.597 292.800 C 21.874 288.673,21.694 50.888,22.410 45.800 C 22.873 42.510,25.094 33.354,25.709 32.200 C 27.872 28.138,31.928 25.495,38.433 23.909 L 43.800 22.600 200.000 22.600 L 356.200 22.600 361.200 23.755 C 370.855 25.986,374.011 28.999,376.322 38.200 C 378.455 46.687,378.400 44.850,378.400 107.728 C 378.400 174.768,378.231 171.052,381.424 174.245 C 382.362 175.183,384.035 176.409,385.140 176.970 C 387.210 178.019,388.493 179.417,389.941 182.200 C 391.155 184.534,392.453 186.130,392.137 184.900 C 392.010 184.405,391.792 184.000,391.651 184.000 C 391.255 184.000,390.494 181.976,390.209 180.166 C 389.789 177.498,388.739 176.218,385.847 174.852 C 381.351 172.727,381.833 180.356,381.578 107.200 C 381.428 64.131,381.218 42.945,380.932 42.000 C 380.700 41.230,379.809 39.250,378.953 37.600 C 378.097 35.950,377.090 33.700,376.715 32.600 C 375.095 27.845,372.360 25.112,367.672 23.564 C 366.203 23.079,363.583 21.943,361.851 21.041 L 358.702 19.400 201.451 19.352 C 114.963 19.325,43.390 19.422,42.400 19.566 M57.800 98.407 C 56.920 98.824,55.350 99.521,54.311 99.956 C 51.621 101.080,50.803 102.582,50.803 106.400 C 50.803 110.664,51.374 111.443,56.270 113.860 L 60.200 115.800 200.200 115.800 L 340.200 115.800 344.123 113.872 C 349.026 111.462,349.596 110.680,349.599 106.359 C 349.601 102.179,348.842 101.096,344.594 99.214 L 341.400 97.800 200.400 97.724 C 62.700 97.650,59.363 97.666,57.800 98.407 M343.400 101.423 C 347.287 102.652,347.600 103.023,347.600 106.400 C 347.600 109.709,347.357 110.000,343.400 111.438 L 340.200 112.600 200.200 112.600 L 60.200 112.600 57.000 111.459 C 52.717 109.932,52.800 110.031,52.800 106.400 C 52.800 102.760,52.785 102.778,56.823 101.455 L 59.800 100.479 200.000 100.445 L 340.200 100.410 343.400 101.423 M57.800 160.808 C 56.920 161.225,55.350 161.921,54.311 162.356 C 49.616 164.318,49.188 173.139,53.694 175.067 C 54.632 175.468,56.390 176.337,57.600 176.998 L 59.800 178.200 141.134 178.305 L 222.468 178.410 225.636 177.436 C 231.175 175.735,233.200 173.477,233.200 169.000 C 233.200 164.463,230.431 161.236,225.855 160.439 C 220.720 159.545,59.720 159.898,57.800 160.808 M228.293 163.707 C 230.744 165.046,231.634 169.329,230.099 172.400 C 228.705 175.191,235.207 174.988,143.392 175.106 L 60.584 175.213 57.240 174.212 C 52.752 172.869,52.800 172.925,52.800 169.000 C 52.800 165.136,52.759 165.188,56.823 163.850 L 59.800 162.870 143.400 162.935 C 222.499 162.997,227.070 163.038,228.293 163.707 M58.200 223.421 C 57.540 223.735,55.951 224.371,54.670 224.836 C 51.487 225.989,50.803 227.150,50.803 231.400 C 50.803 235.890,51.323 236.618,56.270 239.060 L 60.200 241.000 109.600 241.116 L 159.000 241.232 162.579 240.352 C 173.581 237.646,174.042 224.923,163.200 223.216 C 158.747 222.514,59.701 222.708,58.200 223.421 M220.447 224.812 C 213.970 229.504,217.215 239.600,225.200 239.600 C 233.185 239.600,236.430 229.504,229.953 224.812 C 227.475 223.017,222.925 223.017,220.447 224.812 M165.893 226.107 C 168.267 227.404,169.174 231.372,167.832 234.586 C 166.368 238.089,166.503 238.081,108.800 237.917 L 59.800 237.777 56.800 236.646 C 52.705 235.101,52.800 235.226,52.800 231.400 C 52.800 227.362,53.102 227.106,59.800 225.469 C 62.496 224.810,164.644 225.424,165.893 226.107 M228.860 226.432 C 231.780 227.995,231.325 235.320,228.227 236.614 C 222.366 239.063,217.674 234.184,220.163 228.228 C 221.046 226.112,226.254 225.037,228.860 226.432 M391.100 309.632 C 390.715 309.856,390.400 310.273,390.400 310.558 C 390.400 311.933,387.280 315.834,385.336 316.890 C 378.749 320.467,378.463 321.660,378.313 346.240 C 378.185 367.164,378.359 365.908,375.400 367.255 C 372.773 368.449,371.555 368.241,369.298 366.212 C 368.129 365.161,365.682 363.670,363.355 362.591 C 361.180 361.582,358.860 360.238,358.200 359.603 C 357.540 358.968,355.402 357.715,353.450 356.819 C 351.497 355.923,349.040 354.470,347.988 353.590 C 345.616 351.604,342.850 350.363,338.203 349.200 L 334.607 348.300 331.003 349.212 C 326.605 350.325,325.755 350.730,322.200 353.410 C 320.660 354.571,318.030 356.085,316.355 356.775 C 314.681 357.464,312.611 358.614,311.755 359.329 C 309.533 361.186,308.570 361.728,305.270 362.981 C 303.347 363.710,301.574 364.764,300.108 366.046 C 297.497 368.331,296.060 368.550,293.185 367.100 C 290.799 365.897,290.851 366.371,290.823 345.349 C 290.796 324.634,290.614 323.082,287.861 320.095 C 285.650 317.697,284.526 317.200,281.320 317.201 C 277.487 317.204,276.548 317.839,273.159 322.722 C 272.476 323.705,270.899 325.105,269.482 325.986 C 266.078 328.103,265.024 328.940,266.400 328.435 C 266.950 328.233,268.690 327.675,270.268 327.194 C 273.362 326.251,274.238 325.539,275.571 322.884 C 277.654 318.735,284.586 318.250,286.693 322.107 C 287.336 323.284,287.418 325.326,287.600 344.800 C 287.776 363.676,287.878 366.342,288.459 367.401 C 290.698 371.480,297.773 371.576,302.139 367.586 C 303.678 366.180,305.269 365.253,308.024 364.158 C 310.985 362.981,312.202 362.247,313.663 360.754 C 314.960 359.429,316.054 358.717,317.263 358.411 C 321.061 357.450,322.633 356.658,324.400 354.811 C 329.216 349.778,339.367 349.585,344.660 354.425 C 346.657 356.250,348.620 357.293,351.807 358.219 C 353.645 358.754,354.556 359.311,355.795 360.659 C 356.995 361.964,358.354 362.817,361.177 364.033 C 363.741 365.138,365.632 366.280,367.062 367.587 C 371.427 371.576,378.503 371.480,380.741 367.401 C 381.322 366.342,381.424 363.676,381.600 344.800 C 381.831 320.065,381.549 321.770,385.816 319.316 C 388.568 317.733,390.398 315.141,390.401 312.821 C 390.402 312.260,390.760 311.215,391.196 310.500 C 391.632 309.785,391.946 309.205,391.894 309.212 C 391.842 309.219,391.485 309.408,391.100 309.632 " stroke="none" fill="#9c9ca4" fill-rule="evenodd"></path><path id="path3" d="M44.600 22.819 C 29.247 24.549,24.746 29.211,22.410 45.800 C 21.694 50.888,21.874 288.673,22.597 292.800 C 25.287 308.144,27.443 310.857,39.800 314.447 L 45.800 316.190 133.000 316.420 C 180.960 316.547,220.727 316.801,221.371 316.985 C 222.829 317.403,225.687 320.218,226.732 322.267 C 227.817 324.394,229.184 325.667,231.984 327.159 C 233.298 327.859,234.480 328.605,234.610 328.816 C 234.740 329.027,235.041 329.200,235.278 329.200 C 235.514 329.200,235.189 328.810,234.554 328.334 C 232.276 326.625,229.897 324.160,228.356 321.913 C 226.157 318.707,223.217 315.880,221.369 315.196 C 220.022 314.697,207.470 314.584,132.600 314.397 L 45.400 314.179 40.000 312.962 C 33.645 311.531,33.453 311.439,29.733 308.072 C 23.636 302.553,24.200 316.732,24.200 169.000 C 24.200 20.658,23.572 35.885,29.948 29.585 C 35.782 23.820,16.740 24.400,200.200 24.400 C 383.667 24.400,364.597 23.819,370.427 29.586 C 374.203 33.321,374.166 33.249,375.274 39.040 L 376.185 43.800 376.396 106.200 C 376.592 164.433,376.654 168.739,377.312 170.677 C 378.132 173.091,380.464 175.613,384.152 178.075 C 385.498 178.974,387.741 180.899,389.136 182.354 C 391.785 185.118,391.772 185.062,388.600 180.084 C 387.762 178.767,386.744 177.848,385.223 177.033 C 384.025 176.392,382.297 175.118,381.382 174.203 C 378.238 171.059,378.400 174.663,378.400 107.728 C 378.400 44.850,378.455 46.687,376.322 38.200 C 374.053 29.167,371.041 26.189,361.800 23.840 L 357.000 22.620 202.200 22.562 C 117.060 22.529,46.140 22.645,44.600 22.819 M55.912 97.552 C 50.216 100.658,49.600 101.522,49.600 106.400 C 49.600 110.906,50.546 112.484,54.400 114.408 C 55.390 114.903,56.985 115.868,57.945 116.554 L 59.690 117.800 200.200 117.800 L 340.710 117.800 342.455 116.553 C 343.415 115.867,345.100 114.849,346.200 114.292 C 349.830 112.453,350.800 110.782,350.800 106.361 C 350.800 101.592,349.967 100.459,344.255 97.461 L 340.710 95.600 200.055 95.625 L 59.400 95.650 55.912 97.552 M344.594 99.214 C 348.842 101.096,349.601 102.179,349.599 106.359 C 349.596 110.680,349.026 111.462,344.123 113.872 L 340.200 115.800 200.200 115.800 L 60.200 115.800 56.270 113.860 C 51.374 111.443,50.803 110.664,50.803 106.400 C 50.803 102.582,51.621 101.080,54.311 99.956 C 55.350 99.521,56.920 98.824,57.800 98.407 C 59.363 97.666,62.700 97.650,200.400 97.724 L 341.400 97.800 344.594 99.214 M56.200 159.855 C 50.274 162.890,49.599 163.833,49.601 169.080 C 49.603 173.591,50.215 174.693,53.686 176.439 C 55.069 177.135,56.985 178.266,57.945 178.952 L 59.690 180.200 141.120 180.308 L 222.551 180.415 225.175 179.549 C 234.965 176.317,238.054 168.022,231.731 161.943 C 227.314 157.696,234.309 157.999,140.967 158.006 L 59.800 158.011 56.200 159.855 M225.855 160.439 C 230.431 161.236,233.200 164.463,233.200 169.000 C 233.200 173.477,231.175 175.735,225.636 177.436 L 222.468 178.410 141.134 178.305 L 59.800 178.200 57.600 176.998 C 56.390 176.337,54.632 175.468,53.694 175.067 C 49.188 173.139,49.616 164.318,54.311 162.356 C 55.350 161.921,56.920 161.225,57.800 160.808 C 59.720 159.898,220.720 159.545,225.855 160.439 M55.415 222.933 C 50.149 225.664,49.600 226.452,49.600 231.279 C 49.600 236.537,50.173 237.350,56.200 240.637 L 59.800 242.600 109.400 242.721 C 145.165 242.807,159.669 242.715,161.400 242.387 C 174.403 239.929,176.636 226.249,164.800 221.555 C 163.634 221.093,154.702 220.989,111.400 220.933 L 59.400 220.866 55.415 222.933 M219.705 223.754 C 213.975 227.973,213.840 234.272,219.376 239.127 C 225.360 244.374,234.800 239.699,234.800 231.487 C 234.800 225.830,230.924 222.000,225.200 222.000 C 222.153 222.000,222.039 222.036,219.705 223.754 M163.200 223.216 C 174.042 224.923,173.581 237.646,162.579 240.352 L 159.000 241.232 109.600 241.116 L 60.200 241.000 56.270 239.060 C 51.323 236.618,50.803 235.890,50.803 231.400 C 50.803 227.150,51.487 225.989,54.670 224.836 C 55.951 224.371,57.540 223.735,58.200 223.421 C 59.701 222.708,158.747 222.514,163.200 223.216 M229.953 224.812 C 236.430 229.504,233.185 239.600,225.200 239.600 C 217.215 239.600,213.970 229.504,220.447 224.812 C 222.925 223.017,227.475 223.017,229.953 224.812 M388.748 311.929 C 388.006 312.791,386.200 314.333,384.733 315.356 C 376.695 320.961,376.401 321.934,376.397 342.942 C 376.393 362.167,376.088 365.120,373.992 366.204 C 372.373 367.041,372.298 367.018,369.853 364.900 C 368.564 363.784,366.503 362.538,364.856 361.880 C 363.315 361.263,360.865 359.882,359.412 358.809 C 357.959 357.736,355.548 356.392,354.056 355.821 C 352.372 355.178,350.821 354.243,349.971 353.358 C 348.083 351.394,345.988 350.254,342.000 349.022 C 340.130 348.444,337.684 347.596,336.564 347.138 C 334.534 346.308,334.523 346.308,332.764 347.085 C 331.794 347.513,329.672 348.267,328.050 348.759 C 324.875 349.722,322.842 350.854,320.000 353.242 C 319.010 354.074,316.915 355.276,315.345 355.915 C 313.775 356.553,311.435 357.894,310.145 358.893 C 308.761 359.966,306.511 361.180,304.654 361.855 C 302.457 362.655,300.840 363.582,299.297 364.929 C 296.915 367.008,295.827 367.161,294.271 365.635 C 292.881 364.271,292.694 362.030,292.420 343.400 C 292.104 322.001,292.146 322.235,287.924 318.119 C 283.216 313.528,278.077 314.156,273.614 319.866 C 272.267 321.590,269.868 324.228,268.283 325.729 L 265.400 328.459 268.584 326.524 C 270.642 325.274,272.228 323.955,273.072 322.795 C 276.808 317.654,277.472 317.204,281.320 317.201 C 284.526 317.200,285.650 317.697,287.861 320.095 C 290.614 323.082,290.796 324.634,290.823 345.349 C 290.851 366.371,290.799 365.897,293.185 367.100 C 296.060 368.550,297.497 368.331,300.108 366.046 C 301.574 364.764,303.347 363.710,305.270 362.981 C 308.570 361.728,309.533 361.186,311.755 359.329 C 312.611 358.614,314.681 357.464,316.355 356.775 C 318.030 356.085,320.660 354.571,322.200 353.410 C 325.755 350.730,326.605 350.325,331.003 349.212 L 334.607 348.300 338.203 349.200 C 342.850 350.363,345.616 351.604,347.988 353.590 C 349.040 354.470,351.497 355.923,353.450 356.819 C 355.402 357.715,357.540 358.968,358.200 359.603 C 358.860 360.238,361.180 361.582,363.355 362.591 C 365.682 363.670,368.129 365.161,369.298 366.212 C 371.555 368.241,372.773 368.449,375.400 367.255 C 378.339 365.918,378.156 367.249,378.419 345.249 C 378.713 320.636,378.700 320.687,386.040 316.364 C 387.226 315.665,388.242 314.585,389.156 313.052 C 390.789 310.312,390.595 309.780,388.748 311.929 " stroke="none" fill="#a9a9ac" fill-rule="evenodd"></path><path id="path4" d="M38.600 25.158 C 33.719 25.988,33.322 26.194,29.754 29.758 C 23.605 35.900,24.200 20.980,24.200 169.000 C 24.200 316.732,23.636 302.553,29.733 308.072 C 33.453 311.439,33.645 311.531,40.000 312.962 L 45.400 314.179 132.600 314.397 C 207.470 314.584,220.022 314.697,221.369 315.196 C 223.153 315.856,226.152 318.692,228.036 321.499 C 229.433 323.580,233.172 327.600,233.711 327.600 C 233.897 327.600,233.454 326.785,232.725 325.788 C 231.996 324.792,231.040 323.374,230.600 322.638 C 229.354 320.553,223.136 314.116,221.800 313.528 C 220.823 313.098,204.197 312.958,132.400 312.772 C 28.952 312.504,35.546 312.793,31.677 308.358 C 30.985 307.565,29.786 306.485,29.011 305.958 C 25.150 303.330,25.400 312.811,25.400 169.000 C 25.400 24.536,25.117 34.769,29.193 31.885 C 30.060 31.272,31.272 30.072,31.885 29.219 C 34.712 25.286,19.381 25.614,200.200 25.614 C 381.019 25.614,365.688 25.286,368.515 29.219 C 369.128 30.072,370.334 31.272,371.195 31.885 C 374.682 34.369,374.487 30.451,374.771 104.000 C 374.994 161.594,375.090 168.832,375.661 170.735 C 376.406 173.222,381.353 178.213,385.743 180.909 C 387.094 181.739,389.010 183.076,390.000 183.881 C 391.058 184.741,391.454 184.943,390.959 184.372 C 390.496 183.837,389.596 182.792,388.959 182.048 C 388.322 181.305,386.402 179.713,384.694 178.511 C 380.266 175.395,378.152 173.152,377.312 170.677 C 376.654 168.739,376.592 164.433,376.396 106.200 L 376.185 43.800 375.274 39.040 C 374.166 33.249,374.203 33.321,370.427 29.586 C 366.904 26.101,366.387 25.852,360.952 25.020 C 354.460 24.026,44.479 24.158,38.600 25.158 M56.944 95.388 C 55.875 96.151,53.970 97.343,52.712 98.037 C 49.555 99.778,48.800 101.380,48.800 106.339 C 48.800 111.612,49.454 112.842,53.600 115.360 C 54.590 115.962,56.276 117.072,57.348 117.829 L 59.295 119.203 200.377 119.102 L 341.458 119.000 343.029 117.889 C 345.678 116.014,347.119 115.035,348.454 114.200 C 350.834 112.712,351.385 111.524,351.541 107.550 C 351.775 101.555,350.992 99.771,347.248 97.776 C 346.232 97.235,344.525 96.164,343.456 95.396 L 341.513 94.000 200.200 94.000 L 58.887 94.000 56.944 95.388 M344.255 97.461 C 349.967 100.459,350.800 101.592,350.800 106.361 C 350.800 110.782,349.830 112.453,346.200 114.292 C 345.100 114.849,343.415 115.867,342.455 116.553 L 340.710 117.800 200.200 117.800 L 59.690 117.800 57.945 116.554 C 56.985 115.868,55.390 114.903,54.400 114.408 C 50.546 112.484,49.600 110.906,49.600 106.400 C 49.600 101.522,50.216 100.658,55.912 97.552 L 59.400 95.650 200.055 95.625 L 340.710 95.600 344.255 97.461 M56.614 158.208 C 55.316 158.990,53.390 160.100,52.334 160.675 C 49.545 162.192,48.800 163.941,48.800 168.966 C 48.800 174.112,49.284 175.126,52.751 177.240 C 54.208 178.128,56.278 179.474,57.351 180.231 L 59.302 181.607 142.351 181.501 C 208.906 181.416,225.698 181.293,226.899 180.879 C 228.403 180.361,235.344 174.270,236.286 172.640 C 236.553 172.178,236.778 170.401,236.786 168.691 L 236.800 165.581 233.507 162.151 C 231.696 160.265,229.491 158.334,228.607 157.861 L 227.000 157.000 142.987 156.894 L 58.974 156.787 56.614 158.208 M224.767 158.451 C 238.113 160.736,238.393 175.185,225.175 179.549 L 222.551 180.415 141.120 180.308 L 59.690 180.200 57.945 178.952 C 56.985 178.266,55.069 177.135,53.686 176.439 C 50.215 174.693,49.603 173.591,49.601 169.080 C 49.599 163.833,50.274 162.890,56.200 159.855 L 59.800 158.011 140.967 158.006 C 199.380 158.002,222.873 158.126,224.767 158.451 M330.706 183.633 C 329.225 183.832,325.445 184.610,322.306 185.361 C 319.168 186.112,315.079 187.026,313.221 187.391 C 309.333 188.156,309.188 188.221,306.670 190.302 C 305.635 191.157,303.619 192.269,302.189 192.774 C 300.759 193.279,298.886 194.256,298.026 194.946 C 292.951 199.019,289.415 202.304,287.741 204.501 C 286.694 205.875,284.918 207.915,283.795 209.033 C 282.311 210.511,281.418 211.889,280.527 214.077 C 279.852 215.733,278.483 218.092,277.483 219.319 C 275.980 221.165,275.562 222.057,275.070 224.475 C 274.742 226.084,273.745 230.910,272.854 235.200 C 270.358 247.220,270.356 248.347,272.814 258.694 C 273.453 261.385,274.249 265.281,274.582 267.352 C 275.360 272.183,275.681 272.976,277.762 275.201 C 278.771 276.279,279.846 278.011,280.360 279.384 C 281.354 282.042,282.236 283.424,284.584 286.000 C 285.486 286.990,286.819 288.634,287.546 289.654 C 288.710 291.284,291.269 293.558,297.914 298.866 C 298.924 299.673,300.931 300.800,302.375 301.371 C 303.819 301.942,305.810 303.137,306.800 304.027 C 309.057 306.055,309.679 306.309,314.600 307.209 C 316.800 307.612,321.390 308.517,324.800 309.222 C 333.124 310.941,336.125 310.918,345.200 309.067 C 349.050 308.281,353.370 307.441,354.800 307.200 C 358.757 306.532,359.835 306.085,362.053 304.192 C 363.175 303.234,365.287 301.957,366.747 301.354 C 369.788 300.098,371.235 299.111,374.600 295.999 C 375.920 294.778,377.665 293.370,378.479 292.870 C 379.292 292.370,380.789 290.796,381.804 289.373 C 384.158 286.075,384.792 285.694,388.198 285.533 L 390.997 285.400 391.509 286.800 L 392.021 288.200 391.861 286.316 C 391.763 285.158,391.875 284.362,392.151 284.248 C 392.398 284.146,392.224 284.049,391.764 284.032 C 391.294 284.014,390.740 283.587,390.499 283.057 C 390.033 282.035,388.638 281.600,385.828 281.600 C 383.979 281.600,382.828 282.551,380.502 286.000 C 378.905 288.369,376.865 290.431,374.075 292.495 C 372.824 293.421,370.715 295.173,369.388 296.389 C 367.496 298.123,366.370 298.794,364.167 299.498 C 362.241 300.113,360.707 300.951,359.287 302.163 C 355.709 305.217,347.987 306.584,334.400 306.567 C 320.746 306.551,313.271 305.150,309.268 301.860 C 307.922 300.753,306.248 299.838,304.724 299.377 C 302.940 298.837,301.658 298.067,299.806 296.423 C 298.428 295.200,296.063 293.300,294.550 292.200 C 292.736 290.881,290.915 289.027,289.200 286.756 C 287.770 284.862,285.786 282.413,284.791 281.314 C 283.619 280.019,282.737 278.536,282.283 277.095 C 281.897 275.873,280.778 273.838,279.796 272.573 C 276.103 267.818,274.168 254.583,275.179 241.000 C 276.120 228.372,276.650 225.923,279.158 222.626 C 281.011 220.191,281.441 219.388,282.428 216.520 C 282.946 215.012,283.912 213.532,285.493 211.824 C 286.762 210.452,288.879 207.975,290.197 206.319 C 291.516 204.663,293.766 202.435,295.197 201.369 C 296.629 200.302,298.797 198.501,300.014 197.368 C 301.624 195.870,302.833 195.131,304.440 194.664 C 305.655 194.310,307.269 193.567,308.025 193.012 C 308.781 192.457,310.513 191.451,311.874 190.776 C 321.014 186.243,353.295 186.926,359.106 191.775 C 360.511 192.947,362.374 193.897,365.130 194.845 C 366.582 195.344,368.099 196.314,369.596 197.701 C 370.844 198.855,372.996 200.700,374.380 201.800 C 375.763 202.900,378.419 205.645,380.280 207.900 C 383.907 212.295,384.507 212.659,387.455 212.254 C 389.028 212.039,391.629 210.821,390.589 210.787 C 390.375 210.780,390.530 210.524,390.934 210.218 C 391.388 209.874,391.726 209.003,391.820 207.931 C 391.904 206.979,391.872 206.560,391.748 207.000 C 391.355 208.396,390.842 208.589,387.898 208.453 C 384.497 208.296,384.208 208.123,381.615 204.697 C 380.518 203.248,378.581 201.258,377.310 200.276 C 376.040 199.293,374.550 198.001,374.000 197.405 C 372.047 195.287,369.929 193.893,367.014 192.805 C 365.390 192.199,363.282 191.074,362.331 190.305 C 359.830 188.284,359.185 188.020,354.252 187.000 C 351.803 186.494,347.370 185.539,344.400 184.878 C 338.060 183.466,334.414 183.135,330.706 183.633 M57.066 220.491 C 56.022 221.211,54.051 222.430,52.684 223.201 C 49.336 225.088,48.801 226.205,48.801 231.313 C 48.800 236.987,49.473 238.173,54.255 240.916 C 55.325 241.529,56.920 242.471,57.800 243.009 L 59.400 243.987 110.080 243.993 C 169.779 244.001,164.652 244.418,170.253 239.098 C 174.433 235.127,175.671 231.179,173.832 227.680 C 173.114 226.314,166.837 220.570,165.332 219.902 C 164.447 219.509,152.736 219.376,111.581 219.291 L 58.963 219.183 57.066 220.491 M221.762 220.514 C 212.888 225.660,211.135 232.729,217.270 238.636 C 223.406 244.544,226.971 244.590,232.939 238.839 C 238.631 233.356,238.519 229.173,232.536 223.766 C 228.267 219.908,224.676 218.824,221.762 220.514 M164.800 221.555 C 176.636 226.249,174.403 239.929,161.400 242.387 C 159.669 242.715,145.165 242.807,109.400 242.721 L 59.800 242.600 56.200 240.637 C 50.173 237.350,49.600 236.537,49.600 231.279 C 49.600 226.452,50.149 225.664,55.415 222.933 L 59.400 220.866 111.400 220.933 C 154.702 220.989,163.634 221.093,164.800 221.555 M230.695 223.754 C 236.425 227.973,236.560 234.272,231.024 239.127 C 225.040 244.374,215.600 239.699,215.600 231.487 C 215.600 225.830,219.476 222.000,225.200 222.000 C 228.247 222.000,228.361 222.036,230.695 223.754 M389.154 310.729 C 388.629 311.129,387.120 312.109,385.800 312.906 C 383.436 314.333,376.891 320.605,376.065 322.235 C 375.153 324.034,374.799 330.415,374.782 345.390 C 374.760 365.526,374.292 367.415,370.249 363.688 C 369.250 362.767,367.634 361.811,366.368 361.393 C 363.944 360.593,363.263 360.197,359.748 357.551 C 358.163 356.357,356.533 355.520,355.151 355.188 C 353.484 354.788,352.519 354.211,350.804 352.588 C 348.189 350.113,347.287 349.627,342.775 348.259 C 340.892 347.687,338.552 346.679,337.575 346.017 C 335.324 344.492,333.875 344.492,331.623 346.018 C 330.646 346.681,328.846 347.511,327.623 347.865 C 323.731 348.989,321.344 350.261,318.889 352.518 C 317.453 353.839,315.962 354.831,315.150 355.006 C 313.214 355.424,311.266 356.487,308.995 358.363 C 307.720 359.417,305.778 360.442,303.546 361.241 C 301.140 362.102,299.674 362.898,298.760 363.841 C 294.805 367.922,294.255 365.578,293.964 343.400 C 293.674 321.320,293.906 322.372,288.072 316.694 L 284.892 313.600 281.346 313.599 L 277.800 313.598 274.075 317.499 C 272.026 319.645,269.956 321.964,269.475 322.653 C 268.994 323.342,267.984 324.782,267.230 325.853 C 266.477 326.924,266.207 327.512,266.630 327.161 C 269.408 324.853,270.423 323.800,273.088 320.464 C 278.159 314.116,283.029 313.346,287.924 318.119 C 292.146 322.235,292.104 322.001,292.420 343.400 C 292.694 362.030,292.881 364.271,294.271 365.635 C 295.827 367.161,296.915 367.008,299.297 364.929 C 300.840 363.582,302.457 362.655,304.654 361.855 C 306.511 361.180,308.761 359.966,310.145 358.893 C 311.435 357.894,313.775 356.553,315.345 355.915 C 316.915 355.276,319.010 354.074,320.000 353.242 C 322.842 350.854,324.875 349.722,328.050 348.759 C 329.672 348.267,331.794 347.513,332.764 347.085 C 334.523 346.308,334.534 346.308,336.564 347.138 C 337.684 347.596,340.130 348.444,342.000 349.022 C 345.988 350.254,348.083 351.394,349.971 353.358 C 350.821 354.243,352.372 355.178,354.056 355.821 C 355.548 356.392,357.959 357.736,359.412 358.809 C 360.865 359.882,363.315 361.263,364.856 361.880 C 366.503 362.538,368.564 363.784,369.853 364.900 C 372.298 367.018,372.373 367.041,373.992 366.204 C 376.088 365.120,376.393 362.167,376.397 342.942 C 376.401 321.921,376.676 321.013,384.773 315.300 C 386.255 314.255,388.148 312.635,388.980 311.700 C 390.611 309.867,390.664 309.576,389.154 310.729 " stroke="none" fill="#bcd2e5" fill-rule="evenodd"></path><path id="path5" d="M37.772 26.197 C 34.038 26.782,33.401 27.109,31.885 29.219 C 31.272 30.072,30.060 31.272,29.193 31.885 C 25.117 34.769,25.400 24.536,25.400 169.000 C 25.400 312.811,25.150 303.330,29.011 305.958 C 29.786 306.485,30.985 307.565,31.677 308.358 C 35.546 312.793,28.952 312.504,132.400 312.772 C 204.197 312.958,220.823 313.098,221.800 313.528 C 223.123 314.110,229.335 320.531,230.600 322.623 C 233.430 327.306,235.352 329.353,234.036 326.284 C 233.631 325.340,233.169 323.945,233.008 323.184 C 232.471 320.641,231.537 319.197,229.755 318.152 C 227.929 317.083,226.648 315.725,225.535 313.679 C 223.944 310.756,232.773 311.029,130.800 310.753 C 26.749 310.473,34.886 310.798,32.708 306.825 C 32.272 306.030,31.346 305.266,30.213 304.765 C 26.610 303.171,26.800 310.747,26.800 168.743 C 26.800 26.717,26.585 35.106,30.268 33.200 C 31.739 32.439,32.439 31.739,33.200 30.268 C 34.546 27.666,34.526 27.673,42.449 27.214 C 51.951 26.664,348.449 26.664,357.951 27.214 C 365.874 27.673,365.854 27.666,367.200 30.268 C 367.940 31.698,368.689 32.463,370.081 33.214 C 372.558 34.550,372.505 34.478,372.923 37.114 C 373.123 38.371,373.402 69.370,373.543 106.000 C 373.831 180.625,373.546 174.336,376.708 175.957 C 378.365 176.807,379.453 177.905,380.713 180.000 C 381.792 181.794,382.367 182.125,386.221 183.169 C 387.969 183.642,389.940 184.394,390.600 184.840 C 391.435 185.403,391.289 185.175,390.123 184.091 C 389.201 183.234,387.311 181.860,385.923 181.038 C 381.633 178.495,376.417 173.255,375.658 170.723 C 375.091 168.834,374.993 161.465,374.771 104.000 C 374.487 30.451,374.682 34.369,371.195 31.885 C 370.334 31.272,369.128 30.072,368.515 29.219 C 366.978 27.080,366.409 26.803,362.245 26.169 C 357.088 25.384,42.792 25.411,37.772 26.197 M57.532 92.556 C 55.503 93.104,55.358 93.193,51.490 96.308 C 48.354 98.834,47.979 99.694,47.708 105.004 C 47.450 110.060,48.044 113.161,49.562 114.685 C 51.768 116.898,55.536 119.775,56.854 120.252 C 58.714 120.925,340.345 121.027,343.012 120.355 C 344.655 119.942,346.991 118.254,350.667 114.825 C 352.821 112.816,353.606 103.592,351.957 99.678 C 351.309 98.140,347.006 94.392,344.400 93.095 L 342.600 92.200 201.000 92.126 C 88.112 92.066,59.021 92.153,57.532 92.556 M343.456 95.396 C 344.525 96.164,346.232 97.235,347.248 97.776 C 350.992 99.771,351.775 101.555,351.541 107.550 C 351.385 111.524,350.834 112.712,348.454 114.200 C 347.119 115.035,345.678 116.014,343.029 117.889 L 341.458 119.000 200.377 119.102 L 59.295 119.203 57.348 117.829 C 56.276 117.072,54.590 115.962,53.600 115.360 C 49.454 112.842,48.800 111.612,48.800 106.339 C 48.800 101.380,49.555 99.778,52.712 98.037 C 53.970 97.343,55.875 96.151,56.944 95.388 L 58.887 94.000 200.200 94.000 L 341.513 94.000 343.456 95.396 M56.799 155.538 C 50.486 158.024,48.021 161.276,47.702 167.542 C 47.334 174.779,47.703 175.622,53.304 180.353 C 56.981 183.458,49.895 183.241,143.600 183.114 L 228.200 183.000 229.803 182.141 C 230.763 181.627,231.770 180.635,232.314 179.668 C 233.273 177.960,234.680 176.647,236.766 175.509 C 240.666 173.382,240.134 164.182,235.962 161.615 C 234.887 160.953,233.372 159.528,232.596 158.448 C 229.850 154.625,239.604 155.011,143.400 154.915 C 63.070 154.834,58.505 154.867,56.799 155.538 M228.607 157.861 C 229.491 158.334,231.696 160.265,233.507 162.151 L 236.800 165.581 236.786 168.691 C 236.778 170.401,236.553 172.178,236.286 172.640 C 235.344 174.270,228.403 180.361,226.899 180.879 C 225.698 181.293,208.906 181.416,142.351 181.501 L 59.302 181.607 57.351 180.231 C 56.278 179.474,54.208 178.128,52.751 177.240 C 47.209 173.860,46.950 163.605,52.334 160.675 C 53.390 160.100,55.316 158.990,56.614 158.208 L 58.974 156.787 142.987 156.894 L 227.000 157.000 228.607 157.861 M328.673 182.411 C 327.393 182.613,324.243 183.494,321.673 184.370 C 319.103 185.245,315.322 186.243,313.270 186.586 C 309.003 187.300,307.814 187.824,305.494 190.008 C 304.580 190.869,303.285 191.692,302.616 191.838 C 299.887 192.433,297.088 194.066,294.304 196.688 C 292.707 198.193,290.812 199.838,290.093 200.344 C 289.374 200.850,288.088 202.285,287.234 203.532 C 286.380 204.779,284.754 206.681,283.621 207.757 C 281.385 209.883,280.711 210.971,279.558 214.321 C 279.094 215.670,278.122 217.242,277.030 218.409 C 275.112 220.460,274.661 221.665,273.979 226.570 C 273.738 228.299,273.078 230.994,272.510 232.557 C 268.848 242.656,268.703 250.360,271.996 259.979 C 272.866 262.521,273.848 266.445,274.178 268.699 C 274.857 273.336,275.384 274.604,277.180 275.926 C 278.452 276.862,278.814 277.509,280.434 281.747 C 282.602 287.417,295.929 300.039,301.827 302.007 C 303.503 302.566,304.741 303.319,305.827 304.441 C 308.020 306.707,308.857 307.057,313.828 307.793 C 316.232 308.149,320.180 309.074,322.600 309.850 C 331.198 312.604,337.400 312.604,346.435 309.850 C 348.984 309.073,352.859 308.169,355.046 307.842 C 360.102 307.086,360.800 306.807,363.178 304.582 C 364.498 303.348,366.011 302.435,367.832 301.774 C 370.842 300.682,372.746 299.397,374.746 297.107 C 375.486 296.260,377.043 294.957,378.206 294.213 C 379.479 293.399,381.094 291.815,382.261 290.235 C 384.324 287.443,384.749 287.174,387.345 287.019 C 388.255 286.964,389.405 286.791,389.900 286.633 C 390.573 286.419,390.800 286.505,390.800 286.973 C 390.800 287.318,390.980 287.600,391.200 287.600 C 391.706 287.600,391.712 286.956,391.214 286.025 C 390.882 285.407,390.438 285.330,388.114 285.492 C 384.766 285.726,384.126 286.120,381.804 289.373 C 380.789 290.796,379.292 292.370,378.479 292.870 C 377.665 293.370,375.920 294.778,374.600 295.999 C 371.235 299.111,369.788 300.098,366.747 301.354 C 365.287 301.957,363.175 303.234,362.053 304.192 C 359.835 306.085,358.757 306.532,354.800 307.200 C 353.370 307.441,349.050 308.281,345.200 309.067 C 336.125 310.918,333.124 310.941,324.800 309.222 C 321.390 308.517,316.800 307.612,314.600 307.209 C 309.679 306.309,309.057 306.055,306.800 304.027 C 305.810 303.137,303.819 301.942,302.375 301.371 C 300.931 300.800,298.924 299.673,297.914 298.866 C 291.269 293.558,288.710 291.284,287.546 289.654 C 286.819 288.634,285.486 286.990,284.584 286.000 C 282.236 283.424,281.354 282.042,280.360 279.384 C 279.846 278.011,278.771 276.279,277.762 275.201 C 275.681 272.976,275.360 272.183,274.582 267.352 C 274.249 265.281,273.453 261.385,272.814 258.694 C 270.356 248.347,270.358 247.220,272.854 235.200 C 273.745 230.910,274.742 226.084,275.070 224.475 C 275.562 222.057,275.980 221.165,277.483 219.319 C 278.483 218.092,279.852 215.733,280.527 214.077 C 281.418 211.889,282.311 210.511,283.795 209.033 C 284.918 207.915,286.694 205.875,287.741 204.501 C 289.415 202.304,292.951 199.019,298.026 194.946 C 298.886 194.256,300.759 193.279,302.189 192.774 C 303.619 192.269,305.635 191.157,306.670 190.302 C 309.188 188.221,309.333 188.156,313.221 187.391 C 315.079 187.026,319.120 186.124,322.200 185.387 C 332.687 182.878,335.654 182.831,345.200 185.026 C 347.730 185.608,351.803 186.497,354.252 187.002 C 359.184 188.019,359.830 188.283,362.331 190.305 C 363.282 191.074,365.390 192.199,367.014 192.805 C 369.929 193.893,372.047 195.287,374.000 197.405 C 374.550 198.001,376.040 199.293,377.310 200.276 C 378.581 201.258,380.518 203.248,381.615 204.697 C 382.711 206.145,383.926 207.553,384.315 207.825 C 385.125 208.393,390.350 208.730,391.100 208.264 C 391.696 207.893,391.770 206.800,391.200 206.800 C 390.980 206.800,390.800 207.092,390.800 207.449 C 390.800 208.007,390.708 208.021,390.137 207.549 C 389.714 207.198,388.771 207.050,387.525 207.138 C 385.053 207.312,384.113 206.711,382.007 203.610 C 380.981 202.099,379.518 200.631,378.038 199.626 C 376.749 198.751,375.116 197.304,374.409 196.412 C 372.894 194.499,370.695 193.152,367.442 192.146 C 365.888 191.666,364.433 190.832,363.177 189.703 C 360.973 187.721,359.316 187.054,354.958 186.394 C 353.232 186.132,350.556 185.459,349.010 184.899 C 342.159 182.414,334.551 181.483,328.673 182.411 M56.632 218.000 C 55.550 218.426,54.110 219.292,53.432 219.925 C 52.755 220.559,51.514 221.584,50.676 222.204 C 46.437 225.340,46.402 238.206,50.626 240.816 C 51.364 241.272,52.805 242.337,53.829 243.183 C 56.946 245.759,54.033 245.643,112.400 245.516 C 172.973 245.384,167.246 245.731,170.056 242.031 C 170.795 241.058,172.210 239.699,173.200 239.010 C 177.774 235.826,177.865 227.074,173.354 224.188 C 171.982 223.310,170.759 222.095,169.990 220.846 C 167.672 217.079,173.125 217.412,112.200 217.313 C 60.031 217.228,58.547 217.246,56.632 218.000 M220.396 218.378 C 219.622 218.788,218.585 219.844,218.085 220.734 C 217.126 222.440,215.720 223.753,213.634 224.891 C 209.710 227.031,210.326 236.122,214.583 238.904 C 215.674 239.617,217.179 241.010,217.928 242.000 C 221.423 246.623,228.507 246.575,232.497 241.901 C 233.540 240.679,235.184 239.217,236.149 238.651 C 240.093 236.340,240.514 226.935,236.766 224.891 C 234.680 223.753,233.273 222.440,232.314 220.732 C 230.594 217.672,224.141 216.397,220.396 218.378 M165.332 219.902 C 166.837 220.570,173.114 226.314,173.832 227.680 C 175.671 231.179,174.433 235.127,170.253 239.098 C 164.652 244.418,169.779 244.001,110.080 243.993 L 59.400 243.987 57.800 243.009 C 56.920 242.471,55.325 241.529,54.255 240.916 C 49.473 238.173,48.800 236.987,48.801 231.313 C 48.801 226.205,49.336 225.088,52.684 223.201 C 54.051 222.430,56.022 221.211,57.066 220.491 L 58.963 219.183 111.581 219.291 C 152.736 219.376,164.447 219.509,165.332 219.902 M228.526 220.466 C 229.988 221.246,235.635 226.529,236.236 227.680 C 236.555 228.292,236.800 229.905,236.800 231.400 C 236.800 238.618,226.060 245.759,220.954 241.936 C 211.998 235.229,211.076 229.891,217.823 223.800 C 222.127 219.914,225.514 218.859,228.526 220.466 M390.786 308.963 C 390.464 309.273,388.670 309.996,386.800 310.570 C 382.345 311.938,381.733 312.281,380.723 313.975 C 379.497 316.029,378.078 317.471,376.732 318.028 C 373.875 319.212,373.823 319.588,373.600 340.800 C 373.386 361.156,373.307 361.919,371.465 361.468 C 365.615 360.036,365.425 359.951,363.600 357.981 C 361.673 355.901,359.541 354.802,355.807 353.967 C 353.913 353.543,353.353 353.225,352.837 352.283 C 351.367 349.602,350.874 349.267,346.273 347.831 C 342.808 346.750,341.503 346.141,340.588 345.178 C 337.388 341.812,332.599 341.577,329.231 344.620 C 327.584 346.108,324.292 347.713,321.392 348.444 C 319.432 348.937,317.788 350.291,316.740 352.277 C 316.179 353.338,315.726 353.600,313.740 354.010 C 310.599 354.658,308.572 355.722,306.327 357.900 C 304.480 359.692,303.629 360.045,297.735 361.471 C 295.895 361.916,295.814 361.141,295.600 341.000 C 295.372 319.582,295.492 320.347,291.952 317.804 C 290.872 317.028,289.447 315.513,288.785 314.438 C 285.820 309.619,276.456 309.790,274.123 314.706 C 273.493 316.034,272.552 316.910,270.025 318.523 C 268.871 319.259,268.408 320.044,267.149 323.400 C 266.323 325.600,265.448 327.760,265.204 328.200 C 264.504 329.463,265.874 327.771,267.800 324.993 C 269.708 322.241,276.979 314.170,277.852 313.836 C 278.189 313.706,279.911 313.600,281.679 313.600 L 284.892 313.600 288.072 316.694 C 293.906 322.372,293.674 321.320,293.964 343.400 C 294.255 365.578,294.805 367.922,298.760 363.841 C 299.674 362.898,301.140 362.102,303.546 361.241 C 305.778 360.442,307.720 359.417,308.995 358.363 C 311.266 356.487,313.214 355.424,315.150 355.006 C 315.962 354.831,317.453 353.839,318.889 352.518 C 321.344 350.261,323.731 348.989,327.623 347.865 C 328.846 347.511,330.646 346.681,331.623 346.018 C 333.875 344.492,335.324 344.492,337.575 346.017 C 338.552 346.679,340.892 347.687,342.775 348.259 C 347.287 349.627,348.189 350.113,350.804 352.588 C 352.519 354.211,353.484 354.788,355.151 355.188 C 356.533 355.520,358.163 356.357,359.748 357.551 C 363.263 360.197,363.944 360.593,366.368 361.393 C 367.634 361.811,369.250 362.767,370.249 363.688 C 374.292 367.415,374.760 365.526,374.782 345.390 C 374.800 329.840,375.149 324.022,376.184 322.042 C 377.078 320.331,384.033 313.834,386.403 312.496 C 388.408 311.364,392.102 308.457,391.586 308.417 C 391.468 308.407,391.108 308.653,390.786 308.963 " stroke="none" fill="#e4e4e4" fill-rule="evenodd"></path><path id="path6" d="M37.840 28.440 C 35.049 28.849,35.280 28.667,34.231 31.297 C 33.462 33.225,33.218 33.465,31.208 34.267 C 29.558 34.925,28.920 35.416,28.613 36.269 C 28.042 37.856,28.047 300.157,28.618 301.750 C 28.936 302.635,29.522 303.084,31.157 303.694 C 33.087 304.414,33.368 304.680,34.213 306.591 C 34.917 308.183,35.419 308.775,36.272 309.019 C 36.892 309.197,79.160 309.446,130.200 309.571 C 221.966 309.797,223.018 309.809,224.600 310.600 C 226.089 311.344,226.490 311.885,227.992 315.173 C 228.267 315.776,228.499 315.918,230.880 316.936 C 233.007 317.845,233.586 319.020,234.189 323.658 C 234.483 325.922,234.921 327.840,235.162 327.921 C 235.403 328.001,235.600 328.412,235.600 328.833 C 235.600 329.575,236.077 329.600,250.103 329.600 L 264.605 329.600 265.062 328.100 C 265.533 326.555,266.195 323.379,266.618 320.640 C 266.899 318.822,268.547 316.972,270.249 316.567 C 271.598 316.245,272.800 315.296,272.800 314.552 C 272.800 311.262,274.942 310.200,281.580 310.200 C 287.794 310.200,288.762 310.541,289.864 313.120 C 290.212 313.934,290.626 314.870,290.785 315.200 C 290.943 315.530,291.776 316.134,292.636 316.542 C 296.574 318.409,296.480 317.863,296.762 340.600 L 297.000 359.800 299.520 359.682 C 302.935 359.523,303.827 359.108,304.785 357.229 C 305.783 355.273,306.383 354.930,311.185 353.577 C 314.967 352.511,314.972 352.508,316.023 350.557 C 317.122 348.519,317.380 348.365,321.800 347.127 C 323.358 346.691,324.011 346.243,324.755 345.102 C 327.921 340.246,340.992 340.160,344.147 344.975 C 344.962 346.220,346.345 346.925,349.200 347.551 C 351.820 348.126,352.346 348.487,353.704 350.643 C 354.653 352.151,355.028 352.375,358.269 353.369 C 363.253 354.898,363.557 355.053,364.319 356.444 C 365.677 358.924,366.091 359.210,368.952 359.653 C 372.628 360.222,372.386 361.417,372.397 342.600 C 372.409 320.740,372.771 317.903,375.681 316.823 C 378.239 315.874,378.097 316.018,379.336 313.120 C 380.229 311.028,381.332 310.468,385.756 309.856 C 387.893 309.560,389.849 309.111,390.101 308.859 C 390.354 308.606,390.974 308.400,391.480 308.400 L 392.400 308.400 392.353 296.700 C 392.320 288.273,392.206 285.608,391.946 287.174 C 391.555 289.529,391.200 290.299,391.200 288.790 C 391.200 287.878,391.182 287.872,390.632 288.624 C 390.202 289.212,389.535 289.415,387.880 289.460 C 385.124 289.536,384.280 289.993,383.401 291.886 C 382.385 294.074,381.653 294.781,379.349 295.803 C 377.644 296.559,377.103 297.072,376.149 298.835 C 375.034 300.894,374.888 301.001,371.200 302.477 C 368.357 303.615,367.008 304.413,365.845 305.643 C 363.865 307.736,362.677 308.210,358.000 308.773 C 352.632 309.419,352.630 309.419,350.400 311.400 C 348.146 313.402,348.021 313.446,343.000 313.998 C 336.824 314.677,325.908 314.368,321.707 313.395 C 321.215 313.281,319.907 312.383,318.800 311.400 C 316.563 309.413,316.516 309.397,311.282 308.802 C 306.613 308.271,304.822 307.558,303.254 305.607 C 302.280 304.395,301.302 303.796,298.707 302.823 C 294.123 301.103,293.657 300.785,292.457 298.560 C 291.694 297.146,290.942 296.377,289.753 295.800 C 287.455 294.683,286.875 294.122,285.773 291.946 C 285.042 290.504,284.362 289.818,282.975 289.121 C 280.888 288.072,280.509 287.506,278.745 282.809 C 277.837 280.390,277.078 279.072,276.099 278.209 C 274.087 276.437,273.668 275.356,272.820 269.728 C 272.080 264.821,272.002 264.593,270.621 263.290 C 267.914 260.736,267.218 257.410,267.210 247.000 C 267.203 237.013,267.996 233.186,270.578 230.750 C 272.017 229.393,272.080 229.212,272.841 224.234 C 273.706 218.575,274.068 217.638,276.168 215.620 C 277.119 214.705,278.017 213.169,278.827 211.067 C 280.442 206.880,280.918 206.221,283.049 205.219 C 284.596 204.492,285.003 204.028,285.941 201.927 C 286.929 199.715,287.242 199.382,289.217 198.441 C 291.017 197.582,291.594 197.039,292.504 195.340 C 293.579 193.334,293.711 193.240,297.490 191.775 C 300.294 190.689,301.881 189.795,303.205 188.556 C 305.527 186.384,306.341 186.079,312.179 185.185 C 316.746 184.486,317.018 184.391,318.309 183.022 C 320.814 180.367,324.466 179.600,334.600 179.600 C 344.722 179.600,348.387 180.368,350.881 183.011 C 352.157 184.364,352.461 184.471,357.071 185.211 C 363.123 186.182,363.722 186.414,365.753 188.566 C 367.097 189.991,368.083 190.552,371.116 191.616 C 374.915 192.950,375.592 193.495,376.721 196.123 C 377.052 196.892,377.864 197.538,379.302 198.176 C 381.769 199.270,382.494 199.999,383.415 202.312 C 384.166 204.198,385.094 204.891,386.725 204.785 C 389.527 204.603,390.344 204.794,390.644 205.700 L 390.941 206.600 391.207 205.600 C 391.427 204.768,391.542 204.970,391.889 206.800 C 392.221 208.559,392.314 206.653,392.352 197.300 C 392.399 185.784,392.387 185.600,391.586 185.600 C 391.138 185.600,390.373 185.345,389.886 185.033 C 389.399 184.721,387.380 184.272,385.400 184.036 C 381.248 183.539,380.086 182.880,379.200 180.516 C 378.481 178.597,377.705 177.600,376.931 177.600 C 375.615 177.600,374.065 176.352,373.350 174.715 C 372.629 173.067,372.592 170.342,372.384 105.200 C 372.145 30.158,372.387 35.541,369.192 34.267 C 367.163 33.458,366.942 33.237,366.133 31.208 C 365.475 29.556,364.984 28.921,364.131 28.615 C 362.710 28.105,41.297 27.933,37.840 28.440 M347.000 92.140 C 351.570 93.832,353.604 98.160,353.597 106.173 C 353.588 116.177,350.742 120.395,343.200 121.584 C 338.651 122.301,59.682 122.131,56.273 121.408 C 49.363 119.944,46.800 115.868,46.800 106.341 C 46.800 96.914,49.210 92.888,55.600 91.637 C 59.709 90.832,344.797 91.325,347.000 92.140 M226.915 153.978 C 231.490 154.387,232.466 154.890,233.712 157.480 C 234.200 158.495,234.870 159.455,235.200 159.614 C 235.530 159.773,236.466 160.188,237.280 160.536 C 239.862 161.639,240.200 162.603,240.200 168.851 C 240.200 175.170,239.823 176.115,236.864 177.215 C 234.800 177.982,234.382 178.400,233.615 180.464 C 232.724 182.861,231.554 183.549,227.596 184.004 C 221.578 184.695,59.589 184.511,56.273 183.808 C 49.447 182.362,46.821 178.303,46.806 169.173 C 46.789 158.835,49.334 155.175,57.355 154.000 C 60.253 153.575,222.173 153.555,226.915 153.978 M168.082 216.733 C 169.744 217.288,171.147 218.833,171.474 220.469 C 171.743 221.817,172.566 222.560,174.467 223.170 C 177.046 223.997,177.400 225.000,177.400 231.471 C 177.400 238.334,177.182 238.827,173.404 240.483 C 172.615 240.829,171.906 241.645,171.316 242.886 C 170.131 245.383,169.138 245.950,165.153 246.408 C 159.251 247.087,59.555 246.904,56.273 246.208 C 48.804 244.626,46.441 240.440,46.889 229.578 C 47.251 220.782,49.834 217.527,57.355 216.390 C 61.003 215.839,166.381 216.165,168.082 216.733 M231.871 217.441 C 232.492 217.904,233.278 219.031,233.618 219.945 C 234.383 222.003,234.905 222.491,237.276 223.360 C 242.037 225.106,241.788 238.141,236.959 240.000 C 234.707 240.867,234.504 241.049,233.649 242.983 C 232.372 245.869,231.502 246.200,225.200 246.200 C 218.898 246.200,218.028 245.869,216.751 242.983 C 215.896 241.049,215.693 240.867,213.441 240.000 C 210.710 238.949,210.221 237.843,210.057 232.341 C 209.867 225.968,210.418 224.354,213.124 223.356 C 215.580 222.451,216.184 221.899,216.735 220.059 C 217.655 216.987,219.177 216.397,225.871 216.515 C 230.117 216.589,230.887 216.708,231.871 217.441 " stroke="none" fill="#fcfcfc" fill-rule="evenodd"></path><path id="path7" d="M41.289 27.245 C 34.709 27.622,34.536 27.687,33.200 30.268 C 32.439 31.739,31.739 32.439,30.268 33.200 C 26.585 35.106,26.800 26.717,26.800 168.743 C 26.800 310.747,26.610 303.171,30.213 304.765 C 31.346 305.266,32.272 306.030,32.708 306.825 C 34.886 310.798,26.749 310.473,130.800 310.753 C 232.773 311.029,223.944 310.756,225.535 313.679 C 226.648 315.725,227.929 317.083,229.755 318.152 C 231.535 319.196,232.471 320.641,233.006 323.175 C 233.355 324.828,234.865 328.281,234.591 326.800 C 234.490 326.250,234.242 324.399,234.040 322.686 C 233.614 319.063,232.925 317.810,230.880 316.936 C 228.499 315.918,228.267 315.776,227.992 315.173 C 226.490 311.885,226.089 311.344,224.600 310.600 C 223.018 309.809,221.966 309.797,130.200 309.571 C 79.160 309.446,36.892 309.197,36.272 309.019 C 35.419 308.775,34.917 308.183,34.213 306.591 C 33.368 304.680,33.087 304.414,31.157 303.694 C 29.522 303.084,28.936 302.635,28.618 301.750 C 28.047 300.157,28.042 37.856,28.613 36.269 C 28.920 35.416,29.558 34.925,31.208 34.267 C 33.237 33.458,33.458 33.237,34.267 31.208 C 34.925 29.558,35.417 28.920,36.269 28.613 C 37.844 28.045,362.556 28.045,364.131 28.613 C 364.983 28.920,365.475 29.558,366.133 31.208 C 366.942 33.237,367.163 33.458,369.192 34.267 C 372.387 35.541,372.145 30.158,372.384 105.200 C 372.592 170.342,372.629 173.067,373.350 174.715 C 374.065 176.352,375.615 177.600,376.931 177.600 C 377.705 177.600,378.481 178.597,379.200 180.516 C 380.086 182.880,381.248 183.539,385.400 184.036 C 387.380 184.272,389.421 184.736,389.935 185.065 C 390.449 185.394,390.959 185.574,391.069 185.464 C 391.483 185.050,389.292 184.017,386.221 183.177 C 382.363 182.123,381.790 181.792,380.713 180.000 C 379.453 177.905,378.365 176.807,376.708 175.957 C 373.546 174.336,373.831 180.625,373.543 106.000 C 373.402 69.370,373.123 38.371,372.923 37.114 C 372.505 34.478,372.558 34.550,370.081 33.214 C 368.689 32.463,367.940 31.698,367.200 30.268 C 365.854 27.666,365.874 27.673,357.951 27.214 C 349.509 26.725,49.849 26.754,41.289 27.245 M55.600 91.637 C 49.210 92.888,46.800 96.914,46.800 106.341 C 46.800 115.868,49.363 119.944,56.273 121.408 C 59.682 122.131,338.651 122.301,343.200 121.584 C 350.742 120.395,353.588 116.177,353.597 106.173 C 353.604 98.160,351.570 93.832,347.000 92.140 C 344.797 91.325,59.709 90.832,55.600 91.637 M344.400 93.095 C 347.006 94.392,351.309 98.140,351.957 99.678 C 353.606 103.592,352.821 112.816,350.667 114.825 C 346.991 118.254,344.655 119.942,343.012 120.355 C 340.345 121.027,58.714 120.925,56.854 120.252 C 55.536 119.775,51.768 116.898,49.562 114.685 C 48.044 113.161,47.450 110.060,47.708 105.004 C 48.011 99.080,48.495 98.314,54.886 93.630 C 57.096 92.011,53.476 92.048,201.000 92.126 L 342.600 92.200 344.400 93.095 M57.355 154.000 C 49.334 155.175,46.789 158.835,46.806 169.173 C 46.821 178.303,49.447 182.362,56.273 183.808 C 59.589 184.511,221.578 184.695,227.596 184.004 C 231.554 183.549,232.724 182.861,233.615 180.464 C 234.382 178.400,234.800 177.982,236.864 177.215 C 239.823 176.115,240.200 175.170,240.200 168.851 C 240.200 162.603,239.862 161.639,237.280 160.536 C 236.466 160.188,235.530 159.773,235.200 159.614 C 234.870 159.455,234.200 158.495,233.712 157.480 C 232.466 154.890,231.490 154.387,226.915 153.978 C 222.173 153.555,60.253 153.575,57.355 154.000 M229.693 155.742 C 230.514 156.150,231.820 157.368,232.596 158.448 C 233.372 159.528,234.887 160.953,235.962 161.615 C 240.134 164.182,240.666 173.382,236.766 175.509 C 234.680 176.647,233.273 177.960,232.314 179.668 C 231.770 180.635,230.763 181.627,229.803 182.141 L 228.200 183.000 143.600 183.114 C 49.895 183.241,56.981 183.458,53.304 180.353 C 47.703 175.622,47.334 174.779,47.702 167.542 C 48.021 161.276,50.486 158.024,56.799 155.538 C 59.664 154.411,227.413 154.609,229.693 155.742 M325.059 180.063 C 321.444 180.476,320.193 181.024,318.309 183.022 C 317.018 184.391,316.746 184.486,312.179 185.185 C 306.341 186.079,305.527 186.384,303.205 188.556 C 301.881 189.795,300.294 190.689,297.490 191.775 C 293.711 193.240,293.579 193.334,292.504 195.340 C 291.594 197.039,291.017 197.582,289.217 198.441 C 287.242 199.382,286.929 199.715,285.941 201.927 C 285.003 204.028,284.596 204.492,283.049 205.219 C 280.918 206.221,280.442 206.880,278.827 211.067 C 278.017 213.169,277.119 214.705,276.168 215.620 C 274.068 217.638,273.706 218.575,272.841 224.234 C 272.080 229.212,272.017 229.393,270.578 230.750 C 267.996 233.186,267.203 237.013,267.210 247.000 C 267.218 257.410,267.914 260.736,270.621 263.290 C 272.002 264.593,272.080 264.821,272.820 269.728 C 273.668 275.356,274.087 276.437,276.099 278.209 C 277.078 279.072,277.837 280.390,278.745 282.809 C 280.509 287.506,280.888 288.072,282.975 289.121 C 284.362 289.818,285.042 290.504,285.773 291.946 C 286.875 294.122,287.455 294.683,289.753 295.800 C 290.942 296.377,291.694 297.146,292.457 298.560 C 293.657 300.785,294.123 301.103,298.707 302.823 C 301.302 303.796,302.280 304.395,303.254 305.607 C 304.822 307.558,306.613 308.271,311.282 308.802 C 316.516 309.397,316.563 309.413,318.800 311.400 C 321.054 313.402,321.179 313.446,326.200 313.998 C 332.376 314.677,343.292 314.368,347.493 313.395 C 347.985 313.281,349.293 312.383,350.400 311.400 C 352.630 309.419,352.632 309.419,358.000 308.773 C 362.677 308.210,363.865 307.736,365.845 305.643 C 367.008 304.413,368.357 303.615,371.200 302.477 C 374.888 301.001,375.034 300.894,376.149 298.835 C 377.103 297.072,377.644 296.559,379.349 295.803 C 381.653 294.781,382.385 294.074,383.401 291.886 C 384.280 289.993,385.124 289.536,387.880 289.460 C 389.488 289.416,390.206 289.207,390.600 288.667 C 391.107 287.974,391.145 287.985,391.313 288.867 C 391.473 289.707,391.496 289.691,391.546 288.700 C 391.575 288.095,391.420 287.600,391.200 287.600 C 390.980 287.600,390.800 287.318,390.800 286.973 C 390.800 286.505,390.573 286.419,389.900 286.633 C 389.405 286.791,388.255 286.964,387.345 287.019 C 384.749 287.174,384.324 287.443,382.261 290.235 C 381.094 291.815,379.479 293.399,378.206 294.213 C 377.043 294.957,375.486 296.260,374.746 297.107 C 372.746 299.397,370.842 300.682,367.832 301.774 C 366.011 302.435,364.498 303.348,363.178 304.582 C 360.800 306.807,360.102 307.086,355.046 307.842 C 352.859 308.169,348.984 309.073,346.435 309.850 C 337.400 312.604,331.198 312.604,322.600 309.850 C 320.180 309.074,316.232 308.149,313.828 307.793 C 308.857 307.057,308.020 306.707,305.827 304.441 C 304.741 303.319,303.503 302.566,301.827 302.007 C 295.929 300.039,282.602 287.417,280.434 281.747 C 278.814 277.509,278.452 276.862,277.180 275.926 C 275.384 274.604,274.857 273.336,274.178 268.699 C 273.848 266.445,272.866 262.521,271.996 259.979 C 268.703 250.360,268.848 242.656,272.510 232.557 C 273.078 230.994,273.738 228.299,273.979 226.570 C 274.661 221.665,275.112 220.460,277.030 218.409 C 278.122 217.242,279.094 215.670,279.558 214.321 C 280.711 210.971,281.385 209.883,283.621 207.757 C 284.754 206.681,286.380 204.779,287.234 203.532 C 288.088 202.285,289.374 200.850,290.093 200.344 C 290.812 199.838,292.707 198.193,294.304 196.688 C 297.088 194.066,299.887 192.433,302.616 191.838 C 303.285 191.692,304.580 190.869,305.494 190.008 C 307.814 187.824,309.003 187.300,313.270 186.586 C 315.322 186.243,319.079 185.254,321.621 184.388 C 331.251 181.108,338.955 181.252,349.010 184.899 C 350.556 185.459,353.232 186.132,354.958 186.394 C 359.316 187.054,360.973 187.721,363.177 189.703 C 364.433 190.832,365.888 191.666,367.442 192.146 C 370.695 193.152,372.894 194.499,374.409 196.412 C 375.116 197.304,376.749 198.751,378.038 199.626 C 379.518 200.631,380.981 202.099,382.007 203.610 C 384.113 206.711,385.053 207.312,387.525 207.138 C 388.771 207.050,389.714 207.198,390.137 207.549 C 390.708 208.021,390.800 208.007,390.800 207.449 C 390.800 207.092,390.980 206.800,391.200 206.800 C 391.420 206.800,391.582 206.305,391.560 205.700 L 391.520 204.600 391.231 205.600 L 390.941 206.600 390.644 205.700 C 390.344 204.794,389.527 204.603,386.725 204.785 C 385.094 204.891,384.166 204.198,383.415 202.312 C 382.494 199.999,381.769 199.270,379.302 198.176 C 377.864 197.538,377.052 196.892,376.721 196.123 C 375.592 193.495,374.915 192.950,371.116 191.616 C 368.083 190.552,367.097 189.991,365.753 188.566 C 363.722 186.414,363.123 186.182,357.071 185.211 C 352.461 184.471,352.157 184.364,350.881 183.011 C 347.924 179.877,337.307 178.665,325.059 180.063 M57.355 216.390 C 49.834 217.527,47.251 220.782,46.889 229.578 C 46.441 240.440,48.804 244.626,56.273 246.208 C 59.555 246.904,159.251 247.087,165.153 246.408 C 169.138 245.950,170.131 245.383,171.316 242.886 C 171.906 241.645,172.615 240.829,173.404 240.483 C 177.182 238.827,177.400 238.334,177.400 231.471 C 177.400 225.000,177.046 223.997,174.467 223.170 C 172.566 222.560,171.743 221.817,171.474 220.469 C 171.147 218.833,169.744 217.288,168.082 216.733 C 166.381 216.165,61.003 215.839,57.355 216.390 M219.857 216.791 C 218.213 217.313,217.259 218.312,216.735 220.059 C 216.184 221.899,215.580 222.451,213.124 223.356 C 208.363 225.111,208.612 238.141,213.441 240.000 C 215.693 240.867,215.896 241.049,216.751 242.983 C 218.028 245.869,218.898 246.200,225.200 246.200 C 231.502 246.200,232.372 245.869,233.649 242.983 C 234.504 241.049,234.707 240.867,236.959 240.000 C 239.690 238.949,240.179 237.843,240.343 232.341 C 240.533 225.966,239.982 224.352,237.276 223.360 C 234.905 222.491,234.383 222.003,233.618 219.945 C 232.553 217.079,231.501 216.613,225.871 216.515 C 223.192 216.468,220.486 216.592,219.857 216.791 M167.291 218.141 C 168.222 218.604,169.236 219.621,169.990 220.846 C 170.759 222.095,171.982 223.310,173.354 224.188 C 177.865 227.074,177.774 235.826,173.200 239.010 C 172.210 239.699,170.795 241.058,170.056 242.031 C 167.246 245.731,172.973 245.384,112.400 245.516 C 54.033 245.643,56.946 245.759,53.829 243.183 C 52.805 242.337,51.364 241.272,50.626 240.816 C 48.276 239.364,47.800 237.777,47.800 231.400 C 47.800 225.049,48.092 224.116,50.676 222.204 C 51.514 221.584,52.755 220.559,53.432 219.925 C 56.531 217.031,52.378 217.216,112.200 217.313 C 163.487 217.396,165.864 217.432,167.291 218.141 M229.919 218.359 C 230.798 218.807,231.777 219.778,232.314 220.732 C 233.273 222.440,234.680 223.753,236.766 224.891 C 240.514 226.935,240.093 236.340,236.149 238.651 C 235.184 239.217,233.540 240.679,232.497 241.901 C 228.507 246.575,221.423 246.623,217.928 242.000 C 217.179 241.010,215.674 239.617,214.583 238.904 C 210.326 236.122,209.710 227.031,213.634 224.891 C 215.720 223.753,217.126 222.440,218.085 220.734 C 219.806 217.672,226.097 216.409,229.919 218.359 M390.101 308.859 C 389.849 309.111,387.893 309.560,385.756 309.856 C 381.332 310.468,380.229 311.028,379.336 313.120 C 378.097 316.018,378.239 315.874,375.681 316.823 C 372.771 317.903,372.409 320.740,372.397 342.600 C 372.386 361.417,372.628 360.222,368.952 359.653 C 366.091 359.210,365.677 358.924,364.319 356.444 C 363.557 355.053,363.253 354.898,358.269 353.369 C 355.028 352.375,354.653 352.151,353.704 350.643 C 352.346 348.487,351.820 348.126,349.200 347.551 C 346.345 346.925,344.962 346.220,344.147 344.975 C 340.992 340.160,327.921 340.246,324.755 345.102 C 324.011 346.243,323.358 346.691,321.800 347.127 C 317.380 348.365,317.122 348.519,316.023 350.557 C 314.972 352.508,314.967 352.511,311.185 353.577 C 306.383 354.930,305.783 355.273,304.785 357.229 C 303.827 359.108,302.935 359.523,299.520 359.682 L 297.000 359.800 296.762 340.600 C 296.480 317.863,296.574 318.409,292.636 316.542 C 291.776 316.134,290.943 315.530,290.785 315.200 C 290.626 314.870,290.212 313.934,289.864 313.120 C 288.762 310.541,287.794 310.200,281.580 310.200 C 274.942 310.200,272.800 311.262,272.800 314.552 C 272.800 315.296,271.598 316.245,270.249 316.567 C 268.547 316.972,266.899 318.822,266.618 320.640 C 266.486 321.498,266.186 323.159,265.953 324.331 C 265.296 327.629,265.771 327.192,267.258 323.128 C 268.395 320.021,268.840 319.278,270.007 318.534 C 272.553 316.910,273.491 316.037,274.123 314.706 C 276.456 309.790,285.820 309.619,288.785 314.438 C 289.447 315.513,290.872 317.028,291.952 317.804 C 295.492 320.347,295.372 319.582,295.600 341.000 C 295.814 361.141,295.895 361.916,297.735 361.471 C 303.629 360.045,304.480 359.692,306.327 357.900 C 308.572 355.722,310.599 354.658,313.740 354.010 C 315.726 353.600,316.179 353.338,316.740 352.277 C 317.788 350.291,319.432 348.937,321.392 348.444 C 324.292 347.713,327.584 346.108,329.231 344.620 C 332.599 341.577,337.388 341.812,340.588 345.178 C 341.503 346.141,342.808 346.750,346.273 347.831 C 350.874 349.267,351.367 349.602,352.837 352.283 C 353.353 353.225,353.913 353.543,355.807 353.967 C 359.541 354.802,361.673 355.901,363.600 357.981 C 365.425 359.951,365.615 360.036,371.465 361.468 C 373.307 361.919,373.386 361.156,373.600 340.800 C 373.823 319.588,373.875 319.212,376.732 318.028 C 378.078 317.471,379.497 316.029,380.723 313.975 C 381.733 312.281,382.345 311.938,386.800 310.570 C 389.752 309.664,392.178 308.400,390.966 308.400 C 390.743 308.400,390.354 308.606,390.101 308.859 " stroke="none" fill="#f4f4f4" fill-rule="evenodd"></path></g></svg>