<svg xmlns="http://www.w3.org/2000/svg" viewBox="0 0 36.85 30.09"><defs><style>.a{fill:#7f7f7f;}</style></defs><title>gua</title><circle class="a" cx="9.98" cy="17.66" r="3.84"/><path class="a" d="M7.68,22.57v7.52l2.3-2.3,2.3,2.3V22.57a6,6,0,0,1-4.6,0Z"/><path class="a" d="M33.78,0H3.07A3.08,3.08,0,0,0,0,3.07V23A3.08,3.08,0,0,0,3.07,26.1H6.14V21.34a5.35,5.35,0,0,1-1.53-3.68A5.44,5.44,0,0,1,10,12.28a5.44,5.44,0,0,1,5.37,5.38,5.08,5.08,0,0,1-1.53,3.68V26.1h20A3.08,3.08,0,0,0,36.85,23v-20A3.08,3.08,0,0,0,33.78,0ZM32.24,18.43H23V16.89h9.21Zm0-4.61H18.43V12.28H32.24Zm0-4.61H4.61V7.68H32.24Z"/></svg>