<svg width="164" height="124" viewBox="0 0 164 124" fill="none" xmlns="http://www.w3.org/2000/svg">
<g opacity="0.4">
<circle cx="2" cy="2" r="2" fill="#463780"/>
<circle cx="22" cy="2" r="2" fill="#463780"/>
<circle cx="42" cy="2" r="2" fill="#463780"/>
<circle cx="62" cy="2" r="2" fill="#463780"/>
<circle cx="82" cy="2" r="2" fill="#463780"/>
<circle cx="102" cy="2" r="2" fill="#463780"/>
<circle cx="122" cy="2" r="2" fill="#463780"/>
<circle cx="142" cy="2" r="2" fill="#463780"/>
<circle cx="162" cy="2" r="2" fill="#463780"/>
<circle cx="2" cy="22" r="2" fill="#463780"/>
<circle cx="22" cy="22" r="2" fill="#463780"/>
<circle cx="42" cy="22" r="2" fill="#463780"/>
<circle cx="62" cy="22" r="2" fill="#463780"/>
<circle cx="82" cy="22" r="2" fill="#463780"/>
<circle cx="102" cy="22" r="2" fill="#463780"/>
<circle cx="122" cy="22" r="2" fill="#463780"/>
<circle cx="142" cy="22" r="2" fill="#463780"/>
<circle cx="162" cy="22" r="2" fill="#463780"/>
<circle cx="2" cy="42" r="2" fill="#463780"/>
<circle cx="22" cy="42" r="2" fill="#463780"/>
<circle cx="42" cy="42" r="2" fill="#463780"/>
<circle cx="62" cy="42" r="2" fill="#463780"/>
<circle cx="82" cy="42" r="2" fill="#463780"/>
<circle cx="102" cy="42" r="2" fill="#463780"/>
<circle cx="122" cy="42" r="2" fill="#463780"/>
<circle cx="142" cy="42" r="2" fill="#463780"/>
<circle cx="162" cy="42" r="2" fill="#463780"/>
<circle cx="2" cy="62" r="2" fill="#463780"/>
<circle cx="22" cy="62" r="2" fill="#463780"/>
<circle cx="42" cy="62" r="2" fill="#463780"/>
<circle cx="62" cy="62" r="2" fill="#463780"/>
<circle cx="82" cy="62" r="2" fill="#463780"/>
<circle cx="102" cy="62" r="2" fill="#463780"/>
<circle cx="122" cy="62" r="2" fill="#463780"/>
<circle cx="142" cy="62" r="2" fill="#463780"/>
<circle cx="162" cy="62" r="2" fill="#463780"/>
<circle cx="2" cy="82" r="2" fill="#463780"/>
<circle cx="22" cy="82" r="2" fill="#463780"/>
<circle cx="42" cy="82" r="2" fill="#463780"/>
<circle cx="62" cy="82" r="2" fill="#463780"/>
<circle cx="82" cy="82" r="2" fill="#463780"/>
<circle cx="102" cy="82" r="2" fill="#463780"/>
<circle cx="122" cy="82" r="2" fill="#463780"/>
<circle cx="142" cy="82" r="2" fill="#463780"/>
<circle cx="162" cy="82" r="2" fill="#463780"/>
<circle cx="2" cy="102" r="2" fill="#463780"/>
<circle cx="22" cy="102" r="2" fill="#463780"/>
<circle cx="42" cy="102" r="2" fill="#463780"/>
<circle cx="62" cy="102" r="2" fill="#463780"/>
<circle cx="82" cy="102" r="2" fill="#463780"/>
<circle cx="102" cy="102" r="2" fill="#463780"/>
<circle cx="122" cy="102" r="2" fill="#463780"/>
<circle cx="142" cy="102" r="2" fill="#463780"/>
<circle cx="162" cy="102" r="2" fill="#463780"/>
<circle cx="2" cy="122" r="2" fill="#463780"/>
<circle cx="22" cy="122" r="2" fill="#463780"/>
<circle cx="42" cy="122" r="2" fill="#463780"/>
<circle cx="62" cy="122" r="2" fill="#463780"/>
<circle cx="82" cy="122" r="2" fill="#463780"/>
<circle cx="102" cy="122" r="2" fill="#463780"/>
<circle cx="122" cy="122" r="2" fill="#463780"/>
<circle cx="142" cy="122" r="2" fill="#463780"/>
<circle cx="162" cy="122" r="2" fill="#463780"/>
</g>
</svg>
