<?xml version="1.0" encoding="utf-8"?>
<!-- Generator: Adobe Illustrator 16.0.0, SVG Export Plug-In . SVG Version: 6.00 Build 0)  -->
<!DOCTYPE svg PUBLIC "-//W3C//DTD SVG 1.1//EN" "http://www.w3.org/Graphics/SVG/1.1/DTD/svg11.dtd">
<svg version="1.1" id="Layer_1" xmlns="http://www.w3.org/2000/svg" xmlns:xlink="http://www.w3.org/1999/xlink" x="0px" y="0px"
	 width="476.964px" height="141.732px" viewBox="0 0 476.964 141.732" enable-background="new 0 0 476.964 141.732"
	 xml:space="preserve">
<g>
	<g>
		<path fill="#4F5263" d="M34.74,89.882H3.477v-9.34h31.264c1.538,0,2.704-0.356,3.476-1.062c0.744-0.693,1.118-1.655,1.118-2.853
			c0-1.319-0.363-2.293-1.078-2.896c-0.778-0.661-1.959-0.996-3.515-0.996H16.346c-2.017,0-3.873-0.302-5.538-0.905
			c-1.681-0.627-3.113-1.499-4.277-2.605c-1.164-1.098-2.073-2.428-2.708-3.96c-0.63-1.521-0.954-3.196-0.954-4.966
			c0-1.743,0.293-3.379,0.884-4.864c0.592-1.499,1.489-2.828,2.67-3.938c1.181-1.097,2.635-1.957,4.316-2.572
			c1.657-0.604,3.578-0.917,5.707-0.917h30.002v9.341H16.446c-1.267,0-2.232,0.312-2.885,0.928c-0.63,0.615-0.943,1.487-0.943,2.673
			s0.3,2.025,0.961,2.64c0.656,0.604,1.602,0.917,2.805,0.917h18.321c4.36,0,7.757,1.053,10.085,3.144
			c2.375,2.102,3.579,5.291,3.579,9.462c0,1.812-0.284,3.5-0.841,5.021c-0.562,1.567-1.42,2.941-2.561,4.105
			c-1.169,1.163-2.618,2.081-4.328,2.695C38.975,89.556,36.982,89.882,34.74,89.882z"/>
	</g>
	<g>
		<path fill="#4F5263" d="M79.764,89.882h-9.486V57.344H55.081v-9.339h39.878v9.339H79.762v32.537L79.764,89.882L79.764,89.882z"/>
	</g>
	<g>
		<path fill="#4F5263" d="M129.784,89.882h-9.733c-2.96,0-5.731-0.547-8.248-1.654c-2.527-1.098-4.742-2.606-6.57-4.509
			c-1.853-1.891-3.306-4.172-4.329-6.755c-1.026-2.605-1.544-5.436-1.544-8.422c0-3.029,0.521-5.849,1.544-8.376
			c1.033-2.54,2.512-4.731,4.367-6.521c1.864-1.789,4.072-3.198,6.578-4.161c2.509-0.984,5.264-1.477,8.201-1.477h9.733
			c3.043,0,5.878,0.503,8.422,1.499c2.545,0.996,4.77,2.415,6.616,4.229c1.846,1.823,3.288,4.015,4.294,6.521
			c1.01,2.482,1.521,5.278,1.521,8.286c0,3.021-0.516,5.852-1.538,8.422c-1.039,2.596-2.498,4.877-4.34,6.767
			c-1.84,1.891-4.055,3.411-6.587,4.508C135.634,89.332,132.812,89.882,129.784,89.882z M120.052,57.344
			c-1.613,0-3.129,0.28-4.515,0.853c-1.363,0.57-2.557,1.364-3.521,2.348c-0.99,1.008-1.772,2.215-2.334,3.624
			c-0.563,1.409-0.848,2.986-0.848,4.688c0,1.687,0.285,3.275,0.86,4.729c0.572,1.442,1.345,2.685,2.323,3.681
			c0.988,1.018,2.18,1.835,3.539,2.405c1.356,0.58,2.873,0.871,4.497,0.871h9.733c1.675,0,3.221-0.291,4.583-0.871
			c1.385-0.57,2.597-1.388,3.596-2.405c0.982-0.996,1.777-2.237,2.35-3.691c0.568-1.442,0.853-3.031,0.853-4.719
			c0-1.669-0.284-3.244-0.853-4.677c-0.561-1.409-1.351-2.629-2.344-3.624c-0.989-0.995-2.198-1.788-3.596-2.372
			c-1.386-0.559-2.924-0.839-4.589-0.839L120.052,57.344L120.052,57.344z"/>
	</g>
	<path fill="#4F5263" d="M195.707,77.802c1.812-0.727,3.38-1.724,4.652-3.009c1.375-1.366,2.432-2.717,3.15-4.642
		c0.643-1.711,0.994-3.611,1.057-5.692c0.006-0.225,0.012-0.6,0.012-0.835v-0.111c0-2.349-0.356-4.483-1.068-6.388
		c-0.719-1.923-1.774-3.59-3.149-4.965c-1.362-1.365-3.044-2.428-5.016-3.154c-1.937-0.716-4.139-1.085-6.786-1.007h-29.509h-0.483
		v41.882h9.706V78.975h16.071l10.03,10.904h13.561L195.707,77.802z M193.617,68.821c-1.039,1.085-2.661,1.645-4.827,1.645h-20.513
		V57.26h20.53c2.077,0,3.69,0.516,4.781,1.521c1.079,1.008,1.624,2.64,1.624,4.842C195.213,65.85,194.669,67.702,193.617,68.821z"/>
	<path fill="#4F5263" d="M243.355,50.3c-0.5-0.839-1.086-1.499-1.723-1.968c-1.441-1.106-3.906-1.12-5.438-0.034
		c-0.693,0.515-1.277,1.187-1.75,1.992l-24.148,39.592h10.889l5.967-9.933h23.068l6.008,9.933h11.322L243.355,50.3z M230.384,72.812
		l8.275-13.757l8.311,13.757H230.384z"/>
	<g>
		<path fill="#4F5263" d="M314.21,89.882h-25.385c-2.959,0-5.727-0.547-8.23-1.654c-2.533-1.098-4.738-2.616-6.557-4.497
			c-1.846-1.901-3.299-4.171-4.33-6.767s-1.549-5.424-1.549-8.422c0-3.041,0.527-5.849,1.561-8.376
			c1.023-2.526,2.49-4.731,4.354-6.521c1.861-1.789,4.076-3.198,6.594-4.161c2.506-0.984,5.264-1.477,8.184-1.477h22.941v9.341
			h-22.941c-1.613,0-3.123,0.291-4.51,0.851c-1.34,0.56-2.525,1.354-3.531,2.359c-0.973,0.994-1.754,2.201-2.318,3.61
			c-0.557,1.398-0.84,2.978-0.84,4.688c0,1.687,0.283,3.275,0.846,4.729c0.574,1.442,1.352,2.685,2.322,3.681
			c1,1.018,2.191,1.835,3.533,2.416c1.352,0.568,2.863,0.872,4.498,0.872h15.883v-7.817h-18.064v-8.232h27.543v25.377L314.21,89.882
			L314.21,89.882z"/>
	</g>
	<g>
		<path fill="#4F5263" d="M363.412,57.344h-38.285v-9.339h38.285V57.344z"/>
	</g>
	<g>
		<path fill="#4F5263" d="M363.472,89.882h-38.346V64.504h36.75v8.231h-27.277v7.807h28.875v9.34H363.472z"/>
	</g>
	<g>
		<path fill="#61C202" d="M402.357,89.882h-9.75c-2.961,0-5.725-0.547-8.234-1.654c-2.514-1.086-4.725-2.606-6.572-4.509
			c-1.859-1.901-3.326-4.183-4.328-6.767c-1.02-2.604-1.553-5.436-1.553-8.41c0-3.021,0.52-5.838,1.553-8.376
			c1.035-2.54,2.5-4.731,4.355-6.521c1.871-1.789,4.084-3.198,6.584-4.161c2.512-0.984,5.271-1.477,8.195-1.477h9.75
			c3.033,0,5.859,0.503,8.416,1.499c2.568,1.008,4.799,2.438,6.611,4.238c1.84,1.801,3.285,3.994,4.291,6.497
			c1.012,2.517,1.523,5.304,1.523,8.3c0.012,3.009-0.514,5.838-1.545,8.422c-1.023,2.583-2.479,4.864-4.336,6.767
			c-1.846,1.9-4.064,3.422-6.594,4.508C408.193,89.332,405.38,89.882,402.357,89.882z M392.607,57.344
			c-1.619,0-3.135,0.291-4.498,0.853c-1.361,0.57-2.549,1.364-3.531,2.348c-0.984,0.996-1.768,2.215-2.314,3.613
			c-0.57,1.397-0.859,2.986-0.859,4.698c0,1.697,0.289,3.286,0.852,4.719c0.566,1.442,1.35,2.685,2.328,3.691
			c0.984,1.018,2.17,1.835,3.535,2.405c1.354,0.58,2.859,0.871,4.482,0.871h9.76c1.654,0,3.199-0.291,4.574-0.871
			c1.375-0.57,2.594-1.388,3.6-2.405c0.971-0.996,1.766-2.228,2.354-3.691c0.553-1.453,0.842-3.042,0.842-4.719
			c0-1.656-0.289-3.234-0.852-4.678c-0.557-1.422-1.352-2.628-2.34-3.623c-1.01-0.995-2.209-1.801-3.59-2.358
			c-1.379-0.561-2.934-0.853-4.588-0.853H392.607z"/>
	</g>
	<g>
		<path fill="#61C202" d="M461.541,89.882h-31.258v-9.329h31.258c1.537,0,2.707-0.356,3.475-1.072
			c0.756-0.704,1.125-1.646,1.119-2.853c0.006-1.342-0.346-2.28-1.074-2.907c-0.777-0.649-1.961-0.984-3.52-0.984H443.15
			c-2.033,0-3.896-0.302-5.539-0.905c-1.684-0.627-3.129-1.499-4.285-2.605c-1.158-1.118-2.078-2.438-2.713-3.96
			c-0.621-1.53-0.934-3.196-0.934-4.966c0-1.731,0.293-3.365,0.875-4.864c0.607-1.521,1.51-2.854,2.682-3.949
			c1.186-1.084,2.635-1.944,4.303-2.549c1.682-0.616,3.602-0.93,5.715-0.93h29.984v9.34h-29.984c-1.271,0-2.25,0.312-2.885,0.928
			c-0.615,0.604-0.943,1.51-0.943,2.673c0,1.187,0.312,2.025,0.965,2.641c0.648,0.604,1.6,0.917,2.803,0.917h18.311
			c4.377,0,7.771,1.052,10.105,3.143c2.371,2.103,3.559,5.292,3.559,9.462c0,1.789-0.271,3.468-0.826,5.01
			c-0.592,1.6-1.459,2.987-2.588,4.116c-1.137,1.163-2.594,2.069-4.312,2.696C465.765,89.567,463.775,89.882,461.541,89.882z"/>
	</g>
</g>
</svg>
