<?xml version="1.0" encoding="UTF-8" standalone="no"?>
<svg width="440px" height="80px" viewBox="0 0 440 80" version="1.1" xmlns="http://www.w3.org/2000/svg" xmlns:xlink="http://www.w3.org/1999/xlink" xmlns:sketch="http://www.bohemiancoding.com/sketch/ns">
    <!-- Generator: Sketch 3.3.2 (12043) - http://www.bohemiancoding.com/sketch -->
    <title>MOWGLII</title>
    <desc>Created with Sketch.</desc>
    <defs></defs>
    <g id="Page-1" stroke="none" stroke-width="1" fill="none" fill-rule="evenodd" sketch:type="MSPage">
        <g id="MOWGLII" sketch:type="MSArtboardGroup" stroke="#3D8FFF" stroke-width="6" fill="#3D8FFF" stroke-linejoin="round">
            <path d="M9,69 L27,69 L27,47 L42,59 L57,47 L57,69 L75,69 L75,7 L42,33 L9,7 L9,69 Z M120.592,71.056 C138.544,71.056 154.208,56.976 154.208,38.848 C154.208,21.072 138.984,8.048 120.416,8.048 C102.464,8.048 86.976,21.6 86.976,39.552 C86.976,57.504 102.64,71.056 120.592,71.056 L120.592,71.056 Z M108.096,39.376 C108.096,32.424 113.464,26.352 120.416,26.352 C127.632,26.352 133.088,32.16 133.088,39.2 C133.088,46.24 127.456,52.136 120.416,52.048 C113.552,51.96 108.096,46.24 108.096,39.376 L108.096,39.376 Z M238.512,9.104 L216.336,9.104 L208.592,31.984 L197.592,8.048 L186.416,31.984 L178.672,9.104 L156.496,9.104 L183.776,71.056 L197.416,48.704 L211.232,71.056 L238.512,9.104 Z M304.16,26.352 C298.088,14.296 288.144,8.048 274.592,8.048 C254.528,8.048 240.8,21.952 240.8,40.784 C240.8,57.328 251.888,71.056 270.72,71.056 C279.52,71.056 284.976,68.24 292.016,63.664 L305,71 L305,43 L286.736,43 C284.624,48.528 280.048,52.224 273.888,52.224 C267.464,52.224 261.92,46.944 261.92,40.432 C261.92,33.128 267.288,26.704 274.592,26.704 C279.784,26.704 283.568,29.08 285.856,33.744 L304.16,26.352 Z M337,9 L317,9 L317,69 L363,69 L363,55 L337,55 L337,9 Z M397,69 L397,9 L375,9 L375,69 L397,69 Z M431,69 L431,9 L409,9 L409,69 L431,69 Z" id="MOWGLII" sketch:type="MSShapeGroup"></path>
        </g>
    </g>
</svg>
