<?xml version="1.0" encoding="utf-8"?>
<!-- Generated by IcoMoon.io -->
<!DOCTYPE svg PUBLIC "-//W3C//DTD SVG 1.1//EN" "http://www.w3.org/Graphics/SVG/1.1/DTD/svg11.dtd">
<svg version="1.1" xmlns="http://www.w3.org/2000/svg" xmlns:xlink="http://www.w3.org/1999/xlink" width="36" height="36" viewBox="0 0 36 36">
<g>
</g>
	<path d="M21.864 16.895c-0.444 0-0.79 0.126-1.035 0.379s-0.399 0.595-0.462 1.026h2.987c-0.031-0.46-0.186-0.808-0.461-1.048-0.277-0.238-0.62-0.357-1.029-0.357z" fill="#000000" />
	<path d="M15.539 18.476c-0.213-0.097-0.512-0.148-0.896-0.152h-2.208v2.39h2.176c0.388 0 0.692-0.052 0.908-0.157 0.394-0.196 0.589-0.568 0.589-1.119 0.001-0.467-0.189-0.788-0.57-0.963z" fill="#000000" />
	<path d="M15.565 16.618c0.241-0.148 0.364-0.411 0.364-0.786 0-0.419-0.16-0.695-0.481-0.829-0.277-0.093-0.631-0.14-1.059-0.14h-1.952v1.979h2.18c0.388 0 0.704-0.075 0.949-0.224z" fill="#000000" />
	<path d="M17.902 1.699c-8.949 0-16.203 7.254-16.203 16.204 0 8.948 7.254 16.203 16.203 16.203 8.949 0 16.203-7.254 16.203-16.203 0-8.949-7.254-16.204-16.203-16.204zM19.919 13.724h3.841v1.115h-3.841v-1.115zM17.602 20.995c-0.169 0.279-0.381 0.514-0.635 0.705-0.286 0.22-0.622 0.369-1.012 0.451-0.39 0.081-0.812 0.12-1.267 0.12h-4.040v-8.965h4.332c1.094 0.016 1.868 0.334 2.324 0.956 0.273 0.381 0.411 0.837 0.411 1.368 0 0.548-0.138 0.987-0.414 1.321-0.156 0.186-0.383 0.356-0.685 0.51 0.458 0.167 0.803 0.431 1.036 0.791 0.232 0.36 0.349 0.798 0.349 1.314 0 0.531-0.132 1.008-0.4 1.429zM25.154 19.444h-4.829c0.028 0.666 0.257 1.131 0.694 1.399 0.265 0.167 0.583 0.249 0.956 0.249 0.393 0 0.715-0.101 0.961-0.303 0.136-0.11 0.255-0.261 0.357-0.457h1.77c-0.047 0.392-0.261 0.793-0.643 1.198-0.593 0.644-1.425 0.967-2.493 0.967-0.883 0-1.662-0.272-2.335-0.816-0.676-0.543-1.012-1.429-1.012-2.653 0-1.15 0.303-2.031 0.911-2.644 0.61-0.612 1.4-0.919 2.371-0.919 0.577 0 1.097 0.103 1.559 0.311 0.463 0.207 0.845 0.534 1.144 0.981 0.274 0.394 0.45 0.851 0.53 1.371 0.047 0.305 0.066 0.744 0.057 1.316z" fill="#000000" />
</svg>
