<?xml version="1.0" encoding="utf-8"?>
<!-- Generated by IcoMoon.io -->
<!DOCTYPE svg PUBLIC "-//W3C//DTD SVG 1.1//EN" "http://www.w3.org/Graphics/SVG/1.1/DTD/svg11.dtd">
<svg version="1.1" xmlns="http://www.w3.org/2000/svg" xmlns:xlink="http://www.w3.org/1999/xlink" width="36" height="36" viewBox="0 0 36 36">
<g>
</g>
	<path d="M21.447 17.311c-0.645-0.023-0.827 0.519-0.882 0.961 0.195-0.032 0.402-0.045 0.619-0.039 0.405 0.015 0.779 0.101 1.079 0.234-0.003-0.457-0.102-1.132-0.817-1.156z" fill="#000000" />
	<path d="M17.902 1.699c-8.949 0-16.203 7.254-16.203 16.204 0 8.948 7.254 16.203 16.203 16.203 8.949 0 16.203-7.254 16.203-16.203 0-8.949-7.254-16.204-16.203-16.204zM11.464 13.996l2.921-2.897c0.006-0.006 0.012-0.008 0.017-0.009l-0.051 0.096c-0.108 0.215-0.17 0.472-0.17 0.765v0.004c0 0.358 0.018 1.647 0.018 1.647 0 0.086-0.069 0.156-0.156 0.156h-1.503c-0.001 0-0.001 0-0.001 0-0.369 0-0.677 0.063-0.932 0.178-0.012 0.005-0.095 0.045-0.155 0.076 0.003-0.006 0.007-0.013 0.012-0.016zM24.567 20.307c-0.209 2.272-0.556 3.623-0.699 4.067-0.724 2.244-1.34 2.302-3.092 2.302-2.235 0-2.919-0.332-2.919-2.12 0-1.969 0.926-2.011 2.5-1.967 0.225 0.006-0.013 0.227-0.013 0.608 0 0.382 0.148 0.536-0.056 0.536-0.455 0-1.070-0.066-1.070 0.555 0 0.769 0.369 0.744 1.336 0.744 1.194 0 1.422-0.149 1.422-1.236 0-1.787-0.506-2.060-1.201-2.14-0.771-0.092-1.528-0.207-1.894-0.335-0.925-0.329-0.859-1.554-0.859-1.901 0-0.052-0.073-0.049-0.073 0 0 0.491-0.035 1.168-0.287 1.932-0.078 0.22-0.136 0.37-0.136 0.373-0.291 0.608-0.777 0.4-1.554 0.3-0.777-0.099-2.437-0.444-3.164-0.756-0.326-0.152-0.436-0.295-0.603-0.638-0.428-0.883-0.879-3.785-0.934-4.201-0.066-0.537-0.069-0.814-0.069-0.814-0.001-0.34 0.034-0.672 0.234-0.942 0.101-0.136 0.234-0.251 0.421-0.336 0.187-0.085 0.433-0.139 0.753-0.139h1.503c0.328-0.001 0.592-0.266 0.593-0.592 0-0.002-0.005-0.33-0.009-0.697-0.004-0.366-0.009-0.777-0.009-0.951 0.001-0.308 0.079-0.529 0.2-0.702 0.18-0.258 0.503-0.425 0.796-0.507 0.368-0.103 1.801-0.193 2.727 0.181 0.349 0.14 0.66 0.545 0.724 0.988 0.54-0.016 1.434-0.023 2.193 0.066 0.944 0.112 1.697 0.251 2.067 0.384 0.344 0.124 0.724 0.44 0.843 1.078 0.205 1.093 0.462 5.427 0.33 6.862z" fill="#000000" />
</svg>
