<?xml version="1.0" encoding="utf-8"?>
<!-- Generated by IcoMoon.io -->
<!DOCTYPE svg PUBLIC "-//W3C//DTD SVG 1.1//EN" "http://www.w3.org/Graphics/SVG/1.1/DTD/svg11.dtd">
<svg version="1.1" xmlns="http://www.w3.org/2000/svg" xmlns:xlink="http://www.w3.org/1999/xlink" width="36" height="36" viewBox="0 0 36 36">
<g>
</g>
	<path d="M17.903 1.067c-8.949 0-16.204 7.254-16.204 16.203 0 8.949 7.254 16.203 16.204 16.203 8.948 0 16.203-7.254 16.203-16.203 0-8.949-7.254-16.203-16.203-16.203zM13.227 20.911c-2.012 0-3.642-1.631-3.642-3.642 0-2.007 1.63-3.639 3.642-3.639 1.998 0 3.628 1.632 3.628 3.639 0 2.010-1.63 3.642-3.628 3.642zM22.576 20.911c-2.008 0-3.64-1.631-3.64-3.642 0-2.007 1.632-3.639 3.64-3.639 2.018 0 3.642 1.632 3.642 3.639 0 2.010-1.624 3.642-3.642 3.642z" fill="#000000" />
</svg>
