<?xml version="1.0" encoding="utf-8"?>
<!-- Generated by IcoMoon.io -->
<!DOCTYPE svg PUBLIC "-//W3C//DTD SVG 1.1//EN" "http://www.w3.org/Graphics/SVG/1.1/DTD/svg11.dtd">
<svg version="1.1" xmlns="http://www.w3.org/2000/svg" xmlns:xlink="http://www.w3.org/1999/xlink" width="36" height="36" viewBox="0 0 36 36">
<g>
</g>
	<path d="M18.205 22.239c-0.033-0.114-0.096-0.23-0.18-0.351-0.082-0.122-0.15-0.226-0.21-0.307-0.060-0.084-0.152-0.184-0.267-0.3-0.123-0.117-0.213-0.198-0.277-0.257-0.072-0.061-0.18-0.145-0.327-0.263-0.155-0.112-0.255-0.19-0.311-0.224-0.061-0.044-0.175-0.124-0.344-0.24-0.159-0.109-0.258-0.184-0.304-0.206-0.105-0.016-0.28-0.024-0.502-0.024-0.368 0-0.728 0.026-1.075 0.071-0.347 0.049-0.719 0.129-1.088 0.254-0.38 0.117-0.707 0.276-1.002 0.462-0.277 0.192-0.507 0.446-0.689 0.757-0.188 0.323-0.269 0.685-0.269 1.091 0 0.457 0.106 0.864 0.355 1.224 0.243 0.363 0.551 0.644 0.938 0.851 0.387 0.203 0.792 0.36 1.223 0.459 0.419 0.1 0.855 0.153 1.287 0.153 0.39 0 0.774-0.042 1.129-0.124 0.365-0.090 0.707-0.218 1.021-0.397 0.324-0.179 0.572-0.428 0.76-0.746 0.181-0.316 0.276-0.685 0.276-1.113 0-0.143-0.015-0.277-0.051-0.409-0.033-0.134-0.061-0.25-0.093-0.362z" fill="#000000" />
	<path d="M16.689 15.912c0.296-0.409 0.448-0.949 0.448-1.624 0-0.408-0.058-0.833-0.172-1.29-0.114-0.458-0.272-0.898-0.478-1.321-0.201-0.427-0.492-0.777-0.854-1.057-0.355-0.274-0.757-0.415-1.206-0.415-0.63 0-1.108 0.237-1.458 0.7-0.347 0.468-0.515 1.025-0.515 1.671 0 0.319 0.042 0.648 0.113 1 0.079 0.351 0.201 0.704 0.361 1.053 0.163 0.349 0.348 0.671 0.565 0.947 0.222 0.282 0.481 0.508 0.792 0.687 0.308 0.169 0.639 0.261 0.99 0.261 0.654 0.001 1.122-0.203 1.415-0.612z" fill="#000000" />
	<path d="M17.903 1.699c-8.949 0-16.204 7.254-16.204 16.204 0 8.948 7.254 16.203 16.204 16.203 8.948 0 16.203-7.254 16.203-16.203 0-8.949-7.254-16.204-16.203-16.204zM18.351 24.997c-1.017 0.881-2.441 1.327-4.249 1.327-0.39 0-0.8-0.037-1.211-0.104-0.408-0.066-0.822-0.181-1.23-0.34-0.412-0.155-0.779-0.353-1.103-0.587-0.31-0.228-0.572-0.53-0.771-0.897-0.209-0.375-0.305-0.782-0.305-1.232 0-0.409 0.121-0.866 0.372-1.365 0.21-0.436 0.544-0.804 0.973-1.12 0.433-0.313 0.918-0.552 1.462-0.721 0.544-0.164 1.072-0.285 1.575-0.363 0.501-0.075 1.002-0.123 1.518-0.136-0.438-0.565-0.653-1.064-0.653-1.509 0-0.077 0.006-0.161 0.026-0.236 0.013-0.080 0.025-0.141 0.052-0.196 0.020-0.054 0.042-0.131 0.077-0.221 0.037-0.090 0.060-0.164 0.068-0.217-0.272 0.037-0.5 0.051-0.708 0.051-1 0-1.87-0.33-2.584-0.993-0.715-0.663-1.073-1.489-1.073-2.485 0-0.949 0.319-1.796 0.961-2.543 0.632-0.742 1.421-1.217 2.363-1.425 0.633-0.139 1.269-0.203 1.89-0.203h4.427l-1.365 0.8h-1.371c0.483 0.304 0.855 0.722 1.116 1.27 0.257 0.548 0.391 1.117 0.391 1.713 0 0.498-0.079 0.944-0.229 1.329-0.152 0.386-0.342 0.704-0.565 0.933-0.219 0.242-0.447 0.456-0.666 0.656-0.229 0.199-0.414 0.405-0.565 0.621-0.165 0.212-0.237 0.437-0.237 0.682 0 0.176 0.052 0.345 0.162 0.513 0.116 0.174 0.263 0.335 0.44 0.488 0.183 0.154 0.375 0.317 0.598 0.488 0.21 0.167 0.426 0.356 0.643 0.561 0.217 0.205 0.416 0.426 0.585 0.665 0.187 0.242 0.335 0.531 0.436 0.859 0.11 0.336 0.167 0.695 0.167 1.084 0.001 1.075-0.465 2.027-1.417 2.853zM26.324 13.364h-2.598v2.594h-1.298v-2.594h-2.579v-1.295h2.579v-2.588h1.298v2.588h2.598v1.295z" fill="#000000" />
</svg>
