<?xml version="1.0" encoding="utf-8"?>
<!-- Generated by IcoMoon.io -->
<!DOCTYPE svg PUBLIC "-//W3C//DTD SVG 1.1//EN" "http://www.w3.org/Graphics/SVG/1.1/DTD/svg11.dtd">
<svg version="1.1" xmlns="http://www.w3.org/2000/svg" xmlns:xlink="http://www.w3.org/1999/xlink" width="36" height="36" viewBox="0 0 36 36">
<g>
</g>
	<path d="M17.903 1.699c-8.949 0-16.204 7.254-16.204 16.203s7.254 16.203 16.204 16.203c8.948 0 16.203-7.254 16.203-16.203 0-8.949-7.254-16.203-16.203-16.203zM24.957 22.747c0 1.218-0.992 2.206-2.207 2.206h-9.694c-1.221 0-2.207-0.989-2.207-2.206v-5.667h2.87c-0.059 0.267-0.081 0.535-0.081 0.819 0 2.357 1.901 4.26 4.264 4.26 2.352 0 4.263-1.903 4.263-4.26 0-0.284-0.027-0.553-0.080-0.819h2.872v5.667zM15.277 17.899c0-1.451 1.177-2.629 2.624-2.629 1.451 0 2.621 1.177 2.621 2.629 0 1.458-1.17 2.625-2.621 2.625-1.446 0-2.624-1.168-2.624-2.625zM24.957 15.437h-3.572c-0.769-1.089-2.049-1.803-3.484-1.803-1.438 0-2.707 0.713-3.487 1.803h-3.566v-2.385c0-1.22 0.986-2.2 2.207-2.2h9.693c1.216 0 2.207 0.981 2.207 2.2v2.385z" fill="#000000" />
	<path d="M23.438 11.995h-1.185c-0.215 0-0.399 0.174-0.399 0.39v1.182c0 0.224 0.183 0.399 0.399 0.399h1.185c0.21 0 0.393-0.176 0.393-0.399v-1.182c0-0.216-0.181-0.39-0.393-0.39z" fill="#000000" />
</svg>
