<?xml version="1.0" encoding="utf-8"?>
<!-- Generated by IcoMoon.io -->
<!DOCTYPE svg PUBLIC "-//W3C//DTD SVG 1.1//EN" "http://www.w3.org/Graphics/SVG/1.1/DTD/svg11.dtd">
<svg version="1.1" xmlns="http://www.w3.org/2000/svg" xmlns:xlink="http://www.w3.org/1999/xlink" width="36" height="36" viewBox="0 0 36 36">
<g>
</g>
	<path d="M17.903 1.699c-8.949 0-16.204 7.254-16.204 16.203s7.254 16.203 16.204 16.203c8.948 0 16.203-7.254 16.203-16.203 0-8.949-7.254-16.203-16.203-16.203zM14.299 24.224h-2.741v-8.828h2.741v8.828zM12.918 14.315c-0.876 0-1.43-0.61-1.43-1.367 0-0.777 0.575-1.369 1.463-1.369 0.887 0 1.424 0.592 1.442 1.369 0 0.757-0.556 1.367-1.475 1.367zM24.316 24.225h-2.746v-4.89c0-1.14-0.394-1.912-1.388-1.912-0.755 0-1.213 0.518-1.407 1.023-0.076 0.186-0.092 0.439-0.092 0.689v5.091h-2.74v-6.009c0-1.105-0.039-2.025-0.076-2.819h2.382l0.131 1.234h0.051c0.361-0.581 1.249-1.428 2.726-1.428 1.797 0 3.158 1.211 3.158 3.809v5.213z" fill="#000000" />
</svg>
