<?xml version="1.0" encoding="utf-8"?>
<!-- Generated by IcoMoon.io -->
<!DOCTYPE svg PUBLIC "-//W3C//DTD SVG 1.1//EN" "http://www.w3.org/Graphics/SVG/1.1/DTD/svg11.dtd">
<svg version="1.1" xmlns="http://www.w3.org/2000/svg" xmlns:xlink="http://www.w3.org/1999/xlink" width="36" height="36" viewBox="0 0 36 36">
<g>
</g>
	<path d="M17.903 1.865c-8.949 0-16.204 7.254-16.204 16.203 0 8.948 7.254 16.203 16.203 16.203 8.949 0.001 16.203-7.254 16.203-16.203 0-8.949-7.254-16.203-16.203-16.203zM19.29 20.518l-3.236 3.236c-1.272 1.272-3.333 1.272-4.605 0-1.272-1.271-1.272-3.333 0-4.605l2.671-2.671c0.010-0.003 0.020-0.008 0.030-0.011 0.013-0.018 0.020-0.039 0.037-0.055 0.212-0.212 0.556-0.212 0.767 0 0.188 0.189 0.2 0.477 0.052 0.688 0.004 0.006 0.005 0.012 0.009 0.018l-2.543 2.543c-0.848 0.848-0.848 2.223 0 3.070 0.848 0.848 2.223 0.848 3.070 0l2.724-2.724c0.708-0.707 0.669-1.937 0.195-2.766 0.003-0.003 0.008-0.003 0.011-0.006-0.247-0.29-0.242-0.723 0.033-0.997 0.288-0.288 0.756-0.288 1.045 0 0.028 0.028 0.040 0.064 0.063 0.095l0.015-0.016c0.918 1.273 0.807 3.056-0.338 4.201zM24.356 16.988l-2.987 2.987c-0.001 0-0.003 0-0.004 0-0.213 0.205-0.549 0.204-0.759-0.006-0.212-0.212-0.212-0.556 0-0.767l2.726-2.727c0.848-0.848 0.848-2.222 0-3.070-0.848-0.848-2.223-0.848-3.070 0l-2.724 2.724c-0.799 0.8-0.835 2.061-0.128 2.915-0.002 0.001-0.003 0.004-0.005 0.005 0.233 0.287 0.225 0.704-0.040 0.97-0.282 0.282-0.733 0.284-1.019 0.011-0.001 0.001-0.002 0.002-0.003 0.003-0.002-0.003-0.003-0.006-0.006-0.008-0.002-0.002-0.004-0.003-0.006-0.004-0.027-0.027-0.039-0.061-0.060-0.090-1.010-1.278-0.935-3.133 0.244-4.312l3.236-3.236c1.272-1.272 3.334-1.272 4.605 0 1.271 1.272 1.271 3.333-0.001 4.605z" fill="#000000" />
</svg>
