<?xml version="1.0" encoding="utf-8"?>
<!-- Generated by IcoMoon.io -->
<!DOCTYPE svg PUBLIC "-//W3C//DTD SVG 1.1//EN" "http://www.w3.org/Graphics/SVG/1.1/DTD/svg11.dtd">
<svg version="1.1" xmlns="http://www.w3.org/2000/svg" xmlns:xlink="http://www.w3.org/1999/xlink" width="36" height="36" viewBox="0 0 36 36">
<g>
</g>
	<path d="M17.902 1.7c-8.949 0-16.203 7.254-16.203 16.203 0 8.948 7.254 16.203 16.203 16.203 8.949 0 16.203-7.254 16.203-16.203 0-8.949-7.254-16.203-16.203-16.203zM21.255 10.542c1.358 0 2.459 1.099 2.459 2.454 0 1.355-1.101 2.453-2.459 2.453-1.357 0-2.459-1.098-2.459-2.453 0.001-1.355 1.102-2.454 2.459-2.454zM16.785 11.435c0.996 0 1.803 0.806 1.803 1.799 0 0.994-0.807 1.799-1.803 1.799-0.995 0-1.803-0.805-1.803-1.799 0-0.993 0.808-1.799 1.803-1.799zM13.208 11.881c0.814 0 1.475 0.659 1.475 1.472s-0.661 1.473-1.475 1.473c-0.815 0-1.475-0.66-1.475-1.473 0-0.813 0.661-1.472 1.475-1.472zM24.609 19.463v5.8h-6.706v-3.034h-3.577v-1.515h-3.129v-3.48h0.006c-0.003-0.045-0.006-0.090-0.006-0.134 0-1.11 0.9-2.008 2.012-2.008 0.769 0 1.431 0.436 1.768 1.070 0.449-0.489 1.089-0.802 1.808-0.802 0.985 0 1.828 0.581 2.221 1.415 0.596-0.541 1.381-0.88 2.25-0.88 1.852 0 3.354 1.498 3.354 3.347 0 0.075-0.006 0.148-0.011 0.222h0.011z" fill="#000000" />
</svg>
