<?xml version="1.0" encoding="utf-8"?>
<!-- Generated by IcoMoon.io -->
<!DOCTYPE svg PUBLIC "-//W3C//DTD SVG 1.1//EN" "http://www.w3.org/Graphics/SVG/1.1/DTD/svg11.dtd">
<svg version="1.1" xmlns="http://www.w3.org/2000/svg" xmlns:xlink="http://www.w3.org/1999/xlink" width="36" height="36" viewBox="0 0 36 36">
<g>
</g>
	<path d="M17.903 1.699c-8.949 0-16.204 7.254-16.204 16.203s7.254 16.203 16.204 16.203c8.948 0 16.203-7.254 16.203-16.203 0-8.949-7.254-16.203-16.203-16.203zM18.736 21.972c-0.979-0.078-1.402-0.564-2.175-1.033-0.426 2.234-0.941 4.376-2.487 5.492-0.479-3.38 0.698-5.921 1.244-8.612-0.935-1.562 0.116-4.713 2.072-3.933 2.416 0.954-2.090 5.819 0.936 6.42 3.164 0.644 4.453-5.466 2.489-7.466-2.827-2.864-8.238-0.061-7.572 4.052 0.159 1 1.199 1.304 0.416 2.698-1.813-0.404-2.347-1.832-2.289-3.744 0.118-3.117 2.806-5.291 5.504-5.6 3.409-0.379 6.613 1.255 7.050 4.463 0.498 3.623-1.536 7.54-5.187 7.263z" fill="#000000" />
</svg>
