<?xml version="1.0" encoding="utf-8"?>
<!-- Generated by IcoMoon.io -->
<!DOCTYPE svg PUBLIC "-//W3C//DTD SVG 1.1//EN" "http://www.w3.org/Graphics/SVG/1.1/DTD/svg11.dtd">
<svg version="1.1" xmlns="http://www.w3.org/2000/svg" xmlns:xlink="http://www.w3.org/1999/xlink" width="36" height="36" viewBox="0 0 36 36">
<g>
</g>
	<path d="M17.903 1.7c-8.949 0-16.204 7.254-16.204 16.203 0 8.948 7.254 16.203 16.204 16.203 8.948 0 16.203-7.254 16.203-16.203 0-8.949-7.254-16.203-16.203-16.203zM12.756 24.93c-1.033 0-1.871-0.836-1.871-1.869 0-1.033 0.837-1.87 1.871-1.87 1.032 0 1.871 0.837 1.871 1.87 0.001 1.033-0.839 1.869-1.871 1.869zM17.449 24.947c0-1.764-0.684-3.426-1.924-4.672-1.238-1.244-2.876-1.93-4.64-1.93v-2.701c4.996 0 9.264 4.306 9.264 9.303h-2.701zM22.22 24.947c0-6.28-5.163-11.39-11.334-11.39v-2.7c7.641 0 14.034 6.32 14.034 14.090h-2.7z" fill="#000000" />
</svg>
