<?xml version="1.0" encoding="utf-8"?>
<!-- Generated by IcoMoon.io -->
<!DOCTYPE svg PUBLIC "-//W3C//DTD SVG 1.1//EN" "http://www.w3.org/Graphics/SVG/1.1/DTD/svg11.dtd">
<svg version="1.1" xmlns="http://www.w3.org/2000/svg" xmlns:xlink="http://www.w3.org/1999/xlink" width="36" height="36" viewBox="0 0 36 36">
<g>
</g>
	<path d="M21.084 17.683c-0.346-0.223-0.756-0.422-1.235-0.579-0.477-0.151-1.011-0.301-1.592-0.428-0.46-0.109-0.805-0.191-1.002-0.251-0.195-0.059-0.388-0.135-0.579-0.231-0.183-0.090-0.329-0.212-0.433-0.338-0.096-0.119-0.137-0.263-0.137-0.429 0-0.273 0.14-0.504 0.441-0.711 0.316-0.209 0.732-0.318 1.254-0.318 0.558 0 0.956 0.097 1.201 0.289 0.246 0.194 0.463 0.471 0.645 0.821 0.15 0.274 0.298 0.465 0.429 0.593 0.146 0.129 0.359 0.195 0.62 0.195 0.298 0 0.541-0.107 0.743-0.32 0.196-0.204 0.294-0.45 0.294-0.711 0-0.28-0.074-0.563-0.23-0.847-0.142-0.283-0.383-0.558-0.694-0.808-0.32-0.255-0.723-0.46-1.199-0.609-0.469-0.152-1.035-0.23-1.68-0.23-0.798 0-1.516 0.112-2.109 0.337-0.613 0.231-1.083 0.568-1.4 1.002-0.327 0.437-0.487 0.943-0.487 1.503 0 0.589 0.152 1.088 0.465 1.486 0.303 0.391 0.719 0.707 1.241 0.934 0.493 0.218 1.137 0.412 1.884 0.576 0.552 0.121 0.992 0.234 1.319 0.339 0.309 0.101 0.572 0.246 0.764 0.438 0.192 0.177 0.285 0.408 0.285 0.7 0 0.369-0.177 0.673-0.536 0.924-0.364 0.259-0.856 0.388-1.449 0.388-0.435 0-0.78-0.062-1.044-0.189-0.267-0.123-0.464-0.288-0.608-0.484-0.145-0.197-0.29-0.453-0.413-0.752-0.111-0.277-0.258-0.488-0.421-0.633-0.171-0.153-0.39-0.225-0.632-0.225-0.304 0-0.558 0.099-0.753 0.285-0.197 0.195-0.299 0.43-0.299 0.704 0 0.432 0.15 0.882 0.461 1.336 0.303 0.45 0.698 0.815 1.182 1.081 0.676 0.369 1.547 0.558 2.581 0.558 0.868 0 1.623-0.141 2.253-0.406 0.633-0.273 1.132-0.66 1.462-1.148 0.34-0.483 0.505-1.038 0.502-1.648 0-0.513-0.1-0.947-0.293-1.311-0.192-0.352-0.465-0.653-0.802-0.883z" fill="#000000" />
	<path d="M17.903 1.699c-8.949 0-16.204 7.254-16.204 16.203s7.254 16.203 16.204 16.203c8.948 0 16.203-7.254 16.203-16.203 0-8.949-7.254-16.203-16.203-16.203zM21.282 25.784c-0.72 0-1.391-0.181-1.974-0.51-0.435 0.082-0.872 0.123-1.323 0.123-3.981 0-7.215-3.316-7.215-7.414 0-0.513 0.060-1.010 0.156-1.494-0.364-0.638-0.576-1.379-0.576-2.173 0-2.373 1.868-4.298 4.177-4.298 0.821 0 1.581 0.24 2.225 0.656 0.4-0.071 0.808-0.112 1.233-0.112 3.978 0 7.204 3.328 7.204 7.42 0 0.546-0.050 1.078-0.162 1.59 0.274 0.58 0.426 1.228 0.426 1.911 0.001 2.377-1.868 4.3-4.172 4.3z" fill="#000000" />
</svg>
