<?xml version="1.0" encoding="utf-8"?>
<!-- Generated by IcoMoon.io -->
<!DOCTYPE svg PUBLIC "-//W3C//DTD SVG 1.1//EN" "http://www.w3.org/Graphics/SVG/1.1/DTD/svg11.dtd">
<svg version="1.1" xmlns="http://www.w3.org/2000/svg" xmlns:xlink="http://www.w3.org/1999/xlink" width="36" height="36" viewBox="0 0 36 36">
<g>
</g>
	<path d="M17.902 1.699c-8.949 0-16.203 7.254-16.203 16.203s7.254 16.203 16.203 16.203c8.949 0 16.203-7.254 16.203-16.203 0-8.949-7.254-16.203-16.203-16.203zM8.355 22.787c-0.503-0.423-0.822-1.049-0.822-1.75s0.319-1.329 0.822-1.75v3.5zM10.095 23.336h-0.224c-0.224 0-0.44-0.033-0.645-0.089v-4.421c0.205-0.057 0.421-0.088 0.644-0.088 0.076 0 0.15 0.003 0.225 0.011v4.587zM11.833 23.336h-0.87v-4.328c0.064 0.032 0.123 0.066 0.182 0.105 0.1-0.582 0.342-1.115 0.688-1.566v5.789zM13.573 23.336h-0.87v-6.603c0.267-0.178 0.559-0.323 0.87-0.428v7.031zM15.313 23.336h-0.87v-7.211c0.105-0.009 0.212-0.013 0.321-0.013 0.187 0 0.37 0.013 0.549 0.040v7.184zM17.051 23.336h-1.304v-7.092c0.325 0.088 0.63 0.222 0.914 0.39 0.117-0.183 0.248-0.359 0.39-0.523v7.225zM25.748 23.326v0.010h-8.261v-7.662c0.781-0.682 1.808-1.095 2.935-1.095 2.307 0 4.179 1.724 4.407 3.933 0.315-0.136 0.615-0.21 0.978-0.21 1.415 0 2.466 1.127 2.466 2.517 0 1.317-0.784 2.396-2.524 2.508z" fill="#000000" />
</svg>
