<?xml version="1.0" encoding="utf-8"?>
<!-- Generated by IcoMoon.io -->
<!DOCTYPE svg PUBLIC "-//W3C//DTD SVG 1.1//EN" "http://www.w3.org/Graphics/SVG/1.1/DTD/svg11.dtd">
<svg version="1.1" xmlns="http://www.w3.org/2000/svg" xmlns:xlink="http://www.w3.org/1999/xlink" width="36" height="36" viewBox="0 0 36 36">
<g>
</g>
	<path d="M22.052 17.668c-2.16-1.322-5.322-1.698-7.865-0.932-0.292 0.091-0.455 0.395-0.368 0.683 0.088 0.291 0.395 0.456 0.684 0.364 2.229-0.671 5.098-0.338 6.984 0.819 0.257 0.155 0.59 0.081 0.747-0.175 0.155-0.262 0.074-0.598-0.182-0.759z" fill="#000000" />
	<path d="M21.235 19.836c-1.849-1.127-4.135-1.387-6.805-0.779-0.232 0.053-0.38 0.289-0.327 0.522 0.047 0.238 0.286 0.38 0.522 0.332 2.437-0.556 4.509-0.333 6.148 0.672 0.213 0.128 0.481 0.062 0.599-0.145 0.133-0.206 0.063-0.479-0.138-0.602z" fill="#000000" />
	<path d="M13.791 14.269c-0.344 0.107-0.541 0.474-0.435 0.816 0.105 0.346 0.467 0.546 0.813 0.436 2.16-0.652 5.887-0.527 8.134 0.813 0.316 0.185 0.72 0.081 0.905-0.232 0.176-0.308 0.082-0.709-0.234-0.894-2.593-1.544-6.713-1.691-9.183-0.94z" fill="#000000" />
	<path d="M17.902 1.699c-8.949 0-16.203 7.254-16.203 16.203s7.254 16.203 16.203 16.203c8.949 0 16.203-7.254 16.203-16.203 0-8.949-7.254-16.203-16.203-16.203zM17.899 25.007c-1.244 0-2.418-0.321-3.437-0.891 0.603-0.725 1.436-1.112 2.434-1.085 1.286 0.045 2.222 0.659 2.755 1.761-0.559 0.138-1.145 0.215-1.752 0.215zM21.94 23.749c-1.009-1.713-2.771-2.773-5-2.845-1.744-0.054-3.267 0.577-4.38 1.684-1.1-1.249-1.759-2.886-1.759-4.684 0-3.923 3.176-7.105 7.098-7.105 3.93 0 7.105 3.182 7.105 7.105 0.001 2.426-1.208 4.568-3.063 5.846z" fill="#000000" />
</svg>
