<?xml version="1.0" encoding="utf-8"?>
<!-- Generated by IcoMoon.io -->
<!DOCTYPE svg PUBLIC "-//W3C//DTD SVG 1.1//EN" "http://www.w3.org/Graphics/SVG/1.1/DTD/svg11.dtd">
<svg version="1.1" xmlns="http://www.w3.org/2000/svg" xmlns:xlink="http://www.w3.org/1999/xlink" width="36" height="36" viewBox="0 0 36 36">
<g>
</g>
	<path d="M17.903 1.699c-8.949 0-16.204 7.254-16.204 16.203s7.254 16.203 16.204 16.203c8.948 0 16.203-7.254 16.203-16.203 0-8.949-7.254-16.203-16.203-16.203zM24.208 14.773c0.008 0.143 0.013 0.285 0.013 0.435 0 4.448-3.387 9.58-9.582 9.58-1.907 0-3.674-0.549-5.165-1.511 0.265 0.034 0.529 0.046 0.805 0.046 1.575 0 3.029-0.539 4.175-1.436-1.472-0.032-2.709-1.012-3.145-2.346 0.204 0.045 0.421 0.058 0.637 0.058 0.31 0 0.609-0.036 0.884-0.112-1.53-0.313-2.697-1.671-2.697-3.308v-0.037c0.449 0.248 0.98 0.405 1.521 0.416-0.895-0.599-1.496-1.632-1.496-2.799 0-0.621 0.171-1.197 0.46-1.701 1.664 2.044 4.14 3.385 6.939 3.522-0.055-0.244-0.078-0.501-0.078-0.768 0-1.855 1.501-3.368 3.364-3.368 0.961 0 1.842 0.408 2.461 1.065 0.765-0.153 1.484-0.428 2.135-0.815-0.251 0.789-0.784 1.444-1.482 1.861 0.678-0.087 1.328-0.263 1.939-0.532-0.459 0.682-1.019 1.274-1.688 1.749z" fill="#000000" />
</svg>
