<?xml version="1.0" encoding="utf-8"?>
<!-- Generated by IcoMoon.io -->
<!DOCTYPE svg PUBLIC "-//W3C//DTD SVG 1.1//EN" "http://www.w3.org/Graphics/SVG/1.1/DTD/svg11.dtd">
<svg version="1.1" xmlns="http://www.w3.org/2000/svg" xmlns:xlink="http://www.w3.org/1999/xlink" width="36" height="36" viewBox="0 0 36 36">
<g>
</g>
	<path d="M17.903 1.699c-8.949 0-16.204 7.254-16.204 16.203s7.254 16.203 16.204 16.203c8.948 0 16.203-7.254 16.203-16.203 0-8.949-7.254-16.203-16.203-16.203zM25.423 14.859c-0.874 4.926-5.749 9.090-7.226 10.045-1.463 0.95-2.803-0.381-3.285-1.391-0.553-1.152-2.224-7.381-2.666-7.899-0.435-0.514-1.744 0.519-1.744 0.519l-0.631-0.831c0 0 2.656-3.176 4.684-3.576 2.145-0.422 2.145 3.296 2.657 5.358 0.5 1.991 0.839 3.138 1.265 3.138 0.435 0 1.274-1.114 2.188-2.824 0.911-1.703-0.047-3.209-1.827-2.14 0.707-4.287 7.456-5.317 6.585-0.399z" fill="#000000" />
</svg>
