<?xml version="1.0" encoding="utf-8"?>
<!-- Generated by IcoMoon.io -->
<!DOCTYPE svg PUBLIC "-//W3C//DTD SVG 1.1//EN" "http://www.w3.org/Graphics/SVG/1.1/DTD/svg11.dtd">
<svg version="1.1" xmlns="http://www.w3.org/2000/svg" xmlns:xlink="http://www.w3.org/1999/xlink" width="36" height="36" viewBox="0 0 36 36">
<g>
</g>
	<path d="M18.397 1.699c-8.948 0-16.203 7.254-16.203 16.203 0 8.949 7.254 16.203 16.203 16.203 8.949 0 16.203-7.254 16.203-16.203 0-8.949-7.254-16.203-16.203-16.203zM21.727 12.409c-0.645 0-1.101 0.613-1.101 1.792 0 2.406 1.525 3.791 3.507 3.791 0.352 0 0.743-0.041 1.148-0.134v1.869c-0.661 0.149-1.324 0.213-1.876 0.215-1.314 2.777-3.688 5.15-4.478 5.6-0.503 0.282-0.977 0.298-1.527-0.032-0.973-0.58-4.653-3.604-5.888-13.101h2.673c0.672 5.701 2.31 8.624 4.121 10.815 0.999-0.999 1.955-2.326 2.709-3.831-1.79-0.908-2.875-2.901-2.875-5.222 0-2.344 1.353-4.121 3.664-4.121 2.25 0 3.477 1.4 3.477 3.806 0 0.895-0.193 1.914-0.548 2.701-1.67 0.328-2.28-0.738-2.28-0.738 0.125-0.412 0.296-1.108 0.296-1.743 0-1.117-0.41-1.667-1.023-1.667z" fill="#000000" />
</svg>
