<?xml version="1.0" encoding="utf-8"?>
<!-- Generated by IcoMoon.io -->
<!DOCTYPE svg PUBLIC "-//W3C//DTD SVG 1.1//EN" "http://www.w3.org/Graphics/SVG/1.1/DTD/svg11.dtd">
<svg version="1.1" xmlns="http://www.w3.org/2000/svg" xmlns:xlink="http://www.w3.org/1999/xlink" width="36" height="36" viewBox="0 0 36 36">
<g>
</g>
	<path d="M17.902 1.699c-8.949 0-16.203 7.254-16.203 16.203s7.254 16.203 16.203 16.203c8.949 0 16.203-7.254 16.203-16.203 0-8.949-7.254-16.203-16.203-16.203zM9.939 17.902c0-1.155 0.248-2.25 0.69-3.241l3.799 10.408c-2.657-1.29-4.489-4.015-4.489-7.167zM17.903 25.866c-0.783 0-1.537-0.115-2.25-0.323l2.39-6.944 2.448 6.705c0.015 0.040 0.035 0.075 0.056 0.11-0.827 0.291-1.719 0.452-2.644 0.452zM19 14.168c0.48-0.026 0.911-0.076 0.911-0.076 0.429-0.052 0.379-0.681-0.050-0.657 0 0-1.291 0.102-2.123 0.102-0.783 0-2.097-0.102-2.097-0.102-0.429-0.025-0.48 0.631-0.051 0.657 0 0 0.406 0.050 0.835 0.076l1.242 3.4-1.743 5.226-2.9-8.625c0.479-0.026 0.91-0.076 0.91-0.076 0.429-0.052 0.378-0.681-0.049-0.657 0 0-1.29 0.102-2.123 0.102-0.15 0-0.325-0.004-0.512-0.010 1.423-2.162 3.87-3.591 6.654-3.591 2.073 0 3.961 0.793 5.377 2.092-0.035-0.002-0.068-0.007-0.102-0.007-0.783 0-1.338 0.681-1.338 1.413 0 0.657 0.38 1.211 0.781 1.868 0.303 0.53 0.657 1.212 0.657 2.197 0 0.682-0.202 1.54-0.605 2.574l-0.795 2.653-2.879-8.559zM21.908 24.784l2.432-7.033c0.454-1.136 0.606-2.044 0.606-2.852 0-0.294-0.019-0.565-0.054-0.82 0.621 1.136 0.974 2.437 0.974 3.822 0 2.938-1.59 5.504-3.957 6.883z" fill="#000000" />
</svg>
