<?xml version="1.0" encoding="utf-8"?>
<!-- Generated by IcoMoon.io -->
<!DOCTYPE svg PUBLIC "-//W3C//DTD SVG 1.1//EN" "http://www.w3.org/Graphics/SVG/1.1/DTD/svg11.dtd">
<svg version="1.1" xmlns="http://www.w3.org/2000/svg" xmlns:xlink="http://www.w3.org/1999/xlink" width="36" height="36" viewBox="0 0 36 36">
<g>
</g>
	<path d="M16.513 23.816c-0.204 0.282-0.396 0.42-0.572 0.42-0.123 0-0.191-0.059-0.209-0.213-0.008-0.026-0.008-0.139-0.008-0.351v-3.682h-0.917v3.958c0 0.348 0.037 0.592 0.085 0.743 0.092 0.248 0.297 0.366 0.583 0.366 0.336 0 0.682-0.197 1.038-0.607v0.546h0.904v-5.007h-0.904v3.826z" fill="#000000" />
	<path d="M20.054 19.925c-0.337 0-0.645 0.191-0.942 0.549v-2.199h-0.899v6.72h0.899v-0.491c0.307 0.381 0.619 0.552 0.942 0.552 0.356 0 0.596-0.176 0.719-0.555 0.064-0.214 0.090-0.541 0.090-1.010v-1.993c0-0.472-0.026-0.807-0.090-1.004-0.123-0.378-0.363-0.571-0.719-0.571zM20.12 23.481c0 0.455-0.132 0.672-0.399 0.672-0.143 0-0.297-0.059-0.45-0.217v-3.054c0.152-0.147 0.307-0.219 0.45-0.219 0.267 0 0.399 0.238 0.399 0.675v2.142z" fill="#000000" />
	<path d="M11.52 19.222h1.067v5.774h1.007v-5.774h1.086v-0.946h-3.16z" fill="#000000" />
	<path d="M17.697 14.846c0.296 0 0.435-0.236 0.435-0.697v-2.131c0-0.462-0.138-0.699-0.435-0.699-0.303 0-0.435 0.237-0.435 0.699v2.131c0 0.461 0.133 0.697 0.435 0.697z" fill="#000000" />
	<path d="M22.936 19.925c-0.462 0-0.819 0.171-1.091 0.518-0.186 0.25-0.268 0.646-0.268 1.182v1.748c0 0.538 0.093 0.923 0.282 1.186 0.267 0.328 0.621 0.498 1.103 0.498 0.475 0 0.838-0.171 1.098-0.533 0.109-0.169 0.172-0.346 0.208-0.551 0.009-0.090 0.022-0.284 0.022-0.579v-0.134h-0.934c0 0.366-0.012 0.561-0.015 0.616-0.049 0.241-0.185 0.359-0.408 0.359-0.31 0-0.462-0.227-0.462-0.69v-0.882h1.818v-1.038c0-0.536-0.092-0.932-0.291-1.182-0.242-0.347-0.608-0.518-1.065-0.518zM23.503 21.82h-0.904v-0.465c0-0.453 0.152-0.692 0.452-0.692 0.304 0 0.452 0.238 0.452 0.692v0.465z" fill="#000000" />
	<path d="M17.903 1.699c-8.949 0-16.204 7.254-16.204 16.204 0 8.948 7.254 16.203 16.204 16.203 8.948 0 16.203-7.254 16.203-16.203 0-8.949-7.254-16.204-16.203-16.204zM19.802 10.549h0.917v3.721c0 0.213 0 0.325 0.008 0.361 0.021 0.145 0.095 0.215 0.217 0.215 0.186 0 0.369-0.145 0.575-0.421v-3.876h0.921v5.057h-0.922v-0.548c-0.357 0.419-0.704 0.618-1.042 0.618-0.293 0-0.5-0.113-0.595-0.372-0.045-0.153-0.079-0.393-0.079-0.758v-3.997zM16.341 12.208c0-0.544 0.092-0.949 0.285-1.196 0.25-0.345 0.615-0.523 1.071-0.523 0.452 0 0.813 0.178 1.072 0.523 0.186 0.247 0.279 0.652 0.279 1.196v1.769c0 0.533-0.092 0.934-0.279 1.183-0.259 0.352-0.62 0.516-1.072 0.516-0.456 0-0.82-0.165-1.071-0.516-0.194-0.249-0.285-0.65-0.285-1.183v-1.769zM13.895 8.822l0.716 2.671 0.697-2.671h1.021l-1.223 4.037v2.748h-1.007v-2.748c-0.095-0.488-0.297-1.194-0.625-2.147-0.217-0.63-0.438-1.26-0.651-1.889h1.072zM25.148 25.297c-0.188 0.796-0.841 1.385-1.618 1.48-1.866 0.206-3.759 0.206-5.626 0.206-1.876 0-3.765 0-5.62-0.206-0.783-0.094-1.433-0.683-1.623-1.48-0.257-1.137-0.257-2.377-0.257-3.549 0-1.172 0.005-2.411 0.259-3.541 0.188-0.797 0.839-1.394 1.623-1.48 1.855-0.205 3.748-0.205 5.622-0.205 1.866 0 3.756 0 5.624 0.205 0.778 0.087 1.431 0.683 1.621 1.48 0.251 1.13 0.249 2.369 0.249 3.541 0.001 1.173-0.001 2.413-0.254 3.549z" fill="#000000" />
</svg>
