<svg width="1280" height="1024" viewBox="0 0 1280 1024" fill="none" xmlns="http://www.w3.org/2000/svg">
<path fill-rule="evenodd" clip-rule="evenodd" d="M0.624756 33.813L41.915 0.780762L41.2904 0L0 33.0322L0.624756 33.813ZM83.2053 0.780762L82.5807 0L0 66.0645L0.624756 66.8452L83.2053 0.780762ZM0.624756 99.8777L124.496 0.780762L123.871 0L0 99.0967L0.624756 99.8777ZM165.786 0.780762L165.161 0L0 132.129L0.624756 132.91L165.786 0.780762ZM0.624756 165.942L207.076 0.780762L206.452 0L0 165.161L0.624756 165.942ZM248.367 0.780762L247.742 0L0 198.194L0.624756 198.974L248.367 0.780762ZM0.624756 232.007L289.657 0.780762L289.032 0L0 231.226L0.624756 232.007ZM330.947 0.780762L330.323 0L0 264.258L0.624756 265.039L330.947 0.780762ZM413.528 0.780762L412.903 0L0 330.323L0.624756 331.103L413.528 0.780762ZM0.624756 364.136L454.818 0.780762L454.194 0L0 363.355L0.624756 364.136ZM496.109 0.780762L495.484 0L0 396.387L0.624756 397.168L496.109 0.780762ZM0.624756 430.2L537.399 0.780762L536.774 0L0 429.419L0.624756 430.2ZM0 462.451L0.624756 463.232L578.689 0.780762L578.065 0L0 462.451ZM0 528.516L0.624756 529.297L661.27 0.780762L660.645 0L0 528.516ZM0.624756 562.329L702.56 0.780762L701.935 0L0 561.548L0.624756 562.329ZM0 660.645L0.624756 661.426L826.431 0.780762L825.807 0L0 660.645ZM0.624756 694.458L867.722 0.780762L867.097 0L0 693.677L0.624756 694.458ZM0 726.71L0.624756 727.49L909.012 0.780762L908.387 0L0 726.71ZM0.624756 760.523L950.302 0.780762L949.677 0L0 759.742L0.624756 760.523ZM0 792.774L0.624756 793.555L991.592 0.780762L990.968 0L0 792.774ZM0.624756 826.587L1032.88 0.780762L1032.26 0L0 825.806L0.624756 826.587ZM0 858.839L0.624756 859.619L1074.17 0.780762L1073.55 0L0 858.839ZM0.624756 892.652L1115.46 0.780762L1114.84 0L0 891.871L0.624756 892.652ZM0 924.903L0.624756 925.684L1156.75 0.780762L1156.13 0L0 924.903ZM0.624756 1024.78L1280.62 0.780762L1280 0L0 1024L0.624756 1024.78ZM0.624756 298.071L372.238 0.780762L371.613 0L0 297.29L0.624756 298.071ZM0.624756 496.265L619.98 0.780762L619.355 0L0 495.484L0.624756 496.265ZM0.624756 595.362L743.851 0.780762L743.226 0L0 594.581L0.624756 595.362ZM1238.71 0L0 990.968L0.624756 991.749L1239.33 0.780762L1238.71 0ZM0.624756 628.394L785.141 0.780762L784.516 0L0 627.613L0.624756 628.394ZM0.624756 958.717L1198.04 0.780762L1197.42 0L0 957.935L0.624756 958.717ZM1280 990.968L1238.71 1024L1239.33 1024.78L1280.62 991.749L1280 990.968ZM1197.42 1024L1198.04 1024.78L1280.62 958.716L1280 957.935L1197.42 1024ZM1280 924.903L1156.13 1024L1156.75 1024.78L1280.62 925.684L1280 924.903ZM1114.84 1024L1115.46 1024.78L1280.62 892.652L1280 891.871L1114.84 1024ZM1280 858.839L1073.55 1024L1074.17 1024.78L1280.62 859.619L1280 858.839ZM1032.26 1024L1032.88 1024.78L1280.62 826.587L1280 825.806L1032.26 1024ZM1280 792.774L990.968 1024L991.592 1024.78L1280.62 793.555L1280 792.774ZM949.677 1024L950.302 1024.78L1280.62 760.523L1280 759.742L949.677 1024ZM867.097 1024L867.722 1024.78L1280.62 694.458L1280 693.677L867.097 1024ZM1280 660.645L825.807 1024L826.431 1024.78L1280.62 661.426L1280 660.645ZM784.516 1024L785.141 1024.78L1280.62 628.394L1280 627.613L784.516 1024ZM1280 594.581L743.226 1024L743.851 1024.78L1280.62 595.362L1280 594.581ZM1280 561.548L701.935 1024L702.56 1024.78L1280.62 562.329L1280 561.548ZM1280 495.484L619.355 1024L619.98 1024.78L1280.62 496.265L1280 495.484ZM1280 462.451L578.065 1024L578.689 1024.78L1280.62 463.232L1280 462.451ZM1280 363.355L454.193 1024L454.818 1024.78L1280.62 364.136L1280 363.355ZM1280 330.323L412.903 1024L413.528 1024.78L1280.62 331.103L1280 330.323ZM1280.62 298.071L1280 297.29L371.613 1024L372.238 1024.78L1280.62 298.071ZM1280 264.258L330.323 1024L330.947 1024.78L1280.62 265.039L1280 264.258ZM1280.62 232.007L1280 231.226L289.032 1024L289.657 1024.78L1280.62 232.007ZM1280 198.194L247.742 1024L248.367 1024.78L1280.62 198.974L1280 198.194ZM1280.62 165.942L1280 165.161L206.452 1024L207.076 1024.78L1280.62 165.942ZM1280 132.129L165.161 1024L165.786 1024.78L1280.62 132.91L1280 132.129ZM1280.62 99.8777L1280 99.0967L123.871 1024L124.496 1024.78L1280.62 99.8777ZM1280 726.71L908.387 1024L909.012 1024.78L1280.62 727.49L1280 726.71ZM1280 528.516L660.645 1024L661.27 1024.78L1280.62 529.297L1280 528.516ZM1280 429.419L536.774 1024L537.399 1024.78L1280.62 430.2L1280 429.419ZM1280.62 33.8132L1280 33.0322L41.2903 1024L41.915 1024.78L1280.62 33.8132ZM1280 396.387L495.484 1024L496.109 1024.78L1280.62 397.168L1280 396.387ZM1280 66.0645L82.5807 1024L83.2054 1024.78L1280.62 66.8455L1280 66.0645Z" transform="translate(-0.312378 -0.390381)" fill="white" fill-opacity="0.1"/>
</svg>
