<svg width="1280" height="1024" viewBox="0 0 1280 1024" fill="none" xmlns="http://www.w3.org/2000/svg">
<path fill-rule="evenodd" clip-rule="evenodd" d="M0.312378 33.4226L41.6027 0.390381L40.978 -0.390381L-0.312378 32.6418L0.312378 33.4226ZM82.8929 0.390381L82.2683 -0.390381L-0.312378 65.6741L0.312378 66.4548L82.8929 0.390381ZM0.312378 99.4873L124.183 0.390381L123.559 -0.390381L-0.312378 98.7063L0.312378 99.4873ZM165.474 0.390381L164.849 -0.390381L-0.312378 131.739L0.312378 132.52L165.474 0.390381ZM0.312378 165.552L206.764 0.390381L206.139 -0.390381L-0.312378 164.771L0.312378 165.552ZM248.054 0.390381L247.43 -0.390381L-0.312378 197.803L0.312378 198.584L248.054 0.390381ZM0.312378 231.616L289.345 0.390381L288.72 -0.390381L-0.312378 230.835L0.312378 231.616ZM330.635 0.390381L330.01 -0.390381L-0.312378 263.868L0.312378 264.648L330.635 0.390381ZM413.216 0.390381L412.591 -0.390381L-0.312378 329.932L0.312378 330.713L413.216 0.390381ZM0.312378 363.745L454.506 0.390381L453.881 -0.390381L-0.312378 362.964L0.312378 363.745ZM495.796 0.390381L495.172 -0.390381L-0.312378 395.997L0.312378 396.778L495.796 0.390381ZM0.312378 429.81L537.087 0.390381L536.462 -0.390381L-0.312378 429.029L0.312378 429.81ZM-0.312378 462.061L0.312378 462.842L578.377 0.390381L577.752 -0.390381L-0.312378 462.061ZM-0.312378 528.126L0.312378 528.906L660.958 0.390381L660.333 -0.390381L-0.312378 528.126ZM0.312378 561.939L702.248 0.390381L701.623 -0.390381L-0.312378 561.158L0.312378 561.939ZM-0.312378 660.255L0.312378 661.036L826.119 0.390381L825.494 -0.390381L-0.312378 660.255ZM0.312378 694.068L867.409 0.390381L866.784 -0.390381L-0.312378 693.287L0.312378 694.068ZM-0.312378 726.319L0.312378 727.1L908.699 0.390381L908.075 -0.390381L-0.312378 726.319ZM0.312378 760.132L949.99 0.390381L949.365 -0.390381L-0.312378 759.352L0.312378 760.132ZM-0.312378 792.384L0.312378 793.165L991.28 0.390381L990.655 -0.390381L-0.312378 792.384ZM0.312378 826.197L1032.57 0.390381L1031.95 -0.390381L-0.312378 825.416L0.312378 826.197ZM-0.312378 858.448L0.312378 859.229L1073.86 0.390381L1073.24 -0.390381L-0.312378 858.448ZM0.312378 892.261L1115.15 0.390381L1114.53 -0.390381L-0.312378 891.48L0.312378 892.261ZM-0.312378 924.513L0.312378 925.293L1156.44 0.390381L1155.82 -0.390381L-0.312378 924.513ZM0.312378 1024.39L1280.31 0.390381L1279.69 -0.390381L-0.312378 1023.61L0.312378 1024.39ZM0.312378 297.681L371.925 0.390381L371.301 -0.390381L-0.312378 296.9L0.312378 297.681ZM0.312378 495.874L619.667 0.390381L619.042 -0.390381L-0.312378 495.094L0.312378 495.874ZM0.312378 594.971L743.538 0.390381L742.913 -0.390381L-0.312378 594.19L0.312378 594.971ZM1238.4 -0.390381L-0.312378 990.577L0.312378 991.358L1239.02 0.390381L1238.4 -0.390381ZM0.312378 628.003L784.829 0.390381L784.204 -0.390381L-0.312378 627.223L0.312378 628.003ZM0.312378 958.326L1197.73 0.390381L1197.11 -0.390381L-0.312378 957.545L0.312378 958.326ZM1279.69 990.577L1238.4 1023.61L1239.02 1024.39L1280.31 991.358L1279.69 990.577ZM1197.11 1023.61L1197.73 1024.39L1280.31 958.326L1279.69 957.545L1197.11 1023.61ZM1279.69 924.513L1155.82 1023.61L1156.44 1024.39L1280.31 925.293L1279.69 924.513ZM1114.53 1023.61L1115.15 1024.39L1280.31 892.261L1279.69 891.48L1114.53 1023.61ZM1279.69 858.448L1073.24 1023.61L1073.86 1024.39L1280.31 859.229L1279.69 858.448ZM1031.95 1023.61L1032.57 1024.39L1280.31 826.197L1279.69 825.416L1031.95 1023.61ZM1279.69 792.384L990.655 1023.61L991.28 1024.39L1280.31 793.165L1279.69 792.384ZM949.365 1023.61L949.99 1024.39L1280.31 760.132L1279.69 759.352L949.365 1023.61ZM866.784 1023.61L867.409 1024.39L1280.31 694.068L1279.69 693.287L866.784 1023.61ZM1279.69 660.255L825.494 1023.61L826.119 1024.39L1280.31 661.036L1279.69 660.255ZM784.204 1023.61L784.829 1024.39L1280.31 628.003L1279.69 627.223L784.204 1023.61ZM1279.69 594.19L742.913 1023.61L743.538 1024.39L1280.31 594.971L1279.69 594.19ZM1279.69 561.158L701.623 1023.61L702.248 1024.39L1280.31 561.939L1279.69 561.158ZM1279.69 495.094L619.042 1023.61L619.667 1024.39L1280.31 495.874L1279.69 495.094ZM1279.69 462.061L577.752 1023.61L578.377 1024.39L1280.31 462.842L1279.69 462.061ZM1279.69 362.964L453.881 1023.61L454.506 1024.39L1280.31 363.745L1279.69 362.964ZM1279.69 329.932L412.591 1023.61L413.216 1024.39L1280.31 330.713L1279.69 329.932ZM1280.31 297.681L1279.69 296.9L371.301 1023.61L371.925 1024.39L1280.31 297.681ZM1279.69 263.868L330.01 1023.61L330.635 1024.39L1280.31 264.648L1279.69 263.868ZM1280.31 231.616L1279.69 230.835L288.72 1023.61L289.345 1024.39L1280.31 231.616ZM1279.69 197.803L247.43 1023.61L248.054 1024.39L1280.31 198.584L1279.69 197.803ZM1280.31 165.552L1279.69 164.771L206.139 1023.61L206.764 1024.39L1280.31 165.552ZM1279.69 131.739L164.849 1023.61L165.474 1024.39L1280.31 132.52L1279.69 131.739ZM1280.31 99.4873L1279.69 98.7063L123.559 1023.61L124.183 1024.39L1280.31 99.4873ZM1279.69 726.319L908.075 1023.61L908.699 1024.39L1280.31 727.1L1279.69 726.319ZM1279.69 528.126L660.333 1023.61L660.958 1024.39L1280.31 528.906L1279.69 528.126ZM1279.69 429.029L536.462 1023.61L537.087 1024.39L1280.31 429.81L1279.69 429.029ZM1280.31 33.4229L1279.69 32.6418L40.9779 1023.61L41.6027 1024.39L1280.31 33.4229ZM1279.69 395.997L495.172 1023.61L495.796 1024.39L1280.31 396.778L1279.69 395.997ZM1279.69 65.6741L82.2683 1023.61L82.8931 1024.39L1280.31 66.4551L1279.69 65.6741Z" fill="white" fill-opacity="0.05"/>
</svg>
