<?xml version="1.0" encoding="utf-8"?>
<!-- Generator: Adobe Illustrator 18.0.0, SVG Export Plug-In . SVG Version: 6.00 Build 0)  -->
<!DOCTYPE svg PUBLIC "-//W3C//DTD SVG 1.1//EN" "http://www.w3.org/Graphics/SVG/1.1/DTD/svg11.dtd">
<svg version="1.1" id="圖層_1" xmlns="http://www.w3.org/2000/svg" xmlns:xlink="http://www.w3.org/1999/xlink" x="0px" y="0px"
	 viewBox="0 0 145 145" enable-background="new 0 0 145 145" xml:space="preserve">
<circle fill="none" stroke="#FF9666" stroke-width="0.5" stroke-miterlimit="10" cx="72.5" cy="72.5" r="71"/>
<circle opacity="0.4" fill="none" stroke="#450099" stroke-width="0.5" stroke-miterlimit="10" cx="72.5" cy="72.5" r="28.4"/>
<circle fill="none" stroke="#FF9666" stroke-width="0.5" stroke-miterlimit="10" cx="72.5" cy="72.5" r="40.2"/>
<circle opacity="0.4" fill="none" stroke="#450099" stroke-width="0.5" stroke-miterlimit="10" cx="72.5" cy="72.5" r="50.2"/>
<circle fill="none" stroke="#FF9666" stroke-width="0.5" stroke-miterlimit="10" cx="72.5" cy="72.5" r="71"/>
<g>
	<g>
		<g>
			<g>
				<path fill="#FF9666" d="M54.1,137.9c0.8,0,1.6,0.3,2.2,0.9c0.6,0.6,0.9,1.4,0.9,2.2c0,0.8-0.3,1.6-0.9,2.2
					c-0.6,0.6-1.4,0.9-2.2,0.9c-0.8,0-1.6-0.3-2.2-0.9c-1.2-1.2-1.2-3.2,0-4.4C52.5,138.2,53.2,137.9,54.1,137.9 M54.1,137.4
					c-0.9,0-1.8,0.4-2.5,1.1c-1.4,1.4-1.4,3.7,0,5.1c0.7,0.7,1.6,1.1,2.5,1.1s1.8-0.4,2.5-1.1c1.4-1.4,1.4-3.7,0-5.1
					C55.9,137.8,55,137.4,54.1,137.4L54.1,137.4z"/>
			</g>
			<line fill="none" stroke="#FF9666" stroke-width="0.5" stroke-miterlimit="10" x1="56.6" y1="138.5" x2="69.9" y2="125.2"/>
			<g>
				<path fill="#FF9666" d="M90.8,137.9c0.8,0,1.6,0.3,2.2,0.9c1.2,1.2,1.2,3.2,0,4.4c-0.6,0.6-1.4,0.9-2.2,0.9
					c-0.8,0-1.6-0.3-2.2-0.9c-0.6-0.6-0.9-1.4-0.9-2.2c0-0.8,0.3-1.6,0.9-2.2C89.2,138.2,90,137.9,90.8,137.9 M90.8,137.4
					c-0.9,0-1.8,0.4-2.5,1.1c-1.4,1.4-1.4,3.7,0,5.1c0.7,0.7,1.6,1.1,2.5,1.1s1.8-0.4,2.5-1.1c1.4-1.4,1.4-3.7,0-5.1
					C92.7,137.8,91.8,137.4,90.8,137.4L90.8,137.4z"/>
			</g>
			<g>
				<path fill="#FF9666" d="M72.5,119.5c0.8,0,1.6,0.3,2.2,0.9c1.2,1.2,1.2,3.2,0,4.4c-0.6,0.6-1.4,0.9-2.2,0.9
					c-0.8,0-1.6-0.3-2.2-0.9c-0.6-0.6-0.9-1.4-0.9-2.2c0-0.8,0.3-1.6,0.9-2.2C70.8,119.8,71.6,119.5,72.5,119.5 M72.5,119
					c-0.9,0-1.8,0.4-2.5,1.1c-1.4,1.4-1.4,3.7,0,5.1c0.7,0.7,1.6,1.1,2.5,1.1s1.8-0.4,2.5-1.1c1.4-1.4,1.4-3.7,0-5.1
					C74.3,119.4,73.4,119,72.5,119L72.5,119z"/>
			</g>
			<line fill="none" stroke="#FF9666" stroke-width="0.5" stroke-miterlimit="10" x1="88.3" y1="138.5" x2="75" y2="125.2"/>
		</g>
	</g>
	<g>
		<g>
			<path fill="#FF9666" d="M4,87.8c0.8,0,1.6,0.3,2.2,0.9c1.2,1.2,1.2,3.2,0,4.4C5.6,93.7,4.8,94,4,94s-1.6-0.3-2.2-0.9
				c-1.2-1.2-1.2-3.2,0-4.4C2.4,88.2,3.2,87.8,4,87.8 M4,87.3c-0.9,0-1.8,0.4-2.5,1.1c-1.4,1.4-1.4,3.7,0,5.1
				c0.7,0.7,1.6,1.1,2.5,1.1s1.8-0.4,2.5-1.1c1.4-1.4,1.4-3.7,0-5.1C5.8,87.7,4.9,87.3,4,87.3L4,87.3z"/>
		</g>
		<line fill="none" stroke="#FF9666" stroke-width="0.5" stroke-miterlimit="10" x1="6.5" y1="88.4" x2="19.8" y2="75.1"/>
		<g>
			<path fill="#FF9666" d="M4,51.1c0.8,0,1.6,0.3,2.2,0.9c1.2,1.2,1.2,3.2,0,4.4c-0.6,0.6-1.4,0.9-2.2,0.9s-1.6-0.3-2.2-0.9
				c-1.2-1.2-1.2-3.2,0-4.4C2.4,51.4,3.2,51.1,4,51.1 M4,50.6c-0.9,0-1.8,0.4-2.5,1.1C0,53,0,55.3,1.4,56.7c0.7,0.7,1.6,1.1,2.5,1.1
				s1.8-0.4,2.5-1.1c1.4-1.4,1.4-3.7,0-5.1C5.8,50.9,4.9,50.6,4,50.6L4,50.6z"/>
		</g>
		<g>
			<path fill="#FF9666" d="M22.4,69.4c0.8,0,1.6,0.3,2.2,0.9c1.2,1.2,1.2,3.2,0,4.4c-0.6,0.6-1.4,0.9-2.2,0.9s-1.6-0.3-2.2-0.9
				c-1.2-1.2-1.2-3.2,0-4.4C20.8,69.8,21.6,69.4,22.4,69.4 M22.4,68.9c-0.9,0-1.8,0.4-2.5,1.1c-1.4,1.4-1.4,3.7,0,5.1
				c0.7,0.7,1.6,1.1,2.5,1.1s1.8-0.4,2.5-1.1c1.4-1.4,1.4-3.7,0-5.1C24.2,69.3,23.3,68.9,22.4,68.9L22.4,68.9z"/>
		</g>
		<line fill="none" stroke="#FF9666" stroke-width="0.5" stroke-miterlimit="10" x1="6.5" y1="56.7" x2="19.8" y2="70"/>
	</g>
	<g>
		<g>
			<g>
				<path fill="#FF9666" d="M141,87.8c0.8,0,1.6,0.3,2.2,0.9c1.2,1.2,1.2,3.2,0,4.4c-0.6,0.6-1.4,0.9-2.2,0.9s-1.6-0.3-2.2-0.9
					c-1.2-1.2-1.2-3.2,0-4.4C139.4,88.2,140.2,87.8,141,87.8 M141,87.3c-0.9,0-1.8,0.4-2.5,1.1c-1.4,1.4-1.4,3.7,0,5.1
					c0.7,0.7,1.6,1.1,2.5,1.1c0.9,0,1.8-0.4,2.5-1.1c1.4-1.4,1.4-3.7,0-5.1C142.9,87.7,141.9,87.3,141,87.3L141,87.3z"/>
			</g>
			<line fill="none" stroke="#FF9666" stroke-width="0.5" stroke-miterlimit="10" x1="138.5" y1="88.4" x2="125.2" y2="75.1"/>
			<g>
				<path fill="#FF9666" d="M141,51.1c0.8,0,1.6,0.3,2.2,0.9c1.2,1.2,1.2,3.2,0,4.4c-0.6,0.6-1.4,0.9-2.2,0.9s-1.6-0.3-2.2-0.9
					c-1.2-1.2-1.2-3.2,0-4.4C139.4,51.4,140.2,51.1,141,51.1 M141,50.6c-0.9,0-1.8,0.4-2.5,1.1c-1.4,1.4-1.4,3.7,0,5.1
					c0.7,0.7,1.6,1.1,2.5,1.1c0.9,0,1.8-0.4,2.5-1.1c1.4-1.4,1.4-3.7,0-5.1C142.9,50.9,141.9,50.6,141,50.6L141,50.6z"/>
			</g>
			<g>
				<path fill="#FF9666" d="M122.6,69.4c0.8,0,1.6,0.3,2.2,0.9c1.2,1.2,1.2,3.2,0,4.4c-0.6,0.6-1.4,0.9-2.2,0.9
					c-0.8,0-1.6-0.3-2.2-0.9c-1.2-1.2-1.2-3.2,0-4.4C121,69.8,121.8,69.4,122.6,69.4 M122.6,68.9c-0.9,0-1.8,0.4-2.5,1.1
					c-1.4,1.4-1.4,3.7,0,5.1c0.7,0.7,1.6,1.1,2.5,1.1s1.8-0.4,2.5-1.1c1.4-1.4,1.4-3.7,0-5.1C124.5,69.3,123.5,68.9,122.6,68.9
					L122.6,68.9z"/>
			</g>
			<line fill="none" stroke="#FF9666" stroke-width="0.5" stroke-miterlimit="10" x1="138.5" y1="56.7" x2="125.2" y2="70"/>
		</g>
	</g>
</g>
<g>
	<polygon fill="#450099" points="43.9,44.2 36.8,37.1 8.5,65.4 1.5,72.5 8.5,79.6 36.8,107.9 43.9,100.8 15.6,72.5 	"/>
	<linearGradient id="SVGID_1_" gradientUnits="userSpaceOnUse" x1="90.4889" y1="54.8228" x2="125.8442" y2="90.1781">
		<stop  offset="0" style="stop-color:#450099"/>
		<stop  offset="0.5" style="stop-color:#F05648"/>
		<stop  offset="1" style="stop-color:#FF9666"/>
	</linearGradient>
	<polygon fill="url(#SVGID_1_)" points="108.2,37.1 101.1,44.2 129.4,72.5 101.1,100.8 108.2,107.9 143.5,72.5 	"/>
	<g>
		<circle fill="#450099" cx="53.9" cy="72.5" r="10"/>
		<circle fill="#450099" cx="91.1" cy="72.5" r="10"/>
	</g>
</g>
<g>
	<g>
		<path fill="#F05648" d="M54.1,0.9c0.8,0,1.6,0.3,2.2,0.9c1.2,1.2,1.2,3.2,0,4.4c-0.6,0.6-1.4,0.9-2.2,0.9c-0.8,0-1.6-0.3-2.2-0.9
			c-1.2-1.2-1.2-3.2,0-4.4C52.5,1.2,53.2,0.9,54.1,0.9 M54.1,0.4c-0.9,0-1.8,0.4-2.5,1.1c-1.4,1.4-1.4,3.7,0,5.1
			c0.7,0.7,1.6,1.1,2.5,1.1s1.8-0.4,2.5-1.1c1.4-1.4,1.4-3.7,0-5.1C55.9,0.7,55,0.4,54.1,0.4L54.1,0.4z"/>
	</g>
	<line fill="none" stroke="#F05648" stroke-width="0.5" stroke-miterlimit="10" x1="56.6" y1="6.5" x2="69.9" y2="19.8"/>
	<g>
		<path fill="#F05648" d="M90.8,0.9c0.8,0,1.6,0.3,2.2,0.9C94.2,3,94.2,5,93,6.2c-0.6,0.6-1.4,0.9-2.2,0.9c-0.8,0-1.6-0.3-2.2-0.9
			c-1.2-1.2-1.2-3.2,0-4.4C89.2,1.2,90,0.9,90.8,0.9 M90.8,0.4c-0.9,0-1.8,0.4-2.5,1.1c-1.4,1.4-1.4,3.7,0,5.1
			c0.7,0.7,1.6,1.1,2.5,1.1s1.8-0.4,2.5-1.1c1.4-1.4,1.4-3.7,0-5.1C92.7,0.7,91.8,0.4,90.8,0.4L90.8,0.4z"/>
	</g>
	<g>
		<path fill="#F05648" d="M72.5,19.3c0.8,0,1.6,0.3,2.2,0.9c1.2,1.2,1.2,3.2,0,4.4c-0.6,0.6-1.4,0.9-2.2,0.9c-0.8,0-1.6-0.3-2.2-0.9
			c-1.2-1.2-1.2-3.2,0-4.4C70.8,19.6,71.6,19.3,72.5,19.3 M72.5,18.8c-0.9,0-1.8,0.4-2.5,1.1c-1.4,1.4-1.4,3.7,0,5.1
			c0.7,0.7,1.6,1.1,2.5,1.1s1.8-0.4,2.5-1.1c1.4-1.4,1.4-3.7,0-5.1C74.3,19.1,73.4,18.8,72.5,18.8L72.5,18.8z"/>
	</g>
	<line fill="none" stroke="#F05648" stroke-width="0.5" stroke-miterlimit="10" x1="88.3" y1="6.5" x2="75" y2="19.8"/>
</g>
</svg>
