<?xml version="1.0" encoding="utf-8"?>
<!-- Generator: Adobe Illustrator 19.0.0, SVG Export Plug-In . SVG Version: 6.00 Build 0)  -->
<svg version="1.1" id="Layer_1" xmlns="http://www.w3.org/2000/svg" xmlns:xlink="http://www.w3.org/1999/xlink" x="0px" y="0px"
	 viewBox="0 0 800 272.1" style="enable-background:new 0 0 800 272.1;" xml:space="preserve">
<style type="text/css">
	.st0{fill:#7289DA;}
</style>
<g>
	<path class="st0" d="M142.8,120.1c-5.7,0-10.2,4.9-10.2,11c0,6.1,4.6,11,10.2,11c5.7,0,10.2-4.9,10.2-11
		C153,125,148.4,120.1,142.8,120.1z"/>
	<path class="st0" d="M106.3,120.1c-5.7,0-10.2,4.9-10.2,11c0,6.1,4.6,11,10.2,11c5.7,0,10.2-4.9,10.2-11
		C116.6,125,112,120.1,106.3,120.1z"/>
	<path class="st0" d="M191.4,36.9h-134c-11.3,0-20.5,9.2-20.5,20.5v134c0,11.3,9.2,20.5,20.5,20.5h113.4l-5.3-18.3l12.8,11.8
		l12.1,11.1l21.6,18.7v-43.8v-10V57.4C211.9,46.1,202.7,36.9,191.4,36.9z M152.8,166.4c0,0-3.6-4.3-6.6-8
		c13.1-3.7,18.1-11.8,18.1-11.8c-4.1,2.7-8,4.6-11.5,5.9c-5,2.1-9.8,3.4-14.5,4.3c-9.6,1.8-18.4,1.3-25.9-0.1
		c-5.7-1.1-10.6-2.6-14.7-4.3c-2.3-0.9-4.8-2-7.3-3.4c-0.3-0.2-0.6-0.3-0.9-0.5c-0.2-0.1-0.3-0.2-0.4-0.2c-1.8-1-2.8-1.7-2.8-1.7
		s4.8,7.9,17.5,11.7c-3,3.8-6.7,8.2-6.7,8.2c-22.1-0.7-30.5-15.1-30.5-15.1c0-31.9,14.4-57.8,14.4-57.8c14.4-10.7,28-10.4,28-10.4
		l1,1.2c-18,5.1-26.2,13-26.2,13s2.2-1.2,5.9-2.8c10.7-4.7,19.2-5.9,22.7-6.3c0.6-0.1,1.1-0.2,1.7-0.2c6.1-0.8,13-1,20.2-0.2
		c9.5,1.1,19.7,3.9,30.1,9.5c0,0-7.9-7.5-24.9-12.6l1.4-1.6c0,0,13.7-0.3,28,10.4c0,0,14.4,25.9,14.4,57.8
		C183.3,151.3,174.9,165.7,152.8,166.4z"/>
</g>
<path class="st0" d="M303.8,79.7h-33.2V117l22.1,19.9v-36.2h11.8c7.5,0,11.2,3.6,11.2,9.4v27.7c0,5.8-3.5,9.7-11.2,9.7h-34v21.1
	h33.2c17.8,0.1,34.5-8.8,34.5-29.2v-29.8C338.3,88.8,321.6,79.7,303.8,79.7z M477.8,139.4v-30.6c0-11,19.8-13.5,25.8-2.5l18.3-7.4
	c-7.2-15.8-20.3-20.4-31.2-20.4c-17.8,0-35.4,10.3-35.4,30.3v30.6c0,20.2,17.6,30.3,35,30.3c11.2,0,24.6-5.5,32-19.9l-19.6-9
	C497.9,153.1,477.8,150.1,477.8,139.4z M417.3,113c-6.9-1.5-11.5-4-11.8-8.3c0.4-10.3,16.3-10.7,25.6-0.8l14.7-11.3
	c-9.2-11.2-19.6-14.2-30.3-14.2c-16.3,0-32.1,9.2-32.1,26.6c0,16.9,13,26,27.3,28.2c7.3,1,15.4,3.9,15.2,8.9
	c-0.6,9.5-20.2,9-29.1-1.8l-14.2,13.3c8.3,10.7,19.6,16.1,30.2,16.1c16.3,0,34.4-9.4,35.1-26.6C448.9,121.4,433.1,115.9,417.3,113z
	 M350.3,168.5h22.4V79.7h-22.4V168.5z M728,79.7h-33.2V117l22.1,19.9v-36.2h11.8c7.5,0,11.2,3.6,11.2,9.4v27.7
	c0,5.8-3.5,9.7-11.2,9.7h-34v21.1H728c17.8,0.1,34.5-8.8,34.5-29.2v-29.8C762.5,88.8,745.8,79.7,728,79.7z M565.1,78.5
	c-18.4,0-36.7,10-36.7,30.5v30.3c0,20.3,18.4,30.5,36.9,30.5c18.4,0,36.7-10.2,36.7-30.5V109C602,88.6,583.5,78.5,565.1,78.5z
	 M579.5,139.3c0,6.4-7.2,9.7-14.3,9.7c-7.2,0-14.4-3.1-14.4-9.7V109c0-6.5,7-10,14-10c7.3,0,14.7,3.1,14.7,10V139.3z M682.4,109
	c-0.5-20.8-14.7-29.2-33-29.2h-35.5v88.8h22.7v-28.2h4l20.6,28.2h28l-24.2-30.5C675.7,134.7,682.4,125.4,682.4,109z M649.8,121
	h-13.2v-20.3h13.2C663.9,100.7,663.9,121,649.8,121z"/>
</svg>
