<?xml version="1.0" encoding="utf-8"?>
<!-- Generated by IcoMoon.io -->
<!DOCTYPE svg PUBLIC "-//W3C//DTD SVG 1.1//EN" "http://www.w3.org/Graphics/SVG/1.1/DTD/svg11.dtd">
<svg version="1.1" xmlns="http://www.w3.org/2000/svg" xmlns:xlink="http://www.w3.org/1999/xlink" width="36" height="36" viewBox="0 0 36 36">
<g>
</g>
	<path d="M18.354 17.984c0.092-0.028 0.182-0.056 0.266-0.078-0.167-0.372-0.345-0.746-0.541-1.114-3.273 0.98-6.453 0.939-6.741 0.933v0.197c0 1.688 0.642 3.226 1.693 4.393 0.14-0.255 1.946-3.241 5.323-4.332z" fill="#000000" />
	<path d="M19.021 19.007c-3.699 1.289-5.030 3.857-5.149 4.092 1.108 0.87 2.51 1.39 4.028 1.39 0.909 0 1.782-0.19 2.563-0.523-0.095-0.574-0.482-2.577-1.404-4.976-0.009 0.005-0.025 0.009-0.039 0.017z" fill="#000000" />
	<path d="M17.543 15.783c-1.086-1.938-2.262-3.561-2.439-3.795-1.829 0.864-3.203 2.553-3.629 4.593 0.295 0.003 3.002 0.010 6.068-0.798z" fill="#000000" />
	<path d="M22.252 13.011c-1.16-1.022-2.684-1.653-4.351-1.653-0.529 0-1.048 0.067-1.541 0.181 0.184 0.247 1.372 1.874 2.452 3.849 2.337-0.876 3.321-2.202 3.44-2.377z" fill="#000000" />
	<path d="M17.902 1.713c-8.949 0-16.203 7.254-16.203 16.203 0 8.948 7.254 16.203 16.203 16.203 8.949 0 16.203-7.254 16.203-16.203 0-8.949-7.254-16.203-16.203-16.203zM17.901 25.599c-4.237 0-7.684-3.448-7.684-7.685 0-4.233 3.447-7.681 7.684-7.681 4.232 0 7.686 3.448 7.686 7.681 0 4.237-3.454 7.685-7.686 7.685z" fill="#000000" />
	<path d="M19.317 16.36c0.149 0.315 0.295 0.635 0.438 0.955 0.047 0.11 0.093 0.226 0.137 0.334 2.187-0.275 4.355 0.168 4.564 0.215-0.003-1.552-0.558-2.975-1.47-4.088-0.142 0.188-1.241 1.594-3.669 2.584z" fill="#000000" />
	<path d="M20.289 18.689c0.863 2.355 1.216 4.276 1.276 4.678 1.47-1 2.522-2.573 2.821-4.401-0.225-0.073-2.037-0.606-4.097-0.277z" fill="#000000" />
</svg>
