<svg viewBox="0 0 1200 900" fill="none" xmlns="http://www.w3.org/2000/svg"><path fill="#fff" d="M0 0h1200v900H0z"></path><path d="M808 521a5 5 0 015 5v20H389v-20a5 5 0 015-5h414z" fill="#D2D2D2"></path><path fill="#A3A3A3" d="M396 527h4v4h-4zm6 0h4v4h-4zm6 0h4v4h-4z"></path><path fill-rule="evenodd" clip-rule="evenodd" d="M589 800.068c0 1.067-.626 1.932-1.399 1.932H390.399c-.773 0-1.399-.865-1.399-1.932V636a5 5 0 015-5h190a5 5 0 015 5v164.068z" fill="#FF003C"></path><path d="M389 636a5 5 0 015-5h190a5 5 0 015 5v18H389v-18z" fill="#CCC"></path><path fill-rule="evenodd" clip-rule="evenodd" d="M406 643.5a4.5 4.5 0 01-4.5 4.5 4.5 4.5 0 01-4.5-4.5 4.5 4.5 0 014.5-4.5 4.5 4.5 0 014.5 4.5z" fill="#E74C3C"></path><path fill-rule="evenodd" clip-rule="evenodd" d="M422 643.5a4.5 4.5 0 01-4.5 4.5 4.5 4.5 0 01-4.5-4.5 4.5 4.5 0 014.5-4.5 4.5 4.5 0 014.5 4.5z" fill="#F1C40F"></path><path fill-rule="evenodd" clip-rule="evenodd" d="M437 643.5a4.5 4.5 0 01-4.5 4.5 4.5 4.5 0 01-4.5-4.5 4.5 4.5 0 014.5-4.5 4.5 4.5 0 014.5 4.5z" fill="#2ECC71"></path><path fill-rule="evenodd" clip-rule="evenodd" d="M813 800.068c0 1.067-.626 1.932-1.399 1.932H614.399c-.773 0-1.399-.865-1.399-1.932V636a5 5 0 015-5h190a5 5 0 015 5v164.068z" fill="#FF003C"></path><path d="M613 636a5 5 0 015-5h190a5 5 0 015 5v18H613v-18z" fill="#CCC"></path><path fill-rule="evenodd" clip-rule="evenodd" d="M630 643.5a4.5 4.5 0 01-4.5 4.5 4.5 4.5 0 01-4.5-4.5 4.5 4.5 0 014.5-4.5 4.5 4.5 0 014.5 4.5z" fill="#E74C3C"></path><path fill-rule="evenodd" clip-rule="evenodd" d="M646 643.5a4.5 4.5 0 01-4.5 4.5 4.5 4.5 0 01-4.5-4.5 4.5 4.5 0 014.5-4.5 4.5 4.5 0 014.5 4.5z" fill="#F1C40F"></path><path fill-rule="evenodd" clip-rule="evenodd" d="M661 643.5a4.5 4.5 0 01-4.5 4.5 4.5 4.5 0 01-4.5-4.5 4.5 4.5 0 014.5-4.5 4.5 4.5 0 014.5 4.5z" fill="#2ECC71"></path><path d="M492 546.01l.01-2-4-.02-.01 2 4 .02zm-2.5 101.49l11.645-19.943-23.093-.114L489.5 647.5zM488 545.99l-.411 83.5 4 .02.411-83.5-4-.02zm224 .02l.01-2-4-.02-.01 2 4 .02zm-2.5 101.49l11.645-19.943-23.093-.114L709.5 647.5zM708 545.99l-.411 83.5 4 .02.411-83.5-4-.02z" fill="#9EEBCF"></path><g clip-path="url(#clip0)"><path d="M701.369 550.601c3.517 5.051 10.462 6.294 15.512 2.777 5.05-3.516 6.294-10.461 2.777-15.511-3.516-5.051-10.461-6.294-15.511-2.777-5.051 3.516-6.294 10.461-2.778 15.511z" fill="#9EEBCF"></path></g><path d="M471 270l.038-70.382a2.8 2.8 0 012.799-2.798l54.217-.001c1.119-.44.719-.72.559-1-3.478-5.758-5.757-11.957-6.637-18.675-1.959-15.396 2.399-28.793 12.874-40.27.6-.64 1.2-1.24 1.84-1.839.519-.52.519-.52.04-1-1.64-1.56-3.119-3.279-4.358-5.199-2.799-4.439-4.358-9.277-4.478-14.556-.04-1.32.24-1.48 1.439-.88 1.279.64 2.599 1.2 3.998 1.64.16-2.32-.12-4.239-.16-6.199 0-.719-.04-1.399 0-2.119 0-1 .36-1.24 1.24-.72 1.399.8 2.798 1.52 4.278 2.12.879.359.879.359.799-.6-.24-2.52-.28-5.039 0-7.558.24-.96.68-1.12 1-.84.24.2.4.48.6.72 3.078 3.839 6.517 7.278 10.635 10.037 3.598 2.399 7.476 3.719 11.794 3.759 3.239.04 6.357-.64 9.356-1.799 2.799-1.08 5.597-2.2 8.516-2.84 2.958-.64 5.957-.919 8.916-.2 5.037 1.24 8.436 4.479 10.555 9.118.799 1.76 1.239 3.599 1.519 5.519.12.719.12.719.88.679 4.398-.32 8.636.36 12.474 2.64 4.598 2.759 7.157 6.918 8.156 12.077.72 3.799.52 7.558-.08 11.357-.48 2.959-1.279 5.878-2.239 8.717-.24.72-.4.68.48 1 4.478 1.52 7.277 4.599 8.076 9.238 1.12 6.358-2.958 11.997-8.876 13.396-1.079.24-2.199.4-3.318.28-.48-.08-.64.16-.76.6-.839 3.039-1.999 5.999-3.398 8.838-2.879 5.718-6.717 10.637-11.515 14.836-1.079.76-1.159 1.2-.919 1.8.559 1.559 1.039 3.159 1.559 4.718 3.238 10.078 6.517 20.115 9.715 30.193.24.72.56.999 1.28 1.119 3.158.68 5.157 2.64 5.997 5.759.16.68.28 1.4.4 2.079.759-.439 1.079-.879 1.559-1.279 1.359-1.12 2.879-1.36 4.518-.8 1.679.6 2.679 1.839 2.919 3.599.08.6.24.76.839.84 2.799.44 4.438 3.199 3.519 5.918-.24.68-.16 1.16.319 1.72 1.24 1.479 1.96 3.199 2.199 5.119.12.839 0 .839.92.839h16.512c0-1.679-.519-2.999-.799-4.439-1.879.12-3.159.44-4.398.84-.72.24-1.08.08-1.2-.32-.12-.36.16-.64.84-.839 1.159-.36 2.319-.68 3.478-1.04 1.16-.36.96-.08.96-1.36.04-.6-.2-.68-.52-.68h-5.757c-1.04-.04-1.2-.24-1.2-.56.76-.599.96-.559 1.2-.559h5.677c.52 0 .72-.16.8-.68.2-1.36.24-1.36-1.12-1.76-1.119-.36-2.279-.68-3.398-.999-.88-.36-1-.6-.92-.88.88-.4 1.12-.32 1.4-.24 1.359.4 2.678.8 4.038 1.239 1.839-2.839 3.398-4.838 5.517-6.358.4-.28.48-.6.48-1.04v-12.356c.08-.56.48-.76.96-.48 3.958 3.679 7.436 6.918 10.875 10.117.919.88.639.88 1.679.12a21.56 21.56 0 0124.988 0c.96.68.68.84 1.719-.12l10.516-9.677c.319-.28.599-.76 1.119-.56.56.2.36.759.36 1.159v17.956c0 1.159 0 1.159 1.079.84.96-.28 1.879-.56 2.839-.84 1.359.56 1.279.84.92.96l-2.279.719-2.039.6c-.56.92-.56 1.52-.52 2.08 2.879.24 4.638.24 6.397.24.999.12 1.199.32 1.159.599-.719.56-.999.56-1.239.56h-5.558c-.799 0-.839 0-.839.76 0 1.24-.08.96.959 1.28 1.08.36 2.199.64 3.319 1 .919.399 1.039.639.919.959-2.358-.12-3.438-.48-4.557-.8-.64 1.64-.64 2.8-.64 3.999 0 .44.12.68.6.64h17.272c.439 0 .879-.04 1.319.2v.76c-1 .24-1.279.24-1.599.24H471z" fill="#151D38"></path><path d="M517.379 263v-.08h44.576c1.045 0 1.045 0 1.045-1.035v-62.036c-.04-1.075-.643-1.712-1.728-1.831-.362-.04-.724 0-1.045 0H474.09c-1.487.04-2.09.677-2.09 2.11v61.916c0 .916 0 .916.965.916h.683c14.55.04 29.141.04 43.731.04z" fill="#CCD6DA"></path><path d="M546.226 196.81h14.533c1.514 0 2.668.883 2.947 2.247.08.361.08.682.08 1.043v16.567c0 .923.079.883.796.963 5.853.722 11.627.401 17.321-1.083 12.981-3.41 22.816-11.032 29.546-22.665 1.911-3.289 3.344-6.819 4.38-10.51.199-.722.199-.722-.478-.923l-1.075-.361c-.677-.28-.876-.521-.757-.922.12-.441.478-.482 1.195-.241 1.911.722 3.822.883 5.813.522 5.894-1.164 9.676-7.181 8.123-12.998-1.592-5.937-7.724-9.306-13.458-7.381-.279.081-.518.241-.797.281-.278.04-.478-.12-.597-.361-.119-.281-.04-.521.159-.682.16-.12.319-.2.518-.241.438-.16.836-.28 1.274-.401.08-.04.199-.08.239-.16.08-.201-.119-.161-.239-.201-.159-.08-.358-.12-.557-.2-2.987-1.043-5.854-2.367-8.482-4.132-4.778-3.129-8.481-7.221-10.87-12.476-1.115-2.487-1.872-5.094-2.31-7.822-.119-.802-.159-.802-.836-.441-.239.12-.438.24-.677.401-3.544 2.086-7.167 3.851-10.99 5.295-8.242 3.089-16.684 4.332-25.404 2.768-6.053-1.083-11.707-3.249-16.644-7.06-.638-.482-.638-.482-1.155.04-4.46 4.292-8.004 9.226-10.552 14.842-3.942 8.785-5.137 17.931-3.663 27.439.995 6.458 3.304 12.435 6.729 17.971.398.682.836.963 1.672.963 4.699-.121 9.437-.081 14.216-.081z" fill="#FAE0D6"></path><path d="M564.046 241.011v21.716c0 .482.12.683.64.683 1.079-.04 2.159 0 3.279 0 4.039 0 8.078-.04 12.077-.04.84 0 .92.121.92.965v3.941c0 .644-.08.724.639.724h15.436c.52 0 .64-.201.68-.643.16-1.448.6-2.856 1.36-4.102.28-.443.32-.845.12-1.368-.84-2.493-1.64-5.026-2.439-7.52-1.96-6.112-3.959-12.225-5.919-18.337a3.974 3.974 0 01-.2-.644c-.08-.362.08-.643.44-.723.32-.081.56.08.68.361l.12.362 4.199 13.03c1.319 4.102 2.639 8.203 3.999 12.265.24.684.24.724.76.241 1.439-1.407 3.119-2.332 5.078-2.774.6-.161.64-.161.48-.765-.32-1.327-.68-2.694-.96-4.021-.919-4.021 1.52-8.163 5.479-9.209.24-.08.52-.08.76-.161.28-.04.4-.201.28-.482-.04-.161-.08-.322-.16-.443-3.119-9.732-6.279-19.504-9.398-29.235-.56-1.81-1.16-3.62-1.759-5.429-.12-.402-.32-.563-.64-.201-.12.12-.24.201-.4.281-2.639 1.971-5.479 3.7-8.478 5.067-5.839 2.694-11.997 4.223-18.435 4.464-2.72.121-5.439.08-8.118-.322-.44-.08-.6.081-.56.483v.764c.04 7.037.04 14.075.04 21.072z" fill="#FFF3A2"></path><path d="M691.629 268.919h17.513c.838 0 .838 0 .838-.849v-29.592c0-.162.08-.364-.08-.445-.239-.121-.319.121-.478.243-2.155 2.021-4.309 4.002-6.503 6.023-1.317 1.213-2.633 2.466-3.95 3.679-.558.526-.638.485-1.236.081-.2-.121-.359-.283-.519-.404-3.152-2.386-6.662-3.8-10.572-4.083-5.226-.405-9.974 1.051-14.162 4.285-.918.727-.918.727-1.756-.041-.04-.04-.08-.081-.159-.121-3.152-2.992-6.344-5.983-9.535-8.975-.239-.242-.479-.687-.798-.566-.239.122-.12.566-.12.89v10.47c0 .485-.04.89-.558 1.213-5.745 3.921-7.101 11.562-3.75 17.464.319.566.678.809 1.356.809 4.229-.04 8.498 0 12.726-.04.28 0 .679.121.798-.122.12-.242-.279-.444-.478-.647-2.075-2.263-2.713-4.891-1.836-7.802.878-2.911 2.913-4.649 5.785-5.336.599-.162 1.197-.243 1.795-.162.32.04.519.243.519.606 0 .283-.16.486-.479.526-.359.04-.678.081-1.037.121-2.753.364-5.106 2.466-5.665 5.175a6.704 6.704 0 002.992 7.115 3.715 3.715 0 001.995.566c5.904-.121 11.649-.081 17.354-.081z" fill="#C27659"></path><path d="M517.453 264.042c-8.157.036-16.314.036-24.472.036h-20.413c-.402 0-.603.142-.563.499v2.139c0 1.284 0 1.284 1.447 1.284 11.452 0 22.945 0 34.397-.036 17.882 0 35.724-.035 53.606-.035h.764c.562-.036.763-.214.763-.713.04-.928 0-1.819 0-2.746 0-.392-.201-.499-.603-.464h-.683c-4.259 0-8.479.036-12.738.036h-31.505zm99.508 4.917h17.559c.355.041.514-.081.474-.487-.198-1.707-.791-3.252-1.819-4.634-.158-.243-.316-.203-.395.082-.04.122-.08.244-.159.365-1.305 2.805-4.547 3.577-6.92 1.626-.435-.366-.712-.447-1.226-.203-1.463.61-2.847.406-4.152-.488-1.385-.975-2.017-2.357-1.899-4.105.04-.609 0-.65-.514-.487-1.226.325-2.372.203-3.48-.447-.277-.163-.514-.163-.83-.163-1.819 0-3.678-.041-5.497 0-4.192.081-7.791 3.048-8.858 7.234a7.974 7.974 0 00-.238 1.342c-.039.284.08.406.356.406h.752c5.655-.041 11.27-.041 16.846-.041z" fill="#CCD6DA"></path><path d="M610.007 258.287h2.188c.289 0 .454-.077.33-.386-.826-2.127-.949-4.408-1.445-6.612-.124-.502.083-.812.454-.889.372-.077.62.155.743.657.124.503.207 1.044.289 1.547.248 1.314.454 2.629.743 3.905.413 1.74 2.106 2.745 3.964 2.435 1.816-.348 2.972-1.894 2.683-3.634-.248-1.508-.496-2.977-.867-4.446-.784-3.286-4.293-5.374-7.802-4.756-3.344.58-5.78 3.867-5.202 7.076.289 1.546.784 3.054 1.156 4.601.083.348.289.502.702.502h2.064zm9.993 3.36c.082 1.124.449 2.007 1.348 2.648 1.88 1.365 4.413.683 5.231-1.484.776-2.127 1.511-4.293 2.247-6.46.082-.241.122-.482.163-.763.123-1.564-.817-2.969-2.37-3.45-1.511-.442-3.187.2-3.922 1.605-.491.963-.899 2.006-1.063 3.089a6.383 6.383 0 01-.776 2.247c-.49.843-.776 1.726-.858 2.568z" fill="#FAE0D6"></path><path d="M571.838 268v-.036h7.472c.406-.036.69-.18.69-.577v-3.027c0-.252-.162-.36-.447-.36h-9.908c-1.665 0-3.33.036-4.955.036-.487 0-.69.144-.69.577.041.901 0 1.801 0 2.666 0 .685 0 .721.812.721h7.026z" fill="#CCD6DA"></path><path d="M633 260.398c0-1.79-1.151-3.074-2.899-3.347-.768-.116-.853-.077-1.109.584-.469 1.245-.895 2.49-1.364 3.697-.426 1.089-.639 2.295-1.492 3.229-.299.312-.043.506.17.701 1.791 1.362 4.52.778 5.458-1.245.426-.934.767-1.907 1.108-2.88.128-.311.128-.623.128-.739z" fill="#FAE0D6"></path><path d="M528.982 231.205c-.317 4.863-3.328 8.491-7.766 9.528-5.707 1.355-11.334-2.592-12.126-8.452-.674-4.943 2.496-9.967 7.648-11.163 1.109-.239 1.189-.199 1.347.917.674 3.788 3.21 6.578 6.895 7.415.872.2 1.744.24 2.655.16 1.189-.12 1.308 0 1.347 1.196.04.199 0 .399 0 .399z" fill="#151D38"></path><path d="M519.175 240c.607-.041 1.415-.123 2.223-.328 3.597-.983 6.427-4.424 6.588-8.111.041-.82.041-.82-.727-.82-4.81.082-9.013-3.195-10.104-7.947-.243-1.065-.364-.819-1.011-.614-4.163 1.392-6.749 5.735-6.022 10.2.687 4.342 4.527 7.661 9.053 7.62z" fill="#fff"></path><path d="M562.814 160.365h13.172c2.018 0 4.035.081 6.053.121.949.041 1.186.365.751 1.175-2.967 5.632-7.318 9.562-13.528 10.899-6.251 1.337-11.749-.405-16.456-4.821-1.86-1.742-3.284-3.849-4.431-6.159-.118-.243-.237-.446-.316-.689-.158-.486 0-.729.514-.85.198-.041.396-.041.554-.041l11.669.122c.673 0 1.306.081 1.978.081.04.081.04.121.04.162z" fill="#151D38"></path><path d="M566.073 161.154h-3.574c-1.486 0-2.932 0-4.418-.077-2.529-.077-5.059-.077-7.589-.077-.563 0-.603.039-.322.502a18.162 18.162 0 003.856 4.824c4.417 3.859 9.557 5.442 15.42 4.322 5.381-1.042 9.317-4.052 12.208-8.452.522-.81.522-.849-.482-.849-5.019-.077-10.079-.154-15.099-.193z" fill="#fff"></path><path d="M528 166.5c0-3.269 2.452-6.461 6.539-6.5 3.581-.039 6.461 2.919 6.461 6.5 0 3.62-2.88 6.5-6.5 6.5-3.581-.039-6.5-2.919-6.5-6.5zm76.99 1.02c.156 3.123-2.535 6.441-6.475 6.48-3.589 0-6.476-2.889-6.515-6.48 0-3.669 2.848-6.519 6.515-6.519 3.862-.078 6.67 3.24 6.475 6.519z" fill="#E5384A"></path><path d="M543.478 152c1.975 0 3.564 1.546 3.521 3.521 0 1.933-1.546 3.479-3.435 3.479-1.975 0-3.564-1.546-3.564-3.521 0-1.89 1.546-3.436 3.478-3.479zm45.044 1.001c1.975 0 3.478 1.545 3.478 3.563-.043 1.932-1.589 3.478-3.521 3.435-1.889 0-3.478-1.588-3.478-3.478a3.43 3.43 0 013.521-3.52zm36.477 18.059c-.04 4.067-4.208 6.933-8.176 5.616a1.405 1.405 0 01-.361-.155c-.401-.155-.561-.426-.401-.813.121-.349.481-.387.802-.31.2.039.441.155.641.194 2.766.736 5.652-.969 6.213-3.641.561-2.75-1.363-5.346-4.209-5.733-.24-.039-.521-.077-.761-.116-.281-.039-.441-.271-.441-.543 0-.348.2-.503.521-.542.2-.039.441 0 .681 0 3.167.349 5.532 2.944 5.491 6.043zm-59.001-19.375c0 .284-.223.447-.483.568a67.13 67.13 0 01-2.378 1.299c-.334.163-.408.325-.074.569.669.487 1.3 1.014 1.969 1.501.186.122.334.244.483.406.186.203.186.487.037.731s-.371.284-.631.203a.761.761 0 01-.372-.244c-1.003-.771-2.043-1.542-3.046-2.354-.706-.568-.669-.974.111-1.421a95.695 95.695 0 013.418-1.867c.557-.203 1.003 0 .966.609zM535 153.924c.114-2.898 2.01-5.299 4.703-5.837.304-.083.607-.125.911-.042.227.042.379.249.379.497.038.29-.076.538-.341.621a5.376 5.376 0 01-.797.165c-2.048.456-3.414 2.112-3.641 4.347-.038.249-.038.456-.038.704-.038.373-.19.621-.569.621-.379 0-.531-.29-.569-.662-.038-.125-.038-.249-.038-.414zm61-.021c0 .162 0 .447-.039.691-.078.284-.274.406-.548.406s-.469-.163-.509-.447c-.039-.203 0-.407-.039-.569-.117-2.398-1.643-4.227-3.913-4.674-.117-.041-.234-.041-.352-.081-.391-.082-.665-.285-.587-.732.079-.447.431-.528.783-.488 1.33.163 2.465.691 3.443 1.626 1.096 1.179 1.683 2.561 1.761 4.268zm88.66 112.088c-1.5-.043-2.514-.472-3.285-1.503-.324-.387-.446-.387-.77 0-1.42 1.675-3.488 1.976-5.151.816-.567-.387-1.014-.945-1.338-1.59-.162-.343-.203-.773.203-.988.405-.214.649 0 .851.387.122.258.284.515.487.773 1.338 1.504 3.691 1.031 4.421-.859.162-.429.202-.687-.325-.816-.73-.215-1.176-.816-1.663-1.375a1.494 1.494 0 01-.365-.816c-.121-.601.082-.988.69-.988 1.703-.043 3.447-.043 5.15 0 .568 0 .771.387.609.988-.244.988-.974 1.504-1.704 2.019-.243.172-.649.129-.73.43-.081.386.163.773.406 1.117 1.095 1.589 3.285 1.589 4.42 0 .122-.172.244-.43.365-.602.203-.301.487-.343.771-.215.284.172.365.473.243.774a4.071 4.071 0 01-1.095 1.546c-.73.601-1.541.945-2.19.902zm13.341-10.99c1.714 0 2.999 1.328 2.999 2.999 0 1.714-1.371 3.042-3.085 2.999-1.671-.043-2.957-1.371-2.914-3.085-.043-1.671 1.286-2.956 3-2.913zM662.979 261c-1.66 0-2.979-1.277-2.979-2.979 0-1.702 1.234-2.978 2.936-3.021 1.745 0 3.064 1.277 3.064 2.979-.043 1.702-1.319 3.021-3.021 3.021z" fill="#151D38"></path><path d="M628.339 283.455h-3.075V298h3.075v-14.545zm5.499 8.238c.008-1.406.846-2.23 2.067-2.23 1.215 0 1.946.796 1.939 2.131V298h3.026v-6.946c0-2.543-1.492-4.105-3.765-4.105-1.619 0-2.791.795-3.281 2.067h-.128v-1.925h-2.883V298h3.025v-6.307zm14.345 6.52c2.905 0 4.73-1.704 4.872-4.212H650.2c-.177 1.165-.944 1.819-1.981 1.819-1.414 0-2.33-1.186-2.33-3.275 0-2.059.923-3.238 2.33-3.238 1.108 0 1.818.731 1.981 1.818h2.855c-.127-2.521-2.038-4.176-4.886-4.176-3.31 0-5.355 2.294-5.355 5.639 0 3.317 2.01 5.625 5.369 5.625zm11.739 0c3.309 0 5.369-2.266 5.369-5.625 0-3.381-2.06-5.639-5.369-5.639-3.31 0-5.37 2.258-5.37 5.639 0 3.359 2.06 5.625 5.37 5.625zm.014-2.344c-1.527 0-2.309-1.399-2.309-3.302 0-1.904.782-3.31 2.309-3.31 1.498 0 2.28 1.406 2.28 3.31 0 1.903-.782 3.302-2.28 3.302zm7.322 2.131h3.026v-6.548c0-1.208.767-2.01 1.775-2.01.995 0 1.662.682 1.662 1.754V298h2.933v-6.662c0-1.129.647-1.896 1.748-1.896.966 0 1.69.603 1.69 1.818V298h3.018v-7.337c0-2.365-1.406-3.714-3.437-3.714-1.598 0-2.841.817-3.288 2.067h-.114c-.348-1.265-1.463-2.067-2.962-2.067-1.47 0-2.585.781-3.039 2.067h-.128v-1.925h-2.884V298zm18.242 0h3.026v-10.909H685.5V298zm1.52-12.315c.902 0 1.641-.689 1.641-1.534 0-.839-.739-1.527-1.641-1.527-.895 0-1.633.688-1.633 1.527 0 .845.738 1.534 1.633 1.534zm6.955 6.008c.007-1.406.845-2.23 2.067-2.23 1.214 0 1.946.796 1.939 2.131V298h3.025v-6.946c0-2.543-1.491-4.105-3.764-4.105-1.619 0-2.791.795-3.281 2.067h-.128v-1.925h-2.883V298h3.025v-6.307zm14.331 10.554c3.118 0 5.334-1.42 5.334-4.14v-11.016h-3.005v1.832h-.113c-.405-.887-1.293-1.974-3.118-1.974-2.394 0-4.418 1.861-4.418 5.575 0 3.629 1.967 5.32 4.425 5.32 1.74 0 2.713-.874 3.111-1.776h.128v1.996c0 1.427-.959 2.01-2.273 2.01-1.335 0-2.01-.583-2.259-1.172l-2.798.376c.362 1.648 2.045 2.969 4.986 2.969zm.064-6.676c-1.485 0-2.294-1.179-2.294-3.061 0-1.854.795-3.153 2.294-3.153 1.47 0 2.294 1.242 2.294 3.153 0 1.925-.838 3.061-2.294 3.061zm-77.36 15.52h-2.053v-2.614h-3.025v2.614h-1.492v2.273h1.492v5.681c-.014 2.138 1.442 3.196 3.636 3.104a5.897 5.897 0 001.641-.284l-.476-2.251c-.149.028-.469.099-.753.099-.604 0-1.023-.227-1.023-1.065v-5.284h2.053v-2.273zM632.981 322h3.025v-6.172c.007-1.335.973-2.251 2.195-2.251.412 0 .746.113 1.03.255l.909-2.5a2.877 2.877 0 00-1.492-.397c-1.228 0-2.223.71-2.62 2.059h-.114v-1.903h-2.933V322zm11.372.206c1.613 0 2.657-.703 3.189-1.719h.085V322h2.87v-7.358c0-2.599-2.202-3.693-4.631-3.693-2.614 0-4.332 1.25-4.751 3.239l2.798.227c.206-.725.852-1.257 1.939-1.257 1.03 0 1.619.518 1.619 1.413v.043c0 .703-.746.795-2.642.98-2.159.199-4.098.923-4.098 3.359 0 2.159 1.541 3.253 3.622 3.253zm.867-2.088c-.931 0-1.598-.433-1.598-1.264 0-.853.703-1.272 1.768-1.421.661-.092 1.74-.248 2.103-.49v1.158c0 1.143-.945 2.017-2.273 2.017zm13.59-9.027h-2.166v-.732c0-.738.298-1.171 1.186-1.171.362 0 .731.078.973.156l.533-2.273a7.965 7.965 0 00-2.138-.298c-2.053 0-3.58 1.157-3.58 3.53v.788h-1.541v2.273h1.541V322h3.026v-8.636h2.166v-2.273zm7.813 0h-2.167v-.732c0-.738.299-1.171 1.186-1.171.363 0 .732.078.973.156l.533-2.273a7.952 7.952 0 00-2.138-.298c-2.052 0-3.579 1.157-3.579 3.53v.788h-1.541v2.273h1.541V322h3.025v-8.636h2.167v-2.273zM668.469 322h3.026v-10.909h-3.026V322zm1.52-12.315c.902 0 1.641-.689 1.641-1.534 0-.839-.739-1.527-1.641-1.527-.895 0-1.634.688-1.634 1.527 0 .845.739 1.534 1.634 1.534zm8.858 12.528c2.905 0 4.73-1.704 4.872-4.212h-2.855c-.177 1.165-.944 1.819-1.981 1.819-1.414 0-2.33-1.186-2.33-3.275 0-2.059.924-3.238 2.33-3.238 1.108 0 1.818.731 1.981 1.818h2.855c-.127-2.521-2.038-4.176-4.886-4.176-3.31 0-5.355 2.294-5.355 5.639 0 3.317 2.01 5.625 5.369 5.625z" fill="#7DA159"></path><path d="M1054 383c2.76 0 5 2.239 5 5v20H143v-20a5 5 0 015-5h906z" fill="#353535"></path><path fill="#A3A3A3" d="M150 389h4v4h-4zm6 0h4v4h-4zm6 0h4v4h-4z"></path><path d="M603 413v-2h-4v2h4zm-2 124l11.547-20h-23.094L601 537zm-2-124v106h4V413h-4z" fill="#9EEBCF"></path><path d="M601.559 415.08l-1.921-.559-1.117 3.841 1.92.558 1.118-3.84zM958.5 521l-15.978-16.674-6.451 22.175L958.5 521zM600.441 418.92l340.217 98.972 1.117-3.84-340.216-98.972-1.118 3.84z" fill="#9EEBCF"></path><path d="M1054 521c2.76 0 5 2.239 5 5v20H859v-20a5 5 0 015-5h190z" fill="#D2D2D2"></path><path fill="#A3A3A3" d="M866 527h4v4h-4zm6 0h4v4h-4zm6 0h4v4h-4z"></path><path fill-rule="evenodd" clip-rule="evenodd" d="M1059 800.068c0 1.067-.63 1.932-1.4 1.932H860.399c-.773 0-1.399-.865-1.399-1.932V636a5 5 0 015-5h190c2.76 0 5 2.239 5 5v164.068z" fill="#D4EEB9"></path><path d="M859 636a5 5 0 015-5h190c2.76 0 5 2.239 5 5v18H859v-18z" fill="#CCC"></path><path fill-rule="evenodd" clip-rule="evenodd" d="M876 643.5a4.5 4.5 0 01-4.5 4.5 4.5 4.5 0 01-4.5-4.5 4.5 4.5 0 014.5-4.5 4.5 4.5 0 014.5 4.5z" fill="#E74C3C"></path><path fill-rule="evenodd" clip-rule="evenodd" d="M892 643.5a4.5 4.5 0 01-4.5 4.5 4.5 4.5 0 01-4.5-4.5 4.5 4.5 0 014.5-4.5 4.5 4.5 0 014.5 4.5z" fill="#F1C40F"></path><path fill-rule="evenodd" clip-rule="evenodd" d="M907 643.5a4.5 4.5 0 01-4.5 4.5 4.5 4.5 0 01-4.5-4.5 4.5 4.5 0 014.5-4.5 4.5 4.5 0 014.5 4.5z" fill="#2ECC71"></path><rect x="873.532" y="727.798" width="170.936" height="60.837" rx="1.97" fill="#EEF6E4" stroke="#6FA636" stroke-width=".985"></rect><rect x="873.532" y="662.527" width="170.936" height="60.837" rx=".739" fill="#EEF6E4" stroke="#6FA536" stroke-width=".985"></rect><path d="M940.538 762.395c-1.182 0-2.128-.354-2.808-1.034-.68-.68-1.005-1.655-1.005-2.867 0-1.242.325-2.247.946-2.956.621-.709 1.478-1.064 2.571-1.064 1.005 0 1.803.296 2.394.916.592.621.887 1.449.887 2.542v.887h-5.113c.029.739.236 1.3.591 1.714.355.414.916.591 1.596.591.443 0 .887-.029 1.271-.118.384-.089.798-.236 1.271-.414v1.33a5.84 5.84 0 01-1.212.414c-.414.089-.887.059-1.389.059zm-.325-6.68c-.532 0-.946.178-1.242.503-.295.325-.502.798-.561 1.448h3.488c0-.621-.148-1.123-.444-1.448-.295-.325-.709-.503-1.241-.503zm6.769 6.562h-1.626v-10.788h1.626v10.788zm7.122 0l-.325-1.064h-.059c-.355.473-.739.798-1.123.946a3.953 3.953 0 01-1.449.266c-.738 0-1.33-.207-1.773-.621-.443-.414-.621-.975-.621-1.714 0-.798.296-1.389.887-1.774.591-.384 1.478-.62 2.69-.65l1.33-.029v-.414c0-.503-.118-.857-.355-1.094-.236-.236-.591-.354-1.064-.354a3.58 3.58 0 00-1.123.177 10.73 10.73 0 00-1.035.414l-.532-1.153a6.164 6.164 0 011.36-.502 5.925 5.925 0 011.389-.178c.976 0 1.714.207 2.217.65.502.444.739 1.094.739 2.01v5.084h-1.153zm-2.423-1.123c.591 0 1.064-.177 1.418-.503.355-.325.532-.798.532-1.389v-.65l-.975.03c-.769.029-1.33.147-1.685.384-.355.236-.532.591-.532 1.064 0 .355.089.621.296.798.207.177.532.266.946.266zm10.995-1.064c0 .739-.266 1.33-.828 1.714-.561.384-1.33.591-2.335.591-1.034 0-1.832-.148-2.453-.473v-1.418c.887.413 1.744.62 2.512.62 1.005 0 1.508-.295 1.508-.916 0-.207-.059-.355-.178-.473a2.5 2.5 0 00-.561-.414c-.266-.147-.621-.295-1.064-.473-.887-.354-1.478-.679-1.803-1.034-.325-.355-.473-.798-.473-1.33 0-.65.266-1.153.798-1.537.532-.384 1.241-.532 2.158-.532a5.81 5.81 0 012.542.561l-.533 1.212c-.827-.354-1.507-.502-2.098-.502-.857 0-1.301.236-1.301.739 0 .236.119.443.326.62.206.178.709.385 1.477.68.621.237 1.094.473 1.39.68.295.207.502.443.65.709.207.296.266.592.266.976zm4.61 1.005c.385 0 .798-.059 1.183-.178v1.212c-.178.089-.414.148-.71.207a4.513 4.513 0 01-.886.089c-1.537 0-2.306-.828-2.306-2.424v-4.138h-1.034v-.709l1.123-.591.561-1.626h1.005v1.714h2.188v1.242h-2.188v4.108c0 .384.089.68.296.857.207.178.473.237.768.237zm2.631-8.513a1 1 0 01.237-.68c.148-.177.384-.236.68-.236.295 0 .502.089.68.236.177.148.236.385.236.68 0 .266-.089.503-.236.651-.148.147-.385.236-.68.236-.296 0-.532-.089-.68-.236-.148-.148-.237-.385-.237-.651zm1.744 9.695h-1.625v-7.655h1.625v7.655zm5.409.118c-1.152 0-2.039-.325-2.63-1.005-.591-.68-.917-1.655-.917-2.926 0-1.3.326-2.276.946-2.985.621-.709 1.537-1.035 2.719-1.035.798 0 1.537.148 2.188.444l-.503 1.3c-.68-.266-1.241-.413-1.714-.413-1.33 0-1.98.886-1.98 2.63 0 .857.177 1.507.502 1.951.325.443.828.65 1.448.65.739 0 1.419-.177 2.069-.532v1.419a2.612 2.612 0 01-.945.354c-.355.06-.71.148-1.183.148zm9.074-2.305c0 .739-.266 1.33-.827 1.714-.562.384-1.331.591-2.335.591-1.035 0-1.833-.148-2.454-.473v-1.418c.887.413 1.744.62 2.513.62 1.005 0 1.507-.295 1.507-.916 0-.207-.059-.355-.177-.473a2.534 2.534 0 00-.562-.414c-.266-.147-.621-.295-1.064-.473-.887-.354-1.478-.679-1.803-1.034-.325-.355-.473-.798-.473-1.33 0-.65.266-1.153.798-1.537.532-.384 1.242-.532 2.158-.532.887 0 1.744.177 2.542.561l-.532 1.212c-.828-.354-1.508-.502-2.099-.502-.857 0-1.3.236-1.3.739 0 .236.118.443.325.62.207.178.709.385 1.478.68.62.237 1.093.473 1.389.68.295.207.502.443.65.709.207.296.266.592.266.976zm5.113 2.305c-1.182 0-2.128-.354-2.808-1.034-.68-.68-1.005-1.655-1.005-2.867 0-1.242.325-2.247.946-2.956.621-.709 1.478-1.064 2.572-1.064 1.005 0 1.803.296 2.394.916.591.621.886 1.449.886 2.542v.887h-5.113c.03.739.237 1.3.591 1.714.355.414.916.591 1.596.591.444 0 .887-.029 1.271-.118.384-.089.798-.236 1.271-.414v1.33a5.84 5.84 0 01-1.212.414c-.413.089-.857.059-1.389.059zm-.295-6.68c-.532 0-.946.178-1.242.503-.295.325-.502.798-.561 1.448h3.487c0-.621-.147-1.123-.443-1.448-.296-.325-.739-.503-1.241-.503zm9.898 6.562l-.32-1.064h-.06c-.36.473-.74.798-1.124.946a3.962 3.962 0 01-1.449.266c-.739 0-1.33-.207-1.773-.621-.443-.414-.621-.975-.621-1.714 0-.798.296-1.389.887-1.774.591-.384 1.478-.62 2.69-.65l1.33-.029v-.414c0-.503-.12-.857-.36-1.094-.232-.236-.586-.354-1.059-.354-.384 0-.769.059-1.123.177-.355.118-.71.266-1.035.414l-.532-1.153a6.145 6.145 0 011.36-.502 5.925 5.925 0 011.389-.178c.98 0 1.71.207 2.22.65.5.444.74 1.094.74 2.01v5.084h-1.16zm-2.421-1.123c.591 0 1.064-.177 1.419-.503.352-.325.532-.798.532-1.389v-.65l-.975.03c-.769.029-1.33.147-1.685.384-.355.236-.532.591-.532 1.064 0 .355.089.621.295.798.207.177.562.266.946.266zm9.751-6.68c.33 0 .59.03.8.059l-.15 1.508a2.82 2.82 0 00-.71-.089c-.65 0-1.18.207-1.59.65-.42.443-.62.975-.62 1.655v4.02h-1.63v-7.655h1.27l.21 1.359h.09c.26-.443.59-.827 1-1.093.42-.266.86-.414 1.33-.414zm5.32 7.921c-1.15 0-2.04-.325-2.63-1.005-.59-.68-.91-1.655-.91-2.926 0-1.3.32-2.276.94-2.985.62-.709 1.54-1.035 2.72-1.035.8 0 1.54.148 2.19.444l-.5 1.3c-.68-.266-1.25-.413-1.72-.413-1.33 0-1.98.886-1.98 2.63 0 .857.18 1.507.5 1.951.33.443.83.65 1.45.65.74 0 1.42-.177 2.07-.532v1.419a2.58 2.58 0 01-.94.354c-.36.06-.71.148-1.19.148zm10.67-.118h-1.62v-4.729c0-.591-.12-1.035-.36-1.33-.23-.296-.62-.444-1.12-.444-.68 0-1.18.207-1.51.621-.32.414-.47 1.094-.47 2.04v3.842h-1.63v-10.788h1.63v2.749c0 .443-.03.916-.09 1.418h.12c.24-.354.53-.65.92-.857.38-.207.85-.295 1.38-.295 1.87 0 2.78.945 2.78 2.807v4.966h-.03z" fill="#000"></path><path d="M921.893 751.881h-11.357c.054.271.163.543.217.761.38 1.304.598 2.662.706 4.075.055.544.055 1.141.055 1.685 0 .543 0 1.141-.055 1.684-.108 1.413-.326 2.772-.706 4.076-.054.272-.163.543-.217.761h11.357c3.587 0 6.467-2.935 6.467-6.521 0-3.587-2.88-6.521-6.467-6.521z" fill="#00A9E5"></path><path d="M911.459 760.086c.055-.543.055-1.141.055-1.684 0-.544 0-1.141-.055-1.685-.108-1.413-.326-2.771-.706-4.075-.055-.272-.163-.544-.218-.761h-17.552c-.652 2.065-.978 4.238-.978 6.521 0 2.282.326 4.456.978 6.521h17.552c.055-.272.163-.544.218-.761.38-1.304.598-2.663.706-4.076z" fill="#353535"></path><path d="M923.85 767.096h-14.129a22.355 22.355 0 01-1.468 2.772c-.815 1.358-1.793 2.554-2.88 3.695-.38.38-.76.706-1.141 1.087-.761.706-1.63 1.304-2.5 1.902 3.424 2.282 7.554 3.586 11.956 3.586 7.553 0 14.183-3.858 18.095-9.673-2.01-2.065-4.836-3.369-7.933-3.369z" fill="#00BFB3"></path><path d="M908.253 769.868a22.217 22.217 0 001.467-2.772h-15.922c1.685 3.858 4.456 7.173 7.989 9.456a27.73 27.73 0 002.499-1.902c.381-.326.761-.707 1.141-1.087a21.413 21.413 0 002.826-3.695z" fill="#019B8F"></path><path d="M905.373 743.24c-.38-.38-.761-.706-1.141-1.087-.761-.706-1.63-1.304-2.5-1.902-3.477 2.283-6.249 5.598-7.988 9.456h15.922a22.35 22.35 0 00-1.467-2.772 17.108 17.108 0 00-2.826-3.695z" fill="#F9B110"></path><path d="M913.688 736.665c-4.402 0-8.532 1.304-11.956 3.586.87.598 1.685 1.196 2.5 1.902.381.326.761.707 1.141 1.087 1.087 1.141 2.065 2.337 2.88 3.696a22.27 22.27 0 011.468 2.771h14.129c3.097 0 5.923-1.304 7.933-3.369-3.912-5.815-10.542-9.673-18.095-9.673z" fill="#FED10A"></path><path d="M926.278 705.965c-.58 0-1.144-.223-1.577-.651l-13.157-13.157v11.534a2.23 2.23 0 01-2.224 2.224c-1.226 0-2.223-.942-2.223-2.224v-16.892a2.22 2.22 0 013.795-1.572l13.158 13.157v-11.585c0-1.221.997-2.223 2.223-2.223s2.224.997 2.224 2.223v16.892a2.23 2.23 0 01-2.224 2.224l.005.05zm10.288-21.42l-.61 1.14-4.732 8.588-.611 1.084.611 1.084 4.732 8.308.636 1.14h12.363l.611-1.252 3.531-7.112 1.577-3.226h-3.582l-9.031.025c-1.17-.015-2.254 1.048-2.254 2.224 0 1.175 1.079 2.238 2.254 2.223l5.444-.025-1.333 2.696h-6.991l-3.475-6.115 3.501-6.335h7.449l1.729 3.562h4.478l-2.819-6.757-.61-1.252h-12.873.005zm22.514-.025c-1.17.015-2.208 1.089-2.187 2.249v5.8h4.446v-5.8c.016-1.181-1.017-2.265-2.248-2.249h-.011zm7.134 21.445a2.23 2.23 0 01-2.224-2.223v-16.907a2.23 2.23 0 012.224-2.224c1.226 0 2.223.998 2.223 2.224v11.585l13.158-13.157a2.224 2.224 0 013.795 1.572v16.958a2.228 2.228 0 01-2.223 2.223 2.226 2.226 0 01-2.224-2.223v-11.59l-13.157 13.157a2.225 2.225 0 01-1.577.651l.005-.046zm35.636-10.669l6.92-6.889c.86-.865.86-2.274 0-3.144-.86-.871-2.27-.865-3.14-.006l-6.919 6.905-6.92-6.905a2.223 2.223 0 00-3.139 3.15l6.919 6.889-6.914 6.869a2.234 2.234 0 00-.005 3.144c.417.422.982.662 1.526.662s1.135-.214 1.567-.652l6.904-6.884 6.901 6.884c.42.417.99.652 1.57.652.59 0 1.14-.219 1.53-.662.86-.865.86-2.274-.01-3.144l-6.89-6.869h.1zm-42.871 10.654c-1.171-.015-2.209-1.089-2.188-2.249v-9.311h4.447v9.301c.015 1.181-1.018 2.264-2.249 2.249" fill="#090"></path><path d="M961 545.01l.01-2-4-.02-.01 2 4 .02zm-2.5 102.49l11.644-19.943-23.093-.113L958.5 647.5zM957 544.99l-.412 84.5 4 .02.412-84.5-4-.02z" fill="#9EEBCF"></path><g clip-path="url(#clip1)"><path d="M950.369 550.601c3.517 5.051 10.462 6.294 15.512 2.777 5.05-3.516 6.294-10.461 2.777-15.511-3.516-5.051-10.461-6.294-15.511-2.777-5.051 3.516-6.294 10.461-2.778 15.511z" fill="#9EEBCF"></path></g><g clip-path="url(#clip2)"><path d="M592.369 422.601c3.517 5.051 10.462 6.294 15.512 2.777 5.05-3.516 6.294-10.461 2.777-15.511-3.516-5.051-10.461-6.294-15.511-2.777-5.051 3.516-6.294 10.461-2.778 15.511z" fill="#9EEBCF"></path></g><path d="M607 275.523l-.048-6.5-12.999.095.047 6.5 13-.095zm-5.5 136.907l37.052-65.273-75.054.549L601.5 412.43zM594 275.618l.573 78.361 12.999-.095-.572-78.361-13 .095z" fill="#B8E986"></path><path d="M231.146 522.379h5.198c-.102-5.038-4.397-8.605-10.745-8.605-6.261 0-10.964 3.524-10.949 8.794 0 4.281 3.043 6.741 7.949 8.008l3.393.874c3.218.815 5.343 1.82 5.358 4.135-.015 2.547-2.432 4.251-5.955 4.251-3.378 0-5.999-1.514-6.217-4.645h-5.314c.218 5.926 4.63 9.26 11.575 9.26 7.148 0 11.298-3.567 11.312-8.823-.014-5.168-4.28-7.527-8.764-8.59l-2.796-.699c-2.446-.582-5.096-1.616-5.067-4.106.015-2.242 2.024-3.887 5.402-3.887 3.218 0 5.343 1.5 5.62 4.033zm18.469 22.058c5.212 0 8.794-2.548 9.725-6.436l-4.921-.553c-.713 1.893-2.46 2.883-4.732 2.883-3.407 0-5.663-2.242-5.707-6.071h15.579v-1.617c0-7.847-4.717-11.298-10.221-11.298-6.406 0-10.585 4.703-10.585 11.604 0 7.018 4.121 11.488 10.862 11.488zm-5.62-13.73c.16-2.854 2.271-5.256 5.416-5.256 3.028 0 5.067 2.213 5.096 5.256h-10.512zM262.398 544h5.27v-13.147c0-2.84 2.141-4.849 5.038-4.849.888 0 1.995.16 2.446.306v-4.848c-.48-.088-1.31-.146-1.893-.146-2.562 0-4.702 1.456-5.518 4.048h-.233v-3.728h-5.11V544zm35.292-22.364h-5.605l-5.154 16.613h-.233l-5.14-16.613h-5.62L283.902 544h5.824l7.964-22.364zM300.638 544h5.271v-22.364h-5.271V544zm2.65-25.538c1.674 0 3.043-1.281 3.043-2.853 0-1.587-1.369-2.869-3.043-2.869-1.689 0-3.057 1.282-3.057 2.869 0 1.572 1.368 2.853 3.057 2.853zm16.176 25.975c5.62 0 9.201-3.334 9.58-8.081h-5.038c-.451 2.403-2.184 3.786-4.499 3.786-3.29 0-5.416-2.752-5.416-7.324 0-4.513 2.17-7.221 5.416-7.221 2.534 0 4.092 1.63 4.499 3.785h5.038c-.364-4.848-4.15-8.037-9.609-8.037-6.552 0-10.687 4.732-10.687 11.561 0 6.77 4.033 11.531 10.716 11.531zm22.188 0c5.213 0 8.794-2.548 9.726-6.436l-4.921-.553c-.713 1.893-2.461 2.883-4.732 2.883-3.407 0-5.664-2.242-5.707-6.071h15.579v-1.617c0-7.847-4.718-11.298-10.221-11.298-6.407 0-10.585 4.703-10.585 11.604 0 7.018 4.12 11.488 10.861 11.488zm-5.62-13.73c.16-2.854 2.272-5.256 5.416-5.256 3.029 0 5.067 2.213 5.096 5.256h-10.512zM151.343 333.182h-5.402V363h5.402v-29.818zm9.267 16.714c0-3.232 1.951-5.096 4.732-5.096 2.722 0 4.353 1.791 4.353 4.776V363h5.27v-14.239c.015-5.358-3.042-8.416-7.658-8.416-3.349 0-5.649 1.602-6.668 4.091h-.262v-3.8h-5.038V363h5.271v-13.104zm27.819 21.869c6.043 0 10.498-2.766 10.498-8.401v-22.728h-5.198v3.699h-.291c-.801-1.617-2.475-3.99-6.421-3.99-5.169 0-9.231 4.048-9.231 11.4 0 7.295 4.062 10.935 9.216 10.935 3.83 0 5.62-2.053 6.436-3.698h.262v4.236c0 3.204-2.184 4.558-5.183 4.558-3.174 0-4.572-1.5-5.213-2.723l-4.746 1.15c.961 3.043 4.178 5.562 9.871 5.562zm.044-13.22c-3.48 0-5.314-2.708-5.314-6.829 0-4.062 1.805-7.047 5.314-7.047 3.392 0 5.256 2.81 5.256 7.047 0 4.266-1.893 6.829-5.256 6.829zM202.708 363h5.271v-13.147c0-2.825 2.126-4.82 4.878-4.82.859 0 1.514.204 2.082.466l1.63-4.368c-.786-.495-1.791-.815-2.999-.815-2.577 0-4.703 1.456-5.518 4.048h-.233v-3.728h-5.111V363zm24.337.437c5.212 0 8.794-2.548 9.726-6.436l-4.922-.553c-.713 1.893-2.46 2.883-4.732 2.883-3.406 0-5.663-2.242-5.707-6.071h15.579v-1.617c0-7.847-4.717-11.298-10.221-11.298-6.406 0-10.585 4.703-10.585 11.604 0 7.018 4.121 11.488 10.862 11.488zm-5.62-13.73c.16-2.854 2.271-5.256 5.416-5.256 3.028 0 5.067 2.213 5.096 5.256h-10.512zm36.078-3.159c-.728-3.786-3.756-6.203-8.998-6.203-5.387 0-9.056 2.65-9.041 6.785-.015 3.261 1.995 5.416 6.29 6.304l3.814.801c2.053.451 3.014 1.281 3.014 2.548 0 1.529-1.66 2.679-4.164 2.679-2.417 0-3.989-1.048-4.441-3.058l-5.139.496c.655 4.105 4.106 6.537 9.595 6.537 5.59 0 9.536-2.898 9.551-7.134-.015-3.189-2.068-5.14-6.29-6.057l-3.815-.816c-2.271-.509-3.174-1.295-3.159-2.591-.015-1.514 1.66-2.563 3.858-2.563 2.432 0 3.713 1.325 4.121 2.796l4.804-.524zm20.882 0c-.728-3.786-3.756-6.203-8.998-6.203-5.387 0-9.056 2.65-9.041 6.785-.015 3.261 1.994 5.416 6.29 6.304l3.814.801c2.053.451 3.014 1.281 3.014 2.548 0 1.529-1.66 2.679-4.164 2.679-2.417 0-3.989-1.048-4.441-3.058l-5.139.496c.655 4.105 4.106 6.537 9.595 6.537 5.59 0 9.536-2.898 9.551-7.134-.015-3.189-2.068-5.14-6.29-6.057l-3.815-.816c-2.271-.509-3.174-1.295-3.159-2.591-.015-1.514 1.66-2.563 3.858-2.563 2.432 0 3.713 1.325 4.121 2.796l4.804-.524zM281.941 736h5.402v-10.075h5.707c6.887 0 10.585-4.135 10.585-9.872 0-5.693-3.655-9.871-10.512-9.871h-11.182V736zm5.402-14.516v-10.789h4.95c4.048 0 5.838 2.184 5.838 5.358 0 3.174-1.79 5.431-5.809 5.431h-4.979zm28.565 14.953c6.552 0 10.716-4.616 10.716-11.531 0-6.931-4.164-11.561-10.716-11.561-6.551 0-10.715 4.63-10.715 11.561 0 6.915 4.164 11.531 10.715 11.531zm.03-4.223c-3.626 0-5.402-3.232-5.402-7.323s1.776-7.367 5.402-7.367c3.567 0 5.343 3.276 5.343 7.367s-1.776 7.323-5.343 7.323zm21.839 4.179c3.844 0 5.576-2.286 6.406-3.916h.32V736h5.184v-29.818h-5.285v11.153h-.219c-.801-1.617-2.446-3.99-6.392-3.99-5.168 0-9.23 4.048-9.23 11.502 0 7.367 3.945 11.546 9.216 11.546zm1.47-4.324c-3.479 0-5.314-3.058-5.314-7.251 0-4.164 1.806-7.149 5.314-7.149 3.393 0 5.256 2.81 5.256 7.149s-1.892 7.251-5.256 7.251z" fill="#000"></path><g clip-path="url(#clip3)"><path d="M481.369 550.601c3.517 5.051 10.462 6.294 15.512 2.777 5.05-3.516 6.294-10.461 2.777-15.511-3.516-5.051-10.461-6.294-15.511-2.777-5.051 3.516-6.294 10.461-2.778 15.511z" fill="#9EEBCF"></path></g><path opacity=".5" fill="#fff" d="M95 61h1040v784H95z"></path><path d="M601 269v146l358 104v230" stroke="#F9B110" stroke-width="21" stroke-dasharray="0 20"></path><path d="M1103.64 787.652h12.85c2.33 0 4.01 1.631 4.01 4.136 0 2.496-1.68 4.137-4.01 4.137h-12.85v4.305h13.22c4.46 0 7.43-3.361 7.43-8.442 0-5.061-2.97-8.441-7.43-8.441h-13.22v4.305zm0-22.98v4.285h12.8v.179l-12.8 8.79v3.778H1124v-4.305h-12.82v-.149l12.82-8.86v-3.718h-20.36zm20.36-1.658v-13.761h-3.55v9.456h-4.86v-8.71h-3.55v8.71h-4.85v-9.416h-3.55v13.721H1124zm-20.36-32.277v4.286h12.8v.179l-12.8 8.79v3.778H1124v-4.305h-12.82v-.15l12.82-8.859v-3.719h-20.36zm7.13-19.624c-4.71.567-7.41 4.126-7.41 8.839 0 5.38 3.8 9.486 10.46 9.486 6.64 0 10.46-4.037 10.46-9.486 0-5.22-3.47-8.372-7.22-8.839l-.02 4.355c2.18.408 3.43 2.118 3.43 4.415 0 3.092-2.3 5.19-6.65 5.19-4.24 0-6.65-2.068-6.65-5.22 0-2.357 1.36-4.057 3.6-4.385v-4.355zm13.23-1.188v-4.305h-7.22v-3.142l7.22-3.858v-4.753l-7.91 4.325c-1-2.316-3.02-3.599-5.8-3.599-4.05 0-6.65 2.675-6.65 7.298v8.034H1124zm-10.68-4.305h-6.16v-2.903c0-2.486 1.1-3.689 3.13-3.689 2.02 0 3.03 1.203 3.03 3.669v2.923zm-9.68-10.129l13.16-7.427h7.2v-4.276h-7.2l-13.16-7.427v4.822l8.77 4.643v.199l-8.77 4.644v4.822zm20.36-19.582v-4.305h-6.6v-3.62c0-4.683-2.8-7.407-6.86-7.407-4.05 0-6.9 2.674-6.9 7.298v8.034H1124zm-10.05-4.305h-6.79V668.7c0-2.486 1.35-3.689 3.38-3.689 2.02 0 3.41 1.203 3.41 3.669v2.924zm-6.76-11.148v-6.235H1124v-4.255h-16.81v-6.235h-3.55v16.725h3.55zm16.81-17.579v-13.761h-3.55v9.456h-4.86v-8.711h-3.55v8.711h-4.85v-9.417h-3.55v13.722H1124zm0-22.463c0-6.205-3.84-9.963-10.2-9.963-6.35 0-10.16 3.758-10.16 9.903v7.278H1124v-7.218zm-3.69 2.913h-12.98v-2.744c0-3.818 1.94-5.837 6.47-5.837 4.54 0 6.51 2.019 6.51 5.847v2.734zm20.88 177.679v-6.235H1158v-4.255h-16.81v-6.235h-3.55v16.725h3.55zm16.81-17.579v-4.305h-7.22v-3.142l7.22-3.858v-4.753l-7.91 4.325c-1-2.317-3.02-3.599-5.8-3.599-4.05 0-6.65 2.674-6.65 7.298v8.034H1158zm-10.68-4.305h-6.16v-2.904c0-2.486 1.1-3.689 3.13-3.689 2.02 0 3.03 1.203 3.03 3.669v2.924zm10.68-15.68l-4.64-1.511v-7.348l4.64-1.512v-4.613l-20.36 7.02v5.548l20.36 7.03v-4.614zm-8-2.605l-7.71-2.506v-.159l7.71-2.506v5.171zm8-12.93v-4.306h-8.41v-8.282h-3.55v8.282h-4.85v-9.177h-3.55v13.483H1158zm0-14.479v-4.306h-8.41v-8.282h-3.55v8.282h-4.85v-9.177h-3.55v13.483H1158zm-20.36-18.785v4.306H1158v-4.306h-20.36zm7.13-19.609c-4.71.567-7.41 4.126-7.41 8.839 0 5.38 3.8 9.486 10.46 9.486 6.64 0 10.46-4.037 10.46-9.486 0-5.22-3.47-8.372-7.22-8.839l-.02 4.355c2.18.408 3.43 2.118 3.43 4.415 0 3.092-2.3 5.19-6.65 5.19-4.24 0-6.65-2.068-6.65-5.22 0-2.357 1.36-4.057 3.6-4.385v-4.355zM94.5 585.107v-13.762h-3.55v9.456h-4.862v-8.71h-3.55v8.71h-4.852v-9.416h-3.55v13.722H94.5zm-20.364-32.278v4.286h12.807v.179l-12.807 8.79v3.778H94.5v-4.305H81.683v-.149l12.817-8.86v-3.719H74.136zm7.13-19.624c-4.704.567-7.408 4.126-7.408 8.839 0 5.38 3.798 9.486 10.46 9.486 6.642 0 10.46-4.037 10.46-9.486 0-5.22-3.47-8.372-7.218-8.839l-.02 4.355c2.177.408 3.43 2.118 3.43 4.415 0 3.092-2.297 5.19-6.652 5.19-4.236 0-6.652-2.068-6.652-5.22 0-2.357 1.362-4.057 3.6-4.385v-4.355zm13.234-1.187v-4.306h-7.219v-3.142l7.219-3.858v-4.753l-7.915 4.326c-.994-2.317-3.013-3.6-5.797-3.6-4.046 0-6.652 2.675-6.652 7.299v8.034H94.5zm-10.679-4.306h-6.165v-2.903c0-2.486 1.104-3.689 3.132-3.689 2.019 0 3.033 1.203 3.033 3.669v2.923zm-9.685-10.129l13.165-7.427H94.5v-4.276h-7.199l-13.165-7.427v4.822l8.77 4.644v.199l-8.77 4.643v4.822zM94.5 498.001v-4.305h-6.602v-3.62c0-4.683-2.794-7.407-6.861-7.407-4.047 0-6.9 2.675-6.9 7.298v8.034H94.5zm-10.053-4.305h-6.79v-2.904c0-2.485 1.352-3.689 3.38-3.689 2.018 0 3.41 1.204 3.41 3.67v2.923zm-6.76-11.148v-6.235H94.5v-4.255H77.686v-6.235h-3.55v16.725h3.55zM94.5 464.969v-13.761h-3.55v9.456h-4.862v-8.71h-3.55v8.71h-4.852v-9.416h-3.55v13.721H94.5zm0-22.463c0-6.205-3.838-9.963-10.202-9.963-6.344 0-10.162 3.758-10.162 9.903v7.279H94.5v-7.219zm-3.689 2.913H77.825v-2.744c0-3.818 1.95-5.837 6.473-5.837 4.544 0 6.513 2.019 6.513 5.847v2.734zm20.875 116.728v-6.234H128.5v-4.256h-16.814v-6.234h-3.55v16.724h3.55zm16.814-17.578v-4.306h-7.219v-3.142l7.219-3.858v-4.752l-7.915 4.325c-.994-2.317-3.013-3.6-5.797-3.6-4.047 0-6.652 2.675-6.652 7.299v8.034H128.5zm-10.679-4.306h-6.165v-2.903c0-2.486 1.104-3.689 3.132-3.689 2.019 0 3.033 1.203 3.033 3.669v2.923zm10.679-15.679l-4.643-1.512v-7.348l4.643-1.511v-4.614l-20.364 7.02v5.549l20.364 7.029v-4.613zm-8.004-2.605l-7.706-2.506v-.159l7.706-2.506v5.171zm8.004-12.931v-4.305h-8.412v-8.283h-3.55v8.283h-4.852v-9.177h-3.55v13.482H128.5zm0-14.478v-4.306h-8.412v-8.283h-3.55v8.283h-4.852v-9.177h-3.55v13.483H128.5zm-20.364-18.785v4.306H128.5v-4.306h-20.364zm7.13-19.609c-4.704.566-7.408 4.126-7.408 8.839 0 5.379 3.798 9.486 10.46 9.486 6.642 0 10.46-4.037 10.46-9.486 0-5.22-3.47-8.372-7.218-8.839l-.02 4.355c2.177.407 3.43 2.118 3.43 4.415 0 3.092-2.297 5.19-6.652 5.19-4.236 0-6.652-2.068-6.652-5.22 0-2.357 1.362-4.057 3.6-4.385v-4.355zM1064 723v6.905c5.13 0 6.17 1.97 6.17 6.147v6.321c0 3.333 1.43 11.928 7.7 13.205v.866c-6.27 1.277-7.7 9.871-7.7 13.183v6.321c0 4.199-1.04 6.169-6.17 6.169V789c8.74 0 15-1.45 15-12.122v-4.783c0-4.438 1.67-11.928 6.65-11.928v-8.312c-4.98 0-6.65-7.491-6.65-11.928v-4.805c0-10.672-6.26-12.122-15-12.122zM194.603 285v12.314c-9.149 0-11.002 3.513-11.002 10.964V479.55c0 5.944-2.548 21.272-13.742 23.549v1.544c11.194 2.278 13.742 17.605 13.742 23.511v161.272c0 7.489 1.853 11.002 11.002 11.002v12.276c-15.596 0-26.752-2.586-26.752-21.618V532.555c0-7.913-2.972-21.272-11.851-21.272V496.46c8.879 0 11.851-13.359 11.851-21.272v-168.57c0-19.032 11.156-21.618 26.752-21.618z" fill="#000"></path></svg>