<?xml version="1.0" encoding="utf-8"?>
<!-- Generate more at customizr.net -->
<!DOCTYPE svg PUBLIC "-//W3C//DTD SVG 1.1//EN" "http://www.w3.org/Graphics/SVG/1.1/DTD/svg11.dtd">
<svg id="github" class="custom-icon" version="1.1" xmlns="http://www.w3.org/2000/svg" xmlns:xlink="http://www.w3.org/1999/xlink" viewBox="0 0 100 100" ><circle class="outer-shape" cx="50" cy="50" r="48" style="opacity: 1; fill: rgb(3, 153, 255);"></circle>
	<path class="inner-shape" style="opacity:1;fill:#f7f7f7;" transform="translate(25,25) scale(0.5)" d="M50,1C22.938,1,1,22.938,1,50s21.938,49,49,49s49-21.938,49-49S77.062,1,50,1z M79.099,79.099 c-3.782,3.782-8.184,6.75-13.083,8.823c-1.245,0.526-2.509,0.989-3.79,1.387v-7.344c0-3.86-1.324-6.699-3.972-8.517 c1.659-0.16,3.182-0.383,4.57-0.67c1.388-0.287,2.855-0.702,4.402-1.245c1.547-0.543,2.935-1.189,4.163-1.938 c1.228-0.75,2.409-1.723,3.541-2.919s2.082-2.552,2.847-4.067s1.372-3.334,1.818-5.455c0.446-2.121,0.67-4.458,0.67-7.01 c0-4.945-1.611-9.155-4.833-12.633c1.467-3.828,1.308-7.991-0.478-12.489l-1.197-0.143c-0.829-0.096-2.321,0.255-4.474,1.053 c-2.153,0.798-4.57,2.105-7.249,3.924c-3.797-1.053-7.736-1.579-11.82-1.579c-4.115,0-8.039,0.526-11.772,1.579 c-1.69-1.149-3.294-2.097-4.809-2.847c-1.515-0.75-2.727-1.26-3.637-1.532c-0.909-0.271-1.754-0.439-2.536-0.503 c-0.782-0.064-1.284-0.079-1.507-0.048c-0.223,0.031-0.383,0.064-0.478,0.096c-1.787,4.53-1.946,8.694-0.478,12.489 c-3.222,3.477-4.833,7.688-4.833,12.633c0,2.552,0.223,4.889,0.67,7.01c0.447,2.121,1.053,3.94,1.818,5.455 c0.765,1.515,1.715,2.871,2.847,4.067s2.313,2.169,3.541,2.919c1.228,0.751,2.616,1.396,4.163,1.938 c1.547,0.543,3.014,0.957,4.402,1.245c1.388,0.287,2.911,0.511,4.57,0.67c-2.616,1.787-3.924,4.626-3.924,8.517v7.487 c-1.445-0.43-2.869-0.938-4.268-1.53c-4.899-2.073-9.301-5.041-13.083-8.823c-3.782-3.782-6.75-8.184-8.823-13.083 C9.934,60.948,8.847,55.56,8.847,50s1.087-10.948,3.231-16.016c2.073-4.899,5.041-9.301,8.823-13.083s8.184-6.75,13.083-8.823 C39.052,9.934,44.44,8.847,50,8.847s10.948,1.087,16.016,3.231c4.9,2.073,9.301,5.041,13.083,8.823 c3.782,3.782,6.75,8.184,8.823,13.083c2.143,5.069,3.23,10.457,3.23,16.016s-1.087,10.948-3.231,16.016 C85.848,70.915,82.88,75.317,79.099,79.099L79.099,79.099z"></path>
</svg>

