<svg width="410" height="89" viewBox="0 0 410 89" xmlns="http://www.w3.org/2000/svg"><path d="M219.135 62.408c-4.453 4.518-9.782 6.794-15.957 6.794-4.993 0-9.239-1.021-13.571-3.537V55.303c3.486 2.362 7.861 4.613 12.182 4.613 9.006 0 14.371-6.199 14.371-14.985 0-8.795-5.55-15.179-14.558-15.179-4.029 0-7.288 1.447-9.838 4.346-2.733 3.144-4.144 7.635-4.144 13.572v40.921h-.679c-4.963 0-8.989-4.025-8.989-8.988V46.136c0-14.201 8.684-25.667 23.607-25.667 7.364 0 13.349 2.518 17.886 7.579 4.266 4.727 6.382 10.723 6.382 17.932 0 6.418-2.229 11.904-6.692 16.428zm104.671-.344c-4.438 4.762-10.147 7.138-17.074 7.138-7.304 0-13.261-2.522-17.792-7.582-4.262-4.786-6.382-10.784-6.382-17.932 0-12.65 9.768-23.219 22.611-23.219 4.959 0 9.262 1.042 13.611 3.429v10.467c-3.489-2.362-7.865-4.613-12.182-4.613-9.006 0-14.371 6.198-14.371 14.986 0 8.675 5.675 15.178 14.555 15.178 4.02 0 7.334-1.51 9.983-4.543 2.631-3.018 4-7.449 4-13.404V9.399A8.99 8.99 0 0 1 329.757.41h.675v43.086c0 7.59-2.194 13.8-6.626 18.568zm27.298-46.196c-1.016 1.136-2.47 1.66-4.247 1.66-3.316 0-5.689-2.45-5.689-5.74 0-3.371 2.331-5.646 5.689-5.646 3.237 0 5.695 2.398 5.695 5.646 0 1.606-.469 2.982-1.448 4.08zm49.118 26.101c0-3.81-1.441-6.826-4.342-9.114-2.609-2.056-5.872-3.103-9.832-3.103-8.749 0-14.364 6.839-14.364 15.271 0 8.121 5.949 14.893 14.275 14.893 5.784 0 8.882-3.383 12.183-7.592v12.144c-1.684 1.259-3.618 2.632-5.594 3.438-2.083.871-4.567 1.296-7.442 1.296-13.914 0-23.091-11.526-23.091-24.845 0-6.839 2.124-12.491 6.4-16.901 4.54-4.67 10.489-6.987 17.776-6.987 13.816 0 23.7 7.931 23.7 22.263v25.514h-.68a8.989 8.989 0 0 1-8.989-8.988V41.969zm-132.334-2.736c-1.225-3.78-2.754-5.638-6.28-7.604-8.374-4.683-16.618-.699-20.455 7.566l26.735.038zm-7.376 29.826c-6.176 1.31-12.235.3-18.145-3.001-5.765-3.223-9.631-8.014-11.564-14.339-3.912-12.798 4.105-27.06 16.995-30.516 6.39-1.711 12.52-.935 18.341 2.32 9.671 5.403 13.194 13.764 12.58 24.538l-38.948-.081c.572 4.395 3.298 7.834 7.125 9.972 3.881 2.17 7.452 2.688 10.766 1.66 3.674-1.155 6.656-4.154 9.083-6.948l7.939 5.783c-3.24 5.793-7.649 9.222-14.172 10.612zm81.514-47.636h9.665v46.823h-.677c-4.961 0-8.988-4.024-8.988-8.988V21.423zM14.145 68.246C4.694 68.246 0 61.814 0 52.834V18.759a8.988 8.988 0 0 1 8.99-8.988h.677v11.652H26v9.286H9.667v23.199c0 3.946 1.762 5.055 5.53 5.055H26v9.283H14.145zm56.146-5.92c-4.78 4.581-10.519 6.876-17.187 6.876-6.606 0-12.316-2.297-17.088-6.876-4.793-4.595-7.184-10.443-7.184-17.491 0-13.751 10.504-24.366 24.272-24.366 6.609 0 12.331 2.314 17.137 6.922 4.823 4.625 7.23 10.456 7.23 17.444 0 7.048-2.391 12.896-7.18 17.491zm45.193-29.637c-1.418 2.378-2.516 4.085-3.29 5.115-.854 1.119-1.695 2.015-2.528 2.632 6.718 2.173 9.22 6.827 9.22 13.761v14.049h-.68a8.989 8.989 0 0 1-8.99-8.988v-4.109c0-4.487-2.01-7.536-6.769-7.536h-8.78v20.633h-.677A8.989 8.989 0 0 1 84 59.258V9.399A8.99 8.99 0 0 1 92.99.41h.677v37.822h2.857c3.139 0 5.205-1.071 6.387-3.103l8.122-13.704 11.016-.01-6.565 11.274zm49.903 29.637c-4.776 4.581-10.517 6.876-17.186 6.876-6.604 0-12.312-2.297-17.09-6.876-4.79-4.595-7.178-10.443-7.178-17.491 0-13.751 10.499-24.366 24.268-24.366 6.611 0 12.334 2.314 17.139 6.922 4.821 4.625 7.23 10.456 7.23 17.444 0 7.048-2.391 12.896-7.183 17.491zM158.41 33.94c-2.664-2.79-6.052-4.188-10.209-4.188-8.896 0-14.221 6.487-14.221 15.083 0 8.477 5.453 15.081 14.221 15.081 8.775 0 14.22-6.604 14.22-15.081 0-4.501-1.349-8.112-4.011-10.895zm-95.1 0c-2.664-2.79-6.048-4.188-10.206-4.188-8.898 0-14.221 6.487-14.221 15.083 0 8.477 5.452 15.081 14.221 15.081 8.771 0 14.223-6.604 14.223-15.081 0-4.501-1.351-8.112-4.017-10.895z" fill="#41AC47" fill-rule="evenodd"/></svg>