<?xml version="1.0" encoding="utf-8"?>
<!-- Generator: Adobe Illustrator 16.0.0, SVG Export Plug-In . SVG Version: 6.00 Build 0)  -->
<!DOCTYPE svg PUBLIC "-//W3C//DTD SVG 1.1//EN" "http://www.w3.org/Graphics/SVG/1.1/DTD/svg11.dtd">
<svg version="1.1" xmlns="http://www.w3.org/2000/svg" xmlns:xlink="http://www.w3.org/1999/xlink" x="0px" y="0px" width="100px"
	 height="100px" viewBox="0 0 100 100" enable-background="new 0 0 100 100" xml:space="preserve">
<g id="Layer_1">
	<g id="logo_no_text_1_">
		<g id="Ellipse_1_copy_3_6_" display="none">
			<g display="inline">
				<g>
					<circle fill="#c8d1da" cx="51.112" cy="49.867" r="35.302"/>
				</g>
			</g>
			<g display="inline">
				<g>
					<path fill="#c8d1da" d="M51.112,86.291c-20.085,0-36.425-16.34-36.425-36.423c0-20.085,16.34-36.425,36.425-36.425
						c20.083,0,36.424,16.34,36.424,36.425C87.536,69.951,71.195,86.291,51.112,86.291z M51.112,15.687
						c-18.849,0-34.181,15.333-34.181,34.181c0,18.847,15.332,34.179,34.181,34.179c18.847,0,34.18-15.332,34.18-34.179
						C85.292,31.02,69.959,15.687,51.112,15.687z"/>
				</g>
			</g>
		</g>
		<g id="Ellipse_1_6_" display="none">
			<g display="inline">
				<circle fill="#c8d1da" cx="51.112" cy="49.867" r="32.109"/>
			</g>
		</g>
		<g id="Ellipse_1_copy_6_" display="none">
			<g display="inline">
				<circle fill="#c8d1da" cx="50.951" cy="49.707" r="41.518"/>
			</g>
		</g>
		<g id="plane_1_" display="none">
			<g display="inline">
				<g>
					<circle fill="#c8d1da" cx="68.958" cy="42.325" r="2.351"/>
				</g>
				<g>
					<circle fill="#c8d1da" cx="66.073" cy="44.783" r="2.244"/>
				</g>
				<g>
					<circle fill="#c8d1da" cx="72.11" cy="44.302" r="2.512"/>
				</g>
				<g>
					<path fill="#c8d1da" d="M78,46.245C78,46.662,77.661,47,77.244,47H64.756C64.339,47,64,46.662,64,46.245v-0.49
						C64,45.338,64.339,45,64.756,45h12.488C77.661,45,78,45.338,78,45.755V46.245z"/>
				</g>
				<g>
					<circle fill="#c8d1da" cx="68.958" cy="44.462" r="2.245"/>
				</g>
			</g>
			<g display="inline">
				<g>
					<circle fill="#c8d1da" cx="33.932" cy="54.748" r="3.073"/>
				</g>
				<g>
					<circle fill="#c8d1da" cx="38.367" cy="55.71" r="1.576"/>
				</g>
				<g>
					<circle fill="#c8d1da" cx="30.379" cy="56.646" r="2.244"/>
				</g>
				<g>
					<path fill="#c8d1da" d="M43,58.718C43,59.426,42.426,60,41.717,60H28.283C27.574,60,27,59.426,27,58.718v-0.436
						C27,57.574,27.574,57,28.283,57h13.435C42.426,57,43,57.574,43,58.282V58.718z"/>
				</g>
				<g>
					<circle fill="#c8d1da" cx="36.444" cy="56.673" r="1.576"/>
				</g>
			</g>
			<g display="inline">
				<path fill="#c8d1da" d="M57.723,50.397c0.015-0.009,0.024-0.015,0.024-0.015s-5.103-4.22-7.106-4.107
					c-2.002,0.112,2.748,4.874,2.748,4.874c0.048,0.067,0.104,0.126,0.163,0.178c-2.768,0.615-5.192,1.155-5.192,1.155
					s-0.882-0.572-1.331-0.408s0.235,0.725,0.235,0.725l-2.19,0.428c0,0-3.42-2.352-4.222-2.405
					c-0.741-0.049-1.895-0.173-1.349,0.635c0.655,0.969,2.029,4.685,6.82,3.81c3.297-0.604,6.062-1.095,7.465-1.342
					c0.19,1.521,0.994,7.372,1.944,6.082c0.829-1.125,1.768-5.178,2.166-7.035c0,0,1.175-0.279,3.739-0.706
					c2.565-0.428,4.222-0.908,5.139-2.576C67.92,47.608,59.689,49.961,57.723,50.397z"/>
			</g>
		</g>
		<g id="M_A_1_1_" display="none">
			<g display="inline">
				
					<line fill="#c8d1da" stroke="#EAE8DD" stroke-width="2" stroke-linecap="round" stroke-linejoin="round" stroke-miterlimit="10" x1="36.877" y1="57.287" x2="43.964" y2="46.213"/>
				
					<line fill="#c8d1da" stroke="#EAE8DD" stroke-width="2" stroke-linecap="round" stroke-linejoin="round" stroke-miterlimit="10" x1="51.05" y1="57.287" x2="43.964" y2="46.213"/>
			</g>
			<g display="inline">
				
					<line fill="#c8d1da" stroke="#EAE8DD" stroke-width="2" stroke-linecap="round" stroke-linejoin="round" stroke-miterlimit="10" x1="43.373" y1="57.287" x2="50.459" y2="46.213"/>
				
					<line fill="#c8d1da" stroke="#EAE8DD" stroke-width="2" stroke-linecap="round" stroke-linejoin="round" stroke-miterlimit="10" x1="57.547" y1="57.287" x2="50.46" y2="46.213"/>
			</g>
			<g display="inline">
				
					<line fill="#c8d1da" stroke="#EAE8DD" stroke-width="2" stroke-linecap="round" stroke-linejoin="round" stroke-miterlimit="10" x1="51.051" y1="57.287" x2="58.138" y2="46.213"/>
				
					<line fill="#c8d1da" stroke="#EAE8DD" stroke-width="2" stroke-linecap="round" stroke-linejoin="round" stroke-miterlimit="10" x1="65.225" y1="57.287" x2="58.138" y2="46.213"/>
			</g>
		</g>
		<g>
			<polygon fill="#c8d1da" points="48.636,52.883 51.905,57.857 55.09,53.012 51.953,44.175 			"/>
			<path fill="#c8d1da" d="M73.531,34H59.855c-0.668-3-4.09-6.939-8.21-6.939c-4.119,0-7.542,3.939-8.208,6.939H29.325
				C28.618,34,28,35.305,28,36.013v30.841C28,67.562,28.618,68,29.325,68h44.206C74.239,68,75,67.562,75,66.854V36.013
				C75,35.305,74.239,34,73.531,34z M51.646,29.625c2.7,0,4.967,2.375,5.593,4.375H46.053C46.68,32,48.946,29.625,51.646,29.625z
				 M65,59.546c0,0.527-0.473,0.954-1,0.954s-1-0.427-1-0.954V45.359l-5.496,7.907l2.052,6.198c0.176,0.497-0.157,1.043-0.654,1.219
				c-0.105,0.038-0.25,0.056-0.356,0.056c-0.392,0-0.779-0.245-0.918-0.637L55.9,55.269l-3.191,4.852
				c-0.178,0.269-0.479,0.43-0.801,0.43c-0.321,0-0.622-0.161-0.799-0.43l-3.311-5.037l-1.921,5.04
				c-0.187,0.493-0.74,0.739-1.232,0.554c-0.492-0.188-0.74-0.739-0.552-1.231l2.208-6.33L41,45.359v14.187
				c0,0.527-0.473,0.954-1,0.954c-0.527,0-1-0.427-1-0.954V42.169c0-0.422,0.525-0.794,0.93-0.915
				c0.404-0.12,0.964,0.038,1.195,0.39l6.156,9.271l3.78-9.844c0.144-0.375,0.505-0.615,0.92-0.615
				c0.4,0.005,0.762,0.258,0.896,0.636l3.525,9.918l6.156-9.366c0.232-0.353,1.01-0.511,1.416-0.39
				C64.379,41.375,65,41.748,65,42.169V59.546z"/>
		</g>
		<g id="crown_1_" display="none">
			<g display="inline">
				<path fill-rule="evenodd" clip-rule="evenodd" fill="#c8d1da" d="M70.757,55.446c-0.041,0.106-0.104,0.208-0.118,0.316
					c-0.074,0.537-0.133,1.077-0.202,1.613c-0.047,0.369-0.101,0.738-0.157,1.106c-0.004,0.032-0.034,0.072-0.062,0.088
					c-0.242,0.142-0.499,0.24-0.782,0.263c-0.158,0.013-0.314,0.048-0.473,0.052c-0.125,0.003-0.251-0.026-0.377-0.041
					c-0.302-0.035-0.609-0.051-0.906-0.114c-0.233-0.049-0.458-0.149-0.682-0.241c-0.275-0.113-0.553-0.226-0.814-0.367
					c-0.353-0.188-0.695-0.392-1.029-0.611c-1.099-0.719-2.063-1.597-2.947-2.56c-0.646-0.702-1.264-1.435-1.854-2.185
					c-0.573-0.728-1.097-1.496-1.642-2.247c-0.104-0.144-0.211-0.287-0.313-0.433c-0.055-0.073-0.069-0.127,0.028-0.2
					c0.744-0.553,1.479-1.114,2.219-1.672c0.075-0.057,0.128-0.04,0.171,0.044c0.422,0.822,0.937,1.586,1.489,2.323
					c0.655,0.877,1.387,1.69,2.2,2.43c0.526,0.479,1.092,0.904,1.696,1.271c0.476,0.288,0.989,0.524,1.507,0.734
					c0.349,0.143,0.738,0.176,1.099,0.296c0.304,0.104,0.621,0.051,0.92,0.121c0.323,0.078,0.63,0,0.942-0.034
					c0.028-0.003,0.059,0.012,0.089,0.018C70.757,55.427,70.757,55.437,70.757,55.446z"/>
				<path fill-rule="evenodd" clip-rule="evenodd" fill="#c8d1da" d="M30.944,55.417c0.147,0.007,0.294,0.017,0.441,0.02
					c0.175,0.003,0.352,0.003,0.528-0.003c0.123-0.005,0.244-0.021,0.365-0.035c0.272-0.031,0.548-0.049,0.816-0.103
					c0.248-0.051,0.49-0.135,0.728-0.219c0.258-0.091,0.511-0.193,0.761-0.304c0.198-0.087,0.396-0.179,0.579-0.291
					c0.396-0.244,0.799-0.482,1.174-0.758c0.818-0.601,1.554-1.297,2.199-2.078c0.53-0.64,1.035-1.304,1.516-1.981
					c0.317-0.446,0.574-0.936,0.85-1.411c0.053-0.088,0.099-0.092,0.169-0.038c0.739,0.558,1.475,1.12,2.218,1.671
					c0.103,0.076,0.071,0.132,0.022,0.201c-0.4,0.566-0.802,1.132-1.206,1.699c-0.807,1.125-1.688,2.193-2.635,3.204
					c-0.729,0.778-1.502,1.512-2.372,2.132c-0.473,0.339-0.961,0.659-1.46,0.956c-0.28,0.167-0.597,0.274-0.901,0.4
					c-0.224,0.091-0.447,0.193-0.682,0.245c-0.281,0.063-0.577,0.06-0.858,0.123c-0.346,0.08-0.682-0.005-1.019-0.029
					c-0.216-0.016-0.429-0.131-0.636-0.221c-0.05-0.022-0.087-0.114-0.099-0.18c-0.06-0.337-0.109-0.675-0.163-1.013
					c-0.004-0.024-0.013-0.05-0.016-0.075c-0.035-0.324-0.065-0.65-0.103-0.975c-0.029-0.243-0.061-0.486-0.104-0.728
					c-0.012-0.065-0.074-0.121-0.113-0.183C30.944,55.437,30.944,55.427,30.944,55.417z"/>
				<path fill-rule="evenodd" clip-rule="evenodd" fill="#c8d1da" d="M50.614,54.252c-0.308-0.228-0.603-0.443-0.895-0.66
					c-0.674-0.503-1.344-1.01-2.022-1.507c-0.814-0.6-1.632-1.195-2.455-1.784c-0.801-0.575-1.608-1.141-2.416-1.706
					c-0.399-0.279-0.807-0.545-1.211-0.818c-0.144-0.096-0.148-0.138-0.071-0.308c0.148-0.322,0.286-0.648,0.43-0.973
					c0.106-0.241,0.217-0.48,0.321-0.723c0.107-0.25,0.21-0.503,0.315-0.754c0.064-0.154,0.129-0.308,0.2-0.458
					c0.035-0.075,0.083-0.087,0.157-0.027c0.916,0.738,1.837,1.471,2.752,2.21c0.765,0.618,1.533,1.233,2.284,1.868
					c0.814,0.688,1.611,1.396,2.413,2.099c0.15,0.132,0.207,0.297,0.237,0.505c0.141,0.993-0.058,1.979-0.017,2.97
					C50.638,54.199,50.628,54.213,50.614,54.252z"/>
				<path fill-rule="evenodd" clip-rule="evenodd" fill="#c8d1da" d="M51.072,54.272c0-0.229,0.006-0.416-0.001-0.603
					c-0.021-0.539-0.062-1.076-0.066-1.615c-0.004-0.336,0.028-0.678,0.078-1.012c0.017-0.117,0.115-0.239,0.209-0.326
					c0.405-0.379,0.816-0.754,1.238-1.115c0.723-0.614,1.449-1.224,2.183-1.824c0.827-0.676,1.665-1.342,2.498-2.013
					c0.493-0.394,0.986-0.789,1.48-1.183c0.149-0.12,0.172-0.107,0.243,0.063c0.182,0.441,0.368,0.878,0.558,1.315
					c0.233,0.543,0.473,1.085,0.702,1.63c0.017,0.041-0.012,0.132-0.049,0.158c-0.672,0.464-1.355,0.914-2.025,1.382
					c-0.8,0.558-1.593,1.125-2.382,1.697c-0.84,0.608-1.672,1.227-2.506,1.843c-0.667,0.492-1.333,0.984-1.997,1.479
					C51.195,54.178,51.157,54.208,51.072,54.272z"/>
				<path fill-rule="evenodd" clip-rule="evenodd" fill="#c8d1da" d="M50.853,42.354c0.334,0.411,0.644,0.79,0.953,1.168
					c0.545,0.667,1.089,1.334,1.635,2c0.433,0.528,0.868,1.055,1.301,1.583c0.062,0.076,0.089,0.133-0.033,0.215
					c-0.59,0.396-1.173,0.801-1.747,1.22c-0.723,0.527-1.435,1.069-2.15,1.607c-0.099,0.075-0.181,0.063-0.273-0.013
					c-0.589-0.48-1.178-0.961-1.771-1.436c-0.532-0.426-1.07-0.845-1.604-1.267c-0.009-0.007-0.015-0.015-0.024-0.021
					c-0.263-0.181-0.258-0.177-0.051-0.429c0.502-0.612,0.999-1.229,1.499-1.842c0.362-0.442,0.727-0.881,1.089-1.324
					c0.375-0.457,0.747-0.916,1.119-1.375C50.809,42.422,50.823,42.399,50.853,42.354z"/>
				<path fill-rule="evenodd" clip-rule="evenodd" fill="#c8d1da" d="M47.373,52.833c-0.456,0.422-0.874,0.835-1.32,1.213
					c-0.504,0.429-1.02,0.849-1.558,1.231c-0.449,0.317-0.937,0.582-1.414,0.859c-0.213,0.125-0.434,0.24-0.663,0.331
					c-0.223,0.09-0.462,0.138-0.691,0.215c-0.417,0.14-0.845,0.192-1.282,0.171c-0.371-0.019-0.715-0.136-1.045-0.302
					c-0.149-0.075-0.308-0.133-0.469-0.201c0.238-0.263,0.492-0.538,0.742-0.82c0.692-0.78,1.384-1.559,2.07-2.345
					c0.479-0.551,0.948-1.109,1.418-1.667c0.27-0.319,0.532-0.645,0.797-0.968c0.131-0.159,0.147-0.16,0.323-0.039
					c0.573,0.399,1.152,0.791,1.72,1.198c0.217,0.155,0.409,0.346,0.617,0.516c0.197,0.16,0.4,0.315,0.599,0.473
					C47.261,52.733,47.302,52.771,47.373,52.833z"/>
				<path fill-rule="evenodd" clip-rule="evenodd" fill="#c8d1da" d="M62.78,56.393c-0.062,0.002-0.12,0.008-0.18,0.008
					c-0.347-0.004-0.675,0.1-1.011,0.153c-0.312,0.049-0.643,0.014-0.963-0.015c-0.193-0.018-0.385-0.083-0.574-0.138
					c-0.17-0.047-0.338-0.1-0.5-0.166c-0.281-0.114-0.562-0.231-0.833-0.364c-0.246-0.12-0.494-0.242-0.716-0.398
					c-0.651-0.461-1.308-0.916-1.925-1.416c-0.535-0.433-1.018-0.927-1.526-1.392c-0.097-0.088-0.081-0.154,0.009-0.222
					c0.608-0.461,1.217-0.921,1.828-1.376c0.383-0.286,0.774-0.562,1.16-0.846c0.093-0.069,0.155-0.09,0.242,0.016
					c0.435,0.528,0.876,1.05,1.316,1.577c0.63,0.752,1.261,1.505,1.889,2.256c0.519,0.62,1.037,1.239,1.551,1.862
					c0.044,0.055,0.055,0.136,0.088,0.201C62.678,56.216,62.727,56.297,62.78,56.393z"/>
				<path fill-rule="evenodd" clip-rule="evenodd" fill="#c8d1da" d="M65.129,48.229c0.267,1.708,0.53,3.401,0.797,5.11
					c-0.212-0.058-0.391-0.165-0.53-0.314c-0.45-0.48-0.901-0.961-1.324-1.465c-0.368-0.436-0.703-0.902-1.045-1.359
					c-0.24-0.323-0.47-0.654-0.731-1.021C63.248,48.86,64.185,48.545,65.129,48.229z"/>
				<path fill-rule="evenodd" clip-rule="evenodd" fill="#c8d1da" d="M35.796,53.348c0.053-0.39,0.098-0.757,0.154-1.122
					c0.041-0.261,0.099-0.521,0.142-0.781c0.044-0.272,0.078-0.546,0.122-0.819c0.05-0.317,0.109-0.632,0.156-0.949
					c0.042-0.278,0.067-0.558,0.108-0.836c0.029-0.201,0.072-0.399,0.111-0.608c0.93,0.311,1.864,0.625,2.825,0.947
					c-0.208,0.29-0.384,0.555-0.578,0.807c-0.599,0.775-1.19,1.558-1.814,2.313c-0.274,0.329-0.616,0.604-0.937,0.896
					C36.006,53.266,35.89,53.299,35.796,53.348z"/>
			</g>
		</g>
	</g>
</g>
<g id="Layer_2">
	<g>
		<g>
			<g>
				<g>
					<polygon fill="#c8d1da" points="4.271,51.734 3.203,53.667 1.033,54.083 2.544,55.695 2.27,57.887 4.271,56.948 6.272,57.887 
						5.998,55.695 7.508,54.083 5.338,53.667 					"/>
				</g>
			</g>
			<g>
				<g>
					<polygon fill="#c8d1da" points="98.173,54.083 96.003,53.667 94.935,51.734 93.869,53.667 91.698,54.083 93.209,55.695 
						92.935,57.887 94.935,56.948 96.937,57.887 96.663,55.695 					"/>
				</g>
			</g>
			<g>
				<g>
					<path fill="#c8d1da" d="M12.917,76.987c0.266-0.179,0.482-0.394,0.647-0.645c0.166-0.252,0.278-0.524,0.336-0.817
						c0.059-0.292,0.057-0.591-0.002-0.898c-0.06-0.307-0.185-0.604-0.375-0.889c-0.19-0.284-0.417-0.513-0.679-0.684
						c-0.264-0.173-0.541-0.289-0.834-0.346c-0.291-0.06-0.587-0.06-0.887-0.006c-0.301,0.057-0.584,0.173-0.851,0.35l-0.014,0.01
						c-0.262,0.176-0.477,0.389-0.644,0.643c-0.168,0.253-0.28,0.525-0.337,0.815c-0.056,0.291-0.053,0.591,0.006,0.898
						c0.061,0.306,0.184,0.6,0.37,0.88c0.191,0.286,0.418,0.516,0.683,0.688c0.264,0.174,0.543,0.292,0.835,0.349
						c0.292,0.06,0.588,0.061,0.889,0.005s0.581-0.171,0.843-0.344L12.917,76.987z M12.334,76.142l-0.014,0.01
						c-0.159,0.105-0.327,0.181-0.503,0.225c-0.176,0.043-0.35,0.054-0.522,0.028c-0.173-0.027-0.336-0.088-0.49-0.181
						c-0.154-0.096-0.289-0.229-0.405-0.399c-0.107-0.164-0.176-0.335-0.203-0.514c-0.029-0.179-0.021-0.354,0.021-0.529
						c0.043-0.172,0.118-0.334,0.223-0.484c0.105-0.151,0.239-0.279,0.403-0.389l0.014-0.011c0.159-0.104,0.328-0.182,0.506-0.226
						c0.179-0.046,0.354-0.056,0.523-0.027c0.171,0.027,0.333,0.088,0.487,0.184c0.154,0.094,0.287,0.226,0.398,0.393
						c0.112,0.166,0.183,0.34,0.21,0.518c0.028,0.18,0.022,0.354-0.019,0.526c-0.041,0.172-0.115,0.333-0.222,0.486
						C12.633,75.902,12.497,76.032,12.334,76.142z"/>
				</g>
			</g>
			<g>
				<g>
					<path fill="#c8d1da" d="M17.746,76.637c-0.272-0.338-0.575-0.525-0.908-0.561c-0.341-0.038-0.703,0.098-1.087,0.407
						l-0.25,0.202l-0.354-0.438l-0.662,0.533l0.354,0.44l-2.775,2.245l0.646,0.798l2.776-2.246l0.73,0.904l0.654-0.528l-0.741-0.918
						l0.19-0.153c0.348-0.282,0.647-0.271,0.894,0.034c0.071,0.088,0.128,0.175,0.171,0.258c0.042,0.084,0.083,0.177,0.12,0.277
						l0.668-0.542c-0.045-0.108-0.099-0.219-0.163-0.334C17.947,76.902,17.859,76.775,17.746,76.637z"/>
				</g>
			</g>
			<g>
				<g>
					<polygon fill="#c8d1da" points="23.749,86.312 23.863,83.001 22.957,82.373 19.598,87.214 20.442,87.8 22.842,84.34 
						22.783,87.661 22.81,87.682 25.923,86.457 23.514,89.931 24.358,90.517 27.716,85.674 26.81,85.045 					"/>
				</g>
			</g>
			<g>
				<g>
					
						<rect x="29.01" y="86.88" transform="matrix(-0.9044 -0.4268 0.4268 -0.9044 17.8892 183.6622)" fill="#c8d1da" width="1.027" height="5.894"/>
				</g>
			</g>
			<g>
				<g>
					<polygon fill="#c8d1da" points="37.612,89.671 34.066,91.688 34.929,88.854 33.947,88.553 32.23,94.191 33.212,94.491 
						33.71,92.856 34.863,92.222 36.014,95.345 37.213,95.711 35.746,91.751 38.828,90.04 					"/>
				</g>
			</g>
			<g>
				<g>
					<path fill="#c8d1da" d="M43.167,90.707l-3.32,5.561l1.052,0.134l0.782-1.334l2.763,0.351l0.414,1.486l1.086,0.139l-1.823-6.214
						L43.167,90.707z M42.17,94.205l1.3-2.211l0.714,2.466L42.17,94.205z"/>
				</g>
			</g>
			<g>
				<g>
					<path fill="#c8d1da" d="M55.136,90.972l-1.949,6.179l1.055-0.114l0.452-1.479l2.771-0.296l0.745,1.352l1.087-0.115L56.09,90.87
						L55.136,90.972z M54.973,94.604l0.755-2.452l1.263,2.237L54.973,94.604z"/>
				</g>
			</g>
			<g>
				<g>
					<polygon fill="#c8d1da" points="63.279,94.589 61.914,89.822 60.927,90.105 62.55,95.771 66.516,94.635 66.259,93.736 					"/>
				</g>
			</g>
			<g>
				<g>
					<path fill="#c8d1da" d="M73.17,88.354l-0.008-0.017c-0.188-0.37-0.431-0.679-0.728-0.927c-0.296-0.251-0.63-0.43-0.995-0.537
						c-0.368-0.11-0.757-0.145-1.166-0.103c-0.41,0.043-0.82,0.167-1.231,0.375l-1.958,0.997l2.672,5.254l1.959-0.997
						c0.41-0.21,0.751-0.468,1.026-0.778c0.272-0.31,0.475-0.644,0.603-1.006c0.129-0.36,0.178-0.736,0.149-1.124
						C73.467,89.103,73.358,88.723,73.17,88.354z M72.353,90.396c-0.076,0.239-0.207,0.458-0.385,0.661
						c-0.182,0.202-0.41,0.374-0.685,0.514l-1.036,0.527l-1.824-3.588l1.036-0.526c0.274-0.14,0.547-0.222,0.818-0.246
						c0.271-0.023,0.525,0.003,0.765,0.08c0.238,0.079,0.457,0.206,0.656,0.382c0.2,0.178,0.365,0.394,0.495,0.649l0.007,0.014
						c0.132,0.259,0.209,0.518,0.233,0.779C72.457,89.906,72.431,90.156,72.353,90.396z"/>
				</g>
			</g>
			<g>
				<g>
					<path fill="#c8d1da" d="M75.481,83.005l1.729,6.242l0.823-0.669l-0.428-1.486l2.163-1.758l1.362,0.728l0.85-0.69L76.227,82.4
						L75.481,83.005z M78.897,84.861l-1.575,1.279l-0.703-2.467L78.897,84.861z"/>
				</g>
			</g>
			<g>
				<g>
					<path fill="#c8d1da" d="M86.264,78.148l-0.013-0.012c-0.155-0.13-0.308-0.223-0.459-0.278
						c-0.152-0.056-0.304-0.079-0.456-0.072c-0.152,0.006-0.306,0.037-0.459,0.093c-0.155,0.058-0.312,0.131-0.47,0.225
						c0.024-0.119,0.041-0.241,0.047-0.372c0.006-0.129-0.005-0.255-0.036-0.381c-0.031-0.123-0.084-0.249-0.157-0.372
						c-0.076-0.125-0.181-0.246-0.318-0.361l-0.012-0.012c-0.297-0.248-0.631-0.358-1.003-0.327
						c-0.489,0.039-0.952,0.319-1.391,0.837l-1.703,2.016l4.502,3.802l1.757-2.079c0.209-0.247,0.376-0.498,0.495-0.747
						c0.118-0.25,0.19-0.495,0.211-0.726c0.02-0.232-0.015-0.452-0.103-0.664C86.609,78.509,86.465,78.317,86.264,78.148z
						 M81.197,78.939l0.96-1.137c0.217-0.255,0.431-0.407,0.646-0.458c0.214-0.049,0.411,0.001,0.592,0.155l0.013,0.011
						c0.206,0.174,0.295,0.379,0.265,0.618c-0.029,0.24-0.152,0.486-0.368,0.743l-0.911,1.077L81.197,78.939z M85.403,80.25
						l-1.106,1.308l-1.232-1.042l1.056-1.251c0.262-0.313,0.511-0.501,0.745-0.563c0.232-0.064,0.446-0.012,0.639,0.151l0.012,0.009
						c0.208,0.175,0.298,0.382,0.271,0.623C85.76,79.725,85.63,79.979,85.403,80.25z"/>
				</g>
			</g>
			<g>
				<g>
					<path fill="#c8d1da" d="M85.476,71.528l3.752,5.28l0.547-0.908l-0.909-1.253l1.438-2.389l1.527,0.223l0.563-0.938l-6.423-0.837
						L85.476,71.528z M89.321,72.111l-1.046,1.737l-1.5-2.079L89.321,72.111z"/>
				</g>
			</g>
			<g>
				<g>
					<polygon fill="#c8d1da" points="4.057,38.329 2.889,38.07 1.834,42.837 3.001,43.096 3.388,41.346 7.976,42.361 8.256,41.095 
						3.669,40.079 					"/>
				</g>
			</g>
			<g>
				<g>
					<polygon fill="#c8d1da" points="9.841,35.59 7.63,34.749 8.481,32.514 10.692,33.355 11.152,32.143 5.645,30.048 5.184,31.26 
						7.363,32.09 6.514,34.323 4.333,33.495 3.873,34.708 9.38,36.801 					"/>
				</g>
			</g>
			<g>
				<g>
					<polygon fill="#c8d1da" points="14.786,25.584 13.796,24.991 12.154,27.737 11.093,27.102 12.518,24.718 11.528,24.126 
						10.102,26.51 9.076,25.896 10.696,23.187 9.707,22.595 7.43,26.402 12.487,29.427 					"/>
				</g>
			</g>
			<g>
				<g>
					<path fill="#c8d1da" d="M21.72,17.678c0.189-0.367,0.3-0.741,0.335-1.125c0.034-0.381-0.011-0.757-0.134-1.125
						c-0.124-0.37-0.322-0.711-0.596-1.023l-0.011-0.014c-0.274-0.311-0.586-0.55-0.936-0.718c-0.349-0.167-0.715-0.259-1.098-0.274
						c-0.383-0.014-0.768,0.049-1.155,0.191c-0.387,0.142-0.753,0.366-1.099,0.669l-1.726,1.518l3.892,4.425l1.727-1.518
						C21.265,18.382,21.531,18.046,21.72,17.678z M20.606,17.234c-0.108,0.209-0.262,0.399-0.46,0.573l-0.752,0.662l-2.347-2.668
						L17.8,15.14c0.199-0.175,0.408-0.301,0.63-0.381c0.222-0.079,0.443-0.111,0.663-0.095c0.219,0.017,0.434,0.078,0.644,0.186
						c0.209,0.106,0.4,0.257,0.571,0.451l0.01,0.013c0.175,0.199,0.3,0.405,0.375,0.624c0.075,0.218,0.106,0.436,0.095,0.656
						C20.775,16.812,20.715,17.027,20.606,17.234z"/>
				</g>
			</g>
			<g>
				<g>
					<polygon fill="#c8d1da" points="29.418,12.847 28.842,11.849 26.072,13.449 25.452,12.378 27.858,10.987 27.28,9.989 
						24.875,11.379 24.278,10.344 27.011,8.765 26.433,7.765 22.592,9.987 25.542,15.089 					"/>
				</g>
			</g>
			<g>
				<g>
					<path fill="#c8d1da" d="M33.577,9.954c-0.315,0.119-0.628,0.168-0.938,0.146c-0.312-0.021-0.632-0.087-0.96-0.197l-0.395,1.128
						c0.443,0.175,0.895,0.259,1.353,0.252c0.458-0.007,0.899-0.09,1.32-0.248c0.299-0.112,0.557-0.253,0.775-0.422
						c0.217-0.168,0.387-0.358,0.511-0.569c0.123-0.211,0.195-0.442,0.214-0.692c0.02-0.249-0.022-0.511-0.125-0.784l-0.006-0.017
						c-0.09-0.241-0.207-0.435-0.348-0.579c-0.142-0.145-0.312-0.253-0.511-0.326c-0.198-0.073-0.424-0.113-0.677-0.124
						c-0.253-0.009-0.534,0.001-0.84,0.033C32.689,7.58,32.472,7.599,32.3,7.61c-0.173,0.01-0.315,0.006-0.424-0.012
						c-0.11-0.019-0.194-0.055-0.253-0.107c-0.059-0.053-0.104-0.124-0.139-0.213l-0.005-0.016c-0.052-0.137-0.035-0.273,0.048-0.41
						s0.244-0.249,0.48-0.338c0.236-0.088,0.492-0.128,0.765-0.12c0.273,0.007,0.564,0.049,0.875,0.125l0.288-1.151
						c-0.369-0.12-0.745-0.176-1.13-0.169c-0.384,0.006-0.779,0.085-1.183,0.236c-0.283,0.107-0.528,0.244-0.735,0.411
						c-0.206,0.167-0.365,0.355-0.48,0.566c-0.114,0.211-0.181,0.436-0.199,0.673c-0.019,0.238,0.021,0.482,0.115,0.734l0.005,0.016
						c0.103,0.273,0.231,0.486,0.388,0.637c0.156,0.152,0.336,0.259,0.54,0.323c0.205,0.065,0.436,0.096,0.694,0.095
						c0.258-0.001,0.539-0.02,0.845-0.056c0.252-0.029,0.461-0.045,0.626-0.047c0.165,0,0.298,0.009,0.398,0.031
						c0.102,0.022,0.178,0.057,0.23,0.108c0.051,0.048,0.091,0.113,0.121,0.191l0.006,0.016c0.06,0.163,0.039,0.317-0.065,0.461
						C34.008,9.74,33.83,9.859,33.577,9.954z"/>
				</g>
			</g>
			<g>
				<g>
					
						<rect x="35.705" y="5.787" transform="matrix(0.2366 0.9716 -0.9716 0.2366 35.7582 -32.6414)" fill="#c8d1da" width="5.893" height="1.297"/>
				</g>
			</g>
			<g>
				<g>
					<path fill="#c8d1da" d="M45.443,4.779l0.131,1.112l1.294-0.152l0.099,0.842c-0.301,0.275-0.691,0.439-1.172,0.496
						c-0.261,0.031-0.504,0.013-0.729-0.056c-0.226-0.067-0.428-0.175-0.606-0.324s-0.324-0.333-0.437-0.548
						c-0.113-0.215-0.185-0.458-0.216-0.726l-0.002-0.017c-0.029-0.251-0.014-0.493,0.047-0.724c0.061-0.23,0.158-0.437,0.291-0.62
						c0.134-0.183,0.297-0.335,0.491-0.457c0.192-0.121,0.404-0.196,0.639-0.224c0.166-0.019,0.321-0.024,0.465-0.011
						c0.141,0.011,0.275,0.035,0.4,0.072c0.127,0.035,0.251,0.083,0.371,0.143c0.118,0.059,0.24,0.129,0.363,0.211l0.696-1.074
						c-0.165-0.109-0.335-0.206-0.507-0.288c-0.174-0.081-0.356-0.145-0.549-0.19c-0.19-0.045-0.397-0.073-0.614-0.084
						c-0.221-0.011-0.461-0.001-0.722,0.029c-0.446,0.052-0.847,0.18-1.202,0.382S43.32,3.03,43.08,3.338
						c-0.241,0.308-0.416,0.654-0.528,1.037c-0.11,0.383-0.142,0.783-0.092,1.201l0.002,0.018c0.05,0.435,0.173,0.827,0.366,1.178
						c0.195,0.35,0.442,0.643,0.743,0.879c0.302,0.235,0.65,0.407,1.043,0.512c0.395,0.107,0.818,0.134,1.277,0.081
						c0.536-0.063,1-0.21,1.394-0.438c0.394-0.231,0.728-0.49,0.998-0.783l-0.298-2.542L45.443,4.779z"/>
				</g>
			</g>
			<g>
				<g>
					<polygon fill="#c8d1da" points="56.374,8.248 57.025,2.391 55.752,2.249 55.352,5.855 53.008,1.943 51.819,1.812 51.167,7.669 
						52.439,7.81 52.854,4.087 55.276,8.126 					"/>
				</g>
			</g>
			<g>
				<g>
					<polygon fill="#c8d1da" points="70.655,6.815 69.37,6.265 66.321,9.476 66.537,5.053 65.221,4.49 65.076,10.884 66.13,11.336 
											"/>
				</g>
			</g>
			<g>
				<g>
					<path fill="#c8d1da" d="M77.13,14.422l0.01-0.013c0.239-0.347,0.398-0.716,0.479-1.105c0.082-0.391,0.086-0.777,0.012-1.159
						c-0.074-0.382-0.224-0.747-0.448-1.095c-0.224-0.348-0.521-0.65-0.896-0.909c-0.374-0.258-0.764-0.43-1.172-0.517
						c-0.407-0.085-0.805-0.094-1.19-0.022c-0.388,0.07-0.748,0.213-1.086,0.427c-0.34,0.214-0.628,0.494-0.867,0.84l-0.009,0.014
						c-0.239,0.346-0.398,0.715-0.479,1.105c-0.082,0.39-0.087,0.776-0.011,1.158c0.073,0.381,0.223,0.747,0.446,1.096
						c0.222,0.348,0.521,0.651,0.896,0.908c0.374,0.259,0.766,0.43,1.173,0.517c0.406,0.086,0.804,0.094,1.189,0.023
						c0.387-0.072,0.75-0.214,1.086-0.427C76.603,15.049,76.891,14.77,77.13,14.422z M76.004,13.667
						c-0.144,0.208-0.314,0.378-0.511,0.512c-0.197,0.133-0.408,0.226-0.63,0.276c-0.223,0.051-0.452,0.054-0.687,0.008
						c-0.235-0.045-0.458-0.142-0.671-0.288c-0.217-0.149-0.387-0.327-0.509-0.529c-0.121-0.204-0.2-0.42-0.237-0.65
						c-0.035-0.229-0.027-0.461,0.03-0.695c0.055-0.235,0.154-0.456,0.298-0.664l0.008-0.013c0.145-0.208,0.316-0.379,0.514-0.512
						c0.197-0.133,0.406-0.225,0.629-0.276c0.224-0.051,0.45-0.055,0.683-0.01c0.23,0.043,0.457,0.141,0.675,0.291
						c0.212,0.146,0.381,0.322,0.505,0.527c0.124,0.206,0.204,0.422,0.24,0.651c0.037,0.229,0.026,0.462-0.028,0.695
						c-0.056,0.235-0.154,0.456-0.298,0.664L76.004,13.667z"/>
				</g>
			</g>
			<g>
				<g>
					<polygon fill="#c8d1da" points="81.25,19.154 85.367,18.3 84.338,17.245 81.645,17.873 82.357,15.214 81.298,14.13 
						80.324,18.243 78.662,19.867 79.567,20.794 					"/>
				</g>
			</g>
			<g>
				<g>
					<path fill="#c8d1da" d="M83.091,24.986l1.4-0.281l1.378,2.077l-0.806,1.18l0.75,1.13l3.551-5.384l-0.661-0.996l-6.342,1.173
						L83.091,24.986z M87.726,24.055l-1.159,1.708L85.7,24.458L87.726,24.055z"/>
				</g>
			</g>
			<g>
				<g>
					<path fill="#c8d1da" d="M87.866,31.585c-0.147,0.354-0.218,0.736-0.214,1.144c0.003,0.408,0.093,0.824,0.269,1.249
						c0.204,0.499,0.471,0.907,0.799,1.226c0.326,0.316,0.668,0.567,1.022,0.749l2.368-0.975l-0.975-2.367l-1.035,0.427l0.496,1.207
						l-0.783,0.322c-0.347-0.216-0.61-0.548-0.795-0.994c-0.1-0.244-0.148-0.484-0.144-0.719c0.003-0.233,0.053-0.458,0.147-0.669
						c0.096-0.213,0.232-0.403,0.409-0.571c0.178-0.167,0.392-0.301,0.642-0.404l0.016-0.007c0.232-0.096,0.47-0.146,0.708-0.15
						s0.465,0.034,0.678,0.112c0.211,0.081,0.402,0.196,0.57,0.349c0.169,0.151,0.3,0.336,0.388,0.554
						c0.066,0.157,0.109,0.305,0.138,0.445c0.027,0.141,0.041,0.277,0.04,0.408c0,0.131-0.015,0.262-0.039,0.393
						c-0.024,0.132-0.06,0.267-0.104,0.408l1.222,0.381c0.062-0.188,0.107-0.378,0.14-0.567c0.031-0.189,0.043-0.382,0.036-0.579
						c-0.011-0.196-0.037-0.402-0.086-0.616c-0.048-0.214-0.122-0.443-0.224-0.686c-0.171-0.416-0.4-0.767-0.693-1.053
						c-0.29-0.289-0.617-0.506-0.979-0.654c-0.358-0.149-0.74-0.224-1.138-0.227c-0.399-0.003-0.793,0.075-1.184,0.236l-0.015,0.006
						c-0.405,0.166-0.749,0.39-1.034,0.671C88.226,30.914,88.01,31.231,87.866,31.585z"/>
				</g>
			</g>
			<g>
				<g>
					<polygon fill="#c8d1da" points="90.661,43.391 91.791,43.156 91.139,40.025 92.352,39.773 92.917,42.492 94.047,42.257 
						93.48,39.538 94.65,39.293 95.293,42.386 96.423,42.15 95.52,37.806 89.75,39.007 					"/>
				</g>
			</g>
		</g>
	</g>
</g>
</svg>
