<svg width="24" height="24" viewBox="0 0 24 24" fill="none" xmlns="http://www.w3.org/2000/svg">
<rect width="24" height="24" fill="black" fill-opacity="0"/>
<rect width="24" height="24" fill="black" fill-opacity="0"/>
<path d="M1 18.9C2.94 20.13 5.17 21.12 8.25 20.99C15.71 20.65 20.71 15.3 20.82 7.48005C21.62 6.80005 22.57 6.00005 23 5.10005C22.31 5.45005 21.49 5.67005 20.57 5.80005C21.41 5.18005 22.1 4.42005 22.46 3.31005C21.59 3.77005 20.69 4.19005 19.58 4.40005C16.96 1.22005 10.68 3.79005 11.78 8.52005C7.37 8.25005 4.68 6.25005 2.44 3.80005C1.16 5.87005 2.27 9.00005 3.78 9.86005C3 9.82005 2.41 9.58005 1.85 9.32005C1.93 11.92 3.36 13.17 5.37 13.84C4.76 13.97 4.08 14 3.43 13.89C4.05 15.71 5.37 16.85 7.6 17.07C6.09 18.36 3.27 19.27 1 18.9Z" fill="white" fill-opacity="0.6"/>
</svg>
