<?xml version="1.0" encoding="UTF-8" standalone="no"?>
<!-- Created with Inkscape (http://www.inkscape.org/) -->

<svg
   xmlns:dc="http://purl.org/dc/elements/1.1/"
   xmlns:cc="http://creativecommons.org/ns#"
   xmlns:rdf="http://www.w3.org/1999/02/22-rdf-syntax-ns#"
   xmlns:svg="http://www.w3.org/2000/svg"
   xmlns="http://www.w3.org/2000/svg"
   xmlns:sodipodi="http://sodipodi.sourceforge.net/DTD/sodipodi-0.dtd"
   xmlns:inkscape="http://www.inkscape.org/namespaces/inkscape"
   width="716.40948"
   height="630.58643"
   viewBox="0 0 189.55001 166.84266"
   version="1.1"
   id="svg8"
   inkscape:version="0.92.4 (5da689c313, 2019-01-14)"
   sodipodi:docname="ABC (2016).svg">
  <defs
     id="defs2" />
  <sodipodi:namedview
     id="base"
     pagecolor="#ffffff"
     bordercolor="#666666"
     borderopacity="1.0"
     inkscape:pageopacity="0.0"
     inkscape:pageshadow="2"
     inkscape:zoom="0.22627417"
     inkscape:cx="798.56145"
     inkscape:cy="-427.94365"
     inkscape:document-units="mm"
     inkscape:current-layer="layer1"
     showgrid="false"
     units="px"
     fit-margin-top="0"
     fit-margin-left="0"
     fit-margin-right="0"
     fit-margin-bottom="0"
     inkscape:window-width="1366"
     inkscape:window-height="745"
     inkscape:window-x="-8"
     inkscape:window-y="-8"
     inkscape:window-maximized="1" />
  <metadata
     id="metadata5">
    <rdf:RDF>
      <cc:Work
         rdf:about="">
        <dc:format>image/svg+xml</dc:format>
        <dc:type
           rdf:resource="http://purl.org/dc/dcmitype/StillImage" />
        <dc:title></dc:title>
      </cc:Work>
    </rdf:RDF>
  </metadata>
  <g
     inkscape:label="Layer 1"
     inkscape:groupmode="layer"
     id="layer1"
     transform="translate(258.05612,-166.58741)">
    <path
       style="fill:#eb8b01;fill-opacity:1;stroke-width:0.26458335"
       d="m -185.24613,332.8108 c 6.69691,-1.01765 12.51639,-2.833 18.70557,-5.83507 l 4.02119,-1.95049 2.19651,1.16714 c 11.47098,6.09518 26.31843,8.36682 39.63506,6.06408 24.369542,-4.21402 44.175482,-22.39652 50.158302,-46.04697 1.4666,-5.79752 1.81935,-8.76573 1.81935,-15.30874 0,-6.57339 -0.36328,-9.60609 -1.84166,-15.37431 -4.21979,-16.4645 -15.17278,-30.60278 -30.150722,-38.91897 l -2.34983,-1.30469 -0.72668,-2.76039 c -2.95534,-11.22619 -8.59167,-20.89043 -16.80933,-28.82185 -9.21999,-8.89885 -20.82533,-14.56323 -33.9661,-16.57831 -4.1946,-0.64323 -12.98596,-0.64475 -17.19791,-0.003 -13.29033,2.02504 -24.99206,7.77119 -34.22635,16.80687 -5.23811,5.12546 -9.36039,10.75405 -12.33336,16.84003 -2.3133,4.73559 -3.24406,7.3959 -5.04901,14.43114 -0.18856,0.73494 -0.4382,1.00888 -1.15589,1.2684 -1.40792,0.50911 -7.66337,4.76602 -10.47081,7.12552 -16.40754,13.78962 -24.96608,34.34968 -22.62603,54.35419 2.24532,19.19467 13.5539,36.33817 30.76349,46.63663 7.80311,4.6695 16.48147,7.49896 26.39067,8.60431 3.007,0.33542 11.92985,0.10343 15.21354,-0.39555 z"
       id="path4545"
       inkscape:connector-curvature="0" />
    <g
       id="g4584"
       transform="translate(137.0542,20.10834)"
       style="fill:#feb500;fill-opacity:1">
      <path
         inkscape:connector-curvature="0"
         id="path4572"
         d="m -207.08429,264.82479 c 3.43853,-16.76632 1.15669,-32.55819 -7.84806,-46.58525 -6.79277,-10.94888 -17.98687,-20.28622 -30.48759,-25.49289 -1.30968,-0.5455 -2.4022,-0.97528 -2.4278,-0.95508 -0.0256,0.0202 0.22956,1.12569 0.56704,2.45662 0.33747,1.33094 0.6977,3.03142 0.8005,3.77886 l 0.1869,1.35897 2.95023,1.47542 c 16.34623,10.29547 26.901,20.58608 30.58661,43.21026 4.20945,36.60121 -27.85496,63.1553 -56.6013,66.14589 -3.32851,0.40235 -10.14642,0.33039 -13.53989,-0.14292 -2.43742,-0.33996 -6.70834,-1.29304 -9.35351,-2.08729 -0.29105,-0.0874 0.007,0.0907 0.66145,0.39565 3.00776,1.40088 10.22296,3.59974 15.06159,4.14254 9.35712,1.15435 18.3687,0.28145 26.64937,-2.23761 21.24601,-6.46326 37.68046,-23.76322 42.79446,-45.46317 z"
         style="fill:#feb500;fill-opacity:1;stroke-width:0.26458335"
         sodipodi:nodetypes="cccsccccccccccsc" />
      <path
         inkscape:connector-curvature="0"
         id="path4574"
         d="m -372.95905,289.78538 -1.31297,-1.38906 1.38906,1.31297 c 1.29074,1.22004 1.5104,1.46515 1.31297,1.46515 -0.0418,0 -0.66693,-0.62507 -1.38906,-1.38906 z"
         style="fill:#feb500;fill-opacity:1;stroke-width:0.26458335" />
      <path
         inkscape:connector-curvature="0"
         id="path4554"
         d="m -354.39174,200.15842 c 0.69729,-5.37621 2.1868,-10.45752 4.32193,-15.14918 4.5715,-10.04525 12.10267,-18.30425 21.15455,-23.8471 6.65698,-4.07635 14.09333,-6.71362 21.59729,-7.70418 3.46713,-0.39341 12.92904,-0.59738 16.97933,-0.0259 21.03311,2.96765 37.49363,14.08344 45.90882,31.00225 0.64615,1.29911 1.45316,3.04516 1.79335,3.88013 1.05681,2.5939 0.86879,1.47737 -0.2837,-1.68466 -2.21147,-6.0675 -5.75675,-12.38456 -9.78111,-17.42825 -2.41725,-3.0295 -7.76234,-8.21055 -10.84262,-10.50984 -7.98334,-5.95923 -16.27808,-9.67903 -26.44179,-11.47154 -4.58141,-0.808 -12.53294,-0.98378 -17.4625,-0.38604 -16.55118,2.00694 -32.21768,11.01213 -42.13617,24.27376 -6.73966,9.01135 -10.78591,19.86723 -11.96687,31.47531 l -0.15253,1.49935 2.31483,-1.33888 c 1.61498,-0.90989 3.39224,-1.866 4.99719,-2.58523 z"
         style="fill:#feb500;fill-opacity:1;stroke-width:0.26458335"
         sodipodi:nodetypes="csscsccscccsscccc" />
      <path
         inkscape:connector-curvature="0"
         id="path4576"
         d="m -299.57357,304.9169 c 3.01554,-1.47545 5.45416,-3.17711 6.38655,-4.05809 -1.45301,-1.28067 -5.69911,-2.80918 -6.48615,-3.80054 0.26696,-0.43196 0.17462,-0.0709 -1.71138,1.14918 -6.19311,4.0063 -15.28688,7.11384 -23.63722,8.07734 -3.86947,0.44647 -12.53602,0.166 -16.19476,-0.5241 -34.40548,-7.03941 -47.01764,-37.45256 -47.54124,-59.69771 7.2e-4,-13.81236 3.66781,-25.49884 11.1389,-35.49792 1.72381,-2.3071 6.33006,-7.13965 8.90355,-9.34096 0.80507,-0.68864 0.96043,-0.88651 0.39688,-0.50548 -1.65396,1.11827 -5.37146,4.32925 -7.64901,6.60681 -31.03259,29.68858 -21.21939,74.12897 7.20279,93.91359 8.11444,5.63834 16.85365,9.54617 25.99117,11.09938 7.21298,1.22606 14.07622,1.25636 20.47316,0.36406 8.48711,-1.18385 16.15344,-3.9917 22.72676,-7.78556 z"
         style="fill:#feb500;fill-opacity:1;stroke-width:0.26458335"
         sodipodi:nodetypes="ccccccccscccssc" />
    </g>
    <path
       style="fill:#e3211a;fill-opacity:1;stroke-width:0.26458335"
       d="m -198.4753,326.6778 c -5.03615,-0.38016 -12.0561,-1.95291 -16.47296,-3.6906 -17.61843,-6.93147 -30.57664,-21.59163 -34.94966,-39.54 -5.93195,-24.34677 6.48699,-49.95116 30.01911,-61.89103 l 2.54127,-1.28941 0.1725,-1.4677 c 0.29255,-2.48906 1.91808,-8.33456 3.20648,-11.53061 4.44255,-11.02036 12.39404,-20.25907 22.74133,-26.42279 13.47806,-8.02867 30.47335,-9.85968 45.39401,-4.8906 13.62273,4.53682 25.12045,14.42076 31.47318,27.0557 2.32768,4.62955 3.70304,8.73694 4.77694,14.26597 0.26361,1.35721 0.51978,2.5019 0.56928,2.54375 0.0495,0.0419 1.44772,0.76664 3.10717,1.61066 27.352782,13.91184 38.386952,46.62237 24.920482,73.87614 -3.91104,7.91525 -9.61789,14.75354 -16.87397,20.21941 -14.988542,11.29059 -35.471382,14.16974 -53.397032,7.50572 -2.65975,-0.98878 -7.5949,-3.45505 -10.05153,-5.02308 l -1.32027,-0.84272 -2.38389,1.45468 c -9.64409,5.88492 -22.20133,8.90734 -33.47244,8.05651 z"
       id="path4543"
       inkscape:connector-curvature="0" />
    <path
       id="path4550"
       d="m -101.95344,298.79278 c 4.21379,-0.96795 7.96647,-2.90979 10.79744,-5.58721 l 1.42446,-1.34719 v -4.59183 c 0,-2.5255 -0.0893,-4.59125 -0.19844,-4.59056 -0.10914,8e-4 -0.87712,0.70662 -1.70663,1.5687 -2.71206,2.8186 -6.912889,5.22777 -10.40564,5.96763 -2.35577,0.49902 -6.19384,0.50358 -8.05021,0.01 -2.69636,-0.71757 -4.78103,-1.95119 -6.90281,-4.0848 -2.29259,-2.30537 -3.54814,-4.49232 -4.65168,-8.10241 -0.67392,-2.20464 -0.72536,-2.70632 -0.73138,-7.1339 -0.006,-4.46634 0.0391,-4.91058 0.72733,-7.14375 1.09562,-3.55531 2.37717,-5.77135 4.66738,-8.07074 3.84107,-3.85648 8.63623,-5.23167 14.2204,-4.07823 4.89796,1.0117 8.81337,4.04125 10.99961,8.51095 0.30251,0.61846 0.64535,1.12448 0.76187,1.12448 0.11652,0 0.21186,-3.39054 0.21186,-7.53453 0,-8.75239 0.39271,-7.74107 -3.53981,-9.11588 -6.24385,-2.18285 -14.62231,-2.28082 -21.26423,-0.24865 -9.91748,3.03437 -17.22214,11.75909 -19.01999,22.71758 -0.60563,3.69148 -0.37192,9.60803 0.51344,12.99835 2.46607,9.44338 9.15787,16.1314 18.47543,18.46502 4.4873,1.12385 9.51508,1.2222 13.6716,0.26741 z"
       style="fill:#b4181a;fill-opacity:1;stroke-width:0.26458335"
       inkscape:connector-curvature="0" />
    <path
       style="fill:#ffffff;fill-opacity:1;stroke-width:0.26458335"
       d="m -104.07012,296.14693 c 4.213802,-0.96795 7.966482,-2.90979 10.797452,-5.58721 l 1.42446,-1.34719 v -4.59183 c 0,-2.5255 -0.0893,-4.59125 -0.19844,-4.59056 -0.10914,8e-4 -0.87712,0.70662 -1.70663,1.5687 -2.71206,2.8186 -6.912892,5.22777 -10.405652,5.96763 -2.35577,0.49902 -6.19384,0.50358 -8.05021,0.01 -2.69636,-0.71757 -4.78103,-1.95119 -6.90281,-4.0848 -2.29259,-2.30537 -3.54814,-4.49232 -4.65168,-8.10241 -0.67392,-2.20464 -0.72536,-2.70632 -0.73138,-7.1339 -0.006,-4.46634 0.0391,-4.91058 0.72733,-7.14375 1.09562,-3.55531 2.37717,-5.77135 4.66738,-8.07074 3.84107,-3.85648 8.63623,-5.23167 14.2204,-4.07823 4.897972,1.0117 8.813382,4.04125 10.999622,8.51095 0.30251,0.61846 0.64535,1.12448 0.76187,1.12448 0.11652,0 0.21186,-3.39054 0.21186,-7.53453 0,-8.75239 0.39271,-7.74107 -3.53981,-9.11588 -6.243862,-2.18285 -14.622322,-2.28082 -21.264242,-0.24865 -9.91748,3.03437 -17.22214,11.75909 -19.01999,22.71758 -0.60563,3.69148 -0.37192,9.60803 0.51344,12.99835 2.46607,9.44338 9.15787,16.1314 18.47543,18.46502 4.4873,1.12385 9.51508,1.2222 13.6716,0.26741 z"
       id="path4541"
       inkscape:connector-curvature="0" />
    <path
       d="m -166.08681,266.29261 c -0.0601,-0.0606 -0.10931,-3.36462 -0.10931,-7.34219 v -7.23194 l 4.56406,0.002 c 2.51024,8e-4 5.04032,0.13231 5.6224,0.29222 1.48608,0.40826 3.16997,2.22334 3.69131,3.97889 1.14779,3.86501 -0.16192,7.57463 -3.29444,9.3312 -1.42892,0.80127 -1.53567,0.8184 -5.90995,0.9483 -2.45012,0.0728 -4.50395,0.0827 -4.56407,0.022 z m -49.99283,11.42118 c 0.0986,-0.25466 1.74286,-4.59616 3.65381,-9.64777 1.91095,-5.05161 3.52841,-9.13079 3.59434,-9.06486 0.10135,0.10135 7.42865,18.91787 7.44139,19.1095 0.002,0.0364 -3.34209,0.0662 -7.43224,0.0662 -6.97445,0 -7.4255,-0.0288 -7.2573,-0.46302 z m 49.88352,4.40324 v -8.49519 l 4.96094,0.12329 c 5.47213,0.136 6.85169,0.41618 8.684,1.76368 0.59018,0.43402 1.42267,1.42023 1.84999,2.19158 0.71512,1.29085 0.7767,1.61302 0.7739,4.04829 -0.003,2.26908 -0.0952,2.83263 -0.6503,3.95759 -0.76739,1.55525 -2.24351,3.09995 -3.63516,3.80405 -1.64418,0.83186 -3.57908,1.10191 -7.89535,1.10191 h -4.08802 z m -52.65208,16.18969 c 0,-0.13365 -0.38696,-0.48407 -0.8599,-0.77872 -1.14427,-0.71289 -1.53854,-1.41724 -1.70476,-3.04554 -0.11546,-1.13101 0.0669,-1.98437 1.0964,-5.13006 l 1.23489,-3.77337 10.35043,0.0692 10.35043,0.0692 1.25447,3.43959 c 0.68995,1.89177 1.33232,3.98789 1.42748,4.65804 0.22126,1.55832 -0.35174,2.99632 -1.44094,3.61618 -1.96419,1.11782 -1.95131,1.11849 21.50425,1.11849 24.11285,0 25.07295,-0.0481 28.95012,-1.4516 5.08245,-1.83973 8.45311,-5.70694 9.51732,-10.91933 1.37622,-6.74066 -2.95863,-13.94687 -9.58123,-15.92772 -1.9055,-0.56994 -1.9041,-0.56811 -0.79375,-1.03126 2.90098,-1.21005 5.07357,-3.2171 6.54808,-6.04913 1.53222,-2.94287 1.8676,-5.58599 1.11431,-8.78176 -0.90326,-3.83195 -3.22335,-6.71541 -6.84888,-8.51193 -3.50253,-1.73557 -4.36819,-1.81169 -20.72341,-1.82221 -7.89451,-0.005 -14.35365,0.0651 -14.35365,0.15585 0,0.0908 0.51919,0.62209 1.15376,1.18066 1.37097,1.20678 2.18116,2.94158 2.54316,5.44552 0.40837,2.82461 0.35069,43.70795 -0.0628,44.51193 -0.52997,1.0305 -1.14184,1.28108 -1.98276,0.81201 -0.55626,-0.31028 -1.05534,-1.17362 -2.14128,-3.70416 -1.7785,-4.14442 -8.32028,-20.04742 -14.81808,-36.02261 l -4.9851,-12.25614 -7.18366,-0.0704 c -3.95101,-0.0387 -7.18366,0.006 -7.18366,0.0989 0,0.0931 0.5316,0.63726 1.18132,1.20917 1.37514,1.21045 1.70924,2.32251 1.20572,4.01333 -0.79981,2.68578 -15.54637,39.98572 -16.70027,42.24167 -1.48697,2.90709 -2.8702,4.72234 -4.26662,5.59917 -1.95925,1.23023 -1.66379,1.28 7.59965,1.28 5.04717,0 8.59895,-0.10038 8.59895,-0.24301 z"
       style="fill:#b4181a;fill-opacity:1;stroke-width:0.26458335"
       id="path4552"
       inkscape:connector-curvature="0" />
    <path
       id="path4533"
       style="fill:#ffffff;fill-opacity:1;stroke-width:0.26458335"
       d="m -168.20349,263.64676 c -0.0601,-0.0606 -0.10931,-3.36462 -0.10931,-7.34219 v -7.23194 l 4.56406,0.002 c 2.51024,8e-4 5.04032,0.13231 5.6224,0.29222 1.48608,0.40826 3.16997,2.22334 3.69131,3.97889 1.14779,3.86501 -0.16192,7.57463 -3.29444,9.3312 -1.42892,0.80127 -1.53567,0.8184 -5.90995,0.9483 -2.45012,0.0728 -4.50395,0.0827 -4.56407,0.022 z m -49.99283,11.42118 c 0.0986,-0.25466 1.74286,-4.59616 3.65381,-9.64777 1.91095,-5.05161 3.52841,-9.13079 3.59434,-9.06486 0.10135,0.10135 7.42865,18.91787 7.44139,19.1095 0.002,0.0364 -3.34209,0.0662 -7.43224,0.0662 -6.97445,0 -7.4255,-0.0288 -7.2573,-0.46302 z m 49.88352,4.40324 v -8.49519 l 4.96094,0.12329 c 5.47213,0.136 6.85169,0.41618 8.684,1.76368 0.59018,0.43402 1.42267,1.42023 1.84999,2.19158 0.71512,1.29085 0.7767,1.61302 0.7739,4.04829 -0.003,2.26908 -0.0952,2.83263 -0.6503,3.95759 -0.76739,1.55525 -2.24351,3.09995 -3.63516,3.80405 -1.64418,0.83186 -3.57908,1.10191 -7.89535,1.10191 h -4.08802 z m -52.65208,16.18969 c 0,-0.13365 -0.38696,-0.48407 -0.8599,-0.77872 -1.14427,-0.71289 -1.53854,-1.41724 -1.70476,-3.04554 -0.11546,-1.13101 0.0669,-1.98437 1.0964,-5.13006 l 1.23489,-3.77337 10.35043,0.0692 10.35043,0.0692 1.25447,3.43959 c 0.68995,1.89177 1.33232,3.98789 1.42748,4.65804 0.22126,1.55832 -0.35174,2.99632 -1.44094,3.61618 -1.96419,1.11782 -1.95131,1.11849 21.50425,1.11849 24.11285,0 25.07295,-0.0481 28.95012,-1.4516 5.08245,-1.83973 8.45311,-5.70694 9.51732,-10.91933 1.37622,-6.74066 -2.95863,-13.94687 -9.58123,-15.92772 -1.9055,-0.56994 -1.9041,-0.56811 -0.79375,-1.03126 2.90098,-1.21005 5.07357,-3.2171 6.54808,-6.04913 1.53222,-2.94287 1.8676,-5.58599 1.11431,-8.78176 -0.90326,-3.83195 -3.22335,-6.71541 -6.84888,-8.51193 -3.50253,-1.73557 -4.36819,-1.81169 -20.72341,-1.82221 -7.89451,-0.005 -14.35365,0.0651 -14.35365,0.15585 0,0.0908 0.51919,0.62209 1.15376,1.18066 1.37097,1.20678 2.18116,2.94158 2.54316,5.44552 0.40837,2.82461 0.35069,43.70795 -0.0628,44.51193 -0.52997,1.0305 -1.14184,1.28108 -1.98276,0.81201 -0.55626,-0.31028 -1.05534,-1.17362 -2.14128,-3.70416 -1.7785,-4.14442 -8.32028,-20.04742 -14.81808,-36.02261 l -4.9851,-12.25614 -7.18366,-0.0704 c -3.95101,-0.0387 -7.18366,0.006 -7.18366,0.0989 0,0.0931 0.5316,0.63726 1.18132,1.20917 1.37514,1.21045 1.70924,2.32251 1.20572,4.01333 -0.79981,2.68578 -15.54637,39.98572 -16.70027,42.24167 -1.48697,2.90709 -2.8702,4.72234 -4.26662,5.59917 -1.95925,1.23023 -1.66379,1.28 7.59965,1.28 5.04717,0 8.59895,-0.10038 8.59895,-0.24301 z"
       inkscape:connector-curvature="0" />
    <path
       style="fill:#fdca00;fill-opacity:1;stroke-width:0.26458335"
       d="m -160.33141,226.46173 c 1.70783,-2.60711 2.20975,-4.6672 2.17829,-8.94067 l -0.0268,-3.63802 h 0.97234 c 3.11622,0 9.43359,-1.62559 12.48324,-3.21219 5.46567,-2.84356 6.13073,-6.95536 1.673,-10.3435 -2.18047,-1.65728 -8.7437,-3.86167 -9.43609,-3.16928 -0.42404,0.42404 -0.0534,0.77192 1.03888,0.975 4.03945,0.75104 7.4774,3.16709 7.4774,5.2548 0,0.98022 -1.40853,2.45971 -3.20521,3.36667 -2.4281,1.2257 -6.90942,2.26113 -10.52229,2.43123 l -1.42437,0.0671 -0.76591,-2.91042 c -1.54267,-5.86198 -1.86761,-7.96177 -1.74011,-11.24479 0.13258,-3.41423 0.63659,-5.11518 2.20722,-7.44913 0.50197,-0.74592 0.86876,-1.40015 0.81508,-1.45382 -0.0537,-0.0537 -0.86052,0.28854 -1.79298,0.7605 -2.23707,1.13227 -5.1895,4.05437 -6.20038,6.13669 -0.61207,1.26081 -0.78185,2.01739 -0.87096,3.88112 -0.12992,2.71734 0.30873,4.98533 1.83532,9.48932 0.5649,1.66666 1.02709,3.03755 1.02709,3.0464 0,0.009 -1.33738,-0.0688 -2.97196,-0.17251 -6.90418,-0.43815 -12.94065,-2.08129 -14.92083,-4.06147 -0.94494,-0.94495 -0.86504,-2.48043 0.19171,-3.684 0.95033,-1.08236 3.85091,-2.58701 6.324,-3.28051 1.17469,-0.3294 1.7481,-0.62768 1.80913,-0.94107 0.0786,-0.40345 -0.0651,-0.43721 -1.19063,-0.27975 -1.82143,0.25481 -5.79728,1.60847 -7.35986,2.50581 -1.5755,0.90476 -3.43467,2.74511 -3.82661,3.78787 -0.76076,2.02405 0.0459,4.57903 1.92777,6.10578 3.49902,2.83876 10.84615,4.65072 18.8816,4.6566 l 2.96536,0.002 0.52795,1.78594 c 0.86655,2.93131 1.06869,4.06979 1.07549,6.05754 0.007,2.0179 -0.72087,4.89065 -1.6069,6.34296 -1.52423,2.4984 0.70181,0.79793 2.451,-1.87232 z"
       id="path4529"
       inkscape:connector-curvature="0" />
  </g>
</svg>
