<svg width="745" height="110" viewBox="0 0 745 110" fill="none" xmlns="http://www.w3.org/2000/svg">
<path fill-rule="evenodd" clip-rule="evenodd" d="M0.000366211 109.815V0.651001H107.924L0.000366211 109.815Z" fill="#2B74E7"/>
<path fill-rule="evenodd" clip-rule="evenodd" d="M21.5834 109.816L64.7561 66.1513L107.925 109.816H21.5834Z" fill="#2B74E7"/>
<path fill-rule="evenodd" clip-rule="evenodd" d="M255.11 102.551L226.381 64.152L218.948 73.0675V102.551H198.794V6.62875H218.948V49.4854L252.549 6.62875H277.439L239.751 51.6392L279.996 102.551H255.11Z" fill="#202832"/>
<path fill-rule="evenodd" clip-rule="evenodd" d="M344.065 27.0504L329.277 68.5502H358.852L344.065 27.0504ZM370.227 102.551L364.402 85.5533H323.725L317.751 102.551H294.716L331.404 6.62904H356.722L393.271 102.551H370.227Z" fill="#202832"/>
<path fill-rule="evenodd" clip-rule="evenodd" d="M407.677 94.9262L416.491 79.2534C420.182 82.846 425.022 86.1518 431.563 86.1518C440.516 86.1518 446.125 80.114 446.125 70.7659L446.089 6.62656H466.496V71.0527C466.496 93.7742 452.599 104.274 433.12 104.274C423.599 104.274 414.501 101.683 407.677 94.9262Z" fill="#202832"/>
<path fill-rule="evenodd" clip-rule="evenodd" d="M538.534 27.0504L523.741 67.339H553.322L538.534 27.0504ZM564.699 102.551L558.87 86.7645H518.188L512.219 102.551H489.179L525.868 6.62904H551.19L587.743 102.551H564.699Z" fill="#202832"/>
<path fill-rule="evenodd" clip-rule="evenodd" d="M669.538 73.7896C669.538 67.7518 665.275 62.4835 657.307 62.4835H630.959V84.3353H657.307C664.987 84.3353 669.538 80.6926 669.538 73.7896ZM667.692 34.6704C667.692 28.628 663.425 24.8396 656.6 24.8396H630.959V45.4802H656.6C663.425 45.4802 667.692 40.7082 667.692 34.6704ZM610.548 102.549V6.62656H661.003C679.063 6.62656 688.31 18.2787 688.31 31.0738C688.31 43.154 680.913 51.209 671.955 53.0804C682.048 54.6605 690.155 64.5869 690.155 76.6671C690.155 91.0467 680.63 102.549 662.569 102.549H610.548Z" fill="#202832"/>
<path fill-rule="evenodd" clip-rule="evenodd" d="M724.846 102.551H745V6.62904H724.846V102.551Z" fill="#202832"/>
</svg>
