<?xml version="1.0" encoding="UTF-8" standalone="no"?>
<!-- Created with Inkscape (http://www.inkscape.org/) -->

<svg
   xmlns:dc="http://purl.org/dc/elements/1.1/"
   xmlns:cc="http://creativecommons.org/ns#"
   xmlns:rdf="http://www.w3.org/1999/02/22-rdf-syntax-ns#"
   xmlns:svg="http://www.w3.org/2000/svg"
   xmlns="http://www.w3.org/2000/svg"
   xmlns:sodipodi="http://sodipodi.sourceforge.net/DTD/sodipodi-0.dtd"
   xmlns:inkscape="http://www.inkscape.org/namespaces/inkscape"
   width="520"
   height="180"
   viewBox="0 0 137.58332 47.625003"
   version="1.1"
   id="svg8"
   inkscape:version="0.92.3 (2405546, 2018-03-11)"
   sodipodi:docname="mcamc-bkg-large.svg"
   inkscape:export-filename="D:\Downloads\mcamc-bkg-large.png"
   inkscape:export-xdpi="960"
   inkscape:export-ydpi="960">
  <defs
     id="defs2" />
  <sodipodi:namedview
     id="base"
     pagecolor="#000000"
     bordercolor="#666666"
     borderopacity="1.0"
     inkscape:pageopacity="0"
     inkscape:pageshadow="2"
     inkscape:zoom="1.4"
     inkscape:cx="259.0565"
     inkscape:cy="68.572563"
     inkscape:document-units="px"
     inkscape:current-layer="layer1"
     showgrid="true"
     units="px"
     inkscape:window-width="1920"
     inkscape:window-height="1017"
     inkscape:window-x="-8"
     inkscape:window-y="-8"
     inkscape:window-maximized="1">
    <inkscape:grid
       type="xygrid"
       id="grid3843"
       spacingx="1.3229167"
       spacingy="1.3229167"
       enabled="false" />
    <inkscape:grid
       type="axonomgrid"
       id="grid4654"
       units="mm"
       empspacing="6"
       spacingy="2.5"
       enabled="false" />
  </sodipodi:namedview>
  <metadata
     id="metadata5">
    <rdf:RDF>
      <cc:Work
         rdf:about="">
        <dc:format>image/svg+xml</dc:format>
        <dc:type
           rdf:resource="http://purl.org/dc/dcmitype/StillImage" />
        <dc:title></dc:title>
      </cc:Work>
    </rdf:RDF>
  </metadata>
  <g
     inkscape:label="Layer 1"
     inkscape:groupmode="layer"
     id="layer1"
     transform="translate(0,-249.37499)">
    <path
       inkscape:connector-curvature="0"
       id="path919"
       d="m 28.519944,268.96967 c 0.749343,-0.0226 1.680792,0.20832 1.928177,1.01518 0.273427,1.25849 -0.298571,2.79748 -1.532754,3.32312 -0.975911,0.40694 -2.023229,-0.31472 -2.420173,-1.20101 -0.39556,-0.81063 -0.629208,-1.9453 0.05377,-2.66657 0.529333,-0.48693 1.297622,-0.47542 1.970984,-0.47072 z"
       style="opacity:1;fill:#f8ba05;fill-opacity:1;fill-rule:nonzero;stroke:#f8ba05;stroke-width:1.58749998;stroke-linecap:round;stroke-linejoin:round;stroke-miterlimit:4;stroke-dasharray:none;stroke-dashoffset:0;stroke-opacity:1"
       inkscape:export-xdpi="960"
       inkscape:export-ydpi="960" />
    <path
       style="opacity:1;fill:#f8ba05;fill-opacity:1;fill-rule:nonzero;stroke:#f8ba05;stroke-width:6;stroke-linecap:round;stroke-linejoin:round;stroke-miterlimit:4;stroke-dasharray:none;stroke-dashoffset:0;stroke-opacity:1"
       d="m 124.17318,148.87564 c -2.2382,0.19371 -4.70476,-0.2391 -6.78252,0.74381 -2.94623,1.81062 -2.15531,7.19563 1.38107,7.68416 4.58037,0.28565 9.22609,0.21385 13.78748,0.09 1.6082,-0.908 3.12591,-2.68031 2.69359,-4.68748 -0.099,-2.09274 -1.95036,-3.83318 -4.06428,-3.65391 -2.33318,-0.181 -4.67647,-0.19257 -7.01534,-0.17658 z"
       id="path898"
       inkscape:connector-curvature="0"
       transform="matrix(0.26458333,0,0,0.26458333,0,249.37499)"
       inkscape:export-xdpi="960"
       inkscape:export-ydpi="960" />
    <path
       style="opacity:1;fill:#f8ba05;fill-opacity:1;fill-rule:nonzero;stroke:#f8ba05;stroke-width:6;stroke-linecap:round;stroke-linejoin:round;stroke-miterlimit:4;stroke-dasharray:none;stroke-dashoffset:0;stroke-opacity:1"
       d="m 87.302616,148.87564 c -2.238208,0.19371 -4.704766,-0.2391 -6.782523,0.74381 -2.946229,1.81062 -2.155308,7.19563 1.381068,7.68416 4.580369,0.28565 9.22609,0.21385 13.787484,0.09 1.603293,-0.95362 3.246654,-2.79048 2.697535,-4.84531 -0.167787,-2.03151 -2.007529,-3.67558 -4.068232,-3.49608 -2.333173,-0.181 -4.676461,-0.19257 -7.015332,-0.17658 z"
       id="path896"
       inkscape:connector-curvature="0"
       transform="matrix(0.26458333,0,0,0.26458333,0,249.37499)"
       inkscape:export-xdpi="960"
       inkscape:export-ydpi="960" />
    <path
       style="opacity:1;fill:#f8ba05;fill-opacity:1;fill-rule:nonzero;stroke:#f8ba05;stroke-width:6;stroke-linecap:round;stroke-linejoin:round;stroke-miterlimit:4;stroke-dasharray:none;stroke-dashoffset:0;stroke-opacity:1"
       d="m 175.58442,89.433001 c -1.30384,-0.07252 -3.25921,0.374273 -2.59748,2.098668 1.05268,7.795816 0.64132,15.819491 0.21753,23.654691 0.56316,1.73513 2.47009,0.18832 3.55781,-0.25983 5.68635,-3.2157 10.96042,-7.57631 14.39073,-13.20005 1.51037,-2.493382 2.23674,-6.167169 -0.24268,-8.321429 -4.08523,-3.598556 -10.17585,-3.814078 -15.32591,-3.97205 z"
       id="path900"
       inkscape:connector-curvature="0"
       transform="matrix(0.26458333,0,0,0.26458333,0,249.37499)"
       inkscape:export-xdpi="960"
       inkscape:export-ydpi="960" />
    <path
       style="opacity:1;fill:#f8ba05;fill-opacity:1;fill-rule:nonzero;stroke:#f8ba05;stroke-width:1.99999999;stroke-linecap:round;stroke-linejoin:round;stroke-miterlimit:4;stroke-dasharray:none;stroke-dashoffset:0;stroke-opacity:1"
       d="M 106.4383,22.448247 C 94.708951,22.426598 83.106847,26.603667 73.967431,33.930896 60.922735,44.346332 52.565496,59.629262 47.910007,75.449491 c -2.95997,10.184967 -4.575939,20.805069 -4.10584,31.426229 0.1839,10.16134 2.6053,20.79453 9.421127,28.63961 1.096171,1.04465 1.942027,2.87793 3.59518,3.01069 1.680315,-0.63474 1.146335,-2.88917 1.653336,-4.27391 0.619702,-2.42193 0.709399,-5.07827 1.883678,-7.30388 0.792643,-0.71039 2.312579,-0.71694 2.372478,-2.09725 0.422924,-2.16191 1.53972,-4.29563 1.446668,-6.48559 -0.986463,-1.02872 -0.978731,-2.43425 -0.361993,-3.64026 1.226129,-3.96731 3.447338,-7.60186 4.60779,-11.62646 0.925063,-3.189787 -0.981574,-6.243281 -3.149353,-8.421986 -4.939514,-5.581373 -7.770513,-13.057363 -7.37685,-20.437404 -0.0074,-10.152502 6.19542,-20.025488 15.09606,-24.934193 9.501391,-5.404422 21.911509,-4.759798 30.916032,1.416787 1.31781,0.98875 3.14401,2.093155 4.69382,0.873812 3.8453,-2.422573 7.91448,-4.629965 12.43257,-5.47988 3.49349,-0.587363 7.08937,-0.421217 10.60068,-0.141067 9.27127,1.613843 17.65518,7.84754 21.64175,16.429516 4.88628,9.763054 3.52273,22.197574 -3.33077,30.691947 -1.85391,2.457209 -4.6853,4.72012 -4.51362,8.113368 -0.17828,3.29843 2.00135,6.10147 3.0349,9.10123 3.62165,8.85136 6.16575,18.04128 7.6812,27.46599 0.7683,1.50243 2.51079,0.31504 3.19619,-0.61803 7.84721,-8.10454 10.80325,-19.73727 10.87638,-30.75536 0.36231,-9.747835 -1.06139,-19.476048 -3.61853,-28.867934 -1.69391,-6.485363 -4.05481,-12.785513 -7.0063,-18.799658 -0.89428,-1.436046 1.34375,-2.886016 -0.0982,-4.151338 -1.30416,-1.59913 -2.01139,-4.017334 -4.00751,-4.893179 -1.6837,-0.180999 -2.40705,-2.150948 -3.46543,-3.246909 -8.22587,-11.246788 -20.19169,-20.250566 -34.06409,-22.905521 -3.78876,-0.764809 -7.65844,-1.124502 -11.52305,-1.090614 z"
       id="path890"
       inkscape:connector-curvature="0"
       transform="matrix(0.26458333,0,0,0.26458333,0,249.37499)"
       inkscape:export-xdpi="960"
       inkscape:export-ydpi="960" />
    <path
       style="opacity:1;fill:#ffffff;fill-opacity:0.97959185;fill-rule:nonzero;stroke:#ffffff;stroke-width:6;stroke-linecap:round;stroke-linejoin:round;stroke-miterlimit:4;stroke-dasharray:none;stroke-dashoffset:0;stroke-opacity:1"
       d="m 87.179799,49.251816 c -7.852543,-0.325458 -15.487971,3.684364 -20.265711,9.814524 -6.061357,7.500847 -7.312695,18.435405 -3.106396,27.112767 1.502874,3.509656 4.366401,6.108465 6.493978,9.196431 2.202218,3.348772 2.465434,7.775292 0.618522,11.338572 -2.06915,4.72967 -4.384121,9.54152 -5.102262,14.65628 -0.575118,1.87373 -0.852648,4.00667 -1.906165,5.64394 -1.214099,0.55699 -0.518604,2.15114 -1.020189,3.16681 -0.733468,3.86688 -1.903366,7.75596 -1.811987,11.71271 0.868579,1.58305 2.965607,1.95678 4.430123,2.8442 3.450248,1.53061 7.000761,3.11814 10.68403,3.84811 1.682746,-0.89147 2.876962,-3.07967 5.106097,-2.94692 4.91507,-0.2968 10.005355,-0.0841 14.997968,-0.15067 2.675394,1.03526 4.805293,3.29768 5.723743,5.9843 1.28508,0.97359 3.24661,0.21534 4.80591,0.45543 1.6957,-0.23439 3.75944,0.51419 5.20155,-0.46546 0.92053,-2.61493 2.96356,-5.17655 5.76463,-5.83616 5.08636,-0.21962 10.19882,-0.21206 15.28546,-0.002 2.0071,0.22622 3.1776,2.17186 4.86037,2.96584 4.95009,-1.27752 9.79687,-3.1699 14.22303,-5.7408 1.59211,-1.03833 0.4916,-3.19155 0.46956,-4.69908 -1.68733,-10.86327 -4.98741,-21.47373 -9.54466,-31.44643 -1.98839,-3.97869 -1.50279,-9.011678 1.37515,-12.435034 4.05957,-4.463978 7.5294,-9.912781 7.98159,-16.075628 0.40611,-4.660987 0.10548,-9.508592 -2.04645,-13.750013 -3.45043,-7.577856 -10.68659,-13.44489 -18.91915,-14.896742 -4.74414,-0.428398 -9.7481,-0.658898 -14.20369,1.331061 -3.3446,1.075751 -5.86163,3.872084 -9.30209,4.66228 -3.63757,0.729682 -6.23413,-2.470414 -9.304016,-3.756784 -3.565947,-1.881618 -7.465303,-2.710313 -11.488945,-2.531514 z m -2.87558,13.532493 c 3.372729,-0.02508 6.587457,3.312497 5.91393,6.703605 -0.497455,1.553602 -2.645567,1.375586 -3.218874,-0.0148 -0.217968,-1.156747 -0.462284,-2.56961 -1.819557,-2.932796 -1.621832,-0.734727 -3.474267,0.464901 -3.647499,2.203789 0.128244,1.686124 -2.331366,2.487052 -3.218875,1.129516 -1.009861,-3.133237 1.761783,-6.729482 4.965926,-7.032595 0.339404,-0.04592 0.682574,-0.06463 1.024949,-0.05672 z m 45.872661,0.0059 c 3.37745,0.01391 6.57916,3.731614 5.53562,7.051831 -0.793,1.239365 -2.93036,0.899654 -3.11776,-0.631839 -0.0379,-1.81733 -1.81916,-3.490618 -3.64503,-2.70344 -1.37317,0.339721 -1.79141,1.711321 -1.95619,2.923425 -0.42007,1.385836 -2.35308,1.579782 -3.05068,0.325044 -0.82684,-1.681848 0.31036,-3.79245 1.45308,-5.083316 1.20351,-1.39788 2.99356,-1.901034 4.78096,-1.881705 z m -23.15705,7.759628 c 4.11637,-0.175406 8.9921,1.101327 10.89366,5.141025 1.80254,4.132799 0.67323,8.987466 -1.38156,12.810391 -2.49435,4.613054 -8.54396,7.391582 -13.48218,5.031527 -5.841982,-2.619422 -8.656969,-9.700295 -7.638589,-15.790174 0.73846,-4.408388 5.229259,-7.001132 9.418029,-7.114767 0.7287,-0.05668 1.45996,-0.07435 2.19064,-0.078 z"
       id="path892"
       inkscape:connector-curvature="0"
       transform="matrix(0.26458333,0,0,0.26458333,0,249.37499)"
       inkscape:export-xdpi="960"
       inkscape:export-ydpi="960" />
    <path
       style="opacity:1;fill:#f8ba05;fill-opacity:1;fill-rule:nonzero;stroke:#f8ba05;stroke-width:5.99999997;stroke-linecap:round;stroke-linejoin:round;stroke-miterlimit:4;stroke-dasharray:none;stroke-dashoffset:0;stroke-opacity:1"
       d="m 37.264553,89.426096 c -5.031339,0.305816 -10.77146,0.634422 -14.581118,4.376999 -2.324797,2.41431 -0.992341,6.090986 0.5544,8.543875 3.803401,5.89704 9.50533,10.49569 15.825559,13.46739 1.17769,0.64946 2.079038,-0.7721 1.690328,-1.84077 -0.810583,-7.7279 -0.578654,-15.515841 0.275227,-23.194541 -0.316832,-1.658924 -2.539821,-1.289528 -3.764396,-1.352953 z"
       id="path888"
       inkscape:connector-curvature="0"
       transform="matrix(0.26458333,0,0,0.26458333,0,249.37499)"
       inkscape:export-xdpi="960"
       inkscape:export-ydpi="960" />
    <g
       id="g3837"
       transform="matrix(0.09301812,0,0,0.09301812,4.4979152,249.37499)"
       inkscape:export-filename="C:\Users\sung\Downloads\logo2.png"
       inkscape:export-xdpi="960"
       inkscape:export-ydpi="960"
       style="fill:#000000;fill-opacity:1">
      <g
         id="g3776"
         style="fill:#000000;fill-opacity:1">
        <g
           id="g3774"
           style="fill:#000000;fill-opacity:1">
          <g
             id="g3772"
             style="fill:#000000;fill-opacity:1">
            <path
               id="path3764"
               d="m 510.434,266.914 c -7.35,-20.195 -38.601,-26.742 -67.027,-24.635 -5.223,-28.002 -14.299,-56.088 -26.838,-81.087 -1.857,-3.702 -6.363,-5.198 -10.067,-3.341 -3.702,1.857 -5.198,6.364 -3.341,10.066 26.72,53.267 37.018,120.914 26.4,168.998 -0.037,0.149 -0.067,0.3 -0.094,0.452 -0.741,3.306 -1.578,6.523 -2.519,9.631 -5.672,18.725 -15.005,33.734 -28.432,45.747 -5.46,-34.677 -15.362,-67.262 -28.919,-94.908 -3.852,-7.853 -2.246,-17.375 3.995,-23.691 16.634,-16.839 25.474,-39.155 24.89,-62.839 -0.544,-22.06 -9.501,-42.903 -25.224,-58.69 -15.724,-15.788 -36.528,-24.831 -58.585,-25.463 -19.799,-0.563 -38.598,5.4 -54.37,17.26 -2.533,1.906 -6.073,1.906 -8.608,-10e-4 -15.771,-11.858 -34.569,-17.824 -54.37,-17.26 -22.057,0.632 -42.862,9.675 -58.585,25.463 -15.722,15.788 -24.679,36.63 -25.223,58.69 -0.584,23.684 8.255,46.001 24.889,62.839 6.24,6.317 7.846,15.838 3.995,23.69 -4.726,9.637 -9.074,20.054 -12.924,30.959 -1.379,3.906 0.67,8.19 4.576,9.569 3.906,1.378 8.19,-0.67 9.569,-4.576 3.656,-10.357 7.776,-20.232 12.247,-29.347 6.657,-13.575 3.928,-29.987 -6.792,-40.837 -13.743,-13.912 -21.047,-32.354 -20.565,-51.927 0.449,-18.205 7.855,-35.419 20.856,-48.475 13,-13.055 30.184,-20.532 48.385,-21.054 16.368,-0.474 31.899,4.46 44.925,14.253 7.842,5.897 18.797,5.897 26.639,0 13.026,-9.794 28.569,-14.728 44.926,-14.255 18.201,0.521 35.385,7.998 48.386,21.054 13.001,13.054 20.408,30.27 20.856,48.475 0.482,19.573 -6.82,38.014 -20.564,51.927 -10.72,10.85 -13.449,27.262 -6.792,40.837 13.727,27.989 23.858,62.843 28.733,98.6 -11.457,7.272 -25.006,12.936 -41.025,17.158 -4.577,-5.721 -11.61,-9.395 -19.49,-9.395 H 292.51 c -11.528,0 -21.252,7.859 -24.105,18.5 -8.142,0.172 -16.674,0.172 -24.816,0 -2.854,-10.64 -12.576,-18.5 -24.105,-18.5 H 187.65 c -7.879,0 -14.913,3.674 -19.49,9.394 -16.024,-4.223 -29.575,-9.889 -41.035,-17.165 1.703,-12.51 4.043,-24.956 6.981,-37.059 0.977,-4.025 -1.495,-8.08 -5.52,-9.057 -4.027,-0.977 -8.081,1.494 -9.057,5.52 -2.409,9.93 -4.427,20.082 -6.045,30.309 -13.429,-12.013 -22.763,-27.024 -28.435,-45.75 -0.954,-3.152 -1.806,-6.451 -2.56,-9.874 -0.006,-0.028 -0.012,-0.055 -0.019,-0.083 -5.185,-23.6 -5.574,-53.297 -0.648,-84.407 0.127,-0.412 0.228,-0.837 0.284,-1.28 0.034,-0.271 0.052,-0.541 0.057,-0.809 6.677,-40.303 22.258,-82.788 47.879,-117.319 22.659,-30.538 62.903,-66.94 125.957,-66.94 66.646,0 108.075,40.333 131.094,74.17 2.329,3.424 6.992,4.313 10.42,1.983 3.425,-2.33 4.313,-6.995 1.982,-10.42 -35.93,-52.815 -85.551,-80.733 -143.496,-80.733 -54.848,0 -102.569,25.244 -138.004,73.003 -23.483,31.649 -40.987,73.105 -49.288,116.729 -0.079,0.418 -0.152,0.835 -0.23,1.252 -28.397,-2.08 -59.574,4.475 -66.914,24.643 -4.701,12.917 1.284,29.143 16.853,45.688 12.61,13.401 29.725,25.105 44.664,30.541 1.937,0.705 3.896,1.311 5.858,1.832 0.547,2.172 1.129,4.301 1.757,6.372 12.839,42.388 42.995,69.563 92.049,82.922 -0.029,0.495 -0.049,0.993 -0.049,1.495 0,13.761 11.195,24.958 24.958,24.958 h 31.834 c 10.767,0 19.963,-6.854 23.455,-16.428 4.276,0.093 8.641,0.145 13.058,0.145 4.417,0 8.781,-0.051 13.058,-0.145 3.492,9.573 12.687,16.428 23.455,16.428 h 31.834 c 13.763,0 24.958,-11.195 24.958,-24.958 0,-0.502 -0.019,-1 -0.049,-1.494 49.054,-13.358 79.21,-40.532 92.049,-82.922 0.629,-2.076 1.201,-4.21 1.747,-6.369 1.965,-0.521 3.927,-1.128 5.868,-1.834 14.938,-5.438 32.052,-17.141 44.663,-30.541 15.567,-16.541 21.552,-32.767 16.851,-45.684 z M 65.622,328.037 C 53.502,323.017 39.539,313.164 29.338,302.322 18.185,290.47 13.07,279.15 15.656,272.044 c 3.749,-10.303 25.568,-16.499 50.427,-14.912 -3.414,25.118 -3.553,49.587 -0.461,70.905 z m 163.784,108.225 c -0.003,0.061 0.001,0.122 0,0.183 -0.352,5.173 -4.661,9.276 -9.922,9.276 H 187.65 c -5.49,0 -9.957,-4.466 -9.957,-9.957 0,-5.49 4.466,-9.957 9.957,-9.957 h 31.834 c 5.478,0 9.934,4.447 9.955,9.92 z m 94.938,9.459 H 292.51 c -5.261,0 -9.571,-4.105 -9.922,-9.279 -0.002,-0.065 0.003,-0.128 0,-0.193 l -0.034,-0.485 c 0,-5.49 4.466,-9.957 9.956,-9.957 h 31.834 c 5.49,0 9.957,4.467 9.957,9.957 0.001,5.491 -4.466,9.957 -9.957,9.957 z M 446.38,328.038 c 3.152,-21.611 2.867,-45.991 -0.565,-70.899 24.899,-1.607 46.769,4.589 50.523,14.906 5.572,15.308 -24.336,45.423 -49.958,55.993 z"
               inkscape:connector-curvature="0"
               style="fill:#000000;fill-opacity:1" />
            <path
               id="path3766"
               d="m 315.755,196.002 c 0,-2.828 2.301,-5.128 5.128,-5.128 2.827,0 5.128,2.301 5.128,5.128 0,4.142 3.357,7.5 7.5,7.5 4.143,0 7.5,-3.358 7.5,-7.5 0,-11.099 -9.029,-20.129 -20.129,-20.129 -11.099,0 -20.129,9.03 -20.129,20.129 0,4.142 3.357,7.5 7.5,7.5 4.144,10e-4 7.502,-3.358 7.502,-7.5 z"
               inkscape:connector-curvature="0"
               style="fill:#000000;fill-opacity:1" />
            <path
               id="path3768"
               d="m 255.997,271.205 c 15.207,0 32.361,-12.622 35.726,-36.748 1.524,-10.93 -0.507,-19.694 -6.037,-26.049 -6.079,-6.985 -16.068,-10.527 -29.688,-10.527 -13.622,0 -23.61,3.542 -29.689,10.527 -5.53,6.355 -7.561,15.12 -6.038,26.049 3.364,24.125 20.518,36.748 35.726,36.748 z m -18.373,-52.95 c 3.103,-3.566 9.284,-5.374 18.373,-5.374 9.089,0 15.27,1.808 18.373,5.374 2.555,2.936 3.395,7.689 2.497,14.13 -2.158,15.471 -12.363,23.82 -20.87,23.82 -8.507,0 -18.712,-8.348 -20.87,-23.819 -0.898,-6.442 -0.058,-11.196 2.497,-14.131 z"
               inkscape:connector-curvature="0"
               style="fill:#000000;fill-opacity:1" />
            <path
               id="path3770"
               d="m 185.982,196.002 c 0,-2.828 2.301,-5.128 5.128,-5.128 2.828,0 5.128,2.301 5.128,5.128 0,4.142 3.358,7.5 7.5,7.5 4.142,0 7.5,-3.358 7.5,-7.5 0,-11.099 -9.03,-20.129 -20.129,-20.129 -11.099,0 -20.129,9.03 -20.129,20.129 0,4.142 3.358,7.5 7.5,7.5 4.142,0 7.502,-3.358 7.502,-7.5 z"
               inkscape:connector-curvature="0"
               style="fill:#000000;fill-opacity:1" />
          </g>
        </g>
      </g>
      <g
         id="g3778"
         style="fill:#000000;fill-opacity:1" />
      <g
         id="g3780"
         style="fill:#000000;fill-opacity:1" />
      <g
         id="g3782"
         style="fill:#000000;fill-opacity:1" />
      <g
         id="g3784"
         style="fill:#000000;fill-opacity:1" />
      <g
         id="g3786"
         style="fill:#000000;fill-opacity:1" />
      <g
         id="g3788"
         style="fill:#000000;fill-opacity:1" />
      <g
         id="g3790"
         style="fill:#000000;fill-opacity:1" />
      <g
         id="g3792"
         style="fill:#000000;fill-opacity:1" />
      <g
         id="g3794"
         style="fill:#000000;fill-opacity:1" />
      <g
         id="g3796"
         style="fill:#000000;fill-opacity:1" />
      <g
         id="g3798"
         style="fill:#000000;fill-opacity:1" />
      <g
         id="g3800"
         style="fill:#000000;fill-opacity:1" />
      <g
         id="g3802"
         style="fill:#000000;fill-opacity:1" />
      <g
         id="g3804"
         style="fill:#000000;fill-opacity:1" />
      <g
         id="g3806"
         style="fill:#000000;fill-opacity:1" />
    </g>
    <text
       xml:space="preserve"
       style="font-style:normal;font-weight:normal;font-size:10.58333302px;line-height:1.25;font-family:sans-serif;letter-spacing:0px;word-spacing:0px;fill:#000000;fill-opacity:1;stroke:none;stroke-width:0.26458332"
       x="66.937653"
       y="271.07483"
       id="text3841"><tspan
         sodipodi:role="line"
         id="tspan3839"
         x="66.937653"
         y="280.4386"
         style="stroke-width:0.26458332" /></text>
    <path
       style="fill:none;stroke:#ffffff;stroke-width:1.58749998;stroke-linecap:round;stroke-linejoin:round;stroke-miterlimit:4;stroke-dasharray:none;stroke-opacity:1"
       d="m 75.173229,276.92202 v -13.22917 l -5.291667,9.26042 -5.291665,-9.26042 1.44e-4,9.26042"
       id="path3845"
       inkscape:connector-curvature="0"
       sodipodi:nodetypes="ccccc"
       inkscape:export-filename="C:\Users\sung\Downloads\logo2.png"
       inkscape:export-xdpi="960"
       inkscape:export-ydpi="960" />
    <path
       style="fill:none;stroke:#f8ba05;stroke-width:1.58749998;stroke-linecap:round;stroke-linejoin:round;stroke-miterlimit:4;stroke-dasharray:none;stroke-opacity:1"
       d="m 130.7358,265.01577 c 0,0 -1.32291,-1.32292 -3.96875,-1.32292 -2.64583,0 -5.29166,2.64583 -5.29166,6.61459 0,1.42969 0.48081,2.57213 0.48081,2.57213"
       id="path3847-3"
       inkscape:connector-curvature="0"
       sodipodi:nodetypes="cssc"
       inkscape:export-filename="C:\Users\sung\Downloads\logo2.png"
       inkscape:export-xdpi="960"
       inkscape:export-ydpi="960" />
    <path
       style="fill:none;stroke:#ffffff;stroke-width:1.58749998;stroke-linecap:round;stroke-linejoin:round;stroke-miterlimit:4;stroke-dasharray:none;stroke-opacity:1"
       d="m 92.371153,276.92202 5.291656,-13.22917 5.291671,13.22917"
       id="path4738"
       inkscape:connector-curvature="0"
       inkscape:export-filename="C:\Users\sung\Downloads\logo2.png"
       inkscape:export-xdpi="960"
       inkscape:export-ydpi="960" />
    <path
       style="fill:none;stroke:#ffffff;stroke-width:1.58749998;stroke-linecap:round;stroke-linejoin:miter;stroke-miterlimit:4;stroke-dasharray:none;stroke-opacity:1"
       d="m 93.694063,274.27619 h 5.291666"
       id="path5285"
       inkscape:connector-curvature="0"
       inkscape:export-filename="C:\Users\sung\Downloads\logo2.png"
       inkscape:export-xdpi="960"
       inkscape:export-ydpi="960" />
    <path
       style="fill:none;stroke:#ffffff;stroke-width:1.58749998;stroke-linecap:round;stroke-linejoin:miter;stroke-miterlimit:4;stroke-dasharray:none;stroke-opacity:1"
       d="m 64.590041,275.5991 v 1.32292"
       id="path5989"
       inkscape:connector-curvature="0"
       sodipodi:nodetypes="cc"
       inkscape:export-filename="C:\Users\sung\Downloads\logo2.png"
       inkscape:export-xdpi="960"
       inkscape:export-ydpi="960" />
    <path
       sodipodi:nodetypes="ccc"
       inkscape:connector-curvature="0"
       id="path6536"
       d="m 123.21264,275.18511 c 0,0 1.57676,1.73691 3.55441,1.73691 2.64584,0 3.96875,-1.32292 3.96875,-1.32292"
       style="fill:none;stroke:#f8ba05;stroke-width:1.58749998;stroke-linecap:round;stroke-linejoin:round;stroke-miterlimit:4;stroke-dasharray:none;stroke-opacity:1"
       inkscape:export-filename="C:\Users\sung\Downloads\logo2.png"
       inkscape:export-xdpi="960"
       inkscape:export-ydpi="960" />
    <path
       sodipodi:nodetypes="cssc"
       inkscape:connector-curvature="0"
       id="path6538"
       d="m 88.402583,265.01577 c 0,0 -1.32291,-1.32292 -3.968747,-1.32292 -2.64583,0 -5.29166,2.64583 -5.29166,6.61459 0,1.42969 0.48081,2.57213 0.48081,2.57213"
       style="fill:none;stroke:#ffffff;stroke-width:1.58749998;stroke-linecap:round;stroke-linejoin:round;stroke-miterlimit:4;stroke-dasharray:none;stroke-opacity:1"
       inkscape:export-filename="C:\Users\sung\Downloads\logo2.png"
       inkscape:export-xdpi="960"
       inkscape:export-ydpi="960" />
    <path
       style="fill:none;stroke:#ffffff;stroke-width:1.58749998;stroke-linecap:round;stroke-linejoin:round;stroke-miterlimit:4;stroke-dasharray:none;stroke-opacity:1"
       d="m 80.879426,275.18511 c 0,0 1.57676,1.73691 3.55441,1.73691 2.645837,0 3.968747,-1.32292 3.968747,-1.32292"
       id="path6540"
       inkscape:connector-curvature="0"
       sodipodi:nodetypes="ccc"
       inkscape:export-filename="C:\Users\sung\Downloads\logo2.png"
       inkscape:export-xdpi="960"
       inkscape:export-ydpi="960" />
    <path
       sodipodi:nodetypes="ccccc"
       inkscape:connector-curvature="0"
       id="path6542"
       d="m 117.50649,276.92202 v -13.22917 l -5.29167,9.26042 -5.29166,-9.26042 1.4e-4,9.26042"
       style="fill:none;stroke:#f8ba05;stroke-width:1.58749998;stroke-linecap:round;stroke-linejoin:round;stroke-miterlimit:4;stroke-dasharray:none;stroke-opacity:1"
       inkscape:export-filename="C:\Users\sung\Downloads\logo2.png"
       inkscape:export-xdpi="960"
       inkscape:export-ydpi="960" />
    <path
       sodipodi:nodetypes="cc"
       inkscape:connector-curvature="0"
       id="path6544"
       d="m 106.9233,275.5991 v 1.32292"
       style="fill:none;stroke:#f8ba05;stroke-width:1.58749998;stroke-linecap:round;stroke-linejoin:miter;stroke-miterlimit:4;stroke-dasharray:none;stroke-opacity:1"
       inkscape:export-filename="C:\Users\sung\Downloads\logo2.png"
       inkscape:export-xdpi="960"
       inkscape:export-ydpi="960" />
    <g
       aria-label="2019"
       style="font-style:normal;font-weight:normal;font-size:10.58333302px;line-height:1.25;font-family:sans-serif;letter-spacing:0px;word-spacing:0px;fill:#ffffff;fill-opacity:1;stroke:none;stroke-width:0.26458332"
       id="text6603"
       transform="translate(-2.5571905,2.6458368)"
       inkscape:export-xdpi="960"
       inkscape:export-ydpi="960">
      <path
         d="m 88.095216,281.65367 c 0.02822,-0.61383 0.373945,-0.98072 0.924278,-0.98072 0.486833,0 0.8255,0.34572 0.8255,0.85372 0,0.41628 -0.119944,0.62089 -0.881944,1.48167 l -1.474611,1.67922 h 2.808111 v -0.47978 h -1.735667 l 1.171222,-1.3335 c 0.402167,-0.45861 0.627945,-0.93839 0.627945,-1.35466 0,-0.81139 -0.557389,-1.36878 -1.375834,-1.36878 -0.366888,0 -0.733777,0.15522 -0.987777,0.42333 -0.268111,0.27517 -0.388056,0.59972 -0.402167,1.0795 z"
         style="font-style:normal;font-variant:normal;font-weight:normal;font-stretch:normal;font-size:7.05555534px;font-family:'Tw Cen MT Std';-inkscape-font-specification:'Tw Cen MT Std';letter-spacing:3.92112494px;fill:#ffffff;fill-opacity:1;stroke-width:0.26458332"
         id="path5334"
         inkscape:connector-curvature="0" />
      <path
         d="m 96.711881,280.68001 c 0.585611,0 0.881945,0.62794 0.881945,1.8415 0,1.17122 -0.303389,1.79211 -0.896056,1.79211 -0.585611,0 -0.896056,-0.62795 -0.896056,-1.82034 0,-1.19239 0.310445,-1.81327 0.910167,-1.81327 z m 0.0071,-0.51506 h -0.02117 c -0.874889,0 -1.411111,0.86078 -1.411111,2.26483 0,1.55223 0.493889,2.39184 1.411111,2.39184 0.903111,0 1.418167,-0.81845 1.418167,-2.27895 0,-1.54516 -0.472723,-2.3495 -1.397,-2.37772 z"
         style="font-style:normal;font-variant:normal;font-weight:normal;font-stretch:normal;font-size:7.05555534px;font-family:'Tw Cen MT Std';-inkscape-font-specification:'Tw Cen MT Std';letter-spacing:3.92112494px;fill:#ffffff;fill-opacity:1;stroke-width:0.26458332"
         id="path5336"
         inkscape:connector-curvature="0" />
      <path
         d="m 103.37057,280.29901 -0.21872,0.47977 h 0.74789 v 3.90878 h 0.49388 v -4.38855 z"
         style="font-style:normal;font-variant:normal;font-weight:normal;font-stretch:normal;font-size:7.05555534px;font-family:'Tw Cen MT Std';-inkscape-font-specification:'Tw Cen MT Std';letter-spacing:3.92112494px;fill:#ffffff;fill-opacity:1;stroke-width:0.26458332"
         id="path5338"
         inkscape:connector-curvature="0" />
      <path
         d="m 111.24273,280.65884 h 0.0212 c 0.52917,0 0.89606,0.35983 0.89606,0.86783 0,0.52211 -0.35278,0.85372 -0.91722,0.85372 -0.50095,0 -0.889,-0.36688 -0.889,-0.83255 0,-0.52211 0.34572,-0.87489 0.889,-0.889 z m -0.81139,3.88761 0.381,0.30339 0.86078,-1.17828 c 0.65616,-0.90311 0.99483,-1.61572 0.99483,-2.10255 0,-0.8255 -0.58561,-1.42523 -1.397,-1.42523 -0.84667,0 -1.42522,0.59267 -1.42522,1.46756 0,0.66322 0.635,1.25589 1.34761,1.25589 0.16228,0 0.26105,-0.007 0.40922,-0.0494 0.0423,-0.007 0.0494,-0.0141 0.0706,-0.0141 -0.13406,0.20461 -0.1905,0.28928 -0.28928,0.43744 -0.21872,0.31045 -0.46567,0.64911 -0.79728,1.09361 z"
         style="font-style:normal;font-variant:normal;font-weight:normal;font-stretch:normal;font-size:7.05555534px;font-family:'Tw Cen MT Std';-inkscape-font-specification:'Tw Cen MT Std';letter-spacing:3.92112494px;fill:#ffffff;fill-opacity:1;stroke-width:0.26458332"
         id="path5340"
         inkscape:connector-curvature="0" />
    </g>
    <g
       id="g6621"
       style="fill:#ff0707;fill-opacity:1"
       transform="matrix(0.09301812,0,0,0.09301812,5.0249652,240.13908)" />
    <g
       id="g6623"
       style="fill:#ff0707;fill-opacity:1"
       transform="matrix(0.09301812,0,0,0.09301812,5.0249652,240.13908)" />
    <g
       id="g6625"
       style="fill:#ff0707;fill-opacity:1"
       transform="matrix(0.09301812,0,0,0.09301812,5.0249652,240.13908)" />
    <g
       id="g6627"
       style="fill:#ff0707;fill-opacity:1"
       transform="matrix(0.09301812,0,0,0.09301812,5.0249652,240.13908)" />
    <g
       id="g6629"
       style="fill:#ff0707;fill-opacity:1"
       transform="matrix(0.09301812,0,0,0.09301812,5.0249652,240.13908)" />
    <g
       id="g6631"
       style="fill:#ff0707;fill-opacity:1"
       transform="matrix(0.09301812,0,0,0.09301812,5.0249652,240.13908)" />
    <g
       id="g6633"
       style="fill:#ff0707;fill-opacity:1"
       transform="matrix(0.09301812,0,0,0.09301812,5.0249652,240.13908)" />
    <g
       id="g6635"
       style="fill:#ff0707;fill-opacity:1"
       transform="matrix(0.09301812,0,0,0.09301812,5.0249652,240.13908)" />
    <g
       id="g6637"
       style="fill:#ff0707;fill-opacity:1"
       transform="matrix(0.09301812,0,0,0.09301812,5.0249652,240.13908)" />
    <g
       id="g6639"
       style="fill:#ff0707;fill-opacity:1"
       transform="matrix(0.09301812,0,0,0.09301812,5.0249652,240.13908)" />
    <g
       id="g6641"
       style="fill:#ff0707;fill-opacity:1"
       transform="matrix(0.09301812,0,0,0.09301812,5.0249652,240.13908)" />
    <g
       id="g6643"
       style="fill:#ff0707;fill-opacity:1"
       transform="matrix(0.09301812,0,0,0.09301812,5.0249652,240.13908)" />
    <g
       id="g6645"
       style="fill:#ff0707;fill-opacity:1"
       transform="matrix(0.09301812,0,0,0.09301812,5.0249652,240.13908)" />
    <g
       id="g6647"
       style="fill:#ff0707;fill-opacity:1"
       transform="matrix(0.09301812,0,0,0.09301812,5.0249652,240.13908)" />
    <g
       id="g6649"
       style="fill:#ff0707;fill-opacity:1"
       transform="matrix(0.09301812,0,0,0.09301812,5.0249652,240.13908)" />
  </g>
</svg>
