<svg xmlns="http://www.w3.org/2000/svg" viewBox="0 0 400 241"><style>.a{fill:#FF0043;opacity:0.2;}.b{fill:#FFF;}.c{opacity:0.9;}.d{fill:#00C9FF;}.e{fill:#FF0043;}.f{fill:#1A1556;}.g{fill:#FF0043;opacity:0.9;}.h{fill:#00C9FF;opacity:0.9;}</style><circle cx="200" cy="120.5" r="120.1" style="fill:#00C9FF;opacity:0.2"/><g opacity="0.5"><circle cx="88.2" cy="120.5" r="88.2" class="a"/><circle cx="311.8" cy="120.5" r="88.2" class="a"/></g><path d="M250.4 126.2h-98.2c-6.2 0-11.3 5-11.3 11.3v58c0 6.2 5 11.3 11.3 11.3h98.2c6.2 0 11.3-5 11.3-11.3v-58C261.7 131.3 256.6 126.2 250.4 126.2z" class="b"/><g class="c"><rect x="156.4" y="124.5" width="4.3" height="3.6" class="d"/><rect x="190.5" y="124.5" width="4.3" height="3.6" class="d"/><rect x="164.9" y="124.5" width="4.3" height="3.6" class="d"/><rect x="152.5" y="205" width="4.3" height="3.6" class="d"/><path d="M147.3 125.4l1.3 3.3c1.1-0.4 2.3-0.7 3.5-0.7l0-3.6C150.5 124.5 148.9 124.8 147.3 125.4z" class="d"/><rect x="173.5" y="124.5" width="4.3" height="3.6" class="d"/><rect x="182" y="124.5" width="4.3" height="3.6" class="d"/><rect x="169.5" y="205" width="4.3" height="3.6" class="d"/><rect x="186.5" y="205" width="4.3" height="3.6" class="d"/><rect x="178" y="205" width="4.3" height="3.6" class="d"/><path d="M143.5 205.2c1.2 1.1 2.6 2 4.2 2.5l1.2-3.3c-1.1-0.4-2.2-1-3.1-1.8L143.5 205.2z" class="d"/><rect x="161" y="205" width="4.3" height="3.6" class="d"/><path d="M142.7 137.5c0-0.2 0-0.4 0-0.6l-3.5-0.2c0 0.3 0 0.5 0 0.8v3.6h3.6V137.5z" class="d"/><rect x="139.1" y="153.9" width="3.6" height="4.3" class="d"/><rect x="139.1" y="145.4" width="3.6" height="4.3" class="d"/><path d="M258.9 133.2l3.2-1.6c-0.7-1.5-1.7-2.8-3-3.9l-2.4 2.7C257.6 131.2 258.4 132.2 258.9 133.2z" class="d"/><path d="M145.7 130.6l-2.4-2.6c-1.2 1.1-2.2 2.5-2.9 4l3.2 1.5C144.1 132.4 144.8 131.4 145.7 130.6z" class="d"/><rect x="139.1" y="162.4" width="3.6" height="4.3" class="d"/><rect x="139.1" y="187.9" width="3.6" height="4.3" class="d"/><rect x="139.1" y="179.4" width="3.6" height="4.3" class="d"/><rect x="139.1" y="170.9" width="3.6" height="4.3" class="d"/><path d="M142.7 196.3l-3.5 0.3c0.1 1.7 0.6 3.2 1.3 4.7l3.2-1.6C143.1 198.7 142.8 197.5 142.7 196.3z" class="d"/><rect x="259.9" y="145" width="3.6" height="4.3" class="d"/><path d="M254 204.3l1.3 3.3c1.5-0.6 2.9-1.5 4.1-2.6l-2.4-2.6C256.1 203.2 255.1 203.9 254 204.3z" class="d"/><path d="M259 199.5l3.2 1.5c0.7-1.5 1.1-3.1 1.2-4.8l-3.5-0.2C259.8 197.2 259.5 198.4 259 199.5z" class="d"/><polygon points="246.2 205 246.2 208.5 250.5 208.5 250.4 205 " class="d"/><path d="M250.4 124.5h-0.3v3.6h0.3c1.1 0 2.2 0.2 3.3 0.6l1.2-3.3C253.5 124.7 252 124.5 250.4 124.5z" class="d"/><rect x="241.6" y="124.5" width="4.3" height="3.6" class="d"/><rect x="259.9" y="187.6" width="3.6" height="4.3" class="d"/><path d="M263.4 136.4l-3.5 0.3c0 0.3 0 0.6 0 0.8v3.3h3.6v-3.3C263.5 137.1 263.5 136.7 263.4 136.4z" class="d"/><rect x="259.9" y="153.5" width="3.6" height="4.3" class="d"/><rect x="259.9" y="162.1" width="3.6" height="4.3" class="d"/><rect x="259.9" y="170.6" width="3.6" height="4.3" class="d"/><rect x="259.9" y="179.1" width="3.6" height="4.3" class="d"/><rect x="237.6" y="205" width="4.3" height="3.6" class="d"/><rect x="207.5" y="124.5" width="4.3" height="3.6" class="d"/><rect x="212.1" y="205" width="4.3" height="3.6" class="d"/><rect x="216" y="124.5" width="4.3" height="3.6" class="d"/><rect x="199" y="124.5" width="4.3" height="3.6" class="d"/><rect x="203.6" y="205" width="4.3" height="3.6" class="d"/><rect x="195.1" y="205" width="4.3" height="3.6" class="d"/><rect x="229.1" y="205" width="4.3" height="3.6" class="d"/><rect x="220.6" y="205" width="4.3" height="3.6" class="d"/><rect x="233.1" y="124.5" width="4.3" height="3.6" class="d"/><rect x="224.6" y="124.5" width="4.3" height="3.6" class="d"/></g><g class="c"><path d="M243.6 208.5v-3.6h4.3l0 2.9 0 0.6L243.6 208.5zM239.3 208.5h-4.3v-3.6h4.3V208.5zM230.8 208.5h-4.3v-3.6h4.3V208.5zM222.3 208.5h-4.3v-3.6h4.3V208.5zM213.7 208.5h-4.3v-3.6h4.3V208.5zM205.2 208.5h-4.3v-3.6h4.3V208.5zM196.7 208.5h-4.3v-3.6h4.3V208.5zM188.2 208.5h-4.3v-3.6h4.3V208.5zM179.7 208.5h-4.3v-3.6h4.3V208.5zM171.2 208.5h-4.3v-3.6h4.3V208.5zM162.6 208.5h-4.3v-3.6h4.3V208.5zM154.1 208.5h-4.3v-3.6h4.3V208.5zM145.1 207.7c-1.5-0.6-3-1.4-4.2-2.5l2.4-2.6c0.9 0.8 1.9 1.4 3.1 1.8L145.1 207.7zM252.7 207.6l-1.3-3.3c1.1-0.4 2.1-1.1 3-1.9l2.4 2.6C255.6 206.1 254.2 207 252.7 207.6zM137.9 201.3c-0.7-1.5-1.2-3.1-1.3-4.7l3.5-0.3c0.1 1.2 0.4 2.4 1 3.4L137.9 201.3zM259.7 201l-3.2-1.5c0.5-1.1 0.8-2.3 0.9-3.5l3.5 0.2C260.8 197.9 260.4 199.5 259.7 201zM140.1 192.2h-3.6v-4.3h3.6V192.2zM260.9 191.9h-3.6v-4.3h3.6V191.9zM140.1 183.7h-3.6v-4.3h3.6V183.7zM260.9 183.4h-3.6v-4.3h3.6V183.4zM140.1 175.2h-3.6v-4.3h3.6V175.2zM260.9 174.8h-3.6v-4.3h3.6V174.8zM140.1 166.7h-3.6v-4.3h3.6V166.7zM260.9 166.3h-3.6v-4.3h3.6V166.3zM140.1 158.1h-3.6v-4.3h3.6V158.1zM260.9 157.8h-3.6v-4.3h3.6V157.8zM140.1 149.6h-3.6v-4.3h3.6V149.6zM260.9 149.3h-3.6v-4.3h3.6V149.3zM140.1 141.1h-3.6v-3.6c0-0.3 0-0.5 0-0.8l3.5 0.2c0 0.2 0 0.4 0 0.6V141.1zM260.9 140.8h-3.6v-3.3c0-0.3 0-0.6 0-0.8l3.5-0.3c0 0.4 0.1 0.8 0.1 1.2V140.8zM141 133.5l-3.2-1.5c0.7-1.5 1.7-2.8 2.9-4l2.4 2.6C142.2 131.4 141.5 132.4 141 133.5zM256.3 133.2c-0.5-1.1-1.3-2-2.2-2.8l2.4-2.7c1.2 1.1 2.2 2.4 3 3.9L256.3 133.2zM146.1 128.7l-1.3-3.3c1.5-0.6 3.1-0.9 4.8-0.9l0 3.6C148.4 128 147.2 128.2 146.1 128.7zM251.1 128.6c-1-0.4-2.1-0.6-3.3-0.6h-0.3v-3.6h0.3c1.5 0 3 0.3 4.5 0.8L251.1 128.6zM243.2 128h-4.3v-3.6h4.3V128zM234.7 128h-4.3v-3.6h4.3V128zM226.2 128h-4.3v-3.6h4.3V128zM217.7 128h-4.3v-3.6h4.3V128zM209.2 128h-4.3v-3.6h4.3V128zM200.7 128h-4.3v-3.6h4.3V128zM192.1 128h-4.3v-3.6h4.3V128zM183.6 128h-4.3v-3.6h4.3V128zM175.1 128h-4.3v-3.6h4.3V128zM166.6 128h-4.3v-3.6h4.3V128zM158.1 128h-4.3v-3.6h4.3V128z" class="e"/></g><rect x="156.4" y="124.5" width="1.7" height="3.6" class="f"/><rect x="190.5" y="124.5" width="1.7" height="3.6" class="f"/><rect x="164.9" y="124.5" width="1.7" height="3.6" class="f"/><rect x="152.5" y="205" width="1.7" height="3.6" class="f"/><path d="M147.3 125.4l1.1 2.7c0.4 0 0.8-0.1 1.1-0.1l0-3.3C148.8 124.9 148.1 125.1 147.3 125.4z" class="f"/><rect x="173.5" y="124.5" width="1.7" height="3.6" class="f"/><rect x="182" y="124.5" width="1.7" height="3.6" class="f"/><rect x="169.5" y="205" width="1.7" height="3.6" class="f"/><rect x="186.5" y="205" width="1.7" height="3.6" class="f"/><rect x="178" y="205" width="1.7" height="3.6" class="f"/><path d="M143.5 205.2c0.6 0.6 1.3 1 2 1.5l0.8-2.3c-0.5-0.2-1-0.4-1.5-0.7L143.5 205.2z" class="f"/><rect x="161" y="205" width="1.7" height="3.6" class="f"/><path d="M140.1 137.5c0-0.2 0-0.4 0-0.6l-0.9-0.1c0 0.2 0 0.4 0 0.6v3.6h0.9V137.5z" class="f"/><rect x="139.1" y="153.9" width="0.9" height="4.3" class="f"/><rect x="139.1" y="145.4" width="0.9" height="4.3" class="f"/><path d="M257.8 129.2l-1.1 1.2c0.6 0.5 1.1 1.2 1.6 1.8l1.2-0.6C259 130.8 258.5 129.9 257.8 129.2z" class="f"/><path d="M140.4 132l1.1 0.5c0.4-0.7 1-1.3 1.6-1.9l-1.1-1.2C141.3 130.2 140.8 131.1 140.4 132z" class="f"/><rect x="139.1" y="162.4" width="0.9" height="4.3" class="f"/><rect x="139.1" y="188" width="0.9" height="4.3" class="f"/><rect x="139.1" y="179.4" width="0.9" height="4.3" class="f"/><rect x="139.1" y="170.9" width="0.9" height="4.3" class="f"/><path d="M139.2 196.6c0.1 1.3 0.4 2.5 0.9 3.6l1-0.5c-0.5-1-0.8-2.1-0.9-3.2L139.2 196.6z" class="f"/><rect x="259.9" y="145" width="0.9" height="4.3" class="f"/><path d="M254 204.3l0.9 2.2c0.7-0.4 1.4-1 2-1.5l-1.3-1.4C255 203.8 254.5 204.1 254 204.3z" class="f"/><path d="M259 199.5l1 0.5c0.4-1.2 0.7-2.5 0.8-3.7l-1-0.1C259.8 197.3 259.5 198.4 259 199.5z" class="f"/><polygon points="246.2 205 246.2 208.5 247.8 208.5 247.9 207.9 247.8 205 " class="f"/><path d="M250.1 128h0.3c0.3 0 0.6 0 0.8 0l1-2.8c-0.7-0.3-1.4-0.5-2.2-0.6V128z" class="f"/><rect x="241.6" y="124.5" width="1.7" height="3.6" class="f"/><rect x="259.9" y="187.6" width="0.9" height="4.3" class="f"/><path d="M260.8 136.6l-0.9 0.1c0 0.3 0 0.6 0 0.8v3.3h0.9v-3.3C260.9 137.2 260.8 136.9 260.8 136.6z" class="f"/><rect x="259.9" y="153.5" width="0.9" height="4.3" class="f"/><rect x="259.9" y="162.1" width="0.9" height="4.3" class="f"/><rect x="259.9" y="170.6" width="0.9" height="4.3" class="f"/><rect x="259.9" y="179.1" width="0.9" height="4.3" class="f"/><rect x="237.6" y="205" width="1.7" height="3.6" class="f"/><rect x="207.5" y="124.5" width="1.7" height="3.6" class="f"/><rect x="212.1" y="205" width="1.7" height="3.6" class="f"/><rect x="216" y="124.5" width="1.7" height="3.6" class="f"/><rect x="199" y="124.5" width="1.7" height="3.6" class="f"/><rect x="203.6" y="205" width="1.7" height="3.6" class="f"/><rect x="195.1" y="205" width="1.7" height="3.6" class="f"/><rect x="229.1" y="205" width="1.7" height="3.6" class="f"/><rect x="220.6" y="205" width="1.7" height="3.6" class="f"/><rect x="233.1" y="124.5" width="1.7" height="3.6" class="f"/><rect x="224.6" y="124.5" width="1.7" height="3.6" class="f"/><path d="M276.8 59.2H127.2c-9.5 0-17.2 7.7-17.2 17.2v88.3c0 9.5 7.7 17.2 17.2 17.2h149.6c9.5 0 17.2-7.7 17.2-17.2v-88.3C294 66.9 286.3 59.2 276.8 59.2z" class="b"/><g class="c"><rect x="133.6" y="56.5" width="6.5" height="5.4" class="d"/><rect x="185.5" y="56.5" width="6.5" height="5.4" class="d"/><rect x="146.6" y="56.5" width="6.5" height="5.4" class="d"/><rect x="127.6" y="179.1" width="6.5" height="5.4" class="d"/><path d="M119.8 57.9l2 5c1.7-0.7 3.5-1 5.3-1l0-5.4C124.6 56.5 122.1 56.9 119.8 57.9z" class="d"/><rect x="159.6" y="56.5" width="6.5" height="5.4" class="d"/><rect x="172.5" y="56.5" width="6.5" height="5.4" class="d"/><rect x="153.6" y="179.1" width="6.5" height="5.4" class="d"/><rect x="179.5" y="179.1" width="6.5" height="5.4" class="d"/><rect x="166.5" y="179.1" width="6.5" height="5.4" class="d"/><path d="M113.9 179.5c1.9 1.7 4 3 6.4 3.8l1.9-5.1c-1.7-0.6-3.3-1.6-4.7-2.8L113.9 179.5z" class="d"/><rect x="140.6" y="179.1" width="6.5" height="5.4" class="d"/><path d="M112.7 76.3c0-0.3 0-0.6 0-0.9l-5.4-0.3c0 0.4 0 0.8 0 1.2v5.5h5.4V76.3z" class="d"/><rect x="107.3" y="101.3" width="5.4" height="6.5" class="d"/><rect x="107.3" y="88.3" width="5.4" height="6.5" class="d"/><path d="M289.7 69.8l4.8-2.4c-1.1-2.2-2.7-4.2-4.5-5.9l-3.6 4C287.8 66.8 288.9 68.2 289.7 69.8z" class="d"/><path d="M117.2 65.8l-3.7-3.9c-1.8 1.7-3.3 3.8-4.4 6l4.9 2.3C114.8 68.6 115.9 67.1 117.2 65.8z" class="d"/><rect x="107.3" y="114.3" width="5.4" height="6.5" class="d"/><rect x="107.3" y="153.2" width="5.4" height="6.5" class="d"/><rect x="107.3" y="140.2" width="5.4" height="6.5" class="d"/><rect x="107.3" y="127.2" width="5.4" height="6.5" class="d"/><path d="M112.7 165.9l-5.4 0.5c0.2 2.5 0.9 4.9 2 7.2l4.8-2.4C113.4 169.5 112.9 167.7 112.7 165.9z" class="d"/><rect x="291.3" y="87.8" width="5.4" height="6.5" class="d"/><path d="M282.2 178.1l2 5c2.3-0.9 4.4-2.3 6.3-4l-3.7-3.9C285.4 176.4 283.9 177.4 282.2 178.1z" class="d"/><path d="M289.9 170.8l4.9 2.3c1.1-2.3 1.7-4.7 1.8-7.2l-5.4-0.3C291.2 167.3 290.7 169.1 289.9 170.8z" class="d"/><polygon points="270.3 179.1 270.3 184.5 276.9 184.5 276.8 179.1 " class="d"/><path d="M276.8 56.5h-0.5v5.4h0.5c1.7 0 3.4 0.3 5 0.9l1.9-5.1C281.4 56.9 279.1 56.5 276.8 56.5z" class="d"/><rect x="263.4" y="56.5" width="6.5" height="5.4" class="d"/><rect x="291.3" y="152.7" width="5.4" height="6.5" class="d"/><path d="M296.6 74.6l-5.4 0.5c0 0.4 0.1 0.9 0.1 1.3v5h5.4v-5C296.7 75.8 296.7 75.2 296.6 74.6z" class="d"/><rect x="291.3" y="100.8" width="5.4" height="6.5" class="d"/><rect x="291.3" y="113.7" width="5.4" height="6.5" class="d"/><rect x="291.3" y="126.7" width="5.4" height="6.5" class="d"/><rect x="291.3" y="139.7" width="5.4" height="6.5" class="d"/><rect x="257.3" y="179.1" width="6.5" height="5.4" class="d"/><rect x="211.5" y="56.5" width="6.5" height="5.4" class="d"/><rect x="218.4" y="179.1" width="6.5" height="5.4" class="d"/><rect x="224.4" y="56.5" width="6.5" height="5.4" class="d"/><rect x="198.5" y="56.5" width="6.5" height="5.4" class="d"/><rect x="205.4" y="179.1" width="6.5" height="5.4" class="d"/><rect x="192.5" y="179.1" width="6.5" height="5.4" class="d"/><rect x="244.4" y="179.1" width="6.5" height="5.4" class="d"/><rect x="231.4" y="179.1" width="6.5" height="5.4" class="d"/><rect x="250.4" y="56.5" width="6.5" height="5.4" class="d"/><rect x="237.4" y="56.5" width="6.5" height="5.4" class="d"/></g><g class="c"><path d="M266.4 184.5v-5.4h6.5l0.1 4.5 0 0.9L266.4 184.5zM259.9 184.5h-6.5v-5.4h6.5V184.5zM246.9 184.5h-6.5v-5.4h6.5V184.5zM233.9 184.5h-6.5v-5.4h6.5V184.5zM220.9 184.5h-6.5v-5.4h6.5V184.5zM208 184.5h-6.5v-5.4h6.5V184.5zM195 184.5h-6.5v-5.4h6.5V184.5zM182 184.5h-6.5v-5.4h6.5V184.5zM169 184.5h-6.5v-5.4h6.5V184.5zM156.1 184.5h-6.5v-5.4h6.5V184.5zM143.1 184.5h-6.5v-5.4h6.5V184.5zM130.1 184.5h-6.5v-5.4h6.5V184.5zM116.3 183.3c-2.4-0.9-4.5-2.2-6.4-3.8l3.6-4c1.4 1.2 2.9 2.2 4.7 2.8L116.3 183.3zM280.2 183.1l-2-5c1.7-0.7 3.2-1.7 4.6-2.9l3.7 3.9C284.7 180.8 282.6 182.2 280.2 183.1zM105.4 173.6c-1.1-2.3-1.8-4.7-2-7.2l5.4-0.5c0.2 1.8 0.7 3.6 1.5 5.2L105.4 173.6zM290.9 173l-4.9-2.3c0.8-1.7 1.2-3.4 1.3-5.3l5.4 0.3C292.5 168.3 291.9 170.7 290.9 173zM108.7 159.7h-5.4v-6.5h5.4V159.7zM292.7 159.1h-5.4v-6.5h5.4V159.1zM108.7 146.7h-5.4V140.2h5.4V146.7zM292.7 146.2h-5.4v-6.5h5.4V146.2zM108.7 133.7h-5.4v-6.5h5.4V133.7zM292.7 133.2h-5.4v-6.5h5.4V133.2zM108.7 120.7h-5.4v-6.5h5.4V120.7zM292.7 120.2h-5.4v-6.5h5.4V120.2zM108.7 107.8h-5.4v-6.5h5.4V107.8zM292.7 107.3h-5.4v-6.5h5.4V107.3zM108.7 94.8h-5.4v-6.5h5.4V94.8zM292.7 94.3h-5.4v-6.5h5.4V94.3zM108.7 81.8h-5.4v-5.5c0-0.4 0-0.8 0-1.2l5.4 0.3c0 0.3 0 0.6 0 0.9V81.8zM292.7 81.3h-5.4v-5c0-0.4 0-0.9-0.1-1.3l5.4-0.5c0.1 0.6 0.1 1.2 0.1 1.8V81.3zM110.1 70.2l-4.9-2.3c1.1-2.3 2.5-4.3 4.4-6l3.7 3.9C111.9 67.1 110.8 68.6 110.1 70.2zM285.8 69.8c-0.8-1.6-1.9-3.1-3.3-4.3l3.6-4c1.9 1.7 3.4 3.7 4.5 5.9L285.8 69.8zM117.8 62.9l-2-5c2.3-0.9 4.8-1.4 7.3-1.4l0 5.4C121.3 61.9 119.5 62.2 117.8 62.9zM277.8 62.7c-1.6-0.6-3.3-0.9-5-0.9h-0.5v-5.4h0.5c2.3 0 4.6 0.4 6.8 1.2L277.8 62.7zM265.9 61.9h-6.5v-5.4h6.5V61.9zM252.9 61.9h-6.5v-5.4h6.5V61.9zM239.9 61.9h-6.5v-5.4h6.5V61.9zM227 61.9h-6.5v-5.4h6.5V61.9zM214 61.9h-6.5v-5.4h6.5V61.9zM201 61.9h-6.5v-5.4h6.5V61.9zM188 61.9h-6.5v-5.4h6.5V61.9zM175.1 61.9h-6.5v-5.4h6.5V61.9zM162.1 61.9h-6.5v-5.4h6.5V61.9zM149.1 61.9h-6.5v-5.4h6.5V61.9zM136.1 61.9h-6.5v-5.4h6.5V61.9z" class="e"/></g><path d="M195.2 109.2c0 7.6 0 15.1 0 22.6 5.7-3.8 11.3-7.5 17-11.3C206.5 116.7 200.8 112.9 195.2 109.2z" fill="none"/><path d="M205.3 74.5c-1.8 0-3.6 0.1-5.3 0.3 22.9 2.6 40.7 22.1 40.7 45.7s-17.8 43.1-40.7 45.7c1.7 0.2 3.5 0.3 5.3 0.3 25.4 0 46-20.6 46-46S230.7 74.5 205.3 74.5z" class="g"/><path d="M184.6 102.1c0 12.3 0 24.4 0 36.8 3.6-2.4 7.1-4.7 10.6-7.1 0-7.5 0-15.1 0-22.6C191.7 106.8 188.2 104.5 184.6 102.1z" class="g"/><path d="M159.3 120.5c0-23.6 17.8-43.1 40.7-45.7 -1.7-0.2-3.5-0.3-5.3-0.3 -25.4 0-46 20.6-46 46s20.6 46 46 46c1.8 0 3.6-0.1 5.3-0.3C177.1 163.6 159.3 144.1 159.3 120.5z" class="h"/><path d="M195.2 109.2c5.6 3.8 11.3 7.5 17 11.3 -5.7 3.8-11.3 7.5-17 11.3 0 2.4 0 4.7 0 7.1 9.3-6.2 18.4-12.2 27.6-18.4 -9.3-6.2-18.4-12.2-27.6-18.4C195.2 104.5 195.2 106.8 195.2 109.2z" class="h"/><path d="M240.7 120.5c0-23.6-17.8-43.1-40.7-45.7C177.1 77.4 159.3 96.9 159.3 120.5s17.8 43.1 40.7 45.7C222.9 163.6 240.7 144.1 240.7 120.5zM195.2 138.9c0-2.4 0-4.7 0-7.1 -3.5 2.4-7 4.7-10.6 7.1 0-12.3 0-24.4 0-36.8 3.5 2.4 7.1 4.7 10.6 7.1 0-2.4 0-4.7 0-7.1 9.2 6.1 18.3 12.2 27.6 18.4C213.6 126.6 204.5 132.7 195.2 138.9z" class="g"/><path d="M240.7 120.5c0-23.6-17.8-43.1-40.7-45.7C177.1 77.4 159.3 96.9 159.3 120.5s17.8 43.1 40.7 45.7C222.9 163.6 240.7 144.1 240.7 120.5zM195.2 138.9c0-2.4 0-4.7 0-7.1 -3.5 2.4-7 4.7-10.6 7.1 0-12.3 0-24.4 0-36.8 3.5 2.4 7.1 4.7 10.6 7.1 0-2.4 0-4.7 0-7.1 9.2 6.1 18.3 12.2 27.6 18.4C213.6 126.6 204.5 132.7 195.2 138.9z" class="f"/><rect x="133.6" y="56.5" width="2.5" height="5.4" class="f"/><rect x="185.5" y="56.5" width="2.5" height="5.4" class="f"/><rect x="146.6" y="56.5" width="2.5" height="5.4" class="f"/><rect x="127.6" y="179.1" width="2.5" height="5.4" class="f"/><path d="M119.8 57.9l1.6 4.1c0.6-0.1 1.1-0.1 1.7-0.1l0-5C122 57.1 120.9 57.4 119.8 57.9z" class="f"/><rect x="159.6" y="56.5" width="2.5" height="5.4" class="f"/><rect x="172.5" y="56.5" width="2.5" height="5.4" class="f"/><rect x="153.6" y="179.1" width="2.5" height="5.4" class="f"/><rect x="179.5" y="179.1" width="2.5" height="5.4" class="f"/><rect x="166.5" y="179.1" width="2.5" height="5.4" class="f"/><path d="M113.9 179.5c0.9 0.8 2 1.6 3 2.2l1.3-3.5c-0.8-0.3-1.5-0.6-2.2-1.1L113.9 179.5z" class="f"/><rect x="140.6" y="179.1" width="2.5" height="5.4" class="f"/><path d="M108.7 76.3c0-0.3 0-0.6 0-0.9l-1.4-0.1c0 0.3 0 0.6 0 0.9v5.5h1.4V76.3z" class="f"/><rect x="107.3" y="101.3" width="1.4" height="6.5" class="f"/><rect x="107.3" y="88.3" width="1.4" height="6.5" class="f"/><path d="M288.1 63.6l-1.7 1.9c0.9 0.8 1.7 1.8 2.4 2.8l1.8-0.9C289.9 66 289.1 64.8 288.1 63.6z" class="f"/><path d="M109.1 67.9l1.7 0.8c0.7-1.1 1.4-2.1 2.4-2.9l-1.7-1.8C110.6 65.2 109.8 66.5 109.1 67.9z" class="f"/><rect x="107.3" y="114.3" width="1.4" height="6.5" class="f"/><rect x="107.3" y="153.2" width="1.4" height="6.5" class="f"/><rect x="107.3" y="140.2" width="1.4" height="6.5" class="f"/><rect x="107.3" y="127.2" width="1.4" height="6.5" class="f"/><path d="M107.4 166.4c0.2 1.9 0.6 3.8 1.3 5.6l1.6-0.8c-0.8-1.5-1.2-3.2-1.4-4.9L107.4 166.4z" class="f"/><rect x="291.3" y="87.8" width="1.4" height="6.5" class="f"/><path d="M282.2 178.1l1.3 3.3c1.1-0.7 2.1-1.5 3-2.3l-2-2.2C283.7 177.4 283 177.8 282.2 178.1z" class="f"/><path d="M289.9 170.8l1.6 0.7c0.7-1.8 1.1-3.7 1.2-5.7l-1.5-0.1C291.1 167.5 290.7 169.2 289.9 170.8z" class="f"/><polygon points="270.3 179.1 270.3 184.5 272.9 184.5 272.9 183.6 272.8 179.1 " class="f"/><path d="M276.3 61.9h0.5c0.4 0 0.9 0 1.3 0.1l1.6-4.3c-1.1-0.4-2.2-0.7-3.3-0.9V61.9z" class="f"/><rect x="263.4" y="56.5" width="2.5" height="5.4" class="f"/><rect x="291.3" y="152.7" width="1.4" height="6.5" class="f"/><path d="M292.7 74.9l-1.4 0.1c0 0.4 0.1 0.9 0.1 1.3v5h1.4v-5C292.7 75.9 292.7 75.4 292.7 74.9z" class="f"/><rect x="291.3" y="100.8" width="1.4" height="6.5" class="f"/><rect x="291.3" y="113.7" width="1.4" height="6.5" class="f"/><rect x="291.3" y="126.7" width="1.4" height="6.5" class="f"/><rect x="291.3" y="139.7" width="1.4" height="6.5" class="f"/><rect x="257.3" y="179.1" width="2.5" height="5.4" class="f"/><rect x="211.5" y="56.5" width="2.5" height="5.4" class="f"/><rect x="218.4" y="179.1" width="2.5" height="5.4" class="f"/><rect x="224.4" y="56.5" width="2.5" height="5.4" class="f"/><rect x="198.5" y="56.5" width="2.5" height="5.4" class="f"/><rect x="205.4" y="179.1" width="2.5" height="5.4" class="f"/><rect x="192.5" y="179.1" width="2.5" height="5.4" class="f"/><rect x="244.4" y="179.1" width="2.5" height="5.4" class="f"/><rect x="231.4" y="179.1" width="2.5" height="5.4" class="f"/><rect x="250.4" y="56.5" width="2.5" height="5.4" class="f"/><rect x="237.4" y="56.5" width="2.5" height="5.4" class="f"/></svg>