<?xml version="1.0" standalone="no"?>
<!DOCTYPE svg PUBLIC "-//W3C//DTD SVG 20010904//EN"
 "http://www.w3.org/TR/2001/REC-SVG-20010904/DTD/svg10.dtd">
<svg version="1.0" xmlns="http://www.w3.org/2000/svg"
 width="2257.000000pt" height="2257.000000pt" viewBox="0 0 2257.000000 2257.000000"
 preserveAspectRatio="xMidYMid meet">

<g transform="translate(0.000000,2257.000000) scale(0.100000,-0.100000)"
fill="#000000" stroke="none">
<path d="M2495 21339 c-662 -86 -1186 -611 -1265 -1269 -8 -67 -10 -340 -8
-915 4 -802 5 -822 26 -917 31 -136 75 -255 139 -379 170 -329 485 -593 843
-707 216 -69 184 -67 1130 -67 849 0 856 0 956 22 294 65 526 188 728 383 217
210 352 453 418 753 23 102 23 106 23 972 0 866 0 870 -23 972 -66 301 -201
543 -418 753 -201 195 -431 316 -722 382 -95 21 -114 22 -927 24 -456 1 -861
-2 -900 -7z m1749 -657 c282 -79 498 -292 578 -568 l23 -79 0 -820 c0 -925 5
-866 -80 -1040 -99 -206 -290 -362 -523 -428 -76 -22 -83 -22 -887 -22 -800 0
-811 0 -886 22 -285 81 -501 292 -581 569 l-23 79 0 820 0 820 23 78 c71 247
247 441 485 537 145 58 157 59 1012 57 775 -2 781 -3 859 -25z"/>
<path d="M2816 20114 c-170 -41 -316 -187 -361 -361 -22 -85 -22 -992 0 -1078
47 -178 202 -326 383 -364 73 -15 962 -15 1034 0 184 39 336 183 383 364 22
87 22 993 0 1080 -47 181 -199 325 -383 364 -84 18 -980 14 -1056 -5z"/>
<path d="M6562 21330 c-172 -45 -315 -159 -390 -309 -72 -143 -73 -157 -70
-751 l3 -525 23 -47 c30 -60 90 -120 150 -150 68 -33 187 -33 256 1 61 30 117
87 148 149 21 43 23 62 26 240 l4 192 32 0 c57 0 184 38 258 77 94 49 192 147
241 241 39 74 77 201 77 258 l0 32 193 4 c179 3 195 5 241 27 61 30 117 87
148 149 33 67 33 187 0 254 -31 62 -87 119 -148 149 l-49 24 -535 2 c-500 2
-540 1 -608 -17z"/>
<path d="M8754 21336 c-216 -68 -283 -344 -123 -505 78 -77 108 -86 327 -89
l192 -4 0 -32 c0 -57 38 -184 77 -258 49 -94 147 -192 241 -241 74 -39 201
-77 259 -77 31 0 33 -2 33 -33 0 -58 38 -185 77 -259 49 -94 147 -192 241
-241 74 -39 201 -77 259 -77 l33 0 0 -305 0 -305 -338 0 c-304 0 -347 -2 -416
-20 -224 -57 -389 -222 -446 -446 -11 -43 -20 -92 -20 -111 l0 -33 -610 0
-610 0 0 33 c0 58 -38 185 -77 259 -49 94 -147 192 -241 241 -74 39 -201 77
-258 77 l-32 0 -4 193 c-3 177 -5 196 -26 239 -31 62 -87 119 -148 149 -69 34
-188 34 -256 1 -62 -31 -119 -87 -149 -148 -23 -47 -24 -60 -27 -268 -4 -255
6 -320 70 -447 51 -103 145 -199 246 -252 74 -39 201 -77 258 -77 l34 0 2
-802 3 -803 23 -47 c30 -60 90 -120 150 -150 68 -33 187 -33 256 1 61 30 117
87 148 149 23 47 23 48 26 545 l3 497 304 0 303 0 4 -192 c3 -219 12 -249 89
-327 64 -63 120 -86 214 -86 94 0 155 25 216 87 75 78 84 109 87 326 l4 192
32 0 c57 0 184 38 258 77 94 49 192 147 241 241 39 74 77 201 77 259 l0 33
305 0 305 0 0 -33 c0 -58 38 -185 77 -259 49 -94 147 -192 241 -241 74 -39
201 -77 258 -77 l33 0 3 -497 c3 -497 3 -498 26 -545 30 -60 90 -120 150 -150
68 -33 187 -33 256 1 61 30 117 87 148 149 l23 47 3 525 c3 594 2 608 -70 751
-51 103 -145 199 -246 252 -74 39 -201 77 -259 77 l-33 0 0 305 0 305 610 0
610 0 0 -1253 c0 -1215 1 -1256 20 -1331 44 -174 157 -318 309 -394 127 -64
192 -74 447 -70 208 3 221 4 268 27 61 30 117 87 148 149 18 37 23 64 23 127
0 63 -5 90 -23 127 -31 62 -87 119 -148 149 -46 22 -62 24 -241 27 l-193 4 0
1252 c0 1214 -1 1255 -20 1330 -57 224 -222 389 -446 446 -73 19 -113 20 -721
20 l-643 0 0 609 0 609 193 4 c179 3 195 5 241 27 61 30 117 87 148 149 33 67
33 187 0 254 -31 62 -87 119 -148 149 l-49 24 -1285 2 c-1033 1 -1293 -1
-1326 -11z"/>
<path d="M12414 21336 c-217 -71 -283 -344 -123 -505 64 -63 120 -86 214 -86
94 0 155 25 216 87 62 64 84 120 84 213 0 63 -5 90 -23 127 -31 62 -87 119
-146 148 -59 28 -163 36 -222 16z"/>
<path d="M14244 21336 c-217 -71 -283 -344 -123 -505 64 -63 120 -86 214 -86
94 0 155 25 216 87 62 64 84 120 84 213 0 63 -5 90 -23 127 -31 62 -87 119
-146 148 -59 28 -163 36 -222 16z"/>
<path d="M15464 21336 c-216 -68 -283 -344 -123 -505 78 -77 108 -86 327 -89
l192 -4 0 -304 0 -304 -304 0 -304 0 -4 193 c-3 177 -5 196 -26 239 -31 62
-87 119 -148 149 -69 34 -188 34 -256 1 -62 -31 -119 -87 -149 -148 -22 -46
-24 -62 -27 -241 l-4 -192 -496 -3 c-496 -3 -497 -3 -544 -26 -62 -31 -119
-87 -149 -148 -34 -69 -34 -188 -1 -256 30 -60 90 -120 150 -150 47 -23 48
-23 545 -26 l497 -3 0 -33 c0 -18 9 -67 20 -110 57 -224 222 -389 446 -446
322 -83 650 117 734 446 11 43 20 92 20 111 0 31 2 33 33 33 19 0 68 9 111 20
224 57 389 222 446 446 18 70 20 112 20 449 0 337 -2 379 -20 449 -57 224
-222 389 -446 446 -65 17 -109 20 -288 19 -143 0 -224 -5 -252 -13z"/>
<path d="M18355 21339 c-662 -86 -1186 -611 -1265 -1269 -8 -67 -10 -340 -8
-915 4 -802 5 -822 26 -917 31 -136 75 -255 139 -379 170 -329 485 -593 843
-707 216 -69 184 -67 1130 -67 849 0 856 0 956 22 294 65 526 188 728 383 217
210 352 453 418 753 23 102 23 106 23 972 0 866 0 870 -23 972 -66 301 -201
543 -418 753 -201 195 -431 316 -722 382 -95 21 -114 22 -927 24 -456 1 -861
-2 -900 -7z m1749 -657 c282 -79 498 -292 578 -568 l23 -79 0 -820 c0 -925 5
-866 -80 -1040 -99 -206 -290 -362 -523 -428 -76 -22 -83 -22 -887 -22 -800 0
-811 0 -886 22 -285 81 -501 292 -581 569 l-23 79 0 820 0 820 23 78 c71 247
247 441 485 537 145 58 157 59 1012 57 775 -2 781 -3 859 -25z"/>
<path d="M18676 20114 c-170 -41 -316 -187 -361 -361 -22 -85 -22 -992 0
-1078 47 -178 202 -326 383 -364 73 -15 962 -15 1034 0 184 39 336 183 383
364 12 49 15 141 15 540 0 399 -3 491 -15 540 -47 181 -199 325 -383 364 -84
18 -980 14 -1056 -5z"/>
<path d="M11804 20726 c-217 -71 -283 -344 -123 -505 64 -63 120 -86 214 -86
94 0 155 25 216 87 62 64 84 120 84 213 0 63 -5 90 -23 127 -31 62 -87 119
-146 148 -59 28 -163 36 -222 16z"/>
<path d="M8754 19506 c-217 -71 -283 -344 -123 -505 64 -63 120 -86 214 -86
94 0 155 25 216 87 62 64 84 120 84 213 0 63 -5 90 -23 127 -31 62 -87 119
-146 148 -59 28 -163 36 -222 16z"/>
<path d="M14244 18896 c-93 -30 -178 -118 -203 -211 -6 -22 -11 -118 -11 -212
l0 -173 -33 0 c-19 0 -68 -9 -111 -20 -224 -57 -389 -222 -446 -446 -18 -70
-20 -112 -20 -449 0 -337 2 -379 20 -449 57 -224 222 -389 446 -446 70 -18
112 -20 449 -20 337 0 379 2 449 20 174 44 318 157 394 309 64 127 74 192 70
447 -3 205 -4 222 -26 266 -31 62 -87 119 -148 149 -69 34 -188 34 -256 1 -62
-31 -119 -87 -149 -148 -22 -46 -24 -62 -27 -241 l-4 -193 -304 0 -304 0 0
305 0 305 33 0 c58 0 185 38 259 77 101 53 195 149 246 252 64 127 74 192 70
447 -3 205 -4 222 -26 266 -31 62 -87 119 -146 148 -59 28 -163 36 -222 16z"/>
<path d="M16074 18896 c-217 -71 -283 -344 -123 -505 64 -63 120 -86 214 -86
94 0 155 25 216 87 62 64 84 120 84 213 0 63 -5 90 -23 127 -31 62 -87 119
-146 148 -59 28 -163 36 -222 16z"/>
<path d="M6314 18286 c-93 -30 -178 -118 -203 -211 -7 -27 -11 -301 -11 -856
0 -779 1 -819 20 -893 44 -174 157 -318 309 -394 127 -64 192 -74 447 -70 208
3 221 4 268 27 61 30 117 87 148 149 33 67 33 187 0 254 -31 62 -87 119 -148
149 -46 22 -62 24 -241 27 l-193 4 -2 801 -3 802 -23 47 c-31 62 -87 119 -146
148 -59 28 -163 36 -222 16z"/>
<path d="M9974 17676 c-93 -30 -178 -118 -203 -211 -7 -26 -11 -206 -11 -517
l0 -477 -497 -3 c-497 -3 -498 -3 -545 -26 -62 -31 -119 -87 -149 -148 -34
-69 -34 -188 -1 -256 30 -60 90 -120 150 -150 43 -21 62 -23 240 -26 l192 -4
0 -337 c0 -303 2 -346 20 -415 57 -224 222 -389 446 -446 70 -18 112 -20 449
-20 337 0 379 2 449 20 224 57 389 222 446 446 83 322 -117 650 -446 734 -43
11 -92 20 -110 20 l-34 0 -2 803 -3 802 -23 47 c-31 62 -87 119 -146 148 -59
28 -163 36 -222 16z"/>
<path d="M16074 17676 c-93 -30 -178 -118 -203 -211 -7 -26 -11 -215 -11 -551
0 -476 1 -516 20 -588 57 -224 222 -389 446 -446 43 -11 92 -20 111 -20 l33 0
0 -338 c0 -304 2 -347 20 -416 57 -224 222 -389 446 -446 43 -11 92 -20 110
-20 l32 0 4 -192 c3 -219 12 -249 89 -327 64 -63 120 -86 214 -86 94 0 155 25
216 87 75 78 84 109 87 325 l4 191 191 4 c179 3 195 5 241 27 61 30 117 87
148 149 18 37 23 64 23 127 0 63 -5 90 -23 127 -31 62 -87 119 -148 149 -46
22 -62 24 -241 27 l-193 4 0 303 0 303 193 4 c179 3 195 5 241 27 61 30 117
87 148 149 18 37 23 64 23 127 0 63 -5 90 -23 127 -31 62 -87 119 -148 149
l-49 24 -802 3 -802 2 -3 498 c-3 496 -3 497 -26 544 -31 62 -87 119 -146 148
-59 28 -163 36 -222 16z"/>
<path d="M2654 16456 c-216 -68 -283 -344 -123 -505 78 -77 108 -86 327 -89
l192 -4 0 -32 c0 -57 38 -184 77 -258 53 -101 149 -195 252 -246 143 -72 157
-73 751 -70 l525 3 49 24 c61 30 117 87 148 149 33 67 33 187 0 254 -31 62
-87 119 -148 149 -46 22 -62 24 -241 27 l-193 4 0 32 c0 18 -9 67 -20 110 -57
224 -222 389 -446 446 -72 19 -111 20 -593 19 -393 0 -526 -3 -557 -13z"/>
<path d="M5094 16456 c-217 -71 -283 -344 -123 -505 64 -63 120 -86 214 -86
94 0 155 25 216 87 62 64 84 120 84 213 0 63 -5 90 -23 127 -31 62 -87 119
-146 148 -59 28 -163 36 -222 16z"/>
<path d="M19982 16450 c-221 -58 -385 -224 -442 -446 -18 -69 -20 -112 -20
-416 l0 -338 -33 0 c-19 0 -68 -9 -111 -20 -224 -57 -389 -222 -446 -446 -83
-322 117 -650 446 -734 69 -18 112 -20 415 -20 l337 0 4 -192 c3 -219 12 -249
89 -327 64 -63 120 -86 214 -86 94 0 155 25 216 87 75 78 84 109 87 325 l4
191 191 4 c179 3 195 5 241 27 61 30 117 87 148 149 18 37 23 64 23 127 0 63
-5 90 -23 127 -31 62 -87 119 -148 149 -46 22 -62 24 -241 27 l-193 4 0 304 0
304 33 0 c19 0 68 9 111 20 224 57 389 222 446 446 83 322 -117 650 -446 734
-70 18 -111 20 -453 19 -337 0 -384 -2 -449 -19z"/>
<path d="M2044 15846 c-93 -30 -178 -118 -203 -211 -7 -26 -11 -206 -11 -517
l0 -476 -192 -4 c-217 -3 -248 -12 -326 -87 -62 -61 -87 -122 -87 -216 0 -94
23 -150 86 -214 77 -77 108 -86 326 -89 l192 -4 3 -496 c3 -496 3 -497 26
-544 30 -60 90 -120 150 -150 68 -33 187 -33 256 1 61 30 117 87 148 149 21
43 23 62 26 239 l4 191 191 4 c179 3 195 5 241 27 61 30 117 87 148 149 33 67
33 187 0 254 -31 62 -87 119 -148 149 -46 22 -62 24 -241 27 l-193 4 -2 801
-3 802 -23 47 c-31 62 -87 119 -146 148 -59 28 -163 36 -222 16z"/>
<path d="M8144 15846 c-217 -71 -283 -344 -123 -505 64 -63 120 -86 214 -86
94 0 155 25 216 87 62 64 84 120 84 213 0 63 -5 90 -23 127 -31 62 -87 119
-146 148 -59 28 -163 36 -222 16z"/>
<path d="M11804 15846 c-217 -71 -283 -344 -123 -505 64 -63 120 -86 214 -86
94 0 155 25 216 87 62 64 84 120 84 213 0 63 -5 90 -23 127 -31 62 -87 119
-146 148 -59 28 -163 36 -222 16z"/>
<path d="M13634 15846 c-217 -71 -283 -344 -123 -505 64 -63 120 -86 214 -86
94 0 155 25 216 87 62 64 84 120 84 213 0 63 -5 90 -23 127 -31 62 -87 119
-146 148 -59 28 -163 36 -222 16z"/>
<path d="M15464 15846 c-217 -71 -283 -344 -123 -505 64 -63 120 -86 214 -86
94 0 155 25 216 87 62 64 84 120 84 213 0 63 -5 90 -23 127 -31 62 -87 119
-146 148 -59 28 -163 36 -222 16z"/>
<path d="M5094 15236 c-60 -19 -130 -72 -163 -125 -100 -156 -42 -360 127
-443 47 -23 48 -23 545 -26 l497 -3 0 -33 c0 -57 38 -184 77 -258 53 -101 149
-195 252 -246 143 -72 157 -73 751 -70 l525 3 49 24 c61 30 117 87 148 149 18
37 23 64 23 127 0 63 -5 90 -23 127 -31 62 -87 119 -148 149 -46 22 -62 24
-241 27 l-193 4 0 32 c0 18 -9 67 -20 110 -57 224 -222 389 -446 446 -74 19
-113 20 -898 19 -643 0 -830 -3 -862 -13z"/>
<path d="M12414 15236 c-217 -71 -283 -344 -123 -505 64 -63 120 -86 214 -86
94 0 155 25 216 87 62 64 84 120 84 213 0 63 -5 90 -23 127 -31 62 -87 119
-146 148 -59 28 -163 36 -222 16z"/>
<path d="M14854 15236 c-217 -71 -283 -344 -123 -505 64 -63 120 -86 214 -86
94 0 155 25 216 87 62 64 84 120 84 213 0 63 -5 90 -23 127 -31 62 -87 119
-146 148 -59 28 -163 36 -222 16z"/>
<path d="M3264 14626 c-60 -19 -130 -72 -163 -125 -100 -156 -42 -360 127
-443 47 -23 50 -23 432 -23 l385 0 49 24 c61 30 117 87 148 149 18 37 23 64
23 127 0 63 -5 90 -23 127 -31 62 -87 119 -148 149 -49 24 -50 24 -419 26
-284 2 -380 -1 -411 -11z"/>
<path d="M16074 14626 c-93 -30 -178 -118 -203 -211 -6 -22 -11 -117 -11 -212
l0 -172 -497 -3 c-497 -3 -498 -3 -545 -26 -62 -31 -119 -87 -149 -148 -34
-69 -34 -188 -1 -256 30 -60 90 -120 150 -150 43 -21 62 -23 239 -26 l191 -4
4 -191 c3 -218 12 -249 89 -326 64 -63 120 -86 214 -86 94 0 155 25 216 87 75
78 84 109 87 326 l4 192 304 0 304 0 0 -609 0 -609 -192 -4 c-217 -3 -248 -12
-326 -87 -62 -61 -87 -122 -87 -216 0 -94 23 -150 86 -214 77 -77 108 -86 326
-89 l191 -4 4 -191 c3 -177 5 -196 26 -239 30 -60 90 -120 150 -150 68 -33
187 -33 256 1 61 30 117 87 148 149 l23 47 3 802 2 801 193 4 c179 3 195 5
241 27 61 30 117 87 148 149 33 67 33 187 0 254 -31 62 -87 119 -148 149 -46
22 -62 24 -241 27 l-193 4 0 32 c0 57 -38 184 -77 258 -49 94 -147 192 -241
241 -74 39 -201 77 -258 77 l-32 0 -4 193 c-3 177 -5 196 -26 239 -31 62 -87
119 -146 148 -59 28 -163 36 -222 16z"/>
<path d="M5094 14016 c-217 -71 -283 -344 -123 -505 64 -63 120 -86 214 -86
94 0 155 25 216 87 62 64 84 120 84 213 0 63 -5 90 -23 127 -31 62 -87 119
-146 148 -59 28 -163 36 -222 16z"/>
<path d="M17904 14016 c-60 -19 -130 -72 -163 -125 -100 -156 -42 -360 127
-443 47 -23 50 -23 432 -23 l385 0 49 24 c61 30 117 87 148 149 18 37 23 64
23 127 0 63 -5 90 -23 127 -31 62 -87 119 -148 149 -49 24 -50 24 -419 26
-284 2 -380 -1 -411 -11z"/>
<path d="M4484 13406 c-93 -30 -178 -118 -203 -211 -8 -28 -11 -377 -11 -1127
l0 -1088 -643 0 c-608 0 -648 -1 -721 -20 -224 -57 -389 -222 -446 -446 -83
-322 117 -650 446 -734 43 -11 92 -20 110 -20 l33 0 3 -497 c3 -497 3 -498 26
-545 30 -60 90 -120 150 -150 68 -33 187 -33 256 1 61 30 117 87 148 149 21
43 23 62 26 240 l4 192 32 0 c57 0 184 38 258 77 94 49 192 147 241 241 39 74
77 201 77 258 l0 33 498 3 497 3 49 24 c61 30 117 87 148 149 33 67 33 187 0
254 -31 62 -87 119 -148 149 -46 22 -62 24 -241 27 l-193 4 0 304 0 304 643 0
c608 0 648 1 721 20 224 57 389 222 446 446 18 69 20 112 20 415 l0 337 193 4
c179 3 195 5 241 27 61 30 117 87 148 149 18 37 23 64 23 127 0 63 -5 90 -23
127 -31 62 -87 119 -148 149 -47 23 -60 24 -268 27 -255 4 -320 -6 -447 -70
-103 -51 -199 -145 -252 -246 -39 -74 -77 -201 -77 -259 0 -31 -2 -33 -33 -33
-58 0 -185 -38 -259 -77 -94 -49 -192 -147 -241 -241 -39 -74 -77 -201 -77
-259 l0 -33 -305 0 -305 0 0 304 0 304 193 4 c179 3 195 5 241 27 61 30 117
87 148 149 33 67 33 187 0 254 -31 62 -87 119 -148 149 -46 22 -62 24 -241 27
l-191 4 -4 191 c-3 177 -5 196 -26 239 -31 62 -87 119 -146 148 -59 28 -163
36 -222 16z"/>
<path d="M5704 13406 c-217 -71 -283 -344 -123 -505 64 -63 120 -86 214 -86
94 0 155 25 216 87 62 64 84 120 84 213 0 63 -5 90 -23 127 -31 62 -87 119
-146 148 -59 28 -163 36 -222 16z"/>
<path d="M20954 13406 c-217 -71 -283 -344 -123 -505 64 -63 120 -86 214 -86
94 0 155 25 216 87 62 64 84 120 84 213 0 63 -5 90 -23 127 -31 62 -87 119
-146 148 -59 28 -163 36 -222 16z"/>
<path d="M3264 12796 c-217 -71 -283 -344 -123 -505 64 -63 120 -86 214 -86
94 0 155 25 216 87 62 64 84 120 84 213 0 63 -5 90 -23 127 -31 62 -87 119
-146 148 -59 28 -163 36 -222 16z"/>
<path d="M14854 12796 c-96 -31 -180 -120 -204 -216 -7 -30 -10 -163 -8 -405
3 -353 3 -361 26 -407 30 -60 90 -120 150 -150 68 -33 187 -33 256 1 61 30
117 87 148 149 23 47 23 50 23 432 0 382 0 385 -23 432 -31 62 -87 119 -146
148 -59 28 -163 36 -222 16z"/>
<path d="M19124 12796 c-216 -68 -283 -344 -123 -505 77 -77 108 -86 326 -89
l191 -4 4 -191 c3 -218 12 -249 89 -326 64 -63 120 -86 214 -86 94 0 155 25
216 87 75 78 84 109 87 325 l4 191 191 4 c179 3 195 5 241 27 61 30 117 87
148 149 18 37 23 64 23 127 0 63 -5 90 -23 127 -31 62 -87 119 -148 149 l-49
24 -675 2 c-533 2 -684 -1 -716 -11z"/>
<path d="M1434 12186 c-61 -19 -130 -73 -163 -125 -100 -156 -42 -360 127
-443 68 -33 187 -33 256 1 61 30 117 87 148 149 33 67 33 187 0 254 -31 62
-87 119 -146 148 -59 28 -163 36 -222 16z"/>
<path d="M2654 12186 c-217 -71 -283 -344 -123 -505 64 -63 120 -86 214 -86
94 0 155 25 216 87 62 64 84 120 84 213 0 63 -5 90 -23 127 -31 62 -87 119
-146 148 -59 28 -163 36 -222 16z"/>
<path d="M7534 12186 c-96 -31 -180 -121 -204 -216 -7 -31 -10 -247 -8 -710
l3 -665 23 -47 c13 -26 41 -65 63 -87 64 -63 120 -86 214 -86 64 0 90 5 129
24 61 30 117 87 148 149 l23 47 0 690 0 690 -23 47 c-31 62 -87 119 -146 148
-59 28 -163 36 -222 16z"/>
<path d="M18152 12180 c-221 -58 -385 -224 -442 -446 -83 -322 117 -650 446
-734 322 -83 650 117 734 446 112 438 -301 848 -738 734z"/>
<path d="M20954 12186 c-93 -30 -178 -118 -203 -211 -6 -22 -11 -118 -11 -212
l0 -173 -33 0 c-19 0 -68 -9 -111 -20 -224 -57 -389 -222 -446 -446 -18 -69
-20 -112 -20 -416 l0 -338 -33 0 c-58 0 -185 -38 -259 -77 -94 -49 -192 -147
-241 -241 -39 -74 -77 -201 -77 -259 l0 -33 -338 0 c-304 0 -347 -2 -416 -20
-224 -57 -389 -222 -446 -446 -11 -43 -20 -92 -20 -111 0 -31 -2 -33 -33 -33
-58 0 -185 -38 -259 -77 -101 -53 -195 -149 -246 -252 -64 -127 -74 -192 -70
-447 3 -248 10 -274 89 -353 64 -63 120 -86 214 -86 94 0 155 25 216 87 75 78
84 109 87 326 l4 192 304 0 304 0 0 -304 0 -304 -192 -4 c-217 -3 -248 -12
-326 -87 -62 -61 -87 -122 -87 -216 0 -94 23 -150 86 -214 78 -77 108 -86 327
-89 l192 -4 0 -304 0 -304 -1525 0 -1525 0 0 304 0 304 193 4 c179 3 195 5
241 27 61 30 117 87 148 149 18 37 23 64 23 127 0 63 -5 90 -23 127 -31 62
-87 119 -148 149 l-49 24 -690 0 -690 0 -47 -23 c-62 -31 -119 -87 -149 -148
-34 -69 -34 -188 -1 -256 30 -60 90 -120 150 -150 43 -21 62 -23 240 -26 l192
-4 0 -303 0 -303 -192 -4 c-178 -3 -197 -5 -240 -26 -62 -31 -119 -87 -149
-148 -34 -69 -34 -188 -1 -256 30 -60 90 -120 150 -150 47 -23 48 -23 545 -26
l497 -3 0 -304 0 -305 -33 0 c-58 0 -185 -38 -259 -77 -94 -49 -192 -147 -241
-241 -39 -74 -77 -201 -77 -259 l0 -33 -305 0 -305 0 0 338 c0 304 -2 347 -20
416 -57 224 -222 389 -446 446 -43 11 -92 20 -110 20 l-32 0 -4 193 c-3 177
-5 196 -26 239 -31 62 -87 119 -148 149 -69 34 -188 34 -256 1 -62 -31 -119
-87 -149 -148 l-24 -49 -3 -802 -2 -803 -305 0 -305 0 0 33 c0 19 -9 68 -20
111 -57 224 -222 389 -446 446 -322 83 -650 -117 -734 -446 -19 -75 -20 -117
-20 -1635 l0 -1557 -192 -4 c-217 -3 -248 -12 -326 -87 -62 -61 -87 -122 -87
-216 0 -94 23 -150 86 -214 79 -79 105 -86 353 -89 255 -4 320 6 447 70 152
76 265 220 309 394 19 75 20 116 20 1331 l0 1253 305 0 304 0 3 -497 c3 -497
3 -498 26 -545 30 -60 90 -120 150 -150 68 -33 187 -33 256 1 61 30 117 87
148 149 23 47 23 48 26 545 l3 497 304 0 303 0 4 -193 c3 -218 12 -248 89
-326 64 -63 120 -86 214 -86 94 0 155 25 216 87 75 78 84 109 87 326 l4 192
609 0 609 0 0 -609 0 -609 -192 -4 c-178 -3 -197 -5 -240 -26 -62 -31 -119
-87 -149 -148 -34 -69 -34 -188 -1 -256 30 -60 90 -120 150 -150 l47 -23 995
0 995 0 49 24 c61 30 117 87 148 149 18 37 23 64 23 127 0 63 -5 90 -23 127
-31 62 -87 119 -148 149 -46 22 -62 24 -241 27 l-193 4 0 304 0 304 610 0 610
0 0 -33 c0 -58 38 -185 77 -259 53 -101 149 -195 252 -246 127 -64 192 -74
447 -70 208 3 221 4 268 27 61 30 117 87 148 149 33 67 33 187 0 254 -31 62
-87 119 -148 149 -46 22 -62 24 -241 27 l-193 4 0 304 0 304 610 0 609 0 3
-497 c3 -497 3 -498 26 -545 30 -60 90 -120 150 -150 68 -33 187 -33 256 1 61
30 117 87 148 149 21 43 23 62 26 239 l4 193 32 0 c18 0 67 9 110 20 224 57
389 222 446 446 83 322 -117 650 -446 734 -43 11 -92 20 -111 20 l-33 0 0 304
0 304 193 4 c179 3 195 5 241 27 61 30 117 87 148 149 33 67 33 187 0 254 -31
62 -87 119 -148 149 -46 22 -62 24 -241 27 l-191 4 -4 191 c-3 177 -5 196 -26
239 -31 62 -87 119 -148 149 -69 34 -188 34 -256 1 -62 -31 -119 -87 -149
-148 l-24 -49 -3 -497 -3 -498 -609 0 -610 0 0 305 0 305 33 0 c58 0 185 38
259 77 94 49 192 147 241 241 39 74 77 201 77 258 l0 32 193 4 c179 3 195 5
241 27 61 30 117 87 148 149 18 37 23 64 23 127 0 63 -5 90 -23 127 -31 62
-87 119 -148 149 -46 22 -62 24 -241 27 l-193 4 0 303 0 303 193 4 c179 3 195
5 241 27 61 30 117 87 148 149 18 37 23 64 23 127 0 63 -5 90 -23 127 -31 62
-87 119 -148 149 -46 22 -62 24 -241 27 l-193 4 0 304 0 304 305 0 305 0 0
-33 c0 -58 38 -185 77 -259 49 -94 147 -192 241 -241 74 -39 201 -77 258 -77
l32 0 4 -192 c3 -219 12 -249 89 -327 64 -63 120 -86 214 -86 94 0 155 25 216
87 77 80 84 105 87 352 4 255 -6 320 -70 447 -51 103 -145 199 -246 252 -74
39 -201 77 -259 77 l-33 0 0 610 0 610 33 0 c58 0 185 38 259 77 101 53 195
149 246 252 72 143 73 157 70 751 l-3 525 -23 47 c-31 62 -87 119 -146 148
-59 28 -163 36 -222 16z m-2654 -7001 l0 -915 -915 0 -915 0 0 915 0 915 915
0 915 0 0 -915z"/>
<path d="M17294 5476 c-217 -71 -283 -344 -123 -505 64 -63 120 -86 214 -86
94 0 155 25 216 87 62 64 84 120 84 213 0 63 -5 90 -23 127 -31 62 -87 119
-146 148 -59 28 -163 36 -222 16z"/>
<path d="M2044 11576 c-61 -19 -130 -73 -163 -125 -100 -156 -42 -360 127
-443 68 -33 187 -33 256 1 61 30 117 87 148 149 33 67 33 187 0 254 -31 62
-87 119 -146 148 -59 28 -163 36 -222 16z"/>
<path d="M15464 10966 c-60 -19 -130 -72 -163 -125 -100 -156 -42 -360 127
-443 47 -23 50 -23 432 -23 l385 0 49 24 c61 30 117 87 148 149 18 37 23 64
23 127 0 63 -5 90 -23 127 -31 62 -87 119 -148 149 -49 24 -50 24 -419 26
-284 2 -380 -1 -411 -11z"/>
<path d="M17294 10966 c-217 -71 -283 -344 -123 -505 64 -63 120 -86 214 -86
94 0 155 25 216 87 62 64 84 120 84 213 0 63 -5 90 -23 127 -31 62 -87 119
-146 148 -59 28 -163 36 -222 16z"/>
<path d="M6314 10356 c-217 -71 -283 -344 -123 -505 64 -63 120 -86 214 -86
94 0 155 25 216 87 62 64 84 120 84 213 0 63 -5 90 -23 127 -31 62 -87 119
-146 148 -59 28 -163 36 -222 16z"/>
<path d="M14854 10356 c-96 -31 -180 -121 -204 -216 -7 -31 -10 -247 -8 -710
l3 -665 23 -47 c13 -26 41 -65 63 -87 64 -63 120 -86 214 -86 94 0 155 25 216
87 75 78 84 109 87 326 l4 192 303 0 303 0 4 -192 c3 -219 12 -249 89 -327 64
-63 120 -86 214 -86 94 0 155 25 216 87 77 80 84 105 87 352 4 255 -6 320 -70
447 -76 152 -220 265 -394 309 -69 18 -112 20 -415 20 l-337 0 -4 193 c-3 177
-5 196 -26 239 -31 62 -87 119 -146 148 -59 28 -163 36 -222 16z"/>
<path d="M16684 10356 c-217 -71 -283 -344 -123 -505 64 -63 120 -86 214 -86
94 0 155 25 216 87 62 64 84 120 84 213 0 63 -5 90 -23 127 -31 62 -87 119
-146 148 -59 28 -163 36 -222 16z"/>
<path d="M1434 9746 c-96 -31 -180 -121 -204 -216 -7 -32 -10 -500 -8 -1625
l3 -1580 23 -47 c30 -60 90 -120 150 -150 68 -33 187 -33 256 1 61 30 117 87
148 149 l23 47 0 1605 0 1605 -23 47 c-31 62 -87 119 -146 148 -59 28 -163 36
-222 16z"/>
<path d="M5704 9746 c-217 -71 -283 -344 -123 -505 64 -63 120 -86 214 -86 94
0 155 25 216 87 62 64 84 120 84 213 0 63 -5 90 -23 127 -31 62 -87 119 -146
148 -59 28 -163 36 -222 16z"/>
<path d="M5094 9136 c-217 -71 -283 -344 -123 -505 64 -63 120 -86 214 -86 94
0 155 25 216 87 62 64 84 120 84 213 0 63 -5 90 -23 127 -31 62 -87 119 -146
148 -59 28 -163 36 -222 16z"/>
<path d="M7534 9136 c-93 -30 -178 -118 -203 -211 -6 -22 -11 -118 -11 -212
l0 -173 -33 0 c-58 0 -185 -38 -259 -77 -94 -49 -192 -147 -241 -241 -39 -74
-77 -201 -77 -258 l0 -32 -192 -4 c-217 -3 -248 -12 -326 -87 -62 -61 -87
-122 -87 -216 0 -94 23 -150 86 -214 78 -77 108 -86 327 -89 l192 -4 0 -32 c0
-57 38 -184 77 -258 53 -101 149 -195 252 -246 127 -64 192 -74 447 -70 208 3
221 4 268 27 61 30 117 87 148 149 18 37 23 64 23 127 0 63 -5 90 -23 127 -31
62 -87 119 -148 149 -46 22 -62 24 -241 27 l-193 4 0 304 0 304 33 0 c58 0
185 38 259 77 101 53 195 149 246 252 64 127 74 192 70 447 -3 205 -4 222 -26
266 -31 62 -87 119 -146 148 -59 28 -163 36 -222 16z"/>
<path d="M3874 8526 c-93 -30 -178 -118 -203 -211 -6 -23 -11 -129 -11 -246 0
-172 3 -218 20 -283 44 -174 157 -318 309 -394 143 -72 157 -73 751 -70 l525
3 49 24 c61 30 117 87 148 149 33 67 33 187 0 254 -31 62 -87 119 -148 149
l-49 24 -497 3 -496 3 -4 192 c-3 177 -5 196 -26 239 -31 62 -87 119 -146 148
-59 28 -163 36 -222 16z"/>
<path d="M8144 7916 c-217 -71 -283 -344 -123 -505 64 -63 120 -86 214 -86 94
0 155 25 216 87 62 64 84 120 84 213 0 63 -5 90 -23 127 -31 62 -87 119 -146
148 -59 28 -163 36 -222 16z"/>
<path d="M9364 7916 c-93 -30 -178 -118 -203 -211 -6 -22 -11 -118 -11 -212
l0 -173 -33 0 c-19 0 -68 -9 -111 -20 -224 -57 -389 -222 -446 -446 -83 -322
117 -650 446 -734 69 -18 112 -20 416 -20 l338 0 0 -33 c0 -19 9 -68 20 -111
57 -224 222 -389 446 -446 322 -83 650 117 734 446 11 43 20 92 20 110 l0 34
803 2 802 3 49 24 c61 30 117 87 148 149 33 67 33 187 0 254 -31 62 -87 119
-148 149 -46 22 -62 24 -241 27 l-192 4 -3 496 c-3 496 -3 497 -26 544 -31 62
-87 119 -148 149 -69 34 -188 34 -256 1 -62 -31 -119 -87 -149 -148 -22 -46
-24 -62 -27 -241 l-4 -193 -32 0 c-57 0 -184 -38 -258 -77 -94 -49 -192 -147
-241 -241 -39 -74 -77 -201 -77 -259 l0 -33 -305 0 -305 0 0 33 c0 58 -38 185
-77 259 -49 94 -147 192 -241 241 -74 39 -201 77 -258 77 l-32 0 -4 193 c-3
177 -5 196 -26 239 -31 62 -87 119 -146 148 -59 28 -163 36 -222 16z"/>
<path d="M13024 7916 c-217 -71 -283 -344 -123 -505 64 -63 120 -86 214 -86
94 0 155 25 216 87 62 64 84 120 84 213 0 63 -5 90 -23 127 -31 62 -87 119
-146 148 -59 28 -163 36 -222 16z"/>
<path d="M20344 7916 c-217 -71 -283 -344 -123 -505 64 -63 120 -86 214 -86
94 0 155 25 216 87 62 64 84 120 84 213 0 63 -5 90 -23 127 -31 62 -87 119
-146 148 -59 28 -163 36 -222 16z"/>
<path d="M2654 7306 c-96 -31 -180 -120 -204 -216 -7 -30 -10 -163 -8 -405 3
-353 3 -361 26 -407 30 -60 90 -120 150 -150 68 -33 187 -33 256 1 61 30 117
87 148 149 23 47 23 50 23 432 0 382 0 385 -23 432 -31 62 -87 119 -146 148
-59 28 -163 36 -222 16z"/>
<path d="M14244 7306 c-217 -71 -283 -344 -123 -505 64 -63 120 -86 214 -86
94 0 155 25 216 87 62 64 84 120 84 213 0 63 -5 90 -23 127 -31 62 -87 119
-146 148 -59 28 -163 36 -222 16z"/>
<path d="M4484 6696 c-60 -19 -130 -72 -163 -125 -100 -156 -42 -360 127 -443
l47 -23 803 -3 802 -2 0 -34 c0 -18 9 -67 20 -110 57 -224 222 -389 446 -446
69 -18 112 -20 415 -20 l338 0 3 -497 c3 -497 3 -498 26 -545 30 -60 90 -120
150 -150 68 -33 187 -33 256 1 61 30 117 87 148 149 21 43 23 62 26 239 l4
191 191 4 c179 3 195 5 241 27 61 30 117 87 148 149 18 37 23 64 23 127 0 63
-5 90 -23 127 -31 62 -87 119 -148 149 -46 22 -62 24 -241 27 l-193 4 0 32 c0
18 -9 67 -20 110 -57 224 -222 389 -446 446 -69 18 -112 20 -416 20 l-338 0 0
33 c0 19 -9 68 -20 111 -57 224 -222 389 -446 446 -74 19 -113 20 -898 19
-643 0 -830 -3 -862 -13z"/>
<path d="M2495 5479 c-662 -86 -1186 -611 -1265 -1269 -8 -67 -10 -340 -8
-915 4 -802 5 -822 26 -917 31 -136 75 -255 139 -379 170 -329 485 -593 843
-707 216 -69 184 -67 1130 -67 849 0 856 0 956 22 294 65 526 188 728 383 217
210 352 453 418 753 23 102 23 106 23 972 0 866 0 870 -23 972 -66 301 -201
543 -418 753 -201 195 -431 316 -722 382 -95 21 -114 22 -927 24 -456 1 -861
-2 -900 -7z m1749 -657 c282 -79 498 -292 578 -568 l23 -79 0 -820 c0 -925 5
-866 -80 -1040 -99 -206 -290 -362 -523 -428 -76 -22 -83 -22 -887 -22 -800 0
-811 0 -886 22 -285 81 -501 292 -581 569 l-23 79 0 820 0 820 23 78 c71 247
247 441 485 537 145 58 157 59 1012 57 775 -2 781 -3 859 -25z"/>
<path d="M2816 4254 c-170 -41 -316 -187 -361 -361 -22 -85 -22 -992 0 -1078
47 -178 202 -326 383 -364 73 -15 962 -15 1034 0 184 39 336 183 383 364 22
87 22 993 0 1080 -47 181 -199 325 -383 364 -84 18 -980 14 -1056 -5z"/>
<path d="M8754 4866 c-217 -71 -283 -344 -123 -505 64 -63 120 -86 214 -86 94
0 155 25 216 87 62 64 84 120 84 213 0 63 -5 90 -23 127 -31 62 -87 119 -146
148 -59 28 -163 36 -222 16z"/>
<path d="M9974 4866 c-60 -19 -130 -72 -163 -125 -100 -156 -42 -360 127 -443
47 -23 50 -23 432 -23 l385 0 49 24 c61 30 117 87 148 149 18 37 23 64 23 127
0 63 -5 90 -23 127 -31 62 -87 119 -148 149 -49 24 -50 24 -419 26 -284 2
-380 -1 -411 -11z"/>
<path d="M6314 4256 c-96 -31 -180 -121 -204 -216 -7 -31 -10 -247 -8 -710 l3
-665 23 -47 c30 -60 90 -120 150 -150 68 -33 187 -33 256 1 61 30 117 87 148
149 21 43 23 62 26 239 l4 191 191 4 c179 3 195 5 241 27 61 30 117 87 148
149 33 67 33 187 0 254 -31 62 -87 119 -148 149 -46 22 -62 24 -241 27 l-191
4 -4 191 c-3 177 -5 196 -26 239 -31 62 -87 119 -146 148 -59 28 -163 36 -222
16z"/>
<path d="M8392 3640 c-221 -58 -385 -224 -442 -446 -11 -43 -20 -92 -20 -111
0 -31 -2 -33 -33 -33 -19 0 -68 -9 -111 -20 -224 -57 -389 -222 -446 -446 -83
-322 117 -650 446 -734 322 -83 650 117 734 446 11 43 20 92 20 110 l0 34 803
2 802 3 49 24 c61 30 117 87 148 149 33 67 33 187 0 254 -31 62 -87 119 -148
149 -46 22 -62 24 -241 27 l-193 4 0 32 c0 18 -9 67 -20 110 -57 224 -222 389
-446 446 -70 18 -111 20 -453 19 -337 0 -384 -2 -449 -19z"/>
<path d="M10584 3646 c-217 -71 -283 -344 -123 -505 64 -63 120 -86 214 -86
94 0 155 25 216 87 62 64 84 120 84 213 0 63 -5 90 -23 127 -31 62 -87 119
-146 148 -59 28 -163 36 -222 16z"/>
<path d="M14854 3646 c-217 -71 -283 -344 -123 -505 64 -63 120 -86 214 -86
94 0 155 25 216 87 62 64 84 120 84 213 0 63 -5 90 -23 127 -31 62 -87 119
-146 148 -59 28 -163 36 -222 16z"/>
<path d="M14244 3036 c-96 -31 -180 -121 -204 -216 -7 -31 -10 -247 -8 -710
l3 -665 23 -47 c30 -60 90 -120 150 -150 68 -33 187 -33 256 1 61 30 117 87
148 149 l23 47 0 690 0 690 -23 47 c-31 62 -87 119 -146 148 -59 28 -163 36
-222 16z"/>
<path d="M10584 2426 c-217 -71 -283 -344 -123 -505 64 -63 120 -86 214 -86
94 0 155 25 216 87 62 64 84 120 84 213 0 63 -5 90 -23 127 -31 62 -87 119
-146 148 -59 28 -163 36 -222 16z"/>
<path d="M13024 2426 c-217 -71 -283 -344 -123 -505 64 -63 120 -86 214 -86
94 0 155 25 216 87 62 64 84 120 84 213 0 63 -5 90 -23 127 -31 62 -87 119
-146 148 -59 28 -163 36 -222 16z"/>
<path d="M17904 2426 c-217 -71 -283 -344 -123 -505 64 -63 120 -86 214 -86
94 0 155 25 216 87 62 64 84 120 84 213 0 63 -5 90 -23 127 -31 62 -87 119
-146 148 -59 28 -163 36 -222 16z"/>
<path d="M19124 2426 c-60 -19 -130 -72 -163 -125 -100 -156 -42 -360 127
-443 47 -23 50 -23 432 -23 l385 0 49 24 c61 30 117 87 148 149 18 37 23 64
23 127 0 63 -5 90 -23 127 -31 62 -87 119 -148 149 -49 24 -50 24 -419 26
-284 2 -380 -1 -411 -11z"/>
<path d="M8754 1816 c-60 -19 -130 -72 -163 -125 -100 -156 -42 -360 127 -443
47 -23 50 -23 432 -23 l385 0 49 24 c61 30 117 87 148 149 33 67 33 187 0 254
-31 62 -87 119 -148 149 -49 24 -50 24 -419 26 -284 2 -380 -1 -411 -11z"/>
<path d="M15464 1816 c-60 -19 -130 -72 -163 -125 -100 -156 -42 -360 127
-443 47 -23 50 -23 432 -23 l385 0 49 24 c61 30 117 87 148 149 18 37 23 64
23 127 0 63 -5 90 -23 127 -31 62 -87 119 -148 149 -49 24 -50 24 -419 26
-284 2 -380 -1 -411 -11z"/>
<path d="M20344 1816 c-217 -71 -283 -344 -123 -505 64 -63 120 -86 214 -86
94 0 155 25 216 87 62 64 84 120 84 213 0 63 -5 90 -23 127 -31 62 -87 119
-146 148 -59 28 -163 36 -222 16z"/>
</g>
</svg>
