<?xml version="1.0" standalone="no"?>
<!DOCTYPE svg PUBLIC "-//W3C//DTD SVG 20010904//EN"
 "http://www.w3.org/TR/2001/REC-SVG-20010904/DTD/svg10.dtd">
<svg version="1.0" xmlns="http://www.w3.org/2000/svg"
 width="700.000000pt" height="700.000000pt" viewBox="0 0 700.000000 700.000000"
 preserveAspectRatio="xMidYMid meet">
<metadata>
Created by potrace 1.11, written by Peter Selinger 2001-2013
</metadata>
<g transform="translate(0.000000,700.000000) scale(0.100000,-0.100000)"
fill="#000000" stroke="none">
<path d="M3305 6979 c-174 -37 -207 -53 -615 -289 -146 -84 -292 -169 -325
-187 -33 -19 -67 -38 -75 -43 -33 -21 -241 -140 -245 -140 -2 0 -24 -13 -48
-30 -25 -16 -47 -30 -50 -30 -3 0 -72 -39 -154 -86 -81 -48 -169 -99 -194
-113 -25 -14 -111 -64 -192 -111 -81 -47 -155 -89 -165 -95 -294 -167 -493
-287 -529 -319 -127 -117 -193 -198 -258 -319 -36 -66 -85 -193 -90 -232 -2
-11 -9 -49 -16 -85 -11 -53 -14 -320 -14 -1405 0 -1335 1 -1349 30 -1485 2 -8
13 -44 25 -80 67 -199 214 -393 385 -510 60 -41 490 -292 640 -375 28 -15 55
-31 60 -35 6 -4 26 -17 45 -27 19 -11 149 -86 289 -167 139 -80 257 -146 262
-146 5 0 9 -4 9 -10 0 -5 4 -10 9 -10 9 0 325 -180 460 -262 34 -21 65 -38 68
-38 3 0 31 -15 62 -34 31 -19 72 -43 91 -54 19 -11 76 -43 125 -72 253 -147
394 -189 617 -185 148 3 186 9 297 45 106 34 180 73 546 284 160 93 436 253
615 356 179 103 341 197 360 209 19 11 42 24 50 28 8 4 48 26 88 50 40 24 77
43 82 43 6 0 10 5 10 10 0 6 4 10 10 10 14 0 575 326 655 381 125 86 248 225
321 362 34 65 80 186 89 237 3 14 7 36 10 50 17 75 19 265 19 1445 0 1226 -3
1360 -24 1434 -5 17 -7 31 -5 31 9 0 -56 172 -89 235 -101 194 -249 335 -496
472 -30 17 -122 70 -205 118 -82 48 -170 99 -195 113 -25 14 -99 56 -165 95
-66 38 -133 77 -150 87 -91 52 -304 175 -330 191 -16 10 -46 26 -65 37 -19 11
-134 77 -255 147 -121 71 -245 142 -275 158 -30 17 -67 38 -82 49 -14 10 -28
18 -31 18 -2 0 -65 36 -140 80 -295 172 -405 209 -637 215 -94 2 -148 -2 -215
-16z m435 -1222 c14 -3 48 -8 75 -11 77 -9 125 -19 265 -51 35 -8 179 -54 226
-72 93 -36 119 -48 240 -109 532 -267 935 -734 1130 -1307 34 -100 68 -223 79
-287 3 -19 8 -42 10 -50 38 -139 43 -518 10 -750 -12 -85 -16 -105 -40 -200
-34 -137 -43 -163 -90 -285 -293 -759 -960 -1301 -1770 -1439 -203 -35 -523
-40 -700 -11 -16 3 -41 7 -55 9 -14 2 -36 7 -50 10 -14 3 -37 8 -51 10 -82 13
-323 89 -414 130 -16 8 -54 24 -82 36 -29 12 -50 26 -47 31 3 5 -2 6 -10 3 -9
-3 -16 -2 -16 4 0 5 -10 12 -22 16 -40 10 -207 114 -321 200 -284 213 -509
486 -670 811 -50 99 -127 293 -142 355 -3 8 -11 40 -20 70 -17 63 -42 181 -50
237 -3 21 -7 47 -10 58 -7 36 -18 208 -19 290 0 87 13 305 19 314 1 3 6 31 10
61 15 128 65 310 132 480 314 800 1053 1358 1913 1446 30 3 56 7 58 8 5 5 384
-1 412 -7z"/>
<path d="M3410 4708 c-411 -41 -762 -287 -945 -662 -60 -122 -88 -212 -112
-361 -11 -66 -7 -265 7 -345 72 -426 371 -779 780 -922 185 -64 413 -80 605
-43 69 13 204 55 256 78 l56 26 -4 -42 c-2 -23 -6 -61 -9 -84 -3 -24 -5 -44
-5 -45 2 -8 -50 -181 -67 -225 -58 -144 -156 -290 -266 -397 -64 -62 -198
-166 -215 -166 -5 0 -11 -4 -13 -8 -6 -16 -205 -105 -258 -117 -8 -1 -33 -8
-55 -14 -180 -47 -460 -41 -615 14 -25 9 -40 11 -35 6 16 -16 189 -69 293 -91
261 -53 517 -48 782 16 508 121 938 465 1173 939 123 248 180 499 181 790 0
588 -304 1148 -806 1484 -42 28 -79 51 -82 51 -3 0 -31 12 -62 26 -164 75
-394 111 -584 92z m210 -572 c44 -6 111 -27 164 -51 176 -82 299 -244 342
-450 7 -32 7 -156 0 -202 -35 -225 -209 -419 -438 -490 -36 -11 -90 -17 -168
-16 -97 0 -126 4 -187 25 -192 67 -336 213 -396 403 -32 101 -31 263 2 360 35
105 77 173 155 250 84 83 178 135 286 160 41 9 80 18 85 20 11 2 115 -3 155
-9z"/>
</g>
</svg>
