<svg id="Layer_1" data-name="Layer 1" xmlns="http://www.w3.org/2000/svg" viewBox="0 0 745.36 46.56"><defs><style>.cls-1{fill:#fff;}</style></defs><title>site-logo-white</title><polygon class="cls-1" points="674.12 1.51 659.03 23.48 674.12 45.45 685.64 45.45 669.83 23.48 685.64 1.51 674.12 1.51"/><rect class="cls-1" x="644.67" y="1.51" width="9.96" height="43.91"/><path class="cls-1" d="M615,16V15.88a13.75,13.75,0,0,0-3.68-9.95c-2.86-2.89-7.22-4.42-12.61-4.42H578.25V45.45h9.85V9.72h9.81c5,0,7.92,2.43,7.92,6.67v0.13c0,4.07-3,7-7.73,7h-5.64l15.18,22h11.57L606.65,28.66C611.42,26.19,615,21.77,615,16Z"/><rect class="cls-1" y="1.11" width="9.75" height="44.33"/><polygon class="cls-1" points="97.59 45.48 106.72 45.48 106.72 28.06 127.87 28.06 127.87 18.8 106.72 18.8 106.72 10.38 130.72 10.38 130.72 1.12 97.59 1.12 97.59 45.48"/><rect class="cls-1" x="159.66" y="1.11" width="9.75" height="44.33"/><rect class="cls-1" x="257.08" y="1.11" width="9.75" height="44.33"/><polygon class="cls-1" points="296.02 10.44 309.2 10.44 309.2 45.45 318.95 45.45 318.95 10.44 332.13 10.44 332.13 1.12 296.02 1.12 296.02 10.44"/><polygon class="cls-1" points="377.84 18.91 367.27 1.11 355.87 1.11 372.9 27.96 372.9 45.45 382.66 45.45 382.66 27.78 399.69 1.11 388.61 1.11 377.84 18.91"/><polygon class="cls-1" points="468.36 32.63 468.25 32.31 458.1 1.51 450.35 1.51 440.08 32.63 439.98 32.3 430.6 1.64 421.05 1.64 435.9 45.45 443.79 45.45 454.09 15.57 464.4 45.45 472.29 45.45 487.13 1.64 477.84 1.64 468.36 32.63"/><path class="cls-1" d="M528.24,0.22c-13.26,0-23.65,10.08-23.65,22.94v0.13c0,13,10.11,22.81,23.52,22.81S551.76,36,551.76,23.16V23C551.76,10,541.65.22,528.24,0.22Zm14,23.07c0,8.26-6,14.48-14,14.48s-14.1-6.42-14.1-14.61V23c0-8.26,6-14.48,14-14.48S542.21,15,542.21,23.16v0.13Z"/><polygon class="cls-1" points="35.96 0 35.96 13.13 73.67 46.56 73.67 33.43 35.96 0"/><path class="cls-1" d="M727.21,0.23h0Z"/><path class="cls-1" d="M727.53,38h0Z"/><path class="cls-1" d="M727.21,0.23h0Z"/><polygon class="cls-1" points="194.39 0 194.39 13.13 232.1 46.56 232.1 33.43 194.39 0"/><path class="cls-1" d="M729.18,46.1c10,0,16.18-4.75,16.18-13.2V32.77c0-8-5.82-10.92-14-13.46-7.22-1.94-9.93-3.32-9.93-6.55V12.63c0-2.53,2.28-4.17,5.84-4.25a51.1,51.1,0,0,1,14.41,2.35V2.58A51.81,51.81,0,0,0,727.49.23c-9.13.12-15.26,4.89-15.26,12.81v0.13c0.56,8.21,6.63,10.9,15.06,13.46,7.29,1.88,9.13,3.49,9.13,6.37v0.13c0,2.83-2.86,4.79-7.05,4.79h-1.82a51.51,51.51,0,0,1-14.29-2.35v8.19A50.38,50.38,0,0,0,727.8,46.1h1.38Z"/></svg>