<?xml version="1.0" encoding="utf-8"?>
<!-- Generator: Adobe Illustrator 26.1.0, SVG Export Plug-In . SVG Version: 6.00 Build 0)  -->
<svg version="1.1" id="Layer_1" xmlns="http://www.w3.org/2000/svg" xmlns:xlink="http://www.w3.org/1999/xlink" x="0px" y="0px"
	 viewBox="0 0 1892.82 358.15" style="enable-background:new 0 0 1892.82 358.15;" xml:space="preserve">
<g>
	<path d="M100.9,345.1c-40.87,0-66-6.29-80.15-17.27c-11.62-8.9-9.01-31.49,4.18-53.96c12.47,7.33,36.66,18.81,73.83,18.81
		c23.1,0,38.32-4.18,38.32-19.4c0-15.75-13.7-18.81-46.15-25.05c-41.97-8.47-72.24-26.27-72.24-71.27
		c0-44.1,37.68-72.37,95.28-72.37c37.73,0,64.93,8.37,81.19,15.21c-4.66,37.22-14.15,44.02-25.66,44.02
		c-15.75,0-28.27-8.37-57.07-8.37c-22.06,0-34.13,6.29-34.13,19.37c0,15.69,15.8,17.83,38.29,21.98
		c51.85,9.97,81.75,28.83,81.75,73.89C198.34,311.07,173.69,345.1,100.9,345.1 M371.16,341.42V192.66c0-28.3-18.3-37.2-39.25-37.2
		c-21.98,0-41.35,8.9-41.35,37.2v148.76h-61.34V195.83c0-73.97,51.88-91.23,93.87-91.23c41.33,0,64.88,11.54,79.06,32
		c16.2-20.46,37.17-32,78.55-32c41.97,0,94.83,17.27,94.83,91.23v144.55c-9.97,2.08-18.92,2.58-26.17,2.58
		c-28.38,0-36.13-7.86-36.13-21.98V192.66c0-28.83-18.92-37.2-39.33-37.2c-21.5,0-41.41,8.9-41.41,37.2v148.76H371.16z
		 M710.69,345.63c-70.72,0-102.13-22.03-102.13-72.79c0-51.93,41.86-71.3,104.18-71.3c20.44,0,29.95,0,39.91,0.56v-9.43
		c0-26.22-23.58-36.18-43.51-36.18c-23.05,0-38.8,7.89-55.05,16.79c-12.52,5.28-27.79,2.64-38.74-36.16
		c20.94-18.31,55.5-32.51,101.62-32.51c55.55,0,95.36,29.87,95.36,87.5v146.71C797.13,342.46,759.45,345.63,710.69,345.63
		 M716.47,243.98c-41.89,0-48.23,11.51-48.23,27.76c0,15.69,8.85,25.69,46.68,25.69c15.69,0,27.77-0.48,37.73-1.57v-51.37
		C745.81,243.98,731.07,243.98,716.47,243.98 M852.18,198.92c0-71.75,44.52-91.66,92.11-91.66c22.54,0,33.6,1.57,33.6,1.57
		c0.45,35.6-3.68,50.79-17.75,50.79h-15.85c-21.42,0-30.88,12.1-30.88,42.47v139.32h-61.23V198.92z M1121.42,303.69
		c0,25.69-1.07,40.9-49.8,40.9c-42.98,0-72.23-16.76-72.23-76.47V85.23c0-20.94,19.32-27.76,61.26-36.66v60.27h62.35
		c1.04,45.03-5.17,49.77-20.38,49.77h-41.97v101.06c0,24.11,7.35,33.01,29.84,33.54c8.45,0,22.65-0.53,30.4-2.05
		C1121.42,295.86,1121.42,300.07,1121.42,303.69 M1153.42,99.89c3.14-65.47,50.28-87.45,98.51-87.45c23.5,0,33.52,1.04,42.37,2.08
		c0.51,34.56-3.68,50.28-17.75,50.28h-22.06c-26.75,0-39.78,11.54-39.78,41.38v2.66h63.33c3.17,45.56-5.22,49.77-20.94,49.77h-42.39
		v182.81h-61.28V99.89z M1293.28,198.92c0-71.75,47.16-91.66,96.91-91.66c22.49,0,34.5,1.57,34.5,1.57
		c0.61,35.6-3.54,50.79-17.74,50.79h-16.76c-24.11,0-35.57,12.6-35.57,42.47v139.32h-61.34V198.92z M1546.83,345.63
		c-73.89,0-118.92-43.51-118.92-118.97c0-76.98,50.25-122.06,111.64-122.06c82.71,0,103.68,58.16,103.68,120.03
		c0,5.73,0,11.99-0.53,18.28h-152.99c1.09,29.39,24.09,50.31,62.38,50.31c36.69,0,55.02-13.08,68.61-24.59
		c8.87,12.58,14.18,23,14.18,31.44c0,8.9-3.7,16.17-10.55,22.49C1610.76,335.11,1585.04,345.63,1546.83,345.63 M1489.71,200.5h96.45
		c-1.12-23.53-10.53-47.19-46.6-47.19C1508.07,153.31,1490.27,176.97,1489.71,200.5 M1878.38,340.38
		c-9.86,2.08-18.73,2.58-26.11,2.58c-28.3,0-36.21-7.86-36.21-21.98V192.66c0-28.83-19.32-37.2-40.26-37.2
		c-20.92,0-40.31,8.9-40.31,37.2v148.76h-61.39V195.83c0-70.8,51.93-91.23,101.7-91.23c49.72,0,102.58,17.27,102.58,91.23V340.38z"
		/>
</g>
</svg>
