<?xml version="1.0" encoding="utf-8"?>
<!-- Generator: Adobe Illustrator 16.0.0, SVG Export Plug-In . SVG Version: 6.00 Build 0)  -->
<!DOCTYPE svg PUBLIC "-//W3C//DTD SVG 1.1//EN" "http://www.w3.org/Graphics/SVG/1.1/DTD/svg11.dtd">
<svg version="1.1" id="Layer_2" xmlns="http://www.w3.org/2000/svg" xmlns:xlink="http://www.w3.org/1999/xlink" x="0px" y="0px"
	 width="513px" height="150px" viewBox="0 -25.788 513 150" enable-background="new 0 -25.788 513 150" xml:space="preserve">
<g>
	<path d="M162.084,45.685c0.313-1.916,0.313-1.916,1.958-2.619c1.008,1.055,2.055,2.149,3.146,3.291
		c0.079-0.147,0.193-0.289,0.233-0.45c0.324-1.306,0.498-2.666,0.979-3.91c0.716-1.856,1.307-3.788,2.636-5.368
		c0.757-0.9,1.574-1.553,2.782-1.67c0.739-0.07,1.467-0.281,2.205-0.361c1.67-0.179,2.026,0.074,2.462,1.721
		c0.13,0.492,0.269,1.014,0.236,1.512c-0.142,2.216,0.39,4.355,0.673,6.521c0.301,2.312,0.928,4.539,1.914,6.741
		c0.123-0.856,0.352-1.713,0.347-2.567c-0.019-3.008,0.659-5.928,1.024-8.885c0.137-1.107,0.214-2.224,0.317-3.334
		c0.075-0.812,0.562-1.269,1.319-1.418c1.222-0.242,2.451-0.443,3.681-0.654c1.468-0.25,2.119,0.052,2.85,1.326
		c0.155,0.269,0.266,0.562,0.445,0.95c0.499-0.358,0.896-0.672,1.317-0.942c1.709-1.088,2.921-0.541,3.686,0.763
		c1.485,2.532,3.088,5,3.93,7.854c0.143,0.479,0.352,0.939,0.572,1.52c0.643-0.401,0.646-1.008,0.773-1.495
		c0.654-2.521,1.148-5.087,1.934-7.563c0.534-1.688,1.371-2.361,3.023-1.703c0.551,0.22,1.268,0.021,1.91,0.014
		c0.687-0.008,1.392-0.124,2.054,0c1.639,0.304,1.999,0.85,1.832,2.533c-0.041,0.414-0.141,0.828-0.262,1.227
		c-1.077,3.564-2.12,7.141-3.267,10.682c-0.588,1.812-1.512,3.522-2.028,5.353c-1.129,4.001-2.559,7.883-4.118,11.729
		c-0.507,1.248-0.862,2.562-1.224,3.861c-1.473,5.311-3.364,10.473-5.52,15.538c-0.613,1.445-1.207,1.771-2.742,1.374
		c-1.352-0.347-2.677-0.799-4.003-1.232c-0.303-0.101-0.59-0.287-0.843-0.484c-0.759-0.594-0.846-1.069-0.372-1.938
		c1.136-2.089,2.295-4.162,3.412-6.26c0.393-0.736,0.689-1.525,1.035-2.289c0.769-1.689,1.647-3.343,2.29-5.08
		c1.293-3.496,2.188-7.076,2.3-10.857c0.074-2.471-2.922-5.102-5.286-4.922c-1.174,0.09-2.271,0.763-2.242,2.252
		c0.049,2.561-0.012,5.125-0.125,7.686c-0.069,1.575-0.249,3.154-0.509,4.71c-0.319,1.906-1.141,2.597-3.044,2.543
		c-1.487-0.041-2.974-0.229-4.45-0.426c-0.729-0.097-1.22-0.548-1.5-1.294c-0.655-1.74-1.425-3.438-2.078-5.178
		c-0.391-1.041-0.596-2.149-0.982-3.191c-0.478-1.292-1.059-2.545-1.688-3.787c-0.342,1.504,0.099,2.939,0.226,4.393
		c0.208,2.367,0.476,4.729,0.698,7.095c0.063,0.67-0.016,1.305-0.677,1.715c-0.544,0.338-1.069,0.507-1.699,0.188
		c-0.935-0.477-1.822-0.744-2.882-0.069c-0.395,0.252-1.276-0.044-1.828-0.312c-0.729-0.354-0.729-1.258-0.128-2.068
		c0.477-0.646,1.476-0.877,2.317-0.711c0.611,0.121,1.266,0.022,2.092,0.022c0-0.51,0.038-0.954-0.007-1.39
		c-0.31-3.059-0.645-6.11-0.951-9.167c-0.06-0.603-0.052-1.214-0.035-1.817c0.026-0.958,0.332-1.824,0.918-2.593
		c0.803-1.052,1.491-1.116,2.388-0.113c0.492,0.552,0.99,1.162,1.256,1.837c1.089,2.764,2.461,5.414,3.163,8.34
		c0.299,1.248,1.149,2.355,1.498,3.601c0.447,1.598,1.218,2.532,2.988,2.366c0.263-0.023,0.54,0.146,0.816,0.178
		c0.812,0.089,1.164-0.143,1.219-0.946c0.156-2.274,0.255-4.556,0.385-6.831c0.158-2.791,0.3-5.582,0.494-8.369
		c0.264-3.767,0.563-7.528,0.864-11.291c0.089-1.115,0.271-2.223,0.344-3.338c0.094-1.397-0.343-1.719-1.625-1.279
		c-0.221,0.076-0.431,0.221-0.653,0.242c-0.839,0.082-1.008,0.608-1.08,1.348c-0.402,4.128-0.838,8.252-1.284,12.376
		c-0.105,0.971-0.271,1.938-0.455,2.896c-0.068,0.356-0.223,0.717-0.42,1.022c-0.47,0.729-1.112,1.411-2.007,1.31
		c-0.851-0.096-1.148-0.957-1.48-1.688c-1.52-3.337-2.247-6.861-2.695-10.48c-0.234-1.89-0.675-3.751-0.633-5.673
		c0.006-0.312-0.115-0.627-0.174-0.92c-2.152-0.366-3.314,0.127-4.125,1.959c-0.753,1.697-1.372,3.458-1.967,5.219
		c-0.186,0.555-0.135,1.2-0.125,1.803c0.014,0.955-0.271,1.729-1.114,2.25c-0.151,0.093-0.27,0.24-0.426,0.387
		c0.291,1.289,0.556,2.562,0.868,3.824c0.782,3.158,1.039,6.354,0.518,9.568c-0.312,1.936-0.893,3.775-2.188,5.366
		c-1.107,1.354-2.455,2.244-4.077,2.781c-0.794,0.263-1.608,0.466-2.405,0.724c-2.021,0.655-3.963,0.273-5.849-0.495
		c-1.509-0.616-2.987-1.307-4.079-2.608c-0.21-0.252-0.606-0.348-1.003-0.562c-0.506,1.031-1.058,1.9-1.373,2.85
		c-0.78,2.353-2.085,4.34-3.76,6.138c-1.853,1.989-3.88,3.761-6.193,5.187c-0.507,0.312-1.089,0.545-1.668,0.688
		c-1.037,0.252-2.091,0.441-3.147,0.592c-2.534,0.361-5.23-1.883-5.159-4.26c0.044-1.506,1.52-3.194,2.979-3.41
		c1.1-0.163,1.92,0.293,2.279,1.354c0.232,0.689,0.36,1.414,0.54,2.146c1.977-1.021,4.471-4.594,5.156-7.403
		c-0.53-0.116-1.053-0.264-1.587-0.338c-0.459-0.063-0.932-0.019-1.396-0.065c-1.16-0.119-1.514-0.39-1.582-1.539
		c-0.115-1.952-0.133-3.914-0.162-5.873c-0.024-1.538,0.044-3.079-0.021-4.614c-0.033-0.808-0.264-1.603-0.565-2.356
		c-0.321,1.202-0.549,2.439-0.996,3.594c-0.311,0.801-0.84,1.56-1.419,2.201c-0.805,0.896-1.689,0.842-2.549,0.012
		c-0.909-0.879-1.752-1.78-2.079-3.076c-0.131-0.52-0.526-0.967-0.977-1.754c-0.227,0.72-0.461,1.156-0.488,1.605
		c-0.071,1.207-0.04,2.422-0.073,3.633c-0.055,2,0.025,4.021-0.236,5.994c-0.281,2.135-0.959,2.465-2.886,2.342
		c-1.019-0.065-2.043-0.062-3.06-0.146c-1.327-0.109-1.859-0.646-2.133-1.959c-0.482-2.307-0.444-4.633-0.315-6.965
		c0.082-1.488,0.138-2.979,0.029-4.523c-0.138,0.293-0.292,0.58-0.411,0.881c-0.936,2.381-1.945,4.736-2.776,7.153
		c-0.983,2.858-1.807,5.771-2.707,8.655c-0.844,2.711-1.691,5.418-2.551,8.121c-0.126,0.396-0.321,0.773-0.501,1.15
		c-0.234,0.493-0.677,0.688-1.162,0.557c-1.294-0.358-2.576-0.766-3.853-1.186c-0.437-0.144-0.837-0.396-1.262-0.578
		c-0.943-0.41-1.176-0.854-0.895-1.867c0.149-0.537,0.374-1.053,0.549-1.582c0.95-2.869,1.875-5.748,2.85-8.607
		c0.845-2.48,1.326-5.038,1.745-7.613c0.022-0.136,0.026-0.281,0.005-0.416c-0.085-0.555-0.128-1.19-0.788-1.349
		c-0.632-0.151-0.888,0.427-1.147,0.849c-1.177,1.914-2.466,3.754-4.202,5.188c-2.455,2.027-5.084,3.863-8.275,4.467
		c-3.184,0.604-6.305,0.12-9.229-1.324c-1.156-0.57-2.339-1.076-3.228-2.134c-1.579-1.879-1.99-4.009-1.403-6.276
		c0.594-2.297,1.432-4.535,2.768-6.537c0.385-0.575,0.832-1.11,1.345-1.791c-0.256-0.362-0.522-0.782-0.831-1.17
		c-2.442-3.068-3.228-6.563-2.555-10.375c0.472-2.676,1.784-4.897,4.165-6.33c1.931-1.16,4.089-1.592,6.314-1.448
		c1.431,0.092,2.869,0.336,4.262,0.68c1.5,0.37,2.787,1.243,4.043,2.128c0.414,0.292,0.831,0.582,1.275,0.893
		c0.742-1.219,1.414-2.385,2.149-3.506c0.354-0.541,0.791-1.043,1.261-1.487c0.928-0.88,1.772-0.915,2.686,0.015
		c0.673,0.686,1.322,1.479,1.711,2.344c1.22,2.717,2.292,5.5,3.468,8.236c0.323,0.751,0.814,1.432,1.379,2.4
		c0.518-0.739,0.95-1.211,1.215-1.762c1.053-2.181,2.004-4.41,3.089-6.574c0.664-1.326,1.449-2.601,2.277-3.832
		c0.626-0.93,0.859-0.883,1.895-0.607c0.842,0.225,1.72,0.346,2.59,0.428c1.587,0.149,2.037,0.588,1.696,2.157
		c-0.344,1.586-0.838,3.147-1.368,4.683c-0.578,1.672-1.277,3.304-1.914,4.955c-0.116,0.301-0.319,0.649-0.256,0.924
		c0.273,1.197-0.227,2.291-0.325,3.433c-0.227,2.64-0.288,5.293-0.417,7.938c-0.082,1.677-0.147,3.354-0.248,5.024
		c-0.098,1.638-0.063,3.259,0.299,4.869c0.146,0.651,0.452,0.991,1.128,0.979c0.6-0.008,1.2,0,1.917,0
		c0.076-0.445,0.196-0.843,0.203-1.24c0.03-1.771,0.062-3.543,0.029-5.313c-0.05-2.679,0.422-5.183,2.097-7.372
		c0.789-1.031,1.245-1.086,2.233-0.174c0.99,0.914,1.538,2.092,2.05,3.296c0.531,1.25,0.528,1.252,1.217,1.827
		c0.483-0.475,0.782-1.064,0.765-1.721c-0.029-1.096,0.489-1.98,0.955-2.885c0.349-0.679,0.912-1.18,1.681-1.385
		c1.363-0.359,2.15,0.02,2.578,1.381c0.793,2.531,0.853,5.146,0.646,7.76c-0.144,1.824-0.056,3.613,0.343,5.521
		c0.994,0,1.997,0,3.104,0c0.429-1.154,0.913-2.359,1.314-3.593c0.185-0.565,0.289-1.187,0.292-1.781
		c0.027-6.01,0.063-12.021,0.007-18.028c-0.016-1.752,0.074-3.563-0.771-5.207c-0.223-0.435-0.522-0.828-0.822-1.297
		c-1.584,1.049-2.358,2.519-3.229,3.942c-1.599,2.615-3.184,5.255-5.002,7.716c-1.388,1.879-3.799,1.701-5.294-0.929
		c-0.475-0.835-0.718-1.812-0.998-2.744c-0.529-1.76-0.62-3.683-2.023-5.106c-0.249-0.252-0.351-0.648-0.56-1.057
		c0.273-0.505,0.521-1.058,0.853-1.554c0.478-0.714,1.106-0.789,1.562-0.103c0.713,1.07,1.503,2.098,1.742,3.448
		c0.268,1.511,0.658,3.007,1.129,4.466c0.247,0.766,0.529,1.754,1.463,1.905c0.866,0.142,1.223-0.783,1.605-1.364
		c1.278-1.943,2.487-3.935,3.672-5.936c0.998-1.688,1.924-3.401,3.555-4.613c1.538-1.143,3.232-0.887,4.094,0.842
		c0.723,1.451,1.347,2.954,1.368,4.653c0.027,2.282,0.172,4.562,0.278,6.843c0.021,0.456,0.093,0.908,0.149,1.428
		c0.658-0.047,0.975-0.195,1.177-0.826c0.549-1.721,1.265-3.389,1.84-5.104c0.458-1.365,0.875-2.755,1.184-4.16
		c0.364-1.652,0.854-3.246,1.788-4.66c1.008-1.525,2.231-2.935,3.812-3.812c2.045-1.135,4.306-1.323,6.434-0.145
		c1.349,0.748,2.288,2.058,2.583,3.515c0.376,1.858,0.445,3.803-0.647,5.56c-0.56,0.901-1.236,1.606-2.284,1.94
		c-1.318,0.42-2.506,0.043-3.251-1.125c-0.319-0.502-0.506-1.134-1.288-1.187c-1.039,0.541-1.302,1.609-1.57,2.619
		c-0.478,1.795-0.938,3.603-1.266,5.428c-0.427,2.381-0.69,4.787-1.076,7.175c-0.236,1.467-0.356,3.002-0.901,4.356
		c-1.226,3.049,0.785,7.381,3.551,8.521c0.47,0.195,0.906,0.466,1.37,0.674c2.265,1.014,4.368,0.242,6.469-0.59
		c2.298-0.905,3.408-2.696,3.936-5.023c0.537-2.375,0.358-4.742,0.009-7.084c-0.31-2.066-0.869-4.099-1.379-6.131
		c-0.339-1.352-1.23-2.396-2.196-3.345C163.193,46.235,162.653,46.028,162.084,45.685z M83.574,54.729
		c-0.258,0.623-0.362,1.268-0.725,1.688c-1.547,1.788-2.312,3.878-2.676,6.172c-0.289,1.816,0.388,3.133,1.873,4.148
		c1.37,0.938,2.867,1.578,4.475,1.877c1.868,0.346,3.803,0.781,5.65,0.08c1.639-0.623,3.228-1.424,4.744-2.312
		c1.07-0.626,2.141-1.391,2.926-2.332c1.275-1.529,2.306-3.263,3.461-4.895c0.738-1.043,0.932-2.2,0.902-3.445
		c-0.048-2.012-1.434-3.484-3.429-3.369c-2.564,0.151-5.006-0.3-7.396-1.15c-1.185-0.424-2.422-0.809-3.127-1.965
		c-0.25-0.41-0.435-0.928-0.439-1.396c-0.003-0.352,0.257-0.881,0.541-1.003c0.261-0.111,0.741,0.165,1.07,0.36
		c0.75,0.445,1.415,1.071,2.208,1.396c1.112,0.457,2.293,0.778,3.473,1.028c2.175,0.461,4.158-1.243,3.917-3.346
		c-0.078-0.684-0.241-1.408-0.567-2.002c-1.145-2.086-2.52-3.953-4.529-5.377c-2.818-1.996-5.845-2.818-9.229-2.244
		c-4.605,0.779-6.559,3.793-6.168,8.149c0.346,3.86,2.334,6.817,6.124,8.29c0.216,0.083,0.426,0.191,0.627,0.309
		c1.387,0.812,2.833,1.354,4.554,0.924c0.265,0.543,0.607,1.016,0.723,1.535c0.212,0.949-0.666,1.938-1.462,1.707
		c-1.068-0.312-2.131-0.649-3.169-1.048C86.459,55.944,85.019,55.319,83.574,54.729z M106.206,57.413
		c0.709,0.465,1.215,0.686,1.571,1.052c1.139,1.173,1.244,2.711,1.042,4.169c-0.615,4.446-2.104,8.672-3.542,12.9
		c-0.434,1.275-0.9,2.542-1.346,3.812c-0.245,0.701-0.009,1.188,0.693,1.422c0.6,0.203,1.206,0.388,1.846,0.59
		c0.153-0.344,0.262-0.545,0.335-0.758c0.765-2.246,1.541-4.488,2.278-6.744c0.477-1.453,0.888-2.93,1.34-4.391
		c0.702-2.266,1.294-4.576,2.152-6.781c1.095-2.813,2.193-5.617,3.102-8.506c1.621-5.146,3.416-10.238,5.127-15.357
		c0.274-0.82,0.491-1.661,0.73-2.479c-2.377-0.861-2.615-0.766-3.561,1.322c-0.058,0.127-0.116,0.254-0.174,0.381
		c-1.063,2.329-2.087,4.678-3.207,6.979c-0.464,0.955-1.047,1.884-1.73,2.692c-1.469,1.741-2.444,1.611-3.625-0.346
		c-0.815-1.353-1.468-2.761-2.01-4.259c-0.805-2.223-1.856-4.358-2.881-6.494c-0.259-0.54-0.549-1.221-1.524-1.32
		c-0.79,1.424-1.608,2.896-2.512,4.523c2.664,2.756,2.82,6.177,2.167,9.802C106.219,51.158,106.896,54.082,106.206,57.413z
		 M190.734,83.972c0.8,0.271,1.407,0.484,2.021,0.678c0.459,0.144,0.833,0.012,1.057-0.433c0.188-0.372,0.386-0.743,0.533-1.135
		c0.674-1.786,1.344-3.574,1.99-5.371c0.742-2.06,1.468-4.12,2.182-6.188c0.912-2.64,1.806-5.282,2.708-7.926
		c0.993-2.906,1.978-5.815,2.983-8.721c0.396-1.143,0.83-2.271,1.268-3.396c0.336-0.867,0.775-1.701,1.048-2.588
		c0.861-2.803,1.671-5.621,2.488-8.438c0.281-0.969,0.528-1.945,0.84-3.096c-1.497-0.281-2.734,0.328-4.109,0.14
		c-0.511,1.868-1.012,3.649-1.483,5.438c-0.297,1.123-0.532,2.263-0.83,3.387c-0.237,0.892-0.807,1.562-1.549,2.091
		c-1.181,0.837-2.51,0.479-3.104-0.823c-0.309-0.676-0.789-1.32-0.911-2.027c-0.469-2.707-2.112-4.834-3.376-7.146
		c-0.474-0.869-0.905-0.908-1.629-0.18c-0.457,0.462-0.747,1.152-1.274,1.461c-0.824,0.48-0.985,1.154-1.023,1.971
		c-0.086,1.77-0.168,3.538-0.278,5.305c-0.064,1.021-0.229,2.039-0.265,3.061c-0.051,1.457,0.132,1.588,1.556,1.688
		c0.832,0.061,1.696,0.104,2.478,0.362c3.834,1.272,5.667,3.474,5.505,7.379c-0.012,0.279-0.025,0.56-0.031,0.839
		c-0.063,3.165-0.917,6.195-1.982,9.109c-1.16,3.173-2.733,6.197-4.173,9.264c-0.61,1.305-1.347,2.551-2.008,3.831
		C191.153,82.912,190.999,83.347,190.734,83.972z"/>
	<path d="M342.431,61.833c-0.562-0.238-1.022-0.438-1.595-0.677c-0.422,0.577-0.799,1.149-1.229,1.68
		c-1.414,1.729-3.172,2.756-5.479,2.412c-1.995-0.298-3.5-1.24-3.97-3.374c-0.102-0.454-0.178-0.936-0.385-1.34
		c-1.092-2.139-1.278-4.471-1.514-6.786c-0.174-1.716-0.3-3.438-0.358-5.162c-0.08-2.263,0.167-4.465,1.471-6.433
		c1.145-1.727,2.758-2.061,4.402-0.799c1.562,1.196,2.599,2.785,3.156,4.664c0.332,1.115,0.574,2.258,0.873,3.383
		c0.068,0.26,0.206,0.5,0.339,0.813c0.946-0.235,1.832-0.457,2.771-0.69c0.025-0.317,0.104-0.596,0.057-0.85
		c-0.271-1.418-0.454-2.867-0.887-4.236c-1.709-5.402-4.885-8.244-10.249-8.617c-2.235-0.155-3.903,1.066-5.05,2.938
		c-0.484,0.79-0.826,1.666-1.246,2.497c-0.121,0.24-0.241,0.521-0.444,0.674c-0.396,0.299-0.839,0.688-1.388,0.368
		c-0.564-0.33-0.459-0.877-0.289-1.373c1.364-3.985,4.322-7.176,8.889-7.325c1.484-0.047,3.086,0.383,4.472,0.978
		c4.385,1.885,6.934,5.321,7.8,10c0.322,1.737,0.621,3.483,0.846,5.235c0.146,1.129-0.275,1.623-1.391,1.875
		c-1.63,0.369-3.265,0.729-4.898,1.076c-0.869,0.184-1.177,0.016-1.415-0.883c-0.215-0.811-0.319-1.646-0.485-2.468
		c-0.331-1.651-0.739-3.278-1.659-4.722c-0.479-0.748-1.002-1.449-1.97-1.76c-0.793,0.709-1.108,1.643-1.133,2.618
		c-0.046,2.046-0.006,4.095,0.04,6.142c0.074,3.302,0.89,6.441,2.087,9.506c0.412,1.054,1.072,1.769,2.201,1.888
		c1.197,0.126,2.214-0.231,2.798-1.405c0.203-0.41,0.442-0.803,0.755-1.363c-0.443-0.201-0.783-0.404-1.15-0.515
		c-0.688-0.202-1.405-0.312-2.088-0.532c-0.604-0.191-1.006-1.055-0.815-1.586c0.272-0.76,1.141-1.297,1.851-1.065
		c1.194,0.387,2.379,0.812,3.553,1.26c1.912,0.729,3.809,1.491,5.719,2.226c0.868,0.334,1.755,0.621,2.629,0.942
		c0.856,0.313,1.292,0.82,1.187,1.345c-0.134,0.643-1.119,1.135-1.946,0.947c-0.362-0.083-0.709-0.229-1.066-0.337
		c-0.312-0.094-0.628-0.174-1.016-0.278c-0.157,0.264-0.347,0.521-0.475,0.805c-0.665,1.484-1.317,2.976-1.97,4.467
		c-0.235,0.547-0.608,1.125,0.263,1.538c0.688-0.663,1.476-0.71,2.396-0.54c1.454,0.265,2.939,0.363,4.41,0.543
		c0.745,0.09,0.938-0.482,1.176-0.979c0.576-1.219,1.132-2.445,1.698-3.668c0.079-0.17,0.169-0.332,0.256-0.496
		c0.346-0.658,0.863-1.227,1.615-1.127c0.833,0.107,1.146,0.846,1.295,1.629c0.792,4.148,2.661,7.934,4.062,11.875
		c0.027,0.08,0.121,0.135,0.314,0.344c1.096-0.641,2.229-1.303,3.236-1.889c-1.353-3.156-2.737-6.154-3.921-9.232
		c-0.981-2.557-1.649-5.229-2.592-7.805c-0.729-1.998-1.399-4.047-2.934-5.66c-0.684-0.719-0.595-1.359,0.146-2.064
		c1.045-0.995,2.157-1.919,3.188-2.927c1.666-1.63,2.73-3.688,3.525-5.812c0.646-1.731,0.046-2.445-1.239-3.117
		c-2.395-1.25-4.896-2.031-7.621-1.953c-1.291,0.037-2.582,0.084-3.984,0.13c0.062,1.354,0.118,2.551,0.171,3.747
		c0.076,1.722,0.204,3.443,0.204,5.166c0.001,1.015-0.208,2.027-0.307,3.044c-0.217,2.226-0.425,4.452-0.631,6.679
		c-0.102,1.061-0.364,1.348-1.311,1.473c-0.506,0.065-0.831-0.112-0.925-0.606c-0.078-0.405-0.15-0.829-0.12-1.237
		c0.141-1.812,0.218-3.634,0.499-5.425c0.483-3.071,0.385-6.131,0.046-9.194c-0.137-1.24-0.374-2.472-0.611-3.697
		c-0.214-1.086,0.379-1.961,1.509-2.025c2.138-0.124,4.279-0.287,6.42-0.273c3.048,0.018,5.876,0.934,8.434,2.58
		c2.217,1.426,2.703,2.691,1.715,5.252c-0.947,2.459-2.222,4.826-4.285,6.619c-0.811,0.702-1.613,1.406-2.351,2.049
		c0.699,1.562,1.285,2.814,1.823,4.09c0.378,0.896,0.695,1.82,1.032,2.734c0.418,1.135,0.838,2.27,1.239,3.408
		c0.263,0.744,0.539,1.486,0.731,2.252c0.71,2.826,2.104,5.369,3.282,8c0.534,1.193,1.176,2.277,2.369,3.021
		c1.056,0.654,0.851,1.47-0.324,1.99c-1.781,0.795-3.575,1.543-5.25,2.582c-2.416,1.5-2.951,1.285-3.96-1.367
		c-1.007-2.646-1.93-5.326-2.896-7.989c-0.152-0.425-0.331-0.841-0.633-1.604c-0.396,0.942-0.712,1.548-0.911,2.188
		c-0.499,1.598-1.399,2.152-3.001,1.832c-1.138-0.229-2.288-0.395-3.433-0.586c-0.091-0.016-0.188-0.018-0.278-0.025
		c-1.944-0.211-2.927-0.543-4.463-1.566c-0.432,0.543-0.89,1.099-1.327,1.668c-1.812,2.364-4.037,3.998-7.157,3.992
		c-1.9-0.004-3.702-0.522-5.293-1.537c-1.168-0.746-2.188-1.719-3.271-2.598c-0.351-0.283-0.679-0.593-1.206-1.057
		c-0.054,0.615-0.127,1.008-0.112,1.396c0.02,0.464,0.109,0.925,0.173,1.386c0.336,2.443-0.017,2.972-2.489,3.334
		c-2.302,0.338-4.613,0.58-6.925,0.836c-1.096,0.119-1.396-0.155-1.502-1.297c-0.168-1.854-0.268-3.718-0.484-5.564
		c-0.245-2.077-0.583-4.145-0.898-6.211c-0.054-0.357-0.188-0.702-0.51-1.066c-0.064,0.33-0.174,0.659-0.188,0.991
		c-0.051,1.397-0.062,2.798-0.109,4.194c-0.018,0.466-0.074,0.934-0.169,1.388c-0.255,1.226-0.676,1.591-1.888,1.632
		c-1.577,0.055-3.157,0.09-4.735,0.114c-1.065,0.017-1.381-0.228-1.722-1.254c-0.125-0.382-0.23-0.769-0.551-1.136
		c-0.062,0.289-0.108,0.582-0.188,0.865c-0.271,0.971-0.816,1.444-1.814,1.404c-1.769-0.072-3.531-0.227-5.3-0.334
		c-0.6-0.038-1.202-0.092-1.798-0.057c-1.393,0.082-1.968-0.211-2.381-1.584c-0.471-1.562-0.854-3.15-1.182-4.748
		c-1.164-5.707-2.289-11.422-3.428-17.133c-0.662-3.332-1.307-6.668-2.012-9.99c-0.098-0.461-0.439-0.906-0.766-1.272
		c-0.84-0.942-0.951-1.628-0.305-2.452c0.559-0.709,1.432-0.837,2.368-0.408c0.367,0.168,0.786,0.322,1.183,0.318
		c1.437-0.014,2.873-0.099,4.312-0.154c0.233-0.011,0.466-0.028,0.698-0.021c1.66,0.047,1.979,0.453,2.087,2.089
		c0.132,2.037,0.394,4.065,0.614,6.097c0.261,2.408,0.533,4.815,0.809,7.224c0.057,0.493,0.148,0.985,0.477,1.489
		c0.252-1.012,0.562-2.012,0.744-3.032c0.534-2.981,1.016-5.974,1.524-8.96c0.194-1.145,0.396-2.289,0.61-3.43
		c0.271-1.435,1.043-1.888,2.496-1.617c1.826,0.341,3.672,0.601,5.508,0.902c0.272,0.045,0.548,0.113,0.812,0.203
		c0.93,0.316,1.099,0.542,1.05,1.529c-0.043,0.871-0.141,1.738-0.243,2.953c1.201-0.918,2.129-1.652,3.083-2.346
		c0.713-0.518,1.423-1.062,2.203-1.453c2.058-1.028,4.814-0.282,5.956,1.748c0.647,1.151,1.104,2.482,1.333,3.789
		c0.696,3.943,1.329,7.904,1.815,11.881c0.435,3.559,0.69,7.141,0.924,10.721c0.096,1.479,0.669,2.729,1.586,3.754
		c1.423,1.591,2.952,3.104,4.569,4.496c1.582,1.363,3.544,1.757,5.618,1.598c1.643-0.125,2.786-1.154,3.667-2.33
		c1.88-2.509,3.386-5.248,4.213-8.309C342.369,62.354,342.379,62.171,342.431,61.833z M307.697,69.007
		c0.093-0.543,0.214-1.025,0.251-1.518c0.157-2.135,0.21-4.278,0.472-6.396c0.095-0.771,0.533-1.6,1.045-2.208
		c0.937-1.108,2.02-0.907,2.831,0.328c0.869,1.32,1.254,2.812,1.477,4.329c0.501,3.452,0.934,6.915,1.384,10.375
		c0.113,0.889,0.325,1.124,1.292,1.001c1.338-0.169,2.666-0.428,3.993-0.678c0.25-0.05,0.474-0.234,0.661-0.333
		c-0.324-4.455-0.671-8.818-0.961-13.188c-0.405-6.137-1.214-12.223-2.372-18.261c-0.241-1.271-0.559-2.562-1.083-3.739
		c-0.806-1.808-2.827-2.263-4.406-1.079c-1.297,0.971-2.688,1.892-3.748,3.09c-1.08,1.225-2.334,2.418-2.759,4.115
		c-0.135,0.541-0.223,1.096-0.366,1.633c-0.741,2.736-1.447,5.476-1.746,8.312c-0.17,1.616-0.484,3.22-0.78,4.821
		c-0.251,1.361-0.564,2.709-0.867,4.137c1.262,0.134,1.649,0.799,1.703,1.886c0.043,0.869,0.354,1.726,0.532,2.591
		c0.112,0.539,0.437,0.789,0.983,0.783C306.011,69,306.79,69.007,307.697,69.007z M285.805,36.021c0,0.463-0.05,0.789,0.008,1.097
		c0.41,2.243,0.836,4.483,1.271,6.721c0.742,3.843,1.477,7.688,2.246,11.522c0.561,2.785,1.162,5.561,1.758,8.339
		c0.271,1.274,0.545,2.553,0.87,3.815c0.272,1.072,0.449,1.164,1.535,1.225c1.112,0.061,2.227,0.185,3.341,0.203
		c0.622,0.015,1.245-0.131,1.835-0.198c0.222-1.351,0.37-2.501,0.603-3.638c0.641-3.146,1.545-6.263,1.92-9.438
		c0.57-4.843,2.039-9.458,3.117-14.171c0.36-1.58,0.965-3.123,0.672-4.778c-1.25-0.65-3.535-0.896-4.91-0.523
		c-0.076,0.342-0.17,0.701-0.235,1.063c-0.661,3.617-1.295,7.239-1.983,10.849c-0.367,1.923-0.806,3.832-1.256,5.735
		c-0.238,1.011-0.609,1.974-1.611,2.509c-0.7,0.375-1.071,0.283-1.49-0.42c-0.898-1.514-1.242-3.215-1.449-4.92
		c-0.5-4.115-0.906-8.24-1.365-12.359c-0.098-0.864-0.254-1.721-0.392-2.633C288.801,36.021,287.379,36.021,285.805,36.021z"/>
	<path d="M244.109,44.647c1.569-1.901,2.974-3.763,4.548-5.467c1.382-1.498,2.866-2.912,4.89-3.603
		c2.908-0.994,5.467-0.259,7.657,1.665c0.703,0.617,1.165,1.74,1.332,2.701c0.741,4.271,0.675,8.56-0.742,12.688
		c-0.95,2.768-2.116,5.463-4.051,7.762c-1.285,1.525-2.265,3.324-3.635,4.76c-1.82,1.902-3.87,3.591-5.864,5.322
		c-0.442,0.385-1.061,0.57-1.604,0.838c-0.792,0.39-1.537,0.766-2.029,1.607c-0.46,0.79-1.885,0.782-2.555,0.081
		c-2.178-2.283-4.449-4.487-6.476-6.899c-2.747-3.271-5.345-6.684-6.975-10.689c-1.844-4.537-2.551-9.234-1.659-14.094
		c0.526-2.869,3.084-5.867,5.863-5.979c0.72-0.027,1.49,0.049,2.164,0.284c1.734,0.606,3.24,1.554,4.354,3.101
		c1.196,1.658,2.498,3.242,3.768,4.849C243.373,43.925,243.712,44.229,244.109,44.647z"/>
	<path d="M386.815,61.246c-0.123,1.758-0.247,3.515-0.375,5.334c-0.26,0.144-0.53,0.305-0.814,0.442
		c-0.723,0.353-1.504-0.054-1.63-0.854c-0.036-0.227-0.015-0.468,0.006-0.697c0.167-1.951,0.294-3.906,0.533-5.848
		c0.127-1.027,0.555-1.971,1.445-2.623c1.103-0.811,1.865-0.639,2.418,0.626c1.022,2.345,1.99,4.715,3.017,7.062
		c0.688,1.574,1.448,3.117,2.146,4.688c0.234,0.526,0.578,0.724,1.146,0.84c2.156,0.448,4.263,0.06,6.489-0.188
		c0.052-1.037,0.177-2.049,0.139-3.055c-0.12-3.168-0.352-6.33-0.44-9.498c-0.06-2.142,0.009-4.287,0.094-6.43
		c0.132-3.352,0.345-6.699,0.486-10.05c0.062-1.384,0.121-2.777-0.179-4.248c-1.28,0.058-2.471,0.108-3.722,0.165
		c-0.082,0.373-0.208,0.679-0.21,0.984c-0.013,1.767,0.048,3.533-0.001,5.297c-0.04,1.443-0.15,2.888-0.312,4.32
		c-0.287,2.543-0.65,5.074-0.956,7.613c-0.172,1.434-0.253,2.877-0.438,4.309c-0.088,0.684-0.174,1.444-0.528,2
		c-0.848,1.326-2.686,0.99-3.289-0.609c-0.455-1.212-0.76-2.486-1.062-3.75c-0.436-1.811-0.719-3.66-1.22-5.45
		c-1.213-4.334-1.86-8.743-2.007-13.235c-0.017-0.504-0.078-1.01-0.13-1.631c-0.916-0.058-1.777-0.111-2.787-0.176
		c-0.146,0.482-0.381,0.943-0.421,1.423c-0.273,3.3-0.803,6.562-1.364,9.82c-0.079,0.478-0.257,0.794-0.688,0.942
		c-0.47,0.162-0.956,0.276-1.555,0.445c0,0.569-0.051,1.215,0.008,1.85c0.3,3.436,0.513,6.871,1.14,10.276
		c0.479,2.608,0.692,5.267,1.008,7.905c0.107,0.9-0.172,1.441-1.021,1.747c-0.648,0.231-1.353,0.399-2.036,0.426
		c-2.131,0.087-4.268,0.082-6.4,0.132c-1.471,0.034-1.76-0.23-1.878-1.75c-0.108-1.419-0.062-2.861-0.793-4.258
		c-0.101,0.837-0.222,1.671-0.293,2.51c-0.04,0.463,0.001,0.932,0.015,1.398c0.016,0.648-0.27,1.049-0.915,1.208
		c-0.405,0.1-0.832,0.198-1.187,0.407c-0.979,0.578-1.854,0.386-2.703-0.188c-0.044-0.862-0.044-0.862,1.146-2.707
		c0.271,0.119,0.543,0.238,0.896,0.394c0.146-1.289,0.266-2.479,0.42-3.668c0.197-1.496,0.905-2.621,2.379-3.18
		c1.302-0.492,2.226-0.158,2.633,1.189c0.399,1.328,0.614,2.715,0.877,4.084c0.128,0.681,0.173,1.376,0.259,2.094
		c2.034,0.689,4.002-0.312,6.062,0.186c-0.04-0.549-0.051-0.905-0.095-1.262c-0.635-5.133-1.302-10.261-1.898-15.396
		c-0.247-2.127-0.312-4.274-0.529-6.407c-0.204-1.992-0.463-3.981-0.779-5.959c-0.162-1.011-0.531-1.964-1.317-2.715
		c-1.126-1.073-2.555-1.183-3.781-0.251c-1.559,1.178-2.424,2.832-3.046,4.601c-1.1,3.116-1.966,6.318-3.162,9.396
		c-0.878,2.258-1.274,4.557-1.49,6.927c-0.032,0.349-0.136,0.844-0.375,0.985c-0.447,0.265-1.057,0.51-1.528,0.416
		c-0.601-0.121-0.469-0.812-0.462-1.314c0.034-2.4,0.59-4.702,1.36-6.959c1.188-3.48,2.35-6.973,3.59-10.436
		c0.753-2.104,1.985-3.938,3.832-5.224c3.412-2.373,7.188-1.17,8.513,2.544c0.857,2.401,0.972,4.93,1.229,7.432
		c0.027,0.274,0.044,0.551,0.246,0.859c0.106-0.531,0.218-1.062,0.324-1.595c0.116-0.59,0.271-1.177,0.346-1.772
		c0.247-1.94,0.463-3.887,0.696-5.83c0.033-0.277,0.071-0.56,0.156-0.822c0.788-2.416,1.642-2.405,3.389-2.127
		c0.87,0.14,1.759,0.232,2.639,0.231c1.386,0,1.681,0.248,1.754,1.687c0.088,1.723,0.151,3.449,0.297,5.166
		c0.301,3.541,1.022,7.002,2.047,10.406c0.31,1.022,0.489,2.084,0.741,3.125c0.085,0.351,0.21,0.688,0.559,1.034
		c0.13-0.845,0.265-1.688,0.383-2.534c0.257-1.845,0.6-3.686,0.731-5.541c0.198-2.738,0.245-5.488,0.356-8.232
		c0.045-1.117,0.053-2.238,0.142-3.352c0.103-1.26,0.646-1.662,1.919-1.674c1.675-0.015,3.354-0.031,5.021-0.167
		c1.68-0.136,1.715-0.179,2.535,1.372c0.5-0.309,1.005-0.628,1.591-0.078c0.188,0.178,0.623,0.139,0.939,0.131
		c2.05-0.055,4.101-0.097,6.146-0.201c2.42-0.123,4.835-0.346,7.256-0.438c1.013-0.039,2.049,0.075,3.048,0.259
		c0.912,0.166,1.135,0.533,1.163,1.477c0.012,0.414-0.076,0.83-0.097,1.248c-0.117,2.418-0.229,4.836-0.344,7.253
		c-0.015,0.278-0.04,0.559-0.074,0.837c-0.199,1.578-1.309,2.311-2.888,1.902c-1.169-0.303-2.328-0.644-3.507-0.906
		c-1.071-0.239-1.343-0.106-1.633,0.951c-0.206,0.752-0.295,1.559-0.297,2.34c-0.011,3.322,0.485,6.6,1.031,9.861
		c0.527,3.166,1.166,6.312,1.753,9.467c0.185,0.996-0.07,1.455-1.1,1.506c-0.964,0.049-1.955-0.061-2.904-0.243
		c-1.554-0.302-3.061-0.121-4.576,0.174c-1.704,0.33-2.396-0.255-2.34-1.928c0.149-4.427,0.625-8.822,1.233-13.205
		c0.064-0.461,0.107-0.931,0.095-1.394c-0.078-2.621,0.177-5.211,0.601-7.793c0.137-0.828,0.207-1.688-0.647-2.322
		c-1.635,0.734-3.354,1.307-4.65,2.676c-0.607,0.643-0.958,1.328-0.999,2.227c-0.215,4.805-0.156,9.596,0.275,14.393
		c0.184,2.027,0.066,4.093-0.032,6.134c-0.066,1.358-0.767,2.112-2.09,2.095c-2.185-0.031-4.37,0.438-6.556-0.06
		c-0.537-0.123-1.114-0.101-1.674-0.091c-0.919,0.02-1.485-0.434-1.817-1.25c-0.246-0.604-0.498-1.205-0.753-1.808
		c-0.962-2.27-1.918-4.542-2.896-6.806c-0.175-0.403-0.44-0.77-0.664-1.148C387.04,61.172,386.928,61.209,386.815,61.246z
		 M403.728,45.112c0.557-0.312,0.862-0.508,1.19-0.664c1.171-0.561,2.312-1.209,3.53-1.635c1.772-0.619,2.69-0.109,3.389,1.643
		c0.373,0.939,0.348,1.898,0.222,2.887c-0.229,1.801-0.438,3.606-0.591,5.414c-0.103,1.204-0.03,2.426-0.149,3.625
		c-0.304,2.965-0.696,5.919-0.997,8.885c-0.101,0.967-0.045,1.952-0.017,2.93c0.008,0.291,0.171,0.578,0.249,0.824
		c1.815,0,3.507,0,5.284,0c-0.035-0.437-0.034-0.752-0.089-1.062c-0.847-4.723-1.618-9.454-2.001-14.239
		c-0.163-2.03-0.44-4.077,0.235-6.097c0.331-0.993,0.9-1.698,1.829-2.165c0.845-0.424,1.677-0.415,2.572-0.192
		c1.063,0.264,2.127,0.66,3.234,0.454c0.356-1.112,0.63-7.211,0.324-8.223c-5.896,0.177-11.842,0.354-17.979,0.958
		C403.894,40.534,403.815,42.694,403.728,45.112z"/>
	<path d="M65.288,31.28c-1.501-1.004-1.699-2.574-2.002-4.059c-0.404-1.974-0.076-3.88,0.724-5.72
		c0.296-0.682,0.504-1.4,0.789-2.087c0.584-1.407,1.479-2.568,2.756-3.428c0.9-0.607,1.425-0.646,2.267,0.025
		c0.758,0.605,1.497,1.243,2.185,1.926c0.728,0.722,0.685,1.198-0.07,1.876c-0.277,0.248-0.571,0.481-0.883,0.684
		c-1.679,1.096-2.479,2.846-3.377,4.521c-0.238,0.445-0.468,0.91-0.608,1.392c-0.138,0.477-0.27,1-0.21,1.479
		C67.099,29.845,67.108,29.885,65.288,31.28z"/>
	<path d="M433.897,34.287c-0.045-1.651-0.28-3.259-1.623-4.425c-0.837-0.728-1.709-1.416-2.587-2.094
		c-1.408-1.086-1.336-2.142,0.066-2.917c0.759-0.419,1.646-0.606,2.481-0.882c0.396-0.131,0.811-0.211,1.209-0.339
		c1.827-0.585,1.862-0.576,2.823,1.137c0.915,1.629,1.161,3.365,0.96,5.219c-0.146,1.326-0.134,2.675-0.142,4.014
		c-0.006,1.025-0.465,1.79-1.289,2.303c-0.974,0.605-1.736,0.217-1.896-0.912C433.854,35.03,433.897,34.655,433.897,34.287z"/>
	<path d="M443.837,23.674c-0.2,1.894-0.32,3.802-0.641,5.673c-0.124,0.727-0.596,1.473-1.104,2.031
		c-0.637,0.7-1.386,0.414-1.604-0.523c-0.307-1.31-0.497-2.649-0.861-3.941c-0.56-1.985-0.882-4.113-2.771-5.437
		c-0.22-0.153-0.369-0.418-0.521-0.65c-0.514-0.778-0.382-1.406,0.408-1.867c1.414-0.828,2.979-1.032,4.573-0.959
		c0.347,0.015,0.85,0.318,0.982,0.62C443.018,20.228,443.858,21.817,443.837,23.674z"/>
	<path d="M74.794,23.267c0.393,0.162,0.81,0.199,0.953,0.416c0.644,0.976,1.706,1.409,2.553,2.114
		c0.311,0.259,0.581,0.609,0.763,0.97c0.32,0.635,0.192,1.139-0.471,1.371c-2.815,0.989-4.496,3.223-6.145,5.491
		c-0.398,0.548-0.798,1.009-1.476,1.194c-0.869,0.238-1.326,0.039-1.288-0.867c0.052-1.242,0.249-2.496,0.542-3.706
		c0.581-2.392,1.706-4.521,3.44-6.29C73.966,23.653,74.415,23.494,74.794,23.267z"/>
</g>
</svg>
