<?xml version="1.0" encoding="utf-8"?>
<!-- Generator: Adobe Illustrator 16.0.0, SVG Export Plug-In . SVG Version: 6.00 Build 0)  -->
<!DOCTYPE svg PUBLIC "-//W3C//DTD SVG 1.1//EN" "http://www.w3.org/Graphics/SVG/1.1/DTD/svg11.dtd">
<svg version="1.1" id="Layer_2" xmlns="http://www.w3.org/2000/svg" xmlns:xlink="http://www.w3.org/1999/xlink" x="0px" y="0px"
	 width="513px" height="150px" viewBox="0 0 513 150" enable-background="new 0 0 513 150" xml:space="preserve">
<g>
	<path fill-rule="evenodd" clip-rule="evenodd" d="M162.084,69.685c0.313-1.916,0.313-1.916,1.958-2.62
		c1.008,1.055,2.055,2.15,3.146,3.292c0.079-0.148,0.193-0.29,0.233-0.451c0.324-1.306,0.498-2.666,0.979-3.91
		c0.716-1.856,1.307-3.788,2.636-5.368c0.757-0.9,1.574-1.553,2.782-1.67c0.739-0.071,1.467-0.281,2.205-0.361
		c1.67-0.179,2.026,0.074,2.462,1.72c0.13,0.492,0.269,1.014,0.236,1.512c-0.142,2.216,0.39,4.355,0.673,6.521
		c0.301,2.312,0.928,4.539,1.914,6.742c0.123-0.856,0.352-1.713,0.347-2.568c-0.019-3.008,0.659-5.927,1.024-8.885
		c0.137-1.107,0.214-2.223,0.317-3.334c0.075-0.812,0.562-1.268,1.319-1.417c1.222-0.242,2.451-0.444,3.681-0.655
		c1.468-0.25,2.119,0.052,2.85,1.326c0.155,0.269,0.266,0.563,0.445,0.951c0.499-0.359,0.896-0.672,1.317-0.942
		c1.709-1.089,2.921-0.542,3.686,0.762c1.485,2.532,3.088,5,3.93,7.854c0.143,0.48,0.352,0.94,0.572,1.52
		c0.643-0.401,0.646-1.007,0.773-1.495c0.654-2.52,1.148-5.087,1.934-7.563c0.534-1.688,1.371-2.362,3.023-1.703
		c0.551,0.219,1.268,0.021,1.91,0.013c0.687-0.008,1.392-0.124,2.054,0c1.639,0.304,1.999,0.849,1.832,2.533
		c-0.041,0.415-0.141,0.829-0.262,1.227c-1.077,3.564-2.12,7.14-3.267,10.681c-0.588,1.813-1.512,3.523-2.028,5.353
		c-1.129,4.001-2.559,7.883-4.118,11.729c-0.507,1.247-0.862,2.561-1.224,3.862c-1.473,5.31-3.364,10.471-5.52,15.538
		c-0.613,1.445-1.207,1.769-2.742,1.374c-1.352-0.347-2.677-0.799-4.003-1.233c-0.303-0.1-0.59-0.287-0.843-0.485
		c-0.759-0.593-0.846-1.069-0.372-1.937c1.136-2.088,2.295-4.162,3.412-6.259c0.393-0.737,0.689-1.526,1.035-2.289
		c0.769-1.691,1.647-3.343,2.29-5.08c1.293-3.498,2.188-7.077,2.3-10.859c0.074-2.47-2.922-5.1-5.286-4.921
		c-1.174,0.089-2.271,0.762-2.242,2.252c0.049,2.56-0.012,5.125-0.125,7.685c-0.069,1.575-0.249,3.154-0.509,4.71
		c-0.319,1.906-1.141,2.597-3.044,2.543c-1.487-0.041-2.974-0.229-4.45-0.426c-0.729-0.097-1.22-0.548-1.5-1.294
		c-0.655-1.74-1.425-3.437-2.078-5.178c-0.391-1.04-0.596-2.149-0.982-3.191c-0.478-1.292-1.059-2.545-1.688-3.787
		c-0.342,1.504,0.099,2.94,0.226,4.393c0.208,2.366,0.476,4.728,0.698,7.093c0.063,0.67-0.016,1.305-0.677,1.715
		c-0.544,0.338-1.069,0.507-1.699,0.187c-0.935-0.475-1.822-0.743-2.882-0.069c-0.395,0.252-1.276-0.043-1.828-0.31
		c-0.729-0.354-0.729-1.258-0.128-2.07c0.477-0.646,1.476-0.876,2.317-0.71c0.611,0.12,1.266,0.023,2.092,0.023
		c0-0.51,0.038-0.954-0.007-1.39c-0.31-3.057-0.645-6.11-0.951-9.167c-0.06-0.602-0.052-1.212-0.035-1.817
		c0.026-0.958,0.332-1.826,0.918-2.593c0.803-1.051,1.491-1.116,2.388-0.113c0.492,0.551,0.99,1.162,1.256,1.836
		c1.089,2.764,2.461,5.415,3.163,8.339c0.299,1.248,1.149,2.357,1.498,3.601c0.447,1.598,1.218,2.533,2.988,2.366
		c0.263-0.023,0.54,0.147,0.816,0.178c0.812,0.089,1.164-0.143,1.219-0.946c0.156-2.275,0.255-4.556,0.385-6.832
		c0.158-2.79,0.3-5.582,0.494-8.369c0.264-3.766,0.563-7.528,0.864-11.29c0.089-1.115,0.271-2.223,0.344-3.338
		c0.094-1.398-0.343-1.719-1.625-1.279c-0.221,0.075-0.431,0.22-0.653,0.242c-0.839,0.082-1.008,0.608-1.08,1.347
		c-0.402,4.128-0.838,8.252-1.284,12.376c-0.105,0.971-0.271,1.938-0.455,2.896c-0.068,0.356-0.223,0.717-0.42,1.022
		c-0.47,0.729-1.112,1.412-2.007,1.31c-0.851-0.096-1.148-0.958-1.48-1.689c-1.52-3.337-2.247-6.862-2.695-10.481
		c-0.234-1.89-0.675-3.751-0.633-5.673c0.006-0.312-0.115-0.627-0.174-0.92c-2.152-0.366-3.314,0.127-4.125,1.959
		c-0.753,1.697-1.372,3.458-1.967,5.219c-0.186,0.554-0.135,1.2-0.125,1.803c0.014,0.954-0.271,1.729-1.114,2.249
		c-0.151,0.093-0.27,0.241-0.426,0.387c0.291,1.289,0.556,2.562,0.868,3.823c0.782,3.159,1.039,6.356,0.518,9.57
		c-0.312,1.934-0.893,3.775-2.188,5.366c-1.107,1.356-2.455,2.244-4.077,2.781c-0.794,0.263-1.608,0.466-2.405,0.724
		c-2.021,0.655-3.963,0.274-5.849-0.495c-1.509-0.617-2.987-1.307-4.079-2.61c-0.21-0.251-0.606-0.347-1.003-0.562
		c-0.506,1.031-1.058,1.901-1.373,2.85c-0.78,2.351-2.085,4.339-3.76,6.137c-1.853,1.99-3.88,3.76-6.193,5.185
		c-0.507,0.312-1.089,0.546-1.668,0.687c-1.037,0.252-2.091,0.442-3.147,0.592c-2.534,0.361-5.23-1.883-5.159-4.26
		c0.044-1.506,1.52-3.194,2.979-3.41c1.1-0.163,1.92,0.293,2.279,1.354c0.232,0.689,0.36,1.414,0.54,2.146
		c1.977-1.02,4.471-4.594,5.156-7.403c-0.53-0.117-1.053-0.264-1.587-0.338c-0.459-0.064-0.932-0.019-1.396-0.066
		c-1.16-0.118-1.514-0.389-1.582-1.538c-0.115-1.954-0.133-3.915-0.162-5.873c-0.024-1.539,0.044-3.08-0.021-4.616
		c-0.033-0.806-0.264-1.602-0.565-2.356c-0.321,1.202-0.549,2.439-0.996,3.592c-0.311,0.801-0.84,1.56-1.419,2.203
		c-0.805,0.896-1.689,0.841-2.549,0.01c-0.909-0.878-1.752-1.78-2.079-3.076c-0.131-0.518-0.526-0.966-0.977-1.754
		c-0.227,0.72-0.461,1.157-0.488,1.607c-0.071,1.207-0.04,2.421-0.073,3.632c-0.055,2,0.025,4.02-0.236,5.995
		c-0.281,2.133-0.959,2.464-2.886,2.34c-1.019-0.065-2.043-0.061-3.06-0.146c-1.327-0.11-1.859-0.646-2.133-1.959
		c-0.482-2.306-0.444-4.632-0.315-6.965c0.082-1.488,0.138-2.977,0.029-4.523c-0.138,0.293-0.292,0.58-0.411,0.881
		c-0.936,2.38-1.945,4.736-2.776,7.153c-0.983,2.858-1.807,5.771-2.707,8.656c-0.844,2.71-1.691,5.417-2.551,8.121
		c-0.126,0.396-0.321,0.773-0.501,1.151c-0.234,0.493-0.677,0.688-1.162,0.555c-1.294-0.358-2.576-0.764-3.853-1.184
		c-0.437-0.144-0.837-0.395-1.262-0.579c-0.943-0.41-1.176-0.855-0.895-1.867c0.149-0.537,0.374-1.053,0.549-1.582
		c0.95-2.87,1.875-5.748,2.85-8.608c0.845-2.48,1.326-5.038,1.745-7.613c0.022-0.136,0.026-0.281,0.005-0.417
		c-0.085-0.554-0.128-1.191-0.788-1.348c-0.632-0.151-0.888,0.427-1.147,0.848c-1.177,1.914-2.466,3.755-4.202,5.189
		c-2.455,2.027-5.084,3.863-8.275,4.466c-3.184,0.603-6.305,0.12-9.229-1.324c-1.156-0.571-2.339-1.076-3.228-2.134
		c-1.579-1.879-1.99-4.008-1.403-6.276c0.594-2.297,1.432-4.535,2.768-6.537c0.385-0.576,0.832-1.111,1.345-1.791
		c-0.256-0.363-0.522-0.783-0.831-1.17c-2.442-3.069-3.228-6.565-2.555-10.376c0.472-2.676,1.784-4.898,4.165-6.33
		c1.931-1.161,4.089-1.592,6.314-1.449c1.431,0.092,2.869,0.336,4.262,0.68c1.5,0.37,2.787,1.243,4.043,2.128
		c0.414,0.292,0.831,0.582,1.275,0.893c0.742-1.22,1.414-2.385,2.149-3.507c0.354-0.54,0.791-1.042,1.261-1.487
		c0.928-0.879,1.772-0.915,2.686,0.015c0.673,0.685,1.322,1.478,1.711,2.343c1.22,2.717,2.292,5.5,3.468,8.237
		c0.323,0.751,0.814,1.431,1.379,2.4c0.518-0.739,0.95-1.21,1.215-1.761c1.053-2.181,2.004-4.411,3.089-6.575
		c0.664-1.326,1.449-2.6,2.277-3.832c0.626-0.93,0.859-0.883,1.895-0.607c0.842,0.225,1.72,0.345,2.59,0.427
		c1.587,0.15,2.037,0.589,1.696,2.158c-0.344,1.586-0.838,3.147-1.368,4.683c-0.578,1.672-1.277,3.303-1.914,4.955
		c-0.116,0.301-0.319,0.649-0.256,0.924c0.273,1.196-0.227,2.291-0.325,3.432c-0.227,2.639-0.288,5.293-0.417,7.94
		c-0.082,1.676-0.147,3.352-0.248,5.024c-0.098,1.638-0.063,3.258,0.299,4.869c0.146,0.651,0.452,0.991,1.128,0.981
		c0.6-0.008,1.2-0.001,1.917-0.001c0.076-0.445,0.196-0.842,0.203-1.24c0.03-1.771,0.062-3.544,0.029-5.314
		c-0.05-2.678,0.422-5.183,2.097-7.372c0.789-1.031,1.245-1.086,2.233-0.174c0.99,0.914,1.538,2.092,2.05,3.296
		c0.531,1.25,0.528,1.252,1.217,1.827c0.483-0.474,0.782-1.065,0.765-1.72c-0.029-1.095,0.489-1.981,0.955-2.885
		c0.349-0.678,0.912-1.179,1.681-1.384c1.363-0.361,2.15,0.018,2.578,1.381c0.793,2.531,0.853,5.146,0.646,7.759
		c-0.144,1.824-0.056,3.614,0.343,5.522c0.994,0,1.997,0,3.104,0c0.429-1.155,0.913-2.36,1.314-3.593
		c0.185-0.566,0.289-1.186,0.292-1.781c0.027-6.01,0.063-12.02,0.007-18.029c-0.016-1.752,0.074-3.564-0.771-5.207
		c-0.223-0.434-0.522-0.827-0.822-1.296c-1.584,1.049-2.358,2.518-3.229,3.942c-1.599,2.615-3.184,5.255-5.002,7.716
		c-1.388,1.879-3.799,1.701-5.294-0.929c-0.475-0.835-0.718-1.812-0.998-2.744c-0.529-1.76-0.62-3.683-2.023-5.106
		c-0.249-0.252-0.351-0.649-0.56-1.057c0.273-0.505,0.521-1.058,0.853-1.554c0.478-0.714,1.106-0.789,1.562-0.103
		c0.713,1.071,1.503,2.098,1.742,3.449c0.268,1.51,0.658,3.007,1.129,4.466c0.247,0.766,0.529,1.754,1.463,1.905
		c0.866,0.141,1.223-0.783,1.605-1.365c1.278-1.943,2.487-3.934,3.672-5.935c0.998-1.687,1.924-3.401,3.555-4.613
		c1.538-1.143,3.232-0.887,4.094,0.841c0.723,1.452,1.347,2.955,1.368,4.654c0.027,2.282,0.172,4.562,0.278,6.843
		c0.021,0.456,0.093,0.908,0.149,1.427c0.658-0.047,0.975-0.195,1.177-0.826c0.549-1.721,1.265-3.389,1.84-5.103
		c0.458-1.366,0.875-2.755,1.184-4.16c0.364-1.653,0.854-3.247,1.788-4.661c1.008-1.525,2.231-2.934,3.812-3.812
		c2.045-1.135,4.306-1.323,6.434-0.144c1.349,0.747,2.288,2.057,2.583,3.514c0.376,1.858,0.445,3.803-0.647,5.56
		c-0.56,0.901-1.236,1.606-2.284,1.94c-1.318,0.42-2.506,0.043-3.251-1.125c-0.319-0.502-0.506-1.134-1.288-1.187
		c-1.039,0.542-1.302,1.61-1.57,2.62c-0.478,1.795-0.938,3.602-1.266,5.428c-0.427,2.38-0.69,4.787-1.076,7.175
		c-0.236,1.466-0.356,3.002-0.901,4.357c-1.226,3.049,0.785,7.38,3.551,8.522c0.47,0.194,0.906,0.465,1.37,0.673
		c2.265,1.014,4.368,0.242,6.469-0.589c2.298-0.906,3.408-2.697,3.936-5.025c0.537-2.375,0.358-4.741,0.009-7.083
		c-0.31-2.066-0.869-4.099-1.379-6.131c-0.339-1.352-1.23-2.396-2.196-3.345C163.193,70.235,162.653,70.029,162.084,69.685z
		 M83.574,78.728c-0.258,0.624-0.362,1.268-0.725,1.688c-1.547,1.788-2.312,3.878-2.676,6.172c-0.289,1.816,0.388,3.132,1.873,4.148
		c1.37,0.938,2.867,1.579,4.475,1.877c1.868,0.346,3.803,0.782,5.65,0.081c1.639-0.623,3.228-1.425,4.744-2.312
		c1.07-0.626,2.141-1.391,2.926-2.332c1.275-1.53,2.306-3.263,3.461-4.895c0.738-1.042,0.932-2.2,0.902-3.445
		c-0.048-2.012-1.434-3.486-3.429-3.369c-2.564,0.151-5.006-0.3-7.396-1.152c-1.185-0.423-2.422-0.807-3.127-1.964
		c-0.25-0.411-0.435-0.928-0.439-1.397c-0.003-0.351,0.257-0.881,0.541-1.003c0.261-0.111,0.741,0.165,1.07,0.36
		c0.75,0.446,1.415,1.072,2.208,1.396c1.112,0.457,2.293,0.779,3.473,1.029c2.175,0.46,4.158-1.244,3.917-3.346
		c-0.078-0.684-0.241-1.408-0.567-2.002c-1.145-2.086-2.52-3.954-4.529-5.377c-2.818-1.997-5.845-2.818-9.229-2.245
		c-4.605,0.78-6.559,3.793-6.168,8.15c0.346,3.861,2.334,6.817,6.124,8.29c0.216,0.083,0.426,0.191,0.627,0.309
		c1.387,0.811,2.833,1.353,4.554,0.923c0.265,0.544,0.607,1.015,0.723,1.536c0.212,0.949-0.666,1.938-1.462,1.706
		c-1.068-0.311-2.131-0.65-3.169-1.047C86.459,79.946,85.019,79.321,83.574,78.728z M106.206,81.413
		c0.709,0.465,1.215,0.685,1.571,1.052c1.139,1.172,1.244,2.711,1.042,4.169c-0.615,4.446-2.104,8.67-3.542,12.9
		c-0.434,1.276-0.9,2.542-1.346,3.814c-0.245,0.701-0.009,1.186,0.693,1.422c0.6,0.203,1.206,0.386,1.846,0.589
		c0.153-0.344,0.262-0.545,0.335-0.758c0.765-2.246,1.541-4.488,2.278-6.744c0.477-1.453,0.888-2.929,1.34-4.39
		c0.702-2.266,1.294-4.576,2.152-6.781c1.095-2.815,2.193-5.618,3.102-8.506c1.621-5.146,3.416-10.239,5.127-15.358
		c0.274-0.821,0.491-1.662,0.73-2.479c-2.377-0.862-2.615-0.766-3.561,1.322c-0.058,0.127-0.116,0.254-0.174,0.381
		c-1.063,2.329-2.087,4.677-3.207,6.978c-0.464,0.955-1.047,1.884-1.73,2.693c-1.469,1.741-2.444,1.611-3.625-0.346
		c-0.815-1.352-1.468-2.76-2.01-4.258c-0.805-2.223-1.856-4.359-2.881-6.495c-0.259-0.54-0.549-1.22-1.524-1.32
		c-0.79,1.423-1.608,2.897-2.512,4.524c2.664,2.755,2.82,6.176,2.167,9.801C106.219,75.158,106.896,78.082,106.206,81.413z
		 M190.734,107.971c0.8,0.27,1.407,0.485,2.021,0.678c0.459,0.143,0.833,0.011,1.057-0.432c0.188-0.372,0.386-0.744,0.533-1.135
		c0.674-1.786,1.344-3.574,1.99-5.371c0.742-2.058,1.468-4.12,2.182-6.188c0.912-2.639,1.806-5.283,2.708-7.925
		c0.993-2.907,1.978-5.817,2.983-8.721c0.396-1.142,0.83-2.271,1.268-3.397c0.336-0.867,0.775-1.701,1.048-2.588
		c0.861-2.803,1.671-5.621,2.488-8.438c0.281-0.968,0.528-1.945,0.84-3.096c-1.497-0.281-2.734,0.329-4.109,0.14
		c-0.511,1.868-1.012,3.649-1.483,5.438c-0.297,1.123-0.532,2.263-0.83,3.387c-0.237,0.892-0.807,1.563-1.549,2.091
		c-1.181,0.837-2.51,0.48-3.104-0.823c-0.309-0.676-0.789-1.32-0.911-2.027c-0.469-2.707-2.112-4.834-3.376-7.147
		c-0.474-0.869-0.905-0.908-1.629-0.179c-0.457,0.461-0.747,1.152-1.274,1.46c-0.824,0.481-0.985,1.154-1.023,1.971
		c-0.086,1.77-0.168,3.538-0.278,5.305c-0.064,1.021-0.229,2.038-0.265,3.06c-0.051,1.457,0.132,1.588,1.556,1.689
		c0.832,0.059,1.696,0.103,2.478,0.362c3.834,1.273,5.667,3.473,5.505,7.379c-0.012,0.279-0.025,0.56-0.031,0.839
		c-0.063,3.165-0.917,6.195-1.982,9.109c-1.16,3.173-2.733,6.197-4.173,9.264c-0.61,1.305-1.347,2.55-2.008,3.831
		C191.153,106.912,190.999,107.346,190.734,107.971z"/>
	<path fill-rule="evenodd" clip-rule="evenodd" d="M342.431,85.833c-0.562-0.238-1.024-0.436-1.595-0.677
		c-0.422,0.579-0.799,1.151-1.23,1.68c-1.414,1.728-3.17,2.756-5.478,2.412c-1.995-0.298-3.5-1.24-3.97-3.374
		c-0.1-0.454-0.178-0.934-0.385-1.34c-1.09-2.137-1.278-4.469-1.512-6.786c-0.174-1.716-0.3-3.438-0.36-5.162
		c-0.08-2.263,0.167-4.465,1.471-6.432c1.145-1.727,2.758-2.061,4.402-0.8c1.563,1.197,2.599,2.785,3.158,4.665
		c0.332,1.115,0.574,2.258,0.873,3.383c0.068,0.259,0.206,0.499,0.339,0.813c0.946-0.236,1.832-0.457,2.77-0.691
		c0.025-0.317,0.104-0.596,0.057-0.849c-0.271-1.418-0.454-2.867-0.887-4.236c-1.709-5.403-4.885-8.244-10.249-8.618
		c-2.235-0.155-3.903,1.067-5.05,2.939c-0.484,0.79-0.826,1.666-1.246,2.497c-0.121,0.24-0.241,0.521-0.444,0.673
		c-0.398,0.3-0.839,0.689-1.388,0.369c-0.564-0.33-0.459-0.877-0.289-1.373c1.364-3.986,4.322-7.176,8.889-7.325
		c1.484-0.048,3.086,0.382,4.47,0.977c4.385,1.885,6.934,5.321,7.8,10c0.322,1.738,0.621,3.483,0.846,5.236
		c0.144,1.13-0.277,1.621-1.391,1.873c-1.63,0.369-3.263,0.729-4.898,1.076c-0.869,0.184-1.177,0.016-1.415-0.881
		c-0.215-0.81-0.321-1.646-0.487-2.468c-0.331-1.651-0.739-3.278-1.659-4.722c-0.478-0.748-1.002-1.449-1.969-1.759
		c-0.793,0.709-1.109,1.642-1.132,2.618c-0.046,2.046-0.006,4.094,0.04,6.14c0.074,3.302,0.888,6.443,2.087,9.506
		c0.412,1.054,1.072,1.769,2.201,1.888c1.197,0.126,2.214-0.231,2.798-1.405c0.203-0.41,0.442-0.803,0.754-1.363
		c-0.444-0.203-0.784-0.406-1.151-0.515c-0.688-0.203-1.405-0.314-2.088-0.533c-0.603-0.192-1.006-1.054-0.815-1.585
		c0.272-0.76,1.139-1.298,1.849-1.067c1.196,0.387,2.379,0.813,3.553,1.26c1.912,0.728,3.809,1.491,5.719,2.225
		c0.868,0.333,1.755,0.621,2.629,0.943c0.856,0.314,1.292,0.82,1.185,1.343c-0.133,0.643-1.119,1.136-1.946,0.949
		c-0.362-0.083-0.709-0.229-1.066-0.337c-0.312-0.094-0.628-0.174-1.016-0.279c-0.157,0.263-0.347,0.52-0.475,0.805
		c-0.665,1.484-1.317,2.975-1.968,4.466c-0.237,0.547-0.61,1.125,0.261,1.538c0.688-0.663,1.476-0.709,2.396-0.54
		c1.454,0.265,2.939,0.364,4.41,0.543c0.745,0.09,0.939-0.483,1.176-0.979c0.576-1.217,1.132-2.445,1.698-3.667
		c0.079-0.169,0.169-0.332,0.256-0.497c0.346-0.657,0.863-1.225,1.615-1.126c0.833,0.108,1.146,0.845,1.295,1.628
		c0.792,4.15,2.661,7.934,4.063,11.876c0.027,0.079,0.121,0.135,0.314,0.343c1.096-0.64,2.229-1.302,3.236-1.889
		c-1.351-3.155-2.737-6.154-3.92-9.232c-0.982-2.556-1.65-5.229-2.591-7.804c-0.73-1.998-1.401-4.047-2.934-5.66
		c-0.683-0.719-0.595-1.36,0.146-2.065c1.044-0.995,2.157-1.919,3.188-2.927c1.666-1.63,2.732-3.688,3.526-5.811
		c0.647-1.732,0.045-2.446-1.24-3.118c-2.393-1.25-4.895-2.031-7.621-1.953c-1.291,0.038-2.582,0.084-3.984,0.13
		c0.062,1.354,0.118,2.551,0.171,3.747c0.076,1.722,0.204,3.444,0.204,5.166c0.001,1.015-0.208,2.028-0.307,3.044
		c-0.217,2.226-0.425,4.452-0.631,6.679c-0.1,1.061-0.364,1.348-1.309,1.472c-0.506,0.066-0.831-0.113-0.925-0.607
		c-0.078-0.405-0.151-0.829-0.12-1.237c0.139-1.811,0.218-3.634,0.499-5.425c0.483-3.071,0.385-6.131,0.046-9.194
		c-0.137-1.24-0.374-2.472-0.613-3.697c-0.212-1.087,0.379-1.961,1.509-2.026c2.138-0.124,4.28-0.287,6.42-0.274
		c3.048,0.018,5.876,0.934,8.434,2.58c2.216,1.426,2.703,2.692,1.715,5.252c-0.949,2.459-2.222,4.827-4.287,6.62
		c-0.809,0.702-1.613,1.406-2.349,2.048c0.699,1.562,1.285,2.815,1.823,4.09c0.378,0.897,0.695,1.821,1.032,2.735
		c0.418,1.134,0.838,2.268,1.24,3.408c0.262,0.744,0.54,1.488,0.732,2.252c0.71,2.826,2.104,5.369,3.282,8
		c0.534,1.195,1.176,2.278,2.369,3.022c1.056,0.655,0.851,1.469-0.324,1.991c-1.781,0.795-3.575,1.542-5.25,2.582
		c-2.416,1.499-2.951,1.285-3.96-1.368c-1.007-2.646-1.93-5.326-2.894-7.99c-0.154-0.424-0.331-0.839-0.633-1.602
		c-0.398,0.942-0.712,1.548-0.911,2.188c-0.499,1.598-1.401,2.152-3.001,1.833c-1.138-0.229-2.288-0.395-3.433-0.587
		c-0.091-0.015-0.186-0.016-0.278-0.025c-1.945-0.211-2.927-0.543-4.463-1.567c-0.432,0.543-0.89,1.098-1.327,1.668
		c-1.812,2.365-4.037,3.999-7.157,3.993c-1.902-0.004-3.704-0.523-5.293-1.538c-1.168-0.745-2.189-1.718-3.271-2.597
		c-0.35-0.284-0.679-0.593-1.206-1.056c-0.054,0.615-0.127,1.007-0.112,1.395c0.018,0.464,0.109,0.924,0.173,1.386
		c0.335,2.443-0.017,2.97-2.491,3.333c-2.3,0.339-4.613,0.581-6.924,0.836c-1.095,0.12-1.397-0.156-1.501-1.296
		c-0.168-1.855-0.268-3.718-0.486-5.566c-0.245-2.077-0.583-4.143-0.898-6.211c-0.054-0.357-0.189-0.702-0.51-1.066
		c-0.065,0.33-0.174,0.659-0.187,0.991c-0.05,1.398-0.061,2.798-0.11,4.196c-0.017,0.464-0.074,0.932-0.169,1.386
		c-0.255,1.225-0.676,1.591-1.887,1.632c-1.578,0.054-3.157,0.09-4.736,0.114c-1.065,0.017-1.381-0.226-1.72-1.254
		c-0.126-0.381-0.232-0.767-0.552-1.135c-0.062,0.289-0.109,0.582-0.188,0.866c-0.272,0.97-0.817,1.444-1.814,1.404
		c-1.769-0.072-3.533-0.226-5.3-0.334c-0.599-0.038-1.202-0.092-1.798-0.056c-1.391,0.082-1.968-0.211-2.381-1.585
		c-0.47-1.561-0.854-3.15-1.181-4.747c-1.164-5.707-2.288-11.422-3.427-17.134c-0.663-3.332-1.307-6.667-2.012-9.99
		c-0.097-0.46-0.44-0.906-0.766-1.272c-0.84-0.943-0.951-1.628-0.303-2.453c0.558-0.708,1.431-0.836,2.368-0.407
		c0.367,0.168,0.786,0.322,1.181,0.318c1.437-0.014,2.874-0.099,4.312-0.155c0.233-0.01,0.466-0.028,0.699-0.021
		c1.66,0.047,1.979,0.453,2.086,2.089c0.132,2.037,0.394,4.066,0.614,6.097c0.261,2.408,0.533,4.815,0.809,7.223
		c0.057,0.494,0.149,0.985,0.477,1.489c0.252-1.011,0.56-2.011,0.743-3.032c0.535-2.981,1.017-5.973,1.525-8.959
		c0.195-1.145,0.395-2.29,0.61-3.431c0.271-1.434,1.043-1.887,2.496-1.617c1.828,0.341,3.673,0.601,5.509,0.903
		c0.273,0.045,0.547,0.113,0.811,0.203c0.93,0.317,1.099,0.542,1.05,1.529c-0.043,0.871-0.141,1.739-0.243,2.953
		c1.201-0.918,2.128-1.652,3.083-2.346c0.712-0.517,1.422-1.062,2.203-1.452c2.056-1.029,4.814-0.283,5.956,1.747
		c0.647,1.152,1.103,2.483,1.333,3.789c0.696,3.944,1.329,7.905,1.815,11.881c0.435,3.559,0.692,7.141,0.924,10.721
		c0.096,1.479,0.669,2.729,1.586,3.754c1.423,1.591,2.952,3.104,4.569,4.496c1.582,1.364,3.544,1.757,5.619,1.598
		c1.642-0.125,2.787-1.155,3.667-2.33c1.879-2.509,3.385-5.248,4.212-8.309C342.369,86.355,342.379,86.171,342.431,85.833z
		 M307.697,93.007c0.093-0.543,0.214-1.027,0.251-1.518c0.157-2.133,0.21-4.278,0.472-6.396c0.095-0.773,0.533-1.6,1.045-2.208
		c0.935-1.109,2.018-0.909,2.831,0.328c0.869,1.32,1.254,2.81,1.475,4.329c0.501,3.452,0.934,6.915,1.384,10.375
		c0.115,0.888,0.325,1.124,1.292,1.001c1.338-0.169,2.666-0.428,3.993-0.678c0.25-0.048,0.474-0.234,0.663-0.333
		c-0.326-4.455-0.671-8.818-0.961-13.187c-0.407-6.137-1.214-12.223-2.372-18.261c-0.243-1.271-0.559-2.563-1.083-3.739
		c-0.806-1.808-2.829-2.263-4.408-1.08c-1.297,0.972-2.688,1.892-3.748,3.091c-1.08,1.224-2.334,2.418-2.757,4.115
		c-0.135,0.541-0.223,1.095-0.368,1.632c-0.741,2.737-1.447,5.476-1.746,8.312c-0.17,1.616-0.484,3.22-0.78,4.821
		c-0.251,1.361-0.566,2.71-0.869,4.137c1.262,0.134,1.651,0.799,1.705,1.886c0.043,0.869,0.352,1.726,0.532,2.59
		c0.113,0.54,0.436,0.79,0.984,0.784C306.011,93,306.79,93.007,307.697,93.007z M285.804,60.02c0,0.463-0.049,0.79,0.008,1.097
		c0.411,2.243,0.837,4.483,1.271,6.721c0.742,3.843,1.476,7.687,2.246,11.523c0.559,2.785,1.162,5.56,1.758,8.338
		c0.273,1.275,0.545,2.553,0.87,3.816c0.274,1.073,0.449,1.164,1.535,1.224c1.114,0.061,2.227,0.185,3.341,0.205
		c0.622,0.013,1.245-0.131,1.835-0.2c0.221-1.35,0.37-2.501,0.601-3.637c0.641-3.147,1.546-6.262,1.921-9.438
		c0.571-4.843,2.039-9.458,3.117-14.171c0.361-1.58,0.964-3.123,0.672-4.778c-1.25-0.651-3.535-0.896-4.91-0.524
		c-0.077,0.342-0.17,0.701-0.236,1.064c-0.661,3.617-1.295,7.239-1.983,10.849c-0.367,1.922-0.806,3.831-1.256,5.735
		c-0.239,1.009-0.609,1.973-1.612,2.507c-0.701,0.375-1.072,0.285-1.491-0.419c-0.898-1.513-1.242-3.214-1.449-4.92
		c-0.5-4.114-0.907-8.24-1.366-12.359c-0.097-0.864-0.253-1.72-0.391-2.633C288.801,60.02,287.379,60.02,285.804,60.02z"/>
	<path fill-rule="evenodd" clip-rule="evenodd" d="M244.109,68.648c1.569-1.902,2.974-3.763,4.548-5.468
		c1.382-1.497,2.866-2.911,4.89-3.602c2.908-0.994,5.467-0.258,7.657,1.665c0.703,0.618,1.165,1.74,1.332,2.701
		c0.741,4.272,0.675,8.56-0.742,12.688c-0.95,2.766-2.116,5.463-4.051,7.761c-1.285,1.526-2.265,3.325-3.635,4.759
		c-1.82,1.902-3.87,3.591-5.864,5.322c-0.442,0.386-1.061,0.572-1.604,0.839c-0.792,0.389-1.537,0.765-2.029,1.608
		c-0.46,0.79-1.885,0.782-2.555,0.081c-2.178-2.283-4.449-4.489-6.476-6.9c-2.747-3.271-5.345-6.683-6.975-10.69
		c-1.844-4.537-2.551-9.234-1.659-14.094c0.526-2.869,3.084-5.867,5.863-5.978c0.72-0.028,1.49,0.048,2.164,0.284
		c1.734,0.607,3.24,1.554,4.354,3.1c1.196,1.659,2.498,3.243,3.768,4.849C243.373,67.925,243.712,68.23,244.109,68.648z"/>
	<path fill-rule="evenodd" clip-rule="evenodd" d="M386.815,85.246c-0.123,1.758-0.247,3.515-0.375,5.334
		c-0.258,0.142-0.53,0.305-0.814,0.443c-0.723,0.352-1.504-0.053-1.63-0.853c-0.036-0.227-0.015-0.468,0.006-0.698
		c0.167-1.95,0.294-3.905,0.533-5.847c0.127-1.027,0.555-1.97,1.445-2.623c1.103-0.81,1.867-0.638,2.418,0.626
		c1.024,2.345,1.992,4.715,3.017,7.061c0.688,1.574,1.448,3.117,2.146,4.688c0.234,0.527,0.578,0.723,1.146,0.84
		c2.156,0.448,4.263,0.058,6.489-0.189c0.052-1.038,0.177-2.05,0.139-3.056c-0.12-3.167-0.352-6.33-0.44-9.498
		c-0.06-2.14,0.007-4.286,0.092-6.428c0.132-3.351,0.345-6.699,0.488-10.05c0.06-1.384,0.121-2.777-0.179-4.248
		c-1.28,0.057-2.471,0.109-3.722,0.165c-0.082,0.373-0.208,0.679-0.21,0.985c-0.012,1.766,0.048,3.533-0.001,5.297
		c-0.04,1.442-0.15,2.887-0.312,4.32c-0.287,2.542-0.652,5.074-0.956,7.613c-0.172,1.433-0.253,2.877-0.439,4.307
		c-0.088,0.684-0.174,1.446-0.528,2.001c-0.848,1.326-2.686,0.991-3.289-0.61c-0.455-1.212-0.76-2.486-1.062-3.75
		c-0.434-1.811-0.717-3.66-1.218-5.45c-1.213-4.334-1.862-8.743-2.007-13.235c-0.017-0.505-0.078-1.01-0.13-1.631
		c-0.916-0.058-1.778-0.112-2.787-0.176c-0.148,0.482-0.381,0.944-0.421,1.423c-0.275,3.3-0.803,6.562-1.364,9.82
		c-0.081,0.477-0.257,0.794-0.689,0.942c-0.47,0.162-0.956,0.277-1.555,0.446c0,0.569-0.049,1.214,0.008,1.85
		c0.3,3.434,0.513,6.871,1.14,10.276c0.479,2.608,0.692,5.267,1.008,7.905c0.107,0.9-0.172,1.441-1.023,1.747
		c-0.648,0.231-1.351,0.399-2.036,0.426c-2.131,0.087-4.268,0.082-6.4,0.132c-1.471,0.034-1.76-0.231-1.878-1.75
		c-0.11-1.419-0.064-2.861-0.793-4.258c-0.101,0.837-0.222,1.671-0.293,2.51c-0.04,0.463,0.001,0.932,0.013,1.398
		c0.016,0.648-0.268,1.049-0.915,1.208c-0.405,0.1-0.832,0.199-1.185,0.407c-0.981,0.579-1.855,0.386-2.703-0.188
		c-0.044-0.863-0.044-0.863,1.145-2.707c0.271,0.119,0.543,0.238,0.896,0.394c0.146-1.29,0.264-2.481,0.42-3.668
		c0.197-1.496,0.905-2.621,2.379-3.18c1.3-0.493,2.224-0.158,2.631,1.189c0.401,1.328,0.616,2.715,0.877,4.084
		c0.128,0.681,0.173,1.376,0.259,2.094c2.034,0.689,4.002-0.313,6.063,0.186c-0.04-0.549-0.051-0.907-0.095-1.262
		c-0.635-5.133-1.302-10.261-1.899-15.396c-0.248-2.128-0.312-4.276-0.53-6.409c-0.204-1.992-0.463-3.981-0.779-5.959
		c-0.162-1.011-0.531-1.964-1.318-2.715c-1.126-1.073-2.554-1.182-3.782-0.251c-1.557,1.178-2.424,2.833-3.046,4.601
		c-1.098,3.116-1.965,6.318-3.162,9.395c-0.878,2.257-1.274,4.556-1.49,6.926c-0.032,0.349-0.136,0.844-0.375,0.986
		c-0.447,0.264-1.057,0.51-1.528,0.415c-0.601-0.121-0.469-0.812-0.462-1.314c0.034-2.401,0.59-4.702,1.36-6.959
		c1.188-3.481,2.35-6.973,3.59-10.436c0.753-2.104,1.985-3.938,3.832-5.223c3.412-2.373,7.188-1.17,8.513,2.544
		c0.857,2.401,0.97,4.93,1.229,7.432c0.028,0.274,0.044,0.55,0.246,0.859c0.108-0.531,0.218-1.062,0.325-1.595
		c0.117-0.59,0.27-1.177,0.345-1.772c0.247-1.941,0.463-3.887,0.697-5.831c0.034-0.277,0.072-0.559,0.157-0.822
		c0.788-2.416,1.64-2.405,3.387-2.126c0.871,0.139,1.759,0.232,2.639,0.231c1.386,0,1.681,0.248,1.754,1.686
		c0.088,1.723,0.151,3.449,0.297,5.167c0.301,3.541,1.022,7.002,2.047,10.405c0.308,1.023,0.489,2.085,0.741,3.126
		c0.085,0.349,0.21,0.687,0.558,1.034c0.129-0.845,0.264-1.688,0.382-2.534c0.257-1.845,0.6-3.686,0.733-5.541
		c0.198-2.738,0.245-5.488,0.356-8.233c0.045-1.117,0.053-2.238,0.142-3.352c0.101-1.259,0.646-1.662,1.919-1.673
		c1.675-0.015,3.354-0.032,5.021-0.167c1.68-0.136,1.715-0.179,2.535,1.372c0.5-0.309,1.005-0.628,1.591-0.078
		c0.189,0.178,0.623,0.138,0.941,0.13c2.049-0.054,4.099-0.096,6.146-0.2c2.42-0.123,4.835-0.347,7.256-0.439
		c1.013-0.039,2.049,0.075,3.048,0.258c0.912,0.167,1.135,0.534,1.163,1.477c0.012,0.415-0.076,0.831-0.097,1.249
		c-0.117,2.417-0.228,4.835-0.343,7.252c-0.014,0.279-0.04,0.559-0.075,0.837c-0.199,1.579-1.307,2.311-2.886,1.902
		c-1.169-0.302-2.329-0.643-3.507-0.906c-1.073-0.239-1.343-0.106-1.633,0.952c-0.206,0.752-0.295,1.558-0.297,2.34
		c-0.011,3.321,0.485,6.599,1.031,9.861c0.529,3.165,1.166,6.312,1.753,9.467c0.185,0.996-0.07,1.454-1.098,1.506
		c-0.964,0.048-1.956-0.061-2.906-0.244c-1.552-0.301-3.059-0.121-4.576,0.174c-1.704,0.33-2.396-0.255-2.34-1.928
		c0.151-4.427,0.625-8.822,1.235-13.205c0.064-0.461,0.107-0.931,0.093-1.394c-0.078-2.62,0.177-5.21,0.601-7.791
		c0.137-0.828,0.207-1.688-0.648-2.322c-1.634,0.733-3.354,1.306-4.651,2.675c-0.607,0.643-0.958,1.328-0.999,2.226
		c-0.215,4.805-0.156,9.596,0.276,14.393c0.183,2.027,0.067,4.092-0.033,6.133c-0.066,1.359-0.765,2.113-2.09,2.095
		c-2.183-0.031-4.37,0.438-6.554-0.06c-0.537-0.123-1.115-0.101-1.674-0.09c-0.919,0.019-1.485-0.433-1.818-1.25
		c-0.246-0.604-0.498-1.205-0.752-1.807c-0.962-2.27-1.918-4.542-2.896-6.806c-0.175-0.403-0.44-0.768-0.664-1.149
		C387.04,85.172,386.928,85.209,386.815,85.246z M403.728,69.112c0.555-0.312,0.862-0.508,1.19-0.664
		c1.171-0.56,2.312-1.209,3.53-1.634c1.774-0.619,2.692-0.11,3.389,1.642c0.373,0.939,0.348,1.899,0.222,2.887
		c-0.23,1.801-0.438,3.606-0.591,5.414c-0.103,1.204-0.03,2.424-0.151,3.625c-0.302,2.964-0.696,5.919-0.997,8.883
		c-0.099,0.968-0.045,1.954-0.015,2.931c0.008,0.29,0.171,0.577,0.249,0.823c1.815,0,3.507,0,5.284,0
		c-0.035-0.435-0.034-0.752-0.089-1.061c-0.847-4.721-1.618-9.454-2.001-14.239c-0.163-2.031-0.44-4.077,0.235-6.097
		c0.332-0.993,0.902-1.698,1.831-2.165c0.843-0.424,1.675-0.415,2.572-0.193c1.063,0.264,2.127,0.661,3.234,0.455
		c0.358-1.112,0.63-7.211,0.324-8.223c-5.896,0.177-11.84,0.355-17.978,0.958C403.894,64.534,403.815,66.694,403.728,69.112z"/>
	<path fill-rule="evenodd" clip-rule="evenodd" d="M65.288,55.28c-1.501-1.003-1.699-2.574-2.002-4.058
		c-0.404-1.974-0.076-3.88,0.724-5.72c0.296-0.682,0.504-1.4,0.789-2.087c0.584-1.407,1.479-2.568,2.756-3.428
		c0.9-0.607,1.425-0.646,2.267,0.025c0.758,0.605,1.497,1.243,2.185,1.926c0.728,0.722,0.685,1.198-0.07,1.876
		c-0.277,0.248-0.571,0.481-0.883,0.684c-1.679,1.096-2.479,2.846-3.377,4.521c-0.238,0.445-0.468,0.909-0.608,1.392
		c-0.138,0.476-0.27,1-0.21,1.479C67.099,53.845,67.108,53.885,65.288,55.28z"/>
	<path fill-rule="evenodd" clip-rule="evenodd" d="M433.897,58.287c-0.043-1.651-0.28-3.259-1.623-4.425
		c-0.837-0.727-1.709-1.415-2.587-2.093c-1.408-1.087-1.334-2.142,0.068-2.917c0.759-0.419,1.646-0.606,2.481-0.882
		c0.397-0.131,0.811-0.211,1.209-0.339c1.827-0.585,1.864-0.576,2.825,1.137c0.915,1.63,1.161,3.365,0.959,5.219
		c-0.146,1.327-0.133,2.675-0.141,4.014c-0.006,1.026-0.465,1.79-1.289,2.303c-0.974,0.605-1.737,0.217-1.896-0.913
		C433.854,59.03,433.897,58.655,433.897,58.287z"/>
	<path fill-rule="evenodd" clip-rule="evenodd" d="M443.837,47.674c-0.2,1.894-0.32,3.801-0.641,5.673
		c-0.124,0.726-0.594,1.473-1.102,2.031c-0.637,0.7-1.386,0.414-1.604-0.523c-0.305-1.31-0.497-2.65-0.861-3.942
		c-0.56-1.985-0.882-4.113-2.772-5.437c-0.218-0.153-0.369-0.418-0.521-0.65c-0.514-0.778-0.382-1.406,0.408-1.867
		c1.414-0.828,2.979-1.032,4.573-0.959c0.347,0.015,0.85,0.318,0.984,0.62C443.018,44.228,443.858,45.817,443.837,47.674z"/>
	<path fill-rule="evenodd" clip-rule="evenodd" d="M74.794,47.267c0.393,0.162,0.81,0.199,0.953,0.416
		c0.644,0.976,1.706,1.409,2.553,2.114c0.311,0.258,0.581,0.609,0.763,0.97c0.32,0.635,0.192,1.138-0.471,1.371
		c-2.815,0.989-4.496,3.223-6.145,5.491c-0.398,0.548-0.798,1.008-1.476,1.194c-0.869,0.239-1.326,0.04-1.288-0.867
		c0.052-1.242,0.249-2.496,0.542-3.706c0.581-2.391,1.706-4.521,3.44-6.29C73.966,47.653,74.415,47.494,74.794,47.267z"/>
</g>
</svg>
