<?xml version="1.0" encoding="utf-8"?>
<!-- Generator: Adobe Illustrator 18.0.0, SVG Export Plug-In . SVG Version: 6.00 Build 0)  -->
<!DOCTYPE svg PUBLIC "-//W3C//DTD SVG 1.1//EN" "http://www.w3.org/Graphics/SVG/1.1/DTD/svg11.dtd">
<svg version="1.1" id="圖層_1" xmlns="http://www.w3.org/2000/svg" xmlns:xlink="http://www.w3.org/1999/xlink" x="0px" y="0px"
	 viewBox="0 0 400 400" enable-background="new 0 0 400 400" xml:space="preserve">
<g>
	<g>
		<circle fill="none" cx="200" cy="200" r="200"/>
	</g>
	<path fill="none" d="M51.6,169.1l22.7,0.3c4.9-0.1,9.7-1.9,13.1-5.5c3.4-3.7,5.1-8.4,4.8-13.4L91,133c-1.1-14.9,4.1-29.7,14.3-40.6
		c10.2-10.9,24.5-17.2,39.5-17.2c0,0,0,0,0.1,0l24.7,0c0,0,0,0,0,0c4.9,0,9.5-2,12.9-5.6c3.4-3.6,5.1-8.3,4.7-13.3L186,37.7
		C185,24.1,189.4,10.6,198,0.1c-13.6,0.1-26.9,1.6-39.7,4.3c-2,9.7-6.5,18.7-13.4,26.1c-10.2,10.8-24.5,17.1-39.4,17.1
		c0,0,0,0-0.1,0l-24.7,0c0,0,0,0,0,0c-5,0-9.6,2-12.9,5.6c-3.4,3.6-5.1,8.4-4.7,13.3l1.3,17.5c1.1,15-4.2,29.9-14.6,40.9
		c-10.3,11-25,17.1-40,16.9l-1.2,0C3,160.1,0,179.7,0,200c0,1.6,0.1,3.2,0.1,4.7c2.5-7,6.5-13.6,11.8-19
		C22.2,174.9,36.7,168.8,51.6,169.1z"/>
	<path fill="none" d="M361.3,303.3l-24.7,0c0,0,0,0,0,0c-5,0-9.6,2-12.9,5.6c-3.4,3.6-5.1,8.4-4.7,13.3l1.3,17.5
		c0.6,7.7-0.6,15.4-3.2,22.5c22.2-16,40.9-36.4,55-60C368.5,302.9,364.9,303.3,361.3,303.3C361.3,303.3,361.3,303.3,361.3,303.3z"/>
	<path fill="none" d="M62,309.6L60.9,290c-0.9-14.9,4.6-29.6,14.9-40.4c10.3-10.8,25-16.9,39.7-16.6l22.7,0.3
		c5-0.1,9.7-1.9,13.1-5.5c3.4-3.7,5.1-8.4,4.8-13.4l-1.3-17.5c-1.1-14.9,4.1-29.7,14.3-40.6c10.2-10.9,24.8-17.3,39.5-17.2l24.7,0
		c0,0,0,0,0,0c4.9,0,9.5-2,12.9-5.6c3.4-3.6,5.1-8.3,4.7-13.3l-1.3-18.6c-1-14.9,4.3-29.7,14.5-40.5c10.2-10.9,24.5-16.9,39.6-17
		l21.4,0.1c-14.8-11.9-31.2-21.7-49-29.1c-3.9,0.9-7.9,1.4-11.9,1.4c-0.1,0-0.2,0-0.3,0l-24.3-0.1c-4.8,0.1-9.6,2-13,5.6
		c-3.4,3.6-5.1,8.4-4.8,13.3l1.3,18.6c1,14.8-4.3,29.6-14.4,40.5c-10.2,10.8-24.5,17.1-39.4,17.1c0,0,0,0-0.1,0l-24.7,0c0,0,0,0,0,0
		c-5,0-9.6,2-12.9,5.6c-3.4,3.6-5.1,8.4-4.7,13.3l1.3,17.5c1.1,15-4.2,29.9-14.6,40.9c-10.3,11-25,17.2-40,16.9l-22.7-0.3
		c-4.8,0.1-9.6,1.9-13,5.5c-3.4,3.6-5.2,8.3-4.9,13.3l1.1,19.6c0.8,14.9-4.6,29.5-14.8,40.3c-0.2,0.2-0.5,0.4-0.7,0.7
		c7.4,15.7,16.7,30.4,27.7,43.5c4.1-0.5,7.9-2.2,10.8-5.3C60.6,319.2,62.3,314.5,62,309.6z"/>
	<path fill="none" d="M243.4,360.9l22.7,0.3c0.1,0,0.2,0,0.3,0c4.9,0,9.5-2,12.9-5.5c3.4-3.7,5.1-8.4,4.8-13.4l-1.3-17.5
		c-1.1-14.9,4.1-29.7,14.3-40.6c10.2-10.9,24.5-17.2,39.5-17.2c0,0,0,0,0.1,0l24.7,0c0,0,0,0,0,0c5,0,9.5-2,12.9-5.6
		c3.4-3.6,5.1-8.3,4.7-13.3l-1.3-18.6c-1-14.9,4.3-29.7,14.5-40.6c2.1-2.3,4.5-4.3,6.9-6.1c-1.1-13.2-3.5-26.1-7.1-38.5
		c0,0-0.1,0-0.1,0l-24.3-0.1c0,0-0.1,0-0.1,0c-4.9,0-9.5,2-12.9,5.6c-3.4,3.6-5.1,8.3-4.8,13.3l1.2,18.6c1,14.8-4.3,29.6-14.4,40.5
		c-10.2,10.8-24.5,17.1-39.4,17.1c0,0,0,0-0.1,0l-24.7,0c-4.9,0.2-9.6,2-13,5.6c-3.4,3.6-5.1,8.4-4.7,13.3l1.3,17.5
		c1.1,15-4.2,29.9-14.6,40.9c-10.2,10.8-24.4,16.9-39.2,16.9c-0.3,0-0.5,0-0.8,0l-22.7-0.3c-4.9,0-9.6,1.9-13,5.5
		c-3.4,3.6-5.2,8.3-4.9,13.3l1.1,19.6c0.5,8.3-1.1,16.5-4.3,24.1c10.7,2.3,21.8,3.7,33.1,4.3c2.4-8.3,6.7-15.9,12.8-22.2
		C214,366.8,228.5,360.7,243.4,360.9z"/>
	<path fill="none" d="M124.9,354c-0.9-14.9,4.6-29.6,14.9-40.4c10.3-10.8,24.8-16.9,39.7-16.6l22.7,0.3c5.3,0,9.7-1.9,13.1-5.5
		s5.1-8.4,4.8-13.4l-1.3-17.5c-1.1-14.9,4.1-29.7,14.3-40.6c10.2-10.9,24.5-17.2,39.5-17.2c0,0,0,0,0.1,0l24.7,0c0,0,0,0,0,0
		c5,0,9.5-2,12.9-5.6c3.4-3.6,5.1-8.3,4.7-13.3l-1.2-18.6c-1-14.9,4.3-29.7,14.5-40.5c10.2-10.9,24.7-17,39.6-17l9.7,0.1
		c-6.4-12.3-14-24-22.7-34.6c-8,4.5-17.2,7-26.5,7c-0.1,0-0.2,0-0.3,0l-24.3-0.1c-4.9,0-9.6,2-13,5.6c-3.4,3.6-5.1,8.3-4.8,13.3
		l1.3,18.6c1,14.8-4.3,29.6-14.4,40.5c-10.2,10.8-24.5,17.1-39.4,17.1c0,0,0,0-0.1,0l-24.7,0c0,0,0,0,0,0c-5,0-9.6,2-13,5.6
		c-3.4,3.6-5.1,8.4-4.7,13.3l1.3,17.5c1.1,15-4.2,29.9-14.6,40.9c-10.3,11-25,17.2-40,16.9l-22.7-0.3c-5,0-9.6,1.9-13,5.5
		c-3.4,3.6-5.2,8.3-4.9,13.3l1.1,19.5c0.9,14.8-4.6,29.5-14.8,40.3c-2.8,2.9-5.9,5.4-9.2,7.7c14.6,11.9,31,21.7,48.6,29.1
		c2.2-3.2,3.4-7,3.2-11L124.9,354z"/>
	<path fill="#EAEAEA" d="M49.8,124.8c10.3-11,15.7-25.9,14.6-40.9l-1.3-17.5c-0.4-5,1.3-9.7,4.7-13.3c3.4-3.6,8-5.6,12.9-5.6
		c0,0,0,0,0,0l24.7,0c0,0,0,0,0.1,0c14.9,0,29.2-6.2,39.4-17.1c6.8-7.3,11.4-16.4,13.4-26.1C87,19.5,29.7,72.7,8.7,141.7l1.2,0
		C24.9,141.9,39.5,135.8,49.8,124.8z"/>
	<path fill="#EAEAEA" d="M34.3,243.6L33.1,224c-0.3-5,1.5-9.7,4.9-13.3c3.4-3.6,8.3-5.4,13-5.5l22.7,0.3c15,0.3,29.6-5.9,40-16.9
		c10.3-11,15.7-25.9,14.6-40.9l-1.3-17.5c-0.4-5,1.3-9.7,4.7-13.3c3.4-3.6,8-5.6,12.9-5.6c0,0,0,0,0,0l24.7,0c0,0,0,0,0.1,0
		c14.9,0,29.2-6.2,39.4-17.1c10.2-10.9,15.4-25.6,14.4-40.5l-1.3-18.6c-0.3-5,1.4-9.7,4.8-13.3c3.4-3.6,8.2-5.4,13-5.6l24.3,0.1
		c0.1,0,0.2,0,0.3,0c4,0,8-0.5,11.9-1.4C252.8,5.4,227.1,0,200,0c-0.7,0-1.3,0-2,0.1c-8.6,10.5-13,24-12.1,37.7l1.3,18.6
		c0.3,4.9-1.4,9.7-4.7,13.3c-3.4,3.6-8,5.6-12.9,5.6c0,0,0,0,0,0l-24.7,0c0,0,0,0-0.1,0c-14.9,0-29.3,6.3-39.5,17.2
		C95.1,103.3,89.9,118.1,91,133l1.3,17.5c0.4,5-1.3,9.8-4.8,13.4c-3.4,3.6-8.2,5.5-13.1,5.5l-22.7-0.3c-14.9-0.3-29.4,5.8-39.7,16.6
		c-5.3,5.5-9.2,12-11.8,19c0.7,28.5,7.3,55.5,18.6,79.8c0.2-0.2,0.5-0.4,0.7-0.7C29.7,273.1,35.1,258.4,34.3,243.6z"/>
	<path fill="#EAEAEA" d="M98.2,307.5L97.1,288c-0.3-5,1.5-9.7,4.9-13.3c3.4-3.6,8.1-5.5,13-5.5l22.7,0.3c15,0.3,29.6-5.9,40-16.9
		c10.3-11,15.7-25.9,14.6-40.9l-1.3-17.5c-0.4-5,1.3-9.7,4.7-13.3c3.4-3.6,8-5.6,13-5.6c0,0,0,0,0,0l24.7,0c0,0,0,0,0.1,0
		c14.9,0,29.2-6.2,39.4-17.1c10.2-10.9,15.4-25.6,14.4-40.5L286,99.2c-0.3-5,1.4-9.7,4.8-13.3c3.4-3.6,8.1-5.5,13-5.6l24.3,0.1
		c0.1,0,0.2,0,0.3,0c9.3,0,18.5-2.5,26.5-7c-8.8-10.7-18.7-20.5-29.5-29.3L304,44.1c-15,0.1-29.4,6.1-39.6,17
		c-10.2,10.9-15.5,25.7-14.5,40.5l1.3,18.6c0.3,4.9-1.4,9.7-4.7,13.3c-3.4,3.6-8,5.6-12.9,5.6c0,0,0,0,0,0l-24.7,0
		c-14.8-0.2-29.3,6.2-39.5,17.2c-10.2,10.9-15.4,25.7-14.3,40.6l1.3,17.5c0.4,5-1.3,9.8-4.8,13.4c-3.4,3.7-8.1,5.4-13.1,5.5
		l-22.7-0.3c-14.7-0.3-29.4,5.8-39.7,16.6c-10.3,10.8-15.8,25.5-14.9,40.4l1.1,19.5c0.3,4.9-1.4,9.6-4.9,13.2
		c-2.9,3-6.7,4.8-10.8,5.3c8.4,10,17.7,19.2,27.8,27.4c3.3-2.2,6.4-4.8,9.2-7.7C93.7,337,99.1,322.4,98.2,307.5z"/>
	<path fill="#EAEAEA" d="M162.1,371.5l-1.1-19.6c-0.3-5,1.5-9.7,4.9-13.3c3.4-3.6,8.1-5.5,13-5.5l22.7,0.3c0.3,0,0.5,0,0.8,0
		c14.8,0,29-6.1,39.2-16.9c10.3-11,15.7-25.9,14.6-40.9l-1.3-17.5c-0.4-5,1.3-9.7,4.7-13.3c3.4-3.6,8-5.4,13-5.6l24.7,0
		c0,0,0,0,0.1,0c14.9,0,29.2-6.2,39.4-17.1c10.2-10.9,15.4-25.6,14.4-40.5l-1.2-18.6c-0.3-5,1.4-9.7,4.8-13.3
		c3.4-3.6,8-5.6,12.9-5.6c0,0,0.1,0,0.1,0l24.3,0.1c0,0,0.1,0,0.1,0c-3.7-12.7-8.5-24.8-14.5-36.3l-9.7-0.1
		c-14.9,0-29.4,6.1-39.6,17c-10.2,10.9-15.5,25.7-14.5,40.5l1.2,18.6c0.3,4.9-1.4,9.7-4.7,13.3c-3.4,3.6-8,5.6-12.9,5.6c0,0,0,0,0,0
		l-24.7,0c0,0,0,0-0.1,0c-14.9,0-29.3,6.3-39.5,17.2c-10.2,10.9-15.4,25.7-14.3,40.6l1.3,17.5c0.4,5-1.3,9.8-4.8,13.4
		s-7.9,5.5-13.1,5.5l-22.7-0.3c-14.9-0.3-29.4,5.8-39.7,16.6c-10.3,10.8-15.7,25.5-14.9,40.4l1.1,19.6c0.2,4-0.9,7.8-3.2,11
		c11.2,4.7,22.9,8.4,35.1,11C161.1,388,162.6,379.8,162.1,371.5z"/>
	<path fill="#EAEAEA" d="M399.2,182.9c-2.5,1.8-4.8,3.8-6.9,6.1c-10.2,10.9-15.5,25.7-14.5,40.6l1.3,18.6c0.3,5-1.4,9.7-4.7,13.3
		c-3.4,3.6-8,5.6-12.9,5.6c0,0,0,0,0,0l-24.7,0c0,0,0,0-0.1,0c-14.9,0-29.3,6.3-39.5,17.2c-10.2,10.9-15.4,25.7-14.3,40.6l1.3,17.5
		c0.4,5-1.3,9.8-4.8,13.4c-3.4,3.6-7.9,5.5-12.9,5.5c-0.1,0-0.2,0-0.3,0l-22.7-0.3c-14.9-0.3-29.4,5.8-39.7,16.6
		c-6,6.3-10.4,14-12.8,22.2c3,0.1,6,0.2,9.1,0.2c43.7,0,84.1-14,117-37.8c2.6-7.1,3.8-14.8,3.2-22.5l-1.3-17.5
		c-0.4-5,1.3-9.7,4.7-13.3c3.4-3.6,8-5.6,12.9-5.6c0,0,0,0,0,0l24.7,0c0,0,0,0,0.1,0c3.6,0,7.1-0.4,10.6-1.1
		C389.7,272.3,400,237.3,400,200C400,194.2,399.7,188.5,399.2,182.9z"/>
	<g>
		<path fill="#0E96E9" d="M72.1,293.5c13.5,0,22.6-9.9,22.6-24.7v-169c0-3.6,3-6.6,6.6-6.6c3.6,0,6.6,3,6.6,6.6v169
			c0,22.9-14.4,37.9-35.8,37.9c-21.3,0-35.8-15-35.8-37.9v-169c0-3.6,3-6.6,6.6-6.6c3.6,0,6.6,3,6.6,6.6v169
			C49.6,283.6,58.6,293.5,72.1,293.5z"/>
		<g>
			<g>
				<g>
					<path fill="#FFB3B8" d="M145.5,235.4h31.8c2.8,0,4.7,1.9,4.7,4.7c0,2.3-1.9,4.7-4.7,4.7h-38.2c-3.2,0-5.5-3.2-4.5-6.2
						l38.6-113.1c1.5-4.3,1.5-6.8,1.5-10c0-6-4.1-12.8-12.8-12.8c-7.5,0-12.2,5.5-12.4,12.8c0,2.6-2.1,4.5-4.7,4.5
						c-2.6,0-4.7-2.1-4.7-4.7c0-12.4,9.6-22,22-22c11.7,0,22,8.8,22,22.2c0,3.6-0.2,6.6-1.7,11.1L145.5,235.4z"/>
					<path fill="#FFB3B8" d="M213.8,235.4h31.8c2.8,0,4.7,1.9,4.7,4.7c0,2.3-1.9,4.7-4.7,4.7h-38.2c-3.2,0-5.5-3.2-4.5-6.2
						l38.6-113.1c1.5-4.3,1.5-6.8,1.5-10c0-6-4.1-12.8-12.8-12.8c-7.5,0-12.2,5.5-12.4,12.8c0,2.6-2.1,4.5-4.7,4.5
						c-2.6,0-4.7-2.1-4.7-4.7c0-12.4,9.6-22,22-22c11.7,0,22,8.8,22,22.2c0,3.6-0.2,6.6-1.7,11.1L213.8,235.4z"/>
				</g>
				<g>
					<path fill="#FF7781" d="M136,306c-0.9,0-1.6-0.7-1.6-1.6v-48.4c0-0.9,0.7-1.6,1.6-1.6h9.9c4.6,0,8.4,3.9,8.4,8.6
						c0,2.8-1.3,5.3-3.8,6.9c2.5,1.5,3.8,3.9,3.8,6.7v27.8c0,0.9-0.7,1.6-1.6,1.6c-0.9,0-1.6-0.7-1.6-1.6v-27.8
						c-0.1-2.8-2.2-5-5.2-5h-8.3v32.8C137.6,305.3,136.9,306,136,306z M137.6,268.3h8.3c2.8,0,5.2-2.4,5.2-5.4c0-3-2.4-5.4-5.2-5.4
						h-8.3V268.3z"/>
					<path fill="#FF7781" d="M172.7,303.5c3.3,0,5.5-2.4,5.5-6.1v-41.5c0-0.9,0.7-1.6,1.6-1.6c0.9,0,1.6,0.7,1.6,1.6v41.5
						c0,5.6-3.5,9.3-8.8,9.3c-5.2,0-8.8-3.7-8.8-9.3v-41.5c0-0.9,0.7-1.6,1.6-1.6s1.6,0.7,1.6,1.6v41.5
						C167.2,301,169.4,303.5,172.7,303.5z"/>
					<path fill="#FF7781" d="M197,306c-3.2,0-5.9-2.6-5.9-5.8v-44.2c0-0.9,0.7-1.6,1.6-1.6c0.9,0,1.6,0.7,1.6,1.6v44.2
						c0,1.4,1.3,2.6,2.7,2.6h9c0.9,0,1.6,0.7,1.6,1.6c0,0.9-0.7,1.6-1.6,1.6H197z"/>
					<path fill="#FF7781" d="M217.2,293.7v6.4c0,1.4,1.3,2.6,2.7,2.6h5.3c0.9,0,1.6,0.7,1.6,1.6c0,0.9-0.7,1.6-1.6,1.6h-5.3
						c-3.2,0-5.9-2.6-5.9-5.8v-40c0-3.2,2.7-5.8,5.9-5.8h5.3c0.9,0,1.6,0.7,1.6,1.6c0,0.9-0.7,1.6-1.6,1.6h-5.3
						c-1.4,0-2.7,1.2-2.7,2.6v30.3h8c0.9,0,1.6,0.7,1.6,1.6s-0.7,1.6-1.6,1.6H217.2z"/>
					<path fill="#FF7781" d="M252.5,297.4c0,5.2-4.3,9.3-9.5,9.3c-5.3,0-9.5-4.1-9.5-9.3c0-0.9,0.7-1.6,1.6-1.6
						c0.9,0,1.6,0.7,1.6,1.6c0,3.4,2.7,6.1,6.3,6.1c3.5,0,6.3-2.7,6.3-6.1V285c0-3.2-2.8-6.5-6.5-7.6c-5.5-1.7-8.9-5.8-8.9-10.3
						v-4.5c0-4.9,4.1-8.9,9.2-8.9c5.1,0,9.2,4,9.2,8.9c0,0.9-0.7,1.6-1.6,1.6c-0.9,0-1.6-0.7-1.6-1.6c0-3.2-2.6-5.7-5.9-5.7
						c-3.2,0-5.9,2.5-5.9,5.7v4.5c0,3.2,2.7,6.1,6.6,7.2c5.2,1.7,8.8,6,8.8,10.7V297.4z"/>
				</g>
			</g>
			<path fill="#9FD3F5" d="M356.8,306.7c-2.7,0-5.5-1.5-6.4-4.6l-29-84.5l-29.3,84.5c-0.9,3-3.7,4.6-6.4,4.6c-4,0-8.2-3.4-6.4-8.8
				L314.1,197l-32.6-94.8c-1.8-5.2,2.4-8.8,6.7-8.8c2.4,0,4.9,1.2,6.1,4.6l27.1,78.4l26.8-78.4c1.2-3.4,3.7-4.6,6.1-4.6
				c4.3,0,8.5,3.7,6.7,8.8L328.4,197l34.8,100.9C365,303.4,360.8,306.7,356.8,306.7z"/>
		</g>
	</g>
</g>
</svg>
