<?xml version="1.0" encoding="utf-8"?>
<!-- Generator: Adobe Illustrator 16.0.0, SVG Export Plug-In . SVG Version: 6.00 Build 0)  -->
<!DOCTYPE svg PUBLIC "-//W3C//DTD SVG 1.1//EN" "http://www.w3.org/Graphics/SVG/1.1/DTD/svg11.dtd">
<svg version="1.1" id="Layer_2" xmlns="http://www.w3.org/2000/svg" xmlns:xlink="http://www.w3.org/1999/xlink" x="0px" y="0px"
	 width="700px" height="150px" viewBox="0 0 700 150" enable-background="new 0 0 700 150" xml:space="preserve">
<polygon fill="#D43783" points="254.852,39 254.852,57 379.072,57 388.072,48 379.072,39 "/>
<rect x="189.166" y="31.167" width="30.834" height="11.5"/>
<rect x="153" y="21" fill="none" stroke="#000000" stroke-width="2" stroke-linecap="round" stroke-linejoin="round" stroke-miterlimit="10" width="72" height="90.001"/>
<polygon fill="none" stroke="#000000" stroke-linecap="round" stroke-linejoin="round" stroke-miterlimit="10" points="
	498.934,109.64 504.426,129 507.777,111.314 "/>
<polyline fill="none" stroke="#000000" stroke-width="2" stroke-linecap="round" stroke-linejoin="round" stroke-miterlimit="10" points="
	411.18,111 411.18,48 447.18,21 483.18,48 483.18,111 "/>
<g>
	<rect x="448.59" y="94.092" transform="matrix(0.9888 -0.1493 0.1493 0.9888 -10.4288 76.2175)" width="108" height="27"/>
	
		<rect x="463.211" y="103.37" transform="matrix(0.9888 -0.1492 0.1492 0.9888 -11.1292 76.435)" fill="none" width="81" height="17.999"/>
	
		<text transform="matrix(0.9888 -0.1493 0.1493 0.9888 475.9141 115.8164)" fill="#FFFFFF" font-family="'MarkerFelt-Wide'" font-size="10">WEB SERVICE</text>
</g>
<g>
	<g>
		<path d="M416.996,112.352c0.774-1.223,1.154-2.577,1.369-3.998c0.084-0.556-0.365-1.084-0.778-1.396
			c-0.2-0.152-1.079-0.629-1.163-0.072c-0.193,1.281-0.496,2.593-1.197,3.699C414.727,111.374,416.58,113.008,416.996,112.352
			L416.996,112.352z"/>
	</g>
</g>
<g>
	<g>
		<path d="M422.827,111.223c0.741-1.532,1.167-3.165,1.538-4.819c0.132-0.589-0.552-0.716-0.967-0.604
			c-0.571,0.155-1.113,0.612-1.246,1.203c-0.336,1.499-0.723,2.954-1.394,4.343c-0.239,0.494,0.093,0.919,0.618,0.888
			C421.985,112.197,422.567,111.762,422.827,111.223L422.827,111.223z"/>
	</g>
</g>
<g>
	<g>
		<path d="M427.883,112.031c0.182-0.846-0.014-1.609-0.221-2.43c-0.137-0.539-0.736-1.075-1.242-1.258
			c-0.506-0.184-0.718,0.123-0.6,0.592c0.138,0.543,0.264,1.042,0.145,1.602c-0.113,0.529,0.408,1.095,0.783,1.387
			C426.954,112.084,427.769,112.566,427.883,112.031L427.883,112.031z"/>
	</g>
</g>
<g>
	<g>
		<path d="M431.667,112.157c0.466-0.492,0.738-1.086,1.1-1.649c0.379-0.592-1.53-2.15-1.789-1.746
			c-0.361,0.564-0.635,1.158-1.1,1.649C429.457,110.855,431.258,112.59,431.667,112.157L431.667,112.157z"/>
	</g>
</g>
<g>
	<g>
		<path d="M438.062,111.136c-0.173-0.963-0.485-1.872-0.916-2.749c-0.095-0.192-1.109-0.002-1.257,0.016
			c-0.062,0.008-1.267,0.198-1.226,0.281c0.431,0.877,0.744,1.786,0.916,2.749C435.622,111.675,438.089,111.288,438.062,111.136
			L438.062,111.136z"/>
	</g>
</g>
<g>
	<g>
		<path d="M441.78,111.45c1.636,0,0.419-1.797-0.756-1.797C439.389,109.653,440.605,111.45,441.78,111.45L441.78,111.45z"/>
	</g>
</g>
<g>
	<g>
		<path d="M446.684,111.132c0-0.611,0-1.222,0-1.833c0-0.844-2.5-0.885-2.5-0.061c0,0.611,0,1.222,0,1.833
			C444.184,111.915,446.684,111.956,446.684,111.132L446.684,111.132z"/>
	</g>
</g>
<g>
	<g>
		<path d="M406.86,110.564c-0.649-0.657-1.179-1.405-1.487-2.279c-0.439-1.244-2.854-0.931-2.348,0.5
			c0.444,1.256,1.253,2.281,2.179,3.219c0.434,0.438,1.295,0.443,1.75,0.049C407.467,111.607,407.273,110.982,406.86,110.564
			L406.86,110.564z"/>
	</g>
</g>
<g>
	<g>
		<path d="M400.31,110.586c0-0.55,0-1.1,0-1.649c0-0.573-0.955-0.652-1.332-0.607c-0.487,0.059-1.15,0.325-1.15,0.904
			c0,0.55,0,1.1,0,1.649c0,0.573,0.955,0.652,1.332,0.607C399.646,111.432,400.31,111.165,400.31,110.586L400.31,110.586z"/>
	</g>
</g>
<g>
	<g>
		<path d="M394.936,110.655c0.149-0.482,0.218-0.983,0.367-1.466c0.145-0.464-0.829-0.305-1.008-0.266
			c-0.403,0.09-1.213,0.325-1.357,0.791c-0.149,0.482-0.218,0.983-0.367,1.466c-0.145,0.464,0.829,0.305,1.008,0.266
			C393.981,111.356,394.791,111.121,394.936,110.655L394.936,110.655z"/>
	</g>
</g>
<g>
	<g>
		<path d="M390.78,110.598c-0.365-0.693-0.872-1.239-1.515-1.684c-0.113-0.078-0.463-0.029-0.58-0.025
			c-0.321,0.014-0.642,0.046-0.959,0.091c-0.078,0.012-1.004,0.169-0.848,0.276c0.604,0.418,1.075,0.967,1.417,1.615
			c0.109,0.209,1.093,0.028,1.259,0.01C389.615,110.874,390.828,110.688,390.78,110.598L390.78,110.598z"/>
	</g>
</g>
<polygon fill="none" stroke="#000000" stroke-linecap="round" stroke-linejoin="round" stroke-miterlimit="10" points="
	237.254,109.64 242.746,129 246.098,111.314 "/>
<g>
	<rect x="186.91" y="94.092" transform="matrix(0.9888 -0.1493 0.1493 0.9888 -13.3599 37.1614)" width="108" height="27"/>
	
		<rect x="187.146" y="103.453" transform="matrix(0.9888 -0.1493 0.1493 0.9888 -14.0791 37.3013)" fill="none" width="108.673" height="17.999"/>
	
		<text transform="matrix(0.9888 -0.1493 0.1493 0.9888 208.1982 116.7285)" fill="#FFFFFF" font-family="'MarkerFelt-Wide'" font-size="10">ELEARNING APP</text>
</g>
<g>
	<g>
		<path d="M161.649,55.04c1.789-1.38,5.61,1.229,7.378,1.957c1.866,0.769,4.01,0.097,5.791-0.506
			c1.634-0.554,4.242,0.904,6.146,0.684c3.435-0.397,5.264-2.639,9.136-0.637c3.51,1.815,6.882-1.867,9.826-3.082
			c2.584-1.067,4.541,1.156,6.715,1.854c1.733,0.557,3.121,0.455,4.858-0.04c0.774-0.22,0.445-1.426-0.332-1.205
			c-4.17,1.188-7.311-2.453-11.574-1.814c-1.667,0.25-3.363,1.828-4.73,2.671c-2.327,1.434-6.099-0.749-8.746-0.673
			c-2.937,0.084-4.473,2.12-7.785,1.649c-1.595-0.227-2.25-0.95-3.847-0.613c-3.021,0.637-4.85,0.733-7.67-0.657
			c-0.702-0.346-1.491-0.873-2.232-1.114c-1.582-0.516-2.268-0.555-3.565,0.447C160.39,54.445,161.011,55.532,161.649,55.04
			L161.649,55.04z"/>
	</g>
</g>
<g>
	<g>
		<path d="M162.942,62.608c2.619-2.134,4.879,0.903,7.284,0.801c2.272-0.097,3.836-0.747,6.195-0.189
			c1.863,0.441,3.321-0.051,5.11-0.672c2.01-0.698,4.878,0.971,7.136,0.555c0.792-0.146,0.456-1.351-0.332-1.205
			c-2.185,0.402-3.76-1.512-5.885-0.909c-2.656,0.753-5.328-0.008-7.781,0.409c-3.398,0.578-5.733,0.37-8.897-0.917
			c-1.499-0.609-2.657,0.384-3.712,1.244C161.433,62.234,162.323,63.113,162.942,62.608L162.942,62.608z"/>
	</g>
</g>
<g>
	<g>
		<path d="M171.323,74.475c3.768-2.478,5.862,0.646,9.403,0.683c2.803,0.028,5.627-1.057,8.351-0.169
			c2.116,0.69,4.486-0.127,6.518-0.672c3.47-0.931,5.925,1.144,9.238,0.555c0.793-0.141,0.456-1.345-0.332-1.205
			c-2.788,0.496-4.904-1.504-7.619-0.909c-2.422,0.53-4.937,1.49-7.472,1.026c-1.53-0.279-2.138-0.676-3.685-0.487
			c-3.83,0.468-6.37,0.391-9.986-0.899c-1.92-0.685-3.444-0.056-5.046,0.998C170.022,73.836,170.647,74.919,171.323,74.475
			L171.323,74.475z"/>
	</g>
</g>
<rect x="162" y="71.167" width="5" height="5"/>
<g>
	<g>
		<path d="M171.45,83.378c1.652-2.015,3.326,0.898,4.954,0.8c1.874-0.114,3.006-0.619,4.915,0.026
			c1.689,0.571,3.23-1.862,4.97-1.084c1.319,0.591,1.562,1.239,3.044,0.751c0.762-0.251,0.436-1.458-0.332-1.205
			c-1.595,0.525-2.473-1.574-4.11-0.91c-1.253,0.51-3.184,1.419-4.393,0.689c-0.29-0.176-0.692-0.364-1.042-0.279
			c-1.526,0.372-2.67,1.166-4.418,0.151c-0.699-0.406-1.24-0.853-1.988-1.165c-1.042-0.438-1.952,0.693-2.483,1.341
			C170.059,83.111,170.938,84.001,171.45,83.378L171.45,83.378z"/>
	</g>
</g>
<rect x="162" y="80.167" width="5" height="5"/>
<g>
	<g>
		<path d="M171.45,92.044c2.619-2.134,4.879,0.903,7.284,0.801c2.272-0.097,3.836-0.747,6.195-0.188
			c1.863,0.44,3.321-0.052,5.11-0.673c2.01-0.698,4.878,0.971,7.136,0.555c0.792-0.146,0.456-1.351-0.332-1.205
			c-2.185,0.402-3.76-1.513-5.885-0.909c-2.656,0.753-5.328-0.008-7.781,0.409c-3.398,0.577-5.733,0.37-8.897-0.917
			c-1.499-0.609-2.657,0.384-3.712,1.244C169.94,91.67,170.831,92.549,171.45,92.044L171.45,92.044z"/>
	</g>
</g>
<rect x="162" y="88.834" fill="#D43783" width="5" height="5"/>
<rect x="189.333" y="34.333" fill="none" width="30.667" height="8.333"/>
<text transform="matrix(1 0 0 1 194.5269 39.2896)" fill="#FFFFFF" font-family="'MarkerFelt-Wide'" font-size="6">SUBMIT</text>
<rect x="252.852" y="42" fill="none" width="54" height="18"/>
<text transform="matrix(1 0 0 1 264.2422 53.564)" font-family="'MarkerFelt-Wide'" font-size="14">POST</text>
<rect x="236" y="39" fill="#D43783" width="4.5" height="18"/>
<rect x="241.91" y="39" fill="#D43783" width="4.5" height="18"/>
<rect x="248.316" y="39" fill="#D43783" width="4.5" height="18"/>
</svg>
