<?xml version="1.0" encoding="utf-8"?>
<!-- Generator: Adobe Illustrator 16.0.0, SVG Export Plug-In . SVG Version: 6.00 Build 0)  -->
<!DOCTYPE svg PUBLIC "-//W3C//DTD SVG 1.1//EN" "http://www.w3.org/Graphics/SVG/1.1/DTD/svg11.dtd">
<svg version="1.1" id="Layer_2" xmlns="http://www.w3.org/2000/svg" xmlns:xlink="http://www.w3.org/1999/xlink" x="0px" y="0px"
	 width="513px" height="150px" viewBox="0 0 513 150" enable-background="new 0 0 513 150" xml:space="preserve">
<polygon fill="none" stroke="#000000" stroke-linecap="round" stroke-linejoin="round" stroke-miterlimit="10" points="
	303.229,109.64 308.722,129 312.073,111.314 "/>
<polyline fill="none" stroke="#000000" stroke-width="2" stroke-linecap="round" stroke-linejoin="round" stroke-miterlimit="10" points="
	215.476,111 215.476,48 251.476,21 287.476,48 287.476,111 "/>
<g>
	<rect x="252.886" y="94.092" transform="matrix(0.9888 -0.1493 0.1493 0.9888 -12.6209 47.0083)" width="108" height="27"/>
	
		<rect x="267.507" y="103.37" transform="matrix(0.9888 -0.1492 0.1492 0.9888 -13.3211 47.2271)" fill="none" width="81" height="17.999"/>
	
		<text transform="matrix(0.9888 -0.1493 0.1493 0.9888 280.1953 115.8467)" fill="#FFFFFF" font-family="'MarkerFelt-Wide'" font-size="10">WEB SERVICE</text>
</g>
<polygon fill="none" stroke="#000000" stroke-linecap="round" stroke-linejoin="round" stroke-miterlimit="10" points="
	101.25,92.048 106.743,111.408 110.094,93.723 "/>
<g>
	<rect x="92.548" y="85.981" transform="matrix(0.9888 -0.1493 0.1493 0.9888 -12.8064 16.9786)" width="28.315" height="15.645"/>
	
		<rect x="88.785" y="89.633" transform="matrix(0.9888 -0.1492 0.1492 0.9888 -12.964 16.9108)" fill="none" width="34.841" height="10.42"/>
	
		<text transform="matrix(0.9888 -0.1492 0.1492 0.9888 98.6025 99.0742)" fill="#FFFFFF" font-family="'MarkerFelt-Wide'" font-size="10">GET</text>
</g>
<polygon fill="none" stroke="#000000" stroke-linecap="round" stroke-linejoin="round" stroke-miterlimit="10" points="
	21.831,92.048 27.323,111.408 30.674,93.723 "/>
<g>
	<rect x="9.222" y="86.066" transform="matrix(0.9888 -0.1493 0.1493 0.9888 -13.714 5.0404)" width="35.004" height="15.645"/>
	
		<rect x="9.365" y="89.633" transform="matrix(0.9888 -0.1492 0.1492 0.9888 -13.8533 5.0592)" fill="none" width="34.841" height="10.42"/>
	
		<text transform="matrix(0.9888 -0.1492 0.1492 0.9888 12.9531 100.0137)" fill="#FFFFFF" font-family="'MarkerFelt-Wide'" font-size="10">PATCH</text>
</g>
<polygon fill="none" stroke="#000000" stroke-linecap="round" stroke-linejoin="round" stroke-miterlimit="10" points="
	139.903,92.048 145.396,111.408 148.747,93.723 "/>
<g>
	<rect x="131.201" y="85.981" transform="matrix(0.9888 -0.1493 0.1493 0.9888 -12.3732 22.7478)" width="28.316" height="15.645"/>
	
		<rect x="128.438" y="89.633" transform="matrix(0.9888 -0.1492 0.1492 0.9888 -12.5201 22.8284)" fill="none" width="34.84" height="10.42"/>
	
		<text transform="matrix(0.9888 -0.1492 0.1492 0.9888 135.2891 99.5215)" fill="#FFFFFF" font-family="'MarkerFelt-Wide'" font-size="10">POST</text>
</g>
<polygon fill="none" stroke="#000000" stroke-linecap="round" stroke-linejoin="round" stroke-miterlimit="10" points="
	181.498,92.048 186.99,111.408 190.342,93.723 "/>
<g>
	<rect x="172.795" y="85.981" transform="matrix(0.9888 -0.1493 0.1493 0.9888 -11.9073 28.9569)" width="28.315" height="15.645"/>
	
		<rect x="170.032" y="89.633" transform="matrix(0.9888 -0.1492 0.1492 0.9888 -12.0544 29.0356)" fill="none" width="34.84" height="10.42"/>
	
		<text transform="matrix(0.9888 -0.1492 0.1492 0.9888 179.7012 99.0977)" fill="#FFFFFF" font-family="'MarkerFelt-Wide'" font-size="10">PUT</text>
</g>
<g>
	<g>
		<path d="M221.292,112.352c0.774-1.223,1.154-2.577,1.369-3.998c0.084-0.556-0.365-1.084-0.778-1.396
			c-0.2-0.152-1.079-0.629-1.163-0.072c-0.193,1.281-0.496,2.593-1.197,3.699C219.022,111.374,220.876,113.008,221.292,112.352
			L221.292,112.352z"/>
	</g>
</g>
<g>
	<g>
		<path d="M227.123,111.223c0.741-1.532,1.167-3.165,1.538-4.819c0.132-0.589-0.552-0.716-0.967-0.604
			c-0.571,0.155-1.113,0.612-1.246,1.203c-0.336,1.499-0.723,2.954-1.394,4.343c-0.239,0.494,0.093,0.919,0.618,0.888
			C226.281,112.197,226.863,111.762,227.123,111.223L227.123,111.223z"/>
	</g>
</g>
<g>
	<g>
		<path d="M232.179,112.031c0.182-0.846-0.014-1.609-0.221-2.43c-0.137-0.539-0.736-1.075-1.242-1.258
			c-0.506-0.184-0.718,0.123-0.6,0.592c0.138,0.543,0.264,1.042,0.145,1.602c-0.113,0.529,0.408,1.095,0.783,1.387
			C231.25,112.084,232.064,112.566,232.179,112.031L232.179,112.031z"/>
	</g>
</g>
<g>
	<g>
		<path d="M235.963,112.157c0.466-0.492,0.738-1.086,1.1-1.649c0.379-0.592-1.53-2.15-1.789-1.746
			c-0.361,0.564-0.635,1.158-1.1,1.649C233.753,110.855,235.554,112.59,235.963,112.157L235.963,112.157z"/>
	</g>
</g>
<g>
	<g>
		<path d="M242.357,111.136c-0.173-0.963-0.485-1.872-0.916-2.749c-0.095-0.192-1.109-0.002-1.257,0.016
			c-0.062,0.008-1.267,0.198-1.226,0.281c0.431,0.877,0.744,1.786,0.916,2.749C239.918,111.675,242.385,111.288,242.357,111.136
			L242.357,111.136z"/>
	</g>
</g>
<g>
	<g>
		<path d="M246.076,111.45c1.636,0,0.419-1.797-0.756-1.797C243.685,109.653,244.901,111.45,246.076,111.45L246.076,111.45z"/>
	</g>
</g>
<g>
	<g>
		<path d="M250.979,111.132c0-0.611,0-1.222,0-1.833c0-0.844-2.5-0.885-2.5-0.061c0,0.611,0,1.222,0,1.833
			C248.479,111.915,250.979,111.956,250.979,111.132L250.979,111.132z"/>
	</g>
</g>
<g>
	<g>
		<path d="M211.156,110.564c-0.649-0.657-1.179-1.405-1.487-2.279c-0.439-1.244-2.854-0.931-2.348,0.5
			c0.444,1.256,1.253,2.281,2.179,3.219c0.434,0.438,1.295,0.443,1.75,0.049C211.763,111.607,211.569,110.982,211.156,110.564
			L211.156,110.564z"/>
	</g>
</g>
<g>
	<g>
		<path d="M204.605,110.586c0-0.55,0-1.1,0-1.649c0-0.573-0.955-0.652-1.332-0.607c-0.487,0.059-1.15,0.325-1.15,0.904
			c0,0.55,0,1.1,0,1.649c0,0.573,0.955,0.652,1.332,0.607C203.942,111.432,204.605,111.165,204.605,110.586L204.605,110.586z"/>
	</g>
</g>
<g>
	<g>
		<path d="M199.231,110.655c0.149-0.482,0.218-0.983,0.367-1.466c0.144-0.464-0.83-0.305-1.008-0.266
			c-0.403,0.09-1.213,0.325-1.357,0.791c-0.149,0.482-0.218,0.983-0.367,1.466c-0.144,0.464,0.83,0.305,1.008,0.266
			C198.277,111.356,199.087,111.121,199.231,110.655L199.231,110.655z"/>
	</g>
</g>
<g>
	<g>
		<path d="M195.076,110.598c-0.365-0.693-0.872-1.239-1.515-1.684c-0.113-0.078-0.464-0.029-0.58-0.025
			c-0.321,0.014-0.642,0.046-0.959,0.091c-0.078,0.012-1.004,0.169-0.848,0.276c0.604,0.418,1.075,0.967,1.417,1.615
			c0.109,0.209,1.093,0.028,1.259,0.01C193.911,110.874,195.124,110.688,195.076,110.598L195.076,110.598z"/>
	</g>
</g>
<g>
	<g>
		<path d="M150.542,112.352c0.775-1.223,1.155-2.577,1.37-3.998c0.083-0.556-0.365-1.084-0.778-1.396
			c-0.201-0.152-1.079-0.629-1.163-0.072c-0.193,1.281-0.496,2.593-1.197,3.699C148.272,111.374,150.125,113.008,150.542,112.352
			L150.542,112.352z"/>
	</g>
</g>
<g>
	<g>
		<path d="M156.373,111.223c0.741-1.532,1.168-3.165,1.538-4.819c0.132-0.589-0.552-0.716-0.967-0.604
			c-0.571,0.155-1.113,0.612-1.246,1.203c-0.336,1.499-0.724,2.954-1.394,4.343c-0.239,0.494,0.093,0.919,0.618,0.888
			C155.531,112.197,156.113,111.762,156.373,111.223L156.373,111.223z"/>
	</g>
</g>
<g>
	<g>
		<path d="M161.429,112.031c0.182-0.846-0.014-1.609-0.221-2.43c-0.137-0.539-0.736-1.075-1.242-1.258
			c-0.506-0.184-0.718,0.123-0.6,0.592c0.138,0.543,0.265,1.042,0.145,1.602c-0.113,0.529,0.408,1.095,0.783,1.387
			C160.5,112.084,161.314,112.566,161.429,112.031L161.429,112.031z"/>
	</g>
</g>
<g>
	<g>
		<path d="M165.213,112.157c0.466-0.492,0.738-1.086,1.1-1.649c0.379-0.592-1.53-2.15-1.789-1.746
			c-0.361,0.564-0.635,1.158-1.1,1.649C163.003,110.855,164.804,112.59,165.213,112.157L165.213,112.157z"/>
	</g>
</g>
<g>
	<g>
		<path d="M171.607,111.136c-0.173-0.963-0.485-1.872-0.916-2.749c-0.095-0.192-1.109-0.002-1.257,0.016
			c-0.062,0.008-1.267,0.198-1.226,0.281c0.431,0.877,0.744,1.787,0.916,2.749C169.168,111.675,171.635,111.288,171.607,111.136
			L171.607,111.136z"/>
	</g>
</g>
<g>
	<g>
		<path d="M175.326,111.45c1.636,0,0.419-1.797-0.756-1.797C172.935,109.653,174.151,111.45,175.326,111.45L175.326,111.45z"/>
	</g>
</g>
<g>
	<g>
		<path d="M180.229,111.132c0-0.611,0-1.222,0-1.833c0-0.844-2.5-0.885-2.5-0.061c0,0.611,0,1.222,0,1.833
			C177.729,111.915,180.229,111.956,180.229,111.132L180.229,111.132z"/>
	</g>
</g>
<g>
	<g>
		<path d="M140.406,110.564c-0.65-0.658-1.179-1.405-1.487-2.279c-0.44-1.244-2.853-0.931-2.348,0.5
			c0.444,1.257,1.253,2.282,2.179,3.219c0.434,0.438,1.295,0.443,1.75,0.049C141.013,111.607,140.819,110.982,140.406,110.564
			L140.406,110.564z"/>
	</g>
</g>
<g>
	<g>
		<path d="M133.855,110.586c0-0.55,0-1.1,0-1.649c0-0.573-0.955-0.652-1.332-0.607c-0.488,0.059-1.151,0.325-1.151,0.904
			c0,0.55,0,1.1,0,1.649c0,0.573,0.955,0.652,1.332,0.607C133.192,111.432,133.855,111.165,133.855,110.586L133.855,110.586z"/>
	</g>
</g>
<g>
	<g>
		<path d="M124.327,110.598c-0.365-0.693-0.873-1.239-1.515-1.684c-0.113-0.078-0.464-0.029-0.581-0.025
			c-0.321,0.014-0.642,0.046-0.959,0.091c-0.079,0.012-1.004,0.169-0.848,0.276c0.604,0.418,1.076,0.967,1.417,1.615
			c0.11,0.209,1.093,0.028,1.259,0.01C123.162,110.874,124.375,110.688,124.327,110.598L124.327,110.598z"/>
	</g>
</g>
<g>
	<g>
		<path d="M98.354,111.602c-0.446-1.497-1.335-2.819-2.341-3.997c-0.301-0.354-0.86-0.935-1.397-0.777
			c-0.519,0.151-0.133,0.922,0.073,1.162c0.767,0.9,1.447,1.845,1.788,2.989c0.163,0.548,0.715,1.072,1.25,1.25
			C98.223,112.393,98.497,112.083,98.354,111.602L98.354,111.602z"/>
	</g>
</g>
<g>
	<g>
		<path d="M101.458,111.223c0.741-1.532,1.167-3.165,1.538-4.819c0.132-0.589-0.552-0.716-0.967-0.604
			c-0.571,0.155-1.114,0.612-1.246,1.203c-0.336,1.499-0.723,2.954-1.394,4.343c-0.239,0.494,0.094,0.919,0.619,0.888
			C100.615,112.197,101.197,111.762,101.458,111.223L101.458,111.223z"/>
	</g>
</g>
<g>
	<g>
		<path d="M112.513,112.031c0.182-0.846-0.014-1.609-0.221-2.43c-0.136-0.539-0.735-1.075-1.241-1.258
			c-0.506-0.184-0.718,0.123-0.6,0.592c0.137,0.543,0.264,1.042,0.144,1.602c-0.114,0.529,0.409,1.095,0.784,1.387
			C111.584,112.084,112.398,112.566,112.513,112.031L112.513,112.031z"/>
	</g>
</g>
<g>
	<g>
		<path d="M116.297,112.157c0.465-0.492,0.738-1.086,1.1-1.649c0.379-0.592-1.531-2.15-1.79-1.746
			c-0.361,0.564-0.634,1.158-1.1,1.649C114.086,110.855,115.888,112.59,116.297,112.157L116.297,112.157z"/>
	</g>
</g>
<g>
	<g>
		<path d="M126.41,111.45c1.636,0,0.419-1.797-0.756-1.797C124.019,109.653,125.235,111.45,126.41,111.45L126.41,111.45z"/>
	</g>
</g>
<g>
	<g>
		<path d="M79.565,110.655c0.15-0.482,0.218-0.983,0.367-1.466c0.144-0.464-0.83-0.305-1.008-0.266
			c-0.403,0.09-1.213,0.325-1.357,0.791c-0.15,0.482-0.218,0.983-0.367,1.466c-0.144,0.464,0.83,0.305,1.008,0.266
			C78.611,111.356,79.421,111.121,79.565,110.655L79.565,110.655z"/>
	</g>
</g>
<g>
	<g>
		<path d="M58.032,112.352c0.775-1.223,1.155-2.577,1.37-3.998c0.083-0.556-0.365-1.084-0.778-1.396
			c-0.201-0.152-1.079-0.629-1.163-0.072c-0.193,1.281-0.496,2.593-1.197,3.699C55.763,111.374,57.616,113.008,58.032,112.352
			L58.032,112.352z"/>
	</g>
</g>
<g>
	<g>
		<path d="M71.919,112.031c0.182-0.846-0.014-1.609-0.221-2.43c-0.136-0.539-0.735-1.075-1.241-1.258
			c-0.506-0.184-0.718,0.123-0.6,0.592c0.137,0.543,0.264,1.042,0.144,1.602c-0.114,0.529,0.409,1.095,0.784,1.387
			C70.99,112.084,71.805,112.566,71.919,112.031L71.919,112.031z"/>
	</g>
</g>
<g>
	<g>
		<path d="M75.704,112.157c0.465-0.492,0.738-1.086,1.1-1.649c0.379-0.592-1.531-2.15-1.79-1.746
			c-0.361,0.564-0.634,1.158-1.1,1.649C73.493,110.855,75.294,112.59,75.704,112.157L75.704,112.157z"/>
	</g>
</g>
<g>
	<g>
		<path d="M85.816,111.45c1.636,0,0.419-1.797-0.756-1.797C83.425,109.653,84.642,111.45,85.816,111.45L85.816,111.45z"/>
	</g>
</g>
<polygon fill="none" stroke="#000000" stroke-linecap="round" stroke-linejoin="round" stroke-miterlimit="10" points="
	385.842,92.048 391.334,111.408 394.686,93.723 "/>
<g>
	<rect x="377.14" y="85.981" transform="matrix(0.9888 -0.1493 0.1493 0.9888 -9.618 59.4591)" width="28.315" height="15.645"/>
	
		<rect x="373.377" y="89.633" transform="matrix(0.9888 -0.1492 0.1492 0.9888 -9.7773 59.3791)" fill="none" width="34.841" height="10.419"/>
	
		<text transform="matrix(0.9888 -0.1492 0.1492 0.9888 381.6123 99.3125)" fill="#FFFFFF" font-family="'MarkerFelt-Wide'" font-size="10">405</text>
</g>
<polygon fill="none" stroke="#000000" stroke-linecap="round" stroke-linejoin="round" stroke-miterlimit="10" points="
	424.495,92.048 429.987,111.408 433.339,93.723 "/>
<g>
	<rect x="415.793" y="85.981" transform="matrix(0.9888 -0.1493 0.1493 0.9888 -9.185 65.2287)" width="28.315" height="15.645"/>
	
		<rect x="413.03" y="89.633" transform="matrix(0.9888 -0.1492 0.1492 0.9888 -9.3334 65.2981)" fill="none" width="34.84" height="10.42"/>
	
		<text transform="matrix(0.9888 -0.1492 0.1492 0.9888 421.2656 99.3125)" fill="#FFFFFF" font-family="'MarkerFelt-Wide'" font-size="10">204</text>
</g>
<polygon fill="none" stroke="#000000" stroke-linecap="round" stroke-linejoin="round" stroke-miterlimit="10" points="
	466.09,92.048 471.582,111.408 474.934,93.723 "/>
<g>
	<rect x="457.386" y="85.981" transform="matrix(0.9888 -0.1493 0.1493 0.9888 -8.719 71.4373)" width="28.315" height="15.645"/>
	
		<rect x="454.624" y="89.633" transform="matrix(0.9888 -0.1492 0.1492 0.9888 -8.8676 71.5052)" fill="none" width="34.84" height="10.42"/>
	
		<text transform="matrix(0.9888 -0.1492 0.1492 0.9888 462.8594 99.3125)" fill="#FFFFFF" font-family="'MarkerFelt-Wide'" font-size="10">201</text>
</g>
<g>
	<g>
		<path d="M489.197,110.586c0-0.55,0-1.1,0-1.649c0-0.573-0.955-0.652-1.332-0.607c-0.487,0.059-1.15,0.325-1.15,0.904
			c0,0.55,0,1.1,0,1.649c0,0.573,0.955,0.652,1.332,0.607C488.534,111.432,489.197,111.165,489.197,110.586L489.197,110.586z"/>
	</g>
</g>
<g>
	<g>
		<path d="M483.823,110.655c0.149-0.482,0.218-0.983,0.367-1.466c0.144-0.464-0.83-0.305-1.008-0.266
			c-0.403,0.09-1.213,0.325-1.357,0.791c-0.149,0.482-0.218,0.983-0.367,1.466c-0.144,0.464,0.83,0.305,1.008,0.266
			C482.869,111.356,483.679,111.121,483.823,110.655L483.823,110.655z"/>
	</g>
</g>
<g>
	<g>
		<path d="M479.668,110.598c-0.365-0.693-0.872-1.239-1.515-1.684c-0.113-0.078-0.464-0.029-0.58-0.025
			c-0.321,0.014-0.642,0.046-0.959,0.091c-0.078,0.012-1.004,0.169-0.848,0.276c0.604,0.418,1.075,0.967,1.417,1.615
			c0.109,0.209,1.093,0.028,1.259,0.01C478.503,110.874,479.716,110.688,479.668,110.598L479.668,110.598z"/>
	</g>
</g>
<g>
	<g>
		<path d="M435.133,112.352c0.775-1.223,1.155-2.577,1.37-3.998c0.083-0.556-0.364-1.084-0.778-1.396
			c-0.201-0.152-1.079-0.629-1.163-0.072c-0.192,1.281-0.495,2.593-1.196,3.699C432.864,111.374,434.717,113.008,435.133,112.352
			L435.133,112.352z"/>
	</g>
</g>
<g>
	<g>
		<path d="M440.965,111.223c0.741-1.532,1.168-3.165,1.538-4.819c0.132-0.589-0.552-0.716-0.967-0.604
			c-0.571,0.155-1.113,0.612-1.246,1.203c-0.336,1.499-0.724,2.954-1.394,4.343c-0.239,0.494,0.093,0.919,0.618,0.888
			C440.123,112.197,440.705,111.762,440.965,111.223L440.965,111.223z"/>
	</g>
</g>
<g>
	<g>
		<path d="M446.021,112.031c0.182-0.846-0.014-1.609-0.221-2.43c-0.137-0.539-0.736-1.075-1.242-1.258
			c-0.506-0.184-0.718,0.123-0.6,0.592c0.138,0.543,0.265,1.042,0.145,1.602c-0.113,0.529,0.408,1.095,0.783,1.387
			C445.092,112.084,445.906,112.566,446.021,112.031L446.021,112.031z"/>
	</g>
</g>
<g>
	<g>
		<path d="M449.805,112.157c0.466-0.492,0.738-1.086,1.1-1.649c0.379-0.592-1.53-2.15-1.789-1.746
			c-0.361,0.564-0.635,1.158-1.1,1.649C447.595,110.855,449.396,112.59,449.805,112.157L449.805,112.157z"/>
	</g>
</g>
<g>
	<g>
		<path d="M456.199,111.136c-0.173-0.963-0.485-1.872-0.916-2.749c-0.095-0.192-1.109-0.002-1.257,0.016
			c-0.062,0.008-1.267,0.198-1.226,0.281c0.431,0.877,0.744,1.787,0.916,2.749C453.76,111.675,456.227,111.288,456.199,111.136
			L456.199,111.136z"/>
	</g>
</g>
<g>
	<g>
		<path d="M459.918,111.45c1.636,0,0.419-1.797-0.756-1.797C457.526,109.653,458.743,111.45,459.918,111.45L459.918,111.45z"/>
	</g>
</g>
<g>
	<g>
		<path d="M464.821,111.132c0-0.611,0-1.222,0-1.833c0-0.844-2.5-0.885-2.5-0.061c0,0.611,0,1.222,0,1.833
			C462.321,111.915,464.821,111.956,464.821,111.132L464.821,111.132z"/>
	</g>
</g>
<g>
	<g>
		<path d="M424.998,110.564c-0.65-0.658-1.179-1.405-1.487-2.279c-0.44-1.244-2.853-0.931-2.348,0.5
			c0.444,1.257,1.253,2.282,2.179,3.219c0.434,0.438,1.295,0.443,1.75,0.049C425.604,111.607,425.41,110.982,424.998,110.564
			L424.998,110.564z"/>
	</g>
</g>
<g>
	<g>
		<path d="M418.447,110.586c0-0.55,0-1.1,0-1.649c0-0.573-0.955-0.652-1.332-0.607c-0.487,0.059-1.15,0.325-1.15,0.904
			c0,0.55,0,1.1,0,1.649c0,0.573,0.955,0.652,1.332,0.607C417.784,111.432,418.447,111.165,418.447,110.586L418.447,110.586z"/>
	</g>
</g>
<g>
	<g>
		<path d="M408.918,110.598c-0.365-0.693-0.872-1.239-1.514-1.684c-0.113-0.078-0.465-0.029-0.581-0.025
			c-0.321,0.014-0.642,0.046-0.959,0.091c-0.079,0.012-1.004,0.169-0.849,0.276c0.604,0.418,1.076,0.967,1.418,1.615
			c0.109,0.209,1.093,0.028,1.258,0.01C407.754,110.874,408.967,110.688,408.918,110.598L408.918,110.598z"/>
	</g>
</g>
<g>
	<g>
		<path d="M382.945,111.602c-0.445-1.497-1.336-2.819-2.341-3.997c-0.302-0.354-0.86-0.935-1.397-0.777
			c-0.519,0.151-0.133,0.922,0.073,1.162c0.767,0.9,1.446,1.845,1.788,2.989c0.163,0.548,0.715,1.072,1.25,1.25
			C382.814,112.393,383.089,112.083,382.945,111.602L382.945,111.602z"/>
	</g>
</g>
<g>
	<g>
		<path d="M386.049,111.223c0.741-1.532,1.168-3.165,1.538-4.819c0.132-0.589-0.552-0.716-0.967-0.604
			c-0.571,0.155-1.114,0.612-1.246,1.203c-0.336,1.499-0.724,2.954-1.394,4.343c-0.239,0.494,0.094,0.919,0.619,0.888
			C385.207,112.197,385.789,111.762,386.049,111.223L386.049,111.223z"/>
	</g>
</g>
<g>
	<g>
		<path d="M397.104,112.031c0.182-0.846-0.014-1.609-0.222-2.43c-0.136-0.539-0.734-1.075-1.24-1.258
			c-0.507-0.184-0.719,0.123-0.6,0.592c0.137,0.543,0.264,1.042,0.144,1.602c-0.114,0.529,0.409,1.095,0.784,1.387
			C396.176,112.084,396.99,112.566,397.104,112.031L397.104,112.031z"/>
	</g>
</g>
<g>
	<g>
		<path d="M400.889,112.157c0.466-0.492,0.738-1.086,1.1-1.649c0.379-0.592-1.53-2.15-1.789-1.746
			c-0.361,0.564-0.635,1.158-1.1,1.649C398.678,110.855,400.479,112.59,400.889,112.157L400.889,112.157z"/>
	</g>
</g>
<g>
	<g>
		<path d="M411.002,111.45c1.636,0,0.419-1.797-0.756-1.797C408.61,109.653,409.827,111.45,411.002,111.45L411.002,111.45z"/>
	</g>
</g>
<g>
	<g>
		<path d="M356.511,112.031c0.182-0.846-0.014-1.609-0.222-2.43c-0.136-0.539-0.734-1.075-1.24-1.258
			c-0.507-0.184-0.719,0.123-0.6,0.592c0.137,0.543,0.264,1.042,0.144,1.602c-0.114,0.529,0.409,1.095,0.784,1.387
			C355.582,112.084,356.396,112.566,356.511,112.031L356.511,112.031z"/>
	</g>
</g>
<g>
	<g>
		<path d="M360.295,112.157c0.466-0.492,0.738-1.086,1.1-1.649c0.379-0.592-1.53-2.15-1.789-1.746
			c-0.361,0.564-0.635,1.158-1.1,1.649C358.084,110.855,359.886,112.59,360.295,112.157L360.295,112.157z"/>
	</g>
</g>
<g>
	<g>
		<path d="M370.408,111.45c1.636,0,0.419-1.797-0.756-1.797C368.017,109.653,369.233,111.45,370.408,111.45L370.408,111.45z"/>
	</g>
</g>
<g>
	<g>
		<path d="M50.896,110.564c-0.65-0.658-1.179-1.405-1.487-2.279c-0.44-1.244-2.853-0.931-2.348,0.5
			c0.444,1.257,1.253,2.282,2.179,3.219c0.434,0.438,1.295,0.443,1.75,0.049C51.503,111.607,51.309,110.982,50.896,110.564
			L50.896,110.564z"/>
	</g>
</g>
<g>
	<g>
		<path d="M44.346,110.586c0-0.55,0-1.1,0-1.649c0-0.573-0.955-0.652-1.332-0.607c-0.488,0.059-1.151,0.325-1.151,0.904
			c0,0.55,0,1.1,0,1.649c0,0.573,0.955,0.652,1.332,0.607C43.683,111.432,44.346,111.165,44.346,110.586L44.346,110.586z"/>
	</g>
</g>
<g>
	<g>
		<path d="M34.817,110.598c-0.365-0.693-0.873-1.239-1.515-1.684c-0.113-0.078-0.464-0.029-0.581-0.025
			c-0.321,0.014-0.642,0.046-0.959,0.091c-0.079,0.012-1.004,0.169-0.848,0.276c0.604,0.418,1.076,0.967,1.417,1.615
			c0.11,0.209,1.093,0.028,1.259,0.01C33.652,110.874,34.865,110.688,34.817,110.598L34.817,110.598z"/>
	</g>
</g>
<g>
	<polygon fill="#D43783" points="65.074,39.001 65.074,57.001 189.295,57.001 198.295,48.001 189.295,39.001 	"/>
	<rect x="46.222" y="39.002" fill="#D43783" width="4.5" height="18"/>
	<rect x="52.132" y="39.002" fill="#D43783" width="4.5" height="18"/>
	<rect x="58.539" y="39.002" fill="#D43783" width="4.5" height="18"/>
</g>
<rect x="60.058" y="42" fill="none" width="118.922" height="18"/>
<text transform="matrix(1 0 0 1 72.0591 53.564)" font-family="'MarkerFelt-Wide'" font-size="14">HTTP METHODS</text>
<g>
	<polygon fill="#D43783" points="325.737,39.001 325.737,57.001 449.958,57.001 458.958,48.001 449.958,39.001 	"/>
	<rect x="306.885" y="39.002" fill="#D43783" width="4.5" height="18"/>
	<rect x="312.795" y="39.002" fill="#D43783" width="4.501" height="18"/>
	<rect x="319.202" y="39.002" fill="#D43783" width="4.5" height="18"/>
</g>
<rect x="315.721" y="42" fill="none" width="118.922" height="18"/>
<text transform="matrix(1 0 0 1 330.8018 53.564)" font-family="'MarkerFelt-Wide'" font-size="14">STATUS CODES</text>
<rect x="225.296" y="54" stroke="#000000" stroke-linejoin="round" stroke-miterlimit="10" width="54" height="9"/>
<rect x="234.438" y="56.25" fill="#FFFFFF" width="42.16" height="4.5"/>
<circle fill="#FFFFFF" cx="229.314" cy="58.5" r="2.25"/>
<rect x="225.296" y="67.5" stroke="#000000" stroke-linejoin="round" stroke-miterlimit="10" width="54" height="9"/>
<rect x="234.438" y="69.75" fill="#FFFFFF" width="42.16" height="4.5"/>
<circle fill="#FFFFFF" cx="229.314" cy="72" r="2.25"/>
<rect x="225.296" y="81" stroke="#000000" stroke-linejoin="round" stroke-miterlimit="10" width="54" height="9"/>
<rect x="234.438" y="83.25" fill="#FFFFFF" width="42.16" height="4.5"/>
<circle fill="#FFFFFF" cx="229.314" cy="85.5" r="2.25"/>
</svg>
