<?xml version="1.0" encoding="utf-8"?>
<!-- Generator: Adobe Illustrator 16.0.0, SVG Export Plug-In . SVG Version: 6.00 Build 0)  -->
<!DOCTYPE svg PUBLIC "-//W3C//DTD SVG 1.1//EN" "http://www.w3.org/Graphics/SVG/1.1/DTD/svg11.dtd">
<svg version="1.1" id="Layer_2" xmlns="http://www.w3.org/2000/svg" xmlns:xlink="http://www.w3.org/1999/xlink" x="0px" y="0px"
	 width="513px" height="150px" viewBox="0 0 513 150" enable-background="new 0 0 513 150" xml:space="preserve">
<g>
	<g>
		<path d="M192.038,119.398c0.608-0.961,0.901-2.037,1.07-3.152c0.064-0.426-0.907-1.154-0.971-0.734
			c-0.158,1.047-0.412,2.104-0.984,3.006C190.903,118.911,191.83,119.729,192.038,119.398L192.038,119.398z"/>
	</g>
</g>
<g>
	<g>
		<path d="M196.66,118.779c0.581-1.204,0.915-2.482,1.207-3.783c0.138-0.617-1.004-0.16-1.107,0.301
			c-0.273,1.221-0.588,2.413-1.135,3.544C195.304,119.508,196.451,119.212,196.66,118.779L196.66,118.779z"/>
	</g>
</g>
<g>
	<g>
		<path d="M200.726,119.184c0.131-0.634-0.009-1.203-0.165-1.816c-0.093-0.368-1.092-1.014-0.92-0.334
			c0.121,0.479,0.228,0.912,0.126,1.404C199.683,118.842,200.642,119.592,200.726,119.184L200.726,119.184z"/>
	</g>
</g>
<g>
	<g>
		<path d="M203.772,119.247c0.37-0.396,0.593-0.867,0.88-1.319c0.189-0.297-0.767-1.074-0.895-0.873
			c-0.288,0.453-0.51,0.924-0.88,1.319C202.668,118.6,203.57,119.463,203.772,119.247L203.772,119.247z"/>
	</g>
</g>
<g>
	<g>
		<path d="M213.783,118.736c-0.14-0.771-0.389-1.497-0.732-2.199c-0.098-0.201-1.226,0.18-1.24,0.148
			c0.343,0.703,0.592,1.429,0.732,2.197C212.564,119.007,213.797,118.812,213.783,118.736L213.783,118.736z"/>
	</g>
</g>
<g>
	<g>
		<path d="M217.206,119.124c1.636,0,0.419-1.797-0.756-1.797C214.814,117.327,216.031,119.124,217.206,119.124L217.206,119.124z"/>
	</g>
</g>
<g>
	<g>
		<path d="M164.193,119.398c0.608-0.961,0.901-2.037,1.07-3.152c0.064-0.426-0.907-1.154-0.971-0.734
			c-0.158,1.047-0.412,2.104-0.984,3.006C163.059,118.911,163.985,119.729,164.193,119.398L164.193,119.398z"/>
	</g>
</g>
<g>
	<g>
		<path d="M168.815,118.779c0.581-1.204,0.915-2.482,1.207-3.783c0.138-0.617-1.004-0.16-1.107,0.301
			c-0.273,1.221-0.588,2.413-1.135,3.544C167.459,119.508,168.606,119.212,168.815,118.779L168.815,118.779z"/>
	</g>
</g>
<g>
	<g>
		<path d="M172.881,119.184c0.131-0.634-0.009-1.203-0.165-1.816c-0.093-0.368-1.092-1.014-0.92-0.334
			c0.121,0.479,0.228,0.912,0.126,1.404C171.838,118.842,172.797,119.592,172.881,119.184L172.881,119.184z"/>
	</g>
</g>
<g>
	<g>
		<path d="M175.928,119.247c0.37-0.396,0.593-0.867,0.88-1.319c0.189-0.297-0.767-1.074-0.895-0.873
			c-0.288,0.453-0.51,0.924-0.88,1.319C174.823,118.6,175.726,119.463,175.928,119.247L175.928,119.247z"/>
	</g>
</g>
<g>
	<g>
		<path d="M180.938,118.736c-0.14-0.771-0.389-1.497-0.732-2.199c-0.098-0.201-1.226,0.18-1.24,0.148
			c0.343,0.703,0.592,1.429,0.732,2.197C179.72,119.007,180.952,118.812,180.938,118.736L180.938,118.736z"/>
	</g>
</g>
<g>
	<g>
		<path d="M184.361,119.124c1.636,0,0.419-1.797-0.756-1.797C181.97,117.327,183.187,119.124,184.361,119.124L184.361,119.124z"/>
	</g>
</g>
<g>
	<g>
		<path d="M106.46,119.398c0.608-0.961,0.901-2.037,1.07-3.152c0.064-0.426-0.907-1.154-0.971-0.734
			c-0.158,1.047-0.412,2.104-0.984,3.006C105.325,118.911,106.252,119.729,106.46,119.398L106.46,119.398z"/>
	</g>
</g>
<g>
	<g>
		<path d="M111.082,118.779c0.581-1.204,0.915-2.482,1.207-3.783c0.138-0.617-1.004-0.16-1.107,0.301
			c-0.273,1.221-0.588,2.413-1.135,3.544C109.726,119.508,110.873,119.212,111.082,118.779L111.082,118.779z"/>
	</g>
</g>
<g>
	<g>
		<path d="M90.35,119.247c0.37-0.396,0.593-0.867,0.88-1.319c0.189-0.297-0.767-1.074-0.895-0.873
			c-0.288,0.453-0.51,0.924-0.88,1.319C89.245,118.6,90.147,119.463,90.35,119.247L90.35,119.247z"/>
	</g>
</g>
<g>
	<g>
		<path d="M95.36,118.736c-0.14-0.771-0.389-1.497-0.732-2.199c-0.098-0.201-1.226,0.18-1.24,0.148
			c0.343,0.703,0.592,1.429,0.732,2.197C94.142,119.007,95.374,118.812,95.36,118.736L95.36,118.736z"/>
	</g>
</g>
<g>
	<g>
		<path d="M98.783,119.124c1.636,0,0.419-1.797-0.756-1.797C96.392,117.327,97.608,119.124,98.783,119.124L98.783,119.124z"/>
	</g>
</g>
<g>
	<g>
		<path d="M79.17,119.398c0.608-0.961,0.901-2.037,1.07-3.152c0.064-0.426-0.907-1.154-0.971-0.734
			c-0.158,1.047-0.412,2.104-0.984,3.006C78.036,118.911,78.962,119.729,79.17,119.398L79.17,119.398z"/>
	</g>
</g>
<g>
	<g>
		<path d="M83.792,118.779c0.581-1.204,0.915-2.482,1.207-3.783c0.138-0.617-1.004-0.16-1.107,0.301
			c-0.273,1.221-0.588,2.413-1.135,3.544C82.436,119.508,83.583,119.212,83.792,118.779L83.792,118.779z"/>
	</g>
</g>
<g>
	<g>
		<path d="M63.06,119.247c0.37-0.396,0.593-0.867,0.88-1.319c0.189-0.297-0.767-1.074-0.895-0.873
			c-0.288,0.453-0.51,0.924-0.88,1.319C61.956,118.6,62.858,119.463,63.06,119.247L63.06,119.247z"/>
	</g>
</g>
<g>
	<g>
		<path d="M68.071,118.736c-0.14-0.771-0.389-1.497-0.732-2.199c-0.098-0.201-1.226,0.18-1.24,0.148
			c0.343,0.703,0.592,1.429,0.732,2.197C66.852,119.007,68.084,118.812,68.071,118.736L68.071,118.736z"/>
	</g>
</g>
<g>
	<g>
		<path d="M71.494,119.124c1.636,0,0.419-1.797-0.756-1.797C69.102,117.327,70.319,119.124,71.494,119.124L71.494,119.124z"/>
	</g>
</g>
<g>
	<g>
		<path d="M125.051,119.398c0.608-0.961,0.901-2.037,1.07-3.152c0.064-0.426-0.907-1.154-0.971-0.734
			c-0.158,1.047-0.412,2.104-0.984,3.006C123.916,118.911,124.843,119.729,125.051,119.398L125.051,119.398z"/>
	</g>
</g>
<g>
	<g>
		<path d="M129.673,118.779c0.581-1.204,0.915-2.482,1.207-3.783c0.138-0.617-1.004-0.16-1.107,0.301
			c-0.273,1.221-0.588,2.413-1.135,3.544C128.316,119.508,129.464,119.212,129.673,118.779L129.673,118.779z"/>
	</g>
</g>
<g>
	<g>
		<path d="M133.738,119.184c0.131-0.634-0.009-1.203-0.165-1.816c-0.093-0.368-1.092-1.014-0.92-0.334
			c0.121,0.479,0.228,0.912,0.126,1.404C132.695,118.842,133.654,119.592,133.738,119.184L133.738,119.184z"/>
	</g>
</g>
<g>
	<g>
		<path d="M141.796,118.736c-0.14-0.771-0.389-1.497-0.732-2.199c-0.098-0.201-1.226,0.18-1.24,0.148
			c0.343,0.703,0.592,1.429,0.732,2.197C140.577,119.007,141.81,118.812,141.796,118.736L141.796,118.736z"/>
	</g>
</g>
<g>
	<g>
		<path d="M145.219,119.124c1.636,0,0.419-1.797-0.756-1.797C142.827,117.327,144.044,119.124,145.219,119.124L145.219,119.124z"/>
	</g>
</g>
<g>
	<g>
		<path d="M298.456,119.427c0.608-0.96,0.901-2.036,1.069-3.151c0.063-0.426-0.906-1.153-0.971-0.733
			c-0.158,1.046-0.412,2.103-0.984,3.004C297.32,118.938,298.248,119.755,298.456,119.427L298.456,119.427z"/>
	</g>
</g>
<g>
	<g>
		<path d="M303.077,118.809c0.582-1.205,0.916-2.482,1.208-3.783c0.138-0.616-1.004-0.159-1.107,0.302
			c-0.273,1.221-0.588,2.412-1.136,3.543C301.721,119.535,302.868,119.239,303.077,118.809L303.077,118.809z"/>
	</g>
</g>
<g>
	<g>
		<path d="M307.144,119.211c0.133-0.634-0.01-1.203-0.165-1.818c-0.093-0.367-1.092-1.012-0.92-0.334
			c0.12,0.479,0.229,0.914,0.126,1.406C306.101,118.869,307.06,119.619,307.144,119.211L307.144,119.211z"/>
	</g>
</g>
<g>
	<g>
		<path d="M310.19,119.273c0.369-0.396,0.592-0.865,0.88-1.317c0.188-0.297-0.768-1.075-0.896-0.873
			c-0.288,0.452-0.51,0.924-0.88,1.317C309.086,118.626,309.987,119.49,310.19,119.273L310.19,119.273z"/>
	</g>
</g>
<g>
	<g>
		<path d="M315.201,118.764c-0.142-0.77-0.391-1.496-0.732-2.197c-0.099-0.201-1.226,0.181-1.24,0.147
			c0.345,0.702,0.594,1.429,0.732,2.198C313.982,119.034,315.215,118.839,315.201,118.764L315.201,118.764z"/>
	</g>
</g>
<g>
	<g>
		<path d="M318.624,119.15c1.636,0,0.419-1.797-0.756-1.797C316.232,117.354,317.449,119.15,318.624,119.15L318.624,119.15z"/>
	</g>
</g>
<g>
	<g>
		<path d="M326.132,119.427c0.608-0.96,0.901-2.036,1.07-3.151c0.062-0.426-0.907-1.153-0.971-0.733
			c-0.158,1.046-0.412,2.103-0.984,3.004C324.997,118.938,325.924,119.755,326.132,119.427L326.132,119.427z"/>
	</g>
</g>
<g>
	<g>
		<path d="M342.753,118.809c0.582-1.205,0.916-2.482,1.208-3.783c0.138-0.616-1.004-0.159-1.107,0.302
			c-0.271,1.221-0.588,2.412-1.136,3.543C341.396,119.535,342.544,119.239,342.753,118.809L342.753,118.809z"/>
	</g>
</g>
<g>
	<g>
		<path d="M346.819,119.211c0.131-0.634-0.012-1.203-0.165-1.818c-0.095-0.367-1.094-1.012-0.92-0.334
			c0.118,0.479,0.228,0.914,0.126,1.406C345.776,118.869,346.735,119.619,346.819,119.211L346.819,119.211z"/>
	</g>
</g>
<g>
	<g>
		<path d="M349.866,119.273c0.371-0.396,0.592-0.865,0.88-1.317c0.188-0.297-0.766-1.075-0.896-0.873
			c-0.286,0.452-0.51,0.924-0.88,1.317C348.762,118.626,349.663,119.49,349.866,119.273L349.866,119.273z"/>
	</g>
</g>
<g>
	<g>
		<path d="M354.877,118.764c-0.14-0.77-0.389-1.496-0.732-2.197c-0.099-0.201-1.226,0.181-1.238,0.147
			c0.343,0.702,0.592,1.429,0.73,2.198C353.658,119.034,354.891,118.839,354.877,118.764L354.877,118.764z"/>
	</g>
</g>
<g>
	<g>
		<path d="M358.3,119.15c1.636,0,0.419-1.797-0.756-1.797C355.908,117.354,357.125,119.15,358.3,119.15L358.3,119.15z"/>
	</g>
</g>
<g>
	<g>
		<path d="M370.415,119.427c0.608-0.96,0.901-2.036,1.07-3.151c0.062-0.426-0.907-1.153-0.973-0.733
			c-0.156,1.046-0.412,2.103-0.982,3.004C369.28,118.938,370.207,119.755,370.415,119.427L370.415,119.427z"/>
	</g>
</g>
<g>
	<g>
		<path d="M379.103,119.211c0.133-0.634-0.01-1.203-0.165-1.818c-0.093-0.367-1.092-1.012-0.92-0.334
			c0.12,0.479,0.229,0.914,0.126,1.406C378.06,118.869,379.019,119.619,379.103,119.211L379.103,119.211z"/>
	</g>
</g>
<g>
	<g>
		<path d="M382.149,119.273c0.369-0.396,0.592-0.865,0.88-1.317c0.188-0.297-0.768-1.075-0.896-0.873
			c-0.288,0.452-0.51,0.924-0.88,1.317C381.045,118.626,381.946,119.49,382.149,119.273L382.149,119.273z"/>
	</g>
</g>
<g>
	<g>
		<path d="M387.16,118.764c-0.142-0.77-0.389-1.496-0.732-2.197c-0.099-0.201-1.226,0.181-1.238,0.147
			c0.343,0.702,0.592,1.429,0.73,2.198C385.941,119.034,387.174,118.839,387.16,118.764L387.16,118.764z"/>
	</g>
</g>
<g>
	<g>
		<path d="M390.583,119.15c1.636,0,0.419-1.797-0.756-1.797C388.191,117.354,389.408,119.15,390.583,119.15L390.583,119.15z"/>
	</g>
</g>
<g>
	<g>
		<path d="M402.92,119.427c0.608-0.96,0.901-2.036,1.07-3.151c0.062-0.426-0.907-1.153-0.973-0.733
			c-0.156,1.046-0.41,2.103-0.982,3.004C401.785,118.938,402.712,119.755,402.92,119.427L402.92,119.427z"/>
	</g>
</g>
<g>
	<g>
		<path d="M407.541,118.809c0.582-1.205,0.916-2.482,1.208-3.783c0.138-0.616-1.004-0.159-1.107,0.302
			c-0.271,1.221-0.588,2.412-1.136,3.543C406.184,119.535,407.332,119.239,407.541,118.809L407.541,118.809z"/>
	</g>
</g>
<g>
	<g>
		<path d="M411.607,119.211c0.131-0.634-0.012-1.203-0.165-1.818c-0.095-0.367-1.094-1.012-0.921-0.334
			c0.119,0.479,0.229,0.914,0.127,1.406C410.564,118.869,411.523,119.619,411.607,119.211L411.607,119.211z"/>
	</g>
</g>
<g>
	<g>
		<path d="M414.654,119.273c0.371-0.396,0.592-0.865,0.88-1.317c0.188-0.297-0.768-1.075-0.896-0.873
			c-0.288,0.452-0.51,0.924-0.88,1.317C413.55,118.626,414.451,119.49,414.654,119.273L414.654,119.273z"/>
	</g>
</g>
<g>
	<g>
		<path d="M424.665,118.764c-0.14-0.77-0.389-1.496-0.732-2.197c-0.099-0.201-1.226,0.181-1.238,0.147
			c0.343,0.702,0.592,1.429,0.73,2.198C423.446,119.034,424.679,118.839,424.665,118.764L424.665,118.764z"/>
	</g>
</g>
<g>
	<g>
		<path d="M428.088,119.15c1.636,0,0.419-1.797-0.756-1.797C425.696,117.354,426.913,119.15,428.088,119.15L428.088,119.15z"/>
	</g>
</g>
<g>
	<g>
		<path d="M431.005,119.427c0.608-0.96,0.901-2.036,1.07-3.151c0.062-0.426-0.907-1.153-0.972-0.733
			c-0.157,1.046-0.411,2.103-0.983,3.004C429.87,118.938,430.797,119.755,431.005,119.427L431.005,119.427z"/>
	</g>
</g>
<g>
	<g>
		<path d="M440.626,118.809c0.582-1.205,0.916-2.482,1.208-3.783c0.138-0.616-1.004-0.159-1.107,0.302
			c-0.271,1.221-0.588,2.412-1.136,3.543C439.269,119.535,440.417,119.239,440.626,118.809L440.626,118.809z"/>
	</g>
</g>
<g>
	<g>
		<path d="M444.692,119.211c0.131-0.634-0.012-1.203-0.165-1.818c-0.095-0.367-1.094-1.012-0.92-0.334
			c0.118,0.479,0.228,0.914,0.126,1.406C443.649,118.869,444.608,119.619,444.692,119.211L444.692,119.211z"/>
	</g>
</g>
<g>
	<g>
		<path d="M447.739,119.273c0.371-0.396,0.592-0.865,0.88-1.317c0.188-0.297-0.766-1.075-0.896-0.873
			c-0.288,0.452-0.51,0.924-0.88,1.317C446.635,118.626,447.536,119.49,447.739,119.273L447.739,119.273z"/>
	</g>
</g>
<g>
	<g>
		<path d="M452.75,118.764c-0.14-0.77-0.389-1.496-0.732-2.197c-0.099-0.201-1.226,0.181-1.238,0.147
			c0.343,0.702,0.592,1.429,0.73,2.198C451.531,119.034,452.764,118.839,452.75,118.764L452.75,118.764z"/>
	</g>
</g>
<g>
	<g>
		<path d="M456.173,119.15c1.636,0,0.419-1.797-0.756-1.797C453.781,117.354,454.998,119.15,456.173,119.15L456.173,119.15z"/>
	</g>
</g>
<g>
	<g>
		<path d="M468.165,119.427c0.608-0.96,0.901-2.036,1.07-3.151c0.062-0.426-0.907-1.153-0.973-0.733
			c-0.156,1.046-0.412,2.103-0.982,3.004C467.03,118.938,467.957,119.755,468.165,119.427L468.165,119.427z"/>
	</g>
</g>
<g>
	<g>
		<path d="M476.853,119.211c0.133-0.634-0.01-1.203-0.165-1.818c-0.093-0.367-1.092-1.012-0.92-0.334
			c0.12,0.479,0.229,0.914,0.126,1.406C475.81,118.869,476.769,119.619,476.853,119.211L476.853,119.211z"/>
	</g>
</g>
<g>
	<g>
		<path d="M479.899,119.273c0.369-0.396,0.592-0.865,0.88-1.317c0.188-0.297-0.768-1.075-0.896-0.873
			c-0.288,0.452-0.51,0.924-0.88,1.317C478.795,118.626,479.696,119.49,479.899,119.273L479.899,119.273z"/>
	</g>
</g>
<g>
	<g>
		<path d="M484.91,118.764c-0.142-0.77-0.389-1.496-0.732-2.197c-0.099-0.201-1.226,0.181-1.238,0.147
			c0.343,0.702,0.592,1.429,0.73,2.198C483.691,119.034,484.924,118.839,484.91,118.764L484.91,118.764z"/>
	</g>
</g>
<g>
	<polygon fill="#D43783" points="99.242,39.332 99.242,70.575 187.788,70.575 195.188,54.957 187.788,39.332 	"/>
	<rect x="83.741" y="39.334" fill="#D43783" width="3.699" height="31.243"/>
	<rect x="88.602" y="39.334" fill="#D43783" width="3.699" height="31.243"/>
	<rect x="93.868" y="39.334" fill="#D43783" width="3.701" height="31.243"/>
</g>
<g>
	<path fill="#010101" d="M294.02,69.061v9.494c0,0.644-0.263,1.195-0.773,1.67c-0.514,0.465-1.135,0.703-1.836,0.703h-68.023
		c-0.71,0-1.323-0.238-1.843-0.703c-0.512-0.475-0.774-1.026-0.774-1.67v-9.494c0-0.65,0.263-1.201,0.774-1.674
		c0.52-0.47,1.133-0.708,1.843-0.708h68.023c0.701,0,1.322,0.238,1.836,0.708C293.757,67.859,294.02,68.41,294.02,69.061z
		 M294.02,88.045v9.498c0,0.639-0.263,1.201-0.773,1.666c-0.514,0.479-1.135,0.703-1.836,0.703h-68.023
		c-0.71,0-1.323-0.227-1.843-0.703c-0.512-0.465-0.774-1.027-0.774-1.666v-9.498c0-0.638,0.263-1.201,0.774-1.666
		c0.52-0.47,1.133-0.703,1.843-0.703h68.023c0.701,0,1.322,0.233,1.836,0.703C293.757,86.844,294.02,87.407,294.02,88.045z
		 M294.02,107.037v9.492c0,0.646-0.263,1.201-0.773,1.672c-0.514,0.472-1.135,0.708-1.836,0.708h-68.023
		c-0.71,0-1.323-0.236-1.843-0.708c-0.512-0.471-0.774-1.023-0.774-1.672v-9.492c0-0.643,0.263-1.196,0.774-1.671
		c0.52-0.466,1.133-0.703,1.843-0.703h68.023c0.701,0,1.322,0.237,1.836,0.703C293.757,105.841,294.02,106.395,294.02,107.037z
		 M246.925,95.169h41.86v-4.75h-41.86V95.169z M262.628,114.161h26.157v-4.75h-26.157V114.161z M273.094,76.177h15.691v-4.748
		h-15.691V76.177z"/>
	<path fill="#010101" d="M294.02,31.145v9.493c0,0.643-0.263,1.196-0.773,1.671c-0.514,0.467-1.135,0.703-1.836,0.703h-68.023
		c-0.71,0-1.323-0.236-1.843-0.703c-0.512-0.475-0.774-1.028-0.774-1.671v-9.493c0-0.647,0.263-1.201,0.774-1.671
		c0.52-0.47,1.133-0.708,1.843-0.708h68.023c0.701,0,1.322,0.238,1.836,0.708C293.758,29.944,294.02,30.497,294.02,31.145z
		 M294.02,50.132v9.496c0,0.64-0.263,1.203-0.773,1.668c-0.514,0.475-1.135,0.703-1.836,0.703h-68.023
		c-0.71,0-1.323-0.229-1.843-0.703c-0.512-0.465-0.774-1.028-0.774-1.668v-9.496c0-0.638,0.263-1.201,0.774-1.666
		c0.52-0.473,1.133-0.703,1.843-0.703h68.023c0.701,0,1.322,0.23,1.836,0.703C293.757,48.931,294.02,49.494,294.02,50.132z
		 M294.02,69.124v9.49c0,0.649-0.263,1.2-0.773,1.674c-0.514,0.47-1.135,0.708-1.836,0.708h-68.023c-0.71,0-1.323-0.238-1.843-0.708
		c-0.512-0.474-0.774-1.022-0.774-1.674v-9.49c0-0.646,0.263-1.196,0.774-1.674c0.52-0.465,1.133-0.703,1.843-0.703h68.023
		c0.701,0,1.322,0.238,1.836,0.703C293.757,67.928,294.02,68.479,294.02,69.124z M246.925,57.254h41.86v-4.748h-41.86V57.254z
		 M262.628,76.246h26.157v-4.748h-26.157V76.246z M273.094,38.264h15.691v-4.75h-15.691V38.264z"/>
</g>
<rect x="104.899" y="58.549" fill="none" width="73.968" height="15.296"/>
<text transform="matrix(1 0 0 1 104.8994 53.0654)" font-family="'MarkerFelt-Wide'" font-size="9.1">HTTP </text>
<text transform="matrix(1 0 0 1 104.8994 63.9854)" font-family="'MarkerFelt-Wide'" font-size="9.1">Verbs</text>
<g>
	<polygon fill="#BBBDBF" points="332.719,39.333 332.719,70.575 421.265,70.575 428.665,54.958 421.265,39.333 	"/>
	<rect x="317.218" y="39.334" fill="#BBBDBF" width="3.699" height="31.243"/>
	<rect x="322.078" y="39.334" fill="#BBBDBF" width="3.699" height="31.243"/>
	<rect x="327.345" y="39.334" fill="#BBBDBF" width="3.701" height="31.243"/>
</g>
<rect x="338.376" y="58.549" fill="none" width="73.968" height="15.296"/>
<text transform="matrix(1 0 0 1 338.376 53.0654)" font-family="'MarkerFelt-Wide'" font-size="9.1">Status</text>
<text transform="matrix(1 0 0 1 338.376 63.9854)" font-family="'MarkerFelt-Wide'" font-size="9.1">Codes</text>
<rect x="220.768" y="123.006" fill="none" width="72.358" height="15.296"/>
<text transform="matrix(1 0 0 1 231.4668 130.5225)" font-family="'MarkerFelt-Wide'" font-size="9.1">WEB SERVICE</text>
<polygon stroke="#000000" stroke-linecap="round" stroke-linejoin="round" stroke-miterlimit="10" points="115.063,101.979 
	119.837,118.811 122.75,103.438 "/>
<g>
	
		<rect x="107.497" y="96.707" transform="matrix(0.9888 -0.1493 0.1493 0.9888 -14.1071 19.0411)" fill="#FFFFFF" stroke="#000000" stroke-miterlimit="10" width="24.614" height="13.599"/>
	
		<rect x="104.222" y="99.889" transform="matrix(0.9888 -0.1492 0.1492 0.9888 -14.2456 18.9819)" fill="none" width="30.286" height="9.058"/>
	<text transform="matrix(0.9888 -0.1492 0.1492 0.9888 112.7607 108.0889)" font-family="'MarkerFelt-Wide'" font-size="8.6929">GET</text>
</g>
<polygon stroke="#000000" stroke-miterlimit="10" points="46.024,101.979 50.798,118.811 53.712,103.438 "/>
<g>
	
		<rect x="35.067" y="96.779" transform="matrix(0.9888 -0.1493 0.1493 0.9888 -14.9006 8.6678)" fill="#FFFFFF" stroke="#000000" stroke-miterlimit="10" width="30.429" height="13.6"/>
	
		<rect x="35.186" y="99.883" transform="matrix(0.9888 -0.1492 0.1492 0.9888 -15.0144 8.6774)" fill="none" width="30.287" height="9.059"/>
	<text transform="matrix(0.9888 -0.1492 0.1492 0.9888 38.3066 108.9062)" font-family="'MarkerFelt-Wide'" font-size="8.6929">PATCH</text>
</g>
<polygon stroke="#000000" stroke-linecap="round" stroke-linejoin="round" stroke-miterlimit="10" points="148.663,101.979 
	153.438,118.811 156.351,103.438 "/>
<rect x="141.101" y="96.699" transform="matrix(0.9888 -0.1493 0.1493 0.9888 -13.7353 24.0688)" fill="#FFFFFF" stroke="#000000" stroke-miterlimit="10" width="24.615" height="13.6"/>
<rect x="138.697" y="99.881" transform="matrix(0.9888 -0.1492 0.1492 0.9888 -13.8559 24.1211)" fill="none" width="30.286" height="9.058"/>
<text transform="matrix(0.9888 -0.1492 0.1492 0.9888 144.6523 108.4785)" font-family="'MarkerFelt-Wide'" font-size="8.6929">POST</text>
<polygon stroke="#000000" stroke-linecap="round" stroke-linejoin="round" stroke-miterlimit="10" points="184.821,101.979 
	189.596,118.811 192.509,103.438 "/>
<rect x="177.258" y="96.7" transform="matrix(0.9888 -0.1493 0.1493 0.9888 -13.327 29.4601)" fill="#FFFFFF" stroke="#000000" stroke-miterlimit="10" width="24.615" height="13.599"/>
<rect x="174.851" y="99.894" transform="matrix(0.9888 -0.1492 0.1492 0.9888 -13.4531 29.5153)" fill="none" width="30.286" height="9.057"/>
<text transform="matrix(0.9888 -0.1492 0.1492 0.9888 183.2598 108.1084)" font-family="'MarkerFelt-Wide'" font-size="8.6929">PUT</text>
<polygon stroke="#000000" stroke-linecap="round" stroke-linejoin="round" stroke-miterlimit="10" points="327.848,101.979 
	332.622,118.811 335.535,103.438 "/>
<rect x="320.285" y="96.695" transform="matrix(0.9888 -0.1493 0.1493 0.9888 -11.7216 50.8)" fill="#FFFFFF" stroke="#000000" stroke-miterlimit="10" width="24.615" height="13.599"/>
<rect x="317.012" y="99.892" transform="matrix(0.9888 -0.1492 0.1492 0.9888 -11.8636 50.7372)" fill="none" width="30.285" height="9.059"/>
<text transform="matrix(0.9888 -0.1492 0.1492 0.9888 324.1709 108.2969)" font-family="'MarkerFelt-Wide'" font-size="8.6929">405</text>
<rect x="448.629" y="99.879" transform="matrix(0.9888 -0.1492 0.1492 0.9888 -10.3866 70.3611)" fill="none" width="30.286" height="9.058"/>
<polygon stroke="#000000" stroke-linecap="round" stroke-linejoin="round" stroke-miterlimit="10" points="361.448,101.979 
	366.223,118.811 369.136,103.438 "/>
<rect x="353.884" y="96.693" transform="matrix(0.9888 -0.1493 0.1493 0.9888 -11.3484 55.8423)" fill="#FFFFFF" stroke="#000000" stroke-miterlimit="10" width="24.616" height="13.6"/>
<rect x="351.482" y="99.881" transform="matrix(0.9888 -0.1492 0.1492 0.9888 -11.4756 55.8792)" fill="none" width="30.286" height="9.058"/>
<text transform="matrix(0.9888 -0.1492 0.1492 0.9888 358.6406 108.2969)" font-family="'MarkerFelt-Wide'" font-size="8.6929">204</text>
<polygon stroke="#000000" stroke-linecap="round" stroke-linejoin="round" stroke-miterlimit="10" points="397.606,101.979 
	402.381,118.811 405.294,103.438 "/>
<rect x="390.041" y="96.691" transform="matrix(0.9888 -0.1493 0.1493 0.9888 -10.941 61.2253)" fill="#FFFFFF" stroke="#000000" stroke-miterlimit="10" width="24.616" height="13.599"/>
<rect x="387.639" y="99.895" transform="matrix(0.9888 -0.1492 0.1492 0.9888 -11.0716 61.2618)" fill="none" width="30.286" height="9.058"/>
<text transform="matrix(0.9888 -0.1492 0.1492 0.9888 394.7988 108.2959)" font-family="'MarkerFelt-Wide'" font-size="8.6929">201</text>
<polygon stroke="#000000" stroke-linecap="round" stroke-linejoin="round" stroke-miterlimit="10" points="457.899,101.979 
	462.674,118.811 465.587,103.438 "/>
<rect x="450.334" y="96.692" transform="matrix(0.9888 -0.1493 0.1493 0.9888 -10.2657 70.229)" fill="#FFFFFF" stroke="#000000" stroke-miterlimit="10" width="24.615" height="13.599"/>
<rect x="447.933" y="99.895" transform="matrix(0.9888 -0.1492 0.1492 0.9888 -10.3969 70.2596)" fill="none" width="30.285" height="9.058"/>
<text transform="matrix(0.9888 -0.1492 0.1492 0.9888 455.0918 108.2959)" font-family="'MarkerFelt-Wide'" font-size="8.6929">404</text>
<g>
	<g>
		<path d="M24.917,119.273c0.37-0.396,0.592-0.866,0.879-1.318c0.189-0.297-0.767-1.074-0.895-0.873
			c-0.288,0.453-0.509,0.924-0.879,1.318C23.812,118.626,24.715,119.49,24.917,119.273L24.917,119.273z"/>
	</g>
</g>
<g>
	<g>
		<path d="M29.928,118.764c-0.14-0.77-0.39-1.496-0.732-2.199c-0.098-0.199-1.226,0.182-1.24,0.148
			c0.342,0.703,0.592,1.43,0.732,2.199C28.709,119.034,29.941,118.838,29.928,118.764L29.928,118.764z"/>
	</g>
</g>
<g>
	<g>
		<path d="M33.35,119.15c1.636,0,0.419-1.797-0.756-1.797C30.958,117.354,32.175,119.15,33.35,119.15L33.35,119.15z"/>
	</g>
</g>
</svg>
