<?xml version="1.0" encoding="utf-8"?>
<!-- Generator: Adobe Illustrator 16.0.0, SVG Export Plug-In . SVG Version: 6.00 Build 0)  -->
<!DOCTYPE svg PUBLIC "-//W3C//DTD SVG 1.1//EN" "http://www.w3.org/Graphics/SVG/1.1/DTD/svg11.dtd">
<svg version="1.1" id="Layer_2" xmlns="http://www.w3.org/2000/svg" xmlns:xlink="http://www.w3.org/1999/xlink" x="0px" y="0px"
	 width="513px" height="150px" viewBox="0 0 513 150" enable-background="new 0 0 513 150" xml:space="preserve">
<rect x="56" y="21" fill="none" stroke="#000000" stroke-width="2" stroke-linecap="round" stroke-linejoin="round" stroke-miterlimit="10" width="72" height="90.001"/>
<polygon fill="none" stroke="#000000" stroke-linecap="round" stroke-linejoin="round" stroke-miterlimit="10" points="
	401.934,109.64 407.426,129 410.777,111.314 "/>
<polyline fill="none" stroke="#000000" stroke-width="2" stroke-linecap="round" stroke-linejoin="round" stroke-miterlimit="10" points="
	314.18,111 314.18,48 350.18,21 386.18,48 386.18,111 "/>
<g>
	<rect x="351.59" y="94.092" transform="matrix(0.9888 -0.1493 0.1493 0.9888 -11.5153 61.7401)" width="108" height="27"/>
	
		<rect x="366.211" y="103.37" transform="matrix(0.9888 -0.1492 0.1492 0.9888 -12.2156 61.9582)" fill="none" width="81" height="17.999"/>
	
		<text transform="matrix(0.9888 -0.1493 0.1493 0.9888 378.8994 115.8467)" fill="#FFFFFF" font-family="'MarkerFelt-Wide'" font-size="10">WEB SERVICE</text>
</g>
<g>
	<g>
		<path d="M319.996,112.352c0.774-1.223,1.154-2.577,1.369-3.998c0.084-0.556-0.365-1.084-0.778-1.396
			c-0.2-0.152-1.079-0.629-1.163-0.072c-0.193,1.281-0.496,2.593-1.197,3.699C317.727,111.374,319.58,113.008,319.996,112.352
			L319.996,112.352z"/>
	</g>
</g>
<g>
	<g>
		<path d="M325.827,111.223c0.741-1.532,1.167-3.165,1.538-4.819c0.132-0.589-0.552-0.716-0.967-0.604
			c-0.571,0.155-1.113,0.612-1.246,1.203c-0.336,1.499-0.723,2.954-1.394,4.343c-0.239,0.494,0.093,0.919,0.618,0.888
			C324.985,112.197,325.567,111.762,325.827,111.223L325.827,111.223z"/>
	</g>
</g>
<g>
	<g>
		<path d="M330.883,112.031c0.182-0.846-0.014-1.609-0.221-2.43c-0.137-0.539-0.736-1.075-1.242-1.258
			c-0.506-0.184-0.718,0.123-0.6,0.592c0.138,0.543,0.264,1.042,0.145,1.602c-0.113,0.529,0.408,1.095,0.783,1.387
			C329.954,112.084,330.769,112.566,330.883,112.031L330.883,112.031z"/>
	</g>
</g>
<g>
	<g>
		<path d="M334.667,112.157c0.466-0.492,0.738-1.086,1.1-1.649c0.379-0.592-1.53-2.15-1.789-1.746
			c-0.361,0.564-0.635,1.158-1.1,1.649C332.457,110.855,334.258,112.59,334.667,112.157L334.667,112.157z"/>
	</g>
</g>
<g>
	<g>
		<path d="M341.062,111.136c-0.173-0.963-0.485-1.872-0.916-2.749c-0.095-0.192-1.109-0.002-1.257,0.016
			c-0.062,0.008-1.267,0.198-1.226,0.281c0.431,0.877,0.744,1.786,0.916,2.749C338.622,111.675,341.089,111.288,341.062,111.136
			L341.062,111.136z"/>
	</g>
</g>
<g>
	<g>
		<path d="M344.78,111.45c1.636,0,0.419-1.797-0.756-1.797C342.389,109.653,343.605,111.45,344.78,111.45L344.78,111.45z"/>
	</g>
</g>
<g>
	<g>
		<path d="M349.684,111.132c0-0.611,0-1.222,0-1.833c0-0.844-2.5-0.885-2.5-0.061c0,0.611,0,1.222,0,1.833
			C347.184,111.915,349.684,111.956,349.684,111.132L349.684,111.132z"/>
	</g>
</g>
<g>
	<g>
		<path d="M309.86,110.564c-0.649-0.657-1.179-1.405-1.487-2.279c-0.439-1.244-2.854-0.931-2.348,0.5
			c0.444,1.256,1.253,2.281,2.179,3.219c0.434,0.438,1.295,0.443,1.75,0.049C310.467,111.607,310.273,110.982,309.86,110.564
			L309.86,110.564z"/>
	</g>
</g>
<g>
	<g>
		<path d="M303.31,110.586c0-0.55,0-1.1,0-1.649c0-0.573-0.955-0.652-1.332-0.607c-0.487,0.059-1.15,0.325-1.15,0.904
			c0,0.55,0,1.1,0,1.649c0,0.573,0.955,0.652,1.332,0.607C302.646,111.432,303.31,111.165,303.31,110.586L303.31,110.586z"/>
	</g>
</g>
<g>
	<g>
		<path d="M297.936,110.655c0.149-0.482,0.218-0.983,0.367-1.466c0.145-0.464-0.829-0.305-1.008-0.266
			c-0.403,0.09-1.213,0.325-1.357,0.791c-0.149,0.482-0.218,0.983-0.367,1.466c-0.145,0.464,0.829,0.305,1.008,0.266
			C296.981,111.356,297.791,111.121,297.936,110.655L297.936,110.655z"/>
	</g>
</g>
<g>
	<g>
		<path d="M293.78,110.598c-0.365-0.693-0.872-1.239-1.515-1.684c-0.113-0.078-0.463-0.029-0.58-0.025
			c-0.321,0.014-0.642,0.046-0.959,0.091c-0.078,0.012-1.004,0.169-0.848,0.276c0.604,0.418,1.075,0.967,1.417,1.615
			c0.109,0.209,1.093,0.028,1.259,0.01C292.615,110.874,293.828,110.688,293.78,110.598L293.78,110.598z"/>
	</g>
</g>
<polygon fill="none" stroke="#000000" stroke-linecap="round" stroke-linejoin="round" stroke-miterlimit="10" points="
	140.254,109.64 145.746,129 149.098,111.314 "/>
<g>
	<rect x="89.91" y="94.092" transform="matrix(0.9888 -0.1493 0.1493 0.9888 -14.4464 22.684)" width="108" height="27"/>
	
		<rect x="90.146" y="103.453" transform="matrix(0.9888 -0.1493 0.1493 0.9888 -15.1655 22.8239)" fill="none" width="108.673" height="17.999"/>
	
		<text transform="matrix(0.9888 -0.1493 0.1493 0.9888 111.1836 116.7578)" fill="#FFFFFF" font-family="'MarkerFelt-Wide'" font-size="10">ELEARNING APP</text>
</g>
<g>
	<polygon fill="#D43783" points="278.148,57 278.148,39 153.928,39 144.928,48 153.928,57 	"/>
	<rect x="292.5" y="39" fill="#D43783" width="4.5" height="18"/>
	<rect x="286.59" y="39" fill="#D43783" width="4.5" height="18"/>
	<rect x="280.184" y="39" fill="#D43783" width="4.5" height="18"/>
</g>
<rect x="84.619" y="31.167" width="38.381" height="11.5"/>
<rect x="89.333" y="34.333" fill="none" width="30.667" height="8.333"/>
<text transform="matrix(1 0 0 1 89.7271 39.2896)" fill="#FFFFFF" font-family="'MarkerFelt-Wide'" font-size="6">DOWNLOAD</text>
<rect x="58.215" y="57" fill="none" width="67.931" height="12.588"/>
<text transform="matrix(1 0 0 1 65.6006 66.9121)" font-family="'MarkerFelt-Wide'" font-size="12">WELCOME</text>
<rect x="230.684" y="42" fill="none" width="54" height="18"/>
<text transform="matrix(1 0 0 1 246.2734 53.564)" font-family="'MarkerFelt-Wide'" font-size="14">GET</text>
<rect x="70.71" y="72.343" fill="none" width="41.966" height="30.691"/>
<text transform="matrix(1 0 0 1 84.5684 89.5264)" font-family="'ArialMT'" font-size="24">♥</text>
<rect x="324" y="54" stroke="#000000" stroke-linejoin="round" stroke-miterlimit="10" width="54" height="9"/>
<rect x="333.142" y="56.25" fill="#FFFFFF" width="42.16" height="4.5"/>
<circle fill="#FFFFFF" cx="328.019" cy="58.5" r="2.25"/>
<rect x="324" y="67.5" stroke="#000000" stroke-linejoin="round" stroke-miterlimit="10" width="54" height="9"/>
<rect x="333.142" y="69.75" fill="#FFFFFF" width="42.16" height="4.5"/>
<circle fill="#FFFFFF" cx="328.019" cy="72" r="2.25"/>
<rect x="324" y="81" stroke="#000000" stroke-linejoin="round" stroke-miterlimit="10" width="54" height="9"/>
<rect x="333.142" y="83.25" fill="#FFFFFF" width="42.16" height="4.5"/>
<circle fill="#FFFFFF" cx="328.019" cy="85.5" r="2.25"/>
</svg>
