<?xml version="1.0" standalone="no"?>
<!DOCTYPE svg PUBLIC "-//W3C//DTD SVG 20010904//EN"
 "http://www.w3.org/TR/2001/REC-SVG-20010904/DTD/svg10.dtd">
<svg version="1.0" xmlns="http://www.w3.org/2000/svg"
 width="800.000000pt" height="800.000000pt" viewBox="0 0 800.000000 800.000000"
 preserveAspectRatio="xMidYMid meet">
<metadata>
Created by potrace 1.11, written by Peter Selinger 2001-2013
</metadata>
<g transform="translate(0.000000,800.000000) scale(0.100000,-0.100000)"
fill="#000000" stroke="none">
<path d="M0 4429 l0 -3570 29 20 c16 12 36 41 47 68 19 51 22 145 14 503 -4
159 3 253 22 275 65 77 68 79 68 55 0 -12 9 -37 20 -55 13 -21 22 -57 25 -96
5 -74 14 -134 24 -163 4 -12 9 -43 10 -70 2 -27 11 -77 22 -111 10 -33 23 -92
28 -130 6 -38 15 -71 21 -73 5 -2 10 -21 10 -43 0 -21 4 -39 8 -39 5 0 18 -18
31 -40 12 -22 28 -40 34 -40 7 0 30 -17 52 -38 62 -58 149 -89 280 -97 17 -1
48 -5 70 -8 22 -3 72 -9 110 -12 60 -6 73 -10 92 -33 12 -15 22 -34 23 -41 0
-10 3 -12 10 -5 16 16 40 120 40 177 1 55 22 129 40 135 5 2 10 9 10 17 0 7
17 17 38 22 49 12 107 3 107 -17 0 -8 2 -17 5 -20 15 -15 38 -70 44 -102 8
-45 26 -51 26 -9 0 16 5 31 12 33 8 3 7 12 -5 34 -8 16 -18 42 -22 57 -4 20
-11 27 -23 25 -11 -2 -22 8 -32 27 -9 18 -33 39 -62 53 -27 13 -48 28 -48 33
0 5 -9 9 -20 9 -11 0 -20 4 -20 8 0 5 -18 17 -40 28 -34 16 -40 24 -40 50 0
18 7 45 15 60 8 16 15 25 15 21 0 -5 7 -1 16 7 10 11 34 16 72 16 63 0 122 18
122 37 0 7 4 13 9 13 12 0 28 46 36 104 4 27 13 55 21 63 8 8 14 33 14 56 0
23 7 51 15 61 8 11 15 30 15 42 0 13 4 25 9 29 5 3 12 19 16 35 4 17 11 30 16
30 5 0 9 6 9 14 0 8 7 16 15 20 8 3 15 13 15 23 0 15 2 16 10 3 8 -13 10 -13
10 2 0 10 9 22 19 27 16 9 18 8 14 -10 -4 -13 -1 -19 8 -17 9 2 15 -13 20 -48
4 -29 10 -58 15 -65 5 -8 9 -90 9 -184 1 -189 4 -199 63 -227 38 -17 72 -23
223 -34 82 -6 87 -6 98 15 7 11 17 21 24 21 7 0 25 18 41 40 17 22 36 40 43
40 7 0 13 9 13 20 0 14 7 20 24 20 13 0 26 7 30 15 3 8 10 15 16 15 5 0 10 -7
10 -15 0 -22 17 -18 23 5 3 11 -2 27 -10 36 -21 21 -7 31 15 11 10 -10 21 -17
24 -17 13 0 48 39 48 53 0 8 13 21 30 29 16 7 30 18 30 25 0 6 18 30 40 52 22
22 40 44 40 49 0 5 6 15 14 21 8 7 21 26 30 44 21 40 39 70 47 77 4 3 18 28
32 55 14 28 39 63 56 78 17 16 31 33 31 38 0 5 20 18 45 30 25 12 45 25 45 30
0 14 76 10 89 -4 6 -8 29 -22 51 -32 22 -10 40 -22 40 -27 0 -5 5 -6 10 -3 6
4 13 -7 16 -25 4 -17 10 -33 15 -36 25 -15 68 -146 109 -329 12 -55 29 -129
37 -165 9 -36 16 -94 17 -129 l1 -64 -102 -56 c-105 -58 -213 -144 -213 -170
0 -8 -20 -33 -45 -57 -25 -23 -45 -49 -45 -58 0 -9 -9 -21 -19 -28 -10 -6 -17
-18 -14 -25 3 -8 -3 -13 -16 -13 -15 0 -21 -6 -21 -21 0 -12 -8 -23 -19 -26
-21 -5 -47 -56 -36 -72 3 -6 2 -11 -2 -11 -20 0 -91 -73 -86 -87 5 -12 7 -12
14 -1 6 9 9 7 9 -8 0 -12 -14 -40 -31 -63 -17 -24 -28 -45 -26 -48 3 -2 -8
-18 -24 -35 -26 -29 -85 -57 -118 -58 -22 0 -5 58 33 115 19 28 48 79 65 114
17 35 38 72 46 81 9 9 13 24 10 32 -3 8 1 21 10 28 8 7 15 18 15 25 0 7 9 24
21 39 11 15 32 47 45 71 19 37 21 45 8 45 -9 0 -18 -8 -21 -19 -3 -14 -17 -20
-53 -25 -27 -4 -52 -11 -55 -15 -3 -5 -24 -12 -48 -16 -23 -4 -51 -12 -62 -18
-32 -17 -124 -36 -130 -26 -3 4 -15 -1 -25 -11 -11 -11 -31 -20 -45 -20 -14 0
-25 -4 -25 -9 0 -5 -10 -11 -22 -14 -148 -35 -353 -159 -480 -290 -88 -91
-246 -313 -275 -387 -9 -22 -20 -40 -25 -40 -4 0 -8 -8 -8 -17 0 -10 -9 -33
-20 -51 -11 -18 -20 -37 -20 -42 0 -7 907 -10 2574 -10 l2575 0 7 23 c4 12 7
30 5 39 -1 9 4 36 10 60 7 24 12 61 10 84 -2 28 8 68 33 129 20 49 36 96 36
104 0 9 20 56 45 106 25 49 45 97 45 106 0 9 9 24 19 33 11 10 32 35 46 56
l27 39 -38 37 c-42 39 -42 39 33 18 17 -5 25 -1 29 12 4 11 21 31 38 46 17 16
26 28 19 28 -6 0 -15 -5 -18 -10 -4 -6 -11 -8 -16 -5 -5 4 -22 -6 -37 -22 -28
-27 -29 -27 -48 -10 -16 15 -16 19 -4 27 8 5 21 10 28 10 6 0 12 5 12 11 0 15
57 79 64 72 3 -3 8 2 12 11 3 9 40 33 81 54 91 45 104 64 71 99 -21 23 -29 25
-89 21 -51 -3 -82 -11 -129 -36 -35 -17 -68 -32 -75 -32 -6 0 -22 -11 -35 -25
-13 -14 -32 -25 -43 -25 -12 0 -23 -11 -30 -30 -6 -17 -16 -30 -22 -30 -5 0
-30 -18 -55 -40 -25 -22 -49 -40 -53 -40 -4 0 -22 -13 -39 -29 -18 -17 -43
-36 -57 -43 -15 -7 -44 -25 -65 -40 -21 -16 -43 -28 -48 -28 -5 0 -21 -13 -36
-28 -29 -31 -82 -66 -82 -56 0 7 48 54 56 54 8 0 44 40 44 50 0 5 9 14 20 20
11 6 31 22 44 35 14 14 30 25 36 25 17 0 11 28 -7 33 -10 2 -3 2 15 0 26 -3
37 1 52 20 10 13 37 32 59 42 22 10 38 22 35 27 -3 5 9 23 27 39 31 27 32 30
15 48 -10 11 -25 17 -37 14 -10 -3 -19 -1 -19 4 0 10 46 46 70 55 8 3 21 26
27 50 10 37 18 47 50 62 36 16 59 49 101 148 2 5 -3 8 -11 8 -8 0 -42 20 -74
44 -65 48 -144 86 -176 86 -16 0 -18 3 -10 11 22 22 -26 76 -91 104 -32 14
-61 23 -64 21 -2 -3 25 -35 62 -72 36 -37 66 -71 66 -76 0 -4 9 -8 19 -8 10 0
22 -7 25 -16 8 -22 8 -24 -8 -24 -8 0 -16 -7 -20 -15 -3 -8 -14 -15 -24 -15
-24 0 -42 -19 -35 -36 3 -8 -1 -14 -11 -14 -9 0 -67 -49 -129 -110 -108 -106
-241 -211 -404 -321 -43 -29 -82 -57 -88 -61 -40 -35 -291 -188 -355 -218 -25
-11 -52 -25 -60 -30 -8 -5 -49 -25 -90 -44 -41 -19 -113 -52 -160 -74 -47 -21
-102 -45 -123 -52 -22 -7 -51 -18 -65 -26 -15 -8 -53 -19 -84 -25 -32 -6 -58
-15 -58 -19 0 -12 -39 -14 -123 -4 -45 5 -57 10 -53 21 3 8 6 26 6 39 0 18 5
24 23 24 21 0 51 39 59 78 4 19 61 79 71 74 4 -2 7 0 6 5 -1 4 -1 25 0 46 1
29 5 37 19 37 11 0 24 11 30 25 7 14 20 29 29 32 19 7 44 29 44 38 -1 20 13
65 20 65 4 0 10 8 13 18 4 10 15 28 27 40 l20 22 -21 0 c-27 0 -25 8 6 32 14
12 30 32 36 47 6 15 12 21 15 14 3 -7 12 -13 20 -13 9 0 13 3 10 7 -4 3 -2 12
3 18 6 7 11 25 12 41 1 19 14 41 39 65 24 22 40 48 44 72 5 26 13 37 28 39 15
2 24 13 30 40 6 23 16 38 29 41 11 3 18 10 15 14 -3 5 5 17 19 27 27 21 31 36
9 36 -8 0 -15 6 -15 14 0 7 7 19 15 26 8 7 15 19 15 26 0 8 4 14 9 14 5 0 28
18 50 40 22 22 44 40 48 40 4 1 24 14 43 31 29 25 33 31 20 40 -12 8 -9 10 13
6 15 -2 30 0 33 4 3 5 -4 9 -16 9 -29 0 -38 29 -14 47 10 8 18 19 16 24 -1 5
9 7 22 3 21 -5 26 -1 36 30 6 20 9 40 6 45 -3 5 1 12 10 15 10 4 13 13 9 26
-4 14 -2 20 7 18 9 -2 12 6 10 23 -1 15 4 32 13 39 8 7 15 18 15 25 0 7 6 18
14 24 8 7 18 26 21 42 4 16 11 29 16 29 5 0 4 9 -3 21 -11 18 -10 23 14 43 25
20 27 25 18 56 -8 27 -7 36 5 43 21 12 20 77 -1 77 -13 0 -15 6 -9 28 4 15 9
40 11 56 2 17 13 49 25 73 20 41 20 73 1 73 -18 0 3 80 33 120 11 15 34 95 40
140 2 14 9 46 16 72 13 52 7 72 -15 43 -10 -13 -15 -15 -21 -6 -5 9 -11 6 -19
-9 -16 -32 -30 -26 -34 14 -2 19 -10 37 -18 40 -21 8 -44 -4 -44 -24 0 -10 -7
-20 -15 -24 -8 -3 -15 -10 -15 -16 0 -16 -22 -35 -40 -35 -11 0 -15 -12 -16
-40 -2 -68 -3 -69 -18 -56 -15 13 -41 -10 -41 -38 0 -11 -8 -15 -27 -13 -16 2
-28 -2 -28 -9 0 -6 7 -9 15 -5 10 4 15 -1 15 -16 0 -20 -1 -20 -18 -5 -25 23
-36 21 -56 -5 -16 -22 -17 -21 -11 32 4 30 12 58 18 62 21 13 55 9 61 -9 9
-22 20 -9 45 49 18 42 18 46 3 41 -9 -4 -22 -14 -29 -22 -11 -14 -12 -13 -13
6 0 12 4 24 10 28 5 3 6 13 3 21 -6 17 15 64 34 77 7 4 13 13 13 20 0 7 14 20
30 29 17 9 30 24 30 33 0 9 7 26 15 39 14 20 14 27 1 57 l-15 34 -1 -47 c0
-36 -4 -48 -15 -48 -8 0 -15 5 -15 11 0 7 -10 -1 -22 -17 -12 -16 -25 -31 -28
-34 -3 -3 -5 -14 -5 -24 0 -32 -23 -29 -30 3 -4 20 -13 31 -23 31 -29 0 -45
-16 -37 -39 6 -21 -3 -49 -17 -50 -5 -1 -15 -1 -23 -1 -18 0 -10 -52 13 -87
15 -24 10 -73 -8 -73 -5 0 -12 11 -16 25 -8 32 -22 32 -30 1 -3 -14 -12 -27
-20 -30 -14 -5 -14 6 2 66 4 12 0 15 -15 11 -13 -3 -21 1 -25 15 -4 11 -25 36
-48 56 -39 35 -62 44 -71 29 -2 -5 -2 -3 -1 4 2 7 -1 15 -5 18 -5 2 -11 -7
-14 -20 -4 -23 1 -28 44 -47 27 -11 49 -25 49 -30 0 -14 -27 -38 -34 -31 -15
15 -4 -14 14 -37 11 -14 20 -29 20 -34 0 -4 11 -17 24 -27 36 -28 34 -84 -4
-103 -20 -10 -31 -11 -39 -3 -14 14 -51 -22 -51 -50 0 -5 -5 -1 -10 7 -6 9
-10 10 -10 3 0 -6 7 -19 16 -27 24 -24 -1 -19 -42 9 -37 25 -74 33 -74 16 0
-5 11 -12 25 -15 14 -4 23 -11 20 -15 -3 -5 -14 -7 -24 -4 -16 4 -21 -2 -26
-31 -8 -38 -20 -53 -30 -36 -8 13 -85 13 -85 0 0 -6 10 -15 23 -19 19 -8 20
-10 5 -16 -21 -8 -24 -51 -5 -58 6 -3 -2 -6 -20 -6 -17 -1 -34 -7 -36 -13 -4
-10 -8 -10 -15 1 -7 9 -12 10 -16 2 -4 -6 -19 -11 -34 -11 -26 -1 -26 -1 -8
-15 19 -14 19 -16 -10 -40 -16 -14 -35 -25 -41 -25 -7 0 -13 -4 -13 -10 0 -5
-9 -10 -21 -10 -11 0 -17 -4 -14 -10 3 -5 -4 -20 -15 -32 l-21 -23 -19 23
c-11 13 -24 21 -30 17 -5 -3 -10 1 -10 9 0 12 -5 13 -29 5 -15 -5 -32 -9 -37
-8 -5 2 -24 -1 -42 -5 -22 -5 -38 -4 -45 3 -15 15 -27 14 -27 -4 0 -8 -4 -15
-10 -15 -5 0 -10 -7 -10 -15 0 -11 -8 -13 -33 -8 -17 3 -35 11 -39 17 -5 7 -8
4 -8 -6 0 -10 -4 -18 -10 -18 -10 0 -14 19 -11 50 1 11 -3 9 -14 -5 -16 -19
-17 -19 -30 -2 -7 11 -11 25 -9 32 4 9 -2 11 -21 8 -21 -5 -24 -2 -18 13 5 14
3 16 -11 11 -10 -4 -26 -7 -36 -7 -10 0 -22 -9 -25 -21 -5 -16 -10 -18 -18
-10 -7 7 -12 15 -12 19 0 4 -9 17 -19 29 -16 18 -21 19 -33 8 -7 -8 -13 -21
-13 -29 0 -9 -5 -16 -11 -16 -5 0 -8 4 -5 8 8 13 -23 52 -40 52 -8 0 -14 7
-14 15 0 8 -4 15 -10 15 -6 0 -8 -20 -5 -47 3 -27 3 -42 -1 -35 -9 19 -24 14
-24 -8 0 -28 -28 -25 -32 2 -2 13 -8 23 -15 23 -17 0 -38 23 -29 32 4 4 15 2
25 -4 16 -10 18 -9 14 7 -3 12 2 20 17 25 35 11 19 13 -40 5 -58 -8 -86 0
-108 32 -7 10 -19 18 -27 18 -18 0 -38 -36 -30 -53 3 -6 0 -5 -6 4 -11 15 -14
14 -36 -4 -12 -11 -23 -29 -23 -39 0 -10 -7 -18 -15 -18 -9 0 -12 6 -8 16 4
11 2 15 -6 13 -7 -3 -11 -8 -9 -12 4 -9 -42 -41 -49 -33 -4 3 -1 6 7 6 24 0
-10 28 -43 36 -32 6 -67 34 -67 54 0 5 -4 10 -10 10 -5 0 -10 7 -10 15 0 9
-10 20 -22 25 -18 7 -19 9 -5 9 11 1 17 9 17 25 0 42 11 56 41 56 19 0 29 -5
29 -15 0 -19 14 -19 31 1 8 10 25 14 47 12 22 -2 37 2 40 10 2 6 17 12 32 12
16 0 35 6 42 14 10 10 17 11 31 2 15 -9 22 -7 37 12 20 24 76 46 92 36 5 -3 4
-12 -3 -20 -9 -11 -7 -14 12 -16 13 0 36 -2 52 -3 15 -1 27 2 27 8 0 5 7 4 15
-3 8 -7 23 -9 32 -5 17 6 17 7 -1 21 -11 7 -17 16 -14 20 10 9 48 -20 48 -37
0 -9 11 -24 25 -33 32 -21 38 -20 23 3 -10 16 -9 27 5 57 18 37 18 37 33 15
14 -20 42 -31 30 -12 -3 5 5 16 19 25 14 9 25 26 25 37 0 17 4 20 24 15 13 -3
41 1 61 10 21 8 43 13 50 10 16 -6 65 15 65 28 0 18 -36 35 -72 36 -27 0 -40
6 -48 21 -14 26 -7 35 10 14 7 -8 19 -15 27 -15 23 0 11 33 -17 47 -14 7 -25
18 -25 25 0 9 -12 12 -37 10 -29 -3 -38 0 -38 12 0 18 16 23 105 31 123 10
145 15 145 33 0 10 -5 24 -10 32 -8 13 -11 11 -16 -7 -6 -23 -44 -33 -44 -13
0 6 -7 10 -15 10 -8 0 -15 -4 -15 -10 0 -5 -13 -10 -29 -10 -17 0 -33 -4 -36
-10 -9 -14 -55 -12 -55 3 0 8 -26 13 -93 14 -133 3 -185 9 -202 23 -12 10 -15
9 -15 -4 0 -20 -19 -21 -26 -2 -3 8 -11 13 -18 10 -17 -7 -55 37 -62 72 -6 30
-5 31 38 37 34 4 230 1 266 -4 4 -1 16 0 27 1 15 1 13 4 -9 10 -16 5 -33 7
-38 4 -10 -6 -11 47 0 61 4 6 23 10 43 11 36 1 36 0 32 -33 -4 -25 -1 -33 11
-33 9 0 16 -4 16 -10 0 -13 45 31 53 53 4 10 2 17 -6 17 -8 0 -6 4 3 10 10 7
-8 10 -61 10 -48 0 -82 5 -94 14 -16 12 -21 11 -35 -6 -14 -18 -28 -20 -109
-19 -92 0 -121 9 -121 37 0 17 0 17 -55 3 -36 -9 -47 -8 -69 6 -21 14 -26 25
-26 60 0 24 4 55 9 69 8 21 15 24 46 22 19 -2 45 -12 56 -22 17 -16 22 -16 29
-4 6 8 10 19 10 24 0 14 42 46 51 40 5 -3 9 0 9 5 0 18 103 13 130 -6 24 -17
70 -25 70 -13 0 14 50 29 117 35 54 6 73 4 84 -7 33 -33 59 -40 84 -24 14 9
37 16 52 16 26 0 93 -38 93 -52 0 -12 24 -9 57 7 40 20 59 11 73 -31 9 -27 8
-44 -5 -83 -9 -27 -23 -52 -31 -55 -15 -6 -84 28 -96 47 -5 8 -13 5 -27 -7
-16 -15 -32 -18 -85 -14 -53 3 -66 1 -75 -14 -8 -13 -8 -16 3 -12 9 3 15 -6
20 -27 9 -45 8 -46 -15 -52 -24 -7 -20 -33 5 -31 9 1 16 -2 16 -7 0 -5 9 -9
20 -9 11 0 20 4 20 8 0 5 11 14 25 20 15 7 25 8 25 2 0 -6 7 -10 16 -10 11 0
14 6 9 20 -5 15 -2 20 14 20 23 0 38 -19 22 -29 -16 -10 -26 -71 -12 -71 15 0
-6 -23 -29 -33 -8 -4 0 -5 19 -2 18 3 51 5 72 5 39 0 39 0 40 43 1 23 4 32 6
20 2 -13 12 -23 21 -23 30 0 110 43 123 66 6 12 22 27 36 33 13 6 21 16 18 21
-3 6 2 13 12 17 10 4 23 12 28 19 6 7 28 21 49 33 l40 20 22 -33 c13 -18 29
-36 37 -39 13 -5 57 -83 57 -101 0 -16 35 -81 50 -93 15 -12 52 -7 58 8 2 4
11 5 20 2 10 -4 7 3 -8 15 -19 16 -22 24 -12 30 7 5 10 16 6 27 -5 13 -4 16 4
11 9 -5 12 5 12 35 0 33 6 47 28 66 24 22 25 24 5 18 -16 -4 -25 0 -33 14 -9
17 -8 20 5 15 8 -4 15 -1 15 5 0 6 -4 11 -10 11 -6 0 -5 9 1 24 7 15 8 30 2
42 -5 11 -7 35 -3 54 7 42 -9 120 -24 120 -7 0 -10 15 -8 40 2 22 9 40 15 40
5 0 0 8 -11 19 -12 10 -22 23 -22 30 0 6 -4 11 -10 11 -5 0 -10 8 -10 18 0 9
-7 30 -15 45 -11 21 -12 34 -5 48 10 18 4 35 -39 109 -5 8 -21 44 -37 80 -15
36 -34 72 -41 81 -7 8 -13 21 -13 27 0 7 -9 12 -19 12 -11 0 -28 11 -39 25
-22 28 -52 33 -52 10 0 -8 -4 -15 -10 -15 -5 0 -10 13 -10 29 0 17 -6 31 -16
35 -11 4 -14 13 -10 31 7 28 -5 33 -24 10 -10 -12 -10 -18 0 -30 10 -12 10
-18 1 -29 -9 -11 -9 -16 0 -21 6 -4 15 -1 20 6 11 19 18 9 23 -35 3 -22 10
-44 15 -49 6 -6 11 -19 11 -28 0 -10 3 -19 8 -21 10 -4 54 -68 47 -68 -4 0
-15 5 -27 11 -41 22 -28 -1 39 -68 134 -135 172 -198 154 -258 -8 -25 -9 -26
-10 -7 -1 17 -14 28 -56 47 -30 14 -55 30 -55 36 0 6 -10 9 -22 7 -13 -2 -33
6 -46 19 -14 13 -30 19 -40 16 -11 -5 -14 -2 -9 10 6 17 -3 21 -32 17 -7 -1
-31 12 -52 29 -41 34 -62 40 -53 16 4 -10 0 -15 -11 -15 -9 0 -14 4 -10 9 3 5
-4 12 -15 16 -11 3 -20 11 -20 16 0 5 -11 9 -24 9 -17 0 -27 9 -36 30 -7 16
-19 30 -26 30 -8 0 -14 4 -14 9 0 5 -8 12 -17 14 -17 4 -17 5 0 6 10 1 17 9
17 21 0 12 10 24 23 29 36 15 73 63 81 106 4 22 10 48 13 59 4 16 1 18 -20 12
-20 -5 -26 -1 -30 15 -3 12 -10 18 -16 15 -5 -4 -26 2 -47 13 -20 11 -42 17
-50 14 -8 -3 -14 0 -14 7 0 8 -10 9 -31 5 -17 -4 -29 -3 -26 1 3 5 -5 10 -16
11 -12 1 -47 6 -77 11 -31 5 -56 6 -58 1 -2 -5 -18 -9 -36 -9 -22 0 -40 -8
-56 -25 -14 -15 -35 -25 -52 -25 -16 0 -28 -6 -28 -12 0 -7 -7 -4 -16 7 -8 11
-20 19 -25 17 -5 -1 -12 4 -15 12 -3 8 -11 13 -18 10 -7 -3 -21 4 -31 16 -20
22 -41 26 -47 8 -3 -9 -9 -8 -21 2 -61 52 -77 70 -77 84 0 9 -7 16 -15 16 -9
0 -21 12 -27 26 -8 18 -18 24 -32 22 -18 -4 -21 1 -23 39 -1 36 2 43 18 43 12
0 19 7 19 19 0 10 9 21 20 24 19 5 29 37 11 37 -13 0 -11 78 2 83 7 3 21 22
32 43 11 22 25 44 32 49 6 6 14 37 16 70 4 56 25 144 37 155 20 19 40 75 40
110 0 42 23 100 40 100 6 0 10 7 10 15 0 11 11 15 40 15 29 0 40 4 40 15 0 11
11 15 36 15 37 0 75 -24 51 -33 -6 -2 9 -8 35 -12 58 -9 112 -55 79 -67 -6 -1
-11 -29 -12 -60 -1 -31 -6 -55 -10 -53 -10 7 -21 -43 -14 -66 4 -10 11 -19 16
-19 6 0 8 -4 4 -9 -3 -5 2 -16 10 -24 8 -9 15 -19 15 -24 0 -4 5 -15 10 -23 8
-13 11 -12 25 5 9 11 14 14 10 8 -6 -12 13 -18 38 -14 5 1 21 -8 37 -19 15
-11 38 -20 49 -20 12 0 21 -5 21 -10 0 -10 22 -21 98 -52 17 -7 32 -17 32 -22
0 -4 9 -6 20 -3 10 3 18 0 17 -5 -1 -5 5 -14 13 -19 27 -16 129 -59 139 -59 6
0 19 -4 29 -9 9 -5 29 -14 45 -20 15 -6 27 -17 27 -26 0 -8 6 -15 14 -15 8 0
22 -3 32 -7 12 -4 15 -3 10 5 -9 15 18 26 42 17 9 -4 53 -9 96 -11 45 -2 82
-8 86 -15 5 -7 16 -8 31 -4 23 8 23 8 4 16 -15 6 -9 8 23 8 23 1 42 5 42 11 0
5 15 16 33 24 17 7 49 29 69 49 21 20 48 37 60 39 15 2 23 10 23 23 0 20 11
37 51 78 31 34 64 92 64 115 0 12 -8 25 -17 31 -16 9 -15 12 12 36 28 24 29
27 13 39 -21 15 -23 26 -5 26 8 0 12 16 12 48 0 33 6 54 18 66 9 10 17 20 17
22 0 9 -27 33 -32 28 -3 -2 -3 14 -1 36 3 28 0 40 -9 40 -7 0 -2 7 10 16 18
13 21 19 11 30 -9 11 -7 14 15 14 23 0 25 3 16 20 -5 11 -14 29 -20 40 -6 12
-6 21 0 25 15 10 12 23 -7 29 -10 3 -6 4 10 2 35 -4 45 11 15 23 -23 10 -23
10 4 10 41 1 59 11 70 40 8 20 12 22 15 10 4 -17 43 -15 43 2 0 5 7 9 15 9 21
0 19 19 -2 27 -10 3 -45 24 -78 46 -57 37 -182 175 -227 248 -11 17 -74 99
-141 182 -153 191 -396 437 -542 548 -16 13 -32 26 -35 30 -6 8 -208 139 -214
139 -3 0 -29 14 -58 31 -118 70 -327 138 -488 159 -254 34 -562 -33 -775 -168
-118 -75 -153 -99 -202 -139 -58 -47 -84 -55 -33 -10 16 15 32 27 35 27 4 0
20 14 38 30 65 63 325 198 451 236 135 41 238 53 451 55 218 3 292 -7 361 -47
33 -20 162 -59 224 -69 8 -1 31 -9 50 -16 19 -7 39 -12 44 -11 4 2 14 -2 22
-9 7 -6 18 -8 23 -5 6 4 18 2 28 -3 10 -5 26 -12 36 -15 11 -3 15 -11 11 -17
-5 -9 1 -10 20 -5 18 4 25 3 21 -4 -4 -6 4 -10 18 -10 13 0 44 -16 70 -36 27
-21 51 -33 58 -28 8 4 9 3 5 -4 -4 -7 2 -16 17 -21 14 -6 27 -16 30 -23 4 -10
6 -10 6 0 1 6 6 12 13 12 6 0 9 -3 5 -6 -6 -7 45 -45 76 -57 9 -3 17 -13 17
-22 0 -8 7 -15 15 -15 9 0 25 -9 37 -19 11 -11 26 -17 33 -14 8 2 19 -5 25
-17 6 -12 14 -19 17 -16 3 3 19 -4 34 -15 21 -14 33 -18 46 -11 14 8 11 11
-14 16 -24 6 -30 11 -26 26 4 15 1 18 -15 13 -11 -2 -23 0 -26 6 -4 6 -2 11 4
11 6 0 8 5 5 10 -9 14 -42 12 -48 -2 -3 -7 -6 -4 -7 7 -1 21 -32 65 -47 65 -4
0 -16 18 -26 40 -9 22 -23 40 -31 40 -8 0 -38 25 -68 55 -29 30 -58 55 -64 55
-6 0 -28 20 -50 45 -21 25 -43 45 -49 45 -34 1 -59 95 -25 95 9 0 14 -7 12
-17 -2 -10 2 -18 7 -18 14 0 80 -72 81 -87 0 -7 10 -13 23 -13 23 0 137 -98
137 -118 0 -5 11 -13 24 -16 14 -3 29 -18 36 -36 8 -20 19 -30 34 -30 12 0 33
-15 49 -35 15 -19 33 -32 40 -29 7 2 19 -6 27 -20 7 -14 22 -26 34 -28 12 -2
21 -10 22 -18 2 -33 5 -38 24 -43 11 -3 20 -12 20 -21 0 -9 4 -16 9 -16 5 0
16 -13 25 -30 8 -18 10 -30 4 -30 -22 0 13 -28 42 -34 17 -3 30 -11 30 -19 0
-16 77 -97 84 -89 3 3 6 -3 6 -13 0 -14 3 -15 14 -6 10 8 16 8 25 -3 6 -8 11
-18 9 -22 -4 -17 13 -54 26 -54 7 0 25 -13 40 -29 l27 -28 -24 0 c-18 0 -49
23 -108 83 -46 46 -87 84 -92 84 -4 0 -36 22 -70 49 -100 77 -315 214 -402
256 -44 21 -82 41 -85 44 -11 13 -259 129 -330 155 -41 15 -91 34 -110 42 -70
31 -12 -7 103 -66 183 -94 291 -155 427 -243 121 -77 281 -194 288 -209 2 -5
10 -8 17 -8 8 0 19 -9 25 -19 5 -11 19 -23 30 -26 11 -3 20 -13 20 -21 0 -8 6
-14 13 -14 16 0 147 -123 147 -138 0 -7 5 -12 11 -12 15 0 105 -88 144 -142
19 -27 42 -48 50 -48 8 0 15 -6 15 -13 0 -16 55 -75 122 -131 l47 -39 -20 -29
c-11 -15 -27 -28 -35 -28 -8 0 -14 -4 -14 -10 0 -5 -18 -21 -40 -35 -23 -14
-49 -34 -60 -45 -18 -18 -18 -19 13 -52 24 -26 41 -64 71 -159 21 -68 45 -135
52 -149 13 -25 13 -25 14 -2 0 30 18 28 30 -4 13 -33 13 -34 -5 -34 -8 0 -15
-8 -15 -17 0 -15 2 -16 10 -3 6 10 10 11 10 3 0 -7 9 -13 20 -13 16 0 20 -7
20 -31 0 -17 -4 -28 -10 -24 -5 3 -10 1 -10 -4 0 -6 5 -11 11 -11 5 0 7 -5 4
-10 -9 -15 17 -68 36 -73 24 -6 70 16 100 49 l26 29 -8 160 c-5 88 -13 176
-18 195 -31 111 -47 156 -67 185 -12 18 -25 42 -29 53 -3 12 -15 24 -26 27
-11 4 -19 15 -19 27 0 11 -16 52 -36 90 -19 39 -33 72 -31 74 7 7 67 -74 67
-90 0 -8 5 -18 10 -21 6 -3 10 -15 10 -26 0 -10 9 -28 20 -39 11 -11 20 -25
20 -31 0 -6 11 -25 25 -44 15 -19 35 -69 47 -119 12 -47 25 -86 30 -86 5 0 6
10 4 23 -3 12 -10 47 -16 77 -6 30 -13 65 -16 78 -3 14 -9 20 -17 16 -9 -5 -9
-4 1 7 17 19 15 24 -14 38 -24 11 -25 13 -10 24 16 12 15 14 -8 26 -32 18 -40
39 -21 58 17 17 17 78 1 106 -6 9 -21 17 -33 17 -18 0 -23 -6 -23 -24 0 -14
-5 -28 -10 -31 -6 -4 -10 15 -10 49 0 31 -4 56 -8 56 -5 0 -7 13 -4 30 6 43
-4 66 -23 50 -8 -7 -16 -22 -16 -34 -1 -11 -7 -1 -13 24 -6 25 -21 64 -34 87
-12 23 -22 49 -22 58 0 8 -5 15 -11 15 -6 0 -9 -7 -5 -15 7 -19 -8 -19 -24 0
-15 18 -4 36 17 28 14 -6 15 -1 8 38 -4 24 -9 55 -10 69 -2 14 -6 45 -10 70
-7 42 -6 44 9 29 9 -9 18 -26 19 -38 1 -12 9 -29 19 -38 17 -15 18 -15 18 6 0
12 -3 20 -7 18 -5 -3 -8 14 -8 36 1 48 -10 67 -36 67 -13 0 -19 7 -19 23 0 49
-32 173 -47 185 -28 21 -35 13 -14 -15 11 -16 22 -39 26 -53 7 -25 7 -25 -22
5 -16 17 -42 48 -59 70 -36 50 -40 54 -64 84 -11 13 -20 30 -20 37 0 7 -6 17
-14 21 -7 4 -21 22 -30 40 -9 18 -37 52 -62 77 -25 25 -43 50 -39 56 3 5 1 10
-5 10 -11 0 -24 9 -61 43 -14 13 -19 14 -19 3 0 -16 -27 -29 -41 -20 -6 3 -7
14 -4 25 4 13 2 19 -9 19 -11 0 -16 -9 -16 -30 0 -23 4 -30 20 -30 13 0 18 -5
13 -16 -3 -9 3 -21 16 -30 11 -8 21 -24 21 -34 0 -11 5 -17 13 -15 7 3 18 -9
26 -27 8 -18 29 -55 48 -83 18 -27 33 -60 33 -73 0 -12 6 -25 14 -28 8 -3 16
-18 20 -34 3 -17 17 -40 31 -52 14 -12 25 -27 25 -33 0 -7 7 -27 16 -45 9 -17
17 -43 17 -56 -1 -20 1 -21 14 -8 8 7 18 14 23 14 16 0 22 -21 10 -35 -10 -12
-10 -15 1 -15 8 0 20 -9 27 -20 7 -12 17 -18 22 -15 12 7 80 -53 80 -71 0 -8
-14 -1 -34 18 -33 30 -66 45 -66 29 0 -4 11 -18 24 -30 13 -12 29 -42 36 -67
7 -24 19 -49 26 -55 20 -16 17 -29 -5 -29 -14 0 -18 5 -14 19 3 13 -3 24 -19
35 -12 8 -31 31 -42 50 -10 19 -27 36 -37 39 -10 3 -22 13 -25 24 -23 63 -46
103 -61 103 -13 0 -14 3 -5 12 19 19 14 36 -22 68 -18 17 -41 50 -51 73 -29
69 -49 107 -67 127 -9 10 -14 21 -10 24 3 4 -4 9 -17 13 -16 4 -21 11 -18 24
3 12 1 17 -6 12 -6 -4 -8 0 -4 10 4 10 2 14 -6 11 -7 -2 -26 9 -42 26 -20 21
-31 26 -36 18 -5 -7 -11 -9 -15 -5 -4 3 -1 13 6 22 11 13 9 15 -14 15 -29 0
-33 9 -13 29 10 11 8 12 -9 7 -14 -4 -27 1 -43 20 -15 17 -29 24 -42 21 -20
-5 -26 7 -9 18 15 10 12 18 -20 53 -17 18 -40 34 -53 34 -12 1 -34 10 -49 20
l-27 19 11 -31 c13 -39 3 -51 -18 -21 -9 12 -26 26 -38 31 l-21 9 23 7 c27 8
24 25 -6 39 -13 6 -22 19 -22 32 0 30 -20 30 -21 1 -1 -22 -1 -22 -9 2 -5 17
-8 19 -9 8 -1 -10 -8 -18 -17 -18 -9 0 -14 5 -12 11 2 7 -13 28 -33 49 -20 20
-40 47 -43 58 -8 23 -21 28 -31 12 -12 -19 -33 -10 -41 18 -4 15 -6 31 -5 35
1 5 -11 7 -26 6 -16 -1 -39 -1 -53 0 -21 1 -22 3 -10 12 12 9 12 10 -3 5 -10
-3 -22 -6 -27 -6 -5 0 -10 -6 -13 -12 -2 -7 -3 -5 -1 6 2 15 -3 17 -27 14 -18
-3 -29 0 -29 7 0 8 -23 14 -58 17 -65 6 -204 -1 -198 -11 2 -3 -21 -4 -52 -2
-53 3 -55 2 -42 -14 14 -16 13 -17 -7 -11 -18 6 -21 4 -16 -15 5 -17 2 -20
-13 -17 -11 2 -18 11 -16 21 2 12 -4 17 -20 16 -13 0 -17 -3 -10 -6 26 -10 11
-29 -23 -29 -30 0 -35 3 -35 22 0 24 -13 38 -24 27 -3 -4 -30 -8 -59 -10 -28
-2 -59 -6 -67 -10 -8 -3 -18 -7 -22 -7 -3 -1 -10 -4 -14 -8 -4 -5 -16 -8 -27
-8 -11 0 -45 -12 -76 -27 -92 -44 -182 -73 -247 -80 -54 -5 -64 -3 -83 16 -13
13 -21 34 -21 54 0 27 10 41 57 82 31 28 66 60 77 73 21 23 50 29 61 11 9 -13
84 67 92 99 6 27 -11 44 -35 34 -10 -3 -13 -1 -9 6 9 13 -82 9 -92 -5 -3 -5
-27 -17 -53 -27 -27 -10 -51 -23 -55 -29 -12 -18 -53 -39 -53 -27 0 5 -6 10
-13 10 -15 0 -41 -55 -34 -73 3 -9 -5 -12 -31 -9 -25 3 -37 0 -44 -12 -13 -23
-25 -20 -53 12 -13 15 -26 24 -29 21 -11 -10 5 -38 24 -44 23 -7 34 -35 20
-49 -8 -8 -16 -5 -29 11 -14 16 -21 19 -30 10 -7 -7 -11 -7 -11 -1 0 6 -11 16
-24 22 -19 8 -27 6 -48 -13 -13 -12 -33 -25 -44 -29 -10 -3 -37 -22 -58 -41
-22 -19 -48 -35 -58 -35 -10 0 -18 -4 -18 -8 0 -5 -20 -19 -45 -31 -25 -12
-50 -31 -55 -42 -12 -22 -30 -25 -30 -6 0 12 35 49 138 146 18 17 52 44 75 59
23 15 44 29 47 32 15 15 88 60 98 60 7 0 12 4 12 9 0 5 15 14 33 21 32 12 120
55 206 99 25 13 73 32 106 42 33 9 85 27 115 39 30 12 95 33 145 47 83 22 107
24 315 25 201 0 233 -2 300 -22 152 -43 216 -58 270 -63 35 -3 89 -20 146 -46
51 -22 97 -41 104 -41 14 0 41 -12 280 -128 153 -73 256 -139 335 -211 22 -21
47 -37 55 -36 8 1 25 3 38 3 12 1 26 10 29 20 4 9 13 23 20 30 7 8 11 17 8 22
-3 5 1 10 7 12 7 3 14 19 14 36 3 58 4 63 14 57 6 -4 10 5 10 19 0 15 6 26 13
26 8 0 22 9 31 19 10 11 25 17 34 14 15 -4 15 -3 2 6 -13 9 -9 16 25 45 22 19
44 31 49 28 5 -3 7 2 3 11 -3 10 -2 17 3 17 6 0 10 -7 10 -16 0 -29 25 -8 26
22 0 17 6 28 12 27 7 -2 11 3 9 9 -1 8 8 12 26 10 17 -2 29 2 33 12 3 9 10 16
16 16 24 0 78 102 70 133 -1 4 3 7 9 7 6 0 8 7 5 17 -8 19 11 83 25 83 5 0 9
9 9 20 0 20 -7 20 -3050 20 l-3050 0 0 -3571z m5955 3281 c-3 -5 -13 -10 -21
-10 -8 0 -14 5 -14 10 0 6 9 10 21 10 11 0 17 -4 14 -10z m-1785 -395 c-6 -8
-18 -11 -26 -8 -22 8 -17 26 6 20 15 -4 20 0 21 16 1 18 2 19 6 4 3 -10 -1
-24 -7 -32z m606 -42 c-10 -10 -19 5 -10 18 6 11 8 11 12 0 2 -7 1 -15 -2 -18z
m-101 -41 c-2 -3 -12 -1 -22 2 -15 6 -15 9 -3 16 13 8 35 -8 25 -18z m-255 -4
c0 -6 -7 -7 -16 -4 -9 3 -18 6 -20 6 -3 0 -3 4 1 10 7 11 35 2 35 -12z m-1660
-2 c0 -7 -8 -20 -17 -27 -15 -12 -16 -12 -10 4 4 10 7 23 7 28 0 5 5 9 10 9 6
0 10 -6 10 -14z m1717 -21 c3 -9 3 -19 -1 -22 -7 -7 -36 16 -36 28 0 15 30 10
37 -6z m439 -32 c17 -17 17 -18 -5 -21 -24 -4 -44 15 -35 30 8 13 21 9 40 -9z
m-2221 -34 c-4 -5 -15 -14 -27 -20 -16 -9 -19 -8 -12 3 15 24 29 36 37 31 4
-2 5 -9 2 -14z m1965 -5 c0 -8 -5 -12 -10 -9 -6 4 -8 11 -5 16 9 14 15 11 15
-7z m210 -14 c0 -5 -2 -10 -4 -10 -3 0 -8 5 -11 10 -3 6 -1 10 4 10 6 0 11 -4
11 -10z m-253 -6 c-3 -3 -12 -4 -19 -1 -8 3 -5 6 6 6 11 1 17 -2 13 -5z m68
-24 c4 -6 -6 -10 -22 -9 -25 0 -26 1 -8 9 11 5 21 9 22 9 1 1 5 -3 8 -9z m75
-19 c0 -4 -12 -13 -26 -19 -19 -9 -30 -9 -47 0 -21 11 -21 12 13 23 34 12 60
10 60 -4z m425 -231 c3 -5 -1 -10 -9 -10 -9 0 -16 5 -16 10 0 6 4 10 9 10 6 0
13 -4 16 -10z m-2376 -279 c-30 -27 -56 -47 -59 -44 -6 5 92 92 104 93 6 0
-15 -22 -45 -49z m2901 -435 c0 -3 -4 -8 -10 -11 -5 -3 -10 -1 -10 4 0 6 5 11
10 11 6 0 10 -2 10 -4z m168 -153 c5 -16 13 -37 17 -48 4 -11 -4 -2 -19 20
-27 43 -31 55 -17 55 5 0 14 -12 19 -27z m-1998 -407 c0 -2 -7 -7 -16 -10 -8
-3 -12 -2 -9 4 6 10 25 14 25 6z m89 -38 c0 -18 -3 -27 -6 -20 -8 19 -23 14
-23 -8 0 -15 -7 -20 -25 -20 -22 0 -25 4 -25 40 l0 40 40 0 c39 0 40 -1 39
-32z m239 -37 c-13 -15 -25 -24 -27 -18 -2 5 1 12 6 16 5 3 12 14 16 24 4 10
11 15 17 12 6 -4 1 -17 -12 -34z m-183 -4 c20 -21 24 -87 5 -87 -5 0 -10 18
-10 40 0 36 -2 40 -26 40 -14 0 -23 4 -19 10 9 14 34 12 50 -3z m-168 -19 c-3
-8 -6 -5 -6 6 -1 11 2 17 5 13 3 -3 4 -12 1 -19z m357 -53 c3 -8 1 -15 -4 -15
-6 0 -10 7 -10 15 0 8 2 15 4 15 2 0 6 -7 10 -15z m-334 -246 c0 -5 -4 -9 -10
-9 -5 0 -10 7 -10 16 0 8 5 12 10 9 6 -3 10 -10 10 -16z m1121 -106 c0 -5 2
-18 3 -30 2 -13 -4 -23 -13 -26 -12 -3 -16 3 -14 27 2 38 1 36 13 36 6 0 10
-3 11 -7z m-2835 -135 c10 -15 -24 -38 -57 -38 -15 0 -30 -6 -32 -12 -3 -8 -6
-8 -6 -2 -1 6 10 23 24 38 25 27 59 34 71 14z m2559 -208 c18 -8 17 -9 -7 -9
-16 -1 -28 4 -28 9 0 12 8 12 35 0z m-1241 -39 c-1 -1 -12 3 -23 11 -12 8 -18
17 -15 21 6 5 43 -25 38 -32z m1296 9 c11 -7 4 -10 -25 -10 -29 0 -36 3 -25
10 8 5 20 10 25 10 6 0 17 -5 25 -10z m-1337 -10 c9 0 17 -7 17 -16 0 -10 6
-14 15 -10 8 3 14 2 13 -2 -2 -4 5 -19 15 -33 24 -35 11 -103 -20 -107 -15 -2
-22 -12 -26 -35 -5 -35 9 -60 21 -40 13 21 106 63 116 53 29 -29 41 -130 15
-130 -5 0 -9 -9 -9 -19 0 -31 -19 -35 -45 -11 -16 15 -25 18 -30 10 -4 -7 -2
-16 6 -20 19 -13 -29 -49 -55 -42 -11 3 -15 7 -8 10 19 6 14 22 -7 22 -10 0
-21 7 -25 15 -3 9 -19 15 -41 15 -31 0 -36 -3 -41 -30 -4 -17 -13 -30 -21 -30
-8 0 -11 -5 -8 -11 4 -5 0 -18 -9 -28 -15 -16 -15 -19 -1 -31 20 -17 21 -154
1 -192 -8 -15 -17 -41 -21 -58 -4 -17 -18 -42 -32 -56 -20 -20 -23 -28 -12
-40 19 -23 -13 -39 -79 -39 -59 0 -111 25 -112 53 0 23 -34 8 -40 -18 -4 -16
-14 -26 -29 -28 -12 -2 -25 -10 -28 -18 -3 -9 -20 -14 -47 -14 -30 0 -44 -5
-54 -20 -17 -28 -40 -25 -45 8 -2 16 -5 9 -6 -20 -1 -44 -3 -48 -26 -48 -14 0
-25 -4 -25 -10 0 -15 -17 -12 -23 3 -3 7 -2 31 2 53 4 21 5 47 3 57 -5 27 -22
9 -22 -24 0 -22 -5 -29 -20 -29 -11 0 -20 7 -20 15 0 8 -7 15 -15 15 -14 0
-19 16 -16 52 1 10 -3 26 -9 37 -5 11 -11 31 -12 45 -3 29 -38 38 -38 10 0 -8
-4 -13 -10 -9 -5 3 -8 45 -6 95 2 50 0 90 -4 90 -3 0 -7 42 -8 94 l-2 94 43
-4 c41 -4 41 -4 10 6 -18 6 -33 15 -33 19 0 5 -3 17 -6 25 -4 12 -2 15 9 10
10 -3 27 7 47 27 27 29 29 35 16 45 -14 10 -15 13 -1 24 12 10 15 10 15 -4 0
-9 2 -16 5 -16 12 0 104 50 110 60 3 5 28 10 55 10 28 0 54 6 62 14 8 7 30 19
51 27 28 10 37 19 37 36 0 26 2 27 48 14 25 -8 32 -7 32 5 0 16 36 19 45 4 7
-11 55 -14 55 -4 0 4 -8 13 -17 20 -15 11 -4 13 77 12 99 -1 160 14 160 40 0
10 7 12 23 8 12 -3 30 -6 40 -6z m1457 -36 c0 -20 -18 -26 -40 -12 -28 18 -25
25 10 25 18 0 30 -6 30 -13z m-1965 -64 c3 -5 -3 -10 -14 -10 -12 0 -21 5 -21
10 0 6 6 10 14 10 8 0 18 -4 21 -10z m-75 -50 c0 -5 -9 -10 -20 -10 -11 0 -20
5 -20 10 0 6 9 10 20 10 11 0 20 -4 20 -10z m790 -81 c0 -5 -7 -9 -15 -9 -9 0
-15 9 -15 21 0 18 2 19 15 9 8 -7 15 -16 15 -21z m-330 -528 c0 -6 -4 -13 -10
-16 -5 -3 -10 1 -10 9 0 9 5 16 10 16 6 0 10 -4 10 -9z m870 -36 c8 -7 23 -15
33 -18 9 -4 17 -13 17 -21 0 -7 7 -17 16 -20 9 -3 14 -13 11 -20 -3 -8 1 -20
9 -26 8 -7 14 -19 14 -27 0 -11 7 -9 31 8 26 18 33 19 40 8 11 -18 11 -32 -1
-63 -11 -30 -45 -66 -62 -67 -7 0 1 -7 17 -15 l30 -14 -40 3 c-28 1 -40 6 -39
17 1 12 -11 15 -55 13 -33 -1 -59 4 -64 10 -6 8 -7 5 -3 -6 4 -12 -1 -20 -17
-26 -12 -5 -24 -5 -27 -1 -9 12 -72 40 -91 40 -10 0 -21 -4 -24 -10 -3 -5 -16
-10 -28 -10 -16 0 -18 3 -10 11 9 9 8 15 -3 26 -7 8 -17 12 -21 10 -5 -3 -19
0 -33 6 -31 12 -93 9 -102 -6 -5 -8 -8 -8 -8 -1 0 6 -15 19 -34 29 -28 15 -41
17 -85 8 -28 -6 -51 -6 -51 -2 0 5 -10 9 -22 9 l-23 0 24 19 c21 16 27 17 39
5 15 -16 32 -10 32 11 0 18 29 26 143 40 31 4 57 11 57 15 0 5 17 8 37 8 21 0
39 5 41 11 2 7 22 9 58 5 50 -6 54 -5 54 14 0 25 32 37 59 23 30 -17 43 -13
36 9 -5 16 -3 19 12 13 10 -3 25 -11 33 -18z m-3297 -66 c14 -20 16 -20 26 -2
8 14 11 15 12 3 1 -8 1 -20 0 -27 -1 -6 10 -20 24 -31 14 -11 25 -27 25 -37 0
-16 63 -85 77 -85 4 0 26 -18 49 -41 39 -38 41 -43 33 -76 -8 -39 -15 -45 -72
-72 -42 -20 -70 -65 -93 -151 -10 -36 -11 -56 -4 -58 17 -6 12 -160 -7 -204
-15 -33 -21 -38 -50 -38 l-33 0 0 59 c0 32 -3 86 -6 120 -6 52 -5 61 10 61 11
0 16 9 16 28 0 20 -3 23 -10 12 -11 -18 -12 -17 -34 55 -18 60 -57 108 -98
121 -10 3 -18 10 -18 15 0 5 -8 9 -17 9 -10 0 -29 12 -42 25 -12 14 -27 23
-32 20 -4 -3 -17 3 -29 15 -11 11 -26 20 -32 21 -7 0 -3 5 10 11 12 6 22 15
22 20 0 4 6 8 13 8 13 0 99 41 107 51 3 3 20 14 38 23 18 9 36 25 39 34 4 9
18 32 32 50 18 25 21 36 12 41 -12 8 -5 41 10 41 4 0 14 -9 22 -21z m2167 -21
c0 -30 0 -31 -20 -13 -11 10 -20 24 -20 32 0 7 9 13 20 13 16 0 20 -7 20 -32z
m-125 -38 c3 -5 17 -10 31 -10 13 0 24 -4 24 -8 0 -5 10 -14 23 -20 19 -10 16
-11 -19 -7 -35 5 -42 2 -54 -20 -22 -42 -39 -31 -38 25 0 35 4 50 13 50 8 0
17 -4 20 -10z m1560 0 c3 -5 1 -10 -4 -10 -6 0 -11 5 -11 10 0 6 2 10 4 10 3
0 8 -4 11 -10z m-75 -29 c0 -21 -13 -41 -26 -41 -15 0 -17 10 -8 34 7 17 34
22 34 7z m153 -45 c8 3 18 -6 25 -20 12 -27 42 -26 42 0 0 8 5 14 11 14 6 0 9
-6 6 -14 -3 -8 -2 -16 3 -18 5 -2 11 -15 15 -29 5 -19 2 -28 -10 -33 -20 -7
-70 17 -84 41 -8 14 -13 15 -19 6 -10 -16 -78 1 -86 22 -7 19 -26 19 -26 0 0
-8 -4 -15 -10 -15 -5 0 -10 7 -10 16 0 27 20 54 41 54 11 0 22 7 25 15 5 12
12 9 35 -14 16 -17 35 -28 42 -25z m-86 38 c-3 -3 -12 -4 -19 -1 -8 3 -5 6 6
6 11 1 17 -2 13 -5z m-2197 -23 c0 -10 -9 -29 -20 -42 l-19 -24 -1 23 c0 28
17 62 30 62 6 0 10 -9 10 -19z m458 -58 c15 -32 16 -87 2 -78 -5 3 -10 15 -10
25 0 10 -7 23 -16 28 -11 6 -14 16 -9 31 9 28 17 26 33 -6z m152 12 c0 -8 5
-15 10 -15 6 0 10 -9 10 -21 0 -12 -4 -18 -11 -13 -8 5 -10 -3 -7 -25 3 -24
-1 -38 -19 -57 -13 -15 -27 -24 -29 -21 -3 3 -6 35 -5 71 0 52 -3 66 -14 66
-8 0 -15 7 -15 15 0 11 11 15 40 15 29 0 40 -4 40 -15z m2110 -6 c0 -5 -4 -9
-10 -9 -5 0 -10 7 -10 16 0 8 5 12 10 9 6 -3 10 -10 10 -16z m-2110 -259 c9
-19 9 -30 0 -44 -9 -14 -9 -21 1 -30 9 -8 10 -8 6 0 -9 15 19 38 34 28 9 -5 7
-10 -5 -19 -14 -11 -15 -13 -1 -19 8 -3 15 -15 15 -26 0 -11 6 -20 13 -20 21
0 39 -39 32 -72 -5 -21 -4 -28 4 -24 17 11 13 -30 -4 -44 -13 -10 -15 -9 -15
9 0 11 -4 21 -8 21 -12 0 -43 -35 -37 -42 3 -2 -6 -15 -20 -28 -28 -26 -26
-30 -30 50 -1 19 -5 43 -9 53 -5 10 -6 21 -2 24 3 3 1 12 -5 20 -9 9 -8 13 0
13 6 0 11 17 11 40 0 22 -4 40 -8 40 -13 0 -33 66 -26 84 4 10 0 18 -10 22
-21 8 -20 24 1 39 17 13 29 -1 63 -75z m30 16 c0 -3 -4 -8 -10 -11 -5 -3 -10
-1 -10 4 0 6 5 11 10 11 6 0 10 -2 10 -4z m197 -112 c5 -13 8 -13 15 -2 6 9 7
6 3 -9 -4 -14 -2 -23 5 -23 17 0 8 -92 -9 -98 -9 -3 -11 0 -6 7 4 7 -1 19 -11
27 -14 11 -16 17 -6 20 15 7 6 24 -14 24 -8 0 -14 -7 -14 -16 0 -8 -4 -13 -9
-10 -5 3 -7 15 -4 26 4 15 11 19 24 15 11 -4 19 -2 19 4 0 6 -9 11 -20 11 -23
0 -26 10 -8 28 16 16 27 15 35 -4z m1270 -30 c8 -21 -7 -34 -49 -40 -28 -5
-36 -2 -42 12 -4 9 -1 22 5 28 9 8 10 6 6 -9 -6 -18 -5 -18 11 2 20 26 60 30
69 7z m-1304 -86 c4 -12 4 -25 1 -28 -8 -7 -34 31 -28 41 9 16 22 10 27 -13z
m1384 -14 c-3 -3 -12 -4 -19 -1 -8 3 -5 6 6 6 11 1 17 -2 13 -5z m-1307 -23
c-5 -11 -10 -29 -10 -40 0 -12 -5 -21 -11 -21 -19 0 -38 -33 -39 -65 -1 -51
-12 -105 -21 -99 -5 3 -9 14 -9 24 0 11 -11 30 -25 44 -31 31 -35 81 -6 73 12
-3 22 1 25 9 3 8 11 13 18 12 8 -2 12 6 11 19 -2 15 6 25 27 35 17 7 30 16 30
20 0 5 5 8 10 8 7 0 7 -6 0 -19z m537 -42 c2 -16 -1 -19 -9 -11 -5 5 -7 15 -4
21 10 15 12 14 13 -10z m-687 -9 c0 -5 -7 -10 -15 -10 -11 0 -14 -7 -9 -25 3
-14 2 -25 -4 -25 -17 0 -21 40 -5 55 17 17 33 20 33 5z m2430 -20 c0 -5 -4
-10 -10 -10 -5 0 -10 5 -10 10 0 6 5 10 10 10 6 0 10 -4 10 -10z m93 -163 c-3
-20 -10 -37 -15 -37 -5 0 -6 10 -3 23 4 12 9 30 12 40 8 31 13 13 6 -26z
m-173 2 c-14 -25 -26 -24 -33 1 -3 11 -1 18 3 15 5 -3 11 -1 15 5 12 19 26 0
15 -21z m-184 -36 c-10 -10 -19 5 -10 18 6 11 8 11 12 0 2 -7 1 -15 -2 -18z
m454 -6 c0 -5 -5 -5 -11 -2 -6 4 -10 1 -8 -6 3 -29 -1 -50 -10 -45 -10 6 -9
13 4 59 6 21 10 25 16 15 5 -7 9 -17 9 -21z m-295 -17 c3 -5 1 -10 -4 -10 -6
0 -11 5 -11 10 0 6 2 10 4 10 3 0 8 -4 11 -10z m-1255 -120 c0 -5 -4 -10 -9
-10 -6 0 -13 5 -16 10 -3 6 1 10 9 10 9 0 16 -4 16 -10z m1056 -75 c-4 -33
-12 -41 -19 -15 -3 11 -1 20 5 20 5 0 6 5 3 10 -3 6 -2 10 4 10 5 0 8 -11 7
-25z m-1791 -34 c3 -6 -4 -15 -15 -21 -11 -6 -20 -15 -20 -21 0 -15 -26 -39
-34 -32 -12 12 -6 31 17 57 23 27 42 33 52 17z m2243 -74 c5 -24 -15 -21 -21
4 -3 13 -1 19 6 16 7 -2 13 -11 15 -20z m-2248 -77 c0 -5 -4 -10 -10 -10 -5 0
-10 5 -10 10 0 6 5 10 10 10 6 0 10 -4 10 -10z m1954 -794 c-3 -9 -10 -16 -15
-16 -5 0 -4 9 3 20 14 22 21 20 12 -4z m1086 -620 c0 -8 -4 -17 -9 -21 -12 -7
-24 12 -16 25 9 15 25 12 25 -4z m-50 -46 c0 -5 -5 -10 -11 -10 -5 0 -7 5 -4
10 3 6 8 10 11 10 2 0 4 -4 4 -10z m254 -207 c-9 -52 -14 -54 -14 -5 0 23 5
42 10 42 7 0 8 -14 4 -37z m-3994 -13 c0 -5 -4 -10 -10 -10 -5 0 -10 5 -10 10
0 6 5 10 10 10 6 0 10 -4 10 -10z m1977 -366 c-3 -3 -12 -4 -19 -1 -8 3 -5 6
6 6 11 1 17 -2 13 -5z"/>
<path d="M2958 4523 c7 -3 16 -2 19 1 4 3 -2 6 -13 5 -11 0 -14 -3 -6 -6z"/>
<path d="M2581 4264 c0 -11 3 -14 6 -6 3 7 2 16 -1 19 -3 4 -6 -2 -5 -13z"/>
<path d="M3220 3959 c0 -11 5 -17 10 -14 6 3 10 13 10 21 0 8 -4 14 -10 14 -5
0 -10 -9 -10 -21z"/>
<path d="M3260 3970 c0 -5 5 -10 10 -10 6 0 10 5 10 10 0 6 -4 10 -10 10 -5 0
-10 -4 -10 -10z"/>
<path d="M3105 3890 c-3 -5 3 -10 14 -10 12 0 21 5 21 10 0 6 -6 10 -14 10 -8
0 -18 -4 -21 -10z"/>
<path d="M2660 3865 c0 -15 4 -24 10 -20 6 3 10 12 10 20 0 8 -4 17 -10 20 -6
4 -10 -5 -10 -20z"/>
<path d="M3180 3870 c20 -13 40 -13 40 0 0 6 -12 10 -27 10 -22 0 -25 -2 -13
-10z"/>
<path d="M3895 3800 c-7 -12 2 -12 30 0 19 8 19 9 -2 9 -12 1 -25 -3 -28 -9z"/>
<path d="M4210 3664 c0 -9 5 -14 12 -12 18 6 21 28 4 28 -9 0 -16 -7 -16 -16z"/>
<path d="M3930 7670 c-8 -5 -10 -10 -5 -10 6 0 17 5 25 10 8 5 11 10 5 10 -5
0 -17 -5 -25 -10z"/>
<path d="M4008 7673 c7 -3 16 -2 19 1 4 3 -2 6 -13 5 -11 0 -14 -3 -6 -6z"/>
<path d="M3808 7662 c-10 -4 -14 -12 -10 -19 6 -9 11 -7 20 7 7 11 11 20 10
19 -2 0 -11 -3 -20 -7z"/>
<path d="M3265 7550 c3 -5 8 -10 11 -10 2 0 4 5 4 10 0 6 -5 10 -11 10 -5 0
-7 -4 -4 -10z"/>
<path d="M4450 7550 c0 -5 5 -10 11 -10 5 0 7 5 4 10 -3 6 -8 10 -11 10 -2 0
-4 -4 -4 -10z"/>
<path d="M4527 7524 c-11 -12 4 -24 29 -24 16 0 24 6 24 18 0 14 -2 14 -9 3
-7 -12 -13 -12 -24 -3 -7 7 -17 9 -20 6z"/>
<path d="M3145 7470 c4 -6 11 -8 16 -5 14 9 11 15 -7 15 -8 0 -12 -5 -9 -10z"/>
<path d="M3590 7436 c0 -2 7 -6 15 -10 8 -3 15 -1 15 4 0 6 -7 10 -15 10 -8 0
-15 -2 -15 -4z"/>
<path d="M5270 7070 c0 -5 5 -10 10 -10 6 0 10 5 10 10 0 6 -4 10 -10 10 -5 0
-10 -4 -10 -10z"/>
<path d="M5530 7025 c0 -8 4 -15 10 -15 5 0 7 7 4 15 -4 8 -8 15 -10 15 -2 0
-4 -7 -4 -15z"/>
<path d="M5624 7031 c4 -6 16 -16 28 -22 15 -8 18 -8 14 0 -4 6 -16 16 -28 22
-15 8 -18 8 -14 0z"/>
<path d="M5510 6998 c0 -4 14 -8 30 -8 17 0 30 2 30 4 0 2 -13 6 -30 8 -16 3
-30 1 -30 -4z"/>
<path d="M5576 6934 c-5 -12 -2 -15 10 -10 8 3 20 6 25 6 6 0 7 5 4 10 -10 15
-32 12 -39 -6z"/>
<path d="M5643 6943 c-18 -7 -16 -29 5 -49 37 -38 72 -88 71 -103 0 -11 -4 -9
-11 7 -15 29 -38 28 -38 -2 0 -14 15 -39 35 -60 19 -20 35 -41 35 -46 0 -6 5
-10 11 -10 11 0 6 58 -13 144 -11 52 -38 111 -38 86 -1 -8 -8 -3 -16 13 -15
27 -19 29 -41 20z"/>
<path d="M5770 6771 c0 -6 4 -13 10 -16 6 -3 7 1 4 9 -7 18 -14 21 -14 7z"/>
<path d="M5815 6580 c3 -5 11 -10 16 -10 6 0 7 5 4 10 -3 6 -11 10 -16 10 -6
0 -7 -4 -4 -10z"/>
<path d="M5896 6301 c-4 -7 -5 -15 -2 -18 9 -9 19 4 14 18 -4 11 -6 11 -12 0z"/>
<path d="M5850 6273 c0 -21 3 -24 9 -14 5 8 7 20 4 28 -8 21 -13 15 -13 -14z"/>
<path d="M5966 6291 c-4 -6 -2 -11 3 -11 6 0 11 -6 11 -14 0 -8 5 -18 11 -22
8 -4 9 1 4 17 -10 32 -21 43 -29 30z"/>
<path d="M5890 6240 c0 -5 7 -10 16 -10 8 0 12 5 9 10 -3 6 -10 10 -16 10 -5
0 -9 -4 -9 -10z"/>
<path d="M6088 5788 c-33 -23 -36 -48 -9 -65 18 -11 21 -9 31 22 18 54 11 68
-22 43z"/>
<path d="M5564 5245 c11 -8 29 -14 40 -14 20 1 21 1 1 6 -11 3 -24 9 -29 14
-6 5 -15 9 -20 9 -6 0 -2 -7 8 -15z"/>
<path d="M5948 5123 c7 -3 16 -2 19 1 4 3 -2 6 -13 5 -11 0 -14 -3 -6 -6z"/>
<path d="M5922 5080 c0 -14 2 -19 5 -12 2 6 2 18 0 25 -3 6 -5 1 -5 -13z"/>
<path d="M6272 4945 c-17 -14 -34 -25 -39 -25 -4 0 -14 -9 -21 -21 -8 -12 -19
-18 -28 -15 -12 5 -14 1 -8 -17 4 -12 10 -24 14 -27 13 -8 21 -63 25 -162 4
-92 24 -185 38 -172 4 4 7 1 7 -7 1 -10 5 -8 15 5 8 11 13 28 10 37 -4 10 2
23 13 31 11 7 27 40 37 73 9 33 28 87 42 120 32 78 33 161 2 188 -30 24 -72
21 -107 -8z"/>
<path d="M6035 4531 c-3 -5 -1 -12 5 -16 5 -3 10 1 10 9 0 18 -6 21 -15 7z"/>
<path d="M6041 4474 c0 -11 3 -14 6 -6 3 7 2 16 -1 19 -3 4 -6 -2 -5 -13z"/>
<path d="M4645 4270 c-4 -7 -2 -16 6 -21 18 -11 23 -4 11 17 -7 12 -11 13 -17
4z"/>
<path d="M4900 4100 c0 -5 5 -10 11 -10 5 0 7 5 4 10 -3 6 -8 10 -11 10 -2 0
-4 -4 -4 -10z"/>
<path d="M4695 4090 c-3 -5 1 -10 10 -10 9 0 13 5 10 10 -3 6 -8 10 -10 10 -2
0 -7 -4 -10 -10z"/>
<path d="M5025 3800 c3 -5 8 -10 11 -10 2 0 4 5 4 10 0 6 -5 10 -11 10 -5 0
-7 -4 -4 -10z"/>
<path d="M5390 3453 c0 -5 5 -15 10 -23 8 -12 10 -11 10 8 0 12 -4 22 -10 22
-5 0 -10 -3 -10 -7z"/>
<path d="M5473 3439 c-6 -13 -14 -35 -17 -49 -6 -29 7 -59 18 -41 4 6 4 16 1
21 -4 6 -2 17 5 25 6 8 10 26 8 41 l-3 28 -12 -25z"/>
<path d="M5392 3390 c14 -22 24 -19 15 5 -4 8 -11 15 -17 15 -6 0 -6 -7 2 -20z"/>
<path d="M7968 3275 c-2 -3 -25 -9 -49 -14 -24 -5 -71 -17 -104 -26 -52 -14
-81 -24 -190 -65 -11 -4 -56 -18 -100 -30 -44 -12 -98 -30 -120 -40 -22 -10
-53 -21 -70 -25 -16 -3 -33 -12 -37 -18 -4 -7 -50 -10 -132 -8 -115 2 -168 -5
-281 -36 -11 -3 -51 -9 -90 -13 -38 -5 -95 -13 -125 -20 -30 -6 -135 -10 -232
-10 -141 1 -178 -1 -178 -12 0 -10 -29 -14 -122 -16 -67 -2 -127 -7 -134 -13
-13 -10 -26 -372 -24 -621 1 -75 -4 -168 -11 -207 -11 -65 -11 -74 7 -106 10
-19 22 -35 27 -35 4 0 6 -4 3 -9 -3 -5 1 -12 10 -15 28 -11 62 -6 68 9 3 8 15
15 26 15 11 0 20 5 20 11 0 5 20 19 45 30 24 11 47 24 50 29 3 6 16 10 28 10
13 0 29 8 38 18 8 9 48 28 89 42 41 14 82 33 92 42 10 10 29 18 42 18 13 0 42
6 64 14 22 8 43 12 46 9 3 -4 6 -2 6 4 0 6 19 13 43 16 23 3 59 11 80 18 36
13 38 16 32 47 -9 51 14 190 35 205 9 6 25 27 34 46 10 18 30 38 46 44 15 6
35 23 44 38 9 15 26 31 38 35 12 3 36 21 52 38 54 55 137 126 146 126 5 0 18
10 29 22 14 15 31 21 56 20 19 -1 35 3 35 9 0 10 50 -18 62 -36 5 -6 8 -6 8 0
0 15 26 -38 40 -82 6 -21 20 -56 30 -78 35 -76 44 -100 46 -125 1 -14 7 -38
14 -55 6 -16 14 -41 17 -55 2 -14 9 -27 14 -28 10 -4 1 -103 -10 -112 -3 -3
-15 -21 -25 -40 -11 -19 -25 -39 -31 -45 -30 -28 -94 -73 -124 -88 -50 -25
-171 -21 -155 4 4 8 -17 14 -38 10 -5 0 -8 4 -8 9 0 18 -45 29 -142 35 -51 3
-110 8 -131 11 -27 3 -39 0 -43 -11 -4 -8 -10 -12 -15 -9 -5 3 -14 -7 -19 -21
-6 -15 -23 -32 -39 -38 -17 -6 -35 -21 -42 -34 -7 -13 -17 -23 -22 -23 -5 0
-27 -18 -48 -40 -22 -22 -41 -40 -44 -40 -3 0 -33 -18 -66 -40 -33 -22 -65
-40 -71 -40 -6 0 -19 -6 -27 -14 -9 -7 -44 -28 -78 -46 -35 -18 -63 -36 -63
-40 0 -5 -8 -11 -18 -15 -11 -3 -24 -17 -30 -30 -10 -22 -9 -25 7 -25 31 0
149 -67 246 -139 50 -37 115 -80 145 -95 30 -16 60 -35 67 -43 6 -8 17 -12 23
-8 7 4 10 0 8 -11 -2 -13 3 -19 14 -18 10 1 16 -2 13 -6 -8 -13 84 -98 130
-120 24 -12 49 -27 55 -35 19 -22 89 -55 95 -45 16 25 121 -1 154 -38 25 -30
51 -39 121 -46 36 -4 76 -11 90 -16 70 -26 304 -75 430 -90 36 -5 86 -11 113
-15 l47 -8 0 1152 c0 952 -2 1151 -13 1151 -8 0 -16 -2 -19 -5z m-1645 -352
c-13 -2 -33 -2 -45 0 -13 2 -3 4 22 4 25 0 35 -2 23 -4z"/>
<path d="M5447 3264 c-15 -15 -3 -104 14 -104 11 0 11 67 0 93 -3 10 -10 15
-14 11z"/>
<path d="M5565 3178 c-7 -22 -10 -107 -4 -100 8 9 20 112 13 112 -2 0 -6 -6
-9 -12z"/>
<path d="M4150 3171 c0 -19 22 -23 38 -7 15 15 14 16 -11 16 -15 0 -27 -4 -27
-9z"/>
<path d="M3820 3095 c0 -8 5 -15 10 -15 6 0 10 7 10 15 0 8 -4 15 -10 15 -5 0
-10 -7 -10 -15z"/>
<path d="M5745 3070 c4 -6 11 -8 16 -5 14 9 11 15 -7 15 -8 0 -12 -5 -9 -10z"/>
<path d="M5525 3060 c-3 -5 -1 -10 4 -10 6 0 11 5 11 10 0 6 -2 10 -4 10 -3 0
-8 -4 -11 -10z"/>
<path d="M5514 3013 c-4 -12 -10 -23 -15 -23 -5 0 -9 -6 -9 -14 0 -21 -21 -31
-31 -15 -6 10 -9 6 -9 -13 0 -37 36 -39 50 -3 5 14 14 25 19 25 5 0 11 8 14
18 2 9 8 24 11 33 5 10 2 16 -9 16 -8 0 -18 -11 -21 -24z"/>
<path d="M5080 2739 c0 -5 5 -7 10 -4 6 3 10 8 10 11 0 2 -4 4 -10 4 -5 0 -10
-5 -10 -11z"/>
<path d="M5055 2700 c3 -5 10 -10 16 -10 5 0 9 5 9 10 0 6 -7 10 -16 10 -8 0
-12 -4 -9 -10z"/>
<path d="M3730 2590 c0 -5 4 -10 9 -10 6 0 13 5 16 10 3 6 -1 10 -9 10 -9 0
-16 -4 -16 -10z"/>
<path d="M5973 2565 c0 -22 2 -30 4 -17 2 12 2 30 0 40 -3 9 -5 -1 -4 -23z"/>
<path d="M3381 2564 c0 -11 3 -14 6 -6 3 7 2 16 -1 19 -3 4 -6 -2 -5 -13z"/>
<path d="M3732 2528 c3 -7 15 -14 29 -16 24 -4 24 -3 4 12 -24 19 -38 20 -33
4z"/>
<path d="M3713 2503 c-18 -6 -16 -33 1 -33 19 0 31 19 20 30 -5 4 -15 5 -21 3z"/>
<path d="M3766 2467 c-16 -12 -16 -14 -3 -14 9 0 18 6 21 14 3 7 4 13 3 13 -2
0 -11 -6 -21 -13z"/>
<path d="M4227 2386 c-4 -10 -7 -25 -6 -34 0 -11 4 -9 10 7 5 13 8 29 6 35 -2
5 -6 2 -10 -8z"/>
<path d="M5585 2130 c-3 -5 -1 -10 4 -10 6 0 11 5 11 10 0 6 -2 10 -4 10 -3 0
-8 -4 -11 -10z"/>
<path d="M6500 1225 c0 -8 5 -15 10 -15 6 0 10 7 10 15 0 8 -4 15 -10 15 -5 0
-10 -7 -10 -15z"/>
<path d="M6555 1160 c-3 -5 1 -10 9 -10 9 0 16 5 16 10 0 6 -4 10 -9 10 -6 0
-13 -4 -16 -10z"/>
<path d="M2100 1136 c0 -14 5 -28 10 -31 6 -4 10 7 10 24 0 17 -4 31 -10 31
-5 0 -10 -11 -10 -24z"/>
<path d="M1667 1095 c-49 -17 -94 -72 -84 -100 3 -7 2 -29 -3 -48 -7 -34 -4
-43 25 -85 5 -6 95 42 95 50 0 4 7 8 16 8 10 0 14 6 10 15 -3 8 -2 14 2 12 4
-1 17 5 29 14 19 13 22 24 22 76 -1 59 -2 61 -31 67 -38 8 -36 8 -81 -9z"/>
<path d="M1350 825 c0 -8 2 -15 4 -15 2 0 6 7 10 15 3 8 1 15 -4 15 -6 0 -10
-7 -10 -15z"/>
<path d="M7192 638 c-13 -7 -21 -17 -18 -25 4 -9 -3 -13 -20 -13 -14 0 -23 4
-20 8 3 5 -11 14 -31 20 -28 9 -39 9 -44 0 -4 -7 -6 -15 -4 -18 2 -4 -2 -7
-10 -7 -8 0 -12 3 -10 7 3 4 -19 10 -48 14 -40 4 -55 2 -63 -9 -6 -8 -16 -15
-23 -15 -6 0 -21 -6 -32 -12 -17 -10 -23 -10 -26 0 -7 19 -30 14 -47 -10 -19
-26 -13 -38 19 -38 14 0 37 -11 52 -24 16 -14 47 -41 71 -61 35 -32 42 -43 42
-75 0 -25 5 -40 15 -44 12 -4 14 -14 10 -40 -5 -22 -1 -44 9 -64 20 -38 21
-72 2 -72 -8 0 -17 -7 -20 -16 -9 -23 -8 -24 14 -24 14 0 21 -9 26 -34 3 -19
4 -39 1 -44 -4 -4 3 -16 14 -25 17 -15 61 -17 449 -17 237 0 430 1 430 3 1 1
4 31 7 66 4 48 2 65 -8 72 -10 6 -11 9 -1 9 7 0 12 14 12 38 0 20 9 64 20 96
24 70 24 76 6 76 -7 0 -16 8 -19 18 -5 21 -45 32 -118 32 -46 0 -49 2 -49 25
0 16 6 25 15 25 20 0 19 16 -1 24 -23 9 -26 8 -18 -6 5 -9 2 -9 -9 1 -9 7 -17
20 -17 27 0 8 -10 14 -25 14 -14 0 -25 4 -25 9 0 5 -18 12 -40 16 -22 4 -40
11 -40 17 0 5 -6 8 -12 5 -7 -2 -12 -10 -10 -17 3 -12 -51 -10 -110 5 -27 7
-28 6 -28 -34 l0 -40 -40 5 c-25 4 -40 2 -40 -5 0 -7 -8 -7 -24 -1 -13 5 -27
6 -30 3 -3 -4 -6 -1 -6 5 0 7 -9 12 -19 12 -11 0 -21 5 -23 11 -2 6 -13 9 -23
6 -19 -5 -19 -5 3 -12 12 -4 22 -15 22 -26 0 -11 5 -19 10 -19 15 0 12 -37 -4
-43 -7 -3 -33 1 -57 9 -98 33 -201 94 -159 94 6 0 10 -5 10 -11 0 -7 11 -9 28
-6 16 3 35 0 46 -9 23 -17 45 -19 29 -3 -15 15 -3 61 18 66 15 4 19 15 19 49
0 24 -1 44 -2 43 -2 0 -13 -5 -26 -11z m-272 -63 c10 -12 10 -15 -4 -15 -9 0
-16 7 -16 15 0 8 2 15 4 15 2 0 9 -7 16 -15z m55 -15 c-3 -5 -13 -10 -21 -10
-8 0 -12 5 -9 10 3 6 13 10 21 10 8 0 12 -4 9 -10z m425 -130 c0 -5 -4 -10
-10 -10 -5 0 -10 5 -10 10 0 6 5 10 10 10 6 0 10 -4 10 -10z m-47 -17 c-5 -13
-2 -15 16 -10 18 4 20 3 10 -9 -15 -19 -45 -18 -53 2 -10 26 -7 34 14 34 14 0
18 -5 13 -17z m47 -43 c0 -5 -4 -10 -10 -10 -5 0 -10 5 -10 10 0 6 5 10 10 10
6 0 10 -4 10 -10z m64 -19 c3 -4 -6 -6 -19 -3 -14 2 -25 6 -25 8 0 8 39 4 44
-5z m76 -10 c0 -13 -37 -24 -52 -15 -8 5 -6 10 8 15 27 11 44 11 44 0z m80 -1
c0 -5 -2 -10 -4 -10 -3 0 -8 5 -11 10 -3 6 -1 10 4 10 6 0 11 -4 11 -10z"/>
<path d="M7342 619 c-34 -7 -55 -19 -34 -19 7 0 12 -16 12 -40 0 -38 2 -40 30
-40 19 0 30 5 29 13 -4 30 3 37 33 37 30 0 31 1 13 14 -11 8 -24 12 -30 9 -5
-3 -4 0 3 8 24 26 8 31 -56 18z"/>
<path d="M688 549 c-32 -4 -67 -13 -77 -19 -11 -5 -29 -10 -40 -10 -23 0 -63
-22 -110 -63 -28 -23 -32 -33 -29 -65 2 -20 8 -40 13 -44 15 -11 73 -10 80 2
3 6 17 10 31 10 13 0 24 5 24 10 0 6 19 19 43 30 43 20 68 35 96 58 57 46 80
62 90 62 6 0 11 9 11 20 0 23 -28 24 -132 9z"/>
<path d="M6760 509 c0 -5 5 -7 10 -4 6 3 10 8 10 11 0 2 -4 4 -10 4 -5 0 -10
-5 -10 -11z"/>
<path d="M6730 457 c0 -8 -11 -24 -25 -37 -35 -33 -31 -45 16 -60 22 -8 47
-23 55 -34 14 -20 14 -20 14 7 0 17 -5 27 -14 27 -8 0 -16 10 -18 23 -2 12 -9
21 -16 20 -15 -4 -15 7 -2 41 6 17 6 26 0 26 -6 0 -10 -6 -10 -13z"/>
<path d="M7245 450 c-3 -5 3 -10 15 -10 12 0 18 5 15 10 -3 6 -10 10 -15 10
-5 0 -12 -4 -15 -10z"/>
<path d="M7980 450 c-13 -8 -12 -10 3 -10 9 0 17 5 17 10 0 12 -1 12 -20 0z"/>
<path d="M0 356 c0 -74 2 -84 19 -89 11 -2 24 0 30 6 18 18 13 81 -9 105 -11
12 -20 30 -20 42 0 11 -4 20 -10 20 -6 0 -10 -35 -10 -84z"/>
<path d="M1246 354 c-4 -9 -9 -14 -13 -11 -3 4 -25 -9 -48 -28 -23 -19 -49
-35 -57 -35 -9 0 -21 -7 -28 -15 -8 -9 -27 -14 -52 -13 -28 1 -43 -4 -50 -15
-5 -9 -18 -17 -29 -17 -19 0 -59 -16 -69 -29 -7 -9 -130 -71 -140 -71 -10 0
-54 -29 -112 -73 -20 -16 -49 -32 -65 -37 -17 -5 94 -8 272 -7 l299 2 6 30 c4
17 19 56 33 88 15 32 27 64 27 72 0 15 21 68 46 117 8 14 14 33 14 42 0 21
-26 21 -34 0z"/>
<path d="M6656 355 c-4 -11 -18 -43 -32 -71 -14 -30 -26 -76 -28 -112 -5 -59
-27 -119 -50 -134 -8 -5 -7 -8 2 -8 6 0 12 -7 12 -15 0 -13 29 -15 200 -15
116 0 200 4 200 9 0 5 -7 16 -15 25 -8 8 -15 24 -15 34 0 30 -11 52 -25 52 -8
0 -16 17 -20 40 -5 28 -12 40 -23 40 -10 0 -25 17 -36 40 -11 22 -26 40 -33
40 -8 0 -36 7 -64 16 -41 14 -50 22 -58 48 -7 27 -9 28 -15 11z"/>
<path d="M6890 359 c0 -5 5 -7 10 -4 6 3 10 8 10 11 0 2 -4 4 -10 4 -5 0 -10
-5 -10 -11z"/>
<path d="M1236 141 c-4 -7 -5 -15 -2 -18 9 -9 19 4 14 18 -4 11 -6 11 -12 0z"/>
<path d="M1198 59 c-22 -12 -24 -59 -3 -59 8 0 15 9 15 19 0 11 6 21 13 24 8
3 9 8 2 15 -7 7 -16 8 -27 1z"/>
<path d="M88 45 c-1 -2 -21 -5 -43 -7 -28 -3 -41 -9 -43 -21 -3 -15 6 -17 61
-17 59 0 65 2 60 19 -5 18 -26 34 -35 26z"/>
</g>
</svg>
