<?xml version="1.0" standalone="no"?>
<!DOCTYPE svg PUBLIC "-//W3C//DTD SVG 1.1//EN" "http://www.w3.org/Graphics/SVG/1.1/DTD/svg11.dtd">
<svg width="58.0000000000006mm" height="121.9mm"
 viewBox="0 0 58.0000000000006 121.9"
 xmlns="http://www.w3.org/2000/svg" version="1.1"
 xmlns:xlink="http://www.w3.org/1999/xlink">
<desc>Output from Flights of Ideas SVG Sketchup Plugin</desc>

  <g id="face0" fill="none" stroke="rgb(0,0,255)" stroke-width="1" stroke-miterlimit="4" stroke-dasharray="none" stroke-linejoin="round" stroke-linecap="round">
    <line x1="4.0" y1="4.0" x2="4.0" y2="19.4499999999999"/>
    <line x1="4.0" y1="19.4499999999999" x2="1.0" y2="19.4499999999999"/>
    <line x1="1.0" y1="19.4499999999999" x2="1.0" y2="39.4499999999999"/>
    <line x1="1.0" y1="39.4499999999999" x2="4.0" y2="39.4499999999999"/>
    <line x1="4.0" y1="39.4499999999999" x2="4.0" y2="59.4499999999999"/>
    <line x1="4.0" y1="59.4499999999999" x2="6.0" y2="59.45"/>
    <line x1="6.0" y1="59.45" x2="6.0" y2="58.15"/>
    <line x1="6.0" y1="58.15" x2="8.20000000000005" y2="58.15"/>
    <line x1="8.20000000000005" y1="58.15" x2="8.20000000000005" y2="59.45"/>
    <line x1="8.20000000000005" y1="59.45" x2="11.2000000000002" y2="59.45"/>
    <line x1="11.2000000000002" y1="59.45" x2="11.2000000000002" y2="62.4499999999999"/>
    <line x1="11.2000000000002" y1="62.4499999999999" x2="8.20000000000005" y2="62.4499999999999"/>
    <line x1="8.20000000000005" y1="62.4499999999999" x2="8.20000000000005" y2="63.75"/>
    <line x1="8.20000000000005" y1="63.75" x2="6.0" y2="63.75"/>
    <line x1="6.0" y1="63.75" x2="6.0" y2="62.4499999999999"/>
    <line x1="6.0" y1="62.4499999999999" x2="4.0" y2="62.4499999999999"/>
    <line x1="4.0" y1="62.4499999999999" x2="4.0" y2="82.45"/>
    <line x1="4.0" y1="82.45" x2="1.0" y2="82.45"/>
    <line x1="1.0" y1="82.45" x2="1.0" y2="102.45"/>
    <line x1="1.0" y1="102.45" x2="4.0" y2="102.45"/>
    <line x1="4.0" y1="102.45" x2="4.0" y2="117.9"/>
    <line x1="4.0" y1="117.9" x2="9.00000000000011" y2="117.9"/>
    <line x1="9.00000000000011" y1="117.9" x2="9.00000000000011" y2="120.9"/>
    <line x1="9.00000000000011" y1="120.9" x2="19.0" y2="120.9"/>
    <line x1="19.0" y1="120.9" x2="19.0" y2="117.9"/>
    <line x1="19.0" y1="117.9" x2="39.0" y2="117.9"/>
    <line x1="39.0" y1="117.9" x2="39.0" y2="120.9"/>
    <line x1="39.0" y1="120.9" x2="49.0000000000006" y2="120.9"/>
    <line x1="49.0000000000006" y1="120.9" x2="49.0000000000006" y2="117.9"/>
    <line x1="49.0000000000006" y1="117.9" x2="54.0000000000005" y2="117.9"/>
    <line x1="54.0000000000005" y1="117.9" x2="54.0000000000005" y2="107.9"/>
    <line x1="54.0000000000005" y1="107.9" x2="57.0000000000006" y2="107.9"/>
    <line x1="57.0000000000006" y1="107.9" x2="57.0000000000003" y2="87.9"/>
    <line x1="57.0000000000003" y1="87.9" x2="54.0000000000003" y2="87.9"/>
    <line x1="54.0000000000003" y1="87.9" x2="54.0000000000003" y2="77.0942223909487"/>
    <line x1="54.0000000000003" y1="77.0942223909487" x2="36.8000000000001" y2="77.0942223909487"/>
    <line x1="36.8000000000001" y1="77.0942223909487" x2="36.8000000000001" y2="64.0942223909489"/>
    <line x1="36.8000000000001" y1="64.0942223909489" x2="54.0000000000003" y2="64.0942223909489"/>
    <line x1="54.0000000000003" y1="64.0942223909489" x2="54.0000000000005" y2="33.9999999999999"/>
    <line x1="54.0000000000005" y1="33.9999999999999" x2="57.0000000000006" y2="33.9999999999999"/>
    <line x1="57.0000000000006" y1="33.9999999999999" x2="57.0000000000006" y2="14.0"/>
    <line x1="57.0000000000006" y1="14.0" x2="54.0000000000005" y2="14.0"/>
    <line x1="54.0000000000005" y1="14.0" x2="54.0000000000005" y2="4.0"/>
    <line x1="54.0000000000005" y1="4.0" x2="49.0000000000006" y2="4.0"/>
    <line x1="49.0000000000006" y1="4.0" x2="49.0000000000006" y2="1.0"/>
    <line x1="49.0000000000006" y1="1.0" x2="39.0" y2="1.0"/>
    <line x1="39.0" y1="1.0" x2="39.0" y2="4.0"/>
    <line x1="39.0" y1="4.0" x2="19.0" y2="4.0"/>
    <line x1="19.0" y1="4.0" x2="19.0" y2="1.0"/>
    <line x1="19.0" y1="1.0" x2="9.00000000000011" y2="1.0"/>
    <line x1="9.00000000000011" y1="1.0" x2="9.00000000000011" y2="4.0"/>
    <line x1="9.00000000000011" y1="4.0" x2="4.0" y2="4.0"/>
    <line x1="49.0000000000006" y1="28.0" x2="38.3" y2="28.0"/>
    <line x1="38.3" y1="28.0" x2="38.3" y2="19.0"/>
    <line x1="38.3" y1="19.0" x2="49.0000000000006" y2="19.0"/>
    <line x1="49.0000000000006" y1="19.0" x2="49.0000000000006" y2="28.0"/>
    <line x1="29.0955549577344" y1="21.9470857293849" x2="29.3" y2="23.5"/>
    <line x1="29.3" y1="23.5" x2="29.0955549577344" y2="25.052914270615"/>
    <line x1="29.0955549577344" y1="25.052914270615" x2="28.4961524227066" y2="26.4999999999999"/>
    <line x1="28.4961524227066" y1="26.4999999999999" x2="27.5426406871193" y2="27.7426406871192"/>
    <line x1="27.5426406871193" y1="27.7426406871192" x2="26.3000000000001" y2="28.6961524227065"/>
    <line x1="26.3000000000001" y1="28.6961524227065" x2="24.8529142706151" y2="29.2955549577343"/>
    <line x1="24.8529142706151" y1="29.2955549577343" x2="23.3" y2="29.5"/>
    <line x1="23.3" y1="29.5" x2="21.7470857293848" y2="29.2955549577343"/>
    <line x1="21.7470857293848" y1="29.2955549577343" x2="20.3000000000001" y2="28.6961524227065"/>
    <line x1="20.3000000000001" y1="28.6961524227065" x2="19.0573593128806" y2="27.7426406871192"/>
    <line x1="19.0573593128806" y1="27.7426406871192" x2="18.1038475772933" y2="26.5"/>
    <line x1="18.1038475772933" y1="26.5" x2="17.5044450422656" y2="25.052914270615"/>
    <line x1="17.5044450422656" y1="25.052914270615" x2="17.3" y2="23.5"/>
    <line x1="17.3" y1="23.5" x2="17.5044450422656" y2="21.9470857293849"/>
    <line x1="17.5044450422656" y1="21.9470857293849" x2="18.1038475772933" y2="20.5"/>
    <line x1="18.1038475772933" y1="20.5" x2="19.0573593128806" y2="19.2573593128807"/>
    <line x1="19.0573593128806" y1="19.2573593128807" x2="20.3" y2="18.3038475772934"/>
    <line x1="20.3" y1="18.3038475772934" x2="21.7470857293848" y2="17.7044450422655"/>
    <line x1="21.7470857293848" y1="17.7044450422655" x2="23.3" y2="17.5"/>
    <line x1="23.3" y1="17.5" x2="24.8529142706151" y2="17.7044450422655"/>
    <line x1="24.8529142706151" y1="17.7044450422655" x2="26.3" y2="18.3038475772934"/>
    <line x1="26.3" y1="18.3038475772934" x2="27.5426406871193" y2="19.2573593128807"/>
    <line x1="27.5426406871193" y1="19.2573593128807" x2="28.4961524227066" y2="20.4999999999999"/>
    <line x1="28.4961524227066" y1="20.4999999999999" x2="29.0955549577344" y2="21.9470857293849"/>
  </g>
</svg>
