<?xml version="1.0" encoding="iso-8859-1"?>
<!-- Generator: Adobe Illustrator 19.0.0, SVG Export Plug-In . SVG Version: 6.00 Build 0)  -->
<svg version="1.1" id="Layer_1" xmlns="http://www.w3.org/2000/svg" xmlns:xlink="http://www.w3.org/1999/xlink" x="0px" y="0px"
	 viewBox="0 0 508 508" style="enable-background:new 0 0 508 508;" xml:space="preserve">
<circle style="fill:#84DBFF;" cx="254" cy="254" r="254"/>
<g>
	<path style="fill:#2B3B4E;" d="M313.2,170.4H194.8c-1.6,0-3.6-0.8-4.4-2c-1.2-1.2-1.6-3.2-1.2-4.8l13.2-55.6
		c0.8-2.4,2.8-4.4,5.6-4.4h92c2.8,0,4.8,2,5.6,4.4l13.2,55.6c0.4,1.6,0,3.6-1.2,4.8C316.8,169.6,314.8,170.4,313.2,170.4z
		 M202,158.8h104l-10.4-44h-83.2L202,158.8z"/>
	<path style="fill:#2B3B4E;" d="M383.2,404.8H124.8c-9.6,0-17.2-7.6-17.2-17.2V235.2c0-9.6,7.6-17.2,17.2-17.2h258.4
		c9.6,0,17.2,7.6,17.2,17.2v152.4C400.4,396.8,392.8,404.8,383.2,404.8z"/>
</g>
<path style="fill:#324A5E;" d="M380.4,296H127.6c-18.8,0-34-15.2-34-34V160.4c0-8,6.4-14.4,14.4-14.4h292.4c8,0,14.4,6.4,14.4,14.4
	V262C414.8,280.8,399.6,296,380.4,296z"/>
<path style="fill:#F9B54C;" d="M348.8,331.2h-15.2c-3.2,0-5.6-2.4-5.6-5.6v-18c0-3.2,2.4-5.6,5.6-5.6h15.2c3.2,0,5.6,2.4,5.6,5.6v18
	C354.4,328.8,352,331.2,348.8,331.2z"/>
<path style="fill:#FFD05B;" d="M355.2,313.6h-28c-3.2,0-5.6-2.4-5.6-5.6v-31.2c0-3.2,2.4-5.6,5.6-5.6h28c3.2,0,5.6,2.4,5.6,5.6V308
	C360.8,311.2,358.4,313.6,355.2,313.6z"/>
<path style="fill:#F9B54C;" d="M174.4,331.2h-15.2c-3.2,0-5.6-2.4-5.6-5.6v-18c0-3.2,2.4-5.6,5.6-5.6h15.2c3.2,0,5.6,2.4,5.6,5.6v18
	C180,328.8,177.2,331.2,174.4,331.2z"/>
<path style="fill:#FFD05B;" d="M180.8,313.6h-28c-3.2,0-5.6-2.4-5.6-5.6v-31.2c0-3.2,2.4-5.6,5.6-5.6h28c3.2,0,5.6,2.4,5.6,5.6V308
	C186.4,311.2,183.6,313.6,180.8,313.6z"/>
<g>
	<rect x="330.4" y="145.6" style="fill:#F9B54C;" width="21.6" height="125.6"/>
	<rect x="156" y="145.6" style="fill:#F9B54C;" width="21.6" height="125.6"/>
</g>
<g>
</g>
<g>
</g>
<g>
</g>
<g>
</g>
<g>
</g>
<g>
</g>
<g>
</g>
<g>
</g>
<g>
</g>
<g>
</g>
<g>
</g>
<g>
</g>
<g>
</g>
<g>
</g>
<g>
</g>
</svg>
