<?xml version="1.0" encoding="utf-8"?>
<svg xmlns="http://www.w3.org/2000/svg" xmlns:xlink="http://www.w3.org/1999/xlink" width="600" height="400" viewBox="0 0 2400 1600">
<defs>
  <clipPath id="clip5900">
    <rect x="0" y="0" width="2400" height="1600"/>
  </clipPath>
</defs>
<polygon clip-path="url(#clip5900)" points="
0,1600 2400,1600 2400,0 0,0 
  " fill="#ffffff" fill-rule="evenodd" fill-opacity="1"/>
<defs>
  <clipPath id="clip5901">
    <rect x="480" y="0" width="1681" height="1600"/>
  </clipPath>
</defs>
<polygon clip-path="url(#clip5900)" points="
180.66,1487.47 2352.76,1487.47 2352.76,47.2441 180.66,47.2441 
  " fill="#ffffff" fill-rule="evenodd" fill-opacity="1"/>
<defs>
  <clipPath id="clip5902">
    <rect x="180" y="47" width="2173" height="1441"/>
  </clipPath>
</defs>
<polyline clip-path="url(#clip5902)" style="stroke:#000000; stroke-width:2; stroke-opacity:0.1; fill:none" points="
  235.044,1487.47 235.044,47.2441 
  "/>
<polyline clip-path="url(#clip5902)" style="stroke:#000000; stroke-width:2; stroke-opacity:0.1; fill:none" points="
  589.568,1487.47 589.568,47.2441 
  "/>
<polyline clip-path="url(#clip5902)" style="stroke:#000000; stroke-width:2; stroke-opacity:0.1; fill:none" points="
  944.092,1487.47 944.092,47.2441 
  "/>
<polyline clip-path="url(#clip5902)" style="stroke:#000000; stroke-width:2; stroke-opacity:0.1; fill:none" points="
  1298.62,1487.47 1298.62,47.2441 
  "/>
<polyline clip-path="url(#clip5902)" style="stroke:#000000; stroke-width:2; stroke-opacity:0.1; fill:none" points="
  1653.14,1487.47 1653.14,47.2441 
  "/>
<polyline clip-path="url(#clip5902)" style="stroke:#000000; stroke-width:2; stroke-opacity:0.1; fill:none" points="
  2007.66,1487.47 2007.66,47.2441 
  "/>
<polyline clip-path="url(#clip5902)" style="stroke:#000000; stroke-width:2; stroke-opacity:0.1; fill:none" points="
  180.66,1477.52 2352.76,1477.52 
  "/>
<polyline clip-path="url(#clip5902)" style="stroke:#000000; stroke-width:2; stroke-opacity:0.1; fill:none" points="
  180.66,1129.94 2352.76,1129.94 
  "/>
<polyline clip-path="url(#clip5902)" style="stroke:#000000; stroke-width:2; stroke-opacity:0.1; fill:none" points="
  180.66,782.358 2352.76,782.358 
  "/>
<polyline clip-path="url(#clip5902)" style="stroke:#000000; stroke-width:2; stroke-opacity:0.1; fill:none" points="
  180.66,434.776 2352.76,434.776 
  "/>
<polyline clip-path="url(#clip5902)" style="stroke:#000000; stroke-width:2; stroke-opacity:0.1; fill:none" points="
  180.66,87.1945 2352.76,87.1945 
  "/>
<polyline clip-path="url(#clip5900)" style="stroke:#000000; stroke-width:4; stroke-opacity:1; fill:none" points="
  180.66,1487.47 2352.76,1487.47 
  "/>
<polyline clip-path="url(#clip5900)" style="stroke:#000000; stroke-width:4; stroke-opacity:1; fill:none" points="
  180.66,1487.47 180.66,47.2441 
  "/>
<polyline clip-path="url(#clip5900)" style="stroke:#000000; stroke-width:4; stroke-opacity:1; fill:none" points="
  235.044,1487.47 235.044,1465.87 
  "/>
<polyline clip-path="url(#clip5900)" style="stroke:#000000; stroke-width:4; stroke-opacity:1; fill:none" points="
  589.568,1487.47 589.568,1465.87 
  "/>
<polyline clip-path="url(#clip5900)" style="stroke:#000000; stroke-width:4; stroke-opacity:1; fill:none" points="
  944.092,1487.47 944.092,1465.87 
  "/>
<polyline clip-path="url(#clip5900)" style="stroke:#000000; stroke-width:4; stroke-opacity:1; fill:none" points="
  1298.62,1487.47 1298.62,1465.87 
  "/>
<polyline clip-path="url(#clip5900)" style="stroke:#000000; stroke-width:4; stroke-opacity:1; fill:none" points="
  1653.14,1487.47 1653.14,1465.87 
  "/>
<polyline clip-path="url(#clip5900)" style="stroke:#000000; stroke-width:4; stroke-opacity:1; fill:none" points="
  2007.66,1487.47 2007.66,1465.87 
  "/>
<polyline clip-path="url(#clip5900)" style="stroke:#000000; stroke-width:4; stroke-opacity:1; fill:none" points="
  180.66,1477.52 213.242,1477.52 
  "/>
<polyline clip-path="url(#clip5900)" style="stroke:#000000; stroke-width:4; stroke-opacity:1; fill:none" points="
  180.66,1129.94 213.242,1129.94 
  "/>
<polyline clip-path="url(#clip5900)" style="stroke:#000000; stroke-width:4; stroke-opacity:1; fill:none" points="
  180.66,782.358 213.242,782.358 
  "/>
<polyline clip-path="url(#clip5900)" style="stroke:#000000; stroke-width:4; stroke-opacity:1; fill:none" points="
  180.66,434.776 213.242,434.776 
  "/>
<polyline clip-path="url(#clip5900)" style="stroke:#000000; stroke-width:4; stroke-opacity:1; fill:none" points="
  180.66,87.1945 213.242,87.1945 
  "/>
<g clip-path="url(#clip5900)">
<text style="fill:#000000; fill-opacity:1; font-family:Arial,Helvetica Neue,Helvetica,sans-serif; font-size:48px; text-anchor:middle;" transform="rotate(0, 235.044, 1541.47)" x="235.044" y="1541.47">0</text>
</g>
<g clip-path="url(#clip5900)">
<text style="fill:#000000; fill-opacity:1; font-family:Arial,Helvetica Neue,Helvetica,sans-serif; font-size:48px; text-anchor:middle;" transform="rotate(0, 589.568, 1541.47)" x="589.568" y="1541.47">50</text>
</g>
<g clip-path="url(#clip5900)">
<text style="fill:#000000; fill-opacity:1; font-family:Arial,Helvetica Neue,Helvetica,sans-serif; font-size:48px; text-anchor:middle;" transform="rotate(0, 944.092, 1541.47)" x="944.092" y="1541.47">100</text>
</g>
<g clip-path="url(#clip5900)">
<text style="fill:#000000; fill-opacity:1; font-family:Arial,Helvetica Neue,Helvetica,sans-serif; font-size:48px; text-anchor:middle;" transform="rotate(0, 1298.62, 1541.47)" x="1298.62" y="1541.47">150</text>
</g>
<g clip-path="url(#clip5900)">
<text style="fill:#000000; fill-opacity:1; font-family:Arial,Helvetica Neue,Helvetica,sans-serif; font-size:48px; text-anchor:middle;" transform="rotate(0, 1653.14, 1541.47)" x="1653.14" y="1541.47">200</text>
</g>
<g clip-path="url(#clip5900)">
<text style="fill:#000000; fill-opacity:1; font-family:Arial,Helvetica Neue,Helvetica,sans-serif; font-size:48px; text-anchor:middle;" transform="rotate(0, 2007.66, 1541.47)" x="2007.66" y="1541.47">250</text>
</g>
<g clip-path="url(#clip5900)">
<text style="fill:#000000; fill-opacity:1; font-family:Arial,Helvetica Neue,Helvetica,sans-serif; font-size:48px; text-anchor:end;" transform="rotate(0, 156.66, 1495.02)" x="156.66" y="1495.02">0.00</text>
</g>
<g clip-path="url(#clip5900)">
<text style="fill:#000000; fill-opacity:1; font-family:Arial,Helvetica Neue,Helvetica,sans-serif; font-size:48px; text-anchor:end;" transform="rotate(0, 156.66, 1147.44)" x="156.66" y="1147.44">0.25</text>
</g>
<g clip-path="url(#clip5900)">
<text style="fill:#000000; fill-opacity:1; font-family:Arial,Helvetica Neue,Helvetica,sans-serif; font-size:48px; text-anchor:end;" transform="rotate(0, 156.66, 799.858)" x="156.66" y="799.858">0.50</text>
</g>
<g clip-path="url(#clip5900)">
<text style="fill:#000000; fill-opacity:1; font-family:Arial,Helvetica Neue,Helvetica,sans-serif; font-size:48px; text-anchor:end;" transform="rotate(0, 156.66, 452.276)" x="156.66" y="452.276">0.75</text>
</g>
<g clip-path="url(#clip5900)">
<text style="fill:#000000; fill-opacity:1; font-family:Arial,Helvetica Neue,Helvetica,sans-serif; font-size:48px; text-anchor:end;" transform="rotate(0, 156.66, 104.695)" x="156.66" y="104.695">1.00</text>
</g>
<polyline clip-path="url(#clip5902)" style="stroke:#0000ff; stroke-width:4; stroke-opacity:1; fill:none" points="
  242.135,535.881 249.225,487.021 256.316,446.361 263.406,406.964 270.497,370.397 277.587,341.848 284.678,314.784 291.768,288.735 298.859,267.293 305.949,245.935 
  313.039,226.632 320.13,208.74 327.22,194.341 334.311,182.289 341.401,170.797 348.492,161.25 355.582,153.24 362.673,146.086 369.763,139.897 376.854,134.195 
  383.944,129.161 391.035,124.323 398.125,120.909 405.216,117.682 412.306,114.474 419.397,112.451 426.487,110.321 433.577,107.981 440.668,106.101 447.758,104.63 
  454.849,103.099 461.939,101.64 469.03,100.596 476.12,99.5079 483.211,98.6945 490.301,97.9248 497.392,97.0053 504.482,96.2849 511.573,95.7849 518.663,95.2551 
  525.754,94.6027 532.844,94.0693 539.935,93.7518 547.025,93.3523 554.116,93.0679 561.206,92.707 568.296,92.3802 575.387,92.2444 582.477,92.0237 589.568,91.805 
  596.658,91.6096 603.749,91.4426 610.839,91.4306 617.93,91.2449 625.02,91.137 632.111,91.0174 639.201,90.9898 646.292,91.0243 653.382,90.9596 660.473,90.9367 
  667.563,90.8943 674.654,90.8928 681.744,90.9422 688.835,90.8073 695.925,90.842 703.015,90.8686 710.106,90.9613 717.196,91.0261 724.287,91.0633 731.377,91.1662 
  738.468,91.2435 745.558,91.3652 752.649,91.4768 759.739,91.4792 766.83,91.7236 773.92,91.766 781.011,91.9799 788.101,92.005 795.192,92.0265 802.282,92.1134 
  809.373,92.1814 816.463,92.3315 823.554,92.6343 830.644,92.8886 837.734,93.2008 844.825,93.3149 851.915,93.7082 859.006,93.9131 866.096,94.3796 873.187,94.8486 
  880.277,95.2418 887.368,95.6535 894.458,96.1583 901.549,96.5504 908.639,96.9928 915.73,97.6789 922.82,98.4053 929.911,99.1782 937.001,100.08 944.092,101.14 
  951.182,101.922 958.273,102.842 965.363,104.169 972.453,105.497 979.544,107.212 986.634,108.833 993.725,110.789 1000.82,112.742 1007.91,114.806 1015,116.833 
  1022.09,118.874 1029.18,121.661 1036.27,124.69 1043.36,127.889 1050.45,131.429 1057.54,134.936 1064.63,138.663 1071.72,143.025 1078.81,148.929 1085.9,154.516 
  1092.99,161.109 1100.08,167.35 1107.17,176.16 1114.26,184.987 1121.35,193.097 1128.44,202.336 1135.53,210.493 1142.62,222.301 1149.72,232.735 1156.81,243.967 
  1163.9,258.341 1170.99,273.933 1178.08,291.824 1185.17,305.464 1192.26,323.425 1199.35,341.945 1206.44,359.67 1213.53,379.628 1220.62,402.661 1227.71,429.391 
  1234.8,448.743 1241.89,472.661 1248.98,489.586 1256.07,512.425 1263.16,536.596 1270.25,564.107 1277.34,595.111 1284.43,626.303 1291.52,654.792 1298.62,682.783 
  1305.71,706.176 1312.8,744.684 1319.89,770.222 1326.98,803.007 1334.07,833.056 1341.16,864.305 1348.25,889.946 1355.34,917.146 1362.43,945.935 1369.52,971.315 
  1376.61,997.088 1383.7,1025.98 1390.79,1046.72 1397.88,1074.8 1404.97,1098.43 1412.06,1122.71 1419.15,1139.77 1426.24,1162.67 1433.33,1175.92 1440.42,1189.07 
  1447.52,1207.94 1454.61,1224.26 1461.7,1238.55 1468.79,1251.85 1475.88,1262.11 1482.97,1275.31 1490.06,1285.49 1497.15,1297.34 1504.24,1303.75 1511.33,1314.07 
  1518.42,1320.39 1525.51,1325.45 1532.6,1332.42 1539.69,1338.44 1546.78,1345.32 1553.87,1350.57 1560.96,1354.92 1568.05,1356.16 1575.14,1360.7 1582.23,1365.67 
  1589.32,1368.98 1596.42,1376.3 1603.51,1380.82 1610.6,1382.92 1617.69,1385.45 1624.78,1388.32 1631.87,1391.2 1638.96,1394.93 1646.05,1399.17 1653.14,1400.75 
  1660.23,1403.43 1667.32,1406.22 1674.41,1407.33 1681.5,1409.58 1688.59,1411.48 1695.68,1414.52 1702.77,1415.3 1709.86,1415.22 1716.95,1414.79 1724.04,1415.57 
  1731.13,1417.56 1738.22,1418.27 1745.32,1419.41 1752.41,1419.8 1759.5,1419.96 1766.59,1419.72 1773.68,1419.97 1780.77,1420.67 1787.86,1422.32 1794.95,1423.26 
  1802.04,1423.41 1809.13,1423.75 1816.22,1423.61 1823.31,1423.6 1830.4,1423.93 1837.49,1423.86 1844.58,1423.76 1851.67,1422.55 1858.76,1421.41 1865.85,1420.53 
  1872.94,1419.93 1880.03,1418.66 1887.12,1416.84 1894.21,1416.04 1901.31,1413.79 1908.4,1412.35 1915.49,1411.17 1922.58,1410.14 1929.67,1408.37 1936.76,1407.5 
  1943.85,1406.42 1950.94,1404.23 1958.03,1403.55 1965.12,1401.22 1972.21,1398.12 1979.3,1396.09 1986.39,1393.79 1993.48,1390.63 2000.57,1388.93 2007.66,1386.58 
  2014.75,1384.08 2021.84,1380.69 2028.93,1378.62 2036.02,1375.97 2043.11,1374.34 2050.21,1372.7 2057.3,1369.99 2064.39,1364.48 2071.48,1361.7 2078.57,1357.18 
  2085.66,1350.63 2092.75,1347.14 2099.84,1343.48 2106.93,1338.08 2114.02,1329.71 2121.11,1322.29 2128.2,1316.98 2135.29,1310.6 2142.38,1306.68 2149.47,1299.53 
  2156.56,1294.57 2163.65,1292.22 2170.74,1283.8 2177.83,1277.41 2184.92,1266.25 2192.01,1258.05 2199.11,1250.01 2206.2,1237.54 2213.29,1230.15 2220.38,1218.62 
  2227.47,1209.1 2234.56,1194.28 2241.65,1181.56 2248.74,1169.2 2255.83,1152.22 2262.92,1146.05 2270.01,1134.17 2277.1,1122.81 2284.19,1112.94 2291.28,1096.77 
  
  "/>
<polyline clip-path="url(#clip5902)" style="stroke:#ff0000; stroke-width:4; stroke-opacity:1; fill:none" points="
  242.135,485.906 249.225,435.32 256.316,393.458 263.406,353.862 270.497,317.929 277.587,289.94 284.678,264.098 291.768,239.983 298.859,220.366 305.949,201.559 
  313.039,185.027 320.13,170.198 327.22,158.434 334.311,148.757 341.401,139.864 348.492,132.603 355.582,126.613 362.673,121.402 369.763,116.986 376.854,113.045 
  383.944,109.651 391.035,106.517 398.125,104.269 405.216,102.217 412.306,100.269 419.397,98.9768 426.487,97.6927 433.577,96.3724 440.668,95.3164 447.758,94.4838 
  454.849,93.6645 461.939,92.9128 469.03,92.359 476.12,91.8137 483.211,91.3959 490.301,91.0131 497.392,90.5951 504.482,90.265 511.573,90.0236 518.663,89.7835 
  525.754,89.5155 532.844,89.2967 539.935,89.1531 547.025,88.9917 554.116,88.8708 561.206,88.7338 568.296,88.6122 575.387,88.5478 582.477,88.4637 589.568,88.384 
  596.658,88.3137 603.749,88.2537 610.839,88.2348 617.93,88.1748 625.02,88.1361 632.111,88.0965 639.201,88.0804 646.292,88.0802 653.382,88.058 660.473,88.0468 
  667.563,88.0324 674.654,88.0285 681.744,88.0372 688.835,88.0053 695.925,88.013 703.015,88.0198 710.106,88.0428 717.196,88.0607 724.287,88.0735 731.377,88.1026 
  738.468,88.1272 745.558,88.1637 752.649,88.1994 759.739,88.2107 766.83,88.2819 773.92,88.306 781.011,88.3744 788.101,88.3978 795.192,88.4217 802.282,88.464 
  809.373,88.5033 816.463,88.5665 823.554,88.6744 830.644,88.773 837.734,88.8922 844.825,88.9585 851.915,89.1105 859.006,89.2114 866.096,89.3974 873.187,89.5918 
  880.277,89.7694 887.368,89.9602 894.458,90.1899 901.549,90.3898 908.639,90.615 915.73,90.9369 922.82,91.2865 929.911,91.6673 937.001,92.1129 944.092,92.6386 
  951.182,93.072 958.273,93.579 965.363,94.2771 972.453,95.0022 979.544,95.9272 986.634,96.8446 993.725,97.9519 1000.82,99.0993 1007.91,100.343 1015,101.613 
  1022.09,102.934 1029.18,104.687 1036.27,106.631 1043.36,108.736 1050.45,111.103 1057.54,113.53 1064.63,116.165 1071.72,119.261 1078.81,123.39 1085.9,127.462 
  1092.99,132.301 1100.08,137.067 1107.17,143.673 1114.26,150.503 1121.35,157.051 1128.44,164.58 1135.53,171.55 1142.62,181.364 1149.72,190.435 1156.81,200.345 
  1163.9,212.928 1170.99,226.8 1178.08,242.867 1185.17,255.874 1192.26,272.737 1199.35,290.449 1206.44,307.857 1213.53,327.544 1220.62,350.318 1227.71,376.835 
  1234.8,397.142 1241.89,421.934 1248.98,440.596 1256.07,465.003 1263.16,490.961 1270.25,520.391 1277.34,553.496 1284.43,587.101 1291.52,618.006 1298.62,648.159 
  1305.71,673.335 1312.8,712.926 1319.89,738.967 1326.98,771.52 1334.07,800.662 1341.16,830.446 1348.25,854.119 1355.34,879.075 1362.43,905.521 1369.52,928.695 
  1376.61,952.547 1383.7,979.989 1390.79,999.159 1397.88,1026.46 1404.97,1049.37 1412.06,1073.36 1419.15,1089.79 1426.24,1112.97 1433.33,1125.71 1440.42,1138.56 
  1447.52,1158.14 1454.61,1175.1 1461.7,1190.01 1468.79,1203.99 1475.88,1214.62 1482.97,1228.91 1490.06,1239.82 1497.15,1252.93 1504.24,1259.6 1511.33,1271.18 
  1518.42,1277.99 1525.51,1283.34 1532.6,1291.17 1539.69,1297.91 1546.78,1305.84 1553.87,1311.8 1560.96,1316.69 1568.05,1317.64 1575.14,1322.89 1582.23,1328.77 
  1589.32,1332.55 1596.42,1341.66 1603.51,1347.17 1610.6,1349.52 1617.69,1352.49 1624.78,1355.95 1631.87,1359.46 1638.96,1364.16 1646.05,1369.6 1653.14,1371.46 
  1660.23,1374.87 1667.32,1378.44 1674.41,1379.75 1681.5,1382.63 1688.59,1385.07 1695.68,1389.11 1702.77,1390.04 1709.86,1389.78 1716.95,1389.05 1724.04,1390.02 
  1731.13,1392.69 1738.22,1393.58 1745.32,1395.08 1752.41,1395.56 1759.5,1395.73 1766.59,1395.32 1773.68,1395.63 1780.77,1396.58 1787.86,1398.86 1794.95,1400.18 
  1802.04,1400.37 1809.13,1400.85 1816.22,1400.66 1823.31,1400.66 1830.4,1401.14 1837.49,1401.08 1844.58,1400.98 1851.67,1399.33 1858.76,1397.77 1865.85,1396.6 
  1872.94,1395.83 1880.03,1394.14 1887.12,1391.69 1894.21,1390.67 1901.31,1387.65 1908.4,1385.79 1915.49,1384.28 1922.58,1383 1929.67,1380.72 1936.76,1379.7 
  1943.85,1378.39 1950.94,1375.58 1958.03,1374.85 1965.12,1371.89 1972.21,1367.91 1979.3,1365.4 1986.39,1362.56 1993.48,1358.58 2000.57,1356.61 2007.66,1353.77 
  2014.75,1350.78 2021.84,1346.63 2028.93,1344.25 2036.02,1341.14 2043.11,1339.4 2050.21,1337.67 2057.3,1334.58 2064.39,1327.87 2071.48,1324.77 2078.57,1319.46 
  2085.66,1311.61 2092.75,1307.72 2099.84,1303.66 2106.93,1297.46 2114.02,1287.6 2121.11,1279.04 2128.2,1273.19 2135.29,1266.07 2142.38,1262.03 2149.47,1254.13 
  2156.56,1248.94 2163.65,1246.98 2170.74,1237.75 2177.83,1231.04 2184.92,1218.76 2192.01,1210.1 2199.11,1201.71 2206.2,1188.28 2213.29,1180.86 2220.38,1168.76 
  2227.47,1159.1 2234.56,1143.53 2241.65,1130.49 2248.74,1118.01 2255.83,1100.51 2262.92,1095.15 2270.01,1083.55 2277.1,1072.64 2284.19,1063.46 2291.28,1047.54 
  
  "/>
<polyline clip-path="url(#clip5902)" style="stroke:#ff0000; stroke-width:4; stroke-opacity:1; fill:none" points="
  242.135,585.856 249.225,538.723 256.316,499.264 263.406,460.065 270.497,422.865 277.587,393.756 284.678,365.471 291.768,337.487 298.859,314.22 305.949,290.312 
  313.039,268.236 320.13,247.282 327.22,230.248 334.311,215.82 341.401,201.729 348.492,189.896 355.582,179.866 362.673,170.77 369.763,162.808 376.854,155.346 
  383.944,148.672 391.035,142.13 398.125,137.549 405.216,133.147 412.306,128.679 419.397,125.925 426.487,122.95 433.577,119.589 440.668,116.885 447.758,114.777 
  454.849,112.534 461.939,110.368 469.03,108.834 476.12,107.202 483.211,105.993 490.301,104.837 497.392,103.416 504.482,102.305 511.573,101.546 518.663,100.727 
  525.754,99.69 532.844,98.842 539.935,98.3506 547.025,97.7128 554.116,97.2651 561.206,96.6802 568.296,96.1481 575.387,95.941 582.477,95.5836 589.568,95.226 
  596.658,94.9055 603.749,94.6315 610.839,94.6264 617.93,94.3149 625.02,94.1379 632.111,93.9383 639.201,93.8991 646.292,93.9684 653.382,93.8612 660.473,93.8267 
  667.563,93.7563 674.654,93.7572 681.744,93.8471 688.835,93.6093 695.925,93.671 703.015,93.7174 710.106,93.8797 717.196,93.9915 724.287,94.0532 731.377,94.2298 
  738.468,94.3598 745.558,94.5667 752.649,94.7541 759.739,94.7478 766.83,95.1654 773.92,95.226 781.011,95.5854 788.101,95.6121 795.192,95.6314 802.282,95.7628 
  809.373,95.8596 816.463,96.0964 823.554,96.5943 830.644,97.0042 837.734,97.5094 844.825,97.6712 851.915,98.3059 859.006,98.6148 866.096,99.3618 873.187,100.106 
  880.277,100.714 887.368,101.347 894.458,102.127 901.549,102.711 908.639,103.371 915.73,104.421 922.82,105.524 929.911,106.689 937.001,108.047 944.092,109.641 
  951.182,110.771 958.273,112.106 965.363,114.062 972.453,115.991 979.544,118.497 986.634,120.821 993.725,123.626 1000.82,126.384 1007.91,129.269 1015,132.054 
  1022.09,134.814 1029.18,138.635 1036.27,142.748 1043.36,147.042 1050.45,151.756 1057.54,156.342 1064.63,161.161 1071.72,166.79 1078.81,174.469 1085.9,181.571 
  1092.99,189.918 1100.08,197.633 1107.17,208.647 1114.26,219.471 1121.35,229.142 1128.44,240.093 1135.53,249.437 1142.62,263.238 1149.72,275.035 1156.81,287.589 
  1163.9,303.754 1170.99,321.067 1178.08,340.781 1185.17,355.055 1192.26,374.114 1199.35,393.44 1206.44,411.483 1213.53,431.713 1220.62,455.003 1227.71,481.947 
  1234.8,500.343 1241.89,523.387 1248.98,538.576 1256.07,559.846 1263.16,582.232 1270.25,607.823 1277.34,636.726 1284.43,665.505 1291.52,691.577 1298.62,717.407 
  1305.71,739.018 1312.8,776.442 1319.89,801.478 1326.98,834.493 1334.07,865.449 1341.16,898.165 1348.25,925.774 1355.34,955.216 1362.43,986.348 1369.52,1013.94 
  1376.61,1041.63 1383.7,1071.98 1390.79,1094.28 1397.88,1123.15 1404.97,1147.48 1412.06,1172.06 1419.15,1189.75 1426.24,1212.37 1433.33,1226.12 1440.42,1239.58 
  1447.52,1257.75 1454.61,1273.41 1461.7,1287.1 1468.79,1299.71 1475.88,1309.6 1482.97,1321.7 1490.06,1331.15 1497.15,1341.76 1504.24,1347.89 1511.33,1356.96 
  1518.42,1362.78 1525.51,1367.55 1532.6,1373.68 1539.69,1378.97 1546.78,1384.81 1553.87,1389.34 1560.96,1393.16 1568.05,1394.68 1575.14,1398.51 1582.23,1402.57 
  1589.32,1405.4 1596.42,1410.94 1603.51,1414.47 1610.6,1416.32 1617.69,1418.41 1624.78,1420.69 1631.87,1422.94 1638.96,1425.7 1646.05,1428.75 1653.14,1430.03 
  1660.23,1432 1667.32,1434 1674.41,1434.92 1681.5,1436.53 1688.59,1437.89 1695.68,1439.94 1702.77,1440.57 1709.86,1440.66 1716.95,1440.53 1724.04,1441.12 
  1731.13,1442.44 1738.22,1442.96 1745.32,1443.73 1752.41,1444.04 1759.5,1444.2 1766.59,1444.11 1773.68,1444.31 1780.77,1444.76 1787.86,1445.77 1794.95,1446.35 
  1802.04,1446.44 1809.13,1446.65 1816.22,1446.56 1823.31,1446.54 1830.4,1446.71 1837.49,1446.64 1844.58,1446.55 1851.67,1445.78 1858.76,1445.05 1865.85,1444.45 
  1872.94,1444.02 1880.03,1443.18 1887.12,1441.99 1894.21,1441.4 1901.31,1439.92 1908.4,1438.92 1915.49,1438.06 1922.58,1437.27 1929.67,1436.02 1936.76,1435.31 
  1943.85,1434.46 1950.94,1432.88 1958.03,1432.25 1965.12,1430.55 1972.21,1428.33 1979.3,1426.77 1986.39,1425.02 1993.48,1422.67 2000.57,1421.25 2007.66,1419.38 
  2014.75,1417.38 2021.84,1414.76 2028.93,1412.99 2036.02,1410.79 2043.11,1409.27 2050.21,1407.73 2057.3,1405.41 2064.39,1401.08 2071.48,1398.64 2078.57,1394.91 
  2085.66,1389.66 2092.75,1386.56 2099.84,1383.29 2106.93,1378.7 2114.02,1371.81 2121.11,1365.54 2128.2,1360.78 2135.29,1355.14 2142.38,1351.32 2149.47,1344.94 
  2156.56,1340.19 2163.65,1337.47 2170.74,1329.85 2177.83,1323.78 2184.92,1313.75 2192.01,1306.01 2199.11,1298.3 2206.2,1286.81 2213.29,1279.44 2220.38,1268.47 
  2227.47,1259.1 2234.56,1245.04 2241.65,1232.63 2248.74,1220.4 2255.83,1203.93 2262.92,1196.95 2270.01,1184.78 2277.1,1172.97 2284.19,1162.43 2291.28,1146 
  
  "/>
<polygon clip-path="url(#clip5900)" points="
1679.61,372.684 2280.76,372.684 2280.76,130.764 1679.61,130.764 
  " fill="#ffffff" fill-rule="evenodd" fill-opacity="1"/>
<polyline clip-path="url(#clip5900)" style="stroke:#000000; stroke-width:4; stroke-opacity:1; fill:none" points="
  1679.61,372.684 2280.76,372.684 2280.76,130.764 1679.61,130.764 1679.61,372.684 
  "/>
<polyline clip-path="url(#clip5900)" style="stroke:#0000ff; stroke-width:4; stroke-opacity:1; fill:none" points="
  1703.61,191.244 1847.61,191.244 
  "/>
<g clip-path="url(#clip5900)">
<text style="fill:#000000; fill-opacity:1; font-family:Arial,Helvetica Neue,Helvetica,sans-serif; font-size:48px; text-anchor:start;" transform="rotate(0, 1871.61, 208.744)" x="1871.61" y="208.744">processed signal</text>
</g>
<polyline clip-path="url(#clip5900)" style="stroke:#ff0000; stroke-width:4; stroke-opacity:1; fill:none" points="
  1703.61,251.724 1847.61,251.724 
  "/>
<g clip-path="url(#clip5900)">
<text style="fill:#000000; fill-opacity:1; font-family:Arial,Helvetica Neue,Helvetica,sans-serif; font-size:48px; text-anchor:start;" transform="rotate(0, 1871.61, 269.224)" x="1871.61" y="269.224">upper bound</text>
</g>
<polyline clip-path="url(#clip5900)" style="stroke:#ff0000; stroke-width:4; stroke-opacity:1; fill:none" points="
  1703.61,312.204 1847.61,312.204 
  "/>
<g clip-path="url(#clip5900)">
<text style="fill:#000000; fill-opacity:1; font-family:Arial,Helvetica Neue,Helvetica,sans-serif; font-size:48px; text-anchor:start;" transform="rotate(0, 1871.61, 329.704)" x="1871.61" y="329.704">lower bound</text>
</g>
</svg>
