<?xml version="1.0" standalone="no"?>
<!DOCTYPE svg PUBLIC "-//W3C//DTD SVG 1.1//EN" "http://www.w3.org/Graphics/SVG/1.1/DTD/svg11.dtd">
<svg width="20.0002mm" height="20.0002mm"
 viewBox="0 0 20.0002 20.0002"
 xmlns="http://www.w3.org/2000/svg" version="1.1"
 xmlns:xlink="http://www.w3.org/1999/xlink">
<desc>Output from Flights of Ideas SVG Sketchup Plugin</desc>

  <g id="face0" fill="none" stroke="rgb(0,0,255)" stroke-width="1" stroke-miterlimit="4" stroke-dasharray="none" stroke-linejoin="round" stroke-linecap="round">
    <line x1="12.5882904510252" y1="19.6593582628907" x2="15.0001" y2="18.6603540378443"/>
    <line x1="15.0001" y1="18.6603540378443" x2="17.0711678118655" y2="17.0711678118655"/>
    <line x1="17.0711678118655" y1="17.0711678118655" x2="18.6603540378444" y2="15.0000999999999"/>
    <line x1="18.6603540378444" y1="15.0000999999999" x2="19.6593582628907" y2="12.5882904510252"/>
    <line x1="19.6593582628907" y1="12.5882904510252" x2="20.0001" y2="10.0001"/>
    <line x1="20.0001" y1="10.0001" x2="19.6593582628907" y2="7.41190954897476"/>
    <line x1="19.6593582628907" y1="7.41190954897476" x2="18.6603540378444" y2="5.00009999999994"/>
    <line x1="18.6603540378444" y1="5.00009999999994" x2="17.0711678118655" y2="2.92903218813452"/>
    <line x1="17.0711678118655" y1="2.92903218813452" x2="15.0001" y2="1.33984596215558"/>
    <line x1="15.0001" y1="1.33984596215558" x2="12.5882904510252" y2="0.340841737109283"/>
    <line x1="12.5882904510252" y1="0.340841737109283" x2="10.0001" y2="0.0001"/>
    <line x1="10.0001" y1="0.0001" x2="7.41190954897483" y2="0.340841737109283"/>
    <line x1="7.41190954897483" y1="0.340841737109283" x2="5.00010000000004" y2="1.33984596215558"/>
    <line x1="5.00010000000004" y1="1.33984596215558" x2="2.92903218813449" y2="2.92903218813452"/>
    <line x1="2.92903218813449" y1="2.92903218813452" x2="1.33984596215565" y2="5.00009999999994"/>
    <line x1="1.33984596215565" y1="5.00009999999994" x2="0.340841737109326" y2="7.41190954897476"/>
    <line x1="0.340841737109326" y1="7.41190954897476" x2="0.0001" y2="10.0001"/>
    <line x1="0.0001" y1="10.0001" x2="0.340841737109326" y2="12.5882904510252"/>
    <line x1="0.340841737109326" y1="12.5882904510252" x2="1.33984596215565" y2="15.0000999999999"/>
    <line x1="1.33984596215565" y1="15.0000999999999" x2="2.92903218813449" y2="17.0711678118655"/>
    <line x1="2.92903218813449" y1="17.0711678118655" x2="5.00010000000004" y2="18.6603540378443"/>
    <line x1="5.00010000000004" y1="18.6603540378443" x2="7.41190954897482" y2="19.6593582628907"/>
    <line x1="7.41190954897482" y1="19.6593582628907" x2="10.0001" y2="20.0001"/>
    <line x1="10.0001" y1="20.0001" x2="12.5882904510252" y2="19.6593582628907"/>
    <line x1="11.2991381056767" y1="10.7501" x2="11.0607601717798" y2="11.0607601717798"/>
    <line x1="11.0607601717798" y1="11.0607601717798" x2="10.7501" y2="11.2991381056766"/>
    <line x1="10.7501" y1="11.2991381056766" x2="10.3883285676538" y2="11.4489887394336"/>
    <line x1="10.3883285676538" y1="11.4489887394336" x2="10.0001" y2="11.5001"/>
    <line x1="10.0001" y1="11.5001" x2="9.61187143234618" y2="11.4489887394336"/>
    <line x1="9.61187143234618" y1="11.4489887394336" x2="9.25009999999997" y2="11.2991381056766"/>
    <line x1="9.25009999999997" y1="11.2991381056766" x2="8.93943982822018" y2="11.0607601717798"/>
    <line x1="8.93943982822018" y1="11.0607601717798" x2="8.70106189432331" y2="10.7501"/>
    <line x1="8.70106189432331" y1="10.7501" x2="8.55121126056638" y2="10.3883285676537"/>
    <line x1="8.55121126056638" y1="10.3883285676537" x2="8.50009999999996" y2="10.0001"/>
    <line x1="8.50009999999996" y1="10.0001" x2="8.55121126056638" y2="9.61187143234619"/>
    <line x1="8.55121126056638" y1="9.61187143234619" x2="8.70106189432331" y2="9.2501"/>
    <line x1="8.70106189432331" y1="9.2501" x2="8.93943982822018" y2="8.93943982822011"/>
    <line x1="8.93943982822018" y1="8.93943982822011" x2="9.25009999999997" y2="8.70106189432331"/>
    <line x1="9.25009999999997" y1="8.70106189432331" x2="9.61187143234618" y2="8.55121126056642"/>
    <line x1="9.61187143234618" y1="8.55121126056642" x2="10.0001" y2="8.5001"/>
    <line x1="10.0001" y1="8.5001" x2="10.3883285676538" y2="8.55121126056642"/>
    <line x1="10.3883285676538" y1="8.55121126056642" x2="10.7501" y2="8.70106189432331"/>
    <line x1="10.7501" y1="8.70106189432331" x2="11.0607601717798" y2="8.93943982822011"/>
    <line x1="11.0607601717798" y1="8.93943982822011" x2="11.2991381056767" y2="9.2501"/>
    <line x1="11.2991381056767" y1="9.2501" x2="11.4489887394336" y2="9.61187143234619"/>
    <line x1="11.4489887394336" y1="9.61187143234619" x2="11.5001" y2="10.0001"/>
    <line x1="11.5001" y1="10.0001" x2="11.4489887394336" y2="10.3883285676537"/>
    <line x1="11.4489887394336" y1="10.3883285676537" x2="11.2991381056767" y2="10.7501"/>
  </g>
</svg>
