<?xml version="1.0" standalone="no"?>
<!DOCTYPE svg PUBLIC "-//W3C//DTD SVG 1.1//EN" "http://www.w3.org/Graphics/SVG/1.1/DTD/svg11.dtd">
<svg width="91.0002mm" height="50.0002mm"
 viewBox="0 0 91.0002 50.0002"
 xmlns="http://www.w3.org/2000/svg" version="1.1"
 xmlns:xlink="http://www.w3.org/1999/xlink">
<desc>Output from Flights of Ideas SVG Sketchup Plugin</desc>

  <g id="face0" fill="none" stroke="rgb(0,0,255)" stroke-width="1" stroke-miterlimit="4" stroke-dasharray="none" stroke-linejoin="round" stroke-linecap="round">
    <line x1="88.0001" y1="50.0001" x2="88.0001" y2="26.0001000000001"/>
    <line x1="88.0001" y1="26.0001000000001" x2="86.0001" y2="26.0001000000001"/>
    <line x1="86.0001" y1="26.0001000000001" x2="86.0001" y2="27.3001"/>
    <line x1="86.0001" y1="27.3001" x2="83.8001" y2="27.3001"/>
    <line x1="83.8001" y1="27.3001" x2="83.8001" y2="26.0001000000001"/>
    <line x1="83.8001" y1="26.0001000000001" x2="80.8001" y2="26.0001"/>
    <line x1="80.8001" y1="26.0001" x2="80.8001" y2="23.0001"/>
    <line x1="80.8001" y1="23.0001" x2="83.8001" y2="23.0001"/>
    <line x1="83.8001" y1="23.0001" x2="83.8001" y2="21.7001"/>
    <line x1="83.8001" y1="21.7001" x2="86.0001" y2="21.7001"/>
    <line x1="86.0001" y1="21.7001" x2="86.0001" y2="23.0001"/>
    <line x1="86.0001" y1="23.0001" x2="88.0001" y2="23.0001"/>
    <line x1="88.0001" y1="23.0001" x2="88.0001" y2="18.0001"/>
    <line x1="88.0001" y1="18.0001" x2="91.0001" y2="18.0001"/>
    <line x1="91.0001" y1="18.0001" x2="91.0001" y2="8.0001"/>
    <line x1="91.0001" y1="8.0001" x2="88.0001" y2="8.0001"/>
    <line x1="88.0001" y1="8.0001" x2="88.0001" y2="3.00010000000006"/>
    <line x1="88.0001" y1="3.00010000000006" x2="79.5001" y2="3.00010000000006"/>
    <line x1="79.5001" y1="3.00010000000006" x2="79.5001" y2="5.0001"/>
    <line x1="79.5001" y1="5.0001" x2="80.8001" y2="5.0001"/>
    <line x1="80.8001" y1="5.0001" x2="80.8001" y2="7.20010000000005"/>
    <line x1="80.8001" y1="7.20010000000005" x2="79.5001" y2="7.20010000000005"/>
    <line x1="79.5001" y1="7.20010000000005" x2="79.5001" y2="10.2001"/>
    <line x1="79.5001" y1="10.2001" x2="76.5001" y2="10.2001"/>
    <line x1="76.5001" y1="10.2001" x2="76.5001" y2="7.20010000000005"/>
    <line x1="76.5001" y1="7.20010000000005" x2="75.2001" y2="7.20010000000005"/>
    <line x1="75.2001" y1="7.20010000000005" x2="75.2001" y2="5.0001"/>
    <line x1="75.2001" y1="5.0001" x2="76.5001" y2="5.0001"/>
    <line x1="76.5001" y1="5.0001" x2="76.5001" y2="3.00010000000006"/>
    <line x1="76.5001" y1="3.00010000000006" x2="68.0001" y2="3.0001"/>
    <line x1="68.0001" y1="3.0001" x2="68.0001" y2="0.0001"/>
    <line x1="68.0001" y1="0.0001" x2="23.0001" y2="0.000100000000056843"/>
    <line x1="23.0001" y1="0.000100000000056843" x2="23.0001" y2="3.00010000000006"/>
    <line x1="23.0001" y1="3.00010000000006" x2="14.5001" y2="3.00010000000006"/>
    <line x1="14.5001" y1="3.00010000000006" x2="14.5001" y2="5.0001"/>
    <line x1="14.5001" y1="5.0001" x2="15.8001" y2="5.0001"/>
    <line x1="15.8001" y1="5.0001" x2="15.8001" y2="7.20010000000005"/>
    <line x1="15.8001" y1="7.20010000000005" x2="14.5001" y2="7.20010000000005"/>
    <line x1="14.5001" y1="7.20010000000005" x2="14.5001" y2="10.2001"/>
    <line x1="14.5001" y1="10.2001" x2="11.5001" y2="10.2001"/>
    <line x1="11.5001" y1="10.2001" x2="11.5001" y2="7.20009999999999"/>
    <line x1="11.5001" y1="7.20009999999999" x2="10.2001" y2="7.20010000000005"/>
    <line x1="10.2001" y1="7.20010000000005" x2="10.2001" y2="5.0001"/>
    <line x1="10.2001" y1="5.0001" x2="11.5001" y2="5.0001"/>
    <line x1="11.5001" y1="5.0001" x2="11.5001" y2="3.00010000000006"/>
    <line x1="11.5001" y1="3.00010000000006" x2="3.00010000000001" y2="3.00010000000006"/>
    <line x1="3.00010000000001" y1="3.00010000000006" x2="3.00009999999999" y2="8.0001"/>
    <line x1="3.00009999999999" y1="8.0001" x2="0.0001" y2="8.0001"/>
    <line x1="0.0001" y1="8.0001" x2="0.000100000000010658" y2="18.0001"/>
    <line x1="0.000100000000010658" y1="18.0001" x2="3.00010000000001" y2="18.0001"/>
    <line x1="3.00010000000001" y1="18.0001" x2="3.00010000000002" y2="23.0001"/>
    <line x1="3.00010000000002" y1="23.0001" x2="5.0001" y2="23.0001"/>
    <line x1="5.0001" y1="23.0001" x2="5.00010000000001" y2="21.7001"/>
    <line x1="5.00010000000001" y1="21.7001" x2="7.2001" y2="21.7001"/>
    <line x1="7.2001" y1="21.7001" x2="7.2001" y2="23.0001000000001"/>
    <line x1="7.2001" y1="23.0001000000001" x2="10.2001" y2="23.0001000000001"/>
    <line x1="10.2001" y1="23.0001000000001" x2="10.2001" y2="26.0001"/>
    <line x1="10.2001" y1="26.0001" x2="7.2001" y2="26.0001"/>
    <line x1="7.2001" y1="26.0001" x2="7.2001" y2="27.3001"/>
    <line x1="7.2001" y1="27.3001" x2="5.0001" y2="27.3001"/>
    <line x1="5.0001" y1="27.3001" x2="5.0001" y2="26.0001"/>
    <line x1="5.0001" y1="26.0001" x2="3.00009999999999" y2="26.0001000000001"/>
    <line x1="3.00009999999999" y1="26.0001000000001" x2="3.00010000000001" y2="50.0001"/>
    <line x1="3.00010000000001" y1="50.0001" x2="88.0001" y2="50.0001"/>
    <line x1="58.0001" y1="37.0001" x2="58.0001" y2="34.0001"/>
    <line x1="58.0001" y1="34.0001" x2="78.0001" y2="34.0001"/>
    <line x1="78.0001" y1="34.0001" x2="78.0001" y2="37.0001"/>
    <line x1="78.0001" y1="37.0001" x2="58.0001" y2="37.0001"/>
    <line x1="13.0001" y1="37.0001" x2="13.0001" y2="34.0001"/>
    <line x1="13.0001" y1="34.0001" x2="33.0001" y2="34.0001"/>
    <line x1="33.0001" y1="34.0001" x2="33.0001" y2="37.0000999999999"/>
    <line x1="33.0001" y1="37.0000999999999" x2="13.0001" y2="37.0001"/>
    <line x1="44.0512112605664" y1="35.8883285676538" x2="44.0001" y2="35.5001"/>
    <line x1="44.0001" y1="35.5001" x2="44.0512112605664" y2="35.1118714323462"/>
    <line x1="44.0512112605664" y1="35.1118714323462" x2="44.2010618943234" y2="34.7501"/>
    <line x1="44.2010618943234" y1="34.7501" x2="44.4394398282202" y2="34.4394398282202"/>
    <line x1="44.4394398282202" y1="34.4394398282202" x2="44.7501" y2="34.2010618943233"/>
    <line x1="44.7501" y1="34.2010618943233" x2="45.1118714323462" y2="34.0512112605664"/>
    <line x1="45.1118714323462" y1="34.0512112605664" x2="45.5001" y2="34.0001"/>
    <line x1="45.5001" y1="34.0001" x2="45.8883285676538" y2="34.0512112605664"/>
    <line x1="45.8883285676538" y1="34.0512112605664" x2="46.2501" y2="34.2010618943234"/>
    <line x1="46.2501" y1="34.2010618943234" x2="46.5607601717798" y2="34.4394398282202"/>
    <line x1="46.5607601717798" y1="34.4394398282202" x2="46.7991381056767" y2="34.7501"/>
    <line x1="46.7991381056767" y1="34.7501" x2="46.9489887394336" y2="35.1118714323462"/>
    <line x1="46.9489887394336" y1="35.1118714323462" x2="47.0001" y2="35.5001"/>
    <line x1="47.0001" y1="35.5001" x2="46.9489887394336" y2="35.8883285676538"/>
    <line x1="46.9489887394336" y1="35.8883285676538" x2="46.7991381056767" y2="36.2501"/>
    <line x1="46.7991381056767" y1="36.2501" x2="46.5607601717798" y2="36.5607601717798"/>
    <line x1="46.5607601717798" y1="36.5607601717798" x2="46.2501" y2="36.7991381056767"/>
    <line x1="46.2501" y1="36.7991381056767" x2="45.8883285676538" y2="36.9489887394336"/>
    <line x1="45.8883285676538" y1="36.9489887394336" x2="45.5001" y2="37.0001"/>
    <line x1="45.5001" y1="37.0001" x2="45.1118714323462" y2="36.9489887394336"/>
    <line x1="45.1118714323462" y1="36.9489887394336" x2="44.7501" y2="36.7991381056767"/>
    <line x1="44.7501" y1="36.7991381056767" x2="44.4394398282202" y2="36.5607601717798"/>
    <line x1="44.4394398282202" y1="36.5607601717798" x2="44.2010618943234" y2="36.2501"/>
    <line x1="44.2010618943234" y1="36.2501" x2="44.0512112605664" y2="35.8883285676538"/>
    <line x1="33.0001" y1="29.0001" x2="33.0001" y2="32.0001"/>
    <line x1="33.0001" y1="32.0001" x2="13.0001" y2="32.0001"/>
    <line x1="13.0001" y1="32.0001" x2="13.0001" y2="29.0001"/>
    <line x1="13.0001" y1="29.0001" x2="33.0001" y2="29.0001"/>
    <line x1="78.0001" y1="32.0001" x2="58.0001" y2="32.0001"/>
    <line x1="58.0001" y1="32.0001" x2="58.0001" y2="29.0001"/>
    <line x1="58.0001" y1="29.0001" x2="78.0001" y2="29.0001"/>
    <line x1="78.0001" y1="29.0001" x2="78.0001" y2="32.0001"/>
    <line x1="44.0512112605664" y1="30.8883285676538" x2="44.0001" y2="30.5001"/>
    <line x1="44.0001" y1="30.5001" x2="44.0512112605664" y2="30.1118714323462"/>
    <line x1="44.0512112605664" y1="30.1118714323462" x2="44.2010618943234" y2="29.7501"/>
    <line x1="44.2010618943234" y1="29.7501" x2="44.4394398282202" y2="29.4394398282202"/>
    <line x1="44.4394398282202" y1="29.4394398282202" x2="44.7501" y2="29.2010618943233"/>
    <line x1="44.7501" y1="29.2010618943233" x2="45.1118714323462" y2="29.0512112605664"/>
    <line x1="45.1118714323462" y1="29.0512112605664" x2="45.5001" y2="29.0001"/>
    <line x1="45.5001" y1="29.0001" x2="45.8883285676538" y2="29.0512112605664"/>
    <line x1="45.8883285676538" y1="29.0512112605664" x2="46.2501" y2="29.2010618943234"/>
    <line x1="46.2501" y1="29.2010618943234" x2="46.5607601717798" y2="29.4394398282202"/>
    <line x1="46.5607601717798" y1="29.4394398282202" x2="46.7991381056767" y2="29.7501"/>
    <line x1="46.7991381056767" y1="29.7501" x2="46.9489887394336" y2="30.1118714323462"/>
    <line x1="46.9489887394336" y1="30.1118714323462" x2="47.0001" y2="30.5001"/>
    <line x1="47.0001" y1="30.5001" x2="46.9489887394336" y2="30.8883285676538"/>
    <line x1="46.9489887394336" y1="30.8883285676538" x2="46.7991381056767" y2="31.2501"/>
    <line x1="46.7991381056767" y1="31.2501" x2="46.5607601717798" y2="31.5607601717798"/>
    <line x1="46.5607601717798" y1="31.5607601717798" x2="46.2501" y2="31.7991381056767"/>
    <line x1="46.2501" y1="31.7991381056767" x2="45.8883285676538" y2="31.9489887394336"/>
    <line x1="45.8883285676538" y1="31.9489887394336" x2="45.5001" y2="32.0001"/>
    <line x1="45.5001" y1="32.0001" x2="45.1118714323462" y2="31.9489887394336"/>
    <line x1="45.1118714323462" y1="31.9489887394336" x2="44.7501" y2="31.7991381056766"/>
    <line x1="44.7501" y1="31.7991381056766" x2="44.4394398282202" y2="31.5607601717798"/>
    <line x1="44.4394398282202" y1="31.5607601717798" x2="44.2010618943234" y2="31.2501"/>
    <line x1="44.2010618943234" y1="31.2501" x2="44.0512112605664" y2="30.8883285676538"/>
    <line x1="13.0001" y1="39.0001" x2="33.0001" y2="39.0001"/>
    <line x1="33.0001" y1="39.0001" x2="33.0001" y2="42.0001"/>
    <line x1="33.0001" y1="42.0001" x2="13.0001" y2="42.0000999999999"/>
    <line x1="13.0001" y1="42.0000999999999" x2="13.0001" y2="39.0001"/>
    <line x1="58.0001" y1="42.0001" x2="58.0001" y2="39.0001"/>
    <line x1="58.0001" y1="39.0001" x2="78.0001" y2="39.0001"/>
    <line x1="78.0001" y1="39.0001" x2="78.0001" y2="42.0001"/>
    <line x1="78.0001" y1="42.0001" x2="58.0001" y2="42.0001"/>
    <line x1="44.0512112605664" y1="40.8883285676538" x2="44.0001" y2="40.5001"/>
    <line x1="44.0001" y1="40.5001" x2="44.0512112605664" y2="40.1118714323462"/>
    <line x1="44.0512112605664" y1="40.1118714323462" x2="44.2010618943234" y2="39.7501"/>
    <line x1="44.2010618943234" y1="39.7501" x2="44.4394398282202" y2="39.4394398282202"/>
    <line x1="44.4394398282202" y1="39.4394398282202" x2="44.7501" y2="39.2010618943234"/>
    <line x1="44.7501" y1="39.2010618943234" x2="45.1118714323462" y2="39.0512112605664"/>
    <line x1="45.1118714323462" y1="39.0512112605664" x2="45.5001" y2="39.0001"/>
    <line x1="45.5001" y1="39.0001" x2="45.8883285676538" y2="39.0512112605664"/>
    <line x1="45.8883285676538" y1="39.0512112605664" x2="46.2501" y2="39.2010618943234"/>
    <line x1="46.2501" y1="39.2010618943234" x2="46.5607601717798" y2="39.4394398282202"/>
    <line x1="46.5607601717798" y1="39.4394398282202" x2="46.7991381056767" y2="39.7501"/>
    <line x1="46.7991381056767" y1="39.7501" x2="46.9489887394336" y2="40.1118714323462"/>
    <line x1="46.9489887394336" y1="40.1118714323462" x2="47.0001" y2="40.5001"/>
    <line x1="47.0001" y1="40.5001" x2="46.9489887394336" y2="40.8883285676538"/>
    <line x1="46.9489887394336" y1="40.8883285676538" x2="46.7991381056767" y2="41.2501"/>
    <line x1="46.7991381056767" y1="41.2501" x2="46.5607601717798" y2="41.5607601717799"/>
    <line x1="46.5607601717798" y1="41.5607601717799" x2="46.2501" y2="41.7991381056766"/>
    <line x1="46.2501" y1="41.7991381056766" x2="45.8883285676538" y2="41.9489887394336"/>
    <line x1="45.8883285676538" y1="41.9489887394336" x2="45.5001" y2="42.0001"/>
    <line x1="45.5001" y1="42.0001" x2="45.1118714323462" y2="41.9489887394336"/>
    <line x1="45.1118714323462" y1="41.9489887394336" x2="44.7501" y2="41.7991381056766"/>
    <line x1="44.7501" y1="41.7991381056766" x2="44.4394398282202" y2="41.5607601717799"/>
    <line x1="44.4394398282202" y1="41.5607601717799" x2="44.2010618943234" y2="41.2501000000001"/>
    <line x1="44.2010618943234" y1="41.2501000000001" x2="44.0512112605664" y2="40.8883285676538"/>
  </g>
</svg>
