<?xml version="1.0" standalone="no"?>
<!DOCTYPE svg PUBLIC "-//W3C//DTD SVG 1.1//EN" "http://www.w3.org/Graphics/SVG/1.1/DTD/svg11.dtd">
<svg width="117.0mm" height="94.4mm"
 viewBox="0 0 117.0 94.4"
 xmlns="http://www.w3.org/2000/svg" version="1.1"
 xmlns:xlink="http://www.w3.org/1999/xlink">
<desc>Output from Flights of Ideas SVG Sketchup Plugin</desc>

  <g id="face0" fill="none" stroke="rgb(0,0,255)" stroke-width="1" stroke-miterlimit="4" stroke-dasharray="none" stroke-linejoin="round" stroke-linecap="round">
    <line x1="107.0" y1="84.4" x2="107.0" y2="14.0"/>
    <line x1="107.0" y1="14.0" x2="105.0" y2="14.0"/>
    <line x1="105.0" y1="14.0" x2="105.0" y2="13.0"/>
    <line x1="105.0" y1="13.0" x2="107.0" y2="13.0"/>
    <line x1="107.0" y1="13.0" x2="107.0" y2="10.0"/>
    <line x1="107.0" y1="10.0" x2="10.0" y2="10.0"/>
    <line x1="10.0" y1="10.0" x2="10.0" y2="13.0"/>
    <line x1="10.0" y1="13.0" x2="12.0" y2="13.0"/>
    <line x1="12.0" y1="13.0" x2="12.0" y2="14.0"/>
    <line x1="12.0" y1="14.0" x2="10.0" y2="14.0"/>
    <line x1="10.0" y1="14.0" x2="10.0" y2="84.4"/>
    <line x1="10.0" y1="84.4" x2="107.0" y2="84.4"/>
    <line x1="36.4488887394336" y1="14.1117714323462" x2="36.5" y2="14.5"/>
    <line x1="36.5" y1="14.5" x2="36.4488887394336" y2="14.8882285676538"/>
    <line x1="36.4488887394336" y1="14.8882285676538" x2="36.2990381056766" y2="15.25"/>
    <line x1="36.2990381056766" y1="15.25" x2="36.0606601717798" y2="15.5606601717798"/>
    <line x1="36.0606601717798" y1="15.5606601717798" x2="35.75" y2="15.7990381056767"/>
    <line x1="35.75" y1="15.7990381056767" x2="35.3882285676538" y2="15.9488887394336"/>
    <line x1="35.3882285676538" y1="15.9488887394336" x2="35.0" y2="16.0"/>
    <line x1="35.0" y1="16.0" x2="34.6117714323462" y2="15.9488887394336"/>
    <line x1="34.6117714323462" y1="15.9488887394336" x2="34.25" y2="15.7990381056766"/>
    <line x1="34.25" y1="15.7990381056766" x2="33.9393398282202" y2="15.5606601717798"/>
    <line x1="33.9393398282202" y1="15.5606601717798" x2="33.7009618943233" y2="15.25"/>
    <line x1="33.7009618943233" y1="15.25" x2="33.5511112605664" y2="14.8882285676538"/>
    <line x1="33.5511112605664" y1="14.8882285676538" x2="33.5" y2="14.5"/>
    <line x1="33.5" y1="14.5" x2="33.5511112605664" y2="14.1117714323462"/>
    <line x1="33.5511112605664" y1="14.1117714323462" x2="33.7009618943233" y2="13.7499999999999"/>
    <line x1="33.7009618943233" y1="13.7499999999999" x2="33.9393398282201" y2="13.4393398282202"/>
    <line x1="33.9393398282201" y1="13.4393398282202" x2="34.25" y2="13.2009618943233"/>
    <line x1="34.25" y1="13.2009618943233" x2="34.6117714323462" y2="13.0511112605664"/>
    <line x1="34.6117714323462" y1="13.0511112605664" x2="35.0" y2="13.0"/>
    <line x1="35.0" y1="13.0" x2="35.3882285676538" y2="13.0511112605664"/>
    <line x1="35.3882285676538" y1="13.0511112605664" x2="35.75" y2="13.2009618943233"/>
    <line x1="35.75" y1="13.2009618943233" x2="36.0606601717798" y2="13.4393398282202"/>
    <line x1="36.0606601717798" y1="13.4393398282202" x2="36.2990381056766" y2="13.75"/>
    <line x1="36.2990381056766" y1="13.75" x2="36.4488887394336" y2="14.1117714323462"/>
    <line x1="80.5511112605664" y1="14.8882285676538" x2="80.5" y2="14.5"/>
    <line x1="80.5" y1="14.5" x2="80.5511112605664" y2="14.1117714323462"/>
    <line x1="80.5511112605664" y1="14.1117714323462" x2="80.7009618943233" y2="13.7499999999999"/>
    <line x1="80.7009618943233" y1="13.7499999999999" x2="80.9393398282202" y2="13.4393398282202"/>
    <line x1="80.9393398282202" y1="13.4393398282202" x2="81.25" y2="13.2009618943233"/>
    <line x1="81.25" y1="13.2009618943233" x2="81.6117714323463" y2="13.0511112605664"/>
    <line x1="81.6117714323463" y1="13.0511112605664" x2="82.0" y2="13.0"/>
    <line x1="82.0" y1="13.0" x2="82.3882285676538" y2="13.0511112605664"/>
    <line x1="82.3882285676538" y1="13.0511112605664" x2="82.75" y2="13.2009618943233"/>
    <line x1="82.75" y1="13.2009618943233" x2="83.0606601717798" y2="13.4393398282202"/>
    <line x1="83.0606601717798" y1="13.4393398282202" x2="83.2990381056766" y2="13.7499999999999"/>
    <line x1="83.2990381056766" y1="13.7499999999999" x2="83.4488887394336" y2="14.1117714323462"/>
    <line x1="83.4488887394336" y1="14.1117714323462" x2="83.5" y2="14.5"/>
    <line x1="83.5" y1="14.5" x2="83.4488887394336" y2="14.8882285676538"/>
    <line x1="83.4488887394336" y1="14.8882285676538" x2="83.2990381056766" y2="15.25"/>
    <line x1="83.2990381056766" y1="15.25" x2="83.0606601717798" y2="15.5606601717798"/>
    <line x1="83.0606601717798" y1="15.5606601717798" x2="82.75" y2="15.7990381056766"/>
    <line x1="82.75" y1="15.7990381056766" x2="82.3882285676538" y2="15.9488887394336"/>
    <line x1="82.3882285676538" y1="15.9488887394336" x2="82.0" y2="16.0"/>
    <line x1="82.0" y1="16.0" x2="81.6117714323463" y2="15.9488887394336"/>
    <line x1="81.6117714323463" y1="15.9488887394336" x2="81.25" y2="15.7990381056766"/>
    <line x1="81.25" y1="15.7990381056766" x2="80.9393398282202" y2="15.5606601717798"/>
    <line x1="80.9393398282202" y1="15.5606601717798" x2="80.7009618943234" y2="15.25"/>
    <line x1="80.7009618943234" y1="15.25" x2="80.5511112605664" y2="14.8882285676538"/>
    <line x1="45.0" y1="16.0" x2="45.0" y2="13.0"/>
    <line x1="45.0" y1="13.0" x2="72.0" y2="13.0"/>
    <line x1="72.0" y1="13.0" x2="72.0" y2="16.0"/>
    <line x1="72.0" y1="16.0" x2="45.0" y2="16.0"/>
    <line x1="81.0" y1="81.4" x2="36.0" y2="81.4000000000001"/>
    <line x1="36.0" y1="81.4000000000001" x2="36.0" y2="78.4"/>
    <line x1="36.0" y1="78.4" x2="81.0" y2="78.4"/>
    <line x1="81.0" y1="78.4" x2="81.0" y2="81.4"/>
    <line x1="89.5511112605664" y1="80.2882285676538" x2="89.5" y2="79.9"/>
    <line x1="89.5" y1="79.9" x2="89.5511112605664" y2="79.5117714323463"/>
    <line x1="89.5511112605664" y1="79.5117714323463" x2="89.7009618943233" y2="79.15"/>
    <line x1="89.7009618943233" y1="79.15" x2="89.9393398282202" y2="78.8393398282202"/>
    <line x1="89.9393398282202" y1="78.8393398282202" x2="90.25" y2="78.6009618943234"/>
    <line x1="90.25" y1="78.6009618943234" x2="90.6117714323462" y2="78.4511112605664"/>
    <line x1="90.6117714323462" y1="78.4511112605664" x2="91.0" y2="78.4"/>
    <line x1="91.0" y1="78.4" x2="91.3882285676538" y2="78.4511112605664"/>
    <line x1="91.3882285676538" y1="78.4511112605664" x2="91.75" y2="78.6009618943234"/>
    <line x1="91.75" y1="78.6009618943234" x2="92.0606601717798" y2="78.8393398282202"/>
    <line x1="92.0606601717798" y1="78.8393398282202" x2="92.2990381056767" y2="79.15"/>
    <line x1="92.2990381056767" y1="79.15" x2="92.4488887394336" y2="79.5117714323463"/>
    <line x1="92.4488887394336" y1="79.5117714323463" x2="92.5" y2="79.9"/>
    <line x1="92.5" y1="79.9" x2="92.4488887394336" y2="80.2882285676538"/>
    <line x1="92.4488887394336" y1="80.2882285676538" x2="92.2990381056767" y2="80.65"/>
    <line x1="92.2990381056767" y1="80.65" x2="92.0606601717798" y2="80.9606601717798"/>
    <line x1="92.0606601717798" y1="80.9606601717798" x2="91.75" y2="81.1990381056766"/>
    <line x1="91.75" y1="81.1990381056766" x2="91.3882285676538" y2="81.3488887394336"/>
    <line x1="91.3882285676538" y1="81.3488887394336" x2="91.0" y2="81.4"/>
    <line x1="91.0" y1="81.4" x2="90.6117714323462" y2="81.3488887394336"/>
    <line x1="90.6117714323462" y1="81.3488887394336" x2="90.25" y2="81.1990381056766"/>
    <line x1="90.25" y1="81.1990381056766" x2="89.9393398282202" y2="80.9606601717798"/>
    <line x1="89.9393398282202" y1="80.9606601717798" x2="89.7009618943233" y2="80.65"/>
    <line x1="89.7009618943233" y1="80.65" x2="89.5511112605664" y2="80.2882285676538"/>
    <line x1="27.4488887394336" y1="79.511771432346" x2="27.5" y2="79.8999999999998"/>
    <line x1="27.5" y1="79.8999999999998" x2="27.4488887394336" y2="80.2882285676539"/>
    <line x1="27.4488887394336" y1="80.2882285676539" x2="27.2990381056767" y2="80.6499999999998"/>
    <line x1="27.2990381056767" y1="80.6499999999998" x2="27.0606601717798" y2="80.9606601717801"/>
    <line x1="27.0606601717798" y1="80.9606601717801" x2="26.75" y2="81.1990381056767"/>
    <line x1="26.75" y1="81.1990381056767" x2="26.3882285676538" y2="81.3488887394335"/>
    <line x1="26.3882285676538" y1="81.3488887394335" x2="26.0" y2="81.3999999999998"/>
    <line x1="26.0" y1="81.3999999999998" x2="25.6117714323462" y2="81.3488887394336"/>
    <line x1="25.6117714323462" y1="81.3488887394336" x2="25.25" y2="81.1990381056766"/>
    <line x1="25.25" y1="81.1990381056766" x2="24.9393398282202" y2="80.9606601717802"/>
    <line x1="24.9393398282202" y1="80.9606601717802" x2="24.7009618943234" y2="80.6500000000001"/>
    <line x1="24.7009618943234" y1="80.6500000000001" x2="24.5511112605664" y2="80.2882285676538"/>
    <line x1="24.5511112605664" y1="80.2882285676538" x2="24.5" y2="79.9"/>
    <line x1="24.5" y1="79.9" x2="24.5511112605664" y2="79.5117714323463"/>
    <line x1="24.5511112605664" y1="79.5117714323463" x2="24.7009618943234" y2="79.1500000000001"/>
    <line x1="24.7009618943234" y1="79.1500000000001" x2="24.9393398282202" y2="78.8393398282202"/>
    <line x1="24.9393398282202" y1="78.8393398282202" x2="25.25" y2="78.6009618943234"/>
    <line x1="25.25" y1="78.6009618943234" x2="25.6117714323462" y2="78.4511112605663"/>
    <line x1="25.6117714323462" y1="78.4511112605663" x2="26.0" y2="78.3999999999999"/>
    <line x1="26.0" y1="78.3999999999999" x2="26.3882285676538" y2="78.4511112605665"/>
    <line x1="26.3882285676538" y1="78.4511112605665" x2="26.75" y2="78.6009618943235"/>
    <line x1="26.75" y1="78.6009618943235" x2="27.0606601717798" y2="78.8393398282202"/>
    <line x1="27.0606601717798" y1="78.8393398282202" x2="27.2990381056767" y2="79.1499999999999"/>
    <line x1="27.2990381056767" y1="79.1499999999999" x2="27.4488887394336" y2="79.511771432346"/>
    <line x1="16.0" y1="74.3999999999999" x2="13.0" y2="74.3999999999999"/>
    <line x1="13.0" y1="74.3999999999999" x2="13.0" y2="51.3999999999999"/>
    <line x1="13.0" y1="51.3999999999999" x2="16.0" y2="51.3999999999999"/>
    <line x1="16.0" y1="51.3999999999999" x2="16.0" y2="74.3999999999999"/>
    <line x1="14.8882285676538" y1="42.8488887394336" x2="14.5" y2="42.9"/>
    <line x1="14.5" y1="42.9" x2="14.1117714323462" y2="42.8488887394336"/>
    <line x1="14.1117714323462" y1="42.8488887394336" x2="13.75" y2="42.6990381056766"/>
    <line x1="13.75" y1="42.6990381056766" x2="13.4393398282202" y2="42.4606601717798"/>
    <line x1="13.4393398282202" y1="42.4606601717798" x2="13.2009618943234" y2="42.15"/>
    <line x1="13.2009618943234" y1="42.15" x2="13.0511112605664" y2="41.7882285676538"/>
    <line x1="13.0511112605664" y1="41.7882285676538" x2="13.0" y2="41.4"/>
    <line x1="13.0" y1="41.4" x2="13.0511112605664" y2="41.0117714323463"/>
    <line x1="13.0511112605664" y1="41.0117714323463" x2="13.2009618943234" y2="40.6499999999999"/>
    <line x1="13.2009618943234" y1="40.6499999999999" x2="13.4393398282202" y2="40.3393398282202"/>
    <line x1="13.4393398282202" y1="40.3393398282202" x2="13.75" y2="40.1009618943233"/>
    <line x1="13.75" y1="40.1009618943233" x2="14.1117714323462" y2="39.9511112605664"/>
    <line x1="14.1117714323462" y1="39.9511112605664" x2="14.5" y2="39.9"/>
    <line x1="14.5" y1="39.9" x2="14.8882285676538" y2="39.9511112605664"/>
    <line x1="14.8882285676538" y1="39.9511112605664" x2="15.25" y2="40.1009618943233"/>
    <line x1="15.25" y1="40.1009618943233" x2="15.5606601717798" y2="40.3393398282201"/>
    <line x1="15.5606601717798" y1="40.3393398282201" x2="15.7990381056766" y2="40.65"/>
    <line x1="15.7990381056766" y1="40.65" x2="15.9488887394336" y2="41.0117714323463"/>
    <line x1="15.9488887394336" y1="41.0117714323463" x2="16.0" y2="41.4"/>
    <line x1="16.0" y1="41.4" x2="15.9488887394336" y2="41.7882285676538"/>
    <line x1="15.9488887394336" y1="41.7882285676538" x2="15.7990381056767" y2="42.15"/>
    <line x1="15.7990381056767" y1="42.15" x2="15.5606601717798" y2="42.4606601717798"/>
    <line x1="15.5606601717798" y1="42.4606601717798" x2="15.25" y2="42.6990381056766"/>
    <line x1="15.25" y1="42.6990381056766" x2="14.8882285676538" y2="42.8488887394336"/>
    <line x1="104.0" y1="74.3999999999999" x2="101.0" y2="74.3999999999999"/>
    <line x1="101.0" y1="74.3999999999999" x2="101.0" y2="51.4"/>
    <line x1="101.0" y1="51.4" x2="104.0" y2="51.4"/>
    <line x1="104.0" y1="51.4" x2="104.0" y2="74.3999999999999"/>
    <line x1="102.888228567654" y1="42.8488887394336" x2="102.5" y2="42.9"/>
    <line x1="102.5" y1="42.9" x2="102.111771432346" y2="42.8488887394336"/>
    <line x1="102.111771432346" y1="42.8488887394336" x2="101.75" y2="42.6990381056766"/>
    <line x1="101.75" y1="42.6990381056766" x2="101.43933982822" y2="42.4606601717798"/>
    <line x1="101.43933982822" y1="42.4606601717798" x2="101.200961894323" y2="42.1500000000001"/>
    <line x1="101.200961894323" y1="42.1500000000001" x2="101.051111260566" y2="41.7882285676538"/>
    <line x1="101.051111260566" y1="41.7882285676538" x2="101.0" y2="41.4"/>
    <line x1="101.0" y1="41.4" x2="101.051111260566" y2="41.0117714323463"/>
    <line x1="101.051111260566" y1="41.0117714323463" x2="101.200961894323" y2="40.65"/>
    <line x1="101.200961894323" y1="40.65" x2="101.43933982822" y2="40.3393398282202"/>
    <line x1="101.43933982822" y1="40.3393398282202" x2="101.75" y2="40.1009618943234"/>
    <line x1="101.75" y1="40.1009618943234" x2="102.111771432346" y2="39.9511112605664"/>
    <line x1="102.111771432346" y1="39.9511112605664" x2="102.5" y2="39.9"/>
    <line x1="102.5" y1="39.9" x2="102.888228567654" y2="39.9511112605664"/>
    <line x1="102.888228567654" y1="39.9511112605664" x2="103.25" y2="40.1009618943234"/>
    <line x1="103.25" y1="40.1009618943234" x2="103.56066017178" y2="40.3393398282202"/>
    <line x1="103.56066017178" y1="40.3393398282202" x2="103.799038105677" y2="40.65"/>
    <line x1="103.799038105677" y1="40.65" x2="103.948888739434" y2="41.0117714323463"/>
    <line x1="103.948888739434" y1="41.0117714323463" x2="104.0" y2="41.4"/>
    <line x1="104.0" y1="41.4" x2="103.948888739434" y2="41.7882285676538"/>
    <line x1="103.948888739434" y1="41.7882285676538" x2="103.799038105677" y2="42.15"/>
    <line x1="103.799038105677" y1="42.15" x2="103.56066017178" y2="42.4606601717798"/>
    <line x1="103.56066017178" y1="42.4606601717798" x2="103.25" y2="42.6990381056766"/>
    <line x1="103.25" y1="42.6990381056766" x2="102.888228567654" y2="42.8488887394336"/>
    <line x1="94.5" y1="20.9999999999999" x2="94.4488887394336" y2="21.3882285676537"/>
    <line x1="94.4488887394336" y1="21.3882285676537" x2="94.2990381056767" y2="21.7499999999999"/>
    <line x1="94.2990381056767" y1="21.7499999999999" x2="94.0606601717799" y2="22.0606601717798"/>
    <line x1="94.0606601717799" y1="22.0606601717798" x2="93.7500000000001" y2="22.2990381056766"/>
    <line x1="93.7500000000001" y1="22.2990381056766" x2="93.3882285676538" y2="22.4488887394336"/>
    <line x1="93.3882285676538" y1="22.4488887394336" x2="93.0" y2="22.4999999999999"/>
    <line x1="93.0" y1="22.4999999999999" x2="92.6117714323463" y2="22.4488887394336"/>
    <line x1="92.6117714323463" y1="22.4488887394336" x2="92.25" y2="22.2990381056766"/>
    <line x1="92.25" y1="22.2990381056766" x2="91.9393398282202" y2="22.0606601717798"/>
    <line x1="91.9393398282202" y1="22.0606601717798" x2="91.7009618943234" y2="21.7499999999999"/>
    <line x1="91.7009618943234" y1="21.7499999999999" x2="91.5511112605664" y2="21.3882285676537"/>
    <line x1="91.5511112605664" y1="21.3882285676537" x2="91.5000000000001" y2="21.0"/>
    <line x1="91.5000000000001" y1="21.0" x2="91.5511112605664" y2="20.6117714323462"/>
    <line x1="91.5511112605664" y1="20.6117714323462" x2="91.7009618943234" y2="20.25"/>
    <line x1="91.7009618943234" y1="20.25" x2="91.9393398282202" y2="19.9393398282201"/>
    <line x1="91.9393398282202" y1="19.9393398282201" x2="92.25" y2="19.7009618943233"/>
    <line x1="92.25" y1="19.7009618943233" x2="92.6117714323463" y2="19.5511112605664"/>
    <line x1="92.6117714323463" y1="19.5511112605664" x2="93.0000000000001" y2="19.4999999999999"/>
    <line x1="93.0000000000001" y1="19.4999999999999" x2="93.3882285676538" y2="19.5511112605663"/>
    <line x1="93.3882285676538" y1="19.5511112605663" x2="93.7500000000001" y2="19.7009618943233"/>
    <line x1="93.7500000000001" y1="19.7009618943233" x2="94.0606601717799" y2="19.9393398282201"/>
    <line x1="94.0606601717799" y1="19.9393398282201" x2="94.2990381056767" y2="20.25"/>
    <line x1="94.2990381056767" y1="20.25" x2="94.4488887394336" y2="20.6117714323462"/>
    <line x1="94.4488887394336" y1="20.6117714323462" x2="94.5" y2="20.9999999999999"/>
    <line x1="91.5511112605665" y1="65.0117714323463" x2="91.7009618943234" y2="64.6500000000001"/>
    <line x1="91.7009618943234" y1="64.6500000000001" x2="91.9393398282202" y2="64.3393398282202"/>
    <line x1="91.9393398282202" y1="64.3393398282202" x2="92.25" y2="64.1009618943234"/>
    <line x1="92.25" y1="64.1009618943234" x2="92.6117714323462" y2="63.9511112605665"/>
    <line x1="92.6117714323462" y1="63.9511112605665" x2="93.0" y2="63.9000000000001"/>
    <line x1="93.0" y1="63.9000000000001" x2="93.3882285676538" y2="63.9511112605664"/>
    <line x1="93.3882285676538" y1="63.9511112605664" x2="93.75" y2="64.1009618943234"/>
    <line x1="93.75" y1="64.1009618943234" x2="94.0606601717798" y2="64.3393398282202"/>
    <line x1="94.0606601717798" y1="64.3393398282202" x2="94.2990381056766" y2="64.65"/>
    <line x1="94.2990381056766" y1="64.65" x2="94.4488887394336" y2="65.0117714323462"/>
    <line x1="94.4488887394336" y1="65.0117714323462" x2="94.5" y2="65.3999999999999"/>
    <line x1="94.5" y1="65.3999999999999" x2="94.4488887394336" y2="65.7882285676538"/>
    <line x1="94.4488887394336" y1="65.7882285676538" x2="94.2990381056767" y2="66.1499999999999"/>
    <line x1="94.2990381056767" y1="66.1499999999999" x2="94.0606601717798" y2="66.4606601717797"/>
    <line x1="94.0606601717798" y1="66.4606601717797" x2="93.75" y2="66.6990381056766"/>
    <line x1="93.75" y1="66.6990381056766" x2="93.3882285676538" y2="66.8488887394335"/>
    <line x1="93.3882285676538" y1="66.8488887394335" x2="93.0000000000001" y2="66.8999999999999"/>
    <line x1="93.0000000000001" y1="66.8999999999999" x2="92.6117714323463" y2="66.8488887394335"/>
    <line x1="92.6117714323463" y1="66.8488887394335" x2="92.2500000000001" y2="66.6990381056766"/>
    <line x1="92.2500000000001" y1="66.6990381056766" x2="91.9393398282203" y2="66.4606601717798"/>
    <line x1="91.9393398282203" y1="66.4606601717798" x2="91.7009618943235" y2="66.15"/>
    <line x1="91.7009618943235" y1="66.15" x2="91.5511112605665" y2="65.7882285676538"/>
    <line x1="91.5511112605665" y1="65.7882285676538" x2="91.5000000000001" y2="65.4"/>
    <line x1="91.5000000000001" y1="65.4" x2="91.5511112605665" y2="65.0117714323463"/>
    <line x1="25.4488887394336" y1="21.3882285676538" x2="25.2990381056767" y2="21.7499999999999"/>
    <line x1="25.2990381056767" y1="21.7499999999999" x2="25.0606601717798" y2="22.0606601717798"/>
    <line x1="25.0606601717798" y1="22.0606601717798" x2="24.75" y2="22.2990381056767"/>
    <line x1="24.75" y1="22.2990381056767" x2="24.3882285676537" y2="22.4488887394336"/>
    <line x1="24.3882285676537" y1="22.4488887394336" x2="24.0" y2="22.4999999999999"/>
    <line x1="24.0" y1="22.4999999999999" x2="23.6117714323462" y2="22.4488887394336"/>
    <line x1="23.6117714323462" y1="22.4488887394336" x2="23.25" y2="22.2990381056766"/>
    <line x1="23.25" y1="22.2990381056766" x2="22.9393398282201" y2="22.0606601717798"/>
    <line x1="22.9393398282201" y1="22.0606601717798" x2="22.7009618943233" y2="21.7499999999999"/>
    <line x1="22.7009618943233" y1="21.7499999999999" x2="22.5511112605664" y2="21.3882285676537"/>
    <line x1="22.5511112605664" y1="21.3882285676537" x2="22.5" y2="20.9999999999999"/>
    <line x1="22.5" y1="20.9999999999999" x2="22.5511112605664" y2="20.6117714323462"/>
    <line x1="22.5511112605664" y1="20.6117714323462" x2="22.7009618943233" y2="20.25"/>
    <line x1="22.7009618943233" y1="20.25" x2="22.9393398282202" y2="19.9393398282201"/>
    <line x1="22.9393398282202" y1="19.9393398282201" x2="23.25" y2="19.7009618943233"/>
    <line x1="23.25" y1="19.7009618943233" x2="23.6117714323462" y2="19.5511112605664"/>
    <line x1="23.6117714323462" y1="19.5511112605664" x2="24.0" y2="19.4999999999999"/>
    <line x1="24.0" y1="19.4999999999999" x2="24.3882285676538" y2="19.5511112605664"/>
    <line x1="24.3882285676538" y1="19.5511112605664" x2="24.75" y2="19.7009618943233"/>
    <line x1="24.75" y1="19.7009618943233" x2="25.0606601717798" y2="19.9393398282201"/>
    <line x1="25.0606601717798" y1="19.9393398282201" x2="25.2990381056767" y2="20.25"/>
    <line x1="25.2990381056767" y1="20.25" x2="25.4488887394336" y2="20.6117714323462"/>
    <line x1="25.4488887394336" y1="20.6117714323462" x2="25.5" y2="21.0"/>
    <line x1="25.5" y1="21.0" x2="25.4488887394336" y2="21.3882285676538"/>
    <line x1="22.7009618943233" y1="66.1499999999999" x2="22.5511112605664" y2="65.7882285676538"/>
    <line x1="22.5511112605664" y1="65.7882285676538" x2="22.5" y2="65.4"/>
    <line x1="22.5" y1="65.4" x2="22.5511112605664" y2="65.0117714323463"/>
    <line x1="22.5511112605664" y1="65.0117714323463" x2="22.7009618943233" y2="64.65"/>
    <line x1="22.7009618943233" y1="64.65" x2="22.9393398282202" y2="64.3393398282202"/>
    <line x1="22.9393398282202" y1="64.3393398282202" x2="23.25" y2="64.1009618943233"/>
    <line x1="23.25" y1="64.1009618943233" x2="23.6117714323462" y2="63.9511112605664"/>
    <line x1="23.6117714323462" y1="63.9511112605664" x2="24.0" y2="63.9"/>
    <line x1="24.0" y1="63.9" x2="24.3882285676538" y2="63.9511112605664"/>
    <line x1="24.3882285676538" y1="63.9511112605664" x2="24.75" y2="64.1009618943234"/>
    <line x1="24.75" y1="64.1009618943234" x2="25.0606601717798" y2="64.3393398282201"/>
    <line x1="25.0606601717798" y1="64.3393398282201" x2="25.2990381056767" y2="64.6500000000001"/>
    <line x1="25.2990381056767" y1="64.6500000000001" x2="25.4488887394336" y2="65.0117714323463"/>
    <line x1="25.4488887394336" y1="65.0117714323463" x2="25.5" y2="65.4"/>
    <line x1="25.5" y1="65.4" x2="25.4488887394336" y2="65.7882285676538"/>
    <line x1="25.4488887394336" y1="65.7882285676538" x2="25.2990381056767" y2="66.1499999999999"/>
    <line x1="25.2990381056767" y1="66.1499999999999" x2="25.0606601717798" y2="66.4606601717798"/>
    <line x1="25.0606601717798" y1="66.4606601717798" x2="24.75" y2="66.6990381056766"/>
    <line x1="24.75" y1="66.6990381056766" x2="24.3882285676538" y2="66.8488887394336"/>
    <line x1="24.3882285676538" y1="66.8488887394336" x2="24.0" y2="66.8999999999999"/>
    <line x1="24.0" y1="66.8999999999999" x2="23.6117714323462" y2="66.8488887394335"/>
    <line x1="23.6117714323462" y1="66.8488887394335" x2="23.25" y2="66.6990381056766"/>
    <line x1="23.25" y1="66.6990381056766" x2="22.9393398282202" y2="66.4606601717798"/>
    <line x1="22.9393398282202" y1="66.4606601717798" x2="22.7009618943233" y2="66.1499999999999"/>
    <line x1="69.4523921956849" y1="27.9" x2="69.6907701295818" y2="27.5893398282202"/>
    <line x1="69.6907701295818" y1="27.5893398282202" x2="70.0014303013616" y2="27.3509618943233"/>
    <line x1="70.0014303013616" y1="27.3509618943233" x2="70.3632017337078" y2="27.2011112605664"/>
    <line x1="70.3632017337078" y1="27.2011112605664" x2="70.7514303013616" y2="27.15"/>
    <line x1="70.7514303013616" y1="27.15" x2="71.1396588690154" y2="27.2011112605664"/>
    <line x1="71.1396588690154" y1="27.2011112605664" x2="71.5014303013616" y2="27.3509618943233"/>
    <line x1="71.5014303013616" y1="27.3509618943233" x2="71.8120904731415" y2="27.5893398282201"/>
    <line x1="71.8120904731415" y1="27.5893398282201" x2="72.0504684070382" y2="27.9"/>
    <line x1="72.0504684070382" y1="27.9" x2="72.2003190407952" y2="28.2617714323462"/>
    <line x1="72.2003190407952" y1="28.2617714323462" x2="72.2514303013616" y2="28.65"/>
    <line x1="72.2514303013616" y1="28.65" x2="72.2003190407952" y2="29.0382285676538"/>
    <line x1="72.2003190407952" y1="29.0382285676538" x2="72.0504684070383" y2="29.4"/>
    <line x1="72.0504684070383" y1="29.4" x2="71.8120904731415" y2="29.7106601717798"/>
    <line x1="71.8120904731415" y1="29.7106601717798" x2="71.5014303013616" y2="29.9490381056767"/>
    <line x1="71.5014303013616" y1="29.9490381056767" x2="71.1396588690154" y2="30.0988887394336"/>
    <line x1="71.1396588690154" y1="30.0988887394336" x2="70.7514303013616" y2="30.1499999999999"/>
    <line x1="70.7514303013616" y1="30.1499999999999" x2="70.3632017337079" y2="30.0988887394336"/>
    <line x1="70.3632017337079" y1="30.0988887394336" x2="70.0014303013616" y2="29.9490381056766"/>
    <line x1="70.0014303013616" y1="29.9490381056766" x2="69.6907701295818" y2="29.7106601717798"/>
    <line x1="69.6907701295818" y1="29.7106601717798" x2="69.452392195685" y2="29.4"/>
    <line x1="69.452392195685" y1="29.4" x2="69.302541561928" y2="29.0382285676538"/>
    <line x1="69.302541561928" y1="29.0382285676538" x2="69.2514303013616" y2="28.65"/>
    <line x1="69.2514303013616" y1="28.65" x2="69.302541561928" y2="28.2617714323462"/>
    <line x1="69.302541561928" y1="28.2617714323462" x2="69.4523921956849" y2="27.9"/>
    <line x1="45.1907701295817" y1="29.7106601717798" x2="44.9523921956849" y2="29.4"/>
    <line x1="44.9523921956849" y1="29.4" x2="44.802541561928" y2="29.0382285676538"/>
    <line x1="44.802541561928" y1="29.0382285676538" x2="44.7514303013616" y2="28.65"/>
    <line x1="44.7514303013616" y1="28.65" x2="44.802541561928" y2="28.2617714323462"/>
    <line x1="44.802541561928" y1="28.2617714323462" x2="44.9523921956849" y2="27.9"/>
    <line x1="44.9523921956849" y1="27.9" x2="45.1907701295817" y2="27.5893398282201"/>
    <line x1="45.1907701295817" y1="27.5893398282201" x2="45.5014303013616" y2="27.3509618943233"/>
    <line x1="45.5014303013616" y1="27.3509618943233" x2="45.8632017337078" y2="27.2011112605663"/>
    <line x1="45.8632017337078" y1="27.2011112605663" x2="46.2514303013616" y2="27.15"/>
    <line x1="46.2514303013616" y1="27.15" x2="46.6396588690154" y2="27.2011112605664"/>
    <line x1="46.6396588690154" y1="27.2011112605664" x2="47.0014303013616" y2="27.3509618943233"/>
    <line x1="47.0014303013616" y1="27.3509618943233" x2="47.3120904731414" y2="27.5893398282201"/>
    <line x1="47.3120904731414" y1="27.5893398282201" x2="47.5504684070383" y2="27.9"/>
    <line x1="47.5504684070383" y1="27.9" x2="47.7003190407952" y2="28.2617714323462"/>
    <line x1="47.7003190407952" y1="28.2617714323462" x2="47.7514303013616" y2="28.65"/>
    <line x1="47.7514303013616" y1="28.65" x2="47.7003190407952" y2="29.0382285676538"/>
    <line x1="47.7003190407952" y1="29.0382285676538" x2="47.5504684070383" y2="29.4"/>
    <line x1="47.5504684070383" y1="29.4" x2="47.3120904731414" y2="29.7106601717798"/>
    <line x1="47.3120904731414" y1="29.7106601717798" x2="47.0014303013616" y2="29.9490381056767"/>
    <line x1="47.0014303013616" y1="29.9490381056767" x2="46.6396588690154" y2="30.0988887394336"/>
    <line x1="46.6396588690154" y1="30.0988887394336" x2="46.2514303013616" y2="30.15"/>
    <line x1="46.2514303013616" y1="30.15" x2="45.8632017337078" y2="30.0988887394336"/>
    <line x1="45.8632017337078" y1="30.0988887394336" x2="45.5014303013616" y2="29.9490381056767"/>
    <line x1="45.5014303013616" y1="29.9490381056767" x2="45.1907701295817" y2="29.7106601717798"/>
    <line x1="47.7514303013616" y1="53.1499999999999" x2="47.7003190407952" y2="53.5382285676538"/>
    <line x1="47.7003190407952" y1="53.5382285676538" x2="47.5504684070383" y2="53.9"/>
    <line x1="47.5504684070383" y1="53.9" x2="47.3120904731414" y2="54.2106601717798"/>
    <line x1="47.3120904731414" y1="54.2106601717798" x2="47.0014303013616" y2="54.4490381056766"/>
    <line x1="47.0014303013616" y1="54.4490381056766" x2="46.6396588690154" y2="54.5988887394336"/>
    <line x1="46.6396588690154" y1="54.5988887394336" x2="46.2514303013616" y2="54.65"/>
    <line x1="46.2514303013616" y1="54.65" x2="45.8632017337078" y2="54.5988887394336"/>
    <line x1="45.8632017337078" y1="54.5988887394336" x2="45.5014303013616" y2="54.4490381056767"/>
    <line x1="45.5014303013616" y1="54.4490381056767" x2="45.1907701295817" y2="54.2106601717798"/>
    <line x1="45.1907701295817" y1="54.2106601717798" x2="44.9523921956849" y2="53.9"/>
    <line x1="44.9523921956849" y1="53.9" x2="44.802541561928" y2="53.5382285676538"/>
    <line x1="44.802541561928" y1="53.5382285676538" x2="44.7514303013616" y2="53.1499999999999"/>
    <line x1="44.7514303013616" y1="53.1499999999999" x2="44.802541561928" y2="52.7617714323462"/>
    <line x1="44.802541561928" y1="52.7617714323462" x2="44.9523921956849" y2="52.3999999999999"/>
    <line x1="44.9523921956849" y1="52.3999999999999" x2="45.1907701295817" y2="52.0893398282202"/>
    <line x1="45.1907701295817" y1="52.0893398282202" x2="45.5014303013616" y2="51.8509618943233"/>
    <line x1="45.5014303013616" y1="51.8509618943233" x2="45.8632017337078" y2="51.7011112605664"/>
    <line x1="45.8632017337078" y1="51.7011112605664" x2="46.2514303013616" y2="51.6499999999999"/>
    <line x1="46.2514303013616" y1="51.6499999999999" x2="46.6396588690154" y2="51.7011112605663"/>
    <line x1="46.6396588690154" y1="51.7011112605663" x2="47.0014303013616" y2="51.8509618943233"/>
    <line x1="47.0014303013616" y1="51.8509618943233" x2="47.3120904731414" y2="52.0893398282202"/>
    <line x1="47.3120904731414" y1="52.0893398282202" x2="47.5504684070383" y2="52.3999999999999"/>
    <line x1="47.5504684070383" y1="52.3999999999999" x2="47.7003190407952" y2="52.7617714323462"/>
    <line x1="47.7003190407952" y1="52.7617714323462" x2="47.7514303013616" y2="53.1499999999999"/>
    <line x1="69.4966558457549" y1="52.4255556302832" x2="69.7269112485233" y2="52.1254809471616"/>
    <line x1="69.7269112485233" y1="52.1254809471616" x2="70.0269859316448" y2="51.8952255443933"/>
    <line x1="70.0269859316448" y1="51.8952255443933" x2="70.3764303013616" y2="51.7504809471617"/>
    <line x1="70.3764303013616" y1="51.7504809471617" x2="70.7514303013616" y2="51.7011112605664"/>
    <line x1="70.7514303013616" y1="51.7011112605664" x2="71.1264303013616" y2="51.7504809471616"/>
    <line x1="71.1264303013616" y1="51.7504809471616" x2="71.4758746710784" y2="51.8952255443933"/>
    <line x1="71.4758746710784" y1="51.8952255443933" x2="71.7759493541999" y2="52.1254809471617"/>
    <line x1="71.7759493541999" y1="52.1254809471617" x2="72.0062047569683" y2="52.4255556302832"/>
    <line x1="72.0062047569683" y1="52.4255556302832" x2="72.1509493542" y2="52.7749999999999"/>
    <line x1="72.1509493542" y1="52.7749999999999" x2="72.2003190407952" y2="53.1499999999999"/>
    <line x1="72.2003190407952" y1="53.1499999999999" x2="72.1509493542" y2="53.525"/>
    <line x1="72.1509493542" y1="53.525" x2="72.0062047569683" y2="53.8744443697168"/>
    <line x1="72.0062047569683" y1="53.8744443697168" x2="71.7759493542" y2="54.1745190528383"/>
    <line x1="71.7759493542" y1="54.1745190528383" x2="71.4758746710784" y2="54.4047744556067"/>
    <line x1="71.4758746710784" y1="54.4047744556067" x2="71.1264303013616" y2="54.5495190528383"/>
    <line x1="71.1264303013616" y1="54.5495190528383" x2="70.7514303013616" y2="54.5988887394336"/>
    <line x1="70.7514303013616" y1="54.5988887394336" x2="70.3764303013616" y2="54.5495190528383"/>
    <line x1="70.3764303013616" y1="54.5495190528383" x2="70.0269859316448" y2="54.4047744556067"/>
    <line x1="70.0269859316448" y1="54.4047744556067" x2="69.7269112485233" y2="54.1745190528383"/>
    <line x1="69.7269112485233" y1="54.1745190528383" x2="69.4966558457549" y2="53.8744443697168"/>
    <line x1="69.4966558457549" y1="53.8744443697168" x2="69.3519112485233" y2="53.525"/>
    <line x1="69.3519112485233" y1="53.525" x2="69.302541561928" y2="53.1499999999999"/>
    <line x1="69.302541561928" y1="53.1499999999999" x2="69.3519112485233" y2="52.775"/>
    <line x1="69.3519112485233" y1="52.775" x2="69.4966558457549" y2="52.4255556302832"/>
  </g>
</svg>
