<?xml version="1.0" standalone="no"?>
<!DOCTYPE svg PUBLIC "-//W3C//DTD SVG 1.1//EN" "http://www.w3.org/Graphics/SVG/1.1/DTD/svg11.dtd">
<svg width="67.0002mm" height="24.0002mm"
 viewBox="0 0 67.0002 24.0002"
 xmlns="http://www.w3.org/2000/svg" version="1.1"
 xmlns:xlink="http://www.w3.org/1999/xlink">
<desc>Output from Flights of Ideas SVG Sketchup Plugin</desc>

  <g id="face0" fill="none" stroke="rgb(0,0,255)" stroke-width="1" stroke-miterlimit="4" stroke-dasharray="none" stroke-linejoin="round" stroke-linecap="round">
    <line x1="58.7875067294516" y1="21.0001" x2="67.0001" y2="21.0001"/>
    <line x1="67.0001" y1="21.0001" x2="67.0001" y2="0.0001"/>
    <line x1="67.0001" y1="0.0001" x2="35.0001" y2="0.0001"/>
    <line x1="35.0001" y1="0.0001" x2="35.0001" y2="2.0001"/>
    <line x1="35.0001" y1="2.0001" x2="36.3001" y2="2.0001"/>
    <line x1="36.3001" y1="2.0001" x2="36.3001" y2="4.20010000000005"/>
    <line x1="36.3001" y1="4.20010000000005" x2="35.0001" y2="4.20010000000005"/>
    <line x1="35.0001" y1="4.20010000000005" x2="35.0001" y2="14.2001"/>
    <line x1="35.0001" y1="14.2001" x2="32.0001" y2="14.2001"/>
    <line x1="32.0001" y1="14.2001" x2="32.0001" y2="4.20009999999999"/>
    <line x1="32.0001" y1="4.20009999999999" x2="30.7001" y2="4.20009999999999"/>
    <line x1="30.7001" y1="4.20009999999999" x2="30.7001" y2="2.0001"/>
    <line x1="30.7001" y1="2.0001" x2="32.0001" y2="2.0001"/>
    <line x1="32.0001" y1="2.0001" x2="32.0001" y2="0.0001"/>
    <line x1="32.0001" y1="0.0001" x2="0.0001" y2="0.0001"/>
    <line x1="0.0001" y1="0.0001" x2="0.0001" y2="21.0001"/>
    <line x1="0.0001" y1="21.0001" x2="8.2126932705484" y2="21.0001"/>
    <line x1="8.2126932705484" y1="21.0001" x2="8.2126932705484" y2="19.0001000000002"/>
    <line x1="8.2126932705484" y1="19.0001000000002" x2="6.91269327054838" y2="19.0001000000001"/>
    <line x1="6.91269327054838" y1="19.0001000000001" x2="6.91269327054838" y2="16.8001"/>
    <line x1="6.91269327054838" y1="16.8001" x2="8.2126932705484" y2="16.8001000000001"/>
    <line x1="8.2126932705484" y1="16.8001000000001" x2="8.2126932705484" y2="13.8001000000001"/>
    <line x1="8.2126932705484" y1="13.8001000000001" x2="11.2126932705484" y2="13.8001"/>
    <line x1="11.2126932705484" y1="13.8001" x2="11.5001" y2="16.7863011606498"/>
    <line x1="11.5001" y1="16.7863011606498" x2="12.8001" y2="16.7863011606498"/>
    <line x1="12.8001" y1="16.7863011606498" x2="12.8001" y2="18.9863011606498"/>
    <line x1="12.8001" y1="18.9863011606498" x2="11.5001" y2="18.9863011606497"/>
    <line x1="11.5001" y1="18.9863011606497" x2="11.5001" y2="21.0001"/>
    <line x1="11.5001" y1="21.0001" x2="20.0001" y2="21.0001"/>
    <line x1="20.0001" y1="21.0001" x2="20.0001" y2="24.0001"/>
    <line x1="20.0001" y1="24.0001" x2="47.0001" y2="24.0001"/>
    <line x1="47.0001" y1="24.0001" x2="47.0001" y2="21.0001"/>
    <line x1="47.0001" y1="21.0001" x2="55.5001" y2="21.0001"/>
    <line x1="55.5001" y1="21.0001" x2="55.5001" y2="19.0001000000001"/>
    <line x1="55.5001" y1="19.0001000000001" x2="54.2001" y2="19.0001000000001"/>
    <line x1="54.2001" y1="19.0001000000001" x2="54.2001" y2="16.8001"/>
    <line x1="54.2001" y1="16.8001" x2="55.5001" y2="16.8001"/>
    <line x1="55.5001" y1="16.8001" x2="55.5001" y2="13.8001000000001"/>
    <line x1="55.5001" y1="13.8001000000001" x2="58.5001" y2="13.8001000000001"/>
    <line x1="58.5001" y1="13.8001000000001" x2="58.7875067294516" y2="16.7863011606498"/>
    <line x1="58.7875067294516" y1="16.7863011606498" x2="60.0875067294516" y2="16.7863011606498"/>
    <line x1="60.0875067294516" y1="16.7863011606498" x2="60.0875067294516" y2="18.9863011606498"/>
    <line x1="60.0875067294516" y1="18.9863011606498" x2="58.7875067294516" y2="18.9863011606498"/>
    <line x1="58.7875067294516" y1="18.9863011606498" x2="58.7875067294516" y2="21.0001"/>
  </g>
</svg>
