<?xml version="1.0" standalone="no"?>
<!DOCTYPE svg PUBLIC "-//W3C//DTD SVG 1.1//EN" "http://www.w3.org/Graphics/SVG/1.1/DTD/svg11.dtd">
<svg width="33.0002mm" height="53.0002mm"
 viewBox="0 0 33.0002 53.0002"
 xmlns="http://www.w3.org/2000/svg" version="1.1"
 xmlns:xlink="http://www.w3.org/1999/xlink">
<desc>Output from Flights of Ideas SVG Sketchup Plugin</desc>

  <g id="face0" fill="none" stroke="rgb(0,0,255)" stroke-width="1" stroke-miterlimit="4" stroke-dasharray="none" stroke-linejoin="round" stroke-linecap="round">
    <line x1="3.00009999999999" y1="0.0001" x2="3.00009999999999" y2="8.5001"/>
    <line x1="3.00009999999999" y1="8.5001" x2="5.00009999999999" y2="8.5001"/>
    <line x1="5.00009999999999" y1="8.5001" x2="5.00009999999999" y2="7.20009999999999"/>
    <line x1="5.00009999999999" y1="7.20009999999999" x2="7.20009999999998" y2="7.20009999999999"/>
    <line x1="7.20009999999998" y1="7.20009999999999" x2="7.20009999999998" y2="8.5001"/>
    <line x1="7.20009999999998" y1="8.5001" x2="10.2001" y2="8.5001"/>
    <line x1="10.2001" y1="8.5001" x2="10.2001" y2="11.5001"/>
    <line x1="10.2001" y1="11.5001" x2="7.20009999999998" y2="11.5001"/>
    <line x1="7.20009999999998" y1="11.5001" x2="7.20009999999998" y2="12.8001"/>
    <line x1="7.20009999999998" y1="12.8001" x2="5.00009999999999" y2="12.8001"/>
    <line x1="5.00009999999999" y1="12.8001" x2="5.00009999999999" y2="11.5001"/>
    <line x1="5.00009999999999" y1="11.5001" x2="3.00009999999999" y2="11.5001"/>
    <line x1="3.00009999999999" y1="11.5001" x2="3.00009999999999" y2="20.0001"/>
    <line x1="3.00009999999999" y1="20.0001" x2="0.0001" y2="20.0001"/>
    <line x1="0.0001" y1="20.0001" x2="0.0001" y2="43.0000999999999"/>
    <line x1="0.0001" y1="43.0000999999999" x2="3.00009999999999" y2="43.0000999999999"/>
    <line x1="3.00009999999999" y1="43.0000999999999" x2="3.00009999999999" y2="53.0001"/>
    <line x1="3.00009999999999" y1="53.0001" x2="33.0001" y2="53.0000999999999"/>
    <line x1="33.0001" y1="53.0000999999999" x2="33.0001" y2="0.0001"/>
    <line x1="33.0001" y1="0.0001" x2="3.00009999999999" y2="0.0001"/>
    <line x1="13.0001" y1="43.0000999999999" x2="13.0001" y2="8.00009999999994"/>
    <line x1="13.0001" y1="8.00009999999994" x2="25.0001" y2="8.00009999999994"/>
    <line x1="25.0001" y1="8.00009999999994" x2="25.0001" y2="43.0000999999999"/>
    <line x1="25.0001" y1="43.0000999999999" x2="13.0001" y2="43.0000999999999"/>
    <line x1="18.0001" y1="47.0001" x2="18.0001" y2="50.0001"/>
    <line x1="18.0001" y1="50.0001" x2="8.00009999999998" y2="50.0001"/>
    <line x1="8.00009999999998" y1="50.0001" x2="8.00009999999998" y2="47.0001"/>
    <line x1="8.00009999999998" y1="47.0001" x2="18.0001" y2="47.0001"/>
    <line x1="23.0512112605664" y1="48.8883285676538" x2="23.0001" y2="48.5001"/>
    <line x1="23.0001" y1="48.5001" x2="23.0512112605664" y2="48.1118714323462"/>
    <line x1="23.0512112605664" y1="48.1118714323462" x2="23.2010618943233" y2="47.7501"/>
    <line x1="23.2010618943233" y1="47.7501" x2="23.4394398282202" y2="47.4394398282202"/>
    <line x1="23.4394398282202" y1="47.4394398282202" x2="23.7501" y2="47.2010618943233"/>
    <line x1="23.7501" y1="47.2010618943233" x2="24.1118714323462" y2="47.0512112605664"/>
    <line x1="24.1118714323462" y1="47.0512112605664" x2="24.5001" y2="47.0001"/>
    <line x1="24.5001" y1="47.0001" x2="24.8883285676538" y2="47.0512112605664"/>
    <line x1="24.8883285676538" y1="47.0512112605664" x2="25.2501" y2="47.2010618943233"/>
    <line x1="25.2501" y1="47.2010618943233" x2="25.5607601717798" y2="47.4394398282202"/>
    <line x1="25.5607601717798" y1="47.4394398282202" x2="25.7991381056766" y2="47.7501"/>
    <line x1="25.7991381056766" y1="47.7501" x2="25.9489887394336" y2="48.1118714323462"/>
    <line x1="25.9489887394336" y1="48.1118714323462" x2="26.0001" y2="48.5000999999999"/>
    <line x1="26.0001" y1="48.5000999999999" x2="25.9489887394336" y2="48.8883285676538"/>
    <line x1="25.9489887394336" y1="48.8883285676538" x2="25.7991381056766" y2="49.2501"/>
    <line x1="25.7991381056766" y1="49.2501" x2="25.5607601717798" y2="49.5607601717798"/>
    <line x1="25.5607601717798" y1="49.5607601717798" x2="25.2501" y2="49.7991381056766"/>
    <line x1="25.2501" y1="49.7991381056766" x2="24.8883285676538" y2="49.9489887394336"/>
    <line x1="24.8883285676538" y1="49.9489887394336" x2="24.5001" y2="50.0001"/>
    <line x1="24.5001" y1="50.0001" x2="24.1118714323462" y2="49.9489887394336"/>
    <line x1="24.1118714323462" y1="49.9489887394336" x2="23.7501" y2="49.7991381056766"/>
    <line x1="23.7501" y1="49.7991381056766" x2="23.4394398282202" y2="49.5607601717798"/>
    <line x1="23.4394398282202" y1="49.5607601717798" x2="23.2010618943233" y2="49.2501"/>
    <line x1="23.2010618943233" y1="49.2501" x2="23.0512112605664" y2="48.8883285676538"/>
  </g>
</svg>
