<?xml version="1.0" standalone="no"?>
<!DOCTYPE svg PUBLIC "-//W3C//DTD SVG 1.1//EN" "http://www.w3.org/Graphics/SVG/1.1/DTD/svg11.dtd">
<svg width="33.0002mm" height="53.0002mm"
 viewBox="0 0 33.0002 53.0002"
 xmlns="http://www.w3.org/2000/svg" version="1.1"
 xmlns:xlink="http://www.w3.org/1999/xlink">
<desc>Output from Flights of Ideas SVG Sketchup Plugin</desc>

  <g id="face0" fill="none" stroke="rgb(0,0,255)" stroke-width="1" stroke-miterlimit="4" stroke-dasharray="none" stroke-linejoin="round" stroke-linecap="round">
    <line x1="0.0001" y1="0.0001" x2="0.000100000000001776" y2="53.0001"/>
    <line x1="0.000100000000001776" y1="53.0001" x2="30.0001" y2="53.0001"/>
    <line x1="30.0001" y1="53.0001" x2="30.0001" y2="43.0001"/>
    <line x1="30.0001" y1="43.0001" x2="33.0001" y2="43.0001"/>
    <line x1="33.0001" y1="43.0001" x2="33.0001" y2="20.0001"/>
    <line x1="33.0001" y1="20.0001" x2="30.0001" y2="20.0001"/>
    <line x1="30.0001" y1="20.0001" x2="30.0001" y2="11.5001"/>
    <line x1="30.0001" y1="11.5001" x2="28.0001" y2="11.5001"/>
    <line x1="28.0001" y1="11.5001" x2="28.0001" y2="12.8001"/>
    <line x1="28.0001" y1="12.8001" x2="25.8001" y2="12.8001"/>
    <line x1="25.8001" y1="12.8001" x2="25.8001" y2="11.5001"/>
    <line x1="25.8001" y1="11.5001" x2="22.8001" y2="11.5001"/>
    <line x1="22.8001" y1="11.5001" x2="22.8001" y2="8.50010000000003"/>
    <line x1="22.8001" y1="8.50010000000003" x2="25.8001" y2="8.5001"/>
    <line x1="25.8001" y1="8.5001" x2="25.8001" y2="7.20010000000002"/>
    <line x1="25.8001" y1="7.20010000000002" x2="28.0001" y2="7.20009999999999"/>
    <line x1="28.0001" y1="7.20009999999999" x2="28.0001" y2="8.50010000000003"/>
    <line x1="28.0001" y1="8.50010000000003" x2="30.0001" y2="8.50010000000003"/>
    <line x1="30.0001" y1="8.50010000000003" x2="30.0001" y2="0.0001"/>
    <line x1="30.0001" y1="0.0001" x2="0.0001" y2="0.0001"/>
    <line x1="20.0001" y1="8.0001" x2="20.0001" y2="43.0001"/>
    <line x1="20.0001" y1="43.0001" x2="8.00009999999999" y2="43.0001"/>
    <line x1="8.00009999999999" y1="43.0001" x2="8.00009999999999" y2="8.0001"/>
    <line x1="8.00009999999999" y1="8.0001" x2="20.0001" y2="8.0001"/>
    <line x1="15.0001" y1="47.0001" x2="25.0001" y2="47.0001"/>
    <line x1="25.0001" y1="47.0001" x2="25.0001" y2="50.0001"/>
    <line x1="25.0001" y1="50.0001" x2="15.0001" y2="50.0001"/>
    <line x1="15.0001" y1="50.0001" x2="15.0001" y2="47.0001"/>
    <line x1="9.94898873943361" y1="48.1118714323462" x2="10.0001" y2="48.5001"/>
    <line x1="10.0001" y1="48.5001" x2="9.94898873943361" y2="48.8883285676538"/>
    <line x1="9.94898873943361" y1="48.8883285676538" x2="9.79913810567663" y2="49.2501"/>
    <line x1="9.79913810567663" y1="49.2501" x2="9.56076017177981" y2="49.5607601717799"/>
    <line x1="9.56076017177981" y1="49.5607601717799" x2="9.25009999999997" y2="49.7991381056767"/>
    <line x1="9.25009999999997" y1="49.7991381056767" x2="8.88832856765376" y2="49.9489887394336"/>
    <line x1="8.88832856765376" y1="49.9489887394336" x2="8.50010000000001" y2="50.0001"/>
    <line x1="8.50010000000001" y1="50.0001" x2="8.11187143234621" y2="49.9489887394336"/>
    <line x1="8.11187143234621" y1="49.9489887394336" x2="7.7501" y2="49.7991381056767"/>
    <line x1="7.7501" y1="49.7991381056767" x2="7.43943982822017" y2="49.5607601717798"/>
    <line x1="7.43943982822017" y1="49.5607601717798" x2="7.20106189432334" y2="49.2501"/>
    <line x1="7.20106189432334" y1="49.2501" x2="7.05121126056641" y2="48.8883285676538"/>
    <line x1="7.05121126056641" y1="48.8883285676538" x2="7.00009999999999" y2="48.5001"/>
    <line x1="7.00009999999999" y1="48.5001" x2="7.05121126056641" y2="48.1118714323462"/>
    <line x1="7.05121126056641" y1="48.1118714323462" x2="7.20106189432334" y2="47.7501"/>
    <line x1="7.20106189432334" y1="47.7501" x2="7.43943982822016" y2="47.4394398282202"/>
    <line x1="7.43943982822016" y1="47.4394398282202" x2="7.7501" y2="47.2010618943233"/>
    <line x1="7.7501" y1="47.2010618943233" x2="8.11187143234621" y2="47.0512112605664"/>
    <line x1="8.11187143234621" y1="47.0512112605664" x2="8.50010000000001" y2="47.0001"/>
    <line x1="8.50010000000001" y1="47.0001" x2="8.88832856765376" y2="47.0512112605664"/>
    <line x1="8.88832856765376" y1="47.0512112605664" x2="9.25009999999997" y2="47.2010618943233"/>
    <line x1="9.25009999999997" y1="47.2010618943233" x2="9.56076017177981" y2="47.4394398282202"/>
    <line x1="9.56076017177981" y1="47.4394398282202" x2="9.79913810567664" y2="47.7501"/>
    <line x1="9.79913810567664" y1="47.7501" x2="9.94898873943361" y2="48.1118714323462"/>
  </g>
</svg>
