<?xml version="1.0" standalone="no"?>
<!DOCTYPE svg PUBLIC "-//W3C//DTD SVG 1.1//EN" "http://www.w3.org/Graphics/SVG/1.1/DTD/svg11.dtd">
<svg width="85.0002mm" height="71.9002mm"
 viewBox="0 0 85.0002 71.9002"
 xmlns="http://www.w3.org/2000/svg" version="1.1"
 xmlns:xlink="http://www.w3.org/1999/xlink">
<desc>Output from Flights of Ideas SVG Sketchup Plugin</desc>

  <g id="face0" fill="none" stroke="rgb(0,0,255)" stroke-width="1" stroke-miterlimit="4" stroke-dasharray="none" stroke-linejoin="round" stroke-linecap="round">
    <line x1="30.0001" y1="68.9001" x2="41.0001" y2="68.9001"/>
    <line x1="41.0001" y1="68.9001" x2="41.0001" y2="66.9001"/>
    <line x1="41.0001" y1="66.9001" x2="39.7001" y2="66.9001"/>
    <line x1="39.7001" y1="66.9001" x2="39.7001" y2="64.7001"/>
    <line x1="39.7001" y1="64.7001" x2="41.0001" y2="64.7001"/>
    <line x1="41.0001" y1="64.7001" x2="41.0001" y2="61.7001"/>
    <line x1="41.0001" y1="61.7001" x2="44.0001" y2="61.7001"/>
    <line x1="44.0001" y1="61.7001" x2="44.0001" y2="64.7001"/>
    <line x1="44.0001" y1="64.7001" x2="45.3001" y2="64.7001"/>
    <line x1="45.3001" y1="64.7001" x2="45.3001" y2="66.9001"/>
    <line x1="45.3001" y1="66.9001" x2="44.0001" y2="66.9001"/>
    <line x1="44.0001" y1="66.9001" x2="44.0001" y2="68.9001"/>
    <line x1="44.0001" y1="68.9001" x2="55.0001" y2="68.9001"/>
    <line x1="55.0001" y1="68.9001" x2="55.0001" y2="71.9001"/>
    <line x1="55.0001" y1="71.9001" x2="75.0001" y2="71.9001"/>
    <line x1="75.0001" y1="71.9001" x2="75.0001" y2="68.9001"/>
    <line x1="75.0001" y1="68.9001" x2="85.0001" y2="68.9001"/>
    <line x1="85.0001" y1="68.9001" x2="85.0001" y2="5.0001"/>
    <line x1="85.0001" y1="5.0001" x2="83.0001" y2="5.00010000000003"/>
    <line x1="83.0001" y1="5.00010000000003" x2="83.0001" y2="4.00010000000003"/>
    <line x1="83.0001" y1="4.00010000000003" x2="85.0001" y2="4.0001"/>
    <line x1="85.0001" y1="4.0001" x2="85.0001" y2="0.0001"/>
    <line x1="85.0001" y1="0.0001" x2="0.0001" y2="0.0001"/>
    <line x1="0.0001" y1="0.0001" x2="0.0001" y2="4.00010000000003"/>
    <line x1="0.0001" y1="4.00010000000003" x2="2.0001" y2="4.0001"/>
    <line x1="2.0001" y1="4.0001" x2="2.0001" y2="5.0001"/>
    <line x1="2.0001" y1="5.0001" x2="0.0001" y2="5.0001"/>
    <line x1="0.0001" y1="5.0001" x2="0.0001" y2="68.9001"/>
    <line x1="0.0001" y1="68.9001" x2="10.0001" y2="68.9001"/>
    <line x1="10.0001" y1="68.9001" x2="10.0001" y2="71.9001"/>
    <line x1="10.0001" y1="71.9001" x2="30.0001" y2="71.9001"/>
    <line x1="30.0001" y1="71.9001" x2="30.0001" y2="68.9001"/>
    <line x1="42.1118714323462" y1="3.55121126056642" x2="42.5001" y2="3.50010000000003"/>
    <line x1="42.5001" y1="3.50010000000003" x2="42.8883285676538" y2="3.55121126056642"/>
    <line x1="42.8883285676538" y1="3.55121126056642" x2="43.2501" y2="3.70106189432337"/>
    <line x1="43.2501" y1="3.70106189432337" x2="43.5607601717798" y2="3.9394398282202"/>
    <line x1="43.5607601717798" y1="3.9394398282202" x2="43.7991381056767" y2="4.2501"/>
    <line x1="43.7991381056767" y1="4.2501" x2="43.9489887394336" y2="4.61187143234624"/>
    <line x1="43.9489887394336" y1="4.61187143234624" x2="44.0001" y2="5.0001"/>
    <line x1="44.0001" y1="5.0001" x2="43.9489887394336" y2="5.38832856765378"/>
    <line x1="43.9489887394336" y1="5.38832856765378" x2="43.7991381056767" y2="5.7501"/>
    <line x1="43.7991381056767" y1="5.7501" x2="43.5607601717798" y2="6.06076017177983"/>
    <line x1="43.5607601717798" y1="6.06076017177983" x2="43.2501" y2="6.29913810567666"/>
    <line x1="43.2501" y1="6.29913810567666" x2="42.8883285676538" y2="6.44898873943361"/>
    <line x1="42.8883285676538" y1="6.44898873943361" x2="42.5001" y2="6.5001"/>
    <line x1="42.5001" y1="6.5001" x2="42.1118714323462" y2="6.44898873943361"/>
    <line x1="42.1118714323462" y1="6.44898873943361" x2="41.7501" y2="6.29913810567666"/>
    <line x1="41.7501" y1="6.29913810567666" x2="41.4394398282202" y2="6.06076017177983"/>
    <line x1="41.4394398282202" y1="6.06076017177983" x2="41.2010618943233" y2="5.7501"/>
    <line x1="41.2010618943233" y1="5.7501" x2="41.0512112605664" y2="5.38832856765378"/>
    <line x1="41.0512112605664" y1="5.38832856765378" x2="41.0001" y2="5.0001"/>
    <line x1="41.0001" y1="5.0001" x2="41.0512112605664" y2="4.61187143234624"/>
    <line x1="41.0512112605664" y1="4.61187143234624" x2="41.2010618943233" y2="4.25010000000003"/>
    <line x1="41.2010618943233" y1="4.25010000000003" x2="41.4394398282202" y2="3.9394398282202"/>
    <line x1="41.4394398282202" y1="3.9394398282202" x2="41.7501" y2="3.70106189432337"/>
    <line x1="41.7501" y1="3.70106189432337" x2="42.1118714323462" y2="3.55121126056642"/>
    <line x1="28.0001" y1="22.9001" x2="57.0001" y2="22.9001"/>
    <line x1="57.0001" y1="22.9001" x2="57.0001" y2="39.9001"/>
    <line x1="57.0001" y1="39.9001" x2="28.0001" y2="39.9001"/>
    <line x1="28.0001" y1="39.9001" x2="28.0001" y2="22.9001"/>
  </g>
</svg>
