<svg version="1" xmlns="http://www.w3.org/2000/svg" width="74.696" height="72.345" viewBox="0 0 74.696 72.345"><path d="M29.503 43.845V65.345h16V41.407h-16v2.438zm13.063 18.562H32.441V44.345h10.125v18.062z"/><path d="M72.62 39.44l2.076-2.078-9.908-9.913V.47H50.974v13.162L37.349 0 0 37.363l2.077 2.078 7.832-7.832v37.799H5.971v2.938h63.875v-2.938h-5.059v-37.8l7.833 7.832zM53.913 3.408h7.938v21.104l-7.938-7.94V3.408zm7.937 65.999H12.846V28.671L37.348 4.169 61.85 28.671v40.736z"/><path d="M29.753 27.21a7.75 7.75 0 1 0 15.5 0 7.75 7.75 0 0 0-15.5 0zm7.75-4.969a4.97 4.97 0 1 1 0 9.94 4.97 4.97 0 0 1 0-9.94zM16.909 41.407h3v3.938h-3zM22.846 41.407h3v3.938h-3zM16.909 47.407h3v3.938h-3zM22.846 47.407h3v3.938h-3zM48.846 41.407h3v3.938h-3zM54.784 41.407h3v3.938h-3zM48.846 47.407h3v3.938h-3zM54.784 47.407h3v3.938h-3z"/></svg>