<svg version="1" xmlns="http://www.w3.org/2000/svg" width="26.096" height="33.803" viewBox="0 0 26.096 33.803"><path d="M13.047 0L0 1.456v24.475l13.047 7.835v.037l13.049-7.872V1.558L13.047 0zm10.99 24.745l-10.989 6.622v-7.385l-6.369-2.858v-.021l6.373-2.816v-.02h.002v.011l6.365 2.814v-.006l.01.006v-1.234l-6.365-2.813-.004.003-.006-.003v.011h-.002v-.003L6.678 19.87v-1.235l5.849-2.585-1.386-.621-4.463 1.973v-1.234l3.078-1.361-1.386-.621-1.692.748V13.7l.307-.135-3.73-1.675 9.793-4.248V2.084l10.989 1.321v21.34z"/><path d="M19.428 17.39l-4.47-1.977-1.388.622 5.858 2.589zM19.428 14.921l-1.694-.748-1.388.62 3.082 1.362z"/></svg>