<svg version="1" xmlns="http://www.w3.org/2000/svg" width="25.988" height="29.922" viewBox="0 0 25.988 29.922"><path d="M0 0h25.988v29.922l-12.994-4.811L0 29.922V0zm20.154 17.895c-.241 0-.509-.006-.801-.018-.293-.014-.508-.051-.645-.116a1.03 1.03 0 0 1-.5-.469c-.107-.21-.162-.492-.162-.854 0-.394.018-1.211.055-2.457.035-1.244.054-2.318.054-3.226 0-.858-.146-1.556-.439-2.089a3.059 3.059 0 0 0-1.186-1.223 5.036 5.036 0 0 0-1.759-.571 15.18 15.18 0 0 0-2.143-.14c-.562 0-1.172.068-1.83.199a7.427 7.427 0 0 0-1.746.561 4.39 4.39 0 0 0-1.305.885c-.357.357-.536.76-.536 1.209 0 .521.174.946.52 1.271.346.323.857.486 1.533.486.476 0 .827-.043 1.057-.132a2.08 2.08 0 0 0 .621-.374c.139-.119.242-.283.314-.486.072-.205.109-.375.109-.512 0-.306-.057-.621-.17-.951a4.738 4.738 0 0 1-.205-.734c.145-.104.335-.207.572-.308.236-.101.532-.151.885-.151.394 0 .711.09.952.266.241.177.417.393.53.651.104.225.172.501.205.831.031.327.048.593.048.795v1.154c-.468.225-1.206.48-2.22.767-1.013.285-1.881.56-2.604.825a9.04 9.04 0 0 0-1.044.471c-.316.17-.596.381-.838.64-.265.281-.47.604-.614.969-.146.366-.217.811-.217 1.333 0 .909.329 1.637.989 2.189.658.551 1.455.825 2.387.825.627 0 1.115-.044 1.465-.132.35-.089.715-.223 1.092-.396.289-.138.561-.303.814-.494a7.94 7.94 0 0 0 .79-.699h.071c.169.546.484.965.949 1.259.465.293 1.19.438 2.176.438.536 0 1.045-.064 1.525-.192s.896-.269 1.25-.421v-.879zm-6.021-1.302a3.134 3.134 0 0 1-.754.668c-.286.183-.65.271-1.094.271-.419 0-.771-.139-1.057-.42-.287-.282-.43-.738-.43-1.363 0-.475.084-.888.254-1.238.169-.349.403-.638.701-.862a5.284 5.284 0 0 1 1.087-.622c.442-.197.89-.371 1.342-.525l-.049 4.091z"/></svg>