<svg version="1" xmlns="http://www.w3.org/2000/svg" width="459.755" height="79.804" viewBox="0 0 459.755 79.804" fill="#fff"><path d="M44.468 21.737c-3.573-2.978-8.139-4.963-12.903-4.963-3.573 0-8.338 2.084-8.338 6.253 0 4.368 5.261 6.055 8.636 7.146l4.963 1.489c10.422 3.077 18.462 8.337 18.462 20.447 0 7.445-1.787 15.088-7.742 20.15-5.856 4.963-13.698 7.047-21.241 7.047-9.43 0-18.661-3.176-26.304-8.537l8.338-15.682c4.864 4.268 10.621 7.742 17.271 7.742 4.566 0 9.43-2.283 9.43-7.544 0-5.46-7.643-7.345-11.812-8.536-12.208-3.475-20.249-6.65-20.249-21.143C2.979 10.419 13.798.494 28.786.494c7.543 0 16.775 2.382 23.425 6.154l-7.743 15.089zM91.833 18.958v12.506h21.936v16.478H91.833v12.902h23.127v16.478H72.378V2.481h42.582v16.477H91.833zM129.418 2.481h27.594c20.844 0 38.016 16.377 38.016 37.42 0 21.042-17.271 37.42-38.016 37.42h-27.594V2.481zm19.455 58.364h4.367c11.613 0 21.54-6.352 21.54-20.943 0-13.4-8.834-20.943-21.341-20.943h-4.566v41.886zM286.873 38.512c0 24.219-17.37 41.292-41.391 41.292s-41.391-17.072-41.391-41.292C204.091 15.881 223.943 0 245.482 0s41.391 15.881 41.391 38.512zm-62.533.099c0 12.903 9.529 22.333 21.142 22.333s21.142-9.43 21.142-22.333c0-10.323-9.528-19.752-21.142-19.752s-21.142 9.43-21.142 19.752zM297.239 2.481h19.455l35.634 45.758h.198V2.481h19.454v74.841h-19.454l-35.634-45.857h-.198v45.857h-19.455V2.481zM407.347 64.319l-5.161 13.003H381.54l28.785-74.841h21.241l28.189 74.841H439.01l-4.863-13.003h-26.8zm13.598-38.711h-.199l-8.039 23.822h16.179l-7.941-23.822z"/></svg>