<svg version="1" xmlns="http://www.w3.org/2000/svg" width="187.663" height="44.918" viewBox="0 0 187.663 44.918" fill="#81b3d2"><path d="M27.712 0h7.708l-1.21 44.918H19.685L17.71 26.373l-1.975 18.545H1.146L0 0h7.645l.637 37.152h.828L13.888 0h7.581l4.905 37.152h.765L27.712 0zM59.563 37.152v7.766H38.667V0h20.896v7.7H46.312v10.844h10.575v7.7H46.312v10.908h13.251zM80.902 37.152v7.766H62.619V0h7.645v37.152h10.638zM97.146 28.362l7.708-1.797v13.604c0 2.567-2.166 4.749-4.714 4.749H88.672c-2.612 0-4.714-2.182-4.714-4.749V4.749C83.958 2.117 86.061 0 88.672 0h11.467c2.548 0 4.714 2.117 4.714 4.749v9.112l-7.708 1.796V7.7h-5.543v29.452h5.543v-8.79zM125.619 0c2.548 0 4.714 2.117 4.714 4.749v35.42c0 2.567-2.166 4.749-4.714 4.749h-11.468c-2.611 0-4.714-2.182-4.714-4.749V4.749c0-2.631 2.103-4.749 4.714-4.749h11.468zm-2.994 7.7h-5.543v29.452h5.543V7.7zM155.366 0h7.581v44.918h-7.645V22.844l-3.058 11.422h-7.454l-2.994-11.422v22.074h-7.645V0h7.581l6.816 21.688L155.366 0zM187.663 37.152v7.766h-20.896V0h20.896v7.7h-13.251v10.844h10.575v7.7h-10.575v10.908h13.251z"/></svg>