<svg version="1" xmlns="http://www.w3.org/2000/svg" width="293.826" height="79.393" viewBox="0 0 293.826 79.393" fill="#fff"><path d="M33.419 17.06c7.658-2.589 8.242-12.181.693-12.181-2.079 0-4.559 1.459-6.272 4.449L17.628 26.979a14.686 14.686 0 0 1-1.458 2.151c-2.626-3.61-1.86-9.007 1.823-11.378l-1.532-1.933c-7.95 5.069-5.616 19.693 7.659 19.693 11.342.001 16.593-13.602 9.299-18.452zm-9.372 15.535c-2.261 0-4.048-.511-5.47-1.313.657-.766 1.313-1.714 1.896-2.699l6.382-11.05 1.021.109c8.898 1.861 5.361 14.953-3.829 14.953zm4.084-17.286l3.063-5.251c2.771-4.777 6.309-1.969 4.413 1.604-1.458 2.735-3.61 3.574-7.476 3.647z"/><path d="M65.499 29.321c-.629 2.248.573 4.076 3.146 4.076 1.532 0 3.428-.985 5.251-2.48.183 1.459 1.35 2.48 3.282 2.48 2.02 0 4.235-1.395 6.394-3.358-.42 2.048.541 3.358 2.41 3.358 2.079 0 4.413-1.896 6.236-3.647-.365 2.042.839 3.647 3.246 3.647 3.136 0 6.747-3.355 9.883-7.002-.025-.05-.069-.102-.101-.152 2.097-2.437 3.946-5.026 5.268-6.777-1.496 3.939-.693 11.014-4.304 11.014-1.276 0-1.787-1.386-1.787-1.386l-2.371 1.24s.693 3.063 4.157 3.063c.365 0 .693-.037 1.058-.073.037 0 .073-.036.109-.036 2.786-.368 5.55-2.064 7.943-4.224.058 2.495 1.995 4.333 5.145 4.333 4.303 0 8.57-3.355 11.707-7.002-.255-.511-.912-1.094-1.422-1.313l-.255.292c-2.735 3.172-6.236 5.689-8.898 5.689-2.334 0-3.72-1.459-1.969-4.522l.365-.657c2.443 1.021 7.039.547 9.883-4.376l.547-.948c2.042-3.501.073-6.127-3.027-6.127-3.063 0-5.507 1.605-7.111 4.376l-3.683 6.318c-.035-.012-.071-.037-.105-.046l-.255.292a23.674 23.674 0 0 1-4.558 4.121c1.203-3.61.948-9.153 3.282-14.004l-2.844-1.532c-1.568 2.152-4.996 7.112-8.424 11.123.032.046.074.091.11.138l-.135.154c-2.735 3.172-5.397 5.689-7.075 5.689-.838 0-1.312-.583-.438-2.079l8.096-14.187h-3.793l-6.747 11.779c-2.881 2.626-5.105 4.084-5.835 3.756-.948-.401 0-1.823.474-2.625l7.403-12.91h-3.793l-6.036 10.446c-.098-.06-.196-.123-.288-.162l-.255.292c-2.735 3.172-5.397 5.689-7.075 5.689-.838 0-1.312-.583-.438-2.079l6.127-10.722h-2.152c.146-1.605-1.495-3.83-3.975-3.83-2.042 0-4.887 1.605-6.491 4.376l-3.846 6.637a2.813 2.813 0 0 0-.577-.365l-.255.292c-2.735 3.172-6.236 5.689-8.898 5.689-2.334 0-3.72-1.459-1.97-4.522l3.902-6.783c2.188-3.756 6.054-3.136 3.792.802l-.547.948h3.1l.547-.948c2.042-3.501.073-6.127-3.027-6.127-3.063 0-5.507 1.605-7.111 4.376l-3.77 6.467a2.417 2.417 0 0 0-.347-.195l-.255.292c-2.735 3.172-6.236 5.689-8.898 5.689-2.334 0-3.72-1.459-1.97-4.522l.365-.657c2.443 1.021 7.039.547 9.883-4.376l.547-.948c2.042-3.501.073-6.127-3.027-6.127-3.063 0-5.507 1.605-7.111 4.376l-3.975 6.819c-2.371 4.048-.328 7.768 4.157 7.768 3.341 0 6.657-2.024 9.442-4.635-.098 2.647 1.865 4.635 5.141 4.635 3.097.006 6.174-1.735 8.826-4.07zm58.029-9.563c2.188-3.756 6.054-3.136 3.792.802l-.547.948c-1.823 3.1-4.267 3.027-5.689 2.516l2.444-4.266zm-54.191 9.227l5.288-9.227c2.042-3.538 6.09-2.626 4.23.802l-2.954 5.179c-2.297 3.61-4.559 5.324-6.126 5.324-.839 0-1.313-.583-.438-2.078zm-24.184-9.227c2.188-3.756 6.054-3.136 3.792.802l-.547.948c-1.823 3.1-4.267 3.027-5.689 2.516l2.444-4.266zM173.737 33.397c4.304 0 8.57-3.355 11.706-7.002-.255-.511-.911-1.094-1.422-1.313l-.255.292c-2.735 3.172-6.236 5.689-8.898 5.689-2.334 0-3.72-1.459-1.97-4.522l.365-.657c2.443 1.021 7.038.547 9.883-4.376l.547-.948c2.042-3.501.073-6.127-3.027-6.127-3.062 0-5.506 1.605-7.111 4.376l-3.693 6.336c-.037-.019-.077-.048-.113-.064l-.256.292c-2.734 3.172-5.396 5.689-7.074 5.689-.839 0-1.313-.583-.438-2.079l5.47-9.591c1.642-2.881.073-4.96-2.042-4.96-1.642 0-3.392.912-5.288 2.881l6.054-10.54h-3.793l-10.697 18.559a2.506 2.506 0 0 0-.434-.251l-.256.292c-2.735 3.172-5.397 5.689-7.075 5.689-.838 0-1.312-.583-.438-2.079l8.133-14.187h3.1l1.095-1.823h-3.137l3.574-6.2h-3.793l-3.574 6.2h-3.428l-1.094 1.823h3.464L140.199 28c-1.604 2.808-.474 5.397 2.589 5.397 1.885 0 3.941-1.216 5.962-2.975l-1.504 2.61h3.83l5.762-10.029c5.835-7.33 8.424-6.382 6.783-3.574L158.698 28c-1.604 2.808-.475 5.397 2.589 5.397 2.305 0 4.864-1.813 7.304-4.221.112 2.439 2.042 4.221 5.146 4.221zm3.063-13.639c2.188-3.756 6.054-3.136 3.793.802l-.547.948c-1.824 3.1-4.268 3.027-5.689 2.516l2.443-4.266zM288.756 25.083l-.256.292c-2.734 3.172-5.397 5.689-7.074 5.689-.839 0-1.313-.583-.438-2.079l12.837-22.209h-3.793l-5.58 9.628c-.656-1.058-1.896-1.97-3.464-1.97-2.043 0-4.888 1.605-6.492 4.376l-3.711 6.406c-.08-.047-.162-.101-.237-.133l-.256.292c-2.734 3.172-5.396 5.689-7.074 5.689-.839 0-1.313-.583-.438-2.079l5.47-9.591c1.642-2.881.073-4.96-2.042-4.96-1.642 0-3.355.875-5.252 2.845l1.423-2.48h-3.793l-6.062 10.487a2.521 2.521 0 0 0-.36-.203l-.256.292c-2.734 3.172-5.397 5.689-7.074 5.689-.839 0-1.313-.583-.438-2.079l6.126-10.722h-2.151c.146-1.605-1.495-3.83-3.975-3.83-2.043 0-4.888 1.605-6.492 4.376l-3.667 6.329-.206.235c-2.734 3.172-5.397 5.689-7.074 5.689-.839 0-1.313-.583-.438-2.079l3.792-6.637c1.313-2.298.693-3.647-.547-5.142l-2.115-2.553c-.547-.693-.547-1.458.219-2.188l-1.969-2.151c-2.152 1.933-2.334 4.084-.985 5.835l.329.438c-1.678 2.371-3.939 5.58-6.419 8.497.074.108.163.215.258.322-3.125 3.592-5.781 5.918-8.763 7.191l4.813-8.242h-3.792l-.401.657c-2.006 3.537-4.304 6.054-7.258 6.054-2.589 0-3.062-2.589-.802-6.455l1.058-1.86c.692.109 1.386.183 2.151.183 13.493 0 20.021-18.052 8.133-18.052-2.079 0-4.559 1.459-6.272 4.449l-5.908 10.175c-2.225-1.167-3.392-3.282-3.392-5.397 0-1.75.803-3.501 2.443-4.777l-1.24-2.225c-2.698 1.933-3.901 4.522-3.901 7.075 0 3.027 1.714 5.944 4.777 7.549l-1.131 1.969c-2.662 4.595-2.188 9.701 3.173 9.701 1.604 0 2.954-.474 4.121-1.204l-.985 1.714c-5.142 1.568-8.314 3.646-8.314 6.491 0 3.647 5.58 4.413 8.314-.255l2.918-4.996c3.938-1.24 7.804-3.938 11.962-8.752a2.242 2.242 0 0 0-.236-.357c1.684-1.979 3.114-3.888 5.97-7.775l.51.62c.475.62.657 1.386.219 2.152L223.238 28c-1.605 2.808-.475 5.397 2.589 5.397 1.907 0 3.989-1.244 6.033-3.036-.044 1.745 1.149 3.036 3.311 3.036 1.531 0 3.428-.985 5.251-2.48.183 1.459 1.35 2.48 3.282 2.48 1.816 0 3.792-1.129 5.742-2.785l-1.398 2.42h3.829l5.798-10.102c5.799-7.257 8.388-6.309 6.747-3.501L259.499 28c-1.604 2.808-.475 5.397 2.589 5.397 2.016 0 4.226-1.388 6.381-3.346-.202 1.901 1.006 3.346 3.294 3.346 1.531 0 3.428-.985 5.251-2.48.183 1.459 1.35 2.48 3.282 2.48 3.137 0 6.747-3.355 9.883-7.002-.256-.51-.912-1.094-1.423-1.312zm-77.963-14.15c1.131-1.933 2.371-2.771 3.429-2.771 6.018 0 1.787 12.253-8.133 12.253h-.766l5.47-9.482zm-8.059 28.591c-.802 1.422-2.078 1.204-2.078.183 0-.985.875-2.115 3.793-3.246l-1.715 3.063zm39.693-13.785c-2.298 3.61-4.559 5.324-6.127 5.324-.839 0-1.312-.583-.438-2.079l5.288-9.227c2.042-3.538 6.09-2.626 4.23.802l-2.953 5.18zm36.701-.219c-2.298 3.756-4.632 5.543-6.236 5.543-.839 0-1.312-.583-.438-2.079l5.288-9.227c2.042-3.538 6.09-2.626 4.23.802h.036l-2.88 4.961zM162.051 61.082l-.255.293c-2.735 3.172-5.397 5.688-7.075 5.688-.839 0-1.312-.583-.438-2.079l5.471-9.591c1.641-2.881.072-4.96-2.043-4.96-1.641 0-3.354.875-5.251 2.845l1.422-2.479h-3.793l-6.112 10.574a2.71 2.71 0 0 0-.484-.291l-.255.293c-1.714 1.859-3.83 2.771-5.726 2.808l3.574-6.163c2.297-3.976.182-7.731-3.392-7.731-2.917 0-5.178 1.167-7.367 4.96l-1.86 3.245-1.626 2.782a2.418 2.418 0 0 0-.343-.193l-.255.293c-3.136 3.609-5.798 5.943-8.789 7.221L127.848 50.8h-3.792l-6.71 11.67c-2.917 2.698-5.178 4.193-5.908 3.865-.948-.4 0-1.823.474-2.625l7.403-12.91h-3.793l-6.051 10.47a2.461 2.461 0 0 0-.331-.187l-.255.293c-2.735 3.172-5.397 5.688-7.075 5.688-.838 0-1.312-.583-.438-2.079l5.47-9.591c1.641-2.881.073-4.96-2.042-4.96-1.641 0-3.355.875-5.251 2.845l1.422-2.479h-3.793l-6.062 10.486a2.521 2.521 0 0 0-.36-.203l-.255.293c-2.735 3.172-5.397 5.688-7.075 5.688-.838 0-1.312-.583-.438-2.079l6.127-10.721h-2.152c.146-1.605-1.495-3.83-3.975-3.83-2.042 0-4.887 1.605-6.491 4.377l-3.918 6.762c-.259-.235-.558-.417-.831-.49l-.255.293c-2.735 3.172-6.09 5.688-9.847 5.688-2.589 0-4.157-2.589-1.896-6.455l1.058-1.86c.693.109 1.386.184 2.151.184 4.048 0 8.643-2.08 11.634-7.295 1.057-1.859 1.531-3.609 1.531-5.105 0-3.428-2.225-5.652-5.032-5.652-2.079 0-4.559 1.459-6.273 4.449l-5.908 10.175c-2.225-1.167-3.392-3.282-3.392-5.397 0-1.75.802-3.501 2.443-4.777l-1.24-2.225c-2.699 1.934-3.902 4.521-3.902 7.075 0 3.026 1.714 5.944 4.777 7.549l-1.13 1.97c-2.662 4.595-1.094 9.7 4.267 9.7 4.241 0 7.353-1.889 9.968-4.372-.826 2.383.374 4.372 3.059 4.372 1.532 0 3.428-.985 5.251-2.479.183 1.459 1.35 2.479 3.282 2.479 1.816 0 3.792-1.129 5.742-2.784l-1.399 2.42h3.83l5.798-10.102c5.798-7.258 8.388-6.31 6.747-3.502L98.09 64c-1.604 2.809-.474 5.397 2.589 5.397 2.041 0 4.282-1.425 6.464-3.423-.455 2.086.509 3.423 2.398 3.423 1.824 0 3.902-1.532 5.616-3.063l-2.079 3.574c-5.142 1.531-8.351 3.646-8.351 6.491 0 3.647 5.58 4.413 8.314-.255l2.917-4.996c3.171-.998 6.297-2.965 9.563-6.196-.524 5.297 6.533 6.505 10.786 1.126h.839c1.385 0 3.26-.523 4.952-1.455l-2.549 4.41h3.83l5.798-10.102c5.798-7.258 8.388-6.31 6.747-3.502L151.001 64c-1.604 2.809-.475 5.397 2.59 5.397 3.136 0 6.746-3.354 9.883-7.002-.256-.51-.912-1.094-1.423-1.313zM67.664 46.933c1.13-1.933 2.371-2.771 3.428-2.771 1.422 0 2.079.948 2.079 2.334 0 3.538-4.303 9.919-10.211 9.919h-.766l5.47-9.482zm13.355 14.806c-2.297 3.61-4.559 5.324-6.127 5.324-.838 0-1.312-.583-.438-2.079l5.288-9.227c2.042-3.537 6.09-2.625 4.23.803l-2.953 5.179zm28.851 13.784c-.803 1.423-2.079 1.204-2.079.184 0-.985.912-2.115 3.829-3.246l-1.75 3.062zm25.527-14.185h-.183c-1.24 0-2.225 1.021-2.225 2.262 0 .474.146.911.365 1.275l-.036.073c-1.787 3.063-6.127 2.479-3.866-1.459l2.881-4.996 1.823-3.1c2.663-4.522 6.309-2.735 4.012 1.204l-2.771 4.741zM249.958 62.396c-.219-.583-.875-1.167-1.422-1.313l-.256.293a23.61 23.61 0 0 1-4.559 4.12c1.204-3.61.948-9.153 3.282-14.004l-2.845-1.532c-1.567 2.152-4.996 7.112-8.424 11.123.006.01.015.018.021.026-.015-.007-.031-.02-.046-.026l-.255.293c-2.735 3.172-5.397 5.688-7.075 5.688-.839 0-1.641-.839-1.641-2.553v-1.568c2.662.328 5.47-1.423 7.257-4.522l1.021-1.75c3.537-6.054-2.225-8.06-6.091-4.521l5.397-9.373h-3.793l-10.816 18.766a2.972 2.972 0 0 0-.695-.459l-.255.293c-2.735 3.172-6.236 5.688-8.898 5.688-2.334 0-3.72-1.459-1.97-4.522l3.902-6.783c2.188-3.756 6.054-3.136 3.793.803l-.547.948h3.1l.547-.948c2.042-3.501.073-6.127-3.027-6.127-3.062 0-5.507 1.605-7.111 4.377l-3.732 6.404c-.079-.047-.161-.101-.235-.133l-.256.293c-2.734 3.172-5.396 5.688-7.074 5.688-.839 0-1.313-.583-.438-2.079l8.096-14.186h-3.793l-6.746 11.779c-2.882 2.625-5.106 4.084-5.835 3.756-.948-.4 0-1.823.474-2.625l7.403-12.91h-3.793l-7.365 12.744a22.937 22.937 0 0 1-2.45 1.952c1.203-3.61.948-9.153 3.282-14.004l-2.845-1.532c-1.568 2.152-10.32 13.75-13.749 17.761.328.474.876.948 1.423 1.313 2.151-2.48 9.372-11.779 10.722-13.566-1.495 3.938-.693 11.014-4.304 11.014-1.276 0-1.787-1.387-1.787-1.387l-2.37 1.24s.693 3.063 4.157 3.063c.365 0 .693-.036 1.058-.073.036 0 .073-.036.109-.036 1.926-.255 3.841-1.142 5.631-2.379-.013 1.542.919 2.488 2.508 2.488 2.078 0 4.412-1.896 6.235-3.647-.364 2.043.839 3.647 3.246 3.647 2.355 0 4.979-1.893 7.467-4.38.034 2.519 1.975 4.38 5.145 4.38 3.078 0 6.136-1.72 8.776-4.032l-2.114 3.668h3.829l4.34-7.549v3.026c0 3.245.62 4.887 3.683 4.887 3.137 0 6.747-3.354 9.884-7.002-.006-.011-.017-.022-.022-.034l.047.034c2.152-2.479 4.049-5.142 5.397-6.929-1.495 3.938-.692 11.014-4.303 11.014-1.276 0-1.787-1.387-1.787-1.387l-2.37 1.24s.692 3.063 4.157 3.063c.364 0 .692-.036 1.058-.073.036 0 .072-.036.109-.036 3.865-.511 7.694-3.574 10.538-6.892zm-25.188-2.991l1.094-1.896c4.377-6.091 7.367-4.413 6.018-2.115l-1.823 3.136c-1.132 1.969-4.45 3.355-5.289.875zM249.811 64.984c-1.239 0-2.188.984-2.188 2.225s.948 2.188 2.188 2.188c1.24 0 2.225-.948 2.225-2.188s-.985-2.225-2.225-2.225zM249.994 63.489h3.829l11.888-20.714h-3.792z"/><g><path d="M5.75 6.9a2.444 2.444 0 0 1-.676 1.675 2.603 2.603 0 0 1-.829.575c-.327.147-.694.22-1.1.22-.451 0-.885-.084-1.302-.253a2.947 2.947 0 0 1-1.065-.728A3.118 3.118 0 0 1 .203 7.34 4.017 4.017 0 0 1 0 6.055c0-.856.152-1.646.457-2.368a5.994 5.994 0 0 1 1.302-1.928c.248-.248.529-.479.845-.694.316-.213.615-.394.897-.541.281-.146.524-.264.727-.355.203-.09.327-.146.372-.169l1.353 1.996c-.249.09-.524.209-.829.355a4.628 4.628 0 0 0-.862.541 2.91 2.91 0 0 0-.677.761c-.18.293-.282.632-.304 1.015.654 0 1.229.192 1.725.575s.744.936.744 1.657zm7.866 0a2.444 2.444 0 0 1-.676 1.674 2.587 2.587 0 0 1-.829.575c-.328.147-.694.22-1.1.22-.451 0-.885-.084-1.302-.253a2.932 2.932 0 0 1-1.065-.727 3.136 3.136 0 0 1-.575-1.049 4.045 4.045 0 0 1-.203-1.285c0-.856.152-1.646.457-2.368a5.994 5.994 0 0 1 1.302-1.928c.248-.248.529-.479.846-.693a9.05 9.05 0 0 1 .896-.541c.282-.146.524-.265.728-.355.203-.09.327-.146.372-.169l1.353 1.996c-.249.09-.524.209-.829.355a4.635 4.635 0 0 0-.863.541 2.889 2.889 0 0 0-.676.761 2.14 2.14 0 0 0-.305 1.015c.654 0 1.229.192 1.725.575.496.382.744.935.744 1.656z"/></g><g><path d="M278.776 65.842c0-.294.057-.588.168-.88.113-.294.283-.558.508-.795.226-.237.502-.429.828-.575.328-.146.694-.22 1.1-.22.451 0 .886.085 1.303.253.418.17.772.412 1.065.729.249.293.44.643.575 1.048.135.406.203.834.203 1.286 0 .855-.152 1.645-.457 2.367a5.997 5.997 0 0 1-1.303 1.928 5.703 5.703 0 0 1-.846.693 8.475 8.475 0 0 1-.896.541c-.281.146-.523.266-.727.355s-.326.146-.372.17l-1.353-1.996c.248-.09.523-.209.828-.355s.592-.327.863-.541c.27-.215.496-.469.676-.762a2.14 2.14 0 0 0 .305-1.014 2.739 2.739 0 0 1-1.725-.576c-.495-.383-.743-.936-.743-1.656zm-7.867 0c0-.294.057-.588.17-.88.113-.294.281-.558.507-.795s.503-.429.829-.575c.327-.146.693-.22 1.1-.22.451 0 .885.085 1.302.253.417.17.772.412 1.065.729.248.293.439.643.575 1.048.136.406.202.834.202 1.286 0 .855-.151 1.645-.456 2.367a5.994 5.994 0 0 1-1.302 1.928c-.248.248-.529.479-.846.693s-.614.395-.896.541c-.281.146-.524.266-.728.355s-.327.146-.372.17l-1.354-1.996c.249-.09.525-.209.829-.355.305-.146.593-.327.862-.541.271-.215.496-.469.677-.762s.282-.631.305-1.014a2.745 2.745 0 0 1-1.726-.576c-.494-.383-.743-.936-.743-1.656z"/></g></svg>