<svg version="1" xmlns="http://www.w3.org/2000/svg" width="255.917" height="28.91" viewBox="0 0 255.917 28.91" fill="#7c6b60"><path d="M63.999 14.454l-.202.23c-1.353 1.468-3.023 2.188-4.521 2.217l2.822-4.866c1.814-3.138.144-6.104-2.678-6.104-2.304 0-4.089.921-5.816 3.916l-1.468 2.562-1.227 2.098-.154.177c-2.159 2.505-4.261 4.491-5.586 4.491-.662 0-1.037-.461-.345-1.641l6.421-11.201h2.447l.864-1.44H52.08L54.902 0h-2.995l-2.822 4.895h-2.707l-.864 1.44h2.735l-6.018 10.423c-1.267 2.217-.374 4.262 2.044 4.262 1.739 0 3.662-1.309 5.511-3.084-.005 3.816 5.298 4.561 8.539.463h.662c1.785 0 4.607-1.094 6.133-2.908-.2-.404-.718-.864-1.121-1.037zm-6.392.202h-.144c-.979 0-1.756.806-1.756 1.786 0 .373.115.719.288 1.008l-.029.057c-1.411 2.419-4.837 1.958-3.052-1.151l2.274-3.945 1.44-2.447c2.102-3.57 4.981-2.16 3.167.95l-2.188 3.742zM105.455 14.454l-.202.23c-2.16 2.505-4.924 4.491-7.025 4.491-1.843 0-2.937-1.151-1.555-3.57l.288-.519c1.929.806 5.557.432 7.803-3.455l.432-.749c1.612-2.764.058-4.837-2.39-4.837-2.419 0-4.348 1.267-5.615 3.455l-2.906 4.985-.173.198c-2.16 2.505-4.261 4.491-5.586 4.491-.662 0-1.037-.461-.346-1.641l4.32-7.571c1.295-2.275.058-3.916-1.613-3.916-1.295 0-2.678.72-4.175 2.274L91.492 0h-2.995l-8.354 14.492-.168.192c-2.159 2.505-4.261 4.491-5.586 4.491-.662 0-1.037-.461-.345-1.641l6.421-11.201h2.447l.864-1.44H81.3L84.123 0h-2.995l-2.822 4.895H75.6l-.864 1.44h2.735l-6.018 10.423c-1.267 2.217-.374 4.262 2.044 4.262 1.213 0 2.517-.639 3.822-1.627l-.771 1.338h3.023l4.549-7.917c4.607-5.788 6.651-5.039 5.355-2.822l-3.887 6.767c-1.267 2.217-.374 4.262 2.044 4.262 1.782 0 3.757-1.375 5.647-3.217.144 1.865 1.653 3.217 4.054 3.217 3.397 0 6.766-2.649 9.243-5.529-.2-.405-.718-.865-1.121-1.038zm-5.701-4.204c1.728-2.965 4.78-2.476 2.995.634l-.432.749c-1.439 2.447-3.369 2.39-4.492 1.987l1.929-3.37zM214.624 14.454l-.201.23a18.711 18.711 0 0 1-3.6 3.253c.95-2.85.749-7.227 2.592-11.056l-2.246-1.209c-1.238 1.699-3.944 5.615-6.651 8.782l.001.001-.201.229c-2.159 2.505-4.261 4.491-5.586 4.491-.662 0-1.036-.461-.345-1.641l6.392-11.201h-2.994l-5.327 9.3c-2.274 2.072-4.031 3.225-4.606 2.965-.749-.316 0-1.439.374-2.072l5.845-10.193h-2.994l-4.694 8.124-.198.227c-1.354 1.468-3.023 2.188-4.521 2.217l2.821-4.866c1.814-3.138.145-6.104-2.678-6.104-2.303 0-4.088.921-5.815 3.916l-1.469 2.562-1.226 2.097-.155.178c-2.159 2.505-4.924 4.491-7.025 4.491-1.843 0-2.938-1.151-1.555-3.57l.288-.519c1.929.806 5.557.432 7.803-3.455l.432-.749c1.612-2.764.058-4.837-2.39-4.837-2.419 0-4.348 1.267-5.615 3.455l-2.904 4.984-.175.199c-2.476 2.851-4.606 4.692-6.968 5.7l6.709-11.459h-1.757c0-1.238-1.267-2.879-3.138-2.879-1.612 0-3.858 1.267-5.126 3.455l-2.871 4.957-.007-.004-.201.23c-2.159 2.505-4.262 4.491-5.586 4.491-.662 0-1.036-.461-.346-1.641l2.995-5.241c1.036-1.814.547-2.879-.433-4.06l-1.67-2.016c-.432-.547-.432-1.152.173-1.728l-1.555-1.699c-1.699 1.526-1.843 3.225-.777 4.607l.259.346c-1.324 1.872-3.109 4.405-5.067 6.709l.001.001-.2.229c-1.354 1.468-3.023 2.188-4.521 2.217l2.821-4.866c1.814-3.138.145-6.104-2.678-6.104-2.303 0-4.088.921-5.815 3.916l-1.469 2.562-1.228 2.101-.152.174c-2.477 2.851-4.607 4.692-6.968 5.7l6.709-11.459h-1.756c0-1.238-1.267-2.879-3.139-2.879-1.612 0-3.858 1.267-5.125 3.455l-4.204 7.256c-1.267 2.217-.374 4.262 2.044 4.262.835 0 1.843-.375 2.851-1.008l-.835 1.41c-4.031 1.238-6.565 2.879-6.565 5.125 0 2.88 4.405 3.484 6.565-.201l2.275-3.945c2.396-.747 4.743-2.156 7.18-4.482-.022 3.832 5.293 4.585 8.539.48h.662c1.785 0 4.607-1.094 6.133-2.908l-.001-.001c1.439-1.67 2.562-3.167 4.951-6.419l.403.489c.374.49.519 1.094.173 1.699l-3.167 5.5c-1.268 2.217-.375 4.262 2.044 4.262 1.518 0 3.176-.997 4.802-2.43-.049 1.391.879 2.43 2.597 2.43.835 0 1.843-.375 2.851-1.008l-.835 1.41c-4.031 1.238-6.564 2.879-6.564 5.125 0 2.88 4.405 3.484 6.564-.201l2.274-3.945c2.44-.761 4.83-2.214 7.315-4.617.134 1.875 1.647 3.236 4.057 3.236 2.438 0 4.859-1.367 6.948-3.201-.118 3.92 5.266 4.721 8.541.58h.662c.938 0 2.158-.308 3.329-.856-.805 2.081-.063 3.478 1.65 3.478 1.641 0 3.483-1.498 4.923-2.88-.288 1.612.662 2.88 2.562 2.88 2.477 0 5.327-2.649 7.804-5.529l-.001-.001c1.698-1.958 3.195-4.059 4.261-5.469-1.181 3.109-.548 8.695-3.398 8.695-1.008 0-1.41-1.094-1.41-1.094l-1.872.979s.547 2.42 3.282 2.42c.288 0 .548-.029.835-.059.029 0 .058-.028.087-.028 3.052-.403 6.075-2.821 8.321-5.442-.174-.46-.693-.921-1.124-1.036zm-42.983-4.204c1.728-2.965 4.779-2.476 2.994.634l-.432.749c-1.44 2.447-3.369 2.39-4.492 1.987l1.93-3.37zm-57.176 15.605c-.634 1.123-1.641.951-1.641.145 0-.777.72-1.67 2.994-2.562l-1.353 2.417zm1.382-6.679c-.662 0-1.037-.461-.345-1.641l4.175-7.285c1.612-2.793 4.809-2.073 3.34.634l-2.274 3.973c-1.815 2.909-3.629 4.319-4.896 4.319zm18.397-4.52h-.145c-.979 0-1.756.806-1.756 1.786 0 .373.115.719.288 1.008l-.029.057c-1.41 2.419-4.837 1.958-3.052-1.151l2.274-3.945 1.439-2.447c2.103-3.57 4.981-2.16 3.168.95l-2.187 3.742zm18.827 11.199c-.634 1.123-1.642.951-1.642.145 0-.777.72-1.67 2.995-2.562l-1.353 2.417zm1.382-6.679c-.662 0-1.036-.461-.346-1.641l4.176-7.285c1.612-2.793 4.808-2.073 3.34.634l-2.275 3.973c-1.814 2.909-3.629 4.319-4.895 4.319zm29.539-4.52h-.145c-.979 0-1.756.806-1.756 1.786 0 .373.115.719.288 1.008l-.029.057c-1.41 2.419-4.837 1.958-3.052-1.151l2.274-3.945 1.439-2.447c2.103-3.57 4.981-2.16 3.168.95l-2.187 3.742zM0 11.275h28.917v1.958H0zM227 11.275h28.918v1.958H227z"/></svg>