<?xml version="1.0" standalone="no"?>
<!DOCTYPE svg PUBLIC "-//W3C//DTD SVG 1.1//EN" "http://www.w3.org/Graphics/SVG/1.1/DTD/svg11.dtd">
<svg width="126.0002mm" height="66.0002mm"
 viewBox="0 0 126.0002 66.0002"
 xmlns="http://www.w3.org/2000/svg" version="1.1"
 xmlns:xlink="http://www.w3.org/1999/xlink">
<desc>Output from Flights of Ideas SVG Sketchup Plugin</desc>

  <g id="face0" fill="none" stroke="rgb(0,0,255)" stroke-width="0.0001" stroke-miterlimit="4" stroke-dasharray="none" stroke-linejoin="round" stroke-linecap="round">
    <line x1="126.0001" y1="0.0001" x2="0.0001" y2="0.0001"/>
    <line x1="0.0001" y1="0.0001" x2="0.0001" y2="63.0000999999999"/>
    <line x1="0.0001" y1="63.0000999999999" x2="13.0001" y2="63.0001"/>
    <line x1="13.0001" y1="63.0001" x2="13.0000999999999" y2="66.0000999999999"/>
    <line x1="13.0000999999999" y1="66.0000999999999" x2="33.0001" y2="66.0000999999999"/>
    <line x1="33.0001" y1="66.0000999999999" x2="33.0000999999999" y2="63.0001"/>
    <line x1="33.0000999999999" y1="63.0001" x2="53.5001" y2="63.0001"/>
    <line x1="53.5001" y1="63.0001" x2="53.5001" y2="61.0001"/>
    <line x1="53.5001" y1="61.0001" x2="52.2001" y2="61.0001"/>
    <line x1="52.2001" y1="61.0001" x2="52.2001" y2="58.8001"/>
    <line x1="52.2001" y1="58.8001" x2="53.5001" y2="58.8001"/>
    <line x1="53.5001" y1="58.8001" x2="53.5001" y2="55.8001"/>
    <line x1="53.5001" y1="55.8001" x2="56.5001" y2="55.8001"/>
    <line x1="56.5001" y1="55.8001" x2="56.5001" y2="58.8001"/>
    <line x1="56.5001" y1="58.8001" x2="57.8001" y2="58.8001"/>
    <line x1="57.8001" y1="58.8001" x2="57.8001" y2="61.0001"/>
    <line x1="57.8001" y1="61.0001" x2="56.5001" y2="61.0001"/>
    <line x1="56.5001" y1="61.0001" x2="56.5001" y2="63.0001"/>
    <line x1="56.5001" y1="63.0001" x2="83.0001" y2="63.0001"/>
    <line x1="83.0001" y1="63.0001" x2="83.0001" y2="66.0000999999999"/>
    <line x1="83.0001" y1="66.0000999999999" x2="113.0001" y2="66.0001"/>
    <line x1="113.0001" y1="66.0001" x2="113.0001" y2="63.0001"/>
    <line x1="113.0001" y1="63.0001" x2="126.0001" y2="63.0001"/>
    <line x1="126.0001" y1="63.0001" x2="126.0001" y2="0.0001"/>
    <line x1="13.0001" y1="2.00010000000068" x2="22.0001" y2="2.00010000000003"/>
    <line x1="22.0001" y1="2.00010000000003" x2="22.0001" y2="12.7001"/>
    <line x1="22.0001" y1="12.7001" x2="13.0001" y2="12.7000999999999"/>
    <line x1="13.0001" y1="12.7000999999999" x2="13.0001" y2="2.00010000000068"/>
    <line x1="110.0001" y1="33.0000999999999" x2="80.0001" y2="33.0000999999999"/>
    <line x1="80.0001" y1="33.0000999999999" x2="80.0001" y2="30.0001"/>
    <line x1="80.0001" y1="30.0001" x2="110.0001" y2="30.0001"/>
    <line x1="110.0001" y1="30.0001" x2="110.0001" y2="33.0000999999999"/>
    <line x1="16.0001" y1="33.0001" x2="16.0001" y2="30.0001"/>
    <line x1="16.0001" y1="30.0001" x2="36.0001" y2="30.0000999999999"/>
    <line x1="36.0001" y1="30.0000999999999" x2="36.0001" y2="33.0001"/>
    <line x1="36.0001" y1="33.0001" x2="16.0001" y2="33.0001"/>
    <line x1="4.11187143234622" y1="12.0512112605664" x2="4.50010000000003" y2="12.0001"/>
    <line x1="4.50010000000003" y1="12.0001" x2="4.88832856765378" y2="12.0512112605662"/>
    <line x1="4.88832856765378" y1="12.0512112605662" x2="5.25009999999997" y2="12.2010618943233"/>
    <line x1="5.25009999999997" y1="12.2010618943233" x2="5.56076017177983" y2="12.4394398282203"/>
    <line x1="5.56076017177983" y1="12.4394398282203" x2="5.79913810567666" y2="12.7501"/>
    <line x1="5.79913810567666" y1="12.7501" x2="5.94898873943361" y2="13.1118714323464"/>
    <line x1="5.94898873943361" y1="13.1118714323464" x2="6.0001" y2="13.5000999999999"/>
    <line x1="6.0001" y1="13.5000999999999" x2="5.94898873943361" y2="13.8883285676539"/>
    <line x1="5.94898873943361" y1="13.8883285676539" x2="5.79913810567666" y2="14.2500999999999"/>
    <line x1="5.79913810567666" y1="14.2500999999999" x2="5.56076017177983" y2="14.5607601717798"/>
    <line x1="5.56076017177983" y1="14.5607601717798" x2="5.25009999999997" y2="14.7991381056768"/>
    <line x1="5.25009999999997" y1="14.7991381056768" x2="4.88832856765378" y2="14.9489887394336"/>
    <line x1="4.88832856765378" y1="14.9489887394336" x2="4.50010000000003" y2="15.0000999999999"/>
    <line x1="4.50010000000003" y1="15.0000999999999" x2="4.11187143234622" y2="14.9489887394336"/>
    <line x1="4.11187143234622" y1="14.9489887394336" x2="3.7501" y2="14.7991381056768"/>
    <line x1="3.7501" y1="14.7991381056768" x2="3.43943982822017" y2="14.5607601717799"/>
    <line x1="3.43943982822017" y1="14.5607601717799" x2="3.20106189432334" y2="14.2500999999999"/>
    <line x1="3.20106189432334" y1="14.2500999999999" x2="3.05121126056642" y2="13.8883285676539"/>
    <line x1="3.05121126056642" y1="13.8883285676539" x2="3.0001" y2="13.5000999999999"/>
    <line x1="3.0001" y1="13.5000999999999" x2="3.05121126056642" y2="13.1118714323464"/>
    <line x1="3.05121126056642" y1="13.1118714323464" x2="3.20106189432329" y2="12.7500999999998"/>
    <line x1="3.20106189432329" y1="12.7500999999998" x2="3.43943982822017" y2="12.4394398282202"/>
    <line x1="3.43943982822017" y1="12.4394398282202" x2="3.7501" y2="12.2010618943233"/>
    <line x1="3.7501" y1="12.2010618943233" x2="4.11187143234622" y2="12.0512112605664"/>
    <line x1="121.111871432346" y1="12.0512112605664" x2="121.5001" y2="12.0001"/>
    <line x1="121.5001" y1="12.0001" x2="121.888328567654" y2="12.0512112605664"/>
    <line x1="121.888328567654" y1="12.0512112605664" x2="122.2501" y2="12.2010618943233"/>
    <line x1="122.2501" y1="12.2010618943233" x2="122.56076017178" y2="12.4394398282202"/>
    <line x1="122.56076017178" y1="12.4394398282202" x2="122.799138105677" y2="12.7501"/>
    <line x1="122.799138105677" y1="12.7501" x2="122.948988739434" y2="13.1118714323462"/>
    <line x1="122.948988739434" y1="13.1118714323462" x2="123.0001" y2="13.5001"/>
    <line x1="123.0001" y1="13.5001" x2="122.948988739434" y2="13.8883285676538"/>
    <line x1="122.948988739434" y1="13.8883285676538" x2="122.799138105677" y2="14.2501"/>
    <line x1="122.799138105677" y1="14.2501" x2="122.56076017178" y2="14.5607601717798"/>
    <line x1="122.56076017178" y1="14.5607601717798" x2="122.2501" y2="14.7991381056767"/>
    <line x1="122.2501" y1="14.7991381056767" x2="121.888328567654" y2="14.9489887394336"/>
    <line x1="121.888328567654" y1="14.9489887394336" x2="121.5001" y2="15.0001"/>
    <line x1="121.5001" y1="15.0001" x2="121.111871432346" y2="14.9489887394336"/>
    <line x1="121.111871432346" y1="14.9489887394336" x2="120.7501" y2="14.7991381056767"/>
    <line x1="120.7501" y1="14.7991381056767" x2="120.43943982822" y2="14.5607601717798"/>
    <line x1="120.43943982822" y1="14.5607601717798" x2="120.201061894323" y2="14.2501"/>
    <line x1="120.201061894323" y1="14.2501" x2="120.051211260566" y2="13.8883285676538"/>
    <line x1="120.051211260566" y1="13.8883285676538" x2="120.0001" y2="13.5001"/>
    <line x1="120.0001" y1="13.5001" x2="120.051211260566" y2="13.1118714323462"/>
    <line x1="120.051211260566" y1="13.1118714323462" x2="120.201061894323" y2="12.7501"/>
    <line x1="120.201061894323" y1="12.7501" x2="120.43943982822" y2="12.4394398282202"/>
    <line x1="120.43943982822" y1="12.4394398282202" x2="120.7501" y2="12.2010618943233"/>
    <line x1="120.7501" y1="12.2010618943233" x2="121.111871432346" y2="12.0512112605664"/>
  </g>
</svg>
