<?xml version="1.0" standalone="no"?>
<!DOCTYPE svg PUBLIC "-//W3C//DTD SVG 1.1//EN" "http://www.w3.org/Graphics/SVG/1.1/DTD/svg11.dtd">
<svg width="134.0mm" height="101.0mm"
 viewBox="0 0 134.0 101.0"
 xmlns="http://www.w3.org/2000/svg" version="1.1"
 xmlns:xlink="http://www.w3.org/1999/xlink">
<desc>Output from Flights of Ideas SVG Sketchup Plugin</desc>

  <g id="face0" fill="none" stroke="rgb(0,0,255)" stroke-width="1" stroke-miterlimit="4" stroke-dasharray="none" stroke-linejoin="round" stroke-linecap="round">
    <line x1="68.5" y1="8.19999999999999" x2="68.5" y2="11.2"/>
    <line x1="68.5" y1="11.2" x2="65.5" y2="11.2"/>
    <line x1="65.5" y1="11.2" x2="65.5" y2="8.19999999999999"/>
    <line x1="65.5" y1="8.19999999999999" x2="64.2" y2="8.19999999999999"/>
    <line x1="64.2" y1="8.19999999999999" x2="64.2" y2="6.0"/>
    <line x1="64.2" y1="6.0" x2="65.5" y2="6.0"/>
    <line x1="65.5" y1="6.0" x2="65.5" y2="4.0"/>
    <line x1="65.5" y1="4.0" x2="31.0" y2="4.0"/>
    <line x1="31.0" y1="4.0" x2="31.0" y2="1.0"/>
    <line x1="31.0" y1="1.0" x2="11.0" y2="1.00000000000006"/>
    <line x1="11.0" y1="1.00000000000006" x2="11.0" y2="3.99999999999994"/>
    <line x1="11.0" y1="3.99999999999994" x2="1.0" y2="4.00000000000011"/>
    <line x1="1.0" y1="4.00000000000011" x2="1.0" y2="97.0000000000001"/>
    <line x1="1.0" y1="97.0000000000001" x2="17.0" y2="97.0000000000001"/>
    <line x1="17.0" y1="97.0000000000001" x2="17.0" y2="100.0"/>
    <line x1="17.0" y1="100.0" x2="37.0" y2="100.0"/>
    <line x1="37.0" y1="100.0" x2="37.0" y2="97.0000000000001"/>
    <line x1="37.0" y1="97.0000000000001" x2="57.5" y2="97.0000000000001"/>
    <line x1="57.5" y1="97.0000000000001" x2="57.5" y2="95.0000000000001"/>
    <line x1="57.5" y1="95.0000000000001" x2="56.2" y2="95.0000000000001"/>
    <line x1="56.2" y1="95.0000000000001" x2="56.2" y2="92.8000000000001"/>
    <line x1="56.2" y1="92.8000000000001" x2="57.5" y2="92.8000000000001"/>
    <line x1="57.5" y1="92.8000000000001" x2="57.5" y2="89.8000000000001"/>
    <line x1="57.5" y1="89.8000000000001" x2="60.5" y2="89.8000000000001"/>
    <line x1="60.5" y1="89.8000000000001" x2="60.5" y2="92.8000000000001"/>
    <line x1="60.5" y1="92.8000000000001" x2="61.8" y2="92.8000000000001"/>
    <line x1="61.8" y1="92.8000000000001" x2="61.8" y2="95.0000000000001"/>
    <line x1="61.8" y1="95.0000000000001" x2="60.5" y2="95.0000000000001"/>
    <line x1="60.5" y1="95.0000000000001" x2="60.5" y2="97.0000000000001"/>
    <line x1="60.5" y1="97.0000000000001" x2="87.0" y2="97.0000000000001"/>
    <line x1="87.0" y1="97.0000000000001" x2="87.0" y2="100.0"/>
    <line x1="87.0" y1="100.0" x2="117.0" y2="100.0"/>
    <line x1="117.0" y1="100.0" x2="117.0" y2="97.0000000000001"/>
    <line x1="117.0" y1="97.0000000000001" x2="133.0" y2="97.0000000000001"/>
    <line x1="133.0" y1="97.0000000000001" x2="133.0" y2="3.99999999999989"/>
    <line x1="133.0" y1="3.99999999999989" x2="123.0" y2="4.00000000000011"/>
    <line x1="123.0" y1="4.00000000000011" x2="123.0" y2="1.0"/>
    <line x1="123.0" y1="1.0" x2="103.0" y2="1.0"/>
    <line x1="103.0" y1="1.0" x2="103.0" y2="4.00000000000006"/>
    <line x1="103.0" y1="4.00000000000006" x2="68.5" y2="4.0"/>
    <line x1="68.5" y1="4.0" x2="68.5" y2="6.0"/>
    <line x1="68.5" y1="6.0" x2="69.8" y2="6.0"/>
    <line x1="69.8" y1="6.0" x2="69.8" y2="8.19999999999999"/>
    <line x1="69.8" y1="8.19999999999999" x2="68.5" y2="8.19999999999999"/>
    <line x1="127.000000000018" y1="77.0000000000001" x2="130.000000000018" y2="77.0000000000001"/>
    <line x1="130.000000000018" y1="77.0000000000001" x2="130.000000000018" y2="87.0000000000001"/>
    <line x1="130.000000000018" y1="87.0000000000001" x2="127.000000000018" y2="87.0000000000001"/>
    <line x1="127.000000000018" y1="87.0000000000001" x2="127.000000000018" y2="77.0000000000001"/>
    <line x1="6.99999999999994" y1="87.0000000000001" x2="3.99999999999997" y2="87.0000000000001"/>
    <line x1="3.99999999999997" y1="87.0000000000001" x2="3.99999999999997" y2="77.0"/>
    <line x1="3.99999999999997" y1="77.0" x2="6.99999999999994" y2="77.0000000000001"/>
    <line x1="6.99999999999994" y1="77.0000000000001" x2="6.99999999999994" y2="87.0000000000001"/>
    <line x1="128.111771432346" y1="46.0511112605665" x2="128.5" y2="46.0000000000001"/>
    <line x1="128.5" y1="46.0000000000001" x2="128.888228567654" y2="46.0511112605665"/>
    <line x1="128.888228567654" y1="46.0511112605665" x2="129.25" y2="46.2009618943234"/>
    <line x1="129.25" y1="46.2009618943234" x2="129.56066017178" y2="46.4393398282203"/>
    <line x1="129.56066017178" y1="46.4393398282203" x2="129.799038105677" y2="46.7500000000001"/>
    <line x1="129.799038105677" y1="46.7500000000001" x2="129.948888739434" y2="47.1117714323463"/>
    <line x1="129.948888739434" y1="47.1117714323463" x2="130.0" y2="47.5000000000001"/>
    <line x1="130.0" y1="47.5000000000001" x2="129.948888739434" y2="47.8882285676538"/>
    <line x1="129.948888739434" y1="47.8882285676538" x2="129.799038105677" y2="48.2500000000001"/>
    <line x1="129.799038105677" y1="48.2500000000001" x2="129.56066017178" y2="48.5606601717799"/>
    <line x1="129.56066017178" y1="48.5606601717799" x2="129.25" y2="48.7990381056768"/>
    <line x1="129.25" y1="48.7990381056768" x2="128.888228567654" y2="48.9488887394337"/>
    <line x1="128.888228567654" y1="48.9488887394337" x2="128.5" y2="49.0000000000001"/>
    <line x1="128.5" y1="49.0000000000001" x2="128.111771432346" y2="48.9488887394337"/>
    <line x1="128.111771432346" y1="48.9488887394337" x2="127.75" y2="48.7990381056768"/>
    <line x1="127.75" y1="48.7990381056768" x2="127.43933982822" y2="48.5606601717799"/>
    <line x1="127.43933982822" y1="48.5606601717799" x2="127.200961894323" y2="48.2500000000001"/>
    <line x1="127.200961894323" y1="48.2500000000001" x2="127.051111260566" y2="47.8882285676539"/>
    <line x1="127.051111260566" y1="47.8882285676539" x2="127.0" y2="47.5000000000001"/>
    <line x1="127.0" y1="47.5000000000001" x2="127.051111260566" y2="47.1117714323463"/>
    <line x1="127.051111260566" y1="47.1117714323463" x2="127.200961894323" y2="46.7500000000001"/>
    <line x1="127.200961894323" y1="46.7500000000001" x2="127.43933982822" y2="46.4393398282203"/>
    <line x1="127.43933982822" y1="46.4393398282203" x2="127.75" y2="46.2009618943234"/>
    <line x1="127.75" y1="46.2009618943234" x2="128.111771432346" y2="46.0511112605665"/>
    <line x1="5.11177143234619" y1="46.0511112605665" x2="5.5" y2="46.0000000000001"/>
    <line x1="5.5" y1="46.0000000000001" x2="5.88822856765375" y2="46.0511112605665"/>
    <line x1="5.88822856765375" y1="46.0511112605665" x2="6.24999999999997" y2="46.2009618943234"/>
    <line x1="6.24999999999997" y1="46.2009618943234" x2="6.5606601717798" y2="46.4393398282203"/>
    <line x1="6.5606601717798" y1="46.4393398282203" x2="6.79903810567663" y2="46.7500000000001"/>
    <line x1="6.79903810567663" y1="46.7500000000001" x2="6.94888873943361" y2="47.1117714323463"/>
    <line x1="6.94888873943361" y1="47.1117714323463" x2="6.99999999999997" y2="47.5000000000001"/>
    <line x1="6.99999999999997" y1="47.5000000000001" x2="6.94888873943361" y2="47.8882285676538"/>
    <line x1="6.94888873943361" y1="47.8882285676538" x2="6.79903810567663" y2="48.2500000000001"/>
    <line x1="6.79903810567663" y1="48.2500000000001" x2="6.5606601717798" y2="48.5606601717799"/>
    <line x1="6.5606601717798" y1="48.5606601717799" x2="6.24999999999997" y2="48.7990381056767"/>
    <line x1="6.24999999999997" y1="48.7990381056767" x2="5.88822856765375" y2="48.9488887394336"/>
    <line x1="5.88822856765375" y1="48.9488887394336" x2="5.5" y2="49.0000000000001"/>
    <line x1="5.5" y1="49.0000000000001" x2="5.11177143234619" y2="48.9488887394337"/>
    <line x1="5.11177143234619" y1="48.9488887394337" x2="4.75" y2="48.7990381056767"/>
    <line x1="4.75" y1="48.7990381056767" x2="4.43933982822017" y2="48.5606601717799"/>
    <line x1="4.43933982822017" y1="48.5606601717799" x2="4.20096189432334" y2="48.2500000000001"/>
    <line x1="4.20096189432334" y1="48.2500000000001" x2="4.05111126056639" y2="47.8882285676538"/>
    <line x1="4.05111126056639" y1="47.8882285676538" x2="3.99999999999997" y2="47.5000000000001"/>
    <line x1="3.99999999999997" y1="47.5000000000001" x2="4.05111126056639" y2="47.1117714323462"/>
    <line x1="4.05111126056639" y1="47.1117714323462" x2="4.20096189432334" y2="46.7500000000001"/>
    <line x1="4.20096189432334" y1="46.7500000000001" x2="4.43933982822017" y2="46.4393398282203"/>
    <line x1="4.43933982822017" y1="46.4393398282203" x2="4.75" y2="46.2009618943234"/>
    <line x1="4.75" y1="46.2009618943234" x2="5.11177143234619" y2="46.0511112605665"/>
    <line x1="20.0" y1="67.0000000000001" x2="20.0" y2="64.0000000000001"/>
    <line x1="20.0" y1="64.0000000000001" x2="40.0" y2="64.0000000000001"/>
    <line x1="40.0" y1="64.0000000000001" x2="40.0" y2="67.0000000000001"/>
    <line x1="40.0" y1="67.0000000000001" x2="20.0" y2="67.0000000000001"/>
    <line x1="114.0" y1="67.0" x2="84.0" y2="67.0"/>
    <line x1="84.0" y1="67.0" x2="84.0" y2="64.0000000000001"/>
    <line x1="84.0" y1="64.0000000000001" x2="114.0" y2="64.0000000000001"/>
    <line x1="114.0" y1="64.0000000000001" x2="114.0" y2="67.0"/>
    <line x1="17.0" y1="36.0" x2="26.0" y2="36.0000000000001"/>
    <line x1="26.0" y1="36.0000000000001" x2="26.0" y2="46.7"/>
    <line x1="26.0" y1="46.7" x2="17.0" y2="46.7"/>
    <line x1="17.0" y1="46.7" x2="17.0" y2="36.0"/>
    <line x1="66.4823619097949" y1="35.2681483474219" x2="67.0" y2="35.2"/>
    <line x1="67.0" y1="35.2" x2="67.517638090205" y2="35.2681483474219"/>
    <line x1="67.517638090205" y1="35.2681483474219" x2="68.0" y2="35.4679491924311"/>
    <line x1="68.0" y1="35.4679491924311" x2="68.414213562373" y2="35.7857864376269"/>
    <line x1="68.414213562373" y1="35.7857864376269" x2="68.7320508075689" y2="36.2"/>
    <line x1="68.7320508075689" y1="36.2" x2="68.9318516525781" y2="36.682361909795"/>
    <line x1="68.9318516525781" y1="36.682361909795" x2="69.0" y2="37.2"/>
    <line x1="69.0" y1="37.2" x2="68.9318516525781" y2="37.717638090205"/>
    <line x1="68.9318516525781" y1="37.717638090205" x2="68.7320508075689" y2="38.2"/>
    <line x1="68.7320508075689" y1="38.2" x2="68.414213562373" y2="38.6142135623731"/>
    <line x1="68.414213562373" y1="38.6142135623731" x2="68.0" y2="38.9320508075689"/>
    <line x1="68.0" y1="38.9320508075689" x2="67.517638090205" y2="39.1318516525781"/>
    <line x1="67.517638090205" y1="39.1318516525781" x2="67.0" y2="39.2"/>
    <line x1="67.0" y1="39.2" x2="66.4823619097949" y2="39.1318516525781"/>
    <line x1="66.4823619097949" y1="39.1318516525781" x2="66.0" y2="38.9320508075689"/>
    <line x1="66.0" y1="38.9320508075689" x2="65.5857864376269" y2="38.6142135623731"/>
    <line x1="65.5857864376269" y1="38.6142135623731" x2="65.2679491924311" y2="38.2"/>
    <line x1="65.2679491924311" y1="38.2" x2="65.0681483474218" y2="37.7176380902051"/>
    <line x1="65.0681483474218" y1="37.7176380902051" x2="65.0" y2="37.2"/>
    <line x1="65.0" y1="37.2" x2="65.0681483474218" y2="36.682361909795"/>
    <line x1="65.0681483474218" y1="36.682361909795" x2="65.2679491924311" y2="36.2"/>
    <line x1="65.2679491924311" y1="36.2" x2="65.5857864376269" y2="35.7857864376269"/>
    <line x1="65.5857864376269" y1="35.7857864376269" x2="66.0" y2="35.4679491924311"/>
    <line x1="66.0" y1="35.4679491924311" x2="66.4823619097949" y2="35.2681483474219"/>
  </g>
</svg>
