<?xml version="1.0" standalone="no"?>
<!DOCTYPE svg PUBLIC "-//W3C//DTD SVG 1.1//EN" "http://www.w3.org/Graphics/SVG/1.1/DTD/svg11.dtd">
<svg width="146.0mm" height="86.0mm"
 viewBox="0 0 146.0 86.0"
 xmlns="http://www.w3.org/2000/svg" version="1.1"
 xmlns:xlink="http://www.w3.org/1999/xlink">
<desc>Output from Flights of Ideas SVG Sketchup Plugin</desc>

  <g id="face0" fill="none" stroke="rgb(0,0,255)" stroke-width="1" stroke-miterlimit="4" stroke-dasharray="none" stroke-linejoin="round" stroke-linecap="round">
    <line x1="136.0" y1="10.0" x2="10.0" y2="10.0"/>
    <line x1="10.0" y1="10.0" x2="10.0" y2="72.9999999999999"/>
    <line x1="10.0" y1="72.9999999999999" x2="23.0" y2="73.0"/>
    <line x1="23.0" y1="73.0" x2="22.9999999999999" y2="75.9999999999999"/>
    <line x1="22.9999999999999" y1="75.9999999999999" x2="43.0" y2="75.9999999999999"/>
    <line x1="43.0" y1="75.9999999999999" x2="42.9999999999999" y2="73.0"/>
    <line x1="42.9999999999999" y1="73.0" x2="63.5" y2="73.0"/>
    <line x1="63.5" y1="73.0" x2="63.5" y2="71.0"/>
    <line x1="63.5" y1="71.0" x2="62.2" y2="71.0"/>
    <line x1="62.2" y1="71.0" x2="62.2" y2="68.8"/>
    <line x1="62.2" y1="68.8" x2="63.5" y2="68.8"/>
    <line x1="63.5" y1="68.8" x2="63.5" y2="65.8"/>
    <line x1="63.5" y1="65.8" x2="66.5" y2="65.8"/>
    <line x1="66.5" y1="65.8" x2="66.5" y2="68.8"/>
    <line x1="66.5" y1="68.8" x2="67.8" y2="68.8"/>
    <line x1="67.8" y1="68.8" x2="67.8" y2="71.0"/>
    <line x1="67.8" y1="71.0" x2="66.5" y2="71.0"/>
    <line x1="66.5" y1="71.0" x2="66.5" y2="73.0"/>
    <line x1="66.5" y1="73.0" x2="93.0" y2="73.0"/>
    <line x1="93.0" y1="73.0" x2="93.0" y2="75.9999999999999"/>
    <line x1="93.0" y1="75.9999999999999" x2="123.0" y2="76.0"/>
    <line x1="123.0" y1="76.0" x2="123.0" y2="73.0"/>
    <line x1="123.0" y1="73.0" x2="136.0" y2="73.0"/>
    <line x1="136.0" y1="73.0" x2="136.0" y2="10.0"/>
    <line x1="23.0" y1="12.0000000000007" x2="32.0" y2="12.0"/>
    <line x1="32.0" y1="12.0" x2="32.0" y2="22.7"/>
    <line x1="32.0" y1="22.7" x2="23.0" y2="22.6999999999999"/>
    <line x1="23.0" y1="22.6999999999999" x2="23.0" y2="12.0000000000007"/>
    <line x1="120.0" y1="42.9999999999999" x2="90.0" y2="42.9999999999999"/>
    <line x1="90.0" y1="42.9999999999999" x2="90.0" y2="40.0"/>
    <line x1="90.0" y1="40.0" x2="120.0" y2="40.0"/>
    <line x1="120.0" y1="40.0" x2="120.0" y2="42.9999999999999"/>
    <line x1="26.0" y1="43.0" x2="26.0" y2="40.0"/>
    <line x1="26.0" y1="40.0" x2="46.0" y2="39.9999999999999"/>
    <line x1="46.0" y1="39.9999999999999" x2="46.0" y2="43.0"/>
    <line x1="46.0" y1="43.0" x2="26.0" y2="43.0"/>
    <line x1="14.1117714323462" y1="22.0511112605664" x2="14.5" y2="22.0"/>
    <line x1="14.5" y1="22.0" x2="14.8882285676538" y2="22.0511112605662"/>
    <line x1="14.8882285676538" y1="22.0511112605662" x2="15.25" y2="22.2009618943233"/>
    <line x1="15.25" y1="22.2009618943233" x2="15.5606601717798" y2="22.4393398282203"/>
    <line x1="15.5606601717798" y1="22.4393398282203" x2="15.7990381056767" y2="22.75"/>
    <line x1="15.7990381056767" y1="22.75" x2="15.9488887394336" y2="23.1117714323464"/>
    <line x1="15.9488887394336" y1="23.1117714323464" x2="16.0" y2="23.4999999999999"/>
    <line x1="16.0" y1="23.4999999999999" x2="15.9488887394336" y2="23.8882285676539"/>
    <line x1="15.9488887394336" y1="23.8882285676539" x2="15.7990381056767" y2="24.2499999999999"/>
    <line x1="15.7990381056767" y1="24.2499999999999" x2="15.5606601717798" y2="24.5606601717798"/>
    <line x1="15.5606601717798" y1="24.5606601717798" x2="15.25" y2="24.7990381056768"/>
    <line x1="15.25" y1="24.7990381056768" x2="14.8882285676538" y2="24.9488887394336"/>
    <line x1="14.8882285676538" y1="24.9488887394336" x2="14.5" y2="24.9999999999999"/>
    <line x1="14.5" y1="24.9999999999999" x2="14.1117714323462" y2="24.9488887394336"/>
    <line x1="14.1117714323462" y1="24.9488887394336" x2="13.75" y2="24.7990381056768"/>
    <line x1="13.75" y1="24.7990381056768" x2="13.4393398282202" y2="24.5606601717799"/>
    <line x1="13.4393398282202" y1="24.5606601717799" x2="13.2009618943233" y2="24.2499999999999"/>
    <line x1="13.2009618943233" y1="24.2499999999999" x2="13.0511112605664" y2="23.8882285676539"/>
    <line x1="13.0511112605664" y1="23.8882285676539" x2="13.0" y2="23.4999999999999"/>
    <line x1="13.0" y1="23.4999999999999" x2="13.0511112605664" y2="23.1117714323464"/>
    <line x1="13.0511112605664" y1="23.1117714323464" x2="13.2009618943233" y2="22.7499999999998"/>
    <line x1="13.2009618943233" y1="22.7499999999998" x2="13.4393398282202" y2="22.4393398282202"/>
    <line x1="13.4393398282202" y1="22.4393398282202" x2="13.75" y2="22.2009618943233"/>
    <line x1="13.75" y1="22.2009618943233" x2="14.1117714323462" y2="22.0511112605664"/>
    <line x1="131.111771432346" y1="22.0511112605664" x2="131.5" y2="22.0"/>
    <line x1="131.5" y1="22.0" x2="131.888228567654" y2="22.0511112605664"/>
    <line x1="131.888228567654" y1="22.0511112605664" x2="132.25" y2="22.2009618943233"/>
    <line x1="132.25" y1="22.2009618943233" x2="132.56066017178" y2="22.4393398282202"/>
    <line x1="132.56066017178" y1="22.4393398282202" x2="132.799038105677" y2="22.75"/>
    <line x1="132.799038105677" y1="22.75" x2="132.948888739434" y2="23.1117714323462"/>
    <line x1="132.948888739434" y1="23.1117714323462" x2="133.0" y2="23.5"/>
    <line x1="133.0" y1="23.5" x2="132.948888739434" y2="23.8882285676538"/>
    <line x1="132.948888739434" y1="23.8882285676538" x2="132.799038105677" y2="24.25"/>
    <line x1="132.799038105677" y1="24.25" x2="132.56066017178" y2="24.5606601717798"/>
    <line x1="132.56066017178" y1="24.5606601717798" x2="132.25" y2="24.7990381056767"/>
    <line x1="132.25" y1="24.7990381056767" x2="131.888228567654" y2="24.9488887394336"/>
    <line x1="131.888228567654" y1="24.9488887394336" x2="131.5" y2="25.0"/>
    <line x1="131.5" y1="25.0" x2="131.111771432346" y2="24.9488887394336"/>
    <line x1="131.111771432346" y1="24.9488887394336" x2="130.75" y2="24.7990381056767"/>
    <line x1="130.75" y1="24.7990381056767" x2="130.43933982822" y2="24.5606601717798"/>
    <line x1="130.43933982822" y1="24.5606601717798" x2="130.200961894323" y2="24.25"/>
    <line x1="130.200961894323" y1="24.25" x2="130.051111260566" y2="23.8882285676538"/>
    <line x1="130.051111260566" y1="23.8882285676538" x2="130.0" y2="23.5"/>
    <line x1="130.0" y1="23.5" x2="130.051111260566" y2="23.1117714323462"/>
    <line x1="130.051111260566" y1="23.1117714323462" x2="130.200961894323" y2="22.75"/>
    <line x1="130.200961894323" y1="22.75" x2="130.43933982822" y2="22.4393398282202"/>
    <line x1="130.43933982822" y1="22.4393398282202" x2="130.75" y2="22.2009618943233"/>
    <line x1="130.75" y1="22.2009618943233" x2="131.111771432346" y2="22.0511112605664"/>
    <line x1="15.9999999999999" y1="63.0" x2="13.0" y2="63.0"/>
    <line x1="13.0" y1="63.0" x2="13.0" y2="52.9999999999999"/>
    <line x1="13.0" y1="52.9999999999999" x2="15.9999999999999" y2="52.9999999999999"/>
    <line x1="15.9999999999999" y1="52.9999999999999" x2="15.9999999999999" y2="63.0"/>
    <line x1="130.000000000018" y1="53.0" x2="133.000000000018" y2="53.0"/>
    <line x1="133.000000000018" y1="53.0" x2="133.000000000018" y2="63.0"/>
    <line x1="133.000000000018" y1="63.0" x2="130.000000000018" y2="63.0"/>
    <line x1="130.000000000018" y1="63.0" x2="130.000000000018" y2="53.0"/>
  </g>
</svg>
