<?xml version="1.0" standalone="no"?>
<!DOCTYPE svg PUBLIC "-//W3C//DTD SVG 1.1//EN" "http://www.w3.org/Graphics/SVG/1.1/DTD/svg11.dtd">
<svg width="134.0mm" height="134.0mm"
 viewBox="0 0 134.0 134.0"
 xmlns="http://www.w3.org/2000/svg" version="1.1"
 xmlns:xlink="http://www.w3.org/1999/xlink">
<desc>Output from Flights of Ideas SVG Sketchup Plugin</desc>

  <g id="face0" fill="none" stroke="rgb(0,0,255)" stroke-width="1" stroke-miterlimit="4" stroke-dasharray="none" stroke-linejoin="round" stroke-linecap="round">
    <line x1="1.0" y1="1.0" x2="1.0" y2="133.0"/>
    <line x1="1.0" y1="133.0" x2="133.0" y2="133.0"/>
    <line x1="133.0" y1="133.0" x2="133.0" y2="1.0"/>
    <line x1="133.0" y1="1.0" x2="1.0" y2="1.0"/>
    <line x1="110.466662183008" y1="55.3531429703866" x2="112.0" y2="67.0"/>
    <line x1="112.0" y1="67.0" x2="110.466662183008" y2="78.6468570296135"/>
    <line x1="110.466662183008" y1="78.6468570296135" x2="105.9711431703" y2="89.5"/>
    <line x1="105.9711431703" y1="89.5" x2="98.8198051533947" y2="98.8198051533946"/>
    <line x1="98.8198051533947" y1="98.8198051533946" x2="89.5" y2="105.9711431703"/>
    <line x1="89.5" y1="105.9711431703" x2="78.6468570296135" y2="110.466662183008"/>
    <line x1="78.6468570296135" y1="110.466662183008" x2="67.0" y2="112.0"/>
    <line x1="67.0" y1="112.0" x2="55.3531429703866" y2="110.466662183008"/>
    <line x1="55.3531429703866" y1="110.466662183008" x2="44.5" y2="105.9711431703"/>
    <line x1="44.5" y1="105.9711431703" x2="35.1801948466054" y2="98.8198051533946"/>
    <line x1="35.1801948466054" y1="98.8198051533946" x2="28.0288568297003" y2="89.5"/>
    <line x1="28.0288568297003" y1="89.5" x2="23.5333378169919" y2="78.6468570296135"/>
    <line x1="23.5333378169919" y1="78.6468570296135" x2="22.0000000000001" y2="67.0"/>
    <line x1="22.0000000000001" y1="67.0" x2="23.5333378169919" y2="55.3531429703866"/>
    <line x1="23.5333378169919" y1="55.3531429703866" x2="28.0288568297003" y2="44.5"/>
    <line x1="28.0288568297003" y1="44.5" x2="35.1801948466054" y2="35.1801948466053"/>
    <line x1="35.1801948466054" y1="35.1801948466053" x2="44.5" y2="28.0288568297003"/>
    <line x1="44.5" y1="28.0288568297003" x2="55.3531429703866" y2="23.5333378169919"/>
    <line x1="55.3531429703866" y1="23.5333378169919" x2="67.0" y2="21.9999999999999"/>
    <line x1="67.0" y1="21.9999999999999" x2="78.6468570296135" y2="23.5333378169919"/>
    <line x1="78.6468570296135" y1="23.5333378169919" x2="89.5" y2="28.0288568297003"/>
    <line x1="89.5" y1="28.0288568297003" x2="98.8198051533947" y2="35.1801948466054"/>
    <line x1="98.8198051533947" y1="35.1801948466054" x2="105.9711431703" y2="44.5000000000001"/>
    <line x1="105.9711431703" y1="44.5000000000001" x2="110.466662183008" y2="55.3531429703866"/>
    <line x1="11.0" y1="130.0" x2="11.0" y2="127.0"/>
    <line x1="11.0" y1="127.0" x2="31.0" y2="127.0"/>
    <line x1="31.0" y1="127.0" x2="31.0" y2="130.0"/>
    <line x1="31.0" y1="130.0" x2="11.0" y2="130.0"/>
    <line x1="7.00000000000006" y1="120.5" x2="4.00000000000011" y2="120.5"/>
    <line x1="4.00000000000011" y1="120.5" x2="4.00000000000011" y2="114.0"/>
    <line x1="4.00000000000011" y1="114.0" x2="7.00000000000006" y2="114.0"/>
    <line x1="7.00000000000006" y1="114.0" x2="7.00000000000006" y2="120.5"/>
    <line x1="103.0" y1="130.0" x2="103.0" y2="127.0"/>
    <line x1="103.0" y1="127.0" x2="123.0" y2="127.0"/>
    <line x1="123.0" y1="127.0" x2="123.0" y2="130.0"/>
    <line x1="123.0" y1="130.0" x2="103.0" y2="130.0"/>
    <line x1="126.999999999986" y1="114.0" x2="129.999999999984" y2="114.0"/>
    <line x1="129.999999999984" y1="114.0" x2="129.999999999984" y2="120.5"/>
    <line x1="129.999999999984" y1="120.5" x2="126.999999999986" y2="120.5"/>
    <line x1="126.999999999986" y1="120.5" x2="126.999999999986" y2="114.0"/>
    <line x1="127.000000000016" y1="13.4999999999996" x2="130.000000000014" y2="13.4999999999995"/>
    <line x1="130.000000000014" y1="13.4999999999995" x2="130.000000000014" y2="20.0000000000005"/>
    <line x1="130.000000000014" y1="20.0000000000005" x2="127.000000000016" y2="20.0000000000005"/>
    <line x1="127.000000000016" y1="20.0000000000005" x2="127.000000000016" y2="13.4999999999996"/>
    <line x1="123.0" y1="4.00000000000017" x2="123.0" y2="7.00000000000028"/>
    <line x1="123.0" y1="7.00000000000028" x2="103.0" y2="6.99999999999983"/>
    <line x1="103.0" y1="6.99999999999983" x2="103.0" y2="4.0"/>
    <line x1="103.0" y1="4.0" x2="123.0" y2="4.00000000000017"/>
    <line x1="31.0" y1="7.0" x2="11.0" y2="7.0"/>
    <line x1="11.0" y1="7.0" x2="11.0" y2="4.0"/>
    <line x1="11.0" y1="4.0" x2="31.0" y2="4.0"/>
    <line x1="31.0" y1="4.0" x2="31.0" y2="7.0"/>
    <line x1="7.0" y1="13.5" x2="7.0" y2="19.9999999999999"/>
    <line x1="7.0" y1="19.9999999999999" x2="4.00000000000006" y2="19.9999999999999"/>
    <line x1="4.00000000000006" y1="19.9999999999999" x2="4.00000000000006" y2="13.5"/>
    <line x1="4.00000000000006" y1="13.5" x2="7.0" y2="13.5"/>
    <line x1="68.4488887394336" y1="5.11177143234613" x2="68.5" y2="5.5"/>
    <line x1="68.5" y1="5.5" x2="68.4488887394336" y2="5.88822856765381"/>
    <line x1="68.4488887394336" y1="5.88822856765381" x2="68.2990381056767" y2="6.24999999999994"/>
    <line x1="68.2990381056767" y1="6.24999999999994" x2="68.0606601717798" y2="6.56066017177983"/>
    <line x1="68.0606601717798" y1="6.56066017177983" x2="67.75" y2="6.79903810567674"/>
    <line x1="67.75" y1="6.79903810567674" x2="67.3882285676538" y2="6.94888873943364"/>
    <line x1="67.3882285676538" y1="6.94888873943364" x2="67.0" y2="7.00000000000006"/>
    <line x1="67.0" y1="7.00000000000006" x2="66.6117714323462" y2="6.94888873943364"/>
    <line x1="66.6117714323462" y1="6.94888873943364" x2="66.2500000000001" y2="6.79903810567657"/>
    <line x1="66.2500000000001" y1="6.79903810567657" x2="65.9393398282202" y2="6.56066017177972"/>
    <line x1="65.9393398282202" y1="6.56066017177972" x2="65.7009618943234" y2="6.25"/>
    <line x1="65.7009618943234" y1="6.25" x2="65.5511112605664" y2="5.88822856765375"/>
    <line x1="65.5511112605664" y1="5.88822856765375" x2="65.5" y2="5.5"/>
    <line x1="65.5" y1="5.5" x2="65.5511112605664" y2="5.1117714323463"/>
    <line x1="65.5511112605664" y1="5.1117714323463" x2="65.7009618943234" y2="4.74999999999989"/>
    <line x1="65.7009618943234" y1="4.74999999999989" x2="65.9393398282202" y2="4.43933982822006"/>
    <line x1="65.9393398282202" y1="4.43933982822006" x2="66.2500000000001" y2="4.20096189432343"/>
    <line x1="66.2500000000001" y1="4.20096189432343" x2="66.6117714323462" y2="4.05111126056636"/>
    <line x1="66.6117714323462" y1="4.05111126056636" x2="67.0" y2="4.0"/>
    <line x1="67.0" y1="4.0" x2="67.3882285676538" y2="4.05111126056619"/>
    <line x1="67.3882285676538" y1="4.05111126056619" x2="67.75" y2="4.20096189432348"/>
    <line x1="67.75" y1="4.20096189432348" x2="68.0606601717798" y2="4.43933982822023"/>
    <line x1="68.0606601717798" y1="4.43933982822023" x2="68.2990381056767" y2="4.74999999999989"/>
    <line x1="68.2990381056767" y1="4.74999999999989" x2="68.4488887394336" y2="5.11177143234613"/>
    <line x1="68.4488887394336" y1="128.111771432346" x2="68.5" y2="128.5"/>
    <line x1="68.5" y1="128.5" x2="68.4488887394336" y2="128.888228567654"/>
    <line x1="68.4488887394336" y1="128.888228567654" x2="68.2990381056767" y2="129.25"/>
    <line x1="68.2990381056767" y1="129.25" x2="68.0606601717798" y2="129.56066017178"/>
    <line x1="68.0606601717798" y1="129.56066017178" x2="67.75" y2="129.799038105677"/>
    <line x1="67.75" y1="129.799038105677" x2="67.3882285676538" y2="129.948888739434"/>
    <line x1="67.3882285676538" y1="129.948888739434" x2="67.0" y2="130.0"/>
    <line x1="67.0" y1="130.0" x2="66.6117714323462" y2="129.948888739434"/>
    <line x1="66.6117714323462" y1="129.948888739434" x2="66.2500000000001" y2="129.799038105677"/>
    <line x1="66.2500000000001" y1="129.799038105677" x2="65.9393398282202" y2="129.56066017178"/>
    <line x1="65.9393398282202" y1="129.56066017178" x2="65.7009618943234" y2="129.25"/>
    <line x1="65.7009618943234" y1="129.25" x2="65.5511112605664" y2="128.888228567654"/>
    <line x1="65.5511112605664" y1="128.888228567654" x2="65.5" y2="128.5"/>
    <line x1="65.5" y1="128.5" x2="65.5511112605664" y2="128.111771432346"/>
    <line x1="65.5511112605664" y1="128.111771432346" x2="65.7009618943233" y2="127.75"/>
    <line x1="65.7009618943233" y1="127.75" x2="65.9393398282202" y2="127.43933982822"/>
    <line x1="65.9393398282202" y1="127.43933982822" x2="66.2500000000001" y2="127.200961894323"/>
    <line x1="66.2500000000001" y1="127.200961894323" x2="66.6117714323462" y2="127.051111260566"/>
    <line x1="66.6117714323462" y1="127.051111260566" x2="67.0" y2="127.0"/>
    <line x1="67.0" y1="127.0" x2="67.3882285676538" y2="127.051111260566"/>
    <line x1="67.3882285676538" y1="127.051111260566" x2="67.75" y2="127.200961894323"/>
    <line x1="67.75" y1="127.200961894323" x2="68.0606601717798" y2="127.43933982822"/>
    <line x1="68.0606601717798" y1="127.43933982822" x2="68.2990381056767" y2="127.75"/>
    <line x1="68.2990381056767" y1="127.75" x2="68.4488887394336" y2="128.111771432346"/>
  </g>
</svg>
