<?xml version="1.0" standalone="no"?>
<!DOCTYPE svg PUBLIC "-//W3C//DTD SVG 1.1//EN" "http://www.w3.org/Graphics/SVG/1.1/DTD/svg11.dtd">
<svg width="120.0002mm" height="120.0002mm"
 viewBox="0 0 120.0002 120.0002"
 xmlns="http://www.w3.org/2000/svg" version="1.1"
 xmlns:xlink="http://www.w3.org/1999/xlink">
<desc>Output from Flights of Ideas SVG Sketchup Plugin</desc>

  <g id="face0" fill="none" stroke="rgb(0,0,255)" stroke-width="0.0001" stroke-miterlimit="4" stroke-dasharray="none" stroke-linejoin="round" stroke-linecap="round">
    <line x1="3.0001" y1="3.00010000000017" x2="3.0001" y2="13.0001000000002"/>
    <line x1="3.0001" y1="13.0001000000002" x2="0.0001" y2="13.0001000000002"/>
    <line x1="0.0001" y1="13.0001000000002" x2="0.0001" y2="43.0001000000002"/>
    <line x1="0.0001" y1="43.0001000000002" x2="3.0001" y2="43.0001000000002"/>
    <line x1="3.0001" y1="43.0001000000002" x2="3.0001" y2="87.0001000000002"/>
    <line x1="3.0001" y1="87.0001000000002" x2="0.0001" y2="87.0001000000002"/>
    <line x1="0.0001" y1="87.0001000000002" x2="0.0001" y2="107.0001"/>
    <line x1="0.0001" y1="107.0001" x2="3.0001" y2="107.0001"/>
    <line x1="3.0001" y1="107.0001" x2="3.0001" y2="117.0001"/>
    <line x1="3.0001" y1="117.0001" x2="13.0001" y2="117.0001"/>
    <line x1="13.0001" y1="117.0001" x2="13.0001" y2="120.0001"/>
    <line x1="13.0001" y1="120.0001" x2="43.0001" y2="120.0001"/>
    <line x1="43.0001" y1="120.0001" x2="43.0001" y2="117.0001"/>
    <line x1="43.0001" y1="117.0001" x2="87.0001" y2="117.0001"/>
    <line x1="87.0001" y1="117.0001" x2="87.0001" y2="120.0001"/>
    <line x1="87.0001" y1="120.0001" x2="107.0001" y2="120.0001"/>
    <line x1="107.0001" y1="120.0001" x2="107.0001" y2="117.0001"/>
    <line x1="107.0001" y1="117.0001" x2="117.0001" y2="117.0001"/>
    <line x1="117.0001" y1="117.0001" x2="117.0001" y2="107.0001"/>
    <line x1="117.0001" y1="107.0001" x2="120.0001" y2="107.0001"/>
    <line x1="120.0001" y1="107.0001" x2="120.0001" y2="77.0001000000002"/>
    <line x1="120.0001" y1="77.0001000000002" x2="117.0001" y2="77.0001000000002"/>
    <line x1="117.0001" y1="77.0001000000002" x2="117.0001" y2="33.0001000000003"/>
    <line x1="117.0001" y1="33.0001000000003" x2="120.0001" y2="33.0001000000002"/>
    <line x1="120.0001" y1="33.0001000000002" x2="120.0001" y2="13.0001000000001"/>
    <line x1="120.0001" y1="13.0001000000001" x2="117.0001" y2="13.0001000000001"/>
    <line x1="117.0001" y1="13.0001000000001" x2="117.0001" y2="3.00010000000017"/>
    <line x1="117.0001" y1="3.00010000000017" x2="107.0001" y2="3.00010000000017"/>
    <line x1="107.0001" y1="3.00010000000017" x2="107.0001" y2="0.000100000000397904"/>
    <line x1="107.0001" y1="0.000100000000397904" x2="77.0001" y2="0.0001"/>
    <line x1="77.0001" y1="0.0001" x2="77.0001" y2="3.00010000000017"/>
    <line x1="77.0001" y1="3.00010000000017" x2="33.0001" y2="3.00010000000017"/>
    <line x1="33.0001" y1="3.00010000000017" x2="33.0001" y2="0.000100000000227374"/>
    <line x1="33.0001" y1="0.000100000000227374" x2="13.0001" y2="0.00010000000017053"/>
    <line x1="13.0001" y1="0.00010000000017053" x2="13.0001" y2="3.00010000000017"/>
    <line x1="13.0001" y1="3.00010000000017" x2="3.0001" y2="3.00010000000017"/>
    <line x1="26.1926960798826" y1="69.0587665785884" x2="25.0001" y2="60.0001000000002"/>
    <line x1="25.0001" y1="60.0001000000002" x2="26.1926960798827" y2="50.941433421412"/>
    <line x1="26.1926960798827" y1="50.941433421412" x2="29.6892108675447" y2="42.5001000000002"/>
    <line x1="29.6892108675447" y1="42.5001000000002" x2="35.2513626584709" y2="35.251362658471"/>
    <line x1="35.2513626584709" y1="35.251362658471" x2="42.5001000000001" y2="29.6892108675449"/>
    <line x1="42.5001000000001" y1="29.6892108675449" x2="50.9414334214118" y2="26.1926960798828"/>
    <line x1="50.9414334214118" y1="26.1926960798828" x2="60.0001" y2="25.0001000000002"/>
    <line x1="60.0001" y1="25.0001000000002" x2="69.0587665785883" y2="26.1926960798828"/>
    <line x1="69.0587665785883" y1="26.1926960798828" x2="77.5001" y2="29.6892108675449"/>
    <line x1="77.5001" y1="29.6892108675449" x2="84.7488373415292" y2="35.2513626584711"/>
    <line x1="84.7488373415292" y1="35.2513626584711" x2="90.3109891324553" y2="42.5001000000002"/>
    <line x1="90.3109891324553" y1="42.5001000000002" x2="93.8075039201174" y2="50.941433421412"/>
    <line x1="93.8075039201174" y1="50.941433421412" x2="95.0001" y2="60.0001000000002"/>
    <line x1="95.0001" y1="60.0001000000002" x2="93.8075039201174" y2="69.0587665785884"/>
    <line x1="93.8075039201174" y1="69.0587665785884" x2="90.3109891324553" y2="77.5001000000002"/>
    <line x1="90.3109891324553" y1="77.5001000000002" x2="84.7488373415292" y2="84.7488373415294"/>
    <line x1="84.7488373415292" y1="84.7488373415294" x2="77.5001" y2="90.3109891324555"/>
    <line x1="77.5001" y1="90.3109891324555" x2="69.0587665785882" y2="93.8075039201176"/>
    <line x1="69.0587665785882" y1="93.8075039201176" x2="60.0001" y2="95.0001000000002"/>
    <line x1="60.0001" y1="95.0001000000002" x2="50.9414334214118" y2="93.8075039201176"/>
    <line x1="50.9414334214118" y1="93.8075039201176" x2="42.5001" y2="90.3109891324555"/>
    <line x1="42.5001" y1="90.3109891324555" x2="35.2513626584709" y2="84.7488373415294"/>
    <line x1="35.2513626584709" y1="84.7488373415294" x2="29.6892108675447" y2="77.5001000000002"/>
    <line x1="29.6892108675447" y1="77.5001000000002" x2="26.1926960798826" y2="69.0587665785884"/>
    <line x1="23.5001" y1="25.5491381056769" x2="23.1894398282202" y2="25.31076017178"/>
    <line x1="23.1894398282202" y1="25.31076017178" x2="22.9510618943234" y2="25.0001000000002"/>
    <line x1="22.9510618943234" y1="25.0001000000002" x2="22.8012112605664" y2="24.638328567654"/>
    <line x1="22.8012112605664" y1="24.638328567654" x2="22.7501" y2="24.2501000000002"/>
    <line x1="22.7501" y1="24.2501000000002" x2="22.8012112605664" y2="23.8618714323464"/>
    <line x1="22.8012112605664" y1="23.8618714323464" x2="22.9510618943233" y2="23.5001000000002"/>
    <line x1="22.9510618943233" y1="23.5001000000002" x2="23.1894398282202" y2="23.1894398282204"/>
    <line x1="23.1894398282202" y1="23.1894398282204" x2="23.5001" y2="22.9510618943235"/>
    <line x1="23.5001" y1="22.9510618943235" x2="23.8618714323462" y2="22.8012112605666"/>
    <line x1="23.8618714323462" y1="22.8012112605666" x2="24.2501" y2="22.7501000000002"/>
    <line x1="24.2501" y1="22.7501000000002" x2="24.6383285676538" y2="22.8012112605666"/>
    <line x1="24.6383285676538" y1="22.8012112605666" x2="25.0001" y2="22.9510618943235"/>
    <line x1="25.0001" y1="22.9510618943235" x2="25.3107601717798" y2="23.1894398282204"/>
    <line x1="25.3107601717798" y1="23.1894398282204" x2="25.5491381056767" y2="23.5001000000002"/>
    <line x1="25.5491381056767" y1="23.5001000000002" x2="25.6989887394336" y2="23.8618714323464"/>
    <line x1="25.6989887394336" y1="23.8618714323464" x2="25.7501" y2="24.2501000000002"/>
    <line x1="25.7501" y1="24.2501000000002" x2="25.6989887394336" y2="24.638328567654"/>
    <line x1="25.6989887394336" y1="24.638328567654" x2="25.5491381056767" y2="25.0001000000002"/>
    <line x1="25.5491381056767" y1="25.0001000000002" x2="25.3107601717799" y2="25.31076017178"/>
    <line x1="25.3107601717799" y1="25.31076017178" x2="25.0001" y2="25.5491381056769"/>
    <line x1="25.0001" y1="25.5491381056769" x2="24.6383285676538" y2="25.6989887394338"/>
    <line x1="24.6383285676538" y1="25.6989887394338" x2="24.2501" y2="25.7501000000002"/>
    <line x1="24.2501" y1="25.7501000000002" x2="23.8618714323462" y2="25.6989887394338"/>
    <line x1="23.8618714323462" y1="25.6989887394338" x2="23.5001" y2="25.5491381056769"/>
    <line x1="94.4510618943233" y1="23.5001000000002" x2="94.6894398282202" y2="23.1894398282204"/>
    <line x1="94.6894398282202" y1="23.1894398282204" x2="95.0001" y2="22.9510618943235"/>
    <line x1="95.0001" y1="22.9510618943235" x2="95.3618714323462" y2="22.8012112605666"/>
    <line x1="95.3618714323462" y1="22.8012112605666" x2="95.7501" y2="22.7501000000002"/>
    <line x1="95.7501" y1="22.7501000000002" x2="96.1383285676538" y2="22.8012112605666"/>
    <line x1="96.1383285676538" y1="22.8012112605666" x2="96.5001" y2="22.9510618943236"/>
    <line x1="96.5001" y1="22.9510618943236" x2="96.8107601717798" y2="23.1894398282203"/>
    <line x1="96.8107601717798" y1="23.1894398282203" x2="97.0491381056767" y2="23.5001000000001"/>
    <line x1="97.0491381056767" y1="23.5001000000001" x2="97.1989887394336" y2="23.8618714323464"/>
    <line x1="97.1989887394336" y1="23.8618714323464" x2="97.2501" y2="24.2501000000002"/>
    <line x1="97.2501" y1="24.2501000000002" x2="97.1989887394336" y2="24.638328567654"/>
    <line x1="97.1989887394336" y1="24.638328567654" x2="97.0491381056767" y2="25.0001000000002"/>
    <line x1="97.0491381056767" y1="25.0001000000002" x2="96.8107601717798" y2="25.3107601717801"/>
    <line x1="96.8107601717798" y1="25.3107601717801" x2="96.5001" y2="25.5491381056768"/>
    <line x1="96.5001" y1="25.5491381056768" x2="96.1383285676538" y2="25.6989887394338"/>
    <line x1="96.1383285676538" y1="25.6989887394338" x2="95.7501" y2="25.7501000000002"/>
    <line x1="95.7501" y1="25.7501000000002" x2="95.3618714323462" y2="25.6989887394338"/>
    <line x1="95.3618714323462" y1="25.6989887394338" x2="95.0001" y2="25.5491381056768"/>
    <line x1="95.0001" y1="25.5491381056768" x2="94.6894398282202" y2="25.3107601717801"/>
    <line x1="94.6894398282202" y1="25.3107601717801" x2="94.4510618943233" y2="25.0001000000002"/>
    <line x1="94.4510618943233" y1="25.0001000000002" x2="94.3012112605664" y2="24.638328567654"/>
    <line x1="94.3012112605664" y1="24.638328567654" x2="94.2501" y2="24.2501000000002"/>
    <line x1="94.2501" y1="24.2501000000002" x2="94.3012112605664" y2="23.8618714323464"/>
    <line x1="94.3012112605664" y1="23.8618714323464" x2="94.4510618943233" y2="23.5001000000002"/>
    <line x1="25.5491381056767" y1="95.0001000000003" x2="25.6989887394336" y2="95.3618714323464"/>
    <line x1="25.6989887394336" y1="95.3618714323464" x2="25.7501" y2="95.7501000000003"/>
    <line x1="25.7501" y1="95.7501000000003" x2="25.6989887394336" y2="96.1383285676541"/>
    <line x1="25.6989887394336" y1="96.1383285676541" x2="25.5491381056767" y2="96.5001000000003"/>
    <line x1="25.5491381056767" y1="96.5001000000003" x2="25.3107601717798" y2="96.8107601717801"/>
    <line x1="25.3107601717798" y1="96.8107601717801" x2="25.0001" y2="97.0491381056769"/>
    <line x1="25.0001" y1="97.0491381056769" x2="24.6383285676538" y2="97.1989887394339"/>
    <line x1="24.6383285676538" y1="97.1989887394339" x2="24.2501" y2="97.2501000000002"/>
    <line x1="24.2501" y1="97.2501000000002" x2="23.8618714323462" y2="97.1989887394339"/>
    <line x1="23.8618714323462" y1="97.1989887394339" x2="23.5001" y2="97.0491381056769"/>
    <line x1="23.5001" y1="97.0491381056769" x2="23.1894398282202" y2="96.8107601717801"/>
    <line x1="23.1894398282202" y1="96.8107601717801" x2="22.9510618943233" y2="96.5001000000002"/>
    <line x1="22.9510618943233" y1="96.5001000000002" x2="22.8012112605664" y2="96.1383285676541"/>
    <line x1="22.8012112605664" y1="96.1383285676541" x2="22.7501" y2="95.7501000000003"/>
    <line x1="22.7501" y1="95.7501000000003" x2="22.8012112605664" y2="95.3618714323464"/>
    <line x1="22.8012112605664" y1="95.3618714323464" x2="22.9510618943234" y2="95.0001000000003"/>
    <line x1="22.9510618943234" y1="95.0001000000003" x2="23.1894398282202" y2="94.6894398282204"/>
    <line x1="23.1894398282202" y1="94.6894398282204" x2="23.5001" y2="94.4510618943236"/>
    <line x1="23.5001" y1="94.4510618943236" x2="23.8618714323462" y2="94.3012112605666"/>
    <line x1="23.8618714323462" y1="94.3012112605666" x2="24.2501" y2="94.2501000000002"/>
    <line x1="24.2501" y1="94.2501000000002" x2="24.6383285676538" y2="94.3012112605666"/>
    <line x1="24.6383285676538" y1="94.3012112605666" x2="25.0001" y2="94.4510618943236"/>
    <line x1="25.0001" y1="94.4510618943236" x2="25.3107601717799" y2="94.6894398282205"/>
    <line x1="25.3107601717799" y1="94.6894398282205" x2="25.5491381056767" y2="95.0001000000003"/>
    <line x1="96.8107601717798" y1="96.8107601717801" x2="96.5001" y2="97.0491381056769"/>
    <line x1="96.5001" y1="97.0491381056769" x2="96.1383285676538" y2="97.1989887394339"/>
    <line x1="96.1383285676538" y1="97.1989887394339" x2="95.7501" y2="97.2501000000003"/>
    <line x1="95.7501" y1="97.2501000000003" x2="95.3618714323462" y2="97.1989887394339"/>
    <line x1="95.3618714323462" y1="97.1989887394339" x2="95.0001" y2="97.0491381056769"/>
    <line x1="95.0001" y1="97.0491381056769" x2="94.6894398282202" y2="96.8107601717801"/>
    <line x1="94.6894398282202" y1="96.8107601717801" x2="94.4510618943233" y2="96.5001000000003"/>
    <line x1="94.4510618943233" y1="96.5001000000003" x2="94.3012112605664" y2="96.138328567654"/>
    <line x1="94.3012112605664" y1="96.138328567654" x2="94.2501" y2="95.7501000000003"/>
    <line x1="94.2501" y1="95.7501000000003" x2="94.3012112605664" y2="95.3618714323464"/>
    <line x1="94.3012112605664" y1="95.3618714323464" x2="94.4510618943233" y2="95.0001000000003"/>
    <line x1="94.4510618943233" y1="95.0001000000003" x2="94.6894398282202" y2="94.6894398282204"/>
    <line x1="94.6894398282202" y1="94.6894398282204" x2="95.0001" y2="94.4510618943236"/>
    <line x1="95.0001" y1="94.4510618943236" x2="95.3618714323462" y2="94.3012112605666"/>
    <line x1="95.3618714323462" y1="94.3012112605666" x2="95.7501" y2="94.2501000000003"/>
    <line x1="95.7501" y1="94.2501000000003" x2="96.1383285676538" y2="94.3012112605666"/>
    <line x1="96.1383285676538" y1="94.3012112605666" x2="96.5001" y2="94.4510618943236"/>
    <line x1="96.5001" y1="94.4510618943236" x2="96.8107601717798" y2="94.6894398282205"/>
    <line x1="96.8107601717798" y1="94.6894398282205" x2="97.0491381056767" y2="95.0001000000002"/>
    <line x1="97.0491381056767" y1="95.0001000000002" x2="97.1989887394336" y2="95.3618714323464"/>
    <line x1="97.1989887394336" y1="95.3618714323464" x2="97.2501" y2="95.7501000000003"/>
    <line x1="97.2501" y1="95.7501000000003" x2="97.1989887394336" y2="96.1383285676541"/>
    <line x1="97.1989887394336" y1="96.1383285676541" x2="97.0491381056767" y2="96.5001000000002"/>
    <line x1="97.0491381056767" y1="96.5001000000002" x2="96.8107601717798" y2="96.8107601717801"/>
  </g>
</svg>
