<?xml version="1.0" standalone="no"?>
<!DOCTYPE svg PUBLIC "-//W3C//DTD SVG 1.1//EN" "http://www.w3.org/Graphics/SVG/1.1/DTD/svg11.dtd">
<svg width="134.0mm" height="101.0mm"
 viewBox="0 0 134.0 101.0"
 xmlns="http://www.w3.org/2000/svg" version="1.1"
 xmlns:xlink="http://www.w3.org/1999/xlink">
<desc>Output from Flights of Ideas SVG Sketchup Plugin</desc>

  <g id="face0" fill="none" stroke="rgb(0,0,255)" stroke-width="1" stroke-miterlimit="4" stroke-dasharray="none" stroke-linejoin="round" stroke-linecap="round">
    <line x1="31.0" y1="97.0000000000001" x2="65.5" y2="97.0000000000001"/>
    <line x1="65.5" y1="97.0000000000001" x2="65.5" y2="95.0"/>
    <line x1="65.5" y1="95.0" x2="64.2" y2="94.9999999999999"/>
    <line x1="64.2" y1="94.9999999999999" x2="64.2" y2="92.8"/>
    <line x1="64.2" y1="92.8" x2="65.5" y2="92.8"/>
    <line x1="65.5" y1="92.8" x2="65.5" y2="89.8"/>
    <line x1="65.5" y1="89.8" x2="68.5" y2="89.8"/>
    <line x1="68.5" y1="89.8" x2="68.5" y2="92.8"/>
    <line x1="68.5" y1="92.8" x2="69.8" y2="92.8"/>
    <line x1="69.8" y1="92.8" x2="69.8" y2="95.0"/>
    <line x1="69.8" y1="95.0" x2="68.5" y2="95.0"/>
    <line x1="68.5" y1="95.0" x2="68.5" y2="97.0000000000001"/>
    <line x1="68.5" y1="97.0000000000001" x2="103.0" y2="97.0000000000001"/>
    <line x1="103.0" y1="97.0000000000001" x2="103.0" y2="99.9999999999999"/>
    <line x1="103.0" y1="99.9999999999999" x2="123.0" y2="100.0"/>
    <line x1="123.0" y1="100.0" x2="123.0" y2="97.0000000000001"/>
    <line x1="123.0" y1="97.0000000000001" x2="133.0" y2="97.0000000000001"/>
    <line x1="133.0" y1="97.0000000000001" x2="133.0" y2="4.0"/>
    <line x1="133.0" y1="4.0" x2="117.0" y2="4.0"/>
    <line x1="117.0" y1="4.0" x2="117.0" y2="1.0"/>
    <line x1="117.0" y1="1.0" x2="97.0" y2="1.0"/>
    <line x1="97.0" y1="1.0" x2="97.0" y2="4.0"/>
    <line x1="97.0" y1="4.0" x2="76.5" y2="4.0"/>
    <line x1="76.5" y1="4.0" x2="76.5" y2="6.0"/>
    <line x1="76.5" y1="6.0" x2="77.8" y2="6.0"/>
    <line x1="77.8" y1="6.0" x2="77.8" y2="8.19999999999999"/>
    <line x1="77.8" y1="8.19999999999999" x2="76.5" y2="8.19999999999999"/>
    <line x1="76.5" y1="8.19999999999999" x2="76.5" y2="11.2"/>
    <line x1="76.5" y1="11.2" x2="73.4999999999999" y2="11.2"/>
    <line x1="73.4999999999999" y1="11.2" x2="73.4999999999999" y2="8.19999999999999"/>
    <line x1="73.4999999999999" y1="8.19999999999999" x2="72.3" y2="8.19999999999999"/>
    <line x1="72.3" y1="8.19999999999999" x2="72.3" y2="6.0"/>
    <line x1="72.3" y1="6.0" x2="73.6" y2="6.0"/>
    <line x1="73.6" y1="6.0" x2="73.6" y2="4.0"/>
    <line x1="73.6" y1="4.0" x2="47.0" y2="4.0"/>
    <line x1="47.0" y1="4.0" x2="47.0" y2="1.0"/>
    <line x1="47.0" y1="1.0" x2="17.0" y2="1.0"/>
    <line x1="17.0" y1="1.0" x2="17.0" y2="4.0"/>
    <line x1="17.0" y1="4.0" x2="1.0" y2="4.0"/>
    <line x1="1.0" y1="4.0" x2="1.0" y2="97.0000000000001"/>
    <line x1="1.0" y1="97.0000000000001" x2="11.0" y2="97.0000000000001"/>
    <line x1="11.0" y1="97.0000000000001" x2="11.0" y2="100.0"/>
    <line x1="11.0" y1="100.0" x2="31.0" y2="100.0"/>
    <line x1="31.0" y1="100.0" x2="31.0" y2="97.0000000000001"/>
    <line x1="93.7051491614879" y1="49.5000000000002" x2="94.4997422744773" y2="48.4644660940675"/>
    <line x1="94.4997422744773" y1="48.4644660940675" x2="95.5352761804101" y2="47.669872981078"/>
    <line x1="95.5352761804101" y1="47.669872981078" x2="96.7411809548975" y2="47.1703708685549"/>
    <line x1="96.7411809548975" y1="47.1703708685549" x2="98.0352761804101" y2="47.0000000000002"/>
    <line x1="98.0352761804101" y1="47.0000000000002" x2="99.3293714059226" y2="47.1703708685549"/>
    <line x1="99.3293714059226" y1="47.1703708685549" x2="100.53527618041" y2="47.669872981078"/>
    <line x1="100.53527618041" y1="47.669872981078" x2="101.570810086343" y2="48.4644660940675"/>
    <line x1="101.570810086343" y1="48.4644660940675" x2="102.365403199332" y2="49.5000000000002"/>
    <line x1="102.365403199332" y1="49.5000000000002" x2="102.864905311855" y2="50.7059047744876"/>
    <line x1="102.864905311855" y1="50.7059047744876" x2="103.03527618041" y2="52.0000000000002"/>
    <line x1="103.03527618041" y1="52.0000000000002" x2="102.864905311855" y2="53.2940952255128"/>
    <line x1="102.864905311855" y1="53.2940952255128" x2="102.365403199332" y2="54.5000000000002"/>
    <line x1="102.365403199332" y1="54.5000000000002" x2="101.570810086343" y2="55.5355339059329"/>
    <line x1="101.570810086343" y1="55.5355339059329" x2="100.53527618041" y2="56.3301270189224"/>
    <line x1="100.53527618041" y1="56.3301270189224" x2="99.3293714059226" y2="56.8296291314456"/>
    <line x1="99.3293714059226" y1="56.8296291314456" x2="98.0352761804101" y2="57.0000000000002"/>
    <line x1="98.0352761804101" y1="57.0000000000002" x2="96.7411809548975" y2="56.8296291314456"/>
    <line x1="96.7411809548975" y1="56.8296291314456" x2="95.5352761804101" y2="56.3301270189224"/>
    <line x1="95.5352761804101" y1="56.3301270189224" x2="94.4997422744773" y2="55.5355339059329"/>
    <line x1="94.4997422744773" y1="55.5355339059329" x2="93.7051491614879" y2="54.5000000000002"/>
    <line x1="93.7051491614879" y1="54.5000000000002" x2="93.2056470489647" y2="53.2940952255128"/>
    <line x1="93.2056470489647" y1="53.2940952255128" x2="93.0352761804101" y2="52.0000000000002"/>
    <line x1="93.0352761804101" y1="52.0000000000002" x2="93.2056470489647" y2="50.7059047744876"/>
    <line x1="93.2056470489647" y1="50.7059047744876" x2="93.7051491614879" y2="49.5000000000002"/>
    <line x1="5.88822856765375" y1="54.9488887394336" x2="5.5" y2="54.9999999999999"/>
    <line x1="5.5" y1="54.9999999999999" x2="5.11177143234622" y2="54.9488887394336"/>
    <line x1="5.11177143234622" y1="54.9488887394336" x2="4.75" y2="54.7990381056766"/>
    <line x1="4.75" y1="54.7990381056766" x2="4.43933982822017" y2="54.5606601717798"/>
    <line x1="4.43933982822017" y1="54.5606601717798" x2="4.20096189432334" y2="54.25"/>
    <line x1="4.20096189432334" y1="54.25" x2="4.05111126056642" y2="53.8882285676538"/>
    <line x1="4.05111126056642" y1="53.8882285676538" x2="3.99999999999997" y2="53.5"/>
    <line x1="3.99999999999997" y1="53.5" x2="4.05111126056642" y2="53.1117714323462"/>
    <line x1="4.05111126056642" y1="53.1117714323462" x2="4.20096189432334" y2="52.75"/>
    <line x1="4.20096189432334" y1="52.75" x2="4.43933982822017" y2="52.4393398282201"/>
    <line x1="4.43933982822017" y1="52.4393398282201" x2="4.75" y2="52.2009618943233"/>
    <line x1="4.75" y1="52.2009618943233" x2="5.11177143234622" y2="52.0511112605664"/>
    <line x1="5.11177143234622" y1="52.0511112605664" x2="5.5" y2="51.9999999999999"/>
    <line x1="5.5" y1="51.9999999999999" x2="5.88822856765375" y2="52.0511112605664"/>
    <line x1="5.88822856765375" y1="52.0511112605664" x2="6.24999999999997" y2="52.2009618943233"/>
    <line x1="6.24999999999997" y1="52.2009618943233" x2="6.5606601717798" y2="52.4393398282202"/>
    <line x1="6.5606601717798" y1="52.4393398282202" x2="6.79903810567663" y2="52.75"/>
    <line x1="6.79903810567663" y1="52.75" x2="6.94888873943361" y2="53.1117714323462"/>
    <line x1="6.94888873943361" y1="53.1117714323462" x2="6.99999999999997" y2="53.5"/>
    <line x1="6.99999999999997" y1="53.5" x2="6.94888873943361" y2="53.8882285676538"/>
    <line x1="6.94888873943361" y1="53.8882285676538" x2="6.79903810567663" y2="54.25"/>
    <line x1="6.79903810567663" y1="54.25" x2="6.5606601717798" y2="54.5606601717798"/>
    <line x1="6.5606601717798" y1="54.5606601717798" x2="6.24999999999997" y2="54.7990381056766"/>
    <line x1="6.24999999999997" y1="54.7990381056766" x2="5.88822856765375" y2="54.9488887394336"/>
    <line x1="128.888228567654" y1="54.9488887394335" x2="128.5" y2="55.0"/>
    <line x1="128.5" y1="55.0" x2="128.111771432346" y2="54.9488887394336"/>
    <line x1="128.111771432346" y1="54.9488887394336" x2="127.75" y2="54.7990381056766"/>
    <line x1="127.75" y1="54.7990381056766" x2="127.43933982822" y2="54.5606601717798"/>
    <line x1="127.43933982822" y1="54.5606601717798" x2="127.200961894323" y2="54.2500000000001"/>
    <line x1="127.200961894323" y1="54.2500000000001" x2="127.051111260566" y2="53.8882285676538"/>
    <line x1="127.051111260566" y1="53.8882285676538" x2="127.0" y2="53.5"/>
    <line x1="127.0" y1="53.5" x2="127.051111260566" y2="53.1117714323462"/>
    <line x1="127.051111260566" y1="53.1117714323462" x2="127.200961894323" y2="52.75"/>
    <line x1="127.200961894323" y1="52.75" x2="127.43933982822" y2="52.4393398282202"/>
    <line x1="127.43933982822" y1="52.4393398282202" x2="127.75" y2="52.2009618943233"/>
    <line x1="127.75" y1="52.2009618943233" x2="128.111771432346" y2="52.0511112605664"/>
    <line x1="128.111771432346" y1="52.0511112605664" x2="128.5" y2="51.9999999999999"/>
    <line x1="128.5" y1="51.9999999999999" x2="128.888228567654" y2="52.0511112605664"/>
    <line x1="128.888228567654" y1="52.0511112605664" x2="129.25" y2="52.2009618943233"/>
    <line x1="129.25" y1="52.2009618943233" x2="129.56066017178" y2="52.4393398282202"/>
    <line x1="129.56066017178" y1="52.4393398282202" x2="129.799038105677" y2="52.75"/>
    <line x1="129.799038105677" y1="52.75" x2="129.948888739434" y2="53.1117714323462"/>
    <line x1="129.948888739434" y1="53.1117714323462" x2="130.0" y2="53.5"/>
    <line x1="130.0" y1="53.5" x2="129.948888739434" y2="53.8882285676538"/>
    <line x1="129.948888739434" y1="53.8882285676538" x2="129.799038105677" y2="54.25"/>
    <line x1="129.799038105677" y1="54.25" x2="129.56066017178" y2="54.5606601717798"/>
    <line x1="129.56066017178" y1="54.5606601717798" x2="129.25" y2="54.7990381056766"/>
    <line x1="129.25" y1="54.7990381056766" x2="128.888228567654" y2="54.9488887394335"/>
    <line x1="129.999999999982" y1="23.9999999999999" x2="126.999999999982" y2="23.9999999999999"/>
    <line x1="126.999999999982" y1="23.9999999999999" x2="126.999999999982" y2="13.9999999999999"/>
    <line x1="126.999999999982" y1="13.9999999999999" x2="129.999999999982" y2="13.9999999999999"/>
    <line x1="129.999999999982" y1="13.9999999999999" x2="129.999999999982" y2="23.9999999999999"/>
    <line x1="6.99999999999997" y1="23.9999999999999" x2="3.99999999999994" y2="23.9999999999999"/>
    <line x1="3.99999999999994" y1="23.9999999999999" x2="3.99999999999994" y2="13.9999999999999"/>
    <line x1="3.99999999999994" y1="13.9999999999999" x2="6.99999999999997" y2="13.9999999999999"/>
    <line x1="6.99999999999997" y1="13.9999999999999" x2="6.99999999999997" y2="23.9999999999999"/>
    <line x1="93.9999999999999" y1="37.0" x2="93.9999999999999" y2="34.0000000000003"/>
    <line x1="93.9999999999999" y1="34.0000000000003" x2="114.0" y2="34.0000000000003"/>
    <line x1="114.0" y1="34.0000000000003" x2="114.0" y2="37.0"/>
    <line x1="114.0" y1="37.0" x2="93.9999999999999" y2="37.0"/>
    <line x1="20.0" y1="37.0" x2="20.0" y2="34.0000000000001"/>
    <line x1="20.0" y1="34.0000000000001" x2="50.0" y2="34.0000000000001"/>
    <line x1="50.0" y1="34.0000000000001" x2="50.0" y2="37.0"/>
    <line x1="50.0" y1="37.0" x2="20.0" y2="37.0"/>
    <line x1="61.1470476127563" y1="55.714814565723" x2="60.4999999999999" y2="55.8000000000004"/>
    <line x1="60.4999999999999" y1="55.8000000000004" x2="59.8529523872436" y2="55.714814565723"/>
    <line x1="59.8529523872436" y1="55.714814565723" x2="59.2499999999999" y2="55.4650635094615"/>
    <line x1="59.2499999999999" y1="55.4650635094615" x2="58.7322330470336" y2="55.0677669529667"/>
    <line x1="58.7322330470336" y1="55.0677669529667" x2="58.3349364905389" y2="54.5500000000004"/>
    <line x1="58.3349364905389" y1="54.5500000000004" x2="58.0851854342773" y2="53.9470476127566"/>
    <line x1="58.0851854342773" y1="53.9470476127566" x2="58.0" y2="53.3000000000004"/>
    <line x1="58.0" y1="53.3000000000004" x2="58.0851854342773" y2="52.652952387244"/>
    <line x1="58.0851854342773" y1="52.652952387244" x2="58.3349364905389" y2="52.0500000000004"/>
    <line x1="58.3349364905389" y1="52.0500000000004" x2="58.7322330470336" y2="51.532233047034"/>
    <line x1="58.7322330470336" y1="51.532233047034" x2="59.2499999999999" y2="51.1349364905392"/>
    <line x1="59.2499999999999" y1="51.1349364905392" x2="59.8529523872436" y2="50.8851854342777"/>
    <line x1="59.8529523872436" y1="50.8851854342777" x2="60.4999999999999" y2="50.8000000000004"/>
    <line x1="60.4999999999999" y1="50.8000000000004" x2="61.1470476127563" y2="50.8851854342777"/>
    <line x1="61.1470476127563" y1="50.8851854342777" x2="61.75" y2="51.1349364905392"/>
    <line x1="61.75" y1="51.1349364905392" x2="62.2677669529663" y2="51.532233047034"/>
    <line x1="62.2677669529663" y1="51.532233047034" x2="62.665063509461" y2="52.0500000000004"/>
    <line x1="62.665063509461" y1="52.0500000000004" x2="62.9148145657226" y2="52.652952387244"/>
    <line x1="62.9148145657226" y1="52.652952387244" x2="62.9999999999999" y2="53.3000000000004"/>
    <line x1="62.9999999999999" y1="53.3000000000004" x2="62.9148145657226" y2="53.9470476127566"/>
    <line x1="62.9148145657226" y1="53.9470476127566" x2="62.665063509461" y2="54.5500000000004"/>
    <line x1="62.665063509461" y1="54.5500000000004" x2="62.2677669529663" y2="55.0677669529667"/>
    <line x1="62.2677669529663" y1="55.0677669529667" x2="61.75" y2="55.4650635094614"/>
    <line x1="61.75" y1="55.4650635094614" x2="61.1470476127563" y2="55.714814565723"/>
    <line x1="36.9" y1="46.5000000000001" x2="36.9" y2="59.5000000000001"/>
    <line x1="36.9" y1="59.5000000000001" x2="18.1" y2="59.5000000000001"/>
    <line x1="18.1" y1="59.5000000000001" x2="18.1" y2="46.5000000000001"/>
    <line x1="18.1" y1="46.5000000000001" x2="36.9" y2="46.5000000000001"/>
  </g>
</svg>
