<?xml version="1.0" standalone="no"?>
<!DOCTYPE svg PUBLIC "-//W3C//DTD SVG 1.1//EN" "http://www.w3.org/Graphics/SVG/1.1/DTD/svg11.dtd">
<svg width="126.0002mm" height="66.0002000000002mm"
 viewBox="0 0 126.0002 66.0002000000002"
 xmlns="http://www.w3.org/2000/svg" version="1.1"
 xmlns:xlink="http://www.w3.org/1999/xlink">
<desc>Output from Flights of Ideas SVG Sketchup Plugin</desc>

  <g id="face0" fill="none" stroke="rgb(0,0,255)" stroke-width="0.0001" stroke-miterlimit="4" stroke-dasharray="none" stroke-linejoin="round" stroke-linecap="round">
    <line x1="0.0001" y1="3.00010000000017" x2="0.0001" y2="66.0001000000002"/>
    <line x1="0.0001" y1="66.0001000000002" x2="126.0001" y2="66.0001000000002"/>
    <line x1="126.0001" y1="66.0001000000002" x2="126.0001" y2="3.00010000000017"/>
    <line x1="126.0001" y1="3.00010000000017" x2="113.0001" y2="3.00010000000017"/>
    <line x1="113.0001" y1="3.00010000000017" x2="113.0001" y2="0.000100000000284217"/>
    <line x1="113.0001" y1="0.000100000000284217" x2="93.0001" y2="0.0001"/>
    <line x1="93.0001" y1="0.0001" x2="93.0001" y2="3.00010000000017"/>
    <line x1="93.0001" y1="3.00010000000017" x2="72.5001" y2="3.00010000000017"/>
    <line x1="72.5001" y1="3.00010000000017" x2="72.5001" y2="5.00010000000051"/>
    <line x1="72.5001" y1="5.00010000000051" x2="73.8001" y2="5.00010000000051"/>
    <line x1="73.8001" y1="5.00010000000051" x2="73.8001" y2="7.2001000000001"/>
    <line x1="73.8001" y1="7.2001000000001" x2="72.5001" y2="7.2001000000001"/>
    <line x1="72.5001" y1="7.2001000000001" x2="72.5001" y2="10.2001000000001"/>
    <line x1="72.5001" y1="10.2001000000001" x2="69.5001" y2="10.2001000000002"/>
    <line x1="69.5001" y1="10.2001000000002" x2="69.5001" y2="7.20010000000022"/>
    <line x1="69.5001" y1="7.20010000000022" x2="68.3001" y2="7.2001000000001"/>
    <line x1="68.3001" y1="7.2001000000001" x2="68.3001" y2="5.00009999999972"/>
    <line x1="68.3001" y1="5.00009999999972" x2="69.6001" y2="5.00010000000006"/>
    <line x1="69.6001" y1="5.00010000000006" x2="69.6001" y2="3.00010000000017"/>
    <line x1="69.6001" y1="3.00010000000017" x2="43.0001" y2="3.00010000000017"/>
    <line x1="43.0001" y1="3.00010000000017" x2="43.0001" y2="0.000100000000113687"/>
    <line x1="43.0001" y1="0.000100000000113687" x2="13.0001" y2="0.00010000000017053"/>
    <line x1="13.0001" y1="0.00010000000017053" x2="13.0001" y2="3.00010000000017"/>
    <line x1="13.0001" y1="3.00010000000017" x2="0.0001" y2="3.00010000000017"/>
    <line x1="32.9001" y1="45.5001000000003" x2="32.9001" y2="58.5001000000003"/>
    <line x1="32.9001" y1="58.5001000000003" x2="14.1001" y2="58.5001000000003"/>
    <line x1="14.1001" y1="58.5001000000003" x2="14.1001" y2="45.5001000000003"/>
    <line x1="14.1001" y1="45.5001000000003" x2="32.9001" y2="45.5001000000003"/>
    <line x1="95.0706523608202" y1="54.8638033051567" x2="94.0353761804101" y2="55.0001000000003"/>
    <line x1="94.0353761804101" y1="55.0001000000003" x2="93.0001" y2="54.8638033051566"/>
    <line x1="93.0001" y1="54.8638033051566" x2="92.0353761804101" y2="54.4642016151381"/>
    <line x1="92.0353761804101" y1="54.4642016151381" x2="91.2069490556639" y2="53.8285271247466"/>
    <line x1="91.2069490556639" y1="53.8285271247466" x2="90.5712745652723" y2="53.0001000000003"/>
    <line x1="90.5712745652723" y1="53.0001000000003" x2="90.1716728752538" y2="52.0353761804105"/>
    <line x1="90.1716728752538" y1="52.0353761804105" x2="90.0353761804101" y2="51.0001000000003"/>
    <line x1="90.0353761804101" y1="51.0001000000003" x2="90.1716728752538" y2="49.9648238195903"/>
    <line x1="90.1716728752538" y1="49.9648238195903" x2="90.5712745652723" y2="49.0001000000004"/>
    <line x1="90.5712745652723" y1="49.0001000000004" x2="91.2069490556639" y2="48.1716728752542"/>
    <line x1="91.2069490556639" y1="48.1716728752542" x2="92.0353761804101" y2="47.5359983848626"/>
    <line x1="92.0353761804101" y1="47.5359983848626" x2="93.0001" y2="47.1363966948441"/>
    <line x1="93.0001" y1="47.1363966948441" x2="94.0353761804101" y2="47.0001000000004"/>
    <line x1="94.0353761804101" y1="47.0001000000004" x2="95.0706523608202" y2="47.1363966948441"/>
    <line x1="95.0706523608202" y1="47.1363966948441" x2="96.0353761804101" y2="47.5359983848626"/>
    <line x1="96.0353761804101" y1="47.5359983848626" x2="96.8638033051563" y2="48.1716728752542"/>
    <line x1="96.8638033051563" y1="48.1716728752542" x2="97.4994777955478" y2="49.0001000000003"/>
    <line x1="97.4994777955478" y1="49.0001000000003" x2="97.8990794855663" y2="49.9648238195903"/>
    <line x1="97.8990794855663" y1="49.9648238195903" x2="98.0353761804101" y2="51.0001000000004"/>
    <line x1="98.0353761804101" y1="51.0001000000004" x2="97.8990794855663" y2="52.0353761804104"/>
    <line x1="97.8990794855663" y1="52.0353761804104" x2="97.4994777955478" y2="53.0001000000004"/>
    <line x1="97.4994777955478" y1="53.0001000000004" x2="96.8638033051563" y2="53.8285271247466"/>
    <line x1="96.8638033051563" y1="53.8285271247466" x2="96.0353761804101" y2="54.4642016151381"/>
    <line x1="96.0353761804101" y1="54.4642016151381" x2="95.0706523608202" y2="54.8638033051567"/>
    <line x1="57.1471476127563" y1="54.7149145657231" x2="56.5001" y2="54.8001000000005"/>
    <line x1="56.5001" y1="54.8001000000005" x2="55.8530523872437" y2="54.7149145657231"/>
    <line x1="55.8530523872437" y1="54.7149145657231" x2="55.2501" y2="54.4651635094616"/>
    <line x1="55.2501" y1="54.4651635094616" x2="54.7323330470336" y2="54.0678669529669"/>
    <line x1="54.7323330470336" y1="54.0678669529669" x2="54.3350364905389" y2="53.5501000000005"/>
    <line x1="54.3350364905389" y1="53.5501000000005" x2="54.0852854342773" y2="52.9471476127568"/>
    <line x1="54.0852854342773" y1="52.9471476127568" x2="54.0001" y2="52.3001000000005"/>
    <line x1="54.0001" y1="52.3001000000005" x2="54.0852854342773" y2="51.6530523872442"/>
    <line x1="54.0852854342773" y1="51.6530523872442" x2="54.3350364905389" y2="51.0501000000005"/>
    <line x1="54.3350364905389" y1="51.0501000000005" x2="54.7323330470336" y2="50.5323330470341"/>
    <line x1="54.7323330470336" y1="50.5323330470341" x2="55.2501" y2="50.1350364905394"/>
    <line x1="55.2501" y1="50.1350364905394" x2="55.8530523872437" y2="49.8852854342778"/>
    <line x1="55.8530523872437" y1="49.8852854342778" x2="56.5001" y2="49.8001000000005"/>
    <line x1="56.5001" y1="49.8001000000005" x2="57.1471476127563" y2="49.8852854342778"/>
    <line x1="57.1471476127563" y1="49.8852854342778" x2="57.7501" y2="50.1350364905394"/>
    <line x1="57.7501" y1="50.1350364905394" x2="58.2678669529664" y2="50.5323330470341"/>
    <line x1="58.2678669529664" y1="50.5323330470341" x2="58.6651635094611" y2="51.0501000000005"/>
    <line x1="58.6651635094611" y1="51.0501000000005" x2="58.9149145657227" y2="51.6530523872442"/>
    <line x1="58.9149145657227" y1="51.6530523872442" x2="59.0001" y2="52.3001000000005"/>
    <line x1="59.0001" y1="52.3001000000005" x2="58.9149145657227" y2="52.9471476127568"/>
    <line x1="58.9149145657227" y1="52.9471476127568" x2="58.6651635094611" y2="53.5501000000005"/>
    <line x1="58.6651635094611" y1="53.5501000000005" x2="58.2678669529664" y2="54.0678669529669"/>
    <line x1="58.2678669529664" y1="54.0678669529669" x2="57.7501" y2="54.4651635094616"/>
    <line x1="57.7501" y1="54.4651635094616" x2="57.1471476127563" y2="54.7149145657231"/>
    <line x1="16.0001" y1="36.0001000000002" x2="16.0001" y2="33.0001000000002"/>
    <line x1="16.0001" y1="33.0001000000002" x2="46.0001" y2="33.0001000000002"/>
    <line x1="46.0001" y1="33.0001000000002" x2="46.0001" y2="36.0001000000002"/>
    <line x1="46.0001" y1="36.0001000000002" x2="16.0001" y2="36.0001000000002"/>
    <line x1="90.0001" y1="36.0001000000002" x2="90.0001" y2="33.0001000000005"/>
    <line x1="90.0001" y1="33.0001000000005" x2="110.0001" y2="33.0001000000005"/>
    <line x1="110.0001" y1="33.0001000000005" x2="110.0001" y2="36.0001000000002"/>
    <line x1="110.0001" y1="36.0001000000002" x2="90.0001" y2="36.0001000000002"/>
    <line x1="6.0001" y1="23.0001000000001" x2="3.00009999999997" y2="23.0001000000001"/>
    <line x1="3.00009999999997" y1="23.0001000000001" x2="3.00009999999997" y2="13.0001000000001"/>
    <line x1="3.00009999999997" y1="13.0001000000001" x2="6.0001" y2="13.0001000000001"/>
    <line x1="6.0001" y1="13.0001000000001" x2="6.0001" y2="23.0001000000001"/>
    <line x1="123.000099999982" y1="23.0001000000002" x2="120.000099999982" y2="23.0001000000001"/>
    <line x1="120.000099999982" y1="23.0001000000001" x2="120.000099999982" y2="13.0001"/>
    <line x1="120.000099999982" y1="13.0001" x2="123.000099999982" y2="13.0000999999999"/>
    <line x1="123.000099999982" y1="13.0000999999999" x2="123.000099999982" y2="23.0001000000002"/>
    <line x1="121.888328567654" y1="53.9489887394337" x2="121.5001" y2="54.0001000000002"/>
    <line x1="121.5001" y1="54.0001000000002" x2="121.111871432346" y2="53.9489887394337"/>
    <line x1="121.111871432346" y1="53.9489887394337" x2="120.7501" y2="53.7991381056769"/>
    <line x1="120.7501" y1="53.7991381056769" x2="120.43943982822" y2="53.56076017178"/>
    <line x1="120.43943982822" y1="53.56076017178" x2="120.201061894323" y2="53.2501000000002"/>
    <line x1="120.201061894323" y1="53.2501000000002" x2="120.051211260566" y2="52.8883285676539"/>
    <line x1="120.051211260566" y1="52.8883285676539" x2="120.0001" y2="52.5001000000002"/>
    <line x1="120.0001" y1="52.5001000000002" x2="120.051211260566" y2="52.1118714323464"/>
    <line x1="120.051211260566" y1="52.1118714323464" x2="120.201061894323" y2="51.7501000000002"/>
    <line x1="120.201061894323" y1="51.7501000000002" x2="120.43943982822" y2="51.4394398282203"/>
    <line x1="120.43943982822" y1="51.4394398282203" x2="120.7501" y2="51.2010618943236"/>
    <line x1="120.7501" y1="51.2010618943236" x2="121.111871432346" y2="51.0512112605665"/>
    <line x1="121.111871432346" y1="51.0512112605665" x2="121.5001" y2="51.0001000000002"/>
    <line x1="121.5001" y1="51.0001000000002" x2="121.888328567654" y2="51.0512112605665"/>
    <line x1="121.888328567654" y1="51.0512112605665" x2="122.2501" y2="51.2010618943235"/>
    <line x1="122.2501" y1="51.2010618943235" x2="122.56076017178" y2="51.4394398282203"/>
    <line x1="122.56076017178" y1="51.4394398282203" x2="122.799138105677" y2="51.7501000000002"/>
    <line x1="122.799138105677" y1="51.7501000000002" x2="122.948988739434" y2="52.1118714323464"/>
    <line x1="122.948988739434" y1="52.1118714323464" x2="123.0001" y2="52.5001000000002"/>
    <line x1="123.0001" y1="52.5001000000002" x2="122.948988739434" y2="52.8883285676539"/>
    <line x1="122.948988739434" y1="52.8883285676539" x2="122.799138105677" y2="53.2501000000002"/>
    <line x1="122.799138105677" y1="53.2501000000002" x2="122.56076017178" y2="53.56076017178"/>
    <line x1="122.56076017178" y1="53.56076017178" x2="122.2501" y2="53.7991381056769"/>
    <line x1="122.2501" y1="53.7991381056769" x2="121.888328567654" y2="53.9489887394337"/>
    <line x1="4.88832856765378" y1="53.9489887394338" x2="4.50010000000003" y2="54.0001000000001"/>
    <line x1="4.50010000000003" y1="54.0001000000001" x2="4.11187143234622" y2="53.9489887394338"/>
    <line x1="4.11187143234622" y1="53.9489887394338" x2="3.75010000000003" y2="53.7991381056769"/>
    <line x1="3.75010000000003" y1="53.7991381056769" x2="3.43943982822017" y2="53.5607601717799"/>
    <line x1="3.43943982822017" y1="53.5607601717799" x2="3.20106189432334" y2="53.2501000000002"/>
    <line x1="3.20106189432334" y1="53.2501000000002" x2="3.05121126056642" y2="52.8883285676539"/>
    <line x1="3.05121126056642" y1="52.8883285676539" x2="3.0001" y2="52.5001000000002"/>
    <line x1="3.0001" y1="52.5001000000002" x2="3.05121126056642" y2="52.1118714323464"/>
    <line x1="3.05121126056642" y1="52.1118714323464" x2="3.20106189432334" y2="51.7501000000002"/>
    <line x1="3.20106189432334" y1="51.7501000000002" x2="3.43943982822017" y2="51.4394398282203"/>
    <line x1="3.43943982822017" y1="51.4394398282203" x2="3.75010000000003" y2="51.2010618943235"/>
    <line x1="3.75010000000003" y1="51.2010618943235" x2="4.11187143234622" y2="51.0512112605665"/>
    <line x1="4.11187143234622" y1="51.0512112605665" x2="4.50010000000003" y2="51.0001000000002"/>
    <line x1="4.50010000000003" y1="51.0001000000002" x2="4.88832856765378" y2="51.0512112605665"/>
    <line x1="4.88832856765378" y1="51.0512112605665" x2="5.2501" y2="51.2010618943235"/>
    <line x1="5.2501" y1="51.2010618943235" x2="5.56076017177983" y2="51.4394398282203"/>
    <line x1="5.56076017177983" y1="51.4394398282203" x2="5.79913810567666" y2="51.7501000000002"/>
    <line x1="5.79913810567666" y1="51.7501000000002" x2="5.94898873943364" y2="52.1118714323464"/>
    <line x1="5.94898873943364" y1="52.1118714323464" x2="6.0001" y2="52.5001000000002"/>
    <line x1="6.0001" y1="52.5001000000002" x2="5.94898873943364" y2="52.8883285676539"/>
    <line x1="5.94898873943364" y1="52.8883285676539" x2="5.79913810567666" y2="53.2501000000002"/>
    <line x1="5.79913810567666" y1="53.2501000000002" x2="5.56076017177983" y2="53.56076017178"/>
    <line x1="5.56076017177983" y1="53.56076017178" x2="5.2501" y2="53.7991381056769"/>
    <line x1="5.2501" y1="53.7991381056769" x2="4.88832856765378" y2="53.9489887394338"/>
  </g>
</svg>
