<?xml version="1.0" standalone="no"?>
<!DOCTYPE svg PUBLIC "-//W3C//DTD SVG 1.1//EN" "http://www.w3.org/Graphics/SVG/1.1/DTD/svg11.dtd">
<svg width="66.0002mm" height="120.0002mm"
 viewBox="0 0 66.0002 120.0002"
 xmlns="http://www.w3.org/2000/svg" version="1.1"
 xmlns:xlink="http://www.w3.org/1999/xlink">
<desc>Output from Flights of Ideas SVG Sketchup Plugin</desc>

  <g id="face0" fill="none" stroke="rgb(0,0,255)" stroke-width="0.0001" stroke-miterlimit="4" stroke-dasharray="none" stroke-linejoin="round" stroke-linecap="round">
    <line x1="0.0001" y1="117.0001" x2="12.0001" y2="117.0001"/>
    <line x1="12.0001" y1="117.0001" x2="12.0001" y2="115.0001"/>
    <line x1="12.0001" y1="115.0001" x2="10.7001" y2="115.0001"/>
    <line x1="10.7001" y1="115.0001" x2="10.7001" y2="112.8001"/>
    <line x1="10.7001" y1="112.8001" x2="12.0001" y2="112.8001"/>
    <line x1="12.0001" y1="112.8001" x2="12.0001" y2="109.8001"/>
    <line x1="12.0001" y1="109.8001" x2="15.0001" y2="109.8001"/>
    <line x1="15.0001" y1="109.8001" x2="15.0001" y2="112.8001"/>
    <line x1="15.0001" y1="112.8001" x2="16.3001" y2="112.8001"/>
    <line x1="16.3001" y1="112.8001" x2="16.3001" y2="115.0001"/>
    <line x1="16.3001" y1="115.0001" x2="15.0001" y2="115.0001"/>
    <line x1="15.0001" y1="115.0001" x2="15.0001" y2="117.0001"/>
    <line x1="15.0001" y1="117.0001" x2="43.0001" y2="117.0001"/>
    <line x1="43.0001" y1="117.0001" x2="43.0001" y2="120.0001"/>
    <line x1="43.0001" y1="120.0001" x2="53.0001000000001" y2="120.0001"/>
    <line x1="53.0001000000001" y1="120.0001" x2="53.0001000000001" y2="117.0001"/>
    <line x1="53.0001000000001" y1="117.0001" x2="63.0001000000001" y2="117.0001"/>
    <line x1="63.0001000000001" y1="117.0001" x2="63.0001000000001" y2="107.0001"/>
    <line x1="63.0001000000001" y1="107.0001" x2="66.0001" y2="107.0001"/>
    <line x1="66.0001" y1="107.0001" x2="66.0001" y2="87.0000999999999"/>
    <line x1="66.0001" y1="87.0000999999999" x2="63.0001000000001" y2="87.0001000000001"/>
    <line x1="63.0001000000001" y1="87.0001000000001" x2="63.0001000000001" y2="66.5001"/>
    <line x1="63.0001000000001" y1="66.5001" x2="61.0001000000001" y2="66.5001"/>
    <line x1="61.0001000000001" y1="66.5001" x2="61.0001000000001" y2="67.8001"/>
    <line x1="61.0001000000001" y1="67.8001" x2="58.7801000000001" y2="67.8001"/>
    <line x1="58.7801000000001" y1="67.8001" x2="58.7801000000001" y2="66.5001"/>
    <line x1="58.7801000000001" y1="66.5001" x2="55.7801000000001" y2="66.5001"/>
    <line x1="55.7801000000001" y1="66.5001" x2="55.7801000000001" y2="63.5001"/>
    <line x1="55.7801000000001" y1="63.5001" x2="58.7801000000001" y2="63.5001"/>
    <line x1="58.7801000000001" y1="63.5001" x2="58.7801000000001" y2="62.2001"/>
    <line x1="58.7801000000001" y1="62.2001" x2="60.9801000000001" y2="62.2001"/>
    <line x1="60.9801000000001" y1="62.2001" x2="60.9801000000001" y2="63.5001"/>
    <line x1="60.9801000000001" y1="63.5001" x2="63.0001000000001" y2="63.5001"/>
    <line x1="63.0001000000001" y1="63.5001" x2="63.0001000000001" y2="43.0000999999999"/>
    <line x1="63.0001000000001" y1="43.0000999999999" x2="66.0001" y2="43.0000999999999"/>
    <line x1="66.0001" y1="43.0000999999999" x2="66.0001" y2="13.0001"/>
    <line x1="66.0001" y1="13.0001" x2="63.0001000000001" y2="13.0001"/>
    <line x1="63.0001000000001" y1="13.0001" x2="63.0001000000001" y2="3.0001"/>
    <line x1="63.0001000000001" y1="3.0001" x2="53.0001000000001" y2="3.0001"/>
    <line x1="53.0001000000001" y1="3.0001" x2="53.0001000000001" y2="0.0001"/>
    <line x1="53.0001000000001" y1="0.0001" x2="43.0001000000001" y2="0.0001"/>
    <line x1="43.0001000000001" y1="0.0001" x2="43.0001" y2="3.0001"/>
    <line x1="43.0001" y1="3.0001" x2="15.0001" y2="3.0001"/>
    <line x1="15.0001" y1="3.0001" x2="15.0001" y2="5.00009999999989"/>
    <line x1="15.0001" y1="5.00009999999989" x2="16.3001" y2="5.00009999999989"/>
    <line x1="16.3001" y1="5.00009999999989" x2="16.3001" y2="7.20009999999993"/>
    <line x1="16.3001" y1="7.20009999999993" x2="15.0001" y2="7.20009999999993"/>
    <line x1="15.0001" y1="7.20009999999993" x2="15.0001" y2="10.2001"/>
    <line x1="15.0001" y1="10.2001" x2="12.0001" y2="10.2001"/>
    <line x1="12.0001" y1="10.2001" x2="12.0001" y2="7.20009999999993"/>
    <line x1="12.0001" y1="7.20009999999993" x2="10.7001" y2="7.20009999999993"/>
    <line x1="10.7001" y1="7.20009999999993" x2="10.7001" y2="5.0001"/>
    <line x1="10.7001" y1="5.0001" x2="12.0001" y2="5.0001"/>
    <line x1="12.0001" y1="5.0001" x2="12.0001" y2="3.0001"/>
    <line x1="12.0001" y1="3.0001" x2="0.0001" y2="3.0001"/>
    <line x1="0.0001" y1="3.0001" x2="0.0001" y2="13.0001"/>
    <line x1="0.0001" y1="13.0001" x2="3.02442285920733" y2="20.4776534634247"/>
    <line x1="3.02442285920733" y1="20.4776534634247" x2="5.51925864074473" y2="28.1481246991612"/>
    <line x1="5.51925864074473" y1="28.1481246991612" x2="7.47242950129933" y2="35.9740724465321"/>
    <line x1="7.47242950129933" y1="35.9740724465321" x2="8.87440158342094" y2="43.9172965297397"/>
    <line x1="8.87440158342094" y1="43.9172965297397" x2="9.7183315523816" y2="51.9390243213435"/>
    <line x1="9.7183315523816" y1="51.9390243213435" x2="10.0001" y2="60.0000999999999"/>
    <line x1="10.0001" y1="60.0000999999999" x2="9.7183315523816" y2="68.0611756786564"/>
    <line x1="9.7183315523816" y1="68.0611756786564" x2="8.87440158342099" y2="76.0829034702602"/>
    <line x1="8.87440158342099" y1="76.0829034702602" x2="7.47242950129933" y2="84.0261275534679"/>
    <line x1="7.47242950129933" y1="84.0261275534679" x2="5.51925864074471" y2="91.8520753008387"/>
    <line x1="5.51925864074471" y1="91.8520753008387" x2="3.02442285920733" y2="99.5225465365753"/>
    <line x1="3.02442285920733" y1="99.5225465365753" x2="0.0001" y2="107.0001"/>
    <line x1="0.0001" y1="107.0001" x2="0.0001" y2="117.0001"/>
    <line x1="30.0001000000001" y1="87.0000999999999" x2="33.0001" y2="87.0000999999999"/>
    <line x1="33.0001" y1="87.0000999999999" x2="33.0001" y2="107.0001"/>
    <line x1="33.0001" y1="107.0001" x2="30.0001000000001" y2="107.0001"/>
    <line x1="30.0001000000001" y1="107.0001" x2="30.0001000000001" y2="87.0000999999999"/>
    <line x1="30.0001000000001" y1="13.0001" x2="33.0001000000001" y2="13.0001"/>
    <line x1="33.0001000000001" y1="13.0001" x2="33.0001000000001" y2="43.0000999999999"/>
    <line x1="33.0001000000001" y1="43.0000999999999" x2="30.0001000000001" y2="43.0001000000001"/>
    <line x1="30.0001000000001" y1="43.0001000000001" x2="30.0001000000001" y2="13.0001"/>
  </g>
</svg>
