<?xml version="1.0" standalone="no"?>
<!DOCTYPE svg PUBLIC "-//W3C//DTD SVG 1.1//EN" "http://www.w3.org/Graphics/SVG/1.1/DTD/svg11.dtd">
<svg width="101.0mm" height="128.0mm"
 viewBox="0 0 101.0 128.0"
 xmlns="http://www.w3.org/2000/svg" version="1.1"
 xmlns:xlink="http://www.w3.org/1999/xlink">
<desc>Output from Flights of Ideas SVG Sketchup Plugin</desc>

  <g id="face0" fill="none" stroke="rgb(0,0,255)" stroke-width="1" stroke-miterlimit="4" stroke-dasharray="none" stroke-linejoin="round" stroke-linecap="round">
    <line x1="3.99999999999994" y1="124.0" x2="46.0" y2="124.0"/>
    <line x1="46.0" y1="124.0" x2="46.0" y2="122.0"/>
    <line x1="46.0" y1="122.0" x2="44.7" y2="122.0"/>
    <line x1="44.7" y1="122.0" x2="44.7" y2="119.8"/>
    <line x1="44.7" y1="119.8" x2="46.0" y2="119.8"/>
    <line x1="46.0" y1="119.8" x2="46.0" y2="116.8"/>
    <line x1="46.0" y1="116.8" x2="49.0" y2="116.8"/>
    <line x1="49.0" y1="116.8" x2="49.0" y2="119.8"/>
    <line x1="49.0" y1="119.8" x2="50.3" y2="119.8"/>
    <line x1="50.3" y1="119.8" x2="50.3" y2="122.0"/>
    <line x1="50.3" y1="122.0" x2="49.0" y2="122.0"/>
    <line x1="49.0" y1="122.0" x2="49.0" y2="124.0"/>
    <line x1="49.0" y1="124.0" x2="77.0" y2="124.0"/>
    <line x1="77.0" y1="124.0" x2="77.0" y2="127.0"/>
    <line x1="77.0" y1="127.0" x2="87.0000000000001" y2="127.0"/>
    <line x1="87.0000000000001" y1="127.0" x2="87.0000000000001" y2="124.0"/>
    <line x1="87.0000000000001" y1="124.0" x2="97.0000000000001" y2="124.0"/>
    <line x1="97.0000000000001" y1="124.0" x2="97.0000000000001" y2="111.0"/>
    <line x1="97.0000000000001" y1="111.0" x2="100.0" y2="111.0"/>
    <line x1="100.0" y1="111.0" x2="100.0" y2="90.9999999999999"/>
    <line x1="100.0" y1="90.9999999999999" x2="97.0000000000001" y2="90.9999999999999"/>
    <line x1="97.0000000000001" y1="90.9999999999999" x2="97.0000000000001" y2="70.4999999999999"/>
    <line x1="97.0000000000001" y1="70.4999999999999" x2="95.0000000000001" y2="70.4999999999999"/>
    <line x1="95.0000000000001" y1="70.4999999999999" x2="95.0000000000001" y2="71.7999999999999"/>
    <line x1="95.0000000000001" y1="71.7999999999999" x2="92.7800000000001" y2="71.7999999999999"/>
    <line x1="92.7800000000001" y1="71.7999999999999" x2="92.7800000000001" y2="70.4999999999999"/>
    <line x1="92.7800000000001" y1="70.4999999999999" x2="89.7800000000001" y2="70.4999999999999"/>
    <line x1="89.7800000000001" y1="70.4999999999999" x2="89.7800000000001" y2="67.4999999999999"/>
    <line x1="89.7800000000001" y1="67.4999999999999" x2="92.7800000000001" y2="67.4999999999999"/>
    <line x1="92.7800000000001" y1="67.4999999999999" x2="92.7800000000001" y2="66.1999999999999"/>
    <line x1="92.7800000000001" y1="66.1999999999999" x2="94.9800000000001" y2="66.1999999999999"/>
    <line x1="94.9800000000001" y1="66.1999999999999" x2="94.9800000000001" y2="67.4999999999999"/>
    <line x1="94.9800000000001" y1="67.4999999999999" x2="97.0000000000001" y2="67.4999999999999"/>
    <line x1="97.0000000000001" y1="67.4999999999999" x2="97.0000000000001" y2="46.9999999999999"/>
    <line x1="97.0000000000001" y1="46.9999999999999" x2="100.0" y2="46.9999999999999"/>
    <line x1="100.0" y1="46.9999999999999" x2="100.0" y2="16.9999999999999"/>
    <line x1="100.0" y1="16.9999999999999" x2="97.0000000000001" y2="17.0"/>
    <line x1="97.0000000000001" y1="17.0" x2="97.0000000000001" y2="3.99999999999989"/>
    <line x1="97.0000000000001" y1="3.99999999999989" x2="87.0000000000001" y2="3.99999999999989"/>
    <line x1="87.0000000000001" y1="3.99999999999989" x2="87.0000000000001" y2="1.0"/>
    <line x1="87.0000000000001" y1="1.0" x2="77.0" y2="1.0"/>
    <line x1="77.0" y1="1.0" x2="77.0000000000001" y2="3.99999999999989"/>
    <line x1="77.0000000000001" y1="3.99999999999989" x2="49.0" y2="3.99999999999989"/>
    <line x1="49.0" y1="3.99999999999989" x2="49.0" y2="6.0"/>
    <line x1="49.0" y1="6.0" x2="50.3" y2="6.0"/>
    <line x1="50.3" y1="6.0" x2="50.3" y2="8.19999999999993"/>
    <line x1="50.3" y1="8.19999999999993" x2="49.0" y2="8.19999999999993"/>
    <line x1="49.0" y1="8.19999999999993" x2="49.0" y2="11.1999999999999"/>
    <line x1="49.0" y1="11.1999999999999" x2="46.0" y2="11.1999999999999"/>
    <line x1="46.0" y1="11.1999999999999" x2="46.0" y2="8.19999999999993"/>
    <line x1="46.0" y1="8.19999999999993" x2="44.7" y2="8.19999999999993"/>
    <line x1="44.7" y1="8.19999999999993" x2="44.7" y2="6.0"/>
    <line x1="44.7" y1="6.0" x2="46.0" y2="6.0"/>
    <line x1="46.0" y1="6.0" x2="46.0" y2="3.99999999999989"/>
    <line x1="46.0" y1="3.99999999999989" x2="3.99999999999994" y2="3.99999999999989"/>
    <line x1="3.99999999999994" y1="3.99999999999989" x2="3.99999999999994" y2="10.5"/>
    <line x1="3.99999999999994" y1="10.5" x2="1.0" y2="10.5"/>
    <line x1="1.0" y1="10.5" x2="1.00000000000003" y2="16.9999999999999"/>
    <line x1="1.00000000000003" y1="16.9999999999999" x2="34.0" y2="16.9999999999999"/>
    <line x1="34.0" y1="16.9999999999999" x2="37.0243228592073" y2="24.4775534634246"/>
    <line x1="37.0243228592073" y1="24.4775534634246" x2="39.5191586407447" y2="32.1480246991611"/>
    <line x1="39.5191586407447" y1="32.1480246991611" x2="41.4723295012993" y2="39.973972446532"/>
    <line x1="41.4723295012993" y1="39.973972446532" x2="42.8743015834209" y2="47.9171965297396"/>
    <line x1="42.8743015834209" y1="47.9171965297396" x2="43.7182315523816" y2="55.9389243213434"/>
    <line x1="43.7182315523816" y1="55.9389243213434" x2="44.0" y2="63.9999999999999"/>
    <line x1="44.0" y1="63.9999999999999" x2="43.7182315523816" y2="72.0610756786563"/>
    <line x1="43.7182315523816" y1="72.0610756786563" x2="42.874301583421" y2="80.0828034702601"/>
    <line x1="42.874301583421" y1="80.0828034702601" x2="41.4723295012993" y2="88.0260275534678"/>
    <line x1="41.4723295012993" y1="88.0260275534678" x2="39.5191586407447" y2="95.8519753008388"/>
    <line x1="39.5191586407447" y1="95.8519753008388" x2="37.0243228592073" y2="103.522446536575"/>
    <line x1="37.0243228592073" y1="103.522446536575" x2="34.0" y2="111.0"/>
    <line x1="34.0" y1="111.0" x2="1.0" y2="111.0"/>
    <line x1="1.0" y1="111.0" x2="1.0" y2="117.5"/>
    <line x1="1.0" y1="117.5" x2="3.99999999999994" y2="117.5"/>
    <line x1="3.99999999999994" y1="117.5" x2="3.99999999999994" y2="124.0"/>
    <line x1="64.0000000000001" y1="90.9999999999999" x2="67.0" y2="90.9999999999999"/>
    <line x1="67.0" y1="90.9999999999999" x2="67.0" y2="111.0"/>
    <line x1="67.0" y1="111.0" x2="64.0000000000001" y2="111.0"/>
    <line x1="64.0000000000001" y1="111.0" x2="64.0000000000001" y2="90.9999999999999"/>
    <line x1="64.0000000000001" y1="16.9999999999999" x2="67.0000000000001" y2="16.9999999999999"/>
    <line x1="67.0000000000001" y1="16.9999999999999" x2="67.0000000000001" y2="46.9999999999999"/>
    <line x1="67.0000000000001" y1="46.9999999999999" x2="64.0000000000001" y2="46.9999999999999"/>
    <line x1="64.0000000000001" y1="46.9999999999999" x2="64.0000000000001" y2="16.9999999999999"/>
  </g>
</svg>
