<?xml version="1.0" standalone="no"?>
<!DOCTYPE svg PUBLIC "-//W3C//DTD SVG 1.1//EN" "http://www.w3.org/Graphics/SVG/1.1/DTD/svg11.dtd">
<svg width="134.0mm" height="134.0mm"
 viewBox="0 0 134.0 134.0"
 xmlns="http://www.w3.org/2000/svg" version="1.1"
 xmlns:xlink="http://www.w3.org/1999/xlink">
<desc>Output from Flights of Ideas SVG Sketchup Plugin</desc>

  <g id="face0" fill="none" stroke="rgb(0,0,255)" stroke-width="1" stroke-miterlimit="4" stroke-dasharray="none" stroke-linejoin="round" stroke-linecap="round">
    <line x1="1.0" y1="1.0" x2="1.00000000000001" y2="133.0"/>
    <line x1="1.00000000000001" y1="133.0" x2="133.0" y2="133.0"/>
    <line x1="133.0" y1="133.0" x2="133.0" y2="1.0"/>
    <line x1="133.0" y1="1.0" x2="1.0" y2="1.0"/>
    <line x1="3.99999999999999" y1="94.0" x2="6.99999999999999" y2="94.0"/>
    <line x1="6.99999999999999" y1="94.0" x2="6.99999999999999" y2="114.0"/>
    <line x1="6.99999999999999" y1="114.0" x2="4.00000000000001" y2="114.0"/>
    <line x1="4.00000000000001" y1="114.0" x2="3.99999999999999" y2="94.0"/>
    <line x1="37.0" y1="4.00000000000006" x2="37.0" y2="7.0"/>
    <line x1="37.0" y1="7.0" x2="17.0" y2="7.0"/>
    <line x1="17.0" y1="7.0" x2="17.0" y2="4.0"/>
    <line x1="17.0" y1="4.0" x2="37.0" y2="4.00000000000006"/>
    <line x1="127.000000000008" y1="20.0000000000005" x2="130.000000000014" y2="20.0000000000005"/>
    <line x1="130.000000000014" y1="20.0000000000005" x2="130.000000000014" y2="39.9999999999995"/>
    <line x1="130.000000000014" y1="39.9999999999995" x2="127.000000000008" y2="39.9999999999995"/>
    <line x1="127.000000000008" y1="39.9999999999995" x2="127.000000000008" y2="20.0000000000005"/>
    <line x1="127.750000000004" y1="60.7009618943226" x2="128.11177143235" y2="60.5511112605657"/>
    <line x1="128.11177143235" y1="60.5511112605657" x2="128.500000000004" y2="60.4999999999996"/>
    <line x1="128.500000000004" y1="60.4999999999996" x2="128.888228567657" y2="60.5511112605661"/>
    <line x1="128.888228567657" y1="60.5511112605661" x2="129.250000000004" y2="60.7009618943233"/>
    <line x1="129.250000000004" y1="60.7009618943233" x2="129.560660171783" y2="60.9393398282201"/>
    <line x1="129.560660171783" y1="60.9393398282201" x2="129.79903810568" y2="61.2500000000001"/>
    <line x1="129.79903810568" y1="61.2500000000001" x2="129.948888739437" y2="61.6117714323463"/>
    <line x1="129.948888739437" y1="61.6117714323463" x2="130.000000000003" y2="62.0000000000001"/>
    <line x1="130.000000000003" y1="62.0000000000001" x2="129.948888739437" y2="62.3882285676539"/>
    <line x1="129.948888739437" y1="62.3882285676539" x2="129.799038105679" y2="62.7500000000001"/>
    <line x1="129.799038105679" y1="62.7500000000001" x2="129.560660171783" y2="63.0606601717798"/>
    <line x1="129.560660171783" y1="63.0606601717798" x2="129.250000000003" y2="63.2990381056766"/>
    <line x1="129.250000000003" y1="63.2990381056766" x2="128.888228567656" y2="63.4488887394333"/>
    <line x1="128.888228567656" y1="63.4488887394333" x2="128.500000000003" y2="63.4999999999995"/>
    <line x1="128.500000000003" y1="63.4999999999995" x2="128.111771432349" y2="63.4488887394331"/>
    <line x1="128.111771432349" y1="63.4488887394331" x2="127.750000000003" y2="63.2990381056759"/>
    <line x1="127.750000000003" y1="63.2990381056759" x2="127.439339828223" y2="63.060660171779"/>
    <line x1="127.439339828223" y1="63.060660171779" x2="127.200961894326" y2="62.749999999999"/>
    <line x1="127.200961894326" y1="62.749999999999" x2="127.051111260569" y2="62.3882285676528"/>
    <line x1="127.051111260569" y1="62.3882285676528" x2="127.000000000003" y2="61.999999999999"/>
    <line x1="127.000000000003" y1="61.999999999999" x2="127.05111126057" y2="61.6117714323452"/>
    <line x1="127.05111126057" y1="61.6117714323452" x2="127.200961894327" y2="61.2499999999991"/>
    <line x1="127.200961894327" y1="61.2499999999991" x2="127.439339828224" y2="60.9393398282193"/>
    <line x1="127.439339828224" y1="60.9393398282193" x2="127.750000000004" y2="60.7009618943226"/>
    <line x1="4.05111126056642" y1="72.3882285676538" x2="3.99999999999999" y2="72.0"/>
    <line x1="3.99999999999999" y1="72.0" x2="4.05111126056641" y2="71.6117714323462"/>
    <line x1="4.05111126056641" y1="71.6117714323462" x2="4.20096189432334" y2="71.2500000000001"/>
    <line x1="4.20096189432334" y1="71.2500000000001" x2="4.43933982822018" y2="70.9393398282202"/>
    <line x1="4.43933982822018" y1="70.9393398282202" x2="4.75" y2="70.7009618943234"/>
    <line x1="4.75" y1="70.7009618943234" x2="5.11177143234622" y2="70.5511112605664"/>
    <line x1="5.11177143234622" y1="70.5511112605664" x2="5.50000000000002" y2="70.5000000000001"/>
    <line x1="5.50000000000002" y1="70.5000000000001" x2="5.88822856765378" y2="70.5511112605664"/>
    <line x1="5.88822856765378" y1="70.5511112605664" x2="6.24999999999998" y2="70.7009618943234"/>
    <line x1="6.24999999999998" y1="70.7009618943234" x2="6.56066017177981" y2="70.9393398282202"/>
    <line x1="6.56066017177981" y1="70.9393398282202" x2="6.79903810567664" y2="71.25"/>
    <line x1="6.79903810567664" y1="71.25" x2="6.94888873943362" y2="71.6117714323462"/>
    <line x1="6.94888873943362" y1="71.6117714323462" x2="7.0" y2="72.0"/>
    <line x1="7.0" y1="72.0" x2="6.94888873943362" y2="72.3882285676538"/>
    <line x1="6.94888873943362" y1="72.3882285676538" x2="6.79903810567665" y2="72.7500000000001"/>
    <line x1="6.79903810567665" y1="72.7500000000001" x2="6.56066017177981" y2="73.0606601717799"/>
    <line x1="6.56066017177981" y1="73.0606601717799" x2="6.24999999999997" y2="73.2990381056767"/>
    <line x1="6.24999999999997" y1="73.2990381056767" x2="5.88822856765378" y2="73.4488887394336"/>
    <line x1="5.88822856765378" y1="73.4488887394336" x2="5.50000000000003" y2="73.5000000000001"/>
    <line x1="5.50000000000003" y1="73.5000000000001" x2="5.11177143234621" y2="73.4488887394336"/>
    <line x1="5.11177143234621" y1="73.4488887394336" x2="4.75" y2="73.2990381056767"/>
    <line x1="4.75" y1="73.2990381056767" x2="4.43933982822016" y2="73.0606601717799"/>
    <line x1="4.43933982822016" y1="73.0606601717799" x2="4.20096189432334" y2="72.7500000000001"/>
    <line x1="4.20096189432334" y1="72.7500000000001" x2="4.05111126056642" y2="72.3882285676538"/>
    <line x1="6.99999999999999" y1="50.0" x2="4.0" y2="50.0"/>
    <line x1="4.0" y1="50.0" x2="4.0" y2="20.0"/>
    <line x1="4.0" y1="20.0" x2="6.99999999999999" y2="20.0"/>
    <line x1="6.99999999999999" y1="20.0" x2="6.99999999999999" y2="50.0"/>
    <line x1="58.6117714323462" y1="4.05111126056636" x2="59.0" y2="4.0"/>
    <line x1="59.0" y1="4.0" x2="59.3882285676538" y2="4.05111126056647"/>
    <line x1="59.3882285676538" y1="4.05111126056647" x2="59.75" y2="4.20096189432326"/>
    <line x1="59.75" y1="4.20096189432326" x2="60.0606601717798" y2="4.43933982822011"/>
    <line x1="60.0606601717798" y1="4.43933982822011" x2="60.2990381056767" y2="4.74999999999994"/>
    <line x1="60.2990381056767" y1="4.74999999999994" x2="60.4488887394336" y2="5.11177143234613"/>
    <line x1="60.4488887394336" y1="5.11177143234613" x2="60.5" y2="5.50000000000011"/>
    <line x1="60.5" y1="5.50000000000011" x2="60.4488887394336" y2="5.8882285676537"/>
    <line x1="60.4488887394336" y1="5.8882285676537" x2="60.2990381056767" y2="6.25"/>
    <line x1="60.2990381056767" y1="6.25" x2="60.0606601717798" y2="6.56066017177977"/>
    <line x1="60.0606601717798" y1="6.56066017177977" x2="59.75" y2="6.79903810567663"/>
    <line x1="59.75" y1="6.79903810567663" x2="59.3882285676538" y2="6.94888873943364"/>
    <line x1="59.3882285676538" y1="6.94888873943364" x2="59.0" y2="7.00000000000011"/>
    <line x1="59.0" y1="7.00000000000011" x2="58.6117714323462" y2="6.94888873943353"/>
    <line x1="58.6117714323462" y1="6.94888873943353" x2="58.25" y2="6.79903810567663"/>
    <line x1="58.25" y1="6.79903810567663" x2="57.9393398282202" y2="6.56066017177983"/>
    <line x1="57.9393398282202" y1="6.56066017177983" x2="57.7009618943234" y2="6.25000000000011"/>
    <line x1="57.7009618943234" y1="6.25000000000011" x2="57.5511112605664" y2="5.88822856765381"/>
    <line x1="57.5511112605664" y1="5.88822856765381" x2="57.5" y2="5.50000000000006"/>
    <line x1="57.5" y1="5.50000000000006" x2="57.5511112605664" y2="5.1117714323463"/>
    <line x1="57.5511112605664" y1="5.1117714323463" x2="57.7009618943234" y2="4.75"/>
    <line x1="57.7009618943234" y1="4.75" x2="57.9393398282202" y2="4.43933982822023"/>
    <line x1="57.9393398282202" y1="4.43933982822023" x2="58.25" y2="4.20096189432326"/>
    <line x1="58.25" y1="4.20096189432326" x2="58.6117714323462" y2="4.05111126056636"/>
    <line x1="117.0" y1="130.0" x2="97.0" y2="130.0"/>
    <line x1="97.0" y1="130.0" x2="97.0" y2="127.0"/>
    <line x1="97.0" y1="127.0" x2="117.0" y2="127.0"/>
    <line x1="117.0" y1="127.0" x2="117.0" y2="130.0"/>
    <line x1="47.0" y1="127.0" x2="47.0" y2="130.0"/>
    <line x1="47.0" y1="130.0" x2="17.0" y2="130.0"/>
    <line x1="17.0" y1="130.0" x2="17.0" y2="127.0"/>
    <line x1="17.0" y1="127.0" x2="47.0" y2="127.0"/>
    <line x1="117.0" y1="7.00000000000006" x2="87.0" y2="7.00000000000011"/>
    <line x1="87.0" y1="7.00000000000011" x2="87.0" y2="4.00000000000017"/>
    <line x1="87.0" y1="4.00000000000017" x2="117.0" y2="3.99999999999926"/>
    <line x1="117.0" y1="3.99999999999926" x2="117.0" y2="7.00000000000006"/>
    <line x1="73.7009618943233" y1="129.25" x2="73.5511112605664" y2="128.888228567654"/>
    <line x1="73.5511112605664" y1="128.888228567654" x2="73.5" y2="128.5"/>
    <line x1="73.5" y1="128.5" x2="73.5511112605664" y2="128.111771432346"/>
    <line x1="73.5511112605664" y1="128.111771432346" x2="73.7009618943233" y2="127.75"/>
    <line x1="73.7009618943233" y1="127.75" x2="73.9393398282202" y2="127.43933982822"/>
    <line x1="73.9393398282202" y1="127.43933982822" x2="74.25" y2="127.200961894323"/>
    <line x1="74.25" y1="127.200961894323" x2="74.6117714323462" y2="127.051111260566"/>
    <line x1="74.6117714323462" y1="127.051111260566" x2="75.0" y2="127.0"/>
    <line x1="75.0" y1="127.0" x2="75.3882285676538" y2="127.051111260566"/>
    <line x1="75.3882285676538" y1="127.051111260566" x2="75.75" y2="127.200961894323"/>
    <line x1="75.75" y1="127.200961894323" x2="76.0606601717798" y2="127.43933982822"/>
    <line x1="76.0606601717798" y1="127.43933982822" x2="76.2990381056767" y2="127.75"/>
    <line x1="76.2990381056767" y1="127.75" x2="76.4488887394336" y2="128.111771432346"/>
    <line x1="76.4488887394336" y1="128.111771432346" x2="76.5" y2="128.5"/>
    <line x1="76.5" y1="128.5" x2="76.4488887394336" y2="128.888228567654"/>
    <line x1="76.4488887394336" y1="128.888228567654" x2="76.2990381056767" y2="129.25"/>
    <line x1="76.2990381056767" y1="129.25" x2="76.0606601717798" y2="129.56066017178"/>
    <line x1="76.0606601717798" y1="129.56066017178" x2="75.75" y2="129.799038105677"/>
    <line x1="75.75" y1="129.799038105677" x2="75.3882285676538" y2="129.948888739434"/>
    <line x1="75.3882285676538" y1="129.948888739434" x2="75.0" y2="130.0"/>
    <line x1="75.0" y1="130.0" x2="74.6117714323462" y2="129.948888739434"/>
    <line x1="74.6117714323462" y1="129.948888739434" x2="74.25" y2="129.799038105677"/>
    <line x1="74.25" y1="129.799038105677" x2="73.9393398282202" y2="129.56066017178"/>
    <line x1="73.9393398282202" y1="129.56066017178" x2="73.7009618943233" y2="129.25"/>
    <line x1="129.999999999995" y1="114.0" x2="126.999999999986" y2="114.0"/>
    <line x1="126.999999999986" y1="114.0" x2="126.999999999986" y2="84.0000000000005"/>
    <line x1="126.999999999986" y1="84.0000000000005" x2="129.999999999995" y2="84.0000000000005"/>
    <line x1="129.999999999995" y1="84.0000000000005" x2="129.999999999995" y2="114.0"/>
  </g>
</svg>
