<?xml version="1.0" standalone="no"?>
<!DOCTYPE svg PUBLIC "-//W3C//DTD SVG 1.1//EN" "http://www.w3.org/Graphics/SVG/1.1/DTD/svg11.dtd">
<svg width="128.0mm" height="128.000000000008mm"
 viewBox="0 0 128.0 128.000000000008"
 xmlns="http://www.w3.org/2000/svg" version="1.1"
 xmlns:xlink="http://www.w3.org/1999/xlink">
<desc>Output from Flights of Ideas SVG Sketchup Plugin</desc>

  <g id="face0" fill="none" stroke="rgb(0,0,255)" stroke-width="1" stroke-miterlimit="4" stroke-dasharray="none" stroke-linejoin="round" stroke-linecap="round">
    <line x1="127.0" y1="4.00000000000779" x2="120.499999999999" y2="4.00000000000779"/>
    <line x1="120.499999999999" y1="4.00000000000779" x2="120.499999999999" y2="21.6999999999989"/>
    <line x1="120.499999999999" y1="21.6999999999989" x2="111.499999999999" y2="21.6999999999989"/>
    <line x1="111.499999999999" y1="21.6999999999989" x2="111.499999999999" y2="4.00000000000779"/>
    <line x1="111.499999999999" y1="4.00000000000779" x2="106.499999999999" y2="4.00000000000779"/>
    <line x1="106.499999999999" y1="4.00000000000779" x2="106.499999999998" y2="1.0"/>
    <line x1="106.499999999998" y1="1.0" x2="96.4999999999979" y2="1.00000000000229"/>
    <line x1="96.4999999999979" y1="1.00000000000229" x2="96.4999999999989" y2="4.00000000000779"/>
    <line x1="96.4999999999989" y1="4.00000000000779" x2="91.8999999999987" y2="4.00000000000779"/>
    <line x1="91.8999999999987" y1="4.00000000000779" x2="91.8999999999987" y2="21.1999999999988"/>
    <line x1="91.8999999999987" y1="21.1999999999988" x2="79.8999999999987" y2="21.1999999999988"/>
    <line x1="79.8999999999987" y1="21.1999999999988" x2="79.8999999999987" y2="4.0000000000078"/>
    <line x1="79.8999999999987" y1="4.0000000000078" x2="29.0" y2="4.0000000000078"/>
    <line x1="29.0" y1="4.0000000000078" x2="29.0" y2="6.00000000000783"/>
    <line x1="29.0" y1="6.00000000000783" x2="30.3" y2="6.0000000000073"/>
    <line x1="30.3" y1="6.0000000000073" x2="30.3" y2="8.20000000000771"/>
    <line x1="30.3" y1="8.20000000000771" x2="29.0" y2="8.20000000000773"/>
    <line x1="29.0" y1="8.20000000000773" x2="29.0" y2="11.2000000000078"/>
    <line x1="29.0" y1="11.2000000000078" x2="26.0" y2="11.2000000000077"/>
    <line x1="26.0" y1="11.2000000000077" x2="26.0" y2="8.20000000000745"/>
    <line x1="26.0" y1="8.20000000000745" x2="24.7" y2="8.20000000000805"/>
    <line x1="24.7" y1="8.20000000000805" x2="24.7" y2="6.00000000000763"/>
    <line x1="24.7" y1="6.00000000000763" x2="26.0" y2="6.00000000000796"/>
    <line x1="26.0" y1="6.00000000000796" x2="26.0" y2="4.0000000000078"/>
    <line x1="26.0" y1="4.0000000000078" x2="21.0" y2="4.0000000000078"/>
    <line x1="21.0" y1="4.0000000000078" x2="21.0" y2="1.00000000000797"/>
    <line x1="21.0" y1="1.00000000000797" x2="11.0" y2="1.00000000000854"/>
    <line x1="11.0" y1="1.00000000000854" x2="11.0" y2="4.0000000000078"/>
    <line x1="11.0" y1="4.0000000000078" x2="1.0" y2="4.0000000000078"/>
    <line x1="1.0" y1="4.0000000000078" x2="1.0" y2="124.000000000008"/>
    <line x1="1.0" y1="124.000000000008" x2="11.0" y2="124.000000000008"/>
    <line x1="11.0" y1="124.000000000008" x2="11.0" y2="127.000000000008"/>
    <line x1="11.0" y1="127.000000000008" x2="21.0" y2="127.000000000008"/>
    <line x1="21.0" y1="127.000000000008" x2="21.0" y2="124.000000000008"/>
    <line x1="21.0" y1="124.000000000008" x2="26.0" y2="124.000000000008"/>
    <line x1="26.0" y1="124.000000000008" x2="26.0" y2="122.000000000008"/>
    <line x1="26.0" y1="122.000000000008" x2="24.7" y2="122.000000000008"/>
    <line x1="24.7" y1="122.000000000008" x2="24.7" y2="119.800000000008"/>
    <line x1="24.7" y1="119.800000000008" x2="26.0" y2="119.800000000008"/>
    <line x1="26.0" y1="119.800000000008" x2="26.0" y2="116.800000000008"/>
    <line x1="26.0" y1="116.800000000008" x2="29.0" y2="116.800000000008"/>
    <line x1="29.0" y1="116.800000000008" x2="29.0" y2="119.800000000008"/>
    <line x1="29.0" y1="119.800000000008" x2="30.3" y2="119.800000000008"/>
    <line x1="30.3" y1="119.800000000008" x2="30.3000000000001" y2="122.000000000008"/>
    <line x1="30.3000000000001" y1="122.000000000008" x2="29.0" y2="122.000000000008"/>
    <line x1="29.0" y1="122.000000000008" x2="29.0" y2="124.000000000008"/>
    <line x1="29.0" y1="124.000000000008" x2="89.0" y2="124.000000000008"/>
    <line x1="89.0" y1="124.000000000008" x2="89.0" y2="127.000000000008"/>
    <line x1="89.0" y1="127.000000000008" x2="109.0" y2="127.000000000008"/>
    <line x1="109.0" y1="127.000000000008" x2="109.0" y2="124.000000000008"/>
    <line x1="109.0" y1="124.000000000008" x2="114.0" y2="124.000000000008"/>
    <line x1="114.0" y1="124.000000000008" x2="114.0" y2="122.000000000008"/>
    <line x1="114.0" y1="122.000000000008" x2="112.7" y2="122.000000000008"/>
    <line x1="112.7" y1="122.000000000008" x2="112.7" y2="119.800000000008"/>
    <line x1="112.7" y1="119.800000000008" x2="114.0" y2="119.800000000008"/>
    <line x1="114.0" y1="119.800000000008" x2="114.0" y2="116.800000000008"/>
    <line x1="114.0" y1="116.800000000008" x2="117.0" y2="116.800000000008"/>
    <line x1="117.0" y1="116.800000000008" x2="117.0" y2="119.800000000008"/>
    <line x1="117.0" y1="119.800000000008" x2="118.3" y2="119.800000000008"/>
    <line x1="118.3" y1="119.800000000008" x2="118.3" y2="122.000000000008"/>
    <line x1="118.3" y1="122.000000000008" x2="117.0" y2="122.000000000008"/>
    <line x1="117.0" y1="122.000000000008" x2="117.0" y2="124.000000000008"/>
    <line x1="117.0" y1="124.000000000008" x2="127.0" y2="124.000000000008"/>
    <line x1="127.0" y1="124.000000000008" x2="127.0" y2="4.00000000000779"/>
    <line x1="108.448888739434" y1="63.611771432354" x2="108.5" y2="64.0000000000078"/>
    <line x1="108.5" y1="64.0000000000078" x2="108.448888739434" y2="64.3882285676616"/>
    <line x1="108.448888739434" y1="64.3882285676616" x2="108.299038105677" y2="64.7500000000078"/>
    <line x1="108.299038105677" y1="64.7500000000078" x2="108.06066017178" y2="65.0606601717876"/>
    <line x1="108.06066017178" y1="65.0606601717876" x2="107.75" y2="65.2990381056844"/>
    <line x1="107.75" y1="65.2990381056844" x2="107.388228567654" y2="65.4488887394414"/>
    <line x1="107.388228567654" y1="65.4488887394414" x2="107.0" y2="65.5000000000078"/>
    <line x1="107.0" y1="65.5000000000078" x2="106.611771432346" y2="65.4488887394414"/>
    <line x1="106.611771432346" y1="65.4488887394414" x2="106.25" y2="65.2990381056844"/>
    <line x1="106.25" y1="65.2990381056844" x2="105.93933982822" y2="65.0606601717876"/>
    <line x1="105.93933982822" y1="65.0606601717876" x2="105.700961894323" y2="64.7500000000078"/>
    <line x1="105.700961894323" y1="64.7500000000078" x2="105.551111260566" y2="64.3882285676616"/>
    <line x1="105.551111260566" y1="64.3882285676616" x2="105.5" y2="64.0000000000078"/>
    <line x1="105.5" y1="64.0000000000078" x2="105.551111260566" y2="63.611771432354"/>
    <line x1="105.551111260566" y1="63.611771432354" x2="105.700961894323" y2="63.2500000000078"/>
    <line x1="105.700961894323" y1="63.2500000000078" x2="105.93933982822" y2="62.939339828228"/>
    <line x1="105.93933982822" y1="62.939339828228" x2="106.25" y2="62.7009618943311"/>
    <line x1="106.25" y1="62.7009618943311" x2="106.611771432346" y2="62.5511112605742"/>
    <line x1="106.611771432346" y1="62.5511112605742" x2="107.0" y2="62.5000000000078"/>
    <line x1="107.0" y1="62.5000000000078" x2="107.388228567654" y2="62.5511112605742"/>
    <line x1="107.388228567654" y1="62.5511112605742" x2="107.75" y2="62.7009618943311"/>
    <line x1="107.75" y1="62.7009618943311" x2="108.06066017178" y2="62.939339828228"/>
    <line x1="108.06066017178" y1="62.939339828228" x2="108.299038105677" y2="63.2500000000078"/>
    <line x1="108.299038105677" y1="63.2500000000078" x2="108.448888739434" y2="63.611771432354"/>
    <line x1="75.5" y1="64.0000000000078" x2="75.4488887394336" y2="64.3882285676616"/>
    <line x1="75.4488887394336" y1="64.3882285676616" x2="75.2990381056766" y2="64.7500000000078"/>
    <line x1="75.2990381056766" y1="64.7500000000078" x2="75.0606601717799" y2="65.0606601717876"/>
    <line x1="75.0606601717799" y1="65.0606601717876" x2="74.75" y2="65.2990381056844"/>
    <line x1="74.75" y1="65.2990381056844" x2="74.3882285676538" y2="65.4488887394414"/>
    <line x1="74.3882285676538" y1="65.4488887394414" x2="74.0" y2="65.5000000000078"/>
    <line x1="74.0" y1="65.5000000000078" x2="73.6117714323462" y2="65.4488887394414"/>
    <line x1="73.6117714323462" y1="65.4488887394414" x2="73.25" y2="65.2990381056844"/>
    <line x1="73.25" y1="65.2990381056844" x2="72.9393398282202" y2="65.0606601717876"/>
    <line x1="72.9393398282202" y1="65.0606601717876" x2="72.7009618943233" y2="64.7500000000078"/>
    <line x1="72.7009618943233" y1="64.7500000000078" x2="72.5511112605664" y2="64.3882285676616"/>
    <line x1="72.5511112605664" y1="64.3882285676616" x2="72.5" y2="64.0000000000078"/>
    <line x1="72.5" y1="64.0000000000078" x2="72.5511112605664" y2="63.611771432354"/>
    <line x1="72.5511112605664" y1="63.611771432354" x2="72.7009618943233" y2="63.2500000000078"/>
    <line x1="72.7009618943233" y1="63.2500000000078" x2="72.9393398282202" y2="62.939339828228"/>
    <line x1="72.9393398282202" y1="62.939339828228" x2="73.25" y2="62.7009618943311"/>
    <line x1="73.25" y1="62.7009618943311" x2="73.6117714323462" y2="62.5511112605742"/>
    <line x1="73.6117714323462" y1="62.5511112605742" x2="74.0" y2="62.5000000000078"/>
    <line x1="74.0" y1="62.5000000000078" x2="74.3882285676538" y2="62.5511112605742"/>
    <line x1="74.3882285676538" y1="62.5511112605742" x2="74.75" y2="62.7009618943311"/>
    <line x1="74.75" y1="62.7009618943311" x2="75.0606601717799" y2="62.939339828228"/>
    <line x1="75.0606601717799" y1="62.939339828228" x2="75.2990381056766" y2="63.2500000000078"/>
    <line x1="75.2990381056766" y1="63.2500000000078" x2="75.4488887394336" y2="63.611771432354"/>
    <line x1="75.4488887394336" y1="63.611771432354" x2="75.5" y2="64.0000000000078"/>
    <line x1="17.0" y1="25.0735931288149" x2="17.0511112605664" y2="24.6853645611613"/>
    <line x1="17.0511112605664" y1="24.6853645611613" x2="17.2009618943233" y2="24.323593128815"/>
    <line x1="17.2009618943233" y1="24.323593128815" x2="17.4393398282201" y2="24.0129329570351"/>
    <line x1="17.4393398282201" y1="24.0129329570351" x2="17.75" y2="23.7745550231383"/>
    <line x1="17.75" y1="23.7745550231383" x2="18.1117714323462" y2="23.6247043893814"/>
    <line x1="18.1117714323462" y1="23.6247043893814" x2="18.5" y2="23.573593128815"/>
    <line x1="18.5" y1="23.573593128815" x2="18.8882285676538" y2="23.6247043893813"/>
    <line x1="18.8882285676538" y1="23.6247043893813" x2="19.25" y2="23.7745550231383"/>
    <line x1="19.25" y1="23.7745550231383" x2="19.5606601717798" y2="24.0129329570353"/>
    <line x1="19.5606601717798" y1="24.0129329570353" x2="19.7990381056766" y2="24.3235931288149"/>
    <line x1="19.7990381056766" y1="24.3235931288149" x2="19.9488887394336" y2="24.6853645611612"/>
    <line x1="19.9488887394336" y1="24.6853645611612" x2="20.0" y2="25.0735931288149"/>
    <line x1="20.0" y1="25.0735931288149" x2="19.9488887394336" y2="25.4618216964687"/>
    <line x1="19.9488887394336" y1="25.4618216964687" x2="19.7990381056766" y2="25.8235931288149"/>
    <line x1="19.7990381056766" y1="25.8235931288149" x2="19.5606601717798" y2="26.1342533005948"/>
    <line x1="19.5606601717798" y1="26.1342533005948" x2="19.25" y2="26.3726312344916"/>
    <line x1="19.25" y1="26.3726312344916" x2="18.8882285676538" y2="26.5224818682486"/>
    <line x1="18.8882285676538" y1="26.5224818682486" x2="18.5" y2="26.5735931288149"/>
    <line x1="18.5" y1="26.5735931288149" x2="18.1117714323462" y2="26.5224818682486"/>
    <line x1="18.1117714323462" y1="26.5224818682486" x2="17.75" y2="26.3726312344917"/>
    <line x1="17.75" y1="26.3726312344917" x2="17.4393398282201" y2="26.1342533005947"/>
    <line x1="17.4393398282201" y1="26.1342533005947" x2="17.2009618943233" y2="25.823593128815"/>
    <line x1="17.2009618943233" y1="25.823593128815" x2="17.0511112605664" y2="25.4618216964687"/>
    <line x1="17.0511112605664" y1="25.4618216964687" x2="17.0" y2="25.0735931288149"/>
    <line x1="3.99999999999997" y1="26.5735931288149" x2="3.99999999999997" y2="23.5735931288149"/>
    <line x1="3.99999999999997" y1="23.5735931288149" x2="14.0" y2="23.573593128815"/>
    <line x1="14.0" y1="23.573593128815" x2="14.0" y2="26.5735931288149"/>
    <line x1="14.0" y1="26.5735931288149" x2="3.99999999999997" y2="26.5735931288149"/>
    <line x1="17.0" y1="102.926406871201" x2="17.0511112605664" y2="102.538178303547"/>
    <line x1="17.0511112605664" y1="102.538178303547" x2="17.2009618943233" y2="102.176406871201"/>
    <line x1="17.2009618943233" y1="102.176406871201" x2="17.4393398282201" y2="101.865746699421"/>
    <line x1="17.4393398282201" y1="101.865746699421" x2="17.75" y2="101.627368765524"/>
    <line x1="17.75" y1="101.627368765524" x2="18.1117714323462" y2="101.477518131767"/>
    <line x1="18.1117714323462" y1="101.477518131767" x2="18.4999999999999" y2="101.426406871201"/>
    <line x1="18.4999999999999" y1="101.426406871201" x2="18.8882285676537" y2="101.477518131767"/>
    <line x1="18.8882285676537" y1="101.477518131767" x2="19.25" y2="101.627368765524"/>
    <line x1="19.25" y1="101.627368765524" x2="19.5606601717798" y2="101.865746699421"/>
    <line x1="19.5606601717798" y1="101.865746699421" x2="19.7990381056766" y2="102.176406871201"/>
    <line x1="19.7990381056766" y1="102.176406871201" x2="19.9488887394336" y2="102.538178303547"/>
    <line x1="19.9488887394336" y1="102.538178303547" x2="19.9999999999999" y2="102.926406871201"/>
    <line x1="19.9999999999999" y1="102.926406871201" x2="19.9488887394336" y2="103.314635438854"/>
    <line x1="19.9488887394336" y1="103.314635438854" x2="19.7990381056766" y2="103.676406871201"/>
    <line x1="19.7990381056766" y1="103.676406871201" x2="19.5606601717798" y2="103.98706704298"/>
    <line x1="19.5606601717798" y1="103.98706704298" x2="19.25" y2="104.225444976877"/>
    <line x1="19.25" y1="104.225444976877" x2="18.8882285676538" y2="104.375295610634"/>
    <line x1="18.8882285676538" y1="104.375295610634" x2="18.5" y2="104.426406871201"/>
    <line x1="18.5" y1="104.426406871201" x2="18.1117714323462" y2="104.375295610634"/>
    <line x1="18.1117714323462" y1="104.375295610634" x2="17.75" y2="104.225444976877"/>
    <line x1="17.75" y1="104.225444976877" x2="17.4393398282201" y2="103.98706704298"/>
    <line x1="17.4393398282201" y1="103.98706704298" x2="17.2009618943233" y2="103.676406871201"/>
    <line x1="17.2009618943233" y1="103.676406871201" x2="17.0511112605664" y2="103.314635438854"/>
    <line x1="17.0511112605664" y1="103.314635438854" x2="17.0" y2="102.926406871201"/>
    <line x1="3.99999999999997" y1="101.426406871201" x2="14.0" y2="101.426406871201"/>
    <line x1="14.0" y1="101.426406871201" x2="14.0" y2="104.426406871201"/>
    <line x1="14.0" y1="104.426406871201" x2="3.99999999999997" y2="104.426406871201"/>
    <line x1="3.99999999999997" y1="104.426406871201" x2="3.99999999999997" y2="101.426406871201"/>
    <line x1="67.1117714323462" y1="62.5511112605742" x2="67.5" y2="62.5000000000078"/>
    <line x1="67.5" y1="62.5000000000078" x2="67.8882285676538" y2="62.5511112605742"/>
    <line x1="67.8882285676538" y1="62.5511112605742" x2="68.25" y2="62.7009618943311"/>
    <line x1="68.25" y1="62.7009618943311" x2="68.5606601717798" y2="62.939339828228"/>
    <line x1="68.5606601717798" y1="62.939339828228" x2="68.7990381056766" y2="63.2500000000078"/>
    <line x1="68.7990381056766" y1="63.2500000000078" x2="68.9488887394336" y2="63.611771432354"/>
    <line x1="68.9488887394336" y1="63.611771432354" x2="69.0" y2="64.0000000000078"/>
    <line x1="69.0" y1="64.0000000000078" x2="68.9488887394336" y2="64.3882285676615"/>
    <line x1="68.9488887394336" y1="64.3882285676615" x2="68.7990381056767" y2="64.7500000000078"/>
    <line x1="68.7990381056767" y1="64.7500000000078" x2="68.5606601717798" y2="65.0606601717876"/>
    <line x1="68.5606601717798" y1="65.0606601717876" x2="68.25" y2="65.2990381056844"/>
    <line x1="68.25" y1="65.2990381056844" x2="67.8882285676538" y2="65.4488887394414"/>
    <line x1="67.8882285676538" y1="65.4488887394414" x2="67.5" y2="65.5000000000078"/>
    <line x1="67.5" y1="65.5000000000078" x2="67.1117714323462" y2="65.4488887394414"/>
    <line x1="67.1117714323462" y1="65.4488887394414" x2="66.75" y2="65.2990381056844"/>
    <line x1="66.75" y1="65.2990381056844" x2="66.4393398282201" y2="65.0606601717876"/>
    <line x1="66.4393398282201" y1="65.0606601717876" x2="66.2009618943233" y2="64.7500000000078"/>
    <line x1="66.2009618943233" y1="64.7500000000078" x2="66.0511112605664" y2="64.3882285676616"/>
    <line x1="66.0511112605664" y1="64.3882285676616" x2="66.0" y2="64.0000000000078"/>
    <line x1="66.0" y1="64.0000000000078" x2="66.0511112605664" y2="63.611771432354"/>
    <line x1="66.0511112605664" y1="63.611771432354" x2="66.2009618943233" y2="63.2500000000078"/>
    <line x1="66.2009618943233" y1="63.2500000000078" x2="66.4393398282201" y2="62.939339828228"/>
    <line x1="66.4393398282201" y1="62.939339828228" x2="66.75" y2="62.7009618943311"/>
    <line x1="66.75" y1="62.7009618943311" x2="67.1117714323462" y2="62.5511112605742"/>
    <line x1="66.0" y1="9.00000000000779" x2="69.0" y2="9.00000000000773"/>
    <line x1="69.0" y1="9.00000000000773" x2="69.0" y2="29.0000000000078"/>
    <line x1="69.0" y1="29.0000000000078" x2="66.0" y2="29.0000000000078"/>
    <line x1="66.0" y1="29.0000000000078" x2="66.0" y2="9.00000000000779"/>
    <line x1="94.335183089105" y1="109.926129138072" x2="94.335183089105" y2="100.926129138072"/>
    <line x1="94.335183089105" y1="100.926129138072" x2="105.035183089105" y2="100.926129138072"/>
    <line x1="105.035183089105" y1="100.926129138072" x2="105.035183089105" y2="109.926129138072"/>
    <line x1="105.035183089105" y1="109.926129138072" x2="94.335183089105" y2="109.926129138072"/>
  </g>
</svg>
