<?xml version="1.0" standalone="no"?>
<!DOCTYPE svg PUBLIC "-//W3C//DTD SVG 1.1//EN" "http://www.w3.org/Graphics/SVG/1.1/DTD/svg11.dtd">
<svg width="134.0mm" height="134.0mm"
 viewBox="0 0 134.0 134.0"
 xmlns="http://www.w3.org/2000/svg" version="1.1"
 xmlns:xlink="http://www.w3.org/1999/xlink">
<desc>Output from Flights of Ideas SVG Sketchup Plugin</desc>

  <g id="face0" fill="none" stroke="rgb(0,0,255)" stroke-width="1" stroke-miterlimit="4" stroke-dasharray="none" stroke-linejoin="round" stroke-linecap="round">
    <line x1="133.0" y1="1.0" x2="1.0" y2="1.00000000000003"/>
    <line x1="1.0" y1="1.00000000000003" x2="1.0" y2="133.0"/>
    <line x1="1.0" y1="133.0" x2="133.0" y2="133.0"/>
    <line x1="133.0" y1="133.0" x2="133.0" y2="1.0"/>
    <line x1="81.2350474806387" y1="120.125920445899" x2="67.0" y2="122.0"/>
    <line x1="67.0" y1="122.0" x2="52.7649525193614" y2="120.125920445899"/>
    <line x1="52.7649525193614" y1="120.125920445899" x2="39.5" y2="114.631397208144"/>
    <line x1="39.5" y1="114.631397208144" x2="28.1091270347399" y2="105.89087296526"/>
    <line x1="28.1091270347399" y1="105.89087296526" x2="19.3686027918559" y2="94.5"/>
    <line x1="19.3686027918559" y1="94.5" x2="13.8740795541012" y2="81.2350474806386"/>
    <line x1="13.8740795541012" y1="81.2350474806386" x2="12.0000000000001" y2="67.0"/>
    <line x1="12.0000000000001" y1="67.0" x2="13.8740795541013" y2="52.7649525193613"/>
    <line x1="13.8740795541013" y1="52.7649525193613" x2="19.3686027918559" y2="39.4999999999999"/>
    <line x1="19.3686027918559" y1="39.4999999999999" x2="28.1091270347399" y2="28.1091270347398"/>
    <line x1="28.1091270347399" y1="28.1091270347398" x2="39.5" y2="19.3686027918559"/>
    <line x1="39.5" y1="19.3686027918559" x2="52.7649525193613" y2="13.8740795541012"/>
    <line x1="52.7649525193613" y1="13.8740795541012" x2="67.0" y2="12.0"/>
    <line x1="67.0" y1="12.0" x2="81.2350474806387" y2="13.8740795541012"/>
    <line x1="81.2350474806387" y1="13.8740795541012" x2="94.5000000000001" y2="19.3686027918559"/>
    <line x1="94.5000000000001" y1="19.3686027918559" x2="105.89087296526" y2="28.1091270347399"/>
    <line x1="105.89087296526" y1="28.1091270347399" x2="114.631397208144" y2="39.5"/>
    <line x1="114.631397208144" y1="39.5" x2="120.125920445899" y2="52.7649525193614"/>
    <line x1="120.125920445899" y1="52.7649525193614" x2="122.0" y2="67.0"/>
    <line x1="122.0" y1="67.0" x2="120.125920445899" y2="81.2350474806387"/>
    <line x1="120.125920445899" y1="81.2350474806387" x2="114.631397208144" y2="94.5"/>
    <line x1="114.631397208144" y1="94.5" x2="105.89087296526" y2="105.89087296526"/>
    <line x1="105.89087296526" y1="105.89087296526" x2="94.5" y2="114.631397208144"/>
    <line x1="94.5" y1="114.631397208144" x2="81.2350474806387" y2="120.125920445899"/>
    <line x1="110.0" y1="127.0" x2="110.0" y2="130.0"/>
    <line x1="110.0" y1="130.0" x2="90.0000000000001" y2="130.0"/>
    <line x1="90.0000000000001" y1="130.0" x2="90.0000000000001" y2="127.0"/>
    <line x1="90.0000000000001" y1="127.0" x2="110.0" y2="127.0"/>
    <line x1="44.0" y1="127.0" x2="44.0" y2="130.0"/>
    <line x1="44.0" y1="130.0" x2="24.0" y2="130.0"/>
    <line x1="24.0" y1="130.0" x2="24.0" y2="127.0"/>
    <line x1="24.0" y1="127.0" x2="44.0" y2="127.0"/>
    <line x1="110.0" y1="3.99999999999993" x2="110.0" y2="6.99999999999996"/>
    <line x1="110.0" y1="6.99999999999996" x2="90.0" y2="6.99999999999997"/>
    <line x1="90.0" y1="6.99999999999997" x2="90.0" y2="3.99999999999996"/>
    <line x1="90.0" y1="3.99999999999996" x2="110.0" y2="3.99999999999993"/>
    <line x1="44.0" y1="6.99999999999989" x2="24.0" y2="7.00000000000016"/>
    <line x1="24.0" y1="7.00000000000016" x2="24.0" y2="3.99999999999955"/>
    <line x1="24.0" y1="3.99999999999955" x2="44.0" y2="3.99999999999962"/>
    <line x1="44.0" y1="3.99999999999962" x2="44.0" y2="6.99999999999989"/>
    <line x1="120.051111260566" y1="128.888228567654" x2="120.0" y2="128.5"/>
    <line x1="120.0" y1="128.5" x2="120.051111260566" y2="128.111771432346"/>
    <line x1="120.051111260566" y1="128.111771432346" x2="120.200961894323" y2="127.75"/>
    <line x1="120.200961894323" y1="127.75" x2="120.43933982822" y2="127.43933982822"/>
    <line x1="120.43933982822" y1="127.43933982822" x2="120.75" y2="127.200961894323"/>
    <line x1="120.75" y1="127.200961894323" x2="121.111771432346" y2="127.051111260566"/>
    <line x1="121.111771432346" y1="127.051111260566" x2="121.5" y2="127.0"/>
    <line x1="121.5" y1="127.0" x2="121.888228567654" y2="127.051111260566"/>
    <line x1="121.888228567654" y1="127.051111260566" x2="122.25" y2="127.200961894323"/>
    <line x1="122.25" y1="127.200961894323" x2="122.56066017178" y2="127.43933982822"/>
    <line x1="122.56066017178" y1="127.43933982822" x2="122.799038105677" y2="127.75"/>
    <line x1="122.799038105677" y1="127.75" x2="122.948888739434" y2="128.111771432346"/>
    <line x1="122.948888739434" y1="128.111771432346" x2="123.0" y2="128.5"/>
    <line x1="123.0" y1="128.5" x2="122.948888739434" y2="128.888228567654"/>
    <line x1="122.948888739434" y1="128.888228567654" x2="122.799038105677" y2="129.25"/>
    <line x1="122.799038105677" y1="129.25" x2="122.56066017178" y2="129.56066017178"/>
    <line x1="122.56066017178" y1="129.56066017178" x2="122.25" y2="129.799038105677"/>
    <line x1="122.25" y1="129.799038105677" x2="121.888228567654" y2="129.948888739434"/>
    <line x1="121.888228567654" y1="129.948888739434" x2="121.5" y2="130.0"/>
    <line x1="121.5" y1="130.0" x2="121.111771432346" y2="129.948888739434"/>
    <line x1="121.111771432346" y1="129.948888739434" x2="120.75" y2="129.799038105677"/>
    <line x1="120.75" y1="129.799038105677" x2="120.43933982822" y2="129.56066017178"/>
    <line x1="120.43933982822" y1="129.56066017178" x2="120.200961894323" y2="129.25"/>
    <line x1="120.200961894323" y1="129.25" x2="120.051111260566" y2="128.888228567654"/>
    <line x1="13.9488887394336" y1="128.111771432346" x2="14.0" y2="128.5"/>
    <line x1="14.0" y1="128.5" x2="13.9488887394336" y2="128.888228567654"/>
    <line x1="13.9488887394336" y1="128.888228567654" x2="13.7990381056767" y2="129.25"/>
    <line x1="13.7990381056767" y1="129.25" x2="13.5606601717798" y2="129.56066017178"/>
    <line x1="13.5606601717798" y1="129.56066017178" x2="13.25" y2="129.799038105677"/>
    <line x1="13.25" y1="129.799038105677" x2="12.8882285676538" y2="129.948888739434"/>
    <line x1="12.8882285676538" y1="129.948888739434" x2="12.5" y2="130.0"/>
    <line x1="12.5" y1="130.0" x2="12.1117714323462" y2="129.948888739434"/>
    <line x1="12.1117714323462" y1="129.948888739434" x2="11.75" y2="129.799038105677"/>
    <line x1="11.75" y1="129.799038105677" x2="11.4393398282202" y2="129.56066017178"/>
    <line x1="11.4393398282202" y1="129.56066017178" x2="11.2009618943233" y2="129.25"/>
    <line x1="11.2009618943233" y1="129.25" x2="11.0511112605664" y2="128.888228567654"/>
    <line x1="11.0511112605664" y1="128.888228567654" x2="11.0" y2="128.5"/>
    <line x1="11.0" y1="128.5" x2="11.0511112605664" y2="128.111771432346"/>
    <line x1="11.0511112605664" y1="128.111771432346" x2="11.2009618943233" y2="127.75"/>
    <line x1="11.2009618943233" y1="127.75" x2="11.4393398282202" y2="127.43933982822"/>
    <line x1="11.4393398282202" y1="127.43933982822" x2="11.75" y2="127.200961894323"/>
    <line x1="11.75" y1="127.200961894323" x2="12.1117714323462" y2="127.051111260566"/>
    <line x1="12.1117714323462" y1="127.051111260566" x2="12.5" y2="127.0"/>
    <line x1="12.5" y1="127.0" x2="12.8882285676538" y2="127.051111260566"/>
    <line x1="12.8882285676538" y1="127.051111260566" x2="13.25" y2="127.200961894323"/>
    <line x1="13.25" y1="127.200961894323" x2="13.5606601717798" y2="127.43933982822"/>
    <line x1="13.5606601717798" y1="127.43933982822" x2="13.7990381056767" y2="127.75"/>
    <line x1="13.7990381056767" y1="127.75" x2="13.9488887394336" y2="128.111771432346"/>
    <line x1="13.9488887394336" y1="5.11177143234622" x2="14.0" y2="5.4999999999997"/>
    <line x1="14.0" y1="5.4999999999997" x2="13.9488887394336" y2="5.88822856765371"/>
    <line x1="13.9488887394336" y1="5.88822856765371" x2="13.7990381056766" y2="6.25000000000014"/>
    <line x1="13.7990381056766" y1="6.25000000000014" x2="13.5606601717798" y2="6.56066017177993"/>
    <line x1="13.5606601717798" y1="6.56066017177993" x2="13.25" y2="6.7990381056764"/>
    <line x1="13.25" y1="6.7990381056764" x2="12.8882285676538" y2="6.9488887394336"/>
    <line x1="12.8882285676538" y1="6.9488887394336" x2="12.5" y2="6.99999999999989"/>
    <line x1="12.5" y1="6.99999999999989" x2="12.1117714323462" y2="6.94888873943387"/>
    <line x1="12.1117714323462" y1="6.94888873943387" x2="11.75" y2="6.79903810567686"/>
    <line x1="11.75" y1="6.79903810567686" x2="11.4393398282202" y2="6.56066017177965"/>
    <line x1="11.4393398282202" y1="6.56066017177965" x2="11.2009618943233" y2="6.24999999999984"/>
    <line x1="11.2009618943233" y1="6.24999999999984" x2="11.0511112605664" y2="5.88822856765356"/>
    <line x1="11.0511112605664" y1="5.88822856765356" x2="11.0" y2="5.49999999999974"/>
    <line x1="11.0" y1="5.49999999999974" x2="11.0511112605664" y2="5.11177143234637"/>
    <line x1="11.0511112605664" y1="5.11177143234637" x2="11.2009618943233" y2="4.75000000000036"/>
    <line x1="11.2009618943233" y1="4.75000000000036" x2="11.4393398282202" y2="4.43933982822027"/>
    <line x1="11.4393398282202" y1="4.43933982822027" x2="11.75" y2="4.20096189432337"/>
    <line x1="11.75" y1="4.20096189432337" x2="12.1117714323462" y2="4.05111126056694"/>
    <line x1="12.1117714323462" y1="4.05111126056694" x2="12.5" y2="3.99999999999991"/>
    <line x1="12.5" y1="3.99999999999991" x2="12.8882285676538" y2="4.0511112605663"/>
    <line x1="12.8882285676538" y1="4.0511112605663" x2="13.25" y2="4.20096189432314"/>
    <line x1="13.25" y1="4.20096189432314" x2="13.5606601717798" y2="4.43933982821966"/>
    <line x1="13.5606601717798" y1="4.43933982821966" x2="13.7990381056766" y2="4.74999999999959"/>
    <line x1="13.7990381056766" y1="4.74999999999959" x2="13.9488887394336" y2="5.11177143234622"/>
    <line x1="120.051111260566" y1="5.88822856765373" x2="120.0" y2="5.49999999999993"/>
    <line x1="120.0" y1="5.49999999999993" x2="120.051111260566" y2="5.11177143234617"/>
    <line x1="120.051111260566" y1="5.11177143234617" x2="120.200961894323" y2="4.74999999999991"/>
    <line x1="120.200961894323" y1="4.74999999999991" x2="120.43933982822" y2="4.43933982822013"/>
    <line x1="120.43933982822" y1="4.43933982822013" x2="120.75" y2="4.20096189432326"/>
    <line x1="120.75" y1="4.20096189432326" x2="121.111771432346" y2="4.05111126056633"/>
    <line x1="121.111771432346" y1="4.05111126056633" x2="121.5" y2="3.99999999999996"/>
    <line x1="121.5" y1="3.99999999999996" x2="121.888228567654" y2="4.05111126056633"/>
    <line x1="121.888228567654" y1="4.05111126056633" x2="122.25" y2="4.2009618943233"/>
    <line x1="122.25" y1="4.2009618943233" x2="122.56066017178" y2="4.43933982822013"/>
    <line x1="122.56066017178" y1="4.43933982822013" x2="122.799038105677" y2="4.74999999999991"/>
    <line x1="122.799038105677" y1="4.74999999999991" x2="122.948888739434" y2="5.11177143234617"/>
    <line x1="122.948888739434" y1="5.11177143234617" x2="123.0" y2="5.49999999999993"/>
    <line x1="123.0" y1="5.49999999999993" x2="122.948888739434" y2="5.88822856765373"/>
    <line x1="122.948888739434" y1="5.88822856765373" x2="122.799038105677" y2="6.24999999999994"/>
    <line x1="122.799038105677" y1="6.24999999999994" x2="122.56066017178" y2="6.56066017177977"/>
    <line x1="122.56066017178" y1="6.56066017177977" x2="122.25" y2="6.7990381056766"/>
    <line x1="122.25" y1="6.7990381056766" x2="121.888228567654" y2="6.94888873943353"/>
    <line x1="121.888228567654" y1="6.94888873943353" x2="121.5" y2="6.99999999999996"/>
    <line x1="121.5" y1="6.99999999999996" x2="121.111771432346" y2="6.94888873943353"/>
    <line x1="121.111771432346" y1="6.94888873943353" x2="120.75" y2="6.7990381056766"/>
    <line x1="120.75" y1="6.7990381056766" x2="120.43933982822" y2="6.56066017177977"/>
    <line x1="120.43933982822" y1="6.56066017177977" x2="120.200961894323" y2="6.24999999999994"/>
    <line x1="120.200961894323" y1="6.24999999999994" x2="120.051111260566" y2="5.88822856765373"/>
    <line x1="127.0" y1="76.9999999999999" x2="127.0" y2="56.9999999999999"/>
    <line x1="127.0" y1="56.9999999999999" x2="130.0" y2="56.9999999999999"/>
    <line x1="130.0" y1="56.9999999999999" x2="130.0" y2="76.9999999999999"/>
    <line x1="130.0" y1="76.9999999999999" x2="127.0" y2="76.9999999999999"/>
    <line x1="4.0" y1="57.0" x2="7.0" y2="57.0"/>
    <line x1="7.0" y1="57.0" x2="7.0" y2="77.0"/>
    <line x1="7.0" y1="77.0" x2="4.0" y2="77.0"/>
    <line x1="4.0" y1="77.0" x2="4.0" y2="57.0"/>
  </g>
</svg>
