<?xml version="1.0" standalone="no"?>
<!DOCTYPE svg PUBLIC "-//W3C//DTD SVG 1.1//EN" "http://www.w3.org/Graphics/SVG/1.1/DTD/svg11.dtd">
<svg width="131.0mm" height="128.0mm"
 viewBox="0 0 131.0 128.0"
 xmlns="http://www.w3.org/2000/svg" version="1.1"
 xmlns:xlink="http://www.w3.org/1999/xlink">
<desc>Output from Flights of Ideas SVG Sketchup Plugin</desc>

  <g id="face0" fill="none" stroke="rgb(0,0,255)" stroke-width="1" stroke-miterlimit="4" stroke-dasharray="none" stroke-linejoin="round" stroke-linecap="round">
    <line x1="11.0" y1="4.0" x2="1.0" y2="4.0"/>
    <line x1="1.0" y1="4.0" x2="1.0" y2="124.0"/>
    <line x1="1.0" y1="124.0" x2="11.0" y2="124.0"/>
    <line x1="11.0" y1="124.0" x2="11.0" y2="122.0"/>
    <line x1="11.0" y1="122.0" x2="9.69999999999999" y2="122.0"/>
    <line x1="9.69999999999999" y1="122.0" x2="9.69999999999999" y2="119.8"/>
    <line x1="9.69999999999999" y1="119.8" x2="11.0" y2="119.8"/>
    <line x1="11.0" y1="119.8" x2="11.0" y2="116.8"/>
    <line x1="11.0" y1="116.8" x2="14.0" y2="116.8"/>
    <line x1="14.0" y1="116.8" x2="14.0" y2="119.8"/>
    <line x1="14.0" y1="119.8" x2="15.2" y2="119.8"/>
    <line x1="15.2" y1="119.8" x2="15.2" y2="122.0"/>
    <line x1="15.2" y1="122.0" x2="13.9" y2="122.0"/>
    <line x1="13.9" y1="122.0" x2="13.9" y2="124.0"/>
    <line x1="13.9" y1="124.0" x2="18.9" y2="124.0"/>
    <line x1="18.9" y1="124.0" x2="18.9" y2="127.0"/>
    <line x1="18.9" y1="127.0" x2="38.9" y2="127.0"/>
    <line x1="38.9" y1="127.0" x2="38.9" y2="124.0"/>
    <line x1="38.9" y1="124.0" x2="101.1" y2="124.0"/>
    <line x1="101.1" y1="124.0" x2="101.1" y2="122.0"/>
    <line x1="101.1" y1="122.0" x2="99.8" y2="122.0"/>
    <line x1="99.8" y1="122.0" x2="99.8" y2="119.8"/>
    <line x1="99.8" y1="119.8" x2="101.1" y2="119.8"/>
    <line x1="101.1" y1="119.8" x2="101.1" y2="116.8"/>
    <line x1="101.1" y1="116.8" x2="104.1" y2="116.8"/>
    <line x1="104.1" y1="116.8" x2="104.1" y2="119.8"/>
    <line x1="104.1" y1="119.8" x2="105.3" y2="119.8"/>
    <line x1="105.3" y1="119.8" x2="105.3" y2="122.0"/>
    <line x1="105.3" y1="122.0" x2="104.0" y2="122.0"/>
    <line x1="104.0" y1="122.0" x2="104.0" y2="124.0"/>
    <line x1="104.0" y1="124.0" x2="107.0" y2="124.0"/>
    <line x1="107.0" y1="124.0" x2="107.0" y2="127.0"/>
    <line x1="107.0" y1="127.0" x2="117.0" y2="127.0"/>
    <line x1="117.0" y1="127.0" x2="117.0" y2="124.0"/>
    <line x1="117.0" y1="124.0" x2="127.0" y2="124.0"/>
    <line x1="127.0" y1="124.0" x2="127.0" y2="119.0"/>
    <line x1="127.0" y1="119.0" x2="130.0" y2="119.0"/>
    <line x1="130.0" y1="119.0" x2="130.0" y2="99.0"/>
    <line x1="130.0" y1="99.0" x2="127.0" y2="99.0"/>
    <line x1="127.0" y1="99.0" x2="127.0" y2="29.0"/>
    <line x1="127.0" y1="29.0" x2="130.0" y2="29.0"/>
    <line x1="130.0" y1="29.0" x2="130.0" y2="8.99999999999983"/>
    <line x1="130.0" y1="8.99999999999983" x2="127.0" y2="9.00000000000017"/>
    <line x1="127.0" y1="9.00000000000017" x2="127.0" y2="4.0"/>
    <line x1="127.0" y1="4.0" x2="117.0" y2="4.0"/>
    <line x1="117.0" y1="4.0" x2="117.0" y2="1.00000000000054"/>
    <line x1="117.0" y1="1.00000000000054" x2="107.0" y2="1.00000000000034"/>
    <line x1="107.0" y1="1.00000000000034" x2="107.0" y2="4.0"/>
    <line x1="107.0" y1="4.0" x2="102.0" y2="4.0"/>
    <line x1="102.0" y1="4.0" x2="102.0" y2="6.00000000000009"/>
    <line x1="102.0" y1="6.00000000000009" x2="103.3" y2="6.00000000000006"/>
    <line x1="103.3" y1="6.00000000000006" x2="103.3" y2="8.19999999999996"/>
    <line x1="103.3" y1="8.19999999999996" x2="102.0" y2="8.19999999999999"/>
    <line x1="102.0" y1="8.19999999999999" x2="102.0" y2="11.1999999999998"/>
    <line x1="102.0" y1="11.1999999999998" x2="99.0" y2="11.2000000000001"/>
    <line x1="99.0" y1="11.2000000000001" x2="99.0" y2="8.19999999999999"/>
    <line x1="99.0" y1="8.19999999999999" x2="97.7" y2="8.20000000000005"/>
    <line x1="97.7" y1="8.20000000000005" x2="97.7" y2="5.9999999999996"/>
    <line x1="97.7" y1="5.9999999999996" x2="99.0" y2="6.00000000000017"/>
    <line x1="99.0" y1="6.00000000000017" x2="99.0" y2="4.0"/>
    <line x1="99.0" y1="4.0" x2="44.0" y2="4.0"/>
    <line x1="44.0" y1="4.0" x2="44.0" y2="6.00000000000006"/>
    <line x1="44.0" y1="6.00000000000006" x2="45.3" y2="5.99999999999997"/>
    <line x1="45.3" y1="5.99999999999997" x2="45.3" y2="8.19999999999999"/>
    <line x1="45.3" y1="8.19999999999999" x2="44.0" y2="8.20000000000005"/>
    <line x1="44.0" y1="8.20000000000005" x2="44.0" y2="11.2"/>
    <line x1="44.0" y1="11.2" x2="41.0" y2="11.2"/>
    <line x1="41.0" y1="11.2" x2="41.0" y2="8.19999999999999"/>
    <line x1="41.0" y1="8.19999999999999" x2="39.7" y2="8.19999999999999"/>
    <line x1="39.7" y1="8.19999999999999" x2="39.7" y2="6.0"/>
    <line x1="39.7" y1="6.0" x2="41.0" y2="5.99999999999997"/>
    <line x1="41.0" y1="5.99999999999997" x2="41.0" y2="4.0"/>
    <line x1="41.0" y1="4.0" x2="31.0" y2="4.0"/>
    <line x1="31.0" y1="4.0" x2="31.0" y2="1.0"/>
    <line x1="31.0" y1="1.0" x2="11.0" y2="1.0"/>
    <line x1="11.0" y1="1.0" x2="11.0" y2="4.0"/>
    <line x1="24.2700440203205" y1="37.2" x2="48.3700440203206" y2="37.2"/>
    <line x1="48.3700440203206" y1="37.2" x2="48.3700440203206" y2="110.8"/>
    <line x1="48.3700440203206" y1="110.8" x2="24.2700440203205" y2="110.8"/>
    <line x1="24.2700440203205" y1="110.8" x2="24.2700440203205" y2="37.2"/>
    <line x1="37.2259106781794" y1="24.5807403920117" x2="36.3200440203206" y2="24.7"/>
    <line x1="36.3200440203206" y1="24.7" x2="35.4141773624617" y2="24.5807403920117"/>
    <line x1="35.4141773624617" y1="24.5807403920117" x2="34.5700440203206" y2="24.2310889132455"/>
    <line x1="34.5700440203206" y1="24.2310889132455" x2="33.8451702861677" y2="23.6748737341529"/>
    <line x1="33.8451702861677" y1="23.6748737341529" x2="33.288955107075" y2="22.95"/>
    <line x1="33.288955107075" y1="22.95" x2="32.9393036283088" y2="22.1058666578589"/>
    <line x1="32.9393036283088" y1="22.1058666578589" x2="32.8200440203206" y2="21.2"/>
    <line x1="32.8200440203206" y1="21.2" x2="32.9393036283088" y2="20.2941333421412"/>
    <line x1="32.9393036283088" y1="20.2941333421412" x2="33.288955107075" y2="19.45"/>
    <line x1="33.288955107075" y1="19.45" x2="33.8451702861677" y2="18.7251262658471"/>
    <line x1="33.8451702861677" y1="18.7251262658471" x2="34.5700440203206" y2="18.1689110867545"/>
    <line x1="34.5700440203206" y1="18.1689110867545" x2="35.4141773624617" y2="17.8192596079882"/>
    <line x1="35.4141773624617" y1="17.8192596079882" x2="36.3200440203206" y2="17.7"/>
    <line x1="36.3200440203206" y1="17.7" x2="37.2259106781794" y2="17.8192596079882"/>
    <line x1="37.2259106781794" y1="17.8192596079882" x2="38.0700440203206" y2="18.1689110867545"/>
    <line x1="38.0700440203206" y1="18.1689110867545" x2="38.7949177544734" y2="18.7251262658471"/>
    <line x1="38.7949177544734" y1="18.7251262658471" x2="39.3511329335661" y2="19.45"/>
    <line x1="39.3511329335661" y1="19.45" x2="39.7007844123323" y2="20.2941333421412"/>
    <line x1="39.7007844123323" y1="20.2941333421412" x2="39.8200440203206" y2="21.2"/>
    <line x1="39.8200440203206" y1="21.2" x2="39.7007844123323" y2="22.1058666578589"/>
    <line x1="39.7007844123323" y1="22.1058666578589" x2="39.3511329335661" y2="22.95"/>
    <line x1="39.3511329335661" y1="22.95" x2="38.7949177544734" y2="23.6748737341529"/>
    <line x1="38.7949177544734" y1="23.6748737341529" x2="38.0700440203206" y2="24.2310889132455"/>
    <line x1="38.0700440203206" y1="24.2310889132455" x2="37.2259106781794" y2="24.5807403920117"/>
    <line x1="24.2700440203205" y1="15.2" x2="24.2700440203205" y2="21.2"/>
    <line x1="24.2700440203205" y1="21.2" x2="24.2700440203205" y2="27.2"/>
    <line x1="24.2700440203205" y1="27.2" x2="12.2700440203205" y2="27.2"/>
    <line x1="12.2700440203205" y1="27.2" x2="12.2700440203205" y2="15.2"/>
    <line x1="12.2700440203205" y1="15.2" x2="24.2700440203205" y2="15.2"/>
    <line x1="59.0" y1="29.0" x2="59.0" y2="9.00000000000009"/>
    <line x1="59.0" y1="9.00000000000009" x2="62.0" y2="9.00000000000003"/>
    <line x1="62.0" y1="9.00000000000003" x2="62.0" y2="29.0"/>
    <line x1="62.0" y1="29.0" x2="59.0" y2="29.0"/>
    <line x1="62.0" y1="99.0" x2="62.0" y2="119.0"/>
    <line x1="62.0" y1="119.0" x2="59.0" y2="119.0"/>
    <line x1="59.0" y1="119.0" x2="59.0" y2="99.0"/>
    <line x1="59.0" y1="99.0" x2="62.0" y2="99.0"/>
    <line x1="60.1117714323462" y1="62.5511112605664" x2="60.5" y2="62.5"/>
    <line x1="60.5" y1="62.5" x2="60.8882285676538" y2="62.5511112605664"/>
    <line x1="60.8882285676538" y1="62.5511112605664" x2="61.25" y2="62.7009618943233"/>
    <line x1="61.25" y1="62.7009618943233" x2="61.5606601717798" y2="62.9393398282202"/>
    <line x1="61.5606601717798" y1="62.9393398282202" x2="61.7990381056767" y2="63.25"/>
    <line x1="61.7990381056767" y1="63.25" x2="61.9488887394336" y2="63.6117714323462"/>
    <line x1="61.9488887394336" y1="63.6117714323462" x2="62.0" y2="64.0"/>
    <line x1="62.0" y1="64.0" x2="61.9488887394336" y2="64.3882285676538"/>
    <line x1="61.9488887394336" y1="64.3882285676538" x2="61.7990381056767" y2="64.75"/>
    <line x1="61.7990381056767" y1="64.75" x2="61.5606601717798" y2="65.0606601717799"/>
    <line x1="61.5606601717798" y1="65.0606601717799" x2="61.25" y2="65.2990381056767"/>
    <line x1="61.25" y1="65.2990381056767" x2="60.8882285676538" y2="65.4488887394336"/>
    <line x1="60.8882285676538" y1="65.4488887394336" x2="60.5" y2="65.5"/>
    <line x1="60.5" y1="65.5" x2="60.1117714323462" y2="65.4488887394336"/>
    <line x1="60.1117714323462" y1="65.4488887394336" x2="59.75" y2="65.2990381056767"/>
    <line x1="59.75" y1="65.2990381056767" x2="59.4393398282202" y2="65.0606601717799"/>
    <line x1="59.4393398282202" y1="65.0606601717799" x2="59.2009618943233" y2="64.75"/>
    <line x1="59.2009618943233" y1="64.75" x2="59.0511112605664" y2="64.3882285676538"/>
    <line x1="59.0511112605664" y1="64.3882285676538" x2="59.0" y2="64.0"/>
    <line x1="59.0" y1="64.0" x2="59.0511112605664" y2="63.6117714323462"/>
    <line x1="59.0511112605664" y1="63.6117714323462" x2="59.2009618943233" y2="63.25"/>
    <line x1="59.2009618943233" y1="63.25" x2="59.4393398282202" y2="62.9393398282202"/>
    <line x1="59.4393398282202" y1="62.9393398282202" x2="59.75" y2="62.7009618943233"/>
    <line x1="59.75" y1="62.7009618943233" x2="60.1117714323462" y2="62.5511112605664"/>
  </g>
</svg>
