<?xml version="1.0" standalone="no"?>
<!DOCTYPE svg PUBLIC "-//W3C//DTD SVG 1.1//EN" "http://www.w3.org/Graphics/SVG/1.1/DTD/svg11.dtd">
<svg width="131.0mm" height="128.0mm"
 viewBox="0 0 131.0 128.0"
 xmlns="http://www.w3.org/2000/svg" version="1.1"
 xmlns:xlink="http://www.w3.org/1999/xlink">
<desc>Output from Flights of Ideas SVG Sketchup Plugin</desc>

  <g id="face0" fill="none" stroke="rgb(0,0,255)" stroke-width="1" stroke-miterlimit="4" stroke-dasharray="none" stroke-linejoin="round" stroke-linecap="round">
    <line x1="11.0" y1="4.0" x2="1.0" y2="4.0"/>
    <line x1="1.0" y1="4.0" x2="1.0" y2="124.0"/>
    <line x1="1.0" y1="124.0" x2="11.0" y2="124.0"/>
    <line x1="11.0" y1="124.0" x2="11.0" y2="122.0"/>
    <line x1="11.0" y1="122.0" x2="9.69999999999999" y2="122.0"/>
    <line x1="9.69999999999999" y1="122.0" x2="9.69999999999999" y2="119.8"/>
    <line x1="9.69999999999999" y1="119.8" x2="11.0" y2="119.8"/>
    <line x1="11.0" y1="119.8" x2="11.0" y2="116.8"/>
    <line x1="11.0" y1="116.8" x2="14.0" y2="116.8"/>
    <line x1="14.0" y1="116.8" x2="14.0" y2="119.8"/>
    <line x1="14.0" y1="119.8" x2="15.2" y2="119.8"/>
    <line x1="15.2" y1="119.8" x2="15.2" y2="122.0"/>
    <line x1="15.2" y1="122.0" x2="13.9" y2="122.0"/>
    <line x1="13.9" y1="122.0" x2="13.9" y2="124.0"/>
    <line x1="13.9" y1="124.0" x2="18.9" y2="124.0"/>
    <line x1="18.9" y1="124.0" x2="18.9" y2="127.0"/>
    <line x1="18.9" y1="127.0" x2="38.9" y2="127.0"/>
    <line x1="38.9" y1="127.0" x2="38.9" y2="124.0"/>
    <line x1="38.9" y1="124.0" x2="101.1" y2="124.0"/>
    <line x1="101.1" y1="124.0" x2="101.1" y2="122.0"/>
    <line x1="101.1" y1="122.0" x2="99.8" y2="122.0"/>
    <line x1="99.8" y1="122.0" x2="99.8" y2="119.8"/>
    <line x1="99.8" y1="119.8" x2="101.1" y2="119.8"/>
    <line x1="101.1" y1="119.8" x2="101.1" y2="116.8"/>
    <line x1="101.1" y1="116.8" x2="104.1" y2="116.8"/>
    <line x1="104.1" y1="116.8" x2="104.1" y2="119.8"/>
    <line x1="104.1" y1="119.8" x2="105.3" y2="119.8"/>
    <line x1="105.3" y1="119.8" x2="105.3" y2="122.0"/>
    <line x1="105.3" y1="122.0" x2="104.0" y2="122.0"/>
    <line x1="104.0" y1="122.0" x2="104.0" y2="124.0"/>
    <line x1="104.0" y1="124.0" x2="107.0" y2="124.0"/>
    <line x1="107.0" y1="124.0" x2="107.0" y2="127.0"/>
    <line x1="107.0" y1="127.0" x2="117.0" y2="127.0"/>
    <line x1="117.0" y1="127.0" x2="117.0" y2="124.0"/>
    <line x1="117.0" y1="124.0" x2="127.0" y2="124.0"/>
    <line x1="127.0" y1="124.0" x2="127.0" y2="119.0"/>
    <line x1="127.0" y1="119.0" x2="130.0" y2="119.0"/>
    <line x1="130.0" y1="119.0" x2="130.0" y2="99.0"/>
    <line x1="130.0" y1="99.0" x2="127.0" y2="99.0"/>
    <line x1="127.0" y1="99.0" x2="127.0" y2="29.0"/>
    <line x1="127.0" y1="29.0" x2="130.0" y2="29.0"/>
    <line x1="130.0" y1="29.0" x2="130.0" y2="8.99999999999983"/>
    <line x1="130.0" y1="8.99999999999983" x2="127.0" y2="9.00000000000017"/>
    <line x1="127.0" y1="9.00000000000017" x2="127.0" y2="4.0"/>
    <line x1="127.0" y1="4.0" x2="117.0" y2="4.0"/>
    <line x1="117.0" y1="4.0" x2="117.0" y2="1.00000000000054"/>
    <line x1="117.0" y1="1.00000000000054" x2="107.0" y2="1.00000000000034"/>
    <line x1="107.0" y1="1.00000000000034" x2="107.0" y2="4.0"/>
    <line x1="107.0" y1="4.0" x2="102.0" y2="4.0"/>
    <line x1="102.0" y1="4.0" x2="102.0" y2="6.00000000000009"/>
    <line x1="102.0" y1="6.00000000000009" x2="103.3" y2="6.00000000000006"/>
    <line x1="103.3" y1="6.00000000000006" x2="103.3" y2="8.19999999999996"/>
    <line x1="103.3" y1="8.19999999999996" x2="102.0" y2="8.19999999999999"/>
    <line x1="102.0" y1="8.19999999999999" x2="102.0" y2="11.1999999999998"/>
    <line x1="102.0" y1="11.1999999999998" x2="99.0" y2="11.2000000000001"/>
    <line x1="99.0" y1="11.2000000000001" x2="99.0" y2="8.19999999999999"/>
    <line x1="99.0" y1="8.19999999999999" x2="97.7" y2="8.20000000000005"/>
    <line x1="97.7" y1="8.20000000000005" x2="97.7" y2="5.9999999999996"/>
    <line x1="97.7" y1="5.9999999999996" x2="99.0" y2="6.00000000000017"/>
    <line x1="99.0" y1="6.00000000000017" x2="99.0" y2="4.0"/>
    <line x1="99.0" y1="4.0" x2="44.0" y2="4.0"/>
    <line x1="44.0" y1="4.0" x2="44.0" y2="6.00000000000006"/>
    <line x1="44.0" y1="6.00000000000006" x2="45.3" y2="5.99999999999997"/>
    <line x1="45.3" y1="5.99999999999997" x2="45.3" y2="8.19999999999999"/>
    <line x1="45.3" y1="8.19999999999999" x2="44.0" y2="8.20000000000005"/>
    <line x1="44.0" y1="8.20000000000005" x2="44.0" y2="11.2"/>
    <line x1="44.0" y1="11.2" x2="41.0" y2="11.2"/>
    <line x1="41.0" y1="11.2" x2="41.0" y2="8.19999999999999"/>
    <line x1="41.0" y1="8.19999999999999" x2="39.7" y2="8.19999999999999"/>
    <line x1="39.7" y1="8.19999999999999" x2="39.7" y2="6.0"/>
    <line x1="39.7" y1="6.0" x2="41.0" y2="5.99999999999997"/>
    <line x1="41.0" y1="5.99999999999997" x2="41.0" y2="4.0"/>
    <line x1="41.0" y1="4.0" x2="31.0" y2="4.0"/>
    <line x1="31.0" y1="4.0" x2="31.0" y2="1.0"/>
    <line x1="31.0" y1="1.0" x2="11.0" y2="1.0"/>
    <line x1="11.0" y1="1.0" x2="11.0" y2="4.0"/>
    <line x1="24.2700440203205" y1="37.2" x2="48.3700440203206" y2="37.2"/>
    <line x1="48.3700440203206" y1="37.2" x2="48.3700440203206" y2="110.8"/>
    <line x1="48.3700440203206" y1="110.8" x2="24.2700440203205" y2="110.8"/>
    <line x1="24.2700440203205" y1="110.8" x2="24.2700440203205" y2="37.2"/>
    <line x1="37.2259106781794" y1="24.5807403920117" x2="36.3200440203206" y2="24.7"/>
    <line x1="36.3200440203206" y1="24.7" x2="35.4141773624617" y2="24.5807403920117"/>
    <line x1="35.4141773624617" y1="24.5807403920117" x2="34.5700440203206" y2="24.2310889132455"/>
    <line x1="34.5700440203206" y1="24.2310889132455" x2="33.8451702861677" y2="23.6748737341529"/>
    <line x1="33.8451702861677" y1="23.6748737341529" x2="33.288955107075" y2="22.95"/>
    <line x1="33.288955107075" y1="22.95" x2="32.9393036283088" y2="22.1058666578589"/>
    <line x1="32.9393036283088" y1="22.1058666578589" x2="32.8200440203206" y2="21.2"/>
    <line x1="32.8200440203206" y1="21.2" x2="32.9393036283088" y2="20.2941333421412"/>
    <line x1="32.9393036283088" y1="20.2941333421412" x2="33.288955107075" y2="19.45"/>
    <line x1="33.288955107075" y1="19.45" x2="33.8451702861677" y2="18.7251262658471"/>
    <line x1="33.8451702861677" y1="18.7251262658471" x2="34.5700440203206" y2="18.1689110867545"/>
    <line x1="34.5700440203206" y1="18.1689110867545" x2="35.4141773624617" y2="17.8192596079882"/>
    <line x1="35.4141773624617" y1="17.8192596079882" x2="36.3200440203206" y2="17.7"/>
    <line x1="36.3200440203206" y1="17.7" x2="37.2259106781794" y2="17.8192596079882"/>
    <line x1="37.2259106781794" y1="17.8192596079882" x2="38.0700440203206" y2="18.1689110867545"/>
    <line x1="38.0700440203206" y1="18.1689110867545" x2="38.7949177544734" y2="18.7251262658471"/>
    <line x1="38.7949177544734" y1="18.7251262658471" x2="39.3511329335661" y2="19.45"/>
    <line x1="39.3511329335661" y1="19.45" x2="39.7007844123323" y2="20.2941333421412"/>
    <line x1="39.7007844123323" y1="20.2941333421412" x2="39.8200440203206" y2="21.2"/>
    <line x1="39.8200440203206" y1="21.2" x2="39.7007844123323" y2="22.1058666578589"/>
    <line x1="39.7007844123323" y1="22.1058666578589" x2="39.3511329335661" y2="22.95"/>
    <line x1="39.3511329335661" y1="22.95" x2="38.7949177544734" y2="23.6748737341529"/>
    <line x1="38.7949177544734" y1="23.6748737341529" x2="38.0700440203206" y2="24.2310889132455"/>
    <line x1="38.0700440203206" y1="24.2310889132455" x2="37.2259106781794" y2="24.5807403920117"/>
    <line x1="24.2700440203205" y1="15.2" x2="24.2700440203205" y2="21.2"/>
    <line x1="24.2700440203205" y1="21.2" x2="24.2700440203205" y2="27.2"/>
    <line x1="24.2700440203205" y1="27.2" x2="12.2700440203205" y2="27.2"/>
    <line x1="12.2700440203205" y1="27.2" x2="12.2700440203205" y2="15.2"/>
    <line x1="12.2700440203205" y1="15.2" x2="24.2700440203205" y2="15.2"/>
    <line x1="59.0" y1="29.0" x2="59.0" y2="9.00000000000009"/>
    <line x1="59.0" y1="9.00000000000009" x2="62.0" y2="9.00000000000003"/>
    <line x1="62.0" y1="9.00000000000003" x2="62.0" y2="29.0"/>
    <line x1="62.0" y1="29.0" x2="59.0" y2="29.0"/>
    <line x1="62.0" y1="99.0" x2="62.0" y2="119.0"/>
    <line x1="62.0" y1="119.0" x2="59.0" y2="119.0"/>
    <line x1="59.0" y1="119.0" x2="59.0" y2="99.0"/>
    <line x1="59.0" y1="99.0" x2="62.0" y2="99.0"/>
    <line x1="60.1117714323462" y1="62.5511112605664" x2="60.5" y2="62.5"/>
    <line x1="60.5" y1="62.5" x2="60.8882285676538" y2="62.5511112605664"/>
    <line x1="60.8882285676538" y1="62.5511112605664" x2="61.25" y2="62.7009618943233"/>
    <line x1="61.25" y1="62.7009618943233" x2="61.5606601717798" y2="62.9393398282202"/>
    <line x1="61.5606601717798" y1="62.9393398282202" x2="61.7990381056767" y2="63.25"/>
    <line x1="61.7990381056767" y1="63.25" x2="61.9488887394336" y2="63.6117714323462"/>
    <line x1="61.9488887394336" y1="63.6117714323462" x2="62.0" y2="64.0"/>
    <line x1="62.0" y1="64.0" x2="61.9488887394336" y2="64.3882285676538"/>
    <line x1="61.9488887394336" y1="64.3882285676538" x2="61.7990381056767" y2="64.75"/>
    <line x1="61.7990381056767" y1="64.75" x2="61.5606601717798" y2="65.0606601717799"/>
    <line x1="61.5606601717798" y1="65.0606601717799" x2="61.25" y2="65.2990381056767"/>
    <line x1="61.25" y1="65.2990381056767" x2="60.8882285676538" y2="65.4488887394336"/>
    <line x1="60.8882285676538" y1="65.4488887394336" x2="60.5" y2="65.5"/>
    <line x1="60.5" y1="65.5" x2="60.1117714323462" y2="65.4488887394336"/>
    <line x1="60.1117714323462" y1="65.4488887394336" x2="59.75" y2="65.2990381056767"/>
    <line x1="59.75" y1="65.2990381056767" x2="59.4393398282202" y2="65.0606601717799"/>
    <line x1="59.4393398282202" y1="65.0606601717799" x2="59.2009618943233" y2="64.75"/>
    <line x1="59.2009618943233" y1="64.75" x2="59.0511112605664" y2="64.3882285676538"/>
    <line x1="59.0511112605664" y1="64.3882285676538" x2="59.0" y2="64.0"/>
    <line x1="59.0" y1="64.0" x2="59.0511112605664" y2="63.6117714323462"/>
    <line x1="59.0511112605664" y1="63.6117714323462" x2="59.2009618943233" y2="63.25"/>
    <line x1="59.2009618943233" y1="63.25" x2="59.4393398282202" y2="62.9393398282202"/>
    <line x1="59.4393398282202" y1="62.9393398282202" x2="59.75" y2="62.7009618943233"/>
    <line x1="59.75" y1="62.7009618943233" x2="60.1117714323462" y2="62.5511112605664"/>
    <line x1="109.0" y1="62.5" x2="114.0" y2="62.5"/>
    <line x1="114.0" y1="62.5" x2="114.0" y2="63.9999999999999"/>
    <line x1="114.0" y1="63.9999999999999" x2="114.0" y2="65.5"/>
    <line x1="114.0" y1="65.5" x2="109.0" y2="65.5"/>
    <line x1="109.0" y1="65.5" x2="109.0" y2="62.5"/>
    <line x1="119.051111260566" y1="64.3882285676538" x2="119.0" y2="64.0"/>
    <line x1="119.0" y1="64.0" x2="119.051111260566" y2="63.6117714323462"/>
    <line x1="119.051111260566" y1="63.6117714323462" x2="119.200961894323" y2="63.25"/>
    <line x1="119.200961894323" y1="63.25" x2="119.43933982822" y2="62.9393398282202"/>
    <line x1="119.43933982822" y1="62.9393398282202" x2="119.75" y2="62.7009618943233"/>
    <line x1="119.75" y1="62.7009618943233" x2="120.111771432346" y2="62.5511112605664"/>
    <line x1="120.111771432346" y1="62.5511112605664" x2="120.5" y2="62.5"/>
    <line x1="120.5" y1="62.5" x2="120.888228567654" y2="62.5511112605664"/>
    <line x1="120.888228567654" y1="62.5511112605664" x2="121.25" y2="62.7009618943233"/>
    <line x1="121.25" y1="62.7009618943233" x2="121.56066017178" y2="62.9393398282203"/>
    <line x1="121.56066017178" y1="62.9393398282203" x2="121.799038105677" y2="63.25"/>
    <line x1="121.799038105677" y1="63.25" x2="121.948888739434" y2="63.6117714323462"/>
    <line x1="121.948888739434" y1="63.6117714323462" x2="122.0" y2="64.0"/>
    <line x1="122.0" y1="64.0" x2="121.948888739434" y2="64.3882285676538"/>
    <line x1="121.948888739434" y1="64.3882285676538" x2="121.799038105677" y2="64.75"/>
    <line x1="121.799038105677" y1="64.75" x2="121.56066017178" y2="65.0606601717799"/>
    <line x1="121.56066017178" y1="65.0606601717799" x2="121.25" y2="65.2990381056767"/>
    <line x1="121.25" y1="65.2990381056767" x2="120.888228567654" y2="65.4488887394336"/>
    <line x1="120.888228567654" y1="65.4488887394336" x2="120.5" y2="65.5"/>
    <line x1="120.5" y1="65.5" x2="120.111771432346" y2="65.4488887394336"/>
    <line x1="120.111771432346" y1="65.4488887394336" x2="119.75" y2="65.2990381056767"/>
    <line x1="119.75" y1="65.2990381056767" x2="119.43933982822" y2="65.0606601717798"/>
    <line x1="119.43933982822" y1="65.0606601717798" x2="119.200961894323" y2="64.75"/>
    <line x1="119.200961894323" y1="64.75" x2="119.051111260566" y2="64.3882285676538"/>
    <line x1="52.2082725879742" y1="109.351111260566" x2="52.5700440203204" y2="109.500961894323"/>
    <line x1="52.5700440203204" y1="109.500961894323" x2="52.8807041921003" y2="109.73933982822"/>
    <line x1="52.8807041921003" y1="109.73933982822" x2="53.1190821259971" y2="110.05"/>
    <line x1="53.1190821259971" y1="110.05" x2="53.2689327597541" y2="110.411771432346"/>
    <line x1="53.2689327597541" y1="110.411771432346" x2="53.3200440203205" y2="110.8"/>
    <line x1="53.3200440203205" y1="110.8" x2="53.2689327597541" y2="111.188228567654"/>
    <line x1="53.2689327597541" y1="111.188228567654" x2="53.1190821259971" y2="111.55"/>
    <line x1="53.1190821259971" y1="111.55" x2="52.8807041921003" y2="111.86066017178"/>
    <line x1="52.8807041921003" y1="111.86066017178" x2="52.5700440203205" y2="112.099038105677"/>
    <line x1="52.5700440203205" y1="112.099038105677" x2="52.2082725879742" y2="112.248888739434"/>
    <line x1="52.2082725879742" y1="112.248888739434" x2="51.8200440203205" y2="112.3"/>
    <line x1="51.8200440203205" y1="112.3" x2="51.4318154526667" y2="112.248888739434"/>
    <line x1="51.4318154526667" y1="112.248888739434" x2="51.0700440203205" y2="112.099038105677"/>
    <line x1="51.0700440203205" y1="112.099038105677" x2="50.7593838485407" y2="111.86066017178"/>
    <line x1="50.7593838485407" y1="111.86066017178" x2="50.5210059146438" y2="111.55"/>
    <line x1="50.5210059146438" y1="111.55" x2="50.3711552808869" y2="111.188228567654"/>
    <line x1="50.3711552808869" y1="111.188228567654" x2="50.3200440203205" y2="110.8"/>
    <line x1="50.3200440203205" y1="110.8" x2="50.3711552808869" y2="110.411771432346"/>
    <line x1="50.3711552808869" y1="110.411771432346" x2="50.5210059146438" y2="110.05"/>
    <line x1="50.5210059146438" y1="110.05" x2="50.7593838485407" y2="109.73933982822"/>
    <line x1="50.7593838485407" y1="109.73933982822" x2="51.0700440203205" y2="109.500961894323"/>
    <line x1="51.0700440203205" y1="109.500961894323" x2="51.4318154526667" y2="109.351111260566"/>
    <line x1="51.4318154526667" y1="109.351111260566" x2="51.8200440203205" y2="109.3"/>
    <line x1="51.8200440203205" y1="109.3" x2="52.2082725879742" y2="109.351111260566"/>
    <line x1="53.1700440203205" y1="35.8" x2="53.1240438858107" y2="36.1494057108884"/>
    <line x1="53.1240438858107" y1="36.1494057108884" x2="52.9891783154295" y2="36.475"/>
    <line x1="52.9891783154295" y1="36.475" x2="52.7746381749223" y2="36.7545941546018"/>
    <line x1="52.7746381749223" y1="36.7545941546018" x2="52.4950440203205" y2="36.969134295109"/>
    <line x1="52.4950440203205" y1="36.969134295109" x2="52.1694497312089" y2="37.1039998654903"/>
    <line x1="52.1694497312089" y1="37.1039998654903" x2="51.8200440203205" y2="37.15"/>
    <line x1="51.8200440203205" y1="37.15" x2="51.4706383094321" y2="37.1039998654903"/>
    <line x1="51.4706383094321" y1="37.1039998654903" x2="51.1450440203205" y2="36.969134295109"/>
    <line x1="51.1450440203205" y1="36.969134295109" x2="50.8654498657186" y2="36.7545941546018"/>
    <line x1="50.8654498657186" y1="36.7545941546018" x2="50.6509097252115" y2="36.475"/>
    <line x1="50.6509097252115" y1="36.475" x2="50.5160441548302" y2="36.1494057108884"/>
    <line x1="50.5160441548302" y1="36.1494057108884" x2="50.4700440203205" y2="35.8"/>
    <line x1="50.4700440203205" y1="35.8" x2="50.5160441548302" y2="35.4505942891116"/>
    <line x1="50.5160441548302" y1="35.4505942891116" x2="50.6509097252115" y2="35.125"/>
    <line x1="50.6509097252115" y1="35.125" x2="50.8654498657186" y2="34.8454058453982"/>
    <line x1="50.8654498657186" y1="34.8454058453982" x2="51.1450440203205" y2="34.6308657048911"/>
    <line x1="51.1450440203205" y1="34.6308657048911" x2="51.4706383094321" y2="34.4960001345098"/>
    <line x1="51.4706383094321" y1="34.4960001345098" x2="51.8200440203205" y2="34.45"/>
    <line x1="51.8200440203205" y1="34.45" x2="52.1694497312089" y2="34.4960001345098"/>
    <line x1="52.1694497312089" y1="34.4960001345098" x2="52.4950440203205" y2="34.630865704891"/>
    <line x1="52.4950440203205" y1="34.630865704891" x2="52.7746381749223" y2="34.8454058453982"/>
    <line x1="52.7746381749223" y1="34.8454058453982" x2="52.9891783154295" y2="35.125"/>
    <line x1="52.9891783154295" y1="35.125" x2="53.1240438858107" y2="35.4505942891116"/>
    <line x1="53.1240438858107" y1="35.4505942891116" x2="53.1700440203205" y2="35.8"/>
    <line x1="20.1450440203205" y1="109.630865704891" x2="20.4706383094321" y2="109.49600013451"/>
    <line x1="20.4706383094321" y1="109.49600013451" x2="20.8200440203205" y2="109.45"/>
    <line x1="20.8200440203205" y1="109.45" x2="21.1694497312089" y2="109.49600013451"/>
    <line x1="21.1694497312089" y1="109.49600013451" x2="21.4950440203205" y2="109.630865704891"/>
    <line x1="21.4950440203205" y1="109.630865704891" x2="21.7746381749224" y2="109.845405845398"/>
    <line x1="21.7746381749224" y1="109.845405845398" x2="21.9891783154295" y2="110.125"/>
    <line x1="21.9891783154295" y1="110.125" x2="22.1240438858107" y2="110.450594289112"/>
    <line x1="22.1240438858107" y1="110.450594289112" x2="22.1700440203205" y2="110.8"/>
    <line x1="22.1700440203205" y1="110.8" x2="22.1240438858107" y2="111.149405710888"/>
    <line x1="22.1240438858107" y1="111.149405710888" x2="21.9891783154295" y2="111.475"/>
    <line x1="21.9891783154295" y1="111.475" x2="21.7746381749224" y2="111.754594154602"/>
    <line x1="21.7746381749224" y1="111.754594154602" x2="21.4950440203205" y2="111.969134295109"/>
    <line x1="21.4950440203205" y1="111.969134295109" x2="21.1694497312089" y2="112.10399986549"/>
    <line x1="21.1694497312089" y1="112.10399986549" x2="20.8200440203205" y2="112.15"/>
    <line x1="20.8200440203205" y1="112.15" x2="20.4706383094321" y2="112.10399986549"/>
    <line x1="20.4706383094321" y1="112.10399986549" x2="20.1450440203205" y2="111.969134295109"/>
    <line x1="20.1450440203205" y1="111.969134295109" x2="19.8654498657186" y2="111.754594154602"/>
    <line x1="19.8654498657186" y1="111.754594154602" x2="19.6509097252115" y2="111.475"/>
    <line x1="19.6509097252115" y1="111.475" x2="19.5160441548302" y2="111.149405710888"/>
    <line x1="19.5160441548302" y1="111.149405710888" x2="19.4700440203205" y2="110.8"/>
    <line x1="19.4700440203205" y1="110.8" x2="19.5160441548302" y2="110.450594289112"/>
    <line x1="19.5160441548302" y1="110.450594289112" x2="19.6509097252115" y2="110.125"/>
    <line x1="19.6509097252115" y1="110.125" x2="19.8654498657186" y2="109.845405845398"/>
    <line x1="19.8654498657186" y1="109.845405845398" x2="20.1450440203205" y2="109.630865704891"/>
    <line x1="20.4706383094321" y1="34.4960001345098" x2="20.8200440203205" y2="34.45"/>
    <line x1="20.8200440203205" y1="34.45" x2="21.1694497312089" y2="34.4960001345098"/>
    <line x1="21.1694497312089" y1="34.4960001345098" x2="21.4950440203205" y2="34.630865704891"/>
    <line x1="21.4950440203205" y1="34.630865704891" x2="21.7746381749224" y2="34.8454058453982"/>
    <line x1="21.7746381749224" y1="34.8454058453982" x2="21.9891783154295" y2="35.125"/>
    <line x1="21.9891783154295" y1="35.125" x2="22.1240438858107" y2="35.4505942891116"/>
    <line x1="22.1240438858107" y1="35.4505942891116" x2="22.1700440203205" y2="35.8"/>
    <line x1="22.1700440203205" y1="35.8" x2="22.1240438858107" y2="36.1494057108884"/>
    <line x1="22.1240438858107" y1="36.1494057108884" x2="21.9891783154295" y2="36.475"/>
    <line x1="21.9891783154295" y1="36.475" x2="21.7746381749224" y2="36.7545941546018"/>
    <line x1="21.7746381749224" y1="36.7545941546018" x2="21.4950440203205" y2="36.969134295109"/>
    <line x1="21.4950440203205" y1="36.969134295109" x2="21.1694497312089" y2="37.1039998654903"/>
    <line x1="21.1694497312089" y1="37.1039998654903" x2="20.8200440203205" y2="37.15"/>
    <line x1="20.8200440203205" y1="37.15" x2="20.4706383094321" y2="37.1039998654903"/>
    <line x1="20.4706383094321" y1="37.1039998654903" x2="20.1450440203205" y2="36.969134295109"/>
    <line x1="20.1450440203205" y1="36.969134295109" x2="19.8654498657186" y2="36.7545941546018"/>
    <line x1="19.8654498657186" y1="36.7545941546018" x2="19.6509097252115" y2="36.475"/>
    <line x1="19.6509097252115" y1="36.475" x2="19.5160441548302" y2="36.1494057108884"/>
    <line x1="19.5160441548302" y1="36.1494057108884" x2="19.4700440203205" y2="35.8"/>
    <line x1="19.4700440203205" y1="35.8" x2="19.5160441548302" y2="35.4505942891116"/>
    <line x1="19.5160441548302" y1="35.4505942891116" x2="19.6509097252115" y2="35.125"/>
    <line x1="19.6509097252115" y1="35.125" x2="19.8654498657186" y2="34.8454058453982"/>
    <line x1="19.8654498657186" y1="34.8454058453982" x2="20.1450440203205" y2="34.6308657048911"/>
    <line x1="20.1450440203205" y1="34.6308657048911" x2="20.4706383094321" y2="34.4960001345098"/>
  </g>
</svg>
