<?xml version="1.0" standalone="no"?>
<!DOCTYPE svg PUBLIC "-//W3C//DTD SVG 1.1//EN" "http://www.w3.org/Graphics/SVG/1.1/DTD/svg11.dtd">
<svg width="27.9999999999999mm" height="21.9999999999999mm"
 viewBox="0 0 27.9999999999999 21.9999999999999"
 xmlns="http://www.w3.org/2000/svg" version="1.1"
 xmlns:xlink="http://www.w3.org/1999/xlink">
<desc>Output from Flights of Ideas SVG Sketchup Plugin</desc>

  <g id="face0" fill="none" stroke="rgb(0,0,255)" stroke-width="1" stroke-miterlimit="4" stroke-dasharray="none" stroke-linejoin="round" stroke-linecap="round">
    <line x1="16.9999999999999" y1="11.0" x2="1.0" y2="11.0"/>
    <line x1="1.0" y1="11.0" x2="1.0" y2="20.9999999999999"/>
    <line x1="1.0" y1="20.9999999999999" x2="26.9999999999999" y2="20.9999999999999"/>
    <line x1="26.9999999999999" y1="20.9999999999999" x2="26.9999999999999" y2="1.0"/>
    <line x1="26.9999999999999" y1="1.0" x2="16.9999999999999" y2="1.0"/>
    <line x1="16.9999999999999" y1="1.0" x2="16.9999999999999" y2="4.99999999999997"/>
    <line x1="16.9999999999999" y1="4.99999999999997" x2="18.9999999999999" y2="4.99999999999997"/>
    <line x1="18.9999999999999" y1="4.99999999999997" x2="18.9999999999999" y2="3.70000000000002"/>
    <line x1="18.9999999999999" y1="3.70000000000002" x2="21.1999999999999" y2="3.70000000000002"/>
    <line x1="21.1999999999999" y1="3.70000000000002" x2="21.1999999999999" y2="4.99999999999997"/>
    <line x1="21.1999999999999" y1="4.99999999999997" x2="24.1999999999999" y2="4.99999999999997"/>
    <line x1="24.1999999999999" y1="4.99999999999997" x2="24.1999999999999" y2="8.0"/>
    <line x1="24.1999999999999" y1="8.0" x2="21.1999999999999" y2="8.0"/>
    <line x1="21.1999999999999" y1="8.0" x2="21.1999999999999" y2="9.30000000000001"/>
    <line x1="21.1999999999999" y1="9.30000000000001" x2="18.9999999999999" y2="9.30000000000001"/>
    <line x1="18.9999999999999" y1="9.30000000000001" x2="18.9999999999999" y2="8.0"/>
    <line x1="18.9999999999999" y1="8.0" x2="16.9999999999999" y2="8.0"/>
    <line x1="16.9999999999999" y1="8.0" x2="16.9999999999999" y2="11.0"/>
    <line x1="7.11177143234625" y1="16.0511112605664" x2="7.49999999999994" y2="16.0"/>
    <line x1="7.49999999999994" y1="16.0" x2="7.88822856765375" y2="16.0511112605664"/>
    <line x1="7.88822856765375" y1="16.0511112605664" x2="8.24999999999994" y2="16.2009618943234"/>
    <line x1="8.24999999999994" y1="16.2009618943234" x2="8.56066017177977" y2="16.4393398282201"/>
    <line x1="8.56066017177977" y1="16.4393398282201" x2="8.79903810567663" y2="16.75"/>
    <line x1="8.79903810567663" y1="16.75" x2="8.94888873943364" y2="17.1117714323462"/>
    <line x1="8.94888873943364" y1="17.1117714323462" x2="9.0" y2="17.4999999999999"/>
    <line x1="9.0" y1="17.4999999999999" x2="8.94888873943358" y2="17.8882285676538"/>
    <line x1="8.94888873943358" y1="17.8882285676538" x2="8.79903810567663" y2="18.2499999999999"/>
    <line x1="8.79903810567663" y1="18.2499999999999" x2="8.56066017177977" y2="18.5606601717798"/>
    <line x1="8.56066017177977" y1="18.5606601717798" x2="8.24999999999994" y2="18.7990381056766"/>
    <line x1="8.24999999999994" y1="18.7990381056766" x2="7.88822856765375" y2="18.9488887394335"/>
    <line x1="7.88822856765375" y1="18.9488887394335" x2="7.50000000000006" y2="18.9999999999999"/>
    <line x1="7.50000000000006" y1="18.9999999999999" x2="7.11177143234625" y2="18.9488887394335"/>
    <line x1="7.11177143234625" y1="18.9488887394335" x2="6.75000000000006" y2="18.7990381056766"/>
    <line x1="6.75000000000006" y1="18.7990381056766" x2="6.43933982822017" y2="18.5606601717798"/>
    <line x1="6.43933982822017" y1="18.5606601717798" x2="6.20096189432337" y2="18.2499999999999"/>
    <line x1="6.20096189432337" y1="18.2499999999999" x2="6.05111126056636" y2="17.8882285676538"/>
    <line x1="6.05111126056636" y1="17.8882285676538" x2="5.99999999999994" y2="17.4999999999999"/>
    <line x1="5.99999999999994" y1="17.4999999999999" x2="6.05111126056636" y2="17.1117714323462"/>
    <line x1="6.05111126056636" y1="17.1117714323462" x2="6.20096189432326" y2="16.75"/>
    <line x1="6.20096189432326" y1="16.75" x2="6.43933982822017" y2="16.4393398282201"/>
    <line x1="6.43933982822017" y1="16.4393398282201" x2="6.74999999999994" y2="16.2009618943234"/>
    <line x1="6.74999999999994" y1="16.2009618943234" x2="7.11177143234625" y2="16.0511112605664"/>
  </g>
</svg>
