<?xml version="1.0" standalone="no"?>
<!DOCTYPE svg PUBLIC "-//W3C//DTD SVG 1.1//EN" "http://www.w3.org/Graphics/SVG/1.1/DTD/svg11.dtd">
<svg width="31.9999999999999mm" height="27.9999999999999mm"
 viewBox="0 0 31.9999999999999 27.9999999999999"
 xmlns="http://www.w3.org/2000/svg" version="1.1"
 xmlns:xlink="http://www.w3.org/1999/xlink">
<desc>Output from Flights of Ideas SVG Sketchup Plugin</desc>

  <g id="face0" fill="none" stroke="rgb(0,0,255)" stroke-width="1" stroke-miterlimit="4" stroke-dasharray="none" stroke-linejoin="round" stroke-linecap="round">
    <line x1="30.9999999999999" y1="26.9999999999999" x2="30.9999999999998" y2="13.9999999999999"/>
    <line x1="30.9999999999998" y1="13.9999999999999" x2="25.9999999999999" y2="14.0000000000001"/>
    <line x1="25.9999999999999" y1="14.0000000000001" x2="26.0" y2="17.0000000000001"/>
    <line x1="26.0" y1="17.0000000000001" x2="22.4999999999999" y2="17.0"/>
    <line x1="22.4999999999999" y1="17.0" x2="22.4999999999999" y2="19.0"/>
    <line x1="22.4999999999999" y1="19.0" x2="23.8" y2="19.0"/>
    <line x1="23.8" y1="19.0" x2="23.8" y2="21.2"/>
    <line x1="23.8" y1="21.2" x2="22.4999999999999" y2="21.2"/>
    <line x1="22.4999999999999" y1="21.2" x2="22.4999999999999" y2="24.2"/>
    <line x1="22.4999999999999" y1="24.2" x2="19.5" y2="24.2"/>
    <line x1="19.5" y1="24.2" x2="19.5" y2="21.2"/>
    <line x1="19.5" y1="21.2" x2="18.1999999999999" y2="21.2"/>
    <line x1="18.1999999999999" y1="21.2" x2="18.1999999999999" y2="19.0"/>
    <line x1="18.1999999999999" y1="19.0" x2="19.4999999999999" y2="19.0"/>
    <line x1="19.4999999999999" y1="19.0" x2="19.5" y2="17.0"/>
    <line x1="19.5" y1="17.0" x2="10.9999999999999" y2="17.0"/>
    <line x1="10.9999999999999" y1="17.0" x2="10.9999999999999" y2="14.0000000000001"/>
    <line x1="10.9999999999999" y1="14.0000000000001" x2="13.9999999999999" y2="14.0000000000001"/>
    <line x1="13.9999999999999" y1="14.0000000000001" x2="13.9999999999999" y2="7.49999999999997"/>
    <line x1="13.9999999999999" y1="7.49999999999997" x2="13.7785178708789" y2="5.8176762068336"/>
    <line x1="13.7785178708789" y1="5.8176762068336" x2="13.1291651245987" y2="4.25"/>
    <line x1="13.1291651245987" y1="4.25" x2="12.0961940777125" y2="2.90380592228746"/>
    <line x1="12.0961940777125" y1="2.90380592228746" x2="10.7499999999999" y2="1.87083487540119"/>
    <line x1="10.7499999999999" y1="1.87083487540119" x2="9.18232379316635" y2="1.22148212912109"/>
    <line x1="9.18232379316635" y1="1.22148212912109" x2="7.49999999999994" y2="1.0"/>
    <line x1="7.49999999999994" y1="1.0" x2="1.0" y2="1.0"/>
    <line x1="1.0" y1="1.0" x2="1.0" y2="26.9999999999999"/>
    <line x1="1.0" y1="26.9999999999999" x2="30.9999999999999" y2="26.9999999999999"/>
    <line x1="7.11177143234613" y1="6.05111126056639" x2="7.49999999999994" y2="6.00000000000006"/>
    <line x1="7.49999999999994" y1="6.00000000000006" x2="7.88822856765375" y2="6.05111126056639"/>
    <line x1="7.88822856765375" y1="6.05111126056639" x2="8.24999999999994" y2="6.2009618943234"/>
    <line x1="8.24999999999994" y1="6.2009618943234" x2="8.56066017177972" y2="6.43933982822017"/>
    <line x1="8.56066017177972" y1="6.43933982822017" x2="8.79903810567652" y2="6.74999999999997"/>
    <line x1="8.79903810567652" y1="6.74999999999997" x2="8.94888873943353" y2="7.11177143234627"/>
    <line x1="8.94888873943353" y1="7.11177143234627" x2="8.99999999999994" y2="7.49999999999997"/>
    <line x1="8.99999999999994" y1="7.49999999999997" x2="8.94888873943353" y2="7.88822856765375"/>
    <line x1="8.94888873943353" y1="7.88822856765375" x2="8.79903810567652" y2="8.25"/>
    <line x1="8.79903810567652" y1="8.25" x2="8.56066017177972" y2="8.56066017177989"/>
    <line x1="8.56066017177972" y1="8.56066017177989" x2="8.24999999999994" y2="8.79903810567663"/>
    <line x1="8.24999999999994" y1="8.79903810567663" x2="7.88822856765364" y2="8.94888873943358"/>
    <line x1="7.88822856765364" y1="8.94888873943358" x2="7.49999999999994" y2="9.0"/>
    <line x1="7.49999999999994" y1="9.0" x2="7.11177143234613" y2="8.94888873943358"/>
    <line x1="7.11177143234613" y1="8.94888873943358" x2="6.74999999999994" y2="8.79903810567663"/>
    <line x1="6.74999999999994" y1="8.79903810567663" x2="6.43933982822011" y2="8.56066017177989"/>
    <line x1="6.43933982822011" y1="8.56066017177989" x2="6.20096189432326" y2="8.25"/>
    <line x1="6.20096189432326" y1="8.25" x2="6.05111126056636" y2="7.88822856765375"/>
    <line x1="6.05111126056636" y1="7.88822856765375" x2="5.99999999999994" y2="7.49999999999997"/>
    <line x1="5.99999999999994" y1="7.49999999999997" x2="6.05111126056636" y2="7.11177143234627"/>
    <line x1="6.05111126056636" y1="7.11177143234627" x2="6.20096189432326" y2="6.74999999999997"/>
    <line x1="6.20096189432326" y1="6.74999999999997" x2="6.43933982822011" y2="6.43933982822017"/>
    <line x1="6.43933982822011" y1="6.43933982822017" x2="6.74999999999994" y2="6.2009618943234"/>
    <line x1="6.74999999999994" y1="6.2009618943234" x2="7.11177143234613" y2="6.05111126056639"/>
  </g>
</svg>
