<?xml version="1.0" standalone="no"?>
<!DOCTYPE svg PUBLIC "-//W3C//DTD SVG 1.1//EN" "http://www.w3.org/Graphics/SVG/1.1/DTD/svg11.dtd">
<svg width="32.0000000000001mm" height="27.9999999999999mm"
 viewBox="0 0 32.0000000000001 27.9999999999999"
 xmlns="http://www.w3.org/2000/svg" version="1.1"
 xmlns:xlink="http://www.w3.org/1999/xlink">
<desc>Output from Flights of Ideas SVG Sketchup Plugin</desc>

  <g id="face0" fill="none" stroke="rgb(0,0,255)" stroke-width="1" stroke-miterlimit="4" stroke-dasharray="none" stroke-linejoin="round" stroke-linecap="round">
    <line x1="31.0000000000001" y1="16.9999999999999" x2="22.5" y2="16.9999999999999"/>
    <line x1="22.5" y1="16.9999999999999" x2="22.5" y2="18.9999999999999"/>
    <line x1="22.5" y1="18.9999999999999" x2="23.8000000000001" y2="18.9999999999999"/>
    <line x1="23.8000000000001" y1="18.9999999999999" x2="23.8000000000001" y2="21.2"/>
    <line x1="23.8000000000001" y1="21.2" x2="22.5" y2="21.2"/>
    <line x1="22.5" y1="21.2" x2="22.5000000000001" y2="24.1999999999999"/>
    <line x1="22.5000000000001" y1="24.1999999999999" x2="19.5000000000001" y2="24.1999999999999"/>
    <line x1="19.5000000000001" y1="24.1999999999999" x2="19.5000000000001" y2="21.2"/>
    <line x1="19.5000000000001" y1="21.2" x2="18.2000000000001" y2="21.2"/>
    <line x1="18.2000000000001" y1="21.2" x2="18.2000000000001" y2="18.9999999999999"/>
    <line x1="18.2000000000001" y1="18.9999999999999" x2="19.5000000000001" y2="18.9999999999999"/>
    <line x1="19.5000000000001" y1="18.9999999999999" x2="19.5000000000001" y2="16.9999999999999"/>
    <line x1="19.5000000000001" y1="16.9999999999999" x2="11.0000000000001" y2="16.9999999999999"/>
    <line x1="11.0000000000001" y1="16.9999999999999" x2="11.0000000000001" y2="14.0"/>
    <line x1="11.0000000000001" y1="14.0" x2="14.0000000000001" y2="14.0"/>
    <line x1="14.0000000000001" y1="14.0" x2="14.0000000000001" y2="7.49999999999994"/>
    <line x1="14.0000000000001" y1="7.49999999999994" x2="13.7785178708789" y2="5.8176762068336"/>
    <line x1="13.7785178708789" y1="5.8176762068336" x2="13.1291651245988" y2="4.25"/>
    <line x1="13.1291651245988" y1="4.25" x2="12.0961940777126" y2="2.90380592228746"/>
    <line x1="12.0961940777126" y1="2.90380592228746" x2="10.7500000000001" y2="1.87083487540116"/>
    <line x1="10.7500000000001" y1="1.87083487540116" x2="9.18232379316646" y2="1.22148212912106"/>
    <line x1="9.18232379316646" y1="1.22148212912106" x2="7.50000000000006" y2="1.0"/>
    <line x1="7.50000000000006" y1="1.0" x2="1.0" y2="1.0"/>
    <line x1="1.0" y1="1.0" x2="1.00000000000011" y2="26.9999999999999"/>
    <line x1="1.00000000000011" y1="26.9999999999999" x2="31.0000000000001" y2="26.9999999999999"/>
    <line x1="31.0000000000001" y1="26.9999999999999" x2="31.0000000000001" y2="16.9999999999999"/>
    <line x1="7.11177143234625" y1="6.05111126056636" x2="7.50000000000006" y2="6.0"/>
    <line x1="7.50000000000006" y1="6.0" x2="7.88822856765387" y2="6.05111126056636"/>
    <line x1="7.88822856765387" y1="6.05111126056636" x2="8.25" y2="6.20096189432337"/>
    <line x1="8.25" y1="6.20096189432337" x2="8.56066017177989" y2="6.43933982822017"/>
    <line x1="8.56066017177989" y1="6.43933982822017" x2="8.79903810567663" y2="6.74999999999994"/>
    <line x1="8.79903810567663" y1="6.74999999999994" x2="8.9488887394337" y2="7.11177143234625"/>
    <line x1="8.9488887394337" y1="7.11177143234625" x2="9.0" y2="7.49999999999994"/>
    <line x1="9.0" y1="7.49999999999994" x2="8.9488887394337" y2="7.88822856765375"/>
    <line x1="8.9488887394337" y1="7.88822856765375" x2="8.79903810567674" y2="8.24999999999994"/>
    <line x1="8.79903810567674" y1="8.24999999999994" x2="8.56066017177989" y2="8.56066017177983"/>
    <line x1="8.56066017177989" y1="8.56066017177983" x2="8.25000000000006" y2="8.79903810567663"/>
    <line x1="8.25000000000006" y1="8.79903810567663" x2="7.88822856765387" y2="8.94888873943358"/>
    <line x1="7.88822856765387" y1="8.94888873943358" x2="7.50000000000006" y2="9.0"/>
    <line x1="7.50000000000006" y1="9.0" x2="7.11177143234625" y2="8.94888873943358"/>
    <line x1="7.11177143234625" y1="8.94888873943358" x2="6.75000000000006" y2="8.79903810567663"/>
    <line x1="6.75000000000006" y1="8.79903810567663" x2="6.43933982822017" y2="8.56066017177983"/>
    <line x1="6.43933982822017" y1="8.56066017177983" x2="6.20096189432337" y2="8.24999999999994"/>
    <line x1="6.20096189432337" y1="8.24999999999994" x2="6.05111126056647" y2="7.88822856765375"/>
    <line x1="6.05111126056647" y1="7.88822856765375" x2="6.00000000000006" y2="7.49999999999994"/>
    <line x1="6.00000000000006" y1="7.49999999999994" x2="6.05111126056647" y2="7.11177143234625"/>
    <line x1="6.05111126056647" y1="7.11177143234625" x2="6.20096189432337" y2="6.74999999999994"/>
    <line x1="6.20096189432337" y1="6.74999999999994" x2="6.43933982822017" y2="6.43933982822017"/>
    <line x1="6.43933982822017" y1="6.43933982822017" x2="6.75000000000006" y2="6.20096189432337"/>
    <line x1="6.75000000000006" y1="6.20096189432337" x2="7.11177143234625" y2="6.05111126056636"/>
  </g>
</svg>
