<?xml version="1.0" standalone="no"?>
<!DOCTYPE svg PUBLIC "-//W3C//DTD SVG 1.1//EN" "http://www.w3.org/Graphics/SVG/1.1/DTD/svg11.dtd">
<svg width="134.0mm" height="131.0mm"
 viewBox="0 0 134.0 131.0"
 xmlns="http://www.w3.org/2000/svg" version="1.1"
 xmlns:xlink="http://www.w3.org/1999/xlink">
<desc>Output from Flights of Ideas SVG Sketchup Plugin</desc>

  <g id="face0" fill="none" stroke="rgb(0,0,255)" stroke-width="1" stroke-miterlimit="4" stroke-dasharray="none" stroke-linejoin="round" stroke-linecap="round">
    <line x1="123.0" y1="127.0" x2="133.0" y2="127.0"/>
    <line x1="133.0" y1="127.0" x2="133.0" y2="1.0"/>
    <line x1="133.0" y1="1.0" x2="1.0" y2="1.0"/>
    <line x1="1.0" y1="1.0" x2="1.0" y2="127.0"/>
    <line x1="1.0" y1="127.0" x2="11.0000000000001" y2="127.0"/>
    <line x1="11.0000000000001" y1="127.0" x2="11.0000000000001" y2="124.999999999999"/>
    <line x1="11.0000000000001" y1="124.999999999999" x2="9.69999999999999" y2="125.0"/>
    <line x1="9.69999999999999" y1="125.0" x2="9.69999999999999" y2="122.8"/>
    <line x1="9.69999999999999" y1="122.8" x2="10.9000000000001" y2="122.8"/>
    <line x1="10.9000000000001" y1="122.8" x2="10.9000000000001" y2="119.8"/>
    <line x1="10.9000000000001" y1="119.8" x2="13.9" y2="119.8"/>
    <line x1="13.9" y1="119.8" x2="13.9" y2="122.8"/>
    <line x1="13.9" y1="122.8" x2="15.2" y2="122.8"/>
    <line x1="15.2" y1="122.8" x2="15.2" y2="125.0"/>
    <line x1="15.2" y1="125.0" x2="13.9" y2="125.0"/>
    <line x1="13.9" y1="125.0" x2="13.9" y2="127.0"/>
    <line x1="13.9" y1="127.0" x2="18.9" y2="127.0"/>
    <line x1="18.9" y1="127.0" x2="18.9" y2="130.0"/>
    <line x1="18.9" y1="130.0" x2="28.9" y2="130.0"/>
    <line x1="28.9" y1="130.0" x2="28.9" y2="127.0"/>
    <line x1="28.9" y1="127.0" x2="105.1" y2="127.0"/>
    <line x1="105.1" y1="127.0" x2="105.1" y2="130.0"/>
    <line x1="105.1" y1="130.0" x2="115.1" y2="130.0"/>
    <line x1="115.1" y1="130.0" x2="115.1" y2="127.0"/>
    <line x1="115.1" y1="127.0" x2="120.1" y2="127.0"/>
    <line x1="120.1" y1="127.0" x2="120.1" y2="125.0"/>
    <line x1="120.1" y1="125.0" x2="118.8" y2="125.0"/>
    <line x1="118.8" y1="125.0" x2="118.8" y2="122.8"/>
    <line x1="118.8" y1="122.8" x2="120.0" y2="122.8"/>
    <line x1="120.0" y1="122.8" x2="120.0" y2="119.8"/>
    <line x1="120.0" y1="119.8" x2="123.0" y2="119.8"/>
    <line x1="123.0" y1="119.8" x2="123.0" y2="122.8"/>
    <line x1="123.0" y1="122.8" x2="124.3" y2="122.8"/>
    <line x1="124.3" y1="122.8" x2="124.3" y2="125.0"/>
    <line x1="124.3" y1="125.0" x2="123.0" y2="125.0"/>
    <line x1="123.0" y1="125.0" x2="123.0" y2="127.0"/>
    <line x1="4.0" y1="107.0" x2="7.00000000000006" y2="107.0"/>
    <line x1="7.00000000000006" y1="107.0" x2="7.00000000000006" y2="117.0"/>
    <line x1="7.00000000000006" y1="117.0" x2="4.0" y2="117.0"/>
    <line x1="4.0" y1="117.0" x2="4.0" y2="107.0"/>
    <line x1="7.00000000000006" y1="19.0" x2="7.00000000000006" y2="39.0"/>
    <line x1="7.00000000000006" y1="39.0" x2="4.0" y2="39.0"/>
    <line x1="4.0" y1="39.0" x2="4.0" y2="19.0"/>
    <line x1="4.0" y1="19.0" x2="7.00000000000006" y2="19.0"/>
    <line x1="127.0" y1="117.0" x2="127.0" y2="107.0"/>
    <line x1="127.0" y1="107.0" x2="130.0" y2="107.0"/>
    <line x1="130.0" y1="107.0" x2="130.0" y2="117.0"/>
    <line x1="130.0" y1="117.0" x2="127.0" y2="117.0"/>
    <line x1="130.0" y1="18.9" x2="130.0" y2="38.9"/>
    <line x1="130.0" y1="38.9" x2="127.0" y2="38.9"/>
    <line x1="127.0" y1="38.9" x2="127.0" y2="18.9"/>
    <line x1="127.0" y1="18.9" x2="130.0" y2="18.9"/>
    <line x1="128.5" y1="101.1" x2="128.888228567654" y2="101.151111260566"/>
    <line x1="128.888228567654" y1="101.151111260566" x2="129.25" y2="101.300961894323"/>
    <line x1="129.25" y1="101.300961894323" x2="129.56066017178" y2="101.53933982822"/>
    <line x1="129.56066017178" y1="101.53933982822" x2="129.799038105677" y2="101.85"/>
    <line x1="129.799038105677" y1="101.85" x2="129.948888739434" y2="102.211771432346"/>
    <line x1="129.948888739434" y1="102.211771432346" x2="130.0" y2="102.6"/>
    <line x1="130.0" y1="102.6" x2="129.948888739434" y2="102.988228567654"/>
    <line x1="129.948888739434" y1="102.988228567654" x2="129.799038105677" y2="103.35"/>
    <line x1="129.799038105677" y1="103.35" x2="129.56066017178" y2="103.66066017178"/>
    <line x1="129.56066017178" y1="103.66066017178" x2="129.25" y2="103.899038105677"/>
    <line x1="129.25" y1="103.899038105677" x2="128.888228567654" y2="104.048888739434"/>
    <line x1="128.888228567654" y1="104.048888739434" x2="128.5" y2="104.1"/>
    <line x1="128.5" y1="104.1" x2="128.111771432346" y2="104.048888739434"/>
    <line x1="128.111771432346" y1="104.048888739434" x2="127.75" y2="103.899038105677"/>
    <line x1="127.75" y1="103.899038105677" x2="127.43933982822" y2="103.66066017178"/>
    <line x1="127.43933982822" y1="103.66066017178" x2="127.200961894323" y2="103.35"/>
    <line x1="127.200961894323" y1="103.35" x2="127.051111260566" y2="102.988228567654"/>
    <line x1="127.051111260566" y1="102.988228567654" x2="127.0" y2="102.6"/>
    <line x1="127.0" y1="102.6" x2="127.051111260566" y2="102.211771432346"/>
    <line x1="127.051111260566" y1="102.211771432346" x2="127.200961894323" y2="101.85"/>
    <line x1="127.200961894323" y1="101.85" x2="127.43933982822" y2="101.53933982822"/>
    <line x1="127.43933982822" y1="101.53933982822" x2="127.75" y2="101.300961894323"/>
    <line x1="127.75" y1="101.300961894323" x2="128.111771432346" y2="101.151111260566"/>
    <line x1="128.111771432346" y1="101.151111260566" x2="128.5" y2="101.1"/>
    <line x1="128.5" y1="11.0" x2="128.888228567654" y2="11.0511112605664"/>
    <line x1="128.888228567654" y1="11.0511112605664" x2="129.25" y2="11.2009618943233"/>
    <line x1="129.25" y1="11.2009618943233" x2="129.56066017178" y2="11.4393398282202"/>
    <line x1="129.56066017178" y1="11.4393398282202" x2="129.799038105677" y2="11.75"/>
    <line x1="129.799038105677" y1="11.75" x2="129.948888739434" y2="12.1117714323462"/>
    <line x1="129.948888739434" y1="12.1117714323462" x2="130.0" y2="12.5"/>
    <line x1="130.0" y1="12.5" x2="129.948888739434" y2="12.8882285676538"/>
    <line x1="129.948888739434" y1="12.8882285676538" x2="129.799038105677" y2="13.25"/>
    <line x1="129.799038105677" y1="13.25" x2="129.56066017178" y2="13.5606601717798"/>
    <line x1="129.56066017178" y1="13.5606601717798" x2="129.25" y2="13.7990381056767"/>
    <line x1="129.25" y1="13.7990381056767" x2="128.888228567654" y2="13.9488887394336"/>
    <line x1="128.888228567654" y1="13.9488887394336" x2="128.5" y2="14.0"/>
    <line x1="128.5" y1="14.0" x2="128.111771432346" y2="13.9488887394336"/>
    <line x1="128.111771432346" y1="13.9488887394336" x2="127.75" y2="13.7990381056767"/>
    <line x1="127.75" y1="13.7990381056767" x2="127.43933982822" y2="13.5606601717798"/>
    <line x1="127.43933982822" y1="13.5606601717798" x2="127.200961894323" y2="13.25"/>
    <line x1="127.200961894323" y1="13.25" x2="127.051111260566" y2="12.8882285676538"/>
    <line x1="127.051111260566" y1="12.8882285676538" x2="127.0" y2="12.5"/>
    <line x1="127.0" y1="12.5" x2="127.051111260566" y2="12.1117714323462"/>
    <line x1="127.051111260566" y1="12.1117714323462" x2="127.200961894323" y2="11.75"/>
    <line x1="127.200961894323" y1="11.75" x2="127.43933982822" y2="11.4393398282202"/>
    <line x1="127.43933982822" y1="11.4393398282202" x2="127.75" y2="11.2009618943233"/>
    <line x1="127.75" y1="11.2009618943233" x2="128.111771432346" y2="11.0511112605664"/>
    <line x1="128.111771432346" y1="11.0511112605664" x2="128.5" y2="11.0"/>
    <line x1="5.50000000000006" y1="99.0" x2="5.88822856765375" y2="99.0511112605664"/>
    <line x1="5.88822856765375" y1="99.0511112605664" x2="6.25000000000006" y2="99.2009618943233"/>
    <line x1="6.25000000000006" y1="99.2009618943233" x2="6.56066017177983" y2="99.43933982822"/>
    <line x1="6.56066017177983" y1="99.43933982822" x2="6.79903810567663" y2="99.75"/>
    <line x1="6.79903810567663" y1="99.75" x2="6.94888873943364" y2="100.111771432346"/>
    <line x1="6.94888873943364" y1="100.111771432346" x2="7.00000000000006" y2="100.5"/>
    <line x1="7.00000000000006" y1="100.5" x2="6.94888873943364" y2="100.888228567654"/>
    <line x1="6.94888873943364" y1="100.888228567654" x2="6.79903810567663" y2="101.25"/>
    <line x1="6.79903810567663" y1="101.25" x2="6.56066017177983" y2="101.56066017178"/>
    <line x1="6.56066017177983" y1="101.56066017178" x2="6.25000000000006" y2="101.799038105677"/>
    <line x1="6.25000000000006" y1="101.799038105677" x2="5.88822856765375" y2="101.948888739434"/>
    <line x1="5.88822856765375" y1="101.948888739434" x2="5.50000000000006" y2="102.0"/>
    <line x1="5.50000000000006" y1="102.0" x2="5.11177143234625" y2="101.948888739434"/>
    <line x1="5.11177143234625" y1="101.948888739434" x2="4.75000000000006" y2="101.799038105677"/>
    <line x1="4.75000000000006" y1="101.799038105677" x2="4.43933982822023" y2="101.56066017178"/>
    <line x1="4.43933982822023" y1="101.56066017178" x2="4.20096189432337" y2="101.25"/>
    <line x1="4.20096189432337" y1="101.25" x2="4.05111126056642" y2="100.888228567654"/>
    <line x1="4.05111126056642" y1="100.888228567654" x2="4.0" y2="100.5"/>
    <line x1="4.0" y1="100.5" x2="4.05111126056642" y2="100.111771432346"/>
    <line x1="4.05111126056642" y1="100.111771432346" x2="4.20096189432337" y2="99.75"/>
    <line x1="4.20096189432337" y1="99.75" x2="4.43933982822023" y2="99.4393398282201"/>
    <line x1="4.43933982822023" y1="99.4393398282201" x2="4.75000000000006" y2="99.2009618943233"/>
    <line x1="4.75000000000006" y1="99.2009618943233" x2="5.11177143234625" y2="99.0511112605664"/>
    <line x1="5.11177143234625" y1="99.0511112605664" x2="5.50000000000006" y2="99.0"/>
    <line x1="5.50000000000006" y1="11.0" x2="5.88822856765375" y2="11.0511112605664"/>
    <line x1="5.88822856765375" y1="11.0511112605664" x2="6.25000000000006" y2="11.2009618943234"/>
    <line x1="6.25000000000006" y1="11.2009618943234" x2="6.56066017177983" y2="11.4393398282202"/>
    <line x1="6.56066017177983" y1="11.4393398282202" x2="6.79903810567663" y2="11.75"/>
    <line x1="6.79903810567663" y1="11.75" x2="6.94888873943364" y2="12.1117714323462"/>
    <line x1="6.94888873943364" y1="12.1117714323462" x2="7.00000000000006" y2="12.5"/>
    <line x1="7.00000000000006" y1="12.5" x2="6.94888873943353" y2="12.8882285676538"/>
    <line x1="6.94888873943353" y1="12.8882285676538" x2="6.79903810567663" y2="13.25"/>
    <line x1="6.79903810567663" y1="13.25" x2="6.56066017177983" y2="13.5606601717798"/>
    <line x1="6.56066017177983" y1="13.5606601717798" x2="6.24999999999994" y2="13.7990381056767"/>
    <line x1="6.24999999999994" y1="13.7990381056767" x2="5.88822856765375" y2="13.9488887394336"/>
    <line x1="5.88822856765375" y1="13.9488887394336" x2="5.50000000000006" y2="14.0"/>
    <line x1="5.50000000000006" y1="14.0" x2="5.11177143234625" y2="13.9488887394336"/>
    <line x1="5.11177143234625" y1="13.9488887394336" x2="4.75000000000006" y2="13.7990381056767"/>
    <line x1="4.75000000000006" y1="13.7990381056767" x2="4.43933982822023" y2="13.5606601717798"/>
    <line x1="4.43933982822023" y1="13.5606601717798" x2="4.20096189432337" y2="13.25"/>
    <line x1="4.20096189432337" y1="13.25" x2="4.05111126056642" y2="12.8882285676538"/>
    <line x1="4.05111126056642" y1="12.8882285676538" x2="4.0" y2="12.5"/>
    <line x1="4.0" y1="12.5" x2="4.05111126056642" y2="12.1117714323462"/>
    <line x1="4.05111126056642" y1="12.1117714323462" x2="4.20096189432337" y2="11.7499999999999"/>
    <line x1="4.20096189432337" y1="11.7499999999999" x2="4.43933982822017" y2="11.4393398282202"/>
    <line x1="4.43933982822017" y1="11.4393398282202" x2="4.75000000000006" y2="11.2009618943233"/>
    <line x1="4.75000000000006" y1="11.2009618943233" x2="5.11177143234625" y2="11.0511112605664"/>
    <line x1="5.11177143234625" y1="11.0511112605664" x2="5.50000000000006" y2="11.0"/>
    <line x1="102.0" y1="62.0" x2="102.0" y2="59.0"/>
    <line x1="102.0" y1="59.0" x2="122.0" y2="59.0"/>
    <line x1="122.0" y1="59.0" x2="122.0" y2="62.0"/>
    <line x1="122.0" y1="62.0" x2="102.0" y2="62.0"/>
    <line x1="31.9999999999999" y1="59.0" x2="31.9999999999999" y2="62.0"/>
    <line x1="31.9999999999999" y1="62.0" x2="12.0" y2="62.0"/>
    <line x1="12.0" y1="62.0" x2="12.0" y2="59.0"/>
    <line x1="12.0" y1="59.0" x2="31.9999999999999" y2="59.0"/>
    <line x1="68.4488887394336" y1="60.1117714323462" x2="68.4999999999999" y2="60.5"/>
    <line x1="68.4999999999999" y1="60.5" x2="68.4488887394336" y2="60.8882285676538"/>
    <line x1="68.4488887394336" y1="60.8882285676538" x2="68.2990381056766" y2="61.25"/>
    <line x1="68.2990381056766" y1="61.25" x2="68.0606601717798" y2="61.5606601717798"/>
    <line x1="68.0606601717798" y1="61.5606601717798" x2="67.7499999999999" y2="61.7990381056767"/>
    <line x1="67.7499999999999" y1="61.7990381056767" x2="67.3882285676539" y2="61.9488887394336"/>
    <line x1="67.3882285676539" y1="61.9488887394336" x2="67.0000000000001" y2="62.0"/>
    <line x1="67.0000000000001" y1="62.0" x2="66.6117714323462" y2="61.9488887394336"/>
    <line x1="66.6117714323462" y1="61.9488887394336" x2="66.2500000000001" y2="61.7990381056767"/>
    <line x1="66.2500000000001" y1="61.7990381056767" x2="65.9393398282202" y2="61.5606601717798"/>
    <line x1="65.9393398282202" y1="61.5606601717798" x2="65.7009618943234" y2="61.25"/>
    <line x1="65.7009618943234" y1="61.25" x2="65.5511112605664" y2="60.8882285676538"/>
    <line x1="65.5511112605664" y1="60.8882285676538" x2="65.5" y2="60.5"/>
    <line x1="65.5" y1="60.5" x2="65.5511112605664" y2="60.1117714323462"/>
    <line x1="65.5511112605664" y1="60.1117714323462" x2="65.7009618943234" y2="59.75"/>
    <line x1="65.7009618943234" y1="59.75" x2="65.9393398282202" y2="59.4393398282202"/>
    <line x1="65.9393398282202" y1="59.4393398282202" x2="66.2500000000001" y2="59.2009618943233"/>
    <line x1="66.2500000000001" y1="59.2009618943233" x2="66.6117714323462" y2="59.0511112605664"/>
    <line x1="66.6117714323462" y1="59.0511112605664" x2="67.0000000000001" y2="59.0"/>
    <line x1="67.0000000000001" y1="59.0" x2="67.3882285676539" y2="59.0511112605664"/>
    <line x1="67.3882285676539" y1="59.0511112605664" x2="67.7499999999999" y2="59.2009618943233"/>
    <line x1="67.7499999999999" y1="59.2009618943233" x2="68.0606601717798" y2="59.4393398282202"/>
    <line x1="68.0606601717798" y1="59.4393398282202" x2="68.2990381056767" y2="59.75"/>
    <line x1="68.2990381056767" y1="59.75" x2="68.4488887394336" y2="60.1117714323462"/>
    <line x1="46.0000000000004" y1="19.1000000000001" x2="46.0000000000004" y2="37.9000000000001"/>
    <line x1="46.0000000000004" y1="37.9000000000001" x2="33.0000000000004" y2="37.9000000000001"/>
    <line x1="33.0000000000004" y1="37.9000000000001" x2="33.0000000000004" y2="19.1000000000001"/>
    <line x1="33.0000000000004" y1="19.1000000000001" x2="46.0000000000004" y2="19.1000000000001"/>
  </g>
</svg>
