<?xml version="1.0" standalone="no"?>
<!DOCTYPE svg PUBLIC "-//W3C//DTD SVG 1.1//EN" "http://www.w3.org/Graphics/SVG/1.1/DTD/svg11.dtd">
<svg width="134.0mm" height="164.0mm"
 viewBox="0 0 134.0 164.0"
 xmlns="http://www.w3.org/2000/svg" version="1.1"
 xmlns:xlink="http://www.w3.org/1999/xlink">
<desc>Output from Flights of Ideas SVG Sketchup Plugin</desc>

  <g id="face0" fill="none" stroke="rgb(0,0,255)" stroke-width="1" stroke-miterlimit="4" stroke-dasharray="none" stroke-linejoin="round" stroke-linecap="round">
    <line x1="123.0" y1="160.0" x2="133.0" y2="160.0"/>
    <line x1="133.0" y1="160.0" x2="133.0" y2="3.99999999999997"/>
    <line x1="133.0" y1="3.99999999999997" x2="123.0" y2="3.99999999999997"/>
    <line x1="123.0" y1="3.99999999999997" x2="123.0" y2="5.99999999999996"/>
    <line x1="123.0" y1="5.99999999999996" x2="124.3" y2="5.99999999999996"/>
    <line x1="124.3" y1="5.99999999999996" x2="124.3" y2="8.20000000000001"/>
    <line x1="124.3" y1="8.20000000000001" x2="123.0" y2="8.20000000000001"/>
    <line x1="123.0" y1="8.20000000000001" x2="123.0" y2="11.2"/>
    <line x1="123.0" y1="11.2" x2="120.0" y2="11.2"/>
    <line x1="120.0" y1="11.2" x2="120.0" y2="8.19999999999999"/>
    <line x1="120.0" y1="8.19999999999999" x2="118.7" y2="8.19999999999999"/>
    <line x1="118.7" y1="8.19999999999999" x2="118.7" y2="6.00000000000006"/>
    <line x1="118.7" y1="6.00000000000006" x2="120.0" y2="6.00000000000004"/>
    <line x1="120.0" y1="6.00000000000004" x2="120.0" y2="3.99999999999997"/>
    <line x1="120.0" y1="3.99999999999997" x2="110.0" y2="3.99999999999995"/>
    <line x1="110.0" y1="3.99999999999995" x2="110.0" y2="1.00000000000002"/>
    <line x1="110.0" y1="1.00000000000002" x2="90.0000000000001" y2="1.0"/>
    <line x1="90.0000000000001" y1="1.0" x2="90.0000000000001" y2="3.99999999999997"/>
    <line x1="90.0000000000001" y1="3.99999999999997" x2="44.0" y2="3.99999999999997"/>
    <line x1="44.0" y1="3.99999999999997" x2="44.0000000000001" y2="1.0"/>
    <line x1="44.0000000000001" y1="1.0" x2="24.0000000000001" y2="1.0"/>
    <line x1="24.0000000000001" y1="1.0" x2="24.0" y2="3.99999999999997"/>
    <line x1="24.0" y1="3.99999999999997" x2="14.0000000000001" y2="3.99999999999995"/>
    <line x1="14.0000000000001" y1="3.99999999999995" x2="14.0000000000001" y2="5.99999999999996"/>
    <line x1="14.0000000000001" y1="5.99999999999996" x2="15.3000000000001" y2="5.99999999999994"/>
    <line x1="15.3000000000001" y1="5.99999999999994" x2="15.3000000000001" y2="8.19999999999999"/>
    <line x1="15.3000000000001" y1="8.19999999999999" x2="14.0000000000001" y2="8.19999999999994"/>
    <line x1="14.0000000000001" y1="8.19999999999994" x2="14.0000000000001" y2="11.2"/>
    <line x1="14.0000000000001" y1="11.2" x2="11.0000000000001" y2="11.1999999999999"/>
    <line x1="11.0000000000001" y1="11.1999999999999" x2="11.0000000000001" y2="8.20000000000001"/>
    <line x1="11.0000000000001" y1="8.20000000000001" x2="9.70000000000005" y2="8.20000000000001"/>
    <line x1="9.70000000000005" y1="8.20000000000001" x2="9.70000000000005" y2="6.00000000000004"/>
    <line x1="9.70000000000005" y1="6.00000000000004" x2="11.0000000000001" y2="6.00000000000006"/>
    <line x1="11.0000000000001" y1="6.00000000000006" x2="11.0000000000001" y2="3.99999999999995"/>
    <line x1="11.0000000000001" y1="3.99999999999995" x2="1.0" y2="3.99999999999995"/>
    <line x1="1.0" y1="3.99999999999995" x2="1.0" y2="160.0"/>
    <line x1="1.0" y1="160.0" x2="11.0000000000001" y2="160.0"/>
    <line x1="11.0000000000001" y1="160.0" x2="11.0000000000001" y2="157.999999999999"/>
    <line x1="11.0000000000001" y1="157.999999999999" x2="9.70000000000005" y2="158.0"/>
    <line x1="9.70000000000005" y1="158.0" x2="9.70000000000005" y2="155.8"/>
    <line x1="9.70000000000005" y1="155.8" x2="10.9000000000001" y2="155.8"/>
    <line x1="10.9000000000001" y1="155.8" x2="10.9000000000001" y2="152.8"/>
    <line x1="10.9000000000001" y1="152.8" x2="13.9" y2="152.8"/>
    <line x1="13.9" y1="152.8" x2="13.9" y2="155.8"/>
    <line x1="13.9" y1="155.8" x2="15.2" y2="155.8"/>
    <line x1="15.2" y1="155.8" x2="15.2" y2="158.0"/>
    <line x1="15.2" y1="158.0" x2="13.9" y2="158.0"/>
    <line x1="13.9" y1="158.0" x2="13.9" y2="160.0"/>
    <line x1="13.9" y1="160.0" x2="18.9000000000001" y2="160.0"/>
    <line x1="18.9000000000001" y1="160.0" x2="18.9000000000001" y2="163.0"/>
    <line x1="18.9000000000001" y1="163.0" x2="28.9000000000001" y2="163.0"/>
    <line x1="28.9000000000001" y1="163.0" x2="28.9000000000001" y2="160.0"/>
    <line x1="28.9000000000001" y1="160.0" x2="105.1" y2="160.0"/>
    <line x1="105.1" y1="160.0" x2="105.1" y2="163.0"/>
    <line x1="105.1" y1="163.0" x2="115.1" y2="163.0"/>
    <line x1="115.1" y1="163.0" x2="115.1" y2="160.0"/>
    <line x1="115.1" y1="160.0" x2="120.1" y2="160.0"/>
    <line x1="120.1" y1="160.0" x2="120.1" y2="158.0"/>
    <line x1="120.1" y1="158.0" x2="118.8" y2="158.0"/>
    <line x1="118.8" y1="158.0" x2="118.8" y2="155.8"/>
    <line x1="118.8" y1="155.8" x2="120.0" y2="155.8"/>
    <line x1="120.0" y1="155.8" x2="120.0" y2="152.8"/>
    <line x1="120.0" y1="152.8" x2="123.0" y2="152.8"/>
    <line x1="123.0" y1="152.8" x2="123.0" y2="155.8"/>
    <line x1="123.0" y1="155.8" x2="124.3" y2="155.8"/>
    <line x1="124.3" y1="155.8" x2="124.3" y2="158.0"/>
    <line x1="124.3" y1="158.0" x2="123.0" y2="158.0"/>
    <line x1="123.0" y1="158.0" x2="123.0" y2="160.0"/>
    <line x1="4.00000000000006" y1="140.0" x2="7.00000000000011" y2="140.0"/>
    <line x1="7.00000000000011" y1="140.0" x2="7.00000000000011" y2="150.0"/>
    <line x1="7.00000000000011" y1="150.0" x2="4.00000000000006" y2="150.0"/>
    <line x1="4.00000000000006" y1="150.0" x2="4.00000000000006" y2="140.0"/>
    <line x1="7.00000000000011" y1="52.0" x2="7.00000000000011" y2="72.0"/>
    <line x1="7.00000000000011" y1="72.0" x2="4.00000000000006" y2="72.0"/>
    <line x1="4.00000000000006" y1="72.0" x2="4.00000000000006" y2="52.0"/>
    <line x1="4.00000000000006" y1="52.0" x2="7.00000000000011" y2="52.0"/>
    <line x1="127.0" y1="150.0" x2="127.0" y2="140.0"/>
    <line x1="127.0" y1="140.0" x2="130.0" y2="140.0"/>
    <line x1="130.0" y1="140.0" x2="130.0" y2="150.0"/>
    <line x1="130.0" y1="150.0" x2="127.0" y2="150.0"/>
    <line x1="130.0" y1="51.9" x2="130.0" y2="71.9000000000001"/>
    <line x1="130.0" y1="71.9000000000001" x2="127.0" y2="71.9000000000001"/>
    <line x1="127.0" y1="71.9000000000001" x2="127.0" y2="51.9"/>
    <line x1="127.0" y1="51.9" x2="130.0" y2="51.9"/>
    <line x1="128.5" y1="134.1" x2="128.888228567654" y2="134.151111260566"/>
    <line x1="128.888228567654" y1="134.151111260566" x2="129.25" y2="134.300961894323"/>
    <line x1="129.25" y1="134.300961894323" x2="129.56066017178" y2="134.53933982822"/>
    <line x1="129.56066017178" y1="134.53933982822" x2="129.799038105677" y2="134.85"/>
    <line x1="129.799038105677" y1="134.85" x2="129.948888739434" y2="135.211771432346"/>
    <line x1="129.948888739434" y1="135.211771432346" x2="130.0" y2="135.6"/>
    <line x1="130.0" y1="135.6" x2="129.948888739434" y2="135.988228567654"/>
    <line x1="129.948888739434" y1="135.988228567654" x2="129.799038105677" y2="136.35"/>
    <line x1="129.799038105677" y1="136.35" x2="129.56066017178" y2="136.66066017178"/>
    <line x1="129.56066017178" y1="136.66066017178" x2="129.25" y2="136.899038105677"/>
    <line x1="129.25" y1="136.899038105677" x2="128.888228567654" y2="137.048888739434"/>
    <line x1="128.888228567654" y1="137.048888739434" x2="128.5" y2="137.1"/>
    <line x1="128.5" y1="137.1" x2="128.111771432346" y2="137.048888739434"/>
    <line x1="128.111771432346" y1="137.048888739434" x2="127.75" y2="136.899038105677"/>
    <line x1="127.75" y1="136.899038105677" x2="127.43933982822" y2="136.66066017178"/>
    <line x1="127.43933982822" y1="136.66066017178" x2="127.200961894323" y2="136.35"/>
    <line x1="127.200961894323" y1="136.35" x2="127.051111260566" y2="135.988228567654"/>
    <line x1="127.051111260566" y1="135.988228567654" x2="127.0" y2="135.6"/>
    <line x1="127.0" y1="135.6" x2="127.051111260566" y2="135.211771432346"/>
    <line x1="127.051111260566" y1="135.211771432346" x2="127.200961894323" y2="134.85"/>
    <line x1="127.200961894323" y1="134.85" x2="127.43933982822" y2="134.53933982822"/>
    <line x1="127.43933982822" y1="134.53933982822" x2="127.75" y2="134.300961894323"/>
    <line x1="127.75" y1="134.300961894323" x2="128.111771432346" y2="134.151111260566"/>
    <line x1="128.111771432346" y1="134.151111260566" x2="128.5" y2="134.1"/>
    <line x1="128.5" y1="44.0" x2="128.888228567654" y2="44.0511112605664"/>
    <line x1="128.888228567654" y1="44.0511112605664" x2="129.25" y2="44.2009618943233"/>
    <line x1="129.25" y1="44.2009618943233" x2="129.56066017178" y2="44.4393398282202"/>
    <line x1="129.56066017178" y1="44.4393398282202" x2="129.799038105677" y2="44.75"/>
    <line x1="129.799038105677" y1="44.75" x2="129.948888739434" y2="45.1117714323462"/>
    <line x1="129.948888739434" y1="45.1117714323462" x2="130.0" y2="45.5"/>
    <line x1="130.0" y1="45.5" x2="129.948888739434" y2="45.8882285676538"/>
    <line x1="129.948888739434" y1="45.8882285676538" x2="129.799038105677" y2="46.25"/>
    <line x1="129.799038105677" y1="46.25" x2="129.56066017178" y2="46.5606601717798"/>
    <line x1="129.56066017178" y1="46.5606601717798" x2="129.25" y2="46.7990381056767"/>
    <line x1="129.25" y1="46.7990381056767" x2="128.888228567654" y2="46.9488887394336"/>
    <line x1="128.888228567654" y1="46.9488887394336" x2="128.5" y2="47.0"/>
    <line x1="128.5" y1="47.0" x2="128.111771432346" y2="46.9488887394336"/>
    <line x1="128.111771432346" y1="46.9488887394336" x2="127.75" y2="46.7990381056767"/>
    <line x1="127.75" y1="46.7990381056767" x2="127.43933982822" y2="46.5606601717798"/>
    <line x1="127.43933982822" y1="46.5606601717798" x2="127.200961894323" y2="46.25"/>
    <line x1="127.200961894323" y1="46.25" x2="127.051111260566" y2="45.8882285676538"/>
    <line x1="127.051111260566" y1="45.8882285676538" x2="127.0" y2="45.5"/>
    <line x1="127.0" y1="45.5" x2="127.051111260566" y2="45.1117714323462"/>
    <line x1="127.051111260566" y1="45.1117714323462" x2="127.200961894323" y2="44.75"/>
    <line x1="127.200961894323" y1="44.75" x2="127.43933982822" y2="44.4393398282202"/>
    <line x1="127.43933982822" y1="44.4393398282202" x2="127.75" y2="44.2009618943233"/>
    <line x1="127.75" y1="44.2009618943233" x2="128.111771432346" y2="44.0511112605664"/>
    <line x1="128.111771432346" y1="44.0511112605664" x2="128.5" y2="44.0"/>
    <line x1="5.50000000000006" y1="132.0" x2="5.88822856765381" y2="132.051111260566"/>
    <line x1="5.88822856765381" y1="132.051111260566" x2="6.25000000000011" y2="132.200961894323"/>
    <line x1="6.25000000000011" y1="132.200961894323" x2="6.56066017177989" y2="132.43933982822"/>
    <line x1="6.56066017177989" y1="132.43933982822" x2="6.79903810567669" y2="132.75"/>
    <line x1="6.79903810567669" y1="132.75" x2="6.9488887394337" y2="133.111771432346"/>
    <line x1="6.9488887394337" y1="133.111771432346" x2="7.00000000000011" y2="133.5"/>
    <line x1="7.00000000000011" y1="133.5" x2="6.9488887394337" y2="133.888228567654"/>
    <line x1="6.9488887394337" y1="133.888228567654" x2="6.79903810567669" y2="134.25"/>
    <line x1="6.79903810567669" y1="134.25" x2="6.56066017177989" y2="134.56066017178"/>
    <line x1="6.56066017177989" y1="134.56066017178" x2="6.25000000000011" y2="134.799038105677"/>
    <line x1="6.25000000000011" y1="134.799038105677" x2="5.88822856765381" y2="134.948888739434"/>
    <line x1="5.88822856765381" y1="134.948888739434" x2="5.50000000000006" y2="135.0"/>
    <line x1="5.50000000000006" y1="135.0" x2="5.1117714323463" y2="134.948888739434"/>
    <line x1="5.1117714323463" y1="134.948888739434" x2="4.75000000000006" y2="134.799038105677"/>
    <line x1="4.75000000000006" y1="134.799038105677" x2="4.43933982822028" y2="134.56066017178"/>
    <line x1="4.43933982822028" y1="134.56066017178" x2="4.20096189432343" y2="134.25"/>
    <line x1="4.20096189432343" y1="134.25" x2="4.05111126056647" y2="133.888228567654"/>
    <line x1="4.05111126056647" y1="133.888228567654" x2="4.00000000000006" y2="133.5"/>
    <line x1="4.00000000000006" y1="133.5" x2="4.05111126056647" y2="133.111771432346"/>
    <line x1="4.05111126056647" y1="133.111771432346" x2="4.20096189432343" y2="132.75"/>
    <line x1="4.20096189432343" y1="132.75" x2="4.43933982822028" y2="132.43933982822"/>
    <line x1="4.43933982822028" y1="132.43933982822" x2="4.75000000000006" y2="132.200961894323"/>
    <line x1="4.75000000000006" y1="132.200961894323" x2="5.1117714323463" y2="132.051111260566"/>
    <line x1="5.1117714323463" y1="132.051111260566" x2="5.50000000000006" y2="132.0"/>
    <line x1="5.50000000000006" y1="44.0" x2="5.88822856765381" y2="44.0511112605664"/>
    <line x1="5.88822856765381" y1="44.0511112605664" x2="6.25000000000011" y2="44.2009618943234"/>
    <line x1="6.25000000000011" y1="44.2009618943234" x2="6.56066017177989" y2="44.4393398282202"/>
    <line x1="6.56066017177989" y1="44.4393398282202" x2="6.79903810567669" y2="44.75"/>
    <line x1="6.79903810567669" y1="44.75" x2="6.9488887394337" y2="45.1117714323462"/>
    <line x1="6.9488887394337" y1="45.1117714323462" x2="7.00000000000011" y2="45.5"/>
    <line x1="7.00000000000011" y1="45.5" x2="6.94888873943358" y2="45.8882285676538"/>
    <line x1="6.94888873943358" y1="45.8882285676538" x2="6.79903810567669" y2="46.25"/>
    <line x1="6.79903810567669" y1="46.25" x2="6.56066017177989" y2="46.5606601717798"/>
    <line x1="6.56066017177989" y1="46.5606601717798" x2="6.25" y2="46.7990381056767"/>
    <line x1="6.25" y1="46.7990381056767" x2="5.88822856765381" y2="46.9488887394336"/>
    <line x1="5.88822856765381" y1="46.9488887394336" x2="5.50000000000006" y2="47.0"/>
    <line x1="5.50000000000006" y1="47.0" x2="5.1117714323463" y2="46.9488887394336"/>
    <line x1="5.1117714323463" y1="46.9488887394336" x2="4.75000000000006" y2="46.7990381056767"/>
    <line x1="4.75000000000006" y1="46.7990381056767" x2="4.43933982822028" y2="46.5606601717798"/>
    <line x1="4.43933982822028" y1="46.5606601717798" x2="4.20096189432343" y2="46.25"/>
    <line x1="4.20096189432343" y1="46.25" x2="4.05111126056647" y2="45.8882285676538"/>
    <line x1="4.05111126056647" y1="45.8882285676538" x2="4.00000000000006" y2="45.5"/>
    <line x1="4.00000000000006" y1="45.5" x2="4.05111126056647" y2="45.1117714323462"/>
    <line x1="4.05111126056647" y1="45.1117714323462" x2="4.20096189432343" y2="44.75"/>
    <line x1="4.20096189432343" y1="44.75" x2="4.43933982822017" y2="44.4393398282202"/>
    <line x1="4.43933982822017" y1="44.4393398282202" x2="4.75000000000006" y2="44.2009618943233"/>
    <line x1="4.75000000000006" y1="44.2009618943233" x2="5.1117714323463" y2="44.0511112605664"/>
    <line x1="5.1117714323463" y1="44.0511112605664" x2="5.50000000000006" y2="44.0"/>
    <line x1="102.0" y1="95.0" x2="102.0" y2="92.0"/>
    <line x1="102.0" y1="92.0" x2="122.0" y2="92.0"/>
    <line x1="122.0" y1="92.0" x2="122.0" y2="95.0"/>
    <line x1="122.0" y1="95.0" x2="102.0" y2="95.0"/>
    <line x1="32.0" y1="92.0" x2="32.0" y2="95.0"/>
    <line x1="32.0" y1="95.0" x2="12.0000000000001" y2="95.0000000000001"/>
    <line x1="12.0000000000001" y1="95.0000000000001" x2="12.0000000000001" y2="92.0"/>
    <line x1="12.0000000000001" y1="92.0" x2="32.0" y2="92.0"/>
    <line x1="68.4488887394336" y1="93.1117714323462" x2="68.5" y2="93.5"/>
    <line x1="68.5" y1="93.5" x2="68.4488887394336" y2="93.8882285676538"/>
    <line x1="68.4488887394336" y1="93.8882285676538" x2="68.2990381056767" y2="94.25"/>
    <line x1="68.2990381056767" y1="94.25" x2="68.0606601717799" y2="94.5606601717798"/>
    <line x1="68.0606601717799" y1="94.5606601717798" x2="67.75" y2="94.7990381056767"/>
    <line x1="67.75" y1="94.7990381056767" x2="67.3882285676539" y2="94.9488887394336"/>
    <line x1="67.3882285676539" y1="94.9488887394336" x2="67.0000000000001" y2="95.0"/>
    <line x1="67.0000000000001" y1="95.0" x2="66.6117714323462" y2="94.9488887394336"/>
    <line x1="66.6117714323462" y1="94.9488887394336" x2="66.2500000000001" y2="94.7990381056767"/>
    <line x1="66.2500000000001" y1="94.7990381056767" x2="65.9393398282202" y2="94.5606601717798"/>
    <line x1="65.9393398282202" y1="94.5606601717798" x2="65.7009618943234" y2="94.25"/>
    <line x1="65.7009618943234" y1="94.25" x2="65.5511112605665" y2="93.8882285676538"/>
    <line x1="65.5511112605665" y1="93.8882285676538" x2="65.5" y2="93.5"/>
    <line x1="65.5" y1="93.5" x2="65.5511112605665" y2="93.1117714323462"/>
    <line x1="65.5511112605665" y1="93.1117714323462" x2="65.7009618943234" y2="92.75"/>
    <line x1="65.7009618943234" y1="92.75" x2="65.9393398282202" y2="92.4393398282202"/>
    <line x1="65.9393398282202" y1="92.4393398282202" x2="66.2500000000001" y2="92.2009618943233"/>
    <line x1="66.2500000000001" y1="92.2009618943233" x2="66.6117714323462" y2="92.0511112605664"/>
    <line x1="66.6117714323462" y1="92.0511112605664" x2="67.0000000000001" y2="92.0"/>
    <line x1="67.0000000000001" y1="92.0" x2="67.3882285676539" y2="92.0511112605664"/>
    <line x1="67.3882285676539" y1="92.0511112605664" x2="67.75" y2="92.2009618943233"/>
    <line x1="67.75" y1="92.2009618943233" x2="68.0606601717799" y2="92.4393398282202"/>
    <line x1="68.0606601717799" y1="92.4393398282202" x2="68.2990381056768" y2="92.75"/>
    <line x1="68.2990381056768" y1="92.75" x2="68.4488887394336" y2="93.1117714323462"/>
    <line x1="46.0000000000005" y1="52.1000000000001" x2="46.0000000000005" y2="70.9000000000001"/>
    <line x1="46.0000000000005" y1="70.9000000000001" x2="33.0000000000004" y2="70.9000000000001"/>
    <line x1="33.0000000000004" y1="70.9000000000001" x2="33.0000000000004" y2="52.1000000000001"/>
    <line x1="33.0000000000004" y1="52.1000000000001" x2="46.0000000000005" y2="52.1000000000001"/>
    <line x1="66.482361909795" y1="35.0681483474219" x2="67.0000000000001" y2="35.0"/>
    <line x1="67.0000000000001" y1="35.0" x2="67.5176380902051" y2="35.0681483474219"/>
    <line x1="67.5176380902051" y1="35.0681483474219" x2="68.0000000000001" y2="35.2679491924311"/>
    <line x1="68.0000000000001" y1="35.2679491924311" x2="68.4142135623732" y2="35.5857864376269"/>
    <line x1="68.4142135623732" y1="35.5857864376269" x2="68.732050807569" y2="36.0"/>
    <line x1="68.732050807569" y1="36.0" x2="68.9318516525782" y2="36.482361909795"/>
    <line x1="68.9318516525782" y1="36.482361909795" x2="69.0000000000001" y2="37.0"/>
    <line x1="69.0000000000001" y1="37.0" x2="68.9318516525782" y2="37.517638090205"/>
    <line x1="68.9318516525782" y1="37.517638090205" x2="68.732050807569" y2="38.0"/>
    <line x1="68.732050807569" y1="38.0" x2="68.4142135623732" y2="38.4142135623731"/>
    <line x1="68.4142135623732" y1="38.4142135623731" x2="68.0000000000001" y2="38.7320508075689"/>
    <line x1="68.0000000000001" y1="38.7320508075689" x2="67.5176380902051" y2="38.9318516525781"/>
    <line x1="67.5176380902051" y1="38.9318516525781" x2="67.0000000000001" y2="38.9999999999999"/>
    <line x1="67.0000000000001" y1="38.9999999999999" x2="66.482361909795" y2="38.9318516525781"/>
    <line x1="66.482361909795" y1="38.9318516525781" x2="66.0000000000001" y2="38.7320508075689"/>
    <line x1="66.0000000000001" y1="38.7320508075689" x2="65.585786437627" y2="38.414213562373"/>
    <line x1="65.585786437627" y1="38.414213562373" x2="65.2679491924312" y2="38.0"/>
    <line x1="65.2679491924312" y1="38.0" x2="65.0681483474219" y2="37.517638090205"/>
    <line x1="65.0681483474219" y1="37.517638090205" x2="65.0000000000001" y2="37.0"/>
    <line x1="65.0000000000001" y1="37.0" x2="65.0681483474219" y2="36.482361909795"/>
    <line x1="65.0681483474219" y1="36.482361909795" x2="65.2679491924312" y2="36.0"/>
    <line x1="65.2679491924312" y1="36.0" x2="65.585786437627" y2="35.5857864376269"/>
    <line x1="65.585786437627" y1="35.5857864376269" x2="66.0" y2="35.2679491924311"/>
    <line x1="66.0" y1="35.2679491924311" x2="66.482361909795" y2="35.0681483474219"/>
  </g>
</svg>
