<?xml version="1.0" standalone="no"?>
<!DOCTYPE svg PUBLIC "-//W3C//DTD SVG 1.1//EN" "http://www.w3.org/Graphics/SVG/1.1/DTD/svg11.dtd">
<svg width="14.9999999999999mm" height="19.9999999999999mm"
 viewBox="0 0 14.9999999999999 19.9999999999999"
 xmlns="http://www.w3.org/2000/svg" version="1.1"
 xmlns:xlink="http://www.w3.org/1999/xlink">
<desc>Output from Flights of Ideas SVG Sketchup Plugin</desc>

  <g id="face0" fill="none" stroke="rgb(0,0,255)" stroke-width="1" stroke-miterlimit="4" stroke-dasharray="none" stroke-linejoin="round" stroke-linecap="round">
    <line x1="10.9999999999999" y1="10.9999999999999" x2="10.9999999999999" y2="6.0"/>
    <line x1="10.9999999999999" y1="6.0" x2="13.9999999999999" y2="6.0"/>
    <line x1="13.9999999999999" y1="6.0" x2="13.9999999999999" y2="1.0"/>
    <line x1="13.9999999999999" y1="1.0" x2="1.0" y2="1.0"/>
    <line x1="1.0" y1="1.0" x2="1.0" y2="15.9999999999999"/>
    <line x1="1.0" y1="15.9999999999999" x2="3.99999999999994" y2="15.9999999999999"/>
    <line x1="3.99999999999994" y1="15.9999999999999" x2="4.0" y2="18.9999999999999"/>
    <line x1="4.0" y1="18.9999999999999" x2="10.9999999999999" y2="18.9999999999999"/>
    <line x1="10.9999999999999" y1="18.9999999999999" x2="10.9999999999999" y2="13.9999999999999"/>
    <line x1="10.9999999999999" y1="13.9999999999999" x2="8.99999999999994" y2="13.9999999999999"/>
    <line x1="8.99999999999994" y1="13.9999999999999" x2="8.99999999999994" y2="15.3"/>
    <line x1="8.99999999999994" y1="15.3" x2="6.79999999999995" y2="15.3"/>
    <line x1="6.79999999999995" y1="15.3" x2="6.79999999999995" y2="13.9999999999999"/>
    <line x1="6.79999999999995" y1="13.9999999999999" x2="3.79999999999995" y2="13.9999999999999"/>
    <line x1="3.79999999999995" y1="13.9999999999999" x2="3.79999999999995" y2="10.9999999999999"/>
    <line x1="3.79999999999995" y1="10.9999999999999" x2="6.79999999999995" y2="10.9999999999999"/>
    <line x1="6.79999999999995" y1="10.9999999999999" x2="6.79999999999995" y2="9.69999999999999"/>
    <line x1="6.79999999999995" y1="9.69999999999999" x2="8.99999999999994" y2="9.69999999999999"/>
    <line x1="8.99999999999994" y1="9.69999999999999" x2="8.99999999999994" y2="10.9999999999999"/>
    <line x1="8.99999999999994" y1="10.9999999999999" x2="10.9999999999999" y2="10.9999999999999"/>
  </g>
</svg>
