<?xml version="1.0" standalone="no"?>
<!DOCTYPE svg PUBLIC "-//W3C//DTD SVG 1.1//EN" "http://www.w3.org/Graphics/SVG/1.1/DTD/svg11.dtd">
<svg width="128.0mm" height="128.0mm"
 viewBox="0 0 128.0 128.0"
 xmlns="http://www.w3.org/2000/svg" version="1.1"
 xmlns:xlink="http://www.w3.org/1999/xlink">
<desc>Output from Flights of Ideas SVG Sketchup Plugin</desc>

  <g id="face0" fill="none" stroke="rgb(0,0,255)" stroke-width="1" stroke-miterlimit="4" stroke-dasharray="none" stroke-linejoin="round" stroke-linecap="round">
    <line x1="4.0" y1="29.0" x2="4.0" y2="62.5"/>
    <line x1="4.0" y1="62.5" x2="6.0" y2="62.5"/>
    <line x1="6.0" y1="62.5" x2="6.0" y2="61.2"/>
    <line x1="6.0" y1="61.2" x2="8.19999999999999" y2="61.2"/>
    <line x1="8.19999999999999" y1="61.2" x2="8.19999999999999" y2="62.5"/>
    <line x1="8.19999999999999" y1="62.5" x2="11.2" y2="62.5"/>
    <line x1="11.2" y1="62.5" x2="11.2" y2="65.5"/>
    <line x1="11.2" y1="65.5" x2="8.19999999999999" y2="65.5"/>
    <line x1="8.19999999999999" y1="65.5" x2="8.19999999999999" y2="66.8"/>
    <line x1="8.19999999999999" y1="66.8" x2="6.0" y2="66.8"/>
    <line x1="6.0" y1="66.8" x2="6.0" y2="65.5"/>
    <line x1="6.0" y1="65.5" x2="4.0" y2="65.5"/>
    <line x1="4.0" y1="65.5" x2="4.0" y2="99.0"/>
    <line x1="4.0" y1="99.0" x2="19.0" y2="99.0"/>
    <line x1="19.0" y1="99.0" x2="19.0" y2="114.0"/>
    <line x1="19.0" y1="114.0" x2="4.0" y2="114.0"/>
    <line x1="4.0" y1="114.0" x2="4.0" y2="124.0"/>
    <line x1="4.0" y1="124.0" x2="9.0" y2="124.0"/>
    <line x1="9.0" y1="124.0" x2="9.0" y2="127.0"/>
    <line x1="9.0" y1="127.0" x2="29.0" y2="127.0"/>
    <line x1="29.0" y1="127.0" x2="29.0" y2="124.0"/>
    <line x1="29.0" y1="124.0" x2="62.5" y2="124.0"/>
    <line x1="62.5" y1="124.0" x2="62.5" y2="122.0"/>
    <line x1="62.5" y1="122.0" x2="61.2" y2="122.0"/>
    <line x1="61.2" y1="122.0" x2="61.2" y2="119.8"/>
    <line x1="61.2" y1="119.8" x2="62.5" y2="119.8"/>
    <line x1="62.5" y1="119.8" x2="62.5" y2="116.8"/>
    <line x1="62.5" y1="116.8" x2="65.5" y2="116.8"/>
    <line x1="65.5" y1="116.8" x2="65.5" y2="119.8"/>
    <line x1="65.5" y1="119.8" x2="66.8" y2="119.8"/>
    <line x1="66.8" y1="119.8" x2="66.8" y2="122.0"/>
    <line x1="66.8" y1="122.0" x2="65.5" y2="122.0"/>
    <line x1="65.5" y1="122.0" x2="65.5" y2="124.0"/>
    <line x1="65.5" y1="124.0" x2="99.0000000000001" y2="124.0"/>
    <line x1="99.0000000000001" y1="124.0" x2="99.0000000000001" y2="127.0"/>
    <line x1="99.0000000000001" y1="127.0" x2="119.0" y2="127.0"/>
    <line x1="119.0" y1="127.0" x2="119.0" y2="124.0"/>
    <line x1="119.0" y1="124.0" x2="124.0" y2="124.0"/>
    <line x1="124.0" y1="124.0" x2="124.0" y2="119.0"/>
    <line x1="124.0" y1="119.0" x2="127.0" y2="119.0"/>
    <line x1="127.0" y1="119.0" x2="127.0" y2="99.0"/>
    <line x1="127.0" y1="99.0" x2="124.0" y2="99.0"/>
    <line x1="124.0" y1="99.0" x2="124.0" y2="65.5"/>
    <line x1="124.0" y1="65.5" x2="122.0" y2="65.5"/>
    <line x1="122.0" y1="65.5" x2="122.0" y2="66.8"/>
    <line x1="122.0" y1="66.8" x2="119.8" y2="66.8"/>
    <line x1="119.8" y1="66.8" x2="119.8" y2="65.5000000000001"/>
    <line x1="119.8" y1="65.5000000000001" x2="116.8" y2="65.5"/>
    <line x1="116.8" y1="65.5" x2="116.8" y2="62.5"/>
    <line x1="116.8" y1="62.5" x2="119.8" y2="62.5"/>
    <line x1="119.8" y1="62.5" x2="119.8" y2="61.2"/>
    <line x1="119.8" y1="61.2" x2="122.0" y2="61.2"/>
    <line x1="122.0" y1="61.2" x2="122.0" y2="62.5"/>
    <line x1="122.0" y1="62.5" x2="124.0" y2="62.5"/>
    <line x1="124.0" y1="62.5" x2="124.0" y2="29.0"/>
    <line x1="124.0" y1="29.0" x2="127.0" y2="29.0"/>
    <line x1="127.0" y1="29.0" x2="127.0" y2="8.99999999999993"/>
    <line x1="127.0" y1="8.99999999999993" x2="124.0" y2="9.00000000000004"/>
    <line x1="124.0" y1="9.00000000000004" x2="124.0" y2="4.00000000000005"/>
    <line x1="124.0" y1="4.00000000000005" x2="119.0" y2="4.00000000000009"/>
    <line x1="119.0" y1="4.00000000000009" x2="119.0" y2="1.0"/>
    <line x1="119.0" y1="1.0" x2="99.0000000000001" y2="1.00000000000008"/>
    <line x1="99.0000000000001" y1="1.00000000000008" x2="98.9999999999999" y2="4.00000000000004"/>
    <line x1="98.9999999999999" y1="4.00000000000004" x2="65.5" y2="4.00000000000001"/>
    <line x1="65.5" y1="4.00000000000001" x2="65.5" y2="6.00000000000001"/>
    <line x1="65.5" y1="6.00000000000001" x2="66.8" y2="6.00000000000001"/>
    <line x1="66.8" y1="6.00000000000001" x2="66.8" y2="8.20000000000001"/>
    <line x1="66.8" y1="8.20000000000001" x2="65.5" y2="8.2"/>
    <line x1="65.5" y1="8.2" x2="65.5" y2="11.2"/>
    <line x1="65.5" y1="11.2" x2="62.5" y2="11.2"/>
    <line x1="62.5" y1="11.2" x2="62.5" y2="8.20000000000001"/>
    <line x1="62.5" y1="8.20000000000001" x2="61.2" y2="8.20000000000003"/>
    <line x1="61.2" y1="8.20000000000003" x2="61.2" y2="6.00000000000001"/>
    <line x1="61.2" y1="6.00000000000001" x2="62.5" y2="6.00000000000001"/>
    <line x1="62.5" y1="6.00000000000001" x2="62.5" y2="4.00000000000001"/>
    <line x1="62.5" y1="4.00000000000001" x2="29.0" y2="4.00000000000002"/>
    <line x1="29.0" y1="4.00000000000002" x2="29.0" y2="1.00000000000002"/>
    <line x1="29.0" y1="1.00000000000002" x2="9.0" y2="1.00000000000002"/>
    <line x1="9.0" y1="1.00000000000002" x2="9.0" y2="4.00000000000002"/>
    <line x1="9.0" y1="4.00000000000002" x2="4.0" y2="4.00000000000002"/>
    <line x1="4.0" y1="4.00000000000002" x2="4.0" y2="9.00000000000001"/>
    <line x1="4.0" y1="9.00000000000001" x2="1.0" y2="9.00000000000001"/>
    <line x1="1.0" y1="9.00000000000001" x2="1.0" y2="29.0"/>
    <line x1="1.0" y1="29.0" x2="4.0" y2="29.0"/>
    <line x1="62.5511112605664" y1="37.8882285676538" x2="62.5" y2="37.4999999999999"/>
    <line x1="62.5" y1="37.4999999999999" x2="62.5511112605664" y2="37.1117714323462"/>
    <line x1="62.5511112605664" y1="37.1117714323462" x2="62.7009618943233" y2="36.75"/>
    <line x1="62.7009618943233" y1="36.75" x2="62.9393398282202" y2="36.4393398282202"/>
    <line x1="62.9393398282202" y1="36.4393398282202" x2="63.2499999999999" y2="36.2009618943234"/>
    <line x1="63.2499999999999" y1="36.2009618943234" x2="63.6117714323462" y2="36.0511112605663"/>
    <line x1="63.6117714323462" y1="36.0511112605663" x2="63.9999999999999" y2="36.0"/>
    <line x1="63.9999999999999" y1="36.0" x2="64.3882285676538" y2="36.0511112605663"/>
    <line x1="64.3882285676538" y1="36.0511112605663" x2="64.75" y2="36.2009618943234"/>
    <line x1="64.75" y1="36.2009618943234" x2="65.0606601717798" y2="36.4393398282202"/>
    <line x1="65.0606601717798" y1="36.4393398282202" x2="65.2990381056766" y2="36.75"/>
    <line x1="65.2990381056766" y1="36.75" x2="65.4488887394336" y2="37.1117714323462"/>
    <line x1="65.4488887394336" y1="37.1117714323462" x2="65.5" y2="37.5"/>
    <line x1="65.5" y1="37.5" x2="65.4488887394336" y2="37.8882285676537"/>
    <line x1="65.4488887394336" y1="37.8882285676537" x2="65.2990381056766" y2="38.25"/>
    <line x1="65.2990381056766" y1="38.25" x2="65.0606601717798" y2="38.5606601717798"/>
    <line x1="65.0606601717798" y1="38.5606601717798" x2="64.75" y2="38.7990381056767"/>
    <line x1="64.75" y1="38.7990381056767" x2="64.3882285676538" y2="38.9488887394335"/>
    <line x1="64.3882285676538" y1="38.9488887394335" x2="63.9999999999999" y2="39.0"/>
    <line x1="63.9999999999999" y1="39.0" x2="63.6117714323462" y2="38.9488887394336"/>
    <line x1="63.6117714323462" y1="38.9488887394336" x2="63.2499999999999" y2="38.7990381056767"/>
    <line x1="63.2499999999999" y1="38.7990381056767" x2="62.9393398282202" y2="38.5606601717798"/>
    <line x1="62.9393398282202" y1="38.5606601717798" x2="62.7009618943233" y2="38.25"/>
    <line x1="62.7009618943233" y1="38.25" x2="62.5511112605664" y2="37.8882285676538"/>
    <line x1="90.1117714323462" y1="62.5511112605664" x2="90.5" y2="62.5"/>
    <line x1="90.5" y1="62.5" x2="90.8882285676538" y2="62.5511112605664"/>
    <line x1="90.8882285676538" y1="62.5511112605664" x2="91.25" y2="62.7009618943233"/>
    <line x1="91.25" y1="62.7009618943233" x2="91.5606601717798" y2="62.9393398282202"/>
    <line x1="91.5606601717798" y1="62.9393398282202" x2="91.7990381056766" y2="63.25"/>
    <line x1="91.7990381056766" y1="63.25" x2="91.9488887394336" y2="63.6117714323462"/>
    <line x1="91.9488887394336" y1="63.6117714323462" x2="92.0" y2="64.0"/>
    <line x1="92.0" y1="64.0" x2="91.9488887394336" y2="64.3882285676538"/>
    <line x1="91.9488887394336" y1="64.3882285676538" x2="91.7990381056766" y2="64.75"/>
    <line x1="91.7990381056766" y1="64.75" x2="91.5606601717798" y2="65.0606601717798"/>
    <line x1="91.5606601717798" y1="65.0606601717798" x2="91.25" y2="65.2990381056767"/>
    <line x1="91.25" y1="65.2990381056767" x2="90.8882285676538" y2="65.4488887394336"/>
    <line x1="90.8882285676538" y1="65.4488887394336" x2="90.5" y2="65.5"/>
    <line x1="90.5" y1="65.5" x2="90.1117714323462" y2="65.4488887394336"/>
    <line x1="90.1117714323462" y1="65.4488887394336" x2="89.75" y2="65.2990381056767"/>
    <line x1="89.75" y1="65.2990381056767" x2="89.4393398282202" y2="65.0606601717798"/>
    <line x1="89.4393398282202" y1="65.0606601717798" x2="89.2009618943233" y2="64.75"/>
    <line x1="89.2009618943233" y1="64.75" x2="89.0511112605664" y2="64.3882285676538"/>
    <line x1="89.0511112605664" y1="64.3882285676538" x2="88.9999999999999" y2="64.0"/>
    <line x1="88.9999999999999" y1="64.0" x2="89.0511112605664" y2="63.6117714323462"/>
    <line x1="89.0511112605664" y1="63.6117714323462" x2="89.2009618943233" y2="63.25"/>
    <line x1="89.2009618943233" y1="63.25" x2="89.4393398282202" y2="62.9393398282202"/>
    <line x1="89.4393398282202" y1="62.9393398282202" x2="89.75" y2="62.7009618943233"/>
    <line x1="89.75" y1="62.7009618943233" x2="90.1117714323462" y2="62.5511112605664"/>
    <line x1="65.4488887394336" y1="90.1117714323462" x2="65.5" y2="90.5"/>
    <line x1="65.5" y1="90.5" x2="65.4488887394336" y2="90.8882285676538"/>
    <line x1="65.4488887394336" y1="90.8882285676538" x2="65.2990381056766" y2="91.25"/>
    <line x1="65.2990381056766" y1="91.25" x2="65.0606601717798" y2="91.5606601717798"/>
    <line x1="65.0606601717798" y1="91.5606601717798" x2="64.75" y2="91.7990381056767"/>
    <line x1="64.75" y1="91.7990381056767" x2="64.3882285676538" y2="91.9488887394336"/>
    <line x1="64.3882285676538" y1="91.9488887394336" x2="63.9999999999999" y2="92.0"/>
    <line x1="63.9999999999999" y1="92.0" x2="63.6117714323462" y2="91.9488887394336"/>
    <line x1="63.6117714323462" y1="91.9488887394336" x2="63.25" y2="91.7990381056767"/>
    <line x1="63.25" y1="91.7990381056767" x2="62.9393398282202" y2="91.5606601717798"/>
    <line x1="62.9393398282202" y1="91.5606601717798" x2="62.7009618943233" y2="91.25"/>
    <line x1="62.7009618943233" y1="91.25" x2="62.5511112605664" y2="90.8882285676538"/>
    <line x1="62.5511112605664" y1="90.8882285676538" x2="62.5" y2="90.5"/>
    <line x1="62.5" y1="90.5" x2="62.5511112605664" y2="90.1117714323462"/>
    <line x1="62.5511112605664" y1="90.1117714323462" x2="62.7009618943233" y2="89.75"/>
    <line x1="62.7009618943233" y1="89.75" x2="62.9393398282202" y2="89.4393398282202"/>
    <line x1="62.9393398282202" y1="89.4393398282202" x2="63.25" y2="89.2009618943233"/>
    <line x1="63.25" y1="89.2009618943233" x2="63.6117714323462" y2="89.0511112605664"/>
    <line x1="63.6117714323462" y1="89.0511112605664" x2="63.9999999999999" y2="89.0"/>
    <line x1="63.9999999999999" y1="89.0" x2="64.3882285676538" y2="89.0511112605664"/>
    <line x1="64.3882285676538" y1="89.0511112605664" x2="64.75" y2="89.2009618943233"/>
    <line x1="64.75" y1="89.2009618943233" x2="65.0606601717798" y2="89.4393398282202"/>
    <line x1="65.0606601717798" y1="89.4393398282202" x2="65.2990381056766" y2="89.75"/>
    <line x1="65.2990381056766" y1="89.75" x2="65.4488887394336" y2="90.1117714323462"/>
    <line x1="37.8882285676538" y1="65.4488887394336" x2="37.5" y2="65.5"/>
    <line x1="37.5" y1="65.5" x2="37.1117714323462" y2="65.4488887394336"/>
    <line x1="37.1117714323462" y1="65.4488887394336" x2="36.75" y2="65.2990381056767"/>
    <line x1="36.75" y1="65.2990381056767" x2="36.4393398282202" y2="65.0606601717798"/>
    <line x1="36.4393398282202" y1="65.0606601717798" x2="36.2009618943233" y2="64.75"/>
    <line x1="36.2009618943233" y1="64.75" x2="36.0511112605664" y2="64.3882285676538"/>
    <line x1="36.0511112605664" y1="64.3882285676538" x2="36.0" y2="64.0"/>
    <line x1="36.0" y1="64.0" x2="36.0511112605664" y2="63.6117714323462"/>
    <line x1="36.0511112605664" y1="63.6117714323462" x2="36.2009618943233" y2="63.25"/>
    <line x1="36.2009618943233" y1="63.25" x2="36.4393398282202" y2="62.9393398282202"/>
    <line x1="36.4393398282202" y1="62.9393398282202" x2="36.75" y2="62.7009618943233"/>
    <line x1="36.75" y1="62.7009618943233" x2="37.1117714323462" y2="62.5511112605664"/>
    <line x1="37.1117714323462" y1="62.5511112605664" x2="37.5" y2="62.5"/>
    <line x1="37.5" y1="62.5" x2="37.8882285676538" y2="62.5511112605664"/>
    <line x1="37.8882285676538" y1="62.5511112605664" x2="38.2499999999999" y2="62.7009618943233"/>
    <line x1="38.2499999999999" y1="62.7009618943233" x2="38.5606601717798" y2="62.9393398282202"/>
    <line x1="38.5606601717798" y1="62.9393398282202" x2="38.7990381056766" y2="63.25"/>
    <line x1="38.7990381056766" y1="63.25" x2="38.9488887394336" y2="63.6117714323462"/>
    <line x1="38.9488887394336" y1="63.6117714323462" x2="39.0" y2="64.0"/>
    <line x1="39.0" y1="64.0" x2="38.9488887394336" y2="64.3882285676538"/>
    <line x1="38.9488887394336" y1="64.3882285676538" x2="38.7990381056766" y2="64.75"/>
    <line x1="38.7990381056766" y1="64.75" x2="38.5606601717798" y2="65.0606601717798"/>
    <line x1="38.5606601717798" y1="65.0606601717798" x2="38.2499999999999" y2="65.2990381056767"/>
    <line x1="38.2499999999999" y1="65.2990381056767" x2="37.8882285676538" y2="65.4488887394336"/>
    <line x1="76.0" y1="100.0" x2="79.0" y2="100.0"/>
    <line x1="79.0" y1="100.0" x2="79.0" y2="113.0"/>
    <line x1="79.0" y1="113.0" x2="76.0" y2="113.0"/>
    <line x1="76.0" y1="113.0" x2="76.0" y2="100.0"/>
    <line x1="49.0" y1="100.0" x2="52.0" y2="100.0"/>
    <line x1="52.0" y1="100.0" x2="52.0" y2="113.0"/>
    <line x1="52.0" y1="113.0" x2="49.0" y2="113.0"/>
    <line x1="49.0" y1="113.0" x2="49.0" y2="100.0"/>
  </g>
</svg>
