<?xml version="1.0" standalone="no"?>
<!DOCTYPE svg PUBLIC "-//W3C//DTD SVG 1.1//EN" "http://www.w3.org/Graphics/SVG/1.1/DTD/svg11.dtd">
<svg width="134.0mm" height="164.0mm"
 viewBox="0 0 134.0 164.0"
 xmlns="http://www.w3.org/2000/svg" version="1.1"
 xmlns:xlink="http://www.w3.org/1999/xlink">
<desc>Output from Flights of Ideas SVG Sketchup Plugin</desc>

  <g id="face0" fill="none" stroke="rgb(0,0,255)" stroke-width="1" stroke-miterlimit="4" stroke-dasharray="none" stroke-linejoin="round" stroke-linecap="round">
    <line x1="133.0" y1="4.00000000000003" x2="123.0" y2="4.00000000000003"/>
    <line x1="123.0" y1="4.00000000000003" x2="123.0" y2="6.00000000000009"/>
    <line x1="123.0" y1="6.00000000000009" x2="124.3" y2="6.00000000000009"/>
    <line x1="124.3" y1="6.00000000000009" x2="124.3" y2="8.20000000000007"/>
    <line x1="124.3" y1="8.20000000000007" x2="123.0" y2="8.20000000000002"/>
    <line x1="123.0" y1="8.20000000000002" x2="123.0" y2="11.2"/>
    <line x1="123.0" y1="11.2" x2="120.0" y2="11.2"/>
    <line x1="120.0" y1="11.2" x2="120.0" y2="8.20000000000002"/>
    <line x1="120.0" y1="8.20000000000002" x2="118.8" y2="8.20000000000002"/>
    <line x1="118.8" y1="8.20000000000002" x2="118.8" y2="6.00000000000003"/>
    <line x1="118.8" y1="6.00000000000003" x2="120.1" y2="6.00000000000009"/>
    <line x1="120.1" y1="6.00000000000009" x2="120.1" y2="4.00000000000003"/>
    <line x1="120.1" y1="4.00000000000003" x2="115.1" y2="4.00000000000003"/>
    <line x1="115.1" y1="4.00000000000003" x2="115.1" y2="1.00000000000006"/>
    <line x1="115.1" y1="1.00000000000006" x2="105.1" y2="1.0"/>
    <line x1="105.1" y1="1.0" x2="105.1" y2="4.00000000000003"/>
    <line x1="105.1" y1="4.00000000000003" x2="28.9" y2="4.00000000000003"/>
    <line x1="28.9" y1="4.00000000000003" x2="28.9" y2="1.0"/>
    <line x1="28.9" y1="1.0" x2="18.9" y2="1.00000000000068"/>
    <line x1="18.9" y1="1.00000000000068" x2="18.9" y2="4.00000000000003"/>
    <line x1="18.9" y1="4.00000000000003" x2="13.9" y2="4.00000000000003"/>
    <line x1="13.9" y1="4.00000000000003" x2="13.9" y2="6.00000000000142"/>
    <line x1="13.9" y1="6.00000000000142" x2="15.2" y2="5.99999999999994"/>
    <line x1="15.2" y1="5.99999999999994" x2="15.2" y2="8.20000000000053"/>
    <line x1="15.2" y1="8.20000000000053" x2="13.9" y2="8.20000000000013"/>
    <line x1="13.9" y1="8.20000000000013" x2="13.9" y2="11.2000000000001"/>
    <line x1="13.9" y1="11.2000000000001" x2="10.9" y2="11.2"/>
    <line x1="10.9" y1="11.2" x2="10.9" y2="8.19999999999985"/>
    <line x1="10.9" y1="8.19999999999985" x2="9.70000000000003" y2="8.20000000000022"/>
    <line x1="9.70000000000003" y1="8.20000000000022" x2="9.70000000000003" y2="6.00000000000071"/>
    <line x1="9.70000000000003" y1="6.00000000000071" x2="11.0" y2="6.00000000000048"/>
    <line x1="11.0" y1="6.00000000000048" x2="11.0" y2="4.00000000000003"/>
    <line x1="11.0" y1="4.00000000000003" x2="1.00000000000002" y2="4.00000000000003"/>
    <line x1="1.00000000000002" y1="4.00000000000003" x2="1.0" y2="160.0"/>
    <line x1="1.0" y1="160.0" x2="11.0" y2="160.0"/>
    <line x1="11.0" y1="160.0" x2="11.0" y2="158.0"/>
    <line x1="11.0" y1="158.0" x2="9.70000000000003" y2="158.0"/>
    <line x1="9.70000000000003" y1="158.0" x2="9.70000000000003" y2="155.8"/>
    <line x1="9.70000000000003" y1="155.8" x2="11.0" y2="155.8"/>
    <line x1="11.0" y1="155.8" x2="11.0" y2="152.8"/>
    <line x1="11.0" y1="152.8" x2="14.0" y2="152.8"/>
    <line x1="14.0" y1="152.8" x2="14.0" y2="155.8"/>
    <line x1="14.0" y1="155.8" x2="15.3" y2="155.8"/>
    <line x1="15.3" y1="155.8" x2="15.3" y2="158.0"/>
    <line x1="15.3" y1="158.0" x2="14.0" y2="158.0"/>
    <line x1="14.0" y1="158.0" x2="14.0000000000001" y2="160.0"/>
    <line x1="14.0000000000001" y1="160.0" x2="24.0" y2="160.0"/>
    <line x1="24.0" y1="160.0" x2="24.0" y2="163.0"/>
    <line x1="24.0" y1="163.0" x2="44.0" y2="163.0"/>
    <line x1="44.0" y1="163.0" x2="44.0" y2="160.0"/>
    <line x1="44.0" y1="160.0" x2="90.0" y2="160.0"/>
    <line x1="90.0" y1="160.0" x2="90.0000000000001" y2="163.0"/>
    <line x1="90.0000000000001" y1="163.0" x2="110.0" y2="163.0"/>
    <line x1="110.0" y1="163.0" x2="110.0" y2="160.0"/>
    <line x1="110.0" y1="160.0" x2="120.0" y2="160.0"/>
    <line x1="120.0" y1="160.0" x2="120.0" y2="158.0"/>
    <line x1="120.0" y1="158.0" x2="118.7" y2="158.0"/>
    <line x1="118.7" y1="158.0" x2="118.7" y2="155.8"/>
    <line x1="118.7" y1="155.8" x2="120.0" y2="155.8"/>
    <line x1="120.0" y1="155.8" x2="120.0" y2="152.8"/>
    <line x1="120.0" y1="152.8" x2="123.0" y2="152.8"/>
    <line x1="123.0" y1="152.8" x2="123.0" y2="155.8"/>
    <line x1="123.0" y1="155.8" x2="124.3" y2="155.8"/>
    <line x1="124.3" y1="155.8" x2="124.3" y2="158.0"/>
    <line x1="124.3" y1="158.0" x2="123.0" y2="158.0"/>
    <line x1="123.0" y1="158.0" x2="123.0" y2="160.0"/>
    <line x1="123.0" y1="160.0" x2="133.0" y2="160.0"/>
    <line x1="133.0" y1="160.0" x2="133.0" y2="4.00000000000003"/>
    <line x1="22.2322687604095" y1="75.0322687604075" x2="22.5450000000013" y2="74.7923016402847"/>
    <line x1="22.5450000000013" y1="74.7923016402847" x2="22.9091832418964" y2="74.6414520023027"/>
    <line x1="22.9091832418964" y1="74.6414520023027" x2="23.3000000000012" y2="74.5899999999992"/>
    <line x1="23.3000000000012" y1="74.5899999999992" x2="23.690816758106" y2="74.6414520023027"/>
    <line x1="23.690816758106" y1="74.6414520023027" x2="24.0550000000012" y2="74.7923016402847"/>
    <line x1="24.0550000000012" y1="74.7923016402847" x2="24.3677312395928" y2="75.0322687604075"/>
    <line x1="24.3677312395928" y1="75.0322687604075" x2="24.6076983597157" y2="75.3449999999993"/>
    <line x1="24.6076983597157" y1="75.3449999999993" x2="24.7585479976976" y2="75.7091832418944"/>
    <line x1="24.7585479976976" y1="75.7091832418944" x2="24.8100000000011" y2="76.0999999999992"/>
    <line x1="24.8100000000011" y1="76.0999999999992" x2="24.7585479976976" y2="76.490816758104"/>
    <line x1="24.7585479976976" y1="76.490816758104" x2="24.6076983597156" y2="76.8549999999991"/>
    <line x1="24.6076983597156" y1="76.8549999999991" x2="24.3677312395928" y2="77.1677312395908"/>
    <line x1="24.3677312395928" y1="77.1677312395908" x2="24.0550000000012" y2="77.4076983597136"/>
    <line x1="24.0550000000012" y1="77.4076983597136" x2="23.690816758106" y2="77.5585479976956"/>
    <line x1="23.690816758106" y1="77.5585479976956" x2="23.3000000000012" y2="77.6099999999991"/>
    <line x1="23.3000000000012" y1="77.6099999999991" x2="22.9091832418964" y2="77.5585479976956"/>
    <line x1="22.9091832418964" y1="77.5585479976956" x2="22.5450000000012" y2="77.4076983597136"/>
    <line x1="22.5450000000012" y1="77.4076983597136" x2="22.2322687604095" y2="77.1677312395908"/>
    <line x1="22.2322687604095" y1="77.1677312395908" x2="21.9923016402867" y2="76.8549999999991"/>
    <line x1="21.9923016402867" y1="76.8549999999991" x2="21.8414520023047" y2="76.4908167581039"/>
    <line x1="21.8414520023047" y1="76.4908167581039" x2="21.7900000000012" y2="76.0999999999991"/>
    <line x1="21.7900000000012" y1="76.0999999999991" x2="21.8414520023048" y2="75.7091832418944"/>
    <line x1="21.8414520023048" y1="75.7091832418944" x2="21.9923016402867" y2="75.3449999999992"/>
    <line x1="21.9923016402867" y1="75.3449999999992" x2="22.2322687604095" y2="75.0322687604075"/>
    <line x1="73.8303146021579" y1="89.0694366124588" x2="74.1328208151704" y2="89.3015577937346"/>
    <line x1="74.1328208151704" y1="89.3015577937346" x2="74.3649419964462" y2="89.6040640067471"/>
    <line x1="74.3649419964462" y1="89.6040640067471" x2="74.5108594710798" y2="89.9563399529947"/>
    <line x1="74.5108594710798" y1="89.9563399529947" x2="74.5606292043149" y2="90.3343786089041"/>
    <line x1="74.5606292043149" y1="90.3343786089041" x2="74.5108594710798" y2="90.7124172648135"/>
    <line x1="74.5108594710798" y1="90.7124172648135" x2="74.3649419964462" y2="91.064693211061"/>
    <line x1="74.3649419964462" y1="91.064693211061" x2="74.1328208151704" y2="91.3671994240736"/>
    <line x1="74.1328208151704" y1="91.3671994240736" x2="73.8303146021579" y2="91.5993206053494"/>
    <line x1="73.8303146021579" y1="91.5993206053494" x2="73.4780386559103" y2="91.745238079983"/>
    <line x1="73.4780386559103" y1="91.745238079983" x2="73.1000000000009" y2="91.7950078132179"/>
    <line x1="73.1000000000009" y1="91.7950078132179" x2="72.7219613440915" y2="91.745238079983"/>
    <line x1="72.7219613440915" y1="91.745238079983" x2="72.369685397844" y2="91.5993206053494"/>
    <line x1="72.369685397844" y1="91.5993206053494" x2="72.0671791848315" y2="91.3671994240736"/>
    <line x1="72.0671791848315" y1="91.3671994240736" x2="71.8350580035556" y2="91.064693211061"/>
    <line x1="71.8350580035556" y1="91.064693211061" x2="71.6891405289221" y2="90.7124172648135"/>
    <line x1="71.6891405289221" y1="90.7124172648135" x2="71.639370795687" y2="90.3343786089041"/>
    <line x1="71.639370795687" y1="90.3343786089041" x2="71.6891405289221" y2="89.9563399529947"/>
    <line x1="71.6891405289221" y1="89.9563399529947" x2="71.8350580035556" y2="89.6040640067472"/>
    <line x1="71.8350580035556" y1="89.6040640067472" x2="72.0671791848315" y2="89.3015577937346"/>
    <line x1="72.0671791848315" y1="89.3015577937346" x2="72.369685397844" y2="89.0694366124588"/>
    <line x1="72.369685397844" y1="89.0694366124588" x2="72.7219613440915" y2="88.9235191378253"/>
    <line x1="72.7219613440915" y1="88.9235191378253" x2="73.1000000000009" y2="88.8737494045902"/>
    <line x1="73.1000000000009" y1="88.8737494045902" x2="73.4780386559103" y2="88.9235191378252"/>
    <line x1="73.4780386559103" y1="88.9235191378252" x2="73.8303146021579" y2="89.0694366124588"/>
    <line x1="73.5550000000004" y1="119.507698359714" x2="73.1908167581052" y2="119.658547997696"/>
    <line x1="73.1908167581052" y1="119.658547997696" x2="72.8000000000004" y2="119.71"/>
    <line x1="72.8000000000004" y1="119.71" x2="72.4091832418956" y2="119.658547997696"/>
    <line x1="72.4091832418956" y1="119.658547997696" x2="72.0450000000004" y2="119.507698359714"/>
    <line x1="72.0450000000004" y1="119.507698359714" x2="71.7322687604087" y2="119.267731239591"/>
    <line x1="71.7322687604087" y1="119.267731239591" x2="71.492301640286" y2="118.955"/>
    <line x1="71.492301640286" y1="118.955" x2="71.341452002304" y2="118.590816758105"/>
    <line x1="71.341452002304" y1="118.590816758105" x2="71.2900000000004" y2="118.2"/>
    <line x1="71.2900000000004" y1="118.2" x2="71.341452002304" y2="117.809183241895"/>
    <line x1="71.341452002304" y1="117.809183241895" x2="71.492301640286" y2="117.445"/>
    <line x1="71.492301640286" y1="117.445" x2="71.7322687604087" y2="117.132268760408"/>
    <line x1="71.7322687604087" y1="117.132268760408" x2="72.0450000000005" y2="116.892301640285"/>
    <line x1="72.0450000000005" y1="116.892301640285" x2="72.4091832418956" y2="116.741452002303"/>
    <line x1="72.4091832418956" y1="116.741452002303" x2="72.8000000000004" y2="116.69"/>
    <line x1="72.8000000000004" y1="116.69" x2="73.1908167581052" y2="116.741452002303"/>
    <line x1="73.1908167581052" y1="116.741452002303" x2="73.5550000000004" y2="116.892301640285"/>
    <line x1="73.5550000000004" y1="116.892301640285" x2="73.867731239592" y2="117.132268760408"/>
    <line x1="73.867731239592" y1="117.132268760408" x2="74.1076983597149" y2="117.445"/>
    <line x1="74.1076983597149" y1="117.445" x2="74.2585479976968" y2="117.809183241895"/>
    <line x1="74.2585479976968" y1="117.809183241895" x2="74.3100000000003" y2="118.2"/>
    <line x1="74.3100000000003" y1="118.2" x2="74.2585479976968" y2="118.590816758105"/>
    <line x1="74.2585479976968" y1="118.590816758105" x2="74.1076983597148" y2="118.955"/>
    <line x1="74.1076983597148" y1="118.955" x2="73.867731239592" y2="119.267731239591"/>
    <line x1="73.867731239592" y1="119.267731239591" x2="73.5550000000004" y2="119.507698359714"/>
    <line x1="24.1585479976967" y1="124.590816758104" x2="24.0076983597147" y2="124.954999999999"/>
    <line x1="24.0076983597147" y1="124.954999999999" x2="23.7677312395919" y2="125.267731239591"/>
    <line x1="23.7677312395919" y1="125.267731239591" x2="23.4550000000002" y2="125.507698359713"/>
    <line x1="23.4550000000002" y1="125.507698359713" x2="23.090816758105" y2="125.658547997695"/>
    <line x1="23.090816758105" y1="125.658547997695" x2="22.7000000000003" y2="125.709999999999"/>
    <line x1="22.7000000000003" y1="125.709999999999" x2="22.3091832418955" y2="125.658547997695"/>
    <line x1="22.3091832418955" y1="125.658547997695" x2="21.9450000000003" y2="125.507698359713"/>
    <line x1="21.9450000000003" y1="125.507698359713" x2="21.6322687604086" y2="125.267731239591"/>
    <line x1="21.6322687604086" y1="125.267731239591" x2="21.3923016402858" y2="124.954999999999"/>
    <line x1="21.3923016402858" y1="124.954999999999" x2="21.2414520023038" y2="124.590816758104"/>
    <line x1="21.2414520023038" y1="124.590816758104" x2="21.1900000000003" y2="124.199999999999"/>
    <line x1="21.1900000000003" y1="124.199999999999" x2="21.2414520023038" y2="123.809183241894"/>
    <line x1="21.2414520023038" y1="123.809183241894" x2="21.3923016402858" y2="123.444999999999"/>
    <line x1="21.3923016402858" y1="123.444999999999" x2="21.6322687604086" y2="123.132268760407"/>
    <line x1="21.6322687604086" y1="123.132268760407" x2="21.9450000000003" y2="122.892301640285"/>
    <line x1="21.9450000000003" y1="122.892301640285" x2="22.3091832418955" y2="122.741452002303"/>
    <line x1="22.3091832418955" y1="122.741452002303" x2="22.7000000000003" y2="122.689999999999"/>
    <line x1="22.7000000000003" y1="122.689999999999" x2="23.0908167581051" y2="122.741452002303"/>
    <line x1="23.0908167581051" y1="122.741452002303" x2="23.4550000000003" y2="122.892301640285"/>
    <line x1="23.4550000000003" y1="122.892301640285" x2="23.767731239592" y2="123.132268760407"/>
    <line x1="23.767731239592" y1="123.132268760407" x2="24.0076983597148" y2="123.444999999999"/>
    <line x1="24.0076983597148" y1="123.444999999999" x2="24.1585479976968" y2="123.809183241894"/>
    <line x1="24.1585479976968" y1="123.809183241894" x2="24.2100000000002" y2="124.199999999999"/>
    <line x1="24.2100000000002" y1="124.199999999999" x2="24.1585479976967" y2="124.590816758104"/>
    <line x1="130.0" y1="14.0" x2="130.0" y2="24.0000000000001"/>
    <line x1="130.0" y1="24.0000000000001" x2="127.0" y2="24.0000000000001"/>
    <line x1="127.0" y1="24.0000000000001" x2="127.0" y2="14.0000000000001"/>
    <line x1="127.0" y1="14.0000000000001" x2="130.0" y2="14.0"/>
    <line x1="127.0" y1="120.0" x2="127.0" y2="100.0"/>
    <line x1="127.0" y1="100.0" x2="130.0" y2="100.0"/>
    <line x1="130.0" y1="100.0" x2="130.0" y2="120.0"/>
    <line x1="130.0" y1="120.0" x2="127.0" y2="120.0"/>
    <line x1="3.99999999999717" y1="99.4999999999981" x2="6.99999999999791" y2="99.4999999999981"/>
    <line x1="6.99999999999791" y1="99.4999999999981" x2="6.99999999999796" y2="109.499999999998"/>
    <line x1="6.99999999999796" y1="109.499999999998" x2="3.99999999999717" y2="109.499999999998"/>
    <line x1="3.99999999999717" y1="109.499999999998" x2="3.99999999999717" y2="99.4999999999981"/>
    <line x1="4.00000000000004" y1="13.9999999999999" x2="7.00000000000003" y2="14.0000000000001"/>
    <line x1="7.00000000000003" y1="14.0000000000001" x2="7.00000000000003" y2="24.0000000000001"/>
    <line x1="7.00000000000003" y1="24.0000000000001" x2="4.00000000000004" y2="24.0000000000001"/>
    <line x1="4.00000000000004" y1="24.0000000000001" x2="4.00000000000004" y2="13.9999999999999"/>
    <line x1="128.5" y1="90.0000000000001" x2="128.111771432346" y2="89.9488887394337"/>
    <line x1="128.111771432346" y1="89.9488887394337" x2="127.75" y2="89.7990381056767"/>
    <line x1="127.75" y1="89.7990381056767" x2="127.43933982822" y2="89.5606601717799"/>
    <line x1="127.43933982822" y1="89.5606601717799" x2="127.200961894323" y2="89.25"/>
    <line x1="127.200961894323" y1="89.25" x2="127.051111260566" y2="88.8882285676538"/>
    <line x1="127.051111260566" y1="88.8882285676538" x2="127.0" y2="88.5"/>
    <line x1="127.0" y1="88.5" x2="127.051111260566" y2="88.1117714323462"/>
    <line x1="127.051111260566" y1="88.1117714323462" x2="127.200961894323" y2="87.75"/>
    <line x1="127.200961894323" y1="87.75" x2="127.43933982822" y2="87.4393398282203"/>
    <line x1="127.43933982822" y1="87.4393398282203" x2="127.75" y2="87.2009618943233"/>
    <line x1="127.75" y1="87.2009618943233" x2="128.111771432346" y2="87.0511112605664"/>
    <line x1="128.111771432346" y1="87.0511112605664" x2="128.5" y2="87.0000000000001"/>
    <line x1="128.5" y1="87.0000000000001" x2="128.888228567654" y2="87.0511112605664"/>
    <line x1="128.888228567654" y1="87.0511112605664" x2="129.25" y2="87.2009618943234"/>
    <line x1="129.25" y1="87.2009618943234" x2="129.56066017178" y2="87.4393398282203"/>
    <line x1="129.56066017178" y1="87.4393398282203" x2="129.799038105677" y2="87.75"/>
    <line x1="129.799038105677" y1="87.75" x2="129.948888739434" y2="88.1117714323463"/>
    <line x1="129.948888739434" y1="88.1117714323463" x2="130.0" y2="88.5"/>
    <line x1="130.0" y1="88.5" x2="129.948888739434" y2="88.8882285676538"/>
    <line x1="129.948888739434" y1="88.8882285676538" x2="129.799038105677" y2="89.2500000000001"/>
    <line x1="129.799038105677" y1="89.2500000000001" x2="129.56066017178" y2="89.5606601717799"/>
    <line x1="129.56066017178" y1="89.5606601717799" x2="129.25" y2="89.7990381056768"/>
    <line x1="129.25" y1="89.7990381056768" x2="128.888228567654" y2="89.9488887394337"/>
    <line x1="128.888228567654" y1="89.9488887394337" x2="128.5" y2="90.0000000000001"/>
    <line x1="128.5" y1="32.0" x2="128.111771432346" y2="31.9488887394337"/>
    <line x1="128.111771432346" y1="31.9488887394337" x2="127.75" y2="31.7990381056767"/>
    <line x1="127.75" y1="31.7990381056767" x2="127.43933982822" y2="31.5606601717799"/>
    <line x1="127.43933982822" y1="31.5606601717799" x2="127.200961894323" y2="31.2500000000001"/>
    <line x1="127.200961894323" y1="31.2500000000001" x2="127.051111260566" y2="30.8882285676538"/>
    <line x1="127.051111260566" y1="30.8882285676538" x2="127.0" y2="30.5"/>
    <line x1="127.0" y1="30.5" x2="127.051111260566" y2="30.1117714323462"/>
    <line x1="127.051111260566" y1="30.1117714323462" x2="127.200961894323" y2="29.7500000000001"/>
    <line x1="127.200961894323" y1="29.7500000000001" x2="127.43933982822" y2="29.4393398282203"/>
    <line x1="127.43933982822" y1="29.4393398282203" x2="127.75" y2="29.2009618943234"/>
    <line x1="127.75" y1="29.2009618943234" x2="128.111771432346" y2="29.0511112605665"/>
    <line x1="128.111771432346" y1="29.0511112605665" x2="128.5" y2="29.0"/>
    <line x1="128.5" y1="29.0" x2="128.888228567654" y2="29.0511112605664"/>
    <line x1="128.888228567654" y1="29.0511112605664" x2="129.25" y2="29.2009618943234"/>
    <line x1="129.25" y1="29.2009618943234" x2="129.56066017178" y2="29.4393398282203"/>
    <line x1="129.56066017178" y1="29.4393398282203" x2="129.799038105677" y2="29.7500000000001"/>
    <line x1="129.799038105677" y1="29.7500000000001" x2="129.948888739434" y2="30.1117714323462"/>
    <line x1="129.948888739434" y1="30.1117714323462" x2="130.0" y2="30.5000000000001"/>
    <line x1="130.0" y1="30.5000000000001" x2="129.948888739434" y2="30.8882285676539"/>
    <line x1="129.948888739434" y1="30.8882285676539" x2="129.799038105677" y2="31.2500000000001"/>
    <line x1="129.799038105677" y1="31.2500000000001" x2="129.56066017178" y2="31.5606601717799"/>
    <line x1="129.56066017178" y1="31.5606601717799" x2="129.25" y2="31.7990381056767"/>
    <line x1="129.25" y1="31.7990381056767" x2="128.888228567654" y2="31.9488887394337"/>
    <line x1="128.888228567654" y1="31.9488887394337" x2="128.5" y2="32.0"/>
    <line x1="5.50000000000004" y1="32.0" x2="5.11177143234626" y2="31.9488887394336"/>
    <line x1="5.11177143234626" y1="31.9488887394336" x2="4.75000000000003" y2="31.7990381056767"/>
    <line x1="4.75000000000003" y1="31.7990381056767" x2="4.43933982822021" y2="31.5606601717798"/>
    <line x1="4.43933982822021" y1="31.5606601717798" x2="4.20096189432339" y2="31.2500000000002"/>
    <line x1="4.20096189432339" y1="31.2500000000002" x2="4.05111126056643" y2="30.8882285676538"/>
    <line x1="4.05111126056643" y1="30.8882285676538" x2="4.00000000000004" y2="30.5000000000001"/>
    <line x1="4.00000000000004" y1="30.5000000000001" x2="4.05111126056643" y2="30.1117714323463"/>
    <line x1="4.05111126056643" y1="30.1117714323463" x2="4.20096189432339" y2="29.7500000000001"/>
    <line x1="4.20096189432339" y1="29.7500000000001" x2="4.43933982822021" y2="29.4393398282203"/>
    <line x1="4.43933982822021" y1="29.4393398282203" x2="4.75000000000003" y2="29.2009618943234"/>
    <line x1="4.75000000000003" y1="29.2009618943234" x2="5.11177143234626" y2="29.0511112605665"/>
    <line x1="5.11177143234626" y1="29.0511112605665" x2="5.50000000000004" y2="29.0"/>
    <line x1="5.50000000000004" y1="29.0" x2="5.88822856765382" y2="29.0511112605664"/>
    <line x1="5.88822856765382" y1="29.0511112605664" x2="6.25000000000005" y2="29.2009618943234"/>
    <line x1="6.25000000000005" y1="29.2009618943234" x2="6.56066017177986" y2="29.4393398282203"/>
    <line x1="6.56066017177986" y1="29.4393398282203" x2="6.79903810567669" y2="29.7500000000001"/>
    <line x1="6.79903810567669" y1="29.7500000000001" x2="6.94888873943364" y2="30.1117714323463"/>
    <line x1="6.94888873943364" y1="30.1117714323463" x2="7.00000000000003" y2="30.5000000000001"/>
    <line x1="7.00000000000003" y1="30.5000000000001" x2="6.94888873943364" y2="30.8882285676538"/>
    <line x1="6.94888873943364" y1="30.8882285676538" x2="6.79903810567671" y2="31.2500000000001"/>
    <line x1="6.79903810567671" y1="31.2500000000001" x2="6.56066017177986" y2="31.5606601717799"/>
    <line x1="6.56066017177986" y1="31.5606601717799" x2="6.25000000000005" y2="31.7990381056767"/>
    <line x1="6.25000000000005" y1="31.7990381056767" x2="5.88822856765382" y2="31.9488887394337"/>
    <line x1="5.88822856765382" y1="31.9488887394337" x2="5.50000000000004" y2="32.0"/>
    <line x1="12.0" y1="72.0000000000001" x2="12.0" y2="69.0"/>
    <line x1="12.0" y1="69.0" x2="32.0" y2="69.0"/>
    <line x1="32.0" y1="69.0" x2="32.0" y2="72.0"/>
    <line x1="32.0" y1="72.0" x2="12.0" y2="72.0000000000001"/>
    <line x1="122.0" y1="72.0000000000001" x2="102.0" y2="72.0000000000001"/>
    <line x1="102.0" y1="72.0000000000001" x2="102.0" y2="69.0"/>
    <line x1="102.0" y1="69.0" x2="122.0" y2="69.0"/>
    <line x1="122.0" y1="69.0" x2="122.0" y2="72.0000000000001"/>
    <line x1="65.5511112605664" y1="70.8882285676539" x2="65.5" y2="70.5000000000001"/>
    <line x1="65.5" y1="70.5000000000001" x2="65.5511112605664" y2="70.1117714323462"/>
    <line x1="65.5511112605664" y1="70.1117714323462" x2="65.7009618943233" y2="69.75"/>
    <line x1="65.7009618943233" y1="69.75" x2="65.9393398282202" y2="69.4393398282203"/>
    <line x1="65.9393398282202" y1="69.4393398282203" x2="66.25" y2="69.2009618943233"/>
    <line x1="66.25" y1="69.2009618943233" x2="66.6117714323462" y2="69.0511112605664"/>
    <line x1="66.6117714323462" y1="69.0511112605664" x2="67.0" y2="69.0"/>
    <line x1="67.0" y1="69.0" x2="67.3882285676538" y2="69.0511112605664"/>
    <line x1="67.3882285676538" y1="69.0511112605664" x2="67.75" y2="69.2009618943233"/>
    <line x1="67.75" y1="69.2009618943233" x2="68.0606601717799" y2="69.4393398282203"/>
    <line x1="68.0606601717799" y1="69.4393398282203" x2="68.2990381056767" y2="69.7500000000001"/>
    <line x1="68.2990381056767" y1="69.7500000000001" x2="68.4488887394337" y2="70.1117714323463"/>
    <line x1="68.4488887394337" y1="70.1117714323463" x2="68.5000000000001" y2="70.5000000000001"/>
    <line x1="68.5000000000001" y1="70.5000000000001" x2="68.4488887394337" y2="70.8882285676538"/>
    <line x1="68.4488887394337" y1="70.8882285676538" x2="68.2990381056767" y2="71.2500000000001"/>
    <line x1="68.2990381056767" y1="71.2500000000001" x2="68.0606601717799" y2="71.5606601717799"/>
    <line x1="68.0606601717799" y1="71.5606601717799" x2="67.7500000000001" y2="71.7990381056767"/>
    <line x1="67.7500000000001" y1="71.7990381056767" x2="67.3882285676538" y2="71.9488887394336"/>
    <line x1="67.3882285676538" y1="71.9488887394336" x2="67.0" y2="72.0"/>
    <line x1="67.0" y1="72.0" x2="66.6117714323463" y2="71.9488887394337"/>
    <line x1="66.6117714323463" y1="71.9488887394337" x2="66.25" y2="71.7990381056768"/>
    <line x1="66.25" y1="71.7990381056768" x2="65.9393398282202" y2="71.5606601717799"/>
    <line x1="65.9393398282202" y1="71.5606601717799" x2="65.7009618943234" y2="71.2500000000001"/>
    <line x1="65.7009618943234" y1="71.2500000000001" x2="65.5511112605664" y2="70.8882285676539"/>
  </g>
</svg>
