<?xml version="1.0" standalone="no"?>
<!DOCTYPE svg PUBLIC "-//W3C//DTD SVG 1.1//EN" "http://www.w3.org/Graphics/SVG/1.1/DTD/svg11.dtd">
<svg width="134.0mm" height="134.0mm"
 viewBox="0 0 134.0 134.0"
 xmlns="http://www.w3.org/2000/svg" version="1.1"
 xmlns:xlink="http://www.w3.org/1999/xlink">
<desc>Output from Flights of Ideas SVG Sketchup Plugin</desc>

  <g id="face0" fill="none" stroke="rgb(0,0,255)" stroke-width="1" stroke-miterlimit="4" stroke-dasharray="none" stroke-linejoin="round" stroke-linecap="round">
    <line x1="1.0" y1="1.0" x2="1.0" y2="24.5735931288071"/>
    <line x1="1.0" y1="24.5735931288071" x2="24.5735931288071" y2="24.5735931288071"/>
    <line x1="24.5735931288071" y1="24.5735931288071" x2="36.9999999999999" y2="15.0384757729337"/>
    <line x1="36.9999999999999" y1="15.0384757729337" x2="51.4708572938487" y2="9.04445042265593"/>
    <line x1="51.4708572938487" y1="9.04445042265593" x2="66.9999999999999" y2="7.00000000000011"/>
    <line x1="66.9999999999999" y1="7.00000000000011" x2="82.5291427061512" y2="9.04445042265598"/>
    <line x1="82.5291427061512" y1="9.04445042265598" x2="96.9999999999999" y2="15.0384757729336"/>
    <line x1="96.9999999999999" y1="15.0384757729336" x2="109.426406871193" y2="24.5735931288071"/>
    <line x1="109.426406871193" y1="24.5735931288071" x2="118.961524227066" y2="37.0"/>
    <line x1="118.961524227066" y1="37.0" x2="124.955549577344" y2="51.4708572938487"/>
    <line x1="124.955549577344" y1="51.4708572938487" x2="127.0" y2="67.0000000000001"/>
    <line x1="127.0" y1="67.0000000000001" x2="124.955549577344" y2="82.5291427061513"/>
    <line x1="124.955549577344" y1="82.5291427061513" x2="118.961524227066" y2="96.9999999999999"/>
    <line x1="118.961524227066" y1="96.9999999999999" x2="109.426406871193" y2="109.426406871193"/>
    <line x1="109.426406871193" y1="109.426406871193" x2="97.0" y2="118.961524227066"/>
    <line x1="97.0" y1="118.961524227066" x2="82.5291427061512" y2="124.955549577344"/>
    <line x1="82.5291427061512" y1="124.955549577344" x2="66.9999999999999" y2="127.0"/>
    <line x1="66.9999999999999" y1="127.0" x2="51.4708572938487" y2="124.955549577344"/>
    <line x1="51.4708572938487" y1="124.955549577344" x2="37.0" y2="118.961524227066"/>
    <line x1="37.0" y1="118.961524227066" x2="24.5735931288071" y2="109.426406871193"/>
    <line x1="24.5735931288071" y1="109.426406871193" x2="1.0" y2="109.426406871193"/>
    <line x1="1.0" y1="109.426406871193" x2="1.0" y2="133.0"/>
    <line x1="1.0" y1="133.0" x2="133.0" y2="133.0"/>
    <line x1="133.0" y1="133.0" x2="133.0" y2="1.0"/>
    <line x1="133.0" y1="1.0" x2="1.0" y2="1.0"/>
    <line x1="115.1" y1="130.0" x2="105.1" y2="130.0"/>
    <line x1="105.1" y1="130.0" x2="105.1" y2="127.0"/>
    <line x1="105.1" y1="127.0" x2="115.1" y2="127.0"/>
    <line x1="115.1" y1="127.0" x2="115.1" y2="130.0"/>
    <line x1="130.0" y1="102.0" x2="130.0" y2="122.0"/>
    <line x1="130.0" y1="122.0" x2="127.0" y2="122.0"/>
    <line x1="127.0" y1="122.0" x2="127.0" y2="102.0"/>
    <line x1="127.0" y1="102.0" x2="130.0" y2="102.0"/>
    <line x1="130.0" y1="32.0000000000001" x2="127.0" y2="32.0"/>
    <line x1="127.0" y1="32.0" x2="127.0" y2="12.0000000000001"/>
    <line x1="127.0" y1="12.0000000000001" x2="130.0" y2="12.0000000000001"/>
    <line x1="130.0" y1="12.0000000000001" x2="130.0" y2="32.0000000000001"/>
    <line x1="115.1" y1="3.99999999999989" x2="115.1" y2="7.00000000000023"/>
    <line x1="115.1" y1="7.00000000000023" x2="105.1" y2="7.00000000000017"/>
    <line x1="105.1" y1="7.00000000000017" x2="105.1" y2="4.00000000000045"/>
    <line x1="105.1" y1="4.00000000000045" x2="115.1" y2="3.99999999999989"/>
    <line x1="18.9" y1="130.0" x2="18.9" y2="127.0"/>
    <line x1="18.9" y1="127.0" x2="28.9" y2="127.0"/>
    <line x1="28.9" y1="127.0" x2="28.9" y2="130.0"/>
    <line x1="28.9" y1="130.0" x2="18.9" y2="130.0"/>
    <line x1="28.9" y1="4.0" x2="28.9" y2="6.99999999999994"/>
    <line x1="28.9" y1="6.99999999999994" x2="18.9" y2="7.0"/>
    <line x1="18.9" y1="7.0" x2="18.9" y2="4.0"/>
    <line x1="18.9" y1="4.0" x2="28.9" y2="4.0"/>
    <line x1="120.151111260566" y1="128.888228567654" x2="120.1" y2="128.5"/>
    <line x1="120.1" y1="128.5" x2="120.151111260566" y2="128.111771432346"/>
    <line x1="120.151111260566" y1="128.111771432346" x2="120.300961894323" y2="127.75"/>
    <line x1="120.300961894323" y1="127.75" x2="120.53933982822" y2="127.43933982822"/>
    <line x1="120.53933982822" y1="127.43933982822" x2="120.85" y2="127.200961894323"/>
    <line x1="120.85" y1="127.200961894323" x2="121.211771432346" y2="127.051111260566"/>
    <line x1="121.211771432346" y1="127.051111260566" x2="121.6" y2="127.0"/>
    <line x1="121.6" y1="127.0" x2="121.988228567654" y2="127.051111260566"/>
    <line x1="121.988228567654" y1="127.051111260566" x2="122.35" y2="127.200961894323"/>
    <line x1="122.35" y1="127.200961894323" x2="122.66066017178" y2="127.43933982822"/>
    <line x1="122.66066017178" y1="127.43933982822" x2="122.899038105677" y2="127.75"/>
    <line x1="122.899038105677" y1="127.75" x2="123.048888739434" y2="128.111771432346"/>
    <line x1="123.048888739434" y1="128.111771432346" x2="123.1" y2="128.5"/>
    <line x1="123.1" y1="128.5" x2="123.048888739434" y2="128.888228567654"/>
    <line x1="123.048888739434" y1="128.888228567654" x2="122.899038105677" y2="129.25"/>
    <line x1="122.899038105677" y1="129.25" x2="122.66066017178" y2="129.56066017178"/>
    <line x1="122.66066017178" y1="129.56066017178" x2="122.35" y2="129.799038105677"/>
    <line x1="122.35" y1="129.799038105677" x2="121.988228567654" y2="129.948888739434"/>
    <line x1="121.988228567654" y1="129.948888739434" x2="121.6" y2="130.0"/>
    <line x1="121.6" y1="130.0" x2="121.211771432346" y2="129.948888739434"/>
    <line x1="121.211771432346" y1="129.948888739434" x2="120.85" y2="129.799038105677"/>
    <line x1="120.85" y1="129.799038105677" x2="120.53933982822" y2="129.56066017178"/>
    <line x1="120.53933982822" y1="129.56066017178" x2="120.300961894323" y2="129.25"/>
    <line x1="120.300961894323" y1="129.25" x2="120.151111260566" y2="128.888228567654"/>
    <line x1="11.0511112605664" y1="128.888228567654" x2="11.0" y2="128.5"/>
    <line x1="11.0" y1="128.5" x2="11.0511112605664" y2="128.111771432346"/>
    <line x1="11.0511112605664" y1="128.111771432346" x2="11.2009618943233" y2="127.75"/>
    <line x1="11.2009618943233" y1="127.75" x2="11.4393398282202" y2="127.43933982822"/>
    <line x1="11.4393398282202" y1="127.43933982822" x2="11.75" y2="127.200961894323"/>
    <line x1="11.75" y1="127.200961894323" x2="12.1117714323462" y2="127.051111260566"/>
    <line x1="12.1117714323462" y1="127.051111260566" x2="12.5" y2="127.0"/>
    <line x1="12.5" y1="127.0" x2="12.8882285676538" y2="127.051111260566"/>
    <line x1="12.8882285676538" y1="127.051111260566" x2="13.25" y2="127.200961894323"/>
    <line x1="13.25" y1="127.200961894323" x2="13.5606601717798" y2="127.43933982822"/>
    <line x1="13.5606601717798" y1="127.43933982822" x2="13.7990381056767" y2="127.75"/>
    <line x1="13.7990381056767" y1="127.75" x2="13.9488887394336" y2="128.111771432346"/>
    <line x1="13.9488887394336" y1="128.111771432346" x2="14.0" y2="128.5"/>
    <line x1="14.0" y1="128.5" x2="13.9488887394336" y2="128.888228567654"/>
    <line x1="13.9488887394336" y1="128.888228567654" x2="13.7990381056767" y2="129.25"/>
    <line x1="13.7990381056767" y1="129.25" x2="13.5606601717798" y2="129.56066017178"/>
    <line x1="13.5606601717798" y1="129.56066017178" x2="13.25" y2="129.799038105677"/>
    <line x1="13.25" y1="129.799038105677" x2="12.8882285676538" y2="129.948888739434"/>
    <line x1="12.8882285676538" y1="129.948888739434" x2="12.5" y2="130.0"/>
    <line x1="12.5" y1="130.0" x2="12.1117714323462" y2="129.948888739434"/>
    <line x1="12.1117714323462" y1="129.948888739434" x2="11.75" y2="129.799038105677"/>
    <line x1="11.75" y1="129.799038105677" x2="11.4393398282202" y2="129.56066017178"/>
    <line x1="11.4393398282202" y1="129.56066017178" x2="11.2009618943233" y2="129.25"/>
    <line x1="11.2009618943233" y1="129.25" x2="11.0511112605664" y2="128.888228567654"/>
    <line x1="120.151111260566" y1="5.88822856765427" x2="120.1" y2="5.5"/>
    <line x1="120.1" y1="5.5" x2="120.151111260566" y2="5.11177143234579"/>
    <line x1="120.151111260566" y1="5.11177143234579" x2="120.300961894323" y2="4.74999999999972"/>
    <line x1="120.300961894323" y1="4.74999999999972" x2="120.53933982822" y2="4.43933982822028"/>
    <line x1="120.53933982822" y1="4.43933982822028" x2="120.85" y2="4.20096189432263"/>
    <line x1="120.85" y1="4.20096189432263" x2="121.211771432346" y2="4.05111126056647"/>
    <line x1="121.211771432346" y1="4.05111126056647" x2="121.6" y2="4.00000000000006"/>
    <line x1="121.6" y1="4.00000000000006" x2="121.988228567654" y2="4.05111126056573"/>
    <line x1="121.988228567654" y1="4.05111126056573" x2="122.35" y2="4.20096189432286"/>
    <line x1="122.35" y1="4.20096189432286" x2="122.66066017178" y2="4.43933982822057"/>
    <line x1="122.66066017178" y1="4.43933982822057" x2="122.899038105677" y2="4.75000000000034"/>
    <line x1="122.899038105677" y1="4.75000000000034" x2="123.048888739434" y2="5.11177143234636"/>
    <line x1="123.048888739434" y1="5.11177143234636" x2="123.1" y2="5.49999999999994"/>
    <line x1="123.1" y1="5.49999999999994" x2="123.048888739434" y2="5.8882285676537"/>
    <line x1="123.048888739434" y1="5.8882285676537" x2="122.899038105677" y2="6.24999999999989"/>
    <line x1="122.899038105677" y1="6.24999999999989" x2="122.66066017178" y2="6.56066017177972"/>
    <line x1="122.66066017178" y1="6.56066017177972" x2="122.35" y2="6.79903810567686"/>
    <line x1="122.35" y1="6.79903810567686" x2="121.988228567654" y2="6.9488887394337"/>
    <line x1="121.988228567654" y1="6.9488887394337" x2="121.6" y2="6.99999999999994"/>
    <line x1="121.6" y1="6.99999999999994" x2="121.211771432346" y2="6.94888873943341"/>
    <line x1="121.211771432346" y1="6.94888873943341" x2="120.85" y2="6.79903810567646"/>
    <line x1="120.85" y1="6.79903810567646" x2="120.53933982822" y2="6.56066017177989"/>
    <line x1="120.53933982822" y1="6.56066017177989" x2="120.300961894323" y2="6.2499999999996"/>
    <line x1="120.300961894323" y1="6.2499999999996" x2="120.151111260566" y2="5.88822856765427"/>
    <line x1="11.0511112605664" y1="5.88822856765375" x2="11.0" y2="5.5"/>
    <line x1="11.0" y1="5.5" x2="11.0511112605664" y2="5.11177143234625"/>
    <line x1="11.0511112605664" y1="5.11177143234625" x2="11.2009618943233" y2="4.75"/>
    <line x1="11.2009618943233" y1="4.75" x2="11.4393398282202" y2="4.43933982822017"/>
    <line x1="11.4393398282202" y1="4.43933982822017" x2="11.75" y2="4.20096189432337"/>
    <line x1="11.75" y1="4.20096189432337" x2="12.1117714323462" y2="4.05111126056636"/>
    <line x1="12.1117714323462" y1="4.05111126056636" x2="12.5" y2="4.0"/>
    <line x1="12.5" y1="4.0" x2="12.8882285676538" y2="4.05111126056636"/>
    <line x1="12.8882285676538" y1="4.05111126056636" x2="13.2499999999999" y2="4.20096189432337"/>
    <line x1="13.2499999999999" y1="4.20096189432337" x2="13.5606601717798" y2="4.43933982822017"/>
    <line x1="13.5606601717798" y1="4.43933982822017" x2="13.7990381056766" y2="4.75"/>
    <line x1="13.7990381056766" y1="4.75" x2="13.9488887394336" y2="5.11177143234625"/>
    <line x1="13.9488887394336" y1="5.11177143234625" x2="13.9999999999999" y2="5.5"/>
    <line x1="13.9999999999999" y1="5.5" x2="13.9488887394336" y2="5.88822856765375"/>
    <line x1="13.9488887394336" y1="5.88822856765375" x2="13.7990381056766" y2="6.25"/>
    <line x1="13.7990381056766" y1="6.25" x2="13.5606601717798" y2="6.56066017177983"/>
    <line x1="13.5606601717798" y1="6.56066017177983" x2="13.2499999999999" y2="6.79903810567663"/>
    <line x1="13.2499999999999" y1="6.79903810567663" x2="12.8882285676538" y2="6.94888873943358"/>
    <line x1="12.8882285676538" y1="6.94888873943358" x2="12.5" y2="7.0"/>
    <line x1="12.5" y1="7.0" x2="12.1117714323462" y2="6.94888873943358"/>
    <line x1="12.1117714323462" y1="6.94888873943358" x2="11.75" y2="6.79903810567663"/>
    <line x1="11.75" y1="6.79903810567663" x2="11.4393398282202" y2="6.56066017177983"/>
    <line x1="11.4393398282202" y1="6.56066017177983" x2="11.2009618943233" y2="6.25"/>
    <line x1="11.2009618943233" y1="6.25" x2="11.0511112605664" y2="5.88822856765375"/>
  </g>
</svg>
