<svg xmlns="http://www.w3.org/2000/svg" id="left_m_2"  data-name="Layer 1" viewBox="114.08 0 492.08 378">
 <defs>
  
    <filter xmlns="http://www.w3.org/2000/svg" id="dropshadow" height="130%">
				<feGaussianBlur in="SourceAlpha" stdDeviation="0"/> 
				<feOffset dx="3" dy="9" result="offsetblur"/>
				<feComponentTransfer>
					<feFuncA type="linear" slope="0.2"/>
				</feComponentTransfer>
				<feMerge> 
					<feMergeNode/>
					<feMergeNode in="SourceGraphic"/> 
				</feMerge>
	</filter>

  </defs>

<path filter="url(#dropshadow)" d="M30.08 265.82l2.07-17a204.15 204.15 0 0 1 9.38-36.08 174 174 0 0 1 7.79-19 7 7 0 0 1 1.85-2.74 2.4 2.4 0 0 1 1.54-.49c1.67.14 2.61 2 2.21 3.92a5 5 0 0 1-.4 1.19c-.18.5-14.77 50.91-13.73 75.27l3.37 9.29a106.14 106.14 0 0 0 30.92 15.46s1.39.55 3.8 1.39l-6.73-37.79c-1.76-23.94.62-34.12 4.55-53.06l.6-2.91c1.48-5.74 3.41-14.78 6.73-15.66 4.1 1 1.15 9.3-.11 15.45-.05.56-.39 2.51-.44 3.05-2.29 24.53-4.55 34.33.2 60.92l9.91 34.49c4.56 1.2 9.65 2.34 14.87 3.18-5-18-5-28.14-5.49-45.25 0-1-.05-2-.08-3 .13-5.93-.06-15.17 3-16.79 4.23.08 3.25 8.79 3.42 15.06.08.56.2 2.53.27 3.07 2.82 20.38 3.31 30.76 9.63 48.07l1 .05c14.77.67 30.46 2.09 48.16-1.86-4.18-9.31-6.37-17.4-9.58-28.7l-.79-2.78c-1.3-5.62-3.71-14.28-1.25-16.54 4-.95 5.18 7.51 6.85 13.38.21.51.79 2.34 1 2.83 5.06 12.38 8.06 20.81 12.52 29.45a109.26 109.26 0 0 0 15.86-6.49c5.64-2.25 10.3-4 14.4-5.45L194.08 275c-10.29-14.17-12.73-21.4-17.57-34.66l-.75-2c-1.29-4.13-3.57-10.48-1.85-12.3 2.94-.93 4.29 5.33 5.86 9.62.18.37.72 1.71.9 2.06 8 16.09 10.37 23 23.54 37.71l12.16 11c8-3.12 14.67-6.42 25.07-14l23.33-20.91 6.36-30.69c1.4-13.79.74-21.35-.83-30.79l-14.22-4.49c-19.29-4-26.49-2.56-44.43-1.39-.4 0-1.83.23-2.24.26-4.51.8-10.59 2.78-11.27-.23.71-2.4 7.35-3.62 11.56-4.59l2.14-.38c13.89-2.48 21.36-4 38.79-2.23l18 3.73c-.68-3.84-1.42-8.17-2.18-13.33a109.58 109.58 0 0 0-2.22-16.3l-14.5-1.22c-26.27.5-35.2 4.52-58.17 11.34-.51.15-2.31.84-2.83 1-5.62 2.37-12.95 6.75-14.72 3 .21-3.33 8.48-6.88 13.67-9.39l2.67-1.13c17.33-7.33 26.59-11.53 49.77-14.39l21-.41c-5.53-16.42-14.31-28.82-22-40.84a106.23 106.23 0 0 0-7.63-10.3c-24.34 7-32.35 13.25-52.88 25.57-.47.28-2.08 1.43-2.56 1.72-5 3.8-11.16 10-13.88 6.78-.64-3.37 6.68-9 11.21-12.84l2.37-1.8c15.37-11.73 23.52-18.28 45.87-27l2.43-.67a185 185 0 0 0-16.44-15.21q-1.53-1.43-3.14-2.8c-19.07 9.27-26.39 16.64-43.39 30.65-.42.35-1.85 1.72-2.28 2.08-4.39 4.49-9.58 11.56-12.72 8.77-1.13-3.24 5.28-9.9 9.2-14.35l2.07-2.13c12.79-13.19 19.83-20.77 38.33-31.74a113.07 113.07 0 0 0-27.42-13.59l-9.23 3.29c-22.51 17.61-56.16 70-56.47 70.53a5.82 5.82 0 0 1-.75 1.29c-1.45 1.88-3.79 2.37-5.2.88a3.11 3.11 0 0 1-.75-1.84 8.6 8.6 0 0 1 .92-3.83 205.38 205.38 0 0 1 10.89-21.92c5.76-9.94 12.47-21.54 24.91-36.47l13.59-15s-66.18-1.35-89.65 33.2c-10 14.73-4.81 43.43-4.81 43.43s2.41 13.38 2.52 14.59c-1.11.51-13.88 5.15-13.88 5.15s-27.43 9.93-35.13 26c-20.25 42.23 24.86 104.33 24.86 104.33zm89.63-132.68c-1.13-2.62 2.37-6.53 5.37-10.43l2.32-2.58c3.4-3.62 8.43-9.48 11.25-8.83 2.63 2.37-2.86 7.26-6.25 11.25l-3.73 4.11c-3.4 3.97-6.14 8.64-8.96 6.48zm23.08 14c-.91-2.07 1.79-5.83 4.27-8.91l1.89-2c2.76-2.86 6.47-6.87 8.76-6.36 2.13 1.87-2.51 6-5.27 9.13l-3 3.25c-2.83 3.11-4.36 6.6-6.65 4.91zm12.29 86.69l.47 4.42c.3 4.18 1.54 10.25-1.28 10.46-2.13-1-2.69-6.4-3.17-10.34l-.28-2.76c-.13-4 0-8.59 1.95-9.69 2.85.02 1.98 3.73 2.31 7.91zm-42.51-20.72l-.93 5.47c-1 5.14-1.5 12.48-5 11.87-2.25-1.82-.75-9.4 0-14.3l.59-3.42c1.18-4.81 2.11-10 4.87-10.7 3.44.89 1.46 5.97.47 11.08z" class="monsteraleaf"/>
</svg>