<svg xmlns="http://www.w3.org/2000/svg" id="left_m_9" viewBox="0 0 378 378">
  <defs>
 
    <filter xmlns="http://www.w3.org/2000/svg" id="dropshadow" height="130%">
				<feGaussianBlur in="SourceAlpha" stdDeviation="0"/> 
				<feOffset dx="3" dy="9" result="offsetblur"/>
				<feComponentTransfer>
					<feFuncA type="linear" slope="0.2"/>
				</feComponentTransfer>
				<feMerge> 
					<feMergeNode/>
					<feMergeNode in="SourceGraphic"/> 
				</feMerge>
	</filter>
	
  </defs>

<path filter="url(#dropshadow)" d="M-.3 311.2L-9.9 297c-8.7-14-13-24.4-16.7-33.3-4.1-10-6.5-19.1-6.6-19.4-.3-1.1-.5-2.2-.3-3.3.1-.5.4-1.1.8-1.4 1.3-1 3.2-.2 4.2 1.5.2.3.4.7.5 1.2.2.5 22.4 48.1 39.2 65.7l8.7 4.8c11.6-1.1 23-4 33.4-8.7 0 0 1.4-.5 3.8-1.5l-29.9-24c-17.1-16.9-22-26.1-31.5-43-.5-.8-1-1.7-1.5-2.6-2.7-5.3-7.2-13.4-5.2-16.2 3.8-1.9 7 6.2 10.1 11.7.3.5 1.4 2.1 1.7 2.6 14.4 20 19.2 28.8 40.2 45.7l30.1 19.5c4.2-2.1 8.8-4.6 13.3-7.4-15.6-10.3-22.3-17.9-33.9-30.5-.7-.7-1.3-1.4-2-2.2-3.8-4.6-10-11.4-8.8-14.6 3.2-2.7 8.2 4.5 12.5 9.1.4.4 1.8 1.8 2.2 2.1 15.5 13.5 22.7 21 38.9 29.9.3-.2.5-.4.8-.6 11.6-9.2 24.3-18.5 35.1-33.1-9.3-4.3-16.2-8.9-26.1-15.3-.8-.5-1.6-1-2.4-1.6-4.7-3.4-12.2-8.3-11.8-11.6 2.4-3.3 8.8 2.2 14 5.6.5.2 2.1 1.2 2.6 1.5 12 6 19.8 10.4 28.8 13.9 2.8-4.6 5.4-9.7 7.7-15.3 2.8-5.4 5.2-9.8 7.3-13.6l-19.7-2.4c-17.1-3.9-23.7-7.7-36-14.5-.6-.3-1.3-.7-1.9-1-3.7-2.3-9.6-5.5-9.5-8 1.6-2.6 6.7 1.2 10.7 3.4.4.2 1.7.8 2 1 16.6 6.9 23 10.5 42.5 12.9l16.4.3c4-7.6 6.8-14.5 9.7-27l3.8-31.1-15.4-27.3c-8-11.3-13.5-16.6-20.9-22.6l-13.7 5.9c-17.2 9.7-21.6 15.5-34.4 28.2-.3.3-1.2 1.4-1.5 1.7-2.9 3.6-6.1 9.1-8.6 7.2-1-2.3 3.2-7.6 5.7-11.1.5-.6.9-1.1 1.4-1.7 8.8-11 13.5-17.1 27.7-27.2l16-9c-3-2.4-6.4-5.2-10.4-8.6-4.1-4.2-8.3-7.7-12.4-10.8l-11.7 8.6c-19.5 17.7-23.5 26.6-36.4 46.8-.3.5-1.2 2.2-1.5 2.6-2.7 5.5-5.3 13.6-9.1 12-2-2.7 1.9-10.8 4.1-16.1.4-.9.9-1.8 1.3-2.6 8.2-16.9 12.4-26.2 28-43.6L91 64.3C76.1 55.5 61.3 52 47.6 48c-4.1-1.2-8.3-2.1-12.5-2.7-13.7 21.3-15.6 31.3-23 54-.2.5-.6 2.4-.8 3-1.3 6.1-1.8 14.9-6 14.2-2.7-2.1-.9-11.2 0-17 .2-1 .4-2 .6-2.9 3.8-19 5.6-29.3 16.7-50.6l1.4-2.1c-12.5-1.1-22.4-.6-22.4-.6-1.4 0-2.8-.1-4.2 0-8.3 19.5-8.9 29.9-12.5 51.6-.1.5-.3 2.5-.4 3.1-.3 6.3.4 15-3.8 15-3-1.7-2.5-10.9-2.5-16.9.1-1 .1-2 .2-3 1-18.3 1.3-28.7 8-49.1-10.1 1.2-20.1 3.9-29.6 7.8l-4.8 8.6c-5.4 28.1 3.7 89.6 3.9 90.3.2.5.3 1 .3 1.5.1 2.4-1.3 4.3-3.3 4.1-.7 0-1.3-.5-1.8-.9-.9-1-1.4-2.2-1.8-3.5-.1-.4-3.7-11-6.2-23.7-2.2-11.3-4.8-24.4-5.2-43.9l.4-20.2s-50.7 42.5-45.7 84c2.2 17.7 25 35.9 25 35.9s10.6 8.5 11.5 9.3c-.5 1.1-7.1 13-7.1 13s-14.1 25.5-9.4 42.7c12.3 45 87.1 62.2 87.1 62.2zm-19.7-159c-2.6-1.2-2.5-6.5-2.8-11.4l.1-3.5c.2-5 .1-12.7 2.7-14.1 3.5.1 2.6 7.3 2.7 12.6l-.1 5.5c-.1 5.4.9 10.7-2.6 10.9zm26.6-4.6c-2-1-2.5-5.6-2.6-9.5l.1-2.8c.2-4 .4-9.4 2.4-10.5 2.8 0 2 6.1 2 10.3l-.1 4.4c-.1 4.2 1 7.9-1.8 8.1zm66.3 57.2l3.3 3c3 3 7.9 6.7 5.9 8.7-2.2.7-6.2-3-9.2-5.7l-2-1.9c-2.7-2.9-5.7-6.5-4.9-8.6 2.1-1.8 3.9 1.6 6.9 4.5zm-45.7 12.4l2.9 4.7c2.6 4.6 7.1 10.4 4 12.2-2.9.1-6.8-6.6-9.4-10.8l-1.8-3c-2.3-4.4-5-8.9-3.4-11.3 3.2-1.5 5.1 3.6 7.7 8.2z" class="monsteraleaf"/>
</svg>
