<svg xmlns="http://www.w3.org/2000/svg" id="left_m_3" viewBox="0 0 378 378">
 <defs>
  
    <filter xmlns="http://www.w3.org/2000/svg" id="dropshadow" height="130%">
				<feGaussianBlur in="SourceAlpha" stdDeviation="0"/> 
				<feOffset dx="3" dy="9" result="offsetblur"/>
				<feComponentTransfer>
					<feFuncA type="linear" slope="0.2"/>
				</feComponentTransfer>
				<feMerge> 
					<feMergeNode/>
					<feMergeNode in="SourceGraphic"/> 
				</feMerge>
	</filter>

  </defs>

<path filter="url(#dropshadow)" d="M-79.8 288.7l-.3-19.5c.5-18.7 3-31.3 5.1-42.1 2.4-12.1 5.8-22.2 5.9-22.6.4-1.2.9-2.4 1.7-3.3.5-.4 1-.8 1.7-.8 1.9-.1 3.2 1.8 3.1 4.1 0 .5-.1.9-.3 1.4-.1.6-8.9 59.6-4 86.9l5.2 10c11.7 6.2 24.4 10.6 37.2 12.6 0 0 1.7.4 4.5 1l-13.3-41.5c-5.6-26.7-4.5-38.5-3-60.4.1-1.1.2-2.2.2-3.4.8-6.7 1.6-17.2 5.2-18.7 4.8.5 2.7 10.3 2.2 17.4 0 .6-.1 2.9 0 3.5 1.2 28 .1 39.4 9.5 68.6l16.4 37.3c5.3.7 11.2 1.2 17.2 1.3C6 301 4.4 289.6 1.3 270.4c-.2-1.1-.4-2.2-.5-3.3-.8-6.7-2.4-17.1.8-19.4 4.8-.6 5 9.4 6.1 16.4.2.6.6 2.8.8 3.4 6.3 22.5 8.4 34.1 18.2 52.7.4 0 .7-.1 1.1-.1 16.7-1.5 34.6-2.3 54-9.4-6.1-9.8-9.8-18.6-15.2-30.9-.4-1-.9-2-1.3-3-2.3-6.1-6.4-15.5-3.9-18.4 4.4-1.7 7 7.7 9.8 14 .3.5 1.3 2.5 1.6 3 7.6 13.2 12.3 22.2 18.6 31.3 5.5-2.6 11.1-5.8 16.9-9.7 6-3.4 11-6 15.4-8.3L106.4 274c-13.8-14.4-17.6-22.2-25.1-36.3-.4-.7-.8-1.4-1.2-2.2-2.1-4.5-5.6-11.3-4-13.6 3.2-1.5 5.6 5.3 8.1 9.9.3.4 1.1 1.8 1.3 2.2 11.5 16.9 15.2 24.4 32.3 38.9l15.4 10.6c8.6-4.7 15.5-9.5 26.1-19.6l23.1-27.1 2.5-35.5c-.5-15.7-2.4-24.2-5.6-34.6l-16.7-2.9c-22.3-1.6-30.2 1.2-50.2 5.2-.4.1-2 .5-2.5.6-5 1.6-11.5 4.7-12.7 1.5.4-2.8 7.7-5.2 12.3-6.9.8-.3 1.6-.5 2.3-.8 15.3-4.9 23.4-7.8 43.3-8.4l20.8 1.5c-1.4-4.2-2.8-9-4.5-14.7-1.3-6.5-3-12.5-5-18l-16.5.8c-29.5 4.6-38.9 10.5-63.8 21.7-.6.2-2.5 1.3-3 1.6-6 3.5-13.6 9.6-16.1 5.7-.3-3.8 8.5-9 14-12.7 1-.6 1.9-1.1 2.8-1.7 18.4-10.9 28.2-17 53.9-23.8l23.6-3.7c-8.7-17.7-20.5-30.3-31-42.7-3.1-3.7-6.6-7.2-10.2-10.4-26.3 11.5-34.4 19.8-55.6 36.8-.5.4-2.1 1.9-2.6 2.3-5 5-11 13-14.6 9.8-1.2-3.7 6.1-11.2 10.7-16.2l2.4-2.4C75.8 73.4 84 64.8 107.9 51.5l2.6-1.1c-11.2-8.8-20.9-14.6-20.9-14.6-1.3-.9-2.6-1.8-4-2.7-20 13.3-27.1 22.8-44.2 41.1-.4.5-1.8 2.2-2.3 2.7-4.2 5.7-9 14.5-13 11.8-1.8-3.5 4.4-12 8.2-17.6.7-.9 1.4-1.8 2-2.7C48.8 51.7 55.6 42 74.7 26.9c-10.3-5.2-21.5-8.9-33-11.1l-9.9 5.1c-22.7 23.3-52.6 87.4-52.8 88-.2.6-.4 1.1-.6 1.6-1.3 2.3-3.9 3.2-5.7 1.8-.6-.5-.9-1.2-1.1-2-.3-1.5 0-3 .4-4.5.1-.5 3.4-12.8 8.9-26.3 5-12.1 10.8-26.2 22.5-44.9l13-18.9s-74.7 8.6-95.9 51.1c-9 18.1 1.2 49.6 1.2 49.6s4.8 14.7 5.1 16c-1.2.7-14.8 7.9-14.8 7.9s-29.4 15.4-35.6 34.6c-16.4 50.7 43.8 113.8 43.8 113.8zM1 125.6c-1.7-2.8 1.7-7.7 4.5-12.6l2.2-3.3c3.3-4.6 8.1-12 11.3-11.7 3.3 2.3-2.1 8.6-5.3 13.6l-3.6 5.2c-3.3 5.1-5.6 10.8-9.1 8.8zm28.1 12.2c-1.3-2.2 1.1-6.8 3.4-10.7l1.8-2.6c2.7-3.6 6.2-8.7 8.9-8.5 2.7 1.8-1.9 7.1-4.5 11.1l-2.9 4.1c-2.7 4-3.9 8.2-6.7 6.6zm27.1 95.8l1.2 4.9c1 4.7 3.3 11.3.2 12-2.5-.8-4-6.8-5.2-11.2l-.7-3.1c-.7-4.4-1.3-9.7.7-11.2 3.2-.4 2.8 3.9 3.8 8.6zM5.1 216.7l-.2 6.3c-.4 5.9.2 14.3-3.8 14.1-2.8-1.7-2.3-10.5-2.2-16.1l.1-3.9c.6-5.6.9-11.5 3.8-12.8 4.1.5 2.7 6.5 2.3 12.4z" class="monsteraleaf"/>
</svg>