<svg xmlns="http://www.w3.org/2000/svg" id="left_m_11" data-name="Layer 1" viewBox="88.74 0 466.74 378">
  <defs>
     <filter xmlns="http://www.w3.org/2000/svg" id="dropshadow" height="130%">
				<feGaussianBlur in="SourceAlpha" stdDeviation="0"/> 
				<feOffset dx="3" dy="9" result="offsetblur"/>
				<feComponentTransfer>
					<feFuncA type="linear" slope="0.2"/>
				</feComponentTransfer>
				<feMerge> 
					<feMergeNode/>
					<feMergeNode in="SourceGraphic"/> 
				</feMerge>
	</filter>
	
  </defs>

<path filter="url(#dropshadow)" d="M143.74 299l-12.11-7a166.46 166.46 0 0 1-24-18.63 141.88 141.88 0 0 1-11.78-12.03 5.74 5.74 0 0 1-1.39-2.27 2 2 0 0 1 .13-1.31c.64-1.21 2.3-1.33 3.65-.4a4.06 4.06 0 0 1 .76.68c.32.3 33.4 27.44 52 34.5l8 .47a86.55 86.55 0 0 0 21.5-18.22s.86-.87 2.26-2.4l-30.48-7.11c-18.51-6.38-25.37-11.44-38.29-20.47l-2-1.39c-3.82-3-10-7.31-9.57-10.08 2.1-2.74 7.34 2.13 11.54 5.05.4.22 1.76 1.1 2.15 1.31 17.64 9.6 24.26 14.45 45.71 19.44l29 3.67c2.36-3 4.86-6.47 7.16-10.12-15.08-2-22.71-5.27-35.67-10.44l-2.25-.9c-4.4-2-11.38-4.83-11.62-7.62 1.42-3.15 7.63.4 12.39 2.29.44.12 2 .67 2.39.79 16.18 4.44 24.11 7.41 39.12 8.25l.36-.72c5.25-10.85 11.37-22.15 14.1-36.69-8.32.14-15.09-.82-24.58-2.06l-2.34-.3c-4.63-.83-11.9-1.81-12.79-4.39.58-3.31 7.29-1.47 12.23-.83.45 0 2 .16 2.44.17 10.91.19 18.18.65 26.09.09a89.09 89.09 0 0 0 .24-14c.12-4.95.34-9 .54-12.54L203.35 179c-13.93 3.15-20.13 2.65-31.62 2l-1.77-.1c-3.51-.37-9-.7-9.81-2.57.25-2.51 5.37-1.5 9.1-1.3h1.84c14.63-.82 20.6-.36 35.82-5.51l12.17-5.56c.24-7-.09-13.06-2.4-23.28l-8.17-24.21-21-14.64c-9.84-5.49-15.77-7.42-23.3-9.29l-7.95 9.19c-9.21 13.17-10.44 19-15.33 32.84-.11.31-.41 1.44-.53 1.76-.85 3.63-1.32 8.83-3.8 8.37-1.57-1.31-.35-6.67.28-10.14l.4-1.72c2.61-11.21 3.87-17.3 10.8-29.78l8.58-12.28c-3.09-.73-6.58-1.56-10.69-2.65a89.36 89.36 0 0 0-12.93-3.58L127.48 97c-8.07 19.85-7.94 27.83-10.21 47.24 0 .43-.11 2-.16 2.44 0 5 .9 11.87-2.46 12-2.43-1.23-2.43-8.57-2.63-13.27v-2.36c.08-15.34-.09-23.63 5.23-41.92l6.49-15.88c-14.11-1.14-26.22 1.45-37.71 3.38A86.62 86.62 0 0 0 75.86 91c-2.61 20.48-.48 28.5 2.15 47.85.06.44.4 2 .46 2.47 1.24 5 3.93 11.59.62 12.58-2.73-.61-4.61-7.91-6-12.53l-.59-2.35c-3.85-15.29-6.13-23.5-5.52-43.07l.28-2a150.83 150.83 0 0 0-16.69 7.47q-1.57.69-3.1 1.45c.81 17.27 4 25.1 9 42.38.13.43.69 1.94.82 2.38 2 4.72 5.59 10.89 2.46 12.35-2.79-.2-5.72-7.14-7.79-11.51l-.93-2.24c-5.75-13.83-9.16-21.54-11.43-38.93a92.2 92.2 0 0 0-19 16.17l-.5 8c6 22.53 34.37 64.59 34.68 65a4.74 4.74 0 0 1 .73 1c.94 1.69.56 3.6-1 4.18a2.54 2.54 0 0 1-1.62 0 7 7 0 0 1-2.58-1.92 167.47 167.47 0 0 1-12.91-15.22A192.5 192.5 0 0 1 18.05 154l-6.85-15s-22.3 49.16-4 77.85c7.82 12.24 31 17.57 31 17.57s10.8 2.5 11.74 2.8c0 1-.6 12.06-.6 12.06s-1.38 23.74 8.17 34.68C82.67 312.75 143.74 299 143.74 299zM73.12 189.09c-2.33 0-4.14-3.87-6.08-7.41l-1.18-2.57c-1.62-3.71-4.39-9.37-3-11.27 2.62-1.21 4.52 4.48 6.42 8.31l1.88 4.12c1.86 3.85 4.48 7.4 1.96 8.82zm17.92-12.78c-1.84 0-3.79-3.22-5.31-6.07l-.92-2.07c-1.26-3-3.06-7.06-1.95-8.6 2.08-1 3.67 3.8 5.15 6.88l1.46 3.32c1.45 3.1 3.57 5.38 1.57 6.54zM159.95 195l3.46 1c3.23 1.12 8.18 2.14 7.43 4.33-1.41 1.29-5.66 0-8.77-.95l-2.16-.68c-3-1.18-6.44-2.74-6.63-4.58.92-2.12 3.46-.24 6.67.88zm-29.21 25.17l3.8 2.45c3.51 2.44 8.87 5.14 7.29 7.56-2.08 1.1-7.28-2.46-10.72-4.6l-2.37-1.58c-3.23-2.43-6.79-4.79-6.45-7.09 1.77-2.25 4.91.85 8.45 3.26z" class="monsteraleaf"/>
</svg>