<svg xmlns="http://www.w3.org/2000/svg" id="left_m_5" viewBox="0 0 378 378">
 <defs>
  
    <filter xmlns="http://www.w3.org/2000/svg" id="dropshadow" height="130%">
				<feGaussianBlur in="SourceAlpha" stdDeviation="0"/> 
				<feOffset dx="3" dy="9" result="offsetblur"/>
				<feComponentTransfer>
					<feFuncA type="linear" slope="0.2"/>
				</feComponentTransfer>
				<feMerge> 
					<feMergeNode/>
					<feMergeNode in="SourceGraphic"/> 
				</feMerge>
	</filter>

  </defs>

<path filter="url(#dropshadow)" d="M-11.6 341.5l-9.1-13.1c-8.3-12.9-12.4-22.6-15.9-30.9-4-9.3-6.3-17.7-6.4-18-.3-1-.5-2-.3-3 .1-.5.3-1 .8-1.3 1.2-.9 3-.3 4 1.3.2.3.3.7.5 1.1.2.5 21.4 44.5 37.2 60.8l8.1 4.4c10.8-1.2 21.4-4 31-8.5 0 0 1.3-.5 3.5-1.4l-28.1-22C-2.4 295.4-7 286.8-16.1 271.3c-.5-.8-.9-1.6-1.4-2.4-2.5-4.9-6.8-12.4-5.1-15 3.5-1.8 6.6 5.7 9.5 10.8.3.4 1.3 2 1.6 2.4 13.5 18.3 18 26.5 37.8 42l28.3 17.8c3.9-2 8.1-4.4 12.3-7-14.6-9.4-21-16.4-31.9-28-.6-.7-1.2-1.3-1.9-2-3.6-4.2-9.5-10.5-8.4-13.5 3-2.6 7.7 4.1 11.7 8.3.4.3 1.7 1.6 2.1 2C53.2 299 59.9 305.9 75.1 314c.2-.2.5-.4.7-.6 10.7-8.7 22.4-17.5 32.3-31.2-8.7-3.9-15.2-8.1-24.5-14-.7-.5-1.5-.9-2.3-1.4-4.4-3.1-11.4-7.6-11.1-10.7 2.2-3.1 8.3 2 13.1 5 .5.2 2 1.1 2.4 1.3 11.2 5.5 18.5 9.4 27 12.7 2.5-4.3 4.9-9 7-14.3 2.5-5.1 4.7-9.1 6.6-12.7l-18.4-2c-15.9-3.4-22.1-7-33.7-13.1-.6-.3-1.2-.6-1.8-1-3.5-2.1-9-5.1-8.9-7.4 1.5-2.5 6.3 1 10 3 .4.1 1.6.7 1.9.9 15.5 6.2 21.5 9.6 39.7 11.6l15.3.1c3.6-7.1 6.2-13.6 8.7-25.2l3.2-29-14.6-25.2c-7.6-10.4-12.7-15.3-19.7-20.9l-12.6 5.7c-15.9 9.2-20 14.7-31.7 26.6-.3.3-1.1 1.3-1.4 1.6-2.6 3.4-5.6 8.5-8 6.8-1-2.1 2.9-7.1 5.2-10.4.4-.5.8-1.1 1.2-1.6 8.1-10.3 12.3-16 25.5-25.6l14.8-8.6c-2.9-2.2-6.1-4.8-9.8-7.9-3.9-3.8-7.8-7.1-11.7-9.9l-10.8 8.2c-17.9 16.7-21.6 25-33.3 44-.3.4-1.1 2-1.3 2.5-2.4 5.1-4.8 12.7-8.3 11.2-1.9-2.4 1.6-10 3.7-15l1.2-2.4c7.5-15.8 11.3-24.5 25.6-40.9l14.3-13.3c-14-8-27.8-11.1-40.6-14.7-3.8-1-7.8-1.8-11.7-2.4-12.6 19.8-14.2 29.1-20.8 50.4-.2.5-.6 2.3-.7 2.8-1.1 5.7-1.5 13.9-5.4 13.3-2.5-1.9-1-10.4-.2-15.9.2-.9.4-1.8.5-2.7 3.4-17.7 5-27.3 15-47.2l1.3-2c-11.6-.9-20.9-.3-20.9-.3h-3.9c-7.5 18.3-8 27.9-11.1 48.2-.1.5-.2 2.3-.3 2.9-.2 5.8.5 14-3.4 14-2.8-1.6-2.5-10.1-2.5-15.7 0-.9.1-1.9.1-2.8.7-17.1.9-26.7 6.9-45.8-9.4 1.2-18.6 3.8-27.5 7.6l-4.4 8c-4.7 26.2 4.5 83.4 4.6 84 .2.5.3.9.3 1.4.2 2.2-1.2 4-3.1 3.8-.6 0-1.2-.4-1.7-.8-.9-.9-1.4-2-1.7-3.2-.1-.4-3.6-10.2-6-22-2.2-10.5-4.7-22.7-5.3-40.8l.1-18.8s-46.8 40.1-41.6 78.7c2.2 16.4 23.6 33.1 23.6 33.1s10 7.8 10.8 8.6c-.5 1-6.4 12.2-6.4 12.2s-12.9 23.9-8.2 39.8c12.1 41.8 82 56.9 82 56.9zm-20.2-147.7c-2.4-1.1-2.4-6-2.7-10.6V180c.1-4.6 0-11.8 2.3-13.1 3.3 0 2.5 6.8 2.6 11.7v5.2c.1 4.8 1.1 9.8-2.2 10zm24.7-4.6c-1.9-.9-2.4-5.2-2.6-8.8v-2.6c.1-3.7.2-8.8 2.1-9.8 2.6 0 2 5.7 2 9.6l-.1 4.1c.2 3.9 1.3 7.3-1.4 7.5zm62.4 52.5l3.1 2.8c2.8 2.7 7.4 6.2 5.6 8.1-2.1.7-5.8-2.8-8.6-5.2l-1.9-1.7c-2.5-2.7-5.3-5.9-4.7-7.9 1.9-1.9 3.6 1.2 6.5 3.9zm-42.4 12l2.8 4.4c2.5 4.2 6.7 9.6 3.9 11.3-2.7.1-6.4-6.1-8.9-9.9L9 256.8c-2.2-4.1-4.7-8.2-3.3-10.4 2.9-1.6 4.7 3.1 7.2 7.3z" class="monsteraleaf"/>
</svg>