<svg xmlns="http://www.w3.org/2000/svg" id="left_m_4" viewBox="0 0 378 378">
 <defs>
  
    <filter xmlns="http://www.w3.org/2000/svg" id="dropshadow" height="130%">
				<feGaussianBlur in="SourceAlpha" stdDeviation="0"/> 
				<feOffset dx="3" dy="9" result="offsetblur"/>
				<feComponentTransfer>
					<feFuncA type="linear" slope="0.2"/>
				</feComponentTransfer>
				<feMerge> 
					<feMergeNode/>
					<feMergeNode in="SourceGraphic"/> 
				</feMerge>
	</filter>

  </defs>

<path filter="url(#dropshadow)" d="M-60.2 330.8l-8.1-17.7c-7.1-17.3-9.9-29.8-12.3-40.5-2.7-12-3.7-22.6-3.7-23-.1-1.3-.2-2.5.2-3.7.3-.6.6-1.1 1.2-1.4 1.7-.9 3.7.3 4.5 2.5.2.4.3.9.3 1.4.1.6 15.9 58.1 31.4 81.1l8.8 7c13.3.9 26.6-.1 39.1-3.4 0 0 1.7-.3 4.5-.9l-29-32.6c-16-22.3-19.7-33.6-27.1-54.3-.4-1-.8-2.1-1.1-3.2-2-6.4-5.5-16.3-2.8-19.2 4.6-1.4 6.6 8.3 9.1 15 .3.6 1.1 2.7 1.4 3.2 12.3 25.1 16 36 36.4 58.9l30.1 27.5c5.1-1.5 10.7-3.5 16.3-5.8-15.5-14.5-21.6-24.3-32.2-40.6-.6-.9-1.2-1.9-1.8-2.8-3.4-5.8-9.1-14.7-7.1-18 4-2.3 8.2 6.8 12.1 12.7.4.5 1.7 2.3 2.1 2.8 14.8 18.1 21.5 27.8 37.9 40.9.3-.2.7-.4 1-.5 14.7-8.1 30.8-16.1 45.6-30.4-9.6-6.5-16.5-13.1-26.3-22.1-.8-.7-1.6-1.5-2.4-2.2-4.6-4.7-12.1-11.6-11-15.3 3.3-3.3 9.5 4.2 14.6 8.9.5.4 2.2 1.8 2.6 2.2 12.3 9 20.2 15.4 29.6 21.1 4-4.6 7.8-9.8 11.5-15.7 4.1-5.5 7.6-10 10.7-13.8l-21.6-6.4c-18.4-7.6-25-13.2-37.6-23.1-.6-.5-1.3-1-1.9-1.5-3.7-3.2-9.7-8-9.1-10.8 2.3-2.6 7.3 2.6 11.4 5.8.4.2 1.7 1.2 2.1 1.5 17.3 10.8 23.7 16.2 45.2 22.6l18.3 3.5c5.9-7.8 10.4-14.9 16-28.4l10.2-34.1-12.1-33.5c-6.8-14.2-12-21.1-19.1-29.3l-16.4 4.1c-21.1 7.6-27.2 13.3-43.9 25-.4.3-1.6 1.3-2 1.6-3.9 3.4-8.6 9-11.1 6.5-.7-2.8 5-7.9 8.5-11.3.6-.6 1.2-1.1 1.8-1.6 12-10.6 18.3-16.6 36.3-25.2l19.6-7.1c-2.9-3.3-6.2-7.1-10-11.6-3.8-5.5-7.8-10.2-11.8-14.5L83.8 88c-25.2 16.1-31.4 25.3-49.6 45.5-.4.5-1.7 2.2-2.2 2.6-4 5.6-8.5 14.2-12.5 11.7-1.8-3.4 4.1-11.7 7.7-17.2.7-.9 1.3-1.8 1.9-2.7 12.4-17.4 18.9-27 39.7-43.5L89 71.6C73.9 58.9 58 52.1 43.4 45.1c-4.3-2.1-8.9-3.9-13.5-5.4-19.5 21.1-23.5 32-36.1 56.1-.3.6-1.2 2.6-1.5 3.2-2.6 6.6-4.9 16.3-9.4 14.8-2.6-2.9 1.1-12.7 3.2-19.1.4-1.1.8-2.1 1.2-3.2C-4.8 71-.8 59.8 15.7 38.1l2-2.1c-13.8-3.6-25-4.9-25-4.9-1.6-.3-3.1-.6-4.7-.9C-25 50.5-27.7 62-35.9 85.7c-.2.6-.8 2.8-1 3.4-1.6 7-2.4 16.9-7.1 16-3-2.5-.8-12.7.4-19.4.3-1.1.5-2.2.7-3.3C-38.3 62-36 50.5-24.6 28.9c-11.5-.6-23.2.5-34.6 3.1l-7 8.7C-77.4 71.1-79 141.9-78.9 142.6c.1.6.1 1.2 0 1.7-.3 2.7-2.3 4.5-4.5 3.9-.7-.2-1.4-.8-1.8-1.3-.9-1.3-1.2-2.7-1.4-4.3-.1-.5-2.1-13.1-2.4-27.7-.3-13.1-.7-28.3 2.5-50.1l4.3-22.6s-64.9 38-67.2 85.4c-.9 20.2 21.1 44.9 21.1 44.9s10.3 11.5 11.1 12.6c-.8 1.1-10.4 13.2-10.4 13.2s-20.7 25.9-18.6 46c5.4 53.1 86 86.5 86 86.5zm8.1-181.8c-2.6-1.9-1.6-7.7-1-13.3l.7-3.9c1.1-5.5 2.5-14.2 5.7-15.2 4 .7 1.5 8.7.6 14.6l-1.2 6.2c-.9 5.9-.8 12-4.8 11.6zm30.6-.1c-2.1-1.5-1.7-6.7-1.2-11.2l.6-3.1c1-4.4 2.2-10.5 4.7-11.4 3.2.5 1.1 7.3.3 12l-1 4.9c-.7 4.8-.1 9.1-3.4 8.8zm63.4 76.7l3.1 4c2.8 3.9 7.6 9 5 10.9-2.6.3-6.4-4.6-9.2-8.1l-1.9-2.5c-2.5-3.8-5.1-8.3-3.9-10.5 2.8-1.8 4.1 2.3 6.9 6.2zm-53.5 5.1l2.4 5.9c2 5.6 6 13 2.2 14.5-3.3-.4-6.3-8.7-8.5-13.9l-1.5-3.7c-1.7-5.4-3.9-10.9-1.6-13.3 3.9-1.1 4.9 5 7 10.5z" class="monsteraleaf"/>
</svg>