<svg xmlns="http://www.w3.org/2000/svg" id="Layer_1" viewBox="0 0 378 378">
 <defs>
  
    <filter xmlns="http://www.w3.org/2000/svg" id="dropshadow" height="130%">
				<feGaussianBlur in="SourceAlpha" stdDeviation="0"/> 
				<feOffset dx="3" dy="9" result="offsetblur"/>
				<feComponentTransfer>
					<feFuncA type="linear" slope="0.2"/>
				</feComponentTransfer>
				<feMerge> 
					<feMergeNode/>
					<feMergeNode in="SourceGraphic"/> 
				</feMerge>
	</filter>

  </defs>

<path filter="url(#dropshadow)" d="M-52.3 303.9l-2.4-17.6c-1.6-16.9-.8-28.4-.1-38.5.8-11.2 2.7-20.6 2.7-20.9.2-1.1.5-2.3 1.2-3.1.4-.4.8-.8 1.4-.8 1.7-.4 3.1 1.2 3.3 3.3.1.4 0 .8-.1 1.3 0 .6-1.3 54.7 6 78.7l5.8 8.3c11.2 4.3 23.1 6.7 34.8 7.1 0 0 1.5.1 4.1.4l-16.6-35.8c-8-23.5-8.3-34.1-9.3-54-.1-1-.1-2-.1-3.1 0-6.1-.5-15.6 2.6-17.4 4.3-.1 3.6 9 3.9 15.5.1.5.2 2.6.3 3.1 4.1 25.1 4.4 35.4 16.1 60.6l18.9 31.8c4.8 0 10.3-.2 15.6-.7-9.6-16.6-12.4-26.7-17.3-43.6-.3-1-.6-1.9-.9-2.9-1.5-5.9-4-15.1-1.4-17.5 4.3-1.1 5.5 7.9 7.3 14.1.2.6.8 2.5 1.1 3 8.1 19.5 11.3 29.8 22.1 45.4.4-.1.6-.1 1-.2 14.9-3.2 30.8-6 47.4-14.7-6.6-8.2-10.9-15.6-17-26-.5-.8-.9-1.7-1.5-2.6-2.8-5.3-7.4-13.2-5.6-16.2 3.7-2 7.1 6.1 10.3 11.6.3.5 1.4 2.1 1.8 2.6 8.3 10.9 13.5 18.5 20.1 26 4.6-3 9.3-6.5 14.1-10.6 5.1-3.8 9.2-6.7 12.9-9.2l-17-11.2c-13.9-11.4-18.3-17.9-26.5-29.8-.4-.7-.8-1.2-1.3-1.9-2.4-3.8-6.3-9.5-5.1-11.8 2.7-1.8 5.6 4.2 8.3 8.1.2.3 1.2 1.5 1.4 1.8 12.2 13.9 16.3 20.2 33.3 31.3l15 7.8c7.1-5.3 12.9-10.3 21.2-20.6l17.7-27-1.7-32.3c-2.2-14.1-4.8-21.5-8.9-30.4l-15.3-.7c-20.2 1.2-27 4.5-44.6 10.4-.4.1-1.7.7-2.2.9-4.3 2-9.8 5.6-11.2 2.8.1-2.6 6.4-5.6 10.3-7.7.7-.3 1.3-.6 2.1-.9 13.1-6.2 20.2-9.6 37.9-12.6l18.9-1.1c-1.7-3.6-3.5-7.7-5.6-12.7-1.9-5.7-4.1-11-6.4-15.7l-14.8 2.7c-26 7.5-33.8 13.8-54.8 26.8-.5.3-2 1.4-2.6 1.8-5 3.9-11.1 10.2-13.8 6.9-.6-3.4 6.6-9.1 11.1-13 .9-.6 1.6-1.2 2.4-1.9 15.3-11.9 23.4-18.6 45.7-27.6l20.8-6.8c-9.8-15-21.8-24.9-32.6-34.8-3.2-2.9-6.7-5.7-10.3-8.2-22.4 13.4-28.7 21.8-45.9 39.5-.4.4-1.7 1.9-2.1 2.4-4 5.2-8.5 13-12 10.4-1.5-3.2 4.3-10.8 7.8-15.8.6-.8 1.3-1.6 1.9-2.5 12.2-15.8 18.6-24.5 38.5-39.1l2.2-1.3c-10.9-6.7-20.3-10.7-20.3-10.7-1.3-.7-2.6-1.3-3.8-2C51.3 69 46.1 78.4 32.7 96.9c-.3.5-1.4 2.2-1.7 2.6-3.2 5.6-6.5 14.1-10.4 12.1-2-2.9 2.6-11.3 5.4-16.7.5-.9 1-1.9 1.5-2.7 9.2-16.5 14.3-25.9 29.9-41.8-9.8-3.4-20.3-5.5-30.8-6.3l-8.3 5.8C.5 73.4-19.3 134.6-19.4 135.2c-.1.6-.2 1-.4 1.5-.9 2.2-3.1 3.4-4.9 2.3-.6-.4-1-1-1.2-1.6-.4-1.4-.3-2.7-.1-4.1.1-.5 1.6-11.9 5.1-24.8 3.1-11.4 6.8-24.8 15.3-42.9L4 46.9s-66.2 16.3-80.4 56.9c-6.1 17.4 6.5 44.6 6.5 44.6s5.9 12.7 6.3 13.9c-.9.7-12.4 8.7-12.4 8.7s-24.7 17.2-28.1 35.2c-9.2 47.8 51.8 97.7 51.8 97.7zM2.2 147.8c-1.8-2.3.6-7.2 2.6-11.9l1.6-3.2c2.4-4.5 5.9-11.7 8.9-11.7 3.3 1.6-1 8-3.3 12.9L9.3 139c-2.3 4.8-3.8 10.2-7.1 8.8zm26.5 7.8c-1.5-1.8.3-6.3 1.9-10l1.3-2.6c2-3.6 4.7-8.6 7-8.7 2.6 1.3-.9 6.6-2.9 10.4l-2.2 4c-1.7 4.1-2.4 8-5.1 6.9zm34.9 83.1l1.7 4.3c1.4 4.1 4.2 9.8 1.5 10.7-2.3-.4-4.3-5.7-5.8-9.4l-1-2.7c-1.2-3.9-2.3-8.5-.6-10.2 2.7-.7 2.8 3.3 4.2 7.3zm-47.7-9.3l.5 5.7c.3 5.4 1.7 12.9-1.9 13.2-2.7-1.3-3.2-9.2-3.8-14.2l-.3-3.6c-.1-5.1-.5-10.5 2.1-12 3.7 0 3 5.5 3.4 10.9z" class="monsteraleaf"/>
</svg>