<svg xmlns="http://www.w3.org/2000/svg" id="left_m_8" viewBox="0 0 378 378">
  <defs>
  
    <filter xmlns="http://www.w3.org/2000/svg" id="dropshadow" height="130%">
				<feGaussianBlur in="SourceAlpha" stdDeviation="0"/> 
				<feOffset dx="3" dy="9" result="offsetblur"/>
				<feComponentTransfer>
					<feFuncA type="linear" slope="0.2"/>
				</feComponentTransfer>
				<feMerge> 
					<feMergeNode/>
					<feMergeNode in="SourceGraphic"/> 
				</feMerge>
	</filter>

  </defs>

<path filter="url(#dropshadow)" d="M-8.7 312.1l-8.6-15c-7.7-14.8-11.2-25.6-14.2-34.8-3.4-10.4-5.1-19.7-5.1-20.1-.2-1.1-.4-2.2-.1-3.3.2-.5.5-1 .9-1.3 1.4-.9 3.3 0 4.2 1.8.2.4.3.8.4 1.2.2.5 18.7 50.1 34.2 69.2l8.3 5.5c11.8-.2 23.5-2.2 34.3-6.2 0 0 1.5-.4 3.9-1.2l-28.2-26.5C5.5 263.1 1.2 253.4-7 235.7c-.4-.9-.8-1.8-1.3-2.7-2.3-5.5-6.1-14-4-16.7 3.9-1.6 6.5 6.8 9.2 12.6.3.5 1.2 2.3 1.5 2.7 12.9 21.2 17 30.5 36.9 49.2l28.8 21.9c4.4-1.8 9.2-3.9 13.9-6.4-14.9-11.5-21-19.7-31.7-33.3-.6-.8-1.2-1.6-1.9-2.4-3.5-4.9-9.2-12.2-7.7-15.4 3.5-2.5 7.9 5.2 11.8 10.1.4.4 1.7 1.9 2.1 2.3 14.6 14.8 21.2 22.9 36.7 33.1.3-.2.6-.4.8-.6 12.4-8.4 25.9-16.7 37.8-30.5-9-5-15.6-10.2-25-17.4-.8-.6-1.5-1.2-2.3-1.8-4.4-3.8-11.6-9.3-11-12.6 2.7-3.2 8.7 3 13.6 6.7.5.3 2.1 1.4 2.5 1.7 11.6 7 19.1 12 27.9 16.3 3.2-4.4 6.1-9.3 8.9-14.8 3.2-5.2 5.9-9.4 8.4-13.1l-19.6-4c-16.9-5.3-23.2-9.6-35.1-17.5l-1.8-1.2c-3.5-2.6-9.2-6.3-8.9-8.8 1.8-2.5 6.7 1.7 10.5 4.3.4.2 1.6.9 2 1.1 16.2 8.2 22.3 12.4 41.8 16.3l16.5 1.6c4.6-7.4 8-14 11.9-26.4l6.3-31-13.3-28.7c-7.2-12-12.3-17.7-19.2-24.4l-14.2 4.9c-18 8.4-23 13.9-36.8 25.6-.3.3-1.3 1.3-1.7 1.6-3.2 3.4-6.9 8.6-9.3 6.6-.9-2.4 3.8-7.4 6.6-10.7.5-.5 1-1.1 1.5-1.6 9.7-10.4 14.9-16.1 30-25.2l16.8-7.8c-2.9-2.7-6.1-5.8-9.8-9.5-3.8-4.5-7.7-8.4-11.6-11.9L99 85.7c-21 16.2-25.8 24.9-40.2 44.2-.3.4-1.4 2.1-1.7 2.5-3.1 5.3-6.4 13.3-10.1 11.3-1.8-2.8 2.7-10.7 5.4-15.8.5-.9 1-1.7 1.5-2.5C63.5 109 68.5 100 85.5 83.8l16.8-13C88.1 61 73.5 56.3 60 51.2c-4-1.5-8.2-2.7-12.4-3.7C32.1 67.8 29.4 77.7 20.2 100c-.2.5-.8 2.4-1 2.9-1.7 6.1-3 14.8-7.1 13.8-2.5-2.3 0-11.3 1.3-17.1.3-1 .6-1.9.8-2.9 5.4-18.8 8-29 20.8-49.5l1.6-2c-12.5-2.1-22.5-2.4-22.5-2.4-1.4-.2-2.8-.3-4.2-.4C0 61.5-1.4 71.8-6.8 93.4c-.1.5-.5 2.5-.6 3.1-.8 6.3-.8 15.1-5 14.7-2.9-1.9-1.7-11.2-1.2-17.2.1-1 .3-2 .4-3 2.4-18.4 3.6-28.7 11.9-48.8-10.2.4-20.5 2.3-30.4 5.5l-5.5 8.2c-7.6 27.8-3.3 90.4-3.2 91.1.1.5.2 1 .2 1.5 0 2.4-1.6 4.2-3.7 3.8-.7-.1-1.3-.6-1.7-1-.9-1.1-1.3-2.3-1.6-3.7-.1-.4-2.9-11.4-4.4-24.3-1.3-11.5-2.9-24.9-1.8-44.5l2-20.3s-54.4 38.8-52.5 80.9c.8 17.9 22.3 38 22.3 38s10 9.4 10.8 10.3c-.6 1.1-8.1 12.5-8.1 12.5s-16.2 24.6-12.8 42.2c9.1 46.6 83 69.7 83 69.7zm-7.4-161.4c-2.5-1.4-2-6.7-1.9-11.7l.3-3.5c.6-5 1.1-12.8 3.8-13.9 3.6.3 2.1 7.6 1.7 12.9l-.5 5.6c-.4 5.2.1 10.7-3.4 10.6zm27.1-2.6c-2-1.1-2.1-5.8-1.9-9.8l.3-2.8c.5-4 1.1-9.5 3.3-10.4 2.8.2 1.6 6.3 1.2 10.6l-.5 4.5c-.4 4.2.4 7.9-2.4 7.9zm62.2 62.7l3 3.3c2.8 3.2 7.4 7.4 5.3 9.2-2.3.5-6-3.6-8.8-6.5l-1.9-2.1c-2.5-3.1-5.2-6.9-4.3-9 2.3-1.6 3.9 2 6.7 5.1zm-46.9 8.9l2.5 5c2.2 4.8 6.3 11 3.1 12.6-2.9-.1-6.3-7.1-8.6-11.6l-1.6-3.1c-1.9-4.6-4.3-9.3-2.5-11.6 3.3-1.3 4.8 3.9 7.1 8.7z" class="monsteraleaf"/>
</svg>