<svg xmlns="http://www.w3.org/2000/svg" id="left_top" viewBox="0 0 378 378">
  <defs>
  
    <filter xmlns="http://www.w3.org/2000/svg" id="dropshadow" height="130%">
				<feGaussianBlur in="SourceAlpha" stdDeviation="0"/> 
				<feOffset dx="3" dy="9" result="offsetblur"/>
				<feComponentTransfer>
					<feFuncA type="linear" slope="0.2"/>
				</feComponentTransfer>
				<feMerge> 
					<feMergeNode/>
					<feMergeNode in="SourceGraphic"/> 
				</feMerge>
	</filter>

  </defs>

<path filter="url(#dropshadow)" d="M-60.3 152.3l5.1-20.1c5.7-19 11.6-31.2 16.7-41.8 5.8-11.8 12-21.1 12.2-21.5.7-1.1 1.6-2.3 2.7-2.8.6-.3 1.3-.5 1.9-.3 2 .4 2.8 2.7 2.1 5-.1.5-.4.9-.6 1.4-.3.6-25.4 58.7-28 88l2.7 11.6c10.3 9.6 22.1 17.6 34.7 23.1 0 0 1.6.8 4.3 2.3L-8.9 151c1.6-29 5.9-40.7 13.5-62.7.4-1.2.8-2.3 1.2-3.4 2.7-6.7 6.3-17.1 10.4-17.7 4.8 1.8 0 11.3-2.6 18.5-.1.6-.9 2.9-1 3.6-6.4 28.8-10.6 40.2-9 72.7l6.6 42.8c5.2 2.1 11.2 4.3 17.3 6.1-3.2-22.2-1.7-34.5.3-55l.3-3.6c1-7 2.3-18.2 6.1-19.7 5.1.7 2.6 11 1.7 18.6 0 .7-.2 3.1-.1 3.7.3 24.8-.7 37.3 4.1 59 .5.1.7.2 1.2.3 17.6 3.1 36.1 7.2 58 5.1-3.6-11.8-4.9-21.8-7-35.8-.2-1.1-.3-2.3-.5-3.5-.7-7-2.3-17.7 1-20 4.9-.5 5 9.8 6.1 17.1.1.6.5 2.9.8 3.6 4.2 15.5 6.5 26.1 10.4 37.1 6.3-1.2 13-2.9 19.9-5.3 7.1-1.8 12.9-3.2 18-4.3l-13.6-19.7c-10.2-18.6-12-27.5-15.7-44.1-.2-.9-.4-1.6-.5-2.6-.9-5.1-2.7-13.1-.4-15 3.7-.7 4.3 7 5.5 12.4.1.5.6 2.1.7 2.6 7.1 20.5 8.9 29.2 22.4 48.7l12.9 15.1c10.1-2.6 18.6-5.4 32.1-12.9l31.1-21.4 12.3-35.8c3.8-16.3 4.2-25.4 3.7-36.9L222 91.4c-22.5-7.7-31.3-7.1-53-8.5-.5-.1-2.2 0-2.7 0-5.6.3-13.1 1.7-13.4-1.9 1.3-2.7 9.4-3.2 14.5-3.7.9 0 1.7-.1 2.7-.1 17-.9 26.2-1.5 46.7 3.2l20.9 7.2c-.3-4.7-.5-10-.5-16.3.5-7 .4-13.7-.1-19.8l-17.2-3.7c-31.6-3.4-42.8 0-71.3 4.8-.6.1-2.8.6-3.6.8-7.1 2-16.6 6.1-18 1.4.8-3.9 11.2-7 17.7-9.1 1.2-.3 2.3-.6 3.4-1 21.9-6.1 33.6-9.8 61.7-9.6l25.6 1.8c-4.1-20.6-12.7-36.7-20.2-52.2-2.2-4.6-4.8-9.1-7.6-13.4-30.2 4.6-40.7 10.9-67.1 22.5-.6.3-2.7 1.4-3.3 1.6-6.6 3.8-14.9 10.3-17.7 5.9-.3-4.1 9.4-9.8 15.4-13.7 1-.6 2.1-1.2 3.1-1.8 20.1-11.7 30.9-18.3 59-25.3l3-.5c-9-12.1-17.4-20.7-17.4-20.7-1.1-1.3-2.2-2.6-3.3-3.8-24.2 8.1-34 15.9-56.6 30.1-.5.4-2.5 1.7-3 2.1-5.9 4.7-13.3 12.3-16.6 8.5-.9-4 7.8-11.1 13.2-15.7.9-.7 1.9-1.6 2.8-2.3 17.4-13.9 27-21.9 50.9-32.2-9.1-8-19.6-15-30.7-20.5l-11.5 2.6c-29.7 17.5-78 75.1-78.4 75.7-.4.5-.6 1-1.1 1.5-2 2-4.8 2.3-6.3.3-.5-.6-.6-1.6-.6-2.3.2-1.6.8-3 1.7-4.5.3-.5 7-12.3 16.4-24.6 8.4-11 18.2-23.9 35.4-39.8l18.6-15.8s-79-11.7-112.3 26c-14.3 16.1-12.4 51.2-12.4 51.2s.8 16.4.8 17.8c-1.4.5-17.4 4-17.4 4s-34.4 7.7-46 25.7c-31 47.7 13.5 129 13.5 129zM67.3 7.1c-.9-3.3 3.8-7.5 8-11.7l3.1-2.7C83-11.2 90-17.4 93.3-16.1c2.8 3.2-4.6 8.2-9.2 12.5L79 .8c-4.8 4.1-8.7 9.3-11.7 6.3zm25.4 20.3c-.8-2.7 3-6.7 6.5-10l2.6-2.2c3.7-3 8.9-7.2 11.4-6.3 2.2 2.6-3.8 6.8-7.7 10.1l-4.1 3.4c-3.8 3.5-6.2 7.3-8.7 5zM94.2 133l-.1 5.4c-.3 5 .3 12.5-3.1 12.3-2.4-1.5-2.2-8-2.2-12.8l.1-3.4c.4-4.8 1.3-10.2 3.8-11.3 3.3.4 1.7 4.7 1.5 9.8zm-47.8-31.3l-2 6.4c-2 6-3.7 14.7-7.8 13.4-2.4-2.6.5-11.3 2.1-17.1l1.3-4c2.1-5.6 4.1-11.6 7.5-12.1 4.1 1.7.9 7.3-1.1 13.4z" class="monsteraleaf"/>
</svg>