<svg xmlns="http://www.w3.org/2000/svg" id="left_m_6" viewBox="0 0 378 378">
   <defs>
  
    <filter xmlns="http://www.w3.org/2000/svg" id="dropshadow" height="130%">
				<feGaussianBlur in="SourceAlpha" stdDeviation="0"/> 
				<feOffset dx="3" dy="9" result="offsetblur"/>
				<feComponentTransfer>
					<feFuncA type="linear" slope="0.2"/>
				</feComponentTransfer>
				<feMerge> 
					<feMergeNode/>
					<feMergeNode in="SourceGraphic"/> 
				</feMerge>
	</filter>

  </defs>

<path filter="url(#dropshadow)" d="M22.4 302.2l-10.9-13.1c-9.9-12.9-15.2-22.8-19.7-31.3-5-9.5-8.3-18.2-8.4-18.5-.4-1-.7-2.1-.6-3.2.1-.5.3-1.1.7-1.4 1.2-1.1 3.2-.6 4.3 1.1.2.3.4.7.6 1.1.2.5 26.7 45.2 45 61l9 3.9c11.4-2.2 22.3-6.2 32.1-11.9 0 0 1.3-.6 3.6-1.8l-31.8-20.8C27.8 252.4 22 243.7 11 228c-.6-.8-1.1-1.6-1.7-2.4-3.1-5-8.4-12.5-6.7-15.5 3.5-2.3 7.5 5.5 11.1 10.6.4.4 1.5 2 1.9 2.4 16.2 18.3 21.7 26.6 44.1 41.2l31.6 16.3c4-2.5 8.2-5.4 12.4-8.6-16.4-8.6-23.7-15.5-36.4-26.8-.7-.6-1.4-1.3-2.2-2-4.2-4.1-11-10.3-10.1-13.5 2.9-3 8.6 3.6 13.2 7.8.5.3 2 1.6 2.4 1.9 16.6 11.8 24.4 18.5 41.2 25.7l.7-.7c10.5-10.2 22.2-20.6 31.4-36-9.6-3.3-16.9-7.2-27.2-12.6-.8-.4-1.7-.9-2.5-1.3-4.9-2.9-12.8-7-12.8-10.3 2-3.5 8.9 1.4 14.3 4.1.5.2 2.2 1 2.7 1.2 12.4 4.8 20.5 8.3 29.7 11 2.3-4.8 4.3-10 6.1-15.9 2.2-5.6 4.1-10.1 5.8-14.1l-19.7-.5c-17.2-2.2-24.1-5.3-36.9-10.8-.6-.3-1.3-.6-2-.8-3.9-1.9-10-4.5-10.1-7 1.3-2.8 6.8.5 10.9 2.3.4.1 1.7.6 2.1.8 17.1 5.1 23.7 8.2 43.2 8.6l16.2-1.3c3.2-7.9 5.3-14.9 6.9-27.6l.7-31-17.8-25.4c-9-10.4-14.9-15-22.8-20.3l-12.9 7.2c-16 11.2-19.8 17.4-31.2 31.1-.3.3-1.1 1.5-1.3 1.8-2.5 3.8-5.2 9.5-7.8 8-1.3-2.1 2.4-7.8 4.5-11.5l1.2-1.8C91 100.5 94.9 94 108 82.6l14.9-10.5c-3.2-2.1-6.9-4.5-11.1-7.5-4.5-3.7-8.9-6.8-13.3-9.5l-10.7 9.6C70.3 84 67.2 93.2 56.5 114.4c-.2.5-1 2.2-1.2 2.7-2.1 5.7-3.9 13.9-7.8 12.7-2.3-2.4.8-10.8 2.5-16.2.3-.9.7-1.8 1-2.7 6.5-17.5 9.7-27 23.4-45.7l14-15.5c-15.6-7-30.5-9-44.4-11.6-4.1-.8-8.4-1.2-12.6-1.5C19.9 58.9 19 68.9 13.9 92.1c-.1.5-.4 2.5-.5 3-.6 6.2-.3 14.9-4.5 14.6-2.9-1.8-2-10.9-1.7-16.8.1-1 .2-2 .3-2.9 2-19.1 2.8-29.4 11.6-51.5l1.2-2.2c-12.4.2-22.1 1.6-22.1 1.6-1.4.1-2.8.2-4.2.4-6.3 20.1-5.9 30.3-7.3 52.1 0 .5 0 2.5-.1 3.1.3 6.2 1.9 14.8-2.3 15.1-3.1-1.4-3.6-10.5-4.1-16.4 0-1-.1-2-.1-2.9-.8-18.2-1.5-28.4 3.1-49.2-9.8 2.2-19.4 5.8-28.4 10.6l-3.9 8.9c-2.6 28.2 12.4 88 12.6 88.6.2.5.3 1 .4 1.4.4 2.3-.9 4.3-2.9 4.4-.7 0-1.3-.3-1.8-.7-1-.9-1.6-2-2.1-3.3-.2-.4-4.7-10.5-8.4-22.7-3.3-10.9-7.1-23.6-9.4-42.7l-1.6-20s-45.9 46.9-36.9 87.2c3.8 17.2 28.1 32.9 28.1 32.9s11.3 7.3 12.2 8.1c-.4 1.1-5.7 13.5-5.7 13.5s-11.4 26.5-5.1 43c16.7 43.3 92.1 52.9 92.1 52.9zm-34.9-154.8c-2.7-1-3.1-6.1-3.9-11l-.3-3.4c-.3-4.9-1.1-12.5 1.3-14.1 3.5-.3 3.3 7 3.9 12.2l.4 5.5c.5 5.1 2.1 10.3-1.4 10.8zm25.8-7.1c-2.1-.7-3-5.2-3.5-9.1l-.2-2.7c-.2-3.9-.6-9.3 1.4-10.6 2.8-.3 2.6 5.9 3 10l.3 4.4c.3 4 1.7 7.5-1 8zm70.9 49.9l3.5 2.7c3.2 2.6 8.4 5.8 6.7 8-2.1.9-6.4-2.4-9.6-4.7l-2.2-1.7c-2.9-2.6-6.2-5.8-5.7-8 1.9-2 4 1.1 7.3 3.7zm-43.8 16.7l3.3 4.4c3 4.2 8 9.6 5.2 11.7-2.8.4-7.3-5.8-10.3-9.7l-2.1-2.7c-2.7-4.1-5.8-8.3-4.4-10.8 2.9-2 5.2 2.8 8.3 7.1z" class="monsteraleaf"/>
</svg>