<svg xmlns="http://www.w3.org/2000/svg" id="left_m_7" viewBox="0 0 378 378">
  <defs>
  
    <filter xmlns="http://www.w3.org/2000/svg" id="dropshadow" height="130%">
				<feGaussianBlur in="SourceAlpha" stdDeviation="0"/> 
				<feOffset dx="3" dy="9" result="offsetblur"/>
				<feComponentTransfer>
					<feFuncA type="linear" slope="0.2"/>
				</feComponentTransfer>
				<feMerge> 
					<feMergeNode/>
					<feMergeNode in="SourceGraphic"/> 
				</feMerge>
	</filter>

  </defs>

<path filter="url(#dropshadow)" d="M-30.9 341L-42 325.7c-10.1-15.1-15.2-26.4-19.6-36.2-4.9-10.9-7.9-20.8-8-21.2-.4-1.2-.7-2.4-.5-3.6.1-.6.4-1.2.9-1.6 1.4-1.1 3.6-.4 4.7 1.5.2.4.4.8.6 1.3.2.5 26.4 52.2 45.6 71l9.7 5c12.8-1.7 25.2-5.3 36.6-10.8 0 0 1.5-.6 4.1-1.7L-1.8 304C-21.2 286-27 276-38 257.8c-.6-.9-1.1-1.8-1.7-2.8-3.1-5.7-8.4-14.5-6.4-17.7 4.1-2.2 7.9 6.6 11.5 12.5.4.5 1.6 2.3 1.9 2.8 16.6 21.5 22.2 31.1 46 49L47.2 322c4.6-2.5 9.5-5.4 14.4-8.6C44 302.6 36.4 294.5 23.1 281c-.7-.8-1.5-1.5-2.3-2.3-4.4-4.9-11.5-12.2-10.2-15.8 3.5-3.1 9.2 4.7 14.1 9.6.5.4 2.1 1.9 2.5 2.3 17.7 14.2 25.9 22.2 44 31.5.3-.2.6-.5.8-.7 12.4-10.6 26.1-21.2 37.5-37.7-10.4-4.4-18.2-9.2-29.3-15.9-.9-.5-1.8-1.1-2.7-1.7-5.3-3.6-13.7-8.7-13.4-12.4 2.5-3.8 9.8 2.2 15.6 5.6.5.3 2.4 1.3 2.9 1.5 13.4 6.2 22.2 10.7 32.2 14.3 2.9-5.2 5.6-10.8 7.9-17.2 2.9-6.1 5.3-11 7.5-15.2l-21.8-1.9c-19-3.7-26.4-7.7-40.2-14.7-.7-.4-1.4-.7-2.1-1.1-4.1-2.4-10.8-5.8-10.7-8.5 1.7-3 7.5 1.1 12 3.4.4.2 1.9.8 2.3 1 18.6 7 25.7 10.8 47.3 12.7l18.1-.3c4.1-8.6 7-16.2 9.7-30.1l3.1-34.4-18-29.5c-9.2-12.2-15.5-17.8-23.8-24.2l-14.8 7c-18.6 11.3-23.3 17.9-36.9 32.3-.3.3-1.3 1.6-1.6 1.9-3 4-6.5 10.2-9.3 8.3-1.2-2.5 3.2-8.4 5.9-12.4.5-.7 1-1.3 1.4-1.9 9.3-12.4 14.2-19.3 29.6-31L97.7 93c-3.4-2.6-7.3-5.5-11.8-9.1-4.7-4.4-9.4-8.2-14.1-11.5l-12.6 9.9c-20.8 20.2-25 30.1-38.4 52.9-.3.5-1.2 2.4-1.5 2.9-2.7 6.1-5.4 15.2-9.6 13.5-2.3-2.9 1.7-11.9 4-17.9.4-1 .9-2 1.3-2.9 8.5-19 12.8-29.3 29.3-49.1L61 65.5C44.2 56.4 27.8 53 12.5 49.1 8 48 3.3 47.1-1.4 46.5c-14.4 23.9-16.1 35-23.4 60.4-.2.6-.6 2.7-.8 3.3-1.2 6.8-1.5 16.5-6.1 15.9-3.1-2.2-1.4-12.3-.6-18.8.2-1.1.4-2.2.6-3.2 3.6-21 5.2-32.4 16.6-56.3l1.5-2.4c-13.8-.7-24.7.1-24.7.1-1.5 0-3.1 0-4.6.1-8.4 21.8-8.7 33.2-12 57.4-.1.6-.2 2.8-.3 3.4-.2 6.9 1 16.5-3.7 16.6-3.3-1.8-3.2-12-3.4-18.5 0-1.1 0-2.2.1-3.3.4-20.2.4-31.7 7.1-54.4-11.1 1.7-22 5-32.3 9.7l-5 9.6c-4.9 31.1 7.3 98.7 7.5 99.4.2.5.3 1.1.4 1.6.2 2.6-1.3 4.8-3.5 4.6-.7 0-1.4-.5-2-.9-1.1-1-1.7-2.4-2.1-3.8-.2-.5-4.5-12-7.7-25.9-2.8-12.4-6.1-26.8-7.3-48.2l-.3-22.3s-54.4 48.7-47.3 94.2c3 19.4 28.8 38.6 28.8 38.6s12 9 13 9.9c-.5 1.2-7.3 14.6-7.3 14.6s-14.6 28.6-8.8 47.4c15.1 49.5 98.1 65.7 98.1 65.7zm-27.5-174.5c-2.9-1.3-3-7-3.5-12.5l-.1-3.8c0-5.5-.3-14 2.4-15.6 3.9-.1 3.2 8 3.4 13.8l.1 6.1c.3 5.8 1.6 11.6-2.3 12zm29.2-6c-2.3-1-2.9-6-3.3-10.4V147c.1-4.4.1-10.4 2.3-11.7 3.1-.1 2.5 6.7 2.6 11.3v4.9c.1 4.6 1.5 8.6-1.6 9zm75.1 60.6l3.7 3.2c3.4 3.1 9 7.1 6.8 9.4-2.4.8-7-3.1-10.3-6l-2.3-2c-3.1-3.1-6.5-6.9-5.7-9.3 2.3-2 4.4 1.6 7.8 4.7zM-4 236.4l3.4 5.1c3 4.9 8.2 11.2 4.9 13.3-3.2.2-7.7-7-10.8-11.5l-2.1-3.2c-2.7-4.8-5.8-9.6-4.1-12.3 3.5-1.9 5.7 3.7 8.7 8.6z" class="monsteraleaf"/>
</svg>