<svg xmlns="http://www.w3.org/2000/svg" id="left_bottom" viewBox="0 0 378 378">
 <defs>
  
    <filter xmlns="http://www.w3.org/2000/svg" id="dropshadow" height="130%">
				<feGaussianBlur in="SourceAlpha" stdDeviation="0"/> 
				<feOffset dx="3" dy="9" result="offsetblur"/>
				<feComponentTransfer>
					<feFuncA type="linear" slope="0.2"/>
				</feComponentTransfer>
				<feMerge> 
					<feMergeNode/>
					<feMergeNode in="SourceGraphic"/> 
				</feMerge>
	</filter>

  </defs>

<path filter="url(#dropshadow)" d="M130 478.2l-18.2-10c-17-10.3-27.2-19.1-36.2-26.7-10-8.6-17.4-16.9-17.7-17.2-.9-1-1.8-2.1-2.1-3.3-.1-.7-.2-1.4.2-1.9.9-1.9 3.3-2.1 5.4-.8.4.2.8.6 1.2 1 .6.4 50.4 39.4 78.1 49.3l11.9.4c11.9-7.6 22.6-17 31.1-27.7 0 0 1.2-1.3 3.3-3.6l-45.3-9.4c-27.7-8.8-37.9-16-57.3-28.9-1-.6-1.9-1.3-3-2-5.8-4.3-15-10.4-14.5-14.6 3-4.1 11 2.9 17.2 7.1.6.3 2.6 1.6 3.2 1.9 26.4 13.6 36.3 20.5 68.2 27.2l43.1 4.4c3.4-4.5 7-9.8 10.3-15.2-22.3-2.5-33.8-7-53.1-14.1-1.1-.4-2.3-.8-3.4-1.2-6.6-2.8-17-6.8-17.5-10.9 2-4.8 11.3.3 18.4 3 .7.2 3 1 3.6 1 24.1 6 35.9 10.1 58.1 10.9.2-.4.4-.7.6-1.1 7.4-16.2 16.1-33.1 19.6-54.8-12.3.5-22.3-.7-36.4-2.2-1.1-.1-2.3-.3-3.5-.3-6.9-1-17.7-2.2-19.1-6 .7-4.9 10.7-2.4 18.1-1.6.6.1 3 .2 3.7.1 16.1-.1 26.9.3 38.6-.7.4-6.4.4-13.3-.1-20.6 0-7.4.2-13.3.4-18.5l-22.5 8.2c-20.5 5.1-29.7 4.6-46.6 4.1-.9-.1-1.7-.1-2.6-.1-5.2-.4-13.3-.7-14.6-3.4.2-3.7 7.9-2.4 13.4-2.2.5 0 2.2-.1 2.7-.1 21.6-1.7 30.5-1.2 52.8-9.4l17.9-8.7c.1-10.4-.5-19.3-4.4-34.3l-12.9-35.5-31.5-21c-14.8-7.8-23.5-10.5-34.8-12.9l-11.4 13.9c-13.1 19.8-14.8 28.5-21.6 49.1-.2.4-.6 2.1-.7 2.7-1.1 5.5-1.6 13.1-5.3 12.5-2.3-1.9-.7-9.9 0-15 .2-.9.4-1.7.6-2.6 3.4-16.7 5.2-25.7 14.9-44.4l12.3-18.4c-4.6-.9-9.8-2.1-15.9-3.6-6.7-2.2-13.2-3.8-19.2-4.9l-7.9 15.7c-11.2 29.7-10.8 41.4-13.4 70.2-.1.6-.1 2.9-.1 3.7.1 7.4 1.8 17.6-3.2 17.8-3.6-1.8-3.9-12.6-4.4-19.5 0-1.2 0-2.4-.1-3.5-.4-22.7-1-34.9 6.3-62.2l8.2-24.3c-21-1.2-38.7 3-55.6 6.4-5 1-10.1 2.3-14.9 4-3.2 30.4.3 42.1 4.8 70.6.1.7.7 2.9.8 3.6 2.1 7.3 6.2 17 1.3 18.6-4.1-.8-7.1-11.6-9.4-18.3-.4-1.1-.6-2.3-1-3.5C12.7 222.1 9 210 9.3 181l.3-3c-13.9 5.6-24.4 11.6-24.4 11.6-1.5.7-3 1.5-4.5 2.2 1.8 25.5 6.8 36.9 14.8 62.4.2.6 1.1 2.8 1.3 3.5 3 6.9 8.6 15.9 4.1 18.2-4.1-.1-8.7-10.3-11.9-16.7-.5-1.1-1-2.3-1.5-3.3-9-20.2-14.3-31.5-18.2-57.2-10.1 6.8-19.5 15.2-27.6 24.6l-.4 11.8c9.5 33.1 53.1 94.4 53.5 94.9.4.5.8.9 1.1 1.4 1.4 2.5 1 5.3-1.3 6.2-.7.3-1.7.2-2.4 0-1.5-.6-2.7-1.6-3.9-2.8-.4-.4-10.1-9.8-19.7-22.1C-40 301.4-50 288.7-61 268l-10.6-22s-31.3 73.5-3.2 115.2c12 17.9 46.4 25 46.4 25s16 3.3 17.5 3.7c.1 1.4-.5 17.8-.5 17.8s-1.2 35.2 13.3 51C40.2 500.8 130 478.2 130 478.2zm-108.3-160c-3.4.1-6.3-5.6-9.3-10.7l-1.9-3.7C8 298.3 3.7 290 5.8 287.2c3.8-1.9 6.8 6.5 9.8 12.1l3 6.1c2.8 5.5 6.8 10.6 3.1 12.8zm26.1-19.5c-2.8.1-5.7-4.6-8-8.8l-1.5-3c-2-4.4-4.8-10.4-3.2-12.7 3-1.5 5.6 5.4 7.8 10l2.2 4.8c2.4 4.6 5.5 7.9 2.7 9.7zm102.5 25.2l5.2 1.5c4.8 1.5 12.2 2.9 11.1 6.1-2 1.9-8.3.1-12.9-1.1l-3.3-.9c-4.5-1.6-9.6-3.8-10-6.6 1.3-3.1 5.1-.5 9.9 1zM108 362.2l5.7 3.6c5.3 3.5 13.3 7.3 11 10.9-3.1 1.7-10.8-3.4-16-6.4l-3.6-2.3c-4.9-3.4-10.2-6.9-9.8-10.3 2.6-3.4 7.3 1 12.7 4.5z" class="monsteraleaf"/>
</svg>