<svg xmlns="http://www.w3.org/2000/svg" id="right_m_1"  viewBox="0 0 378 378">
 <defs>
  
    <filter xmlns="http://www.w3.org/2000/svg" id="dropshadow" height="130%">
				<feGaussianBlur in="SourceAlpha" stdDeviation="0"/> 
				<feOffset dx="3" dy="9" result="offsetblur"/>
				<feComponentTransfer>
					<feFuncA type="linear" slope="0.2"/>
				</feComponentTransfer>
				<feMerge> 
					<feMergeNode/>
					<feMergeNode in="SourceGraphic"/> 
				</feMerge>
	</filter>

  </defs>

<path filter="url(#dropshadow)" d="M360.6 50.7l8.2 13.8c7.3 13.5 10.7 23.4 13.7 32 3.3 9.6 5 18.1 5.1 18.4.2 1 .4 2.1.1 3-.2.5-.4 1-.9 1.2-1.3.9-3 .1-3.9-1.6-.2-.3-.3-.7-.4-1.1-.2-.5-18.2-46-32.8-63.4l-7.8-4.9c-10.9.4-21.7 2.5-31.6 6.3 0 0-1.3.4-3.6 1.1l26.5 24c15 16.7 19 25.5 26.9 41.7.4.8.8 1.6 1.2 2.5 2.2 5.1 5.9 12.8 4 15.4-3.6 1.6-6.2-6.2-8.7-11.5-.3-.4-1.1-2.1-1.4-2.5-12.3-19.4-16.2-27.9-34.9-44.8l-27-19.8c-4 1.7-8.5 3.8-12.8 6.1 13.9 10.4 19.8 17.9 29.9 30.2l1.8 2.1c3.3 4.4 8.7 11.2 7.4 14.1-3.2 2.4-7.4-4.6-11.1-9.2-.4-.4-1.6-1.8-2-2.1-13.7-13.4-20-20.8-34.5-30-.3.2-.5.3-.8.5-11.3 7.9-23.7 15.8-34.5 28.9 8.4 4.5 14.6 9.2 23.4 15.7.7.5 1.4 1.1 2.2 1.6 4.2 3.4 10.9 8.4 10.4 11.5-2.4 3-8.1-2.6-12.7-6-.4-.3-1.9-1.3-2.4-1.5-10.8-6.2-17.8-10.7-26-14.6-2.8 4.1-5.5 8.7-8 13.8-2.9 4.9-5.3 8.8-7.5 12.2l18.2 3.3c15.7 4.6 21.6 8.5 32.7 15.5.6.4 1.1.7 1.7 1.1 3.3 2.3 8.6 5.7 8.4 8-1.6 2.4-6.2-1.5-9.8-3.8-.3-.2-1.5-.8-1.8-1-15.1-7.3-20.8-11.1-38.9-14.4l-15.3-1.2c-4.1 6.9-7.2 13.1-10.5 24.6l-5.3 28.7 12.8 26.3c6.8 11 11.6 16.2 18.2 22.2l13-4.8c16.5-8.1 21-13.2 33.6-24.3.3-.2 1.2-1.2 1.5-1.5 2.9-3.2 6.2-8.1 8.4-6.3.8 2.2-3.4 6.9-5.9 10-.5.5-.9 1-1.4 1.5-8.8 9.8-13.5 15.1-27.3 23.8L233 249c2.7 2.4 5.7 5.2 9.2 8.6 3.6 4.1 7.3 7.7 10.9 10.8l11.4-7.4c19.1-15.4 23.4-23.4 36.4-41.6.3-.4 1.2-1.9 1.5-2.4 2.8-5 5.7-12.4 9.1-10.6 1.7 2.6-2.3 9.9-4.7 14.7-.5.8-.9 1.6-1.3 2.4-8.6 15.3-13 23.7-28.5 39l-15 13c13.5 9 27 13.1 39.6 17.5 3.7 1.3 7.6 2.4 11.5 3.2 14-19 16.3-28.2 24.4-49 .2-.5.7-2.2.9-2.7 1.5-5.7 2.5-13.8 6.4-12.9 2.4 2.1.2 10.5-.9 15.9-.2.9-.5 1.8-.7 2.7-4.6 17.4-6.9 26.9-18.4 46.1l-1.4 1.9c11.5 1.7 20.8 1.8 20.8 1.8l3.9.3c8.8-17.7 9.9-27.3 14.5-47.4.1-.5.4-2.3.5-2.8.7-5.8.5-14 4.4-13.7 2.7 1.7 1.8 10.3 1.4 15.8-.1.9-.2 1.9-.3 2.8-1.9 17-2.8 26.6-10.2 45.3 9.4-.6 18.9-2.5 28-5.6l4.9-7.7c6.6-25.8 1.5-83.7 1.4-84.2-.1-.5-.2-.9-.2-1.4 0-2.2 1.4-3.9 3.3-3.6.6.1 1.2.5 1.6.9.8 1 1.2 2.1 1.5 3.4.1.4 2.9 10.5 4.5 22.4 1.4 10.6 3.1 23 2.4 41.1l-1.5 18.8s49.6-36.8 47.2-75.6c-1-16.6-21.2-34.8-21.2-34.8s-9.4-8.5-10.2-9.3c.5-1 7.3-11.7 7.3-11.7s14.6-23 11.1-39.2c-9.2-43-77.9-63.1-77.9-63.1zm9.6 149.1c2.3 1.3 2 6.2 2 10.8l-.2 3.2c-.4 4.6-.8 11.8-3.3 12.9-3.3-.2-2-7-1.8-11.9l.4-5.2c.3-4.8-.4-9.8 2.9-9.8zm-25 2.8c1.9 1 2 5.3 1.9 9l-.2 2.6c-.4 3.7-.9 8.8-2.8 9.7-2.6-.2-1.6-5.8-1.3-9.7l.4-4.1c.2-4-.6-7.4 2-7.5zm-58.5-56.9l-2.9-3c-2.6-2.9-7-6.7-5-8.4 2.1-.5 5.6 3.2 8.2 5.8l1.8 1.9c2.4 2.8 4.9 6.3 4.1 8.3-2.1 1.5-3.6-1.7-6.2-4.6zm43.2-9l-2.4-4.6c-2.2-4.4-6-10.1-3.1-11.6 2.7.1 5.9 6.5 8.2 10.5l1.5 2.9c1.9 4.2 4.1 8.6 2.5 10.7-3.1 1.3-4.5-3.5-6.7-7.9z" class="monsteraleaf"/>
</svg>