<svg xmlns="http://www.w3.org/2000/svg" id="right_m_3"  viewBox="0 0 378 378">
 <defs>
  
    <filter xmlns="http://www.w3.org/2000/svg" id="dropshadow" height="130%">
				<feGaussianBlur in="SourceAlpha" stdDeviation="0"/> 
				<feOffset dx="3" dy="9" result="offsetblur"/>
				<feComponentTransfer>
					<feFuncA type="linear" slope="0.2"/>
				</feComponentTransfer>
				<feMerge> 
					<feMergeNode/>
					<feMergeNode in="SourceGraphic"/> 
				</feMerge>
	</filter>

  </defs>

<path filter="url(#dropshadow)" d="M363.2 44.1l8.9 14.9c7.9 14.6 11.6 25.4 14.8 34.6 3.6 10.4 5.4 19.6 5.5 20 .3 1.1.4 2.2.1 3.3-.2.5-.4 1.1-.9 1.3-1.4.9-3.3.1-4.2-1.8-.2-.4-.3-.8-.4-1.2-.2-.5-19.7-49.8-35.6-68.7l-8.4-5.3c-11.8.4-23.5 2.7-34.3 6.8 0 0-1.5.4-3.9 1.2l28.8 26c16.2 18 20.6 27.7 29.2 45.2.4.9.9 1.8 1.3 2.7 2.4 5.5 6.4 13.9 4.3 16.7-3.9 1.7-6.7-6.7-9.5-12.4-.3-.5-1.2-2.2-1.5-2.7-13.3-21-17.6-30.3-37.8-48.6l-29.2-21.4c-4.4 1.9-9.2 4.1-13.9 6.7 15.1 11.3 21.4 19.4 32.4 32.8.6.8 1.3 1.5 1.9 2.3 3.6 4.8 9.4 12.1 8 15.3-3.4 2.6-8-5-12-9.9-.4-.4-1.7-1.9-2.1-2.3-14.9-14.5-21.7-22.5-37.4-32.5-.3.2-.5.4-.8.6-12.3 8.7-25.8 17.3-37.5 31.4 9.1 4.9 15.9 10 25.4 17 .8.6 1.5 1.1 2.4 1.7 4.5 3.7 11.8 9.1 11.2 12.4-2.6 3.2-8.8-2.8-13.7-6.5-.5-.3-2.1-1.4-2.5-1.6-11.7-6.8-19.3-11.6-28.2-15.8-3.1 4.5-6 9.4-8.7 15-3.1 5.3-5.8 9.5-8.1 13.3l19.7 3.6c17 5 23.4 9.2 35.5 16.8.6.4 1.2.8 1.9 1.2 3.6 2.5 9.3 6.2 9.1 8.7-1.8 2.6-6.7-1.6-10.6-4.1-.4-.2-1.6-.9-2-1.1-16.4-7.9-22.5-12-42.1-15.6l-16.5-1.3c-4.5 7.5-7.8 14.2-11.4 26.7l-5.7 31.1 13.9 28.5c7.4 11.9 12.6 17.5 19.7 24.1l14.1-5.2c17.9-8.7 22.8-14.3 36.4-26.4l1.6-1.6c3.1-3.4 6.7-8.8 9.2-6.8.9 2.4-3.6 7.4-6.4 10.8-.5.6-1 1.1-1.5 1.6-9.6 10.6-14.6 16.4-29.6 25.8l-16.7 8.1c2.9 2.6 6.2 5.7 10 9.3 3.9 4.5 7.9 8.3 11.9 11.7l12.3-8c20.7-16.6 25.3-25.4 39.5-45 .3-.4 1.3-2.1 1.6-2.5 3-5.4 6.2-13.4 9.9-11.5 1.9 2.8-2.5 10.7-5.1 16-.5.9-1 1.7-1.4 2.5-9.3 16.6-14.1 25.7-30.9 42.3l-16.6 13.3c14.6 9.7 29.3 14.2 42.9 19 4 1.4 8.3 2.6 12.5 3.5 15.1-20.6 17.7-30.6 26.5-53.1.2-.5.8-2.4 1-3 1.6-6.1 2.7-14.9 6.9-14 2.6 2.3.2 11.3-1 17.2-.3 1-.5 2-.8 2.9-5 18.9-7.5 29.2-19.9 50l-1.5 2c12.5 1.8 22.6 1.9 22.6 1.9l4.2.3c9.5-19.2 10.8-29.6 15.7-51.3.1-.5.4-2.5.5-3.1.7-6.3.5-15.2 4.8-14.9 2.9 1.9 1.9 11.2 1.5 17.2l-.3 3c-2.1 18.4-3 28.9-11 49.1 10.2-.6 20.5-2.7 30.3-6.1l5.3-8.3c7.1-28 1.6-90.7 1.5-91.3-.1-.5-.2-1-.2-1.5 0-2.4 1.6-4.2 3.6-3.9.7.1 1.3.5 1.7 1 .9 1 1.3 2.3 1.6 3.6.1.4 3.1 11.4 4.8 24.3 1.5 11.5 3.4 24.9 2.6 44.6l-1.6 20.4s53.7-39.9 51.1-82c-1.1-18-23-37.7-23-37.7s-10.2-9.2-11-10.1c.6-1.1 7.9-12.7 7.9-12.7s15.8-24.9 12-42.5c-10.1-46.2-84.6-68-84.6-68zm10.4 161.5c2.5 1.4 2.2 6.7 2.1 11.7l-.3 3.5c-.5 5-.9 12.8-3.5 14-3.6-.3-2.2-7.6-2-12.9l.4-5.6c.4-5.2-.3-10.6 3.3-10.7zm-27.1 3.1c2 1.1 2.2 5.8 2.1 9.8l-.2 2.8c-.4 4-.9 9.5-3.1 10.5-2.9-.2-1.7-6.3-1.4-10.6l.4-4.5c.3-4.2-.7-7.9 2.2-8zM283.1 147l-3.1-3.2c-2.8-3.2-7.6-7.2-5.4-9.2 2.3-.5 6.1 3.5 8.9 6.3l1.9 2c2.6 3.1 5.3 6.8 4.4 9-2.3 1.8-3.9-1.7-6.7-4.9zm46.8-9.7l-2.6-4.9c-2.3-4.8-6.5-10.9-3.4-12.6 2.9.1 6.4 7 8.8 11.4l1.6 3.1c2 4.6 4.5 9.3 2.7 11.6-3.2 1.4-4.7-3.9-7.1-8.6z" class="monsteraleaf"/>
</svg>