<svg xmlns="http://www.w3.org/2000/svg" id="Layer_1" data-name="Layer 1" viewBox="-80 88.83 463.05 466.83">
  <defs>
  
    <filter xmlns="http://www.w3.org/2000/svg" id="dropshadow" height="130%">
				<feGaussianBlur in="SourceAlpha" stdDeviation="0"/> 
				<feOffset dx="3" dy="9" result="offsetblur"/>
				<feComponentTransfer>
					<feFuncA type="linear" slope="0.2"/>
				</feComponentTransfer>
				<feMerge> 
					<feMergeNode/>
					<feMergeNode in="SourceGraphic"/> 
				</feMerge>
	</filter>

  </defs>

<path filter="url(#dropshadow)" d="M259.36 4.69l17.16 10c16.07 10.23 25.75 18.94 34.05 26.41a201.12 201.12 0 0 1 16.61 16.93 8.14 8.14 0 0 1 2 3.22 2.78 2.78 0 0 1-.18 1.86c-.91 1.71-3.26 1.88-5.17.56a5.76 5.76 0 0 1-1.08-1c-.45-.42-47.34-38.89-73.69-48.91l-11.41-.66a122.69 122.69 0 0 0-30.48 25.83s-1.22 1.23-3.21 3.4l43.2 10.08c26.23 9 36 16.22 54.28 29l2.82 2c5.42 4.19 14.15 10.36 13.57 14.28-3 3.88-10.41-3-16.35-7.16-.57-.31-2.49-1.56-3-1.86-25-13.61-34.39-20.48-64.79-27.56l-41.15-5.2c-3.35 4.3-6.88 9.18-10.16 14.35 21.38 2.91 32.19 7.48 50.56 14.8l3.19 1.27c6.23 2.84 16.14 6.85 16.47 10.81-2 4.46-10.82-.56-17.56-3.24-.63-.17-2.78-.95-3.39-1.12-22.93-6.3-34.18-10.51-55.45-11.69l-.5 1c-7.45 15.39-16.11 31.4-20 52 11.8-.2 21.38 1.17 34.85 2.91l3.32.43c6.56 1.18 16.86 2.57 18.13 6.22-.82 4.69-10.34 2.08-17.33 1.18-.63 0-2.85-.22-3.46-.23-15.46-.27-25.77-.92-37-.13a126.29 126.29 0 0 0-.34 19.81c-.18 7-.49 12.75-.77 17.78l21.73-7.33c19.75-4.47 28.54-3.76 44.82-2.86l2.5.14c5 .52 12.75 1 13.91 3.65-.36 3.55-7.62 2.13-12.9 1.84h-2.6c-20.74 1.17-29.2.51-50.78 7.81l-17.25 7.89c-.34 9.95.13 18.51 3.41 33l11.58 34.31 29.7 20.75c14 7.78 22.34 10.52 33.08 13.16l11.26-13c13.05-18.67 14.8-27 21.73-46.55.15-.44.59-2 .75-2.49 1.21-5.15 1.87-12.52 5.38-11.86 2.23 1.85.5 9.45-.4 14.37l-.57 2.44c-3.7 15.88-5.48 24.52-15.31 42.22L241 296.96c4.39 1 9.33 2.22 15.15 3.76a126.66 126.66 0 0 0 18.28 5.11l7.91-14.85c11.45-28.13 11.25-39.44 14.47-67 .07-.61.16-2.83.23-3.46 0-7.05-1.27-16.83 3.49-17 3.44 1.75 3.44 12.14 3.73 18.8v3.34c-.11 21.75.13 33.5-7.41 59.43l-9.16 22.54c20 1.61 37.14-2.05 53.43-4.79a122.78 122.78 0 0 0 14.42-3.41c3.7-29 .68-40.4-3-67.83-.09-.63-.57-2.86-.66-3.51-1.76-7-5.57-16.43-.88-17.83 3.87.86 6.53 11.21 8.52 17.76l.84 3.33c5.45 21.68 8.69 33.32 7.82 61.05l-.39 2.89a213.8 213.8 0 0 0 23.66-10.58q2.22-1 4.4-2.05c-1.14-24.48-5.66-35.57-12.76-60.07-.18-.61-1-2.75-1.16-3.37-2.78-6.7-7.92-15.43-3.49-17.51 4 .28 8.11 10.12 11 16.32l1.32 3.18c8.14 19.6 13 30.54 16.21 55.19a130.7 130.7 0 0 0 26.94-22.93l.71-11.31c-8.44-31.93-48.72-91.55-49.16-92.13a6.72 6.72 0 0 1-1-1.38c-1.34-2.4-.79-5.11 1.44-5.93a3.59 3.59 0 0 1 2.3 0 9.94 9.94 0 0 1 3.66 2.72 237.39 237.39 0 0 1 18.3 21.57c7.94 10.65 17.19 23.06 27.38 43.09l9.71 21.27s31.61-69.68 5.61-110.36c-11.15-17.32-44.01-24.89-44.01-24.89s-15.31-3.54-16.65-4c0-1.4.86-17.09.86-17.09s2-33.66-11.59-49.16C345.87-14.87 259.36 4.69 259.36 4.69zm100 155.73c3.3 0 5.87 5.48 8.62 10.51l1.68 3.64c2.3 5.26 6.22 13.28 4.25 16-3.71 1.72-6.4-6.35-9.1-11.77l-2.66-5.84c-2.61-5.49-6.32-10.53-2.75-12.55zM334 178.54c2.61 0 5.38 4.56 7.52 8.6l1.31 2.93c1.78 4.23 4.34 10 2.76 12.2-3 1.41-5.2-5.39-7.3-9.76l-2.07-4.68c-2.06-4.42-5.06-7.64-2.22-9.29zm-97.68-26.45l-4.91-1.52c-4.58-1.59-11.59-3-10.53-6.13 2-1.82 8 .06 12.43 1.35l3.06 1c4.26 1.67 9.13 3.89 9.4 6.49-1.3 2.97-4.85.35-9.45-1.19zm41.4-35.72l-5.39-3.48c-5-3.46-12.57-7.29-10.33-10.71 3-1.56 10.33 3.48 15.19 6.52l3.36 2.19c4.57 3.45 9.63 6.79 9.15 10.05-2.51 3.24-6.96-1.17-11.98-4.57z" class="monsteraleaf"/>
</svg>