<svg xmlns="http://www.w3.org/2000/svg" id="right_bottom"  viewBox="0 0 378 378">
 <defs>
  
    <filter xmlns="http://www.w3.org/2000/svg" id="dropshadow" height="130%">
				<feGaussianBlur in="SourceAlpha" stdDeviation="0"/> 
				<feOffset dx="3" dy="9" result="offsetblur"/>
				<feComponentTransfer>
					<feFuncA type="linear" slope="0.2"/>
				</feComponentTransfer>
				<feMerge> 
					<feMergeNode/>
					<feMergeNode in="SourceGraphic"/> 
				</feMerge>
	</filter>

  </defs>

<path filter="url(#dropshadow)" d="M436.8 170.3l-2.5 18.7c-3.1 17.9-7.2 29.6-10.7 39.6-3.9 11.2-8.6 20.4-8.8 20.8-.5 1.1-1.2 2.2-2.1 2.9-.5.3-1.1.6-1.7.5-1.8-.2-2.8-2.2-2.4-4.3.1-.4.2-.9.5-1.3.2-.5 16.8-55.8 15.9-82.6l-3.6-10.3c-10.4-7.6-21.8-13.5-33.9-17.3 0 0-1.5-.6-4.2-1.6l7 41.6c1.7 26.4-1.1 37.5-5.6 58.3-.2 1-.5 2.1-.7 3.2-1.7 6.3-3.9 16.2-7.6 17.2-4.5-1.2-1.2-10.2.3-17 .1-.6.5-2.8.5-3.4 2.8-27 5.4-37.7.4-67l-10.5-38c-5-1.4-10.6-2.7-16.3-3.7 5.3 19.8 5.2 31 5.5 49.8 0 1.1 0 2.2.1 3.3-.2 6.5-.1 16.7-3.5 18.4-4.7-.1-3.5-9.7-3.6-16.6-.1-.6-.2-2.8-.3-3.4-2.9-22.4-3.3-33.9-10.1-53-.4 0-.7 0-1.1-.1-16.2-.9-33.5-2.6-53 1.5 4.5 10.3 6.8 19.2 10.2 31.7.3 1 .6 2 .8 3.1 1.4 6.2 3.9 15.8 1.2 18.2-4.4 1-5.6-8.3-7.4-14.8-.2-.6-.8-2.6-1.1-3.1-5.4-13.7-8.6-23-13.4-32.5-5.6 1.7-11.5 4-17.5 7-6.2 2.4-11.4 4.2-15.9 5.8l14.4 16.4c11.2 15.7 13.8 23.7 18.9 38.3.3.7.5 1.5.8 2.2 1.4 4.6 3.8 11.6 1.9 13.5-3.2 1-4.7-5.9-6.3-10.7-.2-.4-.8-1.9-1-2.3-8.6-17.8-11.2-25.5-25.5-41.7l-13.2-12.3c-8.9 3.3-16.2 6.9-27.7 15.1l-25.9 22.7-7.3 33.7c-1.7 15.2-1 23.5.6 33.9l15.6 5.1c21.2 4.6 29.1 3.1 48.8 2 .4 0 2-.2 2.5-.3 5-.8 11.7-2.9 12.4.4-.8 2.6-8.1 3.9-12.8 4.9-.8.1-1.6.3-2.4.4-15.3 2.6-23.5 4.2-42.7 2l-19.7-4.3c.7 4.2 1.5 9 2.3 14.7.3 6.4 1.1 12.4 2.3 18l15.9 1.5c28.9-.3 38.8-4.6 64.1-11.8.6-.2 2.5-.9 3.1-1.1 6.2-2.5 14.3-7.3 16.2-3.2-.3 3.7-9.4 7.5-15.1 10.2-1 .4-2 .8-2.9 1.2-19.1 7.9-29.4 12.4-54.9 15.3l-23.2.2c5.9 18.1 15.4 31.9 23.8 45.2 2.5 3.9 5.3 7.8 8.3 11.4 26.9-7.4 35.7-14.2 58.4-27.5.5-.3 2.3-1.5 2.8-1.9 5.5-4.1 12.4-10.9 15.3-7.3.7 3.7-7.4 9.8-12.5 14-.9.7-1.8 1.3-2.6 2-17 12.7-26.1 19.8-50.7 29.2l-2.7.7c9.4 10 18 16.9 18 16.9 1.1 1.1 2.3 2.1 3.4 3.1 21.1-10 29.2-18 48.1-33.2.5-.4 2.1-1.9 2.5-2.3 4.9-4.9 10.6-12.6 14.1-9.5 1.2 3.6-5.9 10.8-10.3 15.7l-2.3 2.3c-14.2 14.3-22.1 22.6-42.5 34.5 9.1 6.4 19.3 11.5 30 15.3l10.2-3.5c24.9-19.1 62.5-76.3 62.9-76.9.2-.5.5-1 .8-1.4 1.6-2.1 4.2-2.6 5.7-.9.5.5.7 1.3.8 2 0 1.5-.4 2.9-1 4.2-.2.4-5 11.8-12.2 24-6.4 10.9-13.9 23.6-27.8 39.8l-15.1 16.3s72.8 2.2 99-35.5c11.2-16.1 5.8-47.7 5.8-47.7s-2.5-14.7-2.6-16.1c1.2-.5 15.3-5.5 15.3-5.5s30.3-10.6 38.9-28.2c23-46-25.9-114.8-25.9-114.8zM336.7 315.2c1.2 2.9-2.7 7.2-6.1 11.4l-2.6 2.8c-3.8 3.9-9.4 10.3-12.5 9.6-2.9-2.6 3.2-7.9 7-12.3l4.2-4.5c3.9-4.2 6.9-9.4 10-7zm-25.2-15.6c1 2.3-2 6.4-4.8 9.8l-2.1 2.2c-3.1 3.1-7.2 7.5-9.7 6.9-2.3-2.1 2.8-6.5 5.9-10l3.4-3.5c3.1-3.5 4.8-7.3 7.3-5.4zm-12.6-95.5l-.5-4.9c-.3-4.6-1.6-11.3 1.5-11.5 2.3 1.1 2.9 7.1 3.4 11.4l.3 3c.1 4.4-.1 9.4-2.3 10.6-3 .1-2.1-4-2.4-8.6zm46.6 23.3l1.1-6c1.2-5.6 1.8-13.7 5.6-13 2.5 2 .7 10.3-.2 15.7l-.7 3.8c-1.4 5.3-2.4 10.9-5.5 11.7-3.7-1-1.5-6.6-.3-12.2z" class="monsteraleaf"/>
</svg>