<svg xmlns="http://www.w3.org/2000/svg" id="right_m_2"  viewBox="0 0 378 378">
 <defs>
  
    <filter xmlns="http://www.w3.org/2000/svg" id="dropshadow" height="130%">
				<feGaussianBlur in="SourceAlpha" stdDeviation="0"/> 
				<feOffset dx="3" dy="9" result="offsetblur"/>
				<feComponentTransfer>
					<feFuncA type="linear" slope="0.2"/>
				</feComponentTransfer>
				<feMerge> 
					<feMergeNode/>
					<feMergeNode in="SourceGraphic"/> 
				</feMerge>
	</filter>

  </defs>

<path filter="url(#dropshadow)" d="M448.1 115.5l-4.3 16.8c-4.7 16-9.7 26.2-14 35-4.8 9.8-10 17.7-10.2 18-.6 1-1.3 1.9-2.2 2.4-.5.2-1.1.4-1.6.3-1.7-.3-2.4-2.3-1.7-4.2.1-.4.3-.8.6-1.1.2-.5 21.3-49.2 23.4-73.7l-2.2-9.7c-8.7-8-18.5-14.7-29-19.4 0 0-1.3-.7-3.6-1.9l1.9 38.7c-1.3 24.2-5 34.1-11.3 52.6-.3.9-.6 1.9-1 2.8-2.2 5.6-5.3 14.4-8.7 14.8-4-1.6 0-9.5 2.1-15.5.1-.6.7-2.5.8-3 5.4-24.3 8.9-33.8 7.6-61.1l-5.5-35.8c-4.4-1.8-9.4-3.6-14.5-5.1 2.7 18.7 1.5 28.9-.3 46.1l-.3 3c-.9 5.9-1.9 15.2-5.1 16.4-4.2-.6-2.1-9.2-1.5-15.5 0-.6.1-2.6.1-3.1-.2-20.8.6-31.3-3.5-49.4-.3-.1-.7-.1-1-.2-14.7-2.6-30.3-6-48.5-4.3 3 9.9 4.2 18.3 5.9 30 .1.9.3 1.9.4 2.9.6 5.8 1.9 14.8-.9 16.7-4.1.4-4.2-8.2-5.2-14.3-.1-.5-.5-2.4-.6-3-3.5-13.1-5.4-21.9-8.8-31.1-5.3 1-10.9 2.4-16.7 4.5-5.9 1.5-10.8 2.7-15.1 3.6L285 85.2c8.5 15.5 10 23.1 13.2 37 .2.7.3 1.4.5 2.1.8 4.3 2.2 11 .3 12.6-3.1.6-3.6-5.9-4.6-10.4-.1-.4-.5-1.8-.6-2.2-6-17.2-7.5-24.4-18.8-40.8L263.9 71c-8.4 2.1-15.5 4.6-26.9 10.8l-26.1 18-10.3 30c-3.2 13.6-3.5 21.3-3.1 31l13.7 6.3c18.8 6.5 26.2 6 44.4 7.1h2.3c4.6-.2 11-1.4 11.3 1.7-1 2.3-7.8 2.7-12.2 3.1-.7 0-1.5.1-2.2.1-14.2.7-21.9 1.3-39.2-2.7l-17.6-6c.2 3.9.4 8.4.5 13.6-.4 5.9-.3 11.4.1 16.6l14.4 3.1c26.4 2.9 35.9 0 59.8-3.9.5-.1 2.4-.5 3-.6 5.9-1.7 13.8-5.1 15.1-1.2-.6 3.3-9.4 5.8-14.9 7.7-1 .3-1.9.5-2.8.8-18.3 5.1-28.1 8.2-51.7 8.1l-21.2-2.3c3.4 17.2 10.7 30.7 16.9 43.8 1.8 3.9 4 7.7 6.3 11.3 25.3-3.9 34.1-9.1 56.3-18.9.5-.2 2.3-1.2 2.8-1.4 5.5-3.2 12.5-8.6 14.8-5 .2 3.5-7.9 8.2-12.9 11.4-.9.5-1.8 1-2.6 1.5-16.9 9.8-25.9 15.3-49.4 21.3l-2.5.4c7.5 10.1 14.6 17.3 14.6 17.3.9 1.1 1.8 2.2 2.8 3.2 20.3-6.9 28.5-13.3 47.4-25.2.5-.3 2.1-1.5 2.6-1.8 5-3.9 11.1-10.4 13.9-7.1.7 3.4-6.6 9.3-11.1 13.2-.8.6-1.6 1.3-2.4 1.9-14.5 11.6-22.5 18.3-42.5 26.9 7.7 6.8 16.4 12.6 25.8 17.1l9.7-2.1c24.8-14.8 65.2-63 65.6-63.5.3-.5.6-.9.9-1.2 1.7-1.7 4.1-1.9 5.3-.2.4.5.5 1.3.5 1.9-.1 1.4-.7 2.6-1.4 3.7-.2.4-5.8 10.2-13.7 20.6-7 9.2-15.3 20-29.6 33.4l-15.5 13.3s66.2 9.8 94.1-21.8c11.9-13.5 10.4-42.9 10.4-42.9s-.7-13.7-.7-14.9c1.2-.4 14.6-3.4 14.6-3.4s28.8-6.5 38.5-21.6c25.5-40-11.7-108-11.7-108zM341.2 237c.8 2.8-3.2 6.3-6.8 9.8l-2.7 2.3c-3.9 3.2-9.7 8.4-12.4 7.4-2.3-2.7 3.8-6.9 7.7-10.5l4.3-3.6c4-3.6 7.4-7.9 9.9-5.4zm-21.3-17c.6 2.2-2.5 5.6-5.4 8.4l-2.2 1.8c-3.1 2.5-7.4 6.1-9.6 5.3-1.9-2.1 3.3-5.7 6.4-8.5l3.5-2.9c3.2-2.8 5.2-6.1 7.3-4.1zm-1.3-88.5l.1-4.5c.2-4.2-.2-10.5 2.6-10.3 2 1.2 1.9 6.8 1.9 10.8l-.1 2.8c-.4 4-1.1 8.6-3.2 9.5-2.8-.4-1.5-4-1.3-8.3zm40 26.2l1.6-5.4c1.7-5 3.1-12.3 6.5-11.3 2 2.1-.4 9.5-1.8 14.3l-1 3.4c-1.8 4.7-3.4 9.7-6.2 10.1-3.4-1.2-.7-6 .9-11.1z" class="monsteraleaf"/>
</svg>