<svg xmlns="http://www.w3.org/2000/svg" id="right_m_11" viewBox="0 0 378 378">
 <defs>
  
    <filter xmlns="http://www.w3.org/2000/svg" id="dropshadow" height="130%">
				<feGaussianBlur in="SourceAlpha" stdDeviation="0"/> 
				<feOffset dx="3" dy="9" result="offsetblur"/>
				<feComponentTransfer>
					<feFuncA type="linear" slope="0.2"/>
				</feComponentTransfer>
				<feMerge> 
					<feMergeNode/>
					<feMergeNode in="SourceGraphic"/> 
				</feMerge>
	</filter>

  </defs>

<path filter="url(#dropshadow)" d="M441.4 76.5l.1 18.1c-.6 17.3-2.9 28.9-4.9 38.9-2.3 11.2-5.4 20.5-5.5 20.8-.4 1.1-.8 2.3-1.6 3-.5.4-1 .7-1.6.7-1.8.1-3-1.6-2.9-3.8 0-.4.1-.9.2-1.3.1-.6 8.5-55.1 4.2-80.4l-4.8-9.2c-10.8-5.8-22.5-9.9-34.3-11.9 0 0-1.5-.4-4.1-1L398.4 89c5.1 24.8 4 35.6 2.4 55.9-.1 1-.1 2-.3 3.1-.8 6.2-1.5 15.8-4.9 17.3-4.4-.5-2.5-9.6-1.9-16.1-.1-.6.1-2.7.1-3.2-.9-25.9.1-36.4-8.5-63.5l-15-34.6c-4.9-.6-10.4-1.1-15.9-1.4 7.6 18 9.1 28.7 11.9 46.4.2 1 .4 2 .6 3.1.7 6.2 2.1 15.9-.8 17.9-4.5.5-4.6-8.7-5.6-15.3-.2-.6-.5-2.7-.8-3.2-5.7-20.8-7.6-31.6-16.5-48.8h-1.1c-15.5 1.3-32.1 1.9-50 8.5 5.6 9.2 9 17.3 13.8 28.6.4.9.7 1.9 1.2 2.8 2.2 5.7 5.8 14.4 3.6 17.1-4 1.6-6.4-7.1-8.9-13.1-.2-.5-1.1-2.3-1.5-2.8-7-12.2-11.2-20.5-17-29-5.1 2.4-10.3 5.3-15.6 8.9-5.6 3.1-10.2 5.5-14.2 7.6l15.8 13.6c12.7 13.4 16.2 20.6 23 33.7.4.7.7 1.3 1 2 1.9 4.1 5.1 10.4 3.6 12.6-2.9 1.4-5.2-5-7.4-9.3-.2-.4-1-1.6-1.2-2-10.5-15.7-13.9-22.6-29.7-36.2l-14.2-9.9c-7.9 4.4-14.5 8.6-24.2 18l-21.5 24.9-2.5 32.9c.4 14.6 2.1 22.4 5.1 32l15.4 2.7c20.7 1.5 27.9-.9 46.5-4.5.4 0 1.9-.5 2.3-.6 4.6-1.5 10.6-4.4 11.8-1.3-.5 2.6-7.2 4.8-11.4 6.4-.8.2-1.4.5-2.2.7-14.1 4.5-21.7 7-40.1 7.6l-19.3-1.5c1.3 3.9 2.6 8.3 4.1 13.6 1.2 6 2.7 11.6 4.5 16.7l15.3-.7c27.4-4.1 36.1-9.4 59.1-19.8.5-.2 2.2-1.2 2.8-1.5 5.6-3.3 12.6-8.8 14.9-5.1.2 3.5-7.9 8.3-12.9 11.6-.9.5-1.8 1-2.6 1.6-17.1 10-26.1 15.7-49.9 21.7l-22 4.1c8 16.4 18.8 28.1 28.6 39.6 2.9 3.4 6 6.7 9.4 9.7 24.4-10.5 31.9-18.2 51.6-33.8.5-.4 1.9-1.7 2.4-2.1 4.7-4.7 10.3-12 13.6-8.9 1.1 3.4-5.8 10.3-9.9 15-.7.8-1.5 1.5-2.2 2.2-14.4 14.3-22 22.2-44.2 34.4l-2.4 1.1c10.2 8.2 19.2 13.6 19.2 13.6 1.2.8 2.4 1.7 3.6 2.5 18.6-12.2 25.2-20.9 41.1-37.9.4-.4 1.7-2 2.1-2.4 4-5.2 8.5-13.3 12.1-10.8 1.7 3.2-4.1 11-7.6 16.2-.6.8-1.3 1.7-1.9 2.6-11.5 15.5-17.9 24.3-35.7 38.3 9.5 4.8 19.8 8.3 30.4 10.5l9.2-4.7c21.1-21.3 49.1-80.6 49.3-81.1.2-.5.3-1 .6-1.5 1.3-2.1 3.6-3 5.3-1.6.5.4.9 1.2 1 1.8.2 1.4 0 2.7-.5 4.2-.1.4-3.2 11.9-8.4 24.4-4.7 11.1-10.1 24.1-21.1 41.4L351 329.3s69.2-7.6 89-46.7c8.5-16.7-.8-45.9-.8-45.9s-4.3-13.6-4.6-14.9c1.1-.7 13.8-7.2 13.8-7.2s27.3-14.1 33.1-31.8c15.4-47.6-40.1-106.3-40.1-106.3zm-75.5 150.6c1.5 2.6-1.6 7.2-4.2 11.6l-2 3c-3 4.2-7.5 11-10.6 10.7-3.1-2.1 2-7.9 5-12.6l3.3-4.8c3.1-4.5 5.3-9.8 8.5-7.9zM340 215.6c1.3 2.1-1.1 6.3-3.3 9.8l-1.7 2.4c-2.5 3.4-5.9 8.1-8.2 7.8-2.4-1.7 1.7-6.6 4.3-10.2l2.7-3.8c2.4-3.6 3.6-7.4 6.2-6zm-24.5-88.7l-1.1-4.6c-.9-4.3-3-10.5-.1-11 2.3.7 3.6 6.3 4.7 10.3l.7 2.9c.7 4.1 1.2 8.9-.7 10.4-3 .3-2.7-3.7-3.5-8zm47.1 15.8l.3-5.8c.4-5.5-.1-13.2 3.6-13.1 2.6 1.6 2 9.7 2 14.9l-.2 3.7c-.5 5.2-.9 10.7-3.7 11.8-3.7-.5-2.4-5.9-2-11.5z" class="monsteraleaf"/>
</svg>