<svg xmlns="http://www.w3.org/2000/svg" id="right_m_9" viewBox="0 0 378 378">
 <defs>
  
    <filter xmlns="http://www.w3.org/2000/svg" id="dropshadow" height="130%">
				<feGaussianBlur in="SourceAlpha" stdDeviation="0"/> 
				<feOffset dx="3" dy="9" result="offsetblur"/>
				<feComponentTransfer>
					<feFuncA type="linear" slope="0.2"/>
				</feComponentTransfer>
				<feMerge> 
					<feMergeNode/>
					<feMergeNode in="SourceGraphic"/> 
				</feMerge>
	</filter>

  </defs>

<path filter="url(#dropshadow)" d="M354.2 42.4l9.4 12.2c8.5 12.1 12.9 21.2 16.7 29 4.2 8.8 6.8 16.7 6.9 17.1.3 1 .6 1.9.5 2.9-.1.5-.3 1-.7 1.3-1.2 1-2.9.4-3.9-1.1-.2-.3-.4-.6-.5-1-.2-.4-22.5-41.9-38.5-56.9l-8-3.8c-10.4 1.6-20.4 4.8-29.5 9.6 0 0-1.2.5-3.3 1.5l28 20c16.2 14.2 21 22.3 30.4 36.9.5.7.9 1.5 1.4 2.2 2.7 4.6 7.1 11.6 5.5 14.3-3.3 1.9-6.6-5.2-9.6-10-.3-.4-1.3-1.9-1.6-2.2-13.9-17.2-18.6-24.9-38.4-38.9l-28-15.9c-3.7 2.1-7.7 4.6-11.5 7.3 14.5 8.4 20.9 14.9 31.9 25.6.6.6 1.3 1.2 1.9 1.9 3.6 3.9 9.6 9.7 8.6 12.6-2.8 2.6-7.6-3.6-11.7-7.5-.4-.3-1.7-1.5-2.1-1.8-14.6-11.3-21.4-17.6-36.4-24.8-.2.2-.4.4-.7.6-9.9 8.9-20.8 17.8-29.7 31.4 8.5 3.3 15 7.1 24.2 12.4.7.4 1.5.8 2.3 1.3 4.4 2.8 11.4 6.8 11.2 9.8-2 3.1-8-1.6-12.8-4.3-.5-.2-2-1-2.4-1.2-11-4.8-18.2-8.3-26.5-11-2.3 4.3-4.3 8.9-6.1 14.1-2.2 5-4.1 9-5.8 12.5l17.8 1.1c15.5 2.6 21.6 5.7 33 11.2.6.3 1.2.6 1.8.8 3.4 1.8 8.9 4.5 8.9 6.7-1.3 2.4-6.1-.7-9.8-2.5-.3-.1-1.5-.6-1.9-.8-15.2-5.3-21.1-8.3-38.8-9.4l-14.7.6c-3.2 7-5.4 13.3-7.3 24.7l-1.8 28.1 15.2 23.7c7.8 9.7 12.9 14.1 19.9 19.2l11.9-6c14.9-9.6 18.6-15 29.3-27 .2-.3 1-1.3 1.3-1.6 2.4-3.3 5-8.4 7.4-6.9 1.1 2-2.4 6.9-4.5 10.2-.4.5-.8 1.1-1.1 1.6-7.3 10.3-11.2 16-23.5 25.8l-13.9 8.9c2.8 2 6 4.3 9.8 7.2 3.9 3.5 7.8 6.5 11.7 9.1l10.1-8.3c16.5-16.8 19.7-25 30.2-43.8.2-.4.9-2 1.2-2.4 2.1-5.1 4.1-12.5 7.5-11.2 2 2.3-1.1 9.7-2.9 14.6-.3.8-.7 1.6-1 2.4-6.5 15.6-9.8 24.1-22.9 40.5l-13.2 13.5c13.9 7.1 27.3 9.5 39.8 12.3 3.7.8 7.6 1.4 11.4 1.8 11.2-19.8 12.4-28.8 17.8-49.6.1-.5.4-2.2.6-2.7.8-5.6.9-13.4 4.6-13.1 2.5 1.8 1.4 10 .9 15.3-.1.9-.3 1.8-.4 2.6-2.5 17.2-3.6 26.5-12.4 46.1l-1.1 2c11.2.3 20.1-.6 20.1-.6 1.3 0 2.5-.1 3.8-.2 6.4-17.9 6.4-27.2 8.6-46.9.1-.5.1-2.3.2-2.8 0-5.6-1.1-13.4 2.7-13.6 2.8 1.4 2.8 9.7 3.1 15v2.7c.1 16.5.3 25.8-4.6 44.4 9-1.6 17.8-4.5 26.1-8.5l3.8-7.9c3.4-25.4-8-80.1-8.1-80.7-.2-.4-.3-.9-.3-1.3-.3-2.1.9-3.9 2.8-3.8.6 0 1.2.3 1.6.7.9.8 1.4 1.9 1.8 3 .1.4 3.9 9.7 6.8 20.9 2.6 10 5.5 21.6 6.9 39l.7 18.1s43.3-40.7 36.6-77.6c-2.8-15.7-24.2-30.9-24.2-30.9s-9.9-7.1-10.8-7.8c.4-1 5.7-12 5.7-12s11.3-23.6 6.2-38.7c-13.7-39.8-81.6-51.3-81.6-51.3zm25.9 141.3c2.4 1 2.6 5.7 3.1 10.1l.1 3.1c.1 4.5.5 11.4-1.7 12.7-3.2.1-2.7-6.4-3.1-11.1l-.2-5c-.2-4.7-1.4-9.4 1.8-9.8zm-23.6 5.5c1.9.8 2.5 4.9 2.9 8.4l.1 2.5c0 3.6.2 8.5-1.6 9.6-2.5.1-2.1-5.4-2.4-9.2l-.1-4c-.2-3.7-1.4-6.9 1.1-7.3zm-62.3-47.8l-3.1-2.5c-2.8-2.5-7.4-5.6-5.7-7.5 2-.7 5.7 2.4 8.5 4.6l1.9 1.6c2.6 2.5 5.4 5.5 4.8 7.4-1.8 1.8-3.6-1.1-6.4-3.6zm40.2-13.4l-2.8-4.1c-2.6-4-6.9-8.9-4.3-10.7 2.6-.3 6.4 5.5 9 9.2l1.8 2.6c2.3 3.8 4.9 7.7 3.6 9.9-2.8 1.5-4.7-3-7.3-6.9z" class="monsteraleaf"/>
</svg>