<svg xmlns="http://www.w3.org/2000/svg" id="right_m_5"  viewBox="0 0 378 378">
 <defs>
  
    <filter xmlns="http://www.w3.org/2000/svg" id="dropshadow" height="130%">
				<feGaussianBlur in="SourceAlpha" stdDeviation="0"/> 
				<feOffset dx="3" dy="9" result="offsetblur"/>
				<feComponentTransfer>
					<feFuncA type="linear" slope="0.2"/>
				</feComponentTransfer>
				<feMerge> 
					<feMergeNode/>
					<feMergeNode in="SourceGraphic"/> 
				</feMerge>
	</filter>

  </defs>

<path filter="url(#dropshadow)" d="M405.7 81.8l4.5 14.6c3.8 14.2 4.7 24.2 5.6 32.8.9 9.6.6 18 .6 18.3 0 1-.1 2-.6 2.9-.3.4-.6.8-1.1 1-1.4.5-2.8-.6-3.2-2.4-.1-.4-.1-.7-.1-1.1 0-.5-6.6-46.9-16.3-66.3l-6.1-6.3c-10.2-2.1-20.7-2.6-30.8-1.2 0 0-1.3.1-3.6.3l19.3 28.3c10.2 18.9 12 28 15.7 44.9.2.8.4 1.7.6 2.6.9 5.2 2.6 13.3.2 15.2-3.7.7-4.3-7.2-5.6-12.6-.2-.5-.6-2.2-.8-2.6-7.1-20.8-8.8-29.6-22.4-49.5l-20.7-24.5c-4.2.7-8.7 1.6-13.3 2.8 10.6 12.8 14.4 21.1 21 34.9l1.2 2.4c2.1 4.9 5.6 12.3 3.7 14.8-3.5 1.5-5.9-6-8.3-11-.3-.4-1.1-2-1.3-2.4-9.7-15.6-13.9-23.8-25.4-35.6-.3.1-.5.2-.8.3-12.3 4.9-25.6 9.4-38.6 19.1 6.8 6.1 11.5 11.8 18.3 19.9.5.6 1.1 1.3 1.7 2 3.1 4.1 8.2 10.3 7.1 13-2.9 2.2-7-4.2-10.5-8.4-.4-.3-1.5-1.6-1.8-1.9-8.6-8.2-14.2-14-21-19.4-3.6 3.2-7.1 6.8-10.5 11.1-3.8 3.9-6.9 7-9.7 9.7l16.2 7.2c13.6 7.8 18.2 12.8 27 21.8.4.5.9.9 1.4 1.4 2.6 2.9 6.7 7.2 6 9.3-2.1 1.8-5.4-2.8-8.3-5.7-.3-.2-1.2-1.1-1.5-1.4-12.4-10.2-16.9-15-33-22.1l-13.9-4.5c-5.4 5.5-9.6 10.6-15.3 20.5l-11.4 25.6 6 27.3c3.9 11.7 7.2 17.7 11.9 24.8l13.2-1.5c17.2-3.8 22.5-7.6 36.7-15.1.3-.2 1.4-.9 1.7-1 3.4-2.3 7.6-6.1 9.3-3.9.3 2.2-4.7 5.6-7.7 8-.5.4-1.1.7-1.6 1.1-10.4 7.1-15.9 11.1-30.8 16l-16 3.5c2 2.9 4.1 6.1 6.6 10.1 2.4 4.6 5 8.8 7.8 12.5l12.3-4.3c21.2-10 27-16.5 43.2-30.5.4-.3 1.6-1.5 1.9-1.8 3.7-4 8.1-10.2 10.9-7.9 1 2.8-4.4 8.7-7.7 12.6-.6.6-1.2 1.3-1.8 1.9-11.4 12.3-17.4 19.1-35.3 29.9l-17 8c10.5 11.4 22.2 18.2 32.9 25.2 3.2 2.1 6.6 3.9 10 5.6 17.3-14.6 21.5-22.6 33.7-40.2.3-.4 1.2-1.9 1.5-2.3 2.7-4.9 5.4-12.3 8.8-10.6 1.8 2.5-2.1 9.8-4.4 14.6-.4.8-.9 1.6-1.3 2.3-8.2 15.2-12.5 23.5-27.5 38.8l-1.7 1.4c10.4 4.2 19 6.4 19 6.4 1.2.4 2.4.8 3.6 1.1 12.2-14.5 15.4-23.2 24.2-40.8.2-.4.9-2.1 1.1-2.5 1.9-5.3 3.6-12.9 7.2-11.8 2.1 2.2-.7 10-2.3 15.1-.3.9-.6 1.7-.9 2.5-5.6 15.4-8.6 24.2-19.6 39.8 8.9 1.6 18.1 1.9 27.3 1l6.3-6.1c11.9-22.6 20.2-77.5 20.2-78.1 0-.5 0-.9.1-1.3.5-2.1 2.2-3.3 3.9-2.6.6.2 1 .7 1.3 1.2.5 1.1.6 2.3.7 3.5 0 .4.3 10.4-.9 21.8-1.1 10.2-2.3 22.1-7 38.8l-5.6 17.2s54.4-23.1 60.9-59.8c2.8-15.7-12-37.1-12-37.1s-6.8-10-7.4-11c.7-.8 9.4-9.3 9.4-9.3s18.7-18.1 19.1-34c1-42.2-58.4-76.3-58.4-76.3zm-24.5 140.8c1.9 1.7.5 6.2-.6 10.5l-.9 2.9c-1.4 4.2-3.4 10.8-5.9 11.3-3-1-.3-7 1-11.5l1.5-4.7c1.3-4.4 1.8-9.2 4.9-8.5zm-23.9-3c1.5 1.4.7 5.4-.2 8.8l-.8 2.4c-1.2 3.3-2.8 8-4.8 8.4-2.4-.7-.1-5.8 1-9.4l1.3-3.8c1-3.5 1-6.9 3.5-6.4zm-41.7-66.1l-2-3.4c-1.8-3.3-5-7.8-2.8-9 2.1 0 4.5 4.2 6.4 7.3l1.2 2.1c1.6 3.2 3.2 7 2 8.6-2.4 1-3-2.3-4.8-5.6zm42.2 1.4l-1.2-4.8c-1-4.6-3.3-10.7-.3-11.5 2.5.7 4 7.4 5.2 11.6l.8 3c.8 4.4 1.9 8.9-.1 10.5-3.1.5-3.4-4.3-4.4-8.8z" class="monsteraleaf"/>
</svg>