<svg xmlns="http://www.w3.org/2000/svg" id="right_m_6"  viewBox="0 0 378 378">
 <defs>
  
    <filter xmlns="http://www.w3.org/2000/svg" id="dropshadow" height="130%">
				<feGaussianBlur in="SourceAlpha" stdDeviation="0"/> 
				<feOffset dx="3" dy="9" result="offsetblur"/>
				<feComponentTransfer>
					<feFuncA type="linear" slope="0.2"/>
				</feComponentTransfer>
				<feMerge> 
					<feMergeNode/>
					<feMergeNode in="SourceGraphic"/> 
				</feMerge>
	</filter>

  </defs>

<path filter="url(#dropshadow)" d="M395.5 68l9.1 13.2c8.2 13 12.2 22.8 15.7 31.1 3.9 9.4 6.1 17.8 6.2 18.1.3 1 .5 2 .3 3-.1.5-.4 1-.8 1.3-1.3.9-3 .2-4-1.4-.2-.3-.3-.7-.5-1.1-.2-.5-21.1-44.8-36.8-61.3l-8.1-4.4c-10.9 1.1-21.5 3.8-31.2 8.3 0 0-1.3.5-3.5 1.4l28 22.4c16 15.7 20.6 24.3 29.5 40 .4.8.9 1.6 1.4 2.4 2.5 4.9 6.7 12.5 4.9 15.1-3.5 1.8-6.6-5.8-9.5-10.9-.3-.4-1.3-2-1.6-2.4-13.5-18.6-18-26.9-37.7-42.6l-28.2-18.1c-3.9 2-8.2 4.3-12.4 6.9 14.6 9.5 20.9 16.6 31.8 28.4.6.7 1.2 1.3 1.9 2 3.6 4.2 9.4 10.6 8.3 13.6-3 2.6-7.7-4.2-11.7-8.5-.4-.3-1.7-1.7-2.1-2-14.6-12.6-21.3-19.5-36.4-27.8-.2.2-.5.4-.7.6-10.8 8.6-22.7 17.3-32.7 31 8.7 4 15.2 8.3 24.4 14.2.7.5 1.5 1 2.3 1.5 4.4 3.1 11.4 7.7 11.1 10.8-2.2 3.1-8.3-2.1-13.1-5.2-.5-.2-2-1.2-2.4-1.4-11.2-5.6-18.5-9.6-27-12.9-2.6 4.3-5 9-7.1 14.3-2.6 5.1-4.8 9.1-6.7 12.7l18.4 2.2c16 3.6 22.1 7.2 33.7 13.5.6.3 1.2.6 1.8 1 3.5 2.1 9 5.2 8.9 7.5-1.5 2.5-6.3-1.1-10.1-3.1-.4-.1-1.6-.8-1.9-.9-15.6-6.4-21.5-9.8-39.8-11.9l-15.3-.2c-3.7 7.1-6.3 13.6-9 25.3l-3.5 29.1 14.5 25.5c7.5 10.5 12.7 15.4 19.6 21.1l12.7-5.6c16-9.1 20.2-14.6 32-26.4.3-.3 1.1-1.3 1.4-1.6 2.7-3.3 5.7-8.5 8.1-6.8 1 2.1-2.9 7.1-5.3 10.4-.4.5-.9 1.1-1.3 1.6-8.2 10.3-12.5 16-25.9 25.5l-14.9 8.5c2.8 2.3 6 4.9 9.8 8 3.9 3.9 7.7 7.2 11.6 10.1l10.9-8.1c18.1-16.6 21.9-24.9 33.8-43.9.3-.4 1.1-2 1.4-2.4 2.5-5.1 4.9-12.7 8.5-11.2 1.9 2.5-1.7 10.1-3.8 15l-1.2 2.4c-7.6 15.8-11.5 24.5-26.1 40.8L310.9 299c14 8.1 27.8 11.4 40.7 15.1 3.8 1.1 7.8 1.9 11.7 2.5 12.8-19.9 14.5-29.3 21.3-50.6.2-.5.6-2.3.7-2.8 1.2-5.7 1.6-13.9 5.6-13.3 2.5 2 .9 10.5.1 15.9-.2.9-.4 1.8-.5 2.7-3.6 17.7-5.2 27.3-15.5 47.3l-1.3 2c11.7 1 21 .5 21 .5h3.9c7.7-18.3 8.2-27.9 11.6-48.3.1-.5.2-2.3.3-2.9.3-5.9-.4-14 3.5-14 2.8 1.6 2.4 10.2 2.4 15.8 0 1-.1 1.9-.1 2.8-.9 17.1-1.1 26.8-7.3 45.9 9.4-1.2 18.7-3.7 27.6-7.4l4.4-8c4.9-26.2-3.8-83.8-3.9-84.4-.2-.5-.2-.9-.3-1.4-.1-2.2 1.2-4 3.1-3.8.6 0 1.2.4 1.7.8.9.9 1.3 2.1 1.7 3.3.1.4 3.5 10.3 5.9 22.1 2.1 10.5 4.5 22.8 5 41l-.3 18.9s47.3-39.9 42.4-78.6c-2.1-16.5-23.4-33.5-23.4-33.5s-9.9-7.9-10.8-8.7c.5-1 6.6-12.2 6.6-12.2s13.1-23.9 8.6-39.9c-11.8-42-81.8-57.8-81.8-57.8zm18.9 148.5c2.4 1.1 2.4 6 2.6 10.7v3.2c-.2 4.6-.1 11.9-2.5 13.1-3.3 0-2.5-6.9-2.6-11.8l.1-5.2c.1-4.8-.9-9.8 2.4-10zm-24.8 4.4c1.9.9 2.3 5.2 2.5 8.9l-.1 2.6c-.2 3.7-.3 8.8-2.2 9.9-2.6 0-1.9-5.7-1.9-9.7l.1-4.2c0-3.9-1-7.3 1.6-7.5zm-62.1-53.3l-3.1-2.8c-2.8-2.8-7.4-6.2-5.6-8.1 2.1-.6 5.8 2.8 8.6 5.3l1.9 1.8c2.5 2.7 5.3 6 4.6 8-1.9 1.7-3.6-1.5-6.4-4.2zm42.6-11.7l-2.7-4.4c-2.4-4.3-6.6-9.7-3.8-11.4 2.7-.1 6.3 6.1 8.8 10l1.7 2.8c2.1 4.1 4.7 8.3 3.2 10.5-3 1.5-4.7-3.3-7.2-7.5z" class="monsteraleaf"/>
</svg>