<svg xmlns="http://www.w3.org/2000/svg" id="right_m_4"  viewBox="0 0 378 378">
 <defs>
  
    <filter xmlns="http://www.w3.org/2000/svg" id="dropshadow" height="130%">
				<feGaussianBlur in="SourceAlpha" stdDeviation="0"/> 
				<feOffset dx="3" dy="9" result="offsetblur"/>
				<feComponentTransfer>
					<feFuncA type="linear" slope="0.2"/>
				</feComponentTransfer>
				<feMerge> 
					<feMergeNode/>
					<feMergeNode in="SourceGraphic"/> 
				</feMerge>
	</filter>

  </defs>

<path filter="url(#dropshadow)" d="M391.9 73.6l6.4 13.3c5.6 13 8 22.4 9.9 30.5 2.2 9 3.1 17 3.2 17.3.1 1 .2 1.9-.1 2.8-.2.4-.5.9-.9 1.1-1.3.7-2.8-.2-3.4-1.8-.1-.3-.2-.7-.3-1-.1-.4-12.9-43.7-25-60.8l-6.7-5.2c-10-.5-20.1.5-29.5 3.2 0 0-1.3.2-3.4.8L364.5 98c12.4 16.5 15.4 25 21.3 40.5l.9 2.4c1.6 4.8 4.4 12.3 2.4 14.5-3.5 1.1-5.1-6.2-7.1-11.2-.2-.4-.9-2-1.1-2.4-9.7-18.8-12.6-26.9-28.4-44l-23.2-20.4c-3.9 1.2-8.1 2.8-12.2 4.6 11.9 10.7 16.7 18 25 30.2.5.7.9 1.4 1.4 2.1 2.7 4.4 7.1 10.9 5.6 13.5-3.1 1.9-6.4-4.9-9.5-9.3-.3-.4-1.3-1.7-1.6-2.1-11.5-13.4-16.7-20.7-29.3-30.3-.2.1-.5.3-.7.4-11 6.4-23 12.6-34 23.7 7.3 4.8 12.7 9.6 20.2 16.3.6.5 1.2 1.1 1.9 1.6 3.5 3.5 9.3 8.6 8.6 11.4-2.5 2.5-7.2-3-11.2-6.5-.4-.3-1.7-1.3-2-1.6-9.4-6.6-15.5-11.3-22.7-15.5-2.9 3.5-5.8 7.5-8.5 12-3 4.2-5.6 7.6-7.9 10.6L269 143c14 5.5 19.1 9.6 28.8 16.9.5.4 1 .7 1.5 1.1 2.8 2.4 7.4 5.9 7 8-1.7 2-5.6-1.9-8.7-4.2-.3-.2-1.3-.9-1.6-1.1-13.3-7.9-18.2-11.9-34.5-16.4l-13.9-2.3c-4.4 6-7.6 11.4-11.7 21.7l-7.2 25.9 9.6 25.2c5.4 10.6 9.4 15.8 14.9 21.9l12.4-3.3c15.8-6 20.4-10.4 32.8-19.6.3-.2 1.2-1 1.5-1.2 2.9-2.7 6.4-6.9 8.3-5.1.6 2.1-3.6 6-6.2 8.7-.5.4-.9.9-1.4 1.3-8.9 8.2-13.6 12.8-27 19.6l-14.7 5.6c2.3 2.5 4.8 5.3 7.8 8.6 3 4.1 6 7.6 9.2 10.8l11.1-5.8c18.8-12.5 23.4-19.6 36.8-35.2.3-.3 1.3-1.7 1.6-2 3-4.3 6.2-10.9 9.2-9 1.4 2.5-2.9 8.9-5.5 13.1-.5.7-.9 1.4-1.4 2.1-9.1 13.3-13.9 20.7-29.3 33.5l-15 10.1c11.6 9.3 23.7 14.2 34.9 19.3 3.3 1.5 6.8 2.8 10.3 3.9 14.4-16.3 17.3-24.6 26.4-43 .2-.4.8-2 1.1-2.4 1.8-5.1 3.4-12.4 6.9-11.3 2 2.1-.7 9.6-2.2 14.5l-.9 2.4c-5.7 15.6-8.5 24.1-20.6 40.8l-1.4 1.6c10.5 2.5 19 3.3 19 3.3l3.6.6c9.5-15.5 11.4-24.3 17.2-42.3.1-.4.5-2.1.7-2.6 1.1-5.3 1.6-12.8 5.2-12.2 2.3 1.8.8 9.6 0 14.6-.2.9-.3 1.7-.5 2.5-3.2 15.5-4.7 24.2-13 40.7 8.7.3 17.6-.7 26.1-2.9l5.2-6.7c8.1-23.2 8.2-76.7 8.2-77.2-.1-.4-.1-.9-.1-1.3.2-2 1.6-3.5 3.4-3.1.6.1 1 .6 1.4 1 .7.9.9 2.1 1.1 3.2.1.4 1.8 9.8 2.3 20.9.4 9.9 1 21.4-1.1 37.9l-2.9 17.1s48.5-29.7 49.5-65.6c.4-15.3-16.7-33.7-16.7-33.7s-7.9-8.6-8.6-9.4c.6-.9 7.7-10.2 7.7-10.2s15.2-19.9 13.4-35.1c-5.7-39.6-67.1-63.6-67.1-63.6zm-3.3 137.5c2 1.4 1.3 5.8.9 10.1l-.5 2.9c-.8 4.2-1.7 10.8-4 11.6-3-.5-1.3-6.6-.7-11l.8-4.7c.6-4.5.4-9.1 3.5-8.9zm-23.2.6c1.6 1.1 1.4 5 1 8.4l-.4 2.3c-.7 3.3-1.5 8-3.4 8.7-2.4-.4-1-5.5-.4-9l.7-3.8c.6-3.5.1-6.8 2.5-6.6zm-49.1-57l-2.4-3c-2.2-2.9-5.9-6.7-3.9-8.2 2-.3 4.9 3.4 7.1 6l1.5 1.9c1.9 2.8 4 6.2 3.1 7.9-2.1 1.3-3.2-1.7-5.4-4.6zm40.4-4.7l-1.9-4.4c-1.6-4.2-4.7-9.7-1.9-10.9 2.5.3 4.9 6.4 6.6 10.3l1.2 2.7c1.4 4 3.1 8.2 1.4 10-2.9 1-3.8-3.6-5.4-7.7z" class="monsteraleaf"/>
</svg>