<?xml version="1.0" encoding="utf-8"?>
<!-- Generator: Adobe Illustrator 16.0.0, SVG Export Plug-In . SVG Version: 6.00 Build 0)  -->
<!DOCTYPE svg PUBLIC "-//W3C//DTD SVG 1.1//EN" "http://www.w3.org/Graphics/SVG/1.1/DTD/svg11.dtd">
<svg version="1.1" id="Layer_1" xmlns="http://www.w3.org/2000/svg" xmlns:xlink="http://www.w3.org/1999/xlink" x="0px" y="0px"
	 width="218px" height="64px" viewBox="0 0 218 64" enable-background="new 0 0 218 64" xml:space="preserve">
<g>
	<path fill="#D43783" d="M171.255,17.059c0.441-0.261,0.866-0.556,1.326-0.781c0.802-0.391,1.623-0.742,2.481-1.13
		c0.553,1.734,1.055,3.304,1.601,5.016c-1.357-0.723-2.567-1.356-3.765-2.007c-0.587-0.319-1.156-0.669-1.735-1.005
		C171.193,17.12,171.225,17.091,171.255,17.059z"/>
	<path fill="#D43783" d="M190.498,18.005c-0.856,1.231-1.713,2.463-2.568,3.695c-0.057-0.031-0.113-0.06-0.169-0.09
		c0.17-1.76,0.343-3.519,0.521-5.337c0.413,0.22,0.715,0.38,1.017,0.541C189.697,17.21,190.098,17.608,190.498,18.005z"/>
	<path fill="#D43783" d="M171.366,22.49c1.638,0.223,2.287,0.802,2.364,2.09c-0.567-0.479-1.143-0.964-1.719-1.448
		C171.797,22.918,171.582,22.704,171.366,22.49z"/>
	<path fill="#D43783" d="M170.442,21.572c-0.161-0.353-0.321-0.705-0.481-1.058c0.039-0.028,0.077-0.053,0.115-0.081
		c0.721,0.608,1.439,1.217,2.281,1.928c-0.575-0.102-0.969-0.17-1.361-0.238C170.811,21.939,170.627,21.756,170.442,21.572z"/>
	<path fill="#D43783" d="M176.132,21.263c2.887-0.937,5.8-0.986,8.679,0.015c0.632,0.22,1.236,0.642,1.729,1.103
		c0.66,0.615,0.635,1.457-0.024,2.07c-0.451,0.419-0.982,0.809-1.547,1.04c-2.931,1.203-5.911,1.225-8.892,0.184
		c-0.502-0.175-0.984-0.465-1.404-0.795c-1.043-0.82-1.065-1.698-0.176-2.722C175.039,21.854,175.551,21.451,176.132,21.263z"/>
	<path fill="#D43783" d="M183.149,20.037c-2.062,0.084-3.995,0.165-6.037,0.25c0.962-1.889,1.869-3.668,2.837-5.568
		C181.04,16.531,182.068,18.237,183.149,20.037z"/>
	<path fill="#D43783" d="M176.891,20.158c-0.57-1.776-1.086-3.391-1.655-5.166c1.55-0.206,2.987-0.397,4.595-0.611
		C178.801,16.402,177.88,18.215,176.891,20.158z"/>
	<path fill="#D43783" d="M171.354,17.667c1.703,0.907,3.405,1.813,5.206,2.772c-1.166,0.76-2.223,1.448-3.339,2.175
		c-0.677-1.669-1.318-3.25-1.958-4.83C171.293,17.745,171.324,17.706,171.354,17.667z"/>
	<path fill="#D43783" d="M183.791,20.213c1.404-1.238,2.719-2.399,4.17-3.677c-0.189,1.949-0.362,3.717-0.543,5.581
		C186.175,21.463,185.025,20.861,183.791,20.213z"/>
	<path fill="#D43783" d="M184.484,14.946c-0.375,1.584-0.722,3.048-1.109,4.687c-1.081-1.799-2.054-3.419-3.14-5.224
		C181.75,14.6,183.078,14.768,184.484,14.946z"/>
	<path fill="#D43783" d="M179.988,9.583c0.044,0.015,0.088,0.03,0.132,0.044c-0.085,1.516-0.169,3.032-0.252,4.529
		c-1.402,0.166-2.724,0.322-4.181,0.495C177.175,12.899,178.582,11.241,179.988,9.583z"/>
	<path fill="#D43783" d="M180.553,9.562c1.221,1.633,2.439,3.265,3.717,4.978c-1.441-0.165-2.748-0.313-4.109-0.467
		c0.084-1.481,0.166-2.964,0.25-4.446C180.457,9.605,180.506,9.584,180.553,9.562z"/>
	<path fill="#D43783" d="M188.031,16.023c-1.504,1.323-2.838,2.498-4.174,3.673c-0.041-0.022-0.084-0.045-0.125-0.067
		c0.357-1.522,0.715-3.044,1.102-4.696C185.881,15.289,186.878,15.63,188.031,16.023z"/>
	<path fill="#D43783" d="M183.393,12.88c-0.116-0.158-0.237-0.311-0.354-0.468c-0.485-0.653-0.967-1.309-1.45-1.963
		c0.028-0.024,0.058-0.049,0.087-0.074c1.924,1.642,3.848,3.282,5.915,5.042C184.861,14.878,184.854,14.875,183.393,12.88z"/>
	<path fill="#D43783" d="M172.774,22.12c-0.884-0.536-1.622-1.158-2.368-1.771c-0.625-0.513-0.732-0.827-0.389-1.565
		c0.178-0.381,0.461-0.715,0.824-1.266C171.539,19.177,172.156,20.648,172.774,22.12z"/>
	<path fill="#D43783" d="M187.953,21.954c0.891-1.188,1.747-2.334,2.631-3.513C191.396,20.366,190.73,21.741,187.953,21.954z"/>
	<path fill="#D43783" d="M178.352,11.06c-0.809,0.954-1.691,1.855-2.401,2.877c-0.706,1.015-1.753,1.259-2.826,1.562
		c1.718-1.513,3.435-3.024,5.151-4.536C178.301,10.995,178.326,11.027,178.352,11.06z"/>
	<path fill="#D43783" d="M187.621,22.719c0.026-0.123,0.146-0.284,0.258-0.32c0.564-0.186,1.142-0.337,1.713-0.5
		c0.021,0.033,0.037,0.067,0.056,0.102c-0.728,0.732-1.454,1.465-2.306,2.322C187.449,23.678,187.518,23.194,187.621,22.719z"/>
</g>
<line stroke="#000000" stroke-width="1.5" stroke-linecap="round" stroke-linejoin="round" stroke-miterlimit="10" x1="167.555" y1="62.25" x2="209.084" y2="62.25"/>
<line stroke="#000000" stroke-width="1.5" stroke-linecap="round" stroke-linejoin="round" stroke-miterlimit="10" x1="180.257" y1="1.666" x2="209.084" y2="1.666"/>
<line stroke="#000000" stroke-width="1.5" stroke-linecap="round" stroke-linejoin="round" stroke-miterlimit="10" x1="200.533" y1="62.25" x2="200.533" y2="2.398"/>
<line stroke="#000000" stroke-width="1.5" stroke-linecap="round" stroke-linejoin="round" stroke-miterlimit="10" x1="180.258" y1="6.062" x2="180.258" y2="1.788"/>
<line stroke="#000000" stroke-width="1.5" stroke-linecap="round" stroke-linejoin="round" stroke-miterlimit="10" x1="193.815" y1="1.91" x2="200.533" y2="9.361"/>
</svg>
