<?xml version="1.0" encoding="utf-8"?>
<!-- Generator: Adobe Illustrator 16.0.0, SVG Export Plug-In . SVG Version: 6.00 Build 0)  -->
<!DOCTYPE svg PUBLIC "-//W3C//DTD SVG 1.1//EN" "http://www.w3.org/Graphics/SVG/1.1/DTD/svg11.dtd">
<svg version="1.1" id="Layer_1" xmlns="http://www.w3.org/2000/svg" xmlns:xlink="http://www.w3.org/1999/xlink" x="0px" y="0px"
	 width="218px" height="64px" viewBox="0 0 218 64" enable-background="new 0 0 218 64" xml:space="preserve">
<g>
	<path fill="#D43783" d="M46.235,17.29c-0.577,0.335-1.145,0.684-1.73,1.002c-1.194,0.648-2.399,1.28-3.753,2.001
		c0.545-1.707,1.044-3.272,1.597-5.001c0.855,0.387,1.674,0.737,2.473,1.126c0.458,0.224,0.882,0.518,1.322,0.778
		C46.175,17.229,46.205,17.258,46.235,17.29z"/>
	<path fill="#D43783" d="M28.156,16.953c0.301-0.16,0.602-0.32,1.013-0.539c0.178,1.813,0.35,3.567,0.52,5.321
		c-0.056,0.03-0.112,0.059-0.168,0.09c-0.853-1.228-1.707-2.456-2.562-3.683C27.359,17.744,27.758,17.348,28.156,16.953z"/>
	<path fill="#D43783" d="M45.389,23.252c-0.574,0.483-1.147,0.967-1.713,1.444c0.077-1.284,0.725-1.862,2.357-2.084
		C45.818,22.825,45.604,23.039,45.389,23.252z"/>
	<path fill="#D43783" d="M46.402,22.246c-0.392,0.068-0.784,0.137-1.357,0.238c0.839-0.709,1.557-1.316,2.274-1.922
		c0.038,0.027,0.076,0.053,0.114,0.08c-0.16,0.352-0.319,0.703-0.479,1.055C46.77,21.88,46.586,22.062,46.402,22.246z"/>
	<path fill="#D43783" d="M42.913,22.28c0.887,1.021,0.865,1.896-0.176,2.713c-0.418,0.329-0.899,0.619-1.399,0.793
		c-2.971,1.038-5.942,1.016-8.864-0.183c-0.563-0.231-1.093-0.619-1.542-1.037c-0.657-0.612-0.682-1.451-0.024-2.064
		c0.491-0.459,1.094-0.88,1.723-1.099c2.87-0.998,5.775-0.948,8.652-0.015C41.862,21.576,42.372,21.978,42.913,22.28z"/>
	<path fill="#D43783" d="M37.477,14.863c0.964,1.894,1.869,3.667,2.828,5.551c-2.035-0.084-3.963-0.165-6.019-0.249
		C35.364,18.372,36.389,16.67,37.477,14.863z"/>
	<path fill="#D43783" d="M37.595,14.527c1.602,0.212,3.035,0.404,4.581,0.609c-0.568,1.769-1.083,3.379-1.65,5.15
		C39.54,18.35,38.621,16.542,37.595,14.527z"/>
	<path fill="#D43783" d="M46.135,17.92c-0.638,1.575-1.277,3.151-1.952,4.815c-1.112-0.725-2.166-1.41-3.329-2.168
		c1.795-0.956,3.493-1.859,5.19-2.764C46.076,17.842,46.105,17.881,46.135,17.92z"/>
	<path fill="#D43783" d="M30.031,22.24c-0.18-1.858-0.352-3.621-0.542-5.564c1.447,1.274,2.758,2.432,4.158,3.666
		C32.416,20.987,31.27,21.588,30.031,22.24z"/>
	<path fill="#D43783" d="M37.191,14.555c-1.083,1.8-2.052,3.415-3.13,5.208c-0.387-1.634-0.732-3.093-1.105-4.672
		C34.356,14.913,35.681,14.746,37.191,14.555z"/>
	<path fill="#D43783" d="M41.725,14.798c-1.453-0.172-2.77-0.328-4.168-0.494c-0.083-1.493-0.167-3.004-0.251-4.516
		c0.044-0.014,0.088-0.029,0.132-0.044C38.84,11.397,40.242,13.05,41.725,14.798z"/>
	<path fill="#D43783" d="M37.017,9.788c0.083,1.478,0.166,2.956,0.249,4.433c-1.357,0.153-2.66,0.302-4.097,0.465
		c1.274-1.708,2.489-3.334,3.706-4.962C36.921,9.745,36.97,9.766,37.017,9.788z"/>
	<path fill="#D43783" d="M32.606,15.078c0.386,1.646,0.742,3.164,1.099,4.681c-0.041,0.022-0.084,0.045-0.125,0.067
		c-1.331-1.172-2.662-2.344-4.16-3.663C30.569,15.773,31.562,15.433,32.606,15.078z"/>
	<path fill="#D43783" d="M29.858,15.561c2.061-1.755,3.979-3.391,5.896-5.027c0.03,0.024,0.059,0.049,0.087,0.074
		c-0.481,0.652-0.962,1.306-1.445,1.957c-0.116,0.157-0.237,0.309-0.353,0.466C32.586,15.02,32.579,15.023,29.858,15.561z"/>
	<path fill="#D43783" d="M46.555,17.655c0.363,0.548,0.645,0.882,0.823,1.262c0.341,0.736,0.234,1.048-0.389,1.561
		c-0.743,0.611-1.479,1.231-2.361,1.765C45.245,20.775,45.861,19.309,46.555,17.655z"/>
	<path fill="#D43783" d="M26.875,18.575c0.88,1.175,1.735,2.317,2.623,3.502C26.728,21.865,26.064,20.494,26.875,18.575z"/>
	<path fill="#D43783" d="M39.145,11.12c1.712,1.507,3.423,3.014,5.136,4.521c-1.069-0.302-2.114-0.545-2.817-1.557
		c-0.708-1.02-1.589-1.917-2.394-2.869C39.094,11.184,39.12,11.151,39.145,11.12z"/>
	<path fill="#D43783" d="M30.106,24.438c-0.849-0.854-1.574-1.584-2.299-2.314c0.019-0.034,0.035-0.068,0.055-0.101
		c0.57,0.162,1.146,0.313,1.708,0.498c0.112,0.037,0.231,0.196,0.257,0.319C29.932,23.314,29.999,23.796,30.106,24.438z"/>
</g>
<line stroke="#000000" stroke-linecap="round" stroke-linejoin="round" stroke-miterlimit="10" x1="49.833" y1="62.25" x2="8.431" y2="62.25"/>
<line stroke="#000000" stroke-linecap="round" stroke-linejoin="round" stroke-miterlimit="10" x1="37.169" y1="1.852" x2="8.431" y2="1.852"/>
<line stroke="#000000" stroke-linecap="round" stroke-linejoin="round" stroke-miterlimit="10" x1="16.955" y1="62.25" x2="16.955" y2="2.582"/>
<line stroke="#000000" stroke-linecap="round" stroke-linejoin="round" stroke-miterlimit="10" x1="37.169" y1="6.234" x2="37.169" y2="1.972"/>
<line stroke="#000000" stroke-linecap="round" stroke-linejoin="round" stroke-miterlimit="10" x1="23.652" y1="2.094" x2="16.955" y2="9.523"/>
</svg>
