<?xml version="1.0" encoding="utf-8"?>
<!-- Generator: Adobe Illustrator 16.0.0, SVG Export Plug-In . SVG Version: 6.00 Build 0)  -->
<!DOCTYPE svg PUBLIC "-//W3C//DTD SVG 1.1//EN" "http://www.w3.org/Graphics/SVG/1.1/DTD/svg11.dtd">
<svg version="1.1" id="Layer_1" xmlns="http://www.w3.org/2000/svg" xmlns:xlink="http://www.w3.org/1999/xlink" x="0px" y="0px"
	 width="218px" height="73.5px" viewBox="0 0 218 73.5" enable-background="new 0 0 218 73.5" xml:space="preserve">
<g>
	<path fill="#D43783" d="M76,43.668c0,8.184,0,16.365,0,24.549c-0.766,2.505-2.304,4.03-5.07,4.028
		c-7.521-0.006-15.042,0.008-22.562-0.008c-3.063-0.005-4.997-1.976-4.999-5.057c-0.006-7.488-0.008-14.977,0-22.464
		c0.003-3.047,1.878-5.044,4.898-5.06c7.586-0.04,15.173-0.032,22.758-0.002c2.55,0.011,4.089,1.285,4.817,3.785
		C75.867,43.521,75.947,43.591,76,43.668z M57.827,56.793c1.388,0,2.72,0.007,4.052-0.004c0.599-0.004,1.165-0.142,1.158-0.886
		c-0.006-0.741-0.548-0.857-1.167-0.851c-1.331,0.016-2.662,0.004-4.013,0.004c0-1.348,0-2.594,0-3.893
		c1.426,0,2.764-0.006,4.102,0.002c0.624,0.004,1.27-0.021,1.253-0.851c-0.017-0.809-0.676-0.855-1.286-0.851
		c-1.731,0.012-3.462,0.054-5.192,0.054c-0.573,0.001-0.86,0.22-0.86,0.797c0,3.76-0.015,7.518,0.027,11.278
		c0.004,0.272,0.407,0.771,0.636,0.779c2.023,0.058,4.05,0.051,6.076-0.005c0.265-0.007,0.613-0.357,0.748-0.633
		c0.089-0.182-0.06-0.612-0.242-0.76c-0.223-0.179-0.589-0.239-0.897-0.245c-1.458-0.022-2.916-0.01-4.396-0.01
		C57.827,59.349,57.827,58.124,57.827,56.793z"/>
	<path fill="#D43783" d="M6.871,32.474c0-8.445,0-16.89,0-25.334c0.656-1.7,1.834-2.878,3.535-3.536c8.444,0,16.89,0,25.334,0
		c2.776,0.964,3.763,2.964,3.727,5.83c-0.091,7.198-0.028,14.397-0.03,21.596c-0.002,3.178-1.963,5.141-5.142,5.142
		c-7.198,0.002-14.398-0.06-21.596,0.031C9.834,36.237,7.835,35.249,6.871,32.474z M24.01,26.664
		c1.263-0.296,2.533-0.562,3.782-0.904c0.575-0.158,1.01-0.556,0.744-1.244c-0.262-0.683-0.806-0.617-1.394-0.454
		c-0.907,0.252-1.817,0.553-2.746,0.66c-2.792,0.321-5.08-1.517-5.456-4.291c-0.342-2.529,1.439-4.951,4.146-5.236
		c1.306-0.137,2.679,0.272,4.009,0.514c0.583,0.106,1.072,0.138,1.307-0.472c0.234-0.611-0.113-1.008-0.664-1.217
		c-1.933-0.73-3.905-1.079-5.946-0.487c-3.328,0.965-5.247,3.99-4.741,7.464C17.535,24.323,20.265,26.49,24.01,26.664z"/>
	<path fill="#D43783" d="M6.871,68.608c0-8.443,0-16.889,0-25.334c1.035-2.793,3.106-3.75,5.987-3.663
		c3.89,0.119,7.788,0.03,11.683,0.03c3.272,0,6.545-0.021,9.819,0.006c3.144,0.027,5.077,1.991,5.078,5.107
		c0.003,7.495,0.005,14.99-0.001,22.485c-0.002,2.946-1.961,4.984-4.884,4.994c-7.592,0.023-15.185,0.019-22.779,0.002
		c-2.339-0.004-3.841-1.096-4.709-3.302C7.019,68.818,6.936,68.717,6.871,68.608z M21.366,62.42c0-0.021,0-0.043,0-0.065
		c0.816,0,1.632,0.031,2.447-0.005c3.162-0.142,5.735-2.748,5.997-6.049c0.243-3.082-1.898-6.059-4.995-6.526
		c-2.048-0.31-4.162-0.204-6.249-0.206c-0.221,0-0.633,0.529-0.636,0.818c-0.043,3.69-0.02,7.383-0.037,11.073
		c-0.003,0.669,0.273,0.966,0.925,0.962C19.667,62.416,20.517,62.42,21.366,62.42z"/>
	<path fill="#D43783" d="M46.934,3.604c8.445,0,16.89,0,25.335,0c1.952,0.635,3.136,2.003,3.73,3.927c0,8.183,0,16.366,0,24.55
		c-1.266,3.331-2.381,4.091-6.007,4.091c-7.199,0-14.398,0.002-21.597-0.001c-3.05-0.001-5.024-1.975-5.027-5.043
		c-0.008-7.527-0.018-15.052,0.02-22.579c0.003-0.793,0.191-1.633,0.496-2.367C44.444,4.837,45.669,4.173,46.934,3.604z
		 M66.603,19.837c-0.025-3.827-2.998-6.623-7.028-6.611c-3.978,0.013-6.948,2.911-6.908,6.741c0.04,3.837,2.985,6.548,7.075,6.516
		C63.73,26.452,66.627,23.646,66.603,19.837z"/>
	<path fill="#D43783" d="M76,7.531c-0.595-1.924-1.778-3.292-3.73-3.927c1.243,0,2.487,0,3.73,0C76,4.913,76,6.222,76,7.531z"/>
	<path fill="#D43783" d="M10.406,3.604c-1.7,0.658-2.879,1.836-3.536,3.536c0-1.179,0-2.357,0-3.536
		C8.048,3.604,9.227,3.604,10.406,3.604z"/>
	<path fill="#FFFFFF" d="M57.827,56.793c0,1.331,0,2.555,0,3.927c1.481,0,2.939-0.014,4.397,0.011
		c0.307,0.004,0.673,0.065,0.897,0.245c0.182,0.146,0.331,0.578,0.241,0.758c-0.135,0.277-0.482,0.627-0.748,0.634
		c-2.025,0.057-4.052,0.061-6.076,0.004c-0.228-0.008-0.631-0.505-0.635-0.778c-0.042-3.76-0.028-7.519-0.028-11.277
		c0-0.579,0.288-0.797,0.86-0.797c1.73-0.002,3.461-0.042,5.192-0.055c0.61-0.005,1.27,0.043,1.286,0.852
		c0.018,0.828-0.629,0.853-1.252,0.849c-1.339-0.008-2.677-0.002-4.102-0.002c0,1.3,0,2.546,0,3.895c1.35,0,2.681,0.01,4.012-0.004
		c0.62-0.008,1.161,0.108,1.167,0.851c0.007,0.743-0.56,0.88-1.158,0.886C60.547,56.8,59.216,56.793,57.827,56.793z"/>
	<path fill="#FFFFFF" d="M24.01,26.664c-3.745-0.174-6.475-2.341-6.959-5.668c-0.505-3.475,1.413-6.499,4.741-7.464
		c2.041-0.592,4.013-0.242,5.946,0.487c0.551,0.208,0.899,0.606,0.664,1.217c-0.235,0.61-0.726,0.578-1.307,0.472
		c-1.33-0.241-2.704-0.649-4.009-0.514c-2.706,0.284-4.488,2.708-4.146,5.236c0.377,2.775,2.666,4.612,5.456,4.291
		c0.929-0.106,1.838-0.408,2.746-0.66c0.587-0.163,1.132-0.229,1.394,0.454c0.265,0.688-0.17,1.086-0.744,1.244
		C26.542,26.103,25.272,26.368,24.01,26.664z"/>
	<path fill="#FFFFFF" d="M21.366,62.42c-0.85,0-1.699-0.004-2.548,0.002c-0.651,0.004-0.928-0.293-0.925-0.962
		c0.017-3.689-0.007-7.382,0.037-11.073c0.003-0.289,0.415-0.818,0.636-0.818c2.086,0.002,4.201-0.104,6.249,0.206
		c3.097,0.468,5.238,3.444,4.995,6.526c-0.262,3.301-2.835,5.907-5.997,6.049c-0.814,0.036-1.63,0.005-2.447,0.005
		C21.366,62.377,21.366,62.398,21.366,62.42z M19.844,60.72c1.016,0,1.925,0.017,2.835-0.008c0.456-0.011,0.912-0.072,1.362-0.152
		c2.203-0.393,3.682-2.139,3.807-4.475c0.115-2.181-1.258-4.221-3.411-4.662c-1.474-0.303-3.023-0.239-4.594-0.342
		C19.844,54.388,19.844,57.483,19.844,60.72z"/>
	<path fill="#FFFFFF" d="M66.603,19.837c0.024,3.809-2.872,6.615-6.861,6.646c-4.09,0.033-7.035-2.678-7.075-6.516
		c-0.04-3.83,2.931-6.729,6.908-6.741C63.604,13.215,66.577,16.01,66.603,19.837z M64.642,19.854
		c-0.005-2.722-2.188-4.833-4.986-4.826c-2.866,0.009-5.036,2.13-5.024,4.91c0.013,2.709,2.201,4.827,5.004,4.841
		C62.451,24.793,64.646,22.634,64.642,19.854z"/>
	<path fill="#D43783" d="M19.844,60.72c0-3.236,0-6.332,0-9.639c1.57,0.103,3.119,0.039,4.594,0.342
		c2.152,0.441,3.525,2.481,3.411,4.662c-0.125,2.336-1.604,4.082-3.807,4.475c-0.45,0.08-0.906,0.142-1.362,0.152
		C21.771,60.736,20.86,60.72,19.844,60.72z"/>
	<path fill="#D43783" d="M64.642,19.854c0.004,2.781-2.191,4.94-5.007,4.925c-2.802-0.014-4.991-2.132-5.004-4.841
		c-0.012-2.78,2.158-4.901,5.024-4.91C62.454,15.02,64.637,17.132,64.642,19.854z"/>
</g>
</svg>
