<?xml version="1.0" encoding="utf-8"?>
<!-- Generator: Adobe Illustrator 16.0.0, SVG Export Plug-In . SVG Version: 6.00 Build 0)  -->
<!DOCTYPE svg PUBLIC "-//W3C//DTD SVG 1.1//EN" "http://www.w3.org/Graphics/SVG/1.1/DTD/svg11.dtd">
<svg version="1.1" id="Layer_1" xmlns="http://www.w3.org/2000/svg" xmlns:xlink="http://www.w3.org/1999/xlink" x="0px" y="0px"
	 width="218px" height="73.5px" viewBox="0 0 218 73.5" enable-background="new 0 0 218 73.5" xml:space="preserve">
<g>
	<path fill-rule="evenodd" clip-rule="evenodd" fill="#D43783" d="M53.288,11.314c1.171,0,2.305-0.001,3.439,0
		c0.858,0.001,0.86,0.002,0.86,0.863c0.001,5.186,0.001,10.371-0.001,15.556c0,0.826-0.006,0.829-0.833,0.83
		c-0.995,0-1.991,0.003-2.986-0.004c-0.271-0.002-0.491-0.001-0.49,0.375c0.008,2.65,0.004,5.299,0.004,8.031
		c1.178,0,2.312-0.001,3.444,0c0.857,0.001,0.859,0.003,0.862,0.873c0.002,0.892,0.03,1.785-0.011,2.675
		c-0.024,0.536,0.125,0.74,0.689,0.716c0.973-0.042,1.95,0.007,2.924-0.019c0.511-0.013,0.697,0.182,0.696,0.691
		c-0.012,3.899-0.013,7.799,0.001,11.698c0.002,0.506-0.215,0.645-0.675,0.636c-1.017-0.019-2.034,0.026-3.049-0.02
		c-0.497-0.021-0.597,0.153-0.584,0.6c0.027,0.974-0.018,1.95,0.017,2.924c0.021,0.586-0.168,0.824-0.778,0.801
		c-0.994-0.038-1.991,0.006-2.986-0.016c-0.42-0.01-0.58,0.091-0.559,0.558c0.045,0.974,0.017,1.949,0.014,2.925
		c-0.002,0.798-0.019,0.814-0.792,0.816c-0.954,0.003-1.908,0.022-2.861-0.007c-0.478-0.015-0.667,0.122-0.648,0.629
		c0.036,0.932,0.012,1.866,0.01,2.8c-0.001,0.838-0.002,0.84-0.815,0.841c-2.323,0.001-4.646,0.02-6.969-0.013
		c-0.59-0.009-0.749,0.184-0.724,0.746c0.042,0.931-0.012,1.866,0.02,2.799c0.018,0.531-0.149,0.734-0.707,0.729
		c-2.468-0.023-4.937-0.02-7.404-0.002c-0.482,0.003-0.658-0.142-0.645-0.64c0.031-1.177,0.01-2.354,0.01-3.619
		c-0.31,0-0.552,0.001-0.793,0c-2.344,0-4.688-0.015-7.031,0.011c-0.594,0.007-0.814-0.177-0.788-0.783
		c0.042-0.931-0.019-1.867,0.02-2.799c0.023-0.562-0.189-0.719-0.722-0.7c-0.974,0.034-1.95-0.006-2.924,0.016
		c-0.487,0.011-0.665-0.187-0.655-0.664c0.02-0.995-0.02-1.992,0.015-2.986c0.018-0.526-0.173-0.678-0.682-0.659
		c-0.953,0.036-1.909-0.011-2.862,0.018c-0.529,0.017-0.746-0.153-0.73-0.71c0.032-1.178,0.01-2.357,0.01-3.599
		c-1.177,0-2.309-0.029-3.439,0.013c-0.611,0.022-0.828-0.144-0.822-0.794c0.029-3.796,0.014-7.592,0.015-11.388
		c0-0.841,0.003-0.842,0.816-0.844c0.954-0.001,1.908-0.017,2.862,0.007c0.432,0.011,0.585-0.134,0.575-0.571
		c-0.024-1.016,0.011-2.033-0.015-3.049c-0.012-0.49,0.17-0.659,0.654-0.647c1.037,0.025,2.074,0.001,3.111,0.011
		c0.325,0.003,0.503-0.083,0.501-0.451c-0.011-2.592-0.011-5.185-0.018-7.777c0-0.037-0.033-0.073-0.083-0.178
		c-1.123,0-2.278-0.027-3.432,0.012c-0.581,0.02-0.738-0.182-0.736-0.75c0.019-5.269,0.018-10.537,0.001-15.805
		c-0.002-0.538,0.146-0.739,0.703-0.717c0.974,0.039,1.95-0.011,2.924,0.02c0.478,0.016,0.669-0.108,0.648-0.622
		c-0.038-0.953,0.006-1.908-0.016-2.862c-0.011-0.484,0.176-0.669,0.659-0.658c0.933,0.021,1.866,0.006,2.8,0.006
		c0.833,0,0.833,0,0.833-0.864c0-0.933,0.018-1.867-0.009-2.8c-0.013-0.458,0.151-0.637,0.61-0.63
		c1.078,0.018,2.158,0.025,3.235-0.001c0.508-0.012,0.642,0.207,0.632,0.671c-0.02,1.016,0.03,2.034-0.014,3.048
		c-0.022,0.498,0.157,0.595,0.6,0.583c0.953-0.026,1.908-0.009,2.862-0.007c0.841,0.002,0.861,0.021,0.861,0.884
		c0.001,9.313-0.001,18.626,0.004,27.938c0,0.986-0.2,0.955,0.975,0.955c2.157,0,4.314,0,6.471,0c0.89,0,0.89,0,0.89-0.925
		c0-9.271,0-18.543,0-27.814c0-1.036,0.001-1.036,1.069-1.038c0.851-0.001,1.701-0.022,2.551,0.008
		c0.484,0.018,0.665-0.144,0.65-0.637c-0.027-0.974,0.016-1.95-0.016-2.924c-0.017-0.526,0.145-0.759,0.702-0.743
		c1.035,0.029,2.073,0.031,3.109,0c0.538-0.016,0.676,0.211,0.663,0.705c-0.027,0.995,0.009,1.992-0.016,2.986
		c-0.012,0.449,0.116,0.63,0.596,0.615c1.016-0.032,2.033,0.007,3.049-0.016c0.48-0.011,0.671,0.161,0.662,0.649
		C53.273,8.963,53.288,10.099,53.288,11.314z M53.125,37.227c-0.134-0.02-0.252-0.053-0.369-0.053
		c-3.919-0.003-7.838,0.002-11.757-0.009c-0.388-0.001-0.51,0.138-0.505,0.506c0.014,1.058-0.005,2.115,0.008,3.173
		c0.005,0.415-0.146,0.604-0.58,0.603c-2.529-0.01-5.059-0.011-7.589,0.001c-0.428,0.002-0.588-0.153-0.58-0.585
		c0.02-1.078-0.01-2.156,0.011-3.234c0.007-0.362-0.115-0.462-0.463-0.461c-3.898,0.009-7.796,0.01-11.694-0.003
		c-0.393,0-0.504,0.143-0.499,0.509c0.015,0.974,0.006,1.948,0.004,2.923c-0.001,0.843-0.003,0.845-0.818,0.846
		c-0.892,0.002-1.785,0.034-2.674-0.011c-0.594-0.03-0.779,0.153-0.775,0.762c0.026,3.753,0.013,7.506,0.015,11.259
		c0,0.2,0.019,0.4,0.03,0.616c1.11,0,2.163-0.001,3.216,0c1.006,0.001,1.006,0.002,1.007,0.976c0.001,0.934,0.019,1.867-0.007,2.8
		c-0.011,0.415,0.141,0.54,0.539,0.532c1.037-0.019,2.074,0.014,3.11-0.011c0.467-0.011,0.619,0.168,0.609,0.62
		c-0.021,0.994,0.021,1.991-0.017,2.985c-0.02,0.521,0.151,0.672,0.667,0.667c2.364-0.024,4.728-0.012,7.092-0.01
		c0.801,0.001,0.826,0.026,0.829,0.848c0.003,0.913,0.026,1.826-0.009,2.737c-0.019,0.505,0.132,0.692,0.659,0.688
		c2.384-0.021,4.769-0.017,7.154,0.002c0.416,0.003,0.547-0.143,0.54-0.538c-0.016-0.975-0.006-1.949-0.004-2.924
		c0.001-0.787,0.022-0.812,0.794-0.813c2.363-0.002,4.728-0.012,7.091,0.009c0.506,0.004,0.702-0.144,0.683-0.67
		c-0.034-0.932-0.01-1.866-0.009-2.799c0.002-0.77,0.023-0.791,0.815-0.794c0.995-0.002,1.99-0.011,2.985,0.003
		c0.373,0.005,0.51-0.123,0.501-0.509c-0.024-1.036,0.009-2.073-0.021-3.109c-0.015-0.52,0.191-0.703,0.692-0.693
		c1.036,0.02,2.074-0.01,3.11,0.017c0.382,0.011,0.516-0.108,0.515-0.488c-0.009-3.877-0.012-7.755-0.001-11.632
		c0.001-0.421-0.163-0.531-0.554-0.524c-1.036,0.019-2.073-0.01-3.109,0.012c-0.485,0.01-0.66-0.175-0.651-0.659
		C53.141,39.612,53.125,38.436,53.125,37.227z M44.785,32.7c1.204,0,2.359-0.016,3.515,0.009c0.412,0.009,0.548-0.125,0.54-0.532
		c-0.021-0.995-0.008-1.991-0.006-2.986c0.002-0.755,0.045-0.799,0.822-0.803c0.975-0.004,1.949-0.018,2.924,0.006
		c0.428,0.01,0.561-0.114,0.56-0.566c-0.017-5.205-0.015-10.41,0.001-15.614c0.001-0.434-0.113-0.591-0.558-0.58
		c-1.016,0.025-2.033-0.013-3.048,0.015c-0.551,0.016-0.727-0.205-0.711-0.737c0.029-0.994-0.01-1.991,0.017-2.985
		c0.012-0.443-0.158-0.581-0.581-0.572c-0.933,0.02-1.868,0.043-2.799-0.006c-0.591-0.032-0.722,0.178-0.721,0.737
		c0.017,7.984,0.011,15.968,0.013,23.951C44.753,32.238,44.771,32.438,44.785,32.7z M19.17,11.642c0,5.624,0,11.168,0,16.745
		c1.216,0,2.376,0.014,3.535-0.007c0.476-0.008,0.682,0.148,0.66,0.645c-0.029,0.663-0.007,1.327-0.006,1.991c0,0.55,0,1.1,0,1.686
		c1.179,0,2.257-0.033,3.33,0.013c0.59,0.025,0.773-0.134,0.769-0.747c-0.029-3.878-0.015-7.757-0.015-11.635
		c0-4.106-0.006-8.213,0.009-12.32c0.001-0.47-0.107-0.677-0.62-0.661c-0.995,0.033-1.991,0.023-2.986,0.004
		c-0.387-0.007-0.501,0.139-0.494,0.512c0.019,1.037-0.015,2.075,0.015,3.111c0.016,0.526-0.188,0.683-0.691,0.671
		C21.519,11.624,20.36,11.642,19.17,11.642z"/>
	<path fill-rule="evenodd" clip-rule="evenodd" fill="#D43783" d="M37.711,62.926c-0.517-0.07-0.731-0.222-0.693-0.636
		c0.035-0.372-0.172-0.464-0.494-0.45c-0.27,0.011-0.554-0.051-0.804,0.021c-0.179,0.051-0.431,0.258-0.442,0.411
		c-0.036,0.497-0.316,0.557-0.715,0.558c-0.414,0.002-0.533-0.201-0.535-0.581c-0.001-0.396,0.097-0.622,0.553-0.638
		c0.15-0.005,0.384-0.204,0.423-0.355c0.088-0.335-0.162-0.417-0.45-0.397c-0.479,0.031-0.525-0.27-0.526-0.645
		c0-0.376,0.114-0.59,0.533-0.579c0.353,0.01,0.708,0.009,0.688,0.49c-0.019,0.435,0.198,0.537,0.573,0.511
		c0.227-0.016,0.457-0.017,0.684,0c0.364,0.027,0.55-0.102,0.517-0.492c-0.037-0.435,0.237-0.508,0.596-0.507
		c0.351,0.001,0.555,0.126,0.552,0.503c-0.001,0.337,0.038,0.668-0.454,0.732c-0.185,0.023-0.455,0.192-0.497,0.347
		c-0.104,0.383,0.206,0.412,0.498,0.419c0.501,0.012,0.506,0.396,0.432,0.713C38.097,62.564,37.862,62.735,37.711,62.926z"/>
	<path fill-rule="evenodd" clip-rule="evenodd" fill="#D43783" d="M47.22,54.414c-1.185,0-1.186,0-1.185-1.163
		c0.001-0.228-0.055-0.479,0.024-0.676c0.073-0.182,0.277-0.411,0.448-0.434c0.469-0.06,0.955-0.064,1.421,0.002
		c0.185,0.026,0.39,0.273,0.483,0.469c0.081,0.168,0.02,0.405,0.02,0.612C48.426,54.526,48.556,54.41,47.22,54.414z"/>
	<path fill-rule="evenodd" clip-rule="evenodd" fill="#D43783" d="M24.505,54.414c-1.264-0.006-1.166,0.124-1.167-1.175
		c-0.002-1.25-0.07-1.117,1.159-1.12c1.204-0.003,1.204-0.001,1.204,1.148C25.701,54.553,25.787,54.405,24.505,54.414z"/>
</g>
</svg>
