<?xml version="1.0" encoding="utf-8"?>
<!-- Generator: Adobe Illustrator 16.0.0, SVG Export Plug-In . SVG Version: 6.00 Build 0)  -->
<!DOCTYPE svg PUBLIC "-//W3C//DTD SVG 1.1//EN" "http://www.w3.org/Graphics/SVG/1.1/DTD/svg11.dtd">
<svg version="1.1" id="Layer_1" xmlns="http://www.w3.org/2000/svg" xmlns:xlink="http://www.w3.org/1999/xlink" x="0px" y="0px"
	 width="404px" height="254.667px" viewBox="0 0 404 254.667" enable-background="new 0 0 404 254.667" xml:space="preserve">
<g id="Category_Titles">
</g>
<g id="Arrows__x26__Lines">
</g>
<g id="Timelines__x26__Graphs">
</g>
<g id="Confirmations" display="none">
	<g display="inline">
		<g>
			<path fill="#B8C6D0" d="M371.908,11.988H37.191c-1.496,0-2.713,1.217-2.713,2.713V222.13c0,1.496,1.217,2.713,2.713,2.713
				h334.717c1.496,0,2.713-1.217,2.713-2.713V14.701C374.621,13.205,373.403,11.988,371.908,11.988z M37.191,12.695h334.717
				c1.104,0,2.005,0.899,2.005,2.005v11.922H220.148c-0.289-0.766-2.435-6.439-2.975-7.518c-0.055-0.11-0.104-0.219-0.152-0.325
				c-0.556-1.203-1.119-1.933-4.293-1.933h-63.283c-1.958,0-2.368,2.048-2.612,3.272c-0.045,0.224-0.087,0.436-0.132,0.608
				c-0.128,0.498-0.337,1.425-0.622,2.758c-0.671-1.476-1.176-3.038-1.176-3.038c-0.01-0.038-0.956-3.587-4.37-3.587h-64.2
				c-0.609,0-1.154-0.004-1.647-0.007c-3.164-0.024-4.229-0.031-5.965,1.126c-1.595,1.063-1.829,1.79-2.452,3.731
				c-0.177,0.552-0.378,1.177-0.652,1.955c-1.151,3.261-3.47,2.96-3.566,2.946l-0.027-0.004h-26.84V14.701
				C35.186,13.595,36.085,12.695,37.191,12.695z M150.078,26.619c-0.876-0.026-2.256-0.503-2.656-0.898
				c-0.256-0.252-0.541-0.668-0.848-1.234c0.016-0.03,0.03-0.062,0.037-0.096c0.361-1.711,0.629-2.917,0.776-3.485
				c0.049-0.192,0.094-0.413,0.141-0.647c0.295-1.479,0.644-2.703,1.918-2.703h63.283c2.948,0,3.229,0.605,3.649,1.521
				c0.052,0.113,0.104,0.228,0.164,0.345c0.461,0.922,2.288,5.712,2.86,7.224C219.402,26.645,150.103,26.613,150.078,26.619z
				 M146.925,26.224c1.232,1.232,3.043,1.131,6.438,1.131c0.69,0,1.202-0.018,1.368-0.024h219.182v14.32H35.186V27.315h26.793
				c0.343,0.036,3.036,0.191,4.308-3.414c0.277-0.787,0.489-1.445,0.658-1.974c0.615-1.917,0.781-2.432,2.17-3.358
				c1.555-1.037,2.486-1.03,5.568-1.008c0.494,0.003,1.041,0.007,1.652,0.007h64.2c2.859,0,3.651,2.929,3.689,3.074
				c0.03,0.094,0.748,2.32,1.644,4.025C146.24,25.375,146.597,25.896,146.925,26.224z M371.908,224.134H37.191
				c-1.106,0-2.005-0.899-2.005-2.006V42.359h338.727V222.13C373.913,223.235,373.013,224.134,371.908,224.134z"/>
			<circle fill="#B8C6D0" cx="139.299" cy="22.054" r="1.943"/>
			<circle fill="#B8C6D0" cx="56.393" cy="18.653" r="1.943"/>
			<circle fill="#B8C6D0" cx="48.625" cy="18.653" r="1.943"/>
			<circle fill="#B8C6D0" cx="40.858" cy="18.653" r="1.943"/>
			<circle fill="#B8C6D0" cx="212.55" cy="22.054" r="1.943"/>
			<path fill="#B8C6D0" d="M69.175,31.483v6.636c0,0.585,0.477,1.062,1.062,1.062h287.175c0.585,0,1.062-0.476,1.062-1.062v-6.636
				c0-0.585-0.476-1.062-1.062-1.062H70.237C69.652,30.421,69.175,30.897,69.175,31.483z M357.766,31.483v6.636
				c0,0.195-0.157,0.354-0.354,0.354H70.237c-0.195,0-0.354-0.159-0.354-0.354v-6.636c0-0.195,0.159-0.354,0.354-0.354h287.175
				C357.607,31.129,357.766,31.288,357.766,31.483z"/>
			<path fill="#B8C6D0" d="M364.104,33.318h4.238c0.291,0,0.53-0.238,0.53-0.53s-0.239-0.53-0.53-0.53h-4.238
				c-0.29,0-0.528,0.238-0.528,0.53S363.812,33.318,364.104,33.318z"/>
			<path fill="#B8C6D0" d="M364.104,35.331h4.238c0.291,0,0.53-0.238,0.53-0.53c0-0.291-0.239-0.53-0.53-0.53h-4.238
				c-0.29,0-0.528,0.239-0.528,0.53S363.812,35.331,364.104,35.331z"/>
			<path fill="#B8C6D0" d="M364.104,37.343h4.238c0.291,0,0.53-0.238,0.53-0.529c0-0.292-0.239-0.53-0.53-0.53h-4.238
				c-0.29,0-0.528,0.238-0.528,0.53C363.575,37.105,363.812,37.343,364.104,37.343z"/>
			<path fill="#B8C6D0" d="M42.982,34.022h-0.945v-0.619c0-0.27-0.292-0.439-0.526-0.304L40.3,33.798l-1.21,0.699
				c-0.234,0.135-0.234,0.473,0,0.607l1.21,0.699l1.211,0.699c0.233,0.135,0.526-0.034,0.526-0.304V35.58h0.945
				c0.225,0,0.408-0.183,0.408-0.408V34.43C43.39,34.205,43.207,34.022,42.982,34.022z"/>
			<path fill="#B8C6D0" d="M52.63,34.497l-1.21-0.699l-1.21-0.699c-0.234-0.135-0.526,0.034-0.526,0.304v0.619H48.74
				c-0.226,0-0.408,0.183-0.408,0.408v0.743c0,0.225,0.183,0.408,0.408,0.408h0.945V36.2c0,0.27,0.292,0.438,0.526,0.304l1.21-0.699
				l1.21-0.699C52.865,34.97,52.865,34.632,52.63,34.497z"/>
			<path fill="#B8C6D0" d="M64.819,32.926l-0.523,0.3c-0.86-0.826-2.23-0.816-3.076,0.03c-0.857,0.857-0.857,2.252,0,3.11
				c0.843,0.843,2.284,0.826,3.146-0.036c0.184-0.184,0.184-0.482,0-0.667c-0.184-0.185-0.482-0.184-0.667,0
				c-0.501,0.501-1.332,0.518-1.813,0.036c-0.49-0.49-0.49-1.287,0-1.777c0.413-0.414,1.043-0.474,1.525-0.19l-0.344,0.197
				c-0.169,0.097-0.17,0.341-0.001,0.439l0.874,0.509l0.874,0.509c0.168,0.099,0.38-0.023,0.381-0.218l0.002-1.011l0.003-1.011
				C65.199,32.952,64.988,32.829,64.819,32.926z"/>
			<path fill="#B8C6D0" d="M351.753,35.333c0.052,0.051,0.077,0.125,0.064,0.197l-0.201,1.175c-0.031,0.182,0.159,0.32,0.321,0.234
				l1.057-0.555c0.062-0.034,0.142-0.034,0.207,0l1.055,0.555c0.163,0.086,0.354-0.052,0.323-0.234l-0.202-1.175
				c-0.012-0.072,0.012-0.146,0.064-0.197l0.854-0.832c0.132-0.129,0.059-0.353-0.124-0.379l-1.18-0.171
				c-0.072-0.011-0.135-0.056-0.167-0.122l-0.527-1.069c-0.082-0.165-0.315-0.165-0.397,0l-0.528,1.069
				c-0.032,0.065-0.095,0.111-0.167,0.122l-1.18,0.171c-0.185,0.026-0.257,0.25-0.124,0.379L351.753,35.333z"/>
		</g>
	</g>
</g>
<g id="Paragraphs__x26__Lists">
</g>
<g id="Testimonials__x26__Callouts">
</g>
<g id="Image_Galleries">
</g>
<g id="Pricing_Tables">
</g>
<g id="Ecommerce">
</g>
<g id="Login__x26__Forms">
	<g>
		<path fill="#FFFFFF" d="M357.288,39.067V24.533c0-2.201-1.792-3.991-3.992-3.991H56.248c-2.202,0-3.992,1.79-3.992,3.991v201.446
			c0,2.201,1.79,3.991,3.992,3.991h297.048c2.201,0,3.992-1.79,3.992-3.991V41.127V39.067L357.288,39.067z"/>
		<g>
			<path fill="#B8C6D0" d="M357.288,39.067L357.288,39.067V24.533c0-2.201-1.792-3.991-3.992-3.991H56.248
				c-2.202,0-3.992,1.79-3.992,3.991v201.446c0,2.201,1.79,3.991,3.992,3.991h297.048c2.201,0,3.992-1.79,3.992-3.991V41.127V39.067
				L357.288,39.067z M56.248,23.481h297.048c0.579,0,1.051,0.473,1.051,1.052v14.534L55.197,39.06V24.533
				C55.197,23.954,55.667,23.481,56.248,23.481z M353.296,227.028H56.248c-0.57,0-1.051-0.479-1.051-1.049V42.002l299.15,0.007
				v183.97C354.347,226.548,353.866,227.028,353.296,227.028z"/>
			<circle fill="#B8C6D0" cx="63.234" cy="31.867" r="2.206"/>
			<circle fill="#B8C6D0" cx="72.059" cy="31.867" r="2.206"/>
			<circle fill="#B8C6D0" cx="80.883" cy="31.867" r="2.206"/>
		</g>
	</g>
	<g>
		<path fill="#B8C6D0" d="M278.252,83.832v10.846H131.29V83.832H278.252 M278.785,81.812H130.758c-0.822,0-1.487,0.667-1.487,1.487
			V95.21c0,0.822,0.665,1.489,1.487,1.489h148.027c0.822,0,1.488-0.667,1.488-1.489V83.299
			C280.273,82.479,279.605,81.812,278.785,81.812L278.785,81.812z"/>
	</g>
	<g>
		<path fill="#B8C6D0" d="M278.252,106.233v28.449H131.29v-28.449H278.252 M278.785,104.213H130.758
			c-0.822,0-1.487,0.667-1.487,1.487v29.514c0,0.822,0.665,1.486,1.487,1.486h148.027c0.822,0,1.488-0.666,1.488-1.486V105.7
			C280.273,104.88,279.605,104.213,278.785,104.213L278.785,104.213z"/>
	</g>
	<g>
		<path fill="#708199" d="M165.521,208.542h-35.493c-0.418,0-0.758-0.34-0.758-0.758v-9.478c0-0.418,0.339-0.759,0.758-0.759h35.493
			c0.42,0,0.759,0.34,0.759,0.759v9.478C166.281,208.203,165.941,208.542,165.521,208.542z"/>
	</g>
	<g>
		<path fill="#B8C6D0" d="M278.785,144.983h-0.532h-15.805h-131.69c-0.822,0-1.487,0.665-1.487,1.487v11.91
			c0,0.822,0.665,1.488,1.487,1.488h131.69l0,0h15.805h0.001h0.531c0.822,0,1.488-0.666,1.488-1.488v-0.531v-10.846v-0.532
			C280.273,145.648,279.605,144.983,278.785,144.983z M131.29,157.849v-10.846h131.158v10.846H131.29z"/>
		<path fill="#FFFFFF" d="M269.469,150.697c-0.365,0-0.593,0.396-0.41,0.711l0.944,1.637l0.945,1.639
			c0.184,0.314,0.64,0.314,0.821,0l0.943-1.639l0.945-1.637c0.183-0.313-0.047-0.711-0.411-0.711H269.469z"/>
	</g>
	<g>
		<circle fill="#B8C6D0" cx="131.517" cy="172.843" r="2.691"/>
		<circle fill="#B8C6D0" cx="131.517" cy="182.565" r="2.69"/>
		<circle fill="#B8C6D0" cx="187.068" cy="172.843" r="2.691"/>
		<circle fill="#B8C6D0" cx="187.068" cy="182.565" r="2.69"/>
		<circle fill="#B8C6D0" cx="242.206" cy="172.841" r="2.691"/>
		<circle fill="#B8C6D0" cx="242.206" cy="182.564" r="2.691"/>
	</g>
	<text transform="matrix(1 0 0 1 136.5654 91.7461)" fill="#708199" font-family="'MyriadPro-Bold'" font-size="7">Name</text>
	<text transform="matrix(1 0 0 1 129.2705 71.4121)" fill="#708199" font-family="'MyriadPro-Bold'" font-size="9">Company</text>
	<text transform="matrix(1 0 0 1 136.5654 115.0791)" fill="#708199" font-family="'MyriadPro-Bold'" font-size="7">Description</text>
	<text transform="matrix(1 0 0 1 136.5654 154.9194)" fill="#708199" font-family="'MyriadPro-Bold'" font-size="7">Select number of employees</text>
	<text transform="matrix(1 0 0 1 136.5654 174.5347)" fill="#708199" font-family="'MyriadPro-Bold'" font-size="6">Category 1</text>
	<text transform="matrix(1 0 0 1 136.5654 184.2554)" fill="#708199" font-family="'MyriadPro-Bold'" font-size="6">Category 2</text>
	<text transform="matrix(1 0 0 1 193.2324 174.5347)" fill="#708199" font-family="'MyriadPro-Bold'" font-size="6">Category 3</text>
	<text transform="matrix(1 0 0 1 193.2324 184.2554)" fill="#708199" font-family="'MyriadPro-Bold'" font-size="6">Category 4</text>
	<text transform="matrix(1 0 0 1 250.5654 174.5347)" fill="#708199" font-family="'MyriadPro-Bold'" font-size="6">Category 5</text>
	<text transform="matrix(1 0 0 1 250.5654 184.2554)" fill="#708199" font-family="'MyriadPro-Bold'" font-size="6">Category 6</text>
	<text transform="matrix(1 0 0 1 136.5654 205.7456)" fill="#FFFFFF" font-family="'MyriadPro-Bold'" font-size="6">SUBMIT</text>
</g>
<g id="Intros__x26__Landings">
</g>
</svg>
