<?xml version="1.0" encoding="utf-8"?>
<!-- Generator: Adobe Illustrator 16.0.0, SVG Export Plug-In . SVG Version: 6.00 Build 0)  -->
<!DOCTYPE svg PUBLIC "-//W3C//DTD SVG 1.1//EN" "http://www.w3.org/Graphics/SVG/1.1/DTD/svg11.dtd">
<svg version="1.1" id="Layer_1" xmlns="http://www.w3.org/2000/svg" xmlns:xlink="http://www.w3.org/1999/xlink" x="0px" y="0px"
	 width="404.25px" height="174px" viewBox="0 0 404.25 174" enable-background="new 0 0 404.25 174" xml:space="preserve">
<path fill="#B8C6D0" d="M125.5,143.289c0,3.312-2.687,6-6,6H33c-3.313,0-6-2.688-6-6V43.833c0-3.313,2.687-6,6-6h86.5
	c3.313,0,6,2.687,6,6V143.289z"/>
<g id="Category_Titles">
</g>
<g id="Arrows__x26__Lines">
</g>
<g id="Timelines__x26__Graphs">
</g>
<g id="Confirmations" display="none">
	<g display="inline">
		<g>
			<path fill="#B8C6D0" d="M371.908,11.988H37.191c-1.496,0-2.713,1.217-2.713,2.713V222.13c0,1.496,1.217,2.713,2.713,2.713
				h334.717c1.496,0,2.713-1.217,2.713-2.713V14.701C374.621,13.205,373.403,11.988,371.908,11.988z M37.191,12.695h334.717
				c1.104,0,2.005,0.899,2.005,2.005v11.922H220.148c-0.289-0.766-2.436-6.439-2.976-7.518c-0.055-0.11-0.104-0.219-0.151-0.325
				c-0.557-1.203-1.119-1.933-4.293-1.933h-63.284c-1.958,0-2.368,2.048-2.612,3.272c-0.045,0.224-0.087,0.436-0.132,0.608
				c-0.128,0.498-0.337,1.425-0.622,2.758c-0.671-1.476-1.176-3.038-1.176-3.038c-0.01-0.038-0.956-3.587-4.37-3.587h-64.2
				c-0.609,0-1.154-0.004-1.647-0.007c-3.164-0.024-4.229-0.031-5.965,1.126c-1.595,1.063-1.829,1.79-2.452,3.731
				c-0.177,0.552-0.378,1.177-0.652,1.955c-1.151,3.261-3.47,2.96-3.566,2.946l-0.027-0.004h-26.84V14.701
				C35.186,13.595,36.085,12.695,37.191,12.695z M150.078,26.619c-0.876-0.026-2.256-0.503-2.656-0.898
				c-0.256-0.252-0.541-0.668-0.848-1.234c0.016-0.03,0.03-0.062,0.037-0.096c0.361-1.711,0.629-2.917,0.776-3.485
				c0.049-0.192,0.094-0.413,0.141-0.647c0.295-1.479,0.644-2.703,1.918-2.703h63.283c2.948,0,3.229,0.605,3.649,1.521
				c0.052,0.113,0.104,0.228,0.164,0.345c0.461,0.922,2.288,5.712,2.86,7.224C219.402,26.645,150.103,26.613,150.078,26.619z
				 M146.925,26.224c1.232,1.232,3.043,1.131,6.438,1.131c0.69,0,1.202-0.018,1.368-0.024h219.182v14.32H35.186V27.315h26.793
				c0.343,0.036,3.036,0.191,4.308-3.414c0.277-0.787,0.489-1.445,0.658-1.974c0.615-1.917,0.781-2.432,2.17-3.358
				c1.555-1.037,2.486-1.03,5.568-1.008c0.494,0.003,1.041,0.007,1.652,0.007h64.2c2.859,0,3.651,2.929,3.689,3.074
				c0.03,0.094,0.748,2.32,1.644,4.025C146.24,25.375,146.597,25.896,146.925,26.224z M371.908,224.134H37.191
				c-1.106,0-2.005-0.899-2.005-2.006V42.359h338.727V222.13C373.913,223.234,373.013,224.134,371.908,224.134z"/>
			<circle fill="#B8C6D0" cx="139.299" cy="22.054" r="1.943"/>
			<circle fill="#B8C6D0" cx="56.393" cy="18.653" r="1.943"/>
			<circle fill="#B8C6D0" cx="48.625" cy="18.653" r="1.943"/>
			<circle fill="#B8C6D0" cx="40.858" cy="18.653" r="1.943"/>
			<circle fill="#B8C6D0" cx="212.55" cy="22.054" r="1.943"/>
			<path fill="#B8C6D0" d="M69.175,31.483v6.636c0,0.585,0.477,1.062,1.062,1.062h287.175c0.585,0,1.062-0.476,1.062-1.062v-6.636
				c0-0.585-0.476-1.062-1.062-1.062H70.237C69.652,30.421,69.175,30.897,69.175,31.483z M357.766,31.483v6.636
				c0,0.195-0.156,0.354-0.354,0.354H70.237c-0.195,0-0.354-0.159-0.354-0.354v-6.636c0-0.195,0.159-0.354,0.354-0.354h287.175
				C357.607,31.129,357.766,31.288,357.766,31.483z"/>
			<path fill="#B8C6D0" d="M364.104,33.318h4.238c0.291,0,0.53-0.238,0.53-0.53s-0.239-0.53-0.53-0.53h-4.238
				c-0.289,0-0.527,0.238-0.527,0.53S363.812,33.318,364.104,33.318z"/>
			<path fill="#B8C6D0" d="M364.104,35.331h4.238c0.291,0,0.53-0.238,0.53-0.53c0-0.291-0.239-0.53-0.53-0.53h-4.238
				c-0.289,0-0.527,0.239-0.527,0.53S363.812,35.331,364.104,35.331z"/>
			<path fill="#B8C6D0" d="M364.104,37.343h4.238c0.291,0,0.53-0.238,0.53-0.529c0-0.292-0.239-0.53-0.53-0.53h-4.238
				c-0.289,0-0.527,0.238-0.527,0.53C363.575,37.105,363.812,37.343,364.104,37.343z"/>
			<path fill="#B8C6D0" d="M42.982,34.022h-0.945v-0.619c0-0.27-0.292-0.439-0.526-0.304L40.3,33.798l-1.21,0.699
				c-0.234,0.135-0.234,0.473,0,0.607l1.21,0.699l1.211,0.699c0.233,0.135,0.526-0.034,0.526-0.304V35.58h0.945
				c0.225,0,0.408-0.183,0.408-0.408V34.43C43.39,34.205,43.207,34.022,42.982,34.022z"/>
			<path fill="#B8C6D0" d="M52.63,34.497l-1.21-0.699l-1.21-0.699c-0.234-0.135-0.526,0.034-0.526,0.304v0.619H48.74
				c-0.226,0-0.408,0.183-0.408,0.408v0.743c0,0.225,0.183,0.408,0.408,0.408h0.945V36.2c0,0.27,0.292,0.438,0.526,0.304l1.21-0.699
				l1.21-0.699C52.865,34.97,52.865,34.632,52.63,34.497z"/>
			<path fill="#B8C6D0" d="M64.819,32.926l-0.523,0.3c-0.86-0.826-2.23-0.816-3.076,0.03c-0.857,0.857-0.857,2.252,0,3.11
				c0.843,0.843,2.284,0.826,3.146-0.036c0.184-0.184,0.184-0.482,0-0.667c-0.184-0.185-0.482-0.184-0.667,0
				c-0.501,0.501-1.332,0.518-1.813,0.036c-0.49-0.49-0.49-1.287,0-1.777c0.413-0.414,1.043-0.474,1.525-0.19l-0.344,0.197
				c-0.169,0.097-0.17,0.341-0.001,0.439l0.874,0.509l0.874,0.509c0.168,0.099,0.38-0.023,0.381-0.218l0.002-1.011l0.003-1.011
				C65.199,32.952,64.988,32.829,64.819,32.926z"/>
			<path fill="#B8C6D0" d="M351.753,35.333c0.052,0.051,0.077,0.125,0.064,0.197l-0.201,1.175c-0.031,0.182,0.159,0.32,0.321,0.234
				l1.057-0.555c0.062-0.034,0.142-0.034,0.207,0l1.055,0.555c0.163,0.086,0.354-0.052,0.323-0.234l-0.202-1.175
				c-0.012-0.072,0.012-0.146,0.064-0.197l0.854-0.832c0.132-0.129,0.059-0.353-0.124-0.379l-1.18-0.171
				c-0.072-0.011-0.135-0.056-0.167-0.122l-0.527-1.069c-0.082-0.165-0.314-0.165-0.396,0l-0.528,1.069
				c-0.032,0.065-0.095,0.111-0.167,0.122l-1.18,0.171c-0.186,0.026-0.258,0.25-0.124,0.379L351.753,35.333z"/>
		</g>
	</g>
</g>
<g id="Paragraphs__x26__Lists">
</g>
<g id="Testimonials__x26__Callouts">
</g>
<g id="Image_Galleries">
</g>
<g id="Pricing_Tables">
</g>
<g id="Ecommerce">
</g>
<text transform="matrix(1 0 0 1 34.7949 50.6914)" fill="#708199" font-family="'MyriadPro-Bold'" font-size="6">has_many</text>
<text transform="matrix(1 0 0 1 34.7949 58.2568)" fill="#708199" font-family="'MyriadPro-Bold'" font-size="6">has_many</text>
<text transform="matrix(1 0 0 1 38.5215 65.7002)" fill="#708199" font-family="'MyriadPro-Bold'" font-size="6">through:</text>
<text transform="matrix(1 0 0 1 65.5654 50.6914)" fill="#D43783" font-family="'MyriadPro-Bold'" font-size="6">:characterizations</text>
<text transform="matrix(1 0 0 1 127.5654 70.4414)" fill="#D43783" font-family="'MyriadPro-Bold'" font-size="8">1</text>
<text transform="matrix(1 0 0 1 145.8154 70.4414)" fill="#D43783" font-family="'MyriadPro-Bold'" font-size="8">*</text>
<text transform="matrix(1 0 0 1 65.5654 58.2568)" fill="#D43783" font-family="'MyriadPro-Bold'" font-size="6">:categories,</text>
<text transform="matrix(1 0 0 1 65.5654 65.7002)" fill="#D43783" font-family="'MyriadPro-Bold'" font-size="6">:characterizations</text>
<text transform="matrix(1 0 0 1 27 31.3564)" fill="#708199" font-family="'MyriadPro-Bold'" font-size="9">Compan</text>
<text transform="matrix(1 0 0 1 60.6953 31.3564)" fill="#708199" font-family="'MyriadPro-Bold'" font-size="9">y</text>
<text transform="matrix(1 0 0 1 65.583 31.3564)" fill="#708199" font-family="'MyriadPro-Bold'" font-size="9"> Model</text>
<g id="Intros__x26__Landings">
</g>
<path fill="#FFFFFF" stroke="#708199" stroke-miterlimit="10" d="M112,133.341c0,1.642-1.95,2.974-4.355,2.974h-62.79
	c-2.405,0-4.355-1.332-4.355-2.974v-49.26c0-1.642,1.95-2.972,4.355-2.972h62.789c2.405,0,4.355,1.33,4.355,2.972L112,133.341
	L112,133.341z"/>
<line fill="none" stroke="#708199" stroke-miterlimit="10" x1="40.5" y1="93.561" x2="112" y2="93.561"/>
<rect x="40.5" y="93.561" fill="#708199" width="71.5" height="12.772"/>
<text transform="matrix(1 0 0 1 46.25 89.1914)" fill="#708199" font-family="'MyriadPro-Bold'" font-size="6">companies</text>
<line fill="none" stroke="#FFFFFF" stroke-miterlimit="10" x1="53.5" y1="93.561" x2="53.5" y2="106.333"/>
<line fill="none" stroke="#FFFFFF" stroke-miterlimit="10" x1="88.5" y1="93.561" x2="88.5" y2="106.333"/>
<line fill="none" stroke="#708199" stroke-miterlimit="10" x1="53.5" y1="106.333" x2="53.5" y2="136.314"/>
<line fill="none" stroke="#708199" stroke-miterlimit="10" x1="88.5" y1="106.333" x2="88.5" y2="136.314"/>
<line fill="none" stroke="#708199" stroke-miterlimit="10" x1="40.5" y1="116.427" x2="112" y2="116.427"/>
<line fill="none" stroke="#708199" stroke-miterlimit="10" x1="40.5" y1="125.871" x2="112" y2="125.871"/>
<text transform="matrix(1 0 0 1 44.75 101.7012)" fill="#FFFFFF" font-family="'MyriadPro-Bold'" font-size="6">id</text>
<text transform="matrix(1 0 0 1 57.5654 101.7012)" fill="#FFFFFF" font-family="'MyriadPro-Bold'" font-size="6">name</text>
<text transform="matrix(1 0 0 1 93.5654 101.7012)" fill="#FFFFFF" font-family="'MyriadPro-Bold'" font-size="6">size</text>
<path fill="#B8C6D0" d="M250,143.289c0,3.312-2.688,6-6,6h-86.5c-3.313,0-6-2.688-6-6V43.833c0-3.313,2.687-6,6-6H244
	c3.312,0,6,2.687,6,6V143.289z"/>
<text transform="matrix(1 0 0 1 169.4033 50.6914)" fill="#708199" font-family="'MyriadPro-Bold'" font-size="6">belongs_to</text>
<text transform="matrix(1 0 0 1 169.4033 58.2568)" fill="#708199" font-family="'MyriadPro-Bold'" font-size="6">belongs_to</text>
<text transform="matrix(1 0 0 1 203.0654 50.6914)" fill="#D43783" font-family="'MyriadPro-Bold'" font-size="6">:company</text>
<text transform="matrix(1 0 0 1 203.0654 58.2568)" fill="#D43783" font-family="'MyriadPro-Bold'" font-size="6">:category</text>
<text transform="matrix(1 0 0 1 151.5 31.3564)" fill="#708199" font-family="'MyriadPro-Bold'" font-size="9">Characterization Model</text>
<path fill="#FFFFFF" stroke="#708199" stroke-miterlimit="10" d="M245.5,133.341c0,1.642-2.439,2.974-5.451,2.974h-78.597
	c-3.011,0-5.452-1.332-5.452-2.974v-49.26c0-1.642,2.441-2.972,5.452-2.972h78.597c3.012,0,5.451,1.33,5.451,2.972V133.341z"/>
<line fill="none" stroke="#708199" stroke-miterlimit="10" x1="156" y1="93.561" x2="245.5" y2="93.561"/>
<rect x="156" y="93.561" fill="#708199" width="89.5" height="12.772"/>
<line fill="none" stroke="#FFFFFF" stroke-miterlimit="10" x1="168.272" y1="93.561" x2="168.272" y2="106.333"/>
<line fill="none" stroke="#FFFFFF" stroke-miterlimit="10" x1="207.084" y1="93.561" x2="207.084" y2="106.333"/>
<line fill="none" stroke="#708199" stroke-miterlimit="10" x1="168.272" y1="106.333" x2="168.272" y2="136.314"/>
<line fill="none" stroke="#708199" stroke-miterlimit="10" x1="207.084" y1="106.333" x2="207.084" y2="136.314"/>
<line fill="none" stroke="#708199" stroke-miterlimit="10" x1="156" y1="116.427" x2="245.5" y2="116.427"/>
<line fill="none" stroke="#708199" stroke-miterlimit="10" x1="156" y1="125.871" x2="245.5" y2="125.871"/>
<path fill="#B8C6D0" d="M376,143.289c0,3.312-2.688,6-6,6h-86.5c-3.312,0-6-2.688-6-6V43.833c0-3.313,2.688-6,6-6H370
	c3.312,0,6,2.687,6,6V143.289z"/>
<text transform="matrix(1 0 0 1 285.2949 50.6914)" fill="#708199" font-family="'MyriadPro-Bold'" font-size="6">has_many</text>
<text transform="matrix(1 0 0 1 285.2949 58.2568)" fill="#708199" font-family="'MyriadPro-Bold'" font-size="6">has_many</text>
<text transform="matrix(1 0 0 1 289.0215 65.7002)" fill="#708199" font-family="'MyriadPro-Bold'" font-size="6">through:</text>
<text transform="matrix(1 0 0 1 316.0654 50.6914)" fill="#D43783" font-family="'MyriadPro-Bold'" font-size="6">:characterizations</text>
<text transform="matrix(1 0 0 1 316.0654 58.2568)" fill="#D43783" font-family="'MyriadPro-Bold'" font-size="6">:companies,</text>
<text transform="matrix(1 0 0 1 316.0654 65.7002)" fill="#D43783" font-family="'MyriadPro-Bold'" font-size="6">:characterizations</text>
<text transform="matrix(1 0 0 1 277.5 31.3564)" fill="#708199" font-family="'MyriadPro-Bold'" font-size="9">Category Model</text>
<path fill="#FFFFFF" stroke="#708199" stroke-miterlimit="10" d="M362.5,133.341c0,1.642-1.95,2.974-4.355,2.974h-62.789
	c-2.403,0-4.354-1.332-4.354-2.974v-49.26c0-1.642,1.95-2.972,4.354-2.972h62.789c2.405,0,4.355,1.33,4.355,2.972V133.341z"/>
<line fill="none" stroke="#708199" stroke-miterlimit="10" x1="291" y1="93.561" x2="362.5" y2="93.561"/>
<rect x="291" y="93.561" fill="#708199" width="71.5" height="12.772"/>
<line fill="none" stroke="#FFFFFF" stroke-miterlimit="10" x1="304" y1="93.561" x2="304" y2="106.333"/>
<line fill="none" stroke="#708199" stroke-miterlimit="10" x1="304" y1="106.333" x2="304" y2="136.314"/>
<line fill="none" stroke="#708199" stroke-miterlimit="10" x1="291" y1="116.427" x2="362.5" y2="116.427"/>
<line fill="none" stroke="#708199" stroke-miterlimit="10" x1="291" y1="125.871" x2="362.5" y2="125.871"/>
<text transform="matrix(1 0 0 1 295.25 101.7012)" fill="#FFFFFF" font-family="'MyriadPro-Bold'" font-size="6">id</text>
<text transform="matrix(1 0 0 1 309.0654 101.7012)" fill="#FFFFFF" font-family="'MyriadPro-Bold'" font-size="6">name</text>
<text transform="matrix(1 0 0 1 295.25 89.1914)" fill="#708199" font-family="'MyriadPro-Bold'" font-size="6">categories</text>
<text transform="matrix(1 0 0 1 160.75 89.1914)" fill="#708199" font-family="'MyriadPro-Bold'" font-size="6">characterizations</text>
<text transform="matrix(1 0 0 1 159.25 101.7012)" fill="#FFFFFF" font-family="'MyriadPro-Bold'" font-size="6">id</text>
<text transform="matrix(1 0 0 1 171.0654 101.7012)" fill="#FFFFFF" font-family="'MyriadPro-Bold'" font-size="6">company_id</text>
<text transform="matrix(1 0 0 1 210.0654 101.7012)" fill="#FFFFFF" font-family="'MyriadPro-Bold'" font-size="6">category_id</text>
<text transform="matrix(1 0 0 1 44.75 113.7012)" fill="#B8C6D0" font-family="'MyriadPro-Bold'" font-size="6">1</text>
<text transform="matrix(1 0 0 1 44.75 123.4512)" fill="#B8C6D0" font-family="'MyriadPro-Bold'" font-size="6">2</text>
<text transform="matrix(1 0 0 1 44.75 133.2012)" fill="#B8C6D0" font-family="'MyriadPro-Bold'" font-size="6">3</text>
<text transform="matrix(1 0 0 1 160.75 113.7012)" fill="#B8C6D0" font-family="'MyriadPro-Bold'" font-size="6">1</text>
<text transform="matrix(1 0 0 1 160.75 123.4512)" fill="#B8C6D0" font-family="'MyriadPro-Bold'" font-size="6">2</text>
<text transform="matrix(1 0 0 1 160.75 133.2012)" fill="#B8C6D0" font-family="'MyriadPro-Bold'" font-size="6">3</text>
<text transform="matrix(1 0 0 1 296.5 113.7012)" fill="#B8C6D0" font-family="'MyriadPro-Bold'" font-size="6">1</text>
<text transform="matrix(1 0 0 1 296.5 123.4512)" fill="#B8C6D0" font-family="'MyriadPro-Bold'" font-size="6">2</text>
<text transform="matrix(1 0 0 1 296.5 133.2012)" fill="#B8C6D0" font-family="'MyriadPro-Bold'" font-size="6">3</text>
<line fill="none" stroke="#D43783" stroke-miterlimit="10" x1="125.5" y1="73.333" x2="151.5" y2="73.333"/>
<text transform="matrix(1 0 0 1 272.0654 70.4414)" fill="#D43783" font-family="'MyriadPro-Bold'" font-size="8">1</text>
<text transform="matrix(1 0 0 1 252.5654 70.4414)" fill="#D43783" font-family="'MyriadPro-Bold'" font-size="8">*</text>
<line fill="none" stroke="#D43783" stroke-miterlimit="10" x1="250" y1="73.333" x2="277.5" y2="73.333"/>
</svg>
