<?xml version="1.0" encoding="utf-8"?>
<!-- Generator: Adobe Illustrator 16.0.0, SVG Export Plug-In . SVG Version: 6.00 Build 0)  -->
<!DOCTYPE svg PUBLIC "-//W3C//DTD SVG 1.1//EN" "http://www.w3.org/Graphics/SVG/1.1/DTD/svg11.dtd">
<svg version="1.1" xmlns="http://www.w3.org/2000/svg" xmlns:xlink="http://www.w3.org/1999/xlink" x="0px" y="0px" width="404px"
	 height="304.356px" viewBox="0 0 404 304.356" enable-background="new 0 0 404 304.356" xml:space="preserve">
<g id="Category_Titles">
</g>
<g id="Arrows__x26__Lines">
</g>
<g id="Timelines__x26__Graphs">
</g>
<g id="Confirmations" display="none">
	<g display="inline">
		<g>
			<path fill="#B8C6D0" d="M371.908,34.344H37.191c-1.496,0-2.713,1.217-2.713,2.713v207.429c0,1.496,1.217,2.713,2.713,2.713
				h334.717c1.496,0,2.713-1.217,2.713-2.713V37.057C374.621,35.561,373.403,34.344,371.908,34.344z M37.191,35.052h334.717
				c1.105,0,2.005,0.899,2.005,2.005v11.922H220.149c-0.289-0.766-2.434-6.439-2.974-7.518c-0.055-0.11-0.105-0.219-0.154-0.325
				c-0.554-1.203-1.119-1.933-4.292-1.933h-63.282c-1.958,0-2.368,2.048-2.612,3.272c-0.045,0.224-0.087,0.436-0.132,0.608
				c-0.128,0.498-0.337,1.425-0.622,2.758c-0.671-1.476-1.176-3.038-1.176-3.038c-0.01-0.038-0.956-3.587-4.37-3.587h-64.2
				c-0.609,0-1.154-0.004-1.647-0.007c-3.164-0.024-4.229-0.031-5.965,1.126c-1.595,1.063-1.829,1.79-2.452,3.731
				c-0.177,0.552-0.378,1.177-0.652,1.955c-1.151,3.261-3.47,2.96-3.566,2.946l-0.027-0.004h-26.84V37.057
				C35.186,35.951,36.085,35.052,37.191,35.052z M150.078,48.976c-0.876-0.026-2.256-0.503-2.656-0.898
				c-0.256-0.252-0.541-0.668-0.848-1.234c0.016-0.03,0.03-0.062,0.037-0.096c0.361-1.711,0.629-2.917,0.776-3.485
				c0.049-0.192,0.094-0.413,0.141-0.647c0.295-1.479,0.644-2.703,1.918-2.703h63.282c2.949,0,3.228,0.605,3.65,1.521
				c0.052,0.113,0.105,0.228,0.164,0.345c0.461,0.922,2.288,5.712,2.86,7.224C219.402,49.001,150.103,48.97,150.078,48.976z
				 M146.925,48.581c1.232,1.232,3.043,1.131,6.438,1.131c0.69,0,1.202-0.018,1.368-0.024h219.182v14.32H35.186V49.671h26.793
				c0.343,0.036,3.036,0.191,4.308-3.414c0.277-0.787,0.489-1.445,0.658-1.974c0.615-1.917,0.781-2.432,2.17-3.358
				c1.555-1.037,2.486-1.03,5.568-1.008c0.494,0.003,1.041,0.007,1.652,0.007h64.2c2.859,0,3.651,2.929,3.689,3.074
				c0.03,0.094,0.748,2.32,1.644,4.025C146.24,47.731,146.597,48.253,146.925,48.581z M371.908,246.491H37.191
				c-1.106,0-2.005-0.899-2.005-2.005V64.715h338.727v179.771C373.913,245.591,373.013,246.491,371.908,246.491z"/>
			<circle fill="#B8C6D0" cx="139.299" cy="44.41" r="1.943"/>
			<circle fill="#B8C6D0" cx="56.393" cy="41.009" r="1.943"/>
			<circle fill="#B8C6D0" cx="48.625" cy="41.009" r="1.943"/>
			<circle fill="#B8C6D0" cx="40.858" cy="41.009" r="1.943"/>
			<circle fill="#B8C6D0" cx="212.55" cy="44.41" r="1.943"/>
			<path fill="#B8C6D0" d="M69.175,53.839v6.636c0,0.585,0.477,1.062,1.062,1.062h287.175c0.585,0,1.062-0.476,1.062-1.062v-6.636
				c0-0.585-0.476-1.062-1.062-1.062H70.237C69.652,52.778,69.175,53.254,69.175,53.839z M357.766,53.839v6.636
				c0,0.195-0.159,0.354-0.354,0.354H70.237c-0.195,0-0.354-0.159-0.354-0.354v-6.636c0-0.195,0.159-0.354,0.354-0.354h287.175
				C357.607,53.485,357.766,53.644,357.766,53.839z"/>
			<path fill="#B8C6D0" d="M364.104,55.674h4.238c0.291,0,0.53-0.238,0.53-0.53s-0.239-0.53-0.53-0.53h-4.238
				c-0.292,0-0.53,0.238-0.53,0.53S363.813,55.674,364.104,55.674z"/>
			<path fill="#B8C6D0" d="M364.104,57.687h4.238c0.291,0,0.53-0.238,0.53-0.53c0-0.291-0.239-0.53-0.53-0.53h-4.238
				c-0.292,0-0.53,0.239-0.53,0.53C363.575,57.449,363.813,57.687,364.104,57.687z"/>
			<path fill="#B8C6D0" d="M364.104,59.7h4.238c0.291,0,0.53-0.238,0.53-0.529c0-0.292-0.239-0.53-0.53-0.53h-4.238
				c-0.292,0-0.53,0.238-0.53,0.53C363.575,59.461,363.813,59.7,364.104,59.7z"/>
			<path fill="#B8C6D0" d="M42.982,56.378h-0.945V55.76c0-0.27-0.292-0.439-0.526-0.304L40.3,56.155l-1.21,0.699
				c-0.234,0.135-0.234,0.473,0,0.607l1.21,0.699l1.211,0.699c0.233,0.135,0.526-0.034,0.526-0.304v-0.619h0.945
				c0.225,0,0.408-0.183,0.408-0.408v-0.743C43.39,56.561,43.207,56.378,42.982,56.378z"/>
			<path fill="#B8C6D0" d="M52.63,56.854l-1.21-0.699l-1.21-0.699c-0.234-0.135-0.526,0.034-0.526,0.304v0.619h-0.944
				c-0.226,0-0.408,0.183-0.408,0.408v0.743c0,0.225,0.183,0.408,0.408,0.408h0.945v0.619c0,0.27,0.292,0.438,0.526,0.304
				l1.21-0.699l1.21-0.699C52.865,57.326,52.865,56.988,52.63,56.854z"/>
			<path fill="#B8C6D0" d="M64.819,55.283l-0.523,0.3c-0.86-0.826-2.23-0.816-3.076,0.03c-0.857,0.857-0.857,2.252,0,3.11
				c0.843,0.843,2.284,0.826,3.146-0.036c0.184-0.184,0.184-0.482,0-0.667s-0.482-0.184-0.667,0
				c-0.501,0.501-1.332,0.518-1.813,0.036c-0.49-0.49-0.49-1.287,0-1.777c0.413-0.414,1.043-0.474,1.525-0.19l-0.344,0.197
				c-0.169,0.097-0.17,0.341-0.001,0.439l0.874,0.509l0.874,0.509c0.168,0.099,0.38-0.023,0.381-0.218l0.002-1.011l0.003-1.011
				C65.199,55.309,64.988,55.186,64.819,55.283z"/>
			<path fill="#B8C6D0" d="M351.753,57.69c0.052,0.051,0.077,0.125,0.064,0.197l-0.201,1.175c-0.031,0.182,0.159,0.32,0.322,0.234
				l1.056-0.555c0.064-0.034,0.142-0.034,0.207,0l1.055,0.555c0.163,0.086,0.354-0.052,0.323-0.234l-0.202-1.175
				c-0.012-0.072,0.012-0.146,0.064-0.197l0.854-0.832c0.132-0.129,0.059-0.353-0.124-0.379l-1.18-0.171
				c-0.072-0.011-0.135-0.056-0.167-0.122l-0.527-1.069c-0.082-0.165-0.317-0.165-0.399,0l-0.528,1.069
				c-0.032,0.065-0.095,0.111-0.167,0.122l-1.18,0.171c-0.183,0.026-0.255,0.25-0.124,0.379L351.753,57.69z"/>
		</g>
	</g>
</g>
<g id="Paragraphs__x26__Lists">
</g>
<g id="Testimonials__x26__Callouts">
</g>
<g id="Image_Galleries">
</g>
<g id="Pricing_Tables">
</g>
<g id="Ecommerce">
</g>
<g id="Login__x26__Forms">
	<g>
		<path fill="#FFFFFF" d="M357.288,61.424V46.89c0-2.201-1.792-3.991-3.992-3.991H56.248c-2.202,0-3.992,1.79-3.992,3.991v201.446
			c0,2.201,1.79,3.991,3.992,3.991h297.048c2.201,0,3.992-1.79,3.992-3.991V63.484V61.424L357.288,61.424z"/>
		<g>
			<path fill="#B8C6D0" d="M357.288,61.424L357.288,61.424V46.89c0-2.201-1.792-3.991-3.992-3.991H56.248
				c-2.202,0-3.992,1.79-3.992,3.991v201.446c0,2.201,1.79,3.991,3.992,3.991h297.048c2.201,0,3.992-1.79,3.992-3.991V63.484V61.424
				z M56.248,45.837h297.048c0.579,0,1.051,0.473,1.051,1.052v14.534l-299.15-0.007V46.89
				C55.197,46.311,55.667,45.837,56.248,45.837z M353.296,249.385H56.248c-0.57,0-1.051-0.479-1.051-1.049V64.358l299.15,0.007
				v183.97C354.347,248.905,353.866,249.385,353.296,249.385z"/>
			<circle fill="#B8C6D0" cx="63.234" cy="54.224" r="2.206"/>
			<circle fill="#B8C6D0" cx="72.059" cy="54.224" r="2.206"/>
			<circle fill="#B8C6D0" cx="80.883" cy="54.224" r="2.206"/>
		</g>
	</g>
	<g>
		<path fill="#B8C6D0" d="M278.252,106.188v10.846H131.29v-10.846H278.252 M278.785,104.168H130.758
			c-0.822,0-1.487,0.667-1.487,1.487v11.911c0,0.822,0.665,1.489,1.487,1.489h148.027c0.822,0,1.489-0.667,1.489-1.489v-11.911
			C280.273,104.835,279.606,104.168,278.785,104.168L278.785,104.168z"/>
	</g>
	<g>
		<path fill="#B8C6D0" d="M278.252,128.589v28.449H131.29v-28.449H278.252 M278.785,126.57H130.758
			c-0.822,0-1.487,0.667-1.487,1.487v29.514c0,0.822,0.665,1.487,1.487,1.487h148.027c0.822,0,1.489-0.666,1.489-1.487v-29.514
			C280.273,127.236,279.606,126.57,278.785,126.57L278.785,126.57z"/>
	</g>
	<g>
		<path fill="#708199" d="M165.521,230.898h-35.493c-0.418,0-0.758-0.339-0.758-0.758v-9.476c0-0.418,0.339-0.758,0.758-0.758
			h35.493c0.42,0,0.759,0.339,0.759,0.758v9.476C166.281,230.559,165.941,230.898,165.521,230.898z"/>
	</g>
	<g>
		<path fill="#B8C6D0" d="M278.785,167.339h-0.532h-15.805h-131.69c-0.822,0-1.487,0.665-1.487,1.487v11.911
			c0,0.822,0.665,1.487,1.487,1.487h131.69v0.001h15.805l0.001-0.001h0.531c0.822,0,1.489-0.666,1.489-1.487v-0.532V169.36v-0.533
			C280.273,168.004,279.606,167.339,278.785,167.339z M131.29,180.205V169.36h131.158v10.845H131.29z"/>
		<path fill="#FFFFFF" d="M269.469,173.054c-0.365,0-0.593,0.396-0.411,0.711l0.945,1.637l0.945,1.637
			c0.184,0.315,0.64,0.315,0.822,0l0.944-1.637l0.945-1.637c0.183-0.315-0.045-0.711-0.411-0.711H269.469z"/>
	</g>
	<g>
		<circle fill="#B8C6D0" cx="131.517" cy="195.2" r="2.691"/>
		<circle fill="#B8C6D0" cx="131.517" cy="204.921" r="2.691"/>
		<circle fill="#B8C6D0" cx="187.068" cy="195.2" r="2.691"/>
		<circle fill="#B8C6D0" cx="187.068" cy="204.921" r="2.691"/>
		<circle fill="#B8C6D0" cx="242.206" cy="195.198" r="2.691"/>
		<circle fill="#B8C6D0" cx="242.206" cy="204.92" r="2.691"/>
	</g>
	<text transform="matrix(1 0 0 1 136.5654 114.1021)" fill="#708199" font-family="'MyriadPro-Bold'" font-size="7">Company Name</text>
	<text transform="matrix(1 0 0 1 129.2705 93.7686)" fill="#708199" font-family="'MyriadPro-Bold'" font-size="9">Edit Company Form</text>
	<text transform="matrix(1 0 0 1 136.5654 137.4355)" fill="#708199" font-family="'MyriadPro-Bold'" font-size="7">Description</text>
	<text transform="matrix(1 0 0 1 136.5654 177.2754)" fill="#708199" font-family="'MyriadPro-Bold'" font-size="7">Size</text>
	<text transform="matrix(1 0 0 1 136.5654 196.8901)" fill="#708199" font-family="'MyriadPro-Bold'" font-size="6">Category 1</text>
	<text transform="matrix(1 0 0 1 136.5654 206.6123)" fill="#708199" font-family="'MyriadPro-Bold'" font-size="6">Category 2</text>
	<text transform="matrix(1 0 0 1 193.2324 196.8901)" fill="#708199" font-family="'MyriadPro-Bold'" font-size="6">Category 3</text>
	<text transform="matrix(1 0 0 1 193.2324 206.6123)" fill="#708199" font-family="'MyriadPro-Bold'" font-size="6">Category 4</text>
	<text transform="matrix(1 0 0 1 250.5659 196.8901)" fill="#708199" font-family="'MyriadPro-Bold'" font-size="6">Category 5</text>
	<text transform="matrix(1 0 0 1 250.5659 206.6123)" fill="#708199" font-family="'MyriadPro-Bold'" font-size="6">Category 6</text>
	<text transform="matrix(1 0 0 1 136.5654 228.1021)" fill="#FFFFFF" font-family="'MyriadPro-Bold'" font-size="6">UPDATE</text>
</g>
<g id="Intros__x26__Landings">
</g>
</svg>
