<?xml version="1.0" encoding="utf-8"?>
<!-- Generator: Adobe Illustrator 16.0.0, SVG Export Plug-In . SVG Version: 6.00 Build 0)  -->
<!DOCTYPE svg PUBLIC "-//W3C//DTD SVG 1.1//EN" "http://www.w3.org/Graphics/SVG/1.1/DTD/svg11.dtd">
<svg version="1.1" id="Layer_1" xmlns="http://www.w3.org/2000/svg" xmlns:xlink="http://www.w3.org/1999/xlink" x="0px" y="0px"
	 width="218px" height="34.333px" viewBox="0 27.583 218 34.333" enable-background="new 0 27.583 218 34.333" xml:space="preserve"
	>
<g>
	<path d="M25.051,51.565c-1.055,0-1.846,0-2.748,0c0-3.858,0-7.667,0-11.891c1.011,0.369,1.831,0.669,2.873,1.049
		c0.604-0.214,1.658-0.896,2.687-0.859c0.961,0.034,1.895,0.828,2.856,1.296c0.203-0.179,0.595-0.603,1.061-0.918
		c1.744-1.183,4.249-0.356,4.517,1.743c0.396,3.098,0.362,6.249,0.518,9.511c-1.12,0-1.988,0-3.041,0
		c0-2.188,0.007-4.362-0.005-6.537c-0.002-0.584,0.062-1.217-0.138-1.738c-0.164-0.427-0.645-0.96-1.037-1.006
		c-0.397-0.046-1.08,0.353-1.241,0.728c-0.306,0.709-0.427,1.536-0.449,2.32c-0.057,2.066-0.019,4.136-0.019,6.279
		c-1.015,0-1.851,0-2.91,0c0-2.083,0-4.147,0-6.212c0-0.428,0.137-0.921-0.031-1.267c-0.329-0.682-0.827-1.28-1.255-1.913
		c-0.509,0.592-1.374,1.136-1.458,1.782c-0.234,1.788-0.146,3.618-0.177,5.431C25.042,50.046,25.051,50.73,25.051,51.565z"/>
	<path d="M94.341,51.51c0-3.86,0-7.625,0-11.51c1.057,0.03,2.237-0.575,2.402,0.887c1.042-0.383,2.046-1.056,3.03-1.027
		c0.967,0.029,1.913,0.771,3.097,1.304c0.139-0.133,0.561-0.688,1.112-1.03c1.883-1.168,4.291-0.012,4.467,2.36
		c0.221,2.96,0.054,5.95,0.054,9.027c-0.845,0-1.667,0-2.664,0c0-1.709,0.002-3.352,0-4.994c-0.002-0.854,0.145-1.749-0.065-2.55
		c-0.175-0.666-0.773-1.221-1.185-1.826c-0.515,0.514-1.309,0.948-1.483,1.559c-0.3,1.051-0.254,2.211-0.283,3.327
		c-0.039,1.438-0.011,2.876-0.011,4.451c-0.895,0-1.718,0-2.76,0c0-2.134,0.027-4.309-0.012-6.48
		c-0.02-1.129,0.268-2.742-1.34-2.784c-1.636-0.042-1.604,1.635-1.663,2.802c-0.107,2.121-0.031,4.25-0.031,6.484
		C96.083,51.51,95.307,51.51,94.341,51.51z"/>
	<path d="M38.938,39.592c1.111,0.453,1.952,0.797,3.008,1.229c2.484-2.079,4.723-1.294,5.342,2.481
		c0.27,1.643,0.266,3.406-0.019,5.046c-0.619,3.566-2.722,4.39-5.615,2.367c0,1.965,0,3.912,0,5.971c-0.91,0-1.782,0-2.716,0
		C38.938,51.117,38.938,45.644,38.938,39.592z M44.793,45.692c-0.123-0.868-0.119-1.753-0.408-2.527
		c-0.162-0.434-0.79-0.905-1.246-0.948c-0.352-0.033-1.08,0.558-1.098,0.898c-0.096,1.782-0.079,3.577,0.052,5.356
		c0.026,0.353,0.77,0.965,1.097,0.912c0.456-0.072,1.044-0.585,1.196-1.035C44.667,47.511,44.673,46.58,44.793,45.692z"/>
	<path d="M114.846,45.88c0-1.645,0-3.184,0-4.849c5.1,0,10.188,0,15.378,0c0,1.595,0,3.169,0,4.849
		C125.137,45.88,120.088,45.88,114.846,45.88z"/>
	<path fill="#D43783" d="M130.167,35.3c0,1.617,0,3.047,0,4.577c-5.053,0-10.05,0-15.17,0c0-1.479,0-2.985,0-4.577
		C120.049,35.3,125.039,35.3,130.167,35.3z"/>
	<path d="M75.835,45.698c0.248-1.147,0.373-2.214,0.714-3.208c0.596-1.738,1.877-2.661,3.744-2.72
		c1.92-0.061,3.331,0.755,4.051,2.53c0.918,2.263,0.948,4.591,0.063,6.87c-0.7,1.798-2.155,2.727-3.962,2.704
		c-1.793-0.023-3.25-1.01-3.869-2.823C76.206,47.96,76.068,46.788,75.835,45.698z M82.267,45.783
		c-0.163-0.891-0.206-1.813-0.529-2.625c-0.172-0.431-0.83-0.928-1.265-0.923c-0.436,0.005-1.216,0.568-1.241,0.931
		c-0.125,1.765-0.12,3.548,0.02,5.311c0.029,0.374,0.816,0.96,1.247,0.954c0.434-0.007,1.063-0.549,1.241-1
		C82.057,47.616,82.102,46.692,82.267,45.783z"/>
	<path d="M7.352,48.415c1.338,0.409,2.133,0.82,2.94,0.847c0.647,0.02,1.667-0.264,1.876-0.712c0.271-0.583,0.1-1.573-0.244-2.185
		c-0.367-0.654-1.203-1.026-1.748-1.603c-0.721-0.762-1.564-1.509-1.988-2.432c-0.913-1.986-0.363-4.292,1.051-5.423
		c1.494-1.194,3.82-1.117,5.918,0.271c-0.269,0.641-0.548,1.307-0.862,2.057c-0.439-0.169-0.788-0.431-1.107-0.4
		c-0.78,0.072-2.117,0.129-2.206,0.464c-0.208,0.788-0.027,1.854,0.387,2.583c0.39,0.684,1.285,1.082,1.956,1.606
		c2.001,1.567,2.584,4.489,1.323,6.619c-0.996,1.685-4.161,2.478-6.177,1.251C7.844,50.977,7.791,49.652,7.352,48.415z"/>
	<path d="M62.625,46.506c-1.858,0-3.597,0-5.32,0c-0.172,2.913,0.95,3.463,4.827,2.515c0.197,2.248,0.055,2.431-2.14,2.773
		c-2.847,0.441-5.015-0.976-5.423-3.843c-0.228-1.596-0.18-3.302,0.123-4.885c0.443-2.311,2.053-3.405,4.232-3.293
		c2.003,0.104,3.399,1.469,3.683,3.745C62.723,44.452,62.625,45.411,62.625,46.506z M60.02,44.38
		c-0.176-1.134-0.095-2.447-1.463-2.388c-1.284,0.055-1.311,1.265-1.293,2.388C58.162,44.38,58.996,44.38,60.02,44.38z"/>
	<path d="M74.491,36.443c0,0.74,0,1.406,0,2.222c-1.256,0-2.462,0-3.79,0c0,1.495,0,2.845,0,4.357c1.12,0,2.218,0,3.431,0
		c0,0.827,0,1.494,0,2.366c-1.084,0-2.221,0-3.528,0c0,2.144,0,4.09,0,6.13c-1.003,0-1.833,0-2.781,0c0-4.979,0-9.965,0-15.075
		C69.979,36.443,72.135,36.443,74.491,36.443z"/>
	<path d="M125.124,46.811c0,1.592,0,3.112,0,4.765c-3.393,0-6.755,0-10.231,0c0-1.565,0-3.124,0-4.765
		C118.3,46.811,121.67,46.811,125.124,46.811z"/>
	<path d="M49.678,35.46c0.868,0,1.654,0,2.538,0c0,5.309,0,10.605,0,16.033c-0.825,0-1.637,0-2.538,0
		C49.678,46.146,49.678,40.843,49.678,35.46z"/>
	<path d="M87.038,39.997c0.746,0,1.378,0,2.097,0c0.147,0.416,0.301,0.848,0.395,1.116c0.968-0.545,1.933-1.088,2.899-1.631
		c0.139,0.136,0.28,0.272,0.421,0.409c-0.046,0.812-0.093,1.627-0.138,2.404c-2.44,0.508-2.863,1.008-2.906,3.462
		c-0.033,1.858-0.007,3.718-0.007,5.719c-0.956,0-1.812,0-2.76,0C87.038,47.691,87.038,43.93,87.038,39.997z"/>
	<path d="M17.206,40.038c0.842,0,1.614,0,2.473,0c0,3.832,0,7.582,0,11.456c-0.798,0-1.566,0-2.473,0
		C17.206,47.762,17.206,43.973,17.206,40.038z"/>
	<path d="M18.953,35.205c0.328,0.603,1.01,1.29,0.891,1.788c-0.133,0.555-0.989,0.938-1.531,1.396
		c-0.456-0.546-1.232-1.07-1.27-1.645c-0.034-0.506,0.756-1.068,1.182-1.605C18.467,35.162,18.709,35.184,18.953,35.205z"/>
	<path fill="#FFFFFF" d="M44.793,45.692c-0.12,0.887-0.126,1.818-0.407,2.655c-0.152,0.451-0.74,0.963-1.196,1.035
		c-0.327,0.053-1.071-0.56-1.097-0.912c-0.131-1.778-0.148-3.573-0.052-5.355c0.019-0.342,0.746-0.933,1.098-0.898
		c0.456,0.043,1.083,0.514,1.245,0.948C44.674,43.94,44.67,44.824,44.793,45.692z"/>
	<path fill="#FFFFFF" d="M82.267,45.783c-0.165,0.909-0.21,1.833-0.528,2.647c-0.177,0.451-0.808,0.993-1.241,1
		c-0.43,0.007-1.217-0.58-1.247-0.954c-0.14-1.762-0.146-3.546-0.02-5.311c0.025-0.361,0.805-0.926,1.241-0.931
		c0.435-0.005,1.093,0.492,1.265,0.923C82.061,43.97,82.104,44.893,82.267,45.783z"/>
	<path fill="#FFFFFF" d="M60.02,44.38c-1.024,0-1.858,0-2.756,0c-0.018-1.123,0.01-2.333,1.293-2.388
		C59.925,41.934,59.844,43.246,60.02,44.38z"/>
</g>
</svg>
