<?xml version="1.0" encoding="utf-8"?>
<!-- Generator: Adobe Illustrator 16.0.0, SVG Export Plug-In . SVG Version: 6.00 Build 0)  -->
<!DOCTYPE svg PUBLIC "-//W3C//DTD SVG 1.1//EN" "http://www.w3.org/Graphics/SVG/1.1/DTD/svg11.dtd">
<svg version="1.1" id="Layer_2" xmlns="http://www.w3.org/2000/svg" xmlns:xlink="http://www.w3.org/1999/xlink" x="0px" y="0px"
	 width="513px" height="150px" viewBox="0 0 513 150" enable-background="new 0 0 513 150" xml:space="preserve">
<g>
	<path d="M144.44,65.379c0.384-2.349,0.384-2.349,2.4-3.211c1.235,1.293,2.52,2.634,3.857,4.035c0.097-0.18,0.236-0.354,0.285-0.551
		c0.397-1.602,0.611-3.269,1.2-4.793c0.878-2.275,1.603-4.644,3.232-6.581c0.928-1.103,1.929-1.903,3.41-2.047
		c0.906-0.085,1.798-0.344,2.703-0.442c2.047-0.22,2.483,0.09,3.018,2.109c0.16,0.604,0.33,1.243,0.29,1.854
		c-0.174,2.716,0.478,5.338,0.825,7.994c0.369,2.834,1.137,5.564,2.347,8.264c0.151-1.049,0.432-2.1,0.425-3.147
		c-0.023-3.687,0.808-7.267,1.256-10.892c0.167-1.357,0.262-2.727,0.389-4.087c0.091-0.996,0.689-1.556,1.617-1.738
		c1.498-0.297,3.005-0.543,4.513-0.802c1.799-0.307,2.598,0.064,3.494,1.625c0.19,0.33,0.326,0.689,0.545,1.165
		c0.612-0.439,1.098-0.824,1.614-1.155c2.095-1.333,3.581-0.663,4.519,0.936c1.82,3.104,3.786,6.129,4.818,9.628
		c0.176,0.587,0.432,1.151,0.701,1.864c0.788-0.492,0.792-1.236,0.948-1.833c0.802-3.09,1.407-6.236,2.371-9.271
		c0.655-2.069,1.681-2.894,3.706-2.088c0.676,0.27,1.554,0.026,2.341,0.018c0.842-0.01,1.707-0.152,2.519,0
		c2.009,0.373,2.45,1.042,2.246,3.105c-0.05,0.507-0.173,1.015-0.321,1.504c-1.32,4.369-2.599,8.754-4.005,13.095
		c-0.721,2.221-1.854,4.317-2.486,6.562c-1.384,4.905-3.137,9.664-5.048,14.379c-0.621,1.53-1.056,3.141-1.5,4.734
		c-1.805,6.51-4.124,12.837-6.767,19.047c-0.751,1.771-1.479,2.17-3.361,1.685c-1.657-0.426-3.282-0.979-4.907-1.511
		c-0.372-0.124-0.724-0.353-1.034-0.593c-0.93-0.729-1.037-1.312-0.456-2.377c1.393-2.56,2.813-5.102,4.183-7.674
		c0.481-0.902,0.844-1.869,1.269-2.805c0.943-2.071,2.019-4.099,2.808-6.228c1.585-4.286,2.682-8.676,2.819-13.311
		c0.091-3.029-3.582-6.254-6.48-6.033c-1.439,0.11-2.784,0.936-2.748,2.76c0.06,3.141-0.015,6.283-0.153,9.423
		c-0.085,1.931-0.305,3.866-0.624,5.774c-0.391,2.336-1.398,3.184-3.731,3.116c-1.823-0.05-3.646-0.279-5.455-0.521
		c-0.894-0.119-1.496-0.671-1.839-1.587c-0.803-2.133-1.747-4.214-2.547-6.348c-0.479-1.275-0.731-2.634-1.204-3.911
		c-0.586-1.584-1.298-3.12-2.069-4.643c-0.42,1.845,0.121,3.604,0.277,5.386c0.254,2.901,0.583,5.797,0.855,8.697
		c0.077,0.821-0.02,1.6-0.83,2.103c-0.667,0.414-1.311,0.621-2.083,0.23c-1.146-0.585-2.234-0.911-3.533-0.085
		c-0.484,0.31-1.565-0.054-2.241-0.383c-0.894-0.434-0.894-1.542-0.157-2.534c0.585-0.792,1.81-1.075,2.84-0.872
		c0.749,0.148,1.552,0.027,2.564,0.027c0-0.625,0.047-1.17-0.008-1.704c-0.38-3.75-0.791-7.489-1.166-11.237
		c-0.074-0.74-0.063-1.488-0.042-2.228c0.032-1.175,0.407-2.236,1.125-3.179c0.984-1.29,1.827-1.368,2.927-0.138
		c0.604,0.676,1.214,1.424,1.541,2.252c1.334,3.389,3.017,6.637,3.877,10.224c0.367,1.53,1.409,2.887,1.836,4.415
		c0.548,1.959,1.493,3.104,3.663,2.9c0.322-0.028,0.662,0.179,1,0.218c0.995,0.108,1.427-0.176,1.494-1.159
		c0.192-2.788,0.313-5.586,0.473-8.375c0.194-3.421,0.367-6.842,0.605-10.259c0.323-4.618,0.69-9.228,1.059-13.841
		c0.109-1.367,0.332-2.725,0.422-4.092c0.115-1.713-0.421-2.108-1.992-1.568c-0.271,0.093-0.528,0.271-0.801,0.296
		c-1.028,0.101-1.235,0.745-1.324,1.653c-0.493,5.06-1.027,10.116-1.573,15.171c-0.129,1.19-0.333,2.375-0.558,3.55
		c-0.083,0.436-0.273,0.878-0.515,1.252c-0.577,0.894-1.364,1.729-2.461,1.606c-1.042-0.118-1.407-1.174-1.814-2.069
		c-1.863-4.091-2.754-8.411-3.303-12.848c-0.287-2.317-0.827-4.598-0.776-6.954c0.007-0.382-0.141-0.769-0.214-1.128
		c-2.638-0.448-4.062,0.156-5.057,2.401c-0.923,2.081-1.682,4.239-2.411,6.398c-0.228,0.681-0.166,1.471-0.153,2.21
		c0.018,1.17-0.332,2.119-1.366,2.758c-0.185,0.114-0.331,0.294-0.522,0.474c0.357,1.58,0.682,3.141,1.064,4.688
		c0.958,3.872,1.273,7.79,0.635,11.729c-0.382,2.373-1.095,4.628-2.683,6.578c-1.357,1.66-3.009,2.751-4.998,3.409
		c-0.973,0.323-1.971,0.571-2.949,0.888c-2.478,0.803-4.858,0.335-7.169-0.607c-1.851-0.755-3.662-1.602-5-3.196
		c-0.258-0.31-0.743-0.427-1.229-0.688c-0.621,1.263-1.297,2.328-1.684,3.493c-0.957,2.884-2.556,5.32-4.609,7.524
		c-2.271,2.438-4.756,4.61-7.592,6.357c-0.622,0.384-1.335,0.668-2.045,0.845c-1.271,0.309-2.563,0.54-3.857,0.727
		c-3.107,0.441-6.412-2.31-6.325-5.224c0.054-1.846,1.863-3.916,3.652-4.181c1.349-0.199,2.354,0.359,2.794,1.661
		c0.285,0.844,0.441,1.733,0.662,2.63c2.424-1.251,5.48-5.632,6.32-9.075c-0.649-0.142-1.291-0.323-1.945-0.414
		c-0.562-0.077-1.143-0.023-1.711-0.079c-1.422-0.146-1.856-0.479-1.939-1.888c-0.142-2.393-0.163-4.798-0.199-7.199
		c-0.03-1.885,0.054-3.774-0.026-5.656c-0.04-0.99-0.323-1.965-0.693-2.889c-0.393,1.475-0.672,2.99-1.221,4.406
		c-0.381,0.982-1.03,1.912-1.74,2.699c-0.986,1.098-2.07,1.031-3.125,0.014c-1.114-1.077-2.147-2.182-2.549-3.771
		c-0.16-0.637-0.645-1.185-1.198-2.149c-0.278,0.883-0.565,1.417-0.598,1.968c-0.087,1.479-0.049,2.969-0.09,4.453
		c-0.067,2.452,0.03,4.93-0.289,7.348c-0.345,2.617-1.176,3.022-3.539,2.872c-1.249-0.08-2.504-0.076-3.751-0.18
		c-1.626-0.134-2.279-0.792-2.615-2.401c-0.591-2.828-0.544-5.68-0.386-8.539c0.101-1.823,0.169-3.65,0.036-5.544
		c-0.169,0.36-0.358,0.711-0.503,1.081c-1.147,2.918-2.385,5.805-3.404,8.768c-1.205,3.504-2.214,7.075-3.318,10.61
		c-1.034,3.324-2.073,6.642-3.127,9.955c-0.154,0.485-0.393,0.947-0.614,1.41c-0.287,0.604-0.83,0.843-1.424,0.683
		c-1.586-0.439-3.158-0.939-4.724-1.454c-0.536-0.177-1.026-0.485-1.546-0.708c-1.157-0.503-1.442-1.048-1.097-2.289
		c0.182-0.658,0.458-1.292,0.672-1.939c1.165-3.517,2.299-7.046,3.494-10.551c1.036-3.04,1.625-6.176,2.139-9.333
		c0.027-0.167,0.032-0.345,0.006-0.509c-0.104-0.682-0.157-1.46-0.966-1.654c-0.774-0.186-1.089,0.523-1.406,1.041
		c-1.443,2.346-3.022,4.602-5.151,6.359c-3.009,2.484-6.232,4.735-10.144,5.476c-3.903,0.741-7.729,0.147-11.313-1.623
		c-1.417-0.698-2.867-1.319-3.958-2.616c-1.936-2.303-2.439-4.914-1.719-7.693c0.728-2.816,1.755-5.559,3.393-8.014
		c0.472-0.705,1.02-1.36,1.648-2.195c-0.313-0.443-0.64-0.959-1.019-1.434c-2.994-3.762-3.958-8.045-3.132-12.719
		c0.578-3.281,2.187-6.003,5.106-7.76c2.367-1.422,5.012-1.952,7.74-1.775c1.753,0.113,3.517,0.412,5.224,0.833
		c1.839,0.454,3.417,1.524,4.956,2.609c0.508,0.358,1.019,0.713,1.563,1.095c0.91-1.494,1.733-2.923,2.635-4.298
		c0.434-0.663,0.97-1.278,1.545-1.823c1.138-1.079,2.172-1.122,3.292,0.019c0.825,0.841,1.621,1.813,2.098,2.874
		c1.496,3.33,2.81,6.742,4.251,10.096c0.396,0.92,0.998,1.755,1.69,2.942c0.635-0.906,1.165-1.484,1.489-2.16
		c1.292-2.674,2.457-5.406,3.787-8.06c0.814-1.625,1.777-3.188,2.792-4.697c0.767-1.14,1.053-1.083,2.323-0.744
		c1.032,0.276,2.108,0.424,3.175,0.525c1.945,0.183,2.497,0.721,2.079,2.644c-0.421,1.944-1.027,3.858-1.677,5.741
		c-0.708,2.05-1.566,4.05-2.346,6.075c-0.143,0.369-0.391,0.795-0.314,1.132c0.335,1.468-0.278,2.809-0.398,4.208
		c-0.278,3.236-0.353,6.489-0.511,9.731c-0.101,2.055-0.18,4.111-0.304,6.158c-0.12,2.008-0.077,3.995,0.367,5.969
		c0.179,0.799,0.554,1.215,1.383,1.201c0.735-0.011,1.471,0,2.35,0c0.093-0.547,0.24-1.034,0.249-1.521
		c0.037-2.17,0.076-4.343,0.036-6.513c-0.062-3.284,0.517-6.354,2.57-9.037c0.967-1.264,1.526-1.332,2.738-0.214
		c1.213,1.121,1.885,2.564,2.513,4.041c0.651,1.532,0.647,1.535,1.492,2.24c0.593-0.582,0.959-1.305,0.938-2.11
		c-0.035-1.343,0.6-2.427,1.171-3.536c0.428-0.833,1.118-1.447,2.061-1.698c1.67-0.44,2.635,0.024,3.16,1.693
		c0.972,3.103,1.046,6.308,0.792,9.513c-0.177,2.236-0.068,4.43,0.421,6.768c1.219,0,2.448,0,3.805,0
		c0.525-1.414,1.119-2.892,1.61-4.404c0.227-0.692,0.354-1.455,0.358-2.184c0.033-7.367,0.077-14.736,0.008-22.1
		c-0.019-2.148,0.091-4.368-0.945-6.383c-0.273-0.533-0.64-1.015-1.007-1.59c-1.942,1.286-2.891,3.087-3.958,4.832
		c-1.96,3.206-3.903,6.442-6.132,9.459c-1.702,2.303-4.657,2.085-6.49-1.139c-0.583-1.024-0.88-2.221-1.224-3.364
		c-0.648-2.158-0.76-4.515-2.479-6.259c-0.306-0.309-0.431-0.794-0.687-1.296c0.335-0.619,0.639-1.297,1.046-1.905
		c0.586-0.875,1.356-0.967,1.915-0.126c0.874,1.312,1.842,2.572,2.135,4.227c0.329,1.853,0.807,3.686,1.384,5.475
		c0.303,0.939,0.649,2.151,1.794,2.336c1.061,0.174,1.499-0.96,1.967-1.673c1.566-2.381,3.049-4.824,4.501-7.277
		c1.224-2.069,2.358-4.169,4.358-5.655c1.885-1.401,3.962-1.087,5.019,1.032c0.887,1.779,1.651,3.621,1.677,5.705
		c0.033,2.797,0.211,5.592,0.341,8.388c0.025,0.559,0.114,1.113,0.183,1.751c0.807-0.058,1.195-0.24,1.443-1.013
		c0.673-2.109,1.55-4.155,2.255-6.257c0.562-1.673,1.073-3.377,1.452-5.1c0.446-2.025,1.047-3.979,2.192-5.712
		c1.236-1.869,2.735-3.598,4.673-4.673c2.507-1.392,5.278-1.622,7.887-0.178c1.654,0.917,2.805,2.523,3.167,4.309
		c0.461,2.277,0.546,4.662-0.793,6.815c-0.686,1.105-1.515,1.969-2.8,2.378c-1.615,0.515-3.072,0.053-3.985-1.379
		c-0.391-0.616-0.621-1.391-1.579-1.455c-1.273,0.663-1.596,1.972-1.924,3.21c-0.586,2.201-1.15,4.417-1.552,6.654
		c-0.523,2.919-0.846,5.869-1.319,8.795c-0.289,1.799-0.437,3.68-1.104,5.34c-1.503,3.738,0.962,9.049,4.353,10.446
		c0.576,0.239,1.111,0.571,1.679,0.827c2.777,1.242,5.355,0.295,7.931-0.725c2.817-1.109,4.178-3.305,4.825-6.157
		c0.658-2.911,0.439-5.813,0.011-8.685c-0.38-2.532-1.065-5.025-1.69-7.516c-0.416-1.657-1.508-2.937-2.692-4.101
		C145.799,66.053,145.138,65.8,144.44,65.379z M48.196,76.467c-0.317,0.764-0.444,1.554-0.889,2.068
		c-1.897,2.192-2.834,4.754-3.281,7.566c-0.354,2.227,0.476,3.841,2.296,5.085c1.68,1.149,3.515,1.935,5.486,2.302
		c2.29,0.424,4.662,0.957,6.926,0.098c2.009-0.764,3.957-1.746,5.815-2.834c1.312-0.768,2.625-1.705,3.587-2.859
		c1.563-1.875,2.827-4,4.243-6.001c0.905-1.278,1.143-2.696,1.106-4.223c-0.059-2.466-1.758-4.271-4.204-4.13
		c-3.143,0.186-6.137-0.368-9.066-1.41c-1.453-0.52-2.969-0.992-3.833-2.409c-0.307-0.503-0.533-1.138-0.538-1.711
		c-0.003-0.432,0.315-1.08,0.663-1.229c0.32-0.136,0.909,0.203,1.312,0.441c0.919,0.545,1.735,1.312,2.707,1.711
		c1.363,0.56,2.811,0.953,4.257,1.26c2.666,0.565,5.098-1.523,4.802-4.102c-0.096-0.838-0.295-1.726-0.695-2.454
		c-1.404-2.558-3.089-4.846-5.552-6.591c-3.455-2.447-7.165-3.455-11.314-2.751c-5.645,0.955-8.04,4.649-7.561,9.989
		c0.424,4.732,2.861,8.357,7.507,10.163c0.265,0.102,0.522,0.234,0.769,0.379c1.701,0.996,3.473,1.66,5.583,1.132
		c0.325,0.666,0.744,1.246,0.886,1.883c0.26,1.162-0.816,2.375-1.792,2.092c-1.31-0.383-2.613-0.795-3.885-1.285
		C51.732,77.955,49.967,77.189,48.196,76.467z M75.94,79.756c0.869,0.57,1.489,0.842,1.925,1.29c1.396,1.438,1.525,3.323,1.277,5.11
		c-0.753,5.451-2.579,10.632-4.342,15.814c-0.532,1.562-1.104,3.116-1.65,4.673c-0.3,0.859-0.011,1.457,0.85,1.743
		c0.735,0.249,1.479,0.477,2.263,0.723c0.187-0.421,0.321-0.668,0.411-0.929c0.937-2.754,1.889-5.502,2.792-8.267
		c0.585-1.782,1.089-3.592,1.643-5.383c0.861-2.777,1.586-5.609,2.639-8.312c1.342-3.449,2.688-6.887,3.802-10.428
		c1.987-6.309,4.188-12.551,6.286-18.827c0.336-1.005,0.602-2.036,0.895-3.039c-2.914-1.056-3.206-0.939-4.366,1.621
		c-0.071,0.156-0.143,0.312-0.214,0.467c-1.303,2.855-2.558,5.735-3.931,8.555c-0.569,1.171-1.283,2.31-2.121,3.3
		c-1.801,2.135-2.996,1.976-4.444-0.424c-0.999-1.658-1.799-3.385-2.464-5.221c-0.987-2.725-2.275-5.342-3.532-7.96
		c-0.318-0.662-0.673-1.497-1.869-1.619c-0.968,1.746-1.971,3.55-3.079,5.545c3.266,3.379,3.457,7.572,2.656,12.016
		C75.957,72.089,76.786,75.673,75.94,79.756z M179.562,112.315c0.981,0.332,1.725,0.593,2.478,0.831
		c0.562,0.176,1.021,0.015,1.296-0.531c0.23-0.455,0.474-0.91,0.654-1.392c0.826-2.189,1.647-4.382,2.439-6.584
		c0.91-2.526,1.8-5.051,2.675-7.586c1.118-3.236,2.214-6.476,3.32-9.716c1.217-3.562,2.425-7.129,3.656-10.691
		c0.486-1.401,1.018-2.784,1.555-4.163c0.412-1.063,0.95-2.085,1.285-3.172c1.055-3.437,2.048-6.891,3.05-10.344
		c0.344-1.188,0.647-2.385,1.029-3.795c-1.835-0.344-3.351,0.402-5.037,0.172c-0.627,2.29-1.241,4.473-1.818,6.666
		c-0.365,1.377-0.653,2.774-1.018,4.152c-0.291,1.093-0.99,1.915-1.899,2.563c-1.447,1.026-3.077,0.587-3.805-1.009
		c-0.379-0.829-0.967-1.618-1.116-2.485c-0.575-3.318-2.589-5.926-4.139-8.76c-0.581-1.065-1.11-1.113-1.998-0.221
		c-0.56,0.567-0.915,1.413-1.562,1.792c-1.01,0.588-1.208,1.415-1.254,2.416c-0.105,2.17-0.206,4.337-0.341,6.504
		c-0.079,1.251-0.281,2.5-0.325,3.752c-0.062,1.786,0.162,1.946,1.908,2.069c1.02,0.075,2.079,0.127,3.038,0.443
		c4.7,1.559,6.947,4.258,6.748,9.045c-0.015,0.343-0.03,0.688-0.038,1.029c-0.077,3.879-1.124,7.594-2.43,11.166
		c-1.422,3.89-3.35,7.597-5.115,11.356c-0.748,1.601-1.652,3.128-2.461,4.696C180.075,111.016,179.887,111.55,179.562,112.315z"/>
	<path d="M365.524,85.175c-0.688-0.292-1.252-0.536-1.955-0.829c-0.517,0.707-0.979,1.408-1.506,2.059
		c-1.733,2.119-3.89,3.379-6.717,2.957c-2.446-0.365-4.291-1.521-4.867-4.137c-0.125-0.557-0.218-1.146-0.472-1.643
		c-1.339-2.621-1.566-5.48-1.856-8.318c-0.213-2.104-0.367-4.214-0.438-6.328c-0.098-2.774,0.205-5.474,1.803-7.886
		c1.403-2.117,3.381-2.527,5.397-0.979c1.914,1.466,3.186,3.415,3.868,5.718c0.406,1.367,0.703,2.768,1.07,4.147
		c0.083,0.319,0.252,0.613,0.415,0.997c1.16-0.288,2.246-0.56,3.397-0.846c0.03-0.389,0.127-0.73,0.069-1.042
		c-0.331-1.738-0.557-3.515-1.087-5.193c-2.095-6.622-5.988-10.106-12.564-10.563c-2.74-0.19-4.785,1.307-6.19,3.602
		c-0.594,0.968-1.013,2.042-1.527,3.061c-0.148,0.294-0.296,0.639-0.545,0.827c-0.484,0.366-1.028,0.843-1.701,0.451
		c-0.691-0.405-0.562-1.075-0.354-1.683c1.673-4.885,5.299-8.797,10.896-8.979c1.82-0.057,3.783,0.469,5.483,1.199
		c5.375,2.311,8.5,6.522,9.562,12.259c0.396,2.129,0.762,4.27,1.037,6.417c0.18,1.384-0.337,1.989-1.705,2.298
		c-1.998,0.453-4.003,0.894-6.005,1.319c-1.065,0.226-1.442,0.019-1.734-1.083c-0.264-0.994-0.391-2.018-0.594-3.025
		c-0.406-2.024-0.906-4.019-2.034-5.789c-0.588-0.917-1.229-1.776-2.415-2.157c-0.972,0.869-1.358,2.014-1.39,3.209
		c-0.057,2.509-0.007,5.02,0.049,7.529c0.091,4.048,1.092,7.896,2.559,11.654c0.505,1.292,1.314,2.168,2.698,2.313
		c1.468,0.155,2.714-0.282,3.43-1.722c0.249-0.503,0.543-0.984,0.927-1.671c-0.543-0.246-0.96-0.495-1.41-0.632
		c-0.844-0.247-1.723-0.382-2.56-0.651c-0.741-0.234-1.233-1.294-0.999-1.944c0.334-0.933,1.399-1.59,2.27-1.306
		c1.463,0.475,2.916,0.996,4.355,1.545c2.344,0.893,4.668,1.828,7.01,2.729c1.064,0.409,2.151,0.762,3.223,1.154
		c1.051,0.384,1.584,1.006,1.456,1.649c-0.164,0.788-1.372,1.392-2.386,1.161c-0.444-0.103-0.869-0.281-1.307-0.414
		c-0.383-0.114-0.771-0.213-1.246-0.34c-0.192,0.322-0.425,0.639-0.581,0.986c-0.815,1.819-1.615,3.648-2.416,5.477
		c-0.288,0.67-0.745,1.379,0.323,1.885c0.843-0.812,1.809-0.87,2.937-0.662c1.782,0.324,3.604,0.445,5.406,0.666
		c0.913,0.11,1.15-0.591,1.441-1.2c0.706-1.495,1.388-2.997,2.082-4.497c0.097-0.207,0.207-0.406,0.313-0.607
		c0.425-0.807,1.059-1.504,1.979-1.381c1.021,0.131,1.404,1.037,1.588,1.996c0.971,5.085,3.263,9.727,4.98,14.558
		c0.032,0.099,0.146,0.166,0.384,0.422c1.344-0.785,2.733-1.597,3.968-2.315c-1.659-3.87-3.355-7.545-4.807-11.318
		c-1.203-3.135-2.022-6.41-3.179-9.568c-0.893-2.449-1.714-4.961-3.596-6.938c-0.839-0.881-0.729-1.666,0.179-2.53
		c1.281-1.219,2.644-2.353,3.908-3.588c2.042-1.998,3.347-4.521,4.321-7.125c0.791-2.122,0.057-2.997-1.52-3.821
		c-2.937-1.532-6.002-2.489-9.342-2.394c-1.583,0.045-3.166,0.103-4.885,0.159c0.077,1.66,0.145,3.127,0.21,4.594
		c0.093,2.11,0.25,4.22,0.25,6.333c0.001,1.244-0.255,2.485-0.376,3.732c-0.266,2.729-0.521,5.457-0.773,8.187
		c-0.126,1.301-0.446,1.653-1.607,1.806c-0.62,0.08-1.02-0.137-1.134-0.742c-0.096-0.497-0.184-1.017-0.147-1.517
		c0.174-2.221,0.269-4.455,0.611-6.65c0.593-3.765,0.474-7.516,0.057-11.271c-0.168-1.52-0.459-3.03-0.748-4.532
		c-0.263-1.331,0.464-2.404,1.85-2.482c2.62-0.152,5.246-0.352,7.87-0.334c3.736,0.022,7.203,1.145,10.339,3.163
		c2.718,1.748,3.313,3.298,2.103,6.438c-1.161,3.015-2.725,5.917-5.253,8.114c-0.995,0.86-1.978,1.724-2.883,2.512
		c0.857,1.915,1.576,3.45,2.235,5.013c0.463,1.1,0.853,2.232,1.266,3.353c0.512,1.392,1.027,2.782,1.519,4.177
		c0.322,0.913,0.661,1.822,0.896,2.762c0.871,3.465,2.58,6.582,4.024,9.807c0.654,1.463,1.441,2.792,2.904,3.703
		c1.294,0.803,1.042,1.803-0.397,2.44c-2.184,0.975-4.383,1.892-6.437,3.166c-2.962,1.839-3.617,1.574-4.854-1.677
		c-1.234-3.244-2.365-6.529-3.551-9.793c-0.186-0.521-0.405-1.032-0.775-1.967c-0.485,1.154-0.873,1.897-1.117,2.682
		c-0.611,1.959-1.714,2.639-3.679,2.246c-1.395-0.28-2.805-0.484-4.208-0.718c-0.111-0.021-0.231-0.022-0.341-0.031
		c-2.383-0.259-3.588-0.666-5.472-1.92c-0.528,0.665-1.09,1.348-1.627,2.045c-2.221,2.898-4.948,4.901-8.773,4.895
		c-2.329-0.005-4.537-0.641-6.488-1.885c-1.433-0.915-2.682-2.107-4.01-3.186c-0.43-0.347-0.832-0.727-1.479-1.295
		c-0.065,0.753-0.155,1.235-0.138,1.711c0.025,0.569,0.134,1.134,0.212,1.699c0.413,2.994-0.021,3.644-3.05,4.088
		c-2.823,0.414-5.656,0.711-8.489,1.024c-1.345,0.146-1.712-0.19-1.843-1.59c-0.206-2.273-0.328-4.559-0.593-6.821
		c-0.3-2.546-0.714-5.081-1.101-7.614c-0.066-0.438-0.23-0.86-0.625-1.307c-0.078,0.404-0.214,0.808-0.23,1.215
		c-0.063,1.713-0.076,3.43-0.134,5.142c-0.022,0.571-0.091,1.145-0.207,1.701c-0.312,1.503-0.828,1.951-2.314,2
		c-1.934,0.068-3.87,0.111-5.805,0.141c-1.305,0.021-1.692-0.279-2.112-1.537c-0.152-0.468-0.281-0.942-0.675-1.394
		c-0.075,0.355-0.132,0.714-0.229,1.061c-0.333,1.19-1.001,1.771-2.225,1.722c-2.168-0.088-4.329-0.278-6.497-0.409
		c-0.735-0.047-1.474-0.113-2.204-0.07c-1.707,0.101-2.412-0.259-2.918-1.941c-0.577-1.916-1.047-3.861-1.449-5.82
		c-1.427-6.996-2.806-14.002-4.203-21.003c-0.811-4.085-1.602-8.174-2.466-12.247c-0.121-0.565-0.538-1.111-0.94-1.56
		c-1.029-1.155-1.166-1.996-0.373-3.005c0.685-0.869,1.755-1.026,2.903-0.5c0.45,0.206,0.964,0.395,1.449,0.39
		c1.763-0.017,3.522-0.121,5.287-0.188c0.285-0.013,0.571-0.034,0.854-0.026c2.035,0.058,2.427,0.555,2.56,2.561
		c0.162,2.498,0.483,4.984,0.752,7.475c0.32,2.952,0.653,5.902,0.992,8.856c0.071,0.604,0.181,1.207,0.586,1.825
		c0.309-1.24,0.688-2.466,0.911-3.717c0.654-3.654,1.246-7.324,1.868-10.984c0.237-1.404,0.486-2.806,0.747-4.205
		c0.333-1.759,1.278-2.314,3.06-1.982c2.239,0.418,4.502,0.737,6.752,1.106c0.335,0.055,0.673,0.139,0.996,0.249
		c1.14,0.388,1.348,0.665,1.287,1.875c-0.053,1.068-0.172,2.13-0.298,3.62c1.473-1.125,2.609-2.026,3.779-2.876
		c0.875-0.635,1.745-1.302,2.701-1.781c2.523-1.26,5.901-0.345,7.301,2.143c0.794,1.411,1.354,3.042,1.635,4.645
		c0.854,4.833,1.629,9.689,2.226,14.564c0.532,4.363,0.845,8.754,1.132,13.143c0.117,1.813,0.82,3.346,1.944,4.602
		c1.744,1.951,3.619,3.806,5.602,5.513c1.939,1.67,4.345,2.153,6.888,1.959c2.014-0.153,3.414-1.415,4.494-2.856
		c2.306-3.076,4.151-6.434,5.165-10.186C365.449,85.813,365.461,85.589,365.524,85.175z M322.945,93.969
		c0.113-0.665,0.262-1.256,0.308-1.859c0.192-2.618,0.258-5.245,0.578-7.842c0.116-0.945,0.653-1.961,1.281-2.707
		c1.149-1.357,2.477-1.111,3.471,0.402c1.065,1.619,1.537,3.447,1.811,5.307c0.614,4.232,1.145,8.478,1.696,12.719
		c0.138,1.09,0.399,1.378,1.584,1.228c1.641-0.207,3.269-0.524,4.896-0.831c0.307-0.062,0.581-0.287,0.81-0.408
		c-0.396-5.461-0.822-10.811-1.179-16.168c-0.495-7.522-1.487-14.983-2.907-22.385c-0.295-1.558-0.685-3.141-1.328-4.584
		c-0.987-2.216-3.465-2.774-5.4-1.322c-1.59,1.19-3.296,2.32-4.595,3.788c-1.324,1.501-2.861,2.964-3.383,5.044
		c-0.165,0.664-0.273,1.343-0.448,2.002c-0.908,3.354-1.773,6.713-2.14,10.189c-0.209,1.981-0.594,3.947-0.957,5.91
		c-0.308,1.668-0.69,3.32-1.062,5.071c1.547,0.164,2.021,0.979,2.086,2.312c0.053,1.066,0.435,2.116,0.653,3.177
		c0.136,0.661,0.536,0.968,1.204,0.96C320.878,93.961,321.833,93.969,322.945,93.969z M296.107,53.532
		c0,0.567-0.061,0.967,0.01,1.345c0.503,2.749,1.024,5.496,1.559,8.239c0.91,4.711,1.811,9.424,2.754,14.124
		c0.687,3.415,1.424,6.818,2.154,10.224c0.333,1.562,0.668,3.13,1.066,4.677c0.334,1.314,0.551,1.427,1.882,1.502
		c1.364,0.074,2.729,0.227,4.096,0.248c0.763,0.019,1.526-0.16,2.25-0.242c0.271-1.656,0.453-3.066,0.738-4.46
		c0.786-3.856,1.894-7.679,2.354-11.569c0.699-5.938,2.5-11.595,3.821-17.373c0.441-1.937,1.183-3.829,0.824-5.857
		c-1.533-0.797-4.334-1.099-6.02-0.642c-0.093,0.419-0.209,0.859-0.287,1.303c-0.811,4.435-1.588,8.875-2.431,13.3
		c-0.45,2.358-0.989,4.698-1.539,7.03c-0.293,1.24-0.747,2.42-1.976,3.076c-0.858,0.46-1.313,0.347-1.827-0.515
		c-1.102-1.856-1.522-3.942-1.776-6.031c-0.613-5.045-1.111-10.102-1.674-15.151c-0.119-1.059-0.312-2.109-0.479-3.228
		C299.78,53.532,298.037,53.532,296.107,53.532z"/>
	<path d="M244.993,64.107c1.924-2.331,3.646-4.613,5.576-6.702c1.694-1.836,3.513-3.57,5.994-4.417
		c3.565-1.219,6.702-0.318,9.387,2.041c0.861,0.756,1.428,2.133,1.633,3.311c0.908,5.235,0.827,10.494-0.91,15.554
		c-1.165,3.393-2.594,6.697-4.966,9.516c-1.575,1.869-2.776,4.074-4.456,5.834c-2.231,2.332-4.745,4.402-7.188,6.525
		c-0.542,0.471-1.301,0.698-1.966,1.026c-0.971,0.479-1.884,0.939-2.488,1.971c-0.563,0.968-2.311,0.958-3.132,0.099
		c-2.67-2.799-5.454-5.5-7.938-8.457c-3.368-4.01-6.553-8.193-8.551-13.104c-2.26-5.562-3.127-11.319-2.034-17.278
		c0.646-3.517,3.781-7.192,7.188-7.33c0.882-0.033,1.826,0.061,2.653,0.349c2.125,0.743,3.972,1.905,5.337,3.801
		c1.466,2.032,3.062,3.974,4.619,5.944C244.091,63.222,244.506,63.594,244.993,64.107z"/>
	<path d="M419.935,84.455c-0.15,2.155-0.303,4.309-0.459,6.539c-0.32,0.177-0.65,0.373-0.999,0.542
		c-0.886,0.433-1.844-0.066-1.998-1.047c-0.044-0.278-0.018-0.573,0.008-0.854c0.204-2.392,0.36-4.789,0.653-7.169
		c0.155-1.259,0.68-2.417,1.771-3.216c1.352-0.994,2.286-0.783,2.965,0.768c1.252,2.875,2.438,5.779,3.697,8.657
		c0.843,1.93,1.775,3.821,2.631,5.747c0.287,0.645,0.708,0.888,1.405,1.029c2.644,0.55,5.226,0.074,7.955-0.23
		c0.063-1.271,0.217-2.512,0.17-3.744c-0.147-3.884-0.431-7.76-0.54-11.645c-0.073-2.625,0.012-5.255,0.116-7.882
		c0.161-4.109,0.423-8.212,0.595-12.32c0.077-1.697,0.148-3.404-0.219-5.208c-1.569,0.071-3.029,0.132-4.562,0.202
		c-0.101,0.458-0.255,0.832-0.258,1.207c-0.017,2.166,0.06,4.331-0.001,6.493c-0.049,1.769-0.185,3.541-0.383,5.296
		c-0.352,3.117-0.796,6.22-1.172,9.333c-0.211,1.758-0.311,3.526-0.536,5.282c-0.108,0.839-0.214,1.771-0.648,2.452
		c-1.039,1.625-3.292,1.213-4.031-0.747c-0.559-1.485-0.932-3.048-1.302-4.597c-0.535-2.221-0.882-4.487-1.496-6.682
		c-1.487-5.313-2.279-10.718-2.46-16.224c-0.021-0.618-0.097-1.239-0.159-2c-1.123-0.071-2.18-0.136-3.417-0.215
		c-0.179,0.591-0.467,1.156-0.517,1.744c-0.334,4.046-0.983,8.044-1.672,12.039c-0.097,0.586-0.314,0.973-0.843,1.155
		c-0.576,0.199-1.172,0.338-1.906,0.545c0,0.698-0.063,1.49,0.01,2.268c0.367,4.212,0.629,8.423,1.397,12.597
		c0.588,3.197,0.849,6.457,1.235,9.691c0.132,1.103-0.211,1.766-1.251,2.141c-0.795,0.284-1.659,0.489-2.496,0.522
		c-2.612,0.106-5.231,0.101-7.847,0.162c-1.803,0.042-2.157-0.282-2.302-2.146c-0.132-1.74-0.075-3.508-0.972-5.22
		c-0.124,1.026-0.272,2.048-0.359,3.077c-0.049,0.567,0.001,1.143,0.019,1.714c0.02,0.794-0.331,1.286-1.121,1.481
		c-0.497,0.121-1.021,0.242-1.456,0.498c-1.199,0.709-2.272,0.474-3.313-0.23c-0.054-1.057-0.054-1.057,1.405-3.318
		c0.332,0.146,0.666,0.292,1.098,0.482c0.18-1.58,0.327-3.039,0.515-4.496c0.242-1.834,1.11-3.213,2.917-3.898
		c1.597-0.603,2.729-0.193,3.229,1.457c0.488,1.629,0.752,3.329,1.075,5.008c0.156,0.834,0.212,1.687,0.316,2.566
		c2.494,0.845,4.906-0.383,7.432,0.229c-0.05-0.674-0.062-1.109-0.116-1.548c-0.778-6.292-1.597-12.578-2.326-18.874
		c-0.303-2.607-0.384-5.239-0.649-7.854c-0.25-2.442-0.567-4.88-0.955-7.305c-0.198-1.239-0.651-2.407-1.613-3.329
		c-1.381-1.315-3.134-1.45-4.636-0.308c-1.912,1.444-2.972,3.472-3.734,5.641c-1.349,3.82-2.409,7.746-3.876,11.518
		c-1.076,2.769-1.562,5.586-1.827,8.492c-0.039,0.428-0.166,1.035-0.459,1.208c-0.549,0.325-1.296,0.626-1.874,0.51
		c-0.736-0.148-0.574-0.995-0.566-1.61c0.042-2.942,0.725-5.765,1.668-8.531c1.455-4.266,2.88-8.548,4.4-12.793
		c0.923-2.579,2.434-4.828,4.698-6.404c4.183-2.909,8.812-1.434,10.436,3.119c1.051,2.944,1.192,6.044,1.507,9.111
		c0.033,0.336,0.054,0.676,0.302,1.053c0.129-0.651,0.267-1.302,0.397-1.955c0.142-0.724,0.331-1.443,0.424-2.172
		c0.303-2.378,0.567-4.765,0.854-7.147c0.039-0.339,0.086-0.687,0.19-1.008c0.966-2.962,2.014-2.948,4.155-2.607
		c1.066,0.172,2.156,0.284,3.234,0.283c1.699,0,2.061,0.304,2.15,2.068c0.107,2.112,0.186,4.229,0.364,6.333
		c0.369,4.341,1.253,8.583,2.509,12.757c0.381,1.253,0.6,2.555,0.908,3.831c0.104,0.431,0.258,0.844,0.687,1.268
		c0.159-1.035,0.324-2.069,0.469-3.106c0.315-2.262,0.735-4.519,0.896-6.793c0.243-3.356,0.301-6.728,0.438-10.091
		c0.055-1.37,0.064-2.744,0.174-4.109c0.127-1.545,0.792-2.037,2.352-2.052c2.055-0.018,4.112-0.038,6.156-0.205
		c2.059-0.167,2.103-0.219,3.107,1.682c0.613-0.379,1.232-0.77,1.95-0.095c0.23,0.218,0.764,0.17,1.15,0.16
		c2.515-0.067,5.028-0.119,7.535-0.247c2.967-0.151,5.927-0.424,8.895-0.537c1.242-0.048,2.512,0.092,3.736,0.318
		c1.118,0.204,1.392,0.653,1.427,1.811c0.014,0.507-0.094,1.017-0.119,1.529c-0.144,2.964-0.281,5.929-0.421,8.892
		c-0.02,0.341-0.05,0.685-0.092,1.026c-0.244,1.934-1.604,2.833-3.541,2.332c-1.433-0.372-2.853-0.79-4.299-1.11
		c-1.312-0.293-1.646-0.13-2.002,1.166c-0.252,0.922-0.361,1.911-0.363,2.869c-0.014,4.071,0.595,8.091,1.264,12.088
		c0.646,3.882,1.43,7.737,2.149,11.605c0.226,1.222-0.086,1.784-1.35,1.847c-1.182,0.06-2.396-0.075-3.559-0.298
		c-1.906-0.371-3.754-0.148-5.61,0.213c-2.089,0.404-2.938-0.312-2.868-2.363c0.182-5.427,0.766-10.815,1.511-16.188
		c0.079-0.564,0.132-1.141,0.117-1.709c-0.096-3.212,0.217-6.388,0.736-9.553c0.168-1.015,0.254-2.069-0.792-2.847
		c-2.006,0.9-4.112,1.602-5.701,3.281c-0.745,0.788-1.175,1.628-1.225,2.73c-0.264,5.891-0.191,11.764,0.337,17.645
		c0.226,2.484,0.081,5.018-0.039,7.52c-0.081,1.664-0.941,2.588-2.562,2.568c-2.68-0.039-5.357,0.536-8.038-0.074
		c-0.658-0.15-1.364-0.124-2.052-0.111c-1.127,0.024-1.821-0.532-2.227-1.533c-0.302-0.74-0.611-1.477-0.925-2.215
		c-1.179-2.783-2.351-5.568-3.549-8.344c-0.215-0.494-0.54-0.944-0.814-1.408C420.21,84.364,420.072,84.41,419.935,84.455z
		 M440.667,64.677c0.684-0.383,1.058-0.623,1.46-0.813c1.436-0.688,2.835-1.482,4.327-2.005c2.172-0.759,3.297-0.133,4.154,2.014
		c0.457,1.151,0.427,2.327,0.271,3.539c-0.28,2.208-0.536,4.421-0.724,6.637c-0.126,1.476-0.037,2.975-0.183,4.444
		c-0.373,3.635-0.854,7.256-1.222,10.893c-0.125,1.186-0.056,2.393-0.021,3.592c0.01,0.356,0.209,0.709,0.305,1.01
		c2.226,0,4.299,0,6.479,0c-0.044-0.535-0.042-0.922-0.109-1.302c-1.038-5.79-1.983-11.589-2.453-17.455
		c-0.2-2.489-0.54-4.998,0.289-7.475c0.405-1.217,1.103-2.082,2.24-2.654c1.037-0.52,2.058-0.509,3.153-0.235
		c1.304,0.323,2.607,0.809,3.966,0.557c0.436-1.363,0.771-8.84,0.397-10.081c-7.229,0.217-14.519,0.434-22.041,1.174
		C440.871,59.065,440.775,61.712,440.667,64.677z"/>
	<path d="M25.779,47.72c-1.84-1.231-2.083-3.155-2.454-4.976c-0.496-2.42-0.093-4.757,0.887-7.012
		c0.363-0.836,0.618-1.716,0.967-2.558c0.716-1.725,1.813-3.148,3.379-4.203c1.103-0.744,1.747-0.792,2.779,0.03
		c0.93,0.742,1.835,1.524,2.679,2.361c0.892,0.885,0.839,1.468-0.086,2.3c-0.339,0.304-0.7,0.59-1.082,0.839
		c-2.059,1.343-3.039,3.488-4.141,5.542c-0.292,0.545-0.573,1.116-0.745,1.707c-0.169,0.585-0.331,1.226-0.257,1.813
		C28,45.961,28.01,46.01,25.779,47.72z"/>
	<path d="M477.652,51.407c-0.057-2.024-0.344-3.996-1.99-5.425c-1.025-0.893-2.095-1.736-3.171-2.567
		c-1.727-1.331-1.639-2.626,0.08-3.576c0.931-0.514,2.019-0.743,3.042-1.082c0.485-0.161,0.994-0.259,1.482-0.416
		c2.238-0.717,2.281-0.706,3.46,1.394c1.121,1.997,1.423,4.125,1.177,6.397c-0.179,1.626-0.164,3.28-0.174,4.921
		c-0.007,1.256-0.57,2.194-1.58,2.824c-1.193,0.742-2.129,0.266-2.324-1.118C477.599,52.317,477.652,51.857,477.652,51.407z"/>
	<path d="M489.837,38.396c-0.245,2.322-0.393,4.661-0.785,6.955c-0.152,0.891-0.731,1.805-1.354,2.489
		c-0.78,0.858-1.698,0.508-1.966-0.641c-0.377-1.606-0.609-3.247-1.056-4.831c-0.686-2.433-1.081-5.042-3.396-6.665
		c-0.271-0.188-0.452-0.512-0.639-0.797c-0.63-0.954-0.469-1.724,0.5-2.289c1.733-1.016,3.651-1.265,5.606-1.176
		c0.425,0.019,1.041,0.39,1.203,0.76C488.832,34.172,489.863,36.12,489.837,38.396z"/>
	<path d="M37.433,37.897c0.482,0.199,0.993,0.244,1.168,0.51c0.79,1.196,2.091,1.727,3.129,2.591
		c0.381,0.318,0.712,0.747,0.936,1.189c0.392,0.778,0.235,1.396-0.578,1.681c-3.451,1.212-5.511,3.95-7.533,6.731
		c-0.488,0.671-0.978,1.237-1.809,1.464c-1.065,0.292-1.625,0.047-1.579-1.063c0.063-1.523,0.305-3.06,0.664-4.543
		c0.712-2.933,2.092-5.542,4.217-7.711C36.417,38.371,36.968,38.176,37.433,37.897z"/>
</g>
</svg>
