<?xml version="1.0" encoding="utf-8"?>
<!-- Generator: Adobe Illustrator 16.0.0, SVG Export Plug-In . SVG Version: 6.00 Build 0)  -->
<!DOCTYPE svg PUBLIC "-//W3C//DTD SVG 1.1//EN" "http://www.w3.org/Graphics/SVG/1.1/DTD/svg11.dtd">
<svg version="1.1" id="Layer_1" xmlns="http://www.w3.org/2000/svg" xmlns:xlink="http://www.w3.org/1999/xlink" x="0px" y="0px"
	 width="1186px" height="309px" viewBox="0 0 1186 309" enable-background="new 0 0 1186 309" xml:space="preserve">
<g>
	<path fill-rule="evenodd" clip-rule="evenodd" fill="#040103" d="M40.154,224.955c-0.053-38.444-0.106-76.89-0.157-115.334
		c-0.007-5.327-0.092-10.655,0.023-15.979c0.174-8.049,6.545-14.562,14.581-14.609c19.639-0.114,39.282,0.113,58.919-0.159
		c4.296-0.06,3.463,2.288,3.464,4.661c0.004,47.104,0.003,94.207,0.002,141.312C91.375,224.884,65.765,224.919,40.154,224.955z"/>
	<path fill-rule="evenodd" clip-rule="evenodd" fill="#D13782" d="M334.962,141.577c5.565-3.662,9.009-8.461,13.726-11.898
		c11.292-8.229,32.333-9.396,40.793,9.475c1.638,3.653,3.335,1.341,4.838-0.008c5.294-4.747,10.571-9.471,17.234-12.325
		c7.43-3.181,15.146-4.257,22.577-0.97c9.692,4.286,15.408,12.439,15.639,22.876c0.535,24.143,0.114,48.305,0.251,72.458
		c0.018,3.17-0.99,3.838-3.971,3.865c-12.105,0.11-12.104,0.214-12.104-11.652c0-15.991-0.126-31.984,0.075-47.974
		c0.059-4.689-0.448-9.336-1.21-13.833c-1.772-10.46-9.49-12.193-19.875-10.092c-6.63,1.34-11.934,5.316-16.459,10.313
		c-2.424,2.676-3.633,5.572-3.601,9.357c0.168,19.822-0.01,39.647,0.161,59.47c0.03,3.519-0.938,4.446-4.434,4.427
		c-12.65-0.069-12.65,0.067-12.65-12.618c0-16.325-0.106-32.651,0.073-48.975c0.045-4.191-0.317-8.346-1.179-12.325
		c-2.198-10.149-9.049-11.786-19.837-9.616c-6.731,1.354-12.182,5.68-16.875,10.721c-2.341,2.514-3.276,5.403-3.248,8.966
		c0.156,19.655,0.003,39.313,0.144,58.97c0.024,3.415-0.385,4.961-4.471,4.904c-12.596-0.175-12.599,0.029-12.599-12.698
		c0-27.154,0.067-54.307-0.08-81.46c-0.02-3.731,0.678-5.143,4.819-5.062c12.191,0.234,12.195,0.031,12.261,12.028
		C334.967,138.896,334.962,139.89,334.962,141.577z"/>
	<path fill-rule="evenodd" clip-rule="evenodd" fill="#040103" d="M122.987,224.847c0-21.813,0.117-43.628-0.11-65.439
		c-0.041-3.904,1.128-4.536,4.696-4.509c22.645,0.167,45.292,0.19,67.935-0.019c3.814-0.035,4.598,0.99,4.559,4.648
		c-0.236,21.808-0.196,43.618-0.248,65.426C174.209,224.918,148.598,224.882,122.987,224.847z"/>
	<path fill-rule="evenodd" clip-rule="evenodd" fill="#040103" d="M160.982,148.984c-11.485,0-22.971-0.087-34.454,0.063
		c-2.769,0.036-3.625-0.656-3.608-3.533c0.124-20.972,0.112-41.945,0.011-62.917c-0.013-2.674,0.482-3.698,3.461-3.677
		c19.64,0.141,39.282,0.002,58.923,0.109c8.054,0.044,14.566,6.52,14.623,14.554c0.122,17.31-0.029,34.622,0.108,51.932
		c0.022,2.878-0.842,3.566-3.609,3.532C184.619,148.899,172.8,148.984,160.982,148.984z"/>
	<path fill-rule="evenodd" clip-rule="evenodd" fill="#D23782" d="M535.712,209.688c-8.505,6.391-15.065,14.152-25.213,16.4
		c-21.674,4.802-39.892-7.385-40.439-29.988c-0.532-21.981-0.056-43.986-0.187-65.979c-0.019-3.208,0.794-4.21,4.123-4.222
		c12.946-0.043,12.945-0.169,12.945,12.826c0,16.162-0.074,32.325,0.055,48.487c0.03,3.792,0.212,7.735,1.254,11.34
		c2.956,10.233,10.914,13.579,21.338,12.154c10.743-1.469,18.339-8.533,25.405-16.143c1.47-1.582,0.909-3.467,0.913-5.226
		c0.041-19.662,0.111-39.324-0.054-58.983c-0.029-3.473,0.857-4.481,4.401-4.461c12.679,0.072,12.679-0.07,12.679,12.597
		c0,27.16-0.061,54.319,0.071,81.479c0.018,3.636-0.505,5.653-4.763,5.059c-3.908-0.547-8.939,1.624-11.54-0.872
		c-2.396-2.3-0.524-7.267-0.77-11.049C535.871,212.166,535.811,211.224,535.712,209.688z"/>
	<path fill-rule="evenodd" clip-rule="evenodd" fill="#D13782" d="M248.968,172.123c0-9.156-0.09-18.314,0.055-27.468
		c0.043-2.737-0.625-3.877-3.577-3.727c-4.483,0.229-8.987,0.087-13.482,0.035c-1.064-0.012-2.745,0.442-2.821-1.181
		c-0.195-4.149-0.166-8.316-0.037-12.47c0.054-1.729,1.671-1.289,2.733-1.302c4.328-0.053,8.668-0.212,12.982,0.037
		c3.201,0.185,4.321-0.744,4.225-4.104c-0.238-8.318,0.023-16.648-0.133-24.97c-0.054-2.856,0.472-4.04,3.757-4.078
		c12.302-0.145,12.3-0.286,12.3,11.961c0,5.661,0.169,11.328-0.066,16.979c-0.133,3.194,0.741,4.308,4.105,4.228
		c9.484-0.225,18.98,0.051,28.465-0.148c3.291-0.069,4.627,0.55,4.59,4.266c-0.109,10.805,0.072,10.807-10.961,10.807
		c-7.492,0-14.986,0.106-22.474-0.055c-2.75-0.06-3.747,0.655-3.722,3.583c0.136,15.315-0.248,30.64,0.196,45.944
		c0.22,7.584,1.147,15.759,9.513,19.273c6.433,2.702,13.477,2.104,19.93-0.126c4.634-1.602,6.636-0.865,6.984,3.985
		c0.047,0.654,0.235,1.299,0.359,1.948c1.547,8.101,1.593,8.319-6.244,9.96c-10.467,2.189-20.97,2.881-31.065-1.782
		c-10.465-4.832-14.867-13.772-15.479-24.631c-0.505-8.962-0.103-17.974-0.103-26.964
		C248.988,172.123,248.978,172.123,248.968,172.123z"/>
	<path fill-rule="evenodd" clip-rule="evenodd" fill="#D03982" d="M606.159,160.916c7.049-10.729,13.949-20.928,20.472-31.362
		c1.771-2.834,3.7-3.756,6.816-3.622c4.484,0.193,8.982,0.049,13.456,0.049c0.55,1.659-0.448,2.551-1.2,3.622
		c-9.482,13.501-18.949,27.013-28.358,40.565c-1.714,2.471-2.46,4.723-0.347,7.903c9.577,14.413,18.779,29.075,28.103,43.658
		c0.521,0.814,0.906,1.714,1.703,3.244c-5.88,0-11.26-0.071-16.637,0.033c-2.352,0.046-3.016-1.667-4.002-3.174
		c-7.097-10.853-14.205-21.698-21.697-33.137c-4.059,6.479-7.952,12.612-11.762,18.797c-3.012,4.89-5.903,9.853-8.887,14.759
		c-1.086,1.785-2.483,2.868-4.849,2.782c-4.987-0.181-9.986-0.055-15.854-0.055c5.085-7.728,9.824-14.996,14.633-22.22
		c5.357-8.051,10.675-16.132,16.231-24.045c1.702-2.424,1.529-4.113-0.027-6.5c-9.861-15.116-19.565-30.337-29.773-46.226
		c6.204,0,11.769,0.038,17.331-0.02c1.996-0.021,2.748,1.178,3.704,2.695c5.798,9.196,11.745,18.298,17.656,27.423
		C603.839,157.581,604.872,159.031,606.159,160.916z"/>
	<path fill-rule="evenodd" clip-rule="evenodd" fill="#D23682" d="M122.987,224.847c25.61,0.035,51.222,0.071,76.832,0.107
		c-0.104,7.336-6.082,13.95-13.212,13.965c-44.414,0.09-88.827,0.08-133.24,0.01c-7.039-0.011-12.988-6.539-13.213-13.975
		c25.611-0.035,51.222-0.07,76.833-0.107C118.987,224.847,120.987,224.847,122.987,224.847z"/>
</g>
</svg>
