<?xml version="1.0" encoding="utf-8"?>
<!-- Generator: Adobe Illustrator 16.0.0, SVG Export Plug-In . SVG Version: 6.00 Build 0)  -->
<!DOCTYPE svg PUBLIC "-//W3C//DTD SVG 1.1//EN" "http://www.w3.org/Graphics/SVG/1.1/DTD/svg11.dtd">
<svg version="1.1" id="Layer_1" xmlns="http://www.w3.org/2000/svg" xmlns:xlink="http://www.w3.org/1999/xlink" x="0px" y="0px"
	 width="1186px" height="309px" viewBox="0 0 1186 309" enable-background="new 0 0 1186 309" xml:space="preserve">
<g>
	<path fill="#010101" d="M43.133,156.727c0-0.329,0-0.659,0-0.989c0.875-0.013,1.185-0.798,1.676-1.286
		c8.348-8.312,16.653-16.668,25.027-24.954c1.083-1.073,1.516-2.125,1.511-3.652c-0.057-15.9-0.076-31.8,0.016-47.7
		c0.012-2.015-0.403-2.618-2.505-2.553c-5.465,0.164-9.661-4.171-9.661-9.668c0-2.718,0.284-5.474-0.061-8.148
		c-0.665-5.169,1-9.196,4.814-12.664c1.306-1.188,2.38-1.896,4.211-1.891c24.385,0.064,48.771,0.117,73.155-0.033
		c3.852-0.023,7.119,0.358,9.357,3.833c0.773,1.202,1.482,1.02,2.477,0.029c4.256-4.242,8.654-8.341,12.894-12.6
		c1.102-1.107,1.652-1.01,2.67,0.05c4.167,4.333,8.421,8.583,12.652,12.852c2.751,2.776,5.519,5.536,8.279,8.304
		c0.218,0,0.438,0,0.657-0.001c-1.716-4.837,1.598-7.268,4.237-10.023c0.113-0.119,0.219-0.248,0.314-0.381
		c1.151-1.625,2.692-2.034,4.677-2.029c24.548,0.067,49.1,0.163,73.648-0.067c4.393-0.041,7.608,0.795,9.672,4.814
		c0.688,1.339,2.11,2.188,2.067,4.033c-0.117,5.104-0.069,10.214-0.018,15.322c0.01,1.08-0.339,1.814-1.086,2.581
		c-12.705,13.025-25.35,26.109-38.101,39.091c-1.342,1.366-1.182,1.944,0.064,3.172c14.138,13.934,28.193,27.952,42.342,41.874
		c1.417,1.396,1.297,2.095-0.039,3.42c-12.341,12.241-24.613,24.553-36.9,36.85c-0.543,0.544-1.042,1.133-1.803,1.964
		c1.061,0,1.72,0.09,2.348-0.015c4.391-0.732,7.842,0.549,10.204,4.487c0.47,0.784,1.089,1.524,2.312,1.582
		c3.207,0.148,6.162,0.134,7.975-3.285c1.172-2.21,3.205-3.079,5.817-2.813c2.121,0.216,4.314,0.293,6.414-0.005
		c4.78-0.684,8.131,0.881,10.54,5.182c1.021,1.825,1.473,3.293,0.837,5.268c-1.506,4.69-2.878,9.421-4.302,14.139
		c-2.193,7.261-4.383,14.526-6.634,21.991c1.99-0.085,4.039-0.402,4.125,2.135c0.119,3.536-2.62,6.129-6.231,6.129
		c-5.849,0.002-11.702-0.134-17.545,0.057c-3.348,0.109-3.924-0.35-2.896-3.538c1.512-4.686,3.049-9.361,4.548-14.05
		c1.741-5.44,3.451-10.889,5.225-16.498c-3.634,0-7.009,0.057-10.381-0.03c-1.291-0.032-1.831,0.383-2.226,1.64
		c-2.359,7.519-4.806,15.011-7.282,22.492c-0.4,1.207-0.521,1.914,1.103,2.017c0.858,0.055,1.375,0.829,1.574,1.703
		c0.596,2.595-2.404,6.362-5.094,6.369c-5.52,0.01-11.042-0.074-16.559,0.03c-3.572,0.069-4.179-0.602-3.091-4.043
		c2.698-8.532,5.401-17.062,8.095-25.597c1.523-4.824,1.517-4.827-3.677-4.827c-0.906,0-1.82,0.077-2.716-0.018
		c-1.434-0.146-2.385,0.51-3.48,1.384c-2.819,2.244-3.901,5.318-4.868,8.587c-1.569,5.304-3.326,10.556-5.051,15.974
		c1.303-0.002,2.413-0.114,2.888,0.964c0.998,2.265-0.627,4.095-1.187,6.086c-0.401,1.428-1.737,1.291-2.882,1.291
		c-5.602,0.013-11.204,0.003-16.806,0.01c-1.06,0.003-2.382,0.46-3.123-0.012c-1.557-0.998-2.172,0.01-3.006,0.842
		c-8.33,8.331-16.659,16.659-24.988,24.99c-2.387,2.387-2.386,2.389-4.683,0.09c-13.223-13.224-26.468-26.424-39.633-39.706
		c-1.309-1.321-1.872-1.267-3.109,0.062c-5.103,5.483-10.376,10.81-15.517,16.258c-0.875,0.929-1.722,1.313-2.98,1.291
		c-3.953-0.069-7.933-0.306-11.857,0.037c-6.737,0.589-12.794-0.774-18.353-4.72c-1.363-0.969-1.957-1.771-1.952-3.449
		c0.06-19.936,0.015-39.872,0.079-59.808c0.006-1.716-0.504-2.88-1.704-4.06c-6.693-6.588-13.288-13.277-19.963-19.882
		C47.536,160.88,45.598,158.525,43.133,156.727z M153.909,69.22c-0.996,1.5-2.21,2.901-2.944,4.521
		c-1.448,3.198-3.684,4.575-7.164,3.895c-1.792-0.351-2.152,0.547-2.146,2.205c0.055,17.285,0.03,34.57,0.052,51.855
		c0,0.566-0.359,1.327,0.669,1.778c19.125-18.469,38.286-36.971,57.691-55.708c-1.692-0.266-2.854,0.07-3.894-1.082
		c-5.714-6.334-5.769-6.298-5.881-14.987c-0.014-1.122-0.211-2.03-1.058-2.872c-6.951-6.897-13.873-13.829-20.784-20.771
		c-0.667-0.669-1.082-0.963-1.929-0.126c-3.977,3.93-8.032,7.783-12.061,11.662c-0.537,0.517-1.127,1.009-0.517,1.843
		C153.932,57.361,153.921,63.291,153.909,69.22z M209.707,207.28c-4.198-0.283-5.063-1.532-3.938-5.234
		c0.284-0.937,0.709-1.843,0.889-2.796c0.401-2.118,1.697-2.734,3.711-2.685c3.704,0.089,7.441,0.32,11.109-0.047
		c4.749-0.475,8.437,0.67,11.173,4.807c1.248,1.888,6.214,1.773,7.77,0.067c1.82-1.994,3.773-3.842,5.698-5.729
		c12.994-12.744,25.792-25.688,38.703-38.519c1.038-1.033,0.893-1.54-0.056-2.488c-13.563-13.571-27.102-27.167-40.592-40.811
		c-1.14-1.152-1.708-0.958-2.705,0.084c-6.537,6.844-13.108,13.654-19.708,20.437c-18.831,19.349-37.689,38.674-56.524,58.021
		c-12.919,13.271-25.803,26.575-38.758,39.811c-1.103,1.129-0.962,1.656,0.064,2.688c12.82,12.913,25.618,25.85,38.336,38.862
		c1.424,1.457,2.116,1.238,3.403-0.067c8.379-8.508,16.774-17.005,25.316-25.349c2.43-2.373,4.005-4.998,5.05-8.199
		C202.218,229.199,205.974,218.32,209.707,207.28z M71.189,132.403c-0.268,0.076-0.455,0.072-0.547,0.164
		c-7.575,7.554-15.12,15.138-22.736,22.65c-1.097,1.083-0.511,1.586,0.24,2.333c5.483,5.456,10.949,10.931,16.415,16.404
		c2.121,2.123,4.23,4.256,6.627,6.669C71.189,164.232,71.189,148.34,71.189,132.403z"/>
	<path fill="#D13781" d="M209.707,207.28c-3.733,11.04-7.489,21.919-11.059,32.854c-1.044,3.201-2.62,5.826-5.049,8.199
		c-8.543,8.344-16.937,16.841-25.316,25.349c-1.287,1.306-1.979,1.524-3.404,0.067c-12.718-13.013-25.515-25.949-38.335-38.862
		c-1.027-1.032-1.168-1.56-0.064-2.688c12.955-13.235,25.838-26.54,38.758-39.811c18.835-19.347,37.693-38.672,56.524-58.021
		c6.601-6.783,13.173-13.593,19.71-20.437c0.995-1.042,1.564-1.236,2.704-0.084c13.489,13.645,27.028,27.24,40.592,40.811
		c0.949,0.948,1.093,1.455,0.056,2.488c-12.91,12.83-25.708,25.774-38.704,38.519c-1.924,1.887-3.877,3.734-5.698,5.729
		c-1.554,1.706-6.521,1.82-7.77-0.067c-2.737-4.137-6.423-5.281-11.172-4.807c-3.67,0.367-7.406,0.136-11.111,0.047
		c-2.014-0.05-3.309,0.566-3.71,2.685c-0.181,0.953-0.604,1.859-0.889,2.796C204.644,205.748,205.509,206.997,209.707,207.28z
		 M188.983,190.422c3.615,0.681,7.233,0.681,10.849,0c0.798-0.273,1.385-0.837,2.008-1.381c4.516-3.931,4.688-9.679,6.087-14.864
		c0.497-1.842-2.34-3.95-4.383-3.883c-3.033,0.097-6.101,0.31-9.101-0.011c-3.262-0.348-6.312,1.056-7.374,4.112
		c-0.988,2.846-1.89,5.724-2.796,8.6c-0.348,1.103-0.586,2.232,0.284,3.245C185.884,187.79,187.056,189.506,188.983,190.422z
		 M185.72,196.739c-2.72,0-5.439-0.032-8.157,0.008c-5.862,0.087-5.314-1.059-7.04,5.306c-0.981,3.621-0.369,4.515,3.291,4.259
		c2.107-0.146,2.481,0.439,1.766,2.421c-3.078,8.527-6.027,17.102-9.03,25.656c-1.515,4.316-3.085,8.614-4.552,12.945
		c-1.107,3.265,0.105,5.431,3.079,5.455c7.003,0.06,14.007,0.008,21.009,0.032c1.281,0.005,2.373-0.388,2.792-1.589
		c0.669-1.922,1.243-3.894,1.625-5.888c0.242-1.267-0.051-2.446-1.798-2.615c-3.003-0.293-2.97-0.335-1.952-3.305
		c4.373-12.749,8.733-25.502,13.08-38.261c1.082-3.168,0.158-4.407-3.239-4.42C192.97,196.729,189.344,196.739,185.72,196.739z"/>
	<path fill="#D03681" d="M153.944,51.432c-0.611-0.834-0.02-1.326,0.516-1.843c4.029-3.879,8.083-7.732,12.061-11.662
		c0.847-0.837,1.263-0.543,1.929,0.126c6.91,6.942,13.832,13.874,20.784,20.771c0.847,0.84,1.043,1.75,1.058,2.872
		c0.113,8.689,0.168,8.653,5.88,14.987c1.041,1.152,2.203,0.816,3.895,1.082c-19.405,18.737-38.565,37.239-57.691,55.708
		c-1.029-0.451-0.669-1.211-0.67-1.778c-0.021-17.285,0.003-34.571-0.051-51.855c-0.006-1.658,0.353-2.556,2.146-2.205
		c3.479,0.681,5.715-0.697,7.164-3.895c0.734-1.619,1.947-3.021,2.944-4.521c0.71-0.67,0.438-1.544,0.443-2.336
		c0.025-3.789,0.061-7.579-0.015-11.366C154.312,54.157,154.793,52.72,153.944,51.432z"/>
	<path fill="#D03781" d="M71.189,132.403c0,15.938,0,31.83,0,48.22c-2.397-2.413-4.507-4.546-6.627-6.669
		c-5.466-5.474-10.932-10.948-16.415-16.404c-0.751-0.747-1.337-1.249-0.24-2.333c7.616-7.512,15.161-15.097,22.736-22.65
		C70.734,132.475,70.922,132.479,71.189,132.403z"/>
	<path fill="#CC5890" d="M153.944,51.432c0.849,1.288,0.367,2.725,0.394,4.084c0.075,3.788,0.041,7.577,0.014,11.366
		c-0.005,0.792,0.267,1.667-0.443,2.337C153.921,63.291,153.932,57.361,153.944,51.432z"/>
	<path fill="#010000" d="M185.72,196.739c3.625,0,7.25-0.01,10.874,0.005c3.397,0.013,4.319,1.252,3.239,4.42
		c-4.347,12.759-8.707,25.512-13.08,38.261c-1.018,2.97-1.052,3.012,1.952,3.305c1.747,0.169,2.04,1.349,1.798,2.615
		c-0.382,1.994-0.956,3.966-1.625,5.888c-0.421,1.201-1.512,1.594-2.792,1.589c-7.002-0.024-14.006,0.027-21.009-0.032
		c-2.974-0.024-4.187-2.19-3.08-5.455c1.468-4.331,3.038-8.629,4.552-12.945c3.002-8.555,5.952-17.129,9.03-25.656
		c0.715-1.981,0.341-2.567-1.766-2.421c-3.659,0.256-4.272-0.638-3.291-4.259c1.726-6.364,1.178-5.222,7.04-5.306
		C180.281,196.707,183,196.739,185.72,196.739z"/>
	<path fill="#010101" d="M188.983,190.422c-1.927-0.916-3.099-2.632-4.426-4.182c-0.869-1.013-0.631-2.143-0.283-3.245
		c0.905-2.876,1.807-5.754,2.796-8.6c1.062-3.057,4.111-4.462,7.374-4.112c3,0.32,6.066,0.107,9.101,0.011
		c2.042-0.067,4.879,2.041,4.382,3.883c-1.398,5.186-1.572,10.934-6.086,14.864c-0.625,0.544-1.209,1.107-2.008,1.381
		C196.216,190.422,192.6,190.422,188.983,190.422z"/>
	<path fill="#CC5990" d="M188.983,190.422c3.615,0,7.233,0,10.849,0C196.216,191.103,192.6,191.103,188.983,190.422z"/>
</g>
</svg>
