<?xml version="1.0" encoding="utf-8"?>
<!-- Generator: Adobe Illustrator 16.0.0, SVG Export Plug-In . SVG Version: 6.00 Build 0)  -->
<!DOCTYPE svg PUBLIC "-//W3C//DTD SVG 1.1//EN" "http://www.w3.org/Graphics/SVG/1.1/DTD/svg11.dtd">
<svg version="1.1" id="Layer_2" xmlns="http://www.w3.org/2000/svg" xmlns:xlink="http://www.w3.org/1999/xlink" x="0px" y="0px"
	 width="513px" height="150px" viewBox="0 0 513 150" enable-background="new 0 0 513 150" xml:space="preserve">
<g>
	<polygon fill="#BCBEC0" points="332.038,101.498 332.038,116.297 415.684,116.297 423.083,108.898 415.684,101.498 	"/>
	<rect x="316.537" y="101.5" fill="#BCBEC0" width="3.699" height="14.8"/>
	<rect x="321.396" y="101.5" fill="#BCBEC0" width="3.699" height="14.8"/>
	<rect x="326.664" y="101.5" fill="#BCBEC0" width="3.7" height="14.8"/>
</g>
<g>
	<g>
		<path d="M197.038,119.399c0.608-0.961,0.901-2.037,1.07-3.153c0.064-0.425-0.907-1.154-0.971-0.734
			c-0.158,1.047-0.412,2.102-0.984,3.005C195.903,118.911,196.83,119.728,197.038,119.399L197.038,119.399z"/>
	</g>
</g>
<g>
	<g>
		<path d="M201.66,118.78c0.581-1.205,0.915-2.483,1.207-3.784c0.138-0.617-1.004-0.16-1.107,0.301
			c-0.273,1.221-0.588,2.413-1.135,3.544C200.304,119.508,201.451,119.212,201.66,118.78L201.66,118.78z"/>
	</g>
</g>
<g>
	<g>
		<path d="M205.726,119.184c0.131-0.634-0.009-1.203-0.165-1.818c-0.093-0.368-1.092-1.012-0.92-0.334
			c0.121,0.479,0.228,0.913,0.126,1.406C204.683,118.842,205.642,119.592,205.726,119.184L205.726,119.184z"/>
	</g>
</g>
<g>
	<g>
		<path d="M208.772,119.247c0.37-0.396,0.593-0.867,0.88-1.319c0.189-0.297-0.767-1.075-0.895-0.873
			c-0.288,0.453-0.51,0.924-0.88,1.319C207.668,118.599,208.57,119.463,208.772,119.247L208.772,119.247z"/>
	</g>
</g>
<g>
	<g>
		<path d="M213.783,118.736c-0.14-0.771-0.389-1.497-0.732-2.199c-0.098-0.201-1.226,0.18-1.24,0.148
			c0.343,0.703,0.592,1.429,0.732,2.199C212.564,119.007,213.797,118.812,213.783,118.736L213.783,118.736z"/>
	</g>
</g>
<g>
	<g>
		<path d="M217.206,119.124c1.636,0,0.419-1.797-0.756-1.797C214.814,117.327,216.031,119.124,217.206,119.124L217.206,119.124z"/>
	</g>
</g>
<g>
	<g>
		<path d="M298.456,119.427c0.608-0.96,0.901-2.036,1.07-3.152c0.064-0.425-0.907-1.154-0.971-0.734
			c-0.158,1.046-0.412,2.101-0.984,3.004C297.321,118.938,298.248,119.755,298.456,119.427L298.456,119.427z"/>
	</g>
</g>
<g>
	<g>
		<path d="M303.077,118.808c0.582-1.204,0.916-2.483,1.208-3.783c0.138-0.617-1.004-0.16-1.107,0.301
			c-0.273,1.221-0.588,2.412-1.136,3.543C301.72,119.535,302.868,119.239,303.077,118.808L303.077,118.808z"/>
	</g>
</g>
<g>
	<polygon fill="#D43783" points="139.242,57.776 139.242,93.074 200.788,93.074 208.188,75.429 200.788,57.776 	"/>
	<rect x="123.741" y="57.778" fill="#D43783" width="3.699" height="35.299"/>
	<rect x="128.602" y="57.778" fill="#D43783" width="3.699" height="35.299"/>
	<rect x="133.868" y="57.778" fill="#D43783" width="3.701" height="35.299"/>
</g>
<path fill="#010101" d="M113.293,40.729v68.821c0,2.786-0.997,5.165-2.989,7.149c-1.975,1.983-4.354,2.979-7.14,2.979h-52.64
	c-2.768,0-5.166-0.996-7.141-2.979c-1.974-1.984-2.971-4.363-2.971-7.149V40.729c0-2.785,0.997-5.165,2.971-7.148
	c1.975-1.983,4.373-2.98,7.141-2.98h52.64c2.785,0,5.165,0.997,7.14,2.98C112.296,35.564,113.293,37.944,113.293,40.729z
	 M105.193,101.449v-60.72c0-0.553-0.203-1.022-0.609-1.419c-0.406-0.407-0.867-0.608-1.42-0.608h-52.64
	c-0.534,0-1.015,0.201-1.421,0.608c-0.387,0.396-0.591,0.866-0.591,1.419v60.72c0,0.555,0.204,1.035,0.591,1.431
	c0.406,0.397,0.887,0.601,1.421,0.601h52.64c0.553,0,1.014-0.203,1.42-0.601C104.99,102.484,105.193,102.004,105.193,101.449z
	 M79.694,114.42c0.794-0.792,1.199-1.752,1.199-2.84c0-1.098-0.405-2.048-1.199-2.851c-0.793-0.803-1.753-1.2-2.841-1.2
	c-1.107,0-2.048,0.397-2.86,1.2c-0.793,0.803-1.199,1.753-1.199,2.851c0,1.088,0.406,2.048,1.199,2.84
	c0.812,0.812,1.753,1.201,2.86,1.201C77.941,115.621,78.901,115.232,79.694,114.42z"/>
<g>
	<path fill="#010101" d="M294.019,69.061v9.493c0,0.643-0.262,1.196-0.774,1.671c-0.513,0.465-1.133,0.703-1.836,0.703h-68.023
		c-0.71,0-1.323-0.238-1.843-0.703c-0.512-0.475-0.774-1.028-0.774-1.671v-9.493c0-0.65,0.263-1.201,0.774-1.674
		c0.52-0.47,1.133-0.708,1.843-0.708h68.023c0.703,0,1.323,0.238,1.836,0.708C293.757,67.859,294.019,68.41,294.019,69.061z
		 M294.019,88.045v9.498c0,0.638-0.262,1.201-0.774,1.666c-0.513,0.478-1.133,0.703-1.836,0.703h-68.023
		c-0.71,0-1.323-0.226-1.843-0.703c-0.512-0.465-0.774-1.028-0.774-1.666v-9.498c0-0.638,0.263-1.201,0.774-1.666
		c0.52-0.47,1.133-0.703,1.843-0.703h68.023c0.703,0,1.323,0.233,1.836,0.703C293.757,86.844,294.019,87.407,294.019,88.045z
		 M294.019,107.037v9.493c0,0.647-0.262,1.201-0.774,1.671c-0.513,0.472-1.133,0.708-1.836,0.708h-68.023
		c-0.71,0-1.323-0.236-1.843-0.708c-0.512-0.47-0.774-1.023-0.774-1.671v-9.493c0-0.643,0.263-1.196,0.774-1.671
		c0.52-0.465,1.133-0.703,1.843-0.703h68.023c0.703,0,1.323,0.238,1.836,0.703C293.757,105.841,294.019,106.395,294.019,107.037z
		 M246.925,95.169h41.86v-4.75h-41.86V95.169z M262.628,114.161h26.157v-4.75h-26.157V114.161z M273.094,76.177h15.691v-4.748
		h-15.691V76.177z"/>
	<path fill="#010101" d="M294.019,31.145v9.493c0,0.643-0.262,1.196-0.774,1.671c-0.513,0.467-1.133,0.703-1.836,0.703h-68.023
		c-0.71,0-1.323-0.236-1.843-0.703c-0.512-0.475-0.774-1.028-0.774-1.671v-9.493c0-0.647,0.263-1.201,0.774-1.671
		c0.52-0.47,1.133-0.708,1.843-0.708h68.023c0.703,0,1.323,0.238,1.836,0.708S294.019,30.497,294.019,31.145z M294.019,50.132v9.496
		c0,0.64-0.262,1.203-0.774,1.668c-0.513,0.475-1.133,0.703-1.836,0.703h-68.023c-0.71,0-1.323-0.229-1.843-0.703
		c-0.512-0.465-0.774-1.028-0.774-1.668v-9.496c0-0.638,0.263-1.201,0.774-1.666c0.52-0.473,1.133-0.703,1.843-0.703h68.023
		c0.703,0,1.323,0.23,1.836,0.703C293.757,48.931,294.019,49.494,294.019,50.132z M294.019,69.124v9.49
		c0,0.65-0.262,1.201-0.774,1.674c-0.513,0.47-1.133,0.708-1.836,0.708h-68.023c-0.71,0-1.323-0.238-1.843-0.708
		c-0.512-0.473-0.774-1.023-0.774-1.674v-9.49c0-0.646,0.263-1.196,0.774-1.674c0.52-0.465,1.133-0.703,1.843-0.703h68.023
		c0.703,0,1.323,0.238,1.836,0.703C293.757,67.928,294.019,68.479,294.019,69.124z M246.925,57.254h41.86v-4.748h-41.86V57.254z
		 M262.628,76.246h26.157v-4.748h-26.157V76.246z M273.094,38.264h15.691v-4.75h-15.691V38.264z"/>
</g>
<g>
	<path fill="#00A79D" d="M462.73,42.667c0,0.341-0.122,0.632-0.358,0.869l-9.265,9.265l-1.739,1.738
		c-0.236,0.24-0.528,0.36-0.868,0.36c-0.343,0-0.633-0.12-0.871-0.36l-1.739-1.738l-4.634-4.631c-0.239-0.24-0.358-0.53-0.358-0.872
		c0-0.339,0.119-0.63,0.358-0.868l1.741-1.739c0.239-0.24,0.528-0.359,0.869-0.359c0.34,0,0.632,0.119,0.87,0.359l3.764,3.771
		l8.392-8.405c0.238-0.237,0.527-0.357,0.87-0.357c0.341,0,0.633,0.12,0.869,0.357l1.741,1.741
		C462.608,42.037,462.73,42.327,462.73,42.667z"/>
</g>
<g>
	<path d="M461.139,101.005c0,0.376-0.13,0.693-0.394,0.955l-1.904,1.907c-0.262,0.261-0.579,0.391-0.952,0.391
		c-0.374,0-0.693-0.13-0.952-0.391l-4.121-4.121l-4.118,4.121c-0.265,0.261-0.579,0.391-0.955,0.391
		c-0.373,0-0.693-0.13-0.952-0.391l-1.907-1.907c-0.261-0.262-0.391-0.579-0.391-0.955c0-0.37,0.13-0.688,0.391-0.952l4.121-4.118
		l-4.121-4.121c-0.261-0.261-0.391-0.578-0.391-0.952c0-0.373,0.13-0.692,0.391-0.952l1.907-1.905
		c0.259-0.264,0.579-0.395,0.952-0.395c0.376,0,0.69,0.131,0.955,0.395l4.118,4.12l4.121-4.12c0.259-0.264,0.578-0.395,0.952-0.395
		c0.373,0,0.69,0.131,0.952,0.395l1.904,1.905c0.264,0.26,0.394,0.579,0.394,0.952c0,0.374-0.13,0.691-0.394,0.952l-4.119,4.121
		l4.119,4.118C461.009,100.317,461.139,100.635,461.139,101.005z"/>
</g>
<rect x="144.899" y="66.049" fill="none" width="58.34" height="20.796"/>
<text transform="matrix(1 0 0 1 144.8994 73.5654)"><tspan x="0" y="0" font-family="'MarkerFelt-Wide'" font-size="9.1">POST </tspan><tspan x="0" y="10.92" font-family="'MarkerFelt-Wide'" font-size="9.1">Request</tspan></text>
<rect x="231.399" y="123.049" fill="none" width="58.34" height="15.296"/>
<text transform="matrix(1 0 0 1 231.3994 130.5654)" font-family="'MarkerFelt-Wide'" font-size="9.1">WEB SERVICE</text>
<g>
	<polygon fill="#00A79D" points="332.038,41.465 332.038,56.265 415.684,56.265 423.083,48.865 415.684,41.465 	"/>
	<rect x="316.537" y="41.466" fill="#00A79D" width="3.699" height="14.8"/>
	<rect x="321.396" y="41.466" fill="#00A79D" width="3.699" height="14.8"/>
	<rect x="326.664" y="41.466" fill="#00A79D" width="3.7" height="14.8"/>
</g>
<rect x="337.694" y="44.238" fill="none" width="58.341" height="15.296"/>
<text transform="matrix(1 0 0 1 337.6953 51.7549)" font-family="'MarkerFelt-Wide'" font-size="9.1">201 Created</text>
<rect x="337.694" y="104.271" fill="none" width="77.19" height="15.297"/>
<text transform="matrix(1 0 0 1 337.6953 111.7881)" font-family="'MarkerFelt-Wide'" font-size="9.1">404 Not Found</text>
<g>
	<polygon fill="#BCBEC0" points="332.038,80.998 332.038,95.797 415.684,95.797 423.083,88.398 415.684,80.998 	"/>
	<rect x="316.537" y="81" fill="#BCBEC0" width="3.699" height="14.8"/>
	<rect x="321.396" y="81" fill="#BCBEC0" width="3.699" height="14.8"/>
	<rect x="326.664" y="81" fill="#BCBEC0" width="3.7" height="14.8"/>
</g>
<rect x="337.694" y="83.771" fill="none" width="77.19" height="15.297"/>
<text transform="matrix(1 0 0 1 337.6953 91.2881)" font-family="'MarkerFelt-Wide'" font-size="9.1">400 Bad Request</text>
<path fill="#010101" d="M469.586,33.125v31.676c0,1.282-0.457,2.377-1.376,3.291c-0.909,0.912-2.004,1.371-3.286,1.371h-24.228
	c-1.274,0-2.377-0.459-3.285-1.371c-0.909-0.914-1.369-2.009-1.369-3.291V33.125c0-1.282,0.46-2.377,1.369-3.291
	c0.908-0.913,2.011-1.371,3.285-1.371h24.228c1.282,0,2.377,0.458,3.286,1.371C469.129,30.748,469.586,31.843,469.586,33.125z
	 M465.858,61.072V33.125c0-0.254-0.094-0.472-0.282-0.652c-0.185-0.188-0.398-0.281-0.652-0.281h-24.228
	c-0.246,0-0.467,0.093-0.652,0.281c-0.181,0.181-0.274,0.398-0.274,0.652v27.947c0,0.255,0.094,0.476,0.274,0.657
	c0.186,0.184,0.406,0.277,0.652,0.277h24.228c0.254,0,0.468-0.094,0.652-0.277C465.765,61.548,465.858,61.327,465.858,61.072z
	 M454.123,67.042c0.365-0.365,0.551-0.807,0.551-1.308c0-0.506-0.186-0.942-0.551-1.312c-0.366-0.37-0.808-0.553-1.308-0.553
	c-0.511,0-0.944,0.183-1.318,0.553c-0.362,0.369-0.551,0.806-0.551,1.312c0,0.501,0.188,0.942,0.551,1.308
	c0.374,0.374,0.808,0.553,1.318,0.553C453.315,67.595,453.757,67.416,454.123,67.042z"/>
<path fill="#010101" d="M469.586,82.211v31.677c0,1.282-0.457,2.376-1.376,3.29c-0.909,0.913-2.004,1.371-3.286,1.371h-24.228
	c-1.274,0-2.377-0.458-3.285-1.371c-0.909-0.914-1.369-2.008-1.369-3.29V82.211c0-1.282,0.46-2.376,1.369-3.29
	c0.908-0.913,2.011-1.371,3.285-1.371h24.228c1.282,0,2.377,0.458,3.286,1.371C469.129,79.835,469.586,80.929,469.586,82.211z
	 M465.858,110.158V82.211c0-0.254-0.094-0.471-0.282-0.652c-0.185-0.188-0.398-0.28-0.652-0.28h-24.228
	c-0.246,0-0.467,0.093-0.652,0.28c-0.181,0.182-0.274,0.398-0.274,0.652v27.947c0,0.256,0.094,0.477,0.274,0.658
	c0.186,0.183,0.406,0.276,0.652,0.276h24.228c0.254,0,0.468-0.094,0.652-0.276C465.765,110.635,465.858,110.414,465.858,110.158z
	 M454.123,116.128c0.365-0.364,0.551-0.806,0.551-1.308c0-0.505-0.186-0.942-0.551-1.312c-0.366-0.369-0.808-0.552-1.308-0.552
	c-0.511,0-0.944,0.183-1.318,0.552c-0.362,0.369-0.551,0.807-0.551,1.312c0,0.502,0.188,0.943,0.551,1.308
	c0.374,0.375,0.808,0.554,1.318,0.554C453.315,116.682,453.757,116.503,454.123,116.128z"/>
<rect x="75.855" y="45" width="25.503" height="9.512"/>
<g>
	<g>
		<path d="M53.149,64.839c2.254-1.485,5.815,2.385,8.447,1.85c2.457-0.5,4.181-0.228,6.545,0.056
			c3.243,0.388,4.164-2.861,8.053-0.854c2.329,1.202,4.356,0.149,6.369-1.154c3.806-2.464,7.712,1.37,11.792,0.304
			c0.779-0.203,0.449-1.409-0.332-1.205c-3.521,0.918-6.201-2.06-9.738-1.449c-3.487,0.602-3.436,4.502-8.4,1.94
			c-0.785-0.405-2.068-0.526-2.904-0.29c-2.704,0.764-4.261,1.916-7.343,0.886c-1.165-0.389-1.883-0.093-3.045,0.291
			c-3.895,1.288-6.678-3.691-10.075-1.454C51.849,64.201,52.474,65.284,53.149,64.839L53.149,64.839z"/>
	</g>
</g>
<g>
	<g>
		<path d="M54.24,71.083c2.073-1.689,4.225,0.936,6.212,0.705c1.75-0.204,2.996-0.604,4.831-0.171
			c1.366,0.323,2.439,0.042,3.759-0.373c2.259-0.71,4.24,0.678,6.427,0.275c0.792-0.146,0.456-1.351-0.332-1.205
			c-1.954,0.36-3.177-1.318-5.124-0.694c-2.084,0.668-4.284-0.072-6.179,0.28c-2.321,0.431-4.183,0.702-6.33-0.361
			c-0.363-0.18-0.735-0.368-1.138-0.42c-1.395-0.18-1.957,0.221-3.01,1.079C52.731,70.708,53.621,71.587,54.24,71.083L54.24,71.083z
			"/>
	</g>
</g>
<g>
	<g>
		<path d="M61.151,80.915c3.182-2.003,5.025,0.691,7.957,0.596c2.639-0.087,5.001-0.461,7.623,0.018
			c1.418,0.259,3.144-0.378,4.47-0.733c2.753-0.739,4.957,0.84,7.641,0.458c0.795-0.113,0.456-1.317-0.332-1.205
			c-2.295,0.326-4.053-1.245-6.302-0.752c-1.98,0.434-4.053,1.227-6.123,0.849c-0.583-0.106-1.408-0.615-2.043-0.532
			c-3.017,0.396-5.724,0.718-8.651-0.401c-1.896-0.725-3.196-0.43-4.871,0.625C59.84,80.264,60.466,81.346,61.151,80.915
			L61.151,80.915z"/>
	</g>
</g>
<rect x="53.385" y="78.086" width="4.136" height="4.135"/>
<g>
	<g>
		<path d="M61.277,88.262c1.266-1.543,2.731,0.771,4.021,0.693c1.547-0.095,2.468-0.513,4.036,0.018
			c1.368,0.463,2.739-1.51,4.084-0.907c1.112,0.497,1.346,1.046,2.602,0.632c0.762-0.251,0.436-1.458-0.332-1.205
			c-1.286,0.424-2.037-1.306-3.4-0.752c-1.003,0.407-2.59,1.159-3.549,0.58c-0.266-0.16-0.629-0.318-0.945-0.241
			c-1.229,0.299-2.173,0.946-3.571,0.136c-0.586-0.341-1.042-0.712-1.67-0.975c-0.9-0.377-1.694,0.569-2.16,1.137
			C59.887,87.995,60.766,88.885,61.277,88.262L61.277,88.262z"/>
	</g>
</g>
<rect x="53.385" y="85.529" width="4.136" height="4.136"/>
<g>
	<g>
		<path d="M61.277,95.43c2.073-1.689,4.226,0.936,6.212,0.704c1.751-0.203,2.996-0.604,4.831-0.17
			c1.366,0.323,2.439,0.042,3.759-0.373c2.258-0.71,4.241,0.679,6.427,0.275c0.792-0.146,0.456-1.351-0.332-1.205
			c-1.954,0.36-3.177-1.318-5.124-0.693c-2.085,0.669-4.283-0.071-6.179,0.28c-2.321,0.43-4.183,0.702-6.33-0.361
			c-0.363-0.18-0.735-0.368-1.138-0.42c-1.395-0.181-1.957,0.221-3.01,1.078C59.768,95.055,60.658,95.934,61.277,95.43L61.277,95.43
			z"/>
	</g>
</g>
<rect x="53.385" y="92.698" fill="#D43783" width="4.136" height="4.136"/>
<rect x="75.994" y="47.619" fill="none" width="25.365" height="6.893"/>
<text transform="matrix(1 0 0 1 80.2891 51.7183)" fill="#FFFFFF" font-family="'MarkerFelt-Wide'" font-size="4.9628">SUBMIT</text>
</svg>
