<?xml version="1.0" encoding="utf-8"?>
<!-- Generator: Adobe Illustrator 16.0.0, SVG Export Plug-In . SVG Version: 6.00 Build 0)  -->
<!DOCTYPE svg PUBLIC "-//W3C//DTD SVG 1.1//EN" "http://www.w3.org/Graphics/SVG/1.1/DTD/svg11.dtd">
<svg version="1.1" id="Layer_1" xmlns="http://www.w3.org/2000/svg" xmlns:xlink="http://www.w3.org/1999/xlink" x="0px" y="0px"
	 width="218px" height="64px" viewBox="0 0 218 64" enable-background="new 0 0 218 64" xml:space="preserve">
<g>
	<path fill-rule="evenodd" clip-rule="evenodd" d="M26.823,55.743c0.47-1.805,0.897-3.623,1.421-5.411
		c1.068-3.649,2.187-7.285,3.428-11.395c2.313,4.448,4.435,8.523,6.778,13.03c-2.453,0.933-4.76,1.87-7.112,2.686
		c-1.347,0.467-2.766,0.733-4.151,1.09C27.065,55.743,26.944,55.743,26.823,55.743z"/>
	<path fill-rule="evenodd" clip-rule="evenodd" d="M63.134,20.521c-0.275,0.911-0.551,1.822-0.928,3.071
		c-3.948-3.222-7.769-6.338-11.587-9.457c0.052-0.17,0.104-0.339,0.155-0.511c4.118,0.726,8.239,1.452,12.359,2.176
		C63.134,17.375,63.134,18.949,63.134,20.521z"/>
	<path fill-rule="evenodd" clip-rule="evenodd" d="M16.656,42.309c0.171-2.092,0.341-4.184,0.51-6.246
		c2.397,2.682,2.266,5.107-0.51,8.787C16.656,44.004,16.656,43.155,16.656,42.309z"/>
	<path fill-rule="evenodd" clip-rule="evenodd" d="M16.656,46.303c0.636-0.914,1.271-1.825,2.203-3.164
		c-0.247,3.064-0.457,5.686-0.668,8.304c-0.129,0.025-0.256,0.049-0.385,0.073c-0.383-1.012-0.767-2.023-1.15-3.034
		C16.656,47.755,16.656,47.029,16.656,46.303z"/>
	<path fill-rule="evenodd" clip-rule="evenodd" d="M23.465,39.311c-3.773-0.253-5.468-2.023-5.038-5.701
		c0.172-1.478,0.545-3.007,1.184-4.343c3.796-7.945,9.699-13.797,17.837-17.234c1.57-0.663,3.384-0.951,5.102-1.019
		c2.508-0.097,4.222,1.507,4.146,4.022c-0.057,1.881-0.41,3.907-1.216,5.587c-3.677,7.666-9.502,13.335-17.028,17.208
		C26.936,38.609,25.134,38.832,23.465,39.311z"/>
	<path fill-rule="evenodd" clip-rule="evenodd" d="M48.907,43.138c-5.661-1.817-10.964-3.521-16.595-5.33
		c4.179-3.87,8.139-7.542,12.361-11.456C46.106,32.03,47.464,37.417,48.907,43.138z"/>
	<path fill-rule="evenodd" clip-rule="evenodd" d="M49.34,44.038c-3.581,2.761-6.783,5.228-10.238,7.892
		c-2.396-4.614-4.575-8.814-6.973-13.43C37.918,40.362,43.32,42.101,49.34,44.038z"/>
	<path fill-rule="evenodd" clip-rule="evenodd" d="M25.768,54.302c-1.867-4.373-3.736-8.748-5.709-13.368
		c3.631-0.779,7.07-1.519,10.866-2.334c-1.642,5.45-3.194,10.6-4.747,15.751C26.041,54.335,25.904,54.318,25.768,54.302z"/>
	<path fill-rule="evenodd" clip-rule="evenodd" d="M48.942,13.817c4.046,3.303,7.883,6.437,12.116,9.894
		c-5.384,0.356-10.267,0.68-15.476,1.025C46.726,21.022,47.79,17.56,48.942,13.817z"/>
	<path fill-rule="evenodd" clip-rule="evenodd" d="M50.082,43.181c-1.438-5.696-2.732-10.808-4.167-16.483
		c4.004,2.455,7.582,4.647,11.454,7.019C54.96,36.848,52.68,39.806,50.082,43.181z"/>
	<path fill-rule="evenodd" clip-rule="evenodd" d="M40.661,51.703c3.205-2.545,6.112-4.853,9.196-7.302
		c3.126,2.778,6.294,5.591,9.46,8.403c-0.058,0.117-0.115,0.233-0.172,0.35C53.1,52.679,47.053,52.204,40.661,51.703z"/>
	<path fill-rule="evenodd" clip-rule="evenodd" d="M59.889,52.234c-3.097-2.748-6.195-5.498-9.29-8.246
		c2.371-2.998,4.646-5.877,7.155-9.05c0.876,5.896,1.71,11.515,2.544,17.135C60.162,52.127,60.025,52.181,59.889,52.234z"/>
	<path fill-rule="evenodd" clip-rule="evenodd" d="M58.084,33.046C54.055,30.569,50.34,28.284,46.623,26
		c0.039-0.127,0.078-0.255,0.115-0.382c4.948-0.332,9.898-0.664,15.471-1.037C60.721,27.633,59.435,30.277,58.084,33.046z"/>
	<path fill-rule="evenodd" clip-rule="evenodd" d="M62.541,26.64c-0.576,7.55-1.112,14.583-1.647,21.615
		c-0.105,0.01-0.211,0.02-0.315,0.029c-0.347-2.244-0.694-4.486-1.037-6.73c-0.083-0.537-0.145-1.078-0.228-1.617
		C58.238,33.12,58.243,33.099,62.541,26.64z"/>
	<path fill-rule="evenodd" clip-rule="evenodd" d="M25.468,55.658c-1.806-0.36-3.023-0.455-4.129-0.854
		c-2.133-0.771-2.543-1.6-2.331-3.848c0.252-2.681,0.472-5.364,1.152-8.166C21.856,46.904,23.553,51.017,25.468,55.658z"/>
	<path fill-rule="evenodd" clip-rule="evenodd" d="M62.441,14.775c-4.069-0.569-8.021-1.123-12.124-1.698
		C56.199,7.995,60.229,9.386,62.441,14.775z"/>
	<path fill-rule="evenodd" clip-rule="evenodd" d="M53.05,53.831c-6.368,0.427-12.735,0.854-19.1,1.279
		c2.704-1.526,5.249-3.122,8.643-2.522c3.419,0.603,6.938,0.627,10.413,0.904C53.021,53.605,53.034,53.719,53.05,53.831z"/>
	<path fill-rule="evenodd" clip-rule="evenodd" d="M44.43,9.631c3.367,0,6.248,0,9.126,0c0.032,0.103,0.063,0.206,0.094,0.31
		c-1.447,0.812-2.88,1.656-4.358,2.409C49,12.5,48.447,12.421,48.152,12.232C47.007,11.502,45.917,10.684,44.43,9.631z"/>
</g>
</svg>
