<?xml version="1.0" standalone="no"?>
<!DOCTYPE svg PUBLIC "-//W3C//DTD SVG 1.1//EN" "http://www.w3.org/Graphics/SVG/1.1/DTD/svg11.dtd">
<svg width="500.0002mm" height="350.000200000008mm"
 viewBox="0 0 500.0002 350.000200000008"
 xmlns="http://www.w3.org/2000/svg" version="1.1"
 xmlns:xlink="http://www.w3.org/1999/xlink">
<desc>Output from Flights of Ideas SVG Sketchup Plugin</desc>

  <g id="face0" fill="none" stroke="rgb(0,0,255)" stroke-width="1" stroke-miterlimit="4" stroke-dasharray="none" stroke-linejoin="round" stroke-linecap="round">
    <line x1="3.00010000000023" y1="3.00010000000784" x2="3.00010000000023" y2="13.0001000000078"/>
    <line x1="3.00010000000023" y1="13.0001000000078" x2="5.00010000000023" y2="13.0001000000078"/>
    <line x1="5.00010000000023" y1="13.0001000000078" x2="5.00010000000023" y2="11.7001000000078"/>
    <line x1="5.00010000000023" y1="11.7001000000078" x2="7.20010000000027" y2="11.7001000000078"/>
    <line x1="7.20010000000027" y1="11.7001000000078" x2="7.20010000000027" y2="13.0001000000078"/>
    <line x1="7.20010000000027" y1="13.0001000000078" x2="10.2001" y2="13.0001000000078"/>
    <line x1="10.2001" y1="13.0001000000078" x2="10.2001" y2="16.0001000000077"/>
    <line x1="10.2001" y1="16.0001000000077" x2="7.20010000000027" y2="16.0001000000077"/>
    <line x1="7.20010000000027" y1="16.0001000000077" x2="7.20010000000005" y2="17.3001000000078"/>
    <line x1="7.20010000000005" y1="17.3001000000078" x2="5.00010000000023" y2="17.3001000000078"/>
    <line x1="5.00010000000023" y1="17.3001000000078" x2="5.00010000000023" y2="16.0001000000077"/>
    <line x1="5.00010000000023" y1="16.0001000000077" x2="3.00010000000023" y2="16.0001000000077"/>
    <line x1="3.00010000000023" y1="16.0001000000077" x2="3.00010000000023" y2="26.0001000000078"/>
    <line x1="3.00010000000023" y1="26.0001000000078" x2="0.0001" y2="26.0001000000078"/>
    <line x1="0.0001" y1="26.0001000000078" x2="0.0001" y2="46.0001000000077"/>
    <line x1="0.0001" y1="46.0001000000077" x2="3.00010000000023" y2="46.0001000000077"/>
    <line x1="3.00010000000023" y1="46.0001000000077" x2="3.00010000000023" y2="66.0001000000077"/>
    <line x1="3.00010000000023" y1="66.0001000000077" x2="0.0001" y2="66.0001000000077"/>
    <line x1="0.0001" y1="66.0001000000077" x2="0.0001" y2="96.0001000000077"/>
    <line x1="0.0001" y1="96.0001000000077" x2="3.00010000000023" y2="96.0001000000077"/>
    <line x1="3.00010000000023" y1="96.0001000000077" x2="3.00010000000023" y2="116.000100000008"/>
    <line x1="3.00010000000023" y1="116.000100000008" x2="5.00010000000023" y2="116.000100000008"/>
    <line x1="5.00010000000023" y1="116.000100000008" x2="5.0001" y2="114.700100000008"/>
    <line x1="5.0001" y1="114.700100000008" x2="7.20010000000027" y2="114.700100000008"/>
    <line x1="7.20010000000027" y1="114.700100000008" x2="7.20010000000027" y2="116.000100000008"/>
    <line x1="7.20010000000027" y1="116.000100000008" x2="10.2001" y2="116.000100000008"/>
    <line x1="10.2001" y1="116.000100000008" x2="10.2001" y2="119.000100000008"/>
    <line x1="10.2001" y1="119.000100000008" x2="7.20010000000027" y2="119.000100000008"/>
    <line x1="7.20010000000027" y1="119.000100000008" x2="7.20010000000005" y2="120.300100000008"/>
    <line x1="7.20010000000005" y1="120.300100000008" x2="5.00010000000023" y2="120.300100000008"/>
    <line x1="5.00010000000023" y1="120.300100000008" x2="5.00010000000023" y2="119.000100000008"/>
    <line x1="5.00010000000023" y1="119.000100000008" x2="3.00010000000023" y2="119.000100000008"/>
    <line x1="3.00010000000023" y1="119.000100000008" x2="3.00010000000023" y2="165.000100000008"/>
    <line x1="3.00010000000023" y1="165.000100000008" x2="0.0001" y2="165.000100000008"/>
    <line x1="0.0001" y1="165.000100000008" x2="0.0001" y2="185.000100000008"/>
    <line x1="0.0001" y1="185.000100000008" x2="3.00010000000023" y2="185.000100000008"/>
    <line x1="3.00010000000023" y1="185.000100000008" x2="3.00010000000023" y2="231.000100000008"/>
    <line x1="3.00010000000023" y1="231.000100000008" x2="5.00010000000023" y2="231.000100000008"/>
    <line x1="5.00010000000023" y1="231.000100000008" x2="5.00010000000023" y2="229.700100000008"/>
    <line x1="5.00010000000023" y1="229.700100000008" x2="7.20010000000027" y2="229.700100000008"/>
    <line x1="7.20010000000027" y1="229.700100000008" x2="7.20010000000005" y2="231.000100000008"/>
    <line x1="7.20010000000005" y1="231.000100000008" x2="10.2001" y2="231.000100000008"/>
    <line x1="10.2001" y1="231.000100000008" x2="10.2001" y2="234.000100000008"/>
    <line x1="10.2001" y1="234.000100000008" x2="7.20010000000027" y2="234.000100000008"/>
    <line x1="7.20010000000027" y1="234.000100000008" x2="7.20010000000005" y2="235.300100000008"/>
    <line x1="7.20010000000005" y1="235.300100000008" x2="5.00010000000023" y2="235.300100000008"/>
    <line x1="5.00010000000023" y1="235.300100000008" x2="5.0001" y2="234.000100000008"/>
    <line x1="5.0001" y1="234.000100000008" x2="3.00010000000023" y2="234.000100000008"/>
    <line x1="3.00010000000023" y1="234.000100000008" x2="3.00010000000023" y2="254.000100000008"/>
    <line x1="3.00010000000023" y1="254.000100000008" x2="0.0001" y2="254.000100000008"/>
    <line x1="0.0001" y1="254.000100000008" x2="0.0001" y2="284.000100000008"/>
    <line x1="0.0001" y1="284.000100000008" x2="3.00010000000023" y2="284.000100000008"/>
    <line x1="3.00010000000023" y1="284.000100000008" x2="3.00010000000023" y2="304.000100000008"/>
    <line x1="3.00010000000023" y1="304.000100000008" x2="0.0001" y2="304.000100000008"/>
    <line x1="0.0001" y1="304.000100000008" x2="0.0001" y2="324.000100000008"/>
    <line x1="0.0001" y1="324.000100000008" x2="3.00010000000023" y2="324.000100000008"/>
    <line x1="3.00010000000023" y1="324.000100000008" x2="3.00010000000023" y2="334.000100000008"/>
    <line x1="3.00010000000023" y1="334.000100000008" x2="5.0001" y2="334.000100000008"/>
    <line x1="5.0001" y1="334.000100000008" x2="5.00010000000023" y2="332.700100000008"/>
    <line x1="5.00010000000023" y1="332.700100000008" x2="7.20010000000005" y2="332.700100000008"/>
    <line x1="7.20010000000005" y1="332.700100000008" x2="7.20010000000027" y2="334.000100000008"/>
    <line x1="7.20010000000027" y1="334.000100000008" x2="10.2001" y2="334.000100000008"/>
    <line x1="10.2001" y1="334.000100000008" x2="10.2001" y2="337.000100000008"/>
    <line x1="10.2001" y1="337.000100000008" x2="7.20010000000005" y2="337.000100000008"/>
    <line x1="7.20010000000005" y1="337.000100000008" x2="7.20010000000027" y2="338.300100000008"/>
    <line x1="7.20010000000027" y1="338.300100000008" x2="5.00010000000023" y2="338.300100000008"/>
    <line x1="5.00010000000023" y1="338.300100000008" x2="5.00010000000023" y2="337.000100000008"/>
    <line x1="5.00010000000023" y1="337.000100000008" x2="3.00010000000023" y2="337.000100000008"/>
    <line x1="3.00010000000023" y1="337.000100000008" x2="3.00010000000023" y2="347.000100000008"/>
    <line x1="3.00010000000023" y1="347.000100000008" x2="23.0001" y2="347.000100000008"/>
    <line x1="23.0001" y1="347.000100000008" x2="23.0001" y2="350.000100000008"/>
    <line x1="23.0001" y1="350.000100000008" x2="53.0001000000002" y2="350.000100000008"/>
    <line x1="53.0001000000002" y1="350.000100000008" x2="53.0001000000002" y2="347.000100000008"/>
    <line x1="53.0001000000002" y1="347.000100000008" x2="73.0001000000002" y2="347.000100000008"/>
    <line x1="73.0001000000002" y1="347.000100000008" x2="73.0001000000002" y2="345.000100000008"/>
    <line x1="73.0001000000002" y1="345.000100000008" x2="71.8001000000002" y2="345.000100000008"/>
    <line x1="71.8001000000002" y1="345.000100000008" x2="71.8001" y2="342.800100000008"/>
    <line x1="71.8001" y1="342.800100000008" x2="73.0001000000002" y2="342.800100000008"/>
    <line x1="73.0001000000002" y1="342.800100000008" x2="73.0001000000002" y2="339.800100000008"/>
    <line x1="73.0001000000002" y1="339.800100000008" x2="76.0001000000002" y2="339.800100000008"/>
    <line x1="76.0001000000002" y1="339.800100000008" x2="76.0001000000002" y2="342.800100000008"/>
    <line x1="76.0001000000002" y1="342.800100000008" x2="77.3001000000002" y2="342.800100000008"/>
    <line x1="77.3001000000002" y1="342.800100000008" x2="77.3001000000002" y2="345.000100000008"/>
    <line x1="77.3001000000002" y1="345.000100000008" x2="76.0001000000002" y2="345.000100000008"/>
    <line x1="76.0001000000002" y1="345.000100000008" x2="76.0001000000002" y2="347.000100000008"/>
    <line x1="76.0001000000002" y1="347.000100000008" x2="96.0001" y2="347.000100000008"/>
    <line x1="96.0001" y1="347.000100000008" x2="96.0001000000002" y2="350.000100000008"/>
    <line x1="96.0001000000002" y1="350.000100000008" x2="136.0001" y2="350.000100000008"/>
    <line x1="136.0001" y1="350.000100000008" x2="136.0001" y2="347.000100000008"/>
    <line x1="136.0001" y1="347.000100000008" x2="186.0001" y2="347.000100000008"/>
    <line x1="186.0001" y1="347.000100000008" x2="186.0001" y2="350.000100000008"/>
    <line x1="186.0001" y1="350.000100000008" x2="226.0001" y2="350.000100000008"/>
    <line x1="226.0001" y1="350.000100000008" x2="226.0001" y2="347.000100000008"/>
    <line x1="226.0001" y1="347.000100000008" x2="248.736141178529" y2="347.000100000008"/>
    <line x1="248.736141178529" y1="347.000100000008" x2="248.736141178529" y2="345.000100000008"/>
    <line x1="248.736141178529" y1="345.000100000008" x2="247.536141178529" y2="345.000100000008"/>
    <line x1="247.536141178529" y1="345.000100000008" x2="247.536141178529" y2="342.800100000008"/>
    <line x1="247.536141178529" y1="342.800100000008" x2="248.736141178529" y2="342.800100000008"/>
    <line x1="248.736141178529" y1="342.800100000008" x2="248.736141178529" y2="339.800100000008"/>
    <line x1="248.736141178529" y1="339.800100000008" x2="251.73614117853" y2="339.800100000008"/>
    <line x1="251.73614117853" y1="339.800100000008" x2="251.73614117853" y2="342.800100000008"/>
    <line x1="251.73614117853" y1="342.800100000008" x2="253.036141178529" y2="342.800100000008"/>
    <line x1="253.036141178529" y1="342.800100000008" x2="253.036141178529" y2="345.000100000008"/>
    <line x1="253.036141178529" y1="345.000100000008" x2="251.736141178529" y2="345.000100000008"/>
    <line x1="251.736141178529" y1="345.000100000008" x2="251.736141178529" y2="347.000100000008"/>
    <line x1="251.736141178529" y1="347.000100000008" x2="274.0001" y2="347.000100000008"/>
    <line x1="274.0001" y1="347.000100000008" x2="274.0001" y2="350.000100000008"/>
    <line x1="274.0001" y1="350.000100000008" x2="314.0001" y2="350.000100000008"/>
    <line x1="314.0001" y1="350.000100000008" x2="314.0001" y2="347.000100000008"/>
    <line x1="314.0001" y1="347.000100000008" x2="364.0001" y2="347.000100000008"/>
    <line x1="364.0001" y1="347.000100000008" x2="364.0001" y2="350.000100000008"/>
    <line x1="364.0001" y1="350.000100000008" x2="404.0001" y2="350.000100000008"/>
    <line x1="404.0001" y1="350.000100000008" x2="404.0001" y2="347.000100000008"/>
    <line x1="404.0001" y1="347.000100000008" x2="424.0001" y2="347.000100000008"/>
    <line x1="424.0001" y1="347.000100000008" x2="424.0001" y2="345.000100000008"/>
    <line x1="424.0001" y1="345.000100000008" x2="422.8001" y2="345.000100000008"/>
    <line x1="422.8001" y1="345.000100000008" x2="422.8001" y2="342.800100000008"/>
    <line x1="422.8001" y1="342.800100000008" x2="424.0001" y2="342.800100000008"/>
    <line x1="424.0001" y1="342.800100000008" x2="424.0001" y2="339.800100000008"/>
    <line x1="424.0001" y1="339.800100000008" x2="427.0001" y2="339.800100000008"/>
    <line x1="427.0001" y1="339.800100000008" x2="427.0001" y2="342.800100000008"/>
    <line x1="427.0001" y1="342.800100000008" x2="428.3001" y2="342.800100000008"/>
    <line x1="428.3001" y1="342.800100000008" x2="428.3001" y2="345.000100000008"/>
    <line x1="428.3001" y1="345.000100000008" x2="427.0001" y2="345.000100000008"/>
    <line x1="427.0001" y1="345.000100000008" x2="427.0001" y2="347.000100000008"/>
    <line x1="427.0001" y1="347.000100000008" x2="447.0001" y2="347.000100000008"/>
    <line x1="447.0001" y1="347.000100000008" x2="447.0001" y2="350.000100000008"/>
    <line x1="447.0001" y1="350.000100000008" x2="477.0001" y2="350.000100000008"/>
    <line x1="477.0001" y1="350.000100000008" x2="477.0001" y2="347.000100000008"/>
    <line x1="477.0001" y1="347.000100000008" x2="500.0001" y2="347.000100000008"/>
    <line x1="500.0001" y1="347.000100000008" x2="500.0001" y2="342.000100000008"/>
    <line x1="500.0001" y1="342.000100000008" x2="497.0001" y2="342.000100000008"/>
    <line x1="497.0001" y1="342.000100000008" x2="497.0001" y2="332.000100000008"/>
    <line x1="497.0001" y1="332.000100000008" x2="495.0001" y2="332.000100000008"/>
    <line x1="495.0001" y1="332.000100000008" x2="495.0001" y2="333.300100000008"/>
    <line x1="495.0001" y1="333.300100000008" x2="492.8001" y2="333.300100000008"/>
    <line x1="492.8001" y1="333.300100000008" x2="492.8001" y2="332.000100000008"/>
    <line x1="492.8001" y1="332.000100000008" x2="489.8001" y2="332.000100000008"/>
    <line x1="489.8001" y1="332.000100000008" x2="489.8001" y2="329.000100000008"/>
    <line x1="489.8001" y1="329.000100000008" x2="492.8001" y2="329.000100000008"/>
    <line x1="492.8001" y1="329.000100000008" x2="492.8001" y2="327.700100000008"/>
    <line x1="492.8001" y1="327.700100000008" x2="495.0001" y2="327.700100000008"/>
    <line x1="495.0001" y1="327.700100000008" x2="495.0001" y2="329.000100000008"/>
    <line x1="495.0001" y1="329.000100000008" x2="497.0001" y2="329.000100000008"/>
    <line x1="497.0001" y1="329.000100000008" x2="497.0001" y2="309.000100000008"/>
    <line x1="497.0001" y1="309.000100000008" x2="500.0001" y2="309.000100000008"/>
    <line x1="500.0001" y1="309.000100000008" x2="500.0001" y2="289.000100000008"/>
    <line x1="500.0001" y1="289.000100000008" x2="497.0001" y2="289.000100000008"/>
    <line x1="497.0001" y1="289.000100000008" x2="497.0001" y2="269.000100000008"/>
    <line x1="497.0001" y1="269.000100000008" x2="500.0001" y2="269.000100000008"/>
    <line x1="500.0001" y1="269.000100000008" x2="500.0001" y2="249.000100000008"/>
    <line x1="500.0001" y1="249.000100000008" x2="497.0001" y2="249.000100000008"/>
    <line x1="497.0001" y1="249.000100000008" x2="497.0001" y2="229.000100000008"/>
    <line x1="497.0001" y1="229.000100000008" x2="495.0001" y2="229.000100000008"/>
    <line x1="495.0001" y1="229.000100000008" x2="495.0001" y2="230.300100000008"/>
    <line x1="495.0001" y1="230.300100000008" x2="492.8001" y2="230.300100000008"/>
    <line x1="492.8001" y1="230.300100000008" x2="492.8001" y2="229.000100000008"/>
    <line x1="492.8001" y1="229.000100000008" x2="489.8001" y2="229.000100000008"/>
    <line x1="489.8001" y1="229.000100000008" x2="489.8001" y2="226.000100000008"/>
    <line x1="489.8001" y1="226.000100000008" x2="492.8001" y2="226.000100000008"/>
    <line x1="492.8001" y1="226.000100000008" x2="492.8001" y2="224.700100000008"/>
    <line x1="492.8001" y1="224.700100000008" x2="495.0001" y2="224.700100000008"/>
    <line x1="495.0001" y1="224.700100000008" x2="495.0001" y2="226.000100000008"/>
    <line x1="495.0001" y1="226.000100000008" x2="497.0001" y2="226.000100000008"/>
    <line x1="497.0001" y1="226.000100000008" x2="497.0001" y2="206.000100000008"/>
    <line x1="497.0001" y1="206.000100000008" x2="500.0001" y2="206.000100000008"/>
    <line x1="500.0001" y1="206.000100000008" x2="500.0001" y2="186.000100000008"/>
    <line x1="500.0001" y1="186.000100000008" x2="497.0001" y2="186.000100000008"/>
    <line x1="497.0001" y1="186.000100000008" x2="497.0001" y2="164.000100000008"/>
    <line x1="497.0001" y1="164.000100000008" x2="500.0001" y2="164.000100000008"/>
    <line x1="500.0001" y1="164.000100000008" x2="500.0001" y2="144.000100000008"/>
    <line x1="500.0001" y1="144.000100000008" x2="497.0001" y2="144.000100000008"/>
    <line x1="497.0001" y1="144.000100000008" x2="497.0001" y2="124.000100000008"/>
    <line x1="497.0001" y1="124.000100000008" x2="495.0001" y2="124.000100000008"/>
    <line x1="495.0001" y1="124.000100000008" x2="495.0001" y2="125.300100000008"/>
    <line x1="495.0001" y1="125.300100000008" x2="492.8001" y2="125.300100000008"/>
    <line x1="492.8001" y1="125.300100000008" x2="492.8001" y2="124.000100000007"/>
    <line x1="492.8001" y1="124.000100000007" x2="489.8001" y2="124.000100000008"/>
    <line x1="489.8001" y1="124.000100000008" x2="489.8001" y2="121.000100000008"/>
    <line x1="489.8001" y1="121.000100000008" x2="492.8001" y2="121.000100000008"/>
    <line x1="492.8001" y1="121.000100000008" x2="492.8001" y2="119.700100000008"/>
    <line x1="492.8001" y1="119.700100000008" x2="495.0001" y2="119.700100000008"/>
    <line x1="495.0001" y1="119.700100000008" x2="495.0001" y2="121.000100000008"/>
    <line x1="495.0001" y1="121.000100000008" x2="497.0001" y2="121.000100000008"/>
    <line x1="497.0001" y1="121.000100000008" x2="497.0001" y2="101.000100000008"/>
    <line x1="497.0001" y1="101.000100000008" x2="500.0001" y2="101.000100000007"/>
    <line x1="500.0001" y1="101.000100000007" x2="500.0001" y2="81.0001000000077"/>
    <line x1="500.0001" y1="81.0001000000077" x2="497.0001" y2="81.0001000000078"/>
    <line x1="497.0001" y1="81.0001000000078" x2="497.0001" y2="61.0001000000083"/>
    <line x1="497.0001" y1="61.0001000000083" x2="500.0001" y2="61.0001000000078"/>
    <line x1="500.0001" y1="61.0001000000078" x2="500.0001" y2="41.0001000000076"/>
    <line x1="500.0001" y1="41.0001000000076" x2="497.0001" y2="41.0001000000083"/>
    <line x1="497.0001" y1="41.0001000000083" x2="497.0001" y2="21.0001000000082"/>
    <line x1="497.0001" y1="21.0001000000082" x2="495.0001" y2="21.0001000000067"/>
    <line x1="495.0001" y1="21.0001000000067" x2="495.0001" y2="22.3001000000081"/>
    <line x1="495.0001" y1="22.3001000000081" x2="492.8001" y2="22.3001000000076"/>
    <line x1="492.8001" y1="22.3001000000076" x2="492.8001" y2="21.000100000008"/>
    <line x1="492.8001" y1="21.000100000008" x2="489.8001" y2="21.0001000000077"/>
    <line x1="489.8001" y1="21.0001000000077" x2="489.8001" y2="18.0001000000077"/>
    <line x1="489.8001" y1="18.0001000000077" x2="492.8001" y2="18.0001000000056"/>
    <line x1="492.8001" y1="18.0001000000056" x2="492.8001" y2="16.7001000000068"/>
    <line x1="492.8001" y1="16.7001000000068" x2="495.0001" y2="16.7001000000081"/>
    <line x1="495.0001" y1="16.7001000000081" x2="495.0001" y2="18.0001000000075"/>
    <line x1="495.0001" y1="18.0001000000075" x2="497.0001" y2="18.0001000000069"/>
    <line x1="497.0001" y1="18.0001000000069" x2="497.0001" y2="8.00010000000989"/>
    <line x1="497.0001" y1="8.00010000000989" x2="500.0001" y2="8.00010000001307"/>
    <line x1="500.0001" y1="8.00010000001307" x2="500.0001" y2="3.00010000000784"/>
    <line x1="500.0001" y1="3.00010000000784" x2="477.0001" y2="3.00010000000784"/>
    <line x1="477.0001" y1="3.00010000000784" x2="477.0001" y2="0.00010000000648015"/>
    <line x1="477.0001" y1="0.00010000000648015" x2="447.0001" y2="0.0001"/>
    <line x1="447.0001" y1="0.0001" x2="447.0001" y2="3.00010000000784"/>
    <line x1="447.0001" y1="3.00010000000784" x2="427.0001" y2="3.00010000000784"/>
    <line x1="427.0001" y1="3.00010000000784" x2="427.0001" y2="5.00009999999648"/>
    <line x1="427.0001" y1="5.00009999999648" x2="428.3001" y2="5.00010000000625"/>
    <line x1="428.3001" y1="5.00010000000625" x2="428.3001" y2="7.20010000000755"/>
    <line x1="428.3001" y1="7.20010000000755" x2="427.0001" y2="7.20010000000482"/>
    <line x1="427.0001" y1="7.20010000000482" x2="427.0001" y2="10.2001000000048"/>
    <line x1="427.0001" y1="10.2001000000048" x2="424.0001" y2="10.2001000000066"/>
    <line x1="424.0001" y1="10.2001000000066" x2="424.0001" y2="7.20010000000948"/>
    <line x1="424.0001" y1="7.20010000000948" x2="422.7001" y2="7.20010000000755"/>
    <line x1="422.7001" y1="7.20010000000755" x2="422.7001" y2="5.00010000001535"/>
    <line x1="422.7001" y1="5.00010000001535" x2="424.0001" y2="5.00010000000819"/>
    <line x1="424.0001" y1="5.00010000000819" x2="424.0001" y2="3.00010000000784"/>
    <line x1="424.0001" y1="3.00010000000784" x2="404.0001" y2="3.00010000000784"/>
    <line x1="404.0001" y1="3.00010000000784" x2="404.0001" y2="0.000100000009890755"/>
    <line x1="404.0001" y1="0.000100000009890755" x2="364.0001" y2="0.000100000010231815"/>
    <line x1="364.0001" y1="0.000100000010231815" x2="364.0001" y2="3.00010000000784"/>
    <line x1="364.0001" y1="3.00010000000784" x2="314.0001" y2="3.00010000000784"/>
    <line x1="314.0001" y1="3.00010000000784" x2="314.0001" y2="0.000100000007844392"/>
    <line x1="314.0001" y1="0.000100000007844392" x2="274.0001" y2="0.00010000001080025"/>
    <line x1="274.0001" y1="0.00010000001080025" x2="274.0001" y2="3.00010000000784"/>
    <line x1="274.0001" y1="3.00010000000784" x2="251.5001" y2="3.00010000000784"/>
    <line x1="251.5001" y1="3.00010000000784" x2="251.5001" y2="5.00010000000443"/>
    <line x1="251.5001" y1="5.00010000000443" x2="252.8001" y2="5.00010000000705"/>
    <line x1="252.8001" y1="5.00010000000705" x2="252.8001" y2="7.20010000000766"/>
    <line x1="252.8001" y1="7.20010000000766" x2="251.5001" y2="7.20010000000698"/>
    <line x1="251.5001" y1="7.20010000000698" x2="251.5001" y2="10.2001000000077"/>
    <line x1="251.5001" y1="10.2001000000077" x2="248.5001" y2="10.2001000000071"/>
    <line x1="248.5001" y1="10.2001000000071" x2="248.5001" y2="7.20010000000664"/>
    <line x1="248.5001" y1="7.20010000000664" x2="247.2001" y2="7.20010000000857"/>
    <line x1="247.2001" y1="7.20010000000857" x2="247.2001" y2="5.00010000000966"/>
    <line x1="247.2001" y1="5.00010000000966" x2="248.5001" y2="5.0001000000108"/>
    <line x1="248.5001" y1="5.0001000000108" x2="248.5001" y2="3.00010000000784"/>
    <line x1="248.5001" y1="3.00010000000784" x2="226.0001" y2="3.00010000000784"/>
    <line x1="226.0001" y1="3.00010000000784" x2="226.0001" y2="0.000100000007389644"/>
    <line x1="226.0001" y1="0.000100000007389644" x2="186.0001" y2="0.000100000007162271"/>
    <line x1="186.0001" y1="0.000100000007162271" x2="186.0001" y2="3.00010000000784"/>
    <line x1="186.0001" y1="3.00010000000784" x2="136.0001" y2="3.00010000000784"/>
    <line x1="136.0001" y1="3.00010000000784" x2="136.0001" y2="0.000100000007617018"/>
    <line x1="136.0001" y1="0.000100000007617018" x2="96.0001" y2="0.000100000007275958"/>
    <line x1="96.0001" y1="0.000100000007275958" x2="96.0001" y2="3.00010000000784"/>
    <line x1="96.0001" y1="3.00010000000784" x2="76.0001000000002" y2="3.00010000000784"/>
    <line x1="76.0001000000002" y1="3.00010000000784" x2="76.0001000000002" y2="5.00010000000819"/>
    <line x1="76.0001000000002" y1="5.00010000000819" x2="77.3001" y2="5.00010000000807"/>
    <line x1="77.3001" y1="5.00010000000807" x2="77.3001" y2="7.20010000000789"/>
    <line x1="77.3001" y1="7.20010000000789" x2="76.0001000000002" y2="7.20010000000766"/>
    <line x1="76.0001000000002" y1="7.20010000000766" x2="76.0001000000002" y2="10.2001000000079"/>
    <line x1="76.0001000000002" y1="10.2001000000079" x2="73.0001000000002" y2="10.2001000000079"/>
    <line x1="73.0001000000002" y1="10.2001000000079" x2="73.0001000000002" y2="7.20010000000766"/>
    <line x1="73.0001000000002" y1="7.20010000000766" x2="71.7001000000003" y2="7.20010000000766"/>
    <line x1="71.7001000000003" y1="7.20010000000766" x2="71.7001000000003" y2="5.00010000000773"/>
    <line x1="71.7001000000003" y1="5.00010000000773" x2="73.0001000000002" y2="5.00010000000784"/>
    <line x1="73.0001000000002" y1="5.00010000000784" x2="73.0001000000002" y2="3.00010000000784"/>
    <line x1="73.0001000000002" y1="3.00010000000784" x2="53.0001000000002" y2="3.00010000000784"/>
    <line x1="53.0001000000002" y1="3.00010000000784" x2="53.0001000000002" y2="0.000100000007844392"/>
    <line x1="53.0001000000002" y1="0.000100000007844392" x2="23.0001" y2="0.000100000007730705"/>
    <line x1="23.0001" y1="0.000100000007730705" x2="23.0001" y2="3.00010000000784"/>
    <line x1="23.0001" y1="3.00010000000784" x2="3.00010000000023" y2="3.00010000000784"/>
    <line x1="239.9001" y1="218.000100000008" x2="219.9001" y2="218.000100000008"/>
    <line x1="219.9001" y1="218.000100000008" x2="219.9001" y2="215.000100000008"/>
    <line x1="219.9001" y1="215.000100000008" x2="239.9001" y2="215.000100000008"/>
    <line x1="239.9001" y1="215.000100000008" x2="239.9001" y2="218.000100000008"/>
    <line x1="280.0001" y1="218.000100000008" x2="260.0001" y2="218.000100000008"/>
    <line x1="260.0001" y1="218.000100000008" x2="260.0001" y2="215.000100000008"/>
    <line x1="260.0001" y1="215.000100000008" x2="280.0001" y2="215.000100000008"/>
    <line x1="280.0001" y1="215.000100000008" x2="280.0001" y2="218.000100000008"/>
    <line x1="280.0001" y1="135.000100000008" x2="260.0001" y2="135.000100000008"/>
    <line x1="260.0001" y1="135.000100000008" x2="260.0001" y2="132.000100000008"/>
    <line x1="260.0001" y1="132.000100000008" x2="280.0001" y2="132.000100000008"/>
    <line x1="280.0001" y1="132.000100000008" x2="280.0001" y2="135.000100000008"/>
    <line x1="239.9001" y1="132.000100000008" x2="239.9001" y2="135.000100000008"/>
    <line x1="239.9001" y1="135.000100000008" x2="219.9001" y2="135.000100000008"/>
    <line x1="219.9001" y1="135.000100000008" x2="219.9001" y2="132.000100000008"/>
    <line x1="219.9001" y1="132.000100000008" x2="239.9001" y2="132.000100000008"/>
    <line x1="214.848988739434" y1="133.111871432354" x2="214.9001" y2="133.500100000008"/>
    <line x1="214.9001" y1="133.500100000008" x2="214.848988739434" y2="133.888328567662"/>
    <line x1="214.848988739434" y1="133.888328567662" x2="214.699138105677" y2="134.250100000008"/>
    <line x1="214.699138105677" y1="134.250100000008" x2="214.46076017178" y2="134.560760171788"/>
    <line x1="214.46076017178" y1="134.560760171788" x2="214.1501" y2="134.799138105685"/>
    <line x1="214.1501" y1="134.799138105685" x2="213.788328567654" y2="134.948988739441"/>
    <line x1="213.788328567654" y1="134.948988739441" x2="213.4001" y2="135.000100000008"/>
    <line x1="213.4001" y1="135.000100000008" x2="213.011871432346" y2="134.948988739441"/>
    <line x1="213.011871432346" y1="134.948988739441" x2="212.6501" y2="134.799138105684"/>
    <line x1="212.6501" y1="134.799138105684" x2="212.33943982822" y2="134.560760171788"/>
    <line x1="212.33943982822" y1="134.560760171788" x2="212.101061894323" y2="134.250100000008"/>
    <line x1="212.101061894323" y1="134.250100000008" x2="211.951211260566" y2="133.888328567662"/>
    <line x1="211.951211260566" y1="133.888328567662" x2="211.9001" y2="133.500100000008"/>
    <line x1="211.9001" y1="133.500100000008" x2="211.951211260566" y2="133.111871432354"/>
    <line x1="211.951211260566" y1="133.111871432354" x2="212.101061894323" y2="132.750100000008"/>
    <line x1="212.101061894323" y1="132.750100000008" x2="212.33943982822" y2="132.439439828228"/>
    <line x1="212.33943982822" y1="132.439439828228" x2="212.6501" y2="132.201061894331"/>
    <line x1="212.6501" y1="132.201061894331" x2="213.011871432346" y2="132.051211260574"/>
    <line x1="213.011871432346" y1="132.051211260574" x2="213.4001" y2="132.000100000008"/>
    <line x1="213.4001" y1="132.000100000008" x2="213.788328567654" y2="132.051211260574"/>
    <line x1="213.788328567654" y1="132.051211260574" x2="214.1501" y2="132.201061894331"/>
    <line x1="214.1501" y1="132.201061894331" x2="214.46076017178" y2="132.439439828228"/>
    <line x1="214.46076017178" y1="132.439439828228" x2="214.699138105677" y2="132.750100000008"/>
    <line x1="214.699138105677" y1="132.750100000008" x2="214.848988739434" y2="133.111871432354"/>
    <line x1="285.051211260566" y1="133.888328567661" x2="285.0001" y2="133.500100000008"/>
    <line x1="285.0001" y1="133.500100000008" x2="285.051211260567" y2="133.111871432354"/>
    <line x1="285.051211260567" y1="133.111871432354" x2="285.201061894323" y2="132.750100000008"/>
    <line x1="285.201061894323" y1="132.750100000008" x2="285.43943982822" y2="132.439439828228"/>
    <line x1="285.43943982822" y1="132.439439828228" x2="285.7501" y2="132.201061894331"/>
    <line x1="285.7501" y1="132.201061894331" x2="286.111871432346" y2="132.051211260574"/>
    <line x1="286.111871432346" y1="132.051211260574" x2="286.5001" y2="132.000100000008"/>
    <line x1="286.5001" y1="132.000100000008" x2="286.888328567654" y2="132.051211260574"/>
    <line x1="286.888328567654" y1="132.051211260574" x2="287.2501" y2="132.201061894331"/>
    <line x1="287.2501" y1="132.201061894331" x2="287.56076017178" y2="132.439439828228"/>
    <line x1="287.56076017178" y1="132.439439828228" x2="287.799138105677" y2="132.750100000008"/>
    <line x1="287.799138105677" y1="132.750100000008" x2="287.948988739434" y2="133.111871432354"/>
    <line x1="287.948988739434" y1="133.111871432354" x2="288.0001" y2="133.500100000008"/>
    <line x1="288.0001" y1="133.500100000008" x2="287.948988739434" y2="133.888328567661"/>
    <line x1="287.948988739434" y1="133.888328567661" x2="287.799138105677" y2="134.250100000008"/>
    <line x1="287.799138105677" y1="134.250100000008" x2="287.56076017178" y2="134.560760171788"/>
    <line x1="287.56076017178" y1="134.560760171788" x2="287.2501" y2="134.799138105685"/>
    <line x1="287.2501" y1="134.799138105685" x2="286.888328567654" y2="134.948988739441"/>
    <line x1="286.888328567654" y1="134.948988739441" x2="286.5001" y2="135.000100000008"/>
    <line x1="286.5001" y1="135.000100000008" x2="286.111871432346" y2="134.948988739441"/>
    <line x1="286.111871432346" y1="134.948988739441" x2="285.7501" y2="134.799138105685"/>
    <line x1="285.7501" y1="134.799138105685" x2="285.43943982822" y2="134.560760171788"/>
    <line x1="285.43943982822" y1="134.560760171788" x2="285.201061894323" y2="134.250100000008"/>
    <line x1="285.201061894323" y1="134.250100000008" x2="285.051211260566" y2="133.888328567661"/>
    <line x1="285.051211260567" y1="216.888328567662" x2="285.0001" y2="216.500100000008"/>
    <line x1="285.0001" y1="216.500100000008" x2="285.051211260567" y2="216.111871432354"/>
    <line x1="285.051211260567" y1="216.111871432354" x2="285.201061894324" y2="215.750100000008"/>
    <line x1="285.201061894324" y1="215.750100000008" x2="285.43943982822" y2="215.439439828228"/>
    <line x1="285.43943982822" y1="215.439439828228" x2="285.7501" y2="215.201061894331"/>
    <line x1="285.7501" y1="215.201061894331" x2="286.111871432346" y2="215.051211260574"/>
    <line x1="286.111871432346" y1="215.051211260574" x2="286.5001" y2="215.000100000008"/>
    <line x1="286.5001" y1="215.000100000008" x2="286.888328567654" y2="215.051211260574"/>
    <line x1="286.888328567654" y1="215.051211260574" x2="287.2501" y2="215.201061894331"/>
    <line x1="287.2501" y1="215.201061894331" x2="287.56076017178" y2="215.439439828228"/>
    <line x1="287.56076017178" y1="215.439439828228" x2="287.799138105677" y2="215.750100000008"/>
    <line x1="287.799138105677" y1="215.750100000008" x2="287.948988739434" y2="216.111871432354"/>
    <line x1="287.948988739434" y1="216.111871432354" x2="288.0001" y2="216.500100000008"/>
    <line x1="288.0001" y1="216.500100000008" x2="287.948988739434" y2="216.888328567662"/>
    <line x1="287.948988739434" y1="216.888328567662" x2="287.799138105677" y2="217.250100000008"/>
    <line x1="287.799138105677" y1="217.250100000008" x2="287.56076017178" y2="217.560760171788"/>
    <line x1="287.56076017178" y1="217.560760171788" x2="287.2501" y2="217.799138105685"/>
    <line x1="287.2501" y1="217.799138105685" x2="286.888328567654" y2="217.948988739441"/>
    <line x1="286.888328567654" y1="217.948988739441" x2="286.5001" y2="218.000100000008"/>
    <line x1="286.5001" y1="218.000100000008" x2="286.111871432346" y2="217.948988739441"/>
    <line x1="286.111871432346" y1="217.948988739441" x2="285.7501" y2="217.799138105685"/>
    <line x1="285.7501" y1="217.799138105685" x2="285.43943982822" y2="217.560760171788"/>
    <line x1="285.43943982822" y1="217.560760171788" x2="285.201061894324" y2="217.250100000008"/>
    <line x1="285.201061894324" y1="217.250100000008" x2="285.051211260567" y2="216.888328567662"/>
    <line x1="214.848988739434" y1="216.111871432354" x2="214.9001" y2="216.500100000008"/>
    <line x1="214.9001" y1="216.500100000008" x2="214.848988739434" y2="216.888328567662"/>
    <line x1="214.848988739434" y1="216.888328567662" x2="214.699138105677" y2="217.250100000008"/>
    <line x1="214.699138105677" y1="217.250100000008" x2="214.46076017178" y2="217.560760171788"/>
    <line x1="214.46076017178" y1="217.560760171788" x2="214.1501" y2="217.799138105685"/>
    <line x1="214.1501" y1="217.799138105685" x2="213.788328567654" y2="217.948988739441"/>
    <line x1="213.788328567654" y1="217.948988739441" x2="213.4001" y2="218.000100000008"/>
    <line x1="213.4001" y1="218.000100000008" x2="213.011871432346" y2="217.948988739441"/>
    <line x1="213.011871432346" y1="217.948988739441" x2="212.6501" y2="217.799138105685"/>
    <line x1="212.6501" y1="217.799138105685" x2="212.33943982822" y2="217.560760171788"/>
    <line x1="212.33943982822" y1="217.560760171788" x2="212.101061894323" y2="217.250100000008"/>
    <line x1="212.101061894323" y1="217.250100000008" x2="211.951211260567" y2="216.888328567662"/>
    <line x1="211.951211260567" y1="216.888328567662" x2="211.9001" y2="216.500100000008"/>
    <line x1="211.9001" y1="216.500100000008" x2="211.951211260567" y2="216.111871432354"/>
    <line x1="211.951211260567" y1="216.111871432354" x2="212.101061894323" y2="215.750100000008"/>
    <line x1="212.101061894323" y1="215.750100000008" x2="212.33943982822" y2="215.439439828228"/>
    <line x1="212.33943982822" y1="215.439439828228" x2="212.6501" y2="215.201061894331"/>
    <line x1="212.6501" y1="215.201061894331" x2="213.011871432346" y2="215.051211260574"/>
    <line x1="213.011871432346" y1="215.051211260574" x2="213.4001" y2="215.000100000008"/>
    <line x1="213.4001" y1="215.000100000008" x2="213.788328567654" y2="215.051211260574"/>
    <line x1="213.788328567654" y1="215.051211260574" x2="214.1501" y2="215.201061894331"/>
    <line x1="214.1501" y1="215.201061894331" x2="214.46076017178" y2="215.439439828228"/>
    <line x1="214.46076017178" y1="215.439439828228" x2="214.699138105677" y2="215.750100000008"/>
    <line x1="214.699138105677" y1="215.750100000008" x2="214.848988739434" y2="216.111871432354"/>
  </g>
</svg>
