<?xml version="1.0" standalone="no"?>
<!DOCTYPE svg PUBLIC "-//W3C//DTD SVG 1.1//EN" "http://www.w3.org/Graphics/SVG/1.1/DTD/svg11.dtd">
<svg width="453.0002mm" height="356.0002mm"
 viewBox="0 0 453.0002 356.0002"
 xmlns="http://www.w3.org/2000/svg" version="1.1"
 xmlns:xlink="http://www.w3.org/1999/xlink">
<desc>Output from Flights of Ideas SVG Sketchup Plugin</desc>

  <g id="face0" fill="none" stroke="rgb(0,0,255)" stroke-width="1" stroke-miterlimit="4" stroke-dasharray="none" stroke-linejoin="round" stroke-linecap="round">
    <line x1="453.0001" y1="0.0001" x2="0.0001" y2="0.000100000000113687"/>
    <line x1="0.0001" y1="0.000100000000113687" x2="0.0001" y2="356.0001"/>
    <line x1="0.0001" y1="356.0001" x2="453.0001" y2="356.0001"/>
    <line x1="453.0001" y1="356.0001" x2="453.0001" y2="0.0001"/>
    <line x1="13.0001" y1="3.00010000000392" x2="13.0001" y2="6.00009999999511"/>
    <line x1="13.0001" y1="6.00009999999511" x2="3.0001" y2="6.0001000000029"/>
    <line x1="3.0001" y1="6.0001000000029" x2="3.0001" y2="3.00010000000495"/>
    <line x1="3.0001" y1="3.00010000000495" x2="13.0001" y2="3.00010000000392"/>
    <line x1="56.0000999999998" y1="3.00009999999409" x2="56.0000999999998" y2="6.00009999999858"/>
    <line x1="56.0000999999998" y1="6.00009999999858" x2="36.0001" y2="6.00010000000119"/>
    <line x1="36.0001" y1="6.00010000000119" x2="36.0001" y2="3.00009999999841"/>
    <line x1="36.0001" y1="3.00009999999841" x2="56.0000999999998" y2="3.00009999999409"/>
    <line x1="106.0001" y1="3.0000999999979" x2="106.0001" y2="6.00009999999659"/>
    <line x1="106.0001" y1="6.00009999999659" x2="76.0001" y2="6.00009999999926"/>
    <line x1="76.0001" y1="6.00009999999926" x2="76.0001" y2="3.00010000000114"/>
    <line x1="76.0001" y1="3.00010000000114" x2="106.0001" y2="3.0000999999979"/>
    <line x1="380.0001" y1="3.00010000000006" x2="380.0001" y2="6.0001"/>
    <line x1="380.0001" y1="6.0001" x2="350.0001" y2="6.00010000000017"/>
    <line x1="350.0001" y1="6.00010000000017" x2="350.0001" y2="3.00009999999915"/>
    <line x1="350.0001" y1="3.00009999999915" x2="380.0001" y2="3.00010000000006"/>
    <line x1="420.0001" y1="6.00010000000011" x2="400.0001" y2="6.00010000000011"/>
    <line x1="400.0001" y1="6.00010000000011" x2="400.0001" y2="3.00009999999994"/>
    <line x1="400.0001" y1="3.00009999999994" x2="420.0001" y2="3.00010000000006"/>
    <line x1="420.0001" y1="3.00010000000006" x2="420.0001" y2="6.00010000000011"/>
    <line x1="450.0001" y1="3.00010000000006" x2="450.0001" y2="6.00010000000011"/>
    <line x1="450.0001" y1="6.00010000000011" x2="443.0001" y2="6.00010000000011"/>
    <line x1="443.0001" y1="6.00010000000011" x2="443.0001" y2="3.00010000000006"/>
    <line x1="443.0001" y1="3.00010000000006" x2="450.0001" y2="3.00010000000006"/>
    <line x1="447.0001" y1="49.0001000000001" x2="447.0001" y2="29.0001000000001"/>
    <line x1="447.0001" y1="29.0001000000001" x2="450.0001" y2="29.0001000000001"/>
    <line x1="450.0001" y1="29.0001000000001" x2="450.0001" y2="49.0001000000001"/>
    <line x1="450.0001" y1="49.0001000000001" x2="447.0001" y2="49.0001000000001"/>
    <line x1="447.0001" y1="69.0001000000001" x2="450.0001" y2="69.0001000000001"/>
    <line x1="450.0001" y1="69.0001000000001" x2="450.0001" y2="99.0001000000001"/>
    <line x1="450.0001" y1="99.0001000000001" x2="447.0001" y2="99.0001000000001"/>
    <line x1="447.0001" y1="99.0001000000001" x2="447.0001" y2="69.0001000000001"/>
    <line x1="447.0001" y1="168.0001" x2="450.0001" y2="168.0001"/>
    <line x1="450.0001" y1="168.0001" x2="450.0001" y2="188.0001"/>
    <line x1="450.0001" y1="188.0001" x2="447.0001" y2="188.0001"/>
    <line x1="447.0001" y1="188.0001" x2="447.0001" y2="168.0001"/>
    <line x1="450.0001" y1="257.0001" x2="450.0001" y2="287.0001"/>
    <line x1="450.0001" y1="287.0001" x2="447.0001" y2="287.0001"/>
    <line x1="447.0001" y1="287.0001" x2="447.0001" y2="257.0001"/>
    <line x1="447.0001" y1="257.0001" x2="450.0001" y2="257.0001"/>
    <line x1="447.0001" y1="327.0001" x2="447.0001" y2="307.0001"/>
    <line x1="447.0001" y1="307.0001" x2="450.0001" y2="307.0001"/>
    <line x1="450.0001" y1="307.0001" x2="450.0001" y2="327.0001"/>
    <line x1="450.0001" y1="327.0001" x2="447.0001" y2="327.0001"/>
    <line x1="450.0001" y1="350.0001" x2="450.0001" y2="353.0001"/>
    <line x1="450.0001" y1="353.0001" x2="443.0001" y2="353.0001"/>
    <line x1="443.0001" y1="353.0001" x2="443.0001" y2="350.0001"/>
    <line x1="443.0001" y1="350.0001" x2="450.0001" y2="350.0001"/>
    <line x1="370.0001" y1="353.0001" x2="370.0001" y2="350.0001"/>
    <line x1="370.0001" y1="350.0001" x2="400.0001" y2="350.0001"/>
    <line x1="400.0001" y1="350.0001" x2="400.0001" y2="353.0001"/>
    <line x1="400.0001" y1="353.0001" x2="370.0001" y2="353.0001"/>
    <line x1="320.0001" y1="353.0001" x2="320.0001" y2="350.0001"/>
    <line x1="320.0001" y1="350.0001" x2="350.0001" y2="350.0001"/>
    <line x1="350.0001" y1="350.0001" x2="350.0001" y2="353.0001"/>
    <line x1="350.0001" y1="353.0001" x2="320.0001" y2="353.0001"/>
    <line x1="61.0001" y1="353.0001" x2="61.0001" y2="350.0001"/>
    <line x1="61.0001" y1="350.0001" x2="91.0001" y2="350.0001"/>
    <line x1="91.0001" y1="350.0001" x2="91.0001" y2="353.0001"/>
    <line x1="91.0001" y1="353.0001" x2="61.0001" y2="353.0001"/>
    <line x1="41.0001" y1="353.0001" x2="21.0000999999998" y2="353.0001"/>
    <line x1="21.0000999999998" y1="353.0001" x2="21.0000999999998" y2="350.0001"/>
    <line x1="21.0000999999998" y1="350.0001" x2="41.0001" y2="350.0001"/>
    <line x1="41.0001" y1="350.0001" x2="41.0001" y2="353.0001"/>
    <line x1="3.0001" y1="353.0001" x2="3.0001" y2="350.0001"/>
    <line x1="3.0001" y1="350.0001" x2="8.0001" y2="350.0001"/>
    <line x1="8.0001" y1="350.0001" x2="8.0001" y2="353.0001"/>
    <line x1="8.0001" y1="353.0001" x2="3.0001" y2="353.0001"/>
    <line x1="16.0001" y1="351.5001" x2="15.9489887394336" y2="351.888328567654"/>
    <line x1="15.9489887394336" y1="351.888328567654" x2="15.7991381056766" y2="352.2501"/>
    <line x1="15.7991381056766" y1="352.2501" x2="15.5607601717798" y2="352.56076017178"/>
    <line x1="15.5607601717798" y1="352.56076017178" x2="15.2501" y2="352.799138105677"/>
    <line x1="15.2501" y1="352.799138105677" x2="14.8883285676539" y2="352.948988739434"/>
    <line x1="14.8883285676539" y1="352.948988739434" x2="14.5001" y2="353.0001"/>
    <line x1="14.5001" y1="353.0001" x2="14.1118714323459" y2="352.948988739434"/>
    <line x1="14.1118714323459" y1="352.948988739434" x2="13.7501" y2="352.799138105677"/>
    <line x1="13.7501" y1="352.799138105677" x2="13.43943982822" y2="352.56076017178"/>
    <line x1="13.43943982822" y1="352.56076017178" x2="13.2010618943232" y2="352.2501"/>
    <line x1="13.2010618943232" y1="352.2501" x2="13.0512112605664" y2="351.888328567654"/>
    <line x1="13.0512112605664" y1="351.888328567654" x2="13.0001" y2="351.5001"/>
    <line x1="13.0001" y1="351.5001" x2="13.0512112605661" y2="351.111871432346"/>
    <line x1="13.0512112605661" y1="351.111871432346" x2="13.2010618943234" y2="350.7501"/>
    <line x1="13.2010618943234" y1="350.7501" x2="13.4394398282202" y2="350.43943982822"/>
    <line x1="13.4394398282202" y1="350.43943982822" x2="13.7501" y2="350.201061894323"/>
    <line x1="13.7501" y1="350.201061894323" x2="14.1118714323459" y2="350.051211260566"/>
    <line x1="14.1118714323459" y1="350.051211260566" x2="14.5001" y2="350.0001"/>
    <line x1="14.5001" y1="350.0001" x2="14.8883285676539" y2="350.051211260567"/>
    <line x1="14.8883285676539" y1="350.051211260567" x2="15.2501" y2="350.201061894323"/>
    <line x1="15.2501" y1="350.201061894323" x2="15.5607601717798" y2="350.43943982822"/>
    <line x1="15.5607601717798" y1="350.43943982822" x2="15.7991381056766" y2="350.7501"/>
    <line x1="15.7991381056766" y1="350.7501" x2="15.9489887394336" y2="351.111871432346"/>
    <line x1="15.9489887394336" y1="351.111871432346" x2="16.0001" y2="351.5001"/>
    <line x1="114.0001" y1="351.5001" x2="113.948988739434" y2="351.888328567654"/>
    <line x1="113.948988739434" y1="351.888328567654" x2="113.799138105677" y2="352.2501"/>
    <line x1="113.799138105677" y1="352.2501" x2="113.56076017178" y2="352.56076017178"/>
    <line x1="113.56076017178" y1="352.56076017178" x2="113.2501" y2="352.799138105677"/>
    <line x1="113.2501" y1="352.799138105677" x2="112.888328567654" y2="352.948988739434"/>
    <line x1="112.888328567654" y1="352.948988739434" x2="112.5001" y2="353.0001"/>
    <line x1="112.5001" y1="353.0001" x2="112.111871432346" y2="352.948988739434"/>
    <line x1="112.111871432346" y1="352.948988739434" x2="111.7501" y2="352.799138105677"/>
    <line x1="111.7501" y1="352.799138105677" x2="111.43943982822" y2="352.56076017178"/>
    <line x1="111.43943982822" y1="352.56076017178" x2="111.201061894323" y2="352.2501"/>
    <line x1="111.201061894323" y1="352.2501" x2="111.051211260567" y2="351.888328567654"/>
    <line x1="111.051211260567" y1="351.888328567654" x2="111.0001" y2="351.5001"/>
    <line x1="111.0001" y1="351.5001" x2="111.051211260567" y2="351.111871432346"/>
    <line x1="111.051211260567" y1="351.111871432346" x2="111.201061894323" y2="350.7501"/>
    <line x1="111.201061894323" y1="350.7501" x2="111.43943982822" y2="350.43943982822"/>
    <line x1="111.43943982822" y1="350.43943982822" x2="111.7501" y2="350.201061894323"/>
    <line x1="111.7501" y1="350.201061894323" x2="112.111871432346" y2="350.051211260567"/>
    <line x1="112.111871432346" y1="350.051211260567" x2="112.5001" y2="350.0001"/>
    <line x1="112.5001" y1="350.0001" x2="112.888328567654" y2="350.051211260566"/>
    <line x1="112.888328567654" y1="350.051211260566" x2="113.2501" y2="350.201061894323"/>
    <line x1="113.2501" y1="350.201061894323" x2="113.56076017178" y2="350.43943982822"/>
    <line x1="113.56076017178" y1="350.43943982822" x2="113.799138105677" y2="350.7501"/>
    <line x1="113.799138105677" y1="350.7501" x2="113.948988739434" y2="351.111871432346"/>
    <line x1="113.948988739434" y1="351.111871432346" x2="114.0001" y2="351.5001"/>
    <line x1="300.0001" y1="351.5001" x2="299.948988739434" y2="351.888328567654"/>
    <line x1="299.948988739434" y1="351.888328567654" x2="299.799138105677" y2="352.2501"/>
    <line x1="299.799138105677" y1="352.2501" x2="299.56076017178" y2="352.56076017178"/>
    <line x1="299.56076017178" y1="352.56076017178" x2="299.2501" y2="352.799138105677"/>
    <line x1="299.2501" y1="352.799138105677" x2="298.888328567654" y2="352.948988739434"/>
    <line x1="298.888328567654" y1="352.948988739434" x2="298.5001" y2="353.0001"/>
    <line x1="298.5001" y1="353.0001" x2="298.111871432346" y2="352.948988739434"/>
    <line x1="298.111871432346" y1="352.948988739434" x2="297.7501" y2="352.799138105677"/>
    <line x1="297.7501" y1="352.799138105677" x2="297.43943982822" y2="352.56076017178"/>
    <line x1="297.43943982822" y1="352.56076017178" x2="297.201061894323" y2="352.2501"/>
    <line x1="297.201061894323" y1="352.2501" x2="297.051211260566" y2="351.888328567654"/>
    <line x1="297.051211260566" y1="351.888328567654" x2="297.0001" y2="351.5001"/>
    <line x1="297.0001" y1="351.5001" x2="297.051211260566" y2="351.111871432346"/>
    <line x1="297.051211260566" y1="351.111871432346" x2="297.201061894323" y2="350.7501"/>
    <line x1="297.201061894323" y1="350.7501" x2="297.43943982822" y2="350.43943982822"/>
    <line x1="297.43943982822" y1="350.43943982822" x2="297.7501" y2="350.201061894323"/>
    <line x1="297.7501" y1="350.201061894323" x2="298.111871432346" y2="350.051211260566"/>
    <line x1="298.111871432346" y1="350.051211260566" x2="298.5001" y2="350.0001"/>
    <line x1="298.5001" y1="350.0001" x2="298.888328567654" y2="350.051211260566"/>
    <line x1="298.888328567654" y1="350.051211260566" x2="299.2501" y2="350.201061894323"/>
    <line x1="299.2501" y1="350.201061894323" x2="299.56076017178" y2="350.43943982822"/>
    <line x1="299.56076017178" y1="350.43943982822" x2="299.799138105677" y2="350.7501"/>
    <line x1="299.799138105677" y1="350.7501" x2="299.948988739434" y2="351.111871432346"/>
    <line x1="299.948988739434" y1="351.111871432346" x2="300.0001" y2="351.5001"/>
    <line x1="423.0001" y1="351.5001" x2="422.948988739434" y2="351.888328567654"/>
    <line x1="422.948988739434" y1="351.888328567654" x2="422.799138105677" y2="352.2501"/>
    <line x1="422.799138105677" y1="352.2501" x2="422.56076017178" y2="352.56076017178"/>
    <line x1="422.56076017178" y1="352.56076017178" x2="422.2501" y2="352.799138105677"/>
    <line x1="422.2501" y1="352.799138105677" x2="421.888328567654" y2="352.948988739434"/>
    <line x1="421.888328567654" y1="352.948988739434" x2="421.5001" y2="353.0001"/>
    <line x1="421.5001" y1="353.0001" x2="421.111871432346" y2="352.948988739434"/>
    <line x1="421.111871432346" y1="352.948988739434" x2="420.7501" y2="352.799138105677"/>
    <line x1="420.7501" y1="352.799138105677" x2="420.43943982822" y2="352.56076017178"/>
    <line x1="420.43943982822" y1="352.56076017178" x2="420.201061894323" y2="352.2501"/>
    <line x1="420.201061894323" y1="352.2501" x2="420.051211260566" y2="351.888328567654"/>
    <line x1="420.051211260566" y1="351.888328567654" x2="420.0001" y2="351.5001"/>
    <line x1="420.0001" y1="351.5001" x2="420.051211260566" y2="351.111871432346"/>
    <line x1="420.051211260566" y1="351.111871432346" x2="420.201061894323" y2="350.7501"/>
    <line x1="420.201061894323" y1="350.7501" x2="420.43943982822" y2="350.43943982822"/>
    <line x1="420.43943982822" y1="350.43943982822" x2="420.7501" y2="350.201061894323"/>
    <line x1="420.7501" y1="350.201061894323" x2="421.111871432346" y2="350.051211260566"/>
    <line x1="421.111871432346" y1="350.051211260566" x2="421.5001" y2="350.0001"/>
    <line x1="421.5001" y1="350.0001" x2="421.888328567654" y2="350.051211260566"/>
    <line x1="421.888328567654" y1="350.051211260566" x2="422.2501" y2="350.201061894323"/>
    <line x1="422.2501" y1="350.201061894323" x2="422.56076017178" y2="350.43943982822"/>
    <line x1="422.56076017178" y1="350.43943982822" x2="422.799138105677" y2="350.7501"/>
    <line x1="422.799138105677" y1="350.7501" x2="422.948988739434" y2="351.111871432346"/>
    <line x1="422.948988739434" y1="351.111871432346" x2="423.0001" y2="351.5001"/>
    <line x1="448.5001" y1="337.0001" x2="448.888328567654" y2="337.051211260566"/>
    <line x1="448.888328567654" y1="337.051211260566" x2="449.2501" y2="337.201061894323"/>
    <line x1="449.2501" y1="337.201061894323" x2="449.56076017178" y2="337.43943982822"/>
    <line x1="449.56076017178" y1="337.43943982822" x2="449.799138105677" y2="337.7501"/>
    <line x1="449.799138105677" y1="337.7501" x2="449.948988739434" y2="338.111871432346"/>
    <line x1="449.948988739434" y1="338.111871432346" x2="450.0001" y2="338.5001"/>
    <line x1="450.0001" y1="338.5001" x2="449.948988739434" y2="338.888328567654"/>
    <line x1="449.948988739434" y1="338.888328567654" x2="449.799138105677" y2="339.2501"/>
    <line x1="449.799138105677" y1="339.2501" x2="449.56076017178" y2="339.56076017178"/>
    <line x1="449.56076017178" y1="339.56076017178" x2="449.2501" y2="339.799138105677"/>
    <line x1="449.2501" y1="339.799138105677" x2="448.888328567654" y2="339.948988739434"/>
    <line x1="448.888328567654" y1="339.948988739434" x2="448.5001" y2="340.0001"/>
    <line x1="448.5001" y1="340.0001" x2="448.111871432346" y2="339.948988739434"/>
    <line x1="448.111871432346" y1="339.948988739434" x2="447.7501" y2="339.799138105677"/>
    <line x1="447.7501" y1="339.799138105677" x2="447.43943982822" y2="339.56076017178"/>
    <line x1="447.43943982822" y1="339.56076017178" x2="447.201061894323" y2="339.2501"/>
    <line x1="447.201061894323" y1="339.2501" x2="447.051211260566" y2="338.888328567654"/>
    <line x1="447.051211260566" y1="338.888328567654" x2="447.0001" y2="338.5001"/>
    <line x1="447.0001" y1="338.5001" x2="447.051211260566" y2="338.111871432346"/>
    <line x1="447.051211260566" y1="338.111871432346" x2="447.201061894323" y2="337.7501"/>
    <line x1="447.201061894323" y1="337.7501" x2="447.43943982822" y2="337.43943982822"/>
    <line x1="447.43943982822" y1="337.43943982822" x2="447.7501" y2="337.201061894323"/>
    <line x1="447.7501" y1="337.201061894323" x2="448.111871432346" y2="337.051211260566"/>
    <line x1="448.111871432346" y1="337.051211260566" x2="448.5001" y2="337.0001"/>
    <line x1="448.5001" y1="234.0001" x2="448.888328567654" y2="234.051211260567"/>
    <line x1="448.888328567654" y1="234.051211260567" x2="449.2501" y2="234.201061894323"/>
    <line x1="449.2501" y1="234.201061894323" x2="449.56076017178" y2="234.43943982822"/>
    <line x1="449.56076017178" y1="234.43943982822" x2="449.799138105677" y2="234.7501"/>
    <line x1="449.799138105677" y1="234.7501" x2="449.948988739434" y2="235.111871432346"/>
    <line x1="449.948988739434" y1="235.111871432346" x2="450.0001" y2="235.5001"/>
    <line x1="450.0001" y1="235.5001" x2="449.948988739434" y2="235.888328567654"/>
    <line x1="449.948988739434" y1="235.888328567654" x2="449.799138105677" y2="236.2501"/>
    <line x1="449.799138105677" y1="236.2501" x2="449.56076017178" y2="236.56076017178"/>
    <line x1="449.56076017178" y1="236.56076017178" x2="449.2501" y2="236.799138105677"/>
    <line x1="449.2501" y1="236.799138105677" x2="448.888328567654" y2="236.948988739434"/>
    <line x1="448.888328567654" y1="236.948988739434" x2="448.5001" y2="237.0001"/>
    <line x1="448.5001" y1="237.0001" x2="448.111871432346" y2="236.948988739434"/>
    <line x1="448.111871432346" y1="236.948988739434" x2="447.7501" y2="236.799138105677"/>
    <line x1="447.7501" y1="236.799138105677" x2="447.43943982822" y2="236.56076017178"/>
    <line x1="447.43943982822" y1="236.56076017178" x2="447.201061894323" y2="236.2501"/>
    <line x1="447.201061894323" y1="236.2501" x2="447.051211260566" y2="235.888328567654"/>
    <line x1="447.051211260566" y1="235.888328567654" x2="447.0001" y2="235.5001"/>
    <line x1="447.0001" y1="235.5001" x2="447.051211260566" y2="235.111871432346"/>
    <line x1="447.051211260566" y1="235.111871432346" x2="447.201061894323" y2="234.7501"/>
    <line x1="447.201061894323" y1="234.7501" x2="447.43943982822" y2="234.43943982822"/>
    <line x1="447.43943982822" y1="234.43943982822" x2="447.7501" y2="234.201061894323"/>
    <line x1="447.7501" y1="234.201061894323" x2="448.111871432346" y2="234.051211260567"/>
    <line x1="448.111871432346" y1="234.051211260567" x2="448.5001" y2="234.0001"/>
    <line x1="448.5001" y1="119.0001" x2="448.888328567654" y2="119.051211260567"/>
    <line x1="448.888328567654" y1="119.051211260567" x2="449.2501" y2="119.201061894323"/>
    <line x1="449.2501" y1="119.201061894323" x2="449.56076017178" y2="119.43943982822"/>
    <line x1="449.56076017178" y1="119.43943982822" x2="449.799138105677" y2="119.7501"/>
    <line x1="449.799138105677" y1="119.7501" x2="449.948988739434" y2="120.111871432346"/>
    <line x1="449.948988739434" y1="120.111871432346" x2="450.0001" y2="120.5001"/>
    <line x1="450.0001" y1="120.5001" x2="449.948988739434" y2="120.888328567654"/>
    <line x1="449.948988739434" y1="120.888328567654" x2="449.799138105677" y2="121.2501"/>
    <line x1="449.799138105677" y1="121.2501" x2="449.56076017178" y2="121.56076017178"/>
    <line x1="449.56076017178" y1="121.56076017178" x2="449.2501" y2="121.799138105677"/>
    <line x1="449.2501" y1="121.799138105677" x2="448.888328567654" y2="121.948988739434"/>
    <line x1="448.888328567654" y1="121.948988739434" x2="448.5001" y2="122.0001"/>
    <line x1="448.5001" y1="122.0001" x2="448.111871432346" y2="121.948988739434"/>
    <line x1="448.111871432346" y1="121.948988739434" x2="447.7501" y2="121.799138105677"/>
    <line x1="447.7501" y1="121.799138105677" x2="447.43943982822" y2="121.56076017178"/>
    <line x1="447.43943982822" y1="121.56076017178" x2="447.201061894323" y2="121.2501"/>
    <line x1="447.201061894323" y1="121.2501" x2="447.051211260566" y2="120.888328567654"/>
    <line x1="447.051211260566" y1="120.888328567654" x2="447.0001" y2="120.5001"/>
    <line x1="447.0001" y1="120.5001" x2="447.051211260566" y2="120.111871432346"/>
    <line x1="447.051211260566" y1="120.111871432346" x2="447.201061894323" y2="119.7501"/>
    <line x1="447.201061894323" y1="119.7501" x2="447.43943982822" y2="119.43943982822"/>
    <line x1="447.43943982822" y1="119.43943982822" x2="447.7501" y2="119.201061894323"/>
    <line x1="447.7501" y1="119.201061894323" x2="448.111871432346" y2="119.051211260567"/>
    <line x1="448.111871432346" y1="119.051211260567" x2="448.5001" y2="119.0001"/>
    <line x1="448.5001" y1="16.0001" x2="448.888328567654" y2="16.0512112605665"/>
    <line x1="448.888328567654" y1="16.0512112605665" x2="449.2501" y2="16.2010618943234"/>
    <line x1="449.2501" y1="16.2010618943234" x2="449.56076017178" y2="16.4394398282202"/>
    <line x1="449.56076017178" y1="16.4394398282202" x2="449.799138105677" y2="16.7501"/>
    <line x1="449.799138105677" y1="16.7501" x2="449.948988739434" y2="17.1118714323463"/>
    <line x1="449.948988739434" y1="17.1118714323463" x2="450.0001" y2="17.5001"/>
    <line x1="450.0001" y1="17.5001" x2="449.948988739433" y2="17.8883285676539"/>
    <line x1="449.948988739433" y1="17.8883285676539" x2="449.799138105677" y2="18.2501"/>
    <line x1="449.799138105677" y1="18.2501" x2="449.56076017178" y2="18.5607601717798"/>
    <line x1="449.56076017178" y1="18.5607601717798" x2="449.2501" y2="18.7991381056767"/>
    <line x1="449.2501" y1="18.7991381056767" x2="448.888328567654" y2="18.9489887394337"/>
    <line x1="448.888328567654" y1="18.9489887394337" x2="448.5001" y2="19.0001"/>
    <line x1="448.5001" y1="19.0001" x2="448.111871432346" y2="18.9489887394337"/>
    <line x1="448.111871432346" y1="18.9489887394337" x2="447.7501" y2="18.7991381056767"/>
    <line x1="447.7501" y1="18.7991381056767" x2="447.43943982822" y2="18.5607601717798"/>
    <line x1="447.43943982822" y1="18.5607601717798" x2="447.201061894323" y2="18.2501"/>
    <line x1="447.201061894323" y1="18.2501" x2="447.051211260566" y2="17.8883285676539"/>
    <line x1="447.051211260566" y1="17.8883285676539" x2="447.0001" y2="17.5001"/>
    <line x1="447.0001" y1="17.5001" x2="447.051211260566" y2="17.1118714323463"/>
    <line x1="447.051211260566" y1="17.1118714323463" x2="447.201061894323" y2="16.7501"/>
    <line x1="447.201061894323" y1="16.7501" x2="447.43943982822" y2="16.4394398282202"/>
    <line x1="447.43943982822" y1="16.4394398282202" x2="447.7501" y2="16.2010618943234"/>
    <line x1="447.7501" y1="16.2010618943234" x2="448.111871432346" y2="16.0512112605665"/>
    <line x1="448.111871432346" y1="16.0512112605665" x2="448.5001" y2="16.0001"/>
    <line x1="430.0001" y1="4.50010000000006" x2="430.051211260566" y2="4.11187143234619"/>
    <line x1="430.051211260566" y1="4.11187143234619" x2="430.201061894323" y2="3.75010000000006"/>
    <line x1="430.201061894323" y1="3.75010000000006" x2="430.43943982822" y2="3.43943982822028"/>
    <line x1="430.43943982822" y1="3.43943982822028" x2="430.7501" y2="3.20106189432331"/>
    <line x1="430.7501" y1="3.20106189432331" x2="431.111871432346" y2="3.05121126056636"/>
    <line x1="431.111871432346" y1="3.05121126056636" x2="431.5001" y2="3.00010000000006"/>
    <line x1="431.5001" y1="3.00010000000006" x2="431.888328567654" y2="3.05121126056636"/>
    <line x1="431.888328567654" y1="3.05121126056636" x2="432.2501" y2="3.20106189432331"/>
    <line x1="432.2501" y1="3.20106189432331" x2="432.56076017178" y2="3.43943982822028"/>
    <line x1="432.56076017178" y1="3.43943982822028" x2="432.799138105677" y2="3.75010000000006"/>
    <line x1="432.799138105677" y1="3.75010000000006" x2="432.948988739434" y2="4.11187143234619"/>
    <line x1="432.948988739434" y1="4.11187143234619" x2="433.0001" y2="4.50010000000006"/>
    <line x1="433.0001" y1="4.50010000000006" x2="432.948988739434" y2="4.88832856765381"/>
    <line x1="432.948988739434" y1="4.88832856765381" x2="432.799138105677" y2="5.25010000000011"/>
    <line x1="432.799138105677" y1="5.25010000000011" x2="432.56076017178" y2="5.56076017177989"/>
    <line x1="432.56076017178" y1="5.56076017177989" x2="432.2501" y2="5.79913810567669"/>
    <line x1="432.2501" y1="5.79913810567669" x2="431.888328567654" y2="5.94898873943358"/>
    <line x1="431.888328567654" y1="5.94898873943358" x2="431.5001" y2="6.00010000000011"/>
    <line x1="431.5001" y1="6.00010000000011" x2="431.111871432346" y2="5.94898873943358"/>
    <line x1="431.111871432346" y1="5.94898873943358" x2="430.7501" y2="5.79913810567669"/>
    <line x1="430.7501" y1="5.79913810567669" x2="430.43943982822" y2="5.56076017177989"/>
    <line x1="430.43943982822" y1="5.56076017177989" x2="430.201061894323" y2="5.25010000000011"/>
    <line x1="430.201061894323" y1="5.25010000000011" x2="430.051211260566" y2="4.88832856765381"/>
    <line x1="430.051211260566" y1="4.88832856765381" x2="430.0001" y2="4.50010000000006"/>
    <line x1="327.0001" y1="4.50010000000034" x2="327.051211260566" y2="4.1118714323459"/>
    <line x1="327.051211260566" y1="4.1118714323459" x2="327.201061894323" y2="3.75010000000023"/>
    <line x1="327.201061894323" y1="3.75010000000023" x2="327.43943982822" y2="3.43943982822017"/>
    <line x1="327.43943982822" y1="3.43943982822017" x2="327.7501" y2="3.20106189432365"/>
    <line x1="327.7501" y1="3.20106189432365" x2="328.111871432346" y2="3.05121126056647"/>
    <line x1="328.111871432346" y1="3.05121126056647" x2="328.5001" y2="3.00009999999989"/>
    <line x1="328.5001" y1="3.00009999999989" x2="328.888328567654" y2="3.05121126056676"/>
    <line x1="328.888328567654" y1="3.05121126056676" x2="329.2501" y2="3.20106189432257"/>
    <line x1="329.2501" y1="3.20106189432257" x2="329.56076017178" y2="3.43943982822074"/>
    <line x1="329.56076017178" y1="3.43943982822074" x2="329.799138105677" y2="3.75010000000051"/>
    <line x1="329.799138105677" y1="3.75010000000051" x2="329.948988739434" y2="4.11187143234607"/>
    <line x1="329.948988739434" y1="4.11187143234607" x2="330.0001" y2="4.50010000000006"/>
    <line x1="330.0001" y1="4.50010000000006" x2="329.948988739434" y2="4.88832856765398"/>
    <line x1="329.948988739434" y1="4.88832856765398" x2="329.799138105677" y2="5.25010000000051"/>
    <line x1="329.799138105677" y1="5.25010000000051" x2="329.56076017178" y2="5.56076017177977"/>
    <line x1="329.56076017178" y1="5.56076017177977" x2="329.2501" y2="5.79913810567646"/>
    <line x1="329.2501" y1="5.79913810567646" x2="328.888328567654" y2="5.9489887394337"/>
    <line x1="328.888328567654" y1="5.9489887394337" x2="328.5001" y2="6.00010000000017"/>
    <line x1="328.5001" y1="6.00010000000017" x2="328.111871432346" y2="5.9489887394333"/>
    <line x1="328.111871432346" y1="5.9489887394333" x2="327.7501" y2="5.79913810567657"/>
    <line x1="327.7501" y1="5.79913810567657" x2="327.43943982822" y2="5.56076017178017"/>
    <line x1="327.43943982822" y1="5.56076017178017" x2="327.201061894323" y2="5.25010000000011"/>
    <line x1="327.201061894323" y1="5.25010000000011" x2="327.051211260566" y2="4.88832856765432"/>
    <line x1="327.051211260566" y1="4.88832856765432" x2="327.0001" y2="4.50010000000034"/>
    <line x1="126.0001" y1="4.5001000000008" x2="126.051211260567" y2="4.11187143234437"/>
    <line x1="126.051211260567" y1="4.11187143234437" x2="126.201061894323" y2="3.75010000000358"/>
    <line x1="126.201061894323" y1="3.75010000000358" x2="126.43943982822" y2="3.43943982821829"/>
    <line x1="126.43943982822" y1="3.43943982821829" x2="126.7501" y2="3.20106189432439"/>
    <line x1="126.7501" y1="3.20106189432439" x2="127.111871432346" y2="3.05121126056556"/>
    <line x1="127.111871432346" y1="3.05121126056556" x2="127.5001" y2="3.00010000000233"/>
    <line x1="127.5001" y1="3.00010000000233" x2="127.888328567654" y2="3.05121126056909"/>
    <line x1="127.888328567654" y1="3.05121126056909" x2="128.2501" y2="3.20106189432405"/>
    <line x1="128.2501" y1="3.20106189432405" x2="128.56076017178" y2="3.43943982822136"/>
    <line x1="128.56076017178" y1="3.43943982822136" x2="128.799138105677" y2="3.75010000000279"/>
    <line x1="128.799138105677" y1="3.75010000000279" x2="128.948988739434" y2="4.111871432343"/>
    <line x1="128.948988739434" y1="4.111871432343" x2="129.0001" y2="4.50010000000006"/>
    <line x1="129.0001" y1="4.50010000000006" x2="128.948988739434" y2="4.88832856765535"/>
    <line x1="128.948988739434" y1="4.88832856765535" x2="128.799138105677" y2="5.25010000000074"/>
    <line x1="128.799138105677" y1="5.25010000000074" x2="128.56076017178" y2="5.56076017178188"/>
    <line x1="128.56076017178" y1="5.56076017178188" x2="128.2501" y2="5.79913810567555"/>
    <line x1="128.2501" y1="5.79913810567555" x2="127.888328567654" y2="5.94898873943205"/>
    <line x1="127.888328567654" y1="5.94898873943205" x2="127.5001" y2="6.0001000000008"/>
    <line x1="127.5001" y1="6.0001000000008" x2="127.111871432346" y2="5.94898873943296"/>
    <line x1="127.111871432346" y1="5.94898873943296" x2="126.7501" y2="5.79913810567828"/>
    <line x1="126.7501" y1="5.79913810567828" x2="126.43943982822" y2="5.56076017178102"/>
    <line x1="126.43943982822" y1="5.56076017178102" x2="126.201061894323" y2="5.25009999999926"/>
    <line x1="126.201061894323" y1="5.25009999999926" x2="126.051211260567" y2="4.88832856765245"/>
    <line x1="126.051211260567" y1="4.88832856765245" x2="126.0001" y2="4.5001000000008"/>
    <line x1="23.0001" y1="4.50009999999881" x2="23.0512112605664" y2="4.11187143234744"/>
    <line x1="23.0512112605664" y1="4.11187143234744" x2="23.2010618943234" y2="3.75010000000153"/>
    <line x1="23.2010618943234" y1="3.75010000000153" x2="23.4394398282202" y2="3.43943982821557"/>
    <line x1="23.4394398282202" y1="3.43943982821557" x2="23.7501" y2="3.20106189432348"/>
    <line x1="23.7501" y1="3.20106189432348" x2="24.1118714323464" y2="3.05121126055959"/>
    <line x1="24.1118714323464" y1="3.05121126055959" x2="24.5001" y2="3.00010000001035"/>
    <line x1="24.5001" y1="3.00010000001035" x2="24.8883285676536" y2="3.05121126057233"/>
    <line x1="24.8883285676536" y1="3.05121126057233" x2="25.2501" y2="3.20106189433042"/>
    <line x1="25.2501" y1="3.20106189433042" x2="25.5607601717798" y2="3.43943982821403"/>
    <line x1="25.5607601717798" y1="3.43943982821403" x2="25.7991381056766" y2="3.7501000000025"/>
    <line x1="25.7991381056766" y1="3.7501000000025" x2="25.9489887394334" y2="4.11187143234141"/>
    <line x1="25.9489887394334" y1="4.11187143234141" x2="26.0001" y2="4.50009999999756"/>
    <line x1="26.0001" y1="4.50009999999756" x2="25.9489887394334" y2="4.88832856765739"/>
    <line x1="25.9489887394334" y1="4.88832856765739" x2="25.7991381056766" y2="5.25010000000091"/>
    <line x1="25.7991381056766" y1="5.25010000000091" x2="25.5607601717798" y2="5.56076017177824"/>
    <line x1="25.5607601717798" y1="5.56076017177824" x2="25.2501" y2="5.799138105676"/>
    <line x1="25.2501" y1="5.799138105676" x2="24.8883285676536" y2="5.9489887394337"/>
    <line x1="24.8883285676536" y1="5.9489887394337" x2="24.5001" y2="6.00009999999972"/>
    <line x1="24.5001" y1="6.00009999999972" x2="24.1118714323464" y2="5.94898873943449"/>
    <line x1="24.1118714323464" y1="5.94898873943449" x2="23.7501" y2="5.79913810567504"/>
    <line x1="23.7501" y1="5.79913810567504" x2="23.4394398282202" y2="5.56076017177864"/>
    <line x1="23.4394398282202" y1="5.56076017177864" x2="23.2010618943234" y2="5.25010000000188"/>
    <line x1="23.2010618943234" y1="5.25010000000188" x2="23.0512112605664" y2="4.88832856765324"/>
    <line x1="23.0512112605664" y1="4.88832856765324" x2="23.0001" y2="4.50009999999881"/>
  </g>
</svg>
