<?xml version="1.0" standalone="no"?>
<!DOCTYPE svg PUBLIC "-//W3C//DTD SVG 1.1//EN" "http://www.w3.org/Graphics/SVG/1.1/DTD/svg11.dtd">
<svg width="14.9999999999999mm" height="62.0mm"
 viewBox="0 0 14.9999999999999 62.0"
 xmlns="http://www.w3.org/2000/svg" version="1.1"
 xmlns:xlink="http://www.w3.org/1999/xlink">
<desc>Output from Flights of Ideas SVG Sketchup Plugin</desc>

  <g id="face0" fill="none" stroke="rgb(0,0,255)" stroke-width="1" stroke-miterlimit="4" stroke-dasharray="none" stroke-linejoin="round" stroke-linecap="round">
    <line x1="1.0" y1="1.0" x2="1.0" y2="61.0"/>
    <line x1="1.0" y1="61.0" x2="13.9999999999999" y2="61.0"/>
    <line x1="13.9999999999999" y1="61.0" x2="13.9999999999999" y2="1.0"/>
    <line x1="13.9999999999999" y1="1.0" x2="1.0" y2="1.0"/>
    <line x1="7.1117714323463" y1="4.05111126056636" x2="7.5" y2="3.99999999999977"/>
    <line x1="7.5" y1="3.99999999999977" x2="7.8882285676537" y2="4.05111126056636"/>
    <line x1="7.8882285676537" y1="4.05111126056636" x2="8.25" y2="4.2009618943232"/>
    <line x1="8.25" y1="4.2009618943232" x2="8.56066017177977" y2="4.43933982822023"/>
    <line x1="8.56066017177977" y1="4.43933982822023" x2="8.79903810567674" y2="4.74999999999977"/>
    <line x1="8.79903810567674" y1="4.74999999999977" x2="8.9488887394337" y2="5.11177143234613"/>
    <line x1="8.9488887394337" y1="5.11177143234613" x2="9.0" y2="5.49999999999977"/>
    <line x1="9.0" y1="5.49999999999977" x2="8.9488887394337" y2="5.88822856765375"/>
    <line x1="8.9488887394337" y1="5.88822856765375" x2="8.79903810567674" y2="6.24999999999989"/>
    <line x1="8.79903810567674" y1="6.24999999999989" x2="8.56066017177977" y2="6.56066017177977"/>
    <line x1="8.56066017177977" y1="6.56066017177977" x2="8.25" y2="6.79903810567657"/>
    <line x1="8.25" y1="6.79903810567657" x2="7.8882285676537" y2="6.94888873943353"/>
    <line x1="7.8882285676537" y1="6.94888873943353" x2="7.5" y2="7.0"/>
    <line x1="7.5" y1="7.0" x2="7.1117714323463" y2="6.94888873943353"/>
    <line x1="7.1117714323463" y1="6.94888873943353" x2="6.75" y2="6.79903810567657"/>
    <line x1="6.75" y1="6.79903810567657" x2="6.43933982822017" y2="6.56066017177966"/>
    <line x1="6.43933982822017" y1="6.56066017177966" x2="6.2009618943232" y2="6.24999999999989"/>
    <line x1="6.2009618943232" y1="6.24999999999989" x2="6.0511112605663" y2="5.88822856765375"/>
    <line x1="6.0511112605663" y1="5.88822856765375" x2="5.99999999999994" y2="5.5"/>
    <line x1="5.99999999999994" y1="5.5" x2="6.0511112605663" y2="5.11177143234613"/>
    <line x1="6.0511112605663" y1="5.11177143234613" x2="6.2009618943232" y2="4.75"/>
    <line x1="6.2009618943232" y1="4.75" x2="6.43933982822017" y2="4.43933982822023"/>
    <line x1="6.43933982822017" y1="4.43933982822023" x2="6.75" y2="4.2009618943232"/>
    <line x1="6.75" y1="4.2009618943232" x2="7.1117714323463" y2="4.05111126056636"/>
    <line x1="7.8882285676537" y1="57.9488887394336" x2="7.5" y2="58.0"/>
    <line x1="7.5" y1="58.0" x2="7.1117714323463" y2="57.9488887394336"/>
    <line x1="7.1117714323463" y1="57.9488887394336" x2="6.75" y2="57.7990381056766"/>
    <line x1="6.75" y1="57.7990381056766" x2="6.43933982822017" y2="57.5606601717798"/>
    <line x1="6.43933982822017" y1="57.5606601717798" x2="6.2009618943232" y2="57.25"/>
    <line x1="6.2009618943232" y1="57.25" x2="6.0511112605663" y2="56.8882285676539"/>
    <line x1="6.0511112605663" y1="56.8882285676539" x2="5.99999999999994" y2="56.5"/>
    <line x1="5.99999999999994" y1="56.5" x2="6.0511112605663" y2="56.1117714323462"/>
    <line x1="6.0511112605663" y1="56.1117714323462" x2="6.2009618943232" y2="55.75"/>
    <line x1="6.2009618943232" y1="55.75" x2="6.43933982822017" y2="55.4393398282201"/>
    <line x1="6.43933982822017" y1="55.4393398282201" x2="6.75" y2="55.2009618943232"/>
    <line x1="6.75" y1="55.2009618943232" x2="7.1117714323463" y2="55.0511112605662"/>
    <line x1="7.1117714323463" y1="55.0511112605662" x2="7.5" y2="54.9999999999999"/>
    <line x1="7.5" y1="54.9999999999999" x2="7.8882285676537" y2="55.0511112605662"/>
    <line x1="7.8882285676537" y1="55.0511112605662" x2="8.25" y2="55.2009618943232"/>
    <line x1="8.25" y1="55.2009618943232" x2="8.56066017177977" y2="55.4393398282201"/>
    <line x1="8.56066017177977" y1="55.4393398282201" x2="8.79903810567674" y2="55.75"/>
    <line x1="8.79903810567674" y1="55.75" x2="8.9488887394337" y2="56.111771432346"/>
    <line x1="8.9488887394337" y1="56.111771432346" x2="9.0" y2="56.5"/>
    <line x1="9.0" y1="56.5" x2="8.9488887394337" y2="56.8882285676536"/>
    <line x1="8.9488887394337" y1="56.8882285676536" x2="8.79903810567674" y2="57.25"/>
    <line x1="8.79903810567674" y1="57.25" x2="8.56066017177977" y2="57.5606601717798"/>
    <line x1="8.56066017177977" y1="57.5606601717798" x2="8.25" y2="57.7990381056767"/>
    <line x1="8.25" y1="57.7990381056767" x2="7.8882285676537" y2="57.9488887394336"/>
  </g>
</svg>
