<?xml version="1.0" standalone="no"?>
<!DOCTYPE svg PUBLIC "-//W3C//DTD SVG 1.1//EN" "http://www.w3.org/Graphics/SVG/1.1/DTD/svg11.dtd">
<svg width="492.0002mm" height="350.0002mm"
 viewBox="0 0 492.0002 350.0002"
 xmlns="http://www.w3.org/2000/svg" version="1.1"
 xmlns:xlink="http://www.w3.org/1999/xlink">
<desc>Output from Flights of Ideas SVG Sketchup Plugin</desc>

  <g id="face0" fill="none" stroke="rgb(0,0,255)" stroke-width="1" stroke-miterlimit="4" stroke-dasharray="none" stroke-linejoin="round" stroke-linecap="round">
    <line x1="492.0001" y1="0.0001" x2="0.0001" y2="0.000100000000063949"/>
    <line x1="0.0001" y1="0.000100000000063949" x2="0.0001" y2="350.0001"/>
    <line x1="0.0001" y1="350.0001" x2="492.0001" y2="350.0001"/>
    <line x1="492.0001" y1="350.0001" x2="492.0001" y2="0.0001"/>
    <line x1="443.0001" y1="300.0001" x2="49.0001" y2="300.0001"/>
    <line x1="49.0001" y1="300.0001" x2="49.0001" y2="50.0001000000005"/>
    <line x1="49.0001" y1="50.0001000000005" x2="443.0001" y2="50.0001"/>
    <line x1="443.0001" y1="50.0001" x2="443.0001" y2="300.0001"/>
    <line x1="247.111871432346" y1="33.0512112605662" x2="247.5001" y2="33.0000999999999"/>
    <line x1="247.5001" y1="33.0000999999999" x2="247.888328567654" y2="33.0512112605664"/>
    <line x1="247.888328567654" y1="33.0512112605664" x2="248.2501" y2="33.2010618943232"/>
    <line x1="248.2501" y1="33.2010618943232" x2="248.56076017178" y2="33.4394398282202"/>
    <line x1="248.56076017178" y1="33.4394398282202" x2="248.799138105677" y2="33.7500999999997"/>
    <line x1="248.799138105677" y1="33.7500999999997" x2="248.948988739434" y2="34.1118714323461"/>
    <line x1="248.948988739434" y1="34.1118714323461" x2="249.0001" y2="34.5001000000001"/>
    <line x1="249.0001" y1="34.5001000000001" x2="248.948988739434" y2="34.8883285676538"/>
    <line x1="248.948988739434" y1="34.8883285676538" x2="248.799138105677" y2="35.2501"/>
    <line x1="248.799138105677" y1="35.2501" x2="248.56076017178" y2="35.5607601717803"/>
    <line x1="248.56076017178" y1="35.5607601717803" x2="248.2501" y2="35.7991381056769"/>
    <line x1="248.2501" y1="35.7991381056769" x2="247.888328567654" y2="35.9489887394336"/>
    <line x1="247.888328567654" y1="35.9489887394336" x2="247.5001" y2="36.0000999999997"/>
    <line x1="247.5001" y1="36.0000999999997" x2="247.111871432346" y2="35.9489887394336"/>
    <line x1="247.111871432346" y1="35.9489887394336" x2="246.7501" y2="35.799138105677"/>
    <line x1="246.7501" y1="35.799138105677" x2="246.43943982822" y2="35.5607601717799"/>
    <line x1="246.43943982822" y1="35.5607601717799" x2="246.201061894323" y2="35.2500999999999"/>
    <line x1="246.201061894323" y1="35.2500999999999" x2="246.051211260566" y2="34.8883285676539"/>
    <line x1="246.051211260566" y1="34.8883285676539" x2="246.0001" y2="34.5000999999999"/>
    <line x1="246.0001" y1="34.5000999999999" x2="246.051211260566" y2="34.111871432346"/>
    <line x1="246.051211260566" y1="34.111871432346" x2="246.201061894323" y2="33.7501"/>
    <line x1="246.201061894323" y1="33.7501" x2="246.43943982822" y2="33.4394398282198"/>
    <line x1="246.43943982822" y1="33.4394398282198" x2="246.7501" y2="33.2010618943234"/>
    <line x1="246.7501" y1="33.2010618943234" x2="247.111871432346" y2="33.0512112605662"/>
    <line x1="247.111871432346" y1="15.0512112605672" x2="247.5001" y2="15.0000999999996"/>
    <line x1="247.5001" y1="15.0000999999996" x2="247.888328567654" y2="15.0512112605661"/>
    <line x1="247.888328567654" y1="15.0512112605661" x2="248.2501" y2="15.2010618943232"/>
    <line x1="248.2501" y1="15.2010618943232" x2="248.56076017178" y2="15.4394398282203"/>
    <line x1="248.56076017178" y1="15.4394398282203" x2="248.799138105677" y2="15.7500999999999"/>
    <line x1="248.799138105677" y1="15.7500999999999" x2="248.948988739434" y2="16.1118714323462"/>
    <line x1="248.948988739434" y1="16.1118714323462" x2="249.0001" y2="16.5000999999998"/>
    <line x1="249.0001" y1="16.5000999999998" x2="248.948988739434" y2="16.8883285676533"/>
    <line x1="248.948988739434" y1="16.8883285676533" x2="248.799138105677" y2="17.2501000000004"/>
    <line x1="248.799138105677" y1="17.2501000000004" x2="248.56076017178" y2="17.56076017178"/>
    <line x1="248.56076017178" y1="17.56076017178" x2="248.2501" y2="17.7991381056764"/>
    <line x1="248.2501" y1="17.7991381056764" x2="247.888328567654" y2="17.9489887394337"/>
    <line x1="247.888328567654" y1="17.9489887394337" x2="247.5001" y2="18.0000999999999"/>
    <line x1="247.5001" y1="18.0000999999999" x2="247.111871432346" y2="17.9489887394335"/>
    <line x1="247.111871432346" y1="17.9489887394335" x2="246.7501" y2="17.7991381056765"/>
    <line x1="246.7501" y1="17.7991381056765" x2="246.43943982822" y2="17.5607601717796"/>
    <line x1="246.43943982822" y1="17.5607601717796" x2="246.201061894323" y2="17.2501000000004"/>
    <line x1="246.201061894323" y1="17.2501000000004" x2="246.051211260566" y2="16.8883285676533"/>
    <line x1="246.051211260566" y1="16.8883285676533" x2="246.0001" y2="16.5000999999998"/>
    <line x1="246.0001" y1="16.5000999999998" x2="246.051211260566" y2="16.1118714323453"/>
    <line x1="246.051211260566" y1="16.1118714323453" x2="246.201061894323" y2="15.7500999999999"/>
    <line x1="246.201061894323" y1="15.7500999999999" x2="246.43943982822" y2="15.4394398282199"/>
    <line x1="246.43943982822" y1="15.4394398282199" x2="246.7501" y2="15.2010618943233"/>
    <line x1="246.7501" y1="15.2010618943233" x2="247.111871432346" y2="15.0512112605672"/>
    <line x1="246.0001" y1="23.0000999999997" x2="249.0001" y2="23.0001000000001"/>
    <line x1="249.0001" y1="23.0001000000001" x2="249.0001" y2="28.0001"/>
    <line x1="249.0001" y1="28.0001" x2="246.0001" y2="28.0001"/>
    <line x1="246.0001" y1="28.0001" x2="246.0001" y2="23.0000999999997"/>
    <line x1="249.0001" y1="5.00010000000062" x2="249.0001" y2="10.0001000000006"/>
    <line x1="249.0001" y1="10.0001000000006" x2="246.0001" y2="10.0000999999997"/>
    <line x1="246.0001" y1="10.0000999999997" x2="246.0001" y2="5.00010000000077"/>
    <line x1="246.0001" y1="5.00010000000077" x2="249.0001" y2="5.00010000000062"/>
    <line x1="23.6118714323461" y1="336.051211260566" x2="24.0001" y2="336.0001"/>
    <line x1="24.0001" y1="336.0001" x2="24.3883285676534" y2="336.051211260567"/>
    <line x1="24.3883285676534" y1="336.051211260567" x2="24.7500999999998" y2="336.201061894323"/>
    <line x1="24.7500999999998" y1="336.201061894323" x2="25.0607601717798" y2="336.43943982822"/>
    <line x1="25.0607601717798" y1="336.43943982822" x2="25.2991381056763" y2="336.7501"/>
    <line x1="25.2991381056763" y1="336.7501" x2="25.4489887394336" y2="337.111871432346"/>
    <line x1="25.4489887394336" y1="337.111871432346" x2="25.5001" y2="337.5001"/>
    <line x1="25.5001" y1="337.5001" x2="25.4489887394332" y2="337.888328567654"/>
    <line x1="25.4489887394332" y1="337.888328567654" x2="25.2991381056763" y2="338.2501"/>
    <line x1="25.2991381056763" y1="338.2501" x2="25.0607601717798" y2="338.56076017178"/>
    <line x1="25.0607601717798" y1="338.56076017178" x2="24.7500999999998" y2="338.799138105677"/>
    <line x1="24.7500999999998" y1="338.799138105677" x2="24.3883285676539" y2="338.948988739434"/>
    <line x1="24.3883285676539" y1="338.948988739434" x2="24.0001" y2="339.0001"/>
    <line x1="24.0001" y1="339.0001" x2="23.6118714323461" y2="338.948988739434"/>
    <line x1="23.6118714323461" y1="338.948988739434" x2="23.2500999999998" y2="338.799138105677"/>
    <line x1="23.2500999999998" y1="338.799138105677" x2="22.9394398282202" y2="338.56076017178"/>
    <line x1="22.9394398282202" y1="338.56076017178" x2="22.7010618943232" y2="338.2501"/>
    <line x1="22.7010618943232" y1="338.2501" x2="22.5512112605664" y2="337.888328567654"/>
    <line x1="22.5512112605664" y1="337.888328567654" x2="22.5001" y2="337.5001"/>
    <line x1="22.5001" y1="337.5001" x2="22.5512112605664" y2="337.111871432346"/>
    <line x1="22.5512112605664" y1="337.111871432346" x2="22.7010618943232" y2="336.7501"/>
    <line x1="22.7010618943232" y1="336.7501" x2="22.9394398282202" y2="336.43943982822"/>
    <line x1="22.9394398282202" y1="336.43943982822" x2="23.2500999999998" y2="336.201061894323"/>
    <line x1="23.2500999999998" y1="336.201061894323" x2="23.6118714323461" y2="336.051211260566"/>
    <line x1="17.4489887394336" y1="331.111871432346" x2="17.5001" y2="331.5001"/>
    <line x1="17.5001" y1="331.5001" x2="17.4489887394334" y2="331.888328567654"/>
    <line x1="17.4489887394334" y1="331.888328567654" x2="17.2991381056768" y2="332.2501"/>
    <line x1="17.2991381056768" y1="332.2501" x2="17.0607601717798" y2="332.56076017178"/>
    <line x1="17.0607601717798" y1="332.56076017178" x2="16.7501000000002" y2="332.799138105677"/>
    <line x1="16.7501000000002" y1="332.799138105677" x2="16.3883285676534" y2="332.948988739434"/>
    <line x1="16.3883285676534" y1="332.948988739434" x2="16.0001" y2="333.0001"/>
    <line x1="16.0001" y1="333.0001" x2="15.6118714323461" y2="332.948988739434"/>
    <line x1="15.6118714323461" y1="332.948988739434" x2="15.2500999999998" y2="332.799138105677"/>
    <line x1="15.2500999999998" y1="332.799138105677" x2="14.9394398282202" y2="332.56076017178"/>
    <line x1="14.9394398282202" y1="332.56076017178" x2="14.7010618943232" y2="332.2501"/>
    <line x1="14.7010618943232" y1="332.2501" x2="14.5512112605664" y2="331.888328567654"/>
    <line x1="14.5512112605664" y1="331.888328567654" x2="14.5001" y2="331.5001"/>
    <line x1="14.5001" y1="331.5001" x2="14.5512112605664" y2="331.111871432346"/>
    <line x1="14.5512112605664" y1="331.111871432346" x2="14.7010618943232" y2="330.7501"/>
    <line x1="14.7010618943232" y1="330.7501" x2="14.9394398282202" y2="330.43943982822"/>
    <line x1="14.9394398282202" y1="330.43943982822" x2="15.2500999999998" y2="330.201061894323"/>
    <line x1="15.2500999999998" y1="330.201061894323" x2="15.6118714323461" y2="330.051211260567"/>
    <line x1="15.6118714323461" y1="330.051211260567" x2="16.0001" y2="330.0001"/>
    <line x1="16.0001" y1="330.0001" x2="16.3883285676534" y2="330.051211260566"/>
    <line x1="16.3883285676534" y1="330.051211260566" x2="16.7500999999998" y2="330.201061894323"/>
    <line x1="16.7500999999998" y1="330.201061894323" x2="17.0607601717798" y2="330.43943982822"/>
    <line x1="17.0607601717798" y1="330.43943982822" x2="17.2991381056768" y2="330.7501"/>
    <line x1="17.2991381056768" y1="330.7501" x2="17.4489887394336" y2="331.111871432346"/>
    <line x1="33.4489887394336" y1="331.111871432346" x2="33.5001" y2="331.5001"/>
    <line x1="33.5001" y1="331.5001" x2="33.4489887394332" y2="331.888328567654"/>
    <line x1="33.4489887394332" y1="331.888328567654" x2="33.2991381056768" y2="332.2501"/>
    <line x1="33.2991381056768" y1="332.2501" x2="33.0607601717798" y2="332.56076017178"/>
    <line x1="33.0607601717798" y1="332.56076017178" x2="32.7500999999998" y2="332.799138105676"/>
    <line x1="32.7500999999998" y1="332.799138105676" x2="32.3883285676539" y2="332.948988739434"/>
    <line x1="32.3883285676539" y1="332.948988739434" x2="32.0001" y2="333.0001"/>
    <line x1="32.0001" y1="333.0001" x2="31.6118714323464" y2="332.948988739434"/>
    <line x1="31.6118714323464" y1="332.948988739434" x2="31.2500999999998" y2="332.799138105676"/>
    <line x1="31.2500999999998" y1="332.799138105676" x2="30.9394398282202" y2="332.56076017178"/>
    <line x1="30.9394398282202" y1="332.56076017178" x2="30.7010618943232" y2="332.2501"/>
    <line x1="30.7010618943232" y1="332.2501" x2="30.5512112605664" y2="331.888328567654"/>
    <line x1="30.5512112605664" y1="331.888328567654" x2="30.5001" y2="331.5001"/>
    <line x1="30.5001" y1="331.5001" x2="30.5512112605664" y2="331.111871432346"/>
    <line x1="30.5512112605664" y1="331.111871432346" x2="30.7010618943232" y2="330.7501"/>
    <line x1="30.7010618943232" y1="330.7501" x2="30.9394398282202" y2="330.43943982822"/>
    <line x1="30.9394398282202" y1="330.43943982822" x2="31.2500999999998" y2="330.201061894323"/>
    <line x1="31.2500999999998" y1="330.201061894323" x2="31.6118714323461" y2="330.051211260566"/>
    <line x1="31.6118714323461" y1="330.051211260566" x2="32.0001" y2="330.0001"/>
    <line x1="32.0001" y1="330.0001" x2="32.3883285676539" y2="330.051211260566"/>
    <line x1="32.3883285676539" y1="330.051211260566" x2="32.7501000000002" y2="330.201061894323"/>
    <line x1="32.7501000000002" y1="330.201061894323" x2="33.0607601717798" y2="330.43943982822"/>
    <line x1="33.0607601717798" y1="330.43943982822" x2="33.2991381056768" y2="330.7501"/>
    <line x1="33.2991381056768" y1="330.7501" x2="33.4489887394336" y2="331.111871432346"/>
    <line x1="467.611871432346" y1="336.051211260566" x2="468.0001" y2="336.0001"/>
    <line x1="468.0001" y1="336.0001" x2="468.388328567654" y2="336.051211260566"/>
    <line x1="468.388328567654" y1="336.051211260566" x2="468.7501" y2="336.201061894323"/>
    <line x1="468.7501" y1="336.201061894323" x2="469.06076017178" y2="336.43943982822"/>
    <line x1="469.06076017178" y1="336.43943982822" x2="469.299138105677" y2="336.7501"/>
    <line x1="469.299138105677" y1="336.7501" x2="469.448988739434" y2="337.111871432346"/>
    <line x1="469.448988739434" y1="337.111871432346" x2="469.5001" y2="337.5001"/>
    <line x1="469.5001" y1="337.5001" x2="469.448988739434" y2="337.888328567654"/>
    <line x1="469.448988739434" y1="337.888328567654" x2="469.299138105677" y2="338.2501"/>
    <line x1="469.299138105677" y1="338.2501" x2="469.06076017178" y2="338.56076017178"/>
    <line x1="469.06076017178" y1="338.56076017178" x2="468.7501" y2="338.799138105677"/>
    <line x1="468.7501" y1="338.799138105677" x2="468.388328567654" y2="338.948988739434"/>
    <line x1="468.388328567654" y1="338.948988739434" x2="468.0001" y2="339.0001"/>
    <line x1="468.0001" y1="339.0001" x2="467.611871432346" y2="338.948988739434"/>
    <line x1="467.611871432346" y1="338.948988739434" x2="467.2501" y2="338.799138105677"/>
    <line x1="467.2501" y1="338.799138105677" x2="466.93943982822" y2="338.56076017178"/>
    <line x1="466.93943982822" y1="338.56076017178" x2="466.701061894323" y2="338.2501"/>
    <line x1="466.701061894323" y1="338.2501" x2="466.551211260566" y2="337.888328567654"/>
    <line x1="466.551211260566" y1="337.888328567654" x2="466.5001" y2="337.5001"/>
    <line x1="466.5001" y1="337.5001" x2="466.551211260566" y2="337.111871432346"/>
    <line x1="466.551211260566" y1="337.111871432346" x2="466.701061894323" y2="336.7501"/>
    <line x1="466.701061894323" y1="336.7501" x2="466.93943982822" y2="336.43943982822"/>
    <line x1="466.93943982822" y1="336.43943982822" x2="467.2501" y2="336.201061894323"/>
    <line x1="467.2501" y1="336.201061894323" x2="467.611871432346" y2="336.051211260566"/>
    <line x1="461.448988739434" y1="331.111871432346" x2="461.5001" y2="331.5001"/>
    <line x1="461.5001" y1="331.5001" x2="461.448988739434" y2="331.888328567654"/>
    <line x1="461.448988739434" y1="331.888328567654" x2="461.299138105677" y2="332.2501"/>
    <line x1="461.299138105677" y1="332.2501" x2="461.06076017178" y2="332.56076017178"/>
    <line x1="461.06076017178" y1="332.56076017178" x2="460.7501" y2="332.799138105677"/>
    <line x1="460.7501" y1="332.799138105677" x2="460.388328567654" y2="332.948988739434"/>
    <line x1="460.388328567654" y1="332.948988739434" x2="460.0001" y2="333.0001"/>
    <line x1="460.0001" y1="333.0001" x2="459.611871432346" y2="332.948988739434"/>
    <line x1="459.611871432346" y1="332.948988739434" x2="459.2501" y2="332.799138105677"/>
    <line x1="459.2501" y1="332.799138105677" x2="458.93943982822" y2="332.56076017178"/>
    <line x1="458.93943982822" y1="332.56076017178" x2="458.701061894323" y2="332.2501"/>
    <line x1="458.701061894323" y1="332.2501" x2="458.551211260566" y2="331.888328567654"/>
    <line x1="458.551211260566" y1="331.888328567654" x2="458.5001" y2="331.5001"/>
    <line x1="458.5001" y1="331.5001" x2="458.551211260566" y2="331.111871432346"/>
    <line x1="458.551211260566" y1="331.111871432346" x2="458.701061894323" y2="330.7501"/>
    <line x1="458.701061894323" y1="330.7501" x2="458.93943982822" y2="330.43943982822"/>
    <line x1="458.93943982822" y1="330.43943982822" x2="459.2501" y2="330.201061894323"/>
    <line x1="459.2501" y1="330.201061894323" x2="459.611871432346" y2="330.051211260566"/>
    <line x1="459.611871432346" y1="330.051211260566" x2="460.0001" y2="330.0001"/>
    <line x1="460.0001" y1="330.0001" x2="460.388328567654" y2="330.051211260566"/>
    <line x1="460.388328567654" y1="330.051211260566" x2="460.7501" y2="330.201061894323"/>
    <line x1="460.7501" y1="330.201061894323" x2="461.06076017178" y2="330.43943982822"/>
    <line x1="461.06076017178" y1="330.43943982822" x2="461.299138105677" y2="330.7501"/>
    <line x1="461.299138105677" y1="330.7501" x2="461.448988739434" y2="331.111871432346"/>
    <line x1="474.551211260566" y1="331.888328567654" x2="474.5001" y2="331.5001"/>
    <line x1="474.5001" y1="331.5001" x2="474.551211260566" y2="331.111871432346"/>
    <line x1="474.551211260566" y1="331.111871432346" x2="474.701061894323" y2="330.7501"/>
    <line x1="474.701061894323" y1="330.7501" x2="474.93943982822" y2="330.43943982822"/>
    <line x1="474.93943982822" y1="330.43943982822" x2="475.2501" y2="330.201061894323"/>
    <line x1="475.2501" y1="330.201061894323" x2="475.611871432346" y2="330.051211260566"/>
    <line x1="475.611871432346" y1="330.051211260566" x2="476.0001" y2="330.0001"/>
    <line x1="476.0001" y1="330.0001" x2="476.388328567654" y2="330.051211260566"/>
    <line x1="476.388328567654" y1="330.051211260566" x2="476.7501" y2="330.201061894323"/>
    <line x1="476.7501" y1="330.201061894323" x2="477.06076017178" y2="330.43943982822"/>
    <line x1="477.06076017178" y1="330.43943982822" x2="477.299138105677" y2="330.7501"/>
    <line x1="477.299138105677" y1="330.7501" x2="477.448988739434" y2="331.111871432346"/>
    <line x1="477.448988739434" y1="331.111871432346" x2="477.5001" y2="331.5001"/>
    <line x1="477.5001" y1="331.5001" x2="477.448988739434" y2="331.888328567654"/>
    <line x1="477.448988739434" y1="331.888328567654" x2="477.299138105677" y2="332.2501"/>
    <line x1="477.299138105677" y1="332.2501" x2="477.06076017178" y2="332.56076017178"/>
    <line x1="477.06076017178" y1="332.56076017178" x2="476.7501" y2="332.799138105677"/>
    <line x1="476.7501" y1="332.799138105677" x2="476.388328567654" y2="332.948988739434"/>
    <line x1="476.388328567654" y1="332.948988739434" x2="476.0001" y2="333.0001"/>
    <line x1="476.0001" y1="333.0001" x2="475.611871432346" y2="332.948988739434"/>
    <line x1="475.611871432346" y1="332.948988739434" x2="475.2501" y2="332.799138105677"/>
    <line x1="475.2501" y1="332.799138105677" x2="474.93943982822" y2="332.56076017178"/>
    <line x1="474.93943982822" y1="332.56076017178" x2="474.701061894323" y2="332.2501"/>
    <line x1="474.701061894323" y1="332.2501" x2="474.551211260566" y2="331.888328567654"/>
    <line x1="247.111871432346" y1="336.051211260566" x2="247.5001" y2="336.0001"/>
    <line x1="247.5001" y1="336.0001" x2="247.888328567654" y2="336.051211260566"/>
    <line x1="247.888328567654" y1="336.051211260566" x2="248.2501" y2="336.201061894323"/>
    <line x1="248.2501" y1="336.201061894323" x2="248.56076017178" y2="336.43943982822"/>
    <line x1="248.56076017178" y1="336.43943982822" x2="248.799138105677" y2="336.7501"/>
    <line x1="248.799138105677" y1="336.7501" x2="248.948988739434" y2="337.111871432346"/>
    <line x1="248.948988739434" y1="337.111871432346" x2="249.0001" y2="337.5001"/>
    <line x1="249.0001" y1="337.5001" x2="248.948988739434" y2="337.888328567654"/>
    <line x1="248.948988739434" y1="337.888328567654" x2="248.799138105677" y2="338.2501"/>
    <line x1="248.799138105677" y1="338.2501" x2="248.56076017178" y2="338.56076017178"/>
    <line x1="248.56076017178" y1="338.56076017178" x2="248.2501" y2="338.799138105677"/>
    <line x1="248.2501" y1="338.799138105677" x2="247.888328567654" y2="338.948988739434"/>
    <line x1="247.888328567654" y1="338.948988739434" x2="247.5001" y2="339.0001"/>
    <line x1="247.5001" y1="339.0001" x2="247.111871432346" y2="338.948988739434"/>
    <line x1="247.111871432346" y1="338.948988739434" x2="246.7501" y2="338.799138105677"/>
    <line x1="246.7501" y1="338.799138105677" x2="246.43943982822" y2="338.56076017178"/>
    <line x1="246.43943982822" y1="338.56076017178" x2="246.201061894323" y2="338.2501"/>
    <line x1="246.201061894323" y1="338.2501" x2="246.051211260566" y2="337.888328567654"/>
    <line x1="246.051211260566" y1="337.888328567654" x2="246.0001" y2="337.5001"/>
    <line x1="246.0001" y1="337.5001" x2="246.051211260566" y2="337.111871432346"/>
    <line x1="246.051211260566" y1="337.111871432346" x2="246.201061894323" y2="336.7501"/>
    <line x1="246.201061894323" y1="336.7501" x2="246.43943982822" y2="336.43943982822"/>
    <line x1="246.43943982822" y1="336.43943982822" x2="246.7501" y2="336.201061894323"/>
    <line x1="246.7501" y1="336.201061894323" x2="247.111871432346" y2="336.051211260566"/>
    <line x1="240.948988739434" y1="331.111871432346" x2="241.0001" y2="331.5001"/>
    <line x1="241.0001" y1="331.5001" x2="240.948988739434" y2="331.888328567654"/>
    <line x1="240.948988739434" y1="331.888328567654" x2="240.799138105677" y2="332.2501"/>
    <line x1="240.799138105677" y1="332.2501" x2="240.56076017178" y2="332.56076017178"/>
    <line x1="240.56076017178" y1="332.56076017178" x2="240.2501" y2="332.799138105677"/>
    <line x1="240.2501" y1="332.799138105677" x2="239.888328567654" y2="332.948988739434"/>
    <line x1="239.888328567654" y1="332.948988739434" x2="239.5001" y2="333.0001"/>
    <line x1="239.5001" y1="333.0001" x2="239.111871432346" y2="332.948988739434"/>
    <line x1="239.111871432346" y1="332.948988739434" x2="238.7501" y2="332.799138105677"/>
    <line x1="238.7501" y1="332.799138105677" x2="238.43943982822" y2="332.56076017178"/>
    <line x1="238.43943982822" y1="332.56076017178" x2="238.201061894323" y2="332.2501"/>
    <line x1="238.201061894323" y1="332.2501" x2="238.051211260567" y2="331.888328567654"/>
    <line x1="238.051211260567" y1="331.888328567654" x2="238.0001" y2="331.5001"/>
    <line x1="238.0001" y1="331.5001" x2="238.051211260567" y2="331.111871432346"/>
    <line x1="238.051211260567" y1="331.111871432346" x2="238.201061894323" y2="330.7501"/>
    <line x1="238.201061894323" y1="330.7501" x2="238.43943982822" y2="330.43943982822"/>
    <line x1="238.43943982822" y1="330.43943982822" x2="238.7501" y2="330.201061894323"/>
    <line x1="238.7501" y1="330.201061894323" x2="239.111871432346" y2="330.051211260566"/>
    <line x1="239.111871432346" y1="330.051211260566" x2="239.5001" y2="330.0001"/>
    <line x1="239.5001" y1="330.0001" x2="239.888328567654" y2="330.051211260566"/>
    <line x1="239.888328567654" y1="330.051211260566" x2="240.2501" y2="330.201061894323"/>
    <line x1="240.2501" y1="330.201061894323" x2="240.56076017178" y2="330.43943982822"/>
    <line x1="240.56076017178" y1="330.43943982822" x2="240.799138105677" y2="330.7501"/>
    <line x1="240.799138105677" y1="330.7501" x2="240.948988739434" y2="331.111871432346"/>
    <line x1="256.948988739434" y1="331.111871432346" x2="257.0001" y2="331.5001"/>
    <line x1="257.0001" y1="331.5001" x2="256.948988739434" y2="331.888328567654"/>
    <line x1="256.948988739434" y1="331.888328567654" x2="256.799138105677" y2="332.2501"/>
    <line x1="256.799138105677" y1="332.2501" x2="256.56076017178" y2="332.56076017178"/>
    <line x1="256.56076017178" y1="332.56076017178" x2="256.2501" y2="332.799138105677"/>
    <line x1="256.2501" y1="332.799138105677" x2="255.888328567654" y2="332.948988739434"/>
    <line x1="255.888328567654" y1="332.948988739434" x2="255.5001" y2="333.0001"/>
    <line x1="255.5001" y1="333.0001" x2="255.111871432346" y2="332.948988739434"/>
    <line x1="255.111871432346" y1="332.948988739434" x2="254.7501" y2="332.799138105677"/>
    <line x1="254.7501" y1="332.799138105677" x2="254.43943982822" y2="332.56076017178"/>
    <line x1="254.43943982822" y1="332.56076017178" x2="254.201061894323" y2="332.2501"/>
    <line x1="254.201061894323" y1="332.2501" x2="254.051211260567" y2="331.888328567654"/>
    <line x1="254.051211260567" y1="331.888328567654" x2="254.0001" y2="331.5001"/>
    <line x1="254.0001" y1="331.5001" x2="254.051211260566" y2="331.111871432346"/>
    <line x1="254.051211260566" y1="331.111871432346" x2="254.201061894323" y2="330.7501"/>
    <line x1="254.201061894323" y1="330.7501" x2="254.43943982822" y2="330.43943982822"/>
    <line x1="254.43943982822" y1="330.43943982822" x2="254.7501" y2="330.201061894323"/>
    <line x1="254.7501" y1="330.201061894323" x2="255.111871432346" y2="330.051211260566"/>
    <line x1="255.111871432346" y1="330.051211260566" x2="255.5001" y2="330.0001"/>
    <line x1="255.5001" y1="330.0001" x2="255.888328567654" y2="330.051211260566"/>
    <line x1="255.888328567654" y1="330.051211260566" x2="256.2501" y2="330.201061894323"/>
    <line x1="256.2501" y1="330.201061894323" x2="256.56076017178" y2="330.43943982822"/>
    <line x1="256.56076017178" y1="330.43943982822" x2="256.799138105677" y2="330.7501"/>
    <line x1="256.799138105677" y1="330.7501" x2="256.948988739434" y2="331.111871432346"/>
    <line x1="12.5001" y1="330.0001" x2="12.5001" y2="333.0001"/>
    <line x1="12.5001" y1="333.0001" x2="7.5001" y2="333.0001"/>
    <line x1="7.5001" y1="333.0001" x2="7.50009999999977" y2="330.0001"/>
    <line x1="7.50009999999977" y1="330.0001" x2="12.5001" y2="330.0001"/>
    <line x1="25.5001" y1="325.0001" x2="25.5001" y2="330.0001"/>
    <line x1="25.5001" y1="330.0001" x2="22.5001" y2="330.0001"/>
    <line x1="22.5001" y1="330.0001" x2="22.5001" y2="325.0001"/>
    <line x1="22.5001" y1="325.0001" x2="25.5001" y2="325.0001"/>
    <line x1="40.5001" y1="330.0001" x2="40.5000999999998" y2="333.0001"/>
    <line x1="40.5000999999998" y1="333.0001" x2="35.5000999999998" y2="333.0001"/>
    <line x1="35.5000999999998" y1="333.0001" x2="35.5000999999998" y2="330.0001"/>
    <line x1="35.5000999999998" y1="330.0001" x2="40.5001" y2="330.0001"/>
    <line x1="236.0001" y1="333.0001" x2="231.0001" y2="333.0001"/>
    <line x1="231.0001" y1="333.0001" x2="231.0001" y2="330.0001"/>
    <line x1="231.0001" y1="330.0001" x2="236.0001" y2="330.0001"/>
    <line x1="236.0001" y1="330.0001" x2="236.0001" y2="333.0001"/>
    <line x1="249.0001" y1="330.0001" x2="246.0001" y2="330.0001"/>
    <line x1="246.0001" y1="330.0001" x2="246.0001" y2="325.0001"/>
    <line x1="246.0001" y1="325.0001" x2="249.0001" y2="325.0001"/>
    <line x1="249.0001" y1="325.0001" x2="249.0001" y2="330.0001"/>
    <line x1="264.0001" y1="330.0001" x2="264.0001" y2="333.0001"/>
    <line x1="264.0001" y1="333.0001" x2="259.0001" y2="333.0001"/>
    <line x1="259.0001" y1="333.0001" x2="259.0001" y2="330.0001"/>
    <line x1="259.0001" y1="330.0001" x2="264.0001" y2="330.0001"/>
    <line x1="456.5001" y1="330.0001" x2="456.5001" y2="333.0001"/>
    <line x1="456.5001" y1="333.0001" x2="451.5001" y2="333.0001"/>
    <line x1="451.5001" y1="333.0001" x2="451.5001" y2="330.0001"/>
    <line x1="451.5001" y1="330.0001" x2="456.5001" y2="330.0001"/>
    <line x1="469.5001" y1="330.0001" x2="466.5001" y2="330.0001"/>
    <line x1="466.5001" y1="330.0001" x2="466.5001" y2="325.0001"/>
    <line x1="466.5001" y1="325.0001" x2="469.5001" y2="325.0001"/>
    <line x1="469.5001" y1="325.0001" x2="469.5001" y2="330.0001"/>
    <line x1="484.5001" y1="330.0001" x2="484.5001" y2="333.0001"/>
    <line x1="484.5001" y1="333.0001" x2="479.5001" y2="333.0001"/>
    <line x1="479.5001" y1="333.0001" x2="479.5001" y2="330.0001"/>
    <line x1="479.5001" y1="330.0001" x2="484.5001" y2="330.0001"/>
  </g>
</svg>
