<?xml version="1.0" standalone="no"?>
<!DOCTYPE svg PUBLIC "-//W3C//DTD SVG 1.1//EN" "http://www.w3.org/Graphics/SVG/1.1/DTD/svg11.dtd">
<svg width="28.0001999999998mm" height="50.0002mm"
 viewBox="0 0 28.0001999999998 50.0002"
 xmlns="http://www.w3.org/2000/svg" version="1.1"
 xmlns:xlink="http://www.w3.org/1999/xlink">
<desc>Output from Flights of Ideas SVG Sketchup Plugin</desc>

  <g id="face0" fill="none" stroke="rgb(0,0,255)" stroke-width="1" stroke-miterlimit="4" stroke-dasharray="none" stroke-linejoin="round" stroke-linecap="round">
    <line x1="28.0000999999998" y1="0.0001" x2="5.00009999999977" y2="0.0001"/>
    <line x1="5.00009999999977" y1="0.0001" x2="4.34746903889961" y2="0.0428756931313184"/>
    <line x1="4.34746903889961" y1="0.0428756931313184" x2="3.70600477448718" y2="0.170470868554642"/>
    <line x1="3.70600477448718" y1="0.170470868554642" x2="3.08668283817431" y2="0.380702337443861"/>
    <line x1="3.08668283817431" y1="0.380702337443861" x2="2.50009999999977" y2="0.669972981077845"/>
    <line x1="2.50009999999977" y1="0.669972981077845" x2="1.95629285495627" y2="1.03333329854402"/>
    <line x1="1.95629285495627" y1="1.03333329854402" x2="1.46456609406712" y2="1.46456609406735"/>
    <line x1="1.46456609406712" y1="1.46456609406735" x2="1.03333329854379" y2="1.95629285495656"/>
    <line x1="1.03333329854379" y1="1.95629285495656" x2="0.669972981077788" y2="2.50010000000017"/>
    <line x1="0.669972981077788" y1="2.50010000000017" x2="0.380702337443406" y2="3.08668283817465"/>
    <line x1="0.380702337443406" y1="3.08668283817465" x2="0.170470868554528" y2="3.70600477448746"/>
    <line x1="0.170470868554528" y1="3.70600477448746" x2="0.0428756931308068" y2="4.34746903889984"/>
    <line x1="0.0428756931308068" y1="4.34746903889984" x2="0.0001" y2="5.00010000000011"/>
    <line x1="0.0001" y1="5.00010000000011" x2="0.0001" y2="50.0001"/>
    <line x1="0.0001" y1="50.0001" x2="13.0000999999998" y2="50.0001"/>
    <line x1="13.0000999999998" y1="50.0001" x2="13.0000999999998" y2="46.0001"/>
    <line x1="13.0000999999998" y1="46.0001" x2="11.0001" y2="46.0001"/>
    <line x1="11.0001" y1="46.0001" x2="11.0000999999998" y2="47.3001000000001"/>
    <line x1="11.0000999999998" y1="47.3001000000001" x2="8.80009999999995" y2="47.3001000000001"/>
    <line x1="8.80009999999995" y1="47.3001000000001" x2="8.80009999999995" y2="46.0001"/>
    <line x1="8.80009999999995" y1="46.0001" x2="5.80009999999973" y2="46.0001"/>
    <line x1="5.80009999999973" y1="46.0001" x2="5.80009999999973" y2="43.0001000000001"/>
    <line x1="5.80009999999973" y1="43.0001000000001" x2="8.80009999999995" y2="43.0001000000001"/>
    <line x1="8.80009999999995" y1="43.0001000000001" x2="8.80009999999995" y2="41.7001000000001"/>
    <line x1="8.80009999999995" y1="41.7001000000001" x2="11.0001" y2="41.7001000000001"/>
    <line x1="11.0001" y1="41.7001000000001" x2="11.0001" y2="43.0001000000001"/>
    <line x1="11.0001" y1="43.0001000000001" x2="13.0000999999998" y2="43.0001000000001"/>
    <line x1="13.0000999999998" y1="43.0001000000001" x2="13.0000999999998" y2="38.0001"/>
    <line x1="13.0000999999998" y1="38.0001" x2="16.0000999999998" y2="38.0001"/>
    <line x1="16.0000999999998" y1="38.0001" x2="16.0000999999998" y2="33.0001000000001"/>
    <line x1="16.0000999999998" y1="33.0001000000001" x2="13.0000999999998" y2="33.0001000000001"/>
    <line x1="13.0000999999998" y1="33.0001000000001" x2="13.0000999999998" y2="28.0001000000001"/>
    <line x1="13.0000999999998" y1="28.0001000000001" x2="11.0001" y2="28.0001000000001"/>
    <line x1="11.0001" y1="28.0001000000001" x2="11.0000999999998" y2="29.3001"/>
    <line x1="11.0000999999998" y1="29.3001" x2="8.80009999999995" y2="29.3001"/>
    <line x1="8.80009999999995" y1="29.3001" x2="8.80009999999995" y2="28.0001000000001"/>
    <line x1="8.80009999999995" y1="28.0001000000001" x2="5.80009999999973" y2="28.0001000000001"/>
    <line x1="5.80009999999973" y1="28.0001000000001" x2="5.80009999999973" y2="25.0001000000001"/>
    <line x1="5.80009999999973" y1="25.0001000000001" x2="8.80009999999995" y2="25.0001000000001"/>
    <line x1="8.80009999999995" y1="25.0001000000001" x2="8.80009999999995" y2="23.7001"/>
    <line x1="8.80009999999995" y1="23.7001" x2="11.0001" y2="23.7001"/>
    <line x1="11.0001" y1="23.7001" x2="11.0000999999998" y2="25.0001000000001"/>
    <line x1="11.0000999999998" y1="25.0001000000001" x2="13.0000999999998" y2="25.0001000000001"/>
    <line x1="13.0000999999998" y1="25.0001000000001" x2="13.0000999999998" y2="20.0001000000001"/>
    <line x1="13.0000999999998" y1="20.0001000000001" x2="16.0000999999998" y2="20.0001000000001"/>
    <line x1="16.0000999999998" y1="20.0001000000001" x2="16.0000999999998" y2="15.0001"/>
    <line x1="16.0000999999998" y1="15.0001" x2="13.0000999999998" y2="15.0001"/>
    <line x1="13.0000999999998" y1="15.0001" x2="13.0000999999998" y2="10.0001000000001"/>
    <line x1="13.0000999999998" y1="10.0001000000001" x2="28.0000999999998" y2="10.0001000000001"/>
    <line x1="28.0000999999998" y1="10.0001000000001" x2="28.0000999999998" y2="0.0001"/>
    <line x1="20.5512112605661" y1="5.38832856765387" x2="20.5000999999998" y2="5.00010000000011"/>
    <line x1="20.5000999999998" y1="5.00010000000011" x2="20.5512112605661" y2="4.61187143234624"/>
    <line x1="20.5512112605661" y1="4.61187143234624" x2="20.7010618943232" y2="4.25010000000011"/>
    <line x1="20.7010618943232" y1="4.25010000000011" x2="20.93943982822" y2="3.93943982822034"/>
    <line x1="20.93943982822" y1="3.93943982822034" x2="21.2500999999998" y2="3.70106189432337"/>
    <line x1="21.2500999999998" y1="3.70106189432337" x2="21.6118714323461" y2="3.55121126056642"/>
    <line x1="21.6118714323461" y1="3.55121126056642" x2="22.0001" y2="3.50010000000011"/>
    <line x1="22.0001" y1="3.50010000000011" x2="22.3883285676536" y2="3.55121126056642"/>
    <line x1="22.3883285676536" y1="3.55121126056642" x2="22.7501" y2="3.70106189432337"/>
    <line x1="22.7501" y1="3.70106189432337" x2="23.0607601717795" y2="3.93943982822034"/>
    <line x1="23.0607601717795" y1="3.93943982822034" x2="23.2991381056766" y2="4.25010000000011"/>
    <line x1="23.2991381056766" y1="4.25010000000011" x2="23.4489887394334" y2="4.61187143234624"/>
    <line x1="23.4489887394334" y1="4.61187143234624" x2="23.5000999999998" y2="5.00010000000011"/>
    <line x1="23.5000999999998" y1="5.00010000000011" x2="23.4489887394334" y2="5.38832856765387"/>
    <line x1="23.4489887394334" y1="5.38832856765387" x2="23.2991381056766" y2="5.75010000000011"/>
    <line x1="23.2991381056766" y1="5.75010000000011" x2="23.0607601717798" y2="6.06076017177994"/>
    <line x1="23.0607601717798" y1="6.06076017177994" x2="22.7501" y2="6.29913810567669"/>
    <line x1="22.7501" y1="6.29913810567669" x2="22.3883285676536" y2="6.44898873943364"/>
    <line x1="22.3883285676536" y1="6.44898873943364" x2="22.0000999999998" y2="6.50010000000017"/>
    <line x1="22.0000999999998" y1="6.50010000000017" x2="21.6118714323461" y2="6.44898873943364"/>
    <line x1="21.6118714323461" y1="6.44898873943364" x2="21.2501" y2="6.29913810567669"/>
    <line x1="21.2501" y1="6.29913810567669" x2="20.93943982822" y2="6.06076017177994"/>
    <line x1="20.93943982822" y1="6.06076017177994" x2="20.7010618943232" y2="5.75010000000011"/>
    <line x1="20.7010618943232" y1="5.75010000000011" x2="20.5512112605661" y2="5.38832856765387"/>
  </g>
</svg>
