<?xml version="1.0" standalone="no"?>
<!DOCTYPE svg PUBLIC "-//W3C//DTD SVG 1.1//EN" "http://www.w3.org/Graphics/SVG/1.1/DTD/svg11.dtd">
<svg width="56.0002000000001mm" height="119.9002mm"
 viewBox="0 0 56.0002000000001 119.9002"
 xmlns="http://www.w3.org/2000/svg" version="1.1"
 xmlns:xlink="http://www.w3.org/1999/xlink">
<desc>Output from Flights of Ideas SVG Sketchup Plugin</desc>

  <g id="face0" fill="none" stroke="rgb(0,0,255)" stroke-width="1" stroke-miterlimit="4" stroke-dasharray="none" stroke-linejoin="round" stroke-linecap="round">
    <line x1="3.0001" y1="3.0001" x2="3.0001" y2="18.4500999999999"/>
    <line x1="3.0001" y1="18.4500999999999" x2="0.0001" y2="18.4500999999999"/>
    <line x1="0.0001" y1="18.4500999999999" x2="0.0001" y2="38.4500999999999"/>
    <line x1="0.0001" y1="38.4500999999999" x2="3.0001" y2="38.4500999999999"/>
    <line x1="3.0001" y1="38.4500999999999" x2="3.0001" y2="58.4501"/>
    <line x1="3.0001" y1="58.4501" x2="5.0001" y2="58.4501"/>
    <line x1="5.0001" y1="58.4501" x2="5.0001" y2="57.1501000000001"/>
    <line x1="5.0001" y1="57.1501000000001" x2="7.20010000000005" y2="57.1501"/>
    <line x1="7.20010000000005" y1="57.1501" x2="7.20010000000005" y2="58.4501"/>
    <line x1="7.20010000000005" y1="58.4501" x2="10.2001000000002" y2="58.4501"/>
    <line x1="10.2001000000002" y1="58.4501" x2="10.2001000000002" y2="61.4500999999998"/>
    <line x1="10.2001000000002" y1="61.4500999999998" x2="7.20010000000005" y2="61.4500999999998"/>
    <line x1="7.20010000000005" y1="61.4500999999998" x2="7.20010000000005" y2="62.7500999999999"/>
    <line x1="7.20010000000005" y1="62.7500999999999" x2="5.0001" y2="62.7500999999999"/>
    <line x1="5.0001" y1="62.7500999999999" x2="5.0001" y2="61.4500999999998"/>
    <line x1="5.0001" y1="61.4500999999998" x2="3.0001" y2="61.4500999999998"/>
    <line x1="3.0001" y1="61.4500999999998" x2="3.0001" y2="81.4501"/>
    <line x1="3.0001" y1="81.4501" x2="0.0001" y2="81.4501"/>
    <line x1="0.0001" y1="81.4501" x2="0.0001" y2="101.4501"/>
    <line x1="0.0001" y1="101.4501" x2="3.0001" y2="101.4501"/>
    <line x1="3.0001" y1="101.4501" x2="3.0001" y2="116.9001"/>
    <line x1="3.0001" y1="116.9001" x2="8.00010000000011" y2="116.9001"/>
    <line x1="8.00010000000011" y1="116.9001" x2="8.00010000000011" y2="119.9001"/>
    <line x1="8.00010000000011" y1="119.9001" x2="18.0001" y2="119.9001"/>
    <line x1="18.0001" y1="119.9001" x2="18.0001" y2="116.9001"/>
    <line x1="18.0001" y1="116.9001" x2="38.0001" y2="116.9001"/>
    <line x1="38.0001" y1="116.9001" x2="38.0001" y2="119.9001"/>
    <line x1="38.0001" y1="119.9001" x2="48.0001000000001" y2="119.9001"/>
    <line x1="48.0001000000001" y1="119.9001" x2="48.0001000000001" y2="116.9001"/>
    <line x1="48.0001000000001" y1="116.9001" x2="53.0001" y2="116.9001"/>
    <line x1="53.0001" y1="116.9001" x2="53.0001" y2="106.9001"/>
    <line x1="53.0001" y1="106.9001" x2="56.0001000000001" y2="106.9001"/>
    <line x1="56.0001000000001" y1="106.9001" x2="56.0000999999999" y2="86.9000999999999"/>
    <line x1="56.0000999999999" y1="86.9000999999999" x2="53.0000999999999" y2="86.9000999999999"/>
    <line x1="53.0000999999999" y1="86.9000999999999" x2="53.0000999999999" y2="76.0943223909487"/>
    <line x1="53.0000999999999" y1="76.0943223909487" x2="38.8001000000001" y2="76.0943223909487"/>
    <line x1="38.8001000000001" y1="76.0943223909487" x2="38.8001000000001" y2="63.0943223909487"/>
    <line x1="38.8001000000001" y1="63.0943223909487" x2="53.0000999999999" y2="63.0943223909487"/>
    <line x1="53.0000999999999" y1="63.0943223909487" x2="53.0001" y2="33.0000999999999"/>
    <line x1="53.0001" y1="33.0000999999999" x2="56.0001000000001" y2="33.0000999999999"/>
    <line x1="56.0001000000001" y1="33.0000999999999" x2="56.0001000000001" y2="13.0001"/>
    <line x1="56.0001000000001" y1="13.0001" x2="53.0001" y2="13.0001"/>
    <line x1="53.0001" y1="13.0001" x2="53.0001" y2="3.0001"/>
    <line x1="53.0001" y1="3.0001" x2="48.0001000000001" y2="3.0001"/>
    <line x1="48.0001000000001" y1="3.0001" x2="48.0001000000001" y2="0.0001"/>
    <line x1="48.0001000000001" y1="0.0001" x2="38.0001" y2="0.0001"/>
    <line x1="38.0001" y1="0.0001" x2="38.0001" y2="3.0001"/>
    <line x1="38.0001" y1="3.0001" x2="18.0001" y2="3.0001"/>
    <line x1="18.0001" y1="3.0001" x2="18.0001" y2="0.0001"/>
    <line x1="18.0001" y1="0.0001" x2="8.00010000000011" y2="0.0001"/>
    <line x1="8.00010000000011" y1="0.0001" x2="8.00010000000011" y2="3.0001"/>
    <line x1="8.00010000000011" y1="3.0001" x2="3.0001" y2="3.0001"/>
    <line x1="48.0001000000001" y1="18.0001" x2="48.0001000000001" y2="27.0001"/>
    <line x1="48.0001000000001" y1="27.0001" x2="37.3001" y2="27.0001"/>
    <line x1="37.3001" y1="27.0001" x2="37.3001" y2="18.0001"/>
    <line x1="37.3001" y1="18.0001" x2="48.0001000000001" y2="18.0001"/>
  </g>
</svg>
