<?xml version="1.0" standalone="no"?>
<!DOCTYPE svg PUBLIC "-//W3C//DTD SVG 1.1//EN" "http://www.w3.org/Graphics/SVG/1.1/DTD/svg11.dtd">
<svg width="125.3502mm" height="56.0002000000002mm"
 viewBox="0 0 125.3502 56.0002000000002"
 xmlns="http://www.w3.org/2000/svg" version="1.1"
 xmlns:xlink="http://www.w3.org/1999/xlink">
<desc>Output from Flights of Ideas SVG Sketchup Plugin</desc>

  <g id="face0" fill="none" stroke="rgb(0,0,255)" stroke-width="1" stroke-miterlimit="4" stroke-dasharray="none" stroke-linejoin="round" stroke-linecap="round">
    <line x1="85.3500999999999" y1="3.00010000000011" x2="65.3500999999998" y2="3.00010000000011"/>
    <line x1="65.3500999999998" y1="3.00010000000011" x2="65.3500999999998" y2="5.00010000000011"/>
    <line x1="65.3500999999998" y1="5.00010000000011" x2="66.6500999999998" y2="5.00010000000011"/>
    <line x1="66.6500999999998" y1="5.00010000000011" x2="66.6500999999998" y2="7.20010000000016"/>
    <line x1="66.6500999999998" y1="7.20010000000016" x2="65.3500999999998" y2="7.20010000000016"/>
    <line x1="65.3500999999998" y1="7.20010000000016" x2="65.3500999999998" y2="10.2001000000003"/>
    <line x1="65.3500999999998" y1="10.2001000000003" x2="62.3500999999999" y2="10.2001000000003"/>
    <line x1="62.3500999999999" y1="10.2001000000003" x2="62.3500999999999" y2="7.20010000000016"/>
    <line x1="62.3500999999999" y1="7.20010000000016" x2="61.0500999999998" y2="7.20010000000016"/>
    <line x1="61.0500999999998" y1="7.20010000000016" x2="61.0500999999998" y2="5.00010000000011"/>
    <line x1="61.0500999999998" y1="5.00010000000011" x2="62.3500999999999" y2="5.00010000000011"/>
    <line x1="62.3500999999999" y1="5.00010000000011" x2="62.3500999999999" y2="3.00010000000011"/>
    <line x1="62.3500999999999" y1="3.00010000000011" x2="43.0001" y2="3.00010000000011"/>
    <line x1="43.0001" y1="3.00010000000011" x2="43.0001" y2="0.000100000000113687"/>
    <line x1="43.0001" y1="0.000100000000113687" x2="23.0001" y2="0.0001"/>
    <line x1="23.0001" y1="0.0001" x2="23.0001" y2="3.00010000000011"/>
    <line x1="23.0001" y1="3.00010000000011" x2="3.0001" y2="3.00010000000011"/>
    <line x1="3.0001" y1="3.00010000000011" x2="3.0001" y2="8.00010000000023"/>
    <line x1="3.0001" y1="8.00010000000023" x2="0.0001" y2="8.00010000000034"/>
    <line x1="0.0001" y1="8.00010000000034" x2="0.0001" y2="18.0001000000002"/>
    <line x1="0.0001" y1="18.0001000000002" x2="3.0001" y2="18.0001000000002"/>
    <line x1="3.0001" y1="18.0001000000002" x2="3.0001" y2="26.5001000000002"/>
    <line x1="3.0001" y1="26.5001000000002" x2="5.0001" y2="26.5001000000001"/>
    <line x1="5.0001" y1="26.5001000000001" x2="5.0001" y2="25.2001000000002"/>
    <line x1="5.0001" y1="25.2001000000002" x2="7.20010000000005" y2="25.2001000000002"/>
    <line x1="7.20010000000005" y1="25.2001000000002" x2="7.20010000000005" y2="26.5001000000001"/>
    <line x1="7.20010000000005" y1="26.5001000000001" x2="10.2001" y2="26.5001000000001"/>
    <line x1="10.2001" y1="26.5001000000001" x2="10.2001" y2="29.5001000000002"/>
    <line x1="10.2001" y1="29.5001000000002" x2="7.20010000000005" y2="29.5001000000002"/>
    <line x1="7.20010000000005" y1="29.5001000000002" x2="7.20010000000005" y2="30.8001000000002"/>
    <line x1="7.20010000000005" y1="30.8001000000002" x2="5.0001" y2="30.8001000000002"/>
    <line x1="5.0001" y1="30.8001000000002" x2="5.0001" y2="29.5001000000002"/>
    <line x1="5.0001" y1="29.5001000000002" x2="3.0001" y2="29.5001000000002"/>
    <line x1="3.0001" y1="29.5001000000002" x2="3.0001" y2="38.0001000000001"/>
    <line x1="3.0001" y1="38.0001000000001" x2="0.0001" y2="38.0001000000001"/>
    <line x1="0.0001" y1="38.0001000000001" x2="0.0001" y2="48.0001000000001"/>
    <line x1="0.0001" y1="48.0001000000001" x2="3.0001" y2="48.0001000000001"/>
    <line x1="3.0001" y1="48.0001000000001" x2="3.0001" y2="53.0001000000001"/>
    <line x1="3.0001" y1="53.0001000000001" x2="13.0001" y2="53.0001000000001"/>
    <line x1="13.0001" y1="53.0001000000001" x2="13.0001" y2="51.0001000000001"/>
    <line x1="13.0001" y1="51.0001000000001" x2="11.7001" y2="51.0001000000001"/>
    <line x1="11.7001" y1="51.0001000000001" x2="11.7001" y2="48.8001000000001"/>
    <line x1="11.7001" y1="48.8001000000001" x2="13.0001" y2="48.8001000000001"/>
    <line x1="13.0001" y1="48.8001000000001" x2="13.0001" y2="45.8001000000001"/>
    <line x1="13.0001" y1="45.8001000000001" x2="16.0001" y2="45.8001000000001"/>
    <line x1="16.0001" y1="45.8001000000001" x2="16.0001" y2="48.8001000000001"/>
    <line x1="16.0001" y1="48.8001000000001" x2="17.3001" y2="48.8001000000001"/>
    <line x1="17.3001" y1="48.8001000000001" x2="17.3001" y2="51.0001000000001"/>
    <line x1="17.3001" y1="51.0001000000001" x2="16.0001" y2="51.0001000000001"/>
    <line x1="16.0001" y1="51.0001000000001" x2="16.0001" y2="53.0001000000001"/>
    <line x1="16.0001" y1="53.0001000000001" x2="26.0001" y2="53.0001000000001"/>
    <line x1="26.0001" y1="53.0001000000001" x2="26.0001" y2="56.0001000000002"/>
    <line x1="26.0001" y1="56.0001000000002" x2="46.0001" y2="56.0001000000002"/>
    <line x1="46.0001" y1="56.0001000000002" x2="46.0001" y2="53.0001000000001"/>
    <line x1="46.0001" y1="53.0001000000001" x2="89.3500999999999" y2="53.0001000000001"/>
    <line x1="89.3500999999999" y1="53.0001000000001" x2="89.3500999999999" y2="56.0001000000002"/>
    <line x1="89.3500999999999" y1="56.0001000000002" x2="99.3500999999998" y2="56.0001000000002"/>
    <line x1="99.3500999999998" y1="56.0001000000002" x2="99.3500999999998" y2="53.0001000000001"/>
    <line x1="99.3500999999998" y1="53.0001000000001" x2="109.3501" y2="53.0001000000001"/>
    <line x1="109.3501" y1="53.0001000000001" x2="109.3501" y2="51.0001000000001"/>
    <line x1="109.3501" y1="51.0001000000001" x2="108.0501" y2="51.0001000000001"/>
    <line x1="108.0501" y1="51.0001000000001" x2="108.0501" y2="48.8001000000001"/>
    <line x1="108.0501" y1="48.8001000000001" x2="109.3501" y2="48.8001000000001"/>
    <line x1="109.3501" y1="48.8001000000001" x2="109.3501" y2="45.8001000000001"/>
    <line x1="109.3501" y1="45.8001000000001" x2="112.3501" y2="45.8001000000001"/>
    <line x1="112.3501" y1="45.8001000000001" x2="112.3501" y2="48.8001000000001"/>
    <line x1="112.3501" y1="48.8001000000001" x2="113.6501" y2="48.8001000000001"/>
    <line x1="113.6501" y1="48.8001000000001" x2="113.6501" y2="51.0001000000001"/>
    <line x1="113.6501" y1="51.0001000000001" x2="112.3501" y2="51.0001000000001"/>
    <line x1="112.3501" y1="51.0001000000001" x2="112.3501" y2="53.0001000000001"/>
    <line x1="112.3501" y1="53.0001000000001" x2="125.3501" y2="53.0001000000001"/>
    <line x1="125.3501" y1="53.0001000000001" x2="125.3501" y2="3.00010000000011"/>
    <line x1="125.3501" y1="3.00010000000011" x2="105.3501" y2="3.00010000000011"/>
    <line x1="105.3501" y1="3.00010000000011" x2="105.3501" y2="0.000100000000113687"/>
    <line x1="105.3501" y1="0.000100000000113687" x2="85.3500999999999" y2="0.000100000000113687"/>
    <line x1="85.3500999999999" y1="0.000100000000113687" x2="85.3500999999999" y2="3.00010000000011"/>
    <line x1="106.2501" y1="27.0001000000001" x2="87.4500999999998" y2="27.0001000000001"/>
    <line x1="87.4500999999998" y1="27.0001000000001" x2="87.4500999999998" y2="14.0001000000001"/>
    <line x1="87.4500999999998" y1="14.0001000000001" x2="106.2501" y2="14.0001000000001"/>
    <line x1="106.2501" y1="14.0001000000001" x2="106.2501" y2="27.0001000000001"/>
    <line x1="119.3501" y1="38.0001000000001" x2="122.3501" y2="38.0001000000001"/>
    <line x1="122.3501" y1="38.0001000000001" x2="122.3501" y2="48.0001000000001"/>
    <line x1="122.3501" y1="48.0001000000001" x2="119.3501" y2="48.0001000000001"/>
    <line x1="119.3501" y1="48.0001000000001" x2="119.3501" y2="38.0001000000001"/>
    <line x1="119.3501" y1="18.0001000000002" x2="119.3501" y2="8.00010000000023"/>
    <line x1="119.3501" y1="8.00010000000023" x2="122.3501" y2="8.00010000000023"/>
    <line x1="122.3501" y1="8.00010000000023" x2="122.3501" y2="18.0001000000002"/>
    <line x1="122.3501" y1="18.0001000000002" x2="119.3501" y2="18.0001000000002"/>
  </g>
</svg>
