<?xml version="1.0" standalone="no"?>
<!DOCTYPE svg PUBLIC "-//W3C//DTD SVG 1.1//EN" "http://www.w3.org/Graphics/SVG/1.1/DTD/svg11.dtd">
<svg width="58.0000000000003mm" height="121.9mm"
 viewBox="0 0 58.0000000000003 121.9"
 xmlns="http://www.w3.org/2000/svg" version="1.1"
 xmlns:xlink="http://www.w3.org/1999/xlink">
<desc>Output from Flights of Ideas SVG Sketchup Plugin</desc>

  <g id="face0" fill="none" stroke="rgb(0,0,255)" stroke-width="1" stroke-miterlimit="4" stroke-dasharray="none" stroke-linejoin="round" stroke-linecap="round">
    <line x1="4.0" y1="3.99999999999989" x2="4.0" y2="19.4499999999999"/>
    <line x1="4.0" y1="19.4499999999999" x2="1.0" y2="19.4499999999999"/>
    <line x1="1.0" y1="19.4499999999999" x2="1.0" y2="39.4499999999999"/>
    <line x1="1.0" y1="39.4499999999999" x2="4.0" y2="39.4499999999999"/>
    <line x1="4.0" y1="39.4499999999999" x2="4.0" y2="59.45"/>
    <line x1="4.0" y1="59.45" x2="6.0" y2="59.45"/>
    <line x1="6.0" y1="59.45" x2="6.0" y2="58.15"/>
    <line x1="6.0" y1="58.15" x2="8.20000000000005" y2="58.15"/>
    <line x1="8.20000000000005" y1="58.15" x2="8.20000000000005" y2="59.45"/>
    <line x1="8.20000000000005" y1="59.45" x2="11.2000000000002" y2="59.45"/>
    <line x1="11.2000000000002" y1="59.45" x2="11.2000000000002" y2="62.4499999999999"/>
    <line x1="11.2000000000002" y1="62.4499999999999" x2="8.20000000000005" y2="62.4499999999999"/>
    <line x1="8.20000000000005" y1="62.4499999999999" x2="8.20000000000005" y2="63.75"/>
    <line x1="8.20000000000005" y1="63.75" x2="6.0" y2="63.75"/>
    <line x1="6.0" y1="63.75" x2="6.0" y2="62.4499999999999"/>
    <line x1="6.0" y1="62.4499999999999" x2="4.0" y2="62.4499999999999"/>
    <line x1="4.0" y1="62.4499999999999" x2="4.0" y2="82.4499999999998"/>
    <line x1="4.0" y1="82.4499999999998" x2="1.0" y2="82.4499999999998"/>
    <line x1="1.0" y1="82.4499999999998" x2="1.0" y2="102.45"/>
    <line x1="1.0" y1="102.45" x2="4.0" y2="102.45"/>
    <line x1="4.0" y1="102.45" x2="4.0" y2="117.9"/>
    <line x1="4.0" y1="117.9" x2="9.00000000000011" y2="117.9"/>
    <line x1="9.00000000000011" y1="117.9" x2="9.00000000000011" y2="120.9"/>
    <line x1="9.00000000000011" y1="120.9" x2="19.0" y2="120.9"/>
    <line x1="19.0" y1="120.9" x2="19.0" y2="117.9"/>
    <line x1="19.0" y1="117.9" x2="39.0" y2="117.9"/>
    <line x1="39.0" y1="117.9" x2="39.0" y2="120.9"/>
    <line x1="39.0" y1="120.9" x2="49.0000000000003" y2="120.9"/>
    <line x1="49.0000000000003" y1="120.9" x2="49.0000000000003" y2="117.9"/>
    <line x1="49.0000000000003" y1="117.9" x2="54.0000000000003" y2="117.9"/>
    <line x1="54.0000000000003" y1="117.9" x2="54.0000000000003" y2="107.9"/>
    <line x1="54.0000000000003" y1="107.9" x2="57.0000000000003" y2="107.9"/>
    <line x1="57.0000000000003" y1="107.9" x2="57.0000000000001" y2="87.8999999999999"/>
    <line x1="57.0000000000001" y1="87.8999999999999" x2="54.0000000000001" y2="87.8999999999999"/>
    <line x1="54.0000000000001" y1="87.8999999999999" x2="54.0000000000001" y2="77.0942223909485"/>
    <line x1="54.0000000000001" y1="77.0942223909485" x2="36.8000000000001" y2="77.0942223909487"/>
    <line x1="36.8000000000001" y1="77.0942223909487" x2="36.8000000000001" y2="64.0942223909486"/>
    <line x1="36.8000000000001" y1="64.0942223909486" x2="54.0000000000001" y2="64.0942223909486"/>
    <line x1="54.0000000000001" y1="64.0942223909486" x2="54.0000000000003" y2="33.9999999999999"/>
    <line x1="54.0000000000003" y1="33.9999999999999" x2="57.0000000000003" y2="33.9999999999999"/>
    <line x1="57.0000000000003" y1="33.9999999999999" x2="57.0000000000003" y2="13.9999999999999"/>
    <line x1="57.0000000000003" y1="13.9999999999999" x2="54.0000000000003" y2="13.9999999999999"/>
    <line x1="54.0000000000003" y1="13.9999999999999" x2="54.0000000000003" y2="3.99999999999989"/>
    <line x1="54.0000000000003" y1="3.99999999999989" x2="49.0000000000003" y2="3.99999999999989"/>
    <line x1="49.0000000000003" y1="3.99999999999989" x2="49.0000000000003" y2="1.0"/>
    <line x1="49.0000000000003" y1="1.0" x2="39.0" y2="1.0"/>
    <line x1="39.0" y1="1.0" x2="39.0" y2="3.99999999999989"/>
    <line x1="39.0" y1="3.99999999999989" x2="19.0" y2="3.99999999999989"/>
    <line x1="19.0" y1="3.99999999999989" x2="19.0" y2="1.0"/>
    <line x1="19.0" y1="1.0" x2="9.00000000000011" y2="1.0"/>
    <line x1="9.00000000000011" y1="1.0" x2="9.00000000000011" y2="3.99999999999989"/>
    <line x1="9.00000000000011" y1="3.99999999999989" x2="4.0" y2="3.99999999999989"/>
    <line x1="49.0000000000003" y1="28.0" x2="38.3" y2="28.0"/>
    <line x1="38.3" y1="28.0" x2="38.3" y2="18.9999999999999"/>
    <line x1="38.3" y1="18.9999999999999" x2="49.0000000000003" y2="18.9999999999999"/>
    <line x1="49.0000000000003" y1="18.9999999999999" x2="49.0000000000003" y2="28.0"/>
    <line x1="26.1977774788671" y1="22.7235428646923" x2="26.3000000000001" y2="23.4999999999999"/>
    <line x1="26.3000000000001" y1="23.4999999999999" x2="26.1977774788671" y2="24.2764571353075"/>
    <line x1="26.1977774788671" y1="24.2764571353075" x2="25.8980762113533" y2="24.9999999999999"/>
    <line x1="25.8980762113533" y1="24.9999999999999" x2="25.4213203435596" y2="25.6213203435597"/>
    <line x1="25.4213203435596" y1="25.6213203435597" x2="24.8" y2="26.0980762113533"/>
    <line x1="24.8" y1="26.0980762113533" x2="24.0764571353076" y2="26.3977774788672"/>
    <line x1="24.0764571353076" y1="26.3977774788672" x2="23.3" y2="26.5"/>
    <line x1="23.3" y1="26.5" x2="22.5235428646923" y2="26.3977774788672"/>
    <line x1="22.5235428646923" y1="26.3977774788672" x2="21.8" y2="26.0980762113533"/>
    <line x1="21.8" y1="26.0980762113533" x2="21.1786796564403" y2="25.6213203435597"/>
    <line x1="21.1786796564403" y1="25.6213203435597" x2="20.7019237886466" y2="24.9999999999999"/>
    <line x1="20.7019237886466" y1="24.9999999999999" x2="20.4022225211328" y2="24.2764571353075"/>
    <line x1="20.4022225211328" y1="24.2764571353075" x2="20.3" y2="23.4999999999999"/>
    <line x1="20.3" y1="23.4999999999999" x2="20.4022225211328" y2="22.7235428646923"/>
    <line x1="20.4022225211328" y1="22.7235428646923" x2="20.7019237886466" y2="21.9999999999999"/>
    <line x1="20.7019237886466" y1="21.9999999999999" x2="21.1786796564403" y2="21.3786796564402"/>
    <line x1="21.1786796564403" y1="21.3786796564402" x2="21.8" y2="20.9019237886465"/>
    <line x1="21.8" y1="20.9019237886465" x2="22.5235428646923" y2="20.6022225211327"/>
    <line x1="22.5235428646923" y1="20.6022225211327" x2="23.3" y2="20.4999999999999"/>
    <line x1="23.3" y1="20.4999999999999" x2="24.0764571353076" y2="20.6022225211327"/>
    <line x1="24.0764571353076" y1="20.6022225211327" x2="24.8" y2="20.9019237886465"/>
    <line x1="24.8" y1="20.9019237886465" x2="25.4213203435596" y2="21.3786796564402"/>
    <line x1="25.4213203435596" y1="21.3786796564402" x2="25.8980762113533" y2="21.9999999999999"/>
    <line x1="25.8980762113533" y1="21.9999999999999" x2="26.1977774788671" y2="22.7235428646923"/>
  </g>
</svg>
