<?xml version="1.0" standalone="no"?>
<!DOCTYPE svg PUBLIC "-//W3C//DTD SVG 1.1//EN" "http://www.w3.org/Graphics/SVG/1.1/DTD/svg11.dtd">
<svg width="56.0002mm" height="125.9002mm"
 viewBox="0 0 56.0002 125.9002"
 xmlns="http://www.w3.org/2000/svg" version="1.1"
 xmlns:xlink="http://www.w3.org/1999/xlink">
<desc>Output from Flights of Ideas SVG Sketchup Plugin</desc>

  <g id="face0" fill="none" stroke="rgb(0,0,255)" stroke-width="1" stroke-miterlimit="4" stroke-dasharray="none" stroke-linejoin="round" stroke-linecap="round">
    <line x1="3.0001" y1="0.0001" x2="3.0001" y2="20.0001"/>
    <line x1="3.0001" y1="20.0001" x2="0.0001" y2="20.0001"/>
    <line x1="0.0001" y1="20.0001" x2="0.0001" y2="40.0001"/>
    <line x1="0.0001" y1="40.0001" x2="3.0001" y2="40.0001"/>
    <line x1="3.0001" y1="40.0001" x2="3.0001" y2="85.9001"/>
    <line x1="3.0001" y1="85.9001" x2="0.0001" y2="85.9001"/>
    <line x1="0.0001" y1="85.9001" x2="0.0001" y2="105.9001"/>
    <line x1="0.0001" y1="105.9001" x2="3.0001" y2="105.9001"/>
    <line x1="3.0001" y1="105.9001" x2="3.0001" y2="125.9001"/>
    <line x1="3.0001" y1="125.9001" x2="53.0001" y2="125.9001"/>
    <line x1="53.0001" y1="125.9001" x2="53.0001" y2="95.9001000000001"/>
    <line x1="53.0001" y1="95.9001000000001" x2="56.0001" y2="95.9001000000001"/>
    <line x1="56.0001" y1="95.9001000000001" x2="56.0001" y2="80.9001000000001"/>
    <line x1="56.0001" y1="80.9001000000001" x2="53.0001" y2="80.9001000000001"/>
    <line x1="53.0001" y1="80.9001000000001" x2="53.0001" y2="45.0001"/>
    <line x1="53.0001" y1="45.0001" x2="56.0001" y2="45.0001"/>
    <line x1="56.0001" y1="45.0001" x2="56.0001" y2="30.0001000000001"/>
    <line x1="56.0001" y1="30.0001000000001" x2="53.0001" y2="30.0001000000001"/>
    <line x1="53.0001" y1="30.0001000000001" x2="53.0001" y2="0.0001"/>
    <line x1="53.0001" y1="0.0001" x2="3.0001" y2="0.0001"/>
    <line x1="23.0001" y1="42.9001" x2="35.8001" y2="42.9001"/>
    <line x1="35.8001" y1="42.9001" x2="35.8001" y2="83.0001"/>
    <line x1="35.8001" y1="83.0001" x2="23.0001" y2="83.0001"/>
    <line x1="23.0001" y1="83.0001" x2="23.0001" y2="42.9001"/>
    <line x1="35.4001" y1="20.9001" x2="35.4001" y2="32.9001000000001"/>
    <line x1="35.4001" y1="32.9001000000001" x2="23.4001" y2="32.9001000000001"/>
    <line x1="23.4001" y1="32.9001000000001" x2="23.4001" y2="20.9001"/>
    <line x1="23.4001" y1="20.9001" x2="35.4001" y2="20.9001"/>
    <line x1="23.4001" y1="105.0001" x2="23.4001" y2="93.0001"/>
    <line x1="23.4001" y1="93.0001" x2="35.4001" y2="93.0001"/>
    <line x1="35.4001" y1="93.0001" x2="35.4001" y2="105.0001"/>
    <line x1="35.4001" y1="105.0001" x2="23.4001" y2="105.0001"/>
    <line x1="29.5001" y1="4.5001" x2="29.4489887394336" y2="4.88832856765375"/>
    <line x1="29.4489887394336" y1="4.88832856765375" x2="29.2991381056767" y2="5.2501"/>
    <line x1="29.2991381056767" y1="5.2501" x2="29.0607601717798" y2="5.56076017177989"/>
    <line x1="29.0607601717798" y1="5.56076017177989" x2="28.7501" y2="5.79913810567669"/>
    <line x1="28.7501" y1="5.79913810567669" x2="28.3883285676538" y2="5.94898873943364"/>
    <line x1="28.3883285676538" y1="5.94898873943364" x2="28.0001" y2="6.0001"/>
    <line x1="28.0001" y1="6.0001" x2="27.6118714323462" y2="5.94898873943364"/>
    <line x1="27.6118714323462" y1="5.94898873943364" x2="27.2501" y2="5.79913810567669"/>
    <line x1="27.2501" y1="5.79913810567669" x2="26.9394398282202" y2="5.56076017177989"/>
    <line x1="26.9394398282202" y1="5.56076017177989" x2="26.7010618943233" y2="5.2501"/>
    <line x1="26.7010618943233" y1="5.2501" x2="26.5512112605664" y2="4.88832856765375"/>
    <line x1="26.5512112605664" y1="4.88832856765375" x2="26.5001" y2="4.5001"/>
    <line x1="26.5001" y1="4.5001" x2="26.5512112605664" y2="4.11187143234624"/>
    <line x1="26.5512112605664" y1="4.11187143234624" x2="26.7010618943233" y2="3.7501"/>
    <line x1="26.7010618943233" y1="3.7501" x2="26.9394398282202" y2="3.43943982822023"/>
    <line x1="26.9394398282202" y1="3.43943982822023" x2="27.2501" y2="3.20106189432331"/>
    <line x1="27.2501" y1="3.20106189432331" x2="27.6118714323462" y2="3.05121126056636"/>
    <line x1="27.6118714323462" y1="3.05121126056636" x2="28.0001" y2="3.0001"/>
    <line x1="28.0001" y1="3.0001" x2="28.3883285676538" y2="3.05121126056636"/>
    <line x1="28.3883285676538" y1="3.05121126056636" x2="28.7501" y2="3.20106189432331"/>
    <line x1="28.7501" y1="3.20106189432331" x2="29.0607601717798" y2="3.43943982822023"/>
    <line x1="29.0607601717798" y1="3.43943982822023" x2="29.2991381056767" y2="3.7501"/>
    <line x1="29.2991381056767" y1="3.7501" x2="29.4489887394336" y2="4.11187143234624"/>
    <line x1="29.4489887394336" y1="4.11187143234624" x2="29.5001" y2="4.5001"/>
    <line x1="29.5001" y1="121.4001" x2="29.4489887394336" y2="121.788328567654"/>
    <line x1="29.4489887394336" y1="121.788328567654" x2="29.2991381056767" y2="122.1501"/>
    <line x1="29.2991381056767" y1="122.1501" x2="29.0607601717798" y2="122.46076017178"/>
    <line x1="29.0607601717798" y1="122.46076017178" x2="28.7501" y2="122.699138105677"/>
    <line x1="28.7501" y1="122.699138105677" x2="28.3883285676538" y2="122.848988739434"/>
    <line x1="28.3883285676538" y1="122.848988739434" x2="28.0001" y2="122.9001"/>
    <line x1="28.0001" y1="122.9001" x2="27.6118714323462" y2="122.848988739434"/>
    <line x1="27.6118714323462" y1="122.848988739434" x2="27.2501" y2="122.699138105677"/>
    <line x1="27.2501" y1="122.699138105677" x2="26.9394398282202" y2="122.46076017178"/>
    <line x1="26.9394398282202" y1="122.46076017178" x2="26.7010618943233" y2="122.1501"/>
    <line x1="26.7010618943233" y1="122.1501" x2="26.5512112605664" y2="121.788328567654"/>
    <line x1="26.5512112605664" y1="121.788328567654" x2="26.5001" y2="121.4001"/>
    <line x1="26.5001" y1="121.4001" x2="26.5512112605664" y2="121.011871432346"/>
    <line x1="26.5512112605664" y1="121.011871432346" x2="26.7010618943233" y2="120.6501"/>
    <line x1="26.7010618943233" y1="120.6501" x2="26.9394398282202" y2="120.33943982822"/>
    <line x1="26.9394398282202" y1="120.33943982822" x2="27.2501" y2="120.101061894323"/>
    <line x1="27.2501" y1="120.101061894323" x2="27.6118714323462" y2="119.951211260566"/>
    <line x1="27.6118714323462" y1="119.951211260566" x2="28.0001" y2="119.9001"/>
    <line x1="28.0001" y1="119.9001" x2="28.3883285676538" y2="119.951211260566"/>
    <line x1="28.3883285676538" y1="119.951211260566" x2="28.7501" y2="120.101061894323"/>
    <line x1="28.7501" y1="120.101061894323" x2="29.0607601717798" y2="120.33943982822"/>
    <line x1="29.0607601717798" y1="120.33943982822" x2="29.2991381056767" y2="120.6501"/>
    <line x1="29.2991381056767" y1="120.6501" x2="29.4489887394336" y2="121.011871432346"/>
    <line x1="29.4489887394336" y1="121.011871432346" x2="29.5001" y2="121.4001"/>
    <line x1="48.0001" y1="119.9001" x2="48.0001" y2="122.9001"/>
    <line x1="48.0001" y1="122.9001" x2="38.0001" y2="122.9001"/>
    <line x1="38.0001" y1="122.9001" x2="38.0001" y2="119.9001"/>
    <line x1="38.0001" y1="119.9001" x2="48.0001" y2="119.9001"/>
    <line x1="18.0001" y1="119.9001" x2="18.0001" y2="122.9001"/>
    <line x1="18.0001" y1="122.9001" x2="8.0001" y2="122.9001"/>
    <line x1="8.0001" y1="122.9001" x2="8.0001" y2="119.9001"/>
    <line x1="8.0001" y1="119.9001" x2="18.0001" y2="119.9001"/>
    <line x1="48.0001" y1="6.0001" x2="38.0001" y2="6.0001"/>
    <line x1="38.0001" y1="6.0001" x2="38.0001" y2="3.00010000000011"/>
    <line x1="38.0001" y1="3.00010000000011" x2="48.0001" y2="3.00010000000011"/>
    <line x1="48.0001" y1="3.00010000000011" x2="48.0001" y2="6.0001"/>
    <line x1="18.0001" y1="3.00010000000011" x2="18.0001" y2="6.0001"/>
    <line x1="18.0001" y1="6.0001" x2="8.0001" y2="6.0001"/>
    <line x1="8.0001" y1="6.0001" x2="8.0001" y2="3.00010000000011"/>
    <line x1="8.0001" y1="3.00010000000011" x2="18.0001" y2="3.00010000000011"/>
  </g>
</svg>
