<?xml version="1.0" standalone="no"?>
<!DOCTYPE svg PUBLIC "-//W3C//DTD SVG 1.1//EN" "http://www.w3.org/Graphics/SVG/1.1/DTD/svg11.dtd">
<svg width="102.0mm" height="88.0000000000007mm"
 viewBox="0 0 102.0 88.0000000000007"
 xmlns="http://www.w3.org/2000/svg" version="1.1"
 xmlns:xlink="http://www.w3.org/1999/xlink">
<desc>Output from Flights of Ideas SVG Sketchup Plugin</desc>

  <g id="face0" fill="none" stroke="rgb(0,0,255)" stroke-width="1" stroke-miterlimit="4" stroke-dasharray="none" stroke-linejoin="round" stroke-linecap="round">
    <line x1="101.0" y1="4.00000000000045" x2="101.0" y2="3.00000000000057"/>
    <line x1="101.0" y1="3.00000000000057" x2="51.0000000000002" y2="1.00000000000045"/>
    <line x1="51.0000000000002" y1="1.00000000000045" x2="1.0" y2="1.0"/>
    <line x1="1.0" y1="1.0" x2="1.0" y2="6.00000000000114"/>
    <line x1="1.0" y1="6.00000000000114" x2="4.0" y2="6.00000000000045"/>
    <line x1="4.0" y1="6.00000000000045" x2="4.0" y2="14.5000000000007"/>
    <line x1="4.0" y1="14.5000000000007" x2="6.0" y2="14.5000000000007"/>
    <line x1="6.0" y1="14.5000000000007" x2="6.0" y2="13.2000000000006"/>
    <line x1="6.0" y1="13.2000000000006" x2="8.20000000000027" y2="13.2000000000005"/>
    <line x1="8.20000000000027" y1="13.2000000000005" x2="8.20000000000027" y2="14.5000000000007"/>
    <line x1="8.20000000000027" y1="14.5000000000007" x2="11.2000000000003" y2="14.5000000000007"/>
    <line x1="11.2000000000003" y1="14.5000000000007" x2="11.2000000000003" y2="17.5000000000005"/>
    <line x1="11.2000000000003" y1="17.5000000000005" x2="8.20000000000027" y2="17.5000000000005"/>
    <line x1="8.20000000000027" y1="17.5000000000005" x2="8.20000000000027" y2="18.8000000000005"/>
    <line x1="8.20000000000027" y1="18.8000000000005" x2="6.0" y2="18.8000000000005"/>
    <line x1="6.0" y1="18.8000000000005" x2="6.0" y2="17.5000000000005"/>
    <line x1="6.0" y1="17.5000000000005" x2="4.0" y2="17.5000000000005"/>
    <line x1="4.0" y1="17.5000000000005" x2="4.0" y2="70.5000000000005"/>
    <line x1="4.0" y1="70.5000000000005" x2="6.0" y2="70.5000000000005"/>
    <line x1="6.0" y1="70.5000000000005" x2="6.0" y2="69.2000000000007"/>
    <line x1="6.0" y1="69.2000000000007" x2="8.20000000000027" y2="69.2000000000007"/>
    <line x1="8.20000000000027" y1="69.2000000000007" x2="8.20000000000027" y2="70.5000000000005"/>
    <line x1="8.20000000000027" y1="70.5000000000005" x2="11.1999999999998" y2="70.5000000000006"/>
    <line x1="11.1999999999998" y1="70.5000000000006" x2="11.2000000000003" y2="73.5000000000005"/>
    <line x1="11.2000000000003" y1="73.5000000000005" x2="8.20000000000027" y2="73.5000000000005"/>
    <line x1="8.20000000000027" y1="73.5000000000005" x2="8.20000000000027" y2="74.8000000000005"/>
    <line x1="8.20000000000027" y1="74.8000000000005" x2="6.0" y2="74.8000000000005"/>
    <line x1="6.0" y1="74.8000000000005" x2="6.0" y2="73.5000000000005"/>
    <line x1="6.0" y1="73.5000000000005" x2="4.0" y2="73.5000000000005"/>
    <line x1="4.0" y1="73.5000000000005" x2="4.0" y2="82.0000000000006"/>
    <line x1="4.0" y1="82.0000000000006" x2="1.0" y2="82.0000000000006"/>
    <line x1="1.0" y1="82.0000000000006" x2="1.0" y2="87.0000000000007"/>
    <line x1="1.0" y1="87.0000000000007" x2="51.0000000000002" y2="87.0000000000007"/>
    <line x1="51.0000000000002" y1="87.0000000000007" x2="101.0" y2="85.0000000000003"/>
    <line x1="101.0" y1="85.0000000000003" x2="101.0" y2="84.0000000000006"/>
    <line x1="101.0" y1="84.0000000000006" x2="51.0" y2="84.0000000000005"/>
    <line x1="51.0" y1="84.0000000000005" x2="51.0" y2="4.00000000000045"/>
    <line x1="51.0" y1="4.00000000000045" x2="101.0" y2="4.00000000000045"/>
  </g>
</svg>
