<?xml version="1.0" standalone="no"?>
<!DOCTYPE svg PUBLIC "-//W3C//DTD SVG 1.1//EN" "http://www.w3.org/Graphics/SVG/1.1/DTD/svg11.dtd">
<svg width="94.0mm" height="94.0mm"
 viewBox="0 0 94.0 94.0"
 xmlns="http://www.w3.org/2000/svg" version="1.1"
 xmlns:xlink="http://www.w3.org/1999/xlink">
<desc>Output from Flights of Ideas SVG Sketchup Plugin</desc>

  <g id="face0" fill="none" stroke="rgb(0,0,255)" stroke-width="1" stroke-miterlimit="4" stroke-dasharray="none" stroke-linejoin="round" stroke-linecap="round">
    <line x1="93.0" y1="93.0" x2="93.0" y2="1.0"/>
    <line x1="93.0" y1="1.0" x2="1.0" y2="1.0"/>
    <line x1="1.0" y1="1.0" x2="1.0" y2="93.0"/>
    <line x1="1.0" y1="93.0" x2="93.0" y2="93.0"/>
    <line x1="57.352761804101" y1="85.6370330515628" x2="47.0" y2="86.9999999999999"/>
    <line x1="47.0" y1="86.9999999999999" x2="36.6472381958993" y2="85.6370330515628"/>
    <line x1="36.6472381958993" y1="85.6370330515628" x2="27.0" y2="81.6410161513775"/>
    <line x1="27.0" y1="81.6410161513775" x2="18.7157287525381" y2="75.2842712474619"/>
    <line x1="18.7157287525381" y1="75.2842712474619" x2="12.3589838486225" y2="67.0"/>
    <line x1="12.3589838486225" y1="67.0" x2="8.36296694843736" y2="57.3527618041009"/>
    <line x1="8.36296694843736" y1="57.3527618041009" x2="7.00000000000023" y2="47.0"/>
    <line x1="7.00000000000023" y1="47.0" x2="8.36296694843736" y2="36.6472381958991"/>
    <line x1="8.36296694843736" y1="36.6472381958991" x2="12.3589838486225" y2="27.0"/>
    <line x1="12.3589838486225" y1="27.0" x2="18.7157287525381" y2="18.715728752538"/>
    <line x1="18.7157287525381" y1="18.715728752538" x2="27.0" y2="12.3589838486224"/>
    <line x1="27.0" y1="12.3589838486224" x2="36.6472381958993" y2="8.36296694843736"/>
    <line x1="36.6472381958993" y1="8.36296694843736" x2="47.0" y2="7.0"/>
    <line x1="47.0" y1="7.0" x2="57.352761804101" y2="8.36296694843736"/>
    <line x1="57.352761804101" y1="8.36296694843736" x2="67.0000000000002" y2="12.3589838486224"/>
    <line x1="67.0000000000002" y1="12.3589838486224" x2="75.2842712474621" y2="18.7157287525382"/>
    <line x1="75.2842712474621" y1="18.7157287525382" x2="81.6410161513775" y2="27.0"/>
    <line x1="81.6410161513775" y1="27.0" x2="85.6370330515626" y2="36.6472381958991"/>
    <line x1="85.6370330515626" y1="36.6472381958991" x2="87.0" y2="47.0"/>
    <line x1="87.0" y1="47.0" x2="85.6370330515629" y2="57.3527618041009"/>
    <line x1="85.6370330515629" y1="57.3527618041009" x2="81.6410161513775" y2="67.0"/>
    <line x1="81.6410161513775" y1="67.0" x2="75.2842712474621" y2="75.2842712474619"/>
    <line x1="75.2842712474621" y1="75.2842712474619" x2="67.0000000000002" y2="81.6410161513775"/>
    <line x1="67.0000000000002" y1="81.6410161513775" x2="57.352761804101" y2="85.6370330515628"/>
    <line x1="11.8064609469707" y1="9.17325947347854" x2="12.325" y2="9.38804538186344"/>
    <line x1="12.325" y1="9.38804538186344" x2="12.770279579551" y2="9.72972042044887"/>
    <line x1="12.770279579551" y1="9.72972042044887" x2="13.1119546181367" y2="10.1750000000001"/>
    <line x1="13.1119546181367" y1="10.1750000000001" x2="13.3267405265215" y2="10.6935390530296"/>
    <line x1="13.3267405265215" y1="10.6935390530296" x2="13.4000000000001" y2="11.25"/>
    <line x1="13.4000000000001" y1="11.25" x2="13.3267405265215" y2="11.8064609469704"/>
    <line x1="13.3267405265215" y1="11.8064609469704" x2="13.1119546181367" y2="12.3249999999999"/>
    <line x1="13.1119546181367" y1="12.3249999999999" x2="12.770279579551" y2="12.770279579551"/>
    <line x1="12.770279579551" y1="12.770279579551" x2="12.325" y2="13.1119546181366"/>
    <line x1="12.325" y1="13.1119546181366" x2="11.8064609469704" y2="13.3267405265215"/>
    <line x1="11.8064609469704" y1="13.3267405265215" x2="11.25" y2="13.4000000000001"/>
    <line x1="11.25" y1="13.4000000000001" x2="10.6935390530298" y2="13.3267405265215"/>
    <line x1="10.6935390530298" y1="13.3267405265215" x2="10.1750000000002" y2="13.1119546181366"/>
    <line x1="10.1750000000002" y1="13.1119546181366" x2="9.72972042044898" y2="12.770279579551"/>
    <line x1="9.72972042044898" y1="12.770279579551" x2="9.38804538186355" y2="12.3249999999999"/>
    <line x1="9.38804538186355" y1="12.3249999999999" x2="9.17325947347854" y2="11.8064609469704"/>
    <line x1="9.17325947347854" y1="11.8064609469704" x2="9.09999999999991" y2="11.25"/>
    <line x1="9.09999999999991" y1="11.25" x2="9.17325947347854" y2="10.6935390530296"/>
    <line x1="9.17325947347854" y1="10.6935390530296" x2="9.38804538186355" y2="10.1750000000001"/>
    <line x1="9.38804538186355" y1="10.1750000000001" x2="9.72972042044898" y2="9.72972042044887"/>
    <line x1="9.72972042044898" y1="9.72972042044887" x2="10.1750000000002" y2="9.38804538186344"/>
    <line x1="10.1750000000002" y1="9.38804538186344" x2="10.6935390530296" y2="9.17325947347854"/>
    <line x1="10.6935390530296" y1="9.17325947347854" x2="11.25" y2="9.09999999999991"/>
    <line x1="11.25" y1="9.09999999999991" x2="11.8064609469707" y2="9.17325947347854"/>
    <line x1="84.2702795795512" y1="9.72972042044898" x2="84.6119546181367" y2="10.1750000000001"/>
    <line x1="84.6119546181367" y1="10.1750000000001" x2="84.8267405265215" y2="10.6935390530296"/>
    <line x1="84.8267405265215" y1="10.6935390530296" x2="84.8999999999999" y2="11.25"/>
    <line x1="84.8999999999999" y1="11.25" x2="84.8267405265215" y2="11.8064609469703"/>
    <line x1="84.8267405265215" y1="11.8064609469703" x2="84.6119546181367" y2="12.3249999999999"/>
    <line x1="84.6119546181367" y1="12.3249999999999" x2="84.2702795795512" y2="12.770279579551"/>
    <line x1="84.2702795795512" y1="12.770279579551" x2="83.825" y2="13.1119546181365"/>
    <line x1="83.825" y1="13.1119546181365" x2="83.3064609469704" y2="13.3267405265215"/>
    <line x1="83.3064609469704" y1="13.3267405265215" x2="82.75" y2="13.3999999999999"/>
    <line x1="82.75" y1="13.3999999999999" x2="82.1935390530298" y2="13.3267405265215"/>
    <line x1="82.1935390530298" y1="13.3267405265215" x2="81.6750000000002" y2="13.1119546181365"/>
    <line x1="81.6750000000002" y1="13.1119546181365" x2="81.229720420449" y2="12.770279579551"/>
    <line x1="81.229720420449" y1="12.770279579551" x2="80.8880453818635" y2="12.3249999999999"/>
    <line x1="80.8880453818635" y1="12.3249999999999" x2="80.6732594734785" y2="11.8064609469703"/>
    <line x1="80.6732594734785" y1="11.8064609469703" x2="80.6000000000001" y2="11.25"/>
    <line x1="80.6000000000001" y1="11.25" x2="80.6732594734785" y2="10.6935390530296"/>
    <line x1="80.6732594734785" y1="10.6935390530296" x2="80.8880453818635" y2="10.1750000000001"/>
    <line x1="80.8880453818635" y1="10.1750000000001" x2="81.229720420449" y2="9.72972042044898"/>
    <line x1="81.229720420449" y1="9.72972042044898" x2="81.6750000000002" y2="9.38804538186344"/>
    <line x1="81.6750000000002" y1="9.38804538186344" x2="82.1935390530298" y2="9.17325947347854"/>
    <line x1="82.1935390530298" y1="9.17325947347854" x2="82.75" y2="9.09999999999991"/>
    <line x1="82.75" y1="9.09999999999991" x2="83.3064609469704" y2="9.17325947347854"/>
    <line x1="83.3064609469704" y1="9.17325947347854" x2="83.825" y2="9.38804538186344"/>
    <line x1="83.825" y1="9.38804538186344" x2="84.2702795795512" y2="9.72972042044898"/>
    <line x1="84.8267405265215" y1="82.1935390530297" x2="84.8999999999999" y2="82.75"/>
    <line x1="84.8999999999999" y1="82.75" x2="84.8267405265215" y2="83.3064609469704"/>
    <line x1="84.8267405265215" y1="83.3064609469704" x2="84.6119546181367" y2="83.8249999999999"/>
    <line x1="84.6119546181367" y1="83.8249999999999" x2="84.270279579551" y2="84.270279579551"/>
    <line x1="84.270279579551" y1="84.270279579551" x2="83.8250000000003" y2="84.6119546181366"/>
    <line x1="83.8250000000003" y1="84.6119546181366" x2="83.3064609469704" y2="84.8267405265215"/>
    <line x1="83.3064609469704" y1="84.8267405265215" x2="82.75" y2="84.9"/>
    <line x1="82.75" y1="84.9" x2="82.1935390530296" y2="84.8267405265215"/>
    <line x1="82.1935390530296" y1="84.8267405265215" x2="81.6750000000002" y2="84.6119546181366"/>
    <line x1="81.6750000000002" y1="84.6119546181366" x2="81.229720420449" y2="84.270279579551"/>
    <line x1="81.229720420449" y1="84.270279579551" x2="80.8880453818635" y2="83.8249999999999"/>
    <line x1="80.8880453818635" y1="83.8249999999999" x2="80.6732594734785" y2="83.3064609469704"/>
    <line x1="80.6732594734785" y1="83.3064609469704" x2="80.6000000000001" y2="82.75"/>
    <line x1="80.6000000000001" y1="82.75" x2="80.6732594734785" y2="82.1935390530297"/>
    <line x1="80.6732594734785" y1="82.1935390530297" x2="80.8880453818635" y2="81.6750000000001"/>
    <line x1="80.8880453818635" y1="81.6750000000001" x2="81.229720420449" y2="81.229720420449"/>
    <line x1="81.229720420449" y1="81.229720420449" x2="81.6750000000002" y2="80.8880453818635"/>
    <line x1="81.6750000000002" y1="80.8880453818635" x2="82.1935390530298" y2="80.6732594734785"/>
    <line x1="82.1935390530298" y1="80.6732594734785" x2="82.75" y2="80.6000000000001"/>
    <line x1="82.75" y1="80.6000000000001" x2="83.3064609469704" y2="80.6732594734785"/>
    <line x1="83.3064609469704" y1="80.6732594734785" x2="83.825" y2="80.8880453818635"/>
    <line x1="83.825" y1="80.8880453818635" x2="84.2702795795512" y2="81.229720420449"/>
    <line x1="84.2702795795512" y1="81.229720420449" x2="84.6119546181365" y2="81.6750000000001"/>
    <line x1="84.6119546181365" y1="81.6750000000001" x2="84.8267405265215" y2="82.1935390530297"/>
    <line x1="13.4000000000001" y1="82.75" x2="13.3267405265215" y2="83.3064609469706"/>
    <line x1="13.3267405265215" y1="83.3064609469706" x2="13.1119546181367" y2="83.825"/>
    <line x1="13.1119546181367" y1="83.825" x2="12.770279579551" y2="84.2702795795512"/>
    <line x1="12.770279579551" y1="84.2702795795512" x2="12.325" y2="84.6119546181366"/>
    <line x1="12.325" y1="84.6119546181366" x2="11.8064609469707" y2="84.8267405265215"/>
    <line x1="11.8064609469707" y1="84.8267405265215" x2="11.25" y2="84.9"/>
    <line x1="11.25" y1="84.9" x2="10.6935390530296" y2="84.8267405265215"/>
    <line x1="10.6935390530296" y1="84.8267405265215" x2="10.175" y2="84.6119546181367"/>
    <line x1="10.175" y1="84.6119546181367" x2="9.72972042044898" y2="84.2702795795511"/>
    <line x1="9.72972042044898" y1="84.2702795795511" x2="9.38804538186355" y2="83.8249999999999"/>
    <line x1="9.38804538186355" y1="83.8249999999999" x2="9.17325947347854" y2="83.3064609469704"/>
    <line x1="9.17325947347854" y1="83.3064609469704" x2="9.09999999999991" y2="82.7500000000001"/>
    <line x1="9.09999999999991" y1="82.7500000000001" x2="9.17325947347854" y2="82.1935390530297"/>
    <line x1="9.17325947347854" y1="82.1935390530297" x2="9.38804538186355" y2="81.6750000000001"/>
    <line x1="9.38804538186355" y1="81.6750000000001" x2="9.72972042044898" y2="81.229720420449"/>
    <line x1="9.72972042044898" y1="81.229720420449" x2="10.1750000000002" y2="80.8880453818633"/>
    <line x1="10.1750000000002" y1="80.8880453818633" x2="10.6935390530296" y2="80.6732594734785"/>
    <line x1="10.6935390530296" y1="80.6732594734785" x2="11.25" y2="80.5999999999999"/>
    <line x1="11.25" y1="80.5999999999999" x2="11.8064609469707" y2="80.6732594734785"/>
    <line x1="11.8064609469707" y1="80.6732594734785" x2="12.325" y2="80.8880453818634"/>
    <line x1="12.325" y1="80.8880453818634" x2="12.770279579551" y2="81.229720420449"/>
    <line x1="12.770279579551" y1="81.229720420449" x2="13.1119546181367" y2="81.6750000000001"/>
    <line x1="13.1119546181367" y1="81.6750000000001" x2="13.3267405265215" y2="82.1935390530297"/>
    <line x1="13.3267405265215" y1="82.1935390530297" x2="13.4000000000001" y2="82.75"/>
    <line x1="17.5511112605666" y1="5.88822856765375" x2="17.5" y2="5.5"/>
    <line x1="17.5" y1="5.5" x2="17.5511112605666" y2="5.11177143234613"/>
    <line x1="17.5511112605666" y1="5.11177143234613" x2="17.7009618943234" y2="4.75"/>
    <line x1="17.7009618943234" y1="4.75" x2="17.9393398282202" y2="4.43933982822023"/>
    <line x1="17.9393398282202" y1="4.43933982822023" x2="18.25" y2="4.20096189432331"/>
    <line x1="18.25" y1="4.20096189432331" x2="18.6117714323461" y2="4.05111126056636"/>
    <line x1="18.6117714323461" y1="4.05111126056636" x2="19.0000000000002" y2="4.0"/>
    <line x1="19.0000000000002" y1="4.0" x2="19.3882285676539" y2="4.05111126056636"/>
    <line x1="19.3882285676539" y1="4.05111126056636" x2="19.7500000000002" y2="4.20096189432331"/>
    <line x1="19.7500000000002" y1="4.20096189432331" x2="20.06066017178" y2="4.43933982822023"/>
    <line x1="20.06066017178" y1="4.43933982822023" x2="20.2990381056768" y2="4.75"/>
    <line x1="20.2990381056768" y1="4.75" x2="20.4488887394336" y2="5.11177143234613"/>
    <line x1="20.4488887394336" y1="5.11177143234613" x2="20.5000000000002" y2="5.5"/>
    <line x1="20.5000000000002" y1="5.5" x2="20.4488887394336" y2="5.88822856765375"/>
    <line x1="20.4488887394336" y1="5.88822856765375" x2="20.2990381056768" y2="6.25"/>
    <line x1="20.2990381056768" y1="6.25" x2="20.06066017178" y2="6.56066017177989"/>
    <line x1="20.06066017178" y1="6.56066017177989" x2="19.7500000000002" y2="6.79903810567657"/>
    <line x1="19.7500000000002" y1="6.79903810567657" x2="19.3882285676539" y2="6.94888873943376"/>
    <line x1="19.3882285676539" y1="6.94888873943376" x2="19.0000000000002" y2="7.0"/>
    <line x1="19.0000000000002" y1="7.0" x2="18.6117714323464" y2="6.94888873943376"/>
    <line x1="18.6117714323464" y1="6.94888873943376" x2="18.25" y2="6.79903810567657"/>
    <line x1="18.25" y1="6.79903810567657" x2="17.9393398282202" y2="6.56066017177989"/>
    <line x1="17.9393398282202" y1="6.56066017177989" x2="17.7009618943234" y2="6.25"/>
    <line x1="17.7009618943234" y1="6.25" x2="17.5511112605666" y2="5.88822856765375"/>
    <line x1="76.4488887394336" y1="5.11177143234613" x2="76.5000000000002" y2="5.5"/>
    <line x1="76.5000000000002" y1="5.5" x2="76.4488887394339" y2="5.88822856765375"/>
    <line x1="76.4488887394339" y1="5.88822856765375" x2="76.2990381056768" y2="6.25"/>
    <line x1="76.2990381056768" y1="6.25" x2="76.06066017178" y2="6.56066017177989"/>
    <line x1="76.06066017178" y1="6.56066017177989" x2="75.7500000000002" y2="6.79903810567657"/>
    <line x1="75.7500000000002" y1="6.79903810567657" x2="75.3882285676541" y2="6.94888873943376"/>
    <line x1="75.3882285676541" y1="6.94888873943376" x2="75.0000000000002" y2="7.0"/>
    <line x1="75.0000000000002" y1="7.0" x2="74.6117714323464" y2="6.94888873943376"/>
    <line x1="74.6117714323464" y1="6.94888873943376" x2="74.2500000000002" y2="6.79903810567657"/>
    <line x1="74.2500000000002" y1="6.79903810567657" x2="73.9393398282205" y2="6.56066017177989"/>
    <line x1="73.9393398282205" y1="6.56066017177989" x2="73.7009618943237" y2="6.25"/>
    <line x1="73.7009618943237" y1="6.25" x2="73.5511112605666" y2="5.88822856765375"/>
    <line x1="73.5511112605666" y1="5.88822856765375" x2="73.5000000000002" y2="5.5"/>
    <line x1="73.5000000000002" y1="5.5" x2="73.5511112605666" y2="5.11177143234613"/>
    <line x1="73.5511112605666" y1="5.11177143234613" x2="73.7009618943234" y2="4.75"/>
    <line x1="73.7009618943234" y1="4.75" x2="73.9393398282202" y2="4.43933982822023"/>
    <line x1="73.9393398282202" y1="4.43933982822023" x2="74.2500000000002" y2="4.20096189432331"/>
    <line x1="74.2500000000002" y1="4.20096189432331" x2="74.6117714323466" y2="4.05111126056636"/>
    <line x1="74.6117714323466" y1="4.05111126056636" x2="75.0000000000002" y2="4.0"/>
    <line x1="75.0000000000002" y1="4.0" x2="75.3882285676541" y2="4.05111126056636"/>
    <line x1="75.3882285676541" y1="4.05111126056636" x2="75.7500000000002" y2="4.20096189432331"/>
    <line x1="75.7500000000002" y1="4.20096189432331" x2="76.06066017178" y2="4.43933982822023"/>
    <line x1="76.06066017178" y1="4.43933982822023" x2="76.299038105677" y2="4.75"/>
    <line x1="76.299038105677" y1="4.75" x2="76.4488887394336" y2="5.11177143234613"/>
    <line x1="85.0" y1="7.0" x2="85.0000000000002" y2="4.0"/>
    <line x1="85.0000000000002" y1="4.0" x2="90.0000000000002" y2="4.0"/>
    <line x1="90.0000000000002" y1="4.0" x2="90.0" y2="7.0"/>
    <line x1="90.0" y1="7.0" x2="85.0" y2="7.0"/>
    <line x1="9.0" y1="4.0" x2="9.0" y2="7.0"/>
    <line x1="9.0" y1="7.0" x2="4.0" y2="7.0"/>
    <line x1="4.0" y1="7.0" x2="4.0" y2="4.0"/>
    <line x1="4.0" y1="4.0" x2="9.0" y2="4.0"/>
    <line x1="4.0" y1="86.9999999999998" x2="9.0" y2="87.0"/>
    <line x1="9.0" y1="87.0" x2="9.0" y2="90.0"/>
    <line x1="9.0" y1="90.0" x2="4.0" y2="90.0"/>
    <line x1="4.0" y1="90.0" x2="4.0" y2="86.9999999999998"/>
    <line x1="17.5511112605664" y1="88.8882285676539" x2="17.5" y2="88.4999999999999"/>
    <line x1="17.5" y1="88.4999999999999" x2="17.5511112605664" y2="88.1117714323464"/>
    <line x1="17.5511112605664" y1="88.1117714323464" x2="17.7009618943234" y2="87.7500000000001"/>
    <line x1="17.7009618943234" y1="87.7500000000001" x2="17.9393398282202" y2="87.43933982822"/>
    <line x1="17.9393398282202" y1="87.43933982822" x2="18.25" y2="87.2009618943234"/>
    <line x1="18.25" y1="87.2009618943234" x2="18.6117714323461" y2="87.0511112605664"/>
    <line x1="18.6117714323461" y1="87.0511112605664" x2="19.0" y2="87.0"/>
    <line x1="19.0" y1="87.0" x2="19.3882285676539" y2="87.0511112605665"/>
    <line x1="19.3882285676539" y1="87.0511112605665" x2="19.7500000000002" y2="87.2009618943233"/>
    <line x1="19.7500000000002" y1="87.2009618943233" x2="20.06066017178" y2="87.4393398282201"/>
    <line x1="20.06066017178" y1="87.4393398282201" x2="20.2990381056768" y2="87.7500000000001"/>
    <line x1="20.2990381056768" y1="87.7500000000001" x2="20.4488887394336" y2="88.1117714323464"/>
    <line x1="20.4488887394336" y1="88.1117714323464" x2="20.5" y2="88.5"/>
    <line x1="20.5" y1="88.5" x2="20.4488887394336" y2="88.8882285676539"/>
    <line x1="20.4488887394336" y1="88.8882285676539" x2="20.2990381056768" y2="89.2499999999999"/>
    <line x1="20.2990381056768" y1="89.2499999999999" x2="20.06066017178" y2="89.5606601717798"/>
    <line x1="20.06066017178" y1="89.5606601717798" x2="19.7500000000002" y2="89.7990381056767"/>
    <line x1="19.7500000000002" y1="89.7990381056767" x2="19.3882285676539" y2="89.9488887394336"/>
    <line x1="19.3882285676539" y1="89.9488887394336" x2="19.0" y2="89.9999999999998"/>
    <line x1="19.0" y1="89.9999999999998" x2="18.6117714323461" y2="89.9488887394333"/>
    <line x1="18.6117714323461" y1="89.9488887394333" x2="18.25" y2="89.7990381056767"/>
    <line x1="18.25" y1="89.7990381056767" x2="17.9393398282202" y2="89.5606601717798"/>
    <line x1="17.9393398282202" y1="89.5606601717798" x2="17.7009618943234" y2="89.2500000000001"/>
    <line x1="17.7009618943234" y1="89.2500000000001" x2="17.5511112605664" y2="88.8882285676539"/>
    <line x1="90.0" y1="86.9999999999999" x2="90.0" y2="90.0"/>
    <line x1="90.0" y1="90.0" x2="85.0" y2="90.0"/>
    <line x1="85.0" y1="90.0" x2="85.0" y2="86.9999999999999"/>
    <line x1="85.0" y1="86.9999999999999" x2="90.0" y2="86.9999999999999"/>
    <line x1="76.4488887394336" y1="88.1117714323462" x2="76.5" y2="88.4999999999999"/>
    <line x1="76.5" y1="88.4999999999999" x2="76.4488887394336" y2="88.8882285676539"/>
    <line x1="76.4488887394336" y1="88.8882285676539" x2="76.2990381056768" y2="89.2500000000001"/>
    <line x1="76.2990381056768" y1="89.2500000000001" x2="76.06066017178" y2="89.5606601717799"/>
    <line x1="76.06066017178" y1="89.5606601717799" x2="75.75" y2="89.7990381056767"/>
    <line x1="75.75" y1="89.7990381056767" x2="75.3882285676539" y2="89.9488887394336"/>
    <line x1="75.3882285676539" y1="89.9488887394336" x2="75.0000000000002" y2="90.0"/>
    <line x1="75.0000000000002" y1="90.0" x2="74.6117714323464" y2="89.9488887394336"/>
    <line x1="74.6117714323464" y1="89.9488887394336" x2="74.25" y2="89.7990381056767"/>
    <line x1="74.25" y1="89.7990381056767" x2="73.9393398282205" y2="89.5606601717799"/>
    <line x1="73.9393398282205" y1="89.5606601717799" x2="73.7009618943234" y2="89.2500000000001"/>
    <line x1="73.7009618943234" y1="89.2500000000001" x2="73.5511112605666" y2="88.8882285676539"/>
    <line x1="73.5511112605666" y1="88.8882285676539" x2="73.5000000000002" y2="88.4999999999999"/>
    <line x1="73.5000000000002" y1="88.4999999999999" x2="73.5511112605666" y2="88.1117714323462"/>
    <line x1="73.5511112605666" y1="88.1117714323462" x2="73.7009618943234" y2="87.7500000000001"/>
    <line x1="73.7009618943234" y1="87.7500000000001" x2="73.9393398282205" y2="87.4393398282201"/>
    <line x1="73.9393398282205" y1="87.4393398282201" x2="74.25" y2="87.2009618943233"/>
    <line x1="74.25" y1="87.2009618943233" x2="74.6117714323464" y2="87.0511112605665"/>
    <line x1="74.6117714323464" y1="87.0511112605665" x2="75.0" y2="86.9999999999999"/>
    <line x1="75.0" y1="86.9999999999999" x2="75.3882285676539" y2="87.0511112605665"/>
    <line x1="75.3882285676539" y1="87.0511112605665" x2="75.75" y2="87.2009618943233"/>
    <line x1="75.75" y1="87.2009618943233" x2="76.06066017178" y2="87.4393398282201"/>
    <line x1="76.06066017178" y1="87.4393398282201" x2="76.2990381056768" y2="87.7500000000001"/>
    <line x1="76.2990381056768" y1="87.7500000000001" x2="76.4488887394336" y2="88.1117714323462"/>
  </g>
</svg>
