<?xml version="1.0" standalone="no"?>
<!DOCTYPE svg PUBLIC "-//W3C//DTD SVG 1.1//EN" "http://www.w3.org/Graphics/SVG/1.1/DTD/svg11.dtd">
<svg width="108.0mm" height="87.9999999999999mm"
 viewBox="0 0 108.0 87.9999999999999"
 xmlns="http://www.w3.org/2000/svg" version="1.1"
 xmlns:xlink="http://www.w3.org/1999/xlink">
<desc>Output from Flights of Ideas SVG Sketchup Plugin</desc>

  <g id="face0" fill="none" stroke="rgb(0,0,255)" stroke-width="1" stroke-miterlimit="4" stroke-dasharray="none" stroke-linejoin="round" stroke-linecap="round">
    <line x1="104.0" y1="5.99999999999989" x2="104.0" y2="1.0"/>
    <line x1="104.0" y1="1.0" x2="1.0" y2="1.0"/>
    <line x1="1.0" y1="1.0" x2="1.0" y2="5.99999999999989"/>
    <line x1="1.0" y1="5.99999999999989" x2="4.0" y2="5.99999999999989"/>
    <line x1="4.0" y1="5.99999999999989" x2="4.0" y2="14.4999999999997"/>
    <line x1="4.0" y1="14.4999999999997" x2="5.99999999999977" y2="14.4999999999997"/>
    <line x1="5.99999999999977" y1="14.4999999999997" x2="5.99999999999977" y2="13.2"/>
    <line x1="5.99999999999977" y1="13.2" x2="8.20000000000005" y2="13.1999999999997"/>
    <line x1="8.20000000000005" y1="13.1999999999997" x2="8.20000000000005" y2="14.4999999999999"/>
    <line x1="8.20000000000005" y1="14.4999999999999" x2="11.2" y2="14.5"/>
    <line x1="11.2" y1="14.5" x2="11.2" y2="17.4999999999998"/>
    <line x1="11.2" y1="17.4999999999998" x2="8.20000000000005" y2="17.4999999999999"/>
    <line x1="8.20000000000005" y1="17.4999999999999" x2="8.20000000000005" y2="18.8"/>
    <line x1="8.20000000000005" y1="18.8" x2="5.99999999999977" y2="18.8"/>
    <line x1="5.99999999999977" y1="18.8" x2="5.99999999999977" y2="17.4999999999999"/>
    <line x1="5.99999999999977" y1="17.4999999999999" x2="4.0" y2="17.4999999999999"/>
    <line x1="4.0" y1="17.4999999999999" x2="4.0" y2="70.4999999999999"/>
    <line x1="4.0" y1="70.4999999999999" x2="5.99999999999977" y2="70.4999999999999"/>
    <line x1="5.99999999999977" y1="70.4999999999999" x2="5.99999999999977" y2="69.1999999999999"/>
    <line x1="5.99999999999977" y1="69.1999999999999" x2="8.20000000000005" y2="69.1999999999999"/>
    <line x1="8.20000000000005" y1="69.1999999999999" x2="8.20000000000005" y2="70.4999999999999"/>
    <line x1="8.20000000000005" y1="70.4999999999999" x2="11.2" y2="70.4999999999999"/>
    <line x1="11.2" y1="70.4999999999999" x2="11.1999999999998" y2="73.4999999999999"/>
    <line x1="11.1999999999998" y1="73.4999999999999" x2="8.20000000000005" y2="73.4999999999999"/>
    <line x1="8.20000000000005" y1="73.4999999999999" x2="8.20000000000005" y2="74.8"/>
    <line x1="8.20000000000005" y1="74.8" x2="5.99999999999977" y2="74.8"/>
    <line x1="5.99999999999977" y1="74.8" x2="5.99999999999977" y2="73.4999999999999"/>
    <line x1="5.99999999999977" y1="73.4999999999999" x2="4.0" y2="73.4999999999999"/>
    <line x1="4.0" y1="73.4999999999999" x2="4.0" y2="82.0"/>
    <line x1="4.0" y1="82.0" x2="1.0" y2="82.0"/>
    <line x1="1.0" y1="82.0" x2="1.0" y2="86.9999999999999"/>
    <line x1="1.0" y1="86.9999999999999" x2="104.0" y2="86.9999999999999"/>
    <line x1="104.0" y1="86.9999999999999" x2="104.0" y2="82.0"/>
    <line x1="104.0" y1="82.0" x2="102.0" y2="82.0"/>
    <line x1="102.0" y1="82.0" x2="102.0" y2="83.3000000000001"/>
    <line x1="102.0" y1="83.3000000000001" x2="99.8" y2="83.3000000000001"/>
    <line x1="99.8" y1="83.3000000000001" x2="99.8" y2="82.0"/>
    <line x1="99.8" y1="82.0" x2="96.7999999999997" y2="82.0"/>
    <line x1="96.7999999999997" y1="82.0" x2="96.8" y2="78.9999999999999"/>
    <line x1="96.8" y1="78.9999999999999" x2="99.8" y2="78.9999999999999"/>
    <line x1="99.8" y1="78.9999999999999" x2="99.8" y2="77.8000000000001"/>
    <line x1="99.8" y1="77.8000000000001" x2="102.0" y2="77.8000000000001"/>
    <line x1="102.0" y1="77.8000000000001" x2="102.0" y2="79.0999999999999"/>
    <line x1="102.0" y1="79.0999999999999" x2="104.0" y2="79.0999999999999"/>
    <line x1="104.0" y1="79.0999999999999" x2="104.0" y2="74.0999999999999"/>
    <line x1="104.0" y1="74.0999999999999" x2="107.0" y2="74.0999999999999"/>
    <line x1="107.0" y1="74.0999999999999" x2="107.0" y2="54.1"/>
    <line x1="107.0" y1="54.1" x2="104.0" y2="54.1"/>
    <line x1="104.0" y1="54.1" x2="104.0" y2="33.9999999999999"/>
    <line x1="104.0" y1="33.9999999999999" x2="107.0" y2="33.9999999999999"/>
    <line x1="107.0" y1="33.9999999999999" x2="107.0" y2="13.9999999999999"/>
    <line x1="107.0" y1="13.9999999999999" x2="104.0" y2="13.9999999999999"/>
    <line x1="104.0" y1="13.9999999999999" x2="104.0" y2="9.0"/>
    <line x1="104.0" y1="9.0" x2="102.0" y2="9.0"/>
    <line x1="102.0" y1="9.0" x2="102.0" y2="10.1999999999998"/>
    <line x1="102.0" y1="10.1999999999998" x2="99.8" y2="10.1999999999998"/>
    <line x1="99.8" y1="10.1999999999998" x2="99.8" y2="9.0"/>
    <line x1="99.8" y1="9.0" x2="96.7999999999997" y2="9.0"/>
    <line x1="96.7999999999997" y1="9.0" x2="96.7999999999997" y2="5.99999999999989"/>
    <line x1="96.7999999999997" y1="5.99999999999989" x2="99.8" y2="5.99999999999989"/>
    <line x1="99.8" y1="5.99999999999989" x2="99.8" y2="4.69999999999982"/>
    <line x1="99.8" y1="4.69999999999982" x2="102.0" y2="4.69999999999982"/>
    <line x1="102.0" y1="4.69999999999982" x2="102.0" y2="5.99999999999989"/>
    <line x1="102.0" y1="5.99999999999989" x2="104.0" y2="5.99999999999989"/>
  </g>
</svg>
