<?xml version="1.0" standalone="no"?>
<!DOCTYPE svg PUBLIC "-//W3C//DTD SVG 1.1//EN" "http://www.w3.org/Graphics/SVG/1.1/DTD/svg11.dtd">
<svg width="39.0002000000002mm" height="18.0002000000008mm"
 viewBox="0 0 39.0002000000002 18.0002000000008"
 xmlns="http://www.w3.org/2000/svg" version="1.1"
 xmlns:xlink="http://www.w3.org/1999/xlink">
<desc>Output from Flights of Ideas SVG Sketchup Plugin</desc>

  <g id="face0" fill="none" stroke="rgb(0,0,255)" stroke-width="1" stroke-miterlimit="4" stroke-dasharray="none" stroke-linejoin="round" stroke-linecap="round">
    <line x1="34.0001000000001" y1="3.00009999999994" x2="32.0001000000001" y2="3.00009999999994"/>
    <line x1="32.0001000000001" y1="3.00009999999994" x2="32.0001000000001" y2="5.00010000000003"/>
    <line x1="32.0001000000001" y1="5.00010000000003" x2="33.3001000000001" y2="5.00010000000003"/>
    <line x1="33.3001000000001" y1="5.00010000000003" x2="33.3001000000001" y2="7.20009999999999"/>
    <line x1="33.3001000000001" y1="7.20009999999999" x2="32.1001" y2="7.20009999999999"/>
    <line x1="32.1001" y1="7.20009999999999" x2="32.1001" y2="10.2000999999999"/>
    <line x1="32.1001" y1="10.2000999999999" x2="29.1001" y2="10.2000999999999"/>
    <line x1="29.1001" y1="10.2000999999999" x2="29.1001" y2="7.20009999999999"/>
    <line x1="29.1001" y1="7.20009999999999" x2="27.9001" y2="7.20009999999999"/>
    <line x1="27.9001" y1="7.20009999999999" x2="27.9001" y2="5.00010000000003"/>
    <line x1="27.9001" y1="5.00010000000003" x2="29.1001" y2="5.00010000000003"/>
    <line x1="29.1001" y1="5.00010000000003" x2="29.0670281656933" y2="3.00009999999994"/>
    <line x1="29.0670281656933" y1="3.00009999999994" x2="24.0001000000001" y2="3.00009999999994"/>
    <line x1="24.0001000000001" y1="3.00009999999994" x2="24.0001000000001" y2="10.5001000000006"/>
    <line x1="24.0001000000001" y1="10.5001000000006" x2="21.0001000000001" y2="10.5001000000006"/>
    <line x1="21.0001000000001" y1="10.5001000000006" x2="21.0001" y2="3.00009999999994"/>
    <line x1="21.0001" y1="3.00009999999994" x2="18.0000999999999" y2="3.00009999999994"/>
    <line x1="18.0000999999999" y1="3.00009999999994" x2="18.0001" y2="10.5001000000007"/>
    <line x1="18.0001" y1="10.5001000000007" x2="15.0001" y2="10.5001000000007"/>
    <line x1="15.0001" y1="10.5001000000007" x2="15.0001" y2="3.00009999999994"/>
    <line x1="15.0001" y1="3.00009999999994" x2="10.0001" y2="3.00009999999994"/>
    <line x1="10.0001" y1="3.00009999999994" x2="10.0001" y2="5.00010000000057"/>
    <line x1="10.0001" y1="5.00010000000057" x2="11.3001000000001" y2="5.00010000000057"/>
    <line x1="11.3001000000001" y1="5.00010000000057" x2="11.3001000000001" y2="7.20010000000053"/>
    <line x1="11.3001000000001" y1="7.20010000000053" x2="10.0001" y2="7.20010000000053"/>
    <line x1="10.0001" y1="7.20010000000053" x2="10.0001" y2="10.2001000000005"/>
    <line x1="10.0001" y1="10.2001000000005" x2="7.0001" y2="10.2001000000005"/>
    <line x1="7.0001" y1="10.2001000000005" x2="7.0001" y2="7.20010000000053"/>
    <line x1="7.0001" y1="7.20010000000053" x2="5.70010000000005" y2="7.20010000000053"/>
    <line x1="5.70010000000005" y1="7.20010000000053" x2="5.70010000000005" y2="5.00010000000063"/>
    <line x1="5.70010000000005" y1="5.00010000000063" x2="7.0001" y2="5.00010000000057"/>
    <line x1="7.0001" y1="5.00010000000057" x2="7.0001" y2="3.00009999999994"/>
    <line x1="7.0001" y1="3.00009999999994" x2="5.0001" y2="3.00009999999994"/>
    <line x1="5.0001" y1="3.00009999999994" x2="5.0001" y2="0.000100000000540012"/>
    <line x1="5.0001" y1="0.000100000000540012" x2="0.0001" y2="0.000100000000511591"/>
    <line x1="0.0001" y1="0.000100000000511591" x2="0.000100000000113687" y2="18.0001000000008"/>
    <line x1="0.000100000000113687" y1="18.0001000000008" x2="39.0001000000002" y2="18.0001000000006"/>
    <line x1="39.0001000000002" y1="18.0001000000006" x2="39.0001000000001" y2="0.0001"/>
    <line x1="39.0001000000001" y1="0.0001" x2="34.0001000000001" y2="0.0001"/>
    <line x1="34.0001000000001" y1="0.0001" x2="34.0001000000001" y2="3.00009999999994"/>
  </g>
</svg>
