<?xml version="1.0" standalone="no"?>
<!DOCTYPE svg PUBLIC "-//W3C//DTD SVG 1.1//EN" "http://www.w3.org/Graphics/SVG/1.1/DTD/svg11.dtd">
<svg width="13.0002mm" height="40.0002000000001mm"
 viewBox="0 0 13.0002 40.0002000000001"
 xmlns="http://www.w3.org/2000/svg" version="1.1"
 xmlns:xlink="http://www.w3.org/1999/xlink">
<desc>Output from Flights of Ideas SVG Sketchup Plugin</desc>

  <g id="face0" fill="none" stroke="rgb(0,0,255)" stroke-width="1" stroke-miterlimit="4" stroke-dasharray="none" stroke-linejoin="round" stroke-linecap="round">
    <line x1="0.0001" y1="8.0001" x2="0.0001" y2="35.0001000000002"/>
    <line x1="0.0001" y1="35.0001000000002" x2="0.0428756931309204" y2="35.6527309611004"/>
    <line x1="0.0428756931309204" y1="35.6527309611004" x2="0.170470868554642" y2="36.2941952255128"/>
    <line x1="0.170470868554642" y1="36.2941952255128" x2="0.380702337443634" y2="36.9135171618256"/>
    <line x1="0.380702337443634" y1="36.9135171618256" x2="0.669972981077788" y2="37.5001000000001"/>
    <line x1="0.669972981077788" y1="37.5001000000001" x2="1.03333329854379" y2="38.0439071450438"/>
    <line x1="1.03333329854379" y1="38.0439071450438" x2="1.46456609406723" y2="38.5356339059329"/>
    <line x1="1.46456609406723" y1="38.5356339059329" x2="1.9562928549565" y2="38.9668667014563"/>
    <line x1="1.9562928549565" y1="38.9668667014563" x2="2.5001" y2="39.3302270189223"/>
    <line x1="2.5001" y1="39.3302270189223" x2="3.08668283817454" y2="39.6194976625567"/>
    <line x1="3.08668283817454" y1="39.6194976625567" x2="3.70600477448752" y2="39.8297291314455"/>
    <line x1="3.70600477448752" y1="39.8297291314455" x2="4.34746903889973" y2="39.9573243068692"/>
    <line x1="4.34746903889973" y1="39.9573243068692" x2="5.0001" y2="40.0001000000001"/>
    <line x1="5.0001" y1="40.0001000000001" x2="10.0001" y2="40.0001"/>
    <line x1="10.0001" y1="40.0001" x2="10.0001" y2="14.0001"/>
    <line x1="10.0001" y1="14.0001" x2="8.0001" y2="14.0001"/>
    <line x1="8.0001" y1="14.0001" x2="8.0001" y2="15.3001"/>
    <line x1="8.0001" y1="15.3001" x2="5.80009999999995" y2="15.3001"/>
    <line x1="5.80009999999995" y1="15.3001" x2="5.80009999999995" y2="14.0001"/>
    <line x1="5.80009999999995" y1="14.0001" x2="2.80009999999995" y2="14.0001"/>
    <line x1="2.80009999999995" y1="14.0001" x2="2.80009999999995" y2="11.0001000000001"/>
    <line x1="2.80009999999995" y1="11.0001000000001" x2="5.80010000000007" y2="11.0001000000001"/>
    <line x1="5.80010000000007" y1="11.0001000000001" x2="5.80009999999995" y2="9.70009999999999"/>
    <line x1="5.80009999999995" y1="9.70009999999999" x2="8.0001" y2="9.70009999999999"/>
    <line x1="8.0001" y1="9.70009999999999" x2="8.0001" y2="11.0001000000001"/>
    <line x1="8.0001" y1="11.0001000000001" x2="10.0001" y2="11.0001000000001"/>
    <line x1="10.0001" y1="11.0001000000001" x2="10.0001" y2="8.0001"/>
    <line x1="10.0001" y1="8.0001" x2="10.0001" y2="5.00009999999994"/>
    <line x1="10.0001" y1="5.00009999999994" x2="13.0001" y2="5.00009999999994"/>
    <line x1="13.0001" y1="5.00009999999994" x2="13.0001" y2="0.0001"/>
    <line x1="13.0001" y1="0.0001" x2="0.0001" y2="0.0001"/>
    <line x1="0.0001" y1="0.0001" x2="0.0001" y2="5.00009999999994"/>
    <line x1="0.0001" y1="5.00009999999994" x2="5.0001" y2="5.00009999999994"/>
    <line x1="5.0001" y1="5.00009999999994" x2="5.0001" y2="8.0001"/>
    <line x1="5.0001" y1="8.0001" x2="0.0001" y2="8.0001"/>
    <line x1="4.61187143234624" y1="31.0512112605664" x2="5.0001" y2="31.0001"/>
    <line x1="5.0001" y1="31.0001" x2="5.38832856765387" y2="31.0512112605664"/>
    <line x1="5.38832856765387" y1="31.0512112605664" x2="5.75010000000011" y2="31.2010618943233"/>
    <line x1="5.75010000000011" y1="31.2010618943233" x2="6.06076017177989" y2="31.4394398282202"/>
    <line x1="6.06076017177989" y1="31.4394398282202" x2="6.29913810567669" y2="31.7501"/>
    <line x1="6.29913810567669" y1="31.7501" x2="6.44898873943364" y2="32.1118714323462"/>
    <line x1="6.44898873943364" y1="32.1118714323462" x2="6.50010000000011" y2="32.5001"/>
    <line x1="6.50010000000011" y1="32.5001" x2="6.44898873943364" y2="32.8883285676538"/>
    <line x1="6.44898873943364" y1="32.8883285676538" x2="6.29913810567669" y2="33.2501"/>
    <line x1="6.29913810567669" y1="33.2501" x2="6.06076017177989" y2="33.5607601717798"/>
    <line x1="6.06076017177989" y1="33.5607601717798" x2="5.75010000000011" y2="33.7991381056767"/>
    <line x1="5.75010000000011" y1="33.7991381056767" x2="5.38832856765375" y2="33.9489887394336"/>
    <line x1="5.38832856765375" y1="33.9489887394336" x2="5.0001" y2="34.0001000000001"/>
    <line x1="5.0001" y1="34.0001000000001" x2="4.61187143234624" y2="33.9489887394336"/>
    <line x1="4.61187143234624" y1="33.9489887394336" x2="4.2501" y2="33.7991381056767"/>
    <line x1="4.2501" y1="33.7991381056767" x2="3.93943982822023" y2="33.5607601717798"/>
    <line x1="3.93943982822023" y1="33.5607601717798" x2="3.70106189432343" y2="33.2501"/>
    <line x1="3.70106189432343" y1="33.2501" x2="3.55121126056647" y2="32.8883285676538"/>
    <line x1="3.55121126056647" y1="32.8883285676538" x2="3.5001" y2="32.5001"/>
    <line x1="3.5001" y1="32.5001" x2="3.55121126056647" y2="32.1118714323462"/>
    <line x1="3.55121126056647" y1="32.1118714323462" x2="3.70106189432343" y2="31.7501"/>
    <line x1="3.70106189432343" y1="31.7501" x2="3.93943982822023" y2="31.4394398282202"/>
    <line x1="3.93943982822023" y1="31.4394398282202" x2="4.2501" y2="31.2010618943233"/>
    <line x1="4.2501" y1="31.2010618943233" x2="4.61187143234624" y2="31.0512112605664"/>
  </g>
</svg>
