<?xml version="1.0" standalone="no"?>
<!DOCTYPE svg PUBLIC "-//W3C//DTD SVG 1.1//EN" "http://www.w3.org/Graphics/SVG/1.1/DTD/svg11.dtd">
<svg width="33.0002mm" height="13.0002mm"
 viewBox="0 0 33.0002 13.0002"
 xmlns="http://www.w3.org/2000/svg" version="1.1"
 xmlns:xlink="http://www.w3.org/1999/xlink">
<desc>Output from Flights of Ideas SVG Sketchup Plugin</desc>

  <g id="face0" fill="none" stroke="rgb(0,0,255)" stroke-width="1" stroke-miterlimit="4" stroke-dasharray="none" stroke-linejoin="round" stroke-linecap="round">
    <line x1="18.0001" y1="10.0001" x2="23.0001" y2="10.0001"/>
    <line x1="23.0001" y1="10.0001" x2="23.0001" y2="8.00009999999997"/>
    <line x1="23.0001" y1="8.00009999999997" x2="21.7000999999999" y2="8.00009999999997"/>
    <line x1="21.7000999999999" y1="8.00009999999997" x2="21.7000999999999" y2="5.80010000000001"/>
    <line x1="21.7000999999999" y1="5.80010000000001" x2="23.0001" y2="5.80010000000001"/>
    <line x1="23.0001" y1="5.80010000000001" x2="23.0001" y2="2.80009999999998"/>
    <line x1="23.0001" y1="2.80009999999998" x2="26.0001" y2="2.80009999999998"/>
    <line x1="26.0001" y1="2.80009999999998" x2="26.0001" y2="5.80010000000001"/>
    <line x1="26.0001" y1="5.80010000000001" x2="27.3001" y2="5.80010000000001"/>
    <line x1="27.3001" y1="5.80010000000001" x2="27.3001" y2="8.00009999999997"/>
    <line x1="27.3001" y1="8.00009999999997" x2="26.0001" y2="8.00009999999997"/>
    <line x1="26.0001" y1="8.00009999999997" x2="26.0001" y2="10.0001"/>
    <line x1="26.0001" y1="10.0001" x2="28.0001" y2="10.0001"/>
    <line x1="28.0001" y1="10.0001" x2="28.0001" y2="13.0001"/>
    <line x1="28.0001" y1="13.0001" x2="33.0001" y2="13.0001"/>
    <line x1="33.0001" y1="13.0001" x2="33.0001" y2="0.0001"/>
    <line x1="33.0001" y1="0.0001" x2="0.0001" y2="0.0001"/>
    <line x1="0.0001" y1="0.0001" x2="0.0001" y2="13.0001"/>
    <line x1="0.0001" y1="13.0001" x2="5.0001" y2="13.0001"/>
    <line x1="5.0001" y1="13.0001" x2="5.0001" y2="10.0001"/>
    <line x1="5.0001" y1="10.0001" x2="7.0001" y2="10.0001"/>
    <line x1="7.0001" y1="10.0001" x2="7.0001" y2="8.00009999999997"/>
    <line x1="7.0001" y1="8.00009999999997" x2="5.70010000000005" y2="8.00009999999997"/>
    <line x1="5.70010000000005" y1="8.00009999999997" x2="5.70010000000005" y2="5.80010000000001"/>
    <line x1="5.70010000000005" y1="5.80010000000001" x2="7.0001" y2="5.80010000000001"/>
    <line x1="7.0001" y1="5.80010000000001" x2="7.0001" y2="2.80009999999998"/>
    <line x1="7.0001" y1="2.80009999999998" x2="10.0001" y2="2.80009999999998"/>
    <line x1="10.0001" y1="2.80009999999998" x2="10.0001" y2="5.80010000000001"/>
    <line x1="10.0001" y1="5.80010000000001" x2="11.3001" y2="5.80010000000001"/>
    <line x1="11.3001" y1="5.80010000000001" x2="11.3001" y2="8.00009999999997"/>
    <line x1="11.3001" y1="8.00009999999997" x2="10.0001" y2="8.00009999999997"/>
    <line x1="10.0001" y1="8.00009999999997" x2="10.0001" y2="10.0001"/>
    <line x1="10.0001" y1="10.0001" x2="15.0001" y2="10.0001"/>
    <line x1="15.0001" y1="10.0001" x2="15.0001" y2="5.00010000000003"/>
    <line x1="15.0001" y1="5.00010000000003" x2="18.0001" y2="5.00010000000003"/>
    <line x1="18.0001" y1="5.00010000000003" x2="18.0001" y2="10.0001"/>
  </g>
</svg>
