<?xml version="1.0" standalone="no"?>
<!DOCTYPE svg PUBLIC "-//W3C//DTD SVG 1.1//EN" "http://www.w3.org/Graphics/SVG/1.1/DTD/svg11.dtd">
<svg width="38.0002mm" height="18.0002000000001mm"
 viewBox="0 0 38.0002 18.0002000000001"
 xmlns="http://www.w3.org/2000/svg" version="1.1"
 xmlns:xlink="http://www.w3.org/1999/xlink">
<desc>Output from Flights of Ideas SVG Sketchup Plugin</desc>

  <g id="face0" fill="none" stroke="rgb(0,0,255)" stroke-width="1" stroke-miterlimit="4" stroke-dasharray="none" stroke-linejoin="round" stroke-linecap="round">
    <line x1="28.0001" y1="3.00009999999977" x2="25.0001000000001" y2="3.00009999999977"/>
    <line x1="25.0001000000001" y1="3.00009999999977" x2="25.0001000000001" y2="5.00009999999994"/>
    <line x1="25.0001000000001" y1="5.00009999999994" x2="26.3001000000001" y2="5.00009999999994"/>
    <line x1="26.3001000000001" y1="5.00009999999994" x2="26.3001000000001" y2="7.20009999999999"/>
    <line x1="26.3001000000001" y1="7.20009999999999" x2="25.0001000000001" y2="7.20009999999999"/>
    <line x1="25.0001000000001" y1="7.20009999999999" x2="25.0001000000001" y2="10.2000999999999"/>
    <line x1="25.0001000000001" y1="10.2000999999999" x2="22.0001000000001" y2="10.2000999999999"/>
    <line x1="22.0001000000001" y1="10.2000999999999" x2="22.0001000000001" y2="7.20009999999999"/>
    <line x1="22.0001000000001" y1="7.20009999999999" x2="20.7001" y2="7.20009999999999"/>
    <line x1="20.7001" y1="7.20009999999999" x2="20.7328894237092" y2="5.00034436500476"/>
    <line x1="20.7328894237092" y1="5.00034436500476" x2="22.0328894237091" y2="5.00034436500476"/>
    <line x1="22.0328894237091" y1="5.00034436500476" x2="22.0328894237091" y2="3.00009999999977"/>
    <line x1="22.0328894237091" y1="3.00009999999977" x2="0.0001" y2="3.00009999999977"/>
    <line x1="0.0001" y1="3.00009999999977" x2="0.000100000000113687" y2="13.0001000000001"/>
    <line x1="0.000100000000113687" y1="13.0001000000001" x2="0.0428756931310341" y2="13.6527309611003"/>
    <line x1="0.0428756931310341" y1="13.6527309611003" x2="0.170470868554642" y2="14.2941952255127"/>
    <line x1="0.170470868554642" y1="14.2941952255127" x2="0.380702337443634" y2="14.9135171618255"/>
    <line x1="0.380702337443634" y1="14.9135171618255" x2="0.669972981077788" y2="15.5001000000001"/>
    <line x1="0.669972981077788" y1="15.5001000000001" x2="1.03333329854391" y2="16.0439071450437"/>
    <line x1="1.03333329854391" y1="16.0439071450437" x2="1.46456609406735" y2="16.5356339059328"/>
    <line x1="1.46456609406735" y1="16.5356339059328" x2="1.9562928549565" y2="16.9668667014563"/>
    <line x1="1.9562928549565" y1="16.9668667014563" x2="2.50010000000011" y2="17.3302270189222"/>
    <line x1="2.50010000000011" y1="17.3302270189222" x2="3.08668283817454" y2="17.6194976625566"/>
    <line x1="3.08668283817454" y1="17.6194976625566" x2="3.70600477448752" y2="17.8297291314454"/>
    <line x1="3.70600477448752" y1="17.8297291314454" x2="4.34746903889984" y2="17.9573243068691"/>
    <line x1="4.34746903889984" y1="17.9573243068691" x2="5.0001" y2="18.0001000000001"/>
    <line x1="5.0001" y1="18.0001000000001" x2="28.0001" y2="18.0001000000001"/>
    <line x1="28.0001" y1="18.0001000000001" x2="28.0001" y2="10.5001"/>
    <line x1="28.0001" y1="10.5001" x2="31.0001000000001" y2="10.5001"/>
    <line x1="31.0001000000001" y1="10.5001" x2="31.0001000000001" y2="15.5001"/>
    <line x1="31.0001000000001" y1="15.5001" x2="38.0001" y2="15.5001"/>
    <line x1="38.0001" y1="15.5001" x2="38.0001" y2="0.0001"/>
    <line x1="38.0001" y1="0.0001" x2="33.0001000000001" y2="0.0001"/>
    <line x1="33.0001000000001" y1="0.0001" x2="33.0001000000001" y2="3.00009999999977"/>
    <line x1="33.0001000000001" y1="3.00009999999977" x2="28.0001" y2="3.00009999999977"/>
    <line x1="6.44898873943364" y1="10.1118714323462" x2="6.50010000000011" y2="10.5001"/>
    <line x1="6.50010000000011" y1="10.5001" x2="6.44898873943364" y2="10.8883285676539"/>
    <line x1="6.44898873943364" y1="10.8883285676539" x2="6.29913810567669" y2="11.2501"/>
    <line x1="6.29913810567669" y1="11.2501" x2="6.06076017177989" y2="11.5607601717799"/>
    <line x1="6.06076017177989" y1="11.5607601717799" x2="5.75010000000011" y2="11.7991381056767"/>
    <line x1="5.75010000000011" y1="11.7991381056767" x2="5.38832856765387" y2="11.9489887394337"/>
    <line x1="5.38832856765387" y1="11.9489887394337" x2="5.0001" y2="12.0001"/>
    <line x1="5.0001" y1="12.0001" x2="4.61187143234624" y2="11.9489887394337"/>
    <line x1="4.61187143234624" y1="11.9489887394337" x2="4.2501" y2="11.7991381056767"/>
    <line x1="4.2501" y1="11.7991381056767" x2="3.93943982822011" y2="11.5607601717799"/>
    <line x1="3.93943982822011" y1="11.5607601717799" x2="3.70106189432343" y2="11.2501"/>
    <line x1="3.70106189432343" y1="11.2501" x2="3.55121126056647" y2="10.8883285676539"/>
    <line x1="3.55121126056647" y1="10.8883285676539" x2="3.5001" y2="10.5001"/>
    <line x1="3.5001" y1="10.5001" x2="3.55121126056647" y2="10.1118714323462"/>
    <line x1="3.55121126056647" y1="10.1118714323462" x2="3.70106189432343" y2="9.75009999999994"/>
    <line x1="3.70106189432343" y1="9.75009999999994" x2="3.93943982822023" y2="9.43943982822017"/>
    <line x1="3.93943982822023" y1="9.43943982822017" x2="4.2501" y2="9.20106189432337"/>
    <line x1="4.2501" y1="9.20106189432337" x2="4.61187143234624" y2="9.05121126056644"/>
    <line x1="4.61187143234624" y1="9.05121126056644" x2="5.0001" y2="9.00009999999994"/>
    <line x1="5.0001" y1="9.00009999999994" x2="5.38832856765387" y2="9.05121126056644"/>
    <line x1="5.38832856765387" y1="9.05121126056644" x2="5.75010000000011" y2="9.20106189432337"/>
    <line x1="5.75010000000011" y1="9.20106189432337" x2="6.06076017177989" y2="9.43943982822017"/>
    <line x1="6.06076017177989" y1="9.43943982822017" x2="6.29913810567669" y2="9.75009999999994"/>
    <line x1="6.29913810567669" y1="9.75009999999994" x2="6.44898873943364" y2="10.1118714323462"/>
  </g>
</svg>
