<?xml version="1.0" standalone="no"?>
<!DOCTYPE svg PUBLIC "-//W3C//DTD SVG 1.1//EN" "http://www.w3.org/Graphics/SVG/1.1/DTD/svg11.dtd">
<svg width="450.0002mm" height="500.000200000002mm"
 viewBox="0 0 450.0002 500.000200000002"
 xmlns="http://www.w3.org/2000/svg" version="1.1"
 xmlns:xlink="http://www.w3.org/1999/xlink">
<desc>Output from Flights of Ideas SVG Sketchup Plugin</desc>

  <g id="face0" fill="none" stroke="rgb(0,0,255)" stroke-width="1" stroke-miterlimit="4" stroke-dasharray="none" stroke-linejoin="round" stroke-linecap="round">
    <line x1="430.0001" y1="497.0001" x2="440.0001" y2="497.0001"/>
    <line x1="440.0001" y1="497.0001" x2="440.0001" y2="500.0001"/>
    <line x1="440.0001" y1="500.0001" x2="447.0001" y2="500.0001"/>
    <line x1="447.0001" y1="500.0001" x2="447.0001" y2="497.0001"/>
    <line x1="447.0001" y1="497.0001" x2="450.0001" y2="497.0001"/>
    <line x1="450.0001" y1="497.0001" x2="450.0001" y2="3.00010000000013"/>
    <line x1="450.0001" y1="3.00010000000013" x2="437.0001" y2="3.00010000000013"/>
    <line x1="437.0001" y1="3.00010000000013" x2="437.0001" y2="5.00010000000004"/>
    <line x1="437.0001" y1="5.00010000000004" x2="438.3001" y2="5.00010000000004"/>
    <line x1="438.3001" y1="5.00010000000004" x2="438.3001" y2="7.2000999999999"/>
    <line x1="438.3001" y1="7.2000999999999" x2="437.0001" y2="7.2000999999999"/>
    <line x1="437.0001" y1="7.2000999999999" x2="437.0001" y2="10.2000999999998"/>
    <line x1="437.0001" y1="10.2000999999998" x2="434.0001" y2="10.2000999999999"/>
    <line x1="434.0001" y1="10.2000999999999" x2="434.0001" y2="7.2000999999998"/>
    <line x1="434.0001" y1="7.2000999999998" x2="432.7001" y2="7.20009999999998"/>
    <line x1="432.7001" y1="7.20009999999998" x2="432.7001" y2="5.00010000000012"/>
    <line x1="432.7001" y1="5.00010000000012" x2="434.0001" y2="5.00010000000004"/>
    <line x1="434.0001" y1="5.00010000000004" x2="434.0001" y2="3.00010000000013"/>
    <line x1="434.0001" y1="3.00010000000013" x2="414.0001" y2="3.00010000000021"/>
    <line x1="414.0001" y1="3.00010000000021" x2="414.0001" y2="0.000100000000085265"/>
    <line x1="414.0001" y1="0.000100000000085265" x2="384.0001" y2="0.000100000000177636"/>
    <line x1="384.0001" y1="0.000100000000177636" x2="384.0001" y2="3.00010000000013"/>
    <line x1="384.0001" y1="3.00010000000013" x2="364.0001" y2="3.00010000000013"/>
    <line x1="364.0001" y1="3.00010000000013" x2="364.0001" y2="0.000100000000177636"/>
    <line x1="364.0001" y1="0.000100000000177636" x2="344.0001" y2="0.000100000000085265"/>
    <line x1="344.0001" y1="0.000100000000085265" x2="344.0001" y2="3.00010000000004"/>
    <line x1="344.0001" y1="3.00010000000004" x2="334.0001" y2="3.00010000000013"/>
    <line x1="334.0001" y1="3.00010000000013" x2="334.0001" y2="5.00010000000004"/>
    <line x1="334.0001" y1="5.00010000000004" x2="335.3001" y2="5.00010000000004"/>
    <line x1="335.3001" y1="5.00010000000004" x2="335.3001" y2="7.2000999999999"/>
    <line x1="335.3001" y1="7.2000999999999" x2="334.0001" y2="7.2000999999999"/>
    <line x1="334.0001" y1="7.2000999999999" x2="334.0001" y2="10.2000999999999"/>
    <line x1="334.0001" y1="10.2000999999999" x2="331.0001" y2="10.2000999999999"/>
    <line x1="331.0001" y1="10.2000999999999" x2="331.0001" y2="7.2000999999998"/>
    <line x1="331.0001" y1="7.2000999999998" x2="329.7001" y2="7.2000999999999"/>
    <line x1="329.7001" y1="7.2000999999999" x2="329.7001" y2="5.00010000000004"/>
    <line x1="329.7001" y1="5.00010000000004" x2="331.0001" y2="5.00010000000004"/>
    <line x1="331.0001" y1="5.00010000000004" x2="331.0001" y2="3.00010000000013"/>
    <line x1="331.0001" y1="3.00010000000013" x2="311.0001" y2="3.00010000000013"/>
    <line x1="311.0001" y1="3.00010000000013" x2="311.0001" y2="0.000100000000177636"/>
    <line x1="311.0001" y1="0.000100000000177636" x2="271.0001" y2="0.000100000000085265"/>
    <line x1="271.0001" y1="0.000100000000085265" x2="271.0001" y2="3.00010000000021"/>
    <line x1="271.0001" y1="3.00010000000021" x2="176.0001" y2="3.00010000000021"/>
    <line x1="176.0001" y1="3.00010000000021" x2="176.0001" y2="0.000100000000177636"/>
    <line x1="176.0001" y1="0.000100000000177636" x2="136.0001" y2="0.0001"/>
    <line x1="136.0001" y1="0.0001" x2="136.0001" y2="3.00010000000004"/>
    <line x1="136.0001" y1="3.00010000000004" x2="116.0001" y2="3.00010000000013"/>
    <line x1="116.0001" y1="3.00010000000013" x2="116.0001" y2="5.00010000000012"/>
    <line x1="116.0001" y1="5.00010000000012" x2="117.3001" y2="5.00010000000004"/>
    <line x1="117.3001" y1="5.00010000000004" x2="117.3001" y2="7.20009999999998"/>
    <line x1="117.3001" y1="7.20009999999998" x2="116.0001" y2="7.2000999999999"/>
    <line x1="116.0001" y1="7.2000999999999" x2="116.0001" y2="10.2000999999998"/>
    <line x1="116.0001" y1="10.2000999999998" x2="113.0001" y2="10.2000999999999"/>
    <line x1="113.0001" y1="10.2000999999999" x2="113.0001" y2="7.2000999999999"/>
    <line x1="113.0001" y1="7.2000999999999" x2="111.7001" y2="7.2000999999999"/>
    <line x1="111.7001" y1="7.2000999999999" x2="111.7001" y2="5.00010000000004"/>
    <line x1="111.7001" y1="5.00010000000004" x2="113.0001" y2="5.00009999999994"/>
    <line x1="113.0001" y1="5.00009999999994" x2="113.0001" y2="3.00010000000013"/>
    <line x1="113.0001" y1="3.00010000000013" x2="103.0001" y2="3.00010000000004"/>
    <line x1="103.0001" y1="3.00010000000004" x2="103.0001" y2="0.000100000000085265"/>
    <line x1="103.0001" y1="0.000100000000085265" x2="83.0001" y2="0.000100000000177636"/>
    <line x1="83.0001" y1="0.000100000000177636" x2="83.0001" y2="3.00010000000004"/>
    <line x1="83.0001" y1="3.00010000000004" x2="63.0001" y2="3.00010000000013"/>
    <line x1="63.0001" y1="3.00010000000013" x2="63.0001" y2="0.000100000000085265"/>
    <line x1="63.0001" y1="0.000100000000085265" x2="33.0001000000002" y2="0.0001"/>
    <line x1="33.0001000000002" y1="0.0001" x2="33.0000999999998" y2="3.00010000000013"/>
    <line x1="33.0000999999998" y1="3.00010000000013" x2="13.0001" y2="3.00010000000013"/>
    <line x1="13.0001" y1="3.00010000000013" x2="13.0001" y2="5.00009999999994"/>
    <line x1="13.0001" y1="5.00009999999994" x2="14.3000999999997" y2="5.00010000000012"/>
    <line x1="14.3000999999997" y1="5.00010000000012" x2="14.3001" y2="7.2000999999999"/>
    <line x1="14.3001" y1="7.2000999999999" x2="13.0001" y2="7.20009999999998"/>
    <line x1="13.0001" y1="7.20009999999998" x2="13.0001" y2="10.2000999999998"/>
    <line x1="13.0001" y1="10.2000999999998" x2="10.0001" y2="10.2001"/>
    <line x1="10.0001" y1="10.2001" x2="10.0001" y2="7.2000999999998"/>
    <line x1="10.0001" y1="7.2000999999998" x2="8.70010000000027" y2="7.2000999999998"/>
    <line x1="8.70010000000027" y1="7.2000999999998" x2="8.70009999999982" y2="5.00010000000012"/>
    <line x1="8.70009999999982" y1="5.00010000000012" x2="10.0001" y2="5.00009999999985"/>
    <line x1="10.0001" y1="5.00009999999985" x2="10.0001" y2="3.00010000000013"/>
    <line x1="10.0001" y1="3.00010000000013" x2="0.0001" y2="3.00010000000004"/>
    <line x1="0.0001" y1="3.00010000000004" x2="0.0001" y2="500.0001"/>
    <line x1="0.0001" y1="500.0001" x2="10.0001" y2="500.000100000002"/>
    <line x1="10.0001" y1="500.000100000002" x2="10.0001" y2="497.0001"/>
    <line x1="10.0001" y1="497.0001" x2="20.0000999999998" y2="497.0001"/>
    <line x1="20.0000999999998" y1="497.0001" x2="20.0000999999998" y2="495.000100000011"/>
    <line x1="20.0000999999998" y1="495.000100000011" x2="18.7001" y2="495.000099999995"/>
    <line x1="18.7001" y1="495.000099999995" x2="18.7001" y2="492.800099999998"/>
    <line x1="18.7001" y1="492.800099999998" x2="20.0000999999998" y2="492.800100000004"/>
    <line x1="20.0000999999998" y1="492.800100000004" x2="20.0000999999998" y2="489.800100000001"/>
    <line x1="20.0000999999998" y1="489.800100000001" x2="23.0000999999998" y2="489.8001"/>
    <line x1="23.0000999999998" y1="489.8001" x2="23.0000999999998" y2="492.800100000005"/>
    <line x1="23.0000999999998" y1="492.800100000005" x2="24.3001" y2="492.800099999998"/>
    <line x1="24.3001" y1="492.800099999998" x2="24.3001" y2="495.000100000012"/>
    <line x1="24.3001" y1="495.000100000012" x2="23.0000999999998" y2="495.000100000004"/>
    <line x1="23.0000999999998" y1="495.000100000004" x2="23.0000999999998" y2="497.0001"/>
    <line x1="23.0000999999998" y1="497.0001" x2="33.0001000000002" y2="497.0001"/>
    <line x1="33.0001000000002" y1="497.0001" x2="33.0000999999998" y2="500.000099999994"/>
    <line x1="33.0000999999998" y1="500.000099999994" x2="53.0001" y2="500.000100000001"/>
    <line x1="53.0001" y1="500.000100000001" x2="53.0001" y2="497.0001"/>
    <line x1="53.0001" y1="497.0001" x2="73.0001" y2="497.0001"/>
    <line x1="73.0001" y1="497.0001" x2="73.0001" y2="500.0001"/>
    <line x1="73.0001" y1="500.0001" x2="103.0001" y2="500.000099999996"/>
    <line x1="103.0001" y1="500.000099999996" x2="103.0001" y2="497.0001"/>
    <line x1="103.0001" y1="497.0001" x2="123.0001" y2="497.0001"/>
    <line x1="123.0001" y1="497.0001" x2="123.0001" y2="495.000099999997"/>
    <line x1="123.0001" y1="495.000099999997" x2="121.7001" y2="495.0001"/>
    <line x1="121.7001" y1="495.0001" x2="121.7001" y2="492.800099999997"/>
    <line x1="121.7001" y1="492.800099999997" x2="123.0001" y2="492.800100000001"/>
    <line x1="123.0001" y1="492.800100000001" x2="123.0001" y2="489.800100000002"/>
    <line x1="123.0001" y1="489.800100000002" x2="126.0001" y2="489.800099999999"/>
    <line x1="126.0001" y1="489.800099999999" x2="126.0001" y2="492.800099999999"/>
    <line x1="126.0001" y1="492.800099999999" x2="127.3001" y2="492.800099999999"/>
    <line x1="127.3001" y1="492.800099999999" x2="127.3001" y2="495.000100000002"/>
    <line x1="127.3001" y1="495.000100000002" x2="126.0001" y2="495.000100000003"/>
    <line x1="126.0001" y1="495.000100000003" x2="126.0001" y2="497.0001"/>
    <line x1="126.0001" y1="497.0001" x2="324.0001" y2="497.0001"/>
    <line x1="324.0001" y1="497.0001" x2="324.0001" y2="495.0001"/>
    <line x1="324.0001" y1="495.0001" x2="322.7001" y2="495.0001"/>
    <line x1="322.7001" y1="495.0001" x2="322.7001" y2="492.8001"/>
    <line x1="322.7001" y1="492.8001" x2="324.0001" y2="492.8001"/>
    <line x1="324.0001" y1="492.8001" x2="324.0001" y2="489.8001"/>
    <line x1="324.0001" y1="489.8001" x2="327.0001" y2="489.8001"/>
    <line x1="327.0001" y1="489.8001" x2="327.0001" y2="492.8001"/>
    <line x1="327.0001" y1="492.8001" x2="328.3001" y2="492.8001"/>
    <line x1="328.3001" y1="492.8001" x2="328.3001" y2="495.000099999999"/>
    <line x1="328.3001" y1="495.000099999999" x2="327.0001" y2="495.0001"/>
    <line x1="327.0001" y1="495.0001" x2="327.0001" y2="497.0001"/>
    <line x1="327.0001" y1="497.0001" x2="347.0001" y2="497.0001"/>
    <line x1="347.0001" y1="497.0001" x2="347.0001" y2="500.0001"/>
    <line x1="347.0001" y1="500.0001" x2="377.0001" y2="500.0001"/>
    <line x1="377.0001" y1="500.0001" x2="377.0001" y2="497.0001"/>
    <line x1="377.0001" y1="497.0001" x2="397.0001" y2="497.0001"/>
    <line x1="397.0001" y1="497.0001" x2="397.0001" y2="500.0001"/>
    <line x1="397.0001" y1="500.0001" x2="417.0001" y2="500.0001"/>
    <line x1="417.0001" y1="500.0001" x2="417.0001" y2="497.0001"/>
    <line x1="417.0001" y1="497.0001" x2="427.0001" y2="497.0001"/>
    <line x1="427.0001" y1="497.0001" x2="427.0001" y2="495.0001"/>
    <line x1="427.0001" y1="495.0001" x2="425.7001" y2="495.0001"/>
    <line x1="425.7001" y1="495.0001" x2="425.7001" y2="492.8001"/>
    <line x1="425.7001" y1="492.8001" x2="427.0001" y2="492.8001"/>
    <line x1="427.0001" y1="492.8001" x2="427.0001" y2="489.8001"/>
    <line x1="427.0001" y1="489.8001" x2="430.0001" y2="489.8001"/>
    <line x1="430.0001" y1="489.8001" x2="430.0001" y2="492.8001"/>
    <line x1="430.0001" y1="492.8001" x2="431.3001" y2="492.8001"/>
    <line x1="431.3001" y1="492.8001" x2="431.3001" y2="495.0001"/>
    <line x1="431.3001" y1="495.0001" x2="430.0001" y2="495.0001"/>
    <line x1="430.0001" y1="495.0001" x2="430.0001" y2="497.0001"/>
    <line x1="445.5001" y1="427.0001" x2="445.111871432346" y2="426.948988739434"/>
    <line x1="445.111871432346" y1="426.948988739434" x2="444.7501" y2="426.799138105677"/>
    <line x1="444.7501" y1="426.799138105677" x2="444.43943982822" y2="426.56076017178"/>
    <line x1="444.43943982822" y1="426.56076017178" x2="444.201061894323" y2="426.2501"/>
    <line x1="444.201061894323" y1="426.2501" x2="444.051211260566" y2="425.888328567654"/>
    <line x1="444.051211260566" y1="425.888328567654" x2="444.0001" y2="425.5001"/>
    <line x1="444.0001" y1="425.5001" x2="444.051211260566" y2="425.111871432346"/>
    <line x1="444.051211260566" y1="425.111871432346" x2="444.201061894323" y2="424.7501"/>
    <line x1="444.201061894323" y1="424.7501" x2="444.43943982822" y2="424.43943982822"/>
    <line x1="444.43943982822" y1="424.43943982822" x2="444.7501" y2="424.201061894323"/>
    <line x1="444.7501" y1="424.201061894323" x2="445.111871432346" y2="424.051211260566"/>
    <line x1="445.111871432346" y1="424.051211260566" x2="445.5001" y2="424.0001"/>
    <line x1="445.5001" y1="424.0001" x2="445.888328567654" y2="424.051211260566"/>
    <line x1="445.888328567654" y1="424.051211260566" x2="446.2501" y2="424.201061894323"/>
    <line x1="446.2501" y1="424.201061894323" x2="446.56076017178" y2="424.43943982822"/>
    <line x1="446.56076017178" y1="424.43943982822" x2="446.799138105677" y2="424.7501"/>
    <line x1="446.799138105677" y1="424.7501" x2="446.948988739433" y2="425.111871432346"/>
    <line x1="446.948988739433" y1="425.111871432346" x2="447.0001" y2="425.5001"/>
    <line x1="447.0001" y1="425.5001" x2="446.948988739433" y2="425.888328567654"/>
    <line x1="446.948988739433" y1="425.888328567654" x2="446.799138105677" y2="426.2501"/>
    <line x1="446.799138105677" y1="426.2501" x2="446.56076017178" y2="426.56076017178"/>
    <line x1="446.56076017178" y1="426.56076017178" x2="446.2501" y2="426.799138105677"/>
    <line x1="446.2501" y1="426.799138105677" x2="445.888328567654" y2="426.948988739434"/>
    <line x1="445.888328567654" y1="426.948988739434" x2="445.5001" y2="427.0001"/>
    <line x1="445.5001" y1="251.5001" x2="445.111871432346" y2="251.448988739434"/>
    <line x1="445.111871432346" y1="251.448988739434" x2="444.7501" y2="251.299138105677"/>
    <line x1="444.7501" y1="251.299138105677" x2="444.43943982822" y2="251.06076017178"/>
    <line x1="444.43943982822" y1="251.06076017178" x2="444.201061894323" y2="250.7501"/>
    <line x1="444.201061894323" y1="250.7501" x2="444.051211260566" y2="250.388328567654"/>
    <line x1="444.051211260566" y1="250.388328567654" x2="444.0001" y2="250.0001"/>
    <line x1="444.0001" y1="250.0001" x2="444.051211260566" y2="249.611871432346"/>
    <line x1="444.051211260566" y1="249.611871432346" x2="444.201061894323" y2="249.2501"/>
    <line x1="444.201061894323" y1="249.2501" x2="444.43943982822" y2="248.93943982822"/>
    <line x1="444.43943982822" y1="248.93943982822" x2="444.7501" y2="248.701061894323"/>
    <line x1="444.7501" y1="248.701061894323" x2="445.111871432346" y2="248.551211260566"/>
    <line x1="445.111871432346" y1="248.551211260566" x2="445.5001" y2="248.5001"/>
    <line x1="445.5001" y1="248.5001" x2="445.888328567654" y2="248.551211260566"/>
    <line x1="445.888328567654" y1="248.551211260566" x2="446.2501" y2="248.701061894323"/>
    <line x1="446.2501" y1="248.701061894323" x2="446.56076017178" y2="248.93943982822"/>
    <line x1="446.56076017178" y1="248.93943982822" x2="446.799138105677" y2="249.2501"/>
    <line x1="446.799138105677" y1="249.2501" x2="446.948988739433" y2="249.611871432346"/>
    <line x1="446.948988739433" y1="249.611871432346" x2="447.0001" y2="250.0001"/>
    <line x1="447.0001" y1="250.0001" x2="446.948988739433" y2="250.388328567654"/>
    <line x1="446.948988739433" y1="250.388328567654" x2="446.799138105677" y2="250.7501"/>
    <line x1="446.799138105677" y1="250.7501" x2="446.56076017178" y2="251.06076017178"/>
    <line x1="446.56076017178" y1="251.06076017178" x2="446.2501" y2="251.299138105677"/>
    <line x1="446.2501" y1="251.299138105677" x2="445.888328567654" y2="251.448988739434"/>
    <line x1="445.888328567654" y1="251.448988739434" x2="445.5001" y2="251.5001"/>
    <line x1="445.5001" y1="76.0001000000001" x2="445.111871432346" y2="75.9489887394334"/>
    <line x1="445.111871432346" y1="75.9489887394334" x2="444.7501" y2="75.799138105677"/>
    <line x1="444.7501" y1="75.799138105677" x2="444.43943982822" y2="75.5607601717799"/>
    <line x1="444.43943982822" y1="75.5607601717799" x2="444.201061894323" y2="75.2500999999999"/>
    <line x1="444.201061894323" y1="75.2500999999999" x2="444.051211260566" y2="74.8883285676536"/>
    <line x1="444.051211260566" y1="74.8883285676536" x2="444.0001" y2="74.5001000000001"/>
    <line x1="444.0001" y1="74.5001000000001" x2="444.051211260566" y2="74.1118714323462"/>
    <line x1="444.051211260566" y1="74.1118714323462" x2="444.201061894323" y2="73.7500999999999"/>
    <line x1="444.201061894323" y1="73.7500999999999" x2="444.43943982822" y2="73.4394398282203"/>
    <line x1="444.43943982822" y1="73.4394398282203" x2="444.7501" y2="73.2010618943233"/>
    <line x1="444.7501" y1="73.2010618943233" x2="445.111871432346" y2="73.0512112605664"/>
    <line x1="445.111871432346" y1="73.0512112605664" x2="445.5001" y2="73.0001000000001"/>
    <line x1="445.5001" y1="73.0001000000001" x2="445.888328567654" y2="73.0512112605664"/>
    <line x1="445.888328567654" y1="73.0512112605664" x2="446.2501" y2="73.2010618943233"/>
    <line x1="446.2501" y1="73.2010618943233" x2="446.56076017178" y2="73.4394398282203"/>
    <line x1="446.56076017178" y1="73.4394398282203" x2="446.799138105677" y2="73.7500999999999"/>
    <line x1="446.799138105677" y1="73.7500999999999" x2="446.948988739433" y2="74.1118714323462"/>
    <line x1="446.948988739433" y1="74.1118714323462" x2="447.0001" y2="74.5001000000001"/>
    <line x1="447.0001" y1="74.5001000000001" x2="446.948988739433" y2="74.8883285676536"/>
    <line x1="446.948988739433" y1="74.8883285676536" x2="446.799138105677" y2="75.2500999999999"/>
    <line x1="446.799138105677" y1="75.2500999999999" x2="446.56076017178" y2="75.5607601717799"/>
    <line x1="446.56076017178" y1="75.5607601717799" x2="446.2501" y2="75.799138105677"/>
    <line x1="446.2501" y1="75.799138105677" x2="445.888328567654" y2="75.9489887394334"/>
    <line x1="445.888328567654" y1="75.9489887394334" x2="445.5001" y2="76.0001000000001"/>
    <line x1="15.9489887394336" y1="248.111871432346" x2="16.0001" y2="248.5001"/>
    <line x1="16.0001" y1="248.5001" x2="15.9489887394336" y2="248.888328567654"/>
    <line x1="15.9489887394336" y1="248.888328567654" x2="15.7991381056768" y2="249.2501"/>
    <line x1="15.7991381056768" y1="249.2501" x2="15.5607601717798" y2="249.56076017178"/>
    <line x1="15.5607601717798" y1="249.56076017178" x2="15.2501000000002" y2="249.799138105677"/>
    <line x1="15.2501000000002" y1="249.799138105677" x2="14.8883285676534" y2="249.948988739434"/>
    <line x1="14.8883285676534" y1="249.948988739434" x2="14.5001" y2="250.0001"/>
    <line x1="14.5001" y1="250.0001" x2="14.1118714323461" y2="249.948988739434"/>
    <line x1="14.1118714323461" y1="249.948988739434" x2="13.7500999999998" y2="249.799138105677"/>
    <line x1="13.7500999999998" y1="249.799138105677" x2="13.4394398282202" y2="249.56076017178"/>
    <line x1="13.4394398282202" y1="249.56076017178" x2="13.2010618943232" y2="249.2501"/>
    <line x1="13.2010618943232" y1="249.2501" x2="13.0512112605664" y2="248.888328567654"/>
    <line x1="13.0512112605664" y1="248.888328567654" x2="13.0001" y2="248.5001"/>
    <line x1="13.0001" y1="248.5001" x2="13.0512112605664" y2="248.111871432346"/>
    <line x1="13.0512112605664" y1="248.111871432346" x2="13.2010618943232" y2="247.7501"/>
    <line x1="13.2010618943232" y1="247.7501" x2="13.4394398282198" y2="247.43943982822"/>
    <line x1="13.4394398282198" y1="247.43943982822" x2="13.7500999999998" y2="247.201061894323"/>
    <line x1="13.7500999999998" y1="247.201061894323" x2="14.1118714323461" y2="247.051211260566"/>
    <line x1="14.1118714323461" y1="247.051211260566" x2="14.5001" y2="247.0001"/>
    <line x1="14.5001" y1="247.0001" x2="14.8883285676534" y2="247.051211260566"/>
    <line x1="14.8883285676534" y1="247.051211260566" x2="15.2501000000002" y2="247.201061894323"/>
    <line x1="15.2501000000002" y1="247.201061894323" x2="15.5607601717798" y2="247.43943982822"/>
    <line x1="15.5607601717798" y1="247.43943982822" x2="15.7991381056768" y2="247.7501"/>
    <line x1="15.7991381056768" y1="247.7501" x2="15.9489887394336" y2="248.111871432346"/>
    <line x1="33.9489887394336" y1="248.111871432346" x2="34.0001" y2="248.5001"/>
    <line x1="34.0001" y1="248.5001" x2="33.9489887394336" y2="248.888328567654"/>
    <line x1="33.9489887394336" y1="248.888328567654" x2="33.7991381056766" y2="249.2501"/>
    <line x1="33.7991381056766" y1="249.2501" x2="33.5607601717798" y2="249.56076017178"/>
    <line x1="33.5607601717798" y1="249.56076017178" x2="33.2501" y2="249.799138105677"/>
    <line x1="33.2501" y1="249.799138105677" x2="32.8883285676539" y2="249.948988739434"/>
    <line x1="32.8883285676539" y1="249.948988739434" x2="32.5000999999998" y2="250.0001"/>
    <line x1="32.5000999999998" y1="250.0001" x2="32.1118714323459" y2="249.948988739434"/>
    <line x1="32.1118714323459" y1="249.948988739434" x2="31.7501" y2="249.799138105677"/>
    <line x1="31.7501" y1="249.799138105677" x2="31.43943982822" y2="249.56076017178"/>
    <line x1="31.43943982822" y1="249.56076017178" x2="31.2010618943234" y2="249.2501"/>
    <line x1="31.2010618943234" y1="249.2501" x2="31.0512112605661" y2="248.888328567654"/>
    <line x1="31.0512112605661" y1="248.888328567654" x2="31.0000999999998" y2="248.5001"/>
    <line x1="31.0000999999998" y1="248.5001" x2="31.0512112605661" y2="248.111871432346"/>
    <line x1="31.0512112605661" y1="248.111871432346" x2="31.2010618943234" y2="247.7501"/>
    <line x1="31.2010618943234" y1="247.7501" x2="31.43943982822" y2="247.43943982822"/>
    <line x1="31.43943982822" y1="247.43943982822" x2="31.7501" y2="247.201061894323"/>
    <line x1="31.7501" y1="247.201061894323" x2="32.1118714323459" y2="247.051211260567"/>
    <line x1="32.1118714323459" y1="247.051211260567" x2="32.5000999999998" y2="247.0001"/>
    <line x1="32.5000999999998" y1="247.0001" x2="32.8883285676539" y2="247.051211260566"/>
    <line x1="32.8883285676539" y1="247.051211260566" x2="33.2501" y2="247.201061894323"/>
    <line x1="33.2501" y1="247.201061894323" x2="33.5607601717798" y2="247.43943982822"/>
    <line x1="33.5607601717798" y1="247.43943982822" x2="33.7991381056766" y2="247.7501"/>
    <line x1="33.7991381056766" y1="247.7501" x2="33.9489887394336" y2="248.111871432346"/>
    <line x1="3.0001" y1="250.0001" x2="3.0001" y2="247.0001"/>
    <line x1="3.0001" y1="247.0001" x2="8.0001" y2="247.0001"/>
    <line x1="8.0001" y1="247.0001" x2="8.0001" y2="250.0001"/>
    <line x1="8.0001" y1="250.0001" x2="3.0001" y2="250.0001"/>
    <line x1="21.0001" y1="250.0001" x2="21.0001" y2="247.0001"/>
    <line x1="21.0001" y1="247.0001" x2="26.0001" y2="247.0001"/>
    <line x1="26.0001" y1="247.0001" x2="26.0001" y2="250.0001"/>
    <line x1="26.0001" y1="250.0001" x2="21.0001" y2="250.0001"/>
  </g>
</svg>
