<?xml version="1.0" standalone="no"?>
<!DOCTYPE svg PUBLIC "-//W3C//DTD SVG 1.1//EN" "http://www.w3.org/Graphics/SVG/1.1/DTD/svg11.dtd">
<svg width="452.0mm" height="502.000000000002mm"
 viewBox="0 0 452.0 502.000000000002"
 xmlns="http://www.w3.org/2000/svg" version="1.1"
 xmlns:xlink="http://www.w3.org/1999/xlink">
<desc>Output from Flights of Ideas SVG Sketchup Plugin</desc>

  <g id="face0" fill="none" stroke="rgb(0,0,255)" stroke-width="1" stroke-miterlimit="4" stroke-dasharray="none" stroke-linejoin="round" stroke-linecap="round">
    <line x1="431.0" y1="498.0" x2="441.0" y2="498.0"/>
    <line x1="441.0" y1="498.0" x2="441.0" y2="501.0"/>
    <line x1="441.0" y1="501.0" x2="448.0" y2="501.0"/>
    <line x1="448.0" y1="501.0" x2="448.0" y2="498.0"/>
    <line x1="448.0" y1="498.0" x2="451.0" y2="498.0"/>
    <line x1="451.0" y1="498.0" x2="451.0" y2="4.00000000000013"/>
    <line x1="451.0" y1="4.00000000000013" x2="438.0" y2="4.00000000000013"/>
    <line x1="438.0" y1="4.00000000000013" x2="438.0" y2="6.00000000000004"/>
    <line x1="438.0" y1="6.00000000000004" x2="439.3" y2="6.00000000000004"/>
    <line x1="439.3" y1="6.00000000000004" x2="439.3" y2="8.1999999999999"/>
    <line x1="439.3" y1="8.1999999999999" x2="438.0" y2="8.1999999999999"/>
    <line x1="438.0" y1="8.1999999999999" x2="438.0" y2="11.1999999999998"/>
    <line x1="438.0" y1="11.1999999999998" x2="435.0" y2="11.1999999999999"/>
    <line x1="435.0" y1="11.1999999999999" x2="435.0" y2="8.1999999999998"/>
    <line x1="435.0" y1="8.1999999999998" x2="433.7" y2="8.19999999999998"/>
    <line x1="433.7" y1="8.19999999999998" x2="433.7" y2="6.00000000000012"/>
    <line x1="433.7" y1="6.00000000000012" x2="435.0" y2="6.00000000000004"/>
    <line x1="435.0" y1="6.00000000000004" x2="435.0" y2="4.00000000000013"/>
    <line x1="435.0" y1="4.00000000000013" x2="415.0" y2="4.00000000000021"/>
    <line x1="415.0" y1="4.00000000000021" x2="415.0" y2="1.00000000000009"/>
    <line x1="415.0" y1="1.00000000000009" x2="385.0" y2="1.00000000000018"/>
    <line x1="385.0" y1="1.00000000000018" x2="385.0" y2="4.00000000000013"/>
    <line x1="385.0" y1="4.00000000000013" x2="365.0" y2="4.00000000000013"/>
    <line x1="365.0" y1="4.00000000000013" x2="365.0" y2="1.00000000000018"/>
    <line x1="365.0" y1="1.00000000000018" x2="345.0" y2="1.00000000000009"/>
    <line x1="345.0" y1="1.00000000000009" x2="345.0" y2="4.00000000000004"/>
    <line x1="345.0" y1="4.00000000000004" x2="335.0" y2="4.00000000000013"/>
    <line x1="335.0" y1="4.00000000000013" x2="335.0" y2="6.00000000000004"/>
    <line x1="335.0" y1="6.00000000000004" x2="336.3" y2="6.00000000000004"/>
    <line x1="336.3" y1="6.00000000000004" x2="336.3" y2="8.1999999999999"/>
    <line x1="336.3" y1="8.1999999999999" x2="335.0" y2="8.1999999999999"/>
    <line x1="335.0" y1="8.1999999999999" x2="335.0" y2="11.1999999999999"/>
    <line x1="335.0" y1="11.1999999999999" x2="332.0" y2="11.1999999999999"/>
    <line x1="332.0" y1="11.1999999999999" x2="332.0" y2="8.1999999999998"/>
    <line x1="332.0" y1="8.1999999999998" x2="330.7" y2="8.1999999999999"/>
    <line x1="330.7" y1="8.1999999999999" x2="330.7" y2="6.00000000000004"/>
    <line x1="330.7" y1="6.00000000000004" x2="332.0" y2="6.00000000000004"/>
    <line x1="332.0" y1="6.00000000000004" x2="332.0" y2="4.00000000000013"/>
    <line x1="332.0" y1="4.00000000000013" x2="312.0" y2="4.00000000000013"/>
    <line x1="312.0" y1="4.00000000000013" x2="312.0" y2="1.00000000000018"/>
    <line x1="312.0" y1="1.00000000000018" x2="272.0" y2="1.00000000000009"/>
    <line x1="272.0" y1="1.00000000000009" x2="272.0" y2="4.00000000000021"/>
    <line x1="272.0" y1="4.00000000000021" x2="177.0" y2="4.00000000000021"/>
    <line x1="177.0" y1="4.00000000000021" x2="177.0" y2="1.00000000000018"/>
    <line x1="177.0" y1="1.00000000000018" x2="137.0" y2="1.0"/>
    <line x1="137.0" y1="1.0" x2="137.0" y2="4.00000000000004"/>
    <line x1="137.0" y1="4.00000000000004" x2="117.0" y2="4.00000000000013"/>
    <line x1="117.0" y1="4.00000000000013" x2="117.0" y2="6.00000000000012"/>
    <line x1="117.0" y1="6.00000000000012" x2="118.3" y2="6.00000000000004"/>
    <line x1="118.3" y1="6.00000000000004" x2="118.3" y2="8.19999999999998"/>
    <line x1="118.3" y1="8.19999999999998" x2="117.0" y2="8.1999999999999"/>
    <line x1="117.0" y1="8.1999999999999" x2="117.0" y2="11.1999999999998"/>
    <line x1="117.0" y1="11.1999999999998" x2="114.0" y2="11.1999999999999"/>
    <line x1="114.0" y1="11.1999999999999" x2="114.0" y2="8.1999999999999"/>
    <line x1="114.0" y1="8.1999999999999" x2="112.7" y2="8.1999999999999"/>
    <line x1="112.7" y1="8.1999999999999" x2="112.7" y2="6.00000000000004"/>
    <line x1="112.7" y1="6.00000000000004" x2="114.0" y2="5.99999999999994"/>
    <line x1="114.0" y1="5.99999999999994" x2="114.0" y2="4.00000000000013"/>
    <line x1="114.0" y1="4.00000000000013" x2="104.0" y2="4.00000000000004"/>
    <line x1="104.0" y1="4.00000000000004" x2="104.0" y2="1.00000000000009"/>
    <line x1="104.0" y1="1.00000000000009" x2="84.0" y2="1.00000000000018"/>
    <line x1="84.0" y1="1.00000000000018" x2="84.0" y2="4.00000000000004"/>
    <line x1="84.0" y1="4.00000000000004" x2="64.0" y2="4.00000000000013"/>
    <line x1="64.0" y1="4.00000000000013" x2="64.0" y2="1.00000000000009"/>
    <line x1="64.0" y1="1.00000000000009" x2="34.0000000000002" y2="1.0"/>
    <line x1="34.0000000000002" y1="1.0" x2="33.9999999999998" y2="4.00000000000013"/>
    <line x1="33.9999999999998" y1="4.00000000000013" x2="14.0" y2="4.00000000000013"/>
    <line x1="14.0" y1="4.00000000000013" x2="14.0" y2="5.99999999999994"/>
    <line x1="14.0" y1="5.99999999999994" x2="15.2999999999997" y2="6.00000000000012"/>
    <line x1="15.2999999999997" y1="6.00000000000012" x2="15.3" y2="8.1999999999999"/>
    <line x1="15.3" y1="8.1999999999999" x2="14.0" y2="8.19999999999998"/>
    <line x1="14.0" y1="8.19999999999998" x2="14.0" y2="11.1999999999998"/>
    <line x1="14.0" y1="11.1999999999998" x2="11.0" y2="11.2"/>
    <line x1="11.0" y1="11.2" x2="11.0" y2="8.1999999999998"/>
    <line x1="11.0" y1="8.1999999999998" x2="9.70000000000027" y2="8.1999999999998"/>
    <line x1="9.70000000000027" y1="8.1999999999998" x2="9.69999999999982" y2="6.00000000000012"/>
    <line x1="9.69999999999982" y1="6.00000000000012" x2="11.0" y2="5.99999999999985"/>
    <line x1="11.0" y1="5.99999999999985" x2="11.0" y2="4.00000000000013"/>
    <line x1="11.0" y1="4.00000000000013" x2="1.0" y2="4.00000000000004"/>
    <line x1="1.0" y1="4.00000000000004" x2="1.0" y2="501.0"/>
    <line x1="1.0" y1="501.0" x2="11.0" y2="501.000000000002"/>
    <line x1="11.0" y1="501.000000000002" x2="11.0" y2="498.0"/>
    <line x1="11.0" y1="498.0" x2="20.9999999999998" y2="498.0"/>
    <line x1="20.9999999999998" y1="498.0" x2="20.9999999999998" y2="496.000000000011"/>
    <line x1="20.9999999999998" y1="496.000000000011" x2="19.7" y2="495.999999999995"/>
    <line x1="19.7" y1="495.999999999995" x2="19.7" y2="493.799999999998"/>
    <line x1="19.7" y1="493.799999999998" x2="20.9999999999998" y2="493.800000000004"/>
    <line x1="20.9999999999998" y1="493.800000000004" x2="20.9999999999998" y2="490.800000000001"/>
    <line x1="20.9999999999998" y1="490.800000000001" x2="23.9999999999998" y2="490.8"/>
    <line x1="23.9999999999998" y1="490.8" x2="23.9999999999998" y2="493.800000000005"/>
    <line x1="23.9999999999998" y1="493.800000000005" x2="25.3" y2="493.799999999998"/>
    <line x1="25.3" y1="493.799999999998" x2="25.3" y2="496.000000000012"/>
    <line x1="25.3" y1="496.000000000012" x2="23.9999999999998" y2="496.000000000004"/>
    <line x1="23.9999999999998" y1="496.000000000004" x2="23.9999999999998" y2="498.0"/>
    <line x1="23.9999999999998" y1="498.0" x2="34.0000000000002" y2="498.0"/>
    <line x1="34.0000000000002" y1="498.0" x2="33.9999999999998" y2="500.999999999994"/>
    <line x1="33.9999999999998" y1="500.999999999994" x2="54.0" y2="501.000000000001"/>
    <line x1="54.0" y1="501.000000000001" x2="54.0" y2="498.0"/>
    <line x1="54.0" y1="498.0" x2="74.0" y2="498.0"/>
    <line x1="74.0" y1="498.0" x2="74.0" y2="501.0"/>
    <line x1="74.0" y1="501.0" x2="104.0" y2="500.999999999996"/>
    <line x1="104.0" y1="500.999999999996" x2="104.0" y2="498.0"/>
    <line x1="104.0" y1="498.0" x2="124.0" y2="498.0"/>
    <line x1="124.0" y1="498.0" x2="124.0" y2="495.999999999997"/>
    <line x1="124.0" y1="495.999999999997" x2="122.7" y2="496.0"/>
    <line x1="122.7" y1="496.0" x2="122.7" y2="493.799999999997"/>
    <line x1="122.7" y1="493.799999999997" x2="124.0" y2="493.800000000001"/>
    <line x1="124.0" y1="493.800000000001" x2="124.0" y2="490.800000000002"/>
    <line x1="124.0" y1="490.800000000002" x2="127.0" y2="490.799999999999"/>
    <line x1="127.0" y1="490.799999999999" x2="127.0" y2="493.799999999999"/>
    <line x1="127.0" y1="493.799999999999" x2="128.3" y2="493.799999999999"/>
    <line x1="128.3" y1="493.799999999999" x2="128.3" y2="496.000000000002"/>
    <line x1="128.3" y1="496.000000000002" x2="127.0" y2="496.000000000004"/>
    <line x1="127.0" y1="496.000000000004" x2="127.0" y2="498.0"/>
    <line x1="127.0" y1="498.0" x2="325.0" y2="498.0"/>
    <line x1="325.0" y1="498.0" x2="325.0" y2="496.0"/>
    <line x1="325.0" y1="496.0" x2="323.7" y2="496.0"/>
    <line x1="323.7" y1="496.0" x2="323.7" y2="493.8"/>
    <line x1="323.7" y1="493.8" x2="325.0" y2="493.8"/>
    <line x1="325.0" y1="493.8" x2="325.0" y2="490.8"/>
    <line x1="325.0" y1="490.8" x2="328.0" y2="490.8"/>
    <line x1="328.0" y1="490.8" x2="328.0" y2="493.8"/>
    <line x1="328.0" y1="493.8" x2="329.3" y2="493.8"/>
    <line x1="329.3" y1="493.8" x2="329.3" y2="495.999999999999"/>
    <line x1="329.3" y1="495.999999999999" x2="328.0" y2="496.0"/>
    <line x1="328.0" y1="496.0" x2="328.0" y2="498.0"/>
    <line x1="328.0" y1="498.0" x2="348.0" y2="498.0"/>
    <line x1="348.0" y1="498.0" x2="348.0" y2="501.0"/>
    <line x1="348.0" y1="501.0" x2="378.0" y2="501.0"/>
    <line x1="378.0" y1="501.0" x2="378.0" y2="498.0"/>
    <line x1="378.0" y1="498.0" x2="398.0" y2="498.0"/>
    <line x1="398.0" y1="498.0" x2="398.0" y2="501.0"/>
    <line x1="398.0" y1="501.0" x2="418.0" y2="501.0"/>
    <line x1="418.0" y1="501.0" x2="418.0" y2="498.0"/>
    <line x1="418.0" y1="498.0" x2="428.0" y2="498.0"/>
    <line x1="428.0" y1="498.0" x2="428.0" y2="496.0"/>
    <line x1="428.0" y1="496.0" x2="426.7" y2="496.0"/>
    <line x1="426.7" y1="496.0" x2="426.7" y2="493.8"/>
    <line x1="426.7" y1="493.8" x2="428.0" y2="493.8"/>
    <line x1="428.0" y1="493.8" x2="428.0" y2="490.8"/>
    <line x1="428.0" y1="490.8" x2="431.0" y2="490.8"/>
    <line x1="431.0" y1="490.8" x2="431.0" y2="493.8"/>
    <line x1="431.0" y1="493.8" x2="432.3" y2="493.8"/>
    <line x1="432.3" y1="493.8" x2="432.3" y2="496.0"/>
    <line x1="432.3" y1="496.0" x2="431.0" y2="496.0"/>
    <line x1="431.0" y1="496.0" x2="431.0" y2="498.0"/>
    <line x1="446.5" y1="428.0" x2="446.111771432346" y2="427.948888739434"/>
    <line x1="446.111771432346" y1="427.948888739434" x2="445.75" y2="427.799038105677"/>
    <line x1="445.75" y1="427.799038105677" x2="445.43933982822" y2="427.56066017178"/>
    <line x1="445.43933982822" y1="427.56066017178" x2="445.200961894323" y2="427.25"/>
    <line x1="445.200961894323" y1="427.25" x2="445.051111260566" y2="426.888228567654"/>
    <line x1="445.051111260566" y1="426.888228567654" x2="445.0" y2="426.5"/>
    <line x1="445.0" y1="426.5" x2="445.051111260566" y2="426.111771432346"/>
    <line x1="445.051111260566" y1="426.111771432346" x2="445.200961894323" y2="425.75"/>
    <line x1="445.200961894323" y1="425.75" x2="445.43933982822" y2="425.43933982822"/>
    <line x1="445.43933982822" y1="425.43933982822" x2="445.75" y2="425.200961894323"/>
    <line x1="445.75" y1="425.200961894323" x2="446.111771432346" y2="425.051111260566"/>
    <line x1="446.111771432346" y1="425.051111260566" x2="446.5" y2="425.0"/>
    <line x1="446.5" y1="425.0" x2="446.888228567654" y2="425.051111260566"/>
    <line x1="446.888228567654" y1="425.051111260566" x2="447.25" y2="425.200961894323"/>
    <line x1="447.25" y1="425.200961894323" x2="447.56066017178" y2="425.43933982822"/>
    <line x1="447.56066017178" y1="425.43933982822" x2="447.799038105677" y2="425.75"/>
    <line x1="447.799038105677" y1="425.75" x2="447.948888739433" y2="426.111771432346"/>
    <line x1="447.948888739433" y1="426.111771432346" x2="448.0" y2="426.5"/>
    <line x1="448.0" y1="426.5" x2="447.948888739433" y2="426.888228567654"/>
    <line x1="447.948888739433" y1="426.888228567654" x2="447.799038105677" y2="427.25"/>
    <line x1="447.799038105677" y1="427.25" x2="447.56066017178" y2="427.56066017178"/>
    <line x1="447.56066017178" y1="427.56066017178" x2="447.25" y2="427.799038105677"/>
    <line x1="447.25" y1="427.799038105677" x2="446.888228567654" y2="427.948888739434"/>
    <line x1="446.888228567654" y1="427.948888739434" x2="446.5" y2="428.0"/>
    <line x1="446.5" y1="252.5" x2="446.111771432346" y2="252.448888739434"/>
    <line x1="446.111771432346" y1="252.448888739434" x2="445.75" y2="252.299038105677"/>
    <line x1="445.75" y1="252.299038105677" x2="445.43933982822" y2="252.06066017178"/>
    <line x1="445.43933982822" y1="252.06066017178" x2="445.200961894323" y2="251.75"/>
    <line x1="445.200961894323" y1="251.75" x2="445.051111260566" y2="251.388228567654"/>
    <line x1="445.051111260566" y1="251.388228567654" x2="445.0" y2="251.0"/>
    <line x1="445.0" y1="251.0" x2="445.051111260566" y2="250.611771432346"/>
    <line x1="445.051111260566" y1="250.611771432346" x2="445.200961894323" y2="250.25"/>
    <line x1="445.200961894323" y1="250.25" x2="445.43933982822" y2="249.93933982822"/>
    <line x1="445.43933982822" y1="249.93933982822" x2="445.75" y2="249.700961894323"/>
    <line x1="445.75" y1="249.700961894323" x2="446.111771432346" y2="249.551111260566"/>
    <line x1="446.111771432346" y1="249.551111260566" x2="446.5" y2="249.5"/>
    <line x1="446.5" y1="249.5" x2="446.888228567654" y2="249.551111260566"/>
    <line x1="446.888228567654" y1="249.551111260566" x2="447.25" y2="249.700961894323"/>
    <line x1="447.25" y1="249.700961894323" x2="447.56066017178" y2="249.93933982822"/>
    <line x1="447.56066017178" y1="249.93933982822" x2="447.799038105677" y2="250.25"/>
    <line x1="447.799038105677" y1="250.25" x2="447.948888739433" y2="250.611771432346"/>
    <line x1="447.948888739433" y1="250.611771432346" x2="448.0" y2="251.0"/>
    <line x1="448.0" y1="251.0" x2="447.948888739433" y2="251.388228567654"/>
    <line x1="447.948888739433" y1="251.388228567654" x2="447.799038105677" y2="251.75"/>
    <line x1="447.799038105677" y1="251.75" x2="447.56066017178" y2="252.06066017178"/>
    <line x1="447.56066017178" y1="252.06066017178" x2="447.25" y2="252.299038105677"/>
    <line x1="447.25" y1="252.299038105677" x2="446.888228567654" y2="252.448888739434"/>
    <line x1="446.888228567654" y1="252.448888739434" x2="446.5" y2="252.5"/>
    <line x1="446.5" y1="77.0000000000001" x2="446.111771432346" y2="76.9488887394334"/>
    <line x1="446.111771432346" y1="76.9488887394334" x2="445.75" y2="76.799038105677"/>
    <line x1="445.75" y1="76.799038105677" x2="445.43933982822" y2="76.5606601717799"/>
    <line x1="445.43933982822" y1="76.5606601717799" x2="445.200961894323" y2="76.2499999999999"/>
    <line x1="445.200961894323" y1="76.2499999999999" x2="445.051111260566" y2="75.8882285676536"/>
    <line x1="445.051111260566" y1="75.8882285676536" x2="445.0" y2="75.5000000000001"/>
    <line x1="445.0" y1="75.5000000000001" x2="445.051111260566" y2="75.1117714323462"/>
    <line x1="445.051111260566" y1="75.1117714323462" x2="445.200961894323" y2="74.7499999999999"/>
    <line x1="445.200961894323" y1="74.7499999999999" x2="445.43933982822" y2="74.4393398282203"/>
    <line x1="445.43933982822" y1="74.4393398282203" x2="445.75" y2="74.2009618943233"/>
    <line x1="445.75" y1="74.2009618943233" x2="446.111771432346" y2="74.0511112605664"/>
    <line x1="446.111771432346" y1="74.0511112605664" x2="446.5" y2="74.0000000000001"/>
    <line x1="446.5" y1="74.0000000000001" x2="446.888228567654" y2="74.0511112605664"/>
    <line x1="446.888228567654" y1="74.0511112605664" x2="447.25" y2="74.2009618943233"/>
    <line x1="447.25" y1="74.2009618943233" x2="447.56066017178" y2="74.4393398282203"/>
    <line x1="447.56066017178" y1="74.4393398282203" x2="447.799038105677" y2="74.7499999999999"/>
    <line x1="447.799038105677" y1="74.7499999999999" x2="447.948888739433" y2="75.1117714323462"/>
    <line x1="447.948888739433" y1="75.1117714323462" x2="448.0" y2="75.5000000000001"/>
    <line x1="448.0" y1="75.5000000000001" x2="447.948888739433" y2="75.8882285676536"/>
    <line x1="447.948888739433" y1="75.8882285676536" x2="447.799038105677" y2="76.2499999999999"/>
    <line x1="447.799038105677" y1="76.2499999999999" x2="447.56066017178" y2="76.5606601717799"/>
    <line x1="447.56066017178" y1="76.5606601717799" x2="447.25" y2="76.799038105677"/>
    <line x1="447.25" y1="76.799038105677" x2="446.888228567654" y2="76.9488887394334"/>
    <line x1="446.888228567654" y1="76.9488887394334" x2="446.5" y2="77.0000000000001"/>
    <line x1="16.9488887394336" y1="249.111771432346" x2="17.0" y2="249.5"/>
    <line x1="17.0" y1="249.5" x2="16.9488887394336" y2="249.888228567654"/>
    <line x1="16.9488887394336" y1="249.888228567654" x2="16.7990381056768" y2="250.25"/>
    <line x1="16.7990381056768" y1="250.25" x2="16.5606601717798" y2="250.56066017178"/>
    <line x1="16.5606601717798" y1="250.56066017178" x2="16.2500000000002" y2="250.799038105677"/>
    <line x1="16.2500000000002" y1="250.799038105677" x2="15.8882285676534" y2="250.948888739434"/>
    <line x1="15.8882285676534" y1="250.948888739434" x2="15.5" y2="251.0"/>
    <line x1="15.5" y1="251.0" x2="15.1117714323461" y2="250.948888739434"/>
    <line x1="15.1117714323461" y1="250.948888739434" x2="14.7499999999998" y2="250.799038105677"/>
    <line x1="14.7499999999998" y1="250.799038105677" x2="14.4393398282202" y2="250.56066017178"/>
    <line x1="14.4393398282202" y1="250.56066017178" x2="14.2009618943232" y2="250.25"/>
    <line x1="14.2009618943232" y1="250.25" x2="14.0511112605664" y2="249.888228567654"/>
    <line x1="14.0511112605664" y1="249.888228567654" x2="14.0" y2="249.5"/>
    <line x1="14.0" y1="249.5" x2="14.0511112605664" y2="249.111771432346"/>
    <line x1="14.0511112605664" y1="249.111771432346" x2="14.2009618943232" y2="248.75"/>
    <line x1="14.2009618943232" y1="248.75" x2="14.4393398282198" y2="248.43933982822"/>
    <line x1="14.4393398282198" y1="248.43933982822" x2="14.7499999999998" y2="248.200961894323"/>
    <line x1="14.7499999999998" y1="248.200961894323" x2="15.1117714323461" y2="248.051111260566"/>
    <line x1="15.1117714323461" y1="248.051111260566" x2="15.5" y2="248.0"/>
    <line x1="15.5" y1="248.0" x2="15.8882285676534" y2="248.051111260566"/>
    <line x1="15.8882285676534" y1="248.051111260566" x2="16.2500000000002" y2="248.200961894323"/>
    <line x1="16.2500000000002" y1="248.200961894323" x2="16.5606601717798" y2="248.43933982822"/>
    <line x1="16.5606601717798" y1="248.43933982822" x2="16.7990381056768" y2="248.75"/>
    <line x1="16.7990381056768" y1="248.75" x2="16.9488887394336" y2="249.111771432346"/>
    <line x1="34.9488887394336" y1="249.111771432346" x2="35.0" y2="249.5"/>
    <line x1="35.0" y1="249.5" x2="34.9488887394336" y2="249.888228567654"/>
    <line x1="34.9488887394336" y1="249.888228567654" x2="34.7990381056766" y2="250.25"/>
    <line x1="34.7990381056766" y1="250.25" x2="34.5606601717798" y2="250.56066017178"/>
    <line x1="34.5606601717798" y1="250.56066017178" x2="34.25" y2="250.799038105677"/>
    <line x1="34.25" y1="250.799038105677" x2="33.8882285676539" y2="250.948888739434"/>
    <line x1="33.8882285676539" y1="250.948888739434" x2="33.4999999999998" y2="251.0"/>
    <line x1="33.4999999999998" y1="251.0" x2="33.1117714323459" y2="250.948888739434"/>
    <line x1="33.1117714323459" y1="250.948888739434" x2="32.75" y2="250.799038105677"/>
    <line x1="32.75" y1="250.799038105677" x2="32.43933982822" y2="250.56066017178"/>
    <line x1="32.43933982822" y1="250.56066017178" x2="32.2009618943234" y2="250.25"/>
    <line x1="32.2009618943234" y1="250.25" x2="32.0511112605661" y2="249.888228567654"/>
    <line x1="32.0511112605661" y1="249.888228567654" x2="31.9999999999998" y2="249.5"/>
    <line x1="31.9999999999998" y1="249.5" x2="32.0511112605661" y2="249.111771432346"/>
    <line x1="32.0511112605661" y1="249.111771432346" x2="32.2009618943234" y2="248.75"/>
    <line x1="32.2009618943234" y1="248.75" x2="32.43933982822" y2="248.43933982822"/>
    <line x1="32.43933982822" y1="248.43933982822" x2="32.75" y2="248.200961894323"/>
    <line x1="32.75" y1="248.200961894323" x2="33.1117714323459" y2="248.051111260567"/>
    <line x1="33.1117714323459" y1="248.051111260567" x2="33.4999999999998" y2="248.0"/>
    <line x1="33.4999999999998" y1="248.0" x2="33.8882285676539" y2="248.051111260566"/>
    <line x1="33.8882285676539" y1="248.051111260566" x2="34.25" y2="248.200961894323"/>
    <line x1="34.25" y1="248.200961894323" x2="34.5606601717798" y2="248.43933982822"/>
    <line x1="34.5606601717798" y1="248.43933982822" x2="34.7990381056766" y2="248.75"/>
    <line x1="34.7990381056766" y1="248.75" x2="34.9488887394336" y2="249.111771432346"/>
    <line x1="4.0" y1="251.0" x2="4.0" y2="248.0"/>
    <line x1="4.0" y1="248.0" x2="9.0" y2="248.0"/>
    <line x1="9.0" y1="248.0" x2="9.0" y2="251.0"/>
    <line x1="9.0" y1="251.0" x2="4.0" y2="251.0"/>
    <line x1="22.0" y1="251.0" x2="22.0" y2="248.0"/>
    <line x1="22.0" y1="248.0" x2="27.0" y2="248.0"/>
    <line x1="27.0" y1="248.0" x2="27.0" y2="251.0"/>
    <line x1="27.0" y1="251.0" x2="22.0" y2="251.0"/>
    <line x1="445.0" y1="53.9999999999996" x2="445.0" y2="23.9999999999999"/>
    <line x1="445.0" y1="23.9999999999999" x2="448.0" y2="23.9999999999999"/>
    <line x1="448.0" y1="23.9999999999999" x2="448.0" y2="53.9999999999996"/>
    <line x1="448.0" y1="53.9999999999996" x2="445.0" y2="53.9999999999996"/>
    <line x1="448.0" y1="96.9999999999999" x2="448.0" y2="137.0"/>
    <line x1="448.0" y1="137.0" x2="445.0" y2="137.0"/>
    <line x1="445.0" y1="137.0" x2="445.0" y2="96.9999999999999"/>
    <line x1="445.0" y1="96.9999999999999" x2="448.0" y2="96.9999999999999"/>
    <line x1="445.0" y1="227.0" x2="445.0" y2="187.0"/>
    <line x1="445.0" y1="187.0" x2="448.0" y2="187.0"/>
    <line x1="448.0" y1="187.0" x2="448.0" y2="227.0"/>
    <line x1="448.0" y1="227.0" x2="445.0" y2="227.0"/>
    <line x1="445.0" y1="275.0" x2="448.0" y2="275.0"/>
    <line x1="448.0" y1="275.0" x2="448.0" y2="315.0"/>
    <line x1="448.0" y1="315.0" x2="445.0" y2="315.0"/>
    <line x1="445.0" y1="315.0" x2="445.0" y2="275.0"/>
    <line x1="448.0" y1="365.0" x2="448.0" y2="405.0"/>
    <line x1="448.0" y1="405.0" x2="445.0" y2="405.0"/>
    <line x1="445.0" y1="405.0" x2="445.0" y2="365.0"/>
    <line x1="445.0" y1="365.0" x2="448.0" y2="365.0"/>
    <line x1="445.0" y1="448.0" x2="448.0" y2="448.0"/>
    <line x1="448.0" y1="448.0" x2="448.0" y2="478.0"/>
    <line x1="448.0" y1="478.0" x2="445.0" y2="478.0"/>
    <line x1="445.0" y1="478.0" x2="445.0" y2="448.0"/>
  </g>
</svg>
