<?xml version="1.0" standalone="no"?>
<!DOCTYPE svg PUBLIC "-//W3C//DTD SVG 1.1//EN" "http://www.w3.org/Graphics/SVG/1.1/DTD/svg11.dtd">
<svg width="450.0002mm" height="500.000200000007mm"
 viewBox="0 0 450.0002 500.000200000007"
 xmlns="http://www.w3.org/2000/svg" version="1.1"
 xmlns:xlink="http://www.w3.org/1999/xlink">
<desc>Output from Flights of Ideas SVG Sketchup Plugin</desc>

  <g id="face0" fill="none" stroke="rgb(0,0,255)" stroke-width="1" stroke-miterlimit="4" stroke-dasharray="none" stroke-linejoin="round" stroke-linecap="round">
    <line x1="10.0001" y1="3.00010000000679" x2="5.0001" y2="3.00010000000679"/>
    <line x1="5.0001" y1="3.00010000000679" x2="5.0001" y2="0.000100000006750156"/>
    <line x1="5.0001" y1="0.000100000006750156" x2="0.0001" y2="0.000100000006750156"/>
    <line x1="0.0001" y1="0.000100000006750156" x2="0.0001" y2="500.000100000007"/>
    <line x1="0.0001" y1="500.000100000007" x2="5.0001" y2="500.000100000007"/>
    <line x1="5.0001" y1="500.000100000007" x2="5.0001" y2="497.000100000007"/>
    <line x1="5.0001" y1="497.000100000007" x2="10.0001" y2="497.000100000007"/>
    <line x1="10.0001" y1="497.000100000007" x2="10.0001" y2="495.000100000007"/>
    <line x1="10.0001" y1="495.000100000007" x2="8.70010000000005" y2="495.000100000007"/>
    <line x1="8.70010000000005" y1="495.000100000007" x2="8.70010000000005" y2="492.800100000007"/>
    <line x1="8.70010000000005" y1="492.800100000007" x2="10.0001" y2="492.800100000007"/>
    <line x1="10.0001" y1="492.800100000007" x2="10.0001" y2="489.800100000007"/>
    <line x1="10.0001" y1="489.800100000007" x2="13.0001" y2="489.800100000007"/>
    <line x1="13.0001" y1="489.800100000007" x2="13.0001" y2="492.800100000007"/>
    <line x1="13.0001" y1="492.800100000007" x2="14.3001000000001" y2="492.800100000007"/>
    <line x1="14.3001000000001" y1="492.800100000007" x2="14.3001" y2="495.000100000007"/>
    <line x1="14.3001" y1="495.000100000007" x2="13.0001" y2="495.000100000007"/>
    <line x1="13.0001" y1="495.000100000007" x2="13.0000999999999" y2="497.000100000007"/>
    <line x1="13.0000999999999" y1="497.000100000007" x2="23.0001000000001" y2="497.000100000007"/>
    <line x1="23.0001000000001" y1="497.000100000007" x2="23.0001" y2="500.000100000007"/>
    <line x1="23.0001" y1="500.000100000007" x2="43.0001000000001" y2="500.000100000007"/>
    <line x1="43.0001000000001" y1="500.000100000007" x2="43.0001000000001" y2="497.000100000007"/>
    <line x1="43.0001000000001" y1="497.000100000007" x2="63.0001" y2="497.000100000007"/>
    <line x1="63.0001" y1="497.000100000007" x2="63.0001" y2="500.000100000007"/>
    <line x1="63.0001" y1="500.000100000007" x2="93.0001" y2="500.000100000007"/>
    <line x1="93.0001" y1="500.000100000007" x2="93.0001000000001" y2="497.000100000007"/>
    <line x1="93.0001000000001" y1="497.000100000007" x2="113.0001" y2="497.000100000007"/>
    <line x1="113.0001" y1="497.000100000007" x2="113.0001" y2="495.000100000007"/>
    <line x1="113.0001" y1="495.000100000007" x2="111.7001" y2="495.000100000007"/>
    <line x1="111.7001" y1="495.000100000007" x2="111.7001" y2="492.800100000007"/>
    <line x1="111.7001" y1="492.800100000007" x2="113.0001" y2="492.800100000007"/>
    <line x1="113.0001" y1="492.800100000007" x2="113.0001" y2="489.800100000007"/>
    <line x1="113.0001" y1="489.800100000007" x2="116.0001" y2="489.800100000007"/>
    <line x1="116.0001" y1="489.800100000007" x2="116.0001" y2="492.800100000007"/>
    <line x1="116.0001" y1="492.800100000007" x2="117.3001" y2="492.800100000007"/>
    <line x1="117.3001" y1="492.800100000007" x2="117.3001" y2="495.000100000007"/>
    <line x1="117.3001" y1="495.000100000007" x2="116.0001" y2="495.000100000007"/>
    <line x1="116.0001" y1="495.000100000007" x2="116.0001" y2="497.000100000007"/>
    <line x1="116.0001" y1="497.000100000007" x2="136.0001" y2="497.000100000007"/>
    <line x1="136.0001" y1="497.000100000007" x2="136.0001" y2="500.000100000007"/>
    <line x1="136.0001" y1="500.000100000007" x2="176.0001" y2="500.000100000007"/>
    <line x1="176.0001" y1="500.000100000007" x2="176.0001" y2="497.000100000007"/>
    <line x1="176.0001" y1="497.000100000007" x2="271.0001" y2="497.000100000007"/>
    <line x1="271.0001" y1="497.000100000007" x2="271.0001" y2="500.000100000007"/>
    <line x1="271.0001" y1="500.000100000007" x2="311.0001" y2="500.000100000007"/>
    <line x1="311.0001" y1="500.000100000007" x2="311.0001" y2="497.000100000007"/>
    <line x1="311.0001" y1="497.000100000007" x2="331.0001" y2="497.000100000007"/>
    <line x1="331.0001" y1="497.000100000007" x2="331.0001" y2="495.000100000007"/>
    <line x1="331.0001" y1="495.000100000007" x2="329.7001" y2="495.000100000007"/>
    <line x1="329.7001" y1="495.000100000007" x2="329.7001" y2="492.800100000007"/>
    <line x1="329.7001" y1="492.800100000007" x2="331.0001" y2="492.800100000007"/>
    <line x1="331.0001" y1="492.800100000007" x2="331.0001" y2="489.800100000007"/>
    <line x1="331.0001" y1="489.800100000007" x2="334.0001" y2="489.800100000007"/>
    <line x1="334.0001" y1="489.800100000007" x2="334.0001" y2="492.800100000007"/>
    <line x1="334.0001" y1="492.800100000007" x2="335.3001" y2="492.800100000007"/>
    <line x1="335.3001" y1="492.800100000007" x2="335.3001" y2="495.000100000007"/>
    <line x1="335.3001" y1="495.000100000007" x2="334.0001" y2="495.000100000007"/>
    <line x1="334.0001" y1="495.000100000007" x2="334.0001" y2="497.000100000007"/>
    <line x1="334.0001" y1="497.000100000007" x2="354.0001" y2="497.000100000007"/>
    <line x1="354.0001" y1="497.000100000007" x2="354.0001" y2="500.000100000007"/>
    <line x1="354.0001" y1="500.000100000007" x2="384.0001" y2="500.000100000007"/>
    <line x1="384.0001" y1="500.000100000007" x2="384.0001" y2="497.000100000007"/>
    <line x1="384.0001" y1="497.000100000007" x2="404.0001" y2="497.000100000007"/>
    <line x1="404.0001" y1="497.000100000007" x2="404.0001" y2="500.000100000007"/>
    <line x1="404.0001" y1="500.000100000007" x2="424.0001" y2="500.000100000007"/>
    <line x1="424.0001" y1="500.000100000007" x2="424.0001" y2="497.000100000007"/>
    <line x1="424.0001" y1="497.000100000007" x2="434.0001" y2="497.000100000007"/>
    <line x1="434.0001" y1="497.000100000007" x2="434.0001" y2="495.000100000007"/>
    <line x1="434.0001" y1="495.000100000007" x2="432.7001" y2="495.000100000007"/>
    <line x1="432.7001" y1="495.000100000007" x2="432.7001" y2="492.800100000007"/>
    <line x1="432.7001" y1="492.800100000007" x2="434.0001" y2="492.800100000007"/>
    <line x1="434.0001" y1="492.800100000007" x2="434.0001" y2="489.800100000007"/>
    <line x1="434.0001" y1="489.800100000007" x2="437.0001" y2="489.800100000007"/>
    <line x1="437.0001" y1="489.800100000007" x2="437.0001" y2="492.800100000007"/>
    <line x1="437.0001" y1="492.800100000007" x2="438.3001" y2="492.800100000007"/>
    <line x1="438.3001" y1="492.800100000007" x2="438.3001" y2="495.000100000007"/>
    <line x1="438.3001" y1="495.000100000007" x2="437.0001" y2="495.000100000007"/>
    <line x1="437.0001" y1="495.000100000007" x2="437.0001" y2="497.000100000007"/>
    <line x1="437.0001" y1="497.000100000007" x2="450.0001" y2="497.000100000007"/>
    <line x1="450.0001" y1="497.000100000007" x2="450.0001" y2="3.00010000000679"/>
    <line x1="450.0001" y1="3.00010000000679" x2="447.0001" y2="3.00010000000679"/>
    <line x1="447.0001" y1="3.00010000000679" x2="447.0001" y2="0.0001"/>
    <line x1="447.0001" y1="0.0001" x2="440.0001" y2="0.000100000006913581"/>
    <line x1="440.0001" y1="0.000100000006913581" x2="440.0001" y2="3.00010000000679"/>
    <line x1="440.0001" y1="3.00010000000679" x2="420.0001" y2="3.00010000000679"/>
    <line x1="420.0001" y1="3.00010000000679" x2="420.0001" y2="5.00009999999618"/>
    <line x1="420.0001" y1="5.00009999999618" x2="421.3001" y2="5.00010000001181"/>
    <line x1="421.3001" y1="5.00010000001181" x2="421.3001" y2="7.20010000000835"/>
    <line x1="421.3001" y1="7.20010000000835" x2="420.0001" y2="7.20010000000321"/>
    <line x1="420.0001" y1="7.20010000000321" x2="420.0001" y2="10.2001000000059"/>
    <line x1="420.0001" y1="10.2001000000059" x2="417.0001" y2="10.2001000000063"/>
    <line x1="417.0001" y1="10.2001000000063" x2="417.0001" y2="7.20010000000172"/>
    <line x1="417.0001" y1="7.20010000000172" x2="415.7001" y2="7.20010000000405"/>
    <line x1="415.7001" y1="7.20010000000405" x2="415.7001" y2="5.00010000000389"/>
    <line x1="415.7001" y1="5.00010000000389" x2="417.0001" y2="5.00010000000329"/>
    <line x1="417.0001" y1="5.00010000000329" x2="417.0001" y2="3.00010000000679"/>
    <line x1="417.0001" y1="3.00010000000679" x2="397.0001" y2="3.00010000000679"/>
    <line x1="397.0001" y1="3.00010000000679" x2="397.0001" y2="0.000100000004483525"/>
    <line x1="397.0001" y1="0.000100000004483525" x2="367.0001" y2="0.000100000002266631"/>
    <line x1="367.0001" y1="0.000100000002266631" x2="367.0001" y2="3.00010000000679"/>
    <line x1="367.0001" y1="3.00010000000679" x2="347.0001" y2="3.00010000000679"/>
    <line x1="347.0001" y1="3.00010000000679" x2="347.0001" y2="0.000100000009677592"/>
    <line x1="347.0001" y1="0.000100000009677592" x2="317.0001" y2="0.00010000000856204"/>
    <line x1="317.0001" y1="0.00010000000856204" x2="317.0001" y2="3.00010000000679"/>
    <line x1="317.0001" y1="3.00010000000679" x2="297.0001" y2="3.00010000000679"/>
    <line x1="297.0001" y1="3.00010000000679" x2="297.0001" y2="5.00010000000993"/>
    <line x1="297.0001" y1="5.00010000000993" x2="298.3001" y2="5.00010000000467"/>
    <line x1="298.3001" y1="5.00010000000467" x2="298.3001" y2="7.20010000000714"/>
    <line x1="298.3001" y1="7.20010000000714" x2="297.0001" y2="7.20010000000526"/>
    <line x1="297.0001" y1="7.20010000000526" x2="297.0001" y2="10.200100000008"/>
    <line x1="297.0001" y1="10.200100000008" x2="294.0001" y2="10.2001000000073"/>
    <line x1="294.0001" y1="10.2001000000073" x2="294.0001" y2="7.20010000000812"/>
    <line x1="294.0001" y1="7.20010000000812" x2="292.7001" y2="7.20010000000887"/>
    <line x1="292.7001" y1="7.20010000000887" x2="292.7001" y2="5.00010000000792"/>
    <line x1="292.7001" y1="5.00010000000792" x2="294.0001" y2="5.00010000000776"/>
    <line x1="294.0001" y1="5.00010000000776" x2="294.0001" y2="3.00010000000679"/>
    <line x1="294.0001" y1="3.00010000000679" x2="111.0001" y2="3.00010000000679"/>
    <line x1="111.0001" y1="3.00010000000679" x2="111.0001" y2="5.00010000000694"/>
    <line x1="111.0001" y1="5.00010000000694" x2="112.3001" y2="5.00010000000663"/>
    <line x1="112.3001" y1="5.00010000000663" x2="112.3001" y2="7.20010000000705"/>
    <line x1="112.3001" y1="7.20010000000705" x2="111.0001" y2="7.200100000007"/>
    <line x1="111.0001" y1="7.200100000007" x2="111.0001" y2="10.2001000000067"/>
    <line x1="111.0001" y1="10.2001000000067" x2="108.0001" y2="10.2001000000068"/>
    <line x1="108.0001" y1="10.2001000000068" x2="108.0001" y2="7.20010000000672"/>
    <line x1="108.0001" y1="7.20010000000672" x2="106.7001" y2="7.20010000000695"/>
    <line x1="106.7001" y1="7.20010000000695" x2="106.7001" y2="5.00010000000736"/>
    <line x1="106.7001" y1="5.00010000000736" x2="108.0001" y2="5.00010000000684"/>
    <line x1="108.0001" y1="5.00010000000684" x2="108.0001" y2="3.00010000000679"/>
    <line x1="108.0001" y1="3.00010000000679" x2="88.0001" y2="3.00010000000679"/>
    <line x1="88.0001" y1="3.00010000000679" x2="88.0001" y2="0.000100000006338041"/>
    <line x1="88.0001" y1="0.000100000006338041" x2="58.0001" y2="0.000100000006686207"/>
    <line x1="58.0001" y1="0.000100000006686207" x2="58.0001" y2="3.00010000000679"/>
    <line x1="58.0001" y1="3.00010000000679" x2="38.0001" y2="3.00010000000679"/>
    <line x1="38.0001" y1="3.00010000000679" x2="38.0001" y2="0.000100000006764367"/>
    <line x1="38.0001" y1="0.000100000006764367" x2="18.0001000000001" y2="0.000100000006750156"/>
    <line x1="18.0001000000001" y1="0.000100000006750156" x2="18.0001000000001" y2="3.00010000000679"/>
    <line x1="18.0001000000001" y1="3.00010000000679" x2="13.0001" y2="3.00010000000679"/>
    <line x1="13.0001" y1="3.00010000000679" x2="13.0001" y2="5.00010000000679"/>
    <line x1="13.0001" y1="5.00010000000679" x2="14.3001" y2="5.00010000000679"/>
    <line x1="14.3001" y1="5.00010000000679" x2="14.3001" y2="7.20010000000682"/>
    <line x1="14.3001" y1="7.20010000000682" x2="13.0001" y2="7.20010000000682"/>
    <line x1="13.0001" y1="7.20010000000682" x2="13.0001" y2="10.2001000000068"/>
    <line x1="13.0001" y1="10.2001000000068" x2="10.0001" y2="10.2001000000068"/>
    <line x1="10.0001" y1="10.2001000000068" x2="10.0001" y2="7.20010000000682"/>
    <line x1="10.0001" y1="7.20010000000682" x2="8.70010000000005" y2="7.20010000000682"/>
    <line x1="8.70010000000005" y1="7.20010000000682" x2="8.70010000000005" y2="5.00010000000679"/>
    <line x1="8.70010000000005" y1="5.00010000000679" x2="10.0001" y2="5.00010000000679"/>
    <line x1="10.0001" y1="5.00010000000679" x2="10.0001" y2="3.00010000000679"/>
    <line x1="444.0001" y1="53.0001000000069" x2="444.0001" y2="23.0001000000067"/>
    <line x1="444.0001" y1="23.0001000000067" x2="447.0001" y2="23.0001000000068"/>
    <line x1="447.0001" y1="23.0001000000068" x2="447.0001" y2="53.0001000000068"/>
    <line x1="447.0001" y1="53.0001000000068" x2="444.0001" y2="53.0001000000069"/>
    <line x1="447.0001" y1="136.000100000007" x2="444.0001" y2="136.000100000007"/>
    <line x1="444.0001" y1="136.000100000007" x2="444.0001" y2="96.0001000000069"/>
    <line x1="444.0001" y1="96.0001000000069" x2="447.0001" y2="96.0001000000069"/>
    <line x1="447.0001" y1="96.0001000000069" x2="447.0001" y2="136.000100000007"/>
    <line x1="447.0001" y1="226.000100000007" x2="444.0001" y2="226.000100000007"/>
    <line x1="444.0001" y1="226.000100000007" x2="444.0001" y2="186.000100000007"/>
    <line x1="444.0001" y1="186.000100000007" x2="447.0001" y2="186.000100000007"/>
    <line x1="447.0001" y1="186.000100000007" x2="447.0001" y2="226.000100000007"/>
    <line x1="447.0001" y1="274.000100000007" x2="447.0001" y2="314.000100000007"/>
    <line x1="447.0001" y1="314.000100000007" x2="444.0001" y2="314.000100000007"/>
    <line x1="444.0001" y1="314.000100000007" x2="444.0001" y2="274.000100000007"/>
    <line x1="444.0001" y1="274.000100000007" x2="447.0001" y2="274.000100000007"/>
    <line x1="447.0001" y1="404.000100000007" x2="444.0001" y2="404.000100000007"/>
    <line x1="444.0001" y1="404.000100000007" x2="444.0001" y2="364.000100000007"/>
    <line x1="444.0001" y1="364.000100000007" x2="447.0001" y2="364.000100000007"/>
    <line x1="447.0001" y1="364.000100000007" x2="447.0001" y2="404.000100000007"/>
    <line x1="447.0001" y1="447.000100000007" x2="447.0001" y2="477.000100000007"/>
    <line x1="447.0001" y1="477.000100000007" x2="444.0001" y2="477.000100000007"/>
    <line x1="444.0001" y1="477.000100000007" x2="444.0001" y2="447.000100000007"/>
    <line x1="444.0001" y1="447.000100000007" x2="447.0001" y2="447.000100000007"/>
    <line x1="445.888328567654" y1="426.94898873944" x2="445.5001" y2="427.000100000007"/>
    <line x1="445.5001" y1="427.000100000007" x2="445.111871432346" y2="426.94898873944"/>
    <line x1="445.111871432346" y1="426.94898873944" x2="444.7501" y2="426.799138105683"/>
    <line x1="444.7501" y1="426.799138105683" x2="444.43943982822" y2="426.560760171787"/>
    <line x1="444.43943982822" y1="426.560760171787" x2="444.201061894323" y2="426.250100000007"/>
    <line x1="444.201061894323" y1="426.250100000007" x2="444.051211260566" y2="425.88832856766"/>
    <line x1="444.051211260566" y1="425.88832856766" x2="444.0001" y2="425.500100000007"/>
    <line x1="444.0001" y1="425.500100000007" x2="444.051211260566" y2="425.111871432353"/>
    <line x1="444.051211260566" y1="425.111871432353" x2="444.201061894323" y2="424.750100000007"/>
    <line x1="444.201061894323" y1="424.750100000007" x2="444.43943982822" y2="424.439439828227"/>
    <line x1="444.43943982822" y1="424.439439828227" x2="444.7501" y2="424.20106189433"/>
    <line x1="444.7501" y1="424.20106189433" x2="445.111871432346" y2="424.051211260573"/>
    <line x1="445.111871432346" y1="424.051211260573" x2="445.5001" y2="424.000100000007"/>
    <line x1="445.5001" y1="424.000100000007" x2="445.888328567654" y2="424.051211260573"/>
    <line x1="445.888328567654" y1="424.051211260573" x2="446.2501" y2="424.20106189433"/>
    <line x1="446.2501" y1="424.20106189433" x2="446.56076017178" y2="424.439439828227"/>
    <line x1="446.56076017178" y1="424.439439828227" x2="446.799138105677" y2="424.750100000007"/>
    <line x1="446.799138105677" y1="424.750100000007" x2="446.948988739434" y2="425.111871432353"/>
    <line x1="446.948988739434" y1="425.111871432353" x2="447.0001" y2="425.500100000007"/>
    <line x1="447.0001" y1="425.500100000007" x2="446.948988739434" y2="425.88832856766"/>
    <line x1="446.948988739434" y1="425.88832856766" x2="446.799138105677" y2="426.250100000007"/>
    <line x1="446.799138105677" y1="426.250100000007" x2="446.56076017178" y2="426.560760171786"/>
    <line x1="446.56076017178" y1="426.560760171786" x2="446.2501" y2="426.799138105683"/>
    <line x1="446.2501" y1="426.799138105683" x2="445.888328567654" y2="426.94898873944"/>
    <line x1="445.5001" y1="251.736141178536" x2="445.111871432346" y2="251.68502991797"/>
    <line x1="445.111871432346" y1="251.68502991797" x2="444.7501" y2="251.535179284213"/>
    <line x1="444.7501" y1="251.535179284213" x2="444.43943982822" y2="251.296801350316"/>
    <line x1="444.43943982822" y1="251.296801350316" x2="444.201061894323" y2="250.986141178536"/>
    <line x1="444.201061894323" y1="250.986141178536" x2="444.051211260566" y2="250.62436974619"/>
    <line x1="444.051211260566" y1="250.62436974619" x2="444.0001" y2="250.236141178536"/>
    <line x1="444.0001" y1="250.236141178536" x2="444.051211260566" y2="249.847912610882"/>
    <line x1="444.051211260566" y1="249.847912610882" x2="444.201061894323" y2="249.486141178536"/>
    <line x1="444.201061894323" y1="249.486141178536" x2="444.43943982822" y2="249.175481006756"/>
    <line x1="444.43943982822" y1="249.175481006756" x2="444.7501" y2="248.937103072859"/>
    <line x1="444.7501" y1="248.937103072859" x2="445.111871432346" y2="248.787252439103"/>
    <line x1="445.111871432346" y1="248.787252439103" x2="445.5001" y2="248.736141178536"/>
    <line x1="445.5001" y1="248.736141178536" x2="445.888328567654" y2="248.787252439102"/>
    <line x1="445.888328567654" y1="248.787252439102" x2="446.2501" y2="248.937103072859"/>
    <line x1="446.2501" y1="248.937103072859" x2="446.56076017178" y2="249.175481006756"/>
    <line x1="446.56076017178" y1="249.175481006756" x2="446.799138105677" y2="249.486141178536"/>
    <line x1="446.799138105677" y1="249.486141178536" x2="446.948988739434" y2="249.847912610882"/>
    <line x1="446.948988739434" y1="249.847912610882" x2="447.0001" y2="250.236141178536"/>
    <line x1="447.0001" y1="250.236141178536" x2="446.948988739434" y2="250.62436974619"/>
    <line x1="446.948988739434" y1="250.62436974619" x2="446.799138105677" y2="250.986141178536"/>
    <line x1="446.799138105677" y1="250.986141178536" x2="446.56076017178" y2="251.296801350316"/>
    <line x1="446.56076017178" y1="251.296801350316" x2="446.2501" y2="251.535179284213"/>
    <line x1="446.2501" y1="251.535179284213" x2="445.888328567654" y2="251.68502991797"/>
    <line x1="445.888328567654" y1="251.68502991797" x2="445.5001" y2="251.736141178536"/>
    <line x1="445.5001" y1="76.0001000000068" x2="445.111871432346" y2="75.9489887394405"/>
    <line x1="445.111871432346" y1="75.9489887394405" x2="444.7501" y2="75.7991381056839"/>
    <line x1="444.7501" y1="75.7991381056839" x2="444.43943982822" y2="75.5607601717868"/>
    <line x1="444.43943982822" y1="75.5607601717868" x2="444.201061894323" y2="75.2501000000071"/>
    <line x1="444.201061894323" y1="75.2501000000071" x2="444.051211260566" y2="74.8883285676605"/>
    <line x1="444.051211260566" y1="74.8883285676605" x2="444.0001" y2="74.5001000000068"/>
    <line x1="444.0001" y1="74.5001000000068" x2="444.051211260566" y2="74.1118714323525"/>
    <line x1="444.051211260566" y1="74.1118714323525" x2="444.201061894323" y2="73.750100000007"/>
    <line x1="444.201061894323" y1="73.750100000007" x2="444.43943982822" y2="73.4394398282268"/>
    <line x1="444.43943982822" y1="73.4394398282268" x2="444.7501" y2="73.2010618943306"/>
    <line x1="444.7501" y1="73.2010618943306" x2="445.111871432346" y2="73.0512112605733"/>
    <line x1="445.111871432346" y1="73.0512112605733" x2="445.5001" y2="73.0001000000071"/>
    <line x1="445.5001" y1="73.0001000000071" x2="445.888328567654" y2="73.0512112605733"/>
    <line x1="445.888328567654" y1="73.0512112605733" x2="446.2501" y2="73.2010618943297"/>
    <line x1="446.2501" y1="73.2010618943297" x2="446.56076017178" y2="73.4394398282273"/>
    <line x1="446.56076017178" y1="73.4394398282273" x2="446.799138105677" y2="73.7501000000067"/>
    <line x1="446.799138105677" y1="73.7501000000067" x2="446.948988739434" y2="74.111871432353"/>
    <line x1="446.948988739434" y1="74.111871432353" x2="447.0001" y2="74.5001000000067"/>
    <line x1="447.0001" y1="74.5001000000067" x2="446.948988739434" y2="74.8883285676607"/>
    <line x1="446.948988739434" y1="74.8883285676607" x2="446.799138105677" y2="75.2501000000067"/>
    <line x1="446.799138105677" y1="75.2501000000067" x2="446.56076017178" y2="75.5607601717867"/>
    <line x1="446.56076017178" y1="75.5607601717867" x2="446.2501" y2="75.7991381056836"/>
    <line x1="446.2501" y1="75.7991381056836" x2="445.888328567654" y2="75.9489887394406"/>
    <line x1="445.888328567654" y1="75.9489887394406" x2="445.5001" y2="76.0001000000068"/>
    <line x1="16.1118714323462" y1="481.551211260573" x2="16.5001" y2="481.500100000007"/>
    <line x1="16.5001" y1="481.500100000007" x2="16.8883285676538" y2="481.551211260573"/>
    <line x1="16.8883285676538" y1="481.551211260573" x2="17.2501" y2="481.70106189433"/>
    <line x1="17.2501" y1="481.70106189433" x2="17.5607601717799" y2="481.939439828227"/>
    <line x1="17.5607601717799" y1="481.939439828227" x2="17.7991381056767" y2="482.250100000007"/>
    <line x1="17.7991381056767" y1="482.250100000007" x2="17.9489887394336" y2="482.611871432353"/>
    <line x1="17.9489887394336" y1="482.611871432353" x2="18.0001000000001" y2="483.000100000007"/>
    <line x1="18.0001000000001" y1="483.000100000007" x2="17.9489887394336" y2="483.388328567661"/>
    <line x1="17.9489887394336" y1="483.388328567661" x2="17.7991381056766" y2="483.750100000007"/>
    <line x1="17.7991381056766" y1="483.750100000007" x2="17.5607601717799" y2="484.060760171787"/>
    <line x1="17.5607601717799" y1="484.060760171787" x2="17.2501" y2="484.299138105683"/>
    <line x1="17.2501" y1="484.299138105683" x2="16.8883285676538" y2="484.44898873944"/>
    <line x1="16.8883285676538" y1="484.44898873944" x2="16.5001" y2="484.500100000007"/>
    <line x1="16.5001" y1="484.500100000007" x2="16.1118714323461" y2="484.44898873944"/>
    <line x1="16.1118714323461" y1="484.44898873944" x2="15.7501" y2="484.299138105683"/>
    <line x1="15.7501" y1="484.299138105683" x2="15.4394398282202" y2="484.060760171787"/>
    <line x1="15.4394398282202" y1="484.060760171787" x2="15.2010618943234" y2="483.750100000007"/>
    <line x1="15.2010618943234" y1="483.750100000007" x2="15.0512112605665" y2="483.388328567661"/>
    <line x1="15.0512112605665" y1="483.388328567661" x2="15.0001" y2="483.000100000007"/>
    <line x1="15.0001" y1="483.000100000007" x2="15.0512112605665" y2="482.611871432353"/>
    <line x1="15.0512112605665" y1="482.611871432353" x2="15.2010618943233" y2="482.250100000007"/>
    <line x1="15.2010618943233" y1="482.250100000007" x2="15.4394398282201" y2="481.939439828227"/>
    <line x1="15.4394398282201" y1="481.939439828227" x2="15.7501" y2="481.70106189433"/>
    <line x1="15.7501" y1="481.70106189433" x2="16.1118714323462" y2="481.551211260573"/>
    <line x1="11.9489887394335" y1="474.611871432353" x2="12.0001000000001" y2="475.000100000007"/>
    <line x1="12.0001000000001" y1="475.000100000007" x2="11.9489887394335" y2="475.388328567661"/>
    <line x1="11.9489887394335" y1="475.388328567661" x2="11.7991381056767" y2="475.750100000007"/>
    <line x1="11.7991381056767" y1="475.750100000007" x2="11.5607601717799" y2="476.060760171787"/>
    <line x1="11.5607601717799" y1="476.060760171787" x2="11.2501" y2="476.299138105683"/>
    <line x1="11.2501" y1="476.299138105683" x2="10.8883285676538" y2="476.44898873944"/>
    <line x1="10.8883285676538" y1="476.44898873944" x2="10.5001000000001" y2="476.500100000007"/>
    <line x1="10.5001000000001" y1="476.500100000007" x2="10.1118714323462" y2="476.44898873944"/>
    <line x1="10.1118714323462" y1="476.44898873944" x2="9.7501" y2="476.299138105684"/>
    <line x1="9.7501" y1="476.299138105684" x2="9.43943982822023" y2="476.060760171787"/>
    <line x1="9.43943982822023" y1="476.060760171787" x2="9.20106189432343" y2="475.750100000007"/>
    <line x1="9.20106189432343" y1="475.750100000007" x2="9.05121126056647" y2="475.388328567661"/>
    <line x1="9.05121126056647" y1="475.388328567661" x2="9.0001" y2="475.000100000007"/>
    <line x1="9.0001" y1="475.000100000007" x2="9.05121126056647" y2="474.611871432353"/>
    <line x1="9.05121126056647" y1="474.611871432353" x2="9.20106189432331" y2="474.250100000007"/>
    <line x1="9.20106189432331" y1="474.250100000007" x2="9.43943982822023" y2="473.939439828227"/>
    <line x1="9.43943982822023" y1="473.939439828227" x2="9.7501" y2="473.70106189433"/>
    <line x1="9.7501" y1="473.70106189433" x2="10.1118714323461" y2="473.551211260573"/>
    <line x1="10.1118714323461" y1="473.551211260573" x2="10.5001000000001" y2="473.500100000007"/>
    <line x1="10.5001000000001" y1="473.500100000007" x2="10.8883285676538" y2="473.551211260573"/>
    <line x1="10.8883285676538" y1="473.551211260573" x2="11.2501000000001" y2="473.70106189433"/>
    <line x1="11.2501000000001" y1="473.70106189433" x2="11.5607601717798" y2="473.939439828227"/>
    <line x1="11.5607601717798" y1="473.939439828227" x2="11.7991381056767" y2="474.250100000007"/>
    <line x1="11.7991381056767" y1="474.250100000007" x2="11.9489887394335" y2="474.611871432353"/>
    <line x1="11.9489887394336" y1="468.611871432353" x2="12.0001" y2="469.000100000007"/>
    <line x1="12.0001" y1="469.000100000007" x2="11.9489887394336" y2="469.388328567661"/>
    <line x1="11.9489887394336" y1="469.388328567661" x2="11.7991381056767" y2="469.750100000007"/>
    <line x1="11.7991381056767" y1="469.750100000007" x2="11.5607601717799" y2="470.060760171787"/>
    <line x1="11.5607601717799" y1="470.060760171787" x2="11.2501000000001" y2="470.299138105684"/>
    <line x1="11.2501000000001" y1="470.299138105684" x2="10.8883285676538" y2="470.44898873944"/>
    <line x1="10.8883285676538" y1="470.44898873944" x2="10.5001000000001" y2="470.500100000007"/>
    <line x1="10.5001000000001" y1="470.500100000007" x2="10.1118714323462" y2="470.44898873944"/>
    <line x1="10.1118714323462" y1="470.44898873944" x2="9.7501" y2="470.299138105683"/>
    <line x1="9.7501" y1="470.299138105683" x2="9.43943982822011" y2="470.060760171787"/>
    <line x1="9.43943982822011" y1="470.060760171787" x2="9.20106189432331" y2="469.750100000007"/>
    <line x1="9.20106189432331" y1="469.750100000007" x2="9.05121126056647" y2="469.388328567661"/>
    <line x1="9.05121126056647" y1="469.388328567661" x2="9.0001" y2="469.000100000007"/>
    <line x1="9.0001" y1="469.000100000007" x2="9.05121126056647" y2="468.611871432353"/>
    <line x1="9.05121126056647" y1="468.611871432353" x2="9.20106189432343" y2="468.250100000007"/>
    <line x1="9.20106189432343" y1="468.250100000007" x2="9.43943982822011" y2="467.939439828227"/>
    <line x1="9.43943982822011" y1="467.939439828227" x2="9.7501" y2="467.70106189433"/>
    <line x1="9.7501" y1="467.70106189433" x2="10.1118714323462" y2="467.551211260573"/>
    <line x1="10.1118714323462" y1="467.551211260573" x2="10.5001000000001" y2="467.500100000007"/>
    <line x1="10.5001000000001" y1="467.500100000007" x2="10.8883285676539" y2="467.551211260573"/>
    <line x1="10.8883285676539" y1="467.551211260573" x2="11.2501" y2="467.70106189433"/>
    <line x1="11.2501" y1="467.70106189433" x2="11.5607601717799" y2="467.939439828227"/>
    <line x1="11.5607601717799" y1="467.939439828227" x2="11.7991381056767" y2="468.250100000007"/>
    <line x1="11.7991381056767" y1="468.250100000007" x2="11.9489887394336" y2="468.611871432353"/>
    <line x1="16.888328567654" y1="462.382060573747" x2="16.5001000000001" y2="462.433171834314"/>
    <line x1="16.5001000000001" y1="462.433171834314" x2="16.1118714323464" y2="462.382060573747"/>
    <line x1="16.1118714323464" y1="462.382060573747" x2="15.7501000000001" y2="462.23220993999"/>
    <line x1="15.7501000000001" y1="462.23220993999" x2="15.4394398282202" y2="461.993832006093"/>
    <line x1="15.4394398282202" y1="461.993832006093" x2="15.2010618943234" y2="461.683171834314"/>
    <line x1="15.2010618943234" y1="461.683171834314" x2="15.0512112605666" y2="461.321400401967"/>
    <line x1="15.0512112605666" y1="461.321400401967" x2="15.0001000000001" y2="460.933171834314"/>
    <line x1="15.0001000000001" y1="460.933171834314" x2="15.0512112605666" y2="460.54494326666"/>
    <line x1="15.0512112605666" y1="460.54494326666" x2="15.2010618943234" y2="460.183171834313"/>
    <line x1="15.2010618943234" y1="460.183171834313" x2="15.4394398282202" y2="459.872511662534"/>
    <line x1="15.4394398282202" y1="459.872511662534" x2="15.7501000000001" y2="459.634133728637"/>
    <line x1="15.7501000000001" y1="459.634133728637" x2="16.1118714323464" y2="459.48428309488"/>
    <line x1="16.1118714323464" y1="459.48428309488" x2="16.5001000000001" y2="459.433171834313"/>
    <line x1="16.5001000000001" y1="459.433171834313" x2="16.888328567654" y2="459.48428309488"/>
    <line x1="16.888328567654" y1="459.48428309488" x2="17.2501" y2="459.634133728637"/>
    <line x1="17.2501" y1="459.634133728637" x2="17.5607601717799" y2="459.872511662534"/>
    <line x1="17.5607601717799" y1="459.872511662534" x2="17.7991381056768" y2="460.183171834314"/>
    <line x1="17.7991381056768" y1="460.183171834314" x2="17.9489887394338" y2="460.54494326666"/>
    <line x1="17.9489887394338" y1="460.54494326666" x2="18.0001000000001" y2="460.933171834314"/>
    <line x1="18.0001000000001" y1="460.933171834314" x2="17.9489887394338" y2="461.321400401967"/>
    <line x1="17.9489887394338" y1="461.321400401967" x2="17.7991381056768" y2="461.683171834314"/>
    <line x1="17.7991381056768" y1="461.683171834314" x2="17.56076017178" y2="461.993832006093"/>
    <line x1="17.56076017178" y1="461.993832006093" x2="17.2501000000001" y2="462.23220993999"/>
    <line x1="17.2501000000001" y1="462.23220993999" x2="16.888328567654" y2="462.382060573747"/>
    <line x1="16.1118714323462" y1="258.051211260573" x2="16.5001" y2="258.000100000007"/>
    <line x1="16.5001" y1="258.000100000007" x2="16.8883285676539" y2="258.051211260573"/>
    <line x1="16.8883285676539" y1="258.051211260573" x2="17.2501" y2="258.20106189433"/>
    <line x1="17.2501" y1="258.20106189433" x2="17.5607601717799" y2="258.439439828227"/>
    <line x1="17.5607601717799" y1="258.439439828227" x2="17.7991381056767" y2="258.750100000007"/>
    <line x1="17.7991381056767" y1="258.750100000007" x2="17.9489887394336" y2="259.111871432353"/>
    <line x1="17.9489887394336" y1="259.111871432353" x2="18.0001000000001" y2="259.500100000007"/>
    <line x1="18.0001000000001" y1="259.500100000007" x2="17.9489887394336" y2="259.888328567661"/>
    <line x1="17.9489887394336" y1="259.888328567661" x2="17.7991381056766" y2="260.250100000007"/>
    <line x1="17.7991381056766" y1="260.250100000007" x2="17.5607601717799" y2="260.560760171787"/>
    <line x1="17.5607601717799" y1="260.560760171787" x2="17.2501" y2="260.799138105683"/>
    <line x1="17.2501" y1="260.799138105683" x2="16.8883285676538" y2="260.94898873944"/>
    <line x1="16.8883285676538" y1="260.94898873944" x2="16.5001" y2="261.000100000007"/>
    <line x1="16.5001" y1="261.000100000007" x2="16.1118714323462" y2="260.94898873944"/>
    <line x1="16.1118714323462" y1="260.94898873944" x2="15.7501" y2="260.799138105683"/>
    <line x1="15.7501" y1="260.799138105683" x2="15.4394398282201" y2="260.560760171787"/>
    <line x1="15.4394398282201" y1="260.560760171787" x2="15.2010618943233" y2="260.250100000007"/>
    <line x1="15.2010618943233" y1="260.250100000007" x2="15.0512112605664" y2="259.888328567661"/>
    <line x1="15.0512112605664" y1="259.888328567661" x2="15.0000999999999" y2="259.500100000007"/>
    <line x1="15.0000999999999" y1="259.500100000007" x2="15.0512112605665" y2="259.111871432353"/>
    <line x1="15.0512112605665" y1="259.111871432353" x2="15.2010618943234" y2="258.750100000007"/>
    <line x1="15.2010618943234" y1="258.750100000007" x2="15.4394398282201" y2="258.439439828227"/>
    <line x1="15.4394398282201" y1="258.439439828227" x2="15.7501" y2="258.20106189433"/>
    <line x1="15.7501" y1="258.20106189433" x2="16.1118714323462" y2="258.051211260573"/>
    <line x1="11.9489887394335" y1="251.111871432353" x2="12.0001" y2="251.500100000007"/>
    <line x1="12.0001" y1="251.500100000007" x2="11.9489887394335" y2="251.888328567661"/>
    <line x1="11.9489887394335" y1="251.888328567661" x2="11.7991381056767" y2="252.250100000007"/>
    <line x1="11.7991381056767" y1="252.250100000007" x2="11.5607601717798" y2="252.560760171787"/>
    <line x1="11.5607601717798" y1="252.560760171787" x2="11.2501" y2="252.799138105684"/>
    <line x1="11.2501" y1="252.799138105684" x2="10.8883285676538" y2="252.94898873944"/>
    <line x1="10.8883285676538" y1="252.94898873944" x2="10.5001000000001" y2="253.000100000007"/>
    <line x1="10.5001000000001" y1="253.000100000007" x2="10.1118714323462" y2="252.94898873944"/>
    <line x1="10.1118714323462" y1="252.94898873944" x2="9.7501" y2="252.799138105684"/>
    <line x1="9.7501" y1="252.799138105684" x2="9.43943982822011" y2="252.560760171787"/>
    <line x1="9.43943982822011" y1="252.560760171787" x2="9.20106189432343" y2="252.250100000007"/>
    <line x1="9.20106189432343" y1="252.250100000007" x2="9.05121126056647" y2="251.888328567661"/>
    <line x1="9.05121126056647" y1="251.888328567661" x2="9.0001" y2="251.500100000007"/>
    <line x1="9.0001" y1="251.500100000007" x2="9.05121126056636" y2="251.111871432353"/>
    <line x1="9.05121126056636" y1="251.111871432353" x2="9.20106189432343" y2="250.750100000007"/>
    <line x1="9.20106189432343" y1="250.750100000007" x2="9.43943982822011" y2="250.439439828227"/>
    <line x1="9.43943982822011" y1="250.439439828227" x2="9.7501" y2="250.20106189433"/>
    <line x1="9.7501" y1="250.20106189433" x2="10.1118714323462" y2="250.051211260573"/>
    <line x1="10.1118714323462" y1="250.051211260573" x2="10.5001" y2="250.000100000007"/>
    <line x1="10.5001" y1="250.000100000007" x2="10.8883285676538" y2="250.051211260573"/>
    <line x1="10.8883285676538" y1="250.051211260573" x2="11.2501000000001" y2="250.20106189433"/>
    <line x1="11.2501000000001" y1="250.20106189433" x2="11.5607601717799" y2="250.439439828227"/>
    <line x1="11.5607601717799" y1="250.439439828227" x2="11.7991381056767" y2="250.750100000007"/>
    <line x1="11.7991381056767" y1="250.750100000007" x2="11.9489887394335" y2="251.111871432353"/>
    <line x1="11.9489887394336" y1="245.111871432353" x2="12.0001000000001" y2="245.500100000007"/>
    <line x1="12.0001000000001" y1="245.500100000007" x2="11.9489887394336" y2="245.888328567661"/>
    <line x1="11.9489887394336" y1="245.888328567661" x2="11.7991381056767" y2="246.250100000007"/>
    <line x1="11.7991381056767" y1="246.250100000007" x2="11.5607601717799" y2="246.560760171787"/>
    <line x1="11.5607601717799" y1="246.560760171787" x2="11.2501000000001" y2="246.799138105683"/>
    <line x1="11.2501000000001" y1="246.799138105683" x2="10.8883285676538" y2="246.94898873944"/>
    <line x1="10.8883285676538" y1="246.94898873944" x2="10.5001" y2="247.000100000007"/>
    <line x1="10.5001" y1="247.000100000007" x2="10.1118714323462" y2="246.94898873944"/>
    <line x1="10.1118714323462" y1="246.94898873944" x2="9.7501" y2="246.799138105683"/>
    <line x1="9.7501" y1="246.799138105683" x2="9.43943982822011" y2="246.560760171787"/>
    <line x1="9.43943982822011" y1="246.560760171787" x2="9.20106189432343" y2="246.250100000007"/>
    <line x1="9.20106189432343" y1="246.250100000007" x2="9.05121126056647" y2="245.888328567661"/>
    <line x1="9.05121126056647" y1="245.888328567661" x2="9.0001" y2="245.500100000007"/>
    <line x1="9.0001" y1="245.500100000007" x2="9.05121126056636" y2="245.111871432353"/>
    <line x1="9.05121126056636" y1="245.111871432353" x2="9.20106189432343" y2="244.750100000007"/>
    <line x1="9.20106189432343" y1="244.750100000007" x2="9.43943982822011" y2="244.439439828227"/>
    <line x1="9.43943982822011" y1="244.439439828227" x2="9.7501" y2="244.20106189433"/>
    <line x1="9.7501" y1="244.20106189433" x2="10.1118714323462" y2="244.051211260573"/>
    <line x1="10.1118714323462" y1="244.051211260573" x2="10.5001000000001" y2="244.000100000007"/>
    <line x1="10.5001000000001" y1="244.000100000007" x2="10.8883285676538" y2="244.051211260573"/>
    <line x1="10.8883285676538" y1="244.051211260573" x2="11.2501" y2="244.20106189433"/>
    <line x1="11.2501" y1="244.20106189433" x2="11.5607601717799" y2="244.439439828227"/>
    <line x1="11.5607601717799" y1="244.439439828227" x2="11.7991381056767" y2="244.750100000007"/>
    <line x1="11.7991381056767" y1="244.750100000007" x2="11.9489887394336" y2="245.111871432353"/>
    <line x1="16.888328567654" y1="238.882060573747" x2="16.5001000000001" y2="238.933171834314"/>
    <line x1="16.5001000000001" y1="238.933171834314" x2="16.1118714323464" y2="238.882060573747"/>
    <line x1="16.1118714323464" y1="238.882060573747" x2="15.7501000000001" y2="238.73220993999"/>
    <line x1="15.7501000000001" y1="238.73220993999" x2="15.4394398282203" y2="238.493832006093"/>
    <line x1="15.4394398282203" y1="238.493832006093" x2="15.2010618943234" y2="238.183171834314"/>
    <line x1="15.2010618943234" y1="238.183171834314" x2="15.0512112605666" y2="237.821400401967"/>
    <line x1="15.0512112605666" y1="237.821400401967" x2="15.0001000000001" y2="237.433171834314"/>
    <line x1="15.0001000000001" y1="237.433171834314" x2="15.0512112605666" y2="237.04494326666"/>
    <line x1="15.0512112605666" y1="237.04494326666" x2="15.2010618943234" y2="236.683171834314"/>
    <line x1="15.2010618943234" y1="236.683171834314" x2="15.4394398282203" y2="236.372511662534"/>
    <line x1="15.4394398282203" y1="236.372511662534" x2="15.7501000000001" y2="236.134133728637"/>
    <line x1="15.7501000000001" y1="236.134133728637" x2="16.1118714323464" y2="235.98428309488"/>
    <line x1="16.1118714323464" y1="235.98428309488" x2="16.5001000000001" y2="235.933171834314"/>
    <line x1="16.5001000000001" y1="235.933171834314" x2="16.8883285676539" y2="235.98428309488"/>
    <line x1="16.8883285676539" y1="235.98428309488" x2="17.2501000000001" y2="236.134133728637"/>
    <line x1="17.2501000000001" y1="236.134133728637" x2="17.5607601717799" y2="236.372511662534"/>
    <line x1="17.5607601717799" y1="236.372511662534" x2="17.7991381056768" y2="236.683171834314"/>
    <line x1="17.7991381056768" y1="236.683171834314" x2="17.9489887394338" y2="237.04494326666"/>
    <line x1="17.9489887394338" y1="237.04494326666" x2="18.0001000000001" y2="237.433171834314"/>
    <line x1="18.0001000000001" y1="237.433171834314" x2="17.9489887394338" y2="237.821400401967"/>
    <line x1="17.9489887394338" y1="237.821400401967" x2="17.7991381056768" y2="238.183171834314"/>
    <line x1="17.7991381056768" y1="238.183171834314" x2="17.5607601717799" y2="238.493832006093"/>
    <line x1="17.5607601717799" y1="238.493832006093" x2="17.2501000000001" y2="238.73220993999"/>
    <line x1="17.2501000000001" y1="238.73220993999" x2="16.888328567654" y2="238.882060573747"/>
    <line x1="16.8883285676539" y1="18.3820605737472" x2="16.5001000000001" y2="18.4331718343136"/>
    <line x1="16.5001000000001" y1="18.4331718343136" x2="16.1118714323464" y2="18.3820605737472"/>
    <line x1="16.1118714323464" y1="18.3820605737472" x2="15.7501000000001" y2="18.2322099399902"/>
    <line x1="15.7501000000001" y1="18.2322099399902" x2="15.4394398282202" y2="17.9938320060934"/>
    <line x1="15.4394398282202" y1="17.9938320060934" x2="15.2010618943234" y2="17.6831718343136"/>
    <line x1="15.2010618943234" y1="17.6831718343136" x2="15.0512112605666" y2="17.3214004019673"/>
    <line x1="15.0512112605666" y1="17.3214004019673" x2="15.0001000000001" y2="16.9331718343136"/>
    <line x1="15.0001000000001" y1="16.9331718343136" x2="15.0512112605666" y2="16.5449432666598"/>
    <line x1="15.0512112605666" y1="16.5449432666598" x2="15.2010618943234" y2="16.1831718343136"/>
    <line x1="15.2010618943234" y1="16.1831718343136" x2="15.4394398282203" y2="15.8725116625337"/>
    <line x1="15.4394398282203" y1="15.8725116625337" x2="15.7501000000001" y2="15.634133728637"/>
    <line x1="15.7501000000001" y1="15.634133728637" x2="16.1118714323464" y2="15.48428309488"/>
    <line x1="16.1118714323464" y1="15.48428309488" x2="16.5001000000001" y2="15.4331718343136"/>
    <line x1="16.5001000000001" y1="15.4331718343136" x2="16.8883285676539" y2="15.48428309488"/>
    <line x1="16.8883285676539" y1="15.48428309488" x2="17.2501000000001" y2="15.6341337286369"/>
    <line x1="17.2501000000001" y1="15.6341337286369" x2="17.5607601717799" y2="15.8725116625337"/>
    <line x1="17.5607601717799" y1="15.8725116625337" x2="17.7991381056768" y2="16.1831718343136"/>
    <line x1="17.7991381056768" y1="16.1831718343136" x2="17.9489887394338" y2="16.5449432666598"/>
    <line x1="17.9489887394338" y1="16.5449432666598" x2="18.0001000000001" y2="16.9331718343136"/>
    <line x1="18.0001000000001" y1="16.9331718343136" x2="17.9489887394338" y2="17.3214004019673"/>
    <line x1="17.9489887394338" y1="17.3214004019673" x2="17.7991381056768" y2="17.6831718343136"/>
    <line x1="17.7991381056768" y1="17.6831718343136" x2="17.5607601717799" y2="17.9938320060934"/>
    <line x1="17.5607601717799" y1="17.9938320060934" x2="17.2501000000001" y2="18.2322099399902"/>
    <line x1="17.2501000000001" y1="18.2322099399902" x2="16.8883285676539" y2="18.3820605737472"/>
    <line x1="11.9489887394335" y1="24.611871432353" x2="12.0001" y2="25.0001000000067"/>
    <line x1="12.0001" y1="25.0001000000067" x2="11.9489887394335" y2="25.3883285676605"/>
    <line x1="11.9489887394335" y1="25.3883285676605" x2="11.7991381056767" y2="25.7501000000068"/>
    <line x1="11.7991381056767" y1="25.7501000000068" x2="11.5607601717799" y2="26.0607601717866"/>
    <line x1="11.5607601717799" y1="26.0607601717866" x2="11.2501" y2="26.2991381056834"/>
    <line x1="11.2501" y1="26.2991381056834" x2="10.8883285676538" y2="26.4489887394403"/>
    <line x1="10.8883285676538" y1="26.4489887394403" x2="10.5001" y2="26.5001000000068"/>
    <line x1="10.5001" y1="26.5001000000068" x2="10.1118714323462" y2="26.4489887394403"/>
    <line x1="10.1118714323462" y1="26.4489887394403" x2="9.7501" y2="26.2991381056834"/>
    <line x1="9.7501" y1="26.2991381056834" x2="9.43943982822011" y2="26.0607601717866"/>
    <line x1="9.43943982822011" y1="26.0607601717866" x2="9.20106189432343" y2="25.7501000000068"/>
    <line x1="9.20106189432343" y1="25.7501000000068" x2="9.05121126056636" y2="25.3883285676605"/>
    <line x1="9.05121126056636" y1="25.3883285676605" x2="9.0001" y2="25.0001000000067"/>
    <line x1="9.0001" y1="25.0001000000067" x2="9.05121126056636" y2="24.611871432353"/>
    <line x1="9.05121126056636" y1="24.611871432353" x2="9.20106189432331" y2="24.2501000000068"/>
    <line x1="9.20106189432331" y1="24.2501000000068" x2="9.43943982822011" y2="23.9394398282269"/>
    <line x1="9.43943982822011" y1="23.9394398282269" x2="9.7501" y2="23.7010618943302"/>
    <line x1="9.7501" y1="23.7010618943302" x2="10.1118714323462" y2="23.5512112605732"/>
    <line x1="10.1118714323462" y1="23.5512112605732" x2="10.5001" y2="23.5001000000068"/>
    <line x1="10.5001" y1="23.5001000000068" x2="10.8883285676538" y2="23.5512112605732"/>
    <line x1="10.8883285676538" y1="23.5512112605732" x2="11.2501" y2="23.7010618943302"/>
    <line x1="11.2501" y1="23.7010618943302" x2="11.5607601717799" y2="23.9394398282269"/>
    <line x1="11.5607601717799" y1="23.9394398282269" x2="11.7991381056767" y2="24.2501000000068"/>
    <line x1="11.7991381056767" y1="24.2501000000068" x2="11.9489887394335" y2="24.611871432353"/>
    <line x1="11.9489887394335" y1="30.6118714323531" x2="12.0001" y2="31.0001000000068"/>
    <line x1="12.0001" y1="31.0001000000068" x2="11.9489887394335" y2="31.3883285676606"/>
    <line x1="11.9489887394335" y1="31.3883285676606" x2="11.7991381056767" y2="31.7501000000068"/>
    <line x1="11.7991381056767" y1="31.7501000000068" x2="11.5607601717799" y2="32.0607601717867"/>
    <line x1="11.5607601717799" y1="32.0607601717867" x2="11.2501" y2="32.2991381056835"/>
    <line x1="11.2501" y1="32.2991381056835" x2="10.8883285676538" y2="32.4489887394404"/>
    <line x1="10.8883285676538" y1="32.4489887394404" x2="10.5001" y2="32.5001000000069"/>
    <line x1="10.5001" y1="32.5001000000069" x2="10.1118714323462" y2="32.4489887394404"/>
    <line x1="10.1118714323462" y1="32.4489887394404" x2="9.7501" y2="32.2991381056835"/>
    <line x1="9.7501" y1="32.2991381056835" x2="9.43943982822011" y2="32.0607601717867"/>
    <line x1="9.43943982822011" y1="32.0607601717867" x2="9.20106189432343" y2="31.7501000000068"/>
    <line x1="9.20106189432343" y1="31.7501000000068" x2="9.05121126056636" y2="31.3883285676606"/>
    <line x1="9.05121126056636" y1="31.3883285676606" x2="9.0001" y2="31.0001000000068"/>
    <line x1="9.0001" y1="31.0001000000068" x2="9.05121126056636" y2="30.6118714323531"/>
    <line x1="9.05121126056636" y1="30.6118714323531" x2="9.20106189432343" y2="30.2501000000069"/>
    <line x1="9.20106189432343" y1="30.2501000000069" x2="9.43943982822011" y2="29.939439828227"/>
    <line x1="9.43943982822011" y1="29.939439828227" x2="9.7501" y2="29.7010618943302"/>
    <line x1="9.7501" y1="29.7010618943302" x2="10.1118714323462" y2="29.5512112605732"/>
    <line x1="10.1118714323462" y1="29.5512112605732" x2="10.5001" y2="29.5001000000069"/>
    <line x1="10.5001" y1="29.5001000000069" x2="10.8883285676538" y2="29.5512112605732"/>
    <line x1="10.8883285676538" y1="29.5512112605732" x2="11.2501" y2="29.7010618943302"/>
    <line x1="11.2501" y1="29.7010618943302" x2="11.5607601717799" y2="29.939439828227"/>
    <line x1="11.5607601717799" y1="29.939439828227" x2="11.7991381056767" y2="30.2501000000069"/>
    <line x1="11.7991381056767" y1="30.2501000000069" x2="11.9489887394335" y2="30.6118714323531"/>
    <line x1="16.1118714323462" y1="37.5512112605732" x2="16.5001" y2="37.5001000000068"/>
    <line x1="16.5001" y1="37.5001000000068" x2="16.8883285676538" y2="37.5512112605732"/>
    <line x1="16.8883285676538" y1="37.5512112605732" x2="17.2501" y2="37.7010618943302"/>
    <line x1="17.2501" y1="37.7010618943302" x2="17.5607601717799" y2="37.939439828227"/>
    <line x1="17.5607601717799" y1="37.939439828227" x2="17.7991381056766" y2="38.2501000000068"/>
    <line x1="17.7991381056766" y1="38.2501000000068" x2="17.9489887394335" y2="38.611871432353"/>
    <line x1="17.9489887394335" y1="38.611871432353" x2="18.0001" y2="39.0001000000068"/>
    <line x1="18.0001" y1="39.0001000000068" x2="17.9489887394335" y2="39.3883285676606"/>
    <line x1="17.9489887394335" y1="39.3883285676606" x2="17.7991381056766" y2="39.7501000000068"/>
    <line x1="17.7991381056766" y1="39.7501000000068" x2="17.5607601717799" y2="40.0607601717866"/>
    <line x1="17.5607601717799" y1="40.0607601717866" x2="17.2501" y2="40.2991381056835"/>
    <line x1="17.2501" y1="40.2991381056835" x2="16.8883285676538" y2="40.4489887394404"/>
    <line x1="16.8883285676538" y1="40.4489887394404" x2="16.5001" y2="40.5001000000068"/>
    <line x1="16.5001" y1="40.5001000000068" x2="16.1118714323462" y2="40.4489887394404"/>
    <line x1="16.1118714323462" y1="40.4489887394404" x2="15.7501" y2="40.2991381056835"/>
    <line x1="15.7501" y1="40.2991381056835" x2="15.4394398282201" y2="40.0607601717866"/>
    <line x1="15.4394398282201" y1="40.0607601717866" x2="15.2010618943234" y2="39.7501000000068"/>
    <line x1="15.2010618943234" y1="39.7501000000068" x2="15.0512112605664" y2="39.3883285676606"/>
    <line x1="15.0512112605664" y1="39.3883285676606" x2="15.0001" y2="39.0001000000068"/>
    <line x1="15.0001" y1="39.0001000000068" x2="15.0512112605664" y2="38.611871432353"/>
    <line x1="15.0512112605664" y1="38.611871432353" x2="15.2010618943234" y2="38.2501000000068"/>
    <line x1="15.2010618943234" y1="38.2501000000068" x2="15.4394398282201" y2="37.939439828227"/>
    <line x1="15.4394398282201" y1="37.939439828227" x2="15.7501" y2="37.7010618943302"/>
    <line x1="15.7501" y1="37.7010618943302" x2="16.1118714323462" y2="37.5512112605732"/>
    <line x1="18.0001" y1="491.500100000007" x2="15.0001" y2="491.500100000007"/>
    <line x1="15.0001" y1="491.500100000007" x2="15.0001" y2="486.500100000007"/>
    <line x1="15.0001" y1="486.500100000007" x2="18.0001000000001" y2="486.500100000007"/>
    <line x1="18.0001000000001" y1="486.500100000007" x2="18.0001" y2="491.500100000007"/>
    <line x1="25.0001" y1="473.500100000007" x2="25.0001000000001" y2="476.500100000007"/>
    <line x1="25.0001000000001" y1="476.500100000007" x2="20.0001000000001" y2="476.500100000007"/>
    <line x1="20.0001000000001" y1="476.500100000007" x2="20.0001" y2="473.500100000007"/>
    <line x1="20.0001" y1="473.500100000007" x2="25.0001" y2="473.500100000007"/>
    <line x1="20.0001000000001" y1="470.500100000007" x2="20.0001" y2="467.500100000007"/>
    <line x1="20.0001" y1="467.500100000007" x2="25.0001" y2="467.500100000007"/>
    <line x1="25.0001" y1="467.500100000007" x2="25.0001" y2="470.500100000007"/>
    <line x1="25.0001" y1="470.500100000007" x2="20.0001000000001" y2="470.500100000007"/>
    <line x1="18.0001000000001" y1="457.500100000007" x2="15.0001000000002" y2="457.500100000007"/>
    <line x1="15.0001000000002" y1="457.500100000007" x2="15.0001000000002" y2="452.500100000007"/>
    <line x1="15.0001000000002" y1="452.500100000007" x2="18.0001000000002" y2="452.500100000007"/>
    <line x1="18.0001000000002" y1="452.500100000007" x2="18.0001000000001" y2="457.500100000007"/>
    <line x1="15.0001" y1="263.000100000007" x2="18.0001" y2="263.000100000007"/>
    <line x1="18.0001" y1="263.000100000007" x2="18.0001" y2="268.000100000007"/>
    <line x1="18.0001" y1="268.000100000007" x2="15.0001" y2="268.000100000007"/>
    <line x1="15.0001" y1="268.000100000007" x2="15.0001" y2="263.000100000007"/>
    <line x1="25.0001" y1="253.000100000007" x2="20.0001000000001" y2="253.000100000007"/>
    <line x1="20.0001000000001" y1="253.000100000007" x2="20.0001" y2="250.000100000007"/>
    <line x1="20.0001" y1="250.000100000007" x2="25.0001" y2="250.000100000007"/>
    <line x1="25.0001" y1="250.000100000007" x2="25.0001" y2="253.000100000007"/>
    <line x1="25.0001" y1="247.000100000007" x2="20.0001000000001" y2="247.000100000007"/>
    <line x1="20.0001000000001" y1="247.000100000007" x2="20.0001" y2="244.000100000007"/>
    <line x1="20.0001" y1="244.000100000007" x2="25.0001" y2="244.000100000007"/>
    <line x1="25.0001" y1="244.000100000007" x2="25.0001" y2="247.000100000007"/>
    <line x1="18.0001000000001" y1="229.000100000007" x2="18.0001000000001" y2="234.000100000007"/>
    <line x1="18.0001000000001" y1="234.000100000007" x2="15.0001000000001" y2="234.000100000007"/>
    <line x1="15.0001000000001" y1="234.000100000007" x2="15.0001000000001" y2="229.000100000007"/>
    <line x1="15.0001000000001" y1="229.000100000007" x2="18.0001000000001" y2="229.000100000007"/>
    <line x1="15.0001" y1="42.5001000000068" x2="18.0001" y2="42.5001000000068"/>
    <line x1="18.0001" y1="42.5001000000068" x2="18.0001" y2="47.5001000000069"/>
    <line x1="18.0001" y1="47.5001000000069" x2="15.0001" y2="47.5001000000069"/>
    <line x1="15.0001" y1="47.5001000000069" x2="15.0001" y2="42.5001000000068"/>
    <line x1="20.0001" y1="29.5001000000068" x2="25.0001" y2="29.5001000000068"/>
    <line x1="25.0001" y1="29.5001000000068" x2="25.0001" y2="32.5001000000069"/>
    <line x1="25.0001" y1="32.5001000000069" x2="20.0001" y2="32.5001000000069"/>
    <line x1="20.0001" y1="32.5001000000069" x2="20.0001" y2="29.5001000000068"/>
    <line x1="25.0001" y1="26.5001000000068" x2="20.0001" y2="26.5001000000068"/>
    <line x1="20.0001" y1="26.5001000000068" x2="20.0001" y2="23.5001000000067"/>
    <line x1="20.0001" y1="23.5001000000067" x2="25.0001" y2="23.5001000000067"/>
    <line x1="25.0001" y1="23.5001000000067" x2="25.0001" y2="26.5001000000068"/>
    <line x1="15.0001000000001" y1="13.5001000000067" x2="15.0001000000001" y2="8.50010000000671"/>
    <line x1="15.0001000000001" y1="8.50010000000671" x2="18.0001000000001" y2="8.50010000000671"/>
    <line x1="18.0001000000001" y1="8.50010000000671" x2="18.0001000000001" y2="13.5001000000067"/>
    <line x1="18.0001000000001" y1="13.5001000000067" x2="15.0001000000001" y2="13.5001000000067"/>
  </g>
</svg>
