<?xml version="1.0" standalone="no"?>
<!DOCTYPE svg PUBLIC "-//W3C//DTD SVG 1.1//EN" "http://www.w3.org/Graphics/SVG/1.1/DTD/svg11.dtd" >
<svg xmlns="http://www.w3.org/2000/svg">
<metadata>
This is a custom SVG font generated by IcoMoon.
<iconset grid="32"></iconset>
</metadata>
<defs>
<font id="icomoon" horiz-adv-x="1024" >
<font-face units-per-em="1024" ascent="960" descent="-64" />
<missing-glyph horiz-adv-x="1024" />
<glyph unicode="&#x21;" d="M 651.216,429.636L 1024.00,172.528L 1024.00,764.422 	zM0.00,764.422L0.00,172.528L 372.776,429.672 	zM 512.00,304.618L 422.998,384.528L0.00,128.00L 1024.00,128.00L 600.99,384.528 	zM 993.28,768.00L 30.72,768.00L 512.00,406.148 	z"  />
<glyph unicode="&#x26;" d="M 928.00,640.00L 704.00,640.00 L 704.00,768.00 c0.00,35.20-28.80,64.00-64.00,64.00L 384.00,832.00 c-35.204,0.00-64.00-28.80-64.00-64.00l0.00-128.00 L 96.00,640.00 c-52.80,0.00-96.00-43.20-96.00-96.00l0.00-448.00 c0.00-52.80, 43.20-96.00, 96.00-96.00
	l 832.00,0.00 c 52.796,0.00, 96.00,43.20, 96.00,96.00L 1024.00,544.00 C 1024.00,596.80, 980.802,640.00, 928.00,640.00z M 384.00,767.886c 0.032,0.04, 0.074,0.082, 0.116,0.114l 255.774,0.00 
	c 0.042-0.036, 0.08-0.076, 0.116-0.114L 640.006,640.00 L 384.00,640.00 L 384.00,767.886 z"  />
<glyph unicode="&#x2a;" d="M 575.87-64.00L 384.00-64.00 L 384.00,448.00 l-128.00,0.00 l0.00,176.45 l 128.00,0.058l-0.208,103.952C 383.792,872.412, 422.826,960.00, 592.39,960.00l 141.176,0.00 l0.00-176.484 l-88.23,0.00 
	c-66.032,0.00-69.206-24.656-69.206-70.684l-0.262-88.324l 158.69,0.00 l-18.704-176.45L 576.00,448.00L 575.87-64.00z"  />
<glyph unicode="&#x2b;" d="M 559.066,896.00c0.00,0.00-200.956,0.00-267.94,0.00C 171.006,896.00, 57.956,804.994, 57.956,699.578c0.00-107.726, 81.882-194.666, 204.088-194.666
		c 8.498,0.00, 16.756,0.17, 24.842,0.752c-7.93-15.186-13.602-32.288-13.602-50.042c0.00-29.938, 16.104-54.21, 36.468-74.024
		c-15.386,0.00-30.242-0.448-46.452-0.448C 114.518,381.152,0.00,286.392,0.00,188.13c0.00-96.778, 125.542-157.314, 274.334-157.314
		c 169.624,0.00, 263.306,96.244, 263.306,193.028c0.00,77.60-22.896,124.072-93.686,174.134c-24.216,17.144-70.53,58.836-70.53,83.344
		c0.00,28.72, 8.196,42.868, 51.428,76.646c 44.312,34.624, 75.672,83.302, 75.672,139.916c0.00,67.406-30.02,133.098-86.372,154.772l 84.954,0.00 
		L 559.066,896.00z M 465.48,240.542c 2.126-8.972, 3.284-18.206, 3.284-27.628c0.00-78.20-50.392-139.31-194.974-139.31
		c-102.842,0.00-177.116,65.104-177.116,143.30c0.00,76.642, 92.126,140.444, 194.964,139.332c 24.00-0.254, 46.368-4.116, 66.67-10.69
		C 414.134,306.72, 454.184,284.784, 465.48,240.542z M 300.818,532.224c-69.038,2.064-134.636,77.226-146.552,167.86
		c-11.916,90.666, 34.37,160.042, 103.388,157.99c 69.01-2.074, 134.638-74.814, 146.558-165.458
		C 416.118,601.956, 369.822,530.158, 300.818,532.224zM 832.00,704.00L 832.00,896.00L 768.00,896.00L 768.00,704.00L 576.00,704.00L 576.00,640.00L 768.00,640.00L 768.00,448.00L 832.00,448.00L 832.00,640.00L 1024.00,640.00L 1024.00,704.00 	z"  />
<glyph unicode="&#x2c;" d="M 1024.00,765.582c-37.676-16.708-78.164-28.002-120.66-33.08c 43.372,26.00, 76.686,67.17, 92.372,116.23
	c-40.596-24.078-85.556-41.56-133.41-50.98c-38.32,40.83-92.922,66.34-153.346,66.34c-116.022,0.00-210.088-94.058-210.088-210.078
	c0.00-16.466, 1.858-32.50, 5.44-47.878c-174.60,8.764-329.402,92.40-433.018,219.506c-18.084-31.028-28.446-67.116-28.446-105.618
	c0.00-72.888, 37.088-137.192, 93.46-174.866c-34.438,1.092-66.832,10.542-95.154,26.278c-0.02-0.876-0.02-1.756-0.02-2.642
	c0.00-101.788, 72.418-186.696, 168.522-206.00c-17.626-4.80-36.188-7.372-55.348-7.372c-13.538,0.00-26.698,1.32-39.528,3.772
	c 26.736-83.46, 104.32-144.206, 196.252-145.896c-71.90-56.35-162.486-89.934-260.916-89.934c-16.958,0.00-33.68,0.994-50.116,2.94
	c 92.972-59.61, 203.402-94.394, 322.042-94.394c 386.422,0.00, 597.736,320.124, 597.736,597.744c0.00,9.108-0.206,18.168-0.61,27.18
	C 960.22,686.454, 995.836,723.454, 1024.00,765.582z"  />
<glyph unicode="&#x2d;" d="M0.00,651.63l 41.594-54.544c0.00,0.00, 85.77,67.608, 114.36,33.802c 28.588-33.802, 137.736-441.956, 174.17-517.246
	c 31.80-66.03, 119.518-153.32, 215.714-90.982c 96.136,62.34, 415.84,335.286, 473.066,657.616
	c 57.18,322.226-384.72,254.726-431.53-26.01c 116.99,70.236, 179.436-28.538, 119.57-140.372
	c-59.758-111.724-114.36-184.592-142.952-184.592c-28.538,0.00-50.49,74.768-83.188,205.446c-33.798,135.102-33.592,378.46-174.116,350.87
	C 174.17,859.606,0.00,651.63,0.00,651.63z"  />
<glyph unicode="&#x2e;" d="M 832.00,832.00L 192.00,832.00 c-105.60,0.00-192.00-86.40-192.00-192.00l0.00-384.00 c0.00-105.60, 86.40-192.00, 192.00-192.00l 640.00,0.00 c 105.60,0.00, 192.00,86.40, 192.00,192.00L 1024.00,640.00 C 1024.00,745.60, 937.60,832.00, 832.00,832.00z
		 M 960.00,256.00c0.00-33.978-13.374-66.062-37.654-90.346C 898.062,141.374, 865.98,128.00, 832.00,128.00L 192.00,128.00 c-33.978,0.00-66.062,13.374-90.344,37.654
		C 77.374,189.938, 64.00,222.022, 64.00,256.00L 64.00,640.00 c0.00,33.978, 13.374,66.062, 37.656,90.344S 158.022,768.00, 192.00,768.00l 640.00,0.00 
		c 33.978,0.00, 66.062-13.374, 90.346-37.656C 946.628,706.062, 960.00,673.978, 960.00,640.00L 960.00,256.00 zM 384.00,192.00L 704.00,448.00L 384.00,704.00 	z"  />
<glyph unicode="&#x2f;" d="M0.00,448.00A224.00,224.00 10260.00 1 1 448.00,448A224.00,224.00 10260.00 1 1 0.00,448zM 576.00,448.00A224.00,224.00 10260.00 1 1 1024.00,448A224.00,224.00 10260.00 1 1 576.00,448z"  />
<glyph unicode="&#x30;" d="M 723.02,914.09C 656.11,944.352, 585.294,960.00, 511.922,960.00c-61.042,0.00-121.054-11.73-178.762-33.558l 389.86-353.68L 723.02,914.09 zM 248.444,10.728L 248.444,450.882 L 36.936,258.598C 77.926,155.868, 152.818,68.57, 248.444,10.728zM 278.624,903.18C 106.724,814.864, 0.002,641.106, 0.002,448.00c0.00-44.058, 6.626-88.736, 18.588-132.998l 453.82,412.362L 278.624,903.18zM 302.218-18.71C 368.772-48.77, 439.224-64.00, 511.922-64.00c 195.248,0.00, 374.56,113.634, 459.79,289.454L 302.218,225.454 L 302.218-18.71 zM 776.958,884.65l0.00-605.26 l 217.808,0.00 c 19.14,54.554, 29.234,111.172, 29.234,168.608C 1024.004,625.874, 929.302,792.008, 776.958,884.65z"  />
<glyph unicode="&#x31;" d="M 512.00-64.00C 229.228-64.00,0.00,165.218,0.00,447.98C0.00,730.74, 229.23,960.00, 512.00,960.00c 282.75,0.00, 512.00-229.262, 512.00-512.02S 794.75-64.00, 512.00-64.00z
	 M 931.162,394.274c-100.48,13.188-189.588,14.142-268.99,1.876c 32.87-93.724, 60.376-194.692, 82.036-301.064
	C 844.692,161.35, 915.284,269.218, 931.162,394.274z M 663.562,53.854c-20.282,118.73-48.19,225.44-84.122,323.906
	c-134.458-40.354-239.00-126.678-326.748-263.002c 71.632-55.83, 161.448-89.358, 259.282-89.358
	C 565.48,25.40, 616.442,35.716, 663.562,53.854z M 89.374,447.98c0.00-104.544, 38.182-200.058, 101.086-273.864
	c 107.278,157.258, 228.018,239.168, 359.87,277.272c-10.862,25.542-22.116,50.754-34.22,75.296
	c-117.762-35.486-257.202-54.082-425.876-61.862C 90.00,459.212, 89.374,453.678, 89.374,447.98z M 98.92,536.922
	c 133.102,5.866, 263.05,20.674, 382.15,56.66c-45.356,81.04-98.61,157.166-159.382,231.382
	C 209.488,768.222, 125.992,663.18, 98.92,536.922z M 511.98,870.60c-37.04,0.00-72.764-5.24-107.01-14.186
	c 58.716-64.646, 112.178-143.274, 159.468-233.46c 82.204,33.946, 157.654,80.664, 223.494,144.688C 713.882,831.622, 617.564,870.60, 511.98,870.60z
	 M 839.102,715.472c-68.966-69.888-147.694-121.93-241.168-160.122c 12.754-27.54, 24.798-56.204, 36.454-85.448
	c 94.876,14.686, 194.856,11.442, 299.216,0.748C 928.686,563.296, 894.276,648.08, 839.102,715.472z"  />
<glyph unicode="&#x32;" d="M 561.856,553.00c-39.042,2.282-84.082-0.048-136.25-8.95l 120.334-216.888L 1024.00,458.428
	c-5.154,12.26-12.686,24.226-22.662,35.798c-49.474,57.278-156.74,108.374-273.604,131.418l 0.002,0.026
	c-114.644,26.874-238.802,25.744-365.96,6.548c-4.584-0.688-9.144-1.422-13.68-2.184l-42.272,78.292
	c-41.142-5.492-79.808-14.05-115.606-25.474l 40.26-84.198c-65.76-25.476-119.722-61.76-158.658-105.432
	C 7.608,420.158-17.77,328.314, 13.074,238.87c 6.204-18.042, 14.588-35.16, 24.936-51.196l 478.068,131.298l-132.75,245.848
	c 4.558,0.88, 9.196,1.768, 13.928,2.624c 214.682,38.298, 332.102-20.864, 396.416-83.83l-163.558-39.648L 561.856,553.00z M 174.722,333.61
	c-14.758,67.352-3.012,142.526, 90.404,192.594l 73.138-152.948L 174.722,333.61z"  />
<glyph unicode="&#x33;" d="M0.00,403.59c0.00,82.79, 27.708,154.394, 83.122,214.816c-3.004,8.012-5.758,17.108-8.262,27.29
	c-2.502,10.182-4.84,24.704-7.01,43.564s-1.334,40.642, 2.504,65.346s 10.932,49.906, 21.28,75.612c 2.002,0.666, 4.758,1.252, 8.262,1.752
	s 11.934,0.084, 25.288-1.252c 13.352-1.336, 27.708-4.256, 43.062-8.764c 15.356-4.506, 35.97-13.186, 61.84-26.038
	s 52.994-28.958, 81.37-48.32c 48.738,13.352, 115.502,20.03, 200.294,20.03c 85.124,0.00, 152.056-6.678, 200.792-20.03
	c 28.376,19.362, 55.332,35.468, 80.87,48.32s 46.402,21.532, 62.592,26.038c 16.19,4.508, 30.378,7.512, 42.562,9.014
	s 20.948,1.752, 26.29,0.752l 7.51-1.502c 10.35-25.706, 17.444-50.908, 21.282-75.612c 3.84-24.704, 4.674-46.484, 2.504-65.346
	s-4.506-33.382-7.01-43.564s-5.258-19.278-8.262-27.29C 996.292,557.984, 1024.00,486.378, 1024.00,403.59c0.00-46.40-4.34-88.378-13.02-125.934
	s-20.78-70.186-36.302-97.892s-35.218-52.078-59.086-73.108c-23.87-21.032-49.74-38.222-77.616-51.576
	c-27.874-13.354-59.67-24.202-95.388-32.546s-72.106-14.188-109.16-17.528c-37.054-3.338-77.948-5.006-122.68-5.006
	c-44.398,0.00-85.124,1.668-122.178,5.006c-37.054,3.34-73.358,9.182-108.91,17.528c-35.552,8.346-67.182,19.194-94.888,32.546
	s-53.412,30.544-77.112,51.576c-23.702,21.03-43.23,45.40-58.586,73.108c-15.356,27.708-27.374,60.338-36.052,97.892
	C 4.34,315.21,0.00,357.19,0.00,403.59z M 125.684,277.906c0.00-28.708, 3.588-54.162, 10.766-76.362c 7.176-22.20, 16.358-40.81, 27.54-55.832
	s 26.706-27.792, 46.568-38.306s 39.224-18.61, 58.084-24.286c 18.862-5.674, 43.064-10.098, 72.606-13.27s 55.916-5.092, 79.116-5.758
	c 23.20-0.668, 52.66-1.002, 88.378-1.002c 35.72,0.00, 65.178,0.334, 88.38,1.002c 23.20,0.666, 49.572,2.586, 79.116,5.758
	s 53.746,7.596, 72.608,13.27c 18.862,5.676, 38.222,13.77, 58.084,24.286c 19.864,10.516, 35.384,23.286, 46.568,38.306
	s 20.364,33.632, 27.542,55.832c 7.176,22.20, 10.766,47.652, 10.766,76.362c0.00,48.738-21.866,92.802-65.596,132.194
	c-13.02,12.02-28.208,21.116-45.566,27.292c-17.36,6.176-36.972,9.68-58.838,10.516c-21.866,0.834-42.812,0.668-62.842-0.502
	c-20.03-1.168-44.732-2.754-74.108-4.756c-29.376-2.004-54.748-3.004-76.112-3.004s-46.736,1.00-76.112,3.004
	c-29.376,2.002-54.08,3.588-74.108,4.756c-20.03,1.17-40.976,1.336-62.842,0.502c-21.866-0.836-41.478-4.34-58.836-10.516
	c-17.358-6.176-32.548-15.272-45.566-27.292C 147.55,370.042, 125.684,325.976, 125.684,277.906z M 271.398,269.394
	c0.00,31.378, 7.51,58.252, 22.534,80.618c 15.022,22.368, 33.214,33.548, 54.58,33.548c 21.364,0.00, 39.474-11.10, 54.33-33.298
	c 14.856-22.198, 22.284-49.154, 22.284-80.868s-7.428-58.67-22.284-80.87s-32.964-33.298-54.33-33.298
	c-21.366,0.00-39.558,11.184-54.58,33.548C 278.908,211.142, 271.398,238.014, 271.398,269.394z M 593.37,269.394
	c0.00,31.378, 7.512,58.252, 22.534,80.618c 15.022,22.368, 33.048,33.548, 54.078,33.548c 21.366,0.00, 39.558-11.182, 54.58-33.548
	c 15.024-22.366, 22.534-49.238, 22.534-80.618c0.00-31.38-7.51-58.252-22.534-80.62c-15.022-22.366-33.214-33.548-54.58-33.548
	c-21.03,0.00-39.056,11.184-54.078,33.548C 600.88,211.142, 593.37,238.014, 593.37,269.394z"  />
<glyph unicode="&#x34;" d="M 833.502-8.21c-43.70-20.554-83.37-35.05-118.828-43.378c-35.50-8.242-73.862-12.406-115.066-12.406
	c-46.826,0.00-74.454,5.886-110.408,17.656c-35.958,11.868-66.66,28.804-92.02,50.54c-25.45,21.922-43.022,45.208-52.848,69.832
	c-9.826,24.636-14.716,60.414-14.716,107.242L 329.616,540.378 L 190.498,540.378 l0.00,145.006 c 40.208,13.042, 86.856,31.788, 115.472,56.152
	c 28.754,24.45, 51.766,53.706, 69.106,87.944c 17.392,34.146, 29.348,77.712, 35.872,130.516l 145.636,0.00 l0.00-236.846 L 793.34,723.15 l0.00-182.774 L 556.58,540.376 l0.00-262.56 
	c0.00-59.418-0.77-93.656, 5.53-110.50c 6.25-16.754, 21.918-34.144, 38.99-44.20c 22.686-13.59, 48.542-20.378, 77.708-20.378
	c 51.854,0.00, 103.432,16.848, 154.696,50.54L 833.504-8.21 L 833.502-8.21z"  />
<glyph unicode="&#x38;" d="M 465.92,396.698L 558.08,396.698 l0.00-102.40 L 1024.00,294.298 c0.00,0.00-7.578,228.25-10.24,299.724c-2.508,67.892-26.778,109.876-102.40,109.876l-164.25,0.00 
	c-25.446,47.974-52.838,99.584-61.236,115.456c-16.948,31.948-22.732,38.144-60.416,38.144L 398.54,857.498 c-37.684,0.00-43.468-6.196-60.416-38.144
	C 329.728,803.482, 302.336,751.872, 276.89,703.898L 112.64,703.898 c-75.622,0.00-99.584-41.984-102.40-109.876S0.00,294.298,0.00,294.298l 465.92,0.00 L 465.92,396.698 z M 391.68,759.45
	c 11.724,22.118, 15.77,26.42, 41.78,26.42l 157.03,0.00 c 26.112,0.00, 30.106-4.30, 41.78-26.42c 4.404-8.294, 16.282-30.72, 29.492-55.50L 362.24,703.948 
	C 375.398,728.678, 387.276,751.104, 391.68,759.45z M 558.08,140.698L 465.92,140.698 l0.00,102.40 L 25.60,243.098 c0.00,0.00, 6.40-92.058, 10.24-170.086c 1.588-32.41, 11.11-85.914, 92.108-85.914
	l 768.102,0.00 c 80.998,0.00, 90.316,53.556, 92.108,85.914c 4.454,80.23, 10.24,170.086, 10.24,170.086l-440.32,0.00 L 558.08,140.698 z"  />
<glyph unicode="&#x39;" d="M 870.40,908.80l-112.64,0.00 C 729.498,908.80, 716.80,885.862, 716.80,857.60l0.00-870.40 l 204.80,0.00 L 921.60,857.60 C 921.60,885.862, 898.714,908.80, 870.40,908.80z M 563.20,601.60L 450.56,601.60 C 422.298,601.60, 409.60,578.662, 409.60,550.40l0.00-563.20 l 204.80,0.00 L 614.40,550.40 
	C 614.40,578.662, 591.514,601.60, 563.20,601.60z M 256.00,294.40L 143.36,294.40 C 115.098,294.40, 102.40,271.514, 102.40,243.20l0.00-256.00 l 204.80,0.00 l0.00,256.00 C 307.20,271.514, 284.262,294.40, 256.00,294.40z"  />
<glyph unicode="&#x3a;" d="M 997.786,837.786l-237.004-386.10c-8.806-14.284-26.01-16.64-38.298-5.172l-114.586,107.316c-12.288,11.468-29.90,9.42-39.22-4.608
	l-160.922-242.688c-9.268-13.978-27.034-16.18-39.476-4.916L 293.376,370.022c-12.442,11.316-31.18,9.83-41.676-3.226l-235.98-294.298
	C 5.172,59.34, 10.342,48.64, 27.084,48.64l 986.676,0.00 L 1013.76,833.28 C 1013.812,850.124, 1006.592,852.172, 997.786,837.786z"  />
<glyph unicode="&#x3d;" d="M 898.40,380.128l0.00-252.672 c0.00-17.664-9.984-31.968-31.936-31.968
	c-5.312,0.00-18.464,11.328-34.624,28.384L 831.84,802.08 c 16.16,17.056, 29.312,28.384, 34.624,28.384c 23.936,0.00, 31.936-14.304, 31.936-31.936l0.00-259.072 
	c 43.296-1.216, 83.616-36.32, 83.616-79.648C 982.016,416.448, 941.696,381.344, 898.40,380.128z M 384.48,318.528c 1.984,0.00,0.00,288.928,0.00,288.928
	c 219.424,0.00, 349.504,96.32, 418.048,162.368L 802.528,156.16 C 733.984,222.176, 603.904,318.528, 384.48,318.528z M 256.672,65.536l-63.904,253.664L 128.832,319.20 
	c0.00,0.00-19.008,43.136-27.648,95.872c-16.288,0.00-30.528,0.00-36.288,0.00c-17.632,0.00-31.936,14.304-31.936,31.968l0.00,31.936 c0.00,17.664, 14.304,31.968, 31.936,31.968
	c 5.76,0.00, 20.00,0.00, 36.288,0.00c 8.672,52.736, 27.648,95.84, 27.648,95.84l 223.68,0.00 l0.00-287.584 L 288.608,319.20 l 8.064-31.936l 31.904,0.00 l 15.968-63.936L 312.736,223.328 l 39.776-157.792
	L 256.672,65.536 z"  />
<glyph unicode="&#xe076;" d="M 389.172,272.998c-13.722-13.876-13.722-36.30,0.00-50.124c 13.67-13.876, 35.892-13.876, 49.612,0.00l 196.096,200.038
	c 13.722,13.876, 13.722,36.30,0.00,50.124l-196.096,200.09c-13.722,13.876-35.892,13.876-49.612,0.00S 375.45,636.876, 389.12,623.052L 549.94,448.00L 389.172,272.998z"  />
<glyph unicode="&#xe073;" d="M 634.828,272.998c 13.722-13.876, 13.722-36.30,0.00-50.124c-13.722-13.876-35.892-13.876-49.612,0.00l-196.096,200.038
	c-13.722,13.876-13.722,36.30,0.00,50.124l 196.096,200.09c 13.722,13.876, 35.892,13.876, 49.612,0.00s 13.722-36.25,0.00-50.124L 474.06,448.00L 634.828,272.998z"  />
<glyph unicode="&#x67;" d="M 141.466,265.626c-77.516-76.186-12.032-154.42-115.046-270.388c-46.49-52.326, 191.386-36.352, 309.248,79.514
	c 49.972,49.10, 35.892,120.73-17.716,173.466C 264.346,300.902, 191.436,314.726, 141.466,265.626z M 1000.50,926.31c-39.782,39.066-480.204-313.856-611.328-442.726
	c-65.076-63.948-86.784-98.252-106.752-123.904c-8.652-11.162, 2.816-14.592, 7.936-17.254c 25.754-13.108, 43.776-25.292, 67.124-48.23
	c 23.348-22.886, 35.788-40.602, 49.10-65.946c 2.662-5.068, 6.196-16.332, 17.51-7.782c 26.112,19.61, 60.98,40.96, 126.004,104.908
	C 681.216,454.246, 1040.18,887.194, 1000.50,926.31z"  />
<glyph unicode="&#x68;" d="M 778.906,568.884c-14.08,0.00-27.956-1.228-41.42-3.482c-33.588,109.824-137.626,189.85-260.916,189.85c-150.426,0.00-272.332-119.194-272.332-266.24
	c0.00-13.108, 1.024-26.01, 2.918-38.656C 199.936,451.174, 192.666,451.738, 185.19,451.738C 82.944,451.738,0.00,370.636,0.00,270.694c0.00-99.994, 82.944-181.044, 185.19-181.044
	l 593.716,0.00 c 135.424,0.00, 245.094,107.316, 245.094,239.616C 1024.00,461.568, 914.278,568.884, 778.906,568.884z M 582.246,348.16c-25.344-36.044-133.888-147.916-138.496-152.628
	c-5.324-6.554-20.02-17.562-33.946-8.50c-3.994,2.612-8.806,7.834-8.806,18.124c0.00,9.882, 4.506,19.968, 5.068,21.094l 52.89,117.044
	c-9.932,3.942-26.982,10.854-40.244,16.64L 415.18,361.472c-13.414,5.632-30.106,12.748-30.106,31.13c0.00,8.756, 4.198,18.996, 12.748,31.18
	c 25.344,36.044, 133.888,147.866, 138.496,152.628c 5.324,6.554, 19.968,17.562, 33.946,8.55c 3.994-2.612, 8.806-7.834, 8.806-18.124
	c0.00-9.882-4.506-19.968-5.068-21.094l-52.89-117.044c 9.932-3.994, 26.982-10.906, 40.244-16.64l 3.482-1.484c 13.414-5.684, 30.106-12.80, 30.106-31.18
	C 594.996,370.534, 590.796,360.346, 582.246,348.16z"  />
<glyph unicode="&#x4f;" d="M 512.00,550.40c-84.788,0.00-153.60-68.812-153.60-153.60c0.00-84.838, 68.812-153.60, 153.60-153.60c 84.838,0.00, 153.60,68.762, 153.60,153.60C 665.60,481.588, 596.838,550.40, 512.00,550.40z M 921.60,704.00l-122.828,0.00 
		c-16.896,0.00-35.124,13.108-40.448,29.132l-31.744,95.284C 721.152,844.492, 702.976,857.60, 686.08,857.60L 337.92,857.60 C 321.024,857.60, 302.796,844.492, 297.524,828.468L 265.676,733.132
		C 260.352,717.108, 242.176,704.00, 225.28,704.00L 102.40,704.00 C 46.08,704.00,0.00,657.92,0.00,601.60l0.00-460.80 c0.00-56.32, 46.08-102.40, 102.40-102.40l 819.20,0.00 c 56.372,0.00, 102.40,46.08, 102.40,102.40L 1024.00,601.60 C 1024.00,657.92, 977.972,704.00, 921.60,704.00z M 512.00,140.80
		c-141.414,0.00-256.00,114.586-256.00,256.00c0.00,141.364, 114.586,256.00, 256.00,256.00c 141.364,0.00, 256.00-114.636, 256.00-256.00C 768.00,255.386, 653.364,140.80, 512.00,140.80z M 885.76,530.022
		c-19.764,0.00-35.788,16.026-35.788,35.84s 16.026,35.84, 35.788,35.84c 19.814,0.00, 35.84-16.026, 35.84-35.84S 905.574,530.022, 885.76,530.022z"  />
<glyph unicode="&#x50;" d="M 881.818,600.116c-81.05,188.672-211.558,332.34-277.556,305.46c-112.076-45.568, 66.816-264.396-483.636-488.14
	c-47.564-19.302-59.596-96.666-39.68-142.90c 19.866-46.234, 84.89-92.262, 132.454-72.96c 8.192,3.328, 38.452,13.056, 38.452,13.056
	c 33.946-45.568, 69.478-18.534, 82.124-47.514c 15.156-34.816, 48.076-110.438, 59.238-136.14c 11.264-25.702, 36.66-49.562, 55.092-42.548
	c 18.33,7.014, 80.948,30.874, 104.908,39.936s 29.696,30.464, 22.374,47.308c-7.884,18.124-40.244,23.45-49.46,44.646
	c-9.268,21.196-39.424,89.036-48.076,110.438c-11.776,29.082, 13.26,52.736, 49.664,56.524c 250.572,26.112, 297.42-128.666, 382.72-93.952
	C 976.282,220.262, 962.868,411.444, 881.818,600.116z M 853.606,294.092c-14.644-5.94-113.254,71.782-176.282,218.47
	c-62.976,146.636-55.04,280.678-40.448,286.618c 14.644,5.99, 110.848-87.86, 173.876-234.496C 873.676,418.10, 868.25,300.032, 853.606,294.092z"  />
<glyph unicode="&#x55;" d="M 505.702,918.988c-260.096-3.482-468.172-217.14-464.692-477.286c 3.482-260.198, 217.19-468.172, 477.286-464.742
		c 260.148,3.482, 468.224,217.19, 464.692,477.286C 979.508,714.444, 765.798,922.47, 505.702,918.988z M 506.572,857.60c 70.144,0.972, 136.396-15.872, 194.56-46.132
		l-63.386-105.676C 599.756,724.276, 557.108,734.72, 512.00,734.72c-45.056,0.00-87.706-10.444-125.696-28.98L 322.97,811.366C 377.958,840.038, 440.32,856.678, 506.572,857.60z
		 M 254.26,322.304l-105.574-63.284c-28.672,54.938-45.312,117.30-46.182,183.50c-0.972,70.196, 15.872,136.448, 46.132,194.56l 105.626-63.436
		C 235.724,535.706, 225.28,493.108, 225.28,448.00C 225.28,402.944, 235.724,360.294, 254.26,322.304z M 517.478,38.452c-70.144-0.972-136.448,15.872-194.56,46.132l 63.386,105.676
		C 424.294,171.724, 466.944,161.28, 512.00,161.28c 45.108,0.00, 87.756,10.394, 125.696,28.928l 63.334-105.574C 646.042,56.012, 583.732,39.372, 517.478,38.452z
		 M 512.00,222.772c-124.416,0.00-225.228,100.864-225.228,225.228c0.00,124.416, 100.864,225.28, 225.228,225.28c 124.468,0.00, 225.28-100.864, 225.28-225.28
		C 737.28,323.584, 636.468,222.772, 512.00,222.772z M 769.74,322.304c 18.534,37.99, 28.98,80.64, 28.98,125.696c0.00,45.108-10.444,87.706-28.98,125.696
		l 105.574,63.386c 28.672-54.988, 45.364-117.30, 46.234-183.552c 0.922-70.196-15.924-136.448-46.182-194.56L 769.74,322.304z"  />
<glyph unicode="&#x54;" d="M 512.00,734.72C 176.076,734.72,0.00,487.27,0.00,448.00s 176.076-286.72, 512.00-286.72s 512.00,247.45, 512.00,286.72S 847.924,734.72, 512.00,734.72z M 512.00,227.43
		c-125.644,0.00-227.532,98.764-227.532,220.57S 386.356,668.57, 512.00,668.57c 125.696,0.00, 227.584-98.764, 227.584-220.57S 637.696,227.43, 512.00,227.43z M 512.00,448.00
		c-20.788,22.836, 33.996,110.234,0.00,110.234c-62.822,0.00-113.766-49.356-113.766-110.234S 449.178,337.716, 512.00,337.716c 62.874,0.00, 113.818,49.408, 113.818,110.284
		C 625.818,475.956, 529.766,428.544, 512.00,448.00z"  />
<glyph unicode="&#x52;" d="M 819.20,589.158l-30.72,0.00 c-11.316,0.00-20.48-9.216-20.48-20.48L 768.00,427.52 c0.00-68.454-53.914-184.32-256.00-184.32s-256.00,115.866-256.00,184.32L 256.00,568.678 c0.00,11.264-9.268,20.48-20.48,20.48L 204.80,589.158 
			c-11.264,0.00-20.48-9.216-20.48-20.48L 184.32,427.52 c0.00-114.534, 84.172-237.056, 276.48-253.952L 460.80,38.40 L 327.628,38.40 C 316.416,38.40, 307.20,29.184, 307.20,17.92L 307.20-43.52 C 307.20-54.784, 316.416-64.00, 327.628-64.00l 368.64,0.00 
			c 11.316,0.00, 20.48,9.216, 20.48,20.48L 716.748,17.92 c0.00,11.316-9.216,20.48-20.48,20.48L 563.20,38.40 l0.00,135.168 c 192.358,16.896, 276.48,139.468, 276.48,253.952L 839.68,568.678 
			C 839.68,579.942, 830.464,589.158, 819.20,589.158zM 512.00,345.60c 120.166,0.00, 153.60,49.356, 153.60,81.92L 665.60,589.158 L 358.40,589.158 L 358.40,427.52 C 358.40,394.956, 391.834,345.60, 512.00,345.60zM 665.60,878.08C 665.60,910.694, 632.166,960.00, 512.00,960.00S 358.40,910.694, 358.40,878.08l0.00-217.242 l 307.20,0.00 L 665.60,878.08 z"  />
<glyph unicode="&#x5a;" d="M 169.062,333.414c 23.756-96.308, 53.964-138.292, 154.726-182.374C 424.602,107.008, 472.474,58.88, 512.00,58.88s 84.326,42.086, 185.14,86.22
	c 100.812,43.98, 73.932,57.498, 97.69,153.702L 512.00,161.28L 169.062,333.414z M 998.964,584.396l-426.24,238.694c-33.382,18.688-88.012,18.688-121.396,0.00
	L 25.036,584.396c-33.382-18.688-33.382-49.306,0.00-67.994l 426.24-238.694c 33.382-18.688, 88.012-18.688, 121.396,0.00l 275.558,154.316l-298.804,69.99
	C 537.958,499.148, 525.312,497.562, 512.00,497.562c-53.812,0.00-97.434,25.958-97.434,57.958S 458.188,613.53, 512.00,613.53c 41.78,0.00, 77.364-15.718, 91.188-37.684
	l 316.468-103.834l 79.308,44.39C 1032.346,535.092, 1032.346,565.708, 998.964,584.396z M 868.71,131.994c-3.226-19.61, 65.69-52.02, 72.244,5.58
	c 29.644,259.636-21.30,334.388-21.30,334.388l-71.424-39.988C 848.23,432.026, 908.80,374.374, 868.71,131.994z"  />
<glyph unicode="&#x59;" d="M 852.378,696.678L 391.68,934.196C 328.55,967.424, 204.134,903.22, 168.396,846.694C 152.474,821.402, 153.60,803.174, 153.60,792.832l 5.684-536.32
	c 0.358-11.418, 14.746-26.726, 26.982-34.304c 25.548-15.668, 412.672-257.28, 423.578-264.14c 5.888-3.686, 12.902-5.376, 19.764-5.376
	c 5.836,0.00, 11.724,1.28, 17.05,3.942C 658.33-37.632, 665.60-26.572, 665.60-14.438L 665.60,548.812 c0.00,11.724-6.86,22.528-18.022,28.416L 228.864,811.008
	C 233.574,820.224, 252.212,839.68, 286.464,857.60C 322.56,876.544, 349.542,869.376, 355.738,866.97c0.00,0.00, 401.92-215.092, 414.208-221.492c 12.236-6.40, 12.492-7.372, 12.492-18.278
	c0.00-10.956,0.00-534.528,0.00-534.528c0.00-26.676, 27.034-37.58, 46.95-37.58c 19.814,0.00, 41.012,19.456, 41.012,37.58L 870.40,668.262 
	C 870.40,679.988, 863.488,690.842, 852.378,696.678z"  />
<glyph unicode="&#x5b;" d="M 956.928,327.884l-88.422,78.848c-25.60,22.836-25.60,60.108,0.00,82.944l 88.422,78.796c 25.60,22.836, 18.74,44.084-15.206,47.308l-117.196,11.11
	c-33.946,3.226-52.224,32.41-40.55,64.87l 62.208,173.158c 11.674,32.46-2.612,44.288-31.692,26.266l-138.292-85.504
	c-29.082-18.022-66.662-8.192-83.508,21.862l-50.124,89.396c-16.794,30.054-44.646,30.208-61.798,0.358L 434.228,836.30
	C 417.076,806.452, 377.652,793.702, 346.624,807.988l-81.92,37.632C 233.626,859.852, 209.766,843.366, 211.61,808.858L 216.064,726.17
	c 1.844-34.458-23.604-69.99-56.524-78.848L 80.436,626.074C 47.514,617.164, 41.472,591.258, 67.072,568.422l 88.422-78.796c 25.60-22.784, 25.60-60.108,0.00-82.892
	L 67.072,327.988c-25.60-22.886-18.842-44.902, 15.002-48.998l 107.264-13.004c 33.844-4.198, 52.736-34.406, 41.932-67.124l-55.04-166.81
	c-10.804-32.82, 4.608-45.62, 34.202-28.416l 126.106,72.908c 29.644,17.204, 69.428,7.68, 88.474-20.89l 52.378-78.694
	c 18.996-28.724, 47.616-27.084, 63.436,3.482l 46.028,88.678c 15.924,30.618, 53.914,43.11, 84.428,27.802l 88.78-44.39
	c 30.618-15.308, 54.118,0.41, 52.276,34.918l-4.454,82.688c-1.844,34.508, 23.604,69.99, 56.524,78.90l 79.052,21.196
	C 976.486,279.194, 982.528,305.10, 956.928,327.884z M 563.20,233.216L 460.80,233.216 l0.00,107.52 l 102.40,0.00 L 563.20,233.216 z M 563.20,397.004L 460.80,397.004 l0.00,266.24 l 102.40,0.00 L 563.20,397.004 z"  />
<glyph unicode="&#x63;" d="M 921.60,898.56L 102.40,898.56 c-56.32,0.00-102.40-46.08-102.40-102.40l0.00-563.20 c0.00-56.32, 45.158-111.462, 100.404-122.522l 223.846-44.748c0.00,0.00-192.666-68.25-68.25-68.25l 512.00,0.00 
	c 124.416,0.00-68.25,68.25-68.25,68.25l 223.846,44.748C 978.79,121.498, 1024.00,176.64, 1024.00,232.96l0.00,563.20 C 1024.00,852.48, 977.92,898.56, 921.60,898.56z M 921.60,238.08L 102.40,238.08 L 102.40,806.40 l 819.20,0.00 L 921.60,238.08 z"  />
<glyph unicode="&#x25;" d="M 768.00,151.04L 102.40,151.04 l0.00,460.80 l 132.864,0.00 c0.00,0.00, 35.276,45.876, 111.104,102.40L 51.20,714.24 c-28.262,0.00-51.20-22.938-51.20-51.20l0.00-563.20 c0.00-28.314, 22.938-51.20, 51.20-51.20l 768.00,0.00 c 28.314,0.00, 51.20,22.886, 51.20,51.20l0.00,191.796 
		l-102.40-84.224L 768.00,151.04 z M 684.134,506.88l0.00-181.76 L 1024.00,591.412L 684.134,847.36l0.00-160.256 C 271.36,687.052, 271.36,279.04, 271.36,279.04C 388.198,470.938, 460.084,506.88, 684.134,506.88z"  />
<glyph unicode="&#x28;" d="M 81.612,689.356c 24.986-13.466, 371.148-199.372, 384.052-206.284C 478.516,476.16, 495.206,472.832, 512.00,472.832c 16.844,0.00, 33.536,3.328, 46.388,10.292
		c 12.902,6.912, 359.014,192.82, 384.00,206.284C 967.424,702.822, 991.078,744.96, 945.152,744.96L 78.90,744.96 C 32.972,744.96, 56.576,702.822, 81.612,689.356z M 952.986,586.956
		c-28.416-14.848-377.19-197.172-394.598-206.284S 528.844,370.38, 512.00,370.38c-16.794,0.00-28.928,1.178-46.336,10.292S 99.43,572.16, 71.066,586.956
		C 51.046,597.402, 51.20,585.164, 51.20,575.744c0.00-9.42,0.00-375.552,0.00-375.552C 51.20,178.688, 79.82,151.04, 101.99,151.04l 820.07,0.00 c 22.22,0.00, 50.74,27.648, 50.74,49.10
		c0.00,0.00,0.00,366.132,0.00,375.552C 972.80,585.164, 973.004,597.402, 952.986,586.956z"  />
<glyph unicode="&#x35;" d="M 847.924,783.974c-73.83,73.882-129.28,62.822-129.28,62.822L 459.93,588.084L 164.352,292.506L 112.64,48.64l 243.866,51.712l 295.578,295.578l 258.662,258.662
		C 910.746,654.592, 921.856,710.042, 847.924,783.974z M 341.964,129.69l-83.098-17.92c-8.038,15.002-17.716,30.004-35.38,47.718
		c-17.664,17.664-32.716,27.29-47.718,35.328l 17.972,83.148l 24.012,24.012c0.00,0.00, 45.26-0.922, 96.308-51.968c 51.098-51.098, 52.02-96.358, 52.02-96.358
		L 341.964,129.69z"  />
<glyph unicode="&#x36;" d="M 217.804-51.814c 15.668,51.252, 39.424,123.444, 71.22,227.892c 138.548,22.374, 195.892-17.868, 283.904,142.54
	c-71.424-22.324-157.542,41.42-152.884,69.018c 4.608,27.648, 200.346-19.916, 328.448,165.786c-161.484-36.30-213.196,43.674-192.358,55.756
	c 48.076,27.904, 190.822,11.572, 266.906,87.194c 39.22,38.912, 57.548,133.58, 41.626,167.372c-19.20,40.756-136.038,101.58-200.448,95.898
	c-64.41-5.734-165.428-250.316-195.38-248.372S 432.896,820.788, 485.172,920.832c-55.142-24.884-156.16-102.348-187.852-168.55
	c-59.034-123.188, 5.53-405.658-15.156-415.744c-20.736-10.036-90.42,129.69-111.206,193.024c-28.416-97.076-29.082-194.356, 53.964-323.584
	c-31.334-84.788-48.436-182.374-51.046-231.988C 172.646-65.74, 210.892-74.24, 217.804-51.814z"  />
<glyph unicode="&#x37;" d="M 254.004-64.00c-68.404,0.00-132.454,28.98-178.74,75.316c-89.60,89.60-114.636,246.068, 11.008,371.712C 159.948,456.602, 454.86,751.514, 602.06,898.714
		c 52.276,52.276, 118.732,72.448, 182.426,55.348c 62.516-16.692, 113.818-67.942, 130.56-130.508c 17.05-63.692-3.174-130.202-55.398-182.426l-493.158-493.21
		c-28.16-28.16-59.956-44.852-91.956-48.18c-31.642-3.328-61.85,6.86-83.046,28.006c-38.40,38.348-43.828,110.54, 19.968,174.284l 346.368,346.47
		c 14.234,14.182, 37.324,14.182, 51.558,0.00c 14.234-14.234, 14.234-37.324,0.00-51.558l-346.42-346.42c-29.952-29.952-32.716-58.572-19.968-71.322
		c 5.58-5.53, 14.08-8.09, 23.86-7.066c 15.002,1.588, 32.102,11.316, 48.076,27.29l 493.158,493.158c 33.844,33.844, 46.796,73.626, 36.506,112.076
		c-10.138,37.836-41.164,68.864-79.002,79.002c-38.452,10.292-78.234-2.714-112.076-36.506C 506.368,699.956, 211.456,405.044, 137.83,331.468
		c-96.052-96.052-73.062-206.592-11.06-268.646c 62.054-62.004, 172.596-85.044, 268.698,11.06L 911.206,589.568c 14.182,14.234, 37.324,14.234, 51.508,0.00
		c 14.234-14.234, 14.234-37.324,0.00-51.508L 446.976,22.324C 386.202-38.502, 318.208-64.00, 254.004-64.00z"  />
<glyph unicode="&#x3c;" d="M 990.156,471.398c-20.122,21.35-116.94,116.326-161.228,159.692c-13.62,13.26-33.076,21.708-53.402,21.708c-20.276,0.00-263.476,0.00-263.476,0.00
	s-243.20,0.00-263.526,0.00S 208.692,644.30, 195.124,631.04c-44.288-43.366-141.21-138.342-161.28-159.692c-25.036-26.624-38.758-47.872-32.204-74.188l 28.724-157.388
	c 6.502-26.316, 35.328-47.872, 64.052-47.872l 835.174,0.00 c 28.724,0.00, 57.548,21.556, 64.052,47.872l 28.774,157.388C 1028.916,423.476, 1015.194,444.774, 990.156,471.398
	z M 719.258,437.30c-5.222,0.00-9.882-2.662-12.236-6.81l-41.83-104.244L 358.86,326.246 l-41.83,104.244c-2.304,4.148-7.066,6.81-12.236,6.81L 123.29,437.30 
	l 104.50,118.22l 568.524,0.00 l 104.448-118.22L 719.258,437.30 z"  />
<glyph unicode="&#x3e;" d="M 972.80,99.84c0.00,0.00-102.40,498.33-551.68,498.33L 421.12,796.16 L 51.20,465.664l 369.92-342.58l0.00,223.13 C 664.986,346.214, 845.67,324.608, 972.80,99.84z"  />
<glyph unicode="&#x3f;" d="M 369.92,658.944L 369.92,796.16 L0.00,465.664l 369.92-342.58l0.00,142.284 L 153.60,465.664L 369.92,658.944z M 625.92,598.22L 625.92,796.16 L 256.00,465.664l 369.92-342.58l0.00,223.13 
		c 168.602,0.00, 270.95-21.606, 398.08-246.374C 1024.00,99.84, 1005.21,598.22, 625.92,598.22z"  />
<glyph unicode="&#x41;" d="M 602.88,346.214l0.00-223.078 L 972.80,465.664L 602.88,796.16l0.00-197.94 C 153.60,598.22, 51.20,99.84, 51.20,99.84C 178.33,324.608, 359.014,346.214, 602.88,346.214z"  />
<glyph unicode="&#x43;" d="M 758.784,220.262c-126.208,45.978-166.554,84.788-166.554,167.884c0.00,49.868, 38.554,33.588, 55.45,124.928c 7.014,37.888, 41.062,0.614, 47.616,87.092
		c0.00,34.458-18.586,43.06-18.586,43.06s 9.472,51.046, 13.158,90.266C 694.374,782.438, 661.606,908.80, 486.40,908.80C 311.244,908.80, 278.374,782.438, 282.982,733.492
		C 286.668,694.272, 296.14,643.226, 296.14,643.226S 277.504,634.676, 277.504,600.166c 6.502-86.476, 40.55-49.204, 47.564-87.092
		c 16.948-91.34, 55.50-75.06, 55.50-124.928c0.00-83.098-40.346-121.908-166.554-167.884c-126.668-46.08-208.896-93.132-208.896-125.236c0.00-32.052,0.00-107.776,0.00-107.776
		l 481.28,0.00 l 481.28,0.00 c0.00,0.00,0.00,75.724,0.00,107.776C 967.68,127.078, 885.402,174.132, 758.784,220.262z"  />
<glyph unicode="&#x44;" d="M 1024.00-2.56c0.00,0.00-1.996,193.894-13.876,213.964c-17.664,29.952-58.676,50.484-134.86,82.33c-75.93,31.744-100.25,58.572-100.25,115.866
		c0.00,34.458, 23.194,23.194, 33.382,86.22c 4.198,26.164, 24.678,0.46, 28.62,60.108c0.00,23.808-11.162,29.748-11.162,29.748s 5.632,35.226, 7.884,62.31
		c 2.764,33.792-17.05,120.986-122.47,120.986s-125.132-87.244-122.42-120.986c 2.202-27.084, 7.834-62.31, 7.834-62.31s-11.162-5.94-11.162-29.748
		c 3.942-59.70, 24.422-33.996, 28.672-60.108c 10.138-63.028, 33.332-51.764, 33.332-86.22c0.00-38.964-11.264-63.846-42.342-85.708
		c 165.888-83.046, 188.16-99.994, 188.16-174.234L 793.344-2.56 L 1024.00-2.56 z M 523.468,264.96c-101.324,42.292-133.632,78.028-133.632,154.47c0.00,45.876, 30.924,30.924, 44.492,114.996
		c 5.58,34.868, 32.972,0.564, 38.144,80.128c0.00,31.744-14.90,39.628-14.90,39.628s 7.578,46.95, 10.548,83.098C 471.808,782.234, 445.388,898.56, 304.844,898.56
		c-140.544,0.00-166.912-116.276-163.226-161.28c 2.97-36.148, 10.496-83.098, 10.496-83.098S 137.268,646.298, 137.268,614.554
		c 5.274-79.616, 32.564-45.312, 38.196-80.128c 13.568-84.07, 44.492-69.068, 44.492-114.996c0.00-76.442-32.41-112.18-133.632-154.47
		C 55.45,252.058,0.00,232.038,0.00,184.012L0.00-2.56 l 711.372,0.00 c0.00,0.00,0.00,110.336,0.00,139.828C 711.372,181.146, 624.998,222.464, 523.468,264.96z"  />
<glyph unicode="&#x45;" d="M 633.702,220.262C 506.164,266.24, 465.408,305.05, 465.408,388.148c0.00,49.868, 38.964,33.588, 56.064,124.928c 7.116,37.888, 41.524,0.614, 48.026,87.092
		c0.00,34.458-18.74,43.06-18.74,43.06s 9.574,51.046, 13.26,90.266C 568.628,782.438, 535.45,908.80, 358.40,908.80S 148.172,782.438, 152.78,733.492
		c 3.738-39.27, 13.312-90.266, 13.312-90.266S 147.302,634.676, 147.302,600.166c 6.604-86.476, 41.012-49.204, 48.026-87.092
		c 17.152-91.34, 56.116-75.06, 56.116-124.928c0.00-83.098-40.806-121.908-168.346-167.884c-15.36-5.478-51.968-14.08-83.098-27.546L0.00-12.80 l 819.20,0.00 
		c0.00,0.00,0.00,75.724,0.00,107.776S 761.702,174.132, 633.702,220.262z M 870.40,499.20L 870.40,652.80 l-102.40,0.00 l0.00-153.60 l-153.60,0.00 l0.00-102.40 l 153.60,0.00 l0.00-153.60 l 102.40,0.00 l0.00,153.60 l 153.60,0.00 L 1024.00,499.20 L 870.40,499.20 z"  />
<glyph unicode="&#x46;" d="M 296.96,335.36L 296.96,652.80 L 102.40,652.80 C 46.08,652.80,0.00,606.72,0.00,550.40l0.00-307.20 c0.00-56.32, 46.08-102.40, 102.40-102.40l 51.20,0.00 l0.00-153.60 l 153.60,153.60l 256.00,0.00 c 56.32,0.00, 102.40,46.08, 102.40,102.40l0.00,93.184 c-3.276-0.716-6.758-1.076-10.24-1.076L 296.96,335.308 
		z M 921.60,908.80L 460.80,908.80 C 404.48,908.80, 358.40,862.72, 358.40,806.40l0.00-409.60 l 358.40,0.00 l 153.60-153.60l0.00,153.60 l 51.20,0.00 c 56.32,0.00, 102.40,46.08, 102.40,102.40L 1024.00,806.40 C 1024.00,862.72, 977.92,908.80, 921.60,908.80z"  />
<glyph unicode="&#x22;" d="M 348.16,448.00c0.00-90.47, 73.37-163.84, 163.84-163.84s 163.84,73.42, 163.84,163.84c0.00,90.47-73.37,163.84-163.84,163.84
	S 348.16,538.47, 348.16,448.00z M 231.884,509.44C 259.994,638.26, 374.732,734.72, 512.00,734.72c 79.206,0.00, 150.836-32.102, 202.70-83.968c 24.012-24.012, 62.924-24.012, 86.938,0.00
	c 23.962,24.012, 23.962,62.924,0.00,86.886C 727.50,811.724, 625.10,857.60, 512.00,857.60C 328.602,857.60, 173.364,737.076, 121.19,570.88L0.00,570.88 L0.00,448.00 l 163.84,0.00 
	C 214.988,448.00, 227.532,489.626, 231.884,509.44z M 860.16,448.00c-51.098,0.00-63.692-41.626-68.044-61.44C 764.006,257.74, 649.318,161.28, 512.00,161.28
	c-79.156,0.00-150.836,32.052-202.70,83.968c-24.012,24.012-62.924,24.012-86.886,0.00s-24.012-62.924,0.00-86.886C 296.50,84.276, 398.90,38.40, 512.00,38.40
	c 183.398,0.00, 338.636,120.524, 390.81,286.72L 1024.00,325.12 L 1024.00,448.00 L 860.16,448.00 z"  />
<glyph unicode="&#x4d;" d="M 512.00,888.32c-243.148,0.00-440.32-197.172-440.32-440.32c0.00-243.20, 197.172-440.32, 440.32-440.32c 243.20,0.00, 440.32,197.12, 440.32,440.32C 952.32,691.148, 755.20,888.32, 512.00,888.32z
		 M 547.84,91.392L 547.84,289.28 L 476.16,289.28 l0.00-197.888 c-169.318,16.794-303.924,151.45-320.768,320.768L 353.28,412.16 L 353.28,483.84 L 155.392,483.84 C 172.236,653.158, 306.842,787.814, 476.16,804.608L 476.16,606.72 l 71.68,0.00 
		L 547.84,804.608 c 169.37-16.794, 303.974-151.45, 320.768-320.768L 670.72,483.84 l0.00-71.68 l 197.888,0.00 C 851.814,242.842, 717.21,108.186, 547.84,91.392z"  />
<glyph unicode="&#x40;" d="M 819.20,806.40L 204.80,806.40 C 148.48,806.40, 102.40,760.32, 102.40,704.00l0.00-358.40 c0.00-56.32, 46.08-102.40, 102.40-102.40l 204.80,0.00 l 204.80-153.60l0.00,153.60 l 204.80,0.00 c 56.32,0.00, 102.40,46.08, 102.40,102.40L 921.60,704.00 C 921.60,760.32, 875.52,806.40, 819.20,806.40z"  />
<glyph unicode="&#x42;" d="M 961.024,432.64l-410.828,411.188c-20.992,21.812-55.348,21.812-76.34,0.00L 62.976,432.64c-21.044-21.76-13.21-39.628, 17.408-39.628l 85.658,0.00 l0.00-315.802 
		c0.00-22.784, 0.972-41.42, 42.188-41.42l 199.424,0.00 l0.00,316.826 l 208.64,0.00 l0.00-316.826 l 209.356,0.00 c 31.436,0.00, 32.308,18.586, 32.308,41.42l0.00,315.802 l 85.606,0.00 
		C 974.132,393.012, 982.016,410.828, 961.024,432.64z"  />
<glyph unicode="&#x53;" d="M 898.304,168.038l-193.484,193.484c 29.184,47.974, 45.978,104.192, 45.978,164.454c0.00,174.90-151.604,326.502-326.554,326.502
		C 249.344,852.48, 107.52,710.656, 107.52,535.756c0.00-174.95, 151.552-326.554, 326.502-326.554c 58.164,0.00, 112.64,15.77, 159.488,43.162l 194.508-194.56
		c 19.098-19.046, 49.92-19.046, 68.916,0.00l 48.282,48.23C 924.212,125.082, 917.30,149.044, 898.304,168.038z M 205.004,535.756
		c0.00,121.088, 98.15,219.29, 219.238,219.29c 121.14,0.00, 229.068-107.93, 229.068-229.068s-98.15-219.29-219.29-219.29S 205.004,414.618, 205.004,535.756z"  />
<glyph unicode="&#x47;" d="M 750.08,524.134c-116.736,251.238-177.408,346.676-368.18,342.682c-67.942-1.382-51.61,49.204-103.424,30.004
		C 226.714,877.67, 271.156,849.562, 218.164,806.092c-148.582-121.958-134.912-234.804-65.996-503.808c 29.082-113.254-69.99-118.836-30.822-228.66
		c 28.62-80.026, 239.564-113.612, 462.132-30.976c 222.566,82.534, 363.008,246.426, 334.388,326.554C 878.694,478.976, 799.284,418.356, 750.08,524.134z M 559.308,110.284
		c-198.708-73.728-362.086-30.362-368.998-11.11c-11.878,33.228, 64.154,144.18, 291.38,228.506c 227.226,84.326, 354.048,53.044, 367.308,15.924
		C 856.832,321.69, 758.118,184.064, 559.308,110.284z M 495.462,289.178c-103.936-38.554-176.128-82.636-222.874-122.368
		c 32.922-29.90, 94.516-37.172, 155.956-14.388c 78.182,29.03, 126.208,95.642, 107.212,148.736c-0.204,0.666-0.564,1.228-0.82,1.844
		C 522.138,298.854, 508.98,294.246, 495.462,289.178z"  />
<glyph unicode="&#x57;" d="M 402.38,207.668l-41.472-41.164c-35.942-35.584-94.362-35.636-130.252,0.00c-17.254,17.152-26.726,39.834-26.726,64.052
		s 9.524,46.95, 26.726,64.102l 152.576,151.398c 31.59,31.386, 91.084,77.516, 134.452,34.508c 19.916-19.764, 52.07-19.61, 71.782,0.256
		c 19.764,19.866, 19.66,52.02-0.256,71.782c-73.676,73.114-182.63,59.596-277.504-34.508l-152.576-151.398C 122.572,330.342, 102.40,282.01, 102.40,230.554
		c0.00-51.404, 20.172-99.738, 56.78-136.09C 196.864,57.036, 246.324,38.40, 295.782,38.40s 99.02,18.636, 136.704,56.064l 41.472,41.216
		c 19.916,19.764, 20.02,51.916, 0.256,71.732C 454.452,227.276, 422.298,227.38, 402.38,207.668z M 864.82,795.70
		c-79.156,78.54-189.798,82.79-263.116,10.086l-51.66-51.252c-19.916-19.764-20.07-51.866-0.308-71.782c 19.814-19.916, 51.916-20.02, 71.782-0.256
		l 51.66,51.252c 37.94,37.684, 87.654,22.068, 120.116-10.086c 17.254-17.10, 26.726-39.884, 26.726-64.052c0.00-24.218-9.524-46.95-26.726-64.052
		l-162.816-161.484c-74.394-73.83-109.364-39.22-124.262-24.422c-19.916,19.764-52.02,19.61-71.732-0.256c-19.764-19.916-19.66-52.07, 0.256-71.782
		c 34.15-33.894, 73.216-50.688, 114.074-50.688c 50.074,0.00, 102.964,25.19, 153.242,75.11l 162.764,161.484C 901.428,559.82, 921.60,608.154, 921.60,659.558
		S 901.428,759.348, 864.82,795.70z"  />
<glyph unicode="&#x5c;" d="M 946.484,720.384C 362.394,486.554, 598.988,1115.904, 145.972,784.588L 51.20,750.592L 238.90,12.80l 103.372,0.00 L 250.368,374.17
		c 404.172,338.842, 240.538-369.204, 718.644,325.478C 980.122,715.776, 965.274,727.91, 946.484,720.384z"  />
<glyph unicode="&#x4b;" d="M 160.46,607.232C 208.282,644.352, 247.91,618.804, 300.80,557.568C 306.79,550.708, 314.778,558.746, 319.284,562.688c 4.506,3.994, 74.342,66.764, 77.722,69.684
	C 400.436,635.392, 404.532,641.024, 399.104,647.322s-25.292,32.00-38.042,48.64c-92.57,121.088, 253.236,203.212, 200.09,204.492
	c-26.982,0.716-135.476,1.946-151.654,0.256C 343.808,893.748, 261.324,832.358, 219.802,803.788c-54.272-37.324-74.598-58.982-77.926-62.004
	c-15.36-13.466-2.458-44.39-30.31-68.812C 82.124,647.168, 63.796,666.676, 46.746,651.724c-8.50-7.476-32.102-25.14-38.912-31.13
	C 1.076,614.656-0.154,604.57, 6.758,596.48c0.00,0.00, 64.666-71.476, 70.144-77.772C 82.33,512.41, 96.922,507.084, 105.984,515.072
	c 9.062,7.936, 32.308,28.364, 36.25,31.846C 146.228,550.348, 139.674,591.104, 160.46,607.232z M 452.762,580.812c-6.144,7.116-13.722,7.27-20.326,1.434
	L 358.964,518.196c-5.734-5.12-6.502-14.54-1.332-20.48l 424.652-483.226c 9.882-11.468, 27.084-12.646, 38.502-2.714l 49.716,41.574
	c 11.316,9.932, 12.492,27.34, 2.612,38.758L 452.762,580.812z M 1018.982,786.484c-3.788,25.292-16.896,19.968-23.706,9.216
	c-6.708-10.70-36.916-56.372-49.306-77.004c-12.288-20.582-42.496-60.98-99.02-21.094c-58.778,41.574-38.298,70.604-28.108,90.112
	c 10.292,19.61, 41.882,74.496, 46.49,81.408c 4.506,6.912-0.82,26.982-18.996,18.586c-18.278-8.448-129.178-52.532-144.588-115.712
	c-15.718-64.358, 13.21-121.804-43.52-178.892l-68.71-71.68l 69.018-80.282l 84.684,80.436c 20.224,20.276, 63.284,39.988, 102.298,31.13
	c 83.61-18.944, 129.178,12.492, 156.724,64.358C 1026.918,663.50, 1022.822,761.19, 1018.982,786.484z M 140.288,86.988c-10.65-10.752-10.65-28.16,0.00-38.86
	l 48.692-47.616c 10.65-10.70, 27.546-6.196, 38.196,4.506l 251.238,247.04L 401.408,339.764L 140.288,86.988z"  />
<glyph unicode="&#x5d;" d="M 880.076,747.468c-85.606,78.592-224.41,78.592-310.016,0.00L 512.00,694.118L 453.888,747.468c-85.606,78.592-224.358,78.592-309.964,0.00
		c-96.308-88.372-96.308-231.628,0.00-320.052L 512.00,89.60l 368.076,337.818C 976.384,515.84, 976.384,659.098, 880.076,747.468z"  />
<glyph unicode="&#x5e;" d="M 512.00,898.56L 634.266,554.394L 962.56,554.394L 694.682,352.256L 790.426-2.56L 512.00,210.124L 233.574-2.56L 329.318,352.256L 61.44,554.394L 389.734,554.394 	z"  />
<glyph unicode="&#x5f;" d="M 574.924,385.076c-81.05-81.10-174.95-158.618-212.07-121.446c-53.146,53.094-85.862,99.38-203.008,5.274s-27.188-156.876, 24.32-208.384
		c 59.392-59.34, 280.78-3.124, 499.66,215.706c 218.778,218.828, 275.098,440.268, 215.654,499.66c-51.456,51.508-114.176,141.414-208.332,24.32
		s-47.872-149.862, 5.274-203.008C 733.44,560.026, 655.974,466.176, 574.924,385.076z"  />
<glyph unicode="&#x60;" d="M 921.60,857.60L 102.40,857.60 C 46.08,857.60,0.00,811.52,0.00,755.20l0.00-614.40 c0.00-56.32, 46.08-102.40, 102.40-102.40l 819.20,0.00 c 56.372,0.00, 102.40,46.08, 102.40,102.40L 1024.00,755.20 C 1024.00,811.52, 977.972,857.60, 921.60,857.60z M 921.60,140.80L 102.40,140.80 L 102.40,755.20 l 819.20,0.00 L 921.60,140.80 z M 460.80,340.48L 204.80,340.48 
		L 204.80,248.32 l 256.00,0.00 L 460.80,340.48 z M 460.80,494.08L 204.80,494.08 l0.00-92.16 l 256.00,0.00 L 460.80,494.08 z M 460.80,647.68L 204.80,647.68 l0.00-92.16 l 256.00,0.00 L 460.80,647.68 z M 814.08,320.00c0.00,0.00-87.04,22.732-87.04,67.482c0.00,42.598, 56.372,60.518, 56.372,147.558
		c0.00,70.656-21.504,112.64-92.212,112.64s-92.16-41.932-92.16-112.64c0.00-87.04, 56.32-104.96, 56.32-147.558c0.00-44.748-86.988-67.482-86.988-67.482C 563.20,320.00, 563.20,248.32, 563.20,248.32
		l 256.00,0.00 C 819.20,248.32, 819.20,320.00, 814.08,320.00z"  />
<glyph unicode="&#x61;" d="M 710.502,960.00L 313.498,960.00 C 256.00,960.00, 208.998,912.998, 208.998,855.50l0.00-815.002 C 208.998-16.948, 256.00-64.00, 313.498-64.00l 397.004,0.00 c 57.498,0.00, 104.50,47.052, 104.50,104.50
		L 815.002,855.50 C 815.002,912.998, 768.00,960.00, 710.502,960.00z M 512.00-22.22c-40.346,0.00-73.114,23.398-73.114,52.276s 32.768,52.276, 73.114,52.276
		c 40.396,0.00, 73.114-23.398, 73.114-52.276S 552.396-22.22, 512.00-22.22z M 731.392,134.554L 292.556,134.554 L 292.556,824.166 l 438.836,0.00 L 731.392,134.554 z"  />
<glyph unicode="&#x62;" d="M 435.20,908.80L 389.172,908.80 C 377.856,908.80, 368.64,899.584, 368.64,888.32l0.00-194.56 L 187.596,693.76 c-8.448,0.00-18.944-1.946-28.98-5.018
		C 148.48,685.62, 138.804,681.318, 131.892,676.608l-121.60-83.456C 3.43,588.442,0.00,582.246,0.00,576.00s 3.43-12.442, 10.292-17.152l 121.60-83.456
		C 138.804,470.682, 148.48,466.38, 158.618,463.258C 168.652,460.186, 179.148,458.24, 187.596,458.24L 368.64,458.24 l0.00-450.56 c0.00-11.316, 9.216-20.48, 20.48-20.48L 435.20-12.80 
		c 11.316,0.00, 20.48,9.216, 20.48,20.48L 455.68,888.32 C 455.68,899.584, 446.516,908.80, 435.20,908.80z M 1013.708,695.50l-121.60,83.456c-6.86,4.71-16.538,9.012-26.676,12.134
		C 855.348,794.214, 844.852,796.16, 836.404,796.16L 486.40,796.16 l 41.012-235.52l 308.992,0.00 c 8.448,0.00, 18.944,1.946, 29.03,5.018s 19.814,7.424, 26.676,12.084l 121.60,83.456
		C 1020.62,665.958, 1024.00,672.154, 1024.00,678.40S 1020.62,690.842, 1013.708,695.50z"  />
<glyph unicode="&#x65;" d="M 76.80,601.498l 870.40,0.00 c 29.184,0.00, 24.422,31.13, 9.882,36.198C 942.54,642.764, 780.80,703.898, 752.64,703.898l-46.08,0.00 l0.00,153.60 L 317.44,857.498 l0.00-153.60 L 271.36,703.898 
		c-28.16,0.00-189.90-61.132-204.442-66.202C 52.378,632.628, 47.564,601.498, 76.80,601.498z M 957.44,545.178L 66.56,545.178 c-28.16,0.00-56.32-33.28-56.32-61.44l0.00-179.20 
		c0.00-28.16, 28.16-61.44, 56.32-61.44l 101.478,0.00 l-45.158-256.00l 778.24,0.00 l-45.158,256.00L 957.44,243.098 c 28.16,0.00, 56.32,33.28, 56.32,61.44l0.00,179.20 C 1013.76,511.898, 985.60,545.178, 957.44,545.178z
		 M 225.28,89.498l 71.68,332.80l 430.08,0.00 l 71.628-332.80L 225.28,89.498 z"  />
<glyph unicode="&#x66;" d="M 859.392,448.00c0.00,53.658, 33.024,96.00, 82.688,125.082c-9.012,29.90-20.788,58.624-35.38,85.606c-55.808-14.592-100.916,7.27-138.804,45.158
		c-37.99,37.94-49.612,83.098-35.02,138.804c-26.982,14.592-55.604,26.522-85.606,35.43C 618.188,828.364, 565.606,795.34, 512.00,795.34
		c-53.606,0.00-106.138,33.024-135.27,82.74C 346.726,869.172, 318.106,857.242, 291.124,842.70C 305.664,786.944, 294.092,741.786, 256.154,703.846
		C 218.214,665.958, 173.056,644.096, 117.35,658.636C 102.758,631.706, 90.88,602.982, 81.92,573.082C 131.636,544.00, 164.66,501.658, 164.66,448.00
		c0.00-53.606-33.024-106.188-82.74-135.322c 8.96-29.952, 20.838-58.624, 35.43-85.606c 55.756,14.592, 100.864,2.97, 138.804-34.97
		c 37.94-37.94, 49.51-83.046, 34.97-138.804c 26.982-14.592, 55.654-26.522, 85.606-35.43c 29.132,49.766, 81.664,82.74, 135.27,82.74
		c 53.606,0.00, 106.24-33.024, 135.322-82.74c 30.004,8.96, 58.624,20.838, 85.606,35.43c-14.592,55.756-3.02,100.864, 35.02,138.804
		c 37.888,37.888, 82.996,59.75, 138.804,45.21c 14.592,26.982, 26.42,55.654, 35.38,85.606C 892.416,352.052, 859.392,394.394, 859.392,448.00z M 512.00,260.966
		c-103.27,0.00-186.982,83.764-186.982,187.034S 408.73,635.034, 512.00,635.034c 103.322,0.00, 187.034-83.764, 187.034-187.034S 615.322,260.966, 512.00,260.966z"  />
<glyph unicode="&#x69;" d="M 512.00,857.60C 370.586,857.60, 256.00,742.964, 256.00,601.60c0.00-244.428, 256.00-563.20, 256.00-563.20s 256.00,318.772, 256.00,563.20C 768.00,742.964, 653.414,857.60, 512.00,857.60z M 512.00,460.288c-76.34,0.00-138.24,61.90-138.24,138.24
		s 61.90,138.24, 138.24,138.24s 138.24-61.90, 138.24-138.24S 588.34,460.288, 512.00,460.288z"  />
<glyph unicode="&#x6a;" d="M 273.92-57.856l 102.40,0.00 l 229.786,409.652L 870.40,351.796 c0.00,0.00, 153.60,0.00, 153.60,71.628c0.00,71.68-153.60,71.68-153.60,71.68l-264.294,0.00 l-229.786,409.60l-102.40,0.00 l 127.386-409.60L 217.652,495.104 L 102.40,597.556L0.00,597.556 l 81.972-174.08
		L0.00,249.344l 102.40,0.00 l 115.252,102.452l 183.654,0.00 L 273.92-57.856z"  />
<glyph unicode="&#x6b;" d="M 348.314-12.748c-9.882,6.502, 161.484,366.592, 155.546,382.412c-5.888,15.82-187.596,73.574-196.506,101.376
		c-8.858,27.802, 358.81,445.748, 368.436,437.658c 9.626-8.038-160.204-370.586-155.546-382.362s 190.924-71.988, 196.506-101.324
		C 722.33,395.572, 358.196-19.20, 348.314-12.748z"  />
<glyph unicode="&#x6c;" d="M 627.866,316.518c0.00,0.00, 361.42,260.762, 321.332,559.258c-0.922,6.554-3.072,10.854-5.734,13.772c-2.816,2.714-7.014,4.966-13.466,5.888
	C 638.31,936.346, 383.488,566.528, 383.488,566.528C 162.406,593.05, 178.484,548.916, 77.62,306.688c-19.302-46.182, 11.98-62.106, 46.284-49.10
	c 34.304,12.902, 110.028,41.524, 110.028,41.524l 132.556-135.628c0.00,0.00-27.956-77.466-40.602-112.538c-12.646-35.174, 2.868-67.174, 48.026-47.462
	C 610.662,106.752, 653.772,90.316, 627.866,316.518z M 679.476,619.418c-30.618,31.334-30.618,82.124,0.00,113.46c 30.618,31.284, 80.23,31.284, 110.848,0.00
	c 30.668-31.284, 30.668-82.124,0.00-113.46C 759.756,588.032, 710.092,588.032, 679.476,619.418z"  />
<glyph unicode="&#x6d;" d="M 927.846,772.25c-15.156,13.108-97.588,75.52-112.998,88.78S 775.372,878.08, 758.374,878.08L 265.626,878.08 c-16.948,0.00-41.062-3.738-56.422-17.05
		c-15.412-13.312-97.844-75.724-112.998-88.78S 68.404,739.43, 72.448,711.27c 4.044-28.16, 99.174-664.218, 99.174-664.218
		C 176.948,31.028, 195.174,17.92, 212.172,17.92l 599.706,0.00 c 16.998,0.00, 35.226,13.158, 40.55,29.132c0.00,0.00, 95.078,636.058, 99.174,664.218
		C 955.596,739.43, 943.002,759.142, 927.846,772.25z M 512.00,326.758c-166.298,0.00-201.882,235.366-209.254,283.852L 396.80,610.612 c 14.182-70.758, 46.388-191.692, 115.20-191.692
		s 101.068,120.934, 115.252,191.692l 94.004,0.00 C 713.882,562.124, 678.298,326.758, 512.00,326.758z M 151.706,704.00l 112.948,117.76l 494.694,0.00 L 872.294,704.00L 151.706,704.00 z"  />
<glyph unicode="&#x6e;" d="M 628.224,331.776C 482.97,186.572, 262.964,161.894, 92.16,257.536c 19.712-35.124, 44.34-68.198, 74.24-98.10c 175.104-175.104, 459.008-175.104, 634.112,0.00
		c 175.104,175.156, 175.104,459.06,0.00,634.164c-29.90,29.90-62.924,54.528-98.10,74.24C 798.106,697.036, 773.376,477.03, 628.224,331.776z"  />
<glyph unicode="&#x6f;" d="M 888.422,726.272c-158.924,105.676-337.356,142.182-548.966,81.562c-165.172-47.36-316.57-235.212-328.294-396.084
		c-13.876-190.208, 134.298-353.076, 395.162-352.82c 281.292,0.308, 386.56,135.372, 388.916,176.384c 2.304,41.062-109.772,116.94-37.632,194.97
		c 90.368,97.74, 170.804,14.438, 219.546,26.214C 1025.894,468.172, 1050.572,618.342, 888.422,726.272z M 562.074,249.19c-42.548,0.00-77.056,34.406-77.056,76.80
		c0.00,42.444, 34.508,76.80, 77.056,76.80s 77.004-34.356, 77.004-76.80C 639.028,283.596, 604.62,249.19, 562.074,249.19z"  />
<glyph unicode="&#x70;" d="M 272.384,749.876C 76.698,636.314, 87.962,451.38, 94.72,382.976c 252.774,299.366, 630.836,284.826, 630.836,284.826S 189.594,484.044, 32.154,115.404
		c-12.39-29.184, 58.368-67.02, 74.496-32.614c 48.18,102.502, 115.354,179.404, 115.354,179.404c 99.124-36.916, 270.49-80.076, 392.038,5.376
		c 161.332,113.612, 144.844,365.364, 375.244,487.936C 1043.098,784.18, 537.702,903.834, 272.384,749.876z"  />
<glyph unicode="&#x71;" d="M 512.00,919.04c-260.148,0.00-471.04-210.944-471.04-471.04c0.00-260.148, 210.892-471.04, 471.04-471.04s 471.04,210.892, 471.04,471.04C 983.04,708.148, 772.148,919.04, 512.00,919.04z M 512.00,79.36
			c-203.622,0.00-368.64,165.068-368.64,368.64S 308.378,816.64, 512.00,816.64s 368.64-165.068, 368.64-368.64S 715.622,79.36, 512.00,79.36zM 547.84,714.24L 476.16,714.24L 476.16,433.152L 650.496,258.816L 701.184,309.504L 547.84,462.848 		z"  />
<glyph unicode="&#x72;" d="M 604.108,898.612l-82.124,0.00 l0.00-669.286 c-45.414,17.51-104.192,17.766-162.15-3.328c-103.834-37.786-165.734-129.74-138.24-205.312
		c 27.546-75.622, 134.042-106.24, 237.876-68.454c 88.218,32.102, 145.92,103.27, 144.486,170.24l 0.154,547.328c 143.206-22.528, 152.986-203.622, 135.834-254.412
		c-6.554-19.252, 4.966-33.638, 26.624,0.00C 920.934,655.668, 604.108,761.60, 604.108,898.612z"  />
<glyph unicode="&#x73;" d="M 312.832,820.276l0.00-607.59c-33.076,6.912-71.578,4.30-109.772-9.83c-85.862-31.898-116.172-109.568-93.388-173.364
	c 22.732-63.846, 89.958-89.652, 175.82-57.754c 72.908,27.084, 120.678,87.092, 119.45,143.718c0.00,0.00,0.00,322.202,0.00,501.914l 363.572,83.302l0.00-385.536 
	c-33.076,6.912-71.578,4.30-109.772-9.83c-85.914-31.898-116.224-109.568-93.44-173.364c 22.784-63.846, 89.958-89.652, 175.872-57.754
	c 72.96,27.084, 120.628,87.092, 119.50,143.718L 860.672,937.984 L 312.832,820.276z"  />
<glyph unicode="&#x75;" d="M 987.70,939.212c-5.53,16.128-22.988,24.628-38.964,19.046s-24.372-23.244-18.79-39.424c 47.104-136.704-46.388-238.796-117.606-293.428
		l-28.826,41.676c-9.626,13.926-31.334,25.548-48.128,25.804l-161.536-0.768c-16.794,0.256-41.78-7.526-55.604-17.254l-475.956-337.306
		c-23.04-16.332-28.724-48.486-12.544-71.834l 216.372-312.678c 16.128-23.348, 42.086-20.532, 65.126-4.25l 475.956,337.356
		c 13.824,9.728, 29.542,30.924, 35.124,47.002l 50.586,161.076c 5.478,16.076, 2.15,40.652-7.476,54.58l-17.612,25.396
		C 943.514,648.192, 1042.842,779.11, 987.70,939.212z M 766.26,460.186c-36.916-26.164-87.756-17.05-113.612,20.276
		c-25.804,37.324-16.844,88.78, 20.07,114.944c 29.286,20.788, 67.328,19.252, 94.72-0.922c-13.824-8.396-23.244-13.21-25.036-14.08
		c-15.258-7.27-21.812-25.702-14.592-41.164c 5.222-11.212, 16.18-17.818, 27.70-17.818c 4.352,0.00, 8.806,0.972, 13.004,2.97
		c 9.78,4.66, 20.378,10.342, 31.386,16.948C 804.812,510.976, 792.832,479.028, 766.26,460.186z"  />
<glyph unicode="&#x76;" d="M 572.468,225.076c0.00,74.292, 56.32,115.354, 148.172,176.18C 833.024,475.75, 972.80,568.422, 972.80,788.276c0.00,19.814-16.18,35.84-36.198,35.84l-175.668,0.00 
		C 736.102,869.99, 662.22,919.04, 512.00,919.04c-150.17,0.00-224.102-49.05-248.884-94.924L 87.45,824.116 C 67.43,824.116, 51.20,808.09, 51.20,788.276
		c0.00-219.852, 139.828-312.524, 252.212-386.97c 91.904-60.826, 148.224-101.888, 148.224-176.18l0.00-67.124 c-96.512-10.752-167.424-46.438-167.424-88.884
		c0.00-50.892, 101.99-92.16, 227.788-92.16c 125.85,0.00, 227.84,41.268, 227.84,92.16c0.00,42.444-70.912,78.132-167.424,88.884L 572.416,225.076 z M 714.598,483.84
		c 29.082,61.44, 52.07,144.742, 55.756,268.596l 128.46,0.00 C 886.58,614.246, 803.482,544.41, 714.598,483.84z M 512.00,856.268c 139.878,0.052, 194.56-57.14, 194.508-78.336
		c0.00-21.35-54.528-78.49-194.508-78.592C 372.122,699.494, 317.542,756.582, 317.542,777.932C 317.492,799.13, 372.122,856.372, 512.00,856.268z M 125.236,752.436l 128.41,0.00 
		C 257.382,628.582, 280.372,545.28, 309.402,483.84C 220.518,544.41, 137.472,614.246, 125.236,752.436z"  />
<glyph unicode="&#x77;" d="M 251.70,765.286c-82.432,0.00-149.30-68.762-149.30-153.60s 66.868-153.60, 149.30-153.60c 149.248,0.00, 49.766-296.96-149.30-296.96l0.00-71.628 
		C 457.626,89.498, 596.838,765.286, 251.70,765.286z M 681.728,765.286c-82.432,0.00-149.30-68.762-149.30-153.60s 66.868-153.60, 149.30-153.60c 149.248,0.00, 49.766-296.96-149.30-296.96
		l0.00-71.628 C 887.706,89.498, 1026.918,765.286, 681.728,765.286z"  />
<glyph unicode="&#x78;" d="M 459.06,847.462C 261.734,824.012, 105.37,667.596, 81.92,470.324l 377.14,0.00 L 459.06,847.462 z M 566.938,846.694l0.00-432.896 c0.00-28.364-22.988-51.354-51.404-51.354L 82.636,362.444 
	c 27.70-211.712, 208.538-375.194, 427.724-375.194c 238.388,0.00, 431.718,193.228, 431.718,431.718C 942.08,638.156, 778.598,818.996, 566.938,846.694z"  />
<glyph unicode="&#x79;" d="M 814.182,673.28c-106.444,0.00-223.078-59.29-302.182-149.248C 432.896,613.99, 316.212,673.28, 209.766,673.28C 108.34,673.28,0.00,614.092,0.00,448.00
	s 108.34-225.228, 209.766-225.28l0.00,0.00c 106.496,0.00, 223.13,59.29, 302.234,149.248c 79.104-89.958, 195.738-149.248, 302.182-149.248C 915.66,222.72, 1024.00,281.908, 1024.00,448.00
	S 915.66,673.28, 814.182,673.28z M 209.766,312.832c-77.414,0.00-116.684,45.466-116.684,135.168s 39.27,135.22, 116.684,135.22c 85.606,0.00, 185.036-55.604, 246.068-135.22
	C 394.804,368.384, 295.424,312.832, 209.766,312.832z M 814.182,312.832c-85.606,0.00-185.036,55.552-246.068,135.168c 60.98,79.616, 160.46,135.22, 246.068,135.22
	c 77.466,0.00, 116.684-45.516, 116.684-135.22S 891.648,312.832, 814.182,312.832z"  />
<glyph unicode="&#x7a;" d="M 522.394,931.276c-1.332,10.956-19.456,10.956-20.788,0.00C 456.396,567.348, 225.28,492.34, 225.28,239.412c0.00-156.212, 131.226-282.88, 286.72-282.88
	c 155.494,0.00, 286.72,126.72, 286.72,282.88C 798.72,492.34, 567.604,567.348, 522.394,931.276z M 478.772,528.998c-3.072-11.212-6.298-22.784-9.626-34.662
	c-20.532-72.908-43.828-155.596-43.828-251.188c0.00-51.814-30.618-70.196-59.238-70.196c-32.666,0.00-59.188,26.676-59.188,59.70
	c0.00,112.998, 54.426,186.778, 102.452,251.904c 15.052,20.378, 29.236,39.628, 40.806,58.88c 5.274,8.756, 19.508,8.396, 25.958-0.308
	C 479.028,538.932, 480.052,533.812, 478.772,528.998z"  />
<glyph unicode="&#x7b;" d="M 512.00,919.04c-260.148,0.00-471.04-210.892-471.04-471.04s 210.892-471.04, 471.04-471.04s 471.04,210.892, 471.04,471.04S 772.148,919.04, 512.00,919.04z M 512.00,294.40c-84.838,0.00-153.60,68.812-153.60,153.60
	c0.00,84.838, 68.762,153.60, 153.60,153.60c 84.788,0.00, 153.60-68.812, 153.60-153.60C 665.60,363.212, 596.788,294.40, 512.00,294.40z"  />
<glyph unicode="&#x7c;" d="M 135.372,634.522c 89.446,76.80, 160.154,137.574, 351.846,29.184c 92.108-52.07, 166.40-71.628, 228.25-71.628c 108.288,0.00, 178.432,60.262, 239.104,112.332
	c 21.658,18.586, 24.474,51.61, 6.246,73.676s-50.484,24.934-72.14,6.348c-89.446-76.852-160.102-137.574-351.898-29.184
	C 283.444,898.356, 164.762,796.416, 69.428,714.496C 47.82,695.91, 45.004,662.938, 63.18,640.87S 113.716,615.884, 135.372,634.522z M 888.628,522.956
	c-89.446-76.80-160.102-137.574-351.898-29.184C 283.444,636.876, 164.762,534.938, 69.428,453.068c-21.658-18.586-24.474-51.61-6.246-73.676
	s 50.484-24.934, 72.14-6.348c 89.446,76.852, 160.154,137.574, 351.846,29.236c 92.108-52.07, 166.40-71.68, 228.25-71.68c 108.288,0.00, 178.432,60.262, 239.104,112.384
	c 21.658,18.586, 24.474,51.558, 6.246,73.626C 942.592,538.726, 910.284,541.542, 888.628,522.956z M 888.628,261.478c-89.446-76.80-160.102-137.574-351.898-29.184
	c-253.286,143.104-372.02,41.216-467.302-40.704c-21.658-18.586-24.474-51.61-6.246-73.676s 50.484-24.934, 72.14-6.348
	C 224.82,188.416, 295.476,249.088, 487.22,140.80c 92.108-52.07, 166.40-71.68, 228.25-71.68c 108.288,0.00, 178.432,60.262, 239.104,112.384
	c 21.658,18.534, 24.474,51.558, 6.246,73.626S 910.284,280.116, 888.628,261.478z"  />
<glyph unicode="&#x7d;" d="M 798.72,725.606c0.00,109.568,0.00,120.268,0.00,120.268C 798.72,886.324, 670.362,960.00, 512.00,960.00S 225.28,886.324, 225.28,845.876c0.00,0.00,0.00-10.70,0.00-120.268
		c0.00-109.568, 198.502-200.038, 198.502-277.606c0.00-77.62-198.502-168.038-198.502-277.658c0.00-109.568,0.00-120.268,0.00-120.268C 225.28,9.676, 353.638-64.00, 512.00-64.00
		s 286.72,73.676, 286.72,114.124c0.00,0.00,0.00,10.70,0.00,120.268c0.00,109.62-198.452,200.038-198.452,277.658C 600.268,525.568, 798.72,616.09, 798.72,725.606z M 304.128,840.756
		c 35.636,22.476, 102.452,55.45, 210.636,55.45c 108.236,0.00, 205.108-55.45, 205.108-55.45c 7.27-4.404, 35.738-19.66, 16.23-31.18
		c-42.956-25.446-126.924-52.224-224.154-52.224S 333.62,786.892, 290.662,812.34C 271.156,823.91, 304.128,840.756, 304.128,840.756z M 537.652,448.00
		c0.00-61.082, 50.996-100.404, 105.062-152.884c 39.476-38.348, 93.44-90.828, 93.44-124.774l0.00-67.994 c-49.612,24.73-198.196,48.948-198.196,128.204
		c0.00,40.14-51.916,40.14-51.916,0.00c0.00-79.258-148.582-103.476-198.196-128.204l0.00,67.994 c0.00,33.894, 54.016,86.426, 93.492,124.774
		C 435.354,347.596, 486.348,386.918, 486.348,448.00c0.00,61.082-50.996,100.404-105.012,152.884C 341.862,639.232, 287.846,691.764, 287.846,725.606l-2.406,51.20
		C 337.972,748.544, 421.274,721.562, 512.00,721.562s 174.438,26.982, 226.97,55.244l-2.816-51.20c0.00-33.844-54.016-86.374-93.44-124.724
		C 588.646,548.404, 537.652,509.082, 537.652,448.00z"  />
<glyph unicode="&#x7e;" d="M 416.154,253.338c-35.328-61.236-11.572-111.616, 37.428-139.878s 104.55-23.756, 139.878,37.478c 35.328,61.184, 258.406,607.54, 239.002,618.752
	C 813.108,780.902, 451.482,314.572, 416.154,253.338z M 512.00,642.458c 22.426,0.00, 44.288-1.946, 65.588-5.53c 22.426,28.058, 47.564,58.982, 71.988,88.422
	C 605.952,737.996, 559.924,744.858, 512.00,744.858c-287.078,0.00-512.00-242.074-512.00-551.116c0.00-19.046, 0.87-38.042, 2.508-56.576
	c 2.508-28.16, 27.648-48.896, 55.552-46.438c 28.16,2.56, 48.948,27.392, 46.438,55.552C 103.116,161.792, 102.40,177.766, 102.40,193.74
	C 102.40,445.338, 282.368,642.458, 512.00,642.458z M 881.612,578.508c-14.284-38.40-29.388-77.516-42.70-111.36C 890.982,391.884, 921.60,297.524, 921.60,193.74
	c0.00-16.23-0.716-32.564-2.15-48.384c-2.56-28.16, 18.176-53.044, 46.336-55.654c 1.588-0.154, 3.124-0.204, 4.71-0.204
	c 26.164,0.00, 48.486,20.02, 50.892,46.54C 1023.13,154.982, 1024.00,174.388, 1024.00,193.74C 1024.00,344.832, 970.138,479.898, 881.612,578.508z"  />
<glyph unicode="&#xe001;" d="M 269.978,606.004c 10.292,0.00, 20.224-1.536, 29.542-4.454C 334.848,641.126, 374.016,677.172, 416.41,709.12C 414.668,716.544, 413.594,724.326, 413.594,732.364
	c0.00,11.162, 1.844,21.812, 5.222,31.744C 371.354,798.208, 319.642,826.778, 264.756,848.896C 213.196,817.05, 168.294,775.526, 132.506,726.886
	c 26.572-47.052, 58.214-90.932, 94.106-130.918C 239.77,602.368, 254.464,606.004, 269.978,606.004z M 169.78,505.804c0.00,14.028, 2.918,27.444, 8.14,39.578
	C 145.818,580.71, 116.634,618.804, 91.084,659.456C 59.084,595.866, 40.96,524.032, 40.96,448.00c0.00-88.116, 24.268-170.496, 66.356-240.998
	c 15.002,84.736, 43.572,164.864, 82.944,238.284C 177.46,462.08, 169.78,483.02, 169.78,505.804z M 513.792,832.614c 26.522,0.00, 50.484-10.342, 68.404-27.084
	c 52.276,22.476, 107.366,39.732, 164.66,50.74C 677.684,896.102, 597.556,919.04, 512.00,919.04c-58.316,0.00-114.124-10.70-165.632-30.106
	c 40.908-20.224, 79.924-43.724, 116.532-70.348C 477.85,827.444, 495.206,832.614, 513.792,832.614z M 663.706,360.55c 6.246,13.004, 15.104,24.474, 26.06,33.588
	c-29.594,91.034-76.442,174.284-136.806,245.964c-12.032-5.12-25.242-7.936-39.168-7.936c-21.708,0.00-41.78,7.014-58.214,18.74
	c-36.352-27.596-69.94-58.572-100.506-92.364C 364.596,543.232, 370.176,525.21, 370.176,505.804c0.00-10.496-1.588-20.532-4.556-30.054
	C 453.53,417.024, 554.70,376.73, 663.706,360.55z M 793.702,225.228c 1.332-18.944, 2.10-38.092, 2.10-57.396c0.00-34.048-2.202-67.482-6.298-100.404
	c 79.924,58.368, 140.698,141.158, 171.418,237.516c-36.352-8.806-73.626-15.104-111.668-18.74C 840.294,258.816, 819.916,236.596, 793.702,225.228z
	 M 640.204,293.222c-116.276,19.252-224.102,63.59-317.90,127.18c-15.258-9.37-33.076-14.848-52.276-14.848c-7.066,0.00-13.876,0.768-20.532,2.15
	c-44.902-85.196-73.626-180.224-81.92-280.884c 44.852-48.076, 99.584-86.784, 161.076-112.794C 404.94,131.328, 511.642,228.454, 640.204,293.222z M 828.212,797.082
	c-75.468-7.27-147.558-26.214-214.682-54.682c 0.41-3.276, 0.564-6.656, 0.564-10.036c0.00-15.82-3.738-30.72-10.292-43.98
	c 67.072-78.746, 119.142-170.496, 152.064-270.90c 40.704-0.768, 75.572-25.702, 90.572-61.184c 45.364,4.608, 89.498,13.312, 132.044,25.804
	C 981.402,403.61, 983.04,425.574, 983.04,448.00C 983.04,586.444, 923.29,710.964, 828.212,797.082z M 690.636,239.668c-120.064-56.218-220.364-142.796-293.068-248.628
	C 434.176-18.124, 472.524-23.04, 512.00-23.04c 71.116,0.00, 138.394,15.82, 198.81,43.98c 9.676,47.462, 14.848,96.564, 14.848,146.892
	c0.00,18.124-0.87,36.148-2.202,54.016C 711.372,225.69, 700.262,231.782, 690.636,239.668z"  />
<glyph unicode="&#xe002;" d="M 905.728,718.028c-25.702,152.474-164.864,254.31-310.732,227.38c-145.92-26.88-269.004-144.18-243.302-296.652C 357.274,615.936, 372.582,564.532, 390.758,527.668
	l-264.96-395.418c-9.78-14.592-15.308-40.908-12.39-58.42l 17.05-100.916c 2.97-17.51, 19.098-29.286, 35.84-26.214l 77.62,14.284
	c 16.794,3.124, 38.042,17.868, 47.308,32.82l 104.806,169.472l 0.922,1.076l 70.912,13.108l 122.316,198.554c 40.244-7.116, 97.894-4.71, 131.994,1.588
	C 868.148,404.532, 931.482,565.556, 905.728,718.028z M 776.50,639.898c-40.14-59.852-81.05-17.664-138.394,24.32
	c-57.292,41.932-109.312,67.738-69.172,127.59c 40.14,59.904, 119.092,74.496, 176.436,32.512C 802.714,782.388, 816.64,699.75, 776.50,639.898z"  />
<glyph unicode="&#xe003;" d="M 788.89,448.00c0.00,141.62, 65.382,221.184, 116.582,221.184c 18.636,0.00, 67.276,0.00, 67.276,0.00C 938.598,723.404, 910.336,755.20, 785.562,755.20L 273.152,755.20 
	C 81.972,755.20,0.00,579.02,0.00,448.00s 81.972-307.20, 273.152-307.20l 512.41,0.00 c 124.826,0.00, 153.036,31.796, 187.238,86.068c0.00,0.00-16.076,0.00-67.276,0.00S 788.89,306.432, 788.89,448.00z
	 M 649.626,356.148c-8.346-12.902-34.56-0.82-34.56-0.82l-151.398,68.404c0.00,0.00-13.516-34.252-23.962-58.368s-18.484-51.456-61.90-20.89
	c-43.468,30.566-183.296,166.40-183.296,166.40s-17.716,14.49-8.858,28.16C 193.996,551.936, 220.212,539.852, 220.212,539.852l 151.398-68.404
	c0.00,0.00, 13.516,34.202, 23.962,58.368C 406.016,553.882, 414.054,581.274, 457.472,550.708c 43.468-30.566, 183.348-166.452, 183.348-166.452S 658.432,369.818, 649.626,356.148z
	 M 966.40,554.138l-38.298,0.00 c-28.672,0.00-56.628-38.656-56.628-101.376s 28.006-101.324, 56.628-101.324l 38.298,0.00 c 28.62,0.00, 57.60,38.604, 57.60,101.324
	S 995.02,554.138, 966.40,554.138z"  />
<glyph unicode="&#xe004;" d="M 580.148,888.32L 580.148,888.32c-251.29,0.00-409.498-86.58-398.90-156.16C 184.32,712.294, 192.768,658.176, 203.468,590.08
	c-123.136-47.82-163.942-125.286-158.464-188.518c 6.452-74.804, 73.78-154.88, 221.594-168.756c 84.378-7.834, 185.908,38.40, 251.75,117.504
	c-6.298,10.65-9.882,22.938-9.882,36.198c0.00,39.578, 32.052,71.68, 71.628,71.68s 71.68-32.102, 71.68-71.68c0.00-39.014-31.232-70.708-70.042-71.578
	c-78.336-101.018-197.58-161.946-310.528-154.828c 2.612-16.64, 3.636-22.938, 4.916-31.386c 4.66-29.594, 120.166-120.832, 303.974-120.986l 0.052,0.00 
	c 183.808,0.154, 299.366,91.392, 303.974,120.986C 888.678,158.156, 968.192,661.504, 978.944,732.16C 989.594,801.69, 831.334,888.32, 580.148,888.32z M 116.428,407.808
	c-2.816,32.87, 23.296,76.646, 98.458,109.516c 10.804-68.66, 22.58-143.206, 32.922-208.64C 165.684,324.812, 119.91,367.616, 116.428,407.808z M 580.096,625.972
	C 396.288,626.074, 265.882,694.324, 265.882,719.77c-0.102,25.344, 130.406,93.696, 314.214,93.594c 183.808,0.102, 314.368-68.25, 314.266-93.594
	C 894.362,694.324, 763.956,626.074, 580.096,625.972z"  />
<glyph unicode="&#xe005;" d="M 622.796,45.62c-1.434-15.872, 11.11-29.90, 27.956-31.284l 204.032-16.742c 16.794-1.382, 31.796,10.394, 33.228,26.266l 15.974,168.244
	l-265.268,21.862L 622.796,45.62z M 120.012,192.052l 15.924-168.244c 1.484-15.872, 16.486-27.648, 33.28-26.266l 204.032,16.742
	c 16.794,1.382, 29.388,15.462, 27.904,31.284l-15.974,168.294L 120.012,192.052z M 93.748,469.35l 16.436-173.568l 265.268,21.812L 358.964,491.008
	C 358.604,495.156, 358.40,499.508, 358.40,503.756C 358.40,583.424, 427.316,648.192, 512.00,648.192s 153.60-64.82, 153.60-144.436c0.00-4.25-0.204-8.55-0.614-12.748l-16.384-173.414l 265.216-21.812
	l 16.436,173.568C 931.276,480.82, 931.84,492.34, 931.84,503.756C 931.84,721.46, 743.476,898.56, 512.00,898.56S 92.16,721.46, 92.16,503.756
	C 92.16,492.34, 92.724,480.82, 93.748,469.35z"  />
<glyph unicode="&#xe006;" d="M 956.62,376.422l-161.178,383.59c-12.698,25.60-46.49,46.54-75.11,46.54L 303.718,806.554 c-28.62,0.00-62.412-20.94-75.162-46.54l-161.126-383.59
		c-12.80-25.60-19.404-69.632-14.694-97.894l 34.816-188.724c 4.71-28.212, 31.898-51.302, 60.468-51.302l 728.064,0.00 c 28.62,0.00, 55.808,23.092, 60.518,51.302
		l 34.816,188.724C 975.974,306.74, 969.42,350.822, 956.62,376.422z M 886.784,241.972l-13.21-76.902c-3.994-29.542-30.618-53.708-59.084-53.708L 209.51,111.36 
		c-28.518,0.00-55.092,24.166-59.084,53.708l-13.26,76.902c-3.942,29.542, 16.128,53.708, 44.698,53.708l 660.276,0.00 
		C 870.708,295.628, 890.778,271.514, 886.784,241.972z"  />
<glyph unicode="&#xe007;" d="M 512.00,867.84c-219.084,0.00-355.226-72.192-347.852-130.764l 73.83-607.59C 240.896,105.83, 351.692,28.314, 512.00,28.16
		c 160.358,0.154, 271.104,77.722, 274.074,101.324l 73.78,607.59C 867.226,795.648, 731.136,867.84, 512.00,867.84z M 512.00,648.14C 351.692,648.294, 237.926,705.382, 237.926,726.732
		C 237.876,747.93, 351.692,805.172, 512.00,805.068c 160.308,0.052, 274.124-57.14, 274.074-78.336C 786.074,705.382, 672.358,648.294, 512.00,648.14z"  />
<glyph unicode="&#xe008;" d="M 921.60,755.20l-51.20,0.00 l0.00-768.00 l 51.20,0.00 c 56.32,0.00, 102.40,46.08, 102.40,102.40L 1024.00,652.80 C 1024.00,709.12, 977.92,755.20, 921.60,755.20z M0.00,652.80l0.00-563.20 c0.00-56.32, 46.08-102.40, 102.40-102.40l 51.20,0.00 L 153.60,755.20 L 102.40,755.20 C 46.08,755.20,0.00,709.12,0.00,652.80z M 686.08,862.362
	C 651.212,878.592, 595.558,908.80, 512.00,908.80S 372.788,878.592, 337.92,862.362L 337.92,755.20 L 225.28,755.20 l0.00-768.00 l 573.44,0.00 L 798.72,755.20 L 686.08,755.20 L 686.08,862.362 z M 624.64,755.20L 399.36,755.20 L 399.36,823.552 C 426.65,835.328, 465.818,847.36, 512.00,847.36
	s 85.30-11.98, 112.64-23.756L 624.64,755.20 z"  />
<glyph unicode="&#xe009;" d="M 512.00,341.556c 122.368,0.00, 224.82,41.574, 231.014,95.898c-18.176,51.046-38.042,106.70-57.548,161.434c-13.516-39.014-88.32-66.56-173.466-66.56
	S 352.102,559.82, 338.484,598.836C 318.976,544.102, 299.212,488.50, 280.986,437.402C 287.18,383.13, 389.58,341.556, 512.00,341.556z M 512.00,684.852
	c 57.498,0.00, 110.95,17.818, 126.618,45.466c-21.556,60.57-40.09,112.486-51.814,145.254C 579.072,897.434, 543.796,908.80, 512.00,908.80S 444.928,897.434, 437.196,875.622
	c-11.724-32.768-30.208-84.736-51.814-145.254C 401.05,702.668, 454.502,684.852, 512.00,684.852z M 961.536,291.02l-192.256,77.466l 22.17-61.798
	c-1.126-65.434-128.256-117.658-279.45-117.658s-278.324,52.224-279.398,117.658l 22.118,61.798L 62.464,291.02c-53.914-21.76-56.166-61.952-5.068-89.344
	l 361.574-193.894c 51.148-27.392, 134.86-27.392, 186.01,0.00l 361.574,193.894C 1017.754,229.068, 1015.45,269.26, 961.536,291.02z"  />
<glyph unicode="&#xe015;" d="M 389.734,741.99c-18.79,17.664-44.186,17.664-63.028,0.00L0.00,448.00l 326.708-293.94c 18.842-17.716, 44.236-17.716, 63.028,0.00s 18.79,46.388,0.00,64.102
	L 136.09,448.00l 253.696,229.786C 408.524,695.50, 408.524,724.224, 389.734,741.99z M 697.292,741.99c-18.842,17.664-44.186,17.664-63.028,0.00
	c-18.79-17.766-17.818-46.438, 1.076-64.154L 887.91,448.00l-252.62-229.836c-18.842-17.716-19.866-46.388-1.076-64.102
	c 18.842-17.716, 44.186-17.716, 63.028,0.00L 1024.00,448.00L 697.292,741.99z"  />
<glyph unicode="&#xe016;" d="M 367.872-21.504c 40.396-26.112, 87.194-43.776, 144.128-42.394
	c 56.934-1.382, 103.68,16.282, 144.076,42.394L 656.076,84.48 L 367.872,84.48 L 367.872-21.504 z M 650.036,145.972c0.00,223.028, 237.108,294.40, 219.34,516.556
	C 858.214,802.714, 763.238,960.00, 512.00,960.00S 165.786,802.714, 154.624,662.528c-17.766-222.208, 219.29-293.53, 219.29-516.556L 650.036,145.972 z M 263.066,654.438
	C 273.716,787.508, 364.236,854.988, 512.00,854.988c 147.764,0.00, 238.284-67.482, 248.884-200.55c 5.786-72.858-36.096-121.446-92.672-201.012
	c-41.626-58.676-90.88-127.948-113.92-218.164L 469.658,235.264 c-23.04,90.214-72.244,159.436-113.972,218.164C 299.162,533.044, 257.28,581.58, 263.066,654.438z"  />
<glyph unicode="&#xe017;" d="M 921.60,806.40L 102.40,806.40 C 46.08,806.40,0.00,760.32,0.00,704.00l0.00-512.00 c0.00-56.32, 46.08-102.40, 102.40-102.40l 819.20,0.00 c 56.32,0.00, 102.40,46.08, 102.40,102.40L 1024.00,704.00 C 1024.00,760.32, 977.92,806.40, 921.60,806.40z M 921.60,192.00L 102.40,192.00 L 102.40,499.20 l 819.20,0.00 L 921.60,192.00 z M 921.60,652.80L 102.40,652.80 L 102.40,704.00 l 819.20,0.00 L 921.60,652.80 z
	 M 204.80,391.68L 204.80,360.96 l 30.72,0.00 L 235.52,391.68 L 204.80,391.68 z M 389.12,330.24L 389.12,299.52 l 61.44,0.00 L 450.56,330.24 L 481.28,330.24 l0.00,30.72 L 512.00,360.96 L 512.00,391.68 L 450.56,391.68 L 450.56,360.96 L 419.84,360.96 l0.00-30.72 L 389.12,330.24 z M 512.00,299.52L 512.00,330.24 L 481.28,330.24 L 481.28,299.52 L 512.00,299.52 z M 358.40,299.52
	L 358.40,330.24 L 296.96,330.24 L 296.96,299.52 L 358.40,299.52 z M 389.12,360.96l 30.72,0.00 L 419.84,391.68 L 358.40,391.68 l0.00-61.44 l 30.72,0.00 L 389.12,360.96 z M 266.24,330.24l 30.72,0.00 l0.00,30.72 l 30.72,0.00 L 327.68,391.68 L 266.24,391.68 L 266.24,360.96 L 235.52,360.96 l0.00-30.72 L 204.80,330.24 L 204.80,299.52 l 61.44,0.00 L 266.24,330.24 z"  />
<glyph unicode="&#xe018;" d="M 856.422,302.592c-43.212-69.836-180.992-120.884-344.422-120.884c-163.328,0.00-301.21,51.046-344.372,120.884C 158.464,317.388, 153.60,309.452, 153.60,302.132
	c0.00-7.372,0.00-102.502,0.00-102.502C 153.60,100.352, 314.06-2.56, 512.00-2.56s 358.40,102.912, 358.40,202.188c0.00,0.00,0.00,95.13,0.00,102.502C 870.40,309.452, 865.484,317.388, 856.422,302.592z
	 M 856.934,564.48c-42.444-61.748-180.838-107.008-344.934-107.008s-302.49,45.26-344.934,107.008C 158.26,577.228, 153.60,570.316, 153.60,564.532c0.00-5.786,0.00-120.628,0.00-120.628
	c0.00-90.266, 160.46-163.38, 358.40-163.38s 358.40,73.114, 358.40,163.38c0.00,0.00,0.00,114.842,0.00,120.628C 870.40,570.316, 865.69,577.228, 856.934,564.48z M 512.00,898.56
	c-197.94,0.00-358.40-60.314-358.40-134.758l0.00-64.46 c0.00-78.95, 160.46-142.95, 358.40-142.95s 358.40,64.00, 358.40,142.95L 870.40,763.75 C 870.40,838.246, 709.94,898.56, 512.00,898.56z"  />
<glyph unicode="&#xe019;" d="M 788.48,662.988c-130.10,0.00-235.572-105.472-235.572-235.52c0.00-49.408, 15.258-95.232, 41.268-133.12L 429.824,294.348 C 455.782,332.236, 471.04,378.112, 471.04,427.52
	c0.00,130.048-105.472,235.52-235.52,235.52S0.00,557.568,0.00,427.52S 105.472,192.00, 235.52,192.00l 552.96,0.00 c 130.048,0.00, 235.52,105.472, 235.52,235.52S 918.528,662.988, 788.48,662.988z M 102.40,427.52
	c0.00,73.524, 59.596,133.12, 133.12,133.12s 133.12-59.596, 133.12-133.12c0.00-73.574-59.596-133.12-133.12-133.12S 102.40,353.946, 102.40,427.52z M 788.48,294.40c-73.574,0.00-133.172,59.546-133.172,133.12
	c0.00,73.524, 59.596,133.12, 133.172,133.12c 73.524,0.00, 133.12-59.596, 133.12-133.12C 921.60,353.946, 862.004,294.40, 788.48,294.40z"  />
<glyph unicode="&#xe01a;" d="M 798.72,857.60L 737.28,704.00L 286.72,704.00 L 225.28,857.60C 185.856,857.60, 153.60,825.344, 153.60,785.92l0.00-778.24 C 153.60-31.744, 185.856-64.00, 225.28-64.00l 573.44,0.00 c 39.476,0.00, 71.68,32.256, 71.68,71.68L 870.40,785.92 
	C 870.40,825.344, 838.144,857.60, 798.72,857.60z M 696.32,755.20l 46.08,102.40l-111.616,0.00 L 593.92,960.00L 430.08,960.00 L 393.216,857.60L 281.60,857.60 l 46.08-102.40L 696.32,755.20 z"  />
<glyph unicode="&#xe01b;" d="M 204.80,89.60c0.00-56.524, 45.876-102.40, 102.40-102.40c 56.576,0.00, 102.40,45.876, 102.40,102.40s-45.824,102.40-102.40,102.40C 250.676,192.00, 204.80,146.124, 204.80,89.60z M 716.80,89.60c0.00-56.524, 45.876-102.40, 102.40-102.40
	c 56.576,0.00, 102.40,45.876, 102.40,102.40s-45.824,102.40-102.40,102.40C 762.676,192.00, 716.80,146.124, 716.80,89.60z M 386.406,331.674L 953.14,493.568C 963.942,496.692, 972.80,508.416, 972.80,519.68L 972.80,801.28 L 250.88,801.28 L 250.88,888.32 
	C 250.88,899.584, 241.716,908.80, 230.40,908.80L 71.68,908.80 C 60.416,908.80, 51.20,899.584, 51.20,888.32L 51.20,806.40 l 99.482,0.00 l 100.762-463.718L 261.172,294.40l0.00-76.80 c0.00-11.264, 9.216-20.48, 20.428-20.48L 307.20,197.12 l 512.00,0.00 l 133.172,0.00 
	C 963.584,197.12, 972.80,206.336, 972.80,217.60L 972.80,294.40 L 396.902,294.40 C 338.074,294.40, 336.844,317.44, 386.406,331.674z"  />
<glyph unicode="&#xe01c;" d="M 942.08,857.60L 81.92,857.60 C 64.972,857.60, 51.20,843.828, 51.20,826.88L 51.20,704.00 l 921.60,0.00 L 972.80,826.88 C 972.80,843.828, 959.028,857.60, 942.08,857.60z M 102.40,110.08C 102.40,70.656, 134.656,38.40, 174.08,38.40l 675.84,0.00 
	c 39.476,0.00, 71.68,32.256, 71.68,71.68L 921.60,652.80 L 102.40,652.80 L 102.40,110.08 z M 358.40,550.40l 307.20,0.00 l0.00-102.40 L 358.40,448.00 L 358.40,550.40 z"  />
<glyph unicode="&#xe01d;" d="M 251.188,369.05l 181.862-181.862l 333.67,333.67l-181.914,181.862L 251.188,369.05z M 978.176,618.804l-77.414,77.364
	c-14.796-7.988-31.59-12.596-49.612-12.596c-57.19,0.00-103.578,46.388-103.578,103.628c0.00,17.972, 4.506,34.868, 12.596,49.612l-77.414,77.364
	c-20.224,20.172-53.094,20.172-73.318,0.00L 45.824,350.516c-20.172-20.172-20.172-53.146,0.00-73.318l 77.414-77.414c 14.746,8.038, 31.642,12.596, 49.562,12.596
	c 57.242,0.00, 103.628-46.336, 103.628-103.578c0.00-17.972-4.556-34.868-12.646-49.612l 77.364-77.414c 20.172-20.172, 53.146-20.172, 73.318,0.00l 563.712,563.712
	C 998.298,565.658, 998.298,598.63, 978.176,618.804z M 433.05,103.988l-265.012,265.062l 416.87,416.82L 849.92,520.858L 433.05,103.988z"  />
<glyph unicode="&#xe01e;" d="M 102.502,816.692l0.00-121.242 c 362.804,0.00, 656.896-294.144, 656.896-656.948l 121.292,0.00 C 880.692,468.276, 532.276,816.692, 102.502,816.692z M 102.502,574.156l0.00-121.292 
		c 228.864,0.00, 414.412-185.498, 414.412-414.362l 121.19,0.00 C 638.106,334.284, 398.336,574.156, 102.502,574.156z M 218.726,270.95c-64.154,0.00-116.224-52.07-116.224-116.276
		s 52.07-116.224, 116.224-116.224c 64.204,0.00, 116.276,52.02, 116.276,116.224S 282.932,270.95, 218.726,270.95z"  />
<glyph unicode="&#xe01f;" d="M 512.00,243.20c-56.012,0.00-101.324-45.876-101.324-102.40S 455.988,38.40, 512.00,38.40c 55.962,0.00, 101.324,45.876, 101.324,102.40S 567.962,243.20, 512.00,243.20z M 296.96,357.99l 71.68-72.396
		c 79.156,79.974, 207.514,79.974, 286.72,0.00l 71.68,72.396C 608.256,478.004, 415.692,478.004, 296.96,357.99z M 153.60,502.836l 71.628-72.396
		c 158.362,159.948, 415.078,159.948, 573.44,0.00L 870.40,502.836C 672.46,702.772, 351.54,702.772, 153.60,502.836z M 10.24,647.628L 81.92,575.232c 237.568,239.924, 622.644,239.924, 860.16,0.00
		l 71.68,72.396C 736.666,927.59, 287.334,927.59, 10.24,647.628z"  />
<glyph unicode="&#xe020;" d="M 645.172,454.81L 645.172,908.80 c0.00,28.262-22.938,51.20-51.20,51.20L 419.84,960.00 C 391.526,960.00, 378.88,937.062, 378.88,908.80l0.00-453.99 C 293.428,407.756, 235.52,316.876, 235.52,212.48
	c0.00-152.678, 123.802-276.48, 276.48-276.48s 276.48,123.802, 276.48,276.48C 788.48,316.876, 730.572,407.756, 645.172,454.81z M 512.00,38.40c-96.154,0.00-174.08,77.926-174.08,174.08
	c0.00,79.564, 53.452,146.432, 126.362,167.27L 464.282,755.20 l 102.40,0.00 l0.00-377.498 c 69.324-22.938, 119.45-88.218, 119.45-165.222C 686.08,116.326, 608.154,38.40, 512.00,38.40z"  />
<glyph unicode="&#xe021;" d="M 202.496,955.238c-0.768,6.348-11.264,6.348-11.98,0.00C 164.352,744.55, 30.72,701.132, 30.72,554.70c0.00-90.47, 75.878-163.788, 165.786-163.788
	s 165.786,73.318, 165.786,163.788C 362.292,701.132, 228.66,744.55, 202.496,955.238z M 833.484,955.238c-0.82,6.348-11.212,6.348-11.98,0.00
	c-26.164-210.688-159.796-254.106-159.796-400.538c0.00-90.47, 75.878-163.788, 165.786-163.788S 993.28,464.23, 993.28,554.70C 993.28,701.132, 859.648,744.55, 833.484,955.238
	z M 506.01,500.326C 479.846,289.638, 346.214,246.272, 346.214,99.84c0.00-90.522, 75.878-163.84, 165.786-163.84s 165.786,73.37, 165.786,163.84
	c0.00,146.38-133.632,189.798-159.796,400.486C 517.222,506.726, 506.778,506.726, 506.01,500.326z"  />
<glyph unicode="&#xe022;" d="M 921.60,755.20L 460.80,755.20 l0.00-256.00 l 512.00,0.00 L 972.80,704.00 C 972.80,732.262, 949.914,755.20, 921.60,755.20z M 51.20,192.00c0.00-28.314, 12.698-51.20, 40.96-51.20L 358.40,140.80 l0.00,256.00 L 51.20,396.80 L 51.20,192.00 z M 460.80,140.80l 460.80,0.00 c 28.314,0.00, 51.20,22.886, 51.20,51.20l0.00,204.80 L 460.80,396.80 L 460.80,140.80 z
		 M 51.20,704.00l0.00-204.80 l 307.20,0.00 L 358.40,755.20 L 92.16,755.20 C 63.898,755.20, 51.20,732.262, 51.20,704.00z" />
<glyph unicode="&#xe023;" d="M 35.328,379.802l 69.786-17.306l 52.532,82.534L 57.804,469.76c-24.986,6.246-50.228-8.908-56.422-33.792
	C-4.812,411.188, 10.394,385.996, 35.328,379.802z M 946.228,366.49l-228.506-205.722l-268.698,207.924c-5.12,3.994-11.008,6.81-17.306,8.396
	l-35.788,8.806l-52.532-82.484l 56.268-13.876l 291.738-225.69c 8.448-6.604, 18.484-9.78, 28.57-9.78c 11.212,0.00, 22.426,3.994, 31.232,11.98
	l 257.382,231.68c 19.098,17.204, 20.532,46.49, 3.328,65.484C 994.764,382.208, 965.324,383.692, 946.228,366.49z M 444.62,592.332l 250.214-160.204
	c 21.094-13.466, 49.152-7.884, 63.436,12.646l 257.434,370.79c 14.592,21.094, 9.318,49.92-11.828,64.512s-50.124,9.268-64.768-11.776l-231.834-333.926
	L 455.526,695.552C 445.132,702.208, 432.486,704.46, 420.352,701.798S 397.722,691.814, 391.116,681.37L 7.27,78.796c-13.824-21.606-7.372-50.176, 14.336-63.898
	C 29.338,9.984, 37.99,7.68, 46.54,7.68c 15.412,0.00, 30.464,7.578, 39.322,21.504L 444.62,592.332z"  />
<glyph unicode="&#xe024;" d="M 809.012,550.298L 716.80,550.298 l0.00,71.68 c0.00,148.326-68.30,235.52-204.80,235.52c-136.448,0.00-204.80-87.194-204.80-235.52l0.00-71.68 L 204.80,550.298 c-28.262,0.00-51.20-33.126-51.20-61.44l0.00-399.36 
		c0.00-28.16, 21.964-58.316, 48.742-66.918l 61.236-19.814c 26.778-8.652, 71.732-15.718, 99.942-15.718l 296.96,0.00 c 28.16,0.00, 73.164,7.066, 99.942,15.718l 61.236,19.814
		C 848.486,31.18, 870.40,61.338, 870.40,89.498l0.00,399.36 C 870.40,517.172, 837.274,550.298, 809.012,550.298z M 409.60,642.458c0.00,73.984, 40.858,112.64, 102.40,112.64
		c 61.594,0.00, 102.40-38.656, 102.40-112.64l0.00-92.16 L 409.60,550.298 L 409.60,642.458 z"  />
<glyph unicode="&#xe025;" d="M 808.96,550.40L 716.80,550.40 L 716.80,673.28 C 716.80,821.606, 648.448,908.80, 512.00,908.80C 375.50,908.80, 307.20,821.606, 307.20,673.28L 307.20,652.80 l 102.40,0.00 L 409.60,693.76 C 409.60,767.744, 450.406,806.40, 512.00,806.40c 61.542,0.00, 102.40-38.656, 102.40-112.64L 614.40,550.40 L 204.80,550.40 
		C 176.486,550.40, 153.60,517.274, 153.60,488.96L 153.60,89.60 c0.00-28.16, 21.964-58.266, 48.742-66.918l 61.236-19.814C 290.406-5.734, 335.36-12.80, 363.52-12.80l 296.96,0.00 
		c 28.212,0.00, 73.164,7.066, 99.942,15.718l 61.236,19.814C 848.436,31.334, 870.40,61.44, 870.40,89.60L 870.40,488.96 C 870.40,517.274, 837.274,550.40, 808.96,550.40z"  />
<glyph unicode="&#xe026;" d="M 564.276,89.60L 152.576,89.60 L 152.576,806.40 l 411.648,0.00 l0.00-153.60 L 665.60,652.80 L 665.60,806.40 c0.00,56.32-46.028,102.40-102.40,102.40L 153.60,908.80 C 97.28,908.80, 51.20,862.72, 51.20,806.40l0.00-716.80 c0.00-56.32, 46.08-102.40, 102.40-102.40l 409.60,0.00 c 56.372,0.00, 102.40,46.08, 102.40,102.40l0.00,102.40 l-101.324,0.00 L 564.276,89.60 z
	 M 972.80,422.40l-203.724,199.68L 769.076,499.20 l-460.80,0.00 l0.00-153.60 l 460.80,0.00 l0.00-122.88 L 972.80,422.40z"  />
<glyph unicode="&#xe027;" d="M 870.40,908.80L 409.60,908.80 C 353.28,908.80, 308.224,862.72, 308.224,806.40l0.00-153.60 L 409.60,652.80 L 409.60,806.40 l 460.80,0.00 l0.00-716.80 L 409.60,89.60 l0.00,102.40 L 308.224,192.00 l0.00-102.40 c0.00-56.32, 45.056-102.40, 101.376-102.40l 460.80,0.00 c 56.32,0.00, 102.40,46.08, 102.40,102.40L 972.80,806.40 C 972.80,862.72, 926.72,908.80, 870.40,908.80z
	 M 512.00,222.72l 204.80,199.68l-204.80,199.68L 512.00,499.20 L 51.20,499.20 l0.00-153.60 l 460.80,0.00 L 512.00,222.72 z"  />
<glyph unicode="&#xe028;" d="M 424.704,89.60c-22.272,0.00-43.366,10.394-56.884,28.314L 184.832,359.476c-23.808,31.436-17.612,76.186, 13.824,99.994
			c 31.488,23.86, 76.186,17.612, 99.994-13.824l 120.372-158.924l 302.694,485.94c 20.838,33.434, 64.87,43.674, 98.356,22.836
			c 33.434-20.788, 43.674-64.87, 22.784-98.304L 485.324,123.238c-12.442-20.02-33.894-32.564-57.396-33.588C 426.854,89.60, 425.78,89.60, 424.704,89.60z"  />
<glyph unicode="&#xe029;" d="M 734.668,286.618L 593.46,448.00l 141.21,161.382c 24.012,24.012, 24.012,62.924,0.00,86.886c-24.012,23.962-62.924,23.962-86.886,0.00L 512.00,541.082
		l-135.732,155.136c-24.012,24.012-62.924,24.012-86.886,0.00c-23.962-24.012-23.962-62.924,0.00-86.886L 430.54,448.00l-141.21-161.382
		c-23.962-24.012-23.962-62.822,0.00-86.784c 24.012-24.012, 62.924-24.012, 86.886,0.00L 512.00,354.918l 135.732-155.084c 24.012-24.012, 62.924-24.012, 86.886,0.00
		S 758.63,262.604, 734.668,286.618z"  />
<glyph unicode="&#xe02a;" d="M 819.20,857.60L 204.80,857.60 C 148.48,857.60, 102.40,811.52, 102.40,755.20l0.00-614.40 c0.00-56.32, 46.08-102.40, 102.40-102.40l 614.40,0.00 c 56.32,0.00, 102.40,46.08, 102.40,102.40L 921.60,755.20 C 921.60,811.52, 875.52,857.60, 819.20,857.60z M 768.00,396.80L 256.00,396.80 L 256.00,499.20 l 512.00,0.00 L 768.00,396.80 z"  />
<glyph unicode="&#xe02b;" d="M 819.20,857.60L 204.80,857.60 C 148.48,857.60, 102.40,811.52, 102.40,755.20l0.00-614.40 c0.00-56.32, 46.08-102.40, 102.40-102.40l 614.40,0.00 c 56.32,0.00, 102.40,46.08, 102.40,102.40L 921.60,755.20 C 921.60,811.52, 875.52,857.60, 819.20,857.60z M 768.00,396.80l-204.80,0.00 l0.00-204.80 L 460.80,192.00 l0.00,204.80 L 256.00,396.80 L 256.00,499.20 l 204.80,0.00 L 460.80,704.00 l 102.40,0.00 l0.00-204.80 l 204.80,0.00 L 768.00,396.80 z"  />
<glyph unicode="&#xe02c;" d="M 819.20,857.60L 204.80,857.60 C 148.48,857.60, 102.40,811.52, 102.40,755.20l0.00-614.40 c0.00-56.32, 46.08-102.40, 102.40-102.40l 614.40,0.00 c 56.32,0.00, 102.40,46.08, 102.40,102.40L 921.60,755.20 C 921.60,811.52, 875.52,857.60, 819.20,857.60z M 668.724,202.804L 512.00,359.476
	l-156.724-156.724l-88.474,88.524L 423.476,448.00l-156.672,156.672l 88.474,88.524L 512.00,536.524l 156.672,156.672l 88.524-88.474L 600.524,448.00l 156.724-156.724L 668.724,202.804z"  />
<glyph unicode="&#xe02d;" d="M 512.00,878.08c-237.568,0.00-430.08-192.614-430.08-430.08c0.00-237.568, 192.564-430.08, 430.08-430.08c 237.516,0.00, 430.08,192.564, 430.08,430.08C 942.08,685.516, 749.516,878.08, 512.00,878.08z
		 M 770.56,500.326l0.00-104.704 L 253.44,395.622 L 253.44,500.326 L 770.56,500.326 z"  />
<glyph unicode="&#xe02e;" d="M 512.00,878.08c-237.568,0.00-430.08-192.614-430.08-430.08c0.00-237.568, 192.564-430.08, 430.08-430.08c 237.516,0.00, 430.08,192.564, 430.08,430.08C 942.08,685.516, 749.516,878.08, 512.00,878.08z
		 M 564.326,395.674l0.00-206.182 L 459.674,189.492 l0.00,206.182 L 253.44,395.674 L 253.44,500.326 l 206.182,0.00 L 459.622,706.56 l 104.704,0.00 l0.00-206.182 l 206.182,0.00 l0.00-104.704 L 564.326,395.674 z"  />
<glyph unicode="&#xe02f;" d="M 512.00,878.08c-237.568,0.00-430.08-192.614-430.08-430.08c0.00-237.568, 192.564-430.08, 430.08-430.08c 237.516,0.00, 430.08,192.564, 430.08,430.08C 942.08,685.516, 749.516,878.08, 512.00,878.08z
		 M 600.524,448.00l 156.724-156.724l-88.524-88.524L 512.00,359.476l-156.724-156.724l-88.474,88.524L 423.476,448.00l-156.672,156.672l 88.474,88.524L 512.00,536.524l 156.724,156.672
		l 88.524-88.474L 600.524,448.00z"  />
<glyph unicode="&#xe030;" d="M 778.188,499.20L 245.76,499.20 c-28.314,0.00-30.72-22.938-30.72-51.20s 2.406-51.20, 30.72-51.20l 532.428,0.00 c 28.314,0.00, 30.772,22.938, 30.772,51.20S 806.502,499.20, 778.188,499.20z"  />
<glyph unicode="&#xe031;" d="M 778.188,499.20l-215.04,0.00 L 563.148,714.24 c0.00,28.262-22.886,30.72-51.20,30.72c-28.262,0.00-51.20-2.406-51.20-30.72L 460.748,499.20 L 245.76,499.20 c-28.314,0.00-30.72-22.938-30.72-51.20s 2.406-51.20, 30.72-51.20l 214.988,0.00 
		l0.00-215.04 c0.00-28.262, 22.938-30.72, 51.20-30.72c 28.314,0.00, 51.20,2.458, 51.20,30.72L 563.148,396.80 l 215.04,0.00 c 28.314,0.00, 30.772,22.938, 30.772,51.20S 806.502,499.20, 778.188,499.20z"  />
<glyph unicode="&#xe032;" d="M 921.60,806.40L 432.436,806.40 c-22.528,0.00-54.836-12.134-71.782-26.982L 12.698,474.982c-16.948-14.848-16.948-39.116,0.00-53.964l 347.956-304.486
	C 377.60,101.734, 409.908,89.60, 432.436,89.60L 921.60,89.60 c 56.372,0.00, 102.40,46.08, 102.40,102.40L 1024.00,704.00 C 1024.00,760.32, 977.972,806.40, 921.60,806.40z M 777.78,243.20l-130.918,130.918L 516.044,243.20l-73.932,73.882
	L 572.98,448.00L 442.112,578.868L 516.044,652.80l 130.868-130.868L 777.78,652.80l 73.882-73.932L 720.844,448.00l 130.868-130.868L 777.78,243.20z"  />
<glyph unicode="&#xe033;" d="M 512.00,939.52c-271.462,0.00-491.52-220.058-491.52-491.52s 220.058-491.52, 491.52-491.52c 271.514,0.00, 491.52,220.058, 491.52,491.52S 783.514,939.52, 512.00,939.52z M 776.50,712.396
		l-0.102,0.102C 776.396,712.448, 776.50,712.396, 776.50,712.396z M 138.036,448.00c0.00,206.54, 167.424,373.964, 373.964,373.964c 89.804,0.00, 172.236-31.642, 236.748-84.378
		L 222.464,211.354C 169.676,275.814, 138.036,358.196, 138.036,448.00z M 247.50,183.604l 0.102-0.102C 247.552,183.552, 247.552,183.552, 247.50,183.604z M 512.00,73.984
		c-89.804,0.00-172.186,31.692-236.646,84.428L 801.484,684.646c 52.788-64.46, 84.48-146.842, 84.48-236.646C 886.016,241.46, 718.49,73.984, 512.00,73.984z"  />
<glyph unicode="&#xe034;" d="M 636.518,960.00c 68.608,0.00, 102.912-46.796, 102.912-100.25c0.00-66.764-59.596-128.564-137.114-128.564c-65.024,0.00-102.912,38.40-101.12,101.836
		C 501.196,886.528, 546.252,960.00, 636.518,960.00z M 425.42-64.00c-54.17,0.00-93.85,33.382-55.962,180.378l 62.156,260.66c 10.804,41.728, 12.596,58.47,0.00,58.47
		c-16.282,0.00-86.528-28.826-128.102-57.242L 276.48,423.372c 131.738,111.924, 283.238,177.51, 348.212,177.51c 54.118,0.00, 63.078-65.126, 36.096-165.324l-71.22-274.022
		c-12.596-48.436-7.22-65.126, 5.376-65.126c 16.282,0.00, 69.478,20.122, 121.804,61.85l 30.72-41.728C 619.418-13.824, 479.54-64.00, 425.42-64.00z"  />
<glyph unicode="&#xe035;" d="M 505.702,918.988c-260.096-3.482-468.172-217.19-464.692-477.338c 3.482-259.994, 217.19-468.122, 477.286-464.64
		c 260.096,3.482, 468.172,217.19, 464.692,477.338C 979.558,714.394, 765.798,922.47, 505.702,918.988z M 557.926,762.01c 47.872,0.00, 62.004-27.75, 62.004-59.546
		c0.00-39.68-31.796-76.39-86.016-76.39c-45.364,0.00-66.918,22.836-65.638,60.518C 468.276,718.388, 494.90,762.01, 557.926,762.01z M 435.148,153.60
		c-32.716,0.00-56.678,19.866-33.792,107.212l 37.53,154.828c 6.502,24.832, 7.578,34.764,0.00,34.764c-9.78,0.00-52.276-17.152-77.414-34.048l-16.332,26.778
		c 79.616,66.458, 171.162,105.472, 210.38,105.472c 32.716,0.00, 38.144-38.708, 21.812-98.252l-43.008-162.816c-7.578-28.774-4.30-38.708, 3.276-38.708
		c 9.78,0.00, 41.984,11.878, 73.626,36.762l 18.484-24.832C 552.346,183.398, 467.916,153.60, 435.148,153.60z"  />
<glyph unicode="&#xe036;" d="M 721.408,845.62C 662.988,887.756, 589.722,908.80, 501.452,908.80C 434.278,908.80, 377.652,893.952, 331.622,864.358C 258.56,817.972, 219.75,739.226, 215.04,628.122l 169.268,0.00 
		c0.00,32.358, 9.42,63.54, 28.314,93.542s 50.944,45.004, 96.154,45.004c 45.926,0.00, 77.62-12.186, 94.924-36.506c 17.356-24.422, 26.01-51.404, 26.01-80.998
		c0.00-25.754-12.902-49.306-28.468-70.758c-8.55-12.492-19.866-23.962-33.844-34.508c0.00,0.00-91.802-58.88-132.148-106.188
		c-23.398-27.444-25.498-68.506-27.546-127.436c-0.154-4.198, 1.434-12.852, 16.128-12.852s 118.63,0.00, 131.686,0.00s 15.77,9.676, 15.974,13.926
		c 0.922,21.452, 3.328,32.41, 7.27,44.80c 7.424,23.398, 27.494,43.828, 50.124,61.388l 46.592,32.154c 42.036,32.768, 75.622,59.648, 90.42,80.742
		C 791.194,565.146, 808.96,607.846, 808.96,658.484C 808.96,741.172, 779.724,803.532, 721.408,845.62z M 498.74,195.892c-58.368,1.74-106.496-38.604-108.34-101.888
		c-1.844-63.232, 43.93-105.012, 102.298-106.752c 60.928-1.792, 107.776,37.274, 109.62,100.506C 604.108,151.04, 559.668,194.10, 498.74,195.892z"  />
<glyph unicode="&#xe037;" d="M 505.754,918.988c-260.148-3.482-468.224-217.19-464.742-477.338c 3.482-259.994, 217.19-468.122, 477.338-464.64
	c 260.044,3.482, 468.172,217.19, 464.64,477.338C 979.558,714.394, 765.85,922.47, 505.754,918.988z M 504.372,161.28L 501.76,161.28 c-40.038,1.178-68.30,30.72-67.174,70.196
	c 1.126,38.758, 30.054,66.97, 68.812,66.97l 2.356-0.052c 41.164-1.228, 69.12-30.464, 67.892-71.066C 572.518,188.468, 544.00,161.28, 504.372,161.28z
	 M 672.87,495.718c-9.472-13.364-30.156-30.004-56.268-50.33l-28.774-19.866c-15.77-12.288-25.292-23.808-28.826-35.124
	c-2.868-9.012-4.198-11.316-4.454-29.492l-0.052-4.66L 444.774,356.25 l 0.308,9.318c 1.332,38.196, 2.304,60.62, 18.124,79.206
	c 24.832,29.132, 79.616,64.41, 81.92,65.894c 7.834,5.94, 14.438,12.646, 19.404,19.814c 11.52,15.872, 16.588,28.416, 16.588,40.652
	c0.00,17.05-5.068,32.82-15.052,46.848c-9.626,13.568-27.904,20.428-54.324,20.428c-26.214,0.00-44.134-8.346-54.886-25.396
	C 445.748,595.456, 440.218,577.076, 440.218,558.234l0.00-4.71 l-113.152,0.00 l 0.204,4.916c 2.918,69.324, 27.648,119.194, 73.524,148.326C 429.568,725.35, 465.408,734.72, 507.188,734.72
	c 54.732,0.00, 101.018-13.312, 137.37-39.526c 36.864-26.572, 55.552-66.406, 55.552-118.324C 700.108,547.788, 690.944,520.50, 672.87,495.718z"  />
<glyph unicode="&#xe038;" d="M 999.014,39.322L 542.924,839.628C 536.628,850.688, 524.80,857.498, 512.00,857.498c-12.80,0.00-24.576-6.81-30.924-17.868L 25.036,39.322
		c-6.196-10.854-6.092-24.116, 0.256-34.868s 18.022-17.356, 30.618-17.356l 912.128,0.00 c 12.492,0.00, 24.218,6.604, 30.618,17.356
		C 1005.004,15.206, 1005.108,28.468, 999.014,39.322z M 568.32,89.498L 455.68,89.498 l0.00,102.40 l 112.64,0.00 L 568.32,89.498 z M 568.32,268.698L 455.68,268.698 l0.00,307.20 l 112.64,0.00 L 568.32,268.698 z"  />
<glyph unicode="&#xe039;" d="M 282.42,231.732c-115.814,124.57-113.766,319.744, 6.502,440.884c 49.254,49.562, 110.796,79.156, 174.796,88.884L 460.186,867.84
	C 370.38,856.934, 283.444,816.844, 214.58,747.52C 53.35,585.114, 51.456,323.072, 208.282,157.082l-89.14-89.754l 282.112-15.412l-0.768,298.70L 282.42,231.732z
	 M 622.694,844.032l 0.768-298.70l 118.118,118.938c 115.814-124.57, 113.818-319.744-6.502-440.884c-49.254-49.612-110.796-79.156-174.848-88.884l 3.532-106.292
	c 89.856,10.906, 176.794,50.996, 245.658,120.372c 161.178,162.356, 163.174,424.448, 6.246,590.388l 89.14,89.754L 622.694,844.032z"  />
<glyph unicode="&#xe03a;" d="M 449.178,867.84c 227.636,0.00, 412.724-182.374, 418.252-409.344L 993.28,458.496 l-188.364-209.972l-188.364,209.972l 146.228,0.00 C 757.30,627.508, 619.06,762.88, 449.178,762.88
			c-173.364,0.00-313.856-140.954-313.856-314.88s 140.492-314.88, 313.856-314.88c 69.53,0.00, 133.734,22.732, 185.754,61.082l 71.936-77.004
			C 635.852,61.44, 546.406,28.16, 449.178,28.16C 218.06,28.16, 30.72,216.116, 30.72,448.00C 30.72,679.884, 218.06,867.84, 449.178,867.84z"  />
<glyph unicode="&#xe03b;" d="M 574.772,867.84c-227.584,0.00-412.672-182.374-418.252-409.344L 30.72,458.496 l 188.364-209.92l 188.314,209.92L 261.172,458.496 C 266.70,627.508, 404.94,762.88, 574.772,762.88
			c 173.414,0.00, 313.908-140.954, 313.908-314.88s-140.492-314.88-313.908-314.88c-69.478,0.00-133.684,22.732-185.702,61.082l-71.988-77.004
			C 388.096,61.44, 477.542,28.16, 574.772,28.16c 231.168,0.00, 418.56,187.956, 418.56,419.84C 993.28,679.884, 805.888,867.84, 574.772,867.84z"  />
<glyph unicode="&#xe03c;" d="M 772.762,617.268L 808.96,617.268 l0.00-103.066 l 215.04,184.32l-215.04,184.32l0.00-122.214 l-36.198,0.00 c-189.082,0.00-295.732-140.134-389.836-263.782
	c-84.634-111.206-157.696-207.258-275.764-207.258L0.00,289.588 l0.00-143.412 l 107.162,0.00 c 189.132,0.00, 295.732,140.186, 389.888,263.834C 581.632,521.268, 654.694,617.268, 772.762,617.268z
	 M 277.044,526.95c 8.038,10.444, 16.18,21.094, 24.422,31.898c 20.02,26.316, 41.164,54.068, 64.052,81.716C 297.882,703.744, 216.268,750.388, 107.162,750.388L0.00,750.388 l0.00-143.36 
	l 107.162,0.00 C 175.104,607.028, 228.148,575.13, 277.044,526.95z M 808.96,279.398l-36.198,0.00 c-72.038,0.00-127.284,35.788-178.688,88.986
	c-5.172-6.708-10.292-13.516-15.514-20.378c-22.58-29.594-46.90-61.492-73.676-92.98c 69.478-67.788, 153.652-118.988, 267.878-118.988L 808.96,136.038 l0.00-122.88 l 215.04,184.32
	l-215.04,184.422L 808.96,279.398 z"  />
<glyph unicode="&#xe044;" d="M 512.00,857.498l-266.24-249.856l 168.96,0.00 l0.00-262.144 l 194.56,0.00 l0.00,262.144 l 169.012,0.00 L 512.00,857.498z M 990.208,266.548l-163.02,109.67l-100.506,0.00 l 174.08-133.53l-181.504,0.00 
		c-5.222,0.00-9.882-2.662-12.288-6.81l-41.78-114.432L 358.81,121.446 l-41.83,114.432c-2.304,4.148-7.066,6.81-12.288,6.81L 123.238,242.688 l 174.132,133.53L 196.812,376.218 
		l-162.97-109.67c-24.268-14.49-38.758-47.924-32.256-74.188l 28.724-157.388c 6.502-26.316, 35.38-47.872, 64.052-47.872l 835.226,0.00 
		c 28.774,0.00, 57.60,21.556, 64.102,47.872l 28.724,157.388C 1029.018,218.676, 1014.476,252.058, 990.208,266.548z"  />
<glyph unicode="&#xe045;" d="M 990.208,266.548l-163.02,109.67l-100.506,0.00 l 174.08-133.53l-181.504,0.00 c-5.222,0.00-9.882-2.662-12.288-6.81l-41.78-114.432L 358.81,121.446 l-41.83,114.432
	c-2.304,4.148-7.066,6.81-12.288,6.81L 123.238,242.688 l 174.132,133.53L 196.812,376.218 l-162.97-109.67c-24.268-14.49-38.758-47.924-32.256-74.188l 28.724-157.388
	c 6.502-26.316, 35.38-47.872, 64.052-47.872l 835.226,0.00 c 28.774,0.00, 57.60,21.556, 64.102,47.872l 28.724,157.388
	C 1029.018,218.676, 1014.476,252.058, 990.208,266.548z M 778.292,595.354L 609.28,595.354 l0.00,262.144 l-194.56,0.00 l0.00-262.144 L 245.76,595.354 l 266.24-249.856L 778.292,595.354z"  />
<glyph unicode="&#xe043;" d="M 870.40,642.56l-194.56,0.00 L 675.84,499.20 l 153.60,0.00 l0.00-215.04 L 194.56,284.16 L 194.56,499.20 L 409.60,499.20 l0.00-112.64 l 204.80,184.32L 409.60,755.20l0.00-112.64 L 153.60,642.56 c-56.524,0.00-102.40-45.824-102.40-102.40L 51.20,243.20 c0.00-56.524, 45.876-102.40, 102.40-102.40l 716.80,0.00 c 56.576,0.00, 102.40,45.876, 102.40,102.40L 972.80,540.16 
	C 972.80,596.736, 926.976,642.56, 870.40,642.56z"  />
<glyph unicode="&#xe047;" d="M 574.822,867.84c-227.636,0.00-412.724-182.374-418.252-409.344L 30.72,458.496 l 188.364-209.972l 188.314,209.972L 261.172,458.496 C 266.70,627.508, 404.94,762.88, 574.822,762.88
	c 173.364,0.00, 313.856-140.954, 313.856-314.88s-140.492-314.88-313.856-314.88c-69.53,0.00-133.734,22.732-185.754,61.082l-71.988-77.004
	C 388.148,61.44, 477.594,28.16, 574.822,28.16c 231.116,0.00, 418.508,187.956, 418.508,419.84C 993.28,679.884, 805.888,867.84, 574.822,867.84z M 537.60,673.28l0.00-240.128 l 153.856-153.856
	l 50.688,50.688L 609.28,462.848L 609.28,673.28 L 537.60,673.28 z"  />
<glyph unicode="&#xe04d;" d="M 993.178,580.404L 611.994,682.496L 545.28,931.43c-5.58,20.788-27.852,32.922-49.766,27.034L 30.874,833.996
	C 8.96,828.16-4.25,806.502, 1.28,785.716l 165.324-617.062c 5.58-20.788, 27.852-32.922, 49.716-27.034l 184.986,49.562l-25.242-94.106
	c-5.58-20.838, 7.628-42.444, 29.542-48.332l 415.232-111.258c 21.914-5.836, 44.186,6.246, 49.766,27.034l 152.116,567.604
	C 1028.30,552.908, 1015.092,574.566, 993.178,580.404z M 83.66,774.042l 400.844,107.316l 148.428-553.882l-400.896-107.316L 83.66,774.042z M 802.764,14.592
	l-348.928,95.436L 481.28,212.582l 199.732,53.504c 21.914,5.888, 35.174,27.494, 29.594,48.332l-77.21,288.102l 304.436-83.508L 802.764,14.592z"  />
<glyph unicode="&#xe052;" d="M 876.80,592.742l-104.756,288.564c-7.732,21.30-30.464,32.564-50.636,25.19L 25.242,652.39C 5.018,645.068-5.172,621.824, 2.56,600.524
		l 110.438-304.23L 112.998,459.366 c0.00,73.574, 58.778,133.376, 131.124,133.376l 183.962,0.00 l 219.392,154.01l 126.976-154.01L 876.80,592.742 z M 984.986,500.378L 244.122,500.378 
		c-21.504,0.00-39.014-18.38-39.014-41.062l0.00-482.356 c0.00-22.63, 17.46-41.062, 39.014-41.062l 740.864,0.00 c 21.556,0.00, 39.014,18.38, 39.014,41.062L 1024.00,459.366 
		C 1024.00,481.996, 1006.54,500.378, 984.986,500.378z M 928.46,38.554L 314.316,38.554 l0.00,88.012 l 94.464,219.904l 141.772-175.974l 132.966,136.294l 170.956,61.696l 73.984-164.966
		L 928.46,38.554 z"  />
</font>
</defs>
</svg>
