<?xml version="1.0" encoding="UTF-8" standalone="no"?>
<!-- Created with Inkscape (http://www.inkscape.org/) -->

<svg
   width="600"
   height="315"
   viewBox="0 0 158.75 83.34375"
   version="1.1"
   id="svg8"
   inkscape:version="1.2.2 (1:1.2.2+202212051552+b0a8486541)"
   sodipodi:docname="rust-for-cpp.svg"
   inkscape:export-filename="../rust-4-cpp-constructors.png"
   inkscape:export-xdpi="192"
   inkscape:export-ydpi="192"
   xml:space="preserve"
   xmlns:inkscape="http://www.inkscape.org/namespaces/inkscape"
   xmlns:sodipodi="http://sodipodi.sourceforge.net/DTD/sodipodi-0.dtd"
   xmlns="http://www.w3.org/2000/svg"
   xmlns:svg="http://www.w3.org/2000/svg"
   xmlns:rdf="http://www.w3.org/1999/02/22-rdf-syntax-ns#"
   xmlns:cc="http://creativecommons.org/ns#"
   xmlns:dc="http://purl.org/dc/elements/1.1/"><defs
     id="defs2" /><sodipodi:namedview
     id="base"
     pagecolor="#ffffff"
     bordercolor="#666666"
     borderopacity="1.0"
     inkscape:pageopacity="1"
     inkscape:pageshadow="2"
     inkscape:zoom="1.4"
     inkscape:cx="77.857143"
     inkscape:cy="140"
     inkscape:document-units="mm"
     inkscape:current-layer="layer1"
     showgrid="true"
     units="px"
     inkscape:snap-bbox="true"
     inkscape:bbox-paths="true"
     inkscape:window-width="2560"
     inkscape:window-height="1362"
     inkscape:window-x="1920"
     inkscape:window-y="41"
     inkscape:window-maximized="1"
     inkscape:pagecheckerboard="true"
     inkscape:bbox-nodes="true"
     inkscape:snap-bbox-edge-midpoints="true"
     inkscape:showpageshadow="2"
     inkscape:deskcolor="#d1d1d1"
     inkscape:lockguides="true"><inkscape:grid
       type="xygrid"
       id="grid838" /></sodipodi:namedview><metadata
     id="metadata5"><rdf:RDF><cc:Work
         rdf:about=""><dc:format>image/svg+xml</dc:format><dc:type
           rdf:resource="http://purl.org/dc/dcmitype/StillImage" /></cc:Work></rdf:RDF></metadata><g
     inkscape:label="Layer 1"
     inkscape:groupmode="layer"
     id="layer1"
     transform="translate(0,-213.65623)"><path
       style="fill:#000000;stroke-width:0.0223513"
       d="m 20.494114,256.09151 c -0.103623,-0.0426 -0.181683,-0.14906 -0.504177,-0.6874 l -0.355114,-0.59279 -0.09002,-0.0105 c -0.04951,-0.007 -0.131304,-0.0151 -0.181757,-0.0204 l -0.09173,-0.009 -0.472953,0.52106 c -0.511131,0.56312 -0.53954,0.58488 -0.734562,0.56291 -0.105771,-0.012 -0.18866,-0.0611 -0.256035,-0.15173 -0.02227,-0.03 -0.141552,-0.33577 -0.265075,-0.67953 -0.123522,-0.34377 -0.228291,-0.62875 -0.232818,-0.63327 -0.0046,-0.003 -0.08366,-0.0315 -0.175869,-0.06 l -0.167635,-0.0517 -0.543761,0.40263 c -0.299068,0.22145 -0.568966,0.4124 -0.599775,0.42433 -0.03081,0.012 -0.108093,0.0175 -0.171744,0.0125 -0.148261,-0.0119 -0.258384,-0.0922 -0.306165,-0.22339 -0.02697,-0.074 -0.215117,-1.26256 -0.215117,-1.3589 0,-0.0208 -0.292969,-0.17814 -0.331698,-0.17814 -0.01095,0 -0.29003,0.12699 -0.620194,0.28219 -0.330164,0.1552 -0.637119,0.28712 -0.682121,0.29315 -0.170912,0.0229 -0.348831,-0.0987 -0.396434,-0.27118 -0.01398,-0.0507 -0.0108,-0.28296 0.0092,-0.67674 0.01676,-0.32983 0.03073,-0.6349 0.03105,-0.67792 5e-4,-0.0693 -0.01512,-0.0908 -0.137728,-0.18853 l -0.138292,-0.11029 -0.655946,0.16337 c -0.722163,0.17987 -0.795284,0.18644 -0.930151,0.0836 -0.08872,-0.0677 -0.148348,-0.18234 -0.149139,-0.2868 -3.14e-4,-0.0411 0.07195,-0.36708 0.160575,-0.72427 l 0.161145,-0.6494 -0.110286,-0.1383 c -0.129596,-0.1625 -0.03158,-0.1506 -0.877003,-0.10656 -0.389434,0.0203 -0.6141219,0.0235 -0.665562,0.009 -0.1728573,-0.0477 -0.2947676,-0.22544 -0.2718533,-0.39627 0.00602,-0.0447 0.1379336,-0.35109 0.2931596,-0.68062 0.1552271,-0.32951 0.2822317,-0.60876 0.2822317,-0.62053 0,-0.0466 -0.1587372,-0.33323 -0.1846799,-0.33347 -0.1202919,-0.001 -1.343651,-0.20412 -1.3973352,-0.23189 -0.1026004,-0.053 -0.1680754,-0.15977 -0.1785664,-0.29106 -0.00503,-0.0626 6.747e-4,-0.13895 0.012573,-0.16969 0.011916,-0.0307 0.2026865,-0.30018 0.4239295,-0.5988 l 0.40226,-0.54291 -0.052327,-0.16963 c -0.028791,-0.0933 -0.055996,-0.17327 -0.060465,-0.17775 -0.00449,-0.004 -0.2889968,-0.10878 -0.6322657,-0.2317 -0.3432714,-0.12296 -0.6486516,-0.24183 -0.6786254,-0.26417 -0.090764,-0.0677 -0.1398127,-0.1504 -0.1517301,-0.25614 -0.021984,-0.19502 -2.125e-4,-0.22342 0.5629137,-0.73455 l 0.5210627,-0.47296 -0.00962,-0.0917 c -0.00529,-0.0504 -0.014472,-0.13225 -0.020411,-0.18177 l -0.010797,-0.09 -0.592796,-0.35511 c -0.3880745,-0.23248 -0.6097818,-0.37893 -0.6419767,-0.42406 -0.070029,-0.0982 -0.070029,-0.33028 0,-0.42846 0.032204,-0.0452 0.2539022,-0.19158 0.6419767,-0.42406 l 0.592796,-0.3551 0.010797,-0.09 c 0.00595,-0.0495 0.015122,-0.13131 0.020423,-0.18177 l 0.00962,-0.0917 -0.5210638,-0.47295 c -0.5631244,-0.51114 -0.5848952,-0.53955 -0.5629137,-0.73456 0.01191,-0.10575 0.060968,-0.18854 0.1517306,-0.25614 0.029975,-0.0223 0.3353534,-0.14121 0.6786217,-0.26417 0.3432695,-0.12296 0.6277887,-0.22723 0.6322665,-0.2317 0.00449,-0.004 0.031674,-0.0845 0.060465,-0.17776 l 0.052339,-0.1696 -0.4022601,-0.54293 c -0.221243,-0.2986 -0.4120123,-0.56807 -0.4239296,-0.5988 -0.011916,-0.0307 -0.017579,-0.10715 -0.012573,-0.16969 0.010493,-0.13128 0.075966,-0.238 0.1785664,-0.29106 0.053691,-0.0278 1.2770428,-0.23079 1.3973354,-0.2319 0.025936,-2.3e-4 0.1846794,-0.28686 0.1846794,-0.33346 0,-0.0118 -0.1270048,-0.29102 -0.2822313,-0.62054 -0.1552258,-0.3295 -0.2871488,-0.63577 -0.2931596,-0.68059 -0.022919,-0.17084 0.098996,-0.34855 0.2718539,-0.39627 0.051439,-0.0142 0.276126,-0.0117 0.665561,0.009 0.845417,0.0441 0.747407,0.0559 0.877003,-0.10656 l 0.110285,-0.13828 -0.161144,-0.64942 c -0.08863,-0.35716 -0.160889,-0.68308 -0.160575,-0.72425 8.07e-4,-0.10446 0.06042,-0.21913 0.149139,-0.2868 0.134866,-0.10283 0.207987,-0.0963 0.93015,0.0836 l 0.655947,0.16338 0.138292,-0.1103 c 0.122602,-0.0978 0.138227,-0.11916 0.137727,-0.1885 -3.11e-4,-0.0431 -0.01428,-0.3481 -0.03105,-0.67793 -0.02001,-0.39378 -0.02317,-0.62616 -0.0092,-0.67674 0.0476,-0.1724 0.225522,-0.29412 0.396434,-0.27119 0.045,0.006 0.351958,0.13796 0.682121,0.29316 0.330165,0.1552 0.609251,0.28218 0.620194,0.28218 0.03873,0 0.3317,-0.15733 0.3317,-0.17813 0,-0.0963 0.188144,-1.28485 0.215117,-1.35891 0.04779,-0.13118 0.157902,-0.21152 0.306163,-0.22338 0.06365,-0.005 0.140937,5.1e-4 0.171745,0.0125 0.0308,0.012 0.300706,0.20285 0.599775,0.42431 l 0.54376,0.40265 0.167636,-0.0517 c 0.0922,-0.0285 0.171341,-0.0554 0.175868,-0.06 0.0046,-0.004 0.109296,-0.28949 0.232818,-0.63326 0.123523,-0.34378 0.242806,-0.64956 0.265074,-0.67955 0.06738,-0.0907 0.150262,-0.13979 0.256036,-0.15173 0.195024,-0.0219 0.223433,-2.1e-4 0.734562,0.56292 l 0.472954,0.52107 0.09173,-0.009 c 0.05046,-0.005 0.132245,-0.0143 0.181756,-0.0204 l 0.09003,-0.0105 0.355114,-0.5928 c 0.232476,-0.38808 0.378925,-0.60979 0.424059,-0.64198 0.09817,-0.07 0.330283,-0.07 0.428454,0 0.04514,0.0322 0.19152,0.25381 0.423824,0.64158 l 0.354879,0.59242 0.123784,0.0131 c 0.06808,0.007 0.149509,0.017 0.180951,0.022 0.05012,0.008 0.115586,-0.0554 0.531161,-0.51329 0.512249,-0.56435 0.540535,-0.58604 0.735602,-0.56405 0.10577,0.0119 0.188658,0.061 0.256036,0.15172 0.02227,0.03 0.141552,0.33578 0.265074,0.67955 0.123522,0.34377 0.227838,0.62828 0.231811,0.63225 0.0041,0.004 0.08355,0.0307 0.176841,0.0597 l 0.169616,0.0523 0.542923,-0.40225 c 0.298608,-0.22125 0.568069,-0.41202 0.598801,-0.42394 0.03073,-0.0119 0.107953,-0.0175 0.17161,-0.0125 0.148261,0.0119 0.258386,0.0922 0.306165,0.22338 0.02697,0.074 0.215117,1.26256 0.215117,1.3589 0,0.0217 0.293767,0.17814 0.334486,0.17814 0.01248,0 0.291464,-0.12697 0.619973,-0.28217 0.328509,-0.15518 0.634209,-0.28711 0.679335,-0.29315 0.17139,-0.023 0.34903,0.0986 0.396826,0.27178 0.0142,0.0515 0.01109,0.27612 -0.0092,0.66555 -0.04401,0.84397 -0.05515,0.7481 0.10137,0.87289 0.07323,0.0584 0.146944,0.10622 0.163809,0.10622 0.01685,0 0.308407,-0.0704 0.647872,-0.15647 0.339466,-0.086 0.653902,-0.15645 0.698745,-0.15645 0.181708,0 0.341731,0.14288 0.362064,0.32328 0.0085,0.0756 -0.02792,0.25658 -0.15216,0.75544 l -0.163375,0.65596 0.110287,0.13828 c 0.129598,0.16251 0.03157,0.15061 0.877003,0.10657 0.389436,-0.0203 0.614123,-0.0235 0.665562,-0.009 0.172858,0.0477 0.294769,0.22542 0.271854,0.39626 -0.0061,0.0448 -0.137933,0.35109 -0.29316,0.68061 -0.155227,0.32951 -0.282231,0.60876 -0.282231,0.62052 0,0.0466 0.158732,0.33325 0.18468,0.33351 0.124101,0.001 1.341357,0.20291 1.396138,0.23124 0.103739,0.0537 0.169232,0.15991 0.179763,0.29169 0.005,0.0626 -6.34e-4,0.13894 -0.01257,0.16967 -0.01192,0.0307 -0.202688,0.3002 -0.42393,0.5988 l -0.402261,0.54293 0.05235,0.16962 c 0.02878,0.0933 0.05559,0.17289 0.05961,0.17688 0.0041,0.003 0.28796,0.10785 0.631025,0.2307 0.343068,0.12287 0.648839,0.24214 0.679495,0.26502 0.09473,0.0707 0.142535,0.15392 0.153394,0.26692 0.0181,0.1884 -0.01241,0.22756 -0.570077,0.73204 l -0.514375,0.46532 0.0097,0.092 c 0.0053,0.0505 0.01447,0.13228 0.02039,0.18161 l 0.01074,0.0896 0.583161,0.34618 c 0.678933,0.40302 0.700895,0.42332 0.700895,0.64791 0,0.22459 -0.02195,0.24489 -0.700895,0.6479 l -0.583161,0.34619 -0.01246,0.10085 c -0.0069,0.0554 -0.01693,0.13637 -0.02241,0.17978 -0.0098,0.078 -0.0037,0.0846 0.506446,0.54607 0.559818,0.50643 0.590207,0.54541 0.572098,0.73388 -0.01085,0.11298 -0.05868,0.19619 -0.153393,0.26692 -0.03066,0.0229 -0.336427,0.14215 -0.679496,0.26503 -0.343065,0.12288 -0.627478,0.22714 -0.632031,0.23169 -0.0047,0.004 -0.03158,0.0838 -0.0601,0.17622 l -0.05181,0.16795 0.402753,0.54358 c 0.221512,0.29897 0.412501,0.56873 0.424421,0.59947 0.01191,0.0307 0.01758,0.10714 0.01257,0.16968 -0.0105,0.13178 -0.07602,0.23804 -0.179763,0.29169 -0.05479,0.0284 -1.272037,0.22993 -1.396139,0.23123 -0.02594,2.7e-4 -0.18468,0.28692 -0.18468,0.3335 0,0.0118 0.127006,0.29102 0.282233,0.62054 0.155226,0.32952 0.287147,0.63579 0.29316,0.68061 0.02292,0.17084 -0.099,0.34853 -0.271855,0.39626 -0.05144,0.0142 -0.276126,0.0117 -0.665561,-0.009 -0.845667,-0.0441 -0.747423,-0.0558 -0.877371,0.10493 l -0.110649,0.13691 0.163743,0.65743 c 0.124551,0.50006 0.16106,0.68123 0.15253,0.75691 -0.02033,0.1804 -0.180357,0.32328 -0.362063,0.32328 -0.04486,0 -0.35928,-0.0704 -0.698746,-0.15646 -0.339466,-0.086 -0.631853,-0.15646 -0.64975,-0.15646 -0.01789,0 -0.09166,0.0477 -0.163907,0.10622 -0.154334,0.12473 -0.143413,0.0287 -0.0994,0.87289 0.02031,0.38943 0.02342,0.61411 0.0092,0.66556 -0.0478,0.17311 -0.225436,0.29476 -0.396826,0.27177 -0.04514,-0.007 -0.350826,-0.13797 -0.679335,-0.29315 -0.328508,-0.15519 -0.607497,-0.28217 -0.619973,-0.28217 -0.04072,0 -0.334487,0.15646 -0.334487,0.17815 0,0.0963 -0.188144,1.28484 -0.215116,1.35888 -0.04779,0.1312 -0.157903,0.21153 -0.306164,0.2234 -0.06365,0.005 -0.140877,-4.9e-4 -0.171611,-0.0125 -0.03073,-0.012 -0.300193,-0.2027 -0.598801,-0.42394 l -0.542923,-0.40226 -0.169615,0.0523 c -0.09329,0.0287 -0.172867,0.0556 -0.176842,0.0595 -0.0041,0.004 -0.108291,0.28849 -0.231811,0.63225 -0.123523,0.34377 -0.242806,0.64958 -0.265074,0.67955 -0.06738,0.0907 -0.150262,0.13979 -0.256036,0.15172 -0.195067,0.0219 -0.223353,2.9e-4 -0.735603,-0.56405 -0.415573,-0.45785 -0.481038,-0.52112 -0.531159,-0.51328 -0.03144,0.005 -0.112867,0.0148 -0.180952,0.0219 l -0.123784,0.0131 -0.354879,0.59242 c -0.228009,0.38061 -0.379007,0.60957 -0.422362,0.64046 -0.06797,0.0484 -0.27752,0.0762 -0.349797,0.0464 z m 1.151093,-3.57176 c 0.813032,-0.0879 1.561492,-0.26131 2.333595,-0.54063 0.266226,-0.0963 0.776572,-0.31089 0.811882,-0.34134 0.009,-0.008 0.08192,-0.42616 0.162142,-0.92983 0.128649,-0.80775 0.153842,-0.93208 0.213629,-1.05427 0.123608,-0.25262 0.371124,-0.40908 0.64711,-0.40908 0.07275,0 0.512412,0.0603 0.977031,0.13403 0.464618,0.0738 0.864878,0.13368 0.889464,0.13324 0.02774,-4.9e-4 0.112528,-0.0779 0.223512,-0.2038 0.215989,-0.24522 0.524133,-0.62701 0.524786,-0.6502 2.59e-4,-0.009 -0.91733,-0.0169 -2.039086,-0.0172 -1.74014,-2.8e-4 -2.06058,-0.005 -2.182761,-0.0341 -0.35572,-0.0838 -0.669181,-0.3513 -0.866399,-0.73922 -0.187164,-0.36814 -0.250234,-0.59149 -0.532615,-1.88617 -0.25671,-1.17698 -0.552931,-1.72519 -1.06831,-1.97714 -0.327225,-0.15996 -0.298093,-0.15741 -1.792679,-0.15741 H 18.60543 v 0.88289 0.88287 l 1.104356,0.006 c 0.770167,0.003 1.113426,0.0133 1.134327,0.0307 0.04164,0.0347 0.0447,2.92375 0.0032,2.96531 -0.02066,0.0206 -0.944714,0.0268 -4.023235,0.0268 -2.198027,0 -3.996201,0.008 -3.995941,0.0168 6.34e-4,0.0232 0.308797,0.40498 0.524784,0.6502 0.11694,0.13277 0.195144,0.20331 0.226017,0.20387 0.02596,4.8e-4 0.425498,-0.0594 0.887857,-0.13324 0.462357,-0.0738 0.900895,-0.13411 0.974528,-0.13411 0.27769,0 0.524788,0.15583 0.648716,0.40909 0.05977,0.12218 0.08497,0.24647 0.213486,1.05339 0.08014,0.50318 0.148074,0.91689 0.150967,0.91935 0.0326,0.0277 0.337016,0.16364 0.586395,0.26182 0.929429,0.36593 1.913548,0.58968 2.916844,0.66319 0.375219,0.0275 1.301025,0.0105 1.687525,-0.0317 z m -6.638337,-0.81783 c 0.14886,-0.0713 0.292041,-0.21832 0.364363,-0.37427 0.04806,-0.10364 0.05917,-0.16068 0.05968,-0.30659 5.55e-4,-0.15792 -0.008,-0.19693 -0.07223,-0.32728 -0.238069,-0.48359 -0.861455,-0.58228 -1.224748,-0.19388 -0.156209,0.167 -0.19972,0.28069 -0.199628,0.52162 6.7e-5,0.17474 0.0083,0.21791 0.06246,0.32863 0.07624,0.15573 0.243869,0.31181 0.402176,0.37446 0.162335,0.0643 0.448636,0.0536 0.60791,-0.0226 z m 11.844273,0.0225 c 0.162383,-0.0607 0.330404,-0.21468 0.408519,-0.37425 0.0542,-0.11076 0.06241,-0.15387 0.06247,-0.32862 8.9e-5,-0.24093 -0.04342,-0.35462 -0.199627,-0.52162 -0.363294,-0.3884 -0.986678,-0.28971 -1.224748,0.19388 -0.06417,0.13035 -0.07279,0.16937 -0.07223,0.32728 5.11e-4,0.14552 0.01167,0.20305 0.05918,0.30552 0.09108,0.19633 0.278716,0.35898 0.487794,0.42281 0.113567,0.0347 0.352503,0.0222 0.478632,-0.025 z m -12.54834,-9.27462 v -3.17389 h -0.826998 c -0.454849,0 -0.826998,0.005 -0.826998,0.0117 0,0.007 0.06789,0.14389 0.150872,0.3057 l 0.150871,0.29418 -2.02e-4,0.20278 c -1.56e-4,0.1764 -0.0083,0.2194 -0.06258,0.33026 -0.106108,0.21675 -0.201839,0.28122 -1.068537,0.71966 -0.434994,0.22005 -0.807239,0.4141 -0.827212,0.4312 -0.05682,0.0487 -0.09795,0.59257 -0.09685,1.28091 0.0012,0.746 0.04562,1.21249 0.179791,1.88756 0.06486,0.32635 0.179672,0.78186 0.21255,0.84328 0.02074,0.0389 0.09351,0.0407 1.518541,0.0407 h 1.496761 z m 14.095439,3.09811 c 0.293381,-0.0781 0.539452,-0.28162 0.676058,-0.55911 0.11414,-0.23184 0.140255,-0.38141 0.152605,-0.87383 0.0091,-0.36073 0.01789,-0.45457 0.04588,-0.48614 0.03114,-0.0351 0.08752,-0.039 0.554083,-0.039 h 0.519413 l 0.01662,-0.37437 c 0.02187,-0.49266 -0.02819,-1.55991 -0.07653,-1.63152 -0.0075,-0.0105 -0.379361,-0.20544 -0.82645,-0.432 -0.890188,-0.45106 -0.985147,-0.51472 -1.091253,-0.73146 -0.05416,-0.11065 -0.06242,-0.15401 -0.06258,-0.32862 l -1.99e-4,-0.20116 0.33267,-0.65936 c 0.182968,-0.36266 0.381783,-0.75111 0.441813,-0.86323 l 0.109143,-0.20387 -0.21313,-0.35287 c -1.065666,-1.76437 -2.638067,-3.13492 -4.526079,-3.94505 -0.551599,-0.23668 -1.542751,-0.54153 -1.935934,-0.59542 l -0.101674,-0.014 -0.68548,0.68145 c -0.778514,0.77395 -0.793671,0.78478 -1.099155,0.7857 -0.303699,5.7e-4 -0.335584,-0.0219 -1.11076,-0.79524 l -0.675083,-0.67345 -0.151915,0.0275 c -1.172281,0.21292 -2.584306,0.81646 -3.627542,1.55054 -0.499768,0.35166 -1.109202,0.87151 -1.463302,1.2482 l -0.155749,0.16569 5.419481,0.0117 5.419483,0.0117 0.223512,0.051 c 0.343809,0.0786 0.598745,0.16978 0.916404,0.32795 1.008111,0.50197 1.741548,1.42958 1.948926,2.46491 0.05432,0.27119 0.0538,0.82037 -9.81e-4,1.07299 -0.179543,0.82747 -0.681145,1.51329 -1.522692,2.08193 l -0.254277,0.17183 0.145848,0.13044 c 0.536001,0.47941 1.012797,1.29802 1.191651,2.04593 0.02792,0.11677 0.08621,0.28075 0.129509,0.3644 0.134873,0.26052 0.420336,0.47633 0.742468,0.56133 0.157225,0.0416 0.447744,0.0436 0.595252,0.004 z m -6.32836,-4.50818 c 0.478699,-0.0576 0.85661,-0.26919 1.013314,-0.56758 0.05013,-0.0955 0.05898,-0.14055 0.05923,-0.30219 2.79e-4,-0.16908 -0.0069,-0.20313 -0.0659,-0.30952 -0.125472,-0.22653 -0.406586,-0.41938 -0.738432,-0.50661 -0.249078,-0.0655 -0.657125,-0.0789 -2.201604,-0.0728 l -1.531063,0.006 -0.006,0.86046 c -0.0032,0.47326 -9.8e-4,0.87306 0.0049,0.88846 0.01422,0.037 3.159946,0.0404 3.465425,0.004 z m -10.730239,-0.66615 c 0.157917,-0.0777 0.272457,-0.19385 0.353539,-0.35839 0.07311,-0.14834 0.07231,-0.48118 -0.0015,-0.63057 -0.167518,-0.33897 -0.540069,-0.51223 -0.885528,-0.4118 -0.237663,0.0691 -0.395448,0.20654 -0.500499,0.43601 -0.118019,0.25778 -0.05499,0.60319 0.148309,0.81283 0.170354,0.17567 0.337627,0.24235 0.579292,0.23094 0.126192,-0.006 0.192991,-0.0232 0.306393,-0.079 z m 19.217414,0.0252 c 0.371749,-0.16482 0.557576,-0.63198 0.393739,-0.98986 -0.190009,-0.41503 -0.634628,-0.57785 -1.03703,-0.37974 -0.249655,0.12291 -0.389235,0.33881 -0.407053,0.62963 -0.02234,0.36471 0.179224,0.65357 0.537801,0.77074 0.130653,0.0426 0.380735,0.0277 0.512543,-0.0308 z m -9.612609,-7.00508 c 0.160418,-0.0745 0.297821,-0.21165 0.373358,-0.37277 0.04951,-0.10563 0.05917,-0.15728 0.05906,-0.31623 -1.11e-4,-0.16245 -0.0091,-0.20841 -0.06245,-0.31717 -0.08997,-0.18355 -0.269229,-0.34014 -0.455095,-0.39755 -0.184133,-0.0568 -0.278065,-0.0568 -0.462197,0 -0.185755,0.0574 -0.365061,0.21396 -0.455216,0.39755 -0.05349,0.1089 -0.06247,0.15443 -0.06247,0.31717 0,0.15881 0.0097,0.21071 0.05919,0.31623 0.09208,0.1964 0.273947,0.35424 0.488421,0.42391 0.115178,0.0375 0.383852,0.0105 0.517389,-0.0511 z"
       id="path832"
       inkscape:connector-curvature="0" /><text
       xml:space="preserve"
       style="font-style:normal;font-variant:normal;font-weight:normal;font-stretch:normal;font-size:11.2889px;line-height:1.25;font-family:'Dela Gothic One';-inkscape-font-specification:'Dela Gothic One';letter-spacing:0px;word-spacing:0px;fill:#000000;fill-opacity:1;stroke:none;stroke-width:0.264583"
       x="55.871964"
       y="251.44806"
       id="text828"><tspan
         sodipodi:role="line"
         id="tspan826"
         x="55.871964"
         y="251.44806"
         style="font-size:11.2889px;stroke-width:0.264583">Constructors</tspan><tspan
         sodipodi:role="line"
         x="55.871964"
         y="265.55917"
         style="font-size:11.2889px;stroke-width:0.264583"
         id="tspan830">&amp;Conversions</tspan></text><text
       xml:space="preserve"
       style="font-style:normal;font-variant:normal;font-weight:normal;font-stretch:normal;font-size:9.87778px;line-height:1.25;font-family:'Dela Gothic One';-inkscape-font-specification:'Dela Gothic One';letter-spacing:0px;word-spacing:0px;fill:#4671ac;fill-opacity:1;stroke:none;stroke-width:0.264583"
       x="56.670929"
       y="230.73491"
       id="text836"><tspan
         sodipodi:role="line"
         id="tspan834"
         x="56.670929"
         y="230.73491"
         style="font-style:normal;font-variant:normal;font-weight:normal;font-stretch:normal;font-size:9.87778px;font-family:'EB Garamond';-inkscape-font-specification:'EB Garamond';fill:#4671ac;fill-opacity:1;stroke-width:0.264583">Idiomatic Rust</tspan></text><text
       xml:space="preserve"
       style="font-style:normal;font-variant:normal;font-weight:normal;font-stretch:normal;font-size:9.87778px;line-height:1.25;font-family:'Dela Gothic One';-inkscape-font-specification:'Dela Gothic One';letter-spacing:0px;word-spacing:0px;fill:#4671ac;fill-opacity:1;stroke:none;stroke-width:0.264583"
       x="95.962723"
       y="283.18521"
       id="text836-3"><tspan
         sodipodi:role="line"
         id="tspan834-6"
         x="95.962723"
         y="283.18521"
         style="font-style:normal;font-variant:normal;font-weight:normal;font-stretch:normal;font-size:9.87778px;font-family:'EB Garamond';-inkscape-font-specification:'EB Garamond';fill:#4671ac;fill-opacity:1;stroke-width:0.264583">for C++ Devs</tspan></text><g
       id="g4577"
       transform="matrix(0.08455776,0,0,0.08455776,44.323225,254.56152)"><path
         id="path4543"
         d="m 68.267153,226.69458 c 2.401,-4.159 3.893,-8.845 3.893,-13.053 V 67.572579 c 0,-4.208 -1.49,-8.893 -3.892,-13.052 l -149.108,86.087001 z"
         inkscape:connector-curvature="0"
         style="fill:#00599c" /><path
         id="path4545"
         d="m -67.589847,309.62558 126.5,-73.034 c 3.644,-2.104 6.956,-5.737 9.357,-9.897 l -149.107,-86.087 -149.107003,86.088 c 2.401,4.159 5.714,7.793 9.357,9.896 l 126.500003,73.034 c 7.287,4.208 19.213,4.208 26.5,0 z"
         inkscape:connector-curvature="0"
         style="fill:#004482" /><path
         id="path4547"
         d="m 68.268153,54.519579 c -2.402,-4.16 -5.715,-7.793 -9.358,-9.897 l -126.5,-73.034 c -7.287,-4.208 -19.213,-4.208 -26.5,0 l -126.500003,73.034 c -7.288,4.207 -13.25,14.535 -13.25,22.95 V 213.64158 c 0,4.208 1.491,8.894 3.893,13.053 l 149.107003,-86.087 z"
         inkscape:connector-curvature="0"
         style="fill:#659ad2" /><g
         id="g4551"
         transform="translate(-233.83985,-31.567421)"><path
           id="path4549"
           d="m 153,274.175 c -56.243,0 -102,-45.757 -102,-102 0,-56.243 45.757,-102 102,-102 36.292,0 70.139,19.53 88.331,50.968 l -44.143,25.544 C 188.083,130.951 171.15,121.175 153,121.175 c -28.122,0 -51,22.878 -51,51 0,28.121 22.878,51 51,51 18.152,0 35.085,-9.776 44.191,-25.515 l 44.143,25.543 c -18.192,31.441 -52.04,50.972 -88.334,50.972 z"
           inkscape:connector-curvature="0"
           style="fill:#ffffff" /></g><g
         id="g4555"
         transform="translate(-233.83985,-31.567421)"><polygon
           id="polygon4553"
           points="232.334,166.508 221,166.508 221,177.841 232.334,177.841 232.334,189.175 243.666,189.175 243.666,177.841 255,177.841 255,166.508 243.666,166.508 243.666,155.175 232.334,155.175 "
           style="fill:#ffffff" /></g><g
         id="g4559"
         transform="translate(-233.83985,-31.567421)"><polygon
           id="polygon4557"
           points="274.834,166.508 263.5,166.508 263.5,177.841 274.834,177.841 274.834,189.175 286.166,189.175 286.166,177.841 297.5,177.841 297.5,166.508 286.166,166.508 286.166,155.175 274.834,155.175 "
           style="fill:#ffffff" /></g></g></g></svg>
