<?xml version="1.0" encoding="UTF-8" standalone="no"?>
<!-- Created with Inkscape (http://www.inkscape.org/) -->

<svg
   width="600"
   height="315"
   viewBox="0 0 158.75 83.34375"
   version="1.1"
   id="svg8"
   inkscape:version="1.2.2 (1:1.2.2+202212051552+b0a8486541)"
   sodipodi:docname="unsafe-rust-mistakes.svg"
   inkscape:export-filename="../unsafe-rust-mistakes.png"
   inkscape:export-xdpi="192"
   inkscape:export-ydpi="192"
   xml:space="preserve"
   xmlns:inkscape="http://www.inkscape.org/namespaces/inkscape"
   xmlns:sodipodi="http://sodipodi.sourceforge.net/DTD/sodipodi-0.dtd"
   xmlns="http://www.w3.org/2000/svg"
   xmlns:svg="http://www.w3.org/2000/svg"
   xmlns:rdf="http://www.w3.org/1999/02/22-rdf-syntax-ns#"
   xmlns:cc="http://creativecommons.org/ns#"
   xmlns:dc="http://purl.org/dc/elements/1.1/"><defs
     id="defs2" /><sodipodi:namedview
     id="base"
     pagecolor="#ffffff"
     bordercolor="#666666"
     borderopacity="1.0"
     inkscape:pageopacity="1"
     inkscape:pageshadow="2"
     inkscape:zoom="1.4"
     inkscape:cx="82.142857"
     inkscape:cy="208.57143"
     inkscape:document-units="mm"
     inkscape:current-layer="layer1"
     showgrid="true"
     units="px"
     inkscape:snap-bbox="true"
     inkscape:bbox-paths="true"
     inkscape:window-width="2560"
     inkscape:window-height="1362"
     inkscape:window-x="1920"
     inkscape:window-y="41"
     inkscape:window-maximized="1"
     inkscape:pagecheckerboard="true"
     inkscape:bbox-nodes="true"
     inkscape:snap-bbox-edge-midpoints="true"
     inkscape:showpageshadow="0"
     inkscape:deskcolor="#d1d1d1"><inkscape:grid
       type="xygrid"
       id="grid838" /></sodipodi:namedview><metadata
     id="metadata5"><rdf:RDF><cc:Work
         rdf:about=""><dc:format>image/svg+xml</dc:format><dc:type
           rdf:resource="http://purl.org/dc/dcmitype/StillImage" /><dc:title /></cc:Work></rdf:RDF></metadata><g
     inkscape:label="Layer 1"
     inkscape:groupmode="layer"
     id="layer1"
     transform="translate(0,-213.65623)"><path
       style="fill:#000000;stroke-width:0.03875491"
       d="m 26.371945,278.11908 c -0.179669,-0.0739 -0.315021,-0.25844 -0.874192,-1.19187 l -0.615732,-1.02784 -0.156088,-0.0187 c -0.08585,-0.0112 -0.227667,-0.0262 -0.315148,-0.0355 l -0.159058,-0.0167 -0.820054,0.90345 c -0.886249,0.97641 -0.935507,1.01414 -1.273656,0.97604 -0.183403,-0.0208 -0.327116,-0.10587 -0.44394,-0.26308 -0.03861,-0.0519 -0.245436,-0.58219 -0.459612,-1.17825 -0.214176,-0.59606 -0.395833,-1.09019 -0.403682,-1.09802 -0.0078,-0.007 -0.145072,-0.0546 -0.304939,-0.10395 l -0.290663,-0.0897 -0.942826,0.69812 c -0.518555,0.38398 -0.986531,0.71506 -1.039949,0.73576 -0.05342,0.0208 -0.187422,0.0303 -0.297789,0.0216 -0.257068,-0.0206 -0.448011,-0.15988 -0.530857,-0.38733 -0.04678,-0.12841 -0.372991,-2.18917 -0.372991,-2.3562 0,-0.0361 -0.50798,-0.30887 -0.575131,-0.30887 -0.01898,0 -0.502884,0.22018 -1.075355,0.48928 -0.572471,0.26911 -1.104699,0.49784 -1.182729,0.5083 -0.296344,0.0397 -0.604838,-0.17127 -0.687377,-0.4702 -0.02423,-0.0878 -0.01872,-0.49064 0.01595,-1.17339 0.02906,-0.57191 0.05329,-1.10087 0.05383,-1.17547 8.68e-4,-0.12025 -0.02622,-0.15734 -0.238806,-0.32687 l -0.239783,-0.19123 -1.137345,0.28328 c -1.252158,0.31187 -1.378942,0.32327 -1.612787,0.14491 -0.15383,-0.11728 -0.25722,-0.31616 -0.258593,-0.49728 -5.44e-4,-0.0713 0.124749,-0.63648 0.278421,-1.25579 l 0.279409,-1.126 -0.191225,-0.2398 c -0.224706,-0.28176 -0.05476,-0.26112 -1.5206336,-0.18467 -0.67524,0.0352 -1.0648253,0.0406 -1.1540173,0.016 -0.299717,-0.0828 -0.511097,-0.39089 -0.471366,-0.68709 0.01044,-0.0776 0.239163,-0.60875 0.508309,-1.18012 0.269148,-0.57133 0.4893613,-1.05552 0.4893613,-1.07592 0,-0.0808 -0.2752343,-0.57779 -0.3202163,-0.57822 -0.208574,-0.002 -2.3297549,-0.35392 -2.422838,-0.40206 -0.1778975,-0.0919 -0.2914256,-0.27704 -0.309616,-0.50468 -0.00873,-0.10847 0.00117,-0.24093 0.021801,-0.29422 0.020661,-0.0532 0.3514379,-0.52049 0.7350509,-1.03826 l 0.6974781,-0.94136 -0.09073,-0.29411 c -0.04992,-0.16175 -0.09709,-0.30044 -0.10484,-0.30821 -0.0078,-0.007 -0.5010911,-0.18855 -1.0962847,-0.40174 -0.5951978,-0.2132 -1.1246962,-0.41931 -1.1766677,-0.45803 -0.1573757,-0.11728 -0.2424212,-0.2608 -0.2630846,-0.44412 -0.038117,-0.33816 -3.685e-4,-0.38741 0.9760355,-1.27365 l 0.9034698,-0.82007 -0.016667,-0.15905 c -0.00916,-0.0875 -0.025092,-0.2293 -0.03539,-0.31515 l -0.018712,-0.15608 -1.0278483,-0.61573 c -0.672882,-0.4031 -1.0573001,-0.65702 -1.1131227,-0.73529 -0.1214231,-0.17021 -0.1214231,-0.57266 0,-0.74289 0.055839,-0.0783 0.4402407,-0.33218 1.1131227,-0.73527 l 1.0278483,-0.61572 0.018712,-0.1561 c 0.010331,-0.0858 0.026221,-0.22767 0.035412,-0.31515 l 0.016678,-0.15905 -0.903472,-0.82006 c -0.9764007,-0.88625 -1.014149,-0.93551 -0.9760354,-1.27365 0.020651,-0.18333 0.105713,-0.3269 0.2630856,-0.44413 0.051973,-0.0387 0.5814688,-0.24482 1.1766613,-0.45803 0.5951947,-0.2132 1.0885222,-0.39399 1.0962862,-0.40175 0.0078,-0.007 0.05492,-0.14645 0.104839,-0.30821 l 0.09075,-0.29409 -0.6974782,-0.94137 c -0.383613,-0.51776 -0.7143876,-0.98499 -0.735051,-1.03826 -0.020661,-0.0533 -0.030481,-0.1857 -0.021801,-0.29422 0.01819,-0.22764 0.1317186,-0.41268 0.309616,-0.50468 0.093093,-0.0481 2.2142632,-0.40015 2.4228382,-0.40207 0.04497,-4.1e-4 0.3202163,-0.4974 0.3202163,-0.5782 0,-0.0204 -0.2202143,-0.5046 -0.4893613,-1.07595 -0.269146,-0.57134 -0.497887,-1.10238 -0.508309,-1.18009 -0.03974,-0.29622 0.171648,-0.60434 0.471367,-0.68709 0.08919,-0.0247 0.4787753,-0.0193 1.1540163,0.016 1.4658676,0.0765 1.2959266,0.097 1.5206336,-0.1847 l 0.191224,-0.23977 -0.279407,-1.12602 c -0.153675,-0.61929 -0.278965,-1.18441 -0.278422,-1.25579 0.0014,-0.18112 0.104766,-0.37994 0.258593,-0.49728 0.233843,-0.17836 0.360628,-0.16696 1.612786,0.1449 l 1.137346,0.28329 0.239783,-0.19123 c 0.212581,-0.16954 0.239673,-0.20661 0.238806,-0.32686 -5.4e-4,-0.0746 -0.02476,-0.60356 -0.05383,-1.17546 -0.0347,-0.68276 -0.04018,-1.0857 -0.01596,-1.1734 0.08253,-0.29893 0.391032,-0.50996 0.687376,-0.47022 0.07802,0.01 0.610259,0.23922 1.182729,0.50832 0.572472,0.2691 1.05638,0.48927 1.075354,0.48927 0.06716,0 0.575133,-0.2728 0.575133,-0.30886 0,-0.16703 0.326224,-2.2278 0.37299,-2.3562 0.08285,-0.22746 0.273789,-0.36677 0.530857,-0.38733 0.110365,-0.009 0.244372,8.9e-4 0.297789,0.0216 0.05341,0.0208 0.521394,0.35175 1.039949,0.73573 l 0.942826,0.69814 0.290663,-0.0897 c 0.159865,-0.0493 0.297088,-0.0961 0.304939,-0.10406 0.0078,-0.007 0.189506,-0.50195 0.403681,-1.09802 0.214177,-0.59607 0.421002,-1.12627 0.459612,-1.17825 0.116831,-0.15725 0.260539,-0.2424 0.443941,-0.26309 0.338151,-0.0381 0.387409,-3.7e-4 1.273656,0.97604 l 0.820054,0.90348 0.159058,-0.0166 c 0.08748,-0.009 0.2293,-0.025 0.315148,-0.0354 l 0.156088,-0.0187 0.615731,-1.02785 c 0.40309,-0.67288 0.657017,-1.0573 0.735275,-1.11312 0.170221,-0.12137 0.572677,-0.12137 0.742897,0 0.07825,0.0558 0.332075,0.44006 0.734868,1.11243 l 0.615324,1.02719 0.214628,0.0226 c 0.118047,0.0125 0.259235,0.0295 0.313752,0.0381 0.08691,0.0135 0.200416,-0.0961 0.920978,-0.88998 0.888189,-0.97854 0.937233,-1.01614 1.27546,-0.97802 0.183403,0.0206 0.327115,0.10587 0.443941,0.26308 0.03861,0.052 0.245436,0.58219 0.459612,1.17826 0.214175,0.59606 0.395047,1.08939 0.401937,1.09627 0.007,0.007 0.144872,0.0533 0.306624,0.1033 l 0.294098,0.0907 0.941371,-0.69747 c 0.517758,-0.38362 0.984975,-0.71439 1.038262,-0.73505 0.05329,-0.0206 0.187189,-0.0304 0.297555,-0.0216 0.257069,0.0207 0.448014,0.15988 0.530858,0.38733 0.04677,0.1284 0.37299,2.18916 0.37299,2.35619 0,0.0376 0.509362,0.30887 0.579966,0.30887 0.02163,0 0.50537,-0.22015 1.074971,-0.48924 0.569602,-0.26907 1.099655,-0.49781 1.177898,-0.5083 0.297172,-0.0398 0.605181,0.1711 0.688056,0.47124 0.02463,0.0892 0.01922,0.47877 -0.01597,1.15401 -0.07631,1.46335 -0.09562,1.29711 0.175769,1.51349 0.126974,0.10128 0.254787,0.1841 0.284027,0.1841 0.02923,0 0.534747,-0.12212 1.123346,-0.27129 0.588599,-0.14921 1.133799,-0.27128 1.211553,-0.27128 0.315063,0 0.592527,0.24774 0.627782,0.56054 0.01478,0.13119 -0.04841,0.44488 -0.263831,1.30984 l -0.283275,1.13736 0.19122,0.23978 c 0.224708,0.28177 0.05475,0.26113 1.520634,0.18469 0.675242,-0.0352 1.064827,-0.0406 1.154016,-0.016 0.299719,0.0827 0.5111,0.39086 0.471368,0.68708 -0.01044,0.0777 -0.239163,0.60875 -0.508309,1.1801 -0.269149,0.57134 -0.489362,1.05552 -0.489362,1.07593 0,0.0808 0.275226,0.57781 0.320217,0.57827 0.215179,0.002 2.325778,0.35181 2.420762,0.40094 0.179878,0.0931 0.293433,0.27727 0.311691,0.50575 0.0087,0.10846 -0.0011,0.24092 -0.0218,0.29421 -0.02067,0.0532 -0.35144,0.52051 -0.735052,1.03826 l -0.69748,0.94137 0.09076,0.29411 c 0.04991,0.16175 0.0964,0.29977 0.103349,0.30669 0.007,0.007 0.499293,0.18692 1.094133,0.4 0.594845,0.21306 1.12502,0.41986 1.178175,0.45953 0.164246,0.12261 0.24714,0.26688 0.265969,0.46281 0.03138,0.32666 -0.02151,0.39457 -0.988455,1.26929 l -0.891875,0.80682 0.01672,0.1594 c 0.0092,0.0876 0.02509,0.22937 0.03536,0.31489 l 0.01862,0.15548 1.011142,0.60025 c 1.177199,0.69879 1.215281,0.73399 1.215281,1.12341 0,0.38941 -0.03807,0.42461 -1.215281,1.12341 l -1.011142,0.60024 -0.02161,0.17486 c -0.01192,0.0962 -0.02935,0.23646 -0.03885,0.31172 -0.01704,0.1352 -0.0065,0.14664 0.878128,0.94683 0.970666,0.87809 1.023357,0.94569 0.991958,1.27248 -0.01883,0.19594 -0.10173,0.34018 -0.265966,0.46281 -0.05316,0.0397 -0.583332,0.24648 -1.178177,0.45954 -0.594841,0.21307 -1.087985,0.39384 -1.095879,0.40173 -0.008,0.007 -0.05476,0.14539 -0.104201,0.30554 l -0.08983,0.2912 0.698333,0.94252 c 0.38408,0.5184 0.715236,0.98613 0.735904,1.03942 0.02065,0.0533 0.03048,0.18569 0.0218,0.29421 -0.01825,0.22849 -0.131813,0.41274 -0.311691,0.50577 -0.09499,0.0491 -2.205583,0.39867 -2.420762,0.40092 -0.04498,4.7e-4 -0.320217,0.49749 -0.320217,0.57827 0,0.0204 0.220214,0.50459 0.489363,1.07594 0.269145,0.57135 0.497883,1.10239 0.50831,1.1801 0.03974,0.29622 -0.17165,0.60433 -0.47137,0.68708 -0.08918,0.0246 -0.478773,0.0193 -1.154015,-0.016 -1.4663,-0.0765 -1.295954,-0.0968 -1.521273,0.18196 l -0.191862,0.23739 0.283915,1.13992 c 0.215959,0.86705 0.279261,1.18119 0.264472,1.31241 -0.03525,0.31279 -0.312721,0.56055 -0.627783,0.56055 -0.07777,0 -0.622953,-0.12212 -1.211553,-0.27129 -0.5886,-0.14921 -1.095571,-0.27129 -1.1266,-0.27129 -0.03103,0 -0.15892,0.0828 -0.284199,0.18409 -0.267601,0.21627 -0.248663,0.0498 -0.172344,1.51349 0.03521,0.67524 0.04061,1.06483 0.01598,1.15402 -0.08288,0.30015 -0.390882,0.5111 -0.688055,0.47123 -0.07825,-0.0112 -0.608296,-0.23923 -1.177898,-0.50829 -0.5696,-0.26909 -1.053338,-0.48925 -1.074971,-0.48925 -0.0706,0 -0.579966,0.27128 -0.579966,0.30888 0,0.16702 -0.326222,2.22779 -0.372989,2.35618 -0.08285,0.22747 -0.273789,0.36677 -0.530858,0.38735 -0.110364,0.009 -0.244266,-8.6e-4 -0.297556,-0.0216 -0.05329,-0.0208 -0.520505,-0.35144 -1.038261,-0.73505 l -0.941373,-0.69749 -0.294096,0.0907 c -0.161752,0.0498 -0.299734,0.0963 -0.306625,0.1032 -0.007,0.007 -0.187762,0.50022 -0.401937,1.09627 -0.214176,0.59607 -0.421002,1.12629 -0.459612,1.17826 -0.11683,0.15725 -0.260539,0.2424 -0.44394,0.26308 -0.338227,0.0381 -0.387272,5.1e-4 -1.275461,-0.97802 -0.720561,-0.79387 -0.83407,-0.90356 -0.920977,-0.88998 -0.05452,0.009 -0.195707,0.0257 -0.313753,0.0381 l -0.214628,0.0226 -0.615325,1.02719 c -0.395343,0.65994 -0.657157,1.05694 -0.732332,1.11048 -0.117836,0.0839 -0.481193,0.13225 -0.606513,0.0806 z m 1.995879,-6.19307 c 1.409714,-0.15243 2.70747,-0.45308 4.046218,-0.9374 0.461609,-0.167 1.346497,-0.53904 1.407721,-0.59185 0.01554,-0.0134 0.142051,-0.73891 0.281138,-1.61222 0.223065,-1.40057 0.266745,-1.61614 0.37041,-1.828 0.214324,-0.43801 0.643492,-0.70931 1.122023,-0.70931 0.126139,0 0.888472,0.10458 1.694074,0.23239 0.805601,0.12782 1.49961,0.23179 1.542239,0.23104 0.04811,-8.5e-4 0.19511,-0.13488 0.387549,-0.35336 0.374503,-0.42521 0.908794,-1.08719 0.909924,-1.12739 4.5e-4,-0.016 -1.590556,-0.0293 -3.535567,-0.0297 -3.017227,-4.9e-4 -3.572838,-0.009 -3.784687,-0.0591 -0.616782,-0.14538 -1.160291,-0.60911 -1.502248,-1.28172 -0.324524,-0.63832 -0.433881,-1.02559 -0.923501,-3.27042 -0.445109,-2.04076 -0.958726,-2.99131 -1.852342,-3.42817 -0.567375,-0.27736 -0.516863,-0.27293 -3.108323,-0.27293 h -2.325294 v 1.53083 1.53081 l 1.914841,0.01 c 1.335393,0.007 1.930568,0.0231 1.966809,0.0532 0.0722,0.06 0.07751,5.06949 0.0054,5.14154 -0.03582,0.0359 -1.63804,0.0465 -6.975884,0.0465 -3.811157,0 -6.929008,0.0132 -6.928558,0.0291 0.0011,0.0403 0.535422,0.70218 0.909922,1.12738 0.202762,0.23021 0.33836,0.35253 0.391891,0.3535 0.04502,8.2e-4 0.737771,-0.1031 1.539454,-0.23104 0.801681,-0.12788 1.562061,-0.23253 1.689732,-0.23253 0.48149,0 0.909931,0.27019 1.124809,0.70932 0.103647,0.21184 0.147335,0.42736 0.370165,1.82647 0.138952,0.87246 0.256745,1.58978 0.261761,1.59405 0.05652,0.048 0.584352,0.28374 1.016749,0.45399 1.611535,0.63446 3.317899,1.02242 5.057513,1.14989 0.650591,0.0477 2.255844,0.0175 2.925996,-0.055 z m -11.510205,-1.41802 c 0.258108,-0.12361 0.506368,-0.37856 0.631768,-0.64894 0.08333,-0.17967 0.102582,-0.27863 0.103476,-0.53162 9.61e-4,-0.27381 -0.01396,-0.34144 -0.125236,-0.56747 -0.412788,-0.83849 -1.493676,-1.0096 -2.123589,-0.33617 -0.27085,0.28957 -0.346295,0.4867 -0.346134,0.90445 1.15e-4,0.30299 0.01433,0.37782 0.108305,0.56979 0.132194,0.27004 0.422843,0.54066 0.697331,0.64929 0.281473,0.11144 0.77789,0.0929 1.054055,-0.0393 z m 20.53677,0.039 c 0.281557,-0.10533 0.572889,-0.37223 0.708332,-0.64891 0.09398,-0.19198 0.108205,-0.2668 0.108305,-0.56979 1.54e-4,-0.41775 -0.07529,-0.61489 -0.346134,-0.90445 -0.629913,-0.67344 -1.7108,-0.50232 -2.123589,0.33617 -0.111272,0.22602 -0.126198,0.29366 -0.125236,0.56746 8.86e-4,0.25233 0.0202,0.35208 0.102603,0.52974 0.157912,0.34044 0.483265,0.62245 0.845784,0.73312 0.19691,0.0601 0.611206,0.0385 0.829901,-0.0433 z M 15.636838,254.46575 v -5.50322 h -1.433932 c -0.788661,0 -1.43393,0.009 -1.43393,0.02 0,0.0112 0.117712,0.2495 0.261596,0.53006 l 0.261596,0.51006 -3.5e-4,0.35162 c -2.72e-4,0.30585 -0.01442,0.3804 -0.108516,0.57262 -0.183981,0.37583 -0.349969,0.48762 -1.852736,1.24784 -0.754236,0.38154 -1.3996706,0.71798 -1.4343016,0.74763 -0.09852,0.0844 -0.169831,1.02746 -0.167933,2.22098 0.0021,1.29348 0.0791,2.10233 0.3117396,3.27284 0.112462,0.56586 0.311532,1.35565 0.368539,1.46216 0.03596,0.0673 0.162135,0.0706 2.632998,0.0706 h 2.595231 z m 24.440066,5.3718 c 0.508693,-0.13545 0.935354,-0.4883 1.172216,-0.96944 0.197904,-0.402 0.243188,-0.66132 0.264602,-1.51513 0.0157,-0.62547 0.03103,-0.78819 0.07955,-0.84292 0.054,-0.0609 0.151741,-0.0677 0.960725,-0.0677 h 0.900608 l 0.02882,-0.64914 c 0.03793,-0.85422 -0.04887,-2.70472 -0.132701,-2.82887 -0.01293,-0.0192 -0.657775,-0.35622 -1.43298,-0.74904 -1.543497,-0.7821 -1.708145,-0.89247 -1.892123,-1.26829 -0.09391,-0.19183 -0.108243,-0.26703 -0.108517,-0.56979 l -3.47e-4,-0.34879 0.576816,-1.14327 c 0.317248,-0.62881 0.661973,-1.30234 0.766059,-1.49676 l 0.189242,-0.35349 -0.369547,-0.61183 c -1.847756,-3.05924 -4.57414,-5.43563 -7.847763,-6.84032 -0.956417,-0.41038 -2.674974,-0.93896 -3.356714,-1.03239 l -0.176299,-0.0242 -1.188554,1.18157 c -1.349865,1.34194 -1.376145,1.36073 -1.905823,1.36231 -0.526582,10e-4 -0.581869,-0.038 -1.925946,-1.37885 l -1.170524,-1.1677 -0.263406,0.0478 c -2.032616,0.36917 -4.480926,1.41566 -6.289793,2.68847 -0.866546,0.60975 -1.923243,1.51112 -2.537217,2.16425 l -0.270053,0.28729 9.396834,0.0203 9.396833,0.0203 0.38755,0.0885 c 0.596128,0.13619 1.038161,0.29438 1.58895,0.56863 1.747962,0.87036 3.019669,2.47875 3.379241,4.2739 0.09418,0.47022 0.09327,1.42243 -0.0017,1.86047 -0.311311,1.43473 -1.181037,2.62389 -2.640194,3.60985 l -0.440892,0.29792 0.252887,0.22619 c 0.929371,0.83125 1.756086,2.25063 2.066201,3.54742 0.04842,0.20249 0.149473,0.48681 0.224555,0.63185 0.233857,0.4517 0.728821,0.82591 1.287365,0.97327 0.272611,0.072 0.776343,0.0756 1.032107,0.007 z m -10.972737,-7.81674 c 0.830017,-0.0998 1.485274,-0.46673 1.756983,-0.98411 0.08692,-0.16551 0.102252,-0.24372 0.10271,-0.52397 4.84e-4,-0.29317 -0.01204,-0.35221 -0.114274,-0.53668 -0.217555,-0.39278 -0.704978,-0.72717 -1.280365,-0.8784 -0.431878,-0.11356 -1.139389,-0.13692 -3.81736,-0.12628 l -2.654709,0.01 -0.01033,1.49196 c -0.0055,0.82058 -0.0017,1.51381 0.0085,1.5405 0.02464,0.0641 5.479025,0.07 6.008696,0.006 z m -18.60515,-1.15502 c 0.273812,-0.13479 0.472414,-0.33612 0.613002,-0.62141 0.126765,-0.25723 0.125387,-0.83433 -0.0026,-1.09334 -0.290459,-0.58776 -0.936425,-0.88816 -1.5354166,-0.71403 -0.412083,0.11976 -0.685667,0.35813 -0.867815,0.75599 -0.204632,0.44697 -0.09535,1.04587 0.257154,1.40937 0.295376,0.30459 0.58541,0.42021 1.004433,0.40043 0.2188036,-0.01 0.3346266,-0.0403 0.5312546,-0.13701 z m 33.321054,0.0436 c 0.644575,-0.28577 0.966778,-1.09579 0.682702,-1.71631 -0.329455,-0.71962 -1.10038,-1.00192 -1.798104,-0.65844 -0.432877,0.21311 -0.674895,0.58747 -0.705791,1.09172 -0.03874,0.63236 0.310758,1.13323 0.932496,1.33638 0.226537,0.0739 0.660154,0.048 0.888697,-0.0534 z M 27.152779,238.76331 c 0.278147,-0.12914 0.516391,-0.36701 0.647365,-0.64636 0.08585,-0.18314 0.102582,-0.2727 0.102411,-0.5483 -1.92e-4,-0.28168 -0.01587,-0.36138 -0.108268,-0.54994 -0.155988,-0.31827 -0.466815,-0.58979 -0.78909,-0.68933 -0.319266,-0.0986 -0.482135,-0.0986 -0.801402,0 -0.32208,0.0995 -0.632979,0.37101 -0.789299,0.68933 -0.09276,0.1889 -0.108304,0.26776 -0.108304,0.54994 0,0.27534 0.01684,0.36534 0.102624,0.5483 0.159659,0.34054 0.474997,0.61422 0.846873,0.73501 0.199716,0.065 0.66556,0.0189 0.897099,-0.0886 z"
       id="path832"
       inkscape:connector-curvature="0" /><text
       xml:space="preserve"
       style="font-style:normal;font-variant:normal;font-weight:normal;font-stretch:normal;font-size:6.35px;line-height:1.25;font-family:'Dela Gothic One';-inkscape-font-specification:'Dela Gothic One';letter-spacing:0px;word-spacing:0px;fill:#000000;fill-opacity:1;stroke:none;stroke-width:0.264583"
       x="55.871964"
       y="251.44806"
       id="text828"><tspan
         sodipodi:role="line"
         id="tspan826"
         x="55.871964"
         y="251.44806"
         style="font-size:16.9333px;stroke-width:0.264583">Unsafe </tspan><tspan
         sodipodi:role="line"
         x="55.871964"
         y="272.61469"
         style="font-size:16.9333px;stroke-width:0.264583"
         id="tspan830">Rust</tspan></text><text
       xml:space="preserve"
       style="font-style:normal;font-variant:normal;font-weight:normal;font-stretch:normal;font-size:6.35px;line-height:1.25;font-family:'Dela Gothic One';-inkscape-font-specification:'Dela Gothic One';letter-spacing:0px;word-spacing:0px;fill:#4671ac;fill-opacity:1;stroke:none;stroke-width:0.264583"
       x="56.670929"
       y="230.73491"
       id="text836"><tspan
         sodipodi:role="line"
         id="tspan834"
         x="56.670929"
         y="230.73491"
         style="font-style:normal;font-variant:normal;font-weight:normal;font-stretch:normal;font-size:11.2889px;font-family:'EB Garamond';-inkscape-font-specification:'EB Garamond';fill:#4671ac;fill-opacity:1;stroke-width:0.264583">learning</tspan></text><text
       xml:space="preserve"
       style="font-style:normal;font-variant:normal;font-weight:normal;font-stretch:normal;font-size:6.35px;line-height:1.25;font-family:'Dela Gothic One';-inkscape-font-specification:'Dela Gothic One';letter-spacing:0px;word-spacing:0px;fill:#4671ac;fill-opacity:1;stroke:none;stroke-width:0.264583"
       x="76.474297"
       y="287.47003"
       id="text836-3"><tspan
         sodipodi:role="line"
         id="tspan834-6"
         x="76.474297"
         y="287.47003"
         style="font-style:normal;font-variant:normal;font-weight:normal;font-stretch:normal;font-size:11.2889px;font-family:'EB Garamond';-inkscape-font-specification:'EB Garamond';fill:#4671ac;fill-opacity:1;stroke-width:0.264583">from my mistakes</tspan></text><g
       transform="matrix(0.03357918,0,0,0.03357918,111.90675,251.54466)"
       id="g1011">
	<g
   id="g841">
		<path
   inkscape:connector-curvature="0"
   id="path833"
   d="m 146.014,554.568 c 1.591,3.545 5.165,6.132 9.438,6.83 l 42.059,6.831 c 1.581,2.84 3.243,5.638 4.911,8.414 l -18.34,33.827 c -1.888,3.447 -1.577,7.5 0.781,10.702 2.349,3.221 6.4,5.152 10.76,5.091 l 42.82,-0.495 c 2.171,2.474 4.378,4.926 6.632,7.333 l -10.506,36.433 c -1.063,3.699 0.122,7.617 3.146,10.377 3.008,2.749 7.431,3.947 11.671,3.155 l 41.844,-7.838 c 2.662,2.061 5.372,4.098 8.109,6.094 l -2.189,37.566 c -0.23,3.802 1.81,7.46 5.388,9.639 3.576,2.194 8.159,2.604 12.14,1.1 l 39.174,-14.833 c 3.104,1.573 6.225,3.132 9.381,4.642 l 6.194,37.179 c 0.626,3.767 3.436,7.009 7.425,8.542 3.976,1.538 8.571,1.153 12.125,-1.009 l 35.074,-21.251 c 3.396,1.021 6.807,2.001 10.265,2.942 l 14.3,35.416 c 1.455,3.609 4.91,6.306 9.169,7.127 4.244,0.814 8.649,-0.345 11.652,-3.066 l 29.687,-26.946 c 3.522,0.409 7.048,0.789 10.584,1.114 l 21.947,32.409 c 2.226,3.281 6.218,5.33 10.565,5.413 4.334,0.083 8.41,-1.812 10.733,-5.008 l 23.126,-31.552 c 3.547,-0.188 7.099,-0.435 10.628,-0.709 l 28.682,28.058 c 2.905,2.835 7.279,4.161 11.538,3.509 4.282,-0.666 7.842,-3.222 9.418,-6.773 l 15.601,-34.846 c 3.479,-0.81 6.926,-1.668 10.365,-2.55 l 34.257,22.572 c 3.483,2.302 8.062,2.861 12.1,1.468 4.025,-1.379 6.964,-4.513 7.725,-8.252 l 7.556,-36.917 c 3.208,-1.389 6.385,-2.818 9.552,-4.281 l 38.6,16.313 c 3.92,1.661 8.535,1.422 12.17,-0.636 3.65,-2.042 5.828,-5.619 5.732,-9.426 l -0.802,-37.625 c 2.803,-1.892 5.578,-3.823 8.327,-5.78 l 41.521,9.426 c 4.218,0.946 8.677,-0.075 11.79,-2.709 3.135,-2.644 4.454,-6.513 3.53,-10.249 l -9.146,-36.808 c 2.32,-2.329 4.618,-4.687 6.875,-7.074 l 42.77,2.125 c 4.316,0.19 8.473,-1.549 10.943,-4.679 2.478,-3.11 2.918,-7.147 1.181,-10.665 l -17.104,-34.501 c 1.774,-2.712 3.535,-5.445 5.231,-8.222 l 42.278,-5.226 c 4.297,-0.526 7.954,-2.975 9.684,-6.465 1.72,-3.5 1.257,-7.533 -1.215,-10.677 L 921.479,528.24 c 0.203,-0.531 -1.999,-32.28 -21.526,-58.158 0,0 -0.169,-0.069 -0.475,-0.191 C 855.033,407.22 716.712,359.6 552.124,356.465 378.036,353.149 231.49,400.686 193.714,467.318 176.853,484.381 172.602,512.466 173.11,513.99 l -25.495,29.958 c -2.602,3.046 -3.19,7.059 -1.601,10.62 z"
   fill="#8f1f1d" />
		<path
   inkscape:connector-curvature="0"
   id="path835"
   d="m 1006.008,420.45 c -1.728,-4.947 -19.723,-3.687 -24.194,-4.556 l -65.68,0.586 c -1.701,-3.954 -3.489,-7.85 -5.283,-11.713 l 42.551,-65.735 c 1.905,-4.904 12.443,-11.779 9.923,-16.227 -2.512,-4.469 -18.607,1.506 -23.153,1.708 l -67.827,12.061 c -2.313,-3.422 -4.662,-6.814 -7.059,-10.144 l 38.03,-84.758 c 1.039,-5.237 12.658,-26.514 9.45,-30.318 -3.189,-3.792 -18.273,9.018 -22.681,10.249 l -73.744,46.76 c -2.816,-2.829 -5.681,-5.624 -8.575,-8.362 l 20.894,-73.414 c 0.168,-5.358 11.334,-30.76 7.561,-33.733 -3.771,-2.993 -16.667,8.452 -20.79,10.675 l -65.16,50.814 c -3.268,-2.13 -6.552,-4.242 -9.872,-6.284 l 15.496,-86.805 c -0.726,-5.287 5.608,-32.964 1.417,-35.016 -4.174,-2.061 -26.104,22.056 -29.768,25.194 l -51.029,65.23 c -3.562,-1.346 -7.138,-2.635 -10.763,-3.867 L 660.92,74.281 c -1.585,-5.042 -1.212,-22.872 -5.67,-23.913 -4.442,-1.033 -10.15,14.875 -13.23,18.788 l -44.103,87.736 c -3.682,-0.482 -7.366,-0.922 -11.061,-1.283 L 564.527,54.643 C 562.143,50.081 559.614,35 555.078,35 c -4.522,0 -8.035,18.07 -10.396,22.631 l -27.077,97.982 c -3.695,0.361 -7.396,0.801 -11.07,1.283 L 468.137,67.88 c -3.084,-3.914 -8.33,-23.237 -12.758,-22.205 -4.455,1.053 -3.621,15.455 -5.197,20.497 l -11.499,106.627 c -3.614,1.232 -7.193,2.532 -10.764,3.867 l -34.912,-44.734 c -3.677,-3.148 -24.165,-34.096 -28.351,-32.026 -4.172,2.051 -1.167,34.426 -1.89,39.712 l 1.271,68.443 c -3.32,2.042 -6.606,4.14 -9.883,6.284 l -63.681,-59.354 c -4.12,-2.232 -12.786,-11.533 -16.538,-8.541 -3.769,2.974 -0.643,16.419 -0.472,21.778 l 23.196,91.775 c -2.887,2.738 -5.745,5.533 -8.575,8.362 l -69.905,-43.344 c -4.418,-1.22 -18.065,-11.905 -21.263,-8.113 -3.218,3.804 4.164,7.809 5.197,13.047 l 36.995,96.478 c -2.376,3.342 -4.729,6.721 -7.034,10.144 L 118.07,298.04 c -4.506,-0.151 -16.917,-6.178 -19.435,-1.708 -2.522,4.447 8.045,10.896 9.923,15.8 l 85.012,92.637 c -1.798,3.863 -3.583,7.759 -5.3,11.713 l -82.547,-9.979 c -4.47,0.857 -16.217,-1.544 -17.956,3.415 -1.728,4.972 9.648,11.415 12.286,15.774 l 61.741,66.493 c -0.201,0.755 2.702,45.391 23.563,81.296 0,0 0.177,0.092 0.499,0.258 47.554,87.035 192.733,150.364 364.46,150.364 181.639,0 333.578,-70.85 371.705,-165.663 17.261,-24.474 21.158,-64.123 20.598,-66.255 l 50.158,-54.084 c 2.656,-4.362 14.956,-12.68 13.231,-17.651 z"
   fill="#8f1f1d" />
		<path
   inkscape:connector-curvature="0"
   id="path837"
   d="m 195.34,493.008 c 0,0 -94.761,13.599 -116.083,18.311 -21.321,4.711 -7.095,8.297 0,9.421 24.757,3.927 146.88,7.067 149.25,7.853 2.369,0.785 -33.167,-35.585 -33.167,-35.585 z"
   fill="#8f1f1d" />
		<path
   inkscape:connector-curvature="0"
   id="path839"
   d="m 896.038,499.622 c 0,0 94.762,13.6 116.083,18.311 21.32,4.712 7.095,8.298 0,9.422 -24.758,3.927 -146.88,7.067 -149.249,7.853 -2.37,0.784 33.166,-35.586 33.166,-35.586 z"
   fill="#8f1f1d" />
	</g>
	<g
   transform="translate(-48,14)"
   id="g847">
		<path
   inkscape:connector-curvature="0"
   id="path843"
   d="m 467.982,486.018 c 0,0 -41.096,-44.997 -82.191,0 0,0 -32.292,60.001 0,89.998 0,0 52.837,41.999 82.191,0 0,0 35.226,-33.002 0,-89.998 z" />
		<path
   inkscape:connector-curvature="0"
   id="path845"
   d="m 420.404,502.71 c 0,17.521 10.329,31.727 23.066,31.727 12.735,0 23.064,-14.205 23.064,-31.727 0,-17.522 -10.329,-31.728 -23.064,-31.728 -12.738,0 -23.066,14.206 -23.066,31.728 z"
   fill="#ffffff" />
	</g>
	<g
   transform="translate(-48,14)"
   id="g853">
		<path
   inkscape:connector-curvature="0"
   id="path849"
   d="m 698.226,469.498 c 0,0 -70.494,-31.212 -89.735,38.454 0,0 -20.153,81.201 57.891,85.784 -10e-4,0 99.518,-19.168 31.844,-124.238 z" />
		<path
   inkscape:connector-curvature="0"
   id="path851"
   d="m 662.819,499.628 c 0,18.068 10.65,32.723 23.79,32.723 13.133,0 23.786,-14.654 23.786,-32.723 0,-18.072 -10.653,-32.723 -23.786,-32.723 -13.139,0 -23.79,14.651 -23.79,32.723 z"
   fill="#ffffff" />
	</g>
	
	
	
	
	
	
	
	
	
	
	
</g></g></svg>
