<?xml version="1.0" encoding="iso-8859-1"?>
<!-- Generator: Adobe Illustrator 19.0.0, SVG Export Plug-In . SVG Version: 6.00 Build 0)  -->
<svg xmlns="http://www.w3.org/2000/svg" xmlns:xlink="http://www.w3.org/1999/xlink" version="1.1" id="Capa_1" x="0px" y="0px" viewBox="0 0 512 512" style="enable-background:new 0 0 512 512;" xml:space="preserve" width="512px" height="512px">
<g>
	<g>
		<path d="M125.696,125.994c-5.52,0-10,4.48-10,10s4.48,10,10,10c5.52,0,10-4.48,10-10S131.216,125.994,125.696,125.994z" fill="#FFFFFF"/>
	</g>
</g>
<g>
	<g>
		<path d="M215.691,312.984h-29.998v-29.998c0-5.522-4.478-10-10-10s-9.999,4.478-9.999,10v29.998h-29.998    c-5.522,0-10,4.478-10,9.999s4.478,10,10,10h29.998v29.998c0,5.522,4.478,10,9.999,10s10-4.478,10-10v-29.998h29.998    c5.522,0,10-4.478,10-10S221.214,312.984,215.691,312.984z" fill="#FFFFFF"/>
	</g>
</g>
<g>
	<g>
		<path d="M485.578,321.984c-22.105-38.286-70.981-51.389-109.274-29.279l-40.618,23.45v-86.836c0-10.735-3.55-21.388-9.999-29.998    l-49.997-66.661v-28.386c11.638-4.128,19.999-15.242,19.999-28.279V29.998C295.687,13.457,282.23,0,265.689,0H85.698    C69.157,0,55.699,13.457,55.699,29.998v45.998c0,13.035,8.361,24.151,19.999,28.279v28.386l-50.001,66.665    c-6.446,8.606-9.996,19.258-9.996,29.993v193.66c0,27.569,22.429,49.997,49.997,49.997h160.702    c22.421,37.583,70.767,50.161,108.664,28.279L456.3,431.258C494.255,409.34,507.794,360.479,485.578,321.984z M75.698,29.998    c0-5.514,4.486-10,9.999-10h179.991c5.514,0,10,4.486,10,10v45.998c0,5.514-4.486,9.999-10,9.999H85.698    c-5.514,0-9.999-4.486-9.999-9.999V29.998z M41.701,211.319l51.996-69.326c1.298-1.73,2-3.836,2-6v-29.998h159.992v19.999h-89.995    c-5.522,0-10,4.478-10,10s4.478,10,10,10h94.995l48.993,65.322c3.202,4.275,5.191,9.39,5.792,14.674H35.913    C36.513,220.705,38.502,215.59,41.701,211.319z M65.699,452.977c-16.541,0-29.998-13.457-29.998-29.998v-10.099h181.675    c-3.171,12.965-3.15,26.813,0.481,40.098H65.699z M225.219,392.98H35.7V245.987h279.986V327.7l-60.619,35.002    C242.428,370.003,232.212,380.396,225.219,392.98z M325.066,483.935c-28.697,16.571-65.367,6.771-81.949-21.946    c-16.661-28.994-6.564-65.498,21.952-81.969l54.277-31.338l59.997,103.915L325.066,483.935z M446.3,413.939l-49.637,28.659    l-59.998-103.917l49.638-28.656c28.716-16.578,65.373-6.761,81.955,21.957C484.913,360.844,474.785,397.49,446.3,413.939z" fill="#FFFFFF"/>
	</g>
</g>
<g>
</g>
<g>
</g>
<g>
</g>
<g>
</g>
<g>
</g>
<g>
</g>
<g>
</g>
<g>
</g>
<g>
</g>
<g>
</g>
<g>
</g>
<g>
</g>
<g>
</g>
<g>
</g>
<g>
</g>
</svg>
