<?xml version="1.0" encoding="iso-8859-1"?>
<!-- Generator: Adobe Illustrator 19.0.0, SVG Export Plug-In . SVG Version: 6.00 Build 0)  -->
<svg xmlns="http://www.w3.org/2000/svg" xmlns:xlink="http://www.w3.org/1999/xlink" version="1.1" id="Layer_1" x="0px" y="0px" viewBox="0 0 512 512" style="enable-background:new 0 0 512 512;" xml:space="preserve" width="512px" height="512px">
<g>
	<g>
		<g>
			<path d="M469.135,42.666H42.867C19.23,42.666,0,61.897,0,85.533v234.266c0,23.638,19.23,42.869,42.867,42.869h145.001     l-14.562,43.685c-13.774,3.57-23.972,16.104-23.972,30.978v10.67h-32.001c-5.89,0-10.667,4.777-10.667,10.667     c0,5.89,4.777,10.667,10.667,10.667h48.686h0.002h179.961h48.687c5.89,0,10.667-4.777,10.667-10.667     c0-5.89-4.777-10.667-10.667-10.667h-32v-10.67c0-14.873-10.202-27.407-23.975-30.978l-14.56-43.685h145.001     c23.635,0,42.864-19.23,42.864-42.869V85.533C512,61.897,492.771,42.666,469.135,42.666z M330.667,426.665     c5.883,0,10.669,4.784,10.669,10.666v10.67H170.668v-10.67c0-5.882,4.784-10.666,10.666-10.666H330.667z M196.133,405.332     l14.222-42.664h91.29l14.222,42.664H196.133z M490.667,319.799c0,11.874-9.659,21.535-21.532,21.535h-159.8H202.668h-159.8     c-11.873,0-21.534-9.661-21.534-21.535v-10.465h405.2c5.891,0,10.667-4.777,10.667-10.667c0-5.89-4.775-10.667-10.667-10.667     h-405.2V85.533c0-11.874,9.661-21.534,21.534-21.534h426.267c11.804,0,21.41,9.551,21.521,21.331H87.174     c-5.89,0-10.667,4.777-10.667,10.667c0,5.891,4.777,10.667,10.667,10.667h403.493V319.799z" fill="#FFFFFF"/>
			<path d="M192.803,217.783h0.01c0.822,4.726,4.782,8.459,9.78,8.793l81.336,5.412l0.002-0.022     c5.571,0.379,10.538-3.654,11.248-9.267l6.827-53.863l2.046-16.151l14.192,0.07c5.864,0.021,10.641-4.719,10.662-10.583     c0.025-5.865-4.713-10.644-10.58-10.665l-23.589-0.113c-5.429-0.022-9.923,4.036-10.581,9.293l-3.231,25.482l-5.565,43.911     l-63.025-4.197l-5.886-33.016h42.355c5.891,0,10.668-4.775,10.668-10.665c0-5.893-4.777-10.669-10.668-10.669h-55.083v0.009     c-0.606,0-1.218,0.052-1.835,0.156c-5.799,1.012-9.678,6.538-8.668,12.335L192.803,217.783z" fill="#FFFFFF"/>
			<path d="M219.383,241.94c-5.874,0-10.666,4.792-10.666,10.665c0,5.876,4.792,10.668,10.666,10.668     c5.874,0,10.666-4.792,10.666-10.668C230.048,246.731,225.257,241.94,219.383,241.94z" fill="#FFFFFF"/>
			<path d="M273.76,241.94c-5.874,0-10.666,4.792-10.666,10.665c0,5.876,4.792,10.668,10.666,10.668s10.664-4.792,10.664-10.668     C284.424,246.731,279.634,241.94,273.76,241.94z" fill="#FFFFFF"/>
			<path d="M54.465,85.331h-4.791c-5.89,0-10.667,4.777-10.667,10.667c0,5.891,4.777,10.667,10.667,10.667h4.791     c5.89,0,10.667-4.775,10.667-10.667C65.132,90.107,60.356,85.331,54.465,85.331z" fill="#FFFFFF"/>
			<path d="M457.335,309.334h4.511c5.89,0,10.667-4.777,10.667-10.667c0-5.89-4.777-10.667-10.667-10.667h-4.511     c-5.89,0-10.667,4.777-10.667,10.667C446.668,304.558,451.445,309.334,457.335,309.334z" fill="#FFFFFF"/>
		</g>
	</g>
</g>
<g>
</g>
<g>
</g>
<g>
</g>
<g>
</g>
<g>
</g>
<g>
</g>
<g>
</g>
<g>
</g>
<g>
</g>
<g>
</g>
<g>
</g>
<g>
</g>
<g>
</g>
<g>
</g>
<g>
</g>
</svg>
