<?xml version="1.0" encoding="iso-8859-1"?>
<!-- Generator: Adobe Illustrator 19.0.0, SVG Export Plug-In . SVG Version: 6.00 Build 0)  -->
<svg xmlns="http://www.w3.org/2000/svg" xmlns:xlink="http://www.w3.org/1999/xlink" version="1.1" id="Capa_1" x="0px" y="0px" viewBox="0 0 511.999 511.999" style="enable-background:new 0 0 511.999 511.999;" xml:space="preserve" width="512px" height="512px">
<g>
	<g>
		<path d="M507.34,397.266c-2.326-38.581-22.626-78.051-44.119-119.838c-4.291-8.343-8.609-16.743-12.828-25.211    c-0.027-0.057-0.055-0.112-0.084-0.168c-16.861-33.858-32.093-68.814-37.355-105.634c-0.704-4.926-4.923-8.585-9.899-8.585    h-14.477v-30.912c0-10.171-8.275-18.445-18.446-18.445h-3.378v-51c0-12.877-10.477-23.353-23.353-23.353h-51.326    c-12.878,0-23.354,10.477-23.354,23.353v51h-3.378c-10.171,0-18.446,8.274-18.446,18.445v30.912h-12.277    c-4.976,0-9.195,3.659-9.899,8.585c-10.384,72.645-16.401,83.18-49.794,141.648c-1.941,3.398-3.971,6.954-6.097,10.686    c-28.115,49.368-39.023,83.622-36.476,114.538c2.977,36.12,24.76,66.93,68.556,96.959c1.665,1.142,3.637,1.753,5.655,1.753    h228.404c1.989,0,3.934-0.594,5.584-1.704C488.147,478.261,509.993,441.288,507.34,397.266z M288.72,37.473    c0-1.817,1.536-3.353,3.354-3.353H343.4c1.818,0,3.353,1.536,3.353,3.353v51H288.72V37.473z M266.895,108.473h101.683v29.357    H266.895V108.473z M232.96,211.368h50.215c5.523,0,10-4.478,10-10c0-5.523-4.477-10-10-10h-45.6    c1.933-9.68,3.77-20.643,5.691-33.539h151.282v0.001c5.713,31.512,17.642,61.139,31.314,89.752    c-43.831,3.546-75.339,11.108-103.461,17.86c-40.021,9.61-69.862,16.759-115.694,7.068    C219.505,249.393,227.077,233.268,232.96,211.368z M431.884,492H209.691c-77.186-54.116-68.435-104.421-23.484-183.352    c2.122-3.727,4.148-7.274,6.086-10.666c1.43-2.505,2.811-4.921,4.148-7.268c19.472,4.576,36.374,6.424,52.042,6.424    c27.573,0,51.337-5.706,78.587-12.249c29.056-6.977,61.828-14.839,108.326-17.955c3.326,6.588,6.691,13.132,10.039,19.642    C486.954,367.3,519.827,431.22,431.884,492z" fill="#FFFFFF"/>
	</g>
</g>
<g>
	<g>
		<path d="M241.699,52.474c-0.301-3.811-2.747-7.116-6.303-8.518l-46.377-18.274c-6.527-14.144-20.146-23.942-35.887-25.436    c-1.396-0.133-2.811-0.2-4.207-0.2c-10.188,0-20.066,3.619-27.874,9.981c-7.919-5.452-17.171-8.852-26.835-9.769    C92.418,0.087,90.595,0,88.799,0C73.304,0,58.596,6.323,47.91,17.466C24.548,23.079,6.999,43.085,4.703,67.271    c-1.432,15.085,3.097,29.824,12.751,41.504c9.655,11.679,23.279,18.899,38.361,20.33c3.404,0.323,6.842,0.342,10.237,0.052    c7.401,9.461,18.404,15.573,30.57,16.729c1.395,0.133,2.809,0.199,4.203,0.199c14.603,0,27.982-7.224,36.089-18.79    c3.529,1.476,7.285,2.416,11.179,2.785c1.213,0.115,2.444,0.174,3.658,0.174h0.003c19.867,0,36.267-14.932,38.146-34.73    c0.193-2.025,0.226-4.047,0.1-6.055l46.807-27.595C240.1,59.933,241.999,56.284,241.699,52.474z M173.967,75.703    c-3.899,2.298-5.768,6.928-4.557,11.289c0.598,2.154,0.793,4.388,0.579,6.639c-0.899,9.477-8.739,16.623-18.236,16.622    c-0.586,0-1.182-0.028-1.771-0.084c-3.876-0.368-7.464-1.917-10.376-4.479c-2.501-2.201-5.933-3.01-9.153-2.164    c-3.221,0.849-5.808,3.244-6.9,6.39c-3.359,9.672-12.493,16.17-22.727,16.17c-0.767,0-1.546-0.037-2.313-0.109    c-7.964-0.757-15.019-5.403-18.873-12.43c-1.781-3.247-5.17-5.192-8.766-5.192c-0.687,0-1.381,0.071-2.073,0.218    c-3.619,0.766-7.368,0.977-11.095,0.623c-9.766-0.927-18.587-5.602-24.838-13.163c-6.251-7.562-9.183-17.104-8.255-26.871    c1.56-16.439,13.996-29.894,30.243-32.719c2.311-0.402,4.407-1.604,5.922-3.395c7.013-8.292,17.226-13.047,28.019-13.047    c1.168,0,2.354,0.056,3.526,0.167c8.442,0.801,16.396,4.526,22.396,10.491c2.046,2.032,4.876,3.093,7.747,2.883    c2.878-0.201,5.527-1.635,7.271-3.933c5.008-6.604,13.23-10.237,21.502-9.453c9.502,0.901,17.589,7.34,20.604,16.402    c0.935,2.811,3.067,5.062,5.823,6.147l31.331,12.346L173.967,75.703z" fill="#FFFFFF"/>
	</g>
</g>
<g>
	<g>
		<path d="M314.829,191.369h-0.605c-5.523,0-10,4.477-10,10c0,5.523,4.478,10,10,10h0.605c5.523,0,10-4.478,10-10    C324.829,195.846,320.352,191.369,314.829,191.369z" fill="#FFFFFF"/>
	</g>
</g>
<g>
	<g>
		<path d="M201.41,346.353c-5.165-1.96-10.938,0.639-12.897,5.803c-0.697,1.839-16.907,45.43-1.501,79.444    c1.673,3.692,5.31,5.877,9.115,5.877c1.38,0,2.782-0.287,4.12-0.894c5.031-2.279,7.262-8.204,4.983-13.235    c-11.911-26.298,1.762-63.504,1.986-64.107C209.168,354.079,206.57,348.31,201.41,346.353z" fill="#FFFFFF"/>
	</g>
</g>
<g>
	<g>
		<path d="M222.275,442.761c-4.097-3.024-9.898-2.493-13.369,1.372c-3.69,4.109-3.35,10.433,0.759,14.122    c0.617,0.554,1.294,1.043,2.071,1.495c1.582,0.92,3.312,1.358,5.019,1.358c3.444,0,6.797-1.782,8.653-4.975    C228.09,451.523,226.673,445.659,222.275,442.761z" fill="#FFFFFF"/>
	</g>
</g>
<g>
	<g>
		<path d="M348.85,333.998c-12.185,0-20.172,4.25-26.051,10.303c-5.879-6.053-13.867-10.303-26.05-10.303    c-9.579,0-18.702,4.186-25.687,11.789c-6.465,7.037-10.173,16.132-10.173,24.951c0,25.176,22.626,45.057,46.582,66.105    c2.863,2.516,5.765,5.065,8.669,7.658c1.897,1.694,4.279,2.541,6.661,2.541c2.382,0,4.764-0.847,6.661-2.541    c3.132-2.796,6.267-5.542,9.357-8.249c23.798-20.847,46.275-40.536,46.275-65.515C385.093,353.396,369.595,333.998,348.85,333.998    z M325.639,421.208c-0.941,0.825-1.887,1.653-2.835,2.485c-0.713-0.627-1.424-1.252-2.132-1.874    c-20.458-17.977-39.783-34.956-39.783-51.081c0-7.535,7.319-16.74,15.86-16.74c8.181,0,11.905,2.65,17.326,12.331    c1.768,3.158,5.105,5.114,8.726,5.114c3.62,0,6.957-1.956,8.725-5.115c5.419-9.68,9.143-12.33,17.325-12.33    c8.747,0,16.242,9.205,16.242,16.74C365.093,386.647,345.929,403.436,325.639,421.208z" fill="#FFFFFF"/>
	</g>
</g>
<g>
</g>
<g>
</g>
<g>
</g>
<g>
</g>
<g>
</g>
<g>
</g>
<g>
</g>
<g>
</g>
<g>
</g>
<g>
</g>
<g>
</g>
<g>
</g>
<g>
</g>
<g>
</g>
<g>
</g>
</svg>
