<?xml version="1.0" encoding="UTF-8" standalone="no"?>
<!DOCTYPE svg PUBLIC "-//W3C//DTD SVG 1.1//EN" "http://www.w3.org/Graphics/SVG/1.1/DTD/svg11.dtd">
<!-- Gerado pelo Microsoft Visio, SVG Export compilador-tradicional.svg Page-1 -->
<svg xmlns="http://www.w3.org/2000/svg" xmlns:xlink="http://www.w3.org/1999/xlink" xmlns:ev="http://www.w3.org/2001/xml-events"
		xmlns:v="http://schemas.microsoft.com/visio/2003/SVGExtensions/" width="11.6929in" height="8.26772in"
		viewBox="0 0 841.89 595.276" xml:space="preserve" color-interpolation-filters="sRGB" class="st15">
	<v:documentProperties v:langID="1046" v:metric="true" v:viewMarkup="false">
		<v:userDefs>
			<v:ud v:nameU="msvNoAutoConnect" v:val="VT0(1):26"/>
		</v:userDefs>
	</v:documentProperties>

	<style type="text/css">
	<![CDATA[
		.st1 {fill:#c4d6a0;stroke:none;stroke-linecap:round;stroke-linejoin:round;stroke-width:0.24}
		.st2 {fill:#000000;font-family:Calibri;font-size:1.16666em}
		.st3 {marker-end:url(#mrkr1-10);stroke:#000000;stroke-linecap:round;stroke-linejoin:round;stroke-width:1.5}
		.st4 {fill:#000000;fill-opacity:1;stroke:#000000;stroke-opacity:1;stroke-width:0.37313432835821}
		.st5 {fill:#00b0f0;stroke:none;stroke-linecap:round;stroke-linejoin:round;stroke-width:0.24}
		.st6 {fill:#ffffff;font-family:Calibri;font-size:1.16666em;font-weight:bold}
		.st7 {font-size:1em}
		.st8 {fill:#ffffff;stroke:#ffffff;stroke-linecap:butt;stroke-width:0.75}
		.st9 {fill:#ffffff;stroke:#000000;stroke-linecap:round;stroke-linejoin:round;stroke-width:0.24}
		.st10 {fill:#ffd965;stroke:none;stroke-linecap:round;stroke-linejoin:round;stroke-width:0.24}
		.st11 {fill:#000000;font-family:Calibri;font-size:0.833336em}
		.st12 {fill:#c00000;stroke:none;stroke-linecap:round;stroke-linejoin:round;stroke-width:0.24}
		.st13 {fill:#bfbfbf;stroke:none;stroke-linecap:round;stroke-linejoin:round;stroke-width:0.24}
		.st14 {fill:#000000;stroke:none;stroke-linecap:round;stroke-linejoin:round;stroke-width:0.24}
		.st15 {fill:none;fill-rule:evenodd;font-size:12px;overflow:visible;stroke-linecap:square;stroke-miterlimit:3}
	]]>
	</style>

	<defs id="Markers">
		<g id="lend1">
			<path d="M 1 -1 L 0 0 L 1 1 " style="stroke-linecap:round;stroke-linejoin:round;fill:none"/>
		</g>
		<marker id="mrkr1-10" class="st4" v:arrowType="1" v:arrowSize="2" orient="auto" markerUnits="strokeWidth"
				overflow="visible">
			<use xlink:href="#lend1" transform="scale(-2.68,-2.68) "/>
		</marker>
	</defs>
	<g v:mID="0" v:index="1" v:groupContext="foregroundPage">
		<title>Página-1</title>
		<v:pageProperties v:drawingScale="0.0393701" v:pageScale="0.0393701" v:drawingUnits="24" v:shadowOffsetX="8.50394"
				v:shadowOffsetY="-8.50394"/>
		<v:layer v:name="Conector" v:index="0"/>
		<v:layer v:name="Fluxograma" v:index="1"/>
		<v:layer v:name="Azure" v:index="2"/>
		<g id="group25-1" transform="translate(99.2126,-333.638)" v:mID="25" v:groupContext="group">
			<title>Planilha.25</title>
			<g id="shape24-2" v:mID="24" v:groupContext="shape">
				<title>Retângulo Arredondado</title>
				<desc>Código Fonte</desc>
				<v:userDefs>
					<v:ud v:nameU="CTypeTopLeftSnip" v:prompt="" v:val="VT0(0):5"/>
					<v:ud v:nameU="CTypeTopRightSnip" v:prompt="" v:val="VT0(0):5"/>
					<v:ud v:nameU="CTypeBotLeftSnip" v:prompt="" v:val="VT0(0):5"/>
					<v:ud v:nameU="CTypeBotRightSnip" v:prompt="" v:val="VT0(0):5"/>
					<v:ud v:nameU="CornerLockHoriz" v:prompt="" v:val="VT0(1):5"/>
					<v:ud v:nameU="CornerLockVert" v:prompt="" v:val="VT0(1):5"/>
					<v:ud v:nameU="CornerLockDiag" v:prompt="" v:val="VT0(0):5"/>
					<v:ud v:nameU="TopLeftOffset" v:prompt="" v:val="VT0(0.15748031496063):24"/>
					<v:ud v:nameU="TopRightOffset" v:prompt="" v:val="VT0(0.15748031496063):24"/>
					<v:ud v:nameU="BotLeftOffset" v:prompt="" v:val="VT0(0.15748031496063):24"/>
					<v:ud v:nameU="BotRightOffset" v:prompt="" v:val="VT0(0.15748031496063):24"/>
					<v:ud v:nameU="visVersion" v:prompt="" v:val="VT0(15):26"/>
				</v:userDefs>
				<v:textBlock v:margins="rect(4,4,4,4)" v:tabSpace="42.5197"/>
				<v:textRect cx="56.6929" cy="552.756" width="113.39" height="85.0394"/>
				<path d="M11.34 595.28 L102.05 595.28 A11.3384 11.3384 -180 0 0 113.39 583.94 L113.39 521.57 A11.3384 11.3384 -180
							 0 0 102.05 510.24 L11.34 510.24 A11.3384 11.3384 -180 0 0 0 521.57 L0 583.94 A11.3384 11.3384 -180 0
							 0 11.34 595.28 Z" class="st1"/>
				<text x="19" y="556.96" class="st2" v:langID="1046"><v:paragraph v:horizAlign="1"/><v:tabList/>Código Fonte</text>			</g>
		</g>
		<g id="shape26-5" v:mID="26" v:groupContext="shape" v:layerMember="0" transform="translate(212.598,-369.071)">
			<title>Conector dinâmico</title>
			<path d="M0 588.19 L137.22 588.19" class="st3"/>
		</g>
		<g id="group28-11" transform="translate(349.821,-333.638)" v:mID="28" v:groupContext="group">
			<title>Planilha.28</title>
			<g id="shape12-12" v:mID="12" v:groupContext="shape">
				<title>Retângulo Arredondado.12</title>
				<desc>Compilação Windows</desc>
				<v:userDefs>
					<v:ud v:nameU="CTypeTopLeftSnip" v:prompt="" v:val="VT0(0):5"/>
					<v:ud v:nameU="CTypeTopRightSnip" v:prompt="" v:val="VT0(0):5"/>
					<v:ud v:nameU="CTypeBotLeftSnip" v:prompt="" v:val="VT0(0):5"/>
					<v:ud v:nameU="CTypeBotRightSnip" v:prompt="" v:val="VT0(0):5"/>
					<v:ud v:nameU="CornerLockHoriz" v:prompt="" v:val="VT0(1):5"/>
					<v:ud v:nameU="CornerLockVert" v:prompt="" v:val="VT0(1):5"/>
					<v:ud v:nameU="CornerLockDiag" v:prompt="" v:val="VT0(0):5"/>
					<v:ud v:nameU="TopLeftOffset" v:prompt="" v:val="VT0(0.15748031496063):24"/>
					<v:ud v:nameU="TopRightOffset" v:prompt="" v:val="VT0(0.15748031496063):24"/>
					<v:ud v:nameU="BotLeftOffset" v:prompt="" v:val="VT0(0.15748031496063):24"/>
					<v:ud v:nameU="BotRightOffset" v:prompt="" v:val="VT0(0.15748031496063):24"/>
					<v:ud v:nameU="visVersion" v:prompt="" v:val="VT0(15):26"/>
				</v:userDefs>
				<v:textBlock v:margins="rect(4,4,4,4)" v:tabSpace="42.5197"/>
				<v:textRect cx="56.6929" cy="552.756" width="113.39" height="85.0394"/>
				<path d="M11.34 595.28 L102.05 595.28 A11.3384 11.3384 -180 0 0 113.39 583.94 L113.39 521.57 A11.3384 11.3384 -180
							 0 0 102.05 510.24 L11.34 510.24 A11.3384 11.3384 -180 0 0 0 521.57 L0 583.94 A11.3384 11.3384 -180 0
							 0 11.34 595.28 Z" class="st5"/>
				<text x="22.73" y="548.56" class="st6" v:langID="1046"><v:paragraph v:horizAlign="1"/><v:tabList/>Compilação <tspan
							x="29.35" dy="1.2em" class="st7">Windows</tspan></text>			</g>
			<g id="shape27-16" v:mID="27" v:groupContext="shape" transform="translate(82.5268,-4.50966)">
				<title>Configurar</title>
				<v:userDefs>
					<v:ud v:nameU="msvShapeCategories" v:prompt="" v:val="VT4(Icon)"/>
					<v:ud v:nameU="visVersion" v:prompt="" v:val="VT0(15):26"/>
				</v:userDefs>
				<path d="M18.85 587.62 C18.45 587.45 17.18 586.92 17.18 586.91 L17.26 585.85 L17.33 584.97 L17.21 583.26 L18.05 582.78
							 C18.05 582.78 18.48 582.61 18.88 582.44 C18.59 581.75 18.47 581.46 18.19 580.76 C17.79 580.93 16.47
							 581.47 16.47 581.47 L15.82 580.65 C15.5 580.26 15.11 579.88 14.62 579.51 L13.85 578.91 L14.16 577.96
							 C14.16 577.96 14.35 577.52 14.52 577.09 C13.83 576.8 13.54 576.69 12.84 576.4 C12.66 576.84 12.11 578.19
							 12.11 578.19 L11.09 578.09 C10.57 578.03 10.03 578.04 9.49 578.12 L8.51 578.25 L8.06 577.35 C8.06 577.35
							 7.86 576.88 7.67 576.42 C6.97 576.71 6.69 576.84 6 577.13 C6.2 577.62 6.78 578.99 6.78 578.99 L5.99
							 579.65 C5.62 579.96 5.27 580.33 4.93 580.77 L4.33 581.55 L3.39 581.24 C3.39 581.24 2.87 581.03 2.36
							 580.83 C2.08 581.53 1.97 581.82 1.69 582.52 C2.2 582.72 3.58 583.27 3.58 583.27 C3.58 583.27 3.49 584.84
							 3.49 584.96 C3.49 585.07 3.52 585.42 3.52 585.43 C3.52 585.43 3.6 586.25 3.6 586.25 L3.1 586.7 C2.95
							 586.86 2.9 586.9 1.66 587.38 C1.94 588.08 2.05 588.37 2.32 589.07 C2.83 588.87 4.27 588.31 4.27 588.31
							 L5.02 589.33 C5.25 589.61 5.56 589.93 5.95 590.26 L6.68 590.88 L6.36 591.79 C6.36 591.79 6.14 592.31
							 5.92 592.81 C6.61 593.11 6.89 593.23 7.59 593.53 C7.79 593.06 8.38 591.68 8.38 591.68 L9.43 591.82 C9.92
							 591.89 10.45 591.91 11.01 591.86 L11.96 591.77 L12.38 592.65 C12.38 592.65 12.57 593.14 12.76 593.61
							 C13.46 593.33 13.75 593.21 14.44 592.93 C14.27 592.5 13.72 591.12 13.72 591.12 L14.76 590.36 C15.06
							 590.12 15.4 589.78 15.75 589.35 L16.35 588.61 L17.29 588.93 C17.29 588.93 17.73 589.12 18.15 589.29
							 C18.44 588.6 18.56 588.31 18.85 587.62 ZM18.53 586.02 C18.53 586.02 18.53 586.06 18.52 586.09 C18.7
							 586.16 20.53 586.94 20.53 586.94 L18.83 590.98 C18.83 590.98 16.96 590.19 16.78 590.11 C16.76 590.14
							 16.74 590.17 16.74 590.17 C16.33 590.66 15.93 591.07 15.51 591.4 C15.51 591.4 15.38 591.5 15.28 591.57
							 C15.36 591.76 16.11 593.64 16.11 593.64 L12.05 595.28 C12.05 595.28 11.26 593.31 11.19 593.13 C11.15
							 593.13 11.12 593.14 11.12 593.14 C10.46 593.19 9.84 593.18 9.25 593.1 C9.25 593.1 9.21 593.09 9.18 593.09
							 C9.1 593.27 8.26 595.22 8.26 595.22 L4.23 593.48 C4.23 593.48 5.1 591.47 5.18 591.29 C5.15 591.27 5.13
							 591.24 5.13 591.24 C4.67 590.86 4.3 590.48 3.98 590.09 C3.98 590.09 3.89 589.96 3.82 589.87 C3.64 589.94
							 1.59 590.74 1.59 590.74 L0 586.65 C0 586.65 2.19 585.8 2.19 585.8 C2.19 585.8 2.23 585.78 2.26 585.77
							 C2.25 585.66 2.23 585.51 2.23 585.51 L2.2 584.97 C2.2 584.97 2.24 584.28 2.25 584.12 C2.07 584.05 0.02
							 583.23 0.02 583.23 L1.65 579.16 C1.65 579.16 3.68 579.98 3.86 580.05 C3.88 580.02 3.91 579.99 3.91 579.99
							 C4.31 579.47 4.72 579.03 5.17 578.66 C5.17 578.66 5.2 578.64 5.23 578.61 C5.15 578.44 4.31 576.44 4.31
							 576.44 L8.35 574.74 C8.35 574.74 9.17 576.67 9.24 576.85 C9.28 576.85 9.31 576.84 9.31 576.84 C9.96
							 576.76 10.6 576.75 11.21 576.81 C11.21 576.81 11.25 576.81 11.28 576.81 C11.36 576.64 12.14 574.72 12.14
							 574.72 L16.19 576.39 C16.19 576.39 15.42 578.27 15.35 578.45 C15.38 578.47 15.41 578.49 15.41 578.49
							 C15.98 578.93 16.44 579.38 16.81 579.85 C16.81 579.85 16.84 579.88 16.87 579.91 C17.05 579.84 18.88
							 579.09 18.88 579.09 L20.55 583.14 C20.55 583.14 18.72 583.89 18.54 583.97 C18.55 584 18.55 584.04 18.55
							 584.04 C18.59 584.39 18.61 584.69 18.61 584.97 C18.61 585.28 18.59 585.61 18.53 586.02 ZM12.13 587.13
							 C13.32 586.18 13.51 584.44 12.56 583.25 C11.61 582.06 9.87 581.87 8.68 582.82 C7.49 583.77 7.3 585.51
							 8.25 586.7 C9.2 587.89 10.94 588.08 12.13 587.13 ZM10.85 580.95 C11.93 581.07 12.89 581.6 13.56 582.45
							 C14.95 584.19 14.67 586.74 12.93 588.13 C12.09 588.81 11.03 589.12 9.96 589 C8.88 588.88 7.92 588.35
							 7.25 587.5 C6.65 586.76 6.36 585.87 6.36 584.98 C6.36 583.79 6.88 582.61 7.88 581.82 C8.72 581.14 9.78
							 580.84 10.85 580.95 Z" class="st8"/>
			</g>
		</g>
		<g id="shape30-18" v:mID="30" v:groupContext="shape" transform="translate(600.429,-333.638)">
			<title>Retângulo Arredondado</title>
			<desc>Executável</desc>
			<v:userDefs>
				<v:ud v:nameU="CTypeTopLeftSnip" v:prompt="" v:val="VT0(0):5"/>
				<v:ud v:nameU="CTypeTopRightSnip" v:prompt="" v:val="VT0(0):5"/>
				<v:ud v:nameU="CTypeBotLeftSnip" v:prompt="" v:val="VT0(0):5"/>
				<v:ud v:nameU="CTypeBotRightSnip" v:prompt="" v:val="VT0(0):5"/>
				<v:ud v:nameU="CornerLockHoriz" v:prompt="" v:val="VT0(1):5"/>
				<v:ud v:nameU="CornerLockVert" v:prompt="" v:val="VT0(1):5"/>
				<v:ud v:nameU="CornerLockDiag" v:prompt="" v:val="VT0(0):5"/>
				<v:ud v:nameU="TopLeftOffset" v:prompt="" v:val="VT0(0.15748031496063):24"/>
				<v:ud v:nameU="TopRightOffset" v:prompt="" v:val="VT0(0.15748031496063):24"/>
				<v:ud v:nameU="BotLeftOffset" v:prompt="" v:val="VT0(0.15748031496063):24"/>
				<v:ud v:nameU="BotRightOffset" v:prompt="" v:val="VT0(0.15748031496063):24"/>
				<v:ud v:nameU="visVersion" v:prompt="" v:val="VT0(15):26"/>
			</v:userDefs>
			<v:textBlock v:margins="rect(4,4,4,4)" v:tabSpace="42.5197"/>
			<v:textRect cx="56.6929" cy="552.756" width="113.39" height="85.0394"/>
			<path d="M11.34 595.28 L102.05 595.28 A11.3384 11.3384 -180 0 0 113.39 583.94 L113.39 521.57 A11.3384 11.3384 -180 0
						 0 102.05 510.24 L11.34 510.24 A11.3384 11.3384 -180 0 0 0 521.57 L0 583.94 A11.3384 11.3384 -180 0 0 11.34
						 595.28 Z" class="st9"/>
			<text x="26.17" y="556.96" class="st2" v:langID="1046"><v:paragraph v:horizAlign="1"/><v:tabList/>Executável</text>		</g>
		<g id="shape41-21" v:mID="41" v:groupContext="shape" v:layerMember="0" transform="translate(463.207,-369.071)">
			<title>Conector dinâmico.41</title>
			<path d="M0 588.19 L137.22 588.19" class="st3"/>
		</g>
		<g id="shape45-26" v:mID="45" v:groupContext="shape" transform="translate(359.485,-338.225)">
			<title>Retângulo Arredondado.45</title>
			<desc>dll</desc>
			<v:userDefs>
				<v:ud v:nameU="CTypeTopLeftSnip" v:prompt="" v:val="VT0(0):5"/>
				<v:ud v:nameU="CTypeTopRightSnip" v:prompt="" v:val="VT0(0):5"/>
				<v:ud v:nameU="CTypeBotLeftSnip" v:prompt="" v:val="VT0(0):5"/>
				<v:ud v:nameU="CTypeBotRightSnip" v:prompt="" v:val="VT0(0):5"/>
				<v:ud v:nameU="CornerLockHoriz" v:prompt="" v:val="VT0(1):5"/>
				<v:ud v:nameU="CornerLockVert" v:prompt="" v:val="VT0(1):5"/>
				<v:ud v:nameU="CornerLockDiag" v:prompt="" v:val="VT0(0):5"/>
				<v:ud v:nameU="TopLeftOffset" v:prompt="" v:val="VT0(0.15748031496063):24"/>
				<v:ud v:nameU="TopRightOffset" v:prompt="" v:val="VT0(0.15748031496063):24"/>
				<v:ud v:nameU="BotLeftOffset" v:prompt="" v:val="VT0(0.15748031496063):24"/>
				<v:ud v:nameU="BotRightOffset" v:prompt="" v:val="VT0(0.15748031496063):24"/>
				<v:ud v:nameU="visVersion" v:prompt="" v:val="VT0(15):26"/>
				<v:ud v:nameU="TopLeftOffset" v:prompt="" v:val="VT0(0.035790979530627):1"/>
				<v:ud v:nameU="TopRightOffset" v:prompt="" v:val="VT0(0.035790979530627):1"/>
				<v:ud v:nameU="BotLeftOffset" v:prompt="" v:val="VT0(0.035790979530627):1"/>
				<v:ud v:nameU="BotRightOffset" v:prompt="" v:val="VT0(0.035790979530627):1"/>
			</v:userDefs>
			<v:textBlock v:margins="rect(4,4,4,4)" v:tabSpace="42.5197"/>
			<v:textRect cx="12.8848" cy="585.612" width="25.77" height="19.3271"/>
			<path d="M2.58 595.28 L23.19 595.28 A2.57691 2.57691 -180 0 0 25.77 592.7 L25.77 578.53 A2.57691 2.57691 -180 0 0 23.19
						 575.95 L2.58 575.95 A2.57691 2.57691 -180 0 0 -0 578.53 L0 592.7 A2.57691 2.57691 -180 0 0 2.58 595.28 Z"
					class="st10"/>
			<text x="7.96" y="588.61" class="st11" v:langID="1046"><v:paragraph v:horizAlign="1"/><v:tabList/>dll</text>		</g>
		<g id="group47-29" transform="translate(99.2126,-234.425)" v:mID="47" v:groupContext="group">
			<title>Planilha.47</title>
			<g id="shape48-30" v:mID="48" v:groupContext="shape">
				<title>Retângulo Arredondado</title>
				<desc>Código Fonte</desc>
				<v:userDefs>
					<v:ud v:nameU="CTypeTopLeftSnip" v:prompt="" v:val="VT0(0):5"/>
					<v:ud v:nameU="CTypeTopRightSnip" v:prompt="" v:val="VT0(0):5"/>
					<v:ud v:nameU="CTypeBotLeftSnip" v:prompt="" v:val="VT0(0):5"/>
					<v:ud v:nameU="CTypeBotRightSnip" v:prompt="" v:val="VT0(0):5"/>
					<v:ud v:nameU="CornerLockHoriz" v:prompt="" v:val="VT0(1):5"/>
					<v:ud v:nameU="CornerLockVert" v:prompt="" v:val="VT0(1):5"/>
					<v:ud v:nameU="CornerLockDiag" v:prompt="" v:val="VT0(0):5"/>
					<v:ud v:nameU="TopLeftOffset" v:prompt="" v:val="VT0(0.15748031496063):24"/>
					<v:ud v:nameU="TopRightOffset" v:prompt="" v:val="VT0(0.15748031496063):24"/>
					<v:ud v:nameU="BotLeftOffset" v:prompt="" v:val="VT0(0.15748031496063):24"/>
					<v:ud v:nameU="BotRightOffset" v:prompt="" v:val="VT0(0.15748031496063):24"/>
					<v:ud v:nameU="visVersion" v:prompt="" v:val="VT0(15):26"/>
				</v:userDefs>
				<v:textBlock v:margins="rect(4,4,4,4)" v:tabSpace="42.5197"/>
				<v:textRect cx="56.6929" cy="552.756" width="113.39" height="85.0394"/>
				<path d="M11.34 595.28 L102.05 595.28 A11.3384 11.3384 -180 0 0 113.39 583.94 L113.39 521.57 A11.3384 11.3384 -180
							 0 0 102.05 510.24 L11.34 510.24 A11.3384 11.3384 -180 0 0 0 521.57 L0 583.94 A11.3384 11.3384 -180 0
							 0 11.34 595.28 Z" class="st1"/>
				<text x="19" y="556.96" class="st2" v:langID="1046"><v:paragraph v:horizAlign="1"/><v:tabList/>Código Fonte</text>			</g>
		</g>
		<g id="shape52-33" v:mID="52" v:groupContext="shape" v:layerMember="0" transform="translate(212.598,-269.858)">
			<title>Conector dinâmico.52</title>
			<path d="M0 588.19 L137.22 588.19" class="st3"/>
		</g>
		<g id="group53-38" transform="translate(349.821,-234.425)" v:mID="53" v:groupContext="group">
			<title>Planilha.53</title>
			<g id="shape54-39" v:mID="54" v:groupContext="shape">
				<title>Retângulo Arredondado.12</title>
				<desc>Compilação Linux</desc>
				<v:userDefs>
					<v:ud v:nameU="CTypeTopLeftSnip" v:prompt="" v:val="VT0(0):5"/>
					<v:ud v:nameU="CTypeTopRightSnip" v:prompt="" v:val="VT0(0):5"/>
					<v:ud v:nameU="CTypeBotLeftSnip" v:prompt="" v:val="VT0(0):5"/>
					<v:ud v:nameU="CTypeBotRightSnip" v:prompt="" v:val="VT0(0):5"/>
					<v:ud v:nameU="CornerLockHoriz" v:prompt="" v:val="VT0(1):5"/>
					<v:ud v:nameU="CornerLockVert" v:prompt="" v:val="VT0(1):5"/>
					<v:ud v:nameU="CornerLockDiag" v:prompt="" v:val="VT0(0):5"/>
					<v:ud v:nameU="TopLeftOffset" v:prompt="" v:val="VT0(0.15748031496063):24"/>
					<v:ud v:nameU="TopRightOffset" v:prompt="" v:val="VT0(0.15748031496063):24"/>
					<v:ud v:nameU="BotLeftOffset" v:prompt="" v:val="VT0(0.15748031496063):24"/>
					<v:ud v:nameU="BotRightOffset" v:prompt="" v:val="VT0(0.15748031496063):24"/>
					<v:ud v:nameU="visVersion" v:prompt="" v:val="VT0(15):26"/>
				</v:userDefs>
				<v:textBlock v:margins="rect(4,4,4,4)" v:tabSpace="42.5197"/>
				<v:textRect cx="56.6929" cy="552.756" width="113.39" height="85.0394"/>
				<path d="M11.34 595.28 L102.05 595.28 A11.3384 11.3384 -180 0 0 113.39 583.94 L113.39 521.57 A11.3384 11.3384 -180
							 0 0 102.05 510.24 L11.34 510.24 A11.3384 11.3384 -180 0 0 0 521.57 L0 583.94 A11.3384 11.3384 -180 0
							 0 11.34 595.28 Z" class="st12"/>
				<text x="5.74" y="556.96" class="st6" v:langID="1046"><v:paragraph v:horizAlign="1"/><v:tabList/>Compilação Linux</text>			</g>
			<g id="shape55-42" v:mID="55" v:groupContext="shape" transform="translate(82.5268,-4.50966)">
				<title>Configurar</title>
				<v:userDefs>
					<v:ud v:nameU="msvShapeCategories" v:prompt="" v:val="VT4(Icon)"/>
					<v:ud v:nameU="visVersion" v:prompt="" v:val="VT0(15):26"/>
				</v:userDefs>
				<path d="M18.85 587.62 C18.45 587.45 17.18 586.92 17.18 586.91 L17.26 585.85 L17.33 584.97 L17.21 583.26 L18.05 582.78
							 C18.05 582.78 18.48 582.61 18.88 582.44 C18.59 581.75 18.47 581.46 18.19 580.76 C17.79 580.93 16.47
							 581.47 16.47 581.47 L15.82 580.65 C15.5 580.26 15.11 579.88 14.62 579.51 L13.85 578.91 L14.16 577.96
							 C14.16 577.96 14.35 577.52 14.52 577.09 C13.83 576.8 13.54 576.69 12.84 576.4 C12.66 576.84 12.11 578.19
							 12.11 578.19 L11.09 578.09 C10.57 578.03 10.03 578.04 9.49 578.12 L8.51 578.25 L8.06 577.35 C8.06 577.35
							 7.86 576.88 7.67 576.42 C6.97 576.71 6.69 576.84 6 577.13 C6.2 577.62 6.78 578.99 6.78 578.99 L5.99
							 579.65 C5.62 579.96 5.27 580.33 4.93 580.77 L4.33 581.55 L3.39 581.24 C3.39 581.24 2.87 581.03 2.36
							 580.83 C2.08 581.53 1.97 581.82 1.69 582.52 C2.2 582.72 3.58 583.27 3.58 583.27 C3.58 583.27 3.49 584.84
							 3.49 584.96 C3.49 585.07 3.52 585.42 3.52 585.43 C3.52 585.43 3.6 586.25 3.6 586.25 L3.1 586.7 C2.95
							 586.86 2.9 586.9 1.66 587.38 C1.94 588.08 2.05 588.37 2.32 589.07 C2.83 588.87 4.27 588.31 4.27 588.31
							 L5.02 589.33 C5.25 589.61 5.56 589.93 5.95 590.26 L6.68 590.88 L6.36 591.79 C6.36 591.79 6.14 592.31
							 5.92 592.81 C6.61 593.11 6.89 593.23 7.59 593.53 C7.79 593.06 8.38 591.68 8.38 591.68 L9.43 591.82 C9.92
							 591.89 10.45 591.91 11.01 591.86 L11.96 591.77 L12.38 592.65 C12.38 592.65 12.57 593.14 12.76 593.61
							 C13.46 593.33 13.75 593.21 14.44 592.93 C14.27 592.5 13.72 591.12 13.72 591.12 L14.76 590.36 C15.06
							 590.12 15.4 589.78 15.75 589.35 L16.35 588.61 L17.29 588.93 C17.29 588.93 17.73 589.12 18.15 589.29
							 C18.44 588.6 18.56 588.31 18.85 587.62 ZM18.53 586.02 C18.53 586.02 18.53 586.06 18.52 586.09 C18.7
							 586.16 20.53 586.94 20.53 586.94 L18.83 590.98 C18.83 590.98 16.96 590.19 16.78 590.11 C16.76 590.14
							 16.74 590.17 16.74 590.17 C16.33 590.66 15.93 591.07 15.51 591.4 C15.51 591.4 15.38 591.5 15.28 591.57
							 C15.36 591.76 16.11 593.64 16.11 593.64 L12.05 595.28 C12.05 595.28 11.26 593.31 11.19 593.13 C11.15
							 593.13 11.12 593.14 11.12 593.14 C10.46 593.19 9.84 593.18 9.25 593.1 C9.25 593.1 9.21 593.09 9.18 593.09
							 C9.1 593.27 8.26 595.22 8.26 595.22 L4.23 593.48 C4.23 593.48 5.1 591.47 5.18 591.29 C5.15 591.27 5.13
							 591.24 5.13 591.24 C4.67 590.86 4.3 590.48 3.98 590.09 C3.98 590.09 3.89 589.96 3.82 589.87 C3.64 589.94
							 1.59 590.74 1.59 590.74 L0 586.65 C0 586.65 2.19 585.8 2.19 585.8 C2.19 585.8 2.23 585.78 2.26 585.77
							 C2.25 585.66 2.23 585.51 2.23 585.51 L2.2 584.97 C2.2 584.97 2.24 584.28 2.25 584.12 C2.07 584.05 0.02
							 583.23 0.02 583.23 L1.65 579.16 C1.65 579.16 3.68 579.98 3.86 580.05 C3.88 580.02 3.91 579.99 3.91 579.99
							 C4.31 579.47 4.72 579.03 5.17 578.66 C5.17 578.66 5.2 578.64 5.23 578.61 C5.15 578.44 4.31 576.44 4.31
							 576.44 L8.35 574.74 C8.35 574.74 9.17 576.67 9.24 576.85 C9.28 576.85 9.31 576.84 9.31 576.84 C9.96
							 576.76 10.6 576.75 11.21 576.81 C11.21 576.81 11.25 576.81 11.28 576.81 C11.36 576.64 12.14 574.72 12.14
							 574.72 L16.19 576.39 C16.19 576.39 15.42 578.27 15.35 578.45 C15.38 578.47 15.41 578.49 15.41 578.49
							 C15.98 578.93 16.44 579.38 16.81 579.85 C16.81 579.85 16.84 579.88 16.87 579.91 C17.05 579.84 18.88
							 579.09 18.88 579.09 L20.55 583.14 C20.55 583.14 18.72 583.89 18.54 583.97 C18.55 584 18.55 584.04 18.55
							 584.04 C18.59 584.39 18.61 584.69 18.61 584.97 C18.61 585.28 18.59 585.61 18.53 586.02 ZM12.13 587.13
							 C13.32 586.18 13.51 584.44 12.56 583.25 C11.61 582.06 9.87 581.87 8.68 582.82 C7.49 583.77 7.3 585.51
							 8.25 586.7 C9.2 587.89 10.94 588.08 12.13 587.13 ZM10.85 580.95 C11.93 581.07 12.89 581.6 13.56 582.45
							 C14.95 584.19 14.67 586.74 12.93 588.13 C12.09 588.81 11.03 589.12 9.96 589 C8.88 588.88 7.92 588.35
							 7.25 587.5 C6.65 586.76 6.36 585.87 6.36 584.98 C6.36 583.79 6.88 582.61 7.88 581.82 C8.72 581.14 9.78
							 580.84 10.85 580.95 Z" class="st8"/>
			</g>
		</g>
		<g id="shape56-44" v:mID="56" v:groupContext="shape" transform="translate(600.429,-234.425)">
			<title>Retângulo Arredondado.56</title>
			<desc>Executável</desc>
			<v:userDefs>
				<v:ud v:nameU="CTypeTopLeftSnip" v:prompt="" v:val="VT0(0):5"/>
				<v:ud v:nameU="CTypeTopRightSnip" v:prompt="" v:val="VT0(0):5"/>
				<v:ud v:nameU="CTypeBotLeftSnip" v:prompt="" v:val="VT0(0):5"/>
				<v:ud v:nameU="CTypeBotRightSnip" v:prompt="" v:val="VT0(0):5"/>
				<v:ud v:nameU="CornerLockHoriz" v:prompt="" v:val="VT0(1):5"/>
				<v:ud v:nameU="CornerLockVert" v:prompt="" v:val="VT0(1):5"/>
				<v:ud v:nameU="CornerLockDiag" v:prompt="" v:val="VT0(0):5"/>
				<v:ud v:nameU="TopLeftOffset" v:prompt="" v:val="VT0(0.15748031496063):24"/>
				<v:ud v:nameU="TopRightOffset" v:prompt="" v:val="VT0(0.15748031496063):24"/>
				<v:ud v:nameU="BotLeftOffset" v:prompt="" v:val="VT0(0.15748031496063):24"/>
				<v:ud v:nameU="BotRightOffset" v:prompt="" v:val="VT0(0.15748031496063):24"/>
				<v:ud v:nameU="visVersion" v:prompt="" v:val="VT0(15):26"/>
			</v:userDefs>
			<v:textBlock v:margins="rect(4,4,4,4)" v:tabSpace="42.5197"/>
			<v:textRect cx="56.6929" cy="552.756" width="113.39" height="85.0394"/>
			<path d="M11.34 595.28 L102.05 595.28 A11.3384 11.3384 -180 0 0 113.39 583.94 L113.39 521.57 A11.3384 11.3384 -180 0
						 0 102.05 510.24 L11.34 510.24 A11.3384 11.3384 -180 0 0 0 521.57 L0 583.94 A11.3384 11.3384 -180 0 0 11.34
						 595.28 Z" class="st9"/>
			<text x="26.17" y="556.96" class="st2" v:langID="1046"><v:paragraph v:horizAlign="1"/><v:tabList/>Executável</text>		</g>
		<g id="shape64-47" v:mID="64" v:groupContext="shape" v:layerMember="0" transform="translate(463.207,-269.858)">
			<title>Conector dinâmico.64</title>
			<path d="M0 588.19 L137.22 588.19" class="st3"/>
		</g>
		<g id="shape65-52" v:mID="65" v:groupContext="shape" transform="translate(359.485,-239.012)">
			<title>Retângulo Arredondado.65</title>
			<desc>.o</desc>
			<v:userDefs>
				<v:ud v:nameU="CTypeTopLeftSnip" v:prompt="" v:val="VT0(0):5"/>
				<v:ud v:nameU="CTypeTopRightSnip" v:prompt="" v:val="VT0(0):5"/>
				<v:ud v:nameU="CTypeBotLeftSnip" v:prompt="" v:val="VT0(0):5"/>
				<v:ud v:nameU="CTypeBotRightSnip" v:prompt="" v:val="VT0(0):5"/>
				<v:ud v:nameU="CornerLockHoriz" v:prompt="" v:val="VT0(1):5"/>
				<v:ud v:nameU="CornerLockVert" v:prompt="" v:val="VT0(1):5"/>
				<v:ud v:nameU="CornerLockDiag" v:prompt="" v:val="VT0(0):5"/>
				<v:ud v:nameU="TopLeftOffset" v:prompt="" v:val="VT0(0.15748031496063):24"/>
				<v:ud v:nameU="TopRightOffset" v:prompt="" v:val="VT0(0.15748031496063):24"/>
				<v:ud v:nameU="BotLeftOffset" v:prompt="" v:val="VT0(0.15748031496063):24"/>
				<v:ud v:nameU="BotRightOffset" v:prompt="" v:val="VT0(0.15748031496063):24"/>
				<v:ud v:nameU="visVersion" v:prompt="" v:val="VT0(15):26"/>
				<v:ud v:nameU="TopLeftOffset" v:prompt="" v:val="VT0(0.035790979530627):1"/>
				<v:ud v:nameU="TopRightOffset" v:prompt="" v:val="VT0(0.035790979530627):1"/>
				<v:ud v:nameU="BotLeftOffset" v:prompt="" v:val="VT0(0.035790979530627):1"/>
				<v:ud v:nameU="BotRightOffset" v:prompt="" v:val="VT0(0.035790979530627):1"/>
			</v:userDefs>
			<v:textBlock v:margins="rect(4,4,4,4)" v:tabSpace="42.5197"/>
			<v:textRect cx="12.8848" cy="585.612" width="25.77" height="19.3271"/>
			<path d="M2.58 595.28 L23.19 595.28 A2.57691 2.57691 -180 0 0 25.77 592.7 L25.77 578.53 A2.57691 2.57691 -180 0 0 23.19
						 575.95 L2.58 575.95 A2.57691 2.57691 -180 0 0 -0 578.53 L0 592.7 A2.57691 2.57691 -180 0 0 2.58 595.28 Z"
					class="st13"/>
			<text x="8.99" y="588.61" class="st11" v:langID="1046"><v:paragraph v:horizAlign="1"/><v:tabList/>.o</text>		</g>
		<g id="shape66-55" v:mID="66" v:groupContext="shape" transform="translate(680.315,-340.724)">
			<title>Retângulo Arredondado.66</title>
			<desc>exe</desc>
			<v:userDefs>
				<v:ud v:nameU="CTypeTopLeftSnip" v:prompt="" v:val="VT0(0):5"/>
				<v:ud v:nameU="CTypeTopRightSnip" v:prompt="" v:val="VT0(0):5"/>
				<v:ud v:nameU="CTypeBotLeftSnip" v:prompt="" v:val="VT0(0):5"/>
				<v:ud v:nameU="CTypeBotRightSnip" v:prompt="" v:val="VT0(0):5"/>
				<v:ud v:nameU="CornerLockHoriz" v:prompt="" v:val="VT0(1):5"/>
				<v:ud v:nameU="CornerLockVert" v:prompt="" v:val="VT0(1):5"/>
				<v:ud v:nameU="CornerLockDiag" v:prompt="" v:val="VT0(0):5"/>
				<v:ud v:nameU="TopLeftOffset" v:prompt="" v:val="VT0(0.15748031496063):24"/>
				<v:ud v:nameU="TopRightOffset" v:prompt="" v:val="VT0(0.15748031496063):24"/>
				<v:ud v:nameU="BotLeftOffset" v:prompt="" v:val="VT0(0.15748031496063):24"/>
				<v:ud v:nameU="BotRightOffset" v:prompt="" v:val="VT0(0.15748031496063):24"/>
				<v:ud v:nameU="visVersion" v:prompt="" v:val="VT0(15):26"/>
				<v:ud v:nameU="TopLeftOffset" v:prompt="" v:val="VT0(0.035790979530627):1"/>
				<v:ud v:nameU="TopRightOffset" v:prompt="" v:val="VT0(0.035790979530627):1"/>
				<v:ud v:nameU="BotLeftOffset" v:prompt="" v:val="VT0(0.035790979530627):1"/>
				<v:ud v:nameU="BotRightOffset" v:prompt="" v:val="VT0(0.035790979530627):1"/>
			</v:userDefs>
			<v:textBlock v:margins="rect(4,4,4,4)" v:tabSpace="42.5197"/>
			<v:textRect cx="12.8848" cy="585.612" width="25.77" height="19.3271"/>
			<path d="M2.58 595.28 L23.19 595.28 A2.57691 2.57691 -180 0 0 25.77 592.7 L25.77 578.53 A2.57691 2.57691 -180 0 0 23.19
						 575.95 L2.58 575.95 A2.57691 2.57691 -180 0 0 -0 578.53 L0 592.7 A2.57691 2.57691 -180 0 0 2.58 595.28 Z"
					class="st10"/>
			<text x="5.74" y="588.61" class="st11" v:langID="1046"><v:paragraph v:horizAlign="1"/><v:tabList/>exe</text>		</g>
		<g id="shape68-58" v:mID="68" v:groupContext="shape" transform="translate(682.379,-242.025)">
			<title>Retângulo Arredondado.68</title>
			<desc>bin</desc>
			<v:userDefs>
				<v:ud v:nameU="CTypeTopLeftSnip" v:prompt="" v:val="VT0(0):5"/>
				<v:ud v:nameU="CTypeTopRightSnip" v:prompt="" v:val="VT0(0):5"/>
				<v:ud v:nameU="CTypeBotLeftSnip" v:prompt="" v:val="VT0(0):5"/>
				<v:ud v:nameU="CTypeBotRightSnip" v:prompt="" v:val="VT0(0):5"/>
				<v:ud v:nameU="CornerLockHoriz" v:prompt="" v:val="VT0(1):5"/>
				<v:ud v:nameU="CornerLockVert" v:prompt="" v:val="VT0(1):5"/>
				<v:ud v:nameU="CornerLockDiag" v:prompt="" v:val="VT0(0):5"/>
				<v:ud v:nameU="TopLeftOffset" v:prompt="" v:val="VT0(0.15748031496063):24"/>
				<v:ud v:nameU="TopRightOffset" v:prompt="" v:val="VT0(0.15748031496063):24"/>
				<v:ud v:nameU="BotLeftOffset" v:prompt="" v:val="VT0(0.15748031496063):24"/>
				<v:ud v:nameU="BotRightOffset" v:prompt="" v:val="VT0(0.15748031496063):24"/>
				<v:ud v:nameU="visVersion" v:prompt="" v:val="VT0(15):26"/>
				<v:ud v:nameU="TopLeftOffset" v:prompt="" v:val="VT0(0.035790979530627):1"/>
				<v:ud v:nameU="TopRightOffset" v:prompt="" v:val="VT0(0.035790979530627):1"/>
				<v:ud v:nameU="BotLeftOffset" v:prompt="" v:val="VT0(0.035790979530627):1"/>
				<v:ud v:nameU="BotRightOffset" v:prompt="" v:val="VT0(0.035790979530627):1"/>
			</v:userDefs>
			<v:textBlock v:margins="rect(4,4,4,4)" v:tabSpace="42.5197"/>
			<v:textRect cx="12.8848" cy="585.612" width="25.77" height="19.3271"/>
			<path d="M2.58 595.28 L23.19 595.28 A2.57691 2.57691 -180 0 0 25.77 592.7 L25.77 578.53 A2.57691 2.57691 -180 0 0 23.19
						 575.95 L2.58 575.95 A2.57691 2.57691 -180 0 0 -0 578.53 L0 592.7 A2.57691 2.57691 -180 0 0 2.58 595.28 Z"
					class="st10"/>
			<text x="6.48" y="588.61" class="st11" v:langID="1046"><v:paragraph v:horizAlign="1"/><v:tabList/>bin</text>		</g>
		<g id="group69-61" transform="translate(99.2126,-135.213)" v:mID="69" v:groupContext="group">
			<title>Planilha.69</title>
			<g id="shape70-62" v:mID="70" v:groupContext="shape">
				<title>Retângulo Arredondado</title>
				<desc>Código Fonte</desc>
				<v:userDefs>
					<v:ud v:nameU="CTypeTopLeftSnip" v:prompt="" v:val="VT0(0):5"/>
					<v:ud v:nameU="CTypeTopRightSnip" v:prompt="" v:val="VT0(0):5"/>
					<v:ud v:nameU="CTypeBotLeftSnip" v:prompt="" v:val="VT0(0):5"/>
					<v:ud v:nameU="CTypeBotRightSnip" v:prompt="" v:val="VT0(0):5"/>
					<v:ud v:nameU="CornerLockHoriz" v:prompt="" v:val="VT0(1):5"/>
					<v:ud v:nameU="CornerLockVert" v:prompt="" v:val="VT0(1):5"/>
					<v:ud v:nameU="CornerLockDiag" v:prompt="" v:val="VT0(0):5"/>
					<v:ud v:nameU="TopLeftOffset" v:prompt="" v:val="VT0(0.15748031496063):24"/>
					<v:ud v:nameU="TopRightOffset" v:prompt="" v:val="VT0(0.15748031496063):24"/>
					<v:ud v:nameU="BotLeftOffset" v:prompt="" v:val="VT0(0.15748031496063):24"/>
					<v:ud v:nameU="BotRightOffset" v:prompt="" v:val="VT0(0.15748031496063):24"/>
					<v:ud v:nameU="visVersion" v:prompt="" v:val="VT0(15):26"/>
				</v:userDefs>
				<v:textBlock v:margins="rect(4,4,4,4)" v:tabSpace="42.5197"/>
				<v:textRect cx="56.6929" cy="552.756" width="113.39" height="85.0394"/>
				<path d="M11.34 595.28 L102.05 595.28 A11.3384 11.3384 -180 0 0 113.39 583.94 L113.39 521.57 A11.3384 11.3384 -180
							 0 0 102.05 510.24 L11.34 510.24 A11.3384 11.3384 -180 0 0 0 521.57 L0 583.94 A11.3384 11.3384 -180 0
							 0 11.34 595.28 Z" class="st1"/>
				<text x="19" y="556.96" class="st2" v:langID="1046"><v:paragraph v:horizAlign="1"/><v:tabList/>Código Fonte</text>			</g>
		</g>
		<g id="shape71-65" v:mID="71" v:groupContext="shape" v:layerMember="0" transform="translate(212.598,-170.646)">
			<title>Conector dinâmico.71</title>
			<path d="M0 588.19 L137.22 588.19" class="st3"/>
		</g>
		<g id="group72-70" transform="translate(349.821,-135.213)" v:mID="72" v:groupContext="group">
			<title>Planilha.72</title>
			<g id="shape73-71" v:mID="73" v:groupContext="shape">
				<title>Retângulo Arredondado.12</title>
				<desc>Compilação Mac</desc>
				<v:userDefs>
					<v:ud v:nameU="CTypeTopLeftSnip" v:prompt="" v:val="VT0(0):5"/>
					<v:ud v:nameU="CTypeTopRightSnip" v:prompt="" v:val="VT0(0):5"/>
					<v:ud v:nameU="CTypeBotLeftSnip" v:prompt="" v:val="VT0(0):5"/>
					<v:ud v:nameU="CTypeBotRightSnip" v:prompt="" v:val="VT0(0):5"/>
					<v:ud v:nameU="CornerLockHoriz" v:prompt="" v:val="VT0(1):5"/>
					<v:ud v:nameU="CornerLockVert" v:prompt="" v:val="VT0(1):5"/>
					<v:ud v:nameU="CornerLockDiag" v:prompt="" v:val="VT0(0):5"/>
					<v:ud v:nameU="TopLeftOffset" v:prompt="" v:val="VT0(0.15748031496063):24"/>
					<v:ud v:nameU="TopRightOffset" v:prompt="" v:val="VT0(0.15748031496063):24"/>
					<v:ud v:nameU="BotLeftOffset" v:prompt="" v:val="VT0(0.15748031496063):24"/>
					<v:ud v:nameU="BotRightOffset" v:prompt="" v:val="VT0(0.15748031496063):24"/>
					<v:ud v:nameU="visVersion" v:prompt="" v:val="VT0(15):26"/>
				</v:userDefs>
				<v:textBlock v:margins="rect(4,4,4,4)" v:tabSpace="42.5197"/>
				<v:textRect cx="56.6929" cy="552.756" width="113.39" height="85.0394"/>
				<path d="M11.34 595.28 L102.05 595.28 A11.3384 11.3384 -180 0 0 113.39 583.94 L113.39 521.57 A11.3384 11.3384 -180
							 0 0 102.05 510.24 L11.34 510.24 A11.3384 11.3384 -180 0 0 0 521.57 L0 583.94 A11.3384 11.3384 -180 0
							 0 11.34 595.28 Z" class="st14"/>
				<text x="8.65" y="556.96" class="st6" v:langID="1046"><v:paragraph v:horizAlign="1"/><v:tabList/>Compilação Mac</text>			</g>
			<g id="shape74-74" v:mID="74" v:groupContext="shape" transform="translate(82.5268,-4.50966)">
				<title>Configurar</title>
				<v:userDefs>
					<v:ud v:nameU="msvShapeCategories" v:prompt="" v:val="VT4(Icon)"/>
					<v:ud v:nameU="visVersion" v:prompt="" v:val="VT0(15):26"/>
				</v:userDefs>
				<path d="M18.85 587.62 C18.45 587.45 17.18 586.92 17.18 586.91 L17.26 585.85 L17.33 584.97 L17.21 583.26 L18.05 582.78
							 C18.05 582.78 18.48 582.61 18.88 582.44 C18.59 581.75 18.47 581.46 18.19 580.76 C17.79 580.93 16.47
							 581.47 16.47 581.47 L15.82 580.65 C15.5 580.26 15.11 579.88 14.62 579.51 L13.85 578.91 L14.16 577.96
							 C14.16 577.96 14.35 577.52 14.52 577.09 C13.83 576.8 13.54 576.69 12.84 576.4 C12.66 576.84 12.11 578.19
							 12.11 578.19 L11.09 578.09 C10.57 578.03 10.03 578.04 9.49 578.12 L8.51 578.25 L8.06 577.35 C8.06 577.35
							 7.86 576.88 7.67 576.42 C6.97 576.71 6.69 576.84 6 577.13 C6.2 577.62 6.78 578.99 6.78 578.99 L5.99
							 579.65 C5.62 579.96 5.27 580.33 4.93 580.77 L4.33 581.55 L3.39 581.24 C3.39 581.24 2.87 581.03 2.36
							 580.83 C2.08 581.53 1.97 581.82 1.69 582.52 C2.2 582.72 3.58 583.27 3.58 583.27 C3.58 583.27 3.49 584.84
							 3.49 584.96 C3.49 585.07 3.52 585.42 3.52 585.43 C3.52 585.43 3.6 586.25 3.6 586.25 L3.1 586.7 C2.95
							 586.86 2.9 586.9 1.66 587.38 C1.94 588.08 2.05 588.37 2.32 589.07 C2.83 588.87 4.27 588.31 4.27 588.31
							 L5.02 589.33 C5.25 589.61 5.56 589.93 5.95 590.26 L6.68 590.88 L6.36 591.79 C6.36 591.79 6.14 592.31
							 5.92 592.81 C6.61 593.11 6.89 593.23 7.59 593.53 C7.79 593.06 8.38 591.68 8.38 591.68 L9.43 591.82 C9.92
							 591.89 10.45 591.91 11.01 591.86 L11.96 591.77 L12.38 592.65 C12.38 592.65 12.57 593.14 12.76 593.61
							 C13.46 593.33 13.75 593.21 14.44 592.93 C14.27 592.5 13.72 591.12 13.72 591.12 L14.76 590.36 C15.06
							 590.12 15.4 589.78 15.75 589.35 L16.35 588.61 L17.29 588.93 C17.29 588.93 17.73 589.12 18.15 589.29
							 C18.44 588.6 18.56 588.31 18.85 587.62 ZM18.53 586.02 C18.53 586.02 18.53 586.06 18.52 586.09 C18.7
							 586.16 20.53 586.94 20.53 586.94 L18.83 590.98 C18.83 590.98 16.96 590.19 16.78 590.11 C16.76 590.14
							 16.74 590.17 16.74 590.17 C16.33 590.66 15.93 591.07 15.51 591.4 C15.51 591.4 15.38 591.5 15.28 591.57
							 C15.36 591.76 16.11 593.64 16.11 593.64 L12.05 595.28 C12.05 595.28 11.26 593.31 11.19 593.13 C11.15
							 593.13 11.12 593.14 11.12 593.14 C10.46 593.19 9.84 593.18 9.25 593.1 C9.25 593.1 9.21 593.09 9.18 593.09
							 C9.1 593.27 8.26 595.22 8.26 595.22 L4.23 593.48 C4.23 593.48 5.1 591.47 5.18 591.29 C5.15 591.27 5.13
							 591.24 5.13 591.24 C4.67 590.86 4.3 590.48 3.98 590.09 C3.98 590.09 3.89 589.96 3.82 589.87 C3.64 589.94
							 1.59 590.74 1.59 590.74 L0 586.65 C0 586.65 2.19 585.8 2.19 585.8 C2.19 585.8 2.23 585.78 2.26 585.77
							 C2.25 585.66 2.23 585.51 2.23 585.51 L2.2 584.97 C2.2 584.97 2.24 584.28 2.25 584.12 C2.07 584.05 0.02
							 583.23 0.02 583.23 L1.65 579.16 C1.65 579.16 3.68 579.98 3.86 580.05 C3.88 580.02 3.91 579.99 3.91 579.99
							 C4.31 579.47 4.72 579.03 5.17 578.66 C5.17 578.66 5.2 578.64 5.23 578.61 C5.15 578.44 4.31 576.44 4.31
							 576.44 L8.35 574.74 C8.35 574.74 9.17 576.67 9.24 576.85 C9.28 576.85 9.31 576.84 9.31 576.84 C9.96
							 576.76 10.6 576.75 11.21 576.81 C11.21 576.81 11.25 576.81 11.28 576.81 C11.36 576.64 12.14 574.72 12.14
							 574.72 L16.19 576.39 C16.19 576.39 15.42 578.27 15.35 578.45 C15.38 578.47 15.41 578.49 15.41 578.49
							 C15.98 578.93 16.44 579.38 16.81 579.85 C16.81 579.85 16.84 579.88 16.87 579.91 C17.05 579.84 18.88
							 579.09 18.88 579.09 L20.55 583.14 C20.55 583.14 18.72 583.89 18.54 583.97 C18.55 584 18.55 584.04 18.55
							 584.04 C18.59 584.39 18.61 584.69 18.61 584.97 C18.61 585.28 18.59 585.61 18.53 586.02 ZM12.13 587.13
							 C13.32 586.18 13.51 584.44 12.56 583.25 C11.61 582.06 9.87 581.87 8.68 582.82 C7.49 583.77 7.3 585.51
							 8.25 586.7 C9.2 587.89 10.94 588.08 12.13 587.13 ZM10.85 580.95 C11.93 581.07 12.89 581.6 13.56 582.45
							 C14.95 584.19 14.67 586.74 12.93 588.13 C12.09 588.81 11.03 589.12 9.96 589 C8.88 588.88 7.92 588.35
							 7.25 587.5 C6.65 586.76 6.36 585.87 6.36 584.98 C6.36 583.79 6.88 582.61 7.88 581.82 C8.72 581.14 9.78
							 580.84 10.85 580.95 Z" class="st8"/>
			</g>
		</g>
		<g id="shape75-76" v:mID="75" v:groupContext="shape" transform="translate(600.429,-135.213)">
			<title>Retângulo Arredondado.75</title>
			<desc>Executável</desc>
			<v:userDefs>
				<v:ud v:nameU="CTypeTopLeftSnip" v:prompt="" v:val="VT0(0):5"/>
				<v:ud v:nameU="CTypeTopRightSnip" v:prompt="" v:val="VT0(0):5"/>
				<v:ud v:nameU="CTypeBotLeftSnip" v:prompt="" v:val="VT0(0):5"/>
				<v:ud v:nameU="CTypeBotRightSnip" v:prompt="" v:val="VT0(0):5"/>
				<v:ud v:nameU="CornerLockHoriz" v:prompt="" v:val="VT0(1):5"/>
				<v:ud v:nameU="CornerLockVert" v:prompt="" v:val="VT0(1):5"/>
				<v:ud v:nameU="CornerLockDiag" v:prompt="" v:val="VT0(0):5"/>
				<v:ud v:nameU="TopLeftOffset" v:prompt="" v:val="VT0(0.15748031496063):24"/>
				<v:ud v:nameU="TopRightOffset" v:prompt="" v:val="VT0(0.15748031496063):24"/>
				<v:ud v:nameU="BotLeftOffset" v:prompt="" v:val="VT0(0.15748031496063):24"/>
				<v:ud v:nameU="BotRightOffset" v:prompt="" v:val="VT0(0.15748031496063):24"/>
				<v:ud v:nameU="visVersion" v:prompt="" v:val="VT0(15):26"/>
			</v:userDefs>
			<v:textBlock v:margins="rect(4,4,4,4)" v:tabSpace="42.5197"/>
			<v:textRect cx="56.6929" cy="552.756" width="113.39" height="85.0394"/>
			<path d="M11.34 595.28 L102.05 595.28 A11.3384 11.3384 -180 0 0 113.39 583.94 L113.39 521.57 A11.3384 11.3384 -180 0
						 0 102.05 510.24 L11.34 510.24 A11.3384 11.3384 -180 0 0 0 521.57 L0 583.94 A11.3384 11.3384 -180 0 0 11.34
						 595.28 Z" class="st9"/>
			<text x="26.17" y="556.96" class="st2" v:langID="1046"><v:paragraph v:horizAlign="1"/><v:tabList/>Executável</text>		</g>
		<g id="shape76-79" v:mID="76" v:groupContext="shape" v:layerMember="0" transform="translate(463.207,-170.646)">
			<title>Conector dinâmico.76</title>
			<path d="M0 588.19 L137.22 588.19" class="st3"/>
		</g>
		<g id="shape77-84" v:mID="77" v:groupContext="shape" transform="translate(359.485,-139.8)">
			<title>Retângulo Arredondado.77</title>
			<desc>.o</desc>
			<v:userDefs>
				<v:ud v:nameU="CTypeTopLeftSnip" v:prompt="" v:val="VT0(0):5"/>
				<v:ud v:nameU="CTypeTopRightSnip" v:prompt="" v:val="VT0(0):5"/>
				<v:ud v:nameU="CTypeBotLeftSnip" v:prompt="" v:val="VT0(0):5"/>
				<v:ud v:nameU="CTypeBotRightSnip" v:prompt="" v:val="VT0(0):5"/>
				<v:ud v:nameU="CornerLockHoriz" v:prompt="" v:val="VT0(1):5"/>
				<v:ud v:nameU="CornerLockVert" v:prompt="" v:val="VT0(1):5"/>
				<v:ud v:nameU="CornerLockDiag" v:prompt="" v:val="VT0(0):5"/>
				<v:ud v:nameU="TopLeftOffset" v:prompt="" v:val="VT0(0.15748031496063):24"/>
				<v:ud v:nameU="TopRightOffset" v:prompt="" v:val="VT0(0.15748031496063):24"/>
				<v:ud v:nameU="BotLeftOffset" v:prompt="" v:val="VT0(0.15748031496063):24"/>
				<v:ud v:nameU="BotRightOffset" v:prompt="" v:val="VT0(0.15748031496063):24"/>
				<v:ud v:nameU="visVersion" v:prompt="" v:val="VT0(15):26"/>
				<v:ud v:nameU="TopLeftOffset" v:prompt="" v:val="VT0(0.035790979530627):1"/>
				<v:ud v:nameU="TopRightOffset" v:prompt="" v:val="VT0(0.035790979530627):1"/>
				<v:ud v:nameU="BotLeftOffset" v:prompt="" v:val="VT0(0.035790979530627):1"/>
				<v:ud v:nameU="BotRightOffset" v:prompt="" v:val="VT0(0.035790979530627):1"/>
			</v:userDefs>
			<v:textBlock v:margins="rect(4,4,4,4)" v:tabSpace="42.5197"/>
			<v:textRect cx="12.8848" cy="585.612" width="25.77" height="19.3271"/>
			<path d="M2.58 595.28 L23.19 595.28 A2.57691 2.57691 -180 0 0 25.77 592.7 L25.77 578.53 A2.57691 2.57691 -180 0 0 23.19
						 575.95 L2.58 575.95 A2.57691 2.57691 -180 0 0 -0 578.53 L0 592.7 A2.57691 2.57691 -180 0 0 2.58 595.28 Z"
					class="st13"/>
			<text x="8.99" y="588.61" class="st11" v:langID="1046"><v:paragraph v:horizAlign="1"/><v:tabList/>.o</text>		</g>
		<g id="shape78-87" v:mID="78" v:groupContext="shape" transform="translate(682.379,-142.812)">
			<title>Retângulo Arredondado.78</title>
			<desc>app</desc>
			<v:userDefs>
				<v:ud v:nameU="CTypeTopLeftSnip" v:prompt="" v:val="VT0(0):5"/>
				<v:ud v:nameU="CTypeTopRightSnip" v:prompt="" v:val="VT0(0):5"/>
				<v:ud v:nameU="CTypeBotLeftSnip" v:prompt="" v:val="VT0(0):5"/>
				<v:ud v:nameU="CTypeBotRightSnip" v:prompt="" v:val="VT0(0):5"/>
				<v:ud v:nameU="CornerLockHoriz" v:prompt="" v:val="VT0(1):5"/>
				<v:ud v:nameU="CornerLockVert" v:prompt="" v:val="VT0(1):5"/>
				<v:ud v:nameU="CornerLockDiag" v:prompt="" v:val="VT0(0):5"/>
				<v:ud v:nameU="TopLeftOffset" v:prompt="" v:val="VT0(0.15748031496063):24"/>
				<v:ud v:nameU="TopRightOffset" v:prompt="" v:val="VT0(0.15748031496063):24"/>
				<v:ud v:nameU="BotLeftOffset" v:prompt="" v:val="VT0(0.15748031496063):24"/>
				<v:ud v:nameU="BotRightOffset" v:prompt="" v:val="VT0(0.15748031496063):24"/>
				<v:ud v:nameU="visVersion" v:prompt="" v:val="VT0(15):26"/>
				<v:ud v:nameU="TopLeftOffset" v:prompt="" v:val="VT0(0.035790979530627):1"/>
				<v:ud v:nameU="TopRightOffset" v:prompt="" v:val="VT0(0.035790979530627):1"/>
				<v:ud v:nameU="BotLeftOffset" v:prompt="" v:val="VT0(0.035790979530627):1"/>
				<v:ud v:nameU="BotRightOffset" v:prompt="" v:val="VT0(0.035790979530627):1"/>
			</v:userDefs>
			<v:textBlock v:margins="rect(4,4,4,4)" v:tabSpace="42.5197"/>
			<v:textRect cx="12.8848" cy="585.612" width="25.77" height="19.3271"/>
			<path d="M2.58 595.28 L23.19 595.28 A2.57691 2.57691 -180 0 0 25.77 592.7 L25.77 578.53 A2.57691 2.57691 -180 0 0 23.19
						 575.95 L2.58 575.95 A2.57691 2.57691 -180 0 0 -0 578.53 L0 592.7 A2.57691 2.57691 -180 0 0 2.58 595.28 Z"
					class="st10"/>
			<text x="5.24" y="588.61" class="st11" v:langID="1046"><v:paragraph v:horizAlign="1"/><v:tabList/>app</text>		</g>
	</g>
</svg>
