<?xml version="1.0" encoding="UTF-8"?>
<svg width="100px" height="100px" viewBox="0 0 100 100" version="1.1" xmlns="http://www.w3.org/2000/svg" xmlns:xlink="http://www.w3.org/1999/xlink">
    <title>logo</title>
    <g id="logo" stroke="none" stroke-width="1" fill="none" fill-rule="evenodd">
        <g transform="translate(6.000000, 18.000000)" fill="#000000" fill-rule="nonzero" id="pizza">
            <path d="M20.7454022,16.3085721 C20.4267209,15.9893124 20.1886295,15.5770713 19.9155695,15.1979236 C19.0986538,14.0611345 18.4274948,12.8177219 18.139371,11.4171444 C18.1292019,11.3649068 18.1484101,11.0878894 18.3721298,11.0981786 C18.5834206,11.128594 18.6003691,11.4301472 18.6647732,11.6921266 C19.0545878,13.2655856 20.0070912,14.6425319 21.0093101,15.929815 C21.2414021,16.215424 21.5658842,16.5240044 21.9032828,16.6377825 C21.6824217,16.4823805 21.4725802,16.3137987 21.2929143,16.1130988 C21.2929143,16.1130988 21.22964,16.0325941 21.2364194,15.94474 C21.2454586,15.8278274 21.3279411,15.7347721 21.4691783,15.736242 C21.6759495,15.7475488 21.7945887,15.9985606 22.0070094,16.1610398 C22.1182408,16.246411 22.2403689,16.3191001 22.3617881,16.391817 C22.3878878,16.3882895 22.4141569,16.3913889 22.4396183,16.3999839 C22.4854869,16.3770772 22.531342,16.354142 22.5771857,16.3311827 C22.1816978,15.9677724 21.8438018,15.5375841 21.4985556,15.1221678 C21.4985556,15.1221678 21.4138133,14.7442934 21.6849886,14.751869 C21.9482547,14.7728997 22.1007908,15.1460253 22.3233806,15.4104921 C22.5362055,15.6606534 22.7614835,15.9026849 23.0121027,16.1126409 C23.1279014,16.0543041 23.2436704,15.9958989 23.3594442,15.9374942 C23.3504036,15.9273744 23.3413807,15.9173095 23.3323789,15.9073144 C22.7143251,15.2188413 22.1731043,14.465693 21.6601309,13.6966022 C21.6601309,13.6966022 21.5731288,13.333992 21.8646423,13.345525 C22.0126588,13.3618068 22.0861022,13.521007 22.1731043,13.6499049 C22.6638843,14.3754742 23.1937066,15.0739789 23.7822643,15.7243611 C24.0736135,15.577722 24.3652588,15.431615 24.6577484,15.2871345 C25.1401732,15.0540689 25.6897884,15.0963084 26.2274795,15.2347787 C25.2278711,13.8538599 25.1295198,11.8635707 25.387662,10.2456433 C25.6125116,8.8397515 25.8418807,7.32848 26.9751677,6.4431549 C27.621469,5.938757 28.4383847,5.6645663 29.2586901,5.6551816 C29.2745087,5.6550686 29.2903272,5.6550686 29.3061458,5.6550686 C29.3757298,5.6556469 29.4452862,5.6583914 29.5146721,5.6632768 C29.3275268,5.565565 29.138786,5.4764982 28.9558776,5.3929762 C28.9558776,5.3929762 28.5965703,5.164352 28.2474321,4.970892 C27.5586975,4.5899191 26.8301485,4.290774 26.075686,4.059793 C26.0202563,4.1337325 25.9495412,4.2033538 25.8689983,4.2592399 C25.596693,4.4474987 25.322128,4.598558 25.0825898,4.88643 C24.4679256,5.6229572 23.9854595,6.4875908 23.7911172,7.4279802 C23.7911172,7.4279802 23.7029852,7.6268674 23.5414099,7.6066282 C23.2465067,7.5693156 23.4069521,6.9873529 23.594515,6.4974277 C23.9063667,5.6814135 24.3990019,4.9440948 24.992198,4.3025451 C25.1563832,4.1297292 25.4074168,4.0450279 25.5863534,3.9203257 C25.4463018,3.8832791 25.3054817,3.8484191 25.1639782,3.8156618 C25.0049331,4.2294335 24.4743111,4.3360738 24.2611544,4.6608586 C24.1052286,4.902938 23.9752904,5.1605076 23.8397028,5.4143461 C23.8397028,5.4143461 23.7685192,5.5215349 23.6634388,5.5325025 C23.5052532,5.5488974 23.3606263,5.3835915 23.4351995,5.2116145 C23.6645687,4.754027 23.7402718,4.4339305 24.1831915,4.1110073 C24.3610802,3.9816453 24.6241835,3.8840883 24.7168499,3.7194871 C24.57231,3.6907078 24.4271621,3.6639915 24.2814945,3.6392513 C24.2688102,3.6463526 24.2548914,3.6526635 24.2396864,3.6580555 C24.0363049,3.8378342 23.8950677,4.1077283 23.7368821,4.3277593 C23.3165603,4.9168454 22.9561231,5.5462968 22.5471003,6.14375 C22.5471003,6.14375 22.3889146,6.3308781 22.230729,6.2440416 C21.9878011,6.1097164 22.2985229,5.708776 22.516593,5.369571 C22.7617807,4.9843472 23.001319,4.5943745 23.2623252,4.218083 C23.4171104,3.9936977 23.5582654,3.7611907 23.724327,3.5543967 C22.8482817,3.4359022 21.957735,3.3838129 21.0714544,3.37942809 C19.2296948,3.3710898 17.3619216,3.5808593 15.5912564,4.06264 C15.3802767,4.612756 15.1461888,5.1552192 15.026504,5.7336511 C14.8118235,6.7653997 14.8547596,7.8340086 14.8875266,8.8917629 C14.8875266,8.8917629 14.8649286,9.0629484 14.7417698,9.1099849 C14.6061822,9.161544 14.4491264,9.0834138 14.4355677,8.9054442 C14.3937615,7.5422923 14.3237078,6.1775574 14.8005245,4.8673214 C14.8797737,4.65029 14.9647767,4.4351586 15.0487106,4.2198063 C14.8115209,4.2927823 14.5763488,4.3708598 14.3435012,4.4541727 C14.4351409,4.7451419 14.230588,5.2705348 14.0536624,5.7257363 C13.9169448,6.0742129 13.7542396,6.4163577 13.6875757,6.7803247 C13.6875757,6.7803247 13.6017035,6.9833955 13.4378684,6.9636085 C13.3000209,6.9468744 13.2209281,6.8024861 13.2536951,6.6456603 C13.4000058,5.9538888 13.8836974,5.3295332 13.8851397,4.6261887 C13.6257634,4.728168 13.3696112,4.8369387 13.1171251,4.9526937 C13.2084948,5.1357619 13.1474843,5.4971214 13.0955095,5.7501591 C13.0604827,5.922136 13.0209363,6.0930953 12.9836497,6.2647331 C12.9418435,6.4590976 12.903427,6.7452735 12.903427,6.7452735 C12.8638806,6.9982074 12.385934,7.0788251 12.4774557,6.49788 C12.549087,6.0440079 12.7479043,5.5891968 12.7194186,5.1423654 C12.1906396,5.4045421 11.6795229,5.6988089 11.1903295,6.0270224 C11.1925332,6.1727778 11.1831682,6.3319797 11.1803336,6.4758317 C11.1690346,6.6946189 10.7453232,6.7902747 10.7295046,6.4758317 C10.7287692,6.4369527 10.7270764,6.397147 10.7249004,6.3569281 C10.5631812,6.4786345 10.4052891,6.6053239 10.2516282,6.7367659 C10.2711564,6.8389943 10.276735,6.9582513 10.2899745,7.06537 C10.3227416,7.3343596 10.3848859,7.5988265 10.4379911,7.8649893 C10.4379911,7.8649893 10.3577684,8.2462558 10.1069312,8.1074079 C9.95665485,8.0237373 9.96117444,7.7921733 9.91823834,7.5785872 C9.88739843,7.4229225 9.85992555,7.2663143 9.84114998,7.1089651 C9.63822211,7.3040183 9.44423209,7.5078958 9.26027409,7.7199734 C9.2783849,7.8132424 9.30603561,7.946512 9.33652052,8.0609368 C9.33652052,8.0609368 9.45320927,8.6617819 9.5910013,9.0939291 C9.67169033,9.3465238 9.75734484,9.598327 9.8367925,9.8516001 C9.8367925,9.8516001 9.85913715,10.0573845 9.69651772,10.1213812 C9.56865665,10.1724881 9.40479585,10.1055516 9.35886517,9.9764276 C9.17635365,9.3970341 8.98274598,8.8325841 8.84707278,8.2330081 C8.83646828,8.2472174 8.82590739,8.2614576 8.81539038,8.2757285 C8.76275995,8.7443208 8.85494219,9.2750471 8.96121534,9.7661204 C9.2278711,11.0027489 9.68321971,12.2671922 10.4086138,13.2072424 C10.4086138,13.2072424 10.5182138,13.3650858 10.4436406,13.4883303 C10.3588983,13.6277435 10.174725,13.6458345 10.0312281,13.4566711 C9.04817186,12.1514941 8.41184269,10.4228741 8.35965808,8.9598011 C7.89826317,9.7303258 7.56092499,10.5736658 7.38387874,11.4691558 C6.53758567,15.7535415 6.27996909,20.2807979 8.73975548,24.2111666 C9.27871648,25.0734257 10.1634261,25.7132795 10.9238469,26.4042401 C12.0062885,27.3911006 13.1407054,28.3709509 13.8186438,29.676551 C14.2751223,30.5569011 14.2909408,31.7458148 13.2932415,32.4631203 C12.2413072,33.2197737 10.7588819,33.0626087 9.52842378,32.6518314 C8.59400802,32.3397359 7.71014451,31.9073 6.84692306,31.4193168 C6.76609868,31.6477013 6.68936282,31.9098253 6.70594037,32.1859898 C6.7341878,32.6656257 6.93982911,33.1138286 7.16580856,33.5292417 C7.16580856,33.5292417 7.21326425,33.6385788 7.17484774,33.7273375 C7.09914462,33.9014627 6.85169712,33.9031587 6.71723934,33.6497726 C6.32376925,32.8989371 6.15835284,32.0272243 6.42713572,31.1770239 C4.96186957,30.3150181 3.54268967,29.3215366 2.02025634,28.520088 C2.97049995,30.9111443 4.61111081,33.0522064 6.28448868,35.0173342 C6.72966821,35.5390315 7.24151168,36.0125617 7.87425416,36.2613121 C8.93303548,36.6777179 10.1053835,36.7569141 11.2707242,36.7209765 C10.4017707,36.2597626 9.65843334,35.5100663 9.19058449,34.7017604 C9.09228343,34.5321579 9.14199891,34.3074911 9.36345878,34.307265 C9.36910826,34.3077173 9.37588765,34.3081695 9.38153713,34.3086218 C9.46514953,34.3217377 9.48548768,34.3064735 9.58265885,34.4752846 C10.0775539,35.3234102 10.8481438,36.0034032 11.7294637,36.418251 C11.928987,36.5119471 12.1373072,36.5908982 12.3510344,36.6470304 C13.218049,36.5442804 14.0738326,36.3270319 14.8622472,35.9763365 C14.425894,35.880024 14.0098917,35.7130867 13.6593282,35.4930127 C13.4333488,35.3509989 13.156524,34.8378947 13.6344705,34.8640135 C13.6819262,34.8700061 13.6898355,34.8750942 13.7101736,34.8844789 C13.7949159,34.9242789 13.8276829,35.0537422 13.8502809,35.0734161 C14.0005572,35.2028793 14.2129779,35.2504811 14.4140996,35.3256716 C14.7952771,35.4654219 15.1947893,35.5718276 15.5958283,35.598504 C15.8109296,35.4711355 16.0188147,35.3319675 16.2181028,35.1805336 C15.6392786,35.2718116 15.0796164,35.2561134 14.6502482,34.9134244 C14.4705945,34.7708452 14.4525161,34.457759 14.7101327,34.4432862 C14.7157822,34.4432862 14.7203018,34.4433993 14.7259513,34.4433993 C14.8186029,34.4507487 14.8999555,34.5409773 14.9745287,34.5911796 C15.4862691,34.9395387 16.2142136,34.7524 16.9055158,34.5719642 C17.0974211,34.3744514 17.2750113,34.1656672 17.4387158,33.9470061 C16.9434357,34.1114219 16.3984171,34.1337536 15.8694073,34.1344966 C15.8694073,34.1344966 15.7541578,34.1233028 15.6954031,34.0527482 C15.5891928,33.9243025 15.675065,33.688555 15.8694073,33.6822232 C16.5844865,33.6812489 17.3213169,33.6045066 17.9341189,33.1824633 C19.0753557,31.1376593 19.2344198,28.4829825 18.6805918,26.0927368 C18.5174199,25.386397 18.2941843,24.6924224 18.0128289,24.0237816 C18.0042737,24.1593569 17.9970039,24.2818343 17.9970039,24.2818343 C17.9687565,24.5304716 17.5190574,24.6217177 17.5529543,24.0905226 C17.5721625,23.8095478 17.6456059,23.5108212 17.5292264,23.2612794 C17.5292264,23.2612794 17.5175206,23.1517541 17.5580831,23.0615667 C17.4703832,22.8952157 17.3788298,22.7310002 17.2834568,22.5691473 C17.2788736,22.6606822 17.2756151,22.7489293 17.2761294,22.8300367 C17.2795191,23.4055546 17.2524016,23.981977 17.1507108,24.5472057 C17.1507108,24.5472057 17.0670984,24.7440576 16.9123025,24.7326377 C16.6671148,24.7146599 16.7382983,24.319486 16.7721953,24.0148799 C16.8533146,23.2925207 16.8165622,22.5642639 16.8093895,21.8298344 C16.7067577,21.6824721 16.600674,21.5375996 16.4911682,21.3954158 C16.4994171,22.5859179 16.4685916,23.7554731 15.8716671,24.9194266 C15.7835351,25.0932127 15.7033124,25.216231 15.5496464,25.1861549 C15.3835515,25.153365 15.3360958,24.9704205 15.4513453,24.7486935 C16.0340034,23.6191825 16.0388689,22.3141738 16.0359474,21.0207669 C15.8046441,22.4018543 15.0120706,23.6633207 13.925984,24.6084887 C13.925984,24.6084887 13.8242932,24.70324 13.7158231,24.6882019 C13.5180911,24.6607263 13.4491673,24.4250919 13.6898355,24.2141063 C14.5901538,23.415887 15.278097,22.3835475 15.5387422,21.2120108 C14.951729,21.8720431 14.2508932,22.464213 13.5339096,22.8660287 C12.738462,23.3112918 11.8232452,23.5305313 10.9080284,23.5369762 C10.9080284,23.5369762 10.362288,23.4534187 10.2391292,23.0625414 C10.0967621,22.6080067 10.5340324,22.1983601 11.0515253,22.1764248 C11.935105,22.1348157 12.7802682,21.8212772 13.4932333,21.2410104 C14.1776843,20.683877 14.8224219,20.0484711 15.2727414,19.3041322 C15.372681,18.4891361 16.0005073,17.7766951 16.4467848,17.3375159 C17.2343232,16.5724955 18.1732679,15.9341116 19.2929961,15.9130809 C19.3246332,15.9128548 19.3562703,15.9129678 19.3879075,15.9134201 C19.8657286,15.9249241 20.3092356,16.1109311 20.7454022,16.3085721 Z M27.2619973,15.5863817 C27.3051372,15.6029758 27.3477698,15.6193895 27.38984,15.6354981 C27.9423598,15.8443353 28.534426,16.0189129 29.1027643,15.8246614 C30.0236306,15.5093138 30.6326452,14.644341 30.9670948,13.8330757 C31.8427652,11.7087476 31.3094537,9.1961429 30.9072103,6.8807294 C30.8789628,6.7177979 30.8292473,6.6770933 30.7806618,6.6168279 C30.727052,6.5513811 30.6700843,6.4886541 30.6102575,6.4284387 C29.4478972,5.8388083 27.7857855,6.1263027 26.8666976,7.1622696 C26.4147387,7.6707379 26.2554231,8.3863475 26.0825489,9.0875973 C25.6814353,10.7196258 25.531159,12.4560163 26.1390437,14.0780948 C26.3600382,14.6686165 26.739893,15.2073319 27.2619973,15.5863817 Z M44.6870407,61.2716428 C44.6080311,60.9108789 44.5433781,60.5479549 44.583487,60.1813722 C44.583487,60.1813722 44.6151241,59.9794322 44.8151159,59.9802237 C45.187982,60.0014805 45.0128479,60.2401678 45.023017,60.5081398 C45.0331358,60.764121 45.0879599,61.0140971 45.1458906,61.2649739 C49.4156767,61.1880271 53.6751895,60.7000023 57.9093423,60.1753018 C57.9025905,60.0117473 57.9211875,59.8173932 57.9354831,59.6435061 C57.9524316,59.4302592 57.9874584,59.1175122 57.9874584,59.1175122 C58.0077966,59.0036524 58.0891492,58.9209994 58.2258667,58.9269921 C58.4993019,58.9514148 58.4055204,59.4118291 58.377273,59.7869899 C58.3695911,59.8978251 58.3627725,60.0087035 58.3573507,60.1196518 C58.5700497,60.0931761 58.7826834,60.066641 58.9952497,60.0400942 C59.022708,59.6867916 59.0478189,59.3335169 59.0868485,58.981491 C59.0868485,58.981491 59.1117062,58.7751413 59.3241269,58.7807947 C59.3648032,58.7841867 59.3761022,58.7885964 59.3975702,58.7975288 C59.6077311,58.883913 59.5105599,59.2531942 59.4834424,59.5843714 C59.4728955,59.7171729 59.4629339,59.8500564 59.4527664,59.9829427 C59.4806946,59.9794542 59.5086217,59.9759661 59.5365476,59.9724785 C59.787316,59.9411479 60.0380691,59.9095391 60.2887993,59.8776572 C60.2825141,59.6713576 60.2863227,59.4485928 60.2788901,59.2587346 C60.2721107,59.0765815 60.2732406,58.893863 60.2924489,58.7122753 C60.2924489,58.7122753 60.3286056,58.505021 60.5297273,58.5109005 C60.8912944,58.5405245 60.7285892,58.7683572 60.7263294,59.0307888 C60.7243008,59.2934079 60.7473629,59.5560675 60.7562804,59.8178952 C63.3906017,59.4793352 66.0218667,59.1109644 68.6412599,58.7186636 C68.9621507,58.6704965 69.2943405,58.6476567 69.5734251,58.4954667 C69.9914871,58.2666164 70.2705718,57.807672 70.278481,57.3206866 C70.2818707,56.6998284 70.3394955,56.0401877 69.9756686,55.5925501 C69.7203118,55.27969 69.3271075,55.0915443 68.9169548,55.0922209 C68.7651733,55.0934626 68.6140994,55.1112261 68.4629787,55.1348463 C68.5621091,55.5368483 68.6441791,55.9419006 68.6457795,56.3618106 C68.6457795,56.3618106 68.6310908,56.5324307 68.5135815,56.585912 C68.354266,56.6573712 68.19947,56.5176187 68.1926907,56.2828889 C68.1815035,55.9199222 68.1060449,55.5642082 68.0176522,55.2111553 C67.9860195,55.2163293 67.9543528,55.2213037 67.9226452,55.2259825 C67.6731478,55.2626401 67.4236424,55.2992655 67.1741227,55.3358289 C67.1812155,55.3742628 67.1897832,55.4121773 67.2006409,55.4487837 C67.2605254,55.6472186 67.3396182,55.839774 67.4017626,56.0352692 C67.4017626,56.0352692 67.4221007,56.2580138 67.265045,56.316131 C67.0300264,56.4027413 66.9091274,56.001914 66.8108263,55.7143812 C66.7767272,55.6116986 66.7454788,55.50734 66.7220332,55.4019993 C66.4029605,55.4486417 66.083858,55.4951538 65.7647122,55.5414737 C65.7620304,55.6531513 65.7608239,55.7744133 65.7747105,55.899248 C65.8436342,56.5132091 65.9792219,57.1249088 65.9577538,57.7414705 C65.9441951,58.1547353 65.4990155,58.0593056 65.5069248,57.6900244 C65.5195026,56.9958314 65.3158485,56.3088512 65.2911056,55.6100582 C60.5652712,56.292815 55.828498,56.9267474 51.0371892,57.3112327 C51.0407969,57.3436081 51.0452601,57.3753922 51.051019,57.4061098 C51.1097737,57.722475 51.204685,58.0314908 51.248751,58.3502304 C51.248751,58.3502304 51.2306727,58.5676609 51.072487,58.6019206 C50.7640251,58.6689701 50.7222189,58.0337521 50.6374766,57.6419703 C50.6166922,57.5444702 50.5975001,57.4459662 50.5830089,57.3469129 C50.5791379,57.3472104 50.5752668,57.3475078 50.5713956,57.347805 C50.5560955,57.3597541 50.5380829,57.3712855 50.5171923,57.3822524 C50.5171923,57.3822524 50.5257119,57.9565265 50.7110126,58.4427203 C50.7110126,58.4427203 50.4319966,58.9168159 49.9719396,58.6358411 C49.5450793,58.3754615 49.5857304,57.8550541 49.6532763,57.4150623 C49.4751489,57.4274755 49.2969407,57.4395189 49.1186495,57.4511823 C49.1103626,57.4647097 49.100315,57.4777225 49.0883874,57.4900065 C48.8544987,57.7106028 49.0364121,58.1329131 49.0623998,58.5106744 C49.0623998,58.5106744 49.0330225,58.7460827 48.8612781,58.7641736 C48.50988,58.8012601 48.5132697,58.0091032 48.5595955,57.6289675 C48.5653334,57.5821048 48.5737007,57.5332061 48.5853456,57.484911 C47.6807806,57.5401393 46.7740255,57.5853424 45.8647905,57.6191871 C44.2432186,57.6795354 42.6221302,57.6634111 41.0020856,57.5937374 C40.9872472,57.7987692 40.9728381,58.1225615 41.0028607,58.3794021 C41.0028607,58.3794021 40.9476411,58.5963802 40.6640755,58.6186547 C40.0318599,58.6683347 40.0997581,57.9327295 40.1747864,57.5536108 C40.0676723,57.5478412 39.9605633,57.5418545 39.8534594,57.5356573 C39.7983586,57.8769105 39.7450705,58.2175122 39.753515,58.5605376 C39.753515,58.5605376 39.7489955,58.6443212 39.7122738,58.6964457 C39.5866292,58.8745283 39.2884493,58.8618647 39.3016691,58.3800805 C39.3096941,58.0877803 39.3543964,57.7978969 39.4009125,57.508236 C39.3623071,57.5057928 39.3237025,57.5033236 39.2850985,57.5008285 C39.2743287,57.5433258 39.2648456,57.5873349 39.2584621,57.629759 C39.2155365,57.9153696 39.2220451,58.2057291 39.1870227,58.4883999 C39.1870227,58.4883999 39.0539068,58.7696009 38.7681493,58.6916968 C38.2931232,58.5622129 38.5193816,57.8577762 38.6505315,57.4575343 C35.9208792,57.2617087 33.1949655,56.9451869 30.4754765,56.6178538 C28.1395404,56.336712 25.8095202,56.0266454 23.4785932,55.6926514 C23.4734085,55.7035223 23.4684962,55.714044 23.4641249,55.7241051 C23.2920415,56.1318296 23.2701215,56.5850075 23.2562238,57.0368286 C23.2562238,57.0368286 23.2399533,57.1570202 23.1631203,57.212876 C23.0093412,57.3247006 22.7975985,57.2256527 22.8092364,56.8738971 C22.8242375,56.4503738 22.867652,56.0242818 23.0175116,55.6262753 C22.5645376,55.5607648 22.1115125,55.4943632 21.658386,55.4271072 C21.4050381,55.7371375 21.4663506,56.208231 21.4527947,56.6064905 C21.4527947,56.6064905 21.4359593,56.7309787 21.3524599,56.7868345 C21.152468,56.9205943 20.9908927,56.6970582 21.0116828,56.1526341 C21.0231865,55.8833808 21.0596294,55.6003395 21.1766779,55.3552948 C20.8709726,55.3095226 20.5652131,55.2633675 20.2593842,55.2168408 C20.0764299,55.7801902 20.0313685,56.4236018 20.1345436,56.9970285 C20.1345436,56.9970285 20.0761279,57.3675535 19.8137657,57.2406908 C19.6040568,57.1392685 19.6484618,56.7736055 19.6579529,56.4501169 C19.6707525,56.0148029 19.6944221,55.565254 19.8076612,55.1522309 C19.4391449,55.1092649 19.0715158,55.1077247 18.7611534,55.2854565 C18.3190246,55.5387296 18.0808423,56.0542081 18.0791474,56.5727396 C18.0771032,57.1402296 18.040392,57.7437884 18.3758585,58.1628197 C18.6773151,58.5393372 19.1765037,58.6479959 19.6978383,58.7286136 C21.126579,58.9486943 22.5559189,59.1665953 23.9859295,59.3770498 C23.9062636,58.9213913 23.9973156,58.4372528 24.0503156,57.9815146 C24.0503156,57.9815146 24.0880542,57.7744864 24.2891759,57.782062 C24.5417079,57.8047888 24.5170762,57.8805445 24.4961731,58.0606624 C24.4397894,58.5249918 24.326316,58.9928209 24.4662904,59.4474533 C24.7078281,59.4827039 24.9493852,59.5177252 25.190962,59.5524919 C25.1101848,58.7133179 25.162987,58.3463119 25.4304851,57.9153696 C25.4304851,57.9153696 25.4921775,57.7997007 25.6344316,57.7999268 C25.7368003,57.8054672 25.7494551,57.8310206 25.7791714,57.8577047 C25.9279789,57.9915777 25.7547657,58.2230285 25.7003046,58.4348056 C25.6022669,58.8154015 25.6220125,59.2192746 25.6538606,59.6187888 C25.8694255,59.6495093 26.0850062,59.6800143 26.3006031,59.7102858 C26.2043371,59.2340843 26.304569,58.7387262 26.5833914,58.286686 C26.6692448,58.147725 26.9570125,58.059984 26.9956995,58.0605493 C27.1688194,58.0659766 27.1962006,58.0972966 27.2472533,58.1322347 C27.3986449,58.2360314 27.2491965,58.4394414 27.2491965,58.4394414 C26.971033,58.8698411 26.895431,59.3545335 27.0453339,59.813886 C31.8674068,60.4782611 36.6976731,61.0154467 41.5388657,61.2239189 C41.9343525,61.2409514 42.3297876,61.2535626 42.7251591,61.2620492 C42.6976666,60.9454413 42.6601742,60.6282211 42.6737567,60.3127577 C42.6737567,60.3127577 42.7300307,60.076784 43.2073368,60.0797238 C43.3728871,60.0842452 43.4824713,60.1208216 43.5555259,60.1773723 C43.5895183,60.0655946 43.6579421,59.9935134 43.78013,59.9977493 C44.1670491,60.0296477 43.9380084,60.6644967 44.1667139,61.2752458 C44.3401716,61.2747616 44.5136142,61.2735522 44.6870407,61.2716428 Z M40.7479864,8.4332153 C43.2983827,9.8301986 45.1346849,12.5071151 45.3679837,15.410379 C45.6199508,18.5502869 43.9522224,21.7428846 41.2715411,23.4472768 C38.6886651,25.089446 35.2907972,25.3539059 32.4478103,24.1542014 C29.9406143,28.9029349 27.433407,33.6516672 24.9261944,38.4004045 C26.5780453,39.3223127 27.623766,41.2658127 27.4316462,43.161873 C27.2271348,45.1757333 25.6351095,46.9805302 23.6351913,47.4166348 C22.547745,47.6537108 21.3886933,47.499663 20.3894099,46.9932116 C19.7819147,48.1438263 19.1744194,49.2944415 18.5669241,50.4450573 C25.2513964,51.4524962 31.9636642,52.3463014 38.731184,52.7613753 C44.7090848,53.128139 50.7335414,52.537171 56.7174683,51.7111002 C55.0607583,49.4328389 54.5714175,46.2961892 55.5626988,43.6401521 C56.729323,40.5135266 59.8894076,38.240397 63.2286286,38.0940055 L57.6783624,28.2551896 C56.8926149,29.1227624 55.7677465,29.7325645 54.5777143,29.8610786 C52.5868353,30.0760215 50.521383,28.9228375 49.6604013,27.1086559 C48.9994114,25.714184 49.0559063,24.0053822 49.8095477,22.6581729 C50.5024426,21.4177777 51.7594512,20.5250936 53.1638923,20.252503 L43.527033,3.1694872 C42.6006868,4.9240645 41.6743378,6.6786405 40.7479864,8.4332153 Z M39.9029536,10.0337653 C37.7006663,14.2050441 35.4983655,18.3763174 33.2960553,22.5475892 C35.7441018,23.5203742 38.6986806,23.167941 40.8055714,21.5702293 C42.0297022,20.6419382 42.9568959,19.3167772 43.3569925,17.8358081 C43.9477028,15.6514407 43.3198189,13.1923174 41.7840625,11.5115564 C41.2433388,10.9197967 40.6039308,10.4219162 39.9029536,10.0337653 Z M64.2740191,39.9471427 C64.0692361,39.9277996 63.8572803,39.8992847 63.6493737,39.8964593 C60.7658758,39.8574507 57.9648605,41.8358075 57.111788,44.7028815 C56.4214208,47.0240615 57.09032,49.6718959 58.8303618,51.4063643 C58.8303618,51.4063643 58.8311973,51.4076704 58.8327665,51.4102093 C59.9684176,51.2445197 61.1022324,51.0734123 62.2336124,50.9018534 C64.7487637,50.5204738 67.2593955,50.1142193 69.7666376,49.6837681 L64.2740191,39.9471427 Z M24.0804943,40.0021862 C23.1311293,41.8003121 22.1817637,43.5984388 21.2323978,45.3965667 C21.2382488,45.3995354 21.2441088,45.4024722 21.2499782,45.4053751 C22.5787374,46.0624152 24.365105,45.5642361 25.168462,44.3100821 C26.0567287,42.9243335 25.5515336,40.8534245 24.0804943,40.0021862 Z M54.1209905,21.9491267 C53.9304739,21.9778058 53.7307365,21.9856136 53.5495078,22.0157185 C52.0603031,22.262999 50.8773007,23.7713307 51.0140183,25.3015976 C51.1676843,27.03437 53.0071571,28.4557521 54.822902,27.9817696 C55.5765435,27.7852569 56.2443128,27.2832334 56.6555954,26.6197484 C56.6555954,26.6197484 56.677588,26.5924866 56.7174079,26.5517299 L54.1209905,21.9491267 Z M43.6976475,30.4545743 C45.3868439,30.4659942 47.002597,31.1765157 48.5290883,31.9867634 C50.4408745,33.001891 52.3413617,34.1770103 53.5763394,35.9801111 C53.6158858,36.0381152 53.6543023,36.0969107 53.6915889,36.1566108 C54.0124798,36.6752553 54.2181211,37.3144306 54.0633252,37.9252258 C53.7831106,39.0330694 52.7741124,39.8377768 51.7594646,40.5425318 C49.6036206,42.0394436 47.1008981,43.1554281 44.5902663,43.4999474 C42.2238095,43.8245666 39.8016487,42.9251079 37.6106648,41.892907 C36.0822528,41.1728878 34.5305649,40.3617355 33.484393,39.0564746 C33.0957083,38.5715245 32.8072455,37.9688702 32.8979763,37.3265289 C33.0233949,36.4386033 33.6646116,35.7336221 34.2679767,35.1383173 C36.1993102,33.2327765 38.6619213,31.8016705 41.2027213,30.9385068 C41.9956832,30.6690649 42.8162146,30.4615845 43.6501918,30.4545743 C43.6660104,30.4545743 43.6818289,30.4545743 43.6976475,30.4545743 Z M43.6614908,32.2636678 C42.3538606,32.2746354 41.0934602,32.8526408 39.8723802,33.4632098 C38.3725546,34.2130791 36.9303537,35.1211309 35.717296,36.2538496 C35.3287243,36.6166859 34.9177807,36.9976131 34.7198227,37.4783797 C34.5986977,37.7724705 35.045911,38.1393773 35.4811474,38.5021005 C36.7483272,39.5582719 38.2773042,40.2821354 39.8409691,40.8768749 C41.3654265,41.4565763 42.9525932,41.9545293 44.6173839,41.6648482 C46.9879084,41.252601 49.2849895,40.1940552 51.1696582,38.7332122 C51.6295264,38.3765946 52.2046441,38.0086703 52.3131143,37.4712564 C52.3526607,37.2621931 51.8634151,36.6613479 51.3628706,36.1745887 C49.5346968,34.3983981 47.1811208,33.0167029 44.8230252,32.4276169 C44.451289,32.3346747 44.0727734,32.2662683 43.6897382,32.2636678 C43.680699,32.2636678 43.67053,32.2636678 43.6614908,32.2636678 Z M43.5334412,34.4431182 C44.9785778,34.4704039 46.2518054,35.8843419 46.0435016,37.3704172 C45.873816,38.5828158 44.7304857,39.5814958 43.5005572,39.5814958 C42.2798737,39.5814958 41.1299901,38.6002646 40.9578469,37.3703001 C40.7576178,35.9386791 41.9589923,34.471575 43.4676733,34.4431182 C43.5006743,34.442884 43.5005572,34.442884 43.5334412,34.4431182 Z M43.88973,0.4664754 C44.1168394,0.6210398 44.1190992,0.6226228 44.2885838,0.8382441 L71.9710672,49.9099048 C72.0377311,50.0901357 72.1032652,50.2763593 72.0806672,50.4648442 C72.0343414,50.8423794 71.797063,51.1645111 71.2886092,51.2547397 C71.1496319,51.2792755 71.0117844,51.3036983 70.872807,51.3278949 C64.064046,52.5202006 57.1897509,53.5866612 50.2860785,54.2767173 C47.1246259,54.5926302 43.9428352,54.7938919 40.7706486,54.674944 C32.8273577,54.3768958 24.9246301,53.2761755 17.0848378,52.047688 C17.0848378,52.047688 16.7427049,51.9952242 16.5323181,51.7827688 C16.3280326,51.5764191 16.235946,51.271813 16.2834017,50.9936649 C16.2994462,50.8999312 16.3446421,50.813547 16.3752623,50.7235446 L42.701869,0.8604055 C42.8709016,0.6326859 43.0798197,0.4366254 43.350882,0.3909457 C43.5304227,0.3606434 43.713466,0.4132202 43.88973,0.4664754 Z M68.9508517,53.2832117 C70.5767739,53.3024639 72.0580693,54.6998755 72.0874466,56.4060768 C72.0897064,56.7067255 72.0874466,57.0076004 72.0863167,57.3082491 C72.0863167,57.3082491 72.071628,57.8720079 71.9190919,58.3226983 C71.5530052,59.4005788 70.5722543,60.2361539 69.4333179,60.4287092 C62.4494228,61.5273943 55.5751277,62.423574 48.6138306,62.898461 C41.2778595,63.3982231 33.8113852,62.5208128 26.4096541,61.5263767 C23.9171007,61.1913552 21.428389,60.828745 18.9434059,60.4422774 C18.9434059,60.4422774 18.4269298,60.3484307 18.0320307,60.1530486 C16.9919603,59.6385877 16.290972,58.525769 16.2707468,57.351102 C16.2669052,56.6700914 16.2385448,55.9796961 16.4713036,55.3555588 C16.9666506,54.027232 18.414162,53.1299216 19.8693567,53.3273389 C27.1574201,54.3649671 34.3693285,55.5086534 41.7373887,55.8048924 C45.7800482,55.9674847 49.8307299,55.6115456 53.8588137,55.1964717 C58.651838,54.7024761 63.4380829,54.0644314 68.2028597,53.3558321 C68.4503072,53.3188588 68.6988846,53.2819985 68.9508517,53.2832117 Z M54.6124552,40.1171687 C55.3118616,40.1929245 55.7220144,41.1121701 55.1299482,41.7090579 C53.8723725,42.9796069 52.5696009,44.2823803 50.9809654,44.9889444 C49.7301691,45.5445622 48.40028,45.9344219 47.0963785,46.2854991 C46.5653268,46.4284175 45.968741,46.1143136 45.8896482,45.5611833 C45.8275039,45.1282446 46.1212772,44.6860343 46.5528979,44.5582671 C48.2307954,44.1134562 49.9764867,43.7102545 51.3470521,42.6789582 C52.2509699,41.9989651 53.0757949,41.2159669 53.8735024,40.4080936 C53.8735024,40.4080936 54.2474984,40.0990778 54.6124552,40.1171687 Z M31.9737203,33.8646024 C32.6532405,33.9155963 33.0948044,34.83993 32.5921131,35.3820927 C32.2421839,36.1428165 31.822766,36.9335034 31.9579017,37.7705483 C32.086484,38.5671148 32.3548347,39.3423114 32.6360661,40.0900323 C32.6360661,40.0900323 32.7646484,40.5004704 32.5884974,40.8325521 C32.2793575,41.4158717 31.2604161,41.4587246 30.9609934,40.7691208 C30.5892572,39.9128542 30.3072348,38.9577659 30.1628339,37.9922754 C29.9809205,36.7765645 30.5036109,35.5407275 31.0603113,34.3913878 C31.0603113,34.3913878 31.1246025,34.2647513 31.1897976,34.1868472 C31.3778125,33.9625196 31.6732806,33.8571399 31.9737203,33.8646024 Z M40.9445398,27.2536095 C41.7377277,27.3186238 42.2062961,28.677253 41.173457,29.0161188 C40.27146,29.3120187 39.3205384,29.5095491 38.4658841,30.0545385 C37.7756299,30.4947136 37.1224362,30.9891614 36.476248,31.4908457 C36.476248,31.4908457 36.1491427,31.7382392 35.7806832,31.688263 C35.1130269,31.5976952 34.7175629,30.6171666 35.3133577,30.1055323 C36.2726405,29.2816033 37.41056,28.4424101 38.5491575,27.9789429 C39.225853,27.7035084 39.9261633,27.4877741 40.6302023,27.2904698 C40.6302023,27.2904698 40.8185562,27.2491998 40.9445398,27.2536095 Z M49.6047505,21.2778068 C49.7041814,21.2891414 49.7098309,21.3099459 49.7380784,21.3353863 C49.9482393,21.525115 49.7222598,21.9210803 49.6036206,22.165308 C49.3166267,22.7618565 48.9324616,23.3501511 48.9053441,23.9701048 C48.9053441,23.9701048 48.8793564,24.1284005 48.7573275,24.1728364 C48.5675048,24.2420342 48.4206181,24.0581851 48.4782429,23.7074471 C48.6025316,22.9557687 49.1674802,22.2962411 49.346004,21.5975918 C49.3708617,21.5021621 49.357303,21.4642842 49.3799009,21.4137427 C49.4239669,21.3099459 49.5810226,21.2767039 49.6047505,21.2778068 Z M44.5349014,20.7438128 C44.9326252,20.7903969 44.7495819,21.0176643 44.6637097,21.1660099 C44.2467776,21.8837678 43.615165,22.4635822 43.0895368,23.078674 C43.0895368,23.078674 43.0403862,23.2445453 42.9096571,23.2731516 C42.7802839,23.3016448 42.6622096,23.2137907 42.6349791,23.067028 C42.6349791,23.067028 42.6382558,22.9121244 42.745483,22.7854878 C43.2835401,22.1563756 43.9032888,21.6031322 44.319091,20.8588033 C44.319091,20.8588033 44.3857549,20.7354457 44.5349014,20.7438128 Z M26.9680494,39.2784277 C27.2152709,39.3017198 27.1822779,39.6231731 27.3413674,39.9312844 C27.7210129,40.6664547 28.2379409,41.3712097 28.247997,42.2144734 C28.247997,42.2144734 28.2095805,42.4415146 28.038514,42.4539521 C27.7960381,42.4715908 27.808354,42.0777738 27.7336678,41.7973643 C27.5344669,41.0493041 26.9226275,40.4093373 26.7496402,39.6715664 C26.7102068,39.5032076 26.7165342,39.2881516 26.9525698,39.2780885 C26.9577673,39.2782016 26.9628518,39.2783147 26.9680494,39.2784277 Z M34.5471743,40.7206145 C34.6949649,40.7350872 34.7036651,40.7965964 34.7612899,40.8525652 C35.7787624,41.8277797 37.0861665,42.4378964 38.3230651,43.1206031 C38.3230651,43.1206031 38.4596697,43.1808685 38.48916,43.2921278 C38.5337909,43.4607127 38.3360589,43.6358555 38.1611508,43.5478884 C38.104091,43.5162292 38.0470312,43.4846832 37.9898584,43.4533632 C37.9314427,43.4213649 37.873027,43.3894796 37.8144983,43.3575943 C36.6397441,42.7198889 35.4300761,42.1146341 34.4724881,41.2020595 C34.2584856,40.9980842 34.2509153,40.738027 34.528983,40.7202753 C34.5350844,40.7203883 34.5411859,40.7205014 34.5471743,40.7206145 Z M54.1333788,46.4892479 C54.44975,46.5141233 54.3435397,47.1199434 54.3435397,47.5583094 C54.3435397,47.6501209 54.3435397,47.7420455 54.3457995,47.833857 C54.3627479,48.5862137 54.4892964,49.379162 54.9921007,49.9899572 C54.9921007,49.9899572 55.0904018,50.176633 54.9808017,50.290719 C54.8915399,50.3830958 54.7480429,50.3948549 54.6440924,50.277603 C54.5457913,50.1583159 54.5356222,50.1413557 54.4892964,50.0757761 C53.8441251,49.1460151 53.8938406,47.8590712 53.8983601,46.7705623 C53.8983601,46.7705623 53.9186983,46.488909 54.1333788,46.4892479 Z M53.2317208,47.6113385 C53.2780465,47.6157481 53.2916053,47.6217407 53.3153332,47.633726 C53.4723889,47.7103863 53.4091146,47.9387844 53.3819971,48.1072562 C53.3040342,48.5926586 53.4769085,49.0777218 53.6418735,49.5207236 C53.6418735,49.5207236 53.6735106,49.7352142 53.5266239,49.804299 C53.3108136,49.9054951 53.1582774,49.5548702 53.0498073,49.1843452 C52.9153495,48.727323 52.8498155,48.231066 53.0023516,47.7665813 C53.0023516,47.7665813 53.0565867,47.6041021 53.2317208,47.6113385 Z M52.261139,48.4120878 C52.6057577,48.4276919 52.4272339,49.1431884 52.57977,49.6452118 C52.57977,49.6452118 52.5831597,49.9155582 52.3809081,49.9319531 C52.0396791,49.9594287 52.0283801,49.2761567 52.02951,48.6377729 C52.02951,48.6377729 52.0532379,48.4116362 52.261139,48.4120878 Z M56.6959858,29.5311451 C56.8067158,29.5453917 56.8191446,29.5762594 56.848522,29.6117629 C56.990889,29.7832875 56.7389219,30.0018486 56.4858249,30.2022058 C55.7242742,30.8037293 54.7819398,31.2833652 53.7548632,31.0987246 C53.5560013,31.062882 53.4034651,30.8184282 53.6113662,30.6777712 C53.7311354,30.5974927 53.89949,30.6683865 54.0373375,30.6817286 C54.9706327,30.7727486 55.847433,30.1505335 56.5298909,29.5824782 C56.5298909,29.5824782 56.6112435,29.5263963 56.6959858,29.5311451 Z M56.1310372,31.0276047 C56.3265094,31.0417382 56.4666167,31.2674226 56.2338578,31.4526286 C55.7254041,31.8527774 55.1197791,32.085359 54.4395809,32.0895425 C54.4215026,32.0895425 54.2124716,32.0642152 54.1808345,31.9075025 C54.1491973,31.7479631 54.2169912,31.6408873 54.5017253,31.6364777 C55.0372966,31.6244924 55.55027,31.4191603 55.9796309,31.0765632 C55.9796309,31.0765632 56.033866,31.0259086 56.1310372,31.0276047 Z M56.4620971,31.8593354 C56.6925961,31.8724513 56.7615199,32.151504 56.4315899,32.3710827 C56.0960104,32.5926967 55.6655195,32.8864482 55.4259813,32.6407507 C55.241808,32.4520396 55.4971648,32.0464635 55.7231443,32.2547354 C55.7231443,32.2547354 56.0745423,32.0525692 56.3344187,31.8926905 C56.3728352,31.8701899 56.4157713,31.8584308 56.4620971,31.8593354 Z M42.7633354,9.1016178 C43.5575402,9.1812179 44.087462,10.1073607 44.5156931,10.8857232 C44.6185138,11.074095 44.7156849,11.2656328 44.8072066,11.4599973 C44.8072066,11.4599973 44.8682211,11.580302 44.8207654,11.6814982 C44.737153,11.8570933 44.4998746,11.861616 44.3552477,11.5606281 C44.0094991,10.8488629 43.6400227,10.0840686 42.998693,9.6663942 C42.888754,9.5947088 42.7043548,9.5491423 42.7043548,9.5491423 C42.5870714,9.522232 42.5831168,9.4900076 42.5564512,9.4473808 C42.4724999,9.3133948 42.5680892,9.1058013 42.7490987,9.1011655 C42.7538443,9.1012786 42.7585899,9.1015047 42.7633354,9.1016178 Z M33.0362757,24.7058831 C33.5106066,24.7483247 33.9748814,24.9349479 34.4712453,24.9881493 C35.1914418,25.0655005 35.9171748,25.0841509 36.6088979,25.3364091 C36.7914893,25.4030005 36.849453,25.9227002 36.4130867,25.7713453 C35.5436308,25.4753304 34.5782465,25.5438347 33.7127452,25.3446583 C33.4813422,25.2907396 33.2514081,25.2263002 33.0187623,25.1851737 C33.0187623,25.1851737 32.7682641,25.1434495 32.7899581,24.9130696 L32.8521024,24.7785717 C32.9541322,24.6758752 32.8479218,24.6991881 33.0362757,24.7058831 Z M33.2801075,25.4059597 C33.9474249,25.4364882 34.5897715,25.7089829 35.2643202,25.6705396 C35.2643202,25.6705396 35.386914,25.6722357 35.453013,25.7542102 C35.5700704,25.8992769 35.4602443,26.1210039 35.1857923,26.126092 C34.5316948,26.1383034 33.8983873,25.8869525 33.2595434,25.8577808 C33.2595434,25.8577808 33.0902848,25.8254433 33.0526592,25.6945101 C33.0122089,25.5539662 33.0824885,25.4027938 33.2801075,25.4059597 Z M33.5426957,26.1412432 C33.8782752,26.1551506 34.3041334,26.01031 34.5009615,26.2475274 C34.6305608,26.4035617 34.4884197,26.6221228 34.1729524,26.6152257 C33.8893482,26.6084416 33.5367072,26.7195877 33.3613472,26.5139164 C33.2491484,26.3823049 33.3366024,26.1364943 33.5426957,26.1412432 Z M20.5460522,49.7886955 C20.6496638,49.8121007 20.7532753,49.8352797 20.8569999,49.8584587 C25.1083514,50.8005441 29.5027479,51.4206109 33.857937,51.56466 L34.1038027,51.57461 C34.3236807,51.6317095 34.352945,52.0098101 34.0569119,52.0232652 C29.5796939,51.8910883 25.0619126,51.2592624 20.6547483,50.2766985 L20.4143062,50.2199382 C20.2117156,50.1230386 20.2529568,49.7452773 20.5460522,49.7886955 Z M46.4048814,9.4284984 C46.5167412,9.4465893 46.5246505,9.4554086 46.5800155,9.546994 C46.6173021,9.6167572 46.6545887,9.6862942 46.6918753,9.7559443 C47.8455004,11.8883002 49.1663503,13.9274877 50.214895,16.1059755 C50.214895,16.1059755 50.3278847,16.2726382 50.2680002,16.4043628 C50.1979466,16.5602841 49.9629279,16.601554 49.8578475,16.4088856 C48.7754059,14.1328198 47.3946714,12.0279396 46.2094091,9.8124785 C46.2094091,9.8124785 46.0783411,9.4115381 46.4048814,9.4284984 Z M74.5441915,5.1498797 C74.5394843,5.1998822 74.5358575,5.2531048 74.5415835,5.3073834 C74.5890392,5.7676846 74.7573939,6.2109125 74.7958104,6.6767541 C74.8161485,6.9286704 74.3766185,7.0688751 74.3438515,6.6948451 C74.2862267,6.1291641 74.0319998,5.5583951 74.0873648,5.0392984 C74.0873648,5.0392984 74.094705,4.9955448 74.122479,4.9487586 C73.8763688,4.8361841 73.6269783,4.730309 73.3746802,4.6309314 C73.377718,4.7046741 73.3802034,4.7809341 73.3936079,4.8512657 C73.513377,5.4712194 73.8749441,6.0277418 74.0026225,6.6634121 C74.052338,6.9123885 73.6399255,7.1333241 73.5529234,6.7239036 C73.3856986,5.9661196 72.8557767,5.2743675 72.919051,4.4955527 C72.9200114,4.4839134 72.9214353,4.4724163 72.9233542,4.4611316 C72.6869098,4.376261 72.4481663,4.2968479 72.2074186,4.2227325 C72.3920347,4.69831 72.5732338,5.1727354 72.6738633,5.6712373 C72.8885438,6.7274087 72.8489974,7.8208927 72.8162303,8.9054442 C72.8162303,8.9054442 72.8083211,9.0124069 72.7326179,9.073916 C72.5981602,9.1835923 72.3676611,9.0993564 72.3642714,8.8917629 C72.4038178,7.5823185 72.4783911,6.2620194 72.0264321,5.0218859 C71.9092137,4.7001722 71.7753444,4.3830408 71.655455,4.0629365 C69.9379333,3.5965191 68.1319338,3.3873792 66.340789,3.3794551 C66.3057622,3.3794551 66.2696055,3.3794551 66.2334488,3.3794551 C65.3459831,3.382486 64.449325,3.4322895 63.5672247,3.5479591 C63.6717619,3.7066585 63.7572306,3.8925359 63.8595346,4.0337816 C64.2990646,4.6452552 64.6719307,5.3003732 65.097902,5.9175002 C65.097902,5.9175002 65.1736051,6.0778311 65.0888628,6.1856983 C64.9803927,6.3247724 64.7883102,6.2684643 64.6414235,6.0505816 C64.2369203,5.4513194 63.8821325,4.8286521 63.4516417,4.2402444 C63.3070148,4.0441839 63.1906354,3.8230222 63.0132415,3.6595254 C63.0132415,3.6595254 62.9954266,3.6520549 62.9719599,3.6366468 C62.8268274,3.6609488 62.6822439,3.6871845 62.538318,3.7154414 C62.6849032,3.9604976 63.1547472,4.075093 63.3849777,4.4372095 C63.5409036,4.6824547 63.6731015,4.9435295 63.810949,5.2006469 C63.810949,5.2006469 63.8719635,5.4032654 63.7386356,5.4941723 C63.6369448,5.5640486 63.4866685,5.531711 63.4188746,5.4249745 C63.2211426,5.0785331 63.2154931,5.0476654 63.1612581,4.949409 C62.9883838,4.6403933 62.7081693,4.4435413 62.3771094,4.1755693 C62.2749225,4.0926722 62.1667115,3.9491807 62.1033265,3.807567 C61.9623685,3.8396585 61.8221617,3.8738145 61.6828114,3.9101197 C61.7015528,3.9251079 61.7215965,3.9390914 61.743237,3.951694 C62.1805072,4.2025926 62.5375548,4.596862 62.8335879,5.0031165 C63.3454313,5.7054971 63.79965,6.5026289 63.9058604,7.3540335 C63.9341078,7.5802832 63.5318644,7.7521471 63.4448623,7.3536943 C63.2143632,6.3227371 62.6392455,5.3950114 61.9341896,4.6163097 C61.7221925,4.3874587 61.363107,4.2957783 61.162492,4.0571064 C60.1893922,4.354158 59.2661331,4.7649324 58.4303781,5.3197079 L58.30044,5.3911671 C58.2733224,5.4033784 58.2462049,5.415929 58.2202173,5.4285927 C58.059571,5.5053229 57.8947233,5.5822572 57.7315691,5.6633282 C57.8028312,5.6584138 57.8742467,5.6556614 57.9456522,5.6550686 C57.9614708,5.6550686 57.9772893,5.6550686 57.9931079,5.6551816 C59.2631124,5.6697675 60.5749232,6.2907388 61.1251832,7.5011354 C62.2257031,9.920911 62.3579011,12.8880505 61.225744,14.9110692 C61.1695631,15.0112076 61.1078027,15.1080491 61.0408483,15.2012653 C61.5043935,15.0710459 61.9790628,15.0323026 62.4821898,15.2369322 C62.5194764,15.2523095 62.556763,15.2692697 62.5940496,15.2870215 C62.8866264,15.4317505 63.1784621,15.5781001 63.4701077,15.7249746 C64.112695,15.0156956 64.68318,14.2428444 65.2154113,13.4454774 C65.2154113,13.4454774 65.306933,13.3420198 65.4187928,13.3454119 C65.4696382,13.350613 65.483197,13.3575102 65.5091846,13.3709653 C65.6210445,13.4302132 65.6730197,13.565556 65.5916671,13.6966022 C65.0714149,14.47665 64.5140724,15.2309865 63.8873387,15.9353692 C64.0043279,15.9943978 64.1213286,16.0534267 64.2383767,16.1123853 C64.2995064,16.0614884 64.3614554,16.009184 64.4188337,15.9553684 C64.7645823,15.6306362 65.0583556,15.2540055 65.3611681,14.8866465 C65.3611681,14.8866465 65.4323516,14.7480247 65.5905372,14.7517559 C65.8052177,14.7679247 65.8617126,14.9891995 65.6221743,15.2809158 C65.3226972,15.6455069 65.021571,16.0135635 64.6747036,16.3315627 C64.7195523,16.3540117 64.7644144,16.3764376 64.8092919,16.3988363 C64.8393231,16.3907581 64.8708229,16.3889587 64.9019962,16.3949886 C65.162728,16.2232938 65.4149998,16.0420199 65.6221743,15.8113194 C65.6221743,15.8113194 65.6865785,15.7323977 65.8029579,15.7364681 C65.9860013,15.751167 66.1001209,15.9555946 65.9408054,16.1327727 C65.8066875,16.2798627 65.6566877,16.40873 65.4984516,16.5280071 C65.8939202,16.3099175 66.2218843,15.9569633 66.461688,15.6292793 C67.4379193,14.300161 68.3463567,12.9225363 68.6785465,11.2784095 C68.6785465,11.2784095 68.7519898,11.0892462 68.9237342,11.0982917 C69.1723116,11.1360565 69.0977384,11.5071468 69.025425,11.8010114 C68.6299609,13.3984409 67.6345214,14.7866941 66.6650695,16.1172823 C66.6046125,16.2002606 66.5381217,16.2803749 66.4670655,16.3567709 C67.0957256,16.0695858 67.8461901,15.7615758 68.7881465,16.0415265 C70.1417635,16.4440498 71.2456731,17.5645571 71.7914135,18.7345883 C71.8576192,18.87659 71.9085588,19.026192 71.9387775,19.179016 C72.0766858,19.3968908 72.209146,19.6425796 72.3767003,19.852192 C73.3495419,21.0684682 74.6218062,22.1765379 76.3674975,22.1802692 C76.3674975,22.1802692 76.7607018,22.2219914 76.933576,22.4888327 C77.2149205,22.9205276 76.856743,23.5522404 76.2307799,23.5351671 C74.5142732,23.4885438 72.9116479,22.5308923 71.7057307,21.1776441 C71.9679467,22.3777887 72.691354,23.4647132 73.6523543,24.2928019 C73.6523543,24.2928019 73.7303172,24.3781685 73.7314471,24.461726 C73.7337069,24.6559774 73.5201563,24.7791088 73.2636697,24.5534244 C72.2232766,23.6318574 71.4437224,22.3983011 71.2157107,21.0376282 C71.2048564,22.1210543 71.1485015,23.2255228 71.5496155,24.2104881 C71.6400073,24.431876 71.7450877,24.6467058 71.8580774,24.8575783 C71.8580774,24.8575783 71.917962,25.0731996 71.7733352,25.1589054 C71.5032897,25.3183318 71.2558422,24.7169212 71.0773184,24.244974 C70.7369546,23.3434172 70.7455427,22.3555795 70.7586675,21.3930014 C70.6576109,21.5232016 70.5593568,21.6556147 70.4639514,21.7900956 C70.4850163,22.0791302 70.4308238,22.4746901 70.4276275,22.789106 C70.4242378,23.3508295 70.4457058,23.9142491 70.5451368,24.4670402 C70.5451368,24.4670402 70.5462667,24.6438791 70.4298873,24.7064059 C70.2841305,24.7845361 70.1225552,24.6773473 70.0841387,24.4495146 C69.9802034,23.8145286 69.9743664,23.1717733 69.9815555,22.5275083 C69.8799173,22.6963491 69.7824592,22.86777 69.68926,23.0415235 C69.7332223,23.1087876 69.7443703,23.2022849 69.7078829,23.2935039 C69.5982829,23.5809236 69.7044932,23.9312093 69.7056231,24.259899 C69.7056231,24.259899 69.6570375,24.4787993 69.4909426,24.4868272 C69.3018859,24.4959604 69.2254099,24.3008174 69.2013563,24.0633858 C68.3810363,26.0100015 68.0664128,28.1698274 68.354266,30.2391791 C68.4976971,31.2692013 68.8303444,32.2796694 69.3441906,33.1791338 C69.4280758,33.2388903 69.5098965,33.312636 69.6050623,33.3646142 C70.1327243,33.6532777 70.7620771,33.6813187 71.3823907,33.6822232 C71.3823907,33.6822232 71.4987701,33.6936431 71.5563949,33.7644239 C71.6626052,33.8932087 71.5756031,34.128617 71.3823907,34.1344966 C70.8598121,34.1337956 70.3276789,34.086549 69.834726,33.928711 C70.0052057,34.1570819 70.1893033,34.3749911 70.3868505,34.5805176 C70.432949,34.5912844 70.4778571,34.6021697 70.5202791,34.6122103 C71.1846587,34.7667747 71.9597682,34.9222437 72.3778302,34.5086397 C72.3778302,34.5086397 72.4648323,34.4391027 72.556354,34.4440777 C72.7744241,34.4708749 72.8365685,34.7434827 72.5620035,34.9437267 C72.1479326,35.2452917 71.6047556,35.2577511 71.0368086,35.1716447 C71.2377473,35.3307423 71.4492794,35.4783883 71.671285,35.6132137 C72.2516023,35.5849673 72.8341493,35.3913467 73.3077357,35.1353775 C73.4173357,35.0760167 73.4162058,35.030224 73.4331543,34.9937029 C73.4783501,34.896238 73.6241069,34.8629959 73.6500945,34.8634482 C73.7653441,34.8735113 73.7416162,34.8429828 73.8229688,34.9594432 C74.0229606,35.2458453 73.4003872,35.5986185 72.9936242,35.749904 C72.7725155,35.8311533 72.5465035,35.9020531 72.3176531,35.9555457 C73.1203826,36.3256915 73.9827199,36.5473248 74.867701,36.6537833 C74.9067056,36.6450675 74.9450545,36.6354445 74.9822434,36.6246007 C76.1290892,36.2901445 77.1380874,35.4222319 77.6996464,34.4224816 C77.6996464,34.4224816 77.7945578,34.3071519 77.9052877,34.307265 C78.0160176,34.3160843 78.0160176,34.3357582 78.0499146,34.3673043 C78.1369166,34.4480351 78.1775929,34.4969937 78.0612135,34.7017604 C77.5707433,35.5413938 76.8285541,36.2790438 75.9748578,36.7291299 C76.5473568,36.7399011 77.1228491,36.7094091 77.6917371,36.6463098 C78.7764385,36.5260051 79.86001,36.2377939 80.6181711,35.412508 C82.3503036,33.5287895 83.8598464,31.3642091 84.9547168,29.1358582 C85.051888,28.9392324 85.1434097,28.7400059 85.2247623,28.5368221 L85.2315417,28.520088 C83.729458,29.3107582 82.3173172,30.3173684 80.8393399,31.1884322 C80.9930937,31.623749 81.0437619,32.094228 80.9526207,32.5525574 C80.8690083,32.9745284 80.6870948,33.3693631 80.4825834,33.7452023 C80.4825834,33.7452023 80.4170494,33.8443632 80.3210081,33.8603058 C80.1040678,33.8966008 80.0238451,33.6715948 80.2238369,33.2627396 C80.5013715,32.6936685 80.5891928,32.044848 80.4259805,31.4271903 C79.433922,31.9878059 78.4063419,32.4740251 77.297403,32.7824253 C75.9370066,33.1606389 74.3020453,33.1486537 73.4297646,31.9557827 C73.1947459,31.6341032 73.0794964,31.231693 73.0941851,30.8314311 C73.139381,29.6607215 74.0060122,28.7237241 74.7686928,27.9141548 C75.8375757,26.7792878 77.1177493,25.8370893 78.1606445,24.7071974 C78.4216508,24.4252049 78.6046941,24.0720925 78.7990365,23.7304 C79.6713172,22.1991154 80.212538,20.4796851 80.4057504,18.7233945 C80.6724061,16.2926513 80.3356968,13.8385029 79.8679193,11.4691558 C79.6912608,10.5746875 79.3502601,9.7269575 78.881754,8.9499192 C78.8504295,9.3134422 78.7771798,9.6839389 78.6928261,10.0405373 C78.3990528,11.2752436 77.9550032,12.5196738 77.1889328,13.4988456 C77.1889328,13.4988456 77.0669039,13.6306833 76.9313162,13.5861344 C76.6285038,13.4870865 76.9957204,13.0193228 77.2137906,12.625845 C77.9685712,11.2641779 78.5928279,9.6841976 78.4133,8.2522917 C78.4019048,8.2369643 78.3904585,8.2216713 78.3789616,8.2064127 C78.3653518,8.2501503 78.3538279,8.2907145 78.3465132,8.3270996 C78.2310388,8.886901 78.0511417,9.4326819 77.8833999,9.9764276 C77.8833999,9.9764276 77.7837272,10.1614074 77.6135543,10.137663 C77.477416,10.1186675 77.3801744,9.9832117 77.4154245,9.8516001 C77.596537,9.2637578 77.7727875,8.6791945 77.9028482,8.0702084 C77.9318354,7.948196 77.9565022,7.8022711 77.9716968,7.7043148 C77.7947684,7.5013037 77.6085907,7.3055955 77.414104,7.1178016 C77.3818202,7.3680527 77.3149527,7.6648918 77.2567267,7.9543133 C77.2567267,7.9543133 77.1945823,8.1150965 77.0669039,8.1335266 C76.9075884,8.1564795 76.7844296,8.0034981 76.8284956,7.7876506 C76.8488337,7.6882635 76.8703018,7.5889895 76.8906399,7.4894894 C76.940583,7.2382676 76.9818048,6.9834459 76.984323,6.7271672 C76.8353089,6.5996734 76.6822949,6.4765541 76.5256374,6.3580414 C76.5242795,6.3980314 76.5230492,6.4374766 76.5222934,6.4758317 C76.5109945,6.699707 76.0861531,6.7611031 76.0714644,6.4758317 C76.0686539,6.3272552 76.0518621,6.1651445 76.047501,6.0181622 C75.5648365,5.696205 75.0625162,5.4074366 74.5441915,5.1498797 Z M60.0788139,15.556691 C60.277985,15.4115069 60.456461,15.2396884 60.6043005,15.041324 C61.5952204,13.709492 61.6607545,11.7923051 61.4065276,10.2519751 C61.2573811,9.3456193 61.0709481,8.4258083 60.6777438,7.6125077 C60.0374351,6.2875195 57.9745646,5.7069132 56.5844186,6.4629365 C56.5119715,6.5462461 56.4465787,6.6354925 56.3897837,6.7317053 C56.3457177,6.8050867 56.3434579,6.8910186 56.3287692,6.9728801 C55.9717217,8.9818784 55.55027,11.042662 56.0406454,13.0732564 C56.2496764,13.9358548 56.6688683,14.7380747 57.3942623,15.3668477 C57.7569594,15.68163 58.2156977,15.9183951 58.7049432,15.9120633 C59.1750498,15.9059489 59.6274192,15.7385273 60.0788139,15.556691 Z M66.3464385,1.57040041 C69.4355777,1.5839298 72.5484447,2.1850011 75.2760167,3.5034911 C78.1900218,4.9123226 80.7492392,7.3262187 81.5424271,10.6552899 C81.7254704,11.424833 81.8531488,12.2088489 81.9740478,12.9937694 C82.4056686,15.8005779 82.4960604,18.7176281 81.7062622,21.4650757 C81.2814208,22.9422005 80.6656268,24.3590599 79.7515399,25.6203373 C79.1628634,26.4310373 78.3154404,27.0413802 77.5448505,27.7421778 C76.6115553,28.5936955 75.5901282,29.4220342 75.0274393,30.5305562 C74.9551259,30.6725701 74.9008908,30.8994982 74.9008908,30.8994982 C74.9381774,30.9364716 74.9788537,30.9701659 75.0217898,31.0002421 C75.5223343,31.3515455 76.1923634,31.201956 76.7200255,31.0644649 C79.5153913,30.3356264 81.8554086,28.1819006 84.5649023,26.829264 C84.7253477,26.7492116 84.8880529,26.6740212 85.0541478,26.6083285 C85.6507336,26.3729202 86.4371421,26.2752291 86.9229979,26.8687249 C87.4687383,27.5351497 87.1783547,28.5966353 86.7874102,29.4861439 C85.6281356,32.1195056 83.8734051,34.5336278 81.971788,36.6121632 C80.487103,38.2362768 78.0363558,38.5850927 75.8059386,38.5235835 C72.2840487,38.4264578 68.7904063,36.7021656 67.2853831,33.1472969 C65.3747268,28.6379052 66.7712799,23.1252582 69.8875366,19.6133555 C69.9700191,19.5207525 70.0943078,19.3856358 70.0943078,19.3856358 C69.9530706,19.1342849 69.7813262,18.9005726 69.5926334,18.682803 L69.5881138,18.6773757 C69.0853095,18.1772744 68.4830743,17.665301 67.8141751,17.7269232 C67.0040387,17.8016614 66.3758158,18.4827851 65.5476011,18.5262034 C65.2504381,18.5418068 64.9510154,18.4797323 64.67984,18.3532088 C63.7171675,17.8816007 62.7624043,17.3938239 61.8031215,16.9139619 C61.578272,16.8013458 60.8596573,17.2106532 60.1986674,17.4374683 C59.213397,17.7756557 58.135475,17.8436098 57.1547241,17.3673659 C55.4146823,16.5215016 54.4034242,14.5959478 54.1322489,12.70194 C53.8373457,10.638895 54.2181211,8.5371806 54.581948,6.4638464 C54.758212,5.5494627 55.5649586,4.909609 56.2734042,4.4479509 C56.6553095,4.1990875 57.0564231,3.978152 57.4688356,3.7827699 C57.5716562,3.7348289 57.4869139,3.7725937 57.6699573,3.6574902 C60.1681602,2.1075493 63.2143632,1.5881134 66.1713044,1.57040041 C66.2300591,1.57040041 66.2888137,1.57040041 66.3464385,1.57040041 Z M58.3829225,7.9551048 C59.1376938,7.9690122 59.6687456,8.7596991 59.8755168,9.3786352 C60.3161767,10.695203 60.3274757,12.2624433 59.6687456,13.4270472 C59.3297764,14.0269879 58.5580565,14.5788744 57.8417017,14.0904192 C57.1400355,13.6116878 57.0733715,12.5345988 57.2055695,11.6070992 C57.3050005,10.9029096 57.6134624,10.0490174 58.3094791,9.9873952 C58.7433597,9.9491781 59.0981474,10.4213515 59.1037969,10.9330988 C59.1094464,11.3675074 58.9286628,11.8229467 58.5987328,12.0952152 C58.4190792,12.2429956 58.0868894,12.005439 58.3648441,11.6853425 C58.6540978,11.3457983 58.828102,10.7588605 58.4812235,10.4805993 C58.4665349,10.4687271 58.4507163,10.458551 58.4326379,10.4509754 C58.1772812,10.3409599 58.0021471,10.6524632 57.9015862,10.8330333 C57.4507572,11.6521004 57.4756149,12.849268 57.8993264,13.5056297 C58.0925389,13.8052608 58.5320689,13.8759286 58.8970257,13.638372 C59.5783538,13.1944657 59.6992528,12.1243869 59.6958631,11.1724645 C59.6913435,10.3185724 59.5591455,9.3924296 59.0653804,8.7756418 C58.6258504,8.2249989 57.5931243,8.3587588 57.1456849,9.0309501 C57.046254,9.1806526 57.0259158,9.4011358 57.1660231,9.5432627 C57.1660231,9.5432627 57.2903118,9.7508562 57.155854,9.8709348 C56.9456931,10.0576106 56.5468394,9.6444589 56.605594,9.1969344 C56.7027652,8.4553191 57.5987737,7.9478684 58.3829225,7.9551048 Z M79.7854368,19.6732817 C79.8871275,19.6822141 79.8961667,19.7053931 79.925544,19.7326426 C80.1074575,19.9000968 79.9165049,20.2533223 79.815944,20.5067084 C79.7910863,20.5684438 79.7650986,20.6298399 79.7402409,20.6911229 C79.5899645,21.0479666 79.4046614,21.406054 79.4012717,21.7778228 C79.4012717,21.7778228 79.3820634,21.9317088 79.2679438,21.9825895 C79.0815108,22.0662601 78.9199355,21.837862 78.9707808,21.5321252 C79.067952,20.9514062 79.4329088,20.4340055 79.551548,19.8537388 C79.551548,19.8537388 79.5933542,19.6674021 79.7854368,19.6732817 Z M79.0555231,19.5450622 C79.2159685,19.5542207 79.3074902,19.7215619 79.2385665,19.9047326 C79.0961994,20.2934615 79.0736015,20.7287747 78.8566612,21.0836962 C78.738022,21.2771561 78.3256095,21.1576429 78.4837951,20.8180987 C78.6465003,20.4602374 78.6916962,20.0581663 78.837453,19.6879806 C78.837453,19.6879806 78.8973375,19.54314 79.0555231,19.5450622 Z M78.4589374,19.2463356 C78.6340714,19.2548158 78.7029952,19.443866 78.6205127,19.6452407 C78.5470694,19.8302205 78.6363312,20.1214846 78.3685456,20.1251028 C78.0363558,20.1296255 78.1131888,19.2390993 78.4589374,19.2463356 Z M70.06945,15.5266133 C70.2106872,15.5462872 70.2728316,15.7139675 70.40051,15.8119978 C70.7315699,16.0665146 71.1066958,16.2184785 71.4038587,16.5739654 C71.4987701,16.687599 71.5925516,16.8025895 71.6840733,16.9192761 C72.1913971,17.5681753 72.6162385,18.2803928 72.8851541,19.0646348 C72.9721562,19.3206215 72.5947705,19.6072498 72.4411044,19.1649264 C72.1247332,18.2712342 71.5710835,17.4658484 70.9631988,16.7527264 C70.6694255,16.4076418 70.1327243,16.3187701 69.8773675,15.9101411 C69.7858458,15.7642829 69.8332712,15.5287616 70.0525016,15.5254826 C70.0581511,15.5259349 70.0638006,15.5262741 70.06945,15.5266133 Z M71.2852195,15.5979594 C71.5066794,15.6180856 71.6162794,15.8778036 71.8693764,16.1045056 C72.3122962,16.5079334 72.5857313,17.0672825 72.9032324,17.577673 C73.0207418,17.7795 72.6896818,18.0749476 72.5190674,17.8163603 C72.1834879,17.2760067 71.8784156,16.7155269 71.3891701,16.2847365 C71.202737,16.1187522 71.1349432,16.0990783 71.06037,15.9047138 C71.0061349,15.764396 71.0886174,15.5914015 71.2852195,15.5979594 Z M72.2956249,15.8859445 C72.4418094,15.8943115 72.5244354,16.0667408 72.5473164,16.1010005 C72.777398,16.4325169 73.3087468,16.7164315 73.0672246,16.9586239 C72.8587529,17.1672349 72.5282489,16.804964 72.274015,16.5306602 C72.1405422,16.3871764 71.9969001,16.2155387 72.0350352,16.062218 C72.0617297,15.9594389 72.1710503,15.8827786 72.2956249,15.8859445 Z M21.0217389,1.5703616 C23.9888492,1.5804247 27.0181038,2.0748726 29.5400345,3.6321629 C29.5953995,3.6657442 29.6496346,3.6998908 29.7027398,3.7346028 C29.854146,3.8321808 29.9049914,3.8413393 29.9705254,3.874016 C31.1591773,4.4702254 32.4517798,5.2326452 32.6732397,6.4855556 C33.0178584,8.5177329 33.4042832,10.5755767 33.1308481,12.6178171 C32.757982,15.408683 30.6337751,18.2225018 27.7694855,17.6366947 C27.038442,17.4874445 26.3638933,17.0877479 25.6577075,16.930809 C25.5876538,16.9154317 25.508561,16.8888607 25.4509363,16.9130573 C24.497303,17.3843262 23.5481893,17.8648666 22.5968157,18.3407713 C22.5968157,18.3407713 21.9426052,18.6111177 21.3561885,18.4766794 C20.6194955,18.3076422 20.0003118,17.6820351 19.2670085,17.7238704 C18.6240969,17.7605045 18.1122534,18.2359569 17.6817626,18.6595109 C17.6817626,18.6595109 17.3653913,19.0160154 17.1574902,19.3856358 C19.6025879,21.9945748 20.9132688,25.6750624 20.7968894,29.2146668 C20.6918089,32.3803543 19.217293,35.6432805 16.3326652,37.2706732 C14.278512,38.430076 11.7882183,38.6949951 9.45159076,38.4541595 C7.88781293,38.2929241 6.35341242,37.7858126 5.28001,36.6120501 C3.71171257,34.8969164 2.3693946,32.9507841 1.22932824,30.9693745 C0.743472412,30.1243017 0.255356786,29.2617033 0.0677938369,28.3055974 C-0.0531051723,27.6831561 0.0757031179,26.9311386 0.656470321,26.5856017 C1.21689937,26.2525024 1.9524625,26.4771692 2.56147714,26.7684333 C5.11843469,27.9896844 7.28783747,29.9963083 10.1012817,30.9356801 C10.8763912,31.1946066 11.7983874,31.4338592 12.3497773,30.9000636 C12.3497773,30.9000636 12.2119298,30.4580794 11.9622225,30.1041755 C10.8266758,28.4939692 9.05725661,27.3675824 7.72510772,25.8939627 C7.27766839,25.3983841 6.95903736,24.7904157 6.64153622,24.1878745 C5.57830288,22.1672301 5.03369239,19.8956871 4.95572948,17.6094452 C4.87776657,15.292788 5.17605945,12.9573613 5.6958122,10.7123894 C6.10144532,8.9619784 7.03361058,7.346684 8.30135533,6.0665243 C11.4921853,2.8480339 16.3145869,1.5904878 20.9053595,1.5703616 C20.943776,1.5703616 20.9821925,1.5703616 21.0217389,1.5703616 Z M29.642537,3.8040694 C29.5360917,3.7561357 29.7189,3.8394987 29.7189,3.8394987 C29.8531137,3.9029472 29.642537,3.8040694 29.642537,3.8040694 Z M28.9118117,7.95505099 C29.942278,7.9738741 31.2111526,8.982783 30.437173,9.8293256 C30.3174039,9.9611633 30.0507481,9.9426201 30.0225007,9.7321999 C30.0044223,9.5925605 30.1693873,9.4986007 30.1965049,9.351725 C30.2733379,8.9346159 29.754715,8.632158 29.3468221,8.4903703 C29.1016344,8.4053429 28.8259395,8.3672389 28.5909208,8.4582589 C27.9649577,8.6995468 27.7265494,9.546994 27.6135597,10.3632344 C27.4745823,11.3597057 27.5084792,12.4585038 28.0158031,13.2719175 C28.2350032,13.6233339 28.6779229,13.9810821 29.1118035,13.7430733 C29.6439851,13.4519223 29.6609336,12.6753689 29.6349459,12.0581288 C29.6112181,11.5086167 29.5411644,10.910259 29.1197128,10.5488926 C29.106154,10.5371335 29.0925952,10.5259397 29.0779066,10.5153113 C29.0677375,10.5073965 29.0564385,10.4998209 29.0451395,10.4926976 C28.8733951,10.3834736 28.6248177,10.5867705 28.6022198,10.8770169 C28.5773621,11.1933821 28.7152095,11.5083905 28.9389292,11.7419897 C28.9389292,11.7419897 29.0530488,11.8710007 29.0101127,11.9948105 C28.9558776,12.1524278 28.7344178,12.1848784 28.6010899,12.0433169 C28.5287765,11.9671088 28.4632424,11.8845689 28.4067476,11.7966017 C27.9672175,11.1222621 28.0858567,9.9117525 28.9423189,9.9873952 C30.040579,10.0845209 30.3874575,12.1800165 29.8891728,13.4397109 C29.6473748,14.0533328 28.9061622,14.5161215 28.1276629,14.0297015 C27.2757204,13.4970365 27.0847677,12.2201558 27.1051059,11.0798615 C27.1197946,10.2528797 27.2384338,9.4119904 27.6926525,8.6917451 C27.9547887,8.2754274 28.4010981,7.9502429 28.9118117,7.95505099 Z M7.49121898,19.6731686 C7.74657577,19.6946516 7.76691392,20.1256681 7.90363149,20.4565061 C8.08102536,20.8817561 8.29344605,21.3053101 8.30248523,21.759958 C8.30248523,21.759958 8.28779656,21.927073 8.17141714,21.9813458 C8.02566039,22.0492998 7.8584356,21.9344224 7.84939642,21.7333869 C7.8143696,21.1219133 7.39517771,20.5900398 7.26071993,19.9592315 C7.26071993,19.9592315 7.2324725,19.6662715 7.49121898,19.6731686 Z M8.21661304,19.5451753 C8.60077811,19.5757037 8.52507499,20.3274951 8.79060085,20.8655874 C8.79060085,20.8655874 8.84031633,21.1436224 8.63467503,21.1869276 C8.24147078,21.2696936 8.22000273,20.4281259 7.99402327,19.854078 C7.99402327,19.854078 7.96577584,19.5368082 8.21661304,19.5451753 Z M8.80528952,19.2462226 C9.19849377,19.2593385 9.22222162,20.2713002 8.80415962,20.1099516 C8.61207708,20.0356657 8.65727298,19.7456454 8.58608945,19.5439315 C8.54315335,19.4063273 8.65275339,19.245318 8.80528952,19.2462226 Z M17.2162449,15.5258046 C17.3314944,15.5362241 17.3382738,15.5639258 17.3699109,15.5970549 C17.5608636,15.8015955 17.1744387,16.1588915 16.8659767,16.3439843 C16.7868839,16.3911338 16.7077911,16.4368135 16.6286983,16.4839629 C16.3224961,16.6695081 16.1100754,16.9578324 15.895395,17.2350759 C15.4208381,17.847228 15.0253741,18.5243943 14.7790564,19.2580947 C14.7790564,19.2580947 14.7090028,19.399204 14.5869739,19.4111893 C14.4163594,19.4279234 14.2932006,19.2766379 14.3847223,19.0151109 C14.7248214,18.0495072 15.3134979,17.1854389 15.9857867,16.4115992 C16.2942487,16.0662885 16.8704963,15.9084451 17.0038242,15.6483879 C17.0038242,15.6483879 17.0964758,15.5241258 17.2162449,15.5258046 Z M15.9925661,15.5978463 C16.1914281,15.6139021 16.2761703,15.838795 16.070529,16.0775953 C15.8829661,16.2967218 15.6445578,16.4192879 15.3586938,16.8134441 C15.1372339,17.1198593 14.9553204,17.4537501 14.7575884,17.7765602 C14.7575884,17.7765602 14.6807554,17.910094 14.5632461,17.9219661 C14.4005409,17.9384741 14.255914,17.7593739 14.3417862,17.5888668 C14.4061903,17.4789644 14.4140996,17.4720672 14.4446069,17.4208472 C14.7632379,16.8895391 15.0909081,16.3618491 15.5632052,15.9462099 C15.8705372,15.67168 15.7620671,15.7184903 15.8276011,15.6577726 C15.8705372,15.617181 15.9010445,15.5956981 15.9925661,15.5978463 Z M14.9692308,15.8858266 C15.387629,15.8998519 15.0416985,16.4424669 14.5330575,16.9548926 C14.3471027,17.1291309 13.7824019,16.9736619 14.2158405,16.5603971 C14.3799183,16.4048151 14.5754443,16.2629143 14.691666,16.0832487 C14.691666,16.0832487 14.7504605,15.8847007 14.9692308,15.8858266 Z"></path>
        </g>
    </g>
</svg>