<?xml version="1.0" encoding="UTF-8"?>
<svg width="621px" height="539px" viewBox="0 0 621 539" version="1.1" xmlns="http://www.w3.org/2000/svg" xmlns:xlink="http://www.w3.org/1999/xlink">
    <!-- Generator: Sketch 55.2 (78181) - https://sketchapp.com -->
    <title>tea</title>
    <desc>Created with Sketch.</desc>
    <g id="Page-1" stroke="none" stroke-width="1" fill="none" fill-rule="evenodd">
        <g id="tea" fill-rule="nonzero">
            <g id="bg-color-g" transform="translate(0.500000, 99.465663)" fill="#F51DE7">
                <path d="M555.5,190.534337 L245,18.5343371 C257,56.8676701 260,71.8676701 254,63.5343371 C245,51.0343371 92,-13.4656629 106.5,2.53433707 C121,18.5343371 223.5,78.0343371 175,101.534337 C126.5,125.034337 146.5,129.034337 140,129.034337 C135.666667,129.034337 94.3333333,127.701004 16,125.034337 L126.5,220.534337 L0,223.034337 L175,325.534337 L374,439.534337 L317.5,336.534337 L475.5,425.534337 L428.5,302.034337 L620,336.534337 L522.5,209.034337 L595.5,214.034337 L555.5,190.534337 Z" id="bg-color"></path>
            </g>
            <path d="M448.069,268.874 C452.211,268.874 455.569,265.516 455.569,261.374 L455.569,225.516 C455.569,208.511 441.735,194.677 424.73,194.677 L206.516,194.677 C189.512,194.677 175.677,208.511 175.677,225.516 L175.677,424.766 C175.677,433.122 177.755,440.858 182.028,448.417 C191.907,465.892 210.978,476.749 231.798,476.749 L399.448,476.749 C420.267,476.749 439.338,465.893 449.217,448.417 C453.491,440.856 455.569,433.12 455.569,424.765 L455.569,291.265 C455.569,287.123 452.211,283.765 448.069,283.765 C443.927,283.765 440.569,287.123 440.569,291.265 L440.569,424.765 C440.569,430.465 439.127,435.787 436.16,441.036 C428.937,453.813 414.87,461.75 399.449,461.75 L231.799,461.75 C216.377,461.75 202.31,453.812 195.088,441.035 C192.121,435.787 190.679,430.466 190.679,424.766 L190.679,225.516 C190.679,216.782 197.784,209.677 206.518,209.677 L424.73,209.677 C433.463,209.677 440.569,216.782 440.569,225.516 L440.569,261.374 C440.569,265.516 443.927,268.874 448.069,268.874 Z" id="Path" fill="#000000"></path>
            <path d="M241.496,150.313 C237.354,150.313 233.996,153.671 233.996,157.813 L233.996,171.229 C233.996,175.372 237.354,178.729 241.496,178.729 C245.638,178.729 248.996,175.371 248.996,171.229 L248.996,157.813 C248.996,153.671 245.638,150.313 241.496,150.313 Z" id="Path" fill="#000000"></path>
            <path d="M389.75,150.313 C385.608,150.313 382.25,153.671 382.25,157.813 L382.25,171.229 C382.25,175.372 385.608,178.729 389.75,178.729 C393.892,178.729 397.25,175.371 397.25,171.229 L397.25,157.813 C397.25,153.671 393.892,150.313 389.75,150.313 Z" id="Path" fill="#000000"></path>
            <path d="M338.854,164.649 C335.735,161.923 330.998,162.241 328.271,165.36 C325.199,168.875 320.589,170.89 315.623,170.89 C310.657,170.89 306.046,168.874 302.974,165.359 C300.249,162.24 295.511,161.922 292.391,164.648 C289.272,167.374 288.954,172.112 291.681,175.231 C297.602,182.005 306.329,185.891 315.623,185.891 C324.918,185.891 333.644,182.006 339.565,175.232 C342.291,172.113 341.973,167.375 338.854,164.649 Z" id="Path" fill="#000000"></path>
            <path d="M396.53,295.028 C393.543,291.326 389.108,289.203 384.363,289.203 C380.219,289.203 376.321,290.818 373.388,293.751 L321.523,345.616 L298.054,299.499 L266.162,236.83 C263.591,231.779 258.466,228.641 252.786,228.641 C249.862,228.641 247.015,229.488 244.553,231.091 C226.943,242.555 214.197,260.106 208.664,280.511 C203.089,301.069 205.331,322.827 214.975,341.779 C227.819,367.018 251.837,383.9 279.388,387.752 L266.673,400.467 C263.563,403.576 261.914,407.878 262.147,412.271 C262.382,416.69 264.497,420.822 267.949,423.609 C284.09,436.637 304.47,443.812 325.334,443.812 C325.335,443.812 325.334,443.812 325.335,443.812 C349.783,443.812 372.747,434.313 389.991,417.069 C406.031,401.03 415.487,379.699 416.619,357.006 C417.743,334.481 410.608,312.47 396.53,295.028 Z M365.295,323.058 C370.138,329.643 373.142,337.164 374.318,344.912 L343.441,344.912 L365.295,323.058 Z M374.317,359.912 C373.141,367.658 370.129,375.173 365.287,381.758 L343.441,359.912 L374.317,359.912 Z M332.834,370.518 L354.689,392.373 C348.232,397.137 340.768,400.229 332.834,401.426 L332.834,370.518 Z M317.835,370.518 L317.835,401.424 C309.9,400.227 302.434,397.141 295.977,392.377 L302.137,386.215 C302.138,386.214 302.139,386.213 302.141,386.212 L317.043,371.31 L317.835,370.518 Z M292.898,322.438 L305.133,346.481 C300.71,347.889 296.12,348.599 291.415,348.599 L291.413,348.599 C289.09,348.599 286.801,348.413 284.553,348.077 L292.898,322.438 Z M278.635,317.796 L270.281,343.463 C264.151,340.28 258.794,335.698 254.619,330.017 L278.635,317.796 Z M247.803,316.656 C245.685,309.997 245.137,302.99 246.194,296.084 L271.832,304.428 L247.803,316.656 Z M264.241,266.125 L276.474,290.165 L250.83,281.819 C254.042,275.61 258.607,270.262 264.241,266.125 Z M228.344,334.975 C211.905,302.672 222.392,263.415 252.795,243.633 L257.377,252.636 C246.205,260.159 237.897,271.107 233.662,284.117 C228.645,299.532 229.931,315.977 237.284,330.425 C247.697,350.887 268.438,363.599 291.414,363.6 C291.415,363.6 291.416,363.6 291.417,363.6 C296.08,363.6 300.654,363.066 305.114,362.026 L293.579,373.561 C265.901,374.381 240.779,359.409 228.344,334.975 Z M401.639,356.259 C400.693,375.23 392.79,393.059 379.386,406.463 C364.973,420.876 345.778,428.813 325.335,428.813 C307.887,428.813 290.854,422.819 277.372,411.938 C277.219,411.815 277.137,411.659 277.125127,411.475 C277.114,411.238 277.23,411.122 277.28,411.072 L285.289,403.063 C296.65,412.081 310.611,416.99 325.335,416.99 C342.585,416.99 358.801,410.272 370.999,398.075 C383.382,385.693 389.66,369.491 389.864,353.227 C389.893,352.959 389.91,352.687 389.91,352.412 C389.91,352.137 389.893,351.864 389.864,351.596 C389.69,337.689 385.063,323.836 375.984,312.369 L383.996,304.358 C384.073,304.281 384.176,304.203 384.364,304.203 C384.561,304.203 384.728,304.286 384.86,304.449 C396.62,319.02 402.579,337.419 401.639,356.259 Z" id="Shape" fill="#000000"></path>
            <path d="M506.997,28.022 L503.221,10.851 C501.839,4.563 496.167,0 489.733,0 C488.736,0 487.736,0.109 486.759,0.324 L404.379,18.44 C398.105,19.82 392.696,23.821 389.539,29.419 L364.799,73.309 L270.04,73.309 C265.898,73.309 262.54,76.667 262.54,80.809 C262.54,84.951 265.898,88.309 270.04,88.309 L427.078,88.309 C431.277,88.309 434.694,91.726 434.694,95.925 L434.694,107.323 C434.694,111.523 431.277,114.939 427.078,114.939 L204.168,114.939 C199.968,114.939 196.552,111.522 196.552,107.323 L196.552,95.924 C196.552,91.724 199.969,88.308 204.168,88.308 L240.039,88.308 C244.181,88.308 247.539,84.95 247.539,80.808 C247.539,76.666 244.181,73.308 240.039,73.308 L204.168,73.308 C191.697,73.308 181.552,83.454 181.552,95.924 L181.552,107.322 C181.552,113.454 184.009,119.021 187.986,123.099 C170.14,134.866 140.425,160.687 140.425,202.174 L140.425,209.278 L134.066,209.278 C92.495,209.278 58.675,243.098 58.675,284.669 L58.675,355.026 C58.675,396.598 92.496,430.418 134.066,430.418 L140.62,430.418 C141.458,442.772 145.052,454.638 151.341,465.763 C167.463,494.283 198.292,512 231.798,512 L399.448,512 C432.954,512 463.783,494.283 479.905,465.763 C487.148,452.95 490.821,439.156 490.821,424.764 L490.821,202.174 C490.821,160.688 461.105,134.866 443.26,123.099 C447.237,119.021 449.694,113.454 449.694,107.322 L449.694,95.924 C449.694,83.453 439.548,73.308 427.078,73.308 L416.705,73.308 L423.965,60.429 L496.47,44.485 C500.074,43.693 503.155,41.544 505.143,38.434 C507.132,35.325 507.79,31.627 506.997,28.022 Z M140.425,375.13 L134.066,375.13 C122.981,375.13 113.962,366.112 113.962,355.027 L113.962,284.67 C113.962,273.585 122.981,264.566 134.066,264.566 L140.425,264.566 L140.425,375.13 Z M140.425,249.567 L134.066,249.567 C114.71,249.567 98.962,265.315 98.962,284.671 L98.962,355.028 C98.962,374.384 114.71,390.131 134.066,390.131 L140.425,390.131 L140.425,415.419 L134.066,415.419 C100.766,415.419 73.675,388.328 73.675,355.028 L73.675,284.67 C73.675,251.37 100.766,224.279 134.066,224.279 L140.425,224.279 L140.425,249.567 Z M450.387,147.87 C467.263,163.844 475.821,182.115 475.821,202.174 L475.821,424.764 C475.821,436.537 472.802,447.848 466.848,458.381 C453.382,482.202 427.556,497 399.448,497 L231.798,497 C203.691,497 177.864,482.202 164.399,458.381 C158.445,447.848 155.425,436.537 155.425,424.764 L155.425,202.174 L155.425,202.174 C155.425,182.115 163.982,163.844 180.859,147.87 C191.432,137.862 202.192,131.867 205.927,129.938 L425.319,129.938 C429.064,131.873 439.819,137.867 450.387,147.87 Z M417.467,46.499 C415.383,46.957 413.592,48.282 412.544,50.141 L399.485,73.308 L382.017,73.308 L402.605,36.785 C403.668,34.901 405.488,33.554 407.6,33.09 L488.825,15.228 L492.093,30.088 L417.467,46.499 Z" id="Shape" fill="#000000"></path>
        </g>
    </g>
</svg>