<?xml version="1.0" encoding="UTF-8"?>
<svg width="1250px" height="1250px" viewBox="0 0 1250 1250" version="1.1" xmlns="http://www.w3.org/2000/svg" xmlns:xlink="http://www.w3.org/1999/xlink">
    <title>illu/ui</title>
    <g id="illu/ui" stroke="none" stroke-width="1" fill="none" fill-rule="evenodd">
        <g id="Group-43" transform="translate(197.000000, 25.000000)">
            <path d="M257.76,457.92 L261.6,584.64 L261.6,668.16 L273.6,688.8 L293.76,699.36 L315.36,700.8 L327.84,705.12 L370.56,705.12 L386.4,722.88 L392.64,732 L403.2,725.76 L425.28,739.2 L425.28,697.92 L511.68,696.96 L508.8,712.32 L511.68,725.76 L530.88,696.96 L610.56,692.64 L590.88,732 L569.76,808.32 L561.6,836.16 L565.44,862.08 L569.76,882.24 L550.56,888.96 L543.36,893.28 L550.56,915.84 L544.8,925.92 L530.88,942.72 L536.64,1020.48 L543.36,1112.16 L543.36,1169.76 L534.72,1194.24 L530.88,1182.72 L528.48,1188.96 L523.2,1169.76 L519.84,1191.36 L514.08,1179.36 L508.8,1186.08 L493.44,1062.72 L483.84,983.04 L470.4,965.28 L456.96,948.96 L444.96,970.08 L426.24,1019.04 L420.96,1065.12 L421.92,1158.72 L414.72,1166.88 L407.04,1140.48 L394.08,1171.2 L377.76,1135.2 L365.76,1174.08 L351.84,1141.92 L344.64,1152.96 L337.44,975.36 L307.68,942.72 L318.24,900.48 L342.24,866.88 L325.44,828.96 L333.12,817.44 L350.4,798.72 L328.32,798.72 L304.32,789.6 L300,757.44 L273.6,732 L246.24,705.12 L238.08,644.16 L259.2,631.2 L257.76,596.16 C253.92,600.96 248,604.48 240,606.72 C232,608.96 225.28,600.32 219.84,580.8 L219.84,580.8 L217.44,540 L236.16,502.08 L257.76,457.92 Z M475.68,906.72 L464.64,915.84 L453.12,922.56 L458.4,935.04 L467.52,927.36 L485.28,920.16 L475.68,906.72 Z M467.04,749.28 L460.32,754.08 L454.08,763.68 L464.64,776.16 L464.64,791.52 L446.4,809.76 L423.36,823.68 L434.88,836.16 L461.76,866.88 L474.24,883.68 L485.28,873.12 L497.28,857.76 L489.12,853.92 L481.92,840.96 L470.4,816.48 L468.96,787.68 L476.64,773.76 L470.4,765.12 L467.04,749.28 Z M679.2,478.56 L682.08,482.88 L695.52,492 L701.76,518.88 L679.2,573.6 L650.88,623.52 L653.76,495.36 L665.28,484.32 L679.2,478.56 Z" id="Combined-Shape" fill="#FFFFFF"></path>
            <path d="M321.23136,794.90304 C321.32736,794.74944 321.41376,794.59584 321.50976,794.44224" id="Fill-1" fill="#FFC900"></path>
            <path d="M294.68832,755.69568 C294.37152,754.95648 293.99712,754.22688 293.57472,753.52608 C288.76512,745.77888 280.49952,741.06528 272.10912,736.36128 C265.98432,732.92448 259.69632,729.63168 254.32032,725.46528 C247.70592,720.33888 242.49312,713.96448 239.67072,705.61248 C235.58976,693.07488 230.14656,673.65408 231.38496,657.11328 C232.37376,643.80768 237.52032,632.31648 249.46272,626.20128 C253.09152,624.33888 257.14272,622.80288 261.21312,622.41888 C264.39072,622.12128 267.57792,622.45728 270.65952,623.74368 C273.63552,624.95328 275.06592,628.35168 273.85632,631.32768 C272.63712,634.30368 269.23872,635.73408 266.27232,634.51488 C264.63072,633.86208 262.91232,633.92928 261.24192,634.26528 C259.04352,634.70688 256.90272,635.66688 254.92512,636.70368 C246.93792,640.91808 244.15392,649.00128 243.56832,657.95808 C242.58912,672.92448 247.80192,690.39648 251.55552,701.70528 C253.48512,707.73408 257.41152,712.13088 261.99072,716.01888 C275.05632,727.10688 293.20992,734.38368 301.06272,749.21568 L295.92672,741.88128 C295.99392,741.50688 296.06112,741.13248 296.13792,740.76768 C298.46112,729.14208 303.53952,718.35168 310.91232,710.62368 C288.84192,696.54048 278.64672,670.99488 268.21152,647.96448 C267.77952,647.00448 268.20192,645.86208 269.17152,645.43008 C270.13152,644.98848 271.27392,645.42048 271.71552,646.38048 C281.87232,668.81568 291.59712,693.84288 313.16832,707.50368 C313.36992,707.63808 313.53312,707.79168 313.67712,707.97408 L296.13792,740.76768 C300.14112,720.71328 312.38112,703.11648 330.42912,699.48768 C333.23232,698.95008 336.14112,698.89248 339.09792,699.17088 C344.81952,699.69888 350.73312,701.46528 356.17632,701.98368 C373.93632,703.60608 383.44992,709.37568 387.92352,717.35328 C389.19072,719.61888 390.04512,722.10528 390.54432,724.79328 C392.54112,722.55648 394.91232,720.82848 397.70592,719.81088 C402.62112,718.08288 409.43712,719.98368 416.24352,724.83168 C416.97312,725.35008 417.71232,725.90688 418.46112,726.49248 C418.48992,716.68128 419.98752,704.93088 420.09312,699.36288 C419.99712,697.10688 421.73472,695.20608 423.98112,695.10048 C426.22752,694.99488 428.13792,696.73248 428.24352,698.97888 C428.88672,704.71008 429.45312,717.16128 430.30752,727.08768 C430.67232,731.29248 430.90272,734.97888 431.74752,737.05248 C432.40992,739.03008 433.74432,740.76768 435.28032,742.37088 C437.34432,744.53088 439.60032,746.54688 441.57792,748.39008 C446.21472,752.62368 449.58432,755.79168 453.17472,755.31168 C456.44832,754.87968 459.11712,751.56768 462.38112,745.46208 C463.14912,743.92608 463.68672,742.18848 464.03232,740.32608 C464.17632,738.77088 464.34912,737.23488 464.56032,735.69888 C464.62752,734.39328 464.64672,733.05888 464.62752,731.70528 C464.50272,723.55488 463.01472,714.82848 462.91872,708.35808 C462.90912,706.43808 464.45472,704.86368 466.38432,704.85408 C468.30432,704.84448 469.87872,706.39968 469.87872,708.32928 C469.87872,710.09568 469.95552,712.02528 470.08992,714.07008 C471.51072,710.19168 473.13312,706.30368 474.93792,702.36768 C476.99232,698.66208 481.66752,697.31808 485.37312,699.36288 C489.07872,701.41728 490.42272,706.09248 488.37792,709.80768 C483.29952,717.49728 478.91232,725.01408 476.13792,733.15488 C474.73632,737.25408 473.66112,741.43008 473.14272,745.81728 C472.65312,750.01248 472.66272,754.36128 473.07552,758.89248 C473.56512,763.18368 476.32992,765.24768 479.66112,765.71808 C483.83712,763.14528 487.83072,762.12768 491.60352,762.22368 C492.71712,761.36928 493.70592,760.38048 494.49312,759.28608 C496.03872,757.08768 497.60352,747.48768 498.95712,736.68768 C499.42752,733.01088 499.78272,729.21888 500.07072,725.49408 C500.94432,713.89728 501.17472,703.12608 501.36672,699.09408 C501.93312,694.88928 505.80192,691.93248 509.99712,692.49888 C514.20192,693.06528 517.15872,696.93408 516.59232,701.12928 C515.85312,704.49888 513.94272,712.63008 511.87872,722.01888 C517.04352,713.01408 523.13952,704.77728 528.23712,698.23968 C528.88032,697.40448 530.08992,697.26048 530.92512,697.91328 C531.76032,698.55648 531.91392,699.76608 531.26112,700.60128 C523.81152,710.17248 514.09632,723.44928 508.65312,737.39808 C507.71232,742.16928 506.82912,746.76768 505.93632,750.72288 C505.46592,752.80608 504.99552,754.73568 504.52512,756.44448 C504.48672,760.57248 505.10112,764.63328 506.57952,768.53088 C512.30112,773.26368 517.17792,779.93568 520.95072,785.93568 C523.75392,790.32288 526.00992,794.57568 527.69952,798.71328 C528.39072,799.95168 529.07232,801.12288 529.74432,802.12128 C530.24352,802.87968 530.71392,803.53248 531.17472,804.02208 C531.35712,804.21408 531.61632,804.42528 531.76032,804.53088 C532.22112,804.41568 532.67232,804.25248 533.10432,804.05088 C533.68032,802.52448 534.35232,801.00768 535.09152,799.51008 C538.19232,793.21248 542.39712,787.20288 545.05632,781.30848 C551.92992,766.12128 556.27872,750.15648 563.47872,735.03648 C568.48032,724.52448 575.27712,714.82848 580.26912,704.28768 C580.64352,703.39488 581.01792,702.50208 581.39232,701.60928 C581.46912,701.39808 581.58432,701.22528 581.72832,701.06208 C582.42912,699.43008 583.07232,697.77888 583.65792,696.08928 C584.00352,695.09088 585.09792,694.56288 586.09632,694.90848 C587.10432,695.25408 587.63232,696.34848 587.28672,697.35648 C586.30752,700.15968 585.16512,702.88608 583.89792,705.56448 C573.05952,731.42688 560.26272,756.05088 550.17312,782.25888 C548.41632,786.81888 546.03552,794.30688 542.41632,800.01888 C540.65952,802.78368 538.59552,805.13568 536.23392,806.67168 C535.50432,808.78368 534.99552,810.92448 534.81312,813.12288 C537.48192,823.74048 545.55552,833.25408 555.30912,838.13088 C555.36672,835.47168 555.64512,832.75488 556.20192,829.96128 C556.60512,827.95488 557.03712,825.89088 557.49792,823.76928 C557.40192,823.80768 557.31552,823.83648 557.20992,823.84608 C556.68192,823.89408 556.21152,823.50048 556.16352,822.97248 C554.08992,800.77728 563.14272,775.91328 572.66592,755.96448 C572.88672,755.48448 573.46272,755.28288 573.94272,755.51328 C574.42272,755.74368 574.62432,756.31008 574.39392,756.79008 C565.19712,776.07648 556.37472,800.01888 557.97792,821.57088 L556.20192,829.96128 C560.91552,806.58528 569.33472,775.24128 580.00032,746.45088 C587.38272,726.53088 595.84992,707.83968 604.76832,693.77568 C605.96832,691.81728 608.53152,691.20288 610.48992,692.40288 C612.43872,693.60288 613.05312,696.16608 611.85312,698.12448 C603.61632,711.98688 596.05152,730.34208 589.40832,749.80128 C579.69312,778.29408 572.06112,809.17728 567.96192,832.19808 C566.95392,837.72768 567.39552,842.85408 568.51872,847.82688 C570.41952,856.22688 574.23072,864.22368 577.34112,872.79648 C577.47552,873.16128 578.69472,876.29088 579.07872,877.57728 C580.45152,882.19488 576.98592,884.87328 576.41952,885.21888 C569.46912,889.50048 560.16672,890.71008 553.08192,895.05888 C551.17152,896.23008 549.47232,897.69888 548.20512,899.77248 C549.70272,905.05248 553.30272,907.96128 554.85792,916.55328 C555.09792,917.79168 555.25152,918.88608 554.99232,919.91328 C554.73312,920.95008 554.39712,922.01568 553.54272,922.98528 C552.97632,925.33728 551.85312,927.45888 550.29792,929.40768 C548.39712,931.77888 545.77632,933.90048 543.22272,936.10944 C541.08192,937.96224 538.69152,939.69984 538.44192,942.68544 C537.82752,949.94304 537.86592,957.39264 538.24032,964.92864 C539.14272,982.86144 541.91712,1001.22624 542.61792,1018.57344 C544.08672,1053.21024 544.73952,1087.79904 547.06272,1122.31094 C547.52352,1129.20374 548.07072,1136.08694 548.81952,1142.96054 C550.56672,1158.98304 553.12032,1174.84224 555.72192,1190.79744 C556.16352,1195.01194 553.11072,1198.79434 548.89632,1199.24554 C544.68192,1199.69674 540.88992,1196.63434 540.44832,1192.41984 C540.05472,1183.68384 539.83392,1175.00544 539.55552,1166.27904 C539.27712,1157.57184 539.11392,1148.89344 538.74912,1140.20534 C538.22112,1128.07094 537.43392,1115.94614 536.78112,1103.82134 C535.24512,1075.59744 533.68032,1047.37344 532.05792,1019.10144 C531.04992,1001.78304 527.95872,983.49504 526.73952,965.61024 C526.19232,957.54624 526.01952,949.56864 526.54752,941.77344 C526.70112,939.43104 527.32512,937.33824 528.25632,935.41824 L528.19872,935.42784 C527.27712,935.55264 526.35552,935.66784 525.42432,935.75424 C524.19552,935.85984 522.95712,935.92704 521.71872,935.95584 C517.97472,936.03264 514.21152,935.73504 510.51552,935.07264 C506.74272,934.39008 503.02752,933.34368 499.45632,931.92288 C497.28672,931.05888 495.17472,930.06048 493.12032,928.93728 L493.11072,928.92768 C491.87232,929.29248 490.49952,929.16768 489.29952,928.46688 C483.01152,924.40608 474.83232,926.18208 468.80352,930.73248 C465.79872,932.99808 463.28352,935.93664 461.70912,939.24864 C461.97792,942.23424 461.92992,945.17184 461.52672,948.03264 C463.19712,949.21344 465.35712,950.83584 465.68352,951.04704 C475.42752,957.43104 481.88832,962.22144 486.11232,968.33664 C490.52832,974.72064 492.74592,982.46784 493.47552,994.82304 C494.65632,1012.81344 496.25952,1030.79424 498.16992,1048.74624 C501.04032,1075.77984 504.45792,1102.76544 507.09792,1129.78934 C508.99872,1149.19104 510.58272,1168.59264 511.33152,1188.03264 C511.41792,1189.84704 510.01632,1191.38304 508.21152,1191.46944 C506.39712,1191.55584 504.86112,1190.15424 504.77472,1188.33984 C503.68032,1169.06304 501.83712,1149.82464 499.55232,1130.60534 C496.34592,1103.68694 492.40992,1076.80704 488.65632,1049.91744 C486.14112,1031.89824 483.64512,1013.90784 481.70592,995.85024 C480.64032,986.51904 478.88352,980.72064 475.39872,975.96864 C471.79872,971.06304 466.44192,967.29984 458.46432,962.07744 C458.28192,961.95264 457.27392,961.22304 456.17952,960.40704 C454.06752,962.91264 452.13792,966.69504 450.17952,970.72704 C445.46592,980.42304 441.58752,991.97184 439.26432,997.83744 C431.83392,1016.73024 428.41632,1038.44544 427.41792,1060.89984 C425.92992,1094.69184 429.63552,1129.99094 430.35552,1160.09664 C430.37472,1164.33984 426.95712,1167.80544 422.72352,1167.82464 C418.48032,1167.85344 415.01472,1164.43584 414.99552,1160.20224 C415.31232,1129.88534 413.52672,1094.28864 415.49472,1060.29504 C416.87712,1036.49664 419.97792,1013.43744 427.71552,993.34464 C430.41312,986.26944 435.20352,971.31264 440.97312,960.48384 C444.54432,953.78304 448.75872,948.63744 452.81952,946.41984 C453.25152,940.42944 451.71552,934.14048 448.85472,927.84288 C448.03872,927.43968 447.32832,926.81568 446.80992,925.99008 C446.10912,924.88608 445.87872,923.61888 446.06112,922.41888 C440.08992,911.99328 430.71072,901.85568 419.96832,893.08128 C408.37152,883.61568 395.09472,875.86848 382.52832,871.29888 C372.96672,867.81408 363.87552,866.14368 356.38752,867.56448 C355.71552,867.68928 354.87072,868.25568 353.81472,868.89888 C350.98272,870.61728 347.60352,873.20928 344.30112,875.94528 C339.03072,880.32288 333.95232,885.05568 331.98432,887.56128 C326.10912,894.95328 319.29312,909.83328 316.24992,923.92608 C314.24352,933.21888 313.55232,942.16704 316.81632,947.98464 C318.64992,951.23904 321.55872,953.54304 324.57312,955.73184 C328.49952,958.59264 332.59872,961.26144 335.72832,964.67904 C338.83872,968.07744 341.15232,972.11904 341.74752,977.52384 C343.84032,995.06304 344.91552,1012.82304 345.64512,1030.67904 C347.32512,1071.84384 346.62432,1113.54614 348.07392,1154.21184 C348.16032,1156.61184 346.27872,1158.62784 343.86912,1158.71424 C341.46912,1158.79104 339.45312,1156.90944 339.36672,1154.50944 C338.01312,1113.87254 339.20352,1072.17984 337.21632,1031.05344 C336.37152,1013.44704 334.84512,995.96544 332.49312,978.70464 C332.03232,975.57504 330.55392,973.29984 328.67232,971.38944 C325.86912,968.54784 322.19232,966.47424 318.70752,964.14144 C314.33952,961.22304 310.26912,957.95904 307.50432,953.47584 C302.83872,945.92064 302.29152,934.07328 304.47072,921.62208 C307.33152,905.31168 314.77152,888.03168 321.21312,879.30528 C323.40192,876.38688 328.92192,870.77088 334.86432,865.62528 C333.40512,862.54368 331.84992,859.43328 330.38112,856.27488 C327.95232,852.60768 325.51392,849.11328 323.81472,845.29248 C322.24992,841.75968 321.27072,837.97728 321.28992,833.65728 C321.29952,830.21088 322.37472,826.54368 324.26592,822.89568 C325.21632,819.20928 326.77152,815.55168 327.84672,811.90368 C328.38432,810.10848 328.76832,808.31328 328.83552,806.52768 C328.89312,804.63648 327.11712,803.86848 325.12992,803.09088 C320.88672,801.44928 315.05952,800.80608 310.67232,799.62528 C307.16832,798.68448 304.47072,797.25408 303.09792,795.46848 C300.93792,792.68448 299.58432,789.64128 298.69152,786.45408 C297.54912,782.39328 297.25152,778.05408 297.08832,773.68608 L297.07872,773.67648 C296.88672,772.95648 296.69472,772.22688 296.52192,771.50688 C296.03232,769.43328 295.63872,767.33088 295.35072,765.21888 C294.91872,762.07008 294.70752,758.90208 294.68832,755.72448 L294.68832,755.69568 Z M527.10432,1019.71584 C523.68672,1070.18304 523.56192,1133.03414 534.58272,1182.16704 C534.69792,1182.68544 535.21632,1183.01184 535.72512,1182.89664 C536.24352,1182.78144 536.56992,1182.26304 536.45472,1181.75424 C525.47232,1132.78454 525.61632,1070.14464 529.01472,1019.84064 C529.05312,1019.31264 528.65952,1018.85184 528.13152,1018.82304 C527.59392,1018.78464 527.14272,1019.18784 527.10432,1019.71584 Z M410.99232,1115.86934 C410.56032,1128.86774 411.57792,1141.64534 412.89312,1154.55744 C412.95072,1155.08544 413.42112,1155.46944 413.94912,1155.41184 C414.47712,1155.36384 414.86112,1154.89344 414.80352,1154.36544 C413.49792,1141.53974 412.48032,1128.84854 412.91232,1115.93654 C412.92192,1115.40854 412.50912,1114.95734 411.98112,1114.93798 C411.45312,1114.92854 411.01152,1115.34134 410.99232,1115.86934 Z M403.51392,1018.72704 C400.31712,1053.90144 397.95552,1089.24864 399.49152,1124.57654 C399.51072,1125.10454 399.96192,1125.51734 400.48992,1125.48854 C401.01792,1125.46934 401.43072,1125.01814 401.41152,1124.49014 C399.87552,1089.25824 402.23712,1053.98784 405.42432,1018.89984 C405.47232,1018.37184 405.07872,1017.91104 404.55072,1017.86304 C404.02272,1017.81504 403.56192,1018.19904 403.51392,1018.72704 Z M346.85472,1035.80544 C350.39712,1058.66304 350.19552,1081.87584 351.91392,1104.90614 C351.95232,1105.43414 352.41312,1105.83734 352.94112,1105.78934 C353.46912,1105.75094 353.86272,1105.29014 353.82432,1104.76214 C352.10592,1081.68384 352.29792,1058.42304 348.74592,1035.50784 C348.66912,1034.98944 348.17952,1034.62464 347.65152,1034.71104 C347.12352,1034.78784 346.76832,1035.27744 346.85472,1035.80544 Z M415.25472,1025.08224 C411.24192,1050.17664 408.84192,1075.18464 410.07072,1100.62464 C410.08992,1101.15264 410.54112,1101.55584 411.06912,1101.52704 C411.60672,1101.50784 412.00992,1101.05664 411.99072,1100.52864 C410.76192,1075.22304 413.16192,1050.34944 417.15552,1025.38944 C417.23232,1024.86144 416.87712,1024.37184 416.35872,1024.28544 C415.83072,1024.20864 415.34112,1024.56384 415.25472,1025.08224 Z M506.04192,977.71584 C517.04352,1004.73024 514.47072,1038.96384 515.56512,1067.50464 C515.58432,1068.03264 516.03552,1068.44544 516.56352,1068.42688 C517.09152,1068.40704 517.50432,1067.96544 517.48512,1067.42784 C516.38112,1038.67584 518.89632,1004.21184 507.81792,976.98624 C507.62592,976.49664 507.05952,976.26624 506.56992,976.45824 C506.08032,976.65984 505.84992,977.22624 506.04192,977.71584 Z M443.01792,930.67488 C443.85312,942.71424 440.16672,953.41824 435.36672,963.84384 C430.49952,974.44224 424.48992,984.75264 420.79392,995.84064 C420.63072,996.34944 420.89952,996.88704 421.39872,997.05984 C421.90752,997.22304 422.44512,996.95424 422.61792,996.45504 C426.29472,985.42464 432.27552,975.18144 437.11392,964.64064 C442.03872,953.92704 445.79232,942.91584 444.93792,930.54048 C444.89952,930.01248 444.43872,929.60928 443.91072,929.64768 C443.38272,929.68608 442.97952,930.14688 443.01792,930.67488 Z M489.13632,946.14144 C489.69312,954.84864 492.35232,962.68224 495.35712,970.43904 C498.30432,978.05184 501.58752,985.58784 503.44032,993.83424 C503.55552,994.34304 504.07392,994.66944 504.59232,994.55424 C505.10112,994.43904 505.42752,993.93024 505.31232,993.41184 C503.44032,985.06944 500.12832,977.44704 497.14272,969.73824 C494.21472,962.17344 491.59392,954.52224 491.05632,946.01664 C491.01792,945.48864 490.56672,945.08544 490.03872,945.11424 C489.50112,945.15264 489.10752,945.61344 489.13632,946.14144 Z M331.29312,955.90464 C334.30752,960.86784 337.73472,964.89984 340.69152,969.19104 C343.56192,973.37664 345.99072,977.81184 347.10432,983.68704 C347.20032,984.20544 347.70912,984.54144 348.22752,984.44544 C348.74592,984.34944 349.09152,983.85024 348.98592,983.32224 C347.82432,977.15904 345.28992,972.49344 342.27552,968.10624 C339.33792,963.83424 335.92992,959.84064 332.93472,954.90624 C332.65632,954.45504 332.07072,954.31104 331.60992,954.58944 C331.15872,954.86784 331.01472,955.45344 331.29312,955.90464 Z M331.06272,908.99808 C328.33632,919.24128 327.27072,927.94848 330.67872,938.25024 C330.84192,938.74944 331.38912,939.02784 331.88832,938.85504 C332.38752,938.69184 332.66592,938.14464 332.49312,937.64544 C329.21952,927.73728 330.29472,919.35648 332.91552,909.49728 C333.05952,908.98848 332.75232,908.46048 332.24352,908.32608 C331.72512,908.18208 331.19712,908.48928 331.06272,908.99808 Z M399.52032,911.74368 C401.40192,918.92448 402.77472,926.39328 401.92992,933.83328 C401.86272,934.36128 402.24672,934.84224 402.77472,934.89984 C403.29312,934.95744 403.77312,934.58304 403.83072,934.05408 C404.71392,926.37408 403.31232,918.66528 401.37312,911.25408 C401.23872,910.74528 400.72032,910.43808 400.20192,910.57248 C399.69312,910.70688 399.38592,911.22528 399.52032,911.74368 Z M340.65312,893.63808 C335.47872,905.24448 330.87072,919.01088 333.07872,931.87488 C333.17472,932.39328 333.67392,932.74848 334.19232,932.65248 C334.71072,932.56608 335.06592,932.06688 334.97952,931.54848 C332.81952,919.05888 337.38912,905.69568 342.40992,894.42528 C342.62112,893.93568 342.40992,893.36928 341.92032,893.15808 C341.44032,892.93728 340.87392,893.15808 340.65312,893.63808 Z M534.92832,899.68608 C534.12192,896.72928 533.72832,892.99488 533.74752,887.87808 C533.95872,886.07328 534.78432,884.49888 535.97472,883.31808 C532.87392,878.38368 527.89152,873.87168 522.12192,870.74208 C513.01152,865.81728 501.55872,864.55968 491.54592,872.80608 C488.88672,874.85088 486.00672,877.16448 483.76032,879.90048 C482.47392,881.46528 481.33152,883.13568 480.70752,885.02688 C476.29152,898.18848 480.26592,909.72768 488.23392,918.00288 C490.26912,918.42528 492.25632,919.12608 494.17632,920.12448 C495.81792,921.08448 496.68192,922.86048 496.55712,924.63648 C497.72832,925.36608 498.94752,926.02848 500.18592,926.64288 C508.17312,930.58848 517.40832,932.50848 526.00032,931.28928 C528.19872,930.98208 530.33952,930.44448 532.39392,929.70528 C534.04512,927.98688 535.89792,926.39328 537.67392,924.82848 C539.41152,923.29248 541.34112,922.03488 541.60032,919.95168 C541.88832,917.65728 540.43872,915.96768 539.33472,914.20128 C537.73152,911.65728 536.16672,909.12288 535.37952,906.41568 C534.76512,904.30368 534.51552,902.08608 534.92832,899.68608 Z M474.70752,910.96608 C474.58272,911.17728 474.45792,911.38848 474.32352,911.59008 C472.76832,914.05728 470.77152,916.14048 468.54432,918.01248 C465.41472,920.64288 461.75712,922.77408 458.24352,924.89568 L458.26272,924.93408 C458.56992,925.74048 458.86752,926.56608 459.13632,927.38208 C459.40512,928.16928 459.65472,928.96608 459.88512,929.76288 L459.89472,929.79168 C461.19072,928.12128 462.64992,926.56608 464.25312,925.15488 C468.60192,921.31488 473.92032,918.71328 479.40192,917.83968 L479.38272,917.82048 C478.48032,916.74528 477.62592,915.62208 476.83872,914.46048 C476.32992,913.72128 475.85952,912.97248 475.39872,912.20448 C475.16832,911.81088 474.94752,911.40768 474.73632,911.01408 L474.70752,910.96608 Z M421.15872,903.85248 C421.15872,903.85248 428.38752,919.51008 430.26912,928.05408 C430.38432,928.57248 430.89312,928.89888 431.41152,928.78368 C431.92992,928.66848 432.25632,928.15968 432.14112,927.64128 C430.23072,918.96288 422.89632,903.04608 422.89632,903.04608 C422.67552,902.56608 422.10912,902.35488 421.62912,902.57568 C421.13952,902.80608 420.93792,903.37248 421.15872,903.85248 Z M379.93632,881.24448 C390.53472,893.88768 397.32192,909.58368 397.75392,926.20128 C397.76352,926.72928 398.20512,927.15168 398.73312,927.13248 C399.26112,927.12288 399.68352,926.68128 399.67408,926.15328 C399.23232,909.09408 392.28192,892.98528 381.41472,880.01568 C381.06912,879.61248 380.46432,879.55488 380.06112,879.90048 C379.65792,880.23648 379.60032,880.84128 379.93632,881.24448 Z M512.09952,878.28768 C510.25632,881.87808 510.61152,885.51648 511.96512,889.14528 C513.24192,892.56288 515.40192,895.96128 517.27392,899.30208 C519.35712,903.03648 521.11392,906.65568 520.44192,910.11168 C520.00992,912.35808 518.51232,914.47968 515.49792,916.53408 C515.05632,916.83168 514.94112,917.42688 515.23872,917.86848 C515.53632,918.31008 516.13152,918.42528 516.57312,918.12768 C520.14432,915.69888 521.81472,913.12608 522.32352,910.48608 C523.07232,906.61728 521.27712,902.53728 518.94432,898.36128 C517.12992,895.11648 515.00832,891.80448 513.76992,888.47328 C512.60832,885.36288 512.23392,882.24288 513.80832,879.16128 C514.05792,878.69088 513.86592,878.11488 513.39552,877.87488 C512.92512,877.63488 512.34912,877.81728 512.09952,878.28768 Z M404.88672,810.02208 C404.37792,809.57088 403.86912,809.12928 403.35072,808.70688 C399.22272,805.36608 394.32672,803.21568 387.57792,803.10048 C383.00832,802.84128 377.85312,802.63968 372.87072,802.98528 C369.84672,803.20608 366.88992,803.61888 364.23072,804.50208 C358.92192,806.23968 351.09792,811.02048 344.50272,816.83808 C343.96512,817.31808 343.43712,817.79808 342.91872,818.27808 C344.11872,817.35648 345.32832,816.47328 346.55712,815.64768 C346.99872,815.35008 347.59392,815.46528 347.89152,815.90688 C348.18912,816.33888 348.07392,816.94368 347.63232,817.24128 C343.10112,820.30368 338.74272,824.04768 334.80672,827.95488 C333.76992,829.88448 333.15552,831.82368 333.13632,833.73408 C333.13632,833.95488 333.13632,834.17568 333.14592,834.39648 C336.95712,830.49888 340.83552,826.43808 345.17472,823.25088 C345.60672,822.93408 346.20192,823.03008 346.51872,823.45248 C346.83552,823.88448 346.73952,824.48928 346.30752,824.79648 C341.63232,828.22368 337.51392,832.70688 333.42432,836.84448 C333.68352,838.15008 334.09632,839.37888 334.60512,840.55968 C336.33312,844.53408 339.04032,848.09568 341.49792,852.01248 C342.63072,853.80768 342.66912,855.98688 341.77632,857.75328 C342.10272,858.30048 342.42912,858.83808 342.75552,859.38528 C347.22912,856.24608 351.33792,854.09568 353.85312,853.62528 C361.42752,852.29088 370.27872,853.04928 379.60992,855.81408 C395.54592,860.52768 413.09472,870.84768 427.81152,883.85568 L416.25312,874.60128 C417.42432,873.26688 418.60512,871.93248 419.86272,870.65568 C420.23712,870.28128 420.84192,870.27168 421.21632,870.64608 C421.60032,871.02048 421.60032,871.62528 421.22592,872.00928 C420.03552,873.21888 418.91232,874.47648 417.79872,875.74368 L417.88512,875.80128 C417.91392,875.83008 417.95232,875.84928 417.98112,875.87808 L418.00992,875.89728 C418.04832,875.84928 418.08672,875.80128 418.12512,875.76288 C418.48032,875.36928 419.09472,875.33088 419.48832,875.68608 C419.88192,876.04128 419.91072,876.65568 419.55552,877.04928 L419.54592,877.05888 C420.15072,877.51968 420.75552,877.99008 421.35072,878.46048 C422.01312,877.68288 422.64672,876.87648 423.23232,876.05088 C423.53952,875.61888 424.14432,875.51328 424.57632,875.82048 C425.00832,876.11808 425.11392,876.72288 424.80672,877.15488 C424.19232,878.01888 423.52992,878.84448 422.84832,879.66048 L422.88672,879.68928 C423.12672,879.88128 423.35712,880.07328 423.59712,880.27488 L423.63552,880.30368 C425.40192,878.50848 427.14912,876.70368 428.81952,874.82208 C429.17472,874.42848 429.77952,874.39008 430.17312,874.74528 C430.57632,875.09088 430.60512,875.70528 430.25952,876.09888 C428.59872,877.96128 426.86112,879.74688 425.11392,881.53248 C425.47872,881.83968 425.83392,882.13728 426.18912,882.44448 C427.50432,881.09088 428.80992,879.73728 430.07712,878.33568 C430.43232,877.94208 431.03712,877.91328 431.43072,878.26848 C431.82432,878.62368 431.85312,879.22848 431.49792,879.62208 C430.24992,881.01408 428.95392,882.36768 427.63872,883.71168 L427.72512,883.77888 C427.77312,883.82688 427.83072,883.87488 427.87872,883.92288 C430.20192,881.57088 432.50592,879.19968 434.90592,876.92448 C435.28992,876.55968 435.89472,876.57888 436.25952,876.96288 C436.62432,877.34688 436.61472,877.95168 436.23072,878.31648 C433.86912,880.55328 431.59392,882.88608 429.30912,885.19968 L429.32832,885.21888 C429.85632,885.69888 430.38432,886.18848 430.90272,886.66848 L430.92192,886.68768 C434.15712,883.31808 437.42112,879.96768 440.79072,876.68448 C441.16512,876.31008 441.76992,876.31968 442.14432,876.70368 C442.50912,877.07808 442.50912,877.69248 442.12512,878.05728 C438.77472,881.33088 435.52992,884.65248 432.31392,888.01248 C432.81312,888.49248 433.31232,888.98208 433.80192,889.47168 C436.85472,885.86208 440.08032,882.39648 443.28672,878.92128 C443.64192,878.53728 444.24672,878.50848 444.64032,878.86368 C445.03392,879.22848 445.05312,879.83328 444.69792,880.22688 C441.47232,883.72128 438.22752,887.20608 435.15552,890.83488 L435.19392,890.86368 C435.66432,891.34368 436.12512,891.83328 436.59552,892.31328 L436.64352,892.37088 C439.73472,888.78048 442.95072,885.25728 446.16672,881.80128 C446.53152,881.41728 447.13632,881.39808 447.52032,881.75328 C447.91392,882.11808 447.93312,882.72288 447.56832,883.10688 C444.32352,886.60128 441.08832,890.15328 437.96832,893.78208 C438.32352,894.16608 438.66912,894.55008 439.01472,894.93408 C441.95232,891.53568 444.93792,888.15648 448.03872,884.94048 C448.40352,884.56608 449.00832,884.55648 449.39232,884.92128 C449.77632,885.28608 449.78592,885.89088 449.42112,886.27488 C446.29152,889.52928 443.26752,892.94688 440.31072,896.38368 L440.32992,896.41248 C440.71392,896.84448 441.07872,897.27648 441.45312,897.70848 L441.47232,897.73728 C444.50592,894.54048 447.48192,891.27648 450.43872,888.02208 C450.79392,887.62848 451.39872,887.59968 451.79232,887.95488 C452.18592,888.31008 452.21472,888.91488 451.85952,889.30848 C448.84512,892.63008 445.81152,895.96128 442.71072,899.21568 C442.99872,899.56128 443.28672,899.91648 443.57472,900.27168 C447.23232,896.25888 450.77472,892.11168 454.51872,888.19488 C454.88352,887.81088 455.48832,887.80128 455.87232,888.16608 C456.25632,888.53088 456.26592,889.14528 455.90112,889.51968 C452.09952,893.50368 448.50912,897.72768 444.77472,901.78848 L444.83232,901.85568 C445.22592,902.37408 445.61952,902.88288 446.01312,903.40128 L446.04192,903.43968 C450.60192,897.96768 455.34432,892.65888 460.13472,887.37888 C460.48992,886.98528 461.09472,886.95648 461.48832,887.31168 C461.88192,887.66688 461.91072,888.27168 461.55552,888.66528 C456.67872,894.04128 451.84992,899.45568 447.21312,905.02368 C447.52032,905.45568 447.82752,905.88768 448.13472,906.31968 C452.17632,901.75008 456.11232,897.18048 460.01952,892.46688 C460.35552,892.05408 460.96992,891.99648 461.37312,892.33248 C461.77632,892.67808 461.83392,893.28288 461.49792,893.68608 C457.47552,898.54368 453.42432,903.24768 449.25792,907.94208 C449.41152,908.17248 449.55552,908.39328 449.70912,908.62368 C454.48032,903.06528 459.52032,897.61248 464.71392,892.53408 C465.09792,892.15968 465.70272,892.16928 466.06752,892.55328 C466.44192,892.92768 466.43232,893.53248 466.05792,893.90688 C460.76832,899.08128 455.65152,904.63968 450.79392,910.30368 L450.83232,910.35168 C451.15872,910.87008 451.48512,911.39808 451.81152,911.92608 L451.84032,911.98368 C456.02592,907.34688 460.33632,902.79648 464.75232,898.39968 C465.12672,898.02528 465.73152,898.02528 466.10592,898.39968 C466.48032,898.78368 466.48032,899.38848 466.10592,899.76288 C461.57472,904.26528 457.14912,908.95008 452.86752,913.71168 L452.87712,913.73088 C453.05952,914.03808 453.23232,914.35488 453.40512,914.66208 L453.42432,914.70048 C455.66112,912.82848 457.81152,910.85088 460.09632,909.04608 C460.50912,908.71008 461.11392,908.78688 461.44032,909.19968 C461.77632,909.61248 461.69952,910.21728 461.28672,910.54368 C459.74112,911.77248 458.25312,913.06848 456.75552,914.36448 C458.20512,913.58688 459.62592,912.78048 460.99872,911.89728 C463.26432,910.42848 465.38592,908.79648 466.95072,906.61728 C469.01472,903.72768 470.11872,900.61728 470.45472,897.36288 L470.44512,897.36288 C470.33952,896.37408 470.26272,895.37568 470.23392,894.37728 C470.19552,893.35968 470.20512,892.33248 470.24352,891.30528 L470.24352,891.26688 C469.36992,885.66048 466.72992,879.78528 463.23552,873.96768 C456.42912,862.64928 446.28192,851.52288 437.24832,842.66208 C432.36192,837.87168 427.74432,833.80128 424.26912,830.54688 C423.02112,829.48128 421.83072,828.37728 420.69792,827.23488 C419.50752,826.80288 418.48992,825.90048 417.95232,824.65248 C417.87552,824.48928 417.81792,824.32608 417.76992,824.15328 L417.52992,824.00928 C412.59552,820.86048 408.92832,814.69728 404.88672,810.02208 Z M345.52032,906.89568 C345.36672,908.67168 345.27072,910.42848 345.29952,912.21408 C345.30912,912.74208 345.75072,913.16448 346.27872,913.15488 C346.80672,913.14528 347.22912,912.71328 347.21952,912.17568 C347.19072,910.45728 347.28672,908.76768 347.44032,907.05888 C347.47872,906.53088 347.08512,906.06048 346.55712,906.01248 C346.02912,905.97408 345.56832,906.36768 345.52032,906.89568 Z M399.12672,893.15808 C400.94112,896.61408 402.42912,900.17568 403.62912,903.89088 C403.79232,904.39008 404.32992,904.66848 404.83872,904.50528 C405.33792,904.34208 405.61632,903.80448 405.45312,903.29568 C404.21472,899.48448 402.69792,895.81728 400.83552,892.26528 C400.58592,891.79488 400.00032,891.61248 399.53952,891.86208 C399.06912,892.10208 398.88672,892.68768 399.12672,893.15808 Z M533.76672,831.77568 C531.93312,831.28608 530.47392,831.33408 529.33152,831.91968 C527.17152,833.03328 526.28832,835.80768 525.85632,839.18688 C524.96352,846.19488 526.48992,855.74688 527.84352,862.51488 C535.49472,867.38208 541.46592,874.49568 544.56672,881.79168 C545.62272,882.27168 546.53472,882.98208 547.26432,883.85568 C552.79392,880.69728 559.53312,879.24768 565.41792,876.73248 C562.24992,867.72768 558.42912,859.27968 556.54752,850.44768 C556.16352,848.62368 555.85632,846.79008 555.63552,844.93728 C554.68512,844.06368 553.67712,843.19968 552.63072,842.36448 C546.78432,837.69888 539.77632,833.72448 533.76672,831.77568 Z M465.72192,794.45088 C464.60832,796.86048 463.13952,799.16448 461.40192,801.38208 C453.96192,810.84768 441.17472,818.51808 431.04672,823.75008 C430.84512,824.98848 429.87552,826.00608 428.57952,826.22688 C428.29152,826.28448 427.99392,826.33248 427.71552,826.37088 C427.79232,826.45728 427.87872,826.55328 427.96512,826.63968 C431.92992,830.39328 437.24832,835.36608 443.04672,840.95328 C454.09632,851.59968 466.56672,864.67488 473.34432,877.75968 C474.05472,876.36768 474.89952,875.03328 475.84032,873.75648 C478.39392,870.25248 481.73472,867.21888 484.86432,864.55008 C487.50432,862.38048 490.23072,860.66208 492.98592,859.36608 C492.33312,859.25088 491.68032,859.08768 491.03712,858.87648 C487.33152,857.67648 484.82592,855.78528 483.03072,853.41408 C481.41792,851.29248 480.34272,848.80608 479.52672,846.10848 C478.66272,843.29568 478.08672,840.22368 476.71392,837.43008 C474.50592,832.96608 471.49152,828.89568 469.21632,824.47008 C468.11232,822.33888 467.15232,820.13088 466.49952,817.78848 C465.04032,812.62368 464.68512,803.51328 465.72192,794.45088 Z M537.17472,843.12288 C540.24672,851.86848 546.01632,859.80768 554.47392,864.00288 C554.94432,864.24288 555.52032,864.05088 555.76032,863.57088 C555.99072,863.10048 555.79872,862.52448 555.32832,862.28448 C547.32192,858.31008 541.89792,850.76448 538.98912,842.48928 C538.80672,841.99008 538.25952,841.72128 537.76032,841.90368 C537.26112,842.07648 537.00192,842.62368 537.17472,843.12288 Z M544.79712,841.85568 C545.73792,849.01728 550.35552,856.45728 555.08832,861.76608 C555.43392,862.15968 556.04832,862.19808 556.44192,861.84288 C556.83552,861.49728 556.87392,860.88288 556.51872,860.48928 C552.02592,855.44928 547.60032,848.40288 546.69792,841.60608 C546.63072,841.07808 546.15072,840.70368 545.62272,840.77088 C545.09472,840.84768 544.72992,841.32768 544.79712,841.85568 Z M521.89152,847.51008 C518.23392,850.11168 513.34752,853.69248 508.24992,856.24608 C513.56832,856.42848 518.75232,857.82048 523.49472,860.10528 C522.80352,856.21728 522.16032,851.78208 521.89152,847.51008 Z M497.43072,768.58848 C491.99712,772.83168 484.43232,775.03968 478.06752,774.09888 C475.46592,777.30528 473.90112,782.78688 472.95072,788.73888 C471.36672,798.61728 471.77952,809.90688 473.65152,815.60928 C474.24672,817.42368 475.09152,819.12288 476.03232,820.76448 C478.52832,825.13248 481.74432,829.11648 484.17312,833.53248 C486.51552,837.75648 487.18752,842.66208 489.34752,846.43488 C490.22112,847.97088 491.54592,849.13248 493.77312,849.74688 C496.40352,850.46688 499.26432,849.36288 502.10592,847.95168 C507.52032,845.27328 512.67552,840.79968 516.25632,838.01568 L516.45792,837.88128 C522.26592,831.40128 525.37632,824.78688 525.95232,817.75968 C526.70112,808.71648 523.33152,799.13568 516.76512,788.56608 C515.99712,787.34688 515.18112,786.08928 514.31712,784.82208 C510.65952,781.18368 506.83872,777.63168 504.40032,773.07168 C502.23072,771.17088 499.89792,769.60608 497.43072,768.58848 Z M340.41312,847.57728 C344.09952,841.65408 348.58272,836.89248 353.96832,832.45728 C354.37152,832.12128 354.42912,831.51648 354.09312,831.11328 C353.75712,830.70048 353.15232,830.64288 352.74912,830.97888 C347.20032,835.53888 342.58272,840.46368 338.78112,846.56928 C338.50272,847.01088 338.63712,847.60608 339.08832,847.88448 C339.53952,848.16288 340.12512,848.02848 340.41312,847.57728 Z M337.35072,842.19168 C340.90272,838.15968 344.40672,833.97408 348.57312,830.53728 C348.98592,830.20128 349.04352,829.59648 348.70752,829.18368 C348.37152,828.78048 347.75712,828.72288 347.35392,829.05888 C343.11072,832.55328 339.52992,836.81568 335.91072,840.92448 C335.56512,841.32768 335.60352,841.93248 335.99712,842.28768 C336.40032,842.63328 337.00512,842.59488 337.35072,842.19168 Z M504.14112,803.71488 C506.55072,813.51648 508.99872,825.26688 503.79552,834.60768 C503.53632,835.06848 503.70912,835.65408 504.16992,835.91328 C504.63072,836.17248 505.21632,836.00928 505.47552,835.53888 C510.90912,825.77568 508.52832,813.49728 506.01312,803.25408 C505.87872,802.74528 505.36032,802.42848 504.85152,802.55328 C504.33312,802.67808 504.01632,803.19648 504.14112,803.71488 Z M531.21312,818.98848 C530.98272,821.65728 530.43552,824.29728 529.57152,826.89888 C529.72512,826.88928 529.88832,826.88928 530.04192,826.91808 C531.49152,827.14848 533.05632,827.53248 534.67872,828.05088 C535.18752,828.17568 535.71552,828.33888 536.25312,828.53088 C536.40672,828.58848 536.54112,828.65568 536.66592,828.74208 C538.88352,829.56768 541.18752,830.61408 543.51072,831.83328 C540.17952,828.46368 537.39552,824.53728 535.38912,820.30368 C535.41792,821.19648 534.83232,822.02208 533.92992,822.24288 C532.90272,822.50208 531.85632,821.87808 531.60672,820.85088 C531.45312,820.22688 531.31872,819.60288 531.21312,818.98848 Z M489.01152,778.77408 C486.27552,787.71168 487.22592,794.97888 489.17472,802.15968 C491.07552,809.12928 493.95552,816.01248 495.16512,824.34528 C495.24192,824.87328 495.73152,825.23808 496.24992,825.16128 C496.77792,825.08448 497.14272,824.59488 497.06592,824.07648 C495.83712,815.65728 492.94752,808.69728 491.02752,801.65088 C489.16512,794.80608 488.23392,787.86528 490.84512,779.34048 C490.99872,778.83168 490.71072,778.29408 490.20192,778.14048 C489.70272,777.98688 489.16512,778.27488 489.01152,778.77408 Z M420.65952,741.94848 C418.44192,739.98048 416.15712,738.05088 413.87232,736.28448 C410.82912,733.93248 407.84352,731.89728 405.07872,730.72608 C403.66752,730.13088 402.42912,729.62208 401.34432,730.00608 C399.65472,730.60128 398.42592,731.95488 397.34112,733.46208 C394.94112,736.82208 393.32832,741.06528 391.73472,744.26208 C387.72192,752.23008 384.81312,760.75488 384.784205,769.06848 C384.76512,776.67168 387.14592,784.08288 393.37632,790.60128 C393.56832,790.39968 393.76032,790.20768 393.95232,790.00608 C394.31712,789.62208 394.92192,789.60288 395.30592,789.96768 C395.58432,790.23648 395.67072,790.63968 395.54592,790.98528 L395.59392,790.92768 C395.94912,790.53408 396.56352,790.50528 396.95712,790.86048 C397.35072,791.21568 397.37952,791.82048 397.02432,792.21408 C396.73632,792.53088 396.44832,792.85728 396.16032,793.17408 C396.42912,793.39488 396.70752,793.61568 396.99552,793.83648 C397.77312,792.98208 398.52192,792.11808 399.25152,791.22528 C399.58752,790.81248 400.19232,790.75488 400.59552,791.09088 C401.00832,791.42688 401.07552,792.03168 400.73952,792.44448 C400.07712,793.24128 399.40512,794.02848 398.70432,794.80608 C399.12672,794.98848 399.54912,795.19008 399.95232,795.39168 C400.53792,794.70048 401.12352,793.99968 401.68032,793.27968 C401.99712,792.85728 402.60192,792.78048 403.02432,793.09728 C403.43712,793.42368 403.52352,794.02848 403.19712,794.44128 C402.70752,795.08448 402.19872,795.69888 401.68992,796.31328 C402.05472,796.52448 402.40992,796.74528 402.76512,796.96608 C403.55232,796.00608 404.33952,795.05568 405.08832,794.06688 C405.41472,793.64448 406.00992,793.55808 406.43232,793.87488 C406.85472,794.20128 406.94112,794.80608 406.62432,795.22848 C405.89472,796.18848 405.12672,797.11968 404.36832,798.04128 C404.54112,798.17568 404.72352,798.31008 404.90592,798.44448 C405.11712,798.60768 405.32832,798.77088 405.53952,798.93408 C406.96032,797.26368 408.40992,795.60288 409.87872,793.95168 C410.23392,793.55808 410.83872,793.52928 411.23232,793.87488 C411.62592,794.23008 411.66432,794.83488 411.30912,795.23808 C409.84992,796.86048 408.41952,798.51168 407.00832,800.17248 C407.50752,800.61408 407.98752,801.06528 408.45792,801.52608 C410.54112,799.11648 412.62432,796.70688 414.64032,794.23008 C414.97632,793.81728 415.58112,793.75968 415.98432,794.09568 C416.39712,794.43168 416.45472,795.03648 416.12832,795.44928 C414.06432,797.97408 411.93312,800.45088 409.79232,802.90848 C410.05152,803.18688 410.30112,803.46528 410.55072,803.74368 C412.43232,801.59328 414.31392,799.43328 416.12832,797.22528 C416.46432,796.81248 417.06912,796.75488 417.48192,797.09088 C417.88512,797.42688 417.95232,798.03168 417.61632,798.43488 C415.72512,800.73888 413.76672,802.97568 411.81792,805.22208 C412.06752,805.52928 412.31712,805.83648 412.55712,806.14368 C414.78432,803.82048 416.89632,801.38208 418.87392,798.84768 C419.20032,798.43488 419.80512,798.35808 420.22752,798.68448 C420.64032,799.01088 420.71712,799.61568 420.39072,800.02848 C418.30752,802.68768 416.08992,805.25088 413.74752,807.67968 C413.91072,807.90048 414.07392,808.12128 414.23712,808.34208 C416.52192,805.90368 418.71072,803.38848 420.88032,800.84448 C421.22592,800.44128 421.83072,800.39328 422.23392,800.73888 C422.63712,801.08448 422.68512,801.68928 422.33952,802.09248 C420.06432,804.75168 417.77952,807.38208 415.38912,809.92608 C415.79232,810.49248 416.19552,811.06848 416.59872,811.64448 C418.97952,808.62048 421.31232,805.57728 423.83712,802.66848 C424.18272,802.27488 424.79712,802.22688 425.19072,802.57248 C425.59392,802.92768 425.63232,803.53248 425.28672,803.92608 C422.65632,806.95968 420.22752,810.14688 417.75072,813.29568 C418.00032,813.66048 418.24992,814.02528 418.49952,814.39008 C421.02432,811.12608 423.75072,808.03488 426.33312,804.79968 C426.65952,804.38688 427.26432,804.31968 427.67712,804.64608 C428.09952,804.98208 428.16672,805.58688 427.83072,805.99968 C425.13312,809.38848 422.26272,812.60448 419.65152,816.05088 C419.92032,816.43488 420.18912,816.82848 420.46752,817.21248 C423.61632,812.95968 427.27392,809.06208 430.83552,805.15488 C431.19072,804.76128 431.79552,804.73248 432.18912,805.08768 C432.58272,805.44288 432.61152,806.05728 432.25632,806.44128 C428.99232,810.03168 425.64192,813.60288 422.68512,817.45248 C423.10752,817.28928 423.52992,817.12608 423.97152,816.95328 C426.64032,814.15968 429.43392,811.47168 432.01632,808.58208 C432.36192,808.18848 432.97632,808.15968 433.36992,808.50528 C433.76352,808.86048 433.79232,809.47488 433.44672,809.86848 C431.82432,811.67328 430.12512,813.40128 428.42592,815.12928 C437.95872,811.12608 449.61312,805.37568 456.41952,797.32128 C459.28992,793.92288 461.22912,790.09248 461.55552,785.92608 C461.84352,782.23008 460.73952,778.30368 458.12832,774.10848 C456.19872,771.08448 453.53952,768.63648 450.67872,766.38048 C446.52192,763.10688 441.87552,760.30368 437.73792,757.27008 C437.05632,756.84768 436.37472,756.40608 435.66432,755.93568 C432.64992,753.95808 429.10752,751.85568 426.15072,749.23488 C423.78912,747.14208 421.95552,744.64608 420.65952,741.94848 Z M530.60832,808.24608 C530.82912,809.36928 531.00192,810.48288 531.11712,811.59648 C531.26112,810.53088 531.47232,809.47488 531.72192,808.41888 C531.36672,808.42848 530.99232,808.37088 530.60832,808.24608 Z M343.20672,802.62048 C340.25952,802.79328 337.31232,802.85088 334.41312,802.74528 C334.96992,803.93568 335.24832,805.26048 335.17152,806.77728 C335.14272,807.65088 335.04672,808.53408 334.90272,809.41728 C337.51392,806.97888 340.33632,804.69408 343.20672,802.62048 Z M382.79712,738.71328 C382.84512,738.43488 382.88352,738.16608 382.92192,737.89728 C383.85312,731.46528 383.59392,725.80128 380.99232,721.30848 C377.38272,715.10688 369.43392,711.57408 355.47552,710.55648 C350.04192,710.19168 344.09952,708.58848 338.38752,708.22368 C336.31392,708.08928 334.26912,708.14688 332.32032,708.57888 C317.83392,711.69888 309.22272,726.62688 305.92032,742.74528 C304.68192,748.75488 304.17312,755.00448 304.49952,760.99488 C304.60512,761.98368 304.68192,762.99168 304.73952,763.99968 C305.68032,773.11968 308.66592,781.42368 314.08032,787.09728 C317.01792,790.20768 320.87712,792.16608 325.21632,793.37568 C326.27232,791.68608 327.35712,790.00608 328.48992,788.34528 C328.78752,787.91328 329.38272,787.79808 329.82432,788.09568 C330.25632,788.39328 330.37152,788.98848 330.07392,789.43008 C329.07552,790.88928 328.11552,792.37728 327.17472,793.86528 C327.73152,793.99008 328.28832,794.10528 328.84512,794.21088 C331.54272,790.61088 334.31712,787.05888 336.82272,783.33408 C336.46752,783.42048 336.07392,783.29568 335.83392,782.98848 C331.32192,777.11328 331.45632,768.74208 333.30912,759.64128 C335.95872,746.52768 342.12192,731.84928 341.50752,721.36608 C341.47872,720.83808 341.88192,720.37728 342.40992,720.34848 C342.93792,720.31968 343.38912,720.72288 343.41792,721.25088 C344.04192,731.86848 337.87872,746.73888 335.19072,760.02528 C333.46272,768.51168 333.14592,776.33568 337.36032,781.81728 C337.45632,781.94208 337.52352,782.08608 337.54272,782.23008 C337.58112,782.18208 337.60992,782.14368 337.63872,782.09568 C337.92672,781.64448 338.52192,781.51968 338.96352,781.80768 C339.41472,782.09568 339.53952,782.69088 339.25152,783.13248 C336.69792,787.07808 333.80832,790.79328 330.98592,794.55648 C331.63872,794.64288 332.29152,794.72928 332.95392,794.79648 C332.98272,794.79648 333.02112,794.80608 333.04992,794.80608 C336.12192,790.71648 338.91552,786.41568 341.87232,782.23968 C342.17952,781.80768 342.78432,781.70208 343.21632,782.00928 C343.64832,782.31648 343.75392,782.92128 343.44672,783.35328 C340.70112,787.22208 338.09952,791.18688 335.29632,795.00768 C335.99712,795.05568 336.70752,795.09408 337.41792,795.12288 C340.52832,790.94688 343.52352,786.68448 346.62432,782.49888 C346.94112,782.06688 347.53632,781.98048 347.96832,782.29728 C348.39072,782.61408 348.47712,783.20928 348.16992,783.64128 C345.32832,787.46208 342.58272,791.35968 339.76032,795.19968 C340.74912,795.20928 341.73792,795.20928 342.72672,795.19968 C344.36832,793.04928 345.97152,790.85088 347.52672,788.64288 C347.83392,788.20128 348.42912,788.10528 348.86112,788.40288 C349.30272,788.71008 349.39872,789.31488 349.10112,789.74688 C347.82432,791.55168 346.51872,793.36608 345.18432,795.14208 C345.37632,795.13248 345.57792,795.12288 345.76992,795.12288 C347.53632,793.10688 349.23552,791.00448 350.70432,788.79648 C351.00192,788.35488 351.59712,788.23008 352.03872,788.51808 C352.48032,788.81568 352.59552,789.41088 352.30752,789.85248 C352.13472,790.10208 351.97152,790.36128 351.78912,790.61088 C352.21152,790.05408 352.63392,789.48768 353.04672,788.92128 C353.36352,788.48928 353.95872,788.39328 354.39072,788.71008 C354.81312,789.01728 354.90912,789.62208 354.60192,790.04448 C353.42112,791.67648 352.19232,793.27008 350.91552,794.81568 C351.43392,794.77728 351.95232,794.73888 352.47072,794.69088 C353.75712,792.96288 354.97632,791.18688 356.19552,789.42048 C356.50272,788.98848 357.09792,788.88288 357.52992,789.18048 C357.97152,789.48768 358.07712,790.08288 357.77952,790.51488 C356.86752,791.83008 355.95552,793.16448 355.01472,794.46048 C355.60992,794.40288 356.21472,794.34528 356.80032,794.28768 C358.44192,791.64768 360.16992,789.06528 361.89792,786.49248 C362.19552,786.05088 362.80032,785.93568 363.23232,786.23328 C363.67392,786.53088 363.78912,787.12608 363.49152,787.56768 C362.15712,789.54528 360.83232,791.53248 359.54592,793.53888 C359.88192,793.41408 360.21792,793.30848 360.54432,793.20288 C361.41792,792.92448 362.31072,792.67488 363.22272,792.45408 C364.79712,790.22688 366.37152,787.99008 367.89792,785.73408 C368.19552,785.29248 368.79072,785.17728 369.23232,785.47488 C369.67392,785.77248 369.78912,786.36768 369.49152,786.80928 C368.32992,788.51808 367.14912,790.20768 365.96832,791.89728 C366.98592,791.72448 368.02272,791.59008 369.07872,791.47488 C369.55872,790.61088 369.95232,789.68928 370.27872,788.71968 C372.67872,781.64448 372.21792,772.71648 374.94432,765.35328 C375.10752,764.91168 375.27072,764.47968 375.42432,764.03808 C376.05792,755.88768 378.69792,747.58368 382.33632,739.72128 C382.48992,739.39488 382.64352,739.05888 382.79712,738.71328 Z M535.16832,794.52768 C544.36512,774.55968 551.87232,754.14048 558.93792,733.30848 C559.10112,732.80928 558.83232,732.26208 558.33312,732.09888 C557.83392,731.92608 557.28672,732.19488 557.11392,732.69408 C550.07712,753.45888 542.58912,773.82048 533.42112,793.72128 C533.20032,794.20128 533.41152,794.77728 533.89152,794.99808 C534.38112,795.21888 534.94752,795.00768 535.16832,794.52768 Z M378.64992,784.21728 C378.25632,786.64608 377.77632,789.01728 377.04672,791.21568 C379.04352,791.26368 381.03072,791.37888 382.97952,791.52288 C381.20352,789.17088 379.77312,786.72288 378.64992,784.21728 Z M406.00992,738.54048 C398.93472,754.79328 395.03712,776.63328 410.46432,789.53568 C410.86752,789.87168 411.47232,789.81408 411.81792,789.41088 C412.15392,789.00768 412.10592,788.40288 411.69312,788.05728 C404.38752,781.95168 401.71872,773.71488 401.68992,765.08448 C401.67072,756.31008 404.35872,747.13248 407.76672,739.30848 C407.97792,738.81888 407.75712,738.25248 407.27712,738.04128 C406.78752,737.83008 406.22112,738.05088 406.00992,738.54048 Z M430.58592,773.11008 C429.89472,776.92128 427.73472,780.25248 425.31552,783.20928 C424.97952,783.62208 425.04672,784.22688 425.44992,784.56288 C425.86272,784.89888 426.46752,784.83168 426.80352,784.42848 C429.42432,781.22208 431.71872,777.59328 432.47712,773.45568 C432.57312,772.93728 432.22752,772.43808 431.70912,772.34208 C431.18112,772.24608 430.68192,772.59168 430.58592,773.11008 Z M463.93632,755.22528 C461.62272,758.34528 459.25152,760.27488 456.86112,761.35968 C457.28352,761.75328 457.69632,762.15648 458.09952,762.55968 C460.48032,764.95968 462.61152,767.55168 464.23392,770.49888 C466.61472,774.73248 467.77632,778.74528 468.02592,782.51808 C469.15872,778.56288 470.63712,775.02048 472.43232,772.30368 C468.30432,770.14368 465.24192,766.16928 464.46432,759.91008 C464.23392,758.33568 464.06112,756.77088 463.93632,755.22528 Z M501.44352,764.53728 C501.35712,764.64288 501.27072,764.75808 501.18432,764.87328 C501.30912,764.93088 501.43392,764.99808 501.55872,765.06528 C501.52032,764.89248 501.48192,764.71008 501.44352,764.53728 Z M349.74432,753.06528 C349.58112,755.83008 349.18752,758.53728 348.70752,761.27328 C348.62112,761.79168 348.96672,762.29088 349.48512,762.37728 C350.01312,762.47328 350.50272,762.12768 350.59872,761.59968 C351.08832,758.79648 351.49152,756.02208 351.66432,753.18048 C351.69312,752.65248 351.28992,752.19168 350.76192,752.16288 C350.23392,752.13408 349.77312,752.53728 349.74432,753.06528 Z M547.56192,714.99168 C541.68672,730.94688 529.26432,743.05248 521.87232,758.25888 C521.64192,758.73888 521.84352,759.31488 522.32352,759.54528 C522.79392,759.77568 523.36992,759.57408 523.60032,759.09408 C531.02112,743.83968 543.47232,731.67648 549.35712,715.65408 C549.53952,715.15488 549.28992,714.60768 548.79072,714.42528 C548.29152,714.24288 547.74432,714.49248 547.56192,714.99168 Z M537.32832,745.27968 C536.10912,747.82368 534.83232,750.35808 533.77632,752.97888 C533.57472,753.46848 533.81472,754.02528 534.30432,754.22688 C534.79392,754.42848 535.35072,754.18848 535.55232,753.69888 C536.59872,751.11648 537.85632,748.62048 539.05632,746.10528 C539.28672,745.62528 539.08512,745.04928 538.60512,744.81888 C538.12512,744.59808 537.55872,744.79968 537.32832,745.27968 Z M273.93312,706.29408 C279.56832,712.10208 285.67392,716.99808 290.52192,723.59328 C290.82912,724.02528 291.43392,724.11168 291.85632,723.80448 C292.28832,723.48768 292.38432,722.89248 292.06752,722.46048 C287.17152,715.78848 281.00832,710.83488 275.30592,704.95968 C274.94112,704.57568 274.32672,704.56608 273.95232,704.93088 C273.56832,705.30528 273.55872,705.91008 273.93312,706.29408 Z M254.94432,693.81408 C259.96512,706.72608 272.63712,714.57888 283.03392,722.64288 C283.45632,722.96928 284.06112,722.89248 284.37792,722.47968 C284.70432,722.05728 284.62752,721.45248 284.21472,721.12608 C274.07712,713.26368 261.62592,705.69888 256.73952,693.12288 C256.54752,692.62368 255.99072,692.38368 255.49152,692.57568 C255.00192,692.76768 254.75232,693.32448 254.94432,693.81408 Z M249.08832,468.52128 C242.87712,483.13248 227.95776,506.82528 219.06816,527.76288 C214.43136,538.64928 211.50336,548.86368 211.80096,556.87008 C212.23296,568.55328 214.81536,582.51168 219.87456,592.87968 C222.78336,598.83168 226.62336,603.56448 231.09696,606.53088 C239.92032,612.40608 252.11232,612.10848 268.01952,597.20928 C270.59232,594.61728 270.57312,590.43168 267.98112,587.86848 C265.38912,585.29568 261.19392,585.31488 258.63072,587.90688 C249.38592,597.95808 242.49312,600.79008 236.76096,597.44928 C232.51776,594.97248 229.34976,589.99008 226.83456,584.15328 C223.18656,575.64768 221.07456,565.28928 220.36416,556.37088 C219.80736,549.33408 222.23616,540.27168 225.93216,530.51808 C233.94816,509.29248 247.88832,485.10048 253.49472,470.29728 C253.98432,469.07808 253.39872,467.69568 252.17952,467.20608 C250.96032,466.71648 249.57792,467.31168 249.08832,468.52128 Z M226.15296,573.31488 C227.39136,578.17248 230.87616,588.72288 236.15616,593.92608 C238.04832,595.79808 240.18912,596.99808 242.50272,597.14208 C244.81632,597.28608 247.35072,596.39328 250.04832,593.92608 C250.44192,593.57088 250.47072,592.96608 250.11552,592.57248 C249.75072,592.17888 249.14592,592.15008 248.75232,592.50528 C246.54432,594.52128 244.51872,595.33728 242.62752,595.22208 C240.74592,595.10688 239.03712,594.07968 237.50112,592.56288 C232.46016,587.59008 229.19616,577.48128 228.00576,572.84448 C227.88096,572.32608 227.35296,572.01888 226.84416,572.15328 C226.32576,572.27808 226.01856,572.80608 226.15296,573.31488 Z M231.65376,576.05088 C233.27616,581.06208 235.58016,585.34368 239.17152,589.20288 C239.53632,589.59648 240.14112,589.61568 240.52512,589.26048 C240.91872,588.89568 240.93792,588.29088 240.57312,587.90688 C237.18432,584.24928 235.01376,580.19808 233.47776,575.46528 C233.31456,574.95648 232.77696,574.67808 232.27776,574.84128 C231.76896,575.00448 231.49056,575.55168 231.65376,576.05088 Z M225.55776,563.00448 C227.18016,553.70208 231.09696,545.35968 234.87936,536.93088 C238.73952,528.34848 242.46432,519.67008 243.62592,509.83968 C243.69312,509.31168 243.30912,508.83168 242.78112,508.77408 C242.26272,508.70688 241.78272,509.08128 241.71552,509.60928 C240.57312,519.23808 236.90592,527.73408 233.13216,536.15328 C229.28256,544.71648 225.31776,553.21248 223.67616,562.67808 C223.58016,563.19648 223.93536,563.69568 224.45376,563.78208 C224.97216,563.87808 225.47136,563.52288 225.55776,563.00448 Z M241.67712,539.50368 C243.59712,532.46688 246.77472,525.87168 248.80032,518.87328 C248.94432,518.36448 248.65632,517.82688 248.14752,517.68288 C247.63872,517.53888 247.10112,517.82688 246.95712,518.33568 C244.93152,525.34368 241.75392,531.95808 239.82432,539.00448 C239.68032,539.51328 239.97792,540.04128 240.49632,540.18528 C241.00512,540.31968 241.53312,540.02208 241.67712,539.50368 Z" id="Fill-2" fill="#000000"></path>
            <polyline id="Fill-3" fill="#FFC900" points="648.43872 347.10048 856.65312 326.27808 853.77312 150.5952 643.56192 144.8448"></polyline>
            <path d="M261.85248,662.43456 C262.10112,672.59808 266.6592,682.656 274.29024,690.096 C281.92128,697.53696 291.81024,701.10816 302.38944,700.84992 L615.07008,693.20832 C625.65024,692.95008 635.35296,688.89888 642.61152,681.09504 C649.86912,673.29024 653.93088,663.02208 653.6832,652.85952 L640.0848,96.432 C639.83616,86.2656 635.27808,76.2048 627.64704,68.7648 C620.016,61.3248 610.12704,57.7536 599.54784,58.0128 L286.86624,65.6544 C276.28704,65.9136 266.58432,69.9648 259.32576,77.7696 C252.0672,85.5744 248.00544,95.8368 248.25408,106.0032 L261.85248,662.43456 Z" id="Fill-4" fill="#FFFFFF"></path>
            <path d="M258.3264,662.52096 C258.45024,667.60224 259.7808,673.92576 261.864,678.95904 C264.33984,683.98368 267.59808,688.98816 271.60992,692.70432 C275.6208,696.41952 280.80768,700.10592 285.93312,701.25216 C291.08832,703.66848 296.99712,704.79456 302.48256,704.66112 L615.2256,699.56064 C621.10272,699.41664 626.94912,698.00256 632.37312,695.328 C637.79712,692.65344 642.82848,689.98752 647.01408,684.80064 C651.23136,680.88384 654.6336,675.71616 656.8608,670.57728 C659.05632,664.16832 660.0768,657.7872 659.952,652.70592 C658.5552,595.53792 656.2464,485.00448 653.93664,374.47104 C651.23616,263.9472 648.53472,153.4272 647.13792,96.2592 C646.9824,89.904 645.68256,84.8544 643.17696,78.5568 C640.70112,73.536 637.05024,68.5344 632.616,63.5616 C628.21344,59.856 623.02656,56.1696 617.08704,53.7696 C611.5392,51.36 605.23872,50.2464 599.36064,50.3904 L286.71168,59.2992 C280.8336,59.4432 274.9872,60.864 269.56416,63.5328 C264.14016,66.2112 259.13952,70.1472 254.9232,74.064 C251.0976,77.9712 247.69536,83.136 245.49984,89.5488 C243.66432,94.6752 242.6448,101.0592 242.76864,106.1376 L258.71808,662.51136 L258.3264,662.52096 Z M264.98688,662.35776 L253.73952,105.8688 C253.6464,102.0576 254.30592,96.96 256.17216,93.1008 C257.64672,89.2512 260.29632,85.3728 263.3376,81.4848 C266.41056,78.864 270.26592,76.2336 274.15392,74.8608 C278.40192,72.2208 282.71136,72.1152 287.02176,72.0096 L599.73408,65.6352 C604.04352,65.5296 607.96224,65.4336 611.9424,67.8816 C615.89184,69.0528 619.872,71.5008 622.67712,73.968 C625.90464,77.7024 628.31808,80.1888 629.97888,83.9616 C632.06208,88.992 632.93856,92.784 633.03168,96.5952 C634.42848,153.7632 637.12992,264.29184 639.8304,374.81568 C642.92352,485.32992 646.01664,595.84512 647.41344,653.01216 C647.50656,656.82336 646.84704,661.92384 645.37344,665.77344 C643.5072,669.63264 641.24928,673.50144 638.17632,676.1184 C635.13504,680.0064 631.6704,682.63392 627.39168,684.0096 C623.50464,685.37568 619.22496,686.75136 614.91552,686.856 L302.29632,697.03872 C297.59424,697.15392 292.86144,695.99808 288.52032,694.83264 C284.14848,692.39712 280.16736,689.95296 276.57888,687.49824 C273.35136,683.76288 270.51552,680.01888 268.46304,676.25568 C266.77152,671.2128 265.47168,666.15936 265.37856,662.34816 L264.98688,662.35776 Z" id="Fill-5" fill="#000000"></path>
            <path d="M324.5184,683.7552 L606.25344,676.87008 C621.41568,676.49952 633.816,664.1568 633.43392,648.51552 L620.0256,99.8592 C619.67232,85.4208 608.12448,74.8704 594.37248,75.2064 L288.3072,82.6848 C276.31872,82.9824 267.0336,92.8416 267.32736,104.8704 L281.00064,664.35168 C281.26464,675.18048 290.66784,684.58176 301.95168,684.312148 L324.5184,683.7552" id="Fill-6" fill="#FFFFFF"></path>
            <path d="M606.2832,678.07296 L301.98048,685.50912 C295.98624,685.656 290.63808,683.37888 286.67136,679.86432 C282.32256,675.15456 279.73632,670.40256 279.58944,664.38624 L263.44896,104.9664 C263.27232,97.7472 265.94592,91.6608 270.4128,86.736 C274.87872,81.8112 281.16672,79.248 288.21888,79.0752 L594.25536,70.3968 C602.36544,70.1952 609.85824,73.6224 615.29472,79.5072 C620.70144,84.192 624.05088,91.3344 624.25728,99.7536 L635.19648,648.47232 C635.40288,656.8944 632.40576,664.19136 626.88192,669.14208 C621.7392,675.28704 614.39328,677.87424 606.2832,678.07296 Z M301.92192,683.108523 L606.22464,675.66624 C613.2768,675.4944 619.88832,671.72064 624.35424,666.79584 C629.17344,661.8624 631.84704,655.77792 631.6704,648.55872 L615.79392,99.9648 C615.64704,93.9456 613.06176,89.1936 609.44736,85.6704 C605.48064,82.1568 600.13248,79.8816 594.49056,80.010352 L288.39552,86.2944 C283.4592,86.4192 279.28608,88.9248 276.2016,92.6112 C272.73408,95.1072 271.08864,99.9648 271.20576,104.7744 L282.41088,664.31712 C282.528,669.13056 284.76192,673.8912 288.02304,677.42304 C291.63744,680.94624 296.63328,683.232 301.92192,683.108523 Z" id="Fill-7" fill="#000000"></path>
            <polyline id="Fill-8" fill="#FFC900" points="616.57632 141.2832 362.25216 137.1552 386.25216 373.31808 624.28512 358.06368"></polyline>
            <path d="M636.35616,517.12608 C648.57696,554.67168 635.40576,582.77088 598.92576,598.25568 C584.37216,604.43808 567.98496,609.46848 551.96256,608.03808 C551.49216,607.99968 546.57696,607.71168 546.50016,607.25088 C542.87136,586.19808 596.57376,551.24448 608.96736,536.85408 C614.01696,530.98848 621.26496,512.96928 628.09056,509.96448 C631.24896,508.57248 635.88576,515.21568 636.83616,517.27968" id="Fill-9" fill="#FFFFFF"></path>
            <path d="M642.59616,522.35808 C646.67616,539.66688 645.41856,554.82528 639.20736,567.61248 C634.78176,576.73248 627.83136,584.62368 618.38496,591.30528 C613.11456,595.03008 607.10496,598.43808 600.26016,601.37568 C591.35136,605.34048 581.76096,608.84448 571.95936,610.83168 C565.22016,612.20448 558.38496,612.82848 551.57856,612.37728 C551.13696,612.34848 547.33536,612.15648 545.87616,611.82048 C542.98656,611.15808 542.24736,608.86368 542.07456,608.00928 C540.37536,599.77248 545.83776,589.21248 554.93856,578.45088 C563.26176,568.61088 574.40736,558.29088 584.40096,549.49728 C592.52256,542.34528 599.83776,536.31648 603.39936,532.05408 C607.17216,527.60928 612.10656,516.17568 617.23296,509.62848 C619.76736,506.40288 622.50336,504.14688 625.02816,503.01408 C628.27296,501.55488 632.18976,501.93888 635.88576,504.51168 C639.42816,506.97888 642.85536,512.02848 643.81536,514.06368 C645.12096,516.90528 644.54496,520.15008 642.59616,522.35808 Z M628.88736,519.11328 C628.41696,519.76608 627.93696,520.50528 627.41856,521.26368 C622.67616,528.12768 618.04896,537.64128 614.53536,541.65408 C610.51296,546.18528 602.56416,552.81888 593.30016,560.15328 C583.27776,568.09248 571.65216,576.91488 563.02176,585.78528 C556.84896,592.12128 551.86656,598.09248 550.97376,603.52608 L552.35616,603.69888 C559.92096,604.55328 567.61056,603.91008 575.13696,602.30688 C582.88416,600.64608 590.45856,598.01568 597.60096,595.12608 C605.70336,591.70848 612.65376,587.69568 618.30816,582.97248 C624.71136,577.62528 629.43456,571.40448 632.50656,564.49248 C637.63296,552.98208 637.98816,539.48448 633.70656,524.28768 C632.06496,523.55808 630.67296,522.25248 629.86656,520.49568 C629.74176,520.22688 629.34816,519.68928 628.88736,519.11328 Z" id="Fill-10" fill="#000000"></path>
            <path d="M619.25856,554.96928 C608.60256,571.96128 599.45376,571.92288 589.16256,584.11488" id="Stroke-11" stroke="#000000" stroke-width="1.92" stroke-linecap="round" stroke-linejoin="round"></path>
            <path d="M618.65376,542.32608 C616.70496,544.55328 615.16896,547.02048 613.79616,549.63168" id="Stroke-12" stroke="#000000" stroke-width="1.92" stroke-linecap="round" stroke-linejoin="round"></path>
            <path d="M662.64576,515.36928 C664.24896,518.30688 666.15936,521.08128 667.69536,524.06688" id="Stroke-13" stroke="#000000" stroke-width="1.92" stroke-linecap="round" stroke-linejoin="round"></path>
            <path d="M671.56416,497.84928 C679.54176,504.82848 688.06656,513.31488 686.67456,524.80608" id="Stroke-14" stroke="#000000" stroke-width="1.92" stroke-linecap="round" stroke-linejoin="round"></path>
            <path d="M659.50656,621.94944 C666.75456,607.77024 674.10816,593.73504 681.08736,579.48864 C685.72416,570.02304 690.09216,560.41344 694.70976,550.88064 C697.85856,543.99744 701.59296,538.13184 703.85856,531.68064 C705.50976,526.96704 706.48896,521.98368 706.06656,516.21408 C705.83616,513.00768 705.90336,509.00448 705.42336,505.37568 C705.17376,503.48448 704.79936,501.67008 704.19456,500.08608 C702.42816,495.32448 694.68096,484.40928 686.89536,478.91808 C682.17216,475.59648 677.37216,474.30048 673.54176,476.04768 C664.79616,479.88768 657.78816,486.69408 652.92096,494.79648 C648.03456,502.93728 645.336732,512.41248 645.336732,521.59968 C645.30816,531.09504 648.00576,540.05184 653.24736,545.70624 C658.82496,551.73504 667.30176,554.43264 679.10976,550.25664 C681.40416,549.39264 682.56576,546.83904 681.71136,544.54464 C680.84736,542.25024 678.29376,541.08864 675.99936,541.94304 C668.44416,544.92864 662.79936,543.93024 659.04576,540.14784 C654.84096,535.89504 652.87296,528.87744 652.67136,521.50368 C652.47936,513.57408 654.58176,505.29888 658.69056,498.19488 C662.74176,491.19648 668.71296,485.32128 676.17216,481.98048 C677.14176,481.55808 678.22656,481.78848 679.35936,482.22048 C681.37536,482.99808 683.45856,484.55328 685.47456,486.43488 C690.92736,491.52288 695.76576,499.08768 696.90816,502.62048 C697.37856,504.08928 697.51296,505.80768 697.58976,507.57408 C697.71456,510.68448 697.51296,513.91968 697.56096,516.60768 C697.64736,521.05248 696.65856,524.82528 695.18976,528.37824 C692.69376,534.45504 688.77696,539.86944 685.40736,546.32064 C680.67456,555.83424 675.87456,565.28064 671.42016,574.87104 C664.72896,589.26144 658.57536,603.85344 652.07616,618.38784 C651.09696,620.44224 651.96096,622.89984 654.01536,623.87904 C656.06016,624.86784 658.51776,623.99424 659.50656,621.94944 Z" id="Fill-15" fill="#000000"></path>
            <path d="M438.41856,374.19168 C456.39936,349.46208 443.02656,323.26368 436.23936,296.16288 C433.58976,285.58368 432.92736,273.57408 428.50176,263.54208 C424.95936,255.53568 403.24416,229.7184 393.39456,240.49248 C384.41856,250.31328 400.23936,304.74528 398.88576,322.11168 C398.23296,330.40608 394.35456,342.23328 399.50016,349.54848 C402.73536,354.13728 425.16096,377.44608 429.64416,379.35648 C433.37856,380.95008 441.79776,373.27008 444.12096,370.87968" id="Fill-16" fill="#FFFFFF"></path>
            <path d="M439.82976,379.58688 C438.72576,380.46048 437.59296,381.27648 436.48896,381.93888 C433.31136,383.83968 430.15296,384.12768 427.95456,383.32128 C425.78496,382.52448 419.66976,377.71488 413.20896,371.89728 C405.10656,364.60128 396.42816,355.78848 394.40256,353.13888 C392.03136,349.99968 390.86016,346.21728 390.44736,342.11808 C389.76576,335.37888 391.68576,327.58368 392.06016,321.57408 C392.51136,317.39808 391.82016,310.87008 390.98496,303.30528 C389.35296,288.40608 386.96256,269.95488 387.02016,256.66848 C387.05856,248.04768 388.34496,241.43328 391.25376,238.5408 C395.58336,234.096 401.37216,234.4512 407.45856,237.84 C417.40416,243.38208 428.29056,256.98528 430.74816,262.55328 C432.19776,265.70208 433.26336,269.05248 434.16576,272.48928 C436.15296,280.06368 437.22816,288.08928 439.22496,295.42368 C443.81376,311.76288 450.64896,327.71808 451.82976,343.38528 C452.50176,352.25568 451.38816,361.01088 447.32736,369.73728 C447.74976,370.91808 447.50016,372.29088 446.56896,373.25088 C445.98336,373.91328 445.03296,374.92128 443.86176,376.04448 C443.56416,376.52448 443.24736,376.99488 442.93056,377.47488 C442.14336,378.55968 441.02976,379.27008 439.82976,379.58688 Z M432.84096,374.48928 C432.77376,373.25088 433.10976,371.98368 433.89696,370.90848 C440.70336,362.18208 443.00736,353.12928 442.88256,343.77888 C442.69056,328.63008 436.77696,312.90528 433.25376,296.91168 C431.55456,289.49088 430.86336,281.37888 429.12576,273.72768 C428.40576,270.55008 427.48416,267.45888 426.24576,264.54048 C424.32576,260.16288 416.80896,250.13088 408.83136,244.44768 C403.85856,240.90528 398.78016,238.6944 395.53536,242.45088 C393.57696,244.81248 393.77856,249.90048 394.41216,256.32288 C395.70816,269.30208 400.52736,286.96608 403.36896,301.41408 C405.07776,310.12128 405.94176,317.74368 405.70176,322.63968 C405.26016,327.42048 403.71456,333.38208 403.46496,338.95008 C403.35936,341.50368 403.31136,343.98048 404.60736,345.94848 C406.03776,348.17568 411.76896,354.89568 417.67296,361.43328 C423.26016,367.63488 428.78016,373.82688 431.04576,375.22848 L431.42976,375.08448 C431.66016,374.98848 431.89056,374.89248 432.11136,374.80608 L432.84096,374.48928 Z" id="Fill-17" fill="#000000"></path>
            <path d="M420.72576,262.89888 C419.34336,278.96928 427.00416,287.73408 431.50656,302.21088" id="Stroke-18" stroke="#000000" stroke-width="1.92" stroke-linecap="round" stroke-linejoin="round"></path>
            <path d="M411.18336,295.98048 C411.74016,303.02688 413.17056,310.12128 414.76416,317.00448" id="Stroke-19" stroke="#000000" stroke-width="1.92" stroke-linecap="round" stroke-linejoin="round"></path>
            <path d="M432.91776,325.99968 C434.88576,333.67008 435.95136,341.09088 434.30976,348.93408" id="Stroke-20" stroke="#000000" stroke-width="1.92" stroke-linecap="round" stroke-linejoin="round"></path>
            <path d="M433.28256,367.24128 C436.23936,361.18368 438.01536,354.48288 439.06176,347.85888" id="Fill-21" fill="#FFFFFF"></path>
            <path d="M433.28256,367.24128 C436.23936,361.18368 438.01536,354.48288 439.06176,347.85888" id="Stroke-22" stroke="#000000" stroke-width="1.92" stroke-linecap="round" stroke-linejoin="round"></path>
            <path d="M403.34016,270.65568 C407.56416,288.30048 405.41376,306.74208 410.33856,324.16608" id="Stroke-23" stroke="#000000" stroke-width="1.92" stroke-linecap="round" stroke-linejoin="round"></path>
            <path d="M410.53056,380.33568 C413.00736,387.85248 415.99296,397.31808 418.88256,407.66688 C422.24256,419.67648 425.62176,432.79968 427.80096,445.44288 C429.76896,456.77088 430.74816,467.69568 430.60416,476.91168 C430.46976,486.43488 428.90496,494.26848 425.97696,499.38528 C418.66176,512.12448 391.00416,532.46688 365.80416,540.61728 C345.30816,547.23168 326.64576,545.57088 319.55136,528.07968 C316.49856,520.85088 312.50496,508.63008 312.30336,497.79168 C312.13056,488.81568 314.71296,480.81888 321.15456,476.05728 C324.98496,473.23488 329.35296,471.90048 333.42336,469.71168 C334.64256,469.04928 335.82336,468.27168 336.91776,467.26368 C340.60416,463.87488 343.65696,459.81408 346.40256,455.50368 C350.76096,448.66848 354.29376,441.15168 357.69216,434.11488 C361.87776,426.08928 370.08576,400.22688 376.12416,384.51168 C378.67776,377.87808 380.96256,372.92448 382.34496,371.24448 C386.20416,366.55968 390.87936,364.88928 395.58336,365.30208 C398.91456,365.59968 402.28416,366.96288 405.26016,368.97888 C406.07616,369.12288 406.79616,369.64128 407.16096,370.39968 C409.08096,371.96448 410.76096,373.78848 412.07616,375.74688 C413.04576,377.07168 412.75776,378.92448 411.43296,379.89408 C411.14496,380.09568 410.84736,380.23968 410.53056,380.33568 Z M403.05216,375.28608 C401.29536,374.06688 399.32736,373.14528 397.34016,372.69408 C394.19136,371.98368 391.00416,372.80928 388.66176,376.08288 C387.78816,377.32128 386.72256,380.60448 385.31136,384.94368 C381.69216,395.99328 376.96896,413.45568 372.96576,425.97408 C371.14176,431.69568 369.38496,436.40928 368.06976,439.20288 C364.39296,446.60448 360.60096,454.53408 355.83936,461.66688 C352.46016,466.72608 348.61056,471.39168 344.09856,475.29888 C342.25536,476.89248 340.30656,478.11168 338.29056,479.11968 C334.57536,480.96288 330.57216,481.90368 327.05856,484.32288 C322.99776,487.11648 321.87456,492.24288 321.79776,497.77248 C321.66336,507.41088 324.99456,518.35488 327.51936,524.85408 C332.88576,538.15968 347.62176,537.77568 363.12576,532.52448 C385.77216,524.84448 410.45376,505.93248 416.71296,494.24928 C418.36416,491.17728 419.05536,486.80928 419.34336,481.61568 C419.70816,475.23168 419.21856,467.70528 418.38336,459.59328 C417.53856,451.26048 416.26176,442.34208 414.80256,433.40448 C411.12576,410.78688 406.19136,388.15968 403.05216,375.28608 Z" id="Fill-24" fill="#000000"></path>
            <path d="M361.70496,506.93088 C375.49056,492.31968 385.94496,482.86368 390.66816,462.00288" id="Stroke-25" stroke="#000000" stroke-width="1.92" stroke-linecap="round" stroke-linejoin="round"></path>
            <path d="M384.41856,410.34528 C383.36256,420.90528 378.84096,430.65888 377.15136,441.11328" id="Stroke-26" stroke="#000000" stroke-width="1.92" stroke-linecap="round" stroke-linejoin="round"></path>
            <path d="M386.44416,505.91328 C398.66496,491.72448 403.97376,478.86048 407.06496,460.03488" id="Stroke-27" stroke="#000000" stroke-width="1.92" stroke-linecap="round" stroke-linejoin="round"></path>
            <path d="M344.99136,491.09088 C342.34176,495.07488 340.75776,499.89408 339.79776,504.55968" id="Stroke-28" stroke="#000000" stroke-width="1.92" stroke-linecap="round" stroke-linejoin="round"></path>
            <path d="M409.37856,465.47808 C407.50656,474.15648 405.38496,483.82368 401.42976,491.79168" id="Stroke-29" stroke="#000000" stroke-width="1.92" stroke-linecap="round" stroke-linejoin="round"></path>
            <path d="M401.72736,386.62368 C405.50976,399.65088 407.59296,413.12928 410.09856,426.44448" id="Stroke-30" stroke="#000000" stroke-width="1.92" stroke-linecap="round" stroke-linejoin="round"></path>
            <path d="M387.57696,461.70528 C385.60896,470.45088 381.62496,478.37088 376.48896,485.71488" id="Stroke-31" stroke="#000000" stroke-width="1.92" stroke-linecap="round" stroke-linejoin="round"></path>
            <path d="M395.99616,701.02464 C395.57376,686.95104 394.21056,672.50304 396.64896,658.55424 C402.56256,624.79104 410.66496,618.75264 387.74016,587.69568 C366.27456,558.63648 339.94176,549.94848 310.50816,574.33248 C302.68416,580.82208 294.78336,587.71488 293.81376,598.50624 C292.26816,615.70944 310.62336,625.27104 317.24736,639.59424 C325.25376,656.90304 313.07136,696.30144 337.98336,702.46464 C344.63616,704.10624 353.14176,701.43744 360.04416,701.81184 C367.41696,702.21504 392.13696,708.89664 397.70496,702.01344" id="Fill-32" fill="#FFFFFF"></path>
            <path d="M401.73696,695.48544 C402.01536,695.64864 402.28416,695.84064 402.54336,696.05184 C405.83616,698.72064 406.34496,703.55904 403.67616,706.85184 C401.19936,709.73184 397.06176,711.86304 391.58016,712.31424 C381.50976,713.13984 365.48736,708.77184 359.69856,708.28224 C355.12896,707.88864 349.80096,708.89664 344.84736,708.97344 C341.94816,709.02144 339.14496,708.83904 336.58176,708.12864 C326.61696,705.38304 321.27936,698.75904 318.62016,689.95584 C316.34496,682.36224 316.14336,673.07904 316.01856,664.04544 C315.90336,655.45344 315.93216,647.13024 313.38816,641.37024 C308.89536,631.48224 298.76736,623.85024 293.54496,614.39424 C290.85696,609.52704 289.28256,604.24704 289.82976,598.14144 C290.27136,593.13984 291.98016,588.84768 294.46656,585.02688 C297.90336,579.73728 302.89536,575.36928 307.89696,571.19328 C323.82336,557.83008 339.04896,553.79808 353.14176,556.74528 C366.98496,559.63488 379.92576,569.47488 391.50336,584.91168 C403.76256,601.19424 407.66016,611.21664 408.03456,621.35424 C408.41856,631.42464 404.94336,641.75424 402.04416,659.49504 C401.18976,664.80384 400.92096,670.17024 400.93056,675.56544 C400.94976,682.20864 401.38176,688.87104 401.73696,695.48544 Z M389.90016,697.53024 C389.70816,690.20544 389.37216,682.80384 389.55456,675.44064 C389.68896,669.44064 390.14976,663.47904 391.25376,657.60384 C394.39296,640.85184 398.11776,631.17504 397.96416,621.62304 C397.82016,612.97344 394.16256,604.57344 383.96736,590.48064 C374.12736,576.95328 363.26976,567.91968 351.30816,565.25088 C339.44256,562.60128 326.69376,566.36448 313.10976,577.48128 C308.71296,581.11008 304.24896,584.82528 301.21536,589.43424 C299.41056,592.17984 298.13376,595.25184 297.79776,598.86144 C297.40416,603.23904 298.58496,607.02144 300.54336,610.49664 C305.94816,620.10624 316.37376,627.77664 321.09696,637.80864 C326.84736,649.57824 323.40096,671.87904 328.65216,686.65344 C330.42816,691.66464 333.54816,695.51424 339.38496,696.80064 C340.93056,697.13664 342.61056,697.08864 344.32896,696.96384 C349.69536,696.57984 355.42656,695.22624 360.39936,695.34144 C364.65216,695.44704 374.71296,697.44384 383.52576,697.77984 C385.81056,697.87584 387.99936,697.80864 389.90016,697.53024 Z" id="Fill-33" fill="#000000"></path>
            <path d="M315.28896,599.67744 C316.86336,607.41504 321.00096,614.64384 323.06496,622.29504 C326.86656,636.39744 328.41216,650.97984 331.76256,665.16864" id="Stroke-34" stroke="#000000" stroke-width="1.92" stroke-linecap="round" stroke-linejoin="round"></path>
            <path d="M332.53056,623.60064 C334.12416,639.32544 339.39456,655.81824 338.28096,671.61984" id="Stroke-35" stroke="#000000" stroke-width="1.92" stroke-linecap="round" stroke-linejoin="round"></path>
            <path d="M342.97536,569.84928 C344.91456,580.43808 350.77056,588.22368 357.53856,596.19264" id="Stroke-36" stroke="#000000" stroke-width="1.92" stroke-linecap="round" stroke-linejoin="round"></path>
            <path d="M367.17696,616.90944 C370.67136,635.38944 375.38496,652.77504 376.93056,671.62944" id="Stroke-37" stroke="#000000" stroke-width="1.92" stroke-linecap="round" stroke-linejoin="round"></path>
            <path d="M382.65216,642.59904 C384.22656,654.55104 384.98496,666.55104 382.48896,678.47424" id="Stroke-38" stroke="#000000" stroke-width="1.92" stroke-linecap="round" stroke-linejoin="round"></path>
            <path d="M337.49376,702.10944 C339.65376,698.49024 341.87136,694.89984 344.38656,691.51104" id="Stroke-39" stroke="#000000" stroke-width="1.92" stroke-linecap="round" stroke-linejoin="round"></path>
            <path d="M313.30272,1158.94464 C311.86272,1102.91904 318.03552,1047.83424 309.58752,991.69344 C307.01472,974.60544 286.38432,972.53184 285.53952,953.25504 C283.89792,916.36128 315.07872,880.32288 306.15072,843.74688 C302.83872,830.20128 287.48832,827.11968 281.72832,815.40768 C273.34752,798.36768 283.07232,780.01248 268.80672,764.99808 C255.33792,750.83808 232.52736,744.56928 222.16896,728.04768 C198.84096,690.80928 208.79616,641.16768 193.35936,600.66528 C188.09856,586.86048 168.32256,570.85728 172.17216,555.23808 C181.27296,518.22048 218.85696,480.89568 242.99232,452.30592 M596.62752,1186.08384 C588.56352,1124.73014 576.58272,1064.26944 567.74112,1002.87744 C563.82432,975.65184 560.07072,945.54624 561.90432,945.67104 C563.45952,945.78624 570.03552,948.14784 571.37952,946.24704 C577.98432,936.87744 572.87712,921.19968 576.08352,910.72608 C580.44192,896.51808 596.46432,885.89088 599.19072,871.99968 C603.19392,851.61888 586.66272,835.26048 593.80512,813.01728 C609.83712,763.08768 642.79392,718.31328 666.99552,672.01248 C682.63392,642.09888 690.47712,610.25568 701.59392,578.67168 C707.96832,560.57568 719.87232,539.59968 720.64992,520.26528 C721.31232,503.82048 712.65312,486.38688 704.51232,472.57248 C687.16512,443.17632 674.97312,439.62432 652.48992,450.68352 C627.17472,463.14528 626.46432,486.88608 578.62752,535.03008 M280.22112,1.2 C257.37312,2.0928 222.59136,-4.8192 201.61536,7.0464 C170.42496,24.6912 195.10656,145.2768 203.03616,176.0832" id="Stroke-40" stroke="#FFC900" stroke-width="15.36" stroke-linecap="round" stroke-linejoin="round"></path>
            <path d="M80.66064,327.32352 C57.62064,304.74432 33.81264,283.14432 6.970944,265.65312 C-0.133056,261.01632 -2.139456,251.49312 2.497344,244.38912 C7.124544,237.2928 16.647744,235.2864 23.751744,239.91552 C51.48624,258.00192 76.08144,280.34112 99.91872,303.64992 C116.89152,283.13472 134.19072,263.16672 151.44192,244.36992 C157.17312,238.128 166.89792,237.7152 173.13792,243.44832 C179.38752,249.17952 179.80032,258.90432 174.06912,265.14432 C156.56832,284.21952 139.01952,304.51392 121.82592,325.38432 C142.94592,346.48512 164.05632,367.54752 186.88512,386.19168 C193.44192,391.55808 194.42112,401.24448 189.05472,407.81088 C183.68832,414.37728 174.00192,415.34688 167.44512,409.98048 C144.64512,391.35648 123.62112,370.24512 102.56832,349.11552 C83.24304,373.32768 64.59024,397.91328 47.16624,421.86528 C42.18384,428.71968 32.56464,430.23648 25.710144,425.24448 C18.855744,420.26208 17.338944,410.64288 22.321344,403.78848 C40.63824,378.61728 60.30864,352.74432 80.66064,327.32352 Z" id="Fill-41" fill="#000000"></path>
            <path d="M750.43488,911.83104 C767.42688,892.65888 784.65888,873.66048 801.60288,854.17248 C807.17088,847.77888 816.87648,847.09728 823.27968,852.66528 C829.67328,858.22368 830.35488,867.93888 824.78688,874.33248 C807.44928,894.27168 789.78528,913.67424 772.40928,933.28704 C793.78848,953.66784 815.93568,973.31904 839.40768,992.49984 C845.96448,997.86624 846.94368,1007.55264 841.57728,1014.11904 C836.21088,1020.67584 826.52448,1021.65504 819.95808,1016.28864 C796.22688,996.88704 773.82048,977.02464 752.18208,956.44224 C734.83488,976.65024 718.02528,997.37664 702.37728,1019.37984 C697.47168,1026.28224 687.87168,1027.90464 680.95968,1022.99904 C674.04768,1018.08384 672.42528,1008.48384 677.34048,1001.57184 C693.91008,978.27264 711.74688,956.37504 730.15968,934.99584 C712.20768,917.10144 694.66848,898.62048 677.22528,879.41088 C671.53248,873.13248 672.00288,863.40768 678.27168,857.71488 C684.55008,852.01248 694.27488,852.48288 699.97728,858.76128 C716.61408,877.09728 733.33728,894.73248 750.43488,911.83104 Z" id="Fill-42" fill="#000000"></path>
        </g>
    </g>
</svg>