<svg width="25" height="25" viewBox="0 0 25 25" fill="none" xmlns="http://www.w3.org/2000/svg">
<path d="M17.3951 7.27258C17.3951 7.54873 17.619 7.77258 17.8951 7.77258C18.1713 7.77258 18.3951 7.54873 18.3951 7.27258C18.3951 6.99644 18.1713 6.77258 17.8951 6.77258C17.619 6.77258 17.3951 6.99644 17.3951 7.27258Z" fill="#FBFBF7"/>
<path fill-rule="evenodd" clip-rule="evenodd" d="M22.8951 17.7726C22.8951 20.534 20.6566 22.7726 17.8951 22.7726H7.89514C5.13372 22.7726 2.89514 20.534 2.89514 17.7726V7.77258C2.89514 5.01116 5.13372 2.77258 7.89514 2.77258H17.8951C20.6566 2.77258 22.8951 5.01116 22.8951 7.77258V17.7726ZM17.8951 20.7726C19.552 20.7726 20.8951 19.4294 20.8951 17.7726V7.77258C20.8951 6.11573 19.552 4.77258 17.8951 4.77258H7.89514C6.23829 4.77258 4.89514 6.11573 4.89514 7.77258V17.7726C4.89514 19.4294 6.23829 20.7726 7.89514 20.7726H17.8951ZM17.8951 12.7726C17.8951 15.534 15.6566 17.7726 12.8951 17.7726C10.1337 17.7726 7.89514 15.534 7.89514 12.7726C7.89514 10.0112 10.1337 7.77258 12.8951 7.77258C15.6566 7.77258 17.8951 10.0112 17.8951 12.7726ZM12.8951 15.7726C14.552 15.7726 15.8951 14.4294 15.8951 12.7726C15.8951 11.1157 14.552 9.77258 12.8951 9.77258C11.2383 9.77258 9.89514 11.1157 9.89514 12.7726C9.89514 14.4294 11.2383 15.7726 12.8951 15.7726ZM19.3951 7.27258C19.3951 8.10101 18.7236 8.77258 17.8951 8.77258C17.0667 8.77258 16.3951 8.10101 16.3951 7.27258C16.3951 6.44416 17.0667 5.77258 17.8951 5.77258C18.7236 5.77258 19.3951 6.44416 19.3951 7.27258ZM17.8951 6.77258C17.619 6.77258 17.3951 6.99644 17.3951 7.27258C17.3951 7.54873 17.619 7.77258 17.8951 7.77258C18.1713 7.77258 18.3951 7.54873 18.3951 7.27258C18.3951 6.99644 18.1713 6.77258 17.8951 6.77258Z" fill="#FBFBF7"/>
</svg>
