<svg width="25" height="25" viewBox="0 0 25 25" fill="none" xmlns="http://www.w3.org/2000/svg">
<path fill-rule="evenodd" clip-rule="evenodd" d="M9.18803 19.4797C9.57856 19.8702 10.2117 19.8702 10.6022 19.4797C10.9928 19.0892 10.9928 18.456 10.6022 18.0655L5.30935 12.7726L10.6022 7.47969C10.9928 7.08917 10.9928 6.456 10.6022 6.06548C10.2117 5.67495 9.57856 5.67495 9.18803 6.06548L3.18803 12.0655C2.79751 12.456 2.79751 13.0892 3.18803 13.4797L9.18803 19.4797ZM16.6022 6.06548C16.2117 5.67495 15.5786 5.67495 15.188 6.06548C14.7975 6.456 14.7975 7.08917 15.188 7.47969L20.4809 12.7726L15.188 18.0655C14.7975 18.456 14.7975 19.0892 15.188 19.4797C15.5786 19.8702 16.2117 19.8702 16.6022 19.4797L22.6022 13.4797C22.9928 13.0892 22.9928 12.456 22.6022 12.0655L16.6022 6.06548Z" fill="#FBFBF7"/>
</svg>
