solid OpenSCAD_Model
  facet normal 0 0 -1
    outer loop
      vertex -5 0 0
      vertex -4.93844 0.78217 0
      vertex -4.93844 -0.78217 0
    endloop
  endfacet
  facet normal 0 0 -1
    outer loop
      vertex -4.93844 -0.78217 0
      vertex -4.93844 0.78217 0
      vertex -4.75528 1.54508 0
    endloop
  endfacet
  facet normal 0 0 -1
    outer loop
      vertex -4.93844 -0.78217 0
      vertex -4.75528 1.54508 0
      vertex -4.45503 2.26995 0
    endloop
  endfacet
  facet normal 0 0 -1
    outer loop
      vertex -4.93844 -0.78217 0
      vertex -4.45503 2.26995 0
      vertex -4.04508 2.93893 0
    endloop
  endfacet
  facet normal 0 0 -1
    outer loop
      vertex -4.93844 -0.78217 0
      vertex -4.04508 2.93893 0
      vertex -3.53553 3.53553 0
    endloop
  endfacet
  facet normal 0 0 -1
    outer loop
      vertex -4.93844 -0.78217 0
      vertex -3.53553 3.53553 0
      vertex -2.93893 4.04508 0
    endloop
  endfacet
  facet normal 0 0 -1
    outer loop
      vertex -4.93844 -0.78217 0
      vertex -2.93893 4.04508 0
      vertex -2.26995 4.45503 0
    endloop
  endfacet
  facet normal 0 0 -1
    outer loop
      vertex -4.93844 -0.78217 0
      vertex -2.26995 4.45503 0
      vertex -1.54508 4.75528 0
    endloop
  endfacet
  facet normal 0 0 -1
    outer loop
      vertex -4.93844 -0.78217 0
      vertex -1.54508 4.75528 0
      vertex -0.78217 4.93844 0
    endloop
  endfacet
  facet normal 0 0 -1
    outer loop
      vertex -4.93844 -0.78217 0
      vertex -0.78217 4.93844 0
      vertex 0 5 0
    endloop
  endfacet
  facet normal 0 0 -1
    outer loop
      vertex -4.93844 -0.78217 0
      vertex 0 5 0
      vertex 0.78217 4.93844 0
    endloop
  endfacet
  facet normal 0 0 -1
    outer loop
      vertex -4.93844 -0.78217 0
      vertex 0.78217 4.93844 0
      vertex 1.54508 4.75528 0
    endloop
  endfacet
  facet normal 0 0 -1
    outer loop
      vertex -4.93844 -0.78217 0
      vertex 1.54508 4.75528 0
      vertex 2.26995 4.45503 0
    endloop
  endfacet
  facet normal 0 0 -1
    outer loop
      vertex -4.93844 -0.78217 0
      vertex 2.26995 4.45503 0
      vertex 2.93893 4.04508 0
    endloop
  endfacet
  facet normal 0 0 -1
    outer loop
      vertex -4.93844 -0.78217 0
      vertex 2.93893 4.04508 0
      vertex 3.53553 3.53553 0
    endloop
  endfacet
  facet normal 0 0 -1
    outer loop
      vertex -4.93844 -0.78217 0
      vertex 3.53553 3.53553 0
      vertex 4.04508 2.93893 0
    endloop
  endfacet
  facet normal 0 0 -1
    outer loop
      vertex -4.93844 -0.78217 0
      vertex 4.04508 2.93893 0
      vertex 4.45503 2.26995 0
    endloop
  endfacet
  facet normal 0 0 -1
    outer loop
      vertex -4.93844 -0.78217 0
      vertex 4.45503 2.26995 0
      vertex 4.75528 1.54508 0
    endloop
  endfacet
  facet normal 0 0 -1
    outer loop
      vertex -4.93844 -0.78217 0
      vertex 4.75528 1.54508 0
      vertex 4.93844 0.78217 0
    endloop
  endfacet
  facet normal 0 0 -1
    outer loop
      vertex -4.93844 -0.78217 0
      vertex 4.93844 0.78217 0
      vertex 5 0 0
    endloop
  endfacet
  facet normal 0 0 -1
    outer loop
      vertex -4.93844 -0.78217 0
      vertex 5 0 0
      vertex 4.93844 -0.78217 0
    endloop
  endfacet
  facet normal 0 0 -1
    outer loop
      vertex -4.93844 -0.78217 0
      vertex 4.93844 -0.78217 0
      vertex 4.75528 -1.54508 0
    endloop
  endfacet
  facet normal 0 0 -1
    outer loop
      vertex -4.93844 -0.78217 0
      vertex 4.75528 -1.54508 0
      vertex 4.45503 -2.26995 0
    endloop
  endfacet
  facet normal 0 0 -1
    outer loop
      vertex -4.93844 -0.78217 0
      vertex 4.45503 -2.26995 0
      vertex 4.04508 -2.93893 0
    endloop
  endfacet
  facet normal 0 0 -1
    outer loop
      vertex -4.93844 -0.78217 0
      vertex 4.04508 -2.93893 0
      vertex 3.53553 -3.53553 0
    endloop
  endfacet
  facet normal 0 0 -1
    outer loop
      vertex -4.93844 -0.78217 0
      vertex 3.53553 -3.53553 0
      vertex 2.93893 -4.04508 0
    endloop
  endfacet
  facet normal 0 0 -1
    outer loop
      vertex -4.93844 -0.78217 0
      vertex 2.93893 -4.04508 0
      vertex 2.26995 -4.45503 0
    endloop
  endfacet
  facet normal 0 0 -1
    outer loop
      vertex -4.93844 -0.78217 0
      vertex 2.26995 -4.45503 0
      vertex 1.54508 -4.75528 0
    endloop
  endfacet
  facet normal 0 0 -1
    outer loop
      vertex -4.93844 -0.78217 0
      vertex 1.54508 -4.75528 0
      vertex 0.78217 -4.93844 0
    endloop
  endfacet
  facet normal 0 0 -1
    outer loop
      vertex -4.93844 -0.78217 0
      vertex 0.78217 -4.93844 0
      vertex 0 -5 0
    endloop
  endfacet
  facet normal 0 0 -1
    outer loop
      vertex -4.93844 -0.78217 0
      vertex 0 -5 0
      vertex -0.78217 -4.93844 0
    endloop
  endfacet
  facet normal 0 0 -1
    outer loop
      vertex -4.93844 -0.78217 0
      vertex -0.78217 -4.93844 0
      vertex -1.54508 -4.75528 0
    endloop
  endfacet
  facet normal 0 0 -1
    outer loop
      vertex -4.93844 -0.78217 0
      vertex -1.54508 -4.75528 0
      vertex -2.26995 -4.45503 0
    endloop
  endfacet
  facet normal 0 0 -1
    outer loop
      vertex -4.93844 -0.78217 0
      vertex -2.26995 -4.45503 0
      vertex -2.93893 -4.04508 0
    endloop
  endfacet
  facet normal 0 0 -1
    outer loop
      vertex -4.93844 -0.78217 0
      vertex -2.93893 -4.04508 0
      vertex -3.53553 -3.53553 0
    endloop
  endfacet
  facet normal 0 0 -1
    outer loop
      vertex -4.93844 -0.78217 0
      vertex -3.53553 -3.53553 0
      vertex -4.04508 -2.93893 0
    endloop
  endfacet
  facet normal 0 0 -1
    outer loop
      vertex -4.93844 -0.78217 0
      vertex -4.04508 -2.93893 0
      vertex -4.45503 -2.26995 0
    endloop
  endfacet
  facet normal 0 0 -1
    outer loop
      vertex -4.93844 -0.78217 0
      vertex -4.45503 -2.26995 0
      vertex -4.75528 -1.54508 0
    endloop
  endfacet
  facet normal -0.996917 0.0784615 0
    outer loop
      vertex -5 0 0
      vertex -5 0 20
      vertex -4.93844 0.78217 0
    endloop
  endfacet
  facet normal -0.996917 0.0784615 0
    outer loop
      vertex -4.93844 0.78217 0
      vertex -5 0 20
      vertex -4.93844 0.78217 20
    endloop
  endfacet
  facet normal -0.996917 -0.0784615 0
    outer loop
      vertex -5 0 0
      vertex -4.93844 -0.78217 0
      vertex -5 0 20
    endloop
  endfacet
  facet normal -0.996917 -0.0784615 0
    outer loop
      vertex -5 0 20
      vertex -4.93844 -0.78217 0
      vertex -4.93844 -0.78217 20
    endloop
  endfacet
  facet normal -0.972369 -0.233447 0
    outer loop
      vertex -4.93844 -0.78217 0
      vertex -4.75528 -1.54508 0
      vertex -4.93844 -0.78217 20
    endloop
  endfacet
  facet normal -0.972369 -0.233447 0
    outer loop
      vertex -4.93844 -0.78217 20
      vertex -4.75528 -1.54508 0
      vertex -4.75528 -1.54508 20
    endloop
  endfacet
  facet normal -0.92388 -0.382682 0
    outer loop
      vertex -4.75528 -1.54508 0
      vertex -4.45503 -2.26995 0
      vertex -4.75528 -1.54508 20
    endloop
  endfacet
  facet normal -0.92388 -0.382682 0
    outer loop
      vertex -4.75528 -1.54508 20
      vertex -4.45503 -2.26995 0
      vertex -4.45503 -2.26995 20
    endloop
  endfacet
  facet normal -0.852641 -0.522497 0
    outer loop
      vertex -4.45503 -2.26995 0
      vertex -4.04508 -2.93893 0
      vertex -4.45503 -2.26995 20
    endloop
  endfacet
  facet normal -0.852641 -0.522497 0
    outer loop
      vertex -4.45503 -2.26995 20
      vertex -4.04508 -2.93893 0
      vertex -4.04508 -2.93893 20
    endloop
  endfacet
  facet normal -0.760403 -0.649452 0
    outer loop
      vertex -4.04508 -2.93893 0
      vertex -3.53553 -3.53553 0
      vertex -4.04508 -2.93893 20
    endloop
  endfacet
  facet normal -0.760403 -0.649452 0
    outer loop
      vertex -4.04508 -2.93893 20
      vertex -3.53553 -3.53553 0
      vertex -3.53553 -3.53553 20
    endloop
  endfacet
  facet normal -0.649452 -0.760403 0
    outer loop
      vertex -3.53553 -3.53553 20
      vertex -3.53553 -3.53553 0
      vertex -2.93893 -4.04508 0
    endloop
  endfacet
  facet normal -0.649452 -0.760403 0
    outer loop
      vertex -2.93893 -4.04508 20
      vertex -3.53553 -3.53553 20
      vertex -2.93893 -4.04508 0
    endloop
  endfacet
  facet normal -0.522497 -0.852641 0
    outer loop
      vertex -2.93893 -4.04508 20
      vertex -2.93893 -4.04508 0
      vertex -2.26995 -4.45503 0
    endloop
  endfacet
  facet normal -0.522497 -0.852641 0
    outer loop
      vertex -2.26995 -4.45503 20
      vertex -2.93893 -4.04508 20
      vertex -2.26995 -4.45503 0
    endloop
  endfacet
  facet normal -0.382682 -0.92388 0
    outer loop
      vertex -2.26995 -4.45503 20
      vertex -2.26995 -4.45503 0
      vertex -1.54508 -4.75528 0
    endloop
  endfacet
  facet normal -0.382682 -0.92388 0
    outer loop
      vertex -1.54508 -4.75528 20
      vertex -2.26995 -4.45503 20
      vertex -1.54508 -4.75528 0
    endloop
  endfacet
  facet normal -0.233447 -0.972369 0
    outer loop
      vertex -1.54508 -4.75528 20
      vertex -1.54508 -4.75528 0
      vertex -0.78217 -4.93844 0
    endloop
  endfacet
  facet normal -0.233447 -0.972369 0
    outer loop
      vertex -0.78217 -4.93844 20
      vertex -1.54508 -4.75528 20
      vertex -0.78217 -4.93844 0
    endloop
  endfacet
  facet normal -0.0784615 -0.996917 0
    outer loop
      vertex -0.78217 -4.93844 20
      vertex -0.78217 -4.93844 0
      vertex 0 -5 0
    endloop
  endfacet
  facet normal -0.0784615 -0.996917 0
    outer loop
      vertex 0 -5 20
      vertex -0.78217 -4.93844 20
      vertex 0 -5 0
    endloop
  endfacet
  facet normal 0.0784615 -0.996917 0
    outer loop
      vertex 0 -5 20
      vertex 0 -5 0
      vertex 0.78217 -4.93844 0
    endloop
  endfacet
  facet normal 0.0784615 -0.996917 0
    outer loop
      vertex 0.78217 -4.93844 20
      vertex 0 -5 20
      vertex 0.78217 -4.93844 0
    endloop
  endfacet
  facet normal 0.233447 -0.972369 0
    outer loop
      vertex 0.78217 -4.93844 20
      vertex 0.78217 -4.93844 0
      vertex 1.54508 -4.75528 0
    endloop
  endfacet
  facet normal 0.233447 -0.972369 0
    outer loop
      vertex 1.54508 -4.75528 20
      vertex 0.78217 -4.93844 20
      vertex 1.54508 -4.75528 0
    endloop
  endfacet
  facet normal 0.382682 -0.92388 0
    outer loop
      vertex 1.54508 -4.75528 20
      vertex 1.54508 -4.75528 0
      vertex 2.26995 -4.45503 0
    endloop
  endfacet
  facet normal 0.382682 -0.92388 0
    outer loop
      vertex 2.26995 -4.45503 20
      vertex 1.54508 -4.75528 20
      vertex 2.26995 -4.45503 0
    endloop
  endfacet
  facet normal 0.522497 -0.852641 0
    outer loop
      vertex 2.26995 -4.45503 20
      vertex 2.26995 -4.45503 0
      vertex 2.93893 -4.04508 0
    endloop
  endfacet
  facet normal 0.522497 -0.852641 0
    outer loop
      vertex 2.93893 -4.04508 20
      vertex 2.26995 -4.45503 20
      vertex 2.93893 -4.04508 0
    endloop
  endfacet
  facet normal 0.649452 -0.760403 0
    outer loop
      vertex 2.93893 -4.04508 20
      vertex 2.93893 -4.04508 0
      vertex 3.53553 -3.53553 0
    endloop
  endfacet
  facet normal 0.649452 -0.760403 0
    outer loop
      vertex 3.53553 -3.53553 20
      vertex 2.93893 -4.04508 20
      vertex 3.53553 -3.53553 0
    endloop
  endfacet
  facet normal 0.760403 -0.649452 0
    outer loop
      vertex 3.53553 -3.53553 20
      vertex 3.53553 -3.53553 0
      vertex 4.04508 -2.93893 0
    endloop
  endfacet
  facet normal 0.760403 -0.649452 0
    outer loop
      vertex 4.04508 -2.93893 20
      vertex 3.53553 -3.53553 20
      vertex 4.04508 -2.93893 0
    endloop
  endfacet
  facet normal 0.852641 -0.522497 0
    outer loop
      vertex 4.04508 -2.93893 20
      vertex 4.04508 -2.93893 0
      vertex 4.45503 -2.26995 0
    endloop
  endfacet
  facet normal 0.852641 -0.522497 0
    outer loop
      vertex 4.45503 -2.26995 20
      vertex 4.04508 -2.93893 20
      vertex 4.45503 -2.26995 0
    endloop
  endfacet
  facet normal 0.92388 -0.382682 0
    outer loop
      vertex 4.45503 -2.26995 20
      vertex 4.45503 -2.26995 0
      vertex 4.75528 -1.54508 0
    endloop
  endfacet
  facet normal 0.92388 -0.382682 0
    outer loop
      vertex 4.75528 -1.54508 20
      vertex 4.45503 -2.26995 20
      vertex 4.75528 -1.54508 0
    endloop
  endfacet
  facet normal 0.972369 -0.233447 0
    outer loop
      vertex 4.75528 -1.54508 20
      vertex 4.75528 -1.54508 0
      vertex 4.93844 -0.78217 0
    endloop
  endfacet
  facet normal 0.972369 -0.233447 0
    outer loop
      vertex 4.93844 -0.78217 20
      vertex 4.75528 -1.54508 20
      vertex 4.93844 -0.78217 0
    endloop
  endfacet
  facet normal 0.996917 -0.0784615 0
    outer loop
      vertex 4.93844 -0.78217 20
      vertex 4.93844 -0.78217 0
      vertex 5 0 0
    endloop
  endfacet
  facet normal 0.996917 -0.0784615 0
    outer loop
      vertex 5 0 20
      vertex 4.93844 -0.78217 20
      vertex 5 0 0
    endloop
  endfacet
  facet normal 0.996917 0.0784615 0
    outer loop
      vertex 5 0 0
      vertex 4.93844 0.78217 0
      vertex 4.93844 0.78217 20
    endloop
  endfacet
  facet normal 0.996917 0.0784615 0
    outer loop
      vertex 5 0 20
      vertex 5 0 0
      vertex 4.93844 0.78217 20
    endloop
  endfacet
  facet normal 0.972369 0.233447 0
    outer loop
      vertex 4.93844 0.78217 0
      vertex 4.75528 1.54508 0
      vertex 4.75528 1.54508 20
    endloop
  endfacet
  facet normal 0.972369 0.233447 0
    outer loop
      vertex 4.93844 0.78217 20
      vertex 4.93844 0.78217 0
      vertex 4.75528 1.54508 20
    endloop
  endfacet
  facet normal 0.92388 0.382682 0
    outer loop
      vertex 4.75528 1.54508 0
      vertex 4.45503 2.26995 0
      vertex 4.45503 2.26995 20
    endloop
  endfacet
  facet normal 0.92388 0.382682 0
    outer loop
      vertex 4.75528 1.54508 20
      vertex 4.75528 1.54508 0
      vertex 4.45503 2.26995 20
    endloop
  endfacet
  facet normal 0.852641 0.522497 0
    outer loop
      vertex 4.45503 2.26995 0
      vertex 4.04508 2.93893 0
      vertex 4.04508 2.93893 20
    endloop
  endfacet
  facet normal 0.852641 0.522497 0
    outer loop
      vertex 4.45503 2.26995 20
      vertex 4.45503 2.26995 0
      vertex 4.04508 2.93893 20
    endloop
  endfacet
  facet normal 0.760403 0.649452 0
    outer loop
      vertex 4.04508 2.93893 0
      vertex 3.53553 3.53553 0
      vertex 3.53553 3.53553 20
    endloop
  endfacet
  facet normal 0.760403 0.649452 0
    outer loop
      vertex 4.04508 2.93893 20
      vertex 4.04508 2.93893 0
      vertex 3.53553 3.53553 20
    endloop
  endfacet
  facet normal 0.649452 0.760403 0
    outer loop
      vertex 2.93893 4.04508 0
      vertex 2.93893 4.04508 20
      vertex 3.53553 3.53553 0
    endloop
  endfacet
  facet normal 0.649452 0.760403 0
    outer loop
      vertex 3.53553 3.53553 0
      vertex 2.93893 4.04508 20
      vertex 3.53553 3.53553 20
    endloop
  endfacet
  facet normal 0.522497 0.852641 0
    outer loop
      vertex 2.26995 4.45503 0
      vertex 2.26995 4.45503 20
      vertex 2.93893 4.04508 0
    endloop
  endfacet
  facet normal 0.522497 0.852641 0
    outer loop
      vertex 2.93893 4.04508 0
      vertex 2.26995 4.45503 20
      vertex 2.93893 4.04508 20
    endloop
  endfacet
  facet normal 0.382682 0.92388 0
    outer loop
      vertex 1.54508 4.75528 0
      vertex 1.54508 4.75528 20
      vertex 2.26995 4.45503 0
    endloop
  endfacet
  facet normal 0.382682 0.92388 0
    outer loop
      vertex 2.26995 4.45503 0
      vertex 1.54508 4.75528 20
      vertex 2.26995 4.45503 20
    endloop
  endfacet
  facet normal 0.233447 0.972369 0
    outer loop
      vertex 0.78217 4.93844 0
      vertex 0.78217 4.93844 20
      vertex 1.54508 4.75528 0
    endloop
  endfacet
  facet normal 0.233447 0.972369 0
    outer loop
      vertex 1.54508 4.75528 0
      vertex 0.78217 4.93844 20
      vertex 1.54508 4.75528 20
    endloop
  endfacet
  facet normal 0.0784615 0.996917 0
    outer loop
      vertex 0 5 0
      vertex 0 5 20
      vertex 0.78217 4.93844 0
    endloop
  endfacet
  facet normal 0.0784615 0.996917 0
    outer loop
      vertex 0.78217 4.93844 0
      vertex 0 5 20
      vertex 0.78217 4.93844 20
    endloop
  endfacet
  facet normal -0.0784615 0.996917 0
    outer loop
      vertex -0.78217 4.93844 0
      vertex -0.78217 4.93844 20
      vertex 0 5 0
    endloop
  endfacet
  facet normal -0.0784615 0.996917 0
    outer loop
      vertex 0 5 0
      vertex -0.78217 4.93844 20
      vertex 0 5 20
    endloop
  endfacet
  facet normal -0.233447 0.972369 0
    outer loop
      vertex -1.54508 4.75528 0
      vertex -1.54508 4.75528 20
      vertex -0.78217 4.93844 0
    endloop
  endfacet
  facet normal -0.233447 0.972369 0
    outer loop
      vertex -0.78217 4.93844 0
      vertex -1.54508 4.75528 20
      vertex -0.78217 4.93844 20
    endloop
  endfacet
  facet normal -0.382682 0.92388 0
    outer loop
      vertex -2.26995 4.45503 0
      vertex -2.26995 4.45503 20
      vertex -1.54508 4.75528 0
    endloop
  endfacet
  facet normal -0.382682 0.92388 0
    outer loop
      vertex -1.54508 4.75528 0
      vertex -2.26995 4.45503 20
      vertex -1.54508 4.75528 20
    endloop
  endfacet
  facet normal -0.522497 0.852641 0
    outer loop
      vertex -2.93893 4.04508 0
      vertex -2.93893 4.04508 20
      vertex -2.26995 4.45503 0
    endloop
  endfacet
  facet normal -0.522497 0.852641 0
    outer loop
      vertex -2.26995 4.45503 0
      vertex -2.93893 4.04508 20
      vertex -2.26995 4.45503 20
    endloop
  endfacet
  facet normal -0.649452 0.760403 0
    outer loop
      vertex -3.53553 3.53553 0
      vertex -3.53553 3.53553 20
      vertex -2.93893 4.04508 0
    endloop
  endfacet
  facet normal -0.649452 0.760403 0
    outer loop
      vertex -2.93893 4.04508 0
      vertex -3.53553 3.53553 20
      vertex -2.93893 4.04508 20
    endloop
  endfacet
  facet normal -0.760403 0.649452 0
    outer loop
      vertex -4.04508 2.93893 0
      vertex -4.04508 2.93893 20
      vertex -3.53553 3.53553 0
    endloop
  endfacet
  facet normal -0.760403 0.649452 0
    outer loop
      vertex -3.53553 3.53553 0
      vertex -4.04508 2.93893 20
      vertex -3.53553 3.53553 20
    endloop
  endfacet
  facet normal -0.852641 0.522497 0
    outer loop
      vertex -4.45503 2.26995 0
      vertex -4.45503 2.26995 20
      vertex -4.04508 2.93893 0
    endloop
  endfacet
  facet normal -0.852641 0.522497 0
    outer loop
      vertex -4.04508 2.93893 0
      vertex -4.45503 2.26995 20
      vertex -4.04508 2.93893 20
    endloop
  endfacet
  facet normal -0.92388 0.382682 0
    outer loop
      vertex -4.75528 1.54508 0
      vertex -4.75528 1.54508 20
      vertex -4.45503 2.26995 0
    endloop
  endfacet
  facet normal -0.92388 0.382682 0
    outer loop
      vertex -4.45503 2.26995 0
      vertex -4.75528 1.54508 20
      vertex -4.45503 2.26995 20
    endloop
  endfacet
  facet normal -0.972369 0.233447 0
    outer loop
      vertex -4.93844 0.78217 0
      vertex -4.93844 0.78217 20
      vertex -4.75528 1.54508 0
    endloop
  endfacet
  facet normal -0.972369 0.233447 0
    outer loop
      vertex -4.75528 1.54508 0
      vertex -4.93844 0.78217 20
      vertex -4.75528 1.54508 20
    endloop
  endfacet
  facet normal 0 0 1
    outer loop
      vertex -4.93844 0.78217 20
      vertex -5 0 20
      vertex -4.93844 -0.78217 20
    endloop
  endfacet
  facet normal 0 0 1
    outer loop
      vertex -4.45503 -2.26995 20
      vertex -4.93844 0.78217 20
      vertex -4.75528 -1.54508 20
    endloop
  endfacet
  facet normal 0 0 1
    outer loop
      vertex -4.75528 -1.54508 20
      vertex -4.93844 0.78217 20
      vertex -4.93844 -0.78217 20
    endloop
  endfacet
  facet normal 0 0 1
    outer loop
      vertex -4.04508 -2.93893 20
      vertex -4.93844 0.78217 20
      vertex -4.45503 -2.26995 20
    endloop
  endfacet
  facet normal 0 0 1
    outer loop
      vertex -3.53553 -3.53553 20
      vertex -4.93844 0.78217 20
      vertex -4.04508 -2.93893 20
    endloop
  endfacet
  facet normal 0 0 1
    outer loop
      vertex -2.93893 -4.04508 20
      vertex -4.93844 0.78217 20
      vertex -3.53553 -3.53553 20
    endloop
  endfacet
  facet normal 0 0 1
    outer loop
      vertex -2.26995 -4.45503 20
      vertex -4.93844 0.78217 20
      vertex -2.93893 -4.04508 20
    endloop
  endfacet
  facet normal 0 0 1
    outer loop
      vertex -1.54508 -4.75528 20
      vertex -4.93844 0.78217 20
      vertex -2.26995 -4.45503 20
    endloop
  endfacet
  facet normal 0 0 1
    outer loop
      vertex -0.78217 -4.93844 20
      vertex -4.93844 0.78217 20
      vertex -1.54508 -4.75528 20
    endloop
  endfacet
  facet normal 0 0 1
    outer loop
      vertex 0 -5 20
      vertex -4.93844 0.78217 20
      vertex -0.78217 -4.93844 20
    endloop
  endfacet
  facet normal 0 0 1
    outer loop
      vertex 0.78217 -4.93844 20
      vertex -4.93844 0.78217 20
      vertex 0 -5 20
    endloop
  endfacet
  facet normal 0 0 1
    outer loop
      vertex 1.54508 -4.75528 20
      vertex -4.93844 0.78217 20
      vertex 0.78217 -4.93844 20
    endloop
  endfacet
  facet normal 0 0 1
    outer loop
      vertex 2.26995 -4.45503 20
      vertex -4.93844 0.78217 20
      vertex 1.54508 -4.75528 20
    endloop
  endfacet
  facet normal 0 0 1
    outer loop
      vertex -1.17557 -1.61803 20
      vertex -4.93844 0.78217 20
      vertex 2.26995 -4.45503 20
    endloop
  endfacet
  facet normal 0 0 1
    outer loop
      vertex -1.17557 -1.61803 20
      vertex -1.41421 -1.41421 20
      vertex -4.93844 0.78217 20
    endloop
  endfacet
  facet normal 0 0 1
    outer loop
      vertex -0.31287 -1.97538 20
      vertex -0.61803 -1.90211 20
      vertex 2.93893 -4.04508 20
    endloop
  endfacet
  facet normal 0 0 1
    outer loop
      vertex 1.17557 -1.61803 20
      vertex 0.90798 -1.78201 20
      vertex 4.04508 -2.93893 20
    endloop
  endfacet
  facet normal 0 0 1
    outer loop
      vertex 2 0 20
      vertex 1.97538 -0.31287 20
      vertex 4.93844 -0.78217 20
    endloop
  endfacet
  facet normal 0 0 1
    outer loop
      vertex 0.31287 1.97538 20
      vertex 0.61803 1.90211 20
      vertex 4.04508 2.93893 20
    endloop
  endfacet
  facet normal 0 0 1
    outer loop
      vertex 2.93893 4.04508 20
      vertex -4.93844 0.78217 20
      vertex 3.53553 3.53553 20
    endloop
  endfacet
  facet normal 0 0 1
    outer loop
      vertex 2.26995 4.45503 20
      vertex -4.93844 0.78217 20
      vertex 2.93893 4.04508 20
    endloop
  endfacet
  facet normal 0 0 1
    outer loop
      vertex 1.54508 4.75528 20
      vertex -4.93844 0.78217 20
      vertex 2.26995 4.45503 20
    endloop
  endfacet
  facet normal 0 0 1
    outer loop
      vertex 0.78217 4.93844 20
      vertex -4.93844 0.78217 20
      vertex 1.54508 4.75528 20
    endloop
  endfacet
  facet normal 0 0 1
    outer loop
      vertex 0 5 20
      vertex -4.93844 0.78217 20
      vertex 0.78217 4.93844 20
    endloop
  endfacet
  facet normal 0 0 1
    outer loop
      vertex -0.78217 4.93844 20
      vertex -4.93844 0.78217 20
      vertex 0 5 20
    endloop
  endfacet
  facet normal 0 0 1
    outer loop
      vertex -1.54508 4.75528 20
      vertex -4.93844 0.78217 20
      vertex -0.78217 4.93844 20
    endloop
  endfacet
  facet normal 0 0 1
    outer loop
      vertex -2.26995 4.45503 20
      vertex -4.93844 0.78217 20
      vertex -1.54508 4.75528 20
    endloop
  endfacet
  facet normal 0 0 1
    outer loop
      vertex -2.93893 4.04508 20
      vertex -4.93844 0.78217 20
      vertex -2.26995 4.45503 20
    endloop
  endfacet
  facet normal 0 0 1
    outer loop
      vertex -3.53553 3.53553 20
      vertex -4.93844 0.78217 20
      vertex -2.93893 4.04508 20
    endloop
  endfacet
  facet normal 0 0 1
    outer loop
      vertex -4.04508 2.93893 20
      vertex -4.93844 0.78217 20
      vertex -3.53553 3.53553 20
    endloop
  endfacet
  facet normal 0 0 1
    outer loop
      vertex -4.45503 2.26995 20
      vertex -4.93844 0.78217 20
      vertex -4.04508 2.93893 20
    endloop
  endfacet
  facet normal 0 0 1
    outer loop
      vertex -4.75528 1.54508 20
      vertex -4.93844 0.78217 20
      vertex -4.45503 2.26995 20
    endloop
  endfacet
  facet normal 0 0 1
    outer loop
      vertex 0.61803 -1.90211 20
      vertex 0.31287 -1.97538 20
      vertex 3.53553 -3.53553 20
    endloop
  endfacet
  facet normal 0 0 1
    outer loop
      vertex -1.41421 -1.41421 20
      vertex -1.61803 -1.17557 20
      vertex -4.93844 0.78217 20
    endloop
  endfacet
  facet normal 0 0 1
    outer loop
      vertex -1.90211 0.61803 20
      vertex -1.78201 0.90798 20
      vertex -4.93844 0.78217 20
    endloop
  endfacet
  facet normal 0 0 1
    outer loop
      vertex 1.90211 -0.61803 20
      vertex 1.78201 -0.90798 20
      vertex 4.75528 -1.54508 20
    endloop
  endfacet
  facet normal 0 0 1
    outer loop
      vertex -1.78201 0.90798 20
      vertex -1.61803 1.17557 20
      vertex -4.93844 0.78217 20
    endloop
  endfacet
  facet normal 0 0 1
    outer loop
      vertex 1.97538 0.31287 20
      vertex 2 0 20
      vertex 5 0 20
    endloop
  endfacet
  facet normal 0 0 1
    outer loop
      vertex -1.61803 1.17557 20
      vertex -1.41421 1.41421 20
      vertex -4.93844 0.78217 20
    endloop
  endfacet
  facet normal 0 0 1
    outer loop
      vertex 1.78201 0.90798 20
      vertex 1.90211 0.61803 20
      vertex 4.93844 0.78217 20
    endloop
  endfacet
  facet normal 0 0 1
    outer loop
      vertex -1.17557 1.61803 20
      vertex -0.90798 1.78201 20
      vertex -4.93844 0.78217 20
    endloop
  endfacet
  facet normal 0 0 1
    outer loop
      vertex 1.41421 1.41421 20
      vertex 1.61803 1.17557 20
      vertex 4.75528 1.54508 20
    endloop
  endfacet
  facet normal 0 0 1
    outer loop
      vertex -1.17557 1.61803 20
      vertex -4.93844 0.78217 20
      vertex -1.41421 1.41421 20
    endloop
  endfacet
  facet normal 0 0 1
    outer loop
      vertex -0.61803 1.90211 20
      vertex -0.31287 1.97538 20
      vertex 3.53553 3.53553 20
    endloop
  endfacet
  facet normal 0 0 1
    outer loop
      vertex 0.90798 1.78201 20
      vertex 1.17557 1.61803 20
      vertex 4.45503 2.26995 20
    endloop
  endfacet
  facet normal 0 0 1
    outer loop
      vertex -0.61803 1.90211 20
      vertex -4.93844 0.78217 20
      vertex -0.90798 1.78201 20
    endloop
  endfacet
  facet normal 0 0 1
    outer loop
      vertex 3.53553 3.53553 20
      vertex -4.93844 0.78217 20
      vertex -0.61803 1.90211 20
    endloop
  endfacet
  facet normal 0 0 1
    outer loop
      vertex 3.53553 3.53553 20
      vertex -0.31287 1.97538 20
      vertex 4.04508 2.93893 20
    endloop
  endfacet
  facet normal 0 0 1
    outer loop
      vertex -0.31287 1.97538 20
      vertex 0 2 20
      vertex 4.04508 2.93893 20
    endloop
  endfacet
  facet normal 0 0 1
    outer loop
      vertex 4.04508 2.93893 20
      vertex 0.61803 1.90211 20
      vertex 4.45503 2.26995 20
    endloop
  endfacet
  facet normal 0 0 1
    outer loop
      vertex 0.61803 1.90211 20
      vertex 0.90798 1.78201 20
      vertex 4.45503 2.26995 20
    endloop
  endfacet
  facet normal 0 0 1
    outer loop
      vertex 4.45503 2.26995 20
      vertex 1.17557 1.61803 20
      vertex 4.75528 1.54508 20
    endloop
  endfacet
  facet normal 0 0 1
    outer loop
      vertex 1.17557 1.61803 20
      vertex 1.41421 1.41421 20
      vertex 4.75528 1.54508 20
    endloop
  endfacet
  facet normal 0 0 1
    outer loop
      vertex 4.75528 1.54508 20
      vertex 1.61803 1.17557 20
      vertex 4.93844 0.78217 20
    endloop
  endfacet
  facet normal 0 0 1
    outer loop
      vertex 1.61803 1.17557 20
      vertex 1.78201 0.90798 20
      vertex 4.93844 0.78217 20
    endloop
  endfacet
  facet normal 0 0 1
    outer loop
      vertex 4.93844 0.78217 20
      vertex 1.90211 0.61803 20
      vertex 5 0 20
    endloop
  endfacet
  facet normal 0 0 1
    outer loop
      vertex 1.90211 0.61803 20
      vertex 1.97538 0.31287 20
      vertex 5 0 20
    endloop
  endfacet
  facet normal 0 0 1
    outer loop
      vertex 5 0 20
      vertex 2 0 20
      vertex 4.93844 -0.78217 20
    endloop
  endfacet
  facet normal 0 0 1
    outer loop
      vertex 4.93844 -0.78217 20
      vertex 1.97538 -0.31287 20
      vertex 4.75528 -1.54508 20
    endloop
  endfacet
  facet normal 0 0 1
    outer loop
      vertex -1.97538 0.31287 20
      vertex -1.90211 0.61803 20
      vertex -4.93844 0.78217 20
    endloop
  endfacet
  facet normal 0 0 1
    outer loop
      vertex 1.97538 -0.31287 20
      vertex 1.90211 -0.61803 20
      vertex 4.75528 -1.54508 20
    endloop
  endfacet
  facet normal 0 0 1
    outer loop
      vertex 0 2 20
      vertex 0.31287 1.97538 20
      vertex 4.04508 2.93893 20
    endloop
  endfacet
  facet normal 0 0 1
    outer loop
      vertex 4.75528 -1.54508 20
      vertex 1.78201 -0.90798 20
      vertex 4.45503 -2.26995 20
    endloop
  endfacet
  facet normal 0 0 1
    outer loop
      vertex 1.78201 -0.90798 20
      vertex 1.61803 -1.17557 20
      vertex 4.45503 -2.26995 20
    endloop
  endfacet
  facet normal 0 0 1
    outer loop
      vertex 4.45503 -2.26995 20
      vertex 1.41421 -1.41421 20
      vertex 4.04508 -2.93893 20
    endloop
  endfacet
  facet normal 0 0 1
    outer loop
      vertex 1.41421 -1.41421 20
      vertex 1.17557 -1.61803 20
      vertex 4.04508 -2.93893 20
    endloop
  endfacet
  facet normal 0 0 1
    outer loop
      vertex 4.04508 -2.93893 20
      vertex 0.90798 -1.78201 20
      vertex 3.53553 -3.53553 20
    endloop
  endfacet
  facet normal 0 0 1
    outer loop
      vertex -1.97538 -0.31287 20
      vertex -2 0 20
      vertex -4.93844 0.78217 20
    endloop
  endfacet
  facet normal 0 0 1
    outer loop
      vertex 0.90798 -1.78201 20
      vertex 0.61803 -1.90211 20
      vertex 3.53553 -3.53553 20
    endloop
  endfacet
  facet normal 0 0 1
    outer loop
      vertex 3.53553 -3.53553 20
      vertex 0.31287 -1.97538 20
      vertex 2.93893 -4.04508 20
    endloop
  endfacet
  facet normal 0 0 1
    outer loop
      vertex -1.61803 -1.17557 20
      vertex -1.78201 -0.90798 20
      vertex -4.93844 0.78217 20
    endloop
  endfacet
  facet normal 0 0 1
    outer loop
      vertex 0.31287 -1.97538 20
      vertex 0 -2 20
      vertex 2.93893 -4.04508 20
    endloop
  endfacet
  facet normal 0 0 1
    outer loop
      vertex 0 -2 20
      vertex -0.31287 -1.97538 20
      vertex 2.93893 -4.04508 20
    endloop
  endfacet
  facet normal 0 0 1
    outer loop
      vertex 2.93893 -4.04508 20
      vertex -0.61803 -1.90211 20
      vertex 2.26995 -4.45503 20
    endloop
  endfacet
  facet normal 0 0 1
    outer loop
      vertex -0.61803 -1.90211 20
      vertex -0.90798 -1.78201 20
      vertex 2.26995 -4.45503 20
    endloop
  endfacet
  facet normal 0 0 1
    outer loop
      vertex -0.90798 -1.78201 20
      vertex -1.17557 -1.61803 20
      vertex 2.26995 -4.45503 20
    endloop
  endfacet
  facet normal 0 0 1
    outer loop
      vertex -1.78201 -0.90798 20
      vertex -1.90211 -0.61803 20
      vertex -4.93844 0.78217 20
    endloop
  endfacet
  facet normal 0 0 1
    outer loop
      vertex 1.61803 -1.17557 20
      vertex 1.41421 -1.41421 20
      vertex 4.45503 -2.26995 20
    endloop
  endfacet
  facet normal 0 0 1
    outer loop
      vertex -1.90211 -0.61803 20
      vertex -1.97538 -0.31287 20
      vertex -4.93844 0.78217 20
    endloop
  endfacet
  facet normal 0 0 1
    outer loop
      vertex -2 0 20
      vertex -1.97538 0.31287 20
      vertex -4.93844 0.78217 20
    endloop
  endfacet
  facet normal 0.996918 0.0784483 0
    outer loop
      vertex -2 0 20
      vertex -1.97538 -0.31287 20
      vertex -1.97538 -0.31287 1
    endloop
  endfacet
  facet normal 0.996918 0.0784483 0
    outer loop
      vertex -2 0 1
      vertex -2 0 20
      vertex -1.97538 -0.31287 1
    endloop
  endfacet
  facet normal 0.972364 0.233468 0
    outer loop
      vertex -1.97538 -0.31287 20
      vertex -1.90211 -0.61803 20
      vertex -1.90211 -0.61803 1
    endloop
  endfacet
  facet normal 0.972364 0.233468 0
    outer loop
      vertex -1.97538 -0.31287 1
      vertex -1.97538 -0.31287 20
      vertex -1.90211 -0.61803 1
    endloop
  endfacet
  facet normal 0.923881 0.38268 0
    outer loop
      vertex -1.90211 -0.61803 20
      vertex -1.78201 -0.90798 20
      vertex -1.78201 -0.90798 1
    endloop
  endfacet
  facet normal 0.923881 0.38268 0
    outer loop
      vertex -1.90211 -0.61803 1
      vertex -1.90211 -0.61803 20
      vertex -1.78201 -0.90798 1
    endloop
  endfacet
  facet normal 0.852639 0.5225 0
    outer loop
      vertex -1.78201 -0.90798 20
      vertex -1.61803 -1.17557 20
      vertex -1.61803 -1.17557 1
    endloop
  endfacet
  facet normal 0.852639 0.5225 0
    outer loop
      vertex -1.78201 -0.90798 1
      vertex -1.78201 -0.90798 20
      vertex -1.61803 -1.17557 1
    endloop
  endfacet
  facet normal 0.760403 0.649452 0
    outer loop
      vertex -1.61803 -1.17557 20
      vertex -1.41421 -1.41421 20
      vertex -1.41421 -1.41421 1
    endloop
  endfacet
  facet normal 0.760403 0.649452 0
    outer loop
      vertex -1.61803 -1.17557 1
      vertex -1.61803 -1.17557 20
      vertex -1.41421 -1.41421 1
    endloop
  endfacet
  facet normal 0.649452 0.760403 0
    outer loop
      vertex -1.17557 -1.61803 20
      vertex -1.17557 -1.61803 1
      vertex -1.41421 -1.41421 20
    endloop
  endfacet
  facet normal 0.649452 0.760403 0
    outer loop
      vertex -1.41421 -1.41421 20
      vertex -1.17557 -1.61803 1
      vertex -1.41421 -1.41421 1
    endloop
  endfacet
  facet normal 0.5225 0.852639 0
    outer loop
      vertex -0.90798 -1.78201 20
      vertex -0.90798 -1.78201 1
      vertex -1.17557 -1.61803 20
    endloop
  endfacet
  facet normal 0.5225 0.852639 0
    outer loop
      vertex -1.17557 -1.61803 20
      vertex -0.90798 -1.78201 1
      vertex -1.17557 -1.61803 1
    endloop
  endfacet
  facet normal 0.38268 0.923881 0
    outer loop
      vertex -0.61803 -1.90211 20
      vertex -0.61803 -1.90211 1
      vertex -0.90798 -1.78201 20
    endloop
  endfacet
  facet normal 0.38268 0.923881 0
    outer loop
      vertex -0.90798 -1.78201 20
      vertex -0.61803 -1.90211 1
      vertex -0.90798 -1.78201 1
    endloop
  endfacet
  facet normal 0.233468 0.972364 0
    outer loop
      vertex -0.31287 -1.97538 20
      vertex -0.31287 -1.97538 1
      vertex -0.61803 -1.90211 20
    endloop
  endfacet
  facet normal 0.233468 0.972364 0
    outer loop
      vertex -0.61803 -1.90211 20
      vertex -0.31287 -1.97538 1
      vertex -0.61803 -1.90211 1
    endloop
  endfacet
  facet normal 0.0784483 0.996918 0
    outer loop
      vertex 0 -2 20
      vertex 0 -2 1
      vertex -0.31287 -1.97538 20
    endloop
  endfacet
  facet normal 0.0784483 0.996918 0
    outer loop
      vertex -0.31287 -1.97538 20
      vertex 0 -2 1
      vertex -0.31287 -1.97538 1
    endloop
  endfacet
  facet normal -0.0784483 0.996918 0
    outer loop
      vertex 0.31287 -1.97538 20
      vertex 0.31287 -1.97538 1
      vertex 0 -2 20
    endloop
  endfacet
  facet normal -0.0784483 0.996918 0
    outer loop
      vertex 0 -2 20
      vertex 0.31287 -1.97538 1
      vertex 0 -2 1
    endloop
  endfacet
  facet normal -0.233468 0.972364 0
    outer loop
      vertex 0.61803 -1.90211 20
      vertex 0.61803 -1.90211 1
      vertex 0.31287 -1.97538 20
    endloop
  endfacet
  facet normal -0.233468 0.972364 0
    outer loop
      vertex 0.31287 -1.97538 20
      vertex 0.61803 -1.90211 1
      vertex 0.31287 -1.97538 1
    endloop
  endfacet
  facet normal -0.38268 0.923881 0
    outer loop
      vertex 0.90798 -1.78201 20
      vertex 0.90798 -1.78201 1
      vertex 0.61803 -1.90211 20
    endloop
  endfacet
  facet normal -0.38268 0.923881 0
    outer loop
      vertex 0.61803 -1.90211 20
      vertex 0.90798 -1.78201 1
      vertex 0.61803 -1.90211 1
    endloop
  endfacet
  facet normal -0.5225 0.852639 0
    outer loop
      vertex 1.17557 -1.61803 20
      vertex 1.17557 -1.61803 1
      vertex 0.90798 -1.78201 20
    endloop
  endfacet
  facet normal -0.5225 0.852639 0
    outer loop
      vertex 0.90798 -1.78201 20
      vertex 1.17557 -1.61803 1
      vertex 0.90798 -1.78201 1
    endloop
  endfacet
  facet normal -0.649452 0.760403 0
    outer loop
      vertex 1.41421 -1.41421 20
      vertex 1.41421 -1.41421 1
      vertex 1.17557 -1.61803 20
    endloop
  endfacet
  facet normal -0.649452 0.760403 0
    outer loop
      vertex 1.17557 -1.61803 20
      vertex 1.41421 -1.41421 1
      vertex 1.17557 -1.61803 1
    endloop
  endfacet
  facet normal -0.760403 0.649452 0
    outer loop
      vertex 1.61803 -1.17557 20
      vertex 1.61803 -1.17557 1
      vertex 1.41421 -1.41421 20
    endloop
  endfacet
  facet normal -0.760403 0.649452 0
    outer loop
      vertex 1.41421 -1.41421 20
      vertex 1.61803 -1.17557 1
      vertex 1.41421 -1.41421 1
    endloop
  endfacet
  facet normal -0.852639 0.5225 0
    outer loop
      vertex 1.78201 -0.90798 20
      vertex 1.78201 -0.90798 1
      vertex 1.61803 -1.17557 20
    endloop
  endfacet
  facet normal -0.852639 0.5225 0
    outer loop
      vertex 1.61803 -1.17557 20
      vertex 1.78201 -0.90798 1
      vertex 1.61803 -1.17557 1
    endloop
  endfacet
  facet normal -0.923881 0.38268 0
    outer loop
      vertex 1.90211 -0.61803 20
      vertex 1.90211 -0.61803 1
      vertex 1.78201 -0.90798 20
    endloop
  endfacet
  facet normal -0.923881 0.38268 0
    outer loop
      vertex 1.78201 -0.90798 20
      vertex 1.90211 -0.61803 1
      vertex 1.78201 -0.90798 1
    endloop
  endfacet
  facet normal -0.972364 0.233468 0
    outer loop
      vertex 1.97538 -0.31287 20
      vertex 1.97538 -0.31287 1
      vertex 1.90211 -0.61803 20
    endloop
  endfacet
  facet normal -0.972364 0.233468 0
    outer loop
      vertex 1.90211 -0.61803 20
      vertex 1.97538 -0.31287 1
      vertex 1.90211 -0.61803 1
    endloop
  endfacet
  facet normal -0.996918 0.0784483 0
    outer loop
      vertex 2 0 20
      vertex 2 0 1
      vertex 1.97538 -0.31287 20
    endloop
  endfacet
  facet normal -0.996918 0.0784483 0
    outer loop
      vertex 1.97538 -0.31287 20
      vertex 2 0 1
      vertex 1.97538 -0.31287 1
    endloop
  endfacet
  facet normal -0.996918 -0.0784483 0
    outer loop
      vertex 2 0 20
      vertex 1.97538 0.31287 20
      vertex 2 0 1
    endloop
  endfacet
  facet normal -0.996918 -0.0784483 0
    outer loop
      vertex 2 0 1
      vertex 1.97538 0.31287 20
      vertex 1.97538 0.31287 1
    endloop
  endfacet
  facet normal -0.972364 -0.233468 0
    outer loop
      vertex 1.97538 0.31287 20
      vertex 1.90211 0.61803 20
      vertex 1.97538 0.31287 1
    endloop
  endfacet
  facet normal -0.972364 -0.233468 0
    outer loop
      vertex 1.97538 0.31287 1
      vertex 1.90211 0.61803 20
      vertex 1.90211 0.61803 1
    endloop
  endfacet
  facet normal -0.923881 -0.38268 0
    outer loop
      vertex 1.90211 0.61803 20
      vertex 1.78201 0.90798 20
      vertex 1.90211 0.61803 1
    endloop
  endfacet
  facet normal -0.923881 -0.38268 0
    outer loop
      vertex 1.90211 0.61803 1
      vertex 1.78201 0.90798 20
      vertex 1.78201 0.90798 1
    endloop
  endfacet
  facet normal -0.852639 -0.5225 0
    outer loop
      vertex 1.78201 0.90798 20
      vertex 1.61803 1.17557 20
      vertex 1.78201 0.90798 1
    endloop
  endfacet
  facet normal -0.852639 -0.5225 0
    outer loop
      vertex 1.78201 0.90798 1
      vertex 1.61803 1.17557 20
      vertex 1.61803 1.17557 1
    endloop
  endfacet
  facet normal -0.760403 -0.649452 0
    outer loop
      vertex 1.61803 1.17557 20
      vertex 1.41421 1.41421 20
      vertex 1.61803 1.17557 1
    endloop
  endfacet
  facet normal -0.760403 -0.649452 0
    outer loop
      vertex 1.61803 1.17557 1
      vertex 1.41421 1.41421 20
      vertex 1.41421 1.41421 1
    endloop
  endfacet
  facet normal -0.649452 -0.760403 0
    outer loop
      vertex 1.41421 1.41421 1
      vertex 1.41421 1.41421 20
      vertex 1.17557 1.61803 20
    endloop
  endfacet
  facet normal -0.649452 -0.760403 0
    outer loop
      vertex 1.17557 1.61803 1
      vertex 1.41421 1.41421 1
      vertex 1.17557 1.61803 20
    endloop
  endfacet
  facet normal -0.5225 -0.852639 0
    outer loop
      vertex 1.17557 1.61803 1
      vertex 1.17557 1.61803 20
      vertex 0.90798 1.78201 20
    endloop
  endfacet
  facet normal -0.5225 -0.852639 0
    outer loop
      vertex 0.90798 1.78201 1
      vertex 1.17557 1.61803 1
      vertex 0.90798 1.78201 20
    endloop
  endfacet
  facet normal -0.38268 -0.923881 0
    outer loop
      vertex 0.90798 1.78201 1
      vertex 0.90798 1.78201 20
      vertex 0.61803 1.90211 20
    endloop
  endfacet
  facet normal -0.38268 -0.923881 0
    outer loop
      vertex 0.61803 1.90211 1
      vertex 0.90798 1.78201 1
      vertex 0.61803 1.90211 20
    endloop
  endfacet
  facet normal -0.233468 -0.972364 0
    outer loop
      vertex 0.61803 1.90211 1
      vertex 0.61803 1.90211 20
      vertex 0.31287 1.97538 20
    endloop
  endfacet
  facet normal -0.233468 -0.972364 0
    outer loop
      vertex 0.31287 1.97538 1
      vertex 0.61803 1.90211 1
      vertex 0.31287 1.97538 20
    endloop
  endfacet
  facet normal -0.0784483 -0.996918 0
    outer loop
      vertex 0.31287 1.97538 1
      vertex 0.31287 1.97538 20
      vertex 0 2 20
    endloop
  endfacet
  facet normal -0.0784483 -0.996918 0
    outer loop
      vertex 0 2 1
      vertex 0.31287 1.97538 1
      vertex 0 2 20
    endloop
  endfacet
  facet normal 0.0784483 -0.996918 0
    outer loop
      vertex 0 2 1
      vertex 0 2 20
      vertex -0.31287 1.97538 20
    endloop
  endfacet
  facet normal 0.0784483 -0.996918 0
    outer loop
      vertex -0.31287 1.97538 1
      vertex 0 2 1
      vertex -0.31287 1.97538 20
    endloop
  endfacet
  facet normal 0.233468 -0.972364 0
    outer loop
      vertex -0.31287 1.97538 1
      vertex -0.31287 1.97538 20
      vertex -0.61803 1.90211 20
    endloop
  endfacet
  facet normal 0.233468 -0.972364 0
    outer loop
      vertex -0.61803 1.90211 1
      vertex -0.31287 1.97538 1
      vertex -0.61803 1.90211 20
    endloop
  endfacet
  facet normal 0.38268 -0.923881 0
    outer loop
      vertex -0.61803 1.90211 1
      vertex -0.61803 1.90211 20
      vertex -0.90798 1.78201 20
    endloop
  endfacet
  facet normal 0.38268 -0.923881 0
    outer loop
      vertex -0.90798 1.78201 1
      vertex -0.61803 1.90211 1
      vertex -0.90798 1.78201 20
    endloop
  endfacet
  facet normal 0.5225 -0.852639 0
    outer loop
      vertex -0.90798 1.78201 1
      vertex -0.90798 1.78201 20
      vertex -1.17557 1.61803 20
    endloop
  endfacet
  facet normal 0.5225 -0.852639 0
    outer loop
      vertex -1.17557 1.61803 1
      vertex -0.90798 1.78201 1
      vertex -1.17557 1.61803 20
    endloop
  endfacet
  facet normal 0.649452 -0.760403 0
    outer loop
      vertex -1.17557 1.61803 1
      vertex -1.17557 1.61803 20
      vertex -1.41421 1.41421 20
    endloop
  endfacet
  facet normal 0.649452 -0.760403 0
    outer loop
      vertex -1.41421 1.41421 1
      vertex -1.17557 1.61803 1
      vertex -1.41421 1.41421 20
    endloop
  endfacet
  facet normal 0.760403 -0.649452 0
    outer loop
      vertex -1.41421 1.41421 1
      vertex -1.41421 1.41421 20
      vertex -1.61803 1.17557 20
    endloop
  endfacet
  facet normal 0.760403 -0.649452 0
    outer loop
      vertex -1.61803 1.17557 1
      vertex -1.41421 1.41421 1
      vertex -1.61803 1.17557 20
    endloop
  endfacet
  facet normal 0.852639 -0.5225 0
    outer loop
      vertex -1.61803 1.17557 1
      vertex -1.61803 1.17557 20
      vertex -1.78201 0.90798 20
    endloop
  endfacet
  facet normal 0.852639 -0.5225 0
    outer loop
      vertex -1.78201 0.90798 1
      vertex -1.61803 1.17557 1
      vertex -1.78201 0.90798 20
    endloop
  endfacet
  facet normal 0.923881 -0.38268 0
    outer loop
      vertex -1.78201 0.90798 1
      vertex -1.78201 0.90798 20
      vertex -1.90211 0.61803 20
    endloop
  endfacet
  facet normal 0.923881 -0.38268 0
    outer loop
      vertex -1.90211 0.61803 1
      vertex -1.78201 0.90798 1
      vertex -1.90211 0.61803 20
    endloop
  endfacet
  facet normal 0.972364 -0.233468 0
    outer loop
      vertex -1.90211 0.61803 1
      vertex -1.90211 0.61803 20
      vertex -1.97538 0.31287 20
    endloop
  endfacet
  facet normal 0.972364 -0.233468 0
    outer loop
      vertex -1.97538 0.31287 1
      vertex -1.90211 0.61803 1
      vertex -1.97538 0.31287 20
    endloop
  endfacet
  facet normal 0.996918 -0.0784483 0
    outer loop
      vertex -1.97538 0.31287 1
      vertex -1.97538 0.31287 20
      vertex -2 0 20
    endloop
  endfacet
  facet normal 0.996918 -0.0784483 0
    outer loop
      vertex -2 0 1
      vertex -1.97538 0.31287 1
      vertex -2 0 20
    endloop
  endfacet
  facet normal 0 0 1
    outer loop
      vertex -1.97538 -0.31287 1
      vertex -1.90211 -0.61803 1
      vertex -1.78201 -0.90798 1
    endloop
  endfacet
  facet normal 0 0 1
    outer loop
      vertex -1.41421 -1.41421 1
      vertex -1.97538 -0.31287 1
      vertex -1.61803 -1.17557 1
    endloop
  endfacet
  facet normal 0 0 1
    outer loop
      vertex -1.61803 -1.17557 1
      vertex -1.97538 -0.31287 1
      vertex -1.78201 -0.90798 1
    endloop
  endfacet
  facet normal 0 0 1
    outer loop
      vertex -1.17557 -1.61803 1
      vertex -1.97538 -0.31287 1
      vertex -1.41421 -1.41421 1
    endloop
  endfacet
  facet normal 0 0 1
    outer loop
      vertex -0.90798 -1.78201 1
      vertex -1.97538 -0.31287 1
      vertex -1.17557 -1.61803 1
    endloop
  endfacet
  facet normal 0 0 1
    outer loop
      vertex -0.61803 -1.90211 1
      vertex -1.97538 -0.31287 1
      vertex -0.90798 -1.78201 1
    endloop
  endfacet
  facet normal 0 0 1
    outer loop
      vertex -0.31287 -1.97538 1
      vertex -1.97538 -0.31287 1
      vertex -0.61803 -1.90211 1
    endloop
  endfacet
  facet normal 0 0 1
    outer loop
      vertex 0 -2 1
      vertex -1.97538 -0.31287 1
      vertex -0.31287 -1.97538 1
    endloop
  endfacet
  facet normal 0 0 1
    outer loop
      vertex 0.31287 -1.97538 1
      vertex -1.97538 -0.31287 1
      vertex 0 -2 1
    endloop
  endfacet
  facet normal 0 0 1
    outer loop
      vertex 0.61803 -1.90211 1
      vertex -1.97538 -0.31287 1
      vertex 0.31287 -1.97538 1
    endloop
  endfacet
  facet normal 0 0 1
    outer loop
      vertex 0.90798 -1.78201 1
      vertex -1.97538 -0.31287 1
      vertex 0.61803 -1.90211 1
    endloop
  endfacet
  facet normal 0 0 1
    outer loop
      vertex 1.17557 -1.61803 1
      vertex -1.97538 -0.31287 1
      vertex 0.90798 -1.78201 1
    endloop
  endfacet
  facet normal 0 0 1
    outer loop
      vertex 1.41421 -1.41421 1
      vertex -1.97538 -0.31287 1
      vertex 1.17557 -1.61803 1
    endloop
  endfacet
  facet normal 0 0 1
    outer loop
      vertex 1.61803 -1.17557 1
      vertex -1.97538 -0.31287 1
      vertex 1.41421 -1.41421 1
    endloop
  endfacet
  facet normal 0 0 1
    outer loop
      vertex 1.78201 -0.90798 1
      vertex -1.97538 -0.31287 1
      vertex 1.61803 -1.17557 1
    endloop
  endfacet
  facet normal 0 0 1
    outer loop
      vertex 1.90211 -0.61803 1
      vertex -1.97538 -0.31287 1
      vertex 1.78201 -0.90798 1
    endloop
  endfacet
  facet normal 0 0 1
    outer loop
      vertex 1.97538 -0.31287 1
      vertex -1.97538 -0.31287 1
      vertex 1.90211 -0.61803 1
    endloop
  endfacet
  facet normal 0 0 1
    outer loop
      vertex 2 0 1
      vertex -1.97538 -0.31287 1
      vertex 1.97538 -0.31287 1
    endloop
  endfacet
  facet normal 0 0 1
    outer loop
      vertex 1.97538 0.31287 1
      vertex -1.97538 -0.31287 1
      vertex 2 0 1
    endloop
  endfacet
  facet normal 0 0 1
    outer loop
      vertex 1.90211 0.61803 1
      vertex -1.97538 -0.31287 1
      vertex 1.97538 0.31287 1
    endloop
  endfacet
  facet normal 0 0 1
    outer loop
      vertex 1.78201 0.90798 1
      vertex -1.97538 -0.31287 1
      vertex 1.90211 0.61803 1
    endloop
  endfacet
  facet normal 0 0 1
    outer loop
      vertex 1.61803 1.17557 1
      vertex -1.97538 -0.31287 1
      vertex 1.78201 0.90798 1
    endloop
  endfacet
  facet normal 0 0 1
    outer loop
      vertex 1.41421 1.41421 1
      vertex -1.97538 -0.31287 1
      vertex 1.61803 1.17557 1
    endloop
  endfacet
  facet normal 0 0 1
    outer loop
      vertex 1.17557 1.61803 1
      vertex -1.97538 -0.31287 1
      vertex 1.41421 1.41421 1
    endloop
  endfacet
  facet normal 0 0 1
    outer loop
      vertex 0.90798 1.78201 1
      vertex -1.97538 -0.31287 1
      vertex 1.17557 1.61803 1
    endloop
  endfacet
  facet normal 0 0 1
    outer loop
      vertex 0.61803 1.90211 1
      vertex -1.97538 -0.31287 1
      vertex 0.90798 1.78201 1
    endloop
  endfacet
  facet normal 0 0 1
    outer loop
      vertex 0.31287 1.97538 1
      vertex -1.97538 -0.31287 1
      vertex 0.61803 1.90211 1
    endloop
  endfacet
  facet normal 0 0 1
    outer loop
      vertex 0 2 1
      vertex -1.97538 -0.31287 1
      vertex 0.31287 1.97538 1
    endloop
  endfacet
  facet normal 0 0 1
    outer loop
      vertex -0.31287 1.97538 1
      vertex -1.97538 -0.31287 1
      vertex 0 2 1
    endloop
  endfacet
  facet normal 0 0 1
    outer loop
      vertex -0.61803 1.90211 1
      vertex -1.97538 -0.31287 1
      vertex -0.31287 1.97538 1
    endloop
  endfacet
  facet normal 0 0 1
    outer loop
      vertex -0.90798 1.78201 1
      vertex -1.97538 -0.31287 1
      vertex -0.61803 1.90211 1
    endloop
  endfacet
  facet normal 0 0 1
    outer loop
      vertex -1.17557 1.61803 1
      vertex -1.97538 -0.31287 1
      vertex -0.90798 1.78201 1
    endloop
  endfacet
  facet normal 0 0 1
    outer loop
      vertex -1.41421 1.41421 1
      vertex -1.97538 -0.31287 1
      vertex -1.17557 1.61803 1
    endloop
  endfacet
  facet normal 0 0 1
    outer loop
      vertex -1.61803 1.17557 1
      vertex -1.97538 -0.31287 1
      vertex -1.41421 1.41421 1
    endloop
  endfacet
  facet normal 0 0 1
    outer loop
      vertex -1.78201 0.90798 1
      vertex -1.97538 -0.31287 1
      vertex -1.61803 1.17557 1
    endloop
  endfacet
  facet normal 0 0 1
    outer loop
      vertex -1.90211 0.61803 1
      vertex -1.97538 -0.31287 1
      vertex -1.78201 0.90798 1
    endloop
  endfacet
  facet normal 0 0 1
    outer loop
      vertex -1.97538 0.31287 1
      vertex -1.97538 -0.31287 1
      vertex -1.90211 0.61803 1
    endloop
  endfacet
  facet normal 0 0 1
    outer loop
      vertex -2 0 1
      vertex -1.97538 -0.31287 1
      vertex -1.97538 0.31287 1
    endloop
  endfacet
endsolid OpenSCAD_Model
