<?xml version="1.0" encoding="UTF-8" standalone="no"?>
<svg width="64" height="56" viewBox="0 0 64 56" version="1.1" xmlns="http://www.w3.org/2000/svg">
 <g id="Page-1" fill="none" fill-rule="evenodd">
  <g id="Artboard-3" transform="translate(-628.000000, -557.000000)">
   <g id="Astronaut" transform="translate(628.000000, 557.000000)">
    <path d="M24,43 C24,45.209 22.209,47 20,47 C17.791,47 16,45.209 16,43 C16,40.791 17.791,39 20,39 C22.209,39 24,40.791 24,43" id="Fill-449" fill="#f2b430"/>
    <path d="M31,56 L33,56 L33,37 L31,37 L31,56 Z" id="Fill-446" fill="#1d7ed0"/>
    <path d="M44,39 L36,39 C35.45,39 35,39.45 35,40 L35,42 C35,42.55 35.45,43 36,43 L44,43 C44.55,43 45,42.55 45,42 L45,40 C45,39.45 44.55,39 44,39 L44,39 Z M36,42 L44,42 L44,40 L36,40 L36,42 Z" id="Fill-450" fill="#f2b430"/>
    <path d="M47,1 C48.654,1 50,2.346 50,4 L50,10 L42.981,10 L43.745,11 L51,11 L51,4 C51,1.8 49.2,0 47,0 L17,0 C14.8,0 13,1.8 13,4 L13,11 L20.163,11 L20.96,10 L14,10 L14,4 C14,2.346 15.346,1 17,1 L47,1" id="Page-1" fill="#1d7ed0"/>
    <path d="M63,47 L60,47 C59.45,47 59,47.45 59,48 L59,52 C59,52.55 59.45,53 60,53 L63,53 C63.55,53 64,52.55 64,52 L64,48 C64,47.45 63.55,47 63,47 L63,47 Z M60,52 L63,52 L63,48 L60,48 L60,52 Z" id="Fill-451" fill="#f2b430"/>
    <path d="M53,22 L53,36 L11,36 L11,22 L13.426,22 L13.426,20.9999 L10,20.9999 L10,36.9999 L54,36.9999 L54,20.9999 L50.435,20.9999 L50.399,22 L53,22 Z" id="Fill-441" fill="#1d7ed0"/>
    <path d="M52,11 C53.654,11 55,12.346 55,14 L55,21 L50.369,21 L50.297,22 L56,22 L56,14 C56,11.791 54.209,10 52,10 L42.981,10 L43.632,11 L52,11 L52,11 Z M20.96,10 L12,10 C9.791,10 8,11.791 8,14 L8,22 L13.433,22 L13.505,21 L9,21 L9,14 C9,12.346 10.346,11 12,11 L20.163,11 L20.96,10 Z" id="Fill-442" fill="#f2b430"/>
    <path d="M32,5 C23.163,5 16,12.163 16,21 C16,29.837 23.163,37 32,37 C40.837,37 48,29.837 48,21 C48,12.163 40.837,5 32,5 M32,6 C40.271,6 47,12.729 47,21 C47,29.271 40.271,36 32,36 C23.729,36 17,29.271 17,21 C17,12.729 23.729,6 32,6" id="Fill-436" fill="#1d7ed0"/>
    <path d="M32,10 C23.163,10 16,12.163 16,21 C16,29.837 23.163,34 32,34 C40.837,34 48,29.837 48,21 C48,12.163 40.837,10 32,10 M32,11 C42.374,11 47,14.084 47,21 C47,28.514 41.393,33 32,33 C22.607,33 17,28.514 17,21 C17,14.084 21.626,11 32,11" id="Fill-437" fill="#1d7ed0"/>
    <path d="M52,36 L12,36 C5.373,36 0,41.373 0,48 L0,56 L64,56 L64,48 C64,41.373 58.627,36 52,36 M52,37 C58.065,37 63,41.935 63,48 L63,55 L1,55 L1,48 C1,41.935 5.935,37 12,37 L52,37" id="Fill-438" fill="#1d7ed0"/>
    <path d="M17,17 L15,17 C13.895,17 13,17.895 13,19 L13,23 C13,24.105 13.895,25 15,25 L17,25 L17,17 Z M16,18 L16,24 L15,24 C14.449,24 14,23.551 14,23 L14,19 C14,18.449 14.449,18 15,18 L16,18 L16,18 Z" id="Fill-439" fill="#1d7ed0"/>
    <path d="M49,17 L47,17 L47,25 L49,25 C50.105,25 51,24.105 51,23 L51,19 C51,17.895 50.105,17 49,17 M49,18 C49.551,18 50,18.449 50,19 L50,23 C50,23.551 49.551,24 49,24 L48,24 L48,18 L49,18" id="Fill-440" fill="#1d7ed0"/>
    <path d="M48.5,8 L48.5,8 C48.225,8 48,8.225 48,8.5 L48,17.5 C48,17.775 48.225,18 48.5,18 C48.775,18 49,17.775 49,17.5 L49,8.5 C49,8.225 48.775,8 48.5,8" id="Fill-444" fill="#1d7ed0"/>
    <path d="M19.5,21 C19.224,21 19,20.776 19,20.5 C19,16.96 22.635,13 27.5,13 C27.776,13 28,13.224 28,13.5 C28,13.776 27.776,14 27.5,14 C23.207,14 20,17.432 20,20.5 C20,20.776 19.776,21 19.5,21" id="Fill-445" fill="#f2b430"/>
    <path d="M50,56 L51,56 L51,37 L50,37 L50,56 Z" id="Fill-447" fill="#1d7ed0"/>
    <path d="M13,56 L14,56 L14,37 L13,37 L13,56 Z" id="Fill-448" fill="#1d7ed0"/>
   </g>
  </g>
 </g>
</svg>
