<svg xmlns:cc="http://creativecommons.org/ns#" xmlns:dc="http://purl.org/dc/elements/1.1/" xmlns:inkscape="http://www.inkscape.org/namespaces/inkscape" xmlns:rdf="http://www.w3.org/1999/02/22-rdf-syntax-ns#" xmlns:sodipodi="http://sodipodi.sourceforge.net/DTD/sodipodi-0.dtd" xmlns:svg="http://www.w3.org/2000/svg" xmlns="http://www.w3.org/2000/svg" xmlns:xlink="http://www.w3.org/1999/xlink" version="1.1" id="svg2" inkscape:version="0.48" sodipodi:docname="htmlcss.svg" x="0" y="0" viewBox="0 0 362.7 411.4" xml:space="preserve" enable-background="new 0 0 362.7 411.4"><style type="text/css">
	.st0{fill:#264DE4;}
	.st1{fill:#2965F1;}
	.st2{fill:#EBEBEB;}
	.st3{fill:#FFFFFF;}
</style><sodipodi:namedview bordercolor="#666666" borderopacity="1" fit-margin-bottom="0" fit-margin-left="0" fit-margin-right="0" fit-margin-top="0" id="base" inkscape:current-layer="layer1" inkscape:cx="-276.49" inkscape:cy="244.1" inkscape:document-units="px" inkscape:pageopacity="0" inkscape:pageshadow="2" inkscape:window-height="938" inkscape:window-maximized="1" inkscape:window-width="1280" inkscape:window-x="0" inkscape:window-y="31" inkscape:zoom="0.35" pagecolor="#ffffff" showgrid="false"/><g id="layer1" transform="translate(-170.06157,-270.18109)" inkscape:groupmode="layer" inkscape:label="Calque 1"><g id="g3013" transform="translate(95.428571,270.18109)"><polygon id="polygon2989" class="st0" points="255.8 411.4 107.6 370.3 74.6 0 437.4 0 404.3 370.2 "/><polygon id="polygon2991" class="st1" points="376 346.6 404.3 30.3 256 30.3 256 379.9 "/><polygon id="polygon2993" class="st2" points="150.3 167.6 154.4 213 256 213 256 167.6 "/><polygon id="polygon2995" class="st2" points="142.1 75.7 146.3 121.1 256 121.1 256 75.7 255.8 75.7 "/><polygon id="polygon2997" class="st2" points="256 285.5 255.8 285.6 205.2 271.9 202 235.7 177.4 235.7 156.4 235.7 162.8 307 255.8 332.8 256 332.8 "/><polygon id="polygon3005" class="st3" points="361.4 167.6 369.6 75.7 255.8 75.7 255.8 121.1 319.8 121.1 315.7 167.6 255.8 167.6 255.8 213 311.8 213 306.5 271.9 255.8 285.6 255.8 332.8 348.9 307 349.6 299.3 360.3 179.8 "/></g></g></svg>