<svg xmlns="http://www.w3.org/2000/svg" xmlns:xlink="http://www.w3.org/1999/xlink" version="1.1" id="Layer_1" x="0" y="0" viewBox="0 0 113.9 113.9" xml:space="preserve" enable-background="new 0 0 113.9 113.9"><style type="text/css">
	.st0{fill:#F05133;}
</style><path class="st0" d="M111.8 51.9L62 2.1c-2.9-2.9-7.5-2.9-10.4 0L41.3 12.5l13.1 13.1c3-1 6.5-0.3 9 2.1 2.4 2.4 3.1 6 2.1 9l12.6 12.6c3.1-1.1 6.6-0.4 9 2.1 3.4 3.4 3.4 8.9 0 12.3 -3.4 3.4-8.9 3.4-12.3 0 -2.6-2.6-3.2-6.3-1.9-9.5L61.1 42.5l0 31c0.8 0.4 1.6 1 2.3 1.7 3.4 3.4 3.4 8.9 0 12.3 -3.4 3.4-8.9 3.4-12.3 0 -3.4-3.4-3.4-8.9 0-12.3 0.8-0.8 1.8-1.5 2.9-1.9V41.9c-1-0.4-2-1.1-2.9-1.9 -2.6-2.6-3.2-6.4-1.9-9.5L36.3 17.6 2.1 51.7c-2.9 2.9-2.9 7.5 0 10.4l49.7 49.7c2.9 2.9 7.5 2.9 10.4 0l49.5-49.5C114.6 59.4 114.6 54.8 111.8 51.9"/></svg>