<svg xmlns="http://www.w3.org/2000/svg" xmlns:xlink="http://www.w3.org/1999/xlink" version="1.1" id="Layer_1" x="0" y="0" viewBox="0 0 120.8 117.8" xml:space="preserve" enable-background="new 0 0 120.8 117.8"><style type="text/css">
	.st0{fill-rule:evenodd;clip-rule:evenodd;fill:#191717;}
	.st1{fill:#191717;}
</style><path class="st0" d="M60.4 0C27 0 0 27 0 60.4c0 26.7 17.3 49.3 41.3 57.3 3 0.6 4.1-1.3 4.1-2.9 0-1.4-0.1-6.2-0.1-11.2C28.5 107.2 25 96.4 25 96.4c-2.7-7-6.7-8.8-6.7-8.8 -5.5-3.7 0.4-3.7 0.4-3.7 6.1 0.4 9.3 6.2 9.3 6.2 5.4 9.2 14.1 6.6 17.6 5 0.5-3.9 2.1-6.6 3.8-8.1C36 85.6 21.9 80.4 21.9 57.2c0-6.6 2.4-12 6.2-16.2 -0.6-1.5-2.7-7.7 0.6-16 0 0 5.1-1.6 16.6 6.2 4.8-1.3 10-2 15.1-2 5.1 0 10.3 0.7 15.1 2C87 23.4 92.1 25 92.1 25c3.3 8.3 1.2 14.5 0.6 16 3.9 4.2 6.2 9.6 6.2 16.2 0 23.2-14.1 28.3-27.6 29.8 2.2 1.9 4.1 5.5 4.1 11.2 0 8.1-0.1 14.6-0.1 16.6 0 1.6 1.1 3.5 4.1 2.9 24-8 41.3-30.6 41.3-57.3C120.8 27 93.7 0 60.4 0z"/><path class="st1" d="M22.9 86.7c-0.1 0.3-0.6 0.4-1 0.2 -0.4-0.2-0.7-0.6-0.5-0.9 0.1-0.3 0.6-0.4 1-0.2C22.8 86 23 86.4 22.9 86.7L22.9 86.7zM22.1 86.2"/><path class="st1" d="M25.3 89.4c-0.3 0.3-0.9 0.1-1.2-0.3 -0.4-0.4-0.5-1-0.2-1.3 0.3-0.3 0.8-0.1 1.2 0.3C25.5 88.6 25.6 89.2 25.3 89.4L25.3 89.4zM24.7 88.8"/><path class="st1" d="M27.7 92.9c-0.4 0.3-1 0-1.3-0.5 -0.4-0.5-0.4-1.2 0-1.4 0.4-0.3 1 0 1.3 0.5C28.1 92 28.1 92.6 27.7 92.9L27.7 92.9zM27.7 92.9"/><path class="st1" d="M31 96.3c-0.3 0.4-1 0.3-1.6-0.2 -0.5-0.5-0.7-1.2-0.3-1.5 0.3-0.4 1-0.3 1.6 0.2C31.2 95.2 31.3 95.9 31 96.3L31 96.3zM31 96.3"/><path class="st1" d="M35.5 98.2c-0.1 0.5-0.8 0.7-1.5 0.5 -0.7-0.2-1.1-0.8-1-1.2 0.1-0.5 0.8-0.7 1.5-0.5C35.2 97.2 35.6 97.7 35.5 98.2L35.5 98.2zM35.5 98.2"/><path class="st1" d="M40.4 98.6c0 0.5-0.6 0.9-1.3 0.9 -0.7 0-1.3-0.4-1.3-0.9 0-0.5 0.6-0.9 1.3-0.9C39.8 97.7 40.4 98.1 40.4 98.6L40.4 98.6zM40.4 98.6"/><path class="st1" d="M45 97.8c0.1 0.5-0.4 1-1.1 1.1 -0.7 0.1-1.3-0.2-1.4-0.7 -0.1-0.5 0.4-1 1.1-1.1C44.3 97 44.9 97.3 45 97.8L45 97.8zM45 97.8"/></svg>