<svg xmlns:sketch="http://www.bohemiancoding.com/sketch/ns" xmlns="http://www.w3.org/2000/svg" xmlns:xlink="http://www.w3.org/1999/xlink" version="1.1" id="Layer_1" x="0" y="0" viewBox="0 0 174.1 385.3" xml:space="preserve" enable-background="new 0 0 174.1 385.3"><style type="text/css">
	.st0{fill:#DA4648;}
</style><title>gulp</title><desc>Created with Sketch.</desc><g id="Page-1" sketch:type="MSPage"><g id="gulp" sketch:type="MSArtboardGroup"><g id="Gulp-Logo" transform="translate(0.000000, 1.000000)" sketch:type="MSLayerGroup"><path id="Cup" sketch:type="MSShapeGroup" class="st0" d="M86.2 303c-22.6 0-40-3.4-48.4-5.4 -5.7-1.4-10.3-2.8-13.8-4.3l11.2 19.1 4.4 59.7c0 6.7 21.3 12.1 47.5 12.1s47.5-5.4 47.5-12.1l3.5-60.4 10.6-18.5c-3.5 1.5-8.2 2.9-14 4.3C126.3 299.6 108.8 303 86.2 303zM149 108.7c-16.6 2.3-38.6 3.6-61.9 3.6s-45.3-1.3-61.9-3.6c-8.2-1.1-14.7-2.5-19.3-4 -1.1-0.4-3-1-4.7-2l10.3 94.5c0.5-1.6 1-3.3 1.6-4.9 1.2-3.3 2.6-6.6 4.2-9.7 1.6-3.2 3.3-6.2 5.2-9 1.9-2.8 3.8-5.4 5.9-7.8 2.1-2.4 4.3-4.4 6.5-6.1 2.2-1.7 4.4-3 6.7-4 2.3-1 4.5-1.4 6.7-1.4 2.5 0 5 0.7 7.4 2.1 2.4 1.4 4.6 3.6 6.7 6.8 0.5 0.7 0.8 1.4 0.9 2.1 0.1 0.7 0.2 1.4 0.2 2 0 1.5-0.4 2.7-1.1 3.5 -0.7 0.9-1.6 1.3-2.5 1.3 -0.9 0-1.7-0.5-2.5-1.4 -0.8-0.9-1.6-2.3-2.6-4.1 -0.9-1.6-1.9-2.7-3-3.5 -1.1-0.7-2.2-1.1-3.5-1.1 -2 0-4.1 0.8-6.3 2.4 -2.2 1.6-4.4 3.8-6.6 6.4 -2.2 2.7-4.3 5.7-6.3 9.2 -2 3.4-3.8 7-5.3 10.6 -1.5 3.6-2.8 7.2-3.7 10.7 -0.9 3.5-1.4 6.6-1.4 9.4 0 0.9 0.1 1.9 0.2 2.9 0.1 1 0.4 1.9 0.7 2.7 0.3 0.8 0.8 1.5 1.4 2 0.6 0.5 1.4 0.8 2.3 0.8 1 0 2.2-0.3 3.5-1 1.3-0.7 2.7-1.6 4.1-2.7 1.4-1.1 2.8-2.4 4.3-3.8 1.4-1.4 2.8-2.9 4-4.3 1.2-1.5 2.3-2.9 3.3-4.2 1-1.3 1.7-2.5 2.1-3.5l3.9-11.7c0.5-1.3 1.1-2.2 1.9-2.7 0.8-0.5 1.6-0.8 2.4-0.8 0.4 0 0.8 0.1 1.2 0.2 0.4 0.1 0.7 0.3 1.1 0.6 0.3 0.3 0.6 0.6 0.7 1.1 0.2 0.4 0.3 1 0.3 1.6 0 1.6-0.1 3.1-0.4 4.5 -0.3 1.4-0.6 2.8-1.1 4.1 -0.4 1.3-0.9 2.7-1.5 4 -0.5 1.3-1.1 2.7-1.6 4.2 -0.1 0.2-0.3 0.7-0.6 1.6 -0.3 0.9-0.7 2-1.1 3.3 -0.4 1.3-0.9 2.8-1.4 4.5 -0.5 1.6-1 3.3-1.5 5 -0.5 1.7-1 3.4-1.5 5 -0.5 1.6-0.9 3.1-1.3 4.5 -0.4 1.3-0.7 2.4-0.9 3.3 -0.3 0.9-0.4 1.4-0.5 1.6 -0.1 0.5-0.4 1.1-0.7 1.8 -0.3 0.6-0.7 1.3-1.1 1.8 -0.4 0.6-0.9 1.1-1.4 1.4 -0.5 0.4-1 0.6-1.6 0.6 -0.9 0-1.5-0.3-2-0.9 -0.4-0.6-0.6-1.7-0.6-3.3v-0.7c0-0.2 0-0.5 0-0.7 0-0.5 0.2-1.5 0.6-3 0.4-1.5 0.9-3.1 1.4-5 0.5-1.8 1.1-3.8 1.8-5.7 0.6-2 1.2-3.7 1.7-5.3 -1.5 1.7-3.1 3.3-4.8 5 -1.7 1.6-3.5 3.1-5.3 4.4 -1.8 1.3-3.7 2.4-5.5 3.2 -1.8 0.8-3.6 1.2-5.3 1.2 -2 0-3.6-0.4-5.1-1.3 -0.3-0.2-0.5-0.3-0.7-0.5l5.7 59.9c1.5 3.7 29.5 12.9 66.4 12.9 36.9 0 64.9-9.2 66.4-12.9l8.2-71.2c-0.7 0.6-1.3 1.2-2 1.8 -2.4 2.2-4.6 4.1-6.7 5.6 -2.1 1.6-4.1 2.8-6.1 3.7 -2 0.9-4.1 1.3-6.4 1.3 -2.1 0-3.8-0.5-4.9-1.4 -1.2-0.9-1.7-2.2-1.7-3.8v-0.4c0-0.1 0-0.3 0-0.4 0.1-1 0.5-2.1 1.3-3.4 0.8-1.3 1.7-2.6 2.7-4 1.1-1.4 2.2-2.8 3.4-4.2 1.2-1.4 2.3-2.8 3.3-4.1 1-1.3 1.9-2.4 2.5-3.5 0.7-1.1 1-1.9 1-2.6 0-0.4-0.1-0.7-0.4-0.9 -0.3-0.2-0.7-0.3-1.4-0.3 -1.1 0-2.3 0.3-3.5 0.9 -1.2 0.6-2.4 1.4-3.5 2.3 -1.2 1-2.3 2.1-3.4 3.4 -1.1 1.3-2.1 2.6-3.1 3.9 -1 1.4-1.8 2.7-2.6 4.1 -0.8 1.4-1.5 2.6-2 3.8 -0.2 0.4-0.4 0.9-0.7 1.5 -0.3 0.7-0.6 1.4-1 2.2 -0.4 0.8-0.8 1.7-1.2 2.6 -0.4 0.9-0.8 1.7-1.1 2.5 -0.3 0.8-0.6 1.5-0.9 2.1 -0.3 0.6-0.5 1-0.6 1.3 -0.1 0.3-0.4 0.9-0.7 1.7 -0.3 0.8-0.7 1.8-1.1 2.9 -0.4 1.1-0.9 2.3-1.3 3.5 -0.5 1.2-0.9 2.4-1.3 3.5 -0.4 1.1-0.8 2.1-1.1 2.9 -0.3 0.8-0.5 1.4-0.6 1.7 -0.3 0.9-0.6 1.7-1 2.4 -0.4 0.8-0.8 1.4-1.3 2 -0.5 0.6-1.1 1-1.7 1.4 -0.6 0.4-1.3 0.5-2.1 0.5 -1 0-1.8-0.2-2.5-0.7 -0.7-0.5-1-1.4-1-2.8 0-0.7 0.1-1.3 0.3-2 0.2-0.7 0.4-1.4 0.6-2.1 0.3-0.7 0.5-1.3 0.8-2 0.3-0.6 0.5-1.3 0.7-1.9 1.5-3.3 3.1-6.6 4.6-10 1.6-3.3 3.1-6.6 4.5-9.9 0.3-0.7 0.6-1.4 0.9-2 -0.1 0.1-0.2 0.2-0.3 0.3 -1.8 1.8-3.6 3.3-5.4 4.7 -1.8 1.3-3.6 2.4-5.4 3.2 -1.8 0.8-3.5 1.2-5.2 1.2 -1.1 0-2.1-0.2-2.9-0.5 -0.8-0.4-1.4-0.9-1.8-1.5 -0.5-0.6-0.8-1.4-1-2.2 -0.1-0.3-0.1-0.6-0.2-0.9 -0.5 0.4-1 0.8-1.5 1.1 -1.7 1.2-3.4 2.2-5.1 3 -1.7 0.7-3.2 1.1-4.5 1.1 -1.3 0-2.4-0.4-3.3-1.3 -0.8-0.9-1.3-2.4-1.3-4.6 0-1.5 0.2-3.3 0.7-5.3 -0.7 1.3-1.6 2.6-2.7 3.9 -1.1 1.3-2.3 2.5-3.7 3.6 -1.4 1.1-3 2-4.7 2.7 -1.7 0.7-3.6 1-5.7 1 -0.9 0-1.8-0.1-2.7-0.3 -0.9-0.2-1.6-0.6-2.2-1.2 -0.6-0.6-1.2-1.3-1.6-2.3 -0.4-0.9-0.6-2.1-0.6-3.6 0 0 0.1-0.5 0.2-1.5 0.1-1 0.5-2.5 1.1-4.6 0.6-2.1 1.5-4.8 2.8-8.2 1.3-3.4 3-7.4 5.3-12.2 0.6-1.3 1.3-2.2 2-2.7 0.8-0.5 1.6-0.8 2.5-0.8 0.4 0 0.8 0.1 1.2 0.2 0.4 0.1 0.8 0.3 1.2 0.5 0.4 0.2 0.7 0.6 0.9 0.9 0.2 0.4 0.3 0.8 0.3 1.3 0 0.3 0 0.6-0.1 0.9 -0.1 0.6-0.4 1.3-0.9 2.2 -0.5 0.9-1 2-1.6 3.1 -0.6 1.2-1.3 2.4-2 3.8 -0.7 1.4-1.3 2.8-1.9 4.2 -0.6 1.5-1.1 2.9-1.5 4.5 -0.4 1.5-0.7 3-0.7 4.4 0 0.6 0.1 1.1 0.4 1.6 0.3 0.5 0.7 0.7 1.4 0.7 1.8 0 3.6-0.6 5.2-1.8 1.7-1.2 3.2-2.7 4.6-4.5 1.4-1.8 2.7-3.7 3.8-5.7 1.1-2 2.1-3.9 2.8-5.6 0.5-1.1 1-2.3 1.4-3.6 0.4-1.3 0.8-2.5 1.3-3.6 0.5-1.1 1-2 1.6-2.7 0.6-0.7 1.4-1.1 2.3-1.1 1 0 1.8 0.4 2.4 1.1 0.6 0.8 0.9 1.7 0.9 2.7 0 0.6-0.2 1.4-0.6 2.5 -0.4 1-0.9 2.2-1.4 3.6 -0.6 1.3-1.2 2.8-1.9 4.3 -0.7 1.5-1.3 3.1-1.9 4.7 -0.6 1.6-1.1 3.1-1.4 4.6 -0.4 1.5-0.6 2.9-0.6 4.2 0 1.2 0.6 1.8 1.8 1.8 0.9 0 1.9-0.3 3.2-0.9 1.3-0.6 2.6-1.4 4.1-2.5 0.4-0.3 0.7-0.6 1.1-0.8 0.4-1.6 0.9-3.1 1.4-4.5 1-2.6 2-5.2 3-7.7 1-2.6 1.9-4.9 2.8-7l12.7-32.1c0.5-1.3 1.2-2.2 2-2.7 0.9-0.5 1.7-0.8 2.6-0.8 0.9 0 1.7 0.3 2.4 0.8 0.7 0.6 1.1 1.5 1.1 2.7 0 0.6-0.1 1.2-0.4 1.9 -0.2 0.7-0.5 1.4-0.9 2.1 -0.7 1.6-1.5 3.5-2.5 5.7 -1 2.3-2 4.7-3.1 7.4 -1.1 2.7-2.2 5.4-3.4 8.3 -1.2 2.9-2.3 5.7-3.4 8.4 -1.1 2.7-2.1 5.3-3.1 7.7 -1 2.4-1.8 4.6-2.5 6.3 -0.3 0.8-0.6 1.7-0.9 2.7 -0.3 1-0.4 1.9-0.4 2.7 0 0.5 0.1 0.9 0.3 1.2s0.5 0.4 1 0.4c0.6 0 1.3-0.2 2.2-0.6 0.9-0.4 1.8-1 2.9-1.6 1-0.7 2.1-1.5 3.2-2.3 1.1-0.9 2.2-1.8 3.3-2.7 1.1-0.9 2.1-1.9 3.1-2.8 1-0.9 1.9-1.8 2.7-2.6 0.2-0.2 0.4-0.3 0.6-0.4 0.5-1.4 0.9-2.8 1.3-4.2 0.2-0.6 0.5-1.4 0.9-2.5 0.4-1.1 0.8-2.2 1.3-3.2 0.5-1.1 1.1-2 1.7-2.8 0.6-0.8 1.3-1.2 2-1.2 1.1 0 1.9 0.3 2.4 0.8 0.5 0.5 0.8 1.3 0.8 2.3 0 0.2 0 0.5-0.1 0.9 -0.1 0.4-0.1 0.9-0.2 1.4 -0.1 0.5-0.2 0.9-0.3 1.4 -0.1 0.4-0.2 0.7-0.3 0.9 1-1.1 2.2-2.2 3.4-3.4 1.2-1.1 2.5-2.1 3.7-3 1.3-0.9 2.6-1.6 4-2.2 1.3-0.6 2.7-0.8 4-0.8 0.9 0 1.8 0.1 2.8 0.4 0.9 0.3 1.7 0.7 2.4 1.2 0.7 0.5 1.3 1.2 1.7 1.9 0.4 0.8 0.7 1.7 0.7 2.7 0 1.4-0.3 2.8-1 4.4 -0.7 1.5-1.5 3.1-2.6 4.7 -1 1.6-2.2 3.1-3.4 4.6 -1.2 1.5-2.3 2.8-3.4 4 -1.1 1.2-1.9 2.2-2.6 3.1 -0.7 0.8-1.1 1.4-1.1 1.7 0 0.4 0.1 0.7 0.4 1 0.3 0.2 0.7 0.4 1.3 0.4 0.5 0 1.2-0.3 2.1-0.8 0.9-0.5 2.2-1.5 3.9-2.8s3.8-3.1 6.3-5.3c1.8-1.5 3.8-3.3 6.1-5.4L173 102.7c-1.8 1-3.7 1.6-4.8 2C163.7 106.2 157.2 107.6 149 108.7zM87 84.3c-48 0-87 5.4-87 12 0 6.6 39 12 87 12s87-5.4 87-12C174 89.7 135 84.3 87 84.3zM121.7 99.8c0 1.6-4.6 2.8-10.3 2.8 -5.7 0-10.3-1.3-10.3-2.8 0-1.6 4.6-2.8 10.3-2.8C117.1 97 121.7 98.2 121.7 99.8z"/><path id="Straw" sketch:type="MSShapeGroup" class="st0" d="M103.2 98.6c-0.1 0.1-0.1 0.2-0.1 0.3 0 1 3.7 1.8 8.3 1.8 4.6 0 8.3-0.8 8.3-1.8l10.9-44.1 43.2-45.6c0 0 0 0 0 0 0.9-1-0.9-4.2-4-7 -3.1-2.7-6.4-3.7-7.4-2.6 0 0 0 0 0 0L116.3 48 103.2 98.6z"/></g></g></g></svg>