<svg xmlns="http://www.w3.org/2000/svg" xmlns:xlink="http://www.w3.org/1999/xlink" version="1.1" id="Layer_1" x="0" y="0" viewBox="0 0 451 512" xml:space="preserve" enable-background="new 0 0 451 512"><style type="text/css">
	.st0{fill:#E34F26;}
	.st1{fill:#EF652A;}
	.st2{fill:#EBEBEB;}
	.st3{fill:#FFFFFF;}
</style><title>HTML5 Logo Badge</title><path class="st0" d="M41 460L0 0h451l-41 460 -185 52"/><path class="st1" d="M226 472l149-41 35-394H226"/><path class="st2" d="M226 208h-75l-5-58h80V94h-1H84l1 15 14 156h127V208zM226 355h-1l-63-17 -4-45h-30 -26l7 89 116 32h1V355z"/><path class="st3" d="M225 208v57h70l-7 73 -63 17v59l116-32 1-10 13-149 2-15h-16H225zM225 94v35 21l0 0h137l0 0 0 0 1-12 3-29 1-15H225z"/></svg>