<?xml version="1.0" encoding="iso-8859-1"?>
<!-- Generator: Adobe Illustrator 19.0.0, SVG Export Plug-In . SVG Version: 6.00 Build 0)  -->
<svg version="1.1" id="Layer_1" xmlns="http://www.w3.org/2000/svg" xmlns:xlink="http://www.w3.org/1999/xlink" x="0px" y="0px"
	 viewBox="0 0 512 512" style="enable-background:new 0 0 512 512;" xml:space="preserve">
<path style="fill:#F8EBC8;" d="M258.391,17.884c-6.935-5-15.75-6.784-24.156-4.896c-8.622,1.94-16.014,7.5-20.285,15.255
	c-77.447,140.655,37.864,255.038,39.036,256.175c1.651,1.599,3.858,2.492,6.146,2.492c0.116,0,0.233-0.004,0.349-0.009
	c2.414-0.095,4.685-1.176,6.28-2.992l55.782-63.437c0.38-0.427,0.715-0.897,1-1.388C351.506,169.289,363.881,93.965,258.391,17.884z
	"/>
<path style="fill:#FFEB6E;" d="M258.893,197.9c-19.564,0-37.506,6.916-51.538,18.423c19.134,41.804,45.077,67.557,45.63,68.094
	c1.651,1.599,3.858,2.492,6.146,2.492c0.116,0,0.233-0.004,0.349-0.009c2.414-0.095,4.685-1.176,6.28-2.992l52.697-59.929
	C303.604,207.976,282.452,197.9,258.893,197.9z"/>
<path style="fill:#FFC32D;" d="M258.963,221.054c-15.803,0-30.115,6.317-40.608,16.536c16.786,29.088,34.179,46.39,34.631,46.828
	c1.651,1.599,3.858,2.492,6.146,2.492c0.116,0,0.233-0.004,0.349-0.009c2.414-0.095,4.685-1.176,6.28-2.992l37.376-42.506
	C292.457,228.963,276.646,221.054,258.963,221.054z"/>
<path style="fill:#F5E1B9;" d="M267.699,278.533c-1.173-1.138-116.482-115.52-39.036-256.175c2.109-3.828,4.989-7.109,8.391-9.696
	c-0.941,0.119-1.885,0.117-2.819,0.327c-8.622,1.94-16.014,7.5-20.285,15.255c-77.447,140.655,37.864,255.038,39.036,256.175
	c1.651,1.599,3.858,2.492,6.146,2.492c0.116,0,0.233-0.004,0.349-0.009c2.414-0.095,4.685-1.176,6.28-2.992l3.712-4.221
	C268.862,279.332,268.216,279.033,267.699,278.533z"/>
<path style="fill:#FFF5DC;" d="M508.511,185.303c-4.116-7.819-11.414-13.504-20.009-15.604
	c-155.953-38.104-236.351,103.02-237.149,104.447c-1.185,2.142-1.431,4.677-0.676,7.005c0.755,2.328,2.44,4.237,4.656,5.276
	l84.054,39.329c0.612,0.289,1.259,0.5,1.918,0.642l1.465,0.306c9.427,1.94,19.471,3.155,29.88,3.155
	c47.156,0,101.542-24.932,137.435-119.956C513.106,201.898,512.532,192.933,508.511,185.303z"/>
<path style="fill:#FFF073;" d="M251.352,274.147c-1.185,2.142-1.431,4.677-0.676,7.005c0.755,2.328,2.44,4.237,4.656,5.276
	l73.406,34.346c7.253-12.168,11.495-26.339,11.495-41.534c0-27.719-13.891-52.166-35.065-66.852
	C269.82,241.744,251.728,273.473,251.352,274.147z"/>
<path style="fill:#FFCD32;" d="M251.352,274.147c-1.185,2.142-1.431,4.677-0.676,7.005c0.755,2.328,2.44,4.237,4.656,5.276
	l52.464,24.548c5.931-9.124,9.409-19.987,9.409-31.68c0-21.788-11.985-40.752-29.702-50.739
	C263.819,252.323,251.659,273.597,251.352,274.147z"/>
<g>
	<path style="fill:#F8EBC8;" d="M262.387,289.595c0.798-1.427,81.196-142.552,237.149-104.447c4.03,0.984,7.733,2.818,10.998,5.229
		c-0.543-1.73-1.164-3.444-2.024-5.075c-4.116-7.819-11.414-13.504-20.009-15.604c-155.953-38.104-236.351,103.02-237.149,104.447
		c-1.185,2.142-1.431,4.677-0.676,7.005c0.755,2.328,2.44,4.237,4.656,5.276l7.02,3.285
		C262.37,289.675,262.367,289.631,262.387,289.595z"/>
	<path style="fill:#F8EBC8;" d="M261.309,269.448c-2.384-0.491-4.897,0-6.914,1.401c-2.008,1.409-3.34,3.586-3.677,6.017
		l-12.996,93.438c-0.095,0.676-0.113,1.357-0.047,2.039c4.957,52.954,36.82,117.783,160.47,125.896
		c0.647,0.039,1.298,0.061,1.944,0.061c7.853,0,15.466-3.121,21.126-8.729c6.28-6.22,9.599-14.854,9.104-23.695
		C421.331,305.565,262.909,269.792,261.309,269.448z"/>
</g>
<path style="fill:#FFEB6E;" d="M336.609,303.295c-38.587-25.539-74.542-33.684-75.3-33.847c-2.384-0.491-4.897,0-6.914,1.401
	c-2.008,1.409-3.34,3.586-3.677,6.017l-11.303,81.266c6.252,1.539,12.752,2.446,19.479,2.446
	C295.441,360.578,326.351,336.472,336.609,303.295z"/>
<path style="fill:#FFC32D;" d="M316.019,291.042c-29.897-15.959-54.09-21.461-54.711-21.594c-2.384-0.491-4.897,0-6.914,1.401
	c-2.008,1.409-3.34,3.586-3.677,6.017l-8.109,58.3c5.193,1.517,10.67,2.37,16.354,2.37
	C287.105,337.537,310.585,317.577,316.019,291.042z"/>
<path style="fill:#F5E1B9;" d="M261.309,269.448c-2.384-0.491-4.897,0-6.914,1.401c-2.008,1.409-3.34,3.586-3.677,6.017
	l-1.423,10.233c0.575,0.007,1.147-0.114,1.715,0.004c1.599,0.345,160.023,36.117,169.009,196.429
	c0.142,2.536-0.113,5.032-0.578,7.482c0.583-0.495,1.226-0.9,1.773-1.443c6.28-6.22,9.599-14.854,9.104-23.695
	C421.331,305.565,262.909,269.792,261.309,269.448z"/>
<path style="fill:#F8EBC8;" d="M268.068,277.267c-0.242-2.496-1.535-4.776-3.552-6.263c-2.022-1.483-4.577-2.044-7.03-1.535
	L151.728,291.43c-0.841,0.172-1.651,0.47-2.406,0.875c-41.648,22.513-85.515,72.804-58.001,184.532
	c2.044,8.306,7.595,15.371,15.234,19.376c4.47,2.349,9.402,3.534,14.354,3.534c3.711,0,7.435-0.668,10.983-2.013
	C281.995,440.725,268.223,278.892,268.068,277.267z"/>
<path style="fill:#FFEB6E;" d="M257.486,269.469l-79.59,16.528c3.423,41.516,37.971,74.176,80.283,74.545
	c13.107-45.066,9.963-82.498,9.889-83.275c-0.242-2.496-1.535-4.776-3.552-6.263C262.495,269.521,259.938,268.96,257.486,269.469z"
	/>
<path style="fill:#FFC32D;" d="M264.517,271.004c-2.022-1.483-4.577-2.044-7.03-1.535l-56.667,11.768
	c1.033,31.259,26.634,56.301,58.144,56.301c1.62,0,3.212-0.113,4.798-0.243c6.488-34.003,4.368-59.389,4.307-60.027
	C267.827,274.771,266.534,272.491,264.517,271.004z"/>
<path style="fill:#F5E1B9;" d="M268.068,277.267c-0.242-2.496-1.535-4.776-3.552-6.263c-2.022-1.483-4.577-2.044-7.03-1.535
	l-10.149,2.108c0.397,0.876,0.775,1.77,0.868,2.747c0.156,1.625,13.927,163.458-136.176,220.468c-1.738,0.659-3.519,1.145-5.32,1.48
	c4.43,2.297,9.301,3.476,14.2,3.476c3.711,0,7.435-0.668,10.983-2.013C281.995,440.725,268.223,278.892,268.068,277.267z"/>
<path style="fill:#FFF5DC;" d="M259.481,286.901c-0.116,0.004-0.233,0.009-0.349,0.009c-2.289,0-4.496-0.893-6.146-2.492
	c-0.731-0.71-45.762-45.396-60.878-113.001c-38.317-25.387-95.992-36.182-178.953,19.994c-7.082,4.798-11.785,12.453-12.896,21.005
	c-1.142,8.763,1.539,17.617,7.354,24.29c49.187,56.454,107.391,71.58,155.677,71.58c55.26,0,97.525-19.833,98.309-20.211
	c1.695-0.817,2.908-2.244,3.783-3.877C263.812,285.797,261.734,286.812,259.481,286.901z"/>
<path style="fill:#FFF073;" d="M259.133,286.909c-2.289,0-4.496-0.893-6.146-2.492c-0.553-0.536-26.477-26.307-45.608-68.11
	c-18.201,14.917-29.823,37.563-29.823,62.932c0,9.943,1.873,19.427,5.138,28.235c45.454-3.71,78.215-19.067,78.904-19.401
	c1.695-0.817,2.908-2.244,3.783-3.877c-1.569,1.6-3.648,2.615-5.899,2.704C259.366,286.905,259.249,286.909,259.133,286.909z"/>
<path style="fill:#FFCD32;" d="M265.381,284.197c-1.569,1.6-3.648,2.615-5.899,2.704c-0.116,0.004-0.233,0.009-0.349,0.009
	c-2.289,0-4.496-0.893-6.146-2.492c-0.451-0.438-17.817-17.703-34.588-46.756c-10.87,10.564-17.677,25.272-17.677,41.633
	c0,8.991,2.097,17.473,5.736,25.076c28.464-5.05,48.736-13.457,53.861-15.719c0.07-0.031,0.153-0.067,0.216-0.095
	c0.582-0.259,1.002-0.454,1.065-0.483c0.889-0.428,1.608-1.088,2.294-1.768C264.468,285.671,264.97,284.964,265.381,284.197z"/>
<path style="fill:#F8EBC8;" d="M262.432,268.672c-0.299,0.192-0.511,0.487-0.834,0.642c-0.785,0.38-43.049,20.211-98.309,20.211
	c-48.286,0-106.49-15.125-155.677-71.58c-2.786-3.198-4.805-6.914-6.077-10.865c-0.557,1.732-1.038,3.499-1.277,5.334
	c-1.142,8.763,1.539,17.617,7.354,24.29c49.187,56.454,107.391,71.58,155.677,71.58c55.26,0,97.525-19.833,98.309-20.211
	c2.229-1.074,3.901-3.035,4.617-5.402c0.712-2.367,0.401-4.927-0.862-7.052C265.352,275.621,264.289,272.967,262.432,268.672z"/>
<circle style="fill:#FFAA28;" cx="258.899" cy="279.236" r="19.929"/>
<g>
</g>
<g>
</g>
<g>
</g>
<g>
</g>
<g>
</g>
<g>
</g>
<g>
</g>
<g>
</g>
<g>
</g>
<g>
</g>
<g>
</g>
<g>
</g>
<g>
</g>
<g>
</g>
<g>
</g>
</svg>
