<svg xmlns="http://www.w3.org/2000/svg" xmlns:xlink="http://www.w3.org/1999/xlink" version="1.1" id="Layer_1" x="0" y="0" viewBox="0 0 630 630" xml:space="preserve" enable-background="new 0 0 630 630"><style type="text/css">
	.st0{fill:#F7DF1E;}
</style><rect class="st0" width="630" height="630"/><path d="M423.2 492.2c12.7 20.7 29.2 36 58.4 36 24.5 0 40.2-12.3 40.2-29.2 0-20.3-16.1-27.5-43.1-39.3l-14.8-6.4c-42.7-18.2-71.1-41-71.1-89.2 0-44.4 33.8-78.2 86.7-78.2 37.6 0 64.7 13.1 84.2 47.4l-46.1 29.6c-10.1-18.2-21.1-25.4-38.1-25.4 -17.3 0-28.3 11-28.3 25.4 0 17.8 11 25 36.4 36l14.8 6.3c50.3 21.6 78.7 43.6 78.7 93 0 53.3-41.9 82.5-98.1 82.5 -55 0-90.5-26.2-107.9-60.5L423.2 492.2zM214.1 497.3c9.3 16.5 17.8 30.5 38.1 30.5 19.5 0 31.7-7.6 31.7-37.2V289.3h59.2v202.1c0 61.3-35.9 89.2-88.4 89.2 -47.4 0-74.9-24.5-88.8-54.1L214.1 497.3z"/></svg>