<svg xmlns="http://www.w3.org/2000/svg" xmlns:xlink="http://www.w3.org/1999/xlink" version="1.1" id="Layer_1" x="0" y="0" viewBox="0 0 229.4 410" xml:space="preserve" enable-background="new 0 0 229.4 410"><style type="text/css">
	.st0{opacity:0.1;enable-background:new    ;}
	.st1{fill:url(#tube_2_);}
	.st2{fill:url(#liquid_2_);}
	.st3{fill:#333333;}
	.st4{opacity:0.3;fill:#FFFFFF;enable-background:new    ;}
	.st5{opacity:0.5;fill:#FFFFFF;enable-background:new    ;}
</style><g id="logo-bg-light"><g id="test-tube_1_"><path id="shadow_1_" class="st0" d="M127.7 8.2c-0.2 0.7-0.2 1.5 0 2.4 0 0 2.5 16.6-0.3 24L6.3 349.2l0 0c-8.6 23.1 2.9 48.9 26 57.8 23.1 8.9 49-2.5 58-25.5l0 0 121-314.6c2.4-6.2 15.9-18.1 15.9-18.1 0.7-0.5 1.2-1.1 1.6-1.8l0.1-0.1c0.1-0.1 0.1-0.3 0.2-0.4 3.1-8.1-17-23.4-45-34.2C156.2 1.6 131-0.5 127.9 7.6c-0.1 0.1-0.1 0.3-0.1 0.4L127.7 8.2z"/><linearGradient id="tube_2_" gradientUnits="userSpaceOnUse" x1="4.48" y1="239.82" x2="81.15" y2="163.15" gradientTransform="matrix(0.9138 -0.4062 -0.4062 -0.9138 147.4831 408.5128)"><stop offset="0" stop-color="#919191"/><stop offset="1" stop-color="#FFFFFF"/></linearGradient><path id="tube_1_" class="st1" d="M124.2 5.5c-0.2 0.7-0.2 1.5 0 2.4 0 0 2.5 16.6-0.3 24L2.8 346.5l0 0c-8.6 23.1 2.9 48.9 26 57.8 23.1 8.9 49-2.5 58-25.5l0 0 121-314.6c2.4-6.2 15.9-18.1 15.9-18.1 0.7-0.5 1.2-1.1 1.6-1.8l0.1-0.1c0.1-0.1 0.1-0.3 0.2-0.4 3.1-8.1-17-23.4-45-34.2 -27.9-10.7-53.1-12.9-56.3-4.8 -0.1 0.1-0.1 0.3-0.1 0.4L124.2 5.5z"/><linearGradient id="liquid_2_" gradientUnits="userSpaceOnUse" x1="-24.35" y1="181.33" x2="22.06" y2="134.91" gradientTransform="matrix(0.9138 -0.4062 -0.4062 -0.9138 147.4831 408.5128)"><stop offset="0" stop-color="#990000"/><stop offset="1" stop-color="#E80000"/></linearGradient><path id="liquid_1_" class="st2" d="M162.2 147.8L74.9 374.7l0.1 0c-6.4 16.3-25.2 24.7-41.8 18.3 -16.6-6.4-25.6-25.5-19.5-41.9l0 0 55.8-145c0 0 7-11.2 20.6-19.2 13.7-8 24.9-6.3 40.1-13.1C145.4 167.2 162.2 147.8 162.2 147.8z"/><ellipse id="top_1_" transform="matrix(0.359 -0.9333 0.9333 0.359 88.4431 179.207)" class="st3" cx="174.7" cy="25.2" rx="8.9" ry="33.6"/><path id="side-reflection_1_" class="st4" d="M124.2 7.8c0 0 2.5 16.7-0.3 24L2.8 346.5l0 0c-8.6 23.1 2.9 48.9 26 57.8 4 1.5 8.1 2.5 12.2 2.8 -15.6-11.7-22.2-32.6-15.1-51.7l0 0L144.5 47C144.5 47 128.4 31.9 124.2 7.8z"/><g id="bubbles_1_"><circle class="st5" cx="85.2" cy="210.8" r="3.5"/><circle class="st5" cx="108.2" cy="236.2" r="5.3"/><circle class="st5" cx="73.1" cy="266.5" r="9.9"/><circle class="st5" cx="57.1" cy="284.8" r="5.3"/><circle class="st5" cx="78.1" cy="324" r="3.5"/></g></g></g></svg>