<?xml version="1.0" encoding="utf-8"?>
<!-- Generator: Adobe Illustrator 18.1.1, SVG Export Plug-In . SVG Version: 6.00 Build 0)  -->
<!DOCTYPE svg PUBLIC "-//W3C//DTD SVG 1.1//EN" "http://www.w3.org/Graphics/SVG/1.1/DTD/svg11.dtd">
<svg version="1.1" id="Layer_1" xmlns="http://www.w3.org/2000/svg" xmlns:xlink="http://www.w3.org/1999/xlink" x="0px" y="0px"
	 viewBox="0 0 207 300" enable-background="new 0 0 207 300" xml:space="preserve">
<g>
	<path fill="#252525" d="M48.4,128.5c0-1.8,0.3-3.5,0.7-5.1c0.4-1.5,1.1-2.9,1.9-4c1.6-2.3,3.6-3.7,5.8-4.6c1.2-0.5,2.4-0.8,3.7-1.2
		c1.3-0.3,2.8-0.5,4.3-0.7c3-0.3,6.3-0.3,10,0.2c1.3,0.2,2.9,0.4,5.4,1c1.2,0.3,2.6,0.7,4.3,1.2c1.7,0.5,3.6,1.2,5.8,2
		c2.3,0.9,4.9,1.8,7.6,2.9c2.8,1,5.8,2.1,9,3.1c3.3,1,6.9,1.8,10.8,2.3c3.9,0.4,8.1,0.4,12.2-0.3c2.1-0.3,4.1-0.9,6.2-1.6
		c2-0.7,4-1.5,5.9-2.5c1.9-1,3.8-2.2,5.5-3.5c1.7-1.4,3.4-2.9,4.9-4.5c1.5-1.7,2.8-3.4,4-5.3c1.1-1.9,2.1-3.9,2.9-5.9
		c1.6-4,2.4-8.2,2.7-12.3c0.2-2,0.1-4.1,0-6c-0.1-2-0.4-3.9-0.7-5.8c-0.7-3.8-1.7-7.3-3-10.5c-1.4-3.4-3.2-6.5-5.2-9
		c-2-2.6-4.1-4.7-6.2-6.4c-1.6-1.3-3.1-2.4-4.5-3.4c0.1-0.3,0.3-0.6,0.4-1c0.2-0.5,0.4-0.9,0.5-1.4c0.1-0.5,0.3-0.9,0.4-1.4
		c0.2-0.5,0.3-0.9,0.4-1.4c0.1-0.5,0.2-0.9,0.3-1.4c0.1-0.5,0.2-0.9,0.2-1.4l0.1-0.7l0.1-0.7c0-0.5,0.1-0.9,0.1-1.4
		c0-0.5,0-0.9,0.1-1.4c0.1-0.9,0-1.8,0-2.7c-0.1-1.8-0.3-3.5-0.6-5.1c-0.1-0.8-0.4-1.6-0.5-2.5c-0.1-0.4-0.2-0.8-0.3-1.2
		c-0.1-0.4-0.3-0.8-0.4-1.2c-0.2-0.5-0.3-0.9-0.5-1.4c-0.1-0.2-0.2-0.4-0.2-0.7c-0.1-0.2-0.2-0.4-0.3-0.6c-0.4-0.9-0.7-1.7-1.1-2.5
		c-0.4-0.8-0.9-1.5-1.3-2.3c-0.1-0.2-0.2-0.4-0.3-0.5c-0.1-0.2-0.2-0.3-0.4-0.5c-0.2-0.3-0.5-0.7-0.7-1c-0.2-0.3-0.5-0.6-0.7-1
		c-0.2-0.3-0.5-0.6-0.7-0.9c-0.5-0.6-1-1.1-1.5-1.7c-0.5-0.5-1-1-1.5-1.4c-0.2-0.2-0.5-0.5-0.7-0.7c-0.3-0.2-0.5-0.4-0.7-0.6
		c-0.5-0.4-1-0.8-1.4-1.1c-0.5-0.4-0.9-0.6-1.4-1c-0.5-0.3-0.9-0.6-1.3-0.9c-0.4-0.2-0.9-0.5-1.3-0.7c-1.6-0.9-3-1.5-4.2-2
		C118.5,0.6,114-0.1,110,0c-2,0-3.9,0.3-5.7,0.5c-0.9,0.2-1.8,0.4-2.7,0.6l-0.7,0.2l-0.7,0.2c-0.4,0.1-0.9,0.3-1.3,0.4
		c-3.4,1.2-6.5,2.9-9.2,5.3c-0.7,0.6-1.3,1.3-1.9,1.9c-0.3,0.3-0.6,0.7-0.8,1.1c-0.1,0.2-0.3,0.4-0.4,0.5l-0.4,0.6
		c-0.3,0.4-0.5,0.8-0.7,1.2c-0.2,0.4-0.4,0.8-0.6,1.2c-0.4,0.8-0.7,1.7-0.9,2.6c0.6-0.7,1.3-1.3,1.9-1.8c0.3-0.3,0.7-0.5,1-0.7
		c0.3-0.2,0.7-0.4,1-0.6l0.5-0.3c0.2-0.1,0.4-0.2,0.5-0.3c0.4-0.2,0.7-0.3,1-0.5c0.7-0.3,1.4-0.6,2.1-0.8c2.8-0.9,5.6-1.3,8.4-1.4
		c0.4,0,0.7,0,1.1,0l0.5,0l0.5,0c0.7,0,1.5,0,2.2,0c1.5,0.1,3,0.2,4.5,0.4c3,0.4,6.2,1.1,9.5,2.4c1.6,0.7,3.9,1.8,6.5,3.9
		c0.2,0.1,0.3,0.3,0.5,0.4c0.2,0.1,0.3,0.3,0.5,0.5c0.3,0.3,0.7,0.6,1,1c0.3,0.4,0.6,0.7,1,1.1c0.2,0.2,0.3,0.4,0.5,0.6
		c0.1,0.2,0.3,0.4,0.4,0.6c0.2,0.2,0.3,0.4,0.5,0.7l0.2,0.3c0.1,0.1,0.1,0.2,0.2,0.4c0.3,0.5,0.6,1,0.9,1.5c0.2,0.5,0.5,1.1,0.7,1.7
		c0.1,0.1,0.1,0.3,0.2,0.4c0,0.2,0.1,0.3,0.2,0.5c0.1,0.3,0.2,0.6,0.3,0.9c0.1,0.3,0.2,0.5,0.3,0.8c0.1,0.3,0.1,0.6,0.2,0.8
		c0.1,0.3,0.1,0.6,0.2,0.8c0.1,0.3,0.1,0.6,0.2,0.9c0.2,1.2,0.4,2.4,0.4,3.6c0,0.6,0,1.2,0,1.8c0,0.3,0,0.6,0,0.9
		c0,0.3-0.1,0.6-0.1,0.9l0,0.5l-0.1,0.5c-0.1,0.3-0.1,0.6-0.2,0.9c-0.1,0.3-0.1,0.6-0.2,0.9c-0.1,0.3-0.1,0.6-0.2,0.9
		c-0.1,0.3-0.2,0.6-0.3,0.9c-0.1,0.3-0.2,0.6-0.3,0.9c-0.2-0.1-0.3-0.1-0.3-0.1s-0.3-0.1-0.9-0.4c-0.3-0.1-0.7-0.3-1.1-0.4
		c-0.5-0.2-1-0.3-1.6-0.5c-1.2-0.4-2.7-0.8-4.4-1.2c-0.9-0.2-1.8-0.4-2.8-0.6c-1-0.2-2.1-0.4-3.2-0.5c-2.2-0.3-4.7-0.5-7.4-0.4
		c-2.7,0.1-5.6,0.3-8.7,1c-0.8,0.2-1.6,0.4-2.3,0.6c-0.8,0.3-1.6,0.5-2.4,0.8c-1.6,0.6-3.2,1.3-4.9,2.4c-1.7,1-3.4,2.4-4.9,4.4
		c-0.2,0.3-0.4,0.5-0.6,0.8l-0.3,0.4L86.2,50c-0.2,0.3-0.3,0.6-0.5,1c-0.1,0.4-0.3,0.7-0.4,1.1c-0.4,1.5-0.6,3.1-0.4,4.7
		c0.2,1.6,0.8,3.1,1.6,4.4c0.8,1.3,1.7,2.2,2.6,3.1C91,65.9,93,67,95,67.8c2,0.8,4,1.3,6,1.6c2,0.3,3.9,0.5,5.9,0.5l0.7,0l0.8,0
		c0.5,0,1,0,1.5-0.1c1-0.1,2-0.2,3-0.3c2-0.3,3.9-0.7,5.8-1.3c1.9-0.6,3.8-1.3,5.6-2.1c1.8-0.8,3.6-1.8,5.2-2.9
		c1.7-1.1,3.3-2.3,4.7-3.6c0.7-0.6,1.3-1.2,1.9-1.9c1.1,0.7,2.3,1.6,3.5,2.6c3.1,2.6,6.4,6.3,8.3,11c1,2.6,1.9,5.4,2.4,8.3
		c0.3,1.5,0.4,3,0.5,4.5c0.1,1.5,0.1,3.1,0,4.6c-0.2,3.1-0.9,6.1-2,9c-0.6,1.4-1.3,2.8-2,4.1c-0.8,1.3-1.7,2.5-2.7,3.7
		c-1,1.2-2.2,2.2-3.4,3.1c-1.2,1-2.5,1.8-3.9,2.5c-1.4,0.7-2.8,1.3-4.3,1.9c-1.5,0.5-3,0.9-4.5,1.1c-3,0.5-6,0.6-9,0.2
		c-3-0.3-5.9-1-8.8-1.9c-5.7-1.7-11.1-4-15.9-5.7c-2.4-0.9-4.5-1.6-6.4-2.2c-1.9-0.6-3.6-1-5-1.4c-2.9-0.7-5.1-1-6.7-1.2
		c-4.8-0.6-9.3-0.3-13.2,0.7c-2,0.5-3.8,1.1-5.6,2c-1.8,0.9-3.5,1.9-5,3.2c-1.5,1.3-2.8,2.8-3.8,4.5c-1,1.7-1.7,3.5-2,5.4
		c-0.3,1.9-0.3,3.7,0.1,5.5C46.9,125.2,47.5,126.9,48.4,128.5z M96,55.3C96,55.3,96,55.3,96,55.3L96,55.3z M123.3,53.8
		c-4.8,3.1-10.7,4.9-16.3,4.8c-1.5,0-2.9-0.1-4.2-0.3c-1.3-0.2-2.6-0.5-3.7-1c-1.1-0.4-2-1-2.5-1.4c-0.2-0.2-0.4-0.4-0.5-0.6
		c0,0,0-0.1,0-0.1c0,0,0.1-0.1,0.2-0.3c0.3-0.4,1-1,1.8-1.5c0.9-0.5,1.8-1,2.9-1.4c0.5-0.2,1.1-0.4,1.6-0.5c0.5-0.2,1.1-0.3,1.6-0.4
		c4.4-1,8.8-0.9,12.3-0.4c0.9,0.1,1.7,0.3,2.5,0.4c0.8,0.2,1.6,0.3,2.2,0.5c1.4,0.3,2.6,0.7,3.5,1c0.1,0,0.1,0,0.2,0.1
		C124.5,53,123.9,53.4,123.3,53.8z"/>
	<path fill="#252525" d="M195.9,167.6c-6-7.2-13.9-11.9-21.9-13.6V138H31v91c0,26,9,46,27,56.7V300h89v-13.6
		c5-2.9,8.7-6.7,12.4-11.1c6.5-7.8,10.7-17.6,12.9-28.9c9-1.5,17.2-6.3,23.5-13.9c7.2-8.7,11.3-20.2,11.3-32.4
		S203.1,176.3,195.9,167.6z M155,229c0,41.3-28.5,46-40.4,46H89.9c-12.6,0-22.1-4.2-29-12.3c-6.8-8-9.9-19.7-9.9-33.7v-72h104V229z
		 M177,224v-48c6,4.6,11.3,13.6,11.3,24S183,219.4,177,224z"/>
</g>
</svg>
