<svg xmlns="http://www.w3.org/2000/svg" xmlns:xlink="http://www.w3.org/1999/xlink" version="1.1" id="Layer_1" x="0" y="0" viewBox="0 0 540 210" xml:space="preserve" enable-background="new 0 0 540 210"><style type="text/css">
	.st0{fill:#CB3837;}
	.st1{fill:#FFFFFF;}
</style><path class="st0" d="M0 0h540v180H270v30H150v-30H0V0zM30 150h60V60h30v90h30V30H30V150zM180 30v150h60v-30h60V30H180zM240 60h30v60h-30V60zM330 30v120h60V60h30v90h30V60h30v90h30V30H330z"/><polygon class="st1" points="30 150 90 150 90 60 120 60 120 150 150 150 150 30 30 30 "/><path class="st1" d="M180 30v150h60v-30h60V30H180zM270 120h-30V60h30V120z"/><polygon class="st1" points="330 30 330 150 390 150 390 60 420 60 420 150 450 150 450 60 480 60 480 150 510 150 510 30 "/></svg>