<?xml version="1.0" encoding="UTF-8" standalone="no"?>
<svg width="64" height="50" viewBox="0 0 64 50" version="1.1" xmlns="http://www.w3.org/2000/svg">
 <g id="Page-1" fill="none" fill-rule="evenodd">
  <g id="Artboard-3" transform="translate(-524.000000, -351.000000)">
   <g id="Planet-3" transform="translate(524.000000, 351.000000)">
    <path d="M57.7033,2.5528 L58.8583,2.8138 C59.0473,2.8658 59.0473,3.1348 58.8583,3.1868 L57.7033,3.4478 C57.6063,3.4708 57.5303,3.5388 57.5033,3.6248 L57.1863,4.8578 C57.1343,5.0478 56.8653,5.0478 56.8133,4.8578 L56.4963,3.6248 C56.4693,3.5388 56.3943,3.4708 56.2963,3.4478 L55.1423,3.1868 C54.9523,3.1348 54.9523,2.8658 55.1423,2.8138 L56.2963,2.5528 C56.3933,2.5288 56.4693,2.4618 56.4963,2.3758 L56.8133,1.1418 C56.8653,0.9528 57.1343,0.9528 57.1863,1.1418 L57.5033,2.3758 C57.5303,2.4618 57.6063,2.5288 57.7033,2.5528" id="Fill-39" fill="#f2b430"/>
    <path d="M55.3389,18.5234 C50.1239,17.8874 33.2049,4.1414 32.2169,0.6314 L33.1799,0.3614 C34.0939,3.6074 50.6229,16.9404 55.4599,17.5314 L55.3389,18.5234 Z" id="Fill-67" fill="#f2b430"/>
    <path d="M55.874,27.4839 C55.772,27.4579 45.665,24.7849 38.694,19.3959 C32.102,14.2989 26.474,4.0219 26.5,1.1319 L27.5,1.1409 C27.478,3.4749 32.693,13.4929 39.306,18.6049 C46.117,23.8699 56.026,26.4899 56.126,26.5159 L55.874,27.4839 Z" id="Fill-68" fill="#f2b430"/>
    <path d="M48.5449,42.7085 C48.1459,41.8305 47.8529,40.9675 47.5689,40.1315 C46.7799,37.8025 45.9639,35.3945 42.6619,32.3685 C40.9989,30.8445 39.1569,29.8415 37.2079,28.7785 C34.3919,27.2445 31.4799,25.6585 28.6199,22.3255 C20.9869,13.4305 20.5169,3.7795 20.4999,3.3725 L21.4999,3.3325 C21.5039,3.4285 21.9829,13.0545 29.3799,21.6745 C32.1189,24.8675 34.9489,26.4095 37.6869,27.9005 C39.6909,28.9935 41.5849,30.0245 43.3379,31.6315 C46.8289,34.8305 47.6869,37.3625 48.5169,39.8115 C48.8049,40.6605 49.0759,41.4615 49.4549,42.2945 L48.5449,42.7085 Z" id="Fill-69" fill="#f2b430"/>
    <path d="M29.5039,49.0654 C29.1589,46.4434 13.3789,35.2754 8.9139,34.4924 L9.0859,33.5074 C12.9719,34.1894 30.0189,45.3124 30.4959,48.9344 L29.5039,49.0654 Z" id="Fill-70" fill="#f2b430"/>
    <path d="M36.5,48.7646 C36.423,44.5316 35.047,36.5176 26.704,30.4036 C21.652,26.7006 19.165,21.2806 17.167,16.9266 C15.674,13.6726 14.494,11.1026 12.822,10.4676 L13.178,9.5326 C15.232,10.3136 16.487,13.0476 18.075,16.5096 C20.025,20.7586 22.453,26.0466 27.296,29.5966 C35.985,35.9656 37.419,44.3276 37.5,48.7456 L36.5,48.7646 Z" id="Fill-71" fill="#f2b430"/>
    <path d="M7,14 C7,14.552 6.552,15 6,15 C5.448,15 5,14.552 5,14 C5,13.448 5.448,13 6,13 C6.552,13 7,13.448 7,14" id="Fill-72" fill="#f2b430"/>
    <path d="M32,0 C18.193,0 7,11.193 7,25 C7,38.807 18.193,50 32,50 C45.807,50 57,38.807 57,25 C57,11.193 45.807,0 32,0 M32,1 C45.234,1 56,11.766 56,25 C56,38.234 45.234,49 32,49 C18.766,49 8,38.234 8,25 C8,11.766 18.766,1 32,1" id="Fill-66" fill="#1d7ed0"/>
    <path d="M9.4411,5 L9.4411,5 C11.7041,5 14.2551,5.315 16.9991,5.916 L17.4581,5.001 C14.5081,4.339 11.8001,4 9.4411,4 C5.2011,4 2.0891,5.097 0.7311,7.391 C-3.0079,13.708 7.9611,26.712 25.2301,36.437 C36.2271,42.63 47.1261,46 54.5591,46 C58.7991,46 61.9111,44.903 63.2691,42.609 C65.4161,38.982 62.7131,33.15 56.7531,26.999 L56.3371,28.002 C59.6781,31.5 61.9371,34.895 62.7171,37.805 C63.1791,39.529 63.0751,40.974 62.4081,42.1 C60.9891,44.497 57.3571,45 54.5591,45 C46.9911,45 36.2101,41.473 25.7211,35.566 C12.9171,28.356 3.0961,18.964 1.2831,12.195 C0.8211,10.471 0.9251,9.026 1.5921,7.9 C3.0101,5.503 6.6431,5 9.4411,5" id="Fill-131" fill="#f2b430"/>
    <path d="M56.6457,29.2177 C56.8787,27.8467 56.9997,26.4377 56.9997,24.9997 L55.9997,24.9997 C55.9997,25.0977 55.9997,25.1957 55.9987,25.2927 C55.9837,26.5207 55.8757,27.7267 55.6827,28.9047 L56.6457,29.2177 Z M15.6307,7.4637 C16.7837,6.3877 18.0417,5.4227 19.3887,4.5867 L18.7177,3.8157 C17.3097,4.7007 15.9957,5.7227 14.7947,6.8627 L15.6307,7.4637 Z" id="Fill-3" fill="#1d7ed0"/>
   </g>
  </g>
 </g>
</svg>
