<?xml version="1.0" encoding="UTF-8" standalone="no"?>
<svg width="64" height="48" viewBox="0 0 64 48" version="1.1" xmlns="http://www.w3.org/2000/svg">
 <g id="Page-1" fill="none" fill-rule="evenodd">
  <g id="Artboard-3" transform="translate(-420.000000, -248.000000)">
   <g id="Stars" transform="translate(420.000000, 248.000000)">
    <path d="M58.8133,17.1057 L63.4323,18.1497 C64.1893,18.3577 64.1893,19.4317 63.4323,19.6397 L58.8133,20.6837 C58.4253,20.7787 58.1213,21.0477 58.0143,21.3927 L56.7453,26.3267 C56.5373,27.0837 55.4633,27.0837 55.2543,26.3267 L53.9853,21.3927 C53.8793,21.0477 53.5753,20.7787 53.1873,20.6837 L48.5683,19.6397 C47.8103,19.4317 47.8103,18.3577 48.5683,18.1487 L53.1863,17.1057 C53.5753,17.0107 53.8783,16.7407 53.9853,16.3957 L55.2543,11.4627 C55.4623,10.7057 56.5373,10.7057 56.7453,11.4627 L58.0143,16.3957 C58.1213,16.7417 58.4253,17.0107 58.8133,17.1057" id="Fill-32" fill="#1d7ed0"/>
    <path d="M10.8133,38.2111 L15.4323,39.2551 C16.1893,39.4631 16.1893,40.5371 15.4323,40.7451 L10.8133,41.7891 C10.4253,41.8841 10.1213,42.1531 10.0143,42.4981 L8.7453,47.4321 C8.5373,48.1891 7.4633,48.1891 7.2543,47.4321 L5.9853,42.4981 C5.8793,42.1531 5.5753,41.8841 5.1873,41.7891 L0.5683,40.7451 C-0.1897,40.5371 -0.1897,39.4631 0.5683,39.2541 L5.1863,38.2111 C5.5753,38.1161 5.8783,37.8461 5.9853,37.5011 L7.2543,32.5681 C7.4623,31.8111 8.5373,31.8111 8.7453,32.5681 L10.0143,37.5011 C10.1213,37.8471 10.4253,38.1161 10.8133,38.2111" id="Fill-33" fill="#1d7ed0"/>
    <path d="M40,3.1056 L42.309,3.6276 C42.688,3.7316 42.688,4.2686 42.309,4.3726 L40,4.8946 C39.806,4.9426 39.654,5.0766 39.601,5.2496 L38.966,7.7156 C38.862,8.0946 38.325,8.0946 38.221,7.7156 L37.586,5.2496 C37.533,5.0766 37.381,4.9416 37.187,4.8946 L34.877,4.3726 C34.499,4.2686 34.499,3.7316 34.877,3.6276 L37.187,3.1056 C37.381,3.0576 37.533,2.9236 37.586,2.7506 L38.221,0.2836 C38.325,-0.0944 38.862,-0.0944 38.966,0.2836 L39.6,2.7506 C39.654,2.9236 39.806,3.0586 40,3.1056" id="Fill-34" fill="#f2b430"/>
    <path d="M46.4067,35.1056 L48.7157,35.6276 C49.0947,35.7316 49.0947,36.2686 48.7157,36.3726 L46.4067,36.8946 C46.2127,36.9426 46.0607,37.0766 46.0077,37.2496 L45.3727,39.7156 C45.2687,40.0946 44.7317,40.0946 44.6277,39.7156 L43.9927,37.2496 C43.9397,37.0766 43.7877,36.9416 43.5937,36.8946 L41.2837,36.3726 C40.9057,36.2686 40.9057,35.7316 41.2837,35.6276 L43.5937,35.1056 C43.7877,35.0576 43.9397,34.9236 43.9927,34.7506 L44.6277,32.2836 C44.7317,31.9056 45.2687,31.9056 45.3727,32.2836 L46.0067,34.7506 C46.0607,34.9236 46.2127,35.0586 46.4067,35.1056" id="Fill-35" fill="#1d7ed0"/>
    <path d="M35.7033,43.5528 L36.8583,43.8138 C37.0473,43.8658 37.0473,44.1348 36.8583,44.1868 L35.7033,44.4478 C35.6063,44.4708 35.5303,44.5388 35.5033,44.6248 L35.1863,45.8578 C35.1343,46.0478 34.8653,46.0478 34.8133,45.8578 L34.4963,44.6248 C34.4693,44.5388 34.3943,44.4708 34.2963,44.4478 L33.1423,44.1868 C32.9523,44.1348 32.9523,43.8658 33.1423,43.8138 L34.2963,43.5528 C34.3933,43.5288 34.4693,43.4618 34.4963,43.3758 L34.8133,42.1418 C34.8653,41.9528 35.1343,41.9528 35.1863,42.1418 L35.5033,43.3758 C35.5303,43.4618 35.6063,43.5288 35.7033,43.5528" id="Fill-36" fill="#f2b430"/>
    <path d="M18.7033,5.5528 L19.8583,5.8138 C20.0473,5.8658 20.0473,6.1348 19.8583,6.1868 L18.7033,6.4478 C18.6063,6.4708 18.5303,6.5388 18.5033,6.6248 L18.1863,7.8578 C18.1343,8.0478 17.8653,8.0478 17.8133,7.8578 L17.4963,6.6248 C17.4693,6.5388 17.3943,6.4708 17.2963,6.4478 L16.1423,6.1868 C15.9523,6.1348 15.9523,5.8658 16.1423,5.8138 L17.2963,5.5528 C17.3933,5.5288 17.4693,5.4618 17.4963,5.3758 L17.8133,4.1418 C17.8653,3.9528 18.1343,3.9528 18.1863,4.1418 L18.5033,5.3758 C18.5303,5.4618 18.6063,5.5288 18.7033,5.5528" id="Fill-40" fill="#f2b430"/>
    <path d="M11,17 C11,18.105 10.105,19 9,19 C7.895,19 7,18.105 7,17 C7,15.895 7.895,15 9,15 C10.105,15 11,15.895 11,17" id="Fill-57" fill="#f2b430"/>
    <path d="M31,22.5 C26.868,22.5 23.635,21.028 20.758,19.437 L21.242,18.562 C24.002,20.088 27.094,21.5 31,21.5 C34.888,21.5 36.751,20.565 36.77,20.556 L37.232,21.443 C37.149,21.486 35.165,22.5 31,22.5" id="Fill-331" fill="#f2b430"/>
    <path d="M23.1929,33.4614 L22.8069,32.5384 C25.5589,31.3874 31.3869,31.7064 33.2089,32.5454 L32.7909,33.4544 C31.1549,32.7004 25.6919,32.4154 23.1929,33.4614" id="Fill-332" fill="#f2b430"/>
    <path d="M31.5034,28.1255 C29.5934,28.1255 27.5194,27.6355 25.7194,26.4135 C24.7954,25.7865 23.9574,25.1075 23.1474,24.4515 C21.7754,23.3405 20.4794,22.2905 18.7784,21.4485 L19.2214,20.5515 C21.0234,21.4435 22.4224,22.5775 23.7764,23.6745 C24.5704,24.3175 25.3914,24.9825 26.2804,25.5865 C29.0644,27.4765 32.5724,27.4245 34.8164,26.5355 L36.9904,25.6725 L37.3584,26.6025 L35.1844,27.4645 C34.1474,27.8755 32.8674,28.1255 31.5034,28.1255" id="Fill-333" fill="#f2b430"/>
    <path d="M28,15 C22.477,15 18,19.477 18,25 C18,30.523 22.477,35 28,35 C33.523,35 38,30.523 38,25 C38,19.477 33.523,15 28,15 M28,16 C32.963,16 37,20.037 37,25 C37,29.963 32.963,34 28,34 C23.037,34 19,29.963 19,25 C19,20.037 23.037,16 28,16" id="Fill-65" fill="#1d7ed0"/>
   </g>
  </g>
 </g>
</svg>
