<?xml version="1.0" encoding="utf-8"?>
<!-- Generator: Adobe Illustrator 18.1.1, SVG Export Plug-In . SVG Version: 6.00 Build 0)  -->
<!DOCTYPE svg PUBLIC "-//W3C//DTD SVG 1.1//EN" "http://www.w3.org/Graphics/SVG/1.1/DTD/svg11.dtd">
<svg version="1.1" id="Layer_1" xmlns="http://www.w3.org/2000/svg" xmlns:xlink="http://www.w3.org/1999/xlink" x="0px" y="0px"
	 viewBox="0 0 300 300" enable-background="new 0 0 300 300" xml:space="preserve">
<g id="Layer_1_1_" display="none">
	<circle display="inline" fill="#E6E6E6" cx="150" cy="150" r="150"/>
</g>
<g id="Capa_1">
	<path fill="#F2F2F2" d="M241.2,92.6c-6.7,3.4-14.6,5.6-22.4,6.7c7.8-4.5,14.6-12.3,16.8-21.3c-7.8,4.5-15.7,7.8-24.6,9
		c-6.7-7.8-16.8-12.3-29.1-12.3c-21.3,0-39.2,17.9-39.2,39.2c0,3.4,0,5.6,1.1,9c-32.5-2.2-60.5-17.9-80.6-41.4
		c-3.4,5.6-4.5,12.3-4.5,20.2c0,13.4,6.7,25.7,17.9,32.5c-6.7,0-12.3-2.2-17.9-4.5l0,0c0,19,13.4,34.7,31.3,38.1
		c-3.4,1.1-6.7,1.1-10.1,1.1c-2.2,0-4.5,0-7.8-1.1c4.5,15.7,19,26.9,36.9,26.9c-14.6,11.2-31.3,17.9-49.3,17.9c-3.4,0-6.7,0-9,0
		c16.8,11.2,38.1,17.9,60.5,17.9c71.6,0,110.8-59.3,110.8-110.8c0-2.2,0-3.4,0-5.6C228.8,107.2,235.6,100.4,241.2,92.6"/>
</g>
</svg>
