<?xml version="1.0" encoding="UTF-8" standalone="no"?>
<svg width="64" height="38" viewBox="0 0 64 38" version="1.1" xmlns="http://www.w3.org/2000/svg">
 <g id="Page-1" fill="none" fill-rule="evenodd">
  <g id="Artboard-3" transform="translate(-420.000000, -565.000000)">
   <g id="UFO-2" transform="translate(420.000000, 565.000000)">
    <path d="M12.4995,38 C12.4195,38 12.3385,37.98 12.2635,37.94 C12.0205,37.81 11.9285,37.506 12.0595,37.263 L15.5595,30.763 C15.6905,30.519 15.9945,30.43 16.2365,30.56 C16.4795,30.69 16.5715,30.994 16.4405,31.237 L12.9405,37.737 C12.8505,37.905 12.6775,38 12.4995,38" id="Fill-232" fill="#f2b430"/>
    <path d="M51.5,38 C51.322,38 51.15,37.905 51.06,37.737 L47.56,31.237 C47.429,30.994 47.52,30.69 47.763,30.56 C48.006,30.43 48.309,30.519 48.44,30.763 L51.94,37.263 C52.071,37.506 51.98,37.81 51.737,37.94 C51.662,37.98 51.58,38 51.5,38" id="Fill-233" fill="#f2b430"/>
    <path d="M42.7039,7.681 C55.1779,9.345 62.9999,13.79 62.9999,18 C62.9999,23.312 50.5429,29 31.9999,29 C13.4569,29 0.9999,23.312 0.9999,18 C0.9999,13.789 8.8289,9.341 21.3119,7.679 L21.5469,6.655 C9.0069,8.279 -0.0001,12.745 -0.0001,18 C-0.0001,24.627 14.3269,30 31.9999,30 C49.6729,30 63.9999,24.627 63.9999,18 C63.9999,12.741 54.9789,8.272 42.4239,6.651 L42.7039,7.681 Z" id="Fill-103" fill="#1d7ed0"/>
    <path d="M63,18 L63,21 C63,26.312 50.543,32 32,32 C13.457,32 1,26.312 1,21 L1,18 L0,18 L0,21 C0,27.627 14.327,33 32,33 C49.673,33 64,27.627 64,21 L64,18 L63,18 Z" id="Fill-231" fill="#1d7ed0"/>
    <path d="M40.5,12 C40.224,12 40,11.776 40,11.5 C40,7.294 36.706,4 32.5,4 C32.224,4 32,3.776 32,3.5 C32,3.224 32.224,3 32.5,3 C37.267,3 41,6.733 41,11.5 C41,11.776 40.776,12 40.5,12" id="Fill-48" fill="#f2b430"/>
    <path d="M32,0 C25.373,0 20,5.404 20,11.5 C20,14.5 26,16 32,16 C38,16 44,14.5 44,11.5 C44,5.494 38.627,0 32,0 M32,1 C37.86,1 43,5.907 43,11.5 C43,13.43 38.065,15 32,15 C25.935,15 21,13.43 21,11.5 C21,5.808 26.037,1 32,1" id="Fill-47" fill="#f2b430"/>
   </g>
  </g>
 </g>
</svg>
