<svg xmlns="http://www.w3.org/2000/svg" xmlns:xlink="http://www.w3.org/1999/xlink" version="1.1" id="Layer_1" x="0" y="0" viewBox="0 0 122.5 122.5" xml:space="preserve" enable-background="new 0 0 122.5 122.5"><style type="text/css">
	.st0{fill:#464342;}
</style><g id="Layer_2"><path class="st0" d="M8.7 61.3c0 20.8 12.1 38.8 29.6 47.3L13.3 39.9C10.3 46.4 8.7 53.6 8.7 61.3z"/><path class="st0" d="M96.7 58.6c0-6.5-2.3-11-4.3-14.5 -2.7-4.3-5.2-8-5.2-12.3 0-4.8 3.7-9.3 8.8-9.3 0.2 0 0.5 0 0.7 0C87.4 13.9 74.9 8.7 61.3 8.7c-18.4 0-34.5 9.4-43.9 23.7 1.2 0 2.4 0.1 3.4 0.1 5.5 0 14-0.7 14-0.7 2.8-0.2 3.2 4 0.3 4.3 0 0-2.8 0.3-6 0.5l19.1 56.9 11.5-34.5 -8.2-22.4c-2.8-0.2-5.5-0.5-5.5-0.5 -2.8-0.2-2.5-4.5 0.3-4.3 0 0 8.7 0.7 13.8 0.7 5.5 0 14-0.7 14-0.7 2.8-0.2 3.2 4 0.3 4.3 0 0-2.9 0.3-6 0.5l19 56.5 5.2-17.5C95 68.3 96.7 63.1 96.7 58.6z"/><path class="st0" d="M62.2 65.9l-15.8 45.8c4.7 1.4 9.7 2.1 14.8 2.1 6.1 0 12-1.1 17.5-3 -0.1-0.2-0.3-0.5-0.4-0.7L62.2 65.9z"/><path class="st0" d="M107.4 36c0.2 1.7 0.4 3.5 0.4 5.4 0 5.3-1 11.3-4 18.8l-16.1 46.4c15.6-9.1 26.1-26 26.1-45.4C113.8 52.1 111.5 43.5 107.4 36z"/><path class="st0" d="M61.3 0C27.5 0 0 27.5 0 61.3c0 33.8 27.5 61.3 61.3 61.3 33.8 0 61.3-27.5 61.3-61.3C122.5 27.5 95 0 61.3 0zM61.3 119.7C29 119.7 2.8 93.5 2.8 61.3 2.8 29 29 2.8 61.3 2.8c32.2 0 58.5 26.2 58.5 58.5C119.7 93.5 93.5 119.7 61.3 119.7z"/></g></svg>